<svg width="85" height="85" fill="none" xmlns="http://www.w3.org/2000/svg"><g clip-path="url(#clip0)" fill="#1DBBBA"><path d="M72.662 60.323h-1.429c-.345-4.181-2.284-8.046-5.426-10.865v-.026a6.87 6.87 0 00-5.052-6.613l-10.029-2.737v-2.12a12.365 12.365 0 003.418-5.126c3.46-.346 6.18-3.239 6.18-6.787v-8.226C60.323 7.997 52.327.002 42.5.002S24.678 7.997 24.678 17.823v8.226c0 3.548 2.72 6.44 6.18 6.787a12.359 12.359 0 003.417 5.125v2.121l-10.028 2.735a6.872 6.872 0 00-5.052 6.615v.032a16.375 16.375 0 00-5.415 10.96 11.574 11.574 0 00-5.442.617c-5.14 1.881-8.41 6.512-8.337 11.8C.097 79.545 5.631 85 12.34 85h60.322C79.464 85 85 79.465 85 72.662c0-6.804-5.536-12.34-12.338-12.34zm-22.9-17.662l.801.218L48.527 50l-3.816-2.29 5.052-5.05zm5.02-12.733c.034-.376.057-.753.057-1.137V22.19c1.592.567 2.742 2.075 2.742 3.86 0 1.806-1.177 3.327-2.8 3.879zM42.5 2.743c8.315 0 15.08 6.766 15.08 15.08v2.778c-.8-.606-1.723-1.06-2.742-1.267v-1.51h-2.742v.788a11.767 11.767 0 01-6.369 3.166 14.752 14.752 0 001.62-1.38l.235-.235-1.941-1.936-.233.234a11.844 11.844 0 01-4.512 2.816c.331-.278.658-.568.968-.879l.234-.235-1.941-1.936-.233.234a11.787 11.787 0 01-7.022 3.39v-4.027H30.16v1.51a6.804 6.804 0 00-2.742 1.266v-2.777c.001-8.314 6.767-15.08 15.082-15.08zM27.42 26.05c0-1.785 1.15-3.293 2.741-3.86v6.602c0 .384.024.761.058 1.137-1.622-.552-2.8-2.073-2.8-3.879zm5.483 2.742v-4.18a14.536 14.536 0 004.113-.998v1.065c2.43 0 4.768-.59 6.855-1.701v1.701c2.979 0 5.818-.89 8.225-2.539v6.652c0 5.29-4.305 9.597-9.596 9.597-5.292 0-9.597-4.306-9.597-9.597zm9.597 12.339c1.971 0 3.829-.476 5.483-1.303v.735l-5.483 5.484-5.484-5.484v-.735a12.23 12.23 0 005.484 1.303zm-7.262 1.531l5.05 5.05-3.816 2.29-2.036-7.122.802-.218zm-13.302 6.771a4.121 4.121 0 013.03-3.969l6.827-1.862 3.025 10.59 6.31-3.785v16.772H21.938V49.432zm50.725 32.826H12.34c-5.217 0-9.522-4.243-9.595-9.457-.058-4.104 2.507-7.71 6.536-9.184 1.474-.537 2.958-.66 4.508-.412a16.39 16.39 0 00.542 2.975l2.639-.745a13.71 13.71 0 012.225-11.953V69.92h41.128v-2.742H43.872V50.406l6.312 3.786 3.025-10.59 6.826 1.861a4.122 4.122 0 013.03 3.97v15.003h2.742V53.482a13.654 13.654 0 012.742 8.212v1.37h4.113c5.291 0 9.596 4.307 9.596 9.598 0 5.29-4.305 9.596-9.596 9.596z"/><path d="M63.065 67.178h2.742v2.742h-2.742v-2.742zM68.549 67.178h2.742v2.742h-2.742v-2.742zM9.598 75.404h2.742v2.742H9.598v-2.742zM15.082 75.404h2.742v2.742h-2.742v-2.742zM20.566 75.404h2.742v2.742h-2.742v-2.742zM.001 12.34h2.742v2.742H.001V12.34zM9.598.001h2.742v2.742H9.598V.001zM9.598 5.485h2.742v2.742H9.598V5.485zM9.598 34.275h15.08v-2.742H12.34V10.969H9.598v13.71H2.743v-6.855H.001v9.596h9.597v6.855zM82.258 12.34H85v2.742h-2.742V12.34zM82.258 24.678h-6.855v-13.71h-2.741v20.565H60.323v2.742h15.08V27.42H85v-9.597h-2.742v6.855zM72.662.001h2.741v2.742h-2.741V.001zM72.662 5.485h2.741v2.742h-2.741V5.485z"/></g><defs><clipPath id="clip0"><path fill="#fff" d="M0 0h85v85H0z"/></clipPath></defs></svg>