<svg width="85" height="85" fill="none" xmlns="http://www.w3.org/2000/svg"><path d="M38.96 9.942a11.24 11.24 0 00-3.765-.645v2.656c.987 0 1.955.166 2.877.493l.887-2.504zM31.431 9.942a11.316 11.316 0 00-7.525 10.644h2.657a8.655 8.655 0 015.756-8.14l-.888-2.504z" fill="#1DBBBA"/><path d="M69.063 61.872v-5.003c7.525-1.27 13.28-7.816 13.28-15.697 0-8.788-7.148-15.938-15.937-15.938-1.894 0-3.734.33-5.49.98-.772-3.592-3.971-6.292-7.791-6.292h-.012c-.35-9.58-8.254-17.266-17.918-17.266-9.886 0-17.93 8.043-17.93 17.93 0 .733.046 1.466.136 2.195-8.378 1.229-14.745 8.46-14.745 17.063 0 8.146 5.68 14.977 13.281 16.783v5.245L7.03 70.78c-.25.248-.39.587-.39.939v5.312h2.657V72.27l8.908-8.908c.25-.248.389-.587.389-.94v-5.38c.44.035.879.068 1.328.068h3.984v7.42l-6.251 6.25c-.25.25-.39.588-.39.94v5.312h2.657V72.27l6.251-6.252c.25-.248.39-.587.39-.939V57.11h6.64v10.075l-3.595 3.596c-.25.248-.39.587-.39.939v5.312h2.657V72.27l3.595-3.596c.25-.248.39-.587.39-.939V57.11h5.312v19.922h2.656V57.11h5.313v10.625c0 .352.14.691.389.94l3.595 3.595v4.762h2.656V71.72c0-.352-.14-.69-.389-.94l-3.595-3.594V57.108h6.64v7.97c0 .351.14.69.39.938l6.251 6.252v4.762h2.656V71.72c0-.352-.14-.69-.389-.94l-6.251-6.25v-7.42h5.312v5.313c0 .352.14.69.39.939l8.907 8.908v4.762h2.656V71.72c0-.352-.14-.69-.389-.94l-8.907-8.907zm-49.141-7.419c-8.055 0-14.61-6.554-14.61-14.61 0-7.693 6.02-14.09 13.707-14.56a1.328 1.328 0 001.22-1.594 15.404 15.404 0 01-.317-3.103c0-8.422 6.852-15.273 15.273-15.273 8.422 0 15.274 6.851 15.274 15.273 0 .149-.01.296-.022.442l-.018.303a1.328 1.328 0 001.6 1.363c3.34-.703 6.407 1.91 6.404 5.174-.005.04-.023.207-.026.247a1.326 1.326 0 001.935 1.25 13.15 13.15 0 016.064-1.474c7.323 0 13.281 5.958 13.281 13.28 0 7.324-5.957 13.282-13.28 13.282H19.921zM75.703 79.688h2.656v2.656h-2.656v-2.656zM65.078 79.688h2.656v2.656h-2.656v-2.656zM53.125 79.688h2.656v2.656h-2.656v-2.656zM6.64 79.688h2.657v2.656H6.64v-2.656zM17.266 79.688h2.656v2.656h-2.656v-2.656zM29.219 79.688h2.656v2.656h-2.656v-2.656zM41.172 79.688h2.656v2.656h-2.656v-2.656z" fill="#1DBBBA"/><path d="M35.86 31.875h2.656v2.656h-2.657v-2.656zM35.86 37.188h2.656v2.656h-2.657v-2.657zM35.86 42.5h2.656v2.656h-2.657V42.5zM41.172 31.875h2.656v2.656h-2.656v-2.656zM41.172 37.188h2.656v2.656h-2.656v-2.657zM41.172 42.5h2.656v2.656h-2.656V42.5zM46.484 31.875h2.657v2.656h-2.657v-2.656zM46.484 37.188h2.657v2.656h-2.657v-2.657zM46.484 42.5h2.657v2.656h-2.657V42.5z" fill="#1DBBBA"/><path d="M51.797 47.813h-5.313v2.656h6.641c.734 0 1.328-.595 1.328-1.328v-7.97h-2.656v6.642zM39.844 26.563h-7.969c-.735 0-1.328.595-1.328 1.328v7.968h2.656v-6.64h6.64v-2.657zM38.516 47.813h5.312v2.656h-5.312v-2.657zM42.5 26.563h3.984v2.656H42.5v-2.657zM53.125 26.563h-3.984v2.656h2.656v9.297h2.656V27.89c0-.733-.594-1.328-1.328-1.328zM33.203 38.516h-2.656V49.14c0 .733.593 1.328 1.328 1.328h3.984v-2.657h-2.656v-9.296z" fill="#1DBBBA"/></svg>