<svg width="85" height="85" fill="none" xmlns="http://www.w3.org/2000/svg"><path d="M83.754 77.747L71.3 65.294a16.829 16.829 0 002.366-8.627c0-9.39-7.611-17-17-17-9.39 0-17 7.61-17 17 0 9.389 7.61 17 17 17a16.829 16.829 0 008.627-2.366l12.453 12.453a4.25 4.25 0 006.007 0 4.25 4.25 0 000-6.007zM42.5 56.667c0-7.824 6.343-14.167 14.167-14.167s14.166 6.343 14.166 14.167-6.342 14.166-14.166 14.166c-7.824 0-14.167-6.342-14.167-14.166zm39.256 25.089a1.415 1.415 0 01-2.012 0L67.632 69.644a16.94 16.94 0 002.012-2.012l12.112 12.112a1.415 1.415 0 010 2.012z" fill="#1DBBBA"/><path d="M57.757 47.26a1.417 1.417 0 00-2.181 0l-7.084 8.5a1.416 1.416 0 001.091 2.323h2.834v4.25a1.417 1.417 0 002.833 0v-5.666c0-.783-.634-1.417-1.417-1.417h-1.232l4.066-4.873 4.066 4.873H59.5c-.782 0-1.417.634-1.417 1.417v5.666a1.417 1.417 0 002.834 0v-4.25h2.833a1.417 1.417 0 001.09-2.323l-7.083-8.5z" fill="#1DBBBA"/><path d="M66.583 76.5c-.782 0-1.416.634-1.416 1.417a4.25 4.25 0 01-4.25 4.25H7.083a4.25 4.25 0 01-4.25-4.25V7.083a4.25 4.25 0 014.25-4.25h53.834a4.25 4.25 0 014.25 4.25v30.473a1.416 1.416 0 102.833 0V7.083A7.084 7.084 0 0060.917 0H7.083A7.084 7.084 0 000 7.083v70.834A7.084 7.084 0 007.083 85h53.834A7.084 7.084 0 0068 77.917c0-.783-.634-1.417-1.417-1.417z" fill="#1DBBBA"/><path d="M36.55 34h10.2a1.417 1.417 0 000-2.833h-9.095c.394-1.383.594-2.813.595-4.25 0-.783-.634-1.417-1.417-1.417h-12.75V12.75c0-.782-.634-1.416-1.416-1.416A15.583 15.583 0 007.278 24.477 15.583 15.583 0 0036.55 34zm-13.883 5.667c-6.746-.028-12.303-5.305-12.678-12.04-.376-6.736 4.56-12.598 11.261-13.375v12.665c0 .782.634 1.416 1.417 1.416h12.665a12.665 12.665 0 01-.638 2.834H29.75a1.417 1.417 0 000 2.833h3.513a12.749 12.749 0 01-10.596 5.667z" fill="#1DBBBA"/><path d="M46.75 12.75h-5.37a15.584 15.584 0 00-13.047-7.083c-.782 0-1.416.634-1.416 1.416V21.25c0 .782.634 1.417 1.416 1.417H42.5c.782 0 1.417-.635 1.417-1.417 0-1.938-.361-3.86-1.063-5.667h3.896a1.417 1.417 0 000-2.833zm-5.752 7.083H29.75V8.585a12.75 12.75 0 018.075 4.165h-2.408a1.417 1.417 0 000 2.833h4.335a12.307 12.307 0 011.246 4.25zM58.083 12.75a1.417 1.417 0 000-2.834h-5.666c-.783 0-1.417.635-1.417 1.417V17c0 .782.634 1.416 1.417 1.416h5.666a1.417 1.417 0 000-2.833h-4.25V12.75h4.25zM58.083 28.333h-5.666c-.783 0-1.417.635-1.417 1.417v5.667c0 .782.634 1.416 1.417 1.416h5.666c.783 0 1.417-.634 1.417-1.416V29.75c0-.782-.634-1.417-1.417-1.417zM56.667 34h-2.834v-2.833h2.834V34zM18.417 77.917c.782 0 1.416-.635 1.416-1.417V65.167c0-.783-.634-1.417-1.416-1.417H12.75c-.782 0-1.416.634-1.416 1.417V76.5a1.417 1.417 0 002.833 0v-9.917H17V76.5c0 .782.634 1.417 1.417 1.417zM29.75 77.917c.782 0 1.417-.635 1.417-1.417v-17c0-.782-.635-1.417-1.417-1.417h-5.667c-.782 0-1.416.635-1.416 1.417v17a1.417 1.417 0 002.833 0V60.917h2.833V76.5c0 .782.635 1.417 1.417 1.417zM26.917 52.133v1.7a1.417 1.417 0 002.833 0v-5.666c0-.783-.634-1.417-1.417-1.417h-5.666a1.417 1.417 0 000 2.833H25.5a17.737 17.737 0 01-15.413 5.667 1.427 1.427 0 10-.34 2.833c.85.113 1.706.17 2.564.17a20.556 20.556 0 0014.606-6.12z" fill="#1DBBBA"/></svg>