<svg width="85" height="85" fill="none" xmlns="http://www.w3.org/2000/svg"><path d="M39.105 59.014h-.71a1.245 1.245 0 100 2.49h.71a1.245 1.245 0 100-2.49zM72.794 76.506h-.71a1.245 1.245 0 100 2.49h.71a1.245 1.245 0 100-2.49zM77.835 52.564H67.043a1.245 1.245 0 100 2.49h10.792a1.245 1.245 0 100-2.49zM77.835 58.66H67.043a1.245 1.245 0 100 2.49h10.792a1.245 1.245 0 100-2.49zM77.835 64.756H67.043a1.245 1.245 0 100 2.49h10.792a1.245 1.245 0 100-2.49zM61.124 33.029H15.142a1.245 1.245 0 100 2.49h45.982a1.245 1.245 0 100-2.49zM60.148 20.097h-44.03a2.224 2.224 0 00-2.22 2.221v4.722c0 1.225.996 2.221 2.22 2.221h44.03a2.224 2.224 0 002.221-2.221v-4.722a2.224 2.224 0 00-2.221-2.221zm-.27 6.674h-43.49v-4.184h43.49v4.184z" fill="#1DBBBA"/><path d="M83.755 59.366c.687 0 1.245-.557 1.245-1.245V41.808a2.792 2.792 0 00-2.79-2.79H77.5V5.653a3.95 3.95 0 00-3.946-3.945H3.945A3.95 3.95 0 000 5.653V64.01a3.952 3.952 0 003.945 3.945h25.803v6.742h-3.85a3.521 3.521 0 00-3.516 3.517v1.562a3.521 3.521 0 003.517 3.517h9.945a1.245 1.245 0 100-2.49H25.9c-.567 0-1.027-.46-1.027-1.027v-1.562c0-.566.46-1.027 1.027-1.027H50.89c.566 0 1.026.46 1.026 1.027v1.562c0 .566-.46 1.027-1.026 1.027h-9.236a1.245 1.245 0 100 2.49h9.236a3.521 3.521 0 003.517-3.517v-1.562a3.521 3.521 0 00-3.517-3.517h-3.85v-6.742H59.88v12.549a2.793 2.793 0 002.789 2.79H82.21a2.792 2.792 0 002.79-2.79V63.93a1.245 1.245 0 10-2.49 0v7.959H62.369V48.628h20.14v9.493c0 .687.558 1.245 1.246 1.245zM62.369 74.38h20.14v6.122a.3.3 0 01-.298.3H62.668a.3.3 0 01-.299-.3V74.38zM2.49 5.653c0-.802.653-1.455 1.456-1.455h69.608c.803 0 1.455.653 1.455 1.455v33.365h-3.06V10.446A2.848 2.848 0 0069.106 7.6H8.395a2.848 2.848 0 00-2.845 2.845v42.118H2.49V5.654zm66.97 4.793v3.616H15.144v-3.97h53.96c.195 0 .354.158.354.354zm-56.805-.355v3.97H8.04v-3.615c0-.196.16-.355.355-.355h4.26zM44.55 74.695H32.238v-6.741h12.313v6.741zm15.328-9.232H3.946c-.811 0-1.456-.668-1.456-1.455v-8.954H59.88v10.41zm1.736-26.237a1.241 1.241 0 00-.491-.102H15.142a1.245 1.245 0 100 2.49h44.746c-.004.065-.01.128-.01.193v3.413H15.143a1.245 1.245 0 100 2.49H59.88v4.854H8.04V16.552h61.42v22.466h-6.792c-.372 0-.727.075-1.053.208zm.754 6.912v-4.33a.3.3 0 01.3-.3H82.21a.3.3 0 01.299.3v4.33H62.37z" fill="#1DBBBA"/></svg>