<svg width="85" height="85" fill="none" xmlns="http://www.w3.org/2000/svg"><path d="M79.33 28.339H60.915c-.782 0-1.416.634-1.416 1.416v5.667c0 .782.634 1.416 1.416 1.416h4.25a2.833 2.833 0 110 5.666h-4.25c-.782 0-1.416.634-1.416 1.417v7.082H38.25c-.782 0-1.416.635-1.416 1.417v18.415A5.666 5.666 0 0042.5 76.5h36.83a5.666 5.666 0 005.665-5.666v-36.83a5.666 5.666 0 00-5.666-5.666zM59.5 73.668H42.5a2.833 2.833 0 01-2.834-2.834V53.837H59.5v2.833h-2.833a5.666 5.666 0 000 11.332h2.833v5.667zm22.664-2.834a2.833 2.833 0 01-2.833 2.834H62.332v-7.083c0-.782-.634-1.417-1.417-1.417h-4.25a2.833 2.833 0 110-5.666h4.25c.783 0 1.417-.634 1.417-1.416v-4.25h4.25v2.833a5.666 5.666 0 0011.332 0v-2.833h4.25v16.999zm0-19.83h-5.666c-.782 0-1.416.634-1.416 1.416v4.25a2.833 2.833 0 11-5.666 0v-4.25c0-.782-.635-1.417-1.417-1.417h-5.666v-5.666h2.833a5.666 5.666 0 000-11.332h-2.833v-2.833H79.33a2.833 2.833 0 012.833 2.833v16.998z" fill="#1DBBBA"/><path d="M62.332 5.675h-2.833v-4.25c0-.782-.634-1.416-1.417-1.416H39.667a5.666 5.666 0 00-5.666 5.666V21.54l-5.86 2.833a11.546 11.546 0 00-3.224-2.907c5.596-2.803 7.859-9.612 5.055-15.208C27.17.663 20.36-1.6 14.764 1.203a11.334 11.334 0 00-.739 19.858 11.359 11.359 0 00-6 7.298l-5.643 17.77a21.248 21.248 0 00.91 15.246 18.376 18.376 0 01-.294 15.888L.154 82.95A1.417 1.417 0 001.42 85h15.582c.782 0 1.417-.634 1.417-1.417a7.043 7.043 0 00-3.788-6.256l.677-1.352a21.41 21.41 0 001.902-13.326l-1.05-5.78a1.373 1.373 0 012.7-.491l1.923 10.584c.312 1.72.469 3.463.469 5.21v11.411c0 .783.634 1.417 1.416 1.417h15.582c.782 0 1.416-.634 1.416-1.417 0-.275-.016-.55-.048-.824a6.273 6.273 0 00-3.49-4.93 6.865 6.865 0 00-5.108-.453l.944-4.714c.412-2.064.62-4.163.62-6.268v-12.68L30.93 34.747l9.83-4.69a5.294 5.294 0 003.134-4.55h14.188c.783 0 1.417-.634 1.417-1.416v-7.083h2.833a5.666 5.666 0 000-11.332zM11.337 11.34a8.499 8.499 0 118.5 8.499 8.508 8.508 0 01-8.5-8.5zm19.683 69.1c1.18-.669 2.616-.7 3.824-.083a3.558 3.558 0 011.723 1.809H24.086v-9.995c0-1.917-.173-3.83-.516-5.717l-1.924-10.583a4.204 4.204 0 10-8.272 1.504l1.053 5.78a18.567 18.567 0 01-1.652 11.551l-1.375 2.75a1.417 1.417 0 00.929 2.019 4.234 4.234 0 013.014 2.69H3.713L5.53 78.53a21.203 21.203 0 00.34-18.327 18.414 18.414 0 01-.79-13.216l5.666-17.848a8.703 8.703 0 0110.03-6.306 8.358 8.358 0 014.742 2.799l-8.372 4.044a5.287 5.287 0 00-2.975 4.734 5.25 5.25 0 007.522 4.745l6.516-3.106 1.544 17.788v12.558a29.318 29.318 0 01-.567 5.711l-1.51 7.545a1.416 1.416 0 002.093 1.508l1.252-.716zm8.58-52.969l-.042.019-19.087 9.106a2.425 2.425 0 01-3.468-2.188 2.44 2.44 0 011.37-2.183l19.24-9.292a2.447 2.447 0 012.35.195 2.438 2.438 0 011.121 2.074c0 .984-.582 1.874-1.483 2.27zm22.732-13.298h-4.25c-.782 0-1.416.634-1.416 1.416v7.083H43.278a5.293 5.293 0 00-6.444-2.462V5.675a2.833 2.833 0 012.833-2.833h16.999v4.25c0 .782.634 1.416 1.416 1.416h4.25a2.833 2.833 0 110 5.666z" fill="#1DBBBA"/><path d="M57.08 37.253l-4.664 4.665v-7.913h-2.833v10.746l-1.416 1.416-1.417-1.416v-5.08h-2.833v2.247l-4.665-4.665-2.003 2.003 9.916 9.916c.553.553 1.45.553 2.003 0l9.916-9.916-2.003-2.003z" fill="#1DBBBA"/><path d="M46.75 34.005h-2.833v2.833h2.833v-2.833zM46.75 28.339h-2.833v2.833h2.833v-2.833zM52.416 28.339h-2.833v2.833h2.833v-2.833z" fill="#1DBBBA"/></svg>