<svg width="120" height="120" fill="none" xmlns="http://www.w3.org/2000/svg"><path d="M112.5 88.125V67.5h-3.75v20.625H97.5v-7.5h-3.75v7.5H82.5V22.5h26.25v41.25h3.75V20.625a1.877 1.877 0 00-1.875-1.875h-1.875v-5.625a1.877 1.877 0 00-1.875-1.875H97.5v-7.5h-3.75v7.5h-9.375a1.875 1.875 0 00-1.875 1.875v5.625h-1.875a1.875 1.875 0 00-1.875 1.875v11.25h-9.375a1.875 1.875 0 00-1.326.55l-15 15a1.876 1.876 0 00-.549 1.325v10.923l-10.03-8.597a1.876 1.876 0 00-2.44 0l-13.125 11.25a1.877 1.877 0 00-.655 1.424v7.938l-6.535-3.92a1.874 1.874 0 00-1.93 0L8.41 73.391A1.875 1.875 0 007.5 75v13.125H3.75v3.75h9.897A56.268 56.268 0 0060 116.25a56.266 56.266 0 0046.353-24.375h9.897v-3.75h-3.75zM86.25 15H105v3.75H86.25V15zm-5.56 76.875a66.315 66.315 0 01-5.727 9.375H45.037a66.314 66.314 0 01-5.728-9.375h41.382zM56.25 49.527l13.902-13.902h8.598v52.5h-9.375v-7.5h-3.75v7.5H56.25V49.527zM30 64.612l11.25-9.642 11.25 9.642v23.513h-9.375v-7.5h-3.75v7.5H30V64.612zm-18.75 11.45l7.5-4.5 7.5 4.5v12.063h-5.625v-7.5h-3.75v7.5H11.25V76.062zm7.029 15.813h16.86a70.427 70.427 0 005.317 9.375H27.508a52.628 52.628 0 01-9.23-9.375zM43.169 105a66.767 66.767 0 005.528 6.277A52.335 52.335 0 0132.933 105h10.235zm12.199 7.297A61.08 61.08 0 0148.001 105h23.998a61.08 61.08 0 01-7.367 7.297 53.124 53.124 0 01-9.264 0zM76.832 105h10.235a52.335 52.335 0 01-15.764 6.277A66.767 66.767 0 0076.832 105zm15.66-3.75H79.544a70.437 70.437 0 005.316-9.375h16.861a52.624 52.624 0 01-9.229 9.375z" fill="#1DBBBA"/><path d="M33.75 67.5h3.75v9.375h-3.75V67.5zM45 67.5h3.75v9.375H45V67.5zM60 67.5h3.75v9.375H60V67.5zM71.25 67.5H75v9.375h-3.75V67.5zM60 54.375h3.75v9.375H60v-9.375zM71.25 54.375H75v9.375h-3.75v-9.375zM86.25 54.375H90v9.375h-3.75v-9.375zM93.75 54.375h3.75v9.375h-3.75v-9.375zM86.25 41.25H90v9.375h-3.75V41.25zM93.75 41.25h3.75v9.375h-3.75V41.25zM86.25 28.125H90V37.5h-3.75v-9.375zM93.75 28.125h3.75V37.5h-3.75v-9.375zM101.25 54.375H105v9.375h-3.75v-9.375zM86.25 67.5H90v9.375h-3.75V67.5zM93.75 67.5h3.75v9.375h-3.75V67.5zM101.25 67.5H105v9.375h-3.75V67.5zM101.25 41.25H105v9.375h-3.75V41.25zM101.25 28.125H105V37.5h-3.75v-9.375zM71.25 41.25H75v9.375h-3.75V41.25zM4.878 63.595a1.875 1.875 0 002.026-.35l26.916-25.12 9.98 8.316a1.875 1.875 0 002.578-.17l21.414-23.198 4.293 2.862a1.876 1.876 0 002.906-1.373l1.875-18.75a1.875 1.875 0 00-2.405-1.983l-18.75 5.625a1.876 1.876 0 00-.501 3.356l3.82 2.547-14.216 15.797-9.864-8.22a1.875 1.875 0 00-2.48.07L22.427 32.38l2.559 2.742 8.835-8.247 9.98 8.317a1.875 1.875 0 002.594-.187l16.875-18.75a1.874 1.874 0 00-.354-2.814l-2.309-1.54 12.25-3.674-1.286 12.859-3.03-2.02a1.874 1.874 0 00-2.418.288L44.832 42.42l-9.882-8.234a1.875 1.875 0 00-2.48.07L7.5 57.56v-6.12l14.404-13.444-2.558-2.742-15 14a1.876 1.876 0 00-.596 1.371v11.25a1.875 1.875 0 001.128 1.72z" fill="#1DBBBA"/></svg>