<svg width="120" height="120" fill="none" xmlns="http://www.w3.org/2000/svg"><path d="M118 20a2 2 0 002-2v-8c-.007-5.52-4.48-9.993-10-10H26c-5.52.007-9.993 4.48-10 10v16H6a6 6 0 00-6 6v56a6 6 0 006 6h10v6H2a2 2 0 00-2 2v8c.007 5.52 4.48 9.993 10 10h84c5.52-.007 9.993-4.48 10-10V94h10a6 6 0 006-6V32a6 6 0 00-6-6h-10v-6h14zm-2-10v6h-12v-6a6 6 0 0112 0zM10 116a6 6 0 01-6-6v-6h80v6a9.897 9.897 0 002.052 6H10zm90-6a6 6 0 01-12 0v-8a2 2 0 00-2-2H20v-6h80v16zm16-78v56a2 2 0 01-2 2H6a2 2 0 01-2-2V32a2 2 0 012-2h108a2 2 0 012 2zm-96-6V10a6 6 0 016-6h76.052A9.896 9.896 0 00100 10v16H20z" fill="#1DBBBA"/><path d="M12 38h4v4h-4v-4zM18 38h12v4H18v-4zM12 44h4v4h-4v-4zM18 44h12v4H18v-4zM12 72h4v4h-4v-4zM18 72h12v4H18v-4zM12 78h4v4h-4v-4zM18 78h12v4H18v-4zM90 38h4v4h-4v-4zM96 38h12v4H96v-4zM90 44h4v4h-4v-4zM96 44h12v4H96v-4zM51 75.586A17.856 17.856 0 0059.97 78c1.583 0 3.159-.21 4.688-.62A17.855 17.855 0 0074.8 70.233l19.496 11.253a2 2 0 002-3.463l-19.6-11.319c3.57-8.91-.486-19.056-9.218-23.047-8.731-3.992-19.058-.422-23.46 8.109-4.404 8.531-1.33 19.016 6.982 23.82zM47.878 53a13.904 13.904 0 018.498-6.52A14 14 0 1147.878 53z" fill="#1DBBBA"/><path d="M54.652 70.15a12.001 12.001 0 0016.4-4.4 2 2 0 10-3.465-2 8.001 8.001 0 01-14.656-1.928 2 2 0 10-3.862 1.037 11.92 11.92 0 005.583 7.291z" fill="#1DBBBA"/></svg>