<svg width="120" height="120" fill="none" xmlns="http://www.w3.org/2000/svg"><path d="M33.7 88.293h75.142v3.528H33.7v-3.528zM75.028 103.322h33.814v3.527H75.028v-3.527zM41.214 103.322h3.758v3.527h-3.758v-3.527zM33.585 22.429h-3.528V7.515h9.279v3.528h-5.75V22.43z" fill="#1DBBBA"/><path d="M26.072 3.528h50.835V0H22.543v28.065h3.529V3.528zM100.181 0H82.543v3.528h16.176l17.753 17.753v76.29H120V19.82L100.181 0z" fill="#1DBBBA"/><path d="M116.472 116.472h-90.4v-50.95H60v-3.529H18.557V54.25h75.371v7.743H65.636v3.529h31.821v-.674l13.452-6.727-13.452-6.726v-.674H26.072V33.7h-3.529V50.72H5.105L0 53.274v9.695l5.105 2.553h17.438V120H120v-16.793h-3.528v13.265zm-13.452-58.35l-5.563 2.78V55.34l5.563 2.781zM5.938 61.992l-2.41-1.205v-5.333l2.41-1.205h1.577v7.743H5.938zm5.104-7.743h3.986v7.743h-3.986V54.25z" fill="#1DBBBA"/><path d="M33.7 80.779h75.142v3.528H33.7V80.78zM33.7 95.807h75.142v3.529H33.7v-3.529zM33.7 103.322h3.757v3.527H33.7v-3.527zM48.728 103.322h3.757v3.527h-3.757v-3.527zM61.993 28.064c0 5.117 4.162 9.279 9.278 9.279 5.116 0 9.278-4.163 9.278-9.279s-4.162-9.278-9.278-9.278c-5.116 0-9.278 4.162-9.278 9.278zm15.029 0c0 3.171-2.58 5.75-5.75 5.75a5.756 5.756 0 01-5.75-5.75c0-3.17 2.579-5.75 5.75-5.75 3.17 0 5.75 2.58 5.75 5.75zM33.7 73.264h58.235v3.529H33.7v-3.529z" fill="#1DBBBA"/></svg>