<svg width="120" height="120" fill="none" xmlns="http://www.w3.org/2000/svg"><g clip-path="url(#clip0)"><path d="M67.34 8.653c-1.983 0-3.967.415-5.649 1.243L2.994 38.82c-1.682.829-2.989 2.188-2.989 3.948 0 1.76 1.307 3.12 2.99 3.948l33.016 16.27c.245.12.516.18.79.176l33.016-.602c.252-.005.5-.066.726-.177l46.468-22.898c1.682-.828 2.989-2.188 2.989-3.948 0-1.76-1.307-3.12-2.989-3.948L72.989 9.896c-1.683-.828-3.666-1.243-5.649-1.243zm0 3.56c1.553 0 3.105.253 4.133.76l44.022 21.692c1.027.506 1.076.89 1.076.872 0-.017-.049.366-1.076.873l-45.71 22.524-16.36-8.063a1.713 1.713 0 00-1.517 0l-16.362 8.063L4.511 43.64c-1.027-.507-1.076-.89-1.076-.873 0 .017.049-.366 1.076-.873l58.695-28.923c1.028-.506 2.581-.759 4.134-.759zm4.856 8a.857.857 0 00-.344 1.632l24.457 12.05a.857.857 0 10.758-1.537L72.61 20.307a.86.86 0 00-.414-.094zm-12.228 6.026a.857.857 0 00-.344 1.63L84.08 39.922a.857.857 0 10.758-1.537L60.382 26.332a.857.857 0 00-.414-.093zm-12.229 6.026a.857.857 0 00-.343 1.63l24.456 12.052a.857.857 0 10.757-1.538L48.154 32.358a.857.857 0 00-.415-.093zm-21.131.601a.857.857 0 00-.388.095L7.877 41.999a.858.858 0 000 1.538l8.56 4.218a.857.857 0 10.757-1.538l-6.998-3.448 16.781-8.27a.858.858 0 00-.37-1.633zM52.665 54.32l10.024 4.94-20.819.38 10.795-5.32zm64.938.213a2.079 2.079 0 00-.943.222L51.953 86.182 3.057 61.634a2.082 2.082 0 10-1.868 3.72l49.815 25.01c.58.29 1.26.295 1.843.012l65.631-31.877a2.08 2.08 0 00-.875-3.966zm-45.106 16.65a1.043 1.043 0 00-.47.115L51.68 81.472l-18.264-9.336a1.041 1.041 0 00-.948 1.854l18.733 9.575c.295.15.644.152.94.004l20.815-10.407a1.04 1.04 0 00-.46-1.979zm45.106 4.112a2.08 2.08 0 00-.943.222l-64.707 31.427L3.057 82.396a2.082 2.082 0 10-1.868 3.72l49.815 25.009c.58.29 1.26.295 1.843.012l65.631-31.876a2.08 2.08 0 00-.875-3.966zM72.497 91.944a1.043 1.043 0 00-.47.116L51.68 102.233l-18.264-9.336a1.04 1.04 0 10-.976 1.84l.028.014 18.734 9.575c.294.151.643.152.939.004l20.815-10.407a1.04 1.04 0 00-.46-1.98z" fill="#1DBBBA"/></g><defs><clipPath id="clip0"><path fill="#fff" d="M0 0h120v120H0z"/></clipPath></defs></svg>