<svg width="120" height="120" fill="none" xmlns="http://www.w3.org/2000/svg"><path d="M101.418 79.573a1.622 1.622 0 01-1.575-2.016l1.152-4.605a1.62 1.62 0 013.145.788l-1.151 4.604a1.617 1.617 0 01-1.571 1.23z" fill="#1DBBBA"/><path d="M95.74 102.162c-.132 0-.265-.016-.394-.048L38.525 87.859a1.622 1.622 0 01-1.18-1.967l15.392-61.378a1.612 1.612 0 01.74-.997l19.911-11.92a1.612 1.612 0 011.228-.18l40.913 10.264a1.622 1.622 0 011.179 1.967l-5.838 23.256a1.632 1.632 0 01-.731 1.028 1.62 1.62 0 01-2.413-1.818l5.44-21.683-38.688-9.705-18.76 11.228-14.832 59.154L94.56 98.567l2.495-9.94a1.621 1.621 0 113.144.788l-2.887 11.513a1.618 1.618 0 01-1.573 1.228v.006z" fill="#1DBBBA"/><path d="M105.342 63.908a1.618 1.618 0 01-1.606-1.385 1.622 1.622 0 01.031-.632l1.186-4.703a1.622 1.622 0 113.144.792l-1.184 4.703a1.62 1.62 0 01-1.571 1.225zM70.228 30.52c-.134.001-.267-.015-.396-.048l-15.912-3.99a1.62 1.62 0 11.788-3.147l14.34 3.597 3.6-14.338a1.62 1.62 0 013.195.144c.026.216.01.435-.05.644l-3.99 15.911a1.622 1.622 0 01-1.572 1.228h-.003zM89.883 86.191c-.133 0-.266-.016-.396-.049l-38.244-9.601a1.621 1.621 0 01.788-3.146l38.244 9.603a1.621 1.621 0 01-.392 3.193zM93.018 73.688c-.134.001-.267-.015-.396-.048L54.37 64.045a1.622 1.622 0 01.79-3.145l38.245 9.595a1.622 1.622 0 01-.394 3.193h.007zM96.162 61.186c-.133 0-.266-.016-.396-.049l-38.259-9.595a1.62 1.62 0 01.145-3.194c.216-.027.434-.01.643.05l38.251 9.595a1.622 1.622 0 01-.392 3.193h.008zM99.29 48.685c-.133 0-.266-.017-.396-.049l-38.246-9.597a1.62 1.62 0 11.79-3.144l38.253 9.595a1.622 1.622 0 01-.394 3.195h-.007zM102.426 36.182c-.133 0-.266-.017-.395-.049l-22.536-5.646a1.621 1.621 0 11.79-3.146l22.54 5.653a1.621 1.621 0 01-.392 3.194l-.007-.006zM44.817 98.819H18.459a1.622 1.622 0 110-3.243h26.358a1.622 1.622 0 110 3.243zM9.318 98.819H5.286a1.622 1.622 0 110-3.243h4.032a1.622 1.622 0 110 3.243zM58.135 108.634H31.784a1.618 1.618 0 01-1.622-1.621 1.622 1.622 0 011.622-1.622h26.351a1.622 1.622 0 010 3.243zM22.636 108.634h-4.031a1.618 1.618 0 01-1.622-1.621 1.622 1.622 0 011.622-1.622h4.031a1.622 1.622 0 010 3.243zM32.938 79.091H15.892a1.622 1.622 0 010-3.243h17.046a1.622 1.622 0 010 3.243zM7.729 79.091H4.865a1.622 1.622 0 010-3.243h2.864a1.622 1.622 0 010 3.243z" fill="#1DBBBA"/></svg>