<svg width="120" height="120" fill="none" xmlns="http://www.w3.org/2000/svg"><g clip-path="url(#clip0)" fill="#1DBBBA"><path d="M87.054 53.863c-13.796 0-25.02 11.225-25.02 25.021 0 13.796 11.224 25.021 25.02 25.021 13.797 0 25.021-11.225 25.021-25.021 0-13.796-11.224-25.02-25.02-25.02zm0 46.526c-11.858 0-21.505-9.647-21.505-21.505 0-11.858 9.647-21.505 21.505-21.505 11.858 0 21.505 9.647 21.505 21.505 0 11.858-9.647 21.505-21.505 21.505z"/><path d="M87.054 64.538c.971 0 1.758-.787 1.758-1.758v-.805a1.758 1.758 0 10-3.516 0v.805c0 .971.787 1.758 1.758 1.758zM97.767 65.685l-.569.57a1.758 1.758 0 102.486 2.485l.57-.57a1.759 1.759 0 00-2.487-2.485zM101.4 78.884c0 .971.787 1.758 1.758 1.758h.805a1.758 1.758 0 100-3.516h-.805c-.971 0-1.758.787-1.758 1.758zM70.95 77.126h-.805a1.758 1.758 0 100 3.516h.806a1.758 1.758 0 100-3.516zM99.684 89.028a1.757 1.757 0 10-2.485 2.486l.57.57c.342.342.792.514 1.242.514a1.758 1.758 0 001.243-3l-.57-.57zM87.054 93.23c-.97 0-1.758.786-1.758 1.757v.806a1.758 1.758 0 103.516 0v-.806c0-.97-.787-1.757-1.758-1.757zM74.424 89.028l-.57.569a1.758 1.758 0 102.487 2.486l.57-.57a1.758 1.758 0 00-2.487-2.485zM74.424 68.74c.343.343.793.515 1.243.515a1.758 1.758 0 001.243-3l-.569-.57a1.758 1.758 0 10-2.486 2.485l.57.57zM91.846 77.126h-3.034v-7.52a1.758 1.758 0 10-3.515 0v9.278c0 .971.787 1.758 1.758 1.758h4.79a1.758 1.758 0 100-3.516z"/><path d="M113.794 59.637a1.758 1.758 0 00-2.852 2.056c3.626 5.029 5.542 10.973 5.542 17.191 0 16.228-13.202 29.43-29.43 29.43s-29.43-13.202-29.43-29.43c0-16.227 13.202-29.43 29.43-29.43a29.4 29.4 0 0119.424 7.322 1.757 1.757 0 002.321-2.64 32.905 32.905 0 00-14.556-7.403l4.194-18.015c1.075-4.62-2.428-9.042-7.178-9.042h-23.18v-4.674a6.839 6.839 0 00-6.83-6.832H37.383a6.839 6.839 0 00-6.83 6.832v4.674H19.937a1.758 1.758 0 100 3.515h71.32c2.481 0 4.319 2.31 3.755 4.73L90.77 46.148a32.96 32.96 0 00-3.715-.21 32.742 32.742 0 00-16.742 4.582h-11.77v-2.038a4.37 4.37 0 00-4.365-4.365h-9.724a4.37 4.37 0 00-4.364 4.365v2.038H12.219a4.194 4.194 0 01-4.096-3.251L3.62 27.92a3.855 3.855 0 013.755-4.729h5.536a1.758 1.758 0 100-3.515H7.374c-4.76 0-8.252 4.433-7.18 9.042L4.7 48.066a7.738 7.738 0 001.494 3.086v22.993c0 4.656 3.788 8.444 8.444 8.444h10.937a1.758 1.758 0 100-3.516H14.638a4.934 4.934 0 01-4.93-4.928V53.62c.79.27 1.636.415 2.511.415h27.87v2.018a4.37 4.37 0 004.365 4.365h9.724a4.37 4.37 0 004.365-4.365v-2.018h6.902c-7.15 6.226-11.39 15.262-11.334 25.037H32.603a1.758 1.758 0 100 3.516h21.715c1.847 16.429 15.823 29.241 32.737 29.241C105.22 111.83 120 97.05 120 78.884c0-6.96-2.146-13.616-6.206-19.247zM34.068 15.001a3.32 3.32 0 013.315-3.315h23.865a3.32 3.32 0 013.316 3.316v4.674H34.068v-4.674zm20.96 41.053a.85.85 0 01-.85.85h-9.724a.85.85 0 01-.849-.85v-7.573c0-.468.381-.849.85-.849h9.723c.468 0 .85.381.85.85v7.572z"/></g><defs><clipPath id="clip0"><path fill="#fff" d="M0 0h120v120H0z"/></clipPath></defs></svg>