<svg width="33" height="30" fill="none" xmlns="http://www.w3.org/2000/svg"><path d="M19.597 20.279a4.06 4.06 0 01-2.893 1.198 4.06 4.06 0 01-2.892-1.198l-5.795-5.796a4.062 4.062 0 01-1.199-2.892 4.06 4.06 0 011.199-2.892 4.06 4.06 0 012.892-1.2 4.06 4.06 0 012.892 1.2l2.903 2.901 8.015-8.014A14.928 14.928 0 0015 0C6.716 0 0 6.716 0 15c0 8.284 6.716 15 15 15 8.284 0 15-6.716 15-15 0-1.55-.236-3.045-.672-4.452l-9.731 9.73z" fill="#1DBBBA"/><path d="M16.704 18.75a1.36 1.36 0 01-.964-.4l-5.795-5.795a1.362 1.362 0 010-1.928 1.362 1.362 0 011.928 0l4.831 4.831L30.4 1.763a1.362 1.362 0 111.928 1.928l-14.659 14.66a1.36 1.36 0 01-.964.399z" fill="#2A2A2A"/></svg>