<svg width="141" height="57" fill="none" xmlns="http://www.w3.org/2000/svg"><path d="m23.553.478-8.862 11.78h-4.473V.477H3.57L.896 5.467h4.013V30.24h5.309V16.868h4.473l9.322 13.372h6.061L19.247 14.563 29.573.478h-6.02Zm4.891 19.031c0 2.375.544 4.43 1.63 6.162a10.603 10.603 0 0 0 4.223 3.857c1.755.866 3.664 1.299 5.727 1.299 2.034 0 3.915-.433 5.643-1.3 1.811-.894 3.233-2.193 4.264-3.898 1.059-1.733 1.589-3.773 1.589-6.12 0-2.375-.53-4.415-1.59-6.12-1.058-1.649-2.452-2.892-4.18-3.73-1.727-.84-3.636-1.258-5.726-1.258-2.007 0-3.902.405-5.686 1.215a10.097 10.097 0 0 0-4.305 3.857c-1.06 1.677-1.589 3.689-1.589 6.036Zm95.269 18.234v-9.892a4.873 4.873 0 0 0 1.296 1.425 7.805 7.805 0 0 0 2.216 1.09c.836.252 2.076.377 3.72.377.893 0 1.813-.125 2.76-.377.948-.224 1.783-.573 2.507-1.048 1.479-.922 2.621-2.222 3.428-3.898.837-1.705 1.256-3.661 1.256-5.87 0-2.179-.405-4.12-1.214-5.826-.835-1.676-2.006-2.962-3.51-3.856-1.478-.922-3.22-1.383-5.227-1.383s-3.608.32-4.807.964c-1.171.614-2.104 1.453-2.801 2.515V9.07h-4.724v28.672h5.1ZM59.295 30.24v-8.928h8.653v8.928h5.017V9.071h-5.017v8.049h-8.653V9.07h-5.058v21.17h5.058Zm22.992-17.144V30.24h5.141V13.096h7.19V9.07H75.18v4.025h7.107Zm21.988 17.899c-.167.475-.39.922-.669 1.341-.25.391-.682.713-1.296.964-.585.28-1.337.42-2.257.42-.724 0-1.38-.056-1.965-.168l1.714 4.024c.14.028.613.042 1.422.042 1.616 0 2.898-.266 3.846-.797a6.01 6.01 0 0 0 2.173-2.096c.586-.866 1.213-2.221 1.881-4.066L116.9 9.071h-5.1a350.889 350.889 0 0 0-5.017 15.426c-1.449-4.75-3.177-9.892-5.183-15.426h-5.35l8.025 21.924Zm-70.69-11.528c0-2.291.558-4.01 1.673-5.156s2.661-1.719 4.64-1.719c2.007 0 3.567.573 4.682 1.72 1.143 1.145 1.714 2.864 1.714 5.155 0 2.348-.571 4.122-1.714 5.324-1.142 1.201-2.703 1.802-4.682 1.802-1.95 0-3.497-.6-4.64-1.802-1.115-1.202-1.672-2.976-1.672-5.324Zm90.003.042c.056-2.04.6-3.689 1.631-4.946 1.031-1.258 2.536-1.886 4.514-1.886 1.98 0 3.47.642 4.473 1.928 1.031 1.257 1.561 2.892 1.589 4.904-.028 2.04-.558 3.703-1.589 4.988-1.003 1.286-2.493 1.928-4.473 1.928-1.978 0-3.483-.642-4.514-1.928-1.031-1.285-1.575-2.948-1.631-4.988ZM12.599 49.305c.025-2.67-1.69-4.731-4.34-4.694-2.662 0-4.353 2-4.353 4.694s1.691 4.693 4.353 4.693c2.65.038 4.365-2.024 4.34-4.693Zm-7.166 0c0-2.011 1.135-3.378 2.826-3.378 1.703 0 2.813 1.367 2.813 3.378s-1.11 3.378-2.813 3.378c-1.69 0-2.826-1.367-2.826-3.378ZM17.086 44.814v2.441c-1.073.038-1.93.355-2.6.937-.655.569-.983 1.379-.983 2.429 0 1.05.328 1.86.984 2.441.668.57 1.526.886 2.599.924v2.087h1.337v-2.087c2.082-.076 3.583-1.24 3.583-3.365 0-2.126-1.501-3.29-3.583-3.366v-2.441h-1.337Zm.038 8.046c-1.376-.038-2.208-.823-2.208-2.24 0-1.416.832-2.2 2.207-2.239v4.479Zm1.261-4.479c1.375.038 2.208.823 2.208 2.24 0 1.416-.833 2.2-2.208 2.239V48.38ZM27.496 47.445l-1.74 2.796a69.355 69.355 0 0 0-1.275 2.176c.025-.746.038-1.594.038-2.517v-2.455h-1.287v6.35h1.514l1.729-2.808c.39-.645.82-1.379 1.286-2.175-.037.632-.05 1.518-.05 2.656v2.328h1.3v-6.35h-1.515ZM35.67 55.377h1.35V52.67h-.92v-5.225h-1.388v5.225h-2.7v-5.225h-1.387v6.35h5.046v1.582ZM42.392 47.445l-1.742 2.796a69.837 69.837 0 0 0-1.274 2.176c.026-.746.038-1.594.038-2.517v-2.455h-1.287v6.35h1.514l1.729-2.808c.39-.645.82-1.379 1.287-2.175-.038.632-.051 1.518-.051 2.656v2.328h1.3v-6.35h-1.514ZM50.843 49.457c0-1.354-.958-2.214-2.674-2.214-1.173 0-2.07.443-2.864 1.391l.87.81c.758-.759 1.237-1.05 2.032-1.05.807 0 1.312.392 1.312 1.088v.228l-1.451.265c-.896.165-1.59.418-2.094.747-.492.316-.744.81-.744 1.48 0 1.214.958 1.796 2.27 1.796.96 0 1.69-.329 2.094-.923v.72h1.25v-4.338Zm-1.324 1.847c0 1.012-.795 1.581-1.817 1.581-.694 0-1.11-.29-1.11-.759 0-.658.568-.91 1.83-1.176l1.097-.228v.582ZM51.703 53.783c.265.063.555.089.845.089 1.54-.063 1.842-.86 1.88-3.466l.025-1.835h2.27v5.225h1.389v-6.35h-4.92l-.026 2.934c-.038 1.974-.113 2.277-.858 2.328-.063 0-.227-.013-.48-.05l-.125 1.125ZM59.713 53.796h3.053c1.463 0 2.434-.822 2.434-2.176s-.971-2.176-2.434-2.176H61.1v-1.999h-1.387v6.35Zm1.387-1.139v-2.074h1.476c.808 0 1.212.341 1.212 1.037s-.404 1.037-1.212 1.037H61.1ZM71.878 53.796v-6.35h-1.387v2.479h-2.725v-2.48h-1.388v6.35h1.388v-2.732h2.725v2.733h1.387ZM73.499 53.796h3.053c1.463 0 2.435-.822 2.435-2.176s-.972-2.176-2.435-2.176h-1.665v-1.999h-1.388v6.35Zm1.388-1.139v-2.074h1.476c.807 0 1.21.341 1.21 1.037s-.403 1.037-1.21 1.037h-1.476Zm6.232-5.212H79.73v6.35h1.388v-6.35ZM88.505 47.445v6.35h-1.3v-2.327c0-1.138.013-2.024.05-2.656-.466.797-.895 1.53-1.286 2.175l-1.728 2.809h-1.514v-6.35h1.286V49.9c0 .923-.012 1.77-.037 2.517.542-.962.971-1.683 1.274-2.176l1.74-2.796h1.515Zm-.757-2.53h-1.123c0 .595-.353.91-1.01.91-.655 0-1.008-.315-1.008-.91H83.47c0 1.202.833 1.771 2.145 1.771 1.3 0 2.132-.569 2.132-1.77ZM92.928 53.796h1.388V48.57h2.649v5.225h1.388v-6.35h-5.425v6.35ZM105.287 49.457c0-1.354-.959-2.214-2.675-2.214-1.173 0-2.069.443-2.864 1.391l.871.81c.757-.759 1.236-1.05 2.031-1.05.807 0 1.312.392 1.312 1.088v.228l-1.451.265c-.896.165-1.59.418-2.094.747-.492.316-.744.81-.744 1.48 0 1.214.958 1.796 2.27 1.796.959 0 1.691-.329 2.095-.923v.72h1.249v-4.338Zm-1.325 1.847c0 1.012-.795 1.581-1.817 1.581-.694 0-1.11-.29-1.11-.759 0-.658.568-.91 1.829-1.176l1.098-.228v.582ZM113.019 50.608c0-1.999-1.174-3.34-2.801-3.34-.934 0-1.628.354-2.094 1.075v-.898h-1.287v8.628h1.388v-3.01c.454.594 1.11.897 1.98.897 1.615 0 2.814-1.328 2.814-3.352Zm-1.413 0c0 1.303-.669 2.15-1.678 2.15-1.022 0-1.767-.822-1.767-2.15 0-1.316.72-2.15 1.767-2.15 1.022 0 1.678.847 1.678 2.15ZM119.066 48.571v-1.126h-5.589v1.126h2.095v5.225h1.387V48.57h2.107ZM125.631 53.796v-6.35h-1.388v2.479h-2.725v-2.48h-1.387v6.35h1.387v-2.732h2.725v2.733h1.388ZM132.109 51.86c-.795.709-1.224.95-1.968.95-1.16 0-1.805-.76-1.906-1.873h4.643c.014-.165.026-.354.026-.57 0-1.935-1.047-3.124-2.915-3.124-1.904 0-3.116 1.43-3.116 3.415 0 2.012 1.238 3.328 3.243 3.328 1.059 0 1.892-.354 2.801-1.278l-.808-.848Zm-3.834-1.935c.188-1 .769-1.581 1.677-1.581.959 0 1.54.607 1.589 1.58h-3.266ZM140.333 50.608c0-1.999-1.173-3.34-2.802-3.34-.933 0-1.627.354-2.094 1.075v-.898h-1.287v8.628h1.388v-3.01c.455.594 1.111.897 1.981.897 1.615 0 2.814-1.328 2.814-3.352Zm-1.414 0c0 1.303-.668 2.15-1.677 2.15-1.022 0-1.767-.822-1.767-2.15 0-1.316.719-2.15 1.767-2.15 1.022 0 1.677.847 1.677 2.15Z" fill="#222"/></svg>