<svg width="20" height="18" fill="none" xmlns="http://www.w3.org/2000/svg"><path d="M18.5 1.3h-1V.5s0-.2-.2-.2h-2l-.1.2v.8H4.8V.5L4.7.3h-2l-.2.2v.8h-1C.7 1.3 0 2 0 2.8v13.3c0 .9.7 1.6 1.5 1.6h17c.8 0 1.5-.7 1.5-1.6V2.8c0-.8-.7-1.5-1.5-1.5zm.3 5.4h0zM17 6.3h.2v.1H17zm-.4 0H17v.1h-.1-.2zm.1.2h.1zm0 0zm-.2 0zm0-.2zM14.9 6h.1zm-.3 0h.1v-.1h.2V6h-.2-.1zm0-.2V6H14.2h.2zm-.2.4zm-.2-.4h.1v-.1h.2v.1h-.2-.1zm0 0zm-.1-.1zm-1 .9zm-.4-.9h0zm-.2 0h.1-.1zm0 .1zm0 0h-.1zm-.3 0v-.1h0v.1zm-.1 1v-.1-.1h.1v-.1h.1v-.1h.1v-.1h.4v-.1h.2-.1v.1h-.1-.1-.1v.1h-.1v.1h-.1v.1c-.1 0 0 0 0 0h-.1v.2H12zm-.3-1h.2v-.1.1h-.1-.1zm.1 1.1h.1V7zm-1.5-1.1h.4V6H10.4h-.1v-.1zM10 6v-.1h.5V6h.1l.1.1h-.1-.1V6h-.1v.1h-.1v.1h-.1V6H10h.1V6H10 10zM9 8h.1v-.1h.1V8l.1.1v.1h.1v.2h-.2H9h.1v-.2V8H9V8zm0 0v-.1zm-.2.3H9v-.1V8H9v.2h-.1zM4.6 5.6h.5v-.1H6.2v.1h-.2.1l-.1.1h-.1v.1H5.4V6h-.2.1c0 .1 0 0 0 0V6h-.1v.2H5 4.7V6H5h-.1V6h.2H5v-.1h-.1v-.1h.4v-.1H5h-.2-.1-.2zM4 7H3.6V7h-.4v-.1h.2-.2v-.1h-.1v-.2h.5v.1-.1h.1v.1H4v.1h.2V7zm-.2 0V7h-.1.1zm0-.4zm.1 0v.1h-.1v-.1H4zm0-.2zm.2.4v-.2h.1c.1 0 0 0 0 0v.1h.1v.1H4zm.2-.3zm0-.2h.2-.1zm0 0V6h.2-.1zm0 .2h.2-.1zm0 .1H4.7v.1h-.2zm.3 0v-.1-.2l.1.1h.5v.1H4.9 4.6zm0-.4zm.6.4h.2l-.1.1h-.1zm-.9-.7h.1v-.1H4.8v.1H5V6h-.1V6H4.4v-.1h-.1zm0 .1V6h.1-.1zm0 .3v.1H4v-.1.1h.1v-.1h.1zM4 6.1zm.1-.3h.1zm-.2.1h.2V6h.1H3.8zm0 .2zm-.2.1v.1h.1-.1l-.1.1h-.2.1-.2v-.1H3.7v-.1h.1zM3.5 6h.1-.1zm0 0h.1v.1h-.1zm0 .2h-.1zM3.3 6zm-.4.2H3.4 3v.1H3zm.2 0v.1zm-.3.4v-.1h.4l-.1.1H3v.1H2.7v-.1zM.7 7.7zm.7.2h-.1zM5 11h-.1v-.1-.1h-.2v-.1h-.1l-.1-.1H4.1l-.1-.1H4v-.1h-.2V10h-.1v-.1h-.1v-.1h-.1v-.1l-.1-.1v.2h.1v.2h.1v.1l-.1-.1v-.1h-.1v-.1h-.1V9.4H3v-.1H3v-.1l-.1-.1v-.6l-.1-.1h-.1v-.1h.1v.1H3v.1-.1h-.1v-.1h-.1v-.1h-.1V8h-.1V8h-.1v-.1h-.1-.1L2 7.7h-.2l-.1-.1h-.4v.1l-.2.1L1 8l-.1.1H.7 1L1 8l.1-.1v-.1H.7v-.1H.6v-.2H1v-.1H.7v-.1H.5h.1l.1-.1H1L.7 7H.7V7h.1v-.1H1l.1-.1H2V7h.7-.1.8l.1.1h.2l.1.1h.5v-.2h.1v.2h.1V6.7h.1V7h.2v.2h.1L5 7v-.1h-.1v-.1h-.1v-.2H5v.1-.1H5.6v.1h.1l.1.1h.1V7H6V7H6v.1h.1l.1.1H6v.1H6l-.1-.1v.2H6v.1h-.2.1-.2l-.1-.1H5.3v-.1h.2V7h-.1v-.1H5h.1V7.3H5v.1h.1v.1H5h-.1v-.2h-.2v.1h.1v.1H4.4h.1v.1l-.1.1V8h.2V8H5l.2.1v.2h.1v-.1l.1-.1v-.5h.4v.2H6l.1.1V8h.1l.1.1v.1h.1v.1l-.1.1h-.4v.1h-.2v.2-.1H6v.1h.2v.1h-.4l-.1.1V9h-.1l-.1.1v.1h-.1v.2h-.1v.1h-.1v.4H5v-.1L5 9.6H4.3l-.1.2v.4H4.6v-.1h.2V10.6H5V10.9H5.4v.1H5zM5.3 7h.1zm0 .5h-.1zm-.2 0H5v-.1h.1zm1.4.9h.1v.2H6.2v-.2h.1v-.1zm-.4 0zM6 10.4h-.1H5.5v-.1H6zm-.7-.1l-.1-.1H5V10h.4v.1zm0 0v.1zm2.3 1.4v.1h-.1v.1h-.1v.4h-.1v.2H7v.1h-.1v.2h-.1v.2h-.1v.1h-.1v.1h-.2v.2h-.1-.1v.1H6v.1H6v.2h-.1v.4h-.1V14.6H6 5.5v-.1h-.1v-.1-.2-.2-.1-.1-.1-.1-.1-.1l.1-.1V13 13v-.1-.1-.2-.1h.1v-.2h-.1v-.1h-.1l-.1-.1V12l-.1-.1v-.1-.1h-.1v-.1-.1-.1-.1-.1h.1V11 11v-.1h.1v-.1h.2v-.1.1h.1v-.1H6v.1H6.3v.1h.1v.1H6.7v.1h.1v.2h.1v.1h.5v.1h.2v.2zM8 7H8V7h-.1-.1-.1v.1h-.1v.1H7.2V7.6h-.1v.2H7h-.2v-.1h-.1v-.1h-.1v-.1-.1h-.1V7 7h.1v-.1h-.2.2v-.1h-.1-.1v-.1-.1-.1h-.1v-.1h-.1v-.1h-.1H6h-.2v-.1h-.1.2V6h-.2-.1V6H6v-.1-.1H6v-.1h.1v-.1H6.5h-.1.6v-.1h.4l.1-.1H8h-.3.5v.1h-.5v.1h.5v.1h.2l.1-.1h.1v.1h-.1v.1h-.1V6h-.1v.2h.1v.2-.1h-.1v.2h.1-.1v.1h-.1V6.9H8 8l.1.1s.1 0 0 0zm.3.6h-.2v-.1-.1h.4v.1h-.1-.1zm3.6 4.7V12.6h-.1v.2h-.1-.1v-.1-.1-.1-.1-.1h.1V12h.1V12h.1v.1zm0-1.4v.2h-.1v.1h-.1v.1h-.1v.1h-.1v.1l-.2.2v.4h.1v.2h-.2v.1l-.1.1V12.8H11v.2H11v.1h-.1v.1h-.1v.1h-.4V13 13h-.1v-.1l-.1-.1v-.2-.1H10v-.1l-.1-.1v-.1-.1-.1h.1v-.2-.1-.1H10v-.1h-.1v-.1-.1-.2h-.2V11h-.2-.2-.1H9v.1H9h-.1V11h-.1l-.1-.1v-.1h-.1v-.1l-.1-.1v-.1-.2-.1-.1l.1-.1v-.1h.1v-.2H9v-.2H9v-.1h.5v-.1h.4v.2h.2v.1h.9v.1h.1v.2l.1.1v.1h.1v.2l.1.1v.1h.1v.1h.1v.1h.4zm1.7.2h-.1v-.1zm.7.2zm.1.1zm.2.2h-.1v-.1.1zm0 .1zm.2 0h-.1v-.1h-.1v-.1h-.1v-.1l-.1-.1V11h-.1.2v.1h.1v.1h.1v.1h.1v.2zm.4.2H15 15v-.1h.4v.1h-.1zm-.2-.5h.1v-.1h.1V11h.1V11h.2v.4h-.1v.1h-.1-.1-.1v-.1H15v-.1zm.7-1.3v.1h-.1V10zm-.1.5v-.1h.1v.1h-.1zm.2.1v.1h-.1v-.1zm.1.4h-.1-.1v-.1h.2zm0 .3l.1-.1v.1zm.2-1.8l.1-.1h.2v-.1h.2v-.1V9 9v-.1h.1v-.1H17V9h-.1-.1v.5h-.2l-.1.1h-.1-.1v.1h-.1v-.1zm1 2.1h.1-.1zm0-2.8zm-.6 2.8h-.2v-.1h.6v.1h.1v.2h.1v.1H17v-.1H17h-.1-.1-.2v-.1zm-.2 0zm-.1.2zm0 .1h-.1zm0-.5h0zm0 0h-.1zm-.1 0c0-.1 0 0 0 0zm.3 0zm-.3 0v.1H16zm-.3.4h-.1-.1.2zm0 0v.1zm-.1-1v-.1h-.1.1zm0 .5h.1-.2zm.2.1zm0 .3zm-.3-.3h.1v.2-.1h-.1v.1l-.1-.1v-.1zm-.1.4h-.1.1zm0 0h.1zm.3 0h0zm.2-.3H16zm-.4-.8v.1h-.1v-.1zm1.2 2.9zm.3 0v.1H17 17v-.1h.2zm0 0zm.2-.7v.2l-.1.1v.2H17 17h-.1-.2v-.2h-.1-.1-.1V13h-.1-.1-.1-.1-.1-.1-.1v.1h-.2-.1V13 13v-.1-.1h-.1v-.1-.1-.1h.2v-.1h.2v-.1l.1-.1h.1V12H16.3V12h.1s0-.1 0 0h.2v.1h.1v.1h.2V12 12h.1v.1h.1v.2h.1v.1h.1v.1h.1v.1h.1V13zm.1-1.2zm0-3.3zm.3 3.5zm.2-4v-.1zm0 4.6v-.1h.1v.1zm.1-4.4zm.1 6V14zm.3-.4h-.1v.2h-.1-.1-.1.1v-.1h.1v-.2h.2zM18.2 8zm.5 5.3v.1l-.1.1h-.1v-.1-.1-.1h.1v.1h.1zm.5-6.1H19h-.2-.2v.2h-.1l-.1.1h-.1v.1h-.2-.1-.1v.1h-.1V8.2h-.1v.1h-.1v.1h-.1V8 8v-.1h.1v-.1h.2v-.1-.1H17.7v.1h-.1v.1h-.1-.1H17h-.1-.1V8h-.1V8h-.1v.1h-.1v.1h.2v.1h.1v-.1h.1v.5s-.1 0 0 0v-.1-.1-.1h-.1v.1l-.1.1v.1h-.1v.1h-.1V9h-.1-.2v.2H16V9.5H16a.2.2 0 000-.1v-.1h-.2V9h-.2v.1h.2v.1h-.1v.6l-.1.1h-.1v.1h-.1-.1-.1v.2H15v-.1H15V10.6h.1V10.9H15h-.1v0h-.1v-.1h-.2v.2h.1v.2h.1v.1h-.1V11 11h-.1v-.1-.1-.1-.1l-.1-.1h-.1v-.1h-.1v-.1-.1H14 14h-.1v.1h-.1v.1h-.1-.1v.4h-.1v.1h-.1v-.1-.1h-.1v-.1-.1-.2h-.1v-.1H13 13V10h-.1V10h-.4-.1v-.1h-.1-.1l-.1-.1H12v-.1.2h.1v.1H12.5v.1h.1v.2h-.2v.1h-.1v.1H12l-.1.1h-.2v-.1h-.1v-.1-.1h-.1v-.1l-.1-.1V10h-.1v-.1-.1h-.1-.1v-.1-.1h.1v-.1-.1-.1H11 11h-.2v-.1V9h-.1-.1v.1h0v.1h-.1v-.1h-.1V9 9h-.1v-.1h-.1v-.1H10V9h.1c0 .1 0 0 0 0 0 .1 0 0 0 0V9h.1v.2h-.1v.1H10h.1v-.1V9H10V9H10v-.1h-.1-.2-.1V9h-.1-.1v.2h-.1-.1v.1H9h-.2v-.1V9v-.2h.4v-.2h-.1v-.1h.1v-.1h.1v-.1h.2v-.1h.1a.2.2 0 00.1 0v-.1V8 8h.2v.1h.5V8h.1v-.1-.1H11v-.1h-.2-.1-.1v-.1-.1h.1v-.1h.1v-.1h-.1-.1v.1h-.1v.1h-.1V8H10v-.1-.1h-.2-.1v-.1-.1-.1h.2v-.1l.1-.1v-.1h.1V7h.1-.1V7h.2v-.1h.2v-.1h.2c.1 0 0 0 0 0H11V7H11.4V7h.2v.2H11.1 11c.1 0 0 0 0 0v.1h.1v.1h.1v-.1H11.7v-.1h.1V7h.1v.1H12.2V7h.4v-.1h.4V7h.1-.1v-.1-.1-.1h.1v-.1h.2v.5H13v.1h.1V7h.1V7h.1v.1h.1V7h-.2v-.1-.1-.1-.1.1h.4v-.1h-.1.2v-.1h.1v-.1H14.3v-.1h.5v-.1h.1V6h.2v.1H15.4v.2h-.1l-.1.1H15h.6v.1H16v-.1h.2v.2h.1v.1h.5v-.1-.1H17v.1h.4v.1h.4V7H18.9V7h.2v.1l.1.1h.2zm.2.2h-.1.1z" fill="#1DBBBA"/></svg>