<svg width="20" height="21" fill="none" xmlns="http://www.w3.org/2000/svg"><path d="M15.882 12.113a4.122 4.122 0 00-4.117 4.118c.226 5.463 8.01 5.46 8.235 0a4.122 4.122 0 00-4.118-4.118zm.55 4.362l-1.35 1.348-.831-.832 1.004-1.004v-2.109h1.176v2.597z" fill="#1DBBBA"/><path d="M15.882 10.937c.619 0 1.213.107 1.765.303V7.406H0v11.765h11.483c-2.352-3.45.196-8.26 4.4-8.235zm-1.764-2.353h1.176V9.76h-1.176V8.584zm-2.353 0h1.176V9.76h-1.176V8.584zm-8.236 8.235H2.353v-1.176h1.176v1.176zm0-2.353H2.353V13.29h1.176v1.176zm0-2.353H2.353v-1.176h1.176v1.176zm0-2.353H2.353V8.584h1.176V9.76zm2.353 7.059H4.706v-1.176h1.176v1.176zm0-2.353H4.706V13.29h1.176v1.176zm0-2.353H4.706v-1.176h1.176v1.176zm0-2.353H4.706V8.584h1.176V9.76zm2.353 7.059H7.06v-1.176h1.176v1.176zm0-2.353H7.06V13.29h1.176v1.176zm0-2.353H7.06v-1.176h1.176v1.176zm0-2.353H7.06V8.584h1.176V9.76zm1.177-1.176h1.176V9.76H9.412V8.584zM15.294.349h-2.941v1.176h1.765v1.177h1.176V.349zM3.53 1.525h1.764V.35H2.353v2.353h1.176V1.525z" fill="#1DBBBA"/><path d="M17.647 2.701h-2.353v1.765h-1.176V2.7H3.529v1.765H2.353V2.7H0v3.53h17.647V2.7z" fill="#1DBBBA"/></svg>