<svg width="18" height="20" fill="none" xmlns="http://www.w3.org/2000/svg"><path d="M14.645 12.92a4.35 4.35 0 01-3.524 1.798H9.094a1.619 1.619 0 01-1.523-1.066 5.516 5.516 0 01-2.35-1.458 6.535 6.535 0 00-5.12 6.383v.409a1.018 1.018 0 001.013 1.018h15.767a1.018 1.018 0 001.018-1.018v-.41a6.526 6.526 0 00-3.254-5.655z" fill="#1DBBBA"/><path d="M4.142 10.102c.436 0 .818-.243 1.014-.6l.022.056c.461 1.219 1.362 2.237 2.545 2.68a1.618 1.618 0 011.37-.757h2.032c.2 0 .392-.06.553-.152.27-.201.493-.46.652-.757.21-.33.37-.687.51-1.07.082.143.19.27.321.37v.496a2.039 2.039 0 01-2.036 2.036H9.094a.696.696 0 000 1.392h2.031a3.432 3.432 0 003.424-3.428v-.496a1.159 1.159 0 00.466-.927V6.047a1.17 1.17 0 00-.479-.94A5.56 5.56 0 008.993 0 5.557 5.557 0 003.46 5.108a1.157 1.157 0 00-.478.94v2.897c0 .64.522 1.157 1.157 1.157h.004zm4.856-8.714a4.168 4.168 0 014.142 3.75 1.161 1.161 0 00-.322.4c-.657-1.705-2.12-2.897-3.82-2.897-1.736 0-3.176 1.231-3.811 2.893v.004a1.161 1.161 0 00-.331-.4 4.168 4.168 0 014.142-3.75z" fill="#1DBBBA"/></svg>