<svg width="20" height="20" fill="none" xmlns="http://www.w3.org/2000/svg"><path d="M16.82 12.511c-.722-.713-1.625-.713-2.343 0-.548.544-1.096 1.087-1.634 1.64-.148.151-.272.184-.452.082-.354-.193-.732-.35-1.072-.561-1.589-1-2.92-2.284-4.098-3.73-.585-.718-1.105-1.487-1.468-2.352-.074-.175-.06-.29.082-.433.548-.53 1.082-1.072 1.621-1.616.75-.755.75-1.639-.005-2.398-.428-.433-.856-.857-1.284-1.29-.442-.441-.88-.888-1.326-1.325-.723-.705-1.625-.705-2.343.004-.553.544-1.082 1.1-1.644 1.635-.52.492-.783 1.095-.838 1.8-.087 1.146.193 2.228.59 3.282.81 2.182 2.043 4.12 3.54 5.898 2.02 2.403 4.433 4.304 7.256 5.676 1.27.617 2.587 1.091 4.019 1.17.985.055 1.841-.194 2.527-.963.47-.524 1-1.003 1.497-1.505.736-.746.74-1.648.009-2.385-.875-.88-1.754-1.754-2.634-2.629z" fill="#1DBBBA"/></svg>