<svg width="18" height="12" viewBox="0 0 18 12" fill="none" xmlns="http://www.w3.org/2000/svg">
<g clip-path="url(#clip0_1008_13290)">
<path d="M16.7394 4.91577C16.4841 4.78855 16.2146 4.50221 16.3975 3.40816C16.4817 2.90483 16.4574 2.56096 16.321 2.32603C16.1857 2.0928 15.9726 2.01029 15.7846 1.93745C15.7589 1.9275 15.7331 1.91748 15.7072 1.90698L15.705 1.90604C15.692 1.8745 15.6976 1.77371 15.7009 1.71255C15.7136 1.48104 15.74 0.999688 15.1066 0.914619C14.7993 0.873397 14.5913 0.921529 14.4705 1.06185C14.3069 1.25189 14.382 1.51104 14.4317 1.68245C14.4436 1.71967 14.4532 1.75754 14.4607 1.79589C14.4662 1.83967 14.454 1.86845 14.4182 1.94588C14.3455 2.08648 14.3077 2.24243 14.3078 2.40067C14.3078 2.61258 14.2884 2.68165 13.8182 3.01253C13.6908 3.09666 13.556 3.1691 13.4155 3.22897C13.0763 3.38556 12.6918 3.56306 12.6312 4.11922C12.5906 4.49194 12.3789 4.78443 12.2775 4.8412C12.2758 4.83775 12.2741 4.83364 12.272 4.82897C12.2059 4.672 12.1027 4.56637 11.9648 4.51516C11.685 4.41119 11.3684 4.56817 11.0623 4.72013C11.023 4.73958 10.9841 4.75897 10.9458 4.77739C10.7647 4.86393 10.5705 4.91989 10.3712 4.943C10.3915 4.91487 10.4139 4.88602 10.436 4.85755C10.5597 4.69812 10.7467 4.45725 10.5715 4.21283C10.3905 3.96028 10.1768 4.05554 10.0354 4.1186C9.92005 4.17331 9.79865 4.21412 9.6737 4.24019C9.35053 4.3065 9.21335 4.47771 9.11322 4.60272C9.03555 4.69968 9.01094 4.72314 8.94737 4.73105C8.58176 4.77666 8.597 5.14568 8.60426 5.32301C8.60709 5.39032 8.61283 5.53033 8.58895 5.5571C8.43063 5.67258 8.27521 5.89209 8.28489 6.12215C8.28551 6.13722 8.28244 6.15221 8.27595 6.16583C8.26945 6.17944 8.25974 6.19127 8.24764 6.20027C8.2379 6.20808 8.22635 6.2133 8.21405 6.21543C8.20175 6.21757 8.18912 6.21655 8.17732 6.21247C8.13641 6.19865 8.13486 6.19015 8.13486 6.15691C8.13366 6.1038 8.1355 6.05066 8.14038 5.99776L8.14954 5.98967C8.23757 5.91198 8.31383 5.82189 8.3759 5.72223C8.68915 5.24478 8.37852 4.85119 8.36515 4.83467C8.33804 4.80126 8.30121 4.77711 8.25976 4.76557C7.98873 4.68979 7.832 4.92313 7.71753 5.09347C7.57755 5.3019 7.43278 5.5174 7.10719 5.55247C6.64905 5.60182 6.61007 5.56087 6.5512 5.49885C6.44869 5.38535 6.3189 5.29991 6.17412 5.25062C5.85499 5.13131 5.32181 5.22415 4.8061 5.31392C4.55732 5.35722 4.18674 5.42176 4.07766 5.4001C4.07258 5.36772 4.07621 5.28282 4.13239 5.12951L4.1326 5.12972C4.34907 5.24689 4.57833 5.25366 4.7777 5.14876C4.96871 5.04835 5.06843 4.84514 5.04452 4.60524C5.01384 4.29751 4.76464 3.92206 4.34814 3.79992C3.98506 3.69357 3.76219 3.97731 3.56538 4.22768C3.33688 4.51834 3.07788 4.8478 2.54051 4.9347C2.35493 4.96172 2.1772 5.02783 2.01908 5.12867C1.86096 5.22951 1.72606 5.36277 1.6233 5.51965C1.438 5.79317 1.32021 6.15988 1.28275 6.58018C1.25235 6.92658 1.27418 7.27558 1.3475 7.61549C1.42946 7.98309 1.36751 8.11547 1.34657 8.14726C1.33977 8.15911 1.32964 8.16872 1.31744 8.1749C1.2009 8.16882 0.799564 8.16971 0.601473 8.44254C0.468548 8.62567 0.464955 8.86803 0.590796 9.16314C1.22861 10.6586 1.53958 10.9312 1.75955 11.0005C1.80904 11.0169 1.86154 11.0223 1.91332 11.0162C1.96511 11.01 2.01492 10.9926 2.05922 10.9651C2.2051 10.8742 2.27542 10.6597 2.39183 10.3044C2.53833 9.85731 2.75971 9.18166 3.12877 9.07268C3.31 9.01913 3.54178 9.10198 3.81779 9.31898C4.04162 9.66796 4.36203 10.0567 4.65476 10.0011C4.88374 9.95762 4.96145 9.74567 5.01287 9.60542C5.04466 9.51869 5.07755 9.4292 5.12371 9.40705C5.20678 9.36574 5.28447 9.3144 5.35505 9.25419C5.376 9.2365 5.39791 9.22 5.4207 9.20474C5.43565 9.2103 5.44996 9.21744 5.4634 9.22603C5.4908 9.24268 5.51592 9.25823 5.53942 9.27278C5.75258 9.40481 5.87113 9.47011 6.23393 9.51144C6.2905 9.5179 6.30933 9.54043 6.36838 9.67214C6.42677 9.8023 6.54805 10.0732 6.89413 10.0123C7.07806 9.97997 7.12415 10.033 7.30034 10.3457L7.33247 10.4025C7.59628 10.8666 8.02999 11.1005 8.62475 11.1005C8.75104 11.1 8.87714 11.0905 9.0021 11.0722C9.54085 10.9954 9.74225 10.8607 9.86246 10.7803C9.88097 10.7669 9.90046 10.7549 9.92076 10.7445C9.94388 10.7445 9.96683 10.7485 9.98855 10.7565C10.2114 10.8189 10.3868 10.7269 10.5279 10.6528C10.6911 10.5672 10.7811 10.52 10.9555 10.6267C11.2959 10.8349 11.5312 10.7435 11.7203 10.67C11.858 10.6165 11.977 10.5703 12.1723 10.619C12.5446 10.7118 12.7107 10.6134 12.8889 10.475C13.0078 10.3714 13.1559 10.3073 13.3128 10.2917C13.7945 10.2254 13.8055 9.79145 13.8121 9.53217C13.8206 9.19911 13.8543 9.18104 13.97 9.16967C14.2224 9.14493 14.2624 9.20053 14.3349 9.30146C14.4108 9.40695 14.5254 9.56637 14.8081 9.56637C14.9248 9.56637 15.2802 9.56637 15.4037 9.7077C15.4207 9.72715 15.4725 9.78641 15.4502 9.95157C15.4176 10.1934 15.4462 10.3985 15.5354 10.5615C15.5804 10.6427 15.6485 10.7088 15.731 10.7514C15.8135 10.7941 15.9068 10.8113 15.9991 10.8009C16.0914 10.7906 16.1786 10.7531 16.2497 10.6933C16.3207 10.6335 16.3724 10.5539 16.3983 10.4647C16.7605 9.21179 16.561 8.72456 16.368 8.25333C16.3039 8.10749 16.2515 7.95678 16.2113 7.80263C16.1393 7.50291 16.0872 7.28634 15.7436 7.3572C15.643 7.38011 15.5394 7.38682 15.4367 7.37707C15.4228 7.37715 15.4091 7.37375 15.3969 7.36719C15.3846 7.36064 15.3742 7.35112 15.3666 7.33951C15.2673 7.20099 15.3059 6.79517 15.3631 6.56449C15.3736 6.53278 15.3739 6.49861 15.364 6.46671C15.3608 6.43865 15.3473 6.24529 15.5387 5.91386C15.687 5.65714 15.7028 5.35732 15.7143 5.13846C15.7145 5.13477 15.7146 5.13103 15.7149 5.1272C15.7796 5.21786 15.8375 5.31328 15.8879 5.41264C15.9808 5.59137 16.0872 5.76273 16.2063 5.92523C16.455 6.25597 16.8441 6.59265 17.1521 6.59901C17.2039 6.6017 17.2555 6.59238 17.3031 6.57179C17.3506 6.55119 17.3927 6.51987 17.4261 6.48029C17.5034 6.38606 17.5194 6.24823 17.4763 6.04651C17.4004 5.69169 17.1217 5.10626 16.7394 4.91577ZM16.5375 5.67593C16.4307 5.52937 16.3352 5.37495 16.2518 5.21399C16.1196 4.97192 16.0055 4.76284 15.776 4.64297C15.6388 4.57138 15.5368 4.59826 15.4754 4.63337C15.3215 4.72117 15.3118 4.90454 15.3007 5.1168C15.2909 5.30359 15.2787 5.53606 15.1802 5.70658C14.9472 6.10988 14.9386 6.38506 14.9514 6.50572C14.9082 6.69576 14.8045 7.26616 15.0297 7.5808C15.0722 7.6414 15.1279 7.69169 15.1925 7.72797C15.257 7.76424 15.3289 7.78557 15.4028 7.79039C15.5278 7.80197 15.6537 7.79628 15.7771 7.77346C15.7885 7.8162 15.8004 7.86575 15.8086 7.89958C15.8535 8.07435 15.9125 8.24523 15.9848 8.41058C16.1585 8.83479 16.3226 9.23543 16.0004 10.3497C15.9976 10.3605 15.9915 10.3701 15.9829 10.3772C15.9743 10.3842 15.9636 10.3884 15.9525 10.389C15.942 10.3909 15.9311 10.3893 15.9216 10.3845C15.912 10.3797 15.9043 10.372 15.8996 10.3624C15.8544 10.2799 15.8413 10.1571 15.8616 10.0071C15.8931 9.77366 15.8443 9.58113 15.7164 9.43483C15.4971 9.18391 15.1161 9.15174 14.8086 9.15174C14.7385 9.15174 14.7309 9.14137 14.6721 9.05942C14.5447 8.88209 14.3822 8.71264 13.9301 8.75704C13.4163 8.80742 13.4049 9.25461 13.3981 9.52166C13.3899 9.84712 13.3576 9.86719 13.2569 9.88101C13.0279 9.90632 12.8116 9.99907 12.6354 10.1475C12.5221 10.2354 12.4799 10.2684 12.2731 10.2166C11.9499 10.1361 11.7308 10.2213 11.5706 10.2835C11.4105 10.3456 11.3376 10.374 11.1724 10.2731C10.7972 10.0436 10.5196 10.1894 10.3358 10.2857C10.2145 10.3493 10.1595 10.3737 10.101 10.3573C9.87186 10.293 9.75777 10.3519 9.63251 10.4356C9.53577 10.5004 9.38923 10.5983 8.94402 10.6618C8.03092 10.7921 7.77682 10.3447 7.6932 10.1978L7.66183 10.1423C7.51505 9.88177 7.35085 9.59032 6.97208 9.59032C6.92195 9.59057 6.87194 9.59519 6.82261 9.60414C6.81528 9.60553 6.80785 9.60629 6.80039 9.60642C6.77949 9.57356 6.76163 9.53887 6.74704 9.50276C6.68519 9.36483 6.58167 9.13398 6.28117 9.09977C5.99438 9.06709 5.93488 9.03018 5.75793 8.92058C5.7334 8.90538 5.70721 8.88917 5.67846 8.87183C5.38756 8.69537 5.20419 8.84336 5.09452 8.93178C5.04903 8.9715 4.99886 9.00552 4.94511 9.03305C4.74629 9.12783 4.67525 9.32153 4.62342 9.46292C4.60991 9.50202 4.59433 9.54039 4.57678 9.57785C4.47937 9.51461 4.2904 9.29133 4.14957 9.06805C4.13744 9.04877 4.1222 9.03163 4.10447 9.01733C3.70466 8.69405 3.33675 8.57885 3.01126 8.67502C2.43343 8.84564 2.18161 9.61416 1.99772 10.1753C1.9555 10.3146 1.90566 10.4515 1.84842 10.5854C1.75433 10.517 1.49525 10.2271 0.972225 9.00023C0.910375 8.85511 0.897453 8.74073 0.936739 8.68621C0.995479 8.60449 1.1935 8.5802 1.30829 8.58946C1.31477 8.59012 1.32129 8.5904 1.32781 8.59029C1.39349 8.58734 1.45772 8.57 1.51597 8.5395C1.57422 8.509 1.62506 8.46609 1.66491 8.4138C1.8129 8.22807 1.84227 7.92909 1.75222 7.52517C1.63453 6.99723 1.6514 6.21724 1.96645 5.75216C2.0376 5.64212 2.13161 5.54871 2.2421 5.47826C2.35258 5.40781 2.47694 5.36197 2.60671 5.34388C3.30389 5.23117 3.64347 4.79919 3.89142 4.48379C4.07939 4.24465 4.15102 4.17402 4.23156 4.19766C4.46956 4.26745 4.61551 4.48099 4.63203 4.64626C4.63894 4.71595 4.62311 4.76149 4.58483 4.7816C4.53604 4.80724 4.4566 4.83343 4.33004 4.76495C4.27755 4.73651 4.21956 4.7197 4.16 4.71564C4.10045 4.71158 4.04071 4.72037 3.98485 4.74142C3.92978 4.76213 3.8798 4.79446 3.83831 4.83619C3.79682 4.87792 3.76479 4.92809 3.7444 4.98329C3.53978 5.53845 3.76168 5.72199 3.91202 5.78197C4.09235 5.85391 4.38155 5.80858 4.87725 5.72227C5.27316 5.65337 5.81529 5.55897 6.02903 5.63886C6.1148 5.66608 6.19143 5.71636 6.25055 5.78419C6.42677 5.96998 6.58972 6.02516 7.15169 5.96459C7.66933 5.90882 7.90553 5.55721 8.06181 5.32453C8.07349 5.30725 8.08638 5.28797 8.09947 5.26897C8.10022 5.34973 8.07568 5.42869 8.0293 5.49481C7.98708 5.56416 7.93457 5.6267 7.87357 5.68029C7.73936 5.80001 7.72029 5.88947 7.72029 6.15691C7.71707 6.25681 7.74705 6.35497 7.80554 6.43602C7.86403 6.51708 7.94774 6.57646 8.04357 6.60489C8.1192 6.6305 8.19993 6.63729 8.27877 6.62464C8.35761 6.612 8.43218 6.58031 8.496 6.53232C8.56211 6.48295 8.61517 6.4182 8.65059 6.34368C8.68601 6.26917 8.70273 6.18713 8.69928 6.1047C8.69703 6.05211 8.75394 5.95001 8.83338 5.89206C9.03669 5.74376 9.02625 5.49069 9.01865 5.30591C9.01497 5.25054 9.01511 5.19498 9.01906 5.13964C9.24255 5.10453 9.3545 4.9648 9.43691 4.8619C9.51718 4.7617 9.58062 4.68257 9.75715 4.64633C9.90285 4.61628 10.0447 4.56992 10.18 4.50811C10.1567 4.54132 10.1292 4.57674 10.1086 4.60334C10.0326 4.70113 9.94663 4.81197 9.90396 4.93958C9.88281 4.99544 9.87912 5.05641 9.89339 5.11441C9.90766 5.17241 9.93922 5.22471 9.98388 5.26437C10.2453 5.4947 10.9125 5.25376 11.1256 5.15118C11.1655 5.132 11.2059 5.11189 11.2468 5.09164C11.4417 4.9949 11.7085 4.86235 11.8204 4.90395C11.8301 4.90741 11.8598 4.91864 11.8898 4.98992C11.9724 5.18628 12.1311 5.28752 12.3144 5.26088C12.6135 5.21724 12.9779 4.76622 13.0435 4.16431C13.0772 3.85507 13.2445 3.76481 13.5894 3.60556C13.7527 3.53548 13.9092 3.45052 14.0569 3.35177C14.5299 3.01892 14.7226 2.83973 14.7226 2.40081C14.7228 2.3029 14.7475 2.20659 14.7944 2.12065C14.8382 2.02618 14.8928 1.9086 14.8722 1.74441C14.8627 1.68432 14.8486 1.62505 14.8301 1.56711C14.8119 1.50454 14.7748 1.37676 14.7863 1.33254C14.8011 1.325 14.8656 1.30075 15.0515 1.32562C15.3051 1.35966 15.3005 1.44286 15.287 1.68988C15.2771 1.87063 15.2605 2.1731 15.5512 2.2911C15.5792 2.30247 15.6072 2.31332 15.6349 2.32406C15.9415 2.44282 16.1266 2.51455 15.9886 3.33974C15.8133 4.38832 15.9931 5.00702 16.5545 5.28683C16.8075 5.41292 17.0344 5.91735 17.0784 6.15874C16.9581 6.10231 16.7442 5.95035 16.5376 5.67583L16.5375 5.67593Z" fill="#1DBBBA"/>
</g>
<defs>
<clipPath id="clip0_1008_13290">
<rect width="17" height="10.2276" fill="white" transform="translate(0.5 0.88623)"/>
</clipPath>
</defs>
</svg>
