<svg width="138" height="55" fill="none" xmlns="http://www.w3.org/2000/svg"><path d="M62.405 10.192l-5.645 7.503h-2.85v-7.503h-4.233l-1.704 3.178h2.556v15.78h3.382v-8.517h2.849l5.938 8.517h3.861l-6.897-9.986 6.578-8.972h-3.835zm3.115 12.123c0 1.513.347 2.821 1.039 3.925a6.754 6.754 0 002.69 2.456c1.118.552 2.334.828 3.648.828 1.295 0 2.494-.276 3.594-.828a6.436 6.436 0 002.716-2.483c.675-1.104 1.012-2.403 1.012-3.898 0-1.513-.337-2.813-1.012-3.899a6.474 6.474 0 00-2.662-2.376c-1.101-.534-2.317-.801-3.648-.801a8.651 8.651 0 00-3.622.774 6.432 6.432 0 00-2.743 2.457c-.674 1.068-1.011 2.35-1.011 3.845zm60.686 11.615v-6.302c.213.356.488.659.825.908.426.303.897.534 1.412.694.532.16 1.322.24 2.369.24a6.83 6.83 0 001.758-.24 4.97 4.97 0 001.598-.667c.941-.588 1.669-1.415 2.183-2.483.533-1.086.8-2.332.8-3.739 0-1.388-.258-2.625-.773-3.711-.532-1.068-1.278-1.887-2.236-2.457-.942-.587-2.051-.88-3.33-.88-1.278 0-2.298.204-3.061.613a4.712 4.712 0 00-1.785 1.603v-1.843h-3.009V33.93h3.249zm-41.034-4.78v-5.687h5.512v5.687h3.195V15.666h-3.195v5.127h-5.512v-5.127H81.95V29.15h3.222zm14.646-10.92v10.92h3.275V18.23h4.58v-2.564H95.291v2.563h4.527zm14.006 11.4a3.884 3.884 0 01-.426.855c-.16.25-.435.454-.826.614-.372.178-.852.267-1.437.267-.462 0-.879-.035-1.252-.106l1.092 2.563c.089.018.39.027.905.027 1.03 0 1.846-.17 2.45-.508a3.838 3.838 0 001.385-1.335c.372-.552.772-1.415 1.198-2.59l4.953-13.75h-3.249a222.735 222.735 0 00-3.195 9.825 201.219 201.219 0 00-3.302-9.826h-3.409l5.113 13.965zm-45.028-7.342c0-1.46.355-2.554 1.065-3.284s1.695-1.095 2.956-1.095c1.278 0 2.272.365 2.982 1.095.728.73 1.092 1.824 1.092 3.284 0 1.495-.364 2.626-1.092 3.391-.728.766-1.722 1.148-2.982 1.148-1.243 0-2.228-.383-2.956-1.148-.71-.765-1.065-1.896-1.065-3.391zm57.33.027c.036-1.3.382-2.35 1.039-3.151.656-.801 1.615-1.202 2.875-1.202 1.261 0 2.211.41 2.849 1.229.657.8.995 1.842 1.013 3.124-.018 1.3-.356 2.358-1.013 3.177-.638.819-1.588 1.228-2.849 1.228-1.26 0-2.219-.409-2.875-1.228-.657-.819-1.003-1.878-1.039-3.177zM55.427 41.294c.016-1.7-1.077-3.013-2.764-2.99-1.696 0-2.773 1.274-2.773 2.99 0 1.717 1.077 2.99 2.773 2.99 1.688.024 2.78-1.29 2.764-2.99zm-4.564 0c0-1.281.723-2.151 1.8-2.151 1.085 0 1.792.87 1.792 2.151 0 1.282-.707 2.152-1.792 2.152-1.077 0-1.8-.87-1.8-2.152zM58.285 38.434v1.555c-.683.024-1.23.225-1.655.596-.418.363-.627.879-.627 1.547 0 .67.21 1.185.627 1.556.426.362.972.564 1.655.588v1.33h.852v-1.33c1.326-.049 2.282-.79 2.282-2.144 0-1.353-.956-2.095-2.282-2.143v-1.555h-.852zm.025 5.125c-.877-.025-1.407-.524-1.407-1.427 0-.902.53-1.402 1.407-1.426v2.853zm.803-2.853c.876.024 1.407.524 1.407 1.426 0 .903-.531 1.402-1.407 1.427v-2.853zM64.917 40.11l-1.11 1.78c-.192.315-.465.774-.81 1.386a48.03 48.03 0 00.023-1.603V40.11h-.82v4.045h.965l1.101-1.789c.25-.411.522-.878.82-1.386a30.97 30.97 0 00-.032 1.692v1.483h.827V40.11h-.964zM70.124 45.162h.86v-1.724h-.587V40.11h-.884v3.328h-1.72V40.11h-.884v4.045h3.215v1.007zM74.405 40.11l-1.11 1.78c-.192.315-.465.774-.81 1.386.015-.475.023-1.015.023-1.603V40.11h-.82v4.045h.965l1.101-1.789c.25-.411.522-.878.82-1.386a30.95 30.95 0 00-.032 1.692v1.483h.827V40.11h-.964zM79.789 41.391c0-.862-.611-1.41-1.704-1.41-.747 0-1.318.282-1.824.886l.554.516c.482-.484.788-.669 1.294-.669.514 0 .836.25.836.693v.145l-.924.17c-.57.104-1.013.265-1.334.475-.314.201-.474.515-.474.943 0 .773.61 1.144 1.446 1.144.61 0 1.077-.21 1.334-.588v.459h.796V41.39zm-.844 1.176c0 .645-.506 1.008-1.157 1.008-.442 0-.707-.186-.707-.484 0-.419.361-.58 1.165-.75l.699-.144v.37zM80.336 44.147c.169.04.354.056.538.056.98-.04 1.174-.548 1.198-2.208l.016-1.168h1.446v3.328h.884V40.11h-3.134l-.016 1.87c-.024 1.256-.072 1.45-.546 1.482-.04 0-.145-.008-.306-.032l-.08.717zM85.438 44.155h1.945c.932 0 1.55-.524 1.55-1.386 0-.862-.618-1.386-1.55-1.386h-1.06V40.11h-.885v4.045zm.884-.725v-1.322h.94c.515 0 .772.218.772.66 0 .444-.257.662-.772.662h-.94zM93.188 44.155V40.11h-.884v1.58h-1.736v-1.58h-.884v4.045h.884v-1.74h1.736v1.74h.883zM94.22 44.155h1.945c.932 0 1.55-.524 1.55-1.386 0-.862-.618-1.386-1.55-1.386h-1.061V40.11h-.884v4.045zm.884-.725v-1.322h.94c.514 0 .772.218.772.66 0 .444-.258.662-.772.662h-.94zm3.97-3.32h-.884v4.045h.884V40.11zM103.778 40.11v4.045h-.827v-1.483c0-.725.008-1.29.032-1.692-.298.508-.571.975-.82 1.386l-1.101 1.789h-.964V40.11h.82v1.563c0 .588-.009 1.128-.025 1.603.346-.612.619-1.071.812-1.385l1.109-1.781h.964zm-.482-1.612h-.715c0 .379-.225.58-.643.58-.418 0-.643-.201-.643-.58h-.723c0 .766.53 1.128 1.366 1.128.828 0 1.358-.362 1.358-1.128zM106.596 44.155h.884v-3.328h1.687v3.328h.884V40.11h-3.455v4.045zM114.468 41.391c0-.862-.611-1.41-1.703-1.41-.748 0-1.318.282-1.825.886l.555.516c.482-.484.787-.669 1.294-.669.514 0 .835.25.835.693v.145l-.924.17c-.57.104-1.012.265-1.334.475-.313.201-.474.515-.474.943 0 .773.611 1.144 1.447 1.144.61 0 1.077-.21 1.334-.588v.459h.795V41.39zm-.844 1.176c0 .645-.506 1.008-1.157 1.008-.442 0-.707-.186-.707-.484 0-.419.362-.58 1.165-.75l.699-.144v.37zM119.393 42.124c0-1.273-.747-2.127-1.784-2.127-.594 0-1.036.225-1.334.685v-.572h-.819v5.495h.884v-1.917c.289.378.707.572 1.261.572 1.029 0 1.792-.846 1.792-2.136zm-.9 0c0 .83-.426 1.37-1.069 1.37-.65 0-1.125-.524-1.125-1.37 0-.838.458-1.37 1.125-1.37.651 0 1.069.54 1.069 1.37zM123.246 40.827v-.717h-3.56v.717h1.334v3.328h.883v-3.328h1.343zM127.427 44.155V40.11h-.884v1.58h-1.735v-1.58h-.884v4.045h.884v-1.74h1.735v1.74h.884zM131.554 42.922c-.507.451-.78.604-1.254.604-.739 0-1.149-.483-1.214-1.192h2.958c.008-.105.016-.226.016-.363 0-1.233-.667-1.99-1.857-1.99-1.213 0-1.985.91-1.985 2.175 0 1.282.789 2.12 2.066 2.12.675 0 1.205-.226 1.784-.814l-.514-.54zm-2.443-1.233c.12-.636.49-1.007 1.068-1.007.611 0 .981.387 1.013 1.007h-2.081zM136.792 42.124c0-1.273-.747-2.127-1.784-2.127-.595 0-1.037.225-1.334.685v-.572h-.82v5.495h.884v-1.917c.29.378.708.572 1.262.572 1.029 0 1.792-.846 1.792-2.136zm-.9 0c0 .83-.426 1.37-1.069 1.37-.651 0-1.125-.524-1.125-1.37 0-.838.458-1.37 1.125-1.37.652 0 1.069.54 1.069 1.37z" fill="#fff"/><path d="M62.432 10l-5.645 7.503h-2.849V10h-4.234L48 13.178h2.556v15.78h3.382V20.44h2.85l5.937 8.518h3.861l-6.896-9.986L66.267 10h-3.834zm3.116 12.122c0 1.514.346 2.822 1.038 3.925a6.753 6.753 0 002.69 2.457c1.118.552 2.334.828 3.648.828 1.296 0 2.494-.276 3.595-.828a6.437 6.437 0 002.716-2.483c.674-1.104 1.012-2.403 1.012-3.899 0-1.513-.338-2.812-1.012-3.898a6.473 6.473 0 00-2.663-2.376c-1.1-.534-2.317-.802-3.648-.802a8.651 8.651 0 00-3.622.775 6.432 6.432 0 00-2.742 2.456c-.675 1.069-1.012 2.35-1.012 3.845zm60.685 11.615v-6.301c.213.356.488.659.826.908.426.302.896.534 1.411.694.532.16 1.323.24 2.37.24.568 0 1.154-.08 1.757-.24a4.95 4.95 0 001.598-.668c.942-.587 1.669-1.415 2.183-2.483.534-1.086.8-2.332.8-3.738 0-1.388-.258-2.626-.773-3.711-.532-1.069-1.278-1.887-2.236-2.457-.942-.587-2.051-.881-3.329-.881s-2.299.205-3.062.614a4.713 4.713 0 00-1.785 1.602v-1.842h-3.009v18.263h3.249zm-41.034-4.78v-5.686h5.513v5.687h3.195V15.474h-3.195V20.6h-5.513v-5.126h-3.221v13.484H85.2zm14.646-10.92v10.92h3.275v-10.92h4.58v-2.563H95.318v2.563h4.527zm14.006 11.402a3.798 3.798 0 01-.426.854c-.159.25-.435.454-.825.614-.373.178-.852.267-1.438.267-.462 0-.879-.035-1.252-.107l1.092 2.564c.089.017.391.026.906.026 1.029 0 1.846-.169 2.449-.507a3.83 3.83 0 001.385-1.335c.373-.552.772-1.415 1.198-2.59l4.953-13.751h-3.249a224.028 224.028 0 00-3.195 9.826 201.256 201.256 0 00-3.302-9.826h-3.408l5.112 13.965zm-45.028-7.343c0-1.46.355-2.555 1.065-3.285s1.696-1.094 2.956-1.094c1.278 0 2.272.365 2.982 1.094.728.73 1.092 1.825 1.092 3.285 0 1.495-.364 2.625-1.092 3.39-.727.766-1.722 1.149-2.982 1.149-1.243 0-2.228-.383-2.956-1.148-.71-.766-1.065-1.896-1.065-3.391zm57.331.026c.035-1.3.381-2.35 1.038-3.15.657-.801 1.616-1.202 2.876-1.202 1.261 0 2.21.41 2.849 1.228.657.801.994 1.843 1.012 3.124-.018 1.3-.355 2.359-1.012 3.178-.639.819-1.588 1.228-2.849 1.228-1.26 0-2.219-.41-2.876-1.228-.657-.819-1.003-1.878-1.038-3.178zM55.455 41.102c.016-1.7-1.077-3.014-2.765-2.99-1.695 0-2.772 1.273-2.772 2.99 0 1.716 1.077 2.99 2.772 2.99 1.688.024 2.78-1.29 2.765-2.99zm-4.565 0c0-1.281.723-2.152 1.8-2.152 1.085 0 1.792.87 1.792 2.152 0 1.281-.707 2.151-1.792 2.151-1.077 0-1.8-.87-1.8-2.151zM58.313 38.241v1.555c-.683.025-1.23.226-1.656.597-.417.362-.626.878-.626 1.547 0 .669.209 1.184.626 1.555.426.363.973.564 1.656.589v1.33h.852v-1.33c1.326-.049 2.282-.79 2.282-2.144s-.956-2.095-2.282-2.144v-1.555h-.852zm.024 5.125c-.876-.024-1.406-.523-1.406-1.426 0-.902.53-1.402 1.406-1.426v2.852zm.804-2.852c.875.024 1.406.523 1.406 1.426 0 .903-.53 1.402-1.406 1.426v-2.852zM64.944 39.917l-1.109 1.781c-.193.315-.466.774-.811 1.386a48.03 48.03 0 00.024-1.603v-1.564h-.82v4.046h.964l1.101-1.79c.25-.41.523-.878.82-1.385a30.97 30.97 0 00-.032 1.692v1.483h.828v-4.046h-.965zM70.151 44.97h.86v-1.725h-.587v-3.328h-.884v3.328h-1.72v-3.328h-.883v4.046h3.214v1.007zM74.432 39.917l-1.109 1.781c-.192.315-.466.774-.811 1.386.016-.475.024-1.015.024-1.603v-1.564h-.82v4.046h.965l1.1-1.79c.25-.41.523-.878.82-1.385a30.95 30.95 0 00-.032 1.692v1.483h.828v-4.046h-.965zM79.816 41.199c0-.863-.61-1.41-1.704-1.41-.747 0-1.317.282-1.824.886l.555.516c.482-.484.787-.67 1.293-.67.515 0 .836.25.836.694v.145l-.924.169c-.57.105-1.013.266-1.334.475-.313.202-.474.516-.474.943 0 .774.61 1.145 1.447 1.145.61 0 1.076-.21 1.334-.589v.46h.795v-2.764zm-.844 1.176c0 .645-.506 1.007-1.157 1.007-.442 0-.707-.185-.707-.483 0-.42.361-.58 1.165-.75l.7-.145v.371zM80.363 43.955c.17.04.354.056.539.056.98-.04 1.173-.548 1.197-2.208l.016-1.168h1.447v3.328h.884v-4.046h-3.134l-.016 1.87c-.025 1.257-.073 1.45-.547 1.483-.04 0-.144-.009-.305-.033l-.08.718zM85.466 43.963h1.944c.933 0 1.551-.524 1.551-1.386 0-.863-.618-1.386-1.55-1.386H86.35v-1.274h-.884v4.046zm.884-.726v-1.321h.94c.514 0 .771.217.771.66 0 .444-.257.661-.771.661h-.94zM93.215 43.963v-4.046h-.884v1.58h-1.736v-1.58h-.884v4.046h.884v-1.741h1.736v1.74h.884zM94.247 43.963h1.945c.932 0 1.551-.524 1.551-1.386 0-.863-.619-1.386-1.551-1.386h-1.06v-1.274h-.885v4.046zm.884-.726v-1.321h.94c.515 0 .772.217.772.66 0 .444-.257.661-.772.661h-.94zm3.97-3.32h-.884v4.046h.884v-4.046zM103.806 39.917v4.046h-.828V42.48c0-.725.008-1.29.032-1.692-.297.507-.57.975-.819 1.386l-1.101 1.789h-.965v-4.046h.82v1.564c0 .588-.008 1.128-.024 1.603.345-.612.619-1.072.811-1.386l1.109-1.78h.965zm-.482-1.611h-.716c0 .378-.225.58-.642.58-.418 0-.643-.202-.643-.58h-.724c0 .765.531 1.128 1.367 1.128.827 0 1.358-.363 1.358-1.128zM106.623 43.963h.884v-3.328h1.688v3.328h.884v-4.046h-3.456v4.046zM114.496 41.199c0-.863-.611-1.41-1.704-1.41-.747 0-1.318.282-1.824.886l.554.516c.482-.484.788-.67 1.294-.67.514 0 .836.25.836.694v.145l-.924.169c-.571.105-1.013.266-1.334.475-.314.202-.474.516-.474.943 0 .774.61 1.145 1.446 1.145.611 0 1.077-.21 1.334-.589v.46h.796v-2.764zm-.844 1.176c0 .645-.506 1.007-1.157 1.007-.442 0-.708-.185-.708-.483 0-.42.362-.58 1.166-.75l.699-.145v.371zM119.421 41.932c0-1.273-.748-2.128-1.784-2.128-.595 0-1.037.226-1.334.685v-.572h-.82v5.496h.884v-1.918c.289.379.707.572 1.262.572 1.028 0 1.792-.846 1.792-2.135zm-.9 0c0 .83-.426 1.37-1.069 1.37-.651 0-1.125-.524-1.125-1.37 0-.838.458-1.37 1.125-1.37.651 0 1.069.54 1.069 1.37zM123.273 40.635v-.718h-3.56v.718h1.334v3.328h.884v-3.328h1.342zM127.455 43.963v-4.046h-.884v1.58h-1.736v-1.58h-.884v4.046h.884v-1.741h1.736v1.74h.884zM131.581 42.73c-.506.451-.78.604-1.253.604-.74 0-1.15-.483-1.214-1.193h2.957c.009-.104.016-.225.016-.362 0-1.233-.666-1.99-1.856-1.99-1.213 0-1.985.91-1.985 2.175 0 1.281.788 2.12 2.065 2.12.675 0 1.206-.226 1.785-.814l-.515-.54zm-2.442-1.233c.119-.637.49-1.008 1.068-1.008.611 0 .981.387 1.012 1.008h-2.08zM136.819 41.932c0-1.273-.747-2.128-1.784-2.128-.595 0-1.037.226-1.334.685v-.572h-.82v5.496h.884v-1.918c.29.379.708.572 1.262.572 1.029 0 1.792-.846 1.792-2.135zm-.9 0c0 .83-.426 1.37-1.068 1.37-.651 0-1.126-.524-1.126-1.37 0-.838.458-1.37 1.126-1.37.651 0 1.068.54 1.068 1.37z" fill="#222"/><path d="M37.789 51.026c0 1.024-.722 1.9-1.612 1.953L1.852 54.997C.832 55.057 0 54.21 0 53.107v-49.6c0-1.101.832-1.964 1.853-1.922l34.323 1.401c.89.037 1.612.9 1.612 1.925v46.115z" fill="url(#paint0_linear)"/><path d="M38.796 51.026c0 1.024-.721 1.9-1.611 1.953L2.86 54.997c-1.02.06-1.852-.787-1.852-1.89v-49.6c0-1.101.832-1.964 1.852-1.922l34.325 1.401c.89.037 1.611.9 1.611 1.925v46.115z" fill="url(#paint1_linear)"/><path d="M1.872 3.54v49.52c0 .59.443 1.041.988 1.01l27.147-1.549 7.178-.41c.476-.027.863-.494.863-1.043V4.882c0-.55-.387-1.01-.863-1.027l-7.437-.291L2.86 2.512c-.546-.021-.988.44-.988 1.028z" fill="url(#paint2_linear)"/><path d="M37.573 48.932a.394.394 0 01-.363.389L2.83 51.09a.382.382 0 01-.414-.375V3.54c0-.218.186-.389.414-.38L37.21 4.462a.38.38 0 01.362.385v44.085h.002z" fill="#fff"/><path d="M24.057 52.002l-6.981.386c-.373.022-.676-.24-.676-.581v-.027c0-.342.303-.636.677-.655l6.98-.37c.363-.02.656.239.656.576v.025c0 .336-.294.626-.655.646h-.001z" fill="url(#paint3_linear)"/><path d="M20.948 3.22c0 .181-.16.323-.358.315-.198-.008-.358-.161-.358-.344 0-.183.16-.324.358-.316.198.008.358.162.358.344z" fill="url(#paint4_linear)"/><g style="mix-blend-mode:screen" opacity=".3"><path d="M29.712 47.78c-.14-3.022 3.195-4.795 2.876-9.058-.03-.385-.328-3.685-2.964-5.92-2.367-2.01-4.357-1.253-8.738-2.855-3.07-1.123-6.523-2.385-7.92-4.917-2.772-5.029 5.15-10.052 3.529-16.563-.464-1.865-1.777-4.151-5.242-6.54L2.86 1.585c-1.02-.042-1.852.82-1.852 1.922v49.6c0 1.103.832 1.95 1.852 1.89l31.275-1.839c-3.33-1.94-4.35-3.803-4.423-5.378z" fill="#fff" opacity=".3"/></g><path d="M35.117 47.316L4.23 49.61l.166-47.003 30.722.74v43.969z" fill="url(#paint5_linear)"/><path d="M20.286 9.2L6.3 9.052l.013-3.917 13.98.261-.006 3.803zm-5.882 9.919l-4.49.049.015-4.94h4.486l-.01 4.89zm17.225-2.556l-15.786.097.005-2.439 15.783-.013-.002 2.356v-.001zM14.382 28.99l-4.494.147.013-4.95 4.492-.099-.01 4.902zm17.244-2.923l-15.804.433.006-2.444 15.799-.349v2.36h-.001zM14.36 38.883l-4.5.247.014-4.96 4.497-.199-.011 4.912zm17.263-3.29l-15.821.77.005-2.45 15.816-.684v2.365z" fill="#fff"/><g style="mix-blend-mode:soft-light"><path d="M22.784 48.153L4.246 49.531l.158-47.003 11.451.275c-2.239 3.879-4.97 11.629 2.842 18.892 7.942 7.382 11.126 18.666 4.088 26.458h-.001z" fill="#fff" opacity=".3"/></g><path d="M36.186.739v43.97l-12.334.917-18.538 1.378L5.472 0l11.452.275 19.262.464z" fill="url(#paint6_linear)"/><g style="mix-blend-mode:soft-light"><path d="M23.852 45.626L5.315 47.003 5.472 0l11.452.275c-2.24 3.88-4.972 11.63 2.842 18.893 7.94 7.381 11.124 18.665 4.087 26.458z" fill="#fff" opacity=".5"/></g><path style="mix-blend-mode:multiply" opacity=".6" d="M21.39 6.592L7.4 6.446l.013-3.917 13.98.261-.005 3.802z" fill="url(#paint7_linear)"/><path style="mix-blend-mode:multiply" opacity=".6" d="M15.822 16.838l-4.49.049.014-4.94h4.486l-.01 4.89z" fill="url(#paint8_linear)"/><path opacity=".5" d="M33.047 14.282l-15.787.097.005-2.438 15.783-.015v2.356h-.001z" fill="#fff"/><path style="mix-blend-mode:multiply" opacity=".6" d="M15.8 26.709l-4.495.148.014-4.95 4.492-.099-.011 4.9z" fill="url(#paint9_linear)"/><path opacity=".5" d="M33.044 23.788l-15.804.432.005-2.444 15.8-.349-.001 2.36z" fill="#fff"/><path style="mix-blend-mode:multiply" opacity=".6" d="M15.778 36.602l-4.5.247.014-4.96 4.497-.199-.011 4.91v.002z" fill="url(#paint10_linear)"/><path opacity=".5" d="M33.04 33.313l-15.82.768.005-2.449 15.817-.685-.001 2.365z" fill="#fff"/><defs><linearGradient id="paint0_linear" x1="2.176" y1="10.436" x2="35.721" y2="47.131" gradientUnits="userSpaceOnUse"><stop stop-color="#26264F"/><stop offset="1" stop-color="#444B8C"/></linearGradient><linearGradient id="paint1_linear" x1="1.743" y1="28.32" x2="43.564" y2="27.163" gradientUnits="userSpaceOnUse"><stop stop-color="#444B8C"/><stop offset="1" stop-color="#26264F"/></linearGradient><linearGradient id="paint2_linear" x1="306524" y1="-48213" x2="261734" y2="-99688.5" gradientUnits="userSpaceOnUse"><stop stop-color="#5EE5AE"/><stop offset="1" stop-color="#26264F"/></linearGradient><linearGradient id="paint3_linear" x1="14418.4" y1="4828.1" x2="14407.5" y2="5248.76" gradientUnits="userSpaceOnUse"><stop stop-color="#444B8C"/><stop offset="1" stop-color="#26264F"/></linearGradient><linearGradient id="paint4_linear" x1="20.413" y1="3.008" x2="20.807" y2="3.44" gradientUnits="userSpaceOnUse"><stop stop-color="#FF9085"/><stop offset="1" stop-color="#FB6FBB"/></linearGradient><linearGradient id="paint5_linear" x1="13.797" y1="63.054" x2="26.647" y2="-17.9" gradientUnits="userSpaceOnUse"><stop stop-color="#38A59D"/><stop offset="1" stop-color="#1DBBBA"/></linearGradient><linearGradient id="paint6_linear" x1="-2917.26" y1="259551" x2="106751" y2="106710" gradientUnits="userSpaceOnUse"><stop stop-color="#5EE5AE"/><stop offset="1" stop-color="#1DBBBA"/></linearGradient><linearGradient id="paint7_linear" x1="15177.8" y1="3265.1" x2="24585.4" y2="3265.1" gradientUnits="userSpaceOnUse"><stop stop-color="#FF9085"/><stop offset="1" stop-color="#FB6FBB"/></linearGradient><linearGradient id="paint8_linear" x1="5739.47" y1="6300.88" x2="6712.27" y2="6300.88" gradientUnits="userSpaceOnUse"><stop stop-color="#FF9085"/><stop offset="1" stop-color="#FB6FBB"/></linearGradient><linearGradient id="paint9_linear" x1="5740.2" y1="8837.64" x2="6715.26" y2="8837.64" gradientUnits="userSpaceOnUse"><stop stop-color="#FF9085"/><stop offset="1" stop-color="#FB6FBB"/></linearGradient><linearGradient id="paint10_linear" x1="5740.93" y1="11485.8" x2="6718.24" y2="11485.8" gradientUnits="userSpaceOnUse"><stop stop-color="#FF9085"/><stop offset="1" stop-color="#FB6FBB"/></linearGradient></defs></svg>