<svg width="39" height="55" fill="none" xmlns="http://www.w3.org/2000/svg"><path d="M37.789 51.026c0 1.024-.722 1.9-1.612 1.953L1.852 54.997C.832 55.057 0 54.21 0 53.107v-49.6c0-1.101.832-1.964 1.853-1.922l34.323 1.401c.89.037 1.612.9 1.612 1.925v46.115z" fill="url(#paint0_linear)"/><path d="M38.796 51.026c0 1.024-.721 1.9-1.611 1.953L2.86 54.997c-1.02.06-1.852-.787-1.852-1.89v-49.6c0-1.101.832-1.964 1.852-1.922l34.325 1.401c.89.037 1.611.9 1.611 1.925v46.115z" fill="url(#paint1_linear)"/><path d="M1.872 3.54v49.52c0 .59.443 1.041.988 1.01l27.147-1.549 7.178-.41c.476-.027.863-.494.863-1.043V4.882c0-.55-.387-1.01-.863-1.027l-7.437-.291L2.86 2.512c-.546-.021-.988.44-.988 1.028z" fill="url(#paint2_linear)"/><path d="M37.573 48.932a.394.394 0 01-.363.389L2.83 51.09a.382.382 0 01-.414-.375V3.54c0-.218.186-.389.414-.38L37.21 4.462a.38.38 0 01.362.385v44.085h.002z" fill="#fff"/><path d="M24.057 52.002l-6.981.386c-.373.022-.676-.24-.676-.581v-.027c0-.342.303-.636.677-.655l6.98-.37c.363-.02.656.239.656.576v.025c0 .336-.294.626-.655.646h-.001z" fill="url(#paint3_linear)"/><path d="M20.948 3.22c0 .181-.16.323-.358.315-.198-.008-.358-.161-.358-.344 0-.183.16-.324.358-.316.198.008.358.162.358.344z" fill="url(#paint4_linear)"/><g style="mix-blend-mode:screen" opacity=".3"><path d="M29.712 47.78c-.14-3.022 3.195-4.795 2.876-9.058-.03-.385-.328-3.685-2.964-5.92-2.367-2.01-4.357-1.253-8.738-2.855-3.07-1.123-6.523-2.385-7.92-4.917-2.772-5.029 5.15-10.052 3.529-16.563-.464-1.865-1.777-4.151-5.242-6.54L2.86 1.585c-1.02-.042-1.852.82-1.852 1.922v49.6c0 1.103.832 1.95 1.852 1.89l31.275-1.839c-3.33-1.94-4.35-3.803-4.423-5.378z" fill="#fff" opacity=".3"/></g><path d="M35.117 47.316L4.23 49.61l.166-47.003 30.722.74v43.969z" fill="url(#paint5_linear)"/><path d="M20.286 9.2L6.3 9.052l.013-3.917 13.98.261-.006 3.803zm-5.882 9.919l-4.49.049.015-4.94h4.486l-.01 4.89zm17.225-2.556l-15.786.097.005-2.439 15.783-.013-.002 2.356v-.001zM14.382 28.99l-4.494.147.013-4.95 4.492-.099-.01 4.902zm17.244-2.923l-15.804.433.006-2.444 15.799-.349v2.36h-.001zM14.36 38.883l-4.5.247.014-4.96 4.497-.199-.011 4.912zm17.263-3.29l-15.821.77.005-2.45 15.816-.684v2.365z" fill="#fff"/><g style="mix-blend-mode:soft-light"><path d="M22.784 48.153L4.246 49.531l.158-47.003 11.451.275c-2.239 3.879-4.97 11.629 2.842 18.892 7.942 7.382 11.126 18.666 4.088 26.458h-.001z" fill="#fff" opacity=".3"/></g><path d="M36.186.739v43.97l-12.334.917-18.538 1.378L5.472 0l11.452.275 19.262.464z" fill="url(#paint6_linear)"/><g style="mix-blend-mode:soft-light"><path d="M23.852 45.626L5.315 47.003 5.472 0l11.452.275c-2.24 3.88-4.972 11.63 2.842 18.893 7.94 7.381 11.124 18.665 4.087 26.458z" fill="#fff" opacity=".5"/></g><path style="mix-blend-mode:multiply" opacity=".6" d="M21.39 6.592L7.4 6.446l.013-3.917 13.98.261-.005 3.802z" fill="url(#paint7_linear)"/><path style="mix-blend-mode:multiply" opacity=".6" d="M15.822 16.838l-4.49.049.014-4.94h4.486l-.01 4.89z" fill="url(#paint8_linear)"/><path opacity=".5" d="M33.047 14.282l-15.787.097.005-2.438 15.783-.015v2.356h-.001z" fill="#fff"/><path style="mix-blend-mode:multiply" opacity=".6" d="M15.8 26.709l-4.495.148.014-4.95 4.492-.099-.011 4.9z" fill="url(#paint9_linear)"/><path opacity=".5" d="M33.044 23.788l-15.804.432.005-2.444 15.8-.349-.001 2.36z" fill="#fff"/><path style="mix-blend-mode:multiply" opacity=".6" d="M15.778 36.602l-4.5.247.014-4.96 4.497-.199-.011 4.91v.002z" fill="url(#paint10_linear)"/><path opacity=".5" d="M33.04 33.313l-15.82.768.005-2.449 15.817-.685-.001 2.365z" fill="#fff"/><defs><linearGradient id="paint0_linear" x1="2.176" y1="10.436" x2="35.721" y2="47.131" gradientUnits="userSpaceOnUse"><stop stop-color="#26264F"/><stop offset="1" stop-color="#444B8C"/></linearGradient><linearGradient id="paint1_linear" x1="1.743" y1="28.32" x2="43.564" y2="27.163" gradientUnits="userSpaceOnUse"><stop stop-color="#444B8C"/><stop offset="1" stop-color="#26264F"/></linearGradient><linearGradient id="paint2_linear" x1="306524" y1="-48213" x2="261734" y2="-99688.5" gradientUnits="userSpaceOnUse"><stop stop-color="#5EE5AE"/><stop offset="1" stop-color="#26264F"/></linearGradient><linearGradient id="paint3_linear" x1="14418.4" y1="4828.1" x2="14407.5" y2="5248.76" gradientUnits="userSpaceOnUse"><stop stop-color="#444B8C"/><stop offset="1" stop-color="#26264F"/></linearGradient><linearGradient id="paint4_linear" x1="20.413" y1="3.008" x2="20.807" y2="3.44" gradientUnits="userSpaceOnUse"><stop stop-color="#FF9085"/><stop offset="1" stop-color="#FB6FBB"/></linearGradient><linearGradient id="paint5_linear" x1="13.797" y1="63.054" x2="26.647" y2="-17.9" gradientUnits="userSpaceOnUse"><stop stop-color="#38A59D"/><stop offset="1" stop-color="#1DBBBA"/></linearGradient><linearGradient id="paint6_linear" x1="-2917.26" y1="259551" x2="106751" y2="106710" gradientUnits="userSpaceOnUse"><stop stop-color="#5EE5AE"/><stop offset="1" stop-color="#1DBBBA"/></linearGradient><linearGradient id="paint7_linear" x1="15177.8" y1="3265.1" x2="24585.4" y2="3265.1" gradientUnits="userSpaceOnUse"><stop stop-color="#FF9085"/><stop offset="1" stop-color="#FB6FBB"/></linearGradient><linearGradient id="paint8_linear" x1="5739.47" y1="6300.88" x2="6712.27" y2="6300.88" gradientUnits="userSpaceOnUse"><stop stop-color="#FF9085"/><stop offset="1" stop-color="#FB6FBB"/></linearGradient><linearGradient id="paint9_linear" x1="5740.2" y1="8837.64" x2="6715.26" y2="8837.64" gradientUnits="userSpaceOnUse"><stop stop-color="#FF9085"/><stop offset="1" stop-color="#FB6FBB"/></linearGradient><linearGradient id="paint10_linear" x1="5740.93" y1="11485.8" x2="6718.24" y2="11485.8" gradientUnits="userSpaceOnUse"><stop stop-color="#FF9085"/><stop offset="1" stop-color="#FB6FBB"/></linearGradient></defs></svg>