<svg width="91" height="36" fill="none" xmlns="http://www.w3.org/2000/svg"><path d="M15.405.192L9.76 7.695H6.91V.192H2.678L.973 3.37h2.556v15.78H6.91v-8.517H9.76l5.938 8.517h3.861l-6.897-9.986L19.24.192h-3.834zm3.115 12.123c0 1.513.347 2.821 1.039 3.925a6.754 6.754 0 002.69 2.456c1.118.552 2.334.828 3.648.828 1.295 0 2.494-.276 3.594-.828a6.436 6.436 0 002.716-2.483c.675-1.104 1.012-2.403 1.012-3.898 0-1.513-.337-2.813-1.012-3.899a6.474 6.474 0 00-2.662-2.376c-1.101-.534-2.317-.801-3.649-.801a8.652 8.652 0 00-3.62.774 6.432 6.432 0 00-2.744 2.457c-.674 1.068-1.012 2.35-1.012 3.845zM79.207 23.93v-6.302c.213.356.488.659.825.908.426.303.897.534 1.412.694.532.16 1.322.24 2.37.24.568 0 1.154-.08 1.757-.24a4.958 4.958 0 001.598-.667c.941-.588 1.669-1.415 2.183-2.483.533-1.086.8-2.332.8-3.739 0-1.388-.258-2.625-.773-3.711-.532-1.068-1.278-1.887-2.236-2.457-.942-.587-2.051-.88-3.33-.88-1.278 0-2.298.204-3.061.613a4.711 4.711 0 00-1.785 1.602V5.666h-3.009V23.93h3.249zm-41.034-4.78v-5.687h5.512v5.687h3.196V5.666h-3.196v5.127h-5.512V5.666H34.95V19.15h3.222zM52.818 8.23v10.92h3.275V8.23h4.58V5.665H48.29V8.23h4.527zm14.006 11.4a3.84 3.84 0 01-.426.855c-.16.25-.435.454-.826.614-.372.178-.852.267-1.437.267a6.69 6.69 0 01-1.252-.106l1.092 2.563c.089.018.39.027.905.027 1.03 0 1.846-.17 2.45-.508a3.83 3.83 0 001.385-1.335c.372-.552.772-1.415 1.198-2.59l4.953-13.75h-3.249c-1.19 3.4-2.255 6.674-3.195 9.825a200.898 200.898 0 00-3.302-9.826H61.71l5.113 13.965zm-45.028-7.342c0-1.46.355-2.554 1.065-3.284s1.695-1.095 2.956-1.095c1.278 0 2.272.365 2.982 1.095.728.73 1.092 1.824 1.092 3.284 0 1.495-.364 2.626-1.092 3.391-.728.766-1.722 1.148-2.982 1.148-1.243 0-2.228-.383-2.956-1.148-.71-.765-1.065-1.896-1.065-3.391zm57.33.027c.036-1.3.382-2.35 1.039-3.151.656-.801 1.615-1.202 2.875-1.202 1.261 0 2.21.41 2.85 1.229.656.8.994 1.842 1.012 3.124-.018 1.3-.356 2.358-1.013 3.177-.638.819-1.588 1.228-2.849 1.228-1.26 0-2.219-.409-2.875-1.228-.657-.819-1.003-1.878-1.039-3.177zM8.427 31.294c.016-1.7-1.077-3.014-2.764-2.99-1.696 0-2.773 1.274-2.773 2.99 0 1.717 1.077 2.99 2.773 2.99 1.687.024 2.78-1.29 2.764-2.99zm-4.564 0c0-1.281.723-2.151 1.8-2.151 1.085 0 1.792.87 1.792 2.151 0 1.281-.707 2.152-1.792 2.152-1.077 0-1.8-.87-1.8-2.152zM11.285 28.434v1.555c-.683.024-1.23.225-1.655.596-.418.363-.627.878-.627 1.547 0 .67.21 1.185.627 1.556.426.362.972.564 1.655.588v1.33h.852v-1.33c1.326-.049 2.282-.79 2.282-2.144 0-1.353-.956-2.095-2.282-2.143v-1.555h-.852zm.024 5.125c-.875-.025-1.406-.524-1.406-1.427 0-.902.53-1.402 1.406-1.426v2.853zm.804-2.853c.876.024 1.407.524 1.407 1.426 0 .903-.531 1.402-1.407 1.427v-2.853zM17.917 30.11l-1.11 1.78c-.192.315-.465.774-.81 1.386a48.03 48.03 0 00.023-1.603V30.11h-.82v4.045h.965l1.101-1.789c.25-.411.522-.878.82-1.386a30.97 30.97 0 00-.032 1.692v1.483h.827V30.11h-.964zM23.124 35.162h.86v-1.724h-.587V30.11h-.884v3.328h-1.72V30.11h-.884v4.045h3.215v1.007zM27.405 30.11l-1.11 1.78c-.192.315-.465.774-.81 1.386.015-.475.023-1.015.023-1.603V30.11h-.82v4.045h.965l1.101-1.789c.25-.411.522-.878.82-1.386a30.95 30.95 0 00-.033 1.692v1.483h.828V30.11h-.964zM32.789 31.391c0-.862-.611-1.41-1.704-1.41-.747 0-1.318.282-1.824.886l.554.516c.482-.484.788-.669 1.294-.669.514 0 .836.25.836.693v.145l-.924.17c-.57.104-1.013.265-1.334.475-.314.201-.474.515-.474.943 0 .773.61 1.144 1.446 1.144.61 0 1.077-.21 1.334-.588v.459h.796V31.39zm-.844 1.176c0 .645-.506 1.008-1.157 1.008-.442 0-.707-.186-.707-.484 0-.419.361-.58 1.165-.75l.699-.144v.37zM33.336 34.147c.169.04.354.056.538.056.98-.04 1.174-.548 1.198-2.208l.016-1.168h1.446v3.328h.884V30.11h-3.134l-.016 1.87c-.024 1.256-.072 1.45-.546 1.482-.04 0-.145-.008-.306-.032l-.08.717zM38.438 34.155h1.945c.932 0 1.55-.524 1.55-1.386 0-.862-.618-1.386-1.55-1.386h-1.06V30.11h-.885v4.045zm.884-.725v-1.322h.94c.515 0 .772.218.772.66 0 .444-.257.662-.772.662h-.94zM46.188 34.155V30.11h-.884v1.58h-1.736v-1.58h-.884v4.045h.884v-1.74h1.736v1.74h.883zM47.22 34.155h1.944c.933 0 1.552-.524 1.552-1.386 0-.862-.62-1.386-1.552-1.386h-1.06V30.11h-.884v4.045zm.884-.725v-1.322h.94c.514 0 .772.218.772.66 0 .444-.258.662-.772.662h-.94zm3.97-3.32h-.884v4.045h.884V30.11zM56.778 30.11v4.045h-.827v-1.483c0-.725.008-1.29.032-1.692-.297.508-.57.975-.82 1.386l-1.1 1.789h-.965V30.11h.82v1.563c0 .588-.008 1.128-.025 1.604.346-.613.62-1.072.812-1.386l1.11-1.781h.963zm-.482-1.612h-.715c0 .379-.225.58-.643.58-.418 0-.643-.201-.643-.58h-.723c0 .766.53 1.128 1.366 1.128.828 0 1.358-.362 1.358-1.128zM59.596 34.155h.884v-3.328h1.687v3.328h.884V30.11h-3.455v4.045zM67.468 31.391c0-.862-.61-1.41-1.704-1.41-.747 0-1.317.282-1.824.886l.555.516c.482-.484.787-.669 1.294-.669.514 0 .835.25.835.693v.145l-.924.17c-.57.104-1.012.265-1.334.475-.313.201-.474.515-.474.943 0 .773.61 1.144 1.447 1.144.61 0 1.076-.21 1.334-.588v.459h.795V31.39zm-.844 1.176c0 .645-.506 1.008-1.157 1.008-.442 0-.707-.186-.707-.484 0-.419.362-.58 1.165-.75l.7-.144v.37zM72.393 32.124c0-1.273-.747-2.127-1.784-2.127-.594 0-1.036.226-1.334.685v-.572h-.82v5.495h.885v-1.917c.289.378.707.572 1.261.572 1.029 0 1.792-.846 1.792-2.136zm-.9 0c0 .83-.426 1.37-1.069 1.37-.65 0-1.125-.524-1.125-1.37 0-.838.458-1.37 1.125-1.37.651 0 1.07.54 1.07 1.37zM76.246 30.827v-.717h-3.56v.717h1.334v3.328h.883v-3.328h1.343zM80.427 34.155V30.11h-.884v1.58h-1.735v-1.58h-.884v4.045h.884v-1.74h1.735v1.74h.884zM84.554 32.922c-.507.451-.78.604-1.254.604-.739 0-1.15-.483-1.214-1.192h2.958c.008-.105.016-.226.016-.363 0-1.233-.667-1.99-1.857-1.99-1.213 0-1.984.91-1.984 2.175 0 1.282.788 2.12 2.065 2.12.675 0 1.205-.226 1.784-.814l-.514-.54zm-2.443-1.233c.12-.637.49-1.007 1.069-1.007.61 0 .98.387 1.012 1.007h-2.08zM89.792 32.124c0-1.273-.747-2.127-1.785-2.127-.594 0-1.036.226-1.333.685v-.572h-.82v5.495h.884v-1.917c.29.378.708.572 1.262.572 1.029 0 1.792-.846 1.792-2.136zm-.9 0c0 .83-.426 1.37-1.069 1.37-.65 0-1.125-.524-1.125-1.37 0-.838.458-1.37 1.125-1.37.652 0 1.069.54 1.069 1.37z" fill="#fff"/></svg>