<svg height="449pt" viewBox="-12 0 449 449.912" width="449pt" xmlns="http://www.w3.org/2000/svg"><path d="M392.906 30.07a7.998 7.998 0 01-5.922-7.3l-.375-7.204a8 8 0 00-14.695-3.894L368 17.703a7.992 7.992 0 01-8.797 3.367l-6.937-1.863a7.998 7.998 0 00-8.825 3.371 7.996 7.996 0 00.536 9.43l4.52 5.601a7.928 7.928 0 011.335 7.489l46.035-14.227zm0 0" fill="#ffe165"/><path d="M399.848 31.922l-4-1.074-46.016 14.16a7.849 7.849 0 01-.797 1.906l-3.914 6.023a8.007 8.007 0 00.492 9.41 8.006 8.006 0 009.11 2.415l6.703-2.578a7.998 7.998 0 019.086 2.402l4.523 5.598a7.993 7.993 0 009.082 2.437 8.006 8.006 0 005.125-7.887l-.375-7.199a7.994 7.994 0 015.117-7.887l6.707-2.578a7.999 7.999 0 00-.844-15.148zm0 0" fill="#ffd839"/><path d="M133.594 40.23a7.998 7.998 0 00-8.29-12.797l-34.19 9.192a7.75 7.75 0 01-3.2.11l-45.57 85.335-.43 8.38a7.997 7.997 0 005.121 7.89 7.995 7.995 0 009.086-2.438l22.274-27.511a8.004 8.004 0 019.085-2.399l33.051 12.68a7.998 7.998 0 009.598-11.824l-19.336-29.72a8.008 8.008 0 01.488-9.394zm0 0" fill="#ff9811"/><path d="M82.328 33.273L63.051 3.586A7.998 7.998 0 0054.309.273a7.994 7.994 0 00-5.914 7.239l-1.891 35.36a7.996 7.996 0 01-5.918 7.312L6.395 59.328a7.998 7.998 0 00-5.926 7.309 7.994 7.994 0 005.125 7.89l33.047 12.68a8.002 8.002 0 015.12 7.89l-1.417 26.973 45.539-85.336a7.944 7.944 0 01-5.555-3.46zm0 0" fill="#ffaf46"/><path d="M283.7 171.887l-59.052-90.918a15.998 15.998 0 00-29.398 7.879l-5.672 108.265a15.999 15.999 0 01-11.832 14.614L73.027 239.785a16 16 0 00-11.855 14.617 16.003 16.003 0 0010.254 15.782L172.64 309.03a16.003 16.003 0 0110.25 15.778l-5.059 96.382 112.84-243.488a15.744 15.744 0 01-6.973-5.816zm0 0" fill="#ffd839"/><path d="M422.555 176.098c4.351-5.387 4.746-12.961.976-18.77s-10.847-8.535-17.539-6.75l-104.734 28.055c-3.531.918-7.27.59-10.586-.93l-112.84 243.488-.637 11.88a15.996 15.996 0 0028.414 10.906l68.223-84.25A16.008 16.008 0 01292 354.855l101.219 38.856a15.994 15.994 0 0018.18-4.848 16.01 16.01 0 00.996-18.793l-59.06-90.933a16.01 16.01 0 01.985-18.785zm0 0" fill="#ffcd00"/></svg>