<svg width="535" height="427" viewBox="0 0 535 427" fill="none" xmlns="http://www.w3.org/2000/svg">
<path d="M9.78852 332.072C9.65453 332.072 9.53171 331.982 9.49486 331.846C9.45131 331.684 9.54734 331.517 9.71036 331.473L318.979 248.618C319.14 248.574 319.308 248.671 319.352 248.833C319.395 248.995 319.299 249.163 319.136 249.206L9.86779 332.062C9.841 332.068 9.81532 332.072 9.78852 332.072Z" fill="#62818E"/>
<path d="M9.78835 332.072C9.69567 332.072 9.60299 332.029 9.54382 331.949C9.44444 331.814 9.47236 331.623 9.60746 331.523L273.557 136.009C273.692 135.909 273.882 135.938 273.983 136.073C274.083 136.208 274.054 136.399 273.919 136.498L9.96923 332.012C9.91452 332.053 9.85087 332.072 9.78835 332.072Z" fill="#62818E"/>
<path d="M319.055 249.215C318.935 249.215 318.821 249.143 318.773 249.024L273.456 136.367C273.393 136.21 273.469 136.034 273.624 135.971C273.779 135.909 273.957 135.984 274.019 136.14L319.337 248.798C319.399 248.954 319.323 249.13 319.168 249.193C319.131 249.207 319.092 249.215 319.055 249.215Z" fill="#62818E"/>
<path d="M165.727 324.611C165.614 324.611 165.507 324.548 165.453 324.441C165.379 324.29 165.441 324.108 165.591 324.033L318.918 248.639C319.069 248.564 319.251 248.627 319.326 248.778C319.399 248.928 319.338 249.11 319.187 249.185L165.859 324.579C165.818 324.6 165.772 324.611 165.727 324.611Z" fill="#62818E"/>
<path d="M9.78842 332.071C9.62652 332.071 9.49253 331.945 9.48471 331.782C9.47689 331.615 9.60642 331.472 9.7739 331.464L165.716 324.003C165.885 323.991 166.026 324.124 166.034 324.292C166.042 324.459 165.912 324.602 165.745 324.61L9.80293 332.071C9.79847 332.071 9.794 332.071 9.78842 332.071Z" fill="#62818E"/>
<path d="M319.062 249.217C318.902 249.217 318.768 249.092 318.758 248.932C318.748 248.764 318.877 248.62 319.044 248.61L471.962 239.606C472.129 239.595 472.274 239.725 472.284 239.892C472.294 240.06 472.165 240.204 471.998 240.214L319.08 249.217C319.074 249.217 319.069 249.217 319.062 249.217Z" fill="#62818E"/>
<path d="M471.974 240.211C471.926 240.211 471.878 240.2 471.833 240.177L273.597 136.522C273.448 136.443 273.39 136.26 273.468 136.111C273.547 135.962 273.73 135.904 273.879 135.982L472.114 239.636C472.263 239.714 472.321 239.897 472.243 240.047C472.189 240.152 472.083 240.211 471.974 240.211Z" fill="#62818E"/>
<path d="M389.904 277.582C389.866 277.582 389.828 277.576 389.791 277.56L318.949 249.194C318.793 249.131 318.718 248.954 318.779 248.799C318.842 248.642 319.019 248.567 319.175 248.629L390.017 276.995C390.173 277.057 390.248 277.235 390.186 277.39C390.138 277.51 390.024 277.582 389.904 277.582Z" fill="#62818E"/>
<path d="M389.902 277.582C389.786 277.582 389.676 277.517 389.625 277.404C389.556 277.251 389.623 277.071 389.776 277.001L471.852 239.631C472.005 239.562 472.184 239.629 472.255 239.782C472.324 239.935 472.257 240.114 472.104 240.185L390.028 277.555C389.987 277.574 389.944 277.582 389.902 277.582Z" fill="#62818E"/>
<path d="M207.968 354.853C207.887 354.853 207.807 354.821 207.748 354.758C207.632 354.636 207.637 354.444 207.759 354.328L318.848 248.691C318.97 248.575 319.162 248.581 319.278 248.702C319.394 248.824 319.388 249.016 319.267 249.132L208.178 354.769C208.118 354.825 208.044 354.853 207.968 354.853Z" fill="#62818E"/>
<path d="M207.967 354.853C207.906 354.853 207.844 354.834 207.791 354.796L165.553 324.553C165.417 324.455 165.384 324.265 165.483 324.129C165.581 323.993 165.771 323.961 165.907 324.058L208.145 354.301C208.281 354.399 208.313 354.589 208.215 354.725C208.155 354.808 208.062 354.853 207.967 354.853Z" fill="#62818E"/>
<path d="M316.621 296.017C316.615 296.017 316.609 296.017 316.605 296.017C316.437 296.008 316.308 295.865 316.317 295.698L318.758 248.897C318.767 248.729 318.911 248.594 319.077 248.608C319.244 248.617 319.374 248.76 319.365 248.928L316.924 295.729C316.916 295.891 316.781 296.017 316.621 296.017Z" fill="#62818E"/>
<path d="M207.969 354.852C207.861 354.852 207.757 354.794 207.701 354.692C207.62 354.545 207.676 354.36 207.824 354.28L316.472 295.445C316.619 295.365 316.805 295.42 316.884 295.568C316.964 295.715 316.908 295.901 316.761 295.98L208.113 354.815C208.068 354.84 208.018 354.852 207.969 354.852Z" fill="#62818E"/>
<path d="M316.621 296.017C316.484 296.017 316.36 295.925 316.326 295.787C316.284 295.624 316.384 295.459 316.547 295.417L389.831 276.982C389.994 276.941 390.159 277.04 390.2 277.203C390.242 277.366 390.142 277.532 389.979 277.573L316.695 296.008C316.67 296.015 316.645 296.017 316.621 296.017Z" fill="#62818E"/>
<path d="M129.566 365.473C129.416 365.473 129.286 365.362 129.264 365.209C129.242 365.043 129.358 364.89 129.525 364.868L207.924 354.248C208.09 354.222 208.243 354.341 208.265 354.508C208.288 354.674 208.172 354.827 208.005 354.85L129.606 365.47C129.593 365.472 129.579 365.473 129.566 365.473Z" fill="#62818E"/>
<path d="M129.569 365.471C129.498 365.471 129.425 365.446 129.368 365.396C129.242 365.284 129.231 365.092 129.343 364.967L165.504 324.104C165.615 323.979 165.808 323.967 165.933 324.078C166.059 324.19 166.07 324.382 165.958 324.507L129.797 365.37C129.737 365.437 129.654 365.471 129.569 365.471Z" fill="#62818E"/>
<path d="M116.871 157.992C116.721 157.992 116.59 157.881 116.569 157.729C116.547 157.563 116.663 157.41 116.829 157.386L273.699 135.952C273.866 135.93 274.018 136.046 274.042 136.212C274.064 136.379 273.948 136.532 273.781 136.555L116.912 157.989C116.899 157.99 116.885 157.992 116.871 157.992Z" fill="#62818E"/>
<path d="M9.78758 332.07C9.73287 332.07 9.67815 332.055 9.62902 332.025C9.4861 331.937 9.44144 331.75 9.52965 331.606L116.61 157.528C116.698 157.385 116.885 157.34 117.029 157.428C117.172 157.516 117.216 157.704 117.128 157.847L10.0466 331.924C9.98968 332.018 9.8903 332.07 9.78758 332.07Z" fill="#62818E"/>
<path d="M273.74 136.559C273.663 136.559 273.585 136.53 273.525 136.471L212.797 76.3055C212.678 76.1871 212.677 75.995 212.795 75.8755C212.913 75.756 213.106 75.7549 213.225 75.8733L273.953 136.039C274.073 136.157 274.074 136.349 273.955 136.469C273.896 136.529 273.818 136.559 273.74 136.559Z" fill="#62818E"/>
<path d="M116.871 157.993C116.785 157.993 116.699 157.956 116.638 157.886C116.53 157.757 116.546 157.565 116.673 157.457L212.814 75.8572C212.943 75.7489 213.135 75.7645 213.243 75.8919C213.351 76.0203 213.336 76.2124 213.209 76.3208L117.067 157.921C117.01 157.97 116.94 157.993 116.871 157.993Z" fill="#62818E"/>
<path d="M510.511 151.31C510.505 151.31 510.498 151.31 510.492 151.309L273.719 136.556C273.551 136.546 273.424 136.4 273.434 136.233C273.444 136.064 273.595 135.937 273.757 135.948L510.53 150.702C510.698 150.712 510.825 150.857 510.815 151.025C510.805 151.186 510.671 151.31 510.511 151.31Z" fill="#62818E"/>
<path d="M510.514 151.311C510.489 151.311 510.465 151.308 510.439 151.302L212.937 76.3831C212.774 76.3417 212.676 76.1764 212.716 76.0134C212.757 75.8503 212.921 75.752 213.086 75.7922L510.587 150.711C510.75 150.753 510.849 150.918 510.808 151.081C510.774 151.22 510.65 151.311 510.514 151.311Z" fill="#62818E"/>
<path d="M510.516 151.31C510.472 151.31 510.429 151.301 510.388 151.281L405.894 102.449C405.742 102.378 405.677 102.197 405.747 102.045C405.818 101.893 405.999 101.827 406.151 101.897L510.644 150.729C510.796 150.801 510.862 150.982 510.792 151.134C510.739 151.245 510.63 151.31 510.516 151.31Z" fill="#62818E"/>
<path d="M406.02 102.481C406.007 102.481 405.993 102.48 405.979 102.479L212.97 76.3904C212.804 76.3681 212.687 76.2151 212.71 76.0486C212.732 75.8822 212.886 75.7638 213.052 75.7884L406.06 101.876C406.227 101.898 406.344 102.051 406.32 102.218C406.3 102.37 406.17 102.481 406.02 102.481Z" fill="#62818E"/>
<path d="M9.78845 332.07C9.75049 332.07 9.71141 332.063 9.67345 332.048C9.51824 331.984 9.44343 331.806 9.50708 331.651L52.5811 226.445C52.6447 226.289 52.8223 226.216 52.9775 226.278C53.1327 226.342 53.2075 226.519 53.1438 226.675L10.0698 331.881C10.0218 331.998 9.90904 332.07 9.78845 332.07Z" fill="#62818E"/>
<path d="M52.8658 226.864C52.7922 226.864 52.7173 226.838 52.6593 226.783C52.5365 226.669 52.5298 226.476 52.6436 226.353L116.651 157.48C116.765 157.357 116.958 157.35 117.081 157.464C117.204 157.578 117.211 157.771 117.097 157.894L53.0892 226.767C53.0289 226.831 52.9474 226.864 52.8658 226.864Z" fill="#62818E"/>
<path d="M471.975 240.21C471.935 240.21 471.894 240.202 471.855 240.186C471.701 240.119 471.63 239.94 471.697 239.785L510.235 150.883C510.302 150.729 510.48 150.657 510.634 150.725C510.788 150.792 510.859 150.971 510.793 151.125L472.256 240.026C472.205 240.142 472.094 240.21 471.975 240.21Z" fill="#62818E"/>
<path d="M518.952 215.786C518.801 215.786 518.67 215.675 518.65 215.521L510.213 151.047C510.192 150.88 510.309 150.727 510.476 150.706C510.641 150.683 510.795 150.801 510.816 150.969L519.253 215.443C519.276 215.61 519.157 215.763 518.991 215.784C518.977 215.785 518.964 215.786 518.952 215.786Z" fill="#62818E"/>
<path d="M471.976 240.213C471.867 240.213 471.761 240.153 471.706 240.049C471.629 239.9 471.687 239.716 471.835 239.639L518.811 215.212C518.959 215.134 519.144 215.193 519.221 215.342C519.298 215.49 519.24 215.675 519.091 215.752L472.116 240.177C472.071 240.202 472.023 240.213 471.976 240.213Z" fill="#62818E"/>
<path d="M470.663 264.261C470.658 264.261 470.652 264.261 470.647 264.261C470.479 264.252 470.351 264.108 470.36 263.941L471.673 239.892C471.682 239.724 471.82 239.591 471.993 239.604C472.161 239.613 472.289 239.757 472.28 239.925L470.967 263.974C470.958 264.135 470.823 264.261 470.663 264.261Z" fill="#62818E"/>
<path d="M389.901 277.582C389.755 277.582 389.626 277.475 389.602 277.327C389.575 277.16 389.686 277.004 389.852 276.977L470.615 263.657C470.781 263.629 470.937 263.741 470.964 263.907C470.991 264.073 470.879 264.23 470.713 264.256L389.95 277.577C389.934 277.58 389.918 277.582 389.901 277.582Z" fill="#62818E"/>
<path d="M470.663 264.262C470.586 264.262 470.508 264.232 470.449 264.174C470.33 264.056 470.33 263.862 470.448 263.744L518.735 215.269C518.854 215.15 519.046 215.15 519.165 215.268C519.285 215.387 519.285 215.58 519.166 215.698L470.879 264.173C470.819 264.232 470.741 264.262 470.663 264.262Z" fill="#62818E"/>
<path d="M406.015 102.482C405.86 102.482 405.728 102.363 405.713 102.207L403.271 76.6499C403.255 76.4823 403.377 76.3338 403.544 76.3181C403.709 76.3002 403.86 76.4242 403.876 76.5918L406.318 102.149C406.334 102.316 406.212 102.465 406.044 102.48C406.035 102.48 406.025 102.482 406.015 102.482Z" fill="#62818E"/>
<path d="M510.508 151.312C510.448 151.312 510.388 151.295 510.335 151.258L403.4 76.8701C403.263 76.7741 403.228 76.5842 403.324 76.4468C403.42 76.3094 403.61 76.2748 403.747 76.3708L510.682 150.76C510.82 150.856 510.854 151.046 510.758 151.183C510.699 151.268 510.604 151.312 510.508 151.312Z" fill="#62818E"/>
<path d="M518.948 215.787C518.927 215.787 518.906 215.784 518.885 215.78C518.721 215.745 518.616 215.583 518.652 215.419L526.394 179.162C526.43 178.998 526.593 178.894 526.754 178.929C526.919 178.963 527.024 179.125 526.988 179.289L519.244 215.547C519.215 215.688 519.089 215.787 518.948 215.787Z" fill="#62818E"/>
<path d="M526.695 179.526C526.59 179.526 526.488 179.471 526.432 179.373L510.251 151.155C510.168 151.009 510.218 150.824 510.364 150.74C510.509 150.656 510.696 150.706 510.78 150.853L526.96 179.07C527.044 179.216 526.993 179.402 526.847 179.486C526.798 179.513 526.747 179.526 526.695 179.526Z" fill="#62818E"/>
<path d="M116.875 157.992C116.845 157.992 116.816 157.987 116.787 157.978C116.627 157.93 116.535 157.761 116.583 157.6L131.746 107.051C131.794 106.89 131.964 106.799 132.125 106.847C132.285 106.895 132.377 107.065 132.329 107.225L117.166 157.774C117.126 157.907 117.005 157.992 116.875 157.992Z" fill="#62818E"/>
<path d="M132.034 107.445C131.912 107.445 131.797 107.37 131.751 107.25C131.691 107.093 131.769 106.917 131.926 106.857L212.903 75.8055C213.061 75.7452 213.236 75.8234 213.296 75.9809C213.357 76.1372 213.278 76.3137 213.121 76.374L132.144 107.425C132.108 107.439 132.071 107.445 132.034 107.445Z" fill="#62818E"/>
<path d="M52.866 226.867C52.808 226.867 52.7499 226.85 52.6985 226.816C52.559 226.724 52.5199 226.535 52.6137 226.394L131.784 106.972C131.877 106.832 132.066 106.794 132.206 106.887C132.346 106.98 132.385 107.169 132.291 107.31L53.1195 226.73C53.0614 226.819 52.9643 226.867 52.866 226.867Z" fill="#62818E"/>
<path d="M213.012 76.3927C213.011 76.3927 213.011 76.3927 213.01 76.3927C212.842 76.3915 212.706 76.2541 212.707 76.0866L212.799 61.3183C212.8 61.1508 212.927 61.0167 213.105 61.0156C213.272 61.0167 213.408 61.1541 213.407 61.3217L213.316 76.09C213.316 76.2575 213.179 76.3927 213.012 76.3927Z" fill="#62818E"/>
<path d="M132.035 107.443C131.928 107.443 131.826 107.387 131.77 107.289C131.687 107.143 131.739 106.957 131.885 106.875L212.955 61.0551C213.101 60.9724 213.286 61.0238 213.369 61.1701C213.452 61.3164 213.4 61.5019 213.254 61.5845L132.184 107.404C132.137 107.43 132.086 107.443 132.035 107.443Z" fill="#62818E"/>
<path d="M327.289 315.62C327.186 315.62 327.085 315.569 327.028 315.474C326.941 315.33 326.987 315.143 327.131 315.056L389.749 277.017C389.892 276.93 390.079 276.975 390.166 277.119C390.253 277.263 390.208 277.449 390.063 277.536L327.446 315.575C327.397 315.607 327.342 315.62 327.289 315.62Z" fill="#62818E"/>
<path d="M327.287 315.62C327.18 315.62 327.075 315.563 327.02 315.462L316.353 295.858C316.273 295.711 316.328 295.525 316.475 295.445C316.623 295.365 316.808 295.419 316.887 295.567L327.554 315.17C327.634 315.318 327.58 315.503 327.432 315.583C327.386 315.609 327.336 315.62 327.287 315.62Z" fill="#62818E"/>
<path d="M207.969 354.852C207.841 354.852 207.722 354.771 207.679 354.643C207.627 354.484 207.714 354.312 207.874 354.259L327.188 315.029C327.349 314.977 327.52 315.063 327.572 315.223C327.625 315.383 327.538 315.555 327.378 315.607L208.063 354.838C208.032 354.847 208 354.852 207.969 354.852Z" fill="#62818E"/>
<path d="M213.011 76.3923C212.878 76.3923 212.755 76.304 212.718 76.17C212.673 76.008 212.768 75.8405 212.929 75.7958L351.645 37.1751C351.808 37.1304 351.975 37.2254 352.019 37.3862C352.064 37.5482 351.969 37.7157 351.808 37.7615L213.093 76.3811C213.065 76.3878 213.039 76.3923 213.011 76.3923Z" fill="#62818E"/>
<path d="M313.975 90.0386C313.914 90.0386 313.851 90.0196 313.798 89.9805C313.661 89.8822 313.631 89.6923 313.73 89.5561L351.483 37.2896C351.581 37.1545 351.772 37.1232 351.907 37.2215C352.044 37.3198 352.074 37.5096 351.976 37.6459L314.222 89.9124C314.163 89.995 314.07 90.0386 313.975 90.0386Z" fill="#62818E"/>
<path d="M213.1 61.6231C212.955 61.6231 212.827 61.5181 212.801 61.3707C212.773 61.2054 212.884 61.0479 213.049 61.0188L351.674 37.1664C351.838 37.1385 351.996 37.2491 352.025 37.4144C352.055 37.5797 351.943 37.7372 351.778 37.7662L213.153 61.6198C213.135 61.622 213.118 61.6231 213.1 61.6231Z" fill="#62818E"/>
<path d="M374.986 70.3191C374.891 70.3191 374.797 70.2744 374.738 70.1917L351.478 37.645C351.381 37.5087 351.412 37.3188 351.549 37.2205C351.685 37.1234 351.875 37.1546 351.973 37.2909L375.232 69.8377C375.329 69.9739 375.298 70.1638 375.162 70.2621C375.108 70.3001 375.046 70.3191 374.986 70.3191Z" fill="#62818E"/>
<path d="M313.98 90.0388C313.851 90.0388 313.732 89.9572 313.691 89.8277C313.639 89.6679 313.726 89.4959 313.887 89.4446L374.9 69.7237C375.061 69.6723 375.23 69.7595 375.283 69.9203C375.334 70.08 375.247 70.252 375.086 70.3034L314.073 90.0243C314.041 90.0343 314.01 90.0388 313.98 90.0388Z" fill="#62818E"/>
<path d="M403.579 76.9239C403.557 76.9239 403.534 76.9217 403.51 76.9161L374.919 70.3116C374.756 70.2736 374.654 70.1105 374.691 69.9463C374.729 69.7833 374.891 69.6816 375.057 69.7185L403.648 76.323C403.811 76.361 403.913 76.524 403.875 76.6882C403.843 76.829 403.718 76.9239 403.579 76.9239Z" fill="#62818E"/>
<path d="M129.57 365.473C129.523 365.473 129.476 365.462 129.431 365.44C129.282 365.363 129.222 365.179 129.299 365.03L149.819 324.916C149.895 324.766 150.079 324.707 150.228 324.784C150.378 324.861 150.437 325.044 150.36 325.194L129.841 365.308C129.787 365.413 129.68 365.473 129.57 365.473Z" fill="#62818E"/>
<path d="M405.418 44.7732C405.405 44.7732 405.392 44.7721 405.378 44.771L351.687 37.7677C351.52 37.7454 351.403 37.5935 351.424 37.4271C351.447 37.2606 351.596 37.1434 351.765 37.1646L405.456 44.1679C405.623 44.1902 405.74 44.3421 405.719 44.5085C405.7 44.6615 405.569 44.7732 405.418 44.7732Z" fill="#62818E"/>
<path d="M374.988 70.3178C374.901 70.3178 374.815 70.2809 374.755 70.2095C374.647 70.081 374.663 69.8889 374.793 69.7806L405.225 44.2371C405.354 44.1287 405.546 44.1466 405.654 44.275C405.762 44.4035 405.745 44.5956 405.616 44.7039L375.184 70.2474C375.127 70.2943 375.056 70.3178 374.988 70.3178Z" fill="#62818E"/>
<path d="M386.976 73.2268C386.919 73.2268 386.862 73.2111 386.81 73.1776C386.67 73.086 386.629 72.8973 386.721 72.7565L405.162 44.3045C405.254 44.1638 405.441 44.1236 405.583 44.2152C405.724 44.3067 405.764 44.4955 405.673 44.6362L387.231 73.0883C387.173 73.1776 387.076 73.2268 386.976 73.2268Z" fill="#62818E"/>
<path d="M471.977 242.506C473.411 242.506 474.573 241.344 474.573 239.909C474.573 238.475 473.411 237.312 471.977 237.312C470.543 237.312 469.381 238.475 469.381 239.909C469.381 241.344 470.543 242.506 471.977 242.506Z" fill="#62818E"/>
<path d="M319.057 251.51C320.491 251.51 321.653 250.348 321.653 248.913C321.653 247.479 320.491 246.316 319.057 246.316C317.623 246.316 316.461 247.479 316.461 248.913C316.461 250.348 317.623 251.51 319.057 251.51Z" fill="#62818E"/>
<path d="M513.09 151.419C513.319 150.003 512.358 148.669 510.943 148.44C509.528 148.21 508.194 149.171 507.965 150.587C507.735 152.003 508.696 153.337 510.111 153.566C511.527 153.796 512.86 152.835 513.09 151.419Z" fill="#62818E"/>
<path d="M518.604 217.432C520.038 217.432 521.2 216.269 521.2 214.835C521.2 213.401 520.038 212.238 518.604 212.238C517.17 212.238 516.008 213.401 516.008 214.835C516.008 216.269 517.17 217.432 518.604 217.432Z" fill="#62818E"/>
<path d="M316.461 298.608C317.895 298.608 319.057 297.445 319.057 296.011C319.057 294.577 317.895 293.414 316.461 293.414C315.028 293.414 313.865 294.577 313.865 296.011C313.865 297.445 315.028 298.608 316.461 298.608Z" fill="#62818E"/>
<path d="M9.79135 334.366C11.2251 334.366 12.3874 333.203 12.3874 331.769C12.3874 330.335 11.2251 329.172 9.79135 329.172C8.3576 329.172 7.19531 330.335 7.19531 331.769C7.19531 333.203 8.3576 334.366 9.79135 334.366Z" fill="#62818E"/>
<path d="M165.731 326.903C167.165 326.903 168.327 325.74 168.327 324.306C168.327 322.872 167.165 321.709 165.731 321.709C164.297 321.709 163.135 322.872 163.135 324.306C163.135 325.74 164.297 326.903 165.731 326.903Z" fill="#62818E"/>
<path d="M129.569 367.766C131.002 367.766 132.165 366.603 132.165 365.169C132.165 363.735 131.002 362.572 129.569 362.572C128.135 362.572 126.973 363.735 126.973 365.169C126.973 366.603 128.135 367.766 129.569 367.766Z" fill="#62818E"/>
<path d="M207.971 357.145C209.405 357.145 210.567 355.982 210.567 354.548C210.567 353.114 209.405 351.951 207.971 351.951C206.537 351.951 205.375 353.114 205.375 354.548C205.375 355.982 206.537 357.145 207.971 357.145Z" fill="#62818E"/>
<path d="M52.8636 229.159C54.2974 229.159 55.4596 227.996 55.4596 226.562C55.4596 225.128 54.2974 223.965 52.8636 223.965C51.4299 223.965 50.2676 225.128 50.2676 226.562C50.2676 227.996 51.4299 229.159 52.8636 229.159Z" fill="#62818E"/>
<path d="M273.473 139.047C274.907 139.047 276.069 137.885 276.069 136.45C276.069 135.016 274.907 133.854 273.473 133.854C272.039 133.854 270.877 135.016 270.877 136.45C270.877 137.885 272.039 139.047 273.473 139.047Z" fill="#62818E"/>
<path d="M313.975 92.3344C315.409 92.3344 316.571 91.1718 316.571 89.7375C316.571 88.3033 315.409 87.1406 313.975 87.1406C312.541 87.1406 311.379 88.3033 311.379 89.7375C311.379 91.1718 312.541 92.3344 313.975 92.3344Z" fill="#62818E"/>
<path d="M351.729 40.0649C353.163 40.0649 354.325 38.9022 354.325 37.468C354.325 36.0338 353.163 34.8711 351.729 34.8711C350.295 34.8711 349.133 36.0338 349.133 37.468C349.133 38.9022 350.295 40.0649 351.729 40.0649Z" fill="#62818E"/>
<path d="M405.42 47.0669C406.854 47.0669 408.016 45.9042 408.016 44.47C408.016 43.0357 406.854 41.873 405.42 41.873C403.987 41.873 402.824 43.0357 402.824 44.47C402.824 45.9042 403.987 47.0669 405.42 47.0669Z" fill="#62818E"/>
<path d="M213.014 78.686C214.448 78.686 215.61 77.5233 215.61 76.0891C215.61 74.6549 214.448 73.4922 213.014 73.4922C211.58 73.4922 210.418 74.6549 210.418 76.0891C210.418 77.5233 211.58 78.686 213.014 78.686Z" fill="#62818E"/>
<path d="M119.443 158.085C119.666 156.669 118.698 155.339 117.282 155.116C115.865 154.893 114.536 155.861 114.314 157.278C114.091 158.695 115.058 160.024 116.475 160.247C117.891 160.47 119.22 159.502 119.443 158.085Z" fill="#62818E"/>
<path d="M132.037 109.739C133.471 109.739 134.633 108.576 134.633 107.142C134.633 105.708 133.471 104.545 132.037 104.545C130.604 104.545 129.441 105.708 129.441 107.142C129.441 108.576 130.604 109.739 132.037 109.739Z" fill="#62818E"/>
<path d="M214.16 170.802C214.006 170.802 213.859 170.713 213.791 170.565C213.697 170.362 213.787 170.12 213.99 170.026L516.788 30.7497C516.991 30.657 517.232 30.7452 517.326 30.9485C517.42 31.1518 517.33 31.3931 517.127 31.4869L214.328 170.765C214.274 170.789 214.217 170.802 214.16 170.802Z" fill="#00344A"/>
<path d="M280.405 278.443C280.305 278.443 280.203 278.406 280.125 278.33C279.963 278.175 279.958 277.919 280.113 277.756L516.66 30.8377C516.815 30.6757 517.072 30.6712 517.234 30.8254C517.396 30.9806 517.401 31.2375 517.246 31.3995L280.7 278.319C280.619 278.4 280.513 278.443 280.405 278.443Z" fill="#00344A"/>
<path d="M280.408 278.444C280.272 278.444 280.139 278.376 280.062 278.251L213.81 170.609C213.693 170.418 213.752 170.168 213.943 170.051C214.134 169.933 214.383 169.993 214.501 170.184L280.753 277.825C280.87 278.016 280.811 278.265 280.62 278.384C280.554 278.424 280.481 278.444 280.408 278.444Z" fill="#00344A"/>
<path d="M214.157 170.802C214.03 170.802 213.906 170.744 213.827 170.634C213.695 170.453 213.737 170.199 213.918 170.068L358.02 65.8077C358.202 65.6759 358.456 65.7172 358.586 65.8982C358.718 66.0791 358.677 66.3338 358.496 66.4644L214.393 170.725C214.322 170.776 214.239 170.802 214.157 170.802Z" fill="#00344A"/>
<path d="M358.256 66.5391C358.07 66.5391 357.902 66.4106 357.861 66.2208C357.813 66.0018 357.952 65.7851 358.169 65.7371L516.865 30.7208C517.083 30.6716 517.301 30.8113 517.349 31.0291C517.397 31.248 517.258 31.4647 517.041 31.5127L358.346 66.529C358.314 66.5368 358.285 66.5391 358.256 66.5391Z" fill="#00344A"/>
<path d="M58.8304 206.87C58.6462 206.87 58.4787 206.744 58.4363 206.557C58.386 206.339 58.5211 206.121 58.74 206.07L214.063 170.001C214.281 169.95 214.5 170.086 214.55 170.305C214.6 170.523 214.465 170.74 214.246 170.792L58.9231 206.86C58.8918 206.867 58.8606 206.87 58.8304 206.87Z" fill="#00344A"/>
<path d="M280.406 278.443C280.364 278.443 280.323 278.436 280.281 278.423L58.707 206.85C58.4937 206.781 58.3765 206.553 58.4457 206.339C58.5149 206.126 58.7427 206.01 58.956 206.078L280.531 277.651C280.744 277.719 280.861 277.948 280.792 278.161C280.736 278.333 280.578 278.443 280.406 278.443Z" fill="#00344A"/>
<path d="M214.159 170.802C214.131 170.802 214.102 170.799 214.073 170.793L136.41 154.117C136.192 154.07 136.052 153.854 136.099 153.635C136.146 153.416 136.361 153.277 136.58 153.324L214.242 170C214.461 170.046 214.601 170.262 214.554 170.481C214.514 170.671 214.345 170.802 214.159 170.802Z" fill="#00344A"/>
<path d="M58.832 206.869C58.7025 206.869 58.574 206.806 58.4959 206.691C58.3697 206.506 58.4188 206.253 58.6031 206.128L136.265 153.385C136.451 153.259 136.703 153.307 136.829 153.492C136.955 153.678 136.906 153.93 136.722 154.055L59.0598 206.798C58.9894 206.846 58.9101 206.869 58.832 206.869Z" fill="#00344A"/>
<path d="M214.156 170.801C214.071 170.801 213.986 170.775 213.913 170.721C213.733 170.587 213.697 170.332 213.831 170.153L309.292 42.2726C309.426 42.0928 309.681 42.056 309.859 42.19C310.039 42.324 310.076 42.5787 309.942 42.7574L214.48 170.638C214.401 170.744 214.279 170.801 214.156 170.801Z" fill="#00344A"/>
<path d="M358.261 66.5402C358.202 66.5402 358.142 66.5268 358.085 66.4989L309.444 42.8799C309.241 42.7816 309.158 42.5392 309.256 42.3382C309.354 42.136 309.597 42.0522 309.798 42.1505L358.439 65.7695C358.641 65.8678 358.725 66.1102 358.626 66.3112C358.556 66.4564 358.412 66.5402 358.261 66.5402Z" fill="#00344A"/>
<path d="M214.157 170.802C213.953 170.802 213.778 170.65 213.755 170.443L208.054 121.994C208.028 121.772 208.186 121.57 208.409 121.544C208.631 121.516 208.833 121.677 208.859 121.899L214.56 170.348C214.585 170.57 214.427 170.773 214.205 170.798C214.189 170.8 214.172 170.802 214.157 170.802Z" fill="#00344A"/>
<path d="M208.457 122.352C208.336 122.352 208.218 122.298 208.137 122.196C207.999 122.02 208.03 121.765 208.205 121.627L309.368 42.1959C309.543 42.0574 309.799 42.0887 309.937 42.2641C310.076 42.4406 310.045 42.6952 309.869 42.8337L208.707 122.264C208.632 122.324 208.544 122.352 208.457 122.352Z" fill="#00344A"/>
<path d="M136.495 154.124C136.34 154.124 136.191 154.034 136.124 153.882C136.034 153.677 136.127 153.438 136.332 153.347L208.292 121.573C208.497 121.484 208.736 121.575 208.827 121.781C208.917 121.987 208.825 122.226 208.619 122.316L136.659 154.09C136.606 154.113 136.55 154.124 136.495 154.124Z" fill="#00344A"/>
<path d="M309.62 42.9209C309.448 42.9209 309.287 42.8103 309.234 42.636C309.167 42.4227 309.285 42.1948 309.499 42.1278L388.078 17.4757C388.292 17.4087 388.519 17.5282 388.586 17.7415C388.653 17.9548 388.535 18.1827 388.32 18.2497L309.74 42.9019C309.7 42.9153 309.66 42.9209 309.62 42.9209Z" fill="#00344A"/>
<path d="M358.256 66.5398C358.184 66.5398 358.109 66.5197 358.043 66.4784C357.853 66.36 357.794 66.1098 357.913 65.9199L387.851 17.6488C387.968 17.4589 388.219 17.3997 388.41 17.5181C388.599 17.6365 388.659 17.8867 388.54 18.0766L358.602 66.3477C358.524 66.4728 358.392 66.5398 358.256 66.5398Z" fill="#00344A"/>
<path d="M280.405 278.445C280.233 278.445 280.073 278.335 280.019 278.162C279.952 277.947 280.07 277.721 280.283 277.652L437.482 228.136C437.697 228.069 437.923 228.187 437.99 228.401C438.057 228.614 437.939 228.842 437.726 228.909L280.527 278.425C280.487 278.439 280.445 278.445 280.405 278.445Z" fill="#00344A"/>
<path d="M437.604 228.927C437.554 228.927 437.502 228.917 437.453 228.898C437.246 228.814 437.145 228.578 437.229 228.37L516.577 30.9689C516.661 30.7611 516.896 30.6606 517.104 30.7444C517.312 30.8281 517.412 31.0638 517.328 31.2716L437.98 228.673C437.917 228.831 437.765 228.927 437.604 228.927Z" fill="#00344A"/>
<path d="M353.266 329.521C353.185 329.521 353.104 329.497 353.034 329.447L280.173 278.369C279.99 278.24 279.945 277.987 280.073 277.804C280.202 277.62 280.455 277.576 280.638 277.704L353.499 328.782C353.682 328.911 353.727 329.164 353.598 329.347C353.519 329.461 353.393 329.521 353.266 329.521Z" fill="#00344A"/>
<path d="M353.269 329.523C353.177 329.523 353.084 329.491 353.008 329.428C352.837 329.284 352.814 329.028 352.958 328.856L437.296 228.262C437.44 228.09 437.696 228.068 437.868 228.212C438.04 228.356 438.062 228.612 437.918 228.784L353.58 329.379C353.499 329.474 353.385 329.523 353.269 329.523Z" fill="#00344A"/>
<path d="M34.878 304.849C34.6737 304.849 34.4973 304.695 34.4749 304.486C34.4515 304.264 34.6123 304.064 34.8345 304.039L280.363 277.633C280.582 277.609 280.785 277.77 280.81 277.993C280.833 278.215 280.672 278.415 280.45 278.44L34.9216 304.847C34.907 304.848 34.8925 304.849 34.878 304.849Z" fill="#00344A"/>
<path d="M353.268 329.519C353.258 329.519 353.246 329.519 353.236 329.518L34.8469 304.847C34.6236 304.829 34.4561 304.635 34.474 304.411C34.4918 304.188 34.6861 304.022 34.9094 304.038L353.299 328.71C353.522 328.728 353.69 328.923 353.672 329.146C353.655 329.358 353.478 329.519 353.268 329.519Z" fill="#00344A"/>
<path d="M150.656 336.618C150.621 336.618 150.585 336.614 150.549 336.604L34.7708 304.834C34.5553 304.775 34.428 304.552 34.4872 304.335C34.5463 304.118 34.7685 303.993 34.9852 304.051L150.763 335.821C150.978 335.88 151.105 336.103 151.046 336.32C150.998 336.5 150.834 336.618 150.656 336.618Z" fill="#00344A"/>
<path d="M150.656 336.618C150.438 336.618 150.258 336.446 150.25 336.227C150.242 336.003 150.418 335.815 150.641 335.807L353.252 328.709C353.482 328.687 353.664 328.876 353.672 329.1C353.68 329.323 353.504 329.512 353.281 329.52L150.67 336.618C150.666 336.618 150.661 336.618 150.656 336.618Z" fill="#00344A"/>
<path d="M491.206 147.029C491.177 147.029 491.147 147.026 491.118 147.019C490.899 146.97 490.762 146.753 490.811 146.534L516.56 31.0297C516.609 30.8108 516.827 30.6745 517.045 30.7225C517.263 30.7717 517.401 30.9883 517.352 31.2073L491.602 146.712C491.56 146.901 491.392 147.029 491.206 147.029Z" fill="#00344A"/>
<path d="M437.605 228.928C437.529 228.928 437.452 228.907 437.383 228.862C437.195 228.739 437.143 228.488 437.266 228.3L490.864 146.402C490.987 146.215 491.238 146.162 491.426 146.285C491.614 146.408 491.666 146.659 491.543 146.847L437.944 228.745C437.866 228.863 437.737 228.928 437.605 228.928Z" fill="#00344A"/>
<path d="M34.8794 304.848C34.847 304.848 34.8146 304.844 34.7822 304.837C34.5645 304.783 34.4316 304.564 34.4841 304.346L58.4379 206.368C58.4915 206.15 58.7104 206.017 58.9281 206.07C59.1458 206.124 59.2787 206.343 59.2262 206.561L35.2724 304.54C35.2277 304.724 35.0625 304.848 34.8794 304.848Z" fill="#00344A"/>
<path d="M34.8794 304.847C34.7063 304.847 34.5455 304.735 34.4919 304.561L14.5298 239.887C14.4639 239.672 14.5834 239.445 14.7978 239.379C15.0111 239.314 15.2388 239.433 15.3047 239.648L35.2668 304.322C35.3327 304.537 35.2132 304.763 34.9988 304.829C34.9597 304.84 34.9196 304.847 34.8794 304.847Z" fill="#00344A"/>
<path d="M14.9179 240.172C14.7951 240.172 14.6745 240.117 14.5941 240.012C14.459 239.833 14.4936 239.578 14.6722 239.443L58.5882 206.139C58.7668 206.004 59.0214 206.039 59.1565 206.217C59.2916 206.396 59.257 206.651 59.0783 206.786L15.1624 240.09C15.0887 240.146 15.0027 240.172 14.9179 240.172Z" fill="#00344A"/>
<path d="M58.829 206.869C58.6257 206.869 58.4504 206.717 58.427 206.509L55.5574 181.604C55.5317 181.381 55.6914 181.18 55.9136 181.155C56.1369 181.131 56.3368 181.289 56.3624 181.511L59.232 206.417C59.2577 206.639 59.098 206.84 58.8758 206.866C58.8602 206.869 58.8446 206.869 58.829 206.869Z" fill="#00344A"/>
<path d="M55.9602 181.964C55.7916 181.964 55.6353 181.858 55.5773 181.69C55.5036 181.478 55.6163 181.248 55.8285 181.174L136.36 153.337C136.571 153.264 136.802 153.376 136.876 153.588C136.95 153.8 136.837 154.03 136.625 154.104L56.0931 181.942C56.0496 181.956 56.0049 181.964 55.9602 181.964Z" fill="#00344A"/>
<path d="M14.9168 240.173C14.8364 240.173 14.7549 240.148 14.6834 240.099C14.5003 239.97 14.4568 239.717 14.5863 239.534L55.6326 181.324C55.7621 181.141 56.0145 181.098 56.1976 181.226C56.3807 181.356 56.4242 181.608 56.2947 181.791L15.2484 240.001C15.1702 240.114 15.0441 240.173 14.9168 240.173Z" fill="#00344A"/>
<path d="M157.645 362.412C157.466 362.412 157.302 362.293 157.254 362.112L150.268 336.318C150.21 336.102 150.337 335.88 150.554 335.821C150.77 335.761 150.993 335.891 151.051 336.106L158.037 361.9C158.095 362.117 157.968 362.339 157.751 362.397C157.715 362.407 157.68 362.412 157.645 362.412Z" fill="#00344A"/>
<path d="M157.643 362.412C157.585 362.412 157.527 362.4 157.471 362.374L34.7064 304.81C34.5032 304.715 34.4161 304.474 34.511 304.271C34.6059 304.067 34.8471 303.98 35.0503 304.076L157.815 361.64C158.018 361.735 158.106 361.977 158.011 362.18C157.941 362.326 157.795 362.412 157.643 362.412Z" fill="#00344A"/>
<path d="M13.3314 278.733C13.3258 278.733 13.3203 278.733 13.3147 278.733C13.0914 278.724 12.9172 278.535 12.9261 278.31L14.5139 239.749C14.5228 239.524 14.7082 239.346 14.9359 239.36C15.1593 239.369 15.3334 239.558 15.3245 239.782L13.7367 278.344C13.7278 278.562 13.548 278.733 13.3314 278.733Z" fill="#00344A"/>
<path d="M34.8801 304.848C34.7629 304.848 34.6479 304.798 34.5675 304.701L13.0188 278.587C12.8759 278.414 12.9004 278.158 13.0735 278.016C13.2466 277.874 13.5023 277.899 13.6441 278.071L35.1928 304.185C35.3357 304.358 35.3111 304.614 35.1381 304.756C35.0633 304.817 34.9717 304.848 34.8801 304.848Z" fill="#00344A"/>
<path d="M430.91 283.454C430.893 283.454 430.877 283.453 430.86 283.451C430.638 283.424 430.479 283.221 430.507 282.999L437.202 228.473C437.23 228.25 437.435 228.095 437.654 228.12C437.877 228.147 438.035 228.35 438.007 228.572L431.312 283.098C431.286 283.304 431.112 283.454 430.91 283.454Z" fill="#00344A"/>
<path d="M353.27 329.52C353.131 329.52 352.996 329.449 352.92 329.321C352.806 329.129 352.869 328.88 353.062 328.764L430.705 282.696C430.898 282.581 431.146 282.645 431.261 282.838C431.375 283.03 431.312 283.279 431.119 283.394L353.476 329.464C353.411 329.502 353.34 329.52 353.27 329.52Z" fill="#00344A"/>
<path d="M430.909 283.451C430.855 283.451 430.799 283.439 430.745 283.416C430.54 283.325 430.448 283.085 430.539 282.881L490.833 146.457C490.923 146.251 491.163 146.159 491.367 146.25C491.573 146.341 491.664 146.581 491.574 146.785L431.28 283.209C431.214 283.36 431.066 283.451 430.909 283.451Z" fill="#00344A"/>
<path d="M355.764 344.688C355.568 344.688 355.396 344.548 355.364 344.349L352.869 329.18C352.833 328.958 352.981 328.749 353.202 328.714C353.425 328.672 353.632 328.827 353.668 329.048L356.164 344.217C356.199 344.438 356.051 344.647 355.83 344.683C355.808 344.687 355.786 344.688 355.764 344.688Z" fill="#00344A"/>
<path d="M355.758 344.69C355.64 344.69 355.523 344.638 355.443 344.54C355.301 344.366 355.328 344.111 355.501 343.969L430.648 282.731C430.823 282.591 431.077 282.616 431.219 282.789C431.361 282.964 431.334 283.218 431.161 283.36L356.013 344.598C355.939 344.661 355.848 344.69 355.758 344.69Z" fill="#00344A"/>
<path d="M136.495 154.125C136.381 154.125 136.268 154.078 136.189 153.985C136.043 153.817 136.06 153.56 136.229 153.413L193.808 103.396C193.978 103.249 194.234 103.268 194.38 103.437C194.526 103.605 194.509 103.862 194.34 104.008L136.761 154.025C136.683 154.092 136.59 154.125 136.495 154.125Z" fill="#00344A"/>
<path d="M208.455 122.351C208.335 122.351 208.216 122.298 208.136 122.197L193.755 103.954C193.616 103.778 193.647 103.522 193.822 103.384C193.998 103.245 194.253 103.276 194.391 103.451L208.773 121.694C208.911 121.869 208.881 122.125 208.706 122.264C208.631 122.323 208.542 122.351 208.455 122.351Z" fill="#00344A"/>
<path d="M194.074 104.108C193.928 104.108 193.788 104.03 193.715 103.893C193.61 103.695 193.686 103.449 193.884 103.344L309.428 42.1566C309.625 42.0516 309.871 42.1276 309.976 42.3253C310.081 42.523 310.005 42.7687 309.807 42.8737L194.262 104.061C194.202 104.093 194.137 104.108 194.074 104.108Z" fill="#00344A"/>
<path d="M217.715 393.485C217.563 393.485 217.417 393.399 217.348 393.253C217.252 393.05 217.339 392.808 217.541 392.713L353.099 328.748C353.303 328.652 353.544 328.739 353.639 328.941C353.735 329.145 353.648 329.386 353.446 329.481L217.887 393.446C217.832 393.473 217.773 393.485 217.715 393.485Z" fill="#00344A"/>
<path d="M217.714 393.485C217.654 393.485 217.593 393.472 217.535 393.444C217.334 393.346 217.252 393.102 217.35 392.901L246.922 332.649C247.021 332.448 247.264 332.365 247.465 332.463C247.666 332.562 247.749 332.805 247.65 333.006L218.078 393.259C218.008 393.403 217.864 393.485 217.714 393.485Z" fill="#00344A"/>
<path d="M217.714 393.484C217.546 393.484 217.39 393.38 217.332 393.214C217.257 393.003 217.368 392.771 217.579 392.696L355.633 343.9C355.844 343.826 356.076 343.936 356.15 344.147C356.225 344.358 356.114 344.591 355.903 344.664L217.85 393.46C217.804 393.476 217.759 393.484 217.714 393.484Z" fill="#00344A"/>
<path d="M217.709 393.484C217.606 393.484 217.502 393.445 217.423 393.367L187.851 364.054C187.692 363.896 187.69 363.64 187.848 363.48C188.006 363.32 188.263 363.319 188.422 363.478L217.995 392.791C218.153 392.948 218.155 393.205 217.997 393.365C217.918 393.444 217.814 393.484 217.709 393.484Z" fill="#00344A"/>
<path d="M188.136 364.171C187.99 364.171 187.849 364.092 187.777 363.953C187.673 363.755 187.75 363.51 187.949 363.406L247.093 332.467C247.292 332.362 247.537 332.44 247.641 332.638C247.744 332.836 247.667 333.081 247.469 333.185L188.324 364.124C188.264 364.157 188.199 364.171 188.136 364.171Z" fill="#00344A"/>
<path d="M188.135 364.173C188.127 364.173 188.119 364.173 188.112 364.172L157.617 362.412C157.394 362.4 157.223 362.207 157.235 361.984C157.247 361.761 157.444 361.591 157.663 361.602L188.157 363.362C188.381 363.375 188.552 363.567 188.539 363.79C188.527 364.007 188.348 364.173 188.135 364.173Z" fill="#00344A"/>
<path d="M374.176 63.0287C374.136 63.0287 374.094 63.0231 374.054 63.0097C373.84 62.9427 373.721 62.7148 373.788 62.5015L387.808 17.742C387.875 17.5276 388.103 17.408 388.316 17.4762C388.53 17.5432 388.649 17.7711 388.582 17.9844L374.562 62.7439C374.508 62.917 374.348 63.0287 374.176 63.0287Z" fill="#00344A"/>
<path d="M161.394 395.72C161.177 395.72 160.998 395.549 160.989 395.33C160.98 395.107 161.154 394.917 161.378 394.909L217.696 392.674C217.917 392.664 218.108 392.84 218.117 393.063C218.126 393.286 217.952 393.476 217.727 393.484L161.41 395.719C161.404 395.72 161.4 395.72 161.394 395.72Z" fill="#00344A"/>
<path d="M161.394 395.719C161.301 395.719 161.209 395.688 161.132 395.623C160.961 395.478 160.94 395.222 161.085 395.051L187.831 363.503C187.976 363.332 188.232 363.311 188.403 363.456C188.574 363.601 188.595 363.857 188.45 364.028L161.703 395.576C161.623 395.671 161.509 395.719 161.394 395.719Z" fill="#00344A"/>
<path d="M161.393 395.719C161.339 395.719 161.286 395.708 161.233 395.687C161.028 395.599 160.933 395.36 161.021 395.154L174.954 362.726C175.042 362.52 175.281 362.425 175.486 362.513C175.692 362.602 175.787 362.841 175.699 363.046L161.765 395.475C161.699 395.628 161.55 395.719 161.393 395.719Z" fill="#00344A"/>
<path d="M215.667 177.332C219.536 176.323 221.855 172.368 220.846 168.498C219.837 164.628 215.883 162.309 212.015 163.318C208.146 164.327 205.827 168.282 206.836 172.152C207.845 176.022 211.799 178.341 215.667 177.332Z" fill="#00344A"/>
<path d="M518.144 36.2672C521.001 35.5923 522.771 32.7281 522.096 29.8699C521.421 27.0117 518.558 25.2417 515.701 25.9166C512.844 26.5916 511.074 29.4557 511.749 32.3139C512.424 35.1722 515.287 36.9421 518.144 36.2672Z" fill="#00344A"/>
<path d="M34.8703 308.949C37.3573 308.949 39.3735 306.932 39.3735 304.444C39.3735 301.956 37.3573 299.939 34.8703 299.939C32.3833 299.939 30.3672 301.956 30.3672 304.444C30.3672 306.932 32.3833 308.949 34.8703 308.949Z" fill="#00344A"/>
<path d="M58.8262 210.36C60.9772 210.36 62.7208 208.616 62.7208 206.464C62.7208 204.313 60.9772 202.568 58.8262 202.568C56.6753 202.568 54.9316 204.313 54.9316 206.464C54.9316 208.616 56.6753 210.36 58.8262 210.36Z" fill="#00344A"/>
<path d="M358.54 69.8608C360.52 69.8608 362.126 68.2546 362.126 66.2732C362.126 64.2918 360.52 62.6855 358.54 62.6855C356.559 62.6855 354.953 64.2918 354.953 66.2732C354.953 68.2546 356.559 69.8608 358.54 69.8608Z" fill="#00344A"/>
<path d="M309.61 45.1638C311.072 45.1638 312.258 43.9781 312.258 42.5155C312.258 41.0529 311.072 39.8672 309.61 39.8672C308.148 39.8672 306.963 41.0529 306.963 42.5155C306.963 43.9781 308.148 45.1638 309.61 45.1638Z" fill="#00344A"/>
<path d="M388.193 19.9215C389.329 19.9215 390.25 19.0003 390.25 17.8641C390.25 16.7278 389.329 15.8066 388.193 15.8066C387.058 15.8066 386.137 16.7278 386.137 17.8641C386.137 19.0003 387.058 19.9215 388.193 19.9215Z" fill="#00344A"/>
<path d="M353.262 332.77C355.279 332.77 356.914 331.134 356.914 329.116C356.914 327.099 355.279 325.463 353.262 325.463C351.245 325.463 349.609 327.099 349.609 329.116C349.609 331.134 351.245 332.77 353.262 332.77Z" fill="#00344A"/>
<path d="M210.465 123.964C211.578 122.85 211.578 121.045 210.465 119.931C209.352 118.817 207.547 118.817 206.434 119.931C205.32 121.045 205.32 122.85 206.434 123.964C207.547 125.077 209.352 125.077 210.465 123.964Z" fill="#00344A"/>
<path d="M136.728 155.225C137.562 155.088 138.126 154.3 137.988 153.466C137.851 152.632 137.063 152.068 136.23 152.206C135.396 152.343 134.832 153.131 134.97 153.965C135.108 154.799 135.895 155.363 136.728 155.225Z" fill="#00344A"/>
<path d="M437.602 231.514C439.254 231.514 440.594 230.174 440.594 228.521C440.594 226.868 439.254 225.527 437.602 225.527C435.949 225.527 434.609 226.868 434.609 228.521C434.609 230.174 435.949 231.514 437.602 231.514Z" fill="#00344A"/>
<path d="M14.9107 240.926C15.5495 240.926 16.0674 240.408 16.0674 239.768C16.0674 239.129 15.5495 238.611 14.9107 238.611C14.2718 238.611 13.7539 239.129 13.7539 239.768C13.7539 240.408 14.2718 240.926 14.9107 240.926Z" fill="#00344A"/>
<path d="M357.523 346.053C358.5 345.076 358.5 343.491 357.523 342.513C356.546 341.536 354.961 341.536 353.984 342.513C353.007 343.491 353.007 345.076 353.984 346.053C354.961 347.031 356.546 347.031 357.523 346.053Z" fill="#00344A"/>
<path d="M217.897 394.224C218.528 394.122 218.956 393.527 218.854 392.896C218.751 392.266 218.157 391.837 217.527 391.94C216.896 392.042 216.468 392.636 216.57 393.267C216.672 393.898 217.267 394.326 217.897 394.224Z" fill="#00344A"/>
<path d="M150.653 337.369C151.292 337.369 151.81 336.851 151.81 336.212C151.81 335.573 151.292 335.055 150.653 335.055C150.014 335.055 149.496 335.573 149.496 336.212C149.496 336.851 150.014 337.369 150.653 337.369Z" fill="#00344A"/>
<path d="M492.014 147.443C492.466 146.991 492.466 146.259 492.014 145.807C491.563 145.355 490.83 145.355 490.378 145.807C489.927 146.259 489.927 146.991 490.378 147.443C490.83 147.895 491.563 147.895 492.014 147.443Z" fill="#00344A"/>
<path d="M194.885 104.521C195.337 104.069 195.337 103.337 194.885 102.885C194.434 102.433 193.701 102.433 193.25 102.885C192.798 103.337 192.798 104.069 193.25 104.521C193.701 104.973 194.434 104.973 194.885 104.521Z" fill="#00344A"/>
<path d="M431.718 283.867C432.169 283.415 432.169 282.682 431.718 282.231C431.266 281.779 430.533 281.779 430.082 282.231C429.63 282.682 429.63 283.415 430.082 283.867C430.533 284.319 431.266 284.319 431.718 283.867Z" fill="#00344A"/>
<path d="M56.7742 182.377C57.2259 181.925 57.2259 181.192 56.7742 180.74C56.3224 180.288 55.59 180.288 55.1383 180.74C54.6865 181.192 54.6865 181.925 55.1383 182.377C55.59 182.829 56.3224 182.829 56.7742 182.377Z" fill="#00344A"/>
<path d="M280.404 287.231C285.479 287.231 289.594 283.115 289.594 278.038C289.594 272.961 285.479 268.846 280.404 268.846C275.329 268.846 271.215 272.961 271.215 278.038C271.215 283.115 275.329 287.231 280.404 287.231Z" fill="#00344A"/>
</svg>
