<svg xmlns="http://www.w3.org/2000/svg" width="273" height="68" fill="none"><g clip-path="url(#a)"><g clip-path="url(#b)"><path fill="#2A2A2A" d="M95.6 34.164v-3.195c1.19.697 2.531 1.046 4.024 1.046 2.737 0 4.283-1.304 4.639-3.912h-6.287v-2.91h6.31c-.47-2.684-2.016-4.025-4.639-4.025-1.493 0-2.843.318-4.048.955v-3.309c1.266-.432 2.74-.648 4.423-.648 2.585 0 4.605.747 6.06 2.24 1.456 1.486 2.184 3.563 2.184 6.23 0 2.525-.724 4.556-2.172 6.095-1.448 1.531-3.426 2.297-5.935 2.297-1.842 0-3.362-.288-4.56-.864Zm28.572.58H120.5V21.497h-3.263c-.88 6.246-1.702 10.055-2.468 11.427-.765 1.365-1.929 2.047-3.49 2.047-.66 0-1.319-.106-1.979-.318v-2.934c.44.152.819.227 1.137.227.311 0 .584-.098.819-.295.242-.197.508-.72.796-1.57.288-.848.633-2.311 1.035-4.388.409-2.085.799-4.503 1.171-7.254h9.914v16.305Zm13.52 0h-9.779V18.439h9.403v2.99h-5.73v3.627h5.332v2.98h-5.332v3.729h6.106v2.979Zm16.168 0h-4.639l-4.753-7.084c-.091-.137-.235-.436-.432-.898h-.057v7.982h-3.672V18.439h3.672v7.709h.057c.091-.212.243-.516.455-.91l4.503-6.8h4.377l-5.685 7.778 6.174 8.528Zm13.019-13.315h-4.651v13.315h-3.684V21.429h-4.627v-2.99h12.962v2.99Zm5.867 7.698v5.617h-3.673V18.439h5.754c4.108 0 6.162 1.732 6.162 5.196 0 1.637-.591 2.964-1.774 3.98-1.175 1.008-2.747 1.512-4.718 1.512h-1.751Zm0-7.868v5.082h1.444c1.955 0 2.933-.857 2.933-2.57 0-1.675-.978-2.512-2.933-2.512h-1.444Zm17.43 13.769c-2.334 0-4.237-.758-5.708-2.274-1.47-1.524-2.205-3.506-2.205-5.947 0-2.577.746-4.662 2.24-6.253 1.493-1.592 3.471-2.388 5.935-2.388 2.327 0 4.207.762 5.639 2.285 1.441 1.524 2.161 3.533 2.161 6.026 0 2.563-.747 4.628-2.24 6.197-1.486 1.57-3.426 2.354-5.822 2.354Zm.159-13.701c-1.288 0-2.312.485-3.07 1.455-.758.963-1.137 2.24-1.137 3.832 0 1.614.379 2.892 1.137 3.832s1.751 1.41 2.979 1.41c1.266 0 2.271-.455 3.014-1.365.742-.917 1.114-2.187 1.114-3.809 0-1.69-.36-3.005-1.08-3.945-.72-.94-1.706-1.41-2.957-1.41Zm24.731 13.417h-3.684v-6.64h-6.754v6.64h-3.673V18.439h3.673v6.503h6.754V18.44h3.684v16.305Zm17.851 0h-3.684v-6.64h-6.754v6.64h-3.673V18.439h3.673v6.503h6.754V18.44h3.684v16.305Zm20.921 0h-3.65V18.439h3.65v16.305Zm-17.181 0V18.439h3.673v6.106h2.399c3.934 0 5.901 1.599 5.901 4.798 0 1.705-.53 3.032-1.592 3.98-1.061.947-2.558 1.42-4.491 1.42h-5.89Zm3.673-7.425v4.628h1.66c1.85 0 2.774-.785 2.774-2.354 0-1.516-.902-2.274-2.706-2.274h-1.728Zm31.916 7.425h-3.468v-8.96c0-1.031.038-1.91.114-2.638h-.068c-.159.31-.432.762-.819 1.353l-6.731 10.245h-3.695V18.439h3.467v9.016c0 1.115-.03 1.861-.09 2.24h.045c.038-.09.318-.534.841-1.33l6.47-9.926h3.934v16.305Zm-2.308-21.752c-.136 1.206-.656 2.165-1.558 2.877-.902.713-2.02 1.069-3.354 1.069-1.357 0-2.486-.356-3.388-1.069-.902-.712-1.387-1.671-1.456-2.877h2.615c.038.584.277 1.065.717 1.444.439.372.959.558 1.558.558.591 0 1.102-.19 1.535-.569.432-.379.67-.856.716-1.433h2.615ZM104.043 55.31h-1.412v-2.566h-6.46v2.566h-1.407v-3.906h.803c.597-1.119 1.103-2.423 1.519-3.913.415-1.495.65-2.914.703-4.259h4.941v8.172h1.313v3.906Zm-2.891-3.906v-6.812h-2.056c-.062.99-.277 2.151-.644 3.482-.367 1.331-.776 2.441-1.227 3.33h3.927Zm8.463 1.499c-1.371 0-2.47-.445-3.297-1.333-.822-.89-1.233-2.045-1.233-3.47 0-1.53.42-2.75 1.26-3.66.84-.911 1.981-1.367 3.422-1.367 1.336 0 2.41.442 3.224 1.327.818.884 1.227 2.04 1.227 3.469 0 1.552-.418 2.779-1.254 3.68-.835.903-1.952 1.354-3.349 1.354Zm.073-8.444c-.871 0-1.581.325-2.129.975-.544.65-.816 1.506-.816 2.567 0 1.057.265 1.908.796 2.554.53.645 1.225.968 2.082.968.911 0 1.63-.307 2.156-.922.526-.614.789-1.474.789-2.58 0-1.136-.256-2.014-.769-2.633-.509-.619-1.212-.928-2.109-.928Zm13.471 8.285h-2.057l-3.309-4.351a2.45 2.45 0 0 1-.226-.332h-.026v4.683h-1.579v-9.512h1.579v4.47h.026c.053-.096.129-.205.226-.324l3.19-4.146h1.89l-3.734 4.564 4.02 4.948Zm7.999-9.512-2.959 6.587c-.548 1.198-1.079 2.014-1.591 2.447-.509.429-1.066.643-1.672.643-.482 0-.884-.068-1.207-.205v-1.506c.385.23.754.345 1.108.345.314 0 .601-.12.862-.358.265-.239.55-.659.855-1.26l-3.177-6.693h1.798l1.963 4.51c.04.094.117.323.232.69h.014c.013-.044.097-.274.252-.69l1.85-4.51h1.672Zm11.321 9.512h-1.565v-6.155c0-.505.031-1.121.093-1.851h-.027a6.39 6.39 0 0 1-.258.895l-2.839 7.11h-1.088l-2.845-7.056a6.535 6.535 0 0 1-.252-.949h-.027c.036.38.053 1.002.053 1.864v6.142h-1.459v-9.512h2.222l2.501 6.335c.19.486.313.849.371 1.087h.033c.164-.5.296-.87.398-1.114l2.547-6.308h2.142v9.512Zm7.688 0h-5.34v-9.512h5.127v1.34h-3.548v2.693h3.27v1.333h-3.27v2.812h3.761v1.334Zm9.332 0h-1.586v-4.126h-4.477v4.126h-1.578v-9.512h1.578v4h4.477v-4h1.586v9.512Zm8.45-8.172h-2.733v8.172h-1.579v-8.172h-2.726v-1.34h7.038v1.34Zm4.742 8.33c-1.371 0-2.47-.444-3.297-1.332-.822-.89-1.233-2.045-1.233-3.47 0-1.53.42-2.75 1.26-3.66.84-.911 1.981-1.367 3.422-1.367 1.336 0 2.41.442 3.224 1.327.818.884 1.227 2.04 1.227 3.469 0 1.552-.418 2.779-1.254 3.68-.835.903-1.952 1.354-3.349 1.354Zm.073-8.443c-.871 0-1.581.325-2.129.975-.544.65-.816 1.506-.816 2.567 0 1.057.265 1.908.796 2.554.53.645 1.225.968 2.082.968.911 0 1.63-.307 2.156-.922.526-.614.789-1.474.789-2.58 0-1.136-.256-2.014-.769-2.633-.509-.619-1.212-.928-2.109-.928Zm10.194 8.444c-1.371 0-2.469-.445-3.296-1.333-.823-.89-1.234-2.045-1.234-3.47 0-1.53.42-2.75 1.26-3.66.84-.911 1.981-1.367 3.423-1.367 1.335 0 2.409.442 3.223 1.327.818.884 1.227 2.04 1.227 3.469 0 1.552-.418 2.779-1.253 3.68-.836.903-1.953 1.354-3.35 1.354Zm.073-8.444c-.871 0-1.581.325-2.129.975-.544.65-.816 1.506-.816 2.567 0 1.057.265 1.908.796 2.554.531.645 1.225.968 2.083.968.911 0 1.629-.307 2.155-.922.526-.614.79-1.474.79-2.58 0-1.136-.257-2.014-.77-2.633-.508-.619-1.211-.928-2.109-.928Zm6.274 8.285v-9.512h5.552v1.347h-3.973v2.6h1.817c.973 0 1.729.23 2.269.69.544.46.816 1.112.816 1.956 0 .902-.29 1.614-.869 2.136-.575.522-1.36.783-2.355.783h-3.257Zm1.579-4.312v3.051h1.426c.579 0 1.026-.137 1.34-.41.314-.275.471-.657.471-1.148 0-.995-.595-1.493-1.784-1.493h-1.453Zm10.393 4.47c-1.37 0-2.469-.444-3.296-1.332-.823-.89-1.234-2.045-1.234-3.47 0-1.53.42-2.75 1.26-3.66.841-.911 1.981-1.367 3.423-1.367 1.335 0 2.41.442 3.223 1.327.818.884 1.227 2.04 1.227 3.469 0 1.552-.418 2.779-1.253 3.68-.836.903-1.952 1.354-3.35 1.354Zm.073-8.443c-.871 0-1.58.325-2.129.975-.544.65-.816 1.506-.816 2.567 0 1.057.266 1.908.796 2.554.531.645 1.225.968 2.083.968.911 0 1.629-.307 2.156-.922.526-.614.789-1.474.789-2.58 0-1.136-.257-2.014-.77-2.633-.508-.619-1.211-.928-2.109-.928Zm7.847 4.836v3.449h-1.572v-9.512h2.885c1.092 0 1.939.255 2.54.763.602.509.902 1.225.902 2.15 0 .923-.314 1.68-.942 2.267-.628.589-1.476.883-2.547.883h-1.266Zm0-4.763v3.476h1.021c.677 0 1.192-.157 1.545-.471.354-.314.531-.756.531-1.326 0-1.12-.65-1.679-1.95-1.679h-1.147Zm10.227 8.37c-1.371 0-2.469-.444-3.296-1.332-.823-.89-1.234-2.045-1.234-3.47 0-1.53.42-2.75 1.26-3.66.84-.911 1.981-1.367 3.423-1.367 1.335 0 2.409.442 3.223 1.327.818.884 1.227 2.04 1.227 3.469 0 1.552-.418 2.779-1.253 3.68-.836.903-1.953 1.354-3.35 1.354Zm.073-8.443c-.871 0-1.581.325-2.129.975-.544.65-.816 1.506-.816 2.567 0 1.057.265 1.908.796 2.554.531.645 1.225.968 2.083.968.911 0 1.629-.307 2.155-.922.527-.614.79-1.474.79-2.58 0-1.136-.257-2.014-.77-2.633-.508-.619-1.211-.928-2.109-.928Zm11.806.113h-2.733v8.172h-1.578v-8.172h-2.726v-1.34h7.037v1.34Z"/></g><path fill="#00C5A8" fill-rule="evenodd" d="M20.919 67.959V8.084a.968.968 0 0 1 1.298-.92l11.358 4.207L20.92 67.96Z" clip-rule="evenodd"/><path fill="#2CAC9F" d="M20.919 15.908v-5.704a.864.864 0 0 0-1.183.828l.09 4.717 1.093.159Z"/><path fill="#2CAC9F" d="M20.919 67.959V15.908l-1.093-.159 1.093 52.21Z"/><path fill="#00DBC5" fill-rule="evenodd" d="M20.919 67.959 1.483 24.539c-.29-.648.178-1.383.88-1.383h6.008l12.548 44.803Z" clip-rule="evenodd"/><path fill="#2CAC9F" d="m9.74 23.156-1.464-5.61c-.698-.212-1.353.441-1.154 1.152l1.249 4.458h1.37ZM20.919 67.959 9.74 23.156H8.37l12.548 44.803Z"/><path fill="#00DBC5" fill-rule="evenodd" d="M34.624 11.76 20.919 67.959h50.34a.97.97 0 0 0 .94-.758l8.732-38.111a.985.985 0 0 0-.409-1.038L38.886.204a.963.963 0 0 0-1.471.586l-.474 1.978-2.317 8.992Z" clip-rule="evenodd"/><path fill="#2CAC9F" d="m34.624 11.76 2.317-8.992-.105-.072a.963.963 0 0 0-1.487.597l-1.773 8.078 1.048.389Z"/><path fill="#2CAC9F" d="m20.919 67.959 13.705-56.2-1.049-.388L20.92 67.96Z"/><path fill="#019F94" d="M9.74 23.156 20.92 67.959l-1.093-52.21-11.048-1.607c-.685-.1-1.249.54-1.072 1.219l.57 2.185 1.465 5.61Z"/><path fill="#fff" d="M49.25 27.743c.55-1.478 2.03-2.124 3.537-1.791 4.446 1.214 8.834 2.447 13.154 3.602 1.836.48 2.986 2.281 2.6 4.033a17759.68 17759.68 0 0 1-4.233 20.136c-.358 1.733-1.914 3.142-3.518 3.123-5.577 0-11.125-.049-16.672-.108-1.934-.03-3.103-2.623-2.504-5.158a410.481 410.481 0 0 1 7.636-23.837Z"/><path fill="#151515" d="M55.597 31.74c-.416 0-.793.176-.87.636-.01.48.241.91.657.979 1.972.352 3.963.764 5.915 1.116-.725 4.268-1.44 8.565-2.136 12.872-3.334-.186-6.62-.372-9.926-.597-.638-.078-1.005.744-1.015 1.586.194 1.204.377 2.379.541 3.583.03.519.358.744.696.607.329-.118.56-.637.484-1.087-.107-.979-.252-1.919-.397-2.907 3.808.196 7.607.352 11.434.43a84.985 84.985 0 0 0-1.082 2.565c-.184.421-.088.852.241.97.3.127.686-.108.85-.51.416-1.037.88-2.075 1.334-3.083.32-.705-.01-1.459-.628-1.468-.425-.03-.84-.04-1.276-.05a2024.74 2024.74 0 0 1 2.3-12.755c.165-.832-.299-1.605-1.072-1.732-2.01-.392-4.04-.803-6.05-1.155Z"/><path fill="#151515" d="M50.62 42.077c.019-.49.337-.842.705-.783a381.1 381.1 0 0 0 5.74.665c.358.06.6.441.552.881-.058.45-.435.803-.754.774-1.953-.167-3.77-.353-5.693-.578-.348-.039-.6-.49-.55-.96ZM52.755 36.664c-.377-.04-.734.283-.783.763-.058.49.222.92.61.999 1.603.244 3.256.46 4.89.704.367.04.753-.274.782-.724.107-.45-.173-.88-.55-.92a179.377 179.377 0 0 1-4.949-.822Z"/></g><defs><clipPath id="a"><path fill="#fff" d="M.5.128h272v67.743H.5z"/></clipPath><clipPath id="b"><path fill="#fff" d="M95.326 9.366h177.57v47.215H95.326z"/></clipPath></defs></svg>