<svg xmlns="http://www.w3.org/2000/svg" width="100" height="40" fill="none"><path fill="#2A2A2A" d="M44.132 30.344v-3.613c1.346.788 2.863 1.183 4.552 1.183 3.094 0 4.843-1.475 5.246-4.424h-7.11V20.2h7.136c-.532-3.035-2.28-4.553-5.247-4.553-1.688 0-3.214.36-4.577 1.08v-3.741c1.431-.489 3.099-.733 5.002-.733 2.923 0 5.208.844 6.853 2.533 1.646 1.68 2.47 4.029 2.47 7.047 0 2.854-.82 5.152-2.457 6.892-1.637 1.732-3.874 2.598-6.712 2.598-2.083 0-3.802-.326-5.156-.978Zm34.654 5.684h-3.651V31H63.433v5.028h-3.6v-8.423h1.71c2.383-4.312 3.699-9.327 3.947-15.045h10.673v15.045h2.623v8.423Zm-6.79-8.423V16.02H68.86c-.094 1.706-.42 3.627-.977 5.761-.557 2.135-1.247 4.076-2.07 5.825h6.185Zm17.656 3.716c-2.64 0-4.792-.857-6.455-2.571-1.663-1.723-2.495-3.965-2.495-6.726 0-2.914.845-5.272 2.534-7.072 1.688-1.8 3.926-2.7 6.712-2.7 2.632 0 4.758.861 6.378 2.584 1.629 1.723 2.443 3.995 2.443 6.816 0 2.897-.844 5.233-2.533 7.008-1.68 1.774-3.875 2.662-6.584 2.662Zm.18-15.495c-1.457 0-2.614.55-3.472 1.646-.857 1.09-1.286 2.534-1.286 4.334 0 1.826.43 3.27 1.286 4.333.858 1.063 1.98 1.595 3.37 1.595 1.431 0 2.567-.515 3.407-1.543.84-1.037 1.26-2.473 1.26-4.308 0-1.912-.407-3.399-1.222-4.462-.814-1.063-1.928-1.595-3.343-1.595Z"/><path fill="#00C5A8" fill-rule="evenodd" d="M9.57 40V4.737c0-.4.327-.68.636-.542l5.568 2.478L9.57 40Z" clip-rule="evenodd"/><path fill="#2CAC9F" d="M9.57 9.345v-3.36c-.281-.136-.586.12-.58.488l.045 2.778.535.094Z"/><path fill="#2CAC9F" d="M9.57 40V9.345l-.535-.094L9.57 40Z"/><path fill="#00DBC5" fill-rule="evenodd" d="M9.57 40 .043 14.428c-.142-.382.087-.815.431-.815H3.42L9.57 40Z" clip-rule="evenodd"/><path fill="#2CAC9F" d="m4.09 13.613-.717-3.304c-.343-.124-.663.26-.566.679l.612 2.625h.672ZM9.57 40 4.09 13.613h-.67L9.57 40Z"/><path fill="#00DBC5" fill-rule="evenodd" d="M16.288 6.902 9.57 40h24.676c.22 0 .412-.185.462-.446l4.28-22.446c.044-.235-.035-.479-.2-.611L18.377.096c-.274-.22-.644-.043-.722.345l-.232 1.165-1.136 5.296Z" clip-rule="evenodd"/><path fill="#2CAC9F" d="m16.288 6.902 1.136-5.296-.051-.042c-.277-.23-.657-.047-.73.351l-.869 4.758.514.229Z"/><path fill="#2CAC9F" d="m9.57 40 6.718-33.098-.514-.23L9.57 40Z"/><path fill="#019F94" d="M4.09 13.613 9.57 40 9.035 9.251l-5.416-.947c-.336-.058-.612.32-.526.718l.28 1.287.718 3.304Z"/><path fill="#fff" d="M22.194 15.937c.27-.871 1.54-.936 2.28-.74 2.179.715 4.33 1.441 6.447 2.121.9.283 1.464 1.344 1.275 2.376-.692 3.966-1.384 7.915-2.075 11.859-.176 1.02-.938 1.85-1.725 1.839-2.733 0-5.453-.03-8.172-.064-.948-.017-1.993-1.578-1.699-3.071 1.151-4.803 2.324-9.772 3.67-14.32Z"/><path fill="#151515" d="M25.85 18.605c-.203 0-.388.104-.426.375-.005.283.119.536.322.577.967.207 1.943.45 2.9.657-.356 2.514-.706 5.044-1.047 7.581-1.635-.11-3.246-.219-4.866-.352-.313-.046-.493.439-.497.934.094.71.184 1.401.265 2.11.014.306.175.439.341.358.161-.07.275-.375.237-.64-.052-.576-.123-1.13-.194-1.712 1.866.115 3.728.207 5.604.253-.184.502-.36 1.004-.53 1.51-.09.249-.043.502.118.572.147.075.337-.064.417-.3.204-.611.431-1.222.654-1.816.156-.415-.005-.86-.308-.865a11.16 11.16 0 0 0-.625-.029c.37-2.52.748-5.021 1.127-7.512.08-.49-.147-.945-.526-1.02-.985-.23-1.98-.473-2.965-.68Z"/><path fill="#151515" d="M23.41 24.694c.01-.289.166-.496.346-.462.939.139 1.877.271 2.815.392.175.035.293.26.27.52-.029.264-.213.472-.37.455a73.049 73.049 0 0 1-2.79-.34c-.17-.024-.294-.289-.27-.566ZM24.458 21.505c-.185-.023-.36.168-.384.45-.029.288.109.542.298.588.787.144 1.597.271 2.398.415.18.023.37-.161.383-.426.053-.266-.085-.52-.27-.542-.8-.15-1.62-.306-2.425-.485Z"/></svg>