<svg xmlns="http://www.w3.org/2000/svg" width="60" height="25" fill="none"><path fill="#2A2A2A" d="M29.606 18.649v-1.936c.721.422 1.534.634 2.439.634 1.658 0 2.595-.79 2.81-2.37h-3.809v-1.764h3.823c-.284-1.625-1.221-2.438-2.81-2.438-.905 0-1.722.192-2.453.578V9.35c.767-.262 1.66-.393 2.68-.393 1.566 0 2.79.452 3.672 1.357.882.9 1.323 2.159 1.323 3.775 0 1.53-.44 2.76-1.316 3.693-.878.927-2.076 1.391-3.596 1.391-1.116 0-2.037-.174-2.763-.523Zm18.566 3.045h-1.956V19h-6.27v2.694h-1.928V17.18h.916c1.277-2.31 1.982-4.997 2.115-8.06h5.718v8.06h1.405v4.513Zm-3.637-4.513v-6.207h-1.681c-.05.914-.225 1.943-.524 3.087a17.994 17.994 0 0 1-1.109 3.12h3.314Zm9.458 1.991c-1.414 0-2.567-.459-3.458-1.378-.891-.923-1.337-2.124-1.337-3.603 0-1.561.453-2.824 1.358-3.788.904-.965 2.103-1.447 3.596-1.447 1.41 0 2.548.461 3.416 1.385.873.923 1.31 2.14 1.31 3.65 0 1.553-.453 2.805-1.358 3.755-.9.95-2.076 1.426-3.527 1.426Zm.097-8.301c-.781 0-1.401.294-1.86.882-.46.583-.69 1.357-.69 2.321 0 .979.23 1.752.69 2.322.459.57 1.06.854 1.805.854.766 0 1.375-.275 1.825-.826.45-.556.675-1.325.675-2.308 0-1.024-.218-1.821-.654-2.39-.437-.57-1.034-.855-1.791-.855Z"/><path fill="#00C5A8" fill-rule="evenodd" d="M6.625 25V2.96c0-.25.227-.424.441-.338l3.855 1.549L6.625 25Z" clip-rule="evenodd"/><path fill="#2CAC9F" d="M6.625 5.84v-2.1c-.194-.085-.405.076-.401.306l.03 1.736.371.058Z"/><path fill="#2CAC9F" d="M6.625 25V5.84l-.37-.058L6.625 25Z"/><path fill="#00DBC5" fill-rule="evenodd" d="M6.625 25 .03 9.017c-.099-.238.06-.509.298-.509h2.04L6.624 25Z" clip-rule="evenodd"/><path fill="#2CAC9F" d="m2.832 8.508-.497-2.065c-.237-.078-.459.163-.391.424l.423 1.641h.465ZM6.625 25 2.832 8.508h-.465L6.625 25Z"/><path fill="#00DBC5" fill-rule="evenodd" d="M11.277 4.313 6.625 25H23.71c.152 0 .285-.116.32-.279l2.962-14.028a.377.377 0 0 0-.138-.383L12.723.06c-.19-.138-.446-.027-.5.216l-.16.728-.787 3.31Z" clip-rule="evenodd"/><path fill="#2CAC9F" d="m11.277 4.313.786-3.31-.036-.026c-.191-.143-.454-.029-.505.22l-.601 2.974.356.142Z"/><path fill="#2CAC9F" d="m6.625 25 4.652-20.687-.356-.142L6.625 25Z"/><path fill="#019F94" d="M2.832 8.508 6.625 25l-.37-19.218-3.75-.592c-.232-.036-.423.2-.363.449l.193.804.497 2.065Z"/><path fill="#fff" d="M16.24 10.197c.187-.544.689-.782 1.2-.66 1.51.447 2.998.901 4.464 1.327.624.176 1.014.84.883 1.484-.48 2.48-.958 4.947-1.437 7.412-.121.638-.65 1.157-1.194 1.15-1.892 0-3.775-.019-5.658-.04-.656-.011-1.053-.966-.85-1.9.798-3 1.66-5.93 2.592-8.773Z"/><path fill="#151515" d="M18.394 11.668c-.141 0-.27.065-.295.234-.004.177.082.335.223.36.669.13 1.345.282 2.007.411a645.512 645.512 0 0 0-.725 4.739 253.209 253.209 0 0 1-3.368-.22c-.217-.029-.341.274-.345.584.066.443.128.875.184 1.318.01.191.121.274.236.224.112-.044.19-.235.164-.4-.036-.36-.085-.706-.134-1.07 1.292.072 2.58.13 3.88.158-.128.314-.25.627-.368.944-.062.155-.03.314.082.357.102.047.233-.04.29-.188.14-.381.297-.763.452-1.134.108-.26-.004-.537-.213-.541a8.541 8.541 0 0 0-.433-.018c.255-1.575.518-3.138.78-4.695.056-.306-.102-.59-.364-.638-.682-.144-1.37-.295-2.053-.425Z"/><path fill="#151515" d="M16.705 15.473c.006-.18.115-.31.24-.288.648.086 1.298.17 1.947.245.122.021.204.162.187.324-.02.166-.147.296-.256.285-.662-.062-1.279-.13-1.931-.213-.118-.014-.204-.18-.187-.353ZM17.43 13.48c-.128-.014-.25.105-.266.281-.02.18.075.34.206.368.545.09 1.106.17 1.66.26.125.014.256-.101.266-.267.036-.166-.06-.325-.187-.339a56.668 56.668 0 0 1-1.68-.303Z"/></svg>