<svg xmlns="http://www.w3.org/2000/svg" width="220" height="56" fill="none"><g clip-path="url(#a)"><g clip-path="url(#b)"><path fill="#2A2A2A" d="M76.918 27.784v-2.585c.962.564 2.047.846 3.255.846 2.213 0 3.464-1.054 3.752-3.163H78.84v-2.354h5.104c-.38-2.17-1.631-3.256-3.752-3.256-1.208 0-2.3.258-3.274.773v-2.677c1.024-.35 2.216-.524 3.577-.524 2.09 0 3.725.604 4.902 1.812 1.177 1.202 1.765 2.881 1.765 5.04 0 2.041-.585 3.684-1.756 4.929-1.171 1.238-2.771 1.858-4.8 1.858-1.49 0-2.72-.233-3.688-.7Zm23.11.469h-2.97V17.539h-2.64c-.71 5.052-1.376 8.133-1.995 9.242-.62 1.104-1.56 1.655-2.823 1.655a5.196 5.196 0 0 1-1.6-.257v-2.373c.355.123.662.184.92.184a1 1 0 0 0 .661-.239c.196-.16.411-.582.644-1.269.233-.687.512-1.87.837-3.55.33-1.686.647-3.642.947-5.867h8.019v13.188Zm10.935 0h-7.909V15.065h7.605v2.418h-4.635v2.934h4.314v2.41h-4.314v3.016h4.939v2.41Zm13.077 0h-3.752l-3.844-5.73c-.074-.11-.19-.352-.349-.726h-.046v6.456h-2.971V15.065h2.971V21.3h.046a9.97 9.97 0 0 1 .367-.736l3.642-5.5h3.541l-4.598 6.291 4.993 6.898Zm10.53-10.77h-3.761v10.77h-2.98v-10.77h-3.743v-2.418h10.484v2.418Zm4.746 6.226v4.544h-2.971V15.065h4.654c3.323 0 4.984 1.4 4.984 4.203 0 1.324-.478 2.397-1.435 3.218-.95.816-2.222 1.223-3.816 1.223h-1.416Zm0-6.363v4.11h1.168c1.581 0 2.372-.692 2.372-2.078 0-1.355-.791-2.032-2.372-2.032h-1.168Zm14.098 11.137c-1.889 0-3.427-.614-4.617-1.84-1.189-1.232-1.784-2.835-1.784-4.81 0-2.084.604-3.77 1.812-5.058 1.208-1.287 2.808-1.93 4.8-1.93 1.883 0 3.403.615 4.562 1.848 1.165 1.232 1.747 2.857 1.747 4.874 0 2.072-.604 3.743-1.812 5.012-1.201 1.269-2.771 1.904-4.708 1.904Zm.129-11.082c-1.043 0-1.87.392-2.483 1.177-.614.779-.92 1.812-.92 3.1 0 1.305.306 2.338.92 3.098.613.76 1.416 1.14 2.409 1.14 1.024 0 1.836-.367 2.437-1.103.601-.742.901-1.769.901-3.08 0-1.368-.291-2.432-.873-3.192-.583-.76-1.38-1.14-2.391-1.14Zm20.002 10.852h-2.98v-5.371h-5.462v5.37h-2.971V15.066h2.971v5.26h5.462v-5.26h2.98v13.188Zm14.438 0h-2.979v-5.371h-5.463v5.37h-2.971V15.066h2.971v5.26h5.463v-5.26h2.979v13.188Zm16.922 0h-2.952V15.065h2.952v13.188Zm-13.896 0V15.065h2.97v4.938h1.941c3.182 0 4.773 1.294 4.773 3.881 0 1.38-.429 2.453-1.288 3.219-.858.766-2.069 1.15-3.632 1.15h-4.764Zm2.97-6.006v3.743h1.343c1.496 0 2.244-.634 2.244-1.903 0-1.227-.73-1.84-2.189-1.84h-1.398Zm25.815 6.006h-2.805v-7.247c0-.834.031-1.545.092-2.134h-.055c-.129.252-.35.616-.662 1.095l-5.445 8.286h-2.989V15.065h2.805v7.293c0 .9-.024 1.505-.073 1.811h.037c.03-.073.257-.432.68-1.076l5.233-8.028h3.182v13.188Zm-1.867-17.593c-.11.975-.53 1.75-1.26 2.326-.73.577-1.634.865-2.713.865-1.097 0-2.011-.288-2.74-.865-.73-.576-1.122-1.351-1.178-2.326h2.116c.03.472.223.861.579 1.168.356.3.776.45 1.26.45.478 0 .892-.153 1.241-.46a1.66 1.66 0 0 0 .58-1.158h2.115ZM83.747 45.329h-1.142v-2.076H77.38v2.076h-1.137v-3.16h.649c.482-.905.892-1.96 1.228-3.165.336-1.209.526-2.357.569-3.444h3.996v6.609h1.063v3.16Zm-2.338-3.16v-5.51h-1.663c-.05.802-.224 1.74-.52 2.817-.298 1.076-.628 1.974-.993 2.693h3.176Zm6.845 1.212c-1.109 0-1.998-.36-2.666-1.078-.666-.719-.998-1.654-.998-2.806 0-1.237.34-2.224 1.02-2.96.679-.738 1.601-1.106 2.767-1.106 1.08 0 1.95.358 2.607 1.073.662.715.993 1.65.993 2.806 0 1.255-.338 2.247-1.014 2.977-.676.73-1.579 1.094-2.71 1.094Zm.059-6.829c-.705 0-1.279.263-1.722.789-.44.526-.66 1.218-.66 2.076 0 .855.215 1.543.644 2.065.429.522.99.784 1.684.784.737 0 1.318-.25 1.744-.746.425-.497.638-1.193.638-2.087 0-.92-.207-1.63-.622-2.13-.412-.5-.98-.75-1.706-.75Zm10.895 6.7h-1.663l-2.677-3.519a1.95 1.95 0 0 1-.182-.268h-.021v3.788h-1.277V35.56h1.277v3.615h.021c.043-.078.104-.166.182-.262l2.58-3.353h1.53l-3.02 3.69 3.25 4.003Zm6.47-7.692-2.393 5.327c-.443.969-.872 1.629-1.287 1.98-.411.346-.862.52-1.352.52-.39 0-.715-.056-.976-.167v-1.217c.31.186.609.279.896.279.254 0 .486-.097.697-.29.215-.193.445-.533.692-1.02l-2.57-5.412h1.454l1.588 3.648c.032.075.095.26.188.558h.011c.01-.036.078-.222.203-.558l1.497-3.648h1.352Zm9.157 7.693h-1.266v-4.979c0-.407.025-.906.076-1.496h-.022a5.19 5.19 0 0 1-.209.724l-2.296 5.75h-.88l-2.301-5.707a5.22 5.22 0 0 1-.204-.767h-.022c.029.307.043.81.043 1.507v4.968h-1.18V35.56h1.797l2.023 5.123c.153.393.253.687.3.88h.027c.132-.404.239-.705.322-.902l2.06-5.101h1.732v7.693Zm6.218 0h-4.318V35.56h4.146v1.083h-2.87v2.178h2.645V39.9h-2.645v2.274h3.042v1.079Zm7.548 0h-1.282v-3.337h-3.621v3.337h-1.277V35.56h1.277v3.235h3.621V35.56h1.282v7.693Zm6.835-6.61h-2.211v6.61h-1.276v-6.61h-2.205V35.56h5.692v1.083Zm3.835 6.738c-1.108 0-1.997-.36-2.666-1.078-.665-.719-.998-1.654-.998-2.806 0-1.237.34-2.224 1.019-2.96.68-.738 1.603-1.106 2.769-1.106 1.08 0 1.949.358 2.607 1.073.661.715.992 1.65.992 2.806 0 1.255-.338 2.247-1.014 2.977-.676.73-1.579 1.094-2.709 1.094Zm.059-6.829c-.704 0-1.278.263-1.722.789-.44.526-.66 1.218-.66 2.076 0 .855.215 1.543.644 2.065.429.522.991.784 1.685.784.736 0 1.317-.25 1.743-.746.426-.497.638-1.193.638-2.087 0-.92-.207-1.63-.622-2.13-.411-.5-.98-.75-1.706-.75Zm8.246 6.83c-1.109 0-1.998-.36-2.667-1.079-.665-.719-.997-1.654-.997-2.806 0-1.237.339-2.224 1.019-2.96.679-.738 1.602-1.106 2.768-1.106 1.08 0 1.949.358 2.607 1.073.662.715.993 1.65.993 2.806 0 1.255-.338 2.247-1.014 2.977-.676.73-1.579 1.094-2.709 1.094Zm.059-6.83c-.705 0-1.279.263-1.722.789-.44.526-.66 1.218-.66 2.076 0 .855.214 1.543.643 2.065.43.522.991.784 1.685.784.737 0 1.318-.25 1.743-.746.426-.497.639-1.193.639-2.087 0-.92-.208-1.63-.622-2.13-.412-.5-.98-.75-1.706-.75Zm5.075 6.7V35.56h4.49v1.089h-3.214v2.103h1.47c.787 0 1.399.186 1.835.558.44.372.66.9.66 1.582 0 .73-.235 1.306-.703 1.728-.465.422-1.1.633-1.904.633h-2.634Zm1.276-3.486v2.467h1.154c.468 0 .829-.11 1.083-.332.254-.222.381-.531.381-.928 0-.805-.481-1.207-1.443-1.207h-1.175Zm8.407 3.615c-1.109 0-1.998-.36-2.667-1.078-.665-.719-.997-1.654-.997-2.806 0-1.237.339-2.224 1.019-2.96.679-.738 1.602-1.106 2.768-1.106 1.08 0 1.949.358 2.607 1.073.662.715.993 1.65.993 2.806 0 1.255-.338 2.247-1.014 2.977-.676.73-1.579 1.094-2.709 1.094Zm.059-6.829c-.705 0-1.279.263-1.722.789-.44.526-.66 1.218-.66 2.076 0 .855.214 1.543.644 2.065.429.522.99.784 1.684.784.737 0 1.318-.25 1.743-.746.426-.497.639-1.193.639-2.087 0-.92-.208-1.63-.622-2.13-.412-.5-.98-.75-1.706-.75Zm6.346 3.911v2.79h-1.271V35.56h2.333c.884 0 1.568.205 2.055.617.486.411.729.99.729 1.738 0 .747-.254 1.359-.761 1.834-.508.476-1.195.714-2.06.714h-1.025Zm0-3.852v2.811h.826c.547 0 .964-.127 1.25-.38.286-.255.429-.612.429-1.074 0-.904-.525-1.357-1.577-1.357h-.928Zm8.272 6.77c-1.109 0-1.997-.36-2.666-1.078-.665-.719-.998-1.654-.998-2.806 0-1.237.34-2.224 1.019-2.96.68-.738 1.603-1.106 2.769-1.106 1.08 0 1.949.358 2.607 1.073.661.715.992 1.65.992 2.806 0 1.255-.338 2.247-1.014 2.977-.676.73-1.579 1.094-2.709 1.094Zm.059-6.829c-.704 0-1.278.263-1.722.789-.44.526-.66 1.218-.66 2.076 0 .855.215 1.543.644 2.065.429.522.991.784 1.685.784.736 0 1.317-.25 1.743-.746.426-.497.638-1.193.638-2.087 0-.92-.207-1.63-.622-2.13-.411-.5-.98-.75-1.706-.75Zm9.549.091h-2.21v6.61h-1.277v-6.61h-2.205V35.56h5.692v1.083Z"/></g><path fill="#00C5A8" fill-rule="evenodd" d="M16.515 55.339V6.91c0-.55.54-.932 1.05-.743l9.188 3.402-10.238 45.77Z" clip-rule="evenodd"/><path fill="#2CAC9F" d="M16.515 13.239V8.625a.699.699 0 0 0-.956.67l.073 3.815.883.129Z"/><path fill="#2CAC9F" d="M16.515 55.339v-42.1l-.883-.129.883 42.229Z"/><path fill="#00DBC5" fill-rule="evenodd" d="M16.515 55.339.795 20.219a.791.791 0 0 1 .712-1.119h4.86L16.514 55.34Z" clip-rule="evenodd"/><path fill="#2CAC9F" d="M7.474 19.1 6.29 14.564c-.565-.171-1.094.357-.933.932l1.01 3.606h1.107Z"/><path fill="#2CAC9F" d="M16.515 55.339 7.475 19.1H6.365l10.15 36.238Z"/><path fill="#00DBC5" fill-rule="evenodd" d="M27.6 9.883 16.516 55.34h40.716c.364 0 .68-.255.762-.613L65.055 23.9a.796.796 0 0 0-.33-.84L31.047.538a.779.779 0 0 0-1.19.474l-.384 1.6-1.873 7.272Z" clip-rule="evenodd"/><path fill="#2CAC9F" d="m27.6 9.883 1.874-7.272-.084-.059a.78.78 0 0 0-1.204.483l-1.433 6.534.848.314Z"/><path fill="#2CAC9F" d="M16.515 55.339 27.601 9.883l-.848-.314-10.238 45.77Z"/><path fill="#019F94" d="m7.474 19.1 9.041 36.239-.883-42.229-8.936-1.3a.788.788 0 0 0-.867.986l.461 1.767L7.474 19.1Z"/><path fill="#fff" d="M39.43 22.811c.446-1.195 1.642-1.718 2.861-1.449 3.596.982 7.145 1.98 10.64 2.914 1.485.388 2.415 1.845 2.102 3.262-1.14 5.447-2.282 10.87-3.424 16.286-.289 1.402-1.547 2.542-2.845 2.526-4.51 0-8.998-.04-13.485-.087-1.563-.024-2.51-2.122-2.025-4.173a332.05 332.05 0 0 1 6.176-19.279Z"/><path fill="#151515" d="M44.564 26.044c-.336 0-.641.142-.704.514-.008.388.196.737.532.792 1.594.285 3.205.618 4.784.903a1307.88 1307.88 0 0 0-1.728 10.411c-2.697-.15-5.355-.3-8.028-.483-.516-.063-.813.602-.82 1.283.155.974.304 1.924.437 2.898.023.42.29.601.563.49.265-.094.453-.514.39-.878-.085-.792-.203-1.552-.32-2.352 3.08.159 6.152.285 9.248.349a68.723 68.723 0 0 0-.876 2.074c-.148.34-.07.689.196.784.242.103.555-.087.688-.412.336-.84.711-1.678 1.078-2.494.259-.57-.007-1.18-.508-1.188-.343-.023-.68-.031-1.032-.04.61-3.46 1.236-6.895 1.861-10.316.133-.673-.242-1.298-.868-1.401-1.626-.317-3.267-.65-4.893-.934Z"/><path fill="#151515" d="M40.538 34.404c.016-.395.273-.68.57-.633 1.548.19 3.096.372 4.644.538.29.048.485.357.445.713-.046.364-.351.65-.61.626-1.578-.135-3.048-.286-4.604-.468-.281-.031-.484-.395-.445-.776ZM42.265 30.026c-.304-.032-.594.23-.633.618-.047.396.18.744.493.807 1.297.198 2.634.372 3.955.57.297.032.61-.221.634-.586.086-.364-.141-.712-.446-.744-1.321-.206-2.674-.42-4.003-.665Z"/></g><defs><clipPath id="a"><path fill="#fff" d="M0 .475h220v54.792H0z"/></clipPath><clipPath id="b"><path fill="#fff" d="M76.697 7.947H220.32v38.19H76.697z"/></clipPath></defs></svg>