<svg xmlns="http://www.w3.org/2000/svg" width="191" height="37" fill="none"><path fill="#222" d="M8.565 30.656c.016 1.25-.351 2.287-1.1 3.11-.742.824-1.717 1.228-2.927 1.212-1.217 0-2.196-.404-2.938-1.212-.733-.815-1.1-1.852-1.1-3.11 0-1.258.367-2.291 1.1-3.099.742-.816 1.721-1.223 2.938-1.223 1.21-.016 2.185.388 2.927 1.211.749.824 1.116 1.86 1.1 3.11Zm-5.923-2.249c-.484.575-.726 1.325-.726 2.249 0 .924.242 1.674.726 2.248.484.575 1.116.862 1.896.862.789 0 1.42-.283 1.897-.85.476-.575.714-1.328.714-2.26 0-.932-.238-1.682-.714-2.249-.476-.574-1.108-.862-1.897-.862-.78 0-1.412.288-1.896.862ZM17.293 30.656c.016 1.25-.351 2.287-1.1 3.11-.742.824-1.717 1.228-2.927 1.212-1.217 0-2.196-.404-2.938-1.212-.733-.815-1.1-1.852-1.1-3.11 0-1.258.367-2.291 1.1-3.099.742-.816 1.721-1.223 2.938-1.223 1.21-.016 2.185.388 2.927 1.211.749.824 1.116 1.86 1.1 3.11Zm-5.923-2.249c-.484.575-.726 1.325-.726 2.249 0 .924.242 1.674.726 2.248.484.575 1.116.862 1.896.862.789 0 1.42-.283 1.897-.85.476-.575.714-1.328.714-2.26 0-.932-.238-1.682-.714-2.249-.476-.574-1.108-.862-1.897-.862-.78 0-1.412.288-1.896.862ZM26.021 30.656c.016 1.25-.351 2.287-1.1 3.11-.741.824-1.717 1.228-2.927 1.212-1.217 0-2.196-.404-2.938-1.212-.733-.815-1.1-1.852-1.1-3.11 0-1.258.367-2.291 1.1-3.099.742-.816 1.721-1.223 2.938-1.223 1.21-.016 2.186.388 2.927 1.211.749.824 1.116 1.86 1.1 3.11Zm-5.923-2.249c-.484.575-.726 1.325-.726 2.249 0 .924.242 1.674.726 2.248.484.575 1.116.862 1.896.862.789 0 1.42-.283 1.897-.85.476-.575.714-1.328.714-2.26 0-.932-.238-1.682-.714-2.249-.476-.574-1.108-.862-1.896-.862-.78 0-1.413.288-1.897.862ZM29.127 29.468v-1.422l.807-1.526h.726l-.726 1.526h.68v1.422h-1.487Zm2.353 0v-1.422l.807-1.526h.726l-.726 1.526h.679v1.422H31.48ZM40.996 26.52v8.272h-1.393v-3.74h-4.05v3.74h-1.381V26.52h1.381v3.367h4.05V26.52h1.393ZM48.058 31.868c0 .908-.28 1.654-.843 2.236-.554.575-1.268.863-2.142.863-.882 0-1.604-.288-2.165-.863-.554-.574-.831-1.32-.831-2.236 0-.925.277-1.674.83-2.249.563-.575 1.284-.862 2.166-.862.874 0 1.588.291 2.142.874.562.574.843 1.32.843 2.237Zm-4.67 0c0 .605.152 1.095.456 1.468.304.364.714.547 1.23.547.499 0 .9-.183 1.205-.547.312-.373.468-.863.468-1.468 0-.614-.152-1.103-.456-1.468-.305-.373-.71-.56-1.218-.56-.515 0-.925.187-1.229.56-.304.365-.456.854-.456 1.468ZM54.263 33.16c0 .498-.175.894-.527 1.19-.35.294-.835.442-1.451.442h-3.301v-5.849h3.102c.608 0 1.096.14 1.463.42.375.272.562.648.562 1.13 0 .303-.09.57-.27.804a1.51 1.51 0 0 1-.725.489c.359.093.64.26.843.501.203.233.304.524.304.874Zm-4.015-3.25v1.468h1.616c.647 0 .971-.252.971-.757 0-.474-.32-.71-.96-.71h-1.627Zm1.65 3.891c.71 0 1.066-.256 1.066-.768 0-.513-.363-.77-1.089-.77h-1.627v1.538h1.65ZM55.243 34.792v-5.849h1.288v1.841h1.545c.686 0 1.233.179 1.638.536.414.357.62.847.62 1.468s-.206 1.11-.62 1.468c-.405.357-.952.536-1.638.536h-2.833Zm1.288-1.049H57.9c.75 0 1.124-.318 1.124-.955s-.375-.955-1.124-.955h-1.37v1.91Zm5.782-4.8v5.849h-1.288v-5.849h1.288ZM68.089 33.01l.75.78c-.415.42-.828.722-1.242.909a3.335 3.335 0 0 1-1.357.268c-.93 0-1.663-.276-2.201-.828-.539-.559-.808-1.305-.808-2.237 0-.924.262-1.677.785-2.26.53-.59 1.232-.885 2.106-.885.859 0 1.522.256 1.99.769.476.505.714 1.208.714 2.108 0 .148-.007.323-.023.525h-4.308c.047.528.223.947.527 1.258.304.31.718.466 1.24.466.336 0 .63-.062.879-.186.25-.125.566-.354.948-.688Zm-3.558-1.783h3.031c-.023-.45-.164-.804-.421-1.06-.258-.265-.609-.397-1.054-.397-.413 0-.757.129-1.03.385-.265.248-.44.606-.526 1.072ZM77.658 26.52h1.51v8.272h-1.346v-3.25c0-1.375.027-2.521.082-3.438-.39.7-1.015 1.74-1.873 3.123l-2.224 3.565H72.32V26.52h1.346v3.355c0 1.406-.023 2.505-.07 3.297a55.269 55.269 0 0 1 1.756-2.947l2.306-3.705ZM85.703 34.792h-1.288v-2.517h-2.529v2.517H80.6v-5.849h1.287v2.284h2.529v-2.284h1.287v5.849ZM91.654 29.98H89.7v4.812h-1.287V29.98h-1.943v-1.037h5.185v1.037ZM96.709 33.01l.75.78c-.414.42-.828.722-1.242.909a3.335 3.335 0 0 1-1.357.268c-.93 0-1.663-.276-2.201-.828-.538-.559-.808-1.305-.808-2.237 0-.924.262-1.677.784-2.26.531-.59 1.233-.885 2.108-.885.858 0 1.521.256 1.99.769.475.505.713 1.208.713 2.108 0 .148-.007.323-.023.525h-4.308c.047.528.223.947.527 1.258.305.31.718.466 1.241.466.336 0 .628-.062.878-.186.25-.125.566-.354.948-.688Zm-3.558-1.783h3.031c-.023-.45-.164-.804-.421-1.06-.258-.265-.609-.397-1.054-.397-.413 0-.756.129-1.03.385-.265.248-.44.606-.526 1.072ZM104.117 31.856c0 .924-.246 1.67-.738 2.237-.492.567-1.116.85-1.873.85-.804 0-1.416-.276-1.838-.827v2.773h-1.287v-7.946h1.194v.827c.429-.66 1.077-.99 1.943-.99.757 0 1.377.284 1.861.85.492.568.738 1.31.738 2.226Zm-1.745 1.444c.289-.364.434-.846.434-1.444s-.141-1.076-.422-1.433c-.281-.365-.659-.548-1.135-.548-.492 0-.89.183-1.194.548-.297.357-.445.835-.445 1.433 0 .606.152 1.087.456 1.444.305.358.699.536 1.183.536.468 0 .842-.178 1.123-.535ZM110.155 34.792h-1.287v-2.517h-2.528v2.517h-1.288v-5.849h1.288v2.284h2.528v-2.284h1.287v5.849ZM115.943 33.01l.749.78c-.413.42-.827.722-1.24.909a3.338 3.338 0 0 1-1.358.268c-.929 0-1.662-.276-2.201-.828-.538-.559-.808-1.305-.808-2.237 0-.924.262-1.677.785-2.26.53-.59 1.233-.885 2.107-.885.858 0 1.521.256 1.99.769.476.505.714 1.208.714 2.108 0 .148-.008.323-.024.525h-4.307c.046.528.222.947.526 1.258.305.31.718.466 1.241.466.336 0 .628-.062.878-.186.25-.125.566-.354.948-.688Zm-3.558-1.783h3.031c-.023-.45-.163-.804-.421-1.06-.257-.265-.609-.397-1.053-.397-.414 0-.757.129-1.03.385-.266.248-.441.606-.527 1.072ZM122.16 29.98h-1.954v4.812h-1.288V29.98h-1.943v-1.037h5.185v1.037ZM131.362 26.52v1.177h-2.563v7.095h-1.393v-7.095h-2.552V26.52h6.508ZM135.481 33.01l.749.78c-.414.42-.827.722-1.241.909a3.335 3.335 0 0 1-1.358.268c-.928 0-1.662-.276-2.2-.828-.539-.559-.808-1.305-.808-2.237 0-.924.262-1.677.784-2.26.531-.59 1.233-.885 2.107-.885.859 0 1.522.256 1.99.769.476.505.714 1.208.714 2.108 0 .148-.007.323-.023.525h-4.308c.047.528.223.947.527 1.258.304.31.718.466 1.241.466.335 0 .628-.062.878-.186.249-.125.565-.354.948-.688Zm-3.559-1.783h3.032c-.023-.45-.164-.804-.421-1.06-.258-.265-.609-.397-1.054-.397-.413 0-.757.129-1.03.385-.265.248-.441.606-.527 1.072ZM142.004 34.792h-1.428l-1.428-2.167-1.463 2.167h-1.393l2.13-3.064-1.943-2.785h1.405l1.276 1.876 1.252-1.876h1.393l-1.919 2.738 2.118 3.11ZM147.727 34.792h-1.288v-2.517h-2.528v2.517h-1.287v-5.849h1.287v2.284h2.528v-2.284h1.288v5.849ZM154.639 31.868c0 .908-.281 1.654-.843 2.236-.554.575-1.268.863-2.142.863-.882 0-1.604-.288-2.166-.863-.554-.574-.831-1.32-.831-2.236 0-.925.277-1.674.831-2.249.562-.575 1.284-.862 2.166-.862.874 0 1.588.291 2.142.874.562.574.843 1.32.843 2.237Zm-4.671 0c0 .605.152 1.095.457 1.468.304.364.714.547 1.229.547.499 0 .901-.183 1.205-.547.312-.373.469-.863.469-1.468 0-.614-.153-1.103-.457-1.468-.304-.373-.71-.56-1.217-.56-.515 0-.925.187-1.229.56-.305.365-.457.854-.457 1.468ZM154.729 34.78l.117-1.037c.21.031.359.047.444.047.344-.023.558-.155.644-.396.086-.241.137-.824.152-1.748l.024-2.703h4.565v5.849h-1.288V29.98h-2.107l-.023 1.69c-.016 1.234-.137 2.07-.363 2.504-.226.428-.687.657-1.381.688-.297 0-.558-.028-.784-.082ZM167.568 31.868c0 .908-.281 1.654-.843 2.236-.554.575-1.268.863-2.142.863-.882 0-1.603-.288-2.165-.863-.554-.574-.831-1.32-.831-2.236 0-.925.277-1.674.831-2.249.562-.575 1.283-.862 2.165-.862.874 0 1.588.291 2.142.874.562.574.843 1.32.843 2.237Zm-4.67 0c0 .605.152 1.095.456 1.468.304.364.714.547 1.229.547.5 0 .901-.183 1.206-.547.312-.373.468-.863.468-1.468 0-.614-.152-1.103-.456-1.468-.305-.373-.711-.56-1.218-.56-.515 0-.925.187-1.229.56-.304.365-.456.854-.456 1.468ZM172.591 29.98h-2.809v4.812h-1.288v-5.849h4.097v1.037ZM177.303 28.943h1.405v5.849h-1.206v-2.144c0-1.11.016-1.926.047-2.446-.57.963-.967 1.63-1.194 2.003l-1.603 2.587h-1.405v-5.849h1.194v2.26c0 .855-.012 1.628-.035 2.319.429-.761.823-1.43 1.182-2.004l1.615-2.575ZM183.94 28.943h1.404v5.849h-1.205v-2.144c0-1.11.015-1.926.046-2.446a206.31 206.31 0 0 1-1.194 2.003l-1.603 2.587h-1.405v-5.849h1.194v2.26c0 .855-.012 1.628-.035 2.319.429-.761.823-1.43 1.182-2.004l1.616-2.575ZM187.884 26.52v1.421l-.808 1.527h-.726l.726-1.527h-.679v-1.42h1.487Zm2.352 0v1.421l-.807 1.527h-.726l.726-1.527h-.679v-1.42h1.486ZM7.725 8.2l4.263 6.437H9.602l-3.67-5.49H4.17v5.49H2.08V4.465H.5l1.053-2.048H4.17v4.836h1.761l3.49-4.837h2.37L7.725 8.2Zm3.621 2.03c0-.952.209-1.783.626-2.495a4.054 4.054 0 0 1 1.662-1.532 4.955 4.955 0 0 1 2.271-.533c.834 0 1.586.172 2.255.516a3.959 3.959 0 0 1 1.662 1.583c.406.689.61 1.51.61 2.462 0 .964-.204 1.796-.61 2.496a4.221 4.221 0 0 1-1.662 1.6 4.732 4.732 0 0 1-2.255.551 4.796 4.796 0 0 1-2.255-.55 4.152 4.152 0 0 1-1.695-1.601c-.406-.712-.609-1.544-.609-2.496Zm35.501-4.285h1.86v1.188a2.835 2.835 0 0 1 1.136-1.05c.483-.253 1.103-.379 1.86-.379.779 0 1.47.184 2.073.55.582.38 1.032.919 1.35 1.619.33.688.494 1.48.494 2.375 0 .907-.165 1.71-.494 2.41-.318.688-.768 1.222-1.35 1.6a2.819 2.819 0 0 1-.97.43 4 4 0 0 1-1.103.156c-.648 0-1.13-.052-1.449-.155-.658-.207-1.124-.551-1.399-1.033v4.062h-2.008V5.945Zm-25.346 0h1.992V9.25H26.9V5.945h1.975v8.692H26.9v-3.666h-3.407v3.666H21.5V5.945Zm8.246 0H37.4v1.652h-2.83v7.04h-2.025v-7.04h-2.798V5.945Zm10.402 0a132.67 132.67 0 0 1 2.04 6.334c.582-2.065 1.24-4.177 1.976-6.334h2.008l-3.062 8.864c-.252.723-.493 1.28-.724 1.67-.252.39-.565.683-.938.878-.362.206-.845.31-1.448.31-.34 0-.527-.006-.56-.018l-.675-1.652c.209.046.467.069.774.069.373 0 .675-.058.905-.172.209-.092.368-.218.477-.379.11-.15.203-.338.28-.568l-3.16-9.002h2.107ZM13.37 10.214c0 .952.22 1.68.658 2.186.439.493 1.048.74 1.827.74.79 0 1.404-.247 1.843-.74.45-.505.675-1.234.675-2.186 0-.93-.22-1.63-.658-2.1-.44-.482-1.06-.723-1.86-.723-.79 0-1.405.24-1.844.723-.427.47-.641 1.17-.641 2.1Zm35.435.017c.022.86.241 1.549.658 2.065.417.517 1.004.775 1.761.775.758 0 1.339-.258 1.745-.775.417-.516.63-1.205.642-2.065-.011-.85-.225-1.526-.642-2.031-.406-.517-.987-.775-1.745-.775-.757 0-1.344.253-1.76.758-.418.504-.637 1.187-.659 2.048Z"/><path stroke="#222" stroke-width=".704" d="M59.836.296V20"/><path fill="#222" d="M72.761 10.425c.017 1.295-.379 2.368-1.188 3.22-.8.853-1.853 1.271-3.16 1.255-1.314 0-2.372-.418-3.172-1.254-.792-.844-1.188-1.918-1.188-3.22 0-1.303.396-2.373 1.188-3.209.8-.844 1.858-1.266 3.172-1.266 1.306-.017 2.36.402 3.16 1.254.81.852 1.205 1.926 1.189 3.22Zm-6.395-2.328c-.523.596-.784 1.372-.784 2.328 0 .957.261 1.733.784 2.328.522.595 1.205.893 2.047.893.851 0 1.534-.294 2.048-.88.514-.596.771-1.376.771-2.34 0-.966-.257-1.741-.771-2.329-.514-.595-1.197-.892-2.048-.892-.842 0-1.525.297-2.047.893ZM76.688 6.144h1.34V8.47c1.078.04 1.946.338 2.604.893.657.555.986 1.327.986 2.316 0 .989-.329 1.76-.986 2.316-.658.554-1.526.852-2.604.892v1.99h-1.34v-1.99c-1.053-.032-1.921-.325-2.604-.88-.657-.555-.986-1.331-.986-2.328 0-1.005.329-1.777.986-2.316.674-.563 1.542-.86 2.604-.893V6.144Zm.038 7.67v-4.27c-.7.017-1.243.21-1.63.58-.388.37-.582.888-.582 1.556 0 .667.194 1.186.581 1.556.388.37.932.563 1.631.579Zm1.264-4.27v4.27c.7-.015 1.243-.208 1.63-.578.388-.37.582-.889.582-1.556 0-.668-.194-1.186-.581-1.556-.388-.37-.932-.563-1.631-.58ZM86.55 8.652h1.517v6.055h-1.302v-2.219c0-1.15.017-1.994.05-2.533-.615.997-1.045 1.689-1.289 2.075l-1.732 2.677h-1.516V8.652h1.289v2.34c0 .885-.013 1.685-.038 2.4.463-.787.889-1.479 1.277-2.074l1.744-2.666ZM94.171 16.215v-1.508h-5.056V8.652h1.39v4.982h2.705V8.652h1.39v4.982h.923v2.581h-1.352ZM100.336 8.652h1.517v6.055h-1.302v-2.219c0-1.15.017-1.994.05-2.533a245.22 245.22 0 0 1-1.289 2.075l-1.732 2.677h-1.516V8.652h1.289v2.34c0 .885-.013 1.685-.038 2.4.463-.787.889-1.479 1.276-2.074l1.745-2.666ZM108.235 10.57v4.137h-1.251v-.687c-.422.587-1.121.88-2.099.88-.682 0-1.234-.144-1.655-.434-.413-.29-.62-.716-.62-1.278 0-.636.249-1.106.746-1.412.514-.321 1.213-.559 2.098-.711l1.454-.254v-.217c0-.33-.118-.583-.354-.76-.236-.185-.556-.277-.961-.277-.387 0-.729.076-1.024.23-.286.144-.623.401-1.011.771l-.872-.772c.775-.884 1.732-1.327 2.869-1.327.851 0 1.509.19 1.972.567.472.378.708.893.708 1.544Zm-1.327 1.761v-.555l-1.1.217c-.666.137-1.138.286-1.416.447-.278.152-.417.378-.417.675 0 .225.097.402.291.53.202.13.476.194.822.194.53 0 .964-.133 1.302-.398.345-.274.518-.644.518-1.11ZM108.527 14.695l.126-1.073c.228.032.388.048.481.048.371-.024.602-.16.695-.41.093-.25.147-.852.164-1.81l.026-2.798h4.929v6.055h-1.39V9.726h-2.275l-.026 1.749c-.017 1.278-.147 2.143-.392 2.593-.244.442-.741.68-1.491.712-.32 0-.603-.028-.847-.085ZM115.983 14.707V8.652h1.391v1.906h1.668c.742 0 1.332.185 1.77.555.446.37.67.876.67 1.52 0 .643-.224 1.15-.67 1.52-.438.37-1.028.554-1.77.554h-3.059Zm1.391-1.085h1.479c.808 0 1.213-.33 1.213-.99 0-.659-.405-.988-1.213-.988h-1.479v1.978ZM127.603 14.707h-1.39v-2.605h-2.73v2.605h-1.391V8.652h1.391v2.364h2.73V8.652h1.39v6.055ZM128.658 14.707V8.652h1.391v1.906h1.668c.742 0 1.332.185 1.77.555.446.37.67.876.67 1.52 0 .643-.224 1.15-.67 1.52-.438.37-1.028.554-1.77.554h-3.059Zm1.391-1.085h1.479c.808 0 1.213-.33 1.213-.99 0-.659-.405-.988-1.213-.988h-1.479v1.978Zm6.244-4.97v6.055h-1.391V8.652h1.391ZM143.124 8.652v6.055h-1.302v-2.219c0-1.15.017-1.994.051-2.533-.616.997-1.045 1.689-1.29 2.075l-1.731 2.677h-1.517V8.652h1.289v2.34c0 .893-.013 1.693-.038 2.4.464-.787.889-1.479 1.277-2.074l1.744-2.666h1.517Zm-.758-2.412h-1.125c0 .579-.337.868-1.012.868-.674 0-1.011-.289-1.011-.868h-1.137c0 .563.189.985.568 1.266.38.282.906.423 1.58.423.666 0 1.189-.141 1.568-.423.379-.281.569-.703.569-1.266ZM146.418 14.707V8.652h5.435v6.055h-1.39V9.726h-2.655v4.981h-1.39ZM158.231 10.57v4.137h-1.251v-.687c-.421.587-1.121.88-2.098.88-.683 0-1.235-.144-1.656-.434-.413-.29-.619-.716-.619-1.278 0-.636.248-1.106.745-1.412.514-.321 1.214-.559 2.099-.711l1.453-.254v-.217c0-.33-.118-.583-.354-.76-.236-.185-.556-.277-.96-.277-.388 0-.729.076-1.024.23-.287.144-.624.401-1.011.771l-.873-.772c.776-.884 1.732-1.327 2.87-1.327.851 0 1.508.19 1.972.567.471.378.707.893.707 1.544Zm-1.327 1.761v-.555l-1.1.217c-.665.137-1.137.286-1.415.447-.278.152-.417.378-.417.675 0 .225.097.402.29.53.203.13.477.194.822.194.531 0 .965-.133 1.302-.398.345-.274.518-.644.518-1.11ZM165.409 11.668c0 .957-.265 1.729-.796 2.316-.531.587-1.205.88-2.022.88-.868 0-1.53-.285-1.985-.856v2.87h-1.39V8.652h1.289v.857c.463-.684 1.163-1.026 2.098-1.026.818 0 1.487.294 2.01.881.531.587.796 1.355.796 2.304Zm-1.883 1.495c.312-.377.468-.876.468-1.495 0-.62-.152-1.114-.455-1.484-.304-.378-.713-.567-1.227-.567-.53 0-.96.19-1.289.567-.32.37-.48.865-.48 1.484 0 .627.164 1.126.493 1.495.328.37.754.555 1.276.555.506 0 .911-.185 1.214-.555ZM170.9 9.726h-2.111v4.981h-1.391V9.726H165.3V8.652h5.6v1.074ZM176.909 14.707h-1.391v-2.605h-2.73v2.605h-1.39V8.652h1.39v2.364h2.73V8.652h1.391v6.055ZM182.83 12.862l.809.808c-.447.434-.894.748-1.34.94a3.734 3.734 0 0 1-1.466.278c-1.003 0-1.795-.285-2.377-.856-.581-.58-.872-1.351-.872-2.316 0-.957.282-1.737.847-2.34.573-.611 1.331-.917 2.275-.917.927 0 1.643.266 2.149.796.514.523.771 1.25.771 2.184 0 .152-.008.333-.025.542h-4.652c.051.547.24.981.569 1.303.329.322.775.482 1.34.482.362 0 .678-.064.948-.193.27-.128.611-.365 1.024-.711Zm-3.843-1.846h3.274c-.025-.466-.177-.832-.455-1.097-.278-.274-.657-.41-1.138-.41-.446 0-.817.132-1.112.398-.286.257-.476.627-.569 1.11ZM190.5 11.668c0 .957-.265 1.729-.796 2.316-.531.587-1.205.88-2.023.88-.868 0-1.529-.285-1.984-.856v2.87h-1.391V8.652h1.29v.857c.463-.684 1.163-1.026 2.098-1.026.817 0 1.487.294 2.01.881.531.587.796 1.355.796 2.304Zm-1.883 1.495c.311-.377.467-.876.467-1.495 0-.62-.151-1.114-.455-1.484-.303-.378-.712-.567-1.226-.567-.531 0-.96.19-1.289.567-.32.37-.48.865-.48 1.484 0 .627.164 1.126.493 1.495.328.37.754.555 1.276.555.506 0 .91-.185 1.214-.555Z"/></svg>