<svg xmlns="http://www.w3.org/2000/svg" width="245" height="48" fill="none"><path fill="#222" d="M10.4 39.148c.02 1.612-.453 2.95-1.42 4.011-.955 1.062-2.213 1.583-3.773 1.563-1.57 0-2.832-.521-3.788-1.563C.473 42.108 0 40.77 0 39.15c0-1.623.473-2.955 1.419-3.997.956-1.052 2.219-1.577 3.788-1.577 1.56-.02 2.818.5 3.774 1.562.966 1.062 1.439 2.399 1.419 4.011Zm-7.638-2.9c-.624.742-.936 1.708-.936 2.9s.312 2.158.936 2.9c.624.74 1.44 1.111 2.445 1.111 1.017 0 1.832-.365 2.446-1.096.613-.742.92-1.713.92-2.915s-.307-2.168-.92-2.9c-.614-.74-1.43-1.111-2.446-1.111-1.006 0-1.821.37-2.445 1.112ZM21.654 39.148c.02 1.612-.453 2.95-1.419 4.011-.956 1.062-2.213 1.583-3.773 1.563-1.57 0-2.833-.521-3.788-1.563-.946-1.051-1.42-2.389-1.42-4.01 0-1.623.474-2.955 1.42-3.997.955-1.052 2.218-1.577 3.788-1.577 1.56-.02 2.817.5 3.773 1.562.966 1.062 1.44 2.399 1.42 4.011Zm-7.637-2.9c-.624.742-.936 1.708-.936 2.9s.312 2.158.936 2.9c.624.74 1.439 1.111 2.445 1.111 1.016 0 1.831-.365 2.445-1.096.614-.742.92-1.713.92-2.915s-.306-2.168-.92-2.9c-.614-.74-1.429-1.111-2.445-1.111-1.006 0-1.821.37-2.445 1.112ZM32.909 39.148c.02 1.612-.453 2.95-1.419 4.011-.956 1.062-2.214 1.583-3.773 1.563-1.57 0-2.833-.521-3.789-1.563-.946-1.051-1.419-2.389-1.419-4.01 0-1.623.473-2.955 1.42-3.997.955-1.052 2.218-1.577 3.788-1.577 1.56-.02 2.817.5 3.773 1.562.966 1.062 1.439 2.399 1.419 4.011Zm-7.637-2.9c-.624.742-.936 1.708-.936 2.9s.312 2.158.936 2.9c.623.74 1.438 1.111 2.445 1.111 1.016 0 1.831-.365 2.445-1.096.614-.742.92-1.713.92-2.915s-.306-2.168-.92-2.9c-.614-.74-1.429-1.111-2.445-1.111-1.007 0-1.822.37-2.445 1.112ZM36.913 37.616v-1.833l1.042-1.968h.936l-.936 1.968h.875v1.833h-1.917Zm3.034 0v-1.833l1.042-1.968h.936l-.936 1.968h.875v1.833h-1.917ZM52.219 33.815v10.666h-1.797V39.66H45.2v4.822H43.42V33.815H45.2v4.342h5.222v-4.342h1.797ZM61.325 40.71c0 1.172-.362 2.134-1.087 2.885-.714.74-1.635 1.111-2.762 1.111-1.137 0-2.068-.37-2.792-1.111-.715-.741-1.072-1.703-1.072-2.885 0-1.191.357-2.158 1.072-2.899.724-.741 1.655-1.112 2.792-1.112 1.127 0 2.048.376 2.762 1.127.725.741 1.087 1.703 1.087 2.884Zm-6.023 0c0 .782.197 1.413.59 1.893.391.471.92.706 1.584.706.644 0 1.162-.235 1.555-.706.402-.48.603-1.111.603-1.893 0-.79-.196-1.422-.588-1.892-.393-.481-.916-.721-1.57-.721-.664 0-1.193.24-1.585.72-.392.471-.589 1.102-.589 1.893ZM69.326 42.378c0 .64-.226 1.152-.68 1.532-.452.38-1.076.571-1.87.571h-4.257V36.94h4c.784 0 1.413.18 1.886.54.483.351.725.837.725 1.458 0 .39-.116.736-.347 1.036-.232.29-.544.501-.936.631.463.12.825.336 1.087.646.261.3.392.676.392 1.127Zm-5.177-4.191v1.893h2.083c.835 0 1.253-.326 1.253-.977 0-.61-.413-.916-1.238-.916h-2.098Zm2.128 5.017c.916 0 1.374-.33 1.374-.991s-.468-.992-1.404-.992h-2.098v1.983h2.128ZM70.59 44.481V36.94h1.66v2.373h1.992c.886 0 1.59.23 2.113.691.534.461.8 1.092.8 1.893 0 .801-.266 1.432-.8 1.893-.523.46-1.227.691-2.113.691H70.59Zm1.66-1.352h1.766c.966 0 1.449-.41 1.449-1.232 0-.821-.483-1.232-1.45-1.232H72.25v2.464Zm7.456-6.19v7.542h-1.66V36.94h1.66ZM87.154 42.183l.966 1.006c-.533.541-1.067.932-1.6 1.172a4.3 4.3 0 0 1-1.75.346c-1.198 0-2.144-.356-2.838-1.067-.695-.721-1.042-1.683-1.042-2.885 0-1.191.337-2.163 1.011-2.914.685-.761 1.59-1.142 2.717-1.142 1.107 0 1.963.33 2.566.992.614.65.921 1.557.921 2.719 0 .19-.01.416-.03.676H82.52c.06.681.287 1.222.68 1.622.392.401.925.601 1.6.601.432 0 .81-.08 1.132-.24.322-.16.73-.456 1.222-.886Zm-4.588-2.299h3.909c-.03-.58-.211-1.036-.543-1.367-.332-.34-.785-.51-1.359-.51-.533 0-.976.165-1.328.495-.342.32-.569.781-.68 1.382ZM99.493 33.815h1.947v10.666h-1.736V40.29c0-1.773.036-3.25.106-4.432-.503.902-1.308 2.244-2.415 4.026l-2.868 4.597H92.61V33.815h1.736v4.327c0 1.812-.03 3.23-.09 4.251a71.24 71.24 0 0 1 2.264-3.8l2.973-4.778ZM109.866 44.481h-1.66v-3.245h-3.26v3.245h-1.661V36.94h1.661v2.944h3.26V36.94h1.66v7.541ZM117.541 38.277h-2.521v6.204h-1.66v-6.204h-2.506V36.94h6.687v1.337ZM124.059 42.183l.966 1.006c-.533.541-1.067.932-1.6 1.172a4.299 4.299 0 0 1-1.751.346c-1.197 0-2.143-.356-2.837-1.067-.695-.721-1.042-1.683-1.042-2.885 0-1.191.337-2.163 1.011-2.914.685-.761 1.59-1.142 2.717-1.142 1.107 0 1.962.33 2.566.992.614.65.921 1.557.921 2.719 0 .19-.01.416-.03.676h-5.555c.061.681.287 1.222.679 1.622.393.401.926.601 1.6.601.433 0 .81-.08 1.132-.24.322-.16.73-.456 1.223-.886Zm-4.589-2.299h3.91c-.03-.58-.212-1.036-.544-1.367-.332-.34-.784-.51-1.358-.51-.533 0-.976.165-1.328.495-.342.32-.569.781-.68 1.382ZM133.611 40.695c0 1.192-.317 2.154-.951 2.885-.634.73-1.439 1.096-2.415 1.096-1.037 0-1.827-.355-2.37-1.066v3.575h-1.66V36.94h1.539v1.066c.554-.85 1.389-1.277 2.506-1.277.976 0 1.776.366 2.4 1.097.634.731.951 1.688.951 2.87Zm-2.249 1.863c.372-.47.558-1.091.558-1.863 0-.77-.181-1.387-.543-1.847-.362-.471-.85-.706-1.464-.706-.634 0-1.147.235-1.54.706-.382.46-.573 1.076-.573 1.847 0 .782.196 1.402.588 1.863.393.46.901.691 1.525.691.604 0 1.087-.23 1.449-.69ZM141.398 44.481h-1.66v-3.245h-3.261v3.245h-1.66V36.94h1.66v2.944h3.261V36.94h1.66v7.541ZM148.861 42.183l.966 1.006c-.533.541-1.067.932-1.6 1.172a4.299 4.299 0 0 1-1.751.346c-1.197 0-2.143-.356-2.837-1.067-.695-.721-1.042-1.683-1.042-2.885 0-1.191.337-2.163 1.011-2.914.685-.761 1.59-1.142 2.717-1.142 1.107 0 1.962.33 2.566.992.614.65.921 1.557.921 2.719 0 .19-.01.416-.03.676h-5.555c.061.681.287 1.222.679 1.622.393.401.926.601 1.6.601.433 0 .81-.08 1.132-.24.322-.16.73-.456 1.223-.886Zm-4.589-2.299h3.91c-.03-.58-.212-1.036-.544-1.367-.332-.34-.784-.51-1.358-.51-.533 0-.976.165-1.328.495-.342.32-.569.781-.68 1.382ZM156.878 38.277h-2.521v6.204h-1.66v-6.204h-2.506V36.94h6.687v1.337ZM168.744 33.815v1.517h-3.306v9.15h-1.796v-9.15h-3.29v-1.517h8.392ZM174.054 42.183l.966 1.006c-.533.541-1.066.932-1.6 1.172a4.299 4.299 0 0 1-1.751.346c-1.197 0-2.143-.356-2.837-1.067-.694-.721-1.042-1.683-1.042-2.885 0-1.191.337-2.163 1.012-2.914.684-.761 1.59-1.142 2.717-1.142 1.106 0 1.962.33 2.565.992.614.65.921 1.557.921 2.719 0 .19-.01.416-.03.676h-5.555c.061.681.287 1.222.68 1.622.392.401.925.601 1.6.601.432 0 .81-.08 1.132-.24.322-.16.729-.456 1.222-.886Zm-4.588-2.299h3.909c-.03-.58-.211-1.036-.543-1.367-.332-.34-.785-.51-1.359-.51-.533 0-.976.165-1.328.495-.342.32-.569.781-.679 1.382ZM182.466 44.481h-1.841l-1.842-2.794-1.887 2.794H175.1l2.747-3.95-2.505-3.591h1.811l1.645 2.418 1.615-2.418h1.796l-2.475 3.53 2.732 4.011ZM189.845 44.481h-1.66v-3.245h-3.26v3.245h-1.66V36.94h1.66v2.944h3.26V36.94h1.66v7.541ZM198.758 40.71c0 1.172-.363 2.134-1.087 2.885-.715.74-1.635 1.111-2.762 1.111-1.137 0-2.068-.37-2.793-1.111-.714-.741-1.071-1.703-1.071-2.885 0-1.191.357-2.158 1.071-2.899.725-.741 1.656-1.112 2.793-1.112 1.127 0 2.047.376 2.762 1.127.724.741 1.087 1.703 1.087 2.884Zm-6.023 0c0 .782.196 1.413.589 1.893.392.471.921.706 1.585.706.644 0 1.162-.235 1.554-.706.403-.48.604-1.111.604-1.893 0-.79-.196-1.422-.589-1.892-.392-.481-.915-.721-1.569-.721-.664 0-1.193.24-1.585.72-.393.471-.589 1.102-.589 1.893ZM198.874 44.466l.151-1.337c.271.04.462.06.573.06.443-.03.72-.2.83-.51.111-.311.176-1.062.196-2.254l.031-3.485h5.886v7.541h-1.66v-6.204h-2.717l-.03 2.178c-.02 1.592-.176 2.67-.468 3.23-.292.55-.886.846-1.781.886a4.35 4.35 0 0 1-1.011-.105ZM215.43 40.71c0 1.172-.362 2.134-1.087 2.885-.714.74-1.635 1.111-2.762 1.111-1.137 0-2.068-.37-2.792-1.111-.715-.741-1.072-1.703-1.072-2.885 0-1.191.357-2.158 1.072-2.899.724-.741 1.655-1.112 2.792-1.112 1.127 0 2.048.376 2.762 1.127.725.741 1.087 1.703 1.087 2.884Zm-6.023 0c0 .782.197 1.413.589 1.893.393.471.921.706 1.585.706.644 0 1.162-.235 1.555-.706.402-.48.603-1.111.603-1.893 0-.79-.196-1.422-.588-1.892-.393-.481-.916-.721-1.57-.721-.664 0-1.192.24-1.585.72-.392.471-.589 1.102-.589 1.893ZM221.907 38.277h-3.623v6.204h-1.66V36.94h5.283v1.337ZM227.983 36.94h1.811v7.541h-1.554v-2.764c0-1.432.02-2.484.06-3.155a321.8 321.8 0 0 1-1.539 2.584l-2.068 3.335h-1.811V36.94h1.539v2.914c0 1.102-.015 2.098-.045 2.99a67.072 67.072 0 0 1 1.524-2.584l2.083-3.32ZM236.54 36.94h1.812v7.541h-1.555v-2.764c0-1.432.02-2.484.06-3.155a293.537 293.537 0 0 1-1.539 2.584l-2.068 3.335h-1.811V36.94h1.539v2.914c0 1.102-.015 2.098-.045 2.99a68.303 68.303 0 0 1 1.525-2.584l2.082-3.32ZM241.626 33.815v1.833l-1.041 1.968h-.936l.936-1.968h-.876v-1.833h1.917Zm3.034 0v1.833l-1.041 1.968h-.936l.936-1.968h-.876v-1.833h1.917ZM9.317 10.191l5.497 8.301h-3.078l-4.732-7.08H4.733v7.08H2.037V5.375H0l1.358-2.641h3.375V8.97h2.27l4.5-6.237h3.056L9.317 10.19Zm4.669 2.62c0-1.229.269-2.302.806-3.219a5.228 5.228 0 0 1 2.144-1.975 6.39 6.39 0 0 1 2.929-.688c1.075 0 2.044.222 2.907.666a5.104 5.104 0 0 1 2.144 2.041c.523.888.785 1.946.785 3.174 0 1.243-.262 2.316-.785 3.219a5.444 5.444 0 0 1-2.144 2.064c-.891.473-1.86.71-2.907.71a6.183 6.183 0 0 1-2.908-.71 5.354 5.354 0 0 1-2.186-2.064c-.523-.918-.785-1.99-.785-3.219Zm45.778-5.527h2.398v1.531a3.655 3.655 0 0 1 1.464-1.354c.623-.325 1.422-.488 2.399-.488 1.004 0 1.895.237 2.674.71.75.489 1.33 1.184 1.74 2.087.424.887.637 1.908.637 3.063 0 1.168-.213 2.204-.637 3.107-.41.888-.99 1.575-1.74 2.064a3.635 3.635 0 0 1-1.252.555c-.467.133-.941.2-1.422.2-.835 0-1.458-.067-1.868-.2-.849-.267-1.45-.71-1.804-1.332v5.238h-2.59V7.284Zm-32.684 0h2.569v4.261h4.393V7.284h2.546v11.208h-2.546v-4.727h-4.394v4.727h-2.567V7.284Zm10.633 0h9.869v2.13h-3.65v9.078h-2.61V9.414h-3.609v-2.13Zm13.413 0c.962 2.752 1.84 5.474 2.632 8.167.75-2.663 1.598-5.386 2.546-8.167h2.59l-3.948 11.43c-.325.932-.636 1.65-.934 2.153-.325.503-.728.88-1.21 1.132-.466.266-1.089.4-1.867.4-.439 0-.68-.008-.721-.023l-.87-2.13c.268.059.6.088.997.088.48 0 .87-.074 1.167-.222.269-.118.474-.28.615-.488.142-.192.262-.436.361-.732L48.41 7.284h2.717Zm-34.53 5.504c0 1.228.283 2.168.85 2.819.565.636 1.35.954 2.355.954 1.019 0 1.811-.318 2.377-.954.58-.651.87-1.59.87-2.819 0-1.198-.283-2.101-.849-2.708-.566-.621-1.365-.932-2.398-.932-1.019 0-1.811.31-2.377.932-.552.607-.828 1.51-.828 2.708Zm45.693.022c.029 1.11.312 1.998.85 2.664.537.666 1.294.998 2.27.998s1.726-.332 2.25-.998c.537-.666.813-1.554.827-2.664-.014-1.095-.29-1.968-.827-2.619-.524-.666-1.274-.998-2.25-.998s-1.733.325-2.27.976c-.538.651-.821 1.531-.85 2.641Z"/><path stroke="#222" stroke-width=".907" d="M76.513 0v25.407"/><path fill="#222" d="M93.18 13.061c.021 1.67-.49 3.054-1.533 4.153-1.032 1.1-2.39 1.638-4.075 1.618-1.695 0-3.058-.54-4.09-1.618-1.022-1.089-1.533-2.473-1.533-4.153 0-1.68.511-3.058 1.532-4.137 1.033-1.089 2.396-1.633 4.092-1.633 1.684-.02 3.042.519 4.074 1.618 1.043 1.099 1.554 2.483 1.532 4.152Zm-8.248-3.001c-.674.767-1.01 1.768-1.01 3.001 0 1.234.336 2.235 1.01 3.002.674.767 1.554 1.151 2.64 1.151 1.098 0 1.978-.378 2.64-1.135.664-.768.995-1.773.995-3.018 0-1.244-.331-2.245-.994-3.001-.663-.768-1.543-1.151-2.64-1.151-1.087 0-1.967.383-2.641 1.15ZM98.243 7.54h1.727v3.002c1.391.052 2.51.435 3.358 1.15.847.716 1.271 1.711 1.271 2.987 0 1.275-.424 2.27-1.271 2.986-.848.716-1.967 1.1-3.358 1.151v2.566h-1.727v-2.566c-1.359-.041-2.478-.42-3.358-1.135-.848-.716-1.271-1.716-1.271-3.002 0-1.296.423-2.292 1.27-2.986.87-.726 1.99-1.11 3.359-1.151V7.54Zm.048 9.892v-5.506c-.901.02-1.602.27-2.102.746-.5.477-.75 1.146-.75 2.007 0 .86.25 1.53.75 2.006.5.477 1.2.726 2.102.747Zm1.63-5.506v5.506c.902-.02 1.603-.27 2.103-.747.5-.477.75-1.145.75-2.006 0-.86-.25-1.53-.75-2.007-.5-.476-1.201-.725-2.103-.746ZM110.959 10.775h1.956v7.808h-1.679V15.72c0-1.483.022-2.572.065-3.266a320.132 320.132 0 0 1-1.662 2.675l-2.233 3.453h-1.956v-7.808h1.663v3.017c0 1.14-.017 2.173-.049 3.095a68.514 68.514 0 0 1 1.646-2.675l2.249-3.437ZM120.786 20.527v-1.944h-6.519v-7.808h1.793v6.423h3.488v-6.423h1.792v6.423h1.19v3.329h-1.744ZM128.736 10.775h1.955v7.808h-1.678V15.72c0-1.483.021-2.572.065-3.266a288.09 288.09 0 0 1-1.663 2.675l-2.233 3.453h-1.955v-7.808h1.662v3.017c0 1.14-.016 2.173-.049 3.095a71.042 71.042 0 0 1 1.646-2.675l2.25-3.437ZM138.921 13.248v5.335h-1.613v-.887c-.543.757-1.445 1.136-2.706 1.136-.88 0-1.592-.187-2.135-.56-.532-.374-.799-.923-.799-1.649 0-.82.321-1.426.962-1.82.663-.414 1.565-.72 2.706-.917l1.874-.327v-.28c0-.425-.152-.752-.456-.98-.305-.238-.718-.357-1.239-.357-.5 0-.94.098-1.32.295-.37.187-.804.518-1.304.995l-1.125-.995c1-1.14 2.233-1.71 3.7-1.71 1.097 0 1.945.243 2.543.73.608.488.912 1.151.912 1.991Zm-1.711 2.27v-.715l-1.418.28c-.858.177-1.467.368-1.825.576-.359.197-.538.487-.538.87 0 .291.125.52.375.685.26.166.613.249 1.059.249.685 0 1.244-.171 1.679-.513.445-.353.668-.83.668-1.431ZM139.298 18.567l.163-1.384c.293.041.5.062.619.062.478-.03.777-.207.897-.529.119-.321.19-1.099.212-2.333l.032-3.608h6.357v7.808h-1.793v-6.424h-2.934l-.032 2.255c-.022 1.65-.191 2.764-.506 3.344-.315.57-.956.877-1.923.918-.413 0-.777-.036-1.092-.109ZM148.913 18.583v-7.808h1.792v2.457h2.152c.956 0 1.717.239 2.282.716.576.477.864 1.13.864 1.96 0 .83-.288 1.482-.864 1.96-.565.476-1.326.715-2.282.715h-3.944Zm1.792-1.4h1.907c1.044 0 1.565-.425 1.565-1.275 0-.85-.521-1.276-1.565-1.276h-1.907v2.551ZM163.896 18.583h-1.792v-3.36h-3.521v3.36h-1.793v-7.808h1.793v3.048h3.521v-3.048h1.792v7.808ZM165.257 18.583v-7.808h1.793v2.457h2.151c.956 0 1.717.239 2.282.716.576.477.864 1.13.864 1.96 0 .83-.288 1.482-.864 1.96-.565.476-1.326.715-2.282.715h-3.944Zm1.793-1.4h1.907c1.043 0 1.564-.425 1.564-1.275 0-.85-.521-1.276-1.564-1.276h-1.907v2.551Zm8.051-6.408v7.808h-1.793v-7.808h1.793ZM183.91 10.775v7.808h-1.679V15.72c0-1.483.022-2.572.065-3.266a320.132 320.132 0 0 1-1.662 2.675l-2.233 3.453h-1.956v-7.808h1.662v3.017c0 1.151-.016 2.183-.048 3.095a68.514 68.514 0 0 1 1.646-2.675l2.249-3.437h1.956Zm-.978-3.11h-1.451c0 .746-.434 1.12-1.304 1.12-.869 0-1.304-.374-1.304-1.12h-1.466c0 .725.244 1.27.733 1.632.489.363 1.168.545 2.037.545.859 0 1.532-.182 2.021-.545.489-.362.734-.907.734-1.633ZM188.157 18.583v-7.808h7.009v7.808h-1.793v-6.424h-3.423v6.424h-1.793ZM203.39 13.248v5.335h-1.613v-.887c-.543.757-1.445 1.136-2.706 1.136-.88 0-1.592-.187-2.135-.56-.532-.374-.799-.923-.799-1.649 0-.82.321-1.426.962-1.82.663-.414 1.565-.72 2.706-.917l1.874-.327v-.28c0-.425-.152-.752-.456-.98-.305-.238-.717-.357-1.239-.357-.5 0-.94.098-1.32.295-.37.187-.804.518-1.304.995l-1.125-.995c1-1.14 2.233-1.71 3.7-1.71 1.098 0 1.945.243 2.543.73.608.488.912 1.151.912 1.991Zm-1.711 2.27v-.715l-1.418.28c-.858.177-1.467.368-1.825.576-.359.197-.538.487-.538.87 0 .291.125.52.375.685.26.166.613.249 1.059.249.685 0 1.244-.171 1.679-.513.445-.353.668-.83.668-1.431ZM212.646 14.663c0 1.234-.342 2.23-1.027 2.987-.684.757-1.554 1.135-2.608 1.135-1.119 0-1.972-.368-2.558-1.104v3.701h-1.793V10.775h1.662v1.104c.598-.881 1.5-1.322 2.706-1.322 1.054 0 1.918.379 2.591 1.136.685.757 1.027 1.747 1.027 2.97Zm-2.428 1.929c.402-.487.603-1.13.603-1.929 0-.798-.196-1.436-.587-1.913-.391-.487-.918-.73-1.581-.73-.685 0-1.239.243-1.663.73-.412.477-.619 1.115-.619 1.913 0 .81.212 1.452.636 1.929.424.477.972.715 1.646.715.652 0 1.173-.238 1.565-.715ZM219.726 12.16h-2.722v6.423h-1.793v-6.424h-2.706v-1.384h7.221v1.384ZM227.474 18.583h-1.793v-3.36h-3.52v3.36h-1.793v-7.808h1.793v3.048h3.52v-3.048h1.793v7.808ZM235.109 16.203l1.044 1.042c-.576.56-1.152.964-1.728 1.213-.565.239-1.195.358-1.891.358-1.293 0-2.314-.368-3.064-1.104-.75-.747-1.125-1.742-1.125-2.986 0-1.234.364-2.24 1.092-3.018.739-.788 1.717-1.182 2.934-1.182 1.195 0 2.119.342 2.771 1.027.663.674.994 1.612.994 2.815 0 .197-.011.43-.032.7h-5.998c.065.705.309 1.265.733 1.68.424.414 1 .622 1.728.622.467 0 .875-.083 1.222-.25.348-.165.788-.471 1.32-.917Zm-4.954-2.38h4.221c-.033-.6-.228-1.073-.587-1.415-.358-.352-.847-.529-1.467-.529-.576 0-1.054.171-1.434.514-.369.331-.614.808-.733 1.43ZM245 14.663c0 1.234-.342 2.23-1.027 2.987-.684.757-1.554 1.135-2.608 1.135-1.119 0-1.972-.368-2.559-1.104v3.701h-1.792V10.775h1.662v1.104c.598-.881 1.5-1.322 2.706-1.322 1.054 0 1.918.379 2.591 1.136.685.757 1.027 1.747 1.027 2.97Zm-2.429 1.929c.403-.487.604-1.13.604-1.929 0-.798-.196-1.436-.587-1.913-.391-.487-.918-.73-1.581-.73-.685 0-1.239.243-1.663.73-.413.477-.619 1.115-.619 1.913 0 .81.212 1.452.636 1.929.423.477.972.715 1.646.715.652 0 1.173-.238 1.564-.715Z"/></svg>