<svg xmlns="http://www.w3.org/2000/svg" width="100" height="43" fill="none"><g clip-path="url(#a)"><g clip-path="url(#b)"><path fill="#2A2A2A" d="M35.663 28.544v-4.245c1.582.926 3.364 1.39 5.348 1.39 3.636 0 5.69-1.733 6.164-5.197h-8.354v-3.868h8.385c-.625-3.565-2.68-5.348-6.164-5.348-1.984 0-3.777.423-5.379 1.27V8.148c1.682-.574 3.641-.861 5.877-.861 3.435 0 6.119.992 8.052 2.976 1.934 1.974 2.901 4.734 2.901 8.279 0 3.354-.962 6.053-2.886 8.097-1.923 2.035-4.552 3.052-7.886 3.052-2.447 0-4.466-.383-6.058-1.148Zm40.715 6.677h-4.29v-5.907H58.34v5.907h-4.23v-9.895h2.009c2.8-5.066 4.346-10.958 4.638-17.676h12.539v17.676h3.082v9.895ZM68.4 25.326V11.714h-3.686c-.11 2.005-.494 4.26-1.148 6.768-.655 2.508-1.466 4.79-2.433 6.844h7.267Zm20.743 4.366c-3.103 0-5.63-1.007-7.584-3.021-1.954-2.025-2.931-4.659-2.931-7.901 0-3.425.992-6.194 2.976-8.31 1.984-2.115 4.613-3.172 7.886-3.172 3.092 0 5.59 1.012 7.493 3.037 1.914 2.024 2.87 4.693 2.87 8.006 0 3.405-.991 6.15-2.975 8.234-1.975 2.085-4.553 3.127-7.736 3.127Zm.211-18.204c-1.712 0-3.072.644-4.079 1.934-1.007 1.279-1.51 2.976-1.51 5.09 0 2.146.503 3.843 1.51 5.092 1.007 1.249 2.327 1.873 3.958 1.873 1.682 0 3.017-.604 4.004-1.813.987-1.218 1.48-2.905 1.48-5.06 0-2.247-.478-3.994-1.435-5.243-.957-1.249-2.266-1.873-3.928-1.873Z"/></g><path fill="url(#c)" d="M28.513 38.836c0 .763-.545 1.416-1.216 1.455l-25.9 1.503C.629 41.84 0 41.208 0 40.386V3.428c0-.821.628-1.464 1.398-1.433L27.297 3.04c.671.027 1.216.67 1.216 1.434v34.362Z"/><path fill="url(#d)" d="M29.274 38.836c0 .763-.545 1.416-1.216 1.455l-25.9 1.503c-.77.045-1.397-.586-1.397-1.408V3.428c0-.821.628-1.464 1.397-1.433l25.9 1.045c.671.027 1.216.67 1.216 1.434v34.361Z"/><path fill="url(#e)" d="M1.412 3.452v36.899c0 .439.334.776.746.753l20.483-1.155 5.416-.305c.36-.02.65-.368.65-.777V4.452c0-.409-.29-.752-.65-.765l-5.611-.217-20.288-.784c-.412-.016-.746.327-.746.766Z"/><path fill="#D8DEE8" d="M28.35 37.275a.291.291 0 0 1-.274.29l-25.939 1.32c-.173.008-.313-.117-.313-.28V3.453c0-.163.14-.29.313-.284l25.939.97a.29.29 0 0 1 .273.287v32.849Z"/><path fill="url(#f)" d="m18.151 39.563-5.267.288c-.281.015-.51-.18-.51-.434v-.02c0-.254.229-.473.51-.488l5.267-.275c.274-.015.495.177.495.428v.019c0 .25-.221.467-.495.481Z"/><path fill="url(#g)" d="M15.805 3.213c0 .136-.12.241-.27.235-.149-.005-.27-.12-.27-.256s.121-.241.27-.235c.15.006.27.12.27.256Z"/><path fill="#fff" d="M22.419 36.417c-.106-2.252 2.411-3.573 2.17-6.75-.022-.287-.247-2.745-2.236-4.411-1.786-1.497-3.288-.934-6.594-2.127-2.316-.837-4.921-1.777-5.975-3.664-2.092-3.747 3.886-7.49 2.662-12.341-.35-1.39-1.34-3.093-3.955-4.873l-6.333-.256c-.77-.03-1.397.612-1.397 1.433v36.958c0 .822.628 1.453 1.397 1.408l23.598-1.37c-2.513-1.445-3.283-2.834-3.337-4.007Z" opacity=".3" style="mix-blend-mode:screen"/><path fill="url(#h)" d="M26.497 36.07 3.19 37.78l.126-35.023 23.18.551v32.763Z"/><path fill="#fff" d="M15.307 7.67 4.753 7.56l.01-2.918 10.548.194-.004 2.833ZM10.87 15.06l-3.388.037.01-3.681h3.386l-.008 3.645ZM23.865 13.156l-11.912.072.004-1.817 11.908-.01v1.755ZM10.852 22.416l-3.391.11.01-3.689 3.39-.073-.01 3.652ZM23.862 20.239l-11.924.322.003-1.821 11.921-.26v1.759ZM10.835 29.787l-3.395.185.01-3.697 3.393-.148-.008 3.66ZM23.861 27.336l-11.937.573.004-1.825 11.934-.51-.001 1.762Z"/><path fill="#fff" d="M17.192 36.695 3.204 37.72l.119-35.023 8.64.205c-1.69 2.89-3.751 8.665 2.145 14.077 5.992 5.5 8.394 13.909 3.084 19.715Z" opacity=".3" style="mix-blend-mode:soft-light"/><path fill="url(#i)" d="M27.302 1.365V34.13l-9.305.683-13.988 1.026L4.127.814l8.641.206 14.534.345Z"/><path fill="#fff" d="M17.997 34.812 4.009 35.838 4.127.814l8.641.206c-1.69 2.89-3.751 8.665 2.145 14.077 5.991 5.5 8.393 13.908 3.084 19.715Z" opacity=".5" style="mix-blend-mode:soft-light"/><path fill="url(#j)" d="M16.138 5.726 5.584 5.617l.01-2.918 10.548.195-.004 2.832Z" opacity=".6" style="mix-blend-mode:multiply"/><path fill="url(#k)" d="m11.938 13.36-3.387.037.01-3.68h3.385l-.008 3.644Z" opacity=".6" style="mix-blend-mode:multiply"/><path fill="#fff" d="m24.935 11.456-11.912.072.004-1.817 11.909-.01-.001 1.755Z" opacity=".5"/><path fill="url(#l)" d="m11.921 20.716-3.39.11.01-3.689 3.388-.073-.008 3.652Z" opacity=".6" style="mix-blend-mode:multiply"/><path fill="#fff" d="m24.932 18.54-11.924.32.004-1.82 11.92-.26v1.76Z" opacity=".5"/><path fill="url(#m)" d="m11.906 28.087-3.395.185.01-3.697 3.393-.148-.008 3.66Z" opacity=".6" style="mix-blend-mode:multiply"/><path fill="#fff" d="m24.93 25.637-11.937.572.004-1.825 11.934-.51v1.763Z" opacity=".5"/></g><defs><linearGradient id="c" x1="1.642" x2="26.607" y1="8.591" y2="36.245" gradientUnits="userSpaceOnUse"><stop stop-color="#26264F"/><stop offset="1" stop-color="#444B8C"/></linearGradient><linearGradient id="d" x1="1.316" x2="32.871" y1="21.917" y2="21.033" gradientUnits="userSpaceOnUse"><stop stop-color="#444B8C"/><stop offset="1" stop-color="#26264F"/></linearGradient><linearGradient id="e" x1="231282" x2="197967" y1="-35924.1" y2="-74693.7" gradientUnits="userSpaceOnUse"><stop stop-color="#5EE5AE"/><stop offset="1" stop-color="#26264F"/></linearGradient><linearGradient id="f" x1="10879.1" x2="10871.1" y1="3598.39" y2="3911.83" gradientUnits="userSpaceOnUse"><stop stop-color="#444B8C"/><stop offset="1" stop-color="#26264F"/></linearGradient><linearGradient id="g" x1="15.402" x2="15.695" y1="3.056" y2="3.382" gradientUnits="userSpaceOnUse"><stop stop-color="#FF9085"/><stop offset="1" stop-color="#FB6FBB"/></linearGradient><linearGradient id="h" x1="10.41" x2="19.872" y1="47.798" y2="-12.56" gradientUnits="userSpaceOnUse"><stop stop-color="#38A59D"/><stop offset="1" stop-color="#1DBBBA"/></linearGradient><linearGradient id="i" x1="-2201.16" x2="79183.1" y1="193401" y2="78547.6" gradientUnits="userSpaceOnUse"><stop stop-color="#5EE5AE"/><stop offset="1" stop-color="#1DBBBA"/></linearGradient><linearGradient id="j" x1="11452.1" x2="18550.4" y1="2433.74" y2="2433.74" gradientUnits="userSpaceOnUse"><stop stop-color="#FF9085"/><stop offset="1" stop-color="#FB6FBB"/></linearGradient><linearGradient id="k" x1="4330.6" x2="5064.61" y1="4695.79" y2="4695.79" gradientUnits="userSpaceOnUse"><stop stop-color="#FF9085"/><stop offset="1" stop-color="#FB6FBB"/></linearGradient><linearGradient id="l" x1="4331.15" x2="5066.86" y1="6586.02" y2="6586.02" gradientUnits="userSpaceOnUse"><stop stop-color="#FF9085"/><stop offset="1" stop-color="#FB6FBB"/></linearGradient><linearGradient id="m" x1="4331.7" x2="5069.11" y1="8559.23" y2="8559.23" gradientUnits="userSpaceOnUse"><stop stop-color="#FF9085"/><stop offset="1" stop-color="#FB6FBB"/></linearGradient><clipPath id="a"><path fill="#fff" d="M0 .755h100v41.49H0z"/></clipPath><clipPath id="b"><path fill="#fff" d="M33.494 6.725h67.793v29.55H33.494z"/></clipPath></defs></svg>