<svg xmlns="http://www.w3.org/2000/svg" width="180" height="36" fill="none"><path fill="#222" d="M7.64 29.725c.015 1.184-.332 2.167-1.042 2.947-.702.78-1.626 1.162-2.772 1.148-1.153 0-2.081-.383-2.784-1.148C.347 31.899 0 30.917 0 29.725c0-1.192.347-2.17 1.042-2.936.703-.773 1.63-1.159 2.784-1.159 1.146-.015 2.07.368 2.772 1.148.71.78 1.057 1.762 1.043 2.947Zm-5.61-2.13c-.459.544-.688 1.254-.688 2.13 0 .875.229 1.585.687 2.13.459.544 1.058.817 1.797.817.746 0 1.345-.269 1.796-.806.451-.544.677-1.258.677-2.141s-.226-1.593-.677-2.13c-.45-.545-1.05-.817-1.796-.817-.74 0-1.338.272-1.797.817ZM15.91 29.725c.014 1.184-.333 2.167-1.043 2.947-.703.78-1.627 1.162-2.773 1.148-1.153 0-2.08-.383-2.783-1.148-.695-.773-1.042-1.755-1.042-2.947 0-1.192.347-2.17 1.042-2.936.702-.773 1.63-1.159 2.784-1.159 1.145-.015 2.07.368 2.772 1.148.71.78 1.057 1.762 1.042 2.947Zm-5.612-2.13c-.458.544-.687 1.254-.687 2.13 0 .875.229 1.585.687 2.13.458.544 1.057.817 1.796.817.747 0 1.346-.269 1.797-.806.451-.544.676-1.258.676-2.141s-.225-1.593-.676-2.13c-.451-.545-1.05-.817-1.796-.817-.74 0-1.339.272-1.797.817ZM24.178 29.725c.015 1.184-.333 2.167-1.042 2.947-.703.78-1.627 1.162-2.773 1.148-1.153 0-2.08-.383-2.783-1.148-.695-.773-1.043-1.755-1.043-2.947 0-1.192.348-2.17 1.043-2.936.702-.773 1.63-1.159 2.783-1.159 1.146-.015 2.07.368 2.773 1.148.71.78 1.057 1.762 1.042 2.947Zm-5.611-2.13c-.459.544-.688 1.254-.688 2.13 0 .875.23 1.585.688 2.13.458.544 1.057.817 1.796.817.747 0 1.346-.269 1.797-.806.45-.544.676-1.258.676-2.141s-.225-1.593-.676-2.13c-.451-.545-1.05-.817-1.797-.817-.739 0-1.338.272-1.796.817ZM27.12 28.599v-1.346l.765-1.446h.688l-.688 1.446h.643v1.346H27.12Zm2.229 0v-1.346l.765-1.446h.688l-.688 1.446h.643v1.346H29.35ZM38.365 25.807v7.836h-1.32V30.1h-3.837v3.543H31.9v-7.836h1.308v3.19h3.837v-3.19h1.32ZM45.055 30.873c0 .86-.266 1.567-.798 2.119-.525.544-1.202.817-2.03.817-.835 0-1.519-.273-2.051-.817-.525-.545-.788-1.251-.788-2.12 0-.875.263-1.585.788-2.13.532-.544 1.216-.816 2.051-.816.828 0 1.505.276 2.03.828.532.544.798 1.25.798 2.119Zm-4.425 0c0 .574.145 1.037.433 1.39.288.346.676.52 1.164.52.473 0 .854-.174 1.142-.52.296-.353.444-.816.444-1.39 0-.582-.144-1.045-.433-1.391-.288-.353-.672-.53-1.153-.53-.488 0-.876.177-1.164.53-.288.346-.433.81-.433 1.39ZM50.933 32.098c0 .47-.166.846-.499 1.126-.332.28-.79.419-1.375.419h-3.127v-5.54h2.939c.576 0 1.038.132 1.386.397.355.257.532.614.532 1.07 0 .287-.085.541-.255.762-.17.213-.399.368-.687.463.34.089.606.247.798.475.192.22.288.497.288.828Zm-3.803-3.08v1.391h1.53c.614 0 .92-.239.92-.717 0-.45-.303-.674-.909-.674H47.13Zm1.563 3.687c.673 0 1.01-.243 1.01-.729 0-.485-.344-.728-1.032-.728H47.13v1.457h1.563ZM51.862 33.643v-5.54h1.22v1.743h1.463c.65 0 1.168.17 1.553.508.392.338.588.802.588 1.39 0 .59-.196 1.053-.588 1.391-.385.339-.902.508-1.553.508h-2.683Zm1.22-.993h1.297c.71 0 1.065-.302 1.065-.905 0-.604-.355-.905-1.065-.905h-1.297v1.81Zm5.478-4.548v5.541h-1.22v-5.54h1.22ZM64.032 31.954l.71.74c-.392.397-.784.684-1.176.86a3.16 3.16 0 0 1-1.287.255c-.88 0-1.574-.262-2.084-.784-.51-.53-.765-1.236-.765-2.12 0-.875.247-1.589.742-2.14.503-.56 1.169-.84 1.997-.84.813 0 1.441.244 1.885.73.45.477.676 1.143.676 1.997 0 .14-.007.305-.022.497h-4.08c.044.5.21.897.498 1.192.288.294.68.441 1.176.441.318 0 .595-.059.831-.176.237-.118.536-.335.899-.652Zm-3.371-1.688h2.872c-.023-.427-.156-.762-.4-1.005-.244-.25-.576-.375-.998-.375-.392 0-.717.121-.975.364-.252.236-.418.574-.5 1.016ZM73.097 25.807h1.43v7.836h-1.275v-3.08c0-1.302.026-2.387.078-3.255-.37.662-.961 1.648-1.775 2.958l-2.106 3.377H68.04v-7.836h1.275v3.178c0 1.332-.022 2.373-.066 3.124a52.286 52.286 0 0 1 1.663-2.793l2.185-3.51ZM80.718 33.643h-1.22v-2.384h-2.395v2.384h-1.22v-5.54h1.22v2.163h2.395v-2.164h1.22v5.541ZM86.356 29.085h-1.851v4.558h-1.22v-4.558h-1.841v-.983h4.912v.983ZM91.145 31.954l.71.74c-.392.397-.784.684-1.175.86a3.16 3.16 0 0 1-1.287.255c-.88 0-1.574-.262-2.085-.784-.51-.53-.765-1.236-.765-2.12 0-.875.248-1.589.743-2.14.503-.56 1.168-.84 1.996-.84.814 0 1.442.244 1.886.73.45.477.676 1.143.676 1.997 0 .14-.007.305-.022.497H87.74c.044.5.21.897.499 1.192.288.294.68.441 1.175.441.318 0 .596-.059.832-.176.237-.118.536-.335.898-.652Zm-3.37-1.688h2.871c-.022-.427-.155-.762-.399-1.005-.244-.25-.576-.375-.998-.375-.392 0-.717.121-.976.364-.251.236-.417.574-.499 1.016ZM98.163 30.862c0 .875-.233 1.582-.699 2.119a2.246 2.246 0 0 1-1.774.805c-.761 0-1.342-.26-1.74-.783v2.627h-1.22v-7.528h1.13v.784c.407-.625 1.02-.938 1.841-.938.717 0 1.305.268 1.763.805.466.538.699 1.24.699 2.109Zm-1.652 1.368c.273-.346.41-.802.41-1.368 0-.567-.133-1.02-.4-1.358-.265-.346-.624-.519-1.075-.519-.466 0-.843.173-1.131.52-.28.338-.421.79-.421 1.357 0 .574.144 1.03.432 1.368.288.339.662.508 1.12.508.444 0 .799-.17 1.065-.508ZM103.884 33.643h-1.22v-2.384h-2.395v2.384h-1.22v-5.54h1.22v2.163h2.395v-2.164h1.22v5.541ZM109.367 31.954l.71.74c-.392.397-.784.684-1.175.86-.385.17-.814.255-1.287.255-.88 0-1.575-.262-2.085-.784-.51-.53-.765-1.236-.765-2.12 0-.875.248-1.589.743-2.14.503-.56 1.168-.84 1.996-.84.813 0 1.442.244 1.885.73.451.477.677 1.143.677 1.997 0 .14-.007.305-.022.497h-4.081c.044.5.211.897.499 1.192.288.294.68.441 1.175.441.318 0 .595-.059.832-.176.237-.118.536-.335.898-.652Zm-3.371-1.688h2.872c-.022-.427-.155-.762-.399-1.005-.244-.25-.577-.375-.998-.375-.392 0-.717.121-.976.364-.251.236-.418.574-.499 1.016ZM115.257 29.085h-1.852v4.558h-1.22v-4.558h-1.84v-.983h4.912v.983ZM123.975 25.807v1.114h-2.429v6.722h-1.319v-6.722h-2.418v-1.114h6.166ZM127.877 31.954l.709.74c-.391.397-.783.684-1.175.86a3.16 3.16 0 0 1-1.286.255c-.88 0-1.575-.262-2.085-.784-.51-.53-.765-1.236-.765-2.12 0-.875.247-1.589.743-2.14.502-.56 1.168-.84 1.996-.84.813 0 1.441.244 1.885.73.451.477.676 1.143.676 1.997 0 .14-.007.305-.022.497h-4.081c.045.5.211.897.499 1.192.289.294.68.441 1.176.441.318 0 .595-.059.831-.176.237-.118.536-.335.899-.652Zm-3.372-1.688h2.873c-.023-.427-.156-.762-.4-1.005-.244-.25-.576-.375-.998-.375-.391 0-.717.121-.976.364-.251.236-.417.574-.499 1.016ZM134.057 33.643h-1.353l-1.353-2.053-1.386 2.053h-1.32l2.018-2.903-1.841-2.638h1.331l1.209 1.777 1.187-1.777h1.319l-1.819 2.594 2.008 2.947ZM139.478 33.643h-1.22v-2.384h-2.395v2.384h-1.22v-5.54h1.22v2.163h2.395v-2.164h1.22v5.541ZM146.026 30.873c0 .86-.266 1.567-.798 2.119-.525.544-1.202.817-2.03.817-.835 0-1.519-.273-2.051-.817-.525-.545-.788-1.251-.788-2.12 0-.875.263-1.585.788-2.13.532-.544 1.216-.816 2.051-.816.828 0 1.505.276 2.03.828.532.544.798 1.25.798 2.119Zm-4.425 0c0 .574.145 1.037.433 1.39.288.346.676.52 1.164.52.473 0 .854-.174 1.142-.52.296-.353.444-.816.444-1.39 0-.582-.144-1.045-.432-1.391-.289-.353-.673-.53-1.154-.53-.488 0-.876.177-1.164.53-.288.346-.433.81-.433 1.39ZM146.111 33.632l.111-.982c.2.029.34.044.422.044.325-.022.528-.147.609-.376.082-.228.13-.78.145-1.655l.022-2.56h4.325v5.54h-1.22v-4.558h-1.996l-.022 1.6c-.015 1.17-.13 1.96-.344 2.373-.215.405-.651.622-1.309.651-.281 0-.528-.026-.743-.077ZM158.275 30.873c0 .86-.266 1.567-.798 2.119-.525.544-1.202.817-2.03.817-.835 0-1.519-.273-2.051-.817-.525-.545-.788-1.251-.788-2.12 0-.875.263-1.585.788-2.13.532-.544 1.216-.816 2.051-.816.828 0 1.505.276 2.03.828.532.544.798 1.25.798 2.119Zm-4.425 0c0 .574.145 1.037.433 1.39.288.346.676.52 1.164.52.473 0 .854-.174 1.142-.52.296-.353.444-.816.444-1.39 0-.582-.144-1.045-.432-1.391-.289-.353-.673-.53-1.154-.53-.488 0-.876.177-1.164.53-.288.346-.433.81-.433 1.39ZM163.033 29.085h-2.661v4.558h-1.22v-5.54h3.881v.982ZM167.498 28.102h1.331v5.541h-1.143v-2.03c0-1.053.015-1.826.045-2.319-.54.913-.917 1.546-1.131 1.899l-1.52 2.45h-1.33v-5.54h1.131v2.14c0 .81-.011 1.542-.033 2.197.406-.721.78-1.354 1.12-1.898l1.53-2.44ZM173.785 28.102h1.331v5.541h-1.143v-2.03c0-1.053.015-1.826.045-2.319-.54.913-.917 1.546-1.131 1.899l-1.52 2.45h-1.33v-5.54h1.131v2.14c0 .81-.011 1.542-.033 2.197.406-.721.779-1.354 1.12-1.898l1.53-2.44ZM177.521 25.807v1.346l-.765 1.446h-.687l.687-1.446h-.643v-1.346h1.408Zm2.229 0v1.346l-.765 1.446h-.687l.687-1.446h-.643v-1.346h1.408ZM6.845 8.45l4.038 6.099h-2.26L5.145 9.347H3.477v5.202h-1.98V4.912H0l.998-1.94h2.48v4.582h1.667l3.306-4.582h2.245L6.845 8.45Zm3.43 1.925c0-.903.198-1.69.593-2.365a3.84 3.84 0 0 1 1.575-1.451 4.694 4.694 0 0 1 2.152-.506c.79 0 1.501.163 2.136.49a3.75 3.75 0 0 1 1.574 1.5c.385.652.577 1.43.577 2.332 0 .913-.192 1.7-.577 2.364a4 4 0 0 1-1.574 1.516 4.483 4.483 0 0 1-2.137.522c-.758 0-1.47-.174-2.136-.521a3.934 3.934 0 0 1-1.606-1.517c-.384-.674-.577-1.462-.577-2.364Zm33.633-4.06h1.762v1.124c.27-.434.629-.766 1.076-.994.457-.24 1.045-.359 1.762-.359.738 0 1.393.174 1.964.522.551.359.978.87 1.279 1.533.312.652.468 1.402.468 2.25 0 .859-.156 1.62-.468 2.283-.301.652-.728 1.158-1.279 1.516-.26.185-.566.32-.92.408a3.788 3.788 0 0 1-1.044.147c-.614 0-1.07-.05-1.372-.147-.624-.196-1.066-.522-1.326-.979v3.849h-1.902V6.314Zm-24.012 0h1.886v3.13h3.228v-3.13h1.871v8.234h-1.87v-3.473h-3.229v3.473h-1.886V6.314Zm7.812 0h7.25V7.88h-2.682v6.669h-1.918v-6.67h-2.65V6.315Zm9.854 0a125.641 125.641 0 0 1 1.933 6 116.639 116.639 0 0 1 1.872-6h1.902l-2.9 8.397c-.24.685-.468 1.212-.686 1.582-.24.37-.536.647-.89.831-.342.196-.8.294-1.371.294-.323 0-.5-.006-.53-.016l-.64-1.566c.198.044.442.065.733.065.354 0 .64-.054.858-.163.197-.087.348-.206.452-.358a1.95 1.95 0 0 0 .265-.539l-2.994-8.528h1.996Zm-25.369 4.043c0 .903.208 1.593.624 2.071.416.468.993.701 1.73.701.75 0 1.331-.233 1.747-.7.426-.48.64-1.17.64-2.072 0-.88-.209-1.543-.624-1.99-.416-.456-1.003-.684-1.762-.684-.749 0-1.33.228-1.747.685-.405.446-.608 1.109-.608 1.99Zm33.57.017c.021.815.23 1.467.624 1.956.395.49.951.734 1.669.734.717 0 1.268-.245 1.652-.734.395-.489.598-1.141.608-1.956-.01-.805-.213-1.446-.608-1.925-.384-.489-.935-.733-1.652-.733-.718 0-1.274.239-1.669.717s-.603 1.125-.623 1.94Z"/><path stroke="#222" stroke-width=".667" d="M56.213.963V19.63"/><path fill="#222" d="M68.458 10.56c.016 1.226-.359 2.243-1.125 3.05-.759.808-1.757 1.204-2.994 1.189-1.245 0-2.247-.397-3.006-1.189-.75-.8-1.125-1.817-1.125-3.05 0-1.235.375-2.248 1.125-3.04.759-.8 1.76-1.2 3.006-1.2 1.237-.015 2.235.38 2.994 1.188.766.808 1.141 1.825 1.125 3.051ZM62.4 8.353c-.495.563-.742 1.299-.742 2.205 0 .907.247 1.642.742 2.206.495.563 1.142.845 1.94.845.806 0 1.453-.278 1.94-.834.487-.564.73-1.303.73-2.217 0-.914-.243-1.65-.73-2.205-.487-.564-1.134-.846-1.94-.846-.798 0-1.445.282-1.94.846ZM72.178 6.503h1.27v2.205c1.021.038 1.844.32 2.466.846.623.525.934 1.256.934 2.194 0 .937-.311 1.668-.934 2.194-.622.525-1.445.807-2.466.845v1.885h-1.27v-1.885c-.998-.03-1.82-.309-2.467-.834-.622-.526-.934-1.26-.934-2.205 0-.953.312-1.684.934-2.194.639-.534 1.461-.816 2.467-.846V6.503Zm.036 7.267V9.725c-.662.015-1.177.198-1.545.549-.367.35-.55.841-.55 1.474 0 .632.183 1.123.55 1.474.368.35.883.533 1.545.548Zm1.198-4.045v4.045c.662-.015 1.177-.198 1.544-.548.367-.35.551-.842.551-1.474 0-.633-.184-1.124-.55-1.474-.368-.351-.883-.534-1.545-.549ZM81.52 8.88h1.438v5.736h-1.233v-2.103c0-1.09.016-1.89.047-2.4-.582.945-.99 1.6-1.221 1.966l-1.64 2.537h-1.438V8.879h1.222v2.217c0 .838-.012 1.596-.036 2.274a51.16 51.16 0 0 1 1.21-1.965l1.652-2.526ZM88.74 16.044v-1.428h-4.789V8.879h1.317v4.72h2.563v-4.72h1.317v4.72h.874v2.445h-1.281ZM94.581 8.88h1.437v5.736h-1.233v-2.103c0-1.09.016-1.89.048-2.4-.583.945-.99 1.6-1.222 1.966l-1.64 2.537h-1.437V8.879h1.221v2.217c0 .838-.012 1.596-.036 2.274.44-.746.843-1.402 1.21-1.965l1.652-2.526ZM102.065 10.696v3.92h-1.186v-.652c-.399.556-1.062.835-1.988.835-.646 0-1.17-.138-1.568-.412-.391-.274-.587-.678-.587-1.211 0-.602.236-1.048.706-1.337.488-.305 1.15-.53 1.988-.674l1.377-.24v-.206c0-.312-.111-.552-.335-.72-.223-.175-.527-.263-.91-.263-.367 0-.69.073-.97.217-.271.138-.59.381-.958.732l-.826-.732c.734-.837 1.64-1.256 2.718-1.256.806 0 1.429.179 1.868.537.447.358.671.845.671 1.462Zm-1.258 1.669v-.526l-1.041.206c-.631.13-1.078.27-1.342.422-.263.145-.395.358-.395.64 0 .214.092.381.276.503.191.122.45.183.778.183.503 0 .914-.126 1.233-.377.328-.26.491-.61.491-1.051ZM102.341 14.604l.12-1.017c.216.03.367.046.455.046.351-.023.571-.152.659-.389.088-.236.14-.807.156-1.714l.023-2.65h4.671v5.736h-1.318v-4.72h-2.155l-.024 1.657c-.016 1.211-.14 2.03-.371 2.457-.232.419-.703.644-1.413.674-.304 0-.571-.026-.803-.08ZM109.405 14.616V8.879h1.317v1.806h1.581c.703 0 1.261.175 1.677.525.423.35.634.83.634 1.44s-.211 1.09-.634 1.44c-.416.35-.974.526-1.677.526h-2.898Zm1.317-1.029h1.401c.767 0 1.15-.312 1.15-.937 0-.624-.383-.937-1.15-.937h-1.401v1.874ZM120.414 14.616h-1.317v-2.468h-2.587v2.468h-1.317V8.879h1.317v2.24h2.587v-2.24h1.317v5.737ZM121.413 14.616V8.879h1.317v1.806h1.581c.702 0 1.261.175 1.676.525.424.35.635.83.635 1.44s-.211 1.09-.635 1.44c-.415.35-.974.526-1.676.526h-2.898Zm1.317-1.029h1.401c.767 0 1.15-.312 1.15-.937 0-.624-.383-.937-1.15-.937h-1.401v1.874Zm5.916-4.708v5.737h-1.317V8.879h1.317ZM135.117 8.88v5.736h-1.233v-2.103c0-1.09.016-1.89.048-2.4-.583.945-.99 1.6-1.221 1.966l-1.641 2.537h-1.437V8.879h1.221v2.217c0 .846-.012 1.604-.035 2.274a51.32 51.32 0 0 1 1.209-1.965l1.652-2.526h1.437Zm-.718-2.286h-1.066c0 .548-.319.823-.958.823-.638 0-.958-.275-.958-.823h-1.077c0 .533.179.933.538 1.2.36.266.859.4 1.497.4.631 0 1.126-.134 1.485-.4.359-.267.539-.667.539-1.2ZM138.238 14.616V8.879h5.149v5.737h-1.317v-4.72h-2.515v4.72h-1.317ZM149.43 10.696v3.92h-1.186v-.652c-.399.556-1.062.835-1.988.835-.646 0-1.169-.138-1.568-.412-.391-.274-.587-.678-.587-1.211 0-.602.235-1.048.706-1.337.487-.305 1.15-.53 1.988-.674l1.377-.24v-.206c0-.312-.111-.552-.335-.72-.223-.175-.527-.263-.91-.263a2.08 2.08 0 0 0-.97.217c-.271.138-.591.381-.958.732l-.826-.732c.734-.837 1.64-1.256 2.718-1.256.806 0 1.429.179 1.868.537.447.358.671.845.671 1.462Zm-1.258 1.669v-.526l-1.041.206c-.631.13-1.078.27-1.342.422-.263.145-.395.358-.395.64 0 .214.092.381.276.503.191.122.451.183.778.183.503 0 .914-.126 1.233-.377.328-.26.491-.61.491-1.051ZM156.23 11.736c0 .907-.252 1.638-.755 2.194s-1.141.834-1.916.834c-.822 0-1.448-.27-1.88-.811v2.72h-1.317V8.878h1.222v.812c.439-.648 1.101-.972 1.987-.972.775 0 1.409.278 1.904.835.503.556.755 1.283.755 2.182Zm-1.784 1.417c.295-.358.443-.83.443-1.417 0-.587-.144-1.055-.431-1.405-.288-.358-.675-.537-1.162-.537-.503 0-.91.179-1.221.537-.304.35-.455.819-.455 1.405 0 .594.155 1.067.467 1.417.311.35.714.526 1.209.526.479 0 .862-.176 1.15-.526ZM161.431 9.896h-2v4.72h-1.317v-4.72h-1.988V8.88h5.305v1.017ZM167.124 14.616h-1.317v-2.468h-2.587v2.468h-1.317V8.879h1.317v2.24h2.587v-2.24h1.317v5.737ZM172.733 12.867l.767.766c-.423.411-.846.708-1.269.891a3.545 3.545 0 0 1-1.39.263c-.95 0-1.7-.27-2.251-.811-.551-.549-.826-1.28-.826-2.194 0-.907.267-1.646.802-2.217.543-.579 1.262-.868 2.156-.868.878 0 1.556.25 2.035.754.487.495.731 1.184.731 2.068 0 .145-.008.316-.024.514h-4.407c.048.518.228.93.539 1.234.311.305.735.457 1.269.457.344 0 .643-.06.899-.183.255-.121.578-.346.969-.674Zm-3.64-1.748h3.102c-.024-.442-.168-.788-.431-1.04-.264-.259-.623-.388-1.078-.388-.423 0-.775.125-1.054.377-.271.244-.451.594-.539 1.051ZM180 11.736c0 .907-.251 1.638-.754 2.194s-1.142.834-1.916.834c-.823 0-1.449-.27-1.88-.811v2.72h-1.318V8.878h1.222v.812c.439-.648 1.102-.972 1.988-.972.774 0 1.409.278 1.904.835.503.556.754 1.283.754 2.182Zm-1.784 1.417c.295-.358.443-.83.443-1.417 0-.587-.144-1.055-.431-1.405-.288-.358-.675-.537-1.162-.537-.503 0-.91.179-1.221.537-.304.35-.455.819-.455 1.405 0 .594.155 1.067.467 1.417.311.35.714.526 1.209.526.479 0 .862-.176 1.15-.526Z"/></svg>