<svg xmlns="http://www.w3.org/2000/svg" width="60" height="25" fill="none"><g clip-path="url(#a)"><g clip-path="url(#b)"><path fill="#2A2A2A" d="M21.398 16.89v-2.546c.949.556 2.019.834 3.21.834 2.18 0 3.413-1.04 3.697-3.119h-5.012V9.74h5.03c-.374-2.14-1.607-3.209-3.698-3.209-1.19 0-2.266.254-3.227.762V4.654c1.01-.345 2.185-.517 3.526-.517 2.061 0 3.671.595 4.832 1.786 1.16 1.184 1.74 2.84 1.74 4.967 0 2.012-.577 3.632-1.731 4.859-1.155 1.22-2.732 1.83-4.732 1.83-1.468 0-2.68-.229-3.635-.688Zm24.429 4.007h-2.574v-3.544h-8.25v3.544h-2.537V14.96h1.206c1.68-3.04 2.607-6.575 2.782-10.605h7.524V14.96h1.849v5.937ZM41.04 14.96V6.793h-2.212c-.066 1.203-.296 2.556-.689 4.061-.393 1.505-.879 2.873-1.46 4.106h4.36Zm12.445 2.62c-1.86 0-3.378-.604-4.55-1.813-1.172-1.215-1.758-2.795-1.758-4.74 0-2.055.595-3.717 1.785-4.986 1.19-1.27 2.768-1.904 4.732-1.904 1.855 0 3.354.608 4.496 1.822 1.148 1.215 1.722 2.816 1.722 4.804 0 2.043-.595 3.69-1.786 4.94-1.184 1.251-2.731 1.877-4.64 1.877Zm.127-10.923c-1.027 0-1.843.387-2.447 1.16-.604.768-.907 1.786-.907 3.055 0 1.287.303 2.306.907 3.055.604.75 1.396 1.124 2.375 1.124 1.009 0 1.81-.363 2.402-1.088.592-.731.888-1.743.888-3.036 0-1.348-.287-2.397-.861-3.146-.574-.75-1.36-1.124-2.357-1.124Z"/></g><path fill="url(#c)" d="M17.108 22.866c0 .458-.327.85-.73.873l-15.54.902C.378 24.668 0 24.29 0 23.796V1.621C0 1.13.377.743.839.761l15.54.628c.402.016.729.402.729.86v20.617Z"/><path fill="url(#d)" d="M17.564 22.866c0 .458-.327.85-.73.873l-15.54.902c-.461.027-.838-.352-.838-.845V1.621c0-.492.377-.878.839-.86l15.54.628c.402.016.729.402.729.86v20.617Z"/><path fill="url(#e)" d="M.847 1.636v22.14c0 .262.2.465.447.45l12.29-.692 3.25-.183c.215-.012.39-.221.39-.467V2.236c0-.246-.175-.452-.39-.46l-3.367-.13-12.173-.47c-.247-.01-.447.196-.447.46Z"/><path fill="#D8DEE8" d="M17.009 21.93a.175.175 0 0 1-.165.174l-15.563.791c-.103.005-.187-.07-.187-.168V1.637c0-.099.084-.175.187-.171l15.564.582a.174.174 0 0 1 .164.172v19.71Z"/><path fill="url(#f)" d="m10.891 23.302-3.16.173c-.169.01-.306-.107-.306-.26v-.012c0-.153.137-.284.306-.293l3.16-.165c.164-.009.297.106.297.257v.011c0 .15-.133.28-.297.289Z"/><path fill="url(#g)" d="M9.484 1.492c0 .082-.073.145-.162.142-.09-.004-.162-.073-.162-.154 0-.082.073-.145.162-.141.09.003.162.072.162.153Z"/><path fill="#fff" d="M13.45 21.415c-.062-1.352 1.448-2.144 1.303-4.05-.013-.172-.148-1.647-1.342-2.647-1.071-.898-1.972-.56-3.956-1.276-1.39-.502-2.953-1.066-3.585-2.199C4.615 8.995 8.202 6.75 7.467 3.84c-.21-.834-.804-1.856-2.373-2.924l-3.8-.153c-.461-.019-.838.367-.838.86v22.174c0 .493.377.872.839.845l14.158-.822c-1.508-.867-1.97-1.7-2.002-2.404Z" opacity=".3" style="mix-blend-mode:screen"/><path fill="url(#h)" d="M15.898 21.207 1.914 22.233 1.99 1.219l13.909.33v19.658Z"/><path fill="#fff" d="m9.184 4.166-6.332-.065.005-1.751 6.33.116-.003 1.7ZM6.522 8.6l-2.033.023.006-2.209h2.031l-.004 2.187ZM14.319 7.458l-7.147.043.002-1.09 7.145-.006v1.053ZM6.511 13.014l-2.034.066.006-2.213 2.033-.044-.005 2.191ZM14.317 11.708l-7.155.193.002-1.093 7.153-.155v1.055ZM6.5 17.437l-2.036.11.006-2.218 2.036-.088-.005 2.196ZM14.316 15.966l-7.163.344.003-1.095 7.16-.306v1.057Z"/><path fill="#fff" d="m10.315 21.581-8.393.616.071-21.014 5.184.123c-1.013 1.734-2.25 5.2 1.287 8.447 3.595 3.3 5.037 8.345 1.85 11.828Z" opacity=".3" style="mix-blend-mode:soft-light"/><path fill="url(#i)" d="M16.381.384v19.658l-5.583.41-8.393.615L2.476.053l5.185.123 8.72.208Z"/><path fill="#fff" d="m10.798 20.452-8.393.615L2.476.053l5.185.123c-1.014 1.735-2.251 5.2 1.287 8.447 3.595 3.3 5.036 8.345 1.85 11.829Z" opacity=".5" style="mix-blend-mode:soft-light"/><path fill="url(#j)" d="M9.683 3 3.35 2.935l.005-1.751 6.33.117L9.683 3Z" opacity=".6" style="mix-blend-mode:multiply"/><path fill="url(#k)" d="m7.163 7.581-2.032.022.006-2.209h2.031l-.005 2.187Z" opacity=".6" style="mix-blend-mode:multiply"/><path fill="#fff" d="m14.961 6.438-7.147.043.003-1.09 7.145-.006v1.053Z" opacity=".5"/><path fill="url(#l)" d="m7.153 11.994-2.035.066.006-2.213 2.034-.044-.005 2.191Z" opacity=".6" style="mix-blend-mode:multiply"/><path fill="#fff" d="m14.96 10.688-7.155.193.002-1.092 7.153-.156v1.055Z" opacity=".5"/><path fill="url(#m)" d="m7.143 16.417-2.037.11.007-2.217 2.035-.089-.005 2.196Z" opacity=".6" style="mix-blend-mode:multiply"/><path fill="#fff" d="m14.958 14.946-7.162.344.002-1.095 7.16-.306v1.057Z" opacity=".5"/></g><defs><linearGradient id="c" x1=".985" x2="15.964" y1="4.719" y2="21.311" gradientUnits="userSpaceOnUse"><stop stop-color="#26264F"/><stop offset="1" stop-color="#444B8C"/></linearGradient><linearGradient id="d" x1=".789" x2="19.722" y1="12.715" y2="12.184" gradientUnits="userSpaceOnUse"><stop stop-color="#444B8C"/><stop offset="1" stop-color="#26264F"/></linearGradient><linearGradient id="e" x1="138769" x2="118780" y1="-21554.9" y2="-44816.7" gradientUnits="userSpaceOnUse"><stop stop-color="#5EE5AE"/><stop offset="1" stop-color="#26264F"/></linearGradient><linearGradient id="f" x1="6527.45" x2="6522.66" y1="2158.6" y2="2346.67" gradientUnits="userSpaceOnUse"><stop stop-color="#444B8C"/><stop offset="1" stop-color="#26264F"/></linearGradient><linearGradient id="g" x1="9.242" x2="9.418" y1="1.398" y2="1.593" gradientUnits="userSpaceOnUse"><stop stop-color="#FF9085"/><stop offset="1" stop-color="#FB6FBB"/></linearGradient><linearGradient id="h" x1="6.246" x2="11.923" y1="28.243" y2="-7.971" gradientUnits="userSpaceOnUse"><stop stop-color="#38A59D"/><stop offset="1" stop-color="#1DBBBA"/></linearGradient><linearGradient id="i" x1="-1320.7" x2="47509.9" y1="116040" y2="47128.2" gradientUnits="userSpaceOnUse"><stop stop-color="#5EE5AE"/><stop offset="1" stop-color="#1DBBBA"/></linearGradient><linearGradient id="j" x1="6871.25" x2="11130.3" y1="1459.81" y2="1459.81" gradientUnits="userSpaceOnUse"><stop stop-color="#FF9085"/><stop offset="1" stop-color="#FB6FBB"/></linearGradient><linearGradient id="k" x1="2598.36" x2="3038.76" y1="2817.04" y2="2817.04" gradientUnits="userSpaceOnUse"><stop stop-color="#FF9085"/><stop offset="1" stop-color="#FB6FBB"/></linearGradient><linearGradient id="l" x1="2598.69" x2="3040.12" y1="3951.18" y2="3951.18" gradientUnits="userSpaceOnUse"><stop stop-color="#FF9085"/><stop offset="1" stop-color="#FB6FBB"/></linearGradient><linearGradient id="m" x1="2599.02" x2="3041.47" y1="5135.1" y2="5135.1" gradientUnits="userSpaceOnUse"><stop stop-color="#FF9085"/><stop offset="1" stop-color="#FB6FBB"/></linearGradient><clipPath id="a"><path fill="#fff" d="M0 .053h60v24.894H0z"/></clipPath><clipPath id="b"><path fill="#fff" d="M20.097 3.6h40.676v17.73H20.097z"/></clipPath></defs></svg>