<svg width="200" height="51" viewBox="0 0 200 51" fill="none" xmlns="http://www.w3.org/2000/svg">
<g id="Frame 4284473">
<g id="&#208;&#174;&#208;&#162;&#208;&#164;">
<path d="M70.4456 10.7447C74.4841 10.7447 78.0433 11.5142 81.1232 13.0532C84.2189 14.5765 86.6153 16.7279 88.3124 19.5075C90.0252 22.2871 90.8816 25.4907 90.8816 29.1183C90.8816 32.7459 90.0252 35.9495 88.3124 38.7291C86.6153 41.5087 84.2189 43.668 81.1232 45.207C78.0433 46.7303 74.4841 47.4919 70.4456 47.4919C66.8471 47.4919 63.6179 46.8716 60.758 45.631C57.898 44.3904 55.5724 42.6394 53.781 40.3781C51.9896 38.1167 50.8503 35.4706 50.3632 32.4397H44.824V44.0368C44.824 45.5547 43.5935 46.7853 42.0756 46.7853H36.8335V19.2719L44.824 11.5373V25.3729H50.4339C50.9839 22.4206 52.1546 19.8451 53.946 17.6466C55.7531 15.448 58.063 13.752 60.8758 12.5585C63.7043 11.3493 66.8943 10.7447 70.4456 10.7447ZM70.4456 40.3309C72.9599 40.3309 75.1441 39.8755 76.9983 38.9647C78.8526 38.0539 80.2747 36.7583 81.2647 35.078C82.2704 33.382 82.7732 31.3954 82.7732 29.1183C82.7732 26.8413 82.2704 24.8626 81.2647 23.1822C80.2747 21.4862 78.8526 20.1828 76.9983 19.2719C75.1441 18.3454 72.9599 17.8821 70.4456 17.8821C67.9314 17.8821 65.7472 18.3454 63.8929 19.2719C62.0544 20.1828 60.6323 21.4862 59.6266 23.1822C58.6366 24.8626 58.1416 26.8413 58.1416 29.1183C58.1416 31.3954 58.6366 33.382 59.6266 35.078C60.6323 36.7583 62.0544 38.0539 63.8929 38.9647C65.7472 39.8755 67.9314 40.3309 70.4456 40.3309Z" fill="#00344A"/>
<path d="M91.9891 11.4514H125.351C126.869 11.4514 128.1 12.6819 128.1 14.1998V18.5182H114.051V39.4358L106.037 46.7853V18.5182H94.7375C93.2196 18.5182 91.9891 17.2876 91.9891 15.7697V11.4514Z" fill="#00344A"/>
<path d="M169.576 15.4323C172.608 15.4323 175.256 15.9663 177.519 17.0341C179.782 18.0863 181.526 19.5782 182.752 21.5098C183.977 23.4413 184.59 25.6792 184.59 28.2232C184.59 30.7672 183.977 33.0051 182.752 34.9366C181.526 36.8682 179.782 38.368 177.519 39.4358C175.256 40.5037 172.608 41.0376 169.576 41.0376H160.407V47.7982H155.165C153.647 47.7982 152.416 46.5676 152.416 45.0497V41.0376H143.247C140.214 41.0376 137.566 40.5037 135.304 39.4358C133.041 38.368 131.297 36.8682 130.071 34.9366C128.845 33.0051 128.232 30.7672 128.232 28.2232C128.232 25.6792 128.845 23.4413 130.071 21.5098C131.297 19.5782 133.041 18.0863 135.304 17.0341C137.566 15.9663 140.214 15.4323 143.247 15.4323H152.416L155.581 13.4602L160.407 10.4385V15.4323H169.576ZM152.416 34.654V21.816H143.624C142.131 21.816 140.835 22.0751 139.735 22.5933C138.635 23.1116 137.786 23.8575 137.189 24.8311C136.608 25.7891 136.317 26.9198 136.317 28.2232C136.317 29.5423 136.608 30.6887 137.189 31.6624C137.786 32.6203 138.635 33.3584 139.735 33.8766C140.835 34.3949 142.131 34.654 143.624 34.654H152.416ZM169.151 34.654C170.66 34.654 171.964 34.3949 173.064 33.8766C174.18 33.3584 175.028 32.6203 175.61 31.6624C176.207 30.6887 176.506 29.5423 176.506 28.2232C176.506 26.9198 176.207 25.7891 175.61 24.8311C175.028 23.8575 174.18 23.1116 173.064 22.5933C171.964 22.0751 170.66 21.816 169.151 21.816H160.407V34.654H169.151Z" fill="#00344A"/>
</g>
<g id="&#209;&#129;&#208;&#190;&#209;&#132;&#209;&#130;">
<path d="M195.357 39.9345C195.893 40.0348 196.367 40.2606 196.781 40.6116C197.191 40.9586 197.511 41.4016 197.741 41.9408C197.967 42.4758 198.08 43.0609 198.08 43.6963C198.08 44.4444 197.925 45.109 197.616 45.69C197.306 46.2709 196.876 46.7244 196.323 47.0504C195.767 47.3723 195.131 47.5332 194.416 47.5332C193.701 47.5332 193.067 47.3723 192.515 47.0504C191.959 46.7244 191.526 46.2709 191.217 45.69C190.907 45.109 190.753 44.4444 190.753 43.6963C190.753 43.0609 190.868 42.4758 191.098 41.9408C191.323 41.4016 191.643 40.9586 192.057 40.6116C192.467 40.2606 192.94 40.0348 193.475 39.9345L193.475 40.6618C193.057 40.7579 192.691 40.9481 192.377 41.2323C192.064 41.5124 191.821 41.8656 191.65 42.2919C191.478 42.714 191.392 43.1822 191.392 43.6963C191.392 44.3274 191.518 44.8791 191.769 45.3514C192.016 45.8237 192.367 46.1894 192.823 46.4486C193.279 46.7035 193.81 46.831 194.416 46.831C195.023 46.831 195.554 46.7035 196.01 46.4486C196.466 46.1894 196.819 45.8237 197.07 45.3514C197.317 44.8791 197.44 44.3274 197.44 43.6963C197.44 43.178 197.354 42.7057 197.183 42.2793C197.011 41.853 196.769 41.4998 196.455 41.2198C196.142 40.9398 195.776 40.7538 195.357 40.6618L195.357 39.9345Z" fill="#00344A"/>
<path d="M198.08 34.838C198.08 35.6321 197.927 36.3364 197.622 36.9508C197.313 37.5652 196.88 38.0438 196.323 38.3866C195.767 38.7293 195.131 38.9007 194.416 38.9007C193.701 38.9007 193.065 38.7293 192.509 38.3866C191.953 38.0438 191.522 37.5652 191.217 36.9508C190.907 36.3364 190.753 35.6321 190.753 34.838C190.753 34.0439 190.907 33.3396 191.217 32.7252C191.522 32.1108 191.953 31.6322 192.509 31.2894C193.065 30.9467 193.701 30.7753 194.416 30.7753C195.131 30.7753 195.767 30.9467 196.323 31.2894C196.88 31.6322 197.313 32.1108 197.622 32.7252C197.927 33.3396 198.08 34.0439 198.08 34.838ZM197.44 34.838C197.44 34.1651 197.317 33.5757 197.07 33.07C196.819 32.5601 196.466 32.1672 196.01 31.8913C195.554 31.6155 195.023 31.4775 194.416 31.4775C193.81 31.4775 193.279 31.6155 192.823 31.8913C192.367 32.1672 192.016 32.5601 191.769 33.07C191.518 33.5757 191.392 34.1651 191.392 34.838C191.392 35.5109 191.518 36.1024 191.769 36.6123C192.016 37.118 192.367 37.5088 192.823 37.7847C193.279 38.0605 193.81 38.1985 194.416 38.1985C195.023 38.1985 195.554 38.0605 196.01 37.7847C196.466 37.5088 196.819 37.118 197.07 36.6123C197.317 36.1024 197.44 35.5109 197.44 34.838Z" fill="#00344A"/>
<path d="M190.753 18.508C190.753 17.8393 190.907 17.2437 191.217 16.7212C191.526 16.1946 191.959 15.785 192.515 15.4924C193.067 15.1956 193.701 15.0473 194.416 15.0473C195.131 15.0473 195.767 15.1956 196.323 15.4924C196.876 15.785 197.306 16.1946 197.616 16.7212C197.925 17.2437 198.08 17.8393 198.08 18.508C198.08 19.2604 197.865 19.9375 197.434 20.5394C196.999 21.1412 196.399 21.6303 195.633 22.0064L200 22.0064L200 22.6835L195.633 22.6835C196.399 23.0597 196.999 23.5487 197.434 24.1506C197.865 24.7525 198.08 25.4296 198.08 26.1819C198.08 26.8507 197.925 27.4484 197.616 27.975C197.306 28.4975 196.876 28.9071 196.323 29.2038C195.767 29.4964 195.131 29.6427 194.416 29.6427C193.701 29.6427 193.067 29.4964 192.515 29.2038C191.959 28.9071 191.526 28.4975 191.217 27.975C190.907 27.4484 190.753 26.8507 190.753 26.1819C190.753 25.4296 190.97 24.7525 191.405 24.1506C191.836 23.5487 192.434 23.0597 193.199 22.6835L188.268 22.6835L188.268 22.0064L193.199 22.0064C192.434 21.6303 191.836 21.1412 191.405 20.5394C190.97 19.9375 190.753 19.2604 190.753 18.508ZM197.44 26.1819C197.44 25.3962 197.172 24.7044 196.637 24.1067C196.098 23.5048 195.357 23.0137 194.416 22.6334C193.475 23.0137 192.737 23.5048 192.202 24.1067C191.662 24.7044 191.392 25.3962 191.392 26.1819C191.392 26.7211 191.52 27.1997 191.775 27.6177C192.03 28.0356 192.388 28.3616 192.848 28.5957C193.304 28.8256 193.827 28.9405 194.416 28.9405C195.006 28.9405 195.531 28.8256 195.991 28.5957C196.447 28.3616 196.802 28.0356 197.057 27.6177C197.313 27.1997 197.44 26.7211 197.44 26.1819ZM197.44 18.508C197.44 17.9689 197.313 17.4903 197.057 17.0723C196.802 16.6543 196.447 16.3304 195.991 16.1005C195.531 15.8665 195.006 15.7494 194.416 15.7494C193.827 15.7494 193.304 15.8665 192.848 16.1005C192.388 16.3304 192.03 16.6543 191.775 17.0723C191.52 17.4903 191.392 17.9689 191.392 18.508C191.392 19.2938 191.662 19.9876 192.202 20.5895C192.737 21.1872 193.475 21.6762 194.416 22.0566C195.357 21.6762 196.098 21.1872 196.637 20.5895C197.172 19.9876 197.44 19.2938 197.44 18.508Z" fill="#00344A"/>
<path d="M190.903 14.7136L190.903 7.69173L191.518 7.69173L191.518 10.8641L197.929 10.8641L197.929 11.5412L191.518 11.5412L191.518 14.7136L190.903 14.7136Z" fill="#00344A"/>
</g>
<path id="Vector 20" d="M0.00191118 36.5545V18.4147L8.52214 10.1693V36.5545C8.70537 38.3868 10.556 41.9964 16.4927 41.7766C22.4293 41.5567 24.0967 38.2036 24.1883 36.5545L23.6387 13.4675C23.4188 3.57303 32.5253 0.366474 37.1061 0H42.0514L47.5483 8.24537C44.4334 8.15376 41.07 8.24537 37.1061 8.24537C32.9815 8.24537 32.2486 11.91 32.4318 13.4674V25.011V36.5545C32.615 40.952 29.9051 49.8021 16.4927 50.0219C3.08018 50.2418 -0.0897041 41.1353 0.00191118 36.5545Z" fill="url(#paint0_linear_166_31)"/>
<path id="Vector 22" d="M0.00191096 36.4591V18.1959L8.52115 9.89453V36.4591C8.70436 38.3038 10.5548 41.938 16.4907 41.7166L8.79506 48.8568C1.79747 46.2734 -0.0686834 40.0132 0.00191096 36.4591Z" fill="url(#paint1_linear_166_31)"/>
<path id="Vector 21" d="M37.1083 8.24537C33.1444 8.24537 32.2487 11.91 32.432 13.4675V22.2625L24.1905 33.2563L23.6408 13.4675C23.4209 3.57303 32.5275 0.366474 37.1083 0H56.762L48.373 8.24537H37.1083Z" fill="url(#paint2_linear_166_31)"/>
</g>
<defs>
<linearGradient id="paint0_linear_166_31" x1="10.0019" y1="34.4233" x2="32.9732" y2="2.67943" gradientUnits="userSpaceOnUse">
<stop stop-color="#01BEFF"/>
<stop offset="0.2679" stop-color="#04CDE7"/>
<stop offset="0.831" stop-color="#0BF3AA"/>
<stop offset="1" stop-color="#0DFF96"/>
</linearGradient>
<linearGradient id="paint1_linear_166_31" x1="26.3821" y1="8.23425" x2="58.3311" y2="69.7672" gradientUnits="userSpaceOnUse">
<stop stop-color="#01BEFF"/>
<stop offset="0.2679" stop-color="#04CDE7"/>
<stop offset="0.831" stop-color="#0BF3AA"/>
<stop offset="1" stop-color="#0DFF96"/>
</linearGradient>
<linearGradient id="paint2_linear_166_31" x1="30.6049" y1="22.884" x2="45.6391" y2="1.11208" gradientUnits="userSpaceOnUse">
<stop stop-color="#01BEFF"/>
<stop offset="0.2679" stop-color="#04CDE7"/>
<stop offset="0.831" stop-color="#0BF3AA"/>
<stop offset="1" stop-color="#0DFF96"/>
</linearGradient>
</defs>
</svg>
