<svg xmlns="http://www.w3.org/2000/svg" width="145" height="10" fill="none"><path fill="#222" d="m3.65 4.011 2.155 3.267H4.599L2.744 4.492h-.89v2.786H.798V2.115H0l.532-1.04h1.322v2.456h.89l1.763-2.455h1.198L3.65 4.01Zm1.83 1.03c0-.483.106-.905.316-1.266.205-.338.485-.597.84-.777.355-.18.737-.271 1.148-.271.421 0 .8.087 1.139.262.355.18.635.448.84.804.205.35.308.765.308 1.249 0 .489-.103.911-.308 1.267-.205.349-.485.62-.84.812-.35.186-.729.28-1.14.28-.404 0-.784-.094-1.139-.28a2.102 2.102 0 0 1-.856-.813c-.205-.36-.308-.783-.308-1.266Zm17.938-2.174h.94v.602c.143-.232.335-.41.573-.532.244-.129.557-.193.94-.193.394 0 .743.094 1.048.28.293.192.52.466.682.821.166.35.249.751.249 1.206 0 .46-.083.867-.25 1.223-.16.349-.388.62-.681.812a1.422 1.422 0 0 1-.491.218 2.013 2.013 0 0 1-.557.079c-.327 0-.571-.026-.732-.079-.333-.104-.568-.28-.707-.524v2.062h-1.014V2.867Zm-12.807 0h1.006v1.677h1.722V2.867h.998v4.411h-.998v-1.86h-1.722v1.86h-1.006V2.867Zm4.166 0h3.867v.838h-1.43v3.573h-1.023V3.705h-1.414v-.838Zm5.256 0c.377 1.083.72 2.154 1.031 3.214.294-1.048.627-2.12.998-3.214h1.015L21.53 7.365c-.128.367-.25.65-.366.848a1.259 1.259 0 0 1-.474.445c-.183.105-.427.158-.732.158a2.09 2.09 0 0 1-.282-.01l-.341-.838c.105.024.235.035.39.035.189 0 .341-.029.458-.087a.552.552 0 0 0 .24-.192c.056-.076.104-.172.142-.289L18.97 2.867h1.064ZM6.503 5.033c0 .483.11.853.333 1.11.221.25.53.375.923.375.399 0 .71-.125.931-.375.227-.257.341-.627.341-1.11 0-.472-.11-.827-.333-1.066-.221-.244-.535-.367-.94-.367-.398 0-.709.123-.93.367-.217.24-.325.594-.325 1.066Zm17.904.009c.011.437.122.786.333 1.048.21.262.507.393.89.393.382 0 .676-.13.881-.393.21-.262.319-.611.325-1.048-.006-.431-.114-.775-.325-1.03-.205-.263-.499-.394-.881-.394-.383 0-.68.128-.89.384-.21.257-.322.603-.333 1.04Z"/><path stroke="#222" stroke-width=".357" d="M29.98 0v10"/><path fill="#222" d="M36.511 5.141c.009.657-.192 1.202-.6 1.634-.405.433-.937.645-1.597.637-.664 0-1.198-.212-1.603-.637-.4-.428-.6-.973-.6-1.634 0-.661.2-1.204.6-1.628.405-.429.939-.643 1.603-.643.66-.008 1.192.204 1.597.636.408.433.609.978.6 1.635ZM33.28 3.959c-.264.302-.396.696-.396 1.182s.133.88.396 1.181c.264.302.61.453 1.035.453.43 0 .775-.149 1.035-.446.26-.302.39-.698.39-1.188s-.13-.884-.39-1.182c-.26-.302-.605-.453-1.035-.453-.426 0-.77.151-1.035.453ZM38.495 2.968h.677v1.181c.545.02.984.172 1.316.453.332.282.498.674.498 1.176 0 .502-.166.893-.498 1.175-.332.282-.771.433-1.316.453v1.01h-.677v-1.01c-.532-.016-.97-.165-1.316-.447-.332-.282-.498-.675-.498-1.181 0-.51.166-.902.498-1.176.341-.285.78-.436 1.316-.453V2.968Zm.02 3.893V4.694c-.354.008-.629.106-.825.294-.195.188-.293.45-.293.79 0 .338.098.602.293.79.196.187.47.285.824.293Zm.638-2.167v2.167c.353-.008.628-.106.824-.294.196-.187.294-.45.294-.79 0-.338-.099-.601-.294-.79-.196-.187-.47-.285-.824-.293ZM43.478 4.241h.766v3.073h-.658V6.188c0-.584.009-1.012.026-1.286-.31.506-.528.857-.651 1.053l-.875 1.36h-.767V4.24h.652V5.43c0 .449-.007.855-.02 1.218.235-.4.45-.751.645-1.053l.882-1.353ZM47.328 8.08v-.766h-2.554V4.241h.702V6.77h1.367V4.241h.703V6.77h.466v1.31h-.684ZM50.443 4.241h.767v3.073h-.658V6.188c0-.584.008-1.012.026-1.286-.311.506-.529.857-.652 1.053l-.875 1.36h-.766V4.24h.651V5.43c0 .449-.006.855-.019 1.218.234-.4.45-.751.645-1.053l.881-1.353ZM54.434 5.214v2.1h-.632v-.349c-.213.298-.566.447-1.06.447-.345 0-.624-.073-.836-.22-.21-.147-.313-.364-.313-.65 0-.322.125-.56.376-.715.26-.164.613-.284 1.06-.362l.735-.128v-.11a.454.454 0 0 0-.179-.386c-.12-.094-.28-.14-.485-.14-.196 0-.369.038-.518.116a2.295 2.295 0 0 0-.51.391l-.441-.391c.392-.45.875-.674 1.45-.674.43 0 .762.096.996.288.238.192.358.453.358.783Zm-.67.894v-.281l-.556.11c-.336.07-.575.145-.715.226a.37.37 0 0 0-.21.343c0 .114.048.204.146.27.102.065.24.097.415.097.268 0 .488-.067.658-.202a.681.681 0 0 0 .262-.563ZM54.582 7.308l.064-.545c.115.016.196.025.243.025.187-.013.304-.082.35-.208.048-.127.075-.433.084-.919l.013-1.42h2.49v3.073h-.702V4.786h-1.15l-.012.888c-.009.648-.075 1.087-.198 1.316-.124.224-.375.345-.754.36a1.91 1.91 0 0 1-.428-.042ZM58.35 7.314V4.241h.702v.967h.843c.375 0 .673.094.894.282.226.188.339.445.339.771 0 .327-.113.584-.339.771-.221.188-.52.282-.894.282h-1.546Zm.702-.55h.747c.409 0 .613-.168.613-.503 0-.334-.204-.502-.613-.502h-.747v1.004ZM64.22 7.314h-.702V5.992h-1.38v1.322h-.702V4.241h.703v1.2h1.38v-1.2h.702v3.073ZM64.754 7.314V4.241h.702v.967h.843c.375 0 .673.094.894.282.226.188.339.445.339.771 0 .327-.113.584-.339.771-.221.188-.52.282-.894.282h-1.545Zm.702-.55h.747c.41 0 .614-.168.614-.503 0-.334-.205-.502-.614-.502h-.747v1.004Zm3.155-2.523v3.073h-.702V4.241h.702ZM72.063 4.241v3.073h-.658V6.188c0-.584.008-1.012.025-1.286-.31.506-.528.857-.651 1.053l-.875 1.36h-.766V4.24h.651V5.43c0 .453-.006.859-.02 1.218.235-.4.45-.751.646-1.053l.881-1.353h.767Zm-.383-1.224h-.569c0 .294-.17.44-.51.44-.341 0-.512-.146-.512-.44h-.575c0 .285.096.5.288.643.191.142.457.214.798.214.337 0 .6-.072.792-.214.192-.143.288-.358.288-.643ZM73.727 7.314V4.241h2.746v3.073h-.702V4.786h-1.342v2.528h-.702ZM79.696 5.214v2.1h-.632v-.349c-.213.298-.567.447-1.06.447-.345 0-.624-.073-.837-.22-.209-.147-.313-.364-.313-.65 0-.322.126-.56.377-.715.26-.164.613-.284 1.06-.362l.734-.128v-.11a.454.454 0 0 0-.179-.386c-.119-.094-.28-.14-.485-.14-.196 0-.368.038-.517.116a2.292 2.292 0 0 0-.511.391l-.44-.391c.39-.45.874-.674 1.449-.674.43 0 .762.096.996.288.239.192.358.453.358.783Zm-.67.894v-.281l-.556.11c-.337.07-.575.145-.716.226a.37.37 0 0 0-.21.343c0 .114.049.204.147.27.102.065.24.097.415.097.268 0 .487-.067.657-.202a.681.681 0 0 0 .262-.563ZM83.323 5.771c0 .486-.134.878-.403 1.176a1.315 1.315 0 0 1-1.022.447c-.438 0-.772-.145-1.002-.435v1.457h-.703V4.241h.652v.435c.234-.347.587-.52 1.06-.52.413 0 .751.148 1.015.446.269.298.403.688.403 1.17Zm-.952.76c.157-.192.236-.445.236-.76 0-.314-.076-.565-.23-.752a.752.752 0 0 0-.62-.288.82.82 0 0 0-.65.288c-.162.187-.243.438-.243.752 0 .319.083.572.249.76a.821.821 0 0 0 .645.281c.255 0 .46-.094.613-.281ZM86.097 4.786H85.03v2.528h-.702V4.786h-1.06V4.24h2.829v.545ZM89.133 7.314h-.703V5.992h-1.38v1.322h-.702V4.241h.703v1.2h1.38v-1.2h.702v3.073ZM92.124 6.378l.41.41c-.226.22-.452.38-.678.477a1.88 1.88 0 0 1-.74.14c-.507 0-.907-.144-1.201-.434-.294-.294-.44-.685-.44-1.175 0-.486.142-.882.427-1.188.29-.31.673-.465 1.15-.465.468 0 .83.135 1.085.404.26.265.39.635.39 1.108 0 .078-.004.17-.013.276h-2.35c.025.277.121.498.287.66.166.164.392.246.677.246.183 0 .343-.033.48-.098.135-.066.308-.186.516-.361Zm-1.941-.937h1.654c-.013-.237-.09-.422-.23-.557-.14-.139-.332-.208-.575-.208a.807.807 0 0 0-.562.202c-.144.13-.24.318-.287.563ZM96 5.771c0 .486-.134.878-.402 1.176a1.315 1.315 0 0 1-1.022.447c-.439 0-.773-.145-1.003-.435v1.457h-.702V4.241h.651v.435c.234-.347.588-.52 1.06-.52.413 0 .752.148 1.016.446.268.298.402.688.402 1.17Zm-.952.76c.158-.192.237-.445.237-.76 0-.314-.077-.565-.23-.752a.752.752 0 0 0-.62-.288.82.82 0 0 0-.651.288c-.162.187-.243.438-.243.752 0 .319.083.572.25.76a.821.821 0 0 0 .644.281c.256 0 .46-.094.613-.281ZM105.217 2.808c.513.58.769 1.321.769 2.224 0 .903-.256 1.647-.769 2.232-.513.58-1.195.87-2.048.87s-1.536-.29-2.049-.87c-.512-.585-.769-1.33-.769-2.232 0-.903.257-1.644.769-2.224.513-.585 1.196-.878 2.049-.878s1.535.293 2.048.878Zm-4.08 2.224c0 .713.187 1.296.56 1.747.379.452.87.678 1.472.678.607 0 1.098-.223 1.471-.67.374-.45.56-1.036.56-1.755 0-.714-.186-1.296-.56-1.747-.373-.452-.864-.678-1.471-.678-.602 0-1.093.229-1.472.686-.373.451-.56 1.031-.56 1.739Zm10.416-2.224c.513.58.769 1.321.769 2.224 0 .903-.256 1.647-.769 2.232-.513.58-1.196.87-2.048.87-.853 0-1.536-.29-2.049-.87-.513-.585-.769-1.33-.769-2.232 0-.903.256-1.644.769-2.224.513-.585 1.196-.878 2.049-.878.852 0 1.535.293 2.048.878Zm-4.08 2.224c0 .713.187 1.296.56 1.747.379.452.87.678 1.472.678.607 0 1.098-.223 1.471-.67.374-.45.56-1.036.56-1.755 0-.714-.186-1.296-.56-1.747-.373-.452-.864-.678-1.471-.678-.602 0-1.093.229-1.472.686-.373.451-.56 1.031-.56 1.739Zm10.416-2.224c.513.58.769 1.321.769 2.224 0 .903-.256 1.647-.769 2.232-.513.58-1.196.87-2.048.87-.853 0-1.536-.29-2.049-.87-.513-.585-.769-1.33-.769-2.232 0-.903.256-1.644.769-2.224.513-.585 1.196-.878 2.049-.878.852 0 1.535.293 2.048.878Zm-4.08 2.224c0 .713.187 1.296.56 1.747.379.452.87.678 1.472.678.607 0 1.098-.223 1.471-.67.373-.45.56-1.036.56-1.755 0-.714-.187-1.296-.56-1.747-.373-.452-.864-.678-1.471-.678-.602 0-1.093.229-1.472.686-.373.451-.56 1.031-.56 1.739Zm7.486-1.12v-.853l.485-.995h.426l-.443.995h.401v.853h-.869Zm1.513 0v-.853l.485-.995h.427l-.444.995h.402v.853h-.87Zm6.688-1.848V8h-.778V5.24h-3.177V8h-.769V2.064h.769v2.533h3.177V2.064h.778Zm5.263 0h.853V8h-.753V5.333c0-.847.017-1.647.05-2.4a94.198 94.198 0 0 1-1.304 2.099l-.159.25L131.707 8h-.844V2.064h.752v2.709c0 .652-.014 1.432-.042 2.34.441-.757.915-1.52 1.422-2.29l1.764-2.76Zm6.324 0v.652h-1.873V8h-.777V2.716h-1.873v-.652h4.523Zm1.535 0v.853l-.494.995h-.418l.444-.995h-.402v-.853h.87Zm1.513 0v.853l-.493.995h-.418l.443-.995h-.401v-.853h.869Z"/></svg>