<svg xmlns="http://www.w3.org/2000/svg" width="41" height="40" fill="none"><g fill="#1DBBBA" clip-path="url(#a)"><path d="M12.577 0c6.934 0 12.576 5.642 12.576 12.576 0 6.935-5.642 12.576-12.576 12.576C5.642 25.152 0 19.511 0 12.576 0 5.642 5.642 0 12.577 0Zm0 23.862c6.223 0 11.286-5.063 11.286-11.286S18.8 1.29 12.577 1.29 1.29 6.353 1.29 12.576s5.063 11.286 11.286 11.286Z"/><path d="M17.82 7.333a.645.645 0 1 1-.912.912 6.085 6.085 0 0 0-4.33-1.793 6.084 6.084 0 0 0-4.331 1.793.645.645 0 1 1-.912-.912 7.366 7.366 0 0 1 5.243-2.172c1.98 0 3.842.772 5.243 2.172ZM22.68 21.766l2.48 2.48a3.276 3.276 0 0 1 1.833-.554c.881 0 1.71.343 2.333.966l9.948 9.949c.817.817.798 1.651.639 2.208-.167.582-.563 1.17-1.245 1.852-.572.572-1.45 1.333-2.459 1.333-.58 0-1.12-.245-1.601-.727l-8.735-8.735h-.001v-.001l-1.212-1.212a3.278 3.278 0 0 1-.967-2.333c0-.662.194-1.295.555-1.833l-2.48-2.48a.645.645 0 1 1 .912-.913Zm12.84 16.595c.235.235.46.349.689.349.393 0 .913-.322 1.547-.955 1.311-1.311 1.018-1.824.606-2.236l-8.28-8.28-2.841 2.842 8.279 8.28Zm-9.948-9.948.756.756 2.842-2.842-.756-.756a1.997 1.997 0 0 0-1.421-.588c-.537 0-1.041.209-1.421.588-.38.38-.589.884-.589 1.421s.21 1.041.589 1.42Z"/><path d="M3.202 13.228a.645.645 0 0 1 .727.55c.591 4.293 4.31 7.53 8.65 7.53 4.814 0 8.73-3.917 8.73-8.732 0-4.814-3.916-8.731-8.73-8.731-4.34 0-8.059 3.237-8.65 7.529a.645.645 0 1 1-1.278-.176 10.014 10.014 0 0 1 3.315-6.153 10.012 10.012 0 0 1 6.612-2.49c5.526 0 10.022 4.495 10.022 10.021 0 5.526-4.496 10.022-10.022 10.022-2.435 0-4.783-.885-6.611-2.49a10.013 10.013 0 0 1-3.316-6.153.645.645 0 0 1 .551-.727Z"/></g><defs><clipPath id="a"><path fill="#fff" d="M40.002 0h-40v40h40z"/></clipPath></defs></svg>