<svg xmlns="http://www.w3.org/2000/svg" width="40" height="40" fill="none"><g fill="#1DBBBA" clip-path="url(#a)"><path d="M37.572 19.318a4.503 4.503 0 0 0 1.803-3.612c0-1.42-.678-2.778-1.815-3.63l-.684-.514V8.126c0-4.136-3.365-7.5-7.5-7.5-2.214 0-4.2.97-5.575 2.5h-21.3A1.877 1.877 0 0 0 .624 5v32.5c0 1.034.842 1.875 1.875 1.875H35a1.877 1.877 0 0 0 1.876-1.875v-6.875h.863a1.638 1.638 0 0 0 1.464-2.368l-1.316-2.632h1.489v-1.71c0-1.728-.658-3.36-1.804-4.597ZM29.375 1.875a6.257 6.257 0 0 1 6.25 6.25v4.063l1.185.888a3.306 3.306 0 0 1 1.316 2.63 3.263 3.263 0 0 1-1.517 2.763c-.084-.062-.162-.13-.25-.19a6.737 6.737 0 0 0-2.428-1.006l-1.545-.309-.37-1.476a4.995 4.995 0 0 0 2.36-4.238V8.597c0-.55-.36-1.03-.896-1.196a9.053 9.053 0 0 1-3.663-2.218l-.442-.442-.441.442a9.045 9.045 0 0 1-3.664 2.218 1.252 1.252 0 0 0-.895 1.196v2.653c0 1.787.945 3.353 2.36 4.238l-.37 1.476-1.545.31a6.738 6.738 0 0 0-2.429 1.005c-.088.06-.165.128-.25.19a3.264 3.264 0 0 1-1.515-2.763c0-1.03.491-2.012 1.314-2.63l1.185-.889V8.125a6.257 6.257 0 0 1 6.25-6.25Zm-6.29 17.445a5.488 5.488 0 0 1 1.624-.73l3.55 5.785h-7.634v-.46c0-1.85.92-3.568 2.46-4.595Zm5.107 2.555h2.37l-1.187 1.93-1.183-1.93Zm3.137-1.25h-3.904l-1.42-2.314 1.381-.276.503-2.011a4.998 4.998 0 0 0 2.973 0l.504 2.012 1.383.276-1.42 2.313ZM29.375 15a3.754 3.754 0 0 1-3.75-3.75l.014-2.655a10.322 10.322 0 0 0 3.736-2.113 10.29 10.29 0 0 0 3.75 2.114v2.654a3.754 3.754 0 0 1-3.75 3.75Zm6.25 22.5c0 .344-.28.625-.624.625H2.5a.626.626 0 0 1-.626-.625V5c0-.344.281-.625.625-.625h20.39a7.445 7.445 0 0 0-1.015 3.75v3.438l-.684.513a4.56 4.56 0 0 0-1.816 3.63 4.5 4.5 0 0 0 1.806 3.61 6.755 6.755 0 0 0-1.806 4.6v1.709h15.24l-1.316 2.632a1.638 1.638 0 0 0 1.463 2.368h.864V37.5Zm.971-11.661 1.489 2.977a.386.386 0 0 1-.346.559h-2.977a.386.386 0 0 1-.346-.559l1.489-2.977a.384.384 0 0 1 .346-.214c.147 0 .279.082.345.214Zm1.53-1.464h-7.634l3.553-5.786c.575.156 1.12.397 1.62.73a5.514 5.514 0 0 1 2.46 4.597v.459Z"/><path d="M16.875 34.375h-1.25v-6.25h-5v6.25h-1.25v-5h-5v6.25h17.5v-8.75h-5v7.5Zm-8.75 0h-2.5v-3.75h2.5v3.75Zm3.75-5h2.5v5h-2.5v-5Zm6.25-1.25h2.5v6.25h-2.5v-6.25ZM25.625 34.375h1.25v1.25h-1.25v-1.25ZM28.125 34.375h1.25v1.25h-1.25v-1.25ZM30.625 34.375h1.25v1.25h-1.25v-1.25ZM10.501 7.25l-1-.75-3.318 4.424-1.365-1.366-.884.884 2.384 2.384 4.183-5.576ZM4.818 19.192l2.058-2.058 2.058 2.058.884-.884L7.76 16.25l2.058-2.058-.884-.884-2.058 2.058-2.058-2.058-.884.884 2.058 2.058-2.058 2.058.884.884ZM11.876 9.375h2.5v1.25h-2.5v-1.25ZM15.626 9.375h2.5v1.25h-2.5v-1.25ZM10.501 21l-1-.75-3.318 4.424-1.365-1.366-.884.884 2.384 2.384L10.501 21ZM11.876 21.875h2.5v1.25h-2.5v-1.25ZM15.626 21.875h2.5v1.25h-2.5v-1.25ZM11.876 15.625h6.25v1.25h-6.25v-1.25Z"/></g><defs><clipPath id="a"><path fill="#fff" d="M0 0h40v40H0z"/></clipPath></defs></svg>