<svg xmlns="http://www.w3.org/2000/svg" width="40" height="40" fill="none"><g fill="#1DBBBA" clip-path="url(#a)"><path d="M7.498 2.5H5.83v1.667h1.667V2.5ZM9.998 2.5H8.33v1.667h1.667V2.5ZM12.498 2.5H10.83v1.667h1.667V2.5Z"/><path d="M37.498 15.7v-4.867a2.5 2.5 0 0 0-2.5-2.5H25.83v-7.5A.833.833 0 0 0 24.998 0H4.164a.833.833 0 0 0-.833.833v7.5a2.5 2.5 0 0 0-2.5 2.5V30a2.5 2.5 0 0 0 2.5 2.5h10.833v2.075a4.925 4.925 0 0 0-3.25 3.758h-1.75V40h20v-1.667h-1.75a4.925 4.925 0 0 0-3.25-3.758V32.5h10.834a2.5 2.5 0 0 0 2.5-2.5v-5.7a6.375 6.375 0 0 0 0-8.6ZM25.83 10h9.167c.46 0 .833.373.833.833v3.384a10.424 10.424 0 0 0-5.833-1.717 10.765 10.765 0 0 0-4.167.833V10ZM4.998 1.667h19.166V5H4.998V1.667Zm0 5h19.166v7.55a8.016 8.016 0 0 0-2.366 2.45h-16.8v-10Zm20.7 31.666H12.63c.292-1 1.192-2.5 4.033-2.5h2.5v-1.666h-3.333V32.5h6.667v1.667h-.834v1.666c2.842 0 3.742 1.5 4.034 2.5ZM35.83 30c0 .46-.373.833-.833.833H3.33A.833.833 0 0 1 2.498 30V10.833c0-.46.373-.833.833-.833v7.5c0 .46.373.833.833.833h16.9A6.187 6.187 0 0 0 20.831 20a6.666 6.666 0 0 0 1.833 4.492l-1.583 1.583a.833.833 0 0 0 .583 1.425h8.334c2.072.02 4.102-.578 5.833-1.717V30Zm-5.833-4.167H29.098a.755.755 0 0 0-.234 0h-5.191l.758-.758a.833.833 0 0 0 0-1.217A5.167 5.167 0 0 1 22.498 20c0-3.217 3.333-5.833 7.5-5.833 4.166 0 7.5 2.616 7.5 5.833s-3.334 5.833-7.5 5.833Z"/><path d="M31.665 19.167H25v1.666h6.666v-1.666ZM34.998 19.167H33.33v1.666h1.667v-1.666ZM5.833 25H4.166v3.333c0 .46.373.834.833.834h3.334V27.5h-2.5V25ZM20 9.167H9.165v1.666h10.833V9.167ZM20 12.5H9.165v1.667h10.833V12.5Z"/></g><defs><clipPath id="a"><path fill="#fff" d="M0 0h40v40H0z"/></clipPath></defs></svg>