<svg xmlns="http://www.w3.org/2000/svg" width="40" height="40" fill="none"><g fill="#1DBBBA" clip-path="url(#a)"><path d="M20.675 17.9a6.409 6.409 0 1 0-8.044 6.198v1.999h-2.325c-1.796 0-2.24 1.333-2.479 2.05a2.956 2.956 0 0 1-.142.377c-.544.334-1.04.497-1.517.497h-.622v-1.137a.484.484 0 0 0-.484-.483H.644a.484.484 0 0 0-.484.483V39.19c0 .267.217.484.484.484h4.418a.484.484 0 0 0 .484-.484v-.95h.536c1.191 0 2.36.332 3.371.96 1.19.739 2.515.8 3.882.8h3.597a1.712 1.712 0 0 0 1.41-2.684 1.714 1.714 0 0 0 .334-2.737 1.752 1.752 0 0 0 .021-2.505 1.634 1.634 0 0 0-.742-2.783c.865-.43 1.397-1.394 1.397-2.663v-.047a.484.484 0 0 0-.484-.484h-2.966v-2a6.434 6.434 0 0 0 4.773-6.196Zm-5.74 11.344h-1.336v-4.97a6.44 6.44 0 0 0 1.335 0v4.97Zm-6.11-11.343a5.44 5.44 0 1 1 10.882 0 5.44 5.44 0 0 1-10.882 0ZM4.578 38.706h-3.45V28.368h3.45v10.338Zm13.667-7.823c0 .37-.3.67-.67.671H16.51a.472.472 0 0 0-.07.006h-.685a.484.484 0 0 0 0 .967h1.7a.79.79 0 0 1 0 1.578h-1.7a.484.484 0 0 0 0 .968h1.739a.75.75 0 1 1 0 1.501h-2.507a.484.484 0 0 0 0 .968h1.944a.745.745 0 1 1 0 1.49h-3.597c-1.221 0-2.398-.05-3.371-.653a7.36 7.36 0 0 0-3.882-1.107h-.536V29.99h.622c.674 0 1.35-.218 2.066-.666.28-.175.388-.497.512-.87.27-.813.541-1.388 1.56-1.388h2.325v1.677a.484.484 0 0 0-.944.19c.078.729.694 1.281 1.428 1.28h4.46c.37.001.67.301.67.671Zm.109-3.818c-.085.613-.397 1.504-1.488 1.504h-.964v-1.505h2.452Z"/><path d="M39.355 15.909h-4.419a.484.484 0 0 0-.483.483v1.137h-.622c-.477 0-.974-.162-1.518-.497a2.951 2.951 0 0 1-.142-.377c-.239-.716-.683-2.05-2.479-2.05h-2.324v-2a6.41 6.41 0 1 0-3.271 0v2H21.13a.484.484 0 0 0-.484.484v.047c0 1.269.533 2.234 1.398 2.663a1.635 1.635 0 0 0-.742 2.783 1.754 1.754 0 0 0 .02 2.505 1.713 1.713 0 0 0 .335 2.738 1.711 1.711 0 0 0 1.41 2.683h3.597c1.367 0 2.692-.061 3.882-.799a6.389 6.389 0 0 1 3.371-.96h.536v.95c0 .267.216.483.484.483h4.418a.484.484 0 0 0 .484-.484V16.392a.484.484 0 0 0-.484-.483Zm-13.623-3.091c.223 0 .446-.012.668-.035v4.97h-1.336v-4.97c.222.023.445.035.668.035Zm-5.441-6.41a5.441 5.441 0 1 1 10.882.002 5.441 5.441 0 0 1-10.882-.001Zm3.805 9.164v1.504h-.963c-1.091 0-1.403-.89-1.488-1.504h2.451Zm9.82 10.208a7.356 7.356 0 0 0-3.88 1.107c-.974.603-2.15.653-3.372.653h-3.597a.745.745 0 1 1 0-1.49h1.943a.484.484 0 1 0 0-.968h-2.506a.75.75 0 1 1 0-1.501h1.738a.484.484 0 1 0 0-.968h-1.7a.789.789 0 0 1 0-1.578h1.7a.484.484 0 1 0 0-.968h-.684a.486.486 0 0 0-.07-.005h-1.064a.671.671 0 0 1 0-1.342h4.46c.733.001 1.35-.551 1.428-1.28a.484.484 0 0 0-.945-.19v-1.678h2.325c1.02 0 1.29.576 1.56 1.389.125.373.232.694.513.87.716.448 1.392.666 2.066.666h.621v7.283h-.535Zm4.955 1.434h-3.45V16.877h3.45v10.338ZM13.772 19.919l3.352-3.352a.484.484 0 1 0-.685-.684l-3.009 3.01-1.334-1.334a.484.484 0 1 0-.684.684l1.676 1.676a.484.484 0 0 0 .684 0Z"/><path d="M27.129 8.489a.484.484 0 0 0 .684-.684l-1.396-1.396 1.396-1.396a.484.484 0 0 0-.684-.684l-1.396 1.396-1.396-1.396a.484.484 0 1 0-.684.684l1.396 1.396-1.396 1.396a.484.484 0 1 0 .684.684l1.396-1.396 1.396 1.396Z"/></g><defs><clipPath id="a"><path fill="#fff" d="M0 0h40v40H0z"/></clipPath></defs></svg>