<svg xmlns="http://www.w3.org/2000/svg" width="40" height="40" fill="none"><g fill="#1DBBBA" clip-path="url(#a)"><path d="M27.637 15.497c-.217 0-.429.02-.643.032v-2.603h2.57V11.64H19.282v1.531l-4.347-2.173 4.347-2.174v1.531h10.284V9.07h-2.571V6.499h4.499v2.325L40 4.57 31.493.317v2.325h-4.499V.072H5.518L0 5.59v26.617h16.295c1.796 4.511 6.198 7.713 11.342 7.713 6.733 0 12.211-5.478 12.211-12.212 0-6.733-5.477-12.211-12.211-12.211Zm8.572 5.457-4.615 4.615a4.534 4.534 0 0 0-1.818-1.817l4.615-4.615a11.012 11.012 0 0 1 1.818 1.817Zm-11.786 6.754a3.217 3.217 0 0 1 3.214-3.213 3.217 3.217 0 0 1 3.213 3.213 3.217 3.217 0 0 1-3.213 3.214 3.217 3.217 0 0 1-3.214-3.214ZM2.194 5.213l2.948-2.947v2.947H2.194Zm-.909 25.709V6.499h1.286v7.712h10.926v-1.285h-9.64V6.499h2.57V3.928h15.425V2.642H6.427V1.357H25.71v1.285h-2.571v1.286h9.64V2.397l4.348 2.174-4.347 2.173v-1.53h-9.641v1.285h2.57v2.57h-5.141V6.745l-8.507 4.254 8.507 4.253v-2.325h5.142v2.738a12.212 12.212 0 0 0-8.01 4.974H2.57v8.998h13.022c.07.437.16.865.276 1.286H1.285Zm14.173-2.571H3.856v-6.427h13.03a12.136 12.136 0 0 0-1.46 5.784c0 .217.02.429.032.643Zm12.179-11.569c2.081 0 4.022.596 5.68 1.61l-4.89 4.891a4.52 4.52 0 0 0-.79-.074 4.504 4.504 0 0 0-4.5 4.5c0 .27.029.532.075.788l-4.89 4.892a10.842 10.842 0 0 1-1.611-5.68c0-6.026 4.9-10.927 10.926-10.927Zm-8.572 17.68 4.614-4.615a4.533 4.533 0 0 0 1.818 1.818l-4.614 4.614a11.026 11.026 0 0 1-1.818-1.817Zm8.572 4.172c-2.082 0-4.023-.596-5.68-1.61l4.89-4.89c.257.045.52.073.79.073a4.504 4.504 0 0 0 4.499-4.499c0-.27-.029-.533-.074-.789l4.89-4.891a10.842 10.842 0 0 1 1.61 5.68c0 6.025-4.9 10.926-10.925 10.926Z"/><path d="M29.564 27.708a1.93 1.93 0 0 0-1.928-1.928 1.93 1.93 0 0 0-1.928 1.928 1.93 1.93 0 0 0 1.928 1.928 1.93 1.93 0 0 0 1.928-1.928Zm-2.57 0a.643.643 0 1 1 1.286.002.643.643 0 0 1-1.287-.002ZM2.572 15.496H16.07v1.286H2.572v-1.286ZM2.572 18.067H16.07v1.286H2.572v-1.286ZM27.636 19.353v-1.286c-.46 0-.924.033-1.377.098l.182 1.272a8.53 8.53 0 0 1 1.195-.084ZM25.248 19.698l-.366-1.232c-4.055 1.208-6.887 5.008-6.887 9.242h1.286c0-3.67 2.453-6.963 5.967-8.01Z"/></g><defs><clipPath id="a"><path fill="#fff" d="M0 0h40v40H0z"/></clipPath></defs></svg>