<svg xmlns="http://www.w3.org/2000/svg" width="40" height="40" fill="none"><g fill="#1DBBBA" clip-path="url(#a)"><path d="M39.332 21.333h-18a.667.667 0 0 0-.667.667v5.541a2.508 2.508 0 0 0-2.468.192l-3.531 2.354v-11.42h4a.667.667 0 0 0 .666-.667V.667A.667.667 0 0 0 18.666 0h-18a.667.667 0 0 0-.667.667V18c0 .368.298.667.667.667h9.333v1.557a2.323 2.323 0 0 0-1.18-.217A2.353 2.353 0 0 0 6.8 21.629a2.303 2.303 0 0 0-3.333 1.333 2.342 2.342 0 0 0-1.342-.286 2.413 2.413 0 0 0-2.127 2.442v10.854c0 .005.003.01.003.014 0 .005-.003.009-.003.014v3.333c0 .368.298.667.667.667h13.333a.667.667 0 0 0 .666-.667v-3.001l6-4.5v7.501c0 .368.299.667.667.667h18a.667.667 0 0 0 .667-.667V22a.667.667 0 0 0-.667-.667Zm-38-4v-16H18v16h-3.333V16a.667.667 0 0 0 .666-.667v-12a.667.667 0 0 0-.667-.666h-10A.667.667 0 0 0 4 3.334v12c0 .368.298.666.667.666h5.333v1.333H1.332ZM14 4v9.372a2.322 2.322 0 0 0-3.966 1.295h-4.7V4h8.666Zm-.667 34.666h-12v-2h12v2Zm6.966-8.229c-.022.02-.046.039-.07.057l-6.453 4.84H1.332V25.117a1.088 1.088 0 0 1 .91-1.114 1 1 0 0 1 1.09.996v2.333h1.334v-3.548a1.088 1.088 0 0 1 .908-1.114 1 1 0 0 1 1.092.996v3h1.333V22.45a1.085 1.085 0 0 1 .92-1.115c.493-.038.945.276 1.08.753v3.244h1.333V15a1 1 0 1 1 2 0v16.333a.667.667 0 0 0 1.037.555l4.567-3.045a1.126 1.126 0 0 1 1.445.117c.385.431.348 1.092-.083 1.477Zm18.367 8.23H22v-16h16.666v16Z"/><path d="M39.334 0h-18a.667.667 0 0 0-.667.667V18c0 .368.298.667.667.667h18A.667.667 0 0 0 40 18V.667A.667.667 0 0 0 39.334 0Zm-.667 17.333H22v-16h16.667v16ZM12.667 5.333h-6v1.334h6V5.334ZM12.667 8h-6v1.333h6V8Z"/><path d="M32.596 7.165a2.667 2.667 0 1 0-3.858 0 4.002 4.002 0 0 0-2.071 3.502v4.666c0 .368.298.667.667.667H34a.667.667 0 0 0 .667-.667v-4.666a4.002 4.002 0 0 0-2.071-3.502ZM30.666 4a1.333 1.333 0 1 1 .001 2.667 1.333 1.333 0 0 1 0-2.667Zm2.668 10.667H28v-4a2.667 2.667 0 0 1 5.334 0v4ZM30.667 24.667a6 6 0 0 0-6 6 6.007 6.007 0 0 0 6 6 6 6 0 1 0 0-12Zm0 1.333c1.22 0 2.39.479 3.26 1.333h-6.52A4.649 4.649 0 0 1 30.667 26Zm-4.21 2.667h8.42c.201.421.337.87.403 1.333h-9.226c.066-.462.202-.912.403-1.333Zm4.21 6.666c-1.22 0-2.39-.478-3.26-1.333h6.52a4.649 4.649 0 0 1-3.26 1.333Zm4.21-2.666h-8.42a4.62 4.62 0 0 1-.403-1.334h9.226a4.623 4.623 0 0 1-.403 1.334ZM10.667 10.667h-4V12h4v-1.333Z"/></g><defs><clipPath id="a"><path fill="#fff" d="M-.001 0h40v40h-40z"/></clipPath></defs></svg>