<svg xmlns="http://www.w3.org/2000/svg" width="40" height="40" fill="none"><g fill="#1DBBBA" clip-path="url(#a)"><path d="M39.375 15.625c0-.573-.243-1.123-.667-1.508l-1.833-1.666V2.5A1.877 1.877 0 0 0 35 .625H2.5A1.877 1.877 0 0 0 .625 2.5v23.75c0 1.034.841 1.875 1.875 1.875h1.907c-.013.208-.032.414-.032.625 0 5.859 4.766 10.625 10.625 10.625s10.625-4.766 10.625-10.625c0-.211-.02-.417-.032-.625H35a1.877 1.877 0 0 0 1.875-1.875V18.8l1.833-1.667c.424-.386.667-.935.667-1.508ZM2.5 1.875H35c.344 0 .625.28.625.625v3.125H19.687l-1.875 2.5H1.876V2.5c0-.344.28-.625.625-.625ZM15 38.125c-1.395 0-2.659-1.492-3.466-3.75h6.933c-.808 2.258-2.072 3.75-3.467 3.75Zm-3.85-5a17.734 17.734 0 0 1-.51-3.75h8.72a17.734 17.734 0 0 1-.51 3.75h-7.7Zm-5.493-3.75H9.39c.04 1.337.201 2.6.47 3.75H6.715a9.299 9.299 0 0 1-1.058-3.75Zm4.983-1.25c.044-1.339.221-2.612.51-3.75h7.7c.288 1.138.466 2.411.51 3.75h-8.72Zm9.969 1.25h3.734a9.298 9.298 0 0 1-1.058 3.75h-3.146c.268-1.15.43-2.413.47-3.75Zm0-1.25c-.04-1.337-.202-2.6-.47-3.75h3.146a9.298 9.298 0 0 1 1.058 3.75H20.61Zm-.819-5c-.411-1.264-.955-2.351-1.604-3.18a9.404 9.404 0 0 1 4.297 3.18H19.79Zm-1.324 0h-6.932c.807-2.258 2.071-3.75 3.466-3.75s2.659 1.492 3.466 3.75Zm-8.256 0H7.517a9.4 9.4 0 0 1 4.297-3.18c-.649.829-1.193 1.916-1.604 3.18Zm-3.495 1.25h3.146a19.01 19.01 0 0 0-.47 3.75H5.657a9.299 9.299 0 0 1 1.058-3.75Zm.803 10h2.692c.411 1.264.955 2.351 1.604 3.18a9.404 9.404 0 0 1-4.296-3.18Zm10.668 3.18c.649-.829 1.193-1.916 1.604-3.18h2.693a9.404 9.404 0 0 1-4.297 3.18Zm19.68-21.347L32.5 21.087v-1.712h-10v1.25h8.75v3.288l4.375-3.977v6.314c0 .345-.28.625-.625.625h-9.55c-.89-4.966-5.232-8.75-10.45-8.75-5.218 0-9.56 3.784-10.45 8.75H2.5a.626.626 0 0 1-.625-.625V9.375h16.563l1.875-2.5h15.312v4.44L31.25 7.337v3.287H5.625v1.25H32.5v-1.713l5.367 4.88a.789.789 0 0 1 0 1.166Z"/><path d="M3.125 10.625h1.25v1.25h-1.25v-1.25ZM6.875 3.125h-3.75v3.75h3.75v-3.75Zm-1.25 2.5h-1.25v-1.25h1.25v1.25ZM11.875 3.125h-3.75v3.75h3.75v-3.75Zm-1.25 2.5h-1.25v-1.25h1.25v1.25ZM16.875 3.125h-3.75v3.75h3.75v-3.75Zm-1.25 2.5h-1.25v-1.25h1.25v1.25Z"/></g><defs><clipPath id="a"><path fill="#fff" d="M0 0h40v40H0z"/></clipPath></defs></svg>