<svg xmlns="http://www.w3.org/2000/svg" width="40" height="40" fill="none"><path fill="#1DBBBA" d="M37.42 29.032h-1.043a4.465 4.465 0 0 1-4.165-2.82l-.162-.405h-1.082v-2.692a1.939 1.939 0 0 0 1.29-1.825v-5.862c0-2.444.488-4.821 1.45-7.067.322-.751.486-1.546.486-2.363A6.005 6.005 0 0 0 28.195 0h-.907a6.005 6.005 0 0 0-5.998 5.998c0 .649.105 1.283.308 1.893a14.209 14.209 0 0 0-7.404-2.085C6.367 5.806 0 12.174 0 20c0 7.826 6.367 14.194 14.194 14.194.43 0 .861-.022 1.29-.06v1.35c0 1.353 1.329 2.511 3.842 3.35 2.258.752 5.247 1.166 8.416 1.166 3.17 0 6.158-.414 8.416-1.167C38.67 37.995 40 36.837 40 35.483v-3.87a2.584 2.584 0 0 0-2.58-2.58Zm-1.043 1.29h1.042c.712 0 1.29.58 1.29 1.29 0 1.348-4.172 3.227-10.967 3.227-6.795 0-10.968-1.88-10.968-3.226 0-.712.58-1.29 1.29-1.29h1.042a5.746 5.746 0 0 0 5.184-3.226h6.904a5.746 5.746 0 0 0 5.183 3.226ZM23.226 15.429v5.862c0 .841.54 1.559 1.29 1.825v2.692h-1.082l-.162.405a4.465 4.465 0 0 1-4.166 2.82h-1.042a2.58 2.58 0 0 0-2.143 1.146c-.568.096-1.148.145-1.727.145C8.502 30.323 3.87 25.692 3.87 20S8.501 9.677 14.193 9.677c3.76 0 7.204 2.033 9.027 5.315.004.145.006.29.006.436Zm2.58 10.378v-2.58h3.871v2.58h-3.87ZM27.288 1.29h.907a4.713 4.713 0 0 1 4.708 4.708 4.68 4.68 0 0 1-.38 1.854 19.124 19.124 0 0 0-1.555 7.576v5.862c0 .356-.29.646-.645.646H25.16a.646.646 0 0 1-.645-.646v-5.862c0-2.62-.523-5.168-1.555-7.576a4.68 4.68 0 0 1-.38-1.854 4.713 4.713 0 0 1 4.707-4.708ZM14.193 32.903C7.08 32.903 1.29 27.115 1.29 20S7.08 7.097 14.194 7.097c2.995 0 5.901 1.045 8.205 2.946.244.77.433 1.555.569 2.35a11.6 11.6 0 0 0-8.774-4.006C7.79 8.387 2.58 13.597 2.58 20s5.21 11.613 11.613 11.613c.432 0 .863-.025 1.292-.072l-.002.072v1.225c-.428.042-.86.065-1.29.065Zm13.549 5.807c-6.795 0-10.968-1.88-10.968-3.226v-1.755c.63.462 1.483.877 2.552 1.233 2.258.753 5.247 1.167 8.416 1.167 3.17 0 6.158-.414 8.416-1.167 1.069-.356 1.922-.77 2.552-1.233v1.755c0 1.347-4.173 3.226-10.968 3.226Z"/><path fill="#1DBBBA" d="m28.543 12.827 1.281.153c.05-.417.113-.838.189-1.25l-1.27-.233c-.08.44-.147.887-.2 1.33ZM29.027 10.167l1.252.312c.105-.419.224-.84.355-1.251l-1.23-.391c-.14.437-.266.885-.377 1.33ZM30.323 5.998c0 .29-.058.572-.172.838-.095.222-.188.448-.275.671l1.202.47c.082-.211.17-.424.259-.633a3.421 3.421 0 0 0-3.141-4.763h-.454v1.29h.454a2.13 2.13 0 0 1 2.127 2.127ZM7.742 27.742h12.903V12.258H7.742v15.484Zm1.29-14.194h10.323v12.903H9.033V13.548Z"/><path fill="#1DBBBA" d="m12.903 23.604-.834-.834-.913.912 1.747 1.747L17.23 21.1l-.913-.912-3.414 3.415ZM10.324 14.839h7.742v1.29h-7.742v-1.29ZM10.324 17.42h7.742v1.29h-7.742v-1.29Z"/></svg>