<svg xmlns="http://www.w3.org/2000/svg" width="40" height="40" fill="none"><g fill="#1DBBBA" clip-path="url(#a)"><path d="m21.34 22.839 1.227-2.066-3.339-3.34-2.066 1.227a9.925 9.925 0 0 0-1.706-.705l-.595-2.33H10.14l-.594 2.33a9.927 9.927 0 0 0-1.706.706l-2.066-1.227-3.34 3.34 1.227 2.065a9.921 9.921 0 0 0-.705 1.707l-2.33.593v4.722l2.331.594c.183.592.419 1.164.705 1.706l-1.227 2.066 3.34 3.34L7.84 36.34a9.919 9.919 0 0 0 1.706.705l.594 2.33h4.722l.594-2.33a9.925 9.925 0 0 0 1.706-.706l2.066 1.227 3.34-3.34-1.228-2.065a9.925 9.925 0 0 0 .706-1.707l2.33-.593v-4.722l-2.331-.594a9.924 9.924 0 0 0-.705-1.706Zm1.785 6.05-2.09.534-.095.352a8.658 8.658 0 0 1-.861 2.086l-.183.317 1.1 1.853-1.965 1.965-1.854-1.1-.317.183a8.682 8.682 0 0 1-2.085.862l-.353.095-.532 2.089h-2.778l-.533-2.09-.353-.095a8.658 8.658 0 0 1-2.086-.862l-.316-.182-1.854 1.1-1.965-1.965 1.1-1.854-.183-.317a8.684 8.684 0 0 1-.862-2.086l-.095-.352-2.09-.533v-2.778l2.09-.533.095-.352a8.659 8.659 0 0 1 .862-2.086l.183-.317-1.1-1.854 1.965-1.965 1.854 1.1.316-.182a8.682 8.682 0 0 1 2.086-.862l.353-.095.532-2.09h2.778l.533 2.09.353.095a8.658 8.658 0 0 1 2.085.862l.317.182 1.854-1.1 1.965 1.965-1.1 1.854.183.317c.374.648.663 1.35.861 2.086l.095.352 2.09.533v2.778Z"/><path d="M12.5 20C8.366 20 5 23.364 5 27.5S8.365 35 12.5 35c4.136 0 7.5-3.364 7.5-7.5S16.636 20 12.5 20Zm0 13.75a6.257 6.257 0 0 1-6.25-6.25 6.257 6.257 0 0 1 6.25-6.25 6.257 6.257 0 0 1 6.25 6.25 6.257 6.257 0 0 1-6.25 6.25Z"/><path d="M12.5 23.75a3.754 3.754 0 0 0-3.75 3.75 3.754 3.754 0 0 0 3.75 3.75 3.754 3.754 0 0 0 3.75-3.75 3.754 3.754 0 0 0-3.75-3.75Zm0 6.25a2.502 2.502 0 0 1-2.5-2.5c0-1.379 1.122-2.5 2.5-2.5 1.38 0 2.5 1.121 2.5 2.5S13.88 30 12.5 30ZM37.5 5.625h-15A1.877 1.877 0 0 0 20.625 7.5v8.75c0 1.034.842 1.875 1.875 1.875h1.25v2.886l5.773-2.886h7.978a1.877 1.877 0 0 0 1.875-1.875V7.5A1.877 1.877 0 0 0 37.5 5.625Zm.626 10.625c0 .345-.28.625-.625.625h-8.273L25 18.989v-2.114h-2.5a.625.625 0 0 1-.625-.625V7.5c0-.345.28-.625.625-.625h15c.346 0 .626.28.626.625v8.75ZM2.5 11.875h6.077l3.924 2.354v-2.354h5A1.877 1.877 0 0 0 19.374 10V2.5A1.877 1.877 0 0 0 17.5.625h-15A1.877 1.877 0 0 0 .625 2.5V10c0 1.034.842 1.875 1.875 1.875ZM1.875 2.5c0-.345.28-.625.625-.625h15c.346 0 .625.28.625.625V10c0 .345-.28.625-.625.625h-6.25v1.396l-2.326-1.396H2.5A.625.625 0 0 1 1.875 10V2.5Z"/><path d="M35.626 14.375h-1.25v-5h-1.25v5h-1.25v-6.25h-1.25v6.25h-1.25v-3.75h-1.25v3.75h-1.25v-2.5h-1.25v2.5h-1.25v1.25h12.5v-7.5h-1.25v6.25ZM5 8.125A1.877 1.877 0 0 0 6.875 6.25 1.877 1.877 0 0 0 5 4.375 1.877 1.877 0 0 0 3.125 6.25c0 1.034.842 1.875 1.875 1.875Zm0-2.5a.625.625 0 1 1 0 1.25.625.625 0 0 1 0-1.25ZM10 8.125a1.877 1.877 0 0 0 1.876-1.875A1.877 1.877 0 0 0 10 4.375 1.877 1.877 0 0 0 8.125 6.25c0 1.034.842 1.875 1.876 1.875Zm0-2.5a.625.625 0 1 1 0 1.25.625.625 0 0 1 0-1.25ZM15 8.125a1.877 1.877 0 0 0 1.875-1.875 1.877 1.877 0 0 0-1.874-1.875 1.877 1.877 0 0 0-1.875 1.875c0 1.034.84 1.875 1.875 1.875Zm0-2.5a.625.625 0 1 1 0 1.25.625.625 0 0 1 0-1.25ZM32.499 25.625c-1.223 0-2.42.328-3.477.95l-3.769-.447 1.268 2.987a6.844 6.844 0 0 0-.897 3.385 6.883 6.883 0 0 0 6.875 6.875 6.883 6.883 0 0 0 6.875-6.875 6.883 6.883 0 0 0-6.875-6.875Zm-3.528 11.25h7.055a5.597 5.597 0 0 1-3.528 1.25 5.597 5.597 0 0 1-3.527-1.25Zm2.697-4.076a1.234 1.234 0 0 1-.419-.924v-1.144c0-.713.53-1.32 1.182-1.354.342-.02.677.102.929.342.25.238.389.56.389.906v1.25c0 .352-.149.681-.419.924l-.206.187v1.15l1.727.864c.279.139.495.36.627.625H29.52c.133-.266.35-.486.627-.625l1.727-.864v-1.15l-.206-.187Zm5.192 3.248a2.627 2.627 0 0 0-1.45-2.165l-.945-.473c.343-.437.534-.978.534-1.534v-1.25a2.51 2.51 0 0 0-.779-1.813 2.516 2.516 0 0 0-1.855-.684c-1.327.07-2.366 1.213-2.366 2.603v1.144c0 .556.191 1.097.534 1.534l-.946.473a2.626 2.626 0 0 0-1.45 2.165 5.6 5.6 0 0 1-.39-6.549l.176-.277-.678-1.599 2.064.246.188-.119a5.603 5.603 0 0 1 3.002-.874 5.631 5.631 0 0 1 5.625 5.625 5.598 5.598 0 0 1-1.264 3.547Z"/></g><defs><clipPath id="a"><path fill="#fff" d="M0 0h40v40H0z"/></clipPath></defs></svg>