<svg xmlns="http://www.w3.org/2000/svg" width="40" height="40" fill="none"><g fill="#1DBBBA" clip-path="url(#a)"><path d="M39.352 40H.686a.667.667 0 0 1-.667-.667V14c0-.368.299-.667.667-.667h38.666c.368 0 .667.299.667.667v25.333a.666.666 0 0 1-.667.667Zm-38-1.333h37.334v-24H1.352v24Z"/><path d="M34.688 14.667H5.355A.667.667 0 0 1 4.688 14v-2.667c0-.368.299-.666.667-.666h29.333c.368 0 .667.298.667.666V14a.666.666 0 0 1-.667.667ZM6.021 13.333h28V12h-28v1.333Z"/><path d="M32.022 12h-24a.667.667 0 0 1-.667-.667V8.667c0-.368.3-.667.667-.667h24c.368 0 .667.299.667.667v2.666a.667.667 0 0 1-.667.667ZM8.69 10.667h22.666V9.333H8.69v1.334Z"/><path d="M30.689 9.333H9.356a.667.667 0 0 1-.667-.666V6c0-.368.299-.667.667-.667h21.333c.368 0 .667.299.667.667v2.667a.666.666 0 0 1-.667.666ZM10.022 8h20V6.667h-20V8ZM24.686 24h-9.333a2.67 2.67 0 0 1-2.667-2.667 2.67 2.67 0 0 1 2.667-2.666h9.333a2.67 2.67 0 0 1 2.667 2.666A2.67 2.67 0 0 1 24.686 24Zm-9.333-4c-.736 0-1.334.598-1.334 1.333 0 .736.598 1.334 1.334 1.334h9.333a1.335 1.335 0 0 0 0-2.667h-9.333Z"/><path d="M39.354 14.667H.687a.667.667 0 0 1-.619-.914L5.401.419a.667.667 0 0 1 .62-.418h28c.272 0 .517.166.618.418l5.334 13.334a.665.665 0 0 1-.619.914ZM1.672 13.333h36.697l-4.8-12H6.472l-4.8 12Z"/></g><defs><clipPath id="a"><path fill="#fff" d="M0 0h40v40H0z"/></clipPath></defs></svg>