<svg xmlns="http://www.w3.org/2000/svg" width="40" height="40" fill="none"><path fill="#1DBBBA" d="M12.188 24.375a.782.782 0 1 0 0 1.563.782.782 0 0 0 0-1.563Z"/><path fill="#1DBBBA" d="M37.283 6.02 31.948.688A2.36 2.36 0 0 0 30.291 0H4.375a2.346 2.346 0 0 0-2.343 2.344v35.312A2.346 2.346 0 0 0 4.375 40h31.25a2.346 2.346 0 0 0 2.344-2.344V7.678c0-.617-.25-1.22-.686-1.657ZM22.344 1.564h1.563v6.25h-1.563v-6.25Zm-10.937 0h9.375v7.03c0 .432.35.782.781.782h3.125c.431 0 .781-.35.781-.781V1.563h3.125v8.593c0 .431-.35.781-.781.781H12.188a.782.782 0 0 1-.781-.78V1.561Zm20.312 36.874H8.282v-3.124h23.437v3.124Zm0-4.687H8.282V22.031c0-.43.35-.781.781-.781h21.875c.43 0 .781.35.781.781V33.75Zm4.688 3.906c0 .431-.35.782-.781.782h-2.344V22.03a2.346 2.346 0 0 0-2.344-2.343H9.063a2.346 2.346 0 0 0-2.344 2.343v16.407H4.375a.782.782 0 0 1-.78-.782V2.344c0-.431.35-.781.78-.781h5.47v8.593a2.346 2.346 0 0 0 2.343 2.344h15.625a2.346 2.346 0 0 0 2.344-2.344V1.562h.134c.206 0 .407.084.552.23l5.335 5.334a.786.786 0 0 1 .229.552v29.978Z"/><path fill="#1DBBBA" d="M27.813 24.375h-12.5a.781.781 0 0 0 0 1.563h12.5a.781.781 0 0 0 0-1.563ZM27.813 29.063H12.188a.781.781 0 0 0 0 1.562h15.625a.781.781 0 0 0 0-1.563Z"/></svg>