<svg xmlns="http://www.w3.org/2000/svg" width="40" height="40" fill="none"><g fill="#1DBBBA" clip-path="url(#a)"><path d="M29.065 21.344H16.13a.586.586 0 1 0 0 1.172h12.934a.586.586 0 0 0 0-1.172ZM29.065 25.698H16.13a.586.586 0 0 0 0 1.171h12.934a.586.586 0 0 0 0-1.171ZM29.065 30.051H16.13a.586.586 0 0 0 0 1.172h12.934a.586.586 0 1 0 0-1.172ZM29.065 34.405H16.13a.586.586 0 1 0 0 1.172h12.934a.586.586 0 0 0 0-1.172ZM20 15.407a4.703 4.703 0 0 0 4.36-2.918.586.586 0 0 0-1.083-.447A3.535 3.535 0 0 1 20 14.235a3.548 3.548 0 0 1-3.544-3.544A3.548 3.548 0 0 1 20 7.146a3.562 3.562 0 0 1 3.402 2.55.586.586 0 1 0 1.125-.33A4.74 4.74 0 0 0 20 5.975a4.722 4.722 0 0 0-4.716 4.717c0 2.6 2.115 4.716 4.716 4.716Z"/><path d="m21.454 9.315-1.715 1.715-1.19-1.19a.586.586 0 1 0-.829.829l1.605 1.604a.584.584 0 0 0 .829 0l2.129-2.129a.586.586 0 1 0-.829-.829ZM14.164 20.932a.821.821 0 0 0-.82-.82h-2.171a.821.821 0 0 0-.82.82v2.171c0 .453.367.82.82.82h2.17c.453 0 .821-.367.821-.82v-2.17Zm-1.172 1.82h-1.468v-1.468h1.468v1.468ZM14.164 25.286a.821.821 0 0 0-.82-.82h-2.171a.821.821 0 0 0-.82.82v2.17c0 .453.367.821.82.821h2.17c.453 0 .821-.368.821-.82v-2.171Zm-1.172 1.82h-1.468v-1.469h1.468v1.468ZM14.164 29.64a.821.821 0 0 0-.82-.82h-2.171a.821.821 0 0 0-.82.82v2.17c0 .453.367.82.82.82h2.17c.453 0 .821-.367.821-.82v-2.17Zm-1.172 1.819h-1.468V29.99h1.468v1.468ZM13.344 33.173h-2.171a.821.821 0 0 0-.82.82v2.171c0 .452.367.82.82.82h2.17c.453 0 .821-.368.821-.82v-2.17a.821.821 0 0 0-.82-.821Zm-.352 2.64h-1.468v-1.468h1.468v1.468Z"/><path d="M37.163 10.25a.855.855 0 0 0-.695-.587l-1.977-.287-.31-.627V.977A.978.978 0 0 0 33.205 0H6.799a.978.978 0 0 0-.977.977v7.772l-.31.627-1.977.287a.855.855 0 0 0-.694.586.855.855 0 0 0 .217.883l1.431 1.394-.338 1.969a.855.855 0 0 0 .343.842c.267.194.614.219.906.065l.422-.222v23.843c0 .539.438.977.977.977h26.406a.978.978 0 0 0 .976-.977V28.437a.586.586 0 1 0-1.171 0v10.391H6.994V14.564l.174-.092 1.769.93a.861.861 0 0 0 1.248-.907l-.337-1.97 1.43-1.394a.855.855 0 0 0 .218-.882.855.855 0 0 0-.695-.586l-1.977-.287-.884-1.791a.855.855 0 0 0-.772-.48.865.865 0 0 0-.174.02V5.933h7.133l-.076.433-2.056 1.094a.858.858 0 0 0-.37 1.137l1.021 2.093-1.02 2.093a.858.858 0 0 0 .369 1.137l2.056 1.094.404 2.293c.081.459.506.767.968.703l2.306-.324 1.675 1.617a.858.858 0 0 0 1.196 0l1.675-1.617 2.306.324a.858.858 0 0 0 .967-.703l.405-2.293 2.056-1.094a.858.858 0 0 0 .37-1.137l-1.021-2.093 1.02-2.093a.858.858 0 0 0-.37-1.137l-2.055-1.094-.077-.433h1.86a.586.586 0 1 0 0-1.172H25.67l-.122-.688a.858.858 0 0 0-.967-.703l-2.306.324L20.6 2.077a.857.857 0 0 0-1.196 0l-1.675 1.618-2.306-.324a.858.858 0 0 0-.968.703l-.121.688h-7.34v-3.59H33.01v3.59h-2.54a.586.586 0 1 0 0 1.172h2.54v1.19a.855.855 0 0 0-.946.46l-.885 1.792-1.977.287a.855.855 0 0 0-.695.586.855.855 0 0 0 .218.882l1.43 1.395-.337 1.969a.855.855 0 0 0 .343.842.857.857 0 0 0 .906.065l1.768-.93.175.092v11.14a.586.586 0 1 0 1.172 0V15.18l.421.222c.292.154.64.129.907-.065a.856.856 0 0 0 .342-.842l-.337-1.97 1.43-1.394a.855.855 0 0 0 .218-.882ZM7.168 8.668l.678 1.372a.86.86 0 0 0 .648.471l1.515.22-1.096 1.069a.86.86 0 0 0-.248.762l.259 1.508-1.355-.712a.86.86 0 0 0-.801 0l-1.355.712.259-1.508a.86.86 0 0 0-.248-.762l-1.096-1.069 1.515-.22a.86.86 0 0 0 .648-.47l.677-1.373Zm7.567-1.338a.856.856 0 0 0 .444-.61l.378-2.148 2.159.304a.856.856 0 0 0 .717-.233l1.569-1.515 1.568 1.514c.192.186.453.27.718.234l2.158-.304.38 2.147a.856.856 0 0 0 .443.61l1.925 1.024-.956 1.96a.856.856 0 0 0 0 .754l.955 1.96-1.924 1.023a.855.855 0 0 0-.444.61l-.379 2.147-2.158-.303a.855.855 0 0 0-.718.233l-1.568 1.515-1.569-1.515a.855.855 0 0 0-.717-.233l-2.159.303-.379-2.146a.856.856 0 0 0-.443-.61l-1.925-1.024.956-1.96a.856.856 0 0 0 0-.754l-.956-1.96 1.925-1.023Zm19.844 4.47a.86.86 0 0 0-.247.762l.259 1.508-1.355-.712a.86.86 0 0 0-.801 0l-1.355.713.259-1.51a.86.86 0 0 0-.248-.761l-1.096-1.069 1.515-.22a.86.86 0 0 0 .648-.47l.677-1.373.678 1.373a.86.86 0 0 0 .648.47l1.515.22-1.097 1.069Z"/></g><defs><clipPath id="a"><path fill="#fff" d="M0 0h40v40H0z"/></clipPath></defs></svg>