<svg xmlns="http://www.w3.org/2000/svg" width="40" height="40" fill="none"><path fill="#1DBBBA" d="M11.25 12.5h15v.938h-15V12.5ZM11.25 17.5h15v.938h-15V17.5ZM11.25 20h10v.938h-10V20ZM11.25 15h15v.938h-15V15ZM15.47 6.25h-4.688v4.688h4.687V6.25ZM14.531 10h-2.813V7.187h2.813V10Z"/><path fill="#1DBBBA" d="M31.72 22.969V0H10.781v2.5h-2.5v20.469h-2.5V40h28.437V22.969h-2.5ZM11.72.937h19.062V22.97h-1.563V9.025L22.695 2.5H11.719V.937ZM22.97 4.1l4.649 4.65h-4.65V4.1ZM9.22 3.438h12.812v6.25h6.25v13.28h-3.75v2.5h-9.063v-2.5H9.22V3.439Zm5.312 20.468v2.5h10.937v-2.5h7.813v13.125H6.719V23.906h7.813ZM6.719 39.063v-1.094h26.563v1.093H6.719Z"/><path fill="#1DBBBA" d="M25.47 28.75H14.531v3.438h10.937V28.75Zm-.938 2.5h-9.063v-1.563h9.063v1.563Z"/></svg>