<svg xmlns="http://www.w3.org/2000/svg" width="40" height="40" fill="none"><g fill="#1DBBBA" clip-path="url(#a)"><path d="M.69 28.533c0 1.019 1.588 1.02 1.588 0V27.35h3.087v6.983c0 .875.711 1.587 1.587 1.587h3c.874 0 1.586-.712 1.586-1.587v-6.983h1.49v4.195c0 .875.713 1.587 1.588 1.587h3c.874 0 1.586-.712 1.586-1.587v-4.195h1.49v8.673c0 .875.713 1.587 1.588 1.587h3c.874 0 1.586-.712 1.586-1.587v-8.673h1.491v11.064c0 .875.712 1.587 1.587 1.587h3c.875 0 1.587-.712 1.587-1.587V27.349h3.189v1.184c0 1.019 1.587 1.02 1.587 0v-9.927c0-1.019-1.587-1.02-1.587 0v1.03h-3.087V8.185a2.37 2.37 0 0 0-.696-1.685L28.145.7A2.363 2.363 0 0 0 26.462 0H7.745a2.385 2.385 0 0 0-2.38 2.384v7.94c0 1.02 1.587 1.021 1.587 0v-7.94c0-.44.356-.797.793-.797h18.478v4.477a2.383 2.383 0 0 0 2.38 2.38h4.443v11.191H6.952v-2.881c0-1.02-1.587-1.02-1.587 0v2.881H2.278v-1.029c0-1.019-1.587-1.02-1.587 0v9.927ZM27.81 6.064V2.609l4.24 4.249h-3.447a.794.794 0 0 1-.793-.794ZM9.952 34.332h-3v-6.983h3v6.983Zm7.664-2.788h-3v-4.195h3v4.195Zm7.664 4.478h-3v-8.673h3v8.673Zm7.664 2.39v.001h-3V27.349h3v11.064ZM2.278 25.763v-4.54H37.72v4.54H2.278Z"/><path d="M5.165 23.266a.801.801 0 0 0-1.037-.43.801.801 0 0 0-.43 1.037.8.8 0 0 0 1.037.43.801.801 0 0 0 .43-1.037ZM7.439 23.266a.801.801 0 0 0-.792-.488.8.8 0 0 0-.715.618c-.157.693.65 1.23 1.23.822a.8.8 0 0 0 .277-.952ZM5.426 13.789a.8.8 0 0 0 1.037.43.8.8 0 0 0 .429-1.037.801.801 0 0 0-1.036-.43.8.8 0 0 0-.43 1.037ZM12.224 8.983h6.228c1.019 0 1.02-1.587 0-1.587h-6.228c-1.019 0-1.02 1.587 0 1.587ZM12.224 12.76h15.552c1.018 0 1.02-1.586 0-1.586H12.224c-1.019 0-1.02 1.587 0 1.587ZM12.224 16.535h15.552c1.018 0 1.02-1.587 0-1.587H12.224c-1.019 0-1.02 1.587 0 1.587Z"/></g><defs><clipPath id="a"><path fill="#fff" d="M0 0h40v40H0z"/></clipPath></defs></svg>