<svg xmlns="http://www.w3.org/2000/svg" width="40" height="40" fill="none"><g fill="#1DBBBA" clip-path="url(#a)"><path d="M13.125 22.5h-1.25v-3.75h1.25V17.5h-3.75v1.25h1.25v3.75h-1.25v1.25h3.75V22.5Z"/><path d="M19.375 19.375c0-4.48-3.645-8.125-8.125-8.125s-8.125 3.645-8.125 8.125S6.77 27.5 11.25 27.5s8.125-3.645 8.125-8.125Zm-15 0A6.883 6.883 0 0 1 11.25 12.5a6.883 6.883 0 0 1 6.875 6.875 6.883 6.883 0 0 1-6.875 6.875 6.883 6.883 0 0 1-6.875-6.875Z"/><path d="M10.625 15h1.25v1.25h-1.25V15Z"/><path d="M36.875 3.125H21.201a5.003 5.003 0 0 0-4.326-2.5 5 5 0 0 0-4.342 2.53 3.11 3.11 0 0 0-1.908-.655A3.129 3.129 0 0 0 7.5 5.625c0 .03.005.058.006.087a2.486 2.486 0 0 0-1.102 4.22C2.978 11.695.625 15.261.625 19.374c0 4.771 3.162 8.817 7.5 10.154v7.346c0 1.379 1.121 2.5 2.5 2.5h1.25c1.379 0 2.5-1.121 2.5-2.5v-7.346c.89-.274 1.726-.67 2.5-1.157v8.503c0 1.379 1.121 2.5 2.5 2.5h17.5c1.379 0 2.5-1.121 2.5-2.5V5.625c0-1.379-1.121-2.5-2.5-2.5Zm-15 1.25h15c.69 0 1.25.56 1.25 1.25v2.5H24.937a3.126 3.126 0 0 0-3.062-3.75c-.054 0-.105.013-.159.016l-.004-.016h.163Zm-15 3.75a1.251 1.251 0 0 1 2.182-.833l.931-.834a2.498 2.498 0 0 0-1.227-.74c-.001-.032-.011-.062-.011-.093 0-1.034.841-1.875 1.875-1.875.55 0 1.053.248 1.406.657a4.99 4.99 0 0 0-.156 1.218h1.25a3.754 3.754 0 0 1 3.75-3.75 3.743 3.743 0 0 1 3.623 2.834A3.12 3.12 0 0 0 18.75 7.5H20c0-1.034.841-1.875 1.875-1.875s1.875.841 1.875 1.875a1.877 1.877 0 0 1-1.875 1.875h-7.07a10.55 10.55 0 0 0-3.555-.625c-1.203 0-2.356.21-3.436.581a1.24 1.24 0 0 1-.939-1.206Zm-5 11.25c0-5.17 4.206-9.375 9.375-9.375 5.17 0 9.375 4.206 9.375 9.375 0 5.17-4.206 9.375-9.375 9.375-5.17 0-9.375-4.206-9.375-9.375Zm11.25 17.5c0 .69-.56 1.25-1.25 1.25h-1.25c-.69 0-1.25-.56-1.25-1.25v-7.05c.61.108 1.234.175 1.875.175.64 0 1.265-.067 1.875-.176v7.051Zm8.054-13.75h14.446v-1.25h-14.06c.1-.409.18-.824.23-1.25h8.83v-8.75h-10v2.51a10.695 10.695 0 0 0-3.361-3.76h4.611a3.11 3.11 0 0 0 2.484-1.25h13.766v21.25h-20v-3.164a10.653 10.653 0 0 0 3.054-4.336Zm.696-3.75v-6.25h7.5v6.25h-7.5Zm15 18.75h-17.5c-.69 0-1.25-.56-1.25-1.25v-5h20v5c0 .69-.56 1.25-1.25 1.25Z"/><path d="M28.125 33.125A1.877 1.877 0 0 0 26.25 35c0 1.034.841 1.875 1.875 1.875A1.877 1.877 0 0 0 30 35a1.877 1.877 0 0 0-1.875-1.875Zm0 2.5a.625.625 0 1 1 0-1.25.625.625 0 0 1 0 1.25ZM31.875 11.875h3.75v1.25h-3.75v-1.25ZM31.875 14.375h1.25v1.25h-1.25v-1.25ZM34.375 14.375h1.25v1.25h-1.25v-1.25ZM31.875 16.875h3.75v1.25h-3.75v-1.25ZM31.875 19.375h3.75v1.25h-3.75v-1.25ZM20.625 24.375h15v1.25h-15v-1.25ZM34.375 26.875h1.25v1.25h-1.25v-1.25ZM31.875 26.875h1.25v1.25h-1.25v-1.25ZM20.625 26.875h10v1.25h-10v-1.25Z"/></g><defs><clipPath id="a"><path fill="#fff" d="M0 0h40v40H0z"/></clipPath></defs></svg>