<svg xmlns="http://www.w3.org/2000/svg" width="41" height="40" fill="none"><g fill="#1DBBBA" clip-path="url(#a)"><path d="M35.788 34.375a4.38 4.38 0 0 1-4.375 4.375 4.38 4.38 0 0 1-4.375-4.375.624.624 0 0 0-.625-.625H5.788V1.25h30V5h1.25V.625A.624.624 0 0 0 36.413 0H5.163a.624.624 0 0 0-.625.625V33.75H1.413a.624.624 0 0 0-.625.625A5.631 5.631 0 0 0 6.413 40h25a5.631 5.631 0 0 0 5.625-5.625V17.5h-1.25v16.875ZM6.413 38.75A4.382 4.382 0 0 1 2.083 35h23.74a5.62 5.62 0 0 0 2.067 3.75H6.413Z"/><path d="M23.913 6.875a3.129 3.129 0 0 0-3.125-3.125 3.129 3.129 0 0 0-3.125 3.125A3.129 3.129 0 0 0 20.788 10a3.129 3.129 0 0 0 3.125-3.125Zm-5 0c0-1.034.841-1.875 1.875-1.875s1.875.841 1.875 1.875a1.877 1.877 0 0 1-1.875 1.875 1.877 1.877 0 0 1-1.875-1.875ZM15.788 4.375H7.663v1.25h8.125v-1.25ZM15.788 6.875H7.663v1.25h8.125v-1.25ZM15.788 9.375H7.663v1.25h8.125v-1.25ZM37.48 6.433a.624.624 0 0 0-.884 0l-15 15a.622.622 0 0 0-.183.442v3.491L19.28 27.5H8.29v1.25h13.75V27.5h-.992l1.25-1.25h3.491a.622.622 0 0 0 .442-.183l11.25-11.25a5.935 5.935 0 0 0 0-8.384Zm-.884 7.5L25.53 25h-1.982L36.23 12.317l-.884-.884-12.683 12.683v-1.982L37.01 7.788a4.686 4.686 0 0 1-.413 6.145Z"/><path d="M26.413 13.125H10.788v1.25h15.625v-1.25ZM23.913 15.625H8.288v1.25h15.625v-1.25ZM13.913 18.125H8.288v1.25h5.625v-1.25ZM22.038 18.125h-6.875v1.25h6.875v-1.25ZM20.163 20.625H8.288v1.25h11.875v-1.25ZM32.663 30h-9.375v1.25h9.375V30Z"/></g><defs><clipPath id="a"><path fill="#fff" d="M.001 0h40v40h-40z"/></clipPath></defs></svg>