<svg xmlns="http://www.w3.org/2000/svg" width="40" height="40" fill="none"><g clip-path="url(#a)"><path fill="#1DBBBA" d="M40 11.524a.568.568 0 0 0-.003-.061v-.003l-.003-.013a.62.62 0 0 0-.008-.047l-.005-.019a.667.667 0 0 0-.012-.043l-.007-.018a.541.541 0 0 0-.017-.04l-.008-.018a.565.565 0 0 0-.021-.038l-.01-.017a.641.641 0 0 0-.027-.037l-.01-.013a.577.577 0 0 0-.042-.046l-.008-.007a.573.573 0 0 0-.038-.034l-.015-.012a.543.543 0 0 0-.037-.025l-.007-.005-5.167-3.196V6.148c0-.669-.544-1.213-1.213-1.213h-3.473L23.256.845a3.626 3.626 0 0 0-3.836 0L13.784 4.33V1.31c0-.717-.583-1.3-1.3-1.3h-5c-.716 0-1.3.583-1.3 1.3v.872a.587.587 0 1 0 1.175 0V1.31c0-.07.056-.126.125-.126h5c.07 0 .127.056.127.126v6.722c0 .325.262.587.587.587h.924l-4.137 4.976-4.138-4.976h.925a.587.587 0 0 0 .587-.587V4.765a.587.587 0 1 0-1.174 0v2.68h-.996c-.339 0-.64.191-.783.498a.858.858 0 0 0 .118.921l.655.788-1.92 1.187H1.033c-.57 0-1.033.463-1.033 1.032v4.869c0 .57.464 1.032 1.033 1.032h1.643v5.277a.587.587 0 1 0 1.174 0v-5.277h4.86l5.82 5.788-.063.094-9.79 15.162h-.631a.196.196 0 0 1-.196-.196V25.665a.587.587 0 1 0-1.174 0V38.62c0 .756.614 1.37 1.37 1.37H38.63c.755 0 1.37-.614 1.37-1.37V11.525Zm-5.445-2.311 3.917 2.422-3.917 3.895V9.213Zm-14.517-7.37a2.458 2.458 0 0 1 2.6 0l4.999 3.092H15.039l4.999-3.091Zm-9.662 15.93h8.56c.57 0 1.033-.464 1.033-1.033v-4.868c0-.57-.463-1.033-1.033-1.033h-4.12a.587.587 0 1 0 0 1.174h3.979v4.585H1.175v-4.585h3.689a.587.587 0 0 0 .389-1.026l.684-.423L9.32 14.63a.863.863 0 0 0 1.331 0l4.795-5.767a.858.858 0 0 0 .118-.92.858.858 0 0 0-.783-.499h-.995V6.11h19.557a.04.04 0 0 1 .039.04v10.549l-1.616 1.606-4.343 4.32a8.142 8.142 0 0 0-6.084-2.712 8.142 8.142 0 0 0-6.084 2.711l-4.878-4.85Zm-4.3 21.043 9.378-14.525a6.977 6.977 0 0 1 5.884-3.205 6.977 6.977 0 0 1 5.884 3.205l9.379 14.525H6.075Zm32.75-.196a.196.196 0 0 1-.195.196h-.632l-9.79-15.162c-.02-.032-.042-.063-.063-.094l4.58-4.555 1.656-1.647 4.444-4.42V38.62Z"/></g><defs><clipPath id="a"><path fill="#fff" d="M0 0h40v40H0z"/></clipPath></defs></svg>