<svg width="497" height="497" viewBox="0 0 497 497" fill="none" xmlns="http://www.w3.org/2000/svg">
<g clip-path="url(#clip0_305_14300)">
<path d="M122.412 213.423C122.412 211.421 120.811 209.82 118.809 209.82C116.808 209.82 115.207 211.421 115.207 213.423C115.207 215.424 116.808 217.025 118.809 217.025C120.744 217.025 122.412 215.424 122.412 213.423Z" fill="#00344A"/>
<path d="M337.559 372.197C339.549 372.197 341.162 370.584 341.162 368.595C341.162 366.605 339.549 364.992 337.559 364.992C335.57 364.992 333.957 366.605 333.957 368.595C333.957 370.584 335.57 372.197 337.559 372.197Z" fill="#00344A"/>
<path d="M366.595 277.556L337.266 368.547L337.901 368.752L367.23 277.761L366.595 277.556Z" fill="#00344A"/>
<path d="M366.849 281.267C368.838 281.267 370.451 279.655 370.451 277.665C370.451 275.675 368.838 274.062 366.849 274.062C364.859 274.062 363.246 275.675 363.246 277.665C363.246 279.655 364.859 281.267 366.849 281.267Z" fill="#00344A"/>
<path d="M297.064 154.213L296.484 154.543L366.591 277.836L367.171 277.506L297.064 154.213Z" fill="#00344A"/>
<path d="M296.731 157.99C298.721 157.99 300.334 156.377 300.334 154.388C300.334 152.398 298.721 150.785 296.731 150.785C294.742 150.785 293.129 152.398 293.129 154.388C293.129 156.377 294.742 157.99 296.731 157.99Z" fill="#00344A"/>
<path d="M278.455 261.391C278.455 259.39 276.854 257.789 274.852 257.789C272.851 257.789 271.25 259.39 271.25 261.391C271.25 263.393 272.851 264.994 274.852 264.994C276.854 264.994 278.455 263.393 278.455 261.391Z" fill="#00344A"/>
<path d="M275.123 261.183L274.547 261.52L337.264 368.744L337.84 368.408L275.123 261.183Z" fill="#00344A"/>
<path d="M274.843 261.07L274.727 261.727L366.76 278.008L366.876 277.351L274.843 261.07Z" fill="#00344A"/>
<path d="M296.424 154.344L274.484 261.324L275.138 261.458L297.078 154.478L296.424 154.344Z" fill="#00344A"/>
<path d="M170.072 107.101L118.453 213.23L119.053 213.522L170.672 107.393L170.072 107.101Z" fill="#00344A"/>
<path d="M170.452 107L170.219 107.625L296.563 154.679L296.796 154.054L170.452 107Z" fill="#00344A"/>
<path d="M170.65 107.122L170.098 107.496L274.533 261.553L275.085 261.179L170.65 107.122Z" fill="#00344A"/>
<path d="M170.38 110.888C172.369 110.888 173.982 109.276 173.982 107.286C173.982 105.296 172.369 103.684 170.38 103.684C168.39 103.684 166.777 105.296 166.777 107.286C166.777 109.276 168.39 110.888 170.38 110.888Z" fill="#00344A"/>
<path d="M118.513 213.159L35.9453 301.27L36.4321 301.726L119 213.615L118.513 213.159Z" fill="#00344A"/>
<path d="M337.715 368.37L337.484 368.996L421.059 399.775L421.289 399.149L337.715 368.37Z" fill="#00344A"/>
<path d="M424.318 138.058L366.527 277.523L367.144 277.779L424.935 138.313L424.318 138.058Z" fill="#00344A"/>
<path d="M367.16 277.478L366.551 277.75L420.84 399.484L421.449 399.213L367.16 277.478Z" fill="#00344A"/>
<path d="M424.695 137.857L296.746 153.977L296.829 154.638L424.778 138.519L424.695 137.857Z" fill="#00344A"/>
<path d="M274.738 261.037L36.0469 301.117L36.1574 301.775L274.849 261.695L274.738 261.037Z" fill="#00344A"/>
<path d="M208.39 46.9842L170.18 107.125L170.743 107.483L208.953 47.342L208.39 46.9842Z" fill="#00344A"/>
<path d="M212.271 47.1767C212.271 45.1753 210.67 43.5742 208.669 43.5742C206.667 43.5742 205.066 45.1753 205.066 47.1767C205.066 49.178 206.667 50.7791 208.669 50.7791C210.603 50.7791 212.271 49.178 212.271 47.1767Z" fill="#00344A"/>
<path d="M424.684 141.775C426.674 141.775 428.287 140.162 428.287 138.173C428.287 136.183 426.674 134.57 424.684 134.57C422.695 134.57 421.082 136.183 421.082 138.173C421.082 140.162 422.695 141.775 424.684 141.775Z" fill="#00344A"/>
<path d="M421.149 403.021C423.139 403.021 424.752 401.408 424.752 399.419C424.752 397.429 423.139 395.816 421.149 395.816C419.16 395.816 417.547 397.429 417.547 399.419C417.547 401.408 419.16 403.021 421.149 403.021Z" fill="#00344A"/>
<path d="M270.313 475.806C272.303 475.806 273.916 474.194 273.916 472.204C273.916 470.214 272.303 468.602 270.313 468.602C268.324 468.602 266.711 470.214 266.711 472.204C266.711 474.194 268.324 475.806 270.313 475.806Z" fill="#00344A"/>
<path d="M122.278 415.892C124.268 415.892 125.881 414.28 125.881 412.29C125.881 410.3 124.268 408.688 122.278 408.688C120.289 408.688 118.676 410.3 118.676 412.29C118.676 414.28 120.289 415.892 122.278 415.892Z" fill="#00344A"/>
<path d="M39.7557 301.415C39.7557 299.414 38.1546 297.812 36.1532 297.812C34.1519 297.812 32.5508 299.414 32.5508 301.415C32.5508 303.416 34.1519 305.017 36.1532 305.017C38.0879 305.084 39.7557 303.416 39.7557 301.415Z" fill="#00344A"/>
<path d="M119.065 213.282L118.453 213.547L162.833 316.021L163.445 315.756L119.065 213.282Z" fill="#00344A"/>
<path d="M337.481 368.286L233.012 384.602L233.115 385.261L337.584 368.945L337.481 368.286Z" fill="#00344A"/>
<path d="M327.676 55.5716L296.418 154.273L297.054 154.475L328.312 55.773L327.676 55.5716Z" fill="#00344A"/>
<path d="M274.667 261.086L162.973 315.598L163.265 316.197L274.96 261.686L274.667 261.086Z" fill="#00344A"/>
<path d="M274.518 261.259L232.723 384.871L233.355 385.085L275.15 261.473L274.518 261.259Z" fill="#00344A"/>
<path d="M208.673 46.8228L208.625 47.4883L328.007 56.0141L328.055 55.3487L208.673 46.8228Z" fill="#00344A"/>
<path d="M36.1771 301.099L36.1016 301.762L163.17 316.251L163.246 315.588L36.1771 301.099Z" fill="#00344A"/>
<path d="M162.869 315.797L121.969 412.219L122.583 412.479L163.483 316.058L162.869 315.797Z" fill="#00344A"/>
<path d="M233.395 384.847L232.781 385.109L270.044 472.347L270.658 472.085L233.395 384.847Z" fill="#00344A"/>
<path d="M233.102 384.675L233.051 385.34L421.099 399.747L421.15 399.081L233.102 384.675Z" fill="#00344A"/>
<path d="M163.173 319.502C165.162 319.502 166.775 317.889 166.775 315.899C166.775 313.91 165.162 312.297 163.173 312.297C161.183 312.297 159.57 313.91 159.57 315.899C159.57 317.889 161.183 319.502 163.173 319.502Z" fill="#00344A"/>
<path d="M233.087 388.607C235.076 388.607 236.689 386.994 236.689 385.005C236.689 383.015 235.076 381.402 233.087 381.402C231.097 381.402 229.484 383.015 229.484 385.005C229.484 386.994 231.097 388.607 233.087 388.607Z" fill="#00344A"/>
<path d="M328.017 59.3182C330.006 59.3182 331.619 57.7053 331.619 55.7157C331.619 53.7262 330.006 52.1133 328.017 52.1133C326.027 52.1133 324.414 53.7262 324.414 55.7157C324.414 57.7053 326.027 59.3182 328.017 59.3182Z" fill="#00344A"/>
<path d="M163.399 315.654L162.93 316.129L232.864 385.257L233.333 384.783L163.399 315.654Z" fill="#00344A"/>
<path d="M51.7309 143.217L51.25 143.68L118.526 213.645L119.007 213.182L51.7309 143.217Z" fill="#00344A"/>
<path d="M170.245 106.982L51.4062 143.129L51.6004 143.767L170.44 107.62L170.245 106.982Z" fill="#00344A"/>
<path d="M51.7983 143.266L51.2383 143.629L162.877 316.047L163.437 315.684L51.7983 143.266Z" fill="#00344A"/>
<path d="M55.0994 143.442C55.0994 141.441 53.4983 139.84 51.497 139.84C49.4956 139.84 47.8945 141.441 47.8945 143.442C47.8945 145.444 49.4956 147.045 51.497 147.045C53.4983 147.045 55.0994 145.444 55.0994 143.442Z" fill="#00344A"/>
<path d="M296.999 154.591L296.465 154.191L373.784 37.5117L374.384 37.8453L296.999 154.591Z" fill="#00344A"/>
<path d="M274.517 261.526L134.422 32.1031L135.022 31.7695L275.118 261.192L274.517 261.526Z" fill="#00344A"/>
<path d="M274.986 261.661L274.719 261.06L480.325 169.465L480.592 170.065L274.986 261.661Z" fill="#00344A"/>
<path d="M1.99609 265.328V264.661L274.848 261.059V261.726L1.99609 265.328Z" fill="#00344A"/>
<path d="M170.647 107.554L170.113 107.087L266.445 2.94922L266.979 3.34949L170.647 107.554Z" fill="#00344A"/>
<path d="M194.463 490.081L194.062 489.614L337.36 368.398L337.76 368.865L194.463 490.081Z" fill="#00344A"/>
<path d="M118.681 213.691L11.875 182.804L12.0751 182.203L118.881 213.091L118.681 213.691Z" fill="#00344A"/>
<path d="M399.067 448.985L366.512 277.735L367.179 277.602L399.734 448.851L399.067 448.985Z" fill="#00344A"/>
<path d="M493.4 277.34H366.848V278.007H493.4V277.34Z" fill="#00344A"/>
<path d="M296.528 154.657L134.484 32.2407L134.885 31.707L296.928 154.124L296.528 154.657Z" fill="#00344A"/>
<path d="M170.113 107.487L134.422 32.1028L135.022 31.8359L170.713 107.154L170.113 107.487Z" fill="#00344A"/>
<path d="M208.534 47.5181L134.617 32.3077L134.751 31.6406L208.668 46.851L208.534 47.5181Z" fill="#00344A"/>
<path d="M208.803 47.4464L208.402 46.9127L266.509 2.88281L266.909 3.4165L208.803 47.4464Z" fill="#00344A"/>
<path d="M480.322 170.065L424.484 138.444L424.818 137.91L480.656 169.465L480.322 170.065Z" fill="#00344A"/>
<path d="M35.818 301.487L11.6016 182.539L12.2687 182.473L36.4184 301.353L35.818 301.487Z" fill="#00344A"/>
<path d="M35.8861 301.688L1.92969 265.33L2.46339 264.863L36.3531 301.221L35.8861 301.688Z" fill="#00344A"/>
<path d="M27.3507 357.256L26.6836 357.123L35.7564 301.418L36.4236 301.485L27.3507 357.256Z" fill="#00344A"/>
<path d="M122.081 412.631L26.8828 357.46L27.2164 356.859L122.414 412.03L122.081 412.631Z" fill="#00344A"/>
<path d="M421.283 399.685L420.949 399.084L462.444 375.535L462.778 376.136L421.283 399.685Z" fill="#00344A"/>
<path d="M399.737 449.052L399.137 448.785L420.818 399.285L421.419 399.552L399.737 449.052Z" fill="#00344A"/>
<path d="M125.548 461.664L121.945 412.364L122.612 412.297L126.215 461.597L125.548 461.664Z" fill="#00344A"/>
<path d="M194.329 490.217L194.195 489.55L270.247 471.871L270.38 472.538L194.329 490.217Z" fill="#00344A"/>
<path d="M317.479 486.281L270.113 472.472L270.313 471.805L317.679 485.614L317.479 486.281Z" fill="#00344A"/>
<path d="M493.061 277.805L424.348 138.31L424.948 138.043L493.661 277.538L493.061 277.805Z" fill="#00344A"/>
<path d="M327.749 55.9189L266.508 3.4165L266.908 2.88281L328.216 55.4519L327.749 55.9189Z" fill="#00344A"/>
<path d="M328.083 55.9876L327.883 55.3872L373.981 37.375L374.181 37.9754L328.083 55.9876Z" fill="#00344A"/>
<path d="M163.04 316.229L1.86328 265.327L2.13013 264.66L163.24 315.561L163.04 316.229Z" fill="#00344A"/>
<path d="M194.597 489.95L193.996 489.75L232.756 384.879L233.423 385.146L194.597 489.95Z" fill="#00344A"/>
<path d="M51.8351 143.512L51.168 143.379L59.7738 92.2773L60.4409 92.4108L51.8351 143.512Z" fill="#00344A"/>
<path d="M12.2678 183.54L11.8008 183.073L51.2943 143.246L51.7613 143.713L12.2678 183.54Z" fill="#00344A"/>
<path d="M118.476 213.56L59.7695 92.4778L60.3699 92.2109L119.077 213.227L118.476 213.56Z" fill="#00344A"/>
<path d="M2.13013 265.329L1.86328 264.662L118.609 213.094L118.876 213.694L2.13013 265.329Z" fill="#00344A"/>
<path d="M119.077 213.426L118.41 213.359L134.354 31.9023L135.021 31.969L119.077 213.426Z" fill="#00344A"/>
<path d="M399.131 449.12L337.289 368.865L337.823 368.398L399.665 448.72L399.131 449.12Z" fill="#00344A"/>
<path d="M480.458 173.334C482.448 173.334 484.06 171.721 484.06 169.731C484.06 167.742 482.448 166.129 480.458 166.129C478.468 166.129 476.855 167.742 476.855 169.731C476.855 171.721 478.468 173.334 480.458 173.334Z" fill="#00344A"/>
<path d="M266.712 6.75176C268.701 6.75176 270.314 5.1389 270.314 3.14932C270.314 1.15974 268.701 -0.453125 266.712 -0.453125C264.722 -0.453125 263.109 1.15974 263.109 3.14932C263.109 5.1389 264.722 6.75176 266.712 6.75176Z" fill="#00344A"/>
<path d="M138.353 31.9735C138.353 29.9722 136.752 28.3711 134.751 28.3711C132.75 28.3711 131.148 29.9722 131.148 31.9735C131.148 33.9749 132.75 35.576 134.751 35.576C136.686 35.576 138.353 33.9749 138.353 31.9735Z" fill="#00344A"/>
<path d="M11.9345 186.076C13.9241 186.076 15.5369 184.463 15.5369 182.474C15.5369 180.484 13.9241 178.871 11.9345 178.871C9.9449 178.871 8.33203 180.484 8.33203 182.474C8.33203 184.463 9.9449 186.076 11.9345 186.076Z" fill="#00344A"/>
<path d="M63.7049 92.3486C63.7049 90.3472 62.1038 88.7461 60.1025 88.7461C58.1011 88.7461 56.5 90.3472 56.5 92.3486C56.5 94.3499 58.1011 95.951 60.1025 95.951C62.1038 95.951 63.7049 94.3499 63.7049 92.3486Z" fill="#00344A"/>
<path d="M5.59942 265.001C5.59942 263 3.99834 261.398 1.99698 261.398C-0.0043844 261.398 -1.60547 263 -1.60547 265.001C-1.60547 267.002 -0.0043844 268.603 1.99698 268.603C3.99834 268.603 5.59942 267.002 5.59942 265.001Z" fill="#00344A"/>
<path d="M30.619 357.196C30.619 355.195 29.0179 353.594 27.0165 353.594C25.0151 353.594 23.4141 355.195 23.4141 357.196C23.4141 359.198 25.0151 360.799 27.0165 360.799C29.0179 360.799 30.619 359.198 30.619 357.196Z" fill="#00344A"/>
<path d="M129.486 461.661C129.486 459.66 127.885 458.059 125.884 458.059C123.882 458.059 122.281 459.66 122.281 461.661C122.281 463.662 123.882 465.263 125.884 465.263C127.885 465.263 129.486 463.662 129.486 461.661Z" fill="#00344A"/>
<path d="M197.865 489.88C197.865 487.878 196.264 486.277 194.263 486.277C192.261 486.277 190.66 487.878 190.66 489.88C190.66 491.881 192.261 493.482 194.263 493.482C196.264 493.482 197.865 491.881 197.865 489.88Z" fill="#00344A"/>
<path d="M321.213 486.282C321.213 484.281 319.612 482.68 317.61 482.68C315.609 482.68 314.008 484.281 314.008 486.282C314.008 488.284 315.609 489.885 317.61 489.885C319.612 489.885 321.213 488.217 321.213 486.282Z" fill="#00344A"/>
<path d="M403.006 448.919C403.006 446.918 401.405 445.316 399.403 445.316C397.402 445.316 395.801 446.918 395.801 448.919C395.801 450.92 397.402 452.521 399.403 452.521C401.405 452.521 403.006 450.92 403.006 448.919Z" fill="#00344A"/>
<path d="M462.642 379.474C464.631 379.474 466.244 377.862 466.244 375.872C466.244 373.882 464.631 372.27 462.642 372.27C460.652 372.27 459.039 373.882 459.039 375.872C459.039 377.862 460.652 379.474 462.642 379.474Z" fill="#00344A"/>
<path d="M377.717 37.7118C377.717 35.7105 376.116 34.1094 374.114 34.1094C372.113 34.1094 370.512 35.7105 370.512 37.7118C370.512 39.7132 372.113 41.3143 374.114 41.3143C376.049 41.3143 377.717 39.6465 377.717 37.7118Z" fill="#00344A"/>
<path d="M266.643 2.85826L134.645 31.6328L134.787 32.2847L266.785 3.5101L266.643 2.85826Z" fill="#00344A"/>
<path d="M134.512 31.7557L59.8828 92.1484L60.3025 92.6671L134.932 32.2743L134.512 31.7557Z" fill="#00344A"/>
<path d="M266.833 2.81803L266.629 3.45312L373.961 37.9639L374.165 37.3288L266.833 2.81803Z" fill="#00344A"/>
<path d="M374.34 37.4292L373.82 37.8477L480.199 169.918L480.719 169.5L374.34 37.4292Z" fill="#00344A"/>
<path d="M59.7953 92.1882L11.668 182.352L12.2565 182.666L60.3838 92.5024L59.7953 92.1882Z" fill="#00344A"/>
<path d="M480.791 169.761L480.129 169.84L493.05 277.742L493.713 277.663L480.791 169.761Z" fill="#00344A"/>
<path d="M11.6147 182.49L1.72266 264.957L2.38504 265.036L12.2771 182.57L11.6147 182.49Z" fill="#00344A"/>
<path d="M2.36649 264.915L1.72266 265.09L26.7615 357.287L27.4053 357.113L2.36649 264.915Z" fill="#00344A"/>
<path d="M493.069 277.583L462.352 375.762L462.988 375.961L493.705 277.782L493.069 277.583Z" fill="#00344A"/>
<path d="M27.2854 356.956L26.8008 357.414L125.656 461.893L126.14 461.434L27.2854 356.956Z" fill="#00344A"/>
<path d="M462.4 375.641L399.176 448.68L399.68 449.116L462.904 376.078L462.4 375.641Z" fill="#00344A"/>
<path d="M126.008 461.329L125.754 461.945L194.144 490.155L194.399 489.539L126.008 461.329Z" fill="#00344A"/>
<path d="M317.586 485.959L194.285 489.57L194.305 490.237L317.606 486.626L317.586 485.959Z" fill="#00344A"/>
<path d="M399.266 448.613L317.477 485.996L317.754 486.603L399.543 449.22L399.266 448.613Z" fill="#00344A"/>
<path d="M493.395 281.275C495.385 281.275 496.998 279.662 496.998 277.673C496.998 275.683 495.385 274.07 493.395 274.07C491.406 274.07 489.793 275.683 489.793 277.673C489.793 279.662 491.406 281.275 493.395 281.275Z" fill="#00344A"/>
<path d="M27.2089 357.458L26.8086 356.925L203.662 213.16L204.062 213.627L27.2089 357.458Z" fill="#00344A"/>
<path d="M269.642 79.7322L134.617 32.2999L134.817 31.6328L269.909 79.1318L269.642 79.7322Z" fill="#00344A"/>
<path d="M269.436 79.4709L266.367 3.15234H267.034L270.103 79.4042L269.436 79.4709Z" fill="#00344A"/>
<path d="M438.292 227.704L437.758 227.304L480.187 169.531L480.72 169.932L438.292 227.704Z" fill="#00344A"/>
<path d="M193.989 490.013L175.176 449.052L175.776 448.785L194.589 489.746L193.989 490.013Z" fill="#00344A"/>
<path d="M125.942 461.999L125.809 461.332L175.376 448.59L175.576 449.257L125.942 461.999Z" fill="#00344A"/>
<path d="M108.397 92.6145L107.797 92.3477L134.415 31.8398L135.015 32.1067L108.397 92.6145Z" fill="#00344A"/>
<path d="M108.064 92.8123L60.0977 92.6788V92.0117L108.064 92.1451V92.8123Z" fill="#00344A"/>
<path d="M203.524 213.497L134.41 32.1067L135.011 31.8398L204.124 213.297L203.524 213.497Z" fill="#00344A"/>
<path d="M204.194 213.496L203.527 213.296L266.37 3.08594L267.037 3.21937L204.194 213.496Z" fill="#00344A"/>
<path d="M351.362 173.532L266.438 3.28247L267.038 3.01562L351.962 173.198L351.362 173.532Z" fill="#00344A"/>
<path d="M380.778 75.537L373.707 37.7112L374.374 37.6445L381.379 75.4702L380.778 75.537Z" fill="#00344A"/>
<path d="M203.659 213.627L59.8281 92.6118L60.2951 92.0781L204.06 213.16L203.659 213.627Z" fill="#00344A"/>
<path d="M480.249 169.997L380.848 75.7326L381.315 75.2656L480.716 169.53L480.249 169.997Z" fill="#00344A"/>
<path d="M351.625 173.735V173.068L480.446 169.398V170.066L351.625 173.735Z" fill="#00344A"/>
<path d="M453.495 332.841L452.828 332.775L480.113 169.73L480.78 169.797L453.495 332.841Z" fill="#00344A"/>
<path d="M41.4804 217.231L11.6602 182.74L12.1939 182.273L42.0141 216.764L41.4804 217.231Z" fill="#00344A"/>
<path d="M2.25634 265.198L1.72266 264.798L41.483 216.832L42.0167 217.232L2.25634 265.198Z" fill="#00344A"/>
<path d="M2.05531 265.329L1.92188 264.662L203.792 213.094L203.926 213.694L2.05531 265.329Z" fill="#00344A"/>
<path d="M27.0706 357.527L27.0039 356.86L84.0427 349.922L84.1094 350.589L27.0706 357.527Z" fill="#00344A"/>
<path d="M462.301 375.94L452.828 332.911L453.495 332.777L462.968 375.807L462.301 375.94Z" fill="#00344A"/>
<path d="M399.26 449.187L337.418 422.636L337.685 422.035L399.527 448.587L399.26 449.187Z" fill="#00344A"/>
<path d="M317.941 486.345L317.273 486.144L337.22 422.234L337.887 422.435L317.941 486.345Z" fill="#00344A"/>
<path d="M317.275 486.284L286.32 319.571L286.987 319.438L317.942 486.218L317.275 486.284Z" fill="#00344A"/>
<path d="M317.87 486.479L317.336 486.012L452.895 332.574L453.428 333.041L317.87 486.479Z" fill="#00344A"/>
<path d="M453.432 333.044L452.898 332.644L493.126 277.473L493.659 277.873L453.432 333.044Z" fill="#00344A"/>
<path d="M493.191 277.935L437.82 227.768L438.287 227.301L493.592 277.401L493.191 277.935Z" fill="#00344A"/>
<path d="M41.7578 217.363V216.696L118.743 213.094L118.81 213.761L41.7578 217.363Z" fill="#00344A"/>
<path d="M84.3817 350.39L83.7812 350.19L118.471 213.297L119.072 213.497L84.3817 350.39Z" fill="#00344A"/>
<path d="M203.8 213.094H118.742V213.761H203.8V213.094Z" fill="#00344A"/>
<path d="M286.524 319.766L118.609 213.694L118.943 213.094L286.857 319.233L286.524 319.766Z" fill="#00344A"/>
<path d="M337.354 368.868L286.453 319.768L286.92 319.234L337.821 368.401L337.354 368.868Z" fill="#00344A"/>
<path d="M337.89 368.602H337.223V422.305H337.89V368.602Z" fill="#00344A"/>
<path d="M337.692 368.933L337.492 368.332L453.104 332.508L453.304 333.108L337.692 368.933Z" fill="#00344A"/>
<path d="M367.179 277.669H366.512L380.721 75.4648L381.388 75.5316L367.179 277.669Z" fill="#00344A"/>
<path d="M366.511 277.736L351.301 173.399L351.968 173.332L367.178 277.603L366.511 277.736Z" fill="#00344A"/>
<path d="M286.853 319.765L286.52 319.231L366.707 277.336L366.974 277.936L286.853 319.765Z" fill="#00344A"/>
<path d="M452.97 333.111L366.645 277.94L367.045 277.406L453.37 332.51L452.97 333.111Z" fill="#00344A"/>
<path d="M367.045 277.939L366.645 277.406L437.826 227.238L438.227 227.772L367.045 277.939Z" fill="#00344A"/>
<path d="M203.998 213.699L203.664 213.098L296.594 154.125L296.927 154.659L203.998 213.699Z" fill="#00344A"/>
<path d="M296.998 154.59L296.531 154.123L380.855 75.2695L381.322 75.7365L296.998 154.59Z" fill="#00344A"/>
<path d="M286.991 319.499H286.324L296.398 154.387H297.065L286.991 319.499Z" fill="#00344A"/>
<path d="M351.568 173.672L296.664 154.726L296.864 154.059L351.768 173.072L351.568 173.672Z" fill="#00344A"/>
<path d="M296.46 154.52L269.441 79.5361L270.109 79.3359L297.06 154.254L296.46 154.52Z" fill="#00344A"/>
<path d="M274.646 261.66L203.664 213.694L204.064 213.094L275.046 261.126L274.646 261.66Z" fill="#00344A"/>
<path d="M286.32 319.568L274.512 261.462L275.179 261.328L286.987 319.434L286.32 319.568Z" fill="#00344A"/>
<path d="M453.032 333.108L274.711 261.659L274.978 261.059L453.299 332.507L453.032 333.108Z" fill="#00344A"/>
<path d="M275.112 261.593L274.578 261.193L351.364 173.133L351.897 173.6L275.112 261.593Z" fill="#00344A"/>
<path d="M274.512 261.393L269.441 79.4023H270.109L275.179 261.393H274.512Z" fill="#00344A"/>
<path d="M274.911 261.729L274.777 261.062L437.955 227.172L438.088 227.839L274.911 261.729Z" fill="#00344A"/>
<path d="M175.78 449.056L175.18 448.723L274.514 261.195L275.114 261.529L175.78 449.056Z" fill="#00344A"/>
<path d="M41.955 217.298L41.5547 216.764L170.175 107.09L170.576 107.557L41.955 217.298Z" fill="#00344A"/>
<path d="M203.532 213.495L170.043 107.423L170.71 107.223L204.2 213.295L203.532 213.495Z" fill="#00344A"/>
<path d="M170.513 107.623L170.312 107.022L269.713 79.1367L269.847 79.7371L170.513 107.623Z" fill="#00344A"/>
<path d="M170.309 107.626L108 92.8156L108.133 92.1484L170.442 107.025L170.309 107.626Z" fill="#00344A"/>
<path d="M204.194 213.43L203.527 213.363L208.264 47.1836H208.931L204.194 213.43Z" fill="#00344A"/>
<path d="M424.415 138.379L380.785 75.6695L381.386 75.3359L424.949 137.979L424.415 138.379Z" fill="#00344A"/>
<path d="M351.763 173.664L351.496 173.064L424.546 137.84L424.813 138.44L351.763 173.664Z" fill="#00344A"/>
<path d="M36.4171 301.485L35.75 301.418L41.4872 217.027L42.1543 217.094L36.4171 301.485Z" fill="#00344A"/>
<path d="M36.2789 301.754L35.9453 301.154L203.659 213.094L203.993 213.694L36.2789 301.754Z" fill="#00344A"/>
<path d="M83.9155 350.519L35.8828 301.686L36.3498 301.219L84.3824 350.052L83.9155 350.519Z" fill="#00344A"/>
<path d="M122.412 412.631L122.078 412.031L286.523 319.234L286.857 319.768L122.412 412.631Z" fill="#00344A"/>
<path d="M122.007 412.497L83.7812 350.455L84.3817 350.121L122.541 412.163L122.007 412.497Z" fill="#00344A"/>
<path d="M270.644 472.267L269.977 472.2L286.321 319.43L286.988 319.563L270.644 472.267Z" fill="#00344A"/>
<path d="M421.413 399.557L420.812 399.29L452.901 332.645L453.501 332.978L421.413 399.557Z" fill="#00344A"/>
<path d="M270.506 472.473L270.105 471.94L337.351 422.039L337.751 422.573L270.506 472.473Z" fill="#00344A"/>
<path d="M269.644 79.7367L208.469 47.4481L208.802 46.8477L269.911 79.1363L269.644 79.7367Z" fill="#00344A"/>
<path d="M424.546 138.51L269.641 79.7371L269.907 79.1367L424.813 137.843L424.546 138.51Z" fill="#00344A"/>
<path d="M437.69 227.574L424.348 138.247L425.015 138.113L438.357 227.507L437.69 227.574Z" fill="#00344A"/>
<path d="M270.247 472.539L175.383 449.257L175.583 448.59L270.381 471.872L270.247 472.539Z" fill="#00344A"/>
<path d="M175.314 449.186L122.078 412.561L122.478 412.027L175.648 448.652L175.314 449.186Z" fill="#00344A"/>
<path d="M108.2 92.7455L107.934 92.1451L208.469 46.8477L208.802 47.4481L108.2 92.7455Z" fill="#00344A"/>
<path d="M351.296 173.466L327.68 55.7858L328.347 55.6523L351.963 173.332L351.296 173.466Z" fill="#00344A"/>
<path d="M286.991 319.565L286.324 319.432L327.686 55.6523L328.353 55.7191L286.991 319.565Z" fill="#00344A"/>
<path d="M163.44 316.033L162.84 315.767L203.534 213.297L204.135 213.497L163.44 316.033Z" fill="#00344A"/>
<path d="M162.971 316.167L41.5547 217.299L41.955 216.766L163.371 315.633L162.971 316.167Z" fill="#00344A"/>
<path d="M232.747 385.08L203.527 213.43L204.194 213.363L233.414 384.947L232.747 385.08Z" fill="#00344A"/>
<path d="M84.1848 350.59L83.918 349.99L163.038 315.566L163.305 316.167L84.1848 350.59Z" fill="#00344A"/>
<path d="M286.656 319.836L163.172 316.234V315.566L286.656 319.169V319.836Z" fill="#00344A"/>
<path d="M233.354 385.212L232.82 384.812L286.39 319.301L286.924 319.701L233.354 385.212Z" fill="#00344A"/>
<path d="M233.019 385.346L83.9844 350.589L84.1845 349.922L233.152 384.679L233.019 385.346Z" fill="#00344A"/>
<path d="M337.424 422.635L232.953 385.343L233.22 384.676L337.691 422.035L337.424 422.635Z" fill="#00344A"/>
<path d="M269.907 79.7366L269.641 79.1362L327.88 55.3867L328.147 55.9871L269.907 79.7366Z" fill="#00344A"/>
<path d="M175.182 448.923L162.84 315.899L163.507 315.832L175.849 448.856L175.182 448.923Z" fill="#00344A"/>
<path d="M175.709 449.119L175.242 448.652L232.815 384.742L233.348 385.209L175.709 449.119Z" fill="#00344A"/>
<path d="M162.839 315.966L107.734 92.5475L108.401 92.4141L163.506 315.833L162.839 315.966Z" fill="#00344A"/>
<path d="M42.089 217.033L41.4219 216.966L51.1618 143.383L51.8289 143.516L42.089 217.033Z" fill="#00344A"/>
<path d="M83.7156 350.323L51.1602 143.516L51.8273 143.383L84.3827 350.257L83.7156 350.323Z" fill="#00344A"/>
<path d="M51.76 143.717L51.293 143.183L107.865 92.2148L108.332 92.7485L51.76 143.717Z" fill="#00344A"/>
<path d="M175.642 449.187L175.309 448.587L337.419 368.332L337.686 368.932L175.642 449.187Z" fill="#00344A"/>
<path d="M119.01 213.628L118.543 213.161L269.579 79.2031L269.979 79.6701L119.01 213.628Z" fill="#00344A"/>
<path d="M204.131 213.627L203.598 213.227L327.749 55.5195L328.282 55.9198L204.131 213.627Z" fill="#00344A"/>
<path d="M380.986 75.8006L327.883 55.9871L328.083 55.3867L381.186 75.2002L380.986 75.8006Z" fill="#00344A"/>
<path d="M380.763 75.3689L351.309 173.238L351.947 173.431L381.402 75.5611L380.763 75.3689Z" fill="#00344A"/>
<path d="M42.0772 216.954L41.4414 217.156L83.7814 350.427L84.4173 350.225L42.0772 216.954Z" fill="#00344A"/>
<path d="M203.546 213.15L83.8477 350.07L84.3499 350.509L204.048 213.589L203.546 213.15Z" fill="#00344A"/>
<path d="M204.131 213.152L203.605 213.562L286.454 319.674L286.979 319.263L204.131 213.152Z" fill="#00344A"/>
<path d="M351.554 173.035L203.793 213.133L203.968 213.777L351.728 173.679L351.554 173.035Z" fill="#00344A"/>
<path d="M351.914 173.228L351.352 173.586L452.897 333.06L453.459 332.701L351.914 173.228Z" fill="#00344A"/>
<path d="M286.646 319.146L84.043 349.969L84.1433 350.628L286.746 319.805L286.646 319.146Z" fill="#00344A"/>
<path d="M286.996 319.396L286.398 319.691L337.288 422.537L337.886 422.241L286.996 319.396Z" fill="#00344A"/>
<path d="M286.702 319.194L286.648 319.859L453.161 333.177L453.214 332.512L286.702 319.194Z" fill="#00344A"/>
<path d="M269.441 79.2818L203.539 213.25L204.138 213.544L270.039 79.5762L269.441 79.2818Z" fill="#00344A"/>
<path d="M270.065 79.1945L269.562 79.6328L351.437 173.582L351.94 173.144L270.065 79.1945Z" fill="#00344A"/>
<path d="M381.08 75.1841L269.805 79.0938L269.828 79.7605L381.104 75.8509L381.08 75.1841Z" fill="#00344A"/>
<path d="M381.359 75.3675L380.734 75.6016L437.712 227.651L438.337 227.417L381.359 75.3675Z" fill="#00344A"/>
<path d="M351.815 173.079L351.461 173.645L437.888 227.818L438.242 227.253L351.815 173.079Z" fill="#00344A"/>
<path d="M438.375 227.44L437.715 227.535L452.847 332.789L453.507 332.695L438.375 227.44Z" fill="#00344A"/>
<path d="M84.3643 350.015L83.875 350.469L175.302 449.105L175.792 448.651L84.3643 350.015Z" fill="#00344A"/>
<path d="M337.507 421.949L175.43 448.59L175.538 449.248L337.615 422.608L337.507 421.949Z" fill="#00344A"/>
<path d="M108.347 92.2616L107.824 92.6758L203.575 213.599L204.098 213.184L108.347 92.2616Z" fill="#00344A"/>
<path d="M107.732 92.3312L41.4453 216.891L42.0342 217.204L108.321 92.6446L107.732 92.3312Z" fill="#00344A"/>
<path d="M351.63 182.468H336.953L344.291 169.726L351.63 156.984L358.968 169.726L366.373 182.468H351.63Z" fill="#00344A"/>
<path d="M339.223 181.138L351.631 159.656L364.04 181.138H339.223Z" fill="#00344A"/>
<path d="M343.824 178.472L351.629 164.996L359.435 178.472H343.824Z" fill="#00344A"/>
<path d="M286.657 329.972H271.98L279.319 317.23L286.657 304.488L294.062 317.23L301.4 329.972H286.657Z" fill="#00344A"/>
<path d="M274.246 328.641L286.655 307.16L299.063 328.641H274.246Z" fill="#00344A"/>
<path d="M278.918 325.968L286.657 312.492L294.462 325.968H278.918Z" fill="#00344A"/>
<path d="M203.864 224.367H189.121L196.459 211.625L203.864 198.883L211.203 211.625L218.541 224.367H203.864Z" fill="#00344A"/>
<path d="M191.457 223.032L203.865 201.551L216.274 223.032H191.457Z" fill="#00344A"/>
<path d="M196.059 220.363L203.864 206.887L211.603 220.363H196.059Z" fill="#00344A"/>
<path d="M83.6535 360.793H68.9102L76.2485 348.051L83.6535 335.309L90.9918 348.051L98.3301 360.793H83.6535Z" fill="#00344A"/>
<path d="M71.2422 359.458L83.6506 337.977L96.0591 359.458H71.2422Z" fill="#00344A"/>
<path d="M75.8438 356.788L83.649 343.312L91.3876 356.788H75.8438Z" fill="#00344A"/>
<path d="M452.767 342.644H438.023L445.428 329.902L452.767 317.16L460.105 329.902L467.51 342.644H452.767Z" fill="#00344A"/>
<path d="M440.359 341.313L452.768 319.832L465.176 341.313H440.359Z" fill="#00344A"/>
<path d="M444.961 338.644L452.766 325.168L460.572 338.644H444.961Z" fill="#00344A"/>
<path d="M381.052 83.8707H366.375L373.713 71.1287L381.052 58.3867L388.457 71.1287L395.795 83.8707H381.052Z" fill="#00344A"/>
<path d="M368.645 82.5399L381.053 61.0586L393.461 82.5399H368.645Z" fill="#00344A"/>
<path d="M373.312 79.8665L381.051 66.3906L388.856 79.8665H373.312Z" fill="#00344A"/>
<path d="M336.954 432.507H322.211L329.549 419.765L336.954 407.023L344.293 419.765L351.631 432.507H336.954Z" fill="#00344A"/>
<path d="M324.547 431.173L336.955 409.691L349.364 431.173H324.547Z" fill="#00344A"/>
<path d="M329.148 428.503L336.954 415.027L344.692 428.503H329.148Z" fill="#00344A"/>
<path d="M41.7551 225.632H27.0117L34.4168 212.89L41.7551 200.148L49.0934 212.89L56.4317 225.632H41.7551Z" fill="#00344A"/>
<path d="M29.3477 224.298L41.7561 202.816L54.1645 224.298H29.3477Z" fill="#00344A"/>
<path d="M33.9492 221.628L41.7545 208.152L49.5598 221.628H33.9492Z" fill="#00344A"/>
<path d="M269.775 88.7418H255.031L262.436 75.9998L269.775 63.2578L277.113 75.9998L284.518 88.7418H269.775Z" fill="#00344A"/>
<path d="M257.367 87.4031L269.776 65.9219L282.184 87.4031H257.367Z" fill="#00344A"/>
<path d="M261.969 84.7414L269.774 71.2656L277.579 84.7414H261.969Z" fill="#00344A"/>
<path d="M438.024 237.109H423.348L430.686 224.367L438.024 211.625L445.429 224.367L452.768 237.109H438.024Z" fill="#00344A"/>
<path d="M425.617 235.774L438.026 214.293L450.434 235.774H425.617Z" fill="#00344A"/>
<path d="M430.285 233.109L438.024 219.633L445.829 233.109H430.285Z" fill="#00344A"/>
<path d="M175.513 458.059H160.77L168.108 445.317L175.513 432.508L182.851 445.317L190.19 458.059H175.513Z" fill="#00344A"/>
<path d="M163.102 456.728L175.51 435.18L187.918 456.728H163.102Z" fill="#00344A"/>
<path d="M167.703 454.054L175.508 440.512L183.247 454.054H167.703Z" fill="#00344A"/>
<path d="M108.067 101.015H93.3906L100.729 88.2732L108.067 75.5312L115.472 88.2732L122.811 101.015H108.067Z" fill="#00344A"/>
<path d="M95.6602 99.6805L108.069 78.1992L120.477 99.6805H95.6602Z" fill="#00344A"/>
<path d="M100.328 97.011L108.067 83.5352L115.872 97.011H100.328Z" fill="#00344A"/>
</g>
<defs>
<clipPath id="clip0_305_14300">
<rect width="497" height="497" fill="white"/>
</clipPath>
</defs>
</svg>
