<svg width="497" height="497" viewBox="0 0 497 497" fill="none" xmlns="http://www.w3.org/2000/svg">
<g clip-path="url(#clip0_116_2198)">
<path d="M157.282 41.0513L157.5 41.0028L175.575 76.2325L261.643 108.892L189.803 129.392L234.203 181.534L288.452 157.816L288.452 157.945L296.22 234.678L363.244 211.283L363.196 211.428L347.129 288.193L347.057 288.193L249.326 308.516L365.374 333.625L424.656 304.151L424.801 304.28L365.422 333.803L365.374 333.787L248.528 308.516L248.891 308.452L346.912 288.064L362.93 211.574L296.002 234.936L295.978 234.807L288.235 158.09L234.107 181.776L234.058 181.696L189.464 129.312L189.585 129.279L261.086 108.875L175.357 76.3457L175.357 76.3134L157.282 41.0513Z" fill="#D0D0D0"/>
<path d="M333.793 398.862L334.422 398.959L467.964 417.681L467.915 417.827L334.979 399.201L489.281 467.478L489.16 467.607L333.793 398.862Z" fill="#D0D0D0"/>
<path d="M334.264 399.065L385.924 451.426L386.126 451.337L334.466 398.976L334.264 399.065Z" fill="#D0D0D0"/>
<path d="M36.249 353.043L36.37 352.897L142.69 396.13L142.69 396.195L135.988 466.104L135.746 466.104L142.424 396.227L36.249 353.043Z" fill="#D0D0D0"/>
<path d="M74.1152 443.905L142.519 396.097L142.568 396.097L190.55 397.067L263.648 380.333L185.251 329.938L185.396 329.89L249.009 308.403L249.033 308.516L263.987 380.317L334.544 398.991L334.52 399.056L324.72 431.278L324.478 431.246L334.254 399.072L263.866 380.447L190.574 397.229L190.55 397.229L142.592 396.259L74.2846 444.019L74.1152 443.905ZM248.84 308.645L185.686 329.987L263.721 380.156L248.84 308.645Z" fill="#D0D0D0"/>
<path d="M5.54296 24.2199L5.71234 24.0905L81.8835 74.4049L175.573 76.1995L175.573 76.2642L189.777 129.424L189.656 129.44L113.775 134.614L103.709 177.588L109.25 242.049L205.287 215.777L296.266 234.758L296.218 234.839L248.962 308.693L248.816 308.564L215.231 276.762L122.413 292.752L122.34 292.59L215.328 276.568L215.377 276.616L248.913 308.354L295.927 234.855L205.287 215.954L109.032 242.276L109.032 242.163L103.467 177.588L113.581 134.469L113.654 134.452L189.486 129.279L175.355 76.3612L81.7867 74.5504L81.7625 74.5343L5.54296 24.2199Z" fill="#D0D0D0"/>
<path d="M44.6441 110.949L113.59 134.604L113.7 134.461L44.7546 110.805L44.6441 110.949Z" fill="#D0D0D0"/>
<path d="M234.033 181.63L261.254 108.826L337.184 81.8907L387.247 49.0376L330.772 5.48138L330.941 5.36821L387.585 49.0376L387.513 49.0861L337.329 82.02L337.305 82.0362L261.472 108.94L234.275 181.679L234.033 181.63Z" fill="#D0D0D0"/>
<path d="M284.893 44.2686L284.917 44.1069L387.535 48.9572L387.535 49.0381L391.261 121.082L391.019 121.082L387.293 49.1189L284.893 44.2686Z" fill="#D0D0D0"/>
<path d="M103.369 177.605L103.49 177.524L189.558 129.295L189.703 129.408L103.78 177.572L205.237 215.761L234.152 181.501L234.249 181.598L296.193 234.758L347.127 288.096L365.492 333.641L453.81 341.013L453.786 341.175L365.298 333.786L346.909 288.16L295.999 234.839L234.176 181.792L205.334 215.971L103.369 177.605Z" fill="#D0D0D0"/>
<path d="M205.131 215.865L215.154 276.661L215.395 276.643L205.372 215.847L205.131 215.865Z" fill="#D0D0D0"/>
<path d="M337.347 84.3323C335.387 84.3646 333.742 83.346 333.694 82.0364C333.645 80.7268 335.17 79.6274 337.129 79.5951C339.089 79.5627 340.735 80.5813 340.783 81.8909C340.856 83.2005 339.307 84.2999 337.347 84.3323Z" fill="#D0D0D0"/>
<path d="M334.803 2.645C332.498 1.19326 328.869 1.2646 326.696 2.80437C324.524 4.34415 324.631 6.76928 326.935 8.22101C329.239 9.67275 332.869 9.60137 335.041 8.0616C337.214 6.52182 337.107 4.09674 334.803 2.645Z" fill="#D0D0D0"/>
<path d="M11.0147 25.5009C11.0147 22.4634 8.54725 20.001 5.50345 20.001C2.45966 20.001 -0.00781287 22.4634 -0.00781274 25.5009C-0.00781261 28.5385 2.45966 31.001 5.50346 31.001C8.54725 31.001 11.0147 28.5385 11.0147 25.5009Z" fill="#D0D0D0"/>
<path d="M50.1556 109.429C48.2273 107.31 44.4702 106.483 41.7639 107.583C39.0575 108.682 38.4268 111.291 40.3552 113.411C42.2835 115.53 46.0406 116.357 48.7469 115.257C51.4532 114.158 52.0839 111.549 50.1556 109.429Z" fill="#D0D0D0"/>
<path d="M141.065 464.498C139.742 462.575 136.337 461.733 133.459 462.617C130.581 463.501 129.321 465.776 130.644 467.699C131.967 469.622 135.372 470.464 138.25 469.58C141.127 468.696 142.388 466.421 141.065 464.498Z" fill="#D0D0D0"/>
<path d="M146.618 393.466C144.379 391.97 140.748 391.97 138.509 393.466C136.269 394.963 136.269 397.389 138.509 398.885C140.748 400.382 144.379 400.382 146.618 398.885C148.858 397.389 148.858 394.963 146.618 393.466Z" fill="#D0D0D0"/>
<path d="M42.0278 352.977C42.0278 350.861 39.4604 349.145 36.2932 349.145C33.1261 349.145 30.5586 350.861 30.5586 352.977C30.5586 355.093 33.1261 356.809 36.2932 356.809C39.4604 356.809 42.0278 355.093 42.0278 352.977Z" fill="#D0D0D0"/>
<path d="M494.054 465.509C492.379 463.713 488.843 463.164 486.154 464.283C483.466 465.402 482.644 467.765 484.319 469.561C485.993 471.357 489.53 471.906 492.218 470.788C494.906 469.669 495.728 467.306 494.054 465.509Z" fill="#D0D0D0"/>
<path d="M459.024 339.486C457.71 337.561 454.309 336.711 451.427 337.589C448.545 338.467 447.274 340.74 448.588 342.666C449.903 344.591 453.304 345.441 456.186 344.563C459.067 343.685 460.338 341.412 459.024 339.486Z" fill="#D0D0D0"/>
<path d="M328.672 428.551C326.433 427.055 322.802 427.055 320.562 428.551C318.323 430.048 318.323 432.474 320.562 433.97C322.802 435.467 326.433 435.467 328.672 433.97C330.912 432.474 330.912 430.048 328.672 428.551Z" fill="#D0D0D0"/>
<path d="M366.32 208.279C363.706 207.085 360.137 207.533 358.35 209.28C356.564 211.027 357.235 213.412 359.849 214.606C362.464 215.8 366.033 215.351 367.819 213.604C369.606 211.857 368.935 209.473 366.32 208.279Z" fill="#D0D0D0"/>
<path d="M189.729 125.533C186.563 125.511 183.968 127.208 183.935 129.324C183.902 131.44 186.442 133.174 189.609 133.196C192.776 133.218 195.37 131.521 195.403 129.405C195.436 127.289 192.896 125.555 189.729 125.533Z" fill="#D0D0D0"/>
<path d="M114.878 242.163C114.878 240.047 112.311 238.332 109.144 238.332C105.977 238.332 103.409 240.047 103.409 242.163C103.409 244.28 105.977 245.995 109.144 245.995C112.311 245.995 114.878 244.28 114.878 242.163Z" fill="#D0D0D0"/>
<path d="M254.568 307.798C253.98 305.719 250.98 304.352 247.868 304.745C244.756 305.138 242.71 307.143 243.299 309.222C243.887 311.302 246.887 312.669 249.999 312.275C253.111 311.882 255.157 309.878 254.568 307.798Z" fill="#D0D0D0"/>
<path d="M180.807 74.4964C180.135 71.7545 177.056 69.8091 173.931 70.1513C170.806 70.4935 168.817 72.9937 169.49 75.7356C170.162 78.4775 173.241 80.4228 176.366 80.0806C179.491 79.7384 181.48 77.2383 180.807 74.4964Z" fill="#D0D0D0"/>
<path d="M265.857 106.504C263.882 104.85 260.274 104.579 257.799 105.899C255.323 107.218 254.918 109.629 256.893 111.283C258.868 112.937 262.476 113.208 264.952 111.888C267.427 110.569 267.833 108.158 265.857 106.504Z" fill="#D0D0D0"/>
<path d="M337.956 399.023C337.956 397.71 336.363 396.646 334.399 396.646C332.434 396.646 330.842 397.71 330.842 399.023C330.842 400.335 332.434 401.399 334.399 401.399C336.363 401.399 337.956 400.335 337.956 399.023Z" fill="#D0D0D0"/>
<path d="M427.24 302.534C425.851 301.605 423.599 301.605 422.21 302.534C420.82 303.462 420.82 304.967 422.21 305.895C423.599 306.823 425.851 306.823 427.24 305.895C428.629 304.966 428.629 303.462 427.24 302.534Z" fill="#D0D0D0"/>
<path d="M296.213 237.166C294.253 237.199 292.608 236.18 292.56 234.87C292.511 233.561 294.036 232.461 295.996 232.429C297.956 232.397 299.601 233.415 299.649 234.725C299.698 236.034 298.173 237.134 296.213 237.166Z" fill="#D0D0D0"/>
<path d="M205.382 218.235C203.422 218.267 201.777 217.248 201.729 215.939C201.68 214.629 203.205 213.53 205.165 213.497C207.125 213.465 208.77 214.484 208.818 215.793C208.891 217.103 207.342 218.202 205.382 218.235Z" fill="#D0D0D0"/>
<path d="M85.49 74.3454C84.7493 72.7687 82.6294 71.8091 80.7551 72.2022C78.8808 72.5953 77.962 74.1923 78.7027 75.7691C79.4435 77.3458 81.5633 78.3053 83.4376 77.9122C85.3119 77.5191 86.2308 75.9222 85.49 74.3454Z" fill="#D0D0D0"/>
<path d="M107.053 176.996C106.573 175.724 104.64 174.952 102.735 175.273C100.83 175.593 99.675 176.885 100.155 178.158C100.635 179.431 102.569 180.203 104.474 179.882C106.378 179.561 107.533 178.269 107.053 176.996Z" fill="#D0D0D0"/>
<path d="M74.2818 446.33C72.3218 446.363 70.6765 445.344 70.6281 444.034C70.5797 442.725 72.1041 441.625 74.064 441.593C76.0239 441.561 77.6693 442.579 77.7177 443.889C77.7903 445.199 76.2659 446.298 74.2818 446.33Z" fill="#D0D0D0"/>
<path d="M186.194 327.618C184.271 327.349 182.386 328.173 181.984 329.458C181.581 330.742 182.813 332.002 184.736 332.271C186.659 332.54 188.544 331.716 188.947 330.432C189.349 329.147 188.117 327.887 186.194 327.618Z" fill="#D0D0D0"/>
<path d="M267.412 379.996C267.105 378.7 265.283 377.815 263.343 378.02C261.403 378.226 260.079 379.443 260.386 380.739C260.693 382.036 262.515 382.92 264.456 382.715C266.396 382.51 267.72 381.293 267.412 379.996Z" fill="#D0D0D0"/>
<path d="M471.341 417.128C470.804 415.866 468.837 415.133 466.948 415.491C465.058 415.85 463.961 417.164 464.498 418.427C465.035 419.689 467.002 420.422 468.891 420.064C470.781 419.705 471.877 418.391 471.341 417.128Z" fill="#D0D0D0"/>
<path d="M389.439 450.679C388.857 449.425 386.865 448.724 384.988 449.113C383.112 449.501 382.063 450.833 382.645 452.086C383.227 453.34 385.219 454.041 387.095 453.652C388.972 453.264 390.021 451.932 389.439 450.679Z" fill="#D0D0D0"/>
<path d="M365.49 336.081C363.53 336.114 361.884 335.095 361.836 333.785C361.788 332.476 363.312 331.376 365.272 331.344C367.232 331.312 368.877 332.33 368.926 333.64C368.998 334.95 367.45 336.033 365.49 336.081Z" fill="#D0D0D0"/>
<path d="M391.999 118.776C390.096 118.45 388.158 119.217 387.671 120.489C387.185 121.76 388.333 123.055 390.236 123.381C392.139 123.706 394.076 122.939 394.563 121.667C395.05 120.396 393.902 119.101 391.999 118.776Z" fill="#D0D0D0"/>
<path d="M287.414 42.515C286.024 41.5869 283.772 41.5869 282.383 42.515C280.994 43.4431 280.994 44.948 282.383 45.8761C283.772 46.8042 286.024 46.8042 287.414 45.8761C288.803 44.9479 288.803 43.4431 287.414 42.515Z" fill="#D0D0D0"/>
<path d="M160.067 39.4248C158.513 38.4454 155.978 38.5546 154.406 39.6687C152.834 40.7828 152.82 42.4798 154.375 43.4592C155.929 44.4385 158.464 44.3293 160.036 43.2152C161.608 42.1012 161.622 40.4041 160.067 39.4248Z" fill="#D0D0D0"/>
<path d="M291.711 157.232C291.123 155.979 289.127 155.283 287.252 155.676C285.378 156.069 284.336 157.403 284.924 158.655C285.512 159.908 287.509 160.604 289.383 160.211C291.257 159.818 292.3 158.484 291.711 157.232Z" fill="#D0D0D0"/>
<path d="M116.183 132.858C114.794 131.93 112.542 131.93 111.153 132.858C109.764 133.786 109.764 135.291 111.153 136.219C112.542 137.147 114.794 137.147 116.183 136.219C117.572 135.291 117.572 133.786 116.183 132.858Z" fill="#D0D0D0"/>
<path d="M236.587 179.92C235.158 179.019 232.907 179.064 231.559 180.019C230.211 180.974 230.278 182.478 231.707 183.378C233.136 184.279 235.387 184.235 236.735 183.28C238.083 182.324 238.016 180.82 236.587 179.92Z" fill="#D0D0D0"/>
<path d="M215.372 279.041C213.412 279.074 211.766 278.055 211.718 276.745C211.67 275.436 213.194 274.336 215.154 274.304C217.114 274.272 218.759 275.29 218.808 276.6C218.856 277.909 217.332 278.993 215.372 279.041Z" fill="#D0D0D0"/>
<path d="M125.732 291.918C125.099 290.675 123.079 290.01 121.219 290.433C119.36 290.856 118.365 292.206 118.997 293.448C119.63 294.691 121.65 295.356 123.51 294.933C125.37 294.51 126.364 293.16 125.732 291.918Z" fill="#D0D0D0"/>
<path d="M350.553 287.819C350.292 286.518 348.501 285.605 346.554 285.78C344.607 285.955 343.241 287.151 343.503 288.452C343.764 289.753 345.555 290.666 347.502 290.491C349.449 290.316 350.815 289.12 350.553 287.819Z" fill="#D0D0D0"/>
<path d="M193.446 395.741C192.291 394.679 190.067 394.443 188.477 395.214C186.888 395.985 186.535 397.472 187.689 398.534C188.844 399.596 191.068 399.832 192.658 399.061C194.247 398.289 194.6 396.803 193.446 395.741Z" fill="#D0D0D0"/>
<path d="M392.289 47.0346C390.644 45.2262 387.116 44.6515 384.41 45.7509C381.703 46.8503 380.843 49.2075 382.489 51.0158C384.134 52.8241 387.662 53.3988 390.368 52.2994C393.074 51.2001 393.934 48.8429 392.289 47.0346Z" fill="#D0D0D0"/>
<path d="M328.257 438.577L328.015 438.626L311.512 403.057L226.921 368.716L299.608 349.638L257.554 296.64L202.289 319.291L202.264 319.162L197.909 242.316L129.868 264.385L129.916 264.223L149.37 187.83L149.443 187.814L248.02 169.415L133.11 142.043L72.5702 170.337L72.4492 170.207L133.086 141.865L133.134 141.881L248.819 169.431L248.456 169.512L149.588 187.943L130.207 264.094L198.127 242.057L198.127 242.187L202.506 319.016L257.626 296.413L257.699 296.494L299.971 349.719L299.825 349.751L227.453 368.748L311.73 402.96L311.73 402.976L328.257 438.577Z" fill="#00344A"/>
<path d="M167.565 77.4521L166.936 77.3552L34.2658 56.0136L34.3384 55.8519L166.38 77.0965L15.1504 5.81241L15.2956 5.68305L167.565 77.4521Z" fill="#00344A"/>
<path d="M117.546 23.9486L166.869 77.3066L167.075 77.2217L117.752 23.8637L117.546 23.9486Z" fill="#00344A"/>
<path d="M462.958 129.108L462.837 129.237L358.477 83.935L358.477 83.8865L368.252 14.1221L368.494 14.1383L358.719 83.8541L462.958 129.108Z" fill="#00344A"/>
<path d="M429.129 37.5338L358.644 83.984L358.596 83.984L310.662 82.0762L236.862 97.3711L313.009 149.286L312.864 149.335L248.331 169.561L248.307 169.447L236.523 97.3872L166.837 77.3391L166.861 77.2744L178.064 45.2458L178.306 45.2782L167.127 77.2421L236.644 97.2255L310.638 81.8984L310.662 81.8984L358.547 83.8062L428.96 37.4206L429.129 37.5338ZM248.525 169.302L312.598 149.221L236.79 97.5327L248.525 169.302Z" fill="#00344A"/>
<path d="M479.168 458.399L478.999 458.512L405.053 406.726L311.509 403.088L311.485 403.024L299.653 349.605L299.774 349.605L375.848 345.919L387.801 303.155L385.091 238.613L287.941 262.978L197.833 242.234L197.906 242.153L248.404 169.253L248.501 169.382L280.707 201.847L374.178 187.684L374.251 187.829L280.586 202.025L280.537 201.976L248.428 169.592L198.172 242.137L287.941 262.816L385.333 238.386L385.333 238.5L388.043 303.171L376.042 346.064L375.945 346.064L299.919 349.751L311.727 402.927L405.174 406.581L405.199 406.597L479.168 458.399Z" fill="#00344A"/>
<path d="M375.879 346.079L443.747 371.081L443.864 370.939L375.995 345.937L375.879 346.079Z" fill="#00344A"/>
<path d="M257.697 296.559L227.282 368.797L150.215 394.213L98.7245 426.079L153.264 470.719L153.07 470.832L98.3857 426.063L98.4583 426.015L150.07 394.083L150.094 394.083L227.088 368.683L257.479 296.51L257.697 296.559Z" fill="#00344A"/>
<path d="M200.811 432.854L200.787 433.016L98.4347 426.144L98.4347 426.08L97.9023 353.987L98.1443 353.987L98.6766 425.999L200.811 432.854Z" fill="#00344A"/>
<path d="M388.14 303.155L387.995 303.22L299.871 349.751L299.701 349.622L387.729 303.171L287.99 263.01L257.599 296.672L257.478 296.575L197.906 242.235L149.367 187.911L149.343 187.911L133.01 142.026L45.0312 132.924L45.0796 132.762L133.204 141.881L149.585 187.862L198.124 242.138L257.575 296.381L287.918 262.784L388.14 303.155Z" fill="#00344A"/>
<path d="M280.505 201.933L287.833 262.9L288.074 262.887L280.746 201.92L280.505 201.933Z" fill="#00344A"/>
<path d="M153.25 392.873C151.532 391.725 148.783 391.701 147.109 392.819C145.436 393.937 145.472 395.774 147.19 396.922C148.907 398.07 151.656 398.094 153.33 396.975C155.003 395.857 154.967 394.02 153.25 392.873Z" fill="#00344A"/>
<path d="M159.318 472C159.318 469.239 156.626 467 153.305 467C149.985 467 147.293 469.239 147.293 472C147.293 474.761 149.985 477 153.305 477C156.626 477 159.318 474.761 159.318 472Z" fill="#00344A"/>
<path d="M484.984 456.5C484.984 453.462 482.292 451 478.971 451C475.651 451 472.959 453.462 472.959 456.5C472.959 459.538 475.651 462 478.971 462C482.292 462 484.984 459.538 484.984 456.5Z" fill="#00344A"/>
<path d="M449.912 372.5C449.912 369.462 447.22 367 443.9 367C440.579 367 437.888 369.462 437.888 372.5C437.888 375.538 440.579 378 443.9 378C447.22 378 449.912 375.538 449.912 372.5Z" fill="#00344A"/>
<path d="M373.757 13C373.757 10.2386 371.289 8 368.246 8C365.202 8 362.734 10.2386 362.734 13C362.734 15.7614 365.202 18 368.246 18C371.289 18 373.757 15.7614 373.757 13Z" fill="#00344A"/>
<path d="M364.737 85C364.737 82.2386 362.046 80 358.725 80C355.405 80 352.713 82.2386 352.713 85C352.713 87.7614 355.405 90 358.725 90C362.046 90 364.737 87.7614 364.737 85Z" fill="#00344A"/>
<path d="M468.642 128.002C468.642 125.239 466.075 123 462.908 123C459.74 123 457.173 125.239 457.173 128.002C457.173 130.765 459.74 133.005 462.908 133.005C466.075 133.005 468.642 130.765 468.642 128.002Z" fill="#00344A"/>
<path d="M21.0353 7.99997C21.0353 4.68627 18.3435 2 15.023 2C11.7025 2 9.01074 4.68627 9.01074 7.99997C9.01074 11.3137 11.7025 14 15.023 14C18.3435 14 21.0353 11.3137 21.0353 7.99997Z" fill="#00344A"/>
<path d="M51.0969 134C51.0969 131.239 48.4051 129 45.0846 129C41.7641 129 39.0723 131.239 39.0723 134C39.0723 136.761 41.7641 139 45.0846 139C48.4051 139 51.0969 136.761 51.0969 134Z" fill="#00344A"/>
<path d="M184.369 47C184.369 43.6863 181.678 41 178.357 41C175.037 41 172.345 43.6863 172.345 47C172.345 50.3137 175.037 53 178.357 53C181.678 53 184.369 50.3137 184.369 47Z" fill="#00344A"/>
<path d="M130.953 260.448C127.827 260.109 124.75 262.069 124.08 264.827C123.41 267.585 125.402 270.095 128.528 270.434C131.654 270.773 134.731 268.812 135.401 266.055C136.071 263.297 134.08 260.787 130.953 260.448Z" fill="#00344A"/>
<path d="M304.108 342.156C299.763 341.315 295.345 343.74 294.24 347.573C293.136 351.405 295.763 355.193 300.108 356.034C304.454 356.874 308.872 354.449 309.977 350.617C311.081 346.784 308.454 342.996 304.108 342.156Z" fill="#00344A"/>
<path d="M390.791 237C390.791 234.239 388.324 232 385.28 232C382.236 232 379.769 234.239 379.769 237C379.769 239.761 382.236 242 385.28 242C388.324 242 390.791 239.761 390.791 237Z" fill="#00344A"/>
<path d="M254.137 168.131C254.137 165.297 251.57 163 248.403 163C245.235 163 242.668 165.297 242.668 168.131C242.668 170.965 245.235 173.263 248.403 173.263C251.57 173.263 254.137 170.965 254.137 168.131Z" fill="#00344A"/>
<path d="M315.671 399.507C313.432 397.57 309.801 397.57 307.561 399.507C305.322 401.443 305.322 404.584 307.561 406.52C309.801 408.457 313.432 408.457 315.671 406.52C317.911 404.584 317.911 401.443 315.671 399.507Z" fill="#00344A"/>
<path d="M232.921 368.732C232.921 365.566 230.354 363 227.187 363C224.02 363 221.452 365.566 221.452 368.732C221.452 371.898 224.02 374.465 227.187 374.465C230.354 374.465 232.921 371.898 232.921 368.732Z" fill="#00344A"/>
<path d="M170.341 78.5C170.341 76.567 168.77 75 166.833 75C164.896 75 163.326 76.567 163.326 78.5C163.326 80.433 164.896 82 166.833 82C168.77 82 170.341 80.433 170.341 78.5Z" fill="#00344A"/>
<path d="M73.8679 166.483C71.9561 166.181 69.9249 167.299 69.3309 168.98C68.737 170.66 69.8054 172.267 71.7171 172.569C73.6289 172.871 75.6602 171.753 76.2541 170.072C76.848 168.392 75.7797 166.785 73.8679 166.483Z" fill="#00344A"/>
<path d="M198.86 238.672C196.948 238.301 195.032 239.275 194.581 240.849C194.129 242.423 195.313 244 197.225 244.371C199.137 244.743 201.052 243.768 201.504 242.195C201.955 240.621 200.771 239.044 198.86 238.672Z" fill="#00344A"/>
<path d="M291.516 259.96C289.896 258.878 287.126 258.973 285.329 260.174C283.533 261.374 283.39 263.225 285.01 264.308C286.63 265.39 289.4 265.294 291.196 264.094C292.993 262.894 293.136 261.043 291.516 259.96Z" fill="#00344A"/>
<path d="M408.207 405.494C407.229 404.355 405.056 403.961 403.352 404.614C401.648 405.267 401.059 406.72 402.036 407.858C403.013 408.997 405.187 409.391 406.891 408.738C408.595 408.085 409.184 406.632 408.207 405.494Z" fill="#00344A"/>
<path d="M388.493 300.815C386.554 300.605 384.727 301.485 384.412 302.78C384.097 304.076 385.414 305.297 387.353 305.507C389.292 305.717 391.119 304.837 391.434 303.542C391.749 302.246 390.432 301.025 388.493 300.815Z" fill="#00344A"/>
<path d="M432.878 38C432.878 36.3431 431.307 35 429.37 35C427.433 35 425.863 36.3431 425.863 38C425.863 39.6569 427.433 41 429.37 41C431.307 41 432.878 39.6569 432.878 38Z" fill="#00344A"/>
<path d="M316.351 147.816C316.351 145.708 314.759 144 312.794 144C310.83 144 309.237 145.708 309.237 147.816C309.237 149.923 310.83 151.631 312.794 151.631C314.759 151.631 316.351 149.923 316.351 147.816Z" fill="#00344A"/>
<path d="M239.151 92.6722C237.762 91.1961 235.51 91.1961 234.121 92.6722C232.732 94.1483 232.732 96.5416 234.121 98.0177C235.51 99.4938 237.762 99.4938 239.151 98.0177C240.54 96.5416 240.54 94.1483 239.151 92.6722Z" fill="#00344A"/>
<path d="M36.7863 55.5138C36.0765 54.3664 34.364 53.7517 32.9614 54.1407C31.5587 54.5297 30.9971 55.7751 31.7069 56.9225C32.4168 58.0699 34.1292 58.6846 35.5319 58.2956C36.9345 57.9066 37.4961 56.6612 36.7863 55.5138Z" fill="#00344A"/>
<path d="M120.274 21.6521C118.91 21.4364 117.432 22.3172 116.973 23.6193C116.514 24.9214 117.247 26.1518 118.611 26.3674C119.975 26.583 121.452 25.7022 121.912 24.4001C122.371 23.098 121.637 21.8677 120.274 21.6521Z" fill="#00344A"/>
<path d="M134.567 137.908C132.655 137.607 130.603 138.783 129.984 140.536C129.364 142.289 130.412 143.955 132.324 144.257C134.235 144.558 136.287 143.382 136.907 141.629C137.526 139.876 136.479 138.21 134.567 137.908Z" fill="#00344A"/>
<path d="M98.5896 350.468C96.6505 350.21 94.8234 351.291 94.5087 352.883C94.194 354.475 95.5108 355.975 97.4499 356.233C99.389 356.492 101.216 355.411 101.531 353.818C101.845 352.226 100.529 350.726 98.5896 350.468Z" fill="#00344A"/>
<path d="M204.369 431.656C204.369 429.637 202.776 428 200.812 428C198.847 428 197.255 429.637 197.255 431.656C197.255 433.675 198.847 435.312 200.812 435.312C202.776 435.312 204.369 433.675 204.369 431.656Z" fill="#00344A"/>
<path d="M328.935 436.288C327.023 435.988 325.109 436.781 324.66 438.059C324.212 439.337 325.399 440.616 327.311 440.915C329.224 441.215 331.138 440.422 331.586 439.144C332.035 437.866 330.848 436.587 328.935 436.288Z" fill="#00344A"/>
<path d="M205.939 319.161C205.939 317.849 204.347 316.785 202.382 316.785C200.418 316.785 198.825 317.849 198.825 319.161C198.825 320.474 200.418 321.538 202.382 321.538C204.347 321.538 205.939 320.474 205.939 319.161Z" fill="#00344A"/>
<path d="M379.505 345.985C379.505 344.672 377.913 343.608 375.949 343.608C373.984 343.608 372.392 344.672 372.392 345.985C372.392 347.297 373.984 348.361 375.949 348.361C377.913 348.361 379.505 347.297 379.505 345.985Z" fill="#00344A"/>
<path d="M258.156 294.291C256.217 294.013 254.39 295.176 254.075 296.89C253.76 298.604 255.077 300.218 257.016 300.496C258.955 300.775 260.782 299.611 261.097 297.897C261.412 296.184 260.095 294.569 258.156 294.291Z" fill="#00344A"/>
<path d="M281.506 197.94C279.594 197.421 277.679 198.782 277.227 200.981C276.776 203.179 277.96 205.382 279.871 205.901C281.783 206.42 283.699 205.059 284.15 202.86C284.602 200.662 283.418 198.459 281.506 197.94Z" fill="#00344A"/>
<path d="M375.09 185.438C373.178 185.137 371.263 185.928 370.811 187.205C370.36 188.482 371.544 189.763 373.455 190.064C375.367 190.366 377.283 189.575 377.734 188.297C378.186 187.02 377.002 185.74 375.09 185.438Z" fill="#00344A"/>
<path d="M152.153 186.003C150.083 184.693 146.994 184.625 145.255 185.851C143.516 187.077 143.785 189.132 145.856 190.442C147.927 191.752 151.015 191.821 152.754 190.595C154.493 189.369 154.224 187.313 152.153 186.003Z" fill="#00344A"/>
<path d="M313.149 80.9713C311.76 79.6773 309.508 79.6773 308.119 80.9713C306.73 82.2652 306.73 84.3631 308.119 85.6571C309.508 86.951 311.76 86.951 313.149 85.6571C314.538 84.3631 314.538 82.2652 313.149 80.9713Z" fill="#00344A"/>
<path d="M104.289 427.079C104.289 423.722 101.721 421 98.554 421C95.3868 421 92.8193 423.722 92.8193 427.079C92.8193 430.437 95.3868 433.159 98.554 433.159C101.721 433.159 104.289 430.437 104.289 427.079Z" fill="#00344A"/>
</g>
<defs>
<clipPath id="clip0_116_2198">
<rect width="497" height="497" fill="white" transform="translate(0 497) rotate(-90)"/>
</clipPath>
</defs>
</svg>
