<svg xmlns="http://www.w3.org/2000/svg" width="215" height="210" fill="none"><path fill="#4C5C75" d="M155.379 169.441 124.02 151.34l-16.638 9.665a.61.61 0 0 1-.611 0l-5.505-3.181a.61.61 0 0 1-.223-.828.61.61 0 0 1 .828-.223l5.201 3.007 16.638-9.665a.6.6 0 0 1 .61 0l31.664 18.275a.61.61 0 0 1 .223.828.61.61 0 0 1-.828.223"/><path fill="#4C5C75" d="m83.097 168.303-37.32-21.539a.6.6 0 0 1-.305-.523c0-.218.116-.416.3-.528l35-20.342a.61.61 0 0 1 .61 0l37.32 21.548a.607.607 0 0 1 0 1.051l-35 20.338a.61.61 0 0 1-.605-.005m-35.805-22.067 36.105 20.842 33.79-19.636-36.105-20.851zM41.033 192.748 3.713 171.2a.607.607 0 0 1 0-1.051l35-20.338a.6.6 0 0 1 .611 0l37.32 21.539a.607.607 0 0 1 0 1.051l-35 20.342a.6.6 0 0 1-.61.005M5.23 170.672l36.105 20.851 33.79-19.641-36.105-20.841zM125.153 143.855l-37.315-21.539a.6.6 0 0 1-.305-.523c0-.218.116-.417.3-.528l35.001-20.338a.6.6 0 0 1 .61 0l37.32 21.539a.607.607 0 0 1 0 1.051l-35 20.338a.6.6 0 0 1-.611 0m-35.804-22.067 36.105 20.842 33.789-19.636-36.104-20.837z"/><path fill="#00344A" d="m160.463 22.547-.199 95.433-34.995 20.342.188-95.442z"/><path fill="#9EA9C9" d="M158.341 26.217v90.435l-30.957 17.995.009-3.298.175-87.254 28.206-16.382z"/><path fill="#4C5C75" d="M155.776 27.714v87.138l-28.38 16.498.174-87.254z"/><path fill="#00344A" d="m157.408 116.405-27.228 15.723-22.052-12.817-.02-6.692L135.337 96.9l22.052 12.818z"/><path fill="#00344A" d="m130.18 132.129-22.052-12.813-.02-6.697 22.052 12.818z"/><path fill="#00344A" d="m130.16 125.436-22.052-12.817L135.337 96.9l22.052 12.813z"/><path fill="#4C5C75" d="m157.393 109.714.019 6.697-27.229 15.718-.019-6.692z"/><path fill="#C9CEE2" d="m156.045 111.768.014 4.149-9.592 5.535-.01-4.15z"/><path fill="#57B3FE" d="m136.42 123.099.015 4.15-4.906 2.832-.009-4.154z"/><path fill="#F9CF6B" d="M138.378 122.914c.547-.315.983-.063.987.562 0 .624-.431 1.38-.978 1.694-.542.315-.988.063-.988-.561s.436-1.38.979-1.695M141.315 121.22c.543-.315.983-.063.988.561 0 .625-.436 1.385-.978 1.695-.542.315-.988.063-.988-.562-.01-.619.431-1.38.978-1.694M144.244 119.525c.547-.314.988-.063.988.562s-.436 1.385-.983 1.7c-.538.31-.983.063-.988-.562.005-.625.445-1.385.983-1.7"/><path fill="#00344A" d="m157.408 108.326-27.228 15.718-22.052-12.817-.02-6.688 27.229-15.723 22.052 12.818z"/><path fill="#00344A" d="m130.18 124.044-22.052-12.813-.02-6.697 22.052 12.818z"/><path fill="#00344A" d="m130.16 117.352-22.052-12.817 27.229-15.719 22.052 12.813z"/><path fill="#4C5C75" d="m157.393 101.629.019 6.697-27.229 15.718-.019-6.692z"/><path fill="#C9CEE2" d="m156.045 103.683.014 4.15-9.592 5.539-.01-4.155z"/><path fill="#57B3FE" d="m136.42 115.013.015 4.15-4.906 2.832-.009-4.15z"/><path fill="#F9CF6B" d="M138.378 114.834c.547-.315.983-.063.987.562 0 .624-.431 1.38-.978 1.694-.542.315-.988.063-.988-.561s.436-1.385.979-1.695M141.315 113.135c.543-.315.983-.063.988.561 0 .625-.436 1.385-.978 1.695-.542.315-.988.063-.988-.562-.01-.619.431-1.38.978-1.694M144.244 111.444c.547-.315.988-.063.988.562s-.436 1.385-.983 1.7c-.538.31-.983.063-.988-.562.005-.63.445-1.39.983-1.7"/><path fill="#00344A" d="m157.408 100.237-27.228 15.719-22.052-12.818-.02-6.687 27.229-15.723 22.052 12.817z"/><path fill="#00344A" d="m130.18 115.961-22.052-12.818-.02-6.692 22.052 12.813z"/><path fill="#00344A" d="m130.16 109.263-22.052-12.812 27.229-15.723 22.052 12.817z"/><path fill="#4C5C75" d="m157.393 93.546.019 6.692-27.229 15.723-.019-6.697z"/><path fill="#C9CEE2" d="m156.045 95.595.014 4.15-9.592 5.539-.01-4.15z"/><path fill="#57B3FE" d="m136.42 106.926.015 4.155-4.906 2.827-.009-4.149z"/><path fill="#F9CF6B" d="M138.378 106.747c.547-.315.983-.063.987.562 0 .624-.431 1.38-.978 1.694-.542.315-.988.063-.988-.561s.436-1.38.979-1.695M141.315 105.052c.543-.315.983-.063.988.561 0 .625-.436 1.385-.978 1.695-.542.315-.988.063-.988-.562-.01-.619.431-1.384.978-1.694M144.244 103.357c.547-.314.988-.063.988.562s-.436 1.385-.983 1.7c-.538.31-.983.063-.988-.562.005-.63.445-1.39.983-1.7"/><path fill="#00344A" d="m157.408 92.153-27.228 15.719-22.052-12.813-.02-6.692 27.229-15.719 22.052 12.818z"/><path fill="#00344A" d="m130.18 107.875-22.052-12.818-.02-6.692 22.052 12.818z"/><path fill="#00344A" d="m130.16 101.182-22.052-12.817 27.229-15.723 22.052 12.817z"/><path fill="#4C5C75" d="m157.393 85.46.019 6.692-27.229 15.723-.019-6.692z"/><path fill="#C9CEE2" d="m156.045 87.513.014 4.15-9.592 5.534-.01-4.15z"/><path fill="#57B3FE" d="m136.42 98.844.015 4.15-4.906 2.828-.009-4.15z"/><path fill="#F9CF6B" d="M138.378 98.66c.547-.316.983-.064.987.56 0 .625-.431 1.381-.978 1.696-.542.314-.988.063-.988-.562s.436-1.38.979-1.695M141.315 96.965c.543-.315.983-.063.988.561 0 .625-.436 1.385-.978 1.695-.542.315-.988.063-.988-.562-.01-.62.431-1.38.978-1.694M144.244 95.27c.547-.315.988-.063.988.561s-.436 1.385-.983 1.7c-.538.31-.983.063-.988-.562.005-.625.445-1.39.983-1.7"/><path fill="#00344A" d="M157.408 84.066 130.18 99.789 108.128 86.97l-.02-6.692 27.229-15.718 22.052 12.817z"/><path fill="#00344A" d="m130.18 99.788-22.052-12.813-.02-6.697 22.052 12.818z"/><path fill="#00344A" d="m130.16 93.097-22.052-12.818 27.229-15.718 22.052 12.812z"/><path fill="#4C5C75" d="m157.393 77.374.019 6.697-27.229 15.718-.019-6.692z"/><path fill="#C9CEE2" d="m156.045 79.428.014 4.15-9.592 5.534-.01-4.15z"/><path fill="#57B3FE" d="m136.42 90.759.015 4.15-4.906 2.832-.009-4.154z"/><path fill="#F9CF6B" d="M138.377 90.574c.547-.315.983-.063.987.562 0 .624-.43 1.38-.978 1.695-.542.314-.988.063-.988-.562-.004-.62.436-1.38.979-1.695M141.315 88.88c.543-.315.983-.063.988.562 0 .624-.436 1.384-.978 1.694-.542.315-.988.063-.988-.561-.01-.62.431-1.38.978-1.695M144.244 87.185c.547-.315.988-.064.988.561s-.436 1.385-.983 1.7c-.538.31-.983.063-.988-.562.005-.625.445-1.385.983-1.7"/><path fill="#00344A" d="M157.408 75.983 130.18 91.702l-22.052-12.818-.02-6.687 27.229-15.723 22.052 12.817z"/><path fill="#00344A" d="m130.18 91.701-22.052-12.813-.02-6.697L130.16 85.01z"/><path fill="#00344A" d="m130.16 85.01-22.052-12.818 27.229-15.718 22.052 12.813z"/><path fill="#4C5C75" d="m157.393 69.287.019 6.697-27.229 15.718-.019-6.692z"/><path fill="#C9CEE2" d="m156.045 71.34.014 4.15-9.592 5.54-.01-4.155z"/><path fill="#57B3FE" d="m136.42 82.67.015 4.15-4.906 2.834-.009-4.15z"/><path fill="#F9CF6B" d="M138.377 82.487c.547-.315.983-.063.987.562 0 .625-.43 1.38-.978 1.695-.542.314-.988.063-.988-.562-.004-.62.436-1.38.979-1.695M141.315 80.792c.543-.315.983-.063.988.562 0 .624-.436 1.385-.978 1.694-.542.315-.988.063-.988-.561-.01-.62.431-1.38.978-1.695M144.244 79.101c.547-.314.988-.062.988.562s-.436 1.385-.983 1.7c-.538.31-.983.063-.988-.562.005-.63.445-1.39.983-1.7"/><path fill="#00344A" d="M157.408 67.898 130.18 83.616l-22.052-12.818-.02-6.687 27.229-15.723 22.052 12.817z"/><path fill="#00344A" d="m130.18 83.62-22.052-12.818-.02-6.692 22.052 12.813z"/><path fill="#00344A" d="M130.16 76.924 108.108 64.11l27.229-15.723 22.052 12.817z"/><path fill="#4C5C75" d="m157.393 61.205.019 6.692-27.229 15.723-.019-6.697z"/><path fill="#C9CEE2" d="m156.045 63.252.014 4.15-9.592 5.54-.01-4.15z"/><path fill="#57B3FE" d="m136.42 74.584.015 4.15-4.906 2.833-.009-4.15z"/><path fill="#F9CF6B" d="M138.377 74.404c.547-.315.983-.063.987.562 0 .625-.43 1.38-.978 1.695-.542.314-.988.063-.988-.562-.004-.62.436-1.38.979-1.695M141.315 72.709c.543-.315.983-.063.988.562 0 .624-.436 1.385-.978 1.694-.542.315-.988.063-.988-.561-.01-.62.431-1.385.978-1.695M144.244 71.015c.547-.315.988-.063.988.561s-.436 1.385-.983 1.7c-.538.31-.983.063-.988-.562.005-.63.445-1.39.983-1.7"/><path fill="#00344A" d="M157.408 59.81 130.18 75.53l-22.052-12.813-.02-6.692 27.229-15.718 22.052 12.813z"/><path fill="#00344A" d="m130.18 75.532-22.052-12.817-.02-6.693L130.16 68.84z"/><path fill="#00344A" d="m130.16 68.84-22.052-12.818 27.229-15.723 22.052 12.818z"/><path fill="#4C5C75" d="m157.393 53.117.019 6.692-27.229 15.723-.019-6.692z"/><path fill="#C9CEE2" d="m156.045 55.17.014 4.15-9.592 5.535-.01-4.15z"/><path fill="#57B3FE" d="m136.42 66.502.015 4.15-4.906 2.828-.009-4.15z"/><path fill="#F9CF6B" d="M138.377 66.317c.547-.314.983-.063.987.562 0 .625-.43 1.38-.978 1.695-.542.314-.988.063-.988-.562-.004-.62.436-1.38.979-1.695M141.315 64.623c.543-.315.983-.063.988.562 0 .624-.436 1.385-.978 1.694-.542.315-.988.063-.988-.561-.01-.62.431-1.38.978-1.695M144.244 62.928c.547-.315.988-.063.988.561s-.436 1.385-.983 1.7c-.538.31-.983.063-.988-.562.005-.624.445-1.39.983-1.7"/><path fill="#00344A" d="M157.408 51.724 130.18 67.447l-22.052-12.818-.02-6.692 27.229-15.718 22.052 12.817z"/><path fill="#00344A" d="m130.18 67.447-22.052-12.812-.02-6.697 22.052 12.817z"/><path fill="#00344A" d="m130.16 60.755-22.052-12.818 27.229-15.718 22.052 12.813z"/><path fill="#4C5C75" d="m157.393 45.031.019 6.697-27.229 15.718-.019-6.692z"/><path fill="#C9CEE2" d="m156.045 47.084.014 4.15-9.592 5.535-.01-4.15z"/><path fill="#57B3FE" d="m136.42 58.416.015 4.15-4.906 2.833-.009-4.155z"/><path fill="#F9CF6B" d="M138.378 58.231c.547-.314.983-.063.987.562 0 .625-.431 1.38-.978 1.695-.542.315-.988.063-.988-.562s.436-1.38.979-1.695M141.315 56.536c.543-.315.983-.063.988.562 0 .624-.436 1.385-.978 1.694-.542.315-.988.063-.988-.561-.01-.62.431-1.38.978-1.695M144.244 54.842c.547-.315.988-.063.988.561s-.436 1.385-.983 1.7c-.538.31-.983.063-.988-.562.005-.624.445-1.385.983-1.7"/><path fill="#00344A" d="M157.408 43.642 130.18 59.36l-22.052-12.818-.02-6.687 27.229-15.723 22.052 12.817z"/><path fill="#00344A" d="m130.18 59.36-22.052-12.813-.02-6.697 22.052 12.817z"/><path fill="#00344A" d="M130.16 52.668 108.108 39.85l27.229-15.718 22.052 12.813z"/><path fill="#4C5C75" d="m157.393 36.944.019 6.697-27.229 15.718-.019-6.692z"/><path fill="#C9CEE2" d="m156.045 38.998.014 4.15-9.592 5.54-.01-4.155z"/><path fill="#57B3FE" d="m136.42 50.33.015 4.149-4.906 2.833-.009-4.15z"/><path fill="#F9CF6B" d="M138.378 50.145c.547-.314.983-.063.987.562 0 .625-.431 1.38-.978 1.695-.542.315-.988.063-.988-.562s.436-1.38.979-1.695M141.315 48.45c.543-.315.983-.063.988.562 0 .624-.436 1.385-.978 1.695-.542.314-.988.063-.988-.562-.01-.62.431-1.38.978-1.695M144.244 46.76c.547-.315.988-.063.988.561s-.436 1.385-.983 1.7c-.538.31-.983.063-.988-.562.005-.63.445-1.39.983-1.7"/><path fill="#00344A" d="M157.408 35.555 130.18 51.273l-22.052-12.818-.02-6.687 27.229-15.723 22.052 12.818z"/><path fill="#00344A" d="M130.18 51.277 108.128 38.46l-.02-6.692L130.16 44.58z"/><path fill="#667387" d="m130.16 44.58-22.052-12.812 27.229-15.723 22.052 12.818z"/><path fill="#4C5C75" d="m157.393 28.862.019 6.692-27.229 15.724-.019-6.697z"/><path fill="#C9CEE2" d="m156.045 30.911.014 4.15-9.592 5.54-.01-4.15z"/><path fill="#57B3FE" d="m136.42 42.242.015 4.15-4.906 2.833-.009-4.15z"/><path fill="#F9CF6B" d="M138.377 42.063c.547-.314.983-.063.987.562 0 .625-.43 1.38-.978 1.695-.542.315-.988.063-.988-.562-.004-.62.436-1.385.979-1.695M141.315 40.368c.543-.315.983-.063.988.562 0 .624-.436 1.385-.978 1.695-.542.314-.988.063-.988-.562-.01-.62.431-1.385.978-1.695M144.244 38.673c.547-.315.988-.063.988.561s-.436 1.385-.983 1.7c-.538.31-.983.063-.988-.562.005-.63.445-1.39.983-1.7"/><path fill="#00344A" d="m160.457 22.544-2.116 3.675-30.773 17.878-.184 90.552-2.116 3.675-37.32-21.548.199-95.433L123.142 1z"/><path fill="#00344A" d="m125.461 42.885-.194 95.438-37.32-21.548.199-95.433z"/><path fill="#004766" d="m160.458 22.544-34.995 20.342-37.32-21.548 35-20.338z"/><path fill="#00344A" d="m160.459 22.549-2.121 3.67-30.773 17.878-.184 90.552-2.116 3.675.189-95.442z"/><path fill="#4C5C75" d="M90.965 110.364c.377.218.707.76.707 1.23l-.01 3.816c0 .45-.32.634-.712.407s-.712-.78-.712-1.23l.01-3.816c.005-.455.324-.634.717-.407M93.587 111.88c.397.232.712.789.712 1.23l-.01 3.816c0 .45-.32.634-.717.406s-.712-.779-.712-1.23l.01-3.815c.005-.456.325-.635.717-.407M96.212 113.397c.382.222.712.765.712 1.229l-.01 3.816c0 .451-.32.635-.717.407-.392-.228-.707-.775-.707-1.23l.01-3.816c0-.45.32-.634.712-.406M98.839 114.911c.392.228.712.78.712 1.23l-.01 3.816c0 .45-.32.634-.717.407-.392-.228-.712-.78-.712-1.23l.01-3.816c0-.455.32-.635.717-.407M101.464 116.427c.382.222.711.765.711 1.23l-.009 3.815c0 .451-.32.635-.717.407-.397-.227-.712-.779-.712-1.23l.01-3.816c0-.455.32-.634.717-.406M104.092 117.941c.392.228.711.78.711 1.23l-.009 3.816c0 .451-.32.635-.717.407s-.712-.78-.712-1.23l.01-3.816c.005-.45.324-.634.717-.407M106.714 119.458c.397.228.711.784.711 1.23l-.009 3.816c0 .45-.32.634-.717.406-.392-.227-.712-.779-.712-1.23l.01-3.815c.005-.455.324-.635.717-.407M109.343 120.975c.392.227.711.779.711 1.23l-.009 3.815c0 .451-.325.635-.717.407-.392-.227-.712-.779-.712-1.23l.01-3.816c0-.45.319-.634.717-.406M111.969 122.489c.397.233.711.79.711 1.23l-.009 3.816c0 .45-.32.634-.717.407s-.712-.78-.712-1.23l.01-3.816c0-.45.319-.634.717-.407M114.591 124.005c.377.218.707.76.707 1.23l-.01 3.816c0 .45-.32.634-.712.406s-.712-.779-.712-1.23l.01-3.815c.005-.451.324-.635.717-.407M117.219 125.522c.397.232.711.789.711 1.229l-.009 3.816c0 .451-.32.635-.717.407s-.712-.78-.712-1.23l.01-3.816c.005-.45.324-.634.717-.406M119.841 127.035c.382.223.711.765.711 1.23l-.009 3.816c0 .45-.32.634-.717.407-.392-.228-.712-.78-.712-1.23l.01-3.816c.005-.45.324-.634.717-.407M122.47 128.552c.393.227.712.779.712 1.23l-.009 3.816c0 .45-.32.634-.717.406-.392-.227-.712-.779-.712-1.23l.01-3.815c0-.451.319-.635.716-.407"/><path fill="#00344A" d="m130.984 9.9-27.446 15.95-5.085-2.934L125.9 6.965zM140.564 15.435l-27.446 15.95-5.08-2.934L135.484 12.5zM150.153 20.969l-27.446 15.95-5.085-2.934 27.446-15.95zM118.397 46.994l-.193 95.433-34.996 20.343.189-95.443z"/><path fill="#9EA9C9" d="M116.28 50.664v90.431l-30.957 17.999.01-3.303.174-87.249L113.71 52.16z"/><path fill="#4C5C75" d="M113.71 52.16v87.133l-28.376 16.498.174-87.25z"/><path fill="#00344A" d="m115.345 140.852-27.229 15.723-22.056-12.818-.015-6.692 27.228-15.718 22.052 12.817z"/><path fill="#00344A" d="m88.116 156.576-22.052-12.817-.02-6.693 22.053 12.818zM88.097 149.884l-22.052-12.818 27.228-15.723 22.052 12.817z"/><path fill="#4C5C75" d="m115.325 134.16.02 6.692-27.229 15.723-.02-6.692z"/><path fill="#F45170" d="m113.98 136.214.01 4.15-9.588 5.535-.009-4.15z"/><path fill="#57B3FE" d="m94.357 147.545.01 4.15-4.901 2.828-.01-4.15z"/><path fill="#78E75A" d="M96.313 147.36c.547-.315.983-.063.988.562 0 .625-.43 1.38-.978 1.695-.542.315-.988.063-.988-.562-.01-.62.436-1.38.978-1.695M99.247 145.667c.542-.315.983-.063.988.562 0 .624-.436 1.385-.979 1.694-.542.315-.987.063-.987-.561-.005-.62.435-1.38.978-1.695M102.181 143.972c.547-.315.988-.063.988.561s-.436 1.385-.983 1.7c-.537.31-.983.063-.988-.562 0-.624.446-1.385.983-1.699"/><path fill="#00344A" d="m115.345 132.765-27.229 15.723L66.06 135.67l-.015-6.687 27.228-15.723 22.052 12.817z"/><path fill="#00344A" d="m88.116 148.488-22.052-12.813-.02-6.696 22.053 12.817zM88.097 141.796l-22.052-12.818 27.228-15.718 22.052 12.813z"/><path fill="#4C5C75" d="m115.325 126.073.02 6.697-27.229 15.718-.02-6.692z"/><path fill="#F45170" d="m113.98 128.127.01 4.15-9.588 5.535-.009-4.15z"/><path fill="#57B3FE" d="m94.357 139.458.01 4.15-4.901 2.833-.01-4.15z"/><path fill="#78E75A" d="M96.313 139.274c.547-.314.983-.063.988.562 0 .625-.43 1.38-.978 1.695-.542.315-.988.063-.988-.562-.01-.62.436-1.38.978-1.695M99.247 137.58c.542-.315.983-.063.988.562 0 .624-.436 1.385-.979 1.694-.542.315-.987.063-.987-.561-.005-.62.435-1.38.978-1.695M102.181 135.89c.547-.315.988-.063.988.561s-.436 1.385-.983 1.7c-.537.31-.983.063-.988-.562-.005-.624.446-1.39.983-1.699"/><path fill="#00344A" d="m115.345 124.684-27.229 15.718-22.056-12.818-.015-6.687 27.228-15.723 22.052 12.818z"/><path fill="#00344A" d="M88.116 140.407 66.064 127.59l-.02-6.693 22.053 12.813zM88.097 133.71l-22.052-12.813 27.228-15.723 22.052 12.818z"/><path fill="#4C5C75" d="m115.325 117.991.02 6.692-27.229 15.723-.02-6.697z"/><path fill="#F45170" d="m113.98 120.041.01 4.15-9.588 5.54-.009-4.15z"/><path fill="#57B3FE" d="m94.357 131.371.01 4.15-4.901 2.833-.01-4.15z"/><path fill="#78E75A" d="M96.316 131.191c.547-.314.983-.063.988.562 0 .625-.431 1.38-.978 1.695-.543.315-.988.063-.988-.562s.436-1.385.978-1.695M99.247 129.493c.542-.315.983-.063.988.562 0 .624-.436 1.385-.979 1.695-.542.314-.987.063-.987-.562-.005-.62.435-1.38.978-1.695M102.181 127.802c.547-.315.988-.063.988.561s-.436 1.385-.983 1.7c-.537.31-.983.063-.988-.562-.005-.624.446-1.389.983-1.699"/><path fill="#00344A" d="m115.345 116.597-27.229 15.718-22.056-12.813-.015-6.692 27.228-15.718 22.052 12.813z"/><path fill="#00344A" d="m88.116 132.318-22.052-12.817-.02-6.692 22.053 12.812z"/><path fill="#00344A" d="m88.097 125.622-22.052-12.813 27.228-15.723 22.052 12.818z"/><path fill="#4C5C75" d="m115.325 109.904.02 6.692-27.229 15.723-.02-6.696z"/><path fill="#F45170" d="m113.98 111.953.01 4.155-9.588 5.535-.009-4.15z"/><path fill="#57B3FE" d="m94.357 123.288.01 4.15-4.901 2.828-.01-4.15z"/><path fill="#78E75A" d="M96.316 123.104c.547-.314.983-.063.988.562 0 .625-.431 1.38-.978 1.695-.543.315-.988.063-.988-.562 0-.624.436-1.38.978-1.695M99.247 121.41c.542-.315.983-.063.988.562 0 .624-.436 1.385-.979 1.695-.542.314-.987.063-.987-.562-.005-.62.435-1.38.978-1.695M102.181 119.715c.547-.315.988-.063.988.561s-.436 1.385-.983 1.7c-.537.31-.983.063-.988-.562-.005-.624.446-1.389.983-1.699"/><path fill="#00344A" d="m115.345 108.511-27.229 15.723-22.056-12.818-.015-6.692 27.228-15.718 22.052 12.818z"/><path fill="#00344A" d="m88.116 124.233-22.052-12.817-.02-6.692 22.053 12.817z"/><path fill="#00344A" d="m88.097 117.542-22.052-12.818 27.228-15.723 22.052 12.818z"/><path fill="#4C5C75" d="m115.325 101.819.02 6.692-27.229 15.724-.02-6.693z"/><path fill="#F45170" d="m113.98 103.871.01 4.15-9.588 5.535-.009-4.15z"/><path fill="#57B3FE" d="m94.357 115.202.01 4.15-4.901 2.828-.01-4.15z"/><path fill="#78E75A" d="M96.313 115.018c.547-.314.983-.063.988.562 0 .625-.43 1.38-.978 1.695-.542.315-.988.063-.988-.562-.01-.62.436-1.38.978-1.695M99.246 113.322c.542-.315.983-.063.988.562.004 1.511-1.966 2.62-1.971 1.138 0-.625.44-1.385.983-1.7M102.181 111.628c.547-.315.988-.063.988.562 0 .624-.436 1.384-.983 1.699-.537.31-.983.063-.988-.562-.005-.624.446-1.384.983-1.699"/><path fill="#00344A" d="m115.345 100.425-27.229 15.723L66.06 103.33l-.015-6.687L93.273 80.92l22.052 12.818z"/><path fill="#00344A" d="m88.116 116.147-22.052-12.812-.02-6.697 22.053 12.817z"/><path fill="#00344A" d="M88.097 109.456 66.045 96.638 93.273 80.92l22.052 12.813z"/><path fill="#4C5C75" d="m115.325 93.732.02 6.697-27.229 15.719-.02-6.692z"/><path fill="#F45170" d="m113.98 95.785.01 4.15-9.588 5.535-.009-4.15z"/><path fill="#57B3FE" d="m94.357 107.115.01 4.15-4.901 2.833-.01-4.15z"/><path fill="#78E75A" d="M96.313 106.933c.547-.315.983-.063.988.561 0 .625-.43 1.38-.978 1.695-.542.315-.988.063-.988-.562-.01-.619.436-1.38.978-1.694M99.247 105.237c.542-.315.983-.063.988.562 0 .625-.436 1.385-.979 1.695-.542.314-.987.063-.987-.562-.005-.62.435-1.38.978-1.695M102.181 103.549c.547-.315.988-.063.988.561s-.436 1.385-.983 1.7c-.537.31-.983.063-.988-.562-.005-.624.446-1.389.983-1.699"/><path fill="#00344A" d="M115.345 92.34 88.116 108.06 66.06 95.241l-.015-6.687 27.228-15.723 22.052 12.818z"/><path fill="#00344A" d="M88.116 108.064 66.064 95.247l-.02-6.697 22.053 12.817z"/><path fill="#00344A" d="M88.097 101.367 66.045 88.549l27.228-15.718 22.052 12.818z"/><path fill="#4C5C75" d="m115.325 85.65.02 6.691-27.229 15.724-.02-6.697z"/><path fill="#F45170" d="m113.98 87.697.01 4.15-9.588 5.54-.009-4.15z"/><path fill="#57B3FE" d="m94.357 99.028.01 4.15-4.901 2.833-.01-4.15z"/><path fill="#78E75A" d="M96.313 98.849c.547-.315.983-.063.988.561 0 .625-.43 1.38-.978 1.695-.542.315-.988.063-.988-.562-.01-.62.436-1.385.978-1.695M99.247 97.15c.542-.316.983-.064.988.561 0 .625-.436 1.385-.979 1.695-.542.315-.987.063-.987-.562-.005-.62.435-1.38.978-1.695M102.181 95.46c.547-.315.988-.063.988.562 0 .624-.436 1.384-.983 1.7-.537.31-.983.062-.988-.562s.446-1.39.983-1.7"/><path fill="#00344A" d="M115.345 84.256 88.116 99.974 66.06 87.161l-.015-6.692 27.228-15.718 22.052 12.813z"/><path fill="#00344A" d="M88.116 99.979 66.064 87.16l-.02-6.692 22.053 12.813z"/><path fill="#00344A" d="M88.097 93.281 66.045 80.468l27.228-15.723 22.052 12.818z"/><path fill="#4C5C75" d="m115.325 77.564.02 6.692-27.229 15.723-.02-6.697z"/><path fill="#F45170" d="m113.98 79.612.01 4.155-9.588 5.535-.009-4.15z"/><path fill="#57B3FE" d="m94.357 90.942.01 4.155-4.901 2.828-.01-4.15z"/><path fill="#78E75A" d="M96.313 90.764c.547-.315.983-.063.988.561 0 .625-.43 1.38-.978 1.695-.542.315-.988.063-.988-.562-.01-.62.436-1.38.978-1.694M99.247 89.068c.542-.314.983-.063.988.562 0 .625-.436 1.385-.979 1.695-.542.314-.987.063-.987-.562-.005-.62.435-1.385.978-1.695M102.181 87.374c.547-.315.988-.063.988.562 0 .624-.436 1.384-.983 1.7-.537.31-.983.062-.988-.562 0-.625.446-1.39.983-1.7"/><path fill="#00344A" d="M115.345 76.168 88.116 91.891 66.06 79.073l-.015-6.692 27.228-15.718 22.052 12.818z"/><path fill="#00344A" d="M88.116 91.89 66.064 79.072l-.02-6.692 22.053 12.818zM88.097 85.198 66.045 72.38l27.228-15.723 22.052 12.818z"/><path fill="#4C5C75" d="m115.325 69.476.02 6.692L88.116 91.89l-.02-6.692z"/><path fill="#F45170" d="m113.98 71.528.01 4.15-9.588 5.535-.009-4.15z"/><path fill="#57B3FE" d="m94.357 82.86.01 4.15-4.901 2.828-.01-4.15z"/><path fill="#78E75A" d="M96.313 82.676c.547-.315.983-.063.988.561 0 .625-.43 1.38-.978 1.695-.542.315-.988.063-.988-.561-.01-.62.436-1.38.978-1.695M99.247 80.981c.542-.314.983-.063.988.562 0 .625-.436 1.385-.979 1.695-.542.315-.987.063-.987-.562-.005-.62.435-1.38.978-1.695M102.181 79.287c.547-.315.988-.063.988.562 0 .624-.436 1.385-.983 1.7-.537.31-.983.062-.988-.562 0-.625.446-1.385.983-1.7"/><path fill="#00344A" d="M115.345 68.081 88.116 83.804 66.06 70.987l-.015-6.688 27.228-15.723 22.052 12.818z"/><path fill="#00344A" d="M88.116 83.805 66.064 70.992l-.02-6.697 22.053 12.818zM88.097 77.112 66.045 64.294l27.228-15.718 22.052 12.813z"/><path fill="#4C5C75" d="m115.325 61.389.02 6.697-27.229 15.718-.02-6.692z"/><path fill="#F45170" d="m113.98 63.441.01 4.15-9.588 5.535-.009-4.15z"/><path fill="#57B3FE" d="m94.357 74.774.01 4.15-4.901 2.833-.01-4.155z"/><path fill="#78E75A" d="M96.316 74.589c.547-.315.983-.063.988.561 0 .625-.431 1.38-.978 1.695-.543.315-.988.063-.988-.561s.436-1.38.978-1.695M99.247 72.894c.542-.314.983-.062.988.562 0 .625-.436 1.385-.979 1.695-.542.315-.987.063-.987-.562-.005-.62.435-1.38.978-1.695M102.181 71.205c.547-.315.988-.063.988.562 0 .624-.436 1.385-.983 1.7-.537.31-.983.062-.988-.562 0-.63.446-1.39.983-1.7"/><path fill="#00344A" d="M115.345 60 88.116 75.718 66.06 62.901l-.015-6.688L93.273 40.49l22.052 12.818z"/><path fill="#00344A" d="M88.116 75.723 66.064 62.905l-.02-6.697 22.053 12.818z"/><path fill="#667387" d="M88.097 69.026 66.045 56.21 93.273 40.49l22.052 12.818z"/><path fill="#4C5C75" d="m115.325 53.308.02 6.692-27.229 15.723-.02-6.697z"/><path fill="#F45170" d="m113.98 55.356.01 4.15-9.588 5.539-.009-4.15z"/><path fill="#57B3FE" d="m94.357 66.687.01 4.15-4.901 2.832-.01-4.15z"/><path fill="#78E75A" d="M96.316 66.507c.547-.315.983-.063.988.561 0 .625-.431 1.38-.978 1.695-.543.315-.988.063-.988-.562 0-.624.436-1.384.978-1.694M99.247 64.808c.542-.314.983-.062.988.562 0 .625-.436 1.385-.979 1.695-.542.315-.987.063-.987-.562-.005-.62.435-1.38.978-1.695M102.181 63.118c.547-.315.988-.063.988.562 0 .624-.436 1.385-.983 1.7-.537.31-.983.062-.988-.562s.446-1.39.983-1.7"/><path fill="#00344A" d="m118.398 46.988-2.116 3.675-30.773 17.878-.184 90.552-2.116 3.675-37.32-21.548.198-95.433 34.996-20.343z"/><path fill="#00344A" d="m83.402 67.33-.193 95.437-37.32-21.548.198-95.433z"/><path fill="#004766" d="M118.394 46.988 83.398 67.326l-37.32-21.544 35-20.338z"/><path fill="#00344A" d="m118.398 46.993-2.116 3.67-30.773 17.879-.184 90.551-2.116 3.676.189-95.443z"/><path fill="#4C5C75" d="M48.9 134.808c.377.217.706.76.706 1.23l-.01 3.815c0 .451-.32.635-.711.407-.393-.228-.712-.78-.712-1.23l.01-3.816c0-.455.324-.634.716-.406M51.526 136.32c.397.233.712.789.712 1.23l-.01 3.816c0 .45-.32.634-.716.407-.393-.228-.712-.78-.712-1.23l.01-3.816c0-.45.32-.63.716-.407M54.15 137.836c.383.223.712.765.712 1.23l-.01 3.816c0 .45-.32.634-.716.406-.393-.227-.707-.774-.707-1.23l.01-3.815c0-.451.319-.63.711-.407M56.772 139.355c.392.228.712.78.712 1.23l-.01 3.816c0 .45-.32.634-.716.407-.393-.228-.712-.78-.712-1.23l.01-3.816c.004-.455.324-.634.716-.407M59.395 140.871c.383.223.712.765.712 1.23l-.01 3.816c0 .45-.32.634-.716.407-.392-.228-.712-.78-.712-1.23l.01-3.816c.005-.455.324-.635.716-.407M62.738 143.617l-.01 3.816c0 .45-.32.634-.716.407-.393-.228-.712-.78-.712-1.23l.01-3.816c.004-1.085 1.428-.257 1.428.823M64.653 143.902c.397.228.712.785.712 1.23l-.01 3.816c0 .45-.32.634-.716.407-.397-.228-.712-.78-.712-1.23l.01-3.816c0-.455.324-.634.716-.407M67.281 145.418c.392.228.712.78.712 1.23l-.01 3.816c0 .45-.324.634-.717.406s-.711-.779-.711-1.229l.01-3.816c.004-.451.324-.635.716-.407M70.611 148.164l-.01 3.816c0 .45-.32.634-.716.406-.393-.227-.712-.779-.712-1.229l.01-3.816c.004-1.085 1.433-.262 1.428.823M72.53 148.449c.378.218.707.761.707 1.23l-.01 3.816c0 .45-.32.634-.712.407s-.711-.78-.711-1.23l.01-3.816c.004-.45.324-.634.716-.407M75.153 149.965c.397.232.712.789.712 1.23l-.01 3.816c0 .45-.32.634-.716.406-.393-.227-.712-.779-.712-1.23l.01-3.815c.004-.451.324-.635.716-.407M77.78 151.481c.383.222.712.765.712 1.229l-.01 3.816c0 .451-.32.635-.716.407-.393-.228-.712-.78-.712-1.23l.01-3.816c.004-.45.324-.634.716-.406M80.404 152.996c.392.228.712.78.712 1.23l-.01 3.816c0 .45-.32.634-.716.407-.393-.228-.712-.78-.712-1.23l.01-3.816c.004-.45.324-.634.716-.407"/><path fill="#00344A" d="m88.919 34.344-27.447 15.95-5.08-2.934L83.84 31.41zM98.505 39.88 71.057 55.83l-5.08-2.934 27.447-15.95zM108.093 45.413l-27.446 15.95-5.085-2.934 27.447-15.95zM76.337 71.433l-.194 95.437-35 20.343.193-95.442z"/><path fill="#9EA9C9" d="M74.224 75.107v90.431l-30.957 17.999.004-3.302.18-87.25L71.652 76.6z"/><path fill="#4C5C75" d="M71.65 76.599v87.138l-28.381 16.497.179-87.249z"/><path fill="#00344A" d="m73.292 165.296-27.233 15.718-22.052-12.813-.02-6.692 27.229-15.718 22.057 12.818z"/><path fill="#00344A" d="m46.064 181.021-22.057-12.818-.02-6.692 22.057 12.817z"/><path fill="#00344A" d="m46.044 174.329-22.057-12.818 27.234-15.723 22.052 12.818z"/><path fill="#4C5C75" d="m73.272 158.605.02 6.693-27.229 15.723-.02-6.692z"/><path fill="#F9CF6B" d="m71.923 160.657.01 4.15-9.588 5.535-.015-4.15z"/><path fill="#57B3FE" d="m52.297 171.989.01 4.15-4.9 2.828-.015-4.15z"/><path fill="#78E75A" d="M54.256 171.805c.547-.315.983-.063.987.561 0 .625-.43 1.38-.978 1.695-.542.315-.987.063-.987-.562-.01-.619.435-1.38.978-1.694M57.19 170.109c.541-.314.982-.063.987.562 0 .625-.436 1.385-.978 1.695-.543.315-.988.063-.988-.562s.436-1.38.978-1.695M60.122 168.416c.547-.315.987-.063.987.562 0 .624-.435 1.385-.983 1.699-.537.31-.982.063-.987-.561 0-.625.445-1.385.983-1.7"/><path fill="#00344A" d="m73.292 157.209-27.233 15.723-22.052-12.818-.02-6.692 27.229-15.718 22.057 12.818z"/><path fill="#00344A" d="M46.064 172.933 24.007 160.12l-.02-6.697 22.057 12.818zM46.044 166.24l-22.057-12.818 27.234-15.718 22.052 12.813z"/><path fill="#4C5C75" d="m73.272 150.518.02 6.697-27.229 15.718-.02-6.692z"/><path fill="#F9CF6B" d="m71.923 152.57.01 4.15-9.588 5.535-.015-4.15z"/><path fill="#57B3FE" d="m52.297 163.901.01 4.15-4.9 2.833-.015-4.155z"/><path fill="#78E75A" d="M54.256 163.717c.547-.315.983-.063.987.561 0 .625-.43 1.38-.978 1.695-.542.315-.987.063-.987-.561-.01-.62.435-1.381.978-1.695M57.19 162.023c.541-.314.982-.063.987.562 0 .625-.436 1.385-.978 1.695-.543.31-.988.063-.988-.562s.436-1.38.978-1.695M60.122 160.327c.547-.315.987-.063.987.562 0 .624-.435 1.385-.983 1.699-.537.31-.982.063-.987-.561 0-.625.445-1.385.983-1.7"/><path fill="#00344A" d="m73.292 149.13-27.233 15.718-22.052-12.818-.02-6.687 27.229-15.723 22.057 12.818z"/><path fill="#00344A" d="m46.064 164.847-22.057-12.813-.02-6.697 22.057 12.818z"/><path fill="#00344A" d="m46.044 158.156-22.057-12.818 27.234-15.718 22.052 12.813z"/><path fill="#4C5C75" d="m73.272 142.433.02 6.697-27.229 15.718-.02-6.692z"/><path fill="#F9CF6B" d="m71.923 144.485.01 4.15-9.588 5.54-.015-4.155z"/><path fill="#57B3FE" d="m52.297 155.815.01 4.15-4.9 2.833-.015-4.15z"/><path fill="#78E75A" d="M54.256 155.632c.547-.315.983-.063.987.561 0 .625-.43 1.38-.978 1.695-.542.315-.987.063-.987-.561-.01-.62.435-1.381.978-1.695M57.19 153.937c.541-.314.982-.063.987.562 0 .625-.436 1.385-.978 1.695-.543.31-.988.063-.988-.562 0-.624.436-1.38.978-1.695M60.122 152.248c.547-.315.987-.063.987.562 0 .624-.435 1.385-.983 1.699-.537.31-.982.063-.987-.561 0-.63.445-1.39.983-1.7"/><path fill="#00344A" d="m73.292 141.041-27.233 15.718-22.052-12.817-.02-6.688 27.229-15.723 22.057 12.818z"/><path fill="#00344A" d="m46.064 156.764-22.057-12.818-.02-6.692 22.057 12.813z"/><path fill="#00344A" d="m46.044 150.067-22.057-12.813 27.234-15.723 22.052 12.818z"/><path fill="#4C5C75" d="m73.272 134.349.02 6.692-27.229 15.723-.02-6.697z"/><path fill="#F9CF6B" d="m71.923 136.397.01 4.15-9.588 5.54-.015-4.15z"/><path fill="#57B3FE" d="m52.297 147.728.01 4.149-4.9 2.833-.015-4.15z"/><path fill="#78E75A" d="M54.256 147.55c.547-.315.983-.063.987.561 0 .625-.43 1.38-.978 1.695-.542.315-.987.063-.987-.561-.01-.62.435-1.381.978-1.695M57.19 145.855c.541-.314.982-.063.987.562 0 .625-.436 1.385-.978 1.695-.542.315-.988.063-.988-.562-.005-.62.436-1.385.978-1.695M60.122 144.159c.547-.315.987-.063.987.562 0 .624-.435 1.385-.983 1.699-.537.31-.982.063-.987-.561 0-.63.445-1.39.983-1.7"/><path fill="#00344A" d="m73.292 132.955-27.233 15.718-22.052-12.812-.02-6.693 27.229-15.718 22.057 12.818z"/><path fill="#00344A" d="M46.064 148.678 24.007 135.86l-.02-6.692 22.057 12.818zM46.044 141.986l-22.057-12.818 27.234-15.723 22.052 12.818z"/><path fill="#4C5C75" d="m73.272 126.262.02 6.692-27.229 15.723-.02-6.692z"/><path fill="#F9CF6B" d="m71.923 128.315.01 4.15L62.344 138l-.015-4.15z"/><path fill="#57B3FE" d="m52.297 139.646.01 4.149-4.9 2.828-.015-4.15z"/><path fill="#78E75A" d="M54.256 139.463c.547-.315.983-.063.987.561 0 .625-.43 1.381-.978 1.695-.542.315-.987.063-.987-.561-.01-.62.435-1.38.978-1.695M57.19 137.767c.541-.314.982-.062.987.562.005 1.511-1.966 2.62-1.97 1.138 0-.625.44-1.385.982-1.7M60.122 136.073c.547-.315.987-.063.987.562s-.435 1.385-.983 1.7c-.537.309-.982.062-.987-.562 0-.625.445-1.39.983-1.7"/><path fill="#00344A" d="m73.292 124.866-27.233 15.723-22.052-12.817-.02-6.692 27.229-15.719 22.057 12.818z"/><path fill="#00344A" d="m46.064 140.59-22.057-12.813-.02-6.697 22.057 12.818z"/><path fill="#00344A" d="M46.044 133.897 23.987 121.08l27.234-15.719 22.052 12.813z"/><path fill="#4C5C75" d="m73.272 118.176.02 6.697-27.229 15.718-.02-6.692z"/><path fill="#F9CF6B" d="m71.923 120.229.01 4.149-9.588 5.535-.015-4.15z"/><path fill="#57B3FE" d="m52.297 131.559.01 4.149-4.9 2.833-.015-4.154z"/><path fill="#78E75A" d="M54.256 131.376c.547-.315.983-.063.987.562 0 .624-.43 1.38-.978 1.694-.542.315-.987.063-.987-.561-.01-.62.435-1.38.978-1.695M57.19 129.681c.541-.315.982-.063.987.561 0 .625-.436 1.385-.978 1.695-.543.31-.988.063-.988-.562 0-.624.436-1.38.978-1.694M60.122 127.986c.547-.315.987-.063.987.562s-.435 1.385-.983 1.7c-.537.31-.982.063-.987-.562 0-.625.445-1.385.983-1.7"/><path fill="#00344A" d="m73.292 116.786-27.233 15.718-22.052-12.817-.02-6.688 27.229-15.723 22.057 12.818z"/><path fill="#00344A" d="M46.064 132.503 24.007 119.69l-.02-6.697 22.057 12.818z"/><path fill="#00344A" d="m46.044 125.812-22.057-12.817 27.234-15.719 22.052 12.813z"/><path fill="#4C5C75" d="m73.272 110.09.02 6.697-27.229 15.718-.02-6.692z"/><path fill="#F9CF6B" d="m71.923 112.142.01 4.149-9.588 5.54-.015-4.155z"/><path fill="#57B3FE" d="m52.297 123.473.01 4.15-4.9 2.832-.015-4.15z"/><path fill="#78E75A" d="M54.256 123.288c.547-.315.983-.063.987.562.005.624-.43 1.38-.978 1.695-.542.314-.987.062-.987-.562-.01-.62.435-1.38.978-1.695M57.19 121.594c.541-.315.982-.063.987.561 0 .625-.436 1.385-.978 1.695-.543.31-.988.063-.988-.562 0-.624.436-1.38.978-1.694M60.122 119.904c.547-.315.987-.063.987.562s-.435 1.385-.983 1.7c-.537.309-.982.063-.987-.562 0-.63.445-1.39.983-1.7"/><path fill="#00344A" d="m73.292 108.698-27.233 15.719-22.052-12.818-.02-6.687 27.229-15.724 22.057 12.818z"/><path fill="#00344A" d="m46.064 124.421-22.057-12.818-.02-6.692 22.057 12.813z"/><path fill="#00344A" d="m46.044 117.724-22.057-12.812 27.234-15.724 22.052 12.818z"/><path fill="#4C5C75" d="m73.272 102.007.02 6.692-27.229 15.723-.02-6.697z"/><path fill="#F9CF6B" d="m71.923 104.056.01 4.15-9.588 5.539-.015-4.15z"/><path fill="#57B3FE" d="m52.297 115.387.01 4.15-4.9 2.832-.015-4.15z"/><path fill="#78E75A" d="M54.256 115.208c.547-.315.983-.063.987.562.005.624-.43 1.38-.978 1.694-.542.315-.987.063-.987-.561-.01-.62.435-1.38.978-1.695M57.19 113.513c.541-.315.982-.063.987.561 0 .625-.436 1.385-.978 1.695-.543.315-.988.063-.988-.562 0-.624.436-1.385.978-1.694M60.122 111.818c.547-.315.987-.063.987.562s-.435 1.385-.983 1.7c-.537.31-.982.063-.987-.562 0-.63.445-1.39.983-1.7"/><path fill="#00344A" d="m73.292 100.612-27.233 15.719-22.052-12.813-.02-6.692 27.229-15.719L73.273 93.92z"/><path fill="#00344A" d="m46.064 116.335-22.057-12.818-.02-6.692 22.057 12.818z"/><path fill="#00344A" d="M46.044 109.642 23.987 96.825l27.234-15.723 22.052 12.817z"/><path fill="#4C5C75" d="m73.272 93.92.02 6.692-27.229 15.723-.02-6.692z"/><path fill="#F9CF6B" d="m71.923 95.973.01 4.15-9.588 5.534-.015-4.15z"/><path fill="#57B3FE" d="m52.297 107.304.01 4.15-4.9 2.828-.015-4.15z"/><path fill="#78E75A" d="M54.256 107.12c.547-.315.983-.063.987.562.005.624-.43 1.38-.978 1.695-.542.314-.987.062-.987-.562-.01-.62.435-1.38.978-1.695M57.19 105.426c.541-.315.982-.063.987.561 0 .625-.436 1.385-.978 1.695-.543.315-.988.063-.988-.562 0-.624.436-1.38.978-1.694M60.122 103.731c.547-.314.987-.063.987.562s-.435 1.385-.983 1.7c-.537.31-.982.063-.987-.562 0-.625.445-1.39.983-1.7"/><path fill="#00344A" d="m73.292 92.526-27.233 15.723-22.052-12.818-.02-6.692L51.216 73.02l22.057 12.818z"/><path fill="#00344A" d="M46.064 108.249 24.007 95.431l-.02-6.692 22.057 12.818z"/><path fill="#00344A" d="M46.044 101.557 23.987 88.74l27.234-15.723 22.052 12.817z"/><path fill="#4C5C75" d="m73.272 85.834.02 6.697-27.229 15.718-.02-6.692z"/><path fill="#F9CF6B" d="m71.923 87.888.01 4.15-9.588 5.534-.015-4.15z"/><path fill="#57B3FE" d="m52.297 99.219.01 4.15-4.9 2.828-.015-4.15z"/><path fill="#78E75A" d="M54.256 99.035c.547-.315.983-.063.987.562 0 .624-.43 1.38-.978 1.695-.542.314-.987.063-.987-.562-.01-.62.435-1.38.978-1.695M57.19 97.34c.541-.314.982-.062.987.562 0 .625-.436 1.385-.978 1.695-.543.315-.988.063-.988-.561s.436-1.38.978-1.695M60.122 95.644c.547-.314.987-.062.987.562s-.435 1.385-.983 1.7c-.537.31-.982.063-.987-.562 0-.625.445-1.385.983-1.7"/><path fill="#00344A" d="m73.292 84.442-27.233 15.719-22.052-12.818-.02-6.687 27.229-15.723L73.273 77.75z"/><path fill="#00344A" d="M46.064 100.161 24.007 87.348l-.02-6.697L46.044 93.47z"/><path fill="#667387" d="M46.044 93.469 23.987 80.65l27.234-15.718 22.052 12.813z"/><path fill="#4C5C75" d="m73.272 77.746.02 6.697-27.229 15.718-.02-6.692z"/><path fill="#F9CF6B" d="m71.923 79.8.01 4.15-9.588 5.54-.015-4.155z"/><path fill="#57B3FE" d="m52.297 91.13.01 4.15-4.9 2.834-.015-4.15z"/><path fill="#78E75A" d="M54.256 90.947c.547-.315.983-.063.987.562 0 .624-.43 1.38-.978 1.695-.542.314-.987.063-.987-.562-.01-.62.435-1.38.978-1.695M57.19 89.252c.541-.315.982-.063.987.562 0 .624-.436 1.385-.978 1.694-.542.31-.988.063-.988-.561-.005-.62.436-1.38.978-1.695M60.122 87.562c.547-.314.987-.063.987.562s-.435 1.385-.983 1.7c-.537.31-.982.063-.987-.562 0-.63.445-1.39.983-1.7"/><path fill="#00344A" d="m76.338 71.432-2.116 3.676L43.45 92.985l-.184 90.552-2.12 3.671-37.316-21.544.194-95.437 34.995-20.338z"/><path fill="#00344A" d="m41.344 91.775-.199 95.433L3.83 165.664l.194-95.437z"/><path fill="#004766" d="m76.336 71.432-35 20.338L4.02 70.227l35-20.338z"/><path fill="#00344A" d="m76.336 71.432-2.116 3.675-30.773 17.878-.184 90.552-2.121 3.675.193-95.442z"/><path fill="#4C5C75" d="M6.837 159.248c.377.218.707.76.707 1.23l-.01 3.816c0 .45-.32.634-.712.407s-.712-.78-.712-1.23l.01-3.816c0-.45.32-.634.717-.407M10.17 161.994l-.01 3.815c0 .451-.32.635-.717.407-.397-.227-.712-.779-.712-1.23l.01-3.816c.01-1.079 1.434-.251 1.429.824M12.087 162.279c.382.223.712.765.712 1.23l-.01 3.816c0 .45-.32.634-.717.407-.392-.228-.707-.775-.707-1.23l.01-3.816c0-.45.32-.63.712-.407M14.713 163.795c.392.227.712.779.712 1.23l-.01 3.816c0 .45-.32.634-.717.406-.392-.227-.712-.779-.712-1.23l.01-3.815c.005-.451.324-.63.717-.407M17.336 165.311c.382.222.712.765.712 1.23l-.01 3.815c0 .451-.32.635-.717.407-.392-.228-.712-.78-.712-1.23l.01-3.816c.005-.45.325-.634.717-.406M19.967 166.831c.392.228.711.78.711 1.23l-.01 3.816c0 .45-.319.634-.716.406-.392-.227-.712-.779-.712-1.229l.01-3.816c0-.455.32-.635.717-.407M22.592 168.347c.397.227.711.784.711 1.23l-.01 3.815c0 .451-.319.635-.716.407-.392-.227-.712-.78-.712-1.23l.01-3.816c0-.455.32-.634.717-.406M25.217 169.862c.392.228.711.78.711 1.23l-.01 3.816c0 .45-.324.634-.716.407s-.712-.78-.712-1.23l.01-3.816c.005-.455.324-.634.717-.407M27.839 171.378c.397.232.712.789.712 1.23l-.01 3.816c0 .45-.32.634-.717.406-.392-.227-.712-.779-.712-1.23l.01-3.815c.005-.456.324-.635.717-.407M30.472 172.894c.377.218.706.76.706 1.23l-.01 3.815c0 .451-.319.635-.711.407s-.712-.78-.712-1.23l.01-3.816c0-.45.32-.634.716-.406M33.095 174.409c.397.233.711.79.711 1.23l-.01 3.816c0 .45-.319.634-.716.407-.392-.228-.712-.78-.712-1.23l.01-3.816c0-.45.32-.634.716-.407M35.718 175.926c.382.222.711.765.711 1.23l-.01 3.815c0 .451-.319.635-.716.407-.392-.227-.712-.779-.712-1.23l.01-3.816c0-.455.324-.634.717-.406M38.34 177.44c.392.228.711.78.711 1.23l-.01 3.816c0 .451-.319.635-.716.407-.392-.228-.712-.78-.712-1.23l.01-3.816c.005-.45.324-.634.717-.407"/><path fill="#00344A" d="m46.854 58.789-27.446 15.95-5.08-2.934 27.447-15.95zM56.444 64.323l-27.446 15.95-5.08-2.934 27.446-15.95zM66.03 69.858 38.584 85.81l-5.085-2.94 27.446-15.945z"/><path fill="#4C5C75" d="m162.766 208.727-27.67-16.076a.61.61 0 0 1 0-1.051l47.199-27.258a.61.61 0 0 1 .61 0l27.669 16.087c1.361.779 1.366 2.276-.019 3.065l-43.698 25.233c-1.152.659-2.949.659-4.091 0m-26.154-16.604 26.764 15.554c.76.44 2.106.44 2.876 0l43.692-25.234c.552-.315.572-.644.015-.959l-27.364-15.912zM181.974 123.481c-.306-.179-.044.179-.528.474-54.564 31.485-41.707 24.067-43.707 25.224-.959.571-1.739 1.918-1.739 3.027l-.624 31.654-3.332-1.898-.097-31.999c0-1.108.78-2.459 1.739-3.011l43.707-25.234c.484-.276.929-.305 1.249-.126z"/><path fill="#00344A" d="m182.58 156.609-47.198 27.247-.097-32.003c0-1.113.775-2.459 1.743-3.016l43.707-25.234c.964-.562 1.753-.111 1.758 1.003z"/><path fill="#fff" d="m181.248 155.819-44.491 25.708-.097-29.679c0-.615.523-1.525 1.08-1.85l43.431-25.068z"/><path fill="#E9E7FC" d="m135.387 183.857.014 4.3 27.669 16.062c.959.556 2.514.556 3.482 0l43.702-25.229c.489-.281.731-.654.731-1.017l-.014-4.271c0 .363-.242.731-.731 1.012z"/><path fill="#F8F9FE" d="m135.387 183.851 27.669 16.077c.959.557 2.518.557 3.482 0l43.702-25.229c.968-.561.973-1.462.014-2.019l-27.669-16.076z"/><path fill="#00344A" d="M153.311 178.717c-.053-.034-.068-.053-.068-.087v-.358c0 .019.02.034.034.034-.034-.034-.034-.088.034-.121l2.019-1.172a.43.43 0 0 1 .291 0l2.004 1.172c.068.053.088.121 0 .169.054-.014.068-.053.068-.087v.358c0 .034-.019.053-.068.087l-2.019 1.172a.42.42 0 0 1-.29 0zM156.848 176.664c-.034-.015-.068-.054-.068-.068v-.359h.02c0-.033.019-.067.053-.087l2.019-1.172c.068-.053.204-.053.291 0l2.004 1.172c.054.02.068.054.054.087l.014.359c0 .034-.034.053-.068.087l-2.019 1.172a.43.43 0 0 1-.29 0zM149.78 180.755c-.054-.019-.068-.053-.068-.087v-.358c0-.034.019-.053.068-.087l2.019-1.172a.43.43 0 0 1 .291 0l2.004 1.172c.034.034.054.053.054.087v.358c0 .034-.02.068-.054.087l-2.019 1.172a.43.43 0 0 1-.291 0zM159.173 181.623c.02-.02.034-.034.034-.054v.359c0 .034-.019.053-.068.087l-2.004 1.172a.43.43 0 0 1-.291 0l-2.005-1.172c-.053-.034-.068-.053-.068-.087v-.359c0-.033.02-.067.054-.087l2.019-1.172a.29.29 0 0 1 .291 0l2.004 1.172c.068.039.068.092.034.141M150.556 182.794l-2.019 1.172a.43.43 0 0 1-.291 0l-2.019-1.172c-.034-.019-.053-.053-.053-.067v-.373c0-.034.019-.054.053-.087l2.039-1.158c.068-.053.203-.053.29 0l2.005 1.158c.034.033.053.067.053.087v.358c-.005.034-.024.068-.058.082M155.741 183.987l-3.603 2.072c-.087.053-.222.053-.29 0l-2.005-1.157c-.053-.034-.068-.068-.068-.087v-.359c0-.034.02-.067.068-.087l3.603-2.092c.068-.053.203-.053.29 0l2.005 1.172a.1.1 0 0 1 .053.087v.359c0 .038-.019.058-.053.092M178.062 164.432c-.053-.034-.068-.053-.068-.087v-.359c0-.033.015-.067.053-.087l2.02-1.172c.087-.053.222-.033.29 0l2.019 1.172a.1.1 0 0 1 .054.087v.359c0 .034-.02.068-.054.087l-2.019 1.157c-.087.054-.223.054-.29 0zM160.513 182.896c-.053-.019-.068-.053-.068-.087v-.339c0-.034.02-.068.068-.102l2.019-1.157c.068-.053.204-.053.291 0l2.005 1.157c.034.034.053.068.053.087v.359a.1.1 0 0 1-.053.087l-2.02 1.172c-.087.034-.203.053-.29 0zM166.056 182.029l-2.004-1.172c-.034-.034-.054-.053-.054-.087v-.359c-.014-.034 0-.053.054-.087l2.019-1.157c.068-.053.203-.053.291 0l2.004 1.157c.034.034.054.053.054.087v.359c0 .034-.02.053-.054.087l-2.019 1.172a.43.43 0 0 1-.291 0M160.445 181.094l-2.005-1.172a.1.1 0 0 1-.053-.087v-.358c-.019-.02 0-.053.053-.087l2.02-1.158c.068-.053.203-.053.29 0l2.005 1.158a.1.1 0 0 1 .053.087v.358a.1.1 0 0 1-.053.087l-2.019 1.172c-.087.053-.223.053-.291 0M167.452 170.548a.1.1 0 0 1-.054-.087v-.339q.001-.051.054-.101l2.019-1.158c.087-.053.223-.053.291 0l2.004 1.158c.053.033.068.067.068.101v.339a.1.1 0 0 1-.053.087l-2.019 1.172c-.088.053-.223.034-.291 0zM171.969 178.379c0 .02 0 .034-.015.053l.015.306c0 .033-.034.053-.068.087l-2.019 1.157a.29.29 0 0 1-.291 0l-2.005-1.157c-.053-.034-.067-.054-.067-.087v-.359s.019 0 .019.02c0-.034 0-.068.053-.102l2.019-1.172a.43.43 0 0 1 .291 0l2.005 1.172c.029.034.063.048.063.082M171.594 171.971l2.005 1.172c.034.033.053.053.053.087v.358c0 .034-.019.053-.067.087l-2.02 1.172a.42.42 0 0 1-.29 0l-2.005-1.172a.1.1 0 0 1-.053-.087v-.358c0-.034.019-.054.053-.087l2.039-1.172c.063-.034.198-.034.285 0M170.976 168.509a.1.1 0 0 1-.053-.087v-.358c0-.034.019-.054.053-.087l2.019-1.172a.34.34 0 0 1 .291.019l2.005 1.157c.053.034.067.068.067.102v.339a.09.09 0 0 1-.053.087l-2.038 1.172c-.068.053-.204.053-.291 0zM178.511 170.664l-2.005-1.172c-.053-.02-.068-.054-.068-.068v-.358c0-.034.02-.068.068-.088l2.005-1.171c.087-.054.223-.054.291 0l2.004 1.171c.054.02.068.054.068.088v.358c0 .014-.019.053-.053.068l-2.019 1.172c-.088.053-.223.053-.291 0M180.185 173.86l-2.005-1.158c-.034-.033-.053-.067-.053-.087v-.358a.1.1 0 0 1 .053-.087l2.019-1.172a.29.29 0 0 1 .291 0l2.005 1.172c.053.019.068.053.068.087v.358c0 .015-.02.054-.068.068l-2.02 1.172c-.067.053-.203.053-.29.005M174.534 166.471c-.054-.034-.068-.053-.068-.087v-.358c0-.034.019-.068.053-.088l2.019-1.171a.43.43 0 0 1 .291 0l2.019 1.171c.034.034.053.054.053.088v.358a.1.1 0 0 1-.053.087l-2.019 1.157a.25.25 0 0 1-.291 0zM180.085 166.911l3.584-2.072c.087-.053.222-.053.29 0l2.019 1.157c.034.034.054.068.054.087v.359c0 .033-.02.067-.054.087l-3.602 2.072c-.087.054-.223.054-.291 0l-2.005-1.157c-.053-.034-.067-.053-.067-.102v-.339c.005-.043.019-.077.072-.092M193.098 170.19v.358c0 .034-.019.053-.053.087l-5.201 2.988a.28.28 0 0 1-.29 0l-2.005-1.157c-.053-.034-.068-.054-.068-.088v-.358c0-.034.034-.068.068-.087l5.201-3.007a.43.43 0 0 1 .29 0l2.005 1.172a.1.1 0 0 1 .053.092M175.197 169.899l2.005 1.158c.053.033.067.067.053.101l.014.339c0 .034-.014.068-.067.087l-2.02 1.172a.42.42 0 0 1-.29 0l-2.005-1.172c-.034-.019-.068-.053-.068-.087v-.358c0-.034.034-.053.068-.087l2.019-1.158a.33.33 0 0 1 .291.005M164.458 186.736l.019.339c0 .033-.034.067-.068.087l-5.2 3.007a.29.29 0 0 1-.291 0l-2.005-1.172c-.053-.019-.067-.053-.067-.068v-.373c0 .02.019.02.019.02q-.028-.051.053-.102l5.201-2.988c.068-.053.203-.053.291 0l2.004 1.158c.044.024.063.058.044.092M160.331 174.558l-.019-.359c0-.034.033-.067.067-.087l2.02-1.172a.28.28 0 0 1 .29 0l2.005 1.172c.053.034.068.068.034.121l.034-.034v.359c0 .034-.02.053-.068.087l-2.019 1.157c-.068.053-.204.053-.291 0l-2.005-1.172c-.034-.024-.048-.058-.048-.072M173.125 177.937l-2.005-1.157c-.033-.034-.053-.054-.053-.088l-.019-.358c0-.034.034-.053.068-.087l2.019-1.172c.087-.034.203-.053.29 0l2.005 1.172c.053.019.068.053.068.087v.358c0 .034-.019.054-.068.088l-2.019 1.157c-.068.048-.203.048-.286 0M182.089 169.919l5.182-2.987a.28.28 0 0 1 .29 0l2.005 1.157c.053.034.068.068.068.102v.339c0 .033-.02.067-.054.087l-5.215 3.007c-.068.053-.203.053-.29 0l-1.986-1.172c-.053-.019-.068-.053-.068-.087v-.359c0-.038.015-.053.068-.087M176.651 175.898l-2.005-1.157c-.034-.034-.068-.054-.068-.088v-.358c0 .019.034.034.053.068-.053-.053-.053-.121.02-.155l2.019-1.172a.29.29 0 0 1 .291 0l2.004 1.172c.034.034.068.053.068.087v.339c0 .053-.019.068-.068.102l-2.019 1.157a.3.3 0 0 1-.295.005M167.97 174.063l2.005 1.172c.053.033.053.067.053.101 0-.019.015-.019.015-.019v.339c0 .053-.015.068-.068.102l-2.019 1.157c-.068.053-.204.053-.291 0l-2.004-1.157c-.034-.034-.068-.054-.068-.088v-.358c0-.034.019-.053.068-.087l2.019-1.172a.3.3 0 0 1 .29.01M164.352 176.152l2.005 1.157c.068.034.068.087.034.135.019-.019.034-.033.034-.053v.359c0 .033-.02.067-.068.101l-2.005 1.158c-.087.053-.222.053-.29 0l-2.005-1.158c-.053-.034-.068-.068-.068-.101v-.339q-.002-.051.068-.102l2.005-1.157c.087-.049.223-.049.29 0M186.287 174.011c.034.019.053.033.053.067v.373c0 .02-.019.053-.053.087l-19.844 11.452c-.087.054-.223.054-.29 0l-2.02-1.157c-.034-.034-.053-.053-.053-.087v-.358c0-.034.015-.068.053-.087l19.859-11.467c.068-.034.203-.053.29 0zM161.37 184.901l-5.642 3.244c-.067.053-.188.053-.29 0l-2.005-1.172q-.052-.02-.053-.067v-.359a.1.1 0 0 1 .053-.087l5.641-3.264a.43.43 0 0 1 .291 0l2.005 1.172c.034.034.068.053.068.087v.359c0 .019-.02.072-.068.087M163.914 172.586c-.034-.019-.054-.033-.054-.087v-.339c0-.034.02-.053.054-.087l2.019-1.172c.087-.053.223-.053.29 0l2.005 1.172c.053.019.068.053.068.068v.358c0 .034-.019.068-.068.087l-2.019 1.172a.28.28 0 0 1-.291 0z"/><path fill="#4D5C75" d="M178.061 163.904c-.077.043-.077.121 0 .169l2.01 1.167a.34.34 0 0 0 .29 0l2.019-1.167c.083-.048.078-.121 0-.169l-2.009-1.167a.32.32 0 0 0-.291 0zM174.522 165.944c-.082.048-.078.121 0 .169l2.009 1.167a.32.32 0 0 0 .291 0l2.019-1.167c.078-.043.078-.121 0-.169l-2.009-1.167a.34.34 0 0 0-.291 0zM170.983 167.986c-.078.044-.078.121 0 .17l2.009 1.167a.34.34 0 0 0 .291 0l2.024-1.167c.078-.044.073-.121-.005-.165l-2.009-1.167a.33.33 0 0 0-.286-.005zM180.083 166.907c-.082.048-.082.121 0 .169l2.005 1.167a.32.32 0 0 0 .291 0l3.593-2.077c.082-.049.077-.121 0-.17l-2.005-1.167a.31.31 0 0 0-.291 0zM176.49 168.979c-.078.043-.083.121 0 .169l2.004 1.167a.34.34 0 0 0 .291 0l2.019-1.167c.082-.048.078-.121 0-.169l-2.005-1.167a.3.3 0 0 0-.29 0zM172.886 171.066c-.077.044-.082.121 0 .17l2.005 1.167a.34.34 0 0 0 .29 0l2.024-1.167c.078-.044.073-.121-.004-.165l-2.005-1.167a.32.32 0 0 0-.286-.005zM169.282 173.149c-.078.043-.083.121 0 .169l2.004 1.167a.34.34 0 0 0 .291 0l2.024-1.167c.077-.043.077-.121 0-.169l-2.005-1.167a.32.32 0 0 0-.29 0zM165.659 175.236c-.078.043-.083.121 0 .169l2.004 1.167a.34.34 0 0 0 .291 0l2.024-1.167c.077-.043.077-.121 0-.169l-2.005-1.167a.32.32 0 0 0-.29 0zM162.057 177.318c-.082.048-.082.121 0 .169l2.005 1.167a.32.32 0 0 0 .29 0l2.019-1.167c.078-.043.078-.121 0-.169l-2.004-1.167a.32.32 0 0 0-.291 0zM158.443 179.4c-.083.048-.083.121 0 .169l2.004 1.167a.32.32 0 0 0 .291 0l2.019-1.167c.078-.043.078-.121 0-.169l-2.005-1.167a.32.32 0 0 0-.29 0zM154.839 181.488c-.082.048-.082.121 0 .169l2.005 1.167a.32.32 0 0 0 .29 0l2.02-1.167c.082-.048.077-.121 0-.169l-2.005-1.168a.31.31 0 0 0-.291 0zM167.456 170.025c-.082.048-.077.121 0 .169l2.01 1.167a.32.32 0 0 0 .291 0l2.019-1.167c.082-.048.077-.121 0-.169l-2.01-1.167a.32.32 0 0 0-.29 0zM163.913 172.069c-.078.043-.078.121 0 .169l2.009 1.167a.34.34 0 0 0 .291 0l2.024-1.167c.077-.043.077-.121 0-.169l-2.01-1.167a.34.34 0 0 0-.29 0zM160.384 174.107c-.077.043-.077.121 0 .169l2.01 1.167a.34.34 0 0 0 .29 0l2.02-1.167c.082-.048.077-.121 0-.169l-2.01-1.167a.32.32 0 0 0-.29 0zM156.844 176.147c-.082.048-.077.121 0 .169l2.01 1.167a.32.32 0 0 0 .29 0l2.019-1.167c.078-.043.078-.121 0-.169l-2.009-1.162a.34.34 0 0 0-.291 0zM153.311 178.19c-.077.043-.077.121 0 .169l2.01 1.167a.34.34 0 0 0 .29 0l2.024-1.167c.078-.044.073-.121-.005-.165l-2.009-1.167a.33.33 0 0 0-.286-.004zM149.775 180.232c-.083.048-.078.121 0 .169l2.009 1.167a.32.32 0 0 0 .291 0l2.019-1.167c.082-.048.078-.121 0-.169l-2.009-1.167a.32.32 0 0 0-.291 0zM146.232 182.275c-.078.043-.078.121 0 .169l2.01 1.167a.34.34 0 0 0 .29 0l2.024-1.167c.078-.043.078-.121 0-.169l-2.009-1.167a.34.34 0 0 0-.291 0zM149.846 184.368c-.077.043-.082.121 0 .169l2.005 1.167a.34.34 0 0 0 .29 0l3.598-2.077c.083-.049.078-.121 0-.17l-2.005-1.167a.31.31 0 0 0-.29 0zM182.082 169.923c-.077.044-.082.121 0 .17l2.005 1.167a.33.33 0 0 0 .291 0l5.196-2.998c.082-.048.082-.121 0-.169l-2.005-1.167a.31.31 0 0 0-.291 0zM178.191 172.169c-.078.043-.083.121 0 .169l2.005 1.167a.32.32 0 0 0 .29 0l2.024-1.167c.078-.043.078-.116-.005-.164l-2.004-1.167a.31.31 0 0 0-.286-.005zM174.657 174.214c-.082.048-.082.121 0 .17l2.005 1.167a.31.31 0 0 0 .291 0l2.019-1.167c.082-.049.082-.122 0-.17l-2.005-1.167a.31.31 0 0 0-.29 0zM171.118 176.251c-.078.044-.083.121 0 .17l2.004 1.167a.33.33 0 0 0 .291 0l2.024-1.167c.077-.044.082-.121 0-.17l-2.005-1.167a.33.33 0 0 0-.29 0zM167.584 178.296c-.077.044-.082.121 0 .17l2.005 1.167a.33.33 0 0 0 .291 0l2.019-1.167c.082-.049.082-.121 0-.17l-2.005-1.167a.31.31 0 0 0-.29 0zM164.048 180.334c-.082.049-.082.121 0 .17l2.005 1.167a.31.31 0 0 0 .29 0l2.02-1.167c.077-.044.082-.121 0-.17l-2.005-1.167a.33.33 0 0 0-.291 0zM160.51 182.378c-.077.043-.082.121 0 .169l2.005 1.167a.32.32 0 0 0 .29 0l2.024-1.167c.078-.043.078-.116-.004-.164l-2.005-1.167a.31.31 0 0 0-.286-.005zM153.445 186.46c-.078.044-.083.121 0 .17l2.004 1.167a.33.33 0 0 0 .291 0l5.632-3.249c.082-.049.082-.121 0-.17l-2.005-1.167a.31.31 0 0 0-.291 0zM185.556 171.937c-.077.044-.082.121 0 .17l2.005 1.167a.33.33 0 0 0 .29 0l5.196-2.998c.082-.048.082-.121 0-.169l-2.005-1.167a.3.3 0 0 0-.29 0zM186.283 174.176l-19.849 11.461a.31.31 0 0 1-.295 0l-2-1.167c-.087-.043-.083-.125 0-.169l19.849-11.462a.32.32 0 0 1 .295 0l2 1.167c.087.053.077.126 0 .17"/><path fill="#00344A" d="m150.556 182.8-2.024 1.167a.34.34 0 0 1-.29 0l-2.015-1.167c-.034-.029-.053-.053-.053-.082v-.364a.1.1 0 0 0 .053.083l2.015 1.172a.34.34 0 0 0 .29 0l2.024-1.172c.044-.02.063-.053.063-.083v.354q.001.057-.063.092M149.769 180.751c-.034-.019-.053-.043-.053-.082v-.354q.001.041.053.083l2.014 1.167c.083.043.209.053.291 0l2.024-1.167a.1.1 0 0 0 .053-.083v.364c0 .029-.019.053-.053.082l-2.024 1.167a.34.34 0 0 1-.291 0zM156.848 176.668c-.043-.019-.063-.053-.063-.082v-.363q0 .05.063.092l2.005 1.167a.34.34 0 0 0 .29 0l2.024-1.167c.034-.02.054-.054.054-.083l.009.354c0 .034-.029.063-.063.092l-2.024 1.167a.34.34 0 0 1-.29 0zM164.347 178.649l2.015-1.167c.043-.02.063-.054.063-.083v.354q0 .05-.063.092l-2.015 1.167a.34.34 0 0 1-.29 0l-2.005-1.167c-.043-.029-.063-.053-.063-.092v-.354q0 .042.063.083l2.005 1.167a.31.31 0 0 0 .29 0M164.464 186.736l.009.344c0 .034-.029.063-.063.082l-5.2 3.008a.34.34 0 0 1-.291 0l-2.004-1.167c-.044-.03-.063-.054-.063-.083v-.363c0 .029.019.063.063.082l2.004 1.167c.083.054.208.044.291 0l5.2-2.997c.025-.029.054-.044.054-.073M163.909 172.591q-.053-.027-.054-.082v-.354c0 .029.02.053.054.083l2.014 1.167a.34.34 0 0 0 .291 0l2.024-1.167c.043-.03.063-.054.063-.092v.363c0 .029-.02.063-.063.082l-2.024 1.172a.34.34 0 0 1-.291 0zM153.306 178.722c-.043-.029-.063-.053-.063-.092v-.354c0 .029.02.063.063.083l2.005 1.167a.34.34 0 0 0 .29 0l2.034-1.167a.1.1 0 0 0 .053-.083v.364c0 .029-.019.053-.053.082l-2.024 1.167a.37.37 0 0 1-.3 0zM160.514 182.901c-.043-.02-.063-.054-.063-.083v-.353c0 .029.02.053.053.082l2.015 1.167a.34.34 0 0 0 .29 0l2.024-1.172c.034-.019.054-.043.054-.082v.363c0 .029-.02.053-.054.082l-2.024 1.167c-.082.044-.208.054-.29 0zM160.328 174.548l-.01-.354c0 .029.029.054.063.083l2.015 1.167a.34.34 0 0 0 .29 0l2.015-1.167c.043-.029.063-.054.063-.083v.354q0 .05-.063.092l-2.015 1.167a.34.34 0 0 1-.29 0l-2.015-1.172c-.034-.024-.053-.058-.053-.087M157.13 182.818l2.014-1.167c.044-.029.063-.054.063-.083v.354q.001.05-.063.092l-2.014 1.167a.34.34 0 0 1-.291 0l-2.005-1.167c-.043-.029-.063-.053-.063-.092v-.354c0 .029.02.054.063.083l2.005 1.167c.073.043.199.043.291 0M155.737 183.986l-3.602 2.077a.34.34 0 0 1-.291 0l-2.005-1.167c-.043-.029-.063-.053-.063-.082v-.364c0 .029.02.063.063.083l2.005 1.167a.34.34 0 0 0 .291 0l3.602-2.078c.034-.029.054-.053.054-.082v.354q-.001.048-.054.092M160.451 181.095l-2.004-1.167c-.044-.029-.063-.053-.063-.092v-.354c0 .029.019.054.063.083l2.004 1.167c.073.043.199.043.291 0l2.014-1.167c.044-.02.063-.054.063-.083v.354q.002.05-.063.092l-2.014 1.167a.34.34 0 0 1-.291 0M161.362 184.906l-5.632 3.249c-.072.043-.198.043-.29 0l-2.005-1.172c-.034-.02-.053-.044-.053-.082v-.354c0 .029.019.053.053.082l2.005 1.167c.092.044.218.044.29 0l5.632-3.249c.044-.029.063-.053.063-.082v.353c0 .025-.015.058-.063.088M166.061 182.025l-2.005-1.167q-.064-.041-.063-.083v-.363c0 .029.02.063.053.082l2.015 1.167a.28.28 0 0 0 .29 0l2.015-1.167c.043-.019.063-.053.063-.082v.363q0 .042-.063.083l-2.015 1.167a.34.34 0 0 1-.29 0M170.986 168.509c-.044-.019-.063-.053-.063-.082v-.364q-.001.05.063.092l2.005 1.167a.34.34 0 0 0 .29 0l2.024-1.167c.044-.029.063-.053.063-.082v.354q-.001.052-.053.082l-2.034 1.172a.34.34 0 0 1-.29 0zM176.658 175.903l-2.005-1.167c-.034-.03-.063-.054-.063-.083v-.363c0 .029.029.063.063.082l2.005 1.167a.28.28 0 0 0 .29 0l2.024-1.167c.034-.019.063-.053.063-.082v.354q.002.048-.063.092l-2.024 1.167a.34.34 0 0 1-.29 0M169.588 179.986l-2.005-1.167c-.043-.03-.062-.054-.062-.083v-.363q-.001.052.062.082l2.005 1.172a.34.34 0 0 0 .291 0l2.024-1.172c.029-.019.053-.043.053-.072l.01.353c0 .029-.029.053-.063.083l-2.024 1.167a.34.34 0 0 1-.291 0M171.563 174.485l2.024-1.172c.044-.02.063-.053.063-.083v.354q.002.05-.063.092l-2.024 1.167a.34.34 0 0 1-.29 0l-2.005-1.167c-.034-.019-.063-.053-.063-.082v-.364q-.002.05.063.092l2.005 1.167a.36.36 0 0 0 .29-.004M167.951 176.572l2.024-1.172c.044-.02.063-.054.063-.083v.354q.001.05-.063.092l-2.024 1.167a.34.34 0 0 1-.291 0l-2.004-1.167c-.034-.029-.063-.053-.063-.082v-.364q-.001.05.063.092l2.004 1.167a.36.36 0 0 0 .291-.004M173.12 177.943l-2.004-1.167c-.034-.029-.054-.054-.054-.083l-.009-.363c0 .034.029.063.063.092l2.004 1.167a.34.34 0 0 0 .291 0l2.024-1.172c.044-.019.063-.053.063-.082v.353q-.001.05-.053.092l-2.034 1.167a.32.32 0 0 1-.291-.004M174.529 166.466c-.044-.029-.063-.053-.063-.082v-.364a.1.1 0 0 0 .053.083l2.014 1.172a.34.34 0 0 0 .291 0l2.024-1.167c.034-.029.053-.054.053-.092v.363a.1.1 0 0 1-.053.082l-2.024 1.167c-.082.053-.208.044-.291 0zM167.452 170.549c-.034-.019-.054-.053-.054-.082v-.363q.001.048.054.092l2.014 1.167a.34.34 0 0 0 .291 0l2.024-1.167c.034-.03.053-.054.053-.083v.354a.1.1 0 0 1-.053.082l-2.024 1.167c-.083.053-.209.044-.291 0zM175.178 172.399l2.024-1.172c.029-.02.053-.034.053-.063l.01.344c0 .029-.02.053-.063.082l-2.024 1.167a.34.34 0 0 1-.291 0l-2.005-1.167c-.034-.019-.063-.053-.063-.082v-.363q0 .048.063.092l2.005 1.167a.33.33 0 0 0 .291-.005M178.004 164.346l-.01-.364c0 .034.029.063.063.083l2.015 1.172a.34.34 0 0 0 .29 0l2.014-1.167c.044-.03.063-.054.063-.092v.363c0 .029-.019.063-.063.082l-2.014 1.167a.34.34 0 0 1-.29 0l-2.015-1.167c-.039-.019-.053-.048-.053-.077M178.497 170.664l-2.004-1.167c-.034-.019-.063-.053-.063-.082v-.354q-.002.041.063.083l2.004 1.167a.34.34 0 0 0 .291 0l2.024-1.167c.034-.029.053-.054.053-.092l.01.363c0 .029-.029.063-.063.082l-2.024 1.167c-.073.049-.208.049-.291 0M186.281 174.18c.044-.029.063-.053.063-.092v.363c0 .029-.019.063-.063.082L166.437 186a.34.34 0 0 1-.29 0l-2.015-1.167c-.034-.029-.053-.053-.053-.092v-.353c0 .029.019.062.053.082l2.005 1.167a.33.33 0 0 0 .3 0zM180.195 173.861l-2.005-1.167c-.044-.03-.063-.054-.063-.083v-.363a.1.1 0 0 0 .053.082l2.015 1.167c.082.054.208.044.29 0l2.024-1.167c.034-.029.054-.053.054-.082v.363q-.002.043-.054.073l-2.024 1.172a.3.3 0 0 1-.29.005M182.382 168.237l3.593-2.078c.034-.019.063-.053.063-.082v.363c0 .029-.02.054-.063.083l-3.593 2.077c-.092.044-.218.044-.291 0l-2.005-1.167c-.043-.029-.063-.053-.063-.092v-.354c0 .03.02.063.054.083l2.014 1.167a.31.31 0 0 0 .291 0M184.379 171.256l5.191-2.998c.043-.029.063-.053.063-.082l.009.353c0 .034-.029.063-.063.092l-5.2 2.998a.34.34 0 0 1-.291 0l-2.005-1.167c-.033-.029-.062-.054-.062-.092v-.354c0 .029.029.053.062.083l2.005 1.167a.31.31 0 0 0 .291 0M193.105 170.189v.364c0 .029-.019.053-.063.082l-5.191 2.997a.34.34 0 0 1-.29 0l-2.005-1.167c-.043-.029-.063-.053-.063-.082v-.363q0 .05.063.092l2.005 1.167a.34.34 0 0 0 .29 0l5.191-3.007c.044-.02.063-.058.063-.083"/><path fill="#4D5C75" d="M156.912 188.48c-.078.044-.083.121 0 .17l2.004 1.167a.33.33 0 0 0 .291 0l5.2-3.003c.078-.043.083-.121 0-.169l-2.004-1.167a.32.32 0 0 0-.291 0z"/><path fill="#DEDFFB" d="M178.697 160.688c.746-.431 1.962-.431 2.702 0l15.496 9.007c.741.431.736 1.133-.01 1.564l-36.298 20.963c-.746.431-1.961.431-2.702 0l-15.495-9.007c-.741-.431-.736-1.133.009-1.564zm-20.202 31.18c.412.238 1.075.238 1.487 0l36.303-20.957c.411-.238.416-.625.005-.862l-15.496-9.007c-.411-.237-1.075-.237-1.486 0L143.005 182c-.412.237-.417.624-.005.862z"/><path fill="#B0B8CF" d="M188.797 185.681a.93.93 0 0 1-.305.354l-9.215 5.346a1.54 1.54 0 0 1-1.617 0l-5.865-3.375a.8.8 0 0 1-.329-.354c-.164-.353-.072-.818.329-1.031l9.215-5.346a1.5 1.5 0 0 1 1.594 0l5.883 3.375c.383.208.475.678.31 1.031"/><path fill="#E9E7FC" d="M188.797 185.682a.9.9 0 0 1-.306.353l-9.214 5.346a1.55 1.55 0 0 1-1.618 0l-5.864-3.375a.8.8 0 0 1-.329-.353c.048-.165.164-.281.329-.373l9.215-5.346a1.5 1.5 0 0 1 1.593 0l5.884 3.375a.6.6 0 0 1 .31.373"/><path fill="#101C32" d="M143.775 178.781c.078-.049.189-.039.31.029.257.15.451.508.451.799l35.741-20.667c0-.291-.194-.654-.45-.799-.121-.073-.238-.078-.315-.029z"/><path fill="#4D5C75" d="M144.092 178.81c-.252-.146-.45-.015-.45.276l.905.523c-.005-.291-.203-.654-.455-.799"/><path fill="#DBA660" d="m145.464 157.669.039 17.069-6.983 4.029-.034-17.069z"/><path fill="#F45170" d="m156.193 151.413.038 17.065-6.982 4.033-.034-17.069z"/><path fill="#F45170" d="m156.357 144.691.063 23.675-7.171 4.145-.034-23.67z"/><path fill="#B28AFD" d="m167.301 144.934.034 17.064-6.983 4.034-.034-17.07z"/><path fill="#E9E7FC" d="m167.471 134.624.078 27.63-29.287 16.91-.077-27.631a45084 45084 0 0 1 29.286-16.909m-25.679 18.168-.01-3.007-3.297 1.903.072 26.963 3.303-1.908-.01-3.559-3.297 1.903v-.339l3.297-1.903-.009-3.007-3.298 1.903v-.335l3.298-1.903-.01-3.012-3.298 1.904v-.335l3.298-1.903-.01-3.007-3.297 1.903v-.339l3.297-1.903-.01-3.007-3.297 1.903v-.339l3.297-1.903-.009-3.007-3.298 1.903v-.339l3.298-1.903-.01-3.007-3.298 1.903v-.339zm3.709 21.849-.009-3.559-3.346 1.932.009 3.559zm7.274-4.198-.01-3.559-3.346 1.932.009 3.559zm3.641-2.102-.01-3.559-3.346 1.932.01 3.559zm7.278-4.203-.01-3.559-3.346 1.932.01 3.559zm-14.551 8.402-.01-3.56-3.346 1.933.01 3.559zm10.91-6.3-.01-3.559-3.346 1.932.01 3.559zm7.2-4.155-.01-3.559-3.268 1.888.01 3.559zm-21.776 5.322-.01-3.012-3.346 1.932.01 3.012zm7.278-4.203-.01-3.012-3.346 1.932.01 3.012zm-3.636 2.101-.01-3.012-3.346 1.932.01 3.012zm14.556-8.406-.01-3.012-3.346 1.932.01 3.012zm-3.642 2.106-.009-3.012-3.347 1.932.01 3.012zm-3.636 2.097-.01-3.012-3.346 1.932.01 3.012zm-10.93 2.959-.009-3.007-3.346 1.932.009 3.007zm-.033-13.375-.01-3.007-3.346 1.932.01 3.007zm18.192-10.503-.009-3.007-3.346 1.932.009 3.007zm.039 13.375-.01-3.008-3.346 1.933.01 3.007zm-14.59-4.974-.01-3.007-3.346 1.933.01 3.007zm3.67 11.278-.009-3.007-3.346 1.932.009 3.007zm7.279-4.203-.01-3.007-3.346 1.932.009 3.007zm-3.676-11.273-.009-3.007-3.347 1.932.01 3.007zm.039 13.375-.01-3.007-3.346 1.932.01 3.007zm3.598-15.476-.01-3.007-3.346 1.932.01 3.007zm-7.278 4.203-.01-3.007-3.346 1.932.01 3.007zm-3.598 15.471-.01-3.007-3.346 1.932.01 3.007zm-3.666-7.927-.009-3.007-3.346 1.932.009 3.007zm.01 3.341-.01-3.007-3.346 1.932.01 3.007zm7.273-4.198-.01-3.007-3.346 1.932.01 3.007zm3.642-2.102-.01-3.007-3.346 1.932.01 3.008zm-.01-3.346-.01-3.007-3.346 1.932.01 3.007zm7.278-4.198-.01-3.007-3.346 1.932.01 3.007zm.01 3.341-.01-3.007-3.346 1.932.01 3.007zm-10.93 2.959-.009-3.007-3.346 1.932.009 3.007zm7.288-.857-.01-3.007-3.346 1.932.01 3.007zm-10.924 2.959-.01-3.008-3.346 1.933.01 3.007zm.01 3.341-.01-3.007-3.346 1.932.009 3.007zm10.904-9.641-.009-3.007-3.346 1.932.009 3.007zm-14.507 25.112-.01-3.007-3.346 1.932.01 3.007zm-.029-10.024-.01-3.007-3.346 1.932.01 3.008zm3.67 7.922-.009-3.007-3.346 1.932.009 3.008zm14.556-8.401-.009-3.007-3.346 1.932.009 3.007zm-3.67-7.922-.01-3.007-3.346 1.932.01 3.007zm.029 10.024-.01-3.008-3.346 1.933.01 3.007zm3.612-12.13-.009-3.008-3.346 1.933.009 3.007zm-10.89 16.328-.01-3.007-3.346 1.932.01 3.007zm-.029-10.024-.01-3.007-3.346 1.932.01 3.007zm-3.637 2.102-.009-3.007-3.347 1.932.01 3.007zm7.278-4.203-.009-3.007-3.346 1.932.009 3.007zm.029 10.023-.009-3.007-3.346 1.932.009 3.007zm10.823-9.592-.01-3.012-3.268 1.888.009 3.012zm-.01-3.342-.009-3.007-3.269 1.889.01 3.007zm-.034-13.374-.009-3.007-3.269 1.888.01 3.007zm.02 6.687-.01-3.007-3.269 1.889.01 3.007zm-.01-3.346-.01-3.007-3.268 1.889.009 3.007zm.019 6.687-.009-3.007-3.269 1.889.01 3.007zm.025 10.029-.01-3.007-3.269 1.888.01 3.007z"/><path fill="#986FF9" d="M174.824 131.414c1.288-.741 2.571-.92 3.554-.363l-3.535 6.125-3.559-2.029c.973-1.685 2.257-2.992 3.54-3.733"/><path fill="#78E75A" d="M178.381 131.056c1.966 1.123 1.975 4.765.024 8.149-.978 1.7-2.262 3.003-3.545 3.743l-.014-5.762z"/><path fill="#FEBC1F" d="m171.28 135.152 3.559 2.029.015 5.763c-1.283.741-2.567.92-3.555.358-1.956-1.119-1.966-4.775-.019-8.15"/><path fill="#F45170" d="M174.824 145.763c1.288-.741 2.571-.921 3.554-.364l-3.535 6.126-3.559-2.029c.973-1.69 2.257-2.993 3.54-3.733"/><path fill="#FFD06C" d="M178.381 145.399c1.966 1.124 1.975 4.765.024 8.15-.978 1.7-2.262 3.002-3.545 3.743l-.014-5.762z"/><path fill="#F45170" d="m171.28 149.495 3.559 2.029.015 5.762c-1.283.741-2.567.92-3.555.359-1.956-1.119-1.966-4.77-.019-8.15"/><path fill="#4C5C75" d="m134.998 208.509-31.359-18.101L87 200.073a.6.6 0 0 1-.61 0l-28.913-16.696a.61.61 0 0 1-.223-.828.61.61 0 0 1 .828-.223l28.608 16.517 16.639-9.665a.6.6 0 0 1 .61 0l31.359 18.101 13.229-7.68a.605.605 0 1 1 .61 1.046l-13.534 7.859a.59.59 0 0 1-.605.005"/></svg>