<?xml version="1.0"?>
<svg xmlns="http://www.w3.org/2000/svg" xmlns:xlink="http://www.w3.org/1999/xlink" xmlns:svgjs="http://svgjs.com/svgjs" version="1.1" width="512" height="512" x="0" y="0" viewBox="0 0 512 512" style="enable-background:new 0 0 512 512" xml:space="preserve" class=""><g><linearGradient xmlns="http://www.w3.org/2000/svg" id="linear-gradient" gradientUnits="userSpaceOnUse" x1="256" x2="256" y1="488" y2="24"><stop stop-opacity="1" stop-color="#1DBBBA" offset="0"/><stop stop-opacity="1" stop-color="#64ffe8" offset="1"/><stop stop-opacity="1" stop-color="#64ffe8" offset="1"/></linearGradient><path xmlns="http://www.w3.org/2000/svg" d="m472 24h-432a24.028 24.028 0 0 0 -24 24v416a24.028 24.028 0 0 0 24 24h432a24.028 24.028 0 0 0 24-24v-416a24.028 24.028 0 0 0 -24-24zm-432 16h432a8.009 8.009 0 0 1 8 8v40h-448v-40a8.009 8.009 0 0 1 8-8zm432 432h-432a8.009 8.009 0 0 1 -8-8v-360h448v360a8.009 8.009 0 0 1 -8 8zm-360-408a8 8 0 1 1 8 8 8 8 0 0 1 -8-8zm-32 0a8 8 0 1 1 8 8 8 8 0 0 1 -8-8zm-32 0a8 8 0 1 1 8 8 8 8 0 0 1 -8-8zm160 80a8 8 0 0 1 8-8h80a8 8 0 0 1 0 16h-80a8 8 0 0 1 -8-8zm144 24h-192a8 8 0 0 0 -8 8v32a8 8 0 0 0 8 8h192a8 8 0 0 0 8-8v-32a8 8 0 0 0 -8-8zm-8 32h-176v-16h176zm8 32h-192a8 8 0 0 0 -8 8v32a8 8 0 0 0 8 8h192a8 8 0 0 0 8-8v-32a8 8 0 0 0 -8-8zm-8 32h-176v-16h176zm8 32h-192a8 8 0 0 0 -8 8v64a8 8 0 0 0 8 8h192a8 8 0 0 0 8-8v-64a8 8 0 0 0 -8-8zm-8 64h-176v-48h176zm-72 32h-32a24 24 0 0 0 0 48h32a24 24 0 0 0 0-48zm0 32h-32a8 8 0 0 1 0-16h32a8 8 0 0 1 0 16z" fill="url(#linear-gradient)" data-original="url(#linear-gradient)" style=""/></g></svg>
