<?xml version="1.0"?>
<svg xmlns="http://www.w3.org/2000/svg" xmlns:xlink="http://www.w3.org/1999/xlink" xmlns:svgjs="http://svgjs.com/svgjs" version="1.1" width="512" height="512" x="0" y="0" viewBox="0 0 512 512" style="enable-background:new 0 0 512 512" xml:space="preserve" class=""><g><g xmlns="http://www.w3.org/2000/svg"><path d="m474 85h-35v-35c0-4.143-3.358-7.5-7.5-7.5h-35v-35c0-4.143-3.358-7.5-7.5-7.5h-311c-4.142 0-7.5 3.357-7.5 7.5v336.5h-32.5c-4.142 0-7.5 3.357-7.5 7.5v18c0 31.706 25.794 57.5 57.5 57.5h25v35c0 4.143 3.358 7.5 7.5 7.5h35v35c0 4.143 3.358 7.5 7.5 7.5h150.5c4.142 0 7.5-3.357 7.5-7.5s-3.358-7.5-7.5-7.5h-143v-27.5h261c4.142 0 7.5-3.357 7.5-7.5v-118c0-4.143-3.358-7.5-7.5-7.5s-7.5 3.357-7.5 7.5v110.5h-296v-27.5h261c4.142 0 7.5-3.357 7.5-7.5v-362h27.5v252.5c0 4.143 3.358 7.5 7.5 7.5s7.5-3.357 7.5-7.5v-210h27.5v397h-119c-4.142 0-7.5 3.357-7.5 7.5s3.358 7.5 7.5 7.5h126.5c4.142 0 7.5-3.357 7.5-7.5v-412c0-4.143-3.358-7.5-7.5-7.5zm-92.5 327h-41.5c-23.435 0-42.5-19.065-42.5-42.5v-18c0-4.143-3.358-7.5-7.5-7.5h-52c-4.142 0-7.5 3.357-7.5 7.5s3.358 7.5 7.5 7.5h44.5v10.5c0 16.821 7.261 31.976 18.811 42.5h-213.311c-23.435 0-42.5-19.065-42.5-42.5v-10.5h157.5c4.142 0 7.5-3.357 7.5-7.5s-3.358-7.5-7.5-7.5h-117.5v-329h296z" fill="#1DBBBA" data-original="#000000" style="" class=""/><path d="m113 160h96c4.142 0 7.5-3.357 7.5-7.5v-96c0-4.143-3.358-7.5-7.5-7.5h-96c-4.142 0-7.5 3.357-7.5 7.5v96c0 4.143 3.358 7.5 7.5 7.5zm7.5-96h81v81h-81z" fill="#1DBBBA" data-original="#000000" style="" class=""/><path d="m354 132h-110c-4.142 0-7.5 3.357-7.5 7.5s3.358 7.5 7.5 7.5h110c4.142 0 7.5-3.357 7.5-7.5s-3.358-7.5-7.5-7.5z" fill="#1DBBBA" data-original="#000000" style="" class=""/><path d="m170.5 207.5c0 4.143 3.358 7.5 7.5 7.5h111c4.142 0 7.5-3.357 7.5-7.5s-3.358-7.5-7.5-7.5h-111c-4.142 0-7.5 3.357-7.5 7.5z" fill="#1DBBBA" data-original="#000000" style="" class=""/><path d="m354 97h-110c-4.142 0-7.5 3.357-7.5 7.5s3.358 7.5 7.5 7.5h110c4.142 0 7.5-3.357 7.5-7.5s-3.358-7.5-7.5-7.5z" fill="#1DBBBA" data-original="#000000" style="" class=""/><path d="m354 62h-110c-4.142 0-7.5 3.357-7.5 7.5s3.358 7.5 7.5 7.5h110c4.142 0 7.5-3.357 7.5-7.5s-3.358-7.5-7.5-7.5z" fill="#1DBBBA" data-original="#000000" style="" class=""/><path d="m354 289h-241c-4.142 0-7.5 3.357-7.5 7.5s3.358 7.5 7.5 7.5h241c4.142 0 7.5-3.357 7.5-7.5s-3.358-7.5-7.5-7.5z" fill="#1DBBBA" data-original="#000000" style="" class=""/><path d="m354 244h-131c-4.142 0-7.5 3.357-7.5 7.5s3.358 7.5 7.5 7.5h131c4.142 0 7.5-3.357 7.5-7.5s-3.358-7.5-7.5-7.5z" fill="#1DBBBA" data-original="#000000" style="" class=""/><path d="m112.5 259h75.5c4.142 0 7.5-3.357 7.5-7.5s-3.358-7.5-7.5-7.5h-75.5c-4.142 0-7.5 3.357-7.5 7.5s3.358 7.5 7.5 7.5z" fill="#1DBBBA" data-original="#000000" style="" class=""/></g></g></svg>
