<?xml version="1.0"?>
<svg xmlns="http://www.w3.org/2000/svg" xmlns:xlink="http://www.w3.org/1999/xlink" xmlns:svgjs="http://svgjs.com/svgjs" version="1.1" width="512" height="512" x="0" y="0" viewBox="0 0 512 512" style="enable-background:new 0 0 512 512" xml:space="preserve" class=""><g><linearGradient xmlns="http://www.w3.org/2000/svg" id="lg1"><stop stop-opacity="1" stop-color="#1DBBBA" offset="0"/><stop stop-opacity="1" stop-color="#64ffe8" offset="1"/></linearGradient><linearGradient xmlns="http://www.w3.org/2000/svg" xmlns:xlink="http://www.w3.org/1999/xlink" id="SVGID_1_" gradientTransform="matrix(8 0 0 -8 343 5085)" gradientUnits="userSpaceOnUse" x1="-44.244" x2="14.372" xlink:href="#lg1" y1="570.035" y2="627.502"/><linearGradient xmlns="http://www.w3.org/2000/svg" xmlns:xlink="http://www.w3.org/1999/xlink" id="SVGID_2_" gradientTransform="matrix(8 0 0 -8 343 5085)" gradientUnits="userSpaceOnUse" x1="-61.59" x2="-2.974" xlink:href="#lg1" y1="587.728" y2="645.195"/><linearGradient xmlns="http://www.w3.org/2000/svg" xmlns:xlink="http://www.w3.org/1999/xlink" id="SVGID_3_" gradientTransform="matrix(8 0 0 -8 343 5085)" gradientUnits="userSpaceOnUse" x1="-54.729" x2="3.887" xlink:href="#lg1" y1="580.729" y2="638.196"/><linearGradient xmlns="http://www.w3.org/2000/svg" xmlns:xlink="http://www.w3.org/1999/xlink" id="SVGID_4_" gradientTransform="matrix(8 0 0 -8 343 5085)" gradientUnits="userSpaceOnUse" x1="-58.11" x2=".506" xlink:href="#lg1" y1="584.178" y2="641.645"/><linearGradient xmlns="http://www.w3.org/2000/svg" xmlns:xlink="http://www.w3.org/1999/xlink" id="SVGID_5_" gradientTransform="matrix(8 0 0 -8 343 5085)" gradientUnits="userSpaceOnUse" x1="-48.799" x2="9.818" xlink:href="#lg1" y1="574.68" y2="632.147"/><linearGradient xmlns="http://www.w3.org/2000/svg" xmlns:xlink="http://www.w3.org/1999/xlink" id="SVGID_6_" gradientTransform="matrix(8 0 0 -8 343 5085)" gradientUnits="userSpaceOnUse" x1="-51.2" x2="7.416" xlink:href="#lg1" y1="577.13" y2="634.597"/><linearGradient xmlns="http://www.w3.org/2000/svg" xmlns:xlink="http://www.w3.org/1999/xlink" id="SVGID_7_" gradientTransform="matrix(8 0 0 -8 343 5085)" gradientUnits="userSpaceOnUse" x1="-54.092" x2="4.525" xlink:href="#lg1" y1="580.079" y2="637.546"/><linearGradient xmlns="http://www.w3.org/2000/svg" xmlns:xlink="http://www.w3.org/1999/xlink" id="SVGID_8_" gradientTransform="matrix(8 0 0 -8 343 5085)" gradientUnits="userSpaceOnUse" x1="-46.74" x2="11.876" xlink:href="#lg1" y1="572.581" y2="630.048"/><linearGradient xmlns="http://www.w3.org/2000/svg" xmlns:xlink="http://www.w3.org/1999/xlink" id="SVGID_9_" gradientTransform="matrix(8 0 0 -8 343 5085)" gradientUnits="userSpaceOnUse" x1="-41.888" x2="16.728" xlink:href="#lg1" y1="567.632" y2="625.099"/><linearGradient xmlns="http://www.w3.org/2000/svg" xmlns:xlink="http://www.w3.org/1999/xlink" id="SVGID_10_" gradientTransform="matrix(8 0 0 -8 343 5085)" gradientUnits="userSpaceOnUse" x1="-46.887" x2="11.729" xlink:href="#lg1" y1="572.731" y2="630.198"/><path xmlns="http://www.w3.org/2000/svg" d="m488 16h-360c-4.418 0-8 3.582-8 8v236.08l-94.32-19.92c-2.367-.503-4.834.085-6.72 1.6-1.86 1.541-2.943 3.825-2.96 6.24v160c.017 2.415 1.1 4.699 2.96 6.24 1.886 1.515 4.353 2.103 6.72 1.6l94.32-19.92v92.08c0 4.418 3.582 8 8 8h264c2.008.004 3.947-.737 5.44-2.08l96-88c1.623-1.543 2.547-3.681 2.56-5.92v-376c0-4.418-3.582-8-8-8zm-313.68 352.16-142.32 30v-140.32l142.32 30c2.367.503 4.834-.085 6.72-1.6 1.86-1.541 2.943-3.825 2.96-6.24v-54.96l123.52 102.96-123.52 102.96v-54.96c.009-.345.044-4.22-3.2-6.584-2.855-2.08-6.025-1.367-6.48-1.256zm225.68 101.68v-61.84h67.44zm-218.88-268c-3.395-2.828-8.439-2.368-11.267 1.027-1.2 1.441-1.856 3.258-1.853 5.133v62.16l-32-6.72v-231.44h344v360h-88c-4.418 0-8 3.582-8 8v80h-248v-87.44l32-6.72v62.16c-.088 3.135 1.697 6.039 4.533 7.375 2.842 1.339 6.226.86 8.587-1.215l144-120c3.402-2.819 3.875-7.862 1.056-11.264z" fill="url(#SVGID_1_)" data-original="url(#SVGID_1_)" style=""/><path xmlns="http://www.w3.org/2000/svg" d="m168 48h32v16h-32z" fill="url(#SVGID_2_)" data-original="url(#SVGID_2_)" style=""/><path xmlns="http://www.w3.org/2000/svg" d="m216 48h160v16h-160z" fill="url(#SVGID_3_)" data-original="url(#SVGID_3_)" style=""/><path xmlns="http://www.w3.org/2000/svg" d="m168 88h64v16h-64z" fill="url(#SVGID_4_)" data-original="url(#SVGID_4_)" style=""/><path xmlns="http://www.w3.org/2000/svg" d="m248 88h208v16h-208z" fill="url(#SVGID_5_)" data-original="url(#SVGID_5_)" style=""/><path xmlns="http://www.w3.org/2000/svg" d="m168 128h208v16h-208z" fill="url(#SVGID_6_)" data-original="url(#SVGID_6_)" style=""/><path xmlns="http://www.w3.org/2000/svg" d="m168 168h32v16h-32z" fill="url(#SVGID_7_)" data-original="url(#SVGID_7_)" style=""/><path xmlns="http://www.w3.org/2000/svg" d="m216 168h176v16h-176z" fill="url(#SVGID_8_)" data-original="url(#SVGID_8_)" style=""/><path xmlns="http://www.w3.org/2000/svg" d="m392 128h64v16h-64z" fill="url(#SVGID_9_)" data-original="url(#SVGID_9_)" style=""/><path xmlns="http://www.w3.org/2000/svg" d="m392 48h64v16h-64z" fill="url(#SVGID_10_)" data-original="url(#SVGID_10_)" style=""/></g></svg>
