<svg xmlns="http://www.w3.org/2000/svg" width="388" height="435" fill="none"><g clip-path="url(#a)"><path fill="#CDE0FF" d="M285.499 269.497c56.793-56.793 56.793-148.873 0-205.666-56.793-56.793-148.873-56.793-205.666 0-56.793 56.793-56.793 148.873 0 205.666 56.793 56.793 148.873 56.793 205.666 0Z"/><path fill="#fff" d="m27.555 360.889.313.133a2.33 2.33 0 0 0 2.56-.529l55.337-55.8a2.376 2.376 0 0 0 .512-2.559l-.148-.314-58.574 59.069ZM21.977 358.05a2.347 2.347 0 0 0 2.823-.364l58.16-58.656a2.309 2.309 0 0 0 .331-2.823L21.977 358.05ZM16.969 354.583l1.42 1.09 62.486-63.031c-.347-.479-.726-.941-1.09-1.404L16.97 354.583ZM41.21 364.191l1.305.099a2.308 2.308 0 0 0 1.783-.71l44.723-45.102a2.331 2.331 0 0 0 .693-1.783l-.099-1.304-48.404 48.8Z"/><path fill="url(#b)" d="M60.79 361.469a45.103 45.103 0 0 0 4.077-1.783c.238-.118.456-.274.644-.462l19.332-19.498c.194-.19.361-.407.495-.643a50.015 50.015 0 0 0 1.75-4.095l-26.299 26.481Z"/><path fill="#fff" d="m33.945 363.004.743.181a2.373 2.373 0 0 0 2.212-.643L87.913 311.1a2.382 2.382 0 0 0 .627-2.213c0-.247-.115-.495-.181-.742l-54.414 54.859ZM49.742 364.11l2.13-.298a2.324 2.324 0 0 0 1.304-.676l35.461-35.775c.35-.356.58-.812.66-1.305.116-.71.199-1.419.265-2.146l-39.82 40.2ZM8.688 345.919c.346.495.71.957 1.073 1.42l62.734-63.246c-.479-.364-.941-.727-1.437-1.073l-62.37 62.899ZM1.357 310.768a2.38 2.38 0 0 0-.66 1.271 32.453 32.453 0 0 0-.314 2.212l38.944-39.274-2.212.33c-.483.09-.927.326-1.27.677L1.356 310.768ZM5.766 297.811a2.1 2.1 0 0 0-.429.578 45.252 45.252 0 0 0-2.064 4.441L27.921 278a45.178 45.178 0 0 0-4.424 2.097 2.15 2.15 0 0 0-.578.445L5.766 297.811ZM.811 319.818a2.412 2.412 0 0 0-.693 1.75c0 .462 0 .924.082 1.37l47.877-48.206h-1.37a2.324 2.324 0 0 0-1.75.71L.81 319.818ZM3.848 333.766a2.377 2.377 0 0 0-.528 2.542l.148.347 58.293-58.772-.363-.132a2.355 2.355 0 0 0-2.526.544L3.848 333.766ZM6.643 339.477a2.295 2.295 0 0 0-.347 2.807l61.084-61.645a2.376 2.376 0 0 0-2.873.38L6.643 339.477ZM75.694 286.848l-63.147 63.691 1.255 1.255 63.163-63.708-1.271-1.238ZM1.836 327.311a2.316 2.316 0 0 0-.644 2.18c0 .264.115.511.182.776l53.967-54.48-.776-.182a2.332 2.332 0 0 0-2.179.661l-50.55 51.045Z"/><path fill="#FFE9E9" d="M284.172 323.235c7.176 0 12.993-5.817 12.993-12.992 0-7.176-5.817-12.993-12.993-12.993-7.175 0-12.992 5.817-12.992 12.993 0 7.175 5.817 12.992 12.992 12.992Z"/><path fill="#F0C27A" d="M242.088 102.922H54.563v280.966h187.525V102.922Z"/><path fill="#fff" d="M251.994 91.793H64.469v280.966h187.525V91.793Z"/><path fill="url(#c)" d="M151.113 274.352h-57.55v4.952h57.55v-4.952Z"/><path fill="#94A3C0" d="M232.188 301.738H93.563v4.953h138.625v-4.953ZM154.679 315.047H93.562V320h61.117v-4.953Z"/><path fill="url(#d)" d="M114.611 284.258H93.562v4.953h21.049v-4.953Z"/><path fill="url(#e)" d="M226.77 105.398H89.68a7.578 7.578 0 0 0-7.578 7.578v144.52a7.577 7.577 0 0 0 7.577 7.577H226.77a7.577 7.577 0 0 0 7.577-7.577v-144.52a7.577 7.577 0 0 0-7.577-7.578Z"/><path fill="#2A3157" d="M228.714 280.076c-1.106-9.905-4.837-41.272-8.502-47.793-4.375-7.759-45.383-24.978-45.383-24.978l-17.582 11.16-17.649-11.061s-40.909 17.45-45.234 25.242c-3.632 6.604-7.198 37.971-8.255 47.876l142.605-.446Z"/><path fill="#505E83" d="m148.049 212.721-8.452-5.299-16.542 34.718 13.785 14.891-8.337 12.58 11.952 10.731 11.903-.033-4.309-67.588ZM167.734 212.673l8.419-5.349 16.741 34.62-13.703 14.973 8.403 12.531-11.886 10.796-11.903.033 3.929-67.604Z"/><path fill="#DC6457" d="M174.184 172.34s-4.127 24.219 0 40.942a149.838 149.838 0 0 1-15.436 11.556l-2.905.677a170.956 170.956 0 0 1-16.179-11.837c2.641-16.806.149-41.157.149-41.157"/><path fill="#5D1111" d="M142.636 129.5s34.124-20.868 47.546-9.526c13.422 11.342-4.276 28.841-4.276 28.841s5.365 1.321 5.712 5.679c.347 4.359-8.337 11.755-8.337 11.755l-53.951.148s-9.097-16.063-8.106-23.773c.99-7.709 7.71.314 7.71.314s7.313-17.45 10.664-17.45c3.352 0 3.038 4.012 3.038 4.012Z"/><path fill="#EA5764" d="M181.299 167.651s2.774-3.55 6.323-1.288c3.55 2.262-.71 16.509-6.29 14.429s-.033-13.141-.033-13.141ZM132.204 167.783s-2.79-3.533-6.323-1.239c-3.533 2.295.793 16.427 6.356 14.396 5.564-2.03-.033-13.157-.033-13.157Z"/><path fill="#F98879" d="M157.134 128.395s18.011 1.783 23.294 14.626c5.283 12.844 3.863 37.971-1.37 45.351-5.233 7.379-12.217 13.108-21.957 13.735-9.757-.578-16.773-6.273-22.039-13.62-5.267-7.346-6.852-32.44-1.651-45.333 5.2-12.894 23.211-14.759 23.211-14.759h.512Z"/><path fill="#EA5764" d="M155.5 179.851a8.126 8.126 0 0 0 5.811-.132 4.57 4.57 0 0 1-2.014 2.278 2.838 2.838 0 0 1-3.797-2.146Z"/><path fill="#5D1111" d="M185.906 148.814s-18.391 12.778-31.797 9.807c-13.405-2.972-3.4-15.75-3.4-15.75l-16.047 12.448a13.047 13.047 0 0 1-4.656 14.759s-2.047-11.045-.726-19.101c1.321-8.056 5.993-15.436 9.344-18.16 3.351-2.724 15.717-9.443 23.756-8.453 8.04.991 24.483 5.052 23.526 24.45Z"/><path fill="#F9FBFC" d="m157.252 218.466-17.648-11.061-1.651.726 8.882 72.178h20.636l8.502-72.475-1.122-.479-17.599 11.111Z"/><path fill="#FF5776" d="m155.582 225.895-4.16 9.278 6.587 3.269 5.365-4.491-4.209-8.353-3.583.297Z"/><path fill="#FF5776" d="m150.953 280.308 15.271-.05-5.696-47.496-4.919 2.707-4.656 44.839Z"/><path fill="#FDB913" d="m101.846 334.362 1.997 6.174a.764.764 0 0 0 .727.512h6.488a.758.758 0 0 1 .446 1.387l-5.234 3.813a.764.764 0 0 0-.28.859l1.997 6.158a.76.76 0 0 1-1.172.858l-5.25-3.813a.738.738 0 0 0-.891 0l-5.25 3.813a.758.758 0 0 1-1.172-.858l1.997-6.158a.758.758 0 0 0-.264-.859l-5.2-3.863a.756.756 0 0 1-.295-.86.759.759 0 0 1 .74-.526h6.489a.764.764 0 0 0 .726-.512l1.998-6.175a.759.759 0 0 1 1.403.05ZM131.661 334.361l2.014 6.174a.727.727 0 0 0 .71.512h6.488a.78.78 0 0 1 .72.531.774.774 0 0 1-.258.856l-5.25 3.814a.755.755 0 0 0-.28.858l1.997 6.158a.76.76 0 0 1-1.172.858l-5.25-3.813a.738.738 0 0 0-.891 0l-5.25 3.813a.756.756 0 0 1-1.18-.382.753.753 0 0 1 .008-.476l1.998-6.158a.762.762 0 0 0-.265-.858l-5.25-3.864a.756.756 0 0 1-.295-.86.76.76 0 0 1 .741-.526h6.488a.744.744 0 0 0 .727-.512l1.997-6.174a.765.765 0 0 1 .745-.515.764.764 0 0 1 .708.564ZM161.427 334.361l2.014 6.174a.74.74 0 0 0 .726.512h6.472a.78.78 0 0 1 .72.531.778.778 0 0 1-.258.856l-5.25 3.814a.782.782 0 0 0-.274.385.787.787 0 0 0-.007.473l1.998 6.158a.759.759 0 0 1-1.172.858l-5.25-3.813a.74.74 0 0 0-.891 0l-5.25 3.813a.76.76 0 0 1-1.181-.382.76.76 0 0 1 .009-.476l2.014-6.158a.795.795 0 0 0-.281-.858l-5.25-3.864a.756.756 0 0 1-.295-.86.755.755 0 0 1 .741-.526h6.488a.74.74 0 0 0 .726-.512l1.998-6.174a.757.757 0 0 1 1.192-.35.767.767 0 0 1 .261.399ZM191.192 334.361l2.014 6.174a.742.742 0 0 0 .727.512h6.488a.782.782 0 0 1 .707.538.788.788 0 0 1 .003.466.783.783 0 0 1-.264.383l-5.25 3.814a.784.784 0 0 0-.281.858l2.014 6.158a.769.769 0 0 1-.289.852.768.768 0 0 1-.899.006l-5.168-3.813a.771.771 0 0 0-.908 0l-5.25 3.813a.756.756 0 0 1-1.18-.382.76.76 0 0 1 .008-.476l2.014-6.158a.787.787 0 0 0-.28-.858l-5.316-3.864a.752.752 0 0 1-.296-.86.761.761 0 0 1 .742-.526h6.488a.74.74 0 0 0 .726-.512l1.998-6.174a.757.757 0 0 1 1.452.049ZM220.972 334.361l1.998 6.174a.74.74 0 0 0 .726.512h6.488a.756.756 0 0 1 .741.527.762.762 0 0 1-.295.86l-5.25 3.814a.782.782 0 0 0-.274.385.787.787 0 0 0-.007.473l2.015 6.158a.755.755 0 0 1-.269.863.759.759 0 0 1-.904-.005l-5.233-3.813a.771.771 0 0 0-.908 0l-5.233 3.813a.775.775 0 0 1-1.189-.858l2.014-6.158a.795.795 0 0 0-.28-.858l-5.267-3.864a.774.774 0 0 1 .008-1.229.77.77 0 0 1 .438-.157h6.488a.74.74 0 0 0 .726-.512l2.014-6.174a.765.765 0 0 1 .745-.515.764.764 0 0 1 .708.564Z"/><path fill="#2A3157" d="M30.663 106.258h-9.905v9.905h9.905v-9.905ZM45.898 127.684h-5.101v5.101h5.101v-5.101ZM17.355 120.172h-3.714v3.714h3.714v-3.714Z"/><path fill="#fff" d="M373.288 165.426H247.969v77.972h125.319v-77.972Z"/><path stroke="#2A3157" stroke-miterlimit="10" stroke-width="1.12" d="M294.227 174.719h68.842v31.565"/><path stroke="#2A3157" stroke-miterlimit="10" stroke-width="2.25" d="M237.75 195.751v-21.032h20.273"/><path stroke="#2A3157" stroke-miterlimit="10" stroke-width="1.12" d="M265.452 252.692H237.75v-45.169"/><path stroke="#2A3157" stroke-miterlimit="10" stroke-width="2.25" d="M363.067 229.957v22.733h-65.59"/><path stroke="#2A3157" stroke-linecap="round" stroke-linejoin="round" stroke-width="1.12" d="M340.234 165.426h31.632M376.375 175.328v24.764"/><path fill="#FDB913" d="M299.33 200.703a8.354 8.354 0 1 0 .001-16.707 8.354 8.354 0 0 0-.001 16.707Z"/><path fill="url(#f)" d="M346.045 206.895h-86.639v3.087h86.639v-3.087Z"/><path fill="#94A3C0" d="M322.229 216.801h-38.995v3.087h38.995v-3.087ZM328.615 226.707h-51.756v3.087h51.756v-3.087Z"/><path stroke="#4361C4" stroke-linecap="round" stroke-linejoin="round" stroke-width=".85" d="M282.073 287.36a59.994 59.994 0 0 0-80.151-2.278"/><path fill="#A6D0F4" d="m289.921 364.816 6.798-10.722-14.292-9.061-6.798 10.722 14.292 9.061Z"/><path fill="#2A3157" d="M213.62 369.883a49.81 49.81 0 0 0 75.297-52.917 49.808 49.808 0 1 0-75.297 52.917Zm5.021-7.928a40.41 40.41 0 0 1-18.186-41.059 40.414 40.414 0 1 1 73.951 28.558 40.424 40.424 0 0 1-41.091 18.203 40.437 40.437 0 0 1-14.722-5.688l.048-.014ZM366.797 422.809l14.148-22.325-85.437-54.146-14.149 22.325 85.438 54.146Z"/><path fill="#FF5776" d="m372.156 426.216 14.149-22.325-5.355-3.394-14.149 22.325 5.355 3.394Z"/><path fill="#fff" d="M279.773 319.019c-4.867-21.783-26.471-35.496-48.254-30.629-21.783 4.867-35.496 26.472-30.629 48.254 4.868 21.783 26.472 35.496 48.255 30.629 21.783-4.867 35.495-26.471 30.628-48.254Z" opacity=".53"/><path fill="#FF5776" d="M292.215 101.056a19.182 19.182 0 0 1 32.748-13.565 19.182 19.182 0 0 1 5.619 13.565v.627h29.716v-.627a48.9 48.9 0 0 0-97.782 0v.627h29.716c.016-.214-.017-.33-.017-.627Z"/><path fill="#FDB913" d="m343.469 137.936-22.403-20.323a18.896 18.896 0 0 1-12.761 2.361v29.865c1.023 0 2.047.115 3.087.115a48.666 48.666 0 0 0 32.077-12.018Z"/><path fill="url(#g)" d="M292.247 101.684h-29.716a48.87 48.87 0 0 0 45.78 48.156v-29.864a19.172 19.172 0 0 1-16.064-18.292Z"/><path stroke="#2A3157" stroke-linecap="round" stroke-linejoin="round" stroke-width=".84" d="M255.703 101.354a55.7 55.7 0 0 1 55.685-55.702"/><path fill="#232839" d="M387.515 275.902h-74.257v5.564h74.257v-5.564Z"/><path fill="#C7D8F2" d="M364.551 303.754h-51.293v5.563h51.293v-5.563ZM339.722 289.82h-26.464v5.564h26.464v-5.564ZM351.079 289.82h-7.891v5.564h7.891v-5.564Z"/><path stroke="#2A3157" stroke-linecap="round" stroke-linejoin="round" stroke-width=".84" d="m310.781 106.637 45.796 45.185M7.531 224.23l9.906 9.906M16.805 225.469l9.905 9.889M25.477 225.469l9.905 9.889"/><path stroke="#fff" stroke-linecap="round" stroke-linejoin="round" stroke-width=".84" d="m328.102 335.617 9.905 9.906M337.398 336.855l9.889 9.906M346.047 336.855l9.905 9.906"/><path stroke="#2A3157" stroke-miterlimit="10" stroke-width="1.12" d="M165.966 50.934H61.992v12.381h103.974V50.934ZM179.581 68.27h-8.667v8.667h8.667v-8.668Z"/><path fill="#2A3157" d="M301.798 424.305h9.905v-9.906h-9.905v9.906ZM286.563 402.875h5.101v-5.101h-5.101v5.101ZM315.106 410.387h3.714v-3.715h-3.714v3.715Z"/><path stroke="#2A3157" stroke-miterlimit="10" stroke-width="1.12" d="M54.86 332.266v51.623h38.796M106.867 384.285h18.16"/><path fill="#fff" d="M219.127 399.142a1.65 1.65 0 1 0 0-3.302 1.65 1.65 0 0 0 0 3.302ZM232.877 399.142a1.65 1.65 0 1 0 0-3.302 1.65 1.65 0 0 0 0 3.302ZM246.651 399.142a1.65 1.65 0 1 0 0-3.302 1.65 1.65 0 0 0 0 3.302ZM260.401 399.142a1.65 1.65 0 1 0 0-3.302 1.65 1.65 0 0 0 0 3.302ZM219.127 410.962a1.65 1.65 0 1 0 0-3.302 1.65 1.65 0 0 0 0 3.302ZM232.877 410.962a1.65 1.65 0 1 0 0-3.302 1.65 1.65 0 0 0 0 3.302ZM246.651 410.962a1.65 1.65 0 1 0 0-3.302 1.65 1.65 0 0 0 0 3.302ZM260.401 410.962a1.65 1.65 0 1 0 0-3.302 1.65 1.65 0 0 0 0 3.302ZM219.127 422.798a1.65 1.65 0 1 0 0-3.302 1.65 1.65 0 0 0 0 3.302ZM232.877 422.798a1.65 1.65 0 1 0 0-3.302 1.65 1.65 0 0 0 0 3.302ZM246.651 422.798a1.65 1.65 0 1 0 0-3.302 1.65 1.65 0 0 0 0 3.302ZM260.401 422.798a1.65 1.65 0 1 0 0-3.302 1.65 1.65 0 0 0 0 3.302ZM219.127 434.638a1.65 1.65 0 1 0 0-3.302 1.65 1.65 0 0 0 0 3.302ZM232.877 434.638a1.65 1.65 0 1 0 0-3.302 1.65 1.65 0 0 0 0 3.302ZM246.651 434.638a1.65 1.65 0 1 0 0-3.302 1.65 1.65 0 0 0 0 3.302ZM260.401 434.638a1.65 1.65 0 1 0 0-3.302 1.65 1.65 0 0 0 0 3.302Z"/><path fill="#2A3157" d="M23.971 106.305h-8.8v8.799h8.8v-8.799ZM37.524 125.355h-4.54v4.54h4.54v-4.54ZM12.138 118.688H8.836v3.301h3.302v-3.301Z"/><path fill="#2A3157" d="M23.971 106.305h-8.8v8.799h8.8v-8.799ZM37.524 125.355h-4.54v4.54h4.54v-4.54ZM12.138 118.688H8.836v3.301h3.302v-3.301Z"/><path fill="url(#h)" d="M252.968 63.778a15.947 15.947 0 0 1-10.731-4.837 34.54 34.54 0 0 0 1.547-46.978 34.54 34.54 0 0 0-46.736-5.014 34.54 34.54 0 0 0-8.453 46.237 34.539 34.539 0 0 0 45.486 11.846 27.01 27.01 0 0 0 18.887-1.254Z"/><path stroke="#2A3157" stroke-miterlimit="10" stroke-width="1.12" d="M247.122 67.08a15.947 15.947 0 0 1-10.731-4.837 34.535 34.535 0 0 0 1.391-46.993 34.538 34.538 0 1 0-9.48 53.085 27.008 27.008 0 0 0 18.82-1.255Z"/><path fill="#fff" d="m212.852 50.52-14.446-14.445 5.762-5.779 8.684 8.684 19.546-19.546 5.762 5.761-25.308 25.325Z"/></g><defs><linearGradient id="b" x1="87.088" x2="56.397" y1="361.469" y2="354.593" gradientUnits="userSpaceOnUse"><stop offset=".014" stop-color="#1DBBBA"/><stop offset="1" stop-color="#65B3FB"/></linearGradient><linearGradient id="c" x1="151.113" x2="142.152" y1="279.304" y2="255.815" gradientUnits="userSpaceOnUse"><stop offset=".014" stop-color="#1DBBBA"/><stop offset="1" stop-color="#65B3FB"/></linearGradient><linearGradient id="d" x1="114.611" x2="101.169" y1="289.211" y2="276.323" gradientUnits="userSpaceOnUse"><stop offset=".014" stop-color="#1DBBBA"/><stop offset="1" stop-color="#65B3FB"/></linearGradient><linearGradient id="e" x1="234.347" x2="56.008" y1="265.073" y2="226.715" gradientUnits="userSpaceOnUse"><stop offset=".014" stop-color="#1DBBBA"/><stop offset="1" stop-color="#65B3FB"/></linearGradient><linearGradient id="f" x1="346.045" x2="343.461" y1="209.982" y2="193.617" gradientUnits="userSpaceOnUse"><stop offset=".014" stop-color="#1DBBBA"/><stop offset="1" stop-color="#65B3FB"/></linearGradient><linearGradient id="g" x1="308.311" x2="254.671" y1="149.84" y2="138.337" gradientUnits="userSpaceOnUse"><stop offset=".014" stop-color="#1DBBBA"/><stop offset="1" stop-color="#65B3FB"/></linearGradient><linearGradient id="h" x1="252.968" x2="171.66" y1="69.156" y2="50.625" gradientUnits="userSpaceOnUse"><stop offset=".014" stop-color="#1DBBBA"/><stop offset="1" stop-color="#65B3FB"/></linearGradient><clipPath id="a"><path fill="#fff" d="M0 0h388v435H0z"/></clipPath></defs></svg>