<svg xmlns="http://www.w3.org/2000/svg" width="497" height="497" fill="none"><path fill="url(#a)" d="M97.427 2.68c-.01.012-.01.012-.021.012-.01.011-.01.011-.01.023 0 0-.011 0-.011.011L80.282 112.507l-32.637 7.601h-.02c-.011 0-.021.011-.021.022-.01.012-.01.012-.01.023s0 .011-.011.011l-8.411 110.155L5.89 306.776v.034c0 .011 0 .011.01.011l.01.012s0 .011.01.011l97.788 88.566h.01l.011.011 91.286 31.727 55.067 65.957c.011.011.031.022.042.022 0 0 .01 0 .01-.011.01 0 .021 0 .021-.011l67.019-62.559 34.06 7.85c.01 0 .031 0 .041-.012l71.64-40.834.021-.022h.01c0-.012.011-.023 0-.034v-.023l-22.357-70.306 18.152-59.139v-.011c0-.011.01-.011 0-.023l-13.728-95.576c0-.012-.01-.012-.01-.023v-.011l-42.575-66.365-3.302-93.266v-.012c0-.011 0-.011-.011-.023v-.01h-.01c0-.012-.011-.012-.011-.024h-.02v-.01h-.021l-84.672 20.06-76.967 1.925h-.01L97.478 2.68h-.03s-.011-.012-.021 0m175.19 457.633 25.513-37.254 60.737-42.171-41.775 49.567-66.635 62.208zM39.307 230.387l31.12-13.57-17.424 96.246-7.383-44.561zm374.045 33.947-41.816-28.499-5.421-17.058 43.25 40.607 8.712 8.178zM274.289 33.173l-10.208 86.946-43.374 16.685 24.869-48.106zM103.896 219.366l120.019 9.333-6.147 3.047-164.692 81.543 17.476-96.506zm32.544 2.412-65.628-5.097 139.666-48.037 5.338 23.526 2.492 11.01 5.763 25.417zm144.764-31.421 34.164-16.039-49.034 52.875-17.455-21.657zm10.966 9.141 23.406-25.236 3.146 28.011-23.946 28.273-18.13 21.419-3.458.555-3.759.6-3.043-25.814zm56.708 28.272-59.211 32.09-3.613-9.356-.011-.012s-.01 0-.01-.011c0 0 0-.011-.01-.011h-.032l-9.169 1.472 32.596-38.5 9.377-11.078 47.029 16.22zm-59.294 32.192 6.407 16.605 8.588 22.246-6.49 123.26-11.994-171.162zm15.099 39.021 54.444 81.577-60.976 42.329zm-61.059-41.581 25.763-4.135 6.355-1.019 2.825-.453 7.341-1.178-50.819 124.563zm5.151-51.957-22.482-6.094 63.509-30.979 25.628 5.777-59.501 27.932zm-30.374-2.379-2.471-10.908 48.192-71.881 25.587 47.993-13.904 6.785-49.719 24.251zm2.212-66.093 43.364-16.673-48.078 71.7-5.317-23.458-2.014-8.881 7.455-14.022zm-10.187 31.467L98.465 108.905l107.403 39.429 2.565 11.327zm9.969-31.297-11.879 22.337-2.534-11.168zm98.441 65.096-3.146-27.966 50.02 44.13zm-.374 73.512 16.646-.634-29.46 25.101-.965-1.45-8.557-22.156zm-20.435 147.138-62.949-47.381 10.353-25.372 40.529-99.361zM243.5 257.447l-6.553 90.491-1.983 27.457-75.866-77.239 65.285-31.489zm.062-.17-25.981 4.395 6.625-33.007v-.034l-5.774-25.451 7.695-3.75 22.617 6.14 17.528 21.747 3.043 25.826zm-153.3 44.357L53.74 313.097l170.32-84.33-6.615 32.939zm7.445-193.148L97.51 2.885l122.978 134.02-14.579 11.305-15.067-5.528zm261.139-95.362-69.054 155.044-.28-.532-25.306-47.46zm-3.769 103.45-39.491 57.484-25.669-5.788 72.128-61.845zm-5.036 131.211-14.787 27.208-39.159 1.495-6.376-16.515 76.126-41.253zm72.688 149.618-63.488-16.888-53.52-80.195 29.553-25.18zm-124.806 25.554-102.751 4.078 39.854-51.425zM155.951 298.519l-102.2 14.702 163.757-51.413 25.628-4.327-84.163 40.607zM94.509 121.286l3.177-12.664 112.678 59.92-139.77 48.071zm264.493-108.23 3.302 92.995-72.346 62.038 11.391-25.588zm63.706 384.121-87.361-122.128 14.34-26.38 16.283-29.949zm-220.101-16.821-98.753 14.929 44.444-78.19 10.717-18.859 75.876 77.238zm-101.588-14.159-5.607-58.843 61.785-8.892 1.693-.238-55.108 96.959zM6.036 306.753l33.177-76.207 9.128 55.128 4.58 27.638zM97.655 2.873l99.698 31.909 23.115 101.942-30.343-33.075zm99.822 31.92 76.801-1.858-53.686 103.823zm161.411-21.884-94.672 107.085 10.218-87.07zm45.949 159.484-79.604 1.495-9.502.181 46.625-67.871zm13.759 95.486-52.574-49.351-50.249-44.334 89.116-1.665zm-18.078 59.116-28.93-90.979 47.008 32.044zm-49.294 111.287-33.976-7.827 29.864-35.43 12.118-14.374 3.946 1.053 59.532 15.835zm-156.062-11.123 102.813-4.078-42.201 61.608-5.68 8.28zM104 395.398l21.412-3.239L234.87 375.61l-11.349 14.646-28.505 36.767zM6.14 306.901l46.853 6.558h.02l42.285-6.083 3.343 35.114 5.026 52.738zm41.536-186.352 13.79 58.255 8.962 37.866-31.132 13.57zm.052-.328 37.82-8.801 12.024-2.798L70.51 216.466l-7.518-31.772zm41.121-9.696-8.432 1.96L97.395 3.474l.198 105.012z"/><path fill="url(#b)" d="M297.627 420.932c-.883.102-1.516.963-1.423 1.925.094.963.883 1.654 1.766 1.552.872-.102 1.516-.963 1.422-1.925-.093-.952-.882-1.654-1.765-1.552"/><path fill="url(#c)" d="M351.76 436.596c-.883.102-1.516.963-1.423 1.925.094.963.883 1.654 1.766 1.552.882-.102 1.516-.963 1.422-1.925-.093-.952-.882-1.654-1.765-1.552"/><path fill="url(#d)" d="M234.822 372.791c-.882.102-1.516.963-1.422 1.926.093.963.882 1.654 1.765 1.552s1.516-.963 1.423-1.926c-.094-.963-.883-1.654-1.766-1.552"/><path fill="url(#e)" d="M195.744 425.1c-.882.102-1.516.962-1.422 1.925.093.963.882 1.654 1.765 1.552s1.516-.963 1.423-1.926c-.094-.951-.883-1.653-1.766-1.551"/><path fill="url(#f)" d="M94.807 305.272c-.883.102-1.516.962-1.423 1.925.094.963.883 1.654 1.765 1.552.883-.102 1.516-.963 1.423-1.926-.093-.962-.883-1.653-1.765-1.551"/><path fill="url(#g)" d="M38.885 228.791c-.883.102-1.516.963-1.423 1.926.094.963.883 1.654 1.766 1.552.882-.102 1.516-.963 1.422-1.926-.104-.963-.893-1.654-1.765-1.552"/><path fill="url(#h)" d="M47.76 118.547c-.883.102-1.516.963-1.423 1.926.094.963.883 1.653 1.766 1.552.882-.102 1.516-.963 1.422-1.926-.093-.963-.883-1.665-1.765-1.552"/><path fill="url(#i)" d="M404.127 170.276c-.883.102-1.516.962-1.423 1.925.094.963.883 1.654 1.766 1.552.882-.102 1.516-.963 1.422-1.926-.093-.962-.882-1.653-1.765-1.551"/><path fill="url(#j)" d="M285.369 249.846c-.882.102-1.516.963-1.422 1.925.093.963.882 1.654 1.765 1.552s1.516-.963 1.423-1.925c-.094-.963-.883-1.654-1.766-1.552"/><path fill="url(#k)" d="M223.385 227.229c-.883.102-1.516.963-1.423 1.925.094.963.883 1.654 1.766 1.552.882-.102 1.516-.963 1.422-1.925-.093-.963-.882-1.654-1.765-1.552"/><path fill="url(#l)" d="M289.697 165.826c-.882.102-1.516.963-1.422 1.926.093.963.882 1.654 1.765 1.552s1.516-.963 1.423-1.926c-.104-.951-.893-1.654-1.766-1.552"/><path fill="url(#m)" d="M362.244 104.082c-.882.102-1.516.963-1.422 1.926.093.963.882 1.654 1.765 1.552s1.516-.963 1.423-1.926c-.094-.963-.883-1.665-1.766-1.552"/><path fill="url(#n)" d="M274.346 31.803c-.883.102-1.516.963-1.423 1.925.094.963.883 1.654 1.766 1.552.882-.102 1.516-.963 1.422-1.925-.093-.952-.883-1.654-1.765-1.552"/><path fill="url(#o)" d="M264.111 119.201c-.882.102-1.516.963-1.422 1.926.093.963.882 1.654 1.765 1.552s1.516-.963 1.423-1.926c-.094-.963-.883-1.654-1.766-1.552"/><path fill="url(#p)" d="M210.682 167.307c-.883.102-1.516.963-1.423 1.925.094.963.883 1.654 1.765 1.552.883-.102 1.517-.963 1.423-1.925s-.883-1.654-1.765-1.552"/><path fill="url(#q)" d="M248.872 490.171c-1.724.204-2.97 1.891-2.783 3.772s1.734 3.239 3.458 3.035 2.97-1.891 2.783-3.772-1.734-3.228-3.458-3.035"/><path fill="url(#r)" d="M418.395 264.469c-1.724.204-2.97 1.892-2.783 3.772.187 1.881 1.734 3.24 3.458 3.036s2.97-1.892 2.783-3.772-1.734-3.239-3.458-3.036"/><path fill="url(#s)" d="M316.497 171.829c-1.724.204-2.97 1.891-2.783 3.772s1.734 3.239 3.458 3.035 2.97-1.891 2.783-3.772-1.734-3.239-3.458-3.035"/><path fill="url(#t)" d="M364.997 215.684c-1.724.204-2.97 1.892-2.783 3.772s1.734 3.24 3.458 3.036 2.97-1.892 2.783-3.761c-.198-1.891-1.734-3.251-3.458-3.047"/><path fill="url(#u)" d="M53.239 310.821c-1.724.204-2.97 1.892-2.783 3.772s1.734 3.239 3.458 3.036c1.724-.204 2.97-1.892 2.783-3.772-.197-1.881-1.745-3.24-3.458-3.036"/><path fill="url(#v)" d="M102.864 391.708c-1.724.204-2.97 1.891-2.783 3.772s1.734 3.239 3.458 3.035 2.97-1.891 2.783-3.772-1.734-3.239-3.458-3.035"/><path fill="url(#w)" d="M158.934 294.952c-1.723.204-2.97 1.891-2.783 3.772s1.735 3.239 3.448 3.035c1.724-.204 2.97-1.891 2.783-3.772-.187-1.869-1.734-3.228-3.448-3.035"/><path fill="url(#x)" d="M221.161 132.794c-1.724.204-2.97 1.891-2.783 3.772s1.734 3.239 3.458 3.035 2.97-1.891 2.783-3.772c-.198-1.88-1.745-3.239-3.458-3.035"/><path fill="url(#y)" d="M96.677 105.428c-1.724.204-2.97 1.892-2.783 3.772.186 1.88 1.734 3.24 3.457 3.036 1.724-.204 2.97-1.892 2.783-3.772-.197-1.869-1.744-3.228-3.457-3.036"/><path fill="url(#z)" d="M69.536 213.921c-1.724.203-2.97 1.891-2.783 3.76.187 1.88 1.734 3.24 3.458 3.036s2.97-1.892 2.783-3.772c-.198-1.858-1.745-3.217-3.458-3.024"/><path fill="url(#A)" d="M335.301 272.854c-1.723.204-2.969 1.892-2.782 3.772s1.734 3.239 3.447 3.036c1.724-.204 2.97-1.892 2.783-3.772-.177-1.869-1.724-3.228-3.448-3.036"/><path fill="url(#B)" d="M97.63.02c-1.724.204-2.97 1.892-2.783 3.772s1.734 3.24 3.458 3.036c1.723-.204 2.969-1.892 2.783-3.772-.187-1.88-1.735-3.24-3.458-3.036"/><path fill="url(#C)" d="M422.023 389.952c-3.561.419-6.126 3.907-5.752 7.793.384 3.885 3.582 6.694 7.133 6.275 3.562-.419 6.137-3.908 5.753-7.793-.374-3.885-3.572-6.695-7.134-6.275"/><path fill="url(#D)" d="M5.79 298.452c-3.561.419-6.136 3.907-5.752 7.781.384 3.885 3.582 6.694 7.144 6.275s6.137-3.907 5.753-7.781c-.384-3.885-3.582-6.695-7.144-6.275"/><path fill="url(#E)" d="M241.689 250.539c-3.562.42-6.137 3.908-5.753 7.793.385 3.886 3.583 6.695 7.134 6.276 3.562-.42 6.137-3.908 5.753-7.793s-3.582-6.683-7.134-6.276"/><path fill="url(#F)" d="M356.424 6.713c-3.562.42-6.137 3.908-5.753 7.782.384 3.885 3.582 6.694 7.144 6.275s6.127-3.908 5.742-7.782c-.373-3.885-3.572-6.694-7.133-6.275"/><path fill="#00344A" d="M494.601 347.906c.011-.011 0-.022 0-.022l-.01-.012v-.022l-39.854-104.945v-.011l-6.542-83.661 9.221-93.98v-.034h-.01c0-.011 0-.011-.011-.022-.01-.012-.01-.012-.021-.012v-.011h-.02l-85.358 6.4-65.046-39.056h-.01l-.01-.011-88.587-4.655s-.011 0-.021.01h-.01L166.35 53.87 99.881 37.162h-.02c-.011 0-.022 0-.032.012v.011l-.02.023-29.543 82.075c-.01.011-.01.034-.01.045l10.809 36.099-49.844 79.38c-.01.011-.01.022-.01.034v.011c0 .011.01.034.02.045h.011l66.022 52.648 38.691 95.6s.011 0 .011.011v.011l91.193 96.563c.01 0 .01 0 .01.011.011 0 .011.011.011.011.02 0 .031 0 .041-.011l66.126-44.288 99.501-20.921s.01 0 .01-.012c.01 0 .021-.011.021-.011.01-.011.01-.023.01-.034v-.023l3.437-36.212 98.234-30.3c.01 0 .01-.011.01-.011.011 0 .021-.011.021-.023 0 .023 0 .012.01 0 0 .012-.01.012 0 0M31.606 234.41l49.563-78.926 40.706-50.609-31.942 70.386-31.225 31.67zm226.248 198.154-41.401-3.228 85.856-29.212-9.034 35.204zM218.841 28.531l8.391 8.575 41.64 42.555-16.127-4.055-30.456-42.295zm181.483 167.923-41.183 32.123 10.571-48.831 78.161-20.377zm-97.995 203.534-86.094 29.291 56.687-187.348 2.118-7 21.36 129.173zm-27.206-165.227 23.79 3.534 10.301 1.529 22.014 3.263-28.826 156.606-11.682-70.635zm18.359-29.371-21.609-16.616 42.949-58.844-10.966 38.772zm-21.723-16.661-23.863-.533.145-4.146.135-3.805 17.581-21.963 23.208-28.997 25.867.407-20.498 28.091zm-2.69-108.796 19.823 49.272-9.086 11.35-31.609 39.474.364-10.103-.011-.012v-.034l-.01-.011-.011-.011h-.01l-.01-.012-8.91-2.911 22.907-67.656zm-20.934 89.947-157.299 5.324 111.661-20.241 21.183 6.932 15.826 5.176zm-158.057 5.335 32.056-70.657 80.186 50.314zm50.259 63.284 108.099-68.449-.291 8.088-.114 3.115-.249 7.011-1.018 28.386zm155.534-41.128 19.096-67.531 8.016 27.173-21.432 72.187-7.965-23.719zm5.721 32.055 16.781-56.51 4.693-15.801 46.49 22.609-60.352 59.965-10.208-1.518zm50 5.188-11.984 9.583-8.307-1.235-21.952-3.262 60.207-59.829-10.561 48.819zm-11.973 9.707 10.602 1.575 47.445 112.25-66.261-115.048zm10.612 1.45-10.457-1.552 19.097-15.268zM269.235 80.046l45.587 49.522-25.826-.408zm-45.596 81.702-21.111-6.898-1.423-.895 19.72-34.638 1.204 18.123zm24.631 8.257-86.219 54.596-22.015 13.944-49.937-63.194zm-7.892 68.483-21.713 74.169-78.514-74.011 24.807-5.097 81.785-16.798zm6.5-21.793 1.018-28.374 23.873.532 21.703 16.685 8.016 23.877-2.596 8.756-23.821-3.534c-.01 0-.01 0-.021.011h-.01l-29.377 10.727zm-1.225 28.782 29.314-10.693-58.628 193.748 6.542-40.834zm111.328 16.118-6.656-15.745 8.743-17.024L494.404 347.85l-96.271 11.1zm12.658-81.973-45.97-22.36-.519-.249 133.923-91.5zm2.056-107.595-48.649 84.85-8.027-27.219 48.172-48.977zm-102.75 7.917-29.45 86.98-15.742-5.142-2.835-42.635 23.219-18.95zm-48.162 39.192-19.782 34.751-78.836-49.465-22.19-67.044zm-80.84 119.488-42.596 48.728-7.3-111.876zm78.805 74.169 27.995-95.622-1.204 28.26-29.325 183.112 2.461-112.409zm83.727 87.138L331.332 243.2l66.677 115.784-11.205 4.803zm42.845-258.209-22.108 15.098 48.795-85.11 85.118-6.377zm-76.396-61.925-25.556 20.864-22.512 18.373-120.674-81.668zM140.078 238.76l78.524 74.021-16.043 13.649-66.51 56.556 3.032-108.705zm-3.915 144.294 82.471-70.148-.042 1.858-1.485 67.962-54.236.215zm80.061 46.384 25.691 2.005 51.224 3.998-65.907 44.141zM392.64 258.186l-33.395-29.371 95.398 14.158 39.761 104.718zm-33.437-29.496 88.888-69.344 6.532 83.491zm88.878-69.502-78.276 20.411 87.466-114.142zm-76.199-87.524L315.008 129.5l-.851-10.319-7.165-86.493zm-65.015-39.021 8.027 96.834-45.783-49.748L218.488 28zm-88.555-4.644 34.246 47.562-86.021-21.635zM99.86 37.41l20.81 62.877 1.381 4.168-11.807 14.68-29.096 36.178-10.779-36.008zM31.356 234.83l6.937-7.034 51.64-52.364 7.3 111.944zm66.012 52.682 30.467-34.842 12.129-13.875-3.365 120.485-.654 23.571zm38.764 95.668 48.608-.193 32.367-.125-1.018 46.509v.023l10.997 50.099zm157.267 52.138 9.034-35.216 35.472 5.664 54.579 8.721zm38.982-30.56-29.761-4.758 95.409-40.89-1.267 13.343-3.977 41.955zm65.763-45.694 95.741-11.032-97.548 30.084.882-9.356z"/><path fill="#00344A" d="M91.927 175.576c0 .963-.716 1.745-1.61 1.745-.882 0-1.598-.782-1.598-1.745 0-.962.716-1.744 1.599-1.744.893 0 1.61.782 1.61 1.744M71.847 118.557c0 .963-.717 1.744-1.6 1.744-.882 0-1.599-.781-1.599-1.744s.717-1.745 1.6-1.745c.893.001 1.599.782 1.599 1.745M142.526 238.533c0 .963-.716 1.745-1.599 1.745-.882 0-1.599-.782-1.599-1.745 0-.962.717-1.744 1.599-1.744.883 0 1.599.782 1.599 1.744M99.045 286.514c0 .963-.717 1.744-1.6 1.744-.882 0-1.61-.781-1.61-1.744s.717-1.744 1.61-1.744c.883 0 1.6.781 1.6 1.744M219.073 383.155c0 .962-.716 1.744-1.599 1.744-.882 0-1.599-.782-1.599-1.744 0-.963.717-1.745 1.599-1.745.883 0 1.599.782 1.599 1.745M294.776 435.623c0 .963-.716 1.745-1.599 1.745-.882 0-1.599-.782-1.599-1.745s.717-1.744 1.599-1.744c.883 0 1.599.781 1.599 1.744M394.315 414.178c0 .963-.716 1.744-1.599 1.744-.882 0-1.599-.781-1.599-1.744s.717-1.744 1.599-1.744c.883 0 1.599.781 1.599 1.744M309.003 33.24c0 .963-.716 1.745-1.599 1.745s-1.599-.782-1.599-1.745c0-.962.716-1.744 1.599-1.744s1.599.782 1.599 1.744M249.183 170.561c0 .963-.717 1.744-1.599 1.744-.883 0-1.6-.781-1.6-1.744s.717-1.745 1.6-1.745c.882 0 1.599.782 1.599 1.745M276.44 235.35c0 .963-.716 1.744-1.599 1.744-.882 0-1.599-.781-1.599-1.744s.717-1.744 1.599-1.744c.883-.012 1.599.781 1.599 1.744M325.308 156.877c0 .963-.717 1.745-1.599 1.745-.883 0-1.6-.782-1.6-1.745s.717-1.744 1.6-1.744c.882 0 1.599.781 1.599 1.744M373.823 71.56c0 .964-.716 1.745-1.599 1.745s-1.599-.781-1.599-1.744.716-1.745 1.599-1.745 1.599.782 1.599 1.745M449.099 159.155c0 .962-.716 1.744-1.599 1.744-.882 0-1.609-.782-1.609-1.744 0-.963.716-1.745 1.609-1.745.883 0 1.599.782 1.599 1.745M370.542 179.608c0 .962-.716 1.744-1.599 1.744s-1.599-.782-1.599-1.744c0-.963.716-1.745 1.599-1.745s1.599.782 1.599 1.745M330.834 244.476c.883-.007 1.594-.794 1.587-1.757-.006-.964-.728-1.739-1.611-1.732s-1.594.794-1.587 1.757c.006.964.728 1.739 1.611 1.732M34.038 235.87c0 1.892-1.402 3.421-3.136 3.421s-3.136-1.529-3.136-3.421 1.402-3.421 3.136-3.421 3.136 1.541 3.136 3.421M221.608 27.85c0 1.892-1.402 3.421-3.136 3.421s-3.136-1.529-3.136-3.42 1.402-3.421 3.136-3.421 3.136 1.529 3.136 3.42M316.959 128.444c0 1.892-1.401 3.421-3.136 3.421-1.734 0-3.135-1.529-3.135-3.421s1.401-3.421 3.135-3.421c1.735 0 3.136 1.53 3.136 3.421M271.788 80.542c0 1.891-1.402 3.42-3.136 3.42s-3.136-1.529-3.136-3.42 1.401-3.42 3.136-3.42c1.734 0 3.136 1.528 3.136 3.42M218.467 428.847c0 1.891-1.402 3.42-3.136 3.42s-3.136-1.529-3.136-3.42 1.402-3.421 3.136-3.421 3.136 1.529 3.136 3.421M139.428 383.675c0 1.891-1.402 3.42-3.136 3.42s-3.136-1.529-3.136-3.42 1.402-3.421 3.136-3.421c1.734.011 3.136 1.54 3.136 3.421M221.608 312.518c0 1.892-1.402 3.421-3.136 3.421s-3.136-1.529-3.136-3.421 1.402-3.42 3.136-3.42c1.734-.012 3.136 1.529 3.136 3.42M362.756 227.671c0 1.891-1.401 3.421-3.136 3.421-1.734 0-3.136-1.53-3.136-3.421 0-1.892 1.402-3.421 3.136-3.421 1.735-.011 3.136 1.529 3.136 3.421M401.022 359.729c0 1.892-1.402 3.421-3.136 3.421s-3.136-1.529-3.136-3.421 1.402-3.42 3.136-3.42 3.136 1.529 3.136 3.42M305.038 400.792c0 1.891-1.402 3.421-3.136 3.421-1.724 0-3.136-1.53-3.136-3.421 0-1.892 1.401-3.421 3.136-3.421 1.734 0 3.136 1.529 3.136 3.421M222.858 118.862c0 1.892-1.402 3.421-3.136 3.421s-3.136-1.529-3.136-3.421 1.402-3.421 3.136-3.421 3.136 1.53 3.136 3.421M497.006 347.417c0 1.891-1.402 3.421-3.136 3.421s-3.136-1.53-3.136-3.421c0-1.892 1.402-3.421 3.136-3.421s3.136 1.529 3.136 3.421M106.85 37.353c0 3.908-2.908 7.068-6.48 7.068-3.582 0-6.48-3.171-6.48-7.068 0-3.908 2.898-7.068 6.48-7.068 3.572-.011 6.48 3.16 6.48 7.068M234.819 478.959c0 3.907-2.897 7.068-6.48 7.068-3.582 0-6.48-3.172-6.48-7.068 0-3.908 2.898-7.068 6.48-7.068s6.48 3.171 6.48 7.068M253.233 218.009c0 3.908-2.908 7.068-6.48 7.068-3.582 0-6.48-3.171-6.48-7.068 0-3.907 2.898-7.068 6.48-7.068 3.572 0 6.48 3.161 6.48 7.068M463.188 67.459c0 3.907-2.907 7.068-6.49 7.068-3.572 0-6.479-3.16-6.479-7.068s2.897-7.068 6.479-7.068 6.49 3.16 6.49 7.068"/><defs><radialGradient id="a" cx="0" cy="0" r="1" gradientTransform="rotate(-95.64 119.135 -264.668)scale(1044.29 959.116)" gradientUnits="userSpaceOnUse"><stop stop-color="#F9FCF8"/><stop offset=".038" stop-color="#ECF6F2"/><stop offset=".231" stop-color="#BEC1C2"/><stop offset="1" stop-color="#000610"/></radialGradient><radialGradient id="b" cx="0" cy="0" r="1" gradientTransform="rotate(-95.64 118.965 -264.84)scale(1044.9 959.676)" gradientUnits="userSpaceOnUse"><stop stop-color="#F9FCF8"/><stop offset=".038" stop-color="#ECF6F2"/><stop offset=".231" stop-color="#BEC1C2"/><stop offset="1" stop-color="#000610"/></radialGradient><radialGradient id="c" cx="0" cy="0" r="1" gradientTransform="matrix(-102.64007 -1039.31406 954.54444 -94.26843 394.178 -172.171)" gradientUnits="userSpaceOnUse"><stop stop-color="#F9FCF8"/><stop offset=".038" stop-color="#ECF6F2"/><stop offset=".231" stop-color="#BEC1C2"/><stop offset="1" stop-color="#000610"/></radialGradient><radialGradient id="d" cx="0" cy="0" r="1" gradientTransform="rotate(-95.64 119.137 -264.686)scale(1044.34 959.16)" gradientUnits="userSpaceOnUse"><stop stop-color="#F9FCF8"/><stop offset=".038" stop-color="#ECF6F2"/><stop offset=".231" stop-color="#BEC1C2"/><stop offset="1" stop-color="#000610"/></radialGradient><radialGradient id="e" cx="0" cy="0" r="1" gradientTransform="matrix(-102.6381 -1039.29416 954.52354 -94.26637 394.256 -172.146)" gradientUnits="userSpaceOnUse"><stop stop-color="#F9FCF8"/><stop offset=".038" stop-color="#ECF6F2"/><stop offset=".231" stop-color="#BEC1C2"/><stop offset="1" stop-color="#000610"/></radialGradient><radialGradient id="f" cx="0" cy="0" r="1" gradientTransform="matrix(-102.61059 -1039.01551 954.27375 -94.2417 394.29 -171.93)" gradientUnits="userSpaceOnUse"><stop stop-color="#F9FCF8"/><stop offset=".038" stop-color="#ECF6F2"/><stop offset=".231" stop-color="#BEC1C2"/><stop offset="1" stop-color="#000610"/></radialGradient><radialGradient id="g" cx="0" cy="0" r="1" gradientTransform="matrix(-102.6381 -1039.29416 954.5305 -94.26706 394.246 -172.154)" gradientUnits="userSpaceOnUse"><stop stop-color="#F9FCF8"/><stop offset=".038" stop-color="#ECF6F2"/><stop offset=".231" stop-color="#BEC1C2"/><stop offset="1" stop-color="#000610"/></radialGradient><radialGradient id="h" cx="0" cy="0" r="1" gradientTransform="matrix(-102.68331 -1039.75193 954.94648 -94.30814 394.47 -172.169)" gradientUnits="userSpaceOnUse"><stop stop-color="#F9FCF8"/><stop offset=".038" stop-color="#ECF6F2"/><stop offset=".231" stop-color="#BEC1C2"/><stop offset="1" stop-color="#000610"/></radialGradient><radialGradient id="i" cx="0" cy="0" r="1" gradientTransform="rotate(-95.64 119.12 -264.678)scale(1044.38 959.207)" gradientUnits="userSpaceOnUse"><stop stop-color="#F9FCF8"/><stop offset=".038" stop-color="#ECF6F2"/><stop offset=".231" stop-color="#BEC1C2"/><stop offset="1" stop-color="#000610"/></radialGradient><radialGradient id="j" cx="0" cy="0" r="1" gradientTransform="rotate(-95.64 119.24 -264.595)scale(1043.89 958.753)" gradientUnits="userSpaceOnUse"><stop stop-color="#F9FCF8"/><stop offset=".038" stop-color="#ECF6F2"/><stop offset=".231" stop-color="#BEC1C2"/><stop offset="1" stop-color="#000610"/></radialGradient><radialGradient id="k" cx="0" cy="0" r="1" gradientTransform="matrix(-102.6527 -1039.42335 954.65872 -94.2814 394.354 -172.144)" gradientUnits="userSpaceOnUse"><stop stop-color="#F9FCF8"/><stop offset=".038" stop-color="#ECF6F2"/><stop offset=".231" stop-color="#BEC1C2"/><stop offset="1" stop-color="#000610"/></radialGradient><radialGradient id="l" cx="0" cy="0" r="1" gradientTransform="matrix(-102.65957 -1039.493 954.71444 -94.2869 394.395 -172.148)" gradientUnits="userSpaceOnUse"><stop stop-color="#F9FCF8"/><stop offset=".038" stop-color="#ECF6F2"/><stop offset=".231" stop-color="#BEC1C2"/><stop offset="1" stop-color="#000610"/></radialGradient><radialGradient id="m" cx="0" cy="0" r="1" gradientTransform="matrix(-102.64302 -1039.34391 954.5723 -94.27119 394.235 -172.143)" gradientUnits="userSpaceOnUse"><stop stop-color="#F9FCF8"/><stop offset=".038" stop-color="#ECF6F2"/><stop offset=".231" stop-color="#BEC1C2"/><stop offset="1" stop-color="#000610"/></radialGradient><radialGradient id="n" cx="0" cy="0" r="1" gradientTransform="matrix(-102.6381 -1039.29416 954.5315 -94.26716 394.251 -172.127)" gradientUnits="userSpaceOnUse"><stop stop-color="#F9FCF8"/><stop offset=".038" stop-color="#ECF6F2"/><stop offset=".231" stop-color="#BEC1C2"/><stop offset="1" stop-color="#000610"/></radialGradient><radialGradient id="o" cx="0" cy="0" r="1" gradientTransform="matrix(-102.64204 -1039.33396 954.56135 -94.2701 394.243 -172.145)" gradientUnits="userSpaceOnUse"><stop stop-color="#F9FCF8"/><stop offset=".038" stop-color="#ECF6F2"/><stop offset=".231" stop-color="#BEC1C2"/><stop offset="1" stop-color="#000610"/></radialGradient><radialGradient id="p" cx="0" cy="0" r="1" gradientTransform="matrix(-102.64204 -1039.33396 954.56135 -94.2701 394.256 -172.15)" gradientUnits="userSpaceOnUse"><stop stop-color="#F9FCF8"/><stop offset=".038" stop-color="#ECF6F2"/><stop offset=".231" stop-color="#BEC1C2"/><stop offset="1" stop-color="#000610"/></radialGradient><radialGradient id="q" cx="0" cy="0" r="1" gradientTransform="matrix(-102.62926 -1039.2046 954.44293 -94.2584 394.233 -172.098)" gradientUnits="userSpaceOnUse"><stop stop-color="#F9FCF8"/><stop offset=".038" stop-color="#ECF6F2"/><stop offset=".231" stop-color="#BEC1C2"/><stop offset="1" stop-color="#000610"/></radialGradient><radialGradient id="r" cx="0" cy="0" r="1" gradientTransform="matrix(-102.6607 -1039.52304 954.74048 -94.2878 394.225 -172.24)" gradientUnits="userSpaceOnUse"><stop stop-color="#F9FCF8"/><stop offset=".038" stop-color="#ECF6F2"/><stop offset=".231" stop-color="#BEC1C2"/><stop offset="1" stop-color="#000610"/></radialGradient><radialGradient id="s" cx="0" cy="0" r="1" gradientTransform="matrix(-102.62926 -1039.2046 954.44691 -94.2588 394.24 -172.105)" gradientUnits="userSpaceOnUse"><stop stop-color="#F9FCF8"/><stop offset=".038" stop-color="#ECF6F2"/><stop offset=".231" stop-color="#BEC1C2"/><stop offset="1" stop-color="#000610"/></radialGradient><radialGradient id="t" cx="0" cy="0" r="1" gradientTransform="rotate(-95.64 119.146 -264.676)scale(1044.3 959.13)" gradientUnits="userSpaceOnUse"><stop stop-color="#F9FCF8"/><stop offset=".038" stop-color="#ECF6F2"/><stop offset=".231" stop-color="#BEC1C2"/><stop offset="1" stop-color="#000610"/></radialGradient><radialGradient id="u" cx="0" cy="0" r="1" gradientTransform="matrix(-102.6322 -1039.23445 954.47179 -94.26126 394.239 -172.118)" gradientUnits="userSpaceOnUse"><stop stop-color="#F9FCF8"/><stop offset=".038" stop-color="#ECF6F2"/><stop offset=".231" stop-color="#BEC1C2"/><stop offset="1" stop-color="#000610"/></radialGradient><radialGradient id="v" cx="0" cy="0" r="1" gradientTransform="matrix(-102.63122 -1039.2245 954.4698 -94.26106 394.237 -172.115)" gradientUnits="userSpaceOnUse"><stop stop-color="#F9FCF8"/><stop offset=".038" stop-color="#ECF6F2"/><stop offset=".231" stop-color="#BEC1C2"/><stop offset="1" stop-color="#000610"/></radialGradient><radialGradient id="w" cx="0" cy="0" r="1" gradientTransform="matrix(-102.61845 -1039.09512 954.3484 -94.24907 394.158 -172.085)" gradientUnits="userSpaceOnUse"><stop stop-color="#F9FCF8"/><stop offset=".038" stop-color="#ECF6F2"/><stop offset=".231" stop-color="#BEC1C2"/><stop offset="1" stop-color="#000610"/></radialGradient><radialGradient id="x" cx="0" cy="0" r="1" gradientTransform="matrix(-102.6322 -1039.23445 954.47378 -94.26146 394.239 -172.119)" gradientUnits="userSpaceOnUse"><stop stop-color="#F9FCF8"/><stop offset=".038" stop-color="#ECF6F2"/><stop offset=".231" stop-color="#BEC1C2"/><stop offset="1" stop-color="#000610"/></radialGradient><radialGradient id="y" cx="0" cy="0" r="1" gradientTransform="rotate(-95.64 119.06 -264.653)scale(1044.19 959.02)" gradientUnits="userSpaceOnUse"><stop stop-color="#F9FCF8"/><stop offset=".038" stop-color="#ECF6F2"/><stop offset=".231" stop-color="#BEC1C2"/><stop offset="1" stop-color="#000610"/></radialGradient><radialGradient id="z" cx="0" cy="0" r="1" gradientTransform="matrix(-102.61648 -1039.07522 954.32351 -94.24662 394.119 -172.121)" gradientUnits="userSpaceOnUse"><stop stop-color="#F9FCF8"/><stop offset=".038" stop-color="#ECF6F2"/><stop offset=".231" stop-color="#BEC1C2"/><stop offset="1" stop-color="#000610"/></radialGradient><radialGradient id="A" cx="0" cy="0" r="1" gradientTransform="matrix(-102.65481 -1039.46333 954.68376 -94.2822 394.187 -172.222)" gradientUnits="userSpaceOnUse"><stop stop-color="#F9FCF8"/><stop offset=".038" stop-color="#ECF6F2"/><stop offset=".231" stop-color="#BEC1C2"/><stop offset="1" stop-color="#000610"/></radialGradient><radialGradient id="B" cx="0" cy="0" r="1" gradientTransform="rotate(-95.64 119.22 -264.76)scale(1044.79 959.582)" gradientUnits="userSpaceOnUse"><stop stop-color="#F9FCF8"/><stop offset=".038" stop-color="#ECF6F2"/><stop offset=".231" stop-color="#BEC1C2"/><stop offset="1" stop-color="#000610"/></radialGradient><radialGradient id="C" cx="0" cy="0" r="1" gradientTransform="matrix(-102.63909 -1039.3041 954.54344 -94.26833 394.224 -172.155)" gradientUnits="userSpaceOnUse"><stop stop-color="#F9FCF8"/><stop offset=".038" stop-color="#ECF6F2"/><stop offset=".231" stop-color="#BEC1C2"/><stop offset="1" stop-color="#000610"/></radialGradient><radialGradient id="D" cx="0" cy="0" r="1" gradientTransform="matrix(-102.64007 -1039.31406 954.5524 -94.26922 394.319 -172.105)" gradientUnits="userSpaceOnUse"><stop stop-color="#F9FCF8"/><stop offset=".038" stop-color="#ECF6F2"/><stop offset=".231" stop-color="#BEC1C2"/><stop offset="1" stop-color="#000610"/></radialGradient><radialGradient id="E" cx="0" cy="0" r="1" gradientTransform="matrix(-102.63516 -1039.2643 954.50264 -94.2643 394.224 -172.139)" gradientUnits="userSpaceOnUse"><stop stop-color="#F9FCF8"/><stop offset=".038" stop-color="#ECF6F2"/><stop offset=".231" stop-color="#BEC1C2"/><stop offset="1" stop-color="#000610"/></radialGradient><radialGradient id="F" cx="0" cy="0" r="1" gradientTransform="rotate(-95.64 119.145 -264.664)scale(1044.24 959.066)" gradientUnits="userSpaceOnUse"><stop stop-color="#F9FCF8"/><stop offset=".038" stop-color="#ECF6F2"/><stop offset=".231" stop-color="#BEC1C2"/><stop offset="1" stop-color="#000610"/></radialGradient></defs></svg>