<svg xmlns="http://www.w3.org/2000/svg" width="70" height="70" fill="none"><path fill="#1DBBBA" d="M46.326 24.792a1.025 1.025 0 1 0 0-2.05 1.025 1.025 0 0 0 0 2.05Zm4.102 0a1.025 1.025 0 1 0 0-2.05 1.025 1.025 0 0 0 0 2.05Zm-8.203 0a1.025 1.025 0 1 0 0-2.05 1.025 1.025 0 0 0 0 2.05Z"/><path fill="#1DBBBA" d="M69.359 44.578a9.944 9.944 0 0 1-5.344-5.17 23.578 23.578 0 0 0 5.984-15.733C70 10.621 59.38 0 46.324 0 34.884 0 25.09 8.156 23.036 19.394a1.026 1.026 0 0 0 2.018.369C26.929 9.5 35.874 2.05 46.324 2.05c11.924 0 21.625 9.7 21.625 21.624a21.54 21.54 0 0 1-5.875 14.816c-.267.284-.35.695-.215 1.06a12 12 0 0 0 4.383 5.655c-.451.062-.908.093-1.37.093a9.88 9.88 0 0 1-6.734-2.64 1.025 1.025 0 0 0-1.2-.14 21.429 21.429 0 0 1-6.701 2.424 1.025 1.025 0 1 0 .368 2.017 23.47 23.47 0 0 0 6.7-2.307 11.92 11.92 0 0 0 7.568 2.697c1.55 0 3.059-.293 4.486-.87a1.025 1.025 0 0 0 0-1.901ZM25.9 45.693c.296-.456.468-1 .468-1.582a2.916 2.916 0 0 0-2.913-2.913h-2.383c-.566 0-1.025.46-1.025 1.026v8.203a1.026 1.026 0 0 0 1.025 1.025c.005 0 2.195-.01 2.8-.01a3.237 3.237 0 0 0 3.233-3.233c0-1.015-.47-1.923-1.205-2.516Zm-3.802-2.444h1.357a.863.863 0 0 1 0 1.724l-.067.002h-1.29V43.25Zm1.773 6.142c-.326 0-1.115.003-1.773.006v-2.37h1.773a1.183 1.183 0 0 1 0 2.364Zm-8.931-7.417a1.21 1.21 0 0 0-2.26 0l-3.081 8.088a1.025 1.025 0 1 0 1.916.73l.517-1.354h3.555l.517 1.354a1.026 1.026 0 0 0 1.916-.73l-3.08-8.088Zm-2.126 5.413.995-2.61.996 2.61h-1.991Zm24.642 1.096a1.025 1.025 0 0 0-1.444.126 2.298 2.298 0 0 1-.23.237c-.413.368-.941.555-1.569.555a3.08 3.08 0 0 1-3.076-3.077 3.08 3.08 0 0 1 4.795-2.551 1.025 1.025 0 1 0 1.148-1.7 5.104 5.104 0 0 0-2.867-.876 5.133 5.133 0 0 0-5.127 5.127c0 2.827 2.3 5.127 5.127 5.127 1.13 0 2.144-.371 2.933-1.074.155-.138.301-.29.436-.45a1.025 1.025 0 0 0-.126-1.444Z"/><path fill="#1DBBBA" d="M23.675 22.65C10.621 22.65 0 33.27 0 46.324c0 5.831 2.12 11.392 5.985 15.732a9.945 9.945 0 0 1-5.344 5.17 1.026 1.026 0 0 0 0 1.902 11.9 11.9 0 0 0 4.486.87c2.775 0 5.434-.952 7.567-2.697A23.701 23.701 0 0 0 23.675 70C36.73 70 47.35 59.379 47.35 46.325c0-13.055-10.62-23.676-23.675-23.676Zm0 45.299c-3.72 0-7.39-.962-10.613-2.78a1.023 1.023 0 0 0-1.2.14 9.88 9.88 0 0 1-6.735 2.64c-.461 0-.918-.031-1.37-.094A12 12 0 0 0 8.14 62.2a1.025 1.025 0 0 0-.214-1.06A21.54 21.54 0 0 1 2.05 46.325c0-11.923 9.7-21.624 21.624-21.624S45.3 34.4 45.3 46.325c0 11.923-9.7 21.624-21.624 21.624Z"/></svg>