<svg xmlns="http://www.w3.org/2000/svg" width="70" height="70" fill="none"><path fill="#1DBBBA" d="M59.063 41.563h-2.188a1.094 1.094 0 0 0 0 2.187h2.188a1.094 1.094 0 0 0 0-2.188ZM45.938 52.5H24.061a3.285 3.285 0 0 0-3.28 3.281 3.285 3.285 0 0 0 3.28 3.282h21.875a3.285 3.285 0 0 0 3.282-3.282 3.285 3.285 0 0 0-3.282-3.281Zm0 4.375H24.061a1.095 1.095 0 0 1 0-2.188h21.875a1.095 1.095 0 0 1 0 2.188ZM12.031 35c.604 0 1.094-.49 1.094-1.094V15.313h43.75v18.593a1.094 1.094 0 1 0 2.188 0V15.313a2.19 2.19 0 0 0-2.188-2.188v-2.188a2.19 2.19 0 0 0-2.188-2.187V6.562A2.19 2.19 0 0 0 52.5 4.376V2.187A2.19 2.19 0 0 0 50.312 0H19.689A2.19 2.19 0 0 0 17.5 2.188v2.187a2.19 2.19 0 0 0-2.188 2.188V8.75a2.19 2.19 0 0 0-2.187 2.188v2.187a2.19 2.19 0 0 0-2.188 2.188v18.593c0 .604.49 1.094 1.094 1.094Zm7.656-32.813h30.625v2.188H19.689V2.187ZM17.5 6.564h35V8.75h-35V6.562Zm-2.188 4.375h39.376v2.187H15.312v-2.188Z"/><path fill="#1DBBBA" d="M69.985 40.16a3.253 3.253 0 0 0-.162-.753l-4.217-19.173A3.266 3.266 0 0 0 62.37 17.5h-.027a1.094 1.094 0 1 0 0 2.188h.026c.542 0 .996.388 1.08.923l.013.064L67.1 37.21a3.3 3.3 0 0 0-.381-.023H3.28c-.129 0-.256.009-.38.023l3.636-16.535a.72.72 0 0 0 .012-.064 1.089 1.089 0 0 1 1.08-.924h.027a1.094 1.094 0 0 0 0-2.187H7.63a3.266 3.266 0 0 0-3.235 2.734L.177 39.407a3.3 3.3 0 0 0-.162.753c-.012.075-.016.15-.013.223L0 40.469v26.25A3.285 3.285 0 0 0 3.281 70H66.72A3.285 3.285 0 0 0 70 66.719v-26.25l-.002-.086a1.118 1.118 0 0 0-.013-.223Zm-2.172 26.559c0 .603-.491 1.094-1.094 1.094H3.28a1.096 1.096 0 0 1-1.094-1.094V44.844c0-.603.491-1.094 1.094-1.094H52.5a1.094 1.094 0 0 0 0-2.188H3.28c-.383 0-.751.067-1.094.189v-1.282l.002-.023.091-.416c.17-.385.554-.655 1.001-.655h63.44c.447 0 .832.27 1.001.655l.091.416.002.023v1.282a3.267 3.267 0 0 0-1.094-.188h-3.281a1.094 1.094 0 0 0 0 2.187h3.281c.603 0 1.094.49 1.094 1.094v21.875Z"/><path fill="#1DBBBA" d="M31.719 26.25a1.094 1.094 0 0 0 0-2.188h-8.75a1.094 1.094 0 1 0 0 2.188h8.75Zm7.656-5.469c0-.604-.49-1.093-1.094-1.093H22.97a1.094 1.094 0 1 0 0 2.187h15.31c.604 0 1.094-.49 1.094-1.094ZM17.5 21.875h1.094a1.094 1.094 0 0 0 0-2.188H17.5a1.094 1.094 0 0 0 0 2.188Zm0 4.375h1.094a1.094 1.094 0 0 0 0-2.188H17.5a1.094 1.094 0 0 0 0 2.188Zm0 6.563a1.094 1.094 0 0 0 0 2.187h9.844a1.094 1.094 0 0 0 0-2.188H17.5Zm18.594-3.282c0-.604-.49-1.093-1.094-1.093H17.5a1.094 1.094 0 0 0 0 2.187H35c.604 0 1.094-.49 1.094-1.094ZM52.5 28.438h-5.469a1.094 1.094 0 0 0 0 2.187H52.5a1.094 1.094 0 0 0 0-2.188ZM39.375 35H52.5a1.094 1.094 0 0 0 0-2.188H39.375a1.094 1.094 0 0 0 0 2.188Z"/></svg>