<svg xmlns="http://www.w3.org/2000/svg" width="70" height="70" fill="none"><path fill="#1DBBBA" d="M18.703 46.957h-.76a7.912 7.912 0 0 0 2.614-5.88c0-4.373-3.557-7.93-7.93-7.93-4.374 0-7.931 3.557-7.931 7.93a7.91 7.91 0 0 0 2.615 5.88H6.55A6.557 6.557 0 0 0 0 53.507v6.077c0 .566.459 1.025 1.025 1.025h23.202c.567 0 1.026-.459 1.026-1.025v-6.077a6.557 6.557 0 0 0-6.55-6.55Zm-11.956-5.88a5.887 5.887 0 0 1 5.88-5.88 5.887 5.887 0 0 1 5.88 5.88 5.887 5.887 0 0 1-5.88 5.88 5.887 5.887 0 0 1-5.88-5.88Zm16.455 17.481h-3.75v-1.736a1.025 1.025 0 1 0-2.05 0v1.736h-9.55v-1.736a1.025 1.025 0 1 0-2.051 0v1.736H2.05v-5.05c0-2.482 2.018-4.5 4.499-4.5h12.153a4.504 4.504 0 0 1 4.5 4.5v5.05ZM63.45 55.52h-.762a7.912 7.912 0 0 0 2.616-5.88c0-4.373-3.558-7.931-7.931-7.931s-7.93 3.558-7.93 7.93c0 2.33 1.01 4.43 2.615 5.881h-.762a6.557 6.557 0 0 0-6.55 6.55v6.076c0 .567.46 1.026 1.026 1.026h9.209a1.025 1.025 0 1 0 0-2.051h-2.383v-1.737a1.025 1.025 0 1 0-2.05 0v1.737h-3.751v-5.052a4.504 4.504 0 0 1 4.5-4.498h12.152c2.481 0 4.5 2.018 4.5 4.498v5.052h-3.75v-1.737a1.025 1.025 0 1 0-2.05 0v1.737h-2.383a1.025 1.025 0 1 0 0 2.05h9.208c.567 0 1.026-.458 1.026-1.025V62.07a6.557 6.557 0 0 0-6.55-6.549Zm-11.957-5.88a5.887 5.887 0 0 1 5.88-5.88 5.887 5.887 0 0 1 5.88 5.88 5.887 5.887 0 0 1-5.88 5.88 5.887 5.887 0 0 1-5.88-5.88Z"/><path fill="#1DBBBA" d="M66.213 9.392H54.168a1.025 1.025 0 1 0 0 2.05h12.045c.957 0 1.736.78 1.736 1.737v22.098c0 .957-.779 1.736-1.736 1.736H46.6c-.567 0-1.026.46-1.026 1.026v3.048l-3.773-3.774a1.025 1.025 0 0 0-.725-.3h-8.01a1.739 1.739 0 0 1-1.738-1.736V13.179c0-.957.78-1.736 1.738-1.736h16.316a1.025 1.025 0 1 0 0-2.051h-8.661V4.616c0-2.088-1.7-3.787-3.789-3.787H3.787A3.791 3.791 0 0 0 0 4.616v22.098a3.791 3.791 0 0 0 3.787 3.787H9.54a1.025 1.025 0 1 0 0-2.05H3.787a1.738 1.738 0 0 1-1.736-1.737V4.616c0-.957.779-1.736 1.736-1.736h33.146c.959 0 1.738.779 1.738 1.736v4.776h-5.604a3.792 3.792 0 0 0-3.789 3.787V28.45h-.355c-.272 0-.533.108-.725.3l-3.773 3.775v-3.05c0-.566-.46-1.025-1.026-1.025h-9.075a1.025 1.025 0 1 0 0 2.051h8.05v4.5a1.025 1.025 0 0 0 1.75.725l5.155-5.155v4.706a3.792 3.792 0 0 0 3.788 3.787h7.585l5.223 5.224a1.025 1.025 0 0 0 1.751-.725v-4.5h18.587A3.791 3.791 0 0 0 70 35.278V13.179a3.791 3.791 0 0 0-3.787-3.787Z"/></svg>