<svg xmlns="http://www.w3.org/2000/svg" width="70" height="70" fill="none"><path fill="#1DBBBA" d="M64.531 2.188H5.47a3.281 3.281 0 0 0-3.282 3.28v59.063a3.281 3.281 0 0 0 3.282 3.281h59.06a3.28 3.28 0 0 0 3.281-3.28V5.468a3.281 3.281 0 0 0-3.28-3.282ZM4.375 5.467a1.094 1.094 0 0 1 1.094-1.093H64.53a1.094 1.094 0 0 1 1.094 1.094v9.843H4.375V5.47Zm61.25 59.063a1.093 1.093 0 0 1-1.094 1.094H5.47a1.093 1.093 0 0 1-1.094-1.094V17.5h61.25v47.031Z"/><path fill="#1DBBBA" d="M60.156 13.125h-26.25a3.28 3.28 0 1 1 0-6.563h26.25a3.281 3.281 0 1 1 0 6.563ZM33.906 8.75a1.094 1.094 0 0 0 0 2.188h26.25a1.093 1.093 0 1 0 0-2.188h-26.25ZM9.844 13.125a3.28 3.28 0 1 1 0-6.562 3.28 3.28 0 0 1 0 6.562Zm0-4.375a1.094 1.094 0 1 0 0 2.187 1.094 1.094 0 0 0 0-2.187Zm7.656 4.375a3.28 3.28 0 1 1 0-6.562 3.28 3.28 0 0 1 0 6.562Zm0-4.375a1.094 1.094 0 1 0 0 2.188 1.094 1.094 0 0 0 0-2.188Zm7.656 4.375a3.28 3.28 0 1 1 0-6.562 3.28 3.28 0 0 1 0 6.562Zm0-4.375a1.094 1.094 0 1 0 0 2.188 1.094 1.094 0 0 0 0-2.188Zm4.375 28.438h-17.5a1.093 1.093 0 0 1-1.094-1.094V22.969a1.093 1.093 0 0 1 1.094-1.094h17.5a1.093 1.093 0 0 1 1.094 1.094v13.125a1.093 1.093 0 0 1-1.094 1.093ZM13.125 35h15.313V24.062H13.124V35Zm44.844-8.75H36.094a1.093 1.093 0 1 1 0-2.188h21.875a1.093 1.093 0 1 1 0 2.188Zm0 4.375H36.094a1.093 1.093 0 1 1 0-2.188h21.875a1.093 1.093 0 1 1 0 2.188Zm0 4.375H36.094a1.093 1.093 0 1 1 0-2.188h21.875a1.093 1.093 0 1 1 0 2.188Zm0 10.938H47.03a1.093 1.093 0 0 1-1.093-1.094v-4.375a1.093 1.093 0 0 1 1.093-1.094h10.94a1.093 1.093 0 0 1 1.093 1.094v4.375a1.093 1.093 0 0 1-1.093 1.093Zm-9.844-2.188h8.75v-2.188h-8.75v2.188Zm-25.156 2.188H12.03a1.093 1.093 0 0 1-1.094-1.094v-4.375a1.093 1.093 0 0 1 1.094-1.094h10.94a1.093 1.093 0 0 1 1.093 1.094v4.375a1.093 1.093 0 0 1-1.093 1.093Zm-9.844-2.188h8.75v-2.188h-8.75v2.188Zm27.344 2.188H29.53a1.093 1.093 0 0 1-1.093-1.094v-4.375a1.093 1.093 0 0 1 1.093-1.094h10.94a1.093 1.093 0 0 1 1.093 1.094v4.375a1.093 1.093 0 0 1-1.093 1.093Zm-9.844-2.188h8.75v-2.188h-8.75v2.188Zm27.344 17.5H12.03a1.093 1.093 0 0 1-1.094-1.094V49.22a1.093 1.093 0 0 1 1.094-1.094h45.94a1.093 1.093 0 0 1 1.093 1.094v10.937a1.093 1.093 0 0 1-1.093 1.094Zm-44.844-2.188h43.75v-8.75h-43.75v8.75Z"/></svg>