<svg xmlns="http://www.w3.org/2000/svg" width="70" height="70" fill="none"><path fill="#1DBBBA" d="m37.508 6.883-4.696 4.695-1.414-1.414-1.546 1.547 2.187 2.187a1.09 1.09 0 0 0 1.547 0l5.468-5.469-1.546-1.546ZM56.875 26.25c.28 0 .56-.107.773-.32l5.469-5.47-1.547-1.546-4.695 4.695-1.414-1.414-1.547 1.547 2.188 2.187c.213.214.493.32.773.32Z"/><path fill="#1DBBBA" d="M59.063 50.313a8.72 8.72 0 0 0-6.342 2.738L35.66 40.547A10.85 10.85 0 0 0 37.188 35c0-.94-.132-1.846-.356-2.717l14.464-5.3c1.458 2.809 4.389 4.736 7.767 4.736 4.824 0 8.75-3.926 8.75-8.75 0-4.825-3.926-8.75-8.75-8.75-4.825 0-8.75 3.925-8.75 8.75 0 .675.084 1.329.23 1.96L36.076 30.23a10.985 10.985 0 0 0-5.089-5.073l2.077-5.693a8.678 8.678 0 0 0 1.935.224c4.825 0 8.75-3.926 8.75-8.75 0-4.825-3.925-8.75-8.75-8.75s-8.75 3.925-8.75 8.75c0 3.387 1.938 6.324 4.76 7.777l-2.078 5.694a10.853 10.853 0 0 0-2.682-.346c-1.767 0-3.433.43-4.913 1.179l-4.816-7.575a8.735 8.735 0 0 0 3.166-6.73c0-4.824-3.925-8.75-8.75-8.75-4.824 0-8.75 3.926-8.75 8.75 0 4.825 3.926 8.75 8.75 8.75 1.338 0 2.601-.31 3.737-.85l4.818 7.58c-2.54 2.005-4.18 5.103-4.18 8.583 0 3.306 1.481 6.27 3.808 8.276l-4.105 5.864a8.687 8.687 0 0 0-4.078-1.015c-4.824 0-8.75 3.925-8.75 8.75s3.926 8.75 8.75 8.75c4.825 0 8.75-3.925 8.75-8.75a8.72 8.72 0 0 0-2.884-6.474l4.106-5.866a10.864 10.864 0 0 0 5.341 1.403c3.22 0 6.11-1.407 8.113-3.63l17.06 12.502a8.69 8.69 0 0 0-1.11 4.252c0 4.825 3.926 8.75 8.75 8.75 4.825 0 8.75-3.925 8.75-8.75 0-4.824-3.925-8.75-8.75-8.75Zm0-33.907a6.57 6.57 0 0 1 6.562 6.563 6.569 6.569 0 0 1-6.563 6.562A6.569 6.569 0 0 1 52.5 22.97a6.57 6.57 0 0 1 6.563-6.563Zm-30.626-5.468A6.57 6.57 0 0 1 35 4.375a6.57 6.57 0 0 1 6.563 6.563A6.57 6.57 0 0 1 35 17.5a6.57 6.57 0 0 1-6.563-6.563Zm-24.062 0a6.57 6.57 0 0 1 6.563-6.563 6.57 6.57 0 0 1 6.562 6.563 6.57 6.57 0 0 1-6.563 6.562 6.57 6.57 0 0 1-6.562-6.563ZM17.5 56.874a6.57 6.57 0 0 1-6.563 6.563 6.57 6.57 0 0 1-6.562-6.563 6.57 6.57 0 0 1 6.563-6.563 6.57 6.57 0 0 1 6.562 6.563Zm8.75-13.125c-4.825 0-8.75-3.925-8.75-8.75s3.925-8.75 8.75-8.75S35 30.175 35 35s-3.925 8.75-8.75 8.75Zm32.813 21.875a6.57 6.57 0 0 1-6.563-6.563 6.57 6.57 0 0 1 6.563-6.562 6.57 6.57 0 0 1 6.562 6.563 6.57 6.57 0 0 1-6.563 6.562Z"/><path fill="#1DBBBA" d="m8.75 57.516-1.414-1.414-1.547 1.546 2.188 2.188a1.09 1.09 0 0 0 1.546 0l5.469-5.47-1.547-1.546-4.695 4.696Z"/></svg>