<svg xmlns="http://www.w3.org/2000/svg" width="70" height="70" fill="none"><path fill="#1DBBBA" d="M65.998 33.871h-7.29v-3.387a5.652 5.652 0 0 0-5.644-5.645h-1.13V4.517A4.52 4.52 0 0 0 47.42.001H4.516A4.52 4.52 0 0 0 0 4.517v11.29h6.774v4.516H5.645A5.652 5.652 0 0 0 0 25.968v39.516h.045c-.021.17-.045.341-.045.515a4.006 4.006 0 0 0 4.001 4h51.58a4.019 4.019 0 0 0 3.752-2.61l10.418-28.128A3.99 3.99 0 0 0 70 37.874a4.008 4.008 0 0 0-4.002-4.003Zm-12.934-6.774a3.391 3.391 0 0 1 3.387 3.387v3.387h-4.516v-6.774h1.129Zm-3.387-22.58v29.354H14.419a4.017 4.017 0 0 0-3.752 2.61l-1.635 4.413V4.517c0-.826-.24-1.591-.628-2.258H47.42a2.26 2.26 0 0 1 2.258 2.258ZM2.258 13.549V4.517a2.26 2.26 0 0 1 2.258-2.258 2.26 2.26 0 0 1 2.258 2.258v9.032H2.258Zm3.387 9.032h1.13v24.41L2.257 59.184V25.968a3.391 3.391 0 0 1 3.387-3.387Zm61.987 15.897L57.215 66.604a1.749 1.749 0 0 1-1.635 1.138H4.001a1.744 1.744 0 0 1-1.634-2.349l10.417-28.126a1.749 1.749 0 0 1 1.635-1.138h51.58a1.744 1.744 0 0 1 1.633 2.349Z"/><path fill="#1DBBBA" d="M38.82 65.484h16.073l3.387-6.774H42.207l-3.387 6.774Zm4.783-4.516h11.023l-1.128 2.258H42.474l1.13-2.258Zm3.818-56.451H11.293v13.548h36.128V4.517Zm-2.258 11.29H13.551V6.775h31.612v9.032Zm-33.87 4.516h23.71v2.258h-23.71v-2.258Zm0 4.516h36.128v2.258H11.293v-2.258Zm0 4.516h29.354v2.258H11.293v-2.258Zm31.609 0h4.516v2.258h-4.516v-2.258Z"/></svg>