<svg xmlns="http://www.w3.org/2000/svg" width="70" height="70" fill="none"><g fill="#1DBBBA" clip-path="url(#a)"><path d="M35 35a1.43 1.43 0 0 1-.58-.122L.878 20.294a1.454 1.454 0 0 1 0-2.671L34.42 3.039c.37-.163.79-.163 1.16 0l33.542 14.584a1.454 1.454 0 0 1 0 2.671L35.58 34.879A1.43 1.43 0 0 1 35 35ZM5.116 18.96 35 31.952 64.884 18.96 35 5.965 5.116 18.959Z"/><path d="M35 46.667c-.198 0-.397-.041-.58-.123L.878 31.961a1.454 1.454 0 0 1 0-2.672l13.417-5.833a1.457 1.457 0 0 1 1.919.755 1.46 1.46 0 0 1-.756 1.92L5.116 30.624 35 43.619l29.884-12.994-10.34-4.497a1.457 1.457 0 0 1-.755-1.92 1.453 1.453 0 0 1 1.92-.755l13.416 5.833c.53.234.875.759.875 1.339s-.344 1.105-.878 1.336L35.58 46.544a1.431 1.431 0 0 1-.58.123Z"/><path d="M35 58.334c-.198 0-.397-.041-.58-.123L.878 43.628a1.454 1.454 0 0 1 0-2.672l13.417-5.833a1.46 1.46 0 0 1 1.163 2.674L5.116 42.292 35 55.286l29.884-12.994-10.34-4.498a1.457 1.457 0 0 1-.755-1.919 1.453 1.453 0 0 1 1.92-.755l13.416 5.833c.53.233.875.758.875 1.339 0 .58-.344 1.105-.878 1.336L35.58 58.21a1.431 1.431 0 0 1-.58.123Z"/><path d="M35 70a1.42 1.42 0 0 1-.58-.122L.878 55.295a1.454 1.454 0 0 1 0-2.672l13.417-5.833a1.46 1.46 0 0 1 1.164 2.675L5.115 53.958 35 66.953l29.884-12.994-10.34-4.498a1.457 1.457 0 0 1-.755-1.919 1.453 1.453 0 0 1 1.92-.755l13.416 5.833c.53.233.875.758.875 1.339 0 .58-.344 1.105-.878 1.336L35.58 69.878a1.431 1.431 0 0 1-.58.123Z"/></g><defs><clipPath id="a"><path fill="#fff" d="M0 0h70v70H0z"/></clipPath></defs></svg>