<svg xmlns="http://www.w3.org/2000/svg" width="70" height="70" fill="none"><path fill="#1DBBBA" d="M62.725 53.824a4.12 4.12 0 0 0-4.116 4.116 4.12 4.12 0 0 0 4.116 4.116 4.12 4.12 0 0 0 4.116-4.116 4.12 4.12 0 0 0-4.116-4.116Zm0 6.181a2.067 2.067 0 0 1-2.065-2.065c0-1.139.927-2.065 2.065-2.065 1.14 0 2.066.926 2.066 2.065a2.067 2.067 0 0 1-2.066 2.065Z"/><path fill="#1DBBBA" d="M63.75 50.739v-13.26l3.17-4.407a1.025 1.025 0 0 0-.833-1.624H63.75v-12.41c3.528-.5 6.25-3.537 6.25-7.2 0-4.012-3.264-7.276-7.275-7.276-3.501 0-6.432 2.487-7.121 5.786H52.21V6.06a1.66 1.66 0 0 0-1.657-1.657H19.196a1.66 1.66 0 0 0-1.657 1.657v4.288h-7.11a4.19 4.19 0 0 0-4.184 4.184V28.72C2.72 29.22 0 32.258 0 35.919c0 3.662 2.72 6.7 6.245 7.201v3.758l-3.168 4.405a1.025 1.025 0 0 0 .832 1.625h2.336v2.56a4.19 4.19 0 0 0 4.184 4.185h7.11v4.287a1.66 1.66 0 0 0 1.657 1.657h4.32a1.025 1.025 0 0 0 0-2.05H19.59V52.793h30.569v10.754H28.301a1.025 1.025 0 0 0 0 2.05h22.252a1.66 1.66 0 0 0 1.657-1.657v-4.287h3.445c.773 3.187 3.648 5.562 7.07 5.562 4.011 0 7.275-3.263 7.275-7.275 0-3.663-2.722-6.701-6.25-7.201Zm.337-17.24-1.362 1.893-1.362-1.894h2.724ZM62.724 6.612a5.23 5.23 0 0 1 5.224 5.224 5.23 5.23 0 0 1-5.224 5.225 5.23 5.23 0 0 1-5.224-5.225 5.23 5.23 0 0 1 5.224-5.224ZM5.91 50.857l1.361-1.894 1.362 1.894H5.91Zm27.939-.115H19.196a1.66 1.66 0 0 0-1.657 1.657v5.203h-7.11a2.136 2.136 0 0 1-2.133-2.134v-2.56h2.337a1.025 1.025 0 0 0 .833-1.625l-3.17-4.408v-3.751a7.225 7.225 0 0 0 5.516-4.01 1.026 1.026 0 0 0-1.842-.902 5.194 5.194 0 0 1-4.695 2.932 5.23 5.23 0 0 1-5.224-5.225 5.23 5.23 0 0 1 5.224-5.224 5.227 5.227 0 0 1 4.937 3.517 1.026 1.026 0 0 0 1.939-.67 7.28 7.28 0 0 0-5.855-4.825V14.534c0-1.177.957-2.134 2.133-2.134h7.11v5.2c0 .914.743 1.657 1.657 1.657h14.653v6.37H19.196a1.66 1.66 0 0 0-1.657 1.657v15.809a1.66 1.66 0 0 0 1.657 1.657h14.653v5.991Zm16.31-23.063v15.022h-30.57V27.679h30.57Zm5.3 29.923h-3.25V52.4a1.66 1.66 0 0 0-1.656-1.658H35.9v-5.99h14.653a1.66 1.66 0 0 0 1.657-1.658V27.285a1.66 1.66 0 0 0-1.657-1.657H35.9v-6.37h6.346a1.025 1.025 0 1 0 0-2.05H19.59V6.454h30.569v10.753h-3.128a1.025 1.025 0 1 0 0 2.051h3.522a1.66 1.66 0 0 0 1.657-1.657V12.4h3.264a7.286 7.286 0 0 0 6.226 6.64v12.409h-2.337a1.025 1.025 0 0 0-.832 1.624L61.7 37.48v13.26a7.286 7.286 0 0 0-6.242 6.863Zm7.266 5.562A5.23 5.23 0 0 1 57.5 57.94a5.23 5.23 0 0 1 5.224-5.224 5.23 5.23 0 0 1 5.224 5.224 5.23 5.23 0 0 1-5.224 5.224Z"/><path fill="#1DBBBA" d="M62.725 15.954a4.12 4.12 0 0 0 4.116-4.116 4.12 4.12 0 0 0-4.116-4.116 4.12 4.12 0 0 0-4.116 4.116 4.12 4.12 0 0 0 4.116 4.116Zm0-6.182c1.14 0 2.066.927 2.066 2.066a2.067 2.067 0 0 1-2.066 2.065 2.067 2.067 0 0 1-2.065-2.065c0-1.14.927-2.066 2.065-2.066ZM7.276 31.804A4.12 4.12 0 0 0 3.16 35.92a4.12 4.12 0 0 0 4.116 4.116 4.12 4.12 0 0 0 4.116-4.116 4.12 4.12 0 0 0-4.116-4.116Zm0 6.181a2.067 2.067 0 0 1-2.065-2.065c0-1.14.926-2.066 2.065-2.066 1.14 0 2.065.927 2.065 2.066a2.067 2.067 0 0 1-2.065 2.065Zm16.128-5.617H46.34a1.025 1.025 0 1 0 0-2.05H23.404a1.025 1.025 0 0 0 0 2.05Zm0 3.848H46.34a1.025 1.025 0 1 0 0-2.051H23.404a1.025 1.025 0 0 0 0 2.05Zm18.012 1.796H28.338a1.025 1.025 0 0 0 0 2.05h13.078a1.025 1.025 0 1 0 0-2.05Zm5.952-28.22c0-.566-.459-1.025-1.025-1.025H23.408a1.025 1.025 0 0 0 0 2.05h22.935c.566 0 1.025-.459 1.025-1.025Zm-6.281 2.822H28.662a1.025 1.025 0 1 0 0 2.051h12.425a1.025 1.025 0 1 0 0-2.05ZM29.92 60.7v-4.947c0-.792-.644-1.436-1.435-1.436h-4.948c-.791 0-1.435.644-1.435 1.436V60.7c0 .792.643 1.436 1.435 1.436h4.948c.791 0 1.435-.644 1.435-1.436Zm-2.05-.615h-3.718v-3.717h3.717v3.717Zm5.105-2.733H46.62a1.025 1.025 0 1 0 0-2.05H32.975a1.025 1.025 0 1 0 0 2.05Zm0 3.518H46.62a1.025 1.025 0 1 0 0-2.05H32.975a1.025 1.025 0 0 0 0 2.05Z"/></svg>