<svg xmlns="http://www.w3.org/2000/svg" width="70" height="70" fill="none"><path fill="#1DBBBA" d="M68.833 67.667h-4.666V35a3.504 3.504 0 0 0-3.5-3.5v-7a3.504 3.504 0 0 0-3.5-3.5v-7a3.504 3.504 0 0 0-3.5-3.5v-7a3.504 3.504 0 0 0-3.5-3.5H19.833a3.504 3.504 0 0 0-3.5 3.5v7a3.504 3.504 0 0 0-3.5 3.5v7a3.504 3.504 0 0 0-3.5 3.5v7a3.504 3.504 0 0 0-3.5 3.5v32.667H1.167a1.167 1.167 0 1 0 0 2.333h67.666a1.167 1.167 0 0 0 0-2.333ZM18.667 3.5c0-.644.522-1.166 1.166-1.167h30.334c.644 0 1.166.523 1.166 1.167v7H33.715a5.833 5.833 0 0 0-11.43 0h-3.618v-7Zm12.618 7h-6.57a3.48 3.48 0 0 1 6.57 0ZM15.167 14c0-.644.522-1.166 1.166-1.167h37.334c.644 0 1.166.523 1.166 1.167v7H30.215a5.833 5.833 0 0 0-11.43 0h-3.618v-7Zm12.618 7h-6.57a3.48 3.48 0 0 1 6.57 0Zm-16.118 3.5c0-.644.522-1.166 1.166-1.167h44.334c.644 0 1.166.523 1.166 1.167v7H26.715a5.833 5.833 0 0 0-11.43 0h-3.618v-7Zm12.618 7h-6.57a3.48 3.48 0 0 1 6.57 0Zm37.548 36.167H8.167V35c0-.644.522-1.166 1.166-1.167h51.334c.644 0 1.166.523 1.166 1.167v32.667Z"/><path fill="#1DBBBA" d="M19.832 52.5a7 7 0 1 0-7-7 7.008 7.008 0 0 0 7 7Zm0-11.667a4.667 4.667 0 1 1 0 9.334 4.667 4.667 0 0 1 0-9.334ZM55.999 38.5h-24.5a1.167 1.167 0 1 0 0 2.333h24.5a1.167 1.167 0 1 0 0-2.333Zm0 5.834h-24.5a1.167 1.167 0 1 0 0 2.333h24.5a1.167 1.167 0 0 0 0-2.333Zm0 5.833h-24.5a1.167 1.167 0 1 0 0 2.333h24.5a1.167 1.167 0 0 0 0-2.333Zm0 5.833h-42a1.167 1.167 0 1 0 0 2.333h42a1.167 1.167 0 1 0 0-2.333Zm0 5.834h-42a1.167 1.167 0 1 0 0 2.333h42a1.167 1.167 0 1 0 0-2.333Z"/></svg>