<svg width="70" height="70" fill="none" xmlns="http://www.w3.org/2000/svg"><path d="M26.965 18.36h-.407a10.31 10.31 0 0 0 3.85-8.032C30.408 4.633 25.775 0 20.08 0 14.385 0 9.752 4.633 9.752 10.328a10.31 10.31 0 0 0 3.85 8.033h-.407a5.744 5.744 0 0 0-5.738 5.737v12.623h6.885v3.003l-3.585.45.285 2.276 3.3-.412v2.278l-3.585.448.285 2.277 3.3-.413v2.278l-3.585.449.285 2.276 3.3-.413v2.447A9.164 9.164 0 0 0 10.9 60.82c0 5.062 4.118 9.18 9.18 9.18 5.062 0 9.18-4.118 9.18-9.18a9.162 9.162 0 0 0-3.442-7.155v-3.881l3.585-.449-.285-2.277-3.3.412v-2.277l3.585-.45-.285-2.276-3.3.413v-2.278l3.585-.448-.285-2.277-3.3.413v-1.569h6.885V24.098a5.744 5.744 0 0 0-5.738-5.737Zm-14.918-8.032c0-4.428 3.605-8.033 8.033-8.033 4.428 0 8.033 3.605 8.033 8.033 0 4.428-3.605 8.033-8.033 8.033-4.428 0-8.033-3.605-8.033-8.033ZM26.965 60.82a6.892 6.892 0 0 1-6.885 6.885 6.892 6.892 0 0 1-6.885-6.885 6.892 6.892 0 0 1 6.885-6.886 6.892 6.892 0 0 1 6.885 6.886Zm-3.442-19.93v2.277l-6.886.86V41.75l6.886-.86Zm-6.886-1.453v-2.716h6.886v1.856l-6.886.86Zm6.886 6.042v2.278l-6.886.86V46.34l6.886-.86Zm0 4.592v2.244a9.118 9.118 0 0 0-6.886 0v-1.384l6.886-.86Zm6.885-20.235h-2.295v2.295h2.295v2.295H9.752v-2.295h16.066v-2.295H9.752v-5.738a3.447 3.447 0 0 1 3.443-3.442h13.77a3.447 3.447 0 0 1 3.443 3.442v5.738Z" fill="#1DBBBA"/><path d="M20.081 16.065c1.209 0 2.364-.37 3.343-1.074l-1.338-1.865a3.416 3.416 0 0 1-2.005.644 3.447 3.447 0 0 1-3.442-3.442 3.447 3.447 0 0 1 3.442-3.443 3.447 3.447 0 0 1 2.986 5.157l1.988 1.148c.5-.867.764-1.856.764-2.862a5.744 5.744 0 0 0-5.738-5.738 5.744 5.744 0 0 0-5.737 5.738 5.744 5.744 0 0 0 5.737 5.737ZM20.078 56.23a4.595 4.595 0 0 0-4.59 4.59 4.595 4.595 0 0 0 4.59 4.59 4.595 4.595 0 0 0 4.59-4.59 4.595 4.595 0 0 0-4.59-4.59Zm0 6.885a2.297 2.297 0 0 1-2.295-2.295 2.297 2.297 0 0 1 2.295-2.295 2.297 2.297 0 0 1 2.296 2.295 2.297 2.297 0 0 1-2.296 2.295ZM62.539 36.721V24.098a5.744 5.744 0 0 0-5.738-5.737h-.407a10.31 10.31 0 0 0 3.85-8.033C60.244 4.633 55.61 0 49.916 0 44.22 0 39.588 4.633 39.588 10.328a10.31 10.31 0 0 0 3.85 8.033h-.407a5.744 5.744 0 0 0-5.738 5.737v12.623h6.885v3.003l-3.585.45.285 2.276 3.3-.412v2.278l-3.585.448.285 2.277 3.3-.413v2.278l-3.585.449.285 2.276 3.3-.413v2.447a9.164 9.164 0 0 0-3.442 7.155c0 5.062 4.118 9.18 9.18 9.18 5.062 0 9.18-4.118 9.18-9.18a9.162 9.162 0 0 0-3.442-7.155v-3.881l3.584-.449-.284-2.277-3.3.412v-2.277l3.584-.45-.284-2.276-3.3.413v-2.278l3.584-.448-.284-2.277-3.3.413v-1.569h6.885ZM41.883 10.328c0-4.428 3.605-8.033 8.033-8.033 4.428 0 8.033 3.605 8.033 8.033 0 4.428-3.605 8.033-8.033 8.033-4.428 0-8.033-3.605-8.033-8.033ZM56.801 60.82a6.892 6.892 0 0 1-6.885 6.885 6.892 6.892 0 0 1-6.885-6.885 6.892 6.892 0 0 1 6.885-6.886A6.892 6.892 0 0 1 56.8 60.82Zm-3.443-19.93v2.277l-6.885.86V41.75l6.886-.86Zm-6.885-1.453v-2.716h6.886v1.856l-6.886.86Zm6.886 6.042v2.278l-6.886.86V46.34l6.886-.86Zm0 4.592v2.244a9.117 9.117 0 0 0-6.886 0v-1.384l6.886-.86Zm-13.77-15.645v-2.295h16.065v-2.295H39.588v-5.738a3.447 3.447 0 0 1 3.443-3.442H56.8a3.447 3.447 0 0 1 3.443 3.442v5.738h-2.295v2.295h2.295v2.295H39.588Z" fill="#1DBBBA"/><path d="M49.917 16.065a5.744 5.744 0 0 0 5.738-5.738 5.744 5.744 0 0 0-5.738-5.737 5.744 5.744 0 0 0-5.737 5.738 5.744 5.744 0 0 0 5.737 5.737Zm0-9.18a3.447 3.447 0 0 1 3.443 3.443 3.447 3.447 0 0 1-3.443 3.442 3.447 3.447 0 0 1-3.442-3.442 3.447 3.447 0 0 1 3.442-3.443ZM49.914 56.23a4.595 4.595 0 0 0-4.59 4.59 4.595 4.595 0 0 0 7.034 3.886l-1.224-1.94a2.297 2.297 0 0 1-3.515-1.946 2.297 2.297 0 0 1 2.295-2.295 2.297 2.297 0 0 1 2.131 3.147l2.131.852a4.595 4.595 0 0 0-4.262-6.294Z" fill="#1DBBBA"/></svg>