<svg width="70" height="70" fill="none" xmlns="http://www.w3.org/2000/svg"><g clip-path="url(#a)" fill="#1DBBBA"><path d="M50.167 14c.644 0 1.166-.523 1.166-1.167v-7A5.84 5.84 0 0 0 45.5 0H5.834A5.84 5.84 0 0 0 0 5.834v45.5a5.84 5.84 0 0 0 5.834 5.833H45.5a5.84 5.84 0 0 0 5.833-5.834v-7c0-.644-.522-1.166-1.166-1.166h-5.834V14h5.834ZM44.333 2.333H45.5a3.5 3.5 0 0 1 3.5 3.5v5.833h-4.667V2.333ZM42 54.833H5.834a3.5 3.5 0 0 1-3.5-3.5v-45.5a3.5 3.5 0 0 1 3.5-3.5H42v52.5Zm7-9.333v5.833a3.5 3.5 0 0 1-3.5 3.5h-1.167V45.5H49ZM44.335 68.833v-4.666c0-.645-.522-1.167-1.166-1.167h-3.5v-2.333c0-.645-.522-1.167-1.167-1.167h-9.333a1.167 1.167 0 0 0 0 2.333h8.167V63h-28a.16.16 0 0 0-.027.006 1.11 1.11 0 0 0-.342.055l-7 2.333a1.167 1.167 0 0 0 0 2.217l7 2.333c.119.038.243.058.368.056H43.17c.644 0 1.166-.522 1.166-1.167ZM8.17 67.213 6.025 66.5l2.144-.714v1.428Zm29.167.454H10.502v-2.334h26.834v2.334Zm4.666 0H39.67v-2.334h2.333v2.334Z"/><path d="M17.5 19.526v7.308a1.167 1.167 0 0 0 1.815.97l2.852-1.903 2.853 1.9a1.167 1.167 0 0 0 1.814-.967v-7.308a8.166 8.166 0 0 0 2.035-11.369 8.166 8.166 0 0 0-11.368-2.035 8.166 8.166 0 0 0 0 13.404Zm7 5.133-1.685-1.125a1.168 1.168 0 0 0-1.295 0l-1.686 1.12V20.65a8.083 8.083 0 0 0 4.667 0v4.009ZM22.168 7a5.834 5.834 0 1 1-5.833 5.834A5.84 5.84 0 0 1 22.167 7Z"/><path d="M22.168 16.333a3.5 3.5 0 1 0 0-7 3.5 3.5 0 0 0 0 7Zm0-4.667a1.167 1.167 0 1 1 0 2.334 1.167 1.167 0 0 1 0-2.334ZM19.835 30.333a1.167 1.167 0 1 0 0 2.333H24.5a1.167 1.167 0 1 0 0-2.333h-4.666ZM14.001 45.5H5.835a1.167 1.167 0 1 0 0 2.333H14a1.167 1.167 0 1 0 0-2.333ZM10.502 50.167H5.835a1.167 1.167 0 1 0 0 2.333h4.667a1.167 1.167 0 0 0 0-2.333ZM29.168 46.666c0 .645.522 1.167 1.167 1.167H38.5a1.167 1.167 0 1 0 0-2.333h-8.166c-.645 0-1.167.522-1.167 1.166ZM38.5 50.167h-4.666a1.167 1.167 0 0 0 0 2.333h4.667a1.167 1.167 0 1 0 0-2.333ZM10.499 37.333h23.333a1.167 1.167 0 1 0 0-2.333H10.499a1.167 1.167 0 1 0 0 2.333ZM31.501 42a1.167 1.167 0 1 0 0-2.333H12.835a1.167 1.167 0 1 0 0 2.333H31.5Z"/></g><defs><clipPath id="a"><path fill="#fff" d="M0 0h70v70H0z"/></clipPath></defs></svg>