<svg width="70" height="70" fill="none" xmlns="http://www.w3.org/2000/svg"><g clip-path="url(#a)" fill="#1DBBBA"><path d="M16.336 46.083c-3.86 0-7 3.14-7 7s3.14 7 7 7 7-3.14 7-7-3.14-7-7-7Zm0 11.667a4.671 4.671 0 0 1-4.667-4.667 4.671 4.671 0 0 1 4.667-4.667 4.671 4.671 0 0 1 4.667 4.667 4.671 4.671 0 0 1-4.667 4.667ZM56 46.083c-3.86 0-7 3.14-7 7s3.14 7 7 7 7-3.14 7-7-3.14-7-7-7Zm0 11.667a4.671 4.671 0 0 1-4.667-4.667A4.671 4.671 0 0 1 56 48.416a4.671 4.671 0 0 1 4.667 4.667A4.671 4.671 0 0 1 56 57.75Z"/><path d="m69.817 39.618-10.5-16.333a1.167 1.167 0 0 0-.981-.536H45.503c-.646 0-1.167.523-1.167 1.167v29.166c0 .645.521 1.167 1.167 1.167h4.666v-2.334h-3.5V25.083H57.7l9.97 15.51v11.324h-5.833v2.333h7c.645 0 1.166-.521 1.166-1.167V40.25c0-.223-.064-.443-.185-.631Z"/><path d="M51.333 37.916v-8.167h9.334v-2.333h-10.5c-.646 0-1.167.523-1.167 1.167v10.5c0 .645.521 1.166 1.167 1.166h17.5v-2.333H51.333ZM45.5 14.583H1.167C.523 14.583 0 15.106 0 15.75v37.333c0 .645.523 1.167 1.167 1.167H10.5v-2.334H2.333v-35h42v35H22.167v2.334H45.5c.645 0 1.167-.522 1.167-1.167V15.75c0-.644-.522-1.167-1.167-1.167Z"/><path d="M8.168 47.249h-7v2.333h7V47.25ZM44.333 47.249H24.5v2.333h19.833V47.25ZM68.835 47.249h-4.667v2.333h4.667V47.25ZM45.501 19.25H4.668v2.333h40.833V19.25ZM17.501 51.916h-2.333v2.333h2.333v-2.333ZM57.165 51.916h-2.333v2.333h2.333v-2.333ZM21.001 9.916H4.668v2.333h16.333V9.916ZM2.333 9.916H0v2.333h2.333V9.916Z"/></g><defs><clipPath id="a"><path fill="#fff" d="M0 0h70v70H0z"/></clipPath></defs></svg>