<svg width="70" height="70" fill="none" xmlns="http://www.w3.org/2000/svg"><g clip-path="url(#a)" fill="#1DBBBA"><path d="M12.833 65.334c.354 0 .69-.161.91-.438.49-.606 11.924-14.953 11.924-21.729 0-7.087-5.746-12.833-12.834-12.833C5.746 30.334 0 36.08 0 43.167c0 6.776 11.433 21.117 11.924 21.73.22.276.556.437.91.437Zm0-32.667c5.797.007 10.494 4.704 10.5 10.5 0 4.527-6.896 14.425-10.5 19.109-3.603-4.683-10.5-14.58-10.5-19.109.007-5.796 4.704-10.493 10.5-10.5Z"/><path d="M17.497 42a4.667 4.667 0 1 0-9.333.001 4.667 4.667 0 0 0 9.333 0Zm-7 0a2.334 2.334 0 1 1 4.667 0 2.334 2.334 0 0 1-4.667 0ZM60.67 24.5c.34 0 .662-.148.883-.406.866-1.005 8.45-9.956 8.45-14.76A9.333 9.333 0 0 0 60.669 0a9.333 9.333 0 0 0-9.333 9.333c0 4.805 7.583 13.757 8.45 14.76.22.259.543.407.883.407Zm0-22.167a7.007 7.007 0 0 1 7 7c0 2.957-4.455 9.049-7 12.18-2.548-3.131-7-9.217-7-12.18a7.007 7.007 0 0 1 7-7Z"/><path d="M64.168 8.166a3.5 3.5 0 1 0-7 0 3.5 3.5 0 0 0 7 0Zm-4.667 0a1.167 1.167 0 1 1 2.334 0 1.167 1.167 0 0 1-2.334 0ZM59.499 29.166h1.166a1.167 1.167 0 0 0 0-2.333H59.5a1.167 1.167 0 0 0 0 2.333ZM44.332 36.166h2.359a1.167 1.167 0 1 0 0-2.333h-2.378A1.16 1.16 0 0 0 43.156 35c.004.646.53 1.167 1.176 1.166ZM57.414 35c0 .644.522 1.166 1.167 1.166h2.376a1.167 1.167 0 1 0 0-2.333h-2.376c-.645 0-1.167.522-1.167 1.167ZM52.37 29.166h2.377a1.167 1.167 0 1 0 0-2.333H52.37a1.166 1.166 0 1 0 0 2.333ZM21.252 67.666h-2.378a1.167 1.167 0 0 0 0 2.333h2.378a1.167 1.167 0 0 0 0-2.333ZM40.904 33.39a1.167 1.167 0 0 0 1.143-1.406 2.334 2.334 0 0 1 .204-1.546 1.166 1.166 0 1 0-2.08-1.058 4.667 4.667 0 0 0-.407 3.08c.113.54.588.93 1.14.93ZM51.448 36.166h2.378a1.167 1.167 0 1 0 0-2.333h-2.378a1.167 1.167 0 0 0 0 2.333ZM45.237 29.166h2.378a1.167 1.167 0 1 0 0-2.333h-2.378a1.167 1.167 0 0 0 0 2.333ZM33.709 49.44a1.167 1.167 0 0 0 1.414-.85c.15-.6.435-1.158.832-1.633a1.166 1.166 0 1 0-1.786-1.5 6.427 6.427 0 0 0-1.31 2.566 1.164 1.164 0 0 0 .85 1.416ZM56.758 67.617c-.25.033-.503.05-.756.05h-1.468a1.166 1.166 0 1 0 0 2.332h1.468a8.19 8.19 0 0 0 1.05-.067 1.168 1.168 0 0 0-.298-2.315h.004ZM58.381 54.017a8.162 8.162 0 0 0-2.381-.35h-.306a1.167 1.167 0 0 0 0 2.333H56c.576 0 1.15.085 1.702.252a1.167 1.167 0 1 0 .679-2.231v-.004ZM55.895 45.5a1.167 1.167 0 0 0 0-2.333h-2.377a1.167 1.167 0 0 0 0 2.333h2.377ZM62.866 63.64a1.166 1.166 0 0 0-1.542.584 5.823 5.823 0 0 1-1.103 1.633 1.165 1.165 0 0 0 .556 1.96c.412.098.844-.035 1.13-.347a8.13 8.13 0 0 0 1.545-2.288 1.167 1.167 0 0 0-.586-1.542ZM68.974 39.871a1.167 1.167 0 0 0-1.45.79 3.539 3.539 0 0 1-.911 1.509 1.167 1.167 0 1 0 1.633 1.668 5.862 5.862 0 0 0 1.516-2.517 1.167 1.167 0 0 0-.788-1.45ZM67.643 37.719a1.167 1.167 0 0 0 .87-1.946 5.87 5.87 0 0 0-2.45-1.624 1.167 1.167 0 1 0-.76 2.207 3.5 3.5 0 0 1 1.47.975c.222.247.538.388.87.388ZM50.938 53.667H48.56a1.167 1.167 0 0 0 0 2.333h2.377a1.167 1.167 0 0 0 0-2.333ZM63.025 43.167h-2.378a1.167 1.167 0 0 0 0 2.333h2.378a1.167 1.167 0 0 0 0-2.333ZM28.38 67.666h-2.377a1.167 1.167 0 0 0 0 2.333h2.376a1.167 1.167 0 0 0 0-2.333ZM62.758 57.248a1.169 1.169 0 0 0-1.93 1.32c.373.545.65 1.15.817 1.79a1.167 1.167 0 1 0 2.258-.584 8.101 8.101 0 0 0-1.145-2.526ZM37.278 53.248a4.15 4.15 0 0 1-1.42-1.161 1.166 1.166 0 1 0-1.843 1.431 6.474 6.474 0 0 0 2.23 1.822 1.167 1.167 0 0 0 1.033-2.092ZM35.512 67.666h-2.38a1.167 1.167 0 0 0 0 2.333h2.38a1.167 1.167 0 0 0 0-2.333ZM49.778 67.666H47.4a1.167 1.167 0 0 0 0 2.333h2.377a1.167 1.167 0 0 0 0-2.333ZM41.63 45.5a1.167 1.167 0 0 0 0-2.333h-2.377a1.167 1.167 0 0 0 0 2.333h2.376ZM48.764 45.5a1.167 1.167 0 0 0 0-2.333H46.38a1.167 1.167 0 0 0 0 2.333h2.383ZM43.81 53.667h-2.378a1.167 1.167 0 0 0 0 2.333h2.377a1.166 1.166 0 1 0 0-2.333ZM42.646 67.666h-2.378a1.167 1.167 0 0 0 0 2.333h2.378a1.167 1.167 0 0 0 0-2.333ZM14.001 67.666h-1.166a1.167 1.167 0 0 0 0 2.333H14a1.167 1.167 0 0 0 0-2.333Z"/></g><defs><clipPath id="a"><path fill="#fff" d="M0 0h70v70H0z"/></clipPath></defs></svg>