<svg xmlns="http://www.w3.org/2000/svg" width="70" height="70" fill="none"><g fill="#1DBBBA" clip-path="url(#a)"><path d="M69.511 40.584a1.367 1.367 0 0 0-1.33-1.05c-1.862 0-5.202-.928-8.026-2.155v-5.933a4.106 4.106 0 0 0-4.102-4.102H53.32V2.735A2.737 2.737 0 0 0 50.585.001H9.57a2.737 2.737 0 0 0-2.734 2.734v16.407H2.734A2.737 2.737 0 0 0 0 21.876v39.647a4.106 4.106 0 0 0 4.101 4.102H48.51c1.608 1.486 3.514 2.904 5.773 4.194a1.366 1.366 0 0 0 1.356 0c9.461-5.4 12.736-13.054 13.817-18.523 1.168-5.911.102-10.519.056-10.712zM9.571 2.735h41.014v24.61H26.902l-2.292-5.73c-.601-1.502-1.99-2.474-3.539-2.474h-11.5V2.735zM2.733 61.523v-1.367h7.109a1.367 1.367 0 1 0 0-2.734H2.734V21.876h18.337c.482 0 .85.38 1 .755l2.636 6.588c.207.52.71.86 1.27.86h30.076a1.37 1.37 0 0 1 1.368 1.367v4.532c-.606-.375-1.121-.756-1.5-1.13a1.367 1.367 0 0 0-1.922 0c-2.243 2.217-9.222 4.685-12.26 4.685-.633 0-1.184.435-1.33 1.051-.046.193-1.112 4.8.056 10.712.668 3.38 2.175 7.594 5.46 11.595H4.102a1.369 1.369 0 0 1-1.367-1.368zm64.038-10.757c-1.365 6.904-5.337 12.378-11.812 16.281-6.44-3.881-10.405-9.319-11.79-16.172-.776-3.836-.497-7.115-.272-8.679 3.527-.397 9.098-2.389 12.062-4.59 2.964 2.202 8.537 4.194 12.065 4.59.223 1.544.5 4.76-.253 8.57z"/><path d="M14.56 8.204h31.034a1.367 1.367 0 1 0 0-2.735H14.56a1.367 1.367 0 1 0 0 2.735zm32.402 4.101c0-.755-.612-1.367-1.368-1.367H14.56a1.367 1.367 0 1 0 0 2.734h31.034c.755 0 1.368-.612 1.368-1.367zm-1.368 4.102H30.077a1.367 1.367 0 1 0 0 2.734h15.517a1.367 1.367 0 1 0 0-2.734zm0 5.468h-8.066a1.367 1.367 0 1 0 0 2.735h8.066a1.367 1.367 0 1 0 0-2.735zm14.473 22.913a4.075 4.075 0 0 0-2.9 1.202l-3.773 3.773-.642-.641a4.074 4.074 0 0 0-2.9-1.201 4.074 4.074 0 0 0-2.9 1.2 4.074 4.074 0 0 0-1.2 2.9c0 1.096.426 2.126 1.2 2.9l3.542 3.542c.8.8 1.85 1.2 2.9 1.2 1.05 0 2.1-.4 2.9-1.2l6.673-6.673a4.106 4.106 0 0 0 0-5.8 4.073 4.073 0 0 0-2.9-1.202zm.966 5.068-6.673 6.673c-.533.533-1.4.533-1.933 0l-3.54-3.54a1.357 1.357 0 0 1-.401-.967c0-.365.142-.709.4-.967s.601-.4.966-.4c.366 0 .709.142.967.4l1.608 1.608a1.367 1.367 0 0 0 1.933 0l4.74-4.74c.258-.258.602-.4.967-.4s.708.142.966.4c.533.533.533 1.4 0 1.933zm-45.038 7.566a1.367 1.367 0 1 0 0 2.734 1.367 1.367 0 1 0 0-2.734z"/></g><defs><clipPath id="a"><path fill="#fff" d="M0 0h70v70H0z"/></clipPath></defs></svg>