<svg xmlns="http://www.w3.org/2000/svg" width="70" height="70" fill="none"><path fill="#1DBBBA" d="M64.555 6.578a7.01 7.01 0 0 0-9.602 2.424l-1.249 2.091-2.109 3.533v-2.291a4.898 4.898 0 0 0-4.892-4.893h-2.447v-2.55A4.898 4.898 0 0 0 39.364 0H4.893A4.898 4.898 0 0 0 0 4.893v52.772a4.898 4.898 0 0 0 4.893 4.893h2.446v2.55A4.898 4.898 0 0 0 12.232 70h34.47a4.898 4.898 0 0 0 4.893-4.892V41.87a8.81 8.81 0 0 0 .441-.66L65.73 18.271l1.25-2.092a7.01 7.01 0 0 0-2.424-9.602zM57.3 10.403a4.242 4.242 0 0 1 2.62-1.951 4.242 4.242 0 0 1 3.232.474 4.274 4.274 0 0 1 1.478 5.852l-.549.919-1.104-.66-6.225-3.716.548-.918zm-9.758 31.544-3.916 2.321a1.504 1.504 0 0 1-1.403.084 1.512 1.512 0 0 1-.915-1.467l.186-4.549v-.008c.003-.07.01-.14.015-.21l6.218 3.712c-.062.038-.122.08-.185.117zM4.893 59.824a2.16 2.16 0 0 1-2.159-2.159V4.892a2.16 2.16 0 0 1 2.159-2.158h34.47a2.16 2.16 0 0 1 2.159 2.159v2.549h-29.29a4.899 4.899 0 0 0-4.893 4.893v47.49H4.892zm43.968 5.284a2.16 2.16 0 0 1-2.158 2.158h-34.47a2.16 2.16 0 0 1-2.16-2.159V12.336c0-1.19.969-2.16 2.16-2.16h34.47a2.16 2.16 0 0 1 2.158 2.16v6.871l-8.85 14.825a8.91 8.91 0 0 0-.179.317l-.041.077a9.84 9.84 0 0 0-.157.31 8.787 8.787 0 0 0-.158.35l-.035.082c-.04.098-.08.197-.118.297l-.013.034-.001.002v.002l-.005.012c-.035.097-.07.195-.102.292l-.035.115a6.884 6.884 0 0 0-.055.178l-.002.008-.001.002-.038.137a9.27 9.27 0 0 0-.042.16l-.038.15-.036.166-.045.222-.036.201-.022.14a9.734 9.734 0 0 0-.06.514c-.004.037-.008.074-.01.112l-.007.096c-.006.075-.01.147-.013.218l-.185 4.549a4.269 4.269 0 0 0 2.078 3.84c.06.036.121.068.182.1l.074.041c.032.017.066.03.098.045.055.027.11.054.166.078.022.01.044.017.066.026.067.027.135.054.203.078.019.006.037.01.055.017.073.024.146.048.219.068l.046.01c.077.021.154.04.232.056l.037.006c.08.016.162.03.243.041l.039.004c.081.01.163.02.245.025h.037c.082.005.164.01.246.01l.05-.002a4.24 4.24 0 0 0 .232-.008l.04-.004a4.153 4.153 0 0 0 1.856-.584l3.84-2.276v20.763zm.828-25.3-.004.005-7.329-4.375a.027.027 0 0 0 .003-.005L55.35 13.669l1.104.66 6.226 3.716-12.992 21.763z"/><path fill="#1DBBBA" d="m55.29 19.43-6.926 11.602a1.368 1.368 0 0 0 2.348 1.402l6.927-11.603a1.368 1.368 0 0 0-2.349-1.401zm-37.27.836h22.894a1.367 1.367 0 0 0 0-2.734H18.02a1.367 1.367 0 0 0 0 2.734zm0 9.845H39a1.367 1.367 0 0 0 0-2.734H18.02a1.368 1.368 0 0 0 0 2.734zm16.073 7.111H18.021a1.368 1.368 0 0 0 0 2.734h16.072a1.367 1.367 0 0 0 0-2.734zm5.556 10.689a1.452 1.452 0 0 0-.295-.444 1.383 1.383 0 0 0-1.49-.295 1.4 1.4 0 0 0-.444.295 1.373 1.373 0 0 0 0 1.935c.255.254.607.4.967.4s.712-.146.966-.4c.254-.256.401-.607.401-.967a1.38 1.38 0 0 0-.105-.524zm-7.345-.843H18.021a1.367 1.367 0 0 0 0 2.734h14.283a1.367 1.367 0 1 0 0-2.734z"/></svg>