<svg xmlns="http://www.w3.org/2000/svg" width="70" height="70" fill="none"><path fill="#1DBBBA" d="M18.04 4.51H4.51v31.57h13.53V4.51zm-2.255 29.315h-9.02V6.765h9.02v27.06zm-4.51 27.059a6.772 6.772 0 0 0 6.764-6.765 6.772 6.772 0 0 0-6.764-6.765A6.772 6.772 0 0 0 4.51 54.12a6.772 6.772 0 0 0 6.765 6.765zm0-11.275a4.514 4.514 0 0 1 4.51 4.51 4.514 4.514 0 0 1-4.51 4.51 4.514 4.514 0 0 1-4.51-4.51 4.514 4.514 0 0 1 4.51-4.51zm2.255-11.275H4.51v2.255h9.02v-2.255zm4.51 0h-2.255v2.255h2.255v-2.255zM38.334 4.51h-13.53v31.57h13.53V4.51zm-2.255 29.315h-9.02V6.765h9.02v27.06zM31.57 60.884a6.772 6.772 0 0 0 6.764-6.765 6.772 6.772 0 0 0-6.765-6.765 6.772 6.772 0 0 0-6.765 6.765 6.772 6.772 0 0 0 6.765 6.765zm0-11.275a4.514 4.514 0 0 1 4.509 4.51 4.514 4.514 0 0 1-4.51 4.51 4.514 4.514 0 0 1-4.51-4.51 4.514 4.514 0 0 1 4.51-4.51zm2.254-11.275h-9.02v2.255h9.02v-2.255zm4.51 0h-2.255v2.255h2.255v-2.255z"/><path fill="#1DBBBA" d="m63.913.617-21.07 1.877V0H0v69.903h42.844V18.221L47.458 70 70 67.99 63.913.617zM20.294 67.65H2.254V2.255h18.04V67.65zm20.295 0h-18.04V2.255h18.04V67.65zM43.9 4.664l17.97-1.601 5.682 62.882-18.047 1.608L43.9 4.663z"/><path fill="#1DBBBA" d="M59.822 5.508 46.345 6.71l2.603 29.198 13.475-1.2-2.6-29.2zm-11.03 3.247 8.984-.8 2.2 24.706-8.983.8-2.202-24.706zm15.233 43.921a6.763 6.763 0 0 0-7.34-6.138 6.772 6.772 0 0 0-6.136 7.339 6.722 6.722 0 0 0 2.398 4.588 6.717 6.717 0 0 0 4.94 1.55 6.772 6.772 0 0 0 6.138-7.34zm-6.338 5.093a4.47 4.47 0 0 1-3.293-1.033 4.485 4.485 0 0 1-1.6-3.059 4.514 4.514 0 0 1 4.496-4.91 4.515 4.515 0 0 1 4.489 4.11 4.514 4.514 0 0 1-4.092 4.892zm.438-20.419-8.982.801.2 2.246 8.982-.8-.2-2.247zm2.455 2.047 2.246-.2-.2-2.246-2.247.2.2 2.246z"/></svg>