<svg xmlns="http://www.w3.org/2000/svg" width="70" height="70" fill="none"><g fill="#1DBBBA" clip-path="url(#a)"><path d="M22.6 14.151a4.481 4.481 0 0 0 4.477-4.476A4.482 4.482 0 0 0 22.6 5.198a4.482 4.482 0 0 0-4.476 4.477 4.482 4.482 0 0 0 4.477 4.476zm0-6.902a2.428 2.428 0 0 1 2.426 2.426 2.428 2.428 0 0 1-2.425 2.425 2.428 2.428 0 0 1-2.426-2.425A2.428 2.428 0 0 1 22.6 7.249zm6.979 17.764H15.622a3.08 3.08 0 0 0-3.076 3.077v13.324a3.08 3.08 0 0 0 3.076 3.076H29.58a3.08 3.08 0 0 0 3.076-3.076V28.09a3.08 3.08 0 0 0-3.076-3.077zm-5.68 2.051V42.44h-2.597V27.064H23.9zm-9.302 14.35V28.09c0-.566.46-1.026 1.025-1.026h3.63V42.44h-3.63c-.565 0-1.025-.46-1.025-1.026zm16.007 0c0 .566-.46 1.026-1.025 1.026h-3.63V27.064h3.63c.566 0 1.025.46 1.025 1.026v13.324zm18.413-18.219a1.025 1.025 0 1 0 0-2.05 1.025 1.025 0 0 0 0 2.05zm4.187 0h8.325a1.025 1.025 0 1 0 0-2.05h-8.325a1.025 1.025 0 1 0 0 2.05zm-4.187 5.035a1.025 1.025 0 1 0 0-2.051 1.025 1.025 0 0 0 0 2.05zm4.187 0h8.325a1.025 1.025 0 1 0 0-2.051h-8.325a1.025 1.025 0 1 0 0 2.05zm-4.187 5.034a1.025 1.025 0 1 0 0-2.05 1.025 1.025 0 0 0 0 2.05zm4.187 0h8.325a1.025 1.025 0 1 0 0-2.05h-8.325a1.025 1.025 0 1 0 0 2.05z"/><path d="M66.256 12.242H53.779a1.025 1.025 0 1 0 0 2.051h12.477c.934 0 1.693.76 1.693 1.694v33.75H42.43V14.293h7.247a1.025 1.025 0 1 0 0-2.05H31.446a9.19 9.19 0 0 0 .383-2.623c0-2.506-.988-4.85-2.78-6.602a9.17 9.17 0 0 0-6.67-2.624c-4.821.113-8.86 4.127-9.003 8.946-.03 1 .103 1.978.377 2.902H3.744A3.749 3.749 0 0 0 0 15.987v39.845a3.748 3.748 0 0 0 3.744 3.744h22.738l-1.1 7.982h-3.31a1.025 1.025 0 0 0 0 2.05h25.875a1.025 1.025 0 1 0 0-2.05h-3.31l-1.1-7.982h7.997a1.025 1.025 0 1 0 0-2.05H3.744c-.934 0-1.693-.76-1.693-1.694v-4.044h65.898v4.044c0 .934-.76 1.694-1.693 1.694h-10.62a1.025 1.025 0 0 0 0 2.05h10.62A3.748 3.748 0 0 0 70 55.832V15.987a3.748 3.748 0 0 0-3.744-3.745zm-23.69 55.316H27.454l1.099-7.982h12.916l1.099 7.982zM15.427 9.401c.054-1.798.816-3.517 2.147-4.84 1.332-1.323 3.055-2.074 4.854-2.117l.174-.002c1.887 0 3.662.722 5.014 2.043a7.123 7.123 0 0 1 2.163 5.135 7.202 7.202 0 0 1-4.185 6.526c-.328.15-.611.388-.818.686l-2.174 3.138-2.175-3.138a2.02 2.02 0 0 0-.816-.685A7.175 7.175 0 0 1 15.426 9.4zM2.051 15.987c0-.934.76-1.694 1.693-1.694h10.898a9.22 9.22 0 0 0 4.102 3.713l2.532 3.653a1.612 1.612 0 0 0 2.65 0l2.531-3.653a9.238 9.238 0 0 0 4.095-3.713h9.827v35.444H2.051v-33.75z"/><path d="M46.967 41.502v1.695a2.872 2.872 0 0 0 2.868 2.869H61.16a2.872 2.872 0 0 0 2.868-2.869v-1.695a2.872 2.872 0 0 0-2.868-2.869H49.835a2.871 2.871 0 0 0-2.868 2.869zm2.05 0c0-.451.367-.818.818-.818H61.16c.45 0 .817.367.817.818v1.695a.818.818 0 0 1-.817.818H49.835a.819.819 0 0 1-.818-.818v-1.695z"/></g><defs><clipPath id="a"><path fill="#fff" d="M0 0h70v70H0z"/></clipPath></defs></svg>