<svg width="70" height="70" fill="none" xmlns="http://www.w3.org/2000/svg"><path d="M35.038 31.754a2.333 2.333 0 00-.996 4.44v2.837a.996.996 0 101.993 0v-2.836a2.332 2.332 0 00-.997-4.441z" fill="#1DBBBA"/><path d="M59.902 15.196c-4.289-1.697-7.693-4.823-9.585-8.8a3.148 3.148 0 00-2.834-1.782H22.517c-1.206 0-2.319.7-2.834 1.781-1.892 3.978-5.296 7.104-9.585 8.801a3.122 3.122 0 00-1.98 2.922v6.072c0 7.96 2.321 15.822 6.713 22.738 4.434 6.984 10.858 12.821 18.58 16.88l.125.065a3.145 3.145 0 002.928 0l.126-.066c7.721-4.058 14.146-9.895 18.58-16.879 4.391-6.916 6.712-14.779 6.712-22.738v-6.072a3.122 3.122 0 00-1.98-2.922zm-.012 8.994c0 7.58-2.214 15.074-6.402 21.67-4.248 6.691-10.412 12.287-17.825 16.184l-.126.066a1.153 1.153 0 01-1.074 0l-.126-.066C26.924 58.147 20.76 52.55 16.512 45.86c-4.188-6.597-6.402-14.09-6.402-21.671v-6.072c0-.476.284-.896.721-1.07 4.76-1.882 8.542-5.362 10.652-9.797a1.146 1.146 0 011.034-.644h24.966c.442 0 .848.253 1.034.644 2.11 4.435 5.893 7.915 10.652 9.798.438.173.72.593.72 1.069v6.072z" fill="#1DBBBA"/><path d="M64.897 33.644a.996.996 0 00-1.192.752c-3.034 13.422-12.274 25.063-25.352 31.937l-3.04 1.597a.674.674 0 01-.626 0l-3.04-1.597C18.55 59.448 9.305 47.788 6.284 34.341a.996.996 0 10-1.944.437C7.489 48.794 17.104 60.94 30.72 68.097l3.039 1.597a2.667 2.667 0 002.48 0l3.04-1.598c13.595-7.145 23.206-19.269 26.369-33.26a.996.996 0 00-.752-1.192zM64.412 11.4c-5.32-.562-9.503-4.296-10.172-9.08C54.055.996 52.918 0 51.597 0H18.404c-1.322 0-2.458.997-2.643 2.32-.67 4.784-4.853 8.518-10.172 9.08a2.648 2.648 0 00-2.365 2.648v10.697c0 1.555.08 3.126.24 4.671a.996.996 0 001.982-.203 43.867 43.867 0 01-.23-4.468V14.048c0-.34.256-.633.582-.668 6.23-.657 11.14-5.092 11.936-10.785a.681.681 0 01.67-.603h33.193c.339 0 .62.254.67.603.796 5.693 5.704 10.128 11.935 10.785a.668.668 0 01.581.668v10.697c0 1.471-.075 2.959-.224 4.422a.996.996 0 001.982.201c.156-1.53.235-3.085.235-4.623V14.048a2.648 2.648 0 00-2.364-2.649z" fill="#1DBBBA"/><path d="M46.41 24.864h-1.637V20.11c0-5.368-4.367-9.734-9.735-9.734-5.367 0-9.734 4.367-9.734 9.734v4.755h-1.638a3.172 3.172 0 00-3.168 3.169v14.263a3.172 3.172 0 003.168 3.169H46.41a3.172 3.172 0 003.169-3.169V28.033a3.172 3.172 0 00-3.169-3.169zM27.297 20.11c0-4.269 3.473-7.742 7.741-7.742 4.27 0 7.742 3.473 7.742 7.742v4.755H27.297V20.11zm20.29 22.187c0 .649-.528 1.176-1.177 1.176H23.666a1.177 1.177 0 01-1.176-1.176V28.033c0-.649.528-1.176 1.176-1.176H46.41c.649 0 1.177.527 1.177 1.176v14.263z" fill="#1DBBBA"/></svg>