<svg xmlns="http://www.w3.org/2000/svg" width="70" height="70" fill="none"><g fill="#1DBBBA" clip-path="url(#a)"><path d="M68.633 64.531h-2.336v-31.59c0-.756-.612-1.368-1.367-1.368h-9.844c-.755 0-1.367.612-1.367 1.368v31.59h-4.094V45.345c0-.755-.612-1.367-1.367-1.367h-9.844c-.755 0-1.367.612-1.367 1.367v19.186h-4.094v-8.96a1.367 1.367 0 1 0-2.734 0v8.96h-7.11V34.308h7.11v8.96a1.367 1.367 0 1 0 2.734 0V32.94c0-.756-.612-1.368-1.367-1.368h-9.844c-.755 0-1.367.612-1.367 1.368v31.59h-4.094V45.345c0-.755-.612-1.367-1.367-1.367H5.07c-.755 0-1.367.612-1.367 1.367v19.186H1.367a1.367 1.367 0 1 0 0 2.735h67.266a1.367 1.367 0 1 0 0-2.735zm-62.196 0V46.712h7.11v17.82h-7.11zm33.344 0V46.712h7.11v17.82h-7.11zm16.672 0V34.308h7.11V64.53h-7.11z"/><path d="M9.992 31.985a6.296 6.296 0 0 0 6.289-6.29 6.25 6.25 0 0 0-.983-3.369l7.997-7.996a6.25 6.25 0 0 0 3.369.982 6.25 6.25 0 0 0 3.369-.982l7.998 7.998a6.25 6.25 0 0 0-.984 3.371 6.296 6.296 0 0 0 6.289 6.29 6.296 6.296 0 0 0 6.29-6.29 6.25 6.25 0 0 0-.985-3.371l7.998-7.998a6.25 6.25 0 0 0 3.369.982 6.296 6.296 0 0 0 6.29-6.289 6.296 6.296 0 0 0-6.29-6.289 6.296 6.296 0 0 0-6.289 6.29 6.25 6.25 0 0 0 .986 3.373l-7.998 7.998a6.25 6.25 0 0 0-3.371-.985 6.25 6.25 0 0 0-3.371.985l-7.998-7.998a6.25 6.25 0 0 0 .986-3.373 6.296 6.296 0 0 0-6.289-6.29 6.296 6.296 0 0 0-6.29 6.29c0 1.24.364 2.398.986 3.373l-7.994 7.995a6.25 6.25 0 0 0-3.374-.986 6.296 6.296 0 0 0-6.29 6.29 6.296 6.296 0 0 0 6.29 6.288zM60.008 5.469a3.559 3.559 0 0 1 3.555 3.554 3.559 3.559 0 0 1-3.555 3.555 3.559 3.559 0 0 1-3.555-3.555 3.559 3.559 0 0 1 3.555-3.554zm-13.117 20.23a3.559 3.559 0 0 1-3.555 3.555 3.559 3.559 0 0 1-3.555-3.555 3.559 3.559 0 0 1 3.555-3.554 3.559 3.559 0 0 1 3.555 3.554zM26.664 5.47a3.559 3.559 0 0 1 3.555 3.554 3.559 3.559 0 0 1-3.555 3.555 3.559 3.559 0 0 1-3.555-3.555 3.559 3.559 0 0 1 3.555-3.554zM9.992 22.14a3.559 3.559 0 0 1 3.554 3.555 3.559 3.559 0 0 1-3.554 3.554 3.559 3.559 0 0 1-3.555-3.555 3.559 3.559 0 0 1 3.555-3.554zm21.594 25.913c-.36 0-.712.146-.966.4a1.375 1.375 0 0 0-.401.967c0 .36.146.712.4.966.255.255.608.401.967.401.36 0 .712-.146.967-.4.254-.255.4-.608.4-.967 0-.36-.146-.712-.4-.967a1.377 1.377 0 0 0-.967-.4z"/></g><defs><clipPath id="a"><path fill="#fff" d="M0 0h70v70H0z"/></clipPath></defs></svg>