<svg width="535" height="535" viewBox="0 0 535 535" fill="none" xmlns="http://www.w3.org/2000/svg">
<g opacity="0.23">
<path d="M138.83 49.7574C141.018 47.5781 141.018 44.0449 138.83 41.8657C136.642 39.6864 133.095 39.6865 130.907 41.8657C128.719 44.0449 128.719 47.5781 130.907 49.7574C133.095 51.9366 136.642 51.9366 138.83 49.7574Z" fill="#00344A"/>
<path d="M108.921 156.74C110.972 155.901 111.952 153.564 111.11 151.52C110.267 149.477 107.921 148.5 105.869 149.34C103.817 150.179 102.837 152.516 103.68 154.56C104.523 156.603 106.869 157.58 108.921 156.74Z" fill="#00344A"/>
<path d="M238.938 281.8C240.035 277.117 237.113 272.436 232.412 271.343C227.711 270.251 223.011 273.161 221.914 277.844C220.817 282.526 223.739 287.208 228.44 288.3C233.141 289.393 237.841 286.483 238.938 281.8Z" fill="#00344A"/>
<path d="M293.07 151.794C294.981 149.891 294.981 146.805 293.07 144.901C291.159 142.997 288.061 142.997 286.15 144.901C284.239 146.805 284.239 149.891 286.15 151.794C288.061 153.698 291.159 153.698 293.07 151.794Z" fill="#00344A"/>
<path d="M306.591 12.6658C309.778 12.6658 312.362 10.0921 312.362 6.91736C312.362 3.7426 309.778 1.16895 306.591 1.16895C303.404 1.16895 300.82 3.7426 300.82 6.91736C300.82 10.0921 303.404 12.6658 306.591 12.6658Z" fill="#00344A"/>
<path d="M430.028 254.717C432.836 251.921 432.836 247.387 430.028 244.591C427.221 241.795 422.67 241.795 419.862 244.591C417.055 247.387 417.055 251.921 419.862 254.717C422.67 257.514 427.221 257.514 430.028 254.717Z" fill="#00344A"/>
<path d="M465.488 82.1968C467.676 80.0176 467.676 76.4843 465.488 74.3051C463.3 72.1259 459.753 72.1259 457.565 74.3051C455.377 76.4844 455.377 80.0176 457.565 82.1968C459.753 84.3761 463.3 84.3761 465.488 82.1968Z" fill="#00344A"/>
<path d="M366.518 398.196C370.082 396.725 371.775 392.655 370.298 389.104C368.822 385.553 364.735 383.867 361.17 385.338C357.606 386.809 355.913 390.879 357.39 394.43C358.866 397.981 362.953 399.667 366.518 398.196Z" fill="#00344A"/>
<path d="M202.124 520.159C204.853 517.441 204.853 513.035 202.124 510.318C199.396 507.6 194.973 507.6 192.245 510.318C189.517 513.035 189.517 517.441 192.245 520.159C194.973 522.876 199.396 522.876 202.124 520.159Z" fill="#00344A"/>
<path d="M21.6259 242.163C22.3014 239.251 20.4788 236.345 17.5551 235.672C14.6313 234.999 11.7135 236.815 11.038 239.727C10.3625 242.639 12.1851 245.545 15.1089 246.218C18.0326 246.891 20.9504 245.076 21.6259 242.163Z" fill="#00344A"/>
<path d="M177.568 398.749C179.506 398.749 181.078 397.184 181.078 395.253C181.078 393.322 179.506 391.757 177.568 391.757C175.629 391.757 174.058 393.322 174.058 395.253C174.058 397.184 175.629 398.749 177.568 398.749Z" fill="#00344A"/>
<path d="M52.0496 389.64C53.0097 385.707 50.5874 381.744 46.639 380.788C42.6907 379.831 38.7116 382.244 37.7515 386.177C36.7913 390.11 39.2137 394.073 43.162 395.03C47.1103 395.986 51.0894 393.573 52.0496 389.64Z" fill="#00344A"/>
<path d="M367.407 518.98C370.265 517.801 371.623 514.537 370.438 511.689C369.254 508.842 365.977 507.49 363.118 508.669C360.26 509.849 358.902 513.113 360.087 515.96C361.271 518.808 364.548 520.16 367.407 518.98Z" fill="#00344A"/>
<path d="M533.1 357.842C533.986 354.102 531.661 350.354 527.906 349.471C524.152 348.588 520.389 350.904 519.502 354.644C518.616 358.384 520.941 362.132 524.696 363.015C528.451 363.898 532.213 361.582 533.1 357.842Z" fill="#00344A"/>
<path d="M532.137 192.656C534.273 191.775 535.287 189.337 534.402 187.21C533.518 185.083 531.07 184.073 528.934 184.954C526.799 185.835 525.785 188.273 526.669 190.4C527.554 192.527 530.002 193.537 532.137 192.656Z" fill="#00344A"/>
<path d="M197.008 515.029L177.771 395.422" stroke="#00344A" stroke-width="1.05165" stroke-miterlimit="10"/>
<path d="M45.0702 388.095L177.771 395.423" stroke="#00344A" stroke-width="1.05165" stroke-miterlimit="10"/>
<path d="M16.3506 240.923L45.0709 388.096" stroke="#00344A" stroke-width="1.05165" stroke-miterlimit="10"/>
<path d="M107.405 153.048L16.3506 240.921" stroke="#00344A" stroke-width="1.05165" stroke-miterlimit="10"/>
<path d="M289.446 148.174L107.404 153.048" stroke="#00344A" stroke-width="1.05165" stroke-miterlimit="10"/>
<path d="M530.312 188.614L289.446 148.174" stroke="#00344A" stroke-width="1.05165" stroke-miterlimit="10"/>
<path d="M526.127 356.024L530.312 188.614" stroke="#00344A" stroke-width="1.05165" stroke-miterlimit="10"/>
<path d="M365.414 513.988L526.127 356.024" stroke="#00344A" stroke-width="1.05165" stroke-miterlimit="10"/>
<path d="M197.009 515.029L365.416 513.987" stroke="#00344A" stroke-width="1.05165" stroke-miterlimit="10"/>
<path d="M45.0702 388.095L197.008 515.031" stroke="#00344A" stroke-width="1.05165" stroke-miterlimit="10"/>
<path d="M134.708 45.6436L16.3506 240.922" stroke="#00344A" stroke-width="1.05165" stroke-miterlimit="10"/>
<path d="M306.59 6.91602L134.707 45.6422" stroke="#00344A" stroke-width="1.05165" stroke-miterlimit="10"/>
<path d="M461.7 78.4183L306.59 6.91602" stroke="#00344A" stroke-width="1.05165" stroke-miterlimit="10"/>
<path d="M530.312 188.615L461.7 78.4199" stroke="#00344A" stroke-width="1.05165" stroke-miterlimit="10"/>
<path d="M289.446 148.173L461.701 78.4189" stroke="#00344A" stroke-width="1.05165" stroke-miterlimit="10"/>
<path d="M306.591 6.91602L289.446 148.172" stroke="#00344A" stroke-width="1.05165" stroke-miterlimit="10"/>
<path d="M134.707 45.9795L107.404 153.048" stroke="#00344A" stroke-width="1.05165" stroke-miterlimit="10"/>
<path d="M289.445 148.174L134.707 45.9795" stroke="#00344A" stroke-width="1.05165" stroke-miterlimit="10"/>
<path d="M230.622 279.985L45.0702 388.096" stroke="#00344A" stroke-width="1.05165" stroke-miterlimit="10"/>
<path d="M16.3506 240.923L230.622 279.985" stroke="#00344A" stroke-width="1.05165" stroke-miterlimit="10"/>
<path d="M107.404 153.048L230.622 279.984" stroke="#00344A" stroke-width="1.05165" stroke-miterlimit="10"/>
<path d="M230.622 279.984L289.446 148.174" stroke="#00344A" stroke-width="1.05165" stroke-miterlimit="10"/>
<path d="M364.032 391.926L197.009 515.029" stroke="#00344A" stroke-width="1.05165" stroke-miterlimit="10"/>
<path d="M365.414 513.987L364.031 391.926" stroke="#00344A" stroke-width="1.05165" stroke-miterlimit="10"/>
<path d="M526.127 356.024L364.031 391.591" stroke="#00344A" stroke-width="1.05165" stroke-miterlimit="10"/>
<path d="M424.948 249.661L526.127 356.024" stroke="#00344A" stroke-width="1.05165" stroke-miterlimit="10"/>
<path d="M530.312 188.614L424.948 249.662" stroke="#00344A" stroke-width="1.05165" stroke-miterlimit="10"/>
<path d="M289.446 148.174L424.948 249.662" stroke="#00344A" stroke-width="1.05165" stroke-miterlimit="10"/>
<path d="M230.622 279.983L424.948 249.661" stroke="#00344A" stroke-width="1.05165" stroke-miterlimit="10"/>
<path d="M364.031 391.59L424.947 249.661" stroke="#00344A" stroke-width="1.05165" stroke-miterlimit="10"/>
<path d="M177.771 395.424L230.622 279.985" stroke="#00344A" stroke-width="1.05165" stroke-miterlimit="10"/>
<path d="M364.031 391.592L230.622 279.985" stroke="#00344A" stroke-width="1.05165" stroke-miterlimit="10"/>
<path d="M177.771 395.423L364.031 391.591" stroke="#00344A" stroke-width="1.05165" stroke-miterlimit="10"/>
</g>
<path d="M455.26 462.959C457.302 460.644 457.074 457.118 454.75 455.083C452.426 453.049 448.886 453.277 446.843 455.592C444.801 457.907 445.029 461.433 447.353 463.468C449.678 465.502 453.217 465.274 455.26 462.959Z" fill="#00344A"/>
<path d="M343.023 463.48C344.42 461.765 344.158 459.246 342.436 457.854C340.714 456.461 338.185 456.723 336.787 458.439C335.389 460.154 335.652 462.674 337.374 464.066C339.095 465.458 341.625 465.196 343.023 463.48Z" fill="#00344A"/>
<path d="M531.918 306.852C534.634 305.19 535.483 301.65 533.815 298.945C532.147 296.24 528.593 295.394 525.877 297.056C523.161 298.717 522.312 302.257 523.98 304.963C525.648 307.668 529.202 308.514 531.918 306.852Z" fill="#00344A"/>
<path d="M496.891 140.612C499.855 139.729 501.54 136.619 500.653 133.667C499.767 130.714 496.645 129.036 493.681 129.919C490.716 130.802 489.032 133.911 489.918 136.864C490.805 139.817 493.926 141.495 496.891 140.612Z" fill="#00344A"/>
<path d="M10.7983 295.788C14.0952 293.791 15.143 289.511 13.1387 286.227C11.1343 282.943 6.83677 281.899 3.53987 283.896C0.242974 285.892 -0.80482 290.173 1.19955 293.457C3.20393 296.741 7.50144 297.785 10.7983 295.788Z" fill="#00344A"/>
<path d="M276.962 532.694C279.025 530.523 278.931 527.097 276.753 525.042C274.574 522.987 271.135 523.08 269.071 525.251C267.008 527.421 267.101 530.847 269.28 532.902C271.459 534.957 274.898 534.864 276.962 532.694Z" fill="#00344A"/>
<path d="M120.565 333.298C118.675 332.861 116.785 334.004 116.347 335.887C115.908 337.769 117.055 339.652 118.945 340.089C120.835 340.526 122.725 339.383 123.164 337.5C123.603 335.618 122.421 333.735 120.565 333.298Z" fill="#00344A"/>
<path d="M102.016 471.249C104.399 467.97 103.662 463.389 100.371 461.015C97.0796 458.642 92.4799 459.375 90.0971 462.654C87.7144 465.932 88.451 470.514 91.7422 472.887C95.0335 475.261 99.6332 474.527 102.016 471.249Z" fill="#00344A"/>
<path d="M84.1359 98.7249C85.6291 96.0254 84.6426 92.6313 81.9325 91.144C79.2224 89.6567 75.8149 90.6393 74.3217 93.3387C72.8285 96.0382 73.815 99.4323 76.5251 100.92C79.2352 102.407 82.6427 101.424 84.1359 98.7249Z" fill="#00344A"/>
<path d="M240.543 1.16743C236.797 0.259783 233.017 2.57932 232.106 6.34436C231.195 10.0758 233.523 13.8408 237.303 14.7485C241.049 15.6561 244.829 13.3366 245.74 9.57154C246.618 5.8065 244.323 2.04146 240.543 1.16743Z" fill="#00344A"/>
<path d="M404.328 38.6827C402.067 38.1448 399.805 39.5231 399.265 41.7754C398.725 44.0277 400.109 46.28 402.37 46.8179C404.632 47.3558 406.893 45.9775 407.433 43.7252C407.973 41.5065 406.589 39.2206 404.328 38.6827Z" fill="#00344A"/>
<path d="M7.27063 290.034L119.621 336.492" stroke="#00344A" stroke-width="1.05165" stroke-miterlimit="10"/>
<path d="M95.9297 466.721L119.621 336.491" stroke="#00344A" stroke-width="1.05165" stroke-miterlimit="10"/>
<path d="M239.059 8.16016L403.484 42.9868" stroke="#00344A" stroke-width="1.05165" stroke-miterlimit="10"/>
<path d="M95.929 466.722L7.27063 290.034" stroke="#00344A" stroke-width="1.05165" stroke-miterlimit="10"/>
<path d="M528.893 301.934L451.136 459.494" stroke="#00344A" stroke-width="1.05165" stroke-miterlimit="10"/>
<path d="M495.144 135.062L528.893 301.935" stroke="#00344A" stroke-width="1.05165" stroke-miterlimit="10"/>
<path d="M403.483 42.9873L495.145 135.063" stroke="#00344A" stroke-width="1.05165" stroke-miterlimit="10"/>
<path d="M450.799 459.396L339.934 460.975" stroke="#00344A" stroke-width="1.05165" stroke-miterlimit="10"/>
<path d="M182.901 460.537C181.112 460.1 179.324 461.209 178.885 462.991C178.446 464.772 179.56 466.554 181.348 466.991C183.137 467.428 184.926 466.319 185.365 464.537C185.803 462.755 184.69 460.974 182.901 460.537Z" fill="#00344A"/>
<path d="M73.8578 225.558C72.1703 225.155 70.4491 226.197 70.0441 227.878C69.6391 229.559 70.6854 231.273 72.3728 231.677C74.0603 232.08 75.7814 231.038 76.1864 229.357C76.5914 227.643 75.5452 225.962 73.8578 225.558Z" fill="#00344A"/>
<path d="M189.954 118.859C194.408 118.859 198.02 115.262 198.02 110.824C198.02 106.387 194.408 102.79 189.954 102.79C185.499 102.79 181.888 106.387 181.888 110.824C181.888 115.262 185.499 118.859 189.954 118.859Z" fill="#00344A"/>
<path d="M332.979 78.3604C335.868 77.0216 337.122 73.6028 335.778 70.7242C334.433 67.8457 331.001 66.5975 328.111 67.9362C325.221 69.275 323.968 72.6939 325.312 75.5724C326.656 78.451 330.089 79.6992 332.979 78.3604Z" fill="#00344A"/>
<path d="M423.65 142.205C425.859 142.01 427.492 140.068 427.296 137.867C427.1 135.667 425.15 134.041 422.941 134.236C420.732 134.431 419.099 136.373 419.295 138.574C419.491 140.774 421.441 142.4 423.65 142.205Z" fill="#00344A"/>
<path d="M465.271 247.885C468.292 246.876 469.921 243.618 468.907 240.608C467.894 237.598 464.623 235.976 461.601 236.985C458.579 237.994 456.951 241.253 457.964 244.263C458.978 247.273 462.249 248.894 465.271 247.885Z" fill="#00344A"/>
<path d="M426.333 354.25C427.225 351.299 425.547 348.187 422.584 347.298C419.621 346.41 416.497 348.082 415.605 351.033C414.713 353.984 416.391 357.096 419.354 357.985C422.316 358.873 425.441 357.201 426.333 354.25Z" fill="#00344A"/>
<path d="M303.87 334.677C306.586 333.016 307.435 329.476 305.767 326.77C304.099 324.065 300.545 323.219 297.829 324.881C295.113 326.543 294.264 330.083 295.932 332.788C297.6 335.493 301.154 336.339 303.87 334.677Z" fill="#00344A"/>
<path d="M325.408 209.046C329.331 208.444 332.022 204.787 331.417 200.878C330.811 196.97 327.14 194.29 323.217 194.893C319.293 195.496 316.603 199.153 317.208 203.061C317.813 206.969 321.484 209.649 325.408 209.046Z" fill="#00344A"/>
<path d="M7.16968 289.832L73.3513 228.481" stroke="#00344A" stroke-width="1.05165" stroke-miterlimit="10"/>
<path d="M239.059 8.16016L189.954 110.825" stroke="#00344A" stroke-width="1.05165" stroke-miterlimit="10"/>
<path d="M330.688 73.3425L239.059 8.16016" stroke="#00344A" stroke-width="1.05165" stroke-miterlimit="10"/>
<path d="M403.484 42.9854L330.688 73.341" stroke="#00344A" stroke-width="1.05165" stroke-miterlimit="10"/>
<path d="M423.429 138.424L403.483 42.9873" stroke="#00344A" stroke-width="1.05165" stroke-miterlimit="10"/>
<path d="M495.044 135.397L423.429 138.423" stroke="#00344A" stroke-width="1.05165" stroke-miterlimit="10"/>
<path d="M463.556 242.668L495.044 135.397" stroke="#00344A" stroke-width="1.05165" stroke-miterlimit="10"/>
<path d="M528.894 301.934L420.998 352.627" stroke="#00344A" stroke-width="1.05165" stroke-miterlimit="10"/>
<path d="M463.556 242.667L528.894 301.933" stroke="#00344A" stroke-width="1.05165" stroke-miterlimit="10"/>
<path d="M451.136 459.494L420.998 352.627" stroke="#00344A" stroke-width="1.05165" stroke-miterlimit="10"/>
<path d="M463.556 242.667L420.999 352.626" stroke="#00344A" stroke-width="1.05165" stroke-miterlimit="10"/>
<path d="M339.934 460.973L420.998 352.627" stroke="#00344A" stroke-width="1.05165" stroke-miterlimit="10"/>
<path d="M300.854 329.768L421 352.627" stroke="#00344A" stroke-width="1.05165" stroke-miterlimit="10"/>
<path d="M339.935 460.973L300.854 329.768" stroke="#00344A" stroke-width="1.05165" stroke-miterlimit="10"/>
<path d="M324.308 201.992L463.556 242.668" stroke="#00344A" stroke-width="1.05165" stroke-miterlimit="10"/>
<path d="M423.496 138.087L463.556 242.668" stroke="#00344A" stroke-width="1.05165" stroke-miterlimit="10"/>
<path d="M324.308 201.992L423.496 138.087" stroke="#00344A" stroke-width="1.05165" stroke-miterlimit="10"/>
<path d="M330.688 73.3418L423.497 138.087" stroke="#00344A" stroke-width="1.05165" stroke-miterlimit="10"/>
<path d="M189.954 110.824L330.687 73.3418" stroke="#00344A" stroke-width="1.05165" stroke-miterlimit="10"/>
<path d="M324.308 201.992L330.686 73.3418" stroke="#00344A" stroke-width="1.05165" stroke-miterlimit="10"/>
<path d="M300.854 329.768L324.309 201.992" stroke="#00344A" stroke-width="1.05165" stroke-miterlimit="10"/>
<path d="M420.998 352.628L324.308 201.992" stroke="#00344A" stroke-width="1.05165" stroke-miterlimit="10"/>
<path d="M300.853 329.77L203.454 275.042" stroke="#00344A" stroke-width="1.05165" stroke-miterlimit="10"/>
<path d="M324.309 201.992L203.454 275.041" stroke="#00344A" stroke-width="1.05165" stroke-miterlimit="10"/>
<path d="M189.954 110.824L324.308 201.992" stroke="#00344A" stroke-width="1.05165" stroke-miterlimit="10"/>
<path d="M73.1482 228.616L189.953 110.824" stroke="#00344A" stroke-width="1.05165" stroke-miterlimit="10"/>
<path d="M203.454 275.041L189.954 110.824" stroke="#00344A" stroke-width="1.05165" stroke-miterlimit="10"/>
<path d="M119.621 336.491L73.4863 228.683" stroke="#00344A" stroke-width="1.05165" stroke-miterlimit="10"/>
<path d="M203.453 275.04L73.4863 228.683" stroke="#00344A" stroke-width="1.05165" stroke-miterlimit="10"/>
<path d="M119.621 336.493L203.453 275.042" stroke="#00344A" stroke-width="1.05165" stroke-miterlimit="10"/>
<path d="M182.259 463.966L95.9297 466.722" stroke="#00344A" stroke-width="1.05165" stroke-miterlimit="10"/>
<path d="M339.933 460.975L182.258 463.966" stroke="#00344A" stroke-width="1.05165" stroke-miterlimit="10"/>
<path d="M300.852 329.768L182.258 463.965" stroke="#00344A" stroke-width="1.05165" stroke-miterlimit="10"/>
<path d="M119.621 336.491L182.259 463.965" stroke="#00344A" stroke-width="1.05165" stroke-miterlimit="10"/>
<path d="M203.453 275.042L182.258 463.967" stroke="#00344A" stroke-width="1.05165" stroke-miterlimit="10"/>
<path d="M272.977 528.811L451.171 459.595" stroke="#00344A" stroke-width="1.05165" stroke-miterlimit="10"/>
<path d="M339.968 461.109L272.977 528.813" stroke="#00344A" stroke-width="1.05165" stroke-miterlimit="10"/>
<path d="M95.8959 466.588L272.976 528.812" stroke="#00344A" stroke-width="1.05165" stroke-miterlimit="10"/>
<path d="M182.056 463.966L272.976 528.812" stroke="#00344A" stroke-width="1.05165" stroke-miterlimit="10"/>
<path d="M79.258 96.1689L7.06909 289.8" stroke="#00344A" stroke-width="1.05165" stroke-miterlimit="10"/>
<path d="M73.3182 228.649L79.258 96.167" stroke="#00344A" stroke-width="1.05165" stroke-miterlimit="10"/>
<path d="M190.088 110.857L79.257 96.167" stroke="#00344A" stroke-width="1.05165" stroke-miterlimit="10"/>
<path d="M239.092 7.95898L79.257 96.1686" stroke="#00344A" stroke-width="1.05165" stroke-miterlimit="10"/>
<path d="M206.999 280.908C210.144 279.019 211.155 274.949 209.259 271.817C207.363 268.686 203.277 267.678 200.133 269.566C196.988 271.455 195.977 275.525 197.873 278.657C199.769 281.789 203.855 282.797 206.999 280.908Z" fill="#00344A"/>
</svg>
