<svg xmlns="http://www.w3.org/2000/svg" width="85" height="86" fill="none"><path fill="#1DBBBA" d="M85 16.367a4.51 4.51 0 0 0-4.506-4.506H4.506A4.511 4.511 0 0 0 0 16.367v53.839a4.506 4.506 0 0 0 4.501 4.5H80.5a4.506 4.506 0 0 0 4.501-4.5v-53.84ZM4.506 14.648h75.988a1.721 1.721 0 0 1 1.72 1.719v6.642H38.82l-1.624-4.64a1.393 1.393 0 0 0-1.315-.933H15.676a1.39 1.39 0 0 0-1.393 1.393v4.18H2.787v-6.642a1.72 1.72 0 0 1 1.719-1.719Zm77.707 55.558a1.716 1.716 0 0 1-1.714 1.713H4.5a1.716 1.716 0 0 1-1.714-1.713v-44.41h12.89a1.392 1.392 0 0 0 1.393-1.393v-4.18h17.823l1.625 4.64a1.392 1.392 0 0 0 1.315.933h44.38v44.41Zm-9.406-51.378a1.392 1.392 0 0 1 1.394-1.393h2.787a1.393 1.393 0 1 1 0 2.787H74.2a1.394 1.394 0 0 1-1.394-1.394Zm-9.754 0a1.39 1.39 0 0 1 1.394-1.393h2.787a1.393 1.393 0 1 1 0 2.787h-2.787a1.394 1.394 0 0 1-1.394-1.394Zm2.655 25.85H46.192a4.146 4.146 0 0 0-7.15 0h-19.75a2.69 2.69 0 0 0-2.688 2.686v2.988a2.69 2.69 0 0 0 2.688 2.686h19.75a4.146 4.146 0 0 0 7.15 0h19.516a2.69 2.69 0 0 0 2.688-2.686v-2.988a2.69 2.69 0 0 0-2.688-2.687Zm-46.317 2.786h19.046v2.787H19.39v-2.787Zm23.226 4.834h-.001a1.394 1.394 0 0 1-1.392-1.394v-4.093a1.393 1.393 0 1 1 2.787 0v4.093a1.395 1.395 0 0 1-1.394 1.394Zm22.992-2.047H46.797v-2.787H65.61v2.787Zm.1 5.574h-3.54a4.155 4.155 0 0 0-7.055 0H19.292a2.69 2.69 0 0 0-2.688 2.686v2.988a2.631 2.631 0 0 0 2.34 2.687h36.075a4.142 4.142 0 0 0 7.245 0h3.444a2.69 2.69 0 0 0 2.688-2.687v-2.988a2.69 2.69 0 0 0-2.688-2.686ZM19.39 58.612h35.07v2.787h-35.07v-2.787Zm40.644 3.527a1.395 1.395 0 0 1-1.393 1.393h-.002a1.394 1.394 0 0 1-1.392-1.393v-4.093a1.394 1.394 0 0 1 2.787 0v4.093Zm5.574-.74h-2.787v-2.787h2.787v2.787ZM29.378 31.396a4.165 4.165 0 0 0-3.621 2.134h-6.465a2.69 2.69 0 0 0-2.688 2.686v2.988a2.69 2.69 0 0 0 2.688 2.686h6.56a4.156 4.156 0 0 0 7.055 0h32.801a2.69 2.69 0 0 0 2.688-2.686v-2.988a2.646 2.646 0 0 0-2.455-2.686H33a4.168 4.168 0 0 0-3.623-2.134Zm-9.987 4.92H25.2v2.787h-5.808v-2.786Zm9.988 4.747h-.001a1.395 1.395 0 0 1-1.392-1.393v-4.094a1.393 1.393 0 1 1 2.787 0v4.094a1.395 1.395 0 0 1-1.394 1.393Zm36.23-1.96h-32.05v-2.786h32.05v2.786Z"/></svg>