<svg xmlns="http://www.w3.org/2000/svg" width="301" height="242" fill="none"><circle cx="148.662" cy="116.842" r="103.844" stroke="#FFBD00" stroke-dasharray="1.94 1.94" stroke-width=".778"/><path fill="#D2E6EF" d="M4.601 103.653c-2.811-.3-3.699-3.125-3.699-4.5h144.635c0 2.85-3.575 4.188-5.363 4.5-45.93.125-132.761.3-135.573 0Z"/><path fill="#fff" d="M145.924 99.152H1.094L35.366 72.35a1.943 1.943 0 0 1 1.198-.413h117.025a1.944 1.944 0 0 1 1.814 2.644l-9.478 24.572Z"/><path fill="#344357" d="M35.917 69.991V7.588C35.63 1.559 38.541.198 40.768.006h108.67c5.744 0 7.051 3.5 6.986 5.25V69.99c0 1.074-.87 1.944-1.944 1.944H37.861a1.944 1.944 0 0 1-1.944-1.944Z"/><path fill="#455A75" d="M37.84 64.549V7.2c0-2.333 2.264-3.694 3.5-3.694h106.143c4.986 0 6.804 2.308 6.804 3.694v57.349c0 4.057-2.79 3.693-4.277 3.693H41.34c-3.763 0-3.5-2.552-3.5-3.694Z"/><path fill="#C4C4C4" d="M56.906 90.484h44.116l-2.147 6.999H53.588l3.318-6.999ZM40.56 74.268h5.832l-.389 1.944h-5.832l.389-1.944Zm7.388 0h5.832l-.388 1.944H47.56l.388-1.944Zm7.388 0h5.832l-.389 1.944h-5.832l.39-1.944Zm7.388 0h5.832l-.389 1.944h-5.832l.389-1.944Zm7.389 0h5.832l-.388 1.944h-5.832l.388-1.944Zm7.385 0h5.832l-.389 1.944H77.11l.39-1.944Zm7.386 0h5.832l-.389 1.944h-5.832l.389-1.944Zm7.388 0h5.832l-.39 1.944h-5.831l.389-1.944Zm7.389 0h5.832l-.388 1.944h-5.833l.39-1.944Zm7.386 0h5.832l-.389 1.944h-5.832l.389-1.944Zm7.386 0h5.832l-.389 1.944h-5.832l.389-1.944Zm7.389 0h5.832l-.388 1.944h-5.832l.388-1.944Zm7.385 0h5.832l-.389 1.944h-5.832l.389-1.944Zm7.388 0h5.832l-.389 1.944h-5.832l.389-1.944Zm7.39 0h5.833l-.389 1.944h-5.832l.388-1.944ZM38.226 77.379h5.832l-.389 1.944h-5.832l.389-1.944Zm-6.994-.001h5.832l-.39 1.944h-5.831l.389-1.944Zm14.383.001h5.832l-.388 1.944h-5.832l.388-1.944Zm7.386 0h5.832l-.389 1.944h-5.832l.39-1.944Zm7.389 0h5.833l-.389 1.944h-5.832l.389-1.944Zm7.386 0h5.833l-.39 1.944h-5.831l.388-1.944Zm7.388 0h5.832l-.389 1.944h-5.832l.39-1.944Zm7.386 0h5.832l-.389 1.944h-5.832l.389-1.944Zm7.39 0h5.832l-.39 1.944h-5.831l.389-1.944Zm7.384 0h5.832l-.388 1.944h-5.832l.388-1.944Zm7.391 0h5.832l-.389 1.944h-5.832l.389-1.944Zm7.385 0h5.832l-.389 1.944h-5.832l.389-1.944Zm7.387 0h5.832l-.388 1.944h-5.832l.388-1.944Zm7.386 0h5.832l-.389 1.944h-5.832l.389-1.944Zm7.39 0h5.832l-.389 1.944h-5.832l.389-1.944Zm7.386 0h5.832l-.389 1.944h-5.832l.389-1.944Zm-105.363 3.11h5.832l-.389 1.944h-5.831l.388-1.944Zm-6.999.001h5.832l-.389 1.943h-5.832l.39-1.944Zm14.384-.001h5.832l-.389 1.944h-5.832l.389-1.944Zm7.386 0h5.832l-.389 1.944h-5.832l.389-1.944Zm7.389 0h5.832l-.388 1.944h-5.832l.388-1.944Zm7.386 0h5.832l-.389 1.944h-5.832l.39-1.944Zm7.388 0h5.832l-.389 1.944h-5.832l.389-1.944Zm7.385 0h5.832l-.39 1.944h-5.831l.389-1.944Zm7.39 0h5.832l-.388 1.944h-5.833l.39-1.944Zm7.385 0h5.832l-.389 1.944h-5.832l.389-1.944Zm7.391 0h5.832l-.389 1.944h-5.832l.389-1.944Zm7.387 0h5.832l-.388 1.944h-5.832l.388-1.944Zm7.385 0h5.832l-.389 1.944h-5.832l.389-1.944Zm7.386 0h5.832l-.389 1.944h-5.832l.389-1.944Zm7.389 0h5.833l-.389 1.944h-5.832l.388-1.944Zm7.386 0h5.832l-.389 1.944h-5.832l.389-1.944ZM34.341 83.6h5.832l-.389 1.945h-5.832l.389-1.944Zm-7 .002h5.832l-.389 1.944h-5.832l.389-1.944Zm14.386-.002h5.832l-.39 1.945h-5.831l.389-1.944Zm7.385 0h5.832l-.388 1.945h-5.832l.388-1.944Zm7.388 0h5.832l-.389 1.945h-5.832l.39-1.944Zm7.388 0h5.832l-.389 1.945H63.5l.389-1.944Zm7.387 0h5.833l-.39 1.945h-5.831l.388-1.944Zm7.385 0h5.832l-.389 1.945h-5.831l.388-1.944Zm7.39 0h5.832l-.389 1.945h-5.832l.389-1.944Zm7.386 0h5.832l-.39 1.945h-5.831l.389-1.944Zm7.387 0h5.832l-.388 1.945h-5.832l.388-1.944Zm7.39 0h5.832l-.389 1.945h-5.832l.389-1.944Zm7.386 0h5.832l-.389 1.945h-5.832l.389-1.944Zm7.386 0h5.832l-.389 1.945h-5.832l.389-1.944Zm7.389 0h5.832l-.389 1.945h-5.832l.389-1.944Zm7.386 0h5.832l-.389 1.945h-5.832l.389-1.944ZM32.396 86.71h5.832l-.39 1.944h-5.831l.389-1.944Zm-6.998 0h5.832l-.39 1.944h-5.83l.389-1.944Zm14.385 0h5.832l-.388 1.944h-5.832l.388-1.944Zm7.387 0H53l-.389 1.944H46.78l.39-1.944Zm7.386 0h5.832l-.389 1.944h-5.832l.389-1.944Zm7.385 0h5.833l-.39 1.944h-5.831l.389-1.944Zm7.39 0h5.832l-.389 1.944h-5.832l.39-1.944Zm7.386 0h5.832l-.389 1.944h-5.832l.389-1.944Zm7.39 0h5.832l-.39 1.944h-5.831l.389-1.944Zm7.385 0h5.832l-.388 1.944h-5.833l.39-1.944Zm7.388 0h5.832l-.389 1.944h-5.832l.389-1.944Zm7.39 0h5.832l-.389 1.944h-5.832l.389-1.944Zm7.385 0h5.832l-.388 1.944h-5.832l.388-1.944Zm7.385 0h5.832l-.389 1.944h-5.832l.389-1.944Zm7.391 0h5.832l-.389 1.944h-5.832l.389-1.944Zm7.385 0h5.832l-.389 1.944h-5.832l.389-1.944Z"/><path fill="#fff" d="M109.107 14.785H84.494c-1.074 0-1.944.87-1.944 1.944v39.658c0 1.074.87 1.944 1.944 1.944h30.132c1.074 0 1.944-.87 1.944-1.944V22.736c0-.488-.183-.957-.512-1.316l-5.52-6.006a1.943 1.943 0 0 0-1.431-.629Z"/><g filter="url(#a)"><path fill="#BCCEDE" d="M111.126 23.53v-1.944h5.443l-5.443 1.944Z"/></g><path fill="#C3E1FC" d="M109.96 21.976v-7.193l6.61 7.193h-6.61Z"/><path stroke="#1DBBBA" stroke-linecap="round" stroke-width=".778" d="M90.715 27.613h17.496m-17.496 5.831h17.496m-17.496 5.833h17.496m-17.496 5.831h17.496m-17.496 5.833h17.496"/><circle cx="81.58" cy="19.642" r="6.415" fill="#1DBBBA"/><path stroke="#fff" stroke-linecap="round" stroke-width=".778" d="m77.305 19.254 3.11 3.11 5.055-5.054"/><path fill="#D2E6EF" d="M297.108 241.613c2.811-.3 3.699-3.125 3.699-4.5H156.172c0 2.85 3.575 4.188 5.363 4.5 45.931.125 132.761.3 135.573 0Z"/><path fill="#fff" d="M156.367 237.11h144.341l-34.27-26.804a1.947 1.947 0 0 0-1.198-.412H148.262a1.944 1.944 0 0 0-1.803 2.671l9.908 24.545Z"/><path fill="#344357" d="M266.012 207.951v-62.403c.287-6.028-2.629-7.389-4.86-7.581H152.286c-5.754 0-7.063 3.499-6.998 5.249v64.735c0 1.074.87 1.944 1.944 1.944h116.836c1.073 0 1.944-.87 1.944-1.944Z"/><path fill="#455A75" d="M264.255 202.508v-57.349c0-2.332-2.265-3.693-3.499-3.693H154.612c-4.986 0-6.804 2.307-6.804 3.693v57.349c0 4.057 2.79 3.694 4.277 3.694h108.671c3.762 0 3.499-2.553 3.499-3.694Z"/><path fill="#C4C4C4" d="M242.399 228.359h-44.068l3.044 6.999h45.287l-4.263-6.999Zm18.842-16.132h-5.832l.389 1.944h5.832l-.389-1.944Zm-7.385 0h-5.832l.389 1.944h5.832l-.389-1.944Zm-7.385 0h-5.832l.388 1.944h5.832l-.388-1.944Zm-7.388 0h-5.832l.389 1.944h5.832l-.389-1.944Zm-7.39 0h-5.832l.389 1.944h5.832l-.389-1.944Zm-7.385 0h-5.832l.389 1.944h5.832l-.389-1.944Zm-7.385 0h-5.832l.388 1.944h5.833l-.389-1.944Zm-7.39 0h-5.832l.389 1.944h5.832l-.389-1.944Zm-7.388 0h-5.832l.389 1.944h5.832l-.389-1.944Zm-7.385 0h-5.832l.388 1.944h5.832l-.388-1.944Zm-7.39 0h-5.832l.389 1.944h5.832l-.389-1.944Zm-7.386 0h-5.832l.389 1.944h5.832l-.389-1.944Zm-7.385 0h-5.832l.389 1.944h5.832l-.389-1.944Zm-7.39 0h-5.832l.389 1.944h5.832l-.389-1.944Zm-7.388 0h-5.832l.389 1.944h5.832l-.389-1.944Zm105.754 3.109h-5.832l.389 1.944h5.832l-.389-1.944Zm6.999.002h-5.832l.389 1.944h5.832l-.389-1.944Zm-14.384-.002h-5.832l.389 1.944h5.832l-.389-1.944Zm-7.385 0h-5.832l.388 1.944h5.832l-.388-1.944Zm-7.39 0h-5.832l.389 1.944h5.832l-.389-1.944Zm-7.386 0h-5.832l.389 1.944h5.832l-.389-1.944Zm-7.389 0h-5.833l.389 1.944h5.832l-.388-1.944Zm-7.388 0h-5.832l.389 1.944h5.832l-.389-1.944Zm-7.386 0h-5.832l.389 1.944h5.832l-.389-1.944Zm-7.385 0h-5.832l.389 1.944h5.832l-.389-1.944Zm-7.39 0h-5.832l.388 1.944h5.832l-.388-1.944Zm-7.388 0h-5.832l.389 1.944h5.832l-.389-1.944Zm-7.388 0h-5.832l.389 1.944h5.832l-.389-1.944Zm-7.384 0h-5.833l.389 1.944h5.832l-.388-1.944Zm-7.388 0h-5.832l.389 1.944h5.832l-.389-1.944Zm-7.386 0h-5.832l.389 1.944h5.832l-.389-1.944Zm105.361 3.11h-5.832l.389 1.944h5.832l-.389-1.944Zm6.999.001h-5.832l.389 1.944h5.832l-.389-1.944Zm-14.383-.001h-5.832l.388 1.944h5.832l-.388-1.944Zm-7.386 0h-5.832l.389 1.944h5.832l-.389-1.944Zm-7.39 0h-5.832l.389 1.944h5.832l-.389-1.944Zm-7.385 0h-5.833l.389 1.944h5.832l-.388-1.944Zm-7.39 0h-5.832l.389 1.944h5.832l-.389-1.944Zm-7.388 0h-5.832l.389 1.944h5.832l-.389-1.944Zm-7.386 0h-5.832l.389 1.944h5.832l-.389-1.944Zm-7.384 0h-5.832l.388 1.944h5.832l-.388-1.944Zm-7.391 0h-5.832l.389 1.944h5.832l-.389-1.944Zm-7.388 0h-5.832l.389 1.944h5.832l-.389-1.944Zm-7.386 0h-5.832l.388 1.944h5.832l-.388-1.944Zm-7.386 0h-5.832l.389 1.944h5.832l-.389-1.944Zm-7.388 0h-5.832l.389 1.944h5.832l-.389-1.944Zm-7.386 0h-5.832l.389 1.944h5.832l-.389-1.944Zm105.363 3.113h-5.832l.389 1.944h5.832l-.389-1.944Zm6.998 0h-5.832l.389 1.944h5.832l-.389-1.944Zm-14.384 0h-5.832l.389 1.944h5.832l-.389-1.944Zm-7.386 0h-5.832l.389 1.944h5.832l-.389-1.944Zm-7.389 0h-5.832l.388 1.944h5.832l-.388-1.944Zm-7.386 0h-5.832l.389 1.944h5.832l-.389-1.944Zm-7.388 0h-5.832l.389 1.944h5.832l-.389-1.944Zm-7.389 0h-5.833l.389 1.944h5.832l-.388-1.944Zm-7.385 0h-5.832l.389 1.944h5.832l-.389-1.944Zm-7.386 0h-5.832l.389 1.944h5.832l-.389-1.944Zm-7.39 0h-5.832l.389 1.944h5.832l-.389-1.944Zm-7.387 0h-5.832l.388 1.944h5.832l-.388-1.944Zm-7.386 0h-5.832l.389 1.944h5.832l-.389-1.944Zm-7.388 0h-5.832l.389 1.944h5.832l-.389-1.944Zm-7.387 0h-5.832l.388 1.944h5.832l-.388-1.944Zm-7.386 0h-5.832l.389 1.944h5.832l-.389-1.944Zm105.363 3.11h-5.832l.389 1.944h5.832l-.389-1.944Zm6.998.001h-5.832l.389 1.944h5.832l-.389-1.944Zm-14.384-.001h-5.832l.389 1.944h5.832l-.389-1.944Zm-7.387 0h-5.832l.388 1.944h5.832l-.388-1.944Zm-7.388 0h-5.832l.389 1.944h5.832l-.389-1.944Zm-7.385 0h-5.832l.389 1.944h5.832l-.389-1.944Zm-7.387 0h-5.833l.389 1.944h5.832l-.388-1.944Zm-7.391 0h-5.832l.389 1.944h5.832l-.389-1.944Zm-7.385 0h-5.832l.389 1.944h5.832l-.389-1.944Zm-7.386 0h-5.832l.389 1.944h5.832l-.389-1.944Zm-7.389 0h-5.832l.388 1.944h5.833l-.389-1.944Zm-7.388 0h-5.832l.389 1.944h5.832l-.389-1.944Zm-7.386 0h-5.832l.389 1.944h5.832l-.389-1.944Zm-7.389 0h-5.832l.388 1.944h5.832l-.388-1.944Zm-7.386 0h-5.832l.389 1.944h5.832l-.389-1.944Zm-7.385 0h-5.832l.389 1.944h5.832l-.389-1.944Z"/><path fill="#fff" d="M218.885 152.741h-24.613a1.944 1.944 0 0 0-1.944 1.944v39.658c0 1.074.87 1.944 1.944 1.944h30.132c1.074 0 1.944-.87 1.944-1.944v-33.651c0-.488-.182-.957-.512-1.316l-5.52-6.006a1.942 1.942 0 0 0-1.431-.629Z"/><g filter="url(#b)"><path fill="#BCCEDE" d="M220.907 161.49v-1.944h5.443l-5.443 1.944Z"/></g><path fill="#C3E1FC" d="M219.741 159.934v-7.193l6.61 7.193h-6.61Z"/><path stroke="#1DBBBA" stroke-linecap="round" stroke-width=".778" d="M200.493 165.572h17.496m-17.496 5.832h17.496m-17.496 5.833h17.496m-17.496 5.833h17.496m-17.496 5.83h17.496"/><circle cx="191.359" cy="157.603" r="6.415" fill="#1DBBBA"/><path stroke="#fff" stroke-linecap="round" stroke-width=".778" d="m187.083 157.214 3.11 3.11 5.055-5.054"/><g clip-path="url(#c)"><path fill="#FFE000" d="m152.733 112.442-5.806-10.411 1.218-.679 5.806 10.411 4.262-2.377.935 13.127-10.677-7.694 4.262-2.377Z"/></g><g clip-path="url(#d)"><path fill="#FFE000" d="m133.101 130.357 5.811 10.408 1.218-.68-5.812-10.408 4.261-2.379-10.681-7.689.942 13.127 4.261-2.379Z"/></g><defs><clipPath id="c"><path fill="#fff" d="m151.938 92.41 17.419 31.234-14.613 8.15-17.419-31.234z"/></clipPath><clipPath id="d"><path fill="#fff" d="m149.73 141.55-17.434-31.225-14.609 8.157 17.435 31.225z"/></clipPath><filter id="a" width="6.221" height="2.721" x="110.737" y="21.197" color-interpolation-filters="sRGB" filterUnits="userSpaceOnUse"><feFlood flood-opacity="0" result="BackgroundImageFix"/><feBlend in="SourceGraphic" in2="BackgroundImageFix" result="shape"/><feGaussianBlur result="effect1_foregroundBlur_520:1299" stdDeviation=".194"/></filter><filter id="b" width="6.221" height="2.722" x="220.518" y="159.157" color-interpolation-filters="sRGB" filterUnits="userSpaceOnUse"><feFlood flood-opacity="0" result="BackgroundImageFix"/><feBlend in="SourceGraphic" in2="BackgroundImageFix" result="shape"/><feGaussianBlur result="effect1_foregroundBlur_520:1299" stdDeviation=".194"/></filter></defs></svg>