<svg xmlns="http://www.w3.org/2000/svg" width="85" height="86" fill="none"><g clip-path="url(#a)"><path fill="#1DBBBA" d="M76.494 64.343v-1.227h4.25c.782 0 1.416-.634 1.416-1.416v-8.5a7.091 7.091 0 0 0-7.083-7.082h-.787c.51-.858.781-1.836.787-2.834v-1.416a5.666 5.666 0 0 0-11.332 0v1.416c.006.998.277 1.976.787 2.834h-.787c-1.43 0-2.826.434-4.002 1.248L56.06 44.6a9.008 9.008 0 0 0 2.018-5.565c0-4.31-3.302-8.19-8.499-10.106v-1.226h4.25c.782 0 1.416-.635 1.416-1.417v-8.5a7.091 7.091 0 0 0-7.082-7.082h-.788a5.61 5.61 0 0 0 .788-2.833V6.454a5.666 5.666 0 0 0-11.333 0v1.417c.006.997.278 1.975.788 2.833h-.788a7.091 7.091 0 0 0-7.082 7.083v8.499c0 .782.634 1.416 1.416 1.416h4.25v1.226c-5.198 1.916-8.5 5.8-8.5 10.107A9.008 9.008 0 0 0 28.94 44.6l-3.683 2.765a7.032 7.032 0 0 0-4.008-1.248h-.787c.51-.858.781-1.836.787-2.834v-1.416a5.666 5.666 0 0 0-11.332 0v1.416a5.61 5.61 0 0 0 .787 2.834h-.787A7.091 7.091 0 0 0 2.833 53.2v8.5c0 .782.634 1.416 1.417 1.416H8.5v1.225C3.301 66.258 0 70.141 0 74.45 0 80.697 6.99 85.78 15.582 85.78c7.933 0 14.484-4.335 15.447-9.916h22.942c.963 5.581 7.516 9.916 15.447 9.916C78.009 85.781 85 80.697 85 74.449c-.007-4.31-3.31-8.19-8.506-10.106Zm-9.916-22.475a2.833 2.833 0 1 1 5.666 0v1.416a2.833 2.833 0 1 1-5.666 0v-1.416ZM59.495 53.2a4.25 4.25 0 0 1 4.25-4.25h11.332a4.25 4.25 0 0 1 4.25 4.25v7.083h-2.833v-8.5H73.66v8.5h-8.499v-8.5h-2.833v8.5h-2.833V53.2Zm8.5 12.75v7.082h-4.436l1.364-2.047c.155-.233.238-.506.238-.786v-7.083h8.5V70.2c0 .28.083.553.237.786l1.365 2.047h-4.436V65.95h-2.833ZM39.662 6.453a2.833 2.833 0 1 1 5.667 0v1.417a2.833 2.833 0 1 1-5.667 0V6.454ZM32.581 24.87v-7.082a4.25 4.25 0 0 1 4.25-4.25h11.332a4.25 4.25 0 0 1 4.25 4.25v7.082h-2.834V16.37h-2.833v8.5h-8.5v-8.5h-2.832v8.5H32.58Zm8.499 5.667v7.082h-4.435l1.364-2.047c.155-.233.237-.506.238-.786v-7.082h8.5v7.082c0 .28.082.553.237.786l1.364 2.047h-4.435v-7.082H41.08Zm-5.666 1.46v2.364l-2.595 3.893a1.417 1.417 0 0 0 1.178 2.198h16.999a1.416 1.416 0 0 0 1.178-2.202L49.58 34.36v-2.363c3.49 1.571 5.666 4.205 5.666 7.038 0 4.687-5.72 8.5-12.748 8.5-7.03 0-12.75-3.813-12.75-8.5 0-2.833 2.176-5.467 5.667-7.039Zm-22.665 9.872a2.833 2.833 0 1 1 5.666 0v1.416a2.833 2.833 0 1 1-5.666 0v-1.416ZM5.666 60.283V53.2a4.25 4.25 0 0 1 4.25-4.25h11.332a4.25 4.25 0 0 1 4.25 4.25v7.083h-2.833v-8.5h-2.833v8.5h-8.5v-8.5H8.5v8.5H5.666Zm8.5 5.666v7.083H9.73l1.364-2.047c.155-.233.238-.506.238-.786v-7.083h8.5V70.2c0 .28.083.553.238.786l1.364 2.047h-4.435V65.95h-2.833Zm1.416 16.999c-7.029 0-12.749-3.812-12.749-8.5 0-2.832 2.176-5.466 5.666-7.038v2.364l-2.595 3.888a1.417 1.417 0 0 0 1.179 2.203H24.08a1.417 1.417 0 0 0 1.179-2.203l-2.595-3.888v-2.363c3.49 1.571 5.666 4.204 5.666 7.038 0 4.687-5.72 8.499-12.749 8.499Zm38.376-9.916H31.035c-.637-3.73-3.75-6.986-8.37-8.689v-1.227h4.25c.782 0 1.416-.634 1.416-1.416v-8.5a7.012 7.012 0 0 0-1.11-3.77l3.74-2.805a18.534 18.534 0 0 0 11.535 3.742 18.534 18.534 0 0 0 11.537-3.742l3.74 2.804a7.013 7.013 0 0 0-1.111 3.771v8.5c0 .782.634 1.416 1.416 1.416h4.25v1.225c-4.62 1.705-7.733 4.963-8.37 8.691Zm15.453 9.916c-7.029 0-12.75-3.812-12.75-8.5 0-2.832 2.177-5.466 5.667-7.038v2.364l-2.595 3.893a1.417 1.417 0 0 0 1.179 2.198H77.91a1.417 1.417 0 0 0 1.179-2.203l-2.595-3.888v-2.363c3.49 1.571 5.666 4.204 5.666 7.038 0 4.687-5.72 8.499-12.75 8.499Z"/></g><defs><clipPath id="a"><path fill="#fff" d="M0 .784h85v85H0z"/></clipPath></defs></svg>