<svg width="100" height="100" fill="none" xmlns="http://www.w3.org/2000/svg"><path d="M60.057 56.25H39.944a1.564 1.564 0 0 0-1.42 2.216L48.58 80.34a1.563 1.563 0 0 0 2.84 0l10.057-21.875a1.562 1.562 0 0 0-1.42-2.216ZM50 75.945l-7.618-16.57h15.235L50 75.945Z" fill="#1DBBBA"/><path d="M62.812 65.105a17.187 17.187 0 1 1-25.625 0L34.86 63.02a20.312 20.312 0 1 0 30.278 0l-2.325 2.085ZM15.625 18.697v7.865a1.563 1.563 0 0 0 1.563 1.563h12.5a1.563 1.563 0 0 0 1.562-1.563v-7.865a6.185 6.185 0 0 0-4.375-5.885 5.468 5.468 0 1 0-6.887 0 6.184 6.184 0 0 0-4.363 5.885ZM23.438 6.25a2.344 2.344 0 1 1 0 4.687 2.344 2.344 0 0 1 0-4.687ZM18.75 18.697a3.075 3.075 0 0 1 3.07-3.072h3.235a3.076 3.076 0 0 1 3.07 3.072V25H18.75v-6.303ZM17.5 50.312a5.468 5.468 0 1 0-6.887 0 6.185 6.185 0 0 0-4.363 5.885v7.865a1.563 1.563 0 0 0 1.563 1.563h12.5a1.563 1.563 0 0 0 1.562-1.563v-7.865a6.185 6.185 0 0 0-4.375-5.885Zm-3.438-6.562a2.344 2.344 0 1 1 0 4.688 2.344 2.344 0 0 1 0-4.688ZM18.75 62.5H9.375v-6.303a3.075 3.075 0 0 1 3.07-3.072h3.235a3.076 3.076 0 0 1 3.07 3.072V62.5ZM25 59.375h6.25V62.5H25v-3.125ZM68.75 59.375H75V62.5h-6.25v-3.125ZM34.375 12.5h4.688v3.125h-4.688V12.5ZM43.75 12.5h4.688v3.125H43.75V12.5ZM60.938 12.5h4.687v3.125h-4.688V12.5ZM51.563 12.5h4.687v3.125h-4.688V12.5ZM14.21 36.8l3.123-6.247 2.794 1.397-3.123 6.247L14.21 36.8ZM68.75 18.697v7.865a1.563 1.563 0 0 0 1.563 1.563h12.5a1.563 1.563 0 0 0 1.562-1.563v-7.865A6.184 6.184 0 0 0 80 12.812a5.468 5.468 0 1 0-6.888 0 6.184 6.184 0 0 0-4.362 5.885ZM76.563 6.25a2.344 2.344 0 1 1 0 4.687 2.344 2.344 0 0 1 0-4.687Zm-4.688 12.447a3.075 3.075 0 0 1 3.07-3.072h3.235a3.076 3.076 0 0 1 3.07 3.072V25h-9.375v-6.303ZM89.375 50.312a5.468 5.468 0 1 0-6.888 0 6.185 6.185 0 0 0-4.375 5.89v7.86a1.563 1.563 0 0 0 1.563 1.563h12.5a1.563 1.563 0 0 0 1.562-1.563v-7.865a6.184 6.184 0 0 0-4.362-5.885Zm-3.438-6.562a2.344 2.344 0 1 1 0 4.687 2.344 2.344 0 0 1 0-4.687Zm4.688 18.75H81.25v-6.303a3.075 3.075 0 0 1 3.07-3.072h3.235a3.076 3.076 0 0 1 3.07 3.072V62.5ZM79.811 31.953l2.794-1.397 3.124 6.247-2.794 1.397-3.124-6.247ZM32.983 35.199a15.635 15.635 0 0 0 0 4.603 1.563 1.563 0 0 0 .833 1.181l1.58.816c.306 1.036.72 2.036 1.238 2.984l-.54 1.695a1.562 1.562 0 0 0 .245 1.424 17.26 17.26 0 0 0 3.26 3.26 1.553 1.553 0 0 0 1.423.244l1.697-.54a15.14 15.14 0 0 0 2.984 1.237l.816 1.58a1.562 1.562 0 0 0 1.178.834c1.528.227 3.081.227 4.61 0a1.562 1.562 0 0 0 1.177-.834l.816-1.58a15.139 15.139 0 0 0 2.984-1.237l1.697.54a1.548 1.548 0 0 0 1.424-.245 17.26 17.26 0 0 0 3.26-3.26 1.562 1.562 0 0 0 .244-1.423l-.542-1.695c.518-.948.933-1.948 1.238-2.984l1.581-.816a1.564 1.564 0 0 0 .833-1.181 15.635 15.635 0 0 0 0-4.603 1.563 1.563 0 0 0-.833-1.182l-1.581-.815a15.166 15.166 0 0 0-1.238-2.985l.542-1.695a1.562 1.562 0 0 0-.245-1.423 17.26 17.26 0 0 0-3.26-3.26 1.561 1.561 0 0 0-1.423-.245l-1.697.54a15.139 15.139 0 0 0-2.984-1.237l-.816-1.58a1.562 1.562 0 0 0-1.178-.834 15.403 15.403 0 0 0-4.61 0 1.562 1.562 0 0 0-1.177.834l-.816 1.58a15.14 15.14 0 0 0-2.984 1.238l-1.699-.541a1.552 1.552 0 0 0-1.422.245 17.224 17.224 0 0 0-3.26 3.26 1.563 1.563 0 0 0-.246 1.423l.542 1.695a15.087 15.087 0 0 0-1.237 2.985l-1.581.815a1.564 1.564 0 0 0-.833 1.182Zm3.006 1.214 1.455-.75a1.561 1.561 0 0 0 .803-1.02c.291-1.214.77-2.373 1.42-3.438a1.561 1.561 0 0 0 .156-1.29l-.496-1.55c.475-.555.992-1.073 1.546-1.548l1.552.496a1.564 1.564 0 0 0 1.29-.157 12.024 12.024 0 0 1 3.438-1.421 1.562 1.562 0 0 0 1.019-.804l.75-1.453c.723-.07 1.452-.07 2.175 0l.75 1.453a1.56 1.56 0 0 0 1.019.804c1.212.292 2.372.772 3.437 1.421a1.563 1.563 0 0 0 1.29.157l1.552-.496c.555.475 1.072.993 1.547 1.547l-.497 1.55a1.562 1.562 0 0 0 .157 1.29 12.023 12.023 0 0 1 1.42 3.438 1.562 1.562 0 0 0 .803 1.02l1.455.75c.034.39.051.746.051 1.094 0 .349-.017.699-.051 1.094l-1.455.75a1.56 1.56 0 0 0-.803 1.02 12.023 12.023 0 0 1-1.42 3.438 1.561 1.561 0 0 0-.157 1.29l.497 1.55a14.175 14.175 0 0 1-1.547 1.547l-1.551-.495a1.55 1.55 0 0 0-1.29.156 12.019 12.019 0 0 1-3.438 1.422 1.562 1.562 0 0 0-1.02.803l-.75 1.454c-.722.07-1.45.07-2.174 0l-.75-1.454a1.562 1.562 0 0 0-1.019-.803 12.021 12.021 0 0 1-3.437-1.422 1.564 1.564 0 0 0-1.291-.156l-1.552.495a14.182 14.182 0 0 1-1.546-1.546l.496-1.55a1.56 1.56 0 0 0-.156-1.291 12.02 12.02 0 0 1-1.42-3.438 1.562 1.562 0 0 0-.803-1.02l-1.455-.75c-.034-.389-.051-.745-.051-1.094 0-.348.017-.704.051-1.1v.007Z" fill="#1DBBBA"/><path d="M50 45.313a7.813 7.813 0 1 0-7.813-7.813A7.822 7.822 0 0 0 50 45.313Zm0-12.5a4.687 4.687 0 1 1 0 9.374 4.687 4.687 0 0 1 0-9.374Z" fill="#1DBBBA"/></svg>