<svg width="392" height="253" fill="none" xmlns="http://www.w3.org/2000/svg"><g filter="url(#a)"><path d="M78.466 43.9c.326-5.524 5.26-9.62 10.75-8.923l292.46 37.084a9.563 9.563 0 0 1 8.328 10.269l-12.876 157.213a9.565 9.565 0 0 1-10.048 8.769L76.936 232.64c-5.293-.286-9.344-4.823-9.031-10.114L78.465 43.9Z" fill="#2E6961"/><path d="M66.295 18.178c-6.12-.383-6.854 6.854-6.456 10.52L46.93 211.838c-.718 8.607 3.586 8.607 6.933 8.607l303.402 17.453c10.903.383 11.453-5.598 12.194-8.846l16.019-183.62c-.191-10.902-9.006-12.512-13.389-11.954L66.295 18.178Z" fill="#fff"/><path d="m59.858 24.861-.901 16.335 325.355 17.381 1.218-13.993c.574-8.798-6.747-11.513-10.413-11.592-99.62-4.862-301.673-14.65-308.176-14.841-7.971-.235-6.8 5.047-7.084 6.71Z" fill="#0D2187"/><path d="m122.742 44.629-63.786-3.437L46.91 211.88c-.822 8.622 2.778 8.616 8.962 8.952l54.914 2.862 11.956-179.064Z" fill="#F0FCFA"/><path d="M12.576 112.174a7.172 7.172 0 0 1 7.637-6.577l60.981 4.157a7.172 7.172 0 0 1 6.666 7.679l-3.206 43.819a7.172 7.172 0 0 1-7.412 6.645l-61.48-2.212a7.173 7.173 0 0 1-6.891-7.747l3.705-45.764Z" fill="#519A90"/><path d="M64.809 131.857c.331-1.218 1.174-1.373 2.052-1.357l41.216 2.455c1.682.183 1.715 1.08 1.656 1.568-.02 1.043-1.122 1.707-2.091 1.633l-41.548-2.455c-1.463-.321-1.429-1.317-1.285-1.844ZM66.2 114.522c.33-1.218 1.174-1.373 2.051-1.357l41.216 2.455c1.683.183 1.716 1.08 1.657 1.568-.02 1.043-1.122 1.707-2.092 1.633l-41.548-2.455c-1.462-.32-1.428-1.317-1.284-1.844Z" fill="#FFE000" fill-opacity=".5"/><path d="m6.087 103.75-2.151 26.061-1.913 22.952c-.383 3.825 4.144 6.057 6.455 6.694l66.706 2.391c4.399.383 5.817-3.028 5.977-4.781l3.347-44.949c.765-7.077-3.347-9.165-5.499-9.324l-64.793-3.587c-7.268-.956-7.912 2.471-8.129 4.543Z" fill="#fff"/><path d="M13.476 99.05c-8.951-.611-7.12 5.014-7.742 8.733l36.217 27.288 42.567-22.908c.679-7.67-3.206-9.338-6.064-9.48-17.692-.877-56.166-3.033-64.978-3.634Z" fill="#1DBBBA"/><path d="M43.264 182.185c-11.194-.651-13 6.509-12.505 10.17.067 6.503 6.506 8.382 9.716 8.508l44.04 2.178c9.252.401 12.653-3.238 13.24-5.635 3.007-10.742-6.636-13.64-11.834-13.746l-42.657-1.475Z" fill="#519A90"/><path d="M39.013 179.773c-11.667-.765-13.628 6.376-13.15 10.042 0 6.503 6.695 8.448 10.042 8.607l45.905 2.63c9.564 1.339 13.23-3.108 13.867-5.499 3.252-10.711-6.774-13.708-12.193-13.867l-44.47-1.913Z" fill="#1DBBBA"/><path d="M38.594 189.48c.308-1.224 1.147-1.396 2.025-1.397l41.256 1.636c1.686.15 1.737 1.046 1.688 1.535 0 1.043-1.088 1.729-2.059 1.675l-41.589-1.631c-1.468-.291-1.454-1.288-1.32-1.818Z" fill="#EAF3FB"/><path d="M77.365 30.105c-.129 2.643-2.436 4.678-5.153 4.546-2.718-.133-4.816-2.383-4.687-5.026.13-2.643 2.436-4.678 5.154-4.545 2.717.133 4.815 2.383 4.686 5.026Z" fill="#FF3A44"/><path d="M94.193 30.926c-.129 2.643-2.436 4.678-5.153 4.545-2.718-.133-4.816-2.383-4.687-5.025.13-2.643 2.437-4.678 5.154-4.546 2.717.133 4.815 2.383 4.686 5.026Z" fill="#FFE000"/><path d="M111.02 31.747c-.129 2.642-2.436 4.678-5.153 4.545-2.717-.133-4.816-2.383-4.687-5.026.129-2.643 2.437-4.677 5.154-4.545 2.717.133 4.815 2.383 4.686 5.026ZM151.285 90.089c.332-1.218 1.175-1.373 2.052-1.357l41.216 2.455c1.683.183 1.716 1.08 1.657 1.568-.02 1.043-1.122 1.707-2.092 1.633l-41.548-2.455c-1.462-.32-1.428-1.317-1.285-1.844Z" fill="#1DBBBA"/><path d="M197.839 92.649c.332-1.218 1.174-1.374 2.052-1.357l41.216 2.455c1.682.182 1.716 1.08 1.656 1.568-.019 1.043-1.122 1.707-2.091 1.633l-41.548-2.456c-1.463-.32-1.428-1.316-1.285-1.843Z" fill="#EAF3FB"/><path d="M244.392 95.517c.331-1.218 1.174-1.373 2.052-1.357l41.216 2.455c1.682.183 1.715 1.08 1.656 1.568-.02 1.043-1.122 1.707-2.091 1.633l-41.548-2.455c-1.463-.32-1.429-1.317-1.285-1.844ZM69.346 70.43c.331-1.218 1.174-1.373 2.052-1.357l41.216 2.455c1.682.183 1.716 1.08 1.656 1.568-.02 1.043-1.122 1.707-2.091 1.633l-41.548-2.455c-1.463-.32-1.428-1.316-1.285-1.844ZM68.371 84.352c.332-1.218 1.175-1.374 2.052-1.357l41.216 2.455c1.683.182 1.716 1.08 1.657 1.568-.02 1.043-1.122 1.707-2.092 1.633l-41.548-2.456c-1.463-.32-1.428-1.316-1.285-1.843ZM67.322 98.163c.331-1.218 1.174-1.373 2.052-1.357l41.215 2.455c1.683.183 1.716 1.08 1.657 1.568-.02 1.043-1.122 1.707-2.092 1.633l-41.548-2.455c-1.462-.32-1.428-1.317-1.284-1.844Z" fill="#FFE000" fill-opacity=".5"/><g filter="url(#b)"><path d="M152.784 71.29c.945-5 3.516-5.699 6.203-5.699l126.299 6.852c5.161.616 5.315 4.276 5.161 6.275 0 4.26-3.336 7.055-6.307 6.828l-127.317-6.828c-4.495-1.195-4.447-5.265-4.039-7.429Z" fill="#EAF3FB"/></g><path d="m163.393 75.576-1.239-1.347 1.239 1.347Zm-.423-3.013a2.383 2.383 0 0 1-.817 1.668 2.516 2.516 0 0 1-1.79.612 2.517 2.517 0 0 1-1.714-.801 2.384 2.384 0 0 1-.633-1.746c.034-.64.328-1.24.817-1.667a2.515 2.515 0 0 1 1.79-.613 2.512 2.512 0 0 1 1.713.801 2.38 2.38 0 0 1 .634 1.746v0Z" stroke="#0D2187" stroke-width=".478" stroke-linecap="round"/><path stroke="#A6A6A6" stroke-width=".478" d="m146.399 166.865 226.529 12.824M142.569 201.026l221.938 12.85M148.736 136.679l221.938 12.85M150.996 104.163l221.938 12.85"/><path d="M176.297 152.321c.717-1.523 2.531-1.678 4.419-1.613l88.67 5.151c3.619.314 3.689 1.45 3.56 2.064-.045 1.317-2.419 2.102-4.504 1.961l-89.385-5.168c-3.146-.478-3.07-1.736-2.76-2.395ZM176.415 159.491c.431-1.538 1.527-1.734 2.668-1.712l53.601 3.143c2.188.232 2.232 1.366 2.155 1.983-.026 1.318-1.459 2.156-2.719 2.062l-54.033-3.144c-1.902-.407-1.858-1.665-1.672-2.332Z" fill="#FFBD00"/><ellipse cx="156.233" cy="154.24" rx="10.828" ry="10.898" fill="#FF9C00"/><circle cx="155.542" cy="153.8" r="10.954" fill="#FFBD00"/><g clip-path="url(#c)"><path d="m154.897 155.759 5.678-5.678.874.873-6.552 6.551-3.93-3.93.873-.874 3.057 3.058Z" fill="#fff"/></g><path d="M178.97 117.762c.717-1.524 2.531-1.678 4.419-1.614l88.67 5.151c3.619.314 3.689 1.45 3.56 2.065-.045 1.317-2.419 2.102-4.504 1.96l-89.385-5.168c-3.146-.478-3.07-1.735-2.76-2.394ZM179.088 124.931c.431-1.539 1.527-1.735 2.668-1.713l53.601 3.143c2.188.233 2.232 1.367 2.154 1.984-.025 1.317-1.458 2.156-2.719 2.061l-54.032-3.144c-1.903-.406-1.858-1.665-1.672-2.331Z" fill="#EAF3FB"/><g filter="url(#d)"><circle cx="160.136" cy="119.508" r="10.954" fill="#F0FCFA"/></g><path d="M171.129 184.733c.716-1.523 2.53-1.678 4.418-1.614l88.67 5.151c3.62.314 3.689 1.45 3.56 2.065-.045 1.317-2.419 2.102-4.504 1.96l-89.385-5.168c-3.146-.477-3.07-1.735-2.759-2.394ZM171.245 191.903c.431-1.539 1.527-1.734 2.668-1.713l53.601 3.143c2.188.233 2.232 1.367 2.155 1.984-.026 1.318-1.459 2.156-2.719 2.061l-54.033-3.144c-1.902-.406-1.858-1.665-1.672-2.331Z" fill="#EAF3FB"/><g filter="url(#e)"><circle cx="155.024" cy="185.48" r="10.954" fill="#F0FCFA"/></g><g filter="url(#f)"><circle cx="331.275" cy="205.064" r="23.909" fill="#149C88"/></g><circle cx="329.817" cy="203.836" r="23.909" fill="#1DBBBA"/><path d="m319.157 198.273-.616 7.465-.548 6.574c-.11 1.096 1.187 1.735 1.849 1.918l19.107.685c1.26.109 1.666-.868 1.712-1.37l.959-12.875c.219-2.027-.959-2.625-1.575-2.671l-18.559-1.027c-2.082-.274-2.267.708-2.329 1.301Z" fill="#fff"/><path d="M321.273 196.927c-2.564-.175-2.04 1.436-2.217 2.501l10.373 7.817 12.193-6.562c.195-2.197-.918-2.675-1.737-2.715-5.067-.252-16.088-.869-18.612-1.041Z" fill="#FFE000" fill-opacity=".5"/></g><defs><filter id="a" x=".087" y="0" width="393.825" height="255.826" filterUnits="userSpaceOnUse" color-interpolation-filters="sRGB"><feFlood flood-opacity="0" result="BackgroundImageFix"/><feColorMatrix in="SourceAlpha" values="0 0 0 0 0 0 0 0 0 0 0 0 0 0 0 0 0 0 127 0" result="hardAlpha"/><feOffset dy="1.913"/><feGaussianBlur stdDeviation=".956"/><feComposite in2="hardAlpha" operator="out"/><feColorMatrix values="0 0 0 0 0 0 0 0 0 0 0 0 0 0 0 0 0 0 0.25 0"/><feBlend in2="BackgroundImageFix" result="effect1_dropShadow_519:1168"/><feBlend in="SourceGraphic" in2="effect1_dropShadow_519:1168" result="shape"/></filter><filter id="b" x="152.61" y="65.591" width="138.827" height="20.924" filterUnits="userSpaceOnUse" color-interpolation-filters="sRGB"><feFlood flood-opacity="0" result="BackgroundImageFix"/><feBlend in="SourceGraphic" in2="BackgroundImageFix" result="shape"/><feColorMatrix in="SourceAlpha" values="0 0 0 0 0 0 0 0 0 0 0 0 0 0 0 0 0 0 127 0" result="hardAlpha"/><feOffset dx=".956" dy=".956"/><feGaussianBlur stdDeviation="1.195"/><feComposite in2="hardAlpha" operator="arithmetic" k2="-1" k3="1"/><feColorMatrix values="0 0 0 0 0.737326 0 0 0 0 0.807945 0 0 0 0 0.870718 0 0 0 1 0"/><feBlend in2="shape" result="effect1_innerShadow_519:1168"/></filter><filter id="d" x="149.183" y="108.554" width="22.864" height="22.864" filterUnits="userSpaceOnUse" color-interpolation-filters="sRGB"><feFlood flood-opacity="0" result="BackgroundImageFix"/><feBlend in="SourceGraphic" in2="BackgroundImageFix" result="shape"/><feColorMatrix in="SourceAlpha" values="0 0 0 0 0 0 0 0 0 0 0 0 0 0 0 0 0 0 127 0" result="hardAlpha"/><feOffset dx=".956" dy=".956"/><feGaussianBlur stdDeviation="1.195"/><feComposite in2="hardAlpha" operator="arithmetic" k2="-1" k3="1"/><feColorMatrix values="0 0 0 0 0.737326 0 0 0 0 0.807945 0 0 0 0 0.870718 0 0 0 1 0"/><feBlend in2="shape" result="effect1_innerShadow_519:1168"/></filter><filter id="e" x="144.07" y="174.526" width="22.864" height="22.864" filterUnits="userSpaceOnUse" color-interpolation-filters="sRGB"><feFlood flood-opacity="0" result="BackgroundImageFix"/><feBlend in="SourceGraphic" in2="BackgroundImageFix" result="shape"/><feColorMatrix in="SourceAlpha" values="0 0 0 0 0 0 0 0 0 0 0 0 0 0 0 0 0 0 127 0" result="hardAlpha"/><feOffset dx=".956" dy=".956"/><feGaussianBlur stdDeviation="1.195"/><feComposite in2="hardAlpha" operator="arithmetic" k2="-1" k3="1"/><feColorMatrix values="0 0 0 0 0.737326 0 0 0 0 0.807945 0 0 0 0 0.870718 0 0 0 1 0"/><feBlend in2="shape" result="effect1_innerShadow_519:1168"/></filter><filter id="f" x="307.127" y="180.916" width="48.296" height="48.296" filterUnits="userSpaceOnUse" color-interpolation-filters="sRGB"><feFlood flood-opacity="0" result="BackgroundImageFix"/><feBlend in="SourceGraphic" in2="BackgroundImageFix" result="shape"/><feGaussianBlur stdDeviation=".12" result="effect1_foregroundBlur_519:1168"/></filter><clipPath id="c"><path fill="#fff" transform="translate(148.721 146.388)" d="M0 0h14.823v14.823H0z"/></clipPath></defs></svg>