<svg xmlns="http://www.w3.org/2000/svg" width="85" height="86" fill="none"><g clip-path="url(#a)"><path fill="#1DBBBA" d="M83.068 68.397h-3.864V20.102a5.796 5.796 0 0 0-5.795-5.796h-3.864v3.864h3.864a1.932 1.932 0 0 1 1.932 1.932v48.295H9.659V20.102a1.932 1.932 0 0 1 1.932-1.932h3.864v-3.864H11.59a5.796 5.796 0 0 0-5.796 5.796v48.295H1.932A1.932 1.932 0 0 0 0 70.33v3.864a5.795 5.795 0 0 0 5.795 5.795h73.41A5.795 5.795 0 0 0 85 74.193v-3.864a1.932 1.932 0 0 0-1.932-1.932Zm-1.932 5.796a1.932 1.932 0 0 1-1.931 1.932H5.794a1.932 1.932 0 0 1-1.931-1.932V72.26h77.272v1.932ZM30.91 16.238h-5.795v-3.863h5.795v3.863Zm9.66 0h-5.796v-3.863h5.795v3.863ZM42.5 27.83h17.386v3.864H42.5v-3.864Zm0 7.727h17.386v3.864H42.5v-3.864Zm-7.34-6.954 3.09 2.318-5.795 7.727a1.932 1.932 0 0 1-1.41.773h-.136a1.93 1.93 0 0 1-1.371-.56l-3.864-3.864 2.743-2.743 2.28 2.299 4.462-5.95Zm7.34 14.682h17.386v3.863H42.5v-3.863Zm0 7.727h17.386v3.864H42.5V51.01Zm-7.34-6.955 3.09 2.319-5.795 7.727a1.93 1.93 0 0 1-1.41.773h-.136a1.933 1.933 0 0 1-1.371-.56l-3.864-3.864 2.743-2.743 2.28 2.298 4.462-5.95ZM15.454 60.67v3.864h54.09V60.67h-1.931V8.51a1.932 1.932 0 0 0-1.932-1.93H19.318a1.932 1.932 0 0 0-1.932 1.93v52.16h-1.931ZM63.75 10.443v7.727h-42.5v-7.727h42.5Zm-42.5 11.59h42.5V60.67h-42.5V22.034Z"/></g><defs><clipPath id="a"><path fill="#fff" d="M0 .784h85v85H0z"/></clipPath></defs></svg>