<svg width="100" height="100" fill="none" xmlns="http://www.w3.org/2000/svg"><path d="M87.35 13.253h-8.434V4.819C78.916 2.17 76.747 0 74.098 0H12.65a4.833 4.833 0 0 0-4.819 4.82v77.108c0 2.65 2.169 4.819 4.82 4.819h8.433v8.434c0 2.65 2.168 4.819 4.82 4.819h40.962c2.65 0 6.399-1.487 8.328-3.302l13.463-12.673c1.93-1.815 3.509-5.47 3.509-8.121l.002-57.831a4.834 4.834 0 0 0-4.82-4.82Zm-66.265 4.82v65.06H12.65a1.22 1.22 0 0 1-1.204-1.205V4.819a1.22 1.22 0 0 1 1.204-1.204h61.447c.652 0 1.205.551 1.205 1.204v8.434H25.904a4.833 4.833 0 0 0-4.82 4.82Zm65.095 63.32L72.717 94.066a6.4 6.4 0 0 1-1.031.755V83.735c0-.828.334-1.573.884-2.127.556-.55 1.3-.885 2.128-.885h12.054a5.055 5.055 0 0 1-.572.67Zm2.372-5.49c0 .358-.065.773-.164 1.205h-13.69a6.64 6.64 0 0 0-6.627 6.627v12.504c-.43.087-.844.146-1.204.146H25.904A1.22 1.22 0 0 1 24.7 95.18V18.072c0-.653.551-1.204 1.205-1.204H87.35a1.22 1.22 0 0 1 1.204 1.204l-.002 57.831Z" fill="#1DBBBA"/><path d="M74.098 30.12h-34.94a1.806 1.806 0 1 0 0 3.615h34.94a1.807 1.807 0 1 0 0-3.614ZM74.098 54.217h-34.94a1.806 1.806 0 1 0 0 3.614h34.94a1.807 1.807 0 1 0 0-3.614ZM58.436 66.265H39.159a1.806 1.806 0 1 0 0 3.615h19.277c.997 0 1.806-.809 1.806-1.808s-.809-1.807-1.806-1.807ZM74.098 42.169h-34.94a1.806 1.806 0 1 0 0 3.614h34.94a1.807 1.807 0 1 0 0-3.614Z" fill="#1DBBBA"/></svg>