<svg width="100" height="100" fill="none" xmlns="http://www.w3.org/2000/svg"><path d="M61.503 0C41.935 0 26.016 16.894 26.016 37.66c0 20.765 15.92 37.659 35.487 37.659 19.568 0 35.487-16.894 35.487-37.66C96.99 16.894 81.07 0 61.503 0Zm0 69.454c-16.53 0-29.976-14.263-29.976-31.795 0-17.532 13.447-31.795 29.976-31.795S91.479 20.128 91.479 37.66c0 17.532-13.447 31.795-29.976 31.795Z" fill="#1DBBBA"/><path d="M64.26 21.437a2.756 2.756 0 1 0-5.511 0v9.155c-.001 5.522 4.476 10 9.999 10h7.702a2.932 2.932 0 0 0 0-5.864h-4.63a7.562 7.562 0 0 1-7.56-7.563v-5.728ZM7.597 72.938c-1.075-1.146-1.072-3.003.006-4.146l10.834-11.497a2.64 2.64 0 0 1 3.897.006c1.074 1.146 1.072 3.003-.006 4.146L11.493 72.944a2.64 2.64 0 0 1-3.896-.006ZM4.953 53.565c-1.074-1.146-1.072-3.003.006-4.146l9.664-10.255a2.64 2.64 0 0 1 3.897.005c1.075 1.147 1.072 3.003-.006 4.147L8.85 53.57a2.64 2.64 0 0 1-3.897-.006ZM46.76 97.924c-1.075-1.146-1.072-3.003.006-4.146l9.664-10.255a2.64 2.64 0 0 1 3.897.005c1.074 1.147 1.072 3.003-.006 4.147L50.657 97.93a2.64 2.64 0 0 1-3.897-.006ZM11.54 90.932c-1.075-1.146-1.073-3.002.005-4.146l13.32-14.134a2.64 2.64 0 0 1 3.897.005c1.074 1.147 1.072 3.003-.006 4.147l-13.32 14.134a2.64 2.64 0 0 1-3.897-.006ZM28.5 95.118c-1.075-1.146-1.073-3.002.005-4.146L39.34 79.475a2.64 2.64 0 0 1 3.896.006c1.075 1.146 1.072 3.003-.006 4.146L32.396 95.124a2.64 2.64 0 0 1-3.897-.005Z" fill="#1DBBBA"/></svg>