<svg width="300" height="200" fill="none" xmlns="http://www.w3.org/2000/svg"><path fill-rule="evenodd" clip-rule="evenodd" d="M.554 22.884C.554 10.245 10.799 0 23.438 0h76.27v31.865a18.514 18.514 0 0 1 11.65-4.102c10.268 0 18.592 8.324 18.592 18.592 0 10.268-8.324 18.591-18.592 18.591-4.41 0-8.462-1.536-11.65-4.102v38.31h-38.92a18.509 18.509 0 0 1 3.717 11.156c0 10.268-8.324 18.591-18.591 18.591-10.268 0-18.592-8.323-18.592-18.591 0-4.186 1.383-8.048 3.718-11.156H.553v-76.27Z" fill="#2186D8"/><path d="M40.994 44.94v18.17h-5.631V15.04H48.57c5.14 0 9.118 1.251 11.934 3.754 2.838 2.503 4.257 6.034 4.257 10.593s-1.576 8.29-4.727 11.196c-3.128 2.905-7.363 4.358-12.704 4.358h-6.336Zm0-24.805v19.71h5.9c3.888 0 6.85-.882 8.883-2.648 2.056-1.787 3.084-4.302 3.084-7.542 0-6.347-3.754-9.52-11.263-9.52h-6.604Z" fill="#fff"/><path fill-rule="evenodd" clip-rule="evenodd" d="M100.7 0h76.271c12.638 0 22.884 10.245 22.884 22.884v76.27h-26.95a19.741 19.741 0 0 0 2.653-9.915c0-10.952-8.879-19.83-19.831-19.83s-19.831 8.878-19.831 19.83c0 3.612.966 6.999 2.653 9.915H100.7v-35.67a19.74 19.74 0 0 0 10.411 2.95c10.953 0 19.831-8.879 19.831-19.831s-8.878-19.831-19.831-19.831a19.74 19.74 0 0 0-10.411 2.95V0Z" fill="#2186D8"/><path d="M155.628 63.284c-6.816 0-12.28-2.246-16.392-6.738-4.09-4.492-6.135-10.335-6.135-17.531 0-7.733 2.09-13.9 6.269-18.504 4.179-4.604 9.866-6.906 17.062-6.906 6.637 0 11.978 2.235 16.023 6.705 4.067 4.47 6.101 10.313 6.101 17.531 0 7.844-2.078 14.046-6.235 18.605-4.157 4.559-9.721 6.838-16.693 6.838Zm.402-44.583c-5.051 0-9.152 1.821-12.303 5.464-3.151 3.642-4.726 8.425-4.726 14.347 0 5.922 1.531 10.693 4.592 14.313 3.084 3.598 7.096 5.397 12.035 5.397 5.274 0 9.43-1.72 12.469-5.162 3.04-3.442 4.559-8.257 4.559-14.448 0-6.346-1.475-11.252-4.424-14.716-2.95-3.463-7.018-5.195-12.202-5.195Z" fill="#fff"/><path fill-rule="evenodd" clip-rule="evenodd" d="M99.154 199.302h-76.27C10.245 199.302 0 189.056 0 176.418v-76.271h28.233a19.74 19.74 0 0 0-2.95 10.411c0 10.953 8.88 19.831 19.832 19.831s19.83-8.878 19.83-19.831a19.74 19.74 0 0 0-2.949-10.411h37.158v34.004a19.735 19.735 0 0 0-10.907-3.267c-10.952 0-19.83 8.879-19.83 19.831 0 10.953 8.878 19.831 19.83 19.831 4.03 0 7.778-1.202 10.907-3.266v32.022Z" fill="#2186D8"/><path d="M60.748 182.428c-3.553 1.877-7.978 2.816-13.274 2.816-6.838 0-12.314-2.201-16.426-6.604-4.111-4.402-6.167-10.179-6.167-17.33 0-7.688 2.313-13.9 6.938-18.638 4.626-4.738 10.493-7.107 17.6-7.107 4.558 0 8.335.66 11.33 1.978v6c-3.442-1.921-7.241-2.882-11.398-2.882-5.52 0-10 1.843-13.442 5.531-3.42 3.687-5.129 8.615-5.129 14.783 0 5.855 1.598 10.525 4.794 14.011 3.218 3.464 7.43 5.196 12.637 5.196 4.827 0 9.006-1.072 12.537-3.218v5.464Z" fill="#fff"/><path fill-rule="evenodd" clip-rule="evenodd" d="M100.726 199.315h99.154v-34.909a18.511 18.511 0 0 0 10.98 3.587c10.267 0 18.591-8.324 18.591-18.592 0-10.268-8.324-18.591-18.591-18.591a18.51 18.51 0 0 0-10.98 3.586v-34.235h-29.443a18.508 18.508 0 0 0 3.639-11.05c0-10.269-8.324-18.592-18.591-18.592-10.268 0-18.592 8.323-18.592 18.591 0 4.139 1.352 7.962 3.639 11.051h-39.806v35.834a18.515 18.515 0 0 0-11.654-4.105c-10.268 0-18.592 8.323-18.592 18.591s8.324 18.592 18.592 18.592c4.412 0 8.465-1.537 11.654-4.105v34.347Z" fill="#2186D8"/><path d="M135.828 182.426v-5.464c3.509 2.146 7.777 3.218 12.805 3.218 4.783 0 8.693-1.508 11.733-4.525 3.061-3.039 4.771-7.252 5.128-12.638h-21.286v-5.061h21.219c-.581-5.475-2.391-9.722-5.43-12.738-3.017-3.04-6.95-4.559-11.8-4.559-4.536 0-8.659.961-12.369 2.883v-5.9c3.442-1.386 7.565-2.079 12.369-2.079 6.906 0 12.515 2.325 16.828 6.973 4.313 4.626 6.47 10.816 6.47 18.571 0 7.129-2.079 12.939-6.235 17.431-4.135 4.469-9.587 6.704-16.359 6.704-5.162 0-9.52-.939-13.073-2.816Z" fill="#fff"/><path fill-rule="evenodd" clip-rule="evenodd" d="M277.116 100.146h-76.27v32.4a19.737 19.737 0 0 1 9.917-2.654c10.952 0 19.831 8.879 19.831 19.831s-8.879 19.831-19.831 19.831c-3.613 0-7-.966-9.917-2.654v32.401h76.27c12.639 0 22.884-10.245 22.884-22.884V123.03c0-12.638-10.245-22.884-22.884-22.884Z" fill="#2186D8"/><path d="m283.14 136.368-14.85 33.555c-2.637 5.944-5.184 9.989-7.643 12.134-2.458 2.146-5.14 3.219-8.045 3.219-2.391 0-4.391-.347-6-1.04v-5.698c1.922 1.139 3.777 1.709 5.564 1.709 1.811 0 3.476-.692 4.995-2.078 1.52-1.408 3.162-3.877 4.928-7.408l-16.292-34.393h6.403l11.531 25.677c.201.425.615 1.464 1.241 3.118h.067c.067-.201.525-1.285 1.374-3.252l10.693-25.543h6.034Z" fill="#fff"/></svg>