<svg xmlns="http://www.w3.org/2000/svg" width="350" height="350" fill="none"><path fill="#DFECF5" d="m25.584 253.008-.389-156.023 149.645-86.41 149.566 86.41.389 156.023-149.644 86.411z"/><path fill="#B5D5EB" d="m175.141 166.59-140.31 80.344-.39-144.588L174.83 21.379z"/><path fill="#DFECF5" d="m315.466 247.65-140.311 80.967L34.844 247.65l140.311-81.045z"/><path fill="#97B9CF" d="M315.458 247.634 175.147 166.59l-.311-145.211 140.311 80.967z"/><path fill="#FBFFF2" d="M34.844 243.05v4.589l94.266-54.444v-4.511z"/><path fill="#fff" d="M315.457 247.641v-4.511l-140.311-81.044-46.123 26.6v4.511l46.123-26.6z"/><path fill="#97B9CF" d="m25.195 96.984 9.334 5.367.31 145.289 140.312 80.967v10.811L25.584 253.007z"/><path fill="#B5D5EB" d="m324.486 96.984-9.334 5.367.311 145.289-140.311 80.967v10.811l149.645-86.411z"/><path fill="#FCC674" d="M143.254 51.57 41.676 110.137v84.078l101.578-58.334z"/><path fill="#fff" d="M101.652 77.078 75.596 92.4l-18.744 92.323 26.21-14.856zM113.475 69.914l-8.555 5.367-18.822 92.866 8.71-4.977z" opacity=".5"/><path fill="#8A6945" d="M39.27 108.812v87.267l1.866 1.089 102.822-61.522 1.867-86.178-1.867-1.09zm100.177 24.889-95.666 55.222v-78.166l95.666-55.223z"/><path fill="#fff" d="M41.137 109.902v87.267l104.689-60.434V49.469zm100.177 24.889-95.666 55.222v-78.244l95.666-55.223z"/><path fill="#8A6945" d="m106.242 74.659 3.266-1.867v78.245l-1.011.544.156 4.511 5.366-3.189V65.637l-7.933 4.589z"/><path fill="#fff" d="m106.32 76.76 5.055-2.878v78.245l-2.8 1.633.078 4.433 7.233-4.2V66.727l-9.722 5.6z"/><path fill="#8A6945" d="m65.952 97.913 3.267-1.867v78.245l-1.011.622.156 4.433 5.366-3.111V88.891l-7.933 4.588z"/><path fill="#fff" d="m66.035 100.018 5.055-2.878v78.244l-2.8 1.634.078 4.433 7.233-4.2V89.984l-9.722 5.6z"/><path fill="#FCC674" d="M38.8 111.845v84.312l3.89-2.256V109.59z"/><path fill="#8A6945" d="m43.39 106.398-4.59 2.723v4.511l.079-.078v78.244l-.078.078v4.589l4.589-2.722 1.866-86.256z"/><path fill="#fff" d="M38.8 111.222v4.511l1.945-1.089v78.244l-1.944 1.089v4.511l6.455-3.733v-87.267z"/><path fill="#DFECF5" d="m38.809 206.12 113.633-65.567-6.611-3.811-107.022 61.756z"/><path fill="#97B9CF" d="M152.443 140.55V53.206l-6.611-3.733v87.266z"/><path fill="#B5D5EB" d="m38.809 118.851 113.633-65.645-6.611-11.51-107.022 60.277z"/><path fill="#B5D5EB" d="M38.805 102.512v107.022h7.7V96.367z"/><path fill="#333" d="m280.375 229.069 1.167.7c-.234-.155-.545-.077-.856.078l-1.166-.7c.388-.233.7-.233.855-.078"/><path fill="#333" d="m279.829 232.715-1.167-.701c-.233-.155-.389-.388-.389-.777 0-.778.545-1.711 1.245-2.1l1.167.7c-.7.389-1.245 1.322-1.245 2.1.078.389.156.622.389.778"/><path fill="#000" d="M280.686 229.765c.7-.389 1.244-.078 1.244.7s-.544 1.711-1.244 2.1-1.245.078-1.245-.7c0-.7.545-1.711 1.245-2.1"/><path fill="#333" d="m271.582 239.089 1.167.7c-.234-.156-.545-.078-.856.078l-1.166-.7c.311-.234.622-.234.855-.078"/><path fill="#333" d="m271.028 242.679-1.166-.7c-.234-.155-.389-.389-.389-.777 0-.778.544-1.712 1.244-2.1l1.167.7c-.7.388-1.245 1.322-1.245 2.1 0 .388.156.7.389.777"/><path fill="#000" d="M271.893 239.792c.7-.388 1.244-.077 1.244.7 0 .778-.544 1.712-1.244 2.1s-1.245.078-1.245-.7.545-1.711 1.245-2.1"/><path fill="#333" d="m252.441 237.284 1.167.7c-.233-.156-.544-.078-.855.078l-1.167-.7c.311-.156.622-.234.855-.078M251.888 240.953l-1.167-.7c-.233-.156-.389-.389-.389-.778 0-.778.544-1.711 1.244-2.1l1.167.7c-.7.389-1.244 1.322-1.244 2.1 0 .389.155.622.389.778"/><path fill="#000" d="M252.752 238.07c.7-.389 1.245-.078 1.245.7s-.545 1.711-1.245 2.1-1.244.078-1.244-.7.544-1.711 1.244-2.1"/><path fill="#333" d="m249.566 226.493 1.167.699c-.233-.155-.544-.077-.855.078l-1.167-.7c.389-.155.7-.155.855-.077M249.016 230.148l-1.166-.7c-.234-.155-.389-.389-.389-.778 0-.777.544-1.711 1.244-2.1l1.167.7c-.7.389-1.244 1.323-1.244 2.1.077.389.155.623.388.778"/><path fill="#000" d="M249.877 227.273c.7-.389 1.245-.078 1.245.7s-.545 1.711-1.245 2.1-1.244.078-1.244-.7.544-1.711 1.244-2.1"/><path fill="#333" d="m266.922 221.124 1.167.7c-.234-.156-.545-.078-.856.078l-1.167-.7c.312-.156.623-.234.856-.078M266.309 224.789l-1.166-.7c-.234-.156-.389-.389-.389-.778 0-.778.544-1.711 1.244-2.1l1.167.7c-.7.389-1.244 1.322-1.244 2.1.077.389.155.622.388.778"/><path fill="#000" d="M267.162 221.902c.7-.389 1.245-.078 1.245.7s-.545 1.711-1.245 2.1-1.244.078-1.244-.7c.078-.778.622-1.711 1.244-2.1"/><path fill="#B3B3B3" d="m248.496 226.958 13.689 4.433.311-3.966-12.133-2.022c-.389-.078-.856-.078-1.245.233-.389.389-.544.7-.622 1.322"/><path fill="#666" d="m248.496 226.968 13.689 4.433.544-2.333-12.988-2.956c-.778-.155-1.089.234-1.245.856"/><path fill="#B3B3B3" d="m263.277 226.575 2.489-5.834c0-.077.156-.155.234-.155l1.088.078c.078 0 .156.077.156.155l.078.545-1.245 6.144z"/><path fill="#666" d="m267.324 221.445-1.244 6.145-.467-.078 1.478-6.611c.078-.156.156-.233.156-.078zM266.853 231.084c.078-1.245.155-2.567 0-3.111h-5.833v3.111c0 .466.311.855.855 1.166 1.167.623 2.956.623 4.122 0 .623-.233.856-.7.856-1.166"/><path fill="#B3B3B3" d="M265.989 226.81c1.167.622 1.167 1.711 0 2.333-1.166.623-2.955.623-4.122 0-1.166-.622-1.166-1.711 0-2.333 1.167-.7 3.034-.7 4.122 0"/><path fill="#B3B3B3" d="M266.617 229.22v2.333l14.311-1.556-.233-1.244s-.389-.778-1.244-.778c-.856 0-12.6-.311-12.6-.311.077.622.077 1.167-.234 1.556M251.453 237.856l.933.545 10.734-5.678v-2.333c-.934-.156-1.556-.545-1.945-1.089l-8.866 6.844c-.545.311-.856.934-.856 1.711"/><path fill="#666" d="m266.617 229.217 13.067-.389c.7 0 1.089.389 1.244 1.167l-14.311 1.555z"/><path fill="#B3B3B3" d="M263.977 230.309v2.489l7.233 7.234 1.089-.312c.078-.7-.078-1.322-.467-1.944l-5.444-8.167c-.623.623-1.4.778-2.411.7"/><path fill="#666" d="M263.977 230.312v2.489l7.233 7.234c0-.7-.078-1.323-.545-1.789zM252.387 238.402c0-.778.233-1.4.855-1.711l9.878-6.3v2.333z"/><path fill="#E6E6E6" d="m262.651 220.263.234-.233c.622-.389 1.633-.389 2.255 0l.234.233h.233v7.467c0 .233-.156.467-.467.622-.622.389-1.633.389-2.255 0-.311-.155-.467-.389-.467-.622v-7.467z"/><path fill="#4D4D4D" d="M264.052 219.875c1.246 0 2.256-.592 2.256-1.322s-1.01-1.323-2.256-1.323-2.255.592-2.255 1.323c0 .73 1.01 1.322 2.255 1.322"/><path fill="#333" d="M261.178 211.089c.311-.311.856-.622 1.556-.777.855-.234 1.788-.234 2.722 0 .7.155 1.166.466 1.555.777h.389v8.012c0 .7-.622 1.322-1.866 1.711a4.56 4.56 0 0 1-2.878 0c-1.245-.389-1.867-1.011-1.867-1.711v-8.012z"/><path fill="#4D4D4D" d="M262.574 209.378c-2.489.7-2.489 2.722 0 3.422a4.55 4.55 0 0 0 2.877 0c2.489-.7 2.489-2.722 0-3.422-.933-.311-1.866-.311-2.877 0"/><path fill="#333" d="m261.015 213.966 5.911-3.423c4.978-2.877 8.866-9.1 8.866-14.077v-8.556h-2.1v8.556c0 4.277-3.5 9.8-7.855 12.289l-5.911 3.422z"/><path fill="#34424B" d="M276.255 211.719v-3.422h-1.556c-.544-.545-1.167-1.011-2.022-1.478-4.745-2.722-12.445-2.722-17.189 0-.778.467-1.478.933-2.022 1.478h-1.556v3.422c0 1.789 1.167 3.578 3.578 4.978 4.744 2.722 12.444 2.722 17.189 0 2.411-1.4 3.578-3.189 3.578-4.978"/><path fill="#34424B" d="M264.122 215.293c6.701 0 12.133-3.134 12.133-7s-5.432-7-12.133-7-12.134 3.134-12.134 7 5.433 7 12.134 7"/><path fill="#B3B3B3" d="M272.677 215.13c-4.745 2.722-12.445 2.722-17.189 0-2.333-1.4-3.578-3.189-3.578-4.978v1.478c0 1.789 1.167 3.578 3.578 4.978 4.744 2.722 12.444 2.722 17.189 0 2.333-1.4 3.578-3.189 3.578-4.978v-1.478c0 1.867-1.167 3.656-3.578 4.978M269.719 181.226c.545-.311 1.4-.311 2.256.233l7.466 4.356c1.789 1.011 3.189 3.5 3.189 5.522v1.555c0 1.012-.389 1.712-.933 2.023l-2.489 1.477h-.078c-.544.312-1.322.234-2.178-.233l-7.466-4.278c-1.789-1.011-3.189-3.5-3.189-5.522v-1.555c0-1.011.389-1.712.933-2.023l1.634-.933z"/><path fill="#34424B" d="M268.864 181.698c.544-.311 1.322-.233 2.177.234l7.467 4.355c1.789 1.011 3.189 3.5 3.189 5.523v1.555c0 1.011-.389 1.711-.933 2.022l-1.634.934c-.544.311-1.322.233-2.178-.234l-7.466-4.277c-1.789-1.012-3.189-3.501-3.189-5.523v-1.555c0-1.011.389-1.711.933-2.023z"/><path fill="#34424B" d="M277.031 187.141c1.788 1.011 3.188 3.5 3.188 5.522v1.555c0 2.023-1.477 2.878-3.188 1.867l-7.467-4.356c-1.789-1.011-3.189-3.5-3.189-5.522v-1.555c0-2.023 1.478-2.878 3.189-1.789z"/><path fill="#34424B" d="M277.031 187.141c1.788 1.011 3.188 3.5 3.188 5.522v1.555c0 2.023-1.477 2.878-3.188 1.867l-7.467-4.356c-1.789-1.011-3.189-3.5-3.189-5.522v-1.555c0-2.023 1.478-2.878 3.189-1.789z"/><path fill="#97B9CF" d="m176.165 167.609-19.911 11.511 42.467 24.578 19.677-11.666z" opacity=".5"/><path fill="#333" d="M201.381 200.203v-2.566q0 .35-.467.7v2.566q.467-.35.467-.7M198.105 197.637v2.566q0 .35.467.7c.622.389 1.711.389 2.333 0v-2.566c-.622.389-1.711.389-2.333 0q-.467-.35-.467-.7"/><path fill="#000" d="M200.905 198.266c.623-.389.623-1.011 0-1.322-.622-.389-1.711-.389-2.333 0s-.622 1.011 0 1.322c.622.389 1.711.389 2.333 0"/><path fill="#333" d="M215.209 192.196v-2.567q0 .35-.467.7v2.567c.311-.156.467-.467.467-.7M211.934 189.629v2.567q0 .35.466.7c.622.388 1.711.388 2.334 0v-2.567c-.623.389-1.712.389-2.334 0-.311-.156-.466-.467-.466-.7"/><path fill="#000" d="M214.734 190.329c.622-.389.622-1.011 0-1.322-.623-.389-1.712-.389-2.334 0-.622.388-.622 1.011 0 1.322.622.389 1.634.389 2.334 0"/><path fill="#B3B3B3" d="m160.762 176.238 15.089-8.711 2.333 1.323-15.089 8.711z"/><path fill="#B3B3B3" d="m160.762 173.594 15.089-8.789v2.722l-15.089 8.711z"/><path fill="#B3B3B3" d="m163.098 174.914 15.089-8.789v2.722l-15.089 8.711z"/><path fill="#F2E8DF" d="m163.175 154.383 15.089-8.789-.077 20.533-15.089 8.789z"/><path fill="#B3B3B3" d="m160.848 152.985 15.089-8.712 2.333 1.323-15.089 8.789zM160.848 150.34l15.089-8.789v2.722l-15.089 8.711z"/><path fill="#B3B3B3" d="m160.848 150.34 15.089-8.789 2.333 1.4-15.089 8.711z"/><path fill="#D4BFA7" d="M198.484 195.294v2.722l2.333 1.322-40.055-23.1v-2.644 2.644l2.333 1.322v-2.644z"/><path fill="#B3B3B3" d="m160.922 129.808 15.089-8.788 2.333 1.322-15.089 8.789z"/><path fill="#F2E8DF" d="m163.254 131.129 15.088-8.789-.077 20.611-15.089 8.711z"/><path fill="#B3B3B3" d="m160.922 127.078 15.089-8.711v2.645l-15.089 8.789z"/><path fill="#B3B3B3" d="m160.922 127.078 15.089-8.711 2.333 1.322-15.089 8.712zM198.562 172.035l15.011-8.711v2.645l-15.089 8.789z"/><path fill="#D4BFA7" d="m198.565 172.04-.077 2.722-35.312-20.378-3.344-3.422 1.011-.622 2.333 1.322z"/><path fill="#F7F4F0" d="m163.176 151.66 15.089-8.711 35.311 20.378-15.011 8.711z"/><path fill="#B3B3B3" d="m161 106.543 15.089-8.79 2.255 1.323-15.011 8.789z"/><path fill="#F2E8DF" d="m163.34 107.867 15.011-8.789v20.611l-15.089 8.711z"/><path fill="#B3B3B3" d="m161 103.824 15.089-8.71v2.644L161 106.547z"/><path fill="#B3B3B3" d="m161 103.824 15.089-8.71 2.333 1.322-15.089 8.788zM198.559 148.863l15.088-8.789v2.722l-15.088 8.712z"/><path fill="#F7F4F0" d="m163.262 128.403 15.089-8.712 35.311 20.378-15.089 8.789z"/><path fill="#D4BFA7" d="M198.566 148.86v2.644l-35.311-20.378-2.333-1.322v-2.722l2.333 1.322z"/><path fill="#B3B3B3" d="m161.078 83.293 15.011-8.79 2.334 1.4-15.012 8.712z"/><path fill="#F2E8DF" d="m163.41 60.426 15.011-8.711v44.722l-15.089 8.789z"/><path fill="#B3B3B3" d="m198.645 125.601 15.088-8.789v2.723l-15.088 8.711z"/><path fill="#D4BFA7" d="M198.644 125.606v2.644l-35.311-20.377L161 106.55v-2.722l2.333 1.4z"/><path fill="#F7F4F0" d="m163.332 105.222 15.089-8.788 35.311 20.377-15.089 8.789z"/><path fill="#D4BFA7" d="M198.723 102.352v2.723l-35.312-20.456-2.333-1.322v-2.645z"/><path fill="#D4BFA7" d="M198.644 102.352v2.723l-35.311-20.456L161 83.297v-2.645l2.333 1.323z"/><path fill="#F7F4F0" d="m163.332 81.976 15.089-8.788 35.311 20.455-15.089 8.711z"/><path fill="#D4BFA7" d="M201.056 80.495v2.644l-37.645-21.7-2.333-1.4v-2.645z"/><path fill="#F2E8DF" d="m201.054 80.492 15.089-8.789-.312 118.845-15.011 8.788z"/><path fill="#F7F4F0" d="m176.167 48.606 37.644 21.777 2.334 1.323-15.089 8.788-2.333-1.4-37.645-21.7z"/><path fill="#D4BFA7" d="m201.051 80.49-.233 118.844-2.334-1.322v-23.255l.078-2.723v-23.177l.078-20.612v-2.644l.078-20.533V79.09z"/><path fill="#F7F4F0" d="m163.098 174.92.077-20.533 35.312 20.377v20.534z"/><path fill="#D4BFA7" d="m161.073 57.395 2.333 1.322-.078 46.511v2.644l-.077 20.534v2.722l-.078 20.533v2.722l-.078 20.534v2.644l-2.333-1.322v-2.644z"/><mask id="a" width="36" height="42" x="163" y="61" maskUnits="userSpaceOnUse" style="mask-type:luminance"><path fill="#fff" d="m163.402 61.46-.078 20.534 35.389 20.378.156-20.455z"/></mask><g mask="url(#a)"><path fill="#4D4D4D" d="m174.689 69.7 6.611-5.755v-1.867l-9.878 5.678z"/><path fill="#E6E6E6" d="m174.689 70.166 9.566-5.522-3.266-1.945-9.567 5.6z"/><path fill="#4D4D4D" d="m174.613 85.338 9.878-5.755.078-15.634-9.878 5.756z"/><path fill="#1A1A1A" d="M171.422 67.754v15.633l3.189 1.945.078-15.634z"/><path fill="#fff" d="m172.043 81.6 1.711.933V74.21l-1.711-.934zM172.125 71.34c0 .467.389 1.011.856 1.322.466.234.855.078.855-.31 0-.39-.389-1.012-.855-1.323-.545-.311-.856-.155-.856.311"/></g><mask id="b" width="36" height="42" x="163" y="61" maskUnits="userSpaceOnUse" style="mask-type:luminance"><path fill="#fff" d="m163.402 61.46-.078 20.534 35.389 20.378.156-20.455z"/></mask><g mask="url(#b)"><path fill="#4D4D4D" d="m178.189 71.724 6.611-5.756v-1.866l-9.878 5.677z"/><path fill="#E6E6E6" d="m178.189 72.19 9.566-5.523-3.266-1.944-9.567 5.6z"/><path fill="#4D4D4D" d="m178.109 87.342 9.878-5.755.078-15.634-9.878 5.756z"/><path fill="#1A1A1A" d="M174.922 69.777v15.634l3.189 1.944.078-15.633z"/><path fill="#fff" d="m175.539 83.611 1.711.934v-8.323l-1.711-.933zM175.621 73.352c0 .466.389 1.011.856 1.322.466.233.855.078.855-.311 0-.467-.389-1.011-.855-1.322-.545-.311-.856-.156-.856.31"/></g><mask id="c" width="36" height="42" x="163" y="61" maskUnits="userSpaceOnUse" style="mask-type:luminance"><path fill="#fff" d="m163.402 61.46-.078 20.534 35.389 20.378.156-20.455z"/></mask><g mask="url(#c)"><path fill="#4D4D4D" d="m181.685 73.728 6.611-5.756v-1.866l-9.878 5.677z"/><path fill="#E6E6E6" d="m181.685 74.197 9.566-5.522-3.266-1.944-9.567 5.6z"/><path fill="#4D4D4D" d="m181.609 89.37 9.878-5.756.078-15.633-9.878 5.755z"/><path fill="#1A1A1A" d="M178.418 71.785v15.633l3.189 1.945.078-15.633z"/><path fill="#fff" d="m179.039 85.643 1.711.933v-8.322l-1.711-.934zM179.121 75.296c0 .466.389 1.01.856 1.322.466.233.855.078.855-.311 0-.467-.389-1.011-.855-1.322-.545-.234-.856-.078-.856.31"/></g><mask id="d" width="36" height="42" x="163" y="61" maskUnits="userSpaceOnUse" style="mask-type:luminance"><path fill="#fff" d="m163.402 61.46-.078 20.534 35.389 20.378.156-20.455z"/></mask><g mask="url(#d)"><path fill="#4D4D4D" d="m185.181 75.767 6.611-5.756v-1.867l-9.878 5.678z"/><path fill="#E6E6E6" d="m185.181 76.232 9.566-5.522-3.266-1.944-9.567 5.6z"/><path fill="#4D4D4D" d="m185.105 91.4 9.878-5.755.078-15.633-9.878 5.755z"/><path fill="#6D7983" d="M181.914 73.828v15.633l3.189 1.945.078-15.633z"/><path fill="#fff" d="m182.531 87.662 1.711.933v-8.322l-1.711-.933zM182.613 77.315c0 .467.389 1.011.856 1.323.466.233.855.077.855-.312 0-.466-.389-1.01-.855-1.322-.545-.233-.856-.078-.856.311"/></g><mask id="e" width="36" height="42" x="163" y="61" maskUnits="userSpaceOnUse" style="mask-type:luminance"><path fill="#fff" d="m163.402 61.46-.078 20.534 35.389 20.378.156-20.455z"/></mask><g mask="url(#e)"><path fill="#4D4D4D" d="m192.177 79.728 6.611-5.678v-1.866l-9.878 5.677z"/><path fill="#E6E6E6" d="m192.177 80.28 9.566-5.6-3.266-1.868-9.567 5.6z"/><path fill="#4D4D4D" d="m192.094 95.362 9.878-5.678.077-15.633-9.877 5.678z"/><path fill="#1A1A1A" d="M188.91 77.871v15.633l3.189 1.867.078-15.633z"/><path fill="#fff" d="m189.535 91.713 1.711.933v-8.322l-1.711-.933zM189.617 81.366c0 .467.389 1.011.856 1.322.466.234.855.078.855-.31 0-.468-.389-1.012-.855-1.323-.545-.233-.856-.078-.856.311"/></g><mask id="f" width="36" height="42" x="163" y="61" maskUnits="userSpaceOnUse" style="mask-type:luminance"><path fill="#fff" d="m163.402 61.46-.078 20.534 35.389 20.378.156-20.455z"/></mask><g mask="url(#f)"><path fill="#4D4D4D" d="m195.673 81.748 6.611-5.678v-1.867l-9.878 5.678z"/><path fill="#E6E6E6" d="m195.673 82.29 9.567-5.6-3.267-1.866-9.567 5.6z"/><path fill="#4D4D4D" d="m195.598 97.381 9.877-5.677.078-15.634-9.878 5.678z"/><path fill="#1A1A1A" d="M192.406 79.887V95.52l3.189 1.867.078-15.634z"/><path fill="#fff" d="m193.031 93.732 1.711.934v-8.322l-1.711-.934zM193.113 83.386c0 .466.389 1.01.856 1.322.466.233.855.078.855-.311 0-.467-.389-1.011-.855-1.323-.545-.233-.856-.077-.856.312"/></g><mask id="g" width="36" height="42" x="163" y="61" maskUnits="userSpaceOnUse" style="mask-type:luminance"><path fill="#fff" d="m163.402 61.46-.078 20.534 35.389 20.378.156-20.455z"/></mask><g mask="url(#g)"><path fill="#4D4D4D" d="m199.181 83.794 6.611-5.677V76.25l-9.878 5.678z"/><path fill="#E6E6E6" d="m199.181 84.33 9.566-5.6-3.266-1.867-9.567 5.6z"/><path fill="#1A1A1A" d="M195.914 81.93v15.633l3.189 1.867.078-15.634z"/><path fill="#fff" d="m196.543 95.768 1.711.933v-8.322l-1.711-.934zM196.625 85.42c0 .467.389 1.012.856 1.323.466.233.855.078.855-.311 0-.467-.389-1.011-.855-1.322-.545-.234-.856-.078-.856.31"/></g><mask id="h" width="36" height="42" x="163" y="84" maskUnits="userSpaceOnUse" style="mask-type:luminance"><path fill="#fff" d="m163.402 84.625-.078 20.611 35.389 20.378.156-20.456z"/></mask><g mask="url(#h)"><path fill="#4D4D4D" d="m169.474 89.904 6.611-5.756V82.28l-9.878 5.756z"/><path fill="#E6E6E6" d="m169.474 90.447 9.566-5.6-3.266-1.866-9.567 5.6z"/><path fill="#4D4D4D" d="m169.398 105.533 9.878-5.755.078-15.634-9.878 5.756z"/><path fill="#1A1A1A" d="M166.207 88.035v15.633l3.189 1.867.078-15.633z"/><path fill="#fff" d="m166.828 101.799 1.711 1.011v-8.322l-1.711-1.011zM166.91 91.54c0 .466.389 1.01.856 1.322.466.233.855.077.855-.311 0-.467-.389-1.012-.855-1.323-.545-.31-.856-.155-.856.311"/></g><mask id="i" width="36" height="42" x="163" y="84" maskUnits="userSpaceOnUse" style="mask-type:luminance"><path fill="#fff" d="m163.402 84.625-.078 20.611 35.389 20.378.156-20.456z"/></mask><g mask="url(#i)"><path fill="#4D4D4D" d="m172.962 91.927 6.611-5.756v-1.866l-9.878 5.755z"/><path fill="#E6E6E6" d="m172.962 92.467 9.567-5.6L179.262 85l-9.567 5.6z"/><path fill="#4D4D4D" d="m172.887 107.565 9.877-5.756.078-15.633-9.878 5.755z"/><path fill="#1A1A1A" d="M169.695 90.059v15.633l3.189 1.867.078-15.634z"/><path fill="#fff" d="m170.32 103.818 1.711 1.011v-8.322l-1.711-1.01zM170.402 93.559c0 .467.389 1.011.856 1.322.467.234.855.078.855-.311 0-.467-.388-1.011-.855-1.322-.545-.311-.856-.156-.856.31"/></g><mask id="j" width="36" height="42" x="163" y="84" maskUnits="userSpaceOnUse" style="mask-type:luminance"><path fill="#fff" d="m163.402 84.625-.078 20.611 35.389 20.378.156-20.456z"/></mask><g mask="url(#j)"><path fill="#F15A24" d="m176.466 93.958 6.611-5.755v-1.867l-9.878 5.755z"/><path fill="#E6E6E6" d="m176.466 94.494 9.567-5.6-3.267-1.867-9.567 5.6z"/><path fill="#F15A24" d="m176.387 109.584 9.877-5.755.078-15.634-9.878 5.756z"/><path fill="#AD3814" d="M173.199 92.082v15.633l3.189 1.867.078-15.633z"/><path fill="#fff" d="m173.824 105.853 1.711 1.012v-8.323l-1.711-1.01zM173.906 95.594c0 .467.389 1.011.856 1.322.466.234.855.078.855-.31 0-.468-.389-1.012-.855-1.323-.545-.311-.856-.156-.856.311"/></g><mask id="k" width="36" height="42" x="163" y="84" maskUnits="userSpaceOnUse" style="mask-type:luminance"><path fill="#fff" d="m163.402 84.625-.078 20.611 35.389 20.378.156-20.456z"/></mask><g mask="url(#k)"><path fill="#4D4D4D" d="m179.954 95.97 6.611-5.756v-1.866l-9.877 5.755z"/><path fill="#E6E6E6" d="m179.954 96.525 9.567-5.6-3.267-1.866-9.566 5.6z"/><path fill="#4D4D4D" d="m179.887 111.608 9.877-5.756.078-15.633-9.878 5.755z"/><path fill="#1A1A1A" d="M176.688 94.102v15.633l3.188 1.867.078-15.634z"/><path fill="#fff" d="m177.32 107.865 1.711 1.011v-8.322l-1.711-1.011zM177.402 97.606c0 .466.389 1.01.856 1.322.467.233.855.078.855-.311 0-.467-.388-1.011-.855-1.322-.545-.311-.856-.156-.856.31"/></g><mask id="l" width="36" height="42" x="163" y="84" maskUnits="userSpaceOnUse" style="mask-type:luminance"><path fill="#fff" d="m163.402 84.625-.078 20.611 35.389 20.378.156-20.456z"/></mask><g mask="url(#l)"><path fill="#4D4D4D" d="m183.485 97.993 6.612-5.755V90.37l-9.878 5.756z"/><path fill="#E6E6E6" d="m183.485 98.54 9.567-5.6-3.267-1.866-9.566 5.6z"/><path fill="#4D4D4D" d="m183.414 113.627 9.878-5.755.078-15.634-9.878 5.756z"/><path fill="#1A1A1A" d="m180.218 96.129-.077 15.633 3.266 1.867.078-15.633z"/><path fill="#fff" d="m180.832 109.893 1.711 1.011v-8.323l-1.711-1.011zM180.914 99.633c0 .467.389 1.011.856 1.322.466.234.855.078.855-.311s-.389-1.01-.855-1.322c-.545-.311-.856-.156-.856.311"/></g><mask id="m" width="36" height="42" x="163" y="84" maskUnits="userSpaceOnUse" style="mask-type:luminance"><path fill="#fff" d="m163.402 84.625-.078 20.611 35.389 20.378.156-20.456z"/></mask><g mask="url(#m)"><path fill="#4D4D4D" d="m186.97 100.032 6.611-5.755V92.41l-9.878 5.756z"/><path fill="#E6E6E6" d="m186.97 100.568 9.566-5.6-3.266-1.866-9.567 5.6z"/><path fill="#4D4D4D" d="m186.891 115.666 9.877-5.755.078-15.634-9.878 5.756z"/><path fill="#1A1A1A" d="m183.703 98.16-.078 15.633 3.267 1.867.077-15.633z"/><path fill="#fff" d="m184.328 111.924 1.711 1.011v-8.322l-1.711-1.011zM184.41 101.664c0 .467.389 1.011.856 1.323.466.233.855.077.855-.312 0-.466-.389-1.011-.855-1.322-.545-.311-.856-.155-.856.311"/></g><mask id="n" width="36" height="42" x="163" y="84" maskUnits="userSpaceOnUse" style="mask-type:luminance"><path fill="#fff" d="m163.402 84.625-.078 20.611 35.389 20.378.156-20.456z"/></mask><g mask="url(#n)"><path fill="#4D4D4D" d="m190.478 102.032 6.611-5.755V94.41l-9.878 5.756z"/><path fill="#E6E6E6" d="m190.478 102.58 9.566-5.6-3.266-1.867-9.567 5.6z"/><path fill="#4D4D4D" d="m190.395 117.666 9.877-5.755.078-15.634-9.878 5.756z"/><path fill="#1A1A1A" d="m187.207 100.164-.078 15.633 3.267 1.867.077-15.633z"/><path fill="#fff" d="m187.824 113.932 1.711 1.011v-8.323l-1.711-1.011zM187.906 103.672c0 .467.389 1.011.856 1.322.466.234.855.078.855-.311 0-.466-.389-1.011-.855-1.322-.545-.311-.856-.155-.856.311"/></g><mask id="o" width="36" height="42" x="163" y="84" maskUnits="userSpaceOnUse" style="mask-type:luminance"><path fill="#fff" d="m163.402 84.625-.078 20.611 35.389 20.378.156-20.456z"/></mask><g mask="url(#o)"><path fill="#4D4D4D" d="m193.982 104.064 6.611-5.756v-1.867l-9.878 5.756z"/><path fill="#E6E6E6" d="m193.982 104.599 9.566-5.6-3.266-1.866-9.567 5.6z"/><path fill="#4D4D4D" d="m193.898 119.701 9.878-5.755.078-15.633-9.878 5.755z"/><path fill="#6D7983" d="m190.699 102.199-.078 15.634 3.267 1.866.078-15.633z"/><path fill="#fff" d="m191.332 115.959 1.711 1.011v-8.322l-1.711-1.011zM191.414 105.7c0 .466.389 1.011.856 1.322.466.233.855.078.855-.311 0-.467-.389-1.011-.855-1.323-.545-.311-.856-.155-.856.312"/></g><mask id="p" width="36" height="42" x="163" y="84" maskUnits="userSpaceOnUse" style="mask-type:luminance"><path fill="#fff" d="m163.402 84.625-.078 20.611 35.389 20.378.156-20.456z"/></mask><g mask="url(#p)"><path fill="#4D4D4D" d="m197.466 106.017 6.689-5.756v-1.867l-9.878 5.756z"/><path fill="#E6E6E6" d="m197.466 106.56 9.567-5.6-3.267-1.866-9.489 5.522z"/><path fill="#4D4D4D" d="m197.461 121.651 9.878-5.756v-15.633l-9.878 5.755z"/><path fill="#1A1A1A" d="m194.273 104.141-.078 15.633 3.267 1.867v-15.634z"/><path fill="#fff" d="m194.891 117.912 1.711 1.011v-8.322l-1.711-1.011zM194.891 107.653c0 .466.389 1.011.855 1.322.467.233.856.078.856-.311s-.389-1.011-.856-1.322-.855-.156-.855.311"/></g><mask id="q" width="36" height="42" x="163" y="84" maskUnits="userSpaceOnUse" style="mask-type:luminance"><path fill="#fff" d="m163.402 84.625-.078 20.611 35.389 20.378.156-20.456z"/></mask><g mask="url(#q)"><path fill="#4D4D4D" d="m200.966 108.044 6.689-5.755v-1.867l-9.878 5.755z"/><path fill="#E6E6E6" d="m200.966 108.584 9.567-5.6-3.267-1.867-9.489 5.522z"/><path fill="#1A1A1A" d="m197.773 106.168-.078 15.633 3.267 1.867v-15.633z"/><path fill="#fff" d="m198.387 119.936 1.711 1.011v-8.323l-1.711-1.011zM198.387 109.676c0 .467.389 1.011.855 1.322.467.234.856.078.856-.311 0-.466-.389-1.011-.856-1.322s-.855-.156-.855.311"/></g><mask id="r" width="36" height="42" x="163" y="107" maskUnits="userSpaceOnUse" style="mask-type:luminance"><path fill="#fff" d="m163.343 107.898-.077 20.534 35.389 20.455.155-20.533z"/></mask><g mask="url(#r)"><path fill="#4D4D4D" d="m169.392 113.114 6.611-5.677v-1.945l-9.878 5.756z"/><path fill="#E6E6E6" d="m169.392 113.654 9.566-5.6-3.266-1.866-9.567 5.599z"/><path fill="#4D4D4D" d="m169.32 128.749 9.878-5.678.078-15.633-9.878 5.677z"/><path fill="#1A1A1A" d="M166.125 111.238v15.634l3.189 1.866.078-15.633z"/><path fill="#fff" d="m166.75 125.092 1.711.933v-8.322l-1.711-.933zM166.832 114.75c0 .467.389 1.011.856 1.323.466.233.855.077.855-.312 0-.466-.389-1.011-.855-1.322-.467-.311-.856-.155-.856.311"/><path fill="#4D4D4D" d="m172.896 115.126 6.611-5.678v-1.944l-9.878 5.755z"/><path fill="#E6E6E6" d="m172.896 115.678 9.566-5.6-3.266-1.867-9.567 5.6z"/><path fill="#4D4D4D" d="m172.82 130.76 9.878-5.677.078-15.634-9.878 5.678z"/><path fill="#1A1A1A" d="M169.629 113.266v15.633l3.189 1.867.078-15.634z"/><path fill="#fff" d="m170.25 127.1 1.711.933v-8.322l-1.711-.934zM170.332 116.758c0 .467.389 1.011.856 1.322.466.234.855.078.855-.311 0-.466-.389-1.011-.855-1.322-.545-.311-.856-.156-.856.311"/><path fill="#4D4D4D" d="m176.411 117.153 6.611-5.677v-1.945l-9.877 5.756z"/><path fill="#E6E6E6" d="m176.411 117.697 9.567-5.6-3.267-1.867-9.566 5.6z"/><path fill="#4D4D4D" d="m176.328 132.788 9.878-5.678.078-15.633-9.878 5.677z"/><path fill="#1A1A1A" d="M173.145 115.289v15.633l3.188 1.867.078-15.633z"/><path fill="#fff" d="m173.758 129.131 1.711.933v-8.322l-1.711-.933zM173.84 118.789c0 .467.389 1.011.855 1.323.467.233.856.077.856-.312 0-.466-.389-1.011-.856-1.322-.544-.311-.855-.155-.855.311"/><path fill="#4D4D4D" d="m179.903 119.169 6.611-5.678v-1.944l-9.877 5.755z"/><path fill="#E6E6E6" d="m179.903 119.709 9.567-5.6-3.267-1.867-9.566 5.6z"/><path fill="#4D4D4D" d="m179.824 134.807 9.878-5.678.078-15.633-9.878 5.678z"/><path fill="#1A1A1A" d="M176.637 117.297v15.633l3.189 1.867.077-15.633z"/><path fill="#fff" d="m177.254 131.146 1.711.934v-8.322l-1.711-.934zM177.336 120.805c0 .467.389 1.011.855 1.322.467.234.856.078.856-.311 0-.467-.389-1.011-.856-1.322-.544-.311-.855-.156-.855.311"/><path fill="#F15A24" d="m183.392 121.2 6.611-5.677v-1.945l-9.878 5.756z"/><path fill="#E6E6E6" d="m183.392 121.74 9.566-5.6-3.266-1.867-9.567 5.6z"/><path fill="#F15A24" d="m183.312 136.842 9.878-5.677.078-15.634-9.878 5.678z"/><path fill="#AD3814" d="M180.125 119.328v15.633l3.189 1.867.078-15.633z"/><path fill="#fff" d="m180.754 133.186 1.711.933v-8.322l-1.711-.934zM180.836 122.844c0 .467.389 1.011.855 1.322.467.234.856.078.856-.311s-.389-1.011-.856-1.322c-.544-.311-.855-.156-.855.311"/><path fill="#4D4D4D" d="m186.907 123.224 6.611-5.756v-1.866l-9.877 5.755z"/><path fill="#E6E6E6" d="m186.907 123.764 9.567-5.6-3.267-1.867-9.566 5.6z"/><path fill="#4D4D4D" d="m186.828 138.862 9.878-5.756.078-15.633-9.878 5.755z"/><path fill="#6D7983" d="M183.641 121.367v15.634l3.189 1.866.077-15.633z"/><path fill="#fff" d="m184.266 135.119 1.711 1.012v-8.323l-1.711-.933zM184.348 124.856c0 .466.389 1.011.855 1.322.467.233.856.078.856-.311 0-.467-.389-1.011-.856-1.322-.544-.311-.855-.156-.855.311"/><path fill="#4D4D4D" d="m190.411 125.247 6.611-5.755v-1.867l-9.877 5.756z"/><path fill="#E6E6E6" d="m190.411 125.791 9.567-5.6-3.267-1.867-9.566 5.6z"/><path fill="#4D4D4D" d="m190.332 140.881 9.878-5.755.078-15.634-9.878 5.756z"/><path fill="#1A1A1A" d="M187.145 123.375v15.633l3.188 1.867.078-15.633z"/><path fill="#fff" d="m187.762 137.147 1.711 1.011v-8.322l-1.711-.934zM187.844 126.883c0 .467.389 1.011.855 1.322.467.234.856.078.856-.311 0-.466-.389-1.011-.856-1.322-.544-.311-.855-.156-.855.311"/><path fill="#4D4D4D" d="m193.907 127.263 6.611-5.756v-1.866l-9.877 5.755z"/><path fill="#E6E6E6" d="m193.907 127.807 9.567-5.6-3.267-1.867-9.566 5.6z"/><path fill="#4D4D4D" d="m193.836 142.897 9.878-5.756.077-15.633-9.877 5.755z"/><path fill="#1A1A1A" d="M190.641 125.395v15.633l3.189 1.867.077-15.634z"/><path fill="#fff" d="m191.262 139.162 1.711 1.012v-8.323l-1.711-.933zM191.344 128.899c0 .466.389 1.011.855 1.322.467.233.856.078.856-.311 0-.467-.389-1.011-.856-1.322-.544-.311-.855-.156-.855.311"/></g><mask id="s" width="36" height="42" x="163" y="131" maskUnits="userSpaceOnUse" style="mask-type:luminance"><path fill="#fff" d="m163.261 131.141-.077 20.533 35.388 20.378.156-20.456z"/></mask><g mask="url(#s)"><path fill="#4D4D4D" d="m169.251 136.357 6.611-5.678v-1.867l-9.878 5.678z"/><path fill="#E6E6E6" d="m169.251 136.896 9.567-5.6-3.267-1.866-9.567 5.6z"/><path fill="#4D4D4D" d="m169.176 151.987 9.878-5.678.077-15.633-9.877 5.678z"/><path fill="#1A1A1A" d="M165.984 134.488v15.634l3.189 1.866.078-15.633z"/><path fill="#fff" d="m166.684 148.326 1.633.933v-8.322l-1.633-.933zM166.684 137.983c0 .466.388 1.011.855 1.322.467.233.856.078.856-.311 0-.467-.389-1.011-.856-1.322-.544-.312-.855-.078-.855.311"/></g><mask id="t" width="36" height="42" x="163" y="131" maskUnits="userSpaceOnUse" style="mask-type:luminance"><path fill="#fff" d="m163.261 131.141-.077 20.533 35.388 20.378.156-20.456z"/></mask><g mask="url(#t)"><path fill="#F15A24" d="m172.759 138.388 6.611-5.678v-1.866l-9.878 5.678z"/><path fill="#E6E6E6" d="m172.759 138.932 9.567-5.6-3.267-1.867-9.567 5.6z"/><path fill="#F15A24" d="m172.68 154.01 9.877-5.677.078-15.634-9.878 5.678z"/><path fill="#AD3814" d="M169.492 136.52v15.633l3.189 1.867.078-15.634z"/><path fill="#fff" d="m170.188 150.353 1.633.934v-8.322l-1.633-.934zM170.188 140.012c0 .467.388 1.011.855 1.322.467.234.856.078.856-.311 0-.467-.389-1.011-.856-1.322-.544-.311-.855-.156-.855.311"/></g><mask id="u" width="36" height="42" x="163" y="131" maskUnits="userSpaceOnUse" style="mask-type:luminance"><path fill="#fff" d="m163.261 131.141-.077 20.533 35.388 20.378.156-20.456z"/></mask><g mask="url(#u)"><path fill="#4D4D4D" d="m181.536 143.431 6.611-5.756v-1.866l-9.877 5.755z"/><path fill="#E6E6E6" d="m181.536 143.893 9.567-5.522-3.267-1.867-9.566 5.522z"/><path fill="#4D4D4D" d="m181.539 159.065 9.878-5.756v-15.633l-9.878 5.755z"/><path fill="#1A1A1A" d="M178.27 141.559v15.633l3.266 1.867v-15.634z"/><path fill="#fff" d="m178.973 155.33 1.633 1.011v-8.322l-1.633-1.011zM178.973 145.071c0 .466.389 1.011.855 1.322.467.233.856.078.856-.311 0-.467-.389-1.011-.856-1.322s-.855-.156-.855.311"/></g><mask id="v" width="36" height="42" x="163" y="131" maskUnits="userSpaceOnUse" style="mask-type:luminance"><path fill="#fff" d="m163.261 131.141-.077 20.533 35.388 20.378.156-20.456z"/></mask><g mask="url(#v)"><path fill="#4D4D4D" d="m185.044 145.446 6.611-5.755v-1.867l-9.878 5.756z"/><path fill="#E6E6E6" d="m185.044 145.908 9.567-5.522-3.267-1.866-9.567 5.522z"/><path fill="#4D4D4D" d="m185.043 161.076 9.878-5.755v-15.633l-9.878 5.755z"/><path fill="#1A1A1A" d="M181.777 143.574v15.634l3.267 1.866v-15.633z"/><path fill="#fff" d="m182.473 157.342 1.633 1.011v-8.322l-1.633-1.011zM182.473 147.082c0 .467.389 1.011.855 1.323.467.233.856.077.856-.312 0-.466-.389-1.011-.856-1.322s-.855-.155-.855.311"/></g><mask id="w" width="36" height="42" x="163" y="131" maskUnits="userSpaceOnUse" style="mask-type:luminance"><path fill="#fff" d="m163.261 131.141-.077 20.533 35.388 20.378.156-20.456z"/></mask><g mask="url(#w)"><path fill="#4D4D4D" d="m188.528 147.462 6.611-5.755v-1.867l-9.877 5.755z"/><path fill="#E6E6E6" d="m188.528 147.928 9.567-5.522-3.267-1.867-9.566 5.522z"/><path fill="#4D4D4D" d="m188.543 163.096 9.878-5.756v-15.633l-9.878 5.756z"/><path fill="#1A1A1A" d="M185.262 145.598v15.633l3.266 1.867v-15.634z"/><path fill="#fff" d="m185.961 159.357 1.633 1.011v-8.322l-1.633-1.011zM185.961 149.098c0 .467.389 1.011.855 1.322.467.234.856.078.856-.311 0-.467-.389-1.011-.856-1.322s-.855-.156-.855.311"/></g><mask id="x" width="36" height="42" x="163" y="131" maskUnits="userSpaceOnUse" style="mask-type:luminance"><path fill="#fff" d="m163.261 131.141-.077 20.533 35.388 20.378.156-20.456z"/></mask><g mask="url(#x)"><path fill="#4D4D4D" d="m192.021 149.501 6.611-5.755v-1.867l-9.878 5.755z"/><path fill="#E6E6E6" d="m192.021 149.963 9.566-5.522-3.266-1.867-9.567 5.522z"/><path fill="#4D4D4D" d="m192.035 165.131 9.878-5.755v-15.634l-9.878 5.756z"/><path fill="#6D7983" d="M188.754 147.625v15.633l3.267 1.867v-15.633z"/><path fill="#fff" d="m189.461 161.396 1.633.934v-8.245l-1.633-1.011zM189.461 151.137c0 .467.389 1.011.855 1.322.467.234.856.078.856-.311s-.389-1.011-.856-1.322-.855-.156-.855.311"/></g><mask id="y" width="36" height="42" x="163" y="131" maskUnits="userSpaceOnUse" style="mask-type:luminance"><path fill="#fff" d="m163.261 131.141-.077 20.533 35.388 20.378.156-20.456z"/></mask><g mask="url(#y)"><path fill="#4D4D4D" d="m195.528 151.493 6.611-5.755v-1.867l-9.877 5.756z"/><path fill="#E6E6E6" d="m195.528 151.979 9.567-5.522-3.267-1.867-9.566 5.522z"/><path fill="#4D4D4D" d="m195.535 167.135 9.878-5.756v-15.633l-9.878 5.756z"/><path fill="#1A1A1A" d="M192.262 149.637v15.633l3.266 1.867v-15.634z"/><path fill="#fff" d="m192.969 163.396 1.633.934v-8.245l-1.633-1.011zM192.969 153.137c0 .467.389 1.011.855 1.322.467.234.856.078.856-.311 0-.467-.389-1.011-.856-1.322s-.855-.156-.855.311"/></g><mask id="z" width="36" height="42" x="163" y="131" maskUnits="userSpaceOnUse" style="mask-type:luminance"><path fill="#fff" d="m163.261 131.141-.077 20.533 35.388 20.378.156-20.456z"/></mask><g mask="url(#z)"><path fill="#4D4D4D" d="m199.036 153.536 6.611-5.755v-1.867l-9.877 5.756z"/><path fill="#E6E6E6" d="m199.036 153.998 9.567-5.522-3.267-1.867-9.566 5.523z"/><path fill="#1A1A1A" d="M195.77 151.672v15.633l3.266 1.867v-15.633z"/><path fill="#fff" d="m196.469 165.432 1.633.933v-8.245l-1.633-1.011zM196.469 155.172c0 .467.389 1.011.855 1.322.467.234.856.078.856-.311 0-.466-.389-1.011-.856-1.322s-.855-.155-.855.311"/></g><path fill="#333" d="M164.119 178.645v-2.567q0 .35-.467.7v2.567c.311-.156.467-.467.467-.7"/><path fill="#333" d="M160.852 176.078v2.567q0 .35.466.7c.622.389 1.711.389 2.334 0v-2.567c-.623.389-1.712.389-2.334 0q-.466-.35-.466-.7"/><path fill="#000" d="M163.652 176.778c.622-.389.622-1.011 0-1.322-.623-.389-1.712-.389-2.334 0s-.622 1.011 0 1.322c.622.389 1.711.389 2.334 0"/><path fill="#D4BFA7" d="m201.051 103.674-.233 95.666-1.089.623-1.245-1.945v-23.255l.078-2.723v-23.177l.078-20.611v-2.645l.078-20.533v-2.722z"/><path fill="#F2E8DF" d="m159.75 176.861 19.056 10.967.777.466 20.145 11.667v-26.056l-20.145-11.589-.777-.466-18.978-10.889z"/><path fill="#D4BFA7" d="M178.805 161.848v25.977l.777.467v-25.978z"/><path fill="#333" d="m181.618 165.891-.7.389c.156-.078.311-.078.544.078l.7-.389c-.233-.156-.388-.156-.544-.078"/><path fill="#333" d="m181.924 168.069.7-.389q.233-.116.233-.467c0-.466-.311-1.011-.7-1.244l-.7.389c.389.233.7.777.7 1.244q0 .35-.233.467"/><path fill="#000" d="M181.462 166.357c-.389-.233-.7-.078-.7.389s.311 1.011.7 1.245c.389.233.7.077.7-.389 0-.467-.311-1.011-.7-1.245"/><path fill="#333" d="m175.712 162.457-.7.389c.155-.078.311-.078.544.078l.7-.389c-.233-.155-.389-.155-.544-.078M176.017 164.639l.7-.389q.234-.117.234-.466c0-.467-.311-1.012-.7-1.245l-.7.389c.389.233.7.778.7 1.244q0 .35-.234.467"/><path fill="#000" d="M175.559 162.928c-.389-.234-.7-.078-.7.388 0 .467.311 1.012.7 1.245s.7.078.7-.389-.311-1.011-.7-1.244"/><path fill="#D4BFA7" d="M84.473 186.037c2.256 9.489 1.634 14.078-1.088 19.677L59.74 219.481c2.722-5.6 3.344-10.189 1.089-19.678-2.567-10.811-1.789-14.155-.622-14.855 1.01-.545 2.255.622 2.1 1.089l20.455-11.9c-.155 2.177.234 5.911 1.711 11.9"/><path fill="#F2E8DF" d="M85.325 186.037c2.255 9.489 1.867 15.4-.856 21l-23.644 13.766c2.722-5.6 3.111-11.511.855-21-2.566-10.811-1.788-14.155-.622-14.855 1.011-.545 2.256.622 2.1 1.089l20.456-11.9c-.078 2.177.31 5.911 1.71 11.9"/><path fill="#333" d="m96.296 246.871 1.633-1.011-6.3-32.2-1.711.933z"/><path fill="#4D4D4D" d="m91 214.905 1.633-.933-.156-1.089-1.633.933z"/><path fill="#CCC" d="m90.839 213.803 1.633-.933-1.089-.311-1.633 1.011z"/><path fill="#333" d="m75.895 235.354 1.633-.933 10.5-33.523-1.634.934z"/><path fill="#A79681" d="m86.406 201.675 1.633-.933-1.011-.933-1.634.933z"/><path fill="#4D4D4D" d="m86.402 201.827 1.634-.933v-.156l-1.634.934z"/><path fill="gray" d="m81.972 174.065-1.09-.311 5.523 27.922 8.789 44.878 1.089.311-6.378-32.278 1.089.311-.156-1.089-1.088-.233z"/><path fill="gray" d="m85.394 200.738-10.578 33.678 1.09.933 10.5-33.522v-.155z"/><path fill="#4D4D4D" d="m81.976 174.064 1.633-1.011-1.011-.311-1.711 1.011z"/><path fill="#333" d="m81.976 174.064 1.633-1.011-1.011-.311-1.711 1.011z"/><path fill="#4D4D4D" d="m89.754 213.573 1.634-1.011-7.778-39.511-1.633 1.011z"/><path fill="gray" d="M91.542 223.993v-.466c-.156-.078-.233-.234-.389-.312l-10.111-5.833c-.622-.311-1.089-.155-1.089.467s.467 1.322 1.089 1.711l10.111 5.833c.233.156.467.156.622.156-.077-.545-.233-1.011-.233-1.556"/><path fill="#333" d="m78.019 257.356 1.633-.934-6.3-32.277-1.633.933z"/><path fill="#4D4D4D" d="m72.796 225.385 19.833-11.433-.155-1.089-19.912 11.511z"/><path fill="#CCC" d="m72.566 224.381 19.91-11.511-1.088-.311-19.911 11.511z"/><path fill="#333" d="m57.633 245.916 1.633-1.011 10.578-33.522-1.633.933z"/><path fill="#A79681" d="m68.137 212.164 1.71-.934-1.01-.933-1.634.933z"/><path fill="#4D4D4D" d="m68.215 212.312 1.633-.934v-.155l-1.711.933z"/><path fill="gray" d="m63.773 184.557-1.09-.311 5.445 27.922 8.789 44.878 1.089.311-6.3-32.278 1.089.312-.234-1.012-1.089-.311z"/><path fill="gray" d="M67.199 211.223 56.62 244.9l1.011 1.012 10.578-33.6-.078-.156z"/><path fill="#4D4D4D" d="m63.776 184.545 1.634-.933-1.09-.311-1.632.933z"/><path fill="#333" d="m63.776 184.545 1.634-.933-1.09-.311-1.632.933z"/><path fill="#4D4D4D" d="m71.477 224.069 1.712-.933-7.778-39.511-1.634.933z"/><path fill="#4D4D4D" d="m62.294 186.039 23.645-13.767-.623-.233-23.644 13.767z"/><path fill="#FBFFF2" d="m70.079 225.547 23.644-13.844-7.778-39.433-23.644 13.766z"/><path fill="#FFC366" d="M84.617 201.438c-2.334 1.322-3.734 4.589-3.034 7.311.234.856.7 1.634 1.322 2.178l1.4-2.1a2.9 2.9 0 0 1-.7-1.167c-.389-1.477.311-3.188 1.634-3.966a2.2 2.2 0 0 1 1.166-.311l.39-2.489c-.7-.078-1.478.155-2.178.544"/><path fill="#F15A24" d="m86.795 200.898-.389 2.489c.856 0 1.556.623 1.867 1.634.389 1.477-.311 3.189-1.633 3.966-.078.078-.156.078-.234.156l.39 2.333.466-.233c2.333-1.322 3.733-4.589 2.955-7.311-.544-1.867-1.788-3.034-3.422-3.034"/><path fill="#6D7983" d="m84.314 208.75-1.4 2.1c1.011.856 2.411 1.089 3.811.467l-.389-2.334c-.7.389-1.477.234-2.022-.233"/><path fill="#3399B0" d="m84.314 208.75-1.4 2.1c1.011.856 2.411 1.089 3.811.467l-.389-2.334c-.7.389-1.477.234-2.022-.233"/><path fill="#6D7983" d="m76.85 207.883-.7 2.489c.7.155 1.323.7 1.478 1.555.39 1.478-.31 3.189-1.633 3.967-.078.078-.156.078-.233.155l.389 2.334.466-.234c2.334-1.322 3.734-4.588 2.956-7.311-.39-1.633-1.4-2.722-2.722-2.955"/><path fill="#3399B0" d="m76.85 207.883-.7 2.489c.7.155 1.323.7 1.478 1.555.39 1.478-.31 3.189-1.633 3.967-.078.078-.156.078-.233.155l.389 2.334.466-.234c2.334-1.322 3.734-4.588 2.956-7.311-.39-1.633-1.4-2.722-2.722-2.955"/><path fill="#FFC366" d="M71.096 212.402a6.66 6.66 0 0 0-.078 3.267c.622 2.489 2.8 3.578 5.055 2.644l-.388-2.333c-1.167.545-2.412-.078-2.723-1.4-.155-.544-.155-1.167 0-1.789z"/><path fill="#F15A24" d="M74.057 208.365c-1.4.777-2.489 2.333-2.955 4.044l1.944.389c.233-.933.856-1.789 1.633-2.178.467-.311 1.011-.389 1.478-.233l.7-2.489q-1.4-.35-2.8.467"/><path fill="#333" d="m62.294 186.042-.622-.233 7.7 39.511.7.233z"/><path fill="gray" d="M73.114 234.031c-.078-.078-.156-.156-.311-.234l-10.111-5.833c-.156-.078-.312-.155-.39-.155a3.8 3.8 0 0 1-.31.855c-.078.156-.078.311-.156.467.156.389.544.778.933 1.011l10.111 5.833c.312.156.545.234.778.156a4.04 4.04 0 0 1-.544-2.1"/><path fill="#F2E8DF" d="m83.77 171.182-23.567 13.767c1.011-.544 2.256.7 2.178 1.089l20.456-11.9 3.266-1.867c-.078-.466-1.322-1.711-2.333-1.089"/><path fill="#6D7983" d="m70.784 201.045-.234.156-.077-.311.233-.156zM71.177 203.223l-.233.156-.078-.545.234-.155zm-.233-1.089-.233.156-.078-.545.233-.155zM71.327 204.069l-.156.155-.077-.311.155-.155zM74.6 198.858l-.233.078-.078-.311.233-.078zM74.994 201.036l-.233.155-.078-.544.233-.156zm-.156-1.089-.233.155-.078-.544.234-.156zM75.221 201.893l-.233.078-.078-.312.234-.155zM79.182 191.018l-.233.078-.078-.311.233-.078zM80.509 197.707l-.233.156-.156-.7.233-.156zm-.311-1.322-.233.156-.156-.7.233-.156zm-.233-1.4-.234.156-.155-.7.233-.156zm-.234-1.322-.233.155-.156-.7.234-.155zm-.31-1.322-.234.155-.156-.7.234-.155zM80.66 198.721l-.156.078-.078-.311.233-.156zM82.296 183.616l-.234.078v-.312l.156-.077zM84.633 195.283l-.233.156-.156-.623.234-.155zm-.233-1.322-.233.155-.156-.622.234-.155zm-.233-1.245-.234.156-.155-.622.233-.156zm-.311-1.322-.234.156-.155-.622.233-.156zm-.234-1.322-.233.156-.156-.623.234-.155zm-.31-1.244-.234.155-.156-.622.234-.156zm-.234-1.323-.234.156-.155-.622.233-.156zm-.234-1.322-.233.156-.155-.623.233-.155zm-.31-1.244-.234.155-.156-.622.234-.156zM84.862 196.295l-.233.078-.078-.311.233-.078z"/><path fill="#D93035" d="M69.537 204.622h-.389l1.245-3.966 3.889-2.489.544-5.211 4.045-2.411 2.8-6.611.388.077-2.877 6.845-3.967 2.333-.544 5.211-3.967 2.567z"/><path fill="#D93035" d="m82.218 184.636.544-2.8-1.633 2.567z"/><path fill="#6D7983" d="m87.662 194.743-18.589 10.811-2.878-14.156.234-.078 2.8 13.923 18.355-10.734z"/><path fill="#D4BFA7" d="m229.832 142.648 70.856 40.911v-57.945l-70.856-40.91z"/><path fill="#34424B" d="M300.378 184.023 229.6 143.112c-.155-.078-.311-.311-.311-.467V84.701c0-.234.078-.39.311-.467a.67.67 0 0 1 .545 0l70.777 40.911c.156.078.312.311.312.467v57.944c0 .234-.078.389-.312.467-.077.078-.155.078-.311.078 0 0-.155 0-.233-.078m-69.922-98.311v56.622l69.689 40.211v-56.622z"/><path fill="#fff" d="m277.129 122.031 17.189 9.878v34.067l-17.189-9.956z"/><path fill="#FBB03B" d="M279.941 132.519c0-3.111 2.567-4.2 5.678-2.411s5.678 5.833 5.678 9.022c0 3.111-2.567 4.2-5.678 2.411-3.111-1.867-5.678-5.911-5.678-9.022m3.5 2.022c0 1.167 1.012 2.722 2.178 3.422 1.167.7 2.178.311 2.178-.933 0-1.167-1.011-2.722-2.178-3.422-1.166-.7-2.178-.311-2.178.933"/><path fill="#3399B0" d="M285.615 141.464c3.111 1.789 5.678.7 5.678-2.411 0-1.633-.7-3.578-1.945-5.367l-2.333 1.322c.467.7.7 1.4.7 2.023 0 1.166-1.011 1.633-2.178.933-1.166-.7-2.178-2.256-2.178-3.422l-3.5-2.022c.078 3.111 2.645 7.155 5.756 8.944"/><path fill="#F15A24" d="M285.619 141.46c.545.312 1.011.545 1.478.7l-.933-3.888c-.156-.078-.389-.156-.545-.234-1.166-.7-2.178-2.255-2.178-3.422l-3.5-2.022c0 3.033 2.567 7.078 5.678 8.866"/><path fill="#CCC" d="m280.021 141.539 11.278 6.534c.311.155.544.077.544-.234v-.622c0-.311-.233-.622-.544-.778l-11.278-6.533c-.311-.156-.544-.078-.544.233v.622c0 .234.233.623.544.778"/><path fill="#F15A24" d="m287.33 145.742 3.966 2.256c.311.155.545.078.545-.233v-.623c0-.311-.234-.622-.545-.777l-3.966-2.256c-.312-.156-.545-.078-.545.233v.623c0 .233.233.622.545.777"/><path fill="#CCC" d="m280.021 143.875 11.278 6.534c.311.155.544.077.544-.234v-.622c0-.311-.233-.622-.544-.778l-11.278-6.533c-.311-.156-.544-.078-.544.233v.622c0 .234.233.623.544.778"/><path fill="#3399B0" d="m288.498 148.77 2.8 1.633c.311.156.544.078.544-.233v-.623c0-.311-.233-.622-.544-.777l-2.8-1.634c-.312-.155-.545-.077-.545.234v.622c0 .233.233.622.545.778"/><path fill="#CCC" d="m280.021 146.285 11.278 6.534c.311.155.544.077.544-.234v-.622c0-.311-.233-.622-.544-.778l-11.278-6.533c-.311-.156-.544-.078-.544.233v.623c0 .233.233.622.544.777"/><path fill="#6D7983" d="m286.634 150.094 4.667 2.644c.311.156.544.078.544-.233v-.622c0-.311-.233-.622-.544-.778l-4.667-2.644c-.311-.156-.544-.078-.544.233v.622c.078.233.311.622.544.778"/><path fill="#CCC" d="m280.021 148.703 11.278 6.534c.311.155.544.077.544-.234v-.622c0-.311-.233-.622-.544-.778l-11.278-6.533c-.311-.156-.544-.078-.544.233v.623c0 .233.233.544.544.777"/><path fill="#6D7983" d="m289.201 153.988 2.022 1.167c.311.156.544.078.544-.233v-.622c0-.312-.233-.623-.544-.778l-2.022-1.167c-.311-.155-.545-.078-.545.233v.623c.078.233.311.622.545.777"/><path fill="#fff" d="M282.191 133.769c0 1.944 1.556 4.355 3.5 5.444 1.945 1.089 3.5.467 3.5-1.478 0-1.944-1.555-4.355-3.5-5.444-1.944-1.089-3.5-.467-3.5 1.478"/><path fill="#6D7983" d="m290.289 160.745 1.089.622v-4.589l-1.089-.622z"/><path fill="#F15A24" d="m288.578 159.741 1.011.623v-2.8l-1.011-.623z"/><path fill="#3399B0" d="m286.863 158.734 1.011.622v-3.578l-1.011-.622z"/><path fill="#6D7983" d="m285.152 157.798 1.011.544v-4.044l-1.011-.622zM283.367 156.786l1.089.544v-2.489l-1.089-.544z"/><path fill="#3399B0" d="m281.652 155.776 1.011.545v-4.511l-1.011-.622z"/><path fill="#6D7983" d="m279.941 154.77 1.012.622v-3.5l-1.012-.622z"/><path fill="#fff" d="m233.336 97.848 17.189 9.955v33.989l-17.189-9.955z"/><path fill="#F15A24" d="M242.044 106.64c1.089.622 2.178 1.555 3.111 2.722l-1.477 2.256a7.5 7.5 0 0 0-1.711-1.478c-1.945-1.167-3.578-.233-3.578 2.022l-3.034-1.711c.078-4.2 3.034-5.911 6.689-3.811"/><path fill="#6D7983" d="M238.464 112.172c0 1.322.544 2.8 1.477 4.122l-1.788 1.789c-1.712-2.411-2.723-5.289-2.645-7.7z"/><path fill="#3399B0" d="M238.464 112.172c0 1.322.544 2.8 1.477 4.122l-1.788 1.789c-1.712-2.411-2.723-5.289-2.645-7.7z"/><path fill="#FFC366" d="M245.242 109.359c2.1 2.567 3.422 5.834 3.422 8.634 0 4.2-2.955 5.833-6.611 3.733-1.4-.778-2.722-2.1-3.889-3.656l1.789-1.788c.622.855 1.322 1.555 2.1 2.022 1.944 1.166 3.578.233 3.578-2.022 0-1.478-.7-3.267-1.867-4.667z"/><path fill="#333" d="m247.031 129.195 1.089.623v6.611l-1.089-.623z"/><path fill="#3399B0" d="m245.945 131.211 1.089.7v3.889l-1.089-.622z"/><path fill="#F15A24" d="m244.77 130.273 1.166.623v4.277l-1.166-.7z"/><path fill="#6D7983" d="m243.691 129.195 1.089.623v4.666l-1.089-.622z"/><path fill="#F15A24" d="m242.602 127.793 1.088.622v5.445l-1.088-.623z"/><path fill="#3399B0" d="m241.516 128.957 1.089.622v3.656l-1.089-.622z"/><path fill="#6D7983" d="m240.422 128.645 1.089.622v3.344l-1.089-.622z"/><path fill="#F15A24" d="m239.254 128.57 1.167.7v2.723l-1.167-.7z"/><path fill="#6D7983" d="m238.164 126.781 1.089.622v3.889l-1.089-.622z"/><path fill="#F15A24" d="m237.07 125.77 1.089.7v4.2l-1.089-.623z"/><path fill="#333" d="m235.988 125.77 1.089.622v3.655l-1.089-.622z"/><path fill="#6D7983" d="m234.902 123.359 1.089.623v5.444l-1.089-.622z"/><path fill="#333" d="m248.142 128.646-2.255-1.322v1.634l2.255 1.322zm-2.177.234v-1.478l2.177 1.244v1.478z"/><path fill="#333" d="M243.699 127.633V126l2.256 1.322v1.634zm.078-1.477v1.477l2.178 1.245V127.4z"/><path fill="#333" d="M241.453 126.391v-1.633l2.256 1.322v1.633zm.078-1.555v1.477l2.178 1.245v-1.478z"/><path fill="#333" d="M239.281 125.067v-1.633l2.256 1.322v1.633zm.078-1.478v1.478l2.178 1.244v-1.477z"/><path fill="#333" d="M237.094 123.821v-1.633l2.255 1.322v1.633zm0-1.478v1.478l2.178 1.244v-1.478z"/><path fill="#333" d="M234.84 122.579v-1.634l2.255 1.323v1.633zm.078-1.556v1.478l2.177 1.244v-1.477zM248.142 130.201l-2.255-1.322v1.633l2.255 1.322zm-2.177.233v-1.477l2.177 1.244v1.478z"/><path fill="#333" d="M243.699 129.192v-1.633l2.256 1.322v1.633zm.078-1.478v1.478l2.178 1.244v-1.477z"/><path fill="#333" d="M241.453 127.938v-1.633l2.256 1.322v1.633zm.078-1.556v1.478l2.178 1.245v-1.478z"/><path fill="#333" d="M239.281 126.704v-1.634l2.256 1.323v1.633zm.078-1.556v1.478l2.178 1.244v-1.477z"/><path fill="#333" d="M237.094 125.387v-1.633l2.255 1.322v1.633zm0-1.478v1.478l2.178 1.245v-1.478z"/><path fill="#333" d="M234.84 124.133V122.5l2.255 1.322v1.634zm.078-1.555v1.478l2.177 1.244v-1.478zM248.142 131.756l-2.255-1.322v1.633l2.255 1.322zm-2.177.233v-1.478l2.177 1.245v1.478z"/><path fill="#333" d="M243.699 130.747v-1.634l2.256 1.323v1.633zm.078-1.478v1.478l2.178 1.244v-1.478z"/><path fill="#333" d="M241.453 129.501v-1.634l2.256 1.322v1.634zm.078-1.556v1.478l2.178 1.244v-1.478z"/><path fill="#333" d="M239.281 128.254v-1.633l2.256 1.322v1.634zm.078-1.555v1.478l2.178 1.244v-1.478z"/><path fill="#333" d="M237.094 126.938v-1.633l2.255 1.322v1.633zm0-1.478v1.478l2.178 1.244v-1.477z"/><path fill="#333" d="M234.84 125.688v-1.633l2.255 1.322v1.633zm.078-1.556v1.478l2.177 1.245v-1.478zM248.142 133.314l-2.255-1.322v1.634l2.255 1.322zm-2.177.234v-1.478l2.177 1.244v1.478z"/><path fill="#333" d="M243.699 132.305v-1.633l2.256 1.322v1.633zm.078-1.478v1.478l2.178 1.245v-1.478z"/><path fill="#333" d="M241.453 131.055v-1.633l2.256 1.322v1.633zm.078-1.555v1.477l2.178 1.245v-1.478z"/><path fill="#333" d="M239.281 129.809v-1.633l2.256 1.322v1.633zm.078-1.555v1.477l2.178 1.245v-1.478z"/><path fill="#333" d="M237.094 128.493v-1.634l2.255 1.323v1.633zm0-1.478v1.478l2.178 1.244v-1.478z"/><path fill="#333" d="M234.84 127.247v-1.634l2.255 1.323v1.633zm.078-1.556v1.478l2.177 1.244v-1.477zM248.142 134.861l-2.255-1.322v1.633l2.255 1.323zm-2.177.234v-1.478l2.177 1.244v1.478z"/><path fill="#333" d="M243.699 133.86v-1.633l2.256 1.322v1.633zm.078-1.478v1.478l2.178 1.244v-1.477z"/><path fill="#333" d="M241.453 132.61v-1.633l2.256 1.322v1.633zm.078-1.556v1.478l2.178 1.245v-1.478z"/><path fill="#333" d="M239.281 131.368v-1.634l2.256 1.323v1.633zm.078-1.556v1.478l2.178 1.244v-1.477z"/><path fill="#333" d="M237.094 130.047v-1.633l2.255 1.322v1.634zm0-1.477v1.477l2.178 1.245v-1.478z"/><path fill="#333" d="M234.84 128.805v-1.633l2.255 1.322v1.633zm.078-1.555v1.477l2.177 1.245v-1.478z"/><path fill="#fff" d="m255.434 110.055 17.188 9.877v33.989l-17.188-9.877z"/><path fill="#F15A24" d="m267.254 120.553 3.967 2.256v-1.167l-3.967-2.255zM262.121 117.6l3.889 2.256v-1.167l-3.889-2.255zM256.914 114.565l3.889 2.256v-1.167l-3.889-2.256z"/><path fill="#fff" d="m267.254 122.581 3.967 2.256v-1.089l-3.967-2.256z"/><path fill="#F15A24" d="m262.121 119.616 3.889 2.255v-1.166l-3.889-2.256zM256.914 116.589l3.889 2.255v-1.088l-3.889-2.256z"/><path fill="#6D7983" d="m267.254 124.678 3.967 2.256v-1.167l-3.967-2.255zM262.121 121.643l3.889 2.256v-1.167l-3.889-2.255z"/><path fill="#3399B0" d="m256.914 118.69 3.889 2.256v-1.167l-3.889-2.256z"/><path fill="#F15A24" d="m267.254 126.702 3.967 2.255v-1.166l-3.967-2.256zM262.121 123.667l3.889 2.256v-1.089l-3.889-2.256zM256.914 120.71l3.889 2.255v-1.166l-3.889-2.256z"/><path fill="#3399B0" d="m267.254 128.721 3.967 2.256v-1.089l-3.967-2.333z"/><path fill="#6D7983" d="m262.121 125.76 3.889 2.256v-1.167l-3.889-2.255zM256.914 122.73l3.889 2.255v-1.089l-3.889-2.255z"/><path fill="#3399B0" d="m267.254 130.741 3.967 2.256v-1.089l-3.967-2.256z"/><path fill="#6D7983" d="m262.121 127.792 3.889 2.255v-1.166l-3.889-2.256zM256.914 124.753l3.889 2.333v-1.166l-3.889-2.256z"/><path fill="#F15A24" d="m267.254 132.842 3.967 2.256v-1.167l-3.967-2.255zM262.121 129.812l3.889 2.255v-1.089l-3.889-2.255z"/><path fill="#fff" d="m256.914 126.862 3.889 2.256v-1.167l-3.889-2.256z"/><path fill="#F15A24" d="m267.254 134.862 3.967 2.256v-1.167l-3.967-2.256z"/><path fill="#D4EEFF" d="m262.121 131.913 3.889 2.255v-1.166l-3.889-2.256z"/><path fill="#F15A24" d="m256.914 128.874 3.889 2.255v-1.166l-3.889-2.256z"/><path fill="#6D7983" d="m267.254 136.886 3.967 2.255v-1.089l-3.967-2.255zM262.121 133.932l3.889 2.256v-1.167l-3.889-2.255zM256.914 130.894l3.889 2.255v-1.089l-3.889-2.255z"/><path fill="#F15A24" d="m267.254 138.991 3.967 2.255v-1.166l-3.967-2.256zM262.121 135.956l3.889 2.255v-1.089l-3.889-2.333zM256.914 132.995l3.889 2.255v-1.166l-3.889-2.256zM267.254 122.581l3.967 2.256v-1.089l-3.967-2.256zM262.121 127.792l3.889 2.255v-1.166l-3.889-2.256zM256.914 124.753l3.889 2.333v-1.166l-3.889-2.256z"/><path fill="#fff" d="m267.254 132.842 3.967 2.256v-1.167l-3.967-2.255z"/><path fill="#F15A24" d="m262.121 129.812 3.889 2.255v-1.089l-3.889-2.255zM256.914 126.862l3.889 2.256v-1.167l-3.889-2.256z"/><path fill="#6D7983" d="m267.254 134.862 3.967 2.256v-1.167l-3.967-2.256zM262.121 131.913l3.889 2.255v-1.166l-3.889-2.256zM256.914 128.874l3.889 2.255v-1.166l-3.889-2.256z"/><path fill="#F15A24" d="m267.254 136.886 3.967 2.255v-1.089l-3.967-2.255zM262.121 133.932l3.889 2.256v-1.167l-3.889-2.255zM256.914 130.894l3.889 2.255v-1.089l-3.889-2.255z"/><path fill="#6D7983" d="m267.254 138.991 3.967 2.255v-1.166l-3.967-2.256zM262.121 135.956l3.889 2.255v-1.089l-3.889-2.333z"/><path fill="#3399B0" d="m256.914 132.995 3.889 2.255v-1.166l-3.889-2.256z"/><path fill="#6D7983" d="m267.254 141.01 3.967 2.256v-1.167l-3.967-2.255zM262.121 137.976l3.889 2.255v-1.089l-3.889-2.255zM256.914 135.022l3.889 2.256v-1.167l-3.889-2.256z"/><path fill="#F15A24" d="m267.254 143.034 3.967 2.256v-1.089l-3.967-2.256zM262.121 140.081l3.889 2.255v-1.166l-3.889-2.256z"/><path fill="#fff" d="m256.914 137.042 3.889 2.256v-1.089l-3.889-2.256z"/><path fill="#F15A24" d="m267.254 145.062 3.967 2.255v-1.089l-3.967-2.255z"/><path fill="#3399B0" d="m262.121 142.096 3.889 2.256v-1.167l-3.889-2.255z"/><path fill="#F15A24" d="m256.914 139.139 3.889 2.256v-1.167l-3.889-2.255z"/><path fill="#3399B0" d="m267.254 147.159 3.967 2.255v-1.166l-3.967-2.256z"/><path fill="#6D7983" d="m262.121 144.128 3.889 2.256v-1.089l-3.889-2.256zM256.914 141.167l3.889 2.255v-1.166L256.914 140z"/><path fill="#F15A24" d="m267.254 149.171 3.967 2.255v-1.167l-3.967-2.255zM262.121 146.221l3.889 2.256v-1.167l-3.889-2.255zM256.914 143.19l3.889 2.256v-1.167l-3.889-2.256z"/><path fill="#fff" d="M156.799 52.889 39.043 120.866V113.4l117.756-67.978z"/><path fill="#97B9CF" d="M198.947 236.366c-.778.467-.778 1.167 0 1.633l62.455 36.323c.856.466 2.178.466 3.034 0l41.455-23.956c.778-.467.778-1.167 0-1.633l-16.255-9.567c-.778-.467-2.1-.467-2.878 0l-12.911 7.467c-.856.466-2.256.466-3.111 0l-43.167-25.045c-.778-.466-2.1-.466-2.878 0z" opacity=".5"/><path fill="gray" d="m226.411 221.444 2.178 1.245c-.389-.234-.855-.156-1.478.155l-2.177-1.244c.544-.311 1.088-.389 1.477-.156"/><path fill="gray" d="m216.677 228.897-2.255-1.322 10.5-5.989 2.178 1.244z"/><path fill="#333" d="m203.693 239.705-2.177-1.322v-.934l2.177 1.245z"/><path fill="gray" d="m205.799 235.202-2.256-1.323 9.022-5.133 2.178 1.245z"/><path fill="gray" d="m203.693 238.701-2.177-1.244c0-1.323.933-2.878 2.022-3.578l2.178 1.244c-1.089.7-2.023 2.256-2.023 3.578"/><path fill="#666" d="m214.748 229.985-2.178-1.244-.078-18.745 2.178 1.322z"/><path fill="#333" d="m214.67 211.321-2.178-1.322 1.945-1.089 2.177 1.245z"/><path fill="#333" d="m216.61 210.156.078 18.745 10.422-6.067c1.167-.622 2.023-.156 2.023 1.167v.933l-25.434 14.7v-.933c0-1.323.934-2.878 2.022-3.578l8.945-5.211-.078-18.745z"/><path fill="gray" d="m299.216 243.676 2.178 1.245c-.389-.233-.856-.156-1.478.155l-2.178-1.244c.545-.311 1.089-.311 1.478-.156M272.377 261.025l-2.178-1.245 27.534-15.944 2.177 1.322z"/><path fill="#333" d="m259.466 271.826-2.255-1.245v-1.011l2.255 1.323z"/><path fill="gray" d="m261.494 267.327-2.178-1.245 8.945-5.211 2.178 1.322z"/><path fill="gray" d="m259.475 270.896-2.178-1.244c0-1.322.933-2.878 2.022-3.578l2.178 1.245c-1.167.7-2.1 2.255-2.022 3.577"/><path fill="#666" d="m270.443 262.192-2.178-1.322-.077-18.667 2.177 1.245z"/><path fill="#333" d="m270.365 243.442-2.177-1.244 1.944-1.167 2.178 1.322z"/><path fill="#333" d="m272.302 242.355.078 18.745 27.533-15.945c1.167-.622 2.022-.155 2.022 1.167v.933l-42.544 24.578v-.933c0-1.322.933-2.878 2.022-3.578l8.944-5.211-.077-18.744z"/><path fill="#666" d="m215.055 222.286 1.244-.7 53.667 30.878-1.245.7z"/><path fill="#333" d="m215.055 223.623 53.666 30.878v-1.322l-53.666-30.878z"/><path fill="gray" d="m264.053 265.853-2.178-1.245 6.378-3.733 2.178 1.322z"/><path fill="#666" d="m270.427 262.205-2.177-1.323-.078-36.866 2.178 1.244z"/><path fill="#333" d="m270.35 225.263-2.178-1.245 1.944-1.166 2.178 1.322z"/><path fill="#333" d="m272.296 224.172.078 36.867-1.945 1.166-.077-36.944z"/><path fill="#666" d="m285.826 253.324-2.256-1.322v-35.389l2.178 1.323z"/><path fill="#333" d="m285.748 217.935-2.178-1.323 1.945-1.089 2.178 1.245zM287.694 216.77v35.388l-1.866 1.167-.078-35.389z"/><path fill="#D4BFA7" d="M198.406 204.077c-.078-.311.155-.7.544-.934l25.745-14.777c.778-.467 2.1-.467 2.878 0l43.166 25.044c.856.467 2.256.467 3.111 0l12.911-7.467c.778-.466 2.1-.466 2.878 0l16.256 9.567c.389.233.544.545.544.856v2.1c0 .311-.233.622-.622.855l-41.456 23.956c-.855.466-2.177.466-3.033 0l-62.378-36.4a1.3 1.3 0 0 1-.622-.856v-2.1c.078.078.078.078.078.156"/><path fill="#F2E8DF" d="M198.951 203.143c-.778.467-.778 1.167 0 1.634l62.455 36.322c.856.467 2.178.467 3.033 0l41.456-23.956c.778-.466.778-1.166 0-1.633l-16.256-9.567c-.777-.466-2.1-.466-2.877 0l-12.911 7.467c-.856.467-2.256.467-3.112 0l-43.166-25.044c-.778-.467-2.1-.467-2.878 0z"/><path fill="#0E0E14" d="M240.262 223.851c0-.078 0-.233.078-.311l3.344-4.433.233-.234a1.75 1.75 0 0 1 1.4-.155l13.689 3.5c.467.155.778.389.778.7v1.633c0 .078 0 .233-.078.311l-3.344 4.433-.234.234a1.75 1.75 0 0 1-1.4.155l-13.689-3.5c-.466-.155-.777-.389-.777-.7z"/><path fill="#748597" d="M244.008 218.874c-.077.077-.233.155-.233.233l-3.344 4.433c-.311.389 0 .778.622 1.011l13.689 3.5c.466.156 1.089.078 1.4-.155.078-.078.233-.156.233-.234l3.345-4.433c.311-.389 0-.778-.623-1.011l-13.689-3.5a2.8 2.8 0 0 0-1.4.156"/><path fill="#333942" d="m231.617 192.652.078 23.023 37.8 9.644-.078-23.022zM269.426 202.288l.078 23.023.777-1.011-.077-23.023z"/><path fill="#748597" d="m232.395 191.629-.778 1.011 37.8 9.644.778-1.011z"/><path fill="#748597" d="m232.395 191.629-.778 1.011 37.8 9.644.778-1.011z"/><path fill="#4D5865" d="M240.246 201.836v12.833l21 5.289v-12.755z"/><path fill="#333942" d="M261.246 207.205v12.755l.389-.544V206.66z"/><path fill="#748597" d="m240.635 201.293-.389.544 21 5.367.389-.544z"/><path fill="#748597" d="m240.635 201.293-.389.544 21 5.367.389-.544zM247.461 213.508v9.955l5.133 1.245-.078-9.878z"/><path fill="#4D5865" d="M247.461 213.508v9.955l5.133 1.245-.078-9.878z"/><path fill="#0E0E14" d="m252.523 214.835.078 9.878 1.011-1.322-.311-9.567z"/><path fill="#6F819A" d="m248.161 212.582-.7.933 5.055 1.323.778-1.012z"/><path fill="#AD3814" d="m210.857 200.428 1.556-1.556h1.166c2.256-.777 5.056-.777 7.312 0h1.166l1.556 1.556c1.555 1.633 1.166 3.656-1.167 5.056-2.878 1.633-7.467 1.633-10.267 0-2.488-1.4-2.877-3.423-1.322-5.056"/><path fill="#FF7847" d="M217.237 203.624c3.05 0 5.522-1.428 5.522-3.189s-2.472-3.189-5.522-3.189-5.522 1.428-5.522 3.189 2.472 3.189 5.522 3.189"/><path fill="#1A1A1A" d="M213.34 199.743c0 .545 1.167.545 1.244 0v-7.077c0-1.245.389-2.411 1.011-3.423l5.212-7.933-.778-.544-5.211 7.933a6.9 6.9 0 0 0-1.167 3.889z"/><path fill="#4D4D4D" d="m229.906 184.807-5.6-5.133c-.078-.078-.389-.078-.778.155-.078 0-.156.078-.156.078l-1.711-1.556c-.078-.077-.078-.077-.233 0-.311.078-.622.156-.933.156-.078 0-.156.078-.234.078-.466.233-1.166.933-1.478 1.477-.155.234-.233.389-.233.545 0 .155 0 .311-.078.467 0 .155 0 .311-.077.388v.078c0 .078 0 .156.077.234l1.711 1.633c-.233.467-.233.7-.077.855l5.6 5.134c.077.078.389.078.777-.156.934-.544 2.256-1.866 3.034-3.033.466-.778.544-1.245.389-1.4"/><path fill="#AD3814" d="M229.521 186.139c-.7 1.167-2.1 2.489-3.033 3.033-.389.234-.623.234-.778.156l-3.034-2.8-1.011-.933-1.477-1.4c.077.077.388.077.699-.156.156-.078.234-.155.389-.233.856-.622 1.945-1.789 2.645-2.8.466-.7.544-1.167.389-1.322l.155.155 1.011.933 4.356 4.045c.233.155.156.622-.311 1.322"/><path fill="#F15A24" d="M223.606 179.837c.933-.544 1.088 0 .311 1.167-.7 1.166-2.1 2.489-3.034 3.033-.933.545-1.089 0-.311-1.167.7-1.166 2.1-2.566 3.034-3.033"/><path fill="#FF7847" d="M220.336 178.586c.467-.233.545 0 .156.545-.389.544-1.011 1.244-1.478 1.477s-.545 0-.156-.622c.389-.466 1.011-1.166 1.478-1.4"/><path fill="#AD3814" d="m221.658 178.348 1.944 1.789c.156.155 0 .466-.311 1.011-.544.855-1.555 1.866-2.255 2.255-.311.156-.467.156-.545.078l-1.944-1.789c.078.078.311.078.544-.078.7-.389 1.711-1.4 2.256-2.255.389-.545.467-.934.311-1.011"/><path fill="#F15A24" d="M220.569 178.505c.311-.078.622-.155.933-.155.389-.078.389.311-.077 1.011-.545.855-1.556 1.866-2.256 2.255-.467.234-.622.156-.622-.077v-.078c0-.156 0-.311.078-.389 0-.156 0-.311.077-.467 0 .156.078.234.389.078.467-.233 1.167-.933 1.478-1.478q.35-.817 0-.7M221.672 183.637l5.211 4.978c.389-.233.622-.467.933-.856l-5.211-4.9a8 8 0 0 1-.933.778"/><path fill="#C7B299" d="m290.749 224.944-12.445-7.311h-.077l12.522 7.233z"/><path fill="#AD3814" d="m290.893 224.552-12.522-7.233 9.567-5.522 12.522 7.233z"/><path fill="#FF7847" d="m290.807 222.142-12.522-7.311 9.645-5.522 12.522 7.233z"/><path fill="#FF7847" d="m290.735 222.139-12.444-7.311v.078a3.4 3.4 0 0 0-.467 1.244c-.078.623.078 1.167.467 1.478l12.522 7.233c-.311-.311-.544-.855-.467-1.477 0-.467.156-.856.389-1.245"/><path fill="#fff" d="M279.693 218.03c-.233-.233-.389-.622-.311-1.166 0-.311.155-.622.233-.856l-1.244-.778c-.156.234-.234.545-.234.856-.077.467.078.933.312 1.167z"/><path fill="#AD3814" d="M290.503 223.314c-.077.311 0 .622.078.855.078.156.156.311.234.389l9.566-5.522v.311l-9.644 5.6h-.078c-.156-.156-.311-.311-.389-.545-.078-.233-.155-.622-.078-.933 0-.078 0-.155.078-.233.078-.389.233-.7.467-1.011v-.078l.389-.233 8.4-4.9.855-.467v.311l-.855.467-8.167 4.744-.544.311c-.078.234-.234.545-.312.934"/><path fill="#FBFFF2" d="m299.444 217.395-8.089 4.666v1.711l8.089-4.666z"/><path fill="#F2E8DF" d="M291.356 222.07v1.711l-.856-.466c.078-.311.156-.622.311-.934z"/><path fill="#fff" d="m291.518 213.199-5.911 3.344-3.189-1.867 5.833-3.344z"/><path fill="#C7B299" d="m290.178 221.76-12.444-7.311h-.078l12.522 7.234z"/><path fill="#34424B" d="m290.346 221.361-12.522-7.233 9.567-5.523 12.522 7.234z"/><path fill="#333" d="m290.268 218.962-12.522-7.311 9.645-5.522 12.522 7.233zM290.184 218.963l-12.444-7.311v.078a3.5 3.5 0 0 0-.467 1.245c-.077.622.078 1.166.467 1.477l12.522 7.234c-.311-.311-.544-.856-.466-1.478 0-.389.155-.856.388-1.245"/><path fill="#F2E8DF" d="M279.142 214.917c-.233-.233-.389-.622-.311-1.166 0-.312.156-.623.233-.856l-1.244-.778c-.156.234-.233.545-.233.856-.078.466.077.933.311 1.166zM287.927 219.809a2.8 2.8 0 0 1-.155-.855c0-.156.077-.312.077-.467l-6.533-3.811c-.078.155-.078.311-.078.466 0 .312 0 .623.156.856z"/><path fill="gray" d="M289.953 220.114c-.078.311 0 .623.077.856.078.155.156.311.234.389l9.566-5.522v.311l-9.644 5.6h-.078c-.155-.156-.311-.311-.389-.545-.077-.233-.155-.622-.077-.933 0-.078 0-.156.077-.233.078-.389.234-.7.467-1.012v-.077l.389-.234 8.4-4.9.855-.466v.311l-.855.466-8.167 4.745-.544.311c-.078.233-.234.544-.311.933"/><path fill="#F2E8DF" d="m298.894 214.211-8.089 4.667v1.711l8.089-4.667zM290.805 218.875v1.711l-.856-.467c.078-.311.156-.622.311-.933z"/><path fill="#97B9CF" d="M224.078 292.678 157.189 254.1c-.856-.467-2.178-.467-3.034 0l-26.989 15.789c-.855.467-.855 1.244 0 1.789l19.678 11.355c-5.522-.933-11.744-.077-16.1 2.411-6.378 3.734-6.378 9.723 0 13.378 6.378 3.734 16.8 3.734 23.178 0 4.356-2.489 5.756-6.066 4.122-9.333l15.245 8.789c.933.544.933 1.4 0 1.944l-18.434 10.734c-.855.466-.855 1.244 0 1.788l17.578 10.034c.856.466 2.178.466 3.033 0L224 294.544c.933-.544.933-1.4.078-1.866" opacity=".5"/><path fill="gray" d="m160.528 254.315 2.256 1.323c-.389-.234-.934-.156-1.556.155l-2.255-1.322c.622-.389 1.166-.389 1.555-.156"/><path fill="gray" d="m150.411 262.11-2.333-1.322 10.889-6.3 2.333 1.322z"/><path fill="#333" d="m134.779 274.54-2.256-1.322-.078-1.011 2.334 1.322z"/><path fill="gray" d="m136.881 269.875-2.256-1.322 11.433-6.612 2.334 1.323z"/><path fill="gray" d="m134.787 273.528-2.256-1.322c0-1.322.934-3.033 2.1-3.733l2.256 1.322c-1.167.778-2.1 2.411-2.1 3.733"/><path fill="#666" d="m148.392 263.266-2.333-1.322v-19.522l2.255 1.322z"/><path fill="#333" d="m148.314 243.739-2.255-1.322 2.022-1.167 2.255 1.322z"/><path fill="#333" d="m150.337 242.574.078 19.522 10.888-6.3c1.167-.7 2.178-.155 2.178 1.245v1.011l-28.7 16.489v-1.011c0-1.322.934-3.034 2.1-3.734l11.434-6.611-.078-19.522z"/><path fill="#666" d="m148.715 255.262 1.322-.778 56 32.2-1.322.778z"/><path fill="#333" d="m148.715 256.588 56 32.2v-1.322l-56-32.2z"/><path fill="gray" d="m218.727 287.856 2.256 1.322c-.389-.233-.933-.155-1.556.156l-2.255-1.322c.622-.311 1.167-.311 1.555-.156M208.529 295.634l-2.256-1.322 10.889-6.3 2.334 1.4z"/><path fill="#333" d="m179.517 315.938-2.255-1.4v-1.011l2.255 1.4z"/><path fill="gray" d="m181.701 311.188-2.334-1.323 24.889-14.388 2.256 1.322zM179.517 314.934l-2.255-1.322c0-1.322.933-3.033 2.1-3.733l2.255 1.322c-1.166.7-2.1 2.333-2.1 3.733"/><path fill="#666" d="m206.513 296.807-2.256-1.322-.077-30.489 2.333 1.322z"/><path fill="#333" d="m206.513 266.313-2.333-1.322 2.022-1.167 2.333 1.322z"/><path fill="#333" d="m208.527 265.145.078 30.566 10.889-6.3c1.166-.7 2.178-.155 2.178 1.245v1.011l-42.078 24.266v-1.011c0-1.322.933-3.033 2.1-3.733l24.889-14.389-.078-30.567z"/><path fill="#666" d="m190.173 306.28-2.333-1.323-.078-30.566 2.333 1.322z"/><path fill="#333" d="m190.095 275.708-2.333-1.323 2.022-1.166 2.333 1.322z"/><path fill="#333" d="m192.12 274.539.078 30.567-2.023 1.166-.077-30.566z"/><path fill="#D4BFA7" d="M224.699 260.009c.077-.389-.156-.778-.623-1.089l-66.889-38.578c-.855-.466-2.177-.466-3.033 0l-26.989 15.789c-.389.233-.622.545-.622.856v2.255c0 .311.233.622.622.856l45.889 26.522-18.2 10.578c-.389.233-.622.544-.622.855v2.256c0 .311.233.622.622.855l17.578 10.034c.855.466 2.178.466 3.033 0l48.534-28.234c.466-.233.622-.622.622-.933v-2.255c.078.155.078.233.078.233"/><path fill="#F2E8DF" d="M224.076 258.92c.934.544.934 1.322 0 1.866l-48.533 28.234c-.856.466-2.178.466-3.033 0l-17.578-10.034c-.856-.466-.856-1.244 0-1.789l18.433-10.733c.933-.544.933-1.4 0-1.944l-46.2-26.678c-.855-.467-.855-1.245 0-1.789l26.989-15.789c.856-.467 2.178-.467 3.033 0z"/><path fill="#141C26" d="m148.172 239.327 22.011 12.756 13.922-8.089v-.778l-22.011-11.978-13.922 7.311z"/><path fill="#ADC1D9" d="m148.172 238.542 22.011 12.756 13.922-8.089-22.011-12.756z"/><path fill="#3B5E7D" d="m180.847 242.51-17.5-10.112-8.011 4.589 17.5 10.189z"/><path fill="#141C26" d="m180.45 242.504-1.322-.777-1.089.544 1.4.856zM178.895 241.575l-1.4-.778-1.011.622 1.4.778zM177.345 240.637l-1.4-.778-1.011.623 1.322.777zM175.704 239.786l-1.322-.778-1.011.544 1.322.778zM174.149 238.852l-1.322-.778-1.089.622 1.4.778zM172.599 237.914l-1.4-.777-1.011.622 1.322.778zM171.044 237.063l-1.4-.778-1.011.545 1.322.777zM169.411 236.129l-1.322-.777-1.011.622 1.322.778zM167.856 235.2l-1.322-.778-1.089.622 1.4.778zM166.298 234.34l-1.4-.778-1.011.545 1.322.778zM164.665 233.407l-1.322-.778-1.011.622 1.322.778zM178.583 243.594l-1.322-.778-1.011.545 1.322.778zM177.028 242.653l-1.322-.778-1.089.622 1.4.778zM175.478 241.731l-1.4-.778-1.012.622 1.323.778zM173.845 240.871l-1.322-.855-1.011.622 1.322.778zM172.286 239.942l-1.322-.778-1.011.545 1.322.855zM170.724 239.008l-1.323-.778-1.089.623 1.401.777zM169.177 238.075l-1.4-.778-1.011.622 1.322.778zM167.54 237.219l-1.322-.778-1.011.545 1.322.778zM165.989 236.286l-1.322-.778-1.089.622 1.4.778zM164.431 235.348l-1.323-.778-1.088.623 1.4.777zM162.876 234.497l-1.4-.778-1.011.544 1.322.778zM177.423 244.211l-1.322-.777-1.089.622 1.4.778zM175.868 243.368l-1.4-.778-1.011.544 1.322.778zM174.228 242.43l-1.322-.778-1.011.623 1.322.777zM172.669 241.493l-1.322-.778-1.011.622 1.322.778zM171.114 240.637l-1.322-.778-1.089.545 1.4.778zM169.567 239.707l-1.4-.777-1.011.622 1.322.778zM167.931 238.766l-1.322-.778-1.011.622 1.322.778zM166.376 237.926l-1.322-.856-1.011.623 1.322.777zM164.817 236.985l-1.322-.778-1.089.544 1.4.856zM163.255 236.051l-1.4-.778-1.011.623 1.322.777zM176.251 244.918l-1.4-.777-1.011.622 1.322.778zM174.7 244.063l-1.4-.856-1.011.622 1.322.778zM173.068 243.133l-1.323-.778-1.011.545 1.323.778zM171.513 242.196l-1.323-.778-1.088.622 1.4.778zM169.95 241.266l-1.4-.778-1.011.622 1.322.778zM168.322 240.414l-1.323-.777-1.011.544 1.323.778zM166.767 239.477l-1.322-.778-1.011.622 1.322.778zM165.208 238.532l-1.322-.778-1.089.622 1.4.778zM163.657 237.684l-1.4-.778-1.011.545 1.322.777z"/><path fill="#141C26" d="m161.625 235.118-1.167.7 1.556.933-1.011.622-1.556-.933-.389-.233-.933-.545.856-.544.155-.078 1.167-.7zM173.062 244.455l.389.233 1.633.933-1.089.622-1.556-.933-.388-.233-.934-.545 1.011-.622zM171.895 243.829l-1.322-.778-1.089.544 1.4.778zM170.341 242.895l-1.4-.778-1.011.622 1.322.778zM168.786 241.961l-1.4-.777-1.011.622 1.322.778zM167.15 241.109l-1.322-.855-1.012.622 1.323.778zM165.599 240.168l-1.323-.777-1.088.544 1.4.778zM164.044 239.239l-1.4-.778-1.011.622 1.322.778zM162.411 238.305l-1.322-.778-1.011.623 1.322.777zM159.531 236.672l.233.077 1.089.7-1.011.545-1.089-.622-.233-.156-1.633-.856 1.089-.622zM173.845 246.321l-1.322-.778-1.011.544 1.322.778zM172.286 245.375l-1.322-.777-1.089.622 1.4.778zM170.724 244.454l-1.4-.778-1.012.622 1.401.778zM162.176 239.553l.7.389.156.155 1.4.778.233.078 1.322.778.233.155 1.323.778 1.633.933-1.089.545-1.555-.856-1.323-.778-.233-.155-1.4-.778-.233-.155-1.323-.778-.233-.078-.622-.389-.7-.389 1.011-.622zM161.243 239.008l-1.322-.778-1.011.623 1.322.777zM159.685 238.152l-1.323-.855-1.089.622 1.4.778zM158.13 237.219l-1.4-.778-1.011.545 1.322.855z"/><path fill="#fff" d="m180.45 242.352-1.322-.778-1.089.622 1.4.778z"/><path fill="#96AAC3" d="m178.895 241.422-1.4-.777-1.011.622 1.4.778zM177.345 240.485l-1.4-.778-1.011.622 1.322.778zM175.704 239.633l-1.322-.778-1.011.545 1.322.778zM174.149 238.7l-1.322-.778-1.089.622 1.4.778zM172.599 237.762l-1.4-.778-1.011.623 1.322.777zM171.044 236.911l-1.4-.778-1.011.544 1.322.778zM169.411 235.977l-1.322-.778-1.011.622 1.322.778zM167.856 235.047l-1.322-.777-1.089.622 1.4.778zM166.298 234.188l-1.4-.778-1.011.545 1.322.777zM164.665 233.254l-1.322-.777-1.011.622 1.322.778zM178.583 243.442l-1.322-.778-1.011.545 1.322.777zM177.028 242.5l-1.322-.777-1.089.622 1.4.778zM175.478 241.579l-1.4-.778-1.012.622 1.323.778zM173.845 240.723l-1.322-.778-1.011.545 1.322.778zM172.286 239.789l-1.322-.777-1.011.544 1.322.856zM170.724 238.856l-1.323-.778-1.089.622 1.401.778zM169.177 237.922l-1.4-.777-1.011.622 1.322.778zM167.54 237.067l-1.322-.778-1.011.545 1.322.777zM165.989 236.133l-1.322-.778-1.089.623 1.4.777zM164.431 235.196l-1.323-.778-1.088.622 1.4.778zM162.876 234.344l-1.4-.778-1.011.545 1.322.778zM177.423 244.059l-1.322-.778-1.089.622 1.4.778zM175.868 243.215l-1.4-.777-1.011.544 1.322.778zM174.228 242.278l-1.322-.778-1.011.622 1.322.778zM172.669 241.34l-1.322-.778-1.011.623 1.322.778zM171.114 240.485l-1.322-.778-1.089.544 1.4.778zM169.567 239.555l-1.4-.778-1.011.623 1.322.777zM167.931 238.614l-1.322-.778-1.011.622 1.322.778zM166.376 237.762l-1.322-.778-1.011.545 1.322.778zM164.817 236.832l-1.322-.777-1.089.544 1.4.856zM163.255 235.899l-1.4-.778-1.011.622 1.322.778zM176.251 244.766l-1.4-.778-1.011.622 1.322.778zM174.7 243.91l-1.4-.855-1.011.622 1.322.778zM173.068 242.981l-1.323-.778-1.011.545 1.323.855zM171.513 242.043l-1.323-.777-1.088.622 1.4.778zM169.95 241.114l-1.4-.778-1.011.622 1.322.778zM168.322 240.262l-1.323-.778-1.011.545 1.323.778zM166.767 239.325l-1.322-.778-1.011.622 1.322.778zM165.208 238.379l-1.322-.777-1.089.622 1.4.778zM163.657 237.532l-1.4-.778-1.011.544 1.322.778z"/><path fill="#fff" d="m161.625 234.965-1.167.7 1.556.934-1.011.622-1.556-.934-.389-.233-.933-.544.856-.545.155-.078 1.167-.699zM173.062 244.302l.389.234 1.633.933-1.089.622-1.556-.933-.388-.234-.934-.544 1.011-.622z"/><path fill="#96AAC3" d="m171.895 243.676-1.322-.778-1.089.545 1.4.778zM170.341 242.743l-1.4-.778-1.011.622 1.322.778zM168.786 241.809l-1.4-.778-1.011.622 1.322.778zM167.15 240.957l-1.322-.855-1.012.622 1.323.778zM165.599 240.016l-1.323-.778-1.088.545 1.4.855zM164.044 239.086l-1.4-.777-1.011.622 1.322.778zM162.411 238.153l-1.322-.778-1.011.622 1.322.778z"/><path fill="#fff" d="m159.531 236.519.233.078 1.089.7-1.011.544-1.089-.622-.233-.155-1.633-.856 1.089-.622zM173.845 246.168l-1.322-.777-1.011.544 1.322.778z"/><path fill="#96AAC3" d="m172.286 245.223-1.322-.778-1.089.623 1.4.777zM170.724 244.301l-1.4-.778-1.012.623 1.401.777z"/><path fill="#fff" d="m162.176 239.401.7.388.156.156 1.4.778.233.078 1.322.777.233.156 1.323.778 1.633.933-1.089.545-1.555-.856-1.323-.778-.233-.155-1.4-.778-.233-.156-1.323-.777-.233-.078-.622-.389-.7-.389 1.011-.622z"/><path fill="#96AAC3" d="m161.243 238.856-1.322-.778-1.011.622 1.322.778zM159.685 238l-1.323-.777-1.089.544 1.4.778z"/><path fill="#fff" d="m158.13 237.067-1.4-.778-1.011.545 1.322.855z"/><path fill="#141C26" d="m162.711 230.297 21.389 12.911.622-.156L189 227.263l-22.089-12.755-.622.233z"/><path fill="#96AAC3" d="m162.094 230.457 22.011 12.756 4.278-15.789-22.089-12.678z"/><path fill="#fff" d="m162.867 230.139 20.845 12.055.077-.233 3.812-14.233-20.612-11.9-.311-.078z"/><path fill="#3B5E7D" d="m163.188 230.069 20.611 11.9 3.811-14.233-10.267-5.833-10.344-6.067zM157.418 242.511l5.211 3.034 3.267-1.867-5.211-3.033z"/><path fill="#fff" d="m187.374 227.883-1.245 4.589-1.633-6.3zM181.532 224.465l3.5 12.288-.7 2.412-4.355-15.634zM166.45 218.391l4.9 16.177-4.278-2.411-2.256-7.622zM170.412 218.082l5.6 19.212-1.4-.778-5.522-19.211zM179.124 223.057l4.9 17.5-.388 1.166-4.356-2.566-5.522-19.134z" opacity=".3"/><path fill="#C7B299" d="m202.148 268.861 13.067-7.623-13.067 7.545z"/><path fill="#AD3814" d="m201.999 268.472 13.066-7.623-9.955-5.755-13.067 7.622z"/><path fill="#FF7847" d="m202.154 265.909 13.067-7.544-10.111-5.834-13.067 7.545z"/><path fill="#FF7847" d="m202.144 265.989 12.989-7.622v.078c.233.389.467.856.467 1.322.078.622-.078 1.245-.467 1.556l-13.067 7.544c.389-.311.545-.855.467-1.555.078-.545-.078-.934-.389-1.323"/><path fill="#fff" d="M213.668 261.702c.233-.233.389-.7.311-1.166 0-.311-.155-.623-.311-.856l1.322-.778c.156.234.234.545.311.856.078.544-.077.933-.311 1.167z"/><path fill="#AD3814" d="M202.384 267.156c.078.311 0 .622-.078.934-.078.155-.155.311-.233.388l-9.956-5.755v.311l10.111 5.833h.078c.156-.155.311-.311.389-.544.078-.311.156-.622.078-.933 0-.078 0-.156-.078-.312a2.4 2.4 0 0 0-.467-1.011v-.077l-.389-.234-8.788-5.055-.934-.545v.311l.934.545 8.555 4.9.545.311c.077.233.233.544.233.933"/><path fill="#FBFFF2" d="m193.129 261 8.4 4.822v1.789l-8.4-4.822z"/><path fill="#F2E8DF" d="M201.527 265.836v1.789l.856-.545c-.078-.311-.156-.7-.311-.933z"/><path fill="#fff" d="m201.371 256.573 6.145 3.5 3.344-1.944-6.067-3.5z"/><path fill="#FBFFF2" d="m193.109 260.694 8.789 5.055 11.122-6.455-8.788-5.056z"/><path fill="#F2E8DF" d="m193.109 260.385 8.789 5.056 11.122-6.456-8.788-5.055z"/><path fill="#FBFFF2" d="m193.109 260.081 8.789 5.055 11.122-6.455-8.788-5.056z"/><path fill="#F2E8DF" d="m193.109 259.768 8.789 5.056 11.122-6.456-8.788-5.056z"/><path fill="#FBFFF2" d="m193.109 259.456 8.789 5.055 11.122-6.455-8.788-5.056z"/><path fill="#F2E8DF" d="m193.109 259.143 8.789 5.056 11.122-6.456-8.788-5.055z"/><path fill="#FBFFF2" d="m193.109 258.831 8.789 5.055 11.122-6.455-8.788-5.056z"/><path fill="#F2E8DF" d="m193.109 258.526 8.789 5.055 11.122-6.455-8.788-5.056z"/><path fill="#FBFFF2" d="m193.109 258.21 8.789 5.055 11.122-6.377-8.788-5.056z"/><path fill="#FBFFF2" d="m216.139 255.1-6.766 4.822-11.9-4.744 6.689-4.823z"/><path fill="#F2E8DF" d="m212.407 257.991-7.933 6.3-11.978-4.823 8.011-6.222z"/><path fill="#F2E8DF" d="m215.052 258.456-8.789 5.055-11.122-6.455L203.93 252z"/><path fill="#FBFFF2" d="m215.052 256.592-7.856 6.378-12.055-4.666 7.855-6.378z"/><path fill="#F2E8DF" d="m215.052 257.831-8.789 5.055-11.122-6.455 8.789-5.056z"/><path fill="#FBFFF2" d="m215.052 257.522-8.789 5.056-11.122-6.456 8.789-5.056z"/><path fill="#F2E8DF" d="m215.052 257.213-8.789 5.056-11.122-6.456 8.789-5.055z"/><path fill="#FBFFF2" d="m215.052 256.897-8.789 5.056-11.122-6.456 8.789-5.056z"/><path fill="#F2E8DF" d="m214.974 257.21-9.022 4.511-10.733-7.077 9.022-4.589z"/><path fill="#FBFFF2" d="m215.052 256.276-8.789 5.055-11.122-6.455 8.789-5.056z"/><path fill="#F2E8DF" d="m215.052 255.967-8.789 5.056-11.122-6.456 8.789-5.055z"/><path fill="#FBFFF2" d="m215.052 255.655-8.789 5.055-11.122-6.455 8.789-5.056z"/><path fill="#F2E8DF" d="m215.052 255.342-8.789 5.056-11.122-6.456 8.789-5.055z"/><path fill="#FBFFF2" d="m215.052 255.03-8.789 5.055-11.122-6.455 8.789-5.056z"/><path fill="#F2E8DF" d="m215.052 254.721-8.789 5.056-11.122-6.456 8.789-5.055z"/><path fill="#FBFFF2" d="m215.052 253.01-8.011 6.222-11.9-4.822 8.011-6.222z"/><path fill="#F2E8DF" d="m215.052 254.1-8.789 5.056-11.122-6.456 8.789-5.055z"/><path fill="#FBFFF2" d="m215.052 253.788-8.789 5.055-11.122-6.455 8.789-5.056z"/><path fill="#C7B299" d="m204.711 259.849-13.066-7.545v-.077l12.988 7.622z"/><path fill="#34424B" d="m204.786 259.441-12.989-7.545 9.955-5.755 13.067 7.544z"/><path fill="#333" d="m204.711 256.96-13.066-7.622 10.111-5.756 12.989 7.544z"/><path fill="#333" d="m204.709 256.962-12.989-7.622v.078c-.233.389-.466.855-.466 1.322-.078.622.078 1.244.466 1.555l13.067 7.545c-.389-.311-.544-.856-.466-1.556-.078-.466.077-.933.388-1.322"/><path fill="#F2E8DF" d="M193.126 252.691c-.233-.234-.389-.7-.311-1.167 0-.311.156-.622.311-.856l-1.322-.777c-.156.233-.233.544-.311.855-.078.545.078.934.311 1.167zM202.301 257.82c-.156-.234-.156-.545-.156-.934 0-.155.078-.311.078-.466l-6.844-3.967c-.078.156-.078.311-.078.467 0 .389 0 .7.155.933z"/><path fill="gray" d="M204.468 258.211c-.078.311 0 .622.078.933.078.156.155.311.233.389l9.956-5.755v.311l-10.111 5.833h-.078c-.156-.155-.311-.311-.389-.544-.078-.312-.156-.623-.078-.934 0-.078 0-.155.078-.311.078-.389.233-.7.467-1.011v-.078l.388-.233 8.789-5.056.934-.544v.311l-.856.467-8.555 4.9-.545.311a1.95 1.95 0 0 0-.311 1.011"/><path fill="#F2E8DF" d="m213.732 252.062-8.4 4.823v1.789l8.4-4.9zM205.332 256.887v1.789l-.855-.545c.077-.311.155-.7.311-.933z"/><path fill="#fff" d="m205.403 247.632-6.066 3.5-3.345-1.944 6.067-3.5zM198.642 276.263l-8.478 2.178-7-6.767 8.478-2.178z"/><path fill="#C7B299" d="m183.32 277.431 13.067-7.622-12.989 7.622z"/><path fill="gray" d="m183.24 277.05 12.989-7.544-9.955-5.756-13.067 7.544z"/><path fill="#333" d="m183.322 274.475 13.067-7.544-10.111-5.833-12.989 7.622z"/><path fill="#333" d="m183.316 274.552 12.989-7.622v.077c.233.389.467.856.467 1.323.077.622-.078 1.244-.467 1.555l-13.067 7.545c.389-.311.545-.856.467-1.556.078-.467-.078-.933-.389-1.322"/><path fill="#fff" d="M194.906 270.273c.234-.234.389-.7.311-1.167 0-.311-.155-.622-.311-.856l1.322-.777c.156.233.234.544.312.855.077.545-.078.934-.312 1.167zM185.734 275.41c.156-.234.156-.545.156-.934 0-.155-.078-.311-.078-.466l6.845-3.967c.077.156.077.311.077.467 0 .389 0 .7-.155.933z"/><path fill="#34424B" d="M183.556 275.719c.078.311 0 .622-.078.933-.078.156-.156.311-.233.389l-9.956-5.756v.312l10.111 5.833h.078c.156-.156.311-.311.389-.545.078-.311.155-.622.078-.933 0-.078 0-.155-.078-.311a2.4 2.4 0 0 0-.467-1.011v-.078l-.389-.233-8.789-5.056-.933-.544v.311l.933.544 8.556 4.9.544.311c.078.234.234.545.234.934"/><path fill="#F2E8DF" d="m174.301 269.578 8.4 4.9v1.711l-8.4-4.822z"/><path fill="#F2E8DF" d="M182.695 274.477v1.788l.856-.544c-.078-.311-.156-.7-.311-.933z"/><path fill="#fff" d="m182.617 265.144 6.067 3.577 3.344-1.944-6.066-3.578z"/><path fill="#AD3814" d="m174.312 266.149 12.056-7c.156-.078.311-.078.467.078l-12.056 7c-.155-.078-.311-.156-.467-.078M186.831 261.709c-.234-.155-.389-.388-.389-.622v-1.244c0-.156.078-.234.078-.234l-12.056 6.923c-.078.077-.155.155-.155.233v1.322c0 .234.233.622.466.778l8.945 5.133 12.055-7z"/><path fill="#AD3814" d="m183.793 273.848 12.056-7v.389l-12.056 7z"/><path fill="#AD3814" d="M174.467 267.783v.234c0 .233.156.544.389.622l8.945 5.211v.311l-8.945-5.211c-.389-.233-.7-.778-.7-1.167v-1.244c0-.467.311-.622.7-.389l8.945 5.211v.311l-8.945-5.211c-.233-.155-.389 0-.389.234z"/><path fill="#AD3814" d="m183.793 271.437 12.056-7.078v.389l-12.056 7z"/><path fill="#FF7847" d="m174.859 266.227 11.978-7 9.022 5.133-12.055 7.078z"/><path fill="#F2E8DF" d="m183.792 271.765-8.011-4.589v1.4l8.011 4.666v-1.788z"/><path fill="#FBFFF2" d="m183.792 271.765-8.011-4.589v1.4l8.011 4.666v-1.788z"/><path fill="#FBFFF2" d="m194.83 266.857-11.045 6.377v-1.477l11.045-6.378z"/><path fill="#F2E8DF" d="m176.473 264.749 8.789 5.055 11.122-6.455-8.711-5.056z"/><path fill="#FBFFF2" d="m176.555 262.885 8.711 6.534 11.044-6.3-7.778-4.9z"/><path fill="#F2E8DF" d="m176.473 264.124 8.789 5.055 11.122-6.455-8.711-5.056z"/><path fill="#FBFFF2" d="m176.473 263.815 8.789 5.056 11.122-6.456-8.711-5.056z"/><path fill="#F2E8DF" d="m176.473 263.506 8.789 5.056 11.122-6.456-8.711-5.055z"/><path fill="#FBFFF2" d="m176.473 263.19 8.789 5.055 11.122-6.455-8.711-5.056z"/><path fill="#F2E8DF" d="m176.555 263.425 8.711 4.589 11.044-6.455-9.022-5.211z"/><path fill="#FBFFF2" d="m177.484 264.047 9.645 4.277 9.255-7.155-8.711-5.056z"/><path fill="#F2E8DF" d="m176.473 262.26 8.789 5.056 11.122-6.456-8.711-5.055z"/><path fill="#FBFFF2" d="m176.473 261.948 8.789 5.055 11.122-6.455-8.711-5.056z"/><path fill="#F2E8DF" d="m176.473 261.635 8.789 5.056 11.122-6.456-8.711-5.055z"/><path fill="#FBFFF2" d="m176.473 261.245 8.789 5.133 11.122-6.455-8.711-5.056z"/><path fill="#F2E8DF" d="m176.473 261.014 8.789 5.056 11.122-6.456-8.711-5.055z"/><path fill="#FBFFF2" d="m177.406 260.003 7.078 5.522 11.9-6.145-7.933-4.9z"/><path fill="#F2E8DF" d="m176.473 260.393 8.789 5.056 11.122-6.456-8.711-5.055z"/><path fill="#FBFFF2" d="m176.473 260.003 8.789 5.133 11.122-6.455-8.711-5.056z"/><path fill="#fff" d="m167.922 265.374 6.3 4.977 9.411-3.811-6.3-4.978z"/><path fill="#333" d="m134.856 281.696 1.166.7c-.233-.156-.544-.078-.855.077l-1.167-.7c.311-.155.622-.155.856-.077"/><path fill="#333" d="m134.313 285.351-1.166-.7c-.234-.155-.389-.389-.389-.778 0-.777.544-1.711 1.244-2.1l1.167.7c-.7.389-1.245 1.323-1.245 2.1 0 .389.156.7.389.778"/><path fill="#000" d="M135.174 282.488c.7-.389 1.245-.078 1.245.7s-.545 1.711-1.245 2.1-1.244.077-1.244-.7c0-.778.544-1.711 1.244-2.1"/><path fill="#333" d="m157.113 293.856 1.167.7c-.233-.156-.544-.078-.856.078l-1.166-.7c.311-.156.622-.156.855-.078"/><path fill="#333" d="m156.571 297.507-1.166-.7c-.234-.155-.389-.388-.389-.777 0-.778.544-1.711 1.244-2.1l1.167.7c-.7.389-1.245 1.322-1.245 2.1 0 .389.156.7.389.777"/><path fill="#000" d="M157.412 294.636c.7-.389 1.245-.078 1.245.7s-.545 1.711-1.245 2.1-1.244.078-1.244-.7.544-1.711 1.244-2.1"/><path fill="#333" d="m140.305 298.745 1.166.7c-.233-.156-.544-.078-.855.078l-1.167-.7c.311-.156.622-.234.856-.078M139.759 302.406l-1.167-.7c-.233-.156-.389-.389-.389-.778 0-.778.545-1.711 1.245-2.1l1.166.7c-.7.389-1.244 1.322-1.244 2.1 0 .389.155.622.389.778"/><path fill="#000" d="M140.623 299.527c.7-.389 1.245-.078 1.245.7s-.545 1.711-1.245 2.1-1.244.078-1.244-.7.544-1.711 1.244-2.1"/><path fill="#333" d="m126.375 291.73 1.167.699c-.234-.155-.545-.077-.856.078l-1.166-.7c.311-.233.622-.233.855-.077M125.755 295.39l-1.167-.7c-.233-.155-.389-.389-.389-.778 0-.777.545-1.711 1.245-2.1l1.166.7c-.7.389-1.244 1.323-1.244 2.1.078.312.155.623.389.778"/><path fill="#000" d="M126.616 292.429c.7-.389 1.244-.078 1.244.7s-.544 1.711-1.244 2.1-1.245.078-1.245-.7c.078-.778.622-1.711 1.245-2.1"/><path fill="#333" d="m153.543 283.266 1.167.7c-.234-.156-.545-.078-.856.078l-1.166-.7c.388-.156.699-.156.855-.078"/><path fill="#333" d="m153.009 286.91-1.167-.7c-.233-.156-.389-.389-.389-.778 0-.778.545-1.711 1.245-2.1l1.166.7c-.7.389-1.244 1.322-1.244 2.1.078.389.155.622.389.778"/><path fill="#000" d="M153.862 284.054c.7-.389 1.244-.078 1.244.7s-.544 1.711-1.244 2.1-1.245.078-1.245-.7c.078-.778.622-1.711 1.245-2.1"/><path fill="#B3B3B3" d="m141.705 286.376-1.556 1.4-1.166 1.089-5.6-6.611c0-.311 0-.545.233-.622.078-.078.156-.078.233-.156l.856-.311c.156-.078.311 0 .467.078z"/><path fill="#666" d="m140.387 287.933-1.322.856-5.6-6.611c0-.311 0-.545.233-.622.078-.078.234 0 .389.077l6.145 6.067z"/><path fill="#B3B3B3" d="m154.306 283.811-9.878 6.611-.311.156-.233-1.245-.233-1.089-.389-1.633 9.255-3.967q.35-.117.7 0l.7.389c.078 0 .078.078.156.078q.233.117.233.7"/><path fill="#666" d="m154.307 283.809-9.878 6.611-.545-1.088-.544-.934.233-.155 9.878-5.056c.156-.078.389-.078.467-.078.311.078.389.311.389.7"/><path fill="#666" d="M145.06 290.732v-3.111h-5.755v3.111c0 .389.311.856.855 1.167 1.089.622 2.956.622 4.045 0 .544-.389.855-.778.855-1.167"/><path fill="#B3B3B3" d="M142.182 289.173c1.59 0 2.878-.731 2.878-1.633s-1.288-1.634-2.878-1.634c-1.589 0-2.877.732-2.877 1.634s1.288 1.633 2.877 1.633M140.542 289.645l-1.089 8.788c-.078.623-.078 1.323-.078 2.023l1.244.077 2.567-8.477V289.8c-.933.233-1.789.233-2.644-.155"/><path fill="#666" d="M140.617 300.534c0-.777.078-1.477.234-2.022l2.333-8.633v2.255z"/><path fill="#B3B3B3" d="M143.965 289.643v2.333l13.3 3.267.544-.623c.078-.777-.389-1.244-1.089-1.555l-11.744-4.745c.078.545-.311 1.011-1.011 1.323"/><path fill="#666" d="M157.264 295.244c0-.7-.388-1.244-1.088-1.555l-12.289-4.123v2.334z"/><path fill="#B3B3B3" d="m125.53 292.915 14.311-1.245v-2.333c-.544-.389-.622-.934-.544-1.556l-12.833 2.956c-.7.155-1.167.544-1.167 1.322z"/><path fill="#666" d="m139.846 291.665-14.311 1.245c0-.778.467-1.245 1.245-1.322l13.066-2.256z"/><path fill="#333" d="M133.391 279.912c-.233 0-.544 0-.778-.077l.311-1.945c.856.156 1.945-.155 3.111-.778l10.967-6.3.934 1.712-10.967 6.3c-1.245.7-2.489 1.088-3.578 1.088"/><path fill="#E6E6E6" d="m140.933 279.998.233-.234c.622-.389 1.633-.389 2.255 0l.234.234h.233v7.466c0 .234-.155.467-.467.623-.622.388-1.633.388-2.255 0-.311-.156-.467-.389-.467-.623v-7.466z"/><path fill="#4D4D4D" d="M142.256 279.601c1.245 0 2.255-.592 2.255-1.322s-1.01-1.322-2.255-1.322c-1.246 0-2.256.592-2.256 1.322s1.01 1.322 2.256 1.322"/><path fill="#333" d="M139.377 270.894c.311-.311.856-.622 1.556-.778.855-.233 1.789-.233 2.722 0 .7.156 1.167.467 1.556.778h.388v8.011c0 .7-.622 1.323-1.866 1.711a4.54 4.54 0 0 1-2.878 0c-1.244-.388-1.867-1.011-1.867-1.711v-8.011z"/><path fill="#4D4D4D" d="M140.855 269.105c-2.489.7-2.489 2.722 0 3.422a4.56 4.56 0 0 0 2.878 0c2.489-.7 2.489-2.722 0-3.422a6 6 0 0 0-2.878 0"/><path fill="#34424B" d="M154.38 271.594v-3.422h-1.556c-.544-.545-1.167-1.011-2.022-1.478-4.745-2.722-12.445-2.722-17.189 0-.778.467-1.478.933-2.022 1.478h-1.556v3.422c0 1.789 1.167 3.578 3.578 4.978 4.744 2.722 12.444 2.722 17.189 0 2.411-1.4 3.578-3.189 3.578-4.978"/><path fill="#34424B" d="M142.251 275.168c6.701 0 12.133-3.134 12.133-7s-5.432-7-12.133-7c-6.702 0-12.134 3.134-12.134 7s5.432 7 12.134 7"/><path fill="#B3B3B3" d="M150.814 275.017c-4.745 2.722-12.445 2.722-17.189 0-2.334-1.4-3.578-3.189-3.578-4.978v1.478c0 1.789 1.167 3.578 3.578 4.978 4.744 2.722 12.444 2.722 17.189 0 2.333-1.4 3.577-3.189 3.577-4.978v-1.478c0 1.867-1.166 3.656-3.577 4.978M136.734 260.855l-5.444-4.277-5.911-2.723-.856.545c-.544.311-.933 1.011-.933 2.022v1.556c0 2.022 1.4 4.511 3.189 5.522l7.466 4.355c.856.545 1.712.545 2.256.234l.7-.389.622-2.411z"/><path fill="#34424B" d="m131.29 256.58 5.445 4.278 1.089 4.278-.623 2.411 1.789-1.011c.545-.311.934-1.011.934-2.022v-1.556c0-2.022-1.4-4.511-3.189-5.522l-7.467-4.356c-.855-.544-1.711-.544-2.255-.233l-1.556.933z"/><path fill="#34424B" d="M135.109 258.375c1.789 1.011 3.189 3.5 3.189 5.522v1.556c0 2.022-1.478 2.877-3.189 1.866l-7.467-4.355c-1.789-1.011-3.189-3.5-3.189-5.522v-1.556c0-2.022 1.478-2.878 3.189-1.789z"/><path fill="#B3B3B3" d="M135.109 258.375c1.789 1.011 3.189 3.5 3.189 5.522v1.556c0 2.022-1.478 2.877-3.189 1.866l-7.467-4.355c-1.789-1.011-3.189-3.5-3.189-5.522v-1.556c0-2.022 1.478-2.878 3.189-1.789z"/><path fill="gray" d="M134.245 258.84c1.789 1.011 3.189 3.5 3.189 5.522v1.556c0 2.022-1.477 2.877-3.189 1.866l-7.466-4.355c-1.789-1.011-3.189-3.5-3.189-5.523v-1.555c0-2.022 1.478-2.878 3.189-1.789z"/><path fill="#333" d="M132.602 279.837c-2.022-.311-3.344-2.1-3.344-4.511v-15.011c0-.466.544-.778.933-.544l.311.233c.389.233.7.7.7 1.167v14.155c0 .856.234 2.334 1.711 2.645z"/><path fill="#97B9CF" d="m139.145 212.644-14 8.244c-1.011.622-2.644.622-3.655 0l-17.267-9.878c-1.011-.622-1.011-1.555 0-2.1l14-8.244c1.011-.622 2.645-.622 3.656 0l17.189 9.955c1.089.545 1.089 1.478.077 2.023M165.208 198.108l-14 8.245c-1.011.622-2.644.622-3.655 0l-17.189-9.956c-1.011-.622-1.011-1.556 0-2.1l14-8.244c1.011-.623 2.644-.623 3.655 0l17.189 9.955c1.011.622 1.011 1.556 0 2.1" opacity=".5"/><path fill="#B3B3B3" d="M132.384 195.056c2.8-12.522 2.8-12.6 2.8-12.677h-1.323.7l-.7-.078c-.077.389-1.711 7.7-2.8 12.522-.233.544 1.167.856 1.323.233M148.947 205.321c.077.545 1.322.545 1.322-.155l-1.478-15.4-1.322.155zM163.572 196.852c.077.7 1.477.623 1.322-.155l-1.478-15.4-1.322.155z"/><path fill="#34424B" d="M130.358 162.857v.078c.078 1.4 1.244 16.645 1.322 18.278s1.245 2.178 1.245 2.178 14.311 8.244 15.244 8.789 1.4.233 1.4.233l14.7-8.322c1.711-1.011 1.633-2.723 1.633-2.723v-1.244c0-3.111-2.8-4.822-2.8-4.822s-9.022-5.834-10.111-6.534a7 7 0 0 1-.777-.7c-.389-.466-.467-.855-.467-.855-.156-.778-2.567-12.445-2.722-13.222-.078-.467-.234-.778-.311-.934l-.078-.155c-.934-.856-2.8-.156-2.8-.156s-13.922 8.011-14.778 8.556c-.933.544-.7 1.555-.7 1.555"/><path fill="#889099" d="m164.508 181.601-14.7 8.478s.389-3.189-2.255-4.978-8.323-5.444-8.323-5.444l12.367-6.923z"/><path fill="#6D7983" d="m131.839 164.179 2.878 13.922 1.244-.777 3.267 2.333 12.366-6.922-.855-3.889 1.478-.778c-.389-.467-.467-.855-.467-.855-.156-.778-2.567-12.445-2.722-13.223-.078-.466-.623-.777-1.089-.466l-15.4 8.944c-.545.311-.778 1.011-.7 1.711"/><path fill="#B3B3B3" d="M105.864 209.924c2.8-12.523 2.8-12.6 2.8-12.678h-1.322.7l-.7-.078c-.078.389-1.711 7.7-2.8 12.522-.234.545 1.166.856 1.322.234M122.427 220.188c.078.545 1.322.545 1.322-.155l-1.478-15.4-1.322.155zM137.052 211.72c.078.7 1.478.622 1.322-.156l-1.478-15.4-1.322.156z"/><path fill="#34424B" d="M103.838 177.725v.077c.078 1.4 1.245 16.645 1.323 18.278s1.244 2.178 1.244 2.178 14.311 8.244 15.245 8.789 1.4.233 1.4.233l14.7-8.322c1.711-1.011 1.633-2.722 1.633-2.722v-1.245c0-3.111-2.8-4.822-2.8-4.822s-9.022-5.833-10.111-6.533a7 7 0 0 1-.778-.7c-.389-.467-.467-.856-.467-.856-.155-.778-2.566-12.444-2.722-13.222a3.1 3.1 0 0 0-.311-.933l-.078-.156c-.933-.856-2.8-.156-2.8-.156s-13.922 8.012-14.778 8.556c-.933.544-.7 1.556-.7 1.556"/><path fill="#889099" d="m137.989 196.468-14.7 8.478s.389-3.189-2.256-4.978-8.322-5.444-8.322-5.444l12.367-6.922z"/><path fill="#6D7983" d="m105.317 179.046 2.877 13.923 1.245-.778 3.266 2.333 12.367-6.922-.855-3.889 1.477-.778c-.389-.466-.466-.855-.466-.855-.156-.778-2.567-12.445-2.723-13.222-.077-.467-.622-.778-1.088-.467l-15.323 8.944c-.544.389-.855 1.011-.777 1.711"/><path fill="#97B9CF" d="m75.983 231.703-22.245 12.756 25.667 14.855 21.933-12.989z" opacity=".5"/></svg>