<svg xmlns="http://www.w3.org/2000/svg" width="340" height="375" fill="none"><g clip-path="url(#a)"><path fill="#DFECF5" d="M-.166 276.297-.61 98.682 169.823.312l170.344 98.37.443 177.615-170.433 98.37z"/><path fill="#B5D5EB" d="M170.171 177.921 10.369 269.384l-.443-164.599 159.891-92.172z"/><path fill="#DFECF5" d="M329.984 270.198 170.182 362.37 10.379 270.198l159.803-92.26z"/><path fill="#97B9CF" d="m329.973 270.181-159.802-92.26-.355-165.308 159.803 92.172z"/><path fill="#FBFFF2" d="M10.379 264.961v5.224l107.362-61.979v-5.136z"/><path fill="#fff" d="M329.977 270.189v-5.136l-159.803-92.26-52.529 30.281v5.136l52.529-30.282z"/><path fill="#97B9CF" d="m-.61 98.68 10.63 6.109.355 165.396 159.802 92.172v12.307L-.166 276.294z"/><path fill="#B5D5EB" d="m340.258 98.68-10.63 6.109.354 165.396-159.802 92.172v12.307l170.432-98.37z"/><path fill="#FCC674" d="M133.841 46.988 18.152 113.66v95.714l115.689-66.407z"/><path fill="#fff" d="M86.46 76.031 56.787 93.474 35.438 198.573l29.852-16.912zM99.923 67.879l-9.744 6.11-21.437 105.718 9.921-5.667z" opacity=".5"/><path fill="#8A6945" d="M15.41 112.156V211.5l2.126 1.24 117.106-70.037 2.126-98.104-2.126-1.24zm114.094 28.334L20.548 203.354V114.37l108.956-62.865z"/><path fill="#fff" d="M17.535 113.398v99.344l119.232-68.797V44.602zm114.094 28.334L22.673 204.596v-89.073l108.956-62.864z"/><path fill="#8A6945" d="m91.681 73.279 3.72-2.125v89.073l-1.151.619.177 5.136 6.112-3.63V63.008l-9.035 5.224z"/><path fill="#fff" d="m91.775 75.672 5.758-3.276v89.073l-3.19 1.859.09 5.047 8.237-4.781V64.25l-11.072 6.375z"/><path fill="#8A6945" d="m45.798 99.751 3.72-2.125V186.7l-1.15.709.176 5.046 6.113-3.541V89.481l-9.036 5.223z"/><path fill="#fff" d="m45.888 102.148 5.758-3.276v89.073l-3.189 1.86.089 5.047 8.238-4.782V90.727L45.71 97.102z"/><path fill="#FCC674" d="M14.879 115.599v95.979l4.429-2.568v-95.979z"/><path fill="#8A6945" d="m20.105 109.402-5.226 3.099v5.136l.088-.089v89.073l-.088.089v5.224l5.226-3.099 2.126-98.193z"/><path fill="#fff" d="M14.879 114.895v5.135l2.214-1.24v89.073l-2.214 1.24v5.135l7.352-4.25v-99.343z"/><path fill="#DFECF5" d="m14.887 222.928 129.419-74.64-7.53-4.339-121.89 70.302z"/><path fill="#97B9CF" d="M144.311 148.28V48.848l-7.53-4.25v99.343z"/><path fill="#B5D5EB" d="M14.887 123.579 144.306 48.85l-7.53-13.104-121.89 68.62z"/><path fill="#B5D5EB" d="M14.89 104.979v121.833h8.77V97.984z"/><path fill="#333" d="m289.998 249.045 1.329.797c-.266-.177-.62-.088-.975.089l-1.329-.797c.443-.266.798-.266.975-.089"/><path fill="#333" d="m289.369 253.194-1.328-.797c-.266-.177-.443-.443-.443-.885 0-.886.62-1.948 1.417-2.391l1.329.797c-.798.443-1.418 1.505-1.418 2.391.089.442.178.708.443.885"/><path fill="#000" d="M290.347 249.835c.797-.443 1.417-.088 1.417.797s-.62 1.948-1.417 2.391c-.797.442-1.417.088-1.417-.797 0-.797.62-1.948 1.417-2.391"/><path fill="#333" d="m279.99 260.448 1.329.797c-.266-.178-.62-.089-.975.088l-1.328-.797c.354-.265.708-.265.974-.088"/><path fill="#333" d="m279.354 264.534-1.329-.797c-.266-.177-.443-.443-.443-.885 0-.886.62-1.948 1.417-2.391l1.329.797c-.797.443-1.417 1.505-1.417 2.39 0 .443.177.797.443.886"/><path fill="#000" d="M280.343 261.249c.797-.443 1.417-.088 1.417.797s-.62 1.948-1.417 2.391c-.797.442-1.417.088-1.417-.797 0-.886.62-1.948 1.417-2.391"/><path fill="#333" d="m258.189 258.397 1.329.797c-.266-.177-.62-.088-.974.089l-1.329-.797c.354-.177.709-.266.974-.089M257.557 262.573l-1.329-.797c-.266-.177-.443-.443-.443-.885 0-.886.62-1.948 1.417-2.391l1.329.797c-.797.443-1.417 1.505-1.417 2.39 0 .443.177.709.443.886"/><path fill="#000" d="M258.546 259.292c.797-.443 1.418-.088 1.418.797s-.621 1.948-1.418 2.391c-.797.442-1.417.088-1.417-.797 0-.886.62-1.948 1.417-2.391"/><path fill="#333" d="m254.916 246.117 1.329.797c-.266-.177-.621-.089-.975.088l-1.329-.797c.443-.177.798-.177.975-.088M254.287 250.276l-1.328-.797c-.266-.177-.443-.443-.443-.885 0-.886.62-1.948 1.417-2.391l1.329.797c-.798.443-1.418 1.505-1.418 2.391.089.442.178.708.443.885"/><path fill="#000" d="M255.265 247.003c.797-.443 1.417-.088 1.417.797s-.62 1.948-1.417 2.391c-.797.442-1.417.088-1.417-.797 0-.886.62-1.948 1.417-2.391"/><path fill="#333" d="m274.681 239.999 1.329.797c-.266-.177-.62-.089-.974.088l-1.329-.797c.354-.177.709-.265.974-.088M273.979 244.171l-1.329-.797c-.266-.177-.443-.443-.443-.886 0-.885.62-1.948 1.417-2.39l1.329.797c-.797.442-1.417 1.505-1.417 2.39.088.443.177.708.443.886"/><path fill="#000" d="M274.952 240.89c.798-.443 1.418-.089 1.418.797 0 .885-.62 1.948-1.418 2.39s-1.417.089-1.417-.797c.089-.885.709-1.947 1.417-2.39"/><path fill="#B3B3B3" d="m253.695 246.648 15.591 5.047.354-4.516-13.819-2.302c-.443-.088-.974-.088-1.417.266-.443.443-.62.797-.709 1.505"/><path fill="#666" d="m253.695 246.661 15.591 5.047.62-2.656-14.793-3.365c-.886-.177-1.241.266-1.418.974"/><path fill="#B3B3B3" d="m270.531 246.212 2.835-6.64c0-.089.177-.177.266-.177l1.24.088c.088 0 .177.089.177.177l.089.62-1.418 6.995z"/><path fill="#666" d="m275.14 240.375-1.417 6.995-.532-.089 1.683-7.526c.089-.177.178-.265.178-.088zM274.601 251.346c.088-1.416.177-2.922 0-3.541h-6.644v3.541c0 .532.354.974.974 1.328 1.329.709 3.367.709 4.695 0 .709-.265.975-.796.975-1.328"/><path fill="#B3B3B3" d="M273.617 246.48c1.329.709 1.329 1.948 0 2.657-1.329.708-3.366.708-4.695 0-1.328-.709-1.328-1.948 0-2.657 1.329-.796 3.455-.796 4.695 0"/><path fill="#B3B3B3" d="M274.332 249.224v2.656l16.299-1.771-.266-1.416s-.442-.886-1.417-.886c-.974 0-14.35-.354-14.35-.354.088.708.088 1.328-.266 1.771M257.062 259.052l1.063.62 12.225-6.464v-2.656c-1.063-.177-1.772-.62-2.215-1.24l-10.098 7.792c-.62.354-.975 1.063-.975 1.948"/><path fill="#666" d="m274.332 249.22 14.882-.443c.797 0 1.24.443 1.417 1.328l-16.299 1.771z"/><path fill="#B3B3B3" d="M271.324 250.465v2.833l8.238 8.235 1.241-.355c.088-.796-.089-1.505-.532-2.213l-6.201-9.297c-.708.708-1.594.885-2.746.797"/><path fill="#666" d="M271.324 250.469v2.833l8.238 8.234c0-.796-.088-1.505-.62-2.036zM258.129 259.674c0-.885.266-1.593.974-1.947l11.25-7.172v2.656z"/><path fill="#E6E6E6" d="m269.817 239.02.265-.266c.709-.443 1.861-.443 2.569 0l.266.266h.266v8.5c0 .265-.178.531-.532.708-.708.443-1.86.443-2.569 0-.354-.177-.531-.443-.531-.708v-8.5z"/><path fill="#4D4D4D" d="M271.417 238.577c1.418 0 2.568-.674 2.568-1.505 0-.832-1.15-1.506-2.568-1.506s-2.569.674-2.569 1.506c0 .831 1.15 1.505 2.569 1.505"/><path fill="#333" d="M268.138 228.573c.355-.354.975-.708 1.772-.885.974-.266 2.037-.266 3.1 0 .797.177 1.329.531 1.772.885h.443v9.12c0 .797-.709 1.505-2.126 1.948a5.2 5.2 0 0 1-3.278 0c-1.417-.443-2.126-1.151-2.126-1.948v-9.12z"/><path fill="#4D4D4D" d="M269.731 226.625c-2.834.797-2.834 3.099 0 3.896a5.2 5.2 0 0 0 3.278 0c2.835-.797 2.835-3.099 0-3.896-1.063-.354-2.126-.354-3.278 0"/><path fill="#333" d="m267.959 231.853 6.732-3.896c5.669-3.276 10.099-10.359 10.099-16.026v-9.74h-2.392v9.74c0 4.87-3.986 11.156-8.947 13.99l-6.732 3.895z"/><path fill="#34424B" d="M285.312 229.293v-3.896h-1.771c-.62-.62-1.329-1.151-2.304-1.682-5.403-3.099-14.173-3.099-19.576 0-.886.531-1.683 1.062-2.303 1.682h-1.772v3.896c0 2.036 1.329 4.073 4.075 5.667 5.403 3.099 14.173 3.099 19.576 0 2.746-1.594 4.075-3.631 4.075-5.667"/><path fill="#34424B" d="M271.495 233.359c7.632 0 13.818-3.567 13.818-7.968s-6.186-7.969-13.818-7.969-13.819 3.568-13.819 7.969 6.187 7.968 13.819 7.968"/><path fill="#B3B3B3" d="M281.237 233.178c-5.403 3.099-14.173 3.099-19.576 0-2.658-1.593-4.075-3.63-4.075-5.666v1.682c0 2.036 1.329 4.073 4.075 5.667 5.403 3.099 14.173 3.099 19.576 0 2.658-1.594 4.075-3.631 4.075-5.667v-1.682c0 2.125-1.329 4.161-4.075 5.666M277.874 194.579c.62-.354 1.595-.354 2.569.266l8.504 4.958c2.037 1.151 3.632 3.984 3.632 6.287v1.77c0 1.151-.443 1.948-1.063 2.302l-2.835 1.683h-.088c-.62.354-1.506.265-2.481-.266l-8.504-4.87c-2.037-1.151-3.631-3.984-3.631-6.286v-1.771c0-1.151.442-1.948 1.063-2.302l1.86-1.063z"/><path fill="#34424B" d="M276.9 195.115c.62-.354 1.506-.266 2.48.265l8.504 4.959c2.037 1.151 3.632 3.984 3.632 6.286v1.771c0 1.151-.443 1.948-1.063 2.302l-1.86 1.063c-.62.354-1.506.265-2.481-.266l-8.504-4.87c-2.037-1.151-3.631-3.984-3.631-6.286v-1.771c0-1.151.442-1.948 1.063-2.302z"/><path fill="#34424B" d="M286.198 201.31c2.038 1.151 3.632 3.985 3.632 6.287v1.77c0 2.303-1.683 3.276-3.632 2.125l-8.504-4.958c-2.037-1.151-3.632-3.984-3.632-6.286v-1.771c0-2.302 1.684-3.276 3.632-2.037z"/><path fill="#34424B" d="M286.198 201.31c2.038 1.151 3.632 3.985 3.632 6.287v1.77c0 2.303-1.683 3.276-3.632 2.125l-8.504-4.958c-2.037-1.151-3.632-3.984-3.632-6.286v-1.771c0-2.302 1.684-3.276 3.632-2.037z"/><path fill="#97B9CF" d="m171.326 179.082-22.678 13.104 48.366 27.979 22.412-13.281z" opacity=".5"/><path fill="#333" d="M200.043 216.176v-2.922q0 .398-.531.797v2.922q.531-.4.531-.797M196.312 213.254v2.922q0 .398.532.797c.709.442 1.949.442 2.657 0v-2.922c-.708.442-1.948.442-2.657 0q-.532-.399-.532-.797"/><path fill="#000" d="M199.501 213.974c.709-.443.709-1.151 0-1.505-.708-.443-1.948-.443-2.657 0-.709.442-.709 1.151 0 1.505.709.443 1.949.443 2.657 0"/><path fill="#333" d="M215.793 207.055v-2.922q0 .398-.531.797v2.922c.354-.178.531-.532.531-.797M212.059 204.133v2.922q0 .398.531.797c.709.442 1.949.442 2.658 0v-2.922c-.709.442-1.949.442-2.658 0-.354-.177-.531-.532-.531-.797"/><path fill="#000" d="M215.248 204.931c.708-.443.708-1.151 0-1.505-.709-.443-1.949-.443-2.658 0-.709.442-.709 1.151 0 1.505.709.443 1.86.443 2.658 0"/><path fill="#B3B3B3" d="m153.781 188.901 17.185-9.917 2.658 1.506-17.185 9.916z"/><path fill="#B3B3B3" d="m153.781 185.892 17.185-10.005v3.099l-17.185 9.916z"/><path fill="#B3B3B3" d="m156.441 187.392 17.185-10.005v3.099l-17.185 9.916z"/><path fill="#F2E8DF" d="m156.53 164.025 17.185-10.005-.089 23.375-17.185 10.005z"/><path fill="#B3B3B3" d="m153.879 162.428 17.185-9.916 2.657 1.505-17.185 10.005z"/><path fill="#B3B3B3" d="m153.879 159.419 17.185-10.005v3.099l-17.185 9.917z"/><path fill="#B3B3B3" d="m153.879 159.419 17.185-10.005 2.657 1.594-17.185 9.916z"/><path fill="#D4BFA7" d="M196.744 210.59v3.099l2.657 1.505-45.62-26.297v-3.01 3.01l2.658 1.505v-3.01z"/><path fill="#B3B3B3" d="m153.961 136.044 17.185-10.005 2.657 1.505-17.185 10.005z"/><path fill="#F2E8DF" d="m156.62 137.552 17.185-10.005-.089 23.463-17.185 9.917z"/><path fill="#B3B3B3" d="m153.961 132.94 17.185-9.917v3.011l-17.185 10.005z"/><path fill="#B3B3B3" d="m153.961 132.94 17.185-9.917 2.657 1.506-17.185 9.916zM196.835 184.116l17.096-9.917v3.011l-17.185 10.005z"/><path fill="#D4BFA7" d="m196.837 184.117-.089 3.099-40.216-23.198-3.809-3.896 1.151-.708 2.658 1.505z"/><path fill="#F7F4F0" d="m156.531 160.924 17.185-9.916 40.217 23.198-17.097 9.916z"/><path fill="#B3B3B3" d="m154.051 109.564 17.185-10.005 2.569 1.505-17.097 10.005z"/><path fill="#F2E8DF" d="m156.721 111.068 17.097-10.006v23.464l-17.185 9.917z"/><path fill="#B3B3B3" d="m154.051 106.467 17.185-9.916v3.01l-17.185 10.005z"/><path fill="#B3B3B3" d="m154.051 106.467 17.185-9.916 2.657 1.505-17.185 10.005zM196.832 157.74l17.185-10.006v3.099l-17.185 9.917z"/><path fill="#F7F4F0" d="m156.633 134.444 17.185-9.917 40.216 23.198-17.185 10.005z"/><path fill="#D4BFA7" d="M196.835 157.733v3.011l-40.217-23.198-2.657-1.506v-3.099l2.657 1.506z"/><path fill="#B3B3B3" d="m154.145 83.095 17.096-10.005 2.657 1.594-17.096 9.916z"/><path fill="#F2E8DF" d="m156.796 57.061 17.096-9.916v50.911l-17.185 10.005z"/><path fill="#B3B3B3" d="m196.93 131.255 17.185-10.005v3.099l-17.185 9.917z"/><path fill="#D4BFA7" d="M196.925 131.26v3.011l-40.217-23.198-2.657-1.505v-3.099l2.657 1.594z"/><path fill="#F7F4F0" d="m156.707 108.056 17.185-10.005 40.216 23.198-17.185 10.005z"/><path fill="#D4BFA7" d="M197.018 104.789v3.099l-40.216-23.286-2.657-1.506v-3.01z"/><path fill="#D4BFA7" d="M196.925 104.789v3.099l-40.217-23.286-2.657-1.506v-3.01l2.657 1.505z"/><path fill="#F7F4F0" d="m156.707 81.595 17.185-10.005 40.216 23.286-17.185 9.917z"/><path fill="#D4BFA7" d="M199.676 79.906v3.01l-42.874-24.702-2.657-1.594v-3.01z"/><path fill="#F2E8DF" d="m199.672 79.904 17.185-10.006-.354 135.292-17.097 10.005z"/><path fill="#F7F4F0" d="m171.33 43.606 42.873 24.791 2.658 1.505-17.185 10.006-2.658-1.594-42.873-24.703z"/><path fill="#D4BFA7" d="m199.669 79.902-.265 135.292-2.658-1.505v-26.474l.089-3.099V157.73l.088-23.463v-3.01l.089-23.375V78.309z"/><path fill="#F7F4F0" d="m156.441 187.398.089-23.375 40.216 23.198v23.375z"/><path fill="#D4BFA7" d="m154.136 53.61 2.657 1.505-.089 52.947v3.011l-.088 23.375v3.099l-.089 23.375v3.099l-.088 23.375v3.01l-2.658-1.505v-3.01z"/><mask id="b" width="42" height="47" x="156" y="58" maskUnits="userSpaceOnUse" style="mask-type:luminance"><path fill="#fff" d="m156.792 58.234-.089 23.375 40.305 23.198.177-23.286z"/></mask><g mask="url(#b)"><path fill="#4D4D4D" d="m169.642 67.615 7.53-6.552v-2.126l-11.25 6.464z"/><path fill="#E6E6E6" d="m169.642 68.145 10.896-6.287-3.72-2.213-10.896 6.374z"/><path fill="#4D4D4D" d="m169.559 85.42 11.25-6.553.088-17.797-11.25 6.552z"/><path fill="#1A1A1A" d="M165.922 65.398v17.797l3.632 2.214.088-17.797z"/><path fill="#fff" d="m166.629 81.165 1.949 1.063v-9.474l-1.949-1.063zM166.719 69.484c0 .531.443 1.15.974 1.505.532.266.975.088.975-.354 0-.443-.443-1.151-.975-1.505-.62-.355-.974-.177-.974.354"/></g><mask id="c" width="42" height="47" x="156" y="58" maskUnits="userSpaceOnUse" style="mask-type:luminance"><path fill="#fff" d="m156.792 58.234-.089 23.375 40.305 23.198.177-23.286z"/></mask><g mask="url(#c)"><path fill="#4D4D4D" d="m173.627 69.92 7.529-6.553v-2.125l-11.25 6.464z"/><path fill="#E6E6E6" d="m173.627 70.453 10.895-6.286-3.72-2.214-10.896 6.375z"/><path fill="#4D4D4D" d="m173.543 87.704 11.25-6.552.089-17.796-11.25 6.551z"/><path fill="#1A1A1A" d="M169.906 67.703V85.5l3.632 2.213.089-17.796z"/><path fill="#fff" d="m170.613 83.458 1.949 1.063v-9.474l-1.949-1.063zM170.703 71.777c0 .531.443 1.15.975 1.505.531.266.974.089.974-.354 0-.531-.443-1.151-.974-1.505-.621-.355-.975-.177-.975.354"/></g><mask id="d" width="42" height="47" x="156" y="58" maskUnits="userSpaceOnUse" style="mask-type:luminance"><path fill="#fff" d="m156.792 58.234-.089 23.375 40.305 23.198.177-23.286z"/></mask><g mask="url(#d)"><path fill="#4D4D4D" d="m177.615 72.2 7.53-6.552v-2.125l-11.25 6.464z"/><path fill="#E6E6E6" d="m177.615 72.734 10.896-6.286-3.721-2.214-10.895 6.375z"/><path fill="#4D4D4D" d="m177.531 90.005 11.25-6.552.089-17.797-11.25 6.552z"/><path fill="#1A1A1A" d="M173.895 69.988v17.797L177.526 90l.089-17.797z"/><path fill="#fff" d="m174.602 85.763 1.948 1.063v-9.474l-1.948-1.063zM174.691 73.987c0 .531.443 1.15.975 1.505.531.266.974.088.974-.354 0-.531-.443-1.151-.974-1.505-.62-.266-.975-.089-.975.354"/></g><mask id="e" width="42" height="47" x="156" y="58" maskUnits="userSpaceOnUse" style="mask-type:luminance"><path fill="#fff" d="m156.792 58.234-.089 23.375 40.305 23.198.177-23.286z"/></mask><g mask="url(#e)"><path fill="#4D4D4D" d="m181.595 74.517 7.53-6.552V65.84l-11.25 6.463z"/><path fill="#E6E6E6" d="m181.595 75.05 10.896-6.286-3.72-2.213-10.896 6.375z"/><path fill="#4D4D4D" d="m181.512 92.318 11.25-6.552.088-17.797-11.25 6.552z"/><path fill="#6D7983" d="M177.875 72.313v17.796l3.632 2.214.088-17.797z"/><path fill="#fff" d="m178.578 88.064 1.949 1.062v-9.474l-1.949-1.062zM178.668 76.288c0 .53.443 1.15.974 1.505.532.265.975.088.975-.354 0-.532-.443-1.151-.975-1.506-.62-.265-.974-.088-.974.355"/></g><mask id="f" width="42" height="47" x="156" y="58" maskUnits="userSpaceOnUse" style="mask-type:luminance"><path fill="#fff" d="m156.792 58.234-.089 23.375 40.305 23.198.177-23.286z"/></mask><g mask="url(#f)"><path fill="#4D4D4D" d="m189.564 79.03 7.53-6.464v-2.125l-11.25 6.464z"/><path fill="#E6E6E6" d="m189.564 79.66 10.896-6.375-3.721-2.125-10.895 6.375z"/><path fill="#4D4D4D" d="m189.473 96.83 11.25-6.463.088-17.797-11.25 6.464z"/><path fill="#1A1A1A" d="M185.844 76.914v17.797l3.632 2.125.088-17.797z"/><path fill="#fff" d="m186.555 92.67 1.948 1.062v-9.474l-1.948-1.063zM186.645 80.893c0 .531.442 1.151.974 1.505.531.266.974.089.974-.354 0-.531-.443-1.151-.974-1.505-.62-.266-.974-.089-.974.354"/></g><mask id="g" width="42" height="47" x="156" y="58" maskUnits="userSpaceOnUse" style="mask-type:luminance"><path fill="#fff" d="m156.792 58.234-.089 23.375 40.305 23.198.177-23.286z"/></mask><g mask="url(#g)"><path fill="#4D4D4D" d="m193.545 81.33 7.529-6.463v-2.125l-11.25 6.464z"/><path fill="#E6E6E6" d="m193.545 81.95 10.895-6.376-3.72-2.125-10.896 6.375z"/><path fill="#4D4D4D" d="m193.465 99.128 11.25-6.464.088-17.797-11.25 6.464z"/><path fill="#1A1A1A" d="M189.824 79.215v17.797l3.632 2.125.089-17.797z"/><path fill="#fff" d="m190.539 94.974 1.949 1.063v-9.475l-1.949-1.062zM190.629 83.198c0 .531.443 1.15.974 1.505.532.266.975.088.975-.354 0-.532-.443-1.151-.975-1.505-.62-.266-.974-.089-.974.354"/></g><mask id="h" width="42" height="47" x="156" y="58" maskUnits="userSpaceOnUse" style="mask-type:luminance"><path fill="#fff" d="m156.792 58.234-.089 23.375 40.305 23.198.177-23.286z"/></mask><g mask="url(#h)"><path fill="#4D4D4D" d="m197.537 83.655 7.529-6.464v-2.125l-11.25 6.464z"/><path fill="#E6E6E6" d="m197.537 84.266 10.895-6.375-3.72-2.125-10.896 6.375z"/><path fill="#1A1A1A" d="M193.816 81.531v17.797l3.632 2.125.089-17.797z"/><path fill="#fff" d="m194.531 97.29 1.949 1.063v-9.474l-1.949-1.063zM194.621 85.51c0 .531.443 1.151.974 1.505.532.266.975.089.975-.354 0-.531-.443-1.15-.975-1.505-.62-.266-.974-.089-.974.354"/></g><mask id="i" width="42" height="48" x="156" y="84" maskUnits="userSpaceOnUse" style="mask-type:luminance"><path fill="#fff" d="m156.792 84.61-.089 23.463 40.305 23.198.177-23.287z"/></mask><g mask="url(#i)"><path fill="#4D4D4D" d="m163.697 90.626 7.53-6.552V81.95l-11.25 6.552z"/><path fill="#E6E6E6" d="m163.697 91.246 10.896-6.375-3.721-2.125-10.895 6.375z"/><path fill="#4D4D4D" d="m163.617 108.415 11.25-6.552.089-17.797-11.25 6.552z"/><path fill="#1A1A1A" d="M159.977 88.492v17.797l3.631 2.125.089-17.797z"/><path fill="#fff" d="m160.684 104.169 1.948 1.151v-9.474l-1.948-1.15zM160.773 92.488c0 .53.443 1.15.975 1.505.531.266.974.088.974-.354 0-.532-.443-1.151-.974-1.505-.62-.355-.975-.178-.975.354"/></g><mask id="j" width="42" height="48" x="156" y="84" maskUnits="userSpaceOnUse" style="mask-type:luminance"><path fill="#fff" d="m156.792 84.61-.089 23.463 40.305 23.198.177-23.287z"/></mask><g mask="url(#j)"><path fill="#4D4D4D" d="m167.67 92.915 7.529-6.552v-2.125l-11.25 6.552z"/><path fill="#E6E6E6" d="m167.67 93.535 10.895-6.375-3.72-2.125-10.896 6.375z"/><path fill="#4D4D4D" d="m167.59 110.72 11.25-6.552.088-17.797-11.25 6.552z"/><path fill="#1A1A1A" d="M163.949 90.79v17.796l3.632 2.125.089-17.797z"/><path fill="#fff" d="m164.66 106.458 1.949 1.151v-9.474l-1.949-1.15zM164.75 94.777c0 .531.443 1.15.974 1.505.532.266.975.089.975-.354 0-.531-.443-1.151-.975-1.505-.62-.355-.974-.177-.974.354"/></g><mask id="k" width="42" height="48" x="156" y="84" maskUnits="userSpaceOnUse" style="mask-type:luminance"><path fill="#fff" d="m156.792 84.61-.089 23.463 40.305 23.198.177-23.287z"/></mask><g mask="url(#k)"><path fill="#F15A24" d="m171.674 95.244 7.529-6.553v-2.125l-11.25 6.552z"/><path fill="#E6E6E6" d="m171.674 95.848 10.895-6.375-3.72-2.125-10.896 6.375z"/><path fill="#F15A24" d="m171.582 113.029 11.25-6.552.089-17.797-11.25 6.552z"/><path fill="#AD3814" d="M167.953 93.106v17.796l3.632 2.125.089-17.796z"/><path fill="#fff" d="m168.668 108.783 1.949 1.151v-9.474l-1.949-1.151zM168.758 97.1c0 .532.443 1.152.974 1.506.532.266.975.089.975-.354 0-.531-.443-1.151-.975-1.505-.62-.354-.974-.177-.974.354"/></g><mask id="l" width="42" height="48" x="156" y="84" maskUnits="userSpaceOnUse" style="mask-type:luminance"><path fill="#fff" d="m156.792 84.61-.089 23.463 40.305 23.198.177-23.287z"/></mask><g mask="url(#l)"><path fill="#4D4D4D" d="m175.646 97.525 7.53-6.552v-2.125l-11.25 6.552z"/><path fill="#E6E6E6" d="m175.646 98.16 10.896-6.375-3.721-2.125-10.895 6.375z"/><path fill="#4D4D4D" d="m175.566 115.326 11.25-6.553.089-17.796-11.25 6.552z"/><path fill="#1A1A1A" d="M171.926 95.39v17.798l3.632 2.124.088-17.796z"/><path fill="#fff" d="m172.645 111.076 1.948 1.151v-9.474l-1.948-1.151zM172.734 99.394c0 .531.443 1.151.975 1.505.531.266.974.089.974-.354 0-.531-.443-1.151-.974-1.505-.62-.354-.975-.177-.975.354"/></g><mask id="m" width="42" height="48" x="156" y="84" maskUnits="userSpaceOnUse" style="mask-type:luminance"><path fill="#fff" d="m156.792 84.61-.089 23.463 40.305 23.198.177-23.287z"/></mask><g mask="url(#m)"><path fill="#4D4D4D" d="m179.662 99.826 7.529-6.553v-2.125l-11.25 6.553z"/><path fill="#E6E6E6" d="m179.662 100.449 10.895-6.375-3.72-2.125-10.896 6.375z"/><path fill="#4D4D4D" d="m179.582 117.626 11.25-6.552.089-17.797-11.25 6.552z"/><path fill="#1A1A1A" d="m175.94 97.7-.088 17.796 3.72 2.125.089-17.797z"/><path fill="#fff" d="m176.645 113.376 1.948 1.151v-9.474l-1.948-1.151zM176.734 101.695c0 .531.443 1.151.975 1.505.531.266.974.088.974-.354 0-.443-.443-1.151-.974-1.505-.62-.355-.975-.178-.975.354"/></g><mask id="n" width="42" height="48" x="156" y="84" maskUnits="userSpaceOnUse" style="mask-type:luminance"><path fill="#fff" d="m156.792 84.61-.089 23.463 40.305 23.198.177-23.287z"/></mask><g mask="url(#n)"><path fill="#4D4D4D" d="m183.638 102.146 7.53-6.552v-2.125l-11.25 6.552z"/><path fill="#E6E6E6" d="m183.638 102.758 10.896-6.375-3.72-2.125-10.896 6.375z"/><path fill="#4D4D4D" d="m183.543 119.947 11.25-6.552.089-17.797-11.25 6.552z"/><path fill="#1A1A1A" d="m179.913 100.012-.089 17.797 3.721 2.125.088-17.797z"/><path fill="#fff" d="m180.625 115.689 1.949 1.151v-9.474l-1.949-1.151zM180.715 104.007c0 .531.443 1.151.974 1.505.532.266.975.089.975-.354 0-.531-.443-1.151-.975-1.505-.62-.354-.974-.177-.974.354"/></g><mask id="o" width="42" height="48" x="156" y="84" maskUnits="userSpaceOnUse" style="mask-type:luminance"><path fill="#fff" d="m156.792 84.61-.089 23.463 40.305 23.198.177-23.287z"/></mask><g mask="url(#o)"><path fill="#4D4D4D" d="m187.631 104.431 7.529-6.552v-2.125l-11.25 6.552z"/><path fill="#E6E6E6" d="m187.631 105.051 10.895-6.375-3.72-2.125-10.896 6.375z"/><path fill="#4D4D4D" d="m187.539 122.228 11.25-6.552.089-17.797-11.25 6.552z"/><path fill="#1A1A1A" d="m183.909 102.297-.089 17.797 3.721 2.125.088-17.797z"/><path fill="#fff" d="m184.613 117.982 1.949 1.151v-9.474l-1.949-1.151zM184.703 106.3c0 .531.443 1.151.975 1.505.531.266.974.089.974-.354 0-.531-.443-1.151-.974-1.505-.621-.354-.975-.177-.975.354"/></g><mask id="p" width="42" height="48" x="156" y="84" maskUnits="userSpaceOnUse" style="mask-type:luminance"><path fill="#fff" d="m156.792 84.61-.089 23.463 40.305 23.198.177-23.287z"/></mask><g mask="url(#p)"><path fill="#4D4D4D" d="m191.619 106.74 7.529-6.552v-2.126l-11.25 6.553z"/><path fill="#E6E6E6" d="m191.619 107.355 10.896-6.375-3.721-2.124-10.896 6.374z"/><path fill="#4D4D4D" d="m191.523 124.54 11.25-6.552.089-17.797-11.25 6.552z"/><path fill="#6D7983" d="m187.885 104.613-.088 17.797 3.72 2.125.089-17.797z"/><path fill="#fff" d="m188.602 120.29 1.948 1.151v-9.474l-1.948-1.151zM188.691 108.609c0 .531.443 1.151.975 1.505.531.266.974.088.974-.354 0-.531-.443-1.151-.974-1.505-.62-.355-.975-.178-.975.354"/></g><mask id="q" width="42" height="48" x="156" y="84" maskUnits="userSpaceOnUse" style="mask-type:luminance"><path fill="#fff" d="m156.792 84.61-.089 23.463 40.305 23.198.177-23.287z"/></mask><g mask="url(#q)"><path fill="#4D4D4D" d="m195.585 108.97 7.618-6.552v-2.125l-11.25 6.552z"/><path fill="#E6E6E6" d="m195.585 109.59 10.896-6.375-3.721-2.125-10.807 6.286z"/><path fill="#4D4D4D" d="m195.582 126.767 11.25-6.552v-17.797l-11.25 6.552z"/><path fill="#1A1A1A" d="m191.948 106.832-.089 17.797 3.721 2.125v-17.797z"/><path fill="#fff" d="m192.652 122.513 1.949 1.151v-9.474l-1.949-1.151zM192.652 110.831c0 .532.443 1.151.975 1.506.531.265.974.088.974-.355s-.443-1.151-.974-1.505c-.532-.354-.975-.177-.975.354"/></g><mask id="r" width="42" height="48" x="156" y="84" maskUnits="userSpaceOnUse" style="mask-type:luminance"><path fill="#fff" d="m156.792 84.61-.089 23.463 40.305 23.198.177-23.287z"/></mask><g mask="url(#r)"><path fill="#4D4D4D" d="m199.573 111.279 7.618-6.552v-2.125l-11.25 6.552z"/><path fill="#E6E6E6" d="m199.573 111.895 10.896-6.375-3.721-2.125-10.807 6.286z"/><path fill="#1A1A1A" d="m195.94 109.137-.088 17.797 3.72 2.125v-17.797z"/><path fill="#fff" d="m196.637 124.818 1.949 1.151v-9.474l-1.949-1.151zM196.637 113.136c0 .531.443 1.151.974 1.505.532.266.975.089.975-.354 0-.531-.443-1.151-.975-1.505-.531-.354-.974-.177-.974.354"/></g><mask id="s" width="42" height="47" x="156" y="111" maskUnits="userSpaceOnUse" style="mask-type:luminance"><path fill="#fff" d="m156.737 111.098-.089 23.375 40.305 23.286.178-23.375z"/></mask><g mask="url(#s)"><path fill="#4D4D4D" d="m163.615 117.04 7.529-6.463v-2.214l-11.249 6.552z"/><path fill="#E6E6E6" d="m163.615 117.652 10.896-6.375-3.721-2.125-10.895 6.375z"/><path fill="#4D4D4D" d="m163.535 134.835 11.25-6.464.089-17.797-11.25 6.464z"/><path fill="#1A1A1A" d="M159.895 114.906v17.797l3.631 2.125.089-17.797z"/><path fill="#fff" d="m160.609 130.677 1.949 1.063v-9.474l-1.949-1.063zM160.699 118.902c0 .531.443 1.151.975 1.505.531.266.974.088.974-.354 0-.532-.443-1.151-.974-1.505-.532-.355-.975-.178-.975.354"/><path fill="#4D4D4D" d="m167.611 119.318 7.53-6.464v-2.213l-11.25 6.552z"/><path fill="#E6E6E6" d="m167.611 119.953 10.896-6.375-3.721-2.125-10.895 6.375z"/><path fill="#4D4D4D" d="m167.527 137.124 11.25-6.464.089-17.797-11.25 6.464z"/><path fill="#1A1A1A" d="M163.891 117.199v17.797l3.631 2.125.089-17.797z"/><path fill="#fff" d="m164.594 132.958 1.949 1.063v-9.474l-1.949-1.063zM164.684 121.183c0 .531.443 1.151.974 1.505.531.266.974.089.974-.354 0-.531-.443-1.151-.974-1.505-.62-.354-.974-.177-.974.354"/><path fill="#4D4D4D" d="m171.607 121.638 7.53-6.464v-2.213l-11.25 6.552z"/><path fill="#E6E6E6" d="m171.607 122.258 10.896-6.375-3.721-2.125-10.895 6.375z"/><path fill="#4D4D4D" d="m171.52 139.44 11.249-6.463.089-17.797-11.25 6.463z"/><path fill="#1A1A1A" d="M167.887 119.516v17.797l3.632 2.125.088-17.797z"/><path fill="#fff" d="m168.59 135.279 1.949 1.062v-9.474l-1.949-1.062zM168.68 123.503c0 .532.443 1.151.974 1.505.532.266.974.089.974-.354 0-.531-.442-1.151-.974-1.505-.62-.354-.974-.177-.974.354"/><path fill="#4D4D4D" d="m175.592 123.923 7.529-6.463v-2.214l-11.25 6.552z"/><path fill="#E6E6E6" d="m175.592 124.543 10.895-6.375-3.72-2.125-10.896 6.375z"/><path fill="#4D4D4D" d="m175.5 141.729 11.25-6.463.089-17.797-11.25 6.463z"/><path fill="#1A1A1A" d="M171.871 121.793v17.797l3.632 2.125.089-17.797z"/><path fill="#fff" d="m172.57 137.568 1.949 1.062v-9.474l-1.949-1.062zM172.66 125.792c0 .532.443 1.151.975 1.506.531.265.974.088.974-.355 0-.531-.443-1.151-.974-1.505-.621-.354-.975-.177-.975.354"/><path fill="#F15A24" d="m179.56 126.251 7.53-6.463v-2.214l-11.25 6.552z"/><path fill="#E6E6E6" d="m179.56 126.859 10.896-6.375-3.721-2.125-10.895 6.375z"/><path fill="#F15A24" d="m179.477 144.057 11.25-6.463.088-17.797-11.25 6.463z"/><path fill="#AD3814" d="M175.84 124.113v17.797l3.632 2.125.088-17.797z"/><path fill="#fff" d="m176.559 139.9 1.948 1.062v-9.474l-1.948-1.062zM176.648 128.124c0 .532.443 1.151.975 1.506.531.265.974.088.974-.355s-.443-1.151-.974-1.505c-.62-.354-.975-.177-.975.354"/><path fill="#4D4D4D" d="m183.572 128.54 7.53-6.552v-2.125l-11.25 6.552z"/><path fill="#E6E6E6" d="m183.572 129.16 10.896-6.375-3.721-2.125-10.895 6.375z"/><path fill="#4D4D4D" d="m183.48 146.345 11.25-6.552.089-17.797-11.25 6.552z"/><path fill="#6D7983" d="M179.852 126.422v17.797l3.631 2.125.089-17.797z"/><path fill="#fff" d="m180.559 142.092 1.948 1.151v-9.473l-1.948-1.063zM180.648 130.406c0 .531.443 1.151.975 1.505.531.265.974.088.974-.354 0-.532-.443-1.151-.974-1.506-.62-.354-.975-.177-.975.355"/><path fill="#4D4D4D" d="m187.56 130.845 7.53-6.552v-2.125l-11.25 6.552z"/><path fill="#E6E6E6" d="m187.56 131.465 10.896-6.375-3.721-2.125-10.895 6.375z"/><path fill="#4D4D4D" d="m187.469 148.646 11.25-6.552.088-17.797-11.25 6.552z"/><path fill="#1A1A1A" d="M183.84 128.715v17.797l3.632 2.125.088-17.797z"/><path fill="#fff" d="m184.543 144.401 1.949 1.151v-9.474l-1.949-1.062zM184.633 132.714c0 .531.443 1.151.974 1.505.532.266.975.089.975-.354 0-.531-.443-1.151-.975-1.505-.62-.354-.974-.177-.974.354"/><path fill="#4D4D4D" d="m191.545 133.142 7.529-6.552v-2.125l-11.25 6.552z"/><path fill="#E6E6E6" d="m191.545 133.762 10.895-6.375-3.72-2.125-10.896 6.375z"/><path fill="#4D4D4D" d="m191.465 150.943 11.25-6.552.088-17.797-11.25 6.552z"/><path fill="#1A1A1A" d="M187.824 131.008v17.797l3.632 2.125.089-17.797z"/><path fill="#fff" d="m188.527 146.69 1.949 1.151v-9.474l-1.949-1.062zM188.617 135.003c0 .532.443 1.151.975 1.505.531.266.974.089.974-.354 0-.531-.443-1.151-.974-1.505-.62-.354-.975-.177-.975.354"/></g><mask id="t" width="42" height="48" x="156" y="137" maskUnits="userSpaceOnUse" style="mask-type:luminance"><path fill="#fff" d="m156.639 137.562-.088 23.375 40.305 23.198.177-23.286z"/></mask><g mask="url(#t)"><path fill="#4D4D4D" d="m163.455 143.503 7.529-6.464v-2.125l-11.25 6.464z"/><path fill="#E6E6E6" d="m163.455 144.113 10.895-6.375-3.72-2.125-10.896 6.375z"/><path fill="#4D4D4D" d="m163.371 161.292 11.25-6.464.089-17.797-11.25 6.464z"/><path fill="#1A1A1A" d="M159.734 141.375v17.797l3.632 2.125.089-17.797z"/><path fill="#fff" d="m160.531 157.13 1.86 1.063v-9.474l-1.86-1.063zM160.531 145.354c0 .531.443 1.151.975 1.505.531.266.974.089.974-.354 0-.531-.443-1.151-.974-1.505-.62-.354-.975-.088-.975.354"/></g><mask id="u" width="42" height="48" x="156" y="137" maskUnits="userSpaceOnUse" style="mask-type:luminance"><path fill="#fff" d="m156.639 137.562-.088 23.375 40.305 23.198.177-23.286z"/></mask><g mask="url(#u)"><path fill="#F15A24" d="m167.455 145.815 7.529-6.463v-2.125l-11.25 6.463z"/><path fill="#E6E6E6" d="m167.455 146.434 10.895-6.375-3.72-2.125-10.896 6.375z"/><path fill="#F15A24" d="m167.363 163.6 11.25-6.463.089-17.797-11.25 6.463z"/><path fill="#AD3814" d="M163.734 143.684v17.796l3.632 2.125.089-17.796z"/><path fill="#fff" d="m164.527 159.443 1.861 1.062v-9.474l-1.861-1.062zM164.527 147.667c0 .532.443 1.151.975 1.506.531.265.974.088.974-.355 0-.531-.443-1.151-.974-1.505-.62-.354-.975-.177-.975.354"/></g><mask id="v" width="42" height="48" x="156" y="137" maskUnits="userSpaceOnUse" style="mask-type:luminance"><path fill="#fff" d="m156.639 137.562-.088 23.375 40.305 23.198.177-23.286z"/></mask><g mask="url(#v)"><path fill="#4D4D4D" d="m177.451 151.564 7.529-6.552v-2.125l-11.25 6.552z"/><path fill="#E6E6E6" d="m177.451 152.083 10.896-6.286-3.721-2.125-10.896 6.286z"/><path fill="#4D4D4D" d="m177.453 169.361 11.25-6.552v-17.797l-11.25 6.552z"/><path fill="#1A1A1A" d="M173.73 149.422v17.797l3.721 2.125v-17.797z"/><path fill="#fff" d="m174.531 165.107 1.86 1.151v-9.474l-1.86-1.151zM174.531 153.425c0 .531.443 1.151.975 1.505.531.266.974.089.974-.354 0-.531-.443-1.151-.974-1.505-.532-.354-.975-.177-.975.354"/></g><mask id="w" width="42" height="48" x="156" y="137" maskUnits="userSpaceOnUse" style="mask-type:luminance"><path fill="#fff" d="m156.639 137.562-.088 23.375 40.305 23.198.177-23.286z"/></mask><g mask="url(#w)"><path fill="#4D4D4D" d="m181.443 153.849 7.53-6.552v-2.125l-11.25 6.552z"/><path fill="#E6E6E6" d="m181.443 154.376 10.896-6.286-3.721-2.125-10.895 6.286z"/><path fill="#4D4D4D" d="m181.441 171.646 11.25-6.552v-17.797l-11.25 6.552z"/><path fill="#1A1A1A" d="M177.723 151.715v17.797l3.72 2.125V153.84z"/><path fill="#fff" d="m178.516 167.4 1.86 1.151v-9.474l-1.86-1.151zM178.516 155.718c0 .531.443 1.151.974 1.505.532.266.974.089.974-.354 0-.531-.442-1.151-.974-1.505-.531-.354-.974-.177-.974.354"/></g><mask id="x" width="42" height="48" x="156" y="137" maskUnits="userSpaceOnUse" style="mask-type:luminance"><path fill="#fff" d="m156.639 137.562-.088 23.375 40.305 23.198.177-23.286z"/></mask><g mask="url(#x)"><path fill="#4D4D4D" d="m185.412 156.146 7.529-6.552v-2.125l-11.25 6.552z"/><path fill="#E6E6E6" d="m185.412 156.677 10.895-6.286-3.72-2.125-10.896 6.286z"/><path fill="#4D4D4D" d="m185.426 173.943 11.25-6.552v-17.797l-11.25 6.552z"/><path fill="#1A1A1A" d="M181.691 154.02v17.796l3.721 2.125v-17.796z"/><path fill="#fff" d="m182.488 169.689 1.861 1.151v-9.474l-1.861-1.151zM182.488 158.007c0 .531.443 1.151.975 1.505.531.266.974.089.974-.354 0-.531-.443-1.151-.974-1.505-.532-.354-.975-.177-.975.354"/></g><mask id="y" width="42" height="48" x="156" y="137" maskUnits="userSpaceOnUse" style="mask-type:luminance"><path fill="#fff" d="m156.639 137.562-.088 23.375 40.305 23.198.177-23.286z"/></mask><g mask="url(#y)"><path fill="#4D4D4D" d="m189.392 158.462 7.53-6.552v-2.125l-11.25 6.552z"/><path fill="#E6E6E6" d="m189.392 158.993 10.896-6.286-3.72-2.125-10.896 6.286z"/><path fill="#4D4D4D" d="m189.406 176.259 11.25-6.552V151.91l-11.25 6.552z"/><path fill="#6D7983" d="M185.672 156.328v17.797l3.72 2.125v-17.797z"/><path fill="#fff" d="m186.473 172.009 1.86 1.063v-9.386l-1.86-1.151zM186.473 160.327c0 .532.443 1.152.974 1.506.532.265.974.088.974-.354 0-.443-.442-1.152-.974-1.506-.531-.354-.974-.177-.974.354"/></g><mask id="z" width="42" height="48" x="156" y="137" maskUnits="userSpaceOnUse" style="mask-type:luminance"><path fill="#fff" d="m156.639 137.562-.088 23.375 40.305 23.198.177-23.286z"/></mask><g mask="url(#z)"><path fill="#4D4D4D" d="m193.381 160.743 7.529-6.552v-2.125l-11.25 6.552z"/><path fill="#E6E6E6" d="M193.381 161.286 204.276 155l-3.72-2.125-10.896 6.286z"/><path fill="#4D4D4D" d="m193.391 178.544 11.25-6.552v-17.797l-11.25 6.552z"/><path fill="#1A1A1A" d="M189.66 158.625v17.797l3.721 2.125V160.75z"/><path fill="#fff" d="m190.469 174.294 1.86 1.063v-9.386l-1.86-1.151zM190.469 162.613c0 .531.443 1.151.974 1.505.532.265.975.088.975-.354 0-.532-.443-1.151-.975-1.506-.531-.354-.974-.177-.974.355"/></g><mask id="A" width="42" height="48" x="156" y="137" maskUnits="userSpaceOnUse" style="mask-type:luminance"><path fill="#fff" d="m156.639 137.562-.088 23.375 40.305 23.198.177-23.286z"/></mask><g mask="url(#A)"><path fill="#4D4D4D" d="m197.381 163.056 7.529-6.552v-2.125l-11.25 6.552z"/><path fill="#E6E6E6" d="m197.381 163.587 10.895-6.286-3.72-2.125-10.896 6.286z"/><path fill="#1A1A1A" d="M193.66 160.93v17.797l3.721 2.125v-17.797z"/><path fill="#fff" d="m194.457 176.607 1.86 1.062v-9.385l-1.86-1.151zM194.457 164.925c0 .531.443 1.151.974 1.505.532.266.975.089.975-.354 0-.531-.443-1.151-.975-1.505-.531-.354-.974-.177-.974.354"/></g><path fill="#333" d="M157.602 191.637v-2.922q0 .398-.532.797v2.922c.355-.177.532-.532.532-.797M153.879 188.715v2.922q0 .398.531.797c.709.442 1.949.442 2.658 0v-2.922c-.709.442-1.949.442-2.658 0q-.531-.4-.531-.797"/><path fill="#000" d="M157.068 189.513c.709-.443.709-1.151 0-1.505-.709-.443-1.949-.443-2.658 0s-.708 1.151 0 1.505c.709.443 1.949.443 2.658 0"/><path fill="#D4BFA7" d="m199.669 106.294-.265 108.906-1.241.709-1.417-2.214v-26.474l.089-3.099v-26.385l.088-23.464v-3.01l.089-23.375v-3.099z"/><path fill="#F2E8DF" d="m152.633 189.609 21.702 12.485.886.531 22.943 13.281v-29.661l-22.943-13.193-.886-.531-21.614-12.396z"/><path fill="#D4BFA7" d="M174.332 172.52v29.572l.886.532v-29.573z"/><path fill="#333" d="m177.536 177.125-.798.442c.177-.088.355-.088.62.089l.798-.443c-.266-.177-.443-.177-.62-.088"/><path fill="#333" d="m177.887 179.602.797-.443q.266-.133.266-.531c0-.532-.354-1.151-.797-1.417l-.798.443c.443.265.798.885.798 1.416q0 .399-.266.532"/><path fill="#000" d="M177.36 177.653c-.443-.265-.798-.088-.798.443s.355 1.151.798 1.417c.443.265.797.088.797-.443s-.354-1.151-.797-1.417"/><path fill="#333" d="m170.809 173.214-.797.443c.177-.088.354-.088.62.089l.797-.443c-.266-.177-.443-.177-.62-.089"/><path fill="#333" d="m171.156 175.695.798-.442q.265-.133.265-.532c0-.531-.354-1.151-.797-1.416l-.797.442c.443.266.797.886.797 1.417q0 .399-.266.531"/><path fill="#000" d="M170.637 173.747c-.443-.266-.797-.089-.797.443 0 .531.354 1.151.797 1.416.443.266.797.089.797-.442 0-.532-.354-1.151-.797-1.417"/><path fill="#D4BFA7" d="M66.902 200.063c2.569 10.802 1.86 16.026-1.24 22.401l-26.93 15.671c3.101-6.375 3.81-11.599 1.24-22.401-2.922-12.307-2.037-16.114-.708-16.911 1.152-.62 2.57.708 2.392 1.24l23.297-13.547c-.177 2.479.266 6.729 1.949 13.547"/><path fill="#F2E8DF" d="M67.87 200.063c2.57 10.802 2.127 17.531-.974 23.906l-26.929 15.672c3.1-6.375 3.544-13.105.975-23.907-2.923-12.307-2.038-16.114-.709-16.911 1.152-.62 2.569.708 2.392 1.24l23.297-13.547c-.089 2.479.354 6.729 1.949 13.547"/><path fill="#333" d="m80.358 269.323 1.86-1.151-7.175-36.656-1.95 1.062z"/><path fill="#4D4D4D" d="m74.326 232.931 1.86-1.063-.177-1.239-1.86 1.062z"/><path fill="#CCC" d="m74.146 231.674 1.86-1.062-1.24-.354-1.86 1.151z"/><path fill="#333" d="m57.129 256.208 1.86-1.062 11.959-38.162-1.86 1.063z"/><path fill="#A79681" d="m69.097 217.867 1.86-1.062-1.151-1.063-1.86 1.063z"/><path fill="#4D4D4D" d="m69.098 218.04 1.86-1.062v-.177l-1.86 1.062z"/><path fill="gray" d="m64.049 186.44-1.24-.354 6.289 31.786 10.01 51.089 1.24.354-7.264-36.745 1.24.354-.177-1.239-1.24-.266z"/><path fill="gray" d="m67.946 216.801-12.048 38.338 1.24 1.063 11.96-38.162v-.177z"/><path fill="#4D4D4D" d="m64.057 186.439 1.86-1.151-1.152-.354-1.949 1.151z"/><path fill="#333" d="m64.057 186.439 1.86-1.151-1.152-.354-1.949 1.151z"/><path fill="#4D4D4D" d="m72.913 231.408 1.86-1.152-8.858-44.979-1.86 1.151z"/><path fill="gray" d="M74.953 243.27v-.532c-.178-.088-.266-.265-.443-.354l-11.516-6.641c-.709-.354-1.24-.177-1.24.532 0 .708.531 1.505 1.24 1.948l11.516 6.64c.265.177.531.177.708.177-.088-.619-.265-1.151-.265-1.77"/><path fill="#333" d="m59.554 281.257 1.86-1.063-7.175-36.745-1.86 1.063z"/><path fill="#4D4D4D" d="m53.606 244.861 22.588-13.016-.177-1.24L53.34 243.71z"/><path fill="#CCC" d="m53.346 243.716 22.677-13.104-1.24-.354-22.678 13.104z"/><path fill="#333" d="m36.34 268.23 1.86-1.151 12.047-38.161-1.86 1.062z"/><path fill="#A79681" d="m48.301 229.805 1.95-1.063-1.152-1.062-1.86 1.062z"/><path fill="#4D4D4D" d="m48.39 229.974 1.86-1.063v-.177l-1.95 1.063z"/><path fill="gray" d="m43.326 198.382-1.24-.355 6.2 31.787 10.01 51.088 1.24.354-7.175-36.744 1.24.354-.265-1.151-1.24-.354z"/><path fill="gray" d="m47.235 228.734-12.047 38.339 1.151 1.151 12.047-38.25-.088-.177z"/><path fill="#4D4D4D" d="m43.326 198.37 1.86-1.063-1.24-.354-1.86 1.063z"/><path fill="#333" d="m43.326 198.37 1.86-1.063-1.24-.354-1.86 1.063z"/><path fill="#4D4D4D" d="m52.102 243.362 1.949-1.063-8.859-44.979-1.86 1.063z"/><path fill="#4D4D4D" d="m41.642 200.066 26.93-15.671-.71-.266-26.928 15.672z"/><path fill="#FBFFF2" d="m50.507 245.042 26.929-15.761-8.859-44.89-26.929 15.671z"/><path fill="#FFC366" d="M67.055 217.594c-2.657 1.505-4.252 5.224-3.455 8.323.266.974.798 1.859 1.506 2.479l1.595-2.391a3.3 3.3 0 0 1-.797-1.328c-.443-1.682.354-3.63 1.86-4.516a2.5 2.5 0 0 1 1.329-.354l.442-2.833c-.797-.089-1.683.177-2.48.62"/><path fill="#F15A24" d="m69.537 216.98-.443 2.834c.974 0 1.771.708 2.126 1.859.443 1.682-.355 3.63-1.86 4.516-.09.088-.178.088-.266.177l.443 2.656.531-.265c2.658-1.506 4.252-5.224 3.366-8.323-.62-2.125-2.037-3.454-3.897-3.454"/><path fill="#6D7983" d="m66.708 225.918-1.595 2.391c1.152.974 2.746 1.239 4.34.531l-.442-2.656c-.797.442-1.683.265-2.303-.266"/><path fill="#3399B0" d="m66.708 225.918-1.595 2.391c1.152.974 2.746 1.239 4.34.531l-.442-2.656c-.797.442-1.683.265-2.303-.266"/><path fill="#6D7983" d="m58.228 224.934-.797 2.833a2.18 2.18 0 0 1 1.683 1.771c.443 1.682-.354 3.63-1.86 4.515-.089.089-.177.089-.266.177l.443 2.657.532-.266c2.657-1.505 4.252-5.224 3.366-8.323-.443-1.859-1.595-3.099-3.1-3.364"/><path fill="#3399B0" d="m58.228 224.934-.797 2.833a2.18 2.18 0 0 1 1.683 1.771c.443 1.682-.354 3.63-1.86 4.515-.089.089-.177.089-.266.177l.443 2.657.532-.266c2.657-1.505 4.252-5.224 3.366-8.323-.443-1.859-1.595-3.099-3.1-3.364"/><path fill="#FFC366" d="M51.665 230.078a7.6 7.6 0 0 0-.089 3.719c.709 2.833 3.19 4.073 5.758 3.01l-.443-2.656c-1.329.62-2.746-.089-3.1-1.594-.177-.62-.177-1.328 0-2.036z"/><path fill="#F15A24" d="M55.034 225.479c-1.594.885-2.834 2.656-3.366 4.604l2.215.443c.265-1.063.974-2.037 1.86-2.479.531-.355 1.151-.443 1.683-.266l.797-2.833q-1.594-.399-3.189.531"/><path fill="#333" d="m41.642 200.07-.708-.265 8.77 44.979.797.265z"/><path fill="gray" d="M53.966 254.701a1.2 1.2 0 0 0-.355-.266l-11.515-6.641c-.178-.088-.355-.177-.443-.177-.089.354-.178.62-.355.974-.088.177-.088.354-.177.531.177.443.62.886 1.063 1.151l11.516 6.641c.354.177.62.266.886.177a4.6 4.6 0 0 1-.62-2.39"/><path fill="#F2E8DF" d="m66.098 183.151-26.84 15.672c1.151-.62 2.569.797 2.48 1.24l23.297-13.547 3.72-2.125c-.088-.531-1.505-1.948-2.657-1.24"/><path fill="#6D7983" d="m51.315 217.151-.265.177-.09-.354.267-.177zM51.765 219.633l-.266.177-.089-.62.266-.177zm-.266-1.24-.266.177-.088-.619.265-.178zM51.934 220.592l-.177.178-.089-.355.177-.177zM55.659 214.655l-.266.089-.088-.355.265-.088zM56.106 217.137l-.266.177-.089-.62.266-.177zm-.178-1.24-.265.177-.089-.62.266-.177zM56.366 218.107l-.266.088-.088-.354.266-.177zM60.878 205.733l-.266.089-.089-.355.266-.088zM62.39 213.348l-.266.177-.177-.797.266-.177zm-.354-1.506-.266.178-.177-.797.266-.177zm-.266-1.593-.266.177-.177-.797.266-.177zm-.266-1.506-.265.178-.178-.797.266-.177zm-.354-1.505-.266.177-.177-.796.266-.178zM62.559 214.505l-.177.089-.089-.354.266-.178zM64.426 197.307l-.266.089v-.354l.177-.089zM67.085 210.59l-.266.177-.177-.708.266-.177zm-.266-1.505-.266.177-.177-.709.266-.177zm-.266-1.417-.266.177-.177-.708.266-.177zm-.354-1.505-.266.177-.177-.708.266-.178zm-.266-1.505-.266.177-.177-.709.266-.177zm-.354-1.417-.266.177-.177-.708.266-.177zm-.266-1.505-.266.177-.177-.709.266-.177zm-.266-1.506-.266.178-.177-.709.266-.177zm-.354-1.416-.266.177-.177-.708.266-.178zM67.35 211.741l-.265.089-.089-.355.266-.088z"/><path fill="#D93035" d="M49.888 221.224h-.443l1.418-4.516 4.429-2.833.62-5.932 4.606-2.745 3.19-7.526.442.088-3.278 7.792-4.517 2.656-.62 5.933-4.518 2.921z"/><path fill="#D93035" d="m64.334 198.469.62-3.188-1.86 2.922z"/><path fill="#6D7983" d="m70.535 209.974-21.171 12.307-3.278-16.114.266-.089 3.189 15.849 20.905-12.219z"/><path fill="#D4BFA7" d="m232.438 150.659 80.698 46.573v-65.964l-80.698-46.573z"/><path fill="#34424B" d="m312.785 197.759-80.61-46.573c-.178-.088-.355-.354-.355-.531V84.691c0-.265.089-.442.355-.53a.76.76 0 0 1 .62 0l80.61 46.572c.177.089.354.354.354.531v65.964c0 .265-.089.443-.354.531-.089.089-.177.089-.355.089 0 0-.177 0-.265-.089M233.149 85.842v64.459l79.37 45.776v-64.459z"/><path fill="#fff" d="m286.309 127.195 19.576 11.245v38.781l-19.576-11.333z"/><path fill="#FBB03B" d="M289.52 139.128c0-3.542 2.923-4.781 6.466-2.745 3.543 2.037 6.467 6.641 6.467 10.271 0 3.542-2.924 4.781-6.467 2.745-3.543-2.125-6.466-6.729-6.466-10.271m3.986 2.302c0 1.328 1.151 3.099 2.48 3.896s2.48.354 2.48-1.063c0-1.328-1.151-3.098-2.48-3.895s-2.48-.355-2.48 1.062"/><path fill="#3399B0" d="M295.985 149.311c3.543 2.037 6.466.797 6.466-2.745 0-1.859-.797-4.073-2.214-6.109l-2.658 1.505c.532.797.798 1.594.798 2.302 0 1.328-1.152 1.86-2.481 1.063s-2.48-2.568-2.48-3.896l-3.986-2.302c.088 3.542 3.012 8.146 6.555 10.182"/><path fill="#F15A24" d="M295.986 149.305c.62.354 1.152.619 1.683.797l-1.063-4.428c-.177-.088-.443-.177-.62-.265-1.329-.797-2.48-2.568-2.48-3.896l-3.986-2.302c0 3.453 2.923 8.057 6.466 10.094"/><path fill="#CCC" d="m289.612 149.397 12.845 7.438c.354.177.62.088.62-.266v-.708c0-.354-.266-.709-.62-.886l-12.845-7.437c-.354-.177-.62-.089-.62.265v.709c0 .265.266.708.62.885"/><path fill="#F15A24" d="m297.933 154.182 4.517 2.568c.355.177.62.089.62-.266v-.708c0-.354-.265-.708-.62-.885l-4.517-2.568c-.355-.177-.621-.089-.621.266v.708c0 .265.266.708.621.885"/><path fill="#CCC" d="m289.612 152.057 12.845 7.438c.354.177.62.088.62-.266v-.708c0-.354-.266-.708-.62-.886l-12.845-7.437c-.354-.177-.62-.089-.62.266v.708c0 .266.266.708.62.885"/><path fill="#3399B0" d="m299.265 157.628 3.189 1.859c.354.177.62.089.62-.266v-.708c0-.354-.266-.708-.62-.885l-3.189-1.86c-.355-.177-.62-.088-.62.266v.708c0 .266.265.709.62.886"/><path fill="#CCC" d="m289.612 154.799 12.845 7.438c.354.177.62.089.62-.266v-.708c0-.354-.266-.708-.62-.885l-12.845-7.438c-.354-.177-.62-.088-.62.266v.708c0 .266.266.708.62.885"/><path fill="#6D7983" d="m297.147 159.135 5.315 3.011c.355.177.62.088.62-.266v-.708c0-.354-.265-.708-.62-.886l-5.315-3.01c-.354-.177-.62-.088-.62.266v.708c.089.266.355.708.62.885"/><path fill="#CCC" d="m289.612 157.549 12.845 7.438c.354.177.62.089.62-.266v-.708c0-.354-.266-.708-.62-.885l-12.845-7.438c-.354-.177-.62-.088-.62.266v.708c0 .266.266.62.62.885"/><path fill="#6D7983" d="m300.069 163.569 2.303 1.328c.355.177.621.089.621-.265v-.709c0-.354-.266-.708-.621-.885l-2.303-1.328c-.354-.177-.62-.089-.62.265v.709c.089.265.355.708.62.885"/><path fill="#fff" d="M292.086 140.555c0 2.213 1.772 4.958 3.986 6.198 2.215 1.239 3.986.531 3.986-1.683s-1.771-4.958-3.986-6.198c-2.214-1.239-3.986-.531-3.986 1.683"/><path fill="#6D7983" d="m301.309 171.259 1.24.708v-5.224l-1.24-.708z"/><path fill="#F15A24" d="m299.355 170.117 1.152.709v-3.188l-1.152-.708z"/><path fill="#3399B0" d="m297.402 168.971 1.152.709v-4.073l-1.152-.709z"/><path fill="#6D7983" d="m295.453 167.904 1.152.619v-4.604l-1.152-.708zM293.422 166.751l1.24.62v-2.833l-1.24-.62z"/><path fill="#3399B0" d="m291.465 165.603 1.151.62v-5.136l-1.151-.708z"/><path fill="#6D7983" d="m289.52 164.453 1.151.708v-3.984l-1.151-.708z"/><path fill="#fff" d="m236.43 99.656 19.576 11.334v38.692l-19.576-11.333z"/><path fill="#F15A24" d="M246.356 109.67c1.241.709 2.481 1.771 3.544 3.099l-1.683 2.568a8.6 8.6 0 0 0-1.949-1.682c-2.215-1.328-4.075-.266-4.075 2.302l-3.455-1.948c.089-4.781 3.455-6.729 7.618-4.339"/><path fill="#6D7983" d="M242.281 115.962c0 1.505.62 3.188 1.683 4.693l-2.037 2.036c-1.949-2.744-3.101-6.02-3.012-8.765z"/><path fill="#3399B0" d="M242.281 115.962c0 1.505.62 3.188 1.683 4.693l-2.037 2.036c-1.949-2.744-3.101-6.02-3.012-8.765z"/><path fill="#FFC366" d="M249.998 112.766c2.392 2.921 3.898 6.64 3.898 9.828 0 4.781-3.366 6.64-7.529 4.25-1.595-.886-3.101-2.391-4.429-4.162l2.037-2.036c.709.974 1.506 1.771 2.392 2.302 2.214 1.328 4.074.266 4.074-2.302 0-1.682-.797-3.719-2.126-5.313z"/><path fill="#333" d="m252.027 135.344 1.24.708v7.526l-1.24-.708z"/><path fill="#3399B0" d="m250.793 137.641 1.24.797v4.427l-1.24-.709z"/><path fill="#F15A24" d="m249.453 136.57 1.329.709v4.869l-1.329-.796z"/><path fill="#6D7983" d="m248.223 135.344 1.24.708v5.313l-1.24-.709z"/><path fill="#F15A24" d="m246.98 133.746 1.241.708v6.198l-1.241-.708z"/><path fill="#3399B0" d="m245.742 135.074 1.24.709v4.161l-1.24-.708z"/><path fill="#6D7983" d="m244.5 134.715 1.24.708v3.807l-1.24-.708z"/><path fill="#F15A24" d="m243.168 134.633 1.329.797v3.099l-1.329-.797z"/><path fill="#6D7983" d="m241.926 132.59 1.24.708v4.427l-1.24-.708z"/><path fill="#F15A24" d="m240.684 131.441 1.24.797v4.782l-1.24-.709z"/><path fill="#333" d="m239.449 131.441 1.24.709v4.161l-1.24-.708z"/><path fill="#6D7983" d="m238.215 128.699 1.24.709v6.197l-1.24-.708z"/><path fill="#333" d="m253.288 134.724-2.569-1.505v1.859l2.569 1.505zm-2.481.266v-1.683l2.481 1.417v1.682z"/><path fill="#333" d="M248.227 133.566v-1.859l2.568 1.505v1.86zm.088-1.682v1.682l2.48 1.417v-1.682z"/><path fill="#333" d="M245.672 132.152v-1.859l2.569 1.505v1.86zm.088-1.77v1.682l2.481 1.416v-1.682z"/><path fill="#333" d="M243.191 130.645v-1.86l2.569 1.505v1.86zm.089-1.683v1.683l2.48 1.416v-1.682z"/><path fill="#333" d="M240.707 129.227v-1.86l2.569 1.505v1.86zm0-1.683v1.683l2.48 1.416v-1.682zM238.137 127.813v-1.86l2.569 1.505v1.86zm.088-1.771v1.682l2.481 1.417v-1.683zM253.288 136.49l-2.569-1.506v1.86l2.569 1.505zm-2.481.265v-1.682l2.481 1.417v1.682z"/><path fill="#333" d="M248.227 135.344v-1.86l2.568 1.506v1.859zm.088-1.683v1.683l2.48 1.416v-1.682z"/><path fill="#333" d="M245.672 133.914v-1.859l2.569 1.505v1.859zm.088-1.771v1.683l2.481 1.416v-1.682z"/><path fill="#333" d="M243.191 132.508v-1.86l2.569 1.506v1.859zm.089-1.771v1.682l2.48 1.417v-1.682z"/><path fill="#333" d="M240.707 131.008v-1.86l2.569 1.506v1.859zm0-1.682v1.682l2.48 1.416v-1.682zM238.137 129.578v-1.859l2.569 1.505v1.859zm.088-1.771v1.683l2.481 1.416v-1.682zM253.288 138.263l-2.569-1.505v1.859l2.569 1.505zm-2.481.266v-1.683l2.481 1.417v1.682z"/><path fill="#333" d="M248.227 137.109v-1.859l2.568 1.505v1.86zm.088-1.682v1.682l2.48 1.417v-1.682z"/><path fill="#333" d="M245.672 135.691v-1.859l2.569 1.505v1.86zm.088-1.77v1.682l2.481 1.417v-1.683z"/><path fill="#333" d="M243.191 134.273v-1.859l2.569 1.505v1.86zm.089-1.77v1.682l2.48 1.417v-1.683z"/><path fill="#333" d="M240.707 132.773v-1.859l2.569 1.505v1.86zm0-1.682v1.682l2.48 1.417v-1.682zM238.137 131.352v-1.86l2.569 1.505v1.86zm.088-1.771v1.682l2.481 1.417v-1.683zM253.288 140.033l-2.569-1.506v1.86l2.569 1.505zm-2.481.265v-1.682l2.481 1.417v1.682z"/><path fill="#333" d="M248.227 138.887v-1.86l2.568 1.506v1.859zm.088-1.683v1.683l2.48 1.416v-1.682z"/><path fill="#333" d="M245.672 137.461v-1.859l2.569 1.505v1.859zm.088-1.771v1.682l2.481 1.417v-1.682z"/><path fill="#333" d="M243.191 136.043v-1.859l2.569 1.505v1.859zm.089-1.771v1.682l2.48 1.417v-1.682z"/><path fill="#333" d="M240.707 134.543v-1.859l2.569 1.505v1.859zm0-1.682v1.682l2.48 1.417v-1.683zM238.137 133.121v-1.859l2.569 1.505v1.859zm.088-1.771v1.683l2.481 1.416v-1.682zM253.288 141.794l-2.569-1.505v1.859l2.569 1.506zm-2.481.266v-1.682l2.481 1.416v1.683z"/><path fill="#333" d="M248.227 140.652v-1.859l2.568 1.505v1.86zm.088-1.682v1.682l2.48 1.417v-1.682z"/><path fill="#333" d="M245.672 139.23v-1.859l2.569 1.505v1.86zm.088-1.77v1.682l2.481 1.417v-1.683z"/><path fill="#333" d="M243.191 137.816v-1.859l2.569 1.505v1.86zm.089-1.77v1.682l2.48 1.417v-1.683z"/><path fill="#333" d="M240.707 136.312v-1.859l2.569 1.505v1.86zm0-1.682v1.682l2.48 1.417v-1.682zM238.137 134.902v-1.859l2.569 1.505v1.86zm.088-1.77v1.682l2.481 1.416v-1.682z"/><path fill="#fff" d="m261.598 113.559 19.576 11.244v38.693l-19.576-11.245z"/><path fill="#F15A24" d="m275.062 125.512 4.518 2.567v-1.328l-4.518-2.567zM269.215 122.152l4.429 2.568v-1.328l-4.429-2.568zM263.281 118.691l4.429 2.568v-1.328l-4.429-2.568z"/><path fill="#fff" d="m275.062 127.818 4.518 2.567v-1.239l-4.518-2.568z"/><path fill="#F15A24" d="m269.215 124.441 4.429 2.568v-1.328l-4.429-2.568zM263.281 120.997l4.429 2.568v-1.239l-4.429-2.568z"/><path fill="#6D7983" d="m275.062 130.207 4.518 2.568v-1.328l-4.518-2.568zM269.215 126.75l4.429 2.568v-1.328l-4.429-2.568z"/><path fill="#3399B0" d="m263.281 123.387 4.429 2.567v-1.328l-4.429-2.567z"/><path fill="#F15A24" d="m275.062 132.508 4.518 2.568v-1.329l-4.518-2.567zM269.215 129.052l4.429 2.568v-1.24l-4.429-2.568zM263.281 125.691l4.429 2.568v-1.328l-4.429-2.568z"/><path fill="#3399B0" d="m275.062 134.809 4.518 2.567v-1.239l-4.518-2.657z"/><path fill="#6D7983" d="m269.215 131.437 4.429 2.568v-1.328l-4.429-2.568zM263.281 127.986l4.429 2.567v-1.239l-4.429-2.568z"/><path fill="#3399B0" d="m275.062 137.107 4.518 2.567v-1.239l-4.518-2.568z"/><path fill="#6D7983" d="m269.215 133.75 4.429 2.568v-1.328l-4.429-2.568zM263.281 130.294l4.429 2.657v-1.329l-4.429-2.567z"/><path fill="#F15A24" d="m275.062 139.5 4.518 2.568v-1.328l-4.518-2.568zM269.215 136.052l4.429 2.568v-1.24l-4.429-2.568z"/><path fill="#fff" d="m263.281 132.687 4.429 2.568v-1.328l-4.429-2.568z"/><path fill="#F15A24" d="m275.062 141.797 4.518 2.568v-1.329l-4.518-2.567z"/><path fill="#D4EEFF" d="m269.215 138.441 4.429 2.568v-1.328l-4.429-2.568z"/><path fill="#F15A24" d="m263.281 134.984 4.429 2.568v-1.328l-4.429-2.568z"/><path fill="#6D7983" d="m275.062 144.103 4.518 2.568v-1.24l-4.518-2.568zM269.215 140.742l4.429 2.568v-1.328l-4.429-2.568zM263.281 137.279l4.429 2.567v-1.239l-4.429-2.568z"/><path fill="#F15A24" d="m275.062 146.5 4.518 2.568v-1.328l-4.518-2.568zM269.215 143.043l4.429 2.568v-1.24l-4.429-2.656zM263.281 139.676l4.429 2.567v-1.328l-4.429-2.567zM275.062 127.818l4.518 2.567v-1.239l-4.518-2.568zM269.215 133.75l4.429 2.568v-1.328l-4.429-2.568zM263.281 130.294l4.429 2.657v-1.329l-4.429-2.567z"/><path fill="#fff" d="m275.062 139.5 4.518 2.568v-1.328l-4.518-2.568z"/><path fill="#F15A24" d="m269.215 136.052 4.429 2.568v-1.24l-4.429-2.568zM263.281 132.687l4.429 2.568v-1.328l-4.429-2.568z"/><path fill="#6D7983" d="m275.062 141.797 4.518 2.568v-1.329l-4.518-2.567zM269.215 138.441l4.429 2.568v-1.328l-4.429-2.568zM263.281 134.984l4.429 2.568v-1.328l-4.429-2.568z"/><path fill="#F15A24" d="m275.062 144.103 4.518 2.568v-1.24l-4.518-2.568zM269.215 140.742l4.429 2.568v-1.328l-4.429-2.568zM263.281 137.279l4.429 2.567v-1.239l-4.429-2.568z"/><path fill="#6D7983" d="m275.062 146.5 4.518 2.568v-1.328l-4.518-2.568zM269.215 143.043l4.429 2.568v-1.24l-4.429-2.656z"/><path fill="#3399B0" d="m263.281 139.676 4.429 2.567v-1.328l-4.429-2.567z"/><path fill="#6D7983" d="m275.062 148.797 4.518 2.568v-1.329l-4.518-2.567zM269.215 145.345l4.429 2.568v-1.24l-4.429-2.568zM263.281 141.98l4.429 2.568v-1.328l-4.429-2.568z"/><path fill="#F15A24" d="m275.062 151.099 4.518 2.568v-1.24l-4.518-2.568zM269.215 147.742l4.429 2.568v-1.328l-4.429-2.568z"/><path fill="#fff" d="m263.281 144.283 4.429 2.567v-1.239l-4.429-2.568z"/><path fill="#F15A24" d="m275.062 153.411 4.518 2.568v-1.239l-4.518-2.568z"/><path fill="#3399B0" d="m269.215 150.039 4.429 2.568v-1.328l-4.429-2.568z"/><path fill="#F15A24" d="m263.281 146.664 4.429 2.568v-1.328l-4.429-2.568z"/><path fill="#3399B0" d="m275.062 155.797 4.518 2.568v-1.329l-4.518-2.567z"/><path fill="#6D7983" d="m269.215 152.349 4.429 2.568v-1.24l-4.429-2.568zM263.281 148.977l4.429 2.567v-1.328l-4.429-2.568z"/><path fill="#F15A24" d="m275.062 158.09 4.518 2.568v-1.329l-4.518-2.567zM269.215 154.73l4.429 2.568v-1.328l-4.429-2.568zM263.281 151.277l4.429 2.568v-1.328l-4.429-2.568z"/><path fill="#fff" d="M149.266 48.484 15.152 125.87v-8.5l134.114-77.386z"/><path fill="#97B9CF" d="M197.27 257.35c-.886.532-.886 1.328 0 1.86l71.131 41.349c.975.531 2.481.531 3.455 0l47.215-27.271c.885-.531.885-1.328 0-1.86l-18.514-10.89c-.886-.531-2.392-.531-3.278 0l-14.704 8.5c-.975.531-2.569.531-3.544 0l-49.163-28.511c-.886-.531-2.392-.531-3.277 0z" opacity=".5"/><path fill="gray" d="m228.558 240.365 2.48 1.417c-.443-.266-.974-.177-1.683.177l-2.48-1.417c.62-.354 1.24-.442 1.683-.177"/><path fill="gray" d="m217.475 248.858-2.569-1.505 11.959-6.818 2.48 1.417z"/><path fill="#333" d="m202.687 261.154-2.48-1.506v-1.062l2.48 1.417z"/><path fill="gray" d="m205.085 256.033-2.569-1.506 10.275-5.843 2.48 1.416z"/><path fill="gray" d="m202.687 260.017-2.48-1.417c0-1.505 1.063-3.276 2.303-4.073l2.48 1.417c-1.24.797-2.303 2.568-2.303 4.073"/><path fill="#666" d="m215.276 250.095-2.48-1.417-.089-21.338 2.48 1.505z"/><path fill="#333" d="m215.187 228.846-2.48-1.505 2.215-1.239 2.48 1.416z"/><path fill="#333" d="m217.396 227.523.089 21.339 11.87-6.906c1.328-.709 2.303-.177 2.303 1.328v1.062l-28.967 16.735v-1.063c0-1.505 1.063-3.276 2.304-4.073l10.187-5.932-.089-21.339z"/><path fill="gray" d="m311.468 265.683 2.481 1.416c-.443-.265-.975-.177-1.684.177l-2.48-1.416c.62-.354 1.24-.354 1.683-.177M280.898 285.427l-2.48-1.417 31.358-18.151 2.48 1.506z"/><path fill="#333" d="m266.194 297.728-2.569-1.417v-1.151l2.569 1.505z"/><path fill="gray" d="m268.5 292.603-2.48-1.417 10.187-5.932 2.48 1.505z"/><path fill="gray" d="m266.207 296.665-2.48-1.416c0-1.506 1.063-3.276 2.303-4.073l2.48 1.416c-1.329.797-2.392 2.568-2.303 4.073"/><path fill="#666" d="m278.694 286.759-2.48-1.505-.089-21.25 2.48 1.417z"/><path fill="#333" d="m278.605 265.413-2.48-1.417 2.215-1.328 2.48 1.505z"/><path fill="#333" d="m280.814 264.18.089 21.338 31.358-18.151c1.329-.708 2.303-.177 2.303 1.328v1.063l-48.455 27.979v-1.063c0-1.505 1.063-3.276 2.304-4.072l10.186-5.933-.088-21.338z"/><path fill="#666" d="m215.621 241.328 1.417-.797 61.122 35.151-1.417.797z"/><path fill="#333" d="M215.621 242.849 276.743 278v-1.505l-61.122-35.151z"/><path fill="gray" d="m271.414 290.921-2.48-1.417 7.263-4.25 2.481 1.505z"/><path fill="#666" d="m278.678 286.759-2.48-1.505-.089-41.969 2.481 1.417z"/><path fill="#333" d="m278.59 244.71-2.481-1.417 2.215-1.328 2.48 1.505zM280.804 243.473l.089 41.968-2.215 1.329-.088-42.058z"/><path fill="#666" d="m296.241 276.663-2.569-1.505v-40.287l2.48 1.505z"/><path fill="#333" d="m296.152 236.37-2.48-1.505 2.214-1.24 2.481 1.417zM298.367 235.043v40.286l-2.126 1.329-.089-40.287z"/><path fill="#D4BFA7" d="M196.663 220.592c-.089-.354.177-.796.62-1.062l29.321-16.823c.885-.531 2.391-.531 3.277 0l49.163 28.51c.975.532 2.569.532 3.544 0l14.704-8.5c.886-.531 2.392-.531 3.278 0l18.514 10.891c.443.266.62.62.62.974v2.391c0 .354-.266.708-.709.974l-47.214 27.27c-.975.532-2.481.532-3.455 0l-71.043-41.437c-.443-.266-.62-.62-.709-.974v-2.391c.089.089.089.089.089.177"/><path fill="#F2E8DF" d="M197.285 219.53c-.885.531-.885 1.328 0 1.859l71.132 41.349c.975.532 2.48.532 3.455 0l47.214-27.271c.886-.531.886-1.328 0-1.859l-18.513-10.891c-.886-.531-2.392-.531-3.278 0l-14.705 8.5c-.974.532-2.569.532-3.543 0l-49.163-28.51c-.886-.531-2.392-.531-3.278 0z"/><path fill="#0E0E14" d="M244.34 243.112c0-.089 0-.266.088-.355l3.809-5.046.266-.266a2 2 0 0 1 1.595-.177l15.59 3.984c.532.177.886.443.886.797v1.86c0 .088 0 .265-.089.354l-3.809 5.047-.265.265a2 2 0 0 1-1.595.177l-15.59-3.984c-.532-.177-.886-.443-.886-.797z"/><path fill="#748597" d="M248.604 237.442c-.088.089-.265.177-.265.266l-3.809 5.047c-.355.442 0 .885.708 1.151l15.591 3.984c.531.177 1.24.089 1.594-.177.089-.088.266-.177.266-.266l3.809-5.046c.354-.443 0-.886-.709-1.151l-15.59-3.985a3.2 3.2 0 0 0-1.595.177"/><path fill="#333942" d="m234.508 207.598.088 26.208 43.051 10.979-.088-26.208zM277.566 218.573l.089 26.208.886-1.151-.089-26.208z"/><path fill="#748597" d="m235.394 206.441-.886 1.151 43.051 10.98.886-1.151z"/><path fill="#748597" d="m235.394 206.441-.886 1.151 43.051 10.98.886-1.151z"/><path fill="#4D5865" d="M244.309 218.051v14.609l23.917 6.021V224.16z"/><path fill="#333942" d="M268.23 224.167v14.52l.443-.619v-14.521z"/><path fill="#748597" d="m244.752 217.438-.443.619 23.917 6.11.443-.62z"/><path fill="#748597" d="m244.752 217.438-.443.619 23.917 6.11.443-.62zM252.535 231.344v11.333l5.847 1.417-.089-11.245z"/><path fill="#4D5865" d="M252.535 231.344v11.333l5.847 1.417-.089-11.245z"/><path fill="#0E0E14" d="m258.301 232.846.088 11.245 1.152-1.505-.354-10.891z"/><path fill="#6F819A" d="m253.332 230.285-.797 1.063 5.758 1.505.886-1.151z"/><path fill="#AD3814" d="m210.837 216.447 1.772-1.771h1.328c2.569-.886 5.758-.886 8.327 0h1.329l1.772 1.771c1.771 1.859 1.328 4.161-1.329 5.755-3.278 1.859-8.504 1.859-11.693 0-2.835-1.594-3.278-3.896-1.506-5.755"/><path fill="#FF7847" d="M218.102 220.081c3.473 0 6.289-1.626 6.289-3.63s-2.816-3.631-6.289-3.631c-3.474 0-6.29 1.626-6.29 3.631s2.816 3.63 6.29 3.63"/><path fill="#1A1A1A" d="M213.668 215.663c0 .62 1.329.62 1.417 0v-8.058c0-1.416.443-2.744 1.152-3.895l5.935-9.032-.886-.619-5.935 9.031a7.87 7.87 0 0 0-1.329 4.427z"/><path fill="#4D4D4D" d="m232.532 198.658-6.378-5.844c-.088-.089-.443-.089-.886.177-.088 0-.177.088-.177.088l-1.949-1.77c-.088-.089-.088-.089-.265 0-.355.088-.709.177-1.063.177-.089 0-.178.088-.266.088-.532.266-1.329 1.063-1.683 1.683-.177.265-.266.442-.266.619s0 .354-.089.532c0 .177 0 .354-.088.442v.089c0 .088 0 .177.088.265l1.949 1.86c-.265.531-.265.797-.088.974l6.378 5.844c.088.088.443.088.885-.178 1.063-.619 2.569-2.125 3.455-3.453.532-.885.62-1.416.443-1.593"/><path fill="#AD3814" d="M232.095 200.177c-.798 1.328-2.392 2.833-3.455 3.453-.443.266-.709.266-.886.177l-3.455-3.187-1.151-1.063-1.683-1.593c.088.088.443.088.797-.178.177-.088.266-.177.443-.265.974-.708 2.215-2.037 3.012-3.188.531-.797.62-1.328.443-1.505l.177.177 1.151 1.063 4.961 4.604c.266.177.177.708-.354 1.505"/><path fill="#F15A24" d="M225.358 192.999c1.063-.62 1.24 0 .354 1.328-.797 1.329-2.392 2.834-3.455 3.454-1.063.619-1.24 0-.354-1.329.797-1.328 2.392-2.921 3.455-3.453"/><path fill="#FF7847" d="M221.627 191.579c.531-.265.62 0 .177.62s-1.152 1.417-1.683 1.682c-.532.266-.62 0-.177-.708.443-.531 1.151-1.328 1.683-1.594"/><path fill="#AD3814" d="m223.133 191.305 2.215 2.036c.177.177 0 .531-.355 1.151-.62.974-1.771 2.125-2.569 2.568-.354.177-.531.177-.62.088l-2.214-2.036c.088.089.354.089.62-.089.797-.442 1.949-1.593 2.569-2.567.443-.62.531-1.063.354-1.151"/><path fill="#F15A24" d="M221.893 191.485c.354-.088.709-.177 1.063-.177.443-.088.443.354-.089 1.151-.62.974-1.771 2.125-2.569 2.568-.531.265-.708.177-.708-.089v-.088c0-.177 0-.354.088-.443 0-.177 0-.354.089-.531 0 .177.089.265.443.088.531-.265 1.329-1.062 1.683-1.682q.399-.93 0-.797M223.156 197.327l5.935 5.666c.443-.265.709-.531 1.063-.973l-5.935-5.579c-.354.355-.708.62-1.063.886"/><path fill="#C7B299" d="m301.828 244.346-14.173-8.323h-.089l14.262 8.235z"/><path fill="#AD3814" d="m301.996 243.9-14.262-8.235 10.896-6.286 14.262 8.234z"/><path fill="#FF7847" d="m301.895 241.156-14.262-8.323 10.984-6.286 14.262 8.234z"/><path fill="#FF7847" d="m301.813 241.155-14.173-8.323v.089a3.9 3.9 0 0 0-.532 1.416c-.088.709.089 1.328.532 1.683l14.261 8.234c-.354-.354-.62-.974-.531-1.682 0-.532.177-.974.443-1.417"/><path fill="#fff" d="M289.232 236.473c-.266-.266-.443-.709-.354-1.328 0-.355.177-.709.266-.974l-1.418-.886c-.177.266-.265.62-.265.974-.089.531.088 1.063.354 1.328z"/><path fill="#AD3814" d="M301.551 242.492c-.088.354 0 .709.089.974.088.177.177.354.265.443l10.896-6.287v.355l-10.984 6.375h-.089c-.177-.178-.354-.355-.443-.62-.088-.266-.177-.709-.088-1.063 0-.088 0-.177.088-.265.089-.443.266-.797.532-1.151v-.089l.443-.266 9.567-5.578.974-.531v.354l-.974.531-9.301 5.402-.621.354c-.088.265-.265.619-.354 1.062"/><path fill="#FBFFF2" d="m311.732 235.754-9.212 5.312v1.948l9.212-5.312z"/><path fill="#F2E8DF" d="M302.517 241.07v1.948l-.974-.531c.089-.354.177-.708.354-1.063z"/><path fill="#fff" d="m302.704 230.977-6.732 3.807-3.632-2.125 6.644-3.807z"/><path fill="#C7B299" d="m301.18 240.717-14.173-8.322h-.089l14.262 8.234z"/><path fill="#34424B" d="m301.371 240.263-14.262-8.234 10.896-6.287 14.262 8.235z"/><path fill="#333" d="m301.285 237.535-14.262-8.323 10.985-6.286 14.261 8.234zM301.188 237.538l-14.173-8.323v.088a3.9 3.9 0 0 0-.532 1.417c-.088.708.089 1.328.532 1.682l14.261 8.235c-.354-.354-.62-.974-.531-1.683 0-.442.177-.974.443-1.416"/><path fill="#F2E8DF" d="M288.607 232.934c-.266-.266-.443-.709-.354-1.329 0-.354.177-.708.266-.973l-1.418-.886c-.177.266-.265.62-.265.974-.089.531.088 1.063.354 1.328zM298.618 238.5a3.2 3.2 0 0 1-.177-.974c0-.177.089-.354.089-.531l-7.441-4.339c-.089.177-.089.354-.089.532 0 .354 0 .708.177.973z"/><path fill="gray" d="M300.922 238.855c-.088.355 0 .709.089.974.088.178.177.355.266.443l10.895-6.286v.354l-10.984 6.375h-.089c-.177-.177-.354-.354-.442-.62s-.178-.708-.089-1.062c0-.089 0-.178.089-.266a2.7 2.7 0 0 1 .531-1.151v-.089l.443-.265 9.567-5.578.974-.532v.355l-.974.531-9.301 5.401-.62.354c-.089.266-.266.62-.355 1.062"/><path fill="#F2E8DF" d="m311.107 232.125-9.212 5.313v1.947l9.212-5.312zM301.892 237.441v1.948l-.974-.531c.089-.354.177-.708.354-1.062z"/><path fill="#97B9CF" d="m225.895 321.456-76.181-43.917c-.974-.531-2.48-.531-3.454 0l-30.739 17.974c-.974.531-.974 1.417 0 2.036l22.412 12.928c-6.29-1.063-13.376-.089-18.337 2.744-7.264 4.25-7.264 11.068 0 15.23 7.264 4.25 19.134 4.25 26.398 0 4.96-2.834 6.555-6.907 4.695-10.625l17.362 10.005c1.063.62 1.063 1.593 0 2.213l-20.994 12.219c-.975.531-.975 1.417 0 2.036l20.019 11.422c.975.532 2.481.532 3.455 0l55.276-32.14c1.062-.62 1.063-1.594.088-2.125" opacity=".5"/><path fill="gray" d="m153.522 277.791 2.569 1.505c-.443-.266-1.063-.177-1.772.177l-2.569-1.505c.709-.443 1.329-.443 1.772-.177"/><path fill="gray" d="m141.993 286.665-2.657-1.505 12.401-7.172 2.658 1.505z"/><path fill="#333" d="m124.197 300.812-2.569-1.505-.089-1.151 2.658 1.505z"/><path fill="gray" d="m126.588 295.5-2.568-1.505 13.021-7.526 2.658 1.505z"/><path fill="gray" d="m124.202 299.665-2.569-1.505c0-1.505 1.063-3.453 2.392-4.25l2.568 1.505c-1.328.886-2.391 2.745-2.391 4.25"/><path fill="#666" d="m139.697 287.979-2.658-1.505V264.25l2.569 1.505z"/><path fill="#333" d="m139.608 265.751-2.569-1.505 2.303-1.328 2.569 1.505z"/><path fill="#333" d="m141.908 264.43.088 22.224 12.402-7.172c1.329-.797 2.48-.177 2.48 1.416v1.151l-32.687 18.771v-1.151c0-1.505 1.063-3.453 2.392-4.25l13.022-7.526-.089-22.224z"/><path fill="#666" d="m140.055 278.866 1.506-.886 63.779 36.657-1.506.885z"/><path fill="#333" d="m140.055 280.376 63.779 36.657v-1.506l-63.779-36.656z"/><path fill="gray" d="m219.787 315.98 2.569 1.505c-.443-.266-1.063-.177-1.771.177l-2.569-1.505c.708-.354 1.328-.354 1.771-.177"/><path fill="gray" d="m208.178 324.829-2.569-1.505 12.402-7.172 2.657 1.594z"/><path fill="#333" d="m175.135 347.948-2.569-1.594v-1.151l2.569 1.594z"/><path fill="gray" d="m177.622 342.534-2.657-1.505 28.346-16.381 2.569 1.506zM175.135 346.798l-2.569-1.505c0-1.505 1.063-3.453 2.392-4.25l2.569 1.505c-1.329.797-2.392 2.656-2.392 4.25"/><path fill="#666" d="m205.884 326.163-2.569-1.505-.088-34.709 2.657 1.505z"/><path fill="#333" d="m205.884 291.454-2.657-1.505 2.303-1.328 2.657 1.505z"/><path fill="#333" d="m208.175 290.121.089 34.797 12.401-7.172c1.329-.797 2.481-.177 2.481 1.417v1.151l-47.923 27.625v-1.151c0-1.505 1.063-3.453 2.391-4.25l28.347-16.38-.089-34.797z"/><path fill="#666" d="m187.293 336.939-2.658-1.505-.088-34.797 2.657 1.505z"/><path fill="#333" d="m187.204 302.13-2.657-1.505 2.303-1.328 2.657 1.505z"/><path fill="#333" d="m189.502 300.801.089 34.797-2.303 1.328-.089-34.797z"/><path fill="#D4BFA7" d="M226.592 284.266c.088-.443-.177-.886-.709-1.24l-76.181-43.917c-.974-.531-2.48-.531-3.454 0l-30.739 17.974c-.442.266-.708.62-.708.974v2.568c0 .354.266.708.708.974l52.264 30.193-20.728 12.041c-.443.266-.709.62-.709.974v2.568c0 .354.266.708.709.974l20.019 11.422c.975.531 2.481.531 3.455 0l55.276-32.141c.531-.265.708-.708.708-1.062V284c.089.177.089.266.089.266"/><path fill="#F2E8DF" d="M225.882 283.025c1.063.62 1.063 1.505 0 2.125l-55.276 32.14c-.974.532-2.48.532-3.454 0l-20.02-11.422c-.974-.531-.974-1.416 0-2.036l20.994-12.219c1.063-.62 1.063-1.593 0-2.213l-52.618-30.37c-.974-.531-.974-1.417 0-2.037l30.738-17.973c.975-.532 2.481-.532 3.455 0z"/><path fill="#141C26" d="m139.441 260.72 25.069 14.521 15.856-9.208v-.886l-25.068-13.635-15.857 8.323z"/><path fill="#ADC1D9" d="m139.441 259.833 25.069 14.521 15.856-9.208-25.068-14.521z"/><path fill="#3B5E7D" d="m176.653 264.346-19.931-11.51-9.124 5.224 19.931 11.599z"/><path fill="#141C26" d="m176.195 264.346-1.506-.885-1.24.62 1.595.974zM174.426 263.284l-1.595-.886-1.151.709 1.594.885zM172.66 262.217l-1.594-.885-1.152.708 1.506.886zM170.794 261.253l-1.506-.886-1.151.62 1.506.885zM169.023 260.186l-1.506-.885-1.24.708 1.595.886zM167.262 259.12l-1.595-.886-1.151.709 1.506.885zM165.484 258.151l-1.594-.885-1.152.619 1.506.886zM163.626 257.085l-1.506-.886-1.151.709 1.506.885zM161.855 256.03l-1.505-.885-1.241.708 1.595.885zM160.078 255.049l-1.594-.885-1.152.62 1.506.885zM158.224 253.987l-1.506-.885-1.152.708 1.506.885zM174.072 265.581l-1.506-.886-1.152.62 1.506.886zM172.301 264.514l-1.506-.885-1.24.708 1.594.886zM170.535 263.464l-1.594-.886-1.152.708 1.506.886zM168.677 262.486l-1.506-.974-1.151.708 1.505.885zM166.896 261.424l-1.506-.885-1.152.62 1.506.974zM165.121 260.362l-1.506-.885-1.24.708 1.594.885zM163.359 259.296l-1.594-.886-1.152.708 1.506.886zM161.497 258.327l-1.506-.886-1.151.62 1.506.886zM159.73 257.264l-1.505-.885-1.241.708 1.595.886zM157.953 256.194l-1.506-.885-1.24.708 1.595.885zM156.18 255.229l-1.595-.885-1.151.62 1.505.885zM172.75 266.288l-1.506-.886-1.24.709 1.594.885zM170.98 265.327l-1.594-.886-1.152.62 1.506.886zM169.115 264.26l-1.506-.885-1.152.708 1.506.886zM167.337 263.194l-1.506-.885-1.151.708 1.506.885zM165.566 262.217l-1.506-.885-1.24.62 1.595.885zM163.801 261.159l-1.595-.886-1.151.709 1.506.885zM161.943 260.089l-1.506-.886-1.152.708 1.506.886zM160.169 259.13l-1.506-.974-1.151.709 1.506.885zM158.394 258.061l-1.505-.885-1.241.62 1.595.974zM156.617 256.999l-1.594-.886-1.152.709 1.506.885zM171.414 267.089l-1.594-.886-1.152.708 1.506.886zM169.652 266.118l-1.594-.973-1.152.708 1.506.885zM167.79 265.061l-1.506-.885-1.151.62 1.506.885zM166.019 263.991l-1.505-.886-1.241.709 1.595.885zM164.242 262.936l-1.594-.885-1.152.708 1.506.886zM162.384 261.967l-1.506-.885-1.151.62 1.505.885zM160.615 260.893l-1.506-.885-1.152.708 1.506.886zM158.836 259.823l-1.506-.885-1.24.708 1.594.885zM157.074 258.858l-1.594-.885-1.152.619 1.506.886z"/><path fill="#141C26" d="m154.76 255.932-1.329.797 1.772 1.063-1.152.708-1.772-1.062-.443-.266-1.063-.62.975-.62.177-.088 1.329-.797zM167.781 266.561l.443.266 1.86 1.062-1.24.709-1.772-1.063-.443-.265-1.063-.62 1.152-.709zM166.453 265.854l-1.506-.885-1.24.62 1.595.885zM164.687 264.792l-1.594-.886-1.152.709 1.506.885zM162.914 263.725l-1.594-.885-1.152.708 1.506.886zM161.052 262.759l-1.506-.974-1.151.709 1.505.885zM159.281 261.686l-1.506-.885-1.24.62 1.595.885zM157.508 260.624l-1.595-.886-1.151.709 1.506.885zM155.654 259.569l-1.506-.885-1.152.708 1.506.885zM152.375 257.703l.266.089 1.24.797-1.152.619-1.24-.708-.265-.177-1.861-.974 1.24-.708zM168.677 268.686l-1.506-.885-1.151.62 1.505.885zM166.898 267.616l-1.505-.886-1.241.709 1.595.885zM165.121 266.561l-1.594-.885-1.152.708 1.594.886zM155.382 260.982l.798.442.177.178 1.594.885.266.089 1.506.885.266.177 1.506.885 1.86 1.063-1.24.62-1.772-.974-1.506-.886-.266-.177-1.594-.885-.266-.177-1.506-.886-.266-.088-.708-.443-.797-.443 1.151-.708zM154.322 260.362l-1.506-.885-1.152.708 1.506.885zM152.547 259.384l-1.506-.974-1.24.708 1.594.886zM150.777 258.327l-1.594-.886-1.152.62 1.506.974z"/><path fill="#fff" d="m176.195 264.167-1.506-.886-1.24.709 1.595.885z"/><path fill="#96AAC3" d="m174.426 263.104-1.595-.885-1.151.708 1.594.886zM172.66 262.038l-1.594-.886-1.152.709 1.506.885zM170.794 261.073l-1.506-.885-1.151.619 1.506.886zM169.023 260.007l-1.506-.886-1.24.708 1.595.886zM167.262 258.94l-1.595-.885-1.151.708 1.506.885zM165.484 257.971l-1.594-.885-1.152.62 1.506.885zM163.626 256.905l-1.506-.885-1.151.708 1.506.885zM161.855 255.85l-1.505-.885-1.241.708 1.595.886zM160.078 254.87l-1.594-.886-1.152.62 1.506.886zM158.224 253.807l-1.506-.885-1.152.708 1.506.886zM174.072 265.401l-1.506-.885-1.152.619 1.506.886zM172.301 264.335l-1.506-.886-1.24.709 1.594.885zM170.535 263.284l-1.594-.886-1.152.709 1.506.885zM168.677 262.307l-1.506-.885-1.151.62 1.505.885zM166.896 261.245l-1.506-.886-1.152.62 1.506.974zM165.121 260.182l-1.506-.885-1.24.708 1.594.886zM163.359 259.116l-1.594-.886-1.152.709 1.506.885zM161.497 258.147l-1.506-.885-1.151.62 1.506.885zM159.73 257.085l-1.505-.886-1.241.709 1.595.885zM157.953 256.014l-1.506-.885-1.24.708 1.595.886zM156.18 255.049l-1.595-.885-1.151.62 1.505.885zM172.75 266.108l-1.506-.885-1.24.708 1.594.885zM170.98 265.147l-1.594-.885-1.152.619 1.506.886zM169.115 264.081l-1.506-.886-1.152.709 1.506.885zM167.337 263.014l-1.506-.885-1.151.708 1.506.886zM165.566 262.038l-1.506-.886-1.24.62 1.595.886zM163.801 260.979l-1.595-.885-1.151.708 1.506.885zM161.943 259.909l-1.506-.886-1.152.709 1.506.885zM160.169 258.94l-1.506-.885-1.151.619 1.506.886zM158.394 257.882l-1.505-.886-1.241.62 1.595.974zM156.617 256.819l-1.594-.885-1.152.708 1.506.885zM171.414 266.909l-1.594-.886-1.152.709 1.506.885zM169.652 265.939l-1.594-.974-1.152.708 1.506.886zM167.79 264.882l-1.506-.886-1.151.62 1.506.974zM166.019 263.811l-1.505-.885-1.241.708 1.595.886zM164.242 262.757l-1.594-.886-1.152.708 1.506.886zM162.384 261.788l-1.506-.886-1.151.62 1.505.886zM160.615 260.714l-1.506-.886-1.152.708 1.506.886zM158.836 259.643l-1.506-.885-1.24.708 1.594.886zM157.074 258.678l-1.594-.885-1.152.62 1.506.885z"/><path fill="#fff" d="m154.76 255.753-1.329.796 1.772 1.063-1.152.708-1.772-1.062-.443-.266-1.063-.62.975-.619.177-.089 1.329-.797zM167.781 266.382l.443.265 1.86 1.063-1.24.708-1.772-1.063-.443-.265-1.063-.62 1.152-.708z"/><path fill="#96AAC3" d="m166.453 265.674-1.506-.885-1.24.62 1.595.885zM164.687 264.612l-1.594-.885-1.152.708 1.506.885zM162.914 263.546l-1.594-.886-1.152.709 1.506.885zM161.052 262.579l-1.506-.974-1.151.709 1.505.885zM159.281 261.507l-1.506-.886-1.24.62 1.595.974zM157.508 260.444l-1.595-.885-1.151.708 1.506.885zM155.654 259.389l-1.506-.885-1.152.708 1.506.886z"/><path fill="#fff" d="m152.375 257.523.266.089 1.24.797-1.152.62-1.24-.709-.265-.177-1.861-.974 1.24-.708zM168.677 268.507l-1.506-.886-1.151.62 1.505.885z"/><path fill="#96AAC3" d="m166.898 267.436-1.505-.885-1.241.708 1.595.886zM165.121 266.382l-1.594-.886-1.152.708 1.594.886z"/><path fill="#fff" d="m155.382 260.802.798.443.177.177 1.594.885.266.089 1.506.885.266.177 1.506.886 1.86 1.062-1.24.62-1.772-.974-1.506-.885-.266-.177-1.594-.886-.266-.177-1.506-.885-.266-.089-.708-.443-.797-.442 1.151-.709z"/><path fill="#96AAC3" d="m154.322 260.182-1.506-.885-1.152.708 1.506.886zM152.547 259.21l-1.506-.886-1.24.62 1.594.885z"/><path fill="#fff" d="m150.777 258.147-1.594-.885-1.152.62 1.506.973z"/><path fill="#141C26" d="m156 250.443 24.36 14.698.709-.177 4.872-17.974-25.158-14.521-.708.265z"/><path fill="#96AAC3" d="m155.297 250.624 25.069 14.521 4.872-17.974-25.158-14.433z"/><path fill="#fff" d="m156.18 250.263 23.74 13.724.088-.266 4.341-16.203-23.474-13.547-.355-.088z"/><path fill="#3B5E7D" d="m156.543 250.184 23.474 13.546 4.341-16.203-11.693-6.64-11.782-6.907zM149.977 264.348l5.935 3.453 3.72-2.125-5.935-3.453z"/><path fill="#fff" d="m184.086 247.698-1.417 5.224-1.86-7.172zM177.432 243.805l3.986 13.989-.797 2.745-4.961-17.797zM160.255 236.891l5.58 18.416-4.872-2.744-2.568-8.678zM164.768 236.538l6.378 21.87-1.595-.886-6.289-21.87zM174.686 242.199l5.581 19.922-.443 1.328-4.96-2.922-6.29-21.781z" opacity=".3"/><path fill="#C7B299" d="m200.906 294.349 14.882-8.677-14.882 8.588z"/><path fill="#AD3814" d="m200.741 293.901 14.882-8.677-11.339-6.552-14.882 8.677z"/><path fill="#FF7847" d="m200.918 290.987 14.882-8.589-11.516-6.64-14.882 8.588z"/><path fill="#FF7847" d="m200.905 291.079 14.793-8.677v.089c.266.443.532.974.532 1.505.088.708-.089 1.417-.532 1.771l-14.882 8.588c.443-.354.62-.973.532-1.77.088-.62-.089-1.063-.443-1.506"/><path fill="#fff" d="M214.027 286.199c.266-.265.443-.797.355-1.328 0-.354-.177-.708-.355-.974l1.506-.885c.177.265.266.62.355.974.088.619-.089 1.062-.355 1.328z"/><path fill="#AD3814" d="M201.177 292.406c.089.354 0 .709-.088 1.063-.089.177-.178.354-.266.442l-11.339-6.552v.355l11.516 6.64h.089c.177-.177.354-.354.443-.62.088-.354.177-.708.088-1.062 0-.089 0-.177-.088-.354a2.74 2.74 0 0 0-.532-1.151v-.089l-.443-.265-10.01-5.756-1.063-.619v.354l1.063.619 9.744 5.579.62.354c.089.265.266.62.266 1.062"/><path fill="#FBFFF2" d="m190.637 285.398 9.567 5.49v2.036l-9.567-5.489z"/><path fill="#F2E8DF" d="M200.203 290.906v2.037l.975-.62c-.089-.354-.178-.797-.355-1.063z"/><path fill="#fff" d="m200.023 280.362 6.998 3.984 3.809-2.213-6.909-3.985z"/><path fill="#FBFFF2" d="m190.621 285.052 10.01 5.755 12.667-7.349-10.01-5.755z"/><path fill="#F2E8DF" d="m190.621 284.701 10.01 5.755 12.667-7.349-10.01-5.755z"/><path fill="#FBFFF2" d="m190.621 284.353 10.01 5.755 12.667-7.349-10.01-5.755z"/><path fill="#F2E8DF" d="m190.621 283.993 10.01 5.756 12.667-7.349-10.01-5.755z"/><path fill="#FBFFF2" d="m190.621 283.642 10.01 5.755 12.667-7.349-10.01-5.755z"/><path fill="#F2E8DF" d="m190.621 283.286 10.01 5.756 12.667-7.349-10.01-5.755z"/><path fill="#FBFFF2" d="m190.621 282.927 10.01 5.755 12.667-7.349-10.01-5.755z"/><path fill="#F2E8DF" d="m190.621 282.579 10.01 5.756 12.667-7.349-10.01-5.756z"/><path fill="#FBFFF2" d="m190.621 282.221 10.01 5.756 12.667-7.261-10.01-5.755z"/><path fill="#FBFFF2" d="m216.846 278.678-7.707 5.49-13.553-5.401 7.618-5.49z"/><path fill="#F2E8DF" d="m212.595 281.964-9.035 7.171-13.642-5.489 9.124-7.084z"/><path fill="#F2E8DF" d="m215.607 282.49-10.01 5.755-12.667-7.349 10.01-5.755z"/><path fill="#FBFFF2" d="m215.607 280.371-8.947 7.261-13.73-5.313 8.947-7.26z"/><path fill="#F2E8DF" d="m215.607 281.783-10.01 5.755-12.667-7.349 10.01-5.755z"/><path fill="#FBFFF2" d="m215.607 281.435-10.01 5.755-12.667-7.349 10.01-5.755z"/><path fill="#F2E8DF" d="m215.607 281.079-10.01 5.756-12.667-7.349 10.01-5.756z"/><path fill="#FBFFF2" d="m215.607 280.72-10.01 5.755-12.667-7.349 10.01-5.755z"/><path fill="#F2E8DF" d="m215.519 281.076-10.275 5.135-12.224-8.057 10.275-5.224z"/><path fill="#FBFFF2" d="m215.607 280.013-10.01 5.755-12.667-7.349 10.01-5.755z"/><path fill="#F2E8DF" d="m215.607 279.661-10.01 5.756-12.667-7.349 10.01-5.756z"/><path fill="#FBFFF2" d="m215.607 279.306-10.01 5.755-12.667-7.349 10.01-5.755z"/><path fill="#F2E8DF" d="m215.607 278.947-10.01 5.755-12.667-7.349 10.01-5.755z"/><path fill="#FBFFF2" d="m215.607 278.595-10.01 5.755-12.667-7.349 10.01-5.755z"/><path fill="#F2E8DF" d="m215.607 278.243-10.01 5.756-12.667-7.349 10.01-5.755z"/><path fill="#FBFFF2" d="m215.607 276.298-9.124 7.083-13.553-5.489 9.124-7.083z"/><path fill="#F2E8DF" d="m215.607 277.533-10.01 5.755-12.667-7.349 10.01-5.755z"/><path fill="#FBFFF2" d="m215.607 277.181-10.01 5.755-12.667-7.349 10.01-5.755z"/><path fill="#C7B299" d="m203.831 284.087-14.882-8.588v-.089l14.793 8.677z"/><path fill="#34424B" d="m203.914 283.621-14.793-8.588 11.339-6.553 14.881 8.589z"/><path fill="#333" d="m203.831 280.796-14.882-8.678 11.516-6.552 14.793 8.589z"/><path fill="#333" d="m203.827 280.794-14.793-8.677v.089c-.266.442-.531.974-.531 1.505-.089.708.088 1.417.531 1.771l14.882 8.588c-.443-.354-.62-.974-.532-1.771-.088-.531.089-1.062.443-1.505"/><path fill="#F2E8DF" d="M190.633 275.934c-.265-.266-.443-.797-.354-1.329 0-.354.177-.708.354-.973l-1.506-.886c-.177.266-.265.62-.354.974-.089.62.089 1.063.354 1.328zM201.082 281.77c-.177-.266-.177-.62-.177-1.063 0-.177.088-.354.088-.531l-7.795-4.516c-.089.177-.089.354-.089.531 0 .443 0 .797.178 1.063z"/><path fill="gray" d="M203.558 282.219c-.089.354 0 .708.088 1.062.089.177.177.354.266.443l11.339-6.552v.354l-11.516 6.641h-.089c-.177-.177-.354-.355-.443-.62-.088-.354-.177-.708-.088-1.063 0-.088 0-.177.088-.354.089-.443.266-.797.532-1.151v-.088l.443-.266 10.01-5.755 1.063-.62v.354l-.975.531-9.744 5.579-.62.354a2.2 2.2 0 0 0-.354 1.151"/><path fill="#F2E8DF" d="m214.102 275.223-9.567 5.489v2.037l9.567-5.578z"/><path fill="#F2E8DF" d="M204.537 280.715v2.036l-.975-.619c.089-.355.178-.797.355-1.063z"/><path fill="#fff" d="m204.617 270.174-6.91 3.985-3.809-2.214 6.91-3.984zM196.921 302.77l-9.656 2.479-7.972-7.703 9.655-2.48z"/><path fill="#C7B299" d="m179.469 304.107 14.882-8.677-14.794 8.677z"/><path fill="gray" d="m179.38 303.668 14.794-8.589-11.339-6.552-14.882 8.589z"/><path fill="#333" d="m179.474 300.741 14.882-8.589-11.516-6.64-14.793 8.677z"/><path fill="#333" d="m179.467 300.826 14.794-8.678v.089c.265.443.531.974.531 1.505.089.709-.088 1.417-.531 1.771l-14.882 8.589c.443-.355.62-.974.531-1.771.089-.532-.088-1.063-.443-1.505"/><path fill="#fff" d="M192.664 295.953c.266-.265.443-.797.354-1.328 0-.354-.177-.708-.354-.974l1.506-.885c.177.265.266.619.354.974.089.619-.088 1.062-.354 1.328zM182.219 301.805c.177-.266.177-.62.177-1.063 0-.177-.089-.354-.089-.531l7.796-4.516c.088.177.088.354.088.532 0 .442 0 .796-.177 1.062z"/><path fill="#34424B" d="M179.74 302.148c.088.355 0 .709-.089 1.063-.088.177-.177.354-.266.443l-11.338-6.552v.354l11.516 6.64h.088c.177-.177.354-.354.443-.619.089-.355.177-.709.089-1.063 0-.088 0-.177-.089-.354a2.75 2.75 0 0 0-.531-1.151v-.089l-.443-.265-10.01-5.756-1.063-.619v.354l1.063.62 9.744 5.578.62.354c.089.266.266.62.266 1.062"/><path fill="#F2E8DF" d="m169.199 295.16 9.567 5.578v1.948l-9.567-5.489z"/><path fill="#F2E8DF" d="M178.758 300.738v2.037l.974-.62c-.088-.354-.177-.797-.354-1.063z"/><path fill="#fff" d="m178.672 290.12 6.909 4.073 3.809-2.214-6.909-4.073z"/><path fill="#AD3814" d="m169.211 291.246 13.73-7.969c.177-.089.355-.089.532.088l-13.731 7.969c-.177-.088-.354-.177-.531-.088M183.473 286.195c-.266-.177-.443-.442-.443-.708v-1.417c0-.177.088-.265.088-.265l-13.73 7.88c-.088.088-.177.177-.177.266v1.505c0 .265.266.708.531.885l10.187 5.844 13.731-7.969z"/><path fill="#AD3814" d="m180.016 300.008 13.73-7.969v.443l-13.73 7.969z"/><path fill="#AD3814" d="M169.389 293.11v.266c0 .266.178.62.443.708l10.187 5.933v.354l-10.187-5.933c-.443-.265-.797-.885-.797-1.328v-1.416c0-.532.354-.709.797-.443l10.187 5.932v.354l-10.187-5.932c-.265-.177-.443 0-.443.266z"/><path fill="#AD3814" d="m180.016 297.272 13.73-8.057v.443l-13.73 7.968z"/><path fill="#FF7847" d="m169.836 291.336 13.642-7.969 10.275 5.844-13.73 8.057z"/><path fill="#F2E8DF" d="m180.003 297.658-9.124-5.224v1.593l9.124 5.313v-2.037z"/><path fill="#FBFFF2" d="m180.003 297.658-9.124-5.224v1.593l9.124 5.313v-2.037z"/><path fill="#FBFFF2" d="M192.579 292.057 180 299.318v-1.683l12.579-7.26z"/><path fill="#F2E8DF" d="m171.672 289.654 10.01 5.755 12.667-7.349-9.921-5.755z"/><path fill="#FBFFF2" d="m171.762 287.535 9.921 7.438 12.579-7.172-8.859-5.578z"/><path fill="#F2E8DF" d="m171.672 288.947 10.01 5.755 12.667-7.349-9.921-5.755z"/><path fill="#FBFFF2" d="m171.672 288.599 10.01 5.755 12.667-7.349-9.921-5.755z"/><path fill="#F2E8DF" d="m171.672 288.243 10.01 5.756 12.667-7.349-9.921-5.755z"/><path fill="#FBFFF2" d="m171.672 287.884 10.01 5.755 12.667-7.349-9.921-5.755z"/><path fill="#F2E8DF" d="m171.762 288.151 9.921 5.224 12.579-7.349-10.276-5.932z"/><path fill="#FBFFF2" d="m172.824 288.859 10.984 4.87 10.542-8.146-9.921-5.755z"/><path fill="#F2E8DF" d="m171.672 286.826 10.01 5.755 12.667-7.349-9.921-5.755z"/><path fill="#FBFFF2" d="m171.672 286.47 10.01 5.755 12.667-7.349-9.921-5.755z"/><path fill="#F2E8DF" d="m171.672 286.111 10.01 5.755 12.667-7.349-9.921-5.755z"/><path fill="#FBFFF2" d="m171.672 285.671 10.01 5.843 12.667-7.349-9.921-5.755z"/><path fill="#F2E8DF" d="m171.672 285.408 10.01 5.755 12.667-7.349-9.921-5.755z"/><path fill="#FBFFF2" d="m172.734 284.259 8.061 6.287 13.553-6.995-9.035-5.578z"/><path fill="#F2E8DF" d="m171.672 284.697 10.01 5.755 12.667-7.349-9.921-5.755z"/><path fill="#FBFFF2" d="m171.672 284.256 10.01 5.844 12.667-7.349-9.921-5.755z"/><path fill="#fff" d="m161.934 290.378 7.175 5.666 10.718-4.338-7.175-5.667z"/><path fill="#333" d="m124.275 308.953 1.329.797c-.266-.178-.62-.089-.974.088l-1.329-.797a1.28 1.28 0 0 1 .974-.088M123.654 313.116l-1.328-.797c-.266-.177-.443-.443-.443-.885 0-.886.62-1.948 1.417-2.391l1.329.797c-.797.443-1.417 1.505-1.417 2.39 0 .443.177.797.442.886"/><path fill="#000" d="M124.64 309.855c.797-.443 1.417-.089 1.417.797 0 .885-.62 1.947-1.417 2.39s-1.417.089-1.417-.797c0-.885.62-1.948 1.417-2.39"/><path fill="#333" d="m149.627 322.793 1.328.796c-.265-.177-.62-.088-.974.089l-1.329-.797c.355-.177.709-.177.975-.088"/><path fill="#333" d="m149.006 326.952-1.329-.797c-.265-.177-.443-.443-.443-.885 0-.886.62-1.948 1.418-2.391l1.328.797c-.797.442-1.417 1.505-1.417 2.39 0 .443.177.797.443.886"/><path fill="#000" d="M149.964 323.683c.797-.443 1.418-.089 1.418.797 0 .885-.621 1.948-1.418 2.39s-1.417.089-1.417-.797c0-.885.62-1.948 1.417-2.39"/><path fill="#333" d="m130.482 328.37 1.329.797c-.266-.177-.62-.089-.974.088l-1.329-.796c.354-.178.708-.266.974-.089"/><path fill="#333" d="m129.861 332.53-1.328-.797c-.266-.177-.443-.443-.443-.885 0-.886.62-1.948 1.417-2.391l1.329.797c-.797.443-1.417 1.505-1.417 2.391 0 .442.177.708.442.885"/><path fill="#000" d="M130.843 329.261c.797-.443 1.417-.089 1.417.797 0 .885-.62 1.948-1.417 2.39s-1.417.089-1.417-.796c0-.886.62-1.948 1.417-2.391"/><path fill="#333" d="m114.607 320.385 1.329.797c-.266-.177-.62-.089-.974.089l-1.329-.797c.354-.266.708-.266.974-.089M113.897 324.553l-1.329-.797c-.266-.177-.443-.442-.443-.885 0-.885.62-1.948 1.417-2.391l1.329.797c-.797.443-1.417 1.506-1.417 2.391.088.354.177.708.443.885"/><path fill="#000" d="M114.882 321.179c.797-.443 1.417-.089 1.417.797 0 .885-.62 1.948-1.417 2.39s-1.417.089-1.417-.796c.088-.886.709-1.948 1.417-2.391"/><path fill="#333" d="m145.556 310.75 1.329.796c-.266-.177-.62-.088-.974.089l-1.329-.797c.443-.177.797-.177.974-.088"/><path fill="#333" d="m144.947 314.897-1.328-.797c-.266-.177-.443-.442-.443-.885 0-.886.62-1.948 1.417-2.391l1.329.797c-.797.443-1.417 1.505-1.417 2.391.088.442.177.708.442.885"/><path fill="#000" d="M145.921 311.64c.797-.443 1.418-.089 1.418.797 0 .885-.621 1.948-1.418 2.39s-1.417.089-1.417-.797c.088-.885.709-1.947 1.417-2.39"/><path fill="#B3B3B3" d="m132.076 314.281-1.772 1.594-1.328 1.24-6.378-7.526c0-.354 0-.62.265-.709.089-.088.178-.088.266-.177l.975-.354c.177-.088.354 0 .531.089z"/><path fill="#666" d="m130.571 316.055-1.506.974-6.377-7.526c0-.354-.001-.62.265-.709.089-.088.266 0 .443.089l6.998 6.906z"/><path fill="#B3B3B3" d="m146.422 311.359-11.25 7.526-.354.178-.266-1.417-.265-1.24-.443-1.859 10.541-4.516q.4-.132.797 0l.798.443c.088 0 .088.089.177.089q.265.133.265.796"/><path fill="#666" d="m146.428 311.355-11.25 7.527-.62-1.24-.62-1.063.265-.177 11.25-5.755c.177-.088.443-.088.532-.088.354.088.443.354.443.796"/><path fill="#666" d="M135.895 319.241v-3.542h-6.555v3.542c0 .443.354.974.974 1.328 1.24.708 3.366.708 4.607 0 .62-.443.974-.885.974-1.328"/><path fill="#B3B3B3" d="M132.617 317.465c1.811 0 3.278-.833 3.278-1.86 0-1.026-1.467-1.859-3.278-1.859s-3.277.833-3.277 1.859 1.467 1.86 3.277 1.86M130.751 318.004l-1.241 10.005c-.088.708-.088 1.505-.088 2.302l1.417.089 2.923-9.651v-2.568c-1.063.266-2.037.266-3.011-.177"/><path fill="#666" d="M130.836 330.4c0-.886.089-1.683.266-2.302l2.657-9.828v2.567z"/><path fill="#B3B3B3" d="M134.652 317.997v2.657l15.148 3.718.62-.708c.089-.885-.443-1.417-1.24-1.771l-13.376-5.401c.088.62-.354 1.151-1.152 1.505"/><path fill="#666" d="M149.795 324.374c0-.797-.443-1.417-1.24-1.771l-13.996-4.693v2.656z"/><path fill="#B3B3B3" d="m113.652 321.727 16.3-1.417v-2.656c-.62-.443-.709-1.063-.62-1.771l-14.617 3.364c-.797.177-1.328.62-1.328 1.506z"/><path fill="#666" d="m129.955 320.301-16.299 1.416c0-.885.532-1.416 1.418-1.505l14.881-2.567z"/><path fill="#333" d="M122.608 306.926c-.265 0-.62 0-.885-.089l.354-2.213c.974.177 2.215-.177 3.543-.886l12.49-7.172 1.063 1.948-12.49 7.172c-1.417.797-2.834 1.24-4.075 1.24"/><path fill="#E6E6E6" d="m131.192 307.023.265-.265c.709-.443 1.861-.443 2.569 0l.266.265h.266v8.5c0 .266-.178.532-.532.709-.708.442-1.86.442-2.569 0-.354-.177-.531-.443-.531-.709v-8.5z"/><path fill="#4D4D4D" d="M132.702 306.569c1.418 0 2.569-.674 2.569-1.505 0-.832-1.151-1.505-2.569-1.505-1.419 0-2.569.673-2.569 1.505s1.15 1.505 2.569 1.505"/><path fill="#333" d="M129.423 296.659c.355-.354.975-.708 1.772-.886.974-.265 2.037-.265 3.1 0 .798.178 1.329.532 1.772.886h.443v9.12c0 .797-.709 1.505-2.126 1.948a5.2 5.2 0 0 1-3.278 0c-1.417-.443-2.126-1.151-2.126-1.948v-9.12z"/><path fill="#4D4D4D" d="M131.106 294.621c-2.834.797-2.834 3.099 0 3.896a5.2 5.2 0 0 0 3.278 0c2.835-.797 2.835-3.099 0-3.896a6.8 6.8 0 0 0-3.278 0"/><path fill="#34424B" d="M146.504 297.457v-3.896h-1.772c-.62-.62-1.329-1.151-2.303-1.682-5.404-3.099-14.173-3.099-19.577 0-.886.531-1.683 1.062-2.303 1.682h-1.772v3.896c0 2.037 1.329 4.073 4.075 5.667 5.404 3.099 14.173 3.099 19.577 0 2.746-1.594 4.075-3.63 4.075-5.667"/><path fill="#34424B" d="M132.686 301.523c7.632 0 13.819-3.567 13.819-7.968s-6.187-7.969-13.819-7.969-13.819 3.568-13.819 7.969 6.187 7.968 13.819 7.968"/><path fill="#B3B3B3" d="M142.444 301.354c-5.403 3.099-14.173 3.099-19.576 0-2.658-1.594-4.075-3.63-4.075-5.666v1.682c0 2.036 1.329 4.073 4.075 5.666 5.403 3.099 14.173 3.099 19.576 0 2.658-1.593 4.075-3.63 4.075-5.666v-1.682c0 2.125-1.328 4.161-4.075 5.666M126.412 285.23l-6.201-4.869-6.732-3.099-.975.62c-.62.354-1.063 1.151-1.063 2.302v1.77c0 2.303 1.595 5.136 3.632 6.287l8.504 4.958c.975.62 1.949.62 2.569.266l.797-.443.709-2.745z"/><path fill="#34424B" d="m120.21 280.364 6.201 4.87 1.24 4.87-.709 2.745 2.038-1.151c.62-.355 1.063-1.151 1.063-2.302v-1.771c0-2.302-1.595-5.136-3.632-6.287l-8.504-4.958c-.974-.62-1.949-.62-2.569-.266l-1.772 1.063z"/><path fill="#34424B" d="M124.554 282.408c2.037 1.151 3.632 3.984 3.632 6.286v1.771c0 2.302-1.683 3.276-3.632 2.125l-8.504-4.958c-2.038-1.151-3.632-3.985-3.632-6.287v-1.771c0-2.302 1.683-3.276 3.632-2.036z"/><path fill="#B3B3B3" d="M124.554 282.408c2.037 1.151 3.632 3.984 3.632 6.286v1.771c0 2.302-1.683 3.276-3.632 2.125l-8.504-4.958c-2.038-1.151-3.632-3.985-3.632-6.287v-1.771c0-2.302 1.683-3.276 3.632-2.036z"/><path fill="gray" d="M123.577 282.935c2.038 1.151 3.632 3.985 3.632 6.287v1.77c0 2.303-1.683 3.276-3.632 2.125l-8.504-4.958c-2.037-1.151-3.632-3.984-3.632-6.286v-1.771c0-2.302 1.683-3.276 3.632-2.037z"/><path fill="#333" d="M121.707 306.84c-2.303-.354-3.809-2.39-3.809-5.135v-17.089c0-.531.621-.885 1.063-.619l.355.265c.443.266.797.797.797 1.328v16.115c0 .974.266 2.656 1.949 3.01z"/><path fill="#97B9CF" d="m129.161 230.35-15.945 9.386c-1.152.708-3.012.708-4.164 0l-19.665-11.245c-1.151-.708-1.151-1.771 0-2.391l15.945-9.385c1.152-.708 3.012-.708 4.163 0l19.577 11.333c1.24.62 1.24 1.682.089 2.302M158.842 213.802l-15.945 9.385c-1.152.709-3.012.709-4.164 0l-19.576-11.333c-1.152-.708-1.152-1.771 0-2.39l15.944-9.386c1.152-.708 3.012-.708 4.164 0l19.577 11.333c1.151.709 1.151 1.771 0 2.391" opacity=".5"/><path fill="#B3B3B3" d="M121.461 210.326c3.189-14.256 3.189-14.344 3.189-14.433h-1.505.797l-.797-.088c-.089.442-1.949 8.765-3.189 14.255-.266.62 1.328.974 1.505.266M140.328 222.009c.088.62 1.505.62 1.505-.177l-1.683-17.531-1.505.177zM156.98 212.368c.089.797 1.683.709 1.506-.177l-1.683-17.531-1.506.177z"/><path fill="#34424B" d="M119.155 173.669v.089c.088 1.593 1.417 18.947 1.505 20.807.089 1.859 1.418 2.479 1.418 2.479s16.299 9.385 17.362 10.005 1.594.266 1.594.266l16.742-9.474c1.949-1.151 1.861-3.099 1.861-3.099v-1.417c0-3.541-3.189-5.489-3.189-5.489s-10.276-6.641-11.516-7.438c-.354-.265-.62-.531-.886-.797-.443-.531-.531-.974-.531-.974-.177-.885-2.924-14.166-3.101-15.052a3.5 3.5 0 0 0-.354-1.062l-.089-.177c-1.063-.974-3.189-.177-3.189-.177s-15.856 9.119-16.83 9.739c-1.063.62-.797 1.771-.797 1.771"/><path fill="#889099" d="m158.051 195.008-16.742 9.651s.443-3.63-2.569-5.667-9.478-6.198-9.478-6.198l14.084-7.88z"/><path fill="#6D7983" d="m120.841 175.179 3.277 15.849 1.418-.885 3.72 2.656 14.085-7.88-.975-4.427 1.683-.886c-.443-.531-.531-.974-.531-.974-.177-.885-2.923-14.167-3.1-15.052-.089-.531-.709-.885-1.241-.531l-17.539 10.182c-.62.354-.886 1.151-.797 1.948"/><path fill="#B3B3B3" d="M91.255 227.247c3.188-14.255 3.188-14.343 3.188-14.432h-1.505.797l-.797-.088c-.09.442-1.95 8.765-3.19 14.255-.265.62 1.33.974 1.506.265M110.121 238.931c.088.62 1.505.62 1.505-.177l-1.683-17.531-1.505.177zM126.773 229.29c.088.797 1.683.709 1.506-.177l-1.683-17.531-1.506.177z"/><path fill="#34424B" d="M88.948 190.591v.088c.088 1.594 1.417 18.948 1.505 20.808.089 1.859 1.418 2.479 1.418 2.479s16.299 9.385 17.362 10.005 1.594.266 1.594.266l16.742-9.474c1.949-1.151 1.861-3.099 1.861-3.099v-1.417c0-3.542-3.189-5.489-3.189-5.489s-10.276-6.641-11.516-7.438a8 8 0 0 1-.886-.797c-.443-.531-.531-.974-.531-.974-.178-.885-2.924-14.166-3.101-15.052a3.5 3.5 0 0 0-.354-1.062l-.089-.177c-1.063-.974-3.189-.178-3.189-.178s-15.856 9.12-16.83 9.74c-1.063.62-.797 1.771-.797 1.771"/><path fill="#889099" d="m127.844 211.93-16.742 9.651s.443-3.63-2.569-5.667-9.478-6.198-9.478-6.198l14.084-7.88z"/><path fill="#6D7983" d="m90.63 192.101 3.278 15.849 1.418-.886 3.72 2.657 14.085-7.881-.975-4.427 1.683-.885c-.443-.531-.531-.974-.531-.974-.177-.885-2.923-14.167-3.101-15.052-.088-.531-.708-.885-1.24-.531l-17.45 10.182c-.62.443-.975 1.151-.886 1.948"/><path fill="#97B9CF" d="m57.225 252.043-25.334 14.521 29.232 16.911 24.98-14.786z" opacity=".5"/></g><defs><clipPath id="a"><path fill="#fff" d="M0 0h340v375H0z"/></clipPath></defs></svg>