<svg xmlns="http://www.w3.org/2000/svg" width="329" height="329" fill="none"><path fill="#DFECF5" d="m24.05 237.825-.366-146.661L164.349 9.938l140.593 81.226.366 146.661-140.666 81.226z"/><path fill="#B5D5EB" d="M164.637 156.592 32.745 232.116l-.366-135.914 131.965-76.108z"/><path fill="#DFECF5" d="m296.539 232.787-131.893 76.109-131.892-76.109 131.892-76.182z"/><path fill="#97B9CF" d="m296.529 232.774-131.893-76.182-.292-136.498 131.892 76.108z"/><path fill="#FBFFF2" d="M32.754 228.464v4.314l88.611-51.178v-4.241z"/><path fill="#fff" d="M296.529 232.782v-4.241l-131.893-76.182-43.355 25.004v4.241l43.355-25.004z"/><path fill="#97B9CF" d="m23.684 91.164 8.773 5.045.292 136.571 131.893 76.109v10.162L24.049 237.825z"/><path fill="#B5D5EB" d="m305.018 91.164-8.773 5.045.292 136.571-131.892 76.109v10.162l140.665-81.226z"/><path fill="#FCC674" d="m134.671 48.48-95.483 55.053v79.033l95.483-54.833z"/><path fill="#fff" d="M95.561 72.457 71.07 86.86l-17.62 86.783 24.639-13.964zM106.673 65.727 98.63 70.77l-17.692 87.295 8.188-4.679z" opacity=".5"/><path fill="#8A6945" d="M36.922 102.288v82.03l1.755 1.024 96.652-57.831 1.755-81.007-1.755-1.023zm94.167 23.395-89.927 51.909v-73.476l89.927-51.91z"/><path fill="#fff" d="M38.676 103.311v82.031l98.407-56.807V46.504zm94.167 23.396-89.927 51.909v-73.55l89.927-51.909z"/><path fill="#8A6945" d="m99.877 70.184 3.07-1.755v73.55l-.95.512.146 4.24 5.045-2.997v-82.03l-7.457 4.313z"/><path fill="#fff" d="m99.95 72.158 4.753-2.705v73.55l-2.632 1.535.073 4.167 6.8-3.948v-82.03l-9.14 5.264z"/><path fill="#8A6945" d="m62.006 92.043 3.07-1.754v73.55l-.95.584.146 4.168 5.045-2.925V83.563l-7.458 4.313z"/><path fill="#fff" d="m62.084 94.021 4.752-2.705v73.55l-2.632 1.535.073 4.168 6.8-3.949V84.59l-9.14 5.264z"/><path fill="#FCC674" d="M36.484 105.136v79.252l3.656-2.12v-79.252z"/><path fill="#8A6945" d="m40.798 100.016-4.314 2.559v4.24l.073-.073v73.55l-.073.073v4.313l4.314-2.559 1.755-81.08z"/><path fill="#fff" d="M36.484 104.548v4.241l1.828-1.024v73.55l-1.828 1.024v4.24l6.069-3.509v-82.031z"/><path fill="#DFECF5" d="M36.484 193.75 143.3 132.118l-6.215-3.583-100.6 58.05z"/><path fill="#97B9CF" d="M143.3 132.117V50.013l-6.214-3.51v82.032z"/><path fill="#B5D5EB" d="M36.484 111.718 143.3 50.012l-6.215-10.82-100.6 56.66z"/><path fill="#B5D5EB" d="M36.48 96.362v100.601h7.239V90.586z"/><path fill="#333" d="m263.55 215.325 1.097.658c-.219-.147-.512-.074-.804.073l-1.097-.658c.366-.22.658-.22.804-.073"/><path fill="#333" d="m263.033 218.746-1.097-.658c-.219-.146-.366-.366-.366-.731 0-.731.512-1.609 1.17-1.974l1.097.658c-.658.365-1.17 1.243-1.17 1.974.073.365.146.585.366.731"/><path fill="#000" d="M263.842 215.978c.658-.366 1.169-.073 1.169.658s-.511 1.608-1.169 1.974-1.17.073-1.17-.658c0-.658.512-1.609 1.17-1.974"/><path fill="#333" d="m255.289 224.743 1.096.658c-.219-.147-.512-.074-.804.073l-1.097-.658c.293-.22.585-.22.805-.073"/><path fill="#333" d="m254.771 228.113-1.097-.658c-.219-.146-.365-.365-.365-.731 0-.731.511-1.608 1.169-1.974l1.097.658c-.658.366-1.17 1.243-1.17 1.974 0 .366.146.658.366.731"/><path fill="#000" d="M255.58 225.403c.658-.365 1.17-.073 1.17.658 0 .732-.512 1.609-1.17 1.974-.658.366-1.17.074-1.17-.658 0-.731.512-1.608 1.17-1.974"/><path fill="#333" d="m237.296 223.06 1.097.658c-.219-.146-.512-.073-.804.073l-1.097-.658c.293-.146.585-.219.804-.073M236.779 226.496l-1.097-.658c-.219-.146-.366-.366-.366-.731 0-.731.512-1.609 1.17-1.974l1.097.658c-.658.365-1.17 1.243-1.17 1.974 0 .365.146.585.366.731"/><path fill="#000" d="M237.588 223.794c.658-.365 1.17-.073 1.17.658s-.512 1.609-1.17 1.974c-.658.366-1.17.073-1.17-.658s.512-1.608 1.17-1.974"/><path fill="#333" d="m234.589 212.888 1.097.658c-.219-.146-.512-.073-.804.073l-1.097-.658c.366-.146.658-.146.804-.073M234.072 216.328l-1.097-.658c-.219-.146-.366-.366-.366-.731 0-.731.512-1.609 1.17-1.974l1.097.658c-.658.365-1.17 1.243-1.17 1.974.073.365.146.585.366.731"/><path fill="#000" d="M234.881 213.626c.658-.365 1.169-.073 1.169.658s-.511 1.609-1.169 1.974c-.658.366-1.17.073-1.17-.658s.512-1.608 1.17-1.974"/><path fill="#333" d="m250.898 207.853 1.097.658c-.22-.146-.512-.073-.805.073l-1.096-.658c.292-.146.585-.219.804-.073M250.322 211.297l-1.097-.658c-.219-.147-.366-.366-.366-.731 0-.732.512-1.609 1.17-1.974l1.097.658c-.658.365-1.17 1.242-1.17 1.974.073.365.146.584.366.731"/><path fill="#000" d="M251.123 208.587c.658-.365 1.17-.073 1.17.658s-.512 1.609-1.17 1.974c-.658.366-1.17.073-1.17-.658.073-.731.585-1.608 1.17-1.974"/><path fill="#B3B3B3" d="m233.578 213.339 12.868 4.167.292-3.729-11.405-1.9c-.366-.074-.804-.074-1.17.219-.366.365-.512.658-.585 1.243"/><path fill="#666" d="m233.578 213.348 12.868 4.168.511-2.194-12.209-2.778c-.731-.146-1.024.219-1.17.804"/><path fill="#B3B3B3" d="m247.473 212.977 2.339-5.483c0-.073.146-.146.22-.146l1.023.073c.073 0 .146.073.146.146l.073.512-1.169 5.776z"/><path fill="#666" d="m251.276 208.153-1.169 5.776-.439-.073 1.389-6.215c.073-.146.146-.219.146-.073zM250.835 217.214c.073-1.17.146-2.413 0-2.925h-5.483v2.925c0 .438.292.804.804 1.096 1.096.585 2.778.585 3.875 0 .585-.219.804-.658.804-1.096"/><path fill="#B3B3B3" d="M250.022 213.197c1.096.585 1.096 1.608 0 2.193s-2.779.585-3.875 0-1.097-1.608 0-2.193c1.096-.658 2.851-.658 3.875 0"/><path fill="#B3B3B3" d="M250.609 215.462v2.194l13.453-1.463-.22-1.169s-.365-.732-1.169-.732c-.805 0-11.844-.292-11.844-.292.073.585.073 1.097-.22 1.462M236.359 223.577l.878.512 10.089-5.337v-2.193c-.877-.146-1.462-.512-1.828-1.024l-8.334 6.434c-.512.292-.805.877-.805 1.608"/><path fill="#666" d="m250.609 215.463 12.283-.365c.658 0 1.024.365 1.17 1.096l-13.453 1.463z"/><path fill="#B3B3B3" d="M248.129 216.49v2.34l6.799 6.799 1.024-.293c.073-.658-.073-1.242-.439-1.827l-5.118-7.677c-.585.585-1.316.731-2.266.658"/><path fill="#666" d="M248.129 216.488v2.34l6.799 6.799c0-.658-.073-1.243-.512-1.681zM237.234 224.093c0-.731.22-1.316.805-1.609l9.285-5.922v2.194z"/><path fill="#E6E6E6" d="m246.88 207.052.219-.219c.585-.366 1.535-.366 2.12 0l.219.219h.22v7.019c0 .219-.147.438-.439.585-.585.365-1.535.365-2.12 0-.293-.147-.439-.366-.439-.585v-7.019z"/><path fill="#4D4D4D" d="M248.198 206.685c1.171 0 2.121-.556 2.121-1.243 0-.686-.95-1.243-2.121-1.243s-2.12.557-2.12 1.243c0 .687.949 1.243 2.12 1.243"/><path fill="#333" d="M245.498 198.427c.293-.293.805-.585 1.463-.731.804-.22 1.681-.22 2.558 0 .658.146 1.097.438 1.463.731h.365v7.53c0 .658-.585 1.243-1.754 1.609a4.3 4.3 0 0 1-2.706 0c-1.169-.366-1.754-.951-1.754-1.609v-7.53z"/><path fill="#4D4D4D" d="M246.809 196.817c-2.339.658-2.339 2.559 0 3.217a4.3 4.3 0 0 0 2.705 0c2.34-.658 2.34-2.559 0-3.217-.877-.292-1.754-.292-2.705 0"/><path fill="#333" d="m245.348 201.129 5.556-3.217c4.679-2.705 8.335-8.554 8.335-13.233v-8.042h-1.974v8.042c0 4.021-3.29 9.212-7.384 11.551l-5.557 3.217z"/><path fill="#34424B" d="M259.673 199.013v-3.216h-1.462c-.512-.512-1.097-.951-1.901-1.39-4.46-2.558-11.698-2.558-16.158 0-.731.439-1.389.878-1.901 1.39h-1.462v3.216c0 1.682 1.097 3.364 3.363 4.68 4.46 2.558 11.698 2.558 16.158 0 2.266-1.316 3.363-2.998 3.363-4.68"/><path fill="#34424B" d="M248.269 202.375c6.299 0 11.405-2.946 11.405-6.58s-5.106-6.58-11.405-6.58-11.406 2.946-11.406 6.58 5.107 6.58 11.406 6.58"/><path fill="#B3B3B3" d="M256.31 202.222c-4.46 2.559-11.698 2.559-16.158 0-2.193-1.316-3.363-2.997-3.363-4.679v1.389c0 1.682 1.097 3.363 3.363 4.679 4.46 2.559 11.698 2.559 16.158 0 2.193-1.316 3.363-2.997 3.363-4.679v-1.389c0 1.755-1.097 3.436-3.363 4.679M253.533 170.354c.512-.293 1.316-.293 2.121.219l7.018 4.094c1.682.951 2.998 3.29 2.998 5.191v1.463c0 .95-.366 1.608-.878 1.9l-2.339 1.39h-.073c-.512.292-1.243.219-2.047-.22l-7.019-4.021c-1.682-.95-2.998-3.29-2.998-5.191v-1.462c0-.95.366-1.608.878-1.901l1.535-.877z"/><path fill="#34424B" d="M252.729 170.797c.512-.293 1.243-.22 2.047.219l7.019 4.094c1.681.951 2.997 3.29 2.997 5.191v1.462c0 .951-.365 1.609-.877 1.901l-1.535.877c-.512.293-1.243.22-2.047-.219l-7.019-4.021c-1.682-.95-2.998-3.29-2.998-5.191v-1.462c0-.951.366-1.609.878-1.901z"/><path fill="#34424B" d="M260.403 175.918c1.682.95 2.997 3.29 2.997 5.191v1.462c0 1.901-1.389 2.705-2.997 1.755l-7.019-4.095c-1.681-.95-2.997-3.29-2.997-5.191v-1.462c0-1.901 1.389-2.705 2.997-1.681z"/><path fill="#34424B" d="M260.403 175.918c1.682.95 2.997 3.29 2.997 5.191v1.462c0 1.901-1.389 2.705-2.997 1.755l-7.019-4.095c-1.681-.95-2.997-3.29-2.997-5.191v-1.462c0-1.901 1.389-2.705 2.997-1.681z"/><path fill="#97B9CF" d="m165.591 157.551-18.716 10.82 39.919 23.103 18.497-10.966z" opacity=".5"/><path fill="#333" d="M189.286 188.178v-2.412q0 .328-.438.658v2.412q.438-.328.438-.658M186.207 185.766v2.412q0 .33.439.658c.585.366 1.608.366 2.193 0v-2.412c-.585.365-1.608.365-2.193 0q-.44-.33-.439-.658"/><path fill="#000" d="M188.839 186.361c.585-.366.585-.951 0-1.243-.585-.366-1.608-.366-2.193 0-.585.365-.585.95 0 1.243.585.365 1.608.365 2.193 0"/><path fill="#333" d="M202.29 180.655v-2.413q0 .33-.438.658v2.413c.292-.146.438-.439.438-.658M199.215 178.242v2.413q0 .329.439.658c.584.365 1.608.365 2.193 0V178.9c-.585.366-1.609.366-2.193 0-.293-.146-.439-.438-.439-.658"/><path fill="#000" d="M201.847 178.9c.585-.366.585-.951 0-1.243-.585-.366-1.609-.366-2.193 0s-.585.95 0 1.243c.584.365 1.535.365 2.193 0"/><path fill="#B3B3B3" d="m151.113 165.661 14.184-8.188 2.193 1.243-14.183 8.188zM151.113 163.176l14.184-8.262v2.559l-14.184 8.188z"/><path fill="#B3B3B3" d="m153.309 164.418 14.183-8.262v2.559l-14.183 8.189z"/><path fill="#F2E8DF" d="m153.382 145.117 14.183-8.262-.073 19.302-14.183 8.261z"/><path fill="#B3B3B3" d="m151.191 143.802 14.184-8.189 2.193 1.243-14.183 8.262z"/><path fill="#B3B3B3" d="m151.191 141.316 14.184-8.261v2.559l-14.184 8.188z"/><path fill="#B3B3B3" d="m151.191 141.316 14.184-8.261 2.193 1.316-14.183 8.188z"/><path fill="#D4BFA7" d="M186.572 183.574v2.559l2.194 1.243-37.653-21.714v-2.486 2.486l2.194 1.242v-2.485z"/><path fill="#B3B3B3" d="m151.262 122.019 14.183-8.261 2.194 1.243-14.184 8.261z"/><path fill="#F2E8DF" d="m153.456 123.258 14.183-8.262-.073 19.375-14.183 8.188z"/><path fill="#B3B3B3" d="m151.262 119.454 14.183-8.188v2.485l-14.183 8.262z"/><path fill="#B3B3B3" d="m151.262 119.454 14.183-8.188 2.194 1.243-14.184 8.188zM186.647 161.712l14.111-8.189v2.486l-14.184 8.262z"/><path fill="#D4BFA7" d="m186.652 161.714-.074 2.559-33.192-19.155-3.144-3.217.951-.585 2.193 1.243z"/><path fill="#F7F4F0" d="m153.383 142.56 14.183-8.189 33.193 19.155-14.111 8.189z"/><path fill="#B3B3B3" d="m151.336 100.148 14.183-8.261 2.121 1.243-14.111 8.261z"/><path fill="#F2E8DF" d="m153.534 101.394 14.11-8.261v19.374l-14.183 8.189z"/><path fill="#B3B3B3" d="m151.336 97.595 14.183-8.189v2.486l-14.183 8.262z"/><path fill="#B3B3B3" d="m151.336 97.595 14.183-8.189 2.194 1.243-14.184 8.262zM186.641 139.93l14.183-8.262v2.559l-14.183 8.188z"/><path fill="#F7F4F0" d="m153.461 120.696 14.184-8.188 33.192 19.155-14.184 8.261z"/><path fill="#D4BFA7" d="M186.648 139.924v2.486l-33.193-19.155-2.193-1.243v-2.559l2.193 1.243z"/><path fill="#B3B3B3" d="m151.41 78.293 14.111-8.262 2.193 1.316-14.111 8.189z"/><path fill="#F2E8DF" d="m153.6 56.798 14.111-8.189v42.04l-14.184 8.26z"/><path fill="#B3B3B3" d="m186.723 118.066 14.183-8.261v2.559l-14.183 8.188z"/><path fill="#D4BFA7" d="M186.722 118.065v2.486l-33.193-19.155-2.193-1.243v-2.56l2.193 1.317z"/><path fill="#F7F4F0" d="m153.527 98.906 14.184-8.262 33.192 19.156-14.183 8.261z"/><path fill="#D4BFA7" d="M186.796 96.207v2.559l-33.193-19.229-2.193-1.243V75.81z"/><path fill="#D4BFA7" d="M186.722 96.207v2.559l-33.193-19.229-2.193-1.243V75.81l2.193 1.243z"/><path fill="#F7F4F0" d="m153.527 77.055 14.184-8.262 33.192 19.228-14.183 8.189z"/><path fill="#D4BFA7" d="M188.989 75.663v2.486l-35.386-20.398-2.193-1.316v-2.486z"/><path fill="#F2E8DF" d="m188.989 75.664 14.183-8.262-.292 111.714-14.11 8.262z"/><path fill="#F7F4F0" d="m165.594 45.688 35.385 20.47 2.194 1.243-14.184 8.262-2.193-1.316L151.41 53.95z"/><path fill="#D4BFA7" d="m188.987 75.66-.219 111.714-2.194-1.243V164.27l.073-2.558v-21.788l.073-19.374v-2.486l.074-19.301v-24.42z"/><path fill="#F7F4F0" d="m153.309 164.419.073-19.302 33.192 19.155v19.302z"/><path fill="#D4BFA7" d="m151.406 53.95 2.193 1.242-.073 43.72v2.486l-.073 19.302v2.559l-.073 19.301v2.559l-.073 19.301v2.486l-2.194-1.243v-2.486z"/><mask id="a" width="34" height="40" x="153" y="57" maskUnits="userSpaceOnUse" style="mask-type:luminance"><path fill="#fff" d="m153.6 57.77-.073 19.3 33.266 19.156.146-19.228z"/></mask><g mask="url(#a)"><path fill="#4D4D4D" d="m164.211 65.516 6.215-5.41v-1.754l-9.285 5.337z"/><path fill="#E6E6E6" d="m164.211 65.952 8.993-5.19-3.071-1.828-8.992 5.264z"/><path fill="#4D4D4D" d="m164.137 80.215 9.285-5.41.073-14.696-9.285 5.41z"/><path fill="#1A1A1A" d="M161.141 63.684v14.695l2.997 1.828.073-14.696z"/><path fill="#fff" d="m161.723 76.702 1.608.877v-7.823l-1.608-.877zM161.801 67.054c0 .439.365.95.804 1.243.439.22.804.073.804-.293 0-.365-.365-.95-.804-1.243-.512-.292-.804-.146-.804.293"/></g><mask id="b" width="34" height="40" x="153" y="57" maskUnits="userSpaceOnUse" style="mask-type:luminance"><path fill="#fff" d="m153.6 57.77-.073 19.3 33.266 19.156.146-19.228z"/></mask><g mask="url(#b)"><path fill="#4D4D4D" d="m167.5 67.415 6.215-5.41V60.25l-9.285 5.337z"/><path fill="#E6E6E6" d="m167.5 67.855 8.993-5.191-3.071-1.828-8.992 5.264z"/><path fill="#4D4D4D" d="m167.426 82.102 9.285-5.41.073-14.696-9.285 5.41z"/><path fill="#1A1A1A" d="M164.43 65.586V80.28l2.997 1.828.073-14.695z"/><path fill="#fff" d="m165.012 78.596 1.608.878V71.65l-1.608-.878zM165.09 68.949c0 .438.365.95.804 1.242.439.22.804.073.804-.292 0-.439-.365-.95-.804-1.243-.512-.292-.804-.146-.804.292"/></g><mask id="c" width="34" height="40" x="153" y="57" maskUnits="userSpaceOnUse" style="mask-type:luminance"><path fill="#fff" d="m153.6 57.77-.073 19.3 33.266 19.156.146-19.228z"/></mask><g mask="url(#c)"><path fill="#4D4D4D" d="m170.782 69.306 6.214-5.41V62.14l-9.285 5.337z"/><path fill="#E6E6E6" d="m170.782 69.745 8.992-5.19-3.07-1.828-8.993 5.264z"/><path fill="#4D4D4D" d="m170.711 84.008 9.285-5.41.073-14.696-9.285 5.41z"/><path fill="#1A1A1A" d="M167.711 67.477v14.695L170.708 84l.074-14.696z"/><path fill="#fff" d="m168.297 80.499 1.608.877v-7.823l-1.608-.877zM168.375 70.774c0 .44.366.95.804 1.243.439.22.804.073.804-.292 0-.439-.365-.95-.804-1.243-.512-.22-.804-.073-.804.292"/></g><mask id="d" width="34" height="40" x="153" y="57" maskUnits="userSpaceOnUse" style="mask-type:luminance"><path fill="#fff" d="m153.6 57.77-.073 19.3 33.266 19.156.146-19.228z"/></mask><g mask="url(#d)"><path fill="#4D4D4D" d="m174.067 71.224 6.214-5.41v-1.755l-9.285 5.337z"/><path fill="#E6E6E6" d="m174.067 71.66 8.992-5.192-3.07-1.827-8.993 5.264z"/><path fill="#4D4D4D" d="m174 85.918 9.285-5.41.073-14.695-9.285 5.41z"/><path fill="#6D7983" d="M170.996 69.398v14.696l2.998 1.828.073-14.696z"/><path fill="#fff" d="m171.578 82.405 1.609.877V75.46l-1.609-.877zM171.656 72.68c0 .44.366.951.804 1.243.439.22.805.074.805-.292 0-.439-.366-.95-.805-1.243-.511-.22-.804-.073-.804.293"/></g><mask id="e" width="34" height="40" x="153" y="57" maskUnits="userSpaceOnUse" style="mask-type:luminance"><path fill="#fff" d="m153.6 57.77-.073 19.3 33.266 19.156.146-19.228z"/></mask><g mask="url(#e)"><path fill="#4D4D4D" d="m180.653 74.943 6.214-5.337v-1.754l-9.285 5.337z"/><path fill="#E6E6E6" d="m180.653 75.464 8.992-5.264-3.07-1.755-8.993 5.264z"/><path fill="#4D4D4D" d="m180.574 89.638 9.285-5.337.073-14.695-9.285 5.337z"/><path fill="#1A1A1A" d="M177.582 73.195v14.696l2.998 1.754.073-14.695z"/><path fill="#fff" d="m178.168 86.206 1.608.877V79.26l-1.608-.877zM178.246 76.481c0 .44.366.95.804 1.243.439.22.805.073.805-.292 0-.439-.366-.95-.805-1.243-.511-.22-.804-.073-.804.292"/></g><mask id="f" width="34" height="40" x="153" y="57" maskUnits="userSpaceOnUse" style="mask-type:luminance"><path fill="#fff" d="m153.6 57.77-.073 19.3 33.266 19.156.146-19.228z"/></mask><g mask="url(#f)"><path fill="#4D4D4D" d="m183.93 76.842 6.214-5.337V69.75l-9.285 5.337z"/><path fill="#E6E6E6" d="m183.93 77.35 8.993-5.263-3.071-1.755-8.993 5.264z"/><path fill="#4D4D4D" d="m183.859 91.54 9.285-5.337.074-14.695-9.286 5.337z"/><path fill="#1A1A1A" d="M180.859 75.09v14.695l2.998 1.755.073-14.696z"/><path fill="#fff" d="m181.449 88.104 1.609.877V81.16l-1.609-.878zM181.527 78.38c0 .439.366.95.805 1.243.438.22.804.073.804-.293 0-.438-.366-.95-.804-1.243-.512-.219-.805-.073-.805.293"/></g><mask id="g" width="34" height="40" x="153" y="57" maskUnits="userSpaceOnUse" style="mask-type:luminance"><path fill="#fff" d="m153.6 57.77-.073 19.3 33.266 19.156.146-19.228z"/></mask><g mask="url(#g)"><path fill="#4D4D4D" d="m187.235 78.752 6.214-5.337V71.66l-9.285 5.337z"/><path fill="#E6E6E6" d="m187.235 79.26 8.992-5.263-3.07-1.755-8.993 5.264z"/><path fill="#1A1A1A" d="M184.164 77v14.695l2.998 1.755.073-14.695z"/><path fill="#fff" d="m184.75 90.007 1.608.877V83.06l-1.608-.877zM184.828 80.282c0 .439.366.95.804 1.243.439.22.805.073.805-.292 0-.439-.366-.95-.805-1.243-.511-.22-.804-.073-.804.292"/></g><mask id="h" width="34" height="40" x="153" y="79" maskUnits="userSpaceOnUse" style="mask-type:luminance"><path fill="#fff" d="m153.6 79.54-.073 19.373 33.266 19.156.146-19.229z"/></mask><g mask="url(#h)"><path fill="#4D4D4D" d="m159.309 84.509 6.214-5.41v-1.755l-9.285 5.41z"/><path fill="#E6E6E6" d="m159.309 85.019 8.993-5.264L165.231 78l-8.993 5.264z"/><path fill="#4D4D4D" d="m159.238 99.2 9.285-5.41.074-14.696-9.286 5.41z"/><path fill="#1A1A1A" d="M156.238 82.754v14.695l2.998 1.755.073-14.695z"/><path fill="#fff" d="m156.82 95.69 1.609.95v-7.822l-1.609-.95zM156.898 86.042c0 .439.366.95.805 1.243.438.22.804.073.804-.292 0-.439-.366-.95-.804-1.243-.512-.293-.805-.146-.805.292"/></g><mask id="i" width="34" height="40" x="153" y="79" maskUnits="userSpaceOnUse" style="mask-type:luminance"><path fill="#fff" d="m153.6 79.54-.073 19.373 33.266 19.156.146-19.229z"/></mask><g mask="url(#i)"><path fill="#4D4D4D" d="m162.586 86.407 6.215-5.41v-1.755l-9.285 5.41z"/><path fill="#E6E6E6" d="m162.586 86.917 8.993-5.264-3.071-1.755-8.992 5.264z"/><path fill="#4D4D4D" d="m162.516 101.106 9.285-5.41.073-14.696-9.285 5.41z"/><path fill="#1A1A1A" d="M159.516 84.648v14.696l2.997 1.754.073-14.695z"/><path fill="#fff" d="m160.102 97.589 1.608.95v-7.823l-1.608-.95zM160.18 87.94c0 .44.365.951.804 1.244.439.219.804.073.804-.293 0-.439-.365-.95-.804-1.243-.512-.292-.804-.146-.804.293"/></g><mask id="j" width="34" height="40" x="153" y="79" maskUnits="userSpaceOnUse" style="mask-type:luminance"><path fill="#fff" d="m153.6 79.54-.073 19.373 33.266 19.156.146-19.229z"/></mask><g mask="url(#j)"><path fill="#F15A24" d="m165.875 88.313 6.215-5.41v-1.755l-9.285 5.41z"/><path fill="#E6E6E6" d="m165.875 88.82 8.993-5.265-3.071-1.754-8.992 5.264z"/><path fill="#F15A24" d="m165.801 103.004 9.285-5.41.073-14.696-9.285 5.41z"/><path fill="#AD3814" d="M162.805 86.547v14.695l2.997 1.755.073-14.695z"/><path fill="#fff" d="m163.395 99.495 1.608.95v-7.823l-1.608-.95zM163.473 89.847c0 .439.365.95.804 1.243.439.22.804.073.804-.293 0-.438-.365-.95-.804-1.242-.512-.293-.804-.147-.804.292"/></g><mask id="k" width="34" height="40" x="153" y="79" maskUnits="userSpaceOnUse" style="mask-type:luminance"><path fill="#fff" d="m153.6 79.54-.073 19.373 33.266 19.156.146-19.229z"/></mask><g mask="url(#k)"><path fill="#4D4D4D" d="m169.164 90.2 6.215-5.41v-1.755l-9.285 5.41z"/><path fill="#E6E6E6" d="m169.164 90.726 8.993-5.264-3.071-1.755-8.992 5.264z"/><path fill="#4D4D4D" d="m169.098 104.906 9.285-5.41.073-14.695-9.285 5.41z"/><path fill="#1A1A1A" d="M166.094 88.445v14.696l2.997 1.754.073-14.695z"/><path fill="#fff" d="m166.684 101.389 1.608.951v-7.823l-1.608-.95zM166.762 91.742c0 .438.365.95.804 1.242.439.22.804.074.804-.292 0-.439-.365-.95-.804-1.243-.512-.292-.804-.146-.804.293"/></g><mask id="l" width="34" height="40" x="153" y="79" maskUnits="userSpaceOnUse" style="mask-type:luminance"><path fill="#fff" d="m153.6 79.54-.073 19.373 33.266 19.156.146-19.229z"/></mask><g mask="url(#l)"><path fill="#4D4D4D" d="m172.473 92.114 6.214-5.41v-1.755l-9.285 5.41z"/><path fill="#E6E6E6" d="m172.473 92.624 8.993-5.264-3.071-1.754-8.993 5.264z"/><path fill="#4D4D4D" d="m172.406 106.809 9.285-5.411.073-14.695-9.285 5.41z"/><path fill="#1A1A1A" d="m169.401 90.36-.073 14.695 3.071 1.754.073-14.695z"/><path fill="#fff" d="m169.984 103.299 1.609.951v-7.823l-1.609-.95zM170.062 93.652c0 .438.366.95.805 1.242.438.22.804.074.804-.292 0-.365-.366-.95-.804-1.243-.512-.292-.805-.146-.805.293"/></g><mask id="m" width="34" height="40" x="153" y="79" maskUnits="userSpaceOnUse" style="mask-type:luminance"><path fill="#fff" d="m153.6 79.54-.073 19.373 33.266 19.156.146-19.229z"/></mask><g mask="url(#m)"><path fill="#4D4D4D" d="m175.758 94.02 6.215-5.41v-1.754l-9.285 5.41z"/><path fill="#E6E6E6" d="m175.758 94.527 8.993-5.264-3.071-1.755-8.992 5.264z"/><path fill="#4D4D4D" d="m175.684 108.719 9.285-5.41.073-14.696-9.285 5.41z"/><path fill="#1A1A1A" d="m172.686 92.262-.073 14.695 3.071 1.755.073-14.696z"/><path fill="#fff" d="m173.273 105.202 1.609.95v-7.823l-1.609-.95zM173.352 95.554c0 .439.365.95.804 1.243.438.22.804.073.804-.293 0-.438-.366-.95-.804-1.243-.512-.292-.804-.146-.804.293"/></g><mask id="n" width="34" height="40" x="153" y="79" maskUnits="userSpaceOnUse" style="mask-type:luminance"><path fill="#fff" d="m153.6 79.54-.073 19.373 33.266 19.156.146-19.229z"/></mask><g mask="url(#n)"><path fill="#4D4D4D" d="m179.051 95.903 6.215-5.41v-1.755l-9.286 5.41z"/><path fill="#E6E6E6" d="m179.051 96.417 8.993-5.264-3.071-1.755-8.993 5.264z"/><path fill="#4D4D4D" d="m178.977 110.602 9.285-5.411.073-14.695-9.285 5.41z"/><path fill="#1A1A1A" d="m175.975 94.148-.073 14.696 3.071 1.754.073-14.695z"/><path fill="#fff" d="m176.562 107.092 1.609.951v-7.823l-1.609-.95zM176.641 97.445c0 .438.365.95.804 1.243.439.219.804.073.804-.293 0-.439-.365-.95-.804-1.243-.512-.292-.804-.146-.804.293"/></g><mask id="o" width="34" height="40" x="153" y="79" maskUnits="userSpaceOnUse" style="mask-type:luminance"><path fill="#fff" d="m153.6 79.54-.073 19.373 33.266 19.156.146-19.229z"/></mask><g mask="url(#o)"><path fill="#4D4D4D" d="m182.34 97.813 6.215-5.41v-1.755l-9.285 5.41z"/><path fill="#E6E6E6" d="m182.34 98.32 8.993-5.265-3.071-1.754-8.992 5.264z"/><path fill="#4D4D4D" d="m182.262 112.516 9.285-5.411.073-14.695-9.285 5.41z"/><path fill="#6D7983" d="m179.257 96.059-.073 14.695 3.07 1.755.073-14.696z"/><path fill="#fff" d="m179.852 108.999 1.608.95v-7.823l-1.608-.95zM179.93 99.35c0 .44.365.951.804 1.244.439.219.804.073.804-.293 0-.438-.365-.95-.804-1.243-.512-.292-.804-.146-.804.293"/></g><mask id="p" width="34" height="40" x="153" y="79" maskUnits="userSpaceOnUse" style="mask-type:luminance"><path fill="#fff" d="m153.6 79.54-.073 19.373 33.266 19.156.146-19.229z"/></mask><g mask="url(#p)"><path fill="#4D4D4D" d="m185.623 99.645 6.287-5.41v-1.754l-9.285 5.41z"/><path fill="#E6E6E6" d="m185.623 100.159 8.992-5.264-3.07-1.754-8.92 5.19z"/><path fill="#4D4D4D" d="m185.621 114.344 9.285-5.41V94.238l-9.285 5.41z"/><path fill="#1A1A1A" d="m182.62 97.879-.073 14.695 3.071 1.755V99.634z"/><path fill="#fff" d="m183.199 110.835 1.609.95v-7.823l-1.609-.95zM183.199 101.187c0 .438.366.95.804 1.243.439.219.805.073.805-.293 0-.365-.366-.95-.805-1.243-.438-.292-.804-.146-.804.293"/></g><mask id="q" width="34" height="40" x="153" y="79" maskUnits="userSpaceOnUse" style="mask-type:luminance"><path fill="#fff" d="m153.6 79.54-.073 19.373 33.266 19.156.146-19.229z"/></mask><g mask="url(#q)"><path fill="#4D4D4D" d="m188.908 101.559 6.287-5.41v-1.755l-9.285 5.41z"/><path fill="#E6E6E6" d="m188.908 102.066 8.992-5.264-3.07-1.755-8.92 5.191z"/><path fill="#1A1A1A" d="m185.905 99.793-.073 14.695 3.071 1.755v-14.695z"/><path fill="#fff" d="m186.488 112.737 1.609.95v-7.822l-1.609-.951zM186.488 103.089c0 .439.366.951.805 1.243.438.219.804.073.804-.292 0-.439-.366-.951-.804-1.243s-.805-.147-.805.292"/></g><mask id="r" width="34" height="39" x="153" y="101" maskUnits="userSpaceOnUse" style="mask-type:luminance"><path fill="#fff" d="m153.538 101.418-.073 19.301 33.265 19.229.147-19.302z"/></mask><g mask="url(#r)"><path fill="#4D4D4D" d="m159.215 106.317 6.215-5.337v-1.828l-9.285 5.411z"/><path fill="#E6E6E6" d="m159.215 106.827 8.993-5.264-3.071-1.754-8.992 5.264z"/><path fill="#4D4D4D" d="m159.152 121.013 9.285-5.337.074-14.696-9.286 5.338z"/><path fill="#1A1A1A" d="M156.145 104.555v14.695l2.997 1.755.073-14.696z"/><path fill="#fff" d="m156.734 117.577 1.609.877v-7.823l-1.609-.877zM156.812 107.855c0 .438.366.95.805 1.243.438.219.804.073.804-.293 0-.438-.366-.95-.804-1.243-.439-.292-.805-.146-.805.293"/><path fill="#4D4D4D" d="m162.516 108.2 6.214-5.337v-1.828l-9.285 5.41z"/><path fill="#E6E6E6" d="m162.516 108.722 8.993-5.264-3.071-1.755-8.993 5.264z"/><path fill="#4D4D4D" d="m162.445 122.9 9.285-5.337.074-14.696-9.286 5.337z"/><path fill="#1A1A1A" d="M159.445 106.453v14.695l2.998 1.755.073-14.695z"/><path fill="#fff" d="m160.027 119.46 1.609.877v-7.823l-1.609-.877zM160.105 109.738c0 .438.366.95.805 1.242.438.22.804.074.804-.292 0-.439-.366-.95-.804-1.243-.512-.292-.805-.146-.805.293"/><path fill="#4D4D4D" d="m165.805 110.122 6.214-5.337v-1.828l-9.285 5.41z"/><path fill="#E6E6E6" d="m165.805 110.628 8.993-5.264-3.071-1.755-8.993 5.264z"/><path fill="#4D4D4D" d="m165.73 124.814 9.286-5.337.073-14.696-9.285 5.337z"/><path fill="#1A1A1A" d="M162.734 108.367v14.696l2.998 1.754.073-14.695z"/><path fill="#fff" d="m163.316 121.378 1.609.877v-7.823l-1.609-.877zM163.395 111.656c0 .438.365.95.804 1.242.438.22.804.074.804-.292 0-.439-.366-.95-.804-1.243-.512-.292-.804-.146-.804.293"/><path fill="#4D4D4D" d="m169.102 112.009 6.214-5.337v-1.828l-9.285 5.41z"/><path fill="#E6E6E6" d="m169.102 112.519 8.993-5.264-3.071-1.755-8.993 5.264z"/><path fill="#4D4D4D" d="m169.027 126.708 9.285-5.337.074-14.695-9.286 5.337z"/><path fill="#1A1A1A" d="M166.031 110.246v14.695l2.998 1.755.073-14.695z"/><path fill="#fff" d="m166.613 123.268 1.609.878v-7.823l-1.609-.878zM166.691 113.546c0 .439.366.951.805 1.243.438.219.804.073.804-.292 0-.439-.366-.951-.804-1.243-.512-.293-.805-.147-.805.292"/><path fill="#F15A24" d="m172.375 113.919 6.215-5.337v-1.828l-9.285 5.41z"/><path fill="#E6E6E6" d="m172.375 114.429 8.993-5.264-3.071-1.755-8.992 5.264z"/><path fill="#F15A24" d="m172.305 128.618 9.285-5.337.073-14.695-9.285 5.337z"/><path fill="#AD3814" d="M169.305 112.16v14.695l2.997 1.755.073-14.695z"/><path fill="#fff" d="m169.898 125.182 1.609.878v-7.823l-1.609-.878zM169.977 115.46c0 .439.365.951.804 1.243.438.219.804.073.804-.292 0-.366-.366-.951-.804-1.243-.512-.293-.804-.146-.804.292"/><path fill="#4D4D4D" d="m175.684 115.817 6.214-5.41v-1.755l-9.285 5.411z"/><path fill="#E6E6E6" d="m175.684 116.327 8.993-5.264-3.071-1.754-8.993 5.264z"/><path fill="#4D4D4D" d="m175.609 130.52 9.285-5.411.074-14.695-9.286 5.41z"/><path fill="#6D7983" d="M172.613 114.07v14.696l2.998 1.754.073-14.695z"/><path fill="#fff" d="m173.195 127.004 1.609.95v-7.823l-1.609-.877zM173.273 117.355c0 .438.366.95.805 1.243.438.219.804.073.804-.293 0-.438-.366-.95-.804-1.243-.512-.292-.805-.146-.805.293"/><path fill="#4D4D4D" d="m178.973 117.723 6.214-5.41v-1.754l-9.285 5.41z"/><path fill="#E6E6E6" d="m178.973 118.237 8.993-5.264-3.071-1.754-8.993 5.264z"/><path fill="#4D4D4D" d="m178.898 132.426 9.286-5.41.073-14.696-9.285 5.411z"/><path fill="#1A1A1A" d="M175.902 115.969v14.695l2.998 1.755.073-14.696z"/><path fill="#fff" d="m176.484 128.914 1.609.95v-7.823l-1.609-.877zM176.562 119.265c0 .439.366.95.805 1.243.438.219.804.073.804-.293 0-.438-.366-.95-.804-1.243-.512-.292-.805-.146-.805.293"/><path fill="#4D4D4D" d="m182.262 119.622 6.215-5.41v-1.755l-9.286 5.41z"/><path fill="#E6E6E6" d="m182.262 120.132 8.993-5.264-3.071-1.755-8.993 5.264z"/><path fill="#4D4D4D" d="m182.191 134.316 9.286-5.41.073-14.695-9.285 5.41z"/><path fill="#1A1A1A" d="M179.191 117.863v14.696l2.998 1.754.073-14.695z"/><path fill="#fff" d="m179.773 130.808 1.609.951v-7.823l-1.609-.877zM179.852 121.159c0 .439.365.951.804 1.243.438.22.804.073.804-.292 0-.439-.366-.951-.804-1.243-.512-.292-.804-.146-.804.292"/></g><mask id="s" width="34" height="39" x="153" y="123" maskUnits="userSpaceOnUse" style="mask-type:luminance"><path fill="#fff" d="m153.456 123.266-.073 19.301 33.265 19.155.147-19.228z"/></mask><g mask="url(#s)"><path fill="#4D4D4D" d="m159.09 128.166 6.215-5.337v-1.755l-9.285 5.337z"/><path fill="#E6E6E6" d="m159.09 128.675 8.993-5.264-3.071-1.755-8.992 5.264z"/><path fill="#4D4D4D" d="m159.016 142.861 9.285-5.338.073-14.695-9.285 5.337z"/><path fill="#1A1A1A" d="M156.02 126.41v14.695l2.997 1.755.073-14.695z"/><path fill="#fff" d="m156.676 139.421 1.535.877v-7.823l-1.535-.877zM156.676 129.697c0 .439.365.951.804 1.243.439.22.804.073.804-.292 0-.439-.365-.951-.804-1.243-.512-.292-.804-.073-.804.292"/></g><mask id="t" width="34" height="39" x="153" y="123" maskUnits="userSpaceOnUse" style="mask-type:luminance"><path fill="#fff" d="m153.456 123.266-.073 19.301 33.265 19.155.147-19.228z"/></mask><g mask="url(#t)"><path fill="#F15A24" d="m162.383 130.072 6.215-5.337v-1.755l-9.286 5.338z"/><path fill="#E6E6E6" d="m162.383 130.585 8.993-5.264-3.071-1.755-8.993 5.264z"/><path fill="#F15A24" d="m162.309 144.759 9.285-5.337.073-14.695-9.285 5.337z"/><path fill="#AD3814" d="M159.312 128.316v14.696l2.998 1.754.073-14.695z"/><path fill="#fff" d="m159.969 141.323 1.535.877v-7.823l-1.535-.877zM159.969 131.601c0 .439.365.95.804 1.243.439.219.804.073.804-.293 0-.438-.365-.95-.804-1.243-.512-.292-.804-.146-.804.293"/></g><mask id="u" width="34" height="39" x="153" y="123" maskUnits="userSpaceOnUse" style="mask-type:luminance"><path fill="#fff" d="m153.456 123.266-.073 19.301 33.265 19.155.147-19.228z"/></mask><g mask="url(#u)"><path fill="#4D4D4D" d="m170.641 134.821 6.214-5.41v-1.755l-9.285 5.41z"/><path fill="#E6E6E6" d="m170.641 135.258 8.993-5.191-3.071-1.755-8.993 5.191z"/><path fill="#4D4D4D" d="m170.641 149.516 9.285-5.411V129.41l-9.285 5.41z"/><path fill="#1A1A1A" d="M167.57 133.059v14.695l3.071 1.755v-14.696z"/><path fill="#fff" d="m168.227 146.006 1.535.951v-7.823l-1.535-.95zM168.227 136.359c0 .438.365.95.804 1.243.438.219.804.073.804-.293 0-.439-.366-.95-.804-1.243-.439-.292-.804-.146-.804.293"/></g><mask id="v" width="34" height="39" x="153" y="123" maskUnits="userSpaceOnUse" style="mask-type:luminance"><path fill="#fff" d="m153.456 123.266-.073 19.301 33.265 19.155.147-19.228z"/></mask><g mask="url(#v)"><path fill="#4D4D4D" d="m173.934 136.716 6.214-5.411v-1.754l-9.285 5.41z"/><path fill="#E6E6E6" d="m173.934 137.153 8.993-5.191-3.071-1.755-8.993 5.191z"/><path fill="#4D4D4D" d="m173.934 151.41 9.285-5.41v-14.695l-9.285 5.41z"/><path fill="#1A1A1A" d="M170.863 134.953v14.695l3.071 1.755v-14.695z"/><path fill="#fff" d="m171.52 147.901 1.535.95v-7.822l-1.535-.951zM171.52 138.253c0 .439.365.951.804 1.243.438.219.804.073.804-.292 0-.439-.366-.951-.804-1.243s-.804-.146-.804.292"/></g><mask id="w" width="34" height="39" x="153" y="123" maskUnits="userSpaceOnUse" style="mask-type:luminance"><path fill="#fff" d="m153.456 123.266-.073 19.301 33.265 19.155.147-19.228z"/></mask><g mask="url(#w)"><path fill="#4D4D4D" d="m177.211 138.61 6.215-5.41v-1.755l-9.285 5.411z"/><path fill="#E6E6E6" d="m177.211 139.051 8.993-5.191-3.071-1.755-8.992 5.191z"/><path fill="#4D4D4D" d="m177.219 153.309 9.285-5.411v-14.695l-9.285 5.41z"/><path fill="#1A1A1A" d="M174.141 136.855v14.696l3.07 1.754V138.61z"/><path fill="#fff" d="m174.797 149.796 1.535.95v-7.823l-1.535-.95zM174.797 140.148c0 .438.365.95.804 1.243.439.219.804.073.804-.293 0-.439-.365-.95-.804-1.243-.439-.292-.804-.146-.804.293"/></g><mask id="x" width="34" height="39" x="153" y="123" maskUnits="userSpaceOnUse" style="mask-type:luminance"><path fill="#fff" d="m153.456 123.266-.073 19.301 33.265 19.155.147-19.228z"/></mask><g mask="url(#x)"><path fill="#4D4D4D" d="m180.489 140.524 6.214-5.41v-1.755l-9.285 5.411z"/><path fill="#E6E6E6" d="m180.489 140.961 8.992-5.191-3.07-1.754-8.993 5.191z"/><path fill="#4D4D4D" d="m180.504 155.219 9.285-5.41v-14.696l-9.285 5.41z"/><path fill="#6D7983" d="M177.418 138.762v14.695l3.071 1.755v-14.696z"/><path fill="#fff" d="m178.082 151.71 1.535.877v-7.75l-1.535-.95zM178.082 142.062c0 .438.366.95.804 1.243.439.219.804.073.804-.293 0-.365-.365-.95-.804-1.243-.438-.292-.804-.146-.804.293"/></g><mask id="y" width="34" height="39" x="153" y="123" maskUnits="userSpaceOnUse" style="mask-type:luminance"><path fill="#fff" d="m153.456 123.266-.073 19.301 33.265 19.155.147-19.228z"/></mask><g mask="url(#y)"><path fill="#4D4D4D" d="m183.782 142.407 6.214-5.41v-1.755l-9.285 5.41z"/><path fill="#E6E6E6" d="m183.782 142.856 8.992-5.191-3.07-1.755-8.993 5.191z"/><path fill="#4D4D4D" d="m183.789 157.106 9.285-5.411V137l-9.285 5.41z"/><path fill="#1A1A1A" d="M180.711 140.66v14.695l3.071 1.755v-14.695z"/><path fill="#fff" d="m181.379 153.596 1.535.878v-7.75l-1.535-.951zM181.379 143.948c0 .439.365.951.804 1.243.439.22.804.073.804-.292 0-.439-.365-.951-.804-1.243s-.804-.146-.804.292"/></g><mask id="z" width="34" height="39" x="153" y="123" maskUnits="userSpaceOnUse" style="mask-type:luminance"><path fill="#fff" d="m153.456 123.266-.073 19.301 33.265 19.155.147-19.228z"/></mask><g mask="url(#z)"><path fill="#4D4D4D" d="m187.086 144.317 6.215-5.41v-1.755l-9.285 5.411z"/><path fill="#E6E6E6" d="m187.086 144.754 8.993-5.191-3.071-1.754-8.992 5.19z"/><path fill="#1A1A1A" d="M184.016 142.566v14.696l3.07 1.754v-14.695z"/><path fill="#fff" d="m184.672 155.503 1.535.877v-7.75l-1.535-.95zM184.672 145.855c0 .438.365.95.804 1.243.439.219.804.073.804-.293 0-.438-.365-.95-.804-1.243-.439-.292-.804-.146-.804.293"/></g><path fill="#333" d="M154.263 167.928v-2.412q0 .328-.439.658v2.412c.293-.146.439-.438.439-.658M151.191 165.516v2.412q0 .33.439.658c.585.366 1.609.366 2.193 0v-2.412c-.584.365-1.608.365-2.193 0q-.439-.33-.439-.658"/><path fill="#000" d="M153.823 166.173c.585-.365.585-.95 0-1.243-.584-.365-1.608-.365-2.193 0-.585.366-.585.951 0 1.243.585.366 1.609.366 2.193 0"/><path fill="#D4BFA7" d="m188.987 97.45-.219 89.927-1.024.584-1.17-1.827v-21.861l.073-2.558v-21.788l.073-19.374v-2.486l.074-19.301v-2.559z"/><path fill="#F2E8DF" d="m150.164 166.248 17.912 10.309.731.439 18.936 10.966V163.47l-18.936-10.893-.731-.439-17.839-10.236z"/><path fill="#D4BFA7" d="M168.074 152.137v24.419l.731.438v-24.419z"/><path fill="#333" d="m170.72 155.943-.658.365c.147-.073.293-.073.512.073l.658-.365c-.219-.147-.365-.147-.512-.073"/><path fill="#333" d="m171.009 157.99.658-.366q.219-.11.219-.439c0-.438-.292-.95-.658-1.169l-.658.365c.366.22.658.731.658 1.17q0 .329-.219.439"/><path fill="#000" d="M170.576 156.378c-.366-.219-.658-.073-.658.366 0 .438.292.95.658 1.169s.658.074.658-.365-.292-.951-.658-1.17"/><path fill="#333" d="m165.158 152.716-.658.366c.146-.074.292-.074.512.073l.658-.366c-.22-.146-.366-.146-.512-.073"/><path fill="#333" d="m165.45 154.763.658-.365q.22-.11.22-.439c0-.439-.293-.951-.658-1.17l-.658.366c.365.219.658.731.658 1.169q0 .33-.22.439"/><path fill="#000" d="M165.013 153.159c-.365-.219-.658-.073-.658.366s.293.95.658 1.17.658.073.658-.366-.292-.95-.658-1.17"/><path fill="#D4BFA7" d="M79.401 174.874c2.12 8.919 1.535 13.233-1.023 18.497l-22.226 12.94c2.559-5.264 3.144-9.577 1.023-18.497-2.412-10.162-1.681-13.306-.584-13.964.95-.512 2.12.585 1.974 1.024l19.228-11.186c-.147 2.047.22 5.556 1.608 11.186"/><path fill="#F2E8DF" d="M80.202 174.874c2.12 8.919 1.755 14.476-.804 19.74l-22.226 12.94c2.559-5.264 2.924-10.82.804-19.74-2.413-10.162-1.681-13.306-.585-13.964.95-.512 2.12.585 1.974 1.024l19.229-11.186c-.074 2.047.292 5.556 1.608 11.186"/><path fill="#333" d="m90.51 232.05 1.536-.95-5.922-30.268-1.608.877z"/><path fill="#4D4D4D" d="m85.537 201.999 1.535-.878-.146-1.023-1.535.877z"/><path fill="#CCC" d="m85.387 200.971 1.535-.878-1.023-.292-1.536.95z"/><path fill="#333" d="m71.34 221.228 1.535-.877 9.87-31.511-1.535.877z"/><path fill="#A79681" d="m81.22 189.567 1.535-.877-.95-.878-1.536.878z"/><path fill="#4D4D4D" d="m81.215 189.715 1.535-.877v-.147l-1.535.878z"/><path fill="gray" d="m77.05 163.617-1.023-.293 5.191 26.247 8.262 42.185 1.023.293-5.995-30.341 1.024.292-.146-1.024-1.024-.219z"/><path fill="gray" d="m80.267 188.691-9.943 31.658 1.024.877 9.87-31.511v-.146z"/><path fill="#4D4D4D" d="m77.05 163.614 1.536-.95-.95-.293-1.609.951z"/><path fill="#333" d="m77.05 163.614 1.536-.95-.95-.293-1.609.951z"/><path fill="#4D4D4D" d="m84.366 200.751 1.535-.95-7.311-37.141-1.535.951z"/><path fill="gray" d="M86.046 210.552v-.439c-.146-.073-.22-.219-.366-.292l-9.504-5.483c-.585-.293-1.024-.147-1.024.438s.439 1.243 1.024 1.609l9.504 5.483c.22.146.439.146.585.146-.073-.511-.22-.95-.22-1.462"/><path fill="#333" d="m73.336 241.918 1.535-.878-5.922-30.341-1.535.878z"/><path fill="#4D4D4D" d="m68.426 211.865 18.644-10.748-.146-1.023-18.717 10.82z"/><path fill="#CCC" d="m68.211 210.921 18.716-10.82-1.023-.292-18.716 10.82z"/><path fill="#333" d="m54.172 231.161 1.535-.951 9.943-31.511-1.535.878z"/><path fill="#A79681" d="m64.045 199.434 1.609-.877-.95-.877-1.536.877z"/><path fill="#4D4D4D" d="m64.12 199.578 1.535-.877v-.146l-1.608.877z"/><path fill="gray" d="m59.945 173.484-1.023-.293 5.118 26.247 8.261 42.185 1.024.293-5.922-30.341 1.023.292-.219-.95-1.024-.293z"/><path fill="gray" d="m63.166 198.555-9.943 31.657.95.95 9.943-31.584-.073-.146z"/><path fill="#4D4D4D" d="m59.95 173.478 1.535-.877-1.024-.292-1.535.877z"/><path fill="#333" d="m59.95 173.478 1.535-.877-1.024-.292-1.535.877z"/><path fill="#4D4D4D" d="m67.187 210.627 1.609-.877-7.311-37.141-1.536.878z"/><path fill="#4D4D4D" d="m58.558 174.875 22.225-12.941-.585-.219-22.225 12.941z"/><path fill="#FBFFF2" d="m65.87 212.015 22.225-13.014-7.31-37.067-22.226 12.94z"/><path fill="#FFC366" d="M79.533 189.354c-2.193 1.243-3.51 4.313-2.851 6.872.219.805.658 1.536 1.243 2.047l1.316-1.974a2.75 2.75 0 0 1-.658-1.096c-.366-1.389.292-2.998 1.535-3.729a2.07 2.07 0 0 1 1.097-.292l.365-2.34c-.658-.073-1.389.146-2.047.512"/><path fill="#F15A24" d="m81.58 188.848-.365 2.339c.804 0 1.462.585 1.754 1.536.366 1.389-.292 2.997-1.535 3.728-.073.073-.146.073-.22.146l.366 2.194.44-.22c2.192-1.242 3.508-4.313 2.777-6.872-.511-1.755-1.681-2.851-3.217-2.851"/><path fill="#6D7983" d="m79.254 196.223-1.317 1.974c.95.804 2.267 1.023 3.583.438l-.366-2.193c-.658.366-1.389.219-1.9-.219"/><path fill="#3399B0" d="m79.254 196.223-1.317 1.974c.95.804 2.267 1.023 3.583.438l-.366-2.193c-.658.366-1.389.219-1.9-.219"/><path fill="#6D7983" d="m72.238 195.41-.658 2.34a1.8 1.8 0 0 1 1.39 1.462c.365 1.389-.293 2.998-1.536 3.729-.073.073-.146.073-.22.146l.366 2.193.44-.219c2.192-1.243 3.508-4.314 2.777-6.873-.365-1.535-1.316-2.559-2.559-2.778"/><path fill="#3399B0" d="m72.238 195.41-.658 2.34a1.8 1.8 0 0 1 1.39 1.462c.365 1.389-.293 2.998-1.536 3.729-.073.073-.146.073-.22.146l.366 2.193.44-.219c2.192-1.243 3.508-4.314 2.777-6.873-.365-1.535-1.316-2.559-2.559-2.778"/><path fill="#FFC366" d="M66.823 199.664a6.26 6.26 0 0 0-.073 3.071c.585 2.339 2.632 3.363 4.752 2.486l-.365-2.194c-1.097.512-2.267-.073-2.56-1.316-.145-.512-.145-1.096 0-1.681z"/><path fill="#F15A24" d="M69.606 195.865c-1.316.732-2.34 2.194-2.778 3.802l1.828.366c.22-.877.804-1.682 1.535-2.047.439-.293.95-.366 1.39-.22l.657-2.339q-1.315-.33-2.632.438"/><path fill="#333" d="m58.558 174.879-.585-.219 7.238 37.141.658.219z"/><path fill="gray" d="M68.722 219.99a1 1 0 0 0-.292-.22l-9.505-5.483c-.146-.073-.292-.146-.365-.146a3.6 3.6 0 0 1-.293.804c-.073.146-.073.292-.146.439.146.365.512.731.877.95l9.505 5.483c.292.147.512.22.731.147a3.8 3.8 0 0 1-.512-1.974"/><path fill="#F2E8DF" d="m78.735 160.91-22.153 12.941c.95-.512 2.12.658 2.047 1.024l19.228-11.186 3.071-1.755c-.073-.439-1.243-1.608-2.193-1.024"/><path fill="#6D7983" d="m66.53 188.98-.219.146-.073-.292.22-.146zM66.899 191.031l-.22.147-.073-.512.22-.146zm-.22-1.023-.22.146-.072-.512.219-.146zM67.04 191.824l-.147.146-.073-.293.147-.146zM70.117 186.925l-.22.073-.073-.292.22-.073zM70.486 188.977l-.22.146-.073-.512.22-.146zm-.147-1.024-.219.146-.073-.511.22-.147zM70.699 189.78l-.22.073-.073-.293.22-.146zM74.425 179.554l-.22.073-.072-.292.22-.073zM75.67 185.843l-.219.147-.146-.658.22-.147zm-.292-1.243-.22.147-.146-.658.22-.147zm-.22-1.316-.219.147-.146-.658.22-.147zm-.219-1.242-.22.146-.145-.658.219-.146zm-.292-1.243-.22.146-.146-.658.22-.146zM75.813 186.795l-.146.073-.073-.292.22-.146zM77.356 172.601l-.22.073v-.292l.147-.073zM79.554 183.57l-.219.147-.146-.585.22-.147zm-.219-1.243-.22.147-.145-.585.219-.146zm-.22-1.169-.219.146-.146-.585.22-.146zm-.292-1.243-.219.146-.146-.585.22-.146zm-.219-1.243-.22.146-.146-.585.22-.146zm-.293-1.17-.219.146-.146-.585.22-.146zm-.219-1.243-.22.146-.145-.584.219-.147zm-.22-1.243-.219.147-.146-.585.22-.146zm-.292-1.169-.219.146-.146-.585.22-.146zM79.769 184.519l-.22.073-.072-.292.219-.073z"/><path fill="#D93035" d="M65.362 192.346h-.366l1.17-3.729 3.655-2.339.512-4.899 3.802-2.266 2.632-6.215.365.074-2.705 6.433-3.728 2.194-.512 4.898-3.729 2.413z"/><path fill="#D93035" d="m77.281 173.558.512-2.632-1.535 2.412z"/><path fill="#6D7983" d="m82.397 183.057-17.473 10.162-2.705-13.306.22-.073 2.631 13.087 17.254-10.09z"/><path fill="#D4BFA7" d="m216.035 134.077 66.604 38.457v-54.468l-66.604-38.457z"/><path fill="#34424B" d="m282.351 172.974-66.531-38.457c-.146-.073-.293-.292-.293-.439V79.611c0-.22.073-.366.293-.439a.63.63 0 0 1 .512 0l66.531 38.456c.146.074.292.293.292.439v54.468c0 .219-.073.365-.292.439-.073.073-.147.073-.293.073 0 0-.146 0-.219-.073m-65.727-92.413v53.225l65.508 37.798V118.36z"/><path fill="#fff" d="m260.492 114.711 16.158 9.285v32.023l-16.158-9.358z"/><path fill="#FBB03B" d="M263.141 124.569c0-2.925 2.412-3.948 5.337-2.267s5.337 5.483 5.337 8.481c0 2.924-2.413 3.948-5.337 2.266-2.925-1.754-5.337-5.556-5.337-8.48m3.29 1.9c0 1.097.95 2.559 2.047 3.217 1.096.658 2.047.293 2.047-.877 0-1.097-.951-2.559-2.047-3.217s-2.047-.292-2.047.877"/><path fill="#3399B0" d="M268.473 132.974c2.924 1.682 5.337.658 5.337-2.266 0-1.536-.658-3.363-1.828-5.045l-2.193 1.243c.438.658.658 1.316.658 1.901 0 1.097-.951 1.535-2.047.877s-2.047-2.12-2.047-3.217l-3.291-1.901c.074 2.925 2.486 6.727 5.411 8.408"/><path fill="#F15A24" d="M268.478 132.971c.512.293.95.512 1.389.658l-.877-3.655c-.147-.073-.366-.146-.512-.22-1.097-.658-2.047-2.12-2.047-3.216l-3.29-1.901c0 2.851 2.412 6.653 5.337 8.334"/><path fill="#CCC" d="m263.215 133.05 10.601 6.141c.292.146.512.073.512-.219v-.585c0-.292-.22-.585-.512-.731l-10.601-6.141c-.293-.147-.512-.074-.512.219v.585c0 .219.219.585.512.731"/><path fill="#F15A24" d="m270.086 136.999 3.729 2.12c.292.147.511.073.511-.219v-.585c0-.292-.219-.585-.511-.731l-3.729-2.12c-.292-.146-.512-.073-.512.219v.585c0 .219.22.585.512.731"/><path fill="#CCC" d="m263.215 135.245 10.601 6.141c.292.147.512.074.512-.219v-.585c0-.292-.22-.585-.512-.731l-10.601-6.141c-.293-.146-.512-.073-.512.219v.585c0 .219.219.585.512.731"/><path fill="#3399B0" d="m271.184 139.847 2.632 1.535c.292.146.511.073.511-.219v-.585c0-.293-.219-.585-.511-.731l-2.632-1.536c-.293-.146-.512-.073-.512.22v.585c0 .219.219.585.512.731"/><path fill="#CCC" d="m263.215 137.511 10.601 6.141c.292.146.512.073.512-.219v-.585c0-.293-.22-.585-.512-.731l-10.601-6.142c-.293-.146-.512-.073-.512.22v.585c0 .219.219.585.512.731"/><path fill="#6D7983" d="m269.43 141.089 4.386 2.486c.293.146.512.073.512-.22v-.585c0-.292-.219-.584-.512-.731l-4.386-2.485c-.293-.147-.512-.074-.512.219v.585c.073.219.292.585.512.731"/><path fill="#CCC" d="m263.215 139.78 10.601 6.142c.292.146.512.073.512-.22v-.585c0-.292-.22-.584-.512-.731l-10.601-6.141c-.293-.146-.512-.073-.512.219v.585c0 .22.219.512.512.731"/><path fill="#6D7983" d="m271.844 144.749 1.901 1.097c.292.146.511.073.511-.22v-.584c0-.293-.219-.585-.511-.732l-1.901-1.096c-.293-.146-.512-.073-.512.219v.585c.073.219.292.585.512.731"/><path fill="#fff" d="M265.254 125.742c0 1.827 1.462 4.094 3.29 5.117 1.828 1.024 3.29.439 3.29-1.389 0-1.827-1.462-4.094-3.29-5.117-1.828-1.024-3.29-.439-3.29 1.389"/><path fill="#6D7983" d="m272.863 151.103 1.024.585v-4.314l-1.024-.585z"/><path fill="#F15A24" d="m271.254 150.159.95.585v-2.632l-.95-.585z"/><path fill="#3399B0" d="m269.645 149.211.95.585v-3.363l-.95-.585z"/><path fill="#6D7983" d="m268.035 148.332.951.512v-3.802l-.951-.585zM266.355 147.379l1.024.511v-2.339l-1.024-.512z"/><path fill="#3399B0" d="m264.742 146.431.951.512v-4.241l-.951-.585z"/><path fill="#6D7983" d="m263.137 145.485.95.585v-3.29l-.95-.585z"/><path fill="#fff" d="m219.328 91.969 16.158 9.358v31.95l-16.158-9.359z"/><path fill="#F15A24" d="M227.518 100.231c1.024.584 2.047 1.462 2.924 2.558l-1.389 2.121a7 7 0 0 0-1.608-1.389c-1.828-1.097-3.363-.22-3.363 1.9l-2.852-1.608c.074-3.948 2.852-5.556 6.288-3.582"/><path fill="#6D7983" d="M224.157 105.428c0 1.243.512 2.632 1.389 3.875l-1.681 1.681c-1.609-2.266-2.559-4.971-2.486-7.238z"/><path fill="#3399B0" d="M224.157 105.428c0 1.243.512 2.632 1.389 3.875l-1.681 1.681c-1.609-2.266-2.559-4.971-2.486-7.238z"/><path fill="#FFC366" d="M230.52 102.789c1.974 2.413 3.217 5.483 3.217 8.115 0 3.948-2.778 5.484-6.214 3.51-1.316-.731-2.559-1.974-3.656-3.436l1.682-1.682c.585.804 1.243 1.462 1.974 1.901 1.828 1.097 3.363.219 3.363-1.901 0-1.389-.658-3.071-1.755-4.387z"/><path fill="#333" d="m232.195 121.434 1.024.584v6.215l-1.024-.585z"/><path fill="#3399B0" d="m231.18 123.332 1.023.658v3.656l-1.023-.585z"/><path fill="#F15A24" d="m230.074 122.449 1.097.585v4.021l-1.097-.658z"/><path fill="#6D7983" d="m229.055 121.434 1.023.584v4.387l-1.023-.585z"/><path fill="#F15A24" d="m228.031 120.117 1.024.585v5.118l-1.024-.585z"/><path fill="#3399B0" d="m227.008 121.211 1.023.585v3.436l-1.023-.585z"/><path fill="#6D7983" d="m225.984 120.918 1.024.585v3.144l-1.024-.585z"/><path fill="#F15A24" d="m224.887 120.848 1.096.658v2.559l-1.096-.658z"/><path fill="#6D7983" d="m223.863 119.168 1.024.585v3.655l-1.024-.584z"/><path fill="#F15A24" d="m222.832 118.219 1.024.658v3.948l-1.024-.585z"/><path fill="#333" d="m221.816 118.219 1.024.585v3.436l-1.024-.585z"/><path fill="#6D7983" d="m220.797 115.949 1.023.585v5.118l-1.023-.585z"/><path fill="#333" d="m233.233 120.923-2.12-1.243v1.535l2.12 1.243zm-2.047.219v-1.389l2.047 1.17v1.389z"/><path fill="#333" d="M229.059 119.973v-1.535l2.12 1.242v1.536zm.073-1.389v1.389l2.047 1.17v-1.389z"/><path fill="#333" d="M226.945 118.801v-1.535l2.121 1.243v1.535zm.073-1.462v1.389l2.048 1.17v-1.389z"/><path fill="#333" d="M224.902 117.559v-1.536l2.121 1.243v1.536zm.073-1.389v1.389l2.048 1.17v-1.39z"/><path fill="#333" d="M222.848 116.387v-1.535l2.12 1.242v1.536zm0-1.389v1.389l2.047 1.17v-1.389z"/><path fill="#333" d="M220.73 115.219v-1.535l2.121 1.242v1.536zm.074-1.462v1.389l2.047 1.17v-1.39zM233.233 122.384l-2.12-1.243v1.535l2.12 1.243zm-2.047.219v-1.389l2.047 1.17v1.389z"/><path fill="#333" d="M229.059 121.434v-1.536l2.12 1.243v1.536zm.073-1.389v1.389l2.047 1.17v-1.39z"/><path fill="#333" d="M226.945 120.258v-1.535l2.121 1.243v1.535zm.073-1.462v1.389l2.048 1.17v-1.389z"/><path fill="#333" d="M224.902 119.098v-1.536l2.121 1.243v1.536zm.073-1.462v1.389l2.048 1.169v-1.389z"/><path fill="#333" d="M222.848 117.86v-1.536l2.12 1.243v1.535zm0-1.39v1.39l2.047 1.169v-1.389z"/><path fill="#333" d="M220.73 116.68v-1.535l2.121 1.242v1.536zm.074-1.462v1.389l2.047 1.17v-1.39zM233.233 123.844l-2.12-1.242v1.535l2.12 1.243zm-2.047.22v-1.389l2.047 1.169v1.39z"/><path fill="#333" d="M229.059 122.895v-1.536l2.12 1.243v1.536zm.073-1.389v1.389l2.047 1.169v-1.389z"/><path fill="#333" d="M226.945 121.727v-1.536l2.121 1.243v1.536zm.073-1.462v1.389l2.048 1.169v-1.389z"/><path fill="#333" d="M224.902 120.555v-1.535l2.121 1.242v1.536zm.073-1.462v1.389l2.048 1.17v-1.39z"/><path fill="#333" d="M222.848 119.317v-1.536l2.12 1.243v1.535zm0-1.39v1.39l2.047 1.169v-1.389z"/><path fill="#333" d="M220.73 118.141v-1.536l2.121 1.243v1.536zm.074-1.462v1.389l2.047 1.169v-1.389zM233.233 125.309l-2.12-1.243v1.536l2.12 1.243zm-2.047.22v-1.389l2.047 1.169v1.389z"/><path fill="#333" d="M229.059 124.36v-1.536l2.12 1.243v1.535zm.073-1.39v1.39l2.047 1.169v-1.389z"/><path fill="#333" d="M226.945 123.188v-1.536l2.121 1.243v1.536zm.073-1.463v1.39l2.048 1.169v-1.389z"/><path fill="#333" d="M224.902 122.016v-1.536l2.121 1.243v1.536zm.073-1.462v1.389l2.048 1.169v-1.389z"/><path fill="#333" d="M222.848 120.778v-1.536l2.12 1.243v1.535zm0-1.39v1.39l2.047 1.169v-1.389z"/><path fill="#333" d="M220.73 119.606v-1.536l2.121 1.243v1.536zm.074-1.463v1.39l2.047 1.169v-1.389zM233.233 126.766l-2.12-1.243v1.536l2.12 1.243zm-2.047.22v-1.389l2.047 1.169v1.389z"/><path fill="#333" d="M229.059 125.82v-1.535l2.12 1.243v1.535zm.073-1.389v1.389l2.047 1.17v-1.389z"/><path fill="#333" d="M226.945 124.649v-1.536l2.121 1.243v1.536zm.073-1.463v1.39l2.048 1.169v-1.389z"/><path fill="#333" d="M224.902 123.481v-1.536l2.121 1.243v1.536zm.073-1.463v1.39l2.048 1.169v-1.389z"/><path fill="#333" d="M222.848 122.238v-1.535l2.12 1.243v1.535zm0-1.389v1.389l2.047 1.17v-1.389z"/><path fill="#333" d="M220.73 121.074v-1.535l2.121 1.243v1.535zm.074-1.462v1.389l2.047 1.17v-1.389z"/><path fill="#fff" d="m240.102 103.449 16.157 9.285v31.95l-16.157-9.285z"/><path fill="#F15A24" d="m251.211 113.319 3.729 2.121v-1.097l-3.729-2.12zM246.391 110.542l3.655 2.12v-1.096l-3.655-2.121zM241.492 107.687l3.656 2.12v-1.097l-3.656-2.12z"/><path fill="#fff" d="m251.211 115.223 3.729 2.12v-1.024l-3.729-2.12z"/><path fill="#F15A24" d="m246.391 112.437 3.655 2.12v-1.097l-3.655-2.12zM241.492 109.59l3.656 2.12v-1.023l-3.656-2.121z"/><path fill="#6D7983" d="m251.211 117.194 3.729 2.121v-1.097l-3.729-2.12zM246.391 114.347l3.655 2.12v-1.097l-3.655-2.12z"/><path fill="#3399B0" d="m241.492 111.565 3.656 2.121v-1.097l-3.656-2.12z"/><path fill="#F15A24" d="m251.211 119.097 3.729 2.12v-1.097l-3.729-2.12zM246.391 116.246l3.655 2.12v-1.023l-3.655-2.12zM241.492 113.464l3.656 2.12v-1.097l-3.656-2.12z"/><path fill="#3399B0" d="m251.211 120.995 3.729 2.12v-1.023l-3.729-2.194z"/><path fill="#6D7983" d="m246.391 118.214 3.655 2.12v-1.097l-3.655-2.12zM241.492 115.363l3.656 2.121v-1.024l-3.656-2.12z"/><path fill="#3399B0" d="m251.211 122.895 3.729 2.12v-1.024l-3.729-2.12z"/><path fill="#6D7983" d="m246.391 120.12 3.655 2.12v-1.096l-3.655-2.121zM241.492 117.266l3.656 2.193v-1.097l-3.656-2.12z"/><path fill="#F15A24" d="m251.211 124.87 3.729 2.12v-1.096l-3.729-2.121zM246.391 122.02l3.655 2.12v-1.024l-3.655-2.12z"/><path fill="#fff" d="m241.492 119.245 3.656 2.12v-1.096l-3.656-2.121z"/><path fill="#F15A24" d="m251.211 126.769 3.729 2.12v-1.097l-3.729-2.12z"/><path fill="#D4EEFF" d="m246.391 123.995 3.655 2.12v-1.096l-3.655-2.121z"/><path fill="#F15A24" d="m241.492 121.14 3.656 2.12v-1.097l-3.656-2.12z"/><path fill="#6D7983" d="m251.211 128.672 3.729 2.12v-1.023l-3.729-2.121zM246.391 125.897l3.655 2.121v-1.097l-3.655-2.12zM241.492 123.035l3.656 2.12v-1.023l-3.656-2.12z"/><path fill="#F15A24" d="m251.211 130.647 3.729 2.121v-1.097l-3.729-2.12zM246.391 127.796l3.655 2.12v-1.023l-3.655-2.194zM241.492 125.015l3.656 2.12v-1.097l-3.656-2.12zM251.211 115.223l3.729 2.12v-1.024l-3.729-2.12zM246.391 120.12l3.655 2.12v-1.096l-3.655-2.121zM241.492 117.266l3.656 2.193v-1.097l-3.656-2.12z"/><path fill="#fff" d="m251.211 124.87 3.729 2.12v-1.096l-3.729-2.121z"/><path fill="#F15A24" d="m246.391 122.02 3.655 2.12v-1.024l-3.655-2.12zM241.492 119.245l3.656 2.12v-1.096l-3.656-2.121z"/><path fill="#6D7983" d="m251.211 126.769 3.729 2.12v-1.097l-3.729-2.12zM246.391 123.995l3.655 2.12v-1.096l-3.655-2.121zM241.492 121.14l3.656 2.12v-1.097l-3.656-2.12z"/><path fill="#F15A24" d="m251.211 128.672 3.729 2.12v-1.023l-3.729-2.121zM246.391 125.897l3.655 2.121v-1.097l-3.655-2.12zM241.492 123.035l3.656 2.12v-1.023l-3.656-2.12z"/><path fill="#6D7983" d="m251.211 130.647 3.729 2.121v-1.097l-3.729-2.12zM246.391 127.796l3.655 2.12v-1.023l-3.655-2.194z"/><path fill="#3399B0" d="m241.492 125.015 3.656 2.12v-1.097l-3.656-2.12z"/><path fill="#6D7983" d="m251.211 132.546 3.729 2.12v-1.097l-3.729-2.12zM246.391 129.699l3.655 2.121v-1.024l-3.655-2.12zM241.492 126.917l3.656 2.12v-1.096l-3.656-2.121z"/><path fill="#F15A24" d="m251.211 134.449 3.729 2.121v-1.024l-3.729-2.12zM246.391 131.671l3.655 2.12v-1.097l-3.655-2.12z"/><path fill="#fff" d="m241.492 128.817 3.656 2.12v-1.024l-3.656-2.12z"/><path fill="#F15A24" d="m251.211 136.356 3.729 2.12v-1.024l-3.729-2.12z"/><path fill="#3399B0" d="m246.391 133.569 3.655 2.121v-1.097l-3.655-2.12z"/><path fill="#F15A24" d="m241.492 130.788 3.656 2.12v-1.096l-3.656-2.121z"/><path fill="#3399B0" d="m251.211 138.327 3.729 2.12v-1.096l-3.729-2.121z"/><path fill="#6D7983" d="m246.391 135.477 3.655 2.12v-1.024l-3.655-2.12zM241.492 132.694l3.656 2.121v-1.097l-3.656-2.12z"/><path fill="#F15A24" d="m251.211 140.222 3.729 2.12v-1.097l-3.729-2.12zM246.391 137.448l3.655 2.12v-1.096l-3.655-2.12zM241.492 134.593l3.656 2.12v-1.097l-3.656-2.12z"/><path fill="#fff" d="m147.386 49.714-110.69 63.899v-7.019l110.69-63.899z"/><path fill="#97B9CF" d="M187.009 222.181c-.731.439-.731 1.097 0 1.535l58.708 34.143c.805.439 2.048.439 2.852 0l38.968-22.518c.731-.439.731-1.097 0-1.535l-15.28-8.993c-.731-.439-1.974-.439-2.705 0l-12.137 7.019c-.804.438-2.12.438-2.924 0l-40.577-23.542c-.731-.439-1.974-.439-2.705 0z" opacity=".5"/><path fill="gray" d="m212.831 208.159 2.047 1.17c-.366-.22-.805-.147-1.389.146l-2.048-1.17c.512-.292 1.024-.366 1.39-.146"/><path fill="gray" d="m203.687 215.169-2.121-1.243 9.87-5.629 2.048 1.17z"/><path fill="#333" d="m191.481 225.327-2.047-1.243v-.877l2.047 1.17z"/><path fill="gray" d="m193.456 221.096-2.12-1.243 8.481-4.826 2.047 1.17z"/><path fill="gray" d="m191.481 224.384-2.047-1.169c0-1.243.877-2.705 1.9-3.363l2.048 1.169c-1.024.658-1.901 2.121-1.901 3.363"/><path fill="#666" d="m201.87 216.188-2.047-1.17-.073-17.62 2.047 1.243z"/><path fill="#333" d="m201.797 198.645-2.047-1.243 1.828-1.023 2.047 1.17z"/><path fill="#333" d="m203.621 197.551.073 17.62 9.797-5.703c1.096-.585 1.901-.146 1.901 1.097v.877l-23.908 13.818v-.877c0-1.243.878-2.706 1.901-3.364l8.408-4.898-.073-17.62z"/><path fill="gray" d="m281.264 229.061 2.047 1.17c-.365-.22-.804-.147-1.389.146l-2.047-1.17c.512-.292 1.024-.292 1.389-.146M256.032 245.368l-2.048-1.169 25.882-14.988 2.047 1.243z"/><path fill="#333" d="m243.901 255.526-2.12-1.169v-.951l2.12 1.243z"/><path fill="gray" d="m245.805 251.295-2.047-1.17 8.408-4.898 2.047 1.242z"/><path fill="gray" d="m243.906 254.65-2.047-1.17c0-1.243.878-2.705 1.901-3.363l2.047 1.17c-1.096.658-1.974 2.12-1.901 3.363"/><path fill="#666" d="m254.218 246.465-2.047-1.243-.073-17.546 2.047 1.17z"/><path fill="#333" d="m254.145 228.845-2.047-1.17 1.827-1.097 2.048 1.243z"/><path fill="#333" d="m255.965 227.82.073 17.62 25.881-14.988c1.097-.585 1.901-.146 1.901 1.097v.877l-39.992 23.103v-.877c0-1.243.877-2.705 1.901-3.363l8.408-4.898-.073-17.62z"/><path fill="#666" d="m202.148 208.951 1.17-.658 50.447 29.025-1.17.658z"/><path fill="#333" d="m202.148 210.204 50.447 29.025v-1.243l-50.447-29.025z"/><path fill="gray" d="m248.203 249.906-2.047-1.17 5.995-3.509 2.047 1.242z"/><path fill="#666" d="m254.198 246.472-2.047-1.243-.073-34.655 2.047 1.17z"/><path fill="#333" d="m254.125 211.747-2.047-1.17 1.828-1.097 2.047 1.243z"/><path fill="#333" d="m255.949 210.719.073 34.654-1.828 1.097-.073-34.728z"/><path fill="#666" d="m268.679 238.137-2.12-1.243v-33.265l2.047 1.243z"/><path fill="#333" d="m268.606 204.868-2.047-1.243 1.827-1.023 2.047 1.169z"/><path fill="#333" d="M270.433 203.77v33.265l-1.754 1.097-.074-33.266z"/><path fill="#D4BFA7" d="M186.499 191.84c-.073-.293.146-.658.512-.878l24.199-13.891c.732-.438 1.974-.438 2.706 0l40.576 23.542c.804.439 2.12.439 2.925 0l12.136-7.019c.731-.438 1.974-.438 2.705 0l15.28 8.993c.366.219.512.512.512.804v1.974c0 .293-.219.585-.585.804l-38.968 22.519c-.804.438-2.047.438-2.851 0l-58.635-34.216a1.22 1.22 0 0 1-.585-.805v-1.974c.073.074.073.074.073.147"/><path fill="#F2E8DF" d="M187.009 190.962c-.731.439-.731 1.097 0 1.536l58.708 34.143c.805.438 2.048.438 2.852 0l38.968-22.519c.731-.438.731-1.096 0-1.535l-15.28-8.993c-.731-.438-1.974-.438-2.705 0l-12.137 7.019c-.804.439-2.12.439-2.924 0l-40.577-23.542c-.731-.438-1.974-.438-2.705 0z"/><path fill="#0E0E14" d="M225.84 210.417c0-.073 0-.219.073-.292l3.144-4.168.219-.219a1.64 1.64 0 0 1 1.316-.146l12.868 3.29c.438.146.731.365.731.658v1.535c0 .073 0 .219-.073.292l-3.144 4.168-.219.219a1.64 1.64 0 0 1-1.316.146l-12.868-3.29c-.439-.146-.731-.365-.731-.658z"/><path fill="#748597" d="M229.357 205.737c-.073.074-.22.147-.22.22l-3.143 4.167c-.293.366 0 .731.585.951l12.867 3.29c.439.146 1.024.073 1.316-.147.073-.073.219-.146.219-.219l3.144-4.167c.293-.366 0-.731-.585-.951l-12.867-3.29c-.439-.073-.951 0-1.316.146"/><path fill="#333942" d="m217.723 181.09.073 21.641 35.532 9.066-.073-21.641zM253.258 190.15l.073 21.641.731-.951-.073-21.641z"/><path fill="#748597" d="m218.454 180.125-.731.95 35.532 9.066.731-.95z"/><path fill="#748597" d="m218.454 180.125-.731.95 35.532 9.066.731-.95z"/><path fill="#4D5865" d="M225.828 189.723v12.063l19.74 4.972v-11.991z"/><path fill="#333942" d="M245.57 194.773v11.991l.366-.512v-11.99z"/><path fill="#748597" d="m226.194 189.215-.366.512 19.74 5.044.366-.511z"/><path fill="#748597" d="m226.194 189.215-.366.512 19.74 5.044.366-.511zM232.613 200.699v9.358l4.826 1.17-.073-9.285z"/><path fill="#4D5865" d="M232.613 200.699v9.358l4.826 1.17-.073-9.285z"/><path fill="#0E0E14" d="m237.371 201.947.073 9.285.951-1.243-.293-8.993z"/><path fill="#6F819A" d="m233.271 199.824-.658.878 4.753 1.242.731-.95z"/><path fill="#AD3814" d="m198.2 188.409 1.462-1.462h1.097c2.12-.731 4.752-.731 6.873 0h1.096l1.462 1.462c1.463 1.535 1.097 3.436-1.096 4.752-2.705 1.536-7.019 1.536-9.651 0-2.339-1.316-2.705-3.217-1.243-4.752"/><path fill="#FF7847" d="M204.195 191.409c2.867 0 5.191-1.342 5.191-2.997 0-1.656-2.324-2.998-5.191-2.998s-5.191 1.342-5.191 2.998c0 1.655 2.324 2.997 5.191 2.997"/><path fill="#1A1A1A" d="M200.535 187.761c0 .512 1.097.512 1.17 0v-6.653c0-1.17.366-2.267.95-3.217l4.899-7.457-.731-.512-4.899 7.457a6.5 6.5 0 0 0-1.096 3.656z"/><path fill="#4D4D4D" d="m216.102 173.725-5.264-4.826c-.073-.073-.366-.073-.731.147-.074 0-.147.073-.147.073l-1.608-1.463c-.073-.073-.073-.073-.219 0-.293.074-.585.147-.878.147-.073 0-.146.073-.219.073-.439.219-1.097.877-1.389 1.389-.146.219-.22.365-.22.512 0 .146 0 .292-.073.438 0 .147 0 .293-.073.366v.073c0 .073 0 .146.073.219l1.609 1.536c-.22.438-.22.658-.073.804l5.264 4.825c.073.073.365.073.731-.146.877-.512 2.12-1.755 2.851-2.851.439-.731.512-1.17.366-1.316"/><path fill="#AD3814" d="M215.738 174.978c-.658 1.097-1.974 2.34-2.851 2.852-.366.219-.585.219-.731.146l-2.852-2.632-.95-.877-1.389-1.316c.073.073.365.073.658-.147.146-.073.219-.146.365-.219.805-.585 1.828-1.682 2.486-2.632.439-.658.512-1.097.366-1.243l.146.146.95.878 4.095 3.801c.219.147.146.585-.293 1.243"/><path fill="#F15A24" d="M210.179 169.055c.877-.512 1.023 0 .292 1.097-.658 1.096-1.974 2.339-2.851 2.851s-1.024 0-.293-1.097c.658-1.096 1.974-2.412 2.852-2.851"/><path fill="#FF7847" d="M207.108 167.878c.438-.22.511 0 .146.511-.366.512-.951 1.17-1.389 1.39s-.512 0-.147-.585c.366-.439.951-1.097 1.39-1.316"/><path fill="#AD3814" d="m208.35 167.656 1.828 1.682c.146.146 0 .438-.292.95-.512.804-1.463 1.755-2.121 2.12-.292.147-.438.147-.511.074l-1.828-1.682c.073.073.292.073.512-.073.658-.366 1.608-1.316 2.12-2.12.365-.512.438-.878.292-.951"/><path fill="#F15A24" d="M207.327 167.804c.292-.073.585-.146.877-.146.366-.073.366.292-.073.95-.512.804-1.462 1.755-2.12 2.12-.439.22-.585.147-.585-.073v-.073c0-.146 0-.292.073-.365 0-.147 0-.293.073-.439 0 .146.073.219.366.073.438-.219 1.096-.877 1.389-1.389q.328-.768 0-.658M208.367 172.622l4.899 4.679c.365-.219.585-.439.877-.804l-4.898-4.606c-.293.292-.585.511-.878.731"/><path fill="#C7B299" d="m273.294 211.447-11.697-6.873h-.074l11.771 6.8z"/><path fill="#AD3814" d="m273.435 211.08-11.771-6.799 8.993-5.191 11.771 6.799z"/><path fill="#FF7847" d="m273.357 208.813-11.771-6.872 9.066-5.191 11.771 6.799z"/><path fill="#FF7847" d="m273.288 208.81-11.698-6.872v.073c-.22.365-.366.731-.439 1.169-.073.585.073 1.097.439 1.389l11.771 6.8c-.293-.293-.512-.804-.439-1.389 0-.439.146-.805.366-1.17"/><path fill="#fff" d="M262.907 204.944c-.219-.219-.366-.584-.292-1.096 0-.293.146-.585.219-.804l-1.17-.732c-.146.22-.219.512-.219.805-.073.438.073.877.292 1.096z"/><path fill="#AD3814" d="M273.069 209.919c-.073.293 0 .585.073.804.073.147.146.293.219.366l8.993-5.191v.293l-9.066 5.264h-.073c-.146-.147-.292-.293-.366-.512-.073-.22-.146-.585-.073-.878 0-.073 0-.146.073-.219a2.3 2.3 0 0 1 .439-.95v-.073l.366-.22 7.896-4.606.804-.438v.292l-.804.439-7.677 4.459-.512.293c-.073.219-.219.512-.292.877"/><path fill="#FBFFF2" d="m281.475 204.352-7.604 4.386v1.609l7.604-4.387z"/><path fill="#F2E8DF" d="M273.871 208.742v1.609l-.805-.439c.074-.292.147-.585.293-.877z"/><path fill="#fff" d="m274.019 200.403-5.557 3.144-2.997-1.755 5.483-3.144z"/><path fill="#C7B299" d="m272.763 208.454-11.698-6.872h-.073l11.771 6.799z"/><path fill="#34424B" d="m272.927 208.084-11.771-6.799 8.993-5.191 11.771 6.799z"/><path fill="#333" d="m272.849 205.825-11.771-6.872 9.066-5.191 11.771 6.799zM272.772 205.826l-11.698-6.873v.073a3.3 3.3 0 0 0-.439 1.17c-.073.585.074 1.097.439 1.389l11.771 6.799c-.292-.292-.512-.804-.439-1.389 0-.365.147-.804.366-1.169"/><path fill="#F2E8DF" d="M262.391 202.027c-.219-.22-.365-.585-.292-1.097 0-.293.146-.585.219-.804l-1.169-.731c-.147.219-.22.511-.22.804-.073.438.073.877.293 1.096zM270.651 206.622a2.6 2.6 0 0 1-.146-.804c0-.146.073-.292.073-.439l-6.142-3.582c-.073.146-.073.292-.073.439 0 .292 0 .584.146.804z"/><path fill="gray" d="M272.553 206.911c-.073.293 0 .585.073.805.073.146.147.292.22.365l8.992-5.191v.293l-9.065 5.264h-.074c-.146-.146-.292-.293-.365-.512s-.146-.585-.073-.877c0-.073 0-.147.073-.22.073-.365.219-.658.439-.95v-.073l.365-.22 7.896-4.606.804-.438v.292l-.804.439-7.677 4.46-.511.292c-.073.219-.22.512-.293.877"/><path fill="#F2E8DF" d="m280.959 201.359-7.604 4.387v1.608l7.604-4.386zM273.355 205.746v1.609l-.804-.439c.073-.293.146-.585.292-.877z"/><path fill="#97B9CF" d="m210.628 275.112-62.875-36.263c-.805-.439-2.048-.439-2.852 0l-25.369 14.841c-.805.439-.805 1.17 0 1.682l18.497 10.674c-5.191-.877-11.04-.073-15.134 2.266-5.995 3.51-5.995 9.139 0 12.575 5.995 3.51 15.792 3.51 21.787 0 4.094-2.339 5.41-5.702 3.875-8.773l14.33 8.262c.877.511.877 1.316 0 1.827l-17.328 10.09c-.804.438-.804 1.17 0 1.681l16.523 9.432c.805.438 2.047.438 2.852 0l45.621-26.54c.877-.511.877-1.316.073-1.754" opacity=".5"/><path fill="gray" d="m150.888 239.06 2.12 1.243c-.365-.22-.877-.146-1.462.146l-2.12-1.243c.585-.365 1.096-.365 1.462-.146"/><path fill="gray" d="m141.381 246.388-2.193-1.243 10.235-5.922 2.193 1.243z"/><path fill="#333" d="m126.682 258.076-2.121-1.243-.073-.95 2.194 1.243z"/><path fill="gray" d="m128.659 253.684-2.12-1.243 10.747-6.214 2.194 1.242z"/><path fill="gray" d="m126.691 257.127-2.121-1.243c0-1.243.878-2.851 1.974-3.509l2.121 1.243c-1.097.731-1.974 2.266-1.974 3.509"/><path fill="#666" d="m139.478 247.477-2.193-1.243v-18.351l2.12 1.243z"/><path fill="#333" d="m139.405 229.121-2.12-1.243 1.901-1.097 2.12 1.243z"/><path fill="#333" d="m141.306 228.023.073 18.351 10.235-5.922c1.097-.658 2.048-.146 2.048 1.17v.951l-26.978 15.499v-.95c0-1.243.877-2.852 1.974-3.51l10.747-6.214-.073-18.351z"/><path fill="#666" d="m139.781 239.946 1.243-.731 52.64 30.268-1.243.731z"/><path fill="#333" d="m139.781 241.192 52.64 30.268v-1.243l-52.64-30.268z"/><path fill="gray" d="m205.587 270.58 2.12 1.243c-.365-.219-.877-.146-1.462.147l-2.12-1.243c.585-.293 1.097-.293 1.462-.147M196.003 277.888l-2.12-1.243 10.235-5.922 2.194 1.316z"/><path fill="#333" d="m168.734 296.977-2.121-1.316v-.95l2.121 1.316z"/><path fill="gray" d="m170.787 292.511-2.193-1.243 23.395-13.526 2.121 1.243zM168.734 296.03l-2.121-1.243c0-1.243.878-2.852 1.974-3.51l2.121 1.243c-1.097.658-1.974 2.194-1.974 3.51"/><path fill="#666" d="m194.107 278.992-2.12-1.243-.073-28.659 2.193 1.243z"/><path fill="#333" d="m194.107 250.328-2.193-1.243 1.901-1.097 2.193 1.243z"/><path fill="#333" d="m196.002 249.23.073 28.733 10.236-5.922c1.096-.658 2.047-.146 2.047 1.17v.95l-39.553 22.811v-.95c0-1.243.877-2.852 1.974-3.51l23.395-13.525-.073-28.733z"/><path fill="#666" d="m178.755 287.901-2.194-1.243-.073-28.732 2.194 1.243z"/><path fill="#333" d="m178.682 259.168-2.194-1.243 1.901-1.097 2.194 1.243z"/><path fill="#333" d="m180.584 258.066.074 28.733-1.901 1.097-.073-28.733z"/><path fill="#D4BFA7" d="M211.208 244.409c.073-.366-.147-.731-.585-1.024l-62.876-36.263c-.804-.439-2.047-.439-2.851 0l-25.37 14.842c-.365.219-.585.511-.585.804v2.12c0 .292.22.585.585.804l43.136 24.931-17.108 9.943c-.366.22-.585.512-.585.804v2.121c0 .292.219.585.585.804l16.523 9.431c.804.439 2.047.439 2.851 0l45.622-26.539c.438-.219.585-.585.585-.877v-2.121c.073.147.073.22.073.22"/><path fill="#F2E8DF" d="M210.621 243.384c.878.512.878 1.243 0 1.755L165 271.678c-.804.439-2.047.439-2.851 0l-16.523-9.431c-.805-.439-.805-1.17 0-1.682l17.327-10.089c.877-.512.877-1.316 0-1.828l-43.428-25.077c-.804-.439-.804-1.17 0-1.682l25.37-14.841c.804-.439 2.047-.439 2.851 0z"/><path fill="#141C26" d="m139.281 224.955 20.691 11.99 13.087-7.603v-.731l-20.691-11.259-13.087 6.872z"/><path fill="#ADC1D9" d="m139.281 224.221 20.691 11.99 13.087-7.604-20.691-11.99z"/><path fill="#3B5E7D" d="m169.992 227.95-16.45-9.505-7.53 4.314 16.45 9.577z"/><path fill="#141C26" d="m169.618 227.942-1.243-.731-1.023.512 1.316.804zM168.157 227.067l-1.316-.731-.95.585 1.316.731zM166.7 226.188l-1.316-.731-.95.585 1.242.731zM165.158 225.387l-1.243-.731-.95.512 1.243.731zM163.696 224.508l-1.243-.731-1.023.585 1.316.731zM162.239 223.63l-1.316-.732-.95.585 1.243.731zM160.774 222.829l-1.316-.731-.95.511 1.243.732zM159.24 221.95l-1.243-.731-.95.585 1.243.731zM157.778 221.075l-1.243-.731-1.023.585 1.316.731zM156.313 220.27l-1.316-.731-.95.512 1.243.731zM154.779 219.391l-1.243-.731-.95.585 1.243.731zM167.865 228.965l-1.243-.731-.95.512 1.243.731zM166.403 228.087l-1.243-.732-1.023.585 1.316.731zM164.946 227.215l-1.316-.731-.95.585 1.243.731zM163.412 226.406l-1.243-.804-.95.584 1.243.732zM161.943 225.536l-1.243-.731-.95.511 1.243.805zM160.477 224.657l-1.243-.731-1.023.585 1.316.731zM159.02 223.778l-1.316-.731-.95.585 1.243.731zM157.482 222.973l-1.242-.731-.951.512 1.243.731zM156.028 222.094l-1.243-.731-1.023.585 1.316.731zM154.563 221.215l-1.243-.731-1.023.585 1.316.731zM153.098 220.415l-1.316-.731-.95.511 1.243.731zM166.77 229.548l-1.243-.732-1.023.585 1.316.731zM165.309 228.755l-1.316-.732-.95.512 1.243.731zM163.771 227.876l-1.242-.731-.951.584 1.243.732zM162.307 226.993l-1.243-.731-.951.585 1.243.731zM160.845 226.188l-1.243-.731-1.024.512 1.316.731zM159.388 225.317l-1.316-.731-.951.585 1.243.731zM157.85 224.43l-1.243-.731-.951.585 1.243.731zM156.389 223.636l-1.243-.804-.951.585 1.243.731zM154.927 222.758l-1.243-.731-1.024.512 1.316.804zM153.458 221.876l-1.316-.731-.951.584 1.243.732zM165.669 230.212l-1.316-.732-.951.585 1.243.731zM164.212 229.41l-1.316-.805-.951.585 1.243.731zM162.678 228.532l-1.243-.731-.951.512 1.243.731zM161.216 227.653l-1.243-.731-1.024.585 1.316.731zM159.747 226.782l-1.316-.731-.951.585 1.243.731zM158.217 225.977l-1.243-.731-.951.512 1.243.731zM156.752 225.094l-1.243-.731-.95.585 1.242.731zM155.29 224.212l-1.243-.732-1.024.585 1.316.731zM153.833 223.411l-1.316-.731-.951.511 1.243.732z"/><path fill="#141C26" d="m151.927 220.997-1.097.658 1.462.877-.95.585-1.462-.877-.366-.22-.877-.511.804-.512.146-.073 1.097-.658zM162.672 229.773l.365.22 1.535.877-1.023.585-1.462-.877-.366-.22-.877-.511.95-.585zM161.579 229.192l-1.243-.731-1.024.512 1.317.731zM160.114 228.309l-1.316-.731-.95.585 1.243.731zM158.653 227.43l-1.316-.731-.95.585 1.243.731zM157.115 226.632l-1.243-.804-.95.585 1.243.731zM155.657 225.747l-1.243-.731-1.023.511 1.316.732zM154.196 224.872l-1.316-.731-.95.585 1.243.731zM152.662 223.997l-1.243-.731-.95.585 1.243.731zM149.955 222.459l.219.073 1.023.658-.95.512-1.024-.585-.219-.146-1.535-.804 1.023-.585zM163.412 231.528l-1.243-.731-.95.512 1.243.731zM161.946 230.645l-1.243-.731-1.023.585 1.316.731zM160.477 229.774l-1.316-.731-.95.585 1.316.731zM152.44 225.17l.658.366.147.146 1.316.731.219.073 1.243.731.219.147 1.243.731 1.535.877-1.023.512-1.462-.804-1.243-.732-.22-.146-1.316-.731-.219-.146-1.243-.731-.219-.073-.585-.366-.658-.365.95-.585zM151.564 224.657l-1.242-.731-.951.585 1.243.731zM150.098 223.851l-1.242-.804-1.024.585 1.316.731zM148.638 222.973l-1.316-.731-.951.512 1.243.804z"/><path fill="#fff" d="m169.618 227.798-1.243-.732-1.023.585 1.316.731z"/><path fill="#96AAC3" d="m168.157 226.923-1.316-.732-.95.585 1.316.731zM166.7 226.044l-1.316-.732-.95.585 1.242.731zM165.158 225.243l-1.243-.731-.95.511 1.243.732zM163.696 224.364l-1.243-.731-1.023.585 1.316.731zM162.239 223.485l-1.316-.731-.95.585 1.243.731zM160.774 222.684l-1.316-.731-.95.512 1.243.731zM159.24 221.805l-1.243-.731-.95.585 1.243.731zM157.778 220.93l-1.243-.731-1.023.585 1.316.731zM156.313 220.126l-1.316-.731-.95.511 1.243.731zM154.779 219.247l-1.243-.731-.95.585 1.243.731zM167.865 228.821l-1.243-.731-.95.512 1.243.731zM166.403 227.942l-1.243-.731-1.023.585 1.316.731zM164.946 227.071l-1.316-.731-.95.585 1.243.731zM163.412 226.266l-1.243-.731-.95.512 1.243.731zM161.943 225.391l-1.243-.731-.95.512 1.243.804zM160.477 224.512l-1.243-.731-1.023.585 1.316.731zM159.02 223.633l-1.316-.731-.95.585 1.243.731zM157.482 222.829l-1.242-.731-.951.511 1.243.732zM156.028 221.95l-1.243-.731-1.023.585 1.316.731zM154.563 221.071l-1.243-.731-1.023.585 1.316.731zM153.098 220.27l-1.316-.731-.95.512 1.243.731zM166.77 229.403l-1.243-.731-1.023.585 1.316.731zM165.309 228.61l-1.316-.731-.95.512 1.243.731zM163.771 227.731l-1.242-.731-.951.585 1.243.731zM162.307 226.848l-1.243-.731-.951.585 1.243.731zM160.845 226.044l-1.243-.732-1.024.512 1.316.731zM159.388 225.173l-1.316-.732-.951.585 1.243.731zM157.85 224.286l-1.243-.731-.951.585 1.243.731zM156.389 223.485l-1.243-.731-.951.512 1.243.731zM154.927 222.614l-1.243-.731-1.024.512 1.316.804zM153.458 221.731l-1.316-.731-.951.585 1.243.731zM165.669 230.067l-1.316-.731-.951.585 1.243.731zM164.212 229.265l-1.316-.804-.951.585 1.243.731zM162.678 228.387l-1.243-.731-.951.512 1.243.804zM161.216 227.508l-1.243-.731-1.024.585 1.316.731zM159.747 226.637l-1.316-.731-.951.585 1.243.731zM158.217 225.833l-1.243-.731-.951.511 1.243.731zM156.752 224.95l-1.243-.731-.95.585 1.242.731zM155.29 224.067l-1.243-.731-1.024.585 1.316.731zM153.833 223.266l-1.316-.731-.951.512 1.243.731z"/><path fill="#fff" d="m151.927 220.852-1.097.658 1.462.878-.95.584-1.462-.877-.366-.219-.877-.512.804-.512.146-.073 1.097-.658zM162.672 229.629l.365.219 1.535.878-1.023.585-1.462-.878-.366-.219-.877-.512.95-.585z"/><path fill="#96AAC3" d="m161.579 229.048-1.243-.732-1.024.512 1.317.731zM160.114 228.165l-1.316-.731-.95.584 1.243.732zM158.653 227.286l-1.316-.731-.95.585 1.243.731zM157.115 226.488l-1.243-.804-.95.584 1.243.732zM155.657 225.602l-1.243-.731-1.023.512 1.316.804zM154.196 224.727l-1.316-.731-.95.585 1.243.731zM152.662 223.852l-1.243-.731-.95.585 1.243.731z"/><path fill="#fff" d="m149.955 222.315.219.073 1.023.658-.95.512-1.024-.585-.219-.146-1.535-.805 1.023-.584zM163.412 231.383l-1.243-.731-.95.512 1.243.731z"/><path fill="#96AAC3" d="m161.946 230.501-1.243-.731-1.023.584 1.316.732zM160.477 229.63l-1.316-.732-.95.585 1.316.731z"/><path fill="#fff" d="m152.44 225.026.658.365.147.146 1.316.732.219.073 1.243.731.219.146 1.243.731 1.535.877-1.023.512-1.462-.804-1.243-.731-.22-.146-1.316-.731-.219-.147-1.243-.731-.219-.073-.585-.365-.658-.366.95-.585z"/><path fill="#96AAC3" d="m151.564 224.512-1.242-.731-.951.585 1.243.731zM150.098 223.708l-1.242-.731-1.024.511 1.316.731z"/><path fill="#fff" d="m148.638 222.829-1.316-.731-.951.511 1.243.805z"/><path fill="#141C26" d="m152.949 216.47 20.106 12.137.585-.146 4.021-14.842-20.764-11.99-.585.219z"/><path fill="#96AAC3" d="m152.367 216.62 20.691 11.99 4.021-14.841-20.764-11.917z"/><path fill="#fff" d="m153.098 216.322 19.593 11.333.074-.22 3.582-13.379-19.374-11.186-.293-.073z"/><path fill="#3B5E7D" d="m153.395 216.254 19.374 11.186 3.582-13.379-9.65-5.483-9.724-5.703zM147.977 227.95l4.898 2.851 3.071-1.754-4.899-2.852z"/><path fill="#fff" d="m176.127 214.206-1.17 4.314-1.535-5.922zM170.638 210.991l3.29 11.551-.658 2.267-4.094-14.696zM156.457 205.281l4.606 15.207-4.021-2.266-2.12-7.165zM160.184 204.993l5.264 18.058-1.316-.731-5.191-18.058zM168.373 209.668l4.606 16.45-.366 1.096-4.094-2.412-5.191-17.986z" opacity=".3"/><path fill="#C7B299" d="m190.012 252.731 12.282-7.165-12.282 7.092z"/><path fill="#AD3814" d="m189.87 252.364 12.283-7.165-9.359-5.41-12.282 7.165z"/><path fill="#FF7847" d="m190.016 249.954 12.283-7.092-9.505-5.483-12.282 7.092zM190.007 250.032l12.209-7.165v.073c.22.366.439.805.439 1.243.073.585-.073 1.17-.439 1.462l-12.282 7.092c.365-.292.511-.804.438-1.462.073-.512-.073-.877-.365-1.243"/><path fill="#fff" d="M200.84 245.999c.219-.219.365-.658.292-1.096 0-.293-.146-.585-.292-.805l1.243-.731c.146.22.219.512.292.804.073.512-.073.878-.292 1.097z"/><path fill="#AD3814" d="M190.229 251.127c.073.292 0 .585-.073.877-.073.146-.147.293-.22.366l-9.358-5.41v.292l9.505 5.483h.073c.146-.146.292-.292.365-.511.073-.293.146-.585.073-.878 0-.073 0-.146-.073-.292a2.3 2.3 0 0 0-.438-.951v-.073l-.366-.219-8.262-4.752-.877-.512v.292l.877.512 8.043 4.606.511.293c.074.219.22.511.22.877"/><path fill="#FBFFF2" d="m181.531 245.34 7.896 4.533v1.681l-7.896-4.533z"/><path fill="#F2E8DF" d="M189.426 249.887v1.681l.804-.511c-.073-.293-.146-.658-.292-.878z"/><path fill="#fff" d="m189.277 241.179 5.776 3.29 3.144-1.827-5.703-3.29z"/><path fill="#FBFFF2" d="m181.52 245.053 8.261 4.752 10.455-6.068-8.262-4.753z"/><path fill="#F2E8DF" d="m181.52 244.76 8.261 4.752 10.455-6.068-8.262-4.753z"/><path fill="#FBFFF2" d="m181.52 244.471 8.261 4.752 10.455-6.068-8.262-4.753z"/><path fill="#F2E8DF" d="m181.52 244.178 8.261 4.752 10.455-6.068-8.262-4.753z"/><path fill="#FBFFF2" d="m181.52 243.885 8.261 4.752 10.455-6.068-8.262-4.753z"/><path fill="#F2E8DF" d="m181.52 243.596 8.261 4.752 10.455-6.068-8.262-4.753z"/><path fill="#FBFFF2" d="m181.52 243.295 8.261 4.752 10.455-6.068-8.262-4.752z"/><path fill="#F2E8DF" d="m181.52 243.01 8.261 4.752 10.455-6.068-8.262-4.753z"/><path fill="#FBFFF2" d="m181.52 242.714 8.261 4.752 10.455-5.995-8.262-4.752z"/><path fill="#FBFFF2" d="m203.164 239.792-6.361 4.533-11.186-4.46 6.288-4.533z"/><path fill="#F2E8DF" d="m199.654 242.503-7.457 5.922-11.259-4.533 7.53-5.849z"/><path fill="#F2E8DF" d="m202.138 242.939-8.261 4.753-10.455-6.069 8.261-4.752z"/><path fill="#FBFFF2" d="m202.138 241.187-7.384 5.996-11.332-4.387 7.384-5.995z"/><path fill="#F2E8DF" d="m202.138 242.353-8.261 4.753-10.455-6.069 8.261-4.752z"/><path fill="#FBFFF2" d="m202.138 242.064-8.261 4.753-10.455-6.069 8.261-4.752z"/><path fill="#F2E8DF" d="m202.138 241.771-8.261 4.753-10.455-6.069 8.261-4.752z"/><path fill="#FBFFF2" d="m202.138 241.474-8.261 4.753-10.455-6.069 8.261-4.752z"/><path fill="#F2E8DF" d="m202.066 241.769-8.481 4.241-10.089-6.653 8.481-4.314z"/><path fill="#FBFFF2" d="m202.138 240.892-8.261 4.753-10.455-6.069 8.261-4.752z"/><path fill="#F2E8DF" d="m202.138 240.603-8.261 4.753-10.455-6.069 8.261-4.752z"/><path fill="#FBFFF2" d="m202.138 240.307-8.261 4.752-10.455-6.068 8.261-4.753z"/><path fill="#F2E8DF" d="m202.138 240.014-8.261 4.752-10.455-6.068 8.261-4.753z"/><path fill="#FBFFF2" d="m202.138 239.721-8.261 4.752-10.455-6.068 8.261-4.753z"/><path fill="#F2E8DF" d="m202.138 239.431-8.261 4.753-10.455-6.068 8.261-4.753z"/><path fill="#FBFFF2" d="m202.138 237.826-7.53 5.849-11.186-4.533 7.53-5.849z"/><path fill="#F2E8DF" d="m202.138 238.846-8.261 4.752-10.455-6.068 8.261-4.753z"/><path fill="#FBFFF2" d="m202.138 238.553-8.261 4.752-10.455-6.068 8.261-4.753z"/><path fill="#C7B299" d="m192.415 244.251-12.282-7.092v-.073l12.209 7.165z"/><path fill="#34424B" d="m192.491 243.873-12.21-7.092 9.358-5.41 12.283 7.092z"/><path fill="#333" d="m192.415 241.536-12.282-7.165 9.504-5.41 12.21 7.092z"/><path fill="#333" d="m192.417 241.54-12.21-7.165v.073c-.219.366-.439.804-.439 1.243-.073.585.073 1.17.439 1.462l12.283 7.092c-.366-.292-.512-.804-.439-1.462-.073-.439.073-.878.366-1.243"/><path fill="#F2E8DF" d="M181.527 237.523c-.219-.22-.366-.658-.292-1.097 0-.292.146-.585.292-.804l-1.243-.731c-.146.219-.219.511-.292.804-.073.512.073.877.292 1.097zM190.15 242.345c-.146-.219-.146-.511-.146-.877 0-.146.073-.292.073-.439l-6.434-3.728c-.073.146-.073.292-.073.438 0 .366 0 .658.147.878z"/><path fill="gray" d="M192.197 242.713c-.073.292 0 .585.073.877.073.146.146.293.219.366l9.358-5.411v.293l-9.504 5.483h-.073c-.146-.146-.293-.292-.366-.512-.073-.292-.146-.584-.073-.877 0-.073 0-.146.073-.292.073-.366.22-.658.439-.951v-.073l.365-.219 8.262-4.752.877-.512v.292l-.804.439-8.042 4.606-.512.292c-.146.22-.292.585-.292.951"/><path fill="#F2E8DF" d="M200.896 236.934 193 241.466v1.682l7.896-4.606z"/><path fill="#F2E8DF" d="M193.003 241.469v1.681l-.804-.511c.073-.293.146-.658.293-.878z"/><path fill="#fff" d="m193.069 232.765-5.703 3.29-3.143-1.828 5.702-3.289zM186.717 259.681l-7.969 2.047-6.58-6.361 7.969-2.047z"/><path fill="#C7B299" d="m172.312 260.782 12.283-7.165-12.209 7.165z"/><path fill="gray" d="m172.236 260.424 12.21-7.092-9.359-5.41-12.282 7.092z"/><path fill="#333" d="m172.31 258.005 12.283-7.092-9.505-5.483-12.209 7.165z"/><path fill="#333" d="m172.307 258.075 12.21-7.165v.073c.219.366.439.804.439 1.243.073.585-.073 1.17-.439 1.462l-12.283 7.092c.366-.292.512-.804.439-1.462.073-.439-.073-.877-.366-1.243"/><path fill="#fff" d="M183.203 254.054c.219-.219.366-.658.293-1.097 0-.292-.147-.585-.293-.804l1.243-.731c.146.219.219.512.292.804.074.512-.073.877-.292 1.097zM174.582 258.881c.146-.22.146-.512.146-.878 0-.146-.073-.292-.073-.438l6.434-3.729c.073.146.073.292.073.439 0 .365 0 .658-.146.877z"/><path fill="#34424B" d="M172.53 259.17c.073.292 0 .585-.074.877-.073.146-.146.293-.219.366l-9.358-5.41v.292l9.504 5.483h.073c.147-.146.293-.292.366-.511.073-.293.146-.585.073-.878 0-.073 0-.146-.073-.292a2.26 2.26 0 0 0-.439-.951v-.073l-.365-.219-8.262-4.752-.877-.512v.292l.877.512 8.042 4.606.512.293c.073.219.22.511.22.877"/><path fill="#F2E8DF" d="m163.832 253.398 7.896 4.606v1.609l-7.896-4.533z"/><path fill="#F2E8DF" d="M171.723 258.004v1.681l.804-.511c-.073-.293-.146-.658-.293-.878z"/><path fill="#fff" d="m171.652 249.234 5.703 3.363 3.144-1.828-5.703-3.363z"/><path fill="#AD3814" d="m163.855 250.163 11.333-6.58c.146-.073.292-.073.438.073l-11.332 6.58c-.146-.073-.292-.146-.439-.073M175.626 245.994c-.219-.147-.365-.366-.365-.585v-1.17c0-.146.073-.219.073-.219l-11.332 6.506c-.073.074-.147.147-.147.22v1.243c0 .219.22.585.439.731l8.408 4.825 11.332-6.58z"/><path fill="#AD3814" d="m172.773 257.404 11.333-6.58v.366l-11.333 6.58z"/><path fill="#AD3814" d="M164.007 251.702v.22c0 .219.147.512.366.585l8.408 4.898v.293l-8.408-4.899c-.366-.219-.658-.731-.658-1.097v-1.169c0-.439.292-.585.658-.366l8.408 4.899v.292l-8.408-4.898c-.219-.147-.366 0-.366.219z"/><path fill="#AD3814" d="m172.773 255.137 11.333-6.653v.366l-11.333 6.58z"/><path fill="#FF7847" d="m164.371 250.236 11.259-6.58 8.481 4.826-11.332 6.653z"/><path fill="#F2E8DF" d="m172.765 255.446-7.531-4.313v1.316l7.531 4.386v-1.681z"/><path fill="#FBFFF2" d="m172.765 255.446-7.531-4.313v1.316l7.531 4.386v-1.681z"/><path fill="#FBFFF2" d="m183.14 250.834-10.382 5.996v-1.39l10.382-5.995z"/><path fill="#F2E8DF" d="m165.879 248.861 8.261 4.752 10.455-6.068-8.188-4.752z"/><path fill="#FBFFF2" d="m165.957 247.109 8.188 6.142 10.382-5.922-7.311-4.606z"/><path fill="#F2E8DF" d="m165.879 248.275 8.261 4.752 10.455-6.068-8.188-4.752z"/><path fill="#FBFFF2" d="m165.879 247.986 8.261 4.752 10.455-6.068-8.188-4.752z"/><path fill="#F2E8DF" d="m165.879 247.693 8.261 4.752 10.455-6.068-8.188-4.752z"/><path fill="#FBFFF2" d="m165.879 247.396 8.261 4.753 10.455-6.069-8.188-4.752z"/><path fill="#F2E8DF" d="m165.957 247.618 8.188 4.314 10.382-6.069-8.481-4.898z"/><path fill="#FBFFF2" d="m166.832 248.203 9.066 4.022 8.7-6.727-8.188-4.752z"/><path fill="#F2E8DF" d="m165.879 246.525 8.261 4.752 10.455-6.068-8.188-4.752z"/><path fill="#FBFFF2" d="m165.879 246.228 8.261 4.753 10.455-6.069-8.188-4.752z"/><path fill="#F2E8DF" d="m165.879 245.935 8.261 4.753 10.455-6.069-8.188-4.752z"/><path fill="#FBFFF2" d="m165.879 245.569 8.261 4.826 10.455-6.069-8.188-4.752z"/><path fill="#F2E8DF" d="m165.879 245.353 8.261 4.753 10.455-6.069-8.188-4.752z"/><path fill="#FBFFF2" d="m166.758 244.406 6.653 5.191 11.186-5.776-7.457-4.606z"/><path fill="#F2E8DF" d="m165.879 244.767 8.261 4.753 10.455-6.069-8.188-4.752z"/><path fill="#FBFFF2" d="m165.879 244.401 8.261 4.826 10.455-6.069-8.188-4.752z"/><path fill="#fff" d="m157.84 249.45 5.922 4.679 8.846-3.583-5.922-4.679z"/><path fill="#333" d="m126.765 264.79 1.097.658c-.22-.146-.512-.073-.804.073l-1.097-.658a1.06 1.06 0 0 1 .804-.073"/><path fill="#333" d="m126.259 268.226-1.097-.658c-.219-.146-.365-.365-.365-.731 0-.731.512-1.608 1.17-1.974l1.096.658c-.658.366-1.169 1.243-1.169 1.974 0 .366.146.658.365.731"/><path fill="#000" d="M127.064 265.532c.658-.365 1.17-.073 1.17.658s-.512 1.609-1.17 1.974c-.658.366-1.169.073-1.169-.658s.511-1.608 1.169-1.974"/><path fill="#333" d="m147.691 276.212 1.097.658c-.22-.146-.512-.073-.805.073l-1.096-.658a1.06 1.06 0 0 1 .804-.073"/><path fill="#333" d="m147.185 279.648-1.097-.658c-.219-.146-.365-.365-.365-.731 0-.731.511-1.608 1.169-1.974l1.097.658c-.658.366-1.17 1.243-1.17 1.974 0 .366.147.658.366.731"/><path fill="#000" d="M147.978 276.95c.658-.365 1.17-.073 1.17.658s-.512 1.609-1.17 1.974c-.658.366-1.169.073-1.169-.658s.511-1.608 1.169-1.974"/><path fill="#333" d="m131.886 280.822 1.097.658c-.219-.146-.512-.073-.804.073l-1.097-.658c.292-.146.585-.219.804-.073M131.372 284.258l-1.096-.658c-.22-.147-.366-.366-.366-.731 0-.732.512-1.609 1.17-1.974l1.097.658c-.658.365-1.17 1.242-1.17 1.974 0 .365.146.584.365.731"/><path fill="#000" d="M132.185 281.556c.658-.366 1.17-.073 1.17.658s-.512 1.608-1.17 1.974-1.169.073-1.169-.658.511-1.609 1.169-1.974"/><path fill="#333" d="m118.789 274.231 1.096.658c-.219-.146-.512-.073-.804.073l-1.097-.658c.293-.219.585-.219.805-.073M118.208 277.672l-1.096-.658c-.22-.147-.366-.366-.366-.731 0-.732.512-1.609 1.17-1.974l1.097.658c-.658.365-1.17 1.242-1.17 1.974.073.292.146.584.365.731"/><path fill="#000" d="M119.014 274.884c.658-.366 1.169-.073 1.169.658s-.511 1.608-1.169 1.974-1.17.073-1.17-.658c.073-.731.585-1.609 1.17-1.974"/><path fill="#333" d="m144.32 266.263 1.097.658c-.22-.146-.512-.073-.805.073l-1.096-.658c.365-.146.658-.146.804-.073"/><path fill="#333" d="m143.814 269.691-1.097-.658c-.219-.146-.365-.365-.365-.731 0-.731.511-1.608 1.169-1.974l1.097.658c-.658.366-1.17 1.243-1.17 1.974.073.366.146.585.366.731"/><path fill="#000" d="M144.615 267.001c.658-.365 1.17-.073 1.17.658s-.512 1.609-1.17 1.974c-.658.366-1.17.073-1.17-.658.073-.731.585-1.608 1.17-1.974"/><path fill="#B3B3B3" d="m133.202 269.187-1.462 1.316-1.097 1.023-5.264-6.214c0-.293 0-.512.219-.585.073-.073.146-.073.22-.146l.804-.293c.146-.073.292 0 .438.073z"/><path fill="#666" d="m131.96 270.65-1.243.805-5.264-6.215c0-.292 0-.512.219-.585.074-.073.22 0 .366.073l5.776 5.703z"/><path fill="#B3B3B3" d="m145.046 266.777-9.285 6.214-.293.146-.219-1.17-.219-1.023-.366-1.535 8.7-3.729q.33-.11.658 0l.658.365c.073 0 .073.074.147.074q.219.11.219.658"/><path fill="#666" d="m145.047 266.771-9.285 6.215-.512-1.024-.512-.877.22-.146 9.285-4.753c.146-.073.365-.073.438-.073.293.073.366.293.366.658"/><path fill="#666" d="M136.352 273.284v-2.925h-5.411v2.925c0 .365.293.804.805 1.096 1.023.585 2.778.585 3.801 0 .512-.365.805-.731.805-1.096"/><path fill="#B3B3B3" d="M133.647 271.817c1.494 0 2.705-.688 2.705-1.536s-1.211-1.535-2.705-1.535-2.706.687-2.706 1.535 1.212 1.536 2.706 1.536M132.108 272.258l-1.023 8.261c-.073.585-.073 1.243-.073 1.901l1.17.073 2.412-7.969v-2.12c-.877.219-1.681.219-2.486-.146"/><path fill="#666" d="M132.18 282.493c0-.731.073-1.389.219-1.901l2.193-8.115v2.12z"/><path fill="#B3B3B3" d="M135.324 272.255v2.193l12.502 3.071.512-.585c.073-.731-.366-1.17-1.024-1.463l-11.039-4.459c.073.511-.293.95-.951 1.243"/><path fill="#666" d="M147.829 277.521c0-.658-.366-1.17-1.024-1.463l-11.551-3.874v2.193z"/><path fill="#B3B3B3" d="m117.997 275.333 13.452-1.17v-2.193c-.512-.366-.585-.877-.512-1.462l-12.063 2.778c-.658.146-1.097.512-1.097 1.243z"/><path fill="#666" d="M131.452 274.158 118 275.328c0-.731.439-1.17 1.17-1.243l12.282-2.12z"/><path fill="#333" d="M125.383 263.116c-.219 0-.511 0-.731-.073l.293-1.827c.804.146 1.828-.147 2.924-.732l10.309-5.922.877 1.609-10.308 5.922c-1.17.658-2.34 1.023-3.364 1.023"/><path fill="#E6E6E6" d="m132.469 263.197.22-.22c.585-.365 1.535-.365 2.12 0l.219.22h.22v7.018c0 .22-.147.439-.439.585-.585.366-1.535.366-2.12 0-.293-.146-.439-.365-.439-.585v-7.018z"/><path fill="#4D4D4D" d="M133.718 262.826c1.171 0 2.12-.557 2.12-1.243 0-.687-.949-1.243-2.12-1.243s-2.12.556-2.12 1.243c0 .686.949 1.243 2.12 1.243"/><path fill="#333" d="M131.01 254.642c.293-.293.804-.585 1.462-.731.805-.22 1.682-.22 2.559 0 .658.146 1.097.438 1.462.731h.366v7.53c0 .658-.585 1.243-1.755 1.609a4.3 4.3 0 0 1-2.705 0c-1.17-.366-1.754-.951-1.754-1.609v-7.53z"/><path fill="#4D4D4D" d="M132.399 252.957c-2.339.658-2.339 2.559 0 3.217a4.27 4.27 0 0 0 2.705 0c2.34-.658 2.34-2.559 0-3.217a5.65 5.65 0 0 0-2.705 0"/><path fill="#34424B" d="M145.118 255.295v-3.217h-1.462c-.512-.512-1.097-.951-1.901-1.389-4.46-2.559-11.698-2.559-16.158 0-.731.438-1.389.877-1.9 1.389h-1.463v3.217c0 1.681 1.097 3.363 3.363 4.679 4.46 2.559 11.698 2.559 16.158 0 2.266-1.316 3.363-2.998 3.363-4.679"/><path fill="#34424B" d="M133.718 258.652c6.299 0 11.405-2.946 11.405-6.58s-5.106-6.58-11.405-6.58-11.406 2.946-11.406 6.58 5.107 6.58 11.406 6.58"/><path fill="#B3B3B3" d="M141.763 258.511c-4.46 2.559-11.698 2.559-16.158 0-2.193-1.316-3.363-2.997-3.363-4.679v1.389c0 1.682 1.097 3.363 3.363 4.679 4.46 2.559 11.698 2.559 16.158 0 2.193-1.316 3.363-2.997 3.363-4.679v-1.389c0 1.755-1.097 3.436-3.363 4.679M128.532 245.201l-5.118-4.021-5.557-2.559-.804.512c-.512.292-.877.95-.877 1.901v1.462c0 1.901 1.316 4.24 2.997 5.191l7.019 4.094c.804.512 1.608.512 2.12.219l.658-.365.585-2.267z"/><path fill="#34424B" d="m123.413 241.18 5.118 4.021 1.023 4.021-.585 2.266 1.682-.95c.512-.293.877-.951.877-1.901v-1.462c0-1.901-1.316-4.241-2.997-5.191l-7.019-4.094c-.804-.512-1.608-.512-2.12-.22l-1.462.878z"/><path fill="#34424B" d="M127.001 242.863c1.681.951 2.997 3.29 2.997 5.191v1.462c0 1.901-1.389 2.705-2.997 1.755l-7.019-4.094c-1.682-.951-2.998-3.29-2.998-5.191v-1.462c0-1.901 1.389-2.706 2.998-1.682z"/><path fill="#B3B3B3" d="M127.001 242.863c1.681.951 2.997 3.29 2.997 5.191v1.462c0 1.901-1.389 2.705-2.997 1.755l-7.019-4.094c-1.682-.951-2.998-3.29-2.998-5.191v-1.462c0-1.901 1.389-2.706 2.998-1.682z"/><path fill="gray" d="M126.192 243.305c1.682.95 2.998 3.29 2.998 5.19v1.463c0 1.901-1.39 2.705-2.998 1.754l-7.019-4.094c-1.681-.95-2.997-3.29-2.997-5.191v-1.462c0-1.901 1.389-2.705 2.997-1.682z"/><path fill="#333" d="M124.648 263.039c-1.901-.293-3.144-1.974-3.144-4.241v-14.11c0-.439.512-.731.877-.512l.293.219c.365.22.658.658.658 1.097v13.306c0 .805.219 2.194 1.608 2.486z"/><path fill="#97B9CF" d="m130.79 199.885-13.16 7.75c-.951.585-2.486.585-3.437 0l-16.23-9.285c-.95-.585-.95-1.462 0-1.974l13.16-7.75c.95-.585 2.486-.585 3.436 0l16.158 9.358c1.023.512 1.023 1.389.073 1.901M155.287 186.22l-13.16 7.75c-.951.585-2.486.585-3.436 0l-16.158-9.358c-.95-.585-.95-1.463 0-1.974l13.16-7.75c.951-.585 2.486-.585 3.436 0l16.158 9.358c.95.585.95 1.462 0 1.974" opacity=".5"/><path fill="#B3B3B3" d="M124.435 183.354c2.632-11.771 2.632-11.844 2.632-11.918h-1.242.658l-.658-.073c-.074.366-1.609 7.238-2.632 11.771-.22.512 1.096.804 1.242.22M140.006 193.001c.073.512 1.243.512 1.243-.146l-1.389-14.476-1.243.146zM153.752 185.04c.074.658 1.39.585 1.243-.146l-1.389-14.476-1.243.146z"/><path fill="#34424B" d="M122.532 153.086v.073c.073 1.316 1.17 15.646 1.243 17.181s1.17 2.047 1.17 2.047 13.452 7.75 14.33 8.262c.877.512 1.316.219 1.316.219l13.818-7.823c1.608-.95 1.535-2.558 1.535-2.558v-1.17c0-2.925-2.632-4.533-2.632-4.533s-8.481-5.483-9.504-6.141c-.293-.22-.512-.439-.732-.658-.365-.439-.438-.805-.438-.805-.146-.731-2.413-11.697-2.559-12.429a2.9 2.9 0 0 0-.293-.877l-.073-.146c-.877-.804-2.632-.146-2.632-.146s-13.087 7.53-13.891 8.042c-.877.512-.658 1.462-.658 1.462"/><path fill="#889099" d="m154.632 170.706-13.818 7.969s.366-2.998-2.12-4.679-7.823-5.118-7.823-5.118l11.625-6.507z"/><path fill="#6D7983" d="m123.924 154.329 2.705 13.087 1.17-.731 3.07 2.193 11.625-6.507-.804-3.655 1.389-.731c-.366-.439-.439-.804-.439-.804-.146-.732-2.412-11.698-2.559-12.429a.66.66 0 0 0-1.023-.439l-14.476 8.408c-.512.292-.731.95-.658 1.608"/><path fill="#B3B3B3" d="M99.502 197.33c2.632-11.771 2.632-11.844 2.632-11.917h-1.243.658l-.658-.073c-.073.365-1.609 7.238-2.632 11.771-.22.512 1.097.804 1.243.219M115.073 206.978c.073.511 1.243.511 1.243-.147l-1.39-14.476-1.242.147zM128.819 199.017c.073.658 1.389.585 1.243-.146l-1.389-14.476-1.243.146z"/><path fill="#34424B" d="M97.599 167.063v.073c.073 1.316 1.17 15.646 1.242 17.181.074 1.535 1.17 2.047 1.17 2.047s13.453 7.75 14.33 8.262c.877.511 1.316.219 1.316.219l13.818-7.823c1.608-.95 1.535-2.559 1.535-2.559v-1.17c0-2.924-2.632-4.533-2.632-4.533s-8.481-5.483-9.504-6.141c-.293-.219-.512-.439-.731-.658-.366-.439-.439-.804-.439-.804-.146-.731-2.413-11.698-2.559-12.429-.073-.439-.219-.731-.292-.877l-.073-.147c-.878-.804-2.632-.146-2.632-.146s-13.087 7.531-13.891 8.042c-.878.512-.658 1.463-.658 1.463"/><path fill="#889099" d="m129.699 184.682-13.818 7.969s.365-2.997-2.121-4.679c-2.485-1.681-7.822-5.117-7.822-5.117l11.624-6.507z"/><path fill="#6D7983" d="m98.988 168.306 2.705 13.087 1.17-.731 3.07 2.193 11.625-6.507-.804-3.656 1.389-.731c-.366-.438-.439-.804-.439-.804-.146-.731-2.413-11.698-2.559-12.429a.66.66 0 0 0-1.023-.438l-14.403 8.407a1.72 1.72 0 0 0-.731 1.609"/><path fill="#97B9CF" d="m71.422 217.797-20.91 11.99 24.126 13.964 20.618-12.209z" opacity=".5"/></svg>