<svg xmlns="http://www.w3.org/2000/svg" width="470" height="470" fill="none"><path fill="#DFECF5" d="m34.366 339.756-.522-209.515L234.795 14.203l200.847 116.038.522 209.515-200.951 116.038z"/><path fill="#B5D5EB" d="M235.21 223.717 46.792 331.608l-.523-194.163L234.793 28.719z"/><path fill="#DFECF5" d="M423.629 332.554 235.211 441.28 46.793 332.554l188.418-108.831z"/><path fill="#97B9CF" d="M423.629 332.548 235.211 223.717l-.418-194.998 188.418 108.726z"/><path fill="#FBFFF2" d="M46.793 326.386v6.162l126.587-73.111v-6.058z"/><path fill="#fff" d="M423.631 332.549v-6.058L235.213 217.66l-61.936 35.72v6.058l61.936-35.72z"/><path fill="#97B9CF" d="m33.844 130.242 12.533 7.207.418 195.102 188.418 108.727v14.518L34.366 339.758z"/><path fill="#B5D5EB" d="m435.748 130.242-12.533 7.207.418 195.102-188.418 108.727v14.518l200.951-116.038z"/><path fill="#FCC674" d="M192.389 69.246 55.984 147.893v112.904l136.405-78.333z"/><path fill="#fff" d="m136.515 103.5-34.988 20.576-25.171 123.975 35.197-19.949zM152.386 93.89l-11.489 7.207-25.276 124.707 11.698-6.684z" opacity=".5"/><path fill="#8A6945" d="M52.746 146.114v117.187l2.507 1.462 138.075-82.615 2.507-115.725-2.507-1.462zm134.525 33.422L58.804 253.692V148.725L187.27 74.57z"/><path fill="#fff" d="M55.25 147.575v117.187l140.582-81.153V66.422zm134.524 33.422L61.308 255.153V150.082l128.466-74.156z"/><path fill="#8A6945" d="m142.678 100.26 4.386-2.507v105.072l-1.357.731.208 6.057 7.207-4.282V88.145l-10.653 6.162z"/><path fill="#fff" d="m142.779 103.079 6.789-3.865v105.071l-3.76 2.194.105 5.953 9.713-5.64V89.606l-13.056 7.52z"/><path fill="#8A6945" d="m88.572 131.487 4.387-2.507v105.071l-1.358.836.209 5.953 7.207-4.178V119.371l-10.654 6.162z"/><path fill="#fff" d="m88.678 134.309 6.788-3.864v105.071l-3.76 2.193.105 5.954 9.713-5.64V120.836l-13.055 7.52z"/><path fill="#FCC674" d="M52.117 150.193v113.218l5.222-3.029V147.164z"/><path fill="#8A6945" d="m58.28 142.879-6.163 3.655v6.058l.105-.104v105.071l-.105.104v6.163l6.162-3.656 2.507-115.829z"/><path fill="#fff" d="M52.117 149.353v6.058l2.611-1.462V259.02l-2.61 1.462v6.058l8.668-5.013V144.34z"/><path fill="#DFECF5" d="m52.121 276.778 152.593-88.047-8.877-5.118-143.716 82.929z"/><path fill="#97B9CF" d="M204.714 188.73V71.44l-8.878-5.014v117.186z"/><path fill="#B5D5EB" d="m52.121 159.589 152.593-88.15-8.877-15.458-143.716 80.944z"/><path fill="#B5D5EB" d="M52.121 137.657v143.716h10.34V129.406z"/><path fill="#333" d="m376.516 307.591 1.567.94c-.314-.209-.731-.105-1.149.104l-1.567-.94c.522-.313.94-.313 1.149-.104"/><path fill="#333" d="m375.784 312.496-1.566-.94c-.314-.209-.523-.522-.523-1.045 0-1.044.731-2.297 1.671-2.82l1.567.94c-.94.523-1.671 1.776-1.671 2.82.104.523.209.836.522 1.045"/><path fill="#000" d="M376.933 308.533c.94-.522 1.671-.104 1.671.94s-.731 2.298-1.671 2.82c-.94.523-1.671.105-1.671-.94 0-.94.731-2.297 1.671-2.82"/><path fill="#333" d="m364.707 321.06 1.567.94c-.313-.209-.731-.105-1.149.104l-1.566-.94c.417-.313.835-.313 1.148-.104"/><path fill="#333" d="m363.976 325.867-1.567-.94c-.313-.209-.522-.522-.522-1.044 0-1.045.731-2.298 1.671-2.821l1.567.94c-.94.523-1.672 1.776-1.672 2.821 0 .522.209.94.523 1.044"/><path fill="#000" d="M365.124 322.002c.94-.522 1.671-.104 1.671.94s-.731 2.298-1.671 2.82-1.671.105-1.671-.94.731-2.298 1.671-2.82"/><path fill="#333" d="m339.016 318.661 1.567.94c-.314-.209-.731-.105-1.149.104l-1.567-.94c.418-.209.836-.313 1.149-.104M338.28 323.57l-1.566-.94c-.314-.209-.523-.522-.523-1.044 0-1.045.732-2.298 1.672-2.82l1.566.94c-.94.522-1.671 1.775-1.671 2.82 0 .522.209.835.522 1.044"/><path fill="#000" d="M339.433 319.705c.94-.522 1.671-.104 1.671.94s-.731 2.298-1.671 2.82c-.94.523-1.671.105-1.671-.94s.731-2.297 1.671-2.82"/><path fill="#333" d="m335.153 304.135 1.566.94c-.313-.209-.731-.104-1.148.104l-1.567-.94c.522-.208.94-.208 1.149-.104M334.417 309.047l-1.567-.94c-.313-.209-.522-.523-.522-1.045 0-1.044.731-2.298 1.671-2.82l1.567.94c-.94.522-1.671 1.776-1.671 2.82.104.522.209.836.522 1.045"/><path fill="#000" d="M335.57 305.186c.94-.522 1.671-.105 1.671.94s-.731 2.298-1.671 2.82-1.672.104-1.672-.94.732-2.298 1.672-2.82"/><path fill="#333" d="m358.446 296.93 1.566.94c-.313-.209-.731-.104-1.148.105l-1.567-.94c.418-.209.835-.314 1.149-.105M357.612 301.844l-1.566-.94c-.314-.209-.523-.523-.523-1.045 0-1.044.732-2.298 1.672-2.82l1.566.94c-.94.522-1.671 1.776-1.671 2.82.105.522.209.836.522 1.045"/><path fill="#000" d="M358.761 297.979c.94-.522 1.671-.105 1.671.94s-.731 2.298-1.671 2.82-1.671.104-1.671-.94c.104-1.045.835-2.298 1.671-2.82"/><path fill="#B3B3B3" d="m333.695 304.768 18.383 5.953.417-5.326-16.293-2.716c-.522-.104-1.149-.104-1.671.313-.522.523-.731.94-.836 1.776"/><path fill="#666" d="m333.695 304.769 18.383 5.953.731-3.133-17.443-3.969c-1.044-.209-1.462.314-1.671 1.149"/><path fill="#B3B3B3" d="m353.539 304.245 3.342-7.833c0-.104.209-.209.314-.209l1.462.105c.104 0 .209.104.209.208l.104.732-1.671 8.251z"/><path fill="#666" d="m358.974 297.352-1.672 8.251-.626-.105 1.984-8.877c.105-.209.209-.314.209-.105zM358.345 310.303c.104-1.671.209-3.447 0-4.178h-7.833v4.178c0 .626.418 1.149 1.149 1.566 1.566.836 3.968.836 5.535 0 .836-.313 1.149-.94 1.149-1.566"/><path fill="#B3B3B3" d="M357.191 304.557c1.567.835 1.567 2.297 0 3.133s-3.969.835-5.536 0c-1.566-.836-1.566-2.298 0-3.133 1.567-.94 4.074-.94 5.536 0"/><path fill="#B3B3B3" d="M358.031 307.8v3.133l19.218-2.089-.313-1.671s-.523-1.044-1.671-1.044-16.92-.418-16.92-.418c.104.835.104 1.567-.314 2.089M337.664 319.387l1.253.731 14.414-7.624v-3.133c-1.254-.209-2.089-.731-2.611-1.463l-11.907 9.192c-.731.417-1.149 1.253-1.149 2.297"/><path fill="#666" d="m358.031 307.796 17.547-.523c.94 0 1.462.523 1.671 1.567l-19.218 2.089z"/><path fill="#B3B3B3" d="M354.477 309.26v3.343l9.713 9.713 1.462-.418c.105-.94-.104-1.775-.627-2.611l-7.311-10.967c-.835.836-1.88 1.045-3.237.94"/><path fill="#666" d="M354.477 309.258v3.342l9.713 9.713c0-.94-.105-1.775-.731-2.402zM338.918 320.121c0-1.044.313-1.88 1.149-2.298l13.264-8.46v3.134z"/><path fill="#E6E6E6" d="m352.704 295.791.313-.313c.836-.523 2.194-.523 3.029 0l.314.313h.313v10.027c0 .313-.209.626-.627.835-.835.522-2.193.522-3.029 0-.417-.209-.626-.522-.626-.835v-10.027z"/><path fill="#4D4D4D" d="M354.584 295.27c1.672 0 3.028-.795 3.028-1.776 0-.98-1.356-1.775-3.028-1.775-1.673 0-3.029.795-3.029 1.775 0 .981 1.356 1.776 3.029 1.776"/><path fill="#333" d="M350.721 283.467c.418-.418 1.149-.836 2.089-1.044 1.149-.314 2.403-.314 3.656 0 .94.208 1.567.626 2.089 1.044h.522v10.758c0 .94-.836 1.775-2.507 2.298a6.12 6.12 0 0 1-3.864 0c-1.671-.523-2.507-1.358-2.507-2.298v-10.758z"/><path fill="#4D4D4D" d="M352.6 281.169c-3.342.94-3.342 3.655 0 4.595a6.1 6.1 0 0 0 3.865 0c3.342-.94 3.342-3.655 0-4.595-1.253-.418-2.507-.418-3.865 0"/><path fill="#333" d="m350.509 287.329 7.938-4.596c6.684-3.864 11.907-12.22 11.907-18.904V252.34h-2.82v11.489c0 5.744-4.7 13.16-10.549 16.502l-7.938 4.595z"/><path fill="#34424B" d="M370.98 284.298v-4.595h-2.089c-.731-.731-1.566-1.358-2.715-1.985-6.371-3.655-16.711-3.655-23.082 0-1.045.627-1.985 1.254-2.716 1.985h-2.089v4.595c0 2.402 1.567 4.805 4.805 6.685 6.371 3.655 16.711 3.655 23.082 0 3.238-1.88 4.804-4.283 4.804-6.685"/><path fill="#34424B" d="M354.688 289.105c8.998 0 16.293-4.209 16.293-9.4s-7.295-9.4-16.293-9.4c-8.999 0-16.293 4.208-16.293 9.4 0 5.191 7.294 9.4 16.293 9.4"/><path fill="#B3B3B3" d="M366.176 288.891c-6.371 3.656-16.711 3.656-23.082 0-3.134-1.88-4.805-4.282-4.805-6.684v1.984c0 2.403 1.567 4.805 4.805 6.685 6.371 3.655 16.711 3.655 23.082 0 3.133-1.88 4.804-4.282 4.804-6.685v-1.984c0 2.507-1.566 4.909-4.804 6.684M362.205 243.356c.731-.417 1.88-.417 3.029.314l10.026 5.849c2.403 1.357 4.283 4.7 4.283 7.415v2.089c0 1.358-.522 2.298-1.254 2.716l-3.342 1.984h-.104c-.731.418-1.776.313-2.925-.313l-10.026-5.745c-2.403-1.357-4.283-4.7-4.283-7.415v-2.089c0-1.358.523-2.298 1.254-2.716l2.193-1.253z"/><path fill="#34424B" d="M361.056 243.985c.731-.418 1.776-.313 2.924.313l10.027 5.849c2.402 1.358 4.282 4.7 4.282 7.416v2.089c0 1.357-.522 2.297-1.253 2.715l-2.193 1.254c-.731.417-1.776.313-2.925-.314l-10.026-5.744c-2.403-1.358-4.283-4.7-4.283-7.416v-2.089c0-1.357.523-2.297 1.254-2.715z"/><path fill="#34424B" d="M372.024 251.294c2.402 1.358 4.282 4.7 4.282 7.415v2.089c0 2.716-1.984 3.865-4.282 2.507l-10.027-5.849c-2.402-1.358-4.282-4.7-4.282-7.416v-2.088c0-2.716 1.984-3.865 4.282-2.403z"/><path fill="#34424B" d="M372.024 251.294c2.402 1.358 4.282 4.7 4.282 7.415v2.089c0 2.716-1.984 3.865-4.282 2.507l-10.027-5.849c-2.402-1.358-4.282-4.7-4.282-7.416v-2.088c0-2.716 1.984-3.865 4.282-2.403z"/><path fill="#97B9CF" d="m236.566 225.082-26.738 15.458 57.027 33.004 26.424-15.666z" opacity=".5"/><path fill="#333" d="M270.408 268.845v-3.447q0 .47-.627.94v3.447q.627-.47.627-.94M266.02 265.398v3.447q0 .47.626.94c.836.522 2.298.522 3.134 0v-3.447c-.836.523-2.298.523-3.134 0q-.626-.47-.626-.94"/><path fill="#000" d="M269.78 266.238c.835-.523.835-1.358 0-1.776-.836-.522-2.298-.522-3.134 0s-.835 1.358 0 1.776c.836.522 2.298.522 3.134 0"/><path fill="#333" d="M288.994 258.095v-3.447q0 .47-.627.94v3.447c.418-.209.627-.627.627-.94M284.605 254.648v3.447q0 .47.627.94c.836.522 2.298.522 3.133 0v-3.447c-.835.523-2.297.523-3.133 0-.418-.208-.627-.626-.627-.94"/><path fill="#000" d="M288.365 255.585c.836-.522.836-1.358 0-1.775-.835-.523-2.297-.523-3.133 0-.835.522-.835 1.357 0 1.775.836.522 2.193.522 3.133 0"/><path fill="#B3B3B3" d="m215.887 236.67 20.262-11.697 3.133 1.775-20.262 11.698z"/><path fill="#B3B3B3" d="m215.887 233.123 20.262-11.803v3.656l-20.262 11.698z"/><path fill="#B3B3B3" d="m219.02 234.9 20.262-11.802v3.655l-20.262 11.698z"/><path fill="#F2E8DF" d="m219.124 207.326 20.262-11.803-.104 27.574-20.262 11.802z"/><path fill="#B3B3B3" d="m215.992 205.444 20.262-11.698 3.134 1.776-20.262 11.802zM215.992 201.892l20.262-11.802v3.655l-20.262 11.698z"/><path fill="#B3B3B3" d="m215.992 201.892 20.262-11.802 3.134 1.88-20.262 11.698z"/><path fill="#D4BFA7" d="M266.542 262.261v3.656l3.134 1.775-53.789-31.02v-3.551 3.551l3.133 1.776v-3.551z"/><path fill="#B3B3B3" d="m216.098 174.326 20.262-11.803 3.133 1.776-20.262 11.802z"/><path fill="#F2E8DF" d="m219.226 176.095 20.262-11.802-.105 27.678-20.262 11.698z"/><path fill="#B3B3B3" d="m216.098 170.663 20.262-11.698v3.551l-20.262 11.802z"/><path fill="#B3B3B3" d="m216.098 170.663 20.262-11.698 3.133 1.775-20.262 11.698zM266.647 231.038l20.158-11.698v3.551l-20.262 11.802z"/><path fill="#D4BFA7" d="m266.646 231.038-.104 3.656-47.418-27.364-4.491-4.596 1.358-.836 3.133 1.776z"/><path fill="#F7F4F0" d="m219.121 203.67 20.262-11.697 47.418 27.364-20.158 11.698z"/><path fill="#B3B3B3" d="m216.203 143.091 20.262-11.802 3.029 1.776-20.158 11.802z"/><path fill="#F2E8DF" d="m219.335 144.865 20.158-11.803v27.678l-20.263 11.698z"/><path fill="#B3B3B3" d="m216.203 139.44 20.262-11.698v3.551l-20.262 11.803z"/><path fill="#B3B3B3" d="m216.203 139.44 20.262-11.698 3.134 1.776-20.263 11.802zM266.645 199.912l20.262-11.803v3.656l-20.262 11.698z"/><path fill="#F7F4F0" d="m219.23 172.44 20.263-11.698 47.417 27.365-20.262 11.802z"/><path fill="#D4BFA7" d="M266.649 199.909v3.551l-47.418-27.365-3.133-1.775v-3.656l3.133 1.776z"/><path fill="#B3B3B3" d="m216.305 111.865 20.157-11.803 3.134 1.88-20.158 11.698z"/><path fill="#F2E8DF" d="m219.44 81.155 20.158-11.698v60.056l-20.262 11.802z"/><path fill="#B3B3B3" d="m266.75 168.681 20.262-11.802v3.655l-20.262 11.698z"/><path fill="#D4BFA7" d="M266.754 168.682v3.551l-47.418-27.364-3.133-1.776v-3.655l3.133 1.88z"/><path fill="#F7F4F0" d="m219.336 141.314 20.262-11.802 47.418 27.364-20.262 11.802z"/><path fill="#D4BFA7" d="M266.856 137.453v3.655l-47.418-27.469-3.133-1.775v-3.552z"/><path fill="#D4BFA7" d="M266.754 137.453v3.655l-47.418-27.469-3.133-1.775v-3.552l3.133 1.776z"/><path fill="#F7F4F0" d="m219.336 110.087 20.262-11.802 47.418 27.469-20.262 11.698z"/><path fill="#D4BFA7" d="M269.989 108.102v3.551l-50.551-29.14-3.133-1.88v-3.551z"/><path fill="#F2E8DF" d="m269.989 108.103 20.262-11.802-.417 159.591-20.158 11.802z"/><path fill="#F7F4F0" d="m236.567 65.281 50.551 29.245 3.133 1.775-20.262 11.802-3.133-1.88-50.551-29.14z"/><path fill="#D4BFA7" d="m269.99 108.103-.314 159.591-3.133-1.776v-31.229l.104-3.655v-31.125l.105-27.677v-3.552l.104-27.573v-34.884z"/><path fill="#F7F4F0" d="m219.02 234.898.104-27.574 47.418 27.365v27.573z"/><path fill="#D4BFA7" d="m216.305 77.082 3.133 1.776-.105 62.457v3.551l-.104 27.574v3.655l-.104 27.574v3.655l-.105 27.574v3.551l-3.133-1.776v-3.551z"/><mask id="a" width="49" height="56" x="219" y="82" maskUnits="userSpaceOnUse" style="mask-type:luminance"><path fill="#fff" d="m219.433 82.512-.105 27.573 47.522 27.365.209-27.469z"/></mask><g mask="url(#a)"><path fill="#4D4D4D" d="m234.574 93.583 8.878-7.729v-2.506l-13.264 7.624z"/><path fill="#E6E6E6" d="m234.574 94.214 12.847-7.415-4.387-2.612-12.846 7.52z"/><path fill="#4D4D4D" d="m234.473 114.578 13.264-7.729.105-20.993-13.265 7.728z"/><path fill="#1A1A1A" d="M230.188 90.973v20.993l4.282 2.611.104-20.993z"/><path fill="#fff" d="m231.027 109.566 2.298 1.254V99.644l-2.298-1.253zM231.133 95.78c0 .626.522 1.357 1.149 1.775.626.314 1.149.105 1.149-.418 0-.522-.523-1.357-1.149-1.775-.731-.418-1.149-.209-1.149.418"/></g><mask id="b" width="49" height="56" x="219" y="82" maskUnits="userSpaceOnUse" style="mask-type:luminance"><path fill="#fff" d="m219.433 82.512-.105 27.573 47.522 27.365.209-27.469z"/></mask><g mask="url(#b)"><path fill="#4D4D4D" d="m239.277 96.302 8.878-7.729v-2.507l-13.264 7.625z"/><path fill="#E6E6E6" d="m239.277 96.929 12.847-7.416-4.387-2.61-12.846 7.52z"/><path fill="#4D4D4D" d="m239.176 117.293 13.264-7.729.105-20.994-13.265 7.73z"/><path fill="#1A1A1A" d="M234.891 93.691v20.994l4.282 2.611.104-20.994z"/><path fill="#fff" d="m235.73 112.281 2.298 1.253v-11.175l-2.298-1.254zM235.836 98.495c0 .626.522 1.357 1.149 1.775.626.313 1.149.105 1.149-.418 0-.626-.523-1.358-1.149-1.775-.731-.418-1.149-.21-1.149.418"/></g><mask id="c" width="49" height="56" x="219" y="82" maskUnits="userSpaceOnUse" style="mask-type:luminance"><path fill="#fff" d="m219.433 82.512-.105 27.573 47.522 27.365.209-27.469z"/></mask><g mask="url(#c)"><path fill="#4D4D4D" d="m243.98 99.009 8.878-7.729v-2.507l-13.264 7.625z"/><path fill="#E6E6E6" d="m243.98 99.644 12.847-7.416-4.387-2.61-12.846 7.52z"/><path fill="#4D4D4D" d="m243.875 120.007 13.264-7.729.105-20.993-13.265 7.729z"/><path fill="#1A1A1A" d="M239.594 96.402v20.994l4.282 2.611.104-20.994z"/><path fill="#fff" d="m240.434 114.992 2.297 1.253V105.07l-2.297-1.254zM240.539 101.1c0 .627.522 1.358 1.149 1.776.627.313 1.149.104 1.149-.418 0-.627-.522-1.358-1.149-1.776-.731-.313-1.149-.104-1.149.418"/></g><mask id="d" width="49" height="56" x="219" y="82" maskUnits="userSpaceOnUse" style="mask-type:luminance"><path fill="#fff" d="m219.433 82.512-.105 27.573 47.522 27.365.209-27.469z"/></mask><g mask="url(#d)"><path fill="#4D4D4D" d="m248.68 101.732 8.877-7.73v-2.506l-13.264 7.625z"/><path fill="#E6E6E6" d="m248.68 102.363 12.846-7.416-4.386-2.611-12.847 7.52z"/><path fill="#4D4D4D" d="m248.574 122.726 13.265-7.729.104-20.993-13.264 7.729z"/><path fill="#6D7983" d="M244.293 99.121v20.993l4.282 2.612.105-20.994z"/><path fill="#fff" d="m245.129 117.711 2.298 1.253v-11.176l-2.298-1.253zM245.234 103.819c0 .627.523 1.358 1.149 1.775.627.314 1.149.105 1.149-.417 0-.627-.522-1.358-1.149-1.776-.731-.313-1.149-.104-1.149.418"/></g><mask id="e" width="49" height="56" x="219" y="82" maskUnits="userSpaceOnUse" style="mask-type:luminance"><path fill="#fff" d="m219.433 82.512-.105 27.573 47.522 27.365.209-27.469z"/></mask><g mask="url(#e)"><path fill="#4D4D4D" d="m258.074 107.057 8.878-7.625v-2.506l-13.264 7.624z"/><path fill="#E6E6E6" d="m258.074 107.796 12.847-7.52-4.387-2.507-12.846 7.521z"/><path fill="#4D4D4D" d="m257.969 128.051 13.264-7.624.105-20.993-13.265 7.624z"/><path fill="#1A1A1A" d="M253.688 104.551v20.993l4.282 2.507.104-20.994z"/><path fill="#fff" d="m254.527 123.14 2.298 1.254v-11.176l-2.298-1.253zM254.633 109.249c0 .626.522 1.357 1.149 1.775.626.313 1.149.105 1.149-.418 0-.626-.523-1.357-1.149-1.775-.731-.314-1.149-.105-1.149.418"/></g><mask id="f" width="49" height="56" x="219" y="82" maskUnits="userSpaceOnUse" style="mask-type:luminance"><path fill="#fff" d="m219.433 82.512-.105 27.573 47.522 27.365.209-27.469z"/></mask><g mask="url(#f)"><path fill="#4D4D4D" d="m262.777 109.772 8.878-7.625v-2.506l-13.264 7.624z"/><path fill="#E6E6E6" d="m262.777 110.503 12.847-7.52-4.387-2.506-12.846 7.52z"/><path fill="#4D4D4D" d="m262.672 130.762 13.264-7.624.105-20.993-13.265 7.624z"/><path fill="#1A1A1A" d="M258.391 107.266v20.993l4.282 2.507.104-20.994z"/><path fill="#fff" d="m259.23 125.851 2.298 1.254v-11.176l-2.298-1.253zM259.336 111.96c0 .626.522 1.357 1.149 1.775.626.313 1.149.105 1.149-.418 0-.626-.523-1.357-1.149-1.775-.731-.314-1.149-.105-1.149.418"/></g><mask id="g" width="49" height="56" x="219" y="82" maskUnits="userSpaceOnUse" style="mask-type:luminance"><path fill="#fff" d="m219.433 82.512-.105 27.573 47.522 27.365.209-27.469z"/></mask><g mask="url(#g)"><path fill="#4D4D4D" d="m267.477 112.487 8.877-7.625v-2.507l-13.264 7.625z"/><path fill="#E6E6E6" d="m267.477 113.222 12.846-7.52-4.386-2.507-12.847 7.52z"/><path fill="#1A1A1A" d="M263.09 109.98v20.994l4.282 2.506.105-20.993z"/><path fill="#fff" d="m263.93 128.57 2.297 1.253v-11.175l-2.297-1.253zM264.035 114.678c0 .627.522 1.358 1.149 1.776.627.313 1.149.104 1.149-.418 0-.627-.522-1.358-1.149-1.776-.731-.313-1.149-.104-1.149.418"/></g><mask id="h" width="49" height="56" x="219" y="113" maskUnits="userSpaceOnUse" style="mask-type:luminance"><path fill="#fff" d="m219.433 113.637-.105 27.677 47.522 27.365.209-27.469z"/></mask><g mask="url(#h)"><path fill="#4D4D4D" d="m227.578 120.736 8.878-7.729V110.5l-13.265 7.729z"/><path fill="#E6E6E6" d="m227.578 121.468 12.847-7.52-4.387-2.507-12.847 7.52z"/><path fill="#4D4D4D" d="m227.477 141.73 13.264-7.729.104-20.993-13.264 7.729z"/><path fill="#1A1A1A" d="M223.191 118.227v20.993l4.283 2.507.104-20.994z"/><path fill="#fff" d="m224.031 136.719 2.298 1.357v-11.175l-2.298-1.358zM224.137 122.932c0 .627.522 1.358 1.149 1.776.626.313 1.148.104 1.148-.418 0-.627-.522-1.358-1.148-1.776-.732-.418-1.149-.209-1.149.418"/></g><mask id="i" width="49" height="56" x="219" y="113" maskUnits="userSpaceOnUse" style="mask-type:luminance"><path fill="#fff" d="m219.433 113.637-.105 27.677 47.522 27.365.209-27.469z"/></mask><g mask="url(#i)"><path fill="#4D4D4D" d="m232.277 123.458 8.878-7.729v-2.506l-13.264 7.729z"/><path fill="#E6E6E6" d="m232.277 124.187 12.847-7.52-4.387-2.507-12.846 7.52z"/><path fill="#4D4D4D" d="m232.172 144.453 13.264-7.729.105-20.994-13.265 7.729z"/><path fill="#1A1A1A" d="M227.891 120.949v20.994l4.282 2.506.104-20.993z"/><path fill="#fff" d="m228.734 139.437 2.298 1.358v-11.176l-2.298-1.357zM228.84 125.651c0 .626.522 1.358 1.149 1.775.626.314 1.149.105 1.149-.417 0-.627-.523-1.358-1.149-1.776-.731-.418-1.149-.209-1.149.418"/></g><mask id="j" width="49" height="56" x="219" y="113" maskUnits="userSpaceOnUse" style="mask-type:luminance"><path fill="#fff" d="m219.433 113.637-.105 27.677 47.522 27.365.209-27.469z"/></mask><g mask="url(#j)"><path fill="#F15A24" d="m236.977 126.169 8.877-7.729v-2.506l-13.264 7.728z"/><path fill="#E6E6E6" d="m236.977 126.902 12.846-7.52-4.386-2.507-12.847 7.52z"/><path fill="#F15A24" d="m236.871 147.164 13.265-7.729.104-20.994-13.264 7.729z"/><path fill="#AD3814" d="M232.59 123.656v20.994l4.282 2.506.105-20.993z"/><path fill="#fff" d="m233.43 142.148 2.297 1.358V132.33l-2.297-1.357zM233.535 128.362c0 .626.522 1.357 1.149 1.775.627.314 1.149.105 1.149-.418 0-.626-.522-1.357-1.149-1.775-.731-.418-1.149-.209-1.149.418"/></g><mask id="k" width="49" height="56" x="219" y="113" maskUnits="userSpaceOnUse" style="mask-type:luminance"><path fill="#fff" d="m219.433 113.637-.105 27.677 47.522 27.365.209-27.469z"/></mask><g mask="url(#k)"><path fill="#4D4D4D" d="m241.672 128.88 8.878-7.729v-2.506l-13.265 7.728z"/><path fill="#E6E6E6" d="m241.672 129.617 12.846-7.52-4.386-2.507-12.847 7.52z"/><path fill="#4D4D4D" d="m241.57 149.875 13.265-7.729.104-20.994-13.264 7.729z"/><path fill="#1A1A1A" d="M237.285 126.371v20.993l4.282 2.507.105-20.993z"/><path fill="#fff" d="m238.129 144.863 2.298 1.358v-11.176l-2.298-1.357zM238.234 131.077c0 .626.523 1.357 1.149 1.775.627.313 1.149.105 1.149-.418 0-.626-.522-1.357-1.149-1.775-.731-.418-1.149-.209-1.149.418"/></g><mask id="l" width="49" height="56" x="219" y="113" maskUnits="userSpaceOnUse" style="mask-type:luminance"><path fill="#fff" d="m219.433 113.637-.105 27.677 47.522 27.365.209-27.469z"/></mask><g mask="url(#l)"><path fill="#4D4D4D" d="m246.387 131.603 8.877-7.729v-2.507L242 129.096z"/><path fill="#E6E6E6" d="m246.387 132.335 12.846-7.52-4.386-2.506-12.847 7.52z"/><path fill="#4D4D4D" d="m246.285 152.593 13.265-7.729.104-20.993-13.264 7.729z"/><path fill="#1A1A1A" d="m241.999 129.094-.104 20.993 4.386 2.507.105-20.994z"/><path fill="#fff" d="m242.836 147.586 2.298 1.357v-11.175l-2.298-1.358zM242.941 133.799c0 .627.523 1.358 1.149 1.776.627.313 1.149.104 1.149-.418s-.522-1.358-1.149-1.776c-.731-.417-1.149-.208-1.149.418"/></g><mask id="m" width="49" height="56" x="219" y="113" maskUnits="userSpaceOnUse" style="mask-type:luminance"><path fill="#fff" d="m219.433 113.637-.105 27.677 47.522 27.365.209-27.469z"/></mask><g mask="url(#m)"><path fill="#4D4D4D" d="m251.09 134.325 8.878-7.728v-2.507l-13.265 7.729z"/><path fill="#E6E6E6" d="m251.09 135.054 12.846-7.52-4.386-2.507-12.847 7.52z"/><path fill="#4D4D4D" d="m250.984 155.316 13.265-7.729.104-20.993-13.264 7.729z"/><path fill="#1A1A1A" d="m246.702 131.812-.104 20.994 4.386 2.506.105-20.993z"/><path fill="#fff" d="m247.539 150.304 2.298 1.358v-11.175l-2.298-1.358zM247.645 136.518c0 .627.522 1.358 1.148 1.775.627.314 1.149.105 1.149-.417 0-.627-.522-1.358-1.149-1.776-.731-.418-1.148-.209-1.148.418"/></g><mask id="n" width="49" height="56" x="219" y="113" maskUnits="userSpaceOnUse" style="mask-type:luminance"><path fill="#fff" d="m219.433 113.637-.105 27.677 47.522 27.365.209-27.469z"/></mask><g mask="url(#n)"><path fill="#4D4D4D" d="m255.785 137.036 8.878-7.729v-2.506l-13.265 7.729z"/><path fill="#E6E6E6" d="m255.785 137.765 12.847-7.52-4.387-2.507-12.847 7.52z"/><path fill="#4D4D4D" d="m255.68 158.031 13.264-7.729.105-20.993-13.265 7.728z"/><path fill="#1A1A1A" d="m251.397 134.527-.104 20.994 4.387 2.506.104-20.993z"/><path fill="#fff" d="m252.23 153.015 2.298 1.358v-11.175l-2.298-1.358zM252.336 139.229c0 .627.522 1.358 1.149 1.775.626.314 1.149.105 1.149-.417 0-.627-.523-1.358-1.149-1.776-.731-.418-1.149-.209-1.149.418"/></g><mask id="o" width="49" height="56" x="219" y="113" maskUnits="userSpaceOnUse" style="mask-type:luminance"><path fill="#fff" d="m219.433 113.637-.105 27.677 47.522 27.365.209-27.469z"/></mask><g mask="url(#o)"><path fill="#4D4D4D" d="m260.48 139.747 8.878-7.729v-2.506l-13.264 7.729z"/><path fill="#E6E6E6" d="m260.48 140.48 12.847-7.52-4.387-2.507-12.846 7.52z"/><path fill="#4D4D4D" d="m260.379 160.742 13.264-7.729.105-20.993-13.265 7.728z"/><path fill="#6D7983" d="m256.093 137.238-.105 20.994 4.387 2.506.104-20.993z"/><path fill="#fff" d="m256.93 155.726 2.297 1.358v-11.175l-2.297-1.358zM257.035 141.94c0 .626.522 1.358 1.149 1.775.627.314 1.149.105 1.149-.417 0-.627-.522-1.358-1.149-1.776-.731-.418-1.149-.209-1.149.418"/></g><mask id="p" width="49" height="56" x="219" y="113" maskUnits="userSpaceOnUse" style="mask-type:luminance"><path fill="#fff" d="m219.433 113.637-.105 27.677 47.522 27.365.209-27.469z"/></mask><g mask="url(#p)"><path fill="#4D4D4D" d="m265.181 142.353 8.982-7.729v-2.507l-13.265 7.729z"/><path fill="#E6E6E6" d="m265.181 143.089 12.846-7.52-4.386-2.507-12.743 7.416z"/><path fill="#4D4D4D" d="m265.18 163.351 13.264-7.729v-20.993l-13.264 7.729z"/><path fill="#1A1A1A" d="m260.897 139.844-.104 20.993 4.387 2.507V142.35z"/><path fill="#fff" d="m261.734 158.336 2.298 1.357v-11.175l-2.298-1.358zM261.734 144.549c0 .627.523 1.358 1.149 1.776.627.313 1.149.104 1.149-.418s-.522-1.358-1.149-1.776c-.626-.417-1.149-.208-1.149.418"/></g><mask id="q" width="49" height="56" x="219" y="113" maskUnits="userSpaceOnUse" style="mask-type:luminance"><path fill="#fff" d="m219.433 113.637-.105 27.677 47.522 27.365.209-27.469z"/></mask><g mask="url(#q)"><path fill="#4D4D4D" d="m269.884 145.075 8.982-7.728v-2.507l-13.264 7.729z"/><path fill="#E6E6E6" d="m269.884 145.804 12.846-7.52-4.386-2.507-12.742 7.416z"/><path fill="#1A1A1A" d="m265.601 142.566-.105 20.994 4.387 2.506v-20.993z"/><path fill="#fff" d="m266.434 161.058 2.297 1.358v-11.175l-2.297-1.358zM266.434 147.272c0 .627.522 1.358 1.148 1.775.627.314 1.149.105 1.149-.417 0-.627-.522-1.358-1.149-1.776-.626-.418-1.148-.209-1.148.418"/></g><mask id="r" width="48" height="56" x="219" y="144" maskUnits="userSpaceOnUse" style="mask-type:luminance"><path fill="#fff" d="m219.323 144.867-.104 27.574 47.522 27.468.209-27.573z"/></mask><g mask="url(#r)"><path fill="#4D4D4D" d="m227.465 151.872 8.878-7.624v-2.611l-13.265 7.729z"/><path fill="#E6E6E6" d="m227.465 152.601 12.846-7.52-4.386-2.507-12.847 7.52z"/><path fill="#4D4D4D" d="m227.363 172.864 13.265-7.625.104-20.993-13.264 7.625z"/><path fill="#1A1A1A" d="M223.078 149.359v20.994l4.282 2.506.105-20.993z"/><path fill="#fff" d="m223.918 167.953 2.298 1.253v-11.175l-2.298-1.254zM224.023 154.065c0 .626.523 1.358 1.149 1.775.627.314 1.149.105 1.149-.417 0-.627-.522-1.358-1.149-1.776-.626-.418-1.149-.209-1.149.418"/><path fill="#4D4D4D" d="m232.168 154.579 8.878-7.624v-2.611l-13.265 7.729z"/><path fill="#E6E6E6" d="m232.168 155.312 12.847-7.52-4.387-2.507-12.847 7.52z"/><path fill="#4D4D4D" d="m232.066 175.575 13.265-7.625.104-20.993-13.264 7.624z"/><path fill="#1A1A1A" d="M227.781 152.074v20.994l4.282 2.506.105-20.993z"/><path fill="#fff" d="m228.621 170.664 2.298 1.253v-11.175l-2.298-1.254zM228.727 156.776c0 .626.522 1.358 1.148 1.775.627.314 1.149.105 1.149-.417 0-.627-.522-1.358-1.149-1.776-.731-.418-1.148-.209-1.148.418"/><path fill="#4D4D4D" d="m236.867 157.294 8.878-7.624v-2.611l-13.265 7.728z"/><path fill="#E6E6E6" d="m236.867 158.027 12.847-7.52-4.387-2.507-12.847 7.52z"/><path fill="#4D4D4D" d="m236.762 178.286 13.264-7.625.105-20.993-13.265 7.624z"/><path fill="#1A1A1A" d="M232.48 154.785v20.993l4.283 2.507.104-20.993z"/><path fill="#fff" d="m233.324 173.375 2.298 1.253v-11.175l-2.298-1.254zM233.43 159.487c0 .626.522 1.357 1.149 1.775.626.314 1.148.105 1.148-.418 0-.626-.522-1.357-1.148-1.775-.732-.418-1.149-.209-1.149.418"/><path fill="#4D4D4D" d="m241.57 160.009 8.878-7.624v-2.612l-13.264 7.729z"/><path fill="#E6E6E6" d="m241.57 160.745 12.847-7.52-4.387-2.506-12.846 7.52z"/><path fill="#4D4D4D" d="m241.465 181.005 13.264-7.625.105-20.993-13.265 7.624z"/><path fill="#1A1A1A" d="M237.184 157.5v20.993l4.282 2.507.104-20.993z"/><path fill="#fff" d="m238.023 176.094 2.298 1.253v-11.176l-2.298-1.253zM238.129 162.205c0 .627.522 1.358 1.149 1.776.626.313 1.149.104 1.149-.418 0-.626-.523-1.358-1.149-1.775-.731-.418-1.149-.209-1.149.417"/><path fill="#F15A24" d="m246.262 162.728 8.877-7.625v-2.611l-13.264 7.729z"/><path fill="#E6E6E6" d="m246.262 163.456 12.846-7.52-4.386-2.506-12.847 7.52z"/><path fill="#F15A24" d="m246.16 183.723 13.265-7.624.104-20.994-13.264 7.625z"/><path fill="#AD3814" d="M241.875 160.219v20.993l4.282 2.507.105-20.994z"/><path fill="#fff" d="m242.719 178.812 2.298 1.254V168.89l-2.298-1.253zM242.824 164.924c0 .627.522 1.358 1.149 1.776.627.313 1.149.104 1.149-.418s-.522-1.358-1.149-1.776c-.731-.417-1.149-.208-1.149.418"/><path fill="#4D4D4D" d="m250.973 165.45 8.877-7.728v-2.507l-13.264 7.729z"/><path fill="#E6E6E6" d="m250.973 166.179 12.846-7.52-4.386-2.507-12.847 7.52z"/><path fill="#4D4D4D" d="m250.867 186.441 13.265-7.729.104-20.993-13.264 7.729z"/><path fill="#6D7983" d="M246.586 162.941v20.994l4.282 2.506.105-20.993z"/><path fill="#fff" d="m247.426 181.427 2.298 1.357v-11.175l-2.298-1.254zM247.531 167.643c0 .627.522 1.358 1.149 1.775.627.314 1.149.105 1.149-.417 0-.627-.522-1.358-1.149-1.776-.731-.418-1.149-.209-1.149.418"/><path fill="#4D4D4D" d="m255.672 168.157 8.878-7.728v-2.507l-13.265 7.729z"/><path fill="#E6E6E6" d="m255.672 168.894 12.846-7.52-4.386-2.507-12.847 7.52z"/><path fill="#4D4D4D" d="m255.566 189.156 13.265-7.729.104-20.993-13.264 7.728z"/><path fill="#1A1A1A" d="M251.285 165.648v20.994l4.282 2.506.105-20.993z"/><path fill="#fff" d="m252.125 184.138 2.298 1.357V174.32l-2.298-1.254zM252.23 170.354c0 .627.523 1.358 1.149 1.775.627.314 1.149.105 1.149-.417 0-.627-.522-1.358-1.149-1.776-.731-.418-1.149-.209-1.149.418"/><path fill="#4D4D4D" d="m260.375 170.872 8.878-7.729v-2.506l-13.265 7.729z"/><path fill="#E6E6E6" d="m260.375 171.605 12.847-7.52-4.387-2.507-12.847 7.52z"/><path fill="#4D4D4D" d="m260.27 191.863 13.264-7.729.104-20.993-13.264 7.729z"/><path fill="#1A1A1A" d="M255.988 168.363v20.994l4.282 2.506.105-20.993z"/><path fill="#fff" d="m256.824 186.852 2.298 1.358v-11.175l-2.298-1.254zM256.93 173.069c0 .626.522 1.357 1.149 1.775.626.314 1.148.105 1.148-.417 0-.627-.522-1.358-1.148-1.776-.732-.418-1.149-.209-1.149.418"/></g><mask id="s" width="48" height="56" x="219" y="176" maskUnits="userSpaceOnUse" style="mask-type:luminance"><path fill="#fff" d="m219.226 176.09-.105 27.573 47.522 27.365.209-27.469z"/></mask><g mask="url(#s)"><path fill="#4D4D4D" d="m227.269 183.092 8.878-7.624v-2.507l-13.264 7.624z"/><path fill="#E6E6E6" d="m227.269 183.827 12.847-7.52-4.387-2.506-12.846 7.52z"/><path fill="#4D4D4D" d="m227.164 204.083 13.265-7.625.104-20.993-13.264 7.624z"/><path fill="#1A1A1A" d="M222.883 180.586v20.993l4.282 2.507.104-20.993z"/><path fill="#fff" d="m223.82 199.176 2.194 1.253v-11.176L223.82 188zM223.82 185.287c0 .627.523 1.358 1.149 1.776.627.313 1.149.104 1.149-.418 0-.627-.522-1.358-1.149-1.776-.731-.417-1.149-.104-1.149.418"/></g><mask id="t" width="48" height="56" x="219" y="176" maskUnits="userSpaceOnUse" style="mask-type:luminance"><path fill="#fff" d="m219.226 176.09-.105 27.573 47.522 27.365.209-27.469z"/></mask><g mask="url(#t)"><path fill="#F15A24" d="m231.973 185.807 8.877-7.625v-2.506l-13.264 7.624z"/><path fill="#E6E6E6" d="m231.973 186.546 12.846-7.52-4.386-2.506-12.847 7.52z"/><path fill="#F15A24" d="m231.867 206.801 13.265-7.624.104-20.993-13.264 7.624z"/><path fill="#AD3814" d="M227.586 183.301v20.993l4.282 2.507.105-20.994z"/><path fill="#fff" d="m228.527 201.89 2.194 1.254v-11.176l-2.194-1.253zM228.527 188.002c0 .627.523 1.358 1.149 1.776.627.313 1.149.104 1.149-.418 0-.627-.522-1.358-1.149-1.775-.731-.418-1.149-.209-1.149.417"/></g><mask id="u" width="48" height="56" x="219" y="176" maskUnits="userSpaceOnUse" style="mask-type:luminance"><path fill="#fff" d="m219.226 176.09-.105 27.573 47.522 27.365.209-27.469z"/></mask><g mask="url(#u)"><path fill="#4D4D4D" d="m243.766 192.599 8.877-7.729v-2.507l-13.264 7.729z"/><path fill="#E6E6E6" d="m243.766 193.223 12.846-7.416-4.386-2.506-12.847 7.415z"/><path fill="#4D4D4D" d="m243.77 213.593 13.264-7.729v-20.993L243.77 192.6z"/><path fill="#1A1A1A" d="M239.379 190.09v20.993l4.387 2.507v-20.993z"/><path fill="#fff" d="m240.32 208.578 2.194 1.358V198.76l-2.194-1.358zM240.32 194.791c0 .627.523 1.358 1.149 1.776.627.313 1.149.104 1.149-.418 0-.627-.522-1.358-1.149-1.775-.626-.418-1.149-.209-1.149.417"/></g><mask id="v" width="48" height="56" x="219" y="176" maskUnits="userSpaceOnUse" style="mask-type:luminance"><path fill="#fff" d="m219.226 176.09-.105 27.573 47.522 27.365.209-27.469z"/></mask><g mask="url(#v)"><path fill="#4D4D4D" d="m248.469 195.314 8.877-7.729v-2.507l-13.264 7.729z"/><path fill="#E6E6E6" d="m248.469 195.942 12.846-7.416-4.386-2.506-12.847 7.415z"/><path fill="#4D4D4D" d="m248.469 216.304 13.264-7.729v-20.993l-13.264 7.729z"/><path fill="#1A1A1A" d="M244.082 192.801v20.993l4.387 2.507v-20.994z"/><path fill="#fff" d="m245.023 211.293 2.194 1.358v-11.176l-2.194-1.358zM245.023 197.506c0 .627.523 1.358 1.149 1.776.627.313 1.149.104 1.149-.418 0-.627-.522-1.358-1.149-1.776-.626-.417-1.149-.208-1.149.418"/></g><mask id="w" width="48" height="56" x="219" y="176" maskUnits="userSpaceOnUse" style="mask-type:luminance"><path fill="#fff" d="m219.226 176.09-.105 27.573 47.522 27.365.209-27.469z"/></mask><g mask="url(#w)"><path fill="#4D4D4D" d="m253.168 198.021 8.878-7.729v-2.507l-13.265 7.729z"/><path fill="#E6E6E6" d="m253.168 198.649 12.847-7.416-4.387-2.506-12.847 7.415z"/><path fill="#4D4D4D" d="m253.168 219.015 13.264-7.729v-20.993l-13.264 7.729z"/><path fill="#1A1A1A" d="M248.781 195.512v20.993l4.387 2.507v-20.994z"/><path fill="#fff" d="m249.719 214.004 2.193 1.357v-11.175l-2.193-1.358zM249.719 200.217c0 .627.522 1.358 1.149 1.776.626.313 1.149.104 1.149-.418 0-.627-.523-1.358-1.149-1.776-.627-.417-1.149-.209-1.149.418"/></g><mask id="x" width="48" height="56" x="219" y="176" maskUnits="userSpaceOnUse" style="mask-type:luminance"><path fill="#fff" d="m219.226 176.09-.105 27.573 47.522 27.365.209-27.469z"/></mask><g mask="url(#x)"><path fill="#4D4D4D" d="m257.863 200.743 8.878-7.729v-2.506l-13.264 7.729z"/><path fill="#E6E6E6" d="m257.863 201.368 12.847-7.416-4.387-2.507-12.846 7.416z"/><path fill="#4D4D4D" d="m257.867 221.734 13.265-7.729v-20.993l-13.265 7.729z"/><path fill="#6D7983" d="M253.477 198.234v20.994l4.386 2.506v-20.993z"/><path fill="#fff" d="m254.418 216.722 2.193 1.254v-11.071l-2.193-1.358zM254.418 202.936c0 .627.522 1.358 1.149 1.775.627.314 1.149.105 1.149-.417 0-.523-.522-1.358-1.149-1.776s-1.149-.209-1.149.418"/></g><mask id="y" width="48" height="56" x="219" y="176" maskUnits="userSpaceOnUse" style="mask-type:luminance"><path fill="#fff" d="m219.226 176.09-.105 27.573 47.522 27.365.209-27.469z"/></mask><g mask="url(#y)"><path fill="#4D4D4D" d="m262.566 203.454 8.878-7.729v-2.506l-13.264 7.729z"/><path fill="#E6E6E6" d="m262.566 204.082 12.847-7.415-4.387-2.507-12.846 7.416z"/><path fill="#4D4D4D" d="m262.566 224.449 13.265-7.729v-20.993l-13.265 7.728z"/><path fill="#1A1A1A" d="M258.18 200.945v20.994l4.386 2.506v-20.993z"/><path fill="#fff" d="m259.125 219.437 2.193 1.254v-11.072l-2.193-1.357zM259.125 205.651c0 .626.522 1.358 1.149 1.775.627.314 1.149.105 1.149-.417 0-.627-.522-1.358-1.149-1.776s-1.149-.209-1.149.418"/></g><mask id="z" width="48" height="56" x="219" y="176" maskUnits="userSpaceOnUse" style="mask-type:luminance"><path fill="#fff" d="m219.226 176.09-.105 27.573 47.522 27.365.209-27.469z"/></mask><g mask="url(#z)"><path fill="#4D4D4D" d="m267.269 206.169 8.878-7.729v-2.506l-13.264 7.728z"/><path fill="#E6E6E6" d="m267.269 206.797 12.847-7.415-4.387-2.507-12.846 7.416z"/><path fill="#1A1A1A" d="M262.883 203.664v20.993l4.386 2.507v-20.993z"/><path fill="#fff" d="m263.824 222.152 2.194 1.253v-11.071l-2.194-1.357zM263.824 208.366c0 .626.522 1.357 1.149 1.775.627.313 1.149.105 1.149-.418 0-.626-.522-1.357-1.149-1.775s-1.149-.209-1.149.418"/></g><path fill="#333" d="M220.388 239.912v-3.447q0 .47-.626.94v3.447c.417-.209.626-.627.626-.94M216 236.465v3.447q0 .47.627.94c.835.522 2.297.522 3.133 0v-3.447c-.836.522-2.298.522-3.133 0q-.627-.47-.627-.94"/><path fill="#000" d="M219.76 237.402c.836-.523.836-1.358 0-1.776-.836-.522-2.298-.522-3.133 0-.836.522-.836 1.358 0 1.776.835.522 2.297.522 3.133 0"/><path fill="#D4BFA7" d="m269.99 139.229-.314 128.466-1.462.836-1.671-2.611v-31.229l.104-3.656v-31.124l.105-27.678v-3.551l.104-27.573v-3.656z"/><path fill="#F2E8DF" d="m214.527 237.51 25.589 14.727 1.045.627 27.051 15.666v-34.988l-27.051-15.563-1.045-.626-25.484-14.623z"/><path fill="#D4BFA7" d="M240.117 217.355v34.885l1.045.627v-34.885z"/><path fill="#333" d="m243.881 222.787-.94.523c.209-.105.418-.105.732.104l.94-.522c-.314-.209-.523-.209-.732-.105"/><path fill="#333" d="m244.299 225.711.94-.523q.312-.156.313-.626c0-.627-.418-1.358-.94-1.671l-.94.522c.522.313.94 1.044.94 1.671q0 .47-.313.627"/><path fill="#000" d="M243.67 223.413c-.522-.313-.94-.104-.94.523 0 .626.418 1.357.94 1.671.523.313.94.104.94-.522 0-.627-.417-1.358-.94-1.672"/><path fill="#333" d="m235.936 218.178-.94.522c.209-.104.418-.104.731.105l.94-.523c-.313-.208-.522-.208-.731-.104M236.353 221.105l.94-.522q.314-.157.314-.627c0-.626-.418-1.358-.94-1.671l-.94.522c.522.314.94 1.045.94 1.671q0 .471-.314.627"/><path fill="#000" d="M235.725 218.808c-.522-.313-.94-.104-.94.522 0 .627.418 1.358.94 1.671.522.314.94.105.94-.522s-.418-1.358-.94-1.671"/><path fill="#D4BFA7" d="M113.429 249.835c3.028 12.743 2.193 18.905-1.463 26.425l-31.75 18.487c3.655-7.52 4.49-13.683 1.462-26.425-3.447-14.518-2.403-19.009-.836-19.949 1.358-.731 3.029.836 2.82 1.462l27.469-15.98c-.209 2.925.313 7.938 2.298 15.98"/><path fill="#F2E8DF" d="M114.577 249.835c3.029 12.743 2.507 20.68-1.149 28.2l-31.751 18.487c3.656-7.52 4.178-15.458 1.149-28.2-3.447-14.518-2.402-19.009-.836-19.949 1.358-.731 3.03.836 2.82 1.462l27.469-15.98c-.104 2.925.418 7.938 2.298 15.98"/><path fill="#333" d="m129.299 331.512 2.193-1.358-8.46-43.24-2.298 1.253z"/><path fill="#4D4D4D" d="m122.197 288.587 2.193-1.254-.208-1.462-2.194 1.253z"/><path fill="#CCC" d="m121.986 287.12 2.193-1.253-1.462-.418-2.194 1.358z"/><path fill="#333" d="m101.926 316.05 2.193-1.253 14.1-45.016-2.193 1.254z"/><path fill="#A79681" d="m116.03 270.827 2.193-1.253-1.358-1.254-2.193 1.254z"/><path fill="#4D4D4D" d="m116.031 271.036 2.194-1.253v-.209l-2.194 1.254z"/><path fill="gray" d="m110.079 233.754-1.462-.418 7.416 37.495 11.802 60.265 1.462.418-8.564-43.345 1.462.418-.209-1.462-1.462-.313z"/><path fill="gray" d="m114.673 269.574-14.204 45.225 1.462 1.253 14.1-45.016v-.208z"/><path fill="#4D4D4D" d="m110.083 233.748 2.194-1.358-1.358-.417-2.298 1.357z"/><path fill="#333" d="m110.083 233.748 2.194-1.358-1.358-.417-2.298 1.357z"/><path fill="#4D4D4D" d="m120.523 286.802 2.193-1.358-10.445-53.057-2.193 1.357z"/><path fill="gray" d="M122.929 300.802v-.627c-.208-.105-.313-.313-.522-.418l-13.578-7.833c-.835-.418-1.462-.209-1.462.626 0 .836.627 1.776 1.462 2.298l13.578 7.833c.314.209.627.209.836.209-.105-.731-.314-1.357-.314-2.088"/><path fill="#333" d="m104.753 345.613 2.193-1.253-8.46-43.344-2.193 1.253z"/><path fill="#4D4D4D" d="m97.75 302.687 26.634-15.354-.209-1.462-26.737 15.458z"/><path fill="#CCC" d="m97.443 301.333 26.737-15.458-1.462-.418-26.737 15.458z"/><path fill="#333" d="m77.387 330.26 2.193-1.358 14.204-45.015-2.193 1.253z"/><path fill="#A79681" d="m91.488 284.932 2.297-1.253-1.357-1.253-2.194 1.253z"/><path fill="#4D4D4D" d="m91.593 285.138 2.193-1.253v-.209l-2.298 1.253z"/><path fill="gray" d="m85.638 247.855-1.462-.417 7.31 37.495 11.803 60.265 1.462.417-8.46-43.344 1.463.418-.314-1.358-1.462-.418z"/><path fill="gray" d="M90.232 283.676 76.027 328.9l1.358 1.358 14.205-45.12-.105-.209z"/><path fill="#4D4D4D" d="m85.642 247.859 2.193-1.254-1.462-.417-2.193 1.253z"/><path fill="#333" d="m85.642 247.859 2.193-1.254-1.462-.417-2.193 1.253z"/><path fill="#4D4D4D" d="m95.98 300.913 2.298-1.254-10.444-53.057-2.193 1.253z"/><path fill="#4D4D4D" d="m83.66 249.831 31.751-18.486-.836-.314-31.75 18.487z"/><path fill="#FBFFF2" d="m94.105 302.892 31.751-18.591-10.445-52.953-31.75 18.486z"/><path fill="#FFC366" d="M113.633 270.517c-3.134 1.775-5.014 6.162-4.074 9.818.314 1.148.94 2.193 1.776 2.924l1.88-2.82q-.627-.627-.94-1.567c-.522-1.984.418-4.282 2.193-5.326a2.94 2.94 0 0 1 1.567-.418l.522-3.342c-.94-.105-1.984.209-2.924.731"/><path fill="#F15A24" d="m116.557 269.785-.522 3.342c1.149 0 2.089.836 2.507 2.194.522 1.984-.418 4.282-2.194 5.326-.104.105-.208.105-.313.209l.522 3.134.627-.314c3.133-1.775 5.013-6.162 3.969-9.817-.731-2.507-2.402-4.074-4.596-4.074"/><path fill="#6D7983" d="m113.224 280.332-1.88 2.82c1.358 1.149 3.238 1.462 5.118.627l-.523-3.134c-.94.523-1.984.314-2.715-.313"/><path fill="#3399B0" d="m113.224 280.332-1.88 2.82c1.358 1.149 3.238 1.462 5.118.627l-.523-3.134c-.94.523-1.984.314-2.715-.313"/><path fill="#6D7983" d="m103.185 279.188-.94 3.342c.94.209 1.775.94 1.984 2.089.523 1.984-.417 4.282-2.193 5.326-.104.105-.209.105-.313.209l.522 3.134.627-.314c3.133-1.775 5.013-6.162 3.968-9.818-.522-2.193-1.88-3.655-3.655-3.968"/><path fill="#3399B0" d="m103.185 279.188-.94 3.342c.94.209 1.775.94 1.984 2.089.523 1.984-.417 4.282-2.193 5.326-.104.105-.209.105-.313.209l.522 3.134.627-.314c3.133-1.775 5.013-6.162 3.968-9.818-.522-2.193-1.88-3.655-3.655-3.968"/><path fill="#FFC366" d="M95.465 285.242a8.94 8.94 0 0 0-.105 4.387c.836 3.342 3.76 4.804 6.789 3.551l-.522-3.133c-1.567.731-3.238-.105-3.656-1.88-.209-.731-.209-1.567 0-2.403z"/><path fill="#F15A24" d="M99.434 279.815c-1.88 1.044-3.343 3.133-3.97 5.431l2.612.522c.313-1.253 1.149-2.402 2.193-2.925.627-.417 1.358-.522 1.985-.313l.94-3.342q-1.88-.47-3.76.627"/><path fill="#333" d="m83.66 249.837-.836-.314 10.34 53.058.94.314z"/><path fill="gray" d="M98.176 314.277c-.105-.104-.21-.208-.418-.313l-13.578-7.833c-.209-.105-.418-.209-.522-.209a5 5 0 0 1-.418 1.149c-.104.209-.104.418-.209.626.21.523.731 1.045 1.254 1.358l13.577 7.834c.418.208.732.313 1.045.208-.522-.94-.731-1.775-.731-2.82"/><path fill="#F2E8DF" d="M112.487 229.885 80.84 248.372c1.358-.731 3.029.94 2.924 1.462l27.469-15.98 4.387-2.506c-.105-.627-1.776-2.298-3.133-1.463"/><path fill="#6D7983" d="m95.043 269.988-.314.209-.104-.418.313-.209zM95.563 272.916l-.313.209-.105-.731.314-.209zm-.313-1.462-.314.209-.104-.731.313-.209zM95.774 274.058l-.209.209-.104-.417.209-.209zM100.16 267.062l-.313.105-.105-.418.314-.104zM100.685 269.99l-.313.209-.105-.731.314-.209zm-.209-1.462-.313.209-.104-.731.313-.209zM100.996 271.136l-.313.104-.105-.418.313-.209zM106.32 256.515l-.313.105-.105-.418.314-.104zM108.094 265.498l-.314.209-.208-.94.313-.209zm-.418-1.775-.313.209-.209-.94.313-.209zm-.313-1.88-.314.209-.209-.94.314-.209zm-.314-1.776-.313.209-.209-.94.313-.209zm-.417-1.775-.314.208-.209-.94.314-.208zM108.306 266.858l-.209.105-.105-.418.314-.209zM110.497 246.594l-.313.104v-.418l.208-.104zM113.631 262.262l-.313.209-.209-.836.313-.209zm-.313-1.776-.313.209-.209-.835.313-.209zm-.313-1.671-.314.209-.209-.836.314-.208zm-.418-1.775-.313.208-.209-.835.313-.209zm-.313-1.776-.314.209-.209-.836.314-.209zm-.418-1.671-.314.209-.208-.836.313-.209zm-.314-1.776-.313.209-.209-.835.314-.209zm-.313-1.775-.313.209-.209-.836.313-.209zm-.418-1.671-.313.209-.209-.836.313-.209zM113.941 263.617l-.313.104-.105-.417.314-.105z"/><path fill="#D93035" d="M93.37 274.79h-.522l1.67-5.327 5.223-3.342.731-6.998 5.431-3.237 3.76-8.878.522.104-3.864 9.191-5.327 3.134-.731 6.997-5.327 3.447z"/><path fill="#D93035" d="m110.392 247.951.731-3.76-2.193 3.447z"/><path fill="#6D7983" d="m117.706 261.525-24.963 14.518-3.864-19.009.313-.104 3.76 18.695 24.649-14.413z"/><path fill="#D4BFA7" d="m308.637 191.545 95.149 54.938v-77.811l-95.149-54.938z"/><path fill="#34424B" d="m403.368 247.108-95.044-54.938c-.209-.104-.418-.418-.418-.627v-77.811c0-.313.105-.522.418-.626a.89.89 0 0 1 .731 0l95.045 54.937c.208.105.417.418.417.627v77.811c0 .314-.104.522-.417.627-.105.104-.209.104-.418.104 0 0-.209 0-.314-.104M309.473 115.09v76.036l93.582 53.997v-76.035z"/><path fill="#fff" d="m372.141 163.871 23.082 13.265v45.746l-23.082-13.369z"/><path fill="#FBB03B" d="M375.902 177.969c0-4.178 3.447-5.64 7.625-3.238 4.178 2.403 7.624 7.834 7.624 12.116 0 4.178-3.446 5.64-7.624 3.238-4.178-2.507-7.625-7.938-7.625-12.116m4.7 2.716c0 1.566 1.358 3.655 2.925 4.595s2.924.418 2.924-1.253c0-1.567-1.358-3.656-2.924-4.596-1.567-.94-2.925-.417-2.925 1.254"/><path fill="#3399B0" d="M383.526 189.98c4.178 2.402 7.624.94 7.624-3.238 0-2.193-.94-4.804-2.611-7.207l-3.133 1.776c.626.94.94 1.88.94 2.716 0 1.566-1.358 2.193-2.925 1.253s-2.924-3.029-2.924-4.596l-4.7-2.715c.104 4.178 3.551 9.609 7.729 12.011"/><path fill="#F15A24" d="M383.527 189.981c.731.418 1.358.731 1.984.94l-1.253-5.222c-.209-.105-.522-.209-.731-.314-1.567-.94-2.925-3.029-2.925-4.595l-4.7-2.716c0 4.074 3.447 9.505 7.625 11.907"/><path fill="#CCC" d="m376.005 190.083 15.144 8.773c.418.209.731.105.731-.313v-.836c0-.417-.313-.835-.731-1.044l-15.144-8.773c-.418-.209-.732-.105-.732.313v.835c0 .314.314.836.732 1.045"/><path fill="#F15A24" d="m385.821 195.724 5.327 3.028c.417.209.731.105.731-.313v-.835c0-.418-.314-.836-.731-1.045l-5.327-3.029c-.418-.209-.731-.104-.731.314v.835c0 .313.313.836.731 1.045"/><path fill="#CCC" d="m376.005 193.216 15.144 8.773c.418.209.731.105.731-.313v-.836c0-.418-.313-.835-.731-1.044l-15.144-8.774c-.418-.208-.732-.104-.732.314v.835c0 .314.314.836.732 1.045"/><path fill="#3399B0" d="m387.387 199.798 3.76 2.193c.418.209.731.105.731-.313v-.836c0-.418-.313-.835-.731-1.044l-3.76-2.194c-.417-.208-.731-.104-.731.314v.835c0 .314.314.836.731 1.045"/><path fill="#CCC" d="m376.005 196.458 15.144 8.773c.418.209.731.105.731-.313v-.836c0-.417-.313-.835-.731-1.044l-15.144-8.773c-.418-.209-.732-.105-.732.313v.835c0 .314.314.836.732 1.045"/><path fill="#6D7983" d="m384.883 201.571 6.267 3.551c.418.209.731.105.731-.313v-.836c0-.417-.313-.835-.731-1.044l-6.267-3.551c-.417-.209-.731-.105-.731.313v.836c.105.313.418.835.731 1.044"/><path fill="#CCC" d="m376.005 199.692 15.144 8.774c.418.209.731.104.731-.314v-.835c0-.418-.313-.836-.731-1.045l-15.144-8.773c-.418-.209-.732-.104-.732.313v.836c0 .313.314.731.732 1.044"/><path fill="#6D7983" d="m388.329 206.794 2.715 1.567c.418.208.731.104.731-.314v-.835c0-.418-.313-.836-.731-1.045l-2.715-1.566c-.418-.209-.731-.105-.731.313v.835c.104.314.417.836.731 1.045"/><path fill="#fff" d="M378.926 179.642c0 2.611 2.089 5.848 4.7 7.311 2.611 1.462 4.7.626 4.7-1.985s-2.089-5.849-4.7-7.311-4.7-.627-4.7 1.985"/><path fill="#6D7983" d="m389.797 215.881 1.462.836v-6.163l-1.462-.835z"/><path fill="#F15A24" d="m387.496 214.526 1.358.835v-3.76l-1.358-.835z"/><path fill="#3399B0" d="m385.195 213.172 1.358.835v-4.804l-1.358-.836z"/><path fill="#6D7983" d="m382.898 211.914 1.358.732v-5.432l-1.358-.835zM380.496 210.557l1.462.731v-3.342l-1.462-.731z"/><path fill="#3399B0" d="m378.199 209.201 1.358.731v-6.057l-1.358-.836z"/><path fill="#6D7983" d="m375.902 207.845 1.358.835v-4.7l-1.358-.835z"/><path fill="#fff" d="m313.336 131.387 23.082 13.369v45.642l-23.082-13.369z"/><path fill="#F15A24" d="M325.033 143.186c1.462.836 2.924 2.089 4.178 3.656l-1.985 3.028c-.731-.835-1.462-1.462-2.297-1.984-2.612-1.567-4.805-.313-4.805 2.716l-4.073-2.298c.104-5.64 4.073-7.938 8.982-5.118"/><path fill="#6D7983" d="M320.228 150.605c0 1.776.732 3.76 1.985 5.536l-2.402 2.402c-2.298-3.238-3.656-7.102-3.551-10.34z"/><path fill="#3399B0" d="M320.228 150.605c0 1.776.732 3.76 1.985 5.536l-2.402 2.402c-2.298-3.238-3.656-7.102-3.551-10.34z"/><path fill="#FFC366" d="M329.321 146.844c2.82 3.446 4.595 7.833 4.595 11.593 0 5.64-3.968 7.833-8.877 5.013-1.88-1.044-3.656-2.82-5.223-4.908l2.403-2.403c.835 1.149 1.775 2.089 2.82 2.716 2.611 1.567 4.804.313 4.804-2.716 0-1.984-.94-4.386-2.507-6.266z"/><path fill="#333" d="m331.719 173.477 1.462.835v8.878l-1.462-.836z"/><path fill="#3399B0" d="m330.258 176.191 1.462.94v5.223l-1.462-.836z"/><path fill="#F15A24" d="m328.691 174.938 1.567.835v5.745l-1.567-.941z"/><path fill="#6D7983" d="m327.227 173.477 1.462.835v6.267l-1.462-.836z"/><path fill="#F15A24" d="m325.766 171.598 1.462.835v7.311l-1.462-.835z"/><path fill="#3399B0" d="m324.305 173.164 1.462.836v4.909l-1.462-.836z"/><path fill="#6D7983" d="m322.84 172.742 1.462.836v4.491l-1.462-.836z"/><path fill="#F15A24" d="m321.273 172.641 1.567.94v3.655l-1.567-.94z"/><path fill="#6D7983" d="m319.812 170.238 1.463.836v5.222l-1.463-.835z"/><path fill="#F15A24" d="m318.348 168.879 1.462.94v5.64l-1.462-.836z"/><path fill="#333" d="m316.891 168.879 1.462.835v4.909l-1.462-.835z"/><path fill="#6D7983" d="m315.426 165.645 1.462.835v7.311l-1.462-.835z"/><path fill="#333" d="m333.189 172.744-3.029-1.775v2.193l3.029 1.776zm-2.924.314v-1.985l2.924 1.671v1.985z"/><path fill="#333" d="M327.23 171.389v-2.194l3.029 1.776v2.193zm.105-1.985v1.985l2.924 1.671v-1.985z"/><path fill="#333" d="M324.207 169.717v-2.194l3.029 1.776v2.193zm.104-2.089v1.984l2.925 1.671v-1.984z"/><path fill="#333" d="M321.281 167.939v-2.193l3.029 1.776v2.193zm.105-1.984v1.984l2.924 1.672v-1.985z"/><path fill="#333" d="M318.355 166.275v-2.193l3.029 1.776v2.193zm0-1.984v1.984l2.925 1.671v-1.984z"/><path fill="#333" d="M315.328 164.6v-2.194l3.029 1.776v2.193zm.105-2.089v1.984l2.924 1.671v-1.984zM333.189 174.834l-3.029-1.775v2.193l3.029 1.775zm-2.924.313v-1.984l2.924 1.671v1.985z"/><path fill="#333" d="M327.23 173.478v-2.193l3.029 1.776v2.193zm.105-1.984v1.984l2.924 1.672v-1.985z"/><path fill="#333" d="M324.207 171.803v-2.194l3.029 1.776v2.193zm.104-2.089v1.984l2.925 1.671v-1.984z"/><path fill="#333" d="M321.281 170.139v-2.194l3.029 1.776v2.193zm.105-2.089v1.984l2.924 1.671v-1.984z"/><path fill="#333" d="M318.355 168.361v-2.193l3.029 1.776v2.193zm0-1.984v1.984l2.925 1.671v-1.984z"/><path fill="#333" d="M315.328 166.689v-2.193l3.029 1.776v2.193zm.105-2.088v1.984l2.924 1.671v-1.984zM333.189 176.924l-3.029-1.776v2.194l3.029 1.775zm-2.924.313v-1.984l2.924 1.671v1.984z"/><path fill="#333" d="M327.23 175.564v-2.193l3.029 1.776v2.193zm.105-1.984v1.984l2.924 1.672v-1.985z"/><path fill="#333" d="M324.207 173.893v-2.194l3.029 1.776v2.193zm.104-2.089v1.984l2.925 1.671v-1.984z"/><path fill="#333" d="M321.281 172.225v-2.194l3.029 1.776V174zm.105-2.089v1.984l2.924 1.671v-1.984z"/><path fill="#333" d="M318.355 170.451v-2.193l3.029 1.775v2.194zm0-1.984v1.984l2.925 1.671v-1.984z"/><path fill="#333" d="M315.328 168.775v-2.193l3.029 1.776v2.193zm.105-2.089v1.985l2.924 1.671v-1.984zM333.189 179.014l-3.029-1.776v2.194l3.029 1.775zm-2.924.313v-1.984l2.924 1.671v1.984z"/><path fill="#333" d="M327.23 177.654v-2.193l3.029 1.775v2.194zm.105-1.984v1.984l2.924 1.671v-1.984z"/><path fill="#333" d="M324.207 175.982v-2.193l3.029 1.776v2.193zm.104-2.088v1.984l2.925 1.671v-1.984z"/><path fill="#333" d="M321.281 174.314v-2.193l3.029 1.776v2.193zm.105-2.088v1.984l2.924 1.671v-1.984z"/><path fill="#333" d="M318.355 172.537v-2.193l3.029 1.775v2.194zm0-1.984v1.984l2.925 1.671v-1.984z"/><path fill="#333" d="M315.328 170.869v-2.193l3.029 1.775v2.194zm.105-2.089v1.985l2.924 1.671v-1.985zM333.189 181.1l-3.029-1.776v2.194l3.029 1.775zm-2.924.313v-1.984l2.924 1.671v1.984z"/><path fill="#333" d="M327.23 179.744v-2.193l3.029 1.775v2.194zm.105-1.984v1.984l2.924 1.671v-1.984z"/><path fill="#333" d="M324.207 178.072v-2.193l3.029 1.775v2.194zm.104-2.089v1.985l2.925 1.671v-1.985z"/><path fill="#333" d="M321.281 176.4v-2.193l3.029 1.776v2.193zm.105-2.089v1.985l2.924 1.671v-1.984z"/><path fill="#333" d="M318.355 174.631v-2.193l3.029 1.775v2.193zm0-1.985v1.985l2.925 1.671v-1.985z"/><path fill="#333" d="M315.328 172.955v-2.193l3.029 1.775v2.194zm.105-2.089v1.985l2.924 1.671v-1.985z"/><path fill="#fff" d="m343.004 147.785 23.082 13.265v45.642l-23.082-13.265z"/><path fill="#F15A24" d="m358.879 161.883 5.327 3.029v-1.567l-5.327-3.029zM351.988 157.914l5.223 3.029v-1.566l-5.223-3.029zM344.988 153.844l5.223 3.029v-1.567l-5.223-3.029z"/><path fill="#fff" d="m358.879 164.599 5.327 3.029v-1.462l-5.327-3.029z"/><path fill="#F15A24" d="m351.988 160.629 5.223 3.029v-1.567l-5.223-3.029zM344.988 156.556l5.223 3.029v-1.462l-5.223-3.029z"/><path fill="#6D7983" d="m358.879 167.422 5.327 3.029v-1.567l-5.327-3.029zM351.988 163.348l5.223 3.029v-1.567l-5.223-3.029z"/><path fill="#3399B0" d="m344.988 159.383 5.223 3.029v-1.567l-5.223-3.029z"/><path fill="#F15A24" d="m358.879 170.133 5.327 3.029v-1.567l-5.327-3.029zM351.988 166.064l5.223 3.029v-1.463l-5.223-3.028zM344.988 162.094l5.223 3.029v-1.567l-5.223-3.029z"/><path fill="#3399B0" d="m358.879 172.852 5.327 3.029v-1.463l-5.327-3.133z"/><path fill="#6D7983" d="m351.988 168.883 5.223 3.029v-1.567l-5.223-3.029zM344.988 164.806l5.223 3.029v-1.462l-5.223-3.029z"/><path fill="#3399B0" d="m358.879 175.568 5.327 3.029v-1.463l-5.327-3.029z"/><path fill="#6D7983" d="m351.988 171.598 5.223 3.029v-1.567l-5.223-3.029zM344.988 167.525l5.223 3.133v-1.567l-5.223-3.029z"/><path fill="#F15A24" d="m358.879 178.387 5.327 3.029v-1.567l-5.327-3.029zM351.988 174.314l5.223 3.029v-1.463l-5.223-3.028z"/><path fill="#fff" d="m344.988 170.348 5.223 3.029v-1.567l-5.223-3.029z"/><path fill="#F15A24" d="m358.879 181.102 5.327 3.029v-1.567l-5.327-3.029z"/><path fill="#D4EEFF" d="m351.988 177.137 5.223 3.029v-1.567l-5.223-3.029z"/><path fill="#F15A24" d="m344.988 173.063 5.223 3.029v-1.567l-5.223-3.029z"/><path fill="#6D7983" d="m358.879 183.822 5.327 3.028v-1.462l-5.327-3.029zM351.988 179.848l5.223 3.029v-1.567l-5.223-3.029zM344.988 175.775l5.223 3.029v-1.463l-5.223-3.029z"/><path fill="#F15A24" d="m358.879 186.637 5.327 3.029v-1.567l-5.327-3.029zM351.988 182.563l5.223 3.029v-1.463l-5.223-3.133zM344.988 178.594l5.223 3.029v-1.567l-5.223-3.029zM358.879 164.599l5.327 3.029v-1.462l-5.327-3.029zM351.988 171.598l5.223 3.029v-1.567l-5.223-3.029zM344.988 167.525l5.223 3.133v-1.567l-5.223-3.029z"/><path fill="#fff" d="m358.879 178.387 5.327 3.029v-1.567l-5.327-3.029z"/><path fill="#F15A24" d="m351.988 174.314 5.223 3.029v-1.463l-5.223-3.028zM344.988 170.348l5.223 3.029v-1.567l-5.223-3.029z"/><path fill="#6D7983" d="m358.879 181.102 5.327 3.029v-1.567l-5.327-3.029zM351.988 177.137l5.223 3.029v-1.567l-5.223-3.029zM344.988 173.063l5.223 3.029v-1.567l-5.223-3.029z"/><path fill="#F15A24" d="m358.879 183.822 5.327 3.028v-1.462l-5.327-3.029zM351.988 179.848l5.223 3.029v-1.567l-5.223-3.029zM344.988 175.775l5.223 3.029v-1.463l-5.223-3.029z"/><path fill="#6D7983" d="m358.879 186.637 5.327 3.029v-1.567l-5.327-3.029zM351.988 182.563l5.223 3.029v-1.463l-5.223-3.133z"/><path fill="#3399B0" d="m344.988 178.594 5.223 3.029v-1.567l-5.223-3.029z"/><path fill="#6D7983" d="m358.879 189.356 5.327 3.029v-1.567l-5.327-3.029zM351.988 185.283l5.223 3.028v-1.462l-5.223-3.029zM344.988 181.317l5.223 3.029v-1.567l-5.223-3.029z"/><path fill="#F15A24" d="m358.879 192.068 5.327 3.029v-1.463l-5.327-3.029zM351.988 188.102l5.223 3.029v-1.567l-5.223-3.029z"/><path fill="#fff" d="m344.988 184.029 5.223 3.029v-1.463l-5.223-3.029z"/><path fill="#F15A24" d="m358.879 194.79 5.327 3.029v-1.462l-5.327-3.029z"/><path fill="#3399B0" d="m351.988 190.813 5.223 3.029v-1.567l-5.223-3.029z"/><path fill="#F15A24" d="m344.988 186.844 5.223 3.029v-1.567l-5.223-3.029z"/><path fill="#3399B0" d="m358.879 197.606 5.327 3.029v-1.567l-5.327-3.029z"/><path fill="#6D7983" d="m351.988 193.533 5.223 3.028v-1.462l-5.223-3.029zM344.988 189.563l5.223 3.029v-1.567l-5.223-3.029z"/><path fill="#F15A24" d="m358.879 200.321 5.327 3.028v-1.566l-5.327-3.029zM351.988 196.352l5.223 3.029v-1.567l-5.223-3.029zM344.988 192.282l5.223 3.028v-1.566l-5.223-3.029z"/><path fill="#fff" d="m210.559 71.023-158.13 91.284v-10.026l158.13-91.285z"/><path fill="#97B9CF" d="M267.17 317.408c-1.044.627-1.044 1.567 0 2.194l83.869 48.775c1.149.627 2.924.627 4.073 0l55.669-32.169c1.045-.626 1.045-1.566 0-2.193l-21.829-12.847c-1.044-.626-2.82-.626-3.864 0l-17.338 10.027c-1.149.627-3.029.627-4.178 0l-57.966-33.631c-1.045-.627-2.82-.627-3.865 0z" opacity=".5"/><path fill="gray" d="m304.035 297.37 2.925 1.671c-.523-.314-1.149-.209-1.985.209l-2.924-1.671c.731-.418 1.462-.523 1.984-.209"/><path fill="gray" d="m290.982 307.392-3.029-1.776 14.1-8.042 2.925 1.671z"/><path fill="#333" d="m273.538 321.908-2.925-1.776v-1.253l2.925 1.671z"/><path fill="gray" d="m276.361 315.856-3.029-1.775 12.116-6.893 2.924 1.671z"/><path fill="gray" d="m273.538 320.558-2.925-1.672c0-1.775 1.254-3.864 2.716-4.804l2.924 1.671c-1.462.94-2.715 3.029-2.715 4.805"/><path fill="#666" d="m288.373 308.85-2.925-1.671-.104-25.171 2.924 1.775z"/><path fill="#333" d="m288.268 283.792-2.924-1.775 2.611-1.462 2.924 1.671z"/><path fill="#333" d="m290.877 282.223.104 25.171 13.996-8.147c1.567-.835 2.715-.209 2.715 1.567v1.253l-34.153 19.74v-1.253c0-1.776 1.253-3.865 2.716-4.805l12.011-6.997-.105-25.172z"/><path fill="gray" d="m401.797 327.227 2.924 1.671c-.522-.313-1.148-.209-1.984.209l-2.925-1.671c.732-.418 1.463-.418 1.985-.209M365.756 350.52l-2.924-1.671 36.973-21.411 2.925 1.775z"/><path fill="#333" d="m348.42 365.033-3.029-1.671v-1.358l3.029 1.775z"/><path fill="gray" d="m351.139 358.981-2.924-1.671 12.011-6.998 2.924 1.776zM348.421 363.784l-2.925-1.671c0-1.776 1.253-3.864 2.716-4.804l2.924 1.671c-1.567.94-2.82 3.029-2.715 4.804"/><path fill="#666" d="m363.15 352.084-2.924-1.775-.105-25.067 2.925 1.671z"/><path fill="#333" d="m363.046 326.914-2.925-1.672 2.611-1.566 2.925 1.775z"/><path fill="#333" d="m365.654 325.449.105 25.171 36.973-21.411c1.567-.835 2.716-.209 2.716 1.567v1.253l-57.132 33.005v-1.254c0-1.775 1.254-3.864 2.716-4.804l12.011-6.998-.104-25.171z"/><path fill="#666" d="m288.789 298.502 1.671-.94 72.067 41.465-1.671.94z"/><path fill="#333" d="m288.789 300.283 72.067 41.465v-1.776l-72.067-41.464z"/><path fill="gray" d="m354.585 357.001-2.925-1.671 8.565-5.014 2.924 1.776z"/><path fill="#666" d="m363.15 352.087-2.924-1.776-.105-49.506 2.925 1.671z"/><path fill="#333" d="m363.046 302.48-2.925-1.671 2.611-1.567 2.925 1.776z"/><path fill="#333" d="m365.654 301.012.105 49.506-2.612 1.567-.104-49.611z"/><path fill="#666" d="m383.822 340.181-3.029-1.776v-47.522l2.924 1.775z"/><path fill="#333" d="m383.717 292.664-2.924-1.776 2.611-1.462 2.925 1.671z"/><path fill="#333" d="M386.334 291.094v47.522l-2.507 1.567-.104-47.523z"/><path fill="#D4BFA7" d="M266.433 274.064c-.105-.418.208-.94.731-1.253l34.571-19.845c1.044-.627 2.82-.627 3.864 0l57.967 33.631c1.149.627 3.029.627 4.178 0l17.337-10.026c1.045-.627 2.82-.627 3.865 0l21.829 12.846c.522.314.731.731.731 1.149v2.82c0 .418-.313.836-.836 1.149l-55.669 32.169c-1.148.627-2.924.627-4.073 0l-83.764-48.88c-.523-.313-.731-.731-.836-1.149v-2.82c.105.104.105.104.105.209"/><path fill="#F2E8DF" d="M267.166 272.811c-1.044.626-1.044 1.566 0 2.193l83.869 48.775c1.149.627 2.924.627 4.073 0l55.669-32.168c1.045-.627 1.045-1.567 0-2.194l-21.829-12.846c-1.044-.627-2.82-.627-3.864 0l-17.338 10.026c-1.149.627-3.029.627-4.178 0l-57.966-33.631c-1.045-.627-2.82-.627-3.865 0z"/><path fill="#0E0E14" d="M322.629 300.588c0-.105 0-.313.104-.418l4.491-5.953.314-.314a2.35 2.35 0 0 1 1.88-.208l18.382 4.7c.627.209 1.044.522 1.044.94v2.193c0 .104 0 .313-.104.418l-4.491 5.953-.313.313a2.34 2.34 0 0 1-1.88.209l-18.383-4.7c-.626-.209-1.044-.522-1.044-.94z"/><path fill="#748597" d="M327.644 293.902c-.104.105-.313.209-.313.314l-4.491 5.953c-.418.522 0 1.044.835 1.358l18.382 4.7c.627.209 1.463.104 1.88-.209.105-.105.314-.209.314-.314l4.491-5.953c.418-.522 0-1.044-.836-1.358l-18.382-4.7a3.75 3.75 0 0 0-1.88.209"/><path fill="#333942" d="m311.023 258.703.105 30.916 50.76 12.951-.105-30.916zM361.793 271.651l.104 30.915 1.045-1.357-.105-30.916z"/><path fill="#748597" d="m312.068 257.344-1.045 1.358 50.76 12.951 1.045-1.358z"/><path fill="#748597" d="m312.068 257.344-1.045 1.358 50.76 12.951 1.045-1.358z"/><path fill="#4D5865" d="M322.625 271.027v17.234l28.2 7.102v-17.129z"/><path fill="#333942" d="M350.832 278.235v17.129l.522-.731v-17.129z"/><path fill="#748597" d="m323.147 270.293-.522.731 28.2 7.207.522-.731z"/><path fill="#748597" d="m323.147 270.293-.522.731 28.2 7.207.522-.731zM332.332 286.703v13.369l6.893 1.671-.104-13.264z"/><path fill="#4D5865" d="M332.332 286.703v13.369l6.893 1.671-.104-13.264z"/><path fill="#0E0E14" d="m339.125 288.475.104 13.264 1.358-1.775-.418-12.847z"/><path fill="#6F819A" d="m333.272 285.449-.94 1.254 6.789 1.775 1.044-1.358z"/><path fill="#AD3814" d="m283.15 269.157 2.089-2.089h1.567c3.029-1.044 6.789-1.044 9.818 0h1.566l2.089 2.089c2.089 2.194 1.567 4.909-1.566 6.789-3.865 2.194-10.027 2.194-13.787 0-3.342-1.88-3.864-4.595-1.776-6.789"/><path fill="#FF7847" d="M291.716 273.439c4.096 0 7.416-1.917 7.416-4.282s-3.32-4.282-7.416-4.282c-4.095 0-7.415 1.917-7.415 4.282s3.32 4.282 7.415 4.282"/><path fill="#1A1A1A" d="M286.492 268.219c0 .731 1.567.731 1.671 0v-9.505c0-1.671.523-3.237 1.358-4.595l6.998-10.654-1.045-.731-6.997 10.654a9.3 9.3 0 0 0-1.567 5.222z"/><path fill="#4D4D4D" d="m308.739 248.161-7.52-6.893c-.104-.104-.522-.104-1.044.209-.105 0-.209.104-.209.104l-2.298-2.089c-.105-.104-.105-.104-.313 0-.418.105-.836.209-1.254.209-.104 0-.209.105-.313.105-.627.313-1.567 1.253-1.985 1.984-.208.314-.313.522-.313.731s0 .418-.104.627c0 .209 0 .418-.105.522v.105c0 .104 0 .209.105.313l2.297 2.193c-.313.627-.313.94-.104 1.149l7.52 6.894c.104.104.522.104 1.044-.209 1.254-.731 3.029-2.507 4.074-4.074.626-1.044.731-1.671.522-1.88"/><path fill="#AD3814" d="M308.221 249.942c-.94 1.567-2.82 3.343-4.073 4.074-.523.313-.836.313-1.045.209l-4.073-3.76-1.358-1.254-1.984-1.88c.104.105.522.105.939-.209.209-.104.314-.209.523-.313 1.149-.836 2.611-2.402 3.551-3.76.626-.94.731-1.567.522-1.776l.209.209 1.358 1.254 5.849 5.431c.313.209.208.835-.418 1.775"/><path fill="#F15A24" d="M300.281 241.48c1.253-.731 1.462 0 .418 1.567-.94 1.566-2.82 3.342-4.073 4.073s-1.463 0-.418-1.567c.94-1.566 2.82-3.446 4.073-4.073"/><path fill="#FF7847" d="M295.889 239.801c.627-.314.731 0 .209.731s-1.358 1.671-1.984 1.984c-.627.314-.732 0-.209-.835.522-.627 1.357-1.567 1.984-1.88"/><path fill="#AD3814" d="m297.666 239.488 2.611 2.403c.209.208 0 .626-.418 1.357-.731 1.149-2.088 2.507-3.028 3.029-.418.209-.627.209-.732.105l-2.611-2.403c.105.105.418.105.731-.104.94-.522 2.298-1.88 3.029-3.029.523-.731.627-1.253.418-1.358"/><path fill="#F15A24" d="M296.204 239.699c.418-.105.835-.209 1.253-.209.522-.105.522.418-.104 1.358-.731 1.148-2.089 2.506-3.029 3.028-.627.314-.836.209-.836-.104v-.104c0-.209 0-.418.105-.523 0-.209 0-.417.104-.626 0 .209.105.313.522.104.627-.313 1.567-1.253 1.985-1.984q.47-1.097 0-.94M297.668 246.595l6.998 6.685c.522-.314.835-.627 1.253-1.149l-6.998-6.58c-.417.418-.835.731-1.253 1.044"/><path fill="#C7B299" d="m390.409 302.06-16.711-9.818h-.104l16.815 9.714z"/><path fill="#AD3814" d="m390.624 301.535-16.815-9.713 12.846-7.416 16.816 9.714z"/><path fill="#FF7847" d="m390.515 298.304-16.816-9.818 12.951-7.416 16.816 9.714z"/><path fill="#FF7847" d="m390.411 298.302-16.711-9.818v.105a4.6 4.6 0 0 0-.627 1.671c-.104.835.104 1.567.627 1.984l16.815 9.714c-.418-.418-.731-1.149-.626-1.985 0-.626.208-1.149.522-1.671"/><path fill="#fff" d="M375.581 292.768c-.313-.314-.522-.836-.418-1.567 0-.418.209-.835.313-1.149l-1.671-1.044c-.209.313-.313.731-.313 1.149-.104.626.104 1.253.418 1.566z"/><path fill="#AD3814" d="M390.094 299.872c-.105.418 0 .835.104 1.149.105.209.209.418.314.522l12.846-7.416v.418l-12.951 7.52h-.104c-.209-.209-.418-.418-.522-.731s-.209-.836-.105-1.253c0-.105 0-.209.105-.314.104-.522.313-.94.626-1.357v-.105l.522-.313 11.28-6.58 1.149-.627v.418l-1.149.627-10.966 6.371-.731.417c-.105.314-.314.732-.418 1.254"/><path fill="#FBFFF2" d="m402.112 291.926-10.862 6.266v2.298l10.862-6.266z"/><path fill="#F2E8DF" d="M391.247 298.195v2.298l-1.149-.627c.104-.417.209-.835.417-1.253z"/><path fill="#fff" d="m391.454 286.292-7.937 4.491-4.283-2.507 7.834-4.491z"/><path fill="#C7B299" d="m389.679 297.775-16.711-9.818h-.105l16.816 9.713z"/><path fill="#34424B" d="m389.894 297.246-16.816-9.713 12.847-7.416 16.815 9.714z"/><path fill="#333" d="m389.784 294.015-16.815-9.818 12.951-7.416 16.815 9.714zM389.68 294.017l-16.711-9.818v.105a4.6 4.6 0 0 0-.626 1.671c-.105.835.104 1.566.626 1.984l16.816 9.714c-.418-.418-.731-1.149-.627-1.985 0-.522.209-1.149.522-1.671"/><path fill="#F2E8DF" d="M374.85 288.584c-.313-.313-.522-.835-.417-1.566 0-.418.209-.836.313-1.149l-1.671-1.045c-.209.314-.313.731-.313 1.149-.105.627.104 1.253.417 1.567zM386.654 295.163a3.8 3.8 0 0 1-.209-1.149c0-.209.105-.418.105-.627l-8.774-5.117c-.104.208-.104.417-.104.626 0 .418 0 .836.209 1.149z"/><path fill="gray" d="M389.363 295.583c-.104.418 0 .835.105 1.149.104.209.209.417.313.522l12.847-7.416v.418l-12.951 7.52h-.105c-.209-.209-.417-.418-.522-.731-.104-.313-.209-.836-.104-1.253 0-.105 0-.209.104-.314a3.2 3.2 0 0 1 .627-1.357v-.105l.522-.313 11.28-6.58 1.149-.627v.418l-1.149.627-10.967 6.371-.731.417c-.104.314-.313.732-.418 1.254"/><path fill="#F2E8DF" d="m401.382 287.641-10.862 6.266v2.298l10.862-6.267zM390.516 293.91v2.298l-1.149-.627c.105-.418.209-.835.418-1.253z"/><path fill="#97B9CF" d="m300.905 393.024-89.822-51.804c-1.149-.627-2.925-.627-4.073 0l-36.243 21.202c-1.149.627-1.149 1.671 0 2.402l26.425 15.249c-7.416-1.253-15.771-.104-21.62 3.238-8.565 5.013-8.565 13.056 0 17.965 8.564 5.013 22.56 5.013 31.124 0 5.849-3.343 7.729-8.147 5.536-12.534l20.471 11.802c1.253.732 1.253 1.88 0 2.612l-24.753 14.413c-1.149.627-1.149 1.671 0 2.402l23.604 13.473c1.149.627 2.924.627 4.073 0l65.174-37.913c1.253-.731 1.253-1.88.104-2.507" opacity=".5"/><path fill="gray" d="m215.569 341.519 3.029 1.775c-.522-.313-1.253-.209-2.089.209l-3.029-1.776c.836-.522 1.567-.522 2.089-.208"/><path fill="gray" d="m201.993 351.97-3.134-1.776 14.623-8.46 3.133 1.776z"/><path fill="#333" d="m180.997 368.68-3.029-1.775-.105-1.358 3.134 1.775z"/><path fill="gray" d="m183.818 362.411-3.029-1.775 15.353-8.878 3.134 1.775z"/><path fill="gray" d="m180.998 367.32-3.029-1.775c0-1.776 1.253-4.074 2.82-5.014l3.029 1.776c-1.567 1.044-2.82 3.238-2.82 5.013"/><path fill="#666" d="m199.278 353.534-3.133-1.776v-26.215l3.028 1.776z"/><path fill="#333" d="m199.173 327.315-3.028-1.776 2.715-1.566 3.029 1.775z"/><path fill="#333" d="m201.889 325.75.104 26.216 14.623-8.46c1.566-.94 2.924-.209 2.924 1.671v1.357L181 368.677v-1.358c0-1.776 1.253-4.073 2.82-5.013l15.353-8.878-.104-26.216z"/><path fill="#666" d="m199.695 342.783 1.776-1.045 75.2 43.24-1.776 1.045z"/><path fill="#333" d="m199.695 344.561 75.2 43.24v-1.776l-75.2-43.24z"/><path fill="gray" d="m293.698 386.532 3.029 1.775c-.522-.313-1.253-.209-2.089.209l-3.029-1.775c.836-.418 1.567-.418 2.089-.209M280.021 396.982l-3.029-1.776 14.622-8.46 3.134 1.88z"/><path fill="#333" d="m241.06 424.238-3.029-1.88V421l3.029 1.88z"/><path fill="gray" d="m243.985 417.867-3.133-1.775 33.422-19.322 3.029 1.775zM241.06 422.887l-3.029-1.776c0-1.776 1.254-4.073 2.82-5.013l3.029 1.775c-1.567.94-2.82 3.134-2.82 5.014"/><path fill="#666" d="m277.301 398.546-3.029-1.776-.104-40.942 3.133 1.776z"/><path fill="#333" d="m277.301 357.6-3.133-1.776 2.716-1.566 3.133 1.775z"/><path fill="#333" d="m280.017 356.035.105 41.047 14.622-8.46c1.567-.94 2.925-.209 2.925 1.671v1.358l-56.505 32.586v-1.357c0-1.776 1.253-4.074 2.82-5.014l33.422-19.322-.104-41.047z"/><path fill="#666" d="m255.363 411.295-3.134-1.776-.104-41.046 3.133 1.775z"/><path fill="#333" d="m255.258 370.248-3.133-1.775 2.716-1.567 3.133 1.776z"/><path fill="#333" d="m257.977 368.68.105 41.046-2.716 1.567-.104-41.047z"/><path fill="#D4BFA7" d="M301.735 349.155c.104-.523-.209-1.045-.836-1.463l-89.822-51.804c-1.149-.627-2.925-.627-4.073 0l-36.243 21.202c-.522.314-.835.731-.835 1.149v3.029c0 .418.313.836.835 1.149l61.623 35.615-24.44 14.205c-.523.313-.836.731-.836 1.149v3.029c0 .417.313.835.836 1.149l23.604 13.473c1.149.627 2.924.627 4.073 0l65.174-37.913c.626-.314.835-.836.835-1.254v-3.029c.105.209.105.314.105.314"/><path fill="#F2E8DF" d="M300.902 347.691c1.253.731 1.253 1.776 0 2.507l-65.174 37.913c-1.148.627-2.924.627-4.073 0l-23.604-13.473c-1.149-.627-1.149-1.671 0-2.402l24.753-14.414c1.253-.731 1.253-1.88 0-2.611l-62.04-35.824c-1.149-.627-1.149-1.671 0-2.402l36.242-21.202c1.149-.627 2.925-.627 4.074 0z"/><path fill="#141C26" d="m198.969 321.374 29.558 17.129 18.695-10.862v-1.045l-29.558-16.084-18.695 9.818z"/><path fill="#ADC1D9" d="m198.969 320.327 29.558 17.129 18.695-10.862-29.558-17.129z"/><path fill="#3B5E7D" d="m242.836 325.652-23.5-13.578-10.758 6.162 23.5 13.683z"/><path fill="#141C26" d="m242.312 325.658-1.776-1.045-1.462.731 1.88 1.149zM240.226 324.404l-1.88-1.045-1.358.836 1.88 1.044zM238.136 323.154l-1.88-1.045-1.358.836 1.776 1.044zM235.946 322.001l-1.776-1.044-1.358.731 1.776 1.045zM233.855 320.748l-1.776-1.045-1.462.836 1.88 1.044zM231.769 319.498l-1.88-1.045-1.358.836 1.776 1.044zM229.679 318.349l-1.88-1.044-1.358.731 1.776 1.044zM227.485 317.095l-1.776-1.044-1.357.835 1.775 1.045zM225.394 315.841l-1.776-1.044-1.462.835 1.88 1.045zM223.304 314.693l-1.88-1.045-1.358.732 1.776 1.044zM221.114 313.439l-1.776-1.044-1.358.835 1.776 1.045zM239.809 327.123l-1.775-1.045-1.358.731 1.775 1.045zM237.718 325.865l-1.775-1.045-1.463.836 1.88 1.044zM235.632 324.611l-1.88-1.045-1.357.836 1.775 1.044zM233.438 323.465l-1.776-1.149-1.357.836 1.775 1.044zM231.352 322.212l-1.775-1.044-1.358.731 1.775 1.149zM229.257 320.959l-1.775-1.045-1.462.836 1.88 1.044zM227.171 319.709l-1.88-1.045-1.357.836 1.775 1.044zM224.977 318.556l-1.775-1.044-1.358.731 1.775 1.044zM222.89 317.302l-1.775-1.044-1.463.835 1.88 1.045zM220.8 316.048l-1.775-1.044-1.463.835 1.881 1.045zM218.714 314.9l-1.88-1.045-1.357.732 1.775 1.044zM238.242 327.955l-1.776-1.045-1.462.836 1.88 1.044zM236.156 326.81l-1.88-1.044-1.358.731 1.776 1.044zM233.961 325.556l-1.775-1.044-1.358.835 1.776 1.045zM231.868 324.302l-1.776-1.044-1.358.835 1.776 1.045zM229.781 323.154l-1.776-1.045-1.462.731 1.88 1.045zM227.691 321.9l-1.88-1.045-1.358.836 1.776 1.044zM225.501 320.642l-1.776-1.044-1.358.835 1.776 1.045zM223.407 319.497l-1.776-1.149-1.358.835 1.776 1.045zM221.324 318.244l-1.776-1.045-1.462.731 1.88 1.149zM219.234 316.986l-1.88-1.045-1.358.836 1.776 1.044zM236.675 328.896l-1.88-1.044-1.357.835 1.775 1.045zM234.585 327.75l-1.88-1.148-1.357.835 1.775 1.045zM232.391 326.494l-1.775-1.045-1.358.731 1.775 1.045zM230.304 325.24l-1.775-1.045-1.463.836 1.88 1.044zM228.214 323.99l-1.88-1.045-1.357.836 1.775 1.044zM226.02 322.841l-1.776-1.044-1.357.731 1.775 1.044zM223.93 321.587l-1.775-1.044-1.358.836 1.775 1.044zM221.847 320.334l-1.775-1.045-1.463.836 1.88 1.044zM219.757 319.185l-1.88-1.044-1.357.731 1.775 1.044z"/><path fill="#141C26" d="m217.04 315.736-1.567.94 2.089 1.253-1.358.836-2.089-1.254-.522-.313-1.253-.731 1.149-.731.209-.105 1.566-.94zM232.392 328.27l.523.314 2.193 1.253-1.462.835-2.089-1.253-.522-.313-1.254-.731 1.358-.836zM230.828 327.435l-1.776-1.044-1.462.731 1.88 1.044zM228.734 326.181l-1.88-1.044-1.358.835 1.776 1.045zM226.648 324.927l-1.88-1.044-1.358.835 1.776 1.045zM224.454 323.782l-1.776-1.149-1.358.835 1.776 1.045zM222.371 322.525l-1.776-1.045-1.462.732 1.88 1.044zM220.277 321.271l-1.88-1.044-1.358.835 1.776 1.045zM218.086 320.017l-1.775-1.044-1.358.835 1.776 1.045zM214.219 317.824l.313.104 1.463.94-1.358.731-1.462-.835-.314-.209-2.193-1.149 1.462-.836zM233.438 330.779l-1.776-1.045-1.357.731 1.775 1.045zM231.347 329.521l-1.775-1.044-1.463.835 1.88 1.045zM229.257 328.271l-1.88-1.044-1.357.835 1.88 1.045zM217.774 321.69l.94.522.209.209 1.88 1.045.314.104 1.775 1.045.313.209 1.776 1.044 2.193 1.253-1.462.731-2.089-1.148-1.775-1.045-.314-.209-1.88-1.044-.313-.209-1.776-1.045-.313-.104-.835-.522-.94-.522 1.357-.836zM216.52 320.959l-1.776-1.045-1.357.836 1.775 1.044zM214.429 319.813l-1.775-1.149-1.463.836 1.88 1.044zM212.339 318.556l-1.88-1.044-1.357.731 1.775 1.149z"/><path fill="#fff" d="m242.312 325.447-1.776-1.045-1.462.836 1.88 1.044z"/><path fill="#96AAC3" d="m240.226 324.193-1.88-1.045-1.358.836 1.88 1.044zM238.136 322.943l-1.88-1.045-1.358.836 1.776 1.044zM235.946 321.791l-1.776-1.045-1.358.731 1.776 1.045zM233.855 320.537l-1.776-1.045-1.462.836 1.88 1.044zM231.769 319.287l-1.88-1.045-1.358.836 1.776 1.044zM229.679 318.138l-1.88-1.044-1.358.731 1.776 1.044zM227.485 316.884l-1.776-1.044-1.357.835 1.775 1.045zM225.394 315.63l-1.776-1.044-1.462.835 1.88 1.045zM223.304 314.482l-1.88-1.044-1.358.731 1.776 1.044zM221.114 313.228l-1.776-1.044-1.358.835 1.776 1.045zM239.809 326.912l-1.775-1.045-1.358.731 1.775 1.045zM237.718 325.654l-1.775-1.045-1.463.836 1.88 1.044zM235.632 324.4l-1.88-1.045-1.357.836 1.775 1.044zM233.438 323.259l-1.776-1.044-1.357.731 1.775 1.044zM231.352 322.001l-1.775-1.044-1.358.731 1.775 1.149zM229.257 320.748l-1.775-1.045-1.462.836 1.88 1.044zM227.171 319.498l-1.88-1.045-1.357.836 1.775 1.044zM224.977 318.345l-1.775-1.044-1.358.731 1.775 1.044zM222.89 317.091l-1.775-1.044-1.463.835 1.88 1.045zM220.8 315.837l-1.775-1.044-1.463.836 1.881 1.044zM218.714 314.689l-1.88-1.044-1.357.731 1.775 1.044zM238.242 327.744l-1.776-1.045-1.462.836 1.88 1.044zM236.156 326.599l-1.88-1.044-1.358.731 1.776 1.044zM233.961 325.345l-1.775-1.044-1.358.835 1.776 1.045zM231.868 324.091l-1.776-1.044-1.358.835 1.776 1.045zM229.781 322.943l-1.776-1.045-1.462.732 1.88 1.044zM227.691 321.689l-1.88-1.044-1.358.835 1.776 1.045zM225.501 320.431l-1.776-1.044-1.358.835 1.776 1.045zM223.407 319.287l-1.776-1.045-1.358.731 1.776 1.045zM221.324 318.033l-1.776-1.045-1.462.731 1.88 1.149zM219.234 316.775l-1.88-1.045-1.358.836 1.776 1.044zM236.675 328.685l-1.88-1.044-1.357.835 1.775 1.045zM234.585 327.54l-1.88-1.149-1.357.835 1.775 1.045zM232.391 326.283l-1.775-1.045-1.358.731 1.775 1.149zM230.304 325.029l-1.775-1.045-1.463.836 1.88 1.044zM228.214 323.779l-1.88-1.045-1.357.836 1.775 1.044zM226.02 322.63l-1.776-1.044-1.357.731 1.775 1.045zM223.93 321.376l-1.775-1.044-1.358.836 1.775 1.044zM221.847 320.123l-1.775-1.045-1.463.836 1.88 1.044zM219.757 318.974l-1.88-1.044-1.357.731 1.775 1.044z"/><path fill="#fff" d="m217.04 315.525-1.567.94 2.089 1.253-1.358.836-2.089-1.254-.522-.313-1.253-.731 1.149-.731.209-.105 1.566-.94zM232.392 328.059l.523.314 2.193 1.253-1.462.835-2.089-1.253-.522-.313-1.254-.731 1.358-.836z"/><path fill="#96AAC3" d="m230.828 327.224-1.776-1.044-1.462.731 1.88 1.044zM228.734 325.97l-1.88-1.044-1.358.835 1.776 1.045zM226.648 324.716l-1.88-1.044-1.358.835 1.776 1.045zM224.454 323.571l-1.776-1.149-1.358.835 1.776 1.045zM222.371 322.314l-1.776-1.044-1.462.731 1.88 1.149zM220.277 321.06l-1.88-1.044-1.358.835 1.776 1.045zM218.086 319.806l-1.775-1.044-1.358.835 1.776 1.045z"/><path fill="#fff" d="m214.219 317.613.313.104 1.463.94-1.358.731-1.462-.835-.314-.209-2.193-1.149 1.462-.836zM233.438 330.568l-1.776-1.045-1.357.732 1.775 1.044z"/><path fill="#96AAC3" d="m231.347 329.31-1.775-1.044-1.463.835 1.88 1.045zM229.257 328.06l-1.88-1.044-1.357.835 1.88 1.045z"/><path fill="#fff" d="m217.774 321.479.94.522.209.209 1.88 1.045.314.104 1.775 1.045.313.209 1.776 1.044 2.193 1.253-1.462.732-2.089-1.149-1.775-1.045-.314-.209-1.88-1.044-.313-.209-1.776-1.044-.313-.105-.835-.522-.94-.522 1.357-.836z"/><path fill="#96AAC3" d="m216.52 320.748-1.776-1.045-1.357.836 1.775 1.044zM214.429 319.603l-1.775-1.044-1.463.731 1.88 1.044z"/><path fill="#fff" d="m212.339 318.345-1.88-1.044-1.357.731 1.775 1.149z"/><path fill="#141C26" d="m218.5 309.257 28.722 17.338.836-.209 5.744-21.202-29.662-17.129-.836.313z"/><path fill="#96AAC3" d="m217.664 309.469 29.558 17.129 5.744-21.202-29.662-17.025z"/><path fill="#fff" d="m218.707 309.053 27.991 16.189.105-.314 5.117-19.113-27.677-15.98-.418-.105z"/><path fill="#3B5E7D" d="m219.125 308.945 27.678 15.98 5.118-19.113-13.787-7.833-13.891-8.147zM211.395 325.655l6.997 4.073 4.387-2.506-6.998-4.074z"/><path fill="#fff" d="m251.607 306.02-1.671 6.163-2.194-8.46zM243.772 301.425l4.7 16.502-.94 3.238-5.848-20.993zM223.51 293.277l6.58 21.725-5.745-3.238-3.029-10.236zM228.834 292.861l7.52 25.798-1.88-1.045-7.415-25.798zM240.535 299.542l6.58 23.5-.522 1.567-5.849-3.447-7.416-25.693z" opacity=".3"/><path fill="#C7B299" d="M271.453 361.064 289 350.828l-17.547 10.131z"/><path fill="#AD3814" d="m271.244 360.539 17.547-10.236-13.369-7.729-17.547 10.236z"/><path fill="#FF7847" d="m271.453 357.093 17.546-10.131-13.577-7.833-17.547 10.131z"/><path fill="#FF7847" d="m271.448 357.196 17.442-10.235v.104c.314.523.627 1.149.627 1.776.105.835-.104 1.671-.627 2.089l-17.546 10.131c.522-.418.731-1.149.626-2.089.105-.731-.104-1.253-.522-1.776"/><path fill="#fff" d="M286.914 351.451c.313-.313.522-.94.418-1.566 0-.418-.209-.836-.418-1.149l1.776-1.045c.208.314.313.732.417 1.149.105.731-.104 1.254-.417 1.567z"/><path fill="#AD3814" d="M271.763 358.763c.105.418 0 .836-.104 1.254-.105.209-.209.417-.314.522l-13.368-7.729v.418l13.577 7.833h.105c.209-.209.418-.418.522-.731.104-.418.209-.836.104-1.253 0-.105 0-.209-.104-.418-.104-.522-.313-.94-.627-1.358v-.104l-.522-.314-11.802-6.789-1.253-.731v.418l1.253.731 11.489 6.58.731.418c.104.313.313.731.313 1.253"/><path fill="#FBFFF2" d="m259.336 350.508 11.28 6.475v2.403l-11.28-6.476z"/><path fill="#F2E8DF" d="M270.613 356.992v2.402l1.149-.731c-.104-.417-.209-.94-.418-1.253z"/><path fill="#fff" d="m270.406 344.556 8.251 4.7 4.491-2.611-8.146-4.7z"/><path fill="#FBFFF2" d="m259.336 350.095 11.802 6.789 14.936-8.669-11.803-6.789z"/><path fill="#F2E8DF" d="m259.336 349.673 11.802 6.789 14.936-8.669-11.803-6.789z"/><path fill="#FBFFF2" d="m259.336 349.259 11.802 6.789 14.936-8.669-11.803-6.789z"/><path fill="#F2E8DF" d="m259.336 348.841 11.802 6.789 14.936-8.669-11.803-6.789z"/><path fill="#FBFFF2" d="m259.336 348.423 11.802 6.789 14.936-8.669-11.803-6.789z"/><path fill="#F2E8DF" d="m259.336 348.009 11.802 6.789 14.936-8.669-11.803-6.789z"/><path fill="#FBFFF2" d="m259.336 347.587 11.802 6.789 14.936-8.669-11.803-6.789z"/><path fill="#F2E8DF" d="m259.336 347.173 11.802 6.789 14.936-8.669-11.803-6.789z"/><path fill="#FBFFF2" d="m259.336 346.752 11.802 6.789 14.936-8.565-11.803-6.788z"/><path fill="#FBFFF2" d="m290.25 342.57-9.086 6.476-15.98-6.371 8.982-6.476z"/><path fill="#F2E8DF" d="m285.238 346.438-10.654 8.46-16.084-6.476 10.758-8.356z"/><path fill="#F2E8DF" d="m288.785 347.067-11.803 6.789-14.935-8.669 11.802-6.789z"/><path fill="#FBFFF2" d="m288.785 344.56-10.549 8.564-16.189-6.267 10.549-8.564z"/><path fill="#F2E8DF" d="m288.785 346.227-11.803 6.789-14.935-8.669 11.802-6.788z"/><path fill="#FBFFF2" d="m288.785 345.813-11.803 6.789-14.935-8.669 11.802-6.788z"/><path fill="#F2E8DF" d="m288.785 345.392-11.803 6.788-14.935-8.668 11.802-6.789z"/><path fill="#FBFFF2" d="m288.785 344.974-11.803 6.788-14.935-8.668 11.802-6.789z"/><path fill="#F2E8DF" d="m288.685 345.394-12.115 6.058-14.414-9.505 12.116-6.162z"/><path fill="#FBFFF2" d="m288.785 344.138-11.803 6.789-14.935-8.669 11.802-6.789z"/><path fill="#F2E8DF" d="m288.785 343.724-11.803 6.788-14.935-8.668 11.802-6.789z"/><path fill="#FBFFF2" d="m288.785 343.302-11.803 6.789-14.935-8.669 11.802-6.789z"/><path fill="#F2E8DF" d="m288.785 342.888-11.803 6.789-14.935-8.669 11.802-6.789z"/><path fill="#FBFFF2" d="m288.785 342.474-11.803 6.788-14.935-8.668 11.802-6.789z"/><path fill="#F2E8DF" d="m288.785 342.052-11.803 6.789-14.935-8.669 11.802-6.789z"/><path fill="#FBFFF2" d="m288.785 339.757-10.758 8.355-15.98-6.475 10.758-8.356z"/><path fill="#F2E8DF" d="m288.785 341.216-11.803 6.789-14.935-8.669 11.802-6.789z"/><path fill="#FBFFF2" d="m288.785 340.798-11.803 6.789-14.935-8.669 11.802-6.789z"/><path fill="#C7B299" d="m274.898 348.943-17.546-10.132v-.104l17.442 10.236z"/><path fill="#34424B" d="m275.005 348.419-17.443-10.132 13.369-7.728 17.547 10.131z"/><path fill="#333" d="m274.898 345.074-17.546-10.236 13.577-7.729 17.443 10.131z"/><path fill="#333" d="m274.9 345.071-17.443-10.235v.104c-.313.523-.626 1.149-.626 1.776-.105.835.104 1.671.626 2.089l17.547 10.131c-.522-.418-.731-1.149-.627-2.089-.104-.627.105-1.253.523-1.776"/><path fill="#F2E8DF" d="M259.342 339.334c-.314-.313-.523-.94-.418-1.566 0-.418.209-.836.418-1.149l-1.776-1.045c-.209.314-.313.731-.418 1.149-.104.731.105 1.253.418 1.567zM271.662 346.222c-.209-.313-.209-.731-.209-1.253 0-.209.104-.418.104-.627l-9.191-5.326c-.104.209-.104.417-.104.626 0 .523 0 .94.209 1.254z"/><path fill="gray" d="M274.589 346.752c-.105.417 0 .835.104 1.253.105.209.209.418.314.522l13.369-7.729v.418l-13.578 7.833h-.105c-.209-.209-.417-.417-.522-.731-.104-.418-.209-.835-.104-1.253 0-.105 0-.209.104-.418a3.24 3.24 0 0 1 .627-1.358v-.104l.522-.313 11.802-6.789 1.254-.731v.417l-1.149.627-11.489 6.58-.731.418a2.6 2.6 0 0 0-.418 1.358"/><path fill="#F2E8DF" d="m287.014 338.492-11.28 6.476v2.402l11.28-6.58z"/><path fill="#F2E8DF" d="M275.735 344.973v2.402l-1.149-.731c.104-.418.209-.94.418-1.254z"/><path fill="#fff" d="m275.837 332.541-8.147 4.7-4.491-2.611 8.147-4.7zM266.745 370.981l-11.384 2.925-9.4-9.087 11.384-2.924z"/><path fill="#C7B299" d="m246.176 372.552 17.546-10.236-17.442 10.236z"/><path fill="gray" d="m246.067 372.028 17.442-10.131-13.369-7.729-17.546 10.131z"/><path fill="#333" d="m246.173 368.586 17.546-10.132-13.578-7.833-17.442 10.236z"/><path fill="#333" d="m246.171 368.689 17.442-10.236v.105c.313.522.627 1.148.627 1.775.104.836-.105 1.671-.627 2.089l-17.547 10.131c.523-.418.732-1.149.627-2.089.105-.626-.104-1.253-.522-1.775"/><path fill="#fff" d="M261.734 362.944c.314-.314.523-.94.418-1.567 0-.418-.209-.836-.418-1.149l1.776-1.044c.209.313.313.731.418 1.148.104.732-.105 1.254-.418 1.567zM249.414 369.839c.209-.313.209-.731.209-1.253 0-.209-.105-.418-.105-.627l9.192-5.326c.104.209.104.418.104.626 0 .523 0 .94-.209 1.254z"/><path fill="#34424B" d="M246.486 370.255c.104.418 0 .836-.105 1.254-.104.209-.208.418-.313.522l-13.369-7.729v.418l13.578 7.833h.104c.209-.209.418-.418.523-.731.104-.418.209-.835.104-1.253 0-.105 0-.209-.104-.418-.105-.522-.314-.94-.627-1.358v-.104l-.522-.314-11.802-6.788-1.254-.732v.418l1.254.731 11.488 6.58.732.418c.104.313.313.731.313 1.253"/><path fill="#F2E8DF" d="m234.055 362.004 11.28 6.58v2.298l-11.28-6.476zM245.336 368.582v2.402l1.149-.731c-.105-.418-.209-.94-.418-1.253z"/><path fill="#fff" d="m245.234 356.049 8.147 4.804 4.491-2.611-8.147-4.804z"/><path fill="#AD3814" d="m234.066 357.394 16.189-9.4c.209-.104.418-.104.627.105l-16.189 9.4c-.209-.105-.418-.209-.627-.105M250.882 351.441c-.313-.209-.522-.522-.522-.835v-1.672c0-.208.104-.313.104-.313l-16.189 9.296c-.104.104-.209.209-.209.313v1.776c0 .313.314.835.627 1.044l12.011 6.893 16.189-9.4z"/><path fill="#AD3814" d="m246.809 367.736 16.188-9.4v.522l-16.188 9.4z"/><path fill="#AD3814" d="M234.277 359.591v.314c0 .313.209.731.522.835l12.011 6.998v.418l-12.011-6.998c-.522-.313-.94-1.045-.94-1.567v-1.671c0-.627.418-.835.94-.522l12.011 6.998v.417l-12.011-6.997c-.313-.209-.522 0-.522.313z"/><path fill="#AD3814" d="m246.809 364.501 16.188-9.505v.522l-16.188 9.4z"/><path fill="#FF7847" d="m234.797 357.502 16.084-9.4 12.116 6.893-16.189 9.504z"/><path fill="#F2E8DF" d="m246.801 364.92-10.758-6.162v1.88l10.758 6.266v-2.402z"/><path fill="#FBFFF2" d="m246.801 364.92-10.758-6.162v1.88l10.758 6.266v-2.402zM261.632 358.344l-14.831 8.564v-1.984l14.831-8.565z"/><path fill="#F2E8DF" d="m236.98 355.528 11.803 6.789 14.935-8.669-11.698-6.789z"/><path fill="#FBFFF2" d="m237.086 353.021 11.698 8.773 14.831-8.46-10.445-6.58z"/><path fill="#F2E8DF" d="m236.98 354.688 11.803 6.789 14.935-8.669-11.698-6.788z"/><path fill="#FBFFF2" d="m236.98 354.274 11.803 6.789 14.935-8.669-11.698-6.789z"/><path fill="#F2E8DF" d="m236.98 353.852 11.803 6.789 14.935-8.669-11.698-6.788z"/><path fill="#FBFFF2" d="m236.98 353.435 11.803 6.788 14.935-8.668-11.698-6.789z"/><path fill="#F2E8DF" d="m237.086 353.751 11.698 6.162 14.831-8.669-12.116-6.998z"/><path fill="#FBFFF2" d="m238.34 354.583 12.951 5.744 12.429-9.608-11.698-6.789z"/><path fill="#F2E8DF" d="m236.98 352.185 11.803 6.788 14.935-8.668-11.698-6.789z"/><path fill="#FBFFF2" d="m236.98 351.763 11.803 6.789 14.935-8.669-11.698-6.789z"/><path fill="#F2E8DF" d="m236.98 351.349 11.803 6.788 14.935-8.668-11.698-6.789z"/><path fill="#FBFFF2" d="m236.98 350.83 11.803 6.893 14.935-8.668-11.698-6.789z"/><path fill="#F2E8DF" d="m236.98 350.513 11.803 6.789 14.935-8.669-11.698-6.789z"/><path fill="#FBFFF2" d="m238.234 349.158 9.505 7.415 15.98-8.251-10.654-6.58z"/><path fill="#F2E8DF" d="m236.98 349.677 11.803 6.789 14.935-8.669-11.698-6.789z"/><path fill="#FBFFF2" d="m236.98 349.154 11.803 6.894 14.935-8.669-11.698-6.789z"/><path fill="#fff" d="m225.496 356.364 8.46 6.684 12.638-5.117-8.46-6.685z"/><path fill="#333" d="m181.106 378.291 1.567.94c-.314-.209-.732-.104-1.149.105l-1.567-.94a1.52 1.52 0 0 1 1.149-.105M180.378 383.203l-1.567-.94c-.313-.209-.522-.522-.522-1.045 0-1.044.731-2.297 1.671-2.82l1.567.94c-.94.523-1.671 1.776-1.671 2.82 0 .523.209.94.522 1.045"/><path fill="#000" d="M181.523 379.342c.94-.522 1.671-.104 1.671.94s-.731 2.298-1.671 2.82-1.671.104-1.671-.94.731-2.298 1.671-2.82"/><path fill="#333" d="m210.977 394.592 1.567.94c-.314-.209-.731-.104-1.149.104l-1.567-.94a1.52 1.52 0 0 1 1.149-.104M210.249 399.504l-1.567-.94c-.313-.209-.522-.523-.522-1.045 0-1.044.731-2.298 1.671-2.82l1.567.94c-.94.522-1.671 1.776-1.671 2.82 0 .522.209.94.522 1.045"/><path fill="#000" d="M211.394 395.643c.94-.522 1.671-.105 1.671.94s-.731 2.298-1.671 2.82-1.671.104-1.671-.94.731-2.298 1.671-2.82"/><path fill="#333" d="m188.426 401.172 1.567.94c-.313-.208-.731-.104-1.149.105l-1.567-.94c.418-.209.836-.313 1.149-.105"/><path fill="#333" d="m187.698 406.082-1.566-.94c-.314-.209-.523-.522-.523-1.045 0-1.044.731-2.297 1.671-2.82l1.567.94c-.94.523-1.671 1.776-1.671 2.82 0 .523.209.836.522 1.045"/><path fill="#000" d="M188.843 402.221c.94-.522 1.671-.105 1.671.94s-.731 2.298-1.671 2.82-1.671.104-1.671-.94.731-2.298 1.671-2.82"/><path fill="#333" d="m169.719 391.774 1.567.94c-.313-.208-.731-.104-1.149.105l-1.567-.94c.418-.313.836-.313 1.149-.105M168.886 396.679l-1.567-.94c-.313-.208-.522-.522-.522-1.044 0-1.044.731-2.298 1.671-2.82l1.567.94c-.94.522-1.671 1.776-1.671 2.82.104.418.208.836.522 1.044"/><path fill="#000" d="M170.034 392.713c.94-.522 1.672-.104 1.672.94s-.732 2.298-1.672 2.82-1.671.105-1.671-.94c.105-1.044.836-2.298 1.671-2.82"/><path fill="#333" d="m206.172 380.389 1.567.94c-.313-.209-.731-.105-1.149.104l-1.567-.94c.523-.209.94-.209 1.149-.104"/><path fill="#333" d="m205.444 385.297-1.566-.94c-.314-.209-.523-.523-.523-1.045 0-1.044.732-2.298 1.672-2.82l1.566.94c-.94.522-1.671 1.776-1.671 2.82.105.522.209.836.522 1.045"/><path fill="#000" d="M206.593 381.436c.94-.522 1.671-.105 1.671.94s-.731 2.298-1.671 2.82-1.671.104-1.671-.94c.104-1.045.835-2.298 1.671-2.82"/><path fill="#B3B3B3" d="m190.297 384.564-2.089 1.88-1.567 1.463-7.52-8.878c0-.418 0-.731.313-.836.105-.104.209-.104.314-.209l1.149-.417c.209-.105.417 0 .626.104z"/><path fill="#666" d="m188.518 386.655-1.775 1.148-7.52-8.877c0-.418 0-.731.313-.836.104-.104.313 0 .522.105l8.251 8.146z"/><path fill="#B3B3B3" d="m207.214 381.118-13.265 8.877-.417.209-.314-1.671-.313-1.462-.522-2.193 12.429-5.327q.47-.156.94 0l.94.522c.104 0 .104.105.209.105q.313.156.313.94"/><path fill="#666" d="m207.215 381.12-13.265 8.877-.731-1.462-.731-1.253.314-.209 13.264-6.789c.209-.104.522-.104.627-.104.417.104.522.417.522.94"/><path fill="#666" d="M194.787 390.412v-4.178h-7.728v4.178c0 .522.417 1.149 1.148 1.567 1.463.835 3.969.835 5.432 0 .731-.522 1.148-1.045 1.148-1.567"/><path fill="#B3B3B3" d="M190.923 388.324c2.134 0 3.864-.982 3.864-2.193s-1.73-2.193-3.864-2.193-3.864.981-3.864 2.193c0 1.211 1.73 2.193 3.864 2.193M188.731 388.953l-1.462 11.802c-.105.836-.105 1.776-.105 2.716l1.671.104 3.447-11.384v-3.029c-1.253.313-2.402.313-3.551-.209"/><path fill="#666" d="M188.832 403.574c0-1.044.104-1.984.313-2.715l3.134-11.593v3.029z"/><path fill="#B3B3B3" d="M193.324 388.951v3.134l17.86 4.386.731-.835c.105-1.045-.522-1.671-1.462-2.089l-15.771-6.371c.104.731-.418 1.358-1.358 1.775"/><path fill="#666" d="M211.183 396.468c0-.94-.522-1.671-1.462-2.089l-16.502-5.535v3.133z"/><path fill="#B3B3B3" d="m168.571 393.343 19.218-1.672v-3.133c-.731-.522-.836-1.253-.731-2.089l-17.234 3.969c-.94.209-1.566.731-1.566 1.776z"/><path fill="#666" d="m187.792 391.668-19.218 1.672c0-1.045.627-1.672 1.671-1.776l17.547-3.029z"/><path fill="#333" d="M179.123 375.896c-.314 0-.732 0-1.045-.105l.418-2.611c1.149.209 2.611-.209 4.178-1.044l14.726-8.46 1.254 2.298-14.727 8.46c-1.671.94-3.342 1.462-4.804 1.462"/><path fill="#E6E6E6" d="m189.255 376.002.313-.313c.836-.523 2.193-.523 3.029 0l.313.313h.314v10.027c0 .313-.209.626-.627.835-.836.522-2.193.522-3.029 0-.418-.209-.627-.522-.627-.835v-10.027z"/><path fill="#4D4D4D" d="M191.033 375.477c1.673 0 3.029-.795 3.029-1.776 0-.98-1.356-1.775-3.029-1.775s-3.029.795-3.029 1.775c0 .981 1.356 1.776 3.029 1.776"/><path fill="#333" d="M187.167 363.783c.418-.417 1.149-.835 2.089-1.044 1.149-.313 2.402-.313 3.655 0 .94.209 1.567.627 2.089 1.044h.522v10.758c0 .94-.835 1.776-2.506 2.298a6.1 6.1 0 0 1-3.865 0c-1.671-.522-2.506-1.358-2.506-2.298v-10.758z"/><path fill="#4D4D4D" d="M189.151 361.38c-3.342.94-3.342 3.655 0 4.595a6.1 6.1 0 0 0 3.865 0c3.342-.94 3.342-3.655 0-4.595a8.05 8.05 0 0 0-3.865 0"/><path fill="#34424B" d="M207.324 364.72v-4.595h-2.089c-.731-.732-1.567-1.358-2.716-1.985-6.371-3.655-16.711-3.655-23.082 0-1.044.627-1.984 1.253-2.715 1.985h-2.089v4.595c0 2.402 1.566 4.805 4.804 6.685 6.371 3.655 16.711 3.655 23.082 0 3.238-1.88 4.805-4.283 4.805-6.685"/><path fill="#34424B" d="M191.032 369.523c8.998 0 16.293-4.209 16.293-9.4s-7.295-9.4-16.293-9.4c-8.999 0-16.294 4.208-16.294 9.4 0 5.191 7.295 9.4 16.294 9.4"/><path fill="#B3B3B3" d="M202.516 369.317c-6.372 3.656-16.712 3.656-23.083 0-3.133-1.88-4.804-4.282-4.804-6.684v1.984c0 2.402 1.567 4.805 4.804 6.685 6.371 3.655 16.711 3.655 23.083 0 3.133-1.88 4.804-4.283 4.804-6.685v-1.984c0 2.506-1.567 4.909-4.804 6.684M183.612 350.306l-7.311-5.744-7.938-3.656-1.149.731c-.731.418-1.253 1.358-1.253 2.716v2.089c0 2.715 1.88 6.058 4.282 7.415l10.027 5.849c1.149.731 2.298.731 3.029.314l.94-.523.835-3.237z"/><path fill="#34424B" d="m176.298 344.561 7.311 5.745 1.463 5.744-.836 3.238 2.402-1.358c.731-.418 1.254-1.358 1.254-2.715v-2.089c0-2.716-1.88-6.058-4.283-7.416l-10.026-5.849c-1.149-.731-2.298-.731-3.029-.313l-2.089 1.253z"/><path fill="#34424B" d="M181.418 346.966c2.402 1.357 4.282 4.7 4.282 7.415v2.089c0 2.716-1.984 3.865-4.282 2.507l-10.026-5.849c-2.403-1.358-4.283-4.7-4.283-7.416v-2.089c0-2.715 1.985-3.864 4.283-2.402z"/><path fill="#B3B3B3" d="M181.418 346.966c2.402 1.357 4.282 4.7 4.282 7.415v2.089c0 2.716-1.984 3.865-4.282 2.507l-10.026-5.849c-2.403-1.358-4.283-4.7-4.283-7.416v-2.089c0-2.715 1.985-3.864 4.283-2.402z"/><path fill="gray" d="M180.27 347.591c2.402 1.357 4.282 4.7 4.282 7.415v2.089c0 2.716-1.984 3.865-4.282 2.507l-10.027-5.849c-2.402-1.358-4.282-4.7-4.282-7.416v-2.088c0-2.716 1.984-3.865 4.282-2.403z"/><path fill="#333" d="M178.077 375.788c-2.716-.418-4.491-2.82-4.491-6.058v-20.158c0-.627.731-1.044 1.253-.731l.418.313c.522.314.94.94.94 1.567v19.009c0 1.149.313 3.133 2.298 3.551z"/><path fill="#97B9CF" d="m186.847 285.551-18.8 11.071c-1.357.836-3.551.836-4.908 0l-23.187-13.264c-1.358-.836-1.358-2.089 0-2.82l18.8-11.071c1.358-.836 3.551-.836 4.909 0l23.082 13.368c1.462.731 1.462 1.985.104 2.716M221.841 266.023l-18.8 11.071c-1.358.835-3.551.835-4.909 0l-23.082-13.369c-1.358-.836-1.358-2.089 0-2.82l18.8-11.071c1.357-.836 3.551-.836 4.908 0l23.083 13.369c1.357.835 1.357 2.088 0 2.82" opacity=".5"/><path fill="#B3B3B3" d="M177.764 261.949c3.76-16.815 3.76-16.92 3.76-17.024h-1.776.94l-.94-.105c-.104.523-2.298 10.34-3.76 16.816-.313.731 1.567 1.149 1.776.313M200.012 275.733c.104.731 1.775.731 1.775-.209l-1.984-20.68-1.776.209zM219.649 264.354c.104.94 1.984.835 1.775-.209l-1.984-20.68-1.776.209z"/><path fill="#34424B" d="M175.05 218.709v.105c.105 1.88 1.672 22.351 1.776 24.544s1.671 2.925 1.671 2.925 19.218 11.071 20.471 11.802 1.88.313 1.88.313l19.74-11.175c2.298-1.358 2.194-3.656 2.194-3.656v-1.671c0-4.178-3.76-6.475-3.76-6.475s-12.116-7.834-13.578-8.774c-.418-.313-.731-.626-1.045-.94-.522-.626-.626-1.149-.626-1.149-.209-1.044-3.447-16.711-3.656-17.755a4.2 4.2 0 0 0-.418-1.254l-.104-.208c-1.253-1.149-3.76-.209-3.76-.209s-18.696 10.757-19.845 11.489c-1.253.731-.94 2.088-.94 2.088"/><path fill="#889099" d="m220.901 243.879-19.74 11.385s.523-4.282-3.028-6.685-11.176-7.311-11.176-7.311l16.607-9.295z"/><path fill="#6D7983" d="m177.031 220.489 3.865 18.695 1.671-1.044 4.387 3.133 16.606-9.295-1.149-5.223 1.985-1.044c-.522-.627-.627-1.149-.627-1.149-.209-1.044-3.447-16.711-3.655-17.755-.105-.627-.836-1.045-1.463-.627l-20.68 12.011c-.731.418-1.044 1.358-.94 2.298"/><path fill="#B3B3B3" d="M142.147 281.895c3.76-16.816 3.76-16.92 3.76-17.025h-1.776.94l-.94-.104c-.104.522-2.298 10.34-3.76 16.815-.313.731 1.567 1.149 1.776.314M164.395 295.678c.104.731 1.775.731 1.775-.209l-1.984-20.68-1.776.209zM184.031 284.299c.105.94 1.985.836 1.776-.209l-1.985-20.68-1.775.209z"/><path fill="#34424B" d="M139.433 238.655v.104c.105 1.88 1.671 22.351 1.776 24.545.104 2.193 1.671 2.924 1.671 2.924s19.218 11.071 20.471 11.802 1.88.314 1.88.314l19.74-11.176c2.298-1.358 2.193-3.655 2.193-3.655v-1.672c0-4.177-3.76-6.475-3.76-6.475s-12.115-7.833-13.577-8.773c-.418-.314-.732-.627-1.045-.94-.522-.627-.627-1.149-.627-1.149-.208-1.045-3.446-16.711-3.655-17.756a4.2 4.2 0 0 0-.418-1.253l-.104-.209c-1.254-1.149-3.76-.209-3.76-.209s-18.696 10.758-19.845 11.489c-1.253.731-.94 2.089-.94 2.089"/><path fill="#889099" d="m185.284 263.825-19.74 11.384s.523-4.282-3.029-6.684-11.175-7.311-11.175-7.311l16.607-9.296z"/><path fill="#6D7983" d="m141.414 240.434 3.865 18.696 1.671-1.045 4.387 3.134 16.606-9.296-1.149-5.222 1.985-1.045c-.522-.626-.627-1.149-.627-1.149-.209-1.044-3.447-16.711-3.655-17.755-.105-.627-.836-1.045-1.463-.627l-20.575 12.011c-.731.523-1.149 1.358-1.045 2.298"/><path fill="#97B9CF" d="M102.039 311.141 72.168 328.27l34.467 19.948 29.453-17.442z" opacity=".5"/></svg>