<svg xmlns="http://www.w3.org/2000/svg" width="411" height="411" fill="none"><path fill="#DFECF5" d="m30.047 297.104-.457-183.215L205.315 12.418l175.634 101.471.457 183.215L205.68 398.575z"/><path fill="#B5D5EB" d="M205.675 195.625 40.91 289.972l-.457-169.789L205.31 25.106z"/><path fill="#DFECF5" d="m370.453 290.81-164.766 95.078L40.922 290.81l164.765-95.169z"/><path fill="#97B9CF" d="m370.439 290.794-164.765-95.169-.365-170.52 164.765 95.078z"/><path fill="#FBFFF2" d="M40.922 285.412v5.389l110.696-63.933v-5.298z"/><path fill="#fff" d="M370.438 290.803v-5.298l-164.766-95.169-54.16 31.236v5.297l54.16-31.236z"/><path fill="#97B9CF" d="m29.59 113.891 10.96 6.302.365 170.61 164.765 95.078v12.696L30.047 297.105z"/><path fill="#B5D5EB" d="m381.044 113.891-10.96 6.302.365 170.61-164.765 95.078v12.696l175.725-101.472z"/><path fill="#FCC674" d="M168.234 60.566 48.954 129.34v98.732l119.28-68.5z"/><path fill="#fff" d="m119.381 90.52-30.596 17.992-22.012 108.413 30.78-17.445zM133.263 82.113l-10.047 6.302-22.103 109.052 10.23-5.845z" opacity=".5"/><path fill="#8A6945" d="M46.125 127.786v102.476l2.192 1.279 120.743-72.245 2.192-101.197-2.192-1.279zm117.637 29.227L51.422 221.86v-91.79l112.34-64.847z"/><path fill="#fff" d="M48.316 129.064V231.54l122.935-70.966V58.098zm117.638 29.226-112.34 64.847v-91.881l112.34-64.847z"/><path fill="#8A6945" d="m124.773 87.68 3.836-2.191v91.881l-1.188.639.183 5.298 6.302-3.745V77.086l-9.316 5.389z"/><path fill="#fff" d="m124.862 90.145 5.937-3.38v91.882l-3.288 1.918.091 5.206 8.494-4.932V78.363L124.68 84.94z"/><path fill="#8A6945" d="m77.46 114.989 3.836-2.192v91.882l-1.187.73.182 5.206 6.302-3.653V104.395l-9.316 5.388z"/><path fill="#fff" d="m77.558 117.458 5.936-3.38v91.882l-3.288 1.918.092 5.206 8.494-4.932V105.676l-11.417 6.576z"/><path fill="#FCC674" d="M45.578 131.34v99.005l4.567-2.648v-99.006z"/><path fill="#8A6945" d="m50.967 124.945-5.389 3.197v5.297l.091-.091v91.881l-.09.092v5.388l5.388-3.196 2.192-101.289z"/><path fill="#fff" d="M45.578 130.607v5.297l2.283-1.279v91.882l-2.283 1.278v5.298l7.58-4.384V126.223z"/><path fill="#DFECF5" d="m45.578 242.044 133.438-76.994-7.763-4.476-125.675 72.519z"/><path fill="#97B9CF" d="M179.017 165.045V62.478l-7.763-4.384V160.57z"/><path fill="#B5D5EB" d="m45.578 139.564 133.438-77.086-7.763-13.517-125.675 70.783z"/><path fill="#B5D5EB" d="M45.574 120.383v125.675h9.042v-132.89z"/><path fill="#333" d="m329.243 268.987 1.37.822c-.274-.183-.639-.092-1.005.091l-1.37-.822c.457-.274.822-.274 1.005-.091"/><path fill="#333" d="m328.596 273.264-1.37-.822c-.274-.183-.456-.457-.456-.914 0-.913.639-2.009 1.461-2.466l1.37.822c-.822.457-1.461 1.553-1.461 2.467.091.456.182.73.456.913"/><path fill="#000" d="M329.61 269.806c.822-.457 1.461-.091 1.461.822s-.639 2.009-1.461 2.466-1.462.091-1.462-.822c0-.822.64-2.009 1.462-2.466"/><path fill="#333" d="m318.919 280.76 1.37.822c-.274-.183-.64-.091-1.005.091l-1.37-.822c.365-.274.731-.274 1.005-.091"/><path fill="#333" d="m318.272 284.971-1.37-.822c-.274-.183-.457-.457-.457-.913 0-.914.64-2.01 1.462-2.466l1.37.822c-.822.456-1.462 1.552-1.462 2.466 0 .456.183.822.457.913"/><path fill="#000" d="M319.282 281.583c.822-.456 1.461-.091 1.461.822 0 .914-.639 2.01-1.461 2.466s-1.462.092-1.462-.822.64-2.009 1.462-2.466"/><path fill="#333" d="m296.442 278.65 1.37.822c-.274-.182-.639-.091-1.005.092l-1.369-.822c.365-.183.73-.274 1.004-.092M295.795 282.943l-1.37-.821c-.274-.183-.456-.457-.456-.914 0-.913.639-2.009 1.461-2.466l1.37.822c-.822.457-1.461 1.553-1.461 2.466 0 .457.182.731.456.913"/><path fill="#000" d="M296.805 279.564c.822-.457 1.461-.092 1.461.822s-.639 2.009-1.461 2.466c-.822.456-1.461.091-1.461-.822 0-.914.639-2.01 1.461-2.466"/><path fill="#333" d="m293.067 265.943 1.37.822c-.274-.183-.639-.092-1.005.091l-1.37-.822c.457-.183.823-.183 1.005-.091M292.42 270.24l-1.37-.822c-.274-.182-.456-.456-.456-.913 0-.913.639-2.009 1.461-2.466l1.37.822c-.822.457-1.461 1.553-1.461 2.466.091.457.182.731.456.913"/><path fill="#000" d="M293.43 266.868c.822-.456 1.461-.091 1.461.822 0 .914-.639 2.01-1.461 2.466s-1.461.092-1.461-.822.639-2.009 1.461-2.466"/><path fill="#333" d="m313.438 259.65 1.37.822c-.274-.182-.639-.091-1.004.092l-1.37-.822c.365-.183.73-.274 1.004-.092M312.717 263.955l-1.37-.822c-.274-.182-.456-.456-.456-.913 0-.913.639-2.009 1.461-2.466l1.37.822c-.822.457-1.461 1.553-1.461 2.466.091.457.182.731.456.913"/><path fill="#000" d="M313.719 260.568c.822-.457 1.461-.092 1.461.822s-.639 2.009-1.461 2.466c-.822.456-1.461.091-1.461-.822.091-.914.73-2.01 1.461-2.466"/><path fill="#B3B3B3" d="m291.801 266.506 16.074 5.206.366-4.658-14.248-2.374c-.457-.092-1.005-.092-1.462.274-.456.456-.639.822-.73 1.552"/><path fill="#666" d="m291.801 266.514 16.074 5.206.64-2.74-15.253-3.471c-.913-.183-1.279.274-1.461 1.005"/><path fill="#B3B3B3" d="m309.156 266.052 2.923-6.85c0-.091.183-.182.274-.182l1.279.091c.091 0 .182.091.182.183l.092.639-1.462 7.215z"/><path fill="#666" d="m313.908 260.026-1.462 7.215-.548-.091 1.736-7.764c.091-.182.182-.274.182-.091zM313.358 271.345c.091-1.462.182-3.014 0-3.654h-6.85v3.654c0 .548.365 1.004 1.004 1.37 1.37.73 3.471.73 4.841 0 .731-.274 1.005-.822 1.005-1.37"/><path fill="#B3B3B3" d="M312.345 266.327c1.37.731 1.37 2.01 0 2.74s-3.471.731-4.841 0c-1.37-.73-1.37-2.009 0-2.74 1.37-.822 3.562-.822 4.841 0"/><path fill="#B3B3B3" d="M313.078 269.159v2.74l16.805-1.827-.274-1.461s-.456-.914-1.461-.914-14.796-.365-14.796-.365c.091.731.091 1.37-.274 1.827M295.273 279.293l1.096.639 12.604-6.667v-2.74c-1.096-.183-1.826-.64-2.283-1.279l-10.412 8.037c-.639.366-1.005 1.096-1.005 2.01"/><path fill="#666" d="m313.078 269.156 15.344-.457c.822 0 1.279.457 1.461 1.37l-16.805 1.827z"/><path fill="#B3B3B3" d="M309.977 270.439v2.923l8.494 8.494 1.278-.365c.092-.822-.091-1.553-.548-2.284l-6.393-9.59c-.731.731-1.644.914-2.831.822"/><path fill="#666" d="M309.977 270.438v2.922l8.494 8.494c0-.822-.092-1.553-.64-2.101zM296.367 279.939c0-.914.274-1.644 1.005-2.01l11.599-7.398v2.74z"/><path fill="#E6E6E6" d="m308.422 258.656.274-.274c.731-.457 1.918-.457 2.649 0l.274.274h.274v8.768c0 .274-.183.548-.548.73-.731.457-1.918.457-2.649 0-.365-.182-.548-.456-.548-.73v-8.768z"/><path fill="#4D4D4D" d="M310.067 258.199c1.462 0 2.648-.695 2.648-1.553 0-.857-1.186-1.552-2.648-1.552s-2.649.695-2.649 1.552 1.186 1.553 2.649 1.553"/><path fill="#333" d="M306.695 247.881c.365-.366 1.005-.731 1.827-.914 1.004-.274 2.1-.274 3.196 0 .822.183 1.37.548 1.827.914h.457v9.407c0 .822-.731 1.553-2.192 2.009a5.34 5.34 0 0 1-3.38 0c-1.461-.456-2.192-1.187-2.192-2.009v-9.407z"/><path fill="#4D4D4D" d="M308.333 245.872c-2.923.822-2.923 3.196 0 4.018a5.34 5.34 0 0 0 3.379 0c2.923-.822 2.923-3.196 0-4.018-1.096-.366-2.192-.366-3.379 0"/><path fill="#333" d="m306.505 251.257 6.942-4.019c5.845-3.379 10.412-10.686 10.412-16.531V220.66h-2.466v10.047c0 5.023-4.11 11.508-9.225 14.43l-6.941 4.019z"/><path fill="#34424B" d="M324.4 248.612v-4.018h-1.827c-.639-.64-1.37-1.188-2.374-1.736-5.572-3.196-14.614-3.196-20.185 0-.913.548-1.735 1.096-2.375 1.736h-1.827v4.018c0 2.101 1.371 4.202 4.202 5.846 5.571 3.196 14.613 3.196 20.185 0 2.831-1.644 4.201-3.745 4.201-5.846"/><path fill="#34424B" d="M310.154 252.815c7.869 0 14.248-3.68 14.248-8.22s-6.379-8.22-14.248-8.22-14.248 3.68-14.248 8.22 6.379 8.22 14.248 8.22"/><path fill="#B3B3B3" d="M320.199 252.623c-5.572 3.196-14.614 3.196-20.185 0-2.74-1.644-4.202-3.745-4.202-5.846v1.736c0 2.1 1.371 4.201 4.202 5.845 5.571 3.197 14.613 3.197 20.185 0 2.74-1.644 4.201-3.745 4.201-5.845v-1.736c0 2.192-1.37 4.293-4.201 5.846M316.726 212.809c.639-.365 1.644-.365 2.648.274l8.768 5.115c2.101 1.187 3.745 4.11 3.745 6.485v1.826c0 1.188-.457 2.01-1.096 2.375l-2.923 1.735h-.091c-.639.366-1.553.274-2.557-.274l-8.768-5.023c-2.101-1.187-3.745-4.11-3.745-6.485v-1.826c0-1.188.457-2.01 1.096-2.375l1.918-1.096z"/><path fill="#34424B" d="M315.721 213.364c.639-.366 1.553-.274 2.557.274l8.768 5.114c2.101 1.188 3.745 4.11 3.745 6.485v1.827c0 1.187-.457 2.009-1.096 2.374l-1.918 1.096c-.639.366-1.553.274-2.557-.274l-8.768-5.023c-2.101-1.187-3.745-4.11-3.745-6.485v-1.826c0-1.188.457-2.01 1.096-2.375z"/><path fill="#34424B" d="M325.313 219.762c2.101 1.187 3.745 4.11 3.745 6.485v1.826c0 2.375-1.735 3.38-3.745 2.192l-8.768-5.114c-2.1-1.188-3.744-4.11-3.744-6.485v-1.827c0-2.374 1.735-3.379 3.744-2.1z"/><path fill="#34424B" d="M325.313 219.762c2.101 1.187 3.745 4.11 3.745 6.485v1.826c0 2.375-1.735 3.38-3.745 2.192l-8.768-5.114c-2.1-1.188-3.744-4.11-3.744-6.485v-1.827c0-2.374 1.735-3.379 3.744-2.1z"/><path fill="#97B9CF" d="m206.866 196.816-23.382 13.518 49.868 28.861 23.108-13.7z" opacity=".5"/><path fill="#333" d="M236.466 235.084v-3.014q0 .411-.548.822v3.014q.548-.411.548-.822M232.621 232.07v3.014q0 .411.548.822c.731.457 2.009.457 2.74 0v-3.014c-.731.457-2.009.457-2.74 0q-.548-.411-.548-.822"/><path fill="#000" d="M235.909 232.817c.731-.457.731-1.187 0-1.553-.731-.456-2.009-.456-2.74 0-.731.457-.731 1.188 0 1.553.731.457 2.009.457 2.74 0"/><path fill="#333" d="M252.712 225.686v-3.014q0 .411-.548.822v3.014c.365-.183.548-.548.548-.822M248.871 222.672v3.014q0 .411.548.822c.731.457 2.009.457 2.74 0v-3.014c-.731.457-2.009.457-2.74 0-.365-.183-.548-.548-.548-.822"/><path fill="#000" d="M252.159 223.493c.731-.457.731-1.188 0-1.553-.731-.457-2.009-.457-2.74 0s-.731 1.187 0 1.553c.731.456 1.918.456 2.74 0"/><path fill="#B3B3B3" d="m188.781 206.948 17.719-10.229 2.74 1.552-17.719 10.23z"/><path fill="#B3B3B3" d="m188.781 203.844 17.719-10.321v3.197l-17.719 10.229z"/><path fill="#B3B3B3" d="m191.523 205.399 17.719-10.321v3.197l-17.719 10.229z"/><path fill="#F2E8DF" d="m191.615 181.286 17.718-10.321-.091 24.112-17.719 10.321z"/><path fill="#B3B3B3" d="m188.879 179.643 17.719-10.229 2.74 1.553-17.719 10.32zM188.879 176.536l17.719-10.321v3.197l-17.719 10.229z"/><path fill="#B3B3B3" d="m188.879 176.536 17.719-10.321 2.74 1.644-17.719 10.229z"/><path fill="#D4BFA7" d="M233.078 229.326v3.196l2.74 1.553-47.037-27.126v-3.105 3.105l2.74 1.553v-3.106z"/><path fill="#B3B3B3" d="m188.965 152.43 17.719-10.321 2.74 1.553-17.719 10.321z"/><path fill="#F2E8DF" d="m191.705 153.977 17.718-10.321-.091 24.204-17.719 10.229z"/><path fill="#B3B3B3" d="m188.965 149.225 17.719-10.229v3.105l-17.719 10.321z"/><path fill="#B3B3B3" d="m188.965 149.225 17.719-10.229 2.74 1.553-17.719 10.229zM233.169 202.018l17.628-10.229v3.105l-17.719 10.321z"/><path fill="#D4BFA7" d="m233.175 202.021-.091 3.197-41.465-23.93-3.928-4.018 1.188-.731 2.74 1.553z"/><path fill="#F7F4F0" d="m191.613 178.093 17.719-10.23 41.465 23.93-17.627 10.229z"/><path fill="#B3B3B3" d="m189.059 125.11 17.718-10.321 2.649 1.553-17.627 10.32z"/><path fill="#F2E8DF" d="m191.802 126.664 17.628-10.32v24.203l-17.719 10.229z"/><path fill="#B3B3B3" d="m189.059 121.921 17.718-10.23v3.106l-17.718 10.32z"/><path fill="#B3B3B3" d="m189.059 121.921 17.718-10.23 2.74 1.553-17.718 10.321zM233.16 174.805l17.719-10.321v3.197L233.16 177.91z"/><path fill="#F7F4F0" d="m191.711 150.78 17.719-10.229 41.465 23.929-17.719 10.321z"/><path fill="#D4BFA7" d="M233.17 174.8v3.105l-41.465-23.929-2.74-1.553v-3.196l2.74 1.552z"/><path fill="#B3B3B3" d="m189.148 97.805 17.628-10.32 2.74 1.643-17.628 10.23z"/><path fill="#F2E8DF" d="m191.888 70.956 17.628-10.23v52.517l-17.719 10.321z"/><path fill="#B3B3B3" d="m233.262 147.493 17.718-10.321v3.197l-17.718 10.229z"/><path fill="#D4BFA7" d="M233.264 147.491v3.106l-41.465-23.93-2.74-1.552v-3.197l2.74 1.644z"/><path fill="#F7F4F0" d="m191.797 123.559 17.719-10.321 41.465 23.93-17.719 10.32z"/><path fill="#D4BFA7" d="M233.354 120.185v3.197l-41.466-24.02-2.74-1.553v-3.106z"/><path fill="#D4BFA7" d="M233.264 120.185v3.197l-41.465-24.02-2.74-1.553v-3.106l2.74 1.553z"/><path fill="#F7F4F0" d="m191.797 96.258 17.719-10.32 41.465 24.02-17.719 10.23z"/><path fill="#D4BFA7" d="M236.094 94.52v3.106l-44.206-25.482-2.74-1.644v-3.106z"/><path fill="#F2E8DF" d="m236.094 94.52 17.719-10.32-.365 139.557-17.628 10.32z"/><path fill="#F7F4F0" d="m206.867 57.074 44.205 25.574 2.74 1.552-17.718 10.32-2.74-1.643-44.206-25.482z"/><path fill="#D4BFA7" d="m236.092 94.519-.274 139.557-2.74-1.552v-27.309l.091-3.197v-27.217l.092-24.203v-3.106l.091-24.112V92.875z"/><path fill="#F7F4F0" d="m191.523 205.397.092-24.112 41.465 23.929v24.112z"/><path fill="#D4BFA7" d="m189.147 67.395 2.74 1.552-.092 54.618v3.105l-.091 24.112v3.197l-.091 24.112v3.196l-.092 24.112v3.106l-2.74-1.553v-3.105z"/><mask id="a" width="43" height="49" x="191" y="72" maskUnits="userSpaceOnUse" style="mask-type:luminance"><path fill="#fff" d="m191.888 72.164-.091 24.112 41.557 23.929.182-24.02z"/></mask><g mask="url(#a)"><path fill="#4D4D4D" d="m205.137 81.841 7.763-6.758V72.89l-11.599 6.667z"/><path fill="#E6E6E6" d="m205.137 82.385 11.234-6.485-3.836-2.283-11.234 6.576z"/><path fill="#4D4D4D" d="m205.047 100.203 11.599-6.76.092-18.357-11.6 6.759z"/><path fill="#1A1A1A" d="M201.301 79.55V97.91l3.744 2.283.092-18.358z"/><path fill="#fff" d="m202.027 95.812 2.01 1.096v-9.773l-2.01-1.096zM202.125 83.759c0 .547.457 1.187 1.005 1.552.548.274 1.004.091 1.004-.365 0-.457-.456-1.187-1.004-1.553-.64-.365-1.005-.183-1.005.365"/></g><mask id="b" width="43" height="49" x="191" y="72" maskUnits="userSpaceOnUse" style="mask-type:luminance"><path fill="#fff" d="m191.888 72.164-.091 24.112 41.557 23.929.182-24.02z"/></mask><g mask="url(#b)"><path fill="#4D4D4D" d="m209.25 84.22 7.763-6.758v-2.193l-11.599 6.668z"/><path fill="#E6E6E6" d="m209.25 84.764 11.234-6.485-3.836-2.283-11.234 6.576z"/><path fill="#4D4D4D" d="m209.156 102.566 11.6-6.759.091-18.358-11.599 6.759z"/><path fill="#1A1A1A" d="M205.414 81.934v18.358l3.745 2.283.091-18.358z"/><path fill="#fff" d="m206.141 98.187 2.009 1.096V89.51l-2.009-1.096zM206.238 86.134c0 .547.457 1.187 1.005 1.552.548.274 1.005.091 1.005-.365 0-.548-.457-1.187-1.005-1.553-.639-.365-1.005-.183-1.005.365"/></g><mask id="c" width="43" height="49" x="191" y="72" maskUnits="userSpaceOnUse" style="mask-type:luminance"><path fill="#fff" d="m191.888 72.164-.091 24.112 41.557 23.929.182-24.02z"/></mask><g mask="url(#c)"><path fill="#4D4D4D" d="m213.348 86.576 7.763-6.759v-2.192l-11.599 6.667z"/><path fill="#E6E6E6" d="m213.348 87.127 11.234-6.484-3.836-2.284-11.234 6.576z"/><path fill="#4D4D4D" d="m213.262 104.945 11.599-6.759.091-18.358-11.599 6.759z"/><path fill="#1A1A1A" d="M209.512 84.297v18.358l3.744 2.283.092-18.358z"/><path fill="#fff" d="m210.246 100.562 2.009 1.096v-9.773l-2.009-1.096zM210.344 88.412c0 .548.456 1.187 1.004 1.553.548.274 1.005.091 1.005-.366 0-.548-.457-1.187-1.005-1.552-.639-.274-1.004-.092-1.004.365"/></g><mask id="d" width="43" height="49" x="191" y="72" maskUnits="userSpaceOnUse" style="mask-type:luminance"><path fill="#fff" d="m191.888 72.164-.091 24.112 41.557 23.929.182-24.02z"/></mask><g mask="url(#d)"><path fill="#4D4D4D" d="m217.453 88.97 7.764-6.758v-2.193l-11.6 6.668z"/><path fill="#E6E6E6" d="m217.453 89.518 11.234-6.485-3.836-2.283-11.234 6.576z"/><path fill="#4D4D4D" d="m217.371 107.328 11.599-6.759.092-18.358-11.6 6.759z"/><path fill="#6D7983" d="M213.617 86.688v18.357l3.745 2.284.091-18.358z"/><path fill="#fff" d="m214.344 102.941 2.009 1.096v-9.773l-2.009-1.096zM214.441 90.79c0 .549.457 1.188 1.005 1.554.548.274 1.005.09 1.005-.366 0-.548-.457-1.187-1.005-1.552-.639-.274-1.005-.092-1.005.365"/></g><mask id="e" width="43" height="49" x="191" y="72" maskUnits="userSpaceOnUse" style="mask-type:luminance"><path fill="#fff" d="m191.888 72.164-.091 24.112 41.557 23.929.182-24.02z"/></mask><g mask="url(#e)"><path fill="#4D4D4D" d="m225.684 93.621 7.763-6.667v-2.192l-11.599 6.667z"/><path fill="#E6E6E6" d="m225.684 94.268 11.234-6.576-3.836-2.192-11.234 6.576z"/><path fill="#4D4D4D" d="m225.586 111.978 11.599-6.667.092-18.358-11.6 6.668z"/><path fill="#1A1A1A" d="M221.848 91.438v18.357l3.744 2.192.092-18.357z"/><path fill="#fff" d="m222.582 107.691 2.009 1.096v-9.773l-2.009-1.096zM222.68 95.54c0 .549.456 1.188 1.004 1.554.548.274 1.005.091 1.005-.366 0-.548-.457-1.187-1.005-1.552-.639-.274-1.004-.092-1.004.365"/></g><mask id="f" width="43" height="49" x="191" y="72" maskUnits="userSpaceOnUse" style="mask-type:luminance"><path fill="#fff" d="m191.888 72.164-.091 24.112 41.557 23.929.182-24.02z"/></mask><g mask="url(#f)"><path fill="#4D4D4D" d="m229.781 95.992 7.764-6.667v-2.192l-11.6 6.667z"/><path fill="#E6E6E6" d="m229.781 96.627 11.234-6.576-3.836-2.192-11.234 6.576z"/><path fill="#4D4D4D" d="m229.691 114.353 11.6-6.667.091-18.358-11.599 6.668z"/><path fill="#1A1A1A" d="M225.945 93.8v18.359l3.745 2.192.091-18.358z"/><path fill="#fff" d="m226.68 110.062 2.009 1.096v-9.773l-2.009-1.096zM226.777 97.912c0 .548.457 1.187 1.005 1.553.548.274 1.005.091 1.005-.366 0-.548-.457-1.187-1.005-1.552-.639-.274-1.005-.092-1.005.365"/></g><mask id="g" width="43" height="49" x="191" y="72" maskUnits="userSpaceOnUse" style="mask-type:luminance"><path fill="#fff" d="m191.888 72.164-.091 24.112 41.557 23.929.182-24.02z"/></mask><g mask="url(#g)"><path fill="#4D4D4D" d="m233.902 98.379 7.764-6.668V89.52l-11.6 6.668z"/><path fill="#E6E6E6" d="m233.902 99.014 11.234-6.576-3.836-2.192-11.234 6.576z"/><path fill="#1A1A1A" d="M230.066 96.188v18.357l3.745 2.192.091-18.357z"/><path fill="#fff" d="m230.801 112.441 2.009 1.096v-9.773l-2.009-1.096zM230.898 100.291c0 .548.457 1.187 1.005 1.553.548.274 1.005.091 1.005-.366 0-.548-.457-1.187-1.005-1.552-.639-.274-1.005-.092-1.005.365"/></g><mask id="h" width="43" height="49" x="191" y="99" maskUnits="userSpaceOnUse" style="mask-type:luminance"><path fill="#fff" d="m191.888 99.363-.091 24.204 41.557 23.929.182-24.021z"/></mask><g mask="url(#h)"><path fill="#4D4D4D" d="m199.016 105.568 7.763-6.759v-2.192l-11.599 6.759z"/><path fill="#E6E6E6" d="m199.016 106.206 11.234-6.577-3.836-2.192-11.234 6.577z"/><path fill="#4D4D4D" d="m198.93 123.921 11.599-6.758.091-18.358-11.599 6.758z"/><path fill="#1A1A1A" d="M195.18 103.375v18.358l3.744 2.192.092-18.358z"/><path fill="#fff" d="m195.91 119.538 2.009 1.188v-9.773l-2.009-1.187zM196.008 107.485c0 .548.456 1.187 1.004 1.553.548.274 1.005.091 1.005-.366 0-.548-.457-1.187-1.005-1.552-.639-.366-1.004-.183-1.004.365"/></g><mask id="i" width="43" height="49" x="191" y="99" maskUnits="userSpaceOnUse" style="mask-type:luminance"><path fill="#fff" d="m191.888 99.363-.091 24.204 41.557 23.929.182-24.021z"/></mask><g mask="url(#i)"><path fill="#4D4D4D" d="m203.117 107.947 7.764-6.759v-2.192l-11.6 6.759z"/><path fill="#E6E6E6" d="m203.117 108.584 11.234-6.576-3.836-2.192-11.234 6.576z"/><path fill="#4D4D4D" d="m203.027 126.308 11.6-6.759.091-18.358-11.599 6.759z"/><path fill="#1A1A1A" d="M199.281 105.75v18.358l3.745 2.192.091-18.358z"/><path fill="#fff" d="m200.012 121.913 2.009 1.188v-9.773l-2.009-1.187zM200.109 109.86c0 .548.457 1.187 1.005 1.553.548.274 1.005.091 1.005-.366 0-.548-.457-1.187-1.005-1.552-.639-.366-1.005-.183-1.005.365"/></g><mask id="j" width="43" height="49" x="191" y="99" maskUnits="userSpaceOnUse" style="mask-type:luminance"><path fill="#fff" d="m191.888 99.363-.091 24.204 41.557 23.929.182-24.021z"/></mask><g mask="url(#j)"><path fill="#F15A24" d="m207.227 110.322 7.763-6.759v-2.192l-11.599 6.759z"/><path fill="#E6E6E6" d="m207.227 110.959 11.234-6.576-3.836-2.192-11.234 6.576z"/><path fill="#F15A24" d="m207.133 128.675 11.599-6.758.091-18.358-11.599 6.758z"/><path fill="#AD3814" d="M203.391 108.117v18.358l3.744 2.192.092-18.358z"/><path fill="#fff" d="m204.125 124.292 2.009 1.188v-9.773l-2.009-1.187zM204.223 112.239c0 .548.456 1.187 1.004 1.553.548.274 1.005.091 1.005-.366 0-.548-.457-1.187-1.005-1.552-.639-.366-1.004-.183-1.004.365"/></g><mask id="k" width="43" height="49" x="191" y="99" maskUnits="userSpaceOnUse" style="mask-type:luminance"><path fill="#fff" d="m191.888 99.363-.091 24.204 41.557 23.929.182-24.021z"/></mask><g mask="url(#k)"><path fill="#4D4D4D" d="m211.324 112.681 7.764-6.759v-2.192l-11.6 6.759z"/><path fill="#E6E6E6" d="m211.324 113.338 11.234-6.576-3.836-2.192-11.234 6.576z"/><path fill="#4D4D4D" d="m211.242 131.05 11.6-6.758.091-18.358-11.599 6.758z"/><path fill="#1A1A1A" d="M207.488 110.492v18.358l3.745 2.192.091-18.358z"/><path fill="#fff" d="m208.227 126.659 2.009 1.188v-9.773l-2.009-1.187zM208.324 114.606c0 .548.457 1.188 1.005 1.553.548.274 1.005.091 1.005-.365 0-.548-.457-1.188-1.005-1.553-.639-.365-1.005-.183-1.005.365"/></g><mask id="l" width="43" height="49" x="191" y="99" maskUnits="userSpaceOnUse" style="mask-type:luminance"><path fill="#fff" d="m191.888 99.363-.091 24.204 41.557 23.929.182-24.021z"/></mask><g mask="url(#l)"><path fill="#4D4D4D" d="m215.465 115.072 7.763-6.759v-2.192l-11.599 6.759z"/><path fill="#E6E6E6" d="m215.465 115.705 11.234-6.575-3.836-2.192-11.234 6.576z"/><path fill="#4D4D4D" d="m215.379 133.429 11.599-6.759.092-18.358-11.6 6.759z"/><path fill="#1A1A1A" d="m211.63 112.879-.091 18.358 3.836 2.192.091-18.358z"/><path fill="#fff" d="m212.355 129.046 2.01 1.187v-9.772l-2.01-1.188zM212.453 116.993c0 .548.457 1.187 1.005 1.553.548.274 1.004.091 1.004-.366s-.456-1.187-1.004-1.552c-.64-.366-1.005-.183-1.005.365"/></g><mask id="m" width="43" height="49" x="191" y="99" maskUnits="userSpaceOnUse" style="mask-type:luminance"><path fill="#fff" d="m191.888 99.363-.091 24.204 41.557 23.929.182-24.021z"/></mask><g mask="url(#m)"><path fill="#4D4D4D" d="m219.57 117.451 7.764-6.759V108.5l-11.6 6.759z"/><path fill="#E6E6E6" d="m219.57 118.084 11.234-6.576-3.836-2.192-11.234 6.576z"/><path fill="#4D4D4D" d="m219.477 135.816 11.599-6.759.091-18.358-11.599 6.759z"/><path fill="#1A1A1A" d="m215.732 115.254-.091 18.358 3.836 2.192.091-18.358z"/><path fill="#fff" d="m216.465 131.421 2.009 1.187v-9.772l-2.009-1.188zM216.562 119.368c0 .548.457 1.187 1.005 1.553.548.274 1.005.091 1.005-.366 0-.548-.457-1.187-1.005-1.552-.639-.366-1.005-.183-1.005.365"/></g><mask id="n" width="43" height="49" x="191" y="99" maskUnits="userSpaceOnUse" style="mask-type:luminance"><path fill="#fff" d="m191.888 99.363-.091 24.204 41.557 23.929.182-24.021z"/></mask><g mask="url(#n)"><path fill="#4D4D4D" d="m223.68 119.806 7.763-6.759v-2.192l-11.599 6.759z"/><path fill="#E6E6E6" d="m223.68 120.448 11.234-6.576-3.836-2.192-11.234 6.576z"/><path fill="#4D4D4D" d="m223.59 138.171 11.599-6.758.092-18.358-11.6 6.758z"/><path fill="#1A1A1A" d="m219.837 117.617-.091 18.358 3.836 2.192.091-18.358z"/><path fill="#fff" d="m220.57 133.788 2.01 1.188v-9.773l-2.01-1.187zM220.668 121.735c0 .548.457 1.187 1.005 1.553.548.274 1.004.091 1.004-.366 0-.548-.456-1.187-1.004-1.552-.64-.366-1.005-.183-1.005.365"/></g><mask id="o" width="43" height="49" x="191" y="99" maskUnits="userSpaceOnUse" style="mask-type:luminance"><path fill="#fff" d="m191.888 99.363-.091 24.204 41.557 23.929.182-24.021z"/></mask><g mask="url(#o)"><path fill="#4D4D4D" d="m227.789 122.189 7.763-6.759v-2.192l-11.599 6.759z"/><path fill="#E6E6E6" d="m227.789 122.823 11.234-6.576-3.836-2.192-11.234 6.576z"/><path fill="#4D4D4D" d="m227.695 140.558 11.6-6.759.091-18.358-11.599 6.759z"/><path fill="#6D7983" d="m223.943 119.996-.091 18.358 3.836 2.192.091-18.358z"/><path fill="#fff" d="m224.684 136.163 2.009 1.188v-9.773l-2.009-1.187zM224.781 124.11c0 .548.457 1.187 1.005 1.553.548.274 1.005.091 1.005-.366 0-.548-.457-1.187-1.005-1.552-.639-.366-1.005-.183-1.005.365"/></g><mask id="p" width="43" height="49" x="191" y="99" maskUnits="userSpaceOnUse" style="mask-type:luminance"><path fill="#fff" d="m191.888 99.363-.091 24.204 41.557 23.929.182-24.021z"/></mask><g mask="url(#p)"><path fill="#4D4D4D" d="m231.889 124.478 7.855-6.759v-2.192l-11.599 6.759z"/><path fill="#E6E6E6" d="m231.889 125.12 11.234-6.576-3.836-2.192-11.142 6.484z"/><path fill="#4D4D4D" d="m231.887 142.843 11.599-6.758v-18.358l-11.599 6.758z"/><path fill="#1A1A1A" d="m228.138 122.277-.091 18.358 3.836 2.192v-18.358z"/><path fill="#fff" d="m228.867 138.456 2.01 1.188v-9.773l-2.01-1.187zM228.867 126.403c0 .548.457 1.187 1.005 1.553.548.274 1.005.091 1.005-.366s-.457-1.187-1.005-1.552c-.548-.366-1.005-.183-1.005.365"/></g><mask id="q" width="43" height="49" x="191" y="99" maskUnits="userSpaceOnUse" style="mask-type:luminance"><path fill="#fff" d="m191.888 99.363-.091 24.204 41.557 23.929.182-24.021z"/></mask><g mask="url(#q)"><path fill="#4D4D4D" d="m235.999 126.869 7.854-6.759v-2.192l-11.599 6.759z"/><path fill="#E6E6E6" d="m235.999 127.502 11.234-6.576-3.836-2.192-11.143 6.485z"/><path fill="#1A1A1A" d="m232.248 124.668-.092 18.358 3.836 2.192V126.86z"/><path fill="#fff" d="m232.973 140.835 2.009 1.188v-9.773l-2.009-1.188zM232.973 128.782c0 .548.456 1.187 1.004 1.553.548.274 1.005.091 1.005-.366 0-.548-.457-1.187-1.005-1.552-.548-.366-1.004-.183-1.004.365"/></g><mask id="r" width="43" height="49" x="191" y="126" maskUnits="userSpaceOnUse" style="mask-type:luminance"><path fill="#fff" d="m191.81 126.688-.091 24.112 41.556 24.02.183-24.112z"/></mask><g mask="url(#r)"><path fill="#4D4D4D" d="m198.91 132.81 7.764-6.667v-2.284l-11.6 6.759z"/><path fill="#E6E6E6" d="m198.91 133.444 11.234-6.576-3.836-2.192-11.234 6.576z"/><path fill="#4D4D4D" d="m198.828 151.166 11.599-6.667.092-18.358-11.6 6.667z"/><path fill="#1A1A1A" d="M195.074 130.605v18.358l3.745 2.192.091-18.358z"/><path fill="#fff" d="m195.809 146.874 2.009 1.096v-9.772l-2.009-1.096zM195.906 134.727c0 .548.457 1.188 1.005 1.553.548.274 1.005.091 1.005-.365 0-.548-.457-1.188-1.005-1.553s-1.005-.183-1.005.365"/><path fill="#4D4D4D" d="m203.027 135.166 7.764-6.668v-2.283l-11.6 6.759z"/><path fill="#E6E6E6" d="m203.027 135.815 11.234-6.576-3.836-2.192-11.234 6.576z"/><path fill="#4D4D4D" d="m202.941 153.529 11.6-6.667.091-18.358-11.599 6.667z"/><path fill="#1A1A1A" d="M199.191 132.984v18.358l3.745 2.192.091-18.358z"/><path fill="#fff" d="m199.922 149.234 2.009 1.096v-9.773l-2.009-1.096zM200.02 137.087c0 .548.456 1.187 1.004 1.552.548.274 1.005.092 1.005-.365 0-.548-.457-1.187-1.005-1.553-.639-.365-1.004-.182-1.004.366"/><path fill="#4D4D4D" d="m207.137 137.556 7.763-6.667v-2.284l-11.599 6.759z"/><path fill="#E6E6E6" d="m207.137 138.19 11.234-6.576-3.836-2.192-11.234 6.576z"/><path fill="#4D4D4D" d="m207.047 155.912 11.599-6.667.092-18.358-11.6 6.667z"/><path fill="#1A1A1A" d="M203.301 135.363v18.358l3.744 2.192.092-18.358z"/><path fill="#fff" d="m204.031 151.62 2.01 1.096v-9.772l-2.01-1.096zM204.129 139.473c0 .548.457 1.188 1.005 1.553.548.274 1.004.091 1.004-.365 0-.548-.456-1.188-1.004-1.553-.64-.365-1.005-.183-1.005.365"/><path fill="#4D4D4D" d="m211.258 139.919 7.763-6.667v-2.283l-11.599 6.758z"/><path fill="#E6E6E6" d="m211.258 140.557 11.234-6.576-3.836-2.192-11.234 6.576z"/><path fill="#4D4D4D" d="m211.164 158.279 11.599-6.667.092-18.358-11.6 6.667z"/><path fill="#1A1A1A" d="M207.422 137.719v18.358l3.745 2.192.091-18.358z"/><path fill="#fff" d="m208.152 153.988 2.01 1.096v-9.773l-2.01-1.096zM208.25 141.841c0 .548.457 1.187 1.005 1.552.548.274 1.004.092 1.004-.365 0-.548-.456-1.187-1.004-1.553-.64-.365-1.005-.182-1.005.366"/><path fill="#F15A24" d="m215.344 142.306 7.763-6.667v-2.284l-11.599 6.759z"/><path fill="#E6E6E6" d="m215.344 142.94 11.234-6.576-3.836-2.192-11.234 6.576z"/><path fill="#F15A24" d="m215.258 160.67 11.599-6.667.091-18.358-11.599 6.667z"/><path fill="#AD3814" d="M211.508 140.109v18.358l3.744 2.192.092-18.358z"/><path fill="#fff" d="m212.246 156.378 2.009 1.096v-9.773l-2.009-1.096zM212.344 144.231c0 .548.456 1.188 1.004 1.553.548.274 1.005.091 1.005-.365 0-.457-.457-1.188-1.005-1.553-.639-.365-1.004-.183-1.004.365"/><path fill="#4D4D4D" d="m219.477 144.677 7.763-6.758v-2.192l-11.599 6.758z"/><path fill="#E6E6E6" d="m219.477 145.311 11.234-6.576-3.836-2.192-11.234 6.576z"/><path fill="#4D4D4D" d="m219.387 163.042 11.599-6.758.091-18.358-11.599 6.758z"/><path fill="#6D7983" d="M215.641 142.492v18.358l3.744 2.192.092-18.358z"/><path fill="#fff" d="m216.371 158.654 2.009 1.187v-9.772l-2.009-1.096zM216.469 146.598c0 .548.456 1.188 1.004 1.553.548.274 1.005.091 1.005-.365 0-.548-.457-1.188-1.005-1.553-.639-.365-1.004-.183-1.004.365"/><path fill="#4D4D4D" d="m223.586 147.052 7.763-6.758v-2.192l-11.599 6.758z"/><path fill="#E6E6E6" d="m223.586 147.694 11.234-6.576-3.836-2.192-11.234 6.576z"/><path fill="#4D4D4D" d="m223.496 165.421 11.599-6.758.092-18.358-11.6 6.758z"/><path fill="#1A1A1A" d="M219.75 144.859v18.358l3.745 2.192.091-18.358z"/><path fill="#fff" d="m220.48 161.037 2.01 1.187v-9.773l-2.01-1.096zM220.578 148.981c0 .548.457 1.188 1.005 1.553.548.274 1.004.091 1.004-.365 0-.548-.456-1.188-1.004-1.553-.64-.365-1.005-.183-1.005.365"/><path fill="#4D4D4D" d="m227.695 149.431 7.764-6.759v-2.192l-11.6 6.759z"/><path fill="#E6E6E6" d="m227.695 150.065 11.234-6.576-3.836-2.192-11.234 6.576z"/><path fill="#4D4D4D" d="m227.609 167.785 11.6-6.759.091-18.358-11.599 6.759z"/><path fill="#1A1A1A" d="M223.859 147.234v18.358l3.745 2.192.091-18.358z"/><path fill="#fff" d="m224.59 163.408 2.009 1.187v-9.772l-2.009-1.096zM224.688 151.352c0 .548.456 1.188 1.004 1.553.548.274 1.005.091 1.005-.365 0-.548-.457-1.188-1.005-1.553-.639-.365-1.004-.183-1.004.365"/></g><mask id="s" width="43" height="50" x="191" y="153" maskUnits="userSpaceOnUse" style="mask-type:luminance"><path fill="#fff" d="m191.701 153.988-.092 24.112 41.557 23.93.183-24.021z"/></mask><g mask="url(#s)"><path fill="#4D4D4D" d="m198.738 160.113 7.764-6.667v-2.192l-11.6 6.667z"/><path fill="#E6E6E6" d="m198.738 160.748 11.234-6.576-3.836-2.192-11.234 6.576z"/><path fill="#4D4D4D" d="m198.645 178.467 11.599-6.668.091-18.358-11.599 6.668z"/><path fill="#1A1A1A" d="M194.902 157.914v18.358l3.745 2.192.091-18.358z"/><path fill="#fff" d="m195.723 174.171 1.918 1.096v-9.773l-1.918-1.096zM195.723 162.023c0 .548.456 1.187 1.004 1.553.548.274 1.005.091 1.005-.366 0-.548-.457-1.187-1.005-1.552-.639-.366-1.004-.092-1.004.365"/></g><mask id="t" width="43" height="50" x="191" y="153" maskUnits="userSpaceOnUse" style="mask-type:luminance"><path fill="#fff" d="m191.701 153.988-.092 24.112 41.557 23.93.183-24.021z"/></mask><g mask="url(#t)"><path fill="#F15A24" d="m202.852 162.488 7.763-6.667v-2.192l-11.599 6.667z"/><path fill="#E6E6E6" d="m202.852 163.131 11.234-6.576-3.836-2.192-11.234 6.576z"/><path fill="#F15A24" d="m202.758 180.838 11.599-6.668.091-18.358-11.599 6.668z"/><path fill="#AD3814" d="M199.016 160.297v18.358l3.744 2.192.092-18.358z"/><path fill="#fff" d="m199.836 176.546 1.918 1.096v-9.773l-1.918-1.096zM199.836 164.399c0 .548.457 1.187 1.005 1.553.548.274 1.004.091 1.004-.366 0-.548-.456-1.187-1.004-1.552-.64-.366-1.005-.183-1.005.365"/></g><mask id="u" width="43" height="50" x="191" y="153" maskUnits="userSpaceOnUse" style="mask-type:luminance"><path fill="#fff" d="m191.701 153.988-.092 24.112 41.557 23.93.183-24.021z"/></mask><g mask="url(#u)"><path fill="#4D4D4D" d="m213.168 168.427 7.763-6.758v-2.192l-11.599 6.758z"/><path fill="#E6E6E6" d="m213.168 168.97 11.234-6.485-3.836-2.192-11.234 6.485z"/><path fill="#4D4D4D" d="m213.168 186.785 11.599-6.759v-18.358l-11.599 6.759z"/><path fill="#1A1A1A" d="M209.332 166.227v18.358l3.836 2.192v-18.358z"/><path fill="#fff" d="m210.152 182.402 1.918 1.187v-9.773l-1.918-1.187zM210.152 170.348c0 .548.457 1.188 1.005 1.553.548.274 1.005.091 1.005-.365 0-.548-.457-1.188-1.005-1.553s-1.005-.183-1.005.365"/></g><mask id="v" width="43" height="50" x="191" y="153" maskUnits="userSpaceOnUse" style="mask-type:luminance"><path fill="#fff" d="m191.701 153.988-.092 24.112 41.557 23.93.183-24.021z"/></mask><g mask="url(#v)"><path fill="#4D4D4D" d="m217.289 170.794 7.763-6.758v-2.192l-11.599 6.758z"/><path fill="#E6E6E6" d="m217.289 171.341 11.234-6.485-3.836-2.192-11.234 6.485z"/><path fill="#4D4D4D" d="m217.285 189.148 11.6-6.759v-18.358l-11.6 6.759z"/><path fill="#1A1A1A" d="M213.453 168.594v18.358l3.836 2.192v-18.358z"/><path fill="#fff" d="m214.27 184.765 1.918 1.187v-9.772l-1.918-1.188zM214.27 172.712c0 .548.456 1.187 1.004 1.552.548.274 1.005.092 1.005-.365 0-.548-.457-1.187-1.005-1.553s-1.004-.182-1.004.366"/></g><mask id="w" width="43" height="50" x="191" y="153" maskUnits="userSpaceOnUse" style="mask-type:luminance"><path fill="#fff" d="m191.701 153.988-.092 24.112 41.557 23.93.183-24.021z"/></mask><g mask="url(#w)"><path fill="#4D4D4D" d="m221.383 173.158 7.763-6.759v-2.192l-11.599 6.759z"/><path fill="#E6E6E6" d="m221.383 173.708 11.234-6.485-3.836-2.192-11.234 6.485z"/><path fill="#4D4D4D" d="m221.391 191.523 11.599-6.759v-18.358l-11.599 6.759z"/><path fill="#1A1A1A" d="M217.547 170.969v18.358l3.836 2.192v-18.358z"/><path fill="#fff" d="m218.363 187.132 1.918 1.187v-9.772l-1.918-1.188zM218.363 175.079c0 .548.457 1.187 1.005 1.552.548.274 1.005.092 1.005-.365 0-.548-.457-1.187-1.005-1.552-.548-.366-1.005-.183-1.005.365"/></g><mask id="x" width="43" height="50" x="191" y="153" maskUnits="userSpaceOnUse" style="mask-type:luminance"><path fill="#fff" d="m191.701 153.988-.092 24.112 41.557 23.93.183-24.021z"/></mask><g mask="url(#x)"><path fill="#4D4D4D" d="m225.477 175.548 7.763-6.758v-2.192l-11.599 6.758z"/><path fill="#E6E6E6" d="m225.477 176.091 11.234-6.485-3.836-2.192-11.234 6.485z"/><path fill="#4D4D4D" d="m225.492 193.902 11.6-6.759v-18.358l-11.6 6.759z"/><path fill="#6D7983" d="M221.641 173.348v18.358l3.836 2.192V175.54z"/><path fill="#fff" d="m222.469 189.519 1.918 1.096v-9.682l-1.918-1.187zM222.469 177.466c0 .548.456 1.187 1.004 1.552.548.274 1.005.092 1.005-.365s-.457-1.187-1.005-1.553-1.004-.182-1.004.366"/></g><mask id="y" width="43" height="50" x="191" y="153" maskUnits="userSpaceOnUse" style="mask-type:luminance"><path fill="#fff" d="m191.701 153.988-.092 24.112 41.557 23.93.183-24.021z"/></mask><g mask="url(#y)"><path fill="#4D4D4D" d="m229.59 177.904 7.763-6.759v-2.192l-11.599 6.759z"/><path fill="#E6E6E6" d="m229.59 178.462 11.234-6.485-3.836-2.192-11.234 6.485z"/><path fill="#4D4D4D" d="m229.598 196.265 11.599-6.759v-18.358l-11.599 6.759z"/><path fill="#1A1A1A" d="M225.754 175.719v18.358l3.836 2.192v-18.358z"/><path fill="#fff" d="m226.586 191.882 1.918 1.096v-9.681l-1.918-1.188zM226.586 179.829c0 .548.457 1.187 1.005 1.553.548.274 1.004.091 1.004-.366 0-.548-.456-1.187-1.004-1.552-.548-.366-1.005-.183-1.005.365"/></g><mask id="z" width="43" height="50" x="191" y="153" maskUnits="userSpaceOnUse" style="mask-type:luminance"><path fill="#fff" d="m191.701 153.988-.092 24.112 41.557 23.93.183-24.021z"/></mask><g mask="url(#z)"><path fill="#4D4D4D" d="m233.715 180.29 7.763-6.758v-2.192l-11.599 6.759z"/><path fill="#E6E6E6" d="m233.715 180.833 11.234-6.485-3.836-2.192-11.234 6.485z"/><path fill="#1A1A1A" d="M229.879 178.102v18.358l3.836 2.192v-18.358z"/><path fill="#fff" d="m230.699 194.265 1.918 1.096v-9.681l-1.918-1.188zM230.699 182.212c0 .548.457 1.187 1.005 1.552.548.274 1.005.092 1.005-.365 0-.548-.457-1.187-1.005-1.553s-1.005-.182-1.005.366"/></g><path fill="#333" d="M192.72 209.78v-3.014q0 .411-.548.822v3.014c.365-.183.548-.548.548-.822M188.883 206.766v3.014q0 .411.548.822c.73.456 2.009.456 2.74 0v-3.014c-.731.456-2.01.456-2.74 0q-.549-.411-.548-.822"/><path fill="#000" d="M192.171 207.587c.73-.457.73-1.188 0-1.553-.731-.457-2.01-.457-2.74 0s-.731 1.187 0 1.553c.73.456 2.009.456 2.74 0"/><path fill="#D4BFA7" d="m236.092 121.74-.274 112.34-1.279.731-1.461-2.284v-27.308l.091-3.197v-27.217l.092-24.204v-3.105l.091-24.112v-3.196z"/><path fill="#F2E8DF" d="m187.594 207.684 22.376 12.878.914.548 23.655 13.7v-30.597l-23.655-13.609-.914-.548-22.285-12.786z"/><path fill="#D4BFA7" d="M209.969 190.055v30.505l.913.548v-30.505z"/><path fill="#333" d="m213.267 194.806-.822.457c.183-.092.366-.092.64.091l.822-.457c-.274-.182-.457-.182-.64-.091M213.634 197.364l.822-.456q.274-.138.274-.548c0-.548-.365-1.188-.822-1.462l-.822.457c.457.274.822.913.822 1.461q0 .411-.274.548"/><path fill="#000" d="M213.088 195.352c-.457-.274-.822-.091-.822.457s.365 1.187.822 1.461.822.092.822-.456-.366-1.188-.822-1.462"/><path fill="#333" d="m206.326 190.779-.822.456c.183-.091.365-.091.639.092l.822-.457c-.274-.183-.456-.183-.639-.091"/><path fill="#333" d="m206.689 193.337.822-.457q.274-.137.274-.548c0-.548-.366-1.187-.822-1.461l-.822.457c.456.274.822.913.822 1.461q0 .411-.274.548"/><path fill="#000" d="M206.142 191.329c-.456-.274-.822-.091-.822.457s.366 1.187.822 1.461c.457.274.822.091.822-.457s-.365-1.187-.822-1.461"/><path fill="#D4BFA7" d="M99.193 218.458c2.649 11.143 1.918 16.532-1.278 23.108l-27.766 16.166c3.197-6.576 3.928-11.965 1.279-23.108-3.014-12.695-2.1-16.622-.73-17.444 1.187-.64 2.648.73 2.465 1.278l24.021-13.974c-.183 2.558.274 6.942 2.01 13.974"/><path fill="#F2E8DF" d="M100.193 218.458c2.649 11.143 2.192 18.084-1.004 24.66l-27.766 16.166c3.197-6.576 3.654-13.517 1.005-24.66-3.014-12.695-2.1-16.622-.73-17.444 1.187-.64 2.648.73 2.465 1.278l24.021-13.974c-.091 2.558.365 6.942 2.009 13.974"/><path fill="#333" d="m113.075 289.878 1.918-1.187-7.398-37.812-2.009 1.096z"/><path fill="#4D4D4D" d="m106.862 252.339 1.918-1.095-.182-1.279-1.918 1.096z"/><path fill="#CCC" d="m106.677 251.055 1.918-1.096-1.279-.365-1.918 1.187z"/><path fill="#333" d="m89.129 276.359 1.918-1.096 12.33-39.365-1.918 1.096z"/><path fill="#A79681" d="m101.469 236.813 1.918-1.096-1.188-1.096-1.918 1.096z"/><path fill="#4D4D4D" d="m101.461 236.997 1.918-1.096v-.182l-1.918 1.096z"/><path fill="gray" d="m96.26 204.389-1.28-.366 6.485 32.789 10.321 52.699 1.278.366-7.489-37.904 1.279.366-.183-1.279-1.279-.274z"/><path fill="gray" d="m100.281 235.719-12.422 39.547 1.279 1.096 12.33-39.365v-.182z"/><path fill="#4D4D4D" d="m96.263 204.385 1.918-1.188-1.187-.365-2.01 1.187z"/><path fill="#333" d="m96.263 204.385 1.918-1.188-1.187-.365-2.01 1.187z"/><path fill="#4D4D4D" d="m105.395 250.784 1.918-1.187-9.133-46.398-1.918 1.188z"/><path fill="gray" d="M107.495 263.028v-.548c-.182-.091-.274-.274-.456-.365l-11.874-6.85c-.73-.366-1.278-.183-1.278.548 0 .73.548 1.552 1.278 2.009l11.874 6.85c.274.183.548.183.73.183-.091-.64-.274-1.188-.274-1.827"/><path fill="#333" d="m91.617 302.21 1.918-1.096-7.398-37.903-1.918 1.096z"/><path fill="#4D4D4D" d="m85.489 264.666 23.29-13.426-.183-1.279-23.381 13.517z"/><path fill="#CCC" d="m85.216 263.488 23.382-13.517-1.279-.366-23.382 13.518z"/><path fill="#333" d="m67.676 288.775 1.918-1.188 12.421-39.364-1.918 1.096z"/><path fill="#A79681" d="m80.01 249.141 2.01-1.096-1.188-1.096-1.918 1.096z"/><path fill="#4D4D4D" d="m80.103 249.318 1.918-1.096v-.183l-2.01 1.096z"/><path fill="gray" d="m74.888 216.721-1.279-.366 6.394 32.789 10.32 52.699 1.279.366-7.398-37.904 1.279.366-.274-1.188-1.279-.365z"/><path fill="gray" d="m78.914 248.039-12.422 39.547 1.188 1.188 12.42-39.456-.09-.183z"/><path fill="#4D4D4D" d="m74.896 216.715 1.918-1.096-1.279-.365-1.918 1.096z"/><path fill="#333" d="m74.896 216.715 1.918-1.096-1.279-.365-1.918 1.096z"/><path fill="#4D4D4D" d="m83.94 263.122 2.01-1.096-9.134-46.397-1.918 1.096z"/><path fill="#4D4D4D" d="m73.156 218.46 27.766-16.166-.731-.274-27.765 16.166z"/><path fill="#FBFFF2" d="m82.29 264.852 27.765-16.257-9.133-46.306-27.766 16.166z"/><path fill="#FFC366" d="M99.36 236.544c-2.74 1.552-4.384 5.388-3.562 8.585.274 1.005.822 1.918 1.553 2.557l1.644-2.466a3.44 3.44 0 0 1-.822-1.37c-.457-1.735.365-3.744 1.918-4.658a2.6 2.6 0 0 1 1.37-.365l.457-2.923c-.822-.091-1.736.183-2.558.64"/><path fill="#F15A24" d="m101.922 235.91-.457 2.923c1.005 0 1.827.731 2.192 1.918.457 1.735-.365 3.745-1.918 4.658-.091.091-.183.091-.274.182l.457 2.74.548-.273c2.74-1.553 4.384-5.389 3.47-8.586-.639-2.192-2.1-3.562-4.018-3.562"/><path fill="#6D7983" d="m99.011 245.121-1.644 2.466c1.188 1.005 2.832 1.279 4.476.548l-.457-2.74c-.822.457-1.736.274-2.375-.274"/><path fill="#3399B0" d="m99.011 245.121-1.644 2.466c1.188 1.005 2.832 1.279 4.476.548l-.457-2.74c-.822.457-1.736.274-2.375-.274"/><path fill="#6D7983" d="m90.247 244.109-.822 2.923a2.245 2.245 0 0 1 1.736 1.827c.456 1.735-.366 3.744-1.918 4.658-.092.091-.183.091-.274.182l.456 2.74.548-.274c2.74-1.552 4.384-5.388 3.471-8.585-.457-1.918-1.644-3.197-3.197-3.471"/><path fill="#3399B0" d="m90.247 244.109-.822 2.923a2.245 2.245 0 0 1 1.736 1.827c.456 1.735-.366 3.744-1.918 4.658-.092.091-.183.091-.274.182l.456 2.74.548-.274c2.74-1.552 4.384-5.388 3.471-8.585-.457-1.918-1.644-3.197-3.197-3.471"/><path fill="#FFC366" d="M83.482 249.422a7.8 7.8 0 0 0-.091 3.836c.73 2.923 3.288 4.201 5.936 3.105l-.456-2.74c-1.37.64-2.832-.091-3.197-1.644-.183-.639-.183-1.37 0-2.1z"/><path fill="#F15A24" d="M86.959 244.675c-1.644.914-2.923 2.74-3.47 4.75l2.283.456c.274-1.096 1.004-2.1 1.918-2.557.548-.365 1.187-.457 1.735-.274l.822-2.923q-1.644-.41-3.288.548"/><path fill="#333" d="m73.156 218.465-.73-.274 9.042 46.398.822.274z"/><path fill="gray" d="M85.853 274.814a1.3 1.3 0 0 0-.366-.274l-11.873-6.85c-.183-.091-.365-.182-.457-.182a4.5 4.5 0 0 1-.365 1.004c-.091.183-.091.366-.183.548.183.457.64.914 1.096 1.188l11.874 6.85c.365.182.639.274.913.182a4.74 4.74 0 0 1-.64-2.466"/><path fill="#F2E8DF" d="m98.362 201.013-27.674 16.166c1.187-.639 2.648.822 2.557 1.279l24.02-13.974 3.836-2.192c-.091-.548-1.552-2.01-2.74-1.279"/><path fill="#6D7983" d="m83.115 236.076-.274.183-.091-.365.274-.183zM83.573 238.637l-.274.182-.091-.639.274-.183zm-.274-1.279-.274.183-.091-.64.274-.182zM83.75 239.631l-.182.183-.091-.366.182-.182zM87.596 233.514l-.274.091-.091-.365.273-.092zM88.056 236.074l-.274.183-.091-.639.273-.183zm-.183-1.278-.274.182-.091-.639.274-.183zM88.322 237.078l-.274.091-.091-.365.274-.183zM92.975 224.303l-.274.091-.092-.365.274-.091zM94.528 232.159l-.274.183-.182-.822.274-.183zm-.365-1.553-.274.183-.183-.822.274-.182zm-.274-1.644-.274.183-.183-.822.274-.183zm-.274-1.552-.274.182-.183-.822.274-.182zm-.365-1.553-.274.183-.183-.822.274-.183zM94.708 233.347l-.183.092-.091-.366.274-.182zM96.633 215.619l-.274.092v-.366l.183-.091zM99.38 229.323l-.274.183-.183-.731.274-.182zm-.274-1.552-.274.182-.183-.73.274-.183zm-.274-1.462-.274.183-.183-.731.274-.182zm-.366-1.552-.274.182-.182-.73.274-.183zm-.274-1.553-.274.183-.182-.731.274-.183zm-.365-1.461-.274.182-.183-.73.274-.183zm-.274-1.553-.274.183-.183-.731.274-.183zm-.274-1.553-.274.183-.183-.731.274-.182zm-.365-1.461-.274.183-.183-.731.274-.183zM99.647 230.506l-.274.091-.092-.365.274-.091z"/><path fill="#D93035" d="M81.656 240.279h-.457l1.462-4.658 4.566-2.923.64-6.119 4.749-2.831 3.288-7.764.457.092-3.38 8.037-4.658 2.74-.64 6.119-4.657 3.014z"/><path fill="#D93035" d="m96.548 216.808.64-3.288-1.919 3.014z"/><path fill="#6D7983" d="m102.935 228.679-21.83 12.695-3.378-16.623.274-.091 3.288 16.349 21.554-12.604z"/><path fill="#D4BFA7" d="m269.879 167.5 83.205 48.042v-68.044l-83.205-48.041z"/><path fill="#34424B" d="m352.721 216.093-83.113-48.041c-.183-.092-.366-.366-.366-.548V99.46c0-.274.092-.456.366-.548a.78.78 0 0 1 .639 0l83.113 48.042c.183.091.366.365.366.548v68.043c0 .274-.092.457-.366.548-.091.091-.182.091-.365.091 0 0-.183 0-.274-.091m-82.109-115.445v66.49l81.835 47.22v-66.491z"/><path fill="#fff" d="m325.418 143.305 20.185 11.599v40.004l-20.185-11.691z"/><path fill="#FBB03B" d="M328.723 155.624c0-3.653 3.014-4.932 6.667-2.831s6.667 6.85 6.667 10.595c0 3.653-3.014 4.932-6.667 2.831-3.653-2.192-6.667-6.941-6.667-10.595m4.11 2.375c0 1.37 1.187 3.197 2.557 4.019s2.557.365 2.557-1.096c0-1.37-1.187-3.197-2.557-4.019s-2.557-.365-2.557 1.096"/><path fill="#3399B0" d="M335.384 166.124c3.653 2.101 6.667.822 6.667-2.831 0-1.918-.822-4.201-2.283-6.302l-2.74 1.553c.548.822.822 1.644.822 2.374 0 1.37-1.188 1.918-2.558 1.096s-2.557-2.648-2.557-4.018l-4.11-2.375c.091 3.653 3.105 8.403 6.759 10.503"/><path fill="#F15A24" d="M335.39 166.123c.639.365 1.187.639 1.735.822l-1.096-4.567c-.182-.091-.456-.182-.639-.274-1.37-.822-2.557-2.648-2.557-4.018l-4.11-2.375c0 3.562 3.014 8.311 6.667 10.412"/><path fill="#CCC" d="m328.815 166.216 13.243 7.672c.366.183.64.092.64-.274v-.73c0-.366-.274-.731-.64-.914l-13.243-7.672c-.365-.182-.639-.091-.639.274v.731c0 .274.274.731.639.913"/><path fill="#F15A24" d="m337.401 171.15 4.658 2.649c.365.182.639.091.639-.274v-.731c0-.365-.274-.731-.639-.913l-4.658-2.649c-.365-.183-.639-.091-.639.274v.731c0 .274.274.73.639.913"/><path fill="#CCC" d="m328.815 168.959 13.243 7.672c.366.182.64.091.64-.274v-.731c0-.365-.274-.731-.64-.913l-13.243-7.672c-.365-.183-.639-.092-.639.274v.73c0 .274.274.731.639.914"/><path fill="#3399B0" d="m338.768 174.709 3.288 1.918c.366.182.64.091.64-.274v-.731c0-.365-.274-.731-.64-.913l-3.288-1.918c-.365-.183-.639-.092-.639.274v.73c0 .274.274.731.639.914"/><path fill="#CCC" d="m328.815 171.791 13.243 7.672c.366.182.64.091.64-.274v-.731c0-.365-.274-.731-.64-.913l-13.243-7.672c-.365-.183-.639-.092-.639.274v.73c0 .274.274.731.639.914"/><path fill="#6D7983" d="m336.577 176.259 5.48 3.106c.365.182.639.091.639-.274v-.731c0-.365-.274-.731-.639-.913l-5.48-3.106c-.365-.182-.639-.091-.639.274v.731c.091.274.365.731.639.913"/><path fill="#CCC" d="m328.815 174.623 13.243 7.672c.366.182.64.091.64-.274v-.731c0-.365-.274-.731-.64-.913l-13.243-7.672c-.365-.183-.639-.092-.639.274v.73c0 .274.274.64.639.914"/><path fill="#6D7983" d="m339.592 180.83 2.375 1.37c.365.182.639.091.639-.274v-.731c0-.365-.274-.731-.639-.913l-2.375-1.37c-.365-.183-.639-.092-.639.274v.73c.091.274.365.731.639.914"/><path fill="#fff" d="M331.363 157.088c0 2.283 1.827 5.114 4.11 6.393s4.11.548 4.11-1.735-1.826-5.115-4.11-6.394c-2.283-1.278-4.11-.548-4.11 1.736"/><path fill="#6D7983" d="m340.867 188.771 1.279.731v-5.389l-1.279-.73z"/><path fill="#F15A24" d="m338.859 187.593 1.188.73v-3.288l-1.188-.73z"/><path fill="#3399B0" d="m336.848 186.408 1.187.731v-4.201l-1.187-.731z"/><path fill="#6D7983" d="m334.84 185.309 1.187.64v-4.75l-1.187-.73zM332.738 184.122l1.279.639v-2.922l-1.279-.64z"/><path fill="#3399B0" d="m330.727 182.936 1.187.639v-5.297l-1.187-.731z"/><path fill="#6D7983" d="m328.719 181.755 1.187.73v-4.11l-1.187-.73z"/><path fill="#fff" d="m273.996 114.898 20.185 11.691v39.913l-20.185-11.691z"/><path fill="#F15A24" d="M284.226 125.218c1.278.731 2.557 1.827 3.653 3.197l-1.735 2.649a8.9 8.9 0 0 0-2.01-1.736c-2.283-1.37-4.201-.274-4.201 2.375l-3.562-2.009c.091-4.932 3.562-6.942 7.855-4.476"/><path fill="#6D7983" d="M280.03 131.71c0 1.553.64 3.288 1.736 4.841l-2.101 2.1c-2.009-2.831-3.197-6.21-3.105-9.042z"/><path fill="#3399B0" d="M280.03 131.71c0 1.553.64 3.288 1.736 4.841l-2.101 2.1c-2.009-2.831-3.197-6.21-3.105-9.042z"/><path fill="#FFC366" d="M287.975 128.418c2.466 3.014 4.019 6.85 4.019 10.138 0 4.932-3.471 6.85-7.763 4.384-1.644-.913-3.197-2.466-4.567-4.293l2.101-2.1c.73 1.004 1.552 1.826 2.466 2.374 2.283 1.37 4.201.274 4.201-2.374 0-1.736-.822-3.836-2.192-5.48z"/><path fill="#333" d="m290.074 151.711 1.279.731v7.763l-1.279-.731z"/><path fill="#3399B0" d="m288.805 154.082 1.278.822v4.567l-1.278-.731z"/><path fill="#F15A24" d="m287.426 152.98 1.37.731v5.023l-1.37-.822z"/><path fill="#6D7983" d="m286.148 151.711 1.279.731v5.48l-1.279-.731z"/><path fill="#F15A24" d="m284.871 150.066 1.279.731v6.393l-1.279-.73z"/><path fill="#3399B0" d="m283.594 151.434 1.278.73v4.293l-1.278-.731z"/><path fill="#6D7983" d="m282.312 151.066 1.279.731v3.927l-1.279-.73z"/><path fill="#F15A24" d="m280.941 150.977 1.37.822v3.196l-1.37-.822z"/><path fill="#6D7983" d="m279.664 148.879 1.279.731v4.566l-1.279-.73z"/><path fill="#F15A24" d="m278.379 147.691 1.279.822v4.932l-1.279-.73z"/><path fill="#333" d="m277.109 147.691 1.279.731v4.293l-1.279-.731z"/><path fill="#6D7983" d="m275.832 144.859 1.279.731v6.393l-1.279-.73z"/><path fill="#333" d="m291.375 151.072-2.648-1.552v1.918l2.648 1.552zm-2.557.274v-1.735l2.557 1.461v1.736z"/><path fill="#333" d="M286.16 149.887v-1.918l2.649 1.552v1.918zm.091-1.736v1.736l2.558 1.461v-1.735z"/><path fill="#333" d="M283.516 148.426v-1.918l2.648 1.552v1.918zm.091-1.827v1.735l2.557 1.462v-1.736z"/><path fill="#333" d="M280.965 146.871v-1.918l2.649 1.553v1.918zm.091-1.735v1.735l2.558 1.461v-1.735z"/><path fill="#333" d="M278.398 145.41v-1.918l2.649 1.553v1.918zm0-1.735v1.735l2.558 1.462v-1.736z"/><path fill="#333" d="M275.754 143.949v-1.918l2.649 1.553v1.918zm.091-1.826v1.735l2.558 1.461v-1.735zM291.375 152.9l-2.648-1.552v1.918l2.648 1.552zm-2.557.274v-1.735l2.557 1.461v1.736z"/><path fill="#333" d="M286.16 151.711v-1.918l2.649 1.553v1.918zm.091-1.735v1.735l2.558 1.461v-1.735z"/><path fill="#333" d="M283.516 150.246v-1.918l2.648 1.553v1.918zm.091-1.827v1.736l2.557 1.461v-1.735z"/><path fill="#333" d="M280.965 148.797v-1.918l2.649 1.553v1.918zm.091-1.827v1.736l2.558 1.461v-1.735z"/><path fill="#333" d="M278.398 147.246v-1.918l2.649 1.553v1.918zm0-1.735v1.735l2.558 1.461v-1.735z"/><path fill="#333" d="M275.754 145.773v-1.918l2.649 1.553v1.918zm.091-1.826v1.735l2.558 1.461v-1.735zM291.375 154.725l-2.648-1.553v1.918l2.648 1.553zm-2.557.274v-1.736l2.557 1.462v1.735z"/><path fill="#333" d="M286.16 153.539v-1.918l2.649 1.553v1.918zm.091-1.735v1.735l2.558 1.461v-1.735z"/><path fill="#333" d="M283.516 152.078v-1.918l2.648 1.553v1.918zm.091-1.827v1.736l2.557 1.461v-1.735z"/><path fill="#333" d="M280.965 150.617v-1.918l2.649 1.553v1.918zm.091-1.826v1.735l2.558 1.461v-1.735z"/><path fill="#333" d="M278.398 149.066v-1.918l2.649 1.553v1.918zm0-1.735v1.735l2.558 1.462v-1.736z"/><path fill="#333" d="M275.754 147.602v-1.918l2.649 1.552v1.918zm.091-1.827v1.735l2.558 1.462v-1.736zM291.375 156.557l-2.648-1.553v1.918l2.648 1.553zm-2.557.274v-1.736l2.557 1.462v1.735z"/><path fill="#333" d="M286.16 155.367v-1.918l2.649 1.553v1.918zm.091-1.735v1.735l2.558 1.462v-1.736z"/><path fill="#333" d="M283.516 153.902v-1.918l2.648 1.553v1.918zm.091-1.826v1.735l2.557 1.461v-1.735z"/><path fill="#333" d="M280.965 152.441v-1.918l2.649 1.553v1.918zm.091-1.826v1.735l2.558 1.461v-1.735z"/><path fill="#333" d="M278.398 150.895v-1.918l2.649 1.552v1.918zm0-1.736v1.736l2.558 1.461v-1.735z"/><path fill="#333" d="M275.754 149.43v-1.918l2.649 1.552v1.918zm.091-1.827v1.735l2.558 1.462v-1.736zM291.375 158.373l-2.648-1.553v1.918l2.648 1.553zm-2.557.274v-1.735l2.557 1.461v1.735z"/><path fill="#333" d="M286.16 157.195v-1.918l2.649 1.553v1.918zm.091-1.735v1.735l2.558 1.462v-1.736z"/><path fill="#333" d="M283.516 155.731v-1.919l2.648 1.553v1.918zm.091-1.827v1.735l2.557 1.462v-1.736z"/><path fill="#333" d="M280.965 154.27v-1.918l2.649 1.552v1.918zm.091-1.827v1.735l2.558 1.462v-1.736z"/><path fill="#333" d="M278.398 152.719v-1.918l2.649 1.552v1.918zm0-1.736v1.736l2.558 1.461v-1.735z"/><path fill="#333" d="M275.754 151.262v-1.918l2.649 1.552v1.918zm.091-1.827v1.735l2.558 1.462v-1.736z"/><path fill="#fff" d="m299.945 129.234 20.185 11.6v39.912l-20.185-11.599z"/><path fill="#F15A24" d="m313.824 141.565 4.658 2.649v-1.37l-4.658-2.649zM307.801 138.093l4.566 2.648v-1.37l-4.566-2.648zM301.684 134.526l4.566 2.649v-1.37l-4.566-2.649z"/><path fill="#fff" d="m313.824 143.943 4.658 2.648v-1.278l-4.658-2.649z"/><path fill="#F15A24" d="m307.801 140.464 4.566 2.648v-1.37l-4.566-2.648zM301.684 136.904l4.566 2.648v-1.278l-4.566-2.649z"/><path fill="#6D7983" d="m313.824 146.405 4.658 2.649v-1.37l-4.658-2.649zM307.801 142.847l4.566 2.648v-1.37l-4.566-2.648z"/><path fill="#3399B0" d="m301.684 139.374 4.566 2.649v-1.37l-4.566-2.649z"/><path fill="#F15A24" d="m313.824 148.78 4.658 2.649v-1.37l-4.658-2.649zM307.801 145.22l4.566 2.649v-1.279l-4.566-2.649zM301.684 141.745l4.566 2.649v-1.37l-4.566-2.649z"/><path fill="#3399B0" d="m313.824 151.155 4.658 2.649v-1.279l-4.658-2.74z"/><path fill="#6D7983" d="m307.801 147.679 4.566 2.648v-1.37l-4.566-2.648zM301.684 144.119l4.566 2.648v-1.278l-4.566-2.649z"/><path fill="#3399B0" d="m313.824 153.529 4.658 2.648v-1.278l-4.658-2.649z"/><path fill="#6D7983" d="m307.801 150.061 4.566 2.649v-1.37l-4.566-2.649zM301.684 146.494l4.566 2.74v-1.37l-4.566-2.649z"/><path fill="#F15A24" d="m313.824 155.995 4.658 2.649v-1.37l-4.658-2.649zM307.801 152.431l4.566 2.649v-1.279l-4.566-2.649z"/><path fill="#fff" d="m301.684 148.968 4.566 2.648v-1.37l-4.566-2.648z"/><path fill="#F15A24" d="m313.824 158.366 4.658 2.649v-1.37l-4.658-2.649z"/><path fill="#D4EEFF" d="m307.801 154.901 4.566 2.649v-1.37l-4.566-2.649z"/><path fill="#F15A24" d="m301.684 151.335 4.566 2.649v-1.37l-4.566-2.649z"/><path fill="#6D7983" d="m313.824 160.744 4.658 2.648v-1.278l-4.658-2.649zM307.801 157.276l4.566 2.649v-1.37l-4.566-2.649zM301.684 153.704l4.566 2.649v-1.279l-4.566-2.648z"/><path fill="#F15A24" d="m313.824 163.21 4.658 2.649v-1.37l-4.658-2.649zM307.801 159.651l4.566 2.649v-1.279l-4.566-2.74zM301.684 156.175l4.566 2.648v-1.37l-4.566-2.648zM313.824 143.943l4.658 2.648v-1.278l-4.658-2.649zM307.801 150.061l4.566 2.649v-1.37l-4.566-2.649zM301.684 146.494l4.566 2.74v-1.37l-4.566-2.649z"/><path fill="#fff" d="m313.824 155.995 4.658 2.649v-1.37l-4.658-2.649z"/><path fill="#F15A24" d="m307.801 152.431 4.566 2.649v-1.279l-4.566-2.649zM301.684 148.968l4.566 2.648v-1.37l-4.566-2.648z"/><path fill="#6D7983" d="m313.824 158.366 4.658 2.649v-1.37l-4.658-2.649zM307.801 154.901l4.566 2.649v-1.37l-4.566-2.649zM301.684 151.335l4.566 2.649v-1.37l-4.566-2.649z"/><path fill="#F15A24" d="m313.824 160.744 4.658 2.648v-1.278l-4.658-2.649zM307.801 157.276l4.566 2.649v-1.37l-4.566-2.649zM301.684 153.704l4.566 2.649v-1.279l-4.566-2.648z"/><path fill="#6D7983" d="m313.824 163.21 4.658 2.649v-1.37l-4.658-2.649zM307.801 159.651l4.566 2.649v-1.279l-4.566-2.74z"/><path fill="#3399B0" d="m301.684 156.175 4.566 2.648v-1.37l-4.566-2.648z"/><path fill="#6D7983" d="m313.824 165.585 4.658 2.649v-1.37l-4.658-2.649zM307.801 162.025l4.566 2.648v-1.278l-4.566-2.649zM301.684 158.554l4.566 2.648v-1.37l-4.566-2.648z"/><path fill="#F15A24" d="m313.824 167.962 4.658 2.649v-1.279l-4.658-2.648zM307.801 164.491l4.566 2.649v-1.37l-4.566-2.649z"/><path fill="#fff" d="m301.684 160.923 4.566 2.649v-1.279l-4.566-2.648z"/><path fill="#F15A24" d="m313.824 170.341 4.658 2.649v-1.279l-4.658-2.649z"/><path fill="#3399B0" d="m307.801 166.862 4.566 2.649v-1.37l-4.566-2.649z"/><path fill="#F15A24" d="m301.684 163.39 4.566 2.648v-1.37l-4.566-2.648z"/><path fill="#3399B0" d="m313.824 172.804 4.658 2.648v-1.37l-4.658-2.648z"/><path fill="#6D7983" d="m307.801 169.244 4.566 2.648v-1.278l-4.566-2.649zM301.684 165.768l4.566 2.649v-1.37l-4.566-2.649z"/><path fill="#F15A24" d="m313.824 175.171 4.658 2.648v-1.37l-4.658-2.648zM307.801 171.706l4.566 2.649v-1.37l-4.566-2.649zM301.684 168.14l4.566 2.648v-1.37l-4.566-2.648z"/><path fill="#fff" d="M184.122 62.104 45.844 141.929v-8.768l138.278-79.825z"/><path fill="#97B9CF" d="M233.623 277.557c-.914.548-.914 1.37 0 1.918l73.34 42.653c1.005.548 2.558.548 3.562 0l48.681-28.131c.913-.548.913-1.37 0-1.918l-19.089-11.234c-.913-.548-2.466-.548-3.379 0l-15.161 8.768c-1.005.548-2.649.548-3.654 0l-50.69-29.409c-.913-.548-2.466-.548-3.379 0z" opacity=".5"/><path fill="gray" d="m265.876 260.042 2.557 1.461c-.456-.274-1.004-.182-1.735.183l-2.557-1.461c.639-.366 1.278-.457 1.735-.183"/><path fill="gray" d="m254.457 268.804-2.648-1.553 12.33-7.032 2.557 1.461z"/><path fill="#333" d="m239.206 281.492-2.558-1.552v-1.096l2.558 1.461z"/><path fill="gray" d="m241.676 276.206-2.649-1.553 10.595-6.028 2.557 1.461z"/><path fill="gray" d="m239.206 280.315-2.558-1.461c0-1.553 1.096-3.38 2.375-4.202l2.557 1.462c-1.278.822-2.374 2.648-2.374 4.201"/><path fill="#666" d="m252.184 270.078-2.558-1.461-.091-22.012 2.557 1.553z"/><path fill="#333" d="m252.092 248.163-2.557-1.552 2.283-1.279 2.558 1.461z"/><path fill="#333" d="m254.368 246.797.092 22.011 12.238-7.124c1.37-.73 2.375-.182 2.375 1.37v1.096l-29.866 17.262v-1.096c0-1.552 1.096-3.379 2.375-4.201l10.503-6.119-.091-22.012z"/><path fill="gray" d="m351.364 286.155 2.558 1.461c-.457-.274-1.005-.182-1.736.183l-2.557-1.461c.639-.366 1.279-.366 1.735-.183M319.843 306.528l-2.558-1.461 32.332-18.723 2.558 1.552z"/><path fill="#333" d="m304.684 319.215-2.649-1.461v-1.188l2.649 1.553z"/><path fill="gray" d="m307.061 313.928-2.557-1.461 10.503-6.119 2.558 1.552z"/><path fill="gray" d="m304.69 318.12-2.557-1.462c0-1.552 1.096-3.379 2.374-4.201l2.558 1.461c-1.37.822-2.466 2.649-2.375 4.202"/><path fill="#666" d="m317.571 307.898-2.558-1.552-.091-21.92 2.557 1.461z"/><path fill="#333" d="m317.479 285.886-2.557-1.461 2.283-1.37 2.558 1.552z"/><path fill="#333" d="m319.755 284.605.091 22.012 32.332-18.724c1.37-.73 2.375-.182 2.375 1.37v1.096l-49.959 28.862v-1.096c0-1.553 1.096-3.38 2.374-4.202l10.504-6.119-.092-22.011z"/><path fill="#666" d="m252.535 261.033 1.461-.822 63.021 36.259-1.462.822z"/><path fill="#333" d="m252.535 262.592 63.02 36.259v-1.553l-63.02-36.259z"/><path fill="gray" d="m310.061 312.193-2.557-1.461 7.489-4.384 2.558 1.552z"/><path fill="#666" d="m317.551 307.903-2.557-1.552-.092-43.292 2.558 1.461z"/><path fill="#333" d="m317.46 264.523-2.558-1.462 2.284-1.37 2.557 1.553z"/><path fill="#333" d="m319.74 263.238.092 43.292-2.284 1.37-.091-43.383z"/><path fill="#666" d="M335.649 297.492 333 295.939v-41.556l2.557 1.552z"/><path fill="#333" d="M335.557 255.937 333 254.384l2.283-1.279 2.558 1.462z"/><path fill="#333" d="M337.838 254.559v41.556l-2.192 1.37-.091-41.556z"/><path fill="#D4BFA7" d="M232.982 239.661c-.091-.365.183-.822.639-1.096l30.232-17.353c.913-.548 2.466-.548 3.379 0l50.69 29.409c1.005.548 2.649.548 3.653 0l15.162-8.768c.913-.548 2.466-.548 3.379 0l19.089 11.234c.456.274.639.639.639 1.005v2.466c0 .365-.274.73-.731 1.004l-48.68 28.131c-1.005.548-2.558.548-3.562 0l-73.25-42.744c-.456-.274-.639-.639-.73-1.005v-2.466c.091.092.091.092.091.183"/><path fill="#F2E8DF" d="M233.623 238.565c-.914.548-.914 1.37 0 1.918l73.34 42.653c1.005.548 2.558.548 3.562 0l48.681-28.131c.913-.548.913-1.37 0-1.918l-19.089-11.234c-.913-.548-2.466-.548-3.379 0l-15.161 8.768c-1.005.548-2.649.548-3.654 0l-50.69-29.409c-.913-.548-2.466-.548-3.379 0z"/><path fill="#0E0E14" d="M282.125 262.865c0-.091 0-.274.091-.365l3.928-5.206.274-.274a2.06 2.06 0 0 1 1.644-.183l16.074 4.11c.548.183.914.457.914.822v1.918c0 .092 0 .274-.092.366l-3.927 5.206-.274.274a2.05 2.05 0 0 1-1.644.182l-16.075-4.11c-.548-.182-.913-.456-.913-.822z"/><path fill="#748597" d="M286.52 257.023c-.091.092-.274.183-.274.274l-3.927 5.206c-.365.457 0 .914.731 1.188l16.074 4.11c.548.182 1.279.091 1.644-.183.092-.091.274-.183.274-.274l3.928-5.206c.365-.457 0-.913-.731-1.187l-16.075-4.11a3.3 3.3 0 0 0-1.644.182"/><path fill="#333942" d="m271.984 226.23.092 27.035 44.388 11.325-.092-27.034zM316.379 237.547l.091 27.034.914-1.187-.092-27.035z"/><path fill="#748597" d="m272.898 225.027-.914 1.188 44.388 11.325.914-1.187z"/><path fill="#748597" d="m272.898 225.027-.914 1.188 44.388 11.325.914-1.187z"/><path fill="#4D5865" d="M282.121 237.012v15.07l24.66 6.21v-14.978z"/><path fill="#333942" d="M306.781 243.319v14.979l.457-.64V242.68z"/><path fill="#748597" d="m282.578 236.371-.457.639 24.66 6.302.457-.639z"/><path fill="#748597" d="m282.578 236.371-.457.639 24.66 6.302.457-.639zM290.598 250.719v11.69l6.028 1.462-.092-11.6z"/><path fill="#4D5865" d="M290.598 250.719v11.69l6.028 1.462-.092-11.6z"/><path fill="#0E0E14" d="m296.539 252.277.091 11.6 1.188-1.553-.366-11.234z"/><path fill="#6F819A" d="m291.42 249.629-.822 1.096 5.936 1.553.914-1.188z"/><path fill="#AD3814" d="m247.596 235.371 1.827-1.827h1.37c2.649-.913 5.937-.913 8.585 0h1.37l1.827 1.827c1.827 1.918 1.37 4.293-1.37 5.937-3.379 1.918-8.768 1.918-12.056 0-2.923-1.644-3.379-4.019-1.553-5.937"/><path fill="#FF7847" d="M255.086 239.118c3.582 0 6.485-1.676 6.485-3.744s-2.903-3.745-6.485-3.745c-3.581 0-6.484 1.676-6.484 3.745s2.903 3.744 6.484 3.744"/><path fill="#1A1A1A" d="M250.516 234.559c0 .639 1.37.639 1.461 0v-8.312c0-1.461.457-2.831 1.187-4.018l6.12-9.316-.914-.64-6.119 9.316a8.13 8.13 0 0 0-1.37 4.567z"/><path fill="#4D4D4D" d="m269.97 217.032-6.576-6.028c-.091-.091-.456-.091-.913.183-.091 0-.183.091-.183.091l-2.009-1.827c-.091-.091-.091-.091-.274 0-.365.092-.731.183-1.096.183-.091 0-.183.091-.274.091-.548.274-1.37 1.096-1.735 1.736-.183.274-.274.456-.274.639s0 .365-.092.548c0 .183 0 .365-.091.457v.091c0 .091 0 .183.091.274l2.01 1.918c-.274.548-.274.822-.092 1.005l6.576 6.028c.092.091.457.091.914-.183 1.096-.639 2.648-2.192 3.562-3.562.548-.913.639-1.461.456-1.644"/><path fill="#AD3814" d="M269.519 218.6c-.822 1.37-2.466 2.923-3.562 3.562-.457.274-.731.274-.914.183l-3.562-3.288-1.187-1.096-1.735-1.644c.091.091.456.091.822-.183.182-.091.274-.182.456-.274 1.005-.73 2.284-2.1 3.106-3.288.548-.822.639-1.37.456-1.552l.183.182 1.187 1.096 5.115 4.75c.274.182.183.73-.365 1.552"/><path fill="#F15A24" d="M262.573 211.198c1.096-.639 1.278 0 .365 1.37-.822 1.37-2.466 2.923-3.562 3.562-1.096.64-1.279 0-.365-1.37.822-1.37 2.466-3.014 3.562-3.562"/><path fill="#FF7847" d="M258.735 209.727c.548-.274.639 0 .182.639-.456.64-1.187 1.462-1.735 1.736s-.639 0-.183-.731c.457-.548 1.188-1.37 1.736-1.644"/><path fill="#AD3814" d="m260.286 209.453 2.283 2.101c.183.182 0 .548-.365 1.187-.639 1.005-1.827 2.192-2.649 2.649-.365.182-.548.182-.639.091l-2.283-2.101c.091.092.365.092.639-.091.822-.457 2.009-1.644 2.649-2.649.456-.639.548-1.096.365-1.187"/><path fill="#F15A24" d="M259.007 209.636c.366-.092.731-.183 1.096-.183.457-.091.457.365-.091 1.187-.639 1.005-1.827 2.192-2.649 2.649-.548.274-.73.183-.73-.091v-.092c0-.182 0-.365.091-.456 0-.183 0-.366.091-.548 0 .182.092.274.457.091.548-.274 1.37-1.096 1.735-1.735q.411-.96 0-.822M260.301 215.652l6.119 5.845c.457-.274.731-.548 1.096-1.005l-6.119-5.754c-.366.366-.731.64-1.096.914"/><path fill="#C7B299" d="m341.408 264.148-14.614-8.586h-.091l14.705 8.495z"/><path fill="#AD3814" d="m341.587 263.69-14.704-8.494 11.234-6.485 14.704 8.494z"/><path fill="#FF7847" d="m341.49 260.855-14.705-8.585 11.326-6.485 14.704 8.494z"/><path fill="#FF7847" d="m341.403 260.851-14.613-8.585v.091a4 4 0 0 0-.548 1.461c-.092.731.091 1.37.548 1.736l14.704 8.494c-.365-.366-.639-1.005-.548-1.736 0-.548.183-1.004.457-1.461"/><path fill="#fff" d="M328.436 256.022c-.274-.274-.456-.73-.365-1.37 0-.365.183-.73.274-1.004l-1.461-.914c-.183.274-.274.64-.274 1.005-.092.548.091 1.096.365 1.37z"/><path fill="#AD3814" d="M341.126 262.239c-.092.365 0 .731.091 1.005.091.182.183.365.274.456l11.234-6.484v.365l-11.325 6.576h-.092c-.182-.183-.365-.365-.456-.639s-.183-.731-.092-1.096c0-.092 0-.183.092-.274.091-.457.274-.822.548-1.188v-.091l.456-.274 9.864-5.754 1.005-.548v.365l-1.005.548-9.59 5.572-.639.365c-.091.274-.274.639-.365 1.096"/><path fill="#FBFFF2" d="m351.631 255.285-9.498 5.48v2.01l9.498-5.48z"/><path fill="#F2E8DF" d="M342.134 260.77v2.009l-1.005-.548c.091-.365.183-.731.365-1.096z"/><path fill="#fff" d="m342.315 250.352-6.941 3.927-3.745-2.192 6.85-3.927z"/><path fill="#C7B299" d="m340.748 260.41-14.614-8.586h-.091l14.705 8.494z"/><path fill="#34424B" d="m340.951 259.947-14.705-8.494 11.234-6.484 14.705 8.494z"/><path fill="#333" d="m340.853 257.125-14.705-8.586 11.326-6.484 14.704 8.494zM340.758 257.124l-14.613-8.585v.091a4 4 0 0 0-.548 1.462c-.091.73.091 1.37.548 1.735l14.705 8.494c-.366-.365-.64-1.005-.548-1.735 0-.457.182-1.005.456-1.462"/><path fill="#F2E8DF" d="M327.792 252.378c-.274-.274-.457-.731-.365-1.37 0-.366.182-.731.273-1.005l-1.461-.913c-.182.274-.274.639-.274 1.004-.091.548.091 1.096.365 1.37zM338.109 258.122a3.3 3.3 0 0 1-.183-1.005c0-.183.091-.365.091-.548l-7.672-4.475c-.091.182-.091.365-.091.548 0 .365 0 .73.183 1.004z"/><path fill="gray" d="M340.485 258.485c-.091.365 0 .731.092 1.005.091.182.182.365.274.456l11.234-6.484v.365l-11.326 6.576h-.091c-.183-.183-.365-.365-.457-.639-.091-.274-.182-.731-.091-1.096 0-.092 0-.183.091-.274.092-.457.274-.822.548-1.188v-.091l.457-.274 9.864-5.754 1.005-.548v.365l-1.005.548-9.59 5.572-.639.365c-.092.274-.274.639-.366 1.096"/><path fill="#F2E8DF" d="m350.987 251.547-9.499 5.48v2.009l9.499-5.48z"/><path fill="#F2E8DF" d="M341.489 257.027v2.01l-1.005-.548c.092-.366.183-.731.366-1.096z"/><path fill="#97B9CF" d="M263.127 343.681 184.58 298.38c-1.004-.548-2.557-.548-3.562 0l-31.692 18.54c-1.005.548-1.005 1.462 0 2.101l23.107 13.335c-6.485-1.096-13.791-.092-18.906 2.831-7.489 4.384-7.489 11.417 0 15.709 7.489 4.384 19.728 4.384 27.217 0 5.115-2.922 6.759-7.124 4.841-10.96l17.901 10.321c1.096.639 1.096 1.644 0 2.283l-21.646 12.604c-1.004.548-1.004 1.462 0 2.101l20.642 11.782c1.004.548 2.557.548 3.562 0l56.992-33.154c1.096-.639 1.096-1.644.091-2.192" opacity=".5"/><path fill="gray" d="m188.491 298.648 2.648 1.553c-.456-.274-1.096-.183-1.826.182l-2.649-1.552c.731-.457 1.37-.457 1.827-.183"/><path fill="gray" d="m176.615 307.798-2.74-1.552 12.787-7.398 2.74 1.552z"/><path fill="#333" d="m158.252 322.4-2.649-1.553-.091-1.187 2.74 1.553z"/><path fill="gray" d="m160.723 316.914-2.649-1.553 13.426-7.763 2.74 1.552z"/><path fill="gray" d="m158.262 321.218-2.649-1.553c0-1.552 1.096-3.562 2.466-4.384l2.649 1.553c-1.37.913-2.466 2.831-2.466 4.384"/><path fill="#666" d="m174.24 309.161-2.74-1.553v-22.924l2.649 1.552z"/><path fill="#333" d="m174.149 286.231-2.649-1.552 2.375-1.37 2.648 1.552z"/><path fill="#333" d="m176.524 284.859.092 22.925 12.786-7.398c1.37-.822 2.558-.183 2.558 1.461v1.188l-33.702 19.362v-1.187c0-1.553 1.096-3.562 2.466-4.384l13.426-7.763-.092-22.925z"/><path fill="#666" d="m174.621 299.753 1.553-.913 65.76 37.812-1.553.913z"/><path fill="#333" d="m174.621 301.31 65.76 37.812v-1.552l-65.76-37.812z"/><path fill="gray" d="m256.834 338.015 2.649 1.552c-.457-.274-1.096-.182-1.827.183l-2.648-1.553c.73-.365 1.37-.365 1.826-.182"/><path fill="gray" d="m244.867 347.146-2.648-1.553 12.786-7.398 2.74 1.644z"/><path fill="#333" d="m210.801 370.988-2.649-1.644v-1.188l2.649 1.644z"/><path fill="gray" d="m213.361 365.41-2.74-1.552 29.227-16.897 2.648 1.553zM210.801 369.804l-2.649-1.553c0-1.552 1.096-3.562 2.466-4.384l2.649 1.553c-1.37.822-2.466 2.74-2.466 4.384"/><path fill="#666" d="m242.494 348.519-2.649-1.552-.091-35.803 2.74 1.553z"/><path fill="#333" d="m242.494 312.712-2.74-1.553 2.375-1.37 2.74 1.553z"/><path fill="#333" d="m244.863 311.34.091 35.894 12.787-7.398c1.37-.822 2.557-.183 2.557 1.461v1.188l-49.411 28.496v-1.188c0-1.552 1.096-3.562 2.466-4.384l29.226-16.896-.091-35.894z"/><path fill="#666" d="m223.3 359.665-2.74-1.552-.091-35.894 2.74 1.552z"/><path fill="#333" d="m223.209 323.77-2.74-1.552 2.374-1.37 2.74 1.552z"/><path fill="#333" d="m225.586 322.395.091 35.894-2.375 1.37-.091-35.894z"/><path fill="#D4BFA7" d="M263.849 305.323c.091-.457-.183-.913-.731-1.279l-78.547-45.301c-1.004-.548-2.557-.548-3.562 0l-31.692 18.541c-.457.274-.731.639-.731 1.004v2.649c0 .365.274.731.731 1.005l53.886 31.144-21.372 12.422c-.456.274-.73.639-.73 1.004v2.649c0 .365.274.731.73 1.005l20.642 11.782c1.004.548 2.557.548 3.562 0l56.992-33.154c.548-.274.73-.731.73-1.096v-2.649c.092.183.092.274.092.274"/><path fill="#F2E8DF" d="M263.117 304.042c1.096.639 1.096 1.553 0 2.192l-56.992 33.154c-1.004.548-2.557.548-3.562 0l-20.641-11.782c-1.005-.548-1.005-1.461 0-2.101l21.646-12.604c1.096-.639 1.096-1.644 0-2.283l-54.252-31.327c-1.005-.548-1.005-1.462 0-2.101l31.693-18.541c1.004-.548 2.557-.548 3.562 0z"/><path fill="#141C26" d="m173.996 281.03 25.847 14.979 16.349-9.499v-.913l-25.847-14.066-16.349 8.586z"/><path fill="#ADC1D9" d="m173.996 280.112 25.847 14.979 16.349-9.499-25.847-14.979z"/><path fill="#3B5E7D" d="m212.36 284.772-20.55-11.874-9.408 5.389 20.55 11.965z"/><path fill="#141C26" d="m211.898 284.765-1.553-.913-1.279.639 1.644 1.005zM210.07 283.671l-1.644-.913-1.188.73 1.644.914zM208.253 282.573l-1.644-.913-1.187.731 1.553.913zM206.326 281.57l-1.553-.914-1.187.64 1.553.913zM204.499 280.472l-1.552-.913-1.279.73 1.644.914zM202.679 279.378l-1.644-.913-1.187.731 1.552.913zM200.847 278.374l-1.644-.913-1.187.639 1.552.914zM198.931 277.277l-1.552-.914-1.188.731 1.553.913zM197.105 276.183l-1.553-.913-1.279.73 1.644.914zM195.277 275.179l-1.644-.913-1.188.639 1.553.913zM193.357 274.081l-1.552-.913-1.188.731 1.553.913zM209.709 286.042l-1.553-.913-1.187.639 1.552.914zM207.882 284.945l-1.553-.914-1.278.731 1.644.913zM206.058 283.855l-1.644-.914-1.187.731 1.552.913zM204.142 282.845l-1.552-1.005-1.188.73 1.553.914zM202.31 281.757l-1.552-.913-1.188.639 1.553 1.005zM200.476 280.659l-1.553-.913-1.278.731 1.644.913zM198.659 279.562l-1.644-.914-1.187.731 1.553.913zM196.736 278.558l-1.553-.913-1.187.639 1.553.913zM194.917 277.46l-1.552-.913-1.279.731 1.644.913zM193.089 276.363l-1.553-.914-1.278.731 1.644.913zM191.261 275.359l-1.644-.914-1.187.64 1.552.913zM208.339 286.769l-1.553-.914-1.278.731 1.644.913zM206.515 285.777l-1.644-.914-1.187.64 1.552.913zM204.592 284.679l-1.553-.913-1.187.73 1.552.914zM202.763 283.577l-1.552-.913-1.188.731 1.553.913zM200.937 282.573l-1.553-.913-1.279.64 1.644.913zM199.116 281.484l-1.644-.914-1.187.731 1.553.913zM197.193 280.378l-1.553-.913-1.187.73 1.553.914zM195.369 279.384l-1.553-1.005-1.187.731 1.553.913zM193.542 278.288l-1.552-.913-1.279.639 1.644 1.005zM191.71 277.183l-1.644-.913-1.187.73 1.553.914zM206.964 287.597l-1.644-.913-1.187.73 1.552.914zM205.144 286.598l-1.644-1.004-1.188.73 1.553.914zM203.224 285.499l-1.552-.913-1.188.639 1.553.914zM201.402 284.402l-1.553-.914-1.279.731 1.644.913zM199.566 283.312l-1.644-.914-1.188.731 1.553.913zM197.654 282.308l-1.553-.913-1.187.639 1.553.913zM195.822 281.206l-1.553-.913-1.187.731 1.553.913zM193.999 280.105l-1.552-.914-1.279.731 1.644.913zM192.175 279.105l-1.644-.914-1.187.64 1.552.913z"/><path fill="#141C26" d="m189.794 276.089-1.37.822 1.826 1.096-1.187.731-1.827-1.096-.456-.274-1.096-.64 1.004-.639.183-.091 1.37-.822zM203.221 287.053l.456.274 1.919 1.096-1.279.731-1.827-1.096-.457-.274-1.095-.639 1.187-.731zM201.855 286.323l-1.553-.913-1.279.64 1.644.913zM200.023 285.222l-1.644-.913-1.188.73 1.553.914zM198.199 284.124l-1.644-.913-1.188.731 1.553.913zM196.279 283.126l-1.553-1.005-1.187.731 1.553.913zM194.456 282.019l-1.552-.914-1.279.64 1.644.913zM192.632 280.929l-1.644-.913-1.187.73 1.552.914zM190.713 279.835l-1.553-.913-1.187.731 1.552.913zM187.332 277.916l.274.092 1.279.822-1.188.639-1.278-.731-.274-.182-1.918-1.005 1.278-.731zM204.142 289.241l-1.552-.913-1.188.639 1.553.914zM202.312 288.14l-1.553-.913-1.279.73 1.644.914zM200.476 287.054l-1.644-.913-1.187.73 1.644.914zM190.439 281.3l.822.457.183.183 1.644.913.274.091 1.552.914.274.182 1.553.914 1.918 1.096-1.279.639-1.826-1.005-1.553-.913-.274-.183-1.644-.913-.274-.183-1.553-.913-.274-.091-.73-.457-.822-.457 1.187-.73zM189.342 280.659l-1.553-.913-1.187.731 1.552.913zM187.511 279.653l-1.553-1.005-1.278.731 1.644.913zM185.687 278.558l-1.644-.913-1.188.639 1.553 1.005z"/><path fill="#fff" d="m211.898 284.585-1.553-.913-1.279.731 1.644.913z"/><path fill="#96AAC3" d="m210.07 283.491-1.644-.913-1.188.731 1.644.913zM208.253 282.394l-1.644-.914-1.187.731 1.553.913zM206.326 281.39l-1.553-.913-1.187.639 1.553.913zM204.499 280.292l-1.552-.913-1.279.731 1.644.913zM202.679 279.198l-1.644-.913-1.187.731 1.552.913zM200.847 278.195l-1.644-.914-1.187.64 1.552.913zM198.931 277.097l-1.552-.913-1.188.73 1.553.914zM197.105 276.003l-1.553-.913-1.279.73 1.644.914zM195.277 274.999l-1.644-.913-1.188.639 1.553.914zM193.357 273.902l-1.552-.914-1.188.731 1.553.913zM209.709 285.863l-1.553-.914-1.187.64 1.552.913zM207.882 284.765l-1.553-.913-1.278.73 1.644.914zM206.058 283.675l-1.644-.913-1.187.73 1.552.914zM204.142 282.671l-1.552-.913-1.188.639 1.553.913zM202.31 281.577l-1.552-.913-1.188.639 1.553 1.005zM200.476 280.48l-1.553-.914-1.278.731 1.644.913zM198.659 279.382l-1.644-.913-1.187.73 1.553.914zM196.736 278.378l-1.553-.913-1.187.639 1.553.914zM194.917 277.281l-1.552-.914-1.279.731 1.644.913zM193.089 276.183l-1.553-.913-1.278.73 1.644.914zM191.261 275.179l-1.644-.913-1.187.639 1.552.913zM208.339 286.589l-1.553-.913-1.278.73 1.644.914zM206.515 285.597l-1.644-.913-1.187.639 1.552.913zM204.592 284.499l-1.553-.913-1.187.731 1.552.913zM202.763 283.398l-1.552-.914-1.188.731 1.553.913zM200.937 282.394l-1.553-.914-1.279.64 1.644.913zM199.116 281.304l-1.644-.913-1.187.73 1.553.914zM197.193 280.198l-1.553-.913-1.187.731 1.553.913zM195.369 279.198l-1.553-.913-1.187.639 1.553.914zM193.542 278.109l-1.552-.914-1.279.64 1.644 1.004zM191.71 277.003l-1.644-.913-1.187.731 1.553.913zM206.964 287.417l-1.644-.913-1.187.731 1.552.913zM205.144 286.419l-1.644-1.005-1.188.731 1.553.913zM203.224 285.32l-1.552-.914-1.188.64 1.553 1.004zM201.402 284.222l-1.553-.913-1.279.73 1.644.914zM199.566 283.132l-1.644-.913-1.188.73 1.553.914zM197.654 282.128l-1.553-.913-1.187.639 1.553.914zM195.822 281.027l-1.553-.914-1.187.731 1.553.913zM193.999 279.925l-1.552-.913-1.279.73 1.644.914zM192.175 278.925l-1.644-.913-1.187.639 1.552.913z"/><path fill="#fff" d="m189.794 275.909-1.37.822 1.826 1.096-1.187.731-1.827-1.096-.456-.274-1.096-.639 1.004-.64.183-.091 1.37-.822zM203.221 286.874l.456.274 1.919 1.096-1.279.73-1.827-1.096-.457-.274-1.095-.639 1.187-.731z"/><path fill="#96AAC3" d="m201.855 286.144-1.553-.914-1.279.64 1.644.913zM200.023 285.042l-1.644-.913-1.188.731 1.553.913zM198.199 283.945l-1.644-.914-1.188.731 1.553.913zM196.279 282.946l-1.553-1.005-1.187.731 1.553.913zM194.456 281.839l-1.552-.913-1.279.639 1.644 1.005zM192.632 280.749l-1.644-.913-1.187.731 1.552.913zM190.713 279.656l-1.553-.914-1.187.731 1.552.913z"/><path fill="#fff" d="m187.332 277.737.274.091 1.279.822-1.188.639-1.278-.73-.274-.183-1.918-1.005 1.278-.73zM204.142 289.062l-1.552-.914-1.188.64 1.553.913z"/><path fill="#96AAC3" d="m202.312 287.96-1.553-.913-1.279.731 1.644.913zM200.476 286.874l-1.644-.913-1.187.731 1.644.913z"/><path fill="#fff" d="m190.439 281.121.822.456.183.183 1.644.913.274.092 1.552.913.274.183 1.553.913 1.918 1.096-1.279.639-1.826-1.004-1.553-.914-.274-.182-1.644-.914-.274-.182-1.553-.914-.274-.091-.73-.457-.822-.456 1.187-.731z"/><path fill="#96AAC3" d="m189.342 280.48-1.553-.914-1.187.731 1.552.913zM187.511 279.476l-1.553-.914-1.278.64 1.644.913z"/><path fill="#fff" d="m185.687 278.378-1.644-.913-1.188.639 1.553 1.005z"/><path fill="#141C26" d="m191.07 270.431 25.117 15.162.731-.183 5.023-18.541-25.939-14.978-.73.274z"/><path fill="#96AAC3" d="m190.344 270.617 25.847 14.979 5.023-18.541-25.938-14.887z"/><path fill="#fff" d="m191.254 270.248 24.477 14.157.092-.274 4.475-16.714-24.203-13.974-.366-.091z"/><path fill="#3B5E7D" d="m191.625 270.159 24.203 13.974 4.476-16.714-12.056-6.85-12.148-7.124zM184.859 284.774l6.12 3.562 3.836-2.192-6.12-3.562z"/><path fill="#fff" d="m220.024 267.599-1.461 5.389-1.918-7.398zM213.17 263.584l4.11 14.431-.822 2.831-5.114-18.358zM195.453 256.453l5.754 18.997-5.023-2.831-2.649-8.951zM200.107 256.093l6.576 22.559-1.644-.913-6.484-22.559zM210.341 261.933l5.754 20.55-.457 1.37-5.114-3.014-6.485-22.468z" opacity=".3"/><path fill="#C7B299" d="m237.375 315.728 15.344-8.951-15.344 8.86z"/><path fill="#AD3814" d="m237.195 315.268 15.344-8.951-11.691-6.758-15.344 8.95z"/><path fill="#FF7847" d="m237.377 312.26 15.344-8.859-11.873-6.85-15.344 8.859z"/><path fill="#FF7847" d="m237.365 312.353 15.252-8.951v.092c.274.456.548 1.004.548 1.552.092.731-.091 1.462-.548 1.827l-15.344 8.859c.457-.365.64-1.004.548-1.826.092-.64-.091-1.096-.456-1.553"/><path fill="#fff" d="M250.898 307.319c.274-.274.457-.822.366-1.37 0-.365-.183-.73-.366-1.004l1.553-.914c.183.274.274.64.365 1.005.092.639-.091 1.096-.365 1.37z"/><path fill="#AD3814" d="M237.642 313.72c.091.365 0 .731-.091 1.096-.092.183-.183.365-.274.457l-11.691-6.759v.365l11.873 6.85h.092c.182-.182.365-.365.456-.639.092-.365.183-.731.092-1.096 0-.091 0-.183-.092-.365a2.8 2.8 0 0 0-.548-1.188v-.091l-.456-.274-10.321-5.937-1.096-.639v.365l1.096.64 10.047 5.754.639.365c.091.274.274.639.274 1.096"/><path fill="#FBFFF2" d="m226.777 306.496 9.864 5.663v2.1l-9.864-5.662z"/><path fill="#F2E8DF" d="M236.641 312.172v2.101l1.004-.64c-.091-.365-.182-.822-.365-1.096z"/><path fill="#fff" d="m236.457 301.295 7.215 4.11 3.928-2.283-7.124-4.11z"/><path fill="#FBFFF2" d="m226.766 306.131 10.32 5.937 13.061-7.581-10.321-5.936z"/><path fill="#F2E8DF" d="m226.766 305.768 10.32 5.937 13.061-7.581-10.321-5.936z"/><path fill="#FBFFF2" d="m226.766 305.405 10.32 5.937 13.061-7.581-10.321-5.937z"/><path fill="#F2E8DF" d="m226.766 305.042 10.32 5.936 13.061-7.58-10.321-5.937z"/><path fill="#FBFFF2" d="m226.766 304.674 10.32 5.937 13.061-7.581-10.321-5.936z"/><path fill="#F2E8DF" d="m226.766 304.311 10.32 5.937 13.061-7.581-10.321-5.937z"/><path fill="#FBFFF2" d="m226.766 303.94 10.32 5.937 13.061-7.581-10.321-5.937z"/><path fill="#F2E8DF" d="m226.766 303.581 10.32 5.936 13.061-7.58L239.826 296z"/><path fill="#FBFFF2" d="m226.766 303.212 10.32 5.937 13.061-7.49-10.321-5.936z"/><path fill="#FBFFF2" d="m253.807 299.56-7.946 5.662-13.974-5.571 7.854-5.663z"/><path fill="#F2E8DF" d="m249.424 302.95-9.316 7.398-14.065-5.662 9.407-7.307z"/><path fill="#F2E8DF" d="m252.526 303.495-10.321 5.936-13.06-7.58 10.32-5.937z"/><path fill="#FBFFF2" d="m252.526 301.308-9.225 7.489-14.156-5.48 9.224-7.489z"/><path fill="#F2E8DF" d="m252.526 302.76-10.321 5.937-13.06-7.581 10.32-5.936z"/><path fill="#FBFFF2" d="m252.526 302.401-10.321 5.937-13.06-7.581 10.32-5.937z"/><path fill="#F2E8DF" d="m252.526 302.034-10.321 5.936-13.06-7.58 10.32-5.937z"/><path fill="#FBFFF2" d="m252.526 301.667-10.321 5.936-13.06-7.58 10.32-5.937z"/><path fill="#F2E8DF" d="m252.437 302.032-10.595 5.297-12.604-8.311 10.595-5.389z"/><path fill="#FBFFF2" d="m252.526 300.936-10.321 5.937-13.06-7.581 10.32-5.937z"/><path fill="#F2E8DF" d="m252.526 300.577-10.321 5.936-13.06-7.58 10.32-5.937z"/><path fill="#FBFFF2" d="m252.526 300.206-10.321 5.936-13.06-7.58 10.32-5.937z"/><path fill="#F2E8DF" d="m252.526 299.838-10.321 5.937-13.06-7.581 10.32-5.936z"/><path fill="#FBFFF2" d="m252.526 299.475-10.321 5.937-13.06-7.581 10.32-5.936z"/><path fill="#F2E8DF" d="m252.526 299.112-10.321 5.937-13.06-7.581 10.32-5.937z"/><path fill="#FBFFF2" d="m252.526 297.104-9.407 7.307-13.974-5.663 9.407-7.307z"/><path fill="#F2E8DF" d="m252.526 298.381-10.321 5.937-13.06-7.581 10.32-5.936z"/><path fill="#FBFFF2" d="m252.526 298.014-10.321 5.937-13.06-7.581 10.32-5.936z"/><path fill="#C7B299" d="m240.379 305.13-15.344-8.859v-.091l15.253 8.95z"/><path fill="#34424B" d="m240.475 304.661-15.252-8.859 11.69-6.759 15.344 8.859z"/><path fill="#333" d="m240.379 301.741-15.344-8.951 11.873-6.759 15.253 8.86z"/><path fill="#333" d="m240.382 301.744-15.253-8.951v.091c-.274.457-.548 1.005-.548 1.553-.091.731.092 1.461.548 1.827l15.344 8.859c-.456-.365-.639-1.005-.548-1.827-.091-.548.092-1.096.457-1.552"/><path fill="#F2E8DF" d="M226.778 296.726c-.274-.274-.457-.822-.366-1.37 0-.366.183-.731.366-1.005l-1.553-.913c-.183.273-.274.639-.365 1.004-.092.64.091 1.096.365 1.37zM237.552 302.751c-.183-.274-.183-.639-.183-1.096 0-.182.092-.365.092-.548l-8.038-4.658c-.091.183-.091.366-.091.548 0 .457 0 .822.183 1.096z"/><path fill="gray" d="M240.108 303.208c-.092.366 0 .731.091 1.096.091.183.183.366.274.457l11.691-6.759v.366l-11.874 6.85h-.091c-.183-.183-.365-.366-.457-.64-.091-.365-.182-.73-.091-1.096 0-.091 0-.182.091-.365.092-.457.274-.822.548-1.187v-.092l.457-.274 10.321-5.936 1.096-.64v.366l-1.005.548-10.047 5.754-.639.365a2.3 2.3 0 0 0-.365 1.187"/><path fill="#F2E8DF" d="m250.977 295.988-9.864 5.663v2.101l9.864-5.754z"/><path fill="#F2E8DF" d="M241.114 301.656v2.101l-1.005-.639c.092-.366.183-.822.366-1.096z"/><path fill="#fff" d="m241.2 290.783-7.124 4.11-3.928-2.283 7.124-4.11zM233.257 324.407l-9.955 2.557-8.22-7.946 9.955-2.557z"/><path fill="#C7B299" d="m215.262 325.783 15.344-8.951-15.253 8.951z"/><path fill="gray" d="m215.169 325.333 15.252-8.859-11.69-6.759-15.344 8.859z"/><path fill="#333" d="m215.262 322.311 15.344-8.859-11.873-6.85-15.253 8.95z"/><path fill="#333" d="m215.259 322.4 15.253-8.951v.092c.274.456.548 1.004.548 1.552.091.731-.091 1.462-.548 1.827l-15.344 8.859c.457-.365.639-1.004.548-1.826.091-.548-.091-1.096-.457-1.553"/><path fill="#fff" d="M228.871 317.378c.274-.274.457-.822.365-1.37 0-.365-.182-.731-.365-1.005l1.553-.913c.182.274.274.639.365 1.005.091.639-.091 1.096-.365 1.37zM218.098 323.407c.182-.274.182-.639.182-1.096 0-.182-.091-.365-.091-.548l8.037-4.658c.092.183.092.366.092.548 0 .457 0 .822-.183 1.096z"/><path fill="#34424B" d="M215.536 323.767c.092.365 0 .731-.091 1.096-.091.183-.183.365-.274.457l-11.691-6.759v.365l11.874 6.85h.091c.183-.182.365-.365.457-.639.091-.365.182-.731.091-1.096 0-.091 0-.183-.091-.365a2.84 2.84 0 0 0-.548-1.188v-.091l-.457-.274-10.321-5.937-1.096-.639v.365l1.096.64 10.047 5.754.639.365c.092.274.274.639.274 1.096"/><path fill="#F2E8DF" d="m204.668 316.559 9.864 5.754v2.009l-9.864-5.663z"/><path fill="#F2E8DF" d="M214.527 322.312v2.101l1.005-.639c-.091-.365-.183-.822-.365-1.096z"/><path fill="#fff" d="m214.441 311.354 7.124 4.201 3.928-2.283-7.124-4.202z"/><path fill="#AD3814" d="m204.699 312.514 14.157-8.22c.183-.091.365-.091.548.092l-14.157 8.22c-.182-.092-.365-.183-.548-.092M219.404 307.306c-.274-.183-.457-.457-.457-.731v-1.461c0-.183.092-.274.092-.274l-14.157 8.129c-.091.091-.183.182-.183.274v1.552c0 .274.274.731.548.914l10.504 6.028 14.156-8.22z"/><path fill="#AD3814" d="m215.84 321.564 14.157-8.22v.456l-14.157 8.22z"/><path fill="#AD3814" d="M204.889 314.438v.274c0 .274.182.64.456.731l10.504 6.119v.366l-10.504-6.12c-.456-.274-.822-.913-.822-1.37v-1.461c0-.548.366-.731.822-.457l10.504 6.12v.365l-10.504-6.119c-.274-.183-.456 0-.456.274z"/><path fill="#AD3814" d="m215.84 318.729 14.157-8.311v.457l-14.157 8.22z"/><path fill="#FF7847" d="m205.34 312.607 14.065-8.22L230 310.415l-14.157 8.311z"/><path fill="#F2E8DF" d="m215.829 319.115-9.407-5.388v1.644l9.407 5.48v-2.101z"/><path fill="#FBFFF2" d="m215.829 319.115-9.407-5.388v1.644l9.407 5.48v-2.101z"/><path fill="#FBFFF2" d="m228.79 313.356-12.97 7.49v-1.736l12.97-7.489z"/><path fill="#F2E8DF" d="m207.227 310.889 10.32 5.937 13.061-7.581-10.229-5.936z"/><path fill="#FBFFF2" d="m207.324 308.703 10.23 7.672 12.969-7.398-9.133-5.754z"/><path fill="#F2E8DF" d="m207.227 310.155 10.32 5.937 13.061-7.581-10.229-5.937z"/><path fill="#FBFFF2" d="m207.227 309.796 10.32 5.936 13.061-7.58-10.229-5.937z"/><path fill="#F2E8DF" d="m207.227 309.428 10.32 5.937 13.061-7.581-10.229-5.936z"/><path fill="#FBFFF2" d="m207.227 309.061 10.32 5.937 13.061-7.581-10.229-5.937z"/><path fill="#F2E8DF" d="m207.324 309.335 10.23 5.388 12.969-7.58-10.595-6.12z"/><path fill="#FBFFF2" d="m208.418 310.066 11.325 5.023 10.869-8.402-10.229-5.937z"/><path fill="#F2E8DF" d="m207.227 307.971 10.32 5.937 13.061-7.581-10.229-5.936z"/><path fill="#FBFFF2" d="m207.227 307.6 10.32 5.937 13.061-7.581-10.229-5.936z"/><path fill="#F2E8DF" d="m207.227 307.233 10.32 5.937 13.061-7.581-10.229-5.937z"/><path fill="#FBFFF2" d="m207.227 306.778 10.32 6.028 13.061-7.58-10.229-5.937z"/><path fill="#F2E8DF" d="m207.227 306.506 10.32 5.937 13.061-7.581-10.229-5.936z"/><path fill="#FBFFF2" d="m208.324 305.321 8.312 6.484 13.974-7.215-9.316-5.754z"/><path fill="#F2E8DF" d="m207.227 305.776 10.32 5.937 13.061-7.581-10.229-5.937z"/><path fill="#FBFFF2" d="m207.227 305.317 10.32 6.028 13.061-7.58-10.229-5.937z"/><path fill="#fff" d="m197.184 311.624 7.398 5.845 11.051-4.475-7.398-5.846z"/><path fill="#333" d="m158.364 330.79 1.37.822c-.274-.182-.639-.091-1.005.092l-1.37-.822a1.32 1.32 0 0 1 1.005-.092"/><path fill="#333" d="m157.729 335.084-1.37-.822c-.274-.183-.457-.457-.457-.913 0-.914.64-2.01 1.462-2.466l1.37.822c-.822.457-1.462 1.552-1.462 2.466 0 .456.183.822.457.913"/><path fill="#000" d="M158.735 331.716c.822-.457 1.461-.091 1.461.822s-.639 2.009-1.461 2.466-1.462.091-1.462-.822.64-2.009 1.462-2.466"/><path fill="#333" d="m184.505 345.056 1.37.822c-.274-.183-.64-.091-1.005.091l-1.37-.822a1.33 1.33 0 0 1 1.005-.091"/><path fill="#333" d="m183.87 349.35-1.37-.822c-.274-.183-.457-.457-.457-.914 0-.913.639-2.009 1.461-2.466l1.37.822c-.822.457-1.461 1.553-1.461 2.466 0 .457.183.822.457.914"/><path fill="#000" d="M184.864 345.982c.822-.457 1.461-.092 1.461.822s-.639 2.009-1.461 2.466c-.822.456-1.462.091-1.462-.822 0-.914.64-2.01 1.462-2.466"/><path fill="#333" d="m164.762 350.818 1.37.822c-.274-.182-.639-.091-1.004.092l-1.37-.822c.365-.183.73-.274 1.004-.092"/><path fill="#333" d="m164.124 355.111-1.37-.822c-.274-.182-.457-.456-.457-.913 0-.913.639-2.009 1.461-2.466l1.37.822c-.822.457-1.461 1.553-1.461 2.466 0 .457.183.731.457.913"/><path fill="#000" d="M165.137 351.732c.822-.457 1.461-.092 1.461.822s-.639 2.009-1.461 2.466c-.822.456-1.461.091-1.461-.822 0-.914.639-2.01 1.461-2.466"/><path fill="#333" d="m148.403 342.584 1.37.822c-.274-.182-.639-.091-1.005.092l-1.37-.822c.366-.274.731-.274 1.005-.092M147.678 346.881l-1.37-.822c-.274-.183-.456-.457-.456-.913 0-.914.639-2.01 1.461-2.466l1.37.822c-.822.456-1.461 1.552-1.461 2.466.091.365.182.73.456.913"/><path fill="#000" d="M148.684 343.404c.822-.457 1.461-.092 1.461.822s-.639 2.009-1.461 2.466c-.822.456-1.461.091-1.461-.822.091-.914.73-2.01 1.461-2.466"/><path fill="#333" d="m180.298 332.626 1.37.822c-.274-.182-.64-.091-1.005.092l-1.37-.822c.457-.183.822-.183 1.005-.092"/><path fill="#333" d="m179.663 336.912-1.37-.822c-.274-.182-.457-.456-.457-.913 0-.913.639-2.009 1.461-2.466l1.37.822c-.822.457-1.461 1.553-1.461 2.466.091.457.183.731.457.913"/><path fill="#000" d="M180.661 333.548c.822-.457 1.461-.091 1.461.822s-.639 2.009-1.461 2.466-1.462.091-1.462-.822c.092-.913.731-2.009 1.462-2.466"/><path fill="#B3B3B3" d="m166.405 336.278-1.826 1.644-1.37 1.279-6.576-7.763c0-.366 0-.64.274-.731.091-.091.182-.091.274-.183l1.004-.365c.183-.091.366 0 .548.091z"/><path fill="#666" d="m164.855 338.109-1.552 1.005-6.576-7.763c0-.366 0-.64.274-.731.091-.091.274 0 .456.091l7.216 7.124z"/><path fill="#B3B3B3" d="m181.2 333.267-11.6 7.763-.365.183-.274-1.462-.274-1.278-.457-1.918 10.869-4.658q.411-.138.822 0l.822.456c.091 0 .091.092.183.092q.273.137.274.822"/><path fill="#666" d="m181.202 333.259-11.599 7.764-.639-1.279-.64-1.096.274-.182 11.6-5.937c.182-.091.456-.091.548-.091.365.091.456.365.456.821"/><path fill="#666" d="M170.341 341.396v-3.654h-6.759v3.654c0 .456.365 1.004 1.005 1.37 1.278.73 3.47.73 4.749 0 .639-.457 1.005-.914 1.005-1.37"/><path fill="#B3B3B3" d="M166.961 339.563c1.867 0 3.38-.859 3.38-1.918 0-1.06-1.513-1.918-3.38-1.918s-3.379.858-3.379 1.918c0 1.059 1.513 1.918 3.379 1.918M165.038 340.113l-1.279 10.321c-.091.731-.091 1.553-.091 2.375l1.461.091 3.014-9.955v-2.649c-1.096.274-2.1.274-3.105-.183"/><path fill="#666" d="M165.129 352.899c0-.913.091-1.735.274-2.374l2.74-10.138v2.648z"/><path fill="#B3B3B3" d="M169.055 340.111v2.74l15.618 3.836.639-.73c.091-.914-.457-1.462-1.279-1.827l-13.791-5.571c.091.639-.365 1.187-1.187 1.552"/><path fill="#666" d="M184.678 346.691c0-.822-.457-1.462-1.279-1.827l-14.43-4.841v2.74z"/><path fill="#B3B3B3" d="m147.411 343.958 16.805-1.462v-2.74c-.639-.456-.731-1.096-.639-1.826l-15.07 3.47c-.822.183-1.37.64-1.37 1.553z"/><path fill="#666" d="m164.219 342.49-16.805 1.461c0-.913.548-1.461 1.461-1.552l15.344-2.649z"/><path fill="#333" d="M156.636 328.698c-.274 0-.639 0-.913-.092l.365-2.283c1.005.183 2.283-.183 3.653-.913l12.878-7.398 1.096 2.009-12.878 7.398c-1.461.822-2.922 1.279-4.201 1.279"/><path fill="#E6E6E6" d="m165.493 328.796.274-.274c.73-.456 1.918-.456 2.648 0l.274.274h.274v8.768c0 .274-.182.548-.548.731-.73.457-1.918.457-2.648 0-.366-.183-.548-.457-.548-.731v-8.768z"/><path fill="#4D4D4D" d="M167.051 328.336c1.463 0 2.649-.695 2.649-1.553 0-.857-1.186-1.553-2.649-1.553s-2.649.696-2.649 1.553c0 .858 1.186 1.553 2.649 1.553"/><path fill="#333" d="M163.668 318.111c.365-.365 1.004-.731 1.826-.913 1.005-.274 2.101-.274 3.197 0 .822.182 1.37.548 1.827.913h.456v9.407c0 .822-.73 1.553-2.192 2.01a5.35 5.35 0 0 1-3.379 0c-1.461-.457-2.192-1.188-2.192-2.01v-9.407z"/><path fill="#4D4D4D" d="M165.403 316.006c-2.923.822-2.923 3.197 0 4.019a5.35 5.35 0 0 0 3.379 0c2.923-.822 2.923-3.197 0-4.019a7.05 7.05 0 0 0-3.379 0"/><path fill="#34424B" d="M181.29 318.929v-4.019h-1.826c-.64-.639-1.37-1.187-2.375-1.735-5.571-3.197-14.613-3.197-20.185 0-.913.548-1.735 1.096-2.374 1.735h-1.827v4.019c0 2.101 1.37 4.201 4.201 5.845 5.572 3.197 14.614 3.197 20.185 0 2.831-1.644 4.201-3.744 4.201-5.845"/><path fill="#34424B" d="M167.049 323.124c7.869 0 14.248-3.681 14.248-8.22s-6.379-8.22-14.248-8.22-14.248 3.68-14.248 8.22c0 4.539 6.379 8.22 14.248 8.22"/><path fill="#B3B3B3" d="M177.097 322.943c-5.571 3.197-14.613 3.197-20.185 0-2.74-1.644-4.201-3.745-4.201-5.845v1.735c0 2.101 1.37 4.201 4.201 5.845 5.572 3.197 14.614 3.197 20.185 0 2.74-1.644 4.201-3.744 4.201-5.845v-1.735c0 2.192-1.37 4.292-4.201 5.845M160.564 306.318l-6.393-5.024-6.941-3.196-1.005.639c-.639.365-1.096 1.187-1.096 2.375v1.826c0 2.375 1.644 5.298 3.745 6.485l8.768 5.115c1.004.639 2.009.639 2.648.274l.822-.457.731-2.831z"/><path fill="#34424B" d="m154.17 301.295 6.394 5.023 1.278 5.024-.73 2.831 2.1-1.187c.64-.366 1.096-1.188 1.096-2.375v-1.827c0-2.374-1.644-5.297-3.744-6.484l-8.768-5.115c-1.005-.639-2.01-.639-2.649-.274l-1.827 1.096z"/><path fill="#34424B" d="M158.649 303.395c2.101 1.187 3.745 4.11 3.745 6.484v1.827c0 2.375-1.735 3.379-3.745 2.192l-8.768-5.115c-2.1-1.187-3.744-4.11-3.744-6.484v-1.827c0-2.375 1.735-3.379 3.744-2.101z"/><path fill="#B3B3B3" d="M158.649 303.395c2.101 1.187 3.745 4.11 3.745 6.484v1.827c0 2.375-1.735 3.379-3.745 2.192l-8.768-5.115c-2.1-1.187-3.744-4.11-3.744-6.484v-1.827c0-2.375 1.735-3.379 3.744-2.101z"/><path fill="gray" d="M157.642 303.95c2.1 1.187 3.744 4.11 3.744 6.484v1.827c0 2.375-1.735 3.379-3.744 2.192l-8.768-5.115c-2.101-1.187-3.745-4.11-3.745-6.484v-1.827c0-2.375 1.735-3.379 3.745-2.101z"/><path fill="#333" d="M155.716 328.602c-2.374-.365-3.927-2.466-3.927-5.297v-17.627c0-.548.639-.914 1.096-.64l.365.274c.457.274.822.822.822 1.37v16.623c0 1.005.274 2.74 2.01 3.105z"/><path fill="#97B9CF" d="m163.391 249.703-16.44 9.682c-1.187.73-3.105.73-4.292 0l-20.276-11.6c-1.188-.731-1.188-1.826 0-2.466l16.44-9.681c1.187-.731 3.105-.731 4.292 0l20.185 11.69c1.279.64 1.279 1.736.091 2.375M193.991 232.63l-16.44 9.682c-1.187.73-3.105.73-4.292 0l-20.185-11.691c-1.187-.731-1.187-1.827 0-2.466l16.44-9.681c1.187-.731 3.105-.731 4.293 0l20.184 11.69c1.188.731 1.188 1.827 0 2.466" opacity=".5"/><path fill="#B3B3B3" d="M155.447 229.057c3.288-14.705 3.288-14.796 3.288-14.888h-1.553.822l-.822-.091c-.091.457-2.009 9.042-3.288 14.705-.274.639 1.37 1.004 1.553.274M174.899 241.11c.092.64 1.553.64 1.553-.182l-1.735-18.084-1.553.182zM192.071 231.161c.092.822 1.736.731 1.553-.182l-1.735-18.084-1.553.182z"/><path fill="#34424B" d="M153.07 191.245v.091c.091 1.644 1.461 19.545 1.552 21.463.092 1.918 1.461 2.558 1.461 2.558s16.806 9.681 17.902 10.32 1.644.274 1.644.274l17.262-9.772c2.009-1.188 1.918-3.197 1.918-3.197v-1.461c0-3.654-3.288-5.663-3.288-5.663s-10.595-6.85-11.873-7.672c-.366-.274-.64-.548-.914-.822-.456-.548-.548-1.005-.548-1.005-.182-.913-3.014-14.613-3.196-15.526-.092-.548-.275-.914-.366-1.096l-.091-.183c-1.096-1.005-3.288-.183-3.288-.183s-16.349 9.408-17.353 10.047c-1.096.639-.822 1.827-.822 1.827"/><path fill="#889099" d="m193.168 213.256-17.262 9.955s.456-3.745-2.649-5.845c-3.105-2.101-9.773-6.394-9.773-6.394l14.522-8.128z"/><path fill="#6D7983" d="m154.806 192.796 3.38 16.349 1.461-.913 3.836 2.74 14.522-8.129-1.005-4.567 1.736-.913c-.457-.548-.548-1.005-.548-1.005-.183-.913-3.014-14.613-3.197-15.526-.091-.548-.731-.914-1.279-.548l-18.084 10.503c-.639.365-.913 1.187-.822 2.009"/><path fill="#B3B3B3" d="M124.302 246.51c3.288-14.705 3.288-14.796 3.288-14.887h-1.553.822l-.822-.092c-.091.457-2.009 9.042-3.288 14.705-.274.639 1.37 1.005 1.553.274M143.755 258.564c.091.639 1.553.639 1.553-.183l-1.736-18.084-1.552.183zM160.927 248.614c.091.822 1.735.731 1.552-.182l-1.735-18.084-1.553.182z"/><path fill="#34424B" d="M121.925 208.698v.091c.091 1.644 1.461 19.545 1.553 21.463s1.461 2.558 1.461 2.558 16.805 9.681 17.901 10.321c1.096.639 1.644.273 1.644.273l17.262-9.772c2.01-1.188 1.918-3.197 1.918-3.197v-1.461c0-3.654-3.288-5.663-3.288-5.663s-10.594-6.85-11.873-7.672c-.365-.274-.639-.548-.913-.822-.457-.548-.548-1.005-.548-1.005-.183-.913-3.014-14.613-3.197-15.526-.091-.548-.274-.914-.365-1.096l-.092-.183c-1.096-1.005-3.288-.183-3.288-.183s-16.348 9.408-17.353 10.047c-1.096.639-.822 1.827-.822 1.827"/><path fill="#889099" d="m162.023 230.709-17.262 9.955s.457-3.744-2.648-5.845-9.773-6.393-9.773-6.393l14.522-8.129z"/><path fill="#6D7983" d="m123.662 210.25 3.38 16.348 1.461-.913 3.836 2.74 14.522-8.129-1.005-4.566 1.736-.914c-.457-.548-.548-1.004-.548-1.004-.183-.914-3.014-14.614-3.197-15.527-.091-.548-.731-.913-1.279-.548l-17.992 10.503c-.64.457-1.005 1.188-.914 2.01"/><path fill="#97B9CF" d="m89.223 272.078-26.121 14.979 30.14 17.444 25.756-15.252z" opacity=".5"/></svg>