<svg xmlns="http://www.w3.org/2000/svg" width="171" height="40" fill="none"><path fill="#4A6693" d="M70.359 35.961c-.141.21-.317.383-.458.592-1.162 1.53-2.605 2.608-4.541 2.922-3.38.59-5.984-1.079-6.724-4.279-1.232-5.252 1.62-12.104 8.73-13.53 2.71-.557 5.386-.279 8.026.521.247.07.88.383.986.453l-.422 2.956c-.353 2.435-.74 4.87-1.092 7.34-.07.59-.07 1.217.035 1.808.177.94.845 1.357 1.796 1.148a3.604 3.604 0 0 0 1.83-.974 5.84 5.84 0 0 0 1.444-2.157c.774-1.878.985-3.86.88-5.843-.07-1.53-.388-2.991-1.056-4.383-1.409-2.99-3.802-4.904-7.006-5.704-4.646-1.183-8.976-.452-12.813 2.47-2.992 2.295-4.647 5.39-5.315 9.008-.493 2.713-.458 5.392.387 8.035.246.8.633 1.565.986 2.365.07.174.176.348.281.557H52.3c-.457 0-.669-.174-.845-.557-.669-1.6-1.091-3.304-1.197-5.008-.316-4.557.67-8.8 3.274-12.592 2.922-4.243 6.935-6.817 12.04-7.791 3.484-.66 6.898-.522 10.207.8 5.21 2.087 8.273 5.913 9.047 11.443.423 2.992.036 5.913-1.302 8.627-1.127 2.33-2.887 4.034-5.386 4.87-1.408.486-2.887.625-4.365.347-1.549-.313-2.534-1.252-3.027-2.713a6.949 6.949 0 0 0-.247-.8c-.035.07-.105.07-.14.07Zm.105-10.017c-.246-.07-.458-.14-.634-.14-1.548-.173-2.816.349-3.872 1.462-1.02 1.078-1.549 2.365-1.76 3.826-.14.87-.14 1.739.141 2.574.387 1.148 1.478 1.67 2.64 1.287.599-.209 1.056-.592 1.479-1.079.633-.765 1.02-1.634 1.232-2.573.14-.73.246-1.461.352-2.192.14-1.078.281-2.087.422-3.165ZM152.661 35.822c.105-.278.246-.521.352-.8 1.619-3.791 3.238-7.617 4.857-11.408.528-1.253 1.479-1.844 2.817-1.913a5.152 5.152 0 0 1 1.267.034c1.126.174 1.936.8 2.358 1.879.88 2.087 1.76 4.174 2.676 6.295l3.696 8.766c.105.243.211.486.317.8h-5.14c-1.584-3.93-3.133-7.827-4.682-11.757h-.14c-.106.209-.212.383-.282.591-1.232 3.096-2.464 6.192-3.696 9.253l-.775 1.913h-7.392c-.07-.14-.176-.383-.282-.592-.387-.939-.809-1.843-1.126-2.782-.176-.453-.422-.592-.88-.557-1.725.035-3.45 0-5.175 0-.668 0-.668 0-.915.591l-1.056 2.61-.317.73h-5.069c.106-.279.176-.488.247-.696 1.795-4.244 3.59-8.452 5.35-12.696.317-.73.599-1.46.915-2.191.634-1.496 1.725-2.261 3.38-2.226 1.76.035 2.781.66 3.485 2.296 1.584 3.721 3.133 7.408 4.717 11.13l.317.73h.176Zm-6.97-4.348c-.528-1.39-1.021-2.678-1.69-3.965-.669 1.287-1.197 2.574-1.69 3.965h3.38Z"/><path fill="#B14F46" d="M29.428 12.995c-.05.151-.076.252-.101.328-.28.885-.128 1.719.432 2.426.941 1.239 2.213 1.997 3.765 2.199 1.501.202 2.875-.177 4.173-.91.534-.303 1.017-.707 1.526-1.061l.382-.303c.738 1.87.687 7.379-.077 9.022a3.08 3.08 0 0 1-.254-.354c-1.348-1.82-3.027-3.26-5.012-4.372-1.5-.834-3.13-1.29-4.86-1.188-.152 0-.304 0-.432.025-.457.152-.814 0-1.195-.278-1.196-.834-2.315-1.744-3.308-2.805-.686-.758-1.272-1.592-1.679-2.527-.712-1.592-.84-3.21-.178-4.827 1.145-2.881 3.104-5.08 6.004-6.293 3.206-1.34 6.157-.682 8.701 1.668a7.707 7.707 0 0 1 1.806 2.502c.814 1.845.738 3.64-.254 5.408-.738 1.29-1.78 2.275-3.078 2.982-.611.354-1.272.556-2.01.531-.382-.025-.713-.126-.992-.404-.23-.228-.28-.43-.077-.683.28-.328.61-.657.967-.91 1.476-1.111 2.951-2.173 4.427-3.26.509-.379.56-.43.28-.985-1.018-2.072-2.468-3.74-4.656-4.65-3.333-1.39-6.87.177-8.548 2.704-1.705 2.603-.051 5.08 2.264 5.787.458.127.941.152 1.425.202.152.05.33.026.56.026ZM10.72 27.085c.026-.1.026-.151.051-.227.383-1.012.179-1.922-.51-2.73-1.375-1.619-3.133-2.301-5.248-2.023-1.58.202-2.905.935-4.102 1.947-.128.1-.23.202-.357.303-.739-1.239-.739-6.624 0-9.05.102.151.204.252.306.379a16.03 16.03 0 0 0 4.968 4.348c1.784.986 3.72 1.441 5.759 1.138.127-.026.28.025.408.1 1.554 1.012 2.98 2.15 4.127 3.59.51.633.917 1.29 1.249 2.023.688 1.568.79 3.16.178 4.728-1.147 2.907-3.134 5.132-6.039 6.345-4.382 1.845-8.79-.43-10.548-4.222-.433-.885-.586-1.845-.51-2.831.051-.733.23-1.416.56-2.048.79-1.567 1.988-2.756 3.542-3.565.637-.328 1.3-.505 2.039-.379.102.025.23.05.331.101.713.278.79.683.28 1.214a5.637 5.637 0 0 1-.84.708l-4.434 3.26c-.382.279-.433.355-.255.76 1.198 2.553 2.981 4.449 5.835 5.157 1.121.278 2.242.227 3.363-.102 1.427-.404 2.625-1.213 3.619-2.325.382-.43.687-.91.891-1.467.51-1.39.28-2.629-.713-3.716-.918-.986-2.064-1.466-3.414-1.441-.153.025-.332.025-.536.025Z"/><path fill="#4A6693" d="M24.45 39.51c-3.005.666-5.932.666-8.962-.076.204-.154.331-.256.459-.358 2.01-1.587 3.64-3.505 4.684-5.885.687-1.535.916-3.172.687-4.86a.62.62 0 0 1 .102-.435c1.07-1.663 2.291-3.198 3.895-4.4 1.07-.819 2.266-1.382 3.615-1.535a5.561 5.561 0 0 1 2.953.409c2.954 1.28 5.22 3.326 6.34 6.421 1.603 4.452-.866 8.647-4.481 10.259-1.757.793-3.513.64-5.194-.333a7.474 7.474 0 0 1-2.978-3.12c-.23-.436-.382-.947-.51-1.459a1.838 1.838 0 0 1 .23-1.356c.254-.435.534-.486.89-.153.306.281.586.588.84.92 1.121 1.484 2.19 2.994 3.31 4.503.306.41.382.46.79.256 2.444-1.151 4.353-2.865 5.091-5.551.739-2.687-.05-5.04-1.934-7.036-.688-.716-1.503-1.253-2.47-1.483-.993-.23-1.91-.026-2.724.562-1.197.87-1.833 2.072-1.884 3.556v.742c-.153-.025-.255-.025-.356-.076-.866-.282-1.655-.103-2.368.409-1.273.946-2.037 2.226-2.266 3.837-.254 1.74.28 3.3 1.197 4.759.28.511.662.946 1.044 1.483ZM12.961 10.632c.28.05.51.125.738.15.789.1 1.527-.1 2.138-.602 1.45-1.204 2.213-2.759 2.137-4.64-.05-1.756-.84-3.26-1.934-4.59-.127-.15-.229-.276-.407-.476 3.028-.652 5.955-.627 9.008.05-.203.15-.33.25-.432.351-2.01 1.555-3.614 3.411-4.683 5.718-.687 1.505-.966 3.11-.738 4.74.026.252 0 .427-.152.628-.814 1.204-1.73 2.357-2.8 3.36-.763.703-1.603 1.305-2.544 1.756-1.68.778-3.41.903-5.09.2-2.824-1.178-5.012-3.11-6.183-5.943C.263 7.07 2.477 2.73 6.294 1c1.96-.877 3.894-.652 5.675.527a8.123 8.123 0 0 1 2.468 2.609c.33.551.56 1.128.636 1.78.051.452-.025.878-.28 1.254-.254.351-.483.402-.788.126a5.978 5.978 0 0 1-.866-.928c-1.12-1.455-2.188-2.935-3.308-4.414-.305-.402-.407-.452-.84-.251-2.468 1.153-4.35 2.859-5.089 5.568-.84 3.06.764 6.195 3.054 7.624 2.672 1.706 5.165-.075 5.827-2.282.127-.426.153-.903.204-1.354 0-.251-.026-.427-.026-.627ZM125.309 33.874v5.6h-4.858V24.97c0-1.808 1.091-3.095 3.098-3.13h8.343c1.267 0 2.464.382 3.379 1.322a4.287 4.287 0 0 1 1.091 2.086c.387 1.81.423 3.618-.035 5.392-.528 1.982-2.006 3.2-4.083 3.27-2.112-.035-5.421-.035-6.935-.035Zm.035-4.243h5.175c.633 0 1.056-.452 1.056-.904.035-.557 0-1.322 0-1.809 0-.487-.387-.904-1.056-.904h-5.175v3.617ZM104.997 35.37v4.105H93.803a7.638 7.638 0 0 1-2.148-.314c-2.499-.73-3.872-2.47-4.435-4.904-.176-.765-.246-1.565-.282-2.33-.07-1.496-.07-3.026.247-4.522.633-3.165 2.78-5.113 6.02-5.426.668-.07 1.302-.104 1.97-.104h6.689v4.139c-.317 0-4.013.034-5.597.07-.634 0-1.232.034-1.866.104-1.126.104-1.936.695-2.253 1.808-.352 1.218-.422 2.505-.352 3.757.035.522.106 1.043.211 1.565.247 1.217.915 1.809 2.148 1.983.598.07 1.232.139 1.83.139 2.746-.07 8.66-.07 9.012-.07ZM118.832 21.805v4.174h-5.21v13.46H108.8V25.98h-5.245v-4.174h15.277ZM20.154 14.957c1.267 2.09 2.939 3.689 4.84 5.133-2.028 1.29-3.599 2.993-5.018 4.954-1.267-2.09-2.914-3.69-4.84-5.134 2.028-1.264 3.599-2.967 5.018-4.954Z"/><path fill="#B14F46" d="M33.793 8.2a62.096 62.096 0 0 1-2.162 1.685c-.364.28-.802.485-1.263.536-.316.025-.656.025-.948-.077-.51-.179-.68-.715-.461-1.2.048-.101.097-.204.17-.28.801-.995 1.773-1.608 3.037-1.557.656 0 1.19.281 1.627.893ZM6.336 31.795c.806-.583 1.587-1.165 2.393-1.723.572-.38 1.222-.582 1.95-.481.209.025.443.127.625.253.312.228.39.583.234.938-.026.05-.052.127-.078.177-.65 1.165-2.497 1.976-3.824 1.672a1.983 1.983 0 0 1-1.3-.836Z"/><path fill="#4A6693" d="M31.98 33.74c-.094-.105-.165-.184-.236-.288-.377-.55-.777-1.125-1.154-1.7-.33-.497-.589-1.072-.66-1.7-.023-.314 0-.654.071-.968.142-.523.636-.706 1.084-.444.47.288.8.706 1.083 1.203.448.81.707 1.7.495 2.667-.07.497-.283.915-.683 1.23ZM8.282 6.26c.053.08.132.133.185.213.448.608.923 1.217 1.371 1.826.396.53.66 1.112.712 1.774.027.238 0 .476-.052.688-.132.636-.739.9-1.293.583-.58-.318-.975-.821-1.292-1.404-.448-.794-.66-1.667-.422-2.594.132-.45.37-.794.791-1.085Z"/></svg>