<svg xmlns="http://www.w3.org/2000/svg" width="282" height="40" fill="none"><g clip-path="url(#a)"><path fill="#00A421" d="m117.572 13 5.429-4h-18.286v24.286h18.428v-4h-13.142V23h11.142v-4h-11.142v-6h7.571ZM90 29.143h-5.43v-6.714H90c3.285 0 4.857 1.142 4.857 3.428 0 2.143-1.715 3.286-4.858 3.286Zm.857-10.714h-6.429V13h10.143l5.428-4H79.285v24.286h11c6.143 0 9.714-2.715 9.714-7.572-.142-4.714-3.285-7.285-9.142-7.285ZM137.857 22.286h-4.714V13h4.714c3.429 0 5.143 1.714 5.143 4.714.143 3-1.714 4.715-5.143 4.572ZM138 9h-10v24.286h5.286v-6.858H138c6.429 0 10.429-3.428 10.429-8.714C148.286 12.286 144.286 8.857 138 9ZM70.287 28c-1.429.714-3 1.143-4.572 1.143-1.143 0-2.143-.143-3.143-.572-1-.428-1.857-1-2.714-1.714-.714-.714-1.428-1.714-1.714-2.714-.429-1-.572-2-.572-3.143 0-1.143.143-2.143.572-3.143.428-1 1-1.857 1.714-2.714.714-.715 1.714-1.286 2.714-1.715 1-.428 2.143-.571 3.143-.571 1.715 0 3.286.572 4.715 1.429l3.857-2.857-.286-.286C71.572 9.57 68.572 8.57 65.572 8.57c-3.428-.143-6.714 1.143-9.285 3.429-1.143 1.143-2.143 2.571-2.715 4-.571 1.571-1 3.143-.857 4.857 0 1.714.286 3.286.857 4.857.572 1.572 1.572 3 2.715 4.143 2.571 2.286 5.857 3.572 9.285 3.572 1.715 0 3.429-.286 5-.858 1.572-.571 3-1.571 4.286-2.857l-3.428-2.428-1.143.714Z"/><path fill="#003B85" d="M165.001 33.286h-4.286V9h4.286v10.286h3.714L176.572 9h5.286l-9.286 11.571 10.714 12.715h-5.571l-8.857-10.572h-3.857v10.572ZM183 21c0-1.714.286-3.428.857-5 .572-1.428 1.429-2.857 2.572-4 1.142-1.143 2.571-2 4.142-2.571 1.715-.572 3.572-1 5.429-.857a16.4 16.4 0 0 1 5.286.857c1.571.571 3 1.428 4.143 2.428 1.142 1.143 2.142 2.429 2.714 4 .714 1.715 1 3.429 1 5.286 0 1.714-.286 3.428-.857 5-.572 1.428-1.429 2.857-2.572 4-1.143 1.143-2.571 2-4.143 2.571-1.714.572-3.571 1-5.428.858-1.857 0-3.572-.286-5.286-.858-1.571-.571-3-1.428-4.143-2.428-1.143-1.143-2-2.429-2.714-4-.714-1.715-1.143-3.429-1-5.286Zm4.571 0c0 1.143.143 2.286.572 3.286.286 1 .857 2 1.571 2.857.715.714 1.715 1.428 2.715 1.857 1.142.429 2.428.714 3.714.714 1.143 0 2.428-.142 3.571-.571 1-.429 1.857-1 2.715-1.714.714-.715 1.285-1.715 1.714-2.715.428-1.142.571-2.285.571-3.428 0-1.143-.143-2.286-.571-3.286-.286-1-.857-1.857-1.572-2.714-.714-.857-1.714-1.429-2.714-1.857-1.143-.429-2.428-.715-3.714-.715-1.143 0-2.429.143-3.572.572-1 .428-1.857 1-2.714 1.714-.714.714-1.286 1.714-1.714 2.714-.429 1-.572 2.143-.572 3.286ZM218.001 25.714v7.572h-4.286V9h8.143c3.857 0 6.571.714 8.428 2 .857.714 1.572 1.714 2 2.714.429 1.143.715 2.286.572 3.429.143 1.143-.143 2.429-.572 3.571-.428 1.143-1.285 2.143-2.143 2.858-1.857 1.428-4.571 2.142-8.142 2.142h-4Zm0-12.857v8.715h4c1.571.142 3.142-.286 4.571-1 .571-.429 1-1 1.143-1.572a3.146 3.146 0 0 0 .286-2c0-.571 0-1.286-.286-1.857s-.714-1-1.143-1.429c-1.429-.714-3-1-4.571-1l-4 .143ZM242.999 29.429c.428 0 .857-.143 1.143-.286.428-.286.714-.714 1-1.143L234.57 9h5l7.857 14.143L253.856 9h4.571l-9 19.286c-.428.857-.857 1.857-1.428 2.571-.429.572-.857 1.143-1.429 1.572-.428.428-1 .714-1.571.857-.572.143-1.143.286-1.714.286-.572 0-1 0-1.572-.143-.428-.143-.857-.286-1.143-.429v-4.428c.286.285.715.571 1.143.714.286 0 .714.143 1.286.143ZM281.43 30.571c-.429.429-.857.857-1.286 1.143-.571.429-1.286.715-2 1-.857.286-1.571.572-2.429.715-1 .142-2 .285-3 .285-1.857 0-3.714-.285-5.428-.857-1.572-.571-3-1.428-4.143-2.428-1.143-1.143-2.143-2.43-2.714-4-.715-1.715-1-3.43-1-5.286 0-1.715.285-3.429 1-5 .571-1.429 1.571-2.857 2.714-4 1.143-1.143 2.571-2 4.143-2.572 1.714-.571 3.571-1 5.428-.857 1.715 0 3.286.143 5 .714 1.143.286 2.143.858 3.143 1.43v6c-.428-.572-.857-1.144-1.428-1.572a9.192 9.192 0 0 0-1.857-1.429c-.715-.428-1.429-.714-2.286-1a8.089 8.089 0 0 0-2.572-.428c-1.142 0-2.428.142-3.571.57-1 .43-2 1-2.714 1.715-.715.714-1.429 1.714-1.715 2.714-.428 1.143-.571 2.286-.571 3.572 0 1.143.143 2.286.571 3.286.286 1 .858 1.857 1.572 2.714.714.857 1.714 1.428 2.714 1.857 1.143.429 2.429.714 3.714.714 1.858 0 3.715-.428 5.429-1.285a9.165 9.165 0 0 0 1.857-1.429c.572-.571 1-1.143 1.429-1.714v5.428Z"/><path fill="url(#b)" d="M5.286 20.714V20l-4.571-.286v1c0 5.429 2.143 10.286 5.857 13.858l3.286-3.143C7 28.572 5.286 24.714 5.286 20.714Z"/><path fill="url(#c)" d="M20.43 5.572h.714l.286-4.43h-1C15 1.143 10 3.287 6.43 6.858L9.715 10A15.237 15.237 0 0 1 20.43 5.572Z"/><path fill="url(#d)" d="M20.43 35.714h-.715l-.285 4.572h1c5.428 0 10.428-2.143 14-5.715l-3.286-3.142c-2.714 2.57-6.429 4.285-10.714 4.285Z"/><path fill="url(#e)" d="m29.001 8.286 3.857-2.857C29.43 2.714 25.144 1.143 20.43 1.143v4.571c3.285-.142 6.143.858 8.571 2.572Z"/><path fill="#21A038" d="M39.855 17.143c.143 1.143.286 2.286.286 3.428 0 5.572-2.286 10.572-6.143 14.143l-.429.429-3-3.286c3.143-2.714 5-6.714 5-11.143v-.285l4.286-3.286ZM36.283 8.57c1 1.143 1.715 2.572 2.43 3.858l-18 13.285L13.14 21v-5.714L20.712 20 36.283 8.571Z"/><path fill="url(#f)" d="M20.43 35.714c-4.43 0-8.43-1.857-11.287-5l-3.428 3c3.571 4 8.857 6.429 14.714 6.429v-4.429Z"/><path fill="url(#g)" d="M10.285 9.571 7.142 6.143C3.142 9.714.57 14.857.57 20.57h4.572c.143-4.285 2-8.285 5.143-11Z"/></g><defs><linearGradient id="b" x1="7.237" x2="2.682" y1="33.467" y2="20.127" gradientUnits="userSpaceOnUse"><stop offset=".144" stop-color="#F2E913"/><stop offset=".304" stop-color="#E7E518"/><stop offset=".582" stop-color="#CADB26"/><stop offset=".891" stop-color="#A3CD39"/></linearGradient><linearGradient id="c" x1="8.281" x2="20.015" y1="7.534" y2="3.004" gradientUnits="userSpaceOnUse"><stop offset=".059" stop-color="#0FA8E0"/><stop offset=".538" stop-color="#0099F9"/><stop offset=".923" stop-color="#0291EB"/></linearGradient><linearGradient id="d" x1="19.435" x2="33.481" y1="37.429" y2="34.212" gradientUnits="userSpaceOnUse"><stop offset=".123" stop-color="#A3CD39"/><stop offset=".285" stop-color="#86C339"/><stop offset=".869" stop-color="#21A038"/></linearGradient><linearGradient id="e" x1="19.919" x2="31.574" y1="2.736" y2="6.379" gradientUnits="userSpaceOnUse"><stop offset=".057" stop-color="#0291EB"/><stop offset=".79" stop-color="#0C8ACB"/></linearGradient><linearGradient id="f" x1="7.41" x2="19.903" y1="33.313" y2="38.042" gradientUnits="userSpaceOnUse"><stop offset=".132" stop-color="#F2E913"/><stop offset=".298" stop-color="#EBE716"/><stop offset=".531" stop-color="#D9E01F"/><stop offset=".802" stop-color="#BBD62D"/><stop offset=".983" stop-color="#A3CD39"/></linearGradient><linearGradient id="g" x1="2.709" x2="7.639" y1="20.646" y2="7.651" gradientUnits="userSpaceOnUse"><stop offset=".07" stop-color="#A3CD39"/><stop offset=".26" stop-color="#81C55F"/><stop offset=".922" stop-color="#0FA8E0"/></linearGradient><clipPath id="a"><path fill="#fff" d="M0 0h281.429v40H0z"/></clipPath></defs></svg>