<svg xmlns="http://www.w3.org/2000/svg" width="159" height="40" fill="none"><g clip-path="url(#a)"><g clip-path="url(#b)"><g clip-path="url(#c)"><rect width="40" height="40" fill="#00CCAE" rx="10"/></g><path fill="#fff" d="M12.773 9.109a3.125 3.125 0 0 1 2.995-2.234h12.357c1.726 0 3.125 1.4 3.125 3.125v20c0 1.726-1.4 3.125-3.125 3.125H9.815a3.125 3.125 0 0 1-2.995-4.016l5.953-20Z"/><path stroke="#222" stroke-linecap="round" stroke-linejoin="round" stroke-width="1.375" d="M18.438 12.813h5.937c.345 0 .625.28.625.624v11.876"/><path stroke="#222" stroke-linecap="round" stroke-linejoin="round" stroke-width="1.375" d="m14.105 28.438-.853-2.72a.313.313 0 0 1 .298-.405h13.524c.211 0 .362.204.299.405l-.853 2.72M15.313 20.938h5.937M16.25 17.188h5"/></g><path fill="#222" d="M54.95 8.7h14.76V27h2.61v7.44h-3.48V30H54.11v4.44h-3.48V27h1.86c.66-.96 1.22-2.21 1.68-3.75.46-1.54.7-3.7.72-6.48l.06-8.07ZM56.18 27h9.99V11.7h-7.92l-.06 5.19c-.02 2.86-.23 5.05-.63 6.57-.36 1.54-.82 2.72-1.38 3.54Zm29.347-12.06h3.6V30h-3.09v-5.52c0-2.86.04-4.96.12-6.3-1.46 2.48-2.48 4.2-3.06 5.16L78.987 30h-3.6V14.94h3.06v5.82c0 2.2-.03 4.19-.09 5.97 1.1-1.96 2.11-3.68 3.03-5.16l4.14-6.63Zm20.098 4.77V30h-2.97v-1.71c-1 1.46-2.66 2.19-4.98 2.19-1.62 0-2.93-.36-3.93-1.08-.98-.72-1.47-1.78-1.47-3.18 0-1.58.59-2.75 1.77-3.51 1.22-.8 2.88-1.39 4.98-1.77l3.45-.63v-.54c0-.82-.28-1.45-.84-1.89-.56-.46-1.32-.69-2.28-.69-.92 0-1.73.19-2.43.57-.68.36-1.48 1-2.4 1.92l-2.07-1.92c1.84-2.2 4.11-3.3 6.81-3.3 2.02 0 3.58.47 4.68 1.41 1.12.94 1.68 2.22 1.68 3.84Zm-3.15 4.38v-1.38l-2.61.54c-1.58.34-2.7.71-3.36 1.11-.66.38-.99.94-.99 1.68 0 .56.23 1 .69 1.32.48.32 1.13.48 1.95.48 1.26 0 2.29-.33 3.09-.99.82-.68 1.23-1.6 1.23-2.76Zm5.343 9.66v-6.42h1.47c1.2-1.3 1.81-3.52 1.83-6.66l.06-5.73h11.55v12.39h2.16v6.42h-3.18V30h-10.71v3.75h-3.18Zm4.89-6.42h6.72v-9.72h-5.25l-.06 3.18c-.06 3.3-.53 5.48-1.41 6.54Zm28.788-4.86c0 2.34-.72 4.26-2.16 5.76-1.42 1.48-3.25 2.22-5.49 2.22-2.26 0-4.11-.74-5.55-2.22-1.42-1.48-2.13-3.4-2.13-5.76 0-2.38.71-4.31 2.13-5.79 1.44-1.48 3.29-2.22 5.55-2.22 2.24 0 4.07.75 5.49 2.25 1.44 1.48 2.16 3.4 2.16 5.76Zm-11.97 0c0 1.56.39 2.82 1.17 3.78.78.94 1.83 1.41 3.15 1.41 1.28 0 2.31-.47 3.09-1.41.8-.96 1.2-2.22 1.2-3.78 0-1.58-.39-2.84-1.17-3.78-.78-.96-1.82-1.44-3.12-1.44-1.32 0-2.37.48-3.15 1.44-.78.94-1.17 2.2-1.17 3.78ZM154.79 30l-4.53-6.48h-2.52V30h-3.3V14.94h3.3v5.88h2.55l4.17-5.88H158l-5.1 7.08 5.61 7.98h-3.72Z"/></g><defs><clipPath id="a"><path fill="#fff" d="M0 0h159v40H0z"/></clipPath><clipPath id="b"><path fill="#fff" d="M0 0h40v40H0z"/></clipPath><clipPath id="c"><path fill="#fff" d="M0 0h40v40H0z"/></clipPath></defs></svg>