<svg xmlns="http://www.w3.org/2000/svg" width="211" height="40" fill="none"><g clip-path="url(#a)"><path fill="#231F20" fill-rule="evenodd" d="M196.32 13.07c-.295-1.878-1.651-2.933-3.384-3.554-2.974-1.07-6.052-1.128-9.163-.875-2.874.233-5.654.804-8.334 2.186-.497-2.695-.975-5.279-1.459-7.891 2.359-1.15 4.726-1.79 7.159-2.22 5.203-.919 10.417-1.062 15.574.216 5.438 1.35 9.256 4.43 10.311 10.095.26 1.4.249 3.518.249 3.518v12.727c0 .553.069 1.735.103 2.286.193 2.941.462 3.228 3.533 3.674v6.056c-3.031.75-6.144 1.144-9.225-.278-1.733-.798-2.531-2.276-2.911-4.022-.049-.228-.073-.463-.102-.745v-.006c-.015-.145-.031-.304-.053-.481-3.72 5.234-9.043 6.52-14.894 6.198-6.556-.36-11.589-4.67-12.516-9.753-1.508-8.273 2.756-14.453 11.265-15.7 5.38-.789 6.922-.454 13.876 1.862 0-.35.015-.7.027-1.047.029-.762.059-1.514-.056-2.246Zm-.184 10.52c-1.785-1.202-3.814-1.832-5.936-2.096-2.205-.275-4.382-.131-6.253 1.284-1.716 1.298-2.365 3.36-1.736 5.485.482 1.634 2.184 2.914 4.189 3.1a11.56 11.56 0 0 0 5.593-.85c3.203-1.336 4.458-3.445 4.143-6.923ZM61.093 40c-5.564.032-10.566-1.552-14.717-5.139-4.603-3.978-6.421-9.156-6.376-15.025.04-4.87 1.378-9.298 4.733-13.04C47.742 3.44 51.57 1.445 56.04.538c5.613-1.14 11.015-.5 15.986 2.241 6.269 3.46 9.365 8.88 9.747 15.78.336 6.07-1.165 11.537-5.818 15.899-4.13 3.87-9.193 5.483-14.862 5.541Zm.134-30.188c-4.712.113-8.02 2.562-9.283 6.595-.777 2.485-.727 4.95.047 7.436 1.126 3.609 3.618 5.825 7.415 6.404 3.845.583 7.149-.651 9.25-3.913 2.391-3.715 2.437-7.682.53-11.611-1.633-3.366-4.542-4.871-7.959-4.911ZM140 23.637h5.455l.89.2 1.257 2.232.02.035L155.442 40h11.831c-.124-.303-.23-.59-.331-.86-.2-.54-.378-1.02-.629-1.453a2839.944 2839.944 0 0 0-6.1-10.428l-.013-.024-.01-.016a5734.941 5734.941 0 0 1-3.339-5.697 18.942 18.942 0 0 1-.554-1.032c-.086-.168-.175-.342-.27-.522 7.682-4.511 9.278-11.75 9.057-19.968h-10.539c0 3.224-.531 5.12-1.156 7.35-.08.284-.162.575-.244.874-.823 3.013-2.87 5.025-5.796 6.045-1.62.565-3.352.464-5.128.36-.734-.043-1.476-.086-2.221-.083V0h-10.909v39.966L140 40V23.637ZM111.026 0h10.793v40h-10.898V27.173c-.643.149-1.269.31-1.885.467-1.303.334-2.559.656-3.835.83-4.947.668-9.658.06-13.693-3.354-3.12-2.64-4.947-6.18-5.5-10.196-.375-2.723-.407-6.3-.438-9.893-.015-1.698-.03-3.4-.082-5.016l10.877-.01v10.908c0 4.282 3.772 7.66 7.88 7.72 2.536.037 4.016-.582 6.652-2.254L111.026 0ZM12.727 40h10.91V10.91h12.727V0H0v10.91h12.727V40Z" clip-rule="evenodd"/></g><defs><clipPath id="a"><path fill="#fff" d="M0 0h210.909v40H0z"/></clipPath></defs></svg>