<svg xmlns="http://www.w3.org/2000/svg" width="125" height="40" fill="none"><g clip-path="url(#a)"><path fill="#2A2A2A" d="M89.294 40h-5.058c-3.177 0-6.353-.588-8.353-2.824-1.765-2.235-2.353-5.411-2.236-8.235 0-4 1.412-7.53 4.118-10.235 2.823-2.824 5.176-3.647 8.823-3.765h6l-3.176 2.941h-3.059c-4.117 0-5.53 1.765-7.059 3.53-1.882 2.235-2.47 4.47-2.47 7.294-.118 2.235.353 4.941 1.764 6.588 1.06 1.412 2.824 1.883 4.589 1.883h6.353L89.294 40Z"/><path fill="#0C94FF" d="m110 19.882-8.235 10.589v.235l9.294-8.118 3.059-2.706.824-.588 5.176-4.588-.118-.824L124.706 6v-.118l-5.411 2-2.824 3.647L99.883.59 110 19.881Z"/><path fill="#2A2A2A" d="M69.885 14.706 66.59 40h-3.06s2.236-16.706 2.471-19.412L52.591 37.765c-1.53 2-3.295 2.235-5.177 2.235l3.294-25.294h3.059l-2.706 20.118 15.765-20.118h3.059ZM15.763 40h-5.059c-3.176 0-6.353-.588-8.353-2.824C.587 34.941-.002 31.765.116 28.941c0-4 1.412-7.53 4.118-10.235 3.058-3.059 5.411-3.765 9.059-4h6l-3.177 3.059h-3.059c-4.117 0-5.53 1.764-7.059 3.529-1.882 2.118-2.47 4.353-2.47 7.177-.118 2.235.353 4.94 1.764 6.588 1.295 1.294 3.06 1.765 4.706 1.882h6.353L15.763 40ZM33.999 25.765h-7.765l.588-4.941v-.118l.471-3.177H38.94l3.177-3.058H24.705l-.824 5.412-.47 3.529-1.883 15.059-.235 1.53h11.882c1.765 0 2.824-.354 4.236-.824 2.353-.824 4.588-3.648 4.588-6.471.235-7.294-5.53-6.941-8-6.941Zm4.117 9.647c-.47.47-.94.823-1.411 1.059-.588.353-1.294.47-1.883.47h-10l1.06-8.353h10.117c1.059 0 1.882.589 2.353 1.53 1.059 1.647.823 3.882-.235 5.294Z"/></g><defs><clipPath id="a"><path fill="#fff" d="M0 0h124.706v40H0z"/></clipPath></defs></svg>