<?xml version="1.0"?>
<svg xmlns="http://www.w3.org/2000/svg" xmlns:xlink="http://www.w3.org/1999/xlink" xmlns:svgjs="http://svgjs.com/svgjs" version="1.1" width="512" height="512" x="0" y="0" viewBox="0 0 512.021 512.021" style="enable-background:new 0 0 512 512" xml:space="preserve" class=""><g><g xmlns="http://www.w3.org/2000/svg"><path d="m401.871 52.523-25.971 25.973c-2.929 2.929-2.929 7.678.001 10.606 2.928 2.928 7.676 2.929 10.606-.001l25.972-25.973c2.929-2.929 2.929-7.678-.001-10.606-2.928-2.927-7.677-2.928-10.607.001z" fill="#1DBBBA" data-original="#000000" style="" class=""/><path d="m448.892 99.542-25.973 25.972c-2.93 2.929-2.93 7.678-.001 10.606 2.929 2.929 7.677 2.93 10.606.001l25.973-25.972c2.93-2.929 2.93-7.678.001-10.606-2.929-2.929-7.678-2.93-10.606-.001z" fill="#1DBBBA" data-original="#000000" style="" class=""/><path d="m504.504 95.441-14.85-14.85c-2.93-2.928-7.678-2.928-10.607 0-2.929 2.93-2.929 7.678 0 10.607l14.85 14.849c4.159 4.161 4.163 10.89 0 15.051l-56.946 56.948-102.977-102.976 56.948-56.946c4.159-4.161 10.891-4.161 15.05 0l48.327 48.327c2.93 2.928 7.678 2.928 10.607 0 2.929-2.93 2.929-7.678 0-10.607l-48.327-48.326c-10.022-10.024-26.241-10.023-36.265-.001l-56.947 56.946-7.31-7.31c-6.307-6.307-16.52-6.309-22.829 0l-203.498 203.499c-2.929 2.93-2.929 7.678 0 10.607 2.93 2.928 7.678 2.928 10.607 0 215.188-215.187 204.117-204.499 205.113-203.498 146.386 146.386 139.83 139.407 138.81 140.424l-274.563 274.564c-19.025 19.023-49.813 19.025-68.838 0l-71.588-71.588c-19.024-19.024-19.024-49.813 0-68.837l46.316-46.316c2.929-2.93 2.929-7.678 0-10.607-2.93-2.928-7.678-2.928-10.607 0l-46.316 46.316c-24.884 24.886-24.887 65.163 0 90.052l71.588 71.588c24.886 24.884 65.161 24.887 90.052 0l274.563-274.564c3.049-3.049 4.728-7.104 4.728-11.415s-1.679-8.365-4.728-11.414l-7.31-7.31 56.946-56.947c10.022-10.024 10.025-26.238.001-36.266z" fill="#1DBBBA" data-original="#000000" style="" class=""/><path d="m121.587 354.644 35.794 35.794c13.876 13.875 36.452 13.875 50.329 0l120.475-120.475c13.908-13.91 13.911-36.42 0-50.331l-35.79-35.792c-13.876-13.875-36.455-13.876-50.333 0l-120.475 120.475c-13.66 13.659-14.116 36.213 0 50.329zm10.608-39.722 120.475-120.475c8.028-8.03 21.092-8.028 29.118 0v-.001l35.79 35.792c8.028 8.027 8.028 21.09 0 29.117l-120.475 120.475c-8.026 8.028-21.09 8.026-29.114 0l-35.795-35.794c-8.108-8.108-7.948-21.167.001-29.114z" fill="#1DBBBA" data-original="#000000" style="" class=""/></g></g></svg>
