<?xml version="1.0"?>
<svg xmlns="http://www.w3.org/2000/svg" xmlns:xlink="http://www.w3.org/1999/xlink" xmlns:svgjs="http://svgjs.com/svgjs" version="1.1" width="512" height="512" x="0" y="0" viewBox="0 0 512 512" style="enable-background:new 0 0 512 512" xml:space="preserve"><g><linearGradient xmlns="http://www.w3.org/2000/svg" id="linear-gradient" gradientUnits="userSpaceOnUse" x1="377.255" x2="377.255" y1="490" y2="67.413"><stop stop-opacity="1" stop-color="#1DBBBA" offset="0"/><stop stop-opacity="1" stop-color="#64ffe8" offset="1"/><stop stop-opacity="1" stop-color="#64ffe8" offset="1"/><stop stop-opacity="1" stop-color="#64ffe8" offset="1"/></linearGradient><linearGradient xmlns="http://www.w3.org/2000/svg" xmlns:xlink="http://www.w3.org/1999/xlink" id="linear-gradient-2" x1="357.793" x2="357.793" xlink:href="#linear-gradient" y1="490" y2="67.413"/><linearGradient xmlns="http://www.w3.org/2000/svg" xmlns:xlink="http://www.w3.org/1999/xlink" id="linear-gradient-3" x1="75" x2="75" xlink:href="#linear-gradient" y1="490" y2="67.413"/><linearGradient xmlns="http://www.w3.org/2000/svg" xmlns:xlink="http://www.w3.org/1999/xlink" id="linear-gradient-5" x1="195.827" x2="195.827" xlink:href="#linear-gradient" y1="490" y2="67.413"/><linearGradient xmlns="http://www.w3.org/2000/svg" xmlns:xlink="http://www.w3.org/1999/xlink" id="linear-gradient-8" x1="256" x2="256" xlink:href="#linear-gradient" y1="490" y2="67.413"/><path xmlns="http://www.w3.org/2000/svg" d="m382.14 446h-9.769a6 6 0 0 0 0 12h9.769a6 6 0 0 0 0-12z" fill="url(#linear-gradient)" data-original="url(#linear-gradient)" style=""/><path xmlns="http://www.w3.org/2000/svg" d="m375.194 307.823a25.011 25.011 0 0 1 -7.272-1.093c-5.612-1.7-10.088-2.566-13.334-2.566a41.636 41.636 0 0 0 -41.588 41.604v26.316a41.5 41.5 0 1 0 83 0v-31.084h.587a5.91 5.91 0 0 0 6-5.892 27.331 27.331 0 0 0 -27.393-27.285zm8.806 64.261a29.5 29.5 0 1 1 -59 0v-7.084h4.794a22.472 22.472 0 0 0 22.417-22.451 1.547 1.547 0 0 1 1.516-1.549h30.273zm-30.273-43.084a13.56 13.56 0 0 0 -13.516 13.549 10.458 10.458 0 0 1 -10.417 10.451h-4.794v-7.232a29.623 29.623 0 0 1 29.588-29.6 40.716 40.716 0 0 1 9.858 2.049 36.885 36.885 0 0 0 10.753 1.5 16.172 16.172 0 0 1 14.17 9.283z" fill="url(#linear-gradient-2)" data-original="url(#linear-gradient-2)" style=""/><path xmlns="http://www.w3.org/2000/svg" d="m75 43.173a6 6 0 0 0 -6 6v3.713a6 6 0 0 0 12 0v-3.713a6 6 0 0 0 -6-6z" fill="url(#linear-gradient-3)" data-original="url(#linear-gradient-3)" style=""/><path xmlns="http://www.w3.org/2000/svg" d="m75 68.411a6 6 0 0 0 -6 6v73.178a6 6 0 0 0 12 0v-73.178a6 6 0 0 0 -6-6z" fill="url(#linear-gradient-3)" data-original="url(#linear-gradient-3)" style=""/><g xmlns="http://www.w3.org/2000/svg" fill="url(#linear-gradient-5)"><path d="m195.827 163.838a63.582 63.582 0 1 0 63.581 63.582 63.654 63.654 0 0 0 -63.581-63.582zm0 115.163a51.582 51.582 0 1 1 51.581-51.581 51.64 51.64 0 0 1 -51.581 51.58z" fill=""/><path d="m271.8 283.569 13.274.391a6.008 6.008 0 0 0 5.775-3.837l10.691-27.7a6 6 0 0 0 -1.678-6.7l-9.993-8.625a97.017 97.017 0 0 0 -.61-23.573l9.625-9.229a6 6 0 0 0 1.344-6.736l-11.908-27.215a6.009 6.009 0 0 0 -5.936-3.578l-13.3.977a87.544 87.544 0 0 0 -17.1-16.291l.39-13.275a6 6 0 0 0 -3.837-5.774l-27.7-10.692a6 6 0 0 0 -6.7 1.679l-8.623 10a97.094 97.094 0 0 0 -23.576.61l-9.23-9.624a6 6 0 0 0 -6.735-1.344l-27.216 11.907a6 6 0 0 0 -3.578 5.937l.977 13.3a87.514 87.514 0 0 0 -16.291 17.1l-13.274-.391a5.972 5.972 0 0 0 -5.774 3.837l-10.692 27.7a6 6 0 0 0 1.678 6.7l10 8.625a97.111 97.111 0 0 0 .61 23.572l-9.624 9.23a6 6 0 0 0 -1.343 6.735l11.894 27.215a5.99 5.99 0 0 0 5.937 3.578l13.3-.978a87.49 87.49 0 0 0 17.1 16.291l-.391 13.276a6 6 0 0 0 3.837 5.773l27.7 10.692a6 6 0 0 0 6.7-1.678l8.623-10a97.066 97.066 0 0 0 23.573-.609l9.229 9.623a6 6 0 0 0 6.735 1.344l27.216-11.906a6 6 0 0 0 3.578-5.937l-.977-13.3a87.516 87.516 0 0 0 16.3-17.1zm-26.079 9.494a6 6 0 0 0 -2.416 5.265l.9 12.289-19.489 8.526-8.521-8.884a5.992 5.992 0 0 0 -5.41-1.749 85.182 85.182 0 0 1 -26.334.68 5.992 5.992 0 0 0 -5.316 2.031l-7.931 9.193-19.8-7.641.362-12.278a6 6 0 0 0 -2.669-5.169 75.667 75.667 0 0 1 -18.916-18.015 6.006 6.006 0 0 0 -5.265-2.416l-12.288.9-8.528-19.485 8.884-8.52a6 6 0 0 0 1.749-5.411 85.154 85.154 0 0 1 -.68-26.334 6 6 0 0 0 -2.031-5.316l-9.193-7.933 7.641-19.8 12.278.361a6 6 0 0 0 5.169-2.67 75.645 75.645 0 0 1 18.015-18.915 6 6 0 0 0 2.416-5.264l-.9-12.289 19.49-8.527 8.52 8.885a6 6 0 0 0 5.41 1.749 85.21 85.21 0 0 1 26.338-.681 6.012 6.012 0 0 0 5.316-2.03l7.931-9.194 19.8 7.641-.36 12.279a6 6 0 0 0 2.669 5.169 75.644 75.644 0 0 1 18.915 18.015 6.008 6.008 0 0 0 5.263 2.416l12.289-.9 8.527 19.488-8.885 8.52a6 6 0 0 0 -1.749 5.41 85.123 85.123 0 0 1 .682 26.334 6 6 0 0 0 2.03 5.316l9.19 7.932-7.64 19.8-12.279-.361a6 6 0 0 0 -5.169 2.669 75.624 75.624 0 0 1 -18.017 18.914z" fill=""/><path d="m195.827 197.764a29.656 29.656 0 1 0 29.656 29.656 29.689 29.689 0 0 0 -29.656-29.656zm0 47.312a17.656 17.656 0 1 1 17.656-17.656 17.677 17.677 0 0 1 -17.656 17.656z" fill=""/></g><path xmlns="http://www.w3.org/2000/svg" d="m360.537 271.234-.83-151.129a6 6 0 0 0 -1.782-4.239l-108.933-107.666a10.187 10.187 0 0 0 -7.19-2.941l-152.94.485a49.465 49.465 0 0 0 -49.17 49.642l1.54 319.614a49.321 49.321 0 0 0 49.41 49h.237l150.585-.689a117.966 117.966 0 1 0 119.073-152.077zm-21.337-157.016-52 .782h-.18a37.587 37.587 0 0 1 -37.405-37.385l-.25-52.2zm-100.753 296.826-147.631.956h-.179a37.308 37.308 0 0 1 -37.4-37.058l-1.54-319.7a37.415 37.415 0 0 1 37.223-37.542l148.4-.692.291 60.682a49.582 49.582 0 0 0 49.405 49.31h.238l60.487-.434.8 144.65a117.984 117.984 0 0 0 -110.094 139.828zm159.553 74.75c-14 5.912-27.854 9.206-43.225 9.206a105.272 105.272 0 0 1 -42.775-9.009v-31.357a25.389 25.389 0 0 1 25.6-25.634h33.933c14.333 0 26.467 11.3 26.467 25.634zm12-6.33v-24.83c0-20.947-17.517-37.634-38.464-37.634h-33.936a37.4 37.4 0 0 0 -37.6 37.634v25.106a105.87 105.87 0 0 1 54.44-196.668c58.429 0 106.154 47.535 106.154 105.964 0 38.227-20.594 71.789-50.594 90.428z" fill="url(#linear-gradient-8)" data-original="url(#linear-gradient-8)" style=""/></g></svg>
