<?xml version="1.0"?>
<svg xmlns="http://www.w3.org/2000/svg" xmlns:xlink="http://www.w3.org/1999/xlink" xmlns:svgjs="http://svgjs.com/svgjs" version="1.1" width="512" height="512" x="0" y="0" viewBox="0 0 512 512" style="enable-background:new 0 0 512 512" xml:space="preserve" class=""><g><g xmlns="http://www.w3.org/2000/svg"><g><g><path d="m474.488 275.5c4.142 0 7.5-3.358 7.5-7.5v-255.5c0-6.893-5.607-12.5-12.5-12.5h-326.135c-6.893 0-12.5 5.607-12.5 12.5v487c0 6.893 5.607 12.5 12.5 12.5h326.135c6.893 0 12.5-5.607 12.5-12.5v-196.5c0-4.142-3.358-7.5-7.5-7.5s-7.5 3.358-7.5 7.5v130.03h-321.135v-418.03h321.135v253c0 4.142 3.358 7.5 7.5 7.5zm-7.5 172.53v16.985h-233.988c-4.142 0-7.5 3.358-7.5 7.5s3.358 7.5 7.5 7.5h233.988v16.985h-321.135v-16.985h52.147c4.142 0 7.5-3.358 7.5-7.5s-3.358-7.5-7.5-7.5h-52.147v-16.985z" fill="#1DBBBA" data-original="#000000" style="" class=""/><path d="m385.052 64.22c4.142 0 7.5-3.358 7.5-7.5s-3.358-7.5-7.5-7.5h-157.263c-4.142 0-7.5 3.358-7.5 7.5s3.358 7.5 7.5 7.5z" fill="#1DBBBA" data-original="#000000" style="" class=""/><path d="m438.771 105.338c0-5.79-4.71-10.5-10.5-10.5h-243.701c-5.79 0-10.5 4.71-10.5 10.5v24.012c0 5.79 4.71 10.5 10.5 10.5h243.701c5.79 0 10.5-4.71 10.5-10.5zm-192.144 19.512h-57.557v-15.012h57.557zm177.144 0h-162.144v-15.012h162.144z" fill="#1DBBBA" data-original="#000000" style="" class=""/><path d="m352.336 172.565c0-5.79-4.71-10.5-10.5-10.5h-157.266c-5.79 0-10.5 4.71-10.5 10.5v24.012c0 5.79 4.71 10.5 10.5 10.5h157.266c5.79 0 10.5-4.71 10.5-10.5zm-105.709 19.512h-57.557v-15.012h57.557zm90.709 0h-75.709v-15.012h75.709z" fill="#1DBBBA" data-original="#000000" style="" class=""/><path d="m438.771 172.565c0-5.79-4.71-10.5-10.5-10.5h-52.824c-5.79 0-10.5 4.71-10.5 10.5v24.012c0 5.79 4.71 10.5 10.5 10.5h52.824c5.79 0 10.5-4.71 10.5-10.5zm-15 19.512h-43.824v-15.012h43.824z" fill="#1DBBBA" data-original="#000000" style="" class=""/><path d="m438.771 306.419c0-5.79-4.71-10.5-10.5-10.5h-243.701c-5.79 0-10.5 4.71-10.5 10.5v24.012c0 5.79 4.71 10.5 10.5 10.5h243.701c5.79 0 10.5-4.71 10.5-10.5zm-192.144 19.512h-57.557v-15.012h57.557zm177.144 0h-162.144v-15.012h162.144z" fill="#1DBBBA" data-original="#000000" style="" class=""/><path d="m428.271 352.942h-243.701c-5.79 0-10.5 4.71-10.5 10.5v24.012c0 5.79 4.71 10.5 10.5 10.5h243.701c5.79 0 10.5-4.71 10.5-10.5v-24.012c0-5.79-4.711-10.5-10.5-10.5zm-181.644 30.012h-57.557v-15.012h57.557zm177.144 0h-162.144v-15.012h162.144z" fill="#1DBBBA" data-original="#000000" style="" class=""/><path d="m174.07 265.005c0 5.79 4.71 10.5 10.5 10.5h24.012c5.79 0 10.5-4.71 10.5-10.5v-24.012c0-5.79-4.71-10.5-10.5-10.5h-24.012c-5.79 0-10.5 4.71-10.5 10.5zm15-19.512h15.012v15.012h-15.012z" fill="#1DBBBA" data-original="#000000" style="" class=""/><path d="m344.836 230.493h-105.643c-4.142 0-7.5 3.358-7.5 7.5s3.358 7.5 7.5 7.5h105.643c4.142 0 7.5-3.358 7.5-7.5s-3.358-7.5-7.5-7.5z" fill="#1DBBBA" data-original="#000000" style="" class=""/><path d="m344.836 260.505h-105.643c-4.142 0-7.5 3.358-7.5 7.5s3.358 7.5 7.5 7.5h105.643c4.142 0 7.5-3.358 7.5-7.5s-3.358-7.5-7.5-7.5z" fill="#1DBBBA" data-original="#000000" style="" class=""/><path d="m431.271 230.493h-58.824c-4.142 0-7.5 3.358-7.5 7.5s3.358 7.5 7.5 7.5h58.824c4.142 0 7.5-3.358 7.5-7.5s-3.358-7.5-7.5-7.5z" fill="#1DBBBA" data-original="#000000" style="" class=""/><path d="m431.271 260.505h-58.824c-4.142 0-7.5 3.358-7.5 7.5s3.358 7.5 7.5 7.5h58.824c4.142 0 7.5-3.358 7.5-7.5s-3.358-7.5-7.5-7.5z" fill="#1DBBBA" data-original="#000000" style="" class=""/><path d="m85.531 62.425h-4.802c-14.065 0-25.507 11.442-25.507 25.507v12.908h-5.705c-10.755 0-19.505 8.75-19.505 19.504v56.423c0 4.142 3.358 7.5 7.5 7.5s7.5-3.358 7.5-7.5v-56.423c0-2.484 2.021-4.504 4.505-4.504h5.705v244.601c0 .944.178 1.879.525 2.757l17.059 43.149c1.686 4.265 5.738 7.021 10.324 7.021s8.638-2.756 10.324-7.02l17.059-43.149c.347-.878.525-1.813.525-2.757v-194.442c0-4.142-3.358-7.5-7.5-7.5s-7.5 3.358-7.5 7.5v193.013l-12.908 32.65-12.908-32.65v-243.172h25.816v15.159c0 4.142 3.358 7.5 7.5 7.5s7.5-3.358 7.5-7.5v-43.067c.001-14.065-11.442-25.508-25.507-25.508zm10.508 38.416h-25.817v-12.908c0-5.794 4.713-10.507 10.507-10.507h4.802c5.794 0 10.507 4.713 10.507 10.507v12.908z" fill="#1DBBBA" data-original="#000000" style="" class=""/></g></g></g></g></svg>
