<svg xmlns="http://www.w3.org/2000/svg" width="1000" height="600" fill="none"><g clip-path="url(#a)"><path fill="url(#b)" d="M0 0h1000v600H0z"/><path stroke="url(#c)" stroke-linecap="round" stroke-width="117.591" d="M558.016 707.107c14.831-47.441 22.297-99.892 59.039-126.288 9.316-6.692 21.385-9.38 31.924-13.38 21.619-8.206 55.813 44.011 65.002 66.891 4.053 10.093 5.46 29.798 15.741 34.597 23.253 10.854 54.68-9.904 70.765-22.282 45.216-34.795 40.774-102.196 57.577-158.886 8.869-29.922 33.668-42.07 60.528-26.132 18.041 10.705 31.94 40.313 47.475 56.336 25.374 26.17 60.003 28.571 84.283 14.58 61.17-35.247 63.97-127.97 79.53-203.529 10.56-51.25 24.13-113.503 13.84-171.014"/><path fill="#fff" d="M875.601 38.663c12.473 21.024 37.857 31.916 63.934 36.667 25.215 4.593 51.583 1.936 72.025-11.9 21.13-14.3 34-36.41 34.41-60.134.41-24.336-11.07-47.913-32.3-63.267-21.481-15.536-49.914-21.138-76.756-15.6-26.773 5.523-48.943 21.871-60.81 43.982-11.902 22.177-13.445 48.437-.503 70.252ZM823.177 35.187c-3.458 5.306-10.147 7.848-16.948 8.793-6.577.914-13.372-.062-18.513-3.866-5.312-3.932-8.403-9.795-8.249-15.94.158-6.304 3.387-12.28 9.05-16.023 5.73-3.787 13.15-4.927 20.037-3.2 6.87 1.721 12.43 6.195 15.26 12.047 2.839 5.87 2.951 12.684-.637 18.19ZM868.163 52.491c-2.496 3.831-7.326 5.667-12.237 6.35-4.749.659-9.656-.046-13.368-2.793-3.836-2.838-6.067-7.072-5.956-11.51.114-4.55 2.445-8.867 6.534-11.569 4.138-2.734 9.496-3.557 14.469-2.31 4.96 1.243 8.974 4.473 11.018 8.699 2.05 4.238 2.131 9.158-.46 13.133ZM-96.3 634.437c11.53 40.603 49.089 70.001 90.518 89.451 40.059 18.808 85.246 26.023 125.483 11.96 41.584-14.534 72.841-45.755 84-85.175 11.447-40.437 2.698-84.865-25.957-119.874-28.995-35.424-73.979-57.338-121.232-59.954-47.13-2.609-91.358 14.886-120.935 46.549-29.666 31.759-43.842 74.912-31.878 117.043ZM44.865 450.99c-4.7 4.244-11.817 4.99-18.634 4.163-6.591-.8-12.911-3.481-16.907-8.474-4.13-5.16-5.617-11.62-3.896-17.521 1.766-6.053 6.417-11.005 12.849-13.173 6.508-2.195 13.973-1.398 20.19 2.033 6.2 3.422 10.43 9.169 11.668 15.551 1.242 6.401-.393 13.017-5.27 17.421ZM77.412 462.686c-2.238 2.021-5.626 2.376-8.872 1.982-3.138-.381-6.147-1.657-8.05-4.035-1.966-2.457-2.674-5.532-1.855-8.342.841-2.882 3.056-5.239 6.118-6.272 3.099-1.045 6.653-.665 9.612.968 2.953 1.63 4.967 4.366 5.556 7.404.592 3.048-.187 6.198-2.509 8.295Z" opacity=".4"/><circle r="28.511" fill="url(#d)" transform="matrix(-1 0 0 1 26.428 -11.53)"/><path fill="url(#e)" d="M-50.331-20.303c0 42.392 34.366 76.759 76.759 76.759s76.759-34.367 76.759-76.76c0-42.392-34.366-76.758-76.76-76.758-42.392 0-76.758 34.366-76.758 76.759Zm130.49 0c0 29.675-24.056 53.731-53.731 53.731S-27.303 9.372-27.303-20.303s24.056-53.732 53.73-53.732c29.676 0 53.732 24.057 53.732 53.732Z"/><path fill="url(#f)" d="M-92-20.303C-92 44.7-38.978 97.395 26.43 97.395c65.406 0 118.428-52.695 118.428-117.698C144.857-85.305 91.835-138 26.429-138-38.978-138-92-85.305-92-20.303Zm213.171 0c0 52.002-42.418 94.158-94.742 94.158-52.325 0-94.743-42.156-94.743-94.158s42.418-94.158 94.743-94.158c52.325 0 94.742 42.156 94.742 94.158Z"/></g><defs><linearGradient id="b" x1="0" x2="1000.06" y1="257.603" y2="267.423" gradientUnits="userSpaceOnUse"><stop offset=".62" stop-color="#005BFF"/><stop offset="1" stop-color="#009FFF"/></linearGradient><linearGradient id="c" x1="523.516" x2="1303.21" y1="663.798" y2="272.053" gradientUnits="userSpaceOnUse"><stop stop-color="#FF0B5A"/><stop offset="1" stop-color="#004FED"/></linearGradient><linearGradient id="d" x1="-1.297" x2="65.923" y1="42.14" y2="38.944" gradientUnits="userSpaceOnUse"><stop stop-color="#FF0B5A"/><stop offset="1" stop-color="#004FED"/></linearGradient><linearGradient id="e" x1="106.679" x2="-74.297" y1="16.39" y2="7.787" gradientUnits="userSpaceOnUse"><stop stop-color="#FF0B5A"/><stop offset="1" stop-color="#004FED"/></linearGradient><linearGradient id="f" x1="150.244" x2="-128.968" y1="35.961" y2="22.606" gradientUnits="userSpaceOnUse"><stop stop-color="#FF0B5A"/><stop offset="1" stop-color="#004FED"/></linearGradient><clipPath id="a"><path fill="#fff" d="M0 0h1000v600H0z"/></clipPath></defs></svg>