<svg width="372" height="82" fill="none" xmlns="http://www.w3.org/2000/svg"><path fill-rule="evenodd" clip-rule="evenodd" d="M44.938.226a40.41 40.41 0 00-24.117 4.99 40.87 40.87 0 00-16.843 18.1A41.292 41.292 0 00.58 47.894a41.112 41.112 0 0011.29 22.053 40.571 40.571 0 0021.844 11.448 40.39 40.39 0 0024.395-3.35 40.807 40.807 0 0018.01-16.921 41.271 41.271 0 005.026-24.293 41.084 41.084 0 00-11.649-24.788A40.498 40.498 0 0044.938.226zM43.62 62.697a21.55 21.55 0 01-13.07-2.365 21.792 21.792 0 01-9.255-9.598 22.023 22.023 0 01-1.974-13.236 21.93 21.93 0 016.048-11.916 21.64 21.64 0 0111.803-6.133c4.474-.75 9.068-.07 13.138 1.948a21.776 21.776 0 019.552 9.298 22.02 22.02 0 012.387 13.167 21.928 21.928 0 01-6.146 12.601 21.625 21.625 0 01-12.483 6.234zm59.28-60.85a9.429 9.429 0 00-4.076.938 9.504 9.504 0 00-3.28 2.612 9.597 9.597 0 00-1.85 3.78 9.641 9.641 0 00-.058 4.213c.893 4.507 5.07 7.587 9.62 7.587h26.407L88.568 75.793a2.745 2.745 0 00.727 3.967c.427.269.92.412 1.424.414h64.462c4.547 0 8.727-3.08 9.62-7.588a9.658 9.658 0 00-.058-4.212 9.6 9.6 0 00-1.848-3.78 9.5 9.5 0 00-3.28-2.612 9.43 9.43 0 00-4.074-.94h-32.175L164.43 6.27a2.78 2.78 0 00.27-2.889 2.756 2.756 0 00-1.005-1.117 2.722 2.722 0 00-1.438-.416H102.9zm257.584.221a9.625 9.625 0 00-5.377 3.488 9.761 9.761 0 00-2.027 6.113v31.85l-51.203-41.07a2.71 2.71 0 00-4.002.696 2.761 2.761 0 00-.414 1.461V70.37a9.761 9.761 0 002.027 6.113 9.624 9.624 0 005.377 3.487 9.407 9.407 0 004.204-.03 9.444 9.444 0 003.778-1.859 9.55 9.55 0 002.609-3.323 9.63 9.63 0 00.926-4.133V38.5l51.204 41.071a2.708 2.708 0 004-.695c.272-.438.415-.945.414-1.461V11.41a9.61 9.61 0 00-.927-4.132 9.546 9.546 0 00-2.609-3.321 9.449 9.449 0 00-3.777-1.859 9.407 9.407 0 00-4.203-.03zM227.166 19.146c21.657 0 37.84 11.536 37.84 21.855s-16.183 21.855-37.84 21.855c-21.658 0-37.84-11.536-37.84-21.855s16.182-21.855 37.84-21.855zm0-19.129c-31.348 0-56.76 18.35-56.76 40.984 0 22.635 25.412 40.984 56.76 40.984S283.925 63.635 283.925 41 258.513.017 227.166.017z" fill="#fff"/></svg>