<svg xmlns="http://www.w3.org/2000/svg" width="1000" height="1100" fill="none"><g clip-path="url(#a)"><path fill="url(#b)" d="M0 0h1000v1100H0z"/><path stroke="url(#c)" stroke-linecap="round" stroke-width="117.591" d="M747.724 1124.77c-4.955-49.45-18.651-100.63 4.802-139.321 5.946-9.809 15.995-17.014 24.122-24.825 16.671-16.025 68.6 18.606 86.022 36.052 7.686 7.694 16.707 25.274 28.046 25.654 25.646.87 46.419-30.547 56.364-48.241 27.954-49.736-2.557-109.999-9.324-168.738-3.572-31.005 14.479-51.902 45.437-47.77 20.797 2.775 45.187 24.563 65.757 33.213 33.61 14.127 66.4 2.759 83.26-19.631 42.45-56.406 8.67-142.805-6.63-218.415-10.39-51.286-22.3-113.877-54.32-162.748"/><path fill="#fff" d="M859.549 92.218c12.472 21.024 37.857 31.917 63.934 36.667 25.214 4.593 51.582 1.936 72.025-11.9 21.132-14.299 34.002-36.41 34.412-60.134.41-24.336-11.07-47.913-32.302-63.267-21.482-15.536-49.914-21.138-76.757-15.6-26.773 5.523-48.942 21.872-60.809 43.982-11.903 22.177-13.445 48.437-.503 70.252ZM807.124 88.742c-3.457 5.306-10.146 7.848-16.948 8.793-6.576.914-13.372-.062-18.512-3.866-5.313-3.932-8.404-9.795-8.25-15.94.158-6.304 3.387-12.28 9.05-16.023 5.73-3.787 13.15-4.927 20.038-3.2 6.869 1.721 12.429 6.195 15.259 12.047 2.839 5.87 2.951 12.684-.637 18.19ZM852.111 106.046c-2.497 3.831-7.327 5.667-12.238 6.349-4.749.66-9.656-.044-13.368-2.791-3.836-2.839-6.067-7.073-5.956-11.51.114-4.552 2.446-8.868 6.535-11.57 4.137-2.734 9.495-3.557 14.468-2.31 4.96 1.243 8.975 4.473 11.018 8.698 2.05 4.24 2.131 9.159-.459 13.134ZM-31.12 1118.97c11.53 40.6 49.09 70 90.518 89.45 40.06 18.81 85.247 26.02 125.484 11.96 41.583-14.53 72.841-45.75 84-85.17 11.446-40.44 2.697-84.87-25.958-119.88-28.994-35.422-73.978-57.336-121.231-59.951-47.13-2.609-91.358 14.885-120.935 46.551-29.667 31.76-43.843 74.91-31.878 117.04ZM110.046 935.523c-4.7 4.244-11.817 4.99-18.634 4.163-6.591-.799-12.911-3.481-16.907-8.474-4.13-5.16-5.617-11.619-3.896-17.52 1.766-6.053 6.417-11.005 12.849-13.174 6.508-2.195 13.972-1.398 20.189 2.033 6.2 3.423 10.43 9.17 11.668 15.551 1.243 6.401-.392 13.017-5.269 17.421ZM142.593 947.219c-2.238 2.021-5.627 2.376-8.872 1.983-3.138-.381-6.148-1.658-8.05-4.035-1.966-2.457-2.674-5.532-1.855-8.342.841-2.882 3.055-5.24 6.118-6.272 3.098-1.045 6.652-.666 9.612.968 2.952 1.629 4.966 4.365 5.556 7.404.591 3.048-.187 6.198-2.509 8.294Z" opacity=".4"/><circle r="28.511" fill="url(#d)" transform="matrix(-1 0 0 1 53.338 24.314)"/><path fill="url(#e)" d="M-23.422 15.54c0 42.394 34.367 76.76 76.76 76.76 42.392 0 76.759-34.366 76.759-76.76 0-42.392-34.367-76.758-76.76-76.758-42.392 0-76.759 34.366-76.759 76.759Zm130.491 0c0 29.676-24.056 53.732-53.732 53.732-29.675 0-53.73-24.056-53.73-53.731S23.662-38.19 53.336-38.19c29.676 0 53.732 24.056 53.732 53.73Z"/><path fill="url(#f)" d="M-65.09 15.542c0 65.002 53.022 117.697 118.428 117.697S171.767 80.544 171.767 15.542c0-65.003-53.023-117.698-118.429-117.698S-65.09-49.461-65.09 15.542Zm213.171 0c0 52.001-42.418 94.157-94.743 94.157-52.325 0-94.743-42.156-94.743-94.157 0-52.002 42.418-94.158 94.743-94.158 52.325 0 94.743 42.156 94.743 94.158Z"/></g><defs><linearGradient id="b" x1="0" x2="1000.13" y1="472.272" y2="477.628" gradientUnits="userSpaceOnUse"><stop offset=".62" stop-color="#005BFF"/><stop offset="1" stop-color="#009FFF"/></linearGradient><linearGradient id="c" x1="699.007" x2="1262.7" y1="1098.46" y2="432.392" gradientUnits="userSpaceOnUse"><stop stop-color="#FF0B5A"/><stop offset="1" stop-color="#004FED"/></linearGradient><linearGradient id="d" x1="-1.297" x2="65.923" y1="42.14" y2="38.944" gradientUnits="userSpaceOnUse"><stop stop-color="#FF0B5A"/><stop offset="1" stop-color="#004FED"/></linearGradient><linearGradient id="e" x1="133.588" x2="-47.387" y1="52.235" y2="43.632" gradientUnits="userSpaceOnUse"><stop stop-color="#FF0B5A"/><stop offset="1" stop-color="#004FED"/></linearGradient><linearGradient id="f" x1="177.153" x2="-102.058" y1="71.805" y2="58.45" gradientUnits="userSpaceOnUse"><stop stop-color="#FF0B5A"/><stop offset="1" stop-color="#004FED"/></linearGradient><clipPath id="a"><path fill="#fff" d="M0 0h1000v1100H0z"/></clipPath></defs></svg>