<svg xmlns="http://www.w3.org/2000/svg" width="1300" height="507" fill="none"><g clip-path="url(#a)"><path fill="url(#b)" d="M0 0h1300v506.259H0z"/><path stroke="url(#c)" stroke-linecap="round" stroke-width="135.605" d="M860.913 630.516c17.103-54.708 25.713-115.195 68.084-145.634 10.743-7.718 24.661-10.818 36.814-15.431 24.931-9.463 64.369 50.754 74.959 77.139 4.67 11.639 6.3 34.363 18.15 39.897 26.82 12.517 63.06-11.422 81.61-25.696 52.14-40.125 47.02-117.851 66.4-183.226 10.23-34.507 38.82-48.515 69.8-30.135 20.8 12.344 36.83 46.488 54.75 64.966 29.26 30.179 69.19 32.948 97.19 16.813 70.54-40.646 73.77-147.574 91.72-234.708 12.17-59.102 27.82-130.892 15.95-197.213"/><path fill="#fff" d="M1180.49 38.663c12.47 21.024 37.85 31.916 63.93 36.667 25.21 4.593 51.58 1.936 72.02-11.9 21.13-14.3 34.01-36.41 34.41-60.134.42-24.336-11.06-47.913-32.3-63.267-21.48-15.536-49.91-21.138-76.75-15.6-26.78 5.523-48.94 21.871-60.81 43.982-11.9 22.177-13.45 48.437-.5 70.252ZM1128.06 35.187c-3.46 5.306-10.15 7.848-16.95 8.793-6.57.914-13.37-.062-18.51-3.866-5.31-3.932-8.4-9.795-8.25-15.94.16-6.304 3.39-12.28 9.05-16.023 5.73-3.787 13.15-4.927 20.04-3.2 6.87 1.721 12.43 6.195 15.26 12.047 2.84 5.87 2.95 12.684-.64 18.19ZM1173.05 52.491c-2.5 3.831-7.33 5.667-12.24 6.35-4.75.659-9.66-.046-13.37-2.793-3.83-2.838-6.07-7.072-5.96-11.51.12-4.55 2.45-8.867 6.54-11.569 4.14-2.734 9.49-3.557 14.47-2.31 4.96 1.243 8.97 4.473 11.02 8.699 2.05 4.238 2.13 9.158-.46 13.133ZM-96.3 563.079c11.53 40.603 49.089 70.001 90.518 89.451 40.059 18.808 85.246 26.023 125.483 11.96 41.584-14.534 72.841-45.755 84-85.175 11.447-40.437 2.698-84.865-25.957-119.874-28.995-35.424-73.979-57.338-121.232-59.954-47.13-2.609-91.358 14.886-120.935 46.549-29.666 31.759-43.842 74.912-31.878 117.043ZM44.865 379.632c-4.7 4.244-11.817 4.99-18.634 4.163-6.591-.799-12.911-3.481-16.907-8.474-4.13-5.16-5.617-11.62-3.896-17.521 1.766-6.053 6.417-11.005 12.849-13.173 6.508-2.195 13.973-1.398 20.19 2.033 6.2 3.422 10.43 9.169 11.668 15.551 1.242 6.401-.393 13.017-5.27 17.421ZM77.412 391.328c-2.238 2.021-5.626 2.376-8.872 1.982-3.138-.38-6.147-1.657-8.05-4.035-1.966-2.456-2.674-5.532-1.855-8.341.841-2.883 3.056-5.24 6.118-6.273 3.099-1.045 6.653-.665 9.612.968 2.953 1.63 4.967 4.366 5.556 7.405.592 3.047-.187 6.197-2.509 8.294Z" opacity=".4"/><circle r="28.511" fill="url(#d)" transform="matrix(-1 0 0 1 53.338 24.314)"/><path fill="url(#e)" d="M-23.422 15.54c0 42.394 34.367 76.76 76.76 76.76 42.392 0 76.759-34.366 76.759-76.76 0-42.392-34.367-76.758-76.76-76.758-42.392 0-76.759 34.366-76.759 76.759Zm130.491 0c0 29.676-24.056 53.732-53.732 53.732-29.675 0-53.73-24.056-53.73-53.731S23.662-38.19 53.336-38.19c29.676 0 53.732 24.056 53.732 53.73Z"/><path fill="url(#f)" d="M-65.09 15.542c0 65.002 53.022 117.697 118.428 117.697S171.767 80.544 171.767 15.542c0-65.003-53.023-117.698-118.429-117.698S-65.09-49.461-65.09 15.542Zm213.171 0c0 52.001-42.418 94.157-94.743 94.157-52.325 0-94.743-42.156-94.743-94.157 0-52.002 42.418-94.158 94.743-94.158 52.325 0 94.743 42.156 94.743 94.158Z"/></g><defs><linearGradient id="b" x1="0" x2="1299.91" y1="217.356" y2="237.022" gradientUnits="userSpaceOnUse"><stop offset=".62" stop-color="#005BFF"/><stop offset="1" stop-color="#009FFF"/></linearGradient><linearGradient id="c" x1="821.128" x2="1720.27" y1="580.572" y2="128.814" gradientUnits="userSpaceOnUse"><stop stop-color="#FF0B5A"/><stop offset="1" stop-color="#004FED"/></linearGradient><linearGradient id="d" x1="-1.297" x2="65.923" y1="42.14" y2="38.944" gradientUnits="userSpaceOnUse"><stop stop-color="#FF0B5A"/><stop offset="1" stop-color="#004FED"/></linearGradient><linearGradient id="e" x1="133.588" x2="-47.387" y1="52.235" y2="43.632" gradientUnits="userSpaceOnUse"><stop stop-color="#FF0B5A"/><stop offset="1" stop-color="#004FED"/></linearGradient><linearGradient id="f" x1="177.153" x2="-102.058" y1="71.805" y2="58.45" gradientUnits="userSpaceOnUse"><stop stop-color="#FF0B5A"/><stop offset="1" stop-color="#004FED"/></linearGradient><clipPath id="a"><path fill="#fff" d="M0 0h1300v506.259H0z"/></clipPath></defs></svg>