<svg width="535" height="535" viewBox="0 0 535 535" fill="none" xmlns="http://www.w3.org/2000/svg">
<path d="M467.234 323.314L509.459 310.031" stroke="#B2B2B0" stroke-width="0.25" stroke-miterlimit="10"/>
<path d="M511.488 308.855C512.13 310.261 511.508 311.921 510.103 312.562C508.696 313.204 507.036 312.584 506.394 311.179C505.753 309.774 506.371 308.114 507.779 307.471C509.183 306.831 510.845 307.45 511.488 308.855Z" fill="#00344A"/>
<path d="M25.9062 530.298L199.689 423.928" stroke="#B2B2B0" stroke-width="0.25" stroke-miterlimit="10"/>
<path d="M28.6562 530.821L128.151 434.557" stroke="#B2B2B0" stroke-width="0.25" stroke-miterlimit="10"/>
<path d="M28.1328 533.568L91.5889 361.092" stroke="#B2B2B0" stroke-width="0.25" stroke-miterlimit="10"/>
<path d="M28.1328 533.568L86.0355 261.697" stroke="#B2B2B0" stroke-width="0.25" stroke-miterlimit="10"/>
<path d="M28.6562 530.821L127.15 358.895" stroke="#B2B2B0" stroke-width="0.25" stroke-miterlimit="10"/>
<path d="M28.6562 530.82L237.059 465.98" stroke="#B2B2B0" stroke-width="0.25" stroke-miterlimit="10"/>
<path d="M29.1825 528.073C30.7005 528.362 31.697 529.828 31.4087 531.343C31.1197 532.863 29.6546 533.859 28.1359 533.57C26.618 533.282 25.6207 531.817 25.909 530.299C26.198 528.782 27.6638 527.785 29.1825 528.073Z" fill="#00344A"/>
<path d="M24.4453 202.682L73.1667 237.459" stroke="#B2B2B0" stroke-width="0.25" stroke-miterlimit="10"/>
<path d="M24.4487 202.684L13.375 145.088" stroke="#B2B2B0" stroke-width="0.25" stroke-miterlimit="10"/>
<path d="M23.6486 199.985C25.1291 199.539 26.6911 200.379 27.1361 201.858C27.5818 203.338 26.7441 204.899 25.2629 205.344C23.7832 205.79 22.2211 204.951 21.7761 203.471C21.3297 201.992 22.1689 200.43 23.6486 199.985Z" fill="#00344A"/>
<path d="M13.4455 142.416C14.9259 141.971 16.488 142.811 16.933 144.29C17.3786 145.77 16.541 147.331 15.0598 147.776C13.5801 148.221 12.018 147.382 11.573 145.903C11.1266 144.424 11.9657 142.862 13.4455 142.416Z" fill="#00344A"/>
<path d="M193.956 94.3206L182.883 36.7246" stroke="#B2B2B0" stroke-width="0.25" stroke-miterlimit="10"/>
<path d="M182.961 34.0549C184.442 33.6095 186.004 34.4496 186.449 35.9286C186.894 37.4082 186.057 38.9695 184.575 39.4142C183.096 39.8596 181.534 39.0209 181.089 37.5413C180.642 36.0616 181.481 34.4996 182.961 34.0549Z" fill="#00344A"/>
<path d="M133.954 258.855C133.865 258.862 133.777 258.856 133.688 258.854L159.169 302.949C159.258 302.941 159.347 302.947 159.436 302.951L133.954 258.855Z" fill="#62818E"/>
<path d="M79.1875 398.456C79.2574 398.512 79.3236 398.571 79.3853 398.634L157.867 307.323C157.796 307.269 157.723 307.217 157.659 307.156L79.1875 398.456Z" fill="#62818E"/>
<path d="M101.84 410.604C101.86 410.516 101.876 410.429 101.905 410.344L79.2878 402.145C79.2121 402.213 79.1385 402.284 79.0547 402.344L101.84 410.604Z" fill="#62818E"/>
<path d="M103.194 413.354L82.4297 488.421C82.5282 488.373 82.6327 488.342 82.7364 488.31L103.441 413.462C103.424 413.457 103.408 413.454 103.391 413.449C103.321 413.423 103.261 413.384 103.194 413.354Z" fill="#62818E"/>
<path d="M136.08 257.249C136.542 255.975 135.884 254.569 134.61 254.109C133.337 253.646 131.931 254.305 131.468 255.578C131.006 256.85 131.664 258.255 132.938 258.718C133.186 258.807 133.438 258.843 133.688 258.853C133.778 258.855 133.866 258.862 133.955 258.855C134.888 258.784 135.739 258.186 136.08 257.249Z" fill="#62818E"/>
<path d="M160.188 303.084C159.941 302.994 159.688 302.958 159.438 302.949C159.349 302.945 159.26 302.94 159.171 302.947C158.237 303.017 157.386 303.616 157.046 304.552C156.704 305.493 156.977 306.505 157.657 307.156C157.721 307.216 157.794 307.268 157.864 307.323C158.06 307.474 158.273 307.606 158.515 307.695C159.789 308.156 161.195 307.497 161.656 306.225C162.119 304.952 161.462 303.545 160.188 303.084Z" fill="#62818E"/>
<path d="M78.4771 398.04C77.2026 397.578 75.7964 398.237 75.3353 399.509C74.8734 400.782 75.5302 402.188 76.804 402.65C77.5894 402.935 78.4234 402.792 79.0566 402.343C79.1405 402.284 79.214 402.212 79.2898 402.144C79.5729 401.885 79.8061 401.565 79.9465 401.179C80.2782 400.264 80.0245 399.284 79.3847 398.632C79.3229 398.569 79.2567 398.51 79.1868 398.455C78.9787 398.284 78.7456 398.138 78.4771 398.04Z" fill="#62818E"/>
<path d="M103.189 413.353C103.256 413.384 103.316 413.422 103.387 413.449C103.403 413.454 103.419 413.457 103.436 413.461C104.696 413.889 106.072 413.236 106.528 411.979C106.99 410.706 106.333 409.299 105.06 408.839C103.785 408.377 102.378 409.036 101.917 410.308C101.913 410.32 101.912 410.332 101.907 410.345C101.878 410.43 101.861 410.517 101.842 410.605C101.589 411.721 102.144 412.864 103.189 413.353Z" fill="#62818E"/>
<path d="M82.4253 488.422C81.859 488.686 81.3934 489.168 81.1632 489.802C80.7014 491.075 81.3596 492.482 82.6327 492.943C83.9057 493.405 85.3134 492.747 85.7752 491.475C86.2371 490.202 85.5789 488.794 84.3065 488.333C83.7785 488.142 83.2298 488.154 82.7327 488.311C82.6282 488.343 82.5238 488.374 82.4253 488.422Z" fill="#62818E"/>
<path d="M520.261 173.347C520.176 173.318 520.097 173.278 520.016 173.24L526.157 223.791C526.241 223.819 526.321 223.858 526.402 223.898L520.261 173.347Z" fill="#62818E"/>
<path d="M415.102 280.303C415.144 280.382 415.181 280.462 415.213 280.544L523.233 227.305C523.19 227.228 523.144 227.151 523.108 227.07L415.102 280.303Z" fill="#62818E"/>
<path d="M431.179 300.357C431.232 300.284 431.281 300.21 431.342 300.143L413.752 283.736C413.657 283.769 413.56 283.807 413.461 283.828L431.179 300.357Z" fill="#62818E"/>
<path d="M431.334 303.414L382.781 364.332C382.891 364.326 382.999 364.338 383.107 364.349L431.52 303.61C431.505 303.599 431.492 303.59 431.478 303.579C431.424 303.527 431.383 303.468 431.334 303.414Z" fill="#62818E"/>
<path d="M522.84 172.704C523.765 171.714 523.712 170.162 522.72 169.24C521.731 168.315 520.178 168.369 519.253 169.359C518.329 170.349 518.383 171.899 519.373 172.823C519.567 173.003 519.784 173.134 520.01 173.242C520.092 173.279 520.171 173.32 520.255 173.348C521.141 173.65 522.159 173.434 522.84 172.704Z" fill="#62818E"/>
<path d="M527.04 224.318C526.845 224.138 526.628 224.007 526.403 223.901C526.322 223.862 526.242 223.823 526.158 223.794C525.272 223.492 524.252 223.71 523.572 224.437C522.888 225.169 522.742 226.207 523.112 227.072C523.148 227.152 523.194 227.229 523.237 227.306C523.358 227.522 523.501 227.726 523.691 227.904C524.682 228.827 526.234 228.773 527.157 227.783C528.082 226.793 528.03 225.241 527.04 224.318Z" fill="#62818E"/>
<path d="M414.619 279.642C413.627 278.718 412.077 278.772 411.153 279.761C410.227 280.751 410.281 282.302 411.272 283.227C411.882 283.796 412.705 283.992 413.464 283.827C413.564 283.806 413.66 283.768 413.755 283.735C414.117 283.609 414.458 283.406 414.738 283.107C415.402 282.394 415.553 281.394 415.22 280.543C415.188 280.461 415.15 280.381 415.108 280.302C414.985 280.063 414.828 279.836 414.619 279.642Z" fill="#62818E"/>
<path d="M431.343 303.415C431.392 303.47 431.433 303.529 431.487 303.581C431.5 303.592 431.514 303.601 431.528 303.612C432.52 304.499 434.041 304.437 434.953 303.46C435.879 302.47 435.826 300.919 434.835 299.996C433.844 299.071 432.292 299.125 431.368 300.116C431.359 300.124 431.354 300.135 431.345 300.145C431.284 300.212 431.236 300.285 431.182 300.359C430.511 301.286 430.573 302.556 431.343 303.415Z" fill="#62818E"/>
<path d="M382.784 364.332C382.159 364.353 381.543 364.613 381.082 365.107C380.157 366.097 380.211 367.649 381.201 368.573C382.191 369.496 383.745 369.443 384.668 368.454C385.593 367.464 385.54 365.91 384.549 364.987C384.139 364.604 383.629 364.401 383.111 364.35C383.002 364.338 382.894 364.326 382.784 364.332Z" fill="#62818E"/>
<path d="M438.831 390.942C438.832 390.86 438.837 390.779 438.847 390.699L348.711 397.199C348.729 397.278 348.751 397.357 348.762 397.437L438.831 390.942Z" fill="#62818E"/>
<path d="M388.078 464.875C388.14 464.916 388.206 464.949 388.265 464.995C388.271 465 388.274 465.005 388.28 465.008L440.213 393.023C440.136 392.991 440.06 392.963 439.987 392.922L388.078 464.875Z" fill="#62818E"/>
<path d="M347.497 399.713C347.423 399.747 347.35 399.783 347.273 399.807L385.673 464.895C385.742 464.851 385.808 464.804 385.878 464.769L347.497 399.713Z" fill="#62818E"/>
<path d="M343.814 298.668C343.738 298.714 343.658 298.754 343.578 298.789L345.892 395.614C345.971 395.59 346.051 395.576 346.132 395.561L343.814 298.668Z" fill="#62818E"/>
<path d="M313.609 367.815C313.687 367.836 313.76 367.868 313.836 367.898L342.585 298.985C342.502 298.983 342.418 298.971 342.337 298.959L313.609 367.815Z" fill="#62818E"/>
<path d="M251.388 346.926C251.372 347.004 251.347 347.079 251.32 347.155L311.106 368.906C311.144 368.834 311.192 368.767 311.237 368.7L251.388 346.926Z" fill="#62818E"/>
<path d="M443.147 391.623C443.122 391.703 443.089 391.784 443.055 391.862L503.297 444.938C503.364 444.888 503.431 444.84 503.501 444.798L443.147 391.623Z" fill="#62818E"/>
<path d="M529.857 414.092L505.562 444.688C505.635 444.722 505.704 444.765 505.775 444.808L529.996 414.304C529.948 414.234 529.896 414.166 529.857 414.092Z" fill="#62818E"/>
<path d="M385.368 468.307L366.797 489.716C366.851 489.778 366.899 489.846 366.944 489.913L385.545 468.471C385.538 468.465 385.531 468.462 385.524 468.458C385.466 468.412 385.421 468.356 385.368 468.307Z" fill="#62818E"/>
<path d="M250.609 344.7C249.652 343.941 248.262 344.101 247.503 345.057C246.744 346.013 246.903 347.404 247.861 348.163C248.817 348.921 250.208 348.761 250.967 347.805C251.125 347.605 251.235 347.385 251.314 347.156C251.341 347.08 251.366 347.005 251.382 346.927C251.567 346.122 251.3 345.247 250.609 344.7Z" fill="#62818E"/>
<path d="M311.312 368.576C311.281 368.616 311.261 368.657 311.233 368.698C311.188 368.765 311.14 368.834 311.102 368.905C310.602 369.83 310.816 371.006 311.669 371.681C312.626 372.44 314.017 372.28 314.776 371.326C315.536 370.369 315.375 368.978 314.419 368.219C314.239 368.076 314.041 367.977 313.838 367.898C313.762 367.869 313.688 367.836 313.611 367.816C312.787 367.598 311.876 367.867 311.312 368.576Z" fill="#62818E"/>
<path d="M344.404 298.158C345.163 297.202 345.004 295.813 344.047 295.054C343.089 294.294 341.699 294.454 340.94 295.411C340.181 296.367 340.341 297.756 341.298 298.516C341.61 298.763 341.97 298.904 342.338 298.96C342.42 298.973 342.503 298.984 342.586 298.986C342.927 298.999 343.264 298.931 343.578 298.789C343.658 298.754 343.739 298.713 343.814 298.668C344.033 298.536 344.235 298.37 344.404 298.158Z" fill="#62818E"/>
<path d="M348.303 399.089C348.689 398.604 348.835 398.006 348.763 397.437C348.752 397.358 348.731 397.278 348.712 397.2C348.6 396.736 348.348 396.302 347.945 395.984C347.413 395.562 346.747 395.433 346.129 395.561C346.049 395.576 345.969 395.589 345.89 395.613C345.49 395.743 345.12 395.986 344.839 396.341C344.08 397.297 344.239 398.687 345.196 399.447C345.804 399.928 346.587 400.037 347.271 399.808C347.347 399.783 347.42 399.747 347.494 399.714C347.799 399.572 348.08 399.37 348.303 399.089Z" fill="#62818E"/>
<path d="M388.082 464.875C387.404 464.44 386.565 464.413 385.879 464.769C385.808 464.805 385.742 464.851 385.674 464.895C385.487 465.02 385.311 465.167 385.163 465.353C384.45 466.251 384.557 467.527 385.364 468.307C385.417 468.357 385.462 468.412 385.52 468.458C385.527 468.463 385.535 468.466 385.541 468.471C386.497 469.211 387.873 469.05 388.627 468.1C389.382 467.15 389.226 465.769 388.283 465.008C388.278 465.004 388.274 464.999 388.268 464.994C388.209 464.95 388.143 464.917 388.082 464.875Z" fill="#62818E"/>
<path d="M366.518 489.446C365.559 488.687 364.169 488.847 363.409 489.804C362.65 490.759 362.81 492.149 363.767 492.909C364.724 493.668 366.113 493.507 366.873 492.551C367.497 491.766 367.491 490.694 366.943 489.913C366.898 489.846 366.85 489.778 366.796 489.716C366.71 489.621 366.621 489.529 366.518 489.446Z" fill="#62818E"/>
<path d="M442.413 389.248C441.456 388.489 440.065 388.65 439.305 389.606C439.045 389.933 438.902 390.314 438.852 390.699C438.841 390.779 438.837 390.86 438.836 390.942C438.825 391.605 439.103 392.266 439.664 392.712C439.769 392.794 439.879 392.86 439.993 392.922C440.067 392.963 440.142 392.991 440.219 393.023C441.103 393.377 442.147 393.137 442.77 392.354C442.892 392.199 442.982 392.033 443.058 391.861C443.092 391.783 443.125 391.702 443.15 391.622C443.406 390.779 443.146 389.83 442.413 389.248Z" fill="#62818E"/>
<path d="M503.499 444.798C503.428 444.841 503.361 444.888 503.295 444.938C503.153 445.046 503.017 445.169 502.902 445.315C502.142 446.271 502.302 447.661 503.258 448.42C504.215 449.179 505.606 449.019 506.365 448.063C507.124 447.107 506.965 445.716 506.01 444.957C505.935 444.898 505.854 444.854 505.776 444.808C505.704 444.765 505.635 444.723 505.563 444.689C504.894 444.379 504.122 444.426 503.499 444.798Z" fill="#62818E"/>
<path d="M530.437 414.788C531.394 415.547 532.783 415.386 533.543 414.43C534.303 413.473 534.143 412.083 533.187 411.325C532.23 410.566 530.84 410.727 530.08 411.681C529.516 412.391 529.461 413.339 529.86 414.091C529.899 414.165 529.951 414.233 529.999 414.303C530.12 414.48 530.26 414.648 530.437 414.788Z" fill="#62818E"/>
<path d="M484.029 62.0482L494.187 29.0229C494.092 29.0104 494 28.992 493.909 28.9707L483.754 61.9931L459.914 57.2549C459.933 57.3519 459.938 57.4504 459.947 57.5475L483.67 62.2651L475.369 89.2607C475.464 89.2622 475.561 89.271 475.657 89.2828L483.948 62.3195L503.719 66.2505C503.732 66.1579 503.754 66.066 503.779 65.9749L484.029 62.0482Z" fill="#62818E"/>
<path d="M428.027 111.632L436.105 96.1257C436.019 96.0882 435.933 96.0485 435.851 96L427.784 111.488L406.536 98.6741C406.499 98.7601 406.455 98.8432 406.409 98.9263L427.654 111.737L384.734 194.137C384.812 194.195 384.89 194.246 384.962 194.313L427.898 111.882L453.271 127.184C453.314 127.1 453.358 127.019 453.412 126.941L428.027 111.632Z" fill="#62818E"/>
<path d="M279.359 258.803C279.417 258.87 279.479 258.928 279.531 259.003C279.534 259.008 279.537 259.015 279.541 259.02L353.19 207.183C353.099 207.136 353.012 207.086 352.925 207.025L279.359 258.803Z" fill="#62818E"/>
<path d="M456.396 92.3655L457.022 60.3369C456.926 60.3229 456.834 60.3023 456.74 60.2773L456.114 92.3831L439.734 93.4629C439.746 93.5555 439.764 93.6489 439.765 93.743L456.107 92.6661L455.46 125.808C455.555 125.805 455.649 125.813 455.743 125.82L456.389 92.6463L472.743 91.5694C472.754 91.4738 472.765 91.3783 472.787 91.2842L456.396 92.3655Z" fill="#62818E"/>
<path d="M369.677 173.422L403.198 100.105C403.112 100.072 403.031 100.023 402.945 99.9805L369.499 173.139L348.958 140.74C348.899 140.816 348.836 140.892 348.766 140.962L369.358 173.445L355.927 202.823C356.004 202.88 356.083 202.933 356.155 203L369.538 173.729L382.25 193.782C382.342 193.748 382.434 193.718 382.528 193.694L369.677 173.422Z" fill="#62818E"/>
<path d="M496.001 28.5845C497.176 27.7642 497.464 26.1485 496.642 24.9747C495.823 23.8015 494.205 23.5148 493.031 24.3344C491.857 25.1525 491.569 26.7697 492.39 27.9428C492.768 28.4838 493.317 28.8271 493.912 28.9704C494.003 28.9917 494.095 29.0101 494.19 29.0226C494.805 29.1005 495.451 28.969 496.001 28.5845Z" fill="#62818E"/>
<path d="M508.41 65.1288C507.59 63.9556 505.972 63.669 504.798 64.4893C504.267 64.8583 503.929 65.3927 503.781 65.9734C503.757 66.0645 503.735 66.1557 503.722 66.249C503.633 66.8768 503.765 67.5376 504.156 68.0991C504.977 69.273 506.594 69.5597 507.768 68.7409C508.944 67.9198 509.229 66.3041 508.41 65.1288Z" fill="#62818E"/>
<path d="M458.859 59.9004C459.649 59.3498 460.025 58.4406 459.949 57.5467C459.94 57.4497 459.935 57.3512 459.916 57.2542C459.846 56.9175 459.711 56.5897 459.502 56.2905C458.681 55.1152 457.064 54.8292 455.889 55.6496C454.715 56.4699 454.429 58.0848 455.249 59.2602C455.621 59.7916 456.158 60.1305 456.741 60.2767C456.834 60.301 456.926 60.3223 457.022 60.3363C457.645 60.4223 458.301 60.2892 458.859 59.9004Z" fill="#62818E"/>
<path d="M473.825 89.7204C473.271 90.1085 472.921 90.6745 472.786 91.2861C472.765 91.3802 472.753 91.475 472.742 91.5713C472.678 92.1711 472.811 92.7974 473.185 93.331C474.005 94.5049 475.621 94.793 476.795 93.9727C477.971 93.1524 478.257 91.536 477.438 90.3621C477.005 89.7425 476.349 89.3793 475.656 89.2845C475.559 89.2728 475.463 89.2639 475.368 89.2625C474.835 89.25 474.296 89.3926 473.825 89.7204Z" fill="#62818E"/>
<path d="M438.657 95.8979C439.387 95.3886 439.773 94.5712 439.766 93.7428C439.765 93.6487 439.747 93.5561 439.736 93.4627C439.688 93.0533 439.552 92.6505 439.3 92.2874C438.479 91.1135 436.862 90.8275 435.687 91.6471C434.512 92.4675 434.226 94.0824 435.046 95.2562C435.265 95.5701 435.545 95.8156 435.854 95.9979C435.935 96.0464 436.022 96.0861 436.108 96.1236C436.913 96.4897 437.879 96.4412 438.657 95.8979Z" fill="#62818E"/>
<path d="M455.459 125.807C454.976 125.823 454.492 125.971 454.065 126.27C453.798 126.456 453.584 126.686 453.411 126.941C453.357 127.018 453.312 127.099 453.27 127.183C452.827 128.015 452.845 129.054 453.423 129.879C454.244 131.053 455.861 131.339 457.034 130.52C458.21 129.699 458.497 128.084 457.676 126.909C457.212 126.244 456.492 125.876 455.741 125.82C455.647 125.813 455.554 125.804 455.459 125.807Z" fill="#62818E"/>
<path d="M405.626 99.8191C405.968 99.5794 406.226 99.2685 406.412 98.9245C406.458 98.8414 406.502 98.7584 406.539 98.6724C406.859 97.8851 406.791 96.9582 406.268 96.2099C405.448 95.0353 403.83 94.7494 402.656 95.569C401.481 96.3878 401.194 98.0042 402.015 99.1781C402.261 99.5309 402.584 99.7933 402.941 99.9808C403.026 100.023 403.108 100.072 403.194 100.106C403.974 100.412 404.887 100.336 405.626 99.8191Z" fill="#62818E"/>
<path d="M384.738 194.136C384.105 193.658 383.29 193.495 382.525 193.695C382.431 193.72 382.339 193.749 382.247 193.784C382.057 193.857 381.871 193.948 381.695 194.07C380.521 194.889 380.233 196.505 381.054 197.679C381.874 198.853 383.491 199.14 384.665 198.32C385.84 197.5 386.128 195.885 385.307 194.71C385.205 194.564 385.091 194.431 384.965 194.313C384.894 194.246 384.816 194.194 384.738 194.136Z" fill="#62818E"/>
<path d="M352.905 202.776C351.73 203.595 351.445 205.212 352.265 206.386C352.446 206.647 352.673 206.856 352.921 207.027C353.008 207.087 353.095 207.137 353.186 207.185C354.017 207.622 355.053 207.601 355.876 207.027C357.051 206.206 357.338 204.591 356.517 203.416C356.409 203.261 356.285 203.123 356.152 203C356.08 202.933 356.001 202.88 355.924 202.823C355.053 202.181 353.842 202.122 352.905 202.776Z" fill="#62818E"/>
<path d="M348.951 140.743C349.654 139.867 349.739 138.609 349.064 137.644C348.244 136.468 346.626 136.183 345.452 137.003C344.278 137.823 343.991 139.438 344.812 140.612C345.631 141.786 347.249 142.072 348.422 141.253C348.546 141.166 348.655 141.067 348.759 140.964C348.829 140.895 348.892 140.819 348.951 140.743Z" fill="#62818E"/>
<path d="M279.354 258.803C278.496 257.807 277.015 257.594 275.914 258.362C274.739 259.182 274.452 260.798 275.272 261.972C276.093 263.145 277.71 263.433 278.884 262.613C280.054 261.797 280.341 260.193 279.536 259.02C279.531 259.015 279.529 259.008 279.526 259.003C279.474 258.929 279.412 258.87 279.354 258.803Z" fill="#62818E"/>
<path d="M173.391 268.052C173.571 268.046 173.749 268.057 173.925 268.075L173.691 266.125L173.391 268.052Z" fill="#62818E"/>
<path d="M170.427 269.651C170.511 269.54 170.601 269.432 170.697 269.328L6.54124 104.262C6.44931 104.366 6.3537 104.466 6.25 104.562L170.427 269.651Z" fill="#62818E"/>
<path d="M172.491 268.206L69.5042 28.9727C69.3954 29.0278 69.2961 29.0961 69.1806 29.1454C69.1659 29.152 69.1475 29.1535 69.1328 29.1601L172.091 268.329C172.091 268.327 172.092 268.328 172.093 268.327C172.224 268.272 172.358 268.246 172.491 268.206Z" fill="#62818E"/>
<path d="M173.699 266.122L173.933 268.072C174.075 268.088 174.215 268.098 174.353 268.13L173.934 264.621L197.852 111.725C197.712 111.75 197.571 111.754 197.431 111.764L173.755 263.12L155.659 111.913C155.521 111.941 155.386 111.947 155.25 111.961L173.521 264.623L172.978 268.089C173.118 268.067 173.258 268.055 173.398 268.049L173.699 266.122Z" fill="#62818E"/>
<path d="M169.912 273.308C170.655 275.258 172.835 276.182 174.782 275.377C176.727 274.571 177.702 272.34 176.958 270.392C176.503 269.196 175.501 268.391 174.347 268.131C174.209 268.099 174.068 268.089 173.926 268.073C173.75 268.055 173.572 268.045 173.392 268.05C173.252 268.056 173.111 268.068 172.972 268.091C172.81 268.115 172.65 268.159 172.488 268.206C172.355 268.245 172.221 268.272 172.089 268.325C172.089 268.327 172.088 268.326 172.088 268.328C171.537 268.554 171.073 268.908 170.695 269.327C170.6 269.431 170.509 269.538 170.426 269.65C169.675 270.683 169.431 272.052 169.912 273.308Z" fill="#62818E"/>
<path d="M0.249608 103.228C0.992412 105.174 3.17376 106.101 5.11976 105.295C5.55 105.116 5.92287 104.861 6.25088 104.561C6.35458 104.465 6.45019 104.365 6.54212 104.261C7.47393 103.204 7.8218 101.691 7.29448 100.311C6.55094 98.3641 4.37107 97.4379 2.42507 98.2443C0.479803 99.0492 -0.493932 101.281 0.249608 103.228Z" fill="#62818E"/>
<path d="M69.505 28.9737C71.2245 28.0615 72.0585 25.9931 71.359 24.1606C70.6148 22.2134 68.4342 21.2887 66.4889 22.0929C64.5429 22.8977 63.5677 25.1294 64.3127 27.0773C65.0496 29.0097 67.2008 29.9293 69.1336 29.1604C69.149 29.1538 69.1667 29.1523 69.1814 29.1457C69.2968 29.0972 69.3961 29.0288 69.505 28.9737Z" fill="#62818E"/>
<path d="M155.653 111.914C155.884 111.866 156.117 111.801 156.346 111.705C158.292 110.898 159.266 108.667 158.522 106.719C157.778 104.773 155.599 103.846 153.654 104.652C151.708 105.457 150.732 107.689 151.476 109.638C152.083 111.221 153.637 112.11 155.244 111.963C155.38 111.947 155.515 111.942 155.653 111.914Z" fill="#62818E"/>
<path d="M198.611 111.501C200.558 110.696 201.532 108.465 200.789 106.516C200.044 104.569 197.867 103.643 195.919 104.449C193.973 105.255 192.997 107.486 193.742 109.433C194.338 110.991 195.852 111.876 197.429 111.765C197.57 111.755 197.71 111.75 197.851 111.725C198.104 111.678 198.359 111.604 198.611 111.501Z" fill="#62818E"/>
<path d="M128.018 125.045L94.1641 204.536" stroke="#00344A" stroke-width="0.25" stroke-miterlimit="10"/>
<path d="M94.1641 204.536L161.918 185.467" stroke="#00344A" stroke-width="0.25" stroke-miterlimit="10"/>
<path d="M161.773 186.662L193.56 94.2012" stroke="#00344A" stroke-width="0.25" stroke-miterlimit="10"/>
<path d="M127.203 126.764L212.57 127.387" stroke="#00344A" stroke-width="0.25" stroke-miterlimit="10"/>
<path d="M212.57 127.386L272.71 71.0566" stroke="#00344A" stroke-width="0.25" stroke-miterlimit="10"/>
<path d="M272.109 71.0078L344.425 109.422" stroke="#00344A" stroke-width="0.25" stroke-miterlimit="10"/>
<path d="M344.43 109.42L387.972 155.24" stroke="#00344A" stroke-width="0.25" stroke-miterlimit="10"/>
<path d="M387.969 155.241L444.364 128.885" stroke="#00344A" stroke-width="0.25" stroke-miterlimit="10"/>
<path d="M445.168 128.234L429.75 190.572" stroke="#00344A" stroke-width="0.25" stroke-miterlimit="10"/>
<path d="M429.75 190.572L490.794 247.005" stroke="#00344A" stroke-width="0.25" stroke-miterlimit="10"/>
<path d="M490.796 247.004L420.32 293.605" stroke="#00344A" stroke-width="0.25" stroke-miterlimit="10"/>
<path d="M420.32 293.605L462.489 350.788" stroke="#00344A" stroke-width="0.25" stroke-miterlimit="10"/>
<path d="M462.106 348.924L411.93 377.99" stroke="#00344A" stroke-width="0.25" stroke-miterlimit="10"/>
<path d="M411.933 377.99L393.148 438.104" stroke="#00344A" stroke-width="0.25" stroke-miterlimit="10"/>
<path d="M393.143 438.104L308.852 433.916" stroke="#00344A" stroke-width="0.25" stroke-miterlimit="10"/>
<path d="M308.881 433.375L239.539 465.576" stroke="#00344A" stroke-width="0.25" stroke-miterlimit="10"/>
<path d="M239.545 465.577L199.695 423.928" stroke="#00344A" stroke-width="0.25" stroke-miterlimit="10"/>
<path d="M201.679 422.846L128.148 434.556" stroke="#00344A" stroke-width="0.25" stroke-miterlimit="10"/>
<path d="M128.152 434.555L127.312 356.32" stroke="#00344A" stroke-width="0.25" stroke-miterlimit="10"/>
<path d="M127.312 356.321L79.8125 328.174" stroke="#00344A" stroke-width="0.25" stroke-miterlimit="10"/>
<path d="M79.8125 328.175L114.921 263.371" stroke="#00344A" stroke-width="0.25" stroke-miterlimit="10"/>
<path d="M114.924 263.37L94.1641 204.535" stroke="#00344A" stroke-width="0.25" stroke-miterlimit="10"/>
<path d="M161.774 186.662L86.0391 261.699" stroke="#00344A" stroke-width="0.25" stroke-miterlimit="10"/>
<path d="M86.0391 261.697L122.794 308.535" stroke="#00344A" stroke-width="0.25" stroke-miterlimit="10"/>
<path d="M122.795 308.535L91.5938 361.092" stroke="#00344A" stroke-width="0.25" stroke-miterlimit="10"/>
<path d="M91.8047 359.299L166.659 361.68" stroke="#00344A" stroke-width="0.25" stroke-miterlimit="10"/>
<path d="M166.656 361.682L214.936 453.519" stroke="#00344A" stroke-width="0.25" stroke-miterlimit="10"/>
<path d="M215.367 453.245L247.976 434.398" stroke="#00344A" stroke-width="0.25" stroke-miterlimit="10"/>
<path d="M247.547 434.443L298.143 472.051" stroke="#00344A" stroke-width="0.25" stroke-miterlimit="10"/>
<path d="M297.75 471.954L332.819 410.828" stroke="#00344A" stroke-width="0.25" stroke-miterlimit="10"/>
<path d="M332.703 411.062L401.322 430.613" stroke="#00344A" stroke-width="0.25" stroke-miterlimit="10"/>
<path d="M401.328 430.612L425.83 363.314" stroke="#00344A" stroke-width="0.25" stroke-miterlimit="10"/>
<path d="M425.828 363.316L468.056 324.811" stroke="#00344A" stroke-width="0.25" stroke-miterlimit="10"/>
<path d="M468.056 324.811L438.789 266.16" stroke="#00344A" stroke-width="0.25" stroke-miterlimit="10"/>
<path d="M438.789 266.16L472.695 181.225" stroke="#00344A" stroke-width="0.25" stroke-miterlimit="10"/>
<path d="M472.69 181.223L427.156 176.934" stroke="#00344A" stroke-width="0.25" stroke-miterlimit="10"/>
<path d="M427.166 176.933L420.555 111.328" stroke="#00344A" stroke-width="0.25" stroke-miterlimit="10"/>
<path d="M420.556 111.328L345.039 129.46" stroke="#00344A" stroke-width="0.25" stroke-miterlimit="10"/>
<path d="M345.925 130.114L314.43 71.8574" stroke="#00344A" stroke-width="0.25" stroke-miterlimit="10"/>
<path d="M314.426 71.8574L260.016 105.863" stroke="#00344A" stroke-width="0.25" stroke-miterlimit="10"/>
<path d="M260.017 105.863L193.469 94.293" stroke="#00344A" stroke-width="0.25" stroke-miterlimit="10"/>
<path d="M132.352 164.166L181.06 126.619" stroke="#00344A" stroke-width="0.25" stroke-miterlimit="10"/>
<path d="M132.352 164.166L127.203 126.764" stroke="#00344A" stroke-width="0.25" stroke-miterlimit="10"/>
<path d="M193.562 94.2013L224.959 69.9805" stroke="#00344A" stroke-width="0.25" stroke-miterlimit="10"/>
<path d="M246.286 117.413L224.953 69.9805" stroke="#00344A" stroke-width="0.25" stroke-miterlimit="10"/>
<path d="M132.354 164.166L94.1641 204.535" stroke="#00344A" stroke-width="0.25" stroke-miterlimit="10"/>
<path d="M106 240.725L73.7031 236.822" stroke="#00344A" stroke-width="0.25" stroke-miterlimit="10"/>
<path d="M73.7031 236.822L86.041 261.698" stroke="#00344A" stroke-width="0.25" stroke-miterlimit="10"/>
<path d="M91.5938 361.092L130.21 435.174" stroke="#00344A" stroke-width="0.25" stroke-miterlimit="10"/>
<path d="M214.938 453.52L239.537 465.577" stroke="#00344A" stroke-width="0.25" stroke-miterlimit="10"/>
<path d="M332.82 410.829L411.933 377.99" stroke="#00344A" stroke-width="0.25" stroke-miterlimit="10"/>
<path d="M468.055 324.81L490.795 247.004" stroke="#00344A" stroke-width="0.25" stroke-miterlimit="10"/>
<path d="M314.43 71.8574L420.551 111.328" stroke="#00344A" stroke-width="0.25" stroke-miterlimit="10"/>
<path d="M387.969 155.24L429.751 190.571" stroke="#00344A" stroke-width="0.25" stroke-miterlimit="10"/>
<path d="M246.289 117.413L330.002 102.607" stroke="#00344A" stroke-width="0.25" stroke-miterlimit="10"/>
<path d="M472.695 181.225L481.471 204.923" stroke="#00344A" stroke-width="0.25" stroke-miterlimit="10"/>
<path d="M481.47 204.922L425.078 229.436" stroke="#00344A" stroke-width="0.25" stroke-miterlimit="10"/>
<path d="M425.078 229.436L438.788 266.159" stroke="#00344A" stroke-width="0.25" stroke-miterlimit="10"/>
<path d="M239.273 464.016L297.726 493.149" stroke="#00344A" stroke-width="0.25" stroke-miterlimit="10"/>
<path d="M297.727 493.148L346.003 435.613" stroke="#00344A" stroke-width="0.25" stroke-miterlimit="10"/>
<path d="M242.282 102.546C242.096 104.079 240.701 105.173 239.167 104.987C237.632 104.801 236.538 103.408 236.724 101.874C236.909 100.341 238.303 99.2473 239.839 99.4326C241.373 99.6171 242.467 101.011 242.282 102.546Z" fill="#00344A"/>
<path d="M214.859 127.774C214.673 129.307 213.279 130.401 211.744 130.216C210.21 130.031 209.116 128.637 209.302 127.103C209.487 125.57 210.881 124.476 212.416 124.661C213.951 124.846 215.044 126.241 214.859 127.774Z" fill="#00344A"/>
<path d="M135.284 163.542C135.098 165.076 133.702 166.169 132.167 165.984C130.633 165.799 129.538 164.405 129.724 162.871C129.909 161.336 131.305 160.243 132.839 160.429C134.374 160.615 135.469 162.008 135.284 163.542Z" fill="#00344A"/>
<path d="M164.155 186.485C163.97 188.019 162.575 189.112 161.041 188.927C159.506 188.742 158.413 187.347 158.599 185.814C158.784 184.28 160.178 183.187 161.713 183.372C163.247 183.557 164.34 184.951 164.155 186.485Z" fill="#00344A"/>
<path d="M109.79 241.514C109.605 243.047 108.209 244.141 106.675 243.955C105.14 243.77 104.046 242.376 104.231 240.842C104.417 239.308 105.813 238.216 107.347 238.401C108.88 238.587 109.975 239.98 109.79 241.514Z" fill="#00344A"/>
<path d="M88.8112 262.032C88.6259 263.566 87.2314 264.66 85.6973 264.474C84.1624 264.289 83.0695 262.894 83.2549 261.36C83.4402 259.828 84.8346 258.733 86.3688 258.919C87.9029 259.105 88.9965 260.499 88.8112 262.032Z" fill="#00344A"/>
<path d="M117.702 263.705C117.516 265.238 116.123 266.332 114.588 266.147C113.054 265.962 111.96 264.567 112.145 263.033C112.331 261.5 113.724 260.407 115.259 260.593C116.794 260.778 117.887 262.172 117.702 263.705Z" fill="#00344A"/>
<path d="M106.188 284.819C106.002 286.353 104.606 287.445 103.074 287.26C101.538 287.074 100.445 285.681 100.63 284.148C100.815 282.614 102.21 281.52 103.745 281.706C105.279 281.891 106.374 283.285 106.188 284.819Z" fill="#00344A"/>
<path d="M82.5939 328.51C82.4078 330.044 81.0141 331.137 79.4785 330.951C77.9458 330.766 76.8507 329.373 77.0361 327.839C77.2214 326.305 78.6173 325.212 80.15 325.397C81.6863 325.583 82.7792 326.977 82.5939 328.51Z" fill="#00344A"/>
<path d="M125.569 308.87C125.384 310.404 123.989 311.497 122.455 311.312C120.921 311.126 119.827 309.733 120.013 308.199C120.198 306.665 121.592 305.572 123.127 305.757C124.661 305.941 125.754 307.336 125.569 308.87Z" fill="#00344A"/>
<path d="M105.797 342.223C105.612 343.757 104.217 344.85 102.682 344.665C101.149 344.48 100.054 343.086 100.239 341.551C100.425 340.019 101.82 338.925 103.353 339.11C104.889 339.295 105.982 340.69 105.797 342.223Z" fill="#00344A"/>
<path d="M95.2033 360.579C95.0179 362.114 93.6235 363.207 92.0879 363.021C90.5545 362.836 89.4601 361.442 89.6455 359.908C89.8308 358.375 91.2267 357.283 92.7594 357.468C94.295 357.652 95.3886 359.046 95.2033 360.579Z" fill="#00344A"/>
<path d="M130.267 356.45C130.082 357.986 128.686 359.079 127.151 358.893C125.617 358.708 124.522 357.314 124.708 355.779C124.893 354.247 126.289 353.153 127.823 353.339C129.358 353.524 130.453 354.919 130.267 356.45Z" fill="#00344A"/>
<path d="M168.672 362.289C168.487 363.821 167.093 364.915 165.557 364.729C164.023 364.544 162.929 363.149 163.114 361.617C163.3 360.083 164.695 358.99 166.229 359.175C167.764 359.36 168.858 360.754 168.672 362.289Z" fill="#00344A"/>
<path d="M131.429 434.148C131.243 435.683 129.849 436.776 128.314 436.591C126.78 436.405 125.687 435.012 125.872 433.476C126.057 431.945 127.452 430.851 128.986 431.036C130.521 431.221 131.614 432.616 131.429 434.148Z" fill="#00344A"/>
<path d="M202.711 423.854C202.526 425.388 201.131 426.481 199.597 426.295C198.062 426.11 196.968 424.716 197.153 423.183C197.339 421.648 198.733 420.555 200.269 420.741C201.802 420.926 202.896 422.319 202.711 423.854Z" fill="#00344A"/>
<path d="M251.141 435.519C250.956 437.053 249.561 438.148 248.025 437.962C246.492 437.777 245.397 436.382 245.583 434.848C245.768 433.314 247.164 432.222 248.697 432.407C250.233 432.592 251.326 433.987 251.141 435.519Z" fill="#00344A"/>
<path d="M300.728 472.132C300.543 473.668 299.148 474.761 297.613 474.575C296.079 474.389 294.984 472.997 295.169 471.461C295.355 469.928 296.75 468.835 298.285 469.021C299.819 469.206 300.913 470.6 300.728 472.132Z" fill="#00344A"/>
<path d="M300.367 493.18C300.181 494.715 298.786 495.808 297.253 495.622C295.717 495.436 294.624 494.043 294.81 492.508C294.995 490.976 296.389 489.881 297.925 490.067C299.458 490.253 300.553 491.647 300.367 493.18Z" fill="#00344A"/>
<path d="M310.873 434.163C310.688 435.697 309.294 436.791 307.76 436.605C306.224 436.419 305.131 435.026 305.318 433.492C305.503 431.958 306.897 430.865 308.431 431.05C309.966 431.235 311.059 432.629 310.873 434.163Z" fill="#00344A"/>
<path d="M335.735 412.347C335.549 413.88 334.155 414.974 332.618 414.788C331.086 414.603 329.991 413.208 330.177 411.676C330.362 410.14 331.757 409.048 333.291 409.233C334.826 409.419 335.92 410.812 335.735 412.347Z" fill="#00344A"/>
<path d="M403.9 430.765C403.714 432.298 402.318 433.393 400.784 433.208C399.249 433.022 398.155 431.626 398.341 430.093C398.526 428.56 399.921 427.466 401.456 427.651C402.99 427.836 404.085 429.231 403.9 430.765Z" fill="#00344A"/>
<path d="M395.936 437.983C395.75 439.516 394.356 440.609 392.822 440.423C391.287 440.238 390.195 438.845 390.38 437.312C390.565 435.778 391.96 434.685 393.493 434.87C395.029 435.056 396.122 436.449 395.936 437.983Z" fill="#00344A"/>
<path d="M424.765 372.561C424.58 374.093 423.185 375.186 421.652 375.001C420.116 374.816 419.023 373.421 419.208 371.889C419.394 370.355 420.788 369.261 422.323 369.446C423.858 369.632 424.95 371.026 424.765 372.561Z" fill="#00344A"/>
<path d="M464.788 349.945C464.603 351.479 463.207 352.573 461.673 352.388C460.138 352.202 459.046 350.808 459.232 349.273C459.417 347.741 460.811 346.647 462.345 346.833C463.879 347.018 464.973 348.412 464.788 349.945Z" fill="#00344A"/>
<path d="M422.68 295.04C422.495 296.574 421.099 297.668 419.564 297.483C418.03 297.298 416.937 295.903 417.122 294.369C417.307 292.835 418.702 291.743 420.236 291.929C421.771 292.114 422.866 293.507 422.68 295.04Z" fill="#00344A"/>
<path d="M470.602 324.466C470.416 325.999 469.023 327.093 467.487 326.907C465.953 326.722 464.859 325.328 465.044 323.794C465.23 322.261 466.625 321.167 468.159 321.352C469.694 321.538 470.787 322.933 470.602 324.466Z" fill="#00344A"/>
<path d="M441.07 266.355C440.885 267.888 439.489 268.981 437.956 268.796C436.42 268.611 435.327 267.217 435.513 265.683C435.698 264.15 437.093 263.056 438.627 263.241C440.162 263.426 441.255 264.821 441.07 266.355Z" fill="#00344A"/>
<path d="M492.976 247.72C492.791 249.254 491.396 250.347 489.863 250.161C488.327 249.976 487.233 248.582 487.419 247.048C487.604 245.514 488.999 244.421 490.534 244.607C492.068 244.792 493.161 246.186 492.976 247.72Z" fill="#00344A"/>
<path d="M427.976 230.231C427.791 231.764 426.397 232.858 424.861 232.673C423.328 232.488 422.234 231.093 422.419 229.56C422.605 228.026 423.999 226.933 425.534 227.118C427.068 227.303 428.161 228.697 427.976 230.231Z" fill="#00344A"/>
<path d="M484.437 205.596C484.252 207.13 482.857 208.223 481.322 208.038C479.789 207.853 478.694 206.459 478.88 204.925C479.065 203.391 480.461 202.298 481.994 202.483C483.53 202.669 484.623 204.062 484.437 205.596Z" fill="#00344A"/>
<path d="M475.127 181.749C474.941 183.283 473.546 184.376 472.011 184.191C470.477 184.005 469.382 182.612 469.567 181.078C469.753 179.544 471.149 178.45 472.683 178.636C474.218 178.821 475.312 180.215 475.127 181.749Z" fill="#00344A"/>
<path d="M432.521 191.143C432.335 192.677 430.941 193.771 429.408 193.585C427.873 193.4 426.78 192.006 426.966 190.471C427.151 188.938 428.545 187.844 430.079 188.03C431.613 188.216 432.706 189.609 432.521 191.143Z" fill="#00344A"/>
<path d="M461.006 216.241C460.821 217.774 459.426 218.868 457.893 218.683C456.357 218.497 455.264 217.103 455.45 215.57C455.636 214.036 457.029 212.943 458.564 213.128C460.098 213.313 461.192 214.707 461.006 216.241Z" fill="#00344A"/>
<path d="M429.938 177.271C429.752 178.804 428.357 179.897 426.824 179.712C425.287 179.526 424.195 178.133 424.38 176.599C424.565 175.065 425.96 173.971 427.496 174.157C429.028 174.343 430.123 175.737 429.938 177.271Z" fill="#00344A"/>
<path d="M391.095 155.322C390.909 156.855 389.513 157.949 387.98 157.764C386.444 157.578 385.351 156.184 385.536 154.65C385.722 153.116 387.117 152.023 388.652 152.208C390.185 152.394 391.28 153.788 391.095 155.322Z" fill="#00344A"/>
<path d="M423.205 112.219C423.019 113.753 421.624 114.846 420.09 114.661C418.555 114.476 417.46 113.082 417.645 111.548C417.832 110.015 419.227 108.921 420.762 109.106C422.296 109.292 423.39 110.686 423.205 112.219Z" fill="#00344A"/>
<path d="M348.509 129.74C348.323 131.274 346.928 132.367 345.393 132.182C343.859 131.997 342.765 130.602 342.95 129.069C343.135 127.535 344.531 126.442 346.065 126.628C347.6 126.813 348.695 128.206 348.509 129.74Z" fill="#00344A"/>
<path d="M333.727 103.049C333.541 104.582 332.145 105.677 330.613 105.491C329.077 105.305 327.984 103.911 328.169 102.378C328.354 100.844 329.749 99.7512 331.284 99.9365C332.818 100.121 333.912 101.515 333.727 103.049Z" fill="#00344A"/>
<path d="M317.563 72.7318C317.377 74.2651 315.983 75.3589 314.447 75.1729C312.914 74.9877 311.82 73.594 312.005 72.06C312.191 70.5259 313.586 69.4329 315.119 69.6181C316.654 69.8034 317.748 71.1977 317.563 72.7318Z" fill="#00344A"/>
<path d="M249.563 117.573C249.377 119.106 247.983 120.2 246.447 120.015C244.914 119.83 243.82 118.435 244.005 116.902C244.19 115.368 245.585 114.275 247.119 114.46C248.655 114.645 249.748 116.039 249.563 117.573Z" fill="#00344A"/>
<path d="M262.742 106.438C262.557 107.97 261.163 109.064 259.627 108.878C258.094 108.693 256.999 107.298 257.185 105.766C257.37 104.232 258.766 103.138 260.299 103.323C261.835 103.508 262.928 104.903 262.742 106.438Z" fill="#00344A"/>
<path d="M242.259 464.918C242.073 466.453 240.677 467.546 239.144 467.361C237.608 467.175 236.515 465.782 236.7 464.247C236.885 462.714 238.28 461.62 239.816 461.806C241.349 461.99 242.444 463.386 242.259 464.918Z" fill="#00344A"/>
<path d="M218.25 454.384C218.065 455.917 216.67 457.011 215.135 456.825C213.601 456.639 212.507 455.245 212.692 453.713C212.878 452.178 214.274 451.085 215.806 451.27C217.342 451.455 218.435 452.849 218.25 454.384Z" fill="#00344A"/>
<path d="M227.858 70.7096C227.673 72.2429 226.278 73.3367 224.744 73.1514C223.21 72.9662 222.116 71.5718 222.302 70.0385C222.487 68.5051 223.881 67.4114 225.416 67.5966C226.95 67.7819 228.043 69.1763 227.858 70.7096Z" fill="#00344A"/>
<path d="M196.407 94.0131C196.222 95.5464 194.826 96.6402 193.292 96.4549C191.758 96.2697 190.663 94.8753 190.849 93.3412C191.034 91.8072 192.429 90.7141 193.964 90.8994C195.498 91.0853 196.593 92.4797 196.407 94.0131Z" fill="#00344A"/>
<path d="M184.53 127.858C184.345 129.391 182.95 130.485 181.416 130.3C179.881 130.114 178.788 128.72 178.974 127.187C179.16 125.654 180.553 124.56 182.087 124.745C183.622 124.931 184.716 126.325 184.53 127.858Z" fill="#00344A"/>
<path d="M130.055 127.094C129.869 128.628 128.474 129.721 126.94 129.536C125.405 129.351 124.312 127.957 124.497 126.423C124.683 124.89 126.077 123.796 127.612 123.981C129.146 124.167 130.24 125.561 130.055 127.094Z" fill="#00344A"/>
<path d="M96.9391 204.872C96.7538 206.406 95.3579 207.5 93.8237 207.314C92.2896 207.129 91.1945 205.735 91.3798 204.201C91.5659 202.667 92.961 201.573 94.4952 201.759C96.0301 201.945 97.1244 203.339 96.9391 204.872Z" fill="#00344A"/>
<path d="M76.5455 238.147C76.3602 239.68 74.9665 240.774 73.4317 240.589C71.8975 240.404 70.8039 239.009 70.9892 237.476C71.1746 235.943 72.569 234.849 74.1031 235.034C75.638 235.219 76.7309 236.613 76.5455 238.147Z" fill="#00344A"/>
<path d="M275.25 71.8783C275.065 73.4116 273.67 74.5054 272.135 74.3194C270.602 74.1342 269.507 72.7405 269.692 71.2065C269.878 69.6724 271.274 68.5794 272.806 68.7646C274.342 68.9506 275.435 70.3442 275.25 71.8783Z" fill="#00344A"/>
<path d="M393.141 438.105L532.199 532.203" stroke="#B2B2B0" stroke-width="0.25" stroke-miterlimit="10"/>
<path d="M531.377 531.209L462.492 350.791" stroke="#B2B2B0" stroke-width="0.25" stroke-miterlimit="10"/>
<path d="M421.984 372.227L532.2 532.203" stroke="#B2B2B0" stroke-width="0.25" stroke-miterlimit="10"/>
<path d="M532.206 532.204L297.727 493.15" stroke="#B2B2B0" stroke-width="0.25" stroke-miterlimit="10"/>
<path d="M529.423 531.868L308.852 433.918" stroke="#B2B2B0" stroke-width="0.25" stroke-miterlimit="10"/>
<path d="M534.982 532.539C534.797 534.072 533.403 535.165 531.869 534.98C530.334 534.795 529.241 533.401 529.427 531.867C529.612 530.334 531.005 529.241 532.541 529.427C534.074 529.612 535.168 531.005 534.982 532.539Z" fill="#00344A"/>
<path d="M89.6425 359.906L36.6562 347.078" stroke="#B2B2B0" stroke-width="0.25" stroke-miterlimit="10"/>
<path d="M34.1094 346.77L42.2376 408.247" stroke="#B2B2B0" stroke-width="0.25" stroke-miterlimit="10"/>
<path d="M42.2322 408.247L19.7656 408.125" stroke="#B2B2B0" stroke-width="0.25" stroke-miterlimit="10"/>
<path d="M316.086 73.9844L358.31 60.7012" stroke="#B2B2B0" stroke-width="0.25" stroke-miterlimit="10"/>
<path d="M358.31 60.7015L343.969 21.0312" stroke="#B2B2B0" stroke-width="0.25" stroke-miterlimit="10"/>
<path d="M343.969 21.0312L316.086 73.9847" stroke="#B2B2B0" stroke-width="0.25" stroke-miterlimit="10"/>
<path d="M343.969 21.0289L399.567 2.26953" stroke="#B2B2B0" stroke-width="0.25" stroke-miterlimit="10"/>
<path d="M22.547 408.461C22.3617 409.996 20.9658 411.088 19.4331 410.903C17.8975 410.718 16.8039 409.325 16.9892 407.79C17.1746 406.257 18.569 405.163 20.1046 405.349C21.6373 405.534 22.7324 406.929 22.547 408.461Z" fill="#00344A"/>
<path d="M45.0072 408.584C44.8219 410.119 43.4275 411.212 41.8926 411.026C40.3584 410.84 39.2648 409.448 39.4502 407.913C39.6355 406.381 41.0299 405.286 42.5641 405.472C44.0989 405.657 45.1926 407.052 45.0072 408.584Z" fill="#00344A"/>
<path d="M36.883 347.106C36.6976 348.64 35.3025 349.735 33.7691 349.549C32.2334 349.364 31.1398 347.968 31.3252 346.435C31.5105 344.901 32.9049 343.807 34.4405 343.993C35.9739 344.178 37.0683 345.573 36.883 347.106Z" fill="#00344A"/>
<path d="M227.858 70.7096C227.673 72.2429 226.278 73.3367 224.744 73.1514C223.21 72.9662 222.116 71.5718 222.302 70.0385C222.487 68.5051 223.881 67.4114 225.416 67.5966C226.95 67.7819 228.043 69.1763 227.858 70.7096Z" fill="#00344A"/>
<path d="M196.407 94.0131C196.222 95.5464 194.826 96.6402 193.292 96.4549C191.758 96.2697 190.663 94.8753 190.849 93.3412C191.034 91.8072 192.429 90.7141 193.964 90.8994C195.498 91.0853 196.593 92.4797 196.407 94.0131Z" fill="#00344A"/>
<path d="M184.53 127.858C184.345 129.391 182.95 130.485 181.416 130.3C179.881 130.114 178.788 128.72 178.974 127.187C179.16 125.654 180.553 124.56 182.087 124.745C183.622 124.931 184.716 126.325 184.53 127.858Z" fill="#00344A"/>
<path d="M130.055 127.094C129.869 128.628 128.474 129.721 126.94 129.536C125.405 129.351 124.312 127.957 124.497 126.423C124.683 124.89 126.077 123.796 127.612 123.981C129.146 124.167 130.24 125.561 130.055 127.094Z" fill="#00344A"/>
<path d="M96.9391 204.872C96.7538 206.406 95.3579 207.5 93.8237 207.314C92.2896 207.129 91.1945 205.735 91.3798 204.201C91.5659 202.667 92.961 201.573 94.4952 201.759C96.0301 201.945 97.1244 203.339 96.9391 204.872Z" fill="#00344A"/>
<path d="M76.5455 238.147C76.3602 239.68 74.9665 240.774 73.4317 240.589C71.8975 240.404 70.8039 239.009 70.9892 237.476C71.1746 235.943 72.569 234.849 74.1031 235.034C75.638 235.219 76.7309 236.613 76.5455 238.147Z" fill="#00344A"/>
<path d="M275.25 71.8783C275.065 73.4116 273.67 74.5054 272.135 74.3194C270.602 74.1342 269.507 72.7405 269.692 71.2065C269.878 69.6724 271.274 68.5794 272.806 68.7646C274.342 68.9506 275.435 70.3442 275.25 71.8783Z" fill="#00344A"/>
<path d="M447.695 129.361C447.51 130.895 446.114 131.988 444.582 131.803C443.045 131.617 441.952 130.223 442.138 128.689C442.324 127.155 443.717 126.062 445.253 126.247C446.786 126.432 447.881 127.827 447.695 129.361Z" fill="#00344A"/>
<path d="M360.339 59.525C360.981 60.9297 360.36 62.5902 358.955 63.2319C357.547 63.8736 355.887 63.2532 355.245 61.8485C354.604 60.4431 355.223 58.7834 356.631 58.1417C358.035 57.5007 359.697 58.1196 360.339 59.525Z" fill="#00344A"/>
<path d="M402.214 1.63627C402.855 3.04243 402.236 4.70145 400.829 5.34389C399.424 5.98486 397.762 5.36521 397.12 3.95978C396.479 2.55435 397.1 0.894597 398.504 0.253629C399.912 -0.38881 401.572 0.231575 402.214 1.63627Z" fill="#00344A"/>
<path d="M346.535 19.8743C347.177 21.2798 346.556 22.9403 345.15 23.5812C343.743 24.2229 342.082 23.604 341.441 22.1979C340.799 20.7924 341.419 19.1327 342.826 18.4917C344.232 17.85 345.894 18.4689 346.535 19.8743Z" fill="#00344A"/>
</svg>
