<svg width="166" height="35" viewBox="0 0 166 35" fill="none" xmlns="http://www.w3.org/2000/svg">
<g clip-path="url(#clip0_2017_28657)">
<path d="M52.1193 6.18916C60.199 6.18916 62.1689 11.9246 62.1689 16.3636C62.1689 20.3711 60.484 26.366 52.1194 26.366H41.1573V6.18916H52.1193ZM48.8081 21.3205H50.3492C52.062 21.3205 54.1172 20.8027 54.1172 16.248C54.1172 11.579 52.2046 10.9442 50.3492 10.9442H48.8081V21.3205ZM70.5113 11.2623V14.6915H70.6258C71.1959 12.79 72.7383 10.9167 75.1358 10.9167C75.5074 10.9167 75.935 10.9745 76.3066 11.0606V17.1134C75.8498 16.9977 75.3356 16.8821 74.8228 16.8821C72.681 16.8821 70.9681 18.2658 70.9681 20.8895V26.3653H63.7742V11.2623L70.5113 11.2623ZM76.307 20.816H82.5299V26.3794H76.307V20.816ZM91.098 19.102H91.2124L94.3811 6.24877H101.719L104.802 19.102H104.916L107.342 6.24877H114.166L109.37 26.3651H101.146L97.8349 13.2227H97.7217L94.5822 26.3651H86.1883L81.5344 6.24881H88.7003L91.098 19.102ZM132.788 6.18923V10.9442H122.997V13.857H132.361V18.4668H122.997V21.6096H132.989V26.366H115.348V6.18923H132.788ZM146.757 6.18916C153.007 6.18916 154.149 9.56317 154.149 11.4351C154.149 13.74 152.579 15.6146 150.096 16.0745V16.1902C152.092 16.4793 154.606 17.8052 154.606 20.9748C154.606 26.0769 148.896 26.366 146.354 26.366H134.737V6.18916H146.757ZM141.988 14.173H143.786C146.412 14.173 146.669 12.7893 146.669 12.2137C146.669 11.3786 146.069 10.2826 143.958 10.2826H141.988V14.173ZM141.988 22.2712H143.927C146.384 22.2712 146.785 20.917 146.785 20.1976C146.785 18.1508 144.414 18.1508 143.757 18.1508H141.988L141.988 22.2712ZM155.614 11.2012C155.614 8.443 157.817 6.2349 160.534 6.2349C163.251 6.2349 165.455 8.443 165.455 11.2011C165.455 13.9592 163.251 16.1687 160.534 16.1687C157.817 16.1687 155.614 13.9593 155.614 11.2012ZM160.534 14.5644C162.261 14.5644 163.69 13.0408 163.69 11.2011C163.69 9.36281 162.261 7.83923 160.534 7.83923C158.807 7.83923 157.378 9.36285 157.378 11.2011C157.378 13.0408 158.807 14.5644 160.534 14.5644ZM160.985 8.97823C161.591 8.97823 162.594 9.04814 162.594 10.1186C162.594 10.8179 162.145 11.1339 161.706 11.2159V11.2563C162.079 11.2845 162.363 11.6126 162.452 12.0107L162.725 13.2599H161.114L160.973 12.1909C160.921 11.8332 160.661 11.7646 160.482 11.7646H160.12V13.2599H158.59V8.97823H160.985ZM160.059 10.8448H160.43C160.598 10.8448 161.063 10.8448 161.063 10.3781C161.063 9.93975 160.636 9.93975 160.469 9.93975H160.059V10.8448ZM19.0143 8.69809L24.8883 12.0116C25.0334 11.6095 25.1107 11.1913 25.1107 10.7569C25.1107 8.15481 22.3909 6.04758 19.0423 6.04758C15.6884 6.04758 12.9713 8.15481 12.9713 10.7569C12.9713 11.1819 13.0458 11.5934 13.179 11.9847L19.0143 8.69809ZM29.2192 18.2894L33.921 21.1484L25.1114 31.9347L29.2192 18.2894ZM29.4653 15.5371L28.9378 13.1689L37.9924 15.8652L32.377 18.9003L33.1495 16.4354L29.4653 15.5371ZM28.4101 11.6415L27.2153 9.96864L35.2431 7.3773L33.2451 13.7595L32.4193 10.8213L28.4101 11.6415ZM26.2001 8.67392L24.5139 6.87599L26.7262 4.58853L24.3048 3.07031H30.7288L26.2001 8.67392ZM8.77308 18.2894L4.07129 21.1484L12.8822 31.9347L8.77308 18.2894ZM8.52725 15.5371L9.0547 13.1689L0 15.8652L5.61552 18.9003L4.84303 16.4354L8.52725 15.5371ZM9.58216 11.6415L10.7769 9.96864L2.74918 7.3773L4.74709 13.7595L5.5729 10.8213L9.58216 11.6415ZM11.7921 8.67392L13.4783 6.87599L11.266 4.58853L13.6875 3.07031H7.26343L11.7921 8.67392Z" fill="#73B419"/>
<path d="M16.6861 15.3599L17.7703 12.115H20.2677L21.4145 15.3599H21.4523L22.1209 12.3705L18.9828 10.5645L15.8594 12.3597L16.6452 15.3599H16.6861Z" fill="#73B419"/>
<path d="M27.5128 15.4635L24.2375 13.5781L23.0561 17.1956H20.1337L19.0256 13.8754H18.9856L17.8787 17.1956H14.9404L13.7577 13.5808L10.485 15.4622C10.485 15.4622 9.29161 19.7251 13.8416 23.2268C15.4373 24.4546 16.628 25.2534 17.6976 25.6219L17.5005 25.0154H20.504L20.3029 25.6313C21.3711 25.2695 22.5552 24.4707 24.1416 23.2268C28.6569 19.6888 27.5128 15.4635 27.5128 15.4635ZM20.8437 23.9732H17.1582L16.7599 22.7562H21.242L20.8437 23.9732ZM21.5816 21.714H16.4189L16.0207 20.497H21.9785L21.5816 21.714ZM22.3195 19.4561H15.6797L15.2814 18.2391H22.7164L22.3195 19.4561Z" fill="#73B419"/>
</g>
<defs>
<clipPath id="clip0_2017_28657">
<rect width="165.455" height="35" fill="white"/>
</clipPath>
</defs>
</svg>
