<svg xmlns="http://www.w3.org/2000/svg" width="512" height="512" viewBox="0 0 511.999 511.999"><path d="M431.227 326.204c-32.299-32.299-71.945-54.578-115.168-65.29 45.736-22.325 77.319-69.31 77.319-123.535C393.378 61.628 331.75 0 255.999 0S118.621 61.628 118.621 137.379c0 54.227 31.583 101.21 77.319 123.535-43.224 10.711-82.869 32.991-115.168 65.29C33.966 373.009 8.189 435.239 8.189 501.431c0 5.836 4.731 10.568 10.568 10.568h474.485c5.836 0 10.568-4.731 10.568-10.568 0-66.192-25.777-128.422-72.583-175.227zM139.756 137.378c0-64.097 52.147-116.244 116.244-116.244s116.244 52.147 116.244 116.244c0 64.097-52.147 116.244-116.244 116.244s-116.244-52.148-116.244-116.244zM29.568 490.864C35.103 370.758 134.551 274.757 256 274.757s220.897 96.001 226.432 216.107H29.568z" fill="#1DBBBA" data-original="#000000" xmlns="http://www.w3.org/2000/svg"/><path d="M164.679 327.607c-2.994-5.012-9.482-6.646-14.491-3.653-47.538 28.399-82.192 75.433-95.072 129.04-1.363 5.676 2.131 11.38 7.806 12.745.83.2 1.66.295 2.478.295 4.772 0 9.102-3.257 10.264-8.101 11.562-48.112 42.674-90.332 85.362-115.834 5.01-2.993 6.645-9.482 3.653-14.492zM255.999 294.835c-16.174 0-32.283 1.878-47.881 5.58-5.678 1.348-9.189 7.043-7.841 12.722 1.153 4.858 5.488 8.13 10.273 8.13.807 0 1.628-.094 2.448-.288 14.002-3.324 28.469-5.008 43.001-5.008 5.836 0 10.568-4.731 10.568-10.568s-4.731-10.568-10.568-10.568z" fill="#1DBBBA" data-original="#000000" xmlns="http://www.w3.org/2000/svg"/></svg>