<svg xmlns="http://www.w3.org/2000/svg" width="512" height="512" viewBox="0 0 496 496"><path xmlns="http://www.w3.org/2000/svg" d="M416 424c-13.23 0-24 10.77-24 24v24c0 4.414-3.586 8-8 8h-72c-4.414 0-8-3.586-8-8v-24c13.23 0 24-10.77 24-24v-8h1.871c12.082 0 22.32-9.04 23.832-21.145l13.535-123.511C385.848 267.922 400 251.586 400 232v-48c0-22.055-17.945-40-40-40h-88V40c0-22.055-17.945-40-40-40H40C17.945 0 0 17.945 0 40v368c0 22.055 17.945 40 40 40h192c13.703 0 25.8-6.945 33.016-17.48C267.879 440.574 277.039 448 288 448v24c0 13.23 10.77 24 24 24h72c13.23 0 24-10.77 24-24v-24c0-4.414 3.586-8 8-8h80v-16zm-32-240v48c0 13.23-10.77 24-24 24H256v16h95.078l-13.262 120.992c-.503 3.992-3.921 7.008-7.945 7.008h-67.75c-4.023 0-7.441-3.016-7.922-6.887L239.168 256H232c-13.23 0-24-10.77-24-24v-48c0-13.23 10.77-24 24-24h8v24c0 13.23 10.77 24 24 24h64c13.23 0 24-10.77 24-24v-24h8c13.23 0 24 10.77 24 24zM48 288h64v48H48zm0-16v-96h64v-64h112v32.809c-9.703 1.976-18.023 7.566-23.793 15.191H144v-32h-16v48h64.809a40.038 40.038 0 00-.809 8v48c0 19.586 14.152 35.922 32.762 39.344L231.848 336H128v-64zm0-112v-48h48v48zm256 32h-16v-32h16zm16-32h16v24c0 4.414-3.586 8-8 8h-8zm-48 32h-8c-4.414 0-8-3.586-8-8v-24h16zm-32-48V96H32v256h201.602l1.75 16H16V80h240v64zM40 16h192c13.23 0 24 10.77 24 24v24H16V40c0-13.23 10.77-24 24-24zm192 416H40c-13.23 0-24-10.77-24-24v-24h221.113l1.2 10.977c1.183 9.488 7.87 17.039 16.59 19.816C251.952 424.703 242.854 432 232 432zm48-8v-8h32v8c0 4.414-3.586 8-8 8h-16c-4.414 0-8-3.586-8-8zm0 0" fill="#1DBBBA" data-original="#000000"/><path xmlns="http://www.w3.org/2000/svg" d="M288 368h16c8.824 0 16-7.176 16-16v-48c0-8.824-7.176-16-16-16h-16c-8.824 0-16 7.176-16 16v48c0 8.824 7.176 16 16 16zm0-16v-16h16.008l.008 16zm16-48l.008 16H288v-16zm0 0M112 32h48v16h-48zm0 0M176 32h16v16h-16zm0 0M80 32h16v16H80zm0 0M120 400h32v16h-32zm0 0M64 304h32v16H64zm0 0M64 128h16v16H64zm0 0M160 128h48v16h-48zm0 0M144 240H80v-48H64v64h80zm0 0" fill="#1DBBBA" data-original="#000000"/><path xmlns="http://www.w3.org/2000/svg" d="M112 208h32v-16H96v32h16zm0 0M160 192h16v48h-16zm0 0M144 304h72v16h-72zm0 0M160 256h16v32h-16zm0 0" fill="#1DBBBA" data-original="#000000"/></svg>