<svg xmlns="http://www.w3.org/2000/svg" width="512" height="512"><path xmlns="http://www.w3.org/2000/svg" d="M290.594 323.008c-5.524 0-10-4.48-10-10v-6.418c-.203-20.52 9.734-36.145 27.992-43.902 17.402-7.399 28.648-24.293 28.648-43.051 0-25.719-20.921-46.645-46.64-46.645s-46.645 20.926-46.645 46.645c0 5.523-4.476 10-10 10-5.523 0-10-4.477-10-10 0-36.746 29.895-66.645 66.645-66.645 36.746 0 66.64 29.899 66.64 66.645 0 26.793-16.023 50.918-40.824 61.457-10.77 4.574-15.941 12.883-15.816 25.394v6.52c0 5.52-4.477 10-10 10zm0 0" fill="#1DBBBA" data-original="#000000"/><path xmlns="http://www.w3.org/2000/svg" d="M290.594 363.008c5.508 0 10-4.492 10-10 0-5.512-4.492-10-10-10s-10 4.488-10 10c0 5.508 4.492 10 10 10zm0 0" fill-rule="evenodd" fill="#1DBBBA" data-original="#000000"/><path xmlns="http://www.w3.org/2000/svg" d="M452.594 256c0-54.375-26.93-102.578-68.149-131.977V10c0-5.523-4.476-10-10-10H114.02c-.114 0-.223.012-.336.016-.114.004-.227.011-.34.02a9.706 9.706 0 00-1.258.155h-.023a10.375 10.375 0 00-1.551.457c-.383.141-.758.301-1.121.493l-.07.03a9.42 9.42 0 00-1.098.692c-.09.063-.18.13-.27.2-.348.265-.691.55-1.004.867L2.938 106.938c-.239.238-.461.488-.676.75-.074.09-.14.187-.211.28-.059.079-.113.15-.168.227-.067.094-.14.184-.203.278-.086.129-.157.261-.239.39-.09.149-.18.297-.261.45-.075.136-.137.277-.203.414-.075.156-.153.312-.22.472-.046.117-.085.235-.128.356-.027.074-.055.144-.078.218-.043.114-.086.23-.121.348-.043.137-.075.277-.11.418-.043.172-.09.344-.125.52-.004.007-.004.011-.004.02-.03.155-.05.312-.074.472-.023.16-.05.32-.066.484-.012.11-.012.215-.02.32-.008.11-.011.215-.015.325l-.012.234c0 .035-.004.07-.004.106V392c0 5.52 4.477 10 10 10s10-4.48 10-10V124.02h94.02c5.523 0 10-4.48 10-10V20h240.425v91.836C342.285 100.437 317.18 94 290.594 94c-89.328 0-162 72.672-162 162s72.672 162 162 162c26.586 0 51.691-6.438 73.851-17.836V492H20v-20.004c0-5.52-4.477-10-10-10s-10 4.48-10 10V502c0 5.523 4.477 10 10 10h364.445c5.524 0 10-4.477 10-10V387.977c41.22-29.399 68.149-77.602 68.149-131.977zM34.14 104.02l69.879-69.875v69.875zM290.594 398c-78.301 0-142-63.7-142-142s63.699-142 142-142 142 63.7 142 142-63.7 142-142 142zm0 0" fill="#1DBBBA" data-original="#000000"/><path xmlns="http://www.w3.org/2000/svg" d="M10 441.996c5.508 0 10-4.492 10-10s-4.492-10-10-10-10 4.492-10 10 4.492 10 10 10zm0 0" fill-rule="evenodd" fill="#1DBBBA" data-original="#000000"/></svg>