<svg xmlns="http://www.w3.org/2000/svg" width="512" height="512" viewBox="0 0 512.021 512.021"><g xmlns="http://www.w3.org/2000/svg"><path d="M401.871 52.523L375.9 78.496a7.498 7.498 0 00.001 10.606 7.5 7.5 0 0010.606-.001l25.972-25.973a7.498 7.498 0 00-.001-10.606 7.502 7.502 0 00-10.607.001zM448.892 99.542l-25.973 25.972a7.498 7.498 0 00-.001 10.606 7.5 7.5 0 0010.606.001l25.973-25.972a7.498 7.498 0 00.001-10.606 7.5 7.5 0 00-10.606-.001z" fill="#1DBBBA" data-original="#000000"/><path d="M504.504 95.441l-14.85-14.85a7.5 7.5 0 00-10.607 10.607l14.85 14.849c4.159 4.161 4.163 10.89 0 15.051l-56.946 56.948L333.974 75.07l56.948-56.946a10.633 10.633 0 0115.05 0l48.327 48.327a7.5 7.5 0 0010.607-10.607L416.579 7.518c-10.022-10.024-26.241-10.023-36.265-.001l-56.947 56.946-7.31-7.31c-6.307-6.307-16.52-6.309-22.829 0L89.73 260.652a7.5 7.5 0 0010.607 10.607C315.525 56.072 304.454 66.76 305.45 67.761c146.386 146.386 139.83 139.407 138.81 140.424L169.697 482.749c-19.025 19.023-49.813 19.025-68.838 0l-71.588-71.588c-19.024-19.024-19.024-49.813 0-68.837l46.316-46.316a7.5 7.5 0 00-10.607-10.607l-46.316 46.316c-24.884 24.886-24.887 65.163 0 90.052l71.588 71.588c24.886 24.884 65.161 24.887 90.052 0l274.563-274.564c3.049-3.049 4.728-7.104 4.728-11.415s-1.679-8.365-4.728-11.414l-7.31-7.31 56.946-56.947c10.022-10.024 10.025-26.238.001-36.266z" fill="#1DBBBA" data-original="#000000"/><path d="M121.587 354.644l35.794 35.794c13.876 13.875 36.452 13.875 50.329 0l120.475-120.475c13.908-13.91 13.911-36.42 0-50.331l-35.79-35.792c-13.876-13.875-36.455-13.876-50.333 0L121.587 304.315c-13.66 13.659-14.116 36.213 0 50.329zm10.608-39.722L252.67 194.447c8.028-8.03 21.092-8.028 29.118 0v-.001l35.79 35.792c8.028 8.027 8.028 21.09 0 29.117L197.103 379.83c-8.026 8.028-21.09 8.026-29.114 0l-35.795-35.794c-8.108-8.108-7.948-21.167.001-29.114z" fill="#1DBBBA" data-original="#000000"/></g></svg>