<svg xmlns="http://www.w3.org/2000/svg" width="512" height="512"><g xmlns="http://www.w3.org/2000/svg"><path d="M504.5 284.89a7.5 7.5 0 007.5-7.5v-18.36c0-26.417-21.492-47.91-47.91-47.91h-5.557c11.736-10.622 19.122-25.966 19.122-43.004 0-31.986-26.022-58.008-58.008-58.008s-58.008 26.022-58.008 58.008c0 17.038 7.386 32.382 19.122 43.004h-5.56a47.907 47.907 0 00-42.356 25.484 77.141 77.141 0 00-3.054-.888l-40.025-10.72v-21.309c18.952-11.312 31.782-31.834 32.289-55.345h8.699c13.048 0 23.663-10.615 23.663-23.663 0-11.161-7.77-20.536-18.184-23.015V81.242C336.231 36.445 299.787 0 254.99 0s-81.242 36.445-81.242 81.242v21c-9.382 3.144-16.163 12.011-16.163 22.437 0 13.047 10.615 23.663 23.663 23.663h8.699c.507 23.51 13.336 44.033 32.289 55.345v21.309l-40.027 10.72a78.776 78.776 0 00-3.052.888 47.909 47.909 0 00-42.356-25.484h-5.56c11.736-10.622 19.122-25.966 19.122-43.004 0-31.986-26.022-58.008-58.008-58.008s-58.008 26.022-58.008 58.008c0 17.038 7.386 32.382 19.122 43.004H47.91C21.492 211.12 0 232.612 0 259.03v18.36c0 4.142 3.357 7.5 7.5 7.5s7.5-3.358 7.5-7.5v-18.36c0-18.146 14.764-32.91 32.91-32.91h88.89c11.891 0 22.635 6.382 28.445 16.373-24.797 13.444-40.995 39.651-40.995 68.767v40.28H15v-39.15c0-4.142-3.357-7.5-7.5-7.5s-7.5 3.358-7.5 7.5v46.65a7.5 7.5 0 007.5 7.5h168.753c-6.129 9.564-10.615 20.328-12.973 31.948a7.501 7.501 0 0014.701 2.984c7.49-36.911 40.302-63.702 78.02-63.702 43.897 0 79.61 35.717 79.61 79.62 0 43.897-35.713 79.61-79.61 79.61-37.719 0-70.531-26.786-78.02-63.692a7.5 7.5 0 00-14.701 2.984C172.182 480.16 211.176 512 256 512c52.168 0 94.61-42.442 94.61-94.61 0-18.703-5.455-36.155-14.856-50.85H504.5a7.5 7.5 0 007.5-7.5v-46.65c0-4.142-3.357-7.5-7.5-7.5s-7.5 3.358-7.5 7.5v39.15H387.75v-40.28c0-29.115-16.197-55.322-40.995-68.767 5.81-9.991 16.554-16.373 28.445-16.373h88.89c18.146 0 32.91 14.763 32.91 32.91v18.36a7.5 7.5 0 007.5 7.5zM49.346 168.116c0-23.714 19.293-43.008 43.008-43.008s43.008 19.293 43.008 43.008c0 23.663-19.21 42.921-42.854 43.004H92.2c-23.644-.084-42.854-19.341-42.854-43.004zm190.736 92.397l-7.26 6.05c-3.378 2.815-7.722 3.679-11.923 2.366-4.197-1.312-7.278-4.496-8.452-8.735l-4.396-15.871 15.531-4.16c2.555 8.783 8.584 16.099 16.5 20.35zm48.336-20.349l15.531 4.159-4.396 15.871c-1.173 4.239-4.254 7.422-8.451 8.734-4.201 1.312-8.545.449-11.923-2.366l-7.26-6.05c7.915-4.25 13.944-11.566 16.499-20.348zm50.997-115.485c0 4.776-3.887 8.663-8.663 8.663h-8.662v-17.325h8.663c4.775-.001 8.662 3.885 8.662 8.662zM188.748 81.242C188.748 44.716 218.464 15 254.99 15c36.525 0 66.241 29.716 66.241 66.242v19.774h-24.825c-7.005 0-12.703-5.699-12.703-12.703 0-4.142-3.357-7.5-7.5-7.5s-7.5 3.358-7.5 7.5c0 7.004-5.698 12.703-12.703 12.703h-67.252zm-16.163 43.437c0-4.776 3.887-8.663 8.663-8.663h8.662v17.325h-8.662c-4.776 0-8.663-3.886-8.663-8.662zm32.325 22.223v-30.886H256c7.959 0 15.146-3.374 20.203-8.767 5.058 5.393 12.244 8.767 20.203 8.767h10.684v30.886c0 28.171-22.919 51.089-51.09 51.089s-51.09-22.918-51.09-51.089zm51.09 66.09c6.518 0 12.812-.964 18.765-2.73v20.484c0 10.347-8.418 18.764-18.765 18.764s-18.765-8.417-18.765-18.764v-20.484a65.868 65.868 0 0018.765 2.73zm116.75 98.268v40.28h-48.881c-17.206-17.732-41.271-28.77-67.869-28.77-26.236 0-50.465 10.922-67.842 28.77H139.25v-40.28c0-28.552 19.263-53.659 46.841-61.055l7.47-2.001 4.429 15.993a27.596 27.596 0 0018.433 19.048 27.824 27.824 0 008.305 1.272c6.38 0 12.637-2.215 17.697-6.432L256 266.773l13.575 11.313c5.062 4.217 11.316 6.432 17.697 6.432 2.774 0 5.571-.418 8.305-1.272a27.597 27.597 0 0018.432-19.048l4.43-15.994 7.469 2c27.579 7.397 46.842 32.504 46.842 61.056zm3.889-143.144c0-23.714 19.293-43.008 43.008-43.008s43.008 19.293 43.008 43.008c0 23.663-19.21 42.921-42.854 43.004h-.308c-23.644-.084-42.854-19.341-42.854-43.004z" fill="#1DBBBA" data-original="#000000"/><path d="M245.524 461.827c6.716 0 13.029-2.615 17.779-7.364l38.595-38.595c9.803-9.803 9.803-25.755-.001-35.559-9.804-9.803-25.755-9.801-35.559 0l-20.814 20.816c-9.815-9.666-25.664-9.621-35.423.136-9.802 9.803-9.802 25.754 0 35.558l17.645 17.644c4.749 4.749 11.063 7.364 17.778 7.364zm-24.816-49.958c1.979-1.978 4.576-2.966 7.174-2.966s5.195.989 7.172 2.965l5.167 5.168a7.497 7.497 0 0010.608 0l26.117-26.119c3.955-3.954 10.391-3.957 14.346 0 3.955 3.955 3.955 10.39 0 14.345l-38.594 38.594c-1.916 1.916-4.464 2.971-7.173 2.971s-5.257-1.055-7.172-2.97l-17.644-17.643c-3.955-3.955-3.955-10.391-.001-14.345z" fill="#1DBBBA" data-original="#000000"/></g></svg>