<svg xmlns="http://www.w3.org/2000/svg" width="512" height="512"><path xmlns="http://www.w3.org/2000/svg" fill="#1DBBBA" d="m357.019 320.662-18.354-18.355a93.94 93.94 0 0 0 7.476-17.129h26.952c4.143 0 7.5-3.357 7.5-7.5v-43.356c0-4.143-3.357-7.5-7.5-7.5H346.14a93.961 93.961 0 0 0-7.476-17.128l18.354-18.355a7.498 7.498 0 0 0 0-10.605l-28.186-28.188a7.502 7.502 0 0 0-10.608 0l-19.064 19.065a94.274 94.274 0 0 0-14.069-5.836v-26.953c0-4.143-3.357-7.5-7.5-7.5H237.73a7.499 7.499 0 0 0-7.5 7.5v25.952a93.86 93.86 0 0 0-17.392 6.837l-19.064-19.065a7.502 7.502 0 0 0-10.608 0l-28.186 28.188a7.498 7.498 0 0 0 0 10.605l18.354 18.355a93.961 93.961 0 0 0-7.476 17.128h-26.952a7.499 7.499 0 0 0-7.5 7.5v43.356c0 4.143 3.357 7.5 7.5 7.5h26.952a93.94 93.94 0 0 0 7.476 17.129l-18.354 18.355a7.5 7.5 0 0 0 0 10.606l28.186 28.186a7.501 7.501 0 0 0 10.606 0l19.065-19.064a93.903 93.903 0 0 0 17.392 6.837v25.952c0 4.143 3.357 7.5 7.5 7.5h39.861c4.143 0 7.5-3.357 7.5-7.5v-26.953a94.274 94.274 0 0 0 14.069-5.836l19.065 19.064a7.501 7.501 0 0 0 10.606 0l28.186-28.186a7.498 7.498 0 0 0 .003-10.606zm-33.49 22.882-17.752-17.751a7.498 7.498 0 0 0-9.134-1.144 79.208 79.208 0 0 1-20.903 8.67 7.5 7.5 0 0 0-5.648 7.268v25.092H245.23V341.36a7.499 7.499 0 0 0-5.937-7.335 79.041 79.041 0 0 1-23.938-9.375 7.496 7.496 0 0 0-9.134 1.144l-17.752 17.751-17.579-17.579 17.2-17.201a7.499 7.499 0 0 0 .989-9.383 79.12 79.12 0 0 1-10.313-23.555 7.5 7.5 0 0 0-7.268-5.648h-25.092v-28.356H171.5a7.5 7.5 0 0 0 7.268-5.648 79.203 79.203 0 0 1 10.313-23.554 7.499 7.499 0 0 0-.989-9.383l-17.2-17.201 17.579-17.58 17.751 17.752a7.502 7.502 0 0 0 9.135 1.144 79.02 79.02 0 0 1 23.938-9.375 7.499 7.499 0 0 0 5.937-7.335v-24.319h24.861v25.092a7.5 7.5 0 0 0 5.648 7.268 79.208 79.208 0 0 1 20.903 8.67 7.501 7.501 0 0 0 9.135-1.144l17.751-17.752 17.579 17.58-17.2 17.201a7.499 7.499 0 0 0-.989 9.383 79.14 79.14 0 0 1 10.313 23.554 7.5 7.5 0 0 0 7.268 5.648h25.092v28.356H340.5a7.5 7.5 0 0 0-7.268 5.648 79.183 79.183 0 0 1-10.313 23.555 7.499 7.499 0 0 0 .989 9.383l17.2 17.201z" data-original="#000000"/><path xmlns="http://www.w3.org/2000/svg" fill="#1DBBBA" d="M256 218.195c-1.924 0-3.855.146-5.739.434a7.5 7.5 0 1 0 2.264 14.828 23.068 23.068 0 0 1 3.476-.262c12.574 0 22.805 10.23 22.805 22.805s-10.23 22.805-22.805 22.805-22.805-10.23-22.805-22.805c0-1.176.089-2.354.266-3.499a7.502 7.502 0 0 0-6.273-8.553c-4.093-.633-7.923 2.178-8.553 6.273a38.11 38.11 0 0 0-.439 5.778c0 20.846 16.959 37.805 37.805 37.805s37.805-16.959 37.805-37.805-16.961-37.804-37.807-37.804zM443.891 45.457c-12.49 0-22.652 10.162-22.652 22.652s10.162 22.652 22.652 22.652 22.652-10.162 22.652-22.652-10.162-22.652-22.652-22.652zm0 30.305c-4.22 0-7.652-3.433-7.652-7.652s3.433-7.652 7.652-7.652 7.652 3.433 7.652 7.652-3.433 7.652-7.652 7.652z" data-original="#000000"/><path xmlns="http://www.w3.org/2000/svg" fill="#1DBBBA" d="M504.5 45.457h-12.749a52.723 52.723 0 0 0-25.208-25.208V7.5c0-4.143-3.357-7.5-7.5-7.5h-30.305a7.499 7.499 0 0 0-7.5 7.5v12.748a52.727 52.727 0 0 0-25.209 25.209H383.28a7.499 7.499 0 0 0-7.5 7.5v30.305c0 4.143 3.357 7.5 7.5 7.5h12.748a52.73 52.73 0 0 0 25.21 25.21v12.748c0 4.143 3.357 7.5 7.5 7.5h30.305c4.143 0 7.5-3.357 7.5-7.5v-12.749a52.727 52.727 0 0 0 25.209-25.209H504.5c4.143 0 7.5-3.357 7.5-7.5V52.957c0-4.143-3.357-7.5-7.5-7.5zM497 75.762h-10.259c-3.176 0-6.007 2-7.068 4.993-3.793 10.694-12.442 19.345-23.137 23.138a7.5 7.5 0 0 0-4.993 7.068v10.259h-15.305v-10.259c0-3.176-2-6.007-4.993-7.068-10.694-3.793-19.345-12.443-23.138-23.138a7.5 7.5 0 0 0-7.068-4.993H390.78V60.457h10.259c3.176 0 6.007-2 7.068-4.993C411.9 44.77 420.55 36.12 431.245 32.327a7.5 7.5 0 0 0 4.993-7.068V15h15.305v10.259c0 3.176 2 6.007 4.993 7.068 10.694 3.793 19.344 12.442 23.137 23.137a7.5 7.5 0 0 0 7.068 4.993H497zm-30.457 368.129c0-12.49-10.162-22.652-22.652-22.652s-22.652 10.162-22.652 22.652 10.162 22.652 22.652 22.652 22.652-10.162 22.652-22.652zm-30.305 0c0-4.22 3.433-7.652 7.652-7.652s7.652 3.433 7.652 7.652-3.433 7.652-7.652 7.652-7.652-3.433-7.652-7.652z" data-original="#000000"/><path xmlns="http://www.w3.org/2000/svg" fill="#1DBBBA" d="M504.5 421.238h-12.748a52.727 52.727 0 0 0-25.209-25.209V383.28c0-4.143-3.357-7.5-7.5-7.5h-30.305a7.499 7.499 0 0 0-7.5 7.5v13.336a7.5 7.5 0 0 0 8.232 12.172 37.425 37.425 0 0 1 1.772-.68 7.501 7.501 0 0 0 4.996-7.069V390.78h15.305v10.259c0 3.176 2 6.007 4.993 7.068 10.694 3.793 19.344 12.443 23.137 23.138a7.5 7.5 0 0 0 7.068 4.993H497v15.305h-10.259c-3.176 0-6.007 2-7.068 4.993-3.793 10.694-12.442 19.344-23.137 23.137a7.5 7.5 0 0 0-4.993 7.068V497h-15.305v-10.259c0-3.176-2-6.007-4.993-7.068-10.694-3.793-19.345-12.442-23.138-23.137a7.5 7.5 0 0 0-7.068-4.993H390.78v-15.305h10.259a7.499 7.499 0 0 0 7.07-4.997c.223-.63.463-1.252.718-1.865a7.5 7.5 0 0 0-12.275-8.138H383.28a7.499 7.499 0 0 0-7.5 7.5v30.305c0 4.143 3.357 7.5 7.5 7.5h12.749a52.727 52.727 0 0 0 25.209 25.209V504.5c0 4.143 3.357 7.5 7.5 7.5h30.305c4.143 0 7.5-3.357 7.5-7.5v-12.749a52.723 52.723 0 0 0 25.208-25.208H504.5c4.143 0 7.5-3.357 7.5-7.5v-30.305a7.5 7.5 0 0 0-7.5-7.5zM90.762 68.109c0-12.49-10.162-22.652-22.652-22.652S45.457 55.619 45.457 68.109s10.162 22.652 22.652 22.652S90.762 80.6 90.762 68.109zm-30.305 0c0-4.22 3.433-7.652 7.652-7.652s7.652 3.433 7.652 7.652-3.433 7.652-7.652 7.652-7.652-3.432-7.652-7.652z" data-original="#000000"/><path xmlns="http://www.w3.org/2000/svg" fill="#1DBBBA" d="M7.5 90.762h12.748a52.727 52.727 0 0 0 25.209 25.209v12.749c0 4.143 3.357 7.5 7.5 7.5h30.305c4.143 0 7.5-3.357 7.5-7.5v-12.748a52.73 52.73 0 0 0 25.21-25.21h12.748c4.143 0 7.5-3.357 7.5-7.5V52.957c0-4.143-3.357-7.5-7.5-7.5h-12.749a52.727 52.727 0 0 0-25.209-25.209V7.5c0-4.143-3.357-7.5-7.5-7.5H52.957a7.499 7.499 0 0 0-7.5 7.5v13.337a7.501 7.501 0 0 0 8.236 12.169 36.57 36.57 0 0 1 1.771-.68 7.5 7.5 0 0 0 4.993-7.068V15h15.305v10.259c0 3.176 2 6.007 4.993 7.068C91.449 36.12 100.1 44.77 103.893 55.464a7.5 7.5 0 0 0 7.068 4.993h10.259v15.305h-10.259c-3.176 0-6.007 2-7.068 4.993-3.793 10.694-12.444 19.345-23.138 23.138a7.5 7.5 0 0 0-4.993 7.068v10.259H60.457v-10.259c0-3.176-2-6.007-4.993-7.068C44.77 100.1 36.12 91.449 32.327 80.755a7.5 7.5 0 0 0-7.068-4.993H15V60.457h10.259a7.5 7.5 0 0 0 7.069-4.994c.222-.628.461-1.248.716-1.859a7.502 7.502 0 0 0-12.27-8.147H7.5a7.499 7.499 0 0 0-7.5 7.5v30.305a7.5 7.5 0 0 0 7.5 7.5zm121.22 330.476h-12.748a52.73 52.73 0 0 0-25.21-25.21V383.28c0-4.143-3.357-7.5-7.5-7.5H52.957a7.499 7.499 0 0 0-7.5 7.5v12.749a52.727 52.727 0 0 0-25.209 25.209H7.5a7.499 7.499 0 0 0-7.5 7.5v30.305c0 4.143 3.357 7.5 7.5 7.5h12.749a52.723 52.723 0 0 0 25.208 25.208V504.5c0 4.143 3.357 7.5 7.5 7.5h30.305c4.143 0 7.5-3.357 7.5-7.5v-12.748a52.727 52.727 0 0 0 25.209-25.209h12.749c4.143 0 7.5-3.357 7.5-7.5v-30.305a7.5 7.5 0 0 0-7.5-7.5zm-7.5 30.305h-10.259c-3.176 0-6.007 2-7.068 4.993-3.793 10.694-12.443 19.344-23.138 23.137a7.5 7.5 0 0 0-4.993 7.068V497H60.457v-10.259c0-3.176-2-6.007-4.993-7.068-10.694-3.793-19.344-12.443-23.137-23.137a7.5 7.5 0 0 0-7.068-4.993H15v-15.305h10.259c3.176 0 6.007-2 7.068-4.993 3.793-10.694 12.442-19.345 23.137-23.138a7.5 7.5 0 0 0 4.993-7.068V390.78h15.305v10.259c0 3.176 2 6.007 4.993 7.068 10.694 3.793 19.345 12.443 23.138 23.138a7.5 7.5 0 0 0 7.068 4.993h10.259z" data-original="#000000"/><path xmlns="http://www.w3.org/2000/svg" fill="#1DBBBA" d="M68.109 421.238c-12.49 0-22.652 10.162-22.652 22.652s10.162 22.652 22.652 22.652 22.652-10.162 22.652-22.652-10.161-22.652-22.652-22.652zm0 30.305c-4.22 0-7.652-3.433-7.652-7.652s3.433-7.652 7.652-7.652 7.652 3.433 7.652 7.652-3.432 7.652-7.652 7.652zm55.813-338.229a7.5 7.5 0 0 0-10.607 10.607l21.542 21.542h-6.137c-4.143 0-7.5 3.357-7.5 7.5s3.357 7.5 7.5 7.5h24.244c4.083 0 7.504-3.421 7.5-7.505V128.72c0-4.143-3.357-7.5-7.5-7.5s-7.5 3.357-7.5 7.5v6.137zm227.652 40.392c.373 3.782 3.664 6.758 7.463 6.758h24.244c4.143 0 7.5-3.357 7.5-7.5s-3.357-7.5-7.5-7.5h-6.137l21.542-21.542a7.5 7.5 0 0 0-10.607-10.607l-21.542 21.542v-6.137c0-4.143-3.357-7.5-7.5-7.5s-7.5 3.357-7.5 7.5v24.239c-.001.249.012.499.037.747zm-191.147 202.57c-.372-3.788-3.668-6.759-7.463-6.759H128.72c-4.143 0-7.5 3.357-7.5 7.5s3.357 7.5 7.5 7.5h6.137l-21.542 21.541a7.498 7.498 0 0 0-.001 10.606 7.476 7.476 0 0 0 5.304 2.197 7.477 7.477 0 0 0 5.303-2.196l21.543-21.542v6.137c0 4.143 3.357 7.5 7.5 7.5s7.5-3.357 7.5-7.5v-24.24a7.69 7.69 0 0 0-.037-.744zm227.652 40.389c1.464 1.464 3.384 2.196 5.303 2.196s3.839-.732 5.304-2.197a7.498 7.498 0 0 0-.001-10.606l-21.542-21.541h6.137c4.143 0 7.5-3.357 7.5-7.5s-3.357-7.5-7.5-7.5h-24.244c-4.076 0-7.502 3.415-7.5 7.503v24.24c0 4.143 3.357 7.5 7.5 7.5s7.5-3.357 7.5-7.5v-6.137z" data-original="#000000"/></svg>