<svg xmlns="http://www.w3.org/2000/svg" width="559" height="384" fill="none"><path fill="#D6D6D6" d="m86.357 122.448-50.451-.991 12.884-8.008 37.567 8.999Z"/><path fill="#E8E8E8" d="M86.356 122.448 64.138 109.6l-10.177 5.088 32.395 7.76Z"/><path fill="#C2C2C2" d="m47.507 121.684 1.835 5.311 37.015-4.547-38.85-.764Z"/><path fill="#D6D6D6" d="m198 257-51-2.295L160.238 247 198 257Z"/><path fill="#E8E8E8" d="m198 257-21.758-14L166 248.035 198 257Z"/><path fill="#C2C2C2" d="m159 255 1.707 5L198 256.642 159 255Z"/><path fill="url(#a)" d="m129.008 247.18.372-.645a68.806 68.806 0 0 0 5.203 2.71l-.322.676a73.375 73.375 0 0 1-5.253-2.741Zm-5.029-3.126a89.7 89.7 0 0 1-4.788-3.487l.459-.589a82.05 82.05 0 0 0 4.746 3.455l-.417.621Zm15.753 8.156.255-.694c3.446 1.256 5.578 1.661 5.602 1.667l-.14.728c-.091-.019-2.211-.417-5.717-1.701Zm-25.073-15.457a96.265 96.265 0 0 1-4.277-4.105l.529-.535a91.488 91.488 0 0 0 4.239 4.08l-.491.56Z"/><path fill="#D6D6D6" d="m500 230.236-46.879-2.125 12.168-7.136L500 230.236Z"/><path fill="#E8E8E8" d="m500 230.236-20.352-12.472-9.58 4.485L500 230.236Z"/><path fill="#C2C2C2" d="m463.9 228.6 1.58 4.981 34.52-3.345-36.1-1.636Z"/><path fill="url(#b)" d="M437.494 217v.676c1.818 0 3.624.083 5.384.231l.054-.677a68.385 68.385 0 0 0-5.438-.23Zm-5.437.175c-1.788.129-3.61.319-5.411.569l.094.671c1.788-.252 3.59-.44 5.363-.562l-.046-.678Zm16.279.739-.115.661c3.318.577 5.2 1.226 5.222 1.233l.223-.636c-.081-.027-1.95-.676-5.33-1.258Zm-27.048.772a88.897 88.897 0 0 0-5.288 1.285l.175.661a85.721 85.721 0 0 1 5.247-1.284l-.134-.662Z"/><path fill="url(#c)" d="M375.805 19.789a22.69 22.69 0 0 0-6.477.927C366.679 14.444 360.09 10 352.382 10c-8.568 0-15.753 5.484-17.684 12.882a13.823 13.823 0 0 0-4.782-.854C322.783 22.028 317 27.388 317 34h77c0-7.844-8.146-14.211-18.195-14.211Z"/><path fill="url(#d)" d="M428.305 125.973a19.907 19.907 0 0 1 5.803.85c2.375-5.749 8.279-9.823 15.186-9.823 7.678 0 14.117 5.027 15.846 11.809a12.118 12.118 0 0 1 4.286-.783c6.392 0 11.574 4.913 11.574 10.974h-69c0-7.19 7.3-13.027 16.305-13.027Z"/><path fill="url(#e)" d="M301.477 127.032 185.174 143l7.311-30.903 108.992 14.935Z"/><path fill="url(#f)" d="m192.486 112.097 108.992 14.935L164 129.298l28.486-17.201Z"/><path fill="url(#g)" d="m192.499 112.199 108.748 14.791-131.46-39.11 22.712 24.319Z"/><path fill="#DB9B7B" d="M236.236 101.713c-.542.93-7.754 9.136-8.234 10.095-.481.96-3.509 4.908-3.509 4.908l-1.522-1.298s2.561-5.573 4.62-9.492c.2-.382.394-.747.583-1.089.727-1.329 1.34-2.323 1.676-2.597 1.318-1.078 3.246-2.558 2.387-3.986-.858-1.428-4.219-9.088-4.31-9.86-.091-.773-6.563-12.878 5.193-7.566 0 0 3.204 7.913 3.084 12.668-.121 4.755.572 7.285.032 8.217Z"/><path fill="#DE9673" d="M224.494 116.715s-.192.925-.011 1.489c.18.565.422 2.996 1.067 3.384.646.388 2.01.721 1.998.831-.047.502-.467.753-1.895.649-1.428-.104-2.634-2.062-3.477-3.437-.842-1.375-2.035-2.1-1.171-2.9.863-.8 2.082-1.662 2.23-1.826.147-.164 1.259 1.81 1.259 1.81Z"/><path fill="#EEA886" d="M222.964 80.168s-2.465 4.18-1.277 7.153c1.167 2.922 5.965 9.673 6.382 10.711.418 1.039 1.372 2.49.495 2.702-1.176.286-2.612.445-4.858 1.657-1.482.802-3.837 1.015-5.422 1.576-.627.222-.935 1.641-.289 2.042.477.297 12.794-1.261 14.679-2.264.821-.437.931-1.623.272-4.948-.297-1.5-1.765-6.448-2.186-8.292-.407-1.785-1.261-4.46-1.261-4.46s1.899-10.454-6.535-5.877Z"/><path fill="#EEA886" d="M218.1 106.039a13.497 13.497 0 0 0-1.705-.099c-.546.036-2.678-.068-3.282.023-.604.091-1.053.764-1.366.561-.314-.203.362-.983 1.074-1.42.712-.436 2.774-1.608 3.807-2.434 1.034-.826 1.573-.93 2.003-.084.43.845.769 2.139.974 2.496.204.357-1.505.957-1.505.957Z"/><path fill="#1D3B54" d="M236.582 97.291s1.063 1.395-9.088.474c0 0-9.345-10.584-5.591-16.355 1.985-3.053 11.667-1.152 11.667-1.152s2.262 3.158 3.012 17.033Z"/><path fill="#363636" d="M227.547 122.418s.135-.607-1.82-.811c-1.12-.114-3.051-2.837-3.246-3.154-.195-.316-.578-2.137-.924-2.223-.345-.086-1.532 1.053-.527 2.272 1.005 1.219 2.399 4.358 4.615 4.544 1.76.169 1.922-.3 1.902-.628ZM218.844 103.055s-.253-1.836-1.689-.852c-1.436.983-2.699 1.986-4.241 2.807-1.541.822-1.481 1.416-1.074 1.688.407.273 1.435-.487 2.032-.772.597-.286 1.733-1.722 4.972-2.871Z"/><path fill="#A77860" d="M228.174 104.841s3.329-.649 4.155-.938c-.784.325-4.382 1.828-4.737 2.027.199-.381.394-.746.582-1.089Z"/><path fill="#EEA886" d="M209.473 49.067s.435-1.208.487-1.394c.052-.187-.089-.713-.315-1.299s-.794-1.285-.899-1.308a.55.55 0 0 0-.461.008c-.167.075-.311.19-.419.338a.65.65 0 0 0-.556.28.559.559 0 0 0-.503.37s-.351 0-.432.29c.071.241.121.488.149.738 0 .213.555 1.54 1.086 2.515.008-.004.644.497 1.863-.538Z"/><path fill="#CF8C6C" d="M208.636 47.45s-.438.471-.487.666c-.048.195-1.368-.431-1.368-.431s1.264-.753 1.855-.236Z"/><path fill="#DB9C7C" d="M208.822 45.214s.534 1.508.302 1.623a.405.405 0 0 1-.388.018l-.062.72s-.31.455-.714-.016c0 0-.247.455-.583-.047 0 0-.295.227-.487.023-.191-.205-.499-1.188-.499-1.188s.009-.255.412-.305a.563.563 0 0 1 .508-.375.607.607 0 0 1 .556-.278s.374-.579.895-.324c-.005-.003.037.084.06.15Z"/><path fill="#EEA886" d="M209.96 47.632s-.799-.755-1.415-.974c-.14-.05-.284-.073-.383.038-.099.11-.064.394.266.738.242.284.443.6.597.94 0 0 .442.246.935-.742ZM245.417 74.344c.249.024.492.092.717.202.213.124.636.18.856.228.458.126.905.292 1.335.495.081.054.446.581.625.672.178.091.563.232.475.383-.087.151-.467.12-.467.12a.243.243 0 0 1 .098.107c.022.044.029.094.022.143-.068.304-.258.352-.258.352s.096.2.036.325a.555.555 0 0 1-.325.307.507.507 0 0 1-.118.324.465.465 0 0 1-.416.153s-.147.297-.332.28a1.53 1.53 0 0 1-.447-.176 5.312 5.312 0 0 1-1.623-1.682c-.475-.866-1.527-.973-1.527-.973l1.349-1.26Z"/><path fill="#0E1E2B" d="m251.697 78.353-3.306 2.608a.764.764 0 0 1-.571.162.776.776 0 0 1-.518-.29l-1.645-2.082a.777.777 0 0 1 .128-1.09l3.306-2.602a.776.776 0 0 1 1.089.128l1.645 2.084a.773.773 0 0 1-.128 1.082Zm-5.589-.284a.27.27 0 0 0-.065.076.257.257 0 0 0 .023.283l1.645 2.084a.257.257 0 0 0 .359.042l3.304-2.61a.262.262 0 0 0 .096-.17.255.255 0 0 0-.054-.187l-1.645-2.084a.264.264 0 0 0-.171-.095.253.253 0 0 0-.188.053l-3.304 2.608Z"/><path fill="#363636" d="m255.685 73.772-12.679 10.006 7.01 8.883 12.68-10.006-7.011-8.883Z"/><path fill="#4A4A4A" d="m255.683 73.776-12.679 10.006 4.064 5.15 12.679-10.007-4.064-5.15Z"/><path fill="#DB9C7C" d="M248.887 76.34s-.904-.687-1.282-.598c-.378.09-.068.357-.068.357s-.304-.27-.547-.047c-.243.222.138.513.138.513a.327.327 0 0 0-.445.162c-.162.303.216.474.216.474s-.517.024-.344.409c.294.649 1.086.839 1.086.839a.375.375 0 0 0 .376-.266.488.488 0 0 0 .551-.487s.543-.242.298-.641c0-.002.55-.343.021-.716Z"/><path fill="#285173" d="M228.064 62.106s1.586-.248 2.67.532c1.084.78 1.842 2.272 2.176 2.728.334.456 4.229 4.6 4.421 4.672.191.074 2.987 1.274 4.607 2.302 1.62 1.027 4.405 2.06 4.405 2.06l-1.086 2.138s-7.667-2.463-9.088-3.733c-1.521-1.361-6.32-5.167-6.32-5.167s-4.12-3.257-1.785-5.532Z"/><path fill="#EDDAD3" d="M225.837 61.688s1.675.419 2.228.419c.554 0 3.147 2.272 3.704 3.177.557.906.487 2.446.081 4.317-.406 1.871.414 2.305.415 4.095.002 1.79.427 5.495.68 6.44.254.944-8.377 2.842-10.701 1.492 0 0 1.398-3.372 1.568-3.848.17-.475-.502-2.75-.854-3.3-.352-.55-2.901-4.981-2.901-4.981s-2.058-3.958-1.084-5.08c.845-.973 3.515-1.785 3.971-2.06.456-.273 1.866-.622 2.893-.671Z"/><path fill="#EEA886" d="M221.746 51.202c.847-.501 4.036-1.947 5.67 2.168 1.634 4.116-.123 7.628-2.452 7.25-2.329-.378-4.257-3.067-4.831-5.296-.575-2.228.545-3.489 1.613-4.122Z"/><path fill="#252E3B" d="M227.417 53.372s-.562-3.689-4.22-3.097c-3.658.593-4.047 3.782-3.315 5.906a5.444 5.444 0 0 0 2.459 2.973s-.487-1.74.134-2.339c.622-.598 3.262-2.072 4.074-4.443 0 .002.706.558.868 1Z"/><path fill="#252E3B" d="M222.803 53.885c-.19 1.551-1.444 2.674-2.799 2.507-1.355-.167-2.303-1.558-2.11-3.11.193-1.551 1.444-2.674 2.801-2.508 1.357.165 2.3 1.564 2.108 3.11Z"/><path fill="#EEA886" d="M226.216 59.776s.252 2.87.497 3.77c0 0-1.274 1.91-3.77-1.186 0 0 .487-1.576-.487-3.408-.974-1.832 3.76.825 3.76.825Z"/><path fill="#EEA886" d="m226.711 63.546.289 1.457L224.898 64l1.813-.453Z"/><path fill="#285173" d="M222.68 62.482s2.847 3.446 3.371 4.816c1.271 3.322.699 11.846.662 15.446-.037 3.6-7.141 1.31-7.141 1.31s3.501-7.071 1.253-11.346c-2.247-4.275-2.864-7.045-2.864-7.045s.626-1.644 2.037-2.155c1.41-.511 2.682-1.026 2.682-1.026ZM232.173 65.621s.299 3.326-.039 5.072c0 0 .631 3.627.891 4.836.425 1.98 2.308 5.563 2.308 5.563l-1.811 1.656a.33.33 0 0 1-.34.07.325.325 0 0 1-.209-.277c-.357-3.221-2.366-17.587-6.131-20.623l1.493.162s2.91 1.802 3.838 3.541Z"/><path fill="#EEA886" d="M222.686 55.972a.57.57 0 0 0-.877-.073c-.217.242-.251.845.301 1.51.551.663 2.078.9.576-1.437Z"/><path fill="#285173" d="M224.32 70.769s-2.018 2.395-3.571.505c-1.634-1.996-2.189-3.1-2.758-4.009-.533-.857-4.189-5.733-4.363-5.965-.173-.232-2.085-3.446-2.66-4.668-.436-.93-3.502-6.624-3.646-6.845-.145-.22 2.656-1.217 2.656-1.217s3.144 5.636 3.469 6.202c.324.567 1.757 3.48 2.434 4.22.793.873 3.598 4.473 4.114 4.51.608.05 5.565 5.952 4.325 7.267Z"/><path fill="#A77860" d="m226.27 60.406.053.565s-1.212.496-3.268-1.193c.006 0 1.464 1.197 3.215.628Z"/><path fill="#1D3B54" d="M232.855 70.043s.259-2.33-.456-3.799c0 0 .324 1.357-.133 3.324l.589.475Z"/><path fill="#D6C5BE" d="m226.098 63.796.903 1.208-2.704-1.328 1.801.12Z"/><path fill="#FAE6DE" d="M223.022 61.965s2.179 1.422 3.083 1.83l-1.404 1.67-2.207-2.903.528-.597Z"/><path fill="#D6C5BE" d="M227 64.997s-.615-2.842-.576-3.234l.921 1.777-.345 1.457Z"/><path fill="#FAE6DE" d="m226.424 61.769.415.15 2.058 2.106-1.551-.479-.922-1.777Z"/><path fill="#D6D6D6" d="m500.001 57.998-50.106 13.44 10.435-11.589L500.001 58Z"/><path fill="#E8E8E8" d="m500 57.998-25.617-6.333-8.594 7.928L500 57.998Z"/><path fill="#C2C2C2" d="m461.418 68.348 3.33 4.719L500 57.999l-38.582 10.349Z"/><path fill="url(#h)" d="M344.658 61.391a90.684 90.684 0 0 1-6.001-.365l.075-.744c1.962.196 3.963.32 5.945.366l-.019.743Zm6.015-.071-.037-.747a85.232 85.232 0 0 0 5.941-.497l.088.743a85.645 85.645 0 0 1-5.992.5Zm-17.972-1.133a80.195 80.195 0 0 1-5.877-1.279l.183-.73c1.913.495 3.871.913 5.82 1.27l-.126.74Zm29.909-.285-.139-.73a97.034 97.034 0 0 0 2.859-.585c1.007-.226 2.006-.44 2.996-.645l.153.73c-.986.207-1.982.421-2.987.646-.965.214-1.926.41-2.882.588v-.004Zm88.41-.128c-.016-.009-1.885-.902-5.581-1.987l.212-.718c3.764 1.105 5.62 1.995 5.696 2.031l-.327.674Zm-76.676-2.261-.137-.731c1.976-.366 3.964-.713 5.908-1.027l.12.73c-1.936.315-3.918.66-5.891 1.028Zm-53.282-.335a73.595 73.595 0 0 1-5.606-2.174l.297-.687a76.942 76.942 0 0 0 5.554 2.154l-.245.707Zm118.597-.844a103.62 103.62 0 0 0-5.87-1.078l.112-.732a97.85 97.85 0 0 1 5.911 1.096l-.153.714Zm-53.51-.73-.1-.742c1.996-.27 4.001-.515 5.954-.731l.08.743c-1.944.222-3.941.465-5.932.735l-.002-.006Zm41.721-1.115a138.089 138.089 0 0 0-5.952-.488l.046-.747c2.022.123 4.035.287 5.983.49l-.077.745Zm-29.835-.17-.059-.745c2.01-.16 4.02-.289 5.989-.384l.037.747c-1.957.1-3.965.221-5.965.388l-.002-.006Zm17.914-.557c-1.912-.04-3.904-.046-5.975-.017l-.011-.747a163.3 163.3 0 0 1 6.001.015l-.015.749Zm-105.912-1.361a77.93 77.93 0 0 1-5.205-3.02l.4-.632a77.167 77.167 0 0 0 5.154 2.99l-.349.662Zm-10.158-6.438a75.544 75.544 0 0 1-4.666-3.8l.496-.56a74.729 74.729 0 0 0 4.62 3.762l-.45.598Zm-9.008-7.97a66.956 66.956 0 0 1-3.97-4.526l.585-.468a67.976 67.976 0 0 0 3.928 4.476l-.543.517Zm-7.507-9.4a55.1 55.1 0 0 1-3.027-5.212l.667-.34a54.865 54.865 0 0 0 2.985 5.143l-.625.409Zm-5.42-10.753a36.329 36.329 0 0 1-1.549-5.846l.73-.128a35.652 35.652 0 0 0 1.52 5.72l-.701.254Zm-1.197-11.844L276 5.954A19.37 19.37 0 0 1 277.239 0l.698.265a18.537 18.537 0 0 0-1.19 5.73Z"/><path fill="#CDCDCD" fill-opacity=".5" d="M519 384c18.856 0 28.284 0 34.142-5.858C559 372.284 559 362.856 559 344v-8.658h-27.159v-35.893h-26.13v15.982h-21.623v-36.824h-35.401v33.672l-10.59.215v-33.951H425.74v-14.469h-7.415v-9.716H389.38v9.716h-7.415v14.469h-12.354v18.391l-5.702.218-1.713-54.49h-38.127v28.988l-13.413.215v-45.304h-4.589V217h-45.833v9.561h-4.592v61.052h-2.882v-19.035h-7.06v-9.31h-10.238v-27.172h-14.825v27.172h-10.238v9.31h-7.06v32.207h-4.941l-3.886-.033v-37.314l-112.878.611v84.025H72.81v-11.012H49.42v21.163h-9.176v-7.774H20.121v15.763H0V384h519Z"/><path fill="url(#i)" d="M418.931 216.002h-.757v55.025h.757v-55.025Z"/><path fill="#E72E35" d="M418.937 215.998s-5.355-6.59-14.748-1.267c-9.394 5.324-14.639 9.284-25.509 3.792 0 0 6.508 22.049 20.053 15.049 13.546-7.001 20.204 1.996 20.204 1.996v-19.57Z"/><path fill="url(#j)" d="m455.147 274.92-187.932 25.801 11.813-49.935 176.119 24.134Z"/><path fill="url(#k)" d="m279.028 250.786 176.119 24.134L233 278.58l46.028-27.794Z"/><path fill="url(#l)" d="m278.46 252.759 176.364 22.272L241.193 214l37.267 38.759Z"/><path fill="#EEA886" d="M374.08 190.119s1.591-1.457 1.836-1.668c.245-.212 1.228-.313 2.276-.156 1.02.154 2.467.212 2.574.362a.888.888 0 0 1 .272.7 1.78 1.78 0 0 1-.251.867s.277.578-.073 1.045a.948.948 0 0 1-.25 1.02s.215.547-.167.856c0 0-.916.11-1.244.248-.327.139-2.775.139-4.63-.048.006-.003-1.157-.674-.343-3.226Z"/><path fill="#A67962" d="M377.135 190.369s-.449.986-.716 1.198c-.267.212 1.717 1.572 1.717 1.572s.184-2.193-1.001-2.77Z"/><path fill="#D59778" d="M380.48 188.63s-2.685.152-2.714.586a.693.693 0 0 0 .224.614l-1.076.562s-.501.774.489 1.095c0 0-.544.676.45.871 0 0-.167.606.284.778.451.171 2.169 0 2.169 0s.396-.191.214-.848a.925.925 0 0 0 .235-1.016s.429-.655.167-1.302c0 0 .364-.741-.158-1.335-.007-.005-.172-.005-.284-.005Z"/><path fill="#EEA886" d="M376.006 188.434s1.687.748 2.428 1.56c.167.184.297.393.189.618-.109.225-.569.354-1.317.068-.747-.285-1.844-.315-1.844-.315s-.681-.519.544-1.931Z"/><path fill="#EEA886" d="M380.915 189.976s-2.915-.185-3.171-.047c-.255.139-.2-.927.032-1.031.232-.103 2.655-.334 2.899-.297.243.037.776.85.24 1.375Z"/><path fill="#EEA886" d="M380.151 188.509s4.757.346 4.756.898c-.002.552-1.112.901-4.758.491-3.544-.399.002-1.389.002-1.389Z"/><path fill="#292C47" d="M355.475 258.254s2.56 1.465 3.718 2.003c1.158.537 5.627.639 6.074 1.053.448.413.304 1.748-.433 1.895-.738.147-6.162.715-7.98.317-1.819-.397-5.195.363-5.95.117-.754-.245-.333-4.295-.05-5.206.284-.912 4.621-.179 4.621-.179Z"/><path fill="#3D416B" d="m355.334 256.548.138 1.707s-3.386.683-4.62.184l.23-1.724 4.252-.167Z"/><path fill="#292C47" d="M310.221 267.941s2.435 1.669 3.544 2.3c1.11.63 5.559 1.088 5.971 1.536.412.449.167 1.769-.584 1.856-.751.087-6.199.217-7.98-.334-1.78-.55-5.208-.056-5.941-.36-.732-.304.02-4.309.371-5.195.35-.886 4.619.197 4.619.197Z"/><path fill="#3D416B" d="m310.541 266.306-.32 1.635s-3.429.409-4.422-.182l.369-1.697 4.373.244Z"/><path fill="#292C47" d="M338.411 215.56c-.334 1.098-1.168 3.446-2.083 5.904a397.82 397.82 0 0 1-.611 1.642c-1.233 3.306-2.401 6.357-2.401 6.357-1.781 4.065-5.956 12.739-7.977 14.263-2.725 2.052-14.797 23.676-14.797 23.676l-5.437-.642s5.913-16.166 8.374-19.742c2.747-3.993 7.061-9.211 7.52-13.647.289-2.784 2.002-11.431 2.002-11.431s2.02-9.692 6.385-16.02c1.106-1.584 9.025 9.64 9.025 9.64Z"/><path fill="#292C47" d="M344.211 214.587s15.141 11.288 16.828 13.621c1.687 2.332.667 6.015.409 7.15-.259 1.135-5.065 19.762-5.192 21.716 0 0-4.672 1.153-5.864-.361 0 0 1.619-17.689 2.692-21.348 1.073-3.66-4.058-6.059-7.022-7.384-2.964-1.325-17.961-8.53-17.689-11.447.183-2.02.452-3.916.452-3.916s2.94-2.378 15.386 1.969Z"/><path fill="#BFB0AA" d="M344.369 185.801s9.831 1.849 14.388 2.416c1.43.177 14.937 1.208 15.49 1.292.552.083.133 4.45.133 4.45s-15.081-1.001-15.983-.924c-.903.077-14.919-.896-16.209-1.836-1.29-.939-2.236-2.476-1.427-3.978 1.136-2.096 3.608-1.42 3.608-1.42Z"/><path fill="#CFBEB6" d="M343.882 184.401s1.693 4.963 1.705 7.797c.012 2.833-2.632 11.347-2.817 12.917-.501 4.241 1.442 9.472 1.442 9.472l-15.62 3.004a98.012 98.012 0 0 1-.369-9.874c.077-5.388 1.641-9.809 2.026-12.891 1.315-10.513 9.93-12.86 9.93-12.86l3.703 2.435Z"/><path fill="#EEA886" d="M351.06 172.134s1.41 2.613.71 3.02c-.577.334.676 2.901.835 3.32.158.418-1.045.724-1.302.993-.257.268-1.019 3.587-2.016 3.687-.996.101-5.487-1.46-6.71-2.731-1.223-1.272-2.226-7.009-1.41-9.434.816-2.425 7.403-3.419 9.893 1.145Z"/><path fill="#EEA886" d="M346.298 182.442s-.119.265-.297.679c-.075.167-.167.372-.249.587-.07.167-.142.334-.215.519-.461 1.133-.973 2.504-1.048 3.194-.14 1.279-3.721-5.43-3.721-5.43a62.111 62.111 0 0 0 2.862-8.287c1.179-4.491 2.668 8.738 2.668 8.738Z"/><path fill="#161826" d="M351.342 172.701s1.44-2.823-1.168-4.916c-2.609-2.093-8.263.646-8.807.786-.544.14-2.711 1.261-1.241 6.698 1.32 4.91 1.547 4.516 1.547 4.516s.973-2.371 1.537-2.782c.883-.641 2.818-.485 2.818-.485s-.922-2.449.519-2.796c1.442-.347 3.336-1.563 4.795-1.021Z"/><path fill="#EEA886" d="M344.489 175.121c-.127-.334-.538-1.779-1.778-.933-1.239.846.773 3.568.988 3.603.216.035 1.859.158.79-2.67Z"/><path fill="#EDDAD3" d="M341.026 181.389s2.429 3.691 3.908 5.242l-.461 2.56-4.293-7.236.846-.566Z"/><path fill="#A67962" d="M346.299 182.442s-.118.265-.297.679c-.075.167-.167.372-.248.588-2.397-1.781-2.966-3.071-2.983-3.109 1.12.809 3.528 1.842 3.528 1.842Z"/><path fill="#292C47" d="M344.907 186.78s.441 1.681.321 2.337c-.047.243-.728-.066-.728-.066l.407-2.271Z"/><path fill="#23263D" d="M344.212 214.587s-.444-1.36-.539-1.705l-15.228 2.837.147 1.869s11.139-2.009 15.62-3.001Z"/><path fill="#DE9D7D" d="m318.164 224.401-6.363-.791a1.184 1.184 0 0 1-1.027-1.318l.501-4.013a1.174 1.174 0 0 1 .446-.787 1.19 1.19 0 0 1 .872-.24l6.367.79a1.184 1.184 0 0 1 1.028 1.318l-.501 4.015a1.186 1.186 0 0 1-.862.994c-.15.041-.307.052-.461.032Zm-5.674-6.363a.39.39 0 0 0-.434.334l-.501 4.015a.384.384 0 0 0 .078.286.383.383 0 0 0 .256.146l6.367.791a.389.389 0 0 0 .433-.333l.501-4.005a.39.39 0 0 0-.334-.434l-6.366-.8Z"/><path fill="#D88A51" d="m326.502 222.201-22.246-2.763-1.777 14.31 22.245 2.763 1.778-14.31Z"/><path fill="#B57343" d="m326.502 222.202-22.246-2.763-.789 6.354 22.245 2.763.79-6.354Z"/><path fill="#DE9D7D" d="m316.305 225.872-3.067-.381-.109.876 3.067.381.109-.876Z"/><path fill="#EEA886" d="M312.577 218s-.07-.557.018-.816c0 0 .197-.457.318-.793.032-.085.06-.173.081-.262.057-.26.102-.849.413-1.436.31-.588 1.618-2.552 1.618-2.552l1.873.818 1.755.228s.267 4.027.04 4.608a1.455 1.455 0 0 1-.073.167c-.239.474-.616.726-.77.959-.056.085-.68.898-.986.91a.995.995 0 0 1-.896-.382s-.834 0-1.265-.362c0 0-.769.02-1.178-.58 0-.006-.783-.076-.948-.507Z"/><path fill="#BFB0AA" d="M339.375 188.877s-8.99 6.979-12.214 10.827c-1.011 1.208-7.176 13.206-7.576 13.662-.401.456-4.97-.975-4.97-.975s7.304-15.018 7.767-15.895c.462-.876 13.467-12.986 15.092-13.615 1.625-.629 1.836.205 2.73 1.836 1.263 2.296-.829 4.16-.829 4.16Z"/><path fill="#BFB0AA" d="M344.45 194.244a63.312 63.312 0 0 0-.964 2.853 78.703 78.703 0 0 0-1.694 6.313c-.167.741-.334 1.475-.476 2.198-1.76 8.624-6.38 14.954-6.38 14.954s-6.923-.553-8.534-1.699c0 0 .448-9.933 2.67-19.498.167-.738.352-1.475.544-2.204 2.038-7.712 5.32-14.647 10.57-15.2.094.122 6.068 7.336 4.264 12.283Z"/><path fill="#BFB0AA" d="M328.908 200.049s-.692 8.854-6.723 17.537c-.736 1.061 8.344 2.43 8.344 2.43l-1.621-19.967Z"/><path fill="#786F6B" d="M335.831 191.724c-2.086 2.254-6.767 7.641-6.767 7.641.167-.738.353-1.475.544-2.205 1.646-1.648 6.152-5.378 6.223-5.436Z"/><path fill="#292C47" d="M345.231 189.062s-.918 6.211-6.266 6.633c-4.79.379-11.738 2.782-13.993 4.626l-2.788 2.432.667-3.223s2.013-5.106 16.054-4.469c0 0 4.305.805 5.71-6.675.002.002.708.371.616.676Z"/><path fill="url(#m)" d="M160.024 214.828a27.401 27.401 0 0 0-7.822 1.12C149.001 208.37 141.043 203 131.734 203c-10.349 0-19.027 6.627-21.358 15.566a16.696 16.696 0 0 0-5.776-1.032c-8.615 0-15.6 6.477-15.6 14.466h93c0-9.478-9.839-17.172-21.976-17.172Z"/><defs><linearGradient id="a" x1="1194.11" x2="9285.45" y1="-313.555" y2="4357.98" gradientUnits="userSpaceOnUse"><stop stop-color="#FFE9D9"/><stop offset="1" stop-color="#C7C1B9"/></linearGradient><linearGradient id="b" x1="1027.32" x2="9610.64" y1="1141.59" y2="1141.59" gradientUnits="userSpaceOnUse"><stop stop-color="#FFE9D9"/><stop offset="1" stop-color="#C7C1B9"/></linearGradient><linearGradient id="c" x1="114881" x2="128891" y1="23125.6" y2="-3843.06" gradientUnits="userSpaceOnUse"><stop stop-color="#fff"/><stop offset="1" stop-color="#55B5FF"/></linearGradient><linearGradient id="d" x1="-102181" x2="-115189" y1="21306.3" y2="-3173.49" gradientUnits="userSpaceOnUse"><stop stop-color="#fff"/><stop offset="1" stop-color="#55B5FF"/></linearGradient><linearGradient id="e" x1="180312" x2="181425" y1="44420.8" y2="36452.3" gradientUnits="userSpaceOnUse"><stop stop-color="#C2C2C2"/><stop offset="1" stop-color="#C2C2C2"/></linearGradient><linearGradient id="f" x1="151296" x2="266422" y1="6627.23" y2="6627.23" gradientUnits="userSpaceOnUse"><stop stop-color="#D6D6D6"/><stop offset="1" stop-color="#C7C1B9"/></linearGradient><linearGradient id="g" x1="147341" x2="258099" y1="35070.1" y2="66480" gradientUnits="userSpaceOnUse"><stop stop-color="#E8E8E8"/><stop offset="1" stop-color="#C7C1B9"/></linearGradient><linearGradient id="h" x1="206749" x2="207783" y1="24507.3" y2="7599.45" gradientUnits="userSpaceOnUse"><stop stop-color="#FFE9D9"/><stop offset="1" stop-color="#C7C1B9"/></linearGradient><linearGradient id="i" x1="408.383" x2="430.404" y1="251.823" y2="233.833" gradientUnits="userSpaceOnUse"><stop stop-color="#FFE9D9"/><stop offset="1" stop-color="#ABA69F"/></linearGradient><linearGradient id="j" x1="464378" x2="467203" y1="113628" y2="93393.4" gradientUnits="userSpaceOnUse"><stop stop-color="#C2C2C2"/><stop offset="1" stop-color="#C2C2C2"/></linearGradient><linearGradient id="k" x1="391951" x2="684285" y1="16785.9" y2="16785.9" gradientUnits="userSpaceOnUse"><stop stop-color="#D6D6D6"/><stop offset="1" stop-color="#C7C1B9"/></linearGradient><linearGradient id="l" x1="382884" x2="665257" y1="85653.2" y2="161315" gradientUnits="userSpaceOnUse"><stop stop-color="#E8E8E8"/><stop offset="1" stop-color="#C7C1B9"/></linearGradient><linearGradient id="m" x1="138459" x2="155392" y1="28134.3" y2="-4446.58" gradientUnits="userSpaceOnUse"><stop stop-color="#fff"/><stop offset="1" stop-color="#55B5FF"/></linearGradient></defs></svg>