<svg xmlns="http://www.w3.org/2000/svg" width="512" height="512" viewBox="0 0 74 74"><g fill="#1DBBBA"><path xmlns="http://www.w3.org/2000/svg" d="M44.22 53.79a1 1 0 01-1-1V33.11a1 1 0 012 0v19.68a1 1 0 01-1 1zM40.61 72A4.615 4.615 0 0136 67.39V50.25a1 1 0 012 0v17.14a2.606 2.606 0 004.448 1.848 2.576 2.576 0 00.75-1.521 1 1 0 011.985.246A4.619 4.619 0 0140.61 72zM44.22 62.63a1 1 0 01-1-1V59a1 1 0 012 0v2.63a1 1 0 01-1 1z" data-original="#000000"/><path xmlns="http://www.w3.org/2000/svg" d="M47.827 50.515a4.613 4.613 0 01-4.609-4.609V33.1a1 1 0 012 0v12.8a2.609 2.609 0 005.218 0V30.032a7.5 7.5 0 00-7.487-7.487h-11.9a7.5 7.5 0 00-7.487 7.487v15.874a2.609 2.609 0 005.218 0V33.1a1 1 0 012 0v12.8a4.609 4.609 0 01-9.218 0V30.032a9.5 9.5 0 019.487-9.487h11.9a9.5 9.5 0 019.487 9.487v15.874a4.614 4.614 0 01-4.609 4.609z" data-original="#000000"/><path xmlns="http://www.w3.org/2000/svg" d="M33.391 72a4.614 4.614 0 01-4.609-4.609V33.1a1 1 0 012 0v34.291a2.609 2.609 0 005.218 0V50.248a1 1 0 112 0v17.143A4.613 4.613 0 0133.391 72zM37 18.126a8.063 8.063 0 118.063-8.063A8.072 8.072 0 0137 18.126zM37 4a6.063 6.063 0 106.063 6.063A6.069 6.069 0 0037 4z" data-original="#000000"/></g></svg>