<svg xmlns="http://www.w3.org/2000/svg" width="341" height="340" fill="none"><path fill="#fff" d="m52.55 260.183-47.32 39.63h335.54l-52.75-39.63H52.55z"/><path fill="#fff" d="M293.89 252.083a10.06 10.06 0 0 1-2.843 7.165 10.058 10.058 0 0 1-3.235 2.231c-1.214.525-2.52.805-3.842.824h-225a10.066 10.066 0 0 1-9.92-10.22V86.403a10.07 10.07 0 0 1 9.92-10.22h225a10.07 10.07 0 0 1 9.92 10.22v165.68z"/><path fill="#373E48" d="M290.02 247.273a9.772 9.772 0 0 1-9.62 9.9H62.5a9.759 9.759 0 0 1-9.61-9.9V91.213a9.75 9.75 0 0 1 9.61-9.89h217.9a9.76 9.76 0 0 1 9.62 9.89v156.06z"/><path fill="#1DBBBA" d="M274.63 234.983a7.706 7.706 0 0 1-7.59 7.81H75.86a7.708 7.708 0 0 1-7.59-7.81v-131.48a7.71 7.71 0 0 1 7.59-7.81h191.18a7.71 7.71 0 0 1 7.59 7.81v131.48z"/><path fill="#C6C6C6" d="M171.451 76.183H58.931a10.071 10.071 0 0 0-9.92 10.22v165.68a10.067 10.067 0 0 0 6.078 9.396c1.214.525 2.52.805 3.842.824h112.52V76.183z" style="mix-blend-mode:multiply"/><path fill="#7E7E7D" d="M340.77 299.813H5.23v12.76h335.54v-12.76z"/><path fill="#DADADA" d="m75.6 266.833-20.18 17.68h232.06l-22.5-17.68H75.6zM203.869 295.193h-62.17l9.31-8.16h42.48l10.38 8.16z" style="mix-blend-mode:multiply"/><path fill="#C6C6C6" d="M227.99 36.403a5.122 5.122 0 0 1 2.41 6.82l-50.21 104.39a5.118 5.118 0 0 1-6.82 2.39l-74.67-35.9a5.118 5.118 0 0 1-2.39-6.82L146.5 2.903a5.109 5.109 0 0 1 6.82-2.4l74.67 35.9z"/><path fill="#373E48" d="M224.951 37.163a5 5 0 0 1 2.32 6.6l-48.6 101.07a5.004 5.004 0 0 1-2.827 2.507 5.004 5.004 0 0 1-3.773-.187l-70.34-33.82a4.997 4.997 0 0 1-2.31-6.6l48.6-101.08a4.937 4.937 0 0 1 6.6-2.31l70.33 33.82z"/><path fill="#fff" d="M213.94 40.653a3.912 3.912 0 0 1 1.83 5.18l-42.64 88.68a3.91 3.91 0 0 1-2.225 1.996 3.89 3.89 0 0 1-2.985-.166l-59.25-28.49a3.908 3.908 0 0 1-1.83-5.21l42.64-88.69a3.885 3.885 0 0 1 2.228-1.99 3.901 3.901 0 0 1 2.982.17l59.25 28.52zm-12.039 42.52a1.61 1.61 0 0 1 .75 2.13l-6.91 14.37a1.6 1.6 0 0 1-.909.819 1.58 1.58 0 0 1-1.221-.069 1.599 1.599 0 0 1-.75-2.13l6.91-14.37a1.59 1.59 0 0 1 2.13-.75z"/><path fill="#C6C6C6" d="m121.4 55.083-25.09 52.2a5.121 5.121 0 0 0 2.39 6.82l74.7 35.9a5.12 5.12 0 0 0 6.82-2.39l25.09-52.19-83.91-40.34z" style="mix-blend-mode:multiply"/><path fill="#D42A26" d="M154.821 127.553h-40.67l-6.52-35.65h52.71l-5.52 35.65z"/><path fill="#DADADA" d="M153.061 122.833c-10.37 1.87-22-1.5-27.14-11.33-2.86-5.44-4.44-13.09-3-19.62h-15.29l6.53 35.64h40.66l.82-5.28c-.85.25-1.71.45-2.58.59z" style="mix-blend-mode:multiply"/><path fill="#AF251D" d="M163.359 81.863h-60.25v10.04h60.25v-10.04z"/><path fill="#C8C8C8" d="M157.911 84.653a73 73 0 0 1-30.89 2.45 54.088 54.088 0 0 1-12.07-2.64 16.408 16.408 0 0 1-4.81-2.6h-7v10h60.26v-9.4a45.41 45.41 0 0 1-5.49 2.19z" style="mix-blend-mode:multiply"/><path fill="#C6C6C6" d="M140.07 81.863h-10.25v10.04h10.25v-10.04z" style="mix-blend-mode:multiply"/><path fill="#E98B30" d="M137.819 81.863h-9.04v10.04h9.04v-10.04z"/><path fill="#FFD631" d="M135.11 79.833s19.77-10.38 10.48-19.37c0 0-10.91-9.4-12.4 17 0 .01-.88 3.53 1.92 2.37zm1-5.71c.89-15.65 7.34-10.08 7.34-10.08 5.49 5.31-6.2 11.46-6.2 11.46-1.68.66-1.16-1.42-1.16-1.42l.02.04z"/><path fill="#CB7729" d="M133.65 79.593s5.26-21.69-7.62-20.65c0 0-14.26 2 4.61 20.56 0 0 2.05 2.98 3.01.09zm-3.64-4.5c-11.17-11-2.73-12.17-2.73-12.17 7.62-.62 4.51 12.22 4.51 12.22-.56 1.69-1.78-.05-1.78-.05z"/><path fill="#F9B233" d="M132.821 78.503c-16.3-20.88-19.9-6.94-19.9-6.94-2.51 12.68 19.64 10 19.64 10 2.98-.67.26-3.06.26-3.06zm-4.47.65s-13.11 1.61-11.62-5.89c0 0 2.13-8.25 11.78 4.11 0 0 1.61 1.46-.11 1.78h-.05z"/><path fill="#F9B233" d="M133.731 81.393s22.09 3.23 19.86-9.5c0 0-3.281-14-20.051 6.49 0 0-2.779 2.32.191 3.01zm4.149-4c9.92-12.14 11.86-3.85 11.86-3.85 1.32 7.54-11.75 5.63-11.75 5.63-1.76-.45-.11-1.82-.11-1.82v.04z"/><path fill="#B2B2B2" d="m107.631 91.903.69 3.8h51.43l.59-3.8h-52.71z" style="mix-blend-mode:multiply"/><path fill="#C6C6C6" d="M138.131 91.903h-7.41v35.64h7.41v-35.64z" style="mix-blend-mode:multiply"/><path fill="#F9B233" d="M136.501 91.903h-6.53v35.64h6.53v-35.64z"/><path fill="#fff" d="M140.771 96.423h17.44l-3.89 24.47s-14.92 3.14-13.55-24.47z" style="mix-blend-mode:soft-light"/><path fill="#363D46" d="M201.4 60.073c3.58-.13 7.15-.2 10.73-.3 3.58-.1 7.15-.12 10.72-.19l-.31.11.56-.51c.19-.17.34-.36.51-.54.17-.18.27-.38.42-.57.15-.19.09-.2.14-.29a.907.907 0 0 0 .1-.29.553.553 0 0 0 0-.28.7.7 0 0 0 0-.25 1.17 1.17 0 0 0-.24-.45 2.055 2.055 0 0 0-.48-.38 2.649 2.649 0 0 0-.58-.26l-2.76-.68c-.92-.22-1.83-.47-2.73-.77l-2.71-.85-2.66-1c-.89-.31-1.76-.68-2.64-1-.88-.32-1.74-.72-2.6-1.13-.86-.41-1.72-.78-2.57-1.2-.85-.42-1.69-.85-2.54-1.31h.67c-1.67.82-3.41 1.72-5.16 2.53-.88.38-1.75.8-2.65 1.15l-1.35.54c-.45.17-.89.37-1.35.52l-2.73 1c-.92.29-1.85.55-2.77.83-.92.28-1.85.53-2.79.75l-2.81.67a2.34 2.34 0 0 0-.58.27 1.633 1.633 0 0 0-.47.38.87.87 0 0 0-.24.45.487.487 0 0 0 0 .24 1.01 1.01 0 0 0 0 .28c.021.1.055.198.1.29.05.09.09.19.15.29.124.201.265.392.42.57.17.18.31.37.5.54l.56.51-.31-.11c3.57.06 7.15.09 10.72.19 3.57.1 7.15.17 10.72.3-3.57.14-7.14.21-10.72.31-3.58.1-7.15.12-10.72.19h-.18l-.13-.11-.63-.54a6.795 6.795 0 0 1-.6-.6 6.329 6.329 0 0 1-.54-.69c-.08-.13-.15-.27-.22-.41a1.512 1.512 0 0 1-.17-.45 2.008 2.008 0 0 1-.06-1c.06-.369.219-.714.46-1 .212-.25.462-.466.74-.64a3.84 3.84 0 0 1 .84-.41l2.76-.72c.92-.22 1.84-.47 2.74-.76.9-.29 1.82-.55 2.72-.85l2.67-1c.46-.15.89-.35 1.33-.52l1.31-.54c.88-.36 1.73-.78 2.59-1.16 1.73-.81 3.37-1.7 5.14-2.57l.32-.16.34.18c.79.45 1.62.89 2.45 1.3.83.41 1.67.83 2.52 1.22.85.39 1.69.77 2.55 1.13.86.36 1.71.74 2.59 1.06l2.61 1 2.65.87c.89.3 1.78.55 2.68.78l2.7.72c.3.103.586.245.85.42.279.165.526.378.73.63a2.125 2.125 0 0 1 .41 2 1.6 1.6 0 0 1-.17.45c-.07.14-.14.28-.22.41-.166.24-.347.47-.54.69a6.795 6.795 0 0 1-.6.6l-.63.54-.13.11h-.18c-3.57-.07-7.15-.09-10.72-.19-3.57-.1-7-.2-10.53-.34z"/><path fill="#363D46" d="M202.129 47.293c-.097.153-.18.313-.25.48l-.21.5c-.14.32-.27.66-.39 1a11.823 11.823 0 0 0-.59 1.93 2.524 2.524 0 0 0 0 .46c-.014.14-.014.28 0 .42 0 .12.024.24.07.35.017.1.062.195.13.27 0 .1.13.13.2.21.07.08.2.1.31.16l.17.08h.22l.44.09h-.09c.142-.006.283-.026.42-.06a2.54 2.54 0 0 0 .42-.12c.118-.049.229-.113.33-.19.093-.081.174-.176.24-.28.061-.129.098-.268.11-.41a1.992 1.992 0 0 0 0-.5c0-.17-.05-.36-.09-.54-.04-.18-.17-.31-.17-.53.289.275.535.592.73.94.096.195.17.4.22.61.041.235.041.475 0 .71l-.11.37a2.788 2.788 0 0 1-.19.34 2.633 2.633 0 0 1-.55.51 3.27 3.27 0 0 1-.62.32c-.223.08-.454.137-.69.17h-1.02l-.33-.12a1.617 1.617 0 0 1-.64-.32 1.784 1.784 0 0 1-.55-.54 2.103 2.103 0 0 1-.32-.7 1.953 1.953 0 0 1-.09-.7 2.73 2.73 0 0 1 .06-.65c.036-.204.089-.405.16-.6a5.2 5.2 0 0 1 .46-1.07c.18-.333.387-.651.62-.95.216-.303.457-.587.72-.85.246-.308.54-.575.87-.79zm-.47 0c.168-.225.306-.47.41-.73l.33-.73c.23-.5.43-1 .64-1.5.42-.969.755-1.973 1-3a3.308 3.308 0 0 0-.2-2.44 1.433 1.433 0 0 0-.35-.35 2.688 2.688 0 0 0-.51-.28 3.599 3.599 0 0 0-.63-.18c-.22-.07-.47-.08-.71-.13h.11-.32l-.36.07c-.226.049-.447.12-.66.21a2.13 2.13 0 0 0-.54.33l-.2.21c-.051.09-.107.177-.17.26l-.11.31c0 .11 0 .24-.05.36-.025.26-.025.52 0 .78.07.27.1.55.17.83.07.28.16.56.24.85-.19-.22-.4-.44-.59-.68-.19-.24-.33-.52-.49-.79a4.618 4.618 0 0 1-.31-.93 4.51 4.51 0 0 1 0-.52v-.54c0-.18.11-.37.17-.55.091-.172.191-.34.3-.5.234-.29.51-.543.82-.75.291-.2.607-.362.94-.48.16-.06.32-.1.49-.15.177-.047.358-.08.54-.1h.11c.31 0 .62 0 .94.07.341.042.676.12 1 .23.359.107.697.272 1 .49.321.218.599.492.82.81.414.617.627 1.347.61 2.09a6.393 6.393 0 0 1-.32 1.89 10.809 10.809 0 0 1-1.71 3.08c-.332.468-.697.912-1.09 1.33-.19.21-.4.4-.62.6a3.158 3.158 0 0 1-.7.53z"/><path fill="#F9B233" d="m216.54 51.833-3.14-1.17c-2.46 7.84-8 9.84-11.14 10.33-3.1-.49-8.69-2.49-11.15-10.33l-3.17 1.17s3.65 8.82-3.17 15c0 0 4.66 10 5.33 19.29h24.3c.66-9.31 5.32-19.29 5.32-19.29-6.84-6.19-3.18-15-3.18-15z"/><path fill="#DADADA" d="M214.799 78.563a19.519 19.519 0 0 1-15.12-3.64c-4.52-3.51-6.95-8.85-8.33-14.28a32.73 32.73 0 0 1-1-9v-.73l-2.39.88s3.65 8.82-3.17 15c0 0 4.66 10 5.33 19.29h24.28c.209-2.61.644-5.196 1.3-7.73-.295.09-.596.16-.9.21z" style="mix-blend-mode:multiply"/><path fill="#00B1C3" d="M225.859 126.283s-10.65-29.09-11.48-40.2h-24.28s.33 9-12.15 40.2c0 0 23.9 13.8 47.91 0z"/><path fill="#DADADA" d="M222.929 117.943a9.347 9.347 0 0 1-.7 1.29 16.183 16.183 0 0 1-7.88 6.13c-6.68 2.7-15.43 3-21-2.22a17.586 17.586 0 0 1-5.56-10c-.68-4.28.24-8.3 1.38-12.41a64.939 64.939 0 0 1 4.82-12.29c.36-.72.77-1.52 1.23-2.33h-5.12s.33 9-12.15 40.2c0 0 23.9 13.8 47.91 0 0-.03-1.25-3.48-2.93-8.37z" style="mix-blend-mode:multiply"/><path fill="#2F343C" d="M215.54 83.933h-26.61v4.16h26.61v-4.16z"/><path fill="#fff" d="m196.08 89.743-5 28.33s1.55 3.27 4.55 3.77l.45-32.1zM211.91 89.743l7.63 30.27a7.52 7.52 0 0 1-4.46 3.44l-3.17-33.71zM203.73 89.743l-1.83 33.71s2.67.95 3.66 0l-1.83-33.71z" opacity=".2" style="mix-blend-mode:soft-light"/><path fill="#fff" d="m229.09 181.183-110.9-11.42c-17.43-4-16.65-17.74-16.44-19.68v-33.25l133.47-32.79-6.13 97.14zm-110-15.8 105.88 10.89 5.43-86.44-124.2 30.47v30.25c-.09.45-1.54 11.48 12.85 14.83h.04z"/><path fill="#fff" d="m230.98 107.256-127.416 23.639.814 4.385 127.416-23.638-.814-4.386zm.736 23.32-127.898 9.639.336 4.448 127.897-9.639-.335-4.448zm-127.612 20.869-.155 4.457 124.305 4.319.155-4.457-124.305-4.319z"/><path fill="#fff" d="M121.331 114.833h-4.45v52.75h4.45v-52.75zm22.129-5.4h-4.81v61.35h4.81v-61.35zm22.439-6.37h-5.11v69.12h5.11v-69.12zm22.41-4.81h-5.36v76.22h5.36v-76.22zm24.682-6.88h-5.68v85.63h5.68v-85.63zm15.689 87.11-5.67-.36 6.95-107.13a10.509 10.509 0 0 1 2.11-7.19 8.804 8.804 0 0 1 6.42-3h21.59v5.68h-21.3a2.999 2.999 0 0 0-2.33 1 4.868 4.868 0 0 0-.82 3.23v.49l-6.95 107.28zm-16.899 38.2c-1.28 0-2.61-.06-4-.19l-94.33.19a3.12 3.12 0 1 1 0-6.24l94.45-.19h.28c6.77.62 11.79-.47 14.52-3.16a8.623 8.623 0 0 0 2.48-6.39v-.36c.26-9.09-9.19-10.35-9.59-10.39l-105.68-12.4a3.122 3.122 0 0 1 .73-6.2l105.76 12.42c5.35.65 15.34 5 15.1 16.62a15.124 15.124 0 0 1-4.24 11.07c-3.51 3.47-8.69 5.22-15.48 5.22zm-90.05 17.15a8.252 8.252 0 0 1-8.103-9.853 8.246 8.246 0 0 1 6.48-6.488 8.254 8.254 0 0 1 8.472 3.507 8.246 8.246 0 0 1 1.391 4.584 8.262 8.262 0 0 1-8.24 8.25zm0-12.48a4.242 4.242 0 0 0-3.926 2.613 4.235 4.235 0 0 0 .918 4.625 4.233 4.233 0 0 0 4.625.917 4.237 4.237 0 0 0 2.613-3.925 4.25 4.25 0 0 0-1.228-3.014 4.247 4.247 0 0 0-3.002-1.256v.04zm88.419 12.48a8.255 8.255 0 0 1-7.622-5.093 8.254 8.254 0 0 1 1.789-8.991 8.254 8.254 0 0 1 8.991-1.788 8.25 8.25 0 0 1 5.092 7.622 8.257 8.257 0 0 1-8.25 8.25zm0-12.48a4.24 4.24 0 1 0 4.24 4.23 4.229 4.229 0 0 0-1.231-3.018 4.254 4.254 0 0 0-3.009-1.252v.04z"/><path fill="#E72E35" d="M267.62 57.563h-25.39a3.31 3.31 0 0 0-3.31 3.31v5.44a3.31 3.31 0 0 0 3.31 3.31h25.39a3.31 3.31 0 0 0 3.31-3.31v-5.44a3.31 3.31 0 0 0-3.31-3.31z"/><path fill="#5E6F3C" d="m88.355 194.677-58.689 9.853L49.13 320.467l58.688-9.852-19.463-115.938z"/><path fill="#7C9050" d="m74.11 204.913-27.61 4.64a9.34 9.34 0 0 1-7.66 10.75l13.59 81a9.351 9.351 0 0 1 10.76 7.66c.066.43.103.865.11 1.3l27.82-4.67a10.26 10.26 0 0 1-.32-1.27 9.341 9.341 0 0 1 7.66-10.75l-13.59-81a9.351 9.351 0 0 1-10.76-7.66z"/><path fill="#5E6F3C" d="M64.48 232.103a25.824 25.824 0 0 1 26.172 11.763 25.821 25.821 0 0 1-40.687 31.397 25.823 25.823 0 0 1-2.229-32.679 25.82 25.82 0 0 1 16.745-10.481z"/><path fill="#7C9050" d="m48.72 260.193-.14-.82a16.94 16.94 0 0 1 .55-9.15 6.577 6.577 0 0 1 5.33-4.3 4.769 4.769 0 0 1 3.72.87 4.943 4.943 0 0 1 2 3.3 5.66 5.66 0 0 1-.64 3.83 4.296 4.296 0 0 1-3.14 2.11 4.779 4.779 0 0 1-3.47-.59 3.762 3.762 0 0 1-1.79-2c-.21-.72-.48-1-.82-1-.34 0-.7.77-.9 2.11a12.622 12.622 0 0 0 0 3.93l.3 1.52 11.88-2c.532-2.433 1.05-4.857 1.55-7.27a15.235 15.235 0 0 1 3.18-6.14 9 9 0 0 1 5.43-3c4.18-.7 7.462.223 9.85 2.77a22.553 22.553 0 0 1 5.21 9.68l4.87-.82.18 1.07-4.77.8.4 2.07c.495 3.01.269 6.095-.66 9-.94 3.033-2.734 4.77-5.38 5.21a5.274 5.274 0 0 1-4-.93 5.198 5.198 0 0 1-2.24-3.5 5.65 5.65 0 0 1 .73-4.09 4.782 4.782 0 0 1 3.45-2.02 3.994 3.994 0 0 1 3.3.7 4.922 4.922 0 0 1 1.77 2.47c.09.53.34.77.74.7.4-.07.84-1 1.16-2.76a13.4 13.4 0 0 0 .15-4.67l-.37-1.91-12.29 2.06c-.29 1.34-.6 2.73-.94 4.18-.34 1.45-.73 2.92-1.21 4.41a11.088 11.088 0 0 1-3.11 4.48 10.5 10.5 0 0 1-5.64 2.8 9.925 9.925 0 0 1-9.43-3.19 16.939 16.939 0 0 1-4.63-8.79l-3.1.51-.18-1.06 3.1-.57zm1.34.87a6.363 6.363 0 0 0 2.34 3 4.892 4.892 0 0 0 3.61.66 5.426 5.426 0 0 0 3.4-1.84 11.002 11.002 0 0 0 1.92-3.75l-11.27 1.93zm35.76-6.79a9.37 9.37 0 0 0-2.38-3.88 4.338 4.338 0 0 0-3.9-1.06 5.44 5.44 0 0 0-3.38 1.74 12.668 12.668 0 0 0-2.06 5.17l11.72-1.97z"/><path fill="#5E6F3C" d="M61.32 213.243a6.349 6.349 0 1 1 2.103 12.522 6.349 6.349 0 0 1-2.103-12.522zm12.85 76.59a6.354 6.354 0 0 1 6.436 2.894 6.349 6.349 0 0 1-10.008 7.719 6.345 6.345 0 0 1-.546-8.036 6.35 6.35 0 0 1 4.118-2.577z"/><path fill="#C3D0D2" d="m88.36 194.673 19.47 115.94-78.15-106.09 58.68-9.85z" style="mix-blend-mode:multiply"/><path fill="#5E6F3C" d="M66.02 192.141 32.925 304.947 90.029 321.7l33.094-112.806-57.104-16.753z"/><path fill="#7C9050" d="m105.83 211.893-26.87-7.88a9.34 9.34 0 0 1-11.56 6.33l-23.14 78.78a9.339 9.339 0 0 1 6.33 11.59c-.132.416-.289.824-.47 1.22l27.07 7.9a8.23 8.23 0 0 1 .27-1.28 9.322 9.322 0 0 1 4.478-5.564 9.318 9.318 0 0 1 3.475-1.089 9.319 9.319 0 0 1 3.627.323l23.12-78.78a9.34 9.34 0 0 1-6.33-11.55z"/><path fill="#5E6F3C" d="M85.3 232.153a25.816 25.816 0 0 1 18.399 22.011 25.824 25.824 0 0 1-13.293 25.422 25.811 25.811 0 0 1-14.673 3.059 25.812 25.812 0 0 1-22.344-17.993 25.823 25.823 0 0 1 21.874-33.396 25.826 25.826 0 0 1 10.037.897z"/><path fill="#7C9050" d="m58.85 250.543.23-.79a17 17 0 0 1 4.49-8 6.594 6.594 0 0 1 6.68-1.54 4.818 4.818 0 0 1 3 2.4 4.917 4.917 0 0 1 .39 3.87 5.72 5.72 0 0 1-2.24 3.17 4.286 4.286 0 0 1-3.82.49 4.842 4.842 0 0 1-2.86-2 3.83 3.83 0 0 1-.75-2.58c.13-.73 0-1.15-.3-1.24-.3-.09-1 .38-1.73 1.5a12.695 12.695 0 0 0-1.69 3.55l-.38 1.5 11.53 3.35c1.54-1.95 3.07-3.91 4.57-5.87a15.297 15.297 0 0 1 5.54-4.14 9.12 9.12 0 0 1 6.19-.28c4.054 1.187 6.604 3.45 7.65 6.79a22.729 22.729 0 0 1 .46 11l4.74 1.39-.31 1-4.64-1.36-.54 2a19.158 19.158 0 0 1-4.53 7.81c-2.17 2.32-4.54 3.09-7.12 2.34a5.25 5.25 0 0 1-3.19-2.59 5.099 5.099 0 0 1-.49-4.12 5.6 5.6 0 0 1 2.43-3.36 4.81 4.81 0 0 1 4-.43 4.076 4.076 0 0 1 2.67 2.07 5 5 0 0 1 .51 3c-.15.53 0 .85.36 1 .36.15 1.19-.53 2.25-2a13.642 13.642 0 0 0 2.18-4.14l.49-1.88-12-3.5c-.85 1.07-1.74 2.19-2.67 3.34a58.4 58.4 0 0 1-3 3.43 11.002 11.002 0 0 1-4.75 2.69 10.623 10.623 0 0 1-6.29.05 9.915 9.915 0 0 1-7.09-7 17 17 0 0 1-.33-9.94l-3-.89.31-1 3.05.91zm.83 1.37a6.39 6.39 0 0 0 .78 3.76 4.833 4.833 0 0 0 3 2.16 5.353 5.353 0 0 0 3.86-.17 10.764 10.764 0 0 0 3.37-2.53l-11.01-3.22zm35.13 9.5a9.308 9.308 0 0 0-.45-4.53 4.352 4.352 0 0 0-3-2.66 5.462 5.462 0 0 0-3.8.09 12.834 12.834 0 0 0-4.12 3.76l11.37 3.34z"/><path fill="#5E6F3C" d="M90.68 213.833a6.35 6.35 0 1 1-7.88 4.31 6.361 6.361 0 0 1 7.88-4.31zm-21.86 74.46a6.35 6.35 0 1 1-6.733 2.104 6.355 6.355 0 0 1 4.266-2.328 6.35 6.35 0 0 1 2.467.224z"/><path fill="#C3D0D2" d="m123.13 208.903-33.1 112.8-24.01-129.55 57.11 16.75z" style="mix-blend-mode:multiply"/><path fill="#5E6F3C" d="m106.145 200.944-70.684 93.937 47.552 35.781 70.684-93.937-47.552-35.781z"/><path fill="#7C9050" d="m136.451 233.443-22.38-16.83a9.327 9.327 0 0 1-13.07 1.84l-49.36 65.61a9.328 9.328 0 0 1 1.84 13.07 8.2 8.2 0 0 1-.86 1l22.54 17c.204-.384.439-.751.7-1.1a9.339 9.339 0 0 1 6.151-3.633 9.327 9.327 0 0 1 6.919 1.783l49.37-65.6a9.336 9.336 0 0 1-1.85-13.14z"/><path fill="#5E6F3C" d="M110.101 245.183a25.818 25.818 0 0 1 1.69 39.884 25.82 25.82 0 1 1-30.331-41.489 25.808 25.808 0 0 1 28.641 1.605z"/><path fill="#7C9050" d="m78.87 253.083.5-.66a17.002 17.002 0 0 1 7-5.9 6.62 6.62 0 0 1 6.79.9 4.803 4.803 0 0 1 1.93 3.3 4.92 4.92 0 0 1-1 3.76 5.669 5.669 0 0 1-3.21 2.17 4.272 4.272 0 0 1-3.75-.88 4.812 4.812 0 0 1-2-2.92 3.74 3.74 0 0 1 .21-2.68c.37-.63.42-1.06.15-1.27-.27-.21-1 0-2.15.8a12.933 12.933 0 0 0-2.83 2.74l-.88 1.26 9.62 7.24a375.63 375.63 0 0 0 6.34-3.89 15.384 15.384 0 0 1 6.641-1.91 9.06 9.06 0 0 1 5.89 1.9c3.38 2.547 4.97 5.567 4.77 9.06a22.535 22.535 0 0 1-3.43 10.44l4 3-.65.86-3.87-2.91-1.23 1.72a19.197 19.197 0 0 1-7 5.72c-2.854 1.4-5.35 1.293-7.49-.32a5.273 5.273 0 0 1-2.08-3.55 5.132 5.132 0 0 1 1-4 5.619 5.619 0 0 1 3.46-2.29 4.828 4.828 0 0 1 3.93 1 4.06 4.06 0 0 1 1.76 2.87 5.005 5.005 0 0 1-.57 3c-.334.44-.334.773 0 1 .36.28 1.3-.07 2.8-1.05a13.703 13.703 0 0 0 3.49-3.11l1.13-1.59-9.95-7.48-3.68 2.19a59.887 59.887 0 0 1-4 2.15 11.003 11.003 0 0 1-5.4.83 10.613 10.613 0 0 1-5.91-2.16 9.94 9.94 0 0 1-4.18-9 17.06 17.06 0 0 1 3.19-9.41l-2.5-1.89.65-.87 2.51 1.83zm.3 1.58a6.34 6.34 0 0 0-.6 3.79 4.84 4.84 0 0 0 2 3.06 5.413 5.413 0 0 0 3.67 1.21 11.06 11.06 0 0 0 4.05-1.19l-9.12-6.87zm29.541 21.26a9.339 9.339 0 0 0 1.17-4.4 4.326 4.326 0 0 0-1.91-3.56 5.479 5.479 0 0 0-3.59-1.25 12.66 12.66 0 0 0-5.17 2.06l9.5 7.15z"/><path fill="#5E6F3C" d="M121.591 229.903a6.355 6.355 0 0 1 2.335 6.659 6.355 6.355 0 0 1-5.259 4.705 6.353 6.353 0 0 1-7.231-6.641 6.35 6.35 0 0 1 1.265-3.463 6.345 6.345 0 0 1 6.657-2.336 6.334 6.334 0 0 1 2.233 1.076zm-46.671 62.02a6.36 6.36 0 1 1-8.89 1.26 6.352 6.352 0 0 1 8.89-1.26z"/><path fill="#C3D0D2" d="m153.69 236.733-70.68 93.94 23.13-129.72 47.55 35.78z" style="mix-blend-mode:multiply"/><path fill="#683C11" d="M8.39 247.073h96.76a8.39 8.39 0 0 1 8.39 8.39v66.37a8.383 8.383 0 0 1-2.454 5.926 8.383 8.383 0 0 1-5.926 2.454H8.38a8.376 8.376 0 0 1-7.745-5.18 8.378 8.378 0 0 1-.635-3.21v-66.36a8.388 8.388 0 0 1 8.39-8.39z"/><path fill="#955B26" d="M108.959 319.153a7.708 7.708 0 0 1-7.71 7.7h-89a7.71 7.71 0 0 1-7.71-7.7v-61a7.71 7.71 0 0 1 7.71-7.7h89a7.708 7.708 0 0 1 7.71 7.7v61z"/><path stroke="#402300" stroke-dasharray="3.47 3.47" stroke-miterlimit="10" stroke-width=".88" d="M97.5 253.633H16.02a7.06 7.06 0 0 0-7.06 7.06v55.89a7.06 7.06 0 0 0 7.06 7.06H97.5a7.06 7.06 0 0 0 7.061-7.06v-55.89a7.06 7.06 0 0 0-7.06-7.06z"/><path fill="#FBD8CD" d="M35.58 253.623c1.67 4.6 6.65 7.09 11.93 8.12a41.675 41.675 0 0 0 15.78.19c4-.8 18.71-4.62 28.44-3.26 16.081 2.26 17.171 12.46 21.801 6.34v-11c0-3.84-3.64-6.95-8.14-6.95h-70.52a14.16 14.16 0 0 0 .71 6.56z" opacity=".3" style="mix-blend-mode:soft-light"/><path fill="#63390F" d="M108.9 271.133H64.15a7.38 7.38 0 0 0-7.38 7.38v16.31a7.38 7.38 0 0 0 7.38 7.38h44.75a7.38 7.38 0 0 0 7.38-7.38v-16.31a7.38 7.38 0 0 0-7.38-7.38z"/><path fill="#754315" d="M113.531 293.533a6.346 6.346 0 0 1-6.46 6.22h-39.15a6.347 6.347 0 0 1-6.46-6.22v-13.7a6.35 6.35 0 0 1 6.46-6.22h39.15a6.353 6.353 0 0 1 6.46 6.22v13.7z"/><path stroke="#402300" stroke-dasharray="3.5 3.5" stroke-miterlimit="10" stroke-width=".88" d="M113.02 297.173H69.66a5.312 5.312 0 0 1-5.57-5v-11a5.299 5.299 0 0 1 5.57-5h43.36"/><path fill="#FFDE00" d="M80.81 287.033a6.998 6.998 0 0 1-8.365 6.866 7 7 0 1 1 8.366-6.866z"/><path fill="#F9AF05" d="M75.85 291.413a7.005 7.005 0 0 1-6.39-9.86 7.004 7.004 0 0 0-1.93 8.579 7.003 7.003 0 0 0 4.836 3.757 7.003 7.003 0 0 0 7.834-3.996 7 7 0 0 1-4.35 1.52z"/><path fill="#D7C7C9" d="M111.53 293.053c-15.07 12.73-33.44 16-52.68 13.52-9.41-1.2-19.7-4.22-26.81-10.85a46.32 46.32 0 0 1-13.52-24.79 105.22 105.22 0 0 1-1.49-23.86H8.4a8.391 8.391 0 0 0-8.39 8.38v66.38a8.388 8.388 0 0 0 8.39 8.38h96.76a8.388 8.388 0 0 0 8.38-8.39v-30.56c-.66.57-1.32 1.21-2.01 1.79z" style="mix-blend-mode:multiply"/><path fill="#F59D0F" d="M149.89 335.703a3.982 3.982 0 0 1-1.325 2.776 4.005 4.005 0 0 1-2.905 1.014l-66.69.42a4.016 4.016 0 0 1-1.557-.196 3.997 3.997 0 0 1-2.722-3.544l-.29-41.18a4 4 0 0 1 4.24-3.79l66.759-.37a3.996 3.996 0 0 1 2.92.978 4.002 4.002 0 0 1 1.36 2.762l.21 41.13z"/><path fill="#FFDE00" d="M148.48 335.833a4.002 4.002 0 0 1-4.16 3.7l-65.43.41a4 4 0 0 1-4.2-3.65l-.29-40.17a3.942 3.942 0 0 1 4.15-3.7l65.44-.41a3.941 3.941 0 0 1 4.2 3.64l.29 40.18z"/><path fill="#3C3C3B" d="m148.287 302.206-73.789.463.063 9.99 73.788-.463-.062-9.99z"/><path fill="#D9C6BD" d="m144.028 315.143-46.069.289.025 3.99 46.069-.289-.025-3.99zM144.086 329.894l-15.92.097.024 3.98 15.92-.097-.024-3.98zM120.21 330.032l-25.57.16.026 3.99 25.569-.16-.025-3.99zM144.042 322.392l-31.839.2.015 2.44 31.84-.2-.016-2.44z" style="mix-blend-mode:multiply"/></svg>