<svg xmlns="http://www.w3.org/2000/svg" width="512" height="512"><g xmlns="http://www.w3.org/2000/svg"><path d="M437.83 0H74.17a7.5 7.5 0 00-7.5 7.5v356.26c0 4.142 3.357 7.5 7.5 7.5s7.5-3.358 7.5-7.5V15h348.66v47.15c0 4.142 3.357 7.5 7.5 7.5s7.5-3.358 7.5-7.5V7.5a7.5 7.5 0 00-7.5-7.5zM437.83 89.65a7.5 7.5 0 00-7.5 7.5V497H81.67v-98.24c0-4.142-3.357-7.5-7.5-7.5s-7.5 3.358-7.5 7.5V504.5a7.5 7.5 0 007.5 7.5h363.66a7.5 7.5 0 007.5-7.5V97.15a7.5 7.5 0 00-7.5-7.5z" fill="#1DBBBA" data-original="#000000"/><path d="M98.996 155.994c0 31.986 26.022 58.008 58.008 58.008s58.008-26.022 58.008-58.008-26.022-58.008-58.008-58.008-58.008 26.022-58.008 58.008zm58.008 43.008c-23.715 0-43.008-19.293-43.008-43.008 0-21.156 15.358-38.78 35.508-42.34v42.34a7.5 7.5 0 007.5 7.5h42.34c-3.561 20.15-21.184 35.508-42.34 35.508zm42.34-50.508h-34.84v-34.84c17.712 3.13 31.71 17.128 34.84 34.84zM110.536 432.35a7.5 7.5 0 00-7.5 7.5v32.325a7.5 7.5 0 007.5 7.5h48.488a7.5 7.5 0 007.5-7.5V439.85a7.5 7.5 0 00-7.5-7.5zm40.988 32.325h-33.488V447.35h33.488zM191.35 479.675h48.487a7.5 7.5 0 007.5-7.5v-80.813a7.5 7.5 0 00-7.5-7.5H191.35a7.5 7.5 0 00-7.5 7.5v80.813a7.5 7.5 0 007.5 7.5zm7.5-80.813h33.487v65.813H198.85zM272.163 323.252a7.5 7.5 0 00-7.5 7.5v141.423a7.5 7.5 0 007.5 7.5h48.487a7.5 7.5 0 007.5-7.5V330.752a7.5 7.5 0 00-7.5-7.5zm40.987 141.423h-33.487V338.252h33.487zM401.46 324.3a7.5 7.5 0 007.5-7.5v-26.45a7.5 7.5 0 00-7.5-7.5h-48.48a7.5 7.5 0 00-7.5 7.5v181.82a7.5 7.5 0 007.5 7.5h48.479a7.5 7.5 0 007.5-7.5V351.8c0-4.142-3.357-7.5-7.5-7.5s-7.5 3.358-7.5 7.5v112.87H360.48V297.85h33.479v18.95a7.501 7.501 0 007.501 7.5zM336.813 32.325H175.187a7.5 7.5 0 00-7.5 7.5V72.15a7.5 7.5 0 007.5 7.5h161.627a7.5 7.5 0 007.5-7.5V39.825a7.501 7.501 0 00-7.501-7.5zm-7.5 32.325H182.687V47.325h146.627V64.65zM405.504 97.986H256c-4.143 0-7.5 3.358-7.5 7.5s3.357 7.5 7.5 7.5h149.504a7.5 7.5 0 000-15zM405.504 131.658H256c-4.143 0-7.5 3.358-7.5 7.5s3.357 7.5 7.5 7.5h149.504a7.5 7.5 0 000-15zM413.004 172.83a7.5 7.5 0 00-7.5-7.5H256c-4.143 0-7.5 3.358-7.5 7.5s3.357 7.5 7.5 7.5h149.504a7.5 7.5 0 007.5-7.5zM352.395 206.502a7.5 7.5 0 00-7.5-7.5H256c-4.143 0-7.5 3.358-7.5 7.5s3.357 7.5 7.5 7.5h88.895a7.5 7.5 0 007.5-7.5zM256 248.5H119.628c-4.143 0-7.5 3.358-7.5 7.5s3.357 7.5 7.5 7.5H256c4.143 0 7.5-3.358 7.5-7.5s-3.357-7.5-7.5-7.5zM263.5 289.672a7.5 7.5 0 00-7.5-7.5H119.628c-4.143 0-7.5 3.358-7.5 7.5s3.357 7.5 7.5 7.5H256a7.5 7.5 0 007.5-7.5zM202.891 323.344a7.5 7.5 0 00-7.5-7.5h-75.763c-4.143 0-7.5 3.358-7.5 7.5s3.357 7.5 7.5 7.5h75.763a7.5 7.5 0 007.5-7.5z" fill="#1DBBBA" data-original="#000000"/></g></svg>