<svg xmlns="http://www.w3.org/2000/svg" width="512" height="512"><path d="M465.183 108.409c5.291-6.492 8.471-14.771 8.471-23.779 0-20.79-16.914-37.704-37.704-37.704a37.494 37.494 0 00-22.329 7.347C368.782 19.233 313.069 0 256 0c-46.153 0-91.383 12.417-130.8 35.908a7.5 7.5 0 007.679 12.886 239.234 239.234 0 0154.795-23.936c-13.815 10.638-26.693 24.539-38.195 41.463-9.826 14.458-18.407 30.76-25.61 48.45a241.616 241.616 0 01-37.321-30.172 245.688 245.688 0 0120.733-18.25 7.5 7.5 0 10-9.263-11.797c-29.851 23.44-54.534 53.742-71.382 87.63C8.961 177.729 0 216.023 0 256c0 53.384 16.172 104.271 46.821 147.596-5.293 6.493-8.475 14.772-8.475 23.784 0 20.79 16.914 37.704 37.704 37.704a37.505 37.505 0 0022.341-7.355C143.217 492.768 198.926 512 256 512c68.379 0 132.666-26.629 181.019-74.981C485.371 388.666 512 324.379 512 256c0-53.382-16.171-104.268-46.817-147.591zM476.24 263.5h20.632c-1.732 57.023-23.187 110.644-61.109 153.008a256.667 256.667 0 00-19.099-17.051 37.508 37.508 0 002.492-13.459c0-13.147-6.768-24.738-16.999-31.488 7.418-28.908 11.442-59.46 11.992-91.01h28.81a7.5 7.5 0 000-15h-28.813c-.747-42.51-7.84-83.273-20.531-119.357a256.601 256.601 0 0019.992-14.164 37.494 37.494 0 0022.341 7.355 37.475 37.475 0 0017.607-4.377c27.01 38.546 41.891 83.393 43.318 130.543H476.24a7.5 7.5 0 000 15zM98.389 397.03a37.499 37.499 0 00-22.339-7.354 37.461 37.461 0 00-17.601 4.375C31.435 355.503 16.553 310.653 15.125 263.5H68.33c3.107 15.332 15.544 27.315 31.106 29.749 2.844 31.742 9.333 62.109 18.994 89.623a254.305 254.305 0 00-20.041 14.158zM218.61 166.528c2.041 16.058 14.211 28.997 29.89 32.174V248.5H142.235c-2.883-14.227-13.802-25.568-27.796-29.073 2.663-29.184 8.509-57.085 17.141-82.457 26.887 14.968 56.386 25.061 87.03 29.558zm162.843 181.766c-11.516 0-21.837 5.195-28.758 13.359-28.384-11.605-58.327-17.91-89.195-18.788V263.5h135.646c-.535 29.601-4.243 58.255-11.045 85.394a37.65 37.65 0 00-6.648-.6zM263.5 248.5v-49.798c15.68-3.178 27.849-16.117 29.89-32.175a254.315 254.315 0 0087.09-29.534c11.507 33.767 17.942 71.801 18.664 111.506H263.5zm28.784-96.972c-3.803-13.479-14.921-23.921-28.784-26.73V15.337c34.753 3.046 67.416 27.212 92.663 68.837 7.211 11.89 13.573 24.815 19.052 38.564a239.357 239.357 0 01-82.931 28.79zM256 139.046c12.519 0 22.704 10.185 22.704 22.704S268.519 184.454 256 184.454s-22.704-10.185-22.704-22.704 10.185-22.704 22.704-22.704zm-150.717 94.25c12.519 0 22.704 10.185 22.704 22.704s-10.185 22.704-22.704 22.704c-12.515 0-22.696-10.178-22.703-22.691l.001-.013-.001-.013c.006-12.513 10.188-22.691 22.703-22.691zm9.157 59.277c13.994-3.505 24.912-14.846 27.796-29.073H248.5v79.375c-41.101 1.212-81.263 12.361-116.916 32.166-8.633-25.375-14.481-53.28-17.144-82.468zm134.06 65.308v138.771c-31.821-2.84-62.33-23.671-86.614-59.404-9.667-14.225-18.064-30.375-25.055-47.964 33.94-19.287 72.343-30.171 111.669-31.403zm15-.006c28.328.856 55.818 6.568 81.919 17.022a37.566 37.566 0 00-1.67 11.1c0 13.563 7.201 25.471 17.977 32.115-25.564 47.105-60.765 75.225-98.226 78.547zm95.249 28.123c0-12.519 10.185-22.704 22.704-22.704s22.704 10.185 22.704 22.704-10.185 22.704-22.704 22.704-22.704-10.185-22.704-22.704zM458.654 84.63c0 12.519-10.185 22.704-22.704 22.704s-22.704-10.185-22.704-22.704 10.185-22.704 22.704-22.704 22.704 10.185 22.704 22.704zm-55.133-19.203a37.46 37.46 0 00-5.275 19.203 37.47 37.47 0 005.271 19.197 242.05 242.05 0 01-15.335 10.969c-5.567-13.641-11.978-26.502-19.195-38.4-13.01-21.45-27.963-38.7-44.248-51.345 28.391 8.452 55.168 22.095 78.782 40.376zm-241.635 9.325C186.17 39.02 216.679 18.188 248.5 15.348v109.45c-13.861 2.809-24.978 13.248-28.782 26.725-29.234-4.426-57.34-14.273-82.882-28.819 6.99-17.584 15.385-33.731 25.05-47.952zM76.203 95.461a256.683 256.683 0 0042.231 33.658c-9.664 27.516-16.153 57.886-18.998 89.632-15.562 2.433-28 14.417-31.106 29.749H15.12c1.745-57.304 23.438-111.046 61.083-153.039zm-.153 354.623c-12.519 0-22.704-10.185-22.704-22.704s10.185-22.704 22.704-22.704 22.704 10.185 22.704 22.704-10.185 22.704-22.704 22.704zm32.436-3.513a37.46 37.46 0 005.268-19.191 37.466 37.466 0 00-5.269-19.193 238.967 238.967 0 0115.374-10.982c7.206 17.7 15.79 34.01 25.621 48.475 11.462 16.866 24.292 30.729 38.053 41.352-28.494-8.447-55.363-22.12-79.047-40.461zM375.979 423.3a37.73 37.73 0 005.474.402c10.624 0 20.228-4.423 27.088-11.517a241.822 241.822 0 0116.882 15.191c-28.747 28.428-63.388 48.758-101.157 59.853 19.59-15.064 37.22-36.674 51.713-63.929z" fill="#1DBBBA" data-original="#000000" xmlns="http://www.w3.org/2000/svg"/></svg>