<svg xmlns="http://www.w3.org/2000/svg" width="512" height="512"><g xmlns="http://www.w3.org/2000/svg" fill="#1DBBBA"><path d="M327.672 317.04c0-14.727-8.399-26.7-23.09-33.799v-110.32c0-51.601-41.98-93.581-93.581-93.581-51.602 0-93.582 41.98-93.582 93.581v15h15v-15c0-43.33 35.252-78.581 78.582-78.581s78.581 35.251 78.581 78.581v105.271l-.053-.012-42.988-9.246v-15.765c16.907-11.439 28.042-30.792 28.042-52.697v-27.551h-7.5c-40.626 0-61.961-14.908-78.965-31.019l-3.592-3.403-4.543 1.964c-23.724 10.256-32.564 29.952-32.564 39.958v20.051c0 21.905 11.135 41.257 28.041 52.696v15.766l-42.988 9.246-.053.012v-75.271h-15v80.321c-14.69 7.099-23.089 19.072-23.089 33.798v74.961H0v45h22.5V512h169.751v-15H67.5v-59.999h294.502V497H237.251v15h169.75v-74.999h22.5v-45H327.672zm-41.297-24.196c23.734 5.104 26.297 18.622 26.297 24.196v74.961h-26.099v-60c0-12.406-10.094-22.5-22.5-22.5h-39.048l17.424-26.104zm-22.302 31.657c4.136 0 7.5 3.364 7.5 7.5v60H150.428v-60c0-4.136 3.364-7.5 7.5-7.5zM162.419 200.472v-20.051c0-3.915 4.667-16.102 19.212-24.087 17.548 15.823 39.721 29.813 77.952 31.431v12.707c0 26.788-21.794 48.581-48.582 48.581s-48.582-21.793-48.582-48.581zm48.582 63.581a63.278 63.278 0 0020.54-3.424v12.089l-20.54 30.773-20.541-30.773v-12.09a63.258 63.258 0 0020.541 3.425zM109.33 317.04c0-5.574 2.563-19.092 26.296-24.196l43.926-9.447 17.425 26.104h-39.049c-12.406 0-22.5 10.094-22.5 22.5v60H109.33zM52.5 497h-15v-59.999h15zm339.501 0h-14.999v-59.999h14.999zm22.5-74.999H15v-15h399.501z" data-original="#000000"/><path d="M207.251 497h15v15h-15zM332.002 452h15v15h-15zM302.002 452h15v15h-15zM414.5 37.501c-20.678 0-37.5 16.822-37.5 37.5h15c0-12.406 10.094-22.5 22.5-22.5s22.5 10.094 22.5 22.5S426.906 97.5 414.5 97.5H407v30h15v-15.753c17.096-3.485 30-18.638 30-36.746 0-20.678-16.822-37.5-37.5-37.5zM412.561 142.755a7.5 7.5 0 103.88 14.491 7.5 7.5 0 00-3.88-14.491z" data-original="#000000"/><path d="M414.5 0C360.738 0 317 43.738 317 97.501c0 14.32 3.027 28.091 9.001 40.961v47.539h47.54c12.872 5.973 26.644 9 40.959 9 53.762 0 97.5-43.738 97.5-97.5C512 43.738 468.262 0 414.5 0zm0 180.001c-12.616 0-24.727-2.774-35.993-8.246l-1.552-.754h-35.954v-35.955l-.754-1.552C334.774 122.231 332 110.122 332 97.501 332 52.01 369.01 15 414.5 15S497 52.01 497 97.501c0 45.49-37.01 82.5-82.5 82.5zM108.946 52.921h15v30h-15zM108.946 97.922h15v15h-15zM78.946 97.922h15v15h-15zM78.946 52.921h15v30h-15z" data-original="#000000"/></g></svg>