<svg xmlns="http://www.w3.org/2000/svg" width="512" height="512" viewBox="0 0 510.362 510.362"><g xmlns="http://www.w3.org/2000/svg"><path d="M270.582 40.594c63.053 7.944 112.089 59.741 116.597 123.16a7.5 7.5 0 007.481 6.968h34.08c30.982 0 59.63 22.696 66.537 52.97 2.213 4.589 5.207 6.471 8.981 5.644a7.502 7.502 0 005.644-8.981c-8.444-37.002-43.054-64.632-81.162-64.632h-27.26c-7.985-67.33-61.218-121.467-129.023-130.011a7.504 7.504 0 00-8.379 6.504 7.501 7.501 0 006.504 8.378z" fill="#1DBBBA" data-original="#000000"/><path d="M504.407 247.364c-4.052-.851-8.032 1.739-8.886 5.792-6.606 31.34-34.692 54.087-66.781 54.087h-121.4v-32.45h8.15c12.406 0 22.5-10.094 22.5-22.5v-17.499h16.597c4.143 0 7.5-3.357 7.5-7.5s-3.357-7.5-7.5-7.5H337.99v-19.492h28.523c4.143 0 7.5-3.357 7.5-7.5s-3.357-7.5-7.5-7.5H337.99V165.81h16.597c4.143 0 7.5-3.357 7.5-7.5s-3.357-7.5-7.5-7.5H337.99v-17.497c0-12.406-10.094-22.5-22.5-22.5h-17.498v-14.52c0-4.143-3.357-7.5-7.5-7.5s-7.5 3.357-7.5 7.5v14.52H263.5V82.288c0-4.143-3.357-7.5-7.5-7.5s-7.5 3.357-7.5 7.5v28.524h-19.492v-14.52c0-4.143-3.357-7.5-7.5-7.5s-7.5 3.357-7.5 7.5v14.52H196.51c-12.406 0-22.5 10.094-22.5 22.5v17.497H156c-4.143 0-7.5 3.357-7.5 7.5s3.357 7.5 7.5 7.5h18.01v19.492h-28.523c-4.143 0-7.5 3.357-7.5 7.5s3.357 7.5 7.5 7.5h28.523v19.492H156c-4.143 0-7.5 3.357-7.5 7.5s3.357 7.5 7.5 7.5h18.01v17.499c0 12.406 10.094 22.5 22.5 22.5h8.15v32.45h-97.97c-50.559 0-91.69-41.132-91.69-91.69s41.132-91.689 91.69-91.689c5.25 0 10.535.451 15.708 1.341a7.504 7.504 0 008.166-4.439c19.11-44.638 60.896-75.48 109.052-80.492 4.12-.429 7.112-4.116 6.684-8.236s-4.111-7.116-8.236-6.684c-51.645 5.375-96.7 37.454-118.909 84.235a108.1 108.1 0 00-12.464-.725C47.861 108.863 0 156.723 0 215.552s47.861 106.69 106.69 106.69h40.29v77.806h-26.049c-3.275-11.527-13.889-19.997-26.451-19.997-15.163 0-27.5 12.337-27.5 27.5s12.337 27.5 27.5 27.5c12.564 0 23.18-8.473 26.453-20.003h33.547c4.143 0 7.5-3.357 7.5-7.5v-85.306h42.68V431.1c-11.528 3.274-20 13.889-20 26.452 0 15.163 12.337 27.5 27.5 27.5s27.5-12.337 27.5-27.5c0-12.563-8.472-23.178-20-26.452V322.243h72.68V431.1c-11.528 3.274-20 13.889-20 26.452 0 15.163 12.337 27.5 27.5 27.5s27.5-12.337 27.5-27.5c0-12.563-8.472-23.178-20-26.452V322.243h42.68v85.306c0 4.143 3.357 7.5 7.5 7.5h33.547c3.273 11.53 13.889 20.003 26.453 20.003 15.163 0 27.5-12.337 27.5-27.5s-12.337-27.5-27.5-27.5c-12.562 0-23.176 8.47-26.451 19.997H365.02v-77.806h63.721c39.14 0 73.398-27.754 81.459-65.993a7.501 7.501 0 00-5.793-8.886zM94.48 420.051c-6.893 0-12.5-5.607-12.5-12.5s5.607-12.5 12.5-12.5 12.5 5.607 12.5 12.5-5.607 12.5-12.5 12.5zm130.18 37.5c0 6.893-5.607 12.5-12.5 12.5s-12.5-5.607-12.5-12.5 5.607-12.5 12.5-12.5 12.5 5.608 12.5 12.5zm87.68 0c0 6.893-5.607 12.5-12.5 12.5s-12.5-5.607-12.5-12.5 5.607-12.5 12.5-12.5 12.5 5.608 12.5 12.5zm-92.68-150.308v-32.45h19.18c4.143 0 7.5-3.357 7.5-7.5s-3.357-7.5-7.5-7.5h-42.33c-4.136 0-7.5-3.364-7.5-7.5v-118.98c0-4.136 3.364-7.5 7.5-7.5h118.98c4.136 0 7.5 3.364 7.5 7.5v118.98c0 4.136-3.364 7.5-7.5 7.5h-43.97c-4.143 0-7.5 3.357-7.5 7.5s3.357 7.5 7.5 7.5h20.82v32.45zm197.86 87.808c6.893 0 12.5 5.607 12.5 12.5s-5.607 12.5-12.5 12.5-12.5-5.607-12.5-12.5 5.607-12.5 12.5-12.5z" fill="#1DBBBA" data-original="#000000"/><path d="M297.992 227.293V158.31c0-4.143-3.357-7.5-7.5-7.5h-68.984a7.499 7.499 0 00-7.5 7.5v68.983c0 4.143 3.357 7.5 7.5 7.5h68.984a7.5 7.5 0 007.5-7.5zm-15-7.5h-53.984V165.81h53.984z" fill="#1DBBBA" data-original="#000000"/></g></svg>