<svg xmlns="http://www.w3.org/2000/svg" width="512" height="512"><path d="M455.173 116.755c7.146-14.644 12.04-29.831 12.04-43.976 0-40.13-32.649-72.779-72.78-72.779-25.981 0-48.812 13.695-61.692 34.235a243.499 243.499 0 00-43.358-8.514c-4.187-.435-7.944 2.618-8.376 6.813a7.633 7.633 0 006.813 8.375 228.308 228.308 0 0138.13 7.247 72.44 72.44 0 00-4.295 24.623c0 51.43 64.63 116.651 67.38 119.402 2.941 2.94 7.857 2.94 10.797 0 1.737-1.738 28.148-28.389 47.379-60.746 15.693 20.932 27.472 43.934 35.101 68.333L371.58 211.424a7.639 7.639 0 00-5.066 2.706c-1.147 1.376-28.233 33.928-42.104 54.776-15.689 1.044-30.038 7.065-41.459 16.519l-1.439-8.632-9.84-58.699a7.638 7.638 0 00-2.621-4.587l-59.038-49.538a7.631 7.631 0 00-3.961-1.726l-60.492-7.562c-7.433-21.253-24.454-38.027-45.859-45.126 40.664-42.22 94.853-66.862 153.599-69.605a7.634 7.634 0 007.27-7.981c-.196-4.211-3.77-7.486-7.981-7.27-33.172 1.548-65.07 9.657-94.809 24.098-28.825 13.998-54.288 33.268-75.684 57.274a73.39 73.39 0 00-5.244-.21c-40.13 0-72.779 32.649-72.779 72.779 0 18.131 8.036 37.974 18.558 56.192a246.876 246.876 0 00-2.272 33.383c0 65.118 25.359 126.337 71.403 172.382C137.806 486.641 199.026 512 264.143 512c65.118 0 126.337-25.359 172.382-71.403 46.045-46.045 71.403-107.265 71.403-172.382 0-55.644-18.243-107.997-52.755-151.46zm-60.74 58.937c-15.249-16.545-57.511-65.752-57.511-102.913 0-31.711 25.799-57.511 57.511-57.511s57.511 25.799 57.511 57.511c0 37.162-42.262 86.369-57.511 102.913zm-65.145 108.3c31.711 0 57.511 25.799 57.511 57.511 0 37.161-42.262 86.368-57.511 102.913-15.249-16.545-57.511-65.752-57.511-102.913 0-31.711 25.8-57.511 57.511-57.511zM19.34 178.64c0-31.711 25.799-57.511 57.511-57.511s57.511 25.8 57.511 57.511c0 37.161-42.261 86.368-57.511 102.913-15.25-16.545-57.511-65.752-57.511-102.913zm16.286 89.575c0-4.223.121-8.456.352-12.68 16.738 23.614 34.078 41.111 35.475 42.507 2.939 2.94 7.858 2.94 10.796 0 1.436-1.436 19.736-19.901 36.901-44.537l29.782 67.009a7.628 7.628 0 003.049 3.446l43.963 26.378-19.743 59.829-51.143 39.231c-54.342-41.815-89.432-107.474-89.432-181.183zm102.407 190.47l49.324-37.836a7.643 7.643 0 002.603-3.665l22.394-67.86a7.633 7.633 0 00-3.321-8.938l-47.129-28.278-32.832-73.873c11.489-19.127 20.559-40.329 20.559-59.595 0-2.746-.167-5.453-.464-8.121l52.757 6.595 55.156 46.281 9.373 55.915 3.383 20.296c-8.381 11.856-13.326 26.305-13.326 41.898 0 10.148 2.523 20.833 6.584 31.469L241.6 434.009l-72.934 41.795a228.585 228.585 0 01-30.633-17.119zm126.11 38.047c-27.232 0-53.362-4.797-77.602-13.576l65.112-37.312a7.634 7.634 0 003.405-4.088l17.251-48.986c19.323 35.597 49.714 66.267 51.581 68.135 2.941 2.94 7.857 2.94 10.797 0 2.143-2.143 41.841-42.203 59.278-84.119l62.412 14.86c-40.701 63.169-111.663 105.086-192.234 105.086zm134.863-134.44c1.94-7.052 3.062-14.04 3.062-20.788 0-35.692-25.834-65.444-59.78-71.594 11.722-16.386 28.337-36.763 33.989-43.627l110.145-11.594c4.128 17.31 6.238 35.227 6.238 53.525 0 39.723-10.196 77.107-28.098 109.686l-65.556-15.608z" fill="#1DBBBA" data-original="#000000" xmlns="http://www.w3.org/2000/svg"/><path d="M329.288 301.296c-22.17 0-40.207 18.037-40.207 40.207s18.037 40.207 40.207 40.207 40.207-18.037 40.207-40.207-18.037-40.207-40.207-40.207zm0 65.145c-13.752 0-24.938-11.188-24.938-24.938s11.187-24.938 24.938-24.938c13.752 0 24.938 11.188 24.938 24.938s-11.186 24.938-24.938 24.938zM394.433 32.573c-22.17 0-40.207 18.037-40.207 40.207s18.037 40.207 40.207 40.207S434.64 94.95 434.64 72.78s-18.037-40.207-40.207-40.207zm0 65.145c-13.752 0-24.938-11.188-24.938-24.938 0-13.751 11.187-24.938 24.938-24.938 13.752 0 24.938 11.188 24.938 24.938.001 13.75-11.186 24.938-24.938 24.938zM76.851 138.433c-22.17 0-40.207 18.037-40.207 40.207s18.037 40.207 40.207 40.207 40.207-18.037 40.207-40.207-18.037-40.207-40.207-40.207zm0 65.146c-13.751 0-24.938-11.188-24.938-24.938 0-13.751 11.188-24.938 24.938-24.938 13.751 0 24.938 11.188 24.938 24.938 0 13.75-11.187 24.938-24.938 24.938z" fill="#1DBBBA" data-original="#000000" xmlns="http://www.w3.org/2000/svg"/></svg>