<svg xmlns="http://www.w3.org/2000/svg" width="422" height="301" fill="none"><g clip-path="url(#a)"><rect width="180.535" height="180.535" y="119.471" fill="#005BFF" rx="33.85"/><path fill="#FF0157" d="m72.778 300.005 14.669-107.192 36.107-12.976 56.417 80.676v39.492H72.778Z"/><g clip-path="url(#b)"><path fill="#fff" fill-rule="evenodd" d="M7.791 198.114a21.961 21.961 0 0 0-18.94 16.826 21.958 21.958 0 1 0 42.238-1.874A21.928 21.928 0 0 0 7.79 198.114Zm6.489 32.831A11.71 11.71 0 0 1 .39 213.646a11.71 11.71 0 0 1 12.668-5.08 11.707 11.707 0 0 1 8.878 10.367 11.707 11.707 0 0 1-7.656 12.012Zm24.257-38.7a5.116 5.116 0 0 0-3.47 2.709 5.124 5.124 0 0 0-.087 4.402c.989 2.254 3.546 3.381 5.945 2.854l13.922-3.061-15.363 33.436a1.466 1.466 0 0 0 .839 1.991c.256.091.533.109.798.052l33.987-7.471c2.397-.527 4.247-2.623 4.2-5.084a5.123 5.123 0 0 0-6.21-4.965l-16.964 3.729 15.352-33.41a1.477 1.477 0 0 0-1.654-2.062l-31.295 6.88Zm135.832-29.739a5.204 5.204 0 0 0-2.799 5.88l3.662 16.66-31.718-15.548a1.48 1.48 0 0 0-.802-.141c-.275.03-.536.136-.754.307a1.478 1.478 0 0 0-.525 1.474l7.562 34.4a5.201 5.201 0 0 0 5.008 4.164 5.122 5.122 0 0 0 3.991-1.914 5.105 5.105 0 0 0 1.006-4.309l-3.694-16.805 31.719 15.549a1.474 1.474 0 0 0 2.03-.827c.092-.261.11-.543.05-.813l-7.59-34.525a5.124 5.124 0 0 0-2.721-3.489 5.12 5.12 0 0 0-4.425-.063Zm-68.326 24.385c11.419-2.51 21.277 1.649 22.464 7.046 1.186 5.398-6.019 13.308-17.438 15.818-11.418 2.51-21.276-1.649-22.463-7.046-1.187-5.398 6.019-13.308 17.437-15.818Zm-2.199-10.006c-16.528 3.633-27.816 16.177-25.214 28.016 2.603 11.84 18.111 18.493 34.639 14.86 16.528-3.634 27.815-16.177 25.213-28.017-2.603-11.839-18.111-18.492-34.638-14.859Z" clip-rule="evenodd"/></g></g><g clip-path="url(#c)"><rect width="180.535" height="180.535" x="121.861" y=".995" fill="#282924" rx="33.85"/><path stroke="#FFDB00" stroke-width="33.85" d="m106.064 135.832 60.931-82.37 15.233 3.386-19.746 84.625 9.59 3.385L248.8 29.203l18.053 5.078-27.644 91.396 13.54 5.641 64.88-71.085"/></g><g clip-path="url(#d)"><rect width="180.535" height="180.535" x="241.465" y="119.471" fill="#DF009F" rx="33.85"/><circle cx="275.879" cy="306.211" r="77.291" fill="#FF0089"/><circle cx="396.048" cy="161.219" r="86.882" fill="url(#e)"/><circle cx="252.185" cy="121.163" r="38.928" fill="#EC048A"/><circle cx="410.717" cy="125.112" r="42.877" fill="#FF0089"/><path fill="#fff" d="M287.421 231.604h-10.573l-15.74-55.646h9.619l11.686 43.484 12.64-43.484h8.426l12.56 43.484 11.686-43.484h9.619l-15.74 55.646h-10.573l-11.765-40.622-11.845 40.622Zm89.831-28.856c2.438 1.272 4.346 3.047 5.724 5.326 1.378 2.226 2.067 4.769 2.067 7.631 0 4.558-1.617 8.347-4.85 11.368-3.232 3.021-7.181 4.531-11.844 4.531H344.5v-55.646h22.1c4.558 0 8.4 1.484 11.527 4.452 3.179 2.967 4.769 6.624 4.769 10.97 0 4.77-1.881 8.559-5.644 11.368ZM366.6 184.543h-12.958v14.627H366.6c2.014 0 3.71-.689 5.088-2.066 1.377-1.431 2.066-3.18 2.066-5.247 0-2.067-.689-3.789-2.066-5.167-1.378-1.431-3.074-2.147-5.088-2.147Zm-12.958 38.476h14.707c2.12 0 3.895-.742 5.326-2.226 1.484-1.537 2.226-3.392 2.226-5.565 0-2.173-.742-4.001-2.226-5.485-1.431-1.537-3.206-2.305-5.326-2.305h-14.707v15.581Z"/></g><defs><clipPath id="a"><rect width="180.535" height="180.535" y="119.471" fill="#fff" rx="33.85"/></clipPath><clipPath id="b"><path fill="#fff" d="m-15.797 203.177 196-43.086 9.432 42.903-196 43.087z"/></clipPath><clipPath id="c"><rect width="180.535" height="180.535" x="121.861" y=".995" fill="#fff" rx="33.85"/></clipPath><clipPath id="d"><rect width="180.535" height="180.535" x="241.465" y="119.471" fill="#fff" rx="33.85"/></clipPath><linearGradient id="e" x1="325.828" x2="445.44" y1="115.993" y2="248.102" gradientUnits="userSpaceOnUse"><stop stop-color="#FF0089"/><stop offset="1" stop-color="#F300AB" stop-opacity=".09"/></linearGradient></defs></svg>