<svg xmlns="http://www.w3.org/2000/svg" width="123" height="135" fill="none"><g clip-path="url(#a)"><path fill="url(#b)" d="M92.106-15.24c25.02 8.754 36.929 34.58 26.601 57.682-10.329 23.102-38.984 34.734-64.004 25.98-25.02-8.753-36.929-34.578-26.6-57.68C38.43-12.362 67.086-23.994 92.106-15.24Z"/><path fill="url(#c)" d="M48.317 81.861c-7.62 2.666-11.248 10.532-8.102 17.568 3.146 7.037 11.873 10.579 19.493 7.913 7.62-2.666 11.248-10.531 8.102-17.568-3.146-7.036-11.873-10.579-19.493-7.913Z"/><path fill="url(#d)" d="M66.993-2.044c39.498 13.82 58.3 54.588 41.994 91.06-16.305 36.472-61.543 54.835-101.04 41.015-39.499-13.819-58.3-54.588-41.995-91.06C-17.742 2.499 27.495-15.864 66.993-2.044Z"/></g><defs><linearGradient id="b" x1="9.401" x2="134.719" y1="52.572" y2="-5.22" gradientUnits="userSpaceOnUse"><stop stop-color="#DF1285" stop-opacity=".74"/><stop offset="1" stop-color="#DF1285"/></linearGradient><linearGradient id="c" x1="72.936" x2="35.2" y1="101.241" y2="85.098" gradientUnits="userSpaceOnUse"><stop stop-color="#fff"/><stop offset="1" stop-color="#fff" stop-opacity=".74"/></linearGradient><linearGradient id="d" x1="24.04" x2="17.865" y1="166.602" y2="-12.102" gradientUnits="userSpaceOnUse"><stop stop-color="#ED138D" stop-opacity=".33"/><stop offset=".507" stop-color="#ED138D" stop-opacity=".953"/><stop offset="1" stop-color="#ED138D"/></linearGradient><clipPath id="a"><path fill="#fff" d="M123 135H0V.248h123z"/></clipPath></defs></svg>