<svg xmlns="http://www.w3.org/2000/svg" width="183" height="106" fill="none"><g fill="#fff" clip-path="url(#a)"><path d="M83.263 80.965c11.955 13.97 35.664 20.705 59.895 23.243 23.429 2.455 47.784-.052 66.437-10.006 19.278-10.287 30.763-25.668 30.675-41.816-.089-16.563-11.177-32.295-31.129-42.175-20.188-9.997-46.615-13.054-71.353-8.574-24.675 4.468-44.876 16.176-55.43 31.53-10.585 15.4-11.5 33.304.905 47.798ZM41.057 29.171c-3.202 3.61-9.397 5.34-15.695 5.983-6.09.622-12.383-.042-17.143-2.63C3.3 29.848.438 25.858.58 21.677c.147-4.29 3.137-8.357 8.38-10.903 5.307-2.577 12.178-3.352 18.556-2.178 6.361 1.172 11.51 4.216 14.13 8.198 2.629 3.995 2.733 8.631-.59 12.377ZM77.095 96.722c-2.312 2.607-6.785 3.856-11.333 4.32-4.397.449-8.941-.03-12.378-1.9-3.552-1.931-5.619-4.813-5.516-7.832.106-3.097 2.265-6.034 6.051-7.872 3.831-1.861 8.793-2.421 13.398-1.573 4.593.846 8.31 3.044 10.203 5.92 1.898 2.884 1.974 6.232-.425 8.937Z" opacity=".4"/></g><defs><clipPath id="a"><path fill="#fff" d="M0 0h183v106H0z"/></clipPath></defs></svg>