<svg width="135" height="41" fill="none" xmlns="http://www.w3.org/2000/svg"><path fill-rule="evenodd" clip-rule="evenodd" d="M129.998 40.349H5.002a5.015 5.015 0 01-5.002-5v-30c0-2.756 2.245-5 5.002-5h124.996a5.01 5.01 0 015.002 5v30c0 2.745-2.248 5-5.002 5z" fill="#000"/><path fill-rule="evenodd" clip-rule="evenodd" d="M129.998 1.15c2.312 0 4.205 1.887 4.205 4.199v30c0 2.311-1.88 4.2-4.205 4.2H5.002a4.213 4.213 0 01-4.205-4.2v-30c0-2.312 1.88-4.2 4.205-4.2h124.996zm0-.801H5.002a5.015 5.015 0 00-5.002 5v30c0 2.755 2.245 5 5.002 5h124.996a5.01 5.01 0 005.002-5v-30c0-2.746-2.248-5-5.002-5z" fill="#A6A6A6"/><path fill-rule="evenodd" clip-rule="evenodd" d="M67.853 22.104c-2.347 0-4.25 1.788-4.25 4.254 0 2.444 1.915 4.255 4.25 4.255 2.347 0 4.249-1.8 4.249-4.255 0-2.466-1.902-4.254-4.25-4.254zm0 6.823c-1.284 0-2.39-1.067-2.39-2.579 0-1.533 1.108-2.578 2.39-2.578 1.284 0 2.389 1.045 2.389 2.578.002 1.522-1.105 2.579-2.39 2.579zm-9.271-6.823c-2.347 0-4.25 1.788-4.25 4.254 0 2.444 1.915 4.255 4.25 4.255 2.347 0 4.249-1.8 4.249-4.255 0-2.466-1.905-4.254-4.25-4.254zm0 6.823c-1.284 0-2.39-1.067-2.39-2.579 0-1.533 1.108-2.578 2.39-2.578 1.284 0 2.389 1.045 2.389 2.578 0 1.522-1.105 2.579-2.39 2.579zM47.55 23.403v1.8h4.304c-.132 1.01-.465 1.756-.974 2.268-.63.633-1.604 1.321-3.32 1.321-2.645 0-4.714-2.144-4.714-4.8 0-2.656 2.069-4.8 4.714-4.8 1.428 0 2.468.565 3.24 1.289l1.272-1.277C51 18.17 49.572 17.38 47.57 17.38c-3.629 0-6.674 2.967-6.674 6.6 0 3.644 3.043 6.602 6.674 6.602 1.96 0 3.43-.643 4.592-1.855 1.184-1.19 1.56-2.868 1.56-4.223 0-.42-.033-.8-.1-1.122h-6.075c.003-.002.003.02.003.02zm45.123 1.402c-.355-.955-1.428-2.71-3.628-2.71-2.18 0-3.994 1.722-3.994 4.253 0 2.39 1.793 4.255 4.205 4.255 1.937 0 3.064-1.19 3.529-1.888l-1.438-.968c-.477.711-1.14 1.177-2.081 1.177-.952 0-1.617-.433-2.06-1.289l5.666-2.356-.199-.474zm-5.777 1.421c-.044-1.643 1.272-2.479 2.213-2.479.743 0 1.361.367 1.572.9l-3.785 1.58zm-4.602 4.122h1.86V17.85h-1.86v12.498zM79.24 23.05h-.067c-.42-.501-1.217-.955-2.236-.955-2.113 0-4.06 1.868-4.06 4.267 0 2.389 1.937 4.234 4.06 4.234 1.006 0 1.816-.456 2.236-.967h.067v.61c0 1.624-.865 2.5-2.258 2.5-1.14 0-1.848-.823-2.136-1.512l-1.617.679c.465 1.122 1.704 2.51 3.75 2.51 2.181 0 4.029-1.288 4.029-4.433v-7.634H79.25v.701h-.01zm-2.136 5.878c-1.284 0-2.357-1.077-2.357-2.566 0-1.501 1.073-2.589 2.357-2.589 1.271 0 2.257 1.1 2.257 2.589.013 1.489-.983 2.566-2.257 2.566zm24.279-11.077h-4.448v12.498h1.86v-4.733h2.59c2.059 0 4.083-1.498 4.083-3.877 0-2.38-2.016-3.888-4.085-3.888zm.054 6.02h-2.644v-4.29h2.644c1.394 0 2.181 1.155 2.181 2.145 0 .98-.797 2.145-2.181 2.145zm11.487-1.788c-1.351 0-2.744.6-3.321 1.91l1.649.688c.356-.688 1.006-.923 1.694-.923.964 0 1.937.579 1.96 1.611v.133c-.333-.19-1.063-.48-1.937-.48-1.781 0-3.587.978-3.587 2.811 0 1.678 1.461 2.756 3.087 2.756 1.25 0 1.938-.566 2.367-1.222h.067v.968h1.793v-4.789c0-2.229-1.649-3.463-3.772-3.463zm-.234 6.845c-.608 0-1.46-.3-1.46-1.067 0-.968 1.063-1.334 1.97-1.334.819 0 1.207.177 1.693.42a2.243 2.243 0 01-2.203 1.981zm10.548-6.579l-2.136 5.422h-.067l-2.213-5.422h-2.001l3.32 7.579-1.892 4.212h1.937l5.108-11.79h-2.056zm-16.744 8h1.86V17.85h-1.86v12.498z" fill="#fff"/><path fill-rule="evenodd" clip-rule="evenodd" d="M10.391 7.882c-.288.312-.454.788-.454 1.412v22.112c0 .623.166 1.1.464 1.399l.077.067 12.338-12.389v-.277L10.468 7.815l-.077.067z" fill="url(#paint0_linear)"/><path fill-rule="evenodd" clip-rule="evenodd" d="M26.922 24.625l-4.116-4.132v-.29l4.116-4.131.089.055 4.868 2.778c1.393.788 1.393 2.09 0 2.887L27.01 24.57l-.09.055z" fill="url(#paint1_linear)"/><path fill-rule="evenodd" clip-rule="evenodd" d="M27.01 24.57l-4.204-4.221-12.415 12.466c.455.489 1.217.544 2.069.067l14.55-8.311z" fill="url(#paint2_linear)"/><path fill-rule="evenodd" clip-rule="evenodd" d="M27.01 16.127l-14.55-8.3c-.852-.488-1.617-.421-2.069.068l12.415 12.454 4.205-4.222z" fill="url(#paint3_linear)"/><path opacity=".2" fill-rule="evenodd" clip-rule="evenodd" d="M26.922 24.481L12.47 32.725c-.807.467-1.527.434-1.992.01l-.077.078.077.067c.465.421 1.185.456 1.992-.01l14.55-8.3-.098-.089z" fill="#000"/><path opacity=".12" fill-rule="evenodd" clip-rule="evenodd" d="M31.879 21.648l-4.97 2.833.09.09 4.867-2.779c.698-.399 1.04-.922 1.04-1.443-.041.478-.396.932-1.027 1.299z" fill="#000"/><path opacity=".25" fill-rule="evenodd" clip-rule="evenodd" d="M12.46 7.972l19.419 11.077c.63.357.986.823 1.04 1.3 0-.522-.342-1.045-1.04-1.444L12.459 7.827c-1.392-.8-2.522-.132-2.522 1.467v.144c0-1.6 1.13-2.257 2.523-1.466z" fill="#fff"/><path d="M48.222 15.092h-.933v-1.743h-5.102v1.748h-.938l-.005-2.515h.581c.306-.345.549-.807.728-1.387.182-.582.296-1.22.342-1.914l.156-3.042h4.253v6.343h.927l-.01 2.51zm-5.328-2.51h3.467V7.011h-2.407l-.102 2.09c-.043.817-.152 1.513-.328 2.09-.172.576-.382 1.04-.63 1.391zm6.07-1.924c0-.517.1-.983.303-1.396.205-.414.488-.733.85-.957.364-.225.779-.337 1.244-.337.72 0 1.3.249 1.744.747.446.498.668 1.16.668 1.987v.064c0 .514-.099.976-.297 1.386a2.225 2.225 0 01-.845.953 2.327 2.327 0 01-1.26.341c-.716 0-1.297-.249-1.743-.747-.443-.498-.664-1.157-.664-1.977v-.064zm.908.108c0 .586.135 1.056.405 1.41.274.356.638.533 1.094.533.46 0 .824-.18 1.094-.537.27-.362.405-.866.405-1.514 0-.58-.138-1.048-.415-1.406a1.303 1.303 0 00-1.094-.542c-.446 0-.805.177-1.079.532-.273.355-.41.863-.41 1.524zm7.153 1.943c.323 0 .604-.098.845-.293.241-.195.375-.44.4-.732h.855c-.016.302-.12.59-.313.864-.192.273-.449.491-.771.654a2.204 2.204 0 01-1.016.244c-.719 0-1.292-.239-1.718-.717-.424-.482-.635-1.14-.635-1.973v-.152c0-.514.094-.971.283-1.372.189-.4.46-.71.81-.932.355-.222.774-.332 1.255-.332.593 0 1.084.177 1.475.532.394.355.604.815.63 1.382h-.855a1.23 1.23 0 00-.39-.84 1.194 1.194 0 00-.86-.332c-.459 0-.815.166-1.069.498-.25.329-.376.806-.376 1.43v.172c0 .608.125 1.077.376 1.406.25.329.609.493 1.074.493zm7.041-3.911h-1.772v4.55h-.903v-4.55h-1.739v-.733h4.414v.733zm2.666 3.227l1.23-3.96h.968l-2.124 6.1c-.33.878-.852 1.317-1.568 1.317l-.17-.014-.337-.064v-.732l.244.02c.306 0 .543-.062.713-.186.172-.124.314-.35.424-.679l.2-.537-1.884-5.225h.986l1.318 3.96zm7.33 1.324h-.904V8.812h-2.431v4.537h-.909V8.065h4.243v5.284zm5.766 0h-.903v-2.256h-2.427v2.256h-.908V8.065h.908v2.29h2.427v-2.29h.903v5.284zm1.216-2.69c0-.518.1-.984.303-1.397.205-.414.488-.733.85-.957.364-.225.779-.337 1.244-.337.72 0 1.3.249 1.744.747.445.498.668 1.16.668 1.987v.064c0 .514-.099.976-.297 1.386a2.225 2.225 0 01-.845.953 2.326 2.326 0 01-1.26.341c-.716 0-1.297-.249-1.743-.747-.443-.498-.664-1.157-.664-1.977v-.064zm.908.107c0 .586.135 1.056.405 1.41.274.356.638.533 1.094.533a1.3 1.3 0 001.094-.537c.27-.362.405-.866.405-1.514 0-.58-.138-1.048-.415-1.406a1.303 1.303 0 00-1.094-.542c-.446 0-.805.177-1.079.532-.273.355-.41.863-.41 1.524zm7.598 2.583V8.065h2.06c.704 0 1.242.124 1.617.372.377.244.566.603.566 1.079 0 .244-.073.465-.22.664-.146.195-.363.345-.65.449.32.075.575.221.767.44.196.217.293.478.293.78 0 .486-.179.857-.537 1.114-.355.257-.858.386-1.508.386H89.55zm.903-2.32v1.592h1.494c.378 0 .66-.07.845-.21a.693.693 0 00.283-.59c0-.528-.387-.792-1.162-.792h-1.46zm0-.722h1.167c.846 0 1.27-.248 1.27-.743 0-.494-.4-.75-1.201-.766h-1.236v1.509z" fill="#fff"/><defs><linearGradient id="paint0_linear" x1="21.709" y1="9.055" x2="1.935" y2="14.303" gradientUnits="userSpaceOnUse"><stop stop-color="#00A0FF"/><stop offset=".007" stop-color="#00A1FF"/><stop offset=".26" stop-color="#00BEFF"/><stop offset=".512" stop-color="#00D2FF"/><stop offset=".76" stop-color="#00DFFF"/><stop offset="1" stop-color="#00E3FF"/></linearGradient><linearGradient id="paint1_linear" x1="33.696" y1="20.349" x2="9.598" y2="20.349" gradientUnits="userSpaceOnUse"><stop stop-color="#FFE000"/><stop offset=".409" stop-color="#FFBD00"/><stop offset=".775" stop-color="orange"/><stop offset="1" stop-color="#FF9C00"/></linearGradient><linearGradient id="paint2_linear" x1="24.725" y1="22.646" x2="8.762" y2="49.402" gradientUnits="userSpaceOnUse"><stop stop-color="#FF3A44"/><stop offset="1" stop-color="#C31162"/></linearGradient><linearGradient id="paint3_linear" x1="7.265" y1=".527" x2="14.386" y2="12.477" gradientUnits="userSpaceOnUse"><stop stop-color="#32A071"/><stop offset=".069" stop-color="#2DA771"/><stop offset=".476" stop-color="#15CF74"/><stop offset=".801" stop-color="#06E775"/><stop offset="1" stop-color="#00F076"/></linearGradient></defs></svg>