<svg width="135" height="41" fill="none" xmlns="http://www.w3.org/2000/svg"><path d="M130.197 40.349H4.729A4.74 4.74 0 010 35.616V5.075A4.733 4.733 0 014.729.349h125.468c2.606 0 4.803 2.12 4.803 4.726v30.54c0 2.606-2.197 4.734-4.803 4.734z" fill="#A6A6A6"/><path d="M134.032 35.617a3.83 3.83 0 01-3.834 3.83H4.729a3.835 3.835 0 01-3.839-3.83V5.074a3.84 3.84 0 013.839-3.835h125.468a3.834 3.834 0 013.834 3.835l.001 30.543z" fill="#000"/><path d="M30.128 20.132c-.029-3.223 2.639-4.79 2.761-4.864-1.511-2.203-3.853-2.504-4.676-2.528-1.967-.207-3.875 1.177-4.877 1.177-1.022 0-2.565-1.157-4.228-1.123-2.14.033-4.142 1.272-5.24 3.196-2.266 3.923-.576 9.688 1.595 12.86 1.086 1.552 2.355 3.286 4.016 3.225 1.625-.067 2.232-1.036 4.193-1.036 1.943 0 2.513 1.036 4.207.997 1.744-.028 2.842-1.56 3.89-3.127 1.255-1.78 1.759-3.533 1.779-3.623-.041-.014-3.387-1.29-3.42-5.154zM26.928 10.654c.874-1.093 1.472-2.58 1.306-4.089-1.265.056-2.847.875-3.758 1.944-.806.942-1.526 2.486-1.34 3.938 1.421.106 2.88-.717 3.792-1.793zM53.645 31.852h-2.271l-1.244-3.909h-4.324l-1.185 3.91H42.41l4.284-13.309h2.646l4.305 13.308zm-3.89-5.549l-1.125-3.475c-.119-.355-.342-1.19-.671-2.507h-.04a96.75 96.75 0 01-.632 2.507l-1.105 3.475h3.573zM64.662 26.937c0 1.632-.441 2.922-1.323 3.869-.79.843-1.771 1.264-2.942 1.264-1.264 0-2.172-.454-2.725-1.362h-.04v5.055H55.5V25.416c0-1.026-.027-2.08-.079-3.16h1.875l.119 1.522h.04c.711-1.146 1.79-1.718 3.238-1.718 1.132 0 2.077.447 2.833 1.342.758.896 1.136 2.074 1.136 3.535zm-2.172.078c0-.934-.21-1.704-.632-2.31-.461-.632-1.08-.948-1.856-.948-.526 0-1.004.176-1.431.523-.428.35-.708.807-.839 1.373-.066.264-.099.48-.099.65v1.6c0 .698.214 1.287.642 1.768.428.48.984.72 1.668.72.803 0 1.428-.31 1.875-.927.448-.62.672-1.435.672-2.45zM75.699 26.937c0 1.632-.441 2.922-1.324 3.869-.789.843-1.77 1.264-2.941 1.264-1.264 0-2.172-.454-2.724-1.362h-.04v5.055h-2.132V25.416c0-1.026-.027-2.08-.079-3.16h1.875l.119 1.522h.04c.71-1.146 1.789-1.718 3.238-1.718 1.131 0 2.076.447 2.834 1.342.755.896 1.134 2.074 1.134 3.535zm-2.172.078c0-.934-.211-1.704-.633-2.31-.461-.632-1.078-.948-1.855-.948a2.22 2.22 0 00-1.432.523c-.428.35-.707.807-.838 1.373-.065.264-.099.48-.099.65v1.6c0 .698.214 1.287.64 1.768.428.48.984.72 1.67.72.803 0 1.428-.31 1.875-.927.448-.62.672-1.435.672-2.45zM88.039 28.12c0 1.133-.393 2.054-1.182 2.765-.867.777-2.074 1.165-3.625 1.165-1.432 0-2.58-.276-3.449-.83l.494-1.776c.936.566 1.963.85 3.082.85.803 0 1.428-.182 1.877-.544.447-.362.67-.848.67-1.454 0-.54-.184-.995-.553-1.364-.367-.37-.98-.712-1.836-1.03-2.33-.868-3.494-2.141-3.494-3.815 0-1.094.408-1.991 1.225-2.69.814-.698 1.9-1.047 3.258-1.047 1.211 0 2.217.21 3.02.632l-.533 1.738c-.75-.408-1.598-.612-2.547-.612-.75 0-1.336.185-1.756.553a1.58 1.58 0 00-.533 1.205c0 .526.203.96.611 1.303.355.316 1 .658 1.936 1.027 1.145.46 1.986 1 2.527 1.618.539.616.808 1.387.808 2.307zM95.088 23.857h-2.35v4.659c0 1.185.414 1.777 1.244 1.777.381 0 .697-.033.947-.1l.059 1.62c-.42.157-.973.236-1.658.236-.842 0-1.5-.257-1.975-.77-.473-.514-.711-1.376-.711-2.587v-4.837h-1.4v-1.6h1.4v-1.757l2.094-.632v2.389h2.35v1.602zM105.691 26.976c0 1.475-.422 2.686-1.264 3.633-.883.974-2.055 1.46-3.516 1.46-1.408 0-2.529-.467-3.365-1.4-.836-.934-1.254-2.114-1.254-3.535 0-1.486.43-2.704 1.293-3.651.861-.948 2.023-1.422 3.484-1.422 1.408 0 2.541.466 3.396 1.401.818.907 1.226 2.079 1.226 3.514zm-2.212.069c0-.886-.189-1.645-.572-2.278-.447-.765-1.086-1.148-1.914-1.148-.857 0-1.508.384-1.955 1.148-.383.634-.572 1.405-.572 2.317 0 .886.189 1.645.572 2.276.461.767 1.105 1.149 1.936 1.149.814 0 1.453-.39 1.914-1.169.393-.645.591-1.412.591-2.296zM112.621 24.132a3.702 3.702 0 00-.672-.06c-.75 0-1.33.284-1.738.85-.355.5-.533 1.133-.533 1.896v5.035h-2.131l.02-6.574c0-1.106-.027-2.113-.08-3.021h1.857l.078 1.836h.059c.225-.631.58-1.14 1.066-1.52a2.578 2.578 0 011.541-.514c.197 0 .375.014.533.039v2.033zM122.156 26.6a5 5 0 01-.078.967h-6.396c.025.948.334 1.674.928 2.174.539.447 1.236.67 2.092.67.947 0 1.811-.15 2.588-.454l.334 1.48c-.908.396-1.98.594-3.217.594-1.488 0-2.656-.438-3.506-1.313-.848-.875-1.273-2.05-1.273-3.524 0-1.447.395-2.652 1.186-3.613.828-1.026 1.947-1.54 3.355-1.54 1.383 0 2.43.514 3.141 1.54.563.814.846 1.823.846 3.02zm-2.033-.553c.014-.631-.125-1.178-.414-1.639-.369-.593-.936-.889-1.699-.889-.697 0-1.264.29-1.697.87-.355.46-.566 1.014-.631 1.658h4.441zM46.473 10.148c0-.377-.139-.677-.415-.898-.274-.225-.66-.337-1.158-.337-.416 0-.766.116-1.05.347-.28.228-.42.51-.42.85h-.937c0-.378.103-.717.308-1.016.208-.3.498-.532.869-.698a2.93 2.93 0 011.23-.254c.795 0 1.412.179 1.851.537.44.355.66.85.66 1.484 0 .329-.102.628-.304.899-.201.27-.483.483-.844.64.836.28 1.255.834 1.255 1.664 0 .638-.238 1.144-.713 1.519-.476.374-1.11.561-1.905.561a3.24 3.24 0 01-1.289-.249 2.089 2.089 0 01-.898-.717c-.215-.31-.322-.678-.322-1.104h.937c0 .374.148.687.444.938.297.247.673.37 1.128.37.511 0 .918-.118 1.221-.356.306-.237.46-.552.46-.942 0-.834-.517-1.258-1.549-1.275h-.879v-.771h.874c.476-.01.835-.117 1.08-.322.244-.206.366-.495.366-.87zm5.41 5.2c-.052-.104-.095-.29-.127-.556-.42.436-.921.654-1.504.654-.52 0-.949-.146-1.284-.44a1.44 1.44 0 01-.498-1.122c0-.55.208-.977.625-1.28.42-.305 1.009-.458 1.767-.458h.88v-.416c0-.315-.095-.566-.284-.752-.189-.188-.467-.283-.835-.283-.322 0-.592.082-.81.245-.219.162-.328.36-.328.59h-.908c0-.263.093-.517.279-.761a1.93 1.93 0 01.761-.586 2.58 2.58 0 011.06-.215c.608 0 1.085.153 1.43.459.346.303.525.72.538 1.255v2.431c0 .485.061.871.185 1.158v.078h-.947zm-1.5-.688c.284 0 .552-.073.806-.22.254-.146.438-.336.552-.57v-1.085h-.708c-1.107 0-1.66.324-1.66.972 0 .283.094.504.283.664.19.16.432.24.728.24zm7.09-3.848h-2.436v4.537h-.908v-5.284h3.345v.748zm5.25 1.954c0 .804-.184 1.451-.552 1.943-.368.492-.866.737-1.494.737-.642 0-1.146-.203-1.514-.61v2.544h-.903v-7.315h.825l.044.586c.368-.455.879-.683 1.533-.683.635 0 1.136.239 1.504.717.371.48.557 1.145.557 1.998v.083zm-.904-.103c0-.596-.127-1.066-.38-1.411-.254-.345-.603-.518-1.045-.518-.547 0-.957.243-1.23.728v2.524c.27.482.683.723 1.24.723.432 0 .776-.17 1.03-.513.257-.345.385-.856.385-1.533zm3.726 1.362l1.23-3.96h.967l-2.124 6.1c-.329.878-.851 1.317-1.567 1.317l-.171-.014-.337-.064v-.732l.244.02c.306 0 .544-.062.713-.186.172-.124.314-.35.425-.679l.2-.537-1.885-5.225h.987l1.318 3.96zm5.913-2.514a.696.696 0 00-.283-.586c-.189-.147-.448-.22-.777-.22-.319 0-.585.083-.8.25-.212.165-.318.36-.318.585h-.898c0-.459.192-.835.576-1.128.384-.293.864-.44 1.44-.44.619 0 1.1.134 1.446.401.345.264.517.641.517 1.133 0 .237-.071.456-.215.654a1.464 1.464 0 01-.61.474c.615.208.923.618.923 1.23 0 .485-.187.87-.562 1.153-.374.283-.874.424-1.499.424-.608 0-1.111-.148-1.508-.444-.394-.3-.591-.703-.591-1.21h.898c0 .256.114.478.342.663.231.183.518.274.86.274.344 0 .623-.08.834-.24a.742.742 0 00.318-.62c0-.296-.09-.508-.269-.635-.176-.13-.45-.195-.825-.195h-.903v-.761h.981c.615-.017.923-.27.923-.762zm5.59-1.446h.904v5.284h-.903v-3.853l-2.437 3.853h-.903v-5.284h.903v3.858l2.437-3.858zm6.28.733h-1.772v4.55h-.904v-4.55h-1.738v-.733h4.414v.733zm2.68 4.648c-.715 0-1.298-.234-1.747-.703-.45-.472-.674-1.102-.674-1.89v-.165c0-.525.1-.992.298-1.402.202-.413.481-.736.84-.967a2.113 2.113 0 011.172-.351c.686 0 1.22.226 1.601.678.38.453.571 1.1.571 1.944v.376H84.49c.013.52.165.942.454 1.264.293.32.664.479 1.114.479.319 0 .589-.065.81-.195.222-.13.415-.303.581-.518l.552.43c-.443.68-1.107 1.02-1.992 1.02zm-.111-4.736c-.365 0-.671.133-.919.4-.247.264-.4.635-.459 1.114h2.647v-.069c-.026-.459-.15-.813-.371-1.064-.221-.254-.52-.381-.898-.381zm5.786 4.639v-5.284h2.06c.703 0 1.242.124 1.616.372.378.244.567.603.567 1.079 0 .244-.073.465-.22.664-.146.195-.363.345-.65.449.32.075.575.221.767.44.196.217.293.478.293.78 0 .486-.179.857-.537 1.114-.355.257-.858.386-1.509.386h-2.387zm.903-2.32v1.592h1.494c.378 0 .66-.07.845-.21a.693.693 0 00.283-.59c0-.528-.387-.792-1.162-.792h-1.46zm0-.722h1.167c.846 0 1.27-.248 1.27-.742 0-.495-.4-.75-1.202-.767h-1.235v1.509z" fill="#fff"/></svg>