<svg xmlns="http://www.w3.org/2000/svg" width="499" height="401" fill="none"><g filter="url(#a)"><path stroke="#fff" stroke-width="2.4" d="M314.774 272.043c-53.304 39.894-107.967 67.361-153.22 79.548-22.631 6.095-42.846 8.351-59.333 6.473-16.484-1.878-29.127-7.871-36.832-18.166-7.705-10.295-9.89-24.114-7.044-40.459 2.846-16.348 10.71-35.107 22.938-55.101 24.451-39.981 66.215-84.683 119.52-124.577C254.107 79.867 308.77 52.4 354.023 40.212c22.63-6.094 42.845-8.35 59.333-6.472 16.484 1.878 29.126 7.87 36.831 18.165 7.705 10.295 9.891 24.114 7.045 40.46-2.846 16.348-10.711 35.107-22.938 55.1-24.451 39.982-66.216 84.683-119.52 124.578Z" shape-rendering="crispEdges"/></g><g filter="url(#b)"><path stroke="#fff" stroke-width="2.4" d="M319.087 255.709c-50.42 37.736-101.771 64.189-144.003 76.478-21.12 6.146-39.896 8.73-55.104 7.454-15.21-1.276-26.707-6.395-33.527-15.508s-8.49-21.587-5.427-36.539c3.064-14.951 10.837-32.237 22.688-50.768 23.697-37.054 63.554-78.864 113.975-116.6 50.42-37.735 101.771-64.188 144.003-76.477 21.12-6.146 39.896-8.73 55.104-7.454 15.21 1.276 26.707 6.395 33.527 15.508s8.49 21.586 5.427 36.539c-3.064 14.951-10.837 32.237-22.688 50.767-23.697 37.054-63.554 78.864-113.975 116.6Z" shape-rendering="crispEdges"/></g><ellipse cx="361.846" cy="241.325" fill="#00BEA2" rx="130.888" ry="43.116" transform="rotate(11.826 361.846 241.325)"/><path fill="#fff" d="m310.45 215.35-.946 4.521-8.064-1.688-4.654 22.231-5.275-1.104 4.654-22.231-8.063-1.689.946-4.521 21.402 4.481Zm13.561 17.195-2.722 13-4.408-.923.418-1.997c-1.649 1.49-3.906 1.935-6.769 1.335-2.06-.431-3.631-1.258-4.712-2.481-1.056-1.217-1.4-2.705-1.032-4.464.405-1.934 1.421-3.281 3.049-4.042 1.628-.76 3.86-1.092 6.698-.996l4.695.117.095-.452c.195-.929.018-1.713-.53-2.353-.517-.659-1.341-1.106-2.472-1.343-1.231-.258-2.285-.23-3.164.085-1.02.363-2.181.959-3.482 1.788l-2.498-3.473c3.042-2.379 6.346-3.194 9.913-2.448 2.663.558 4.594 1.605 5.793 3.141 1.199 1.535 1.575 3.371 1.128 5.506Zm-5.753 4.184.237-1.13-3.383-.001c-1.812.014-3.142.168-3.99.463-.818.274-1.311.813-1.48 1.617-.126.603.025 1.133.454 1.59.459.437 1.154.753 2.083.947 1.507.316 2.82.184 3.937-.395 1.118-.579 1.832-1.609 2.142-3.091Zm20.725 12.52-3.776-9.207-2.976-.624-1.689 8.064-4.898-1.026 4.031-19.254 4.899 1.026-1.515 7.234 2.977.623 6.526-6.185 5.275 1.105-8.208 7.642 4.855 11.754-5.501-1.152Zm19.126-12.436c-1.532-.321-2.872.002-4.018.968-1.116.947-1.86 2.311-2.234 4.095-.373 1.783-.239 3.332.404 4.647.642 1.314 1.73 2.132 3.262 2.453a5.056 5.056 0 0 0 2.667-.15c.898-.284 1.963-.861 3.194-1.73l2.672 3.391c-1.648 1.359-3.209 2.239-4.682 2.638-1.443.38-3.044.386-4.802.017-2.939-.615-5.118-2.041-6.538-4.279-1.419-2.237-1.803-4.914-1.151-8.028.653-3.115 2.09-5.41 4.313-6.885 2.223-1.475 4.817-1.902 7.781-1.282 1.632.342 3.016.934 4.151 1.774 1.166.821 2.215 2.011 3.147 3.57l-3.683 2.375c-.805-1.165-1.548-2.002-2.228-2.512a5.36 5.36 0 0 0-2.255-1.062Zm21.092 20.857-3.775-9.207-2.977-.624-1.688 8.064-4.899-1.026 4.032-19.254 4.898 1.025-1.515 7.235 2.977.623 6.526-6.185 5.275 1.104-8.207 7.643 4.854 11.754-5.501-1.152Zm26.629-12.202c1.49 2.278 1.916 4.937 1.28 7.976-.637 3.04-2.097 5.317-4.38 6.832-2.254 1.494-4.837 1.937-7.751 1.327-2.939-.616-5.153-2.063-6.643-4.341-1.459-2.298-1.871-4.967-1.234-8.007.636-3.039 2.081-5.306 4.334-6.801 2.284-1.515 4.895-1.964 7.834-1.349 2.914.61 5.101 2.064 6.56 4.363Zm-13.754 4.829c-.39 1.859-.248 3.435.425 4.73.698 1.3 1.813 2.11 3.346 2.431 1.507.316 2.828.015 3.964-.901 1.161-.91 1.936-2.295 2.325-4.154.384-1.834.227-3.4-.471-4.7-.668-1.32-1.755-2.138-3.262-2.453-1.533-.321-2.882-.014-4.048.922-1.136.916-1.895 2.291-2.279 4.125Zm37.459-2.187 7.046 1.476-4.031 19.254-4.559-.955 1.538-7.347c.279-1.332.78-3.6 1.503-6.804l.361-1.537a78.849 78.849 0 0 1-3.197 5.505l-5.556 9.063-4.371-.915-1.377-10.515c-.41-3.179-.662-5.291-.759-6.334-.442 2.74-.963 5.541-1.563 8.405l-1.538 7.347-4.559-.954 4.031-19.255 7.235 1.515 1.147 8.421c.39 3.019.632 5.311.723 6.877.784-1.487 1.924-3.491 3.422-6.009l4.504-7.238Z"/><rect width="246" height="70.8" x="124.101" y="49.717" fill="#fff" rx="12" transform="rotate(-7.525 124.101 49.717)"/><path fill="#2A2A2A" d="m189.893 67.625-2.058 3.207c-1.149-.756-2.162-1.248-3.039-1.475-.86-.25-1.776-.31-2.748-.181-1.923.254-3.371 1.13-4.342 2.63-.955 1.479-1.284 3.338-.988 5.578.296 2.24 1.099 3.97 2.41 5.19 1.328 1.196 2.934 1.67 4.818 1.42 1.05-.138 1.966-.46 2.746-.967.741-.502 1.659-1.34 2.755-2.513l2.812 2.503c-1.163 1.425-2.353 2.5-3.568 3.226-1.196.722-2.597 1.19-4.203 1.402-3.147.456-5.842-.247-8.086-2.11-2.243-1.861-3.557-4.401-3.941-7.618-.462-3.188.132-5.95 1.78-8.285 1.665-2.359 4.117-3.731 7.354-4.119 1.566-.207 2.987-.142 4.262.194 1.272.316 2.618.955 4.036 1.918Zm18.693 8.939c.304 2.3-.165 4.248-1.407 5.844-1.241 1.596-2.973 2.541-5.193 2.835-2.499.33-4.55-.236-6.156-1.699-1.608-1.482-2.619-3.79-3.033-6.922-.495-3.748-.175-6.675.959-8.781 1.153-2.11 3.417-3.528 6.791-4.256l5.027-1.118.81 3.615-5.001 1.084c-2.192.511-3.684 1.203-4.477 2.074-.773.869-1.128 2.378-1.066 4.529.378-.958 1.018-1.759 1.922-2.403.903-.644 1.94-1.043 3.11-1.197 2.121-.28 3.864.155 5.226 1.307 1.36 1.131 2.189 2.827 2.488 5.088Zm-3.91.637c-.165-1.249-.635-2.206-1.408-2.87-.777-.684-1.74-.95-2.89-.799-1.15.152-2.041.663-2.672 1.534-.612.867-.836 1.916-.674 3.145.176 1.328.661 2.333 1.458 3.015.793.662 1.785.914 2.974.757 1.17-.155 2.042-.653 2.617-1.496.572-.862.77-1.957.595-3.286Zm18.646-.163 2.486 2.092c-.91 1.21-1.87 2.113-2.88 2.71-1.011.598-2.18.985-3.508 1.16-2.439.322-4.478-.145-6.117-1.4-1.618-1.26-2.589-3.108-2.911-5.547-.317-2.4.118-4.454 1.304-6.164s2.939-2.719 5.259-3.025c2.26-.299 4.093.135 5.498 1.301 1.424 1.164 2.295 2.945 2.612 5.344.055.416.102.925.141 1.525l-10.915 1.442c.338 1.186.909 2.069 1.712 2.648.82.558 1.844.755 3.074.593.852-.113 1.556-.357 2.112-.733.595-.381 1.306-1.03 2.133-1.946Zm-9.307-3.34 7.108-.94c-.216-1.02-.669-1.777-1.359-2.27-.674-.517-1.516-.708-2.527-.575-1.963.26-3.037 1.521-3.222 3.785Zm26.309-7.591c1.462 1.3 2.352 3.149 2.669 5.548.317 2.4-.061 4.426-1.133 6.08-1.075 1.636-2.594 2.583-4.557 2.842-2.003.265-3.607-.2-4.814-1.391l.915 6.93-3.866.51-2.715-20.551 3.599-.476.263 1.993c.876-1.77 2.384-2.796 4.526-3.08 1.963-.258 3.667.273 5.113 1.595Zm-1.816 9.62c.561-.941.748-2.126.559-3.553-.188-1.428-.676-2.523-1.463-3.287-.767-.766-1.715-1.075-2.845-.925-1.131.149-1.995.707-2.594 1.674-.601.947-.808 2.124-.622 3.532.188 1.427.686 2.522 1.492 3.282.824.739 1.801 1.034 2.931.884 1.131-.149 1.978-.685 2.542-1.606Zm22.403 1.308-7.658-8.49-3.212.424 1.234 9.339-4.164.55-2.79-21.117 4.164-.55 1.092 8.268 3.272-.432 5.005-9.073 4.729-.625-6.094 10.912 9.181 10.165-4.759.629Zm16.4-15.845c1.684 1.291 2.684 3.136 3.001 5.535.317 2.4-.169 4.45-1.457 6.154-1.27 1.68-3.056 2.673-5.356 2.977-2.32.306-4.321-.186-6.005-1.476-1.666-1.313-2.658-3.17-2.975-5.569-.317-2.399.16-4.439 1.431-6.12 1.288-1.703 3.092-2.708 5.412-3.014 2.3-.304 4.283.2 5.949 1.513Zm-8.866 7.103c.194 1.467.705 2.59 1.534 3.368.849.775 1.878 1.083 3.088.923 1.19-.157 2.084-.719 2.682-1.685.619-.97.831-2.188.637-3.655-.191-1.448-.711-2.56-1.56-3.335-.832-.798-1.842-1.118-3.032-.96-1.21.159-2.122.733-2.738 1.723-.599.966-.802 2.173-.611 3.62Zm26.976-9.465c1.463 1.3 2.353 3.15 2.67 5.548.317 2.4-.061 4.426-1.134 6.081-1.075 1.635-2.594 2.582-4.557 2.842-2.002.264-3.607-.2-4.814-1.392l.916 6.93-3.866.51-2.715-20.55 3.598-.476.264 1.992c.875-1.77 2.384-2.796 4.525-3.079 1.963-.26 3.667.272 5.113 1.594Zm-1.816 9.621c.562-.942.748-2.126.56-3.554-.189-1.427-.676-2.523-1.463-3.287-.767-.766-1.716-1.074-2.846-.925-1.13.15-1.995.707-2.593 1.674-.601.947-.809 2.124-.623 3.532.189 1.428.686 2.522 1.493 3.283.824.738 1.801 1.033 2.931.884 1.13-.15 1.977-.685 2.541-1.607Zm15.406-13.232 3.926-.518-3.627 17.667c-.322 1.535-.847 2.674-1.577 3.416-.709.74-1.757 1.2-3.145 1.384-1.111.146-2.099.146-2.966-.002l.273-2.971c.63.038 1.233.018 1.808-.058 1.19-.157 1.909-.897 2.158-2.221l-7.824-15.247 4.044-.534 1.865 3.808c1.52 3.108 2.545 5.293 3.075 6.554.676-4.043 1.078-6.426 1.204-7.15l.786-4.128Zm13 1.097c-1.21.16-2.111.743-2.705 1.75-.576.983-.771 2.18-.585 3.587.186 1.408.685 2.512 1.497 3.313.812.8 1.822 1.12 3.032.96a3.936 3.936 0 0 0 1.922-.798c.587-.44 1.221-1.14 1.902-2.097l2.84 1.804c-.861 1.425-1.781 2.474-2.761 3.148-.963.652-2.139 1.07-3.527 1.253-2.319.306-4.29-.18-5.911-1.458-1.622-1.279-2.595-3.148-2.92-5.606-.325-2.459.14-4.517 1.393-6.176 1.254-1.658 3.051-2.642 5.39-2.951 1.289-.17 2.459-.093 3.511.232 1.069.303 2.147.907 3.235 1.812l-2.095 2.697c-.892-.648-1.654-1.072-2.286-1.271a4.171 4.171 0 0 0-1.932-.199Z"/><path fill="#005BFF" d="M77.535 244.028c.87-1.82 3.46-1.82 4.33 0l15.017 31.401a2.4 2.4 0 0 0 2.964 1.228l32.822-11.586c1.902-.672 3.733 1.16 3.062 3.062l-11.586 32.822a2.4 2.4 0 0 0 1.228 2.964l31.401 15.016c1.819.87 1.819 3.46 0 4.33l-31.401 15.016a2.4 2.4 0 0 0-1.228 2.964l11.586 32.822c.671 1.902-1.16 3.734-3.062 3.062l-32.822-11.586a2.4 2.4 0 0 0-2.964 1.228l-15.016 31.401c-.87 1.82-3.46 1.82-4.33 0l-15.017-31.401a2.4 2.4 0 0 0-2.964-1.228l-32.822 11.586c-1.902.672-3.733-1.16-3.062-3.062l11.586-32.822a2.4 2.4 0 0 0-1.227-2.964L2.628 323.265c-1.82-.87-1.82-3.46 0-4.33l31.402-15.016a2.4 2.4 0 0 0 1.227-2.964l-11.586-32.822c-.671-1.902 1.16-3.734 3.062-3.062l32.822 11.586a2.4 2.4 0 0 0 2.964-1.228l15.016-31.401Z"/><path fill="#fff" d="M52.575 310.75v3h-5.35v14.75h-3.5v-14.75h-5.35v-3h14.2Zm9.195 13.65 1.825 2c-.883.9-1.775 1.542-2.675 1.925-.9.383-1.908.575-3.025.575-2.05 0-3.683-.608-4.9-1.825-1.2-1.217-1.8-2.85-1.8-4.9 0-2.017.583-3.667 1.75-4.95 1.167-1.283 2.725-1.925 4.675-1.925 1.9 0 3.367.558 4.4 1.675 1.05 1.117 1.575 2.683 1.575 4.7 0 .35-.017.775-.05 1.275H54.37c.15 1.017.525 1.808 1.125 2.375.617.55 1.442.825 2.475.825.717 0 1.325-.125 1.825-.375.533-.25 1.192-.708 1.975-1.375Zm-7.325-3.775h5.975c-.067-.867-.358-1.542-.875-2.025-.5-.5-1.175-.75-2.025-.75-1.65 0-2.675.925-3.075 2.775Zm22.914 7.875h-3.25v-5.35h-4.95v5.35h-3.25v-12.775h3.25v4.8h4.95v-4.8h3.25V328.5Zm13.629-3.7c0 1.267-.517 2.283-1.55 3.05-1.033.767-2.467 1.15-4.3 1.15-2.233 0-4.25-.775-6.05-2.325l1.775-2.075c1.367 1.117 2.8 1.675 4.3 1.675.85 0 1.5-.15 1.95-.45.45-.3.675-.708.675-1.225 0-.5-.2-.85-.6-1.05-.4-.217-1.058-.325-1.975-.325h-2.125v-2.4h2.325c1.4 0 2.1-.467 2.1-1.4 0-.45-.2-.825-.6-1.125-.383-.3-.95-.45-1.7-.45-1.35 0-2.733.55-4.15 1.65l-1.55-2.075c1.767-1.433 3.717-2.15 5.85-2.15 1.4 0 2.642.325 3.725.975 1.083.65 1.625 1.575 1.625 2.775 0 1.35-.7 2.308-2.1 2.875 1.583.533 2.375 1.5 2.375 2.9ZM104 317.2c1.25 1.25 1.875 2.883 1.875 4.9 0 2.017-.625 3.658-1.875 4.925-1.233 1.25-2.816 1.875-4.75 1.875-1.95 0-3.55-.625-4.8-1.875-1.233-1.267-1.85-2.908-1.85-4.925s.617-3.65 1.85-4.9c1.25-1.267 2.85-1.9 4.8-1.9 1.934 0 3.517.633 4.75 1.9Zm-8.1 4.9c0 1.233.3 2.217.9 2.95.617.733 1.433 1.1 2.45 1.1 1 0 1.8-.367 2.4-1.1.617-.733.925-1.717.925-2.95 0-1.217-.308-2.192-.925-2.925-.6-.75-1.4-1.125-2.4-1.125-1.017 0-1.833.375-2.45 1.125-.6.733-.9 1.708-.9 2.925Zm23.32-4.875c1.066 1.233 1.6 2.858 1.6 4.875s-.534 3.65-1.6 4.9c-1.067 1.233-2.425 1.85-4.075 1.85-1.684 0-2.959-.558-3.825-1.675V333h-3.25v-17.275h3.025v1.675c.916-1.367 2.275-2.05 4.075-2.05 1.65 0 3 .625 4.05 1.875Zm-2.55 7.75c.566-.717.85-1.675.85-2.875s-.284-2.158-.85-2.875c-.55-.717-1.3-1.075-2.25-1.075s-1.725.367-2.325 1.1c-.6.717-.9 1.667-.9 2.85 0 1.2.291 2.158.875 2.875.6.7 1.375 1.05 2.325 1.05.95 0 1.708-.35 2.275-1.05Z"/><path stroke="#fff" stroke-width="1.2" d="m62.268 145.062 2.46 10.425a2.4 2.4 0 0 0 1.785 1.785l10.425 2.46c1.233.291 1.233 2.045 0 2.336l-10.425 2.46a2.4 2.4 0 0 0-1.785 1.785l-2.46 10.425c-.29 1.233-2.045 1.233-2.336 0l-2.46-10.425a2.4 2.4 0 0 0-1.785-1.785l-10.425-2.46c-1.232-.291-1.232-2.045 0-2.336l10.425-2.46a2.4 2.4 0 0 0 1.785-1.785l2.46-10.425c.291-1.233 2.045-1.233 2.336 0Z"/><path fill="#fff" stroke="#fff" stroke-width="1.2" d="m333.468 351.462 2.46 10.426c.209.885.9 1.576 1.785 1.784l10.425 2.46c1.233.291 1.233 2.045 0 2.336l-10.425 2.46c-.885.209-1.576.9-1.785 1.785l-2.46 10.425c-.291 1.233-2.045 1.233-2.336 0l-2.46-10.425a2.398 2.398 0 0 0-1.784-1.785l-10.426-2.46c-1.232-.291-1.232-2.045 0-2.336l10.426-2.46a2.396 2.396 0 0 0 1.784-1.784l2.46-10.426c.291-1.232 2.045-1.232 2.336 0Z"/><circle cx="481.7" cy="17.5" r="15.6" stroke="#fff" stroke-width="2.4"/><defs><filter id="a" width="413.28" height="337.611" x="51.148" y="31.896" color-interpolation-filters="sRGB" filterUnits="userSpaceOnUse"><feFlood flood-opacity="0" result="BackgroundImageFix"/><feColorMatrix in="SourceAlpha" result="hardAlpha" values="0 0 0 0 0 0 0 0 0 0 0 0 0 0 0 0 0 0 127 0"/><feOffset dy="4.8"/><feGaussianBlur stdDeviation="2.4"/><feComposite in2="hardAlpha" operator="out"/><feColorMatrix values="0 0 0 0 0 0 0 0 0 0 0 0 0 0 0 0 0 0 0.25 0"/><feBlend in2="BackgroundImageFix" result="effect1_dropShadow_331_13066"/><feBlend in="SourceGraphic" in2="effect1_dropShadow_331_13066" result="shape"/></filter><filter id="b" width="389.669" height="315.981" x="73.553" y="34.777" color-interpolation-filters="sRGB" filterUnits="userSpaceOnUse"><feFlood flood-opacity="0" result="BackgroundImageFix"/><feColorMatrix in="SourceAlpha" result="hardAlpha" values="0 0 0 0 0 0 0 0 0 0 0 0 0 0 0 0 0 0 127 0"/><feOffset dy="4.8"/><feGaussianBlur stdDeviation="2.4"/><feComposite in2="hardAlpha" operator="out"/><feColorMatrix values="0 0 0 0 0 0 0 0 0 0 0 0 0 0 0 0 0 0 0.25 0"/><feBlend in2="BackgroundImageFix" result="effect1_dropShadow_331_13066"/><feBlend in="SourceGraphic" in2="effect1_dropShadow_331_13066" result="shape"/></filter></defs></svg>