<svg xmlns="http://www.w3.org/2000/svg" width="256" height="279" fill="none"><g filter="url(#a)"><path stroke="#fff" stroke-width="1.234" d="M169.001 204.031c-30.614 31.714-62.014 53.556-88.017 63.248-13.002 4.847-24.63 6.647-34.125 5.15-9.492-1.497-16.82-6.281-21.297-14.561-4.477-8.281-5.727-19.361-4.089-32.388 1.64-13.032 6.165-27.966 13.19-43.866 14.05-31.799 38.042-67.34 68.657-99.055 30.615-31.715 62.015-53.556 88.017-63.249 13.002-4.846 24.63-6.646 34.125-5.149 9.492 1.497 16.82 6.28 21.297 14.561 4.478 8.28 5.728 19.36 4.089 32.388-1.639 13.032-6.165 27.966-13.19 43.866-14.05 31.799-38.042 67.34-68.657 99.055Z" shape-rendering="crispEdges"/></g><g filter="url(#b)"><path stroke="#fff" stroke-width="1.234" d="M171.478 191.049c-28.958 29.999-58.456 51.033-82.722 60.807-12.135 4.887-22.935 6.948-31.694 5.931-8.758-1.017-15.432-5.103-19.405-12.45-3.973-7.347-4.923-17.362-3.159-29.279 1.765-11.92 6.238-25.681 13.047-40.418 13.616-29.471 36.513-62.713 65.471-92.711 28.958-30 58.456-51.034 82.722-60.808 12.135-4.887 22.935-6.948 31.695-5.93 8.757 1.017 15.432 5.102 19.404 12.45 3.973 7.346 4.923 17.362 3.159 29.279-1.764 11.92-6.238 25.68-13.047 40.418-13.616 29.47-36.513 62.712-65.471 92.711Z" shape-rendering="crispEdges"/></g><ellipse cx="199.77" cy="154.125" fill="#00BEA2" rx="57.126" ry="18.818" transform="rotate(11.826 199.77 154.125)"/><path fill="#fff" d="m177.306 142.946-.413 1.973-3.52-.736-2.031 9.702-2.302-.482 2.031-9.703-3.519-.736.413-1.974 9.341 1.956Zm5.918 7.505-1.187 5.673-1.925-.403.183-.871c-.72.65-1.705.845-2.955.583-.899-.188-1.584-.549-2.056-1.083-.461-.531-.611-1.181-.45-1.948.176-.844.62-1.432 1.33-1.764.711-.332 1.685-.477 2.924-.435l2.049.051.041-.197c.085-.406.008-.748-.231-1.027-.226-.288-.585-.483-1.079-.587-.537-.112-.997-.1-1.381.037-.445.159-.952.419-1.519.781l-1.091-1.516c1.328-1.038 2.77-1.394 4.327-1.068 1.162.243 2.005.7 2.528 1.37.523.671.688 1.472.492 2.404Zm-2.51 1.826.103-.494h-1.476c-.791.006-1.372.074-1.742.202-.357.12-.572.355-.646.706a.741.741 0 0 0 .198.694c.201.191.504.328.909.413.658.138 1.231.081 1.719-.172.487-.253.799-.702.935-1.349Zm9.045 5.464-1.648-4.018-1.299-.272-.737 3.519-2.138-.448 1.76-8.403 2.137.447-.661 3.158 1.299.272 2.849-2.7 2.302.482-3.582 3.336 2.119 5.13-2.401-.503Zm8.347-5.427c-.669-.14-1.253 0-1.753.422-.487.413-.812 1.009-.975 1.787-.163.779-.105 1.455.176 2.028.28.574.755.931 1.424 1.071a2.21 2.21 0 0 0 1.163-.065c.393-.124.857-.376 1.395-.756l1.166 1.48c-.719.594-1.401.978-2.044 1.152-.629.166-1.328.168-2.095.007-1.283-.268-2.234-.891-2.854-1.867-.619-.977-.787-2.145-.502-3.504.285-1.36.912-2.361 1.882-3.005.97-.644 2.102-.83 3.396-.559.713.149 1.317.407 1.812.774.509.358.966.877 1.373 1.558l-1.607 1.036c-.352-.508-.676-.874-.972-1.096a2.335 2.335 0 0 0-.985-.463Zm9.206 9.102-1.648-4.018-1.299-.272-.737 3.519-2.138-.448 1.76-8.403 2.138.448-.661 3.157 1.299.272 2.848-2.699 2.302.482-3.582 3.335 2.119 5.13-2.401-.503Zm11.622-5.325c.65.994.836 2.155.558 3.481-.277 1.327-.915 2.321-1.911 2.982-.984.652-2.111.845-3.383.579-1.283-.269-2.249-.9-2.899-1.895-.637-1.003-.817-2.168-.539-3.494.278-1.327.908-2.316 1.892-2.969.997-.661 2.136-.857 3.419-.588 1.272.266 2.226.901 2.863 1.904Zm-6.003 2.107c-.17.812-.108 1.5.186 2.065.304.567.791.921 1.46 1.061.658.138 1.234.007 1.73-.393.507-.398.845-1.002 1.015-1.813.167-.801.099-1.484-.206-2.052-.291-.576-.766-.933-1.424-1.07-.668-.14-1.257-.006-1.766.402-.496.4-.828 1-.995 1.8Zm16.349-.954 3.075.644-1.759 8.403-1.99-.416.671-3.207c.122-.581.341-1.571.656-2.97l.158-.67c-.4.763-.865 1.564-1.396 2.402l-2.424 3.956-1.908-.4-.601-4.589a95.876 95.876 0 0 1-.331-2.764 81.42 81.42 0 0 1-.682 3.668l-.672 3.207-1.99-.417 1.76-8.403 3.157.661.501 3.675c.17 1.318.276 2.318.316 3.002.342-.65.839-1.524 1.493-2.623l1.966-3.159Z"/><rect width="126.458" height="36.395" x="63.538" y="47.289" fill="#fff" rx="6.169" transform="rotate(-7.525 63.538 47.29)"/><path fill="#2A2A2A" d="m97.374 56.614-1.057 1.648c-.591-.388-1.112-.64-1.563-.758a3.414 3.414 0 0 0-1.412-.093c-.989.13-1.733.581-2.233 1.353-.49.76-.66 1.715-.507 2.867.152 1.151.565 2.04 1.239 2.667.682.615 1.508.859 2.476.73a3.367 3.367 0 0 0 1.412-.497c.381-.258.853-.688 1.416-1.291l1.446 1.286c-.598.733-1.21 1.285-1.834 1.658-.615.372-1.335.612-2.16.721-1.619.235-3.004-.127-4.157-1.084-1.154-.957-1.829-2.263-2.027-3.917-.237-1.638.068-3.058.915-4.258.857-1.213 2.117-1.919 3.78-2.118.806-.106 1.536-.073 2.192.1.654.162 1.345.491 2.074.986Zm9.61 4.595c.156 1.182-.085 2.184-.723 3.004-.639.82-1.529 1.307-2.67 1.457-1.284.17-2.339-.12-3.164-.873-.827-.762-1.347-1.948-1.56-3.558-.254-1.927-.09-3.431.493-4.514.593-1.084 1.757-1.814 3.491-2.188l2.584-.575.417 1.859-2.571.557c-1.127.263-1.894.618-2.301 1.066-.398.447-.58 1.223-.548 2.328.194-.492.523-.904.988-1.235a3.494 3.494 0 0 1 1.598-.615c1.091-.144 1.986.08 2.687.671.699.582 1.125 1.454 1.279 2.616Zm-2.01.328c-.085-.642-.326-1.134-.724-1.476-.399-.352-.894-.488-1.486-.41-.591.078-1.049.34-1.373.788-.315.446-.43.985-.347 1.617.091.683.34 1.2.75 1.55.407.34.917.47 1.529.389.601-.08 1.05-.336 1.345-.77.294-.442.396-1.006.306-1.688Zm9.585-.084 1.278 1.075c-.468.622-.961 1.087-1.481 1.394-.519.307-1.12.505-1.803.596-1.254.165-2.302-.075-3.144-.72-.832-.648-1.331-1.598-1.497-2.852-.163-1.233.061-2.29.67-3.168.61-.88 1.511-1.398 2.704-1.555 1.162-.154 2.104.07 2.826.669.732.598 1.18 1.513 1.343 2.747.028.214.052.475.072.783l-5.611.742c.174.61.468 1.063.88 1.361.422.287.949.388 1.58.305.439-.058.801-.184 1.086-.377.306-.196.672-.53 1.097-1Zm-4.785-1.717 3.654-.483c-.11-.525-.343-.914-.698-1.168-.346-.265-.779-.363-1.299-.295-1.009.133-1.561.782-1.657 1.946Zm13.525-3.902c.752.668 1.209 1.618 1.372 2.852.163 1.233-.031 2.275-.583 3.126-.552.84-1.333 1.327-2.342 1.46-1.03.136-1.855-.102-2.475-.715l.471 3.562-1.988.263-1.395-10.565 1.85-.244.135 1.024c.45-.91 1.226-1.438 2.326-1.583 1.009-.133 1.886.14 2.629.82Zm-.934 4.945c.289-.484.385-1.093.288-1.827-.097-.734-.348-1.297-.752-1.69-.395-.393-.882-.552-1.463-.475a1.769 1.769 0 0 0-1.333.86c-.309.487-.416 1.093-.32 1.816.097.734.353 1.297.767 1.688.424.38.926.53 1.507.454.581-.077 1.016-.352 1.306-.826Zm11.517.672-3.937-4.364-1.651.218.634 4.8-2.14.283-1.434-10.855 2.14-.283.562 4.25 1.681-.221 2.573-4.665 2.431-.321-3.132 5.61 4.719 5.225-2.446.323Zm8.43-8.145c.866.664 1.38 1.612 1.543 2.845.163 1.234-.087 2.288-.749 3.164-.653.864-1.571 1.374-2.753 1.53-1.193.158-2.222-.095-3.087-.759-.857-.675-1.367-1.629-1.529-2.862-.163-1.233.082-2.282.735-3.146.662-.876 1.589-1.393 2.782-1.55 1.182-.156 2.202.103 3.058.778Zm-4.557 3.651c.099.754.362 1.332.788 1.732.437.398.966.556 1.588.474.611-.08 1.071-.37 1.378-.866.318-.498.427-1.125.328-1.88-.099-.743-.366-1.315-.802-1.713-.428-.41-.947-.575-1.559-.494-.622.082-1.091.377-1.407.886-.308.497-.413 1.117-.314 1.861Zm13.867-4.865c.752.668 1.209 1.619 1.372 2.852.163 1.233-.031 2.275-.582 3.126-.553.84-1.334 1.327-2.343 1.46-1.03.136-1.854-.102-2.475-.715l.471 3.562-1.988.263-1.395-10.565 1.85-.244.135 1.024c.45-.91 1.226-1.437 2.327-1.582 1.009-.134 1.885.14 2.628.819Zm-.934 4.946c.289-.485.385-1.093.288-1.827-.097-.734-.348-1.297-.752-1.69-.394-.394-.882-.552-1.463-.476a1.769 1.769 0 0 0-1.333.86c-.309.488-.416 1.093-.32 1.817.097.733.353 1.296.767 1.687.424.38.926.531 1.507.454.581-.076 1.016-.352 1.306-.825Zm7.92-6.802 2.018-.267-1.865 9.082c-.165.79-.435 1.375-.81 1.756-.365.38-.904.617-1.617.711-.571.076-1.079.075-1.525 0l.141-1.528c.324.02.634.01.929-.03.612-.08.982-.46 1.109-1.141l-4.022-7.838 2.08-.275.958 1.958c.782 1.598 1.309 2.72 1.581 3.37.348-2.08.554-3.304.619-3.676l.404-2.122Zm6.682.564c-.621.082-1.085.382-1.39.899-.296.506-.396 1.12-.301 1.844.096.724.352 1.291.77 1.703.417.411.937.576 1.558.494a2.02 2.02 0 0 0 .988-.41c.302-.227.628-.587.978-1.079l1.46.927c-.442.733-.915 1.273-1.419 1.62-.495.334-1.1.549-1.813.643-1.193.157-2.206-.092-3.039-.75-.834-.657-1.334-1.617-1.501-2.881-.167-1.264.072-2.323.716-3.175.645-.853 1.568-1.358 2.771-1.517.663-.088 1.264-.048 1.805.12.549.155 1.104.465 1.663.93l-1.077 1.387c-.459-.333-.851-.551-1.175-.653a2.147 2.147 0 0 0-.994-.102Z"/><path fill="#005BFF" d="M40.6 125.175c.448-.935 1.78-.935 2.227 0l7.719 16.142c.272.569.929.841 1.523.631l16.873-5.956c.977-.345 1.919.597 1.574 1.574l-5.956 16.873c-.21.594.062 1.252.631 1.524l16.142 7.719c.935.447.935 1.778 0 2.226l-16.142 7.719a1.233 1.233 0 0 0-.631 1.523l5.956 16.873c.345.977-.597 1.919-1.574 1.574l-16.873-5.956a1.233 1.233 0 0 0-1.523.631l-7.72 16.142c-.447.935-1.778.935-2.225 0l-7.72-16.142a1.233 1.233 0 0 0-1.523-.631l-16.873 5.956c-.977.345-1.919-.597-1.574-1.574l5.956-16.873a1.233 1.233 0 0 0-.63-1.523l-16.143-7.719c-.935-.448-.935-1.779 0-2.226l16.142-7.719c.569-.272.841-.93.631-1.524l-5.956-16.873c-.345-.977.597-1.919 1.574-1.574l16.873 5.956a1.233 1.233 0 0 0 1.524-.631l7.719-16.142Z"/><path fill="#fff" d="M27.77 158.651v1.542h-2.75v7.582h-1.8v-7.582h-2.75v-1.542h7.3Zm4.726 7.017.938 1.028c-.454.463-.912.792-1.375.989a3.932 3.932 0 0 1-1.555.296c-1.053 0-1.893-.313-2.519-.938-.616-.626-.925-1.465-.925-2.519 0-1.037.3-1.885.9-2.545.6-.659 1.4-.989 2.403-.989.977 0 1.73.287 2.262.861.54.574.81 1.379.81 2.416 0 .18-.01.398-.026.655h-4.717c.077.523.27.93.578 1.221.317.283.742.424 1.273.424.368 0 .681-.064.938-.192.274-.129.613-.365 1.015-.707Zm-3.765-1.941h3.071c-.034-.445-.184-.792-.45-1.041-.257-.257-.604-.385-1.04-.385-.849 0-1.376.475-1.581 1.426Zm11.779 4.048h-1.671v-2.75h-2.545v2.75h-1.67v-6.567h1.67v2.468h2.545v-2.468h1.67v6.567Zm7.006-1.902c0 .652-.266 1.174-.797 1.568-.531.394-1.268.591-2.21.591-1.148 0-2.185-.398-3.11-1.195l.912-1.066c.703.574 1.44.861 2.21.861.438 0 .772-.077 1.003-.232a.72.72 0 0 0 .347-.629c0-.257-.103-.437-.309-.54-.205-.112-.543-.167-1.015-.167h-1.092v-1.234h1.195c.72 0 1.08-.24 1.08-.72 0-.231-.103-.424-.309-.578-.197-.154-.488-.231-.874-.231-.694 0-1.405.282-2.133.848l-.797-1.067c.908-.737 1.91-1.105 3.007-1.105.72 0 1.358.167 1.915.501.557.334.836.81.836 1.427 0 .694-.36 1.186-1.08 1.478.814.274 1.22.771 1.22 1.49Zm6.69-3.906c.642.642.963 1.482.963 2.518 0 1.037-.321 1.881-.963 2.532-.635.643-1.448.964-2.442.964-1.003 0-1.825-.321-2.468-.964-.634-.651-.95-1.495-.95-2.532 0-1.036.316-1.876.95-2.518.643-.652 1.465-.977 2.468-.977.994 0 1.807.325 2.441.977Zm-4.164 2.518c0 .634.154 1.14.462 1.517.317.377.737.565 1.26.565.514 0 .925-.188 1.233-.565.317-.377.476-.883.476-1.517 0-.625-.159-1.126-.476-1.503-.308-.386-.72-.578-1.233-.578-.523 0-.943.192-1.26.578-.308.377-.462.878-.462 1.503Zm11.987-2.506c.548.634.823 1.47.823 2.506 0 1.037-.275 1.877-.823 2.519-.548.634-1.247.951-2.095.951-.865 0-1.52-.287-1.966-.861v2.995h-1.67v-8.881h1.554v.861c.472-.702 1.17-1.053 2.095-1.053.848 0 1.542.321 2.082.963Zm-1.31 3.984c.29-.368.436-.861.436-1.478 0-.616-.145-1.109-.437-1.477-.283-.369-.668-.553-1.156-.553-.489 0-.887.188-1.196.565-.308.369-.462.857-.462 1.465 0 .617.15 1.11.45 1.478a1.5 1.5 0 0 0 1.195.54c.488 0 .878-.18 1.17-.54Z"/><path stroke="#fff" stroke-width=".617" d="m31.752 74.302 1.265 5.36c.107.454.462.81.917.917l5.36 1.265c.633.15.633 1.05 0 1.2l-5.36 1.265c-.454.107-.81.463-.917.917l-1.265 5.36c-.15.633-1.05.633-1.2 0l-1.265-5.36a1.234 1.234 0 0 0-.917-.917l-5.36-1.265c-.633-.15-.633-1.05 0-1.2l5.36-1.265c.454-.107.81-.463.917-.917l1.265-5.36c.15-.633 1.05-.633 1.2 0Z"/><path fill="#fff" stroke="#fff" stroke-width=".617" d="m200.629 234.887 1.265 5.36c.107.454.462.81.917.917l5.36 1.265c.633.149.633 1.051 0 1.2l-5.36 1.265c-.455.107-.81.462-.917.917l-1.265 5.36c-.149.633-1.051.633-1.2 0l-1.265-5.36a1.233 1.233 0 0 0-.917-.917l-5.36-1.265c-.633-.149-.633-1.051 0-1.2l5.36-1.265c.454-.107.81-.463.917-.917l1.265-5.36c.149-.633 1.051-.633 1.2 0Z"/><circle cx="247.364" cy="8.728" r="8.019" stroke="#fff" stroke-width="1.234"/><defs><filter id="a" width="236.727" height="265.63" x="17.797" y="12.947" color-interpolation-filters="sRGB" filterUnits="userSpaceOnUse"><feFlood flood-opacity="0" result="BackgroundImageFix"/><feColorMatrix in="SourceAlpha" result="hardAlpha" values="0 0 0 0 0 0 0 0 0 0 0 0 0 0 0 0 0 0 127 0"/><feOffset dy="2.467"/><feGaussianBlur stdDeviation="1.234"/><feComposite in2="hardAlpha" operator="out"/><feColorMatrix values="0 0 0 0 0 0 0 0 0 0 0 0 0 0 0 0 0 0 0.25 0"/><feBlend in2="BackgroundImageFix" result="effect1_dropShadow_332_13127"/><feBlend in="SourceGraphic" in2="effect1_dropShadow_332_13127" result="shape"/></filter><filter id="b" width="223.17" height="248.44" x="30.661" y="15.236" color-interpolation-filters="sRGB" filterUnits="userSpaceOnUse"><feFlood flood-opacity="0" result="BackgroundImageFix"/><feColorMatrix in="SourceAlpha" result="hardAlpha" values="0 0 0 0 0 0 0 0 0 0 0 0 0 0 0 0 0 0 127 0"/><feOffset dy="2.467"/><feGaussianBlur stdDeviation="1.234"/><feComposite in2="hardAlpha" operator="out"/><feColorMatrix values="0 0 0 0 0 0 0 0 0 0 0 0 0 0 0 0 0 0 0.25 0"/><feBlend in2="BackgroundImageFix" result="effect1_dropShadow_332_13127"/><feBlend in="SourceGraphic" in2="effect1_dropShadow_332_13127" result="shape"/></filter></defs></svg>