<svg width="186" height="50" viewBox="0 0 186 50" fill="none" xmlns="http://www.w3.org/2000/svg">
<g clip-path="url(#clip0_228_15028)">
<path d="M39.9118 0H13.0703L23.1812 10.8415C23.4082 10.827 23.6376 10.8204 23.8682 10.8204C26.1669 10.8153 28.4216 11.4996 30.3801 12.7967C32.3386 14.0937 33.9236 15.9524 34.9581 18.1648C35.1556 18.1503 35.3556 18.1437 35.5567 18.1437C37.2153 18.1411 38.8415 18.637 40.2528 19.576C41.6642 20.5149 42.8043 21.8595 43.5455 23.4587L46.7214 20.0581V7.66839C46.6905 5.70538 45.9729 3.82737 44.712 2.41025C43.4467 0.989969 41.7347 0.130364 39.9118 0Z" fill="#00B4FF"/>
<path d="M43.5432 23.4593L30.6328 37.2849L42.0159 49.4709C43.3807 48.9228 44.5603 47.9435 45.4006 46.6612C46.2409 45.379 46.7026 43.8534 46.7255 42.2839V20.0547L43.5432 23.4593Z" fill="#FF6E6E"/>
<path d="M5.18409 32.7902C4.83985 31.887 4.66354 30.92 4.66517 29.9436C4.66517 25.8873 7.64497 22.5992 11.3191 22.5992C11.405 22.5992 11.4896 22.5992 11.5743 22.5992C11.899 19.4779 13.2441 16.5834 15.3686 14.4337C17.5037 12.2814 20.2748 11.0099 23.1941 10.8427L13.0783 0.0078125H6.86598C5.01774 0.13158 3.28195 1.0067 2.00924 2.45641C0.742487 3.90115 0.0374456 5.81405 0.0390653 7.8018V38.3021L5.18409 32.7902Z" fill="#23D3FF"/>
<path d="M30.6266 37.2843H11.3113C10.3072 37.2856 9.31661 37.0359 8.41737 36.5544C6.94923 35.7642 5.79742 34.4261 5.17627 32.7891L0.03125 38.2997V42.1669C0.0341226 43.7142 0.46318 45.2258 1.26404 46.51C2.0649 47.7942 3.2015 48.7933 4.52978 49.3805C5.41612 49.7744 6.36559 49.9769 7.32432 49.9768H39.4322C40.3121 49.9765 41.1847 49.8058 42.0085 49.473L30.6266 37.2843Z" fill="#00F5D0"/>
<path d="M46.6978 7.66839C46.666 5.70387 45.9475 3.82465 44.6859 2.40628C43.4174 0.985295 41.7016 0.126976 39.8757 0H6.82201C4.97608 0.126695 3.24327 1.00258 1.97263 2.45124C0.70769 3.89425 0.00204433 5.80356 0 7.7887V42.1761C0.00125276 43.2015 0.190595 44.2165 0.557135 45.1626C0.923676 46.1088 1.46018 46.9676 2.13579 47.6894C3.50606 49.1545 5.358 49.9767 7.28817 49.9767H39.4047C40.2845 49.9764 41.1571 49.8059 41.9809 49.473H41.9895C43.3543 48.925 44.5337 47.9455 45.3732 46.6628C46.2126 45.3802 46.6731 43.854 46.6941 42.2845V7.66839H46.6978Z" fill="url(#paint0_radial_228_15028)"/>
<path d="M43.586 23.4718C42.8454 21.8724 41.7055 20.5275 40.2944 19.5883C38.8834 18.649 37.2571 18.1528 35.5986 18.1555C35.3974 18.1555 35.1975 18.1634 35.0011 18.1765C33.9672 15.9633 32.3821 14.1036 30.4234 12.8058C28.4645 11.508 26.2094 10.8233 23.9101 10.8282C23.6758 10.8282 23.4524 10.8282 23.2242 10.8493C20.3034 11.0196 17.5319 12.296 15.3988 14.4535C13.2745 16.6028 11.9295 19.4969 11.6044 22.6176C11.5198 22.6176 11.4351 22.611 11.3493 22.611C7.66899 22.611 4.69533 25.8992 4.69533 29.9555C4.69322 30.9323 4.86954 31.9 5.21425 32.8034C5.83553 34.4406 6.98725 35.7792 8.45534 36.5701C9.35487 37.0504 10.3454 37.2999 11.3493 37.2986H30.6756L43.5872 23.4731L43.586 23.4718Z" fill="white"/>
<path fill-rule="evenodd" clip-rule="evenodd" d="M39.5892 22.5167C40.9727 22.4944 42.3419 22.8199 43.5884 23.4673L30.6719 37.2928V31.6354H30.6842C30.7886 29.1768 31.7726 26.8572 33.4296 25.1636C35.0928 23.4643 37.2976 22.5178 39.5892 22.5194V22.5167Z" fill="#FFD12F"/>
<path d="M69.2389 25.166L76.1234 15.0836H78.2432V35.065H75.9084V19.533V19.3572L75.8105 19.4984L69.4094 28.7199H68.8728L62.2838 19.4978L62.1862 19.3612V19.533V35.065H59.8516V15.0836H62.0256L69.1517 25.1667L69.1958 25.2291L69.2389 25.166ZM109.915 20.2516H111.929V35.065H109.782V23.9545V23.7913L109.686 23.9178L101.19 35.065H99.2031V20.2516H101.35V31.3907V31.5548L101.446 31.4273L109.915 20.2516ZM146.243 35.4103V40.8072H144.097V35.4103V35.352H144.042H143.881C141.517 35.352 139.658 34.5382 138.391 33.1765C137.124 31.8144 136.444 29.8992 136.444 27.6869C136.444 23.6394 139.134 19.9932 143.854 19.9932H144.042H144.097V19.935V14.2223H146.243V19.935V19.9932H146.298H146.512C148.782 19.9932 150.634 20.8209 151.918 22.1941C153.202 23.5674 153.923 25.49 153.923 27.6869C153.923 29.8992 153.243 31.8144 151.972 33.1763C150.701 34.5382 148.837 35.352 146.458 35.352H146.298H146.243V35.4103ZM144.042 33.1714H144.097V33.1133V22.2319V22.1738H144.042H143.854C142.164 22.1738 140.88 22.7598 140.019 23.7462C139.158 24.7319 138.724 26.1111 138.724 27.6869C138.724 29.3343 139.165 30.7069 140.032 31.6679C140.9 32.6293 142.192 33.1714 143.881 33.1714H144.042ZM146.298 22.1738H146.243V22.2319V33.1133V33.1714H146.298H146.458C148.188 33.1714 149.486 32.6368 150.351 31.6787C151.215 30.7209 151.641 29.3481 151.641 27.6869C151.641 26.1537 151.202 24.7746 150.331 23.7786C149.46 22.7816 148.163 22.1738 146.458 22.1738H146.298ZM167.719 20.2516H169.733V35.065H167.587V23.9545V23.7913L167.49 23.9178L158.995 35.065H157.007V20.2516H159.154V31.3907V31.5548L159.251 31.4273L167.719 20.2516ZM81.3414 27.6295C81.3414 25.3755 82.0884 23.4456 83.3761 22.0794C84.6639 20.7131 86.4957 19.907 88.6711 19.907C90.8601 19.907 92.7054 20.7132 94.0032 22.0795C95.3009 23.4459 96.0546 25.3756 96.0546 27.6295C96.0546 29.8691 95.301 31.7917 94.0032 33.1544C92.7054 34.5172 90.8601 35.3234 88.6711 35.3234C84.3773 35.3234 81.3414 32.1043 81.3414 27.6295ZM83.6225 27.6295C83.6225 30.8468 85.7127 33.1714 88.6711 33.1714C90.1743 33.1714 91.4507 32.6137 92.3514 31.6397C93.2522 30.6657 93.7734 29.2794 93.7734 27.6295C93.7734 24.2957 91.5742 22.0589 88.6711 22.0589C87.2214 22.0589 85.9584 22.6097 85.0578 23.5834C84.1572 24.5573 83.6225 25.9508 83.6225 27.6295ZM108.171 13.8203H110.182C110.142 15.0977 109.655 16.1306 108.883 16.8478C108.099 17.5766 107.018 17.982 105.808 17.982C104.502 17.982 103.395 17.5901 102.611 16.8692C101.84 16.1596 101.378 15.1267 101.352 13.8203H103.365C103.389 14.4974 103.608 15.0806 104.011 15.498C104.426 15.9269 105.032 16.1746 105.808 16.1746C106.558 16.1746 107.15 15.9266 107.554 15.4974C107.948 15.0802 108.159 14.4973 108.171 13.8203ZM115.35 25.0742C115.35 19.2777 119.514 14.8252 124.854 14.8252C130.114 14.8252 134.332 19.1062 134.332 25.0742C134.332 30.9565 130.114 35.3234 124.854 35.3234C119.567 35.3234 115.35 31.0422 115.35 25.0742ZM117.792 25.0742C117.792 29.6707 121.011 32.9418 124.854 32.9418C128.833 32.9418 131.89 29.6696 131.89 25.0742C131.89 20.4489 128.644 17.2068 124.854 17.2068C120.984 17.2068 117.792 20.4491 117.792 25.0742ZM180.461 33.1714C182.152 33.1714 183.525 32.2632 184.395 30.8985L185.922 32.0686C184.848 34.1974 182.446 35.3234 180.246 35.3234C178.043 35.3234 176.191 34.5738 174.89 33.24C173.59 31.9065 172.837 29.9844 172.837 27.6295C172.837 23.2679 175.739 19.907 180.112 19.907C182.574 19.907 184.765 21.0861 185.706 22.8739L184.045 24.0762C183.565 23.3899 183.031 22.8881 182.406 22.5566C181.764 22.2181 181.032 22.0589 180.166 22.0589C177.262 22.0589 175.117 24.3833 175.117 27.6295C175.117 29.28 175.653 30.6665 176.59 31.6406C177.528 32.6144 178.865 33.1714 180.461 33.1714Z" fill="black" stroke="black" stroke-width="0.108346"/>
</g>
<defs>
<radialGradient id="paint0_radial_228_15028" cx="0" cy="0" r="1" gradientUnits="userSpaceOnUse" gradientTransform="translate(23.331 25.455) scale(23.344 24.9923)">
<stop stop-color="#261C38" stop-opacity="0.6"/>
<stop offset="0.28" stop-color="#261C38" stop-opacity="0.3"/>
<stop offset="0.86" stop-color="#302640" stop-opacity="0.05"/>
<stop offset="1" stop-color="#302640" stop-opacity="0"/>
</radialGradient>
<clipPath id="clip0_228_15028">
<rect width="186" height="50" fill="white"/>
</clipPath>
</defs>
</svg>
