<svg width="169" height="50" viewBox="0 0 169 50" fill="none" xmlns="http://www.w3.org/2000/svg">
<path d="M158.44 0L154.858 16.1311C154.293 18.6038 153.916 20.9521 153.412 24.3513H153.098C152.595 20.9521 152.218 18.6038 151.652 16.1311L148.07 0H136.82L147.63 34.9814V50H158.189V34.9814L168.998 0H158.44Z" fill="#FF2038"/>
<path d="M122.052 16.1311C121.487 18.6038 121.11 20.9521 120.606 24.3513H120.292C119.79 20.9521 119.412 18.6038 118.846 16.1311L115.265 0H104.016L114.826 34.9814V50H125.385V34.9814L136.193 0H125.634L122.052 16.1311Z" fill="#FF2038"/>
<path d="M24.5114 0H10.4328L0 50H10.6846L12.4744 38.6898H22.03L23.8198 50H34.9442L24.5114 0ZM13.7653 30.5313L16.1522 15.4511C16.5293 13.1028 16.7811 10.8161 17.0944 7.60172H17.4088C17.7233 10.8161 17.9739 13.1028 18.351 15.4511L20.7379 30.5313H13.7653Z" fill="#FF2038"/>
<path d="M61.2193 23.4236V23.362C64.8651 22.1263 67.4411 18.4178 67.4411 13.1028C67.4411 5.06743 62.7904 0 52.86 0H38.7188V50H53.7396C63.9217 50 68.5724 44.5617 68.5724 35.5382C68.5724 28.6154 65.682 24.9686 61.2193 23.4236ZM49.0262 7.23088H51.9178C55.3119 7.23088 57.0083 9.14671 57.0083 14.0293C57.0083 18.9119 55.3119 20.8277 51.9178 20.8277H49.0262V7.23088ZM52.7974 42.7691H49.0262V27.8121H52.7974C56.2541 27.8121 57.8252 29.9756 57.8252 35.2906C57.8252 40.6057 56.2541 42.7691 52.7974 42.7691Z" fill="#FF2038"/>
<path d="M96.2817 23.4236V23.362C99.9276 22.1263 102.504 18.4178 102.504 13.1028C102.504 5.06743 97.8529 0 87.9225 0H73.7812V50H88.8021C98.9842 50 103.635 44.5617 103.635 35.5382C103.635 28.6154 100.744 24.9686 96.2817 23.4236ZM84.0887 7.23088H86.9803C90.3744 7.23088 92.0708 9.14671 92.0708 14.0293C92.0708 18.9119 90.3744 20.8277 86.9803 20.8277H84.0887V7.23088ZM87.8599 42.7691H84.0887V27.8121H87.8599C91.3166 27.8121 92.8877 29.9756 92.8877 35.2906C92.8877 40.6057 91.3166 42.7691 87.8599 42.7691Z" fill="#FF2038"/>
</svg>
