<svg width="60" height="32" viewBox="0 0 60 32" fill="none" xmlns="http://www.w3.org/2000/svg">
<g clip-path="url(#clip0_229_15815)">
<path d="M31.1705 27.2943C30.0145 27.2111 28.6816 26.9924 27.6302 26.6638C27.4333 26.6022 26.6179 26.2788 26.4105 26.1761C22.7503 24.3464 20.2005 20.3523 20.2005 15.7186C20.2005 9.36293 24.9919 4.18601 30.8851 4.18601C36.726 4.18601 41.485 9.27463 41.5669 15.5584H45.4268C45.345 6.9788 38.8553 0.0255795 30.8851 0.0255795C22.8674 0.0255795 16.3415 7.06402 16.3415 15.7186C16.3415 21.6851 19.4508 26.8743 24.0034 29.5254C24.8254 29.9946 26.0052 30.4783 26.4057 30.6107C27.7035 31.0276 29.2962 31.3048 30.7138 31.4208C31.1953 31.4598 32.8764 31.4804 33.3664 31.4824H59.9476V27.3333H33.4112C33.0582 27.3333 31.5159 27.3189 31.1705 27.2943ZM33.4112 20.7795C33.1305 20.7795 31.6624 20.7692 31.3913 20.7446C30.9317 20.7025 30.2657 20.6285 29.8376 20.5228C29.3542 20.3831 28.9004 20.1983 28.6958 20.0772C27.262 19.2404 26.2849 17.6037 26.2849 15.7186C26.2849 12.9761 28.3429 10.7521 30.8851 10.7521C33.3741 10.7521 35.3978 12.8888 35.4786 15.5584H39.1873C39.1093 10.6813 35.4253 6.75086 30.8851 6.75086C26.2944 6.75086 22.5734 10.7655 22.5734 15.7186C22.5734 19.2116 24.4287 22.2282 27.1307 23.7057C27.5465 23.9686 28.3286 24.2438 28.5512 24.3064C29.3143 24.523 30.339 24.6709 31.1705 24.7366C31.4778 24.7643 32.983 24.7767 33.3008 24.7787V24.7849H59.9467V20.7795H33.4112ZM13.9629 31.467H10.0772V4.19525H4.39905V0.000936508H13.9629V31.467ZM0.132812 6.29087V10.324H4.39905V31.467H8.13248V6.29087H0.132812Z" fill="#D91920"/>
<path d="M53.0916 0.293621C51.692 0.293621 50.5312 1.49801 50.5312 3.0094C50.5312 4.52079 51.692 5.77344 53.0916 5.77344C54.5339 5.77344 55.65 4.52079 55.65 3.0094C55.65 1.49801 54.5339 0.293621 53.0916 0.293621ZM53.0916 5.32782C51.9356 5.32782 50.9394 4.34727 50.9394 3.0094C50.9394 1.7393 51.9356 0.734101 53.0916 0.734101C54.2466 0.734101 55.238 1.7393 55.238 3.0094C55.238 4.34727 54.2466 5.32782 53.0916 5.32782Z" fill="#D91920"/>
<path d="M54.0639 3.75226C54.0639 3.44731 54.0221 3.16393 53.6986 3.05201C54.1039 2.90005 54.1439 2.61358 54.1439 2.44006C54.1439 1.73878 53.554 1.64945 53.3113 1.64945H52.1953V4.36523H52.6606V3.2512H53.0269C53.554 3.2512 53.5977 3.51302 53.5977 3.75226C53.5977 4.21533 53.5977 4.3026 53.6986 4.36523H54.1648C54.0639 4.25537 54.1039 4.17015 54.0639 3.75226ZM53.2095 2.85487H52.6606V1.99958H53.1306C53.456 1.99958 53.6767 2.11047 53.6767 2.44006C53.6767 2.61358 53.5977 2.85487 53.2095 2.85487Z" fill="#D91920"/>
</g>
<defs>
<clipPath id="clip0_229_15815">
<rect width="59.8148" height="31.4815" fill="white" transform="translate(0.1875)"/>
</clipPath>
</defs>
</svg>
