<svg width="200" height="65" viewBox="0 0 200 65" fill="none" xmlns="http://www.w3.org/2000/svg">
<path d="M0.5 51.6085V13.0919L34.5721 0.5L53.0889 6.42563V58.2744L34.5721 63.8561L0.5 51.6085L34.5721 55.7085V10.8702L12.3507 16.055V46.424L0.5 51.6085Z" fill="#EB3C00"/>
<path d="M89.3817 51.8799C84.0183 51.8799 79.7232 50.1126 76.4965 46.5781C73.2697 43.0435 71.6562 38.4451 71.6562 32.7826C71.6562 26.6982 73.3003 21.845 76.5887 18.2228C79.8771 14.6003 84.3524 12.7891 90.0147 12.7891C95.2374 12.7891 99.4445 14.5475 102.636 18.0644C105.828 21.5814 107.424 26.1798 107.424 31.8599C107.424 38.0322 105.788 42.9119 102.517 46.4994C99.2467 50.0867 94.8682 51.8799 89.3817 51.8799ZM89.6982 16.7977C85.7241 16.7977 82.4974 18.2308 80.0178 21.0971C77.5384 23.9635 76.2986 27.7267 76.2986 32.3866C76.2986 37.0466 77.5076 40.7965 79.9254 43.6365C82.3434 46.4765 85.4953 47.8964 89.3817 47.8964C93.5317 47.8964 96.8025 46.5424 99.1939 43.8343C101.585 41.1263 102.781 37.3368 102.781 32.4658C102.781 27.4717 101.621 23.6118 99.2994 20.8862C96.9782 18.1606 93.7779 16.7978 89.6982 16.7977Z" fill="#EB3C00"/>
<path d="M123.178 10.672C120.734 10.672 118.703 11.5046 117.068 13.1487C115.432 14.7929 114.614 17.0302 114.614 19.8613V24.236H110.008V27.9395H114.614V51.248H118.919V27.9395H129.451V51.248H133.756V27.9395H140.075V24.236H133.756V20.0696C133.756 16.2537 135.269 14.3523 138.293 14.3523C139.366 14.3523 140.319 14.5719 141.163 15.0467V11.158C140.39 10.8415 139.357 10.672 138.039 10.672C135.594 10.672 133.54 11.5045 131.905 13.1486C130.269 14.7929 129.451 17.0301 129.451 19.8612V24.2359H118.919V20.0695C118.919 16.2536 120.431 14.3522 123.456 14.3522C124.529 14.3523 125.482 14.5719 126.326 15.0466V11.158C125.553 10.8415 124.497 10.672 123.178 10.672Z" fill="#EB3C00"/>
<path d="M146.366 17.3722C145.592 17.3723 144.933 17.1085 144.388 16.5809C143.843 16.0534 143.57 15.3852 143.57 14.5763C143.57 13.7674 143.843 13.0947 144.388 12.5584C144.933 12.0221 145.593 11.7539 146.366 11.7539C147.158 11.7539 147.83 12.0221 148.384 12.5584C148.938 13.0948 149.215 13.7675 149.215 14.5763C149.215 15.35 148.938 16.0094 148.384 16.5545C147.83 17.0996 147.157 17.3723 146.366 17.3722ZM148.476 51.2404H144.151V24.2301H148.476V51.2404Z" fill="#EB3C00"/>
<path d="M173.055 50.0013C170.98 51.2498 168.518 51.874 165.669 51.874C161.818 51.874 158.71 50.6211 156.345 48.1152C153.98 45.6094 152.797 42.3606 152.797 38.3689C152.797 33.9199 154.072 30.3459 156.622 27.6465C159.171 24.9472 162.574 23.5977 166.83 23.5977C169.203 23.5977 171.296 24.0373 173.107 24.9165V29.3478C171.103 27.9411 168.957 27.2376 166.671 27.2376C163.91 27.2377 161.646 28.2268 159.879 30.2051C158.112 32.1834 157.228 34.7816 157.228 37.9996C157.228 41.1649 158.059 43.6619 159.721 45.4908C161.383 47.3197 163.611 48.2341 166.407 48.2339C168.764 48.234 170.979 47.4514 173.055 45.8863L173.055 50.0013Z" fill="#EB3C00"/>
<path d="M199.5 38.8211H180.429C180.5 41.8282 181.309 44.1493 182.856 45.7846C184.404 47.4199 186.531 48.2377 189.239 48.2377C192.282 48.2377 195.078 47.2354 197.627 45.2307V49.2927C195.253 51.0159 192.115 51.8777 188.211 51.8777C184.395 51.8777 181.397 50.6512 179.216 48.1981C177.036 45.7451 175.945 42.2941 175.945 37.8451C175.945 33.6423 177.137 30.2177 179.519 27.5712C181.902 24.9248 184.861 23.6016 188.395 23.6016C191.93 23.6016 194.664 24.7445 196.599 27.0306C198.533 29.3166 199.5 32.4907 199.5 36.5528L199.5 38.8211ZM195.069 35.1548C195.051 32.6578 194.449 30.7147 193.262 29.3254C192.075 27.9363 190.426 27.2415 188.316 27.2415C186.276 27.2416 184.544 27.9713 183.12 29.4308C181.695 30.8905 180.816 32.7984 180.482 35.1548H195.069Z" fill="#EB3C00"/>
</svg>
