<svg width="201" height="58" viewBox="0 0 201 58" fill="none" xmlns="http://www.w3.org/2000/svg">
<path d="M188.44 0L184.179 18.7121C183.507 21.5804 183.059 24.3044 182.46 28.2475H182.086C181.488 24.3044 181.04 21.5804 180.366 18.7121L176.106 0H162.727L175.583 40.5784V58H188.142V40.5784L200.997 0H188.44Z" fill="#FF2038"/>
<path d="M145.162 18.7121C144.49 21.5804 144.042 24.3044 143.443 28.2475H143.069C142.471 24.3044 142.023 21.5804 141.349 18.7121L137.091 0H123.711L136.567 40.5784V58H149.126V40.5784L161.981 0H149.423L145.162 18.7121Z" fill="#FF2038"/>
<path d="M29.1522 0H12.408L0 58H12.7075L14.8362 44.8802H26.201L28.3297 58H41.5602L29.1522 0ZM16.3716 35.4163L19.2103 17.9232C19.6588 15.1992 19.9583 12.5467 20.3309 8.818H20.7049C21.0789 12.5467 21.377 15.1992 21.8255 17.9232L24.6642 35.4163H16.3716Z" fill="#FF2038"/>
<path d="M72.7996 27.1714V27.0999C77.1358 25.6665 80.1995 21.3647 80.1995 15.1992C80.1995 5.87821 74.6682 0 62.8577 0H46.0391V58H63.9038C76.0138 58 81.545 51.6916 81.545 41.2244C81.545 33.1939 78.1073 28.9636 72.7996 27.1714ZM58.2981 8.38782H61.7372C65.7738 8.38782 67.7914 10.6102 67.7914 16.274C67.7914 21.9378 65.7738 24.1602 61.7372 24.1602H58.2981V8.38782ZM62.7832 49.6122H58.2981V32.2621H62.7832C66.8944 32.2621 68.763 34.7717 68.763 40.9371C68.763 47.1026 66.8944 49.6122 62.7832 49.6122Z" fill="#FF2038"/>
<path d="M114.518 27.1714V27.0999C118.855 25.6665 121.918 21.3647 121.918 15.1992C121.918 5.87821 116.387 0 104.576 0H87.7578V58H105.623C117.733 58 123.264 51.6916 123.264 41.2244C123.264 33.1939 119.826 28.9636 114.518 27.1714ZM100.017 8.38782H103.456C107.493 8.38782 109.51 10.6102 109.51 16.274C109.51 21.9378 107.493 24.1602 103.456 24.1602H100.017V8.38782ZM104.502 49.6122H100.017V32.2621H104.502C108.613 32.2621 110.482 34.7717 110.482 40.9371C110.482 47.1026 108.613 49.6122 104.502 49.6122Z" fill="#FF2038"/>
</svg>
