<svg width="103" height="33" viewBox="0 0 103 33" fill="none" xmlns="http://www.w3.org/2000/svg">
<path d="M96.2233 0.267578L94.048 10.582C93.7048 12.1631 93.4758 13.6646 93.17 15.8381H92.979C92.6739 13.6646 92.4448 12.1631 92.101 10.582L89.9256 0.267578H83.0938L89.6585 22.6351V32.2381H96.0711V22.6351L102.635 0.267578H96.2233Z" fill="#FF2038"/>
<path d="M74.1254 10.582C73.7822 12.1631 73.5532 13.6646 73.2474 15.8381H73.0564C72.7513 13.6646 72.5223 12.1631 72.1784 10.582L70.0037 0.267578H63.1719L69.7367 22.6351V32.2381H76.1493V22.6351L82.7133 0.267578H76.3007L74.1254 10.582Z" fill="#FF2038"/>
<path d="M14.8857 0.267578H6.33577L0 32.2381H6.48869L7.57564 25.0063H13.3787L14.4657 32.2381H21.2214L14.8857 0.267578ZM8.35963 19.7896L9.80914 10.1472C10.0382 8.64563 10.1911 7.18351 10.3813 5.1282H10.5723C10.7633 7.18351 10.9155 8.64563 11.1445 10.1472L12.594 19.7896H8.35963Z" fill="#FF2038"/>
<path d="M37.1723 15.2449V15.2055C39.3864 14.4153 40.9507 12.0441 40.9507 8.64563C40.9507 3.50775 38.1264 0.267578 32.0957 0.267578H23.5078V32.2381H32.6299C38.8135 32.2381 41.6378 28.7608 41.6378 22.9911C41.6378 18.5646 39.8825 16.2328 37.1723 15.2449ZM29.7675 4.89108H31.5236C33.5847 4.89108 34.615 6.11609 34.615 9.23807C34.615 12.36 33.5847 13.5851 31.5236 13.5851H29.7675V4.89108ZM32.0577 27.6146H29.7675V18.051H32.0577C34.1569 18.051 35.1111 19.4343 35.1111 22.8328C35.1111 26.2313 34.1569 27.6146 32.0577 27.6146Z" fill="#FF2038"/>
<path d="M58.4691 15.2449V15.2055C60.6832 14.4153 62.2476 12.0441 62.2476 8.64563C62.2476 3.50775 59.4233 0.267578 53.3926 0.267578H44.8047V32.2381H53.9268C60.1103 32.2381 62.9347 28.7608 62.9347 22.9911C62.9347 18.5646 61.1793 16.2328 58.4691 15.2449ZM51.0644 4.89108H52.8204C54.8816 4.89108 55.9118 6.11609 55.9118 9.23807C55.9118 12.36 54.8816 13.5851 52.8204 13.5851H51.0644V4.89108ZM53.3546 27.6146H51.0644V18.051H53.3546C55.4538 18.051 56.4079 19.4343 56.4079 22.8328C56.4079 26.2313 55.4538 27.6146 53.3546 27.6146Z" fill="#FF2038"/>
</svg>
