<svg width="177" height="58" viewBox="0 0 177 58" fill="none" xmlns="http://www.w3.org/2000/svg">
<path d="M0.460938 46.0537V11.6851L30.6147 0.449219L47.0021 5.73671V52.0018L30.6147 56.9823L0.460938 46.0537L30.6147 49.7122V9.70262L10.9488 14.3291V41.4275L0.460938 46.0537Z" fill="#EB3C00"/>
<path d="M79.1167 46.2951C74.3701 46.2951 70.569 44.7182 67.7133 41.5642C64.8576 38.4103 63.4297 34.3071 63.4297 29.2544C63.4297 23.8253 64.8847 19.4947 67.7949 16.2626C70.7051 13.0302 74.6658 11.4141 79.6769 11.4141C84.299 11.4141 88.0223 12.9832 90.8469 16.1213C93.6714 19.2595 95.0838 23.3627 95.0838 28.4311C95.0838 33.9387 93.6364 38.2929 90.7419 41.4941C87.8472 44.695 83.9722 46.2951 79.1167 46.2951ZM79.3968 14.991C75.8797 14.991 73.0241 16.2698 70.8297 18.8274C68.6354 21.3851 67.5382 24.743 67.5382 28.9011C67.5382 33.0592 68.6081 36.4053 70.7479 38.9395C72.8878 41.4736 75.6773 42.7406 79.1167 42.7406C82.7895 42.7406 85.6841 41.5324 87.8005 39.116C89.917 36.6996 90.9752 33.3182 90.9752 28.9717C90.9752 24.5155 89.9481 21.0713 87.8939 18.6392C85.8396 16.2071 83.0073 14.9911 79.3968 14.991Z" fill="#EB3C00"/>
<path d="M109.031 9.52742C106.868 9.52745 105.07 10.2703 103.623 11.7374C102.176 13.2046 101.451 15.2009 101.451 17.7271V21.6307H97.375V24.9354H101.451V45.7337H105.262V24.9354H114.582V45.7337H118.393V24.9354H123.985V21.6307H118.393V17.913C118.393 14.508 119.731 12.8114 122.408 12.8114C123.357 12.8115 124.201 13.0074 124.948 13.431V9.96115C124.263 9.67874 123.349 9.52745 122.182 9.52742C120.019 9.52745 118.201 10.2703 116.754 11.7374C115.307 13.2045 114.582 15.2008 114.582 17.727V21.6307H105.262V17.9129C105.262 14.508 106.6 12.8114 109.277 12.8114C110.226 12.8114 111.07 13.0073 111.817 13.431V9.96108C111.132 9.67867 110.198 9.52745 109.031 9.52742Z" fill="#EB3C00"/>
<path d="M129.552 15.5055C128.868 15.5055 128.284 15.2701 127.802 14.7994C127.319 14.3287 127.078 13.7324 127.078 13.0106C127.078 12.2888 127.319 11.6886 127.802 11.2101C128.284 10.7315 128.868 10.4922 129.552 10.4922C130.253 10.4922 130.848 10.7315 131.338 11.2101C131.828 11.6887 132.074 12.2889 132.074 13.0106C132.074 13.701 131.828 14.2894 131.338 14.7758C130.848 15.2622 130.253 15.5055 129.552 15.5055ZM131.42 45.7263H127.592V21.6248H131.42V45.7263Z" fill="#EB3C00"/>
<path d="M153.17 44.6227C151.334 45.7367 149.155 46.2937 146.634 46.2937C143.226 46.2937 140.475 45.1757 138.382 42.9397C136.289 40.7038 135.242 37.8048 135.242 34.243C135.242 30.2731 136.371 27.084 138.627 24.6753C140.884 22.2667 143.895 21.0625 147.661 21.0625C149.762 21.0625 151.614 21.4548 153.217 22.2393V26.1934C151.443 24.9382 149.544 24.3105 147.521 24.3105C145.078 24.3105 143.074 25.1931 141.51 26.9584C139.946 28.7237 139.164 31.042 139.164 33.9135C139.164 36.7379 139.899 38.966 141.37 40.5979C142.841 42.2298 144.813 43.0458 147.288 43.0456C149.373 43.0457 151.334 42.3474 153.17 40.9508L153.17 44.6227Z" fill="#EB3C00"/>
<path d="M176.572 34.643H159.695C159.757 37.3262 160.473 39.3974 161.843 40.8566C163.212 42.3158 165.095 43.0455 167.492 43.0455C170.184 43.0455 172.659 42.1512 174.915 40.3623V43.9869C172.814 45.5246 170.036 46.2935 166.582 46.2935C163.204 46.2935 160.551 45.1991 158.621 43.0102C156.691 40.8213 155.727 37.742 155.727 33.7721C155.727 30.0219 156.781 26.9661 158.89 24.6047C160.998 22.2432 163.617 21.0625 166.745 21.0625C169.873 21.0625 172.293 22.0824 174.005 24.1223C175.717 26.1621 176.573 28.9943 176.573 32.6189L176.572 34.643ZM172.651 31.3715C172.635 29.1435 172.102 27.4096 171.052 26.1699C170.001 24.9304 168.542 24.3105 166.675 24.3105C164.869 24.3105 163.337 24.9617 162.076 26.264C160.815 27.5664 160.037 29.2689 159.742 31.3715H172.651Z" fill="#EB3C00"/>
</svg>
