<svg width="228" height="65" viewBox="0 0 228 65" fill="none" xmlns="http://www.w3.org/2000/svg">
<path d="M213.753 0L208.92 20.9705C208.158 24.185 207.649 27.2377 206.97 31.6567H206.546C205.868 27.2377 205.359 24.185 204.595 20.9705L199.763 0H184.586L199.169 45.4758V65H213.415V45.4758L227.997 0H213.753Z" fill="#FF2038"/>
<path d="M164.661 20.9705C163.899 24.185 163.39 27.2377 162.71 31.6567H162.286C161.608 27.2377 161.1 24.185 160.336 20.9705L155.505 0H140.328L154.912 45.4758V65H169.157V45.4758L183.739 0H169.493L164.661 20.9705Z" fill="#FF2038"/>
<path d="M33.0679 0H14.0747L0 65H14.4144L16.829 50.2968H29.7203L32.1349 65H47.1426L33.0679 0ZM18.5706 39.6907L21.7906 20.0864C22.2994 17.0336 22.6391 14.0609 23.0617 9.88224H23.486C23.9102 14.0609 24.2483 17.0336 24.7571 20.0864L27.9771 39.6907H18.5706Z" fill="#FF2038"/>
<path d="M82.5816 30.4507V30.3706C87.5001 28.7641 90.9754 23.9432 90.9754 17.0336C90.9754 6.58765 84.7012 0 71.3043 0H52.2266V65H72.4909C86.2274 65 92.5016 57.9302 92.5016 46.1997C92.5016 37.2001 88.6022 32.4592 82.5816 30.4507ZM66.1322 9.40014H70.0332C74.6121 9.40014 76.9007 11.8907 76.9007 18.2381C76.9007 24.5854 74.6121 27.076 70.0332 27.076H66.1322V9.40014ZM71.2198 55.5999H66.1322V36.1558H71.2198C75.8832 36.1558 78.0027 38.9683 78.0027 45.8778C78.0027 52.7874 75.8832 55.5999 71.2198 55.5999Z" fill="#FF2038"/>
<path d="M129.902 30.4507V30.3706C134.82 28.7641 138.296 23.9432 138.296 17.0336C138.296 6.58765 132.021 0 118.625 0H99.5469V65H119.811C133.548 65 139.822 57.9302 139.822 46.1997C139.822 37.2001 135.922 32.4592 129.902 30.4507ZM113.452 9.40014H117.354C121.932 9.40014 124.221 11.8907 124.221 18.2381C124.221 24.5854 121.932 27.076 117.354 27.076H113.452V9.40014ZM118.54 55.5999H113.452V36.1558H118.54C123.203 36.1558 125.323 38.9683 125.323 45.8778C125.323 52.7874 123.203 55.5999 118.54 55.5999Z" fill="#FF2038"/>
</svg>
