<svg width="100" height="50" viewBox="0 0 100 50" fill="none" xmlns="http://www.w3.org/2000/svg">
<g clip-path="url(#clip0_228_14370)">
<path d="M-0.0078125 49.925H50.4814L99.9922 0H-0.0078125V49.925Z" fill="#014185"/>
<path fill-rule="evenodd" clip-rule="evenodd" d="M59.285 9.38454L49.5003 9.38257V32.9977L40.8897 9.38257H32.4748L25.0384 29.1322C24.2557 24.1573 19.1676 22.4378 15.058 21.1506C12.514 20.286 9.57855 19.0146 9.77425 17.6248C9.77425 16.4718 11.1441 15.4137 14.0795 15.5716C16.0365 15.6723 17.7977 15.8362 21.3202 17.53L24.8427 11.5147C21.5159 9.88796 17.2106 8.85942 13.6881 8.85547C9.38286 8.85547 5.86035 10.2216 3.70771 12.486C2.33785 14.0614 1.35938 16.0612 1.35938 18.2782C1.35938 21.3283 2.53354 23.492 4.68618 25.2155C6.83883 26.6665 9.18716 27.6121 11.5355 28.3051C14.2752 29.1599 16.4279 29.9002 16.4279 31.4874C16.4279 32.0738 16.2322 32.6068 15.8408 33.0352C15.058 33.7439 14.0795 34.0124 12.514 34.046C9.77424 34.0973 7.8173 33.6571 4.49049 31.6967L1.35938 37.787C4.68619 39.6744 8.60008 40.7838 12.514 40.7838L13.1011 40.7799C16.4279 40.7167 19.3633 39.7198 21.5159 37.9075C21.7116 37.8009 21.7116 37.7022 21.9073 37.6034L20.9288 40.2548H29.9308L31.3007 35.6589C32.8662 36.188 34.6275 36.4959 36.5844 36.4959C38.5414 36.4959 40.1069 36.1978 41.6725 35.6964L43.238 40.2548H57.7195V30.7215H61.0463C68.6784 30.7215 73.1793 26.7711 73.1793 20.1458C73.1793 12.7703 68.874 9.38454 59.285 9.38454ZM36.5844 29.6021C35.4103 29.6021 34.4318 29.3968 33.4533 29.0375L36.5844 19.1034L39.7155 29.0691C38.7371 29.4086 37.7586 29.6021 36.5844 29.6021ZM59.8721 23.8888H57.7195V15.8796H59.8721C62.8075 15.8796 65.1558 16.8489 65.1558 19.8437C65.1558 22.9235 62.8075 23.8888 59.8721 23.8888Z" fill="white"/>
<path d="M62.814 46.7316C62.814 45.2055 63.9882 44.0427 65.3581 44.0427C66.7279 44.0427 67.9021 45.2055 67.9021 46.7316C67.9021 48.3149 66.7279 49.4559 65.3581 49.4559C63.9882 49.4559 62.814 48.3149 62.814 46.7316ZM65.3581 49.9969C67.1193 49.9969 68.6849 48.613 68.6849 46.7316C68.6849 44.8778 67.1193 43.5156 65.3581 43.5156C63.5968 43.5156 62.0312 44.8778 62.0312 46.7316C62.0312 48.613 63.5968 49.9969 65.3581 49.9969ZM64.771 47.002H65.3581L66.3365 48.613H66.9236L65.9451 46.9704C66.3365 46.9033 66.9236 46.6131 66.9236 45.9498C66.9236 45.2055 66.3365 44.8778 65.5538 44.8778H64.1839V48.613H64.771V47.002ZM64.771 46.5203V45.3536H65.5538C65.7494 45.3536 66.3365 45.4444 66.3365 45.9162C66.3365 46.4828 65.7494 46.5203 65.3581 46.5203H64.771Z" fill="#014185"/>
</g>
<defs>
<clipPath id="clip0_228_14370">
<rect width="100" height="50" fill="white"/>
</clipPath>
</defs>
</svg>
