<svg width="229" height="58" viewBox="0 0 229 58" fill="none" xmlns="http://www.w3.org/2000/svg">
<g clip-path="url(#clip0_228_12678)">
<path d="M49.1405 0H16.0938L28.5421 12.5761C28.8216 12.5593 29.104 12.5516 29.388 12.5516C32.218 12.5458 34.994 13.3396 37.4052 14.8442C39.8165 16.3487 41.768 18.5048 43.0416 21.0712C43.2848 21.0543 43.531 21.0467 43.7786 21.0467C45.8207 21.0436 47.8228 21.6189 49.5604 22.7081C51.298 23.7973 52.7018 25.357 53.6142 27.212L57.5244 23.2674V8.89534C57.4863 6.61824 56.6028 4.43975 55.0504 2.79589C53.4926 1.14836 51.3848 0.151222 49.1405 0Z" fill="#00B4FF"/>
<path d="M53.6216 27.2111L37.7266 43.2487L51.7412 57.3845C53.4216 56.7488 54.8739 55.6128 55.9084 54.1253C56.9429 52.6379 57.5114 50.8683 57.5396 49.0476V23.2617L53.6216 27.2111Z" fill="#FF6E6E"/>
<path d="M6.38916 38.0354C5.96533 36.9877 5.74826 35.8659 5.75027 34.7333C5.75027 30.028 9.41895 26.2138 13.9425 26.2138C14.0482 26.2138 14.1524 26.2138 14.2566 26.2138C14.6565 22.5932 16.3125 19.2355 18.9282 16.7418C21.5569 14.2452 24.9686 12.7702 28.5628 12.5763L16.1083 0.0078125H8.45987C6.18435 0.151383 4.04728 1.16652 2.48033 2.84818C0.920732 4.52409 0.0526968 6.74304 0.0546909 9.04883V44.4292L6.38916 38.0354Z" fill="#23D3FF"/>
<path d="M37.7154 43.2496H13.9347C12.6985 43.2511 11.4789 42.9614 10.3717 42.403C8.56417 41.4863 7.14609 39.9341 6.38134 38.0352L0.046875 44.4275V48.9134C0.0504116 50.7083 0.57866 52.4618 1.56466 53.9515C2.55067 55.4411 3.95003 56.6 5.58538 57.2813C6.67664 57.7381 7.8456 57.9731 9.02598 57.9729H48.5567C49.6399 57.9726 50.7143 57.7746 51.7286 57.3885L37.7154 43.2496Z" fill="#00F5D0"/>
<path d="M57.4935 8.89534C57.4544 6.61649 56.5698 4.43659 55.0164 2.79129C53.4548 1.14294 51.3423 0.147293 49.0943 0H8.39914C6.12646 0.146966 3.99306 1.163 2.42867 2.84344C0.871295 4.51732 0.00251694 6.73213 0 9.03489V48.9243C0.00154237 50.1138 0.234657 51.2911 0.685935 52.3886C1.13721 53.4862 1.79775 54.4824 2.62954 55.3197C4.3166 57.0192 6.59668 57.9729 8.97307 57.9729H48.5144C49.5976 57.9726 50.6719 57.7748 51.6861 57.3887H51.6967C53.3771 56.753 54.8291 55.6168 55.8626 54.1289C56.8962 52.641 57.4631 50.8707 57.489 49.05V8.89534H57.4935Z" fill="url(#paint0_radial_228_12678)"/>
<path d="M53.6628 27.2292C52.751 25.3738 51.3476 23.8138 49.6103 22.7243C47.873 21.6348 45.8707 21.0591 43.8288 21.0622C43.5812 21.0622 43.335 21.0714 43.0933 21.0867C41.8203 18.5193 39.8688 16.3621 37.4572 14.8566C35.0455 13.3512 32.269 12.5569 29.4382 12.5625C29.1497 12.5625 28.8747 12.5625 28.5937 12.5871C24.9976 12.7847 21.5854 14.2653 18.9592 16.7679C16.3439 19.2611 14.6878 22.6183 14.2876 26.2383C14.1834 26.2383 14.0792 26.2307 13.9735 26.2307C9.44239 26.2307 5.78127 30.0449 5.78127 34.7502C5.77867 35.8833 5.99575 37.0059 6.42016 38.0538C7.18507 39.953 8.60304 41.5057 10.4105 42.4232C11.518 42.9804 12.7375 43.2697 13.9735 43.2683H37.7677L53.6643 27.2306L53.6628 27.2292Z" fill="white"/>
<path fill-rule="evenodd" clip-rule="evenodd" d="M48.7522 26.1223C50.4556 26.0964 52.1414 26.4741 53.6761 27.225L37.7734 43.2626V36.7001H37.7886C37.9172 33.848 39.1286 31.1573 41.1687 29.1928C43.2164 27.2216 45.9309 26.1236 48.7522 26.1254V26.1223Z" fill="#FFD12F"/>
<path d="M85.2451 29.1922L93.7211 17.4966H96.331V40.6751H93.4564V22.658V22.454L93.3358 22.6178L85.4549 33.3148H84.7943L76.682 22.6172L76.5619 22.4587V22.658V40.6751H73.6875V17.4966H76.3641L85.1377 29.193L85.192 29.2655L85.2451 29.1922ZM135.325 23.4915H137.805V40.6751H135.161V27.7869V27.5976L135.043 27.7443L124.583 40.6751H122.136V23.4915H124.779V36.4129V36.6033L124.898 36.4554L135.325 23.4915ZM180.051 41.0756V47.336H177.409V41.0756V41.008H177.341H177.143C174.233 41.008 171.944 40.064 170.384 38.4844C168.824 36.9044 167.986 34.6828 167.986 32.1165C167.986 27.4214 171.299 23.1918 177.109 23.1918H177.341H177.409V23.1243V16.4975H180.051V23.1243V23.1918H180.118H180.382C183.177 23.1918 185.457 24.1519 187.038 25.7448C188.619 27.3378 189.507 29.5681 189.507 32.1165C189.507 34.6828 188.669 36.9044 187.104 38.4842C185.539 40.064 183.245 41.008 180.316 41.008H180.118H180.051V41.0756ZM177.341 38.4786H177.409V38.4112V25.7887V25.7213H177.341H177.109C175.029 25.7213 173.448 26.4011 172.388 27.5452C171.328 28.6887 170.794 30.2886 170.794 32.1165C170.794 34.0275 171.336 35.6197 172.404 36.7345C173.473 37.8496 175.064 38.4786 177.143 38.4786H177.341ZM180.118 25.7213H180.051V25.7887V38.4112V38.4786H180.118H180.316C182.445 38.4786 184.044 37.8584 185.108 36.747C186.173 35.6359 186.697 34.0435 186.697 32.1165C186.697 30.338 186.157 28.7383 185.084 27.5828C184.012 26.4264 182.415 25.7213 180.316 25.7213H180.118ZM206.492 23.4915H208.972V40.6751H206.329V27.7869V27.5976L206.21 27.7443L195.751 40.6751H193.304V23.4915H195.947V36.4129V36.6033L196.066 36.4554L206.492 23.4915ZM100.145 32.0499C100.145 29.4352 101.065 27.1966 102.651 25.6118C104.236 24.0268 106.491 23.0919 109.17 23.0919C111.865 23.0919 114.137 24.027 115.734 25.6119C117.332 27.1969 118.26 29.4354 118.26 32.0499C118.26 34.6478 117.332 36.878 115.734 38.4588C114.137 40.0397 111.865 40.9748 109.17 40.9748C103.883 40.9748 100.145 37.2406 100.145 32.0499ZM102.954 32.0499C102.954 35.782 105.527 38.4786 109.17 38.4786C111.02 38.4786 112.592 37.8316 113.701 36.7018C114.81 35.5719 115.452 33.9638 115.452 32.0499C115.452 28.1827 112.744 25.588 109.17 25.588C107.385 25.588 105.83 26.2269 104.721 27.3565C103.612 28.4862 102.954 30.1026 102.954 32.0499ZM133.177 16.0312H135.654C135.605 17.513 135.005 18.7112 134.055 19.5432C133.089 20.3885 131.758 20.8589 130.268 20.8589C128.66 20.8589 127.297 20.4043 126.332 19.568C125.383 18.7448 124.814 17.5467 124.782 16.0312H127.261C127.291 16.8167 127.559 17.4932 128.056 17.9773C128.567 18.4749 129.312 18.7623 130.268 18.7623C131.191 18.7623 131.92 18.4745 132.418 17.9767C132.903 17.4928 133.163 16.8165 133.177 16.0312ZM142.016 29.0858C142.016 22.3618 147.143 17.1969 153.718 17.1969C160.194 17.1969 165.386 22.1629 165.386 29.0858C165.386 35.9092 160.194 40.9748 153.718 40.9748C147.209 40.9748 142.016 36.0087 142.016 29.0858ZM145.023 29.0858C145.023 34.4177 148.986 38.2122 153.718 38.2122C158.616 38.2122 162.38 34.4164 162.38 29.0858C162.38 23.7205 158.384 19.9595 153.718 19.9595C148.953 19.9595 145.023 23.7206 145.023 29.0858ZM222.179 38.4786C224.262 38.4786 225.952 37.425 227.023 35.842L228.903 37.1993C227.581 39.6687 224.624 40.9748 221.916 40.9748C219.203 40.9748 216.922 40.1053 215.321 38.5581C213.721 37.0112 212.793 34.7816 212.793 32.0499C212.793 26.9905 216.366 23.0919 221.75 23.0919C224.781 23.0919 227.478 24.4596 228.638 26.5335L226.592 27.9281C226.002 27.1319 225.344 26.5498 224.574 26.1654C223.784 25.7727 222.882 25.588 221.816 25.588C218.241 25.588 215.6 28.2843 215.6 32.0499C215.6 33.9644 216.26 35.5729 217.414 36.7027C218.569 37.8324 220.214 38.4786 222.179 38.4786Z" fill="black" stroke="black" stroke-width="0.133664"/>
</g>
<defs>
<radialGradient id="paint0_radial_228_12678" cx="0" cy="0" r="1" gradientUnits="userSpaceOnUse" gradientTransform="translate(28.7247 29.5278) scale(28.7408 28.9911)">
<stop stop-color="#261C38" stop-opacity="0.6"/>
<stop offset="0.28" stop-color="#261C38" stop-opacity="0.3"/>
<stop offset="0.86" stop-color="#302640" stop-opacity="0.05"/>
<stop offset="1" stop-color="#302640" stop-opacity="0"/>
</radialGradient>
<clipPath id="clip0_228_12678">
<rect width="229" height="58" fill="white"/>
</clipPath>
</defs>
</svg>
