<svg width="118" height="32" viewBox="0 0 118 32" fill="none" xmlns="http://www.w3.org/2000/svg">
<g clip-path="url(#clip0_229_15806)">
<path d="M25.9783 0H9.07812L15.4442 6.82614C15.5872 6.81698 15.7316 6.81282 15.8768 6.81282C17.3241 6.80966 18.7437 7.24051 19.9769 8.05718C21.21 8.87382 22.208 10.0441 22.8593 11.4371C22.9837 11.428 23.1096 11.4238 23.2362 11.4238C24.2805 11.4221 25.3044 11.7344 26.193 12.3256C27.0817 12.9168 27.7995 13.7634 28.2662 14.7703L30.2659 12.6292V4.82825C30.2464 3.59227 29.7945 2.40983 29.0007 1.51757C28.204 0.623314 27.1261 0.0820808 25.9783 0Z" fill="#00B4FF"/>
<path d="M28.2694 14.7686L20.1406 23.4736L27.3078 31.1463C28.1671 30.8012 28.9098 30.1846 29.4389 29.3773C29.9679 28.5699 30.2586 27.6094 30.273 26.6212V12.625L28.2694 14.7686Z" fill="#FF6E6E"/>
<path d="M4.11446 20.6466C3.89772 20.078 3.78671 19.4691 3.78774 18.8543C3.78774 16.3004 5.66391 14.23 7.97726 14.23C8.03132 14.23 8.08461 14.23 8.13791 14.23C8.34239 12.2648 9.18931 10.4423 10.527 9.08881C11.8713 7.7337 13.616 6.93308 15.4541 6.82784L9.08486 0.00585938H5.17343C4.00972 0.0837871 2.91682 0.634789 2.11548 1.54757C1.3179 2.45722 0.873982 3.66164 0.875002 4.91318V24.1171L4.11446 20.6466Z" fill="#23D3FF"/>
<path d="M20.1387 23.4749H7.97725C7.34507 23.4757 6.72134 23.3184 6.15515 23.0153C5.23076 22.5178 4.50555 21.6752 4.11446 20.6445L0.875 24.1142V26.5491C0.876809 27.5233 1.14696 28.4751 1.6512 29.2836C2.15544 30.0922 2.87108 30.7212 3.70741 31.091C4.26548 31.339 4.86329 31.4665 5.46693 31.4664H25.683C26.237 31.4662 26.7864 31.3588 27.3051 31.1492L20.1387 23.4749Z" fill="#00F5D0"/>
<path d="M30.2539 4.82825C30.2339 3.59132 29.7815 2.40811 28.9871 1.51507C28.1885 0.620371 27.1081 0.0799481 25.9585 0H5.1469C3.98465 0.0797706 2.89362 0.631256 2.09359 1.54338C1.29714 2.45193 0.85285 3.65409 0.851562 4.904V26.5553C0.852351 27.201 0.971567 27.84 1.20235 28.4357C1.43314 29.0315 1.77093 29.5722 2.19632 30.0266C3.05908 30.9491 4.22512 31.4668 5.44041 31.4668H25.6619C26.2159 31.4666 26.7653 31.3592 27.284 31.1497H27.2894C28.1487 30.8046 28.8913 30.1879 29.4198 29.3803C29.9484 28.5727 30.2383 27.6118 30.2516 26.6236V4.82825H30.2539Z" fill="url(#paint0_radial_229_15806)"/>
<path d="M28.2914 14.7792C27.8251 13.7721 27.1074 12.9254 26.219 12.334C25.3305 11.7426 24.3065 11.4302 23.2623 11.4319C23.1357 11.4319 23.0097 11.4369 22.8861 11.4451C22.2351 10.0516 21.2371 8.88072 20.0038 8.06357C18.7705 7.24645 17.3506 6.81531 15.9029 6.81838C15.7554 6.81838 15.6147 6.81838 15.471 6.8317C13.632 6.93895 11.887 7.7426 10.5439 9.101C9.20643 10.4543 8.35952 12.2765 8.15488 14.2414C8.10158 14.2414 8.04828 14.2372 7.99422 14.2372C5.67701 14.2372 3.8047 16.3075 3.8047 18.8615C3.80337 19.4765 3.91438 20.0858 4.13143 20.6546C4.52261 21.6855 5.24776 22.5283 6.17211 23.0263C6.73848 23.3287 7.36214 23.4858 7.99422 23.485H20.1626L28.2922 14.78L28.2914 14.7792Z" fill="white"/>
<path fill-rule="evenodd" clip-rule="evenodd" d="M25.7787 14.1765C26.6497 14.1624 27.5119 14.3674 28.2967 14.775L20.1641 23.4799V19.9179H20.1718C20.2376 18.3698 20.8571 16.9094 21.9004 15.843C22.9476 14.7731 24.3358 14.1772 25.7787 14.1781V14.1765Z" fill="#FFD12F"/>
<path d="M44.4496 15.8447L48.7843 9.49656H50.119V22.0775H48.6489V12.2981V12.1874L48.5873 12.2763L44.557 18.0824H44.2191L40.0705 12.2759L40.009 12.1899V12.2981V22.0775H38.5391V9.49656H39.9079L44.3947 15.8452L44.4225 15.8845L44.4496 15.8447ZM70.0605 12.7505H71.3287V22.0775H69.977V15.082V14.9792L69.9163 15.0588L64.5673 22.0775H63.316V12.7505H64.6676V19.764V19.8673L64.7284 19.7871L70.0605 12.7505ZM92.9335 22.2948V25.6929H91.5823V22.2948V22.2582H91.5477H91.4466C89.958 22.2582 88.7877 21.7458 87.99 20.8884C87.1922 20.0308 86.7638 18.8249 86.7638 17.432C86.7638 14.8836 88.4579 12.5878 91.4293 12.5878H91.5477H91.5823V12.5511V8.95425H92.9335V12.5511V12.5878H92.968H93.1029C94.5322 12.5878 95.6984 13.1089 96.5069 13.9735C97.3153 14.8382 97.7692 16.0488 97.7692 17.432C97.7692 18.8249 97.3408 20.0308 96.5406 20.8883C95.7404 21.7458 94.5668 22.2582 93.0692 22.2582H92.968H92.9335V22.2948ZM91.5477 20.8852H91.5823V20.8486V13.9974V13.9608H91.5477H91.4293C90.3651 13.9608 89.5567 14.3298 89.0147 14.9508C88.4727 15.5714 88.1997 16.4398 88.1997 17.432C88.1997 18.4692 88.4768 19.3335 89.0229 19.9386C89.5698 20.5438 90.3832 20.8852 91.4466 20.8852H91.5477ZM92.968 13.9608H92.9335V13.9974V20.8486V20.8852H92.968H93.0692C94.158 20.8852 94.9755 20.5486 95.52 19.9453C96.0644 19.3423 96.3325 18.4779 96.3325 17.432C96.3325 16.4666 96.0562 15.5983 95.5076 14.9712C94.9591 14.3435 94.1424 13.9608 93.0692 13.9608H92.968ZM106.456 12.7505H107.724V22.0775H106.372V15.082V14.9792L106.312 15.0588L100.963 22.0775H99.711V12.7505H101.063V19.764V19.8673L101.124 19.7871L106.456 12.7505ZM52.0697 17.3959C52.0697 15.9766 52.54 14.7615 53.3508 13.9013C54.1616 13.041 55.315 12.5336 56.6847 12.5336C58.063 12.5336 59.2248 13.0411 60.0419 13.9014C60.859 14.7617 61.3335 15.9767 61.3335 17.3959C61.3335 18.8059 60.8591 20.0165 60.0419 20.8745C59.2248 21.7326 58.063 22.2401 56.6847 22.2401C53.9812 22.2401 52.0697 20.2133 52.0697 17.3959ZM53.5059 17.3959C53.5059 19.4216 54.822 20.8852 56.6847 20.8852C57.6311 20.8852 58.4348 20.5341 59.0019 19.9208C59.5691 19.3075 59.8973 18.4347 59.8973 17.3959C59.8973 15.2968 58.5126 13.8884 56.6847 13.8884C55.7719 13.8884 54.9767 14.2352 54.4097 14.8483C53.8426 15.4615 53.5059 16.3389 53.5059 17.3959ZM68.9623 8.70117H70.2288C70.2036 9.50544 69.8969 10.1558 69.411 10.6074C68.9173 11.0662 68.2367 11.3215 67.4745 11.3215C66.6522 11.3215 65.955 11.0748 65.4617 10.6208C64.9762 10.174 64.6854 9.52374 64.669 8.70117H65.9366C65.9518 9.12749 66.0891 9.49472 66.3433 9.75747C66.6046 10.0275 66.9857 10.1835 67.4745 10.1835C67.9465 10.1835 68.3193 10.0274 68.5742 9.75712C68.822 9.49445 68.9551 9.1274 68.9623 8.70117ZM73.4823 15.787C73.4823 12.1373 76.1046 9.33388 79.4668 9.33388C82.7786 9.33388 85.4339 12.0293 85.4339 15.787C85.4339 19.4906 82.7784 22.2401 79.4668 22.2401C76.1379 22.2401 73.4823 19.5446 73.4823 15.787ZM75.02 15.787C75.02 18.6811 77.0467 20.7406 79.4668 20.7406C81.9719 20.7406 83.8968 18.6804 83.8968 15.787C83.8968 12.8748 81.8529 10.8334 79.4668 10.8334C77.0298 10.8334 75.02 12.8748 75.02 15.787ZM114.478 20.8852C115.543 20.8852 116.408 20.3134 116.955 19.4541L117.917 20.1909C117.241 21.5312 115.728 22.2401 114.343 22.2401C112.956 22.2401 111.79 21.7682 110.971 20.9284C110.152 20.0888 109.678 18.8786 109.678 17.3959C109.678 14.6497 111.505 12.5336 114.259 12.5336C115.809 12.5336 117.188 13.2759 117.781 14.4016L116.735 15.1586C116.433 14.7264 116.097 14.4105 115.703 14.2018C115.299 13.9887 114.838 13.8884 114.292 13.8884C112.464 13.8884 111.114 15.3519 111.114 17.3959C111.114 18.435 111.451 19.3081 112.041 19.9213C112.632 20.5345 113.473 20.8852 114.478 20.8852Z" fill="black" stroke="black" stroke-width="0.0682176"/>
</g>
<defs>
<radialGradient id="paint0_radial_229_15806" cx="0" cy="0" r="1" gradientUnits="userSpaceOnUse" gradientTransform="translate(15.5414 16.0272) scale(14.6981 15.7359)">
<stop stop-color="#261C38" stop-opacity="0.6"/>
<stop offset="0.28" stop-color="#261C38" stop-opacity="0.3"/>
<stop offset="0.86" stop-color="#302640" stop-opacity="0.05"/>
<stop offset="1" stop-color="#302640" stop-opacity="0"/>
</radialGradient>
<clipPath id="clip0_229_15806">
<rect width="117.111" height="31.4815" fill="white" transform="translate(0.851562)"/>
</clipPath>
</defs>
</svg>
