<svg width="134" height="65" viewBox="0 0 134 65" fill="none" xmlns="http://www.w3.org/2000/svg">
<g clip-path="url(#clip0_226_6349)">
<path d="M69.1572 56.3527C66.5815 56.181 63.6114 55.7294 61.2689 55.051C60.83 54.9238 59.0132 54.2561 58.5511 54.0441C50.3956 50.2663 44.7141 42.0197 44.7141 32.4523C44.7141 19.3298 55.3902 8.64093 68.5213 8.64093C81.5357 8.64093 92.1397 19.1474 92.322 32.1216H100.923C100.74 14.4072 86.2801 0.0508652 68.5213 0.0508652C50.6564 0.0508652 36.1156 14.5832 36.1156 32.4523C36.1156 44.7714 43.0436 55.4856 53.1876 60.9594C55.0192 61.9282 57.648 62.9267 58.5405 63.2002C61.4321 64.0609 64.9809 64.6332 68.1397 64.8728C69.2124 64.9534 72.9583 64.9958 74.0501 65H133.277V56.4333H74.1497C73.3632 56.4333 69.9268 56.4036 69.1572 56.3527ZM74.1497 42.9016C73.5244 42.9016 70.2533 42.8804 69.6491 42.8295C68.6251 42.7426 67.1412 42.5899 66.1872 42.3716C65.1102 42.0833 64.099 41.7017 63.6432 41.4515C60.4485 39.7238 58.2713 36.3445 58.2713 32.4523C58.2713 26.7899 62.8567 22.1981 68.5213 22.1981C74.0671 22.1981 78.5762 26.6097 78.7564 32.1216H87.02C86.8462 22.0518 78.6377 13.9366 68.5213 13.9366C58.2925 13.9366 50.0013 22.2256 50.0013 32.4523C50.0013 39.6644 54.1352 45.8928 60.1559 48.9434C61.0823 49.4862 62.8249 50.0543 63.321 50.1836C65.0212 50.6309 67.3044 50.9362 69.1572 51.0719C69.842 51.1291 73.1958 51.1546 73.9038 51.1588V51.1715H133.275V42.9016H74.1497ZM30.8157 64.9682H22.1578V8.66002H9.50589V-7.62939e-06H30.8157V64.9682ZM0 12.9869V21.314H9.50589V64.9682H17.8246V12.9869H0Z" fill="#D91920"/>
<path d="M117.978 0.603759C114.86 0.603759 112.273 3.09047 112.273 6.21104C112.273 9.33162 114.86 11.918 117.978 11.918C121.192 11.918 123.679 9.33162 123.679 6.21104C123.679 3.09047 121.192 0.603759 117.978 0.603759ZM117.978 10.9979C115.402 10.9979 113.183 8.97335 113.183 6.21104C113.183 3.58866 115.402 1.51322 117.978 1.51322C120.552 1.51322 122.761 3.58866 122.761 6.21104C122.761 8.97335 120.552 10.9979 117.978 10.9979Z" fill="#D91920"/>
<path d="M120.148 7.75001C120.148 7.12038 120.055 6.53528 119.334 6.3042C120.237 5.99045 120.326 5.39898 120.326 5.04071C120.326 3.59277 119.012 3.40834 118.471 3.40834H115.984V9.01562H117.021V6.71547H117.837C119.012 6.71547 119.109 7.25606 119.109 7.75001C119.109 8.70611 119.109 8.88631 119.334 9.01562H120.373C120.148 8.78879 120.237 8.61283 120.148 7.75001ZM118.244 5.89717H117.021V4.13124H118.068C118.793 4.13124 119.285 4.3602 119.285 5.04071C119.285 5.39898 119.109 5.89717 118.244 5.89717Z" fill="#D91920"/>
</g>
<defs>
<clipPath id="clip0_226_6349">
<rect width="133.277" height="65" fill="white"/>
</clipPath>
</defs>
</svg>
