<svg width="118" height="58" viewBox="0 0 118 58" fill="none" xmlns="http://www.w3.org/2000/svg">
<g clip-path="url(#clip0_228_12709)">
<path d="M-0.0078125 57.913H59.5695L117.992 0H-0.0078125V57.913Z" fill="#014185"/>
<path fill-rule="evenodd" clip-rule="evenodd" d="M69.9616 10.8872L58.4156 10.8849V38.2784L48.2552 10.8849H38.3256L29.5507 33.7945C28.627 28.0236 22.6231 26.029 17.7738 24.5358C14.7718 23.5328 11.308 22.058 11.5389 20.4458C11.5389 19.1084 13.1554 17.881 16.6192 18.0642C18.9284 18.181 21.0066 18.371 25.1632 20.3359L29.3197 13.3581C25.3941 11.4711 20.3139 10.278 16.1573 10.2734C11.0771 10.2734 6.92053 11.8581 4.38041 14.4848C2.76397 16.3123 1.60938 18.6321 1.60938 21.2038C1.60938 24.7419 2.99489 27.2518 5.53501 29.2511C8.07513 30.9342 10.8462 32.0312 13.6172 32.835C16.8501 33.8266 19.3902 34.6853 19.3902 36.5265C19.3902 37.2067 19.1593 37.825 18.6974 38.3219C17.7738 39.1441 16.6192 39.4555 14.7718 39.4944C11.5389 39.554 9.22973 39.0433 5.30409 36.7693L1.60938 43.8341C5.53501 46.0234 10.1534 47.3104 14.7718 47.3104L15.4646 47.3058C19.3902 47.2325 22.854 46.076 25.3941 43.9738C25.625 43.8501 25.625 43.7356 25.8559 43.6211L24.7014 46.6966H35.3237L36.9401 41.3654C38.7875 41.9791 40.8657 42.3364 43.1749 42.3364C45.4841 42.3364 47.3315 41.9906 49.1788 41.4089L51.0262 46.6966H68.1143V35.638H72.0399C81.0458 35.638 86.3569 31.0556 86.3569 23.3702C86.3569 14.8146 81.2767 10.8872 69.9616 10.8872ZM43.1749 34.3395C41.7894 34.3395 40.6348 34.1014 39.4802 33.6846L43.1749 22.1611L46.8696 33.7212C45.715 34.1151 44.5605 34.3395 43.1749 34.3395ZM70.6544 27.7121H68.1143V18.4214H70.6544C74.1182 18.4214 76.8892 19.5458 76.8892 23.0198C76.8892 26.5923 74.1182 27.7121 70.6544 27.7121Z" fill="white"/>
<path d="M74.119 54.211C74.119 52.4407 75.5045 51.0919 77.1209 51.0919C78.7374 51.0919 80.1229 52.4407 80.1229 54.211C80.1229 56.0476 78.7374 57.3712 77.1209 57.3712C75.5045 57.3712 74.119 56.0476 74.119 54.211ZM77.1209 57.9987C79.1992 57.9987 81.0466 56.3934 81.0466 54.211C81.0466 52.0606 79.1992 50.4805 77.1209 50.4805C75.0427 50.4805 73.1953 52.0606 73.1953 54.211C73.1953 56.3934 75.0427 57.9987 77.1209 57.9987ZM76.4282 54.5247H77.1209L78.2756 56.3934H78.9683L77.8137 54.4881C78.2755 54.4102 78.9683 54.0736 78.9683 53.3041C78.9683 52.4407 78.2755 52.0606 77.3519 52.0606H75.7354V56.3934H76.4282V54.5247ZM76.4282 53.9659V52.6125H77.3519C77.5828 52.6125 78.2756 52.7178 78.2756 53.2652C78.2756 53.9224 77.5828 53.9659 77.1209 53.9659H76.4282Z" fill="#014185"/>
</g>
<defs>
<clipPath id="clip0_228_12709">
<rect width="118" height="58" fill="white"/>
</clipPath>
</defs>
</svg>
