<svg width="497" height="497" viewBox="0 0 497 497" fill="none" xmlns="http://www.w3.org/2000/svg">
<g opacity="0.5">
<path d="M394.933 323.376C394.42 325.151 392.668 326.169 390.997 325.617C389.352 325.064 388.409 323.173 388.921 321.369C389.433 319.565 391.185 318.576 392.857 319.129C394.528 319.681 395.445 321.573 394.933 323.376Z" fill="#D0D0D0"/>
<path d="M248.296 379.673C247.514 382.437 244.792 383.979 242.23 383.135C239.669 382.292 238.241 379.353 239.022 376.589C239.804 373.825 242.527 372.283 245.088 373.127C247.649 373.971 249.078 376.909 248.296 379.673Z" fill="#D0D0D0"/>
<path d="M242.96 463.49C242.178 466.254 239.456 467.796 236.895 466.952C234.333 466.108 232.905 463.17 233.686 460.406C234.468 457.642 237.191 456.1 239.752 456.944C242.313 457.787 243.742 460.726 242.96 463.49Z" fill="#D0D0D0"/>
<path d="M177.82 464.844C177.385 466.38 175.872 467.237 174.449 466.768C173.025 466.299 172.231 464.666 172.666 463.13C173.1 461.593 174.613 460.736 176.037 461.205C177.46 461.674 178.254 463.307 177.82 464.844Z" fill="#D0D0D0"/>
<path d="M362.707 350.346C362.034 352.674 359.742 353.983 357.585 353.255C355.429 352.528 354.215 350.055 354.889 347.728C355.563 345.4 357.855 344.091 360.012 344.818C362.168 345.546 363.354 348.019 362.707 350.346Z" fill="#D0D0D0"/>
<path d="M305.667 405.42C305.343 406.555 304.238 407.195 303.187 406.846C302.135 406.497 301.542 405.304 301.866 404.169C302.189 403.035 303.295 402.395 304.346 402.744C305.397 403.093 305.99 404.286 305.667 405.42Z" fill="#D0D0D0"/>
<path d="M355.858 393.988C356.387 390.842 354.453 387.829 351.537 387.258C348.622 386.687 345.83 388.775 345.301 391.921C344.772 395.067 346.707 398.08 349.622 398.651C352.537 399.221 355.329 397.134 355.858 393.988Z" fill="#D0D0D0"/>
<path d="M47.9987 405.479C47.6482 406.672 46.462 407.37 45.3567 406.992C44.2514 406.613 43.6044 405.333 43.9549 404.14C44.3053 402.948 45.4915 402.249 46.5969 402.627C47.7022 402.977 48.3222 404.257 47.9987 405.479Z" fill="#D0D0D0"/>
<path d="M148.661 442.079C148.202 443.708 146.585 444.61 145.075 444.116C143.565 443.621 142.73 441.875 143.188 440.246C143.646 438.617 145.264 437.715 146.773 438.21C148.283 438.704 149.146 440.45 148.661 442.079Z" fill="#D0D0D0"/>
<path d="M88.2188 442.922C87.6257 445.017 85.5769 446.181 83.6358 445.541C81.6948 444.901 80.6165 442.69 81.2095 440.595C81.8026 438.5 83.8515 437.336 85.7925 437.976C87.7336 438.645 88.8119 440.857 88.2188 442.922Z" fill="#D0D0D0"/>
<path d="M258.325 347.99C257.921 349.387 256.573 350.143 255.279 349.707C253.985 349.27 253.284 347.816 253.689 346.419C254.093 345.023 255.441 344.266 256.735 344.702C258.002 345.139 258.73 346.594 258.325 347.99Z" fill="#D0D0D0"/>
<path d="M256.149 445.395C255.852 446.471 254.774 447.082 253.777 446.733C252.779 446.413 252.213 445.25 252.537 444.173C252.833 443.097 253.911 442.486 254.909 442.835C255.906 443.184 256.446 444.319 256.149 445.395Z" fill="#D0D0D0"/>
<path d="M395.518 405.421C395.195 406.556 394.062 407.196 393.011 406.847C391.96 406.498 391.366 405.276 391.69 404.141C392.013 403.006 393.146 402.366 394.197 402.715C395.275 403.094 395.842 404.286 395.518 405.421Z" fill="#D0D0D0"/>
<path d="M377.78 439.868C377.241 441.788 375.327 442.865 373.548 442.283C371.769 441.701 370.771 439.635 371.31 437.715C371.849 435.795 373.764 434.719 375.543 435.3C377.322 435.882 378.347 437.948 377.78 439.868Z" fill="#D0D0D0"/>
<path d="M285.556 428.114C285.125 429.626 283.615 430.499 282.213 430.005C280.811 429.539 280.002 427.91 280.461 426.397C280.892 424.884 282.402 424.011 283.804 424.506C285.205 424.972 285.987 426.601 285.556 428.114Z" fill="#D0D0D0"/>
<path d="M201.23 434.98C200.987 435.794 200.205 436.231 199.451 435.998C198.696 435.736 198.291 434.892 198.507 434.078C198.723 433.263 199.531 432.827 200.286 433.059C201.041 433.321 201.472 434.194 201.23 434.98Z" fill="#D0D0D0"/>
<path d="M132.673 422.557C131.972 425.03 129.519 426.427 127.227 425.67C124.936 424.914 123.642 422.266 124.343 419.793C125.044 417.32 127.497 415.924 129.789 416.68C132.107 417.437 133.401 420.055 132.673 422.557Z" fill="#D0D0D0"/>
<path d="M29.1816 434.805C28.3998 437.511 25.7309 439.053 23.2237 438.209C20.7166 437.366 19.2878 434.485 20.0696 431.78C20.8514 429.074 23.5203 427.532 26.0275 428.376C28.5346 429.219 29.9635 432.1 29.1816 434.805Z" fill="#D0D0D0"/>
<path d="M9.36327 377.404C8.79713 379.353 6.88305 380.459 5.07681 379.848C3.27057 379.237 2.24614 377.171 2.81228 375.222C3.37841 373.272 5.29248 372.167 7.09872 372.778C8.90496 373.36 9.9294 375.454 9.36327 377.404Z" fill="#D0D0D0"/>
<path d="M445.071 403.792C444.343 406.352 441.836 407.777 439.464 406.963C437.091 406.177 435.77 403.471 436.525 400.911C437.253 398.351 439.76 396.925 442.132 397.74C444.478 398.555 445.799 401.26 445.071 403.792Z" fill="#D0D0D0"/>
<path d="M468.145 305.887C467.417 308.447 464.91 309.873 462.538 309.058C460.165 308.273 458.844 305.567 459.599 303.007C460.327 300.447 462.834 299.021 465.207 299.836C467.552 300.65 468.873 303.356 468.145 305.887Z" fill="#D0D0D0"/>
<path d="M336.806 436.231C336.536 437.191 335.593 437.715 334.703 437.424C333.813 437.133 333.328 436.115 333.598 435.155C333.867 434.195 334.811 433.671 335.701 433.962C336.59 434.253 337.102 435.271 336.806 436.231Z" fill="#D0D0D0"/>
<path d="M310.734 369.868C310.303 371.352 308.847 372.167 307.499 371.701C306.124 371.236 305.37 369.665 305.801 368.21C306.232 366.726 307.688 365.911 309.036 366.377C310.384 366.813 311.139 368.384 310.734 369.868Z" fill="#D0D0D0"/>
<path d="M7.39698 447.112C7.18131 447.897 6.37255 448.363 5.64466 448.101C4.91677 447.868 4.48542 446.995 4.72805 446.21C4.94372 445.424 5.75249 444.959 6.48038 445.221C7.20826 445.483 7.61265 446.326 7.39698 447.112Z" fill="#D0D0D0"/>
<path d="M213.809 440.988C214.14 439.438 213.244 437.892 211.808 437.534C210.372 437.177 208.939 438.143 208.608 439.693C208.276 441.243 209.172 442.79 210.608 443.147C212.045 443.505 213.477 442.538 213.809 440.988Z" fill="#D0D0D0"/>
<path d="M285.074 411.327C284.508 410.366 283.349 410.075 282.432 410.657C281.543 411.268 281.273 412.519 281.812 413.509C282.378 414.469 283.538 414.76 284.454 414.178C285.344 413.567 285.613 412.287 285.074 411.327Z" fill="#D0D0D0"/>
<path d="M354.489 443.417C353.734 442.137 352.17 441.73 350.984 442.544C349.798 443.359 349.421 445.046 350.176 446.326C350.93 447.607 352.494 448.014 353.68 447.199C354.893 446.385 355.244 444.697 354.489 443.417Z" fill="#D0D0D0"/>
<path d="M430.299 367.511C429.868 366.755 428.951 366.522 428.25 366.988C427.549 367.453 427.334 368.442 427.765 369.199C428.196 369.955 429.113 370.188 429.814 369.723C430.515 369.257 430.731 368.268 430.299 367.511Z" fill="#D0D0D0"/>
<path d="M212.71 270.775C211.659 271.91 209.961 271.91 208.909 270.805C207.858 269.67 207.858 267.837 208.882 266.702C209.934 265.568 211.632 265.568 212.683 266.673C213.735 267.808 213.735 269.641 212.71 270.775Z" fill="#D0D0D0"/>
<path d="M195.217 327.682C193.599 329.428 190.984 329.457 189.34 327.711C187.722 325.966 187.695 323.144 189.313 321.369C190.931 319.623 193.546 319.594 195.19 321.34C196.808 323.085 196.835 325.907 195.217 327.682Z" fill="#D0D0D0"/>
<path d="M233.093 294.021C231.745 295.505 229.507 295.505 228.132 294.05C226.757 292.595 226.757 290.18 228.105 288.697C229.453 287.213 231.691 287.213 233.066 288.667C234.441 290.151 234.468 292.537 233.093 294.021Z" fill="#D0D0D0"/>
<path d="M141.678 312.292C141.004 313.019 139.926 313.019 139.279 312.292C138.605 311.565 138.605 310.401 139.279 309.703C139.953 308.975 141.031 308.975 141.678 309.703C142.325 310.43 142.325 311.594 141.678 312.292Z" fill="#D0D0D0"/>
<path d="M277.956 303.738C277.012 304.785 275.449 304.785 274.505 303.738C273.535 302.72 273.535 301.032 274.505 300.014C275.449 298.967 277.012 298.967 277.956 300.014C278.9 301.061 278.9 302.691 277.956 303.738Z" fill="#D0D0D0"/>
<path d="M184.084 386.83C183.275 387.703 181.954 387.703 181.146 386.83C180.337 385.957 180.337 384.531 181.146 383.659C181.954 382.786 183.275 382.786 184.084 383.659C184.893 384.531 184.893 385.957 184.084 386.83Z" fill="#D0D0D0"/>
<path d="M138.335 371.439C137.715 372.137 136.691 372.137 136.044 371.439C135.397 370.77 135.397 369.664 136.044 368.966C136.664 368.268 137.688 368.268 138.335 368.966C138.982 369.664 138.982 370.77 138.335 371.439Z" fill="#D0D0D0"/>
<path d="M125.324 356.686C126.624 353.599 125.36 349.96 122.5 348.557C119.639 347.154 116.267 348.519 114.967 351.606C113.667 354.692 114.932 358.332 117.792 359.735C120.652 361.137 124.024 359.773 125.324 356.686Z" fill="#D0D0D0"/>
<path d="M54.2345 472.037C55.5345 468.95 54.2698 465.311 51.4097 463.908C48.5496 462.505 45.1772 463.87 43.8773 466.956C42.5773 470.043 43.842 473.682 46.7021 475.085C49.5622 476.488 52.9345 475.123 54.2345 472.037Z" fill="#D0D0D0"/>
<path d="M207.888 380.72C206.325 382.407 203.79 382.407 202.227 380.749C200.663 379.062 200.663 376.327 202.2 374.639C203.764 372.952 206.298 372.952 207.861 374.61C209.425 376.298 209.425 379.033 207.888 380.72Z" fill="#D0D0D0"/>
<path d="M229.291 335.334C228.617 336.061 227.539 336.061 226.865 335.334C226.191 334.607 226.191 333.443 226.865 332.715C227.539 331.988 228.617 331.988 229.291 332.715C229.938 333.443 229.938 334.607 229.291 335.334Z" fill="#D0D0D0"/>
<path d="M157.286 398.002C156.154 399.224 154.321 399.224 153.189 398.031C152.056 396.809 152.056 394.831 153.162 393.609C154.294 392.387 156.127 392.387 157.259 393.58C158.392 394.801 158.419 396.78 157.286 398.002Z" fill="#D0D0D0"/>
<path d="M118.086 320.904C117.196 321.864 115.74 321.864 114.851 320.904C113.961 319.944 113.961 318.373 114.851 317.412C115.74 316.452 117.196 316.452 118.086 317.412C118.976 318.373 118.976 319.944 118.086 320.904Z" fill="#D0D0D0"/>
<path d="M317.933 287.736C317.448 288.26 316.693 288.26 316.208 287.736C315.722 287.212 315.722 286.398 316.208 285.874C316.693 285.351 317.448 285.351 317.933 285.874C318.418 286.398 318.418 287.242 317.933 287.736Z" fill="#D0D0D0"/>
<path d="M293.456 285.002C292 286.573 289.655 286.602 288.199 285.031C286.743 283.46 286.716 280.929 288.172 279.358C289.628 277.787 291.973 277.758 293.429 279.329C294.885 280.871 294.885 283.402 293.456 285.002Z" fill="#D0D0D0"/>
<path d="M158.906 306.647C157.423 308.276 154.997 308.276 153.487 306.676C151.978 305.076 151.978 302.457 153.46 300.828C154.943 299.199 157.369 299.199 158.879 300.799C160.389 302.399 160.389 305.018 158.906 306.647Z" fill="#D0D0D0"/>
<path d="M90.3719 361.199C89.8058 361.81 88.8892 361.81 88.323 361.199C87.7569 360.588 87.7569 359.598 88.323 358.988C88.8892 358.377 89.8058 358.377 90.3719 358.988C90.9111 359.598 90.938 360.588 90.3719 361.199Z" fill="#D0D0D0"/>
<path d="M296.661 233.011C295.798 233.942 294.396 233.942 293.534 233.011C292.671 232.08 292.671 230.567 293.534 229.636C294.396 228.705 295.798 228.705 296.661 229.636C297.524 230.538 297.524 232.051 296.661 233.011Z" fill="#D0D0D0"/>
<path d="M225.115 337.313C225.007 335.945 223.929 334.927 222.662 335.043C221.395 335.16 220.451 336.323 220.559 337.691C220.667 339.058 221.745 340.076 223.012 339.96C224.279 339.844 225.223 338.651 225.115 337.313Z" fill="#D0D0D0"/>
<path d="M60.5287 341.444C60.4478 340.163 59.3964 339.174 58.1833 339.291C56.9971 339.378 56.0805 340.512 56.1883 341.822C56.2692 343.102 57.3206 344.091 58.5337 343.975C59.7199 343.858 60.6096 342.724 60.5287 341.444Z" fill="#D0D0D0"/>
<path d="M162.675 353.78C162.621 353.023 162.001 352.47 161.3 352.529C160.599 352.587 160.087 353.256 160.141 354.012C160.195 354.769 160.815 355.322 161.516 355.263C162.216 355.205 162.729 354.536 162.675 353.78Z" fill="#D0D0D0"/>
<path d="M388.673 125.277C390.911 123.386 394.146 123.823 395.898 126.267C397.65 128.681 397.246 132.173 394.981 134.064C392.744 135.955 389.509 135.518 387.756 133.074C386.031 130.631 386.435 127.168 388.673 125.277Z" fill="#D0D0D0"/>
<path d="M430.836 223.44C432.13 222.363 433.963 222.625 434.988 223.993C435.985 225.389 435.743 227.397 434.476 228.473C433.182 229.549 431.348 229.288 430.324 227.92C429.327 226.524 429.542 224.516 430.836 223.44Z" fill="#D0D0D0"/>
<path d="M350.986 310.256C352.334 309.121 354.302 309.383 355.353 310.837C356.405 312.292 356.162 314.416 354.814 315.551C353.466 316.685 351.498 316.423 350.447 314.969C349.396 313.485 349.638 311.39 350.986 310.256Z" fill="#D0D0D0"/>
<path d="M461.115 237.47C462.463 236.336 464.431 236.598 465.482 238.052C466.534 239.507 466.291 241.631 464.943 242.765C463.595 243.9 461.627 243.638 460.576 242.184C459.524 240.7 459.767 238.605 461.115 237.47Z" fill="#D0D0D0"/>
<path d="M405.576 255.588C407.409 254.075 410.024 254.424 411.426 256.373C412.828 258.352 412.505 261.174 410.698 262.687C408.865 264.199 406.25 263.85 404.848 261.901C403.446 259.952 403.743 257.101 405.576 255.588Z" fill="#D0D0D0"/>
<path d="M457.486 155.078C459.32 153.565 461.935 153.914 463.336 155.863C464.738 157.842 464.415 160.664 462.608 162.177C460.775 163.69 458.16 163.341 456.758 161.391C455.357 159.442 455.653 156.591 457.486 155.078Z" fill="#D0D0D0"/>
<path d="M379.91 250.264C381.204 249.188 383.064 249.42 384.062 250.817C385.059 252.213 384.844 254.221 383.55 255.297C382.256 256.374 380.395 256.141 379.398 254.745C378.374 253.377 378.616 251.37 379.91 250.264Z" fill="#D0D0D0"/>
<path d="M283.05 334.81C284.101 333.908 285.638 334.141 286.447 335.276C287.282 336.41 287.067 338.069 286.015 338.941C284.964 339.843 283.427 339.611 282.619 338.476C281.783 337.37 281.972 335.712 283.05 334.81Z" fill="#D0D0D0"/>
<path d="M459.53 352.82C460.582 351.918 462.118 352.151 462.927 353.285C463.763 354.42 463.547 356.078 462.496 356.951C461.444 357.853 459.908 357.62 459.099 356.486C458.263 355.38 458.452 353.722 459.53 352.82Z" fill="#D0D0D0"/>
<path d="M365.68 274.499C366.92 273.451 368.726 273.713 369.67 275.051C370.613 276.39 370.398 278.339 369.157 279.357C367.917 280.405 366.111 280.143 365.167 278.805C364.224 277.466 364.44 275.546 365.68 274.499Z" fill="#D0D0D0"/>
<path d="M319.878 311.274C320.795 310.517 322.089 310.692 322.79 311.681C323.491 312.67 323.329 314.067 322.412 314.823C321.496 315.58 320.202 315.405 319.501 314.416C318.827 313.456 318.989 312.059 319.878 311.274Z" fill="#D0D0D0"/>
<path d="M425.579 318.198C426.28 317.616 427.278 317.762 427.817 318.489C428.356 319.216 428.221 320.322 427.547 320.904C426.846 321.485 425.849 321.34 425.31 320.613C424.771 319.856 424.878 318.78 425.579 318.198Z" fill="#D0D0D0"/>
<path d="M410.834 368.704C411.562 368.093 412.587 368.239 413.153 369.024C413.719 369.81 413.584 370.915 412.856 371.526C412.128 372.137 411.104 371.992 410.538 371.206C409.999 370.421 410.133 369.315 410.834 368.704Z" fill="#D0D0D0"/>
<path d="M364.329 189.429C364.896 188.963 365.704 189.08 366.136 189.662C366.567 190.273 366.459 191.145 365.92 191.611C365.354 192.076 364.545 191.96 364.114 191.378C363.682 190.767 363.79 189.894 364.329 189.429Z" fill="#D0D0D0"/>
<path d="M395.01 153.411C395.899 152.684 397.166 152.829 397.867 153.789C398.541 154.749 398.407 156.117 397.517 156.873C396.627 157.601 395.36 157.455 394.659 156.495C393.958 155.506 394.12 154.138 395.01 153.411Z" fill="#D0D0D0"/>
<path d="M424.38 94.5488C424.622 92.4762 423.261 90.5848 421.34 90.3241C419.42 90.0634 417.667 91.5322 417.426 93.6047C417.184 95.6773 418.545 97.5688 420.466 97.8294C422.386 98.0901 424.139 96.6213 424.38 94.5488Z" fill="#D0D0D0"/>
<path d="M426.252 141.046C428.247 139.387 431.105 139.766 432.668 141.919C434.205 144.072 433.855 147.156 431.86 148.843C429.865 150.501 427.007 150.123 425.444 147.97C423.88 145.817 424.257 142.704 426.252 141.046Z" fill="#D0D0D0"/>
<path d="M382.225 199.496C383.411 198.506 385.137 198.739 386.08 200.019C386.997 201.299 386.781 203.161 385.595 204.18C384.409 205.169 382.683 204.936 381.74 203.656C380.796 202.347 381.012 200.485 382.225 199.496Z" fill="#D0D0D0"/>
<path d="M463.42 110.528C464.607 109.539 466.332 109.771 467.275 111.051C468.192 112.332 467.976 114.194 466.79 115.212C465.604 116.201 463.879 115.968 462.935 114.688C461.991 113.379 462.207 111.517 463.42 110.528Z" fill="#D0D0D0"/>
<path d="M360.88 83.3533C362.309 82.1605 364.385 82.4223 365.49 83.9934C366.595 85.5353 366.353 87.7756 364.897 88.9684C363.441 90.1613 361.392 89.8994 360.287 88.3283C359.208 86.7864 359.451 84.5462 360.88 83.3533Z" fill="#D0D0D0"/>
<path d="M410.106 21.7908C411.723 20.4233 414.042 20.7434 415.309 22.489C416.576 24.2346 416.28 26.7367 414.662 28.1041C413.044 29.4715 410.726 29.1515 409.459 27.4058C408.192 25.6602 408.488 23.1582 410.106 21.7908Z" fill="#D0D0D0"/>
<path d="M438.71 270.687C439.761 269.815 441.244 270.018 442.053 271.153C442.862 272.288 442.673 273.888 441.621 274.76C440.57 275.633 439.087 275.43 438.279 274.295C437.47 273.16 437.658 271.56 438.71 270.687Z" fill="#D0D0D0"/>
<path d="M388.513 220.938C389.349 220.239 390.562 220.414 391.209 221.316C391.856 222.218 391.695 223.527 390.859 224.225C390.023 224.923 388.81 224.749 388.163 223.847C387.516 222.945 387.678 221.636 388.513 220.938Z" fill="#D0D0D0"/>
<path d="M460.134 185.115C460.97 184.417 462.183 184.592 462.83 185.494C463.477 186.395 463.316 187.705 462.48 188.403C461.644 189.101 460.431 188.927 459.784 188.025C459.137 187.123 459.299 185.814 460.134 185.115Z" fill="#D0D0D0"/>
<path d="M464.447 56.5206C465.283 55.8223 466.496 55.9969 467.143 56.8988C467.79 57.8007 467.628 59.1099 466.792 59.8082C465.957 60.5064 464.744 60.3318 464.097 59.4299C463.449 58.528 463.611 57.2188 464.447 56.5206Z" fill="#D0D0D0"/>
<path d="M341.118 260.389C342.25 259.458 343.868 259.661 344.757 260.883C345.62 262.105 345.431 263.851 344.299 264.811C343.167 265.742 341.549 265.538 340.66 264.316C339.797 263.095 339.986 261.349 341.118 260.389Z" fill="#D0D0D0"/>
<path d="M421.265 189.312C421.858 188.818 422.694 188.934 423.152 189.574C423.61 190.214 423.502 191.116 422.909 191.611C422.316 192.105 421.48 191.989 421.022 191.349C420.564 190.709 420.672 189.807 421.265 189.312Z" fill="#D0D0D0"/>
<path d="M362.925 85.9195L362.891 86.208L421.12 94.3569L421.154 94.0684L362.925 85.9195Z" fill="#D0D0D0"/>
<path d="M392.044 129.546L391.949 129.818L429.161 144.95L429.256 144.677L392.044 129.546Z" fill="#D0D0D0"/>
<path d="M429.06 144.857L420.973 94.234L421.242 94.1758L429.33 144.799L429.06 144.857Z" fill="#D0D0D0"/>
<path d="M392.098 129.787L391.883 129.613L420.998 94.1182L421.214 94.2927L392.098 129.787Z" fill="#D0D0D0"/>
<path d="M365.19 190.399L365.059 190.653L383.835 201.985L383.967 201.732L365.19 190.399Z" fill="#D0D0D0"/>
<path d="M422.348 190.451L383.867 201.721L383.938 202.001L422.418 190.732L422.348 190.451Z" fill="#D0D0D0"/>
<path d="M422.401 190.418H365.141V190.709H422.401V190.418Z" fill="#D0D0D0"/>
<path d="M391.881 129.787L362.766 86.1462L362.981 85.9717L392.097 129.612L391.881 129.787Z" fill="#D0D0D0"/>
<path d="M396.142 155.272L391.855 129.728L392.125 129.67L396.411 155.214L396.142 155.272Z" fill="#D0D0D0"/>
<path d="M429.136 144.715L396.227 155.114L396.302 155.393L429.212 144.994L429.136 144.715Z" fill="#D0D0D0"/>
<path d="M422.512 190.592L422.27 190.563L429.063 144.799L429.333 144.857L422.512 190.592Z" fill="#D0D0D0"/>
<path d="M432.514 226.029L422.27 190.621L422.512 190.534L432.783 225.941L432.514 226.029Z" fill="#D0D0D0"/>
<path d="M432.589 226.116L383.848 201.997L383.955 201.735L432.697 225.854L432.589 226.116Z" fill="#D0D0D0"/>
<path d="M389.535 222.653L383.766 201.91L384.035 201.822L389.804 222.566L389.535 222.653Z" fill="#D0D0D0"/>
<path d="M389.668 222.493L389.648 222.783L432.612 226.172L432.632 225.882L389.668 222.493Z" fill="#D0D0D0"/>
<path d="M432.559 225.845L381.66 252.723L381.779 252.984L432.677 226.106L432.559 225.845Z" fill="#D0D0D0"/>
<path d="M365.306 190.492L365.047 190.572L381.649 252.872L381.908 252.791L365.306 190.492Z" fill="#D0D0D0"/>
<path d="M365.22 190.651L365.031 190.448L396.169 155.128L396.384 155.332L365.22 190.651Z" fill="#D0D0D0"/>
<path d="M422.295 190.68L396.172 155.332L396.388 155.128L422.484 190.477L422.295 190.68Z" fill="#D0D0D0"/>
<path d="M381.691 252.692L342.676 262.502L342.737 262.785L381.752 252.976L381.691 252.692Z" fill="#D0D0D0"/>
<path d="M381.731 252.704L381.672 252.988L408.089 259.347L408.148 259.063L381.731 252.704Z" fill="#D0D0D0"/>
<path d="M408.124 259.093L367.418 276.885L367.519 277.154L408.225 259.363L408.124 259.093Z" fill="#D0D0D0"/>
<path d="M342.768 262.525L342.641 262.781L367.357 277.125L367.484 276.869L342.768 262.525Z" fill="#D0D0D0"/>
<path d="M408.216 259.076L408.121 259.348L440.45 272.536L440.545 272.264L408.216 259.076Z" fill="#D0D0D0"/>
<path d="M408.247 259.283L408.031 259.108L432.537 225.912L432.752 226.087L408.247 259.283Z" fill="#D0D0D0"/>
<path d="M432.789 226.007L432.523 226.059L440.337 272.46L440.602 272.408L432.789 226.007Z" fill="#D0D0D0"/>
<path d="M321.031 313.106L316.934 286.835L317.203 286.776L321.274 313.077L321.031 313.106Z" fill="#D0D0D0"/>
<path d="M352.918 312.662L321.16 312.93L321.162 313.221L352.92 312.953L352.918 312.662Z" fill="#D0D0D0"/>
<path d="M352.817 312.903L316.988 286.922L317.15 286.689L352.978 312.67L352.817 312.903Z" fill="#D0D0D0"/>
<path d="M407.971 259.164L391.828 322.324L392.088 322.402L408.231 259.241L407.971 259.164Z" fill="#D0D0D0"/>
<path d="M440.352 272.267L391.824 322.234L392.01 322.445L440.538 272.477L440.352 272.267Z" fill="#D0D0D0"/>
<path d="M426.688 319.594L426.418 319.507L440.329 272.346L440.598 272.433L426.688 319.594Z" fill="#D0D0D0"/>
<path d="M426.528 319.414L391.902 322.205L391.922 322.495L426.548 319.704L426.528 319.414Z" fill="#D0D0D0"/>
<path d="M367.565 276.874L367.332 277.021L391.833 322.393L392.066 322.246L367.565 276.874Z" fill="#D0D0D0"/>
<path d="M429.037 368.211L411.859 369.956L411.885 370.246L429.062 368.5L429.037 368.211Z" fill="#D0D0D0"/>
<path d="M411.996 370.159L411.727 370.072L426.419 319.507L426.689 319.594L411.996 370.159Z" fill="#D0D0D0"/>
<path d="M426.689 319.562L426.418 319.578L428.891 368.383L429.162 368.367L426.689 319.562Z" fill="#D0D0D0"/>
<path d="M353.047 312.81L352.781 312.86L358.767 349.95L359.033 349.901L353.047 312.81Z" fill="#D0D0D0"/>
<path d="M358.748 349.859L350.461 392.93L350.725 392.989L359.012 349.919L358.748 349.859Z" fill="#D0D0D0"/>
<path d="M411.826 369.963L350.562 392.778L350.65 393.053L411.914 370.238L411.826 369.963Z" fill="#D0D0D0"/>
<path d="M392.039 322.337L391.793 322.456L411.718 370.206L411.964 370.086L392.039 322.337Z" fill="#D0D0D0"/>
<path d="M391.876 322.25L358.828 349.754L358.993 349.984L392.04 322.48L391.876 322.25Z" fill="#D0D0D0"/>
<path d="M321.255 312.993L321.074 313.209L358.806 349.989L358.987 349.773L321.255 312.993Z" fill="#D0D0D0"/>
<path d="M321.066 312.962L284.426 336.796L284.565 337.045L321.205 313.211L321.066 312.962Z" fill="#D0D0D0"/>
<path d="M316.946 286.7L284.371 336.81L284.592 336.977L317.167 286.868L316.946 286.7Z" fill="#D0D0D0"/>
<path d="M342.649 262.565L317 286.732L317.177 286.952L342.826 262.784L342.649 262.565Z" fill="#D0D0D0"/>
<path d="M342.656 262.775L295.02 231.441L295.154 231.179L342.791 262.513L342.656 262.775Z" fill="#D0D0D0"/>
<path d="M290.707 282.354L290.438 282.325L294.967 231.295L295.236 231.324L290.707 282.354Z" fill="#D0D0D0"/>
<path d="M342.668 262.532L290.492 282.19L290.581 282.465L342.757 262.807L342.668 262.532Z" fill="#D0D0D0"/>
<path d="M342.838 262.617L342.574 262.68L352.762 312.839L353.025 312.776L342.838 262.617Z" fill="#D0D0D0"/>
<path d="M367.354 276.886L352.781 312.688L353.028 312.805L367.601 277.003L367.354 276.886Z" fill="#D0D0D0"/>
<path d="M381.631 252.734L367.312 276.869L367.54 277.026L381.858 252.891L381.631 252.734Z" fill="#D0D0D0"/>
<path d="M389.524 222.567L381.566 252.791L381.826 252.871L389.783 222.646L389.524 222.567Z" fill="#D0D0D0"/>
<path d="M284.397 336.963L276.066 301.876L276.336 301.789L284.666 336.905L284.397 336.963Z" fill="#D0D0D0"/>
<path d="M284.668 336.934L284.398 336.905L290.437 282.325L290.707 282.354L284.668 336.934Z" fill="#D0D0D0"/>
<path d="M290.474 282.225L276.137 301.74L276.348 301.921L290.686 282.406L290.474 282.225Z" fill="#D0D0D0"/>
<path d="M374.653 438.849L374.438 438.704L393.47 404.693L393.713 404.839L374.653 438.849Z" fill="#D0D0D0"/>
<path d="M440.716 402.252L374.453 438.641L374.575 438.9L440.838 402.511L440.716 402.252Z" fill="#D0D0D0"/>
<path d="M440.808 402.218L393.602 404.603L393.614 404.893L440.821 402.509L440.808 402.218Z" fill="#D0D0D0"/>
<path d="M350.758 392.867L350.523 393.01L374.479 438.856L374.713 438.713L350.758 392.867Z" fill="#D0D0D0"/>
<path d="M374.558 438.643L352.332 444.783L352.399 445.065L374.625 438.925L374.558 438.643Z" fill="#D0D0D0"/>
<path d="M350.772 392.968L350.5 392.979L352.227 444.938L352.499 444.928L350.772 392.968Z" fill="#D0D0D0"/>
<path d="M411.826 369.963L350.562 392.778L350.65 393.053L411.914 370.238L411.826 369.963Z" fill="#D0D0D0"/>
<path d="M350.617 392.842L350.551 393.124L393.549 404.948L393.616 404.666L350.617 392.842Z" fill="#D0D0D0"/>
<path d="M393.711 404.839L393.469 404.694L411.747 370.043L411.963 370.188L393.711 404.839Z" fill="#D0D0D0"/>
<path d="M303.814 404.685L303.633 404.9L335.267 435.855L335.448 435.64L303.814 404.685Z" fill="#D0D0D0"/>
<path d="M303.78 404.897L303.699 404.635L350.581 392.794L350.635 393.085L303.78 404.897Z" fill="#D0D0D0"/>
<path d="M350.482 392.906L335.234 435.672L335.486 435.776L350.733 393.01L350.482 392.906Z" fill="#D0D0D0"/>
<path d="M308.305 368.893L308.18 369.15L350.533 393.059L350.658 392.801L308.305 368.893Z" fill="#D0D0D0"/>
<path d="M358.748 349.859L350.461 392.93L350.725 392.989L359.012 349.919L358.748 349.859Z" fill="#D0D0D0"/>
<path d="M308.284 369.17L308.203 368.908L358.832 349.735L358.94 349.997L308.284 369.17Z" fill="#D0D0D0"/>
<path d="M465.8 58.2453L412.422 25.0784L412.53 24.8457L465.908 58.0126L465.8 58.2453Z" fill="#D0D0D0"/>
<path d="M465.757 58.0028L420.992 94.0576L421.153 94.2908L465.919 58.236L465.757 58.0028Z" fill="#D0D0D0"/>
<path d="M421.12 94.0293L421.023 94.3008L465.775 112.918L465.872 112.647L421.12 94.0293Z" fill="#D0D0D0"/>
<path d="M465.745 112.701L429.09 144.708L429.259 144.934L465.915 112.928L465.745 112.701Z" fill="#D0D0D0"/>
<path d="M429.223 144.709L429.133 144.983L462.567 157.787L462.657 157.513L429.223 144.709Z" fill="#D0D0D0"/>
<path d="M462.51 157.461L422.285 190.446L422.448 190.678L462.673 157.692L462.51 157.461Z" fill="#D0D0D0"/>
<path d="M461.539 186.556L422.398 190.449L422.423 190.739L461.564 186.846L461.539 186.556Z" fill="#D0D0D0"/>
<path d="M461.435 186.603L432.559 225.906L432.77 226.087L461.646 186.783L461.435 186.603Z" fill="#D0D0D0"/>
<path d="M432.714 225.845L432.613 226.115L464.214 239.799L464.315 239.529L432.714 225.845Z" fill="#D0D0D0"/>
<path d="M464.117 239.555L440.348 272.274L440.56 272.454L464.329 239.734L464.117 239.555Z" fill="#D0D0D0"/>
<path d="M464.668 304.348L440.352 272.491L440.567 272.287L464.884 304.174L464.668 304.348Z" fill="#D0D0D0"/>
<path d="M464.706 304.077L426.492 319.381L426.586 319.654L464.8 304.35L464.706 304.077Z" fill="#D0D0D0"/>
<path d="M426.633 319.475L426.449 319.688L461.43 355.009L461.614 354.796L426.633 319.475Z" fill="#D0D0D0"/>
<path d="M461.485 354.701L428.98 368.207L429.077 368.479L461.581 354.973L461.485 354.701Z" fill="#D0D0D0"/>
<path d="M440.679 402.424L428.898 368.413L429.168 368.297L440.922 402.307L440.679 402.424Z" fill="#D0D0D0"/>
<path d="M411.952 370.018L411.758 370.221L440.689 402.475L440.883 402.273L411.952 370.018Z" fill="#D0D0D0"/>
<path d="M358.973 349.706L358.883 349.98L411.871 370.229L411.961 369.955L358.973 349.706Z" fill="#D0D0D0"/>
<path d="M440.662 402.31L389.172 469.462L389.38 469.647L440.87 402.496L440.662 402.31Z" fill="#D0D0D0"/>
<path d="M374.696 438.726L374.457 438.859L389.192 469.581L389.432 469.447L374.696 438.726Z" fill="#D0D0D0"/>
<path d="M321.046 313.066L308.121 369.018L308.383 369.088L321.308 313.137L321.046 313.066Z" fill="#D0D0D0"/>
<path d="M308.153 369.112L284.43 337.021L284.645 336.847L308.369 368.937L308.153 369.112Z" fill="#D0D0D0"/>
<path d="M284.501 336.833L255.984 347.091L256.07 347.367L284.587 337.109L284.501 336.833Z" fill="#D0D0D0"/>
<path d="M255.869 347.128L243.301 378.315L243.548 378.431L256.116 347.244L255.869 347.128Z" fill="#D0D0D0"/>
<path d="M243.522 378.281L243.355 378.51L283.342 412.54L283.509 412.311L243.522 378.281Z" fill="#D0D0D0"/>
<path d="M283.106 427.561L282.836 427.532L283.294 412.433H283.564L283.106 427.561Z" fill="#D0D0D0"/>
<path d="M283.075 427.649L282.859 427.445L303.645 404.665L303.833 404.869L283.075 427.649Z" fill="#D0D0D0"/>
<path d="M303.686 404.635L283.375 412.287L283.464 412.562L303.774 404.91L303.686 404.635Z" fill="#D0D0D0"/>
<path d="M256.117 347.157L255.871 347.277L283.285 412.476L283.531 412.356L256.117 347.157Z" fill="#D0D0D0"/>
<path d="M256.066 347.055L255.969 347.326L308.213 369.151L308.311 368.88L256.066 347.055Z" fill="#D0D0D0"/>
<path d="M283.563 412.491L283.32 412.346L308.122 368.967L308.365 369.112L283.563 412.491Z" fill="#D0D0D0"/>
<path d="M283.359 412.378L254.387 444.428L254.58 444.631L283.552 412.581L283.359 412.378Z" fill="#D0D0D0"/>
<path d="M282.893 427.416L254.422 444.356L254.552 444.611L283.023 427.671L282.893 427.416Z" fill="#D0D0D0"/>
<path d="M282.984 427.387L282.945 427.675L335.374 435.861L335.412 435.573L282.984 427.387Z" fill="#D0D0D0"/>
<path d="M335.449 435.635L335.328 435.895L352.266 445.07L352.387 444.81L335.449 435.635Z" fill="#D0D0D0"/>
<path d="M350.582 459.681L350.34 459.565C350.744 458.663 351.742 449.585 352.173 444.901L352.443 444.93C352.416 445.483 351.149 458.517 350.582 459.681Z" fill="#D0D0D0"/>
<path d="M230.155 290.756L192.441 324.538L192.614 324.762L230.328 290.98L230.155 290.756Z" fill="#D0D0D0"/>
<path d="M192.633 324.685L192.363 324.569L210.695 268.127L210.965 268.243L192.633 324.685Z" fill="#D0D0D0"/>
<path d="M230.129 290.966L210.719 268.273L210.934 268.099L230.345 290.792L230.129 290.966Z" fill="#D0D0D0"/>
<path d="M243.312 378.45L227.945 333.995L228.215 333.879L243.554 378.334L243.312 378.45Z" fill="#D0D0D0"/>
<path d="M222.826 337.343L222.59 337.482L243.337 378.427L243.574 378.288L222.826 337.343Z" fill="#D0D0D0"/>
<path d="M222.771 337.545L222.609 337.313L228.001 333.821L228.163 334.054L222.771 337.545Z" fill="#D0D0D0"/>
<path d="M228.148 333.829L228.039 334.096L255.969 347.368L256.077 347.102L228.148 333.829Z" fill="#D0D0D0"/>
<path d="M230.12 290.871L227.93 333.924L228.201 333.94L230.392 290.887L230.12 290.871Z" fill="#D0D0D0"/>
<path d="M230.339 290.806L230.098 290.935L255.882 347.279L256.124 347.15L230.339 290.806Z" fill="#D0D0D0"/>
<path d="M192.567 324.481L192.469 324.752L222.656 337.551L222.755 337.281L192.567 324.481Z" fill="#D0D0D0"/>
<path d="M205.57 377.636L205.301 377.519L222.554 337.37L222.824 337.486L205.57 377.636Z" fill="#D0D0D0"/>
<path d="M192.604 324.589L192.344 324.663L205.282 377.605L205.542 377.531L192.604 324.589Z" fill="#D0D0D0"/>
<path d="M192.374 324.594L182.145 385.102L182.41 385.154L192.64 324.646L192.374 324.594Z" fill="#D0D0D0"/>
<path d="M192.4 324.534L161.098 353.608L161.274 353.829L192.575 324.755L192.4 324.534Z" fill="#D0D0D0"/>
<path d="M161.347 353.642L161.129 353.812L182.154 385.229L182.372 385.059L161.347 353.642Z" fill="#D0D0D0"/>
<path d="M199.802 434.893L199.586 434.689L243.34 378.306L243.556 378.48L199.802 434.893Z" fill="#D0D0D0"/>
<path d="M205.439 377.432L205.434 377.723L243.438 378.531L243.443 378.24L205.439 377.432Z" fill="#D0D0D0"/>
<path d="M199.828 434.805L199.559 434.776L205.301 377.549L205.57 377.607L199.828 434.805Z" fill="#D0D0D0"/>
<path d="M211.593 440.435L211.57 440.725L254.495 444.651L254.518 444.361L211.593 440.435Z" fill="#D0D0D0"/>
<path d="M254.366 444.522L243.312 378.421L243.582 378.363L254.635 444.464L254.366 444.522Z" fill="#D0D0D0"/>
<path d="M243.317 378.292L211.434 440.451L211.669 440.592L243.553 378.433L243.317 378.292Z" fill="#D0D0D0"/>
<path d="M199.68 434.649L146.07 441.382L146.101 441.671L199.711 434.938L199.68 434.649Z" fill="#D0D0D0"/>
<path d="M211.578 440.425L146.074 441.4L146.078 441.691L211.581 440.716L211.578 440.425Z" fill="#D0D0D0"/>
<path d="M199.743 434.677L199.633 434.942L211.533 440.719L211.643 440.453L199.743 434.677Z" fill="#D0D0D0"/>
<path d="M155.372 396.105L155.203 396.332L199.603 434.938L199.772 434.711L155.372 396.105Z" fill="#D0D0D0"/>
<path d="M199.556 434.834L182.113 385.2L182.383 385.084L199.798 434.747L199.556 434.834Z" fill="#D0D0D0"/>
<path d="M182.179 385.012L155.223 396.091L155.319 396.363L182.275 385.283L182.179 385.012Z" fill="#D0D0D0"/>
<path d="M145.962 441.642L128.223 421.305L128.438 421.131L146.177 441.467L145.962 441.642Z" fill="#D0D0D0"/>
<path d="M155.199 396.152L145.957 441.504L146.22 441.566L155.462 396.215L155.199 396.152Z" fill="#D0D0D0"/>
<path d="M155.184 396.077L128.234 421.108L128.41 421.329L155.36 396.297L155.184 396.077Z" fill="#D0D0D0"/>
<path d="M128.199 421.248L120.004 354.245L120.273 354.216L128.469 421.19L128.199 421.248Z" fill="#D0D0D0"/>
<path d="M136.864 369.964L128.207 421.17L128.472 421.222L137.129 370.017L136.864 369.964Z" fill="#D0D0D0"/>
<path d="M120.235 354.115L120.059 354.335L136.889 370.116L137.066 369.897L120.235 354.115Z" fill="#D0D0D0"/>
<path d="M120.006 354.245L116.34 318.837L116.609 318.779L120.276 354.215L120.006 354.245Z" fill="#D0D0D0"/>
<path d="M140.089 310.58L120.008 354.132L120.249 354.261L140.33 310.71L140.089 310.58Z" fill="#D0D0D0"/>
<path d="M140.161 310.53L116.445 318.661L116.527 318.938L140.243 310.807L140.161 310.53Z" fill="#D0D0D0"/>
<path d="M156.307 303.569L140.133 310.538L140.233 310.808L156.406 303.839L156.307 303.569Z" fill="#D0D0D0"/>
<path d="M161.118 353.78L140.09 310.721L140.306 310.604L161.333 353.663L161.118 353.78Z" fill="#D0D0D0"/>
<path d="M161.087 353.75L156.234 303.709L156.504 303.65L161.357 353.692L161.087 353.75Z" fill="#D0D0D0"/>
<path d="M205.398 377.467L182.223 385.022L182.301 385.301L205.476 377.745L205.398 377.467Z" fill="#D0D0D0"/>
<path d="M302.029 464.976L301.867 464.743L335.296 435.62L335.458 435.853L302.029 464.976Z" fill="#D0D0D0"/>
<path d="M283.088 427.432L282.852 427.572L301.83 464.884L302.067 464.744L283.088 427.432Z" fill="#D0D0D0"/>
<path d="M128.279 421.106L84.4648 442.014L84.5739 442.28L128.389 421.372L128.279 421.106Z" fill="#D0D0D0"/>
<path d="M146.082 441.426L84.5078 441.944L84.5099 442.235L146.084 441.717L146.082 441.426Z" fill="#D0D0D0"/>
<path d="M146.153 441.461L145.992 441.695L175.156 464.996L175.316 464.762L146.153 441.461Z" fill="#D0D0D0"/>
<path d="M211.536 440.476L175.203 464.75L175.345 464.997L211.678 440.723L211.536 440.476Z" fill="#D0D0D0"/>
<path d="M239.325 462.648L211.504 440.682L211.666 440.449L239.487 462.415L239.325 462.648Z" fill="#D0D0D0"/>
<path d="M239.513 462.619L239.297 462.444L254.394 444.406L254.609 444.581L239.513 462.619Z" fill="#D0D0D0"/>
<path d="M24.3878 433.157L24.3516 433.445L84.4836 442.241L84.5198 441.952L24.3878 433.157Z" fill="#D0D0D0"/>
<path d="M45.7129 404.602L24.2656 433.217L24.4752 433.4L45.9225 404.785L45.7129 404.602Z" fill="#D0D0D0"/>
<path d="M45.9377 404.572L45.7578 404.789L84.4299 442.181L84.6097 441.964L45.9377 404.572Z" fill="#D0D0D0"/>
<path d="M84.6333 442.138L84.3906 442.021L120.003 354.158L120.246 354.304L84.6333 442.138Z" fill="#D0D0D0"/>
<path d="M89.4147 360.103L84.3633 442.057L84.6344 442.076L89.6859 360.123L89.4147 360.103Z" fill="#D0D0D0"/>
<path d="M6.07645 376.414H5.80469V446.821H6.07645V376.414Z" fill="#D0D0D0"/>
<path d="M24.2978 433.152L5.85547 446.672L6.00695 446.913L24.4493 433.393L24.2978 433.152Z" fill="#D0D0D0"/>
<path d="M24.2445 433.351L5.80469 376.473L6.07428 376.356L24.5141 433.235L24.2445 433.351Z" fill="#D0D0D0"/>
<path d="M161.085 353.721L155.176 396.187L155.442 396.23L161.351 353.764L161.085 353.721Z" fill="#D0D0D0"/>
<path d="M155.184 396.286L136.852 370.101L137.067 369.927L155.399 396.111L155.184 396.286Z" fill="#D0D0D0"/>
<path d="M161.151 353.566L136.887 369.855L137.029 370.103L161.293 353.813L161.151 353.566Z" fill="#D0D0D0"/>
<path d="M161.21 353.565L120.129 354.088L120.132 354.379L161.213 353.856L161.21 353.565Z" fill="#D0D0D0"/>
<path d="M120.124 354.11L89.4961 360.006L89.5434 360.292L120.172 354.397L120.124 354.11Z" fill="#D0D0D0"/>
<path d="M89.3904 360.008L45.7266 404.6L45.9119 404.811L89.5757 360.22L89.3904 360.008Z" fill="#D0D0D0"/>
<path d="M58.0918 341.492L45.7031 404.679L45.9669 404.739L58.3555 341.552L58.0918 341.492Z" fill="#D0D0D0"/>
<path d="M89.6219 360.209L89.4062 360.035L116.365 318.722L116.581 318.896L89.6219 360.209Z" fill="#D0D0D0"/>
<path d="M58.3334 341.381L58.2031 341.636L89.4799 360.259L89.6102 360.004L58.3334 341.381Z" fill="#D0D0D0"/>
<path d="M6.02112 376.531L5.85938 376.298L58.1595 341.386L58.3213 341.619L6.02112 376.531Z" fill="#D0D0D0"/>
<path d="M6.02688 376.267L5.87891 376.51L45.7882 404.792L45.9361 404.549L6.02688 376.267Z" fill="#D0D0D0"/>
<path d="M24.4844 433.169L24.2656 433.339L48.4251 469.56L48.6439 469.39L24.4844 433.169Z" fill="#D0D0D0"/>
<path d="M6.01388 446.701L5.89453 446.962L48.4891 469.656L48.6084 469.395L6.01388 446.701Z" fill="#D0D0D0"/>
<path d="M146.052 441.415L50.1133 471.077L50.1875 471.357L146.127 441.695L146.052 441.415Z" fill="#D0D0D0"/>
<path d="M84.4049 441.956L50.0703 471.176L50.2372 471.404L84.5719 442.184L84.4049 441.956Z" fill="#D0D0D0"/>
<path d="M192.441 324.744L156.316 303.796L156.424 303.563L192.549 324.511L192.441 324.744Z" fill="#D0D0D0"/>
<path d="M192.544 324.463L192.48 324.746L228.062 334.054L228.125 333.772L192.544 324.463Z" fill="#D0D0D0"/>
<path d="M303.86 404.781L303.617 404.752L308.119 369.024L308.389 369.054L303.86 404.781Z" fill="#D0D0D0"/>
<path d="M276.07 301.796L255.871 347.16L256.114 347.286L276.313 301.922L276.07 301.796Z" fill="#D0D0D0"/>
<path d="M230.293 290.72L230.234 291.004L276.198 301.961L276.256 301.677L230.293 290.72Z" fill="#D0D0D0"/>
<path d="M290.518 282.174L230.195 290.757L230.231 291.045L290.553 282.463L290.518 282.174Z" fill="#D0D0D0"/>
<path d="M290.612 282.225L290.57 282.513L317.075 286.968L317.117 286.68L290.612 282.225Z" fill="#D0D0D0"/>
<path d="M383.797 201.862L381.582 252.837L381.853 252.851L384.068 201.876L383.797 201.862Z" fill="#D0D0D0"/>
<path d="M342.844 262.687L342.574 262.6L365.004 190.506L365.247 190.593L342.844 262.687Z" fill="#D0D0D0"/>
<path d="M412.378 24.8754L362.73 85.9277L362.933 86.1196L412.581 25.0673L412.378 24.8754Z" fill="#D0D0D0"/>
<path d="M412.627 24.9026L412.359 24.9414L420.988 94.1738L421.255 94.135L412.627 24.9026Z" fill="#D0D0D0"/>
</g>
<path d="M415.526 327.244C414.984 329.096 413.129 330.159 411.36 329.582C409.62 329.005 408.621 327.031 409.163 325.148C409.705 323.266 411.56 322.233 413.329 322.81C415.098 323.387 416.068 325.361 415.526 327.244Z" fill="#00344A"/>
<path d="M260.338 386.003C259.511 388.888 256.629 390.497 253.918 389.617C251.208 388.736 249.696 385.669 250.523 382.784C251.351 379.899 254.232 378.29 256.943 379.17C259.653 380.051 261.165 383.118 260.338 386.003Z" fill="#00344A"/>
<path d="M254.69 473.487C253.862 476.372 250.98 477.982 248.27 477.101C245.559 476.22 244.047 473.153 244.875 470.268C245.702 467.384 248.584 465.774 251.294 466.655C254.005 467.535 255.517 470.603 254.69 473.487Z" fill="#00344A"/>
<path d="M185.752 474.9C185.293 476.503 183.691 477.398 182.185 476.908C180.678 476.419 179.838 474.714 180.298 473.111C180.757 471.508 182.359 470.613 183.865 471.103C185.372 471.592 186.212 473.297 185.752 474.9Z" fill="#00344A"/>
<path d="M381.428 355.394C380.715 357.823 378.29 359.189 376.007 358.43C373.725 357.671 372.441 355.09 373.154 352.661C373.867 350.231 376.293 348.865 378.575 349.624C380.858 350.383 382.113 352.964 381.428 355.394Z" fill="#00344A"/>
<path d="M321.058 412.878C320.716 414.062 319.546 414.73 318.433 414.366C317.32 414.001 316.693 412.756 317.035 411.572C317.377 410.388 318.547 409.719 319.66 410.084C320.773 410.448 321.4 411.693 321.058 412.878Z" fill="#00344A"/>
<path d="M374.175 400.944C374.734 397.66 372.687 394.516 369.602 393.92C366.516 393.324 363.561 395.503 363.002 398.787C362.442 402.07 364.489 405.215 367.575 405.811C370.66 406.407 373.615 404.228 374.175 400.944Z" fill="#00344A"/>
<path d="M48.3574 412.938C47.9865 414.183 46.7311 414.912 45.5613 414.517C44.3915 414.122 43.7067 412.786 44.0776 411.541C44.4486 410.296 45.704 409.567 46.8738 409.962C48.0436 410.326 48.6998 411.663 48.3574 412.938Z" fill="#00344A"/>
<path d="M154.89 451.14C154.404 452.841 152.693 453.782 151.095 453.266C149.497 452.749 148.613 450.927 149.098 449.227C149.583 447.526 151.295 446.585 152.892 447.101C154.49 447.617 155.403 449.439 154.89 451.14Z" fill="#00344A"/>
<path d="M90.9224 452.02C90.2947 454.207 88.1263 455.421 86.072 454.753C84.0178 454.085 82.8765 451.777 83.5042 449.591C84.1319 447.405 86.3003 446.19 88.3546 446.858C90.4089 447.556 91.5501 449.864 90.9224 452.02Z" fill="#00344A"/>
<path d="M270.962 352.933C270.534 354.391 269.107 355.18 267.738 354.725C266.368 354.269 265.627 352.751 266.055 351.293C266.483 349.836 267.909 349.046 269.279 349.502C270.62 349.957 271.39 351.476 270.962 352.933Z" fill="#00344A"/>
<path d="M268.65 454.601C268.336 455.725 267.195 456.362 266.139 455.998C265.084 455.664 264.485 454.449 264.827 453.326C265.141 452.202 266.282 451.564 267.338 451.929C268.393 452.293 268.964 453.478 268.65 454.601Z" fill="#00344A"/>
<path d="M416.157 412.878C415.814 414.062 414.616 414.73 413.503 414.366C412.391 414.001 411.763 412.726 412.105 411.542C412.448 410.357 413.646 409.689 414.759 410.054C415.9 410.448 416.499 411.693 416.157 412.878Z" fill="#00344A"/>
<path d="M397.385 448.832C396.815 450.836 394.789 451.96 392.906 451.352C391.023 450.745 389.967 448.589 390.538 446.585C391.108 444.58 393.134 443.457 395.017 444.064C396.9 444.671 397.984 446.828 397.385 448.832Z" fill="#00344A"/>
<path d="M299.775 436.564C299.318 438.143 297.72 439.054 296.237 438.537C294.753 438.052 293.897 436.351 294.382 434.772C294.839 433.193 296.436 432.282 297.92 432.798C299.404 433.284 300.231 434.985 299.775 436.564Z" fill="#00344A"/>
<path d="M210.525 443.73C210.268 444.581 209.441 445.036 208.642 444.793C207.843 444.52 207.415 443.639 207.643 442.789C207.871 441.939 208.727 441.483 209.526 441.726C210.325 442 210.782 442.911 210.525 443.73Z" fill="#00344A"/>
<path d="M137.975 430.764C137.233 433.345 134.637 434.802 132.212 434.013C129.786 433.223 128.417 430.46 129.159 427.879C129.9 425.298 132.497 423.84 134.922 424.63C137.376 425.419 138.745 428.152 137.975 430.764Z" fill="#00344A"/>
<path d="M28.4406 443.548C27.6132 446.372 24.7885 447.981 22.1351 447.101C19.4816 446.22 17.9695 443.214 18.7969 440.39C19.6243 437.566 22.4489 435.956 25.1024 436.837C27.7558 437.717 29.268 440.724 28.4406 443.548Z" fill="#00344A"/>
<path d="M7.46941 383.634C6.87024 385.669 4.84449 386.822 2.93287 386.185C1.02125 385.547 -0.0629379 383.391 0.536226 381.356C1.13539 379.322 3.16113 378.168 5.07274 378.806C6.98436 379.413 8.06857 381.599 7.46941 383.634Z" fill="#00344A"/>
<path d="M468.594 411.178C467.823 413.85 465.17 415.338 462.659 414.488C460.148 413.668 458.75 410.844 459.549 408.171C460.319 405.499 462.973 404.011 465.484 404.861C467.966 405.712 469.364 408.536 468.594 411.178Z" fill="#00344A"/>
<path d="M493.019 308.989C492.249 311.661 489.596 313.149 487.085 312.299C484.574 311.479 483.176 308.655 483.975 305.983C484.745 303.311 487.399 301.823 489.909 302.673C492.392 303.523 493.79 306.347 493.019 308.989Z" fill="#00344A"/>
<path d="M354.013 445.036C353.728 446.038 352.729 446.585 351.788 446.281C350.846 445.978 350.332 444.915 350.618 443.913C350.903 442.911 351.902 442.364 352.843 442.668C353.785 442.971 354.327 444.034 354.013 445.036Z" fill="#00344A"/>
<path d="M326.424 375.769C325.967 377.318 324.427 378.168 323 377.682C321.545 377.196 320.746 375.556 321.203 374.038C321.659 372.489 323.2 371.639 324.626 372.125C326.053 372.58 326.852 374.22 326.424 375.769Z" fill="#00344A"/>
<path d="M5.38478 456.393C5.15652 457.213 4.30057 457.699 3.53022 457.426C2.75987 457.183 2.30335 456.272 2.56014 455.452C2.78839 454.632 3.64434 454.146 4.41469 454.419C5.18505 454.693 5.61303 455.573 5.38478 456.393Z" fill="#00344A"/>
<path d="M223.839 450.001C224.189 448.383 223.241 446.769 221.721 446.396C220.201 446.023 218.684 447.032 218.334 448.65C217.983 450.268 218.931 451.882 220.452 452.255C221.972 452.628 223.488 451.619 223.839 450.001Z" fill="#00344A"/>
<path d="M299.261 419.042C298.662 418.04 297.435 417.736 296.465 418.343C295.523 418.981 295.238 420.287 295.809 421.319C296.408 422.321 297.635 422.625 298.605 422.018C299.546 421.38 299.832 420.044 299.261 419.042Z" fill="#00344A"/>
<path d="M372.728 452.536C371.929 451.2 370.274 450.775 369.019 451.625C367.764 452.476 367.364 454.237 368.163 455.573C368.962 456.909 370.617 457.334 371.872 456.484C373.156 455.634 373.527 453.872 372.728 452.536Z" fill="#00344A"/>
<path d="M452.96 373.309C452.503 372.52 451.533 372.277 450.792 372.763C450.05 373.249 449.821 374.281 450.278 375.071C450.734 375.86 451.705 376.103 452.446 375.617C453.188 375.131 453.417 374.099 452.96 373.309Z" fill="#00344A"/>
<path d="M222.681 272.341C221.569 273.525 219.771 273.525 218.658 272.371C217.546 271.187 217.546 269.274 218.63 268.089C219.743 266.905 221.54 266.905 222.653 268.059C223.766 269.243 223.766 271.156 222.681 272.341Z" fill="#00344A"/>
<path d="M204.163 331.738C202.451 333.56 199.683 333.59 197.943 331.768C196.231 329.946 196.202 327.001 197.914 325.148C199.626 323.326 202.394 323.296 204.134 325.118C205.846 326.94 205.875 329.886 204.163 331.738Z" fill="#00344A"/>
<path d="M244.251 296.603C242.824 298.152 240.456 298.152 239.001 296.634C237.546 295.115 237.546 292.595 238.973 291.046C240.399 289.498 242.767 289.498 244.222 291.016C245.678 292.565 245.706 295.055 244.251 296.603Z" fill="#00344A"/>
<path d="M147.5 315.673C146.787 316.433 145.646 316.433 144.961 315.673C144.247 314.914 144.247 313.7 144.961 312.971C145.674 312.212 146.815 312.212 147.5 312.971C148.185 313.73 148.185 314.945 147.5 315.673Z" fill="#00344A"/>
<path d="M291.727 306.746C290.728 307.839 289.074 307.839 288.075 306.746C287.048 305.683 287.048 303.922 288.075 302.859C289.074 301.766 290.728 301.766 291.727 302.859C292.726 303.952 292.726 305.653 291.727 306.746Z" fill="#00344A"/>
<path d="M192.381 393.473C191.525 394.384 190.127 394.384 189.271 393.473C188.415 392.562 188.415 391.074 189.271 390.163C190.127 389.252 191.525 389.252 192.381 390.163C193.237 391.074 193.237 392.562 192.381 393.473Z" fill="#00344A"/>
<path d="M143.962 377.409C143.306 378.138 142.222 378.138 141.537 377.409C140.852 376.711 140.852 375.557 141.537 374.828C142.193 374.099 143.277 374.099 143.962 374.828C144.647 375.557 144.647 376.711 143.962 377.409Z" fill="#00344A"/>
<path d="M130.203 362.01C131.578 358.789 130.24 354.99 127.213 353.526C124.186 352.062 120.617 353.486 119.241 356.708C117.865 359.929 119.204 363.728 122.231 365.192C125.258 366.657 128.827 365.232 130.203 362.01Z" fill="#00344A"/>
<path d="M54.9605 482.409C56.3363 479.187 54.9978 475.389 51.9709 473.924C48.9439 472.46 45.3748 473.885 43.999 477.106C42.6231 480.328 43.9616 484.127 46.9886 485.591C50.0155 487.055 53.5847 485.631 54.9605 482.409Z" fill="#00344A"/>
<path d="M217.572 387.096C215.917 388.858 213.235 388.857 211.581 387.127C209.926 385.365 209.926 382.511 211.552 380.75C213.207 378.988 215.889 378.988 217.544 380.719C219.199 382.48 219.199 385.335 217.572 387.096Z" fill="#00344A"/>
<path d="M240.232 339.724C239.518 340.483 238.377 340.483 237.664 339.724C236.951 338.965 236.951 337.75 237.664 336.991C238.377 336.232 239.518 336.232 240.232 336.991C240.916 337.75 240.916 338.965 240.232 339.724Z" fill="#00344A"/>
<path d="M164.024 405.135C162.826 406.41 160.886 406.41 159.687 405.165C158.489 403.89 158.489 401.825 159.659 400.549C160.857 399.274 162.797 399.274 163.996 400.519C165.194 401.794 165.223 403.859 164.024 405.135Z" fill="#00344A"/>
<path d="M122.536 324.662C121.595 325.664 120.054 325.664 119.112 324.662C118.171 323.66 118.171 322.02 119.112 321.018C120.054 320.016 121.595 320.016 122.536 321.018C123.478 322.02 123.478 323.66 122.536 324.662Z" fill="#00344A"/>
<path d="M334.039 290.044C333.526 290.59 332.727 290.59 332.213 290.044C331.7 289.497 331.7 288.647 332.213 288.1C332.727 287.554 333.526 287.554 334.039 288.1C334.553 288.647 334.553 289.528 334.039 290.044Z" fill="#00344A"/>
<path d="M308.132 287.19C306.591 288.83 304.109 288.86 302.568 287.22C301.028 285.581 300.999 282.939 302.54 281.299C304.081 279.659 306.563 279.629 308.103 281.268C309.644 282.878 309.644 285.52 308.132 287.19Z" fill="#00344A"/>
<path d="M165.734 309.782C164.164 311.483 161.597 311.483 159.999 309.813C158.401 308.142 158.401 305.409 159.97 303.709C161.539 302.008 164.107 302.008 165.705 303.679C167.303 305.349 167.303 308.082 165.734 309.782Z" fill="#00344A"/>
<path d="M93.2076 366.72C92.6084 367.357 91.6384 367.357 91.0392 366.72C90.4401 366.082 90.4401 365.05 91.0392 364.412C91.6384 363.774 92.6084 363.774 93.2076 364.412C93.7782 365.05 93.8068 366.082 93.2076 366.72Z" fill="#00344A"/>
<path d="M311.53 232.924C310.617 233.896 309.133 233.896 308.22 232.924C307.307 231.952 307.307 230.373 308.22 229.402C309.133 228.43 310.617 228.43 311.53 229.402C312.443 230.343 312.443 231.922 311.53 232.924Z" fill="#00344A"/>
<path d="M235.803 341.789C235.689 340.362 234.548 339.299 233.207 339.421C231.866 339.542 230.867 340.757 230.982 342.184C231.096 343.611 232.237 344.674 233.578 344.553C234.919 344.431 235.918 343.186 235.803 341.789Z" fill="#00344A"/>
<path d="M61.6183 346.102C61.5327 344.765 60.42 343.733 59.1361 343.854C57.8807 343.946 56.9106 345.13 57.0248 346.496C57.1103 347.832 58.2231 348.865 59.507 348.743C60.7624 348.622 61.7039 347.438 61.6183 346.102Z" fill="#00344A"/>
<path d="M169.729 358.977C169.672 358.188 169.016 357.611 168.274 357.671C167.532 357.732 166.99 358.431 167.047 359.22C167.104 360.01 167.76 360.587 168.502 360.526C169.244 360.465 169.786 359.767 169.729 358.977Z" fill="#00344A"/>
<path d="M408.906 120.476C411.274 118.502 414.698 118.958 416.553 121.509C418.407 124.029 417.979 127.673 415.582 129.647C413.214 131.621 409.791 131.165 407.936 128.614C406.11 126.064 406.538 122.45 408.906 120.476Z" fill="#00344A"/>
<path d="M453.532 222.934C454.901 221.81 456.841 222.083 457.925 223.511C458.981 224.968 458.724 227.064 457.383 228.187C456.014 229.311 454.074 229.037 452.989 227.61C451.934 226.153 452.162 224.057 453.532 222.934Z" fill="#00344A"/>
<path d="M369.021 313.548C370.447 312.364 372.53 312.637 373.643 314.155C374.755 315.674 374.499 317.891 373.072 319.075C371.646 320.259 369.563 319.986 368.45 318.468C367.337 316.919 367.594 314.732 369.021 313.548Z" fill="#00344A"/>
<path d="M485.583 237.578C487.01 236.394 489.092 236.667 490.205 238.186C491.318 239.704 491.061 241.921 489.635 243.105C488.208 244.289 486.125 244.016 485.012 242.498C483.9 240.949 484.156 238.763 485.583 237.578Z" fill="#00344A"/>
<path d="M426.799 256.489C428.739 254.91 431.507 255.275 432.99 257.309C434.474 259.374 434.131 262.32 432.22 263.899C430.28 265.478 427.512 265.113 426.029 263.079C424.545 261.044 424.859 258.068 426.799 256.489Z" fill="#00344A"/>
<path d="M481.74 151.581C483.68 150.002 486.448 150.366 487.932 152.401C489.415 154.466 489.073 157.411 487.161 158.99C485.221 160.57 482.454 160.205 480.97 158.171C479.486 156.136 479.8 153.16 481.74 151.581Z" fill="#00344A"/>
<path d="M399.633 250.931C401.003 249.808 402.972 250.051 404.027 251.508C405.083 252.966 404.855 255.061 403.485 256.185C402.116 257.308 400.147 257.065 399.091 255.608C398.007 254.181 398.264 252.085 399.633 250.931Z" fill="#00344A"/>
<path d="M297.121 339.178C298.234 338.237 299.86 338.48 300.716 339.664C301.6 340.848 301.372 342.579 300.26 343.49C299.147 344.431 297.52 344.189 296.665 343.004C295.78 341.85 295.98 340.119 297.121 339.178Z" fill="#00344A"/>
<path d="M483.898 357.975C485.011 357.034 486.637 357.276 487.493 358.461C488.378 359.645 488.15 361.376 487.037 362.287C485.924 363.228 484.298 362.985 483.442 361.801C482.557 360.647 482.757 358.916 483.898 357.975Z" fill="#00344A"/>
<path d="M384.568 276.227C385.88 275.134 387.792 275.407 388.791 276.804C389.789 278.201 389.561 280.235 388.249 281.298C386.936 282.392 385.024 282.118 384.026 280.721C383.027 279.324 383.255 277.32 384.568 276.227Z" fill="#00344A"/>
<path d="M336.096 314.611C337.067 313.821 338.436 314.003 339.178 315.036C339.92 316.068 339.748 317.526 338.778 318.315C337.808 319.105 336.439 318.923 335.697 317.89C334.984 316.888 335.155 315.431 336.096 314.611Z" fill="#00344A"/>
<path d="M447.97 321.839C448.712 321.231 449.768 321.383 450.338 322.142C450.909 322.901 450.766 324.055 450.053 324.663C449.311 325.27 448.256 325.118 447.685 324.359C447.114 323.57 447.229 322.446 447.97 321.839Z" fill="#00344A"/>
<path d="M432.363 374.555C433.133 373.917 434.218 374.069 434.817 374.889C435.416 375.709 435.273 376.863 434.503 377.5C433.733 378.138 432.648 377.986 432.049 377.166C431.479 376.346 431.621 375.193 432.363 374.555Z" fill="#00344A"/>
<path d="M383.143 187.435C383.742 186.949 384.598 187.07 385.054 187.677C385.511 188.315 385.397 189.226 384.826 189.712C384.227 190.198 383.371 190.076 382.915 189.469C382.458 188.831 382.572 187.92 383.143 187.435Z" fill="#00344A"/>
<path d="M415.614 149.84C416.556 149.081 417.897 149.233 418.639 150.235C419.352 151.237 419.209 152.664 418.268 153.454C417.326 154.213 415.985 154.061 415.243 153.059C414.502 152.027 414.673 150.599 415.614 149.84Z" fill="#00344A"/>
<path d="M446.698 88.4034C446.954 86.2402 445.513 84.266 443.481 83.9939C441.448 83.7218 439.594 85.2548 439.338 87.4181C439.082 89.5813 440.523 91.5555 442.555 91.8276C444.588 92.0997 446.443 90.5667 446.698 88.4034Z" fill="#00344A"/>
<path d="M448.68 136.935C450.791 135.204 453.816 135.599 455.471 137.846C457.097 140.093 456.726 143.312 454.615 145.073C452.503 146.804 449.479 146.409 447.824 144.162C446.169 141.915 446.569 138.666 448.68 136.935Z" fill="#00344A"/>
<path d="M402.088 197.941C403.344 196.909 405.17 197.152 406.168 198.488C407.138 199.824 406.91 201.767 405.655 202.83C404.399 203.863 402.573 203.62 401.575 202.284C400.576 200.917 400.804 198.974 402.088 197.941Z" fill="#00344A"/>
<path d="M488.022 105.082C489.277 104.049 491.103 104.292 492.102 105.628C493.072 106.965 492.844 108.908 491.588 109.971C490.333 111.003 488.507 110.76 487.508 109.424C486.51 108.058 486.738 106.114 488.022 105.082Z" fill="#00344A"/>
<path d="M379.489 76.7179C381.001 75.4729 383.198 75.7462 384.368 77.386C385.537 78.9954 385.281 81.3336 383.74 82.5787C382.199 83.8237 380.031 83.5504 378.861 81.9106C377.72 80.3012 377.977 77.9629 379.489 76.7179Z" fill="#00344A"/>
<path d="M431.588 12.4617C433.3 11.0345 435.754 11.3685 437.095 13.1905C438.436 15.0125 438.122 17.6241 436.41 19.0513C434.698 20.4785 432.244 20.1445 430.903 18.3225C429.562 16.5005 429.876 13.8889 431.588 12.4617Z" fill="#00344A"/>
<path d="M461.866 272.249C462.979 271.338 464.548 271.551 465.404 272.735C466.26 273.919 466.06 275.589 464.947 276.5C463.835 277.411 462.265 277.199 461.409 276.015C460.553 274.83 460.753 273.16 461.866 272.249Z" fill="#00344A"/>
<path d="M408.741 220.323C409.625 219.594 410.909 219.776 411.594 220.717C412.279 221.659 412.107 223.025 411.223 223.754C410.338 224.483 409.054 224.301 408.37 223.359C407.685 222.418 407.856 221.051 408.741 220.323Z" fill="#00344A"/>
<path d="M484.541 182.933C485.426 182.204 486.71 182.386 487.395 183.328C488.079 184.269 487.908 185.636 487.024 186.364C486.139 187.093 484.855 186.911 484.17 185.97C483.486 185.028 483.657 183.662 484.541 182.933Z" fill="#00344A"/>
<path d="M489.104 48.7112C489.988 47.9824 491.272 48.1646 491.957 49.106C492.642 50.0473 492.471 51.4138 491.586 52.1426C490.702 52.8714 489.418 52.6892 488.733 51.7479C488.048 50.8065 488.219 49.44 489.104 48.7112Z" fill="#00344A"/>
<path d="M358.578 261.499C359.777 260.527 361.489 260.74 362.43 262.015C363.343 263.291 363.144 265.113 361.945 266.115C360.747 267.087 359.035 266.874 358.093 265.599C357.18 264.323 357.38 262.501 358.578 261.499Z" fill="#00344A"/>
<path d="M443.401 187.313C444.029 186.797 444.913 186.918 445.398 187.586C445.883 188.254 445.769 189.196 445.141 189.712C444.514 190.228 443.629 190.107 443.144 189.439C442.659 188.771 442.773 187.829 443.401 187.313Z" fill="#00344A"/>
<path d="M381.654 79.3971L381.617 79.6982L443.243 88.2037L443.28 87.9025L381.654 79.3971Z" fill="#00344A"/>
<path d="M412.48 124.932L412.379 125.216L451.761 141.009L451.862 140.725L412.48 124.932Z" fill="#00344A"/>
<path d="M451.649 140.914L443.09 88.0754L443.375 88.0146L451.935 140.853L451.649 140.914Z" fill="#00344A"/>
<path d="M412.533 125.183L412.305 125.001L443.119 87.9531L443.347 88.1353L412.533 125.183Z" fill="#00344A"/>
<path d="M384.057 188.448L383.918 188.713L403.79 200.541L403.929 200.276L384.057 188.448Z" fill="#00344A"/>
<path d="M444.546 188.502L403.82 200.265L403.895 200.558L444.621 188.795L444.546 188.502Z" fill="#00344A"/>
<path d="M444.605 188.468H384.004V188.771H444.605V188.468Z" fill="#00344A"/>
<path d="M412.302 125.183L381.488 79.6334L381.716 79.4512L412.531 125.001L412.302 125.183Z" fill="#00344A"/>
<path d="M416.81 151.784L412.273 125.122L412.559 125.062L417.095 151.724L416.81 151.784Z" fill="#00344A"/>
<path d="M451.732 140.764L416.902 151.618L416.983 151.91L451.812 141.056L451.732 140.764Z" fill="#00344A"/>
<path d="M444.718 188.65L444.461 188.619L451.651 140.853L451.936 140.913L444.718 188.65Z" fill="#00344A"/>
<path d="M455.303 225.636L444.461 188.68L444.718 188.589L455.588 225.545L455.303 225.636Z" fill="#00344A"/>
<path d="M455.386 225.728L403.801 200.554L403.915 200.28L455.5 225.454L455.386 225.728Z" fill="#00344A"/>
<path d="M409.824 222.114L403.719 200.462L404.004 200.371L410.11 222.023L409.824 222.114Z" fill="#00344A"/>
<path d="M409.958 221.946L409.938 222.249L455.408 225.786L455.429 225.484L409.958 221.946Z" fill="#00344A"/>
<path d="M455.349 225.444L401.48 253.498L401.606 253.771L455.474 225.717L455.349 225.444Z" fill="#00344A"/>
<path d="M384.18 188.545L383.906 188.629L401.477 253.654L401.751 253.57L384.18 188.545Z" fill="#00344A"/>
<path d="M384.086 188.711L383.887 188.498L416.841 151.633L417.069 151.845L384.086 188.711Z" fill="#00344A"/>
<path d="M444.487 188.741L416.84 151.845L417.068 151.633L444.687 188.528L444.487 188.741Z" fill="#00344A"/>
<path d="M401.514 253.467L360.223 263.706L360.287 264.002L401.579 253.763L401.514 253.467Z" fill="#00344A"/>
<path d="M401.562 253.479L401.5 253.775L429.458 260.413L429.52 260.116L401.562 253.479Z" fill="#00344A"/>
<path d="M429.495 260.148L386.414 278.718L386.521 278.999L429.602 260.429L429.495 260.148Z" fill="#00344A"/>
<path d="M360.327 263.73L360.191 263.997L386.349 278.968L386.485 278.701L360.327 263.73Z" fill="#00344A"/>
<path d="M429.593 260.129L429.492 260.413L463.707 274.179L463.808 273.895L429.593 260.129Z" fill="#00344A"/>
<path d="M429.627 260.345L429.398 260.163L455.334 225.515L455.562 225.697L429.627 260.345Z" fill="#00344A"/>
<path d="M455.593 225.613L455.312 225.667L463.582 274.099L463.863 274.045L455.593 225.613Z" fill="#00344A"/>
<path d="M337.325 316.524L332.988 289.103L333.274 289.042L337.582 316.494L337.325 316.524Z" fill="#00344A"/>
<path d="M371.063 316.061L337.453 316.34L337.455 316.644L371.066 316.364L371.063 316.061Z" fill="#00344A"/>
<path d="M370.958 316.312L333.039 289.194L333.21 288.951L371.129 316.069L370.958 316.312Z" fill="#00344A"/>
<path d="M429.323 260.221L412.238 326.146L412.513 326.226L429.598 260.302L429.323 260.221Z" fill="#00344A"/>
<path d="M463.593 273.898L412.234 326.052L412.431 326.271L463.79 274.118L463.593 273.898Z" fill="#00344A"/>
<path d="M449.137 323.296L448.852 323.205L463.574 273.98L463.859 274.072L449.137 323.296Z" fill="#00344A"/>
<path d="M448.974 323.108L412.328 326.021L412.349 326.324L448.995 323.411L448.974 323.108Z" fill="#00344A"/>
<path d="M386.567 278.706L386.32 278.859L412.25 326.217L412.497 326.064L386.567 278.706Z" fill="#00344A"/>
<path d="M451.621 374.039L433.441 375.861L433.468 376.164L451.648 374.342L451.621 374.039Z" fill="#00344A"/>
<path d="M433.586 376.074L433.301 375.982L448.851 323.205L449.136 323.296L433.586 376.074Z" fill="#00344A"/>
<path d="M449.139 323.263L448.852 323.279L451.469 374.22L451.756 374.203L449.139 323.263Z" fill="#00344A"/>
<path d="M371.207 316.214L370.926 316.267L377.261 354.98L377.542 354.928L371.207 316.214Z" fill="#00344A"/>
<path d="M377.239 354.885L368.469 399.84L368.748 399.902L377.518 354.947L377.239 354.885Z" fill="#00344A"/>
<path d="M433.416 375.869L368.578 399.683L368.671 399.97L433.509 376.157L433.416 375.869Z" fill="#00344A"/>
<path d="M412.471 326.159L412.211 326.283L433.298 376.122L433.558 375.998L412.471 326.159Z" fill="#00344A"/>
<path d="M412.292 326.068L377.316 354.775L377.491 355.016L412.466 326.308L412.292 326.068Z" fill="#00344A"/>
<path d="M337.555 316.406L337.363 316.631L377.296 355.02L377.487 354.795L337.555 316.406Z" fill="#00344A"/>
<path d="M337.356 316.374L298.578 341.251L298.725 341.511L337.503 316.634L337.356 316.374Z" fill="#00344A"/>
<path d="M332.999 288.963L298.523 341.265L298.757 341.439L333.233 289.137L332.999 288.963Z" fill="#00344A"/>
<path d="M360.204 263.771L333.059 288.996L333.246 289.225L360.392 264L360.204 263.771Z" fill="#00344A"/>
<path d="M360.204 263.989L309.789 231.284L309.932 231.011L360.347 263.716L360.204 263.989Z" fill="#00344A"/>
<path d="M305.223 284.426L304.938 284.396L309.731 231.133L310.016 231.163L305.223 284.426Z" fill="#00344A"/>
<path d="M360.22 263.738L305 284.256L305.094 284.543L360.314 264.024L360.22 263.738Z" fill="#00344A"/>
<path d="M360.396 263.826L360.117 263.891L370.899 316.244L371.178 316.179L360.396 263.826Z" fill="#00344A"/>
<path d="M386.341 278.719L370.918 316.087L371.179 316.209L386.602 278.841L386.341 278.719Z" fill="#00344A"/>
<path d="M401.458 253.51L386.305 278.701L386.545 278.865L401.698 253.674L401.458 253.51Z" fill="#00344A"/>
<path d="M409.804 222.023L401.383 253.569L401.657 253.652L410.079 222.106L409.804 222.023Z" fill="#00344A"/>
<path d="M298.547 341.424L289.73 304.802L290.016 304.711L298.832 341.364L298.547 341.424Z" fill="#00344A"/>
<path d="M298.832 341.395L298.547 341.364L304.938 284.396L305.223 284.427L298.832 341.395Z" fill="#00344A"/>
<path d="M304.979 284.291L289.805 304.66L290.028 304.849L305.202 284.48L304.979 284.291Z" fill="#00344A"/>
<path d="M394.076 447.769L393.848 447.617L413.991 412.118L414.248 412.27L394.076 447.769Z" fill="#00344A"/>
<path d="M463.98 409.569L393.852 447.551L393.981 447.821L464.11 409.84L463.98 409.569Z" fill="#00344A"/>
<path d="M464.078 409.535L414.117 412.023L414.131 412.327L464.091 409.838L464.078 409.535Z" fill="#00344A"/>
<path d="M368.784 399.775L368.535 399.924L393.888 447.776L394.136 447.627L368.784 399.775Z" fill="#00344A"/>
<path d="M393.972 447.553L370.449 453.962L370.52 454.256L394.043 447.847L393.972 447.553Z" fill="#00344A"/>
<path d="M368.792 399.881L368.504 399.892L370.332 454.125L370.62 454.114L368.792 399.881Z" fill="#00344A"/>
<path d="M433.416 375.869L368.578 399.683L368.671 399.97L433.509 376.157L433.416 375.869Z" fill="#00344A"/>
<path d="M368.633 399.749L368.562 400.043L414.07 412.384L414.14 412.09L368.633 399.749Z" fill="#00344A"/>
<path d="M414.245 412.271L413.988 412.119L433.333 375.952L433.561 376.104L414.245 412.271Z" fill="#00344A"/>
<path d="M319.09 412.11L318.898 412.335L352.378 444.644L352.57 444.419L319.09 412.11Z" fill="#00344A"/>
<path d="M319.058 412.331L318.973 412.057L368.589 399.698L368.646 400.002L319.058 412.331Z" fill="#00344A"/>
<path d="M368.492 399.815L352.355 444.452L352.622 444.561L368.759 399.924L368.492 399.815Z" fill="#00344A"/>
<path d="M323.851 374.75L323.719 375.02L368.544 399.974L368.676 399.705L323.851 374.75Z" fill="#00344A"/>
<path d="M377.239 354.885L368.469 399.84L368.748 399.902L377.518 354.947L377.239 354.885Z" fill="#00344A"/>
<path d="M323.828 375.041L323.742 374.768L377.325 354.756L377.439 355.029L323.828 375.041Z" fill="#00344A"/>
<path d="M490.539 50.5114L434.047 15.8933L434.161 15.6504L490.654 50.2685L490.539 50.5114Z" fill="#00344A"/>
<path d="M490.49 50.2582L443.113 87.8906L443.284 88.134L490.661 50.5016L490.49 50.2582Z" fill="#00344A"/>
<path d="M443.247 87.8612L443.145 88.1445L490.507 107.576L490.609 107.293L443.247 87.8612Z" fill="#00344A"/>
<path d="M490.477 107.35L451.684 140.757L451.863 140.993L490.657 107.586L490.477 107.35Z" fill="#00344A"/>
<path d="M451.826 140.758L451.73 141.044L487.115 154.407L487.211 154.121L451.826 140.758Z" fill="#00344A"/>
<path d="M487.056 154.068L444.484 188.497L444.657 188.739L487.228 154.31L487.056 154.068Z" fill="#00344A"/>
<path d="M486.026 184.436L444.602 188.499L444.628 188.801L486.052 184.738L486.026 184.436Z" fill="#00344A"/>
<path d="M485.92 184.486L455.359 225.509L455.583 225.697L486.144 184.674L485.92 184.486Z" fill="#00344A"/>
<path d="M455.516 225.445L455.41 225.727L488.855 240.009L488.961 239.727L455.516 225.445Z" fill="#00344A"/>
<path d="M488.758 239.755L463.602 273.906L463.826 274.094L488.982 239.942L488.758 239.755Z" fill="#00344A"/>
<path d="M489.341 307.384L463.605 274.132L463.834 273.92L489.569 307.202L489.341 307.384Z" fill="#00344A"/>
<path d="M489.377 307.1L448.934 323.073L449.033 323.358L489.476 307.384L489.377 307.1Z" fill="#00344A"/>
<path d="M449.078 323.172L448.883 323.394L485.904 360.26L486.099 360.038L449.078 323.172Z" fill="#00344A"/>
<path d="M485.971 359.939L451.57 374.036L451.673 374.32L486.073 360.223L485.971 359.939Z" fill="#00344A"/>
<path d="M463.945 409.75L451.477 374.251L451.762 374.13L464.202 409.629L463.945 409.75Z" fill="#00344A"/>
<path d="M433.541 375.926L433.336 376.138L463.955 409.804L464.16 409.592L433.541 375.926Z" fill="#00344A"/>
<path d="M377.474 354.724L377.379 355.011L433.459 376.145L433.554 375.859L377.474 354.724Z" fill="#00344A"/>
<path d="M463.928 409.631L409.434 479.721L409.653 479.914L464.147 409.824L463.928 409.631Z" fill="#00344A"/>
<path d="M394.113 447.64L393.859 447.779L409.454 479.845L409.708 479.706L394.113 447.64Z" fill="#00344A"/>
<path d="M337.34 316.483L323.66 374.882L323.937 374.955L337.616 316.556L337.34 316.483Z" fill="#00344A"/>
<path d="M323.686 374.98L298.578 341.486L298.806 341.304L323.914 374.798L323.686 374.98Z" fill="#00344A"/>
<path d="M298.661 341.29L268.48 351.996L268.571 352.284L298.751 341.578L298.661 341.29Z" fill="#00344A"/>
<path d="M268.352 352.034L255.051 384.586L255.312 384.707L268.614 352.155L268.352 352.034Z" fill="#00344A"/>
<path d="M255.282 384.552L255.105 384.79L297.425 420.309L297.601 420.071L255.282 384.552Z" fill="#00344A"/>
<path d="M297.18 435.987L296.895 435.957L297.38 420.196H297.666L297.18 435.987Z" fill="#00344A"/>
<path d="M297.15 436.079L296.922 435.866L318.92 412.089L319.119 412.301L297.15 436.079Z" fill="#00344A"/>
<path d="M318.964 412.057L297.469 420.044L297.563 420.331L319.058 412.344L318.964 412.057Z" fill="#00344A"/>
<path d="M268.619 352.065L268.359 352.19L297.373 420.242L297.633 420.116L268.619 352.065Z" fill="#00344A"/>
<path d="M268.564 351.958L268.461 352.241L323.754 375.021L323.857 374.738L268.564 351.958Z" fill="#00344A"/>
<path d="M297.667 420.257L297.41 420.105L323.659 374.828L323.916 374.98L297.667 420.257Z" fill="#00344A"/>
<path d="M297.452 420.139L266.789 453.592L266.993 453.804L297.656 420.351L297.452 420.139Z" fill="#00344A"/>
<path d="M296.956 435.836L266.824 453.518L266.962 453.783L297.094 436.102L296.956 435.836Z" fill="#00344A"/>
<path d="M297.053 435.805L297.012 436.105L352.499 444.65L352.54 444.35L297.053 435.805Z" fill="#00344A"/>
<path d="M352.577 444.413L352.449 444.685L370.375 454.261L370.503 453.99L352.577 444.413Z" fill="#00344A"/>
<path d="M368.593 469.512L368.336 469.391C368.764 468.449 369.82 458.975 370.276 454.086L370.561 454.116C370.533 454.693 369.192 468.298 368.593 469.512Z" fill="#00344A"/>
<path d="M241.145 293.195L201.23 328.456L201.413 328.69L241.327 293.429L241.145 293.195Z" fill="#00344A"/>
<path d="M201.43 328.61L201.145 328.489L220.546 269.577L220.831 269.699L201.43 328.61Z" fill="#00344A"/>
<path d="M241.117 293.415L220.574 269.729L220.802 269.547L241.345 293.233L241.117 293.415Z" fill="#00344A"/>
<path d="M255.068 384.728L238.805 338.327L239.09 338.206L255.325 384.606L255.068 384.728Z" fill="#00344A"/>
<path d="M233.387 341.821L233.137 341.967L255.095 384.703L255.345 384.558L233.387 341.821Z" fill="#00344A"/>
<path d="M233.327 342.032L233.156 341.79L238.863 338.146L239.034 338.388L233.327 342.032Z" fill="#00344A"/>
<path d="M239.017 338.155L238.902 338.433L268.461 352.286L268.576 352.008L239.017 338.155Z" fill="#00344A"/>
<path d="M241.104 293.316L238.785 338.253L239.073 338.27L241.391 293.333L241.104 293.316Z" fill="#00344A"/>
<path d="M241.338 293.248L241.082 293.383L268.371 352.193L268.627 352.058L241.338 293.248Z" fill="#00344A"/>
<path d="M201.366 328.396L201.262 328.679L233.21 342.038L233.314 341.756L201.366 328.396Z" fill="#00344A"/>
<path d="M215.125 383.878L214.84 383.757L233.1 341.851L233.385 341.972L215.125 383.878Z" fill="#00344A"/>
<path d="M201.397 328.509L201.121 328.587L214.814 383.845L215.09 383.768L201.397 328.509Z" fill="#00344A"/>
<path d="M201.159 328.514L190.332 391.669L190.613 391.723L201.439 328.568L201.159 328.514Z" fill="#00344A"/>
<path d="M201.183 328.452L168.055 358.798L168.241 359.028L201.369 328.682L201.183 328.452Z" fill="#00344A"/>
<path d="M168.317 358.833L168.086 359.011L190.337 391.802L190.569 391.625L168.317 358.833Z" fill="#00344A"/>
<path d="M209.013 443.64L208.785 443.427L255.092 384.576L255.32 384.758L209.013 443.64Z" fill="#00344A"/>
<path d="M214.982 383.664L214.977 383.968L255.198 384.811L255.204 384.508L214.982 383.664Z" fill="#00344A"/>
<path d="M209.047 443.548L208.762 443.518L214.839 383.786L215.124 383.847L209.047 443.548Z" fill="#00344A"/>
<path d="M221.493 449.424L221.469 449.727L266.898 453.824L266.922 453.522L221.493 449.424Z" fill="#00344A"/>
<path d="M266.768 453.691L255.07 384.697L255.356 384.637L267.054 453.63L266.768 453.691Z" fill="#00344A"/>
<path d="M255.067 384.562L221.324 449.44L221.574 449.587L255.317 384.709L255.067 384.562Z" fill="#00344A"/>
<path d="M208.886 443.384L152.148 450.412L152.181 450.714L208.919 443.686L208.886 443.384Z" fill="#00344A"/>
<path d="M221.477 449.413L152.152 450.432L152.156 450.735L221.481 449.717L221.477 449.413Z" fill="#00344A"/>
<path d="M208.957 443.414L208.84 443.691L221.434 449.72L221.551 449.443L208.957 443.414Z" fill="#00344A"/>
<path d="M161.995 403.155L161.816 403.392L208.807 443.687L208.986 443.45L161.995 403.155Z" fill="#00344A"/>
<path d="M208.757 443.579L190.297 391.773L190.582 391.651L209.014 443.487L208.757 443.579Z" fill="#00344A"/>
<path d="M190.373 391.576L161.844 403.14L161.945 403.423L190.474 391.859L190.373 391.576Z" fill="#00344A"/>
<path d="M152.036 450.685L133.262 429.459L133.49 429.276L152.264 450.503L152.036 450.685Z" fill="#00344A"/>
<path d="M161.809 403.203L152.027 450.539L152.306 450.604L162.087 403.268L161.809 403.203Z" fill="#00344A"/>
<path d="M161.8 403.125L133.277 429.252L133.463 429.482L161.986 403.355L161.8 403.125Z" fill="#00344A"/>
<path d="M133.236 429.398L124.562 359.463L124.848 359.433L133.521 429.337L133.236 429.398Z" fill="#00344A"/>
<path d="M142.408 375.87L133.246 429.316L133.527 429.371L142.689 375.925L142.408 375.87Z" fill="#00344A"/>
<path d="M124.808 359.327L124.621 359.557L142.433 376.028L142.621 375.799L124.808 359.327Z" fill="#00344A"/>
<path d="M124.56 359.462L120.68 322.506L120.965 322.445L124.845 359.432L124.56 359.462Z" fill="#00344A"/>
<path d="M145.823 313.886L124.57 359.344L124.826 359.479L146.078 314.022L145.823 313.886Z" fill="#00344A"/>
<path d="M145.9 313.835L120.801 322.322L120.887 322.612L145.987 314.125L145.9 313.835Z" fill="#00344A"/>
<path d="M162.988 306.569L145.871 313.843L145.977 314.125L163.094 306.851L162.988 306.569Z" fill="#00344A"/>
<path d="M168.071 358.977L145.816 314.035L146.045 313.913L168.299 358.856L168.071 358.977Z" fill="#00344A"/>
<path d="M168.042 358.946L162.906 306.715L163.192 306.654L168.327 358.885L168.042 358.946Z" fill="#00344A"/>
<path d="M214.945 383.701L190.418 391.587L190.5 391.878L215.028 383.991L214.945 383.701Z" fill="#00344A"/>
<path d="M317.206 475.038L317.035 474.796L352.414 444.398L352.586 444.641L317.206 475.038Z" fill="#00344A"/>
<path d="M297.16 435.853L296.91 435.999L316.996 474.943L317.246 474.797L297.16 435.853Z" fill="#00344A"/>
<path d="M133.32 429.25L86.9492 451.072L87.0646 451.35L133.435 429.528L133.32 429.25Z" fill="#00344A"/>
<path d="M152.162 450.459L86.9961 451L86.9983 451.304L152.165 450.763L152.162 450.459Z" fill="#00344A"/>
<path d="M152.24 450.494L152.07 450.738L182.935 475.058L183.105 474.814L152.24 450.494Z" fill="#00344A"/>
<path d="M221.433 449.467L182.98 474.804L183.131 475.062L221.583 449.726L221.433 449.467Z" fill="#00344A"/>
<path d="M250.847 472.609L221.402 449.682L221.574 449.439L251.018 472.366L250.847 472.609Z" fill="#00344A"/>
<path d="M251.045 472.579L250.816 472.397L266.794 453.569L267.022 453.752L251.045 472.579Z" fill="#00344A"/>
<path d="M23.3664 441.828L23.3281 442.129L86.9684 451.309L87.0067 451.008L23.3664 441.828Z" fill="#00344A"/>
<path d="M45.9408 412.023L23.2422 441.89L23.464 442.081L46.1626 412.214L45.9408 412.023Z" fill="#00344A"/>
<path d="M46.1748 411.993L45.9844 412.219L86.9126 451.247L87.103 451.021L46.1748 411.993Z" fill="#00344A"/>
<path d="M87.1318 451.201L86.875 451.08L124.565 359.372L124.822 359.524L87.1318 451.201Z" fill="#00344A"/>
<path d="M92.1899 365.578L86.8438 451.117L87.131 451.138L92.4772 365.598L92.1899 365.578Z" fill="#00344A"/>
<path d="M3.99099 382.603H3.70312V456.09H3.99099V382.603Z" fill="#00344A"/>
<path d="M23.2722 441.823L3.75391 455.935L3.91423 456.186L23.4325 442.075L23.2722 441.823Z" fill="#00344A"/>
<path d="M23.2188 442.029L3.70312 382.662L3.98844 382.541L23.5041 441.908L23.2188 442.029Z" fill="#00344A"/>
<path d="M168.039 358.915L161.785 403.239L162.067 403.284L168.321 358.961L168.039 358.915Z" fill="#00344A"/>
<path d="M161.796 403.342L142.395 376.012L142.623 375.83L162.024 403.16L161.796 403.342Z" fill="#00344A"/>
<path d="M168.109 358.755L142.43 375.757L142.58 376.015L168.26 359.013L168.109 358.755Z" fill="#00344A"/>
<path d="M168.173 358.753L124.695 359.299L124.699 359.602L168.177 359.056L168.173 358.753Z" fill="#00344A"/>
<path d="M124.692 359.322L92.2773 365.476L92.3274 365.775L124.743 359.621L124.692 359.322Z" fill="#00344A"/>
<path d="M92.1643 365.479L45.9531 412.021L46.1492 412.242L92.3604 365.7L92.1643 365.479Z" fill="#00344A"/>
<path d="M59.0411 346.152L45.9297 412.104L46.2088 412.166L59.3202 346.215L59.0411 346.152Z" fill="#00344A"/>
<path d="M92.408 365.688L92.1797 365.506L120.711 322.385L120.94 322.567L92.408 365.688Z" fill="#00344A"/>
<path d="M59.2941 346.036L59.1562 346.302L92.2578 365.74L92.3956 365.474L59.2941 346.036Z" fill="#00344A"/>
<path d="M3.9329 382.724L3.76172 382.481L59.113 346.041L59.2843 346.284L3.9329 382.724Z" fill="#00344A"/>
<path d="M3.93395 382.448L3.77734 382.702L46.015 412.222L46.1716 411.968L3.93395 382.448Z" fill="#00344A"/>
<path d="M23.4738 441.84L23.2422 442.018L48.8112 479.824L49.0427 479.647L23.4738 441.84Z" fill="#00344A"/>
<path d="M3.92318 455.965L3.79688 456.237L48.8764 479.924L49.0027 479.652L3.92318 455.965Z" fill="#00344A"/>
<path d="M152.134 450.447L50.5977 481.407L50.6762 481.699L152.213 450.739L152.134 450.447Z" fill="#00344A"/>
<path d="M86.8885 451.011L50.5508 481.51L50.7274 481.748L87.0652 451.25L86.8885 451.011Z" fill="#00344A"/>
<path d="M201.228 328.67L162.996 306.806L163.11 306.563L201.343 328.428L201.228 328.67Z" fill="#00344A"/>
<path d="M201.337 328.378L201.27 328.673L238.927 338.389L238.994 338.093L201.337 328.378Z" fill="#00344A"/>
<path d="M319.144 412.209L318.887 412.179L323.652 374.889L323.937 374.919L319.144 412.209Z" fill="#00344A"/>
<path d="M289.737 304.719L268.359 352.068L268.617 352.2L289.994 304.851L289.737 304.719Z" fill="#00344A"/>
<path d="M241.284 293.158L241.223 293.454L289.868 304.891L289.93 304.594L241.284 293.158Z" fill="#00344A"/>
<path d="M305.026 284.239L241.184 293.197L241.221 293.498L305.063 284.54L305.026 284.239Z" fill="#00344A"/>
<path d="M305.126 284.291L305.082 284.591L333.133 289.241L333.177 288.941L305.126 284.291Z" fill="#00344A"/>
<path d="M403.747 200.412L401.402 253.617L401.69 253.632L404.034 200.426L403.747 200.412Z" fill="#00344A"/>
<path d="M360.403 263.898L360.117 263.807L383.855 188.559L384.112 188.65L360.403 263.898Z" fill="#00344A"/>
<path d="M433.997 15.6816L381.453 79.4053L381.668 79.6056L434.212 15.8819L433.997 15.6816Z" fill="#00344A"/>
<path d="M434.255 15.7105L433.973 15.751L443.104 88.0126L443.387 87.9722L434.255 15.7105Z" fill="#00344A"/>
</svg>
