<svg xmlns="http://www.w3.org/2000/svg" width="247" height="180" fill="none"><path fill="#313247" d="m244.047 102.011-118.832-69.51a5.92 5.92 0 0 0-5.969-.011L2.978 99.868c-3.96 2.294-3.972 8.018-.023 10.324l117.965 68.999a5.96 5.96 0 0 0 5.935.035l117.122-66.868c4.007-2.282 4.03-8.029.07-10.347"/><path fill="#313247" d="M.008 105.844 247 107.513v-5.782L.008 100.051z"/><path fill="#5B5C71" d="m244.047 96.656-118.832-69.51a5.92 5.92 0 0 0-5.969-.012L2.978 94.501c-3.96 2.294-3.972 8.018-.023 10.323l117.965 69a5.96 5.96 0 0 0 5.935.035l117.122-66.868c4.007-2.271 4.03-8.03.07-10.335"/><path fill="#313247" d="m68.023 127.505.335.603 17.148-9.641 13.383 7.729.346-.603-13.73-7.925zM57.652 98.175l.335.602 46.858-26.163-.334-.614z"/><path fill="#fff" d="M58.531 110.203c-2.47 0-4.191 1.333-4.191 2.526 0 1.194 1.72 2.538 4.191 2.538s4.192-1.333 4.192-2.538c0-1.193-1.72-2.526-4.192-2.526m0 4.832c-2.332 0-3.96-1.217-3.96-2.306s1.628-2.306 3.96-2.306c2.333 0 3.961 1.217 3.961 2.306 0 1.101-1.628 2.306-3.96 2.306M83.934 68.979 73.45 62.86a.95.95 0 0 0-.959 0L51.868 74.865a.95.95 0 0 0-.474.834c0 .348.185.66.486.823l10.623 6.025a1 1 0 0 0 .473.127.97.97 0 0 0 .474-.127l20.473-11.923a.94.94 0 0 0 .473-.823.93.93 0 0 0-.462-.822m-.127 1.46L63.334 82.362a.72.72 0 0 1-.716 0l-10.623-6.037a.7.7 0 0 1-.37-.626c0-.266.127-.498.358-.626L72.607 63.07a.7.7 0 0 1 .358-.104c.115 0 .254.035.358.104l10.484 6.118c.22.128.358.36.358.626a.7.7 0 0 1-.358.626M132.704 146.748l-14.664-8.551a.95.95 0 0 0-.959 0l-14.076 8.168a.93.93 0 0 0-.473.835c0 .347.185.66.485.834l14.861 8.435c.15.081.312.128.473.128.162 0 .335-.047.485-.128l13.88-8.053a.95.95 0 0 0 .473-.834.96.96 0 0 0-.485-.834m-.115 1.46-13.88 8.053a.74.74 0 0 1-.727 0l-14.861-8.436a.72.72 0 0 1-.37-.625c0-.267.139-.499.358-.638l14.076-8.168a.74.74 0 0 1 .728 0l14.664 8.551a.73.73 0 0 1 .358.637.7.7 0 0 1-.346.626"/><path fill="#313247" d="m56.258 89.323.346.602 77.816-44.737-.335-.614z"/><path fill="#13121A" d="m71.512 101.846 52.62 30.775 51.003-29.118-52.989-30.995z"/><path fill="#DCDCE6" d="m71.512 99.807 52.62 30.774 51.003-29.117-52.989-30.995z"/><path fill="#5AD5E4" d="m112.641 99.89 11.616 6.802 9.526-5.446-11.685-6.836z"/><path fill="#13121A" d="m155.152 101.12 3.026 1.773 2.482-1.425-3.048-1.784zM119.801 80.136l3.037 1.773 2.482-1.414-3.048-1.784zM121.68 120.316l3.025 1.773 2.494-1.414-3.06-1.784zM86.32 99.347l3.037 1.773 2.483-1.425-3.049-1.785z"/><path fill="#F2B024" d="m75.328 99.824 48.821 28.55 47.17-26.928-49.167-28.758zm48.833 24.541-41.94-24.53 39.919-23.127 42.228 24.703z"/><path fill="#807EB0" d="m101.543 100.192 22.159 12.954 21.374-12.201-22.309-13.047zm22.159 11.958-20.439-11.946 19.492-11.297 20.577 12.038z"/><path fill="#313247" d="m241.786 100.564-118.832-69.51a1.46 1.46 0 0 0-1.443 0L5.243 98.433a1.39 1.39 0 0 0-.716 1.251c0 .534.254.985.716 1.252l117.977 69c.219.127.473.197.728.197.242 0 .496-.07.715-.186l117.123-66.867c.462-.267.727-.707.727-1.252-.011-.544-.265-.996-.727-1.263m-.358 1.9-117.122 66.868a.78.78 0 0 1-.751 0l-117.977-69a.7.7 0 0 1-.37-.648c0-.29.128-.499.37-.65l116.268-67.377a.7.7 0 0 1 .369-.104.76.76 0 0 1 .382.104l118.831 69.51c.254.15.369.359.369.649a.7.7 0 0 1-.369.648"/><path fill="#fff" d="m235.801 101.699-27.748-16.233a.35.35 0 0 0-.369 0l-27.148 15.735a.37.37 0 0 0-.184.325.37.37 0 0 0 .184.324l27.54 16.106a.35.35 0 0 0 .37.011l27.343-15.607a.37.37 0 0 0 .185-.325.35.35 0 0 0-.173-.336m-.116.441-27.343 15.607a.15.15 0 0 1-.139 0l-27.54-16.106c-.046-.023-.069-.069-.069-.127s.023-.093.069-.116l27.148-15.735c.023-.011.046-.023.069-.023s.046.012.069.023l27.748 16.233c.035.012.069.047.069.116-.011.081-.058.116-.081.128"/><path fill="#313247" d="m185.93 94.305 10.6 6.014 19.745-11.54-10.461-6.107z"/><path fill="#fff" d="m205.816 84.266-16.951 9.918-.174.104 7.772 4.415.057.035 16.848-9.85.173-.104-7.667-4.472zM196.52 98.46l-7.367-4.183 16.663-9.745 7.263 4.24z"/><path fill="#13121A" d="m196.527 106.841 19.746-11.552v-6.512l-19.746 11.541z"/><path fill="#13121A" d="m185.93 100.867 10.6 6.002v-6.547l-10.6-6.002z"/><path fill="#313247" d="m52.512 69.047 10.612 6.026L82.869 63.52l-10.462-6.106z"/><path fill="#fff" d="M72.406 59.012 55.454 68.93l-.173.104 7.772 4.415.057.035 16.847-9.85.174-.103-7.668-4.473zM63.11 73.206l-7.367-4.183 16.663-9.745 7.263 4.241z"/><path fill="#13121A" d="m63.129 81.583 19.746-11.54v-6.524L63.129 75.073zM52.512 75.617l10.612 6.002v-6.547L52.512 69.07z"/><path fill="#fff" d="m111.368 52.979-10.485-6.118a.95.95 0 0 0-.958 0L79.302 58.865a.95.95 0 0 0-.474.834c0 .348.185.649.485.823l10.623 6.036a1 1 0 0 0 .474.128.97.97 0 0 0 .473-.128l20.473-11.922a.94.94 0 0 0 .474-.823.92.92 0 0 0-.462-.834m-.116 1.46L90.779 66.362a.72.72 0 0 1-.715 0L79.44 60.325a.7.7 0 0 1-.37-.626c0-.266.14-.498.359-.626l20.623-12.004a.66.66 0 0 1 .358-.092c.127 0 .254.034.358.092l10.484 6.118c.22.128.358.36.358.626a.73.73 0 0 1-.358.626"/><path fill="#313247" d="m79.96 53.043 10.613 6.026 19.734-11.553-10.462-6.106z"/><path fill="#fff" d="m99.847 43.004-16.951 9.918-.173.105 7.77 4.414.059.035 16.847-9.849.173-.104-7.667-4.473zm-9.295 14.205-7.368-4.183 16.663-9.744 7.263 4.24z"/><path fill="#13121A" d="m90.578 65.58 19.734-11.541v-6.523L90.578 59.068zM79.96 59.613l10.613 6.002v-6.547L79.96 53.066z"/><path fill="#313247" d="m199.098 102.461 10.611 6.014 19.746-11.54-10.462-6.107z"/><path fill="#fff" d="m218.992 92.43-16.952 9.918-.173.104 7.771 4.415.058.035 16.847-9.85.174-.104-7.668-4.472zm-9.296 14.194-7.367-4.183 16.663-9.745 7.263 4.24z"/><path fill="#13121A" d="m209.715 114.998 19.745-11.553v-6.511l-19.745 11.54zM199.098 109.019l10.611 6.002v-6.546l-10.611-5.991z"/><path fill="#fff" d="m114.466 136.576-14.665-8.563a.95.95 0 0 0-.958 0l-14.076 8.169a.93.93 0 0 0-.474.834c0 .348.185.661.485.834l14.873 8.436c.15.081.312.127.474.127s.334-.046.485-.127l13.879-8.053a.95.95 0 0 0 .474-.834 1.02 1.02 0 0 0-.497-.823m-.115 1.46-13.88 8.053a.72.72 0 0 1-.716 0l-14.873-8.436a.72.72 0 0 1-.37-.625c0-.267.14-.498.359-.637l14.076-8.169a.7.7 0 0 1 .37-.093.8.8 0 0 1 .369.093l14.665 8.562a.71.71 0 0 1 .358.626.71.71 0 0 1-.358.626"/><path fill="#fff" d="m85.992 128.228 14.122 8.007 13.129-7.624-13.925-8.123z"/><path fill="#5B5C71" d="m99.272 121.727-10.97 6.349-.173.104 11.997 6.814.058.034 10.808-6.257.173-.104-11.824-6.906zm.901 13.023-11.582-6.57 10.68-6.187 11.421 6.662z"/><path fill="#C4CAE0" d="m100.113 144.916 13.129-7.624v-8.679l-13.129 7.624z"/><path fill="#A4A3CD" d="m85.992 136.963 14.122 7.984v-8.714l-14.122-7.971z"/><path fill="#5B5C71" d="m99.36 121.863-.231.016.9 13.027.231-.016z"/><path fill="#5B5C71" d="m88.504 128.197 22.413.579.011-.232-22.413-.579z"/><path fill="#fff" d="m104.238 138.404 14.111 8.018 13.14-7.636-13.925-8.122z"/><path fill="#5B5C71" d="m117.518 131.898-10.97 6.35-.173.104 11.997 6.802.058.035 10.808-6.257.173-.105-11.824-6.905zm.901 13.024-11.582-6.57 10.681-6.187 11.42 6.662z"/><path fill="#C4CAE0" d="m118.348 155.092 13.14-7.624v-8.679l-13.14 7.636z"/><path fill="#A4A3CD" d="m104.238 147.139 14.111 7.984v-8.702l-14.111-7.983z"/><path fill="#5B5C71" d="m117.605 132.039-.23.016.901 13.027.23-.016z"/><path fill="#5B5C71" d="m106.75 138.372 22.413.58v-.232l-22.413-.579z"/><path fill="#fff" d="m17.715 96.498 1.963 1.205L40.139 85.92l-1.87-1.251z"/><path fill="#C4CAE0" d="m19.684 101.618 20.461-11.784v-3.916L19.684 97.702z"/><path fill="#A4A3CD" d="m17.715 100.451 1.963 1.182v-3.928l-1.963-1.193z"/><path fill="#fff" d="m20.934 98.467 1.963 1.193 20.461-11.772-1.87-1.251z"/><path fill="#C4CAE0" d="m22.902 103.587 20.462-11.784v-3.916L22.902 99.659z"/><path fill="#A4A3CD" d="m20.934 102.42 1.963 1.182v-3.94l-1.963-1.181z"/><path fill="#fff" d="m24.156 100.436 1.963 1.193 20.462-11.772-1.87-1.251z"/><path fill="#C4CAE0" d="m26.125 105.544 20.462-11.772v-3.916l-20.462 11.772z"/><path fill="#A4A3CD" d="m24.156 104.389 1.963 1.182v-3.94l-1.963-1.182z"/><path fill="#fff" d="m27.371 102.404 1.963 1.194 20.462-11.772-1.871-1.252z"/><path fill="#C4CAE0" d="M29.34 107.513 49.8 95.741v-3.917L29.34 103.596z"/><path fill="#A4A3CD" d="m27.371 106.357 1.963 1.182V103.6l-1.963-1.182z"/><path fill="#fff" d="m30.59 104.361 1.963 1.205 20.461-11.783-1.87-1.252z"/><path fill="#C4CAE0" d="M32.559 109.481 53.02 97.709v-3.928L32.56 105.565z"/><path fill="#A4A3CD" d="m30.59 108.315 1.963 1.193v-3.939l-1.963-1.182z"/><path fill="#EEDE6D" d="m75.305 81.212 10.23 5.897.982-.602-10.277-5.91z"/><path fill="#F80" d="m75.305 83.185 10.23 5.886v-1.958l-10.23-5.898z"/><path fill="#F2B024" d="m85.54 89.076.98-.59v-1.97l-.98.59z"/><path fill="#EEDE6D" d="m73.695 82.2 10.243 5.898.981-.603-10.288-5.92z"/><path fill="#F80" d="m73.695 84.169 10.243 5.886v-1.958l-10.243-5.898z"/><path fill="#F2B024" d="m83.938 90.065.981-.591v-1.97l-.981.59z"/><path fill="#EEDE6D" d="m72.07 83.2 10.243 5.886.981-.603-10.288-5.92z"/><path fill="#F80" d="m72.07 85.161 10.243 5.886V89.09L72.07 83.203z"/><path fill="#F2B024" d="m82.316 91.053.982-.591v-1.97l-.982.591z"/><path fill="#EEDE6D" d="m70.469 84.165 10.242 5.897.981-.602-10.288-5.92z"/><path fill="#F80" d="M70.469 86.134 80.71 92.02v-1.958l-10.242-5.898z"/><path fill="#F2B024" d="m80.715 92.03.981-.591v-1.97l-.981.59z"/><path fill="#EEDE6D" d="m68.852 85.15 10.242 5.897.981-.603-10.288-5.92z"/><path fill="#F80" d="m68.852 87.118 10.242 5.886v-1.958l-10.242-5.898z"/><path fill="#F2B024" d="m79.098 93.014.981-.591v-1.97l-.981.591z"/><path fill="#fff" d="m92.75 70.333 10.242 5.897.97-.602-10.277-5.921z"/><path fill="#C4CAE0" d="m92.75 72.302 10.242 5.886V76.23L92.75 70.332z"/><path fill="#A4A3CD" d="m102.992 78.197.97-.59v-1.97l-.97.59z"/><path fill="#fff" d="m91.133 71.329 10.242 5.886.982-.603-10.289-5.92z"/><path fill="#C4CAE0" d="m91.133 73.29 10.242 5.886v-1.958l-10.242-5.886z"/><path fill="#A4A3CD" d="m101.375 79.182.981-.591v-1.97l-.981.591z"/><path fill="#fff" d="m89.516 72.305 10.242 5.898.981-.602-10.276-5.921z"/><path fill="#C4CAE0" d="m89.516 74.274 10.242 5.887v-1.959l-10.242-5.897z"/><path fill="#A4A3CD" d="m99.758 80.17.981-.59v-1.97l-.981.59z"/><path fill="#fff" d="m87.914 73.29 10.242 5.897.982-.602-10.289-5.92z"/><path fill="#C4CAE0" d="m87.914 75.259 10.242 5.886v-1.958l-10.242-5.898z"/><path fill="#A4A3CD" d="m98.156 81.154.982-.59v-1.97l-.982.59z"/><path fill="#fff" d="m86.297 74.27 10.242 5.898.982-.603-10.289-5.92z"/><path fill="#C4CAE0" d="m86.297 76.24 10.242 5.886v-1.959L86.297 74.27z"/><path fill="#A4A3CD" d="m96.54 82.135.98-.591v-1.97l-.98.591z"/><path fill="#313247" d="m180.468 114.594-33.567 18.608-.185.093v11.853l-27.032 13.847h-13.891v.695h14.053l27.378-14.02.185-.093v-11.865l33.059-18.319 20.462 11.274.334-.602-20.634-11.379zM40.277 111.442l17.956-10.127v-10.95l-19.469-11.17-.346.603L57.54 90.77v10.138l-18.672 10.533 39.619 22.304 4.791 12.734.647-.243-4.873-12.977zM190.518 85.949l-22.044-13.117V58.106h-.693v15.132l22.552 13.418.173.104 13.718-7.775-.347-.603z"/><path fill="#EEDE6D" d="m166.645 61.262 1.732.996 1.709-1.008-1.709-1.02z"/><path fill="#F2B024" d="m168.375 78.22 1.709-1.007V61.246l-1.709 1.008z"/><path fill="#F80" d="m166.645 77.24 1.732.997V62.258l-1.732-.996z"/><path fill="#EEDE6D" d="m163.555 62.91 1.743 1.008 1.698-1.008-1.698-1.031z"/><path fill="#F2B024" d="m165.301 79.885 1.697-1.008V62.91l-1.697 1.008z"/><path fill="#F80" d="m163.555 78.889 1.743.996V63.918l-1.743-1.008z"/><path fill="#EEDE6D" d="m160.473 64.555 1.732 1.008 1.709-1.008-1.709-1.02z"/><path fill="#F2B024" d="m162.203 81.526 1.709-1.008V64.55l-1.709 1.008z"/><path fill="#F80" d="m160.473 80.533 1.732.997V65.563l-1.732-.997z"/><path fill="#EEDE6D" d="m157.387 66.207 1.732.997 1.697-1.009-1.697-1.02z"/><path fill="#F2B024" d="m159.117 83.166 1.698-1.008V66.191l-1.698 1.008z"/><path fill="#F80" d="m157.387 82.185 1.732.997V67.204l-1.732-.997z"/><path fill="#EEDE6D" d="m154.289 67.86 1.744.996 1.697-.997-1.697-1.03z"/><path fill="#F2B024" d="m156.035 84.823 1.698-.997V67.86l-1.698.997z"/><path fill="#F80" d="m154.289 83.838 1.744.996V68.856l-1.744-.997z"/><path fill="#EEDE6D" d="m169.219 62.8 1.732 1.009 1.709-1.008-1.709-1.032z"/><path fill="#F2B024" d="m170.949 79.776 1.709-1.008V62.8l-1.709 1.008z"/><path fill="#F80" d="m169.219 78.775 1.732.997V63.805l-1.732-.996z"/><path fill="#EEDE6D" d="m166.129 64.45 1.743 1.007 1.698-1.008-1.698-1.02z"/><path fill="#F2B024" d="m167.875 81.42 1.697-1.008V64.445l-1.697 1.008z"/><path fill="#F80" d="m166.129 80.428 1.743 1.008V65.457l-1.743-.996z"/><path fill="#EEDE6D" d="m163.043 66.102 1.732.996 1.709-1.008-1.709-1.02z"/><path fill="#F2B024" d="m164.773 83.06 1.709-1.007V66.086l-1.709 1.008z"/><path fill="#F80" d="m163.043 82.08 1.732.996V67.098l-1.732-.996z"/><path fill="#EEDE6D" d="m159.961 67.75 1.732 1.008 1.697-1.008-1.697-1.031z"/><path fill="#F2B024" d="m161.691 84.725 1.698-1.008V67.75l-1.698 1.008z"/><path fill="#F80" d="m159.961 83.728 1.732.997V68.758l-1.732-1.008z"/><path fill="#EEDE6D" d="m156.863 69.399 1.744 1.008 1.697-1.008-1.697-1.02z"/><path fill="#F2B024" d="m158.609 86.37 1.698-1.009V69.394l-1.698 1.009z"/><path fill="#F80" d="m156.863 85.377 1.744.996V70.407l-1.744-.997z"/><path fill="#EEDE6D" d="m171.793 64.36 1.732.996 1.697-1.008-1.697-1.02z"/><path fill="#F2B024" d="m173.523 81.319 1.698-1.008V64.344l-1.698 1.008z"/><path fill="#F80" d="m171.793 80.338 1.732.996V65.356l-1.732-.997z"/><path fill="#EEDE6D" d="m168.707 66 1.744.996 1.697-.996-1.697-1.031z"/><path fill="#F2B024" d="m170.453 82.963 1.698-.996V66l-1.698.996z"/><path fill="#F80" d="m168.707 81.978 1.744.997V66.997L168.707 66z"/><path fill="#EEDE6D" d="m165.613 67.648 1.732 1.008 1.709-1.008-1.709-1.03z"/><path fill="#F2B024" d="m167.344 84.623 1.709-1.008V67.648l-1.709 1.008z"/><path fill="#F80" d="m165.613 83.623 1.732.996V68.653l-1.732-.997z"/><path fill="#EEDE6D" d="m162.523 69.297 1.744 1.008 1.697-1.008-1.697-1.02z"/><path fill="#F2B024" d="m164.27 86.268 1.697-1.008V69.293l-1.697 1.008z"/><path fill="#F80" d="m162.523 85.275 1.744 1.008V70.305l-1.744-.996z"/><path fill="#EEDE6D" d="m159.438 70.953 1.732.997 1.709-1.008-1.709-1.02z"/><path fill="#F2B024" d="m161.168 87.912 1.709-1.008V70.938l-1.709 1.008z"/><path fill="#F80" d="m159.438 86.932 1.732.996V71.95l-1.732-.997z"/><path fill="#EEDE6D" d="m174.359 65.898 1.744 1.008 1.697-1.008-1.697-1.03z"/><path fill="#F2B024" d="m176.105 82.873 1.698-1.008V65.898l-1.698 1.008z"/><path fill="#F80" d="m174.359 81.877 1.744.996V66.906l-1.744-1.008z"/><path fill="#EEDE6D" d="m171.281 67.543 1.744 1.008 1.697-1.008-1.697-1.02z"/><path fill="#F2B024" d="m173.027 84.514 1.698-1.008V67.539l-1.698 1.008z"/><path fill="#F80" d="m171.281 83.521 1.744.997V68.55l-1.744-.996z"/><path fill="#EEDE6D" d="m168.195 69.203 1.732.997 1.709-1.008-1.709-1.02z"/><path fill="#F2B024" d="m169.926 86.162 1.709-1.008V69.188l-1.709 1.008z"/><path fill="#F80" d="m168.195 85.181 1.732.997V70.2l-1.732-.997z"/><path fill="#EEDE6D" d="m165.098 70.844 1.743.996 1.698-.996-1.698-1.031z"/><path fill="#F2B024" d="m166.844 87.807 1.697-.996V70.844l-1.697.996z"/><path fill="#F80" d="m165.098 86.822 1.743.996V71.84l-1.743-.996z"/><path fill="#EEDE6D" d="m162.016 72.492 1.732 1.008 1.709-1.008-1.709-1.031z"/><path fill="#F2B024" d="m163.746 89.467 1.709-1.008V72.492l-1.709 1.008z"/><path fill="#F80" d="m162.016 88.467 1.732.996V73.497l-1.732-.997z"/><path fill="#EEDE6D" d="m176.934 67.442 1.743 1.008 1.698-1.008-1.698-1.02z"/><path fill="#F2B024" d="m178.68 84.412 1.697-1.008V67.438l-1.697 1.008z"/><path fill="#F80" d="m176.934 83.42 1.743 1.008V68.45l-1.743-.997z"/><path fill="#EEDE6D" d="m173.855 69.094 1.733.996 1.709-1.008-1.709-1.02z"/><path fill="#F2B024" d="m175.586 86.053 1.709-1.008V69.078l-1.709 1.008z"/><path fill="#F80" d="m173.855 85.072 1.733.996V70.09l-1.733-.996z"/><path fill="#EEDE6D" d="m170.77 70.738 1.732 1.008 1.709-1.008-1.709-1.031z"/><path fill="#F2B024" d="m172.5 87.713 1.709-1.008V70.738l-1.709 1.008z"/><path fill="#F80" d="m170.77 86.717 1.732.996V71.746l-1.732-1.008z"/><path fill="#EEDE6D" d="m167.668 72.39 1.744 1.009 1.697-1.008-1.697-1.02z"/><path fill="#F2B024" d="m169.414 89.362 1.697-1.009V72.387l-1.697 1.008z"/><path fill="#F80" d="m167.668 88.37 1.744.996V73.399l-1.744-.997z"/><path fill="#EEDE6D" d="m164.59 74.031 1.732 1.008 1.709-1.008-1.709-1.02z"/><path fill="#F2B024" d="m166.32 91.002 1.709-1.008V74.027l-1.709 1.008z"/><path fill="#F80" d="m164.59 90.021 1.732.997V75.04l-1.732-.997z"/><path fill="#EEDE6D" d="m179.508 68.992 1.743.997 1.698-.997-1.698-1.031z"/><path fill="#F2B024" d="m181.254 85.955 1.697-.996V68.992l-1.697.997z"/><path fill="#F80" d="m179.508 84.97 1.743.997V69.989l-1.743-.997z"/><path fill="#EEDE6D" d="m176.43 70.637 1.732 1.008 1.709-1.008-1.709-1.031z"/><path fill="#F2B024" d="m178.16 87.612 1.709-1.009V70.637l-1.709 1.008z"/><path fill="#F80" d="m176.43 86.611 1.732.997V71.64l-1.732-.997z"/><path fill="#EEDE6D" d="m173.344 72.281 1.732 1.008 1.697-1.008-1.697-1.02z"/><path fill="#F2B024" d="m175.074 89.252 1.698-1.008V72.277l-1.698 1.008z"/><path fill="#F80" d="m173.344 88.26 1.732 1.008V73.29l-1.732-.997z"/><path fill="#EEDE6D" d="m170.242 73.938 1.744.996 1.697-1.008-1.697-1.02z"/><path fill="#F2B024" d="m171.988 90.897 1.698-1.008V73.922l-1.698 1.008z"/><path fill="#F80" d="m170.242 89.916 1.744.996V74.934l-1.744-.996z"/><path fill="#EEDE6D" d="m167.164 75.582 1.732 1.008 1.709-1.008-1.709-1.031z"/><path fill="#F2B024" d="m168.895 92.557 1.708-1.008V75.582l-1.708 1.008z"/><path fill="#F80" d="m167.164 91.56 1.732.997V76.59l-1.732-1.008z"/><path fill="#5AD5E4" d="m176.543 117.132 2.506 1.448 2.448-1.448-2.448-1.472z"/><path fill="#29C1CF" d="m179.051 127.534 2.448-1.448v-8.957l-2.448 1.448z"/><path fill="#1FABB8" d="m176.543 126.113 2.506 1.437v-8.969l-2.506-1.436z"/><path fill="#5AD5E4" d="m172.105 119.507 2.495 1.448 2.448-1.448-2.448-1.484z"/><path fill="#29C1CF" d="m174.598 126.9 2.448-1.448v-5.944l-2.448 1.448z"/><path fill="#1FABB8" d="m172.105 125.471 2.495 1.437v-5.956l-2.495-1.436z"/><path fill="#5AD5E4" d="m167.664 121.882 2.494 1.436 2.448-1.448-2.448-1.472z"/><path fill="#29C1CF" d="m170.156 129.271 2.448-1.448v-5.956l-2.448 1.449z"/><path fill="#1FABB8" d="m167.664 127.85 2.494 1.437v-5.967l-2.494-1.437z"/><path fill="#5AD5E4" d="m180.875 119.749 2.506 1.436 2.448-1.448-2.448-1.471z"/><path fill="#29C1CF" d="m183.383 127.138 2.448-1.448v-5.956l-2.448 1.449z"/><path fill="#1FABB8" d="m180.875 125.717 2.506 1.437v-5.967l-2.506-1.437z"/><path fill="#5AD5E4" d="m176.43 122.112 2.505 1.449 2.448-1.449-2.448-1.471z"/><path fill="#29C1CF" d="m178.938 129.513 2.447-1.448v-5.956l-2.447 1.449z"/><path fill="#1FABB8" d="m176.43 128.092 2.505 1.437v-5.967l-2.505-1.437z"/><path fill="#5AD5E4" d="m171.996 124.491 2.494 1.448 2.448-1.448-2.448-1.471z"/><path fill="#29C1CF" d="m174.488 131.892 2.448-1.448v-5.956l-2.448 1.449z"/><path fill="#1FABB8" d="m171.996 130.46 2.494 1.436v-5.955l-2.494-1.437z"/><path fill="#5AD5E4" d="m185.336 122.378 2.506 1.448 2.448-1.448-2.448-1.483z"/><path fill="#29C1CF" d="m187.844 129.771 2.448-1.448v-5.944l-2.448 1.448z"/><path fill="#1FABB8" d="m185.336 128.342 2.506 1.437v-5.956l-2.506-1.436z"/><path fill="#5AD5E4" d="m180.898 124.757 2.506 1.436 2.448-1.448-2.448-1.472z"/><path fill="#29C1CF" d="m183.406 132.146 2.448-1.448v-5.956l-2.448 1.449z"/><path fill="#1FABB8" d="m180.898 130.725 2.506 1.437v-5.967l-2.506-1.437z"/><path fill="#5AD5E4" d="m176.441 127.128 2.506 1.436 2.448-1.448-2.448-1.471z"/><path fill="#29C1CF" d="m178.949 134.517 2.448-1.448v-5.956l-2.448 1.449z"/><path fill="#1FABB8" d="m176.441 133.096 2.506 1.437v-5.967l-2.506-1.437z"/><path fill="#fff" d="m159.91 126.929 2.506 1.448 2.448-1.448-2.448-1.472z"/><path fill="#C4CAE0" d="m162.418 137.331 2.448-1.449v-8.956l-2.448 1.448z"/><path fill="#A4A3CD" d="m159.91 135.91 2.506 1.436v-8.968l-2.506-1.437z"/><path fill="#fff" d="m155.465 129.304 2.506 1.448 2.448-1.448-2.448-1.472z"/><path fill="#C4CAE0" d="m157.973 136.693 2.448-1.448v-5.944l-2.448 1.448z"/><path fill="#A4A3CD" d="m155.465 135.272 2.506 1.437v-5.956l-2.506-1.437z"/><path fill="#fff" d="m151.031 131.678 2.494 1.449 2.448-1.449-2.448-1.483z"/><path fill="#C4CAE0" d="m153.523 139.072 2.448-1.448v-5.944l-2.448 1.448z"/><path fill="#A4A3CD" d="m151.031 137.647 2.494 1.437v-5.956l-2.494-1.448z"/><path fill="#fff" d="m164.238 129.546 2.494 1.448 2.46-1.46-2.46-1.472z"/><path fill="#C4CAE0" d="m166.73 136.935 2.46-1.448v-5.956l-2.46 1.46z"/><path fill="#A4A3CD" d="m164.238 135.514 2.494 1.437v-5.956l-2.494-1.448z"/><path fill="#fff" d="m159.797 131.921 2.506 1.436 2.448-1.448-2.448-1.471z"/><path fill="#C4CAE0" d="m162.305 139.31 2.448-1.448v-5.956l-2.448 1.449z"/><path fill="#A4A3CD" d="m159.797 137.889 2.506 1.437v-5.967l-2.506-1.437z"/><path fill="#fff" d="m155.352 134.288 2.505 1.448 2.448-1.448-2.448-1.472z"/><path fill="#C4CAE0" d="m157.859 141.689 2.448-1.448v-5.956l-2.448 1.449z"/><path fill="#A4A3CD" d="m155.352 140.268 2.505 1.437v-5.967l-2.505-1.437z"/><path fill="#fff" d="m168.711 132.175 2.494 1.448 2.46-1.448-2.46-1.484z"/><path fill="#C4CAE0" d="m171.203 139.568 2.46-1.448v-5.944l-2.46 1.448z"/><path fill="#A4A3CD" d="m168.711 138.139 2.494 1.437v-5.956l-2.494-1.436z"/><path fill="#fff" d="m164.266 134.553 2.505 1.437 2.448-1.448-2.448-1.472z"/><path fill="#C4CAE0" d="m166.773 141.943 2.448-1.448v-5.956l-2.448 1.448z"/><path fill="#A4A3CD" d="m164.266 140.522 2.505 1.437v-5.968l-2.505-1.436z"/><path fill="#fff" d="m159.816 136.924 2.506 1.437 2.448-1.448-2.448-1.472z"/><path fill="#C4CAE0" d="m162.324 144.314 2.448-1.448v-5.956l-2.448 1.449z"/><path fill="#A4A3CD" d="m159.816 142.893 2.506 1.437v-5.967l-2.506-1.437z"/><path fill="#313247" d="m56.277 82.924-.343.603 5.715 3.275.344-.603z"/><path fill="#A4A3CD" d="m88.965 47.045 34.56 20.207 34.365-19.616-34.803-20.359z"/><path fill="#807EB0" d="m88.965 58.445 34.56 20.207V67.251l-34.56-20.208z"/><path fill="#13121A" d="m123.527 78.711 34.526-19.767v-11.46l-34.526 19.768z"/><path fill="#313247" d="m125.578 75.154 18.071-10.336V58.11l-18.071 10.347z"/><path fill="#5B5C71" d="m143.014 64.18-17.436 9.989v.985l18.071-10.336V58.11l-.635.36z"/><path fill="#5AD5E4" d="m126.723 69.697.993-.568v-.996l-.993.568z"/><path fill="#EEDE6D" d="m126.723 71.142.993-.556v-1.008l-.993.568z"/><path fill="#5AD5E4" d="m126.723 72.607.993-.568v-.996l-.993.568zM128.129 68.912l.981-.568v-.996l-.981.556zM128.129 70.357l.981-.568v-.996l-.981.568z"/><path fill="#F2B024" d="m128.129 71.807.981-.557v-.996l-.981.556zM129.527 68.111l.993-.556v-1.008l-.993.568z"/><path fill="#5AD5E4" d="m129.527 69.568.993-.568v-.996l-.993.568zM129.527 71.021l.993-.556v-1.008l-.993.568z"/><path fill="#EEDE6D" d="m130.941 67.322.982-.568v-.996l-.982.568z"/><path fill="#5AD5E4" d="m130.941 68.783.982-.568v-.996l-.982.556z"/><path fill="#F2B024" d="m130.941 70.232.982-.567v-.997l-.982.568z"/><path fill="#5AD5E4" d="m132.301 66.545.981-.568v-.996l-.981.556zM132.301 69.455l.981-.568v-.996l-.981.556zM133.695 67.209l.993-.568v-.997l-.993.568z"/><path fill="#F2B024" d="m133.695 68.654.993-.556V67.09l-.993.568zM135.105 64.959l.982-.568v-.997l-.982.568z"/><path fill="#5AD5E4" d="m135.105 67.865.982-.568v-.996l-.982.567zM136.504 65.615l.993-.556V64.05l-.993.567z"/><path fill="#13121A" d="m91.012 57.693 13.187 7.543V58.54l-13.187-7.555z"/><path fill="#313247" d="m92.469 58.514.993.579v-6.709l-.993-.568z"/><path fill="#F2B024" d="m92.469 58.514.993.579v-1.9l-.993-.58z"/><path fill="#EEDE6D" d="m92.469 54.644.993.579v-2.839l-.993-.568z"/><path fill="#313247" d="m94.11 59.467 1.004.567v-6.708l-1.005-.568z"/><path fill="#F2B024" d="m94.11 54.658 1.004.568v-1.9l-1.005-.568z"/><path fill="#EEDE6D" d="m94.11 59.468 1.004.567v-2.838l-1.005-.568z"/><path fill="#313247" d="m95.75 60.392.993.568v-6.709l-.993-.567z"/><path fill="#F2B024" d="m95.75 60.392.993.568v-1.9l-.993-.58z"/><path fill="#EEDE6D" d="m95.75 56.522.993.568v-2.839l-.993-.567z"/><path fill="#313247" d="m97.398 61.334.993.568v-6.698l-.993-.579z"/><path fill="#F2B024" d="m97.398 56.525.993.58v-1.9l-.993-.58z"/><path fill="#EEDE6D" d="m97.398 61.335.993.568v-2.84l-.993-.567z"/><path fill="#313247" d="m99.031 62.26 1.005.567v-6.709l-1.005-.567z"/><path fill="#F2B024" d="m99.031 62.26 1.005.567v-1.9l-1.005-.568z"/><path fill="#EEDE6D" d="m99.031 58.39 1.005.567v-2.839l-1.005-.567z"/><path fill="#313247" d="m100.68 63.197.993.568v-6.697l-.993-.58z"/><path fill="#F2B024" d="m100.68 58.389.993.579v-1.9l-.993-.58z"/><path fill="#EEDE6D" d="m100.68 63.198.993.568v-2.827l-.993-.58z"/><path fill="#313247" d="m102.305 64.127 1.004.568v-6.698l-1.004-.579z"/><path fill="#F2B024" d="m102.305 64.127 1.004.568v-1.9l-1.004-.568z"/><path fill="#EEDE6D" d="m102.305 60.257 1.004.568v-2.828l-1.004-.579z"/><path fill="#313247" d="m91.635 51.344-.623-.36v6.71l13.187 7.542v-.985l-12.564-7.195z"/><path fill="#A4A3CD" d="m88.965 33.404 34.56 20.207 34.365-19.616-34.803-20.358z"/><path fill="#807EB0" d="m88.965 44.804 34.56 20.207V53.61l-34.56-20.208z"/><path fill="#13121A" d="m123.527 65.059 34.526-19.756v-11.46l-34.526 19.768z"/><path fill="#313247" d="m125.578 61.513 18.071-10.347v-6.697l-18.071 10.335z"/><path fill="#5B5C71" d="m143.014 50.54-17.436 9.988v.985l18.071-10.347v-6.697l-.635.359z"/><path fill="#5AD5E4" d="m126.723 56.056.993-.567v-.997l-.993.556z"/><path fill="#EEDE6D" d="m126.723 57.502.993-.568v-.996l-.993.567z"/><path fill="#5AD5E4" d="m126.723 58.967.993-.568v-.997l-.993.556zM128.129 55.256l.981-.556V53.69l-.981.568zM128.129 56.717l.981-.568v-.997l-.981.568z"/><path fill="#F2B024" d="m128.129 58.166.981-.556v-1.008l-.981.567zM129.527 54.47l.993-.567v-.997l-.993.568z"/><path fill="#5AD5E4" d="m129.527 55.916.993-.556v-.997l-.993.556zM129.527 57.38l.993-.567v-.997l-.993.568z"/><path fill="#EEDE6D" d="m130.941 53.681.982-.567v-.997l-.982.568z"/><path fill="#5AD5E4" d="m130.941 55.127.982-.556v-1.008l-.982.567z"/><path fill="#F2B024" d="m130.941 56.592.982-.568v-.997l-.982.556z"/><path fill="#5AD5E4" d="m132.301 52.896.981-.556v-1.008l-.981.568zM132.301 55.799l.981-.557v-1.008l-.981.568zM133.695 53.557l.993-.557v-.996l-.993.556z"/><path fill="#F2B024" d="m133.695 55.013.993-.567v-.997l-.993.568zM135.105 51.318l.982-.568v-.996l-.982.568z"/><path fill="#5AD5E4" d="m135.105 54.224.982-.567v-.997l-.982.568zM136.504 51.974l.993-.567v-.997l-.993.568z"/><path fill="#13121A" d="m91.012 43.912 13.187 7.543v-6.697l-13.187-7.555z"/><path fill="#313247" d="m92.469 44.748.993.568v-6.71l-.993-.567z"/><path fill="#F2B024" d="m92.469 44.748.993.568v-1.9l-.993-.568z"/><path fill="#EEDE6D" d="m92.469 40.878.993.568v-2.84l-.993-.567z"/><path fill="#313247" d="m94.11 45.69 1.004.567V39.56l-1.005-.58z"/><path fill="#F2B024" d="m94.11 40.88 1.004.58v-1.9l-1.005-.58z"/><path fill="#EEDE6D" d="m94.11 45.69 1.004.568v-2.827l-1.005-.58z"/><path fill="#313247" d="m95.75 46.611.993.568v-6.697l-.993-.58z"/><path fill="#F2B024" d="m95.75 46.611.993.568v-1.9l-.993-.568z"/><path fill="#EEDE6D" d="m95.75 42.741.993.568v-2.827l-.993-.58z"/><path fill="#313247" d="m97.398 47.549.993.567V41.42l-.993-.58z"/><path fill="#F2B024" d="m97.398 42.74.993.58v-1.9l-.993-.58z"/><path fill="#EEDE6D" d="m97.398 47.55.993.568V45.29l-.993-.58z"/><path fill="#313247" d="m99.031 48.482 1.005.568v-6.697l-1.005-.58z"/><path fill="#F2B024" d="m99.031 48.482 1.005.568v-1.9l-1.005-.568z"/><path fill="#EEDE6D" d="m99.031 44.612 1.005.568v-2.827l-1.005-.58z"/><path fill="#313247" d="m100.68 49.416.993.568v-6.698l-.993-.567z"/><path fill="#F2B024" d="m100.68 44.619.993.568v-1.9l-.993-.568z"/><path fill="#EEDE6D" d="m100.68 49.417.993.568v-2.827l-.993-.568z"/><path fill="#313247" d="m102.305 50.342 1.004.58v-6.71l-1.004-.568z"/><path fill="#F2B024" d="m102.305 50.342 1.004.579v-1.912l-1.004-.568z"/><path fill="#EEDE6D" d="m102.305 46.472 1.004.567v-2.827l-1.004-.568z"/><path fill="#313247" d="m91.635 37.562-.623-.359v6.709l13.187 7.543v-.985l-12.564-7.184z"/><path fill="#A4A3CD" d="m88.965 19.767 34.56 20.208 34.365-19.617L123.087 0z"/><path fill="#807EB0" d="m88.965 31.167 34.56 20.208V39.973l-34.56-20.207z"/><path fill="#13121A" d="m123.527 51.422 34.526-19.767V20.207l-34.526 19.767z"/><path fill="#313247" d="m125.578 47.876 18.071-10.347v-6.697l-18.071 10.335z"/><path fill="#5B5C71" d="m143.014 36.904-17.436 9.976v.996l18.071-10.347v-6.697l-.635.348z"/><path fill="#13121A" d="m91.012 30.334 13.187 7.543V31.18l-13.187-7.555z"/><path fill="#313247" d="m92.469 31.166.993.568v-6.71l-.993-.567z"/><path fill="#F2B024" d="m92.469 31.166.993.568v-1.9l-.993-.568z"/><path fill="#EEDE6D" d="m92.469 27.296.993.568v-2.84l-.993-.567z"/><path fill="#313247" d="m94.11 32.111 1.004.568v-6.697l-1.005-.58z"/><path fill="#F2B024" d="m94.11 27.303 1.004.579v-1.9l-1.005-.58z"/><path fill="#EEDE6D" d="m94.11 32.112 1.004.568v-2.827l-1.005-.58z"/><path fill="#313247" d="m95.75 33.033.993.568v-6.697l-.993-.58z"/><path fill="#F2B024" d="m95.75 33.033.993.568v-1.9l-.993-.568z"/><path fill="#EEDE6D" d="m95.75 29.163.993.568v-2.827l-.993-.58z"/><path fill="#313247" d="m97.398 33.97.993.568v-6.697l-.993-.58z"/><path fill="#F2B024" d="m97.398 29.162.993.58v-1.9l-.993-.58z"/><path fill="#EEDE6D" d="m97.398 33.972.993.567v-2.827l-.993-.58z"/><path fill="#313247" d="m99.031 34.904 1.005.568v-6.697l-1.005-.58z"/><path fill="#F2B024" d="m99.031 34.904 1.005.568v-1.9l-1.005-.568z"/><path fill="#EEDE6D" d="m99.031 31.034 1.005.568v-2.827l-1.005-.58z"/><path fill="#313247" d="m100.68 35.842.993.579v-6.709l-.993-.58z"/><path fill="#F2B024" d="m100.68 31.045.993.567v-1.9l-.993-.58z"/><path fill="#EEDE6D" d="m100.68 35.843.993.579v-2.839l-.993-.58z"/><path fill="#313247" d="m102.305 36.76 1.004.568V30.63l-1.004-.567z"/><path fill="#F2B024" d="m102.305 36.76 1.004.567v-1.9l-1.004-.568z"/><path fill="#EEDE6D" d="m102.305 32.89 1.004.579V30.63l-1.004-.567z"/><path fill="#313247" d="m91.635 23.984-.623-.359v6.709l13.187 7.543v-.985l-12.564-7.184z"/><path fill="#5AD5E4" d="m126.723 42.404.993-.556V40.84l-.993.568z"/><path fill="#EEDE6D" d="m126.723 43.861.993-.568v-.996l-.993.568z"/><path fill="#5AD5E4" d="m126.723 45.314.993-.556V43.75l-.993.568zM128.129 41.615l.981-.568v-.996l-.981.567zM128.129 43.076l.981-.568v-.996l-.981.556z"/><path fill="#F2B024" d="m128.129 44.525.981-.568v-.996l-.981.568zM129.527 40.83l.993-.568v-.996l-.993.567z"/><path fill="#5AD5E4" d="m129.527 42.275.993-.556v-1.008l-.993.568zM129.527 43.74l.993-.568v-.996l-.993.567z"/><path fill="#EEDE6D" d="m130.941 40.04.982-.567v-.996l-.982.556z"/><path fill="#5AD5E4" d="m130.941 41.486.982-.568v-.996l-.982.568z"/><path fill="#F2B024" d="m130.941 42.94.982-.557v-.996l-.982.556z"/><path fill="#5AD5E4" d="m132.301 39.26.981-.568v-.997l-.981.568zM132.301 42.162l.981-.568v-.996l-.981.567zM133.695 39.92l.993-.556v-1.008l-.993.567z"/><path fill="#F2B024" d="m133.695 41.377.993-.568v-.996l-.993.567zM135.105 37.681l.982-.567v-.997l-.982.556z"/><path fill="#5AD5E4" d="m135.105 40.576.982-.556v-.997l-.982.557zM136.504 38.338l.993-.568v-.997l-.993.557z"/><path fill="#5B5C71" d="m97.063 17.25 26.454 15.468 26.304-15.016-26.65-15.585z"/><path fill="#312F3A" d="m97.063 19.614 26.454 15.48v-2.376L97.063 17.25z"/><path fill="#13121A" d="m123.516 35.129 26.431-15.133v-2.41l-26.431 15.132z"/><mask id="a" width="53" height="31" x="97" y="2" maskUnits="userSpaceOnUse" style="mask-type:luminance"><path fill="#fff" d="M123.517 32.714 97.063 17.246 123.17 2.113l26.65 15.585z"/></mask><g fill="#DCDCE6" mask="url(#a)"><path d="M99.038-3.961c.115-.15-.046-.406-.427-.626-.428-.243-.959-.336-1.19-.208-.23.127-.069.428.347.672.37.22.831.312 1.085.255l2.725 1.575 1.074 2.063L91.44 6.015l-8.325-4.808-1.051-2.005 8.094-4.507L70.09-16.892l-.6-1.159-.266.07.578 1.112L89.696-5.386l-7.99 4.449.981 1.889-3.498-2.016-1.167-1.97 6.074-3.384-.877-2.236-14.977-8.644-.196-.37-.266.07.173.324 14.954 8.632.82 2.085-1.028.568-.404-.776c.034-.047-.023-.128-.139-.197-.138-.081-.312-.104-.38-.07-.07.047-.024.14.115.22a.4.4 0 0 0 .103.047l.474.904-1.778.996-.37-.707h.023c.07-.046.023-.139-.115-.22-.139-.081-.312-.116-.381-.07-.081.047-.023.14.115.22.012 0 .023.012.023.012l.462.893-1.767.984-.358-.683s.012 0 .012-.012c.08-.046.023-.139-.115-.22-.139-.081-.312-.116-.393-.07-.07.047-.023.14.115.22.012 0 .023.012.023.012l.462.88-.796.441 1.097 1.843-3.083-1.773-1.04-1.982 5.393-3-.647-1.24-11.385-6.57c.127-.15-.047-.406-.416-.626-.427-.243-.958-.336-1.19-.208-.23.127-.069.428.359.672.37.208.82.312 1.085.254l8.187 4.728-2.425-.823-2.783-1.61c.116-.15-.046-.406-.415-.626-.428-.243-.959-.336-1.19-.209s-.07.43.358.673c.37.208.82.312 1.086.243l2.863 1.645 3.222 1.09 1.836 1.054-5.647-1.808-2.228-1.286q-.018-.07-.139-.139c-.138-.081-.312-.116-.38-.07-.07.047-.024.14.115.22.08.047.173.07.242.082l2.31 1.332 6.293 2.016.554 1.055-5.393 3 .982 1.878-2.032-1.17-1.224-2.005 4.145-2.306-3.094-1.784c.115-.15-.047-.406-.416-.614-.427-.244-.959-.336-1.19-.209s-.069.429.358.672c.37.209.832.313 1.086.255l2.783 1.61-4.053 2.26 1.143 1.877-7.84-4.53 1.42.255.415.243c-.127.15.047.406.428.626.427.243.958.336 1.177.208.231-.127.07-.429-.358-.672-.37-.22-.82-.313-1.085-.255l-.543-.313-1.893-.336-3.314-1.911 1.628.37.311.174c-.115.15.047.406.416.626.427.243.959.336 1.19.208.23-.127.069-.428-.359-.672-.369-.208-.83-.312-1.085-.255l-.416-.243-2.17-.498-.994-.58-1.131-2.166-.878-.51-.23.058.808.463 1.131 2.167L91.613 6.27l11.443-6.373-1.154-2.224zm-.566-.325q-.017-.069-.138-.139c-.139-.08-.312-.115-.381-.07-.081.047-.023.14.115.221.08.046.173.07.243.081l.242.14a1.15 1.15 0 0 1-.6-.163c-.255-.15-.347-.324-.208-.406.138-.08.462-.023.716.128.196.116.3.255.265.347zm-31.235-12.05-.161.093.427.243a1.1 1.1 0 0 1-.59-.162c-.253-.15-.346-.325-.218-.406.138-.08.45-.023.716.128.207.116.3.255.265.347zm2.991 2.491q-.018-.069-.139-.139c-.138-.08-.311-.116-.38-.07-.082.047-.024.14.115.22.08.047.173.07.242.082l.243.139a1.15 1.15 0 0 1-.6-.162c-.255-.15-.347-.325-.209-.406.14-.08.462-.023.716.128.197.116.3.255.266.336zm2.24 2.897q-.017-.07-.139-.14c-.138-.08-.311-.115-.38-.069-.07.047-.024.14.115.22.08.047.162.07.242.082l.243.139a1.15 1.15 0 0 1-.6-.163c-.255-.15-.347-.324-.208-.405s.45-.023.716.127c.196.116.3.255.265.336zm-5.162 2.445q.017.069.14.139c.138.08.31.116.38.07.07-.047.023-.14-.115-.22a.7.7 0 0 0-.243-.082l-.242-.139c.161-.012.404.046.6.162.254.15.347.325.208.406-.139.08-.462.023-.716-.128-.196-.115-.3-.255-.266-.347zm-3.66-2.109q.018.07.139.139c.138.081.311.116.38.07.07-.047.024-.14-.115-.22a.7.7 0 0 0-.242-.082l-.243-.139c.162-.011.404.047.6.162.255.151.347.325.209.406-.139.081-.45.023-.716-.127-.197-.116-.3-.255-.266-.348zM141.464-2.145l-14.549-8.4q-.018-.07-.139-.14c-.138-.08-.312-.104-.381-.069-.069.046-.023.14.116.22.08.047.173.07.242.081l14.619 8.436 3.129 1.054 2.275 1.31-13.868 7.728-1.894-.336-14.053 7.833.566 1.077-6.593 3.673-5.786-1.031 3.938 7.543h-.023c-.081.046-.023.139.115.22.139.081.312.104.381.07.081-.047.024-.14-.115-.22-.012 0-.023-.012-.035-.012l-3.845-7.358 5.6.997 6.732-3.743-.565-1.077 13.925-7.752 1.894.336L147.261.439l-2.656-1.53zM118.705 23.304l3.418-1.9c.393.185.82.243 1.016.128.231-.128.069-.43-.358-.672-.427-.244-.958-.337-1.189-.21-.196.117-.104.36.208.58l-3.488 1.947 3.43 6.57 12.321 7.172.173-.093-12.194-7.102zm3.21-2.48c.139-.08.462-.023.716.128.254.15.347.325.208.406-.104.058-.323.034-.543-.047l.127-.07c.081.024.162.024.197 0 .046-.022.034-.069.011-.115l.035-.012-.312-.173-.035.011c-.08-.023-.161-.023-.196 0-.046.023-.035.07-.012.116l-.127.07c-.138-.128-.173-.255-.069-.313"/><path d="m160.035.221.07-2.769 2.263-1.263-.173-.255-2.448 1.367-.035 1.402-1.824-.359-2.725 1.518.461 2.538-5.992 3.337.461 2.537-2.54 1.414c-.081-.023-.162-.023-.196 0 0 0 0 .011-.012.011l-3.187-.567 2.483-1.39-.462-2.538 6.051-3.372.612-.336-.462-2.538 8.614-4.797-.173-.254-8.811 4.9.462 2.538-.554.313-.924-.533.67-.37-18.683-10.776q-.018-.07-.139-.14c-.139-.08-.312-.115-.381-.069-.081.046-.023.14.115.22.081.047.174.07.243.081L151.19.673l-.496.278L130.671-10.6c.116-.15-.046-.405-.427-.625-.427-.244-.958-.336-1.189-.209s-.07.429.358.672c.369.22.831.313 1.085.255l20.023 11.552-14.573 8.11-.381.881-.924-.162-.438.244c-.047-.14-.197-.29-.439-.43-.427-.242-.959-.335-1.19-.208s-.069.429.358.672c.243.14.509.22.739.255l-.461.255c-.047-.127-.197-.29-.439-.417-.427-.243-.959-.336-1.19-.209s-.069.43.358.672c.231.14.508.22.739.255l-.462.255c-.046-.127-.196-.29-.438-.417-.428-.243-.959-.336-1.19-.208-.231.127-.069.428.358.672.243.139.508.22.739.255l-.462.266c-.046-.139-.196-.29-.438-.429-.428-.243-.959-.336-1.19-.208-.231.127-.069.428.358.672.231.139.508.22.739.255l-.462.255c-.046-.128-.196-.29-.438-.418-.428-.243-.959-.336-1.19-.208-.231.127-.069.429.358.672.243.14.508.22.739.255l-.462.266c-.046-.127-.196-.29-.438-.428-.428-.244-.959-.336-1.19-.209s-.069.429.358.672c.243.14.508.22.739.255l-4.469 2.491c-.046-.127-.196-.29-.438-.417-.428-.243-.959-.336-1.178-.208-.231.127-.069.428.358.672.231.139.508.22.739.255l-.462.254c-.046-.127-.196-.29-.439-.417-.427-.243-.958-.336-1.189-.208-.231.127-.069.429.358.672.242.139.508.22.739.255l-.462.255c-.046-.128-.196-.29-.439-.418-.427-.243-.958-.335-1.189-.208s-.07.429.358.672c.242.139.508.22.739.255l-1.028.58-.069.034-6.663 3.708.531 1.031-5.693-1.02 3.672 7.034-1.732-.313.104.197 1.732.313.231.44.335.058-.231-.44 4.504.81 14.711 8.494.161-.093-14.838-8.563-4.642-.834-3.568-6.836 5.358.962 3.36 6.43 14.838 8.563.162-.093-14.711-8.493-3.349-6.407 1.097-.614 2.079 3.974h-.023c-.081.046-.023.139.115.22.139.081.312.104.381.07.081-.047.023-.14-.115-.22-.012 0-.023-.012-.035-.012l-2.171-4.172 4.746-2.641c.393.185.82.243 1.028.127.231-.127.069-.429-.358-.672l-.277-.139-.347-.66 1.802.324 12.69-7.068.381-.892.924.162 2.598-1.448c.081.023.162.023.196 0 .046-.024.046-.07.012-.116l1.79-.997c.08.023.161.023.196 0 .046-.023.034-.07.011-.116l4.284-2.386.405 2.213-9.954 5.538-2.564.035-7.378 4.113 1.131 2.167-7.99 4.45 2.864 5.48 2.563 1.483 3.129 1.055 7.31 4.263.173-.092-7.344-4.287-.035-.024-3.129-1.054-2.367-1.367-2.783-5.33 7.991-4.45-1.132-2.166 7.275-4.056 2.563-.034 1.986-1.101 2.91.521c.081.093.196.197.358.278.427.244.958.336 1.189.209s.07-.429-.358-.672c-.427-.244-.958-.336-1.189-.209-.092.047-.115.116-.104.197l-2.575-.463 2.425-1.356 2.91.522c.081.092.196.197.358.29.427.242.958.335 1.178.208.231-.128.069-.429-.358-.672-.428-.244-.959-.336-1.19-.209-.081.046-.115.116-.104.197l-2.563-.463 2.425-1.356 3.522.626c.011 0 .011.011.023.011.138.081.312.116.381.07.046-.023.046-.07.011-.116l1.144-.637 1.558.903c-.115.151.047.406.416.626.427.243.959.336 1.189.209s.07-.43-.357-.672c-.37-.22-.82-.313-1.086-.244l-1.559-.903 1.282-.707-.462-2.538.612-.336 2.898.522a1.4 1.4 0 0 0 .358.29c.428.243.959.335 1.19.208s.069-.429-.358-.672c-.428-.244-.959-.336-1.19-.209-.08.047-.115.116-.104.197l-2.575-.463 2.425-1.356 2.899.521c.08.093.196.197.358.29.427.243.958.336 1.189.209s.069-.429-.358-.672-.958-.336-1.189-.209c-.081.046-.116.116-.104.197l-2.575-.463 2.494-1.39-.462-2.538 2.598-1.449 1.582.313-.035 1.333 8.672 5.005-.196-.301zm-29.895-11.17q-.018-.069-.139-.138c-.138-.082-.311-.116-.392-.07-.069.046-.023.14.115.22.081.047.174.07.243.081l.242.14a1.14 1.14 0 0 1-.6-.163c-.254-.15-.347-.324-.208-.405s.462-.024.704.127c.197.116.301.255.266.348zm-9.457 30.01-4.827 2.689-1.097.614-.427-.811 6.432-3.58.254.486c-.22-.046-.427-.035-.543.023-.208.105-.104.36.208.58m.808 0c.046-.023.035-.069.012-.115l.034-.012.035-.023-.069-.127c.242.139.335.324.208.405-.104.058-.335.035-.543-.046l.127-.07c.081.012.162.012.196-.011m-.369-.416.069.139c-.081-.024-.15-.024-.196 0-.046.023-.046.07-.012.115l-.127.07c-.138-.116-.185-.243-.069-.301.069-.058.196-.058.335-.023m12.032-8.586c-.254-.151-.347-.325-.208-.406s.462-.023.716.128c.254.15.346.324.208.405-.15.07-.474.012-.716-.127m-1.005.556c-.254-.15-.346-.325-.208-.406.139-.08.451-.023.716.128.254.15.347.324.208.405-.138.07-.462.023-.716-.127m-1.004.556c-.254-.15-.347-.324-.208-.406.138-.08.462-.023.716.128.254.15.346.324.208.405-.139.07-.462.024-.716-.127m-.993.556c-.254-.15-.358-.324-.208-.405.138-.081.45-.024.716.127.254.15.346.325.207.406-.138.07-.461.023-.715-.128m-1.005.556c-.254-.15-.346-.324-.208-.405.139-.081.462-.023.716.127s.346.325.208.406c-.139.08-.462.023-.716-.128m-.993.556c-.254-.15-.347-.335-.208-.405.139-.081.45-.023.716.127.254.151.346.325.208.406-.139.081-.462.023-.716-.128m-5 2.781c-.254-.15-.346-.324-.208-.405.139-.081.462-.023.705.127.254.15.346.325.207.406-.127.08-.45.023-.704-.128m-1.005.557c-.254-.151-.346-.325-.207-.406s.461-.023.715.127c.255.151.347.325.208.406s-.45.023-.716-.127m-.993.556c-.254-.151-.346-.325-.207-.406s.461-.023.715.128c.254.15.347.324.208.405s-.462.023-.716-.127m14.042-5.759-12.61 7.022-1.42-.255 13.753-7.66.612.105zm1.385-.765-.612-.104.335-.776 1.282-.719 1.42.255zm2.737-1.53c-.081-.022-.15-.022-.196 0 0 0 0 .012-.012.012l-1.282-.231 1.767-.985 1.42.255zm6.536-3.637-4.538 2.525c-.081-.023-.162-.023-.197 0 0 0 0 .012-.011.012l-1.282-.232 11.039-6.152.924.533zm-4.019 7.473c.139-.081.462-.023.716.127.254.151.347.325.208.406s-.462.023-.704-.127c-.266-.14-.37-.325-.22-.406m2.656-1.483c.139-.081.462-.023.716.127.254.151.346.325.208.406-.139.081-.462.023-.716-.127-.069-.047-.127-.082-.173-.128l.265.046c.012 0 .012.012.023.012.139.081.312.116.381.07.07-.047.024-.14-.115-.22-.139-.082-.312-.117-.381-.07 0 0 0 .011-.012.011l-.265-.046a.2.2 0 0 1 .069-.081m6.651-.603q.018.07.139.14c.138.08.312.104.381.069.069-.046.023-.14-.116-.22a.7.7 0 0 0-.242-.081l-.243-.14c.162-.022.405.047.601.151.254.15.346.325.208.406-.139.08-.451.023-.705-.128-.196-.115-.3-.255-.265-.347zm2.679-4.588c.139-.081.462-.023.716.127.254.151.346.325.208.406-.139.081-.462.023-.716-.127-.254-.151-.346-.325-.208-.406m2.668-1.483c.138-.081.461-.023.715.127.254.151.347.325.208.406s-.45.023-.704-.128c-.266-.15-.358-.324-.219-.405"/><path d="M145.524-.184c-.427-.243-.959-.336-1.19-.209-.127.07-.127.21-.023.348l-1.893.023-9.977 5.55-1.628-.29c-.012 0-.012-.01-.023-.01-.139-.082-.312-.105-.381-.07-.047.023-.035.07-.012.115l-1.478.823c-.393-.185-.82-.243-1.028-.127-.231.127-.069.428.358.672.162.092.324.162.497.208l.3.58-3.764 2.097-.393-.753c.127 0 .243-.012.323-.058.231-.128.07-.429-.358-.672-.427-.244-.958-.336-1.177-.209-.231.128-.07.429.358.672.161.093.358.174.531.22l.485.927-1.767.985-.393-.753a.6.6 0 0 0 .335-.058c.231-.127.07-.429-.358-.672-.427-.243-.958-.336-1.189-.209s-.069.43.358.673c.162.092.346.162.508.208l.497.939-.601.336-1.663-.302-.831-1.587c.127 0 .242-.012.312-.058.231-.127.069-.429-.358-.672-.428-.243-.959-.336-1.19-.209s-.069.43.358.672c.174.093.358.174.543.22l.82 1.576-1.801-.324-6.063 3.372.543 1.031-2.817-.51a1.5 1.5 0 0 0-.347-.278c-.427-.243-.958-.336-1.189-.208-.231.127-.07.428.358.672.427.243.958.336 1.189.208.092-.046.116-.127.104-.208l2.817.51.497.95-3.256 1.819-5.693-1.02-1.282.718-4.919-2.838-.67.37-.923-.533 1.997-1.112-1.535-.892-2.668 1.483-.924-.533 1.998-1.112-1.536-.893-1.328.742-.923-.533.67-.37-8.834-5.099-3.788-.684-4.71-2.71.842-.476c.393.185.82.243 1.016.128.231-.128.07-.43-.346-.673-.427-.243-.959-.336-1.19-.208-.196.116-.103.36.208.58l-.843.463-2.159-1.24.173-.093c.393.186.82.244 1.028.128.23-.128.07-.429-.358-.672-.427-.244-.958-.336-1.19-.209-.196.116-.103.36.209.58l-.174.092-2.17-1.251-1.71-3.28-4.272-2.467c.127-.151-.035-.406-.416-.626-.427-.243-.958-.336-1.189-.209-.23.128-.07.43.358.672.37.209.808.313 1.074.255l4.145 2.399 1.57 3.012-.854-.498-1.154-2.178-8.58-4.948-.323-.614a.65.65 0 0 0 .358-.058c.23-.127.069-.429-.358-.672-.428-.243-.959-.336-1.19-.208-.23.127-.069.428.358.672.162.092.335.162.497.208l.23.429-2.02-1.159-1.236-2.224-3.487-2.017-.23.058 2.043 1.182-1.501-.266-1.259-.73-.23.058 1.443.834 1.974.348.947.544.52.927-1.686-.278-3.372-1.947q-.017-.069-.138-.139c-.139-.08-.312-.116-.381-.07-.07.047-.023.14.115.221.08.046.162.07.243.081l3.51 2.028 1.824.313.612 1.1 11.028 6.362 1.004 1.9L59.06-6.65l-1.212.672-.37-.707h.023c.07-.047.023-.14-.115-.22-.139-.081-.312-.116-.381-.07-.081.046-.023.14.115.22.012 0 .023.012.035.012l.473.904-1.097.614-.947-1.82h.023c.07-.046.023-.138-.115-.22-.139-.08-.312-.104-.381-.07-.08.047-.023.14.115.221.012 0 .023.012.035.012l1.05 2.004-1.096.614-.959-1.819h.023c.081-.046.024-.139-.115-.22-.138-.081-.312-.104-.381-.07-.08.047-.023.14.116.22.011 0 .023.012.023.012l1.062 2.016-.3.163.311.173 4.25-2.363L80.086 5.656l3.8.683 8.406 4.844-.67.37 1.536.893 1.328-.742.923.533-1.997 1.113 1.535.892 2.668-1.483.924.533-1.998 1.112 1.536.892.67-.37 4.618 2.664-1.281.719 1.732 3.198-3.626-.65-3.568-2.062-.866-1.657a.67.67 0 0 0 .358-.058c.23-.127.069-.428-.358-.672-.427-.243-.959-.336-1.178-.208-.231.127-.07.429.358.672.15.093.323.162.496.209l.763 1.46-3.257-1.878-.3-.579c.15.012.266 0 .358-.058.23-.127.07-.429-.346-.672-.428-.243-.959-.336-1.19-.208-.23.127-.07.428.358.672.162.092.323.162.497.208l.196.382L85.56 12.4l-1.132-2.166L74.036 4.23c.115-.151-.047-.406-.416-.626-.427-.243-.959-.336-1.19-.209s-.069.43.358.672c.37.22.832.313 1.086.244l10.265 5.92 1.132 2.167 14.896 8.598 3.776.672 2.055 3.8.335.058-3.857-7.102 2.598-1.449 5.693 1.02 3.395-1.889-1.132-2.167 5.924-3.302 3.799.684 6.732-3.754-.335-.65c.15.012.277 0 .358-.057.196-.116.104-.36-.208-.58l1.49-.822c.08.023.161.023.196 0 .011 0 .012-.012.012-.012l1.755.313L142.764.187l1.824-.023c.058.046.116.08.185.116.427.243.959.336 1.178.208.15-.127-.012-.429-.427-.672m-21.339 8.598c-.254-.151-.347-.325-.208-.406s.462-.023.716.127c.254.151.346.325.208.406-.139.081-.462.023-.716-.127m-1.986 1.112c-.254-.15-.347-.325-.208-.406.138-.08.462-.023.716.128.254.15.346.324.208.405-.151.081-.462.023-.716-.127m-2.448-.672c.057-.047.011-.128-.127-.209-.139-.08-.312-.116-.381-.07-.081.047-.024.14.115.22.023.012.058.024.081.036l.069.139a1.4 1.4 0 0 1-.277-.116c-.254-.15-.346-.336-.208-.406.139-.08.462-.023.716.128.254.15.346.324.208.405-.035.012-.069.023-.116.035zm-9.758 5.689c-.138.081-.462.023-.716-.127-.254-.151-.346-.325-.207-.406s.45-.023.715.127c.07.035.116.082.162.116l-.462-.08.104.196.462.081c0 .035-.023.07-.058.093M75.987 1.716c.139-.08.45-.023.705.128.254.15.346.324.207.405-.104.058-.323.035-.542-.046l.127-.07c.08.024.15.024.196 0 .07-.046.023-.139-.116-.22-.138-.08-.311-.116-.392-.07-.046.024-.035.07 0 .117l-.127.07c-.127-.128-.162-.256-.058-.314M63.886-6.15c-.012-.047-.058-.104-.139-.15-.138-.082-.312-.117-.38-.07-.07.046-.024.139.115.22.069.046.15.07.23.08l.243.14a1.1 1.1 0 0 1-.589-.162c-.254-.15-.346-.325-.208-.406.139-.08.462-.023.716.128.208.116.3.255.266.347zm-4.989-2.781h.023c.07-.046.023-.14-.115-.22-.139-.081-.312-.116-.381-.07-.08.047-.023.14.115.22.012 0 .023.012.023.012l.081.15a1 1 0 0 1-.22-.104c-.253-.15-.346-.336-.207-.405.139-.081.462-.023.716.127s.346.325.208.406a.3.3 0 0 1-.15.035zM72.857.662c.14-.081.463-.023.705.127.254.151.347.325.22.406-.104.058-.335.035-.543-.046l.127-.07c.08.023.162.023.196 0 .07-.046.023-.139-.115-.22-.139-.081-.312-.116-.381-.07-.047.024-.047.07-.012.116l-.127.07c-.139-.128-.173-.255-.07-.313m22.656 16.117h.023c.07-.046.023-.139-.115-.22-.139-.081-.312-.116-.381-.07-.081.047-.023.14.115.22.012 0 .023.012.035.012l.08.15a.8.8 0 0 1-.219-.103c-.254-.151-.358-.325-.219-.406s.462-.023.716.128c.254.15.346.324.208.405a.3.3 0 0 1-.15.035zM73.4 3.895c-.011-.047-.069-.093-.138-.14-.139-.08-.312-.104-.381-.069-.07.046-.023.14.115.22.081.047.174.07.243.081l.242.14a1.15 1.15 0 0 1-.6-.163c-.254-.15-.347-.324-.208-.405s.462-.024.716.127c.196.116.3.255.266.348zm18.984 11.83h.023c.07-.046.023-.14-.115-.22-.139-.081-.312-.116-.382-.07-.08.046-.023.14.116.22.012 0 .023.012.035.012l.08.15a.8.8 0 0 1-.219-.104c-.254-.15-.346-.324-.208-.405.139-.081.45-.024.716.127.254.15.347.336.208.406a.3.3 0 0 1-.15.035zm36.223-9.455c-.081-.023-.161-.023-.196 0-.081.046-.023.139.115.22.012 0 .024.012.035.012l.081.15a1 1 0 0 1-.22-.104c-.254-.15-.346-.324-.207-.406.104-.057.323-.034.542.047zm.508.417a.3.3 0 0 1-.15.035l-.081-.15h.023c.047-.024.035-.07.012-.117l.127-.07c.139.117.173.244.069.302M145.558.314c-.138.07-.461.023-.716-.127s-.346-.325-.219-.406c.139-.08.462-.023.716.128.266.15.358.336.219.405M128.412 30.358l-4.931-2.838-1.651-3.164 9.33-5.19-1.131-2.167 3.556-1.982c.393.186.82.244 1.016.128.231-.128.069-.429-.358-.672s-.958-.336-1.189-.209c-.196.116-.104.36.208.58l-3.626 2.016 1.132 2.166-9.33 5.191 1.732 3.326 4.919 2.839.565 1.077 7.448 4.299.162-.093-7.321-4.23zm4.965-15.92c.139-.081.451-.023.716.127.254.151.347.325.208.406-.116.058-.335.035-.543-.046l.127-.07c.081.023.162.023.197 0 .069-.046.023-.139-.116-.22-.138-.081-.312-.116-.381-.07-.046.024-.046.07-.011.116l-.128.07c-.138-.128-.173-.255-.069-.313"/><path d="m133.318 20.41-1.443.811 2.459 1.425-.496.278-1.236-.706-.831.463 2.459 1.425-.496.278-3.695-2.131-.832.463 2.46 1.425-.497.278-1.235-.707-1.501.835 3.949 2.27 2.563-.034 1.074.614.866 1.657a.67.67 0 0 0-.358.058c-.231.127-.069.429.358.672s.958.336 1.189.209.07-.43-.358-.672a2.3 2.3 0 0 0-.496-.21l-.762-1.459 3.129 1.807q.018.07.139.14c.138.08.311.104.381.07.081-.047.023-.14-.116-.221a.8.8 0 0 0-.242-.081l-4.827-2.781-2.563.035-3.441-1.982 1.166-.648 1.235.706.832-.463-2.46-1.425.497-.279 3.695 2.133.831-.464-2.459-1.425.496-.278 1.236.707.831-.464-2.459-1.425 1.212-.672 3.66.66 12.252 7.068.162-.092-12.379-7.15zm3.741 8.98h-.023c-.069.046-.023.139.116.22.138.081.311.104.381.07.081-.047.023-.14-.116-.22-.011 0-.023-.012-.023-.012l-.081-.15c.081.022.15.057.22.104.254.15.346.324.208.405-.139.081-.462.023-.716-.127-.254-.151-.347-.325-.208-.406a.3.3 0 0 1 .15-.035zM141.168 20.35l-6.12-3.522-.161.081 6.189 3.58 3.129 1.055 8.58 4.948.161-.093-8.648-4.994z"/><path d="m134.891 23.724 1.235.707-3.603 2.004 3.083-.034 5.866 3.383q.018.07.139.139c.139.081.312.116.381.07.069-.047.023-.14-.115-.22a.8.8 0 0 0-.243-.082l-3.129-1.807.67.116c.08.092.196.197.358.278.427.243.958.336 1.189.208.231-.127.069-.428-.358-.672-.427-.243-.959-.336-1.189-.208-.093.046-.116.115-.104.197l-1.005-.186-2.494-1.437-2.044.024 3.06-1.704-1.236-.706 2.495-1.39 10.923 6.302.173-.092-11.235-6.489zm4.595 4.067c.139-.081.462-.023.716.127.254.151.347.325.208.406s-.462.023-.716-.128c-.069-.046-.127-.08-.173-.127l.266.046.023.024c.138.08.311.116.381.07.081-.047.023-.14-.116-.221-.138-.081-.312-.104-.381-.07-.011 0-.011.012-.011.012l-.266-.046c.023-.047.035-.07.069-.093M143.583-.786l-.023.024-2.39.034-3.314 1.843-3.66-.66-3.788-2.18-6.709 3.732-1.755-.313-4.919-2.839-3.938-.707-16.72 9.316 1.166 2.237 10.959 6.326q.017.07.138.139c.139.081.312.104.381.07.081-.047.023-.14-.115-.22a.7.7 0 0 0-.243-.082l-2.205-1.274-.3-.58a.65.65 0 0 0 .358-.058c.23-.127.069-.428-.358-.672-.428-.243-.959-.336-1.19-.208-.231.127-.069.429.347.672.161.093.335.162.496.208l.196.383-3.256-1.877-.3-.568a.7.7 0 0 0 .358-.058c.231-.127.069-.429-.358-.672s-.958-.336-1.178-.209c-.231.128-.069.43.347.672.161.093.323.163.496.21l.196.381-2.032-1.17-1.085-2.086 2.598-1.448 5.693 1.02 9.33-5.191 1.755.313 5.958 3.441c-.115.15.046.406.416.626.427.243.958.336 1.189.208.231-.127.069-.428-.346-.672-.37-.22-.832-.313-1.086-.255l-6.085-3.51-2.032-.36-9.33 5.191-5.693-1.02-2.737 1.518 1.028 1.97-2.02-1.17-1.086-2.086 16.581-9.234 3.661.648 4.93 2.84 2.033.358 6.616-3.684 3.603 2.085 3.937.707 3.349-1.865 2.275-.023c.138.07.3.104.369.058.081-.047.023-.14-.115-.22-.139-.07-.312-.093-.393-.059M105.905 13.63l-.335-.058.139.266a.8.8 0 0 1-.22-.104c-.254-.15-.346-.325-.207-.406.138-.08.461-.023.715.128.255.15.358.324.208.405a.3.3 0 0 1-.15.035zm-3.695-2.133-.335-.057.139.266c-.081-.023-.15-.058-.22-.093-.254-.15-.346-.324-.208-.405.139-.081.462-.023.716.127s.347.325.208.406a.3.3 0 0 1-.15.035zm22.702-4.217c.138-.081.45-.023.716.127.254.151.346.336.207.406-.138.081-.461.023-.715-.128-.255-.139-.347-.324-.208-.405M152.755 21l-10.993-6.338.543-.302 4.804.858c.08.093.196.197.357.278.428.243.959.336 1.19.209s.069-.43-.358-.672c-.427-.244-.959-.336-1.189-.209-.093.046-.116.116-.104.197l-4.943-.88-.785.44 5.935 3.43-2.563-.464a1.2 1.2 0 0 0-.358-.278c-.427-.243-.958-.336-1.189-.209s-.07.429.346.672c.427.244.958.336 1.189.209.081-.046.116-.116.104-.197l2.91.521 3.256 1.877-2.563-.463a1.4 1.4 0 0 0-.358-.29c-.427-.243-.958-.336-1.189-.208-.231.127-.07.428.358.672.427.243.958.336 1.189.208.081-.046.115-.116.104-.197l2.91.522 1.108.637 1.086 2.086-2.541 1.413-7.078-4.09.473-.266c.081.023.162.023.208 0 .07-.047.023-.14-.115-.22-.139-.082-.312-.117-.393-.07-.046.023-.034.07 0 .116l-.485.266-2.147-1.24.473-.266c.081.023.162.023.196 0 .07-.046.023-.14-.115-.22-.139-.081-.312-.116-.393-.07-.046.023-.034.07 0 .116l-.485.267-2.148-1.24.474-.267c.081.023.162.023.196 0 .069-.046.023-.139-.115-.22-.139-.08-.312-.116-.393-.07-.046.024-.035.07-.011.117l-.485.266-1.559-.892c.104-.128-.012-.336-.277-.533l4.226-2.352 3.51.625c.012 0 .012.012.023.012.139.081.312.116.393.07.069-.047.023-.14-.116-.22-.138-.082-.311-.117-.392-.07-.012 0-.012.011-.012.011l-3.649-.648-4.295 2.387c-.393-.186-.82-.244-1.028-.128-.231.127-.069.429.358.672.37.209.82.313 1.085.243l16.478 9.513.173-.092-2.309-1.333 2.621-1.46zm-5.323-6.002c.138-.081.462-.023.716.127s.346.325.208.406c-.139.08-.451.023-.705-.128-.265-.15-.358-.336-.219-.405m-3.072 2.758c-.138.08-.462.023-.716-.128-.254-.15-.346-.324-.207-.405s.461-.024.715.127c.07.046.127.081.174.127l-.266-.046-.023-.023c-.139-.081-.312-.104-.381-.07-.081.047-.023.14.115.22.139.082.312.116.381.07 0 0 0-.012.012-.012l.266.047c-.024.035-.035.07-.07.093m3.684 2.131c-.139.082-.462.024-.716-.127-.254-.15-.347-.324-.208-.405s.45-.024.716.127c.254.139.346.324.208.406m-11.986-3.615c-.254-.15-.346-.336-.208-.405.104-.058.323-.035.543.046l-.127.07c-.081-.024-.162-.024-.197 0-.08.046-.023.139.116.22.081.046.173.07.242.081l.243.139c-.173.023-.416-.046-.612-.15m.52-.08c0-.012-.012-.024-.012-.035l.127-.07c.104.093.15.174.127.243z"/><path d="M134.155 1.962c-.427-.243-.958-.336-1.189-.208-.208.116-.104.36.208.58l-6.57 3.66-2.437.035-4.457-2.572 3.464.626 3.326-1.854 3.799.684 1.293-.719c.393.186.82.243 1.028.128.231-.128.069-.43-.358-.672-.427-.244-.959-.336-1.19-.209-.207.116-.104.36.208.58l-1.224.683-3.799-.672-3.337 1.854-3.66-.66-2.033-1.17.67.127c.081.092.196.197.358.278.427.243.959.336 1.189.208.231-.127.07-.428-.358-.672-.427-.243-.958-.336-1.189-.208-.081.046-.115.116-.104.197l-1.004-.186-1.224-.707-2.044-.37-2.737 1.518.566 1.077-5.924 3.302-3.787-.672-4.065 2.26.52.996h-.023c-.081.047-.023.14.115.22.139.081.312.105.381.07.081-.046.023-.14-.115-.22-.012-.012-.023-.012-.035-.012l-.485-.927 3.926-2.19 3.799.684 6.062-3.383-.565-1.078L113.752.92l1.755.312 8.649 4.994 2.69-.034 6.605-3.673c.393.185.82.243 1.016.127.277-.139.116-.44-.312-.684m-2.771-.382c.139-.081.462-.023.716.128.254.15.346.324.208.405-.139.081-.45.023-.716-.127-.254-.14-.346-.325-.208-.406m-13.152.348c.139-.081.45-.023.704.127s.347.325.208.406c-.138.08-.462.023-.716-.128a.7.7 0 0 1-.173-.127l.266.046c.011 0 .011.012.023.012.138.08.312.104.381.07.069-.047.023-.14-.116-.22-.138-.082-.311-.117-.381-.07-.011 0-.011.011-.011.011l-.266-.046a.3.3 0 0 1 .081-.081m15.97.533c-.139.08-.462.023-.705-.128-.254-.15-.346-.324-.219-.405.138-.081.462-.023.716.127.254.14.346.325.208.406M167.857 10.941l-.104 1.448-11.339 6.315 1.131 2.167-3.095 1.726-1.027-1.97-1.236-.706-.485-.927h.023c.081-.046.023-.14-.115-.22-.139-.081-.312-.116-.381-.07-.081.047-.023.14.115.22.012 0 .023.012.035.012l.381.73-3.256-1.877-.485-.927h.023c.069-.046.023-.14-.116-.22-.138-.081-.311-.116-.381-.07-.081.047-.023.14.116.22.011 0 .023.012.023.012l.381.73-4.18-2.41 1.282.232.011.011c.139.081.312.116.381.07.081-.047.023-.14-.115-.22-.139-.082-.312-.105-.381-.07-.012 0-.012.012-.012.012l-2.078-.371 10.15 5.863 1.651 3.163-2.044 1.136 1.386.799.173-.093-1.074-.625 1.951-1.09-.565-1.077 3.325-1.854-1.131-2.167 11.304-6.303.104-1.448 2.968-1.646-.174-.255z"/><path d="M118.021 3.965c-.427-.243-.959-.336-1.189-.209-.197.116-.104.36.207.58l-5.334 2.978 3.787 2.19.52 1.008-4.227 2.352c-.392-.186-.819-.244-1.027-.128-.231.128-.07.429.358.672.427.244.958.336 1.177.209.197-.116.104-.36-.207-.58l4.284-2.387-.612-1.158-3.603-2.074 5.173-2.885c.393.185.82.243 1.028.127.242-.15.081-.452-.335-.695m-6.028 9.466c-.138.082-.462.024-.716-.127-.254-.15-.346-.325-.208-.406.104-.057.324-.034.543.047l-.127.07c-.081-.024-.161-.024-.196 0-.081.046-.023.138.115.22.139.08.312.115.381.069.047-.023.035-.07.012-.116l.127-.07c.139.128.185.255.069.313m6.074-8.968c-.139.081-.462.023-.716-.127s-.346-.325-.208-.406c.139-.08.451-.023.716.128.243.15.347.336.208.405M124.489 14.607c-.069.046-.023.139.115.22.139.081.312.116.381.07.07-.047.023-.14-.115-.22-.127-.082-.3-.117-.381-.07M125.154 14.232c-.081.046-.023.139.116.22.138.081.311.104.381.07.08-.047.023-.14-.116-.22-.138-.082-.3-.117-.381-.07M125.825 13.86c-.069.047-.023.14.115.22.139.082.312.117.393.07.069-.046.023-.139-.116-.22-.15-.081-.323-.116-.392-.07M126.49 13.49c-.081.046-.023.139.116.22.138.08.311.104.381.07.08-.047.023-.14-.116-.221-.138-.081-.312-.116-.381-.07M127.127 13.134c-.081.046-.023.14.115.22.139.081.312.105.381.07.07-.047.023-.14-.115-.22-.139-.082-.312-.116-.381-.07M140.78 22.014c-.369-.22-.831-.312-1.085-.255l-1.559-.892.843-.463c.392.185.82.243 1.027.127.231-.127.07-.428-.358-.672-.427-.243-.958-.336-1.189-.208-.208.116-.104.359.208.58l-.843.463-2.159-1.24.173-.093c.393.186.82.243 1.028.127.231-.127.069-.428-.358-.671-.428-.244-.959-.337-1.19-.21-.196.117-.104.36.208.58l-.173.093-1.236-.707-9.445 5.26 1.166 2.249 4.931 2.838 1.131 2.167 6.282 3.557.162-.093-3.568-2.027 2.448-1.367c.08.023.161.023.196 0 .069-.047.023-.14-.116-.22-.138-.082-.311-.117-.381-.07-.046.023-.034.07-.011.116l-2.46 1.367-2.263-1.286-1.132-2.167-1.143-.66.843-.464c.393.186.82.244 1.028.128.231-.128.069-.43-.358-.672-.427-.244-.958-.337-1.189-.209-.197.116-.104.36.207.58l-.842.463-3.476-2.005-1.086-2.085 9.203-5.133 5.254 3.035c-.115.151.047.406.416.626.427.243.958.336 1.189.209.254-.151.093-.452-.323-.696m-2.009-2.201c.138-.081.462-.023.716.127.254.151.346.325.208.406-.104.058-.324.035-.543-.046l.127-.07c.081.023.15.023.196 0 .081-.046.023-.139-.115-.22-.139-.081-.312-.116-.393-.07-.046.024-.034.07-.011.116l-.127.07c-.127-.128-.174-.255-.058-.313m-8.199 7.358c.139-.081.462-.023.716.127s.347.325.208.406c-.104.058-.335.034-.542-.047l.23-.127-.311-.174-.231.127c-.139-.127-.185-.254-.07-.312m5.07-8.412c.138-.082.462-.024.716.127.254.15.346.325.207.406-.104.057-.334.034-.542-.047l.231-.127-.301-.174-.231.127c-.15-.127-.196-.255-.08-.312m5.184 3.754c-.138.08-.462.023-.716-.128-.196-.116-.3-.255-.265-.347l.242.139q.018.069.139.139c.138.08.312.116.381.07.069-.047.023-.14-.116-.22a.7.7 0 0 0-.242-.082l-.243-.14c.162-.01.405.047.601.152.254.15.346.336.219.417M119.099 27.369h.023c.069-.046.023-.139-.115-.22-.139-.081-.312-.116-.381-.07-.07.047-.024.14.115.22.012.012.023.012.035.012l1.085 2.086 13.614 7.856.162-.093-13.476-7.775zM124.293 34.02l-4.769-2.757q-.017-.069-.138-.139c-.139-.08-.312-.104-.382-.07-.069.047-.023.14.116.22.081.047.173.07.242.082l4.7 2.711 1.801 1.796 4.966 2.862.173-.093-4.884-2.827z"/><path d="M136.238-4.787c-.428-.243-.959-.336-1.19-.208-.081.046-.115.116-.104.197l-1.143-.209-11.281 6.28-4.839-2.792-1.177-.209-.774-1.483 8.014-4.46c.081.022.161.022.196 0 .081-.047.023-.14-.115-.221-.139-.081-.312-.116-.382-.07-.046.024-.046.07-.011.116l-8.083 4.496.82 1.564-1.236-.22-.773-1.483 10.519-5.863c.081.023.162.023.196 0 .07-.046.023-.139-.115-.22-.139-.081-.312-.116-.381-.07-.046.024-.046.07-.012.116l-10.588 5.898.819 1.564-2.748-.486-4.018 2.236-3.21.405-12.771 7.103 8.614 4.97-.497.279L71.955-3.721l.67-.37-11.293-6.524-3.8-.684-4.41-2.549-.231.058 4.595 2.654 3.788.683L72.14-4.184l-.67.37 28.625 16.523.832-.463-8.626-4.97 12.563-7 3.21-.393 3.996-2.213 5.554.996 5.011 2.897 11.374-6.338 1.005.185c.081.093.196.197.358.278.427.244.958.336 1.189.209.254-.14.092-.44-.323-.684m.046.499c-.139.069-.462.023-.716-.128-.069-.046-.127-.081-.173-.127l.265.046c.012 0 .012.012.023.012.139.08.312.115.381.069.081-.046.024-.139-.115-.22s-.312-.116-.393-.07c0 0 0 .012-.011.012l-.266-.046c0-.035.023-.07.058-.081.139-.082.462-.024.716.127.265.15.369.324.231.406"/></g><path fill="#313247" d="M169.863 94.98 148.72 83.218V71.493l11.236-7.022.161-.104V52.988h-.693v10.996l-11.223 7.022-.162.104v12.514l21.662 12.062.162.093L188.5 85.374l-.335-.603z"/><path fill="#29C1CF" d="M55.242 112.417c.012.915 1.363 1.935 3.291 1.935s3.268-1.02 3.291-1.935V95.176h-6.582z"/><path fill="#5AD5E4" d="M58.533 93.148c-1.94 0-3.29 1.032-3.29 1.947s1.35 1.947 3.29 1.947 3.291-1.032 3.291-1.947-1.362-1.947-3.29-1.947"/><path fill="#fff" d="M67.055 115.547c-2.471 0-4.192 1.332-4.192 2.526s1.72 2.537 4.192 2.537c2.471 0 4.191-1.332 4.191-2.537.012-1.194-1.72-2.526-4.191-2.526m0 4.832c-2.333 0-3.96-1.217-3.96-2.306s1.627-2.306 3.96-2.306c2.332 0 3.96 1.217 3.96 2.306s-1.616 2.306-3.96 2.306"/><path fill="#29C1CF" d="M63.777 117.76c.012.915 1.363 1.935 3.291 1.935 1.929 0 3.268-1.02 3.291-1.935v-13.58h-6.582z"/><path fill="#5AD5E4" d="M67.057 102.137c-1.94 0-3.291 1.031-3.291 1.946 0 .927 1.35 1.947 3.29 1.947s3.291-1.031 3.291-1.947c0-.915-1.35-1.946-3.29-1.946"/><path fill="#fff" d="M170.582 110.906c-2.471 0-4.191 1.333-4.191 2.526 0 1.194 1.72 2.538 4.191 2.538s4.192-1.333 4.192-2.538c0-1.182-1.721-2.526-4.192-2.526m0 4.832c-2.332 0-3.96-1.217-3.96-2.306s1.628-2.306 3.96-2.306c2.333 0 3.961 1.217 3.961 2.306 0 1.101-1.628 2.306-3.961 2.306"/><path fill="#29C1CF" d="M167.293 113.138c.012.916 1.363 1.935 3.291 1.935s3.268-1.019 3.291-1.935v-13.58h-6.582z"/><path fill="#5AD5E4" d="M170.584 97.516c-1.94 0-3.291 1.03-3.291 1.946s1.351 1.947 3.291 1.947 3.291-1.031 3.291-1.947c0-.915-1.351-1.946-3.291-1.946"/><path fill="#fff" d="M154.75 118.832c-2.471 0-4.191 1.333-4.191 2.526s1.72 2.537 4.191 2.537 4.192-1.332 4.192-2.537c0-1.193-1.721-2.526-4.192-2.526m0 4.832c-2.332 0-3.96-1.217-3.96-2.306s1.628-2.306 3.96-2.306c2.333 0 3.961 1.217 3.961 2.306s-1.628 2.306-3.961 2.306"/><path fill="#29C1CF" d="M151.461 121.052c.011.916 1.363 1.936 3.291 1.936s3.268-1.02 3.291-1.936v-13.579h-6.582z"/><path fill="#5AD5E4" d="M154.752 105.43c-1.94 0-3.291 1.031-3.291 1.946 0 .927 1.351 1.947 3.291 1.947s3.291-1.031 3.291-1.947c0-.927-1.351-1.946-3.291-1.946"/><path fill="#fff" d="M138.922 126.75c-2.471 0-4.192 1.332-4.192 2.526s1.721 2.526 4.192 2.526 4.192-1.333 4.192-2.526c0-1.194-1.709-2.526-4.192-2.526m0 4.832c-2.332 0-3.961-1.217-3.961-2.306s1.629-2.306 3.961-2.306c2.333 0 3.961 1.217 3.961 2.306.011 1.089-1.617 2.306-3.961 2.306"/><path fill="#29C1CF" d="M135.641 128.963c.011.915 1.362 1.935 3.291 1.935s3.267-1.02 3.29-1.935v-13.58h-6.581z"/><path fill="#5AD5E4" d="M138.92 113.34c-1.94 0-3.291 1.031-3.291 1.946 0 .927 1.351 1.947 3.291 1.947s3.291-1.031 3.291-1.947c0-.915-1.351-1.946-3.291-1.946"/></svg>