<svg xmlns="http://www.w3.org/2000/svg" width="135" height="180" fill="none"><path fill="#A4A3CD" d="m0 118.294 67.521 39.392 67.147-38.243-68.014-39.681z"/><path fill="#5B5C71" d="m0 140.516 67.521 39.392v-22.219L0 118.297z"/><path fill="#13121A" d="m67.52 179.998 67.478-38.516v-22.33L67.52 157.685z"/><path fill="#313247" d="m71.54 173.082 35.307-20.152v-13.071l-35.308 20.16z"/><path fill="#5B5C71" d="m105.623 151.705-34.084 19.453v1.924l35.308-20.152v-13.071l-1.224.698z"/><path fill="#5AD5E4" d="m73.773 162.652 1.93-1.098v-1.949l-1.93 1.107z"/><path fill="#EEDE6D" d="m73.773 165.488 1.93-1.098v-1.949l-1.93 1.107z"/><path fill="#5AD5E4" d="m73.773 168.32 1.93-1.098v-1.949l-1.93 1.098zM76.52 161.113l1.92-1.098v-1.949l-1.92 1.098zM76.52 163.945l1.92-1.098v-1.949l-1.92 1.098z"/><path fill="#F2B024" d="m76.52 166.777 1.92-1.098v-1.949l-1.92 1.098zM79.254 159.57l1.921-1.098v-1.949l-1.921 1.098z"/><path fill="#5AD5E4" d="m79.254 162.406 1.921-1.098v-1.949l-1.921 1.098zM79.254 165.238l1.921-1.098v-1.949l-1.921 1.098z"/><path fill="#EEDE6D" d="m81.996 158.031 1.93-1.098v-1.949l-1.93 1.098z"/><path fill="#5AD5E4" d="m81.996 160.863 1.93-1.098v-1.949l-1.93 1.098z"/><path fill="#F2B024" d="m81.996 163.699 1.93-1.098v-1.949l-1.93 1.098z"/><path fill="#5AD5E4" d="m84.672 156.507 1.921-1.097v-1.949l-1.921 1.098zM84.672 162.179l1.921-1.097v-1.949l-1.921 1.098zM87.406 157.804l1.93-1.097v-1.949l-1.93 1.098z"/><path fill="#F2B024" d="m87.406 160.64 1.93-1.098v-1.948l-1.93 1.097zM90.152 153.425l1.922-1.097v-1.949l-1.922 1.098z"/><path fill="#5AD5E4" d="m90.152 159.097 1.922-1.106v-1.94l-1.922 1.098zM92.895 154.718l1.92-1.098v-1.94l-1.92 1.097z"/><path fill="#13121A" d="m3.992 137.859 25.77 14.714V139.51l-25.77-14.713z"/><path fill="#313247" d="m6.82 139.485 1.956 1.115v-13.071l-1.956-1.115z"/><path fill="#F2B024" d="m6.82 139.484 1.956 1.115v-3.711l-1.956-1.115z"/><path fill="#EEDE6D" d="m6.82 131.937 1.956 1.115v-5.523l-1.956-1.115z"/><path fill="#313247" d="m10.05 141.317 1.956 1.115v-13.071l-1.955-1.115z"/><path fill="#F2B024" d="m10.05 131.956 1.956 1.115v-3.71l-1.955-1.115z"/><path fill="#EEDE6D" d="m10.05 141.32 1.956 1.115v-5.523l-1.955-1.115z"/><path fill="#313247" d="m13.242 143.117 1.956 1.115v-13.063l-1.956-1.114z"/><path fill="#F2B024" d="m13.242 143.116 1.956 1.115v-3.702l-1.956-1.115z"/><path fill="#EEDE6D" d="m13.242 135.578 1.956 1.114v-5.523l-1.956-1.114z"/><path fill="#313247" d="m16.453 144.95 1.956 1.115v-13.071l-1.956-1.115z"/><path fill="#F2B024" d="m16.453 135.589 1.956 1.115v-3.71l-1.956-1.115z"/><path fill="#EEDE6D" d="m16.453 144.953 1.956 1.114v-5.523l-1.956-1.114z"/><path fill="#313247" d="m19.652 146.755 1.956 1.114v-13.071l-1.956-1.114z"/><path fill="#F2B024" d="m19.652 146.753 1.956 1.115v-3.71l-1.956-1.115z"/><path fill="#EEDE6D" d="m19.652 139.206 1.956 1.115v-5.523l-1.956-1.114z"/><path fill="#313247" d="m22.875 148.59 1.955 1.115v-13.063l-1.955-1.115z"/><path fill="#F2B024" d="m22.875 139.229 1.955 1.115v-3.702l-1.955-1.115z"/><path fill="#EEDE6D" d="m22.875 148.589 1.955 1.115v-5.523l-1.955-1.115z"/><path fill="#313247" d="m26.066 150.399 1.956 1.115v-13.071l-1.956-1.115z"/><path fill="#F2B024" d="m26.066 150.398 1.956 1.115v-3.711l-1.956-1.114z"/><path fill="#EEDE6D" d="m26.066 142.851 1.956 1.115v-5.523l-1.956-1.115z"/><path fill="#313247" d="m5.216 125.495-1.224-.698v13.062l25.77 14.714v-1.923L5.215 136.634z"/><path fill="#A4A3CD" d="m0 91.7 67.521 39.392 67.147-38.235-68.014-39.681z"/><path fill="#5B5C71" d="m0 113.927 67.521 39.392v-22.228L0 91.699z"/><path fill="#13121A" d="m67.52 153.412 67.478-38.516v-22.33L67.52 131.09z"/><path fill="#313247" d="m71.54 146.496 35.307-20.16v-13.063l-35.308 20.16z"/><path fill="#5B5C71" d="m105.623 125.111-34.084 19.462v1.923l35.308-20.16v-13.063l-1.224.698z"/><path fill="#5AD5E4" d="m73.773 135.847 1.93-1.097v-1.949l-1.93 1.098z"/><path fill="#EEDE6D" d="m73.773 138.683 1.93-1.098v-1.948l-1.93 1.097z"/><path fill="#5AD5E4" d="m73.773 141.515 1.93-1.098v-1.948l-1.93 1.097zM76.52 134.308l1.92-1.098v-1.948l-1.92 1.097zM76.52 137.14l1.92-1.097v-1.949l-1.92 1.098z"/><path fill="#F2B024" d="m76.52 139.972 1.92-1.097v-1.949l-1.92 1.098zM79.254 132.765l1.921-1.106v-1.94l-1.921 1.097z"/><path fill="#5AD5E4" d="m79.254 135.601 1.921-1.098v-1.948l-1.921 1.097zM79.254 138.433l1.921-1.098v-1.948l-1.921 1.097z"/><path fill="#EEDE6D" d="m81.996 131.226 1.93-1.106v-1.94l-1.93 1.097z"/><path fill="#5AD5E4" d="m81.996 134.05 1.93-1.098v-1.94l-1.93 1.097z"/><path fill="#F2B024" d="m81.996 136.886 1.93-1.097v-1.949l-1.93 1.106z"/><path fill="#5AD5E4" d="m84.672 129.698 1.921-1.098v-1.94l-1.921 1.098zM84.672 135.363l1.921-1.098v-1.949l-1.921 1.107zM87.406 130.988l1.93-1.098v-1.949l-1.93 1.098z"/><path fill="#F2B024" d="m87.406 133.824 1.93-1.098v-1.949l-1.93 1.098zM90.152 126.617l1.922-1.098v-1.949l-1.922 1.098z"/><path fill="#5AD5E4" d="m90.152 132.281 1.922-1.098v-1.949l-1.922 1.098zM92.895 127.91l1.92-1.098v-1.949l-1.92 1.098z"/><path fill="#13121A" d="m3.992 112.445 25.77 14.714v-13.063L3.991 99.383z"/><path fill="#313247" d="m6.82 114.059 1.956 1.114v-13.062l-1.956-1.115z"/><path fill="#F2B024" d="m6.82 114.057 1.956 1.115v-3.702l-1.956-1.115z"/><path fill="#EEDE6D" d="m6.82 106.519 1.956 1.115v-5.523l-1.956-1.115z"/><path fill="#313247" d="m10.05 115.903 1.956 1.115v-13.071l-1.955-1.115z"/><path fill="#F2B024" d="m10.05 106.542 1.956 1.115v-3.71l-1.955-1.115z"/><path fill="#EEDE6D" d="m10.05 115.906 1.956 1.114v-5.522l-1.955-1.115z"/><path fill="#313247" d="m13.242 117.703 1.956 1.115v-13.063l-1.956-1.114z"/><path fill="#F2B024" d="m13.242 117.702 1.956 1.115v-3.702L13.242 114z"/><path fill="#EEDE6D" d="m13.242 110.163 1.956 1.115v-5.523l-1.956-1.114z"/><path fill="#313247" d="m16.453 119.531 1.956 1.115v-13.062l-1.956-1.115z"/><path fill="#F2B024" d="m16.453 110.171 1.956 1.114v-3.701l-1.956-1.115z"/><path fill="#EEDE6D" d="m16.453 119.531 1.956 1.114v-5.522l-1.956-1.115z"/><path fill="#313247" d="m19.652 121.345 1.956 1.114v-13.071l-1.956-1.115z"/><path fill="#F2B024" d="m19.652 121.343 1.956 1.115v-3.71l-1.956-1.115z"/><path fill="#EEDE6D" d="m19.652 113.796 1.956 1.115v-5.523l-1.956-1.115z"/><path fill="#313247" d="m22.875 123.176 1.955 1.115v-13.063l-1.955-1.115z"/><path fill="#F2B024" d="m22.875 113.815 1.955 1.115v-3.702l-1.955-1.115z"/><path fill="#EEDE6D" d="m22.875 123.175 1.955 1.115v-5.523l-1.955-1.115z"/><path fill="#313247" d="m26.066 124.984 1.956 1.115v-13.062l-1.956-1.115z"/><path fill="#F2B024" d="m26.066 124.983 1.956 1.115v-3.702l-1.956-1.115z"/><path fill="#EEDE6D" d="m26.066 117.445 1.956 1.115v-5.523l-1.956-1.115z"/><path fill="#313247" d="m5.216 100.081-1.224-.698v13.062l25.77 14.714v-1.923L5.215 111.22z"/><path fill="#A4A3CD" d="m0 65.115 67.521 39.391 67.147-38.243-68.014-39.681z"/><path fill="#5B5C71" d="m0 87.345 67.521 39.392v-22.228L0 65.117z"/><path fill="#13121A" d="m67.52 126.83 67.478-38.524V65.984L67.52 104.508z"/><path fill="#313247" d="m71.54 119.902 35.307-20.151V86.68l-35.308 20.159z"/><path fill="#5B5C71" d="M105.623 98.525 71.539 117.98v1.923l35.308-20.151V86.68l-1.224.706z"/><path fill="#5AD5E4" d="m73.773 109.261 1.93-1.106v-1.94l-1.93 1.098z"/><path fill="#EEDE6D" d="m73.773 112.097 1.93-1.106v-1.94l-1.93 1.098z"/><path fill="#5AD5E4" d="m73.773 114.93 1.93-1.106v-1.949l-1.93 1.106zM76.52 107.714l1.92-1.098v-1.94l-1.92 1.098zM76.52 110.55l1.92-1.098v-1.94l-1.92 1.097z"/><path fill="#F2B024" d="m76.52 113.379 1.92-1.098v-1.949l-1.92 1.106zM79.254 106.172l1.921-1.098v-1.949l-1.921 1.098z"/><path fill="#5AD5E4" d="m79.254 109.007 1.921-1.097v-1.949l-1.921 1.098zM79.254 111.839l1.921-1.097v-1.949l-1.921 1.098z"/><path fill="#EEDE6D" d="m81.996 104.632 1.93-1.097v-1.949l-1.93 1.098z"/><path fill="#5AD5E4" d="m81.996 107.464 1.93-1.097v-1.949l-1.93 1.098z"/><path fill="#F2B024" d="m81.996 110.3 1.93-1.097v-1.949l-1.93 1.098z"/><path fill="#5AD5E4" d="m84.672 103.113 1.921-1.098v-1.949l-1.921 1.098zM84.672 108.777l1.921-1.098v-1.949l-1.921 1.098zM87.406 104.406l1.93-1.098v-1.949l-1.93 1.098z"/><path fill="#F2B024" d="m87.406 107.238 1.93-1.098v-1.949l-1.93 1.098zM90.152 100.031l1.922-1.098v-1.949l-1.922 1.098z"/><path fill="#5AD5E4" d="m90.152 105.699 1.922-1.098v-1.949l-1.922 1.098zM92.895 101.324l1.92-1.098v-1.949l-1.92 1.098z"/><path fill="#13121A" d="m3.992 85.598 25.77 14.713V87.249L3.991 72.535z"/><path fill="#313247" d="m6.82 87.223 1.956 1.115v-13.07L6.82 74.151z"/><path fill="#F2B024" d="m6.82 87.222 1.956 1.115v-3.71L6.82 83.512z"/><path fill="#EEDE6D" d="m6.82 79.675 1.956 1.115v-5.523L6.82 74.152z"/><path fill="#313247" d="m10.05 89.05 1.956 1.116V77.103l-1.955-1.115z"/><path fill="#F2B024" d="m10.05 79.69 1.956 1.115v-3.702l-1.955-1.115z"/><path fill="#EEDE6D" d="m10.05 89.05 1.956 1.115v-5.523l-1.955-1.115z"/><path fill="#313247" d="m13.242 90.852 1.956 1.114V78.904l-1.956-1.115z"/><path fill="#F2B024" d="m13.242 90.85 1.956 1.115v-3.702l-1.956-1.115z"/><path fill="#EEDE6D" d="m13.242 83.312 1.956 1.115v-5.523l-1.956-1.115z"/><path fill="#313247" d="m16.453 92.688 1.956 1.115V80.732l-1.956-1.115z"/><path fill="#F2B024" d="m16.453 83.328 1.956 1.114v-3.71l-1.956-1.115z"/><path fill="#EEDE6D" d="m16.453 92.69 1.956 1.116v-5.523l-1.956-1.115z"/><path fill="#313247" d="m19.652 94.5 1.956 1.115V82.552l-1.956-1.115z"/><path fill="#F2B024" d="m19.652 94.499 1.956 1.114v-3.701l-1.956-1.115z"/><path fill="#EEDE6D" d="m19.652 86.96 1.956 1.115v-5.523l-1.956-1.115z"/><path fill="#313247" d="m22.875 96.328 1.955 1.115V84.38l-1.955-1.114z"/><path fill="#F2B024" d="m22.875 86.967 1.955 1.115V84.38l-1.955-1.114z"/><path fill="#EEDE6D" d="m22.875 96.328 1.955 1.114V91.92l-1.955-1.115z"/><path fill="#313247" d="m26.066 98.141 1.956 1.115v-13.07l-1.956-1.116z"/><path fill="#F2B024" d="m26.066 98.14 1.956 1.115v-3.71l-1.956-1.115z"/><path fill="#EEDE6D" d="m26.066 90.593 1.956 1.115v-5.523l-1.956-1.115z"/><path fill="#313247" d="m5.216 73.233-1.224-.698v13.063l25.77 14.713v-1.923L5.215 84.372z"/><path fill="#A4A3CD" d="m0 38.532 67.521 39.392 67.147-38.243L66.654 0z"/><path fill="#5B5C71" d="m0 60.754 67.521 39.392V77.927L0 38.535z"/><path fill="#13121A" d="m67.52 100.236 67.478-38.516V39.39L67.52 77.924z"/><path fill="#313247" d="m71.54 93.32 35.307-20.151V60.098l-35.308 20.16z"/><path fill="#5B5C71" d="M105.623 71.943 71.539 91.397v1.923l35.308-20.151V60.098l-1.224.697z"/><path fill="#13121A" d="m3.992 59.133 25.77 14.713V60.784L3.991 46.07z"/><path fill="#313247" d="m6.82 60.746 1.956 1.115V48.798L6.82 47.684z"/><path fill="#F2B024" d="m6.82 60.745 1.956 1.114v-3.701L6.82 57.043z"/><path fill="#EEDE6D" d="m6.82 53.207 1.956 1.114v-5.523L6.82 47.684z"/><path fill="#313247" d="m10.05 62.59 1.956 1.115v-13.07l-1.955-1.115z"/><path fill="#F2B024" d="m10.05 53.23 1.956 1.115v-3.71l-1.955-1.115z"/><path fill="#EEDE6D" d="m10.05 62.593 1.956 1.115v-5.523l-1.955-1.115z"/><path fill="#313247" d="m13.242 64.391 1.956 1.115V52.444l-1.956-1.124z"/><path fill="#F2B024" d="m13.242 64.39 1.956 1.115v-3.702l-1.956-1.123z"/><path fill="#EEDE6D" d="m13.242 56.843 1.956 1.124v-5.523l-1.956-1.124z"/><path fill="#313247" d="m16.453 66.223 1.956 1.115V54.275l-1.956-1.115z"/><path fill="#F2B024" d="m16.453 56.862 1.956 1.115v-3.702l-1.956-1.115z"/><path fill="#EEDE6D" d="m16.453 66.222 1.956 1.115v-5.523l-1.956-1.115z"/><path fill="#313247" d="m19.652 68.036 1.956 1.115V56.08l-1.956-1.115z"/><path fill="#F2B024" d="m19.652 68.035 1.956 1.114v-3.71l-1.956-1.115z"/><path fill="#EEDE6D" d="m19.652 60.488 1.956 1.114V56.08l-1.956-1.115z"/><path fill="#313247" d="m22.875 69.868 1.955 1.115V57.92l-1.955-1.123z"/><path fill="#F2B024" d="m22.875 60.507 1.955 1.115V57.92l-1.955-1.123z"/><path fill="#EEDE6D" d="m22.875 69.87 1.955 1.115v-5.522l-1.955-1.115z"/><path fill="#313247" d="m26.066 71.672 1.956 1.115V59.724l-1.956-1.115z"/><path fill="#F2B024" d="m26.066 71.67 1.956 1.115v-3.701l-1.956-1.115z"/><path fill="#EEDE6D" d="m26.066 64.132 1.956 1.115v-5.523l-1.956-1.115z"/><path fill="#313247" d="m5.216 46.768-1.224-.698v13.063l25.77 14.713v-1.923L5.215 57.907z"/><path fill="#5AD5E4" d="m73.773 82.672 1.93-1.098v-1.949l-1.93 1.098z"/><path fill="#EEDE6D" d="m73.773 85.508 1.93-1.098v-1.95l-1.93 1.099z"/><path fill="#5AD5E4" d="m73.773 88.34 1.93-1.098v-1.949l-1.93 1.098zM76.52 81.133l1.92-1.098v-1.95l-1.92 1.099zM76.52 83.965l1.92-1.098v-1.949l-1.92 1.098z"/><path fill="#F2B024" d="m76.52 86.797 1.92-1.098V83.75l-1.92 1.098zM79.254 79.59l1.921-1.098v-1.949l-1.921 1.098z"/><path fill="#5AD5E4" d="m79.254 82.425 1.921-1.097v-1.95l-1.921 1.099zM79.254 85.258l1.921-1.098v-1.95l-1.921 1.099z"/><path fill="#EEDE6D" d="m81.996 78.05 1.93-1.097v-1.95l-1.93 1.099z"/><path fill="#5AD5E4" d="m81.996 80.883 1.93-1.098v-1.95l-1.93 1.099z"/><path fill="#F2B024" d="m81.996 83.718 1.93-1.097v-1.95l-1.93 1.099z"/><path fill="#5AD5E4" d="m84.672 76.53 1.921-1.097v-1.949l-1.921 1.098zM84.672 82.195l1.921-1.098v-1.949l-1.921 1.098zM87.406 77.824l1.93-1.106v-1.94l-1.93 1.097z"/><path fill="#F2B024" d="m87.406 80.656 1.93-1.106v-1.94l-1.93 1.097zM90.152 73.441l1.922-1.098v-1.949l-1.922 1.107z"/><path fill="#5AD5E4" d="m90.152 79.117 1.922-1.107v-1.94l-1.922 1.098zM92.895 74.734l1.92-1.098v-1.948l-1.92 1.106z"/><path fill="#5B5C71" d="m15.82 33.64 51.691 30.158 51.411-29.273-52.065-30.38z"/><path fill="#312F3A" d="m15.82 38.253 51.691 30.159v-4.613l-51.69-30.158z"/><path fill="#13121A" d="m67.512 68.48 51.665-29.486v-4.69L67.512 63.8z"/><path fill="#5AD5E4" d="M81.428 16.617H69.55v8.935c0 1.362 1.181 3.575 3.477 4.851 4.676 2.613 12.158 2.68 16.8 0 2.32-1.344 3.477-3.097 3.477-4.85v-8.936zq.012 0 0 0"/><path fill="#fff" d="M87.855 10.448c-1.88-.706-4.056-1.08-6.309-1.08-3.766 0-7.226 1.012-9.488 2.773-1.853 1.447-2.729 3.251-2.448 5.09.332 2.22 2.313 4.16 5.424 5.335 1.904.715 4.09 1.098 6.334 1.098 4.174 0 8.094-1.328 10.236-3.464 1.394-1.387 1.964-3.046 1.615-4.672-.467-2.119-2.414-3.974-5.364-5.08"/><path fill="#13121A" d="M87.61 11.085c-4.864-1.838-11.555-1.191-15.134 1.591-3.809 2.962-2.661 7.183 2.788 9.242 5.459 2.06 12.634.987 15.84-2.204 3.009-3.004 1.377-6.79-3.495-8.629"/><path fill="#312F3A" d="M87.608 11.085c-4.863-1.838-11.554-1.191-15.133 1.591-2.984 2.324-2.924 5.413-.136 7.634-.604-1.6-.043-3.328 1.785-4.749 3.231-2.51 9.267-3.089 13.654-1.438 2.5.945 4.047 2.45 4.43 4.076 1.292-2.663-.519-5.574-4.6-7.114"/><mask id="a" width="23" height="13" x="70" y="10" maskUnits="userSpaceOnUse" style="mask-type:luminance"><path fill="#fff" d="M91.111 19.718c-3.205 3.191-10.38 4.263-15.839 2.204-5.45-2.06-6.597-6.28-2.788-9.242 3.579-2.782 10.261-3.43 15.133-1.591 4.863 1.838 6.495 5.625 3.494 8.629"/></mask><g mask="url(#a)"><path fill="#A4A3CD" d="M91.141 17.091c-1.887-1.608-6.912-.706-6.912-.706l-.416.69s4.862.016 7.473 2.876c0 .008 1.504-1.456-.145-2.86"/><path fill="#A4A3CD" d="M89.835 13.137c-1.76-.391-6.589 2.553-6.589 2.553l.264.885s3.953-2.016 8.382-1.242c0 .008.102-1.719-2.057-2.196M86.24 11.247c-1.964.306-3.63 3.404-3.63 3.404l.475.604s2.534-2.51 5.807-3.072c-.008 0-1.046-1.191-2.652-.936M75.802 11.547s-3.154.791-2.236 3.514c.808 2.383 5.467 2.494 6.283 1.838l-.179-1.08c0 .008-3.477-1.464-3.868-4.272M78.896 11.426c-1.395 1.957.73 3.761 1.887 4.144l.952-.544s-1.139-2.732 1.377-4.102c-.008-.009-2.984-1.234-4.216.502"/><path fill="#A4A3CD" d="M71.003 16.305s-1.454 1.753 1.225 3.889c2.508 2 6.92-.766 8.824-2.46l-1.25-.715c0-.008-3.587 1.073-8.799-.714"/><path fill="#8E8DBD" d="M79.128 18.606c-.765.281-1.53.664-2.372.775-1.522.187-3.962-.06-5.05-1.345-.45-.536-.706-1.149-.62-1.693a.4.4 0 0 1-.094-.034s-1.454 1.753 1.224 3.889c2.508 2 6.92-.766 8.825-2.46l-.026-.017c-.56.366-1.224.639-1.887.885"/><path fill="#A4A3CD" d="M72.39 20.896s.749 2.068 4.09 2.868c3.137.75 4.94-3.54 5.492-5.974l-1.403-.11c-.008-.009-3.12 2.068-8.178 3.216"/><path fill="#8E8DBD" d="M73.258 21.824c-.4-.212-.663-.578-.85-.927h-.017s.748 2.068 4.089 2.868c3.137.749 4.94-3.54 5.492-5.974l-.875-.068c-.477 1.472-3.435 6.408-7.84 4.101"/><path fill="#A4A3CD" d="m82.71 17.527-1.234.443s.383 1.396-3.273 4.493c0 0 1.48 2.357 4.047 2.332 2.567-.034 2.193-6.306.46-7.268"/><path fill="#8E8DBD" d="m82.71 17.527-.018.009c1.37 1.26 1.471 7.225-1.938 6.986.45.17.952.273 1.505.273 2.559-.034 2.185-6.306.45-7.268"/><path fill="#A4A3CD" d="m83.705 17.094-1.182.51s1.88 1.362 2.27 4.443c0 0 1.641 1.02 3.656.017 2.007-1.005-1.598-3.787-4.744-4.97"/></g><path fill="#F2B024" d="M83.568 16.97c-1.028.706-2.899.817-4.123.204-.63-.307-.935-.74-.918-1.175l-.034.698c-.017.46.306.92.952 1.243 1.267.63 3.214.476 4.268-.298.493-.358.697-.783.655-1.191l-.153-.588c.034.383-.17.783-.647 1.107"/><path fill="#EEDE6D" d="M83.289 14.824c-1.097-.536-2.814-.519-3.911.077-1.165.638-1.165 1.668.06 2.28 1.224.605 3.103.494 4.123-.204.977-.663.824-1.608-.272-2.153"/><path fill="#54608A" d="M82.753 15.153c-.791-.392-2.032-.375-2.814.05-.842.46-.842 1.209.042 1.643s2.236.357 2.976-.145c.697-.485.586-1.166-.204-1.549"/><path fill="#676F93" d="M82.749 15.16c-.79-.391-2.032-.374-2.814.051-.706.383-.816.979-.306 1.422-.085-.324.102-.664.56-.911.732-.4 1.88-.409 2.61-.051.298.153.494.34.57.553.145-.392-.067-.8-.62-1.064"/><path fill="#5AD5E4" d="M53.568 16.613H41.691v8.936c0 1.753 1.157 3.514 3.478 4.85 4.642 2.68 12.115 2.613 16.8 0 2.295-1.276 3.476-3.489 3.476-4.85v-8.936z"/><path fill="#fff" d="M62.943 12.13c-2.261-1.762-5.722-2.775-9.488-2.775-2.253 0-4.438.375-6.308 1.081-2.95 1.115-4.906 2.97-5.356 5.09-.349 1.625.23 3.284 1.615 4.671 2.142 2.136 6.07 3.464 10.236 3.464 2.236 0 4.43-.384 6.334-1.098 3.112-1.175 5.084-3.123 5.424-5.336.272-1.838-.595-3.65-2.457-5.097"/><path fill="#13121A" d="M62.524 12.673c-3.58-2.783-10.262-3.43-15.134-1.592-4.863 1.838-6.504 5.625-3.494 8.62 3.205 3.192 10.38 4.264 15.839 2.205 5.45-2.051 6.597-6.264 2.788-9.233"/><path fill="#312F3A" d="M62.52 12.673c-3.58-2.783-10.263-3.43-15.134-1.592-4.08 1.54-5.892 4.45-4.6 7.114.383-1.625 1.93-3.14 4.43-4.076 4.387-1.66 10.423-1.072 13.654 1.438 1.82 1.421 2.389 3.157 1.777 4.749 2.797-2.221 2.856-5.31-.128-7.634"/><mask id="b" width="23" height="13" x="42" y="10" maskUnits="userSpaceOnUse" style="mask-type:luminance"><path fill="#fff" d="M43.888 19.714c3.205 3.191 10.38 4.263 15.84 2.204 5.449-2.06 6.596-6.28 2.788-9.242-3.58-2.782-10.262-3.43-15.134-1.591-4.863 1.838-6.503 5.625-3.494 8.629"/></mask><g mask="url(#b)"><path fill="#A4A3CD" d="M43.855 17.087c-1.65 1.404-.145 2.86-.145 2.86 2.61-2.86 7.473-2.877 7.473-2.877l-.416-.689c-.009 0-5.025-.902-6.913.706"/><path fill="#A4A3CD" d="M45.168 13.13c-2.16.476-2.058 2.195-2.058 2.195 4.43-.774 8.383 1.242 8.383 1.242l.263-.885s-4.829-2.944-6.588-2.552M48.75 11.239c-1.615-.255-2.652.936-2.652.936 3.273.562 5.815 3.072 5.815 3.072l.476-.604s-1.675-3.098-3.639-3.404M59.188 11.54c-.392 2.799-3.869 4.28-3.869 4.28l-.178 1.08c.816.656 5.483.545 6.282-1.838.927-2.723-2.236-3.523-2.236-3.523M51.875 10.91c2.517 1.379 1.377 4.102 1.377 4.102l.953.544c1.156-.383 3.281-2.187 1.887-4.144-1.233-1.728-4.217-.502-4.217-.502"/><path fill="#A4A3CD" d="m55.195 17.004-1.25.715c1.905 1.693 6.309 4.459 8.825 2.459 2.67-2.127 1.224-3.889 1.224-3.889-5.211 1.796-8.799.715-8.799.715"/><path fill="#8E8DBD" d="M63.902 16.332c.085.553-.17 1.165-.621 1.693-1.088 1.285-3.528 1.54-5.05 1.345-.85-.103-1.615-.494-2.372-.775-.663-.247-1.318-.519-1.896-.893l-.026.017c1.905 1.693 6.309 4.459 8.825 2.459 2.67-2.127 1.225-3.889 1.225-3.889-.026.017-.051.026-.085.043"/><path fill="#A4A3CD" d="M53.031 17.783c.553 2.434 2.347 6.732 5.492 5.974 3.342-.8 4.09-2.868 4.09-2.868-5.059-1.148-8.17-3.225-8.17-3.225z"/><path fill="#8E8DBD" d="M61.737 21.82c-4.395 2.307-7.362-2.63-7.83-4.101l-.876.068c.553 2.434 2.347 6.731 5.492 5.974 3.342-.8 4.09-2.868 4.09-2.868h-.017c-.196.34-.46.715-.859.927"/><path fill="#A4A3CD" d="m53.525 17.954-1.233-.442c-1.742.961-2.116 7.233.46 7.259 2.567.025 4.046-2.332 4.046-2.332-3.655-3.08-3.273-4.485-3.273-4.485"/><path fill="#8E8DBD" d="m52.31 17.52-.018-.008c-1.742.961-2.116 7.233.46 7.259a4 4 0 0 0 1.504-.273c-3.417.247-3.307-5.718-1.947-6.978"/><path fill="#A4A3CD" d="M46.551 22.056c2.015 1.004 3.656-.017 3.656-.017.39-3.08 2.27-4.443 2.27-4.443l-1.182-.51c-3.146 1.183-6.759 3.966-4.744 4.97"/></g><path fill="#F2B024" d="M55.566 17.17c-1.224.603-3.103.493-4.123-.205-.476-.323-.68-.723-.638-1.098l-.153.587c-.051.4.161.834.655 1.192 1.054.774 3 .927 4.267.298.647-.324.97-.775.953-1.243l-.034-.698c.008.426-.298.86-.927 1.166"/><path fill="#EEDE6D" d="M55.624 14.897c-1.088-.596-2.814-.613-3.911-.077-1.097.545-1.241 1.49-.28 2.145 1.028.706 2.899.817 4.123.204 1.233-.604 1.233-1.642.068-2.272"/><path fill="#54608A" d="M55.067 15.204c-.782-.426-2.032-.443-2.815-.052-.79.392-.892 1.073-.204 1.55.74.501 2.092.586 2.976.144.884-.443.876-1.191.043-1.642"/><path fill="#676F93" d="M55.076 15.207c-.783-.425-2.032-.442-2.815-.05-.544.272-.765.68-.62 1.063.076-.213.272-.4.57-.553.73-.357 1.878-.349 2.61.051.45.247.646.587.56.91.51-.442.4-1.038-.305-1.42"/><path fill="#5AD5E4" d="M81.428 32.602H69.55v8.935c0 1.753 1.156 3.514 3.477 4.85 4.642 2.681 12.115 2.613 16.8 0 2.295-1.276 3.477-3.489 3.477-4.85v-8.935zq.012 0 0 0"/><path fill="#fff" d="M90.81 28.122c-2.27-1.762-5.722-2.774-9.488-2.774-2.253 0-4.43.374-6.308 1.08-2.95 1.115-4.906 2.97-5.356 5.09-.349 1.625.23 3.284 1.615 4.671 2.142 2.136 6.062 3.464 10.236 3.464 2.236 0 4.43-.383 6.334-1.098 3.112-1.175 5.084-3.123 5.424-5.336.264-1.846-.603-3.65-2.457-5.097"/><path fill="#13121A" d="M90.383 28.665c-3.58-2.783-10.262-3.43-15.133-1.592-4.863 1.838-6.504 5.625-3.495 8.62 3.206 3.192 10.381 4.264 15.84 2.205 5.449-2.051 6.597-6.272 2.788-9.233"/><path fill="#312F3A" d="M90.386 28.66c-3.579-2.782-10.261-3.429-15.133-1.59-4.08 1.54-5.892 4.45-4.6 7.114.383-1.626 1.93-3.14 4.43-4.077 4.395-1.659 10.423-1.072 13.654 1.439 1.82 1.42 2.389 3.157 1.785 4.748 2.789-2.221 2.848-5.31-.136-7.633"/><mask id="c" width="23" height="13" x="70" y="26" maskUnits="userSpaceOnUse" style="mask-type:luminance"><path fill="#fff" d="M71.755 35.695c3.206 3.19 10.381 4.263 15.84 2.203 5.449-2.059 6.597-6.28 2.788-9.241-3.58-2.783-10.262-3.43-15.133-1.591-4.863 1.838-6.504 5.625-3.495 8.628"/></mask><g mask="url(#c)"><path fill="#A4A3CD" d="M71.714 33.08c-1.65 1.404-.145 2.859-.145 2.859 2.61-2.86 7.473-2.876 7.473-2.876l-.416-.69s-5.025-.902-6.912.707"/><path fill="#A4A3CD" d="M73.035 29.122c-2.16.476-2.058 2.204-2.058 2.204 4.43-.775 8.383 1.242 8.383 1.242l.264-.885c0-.008-4.83-2.953-6.59-2.561M76.617 27.227c-1.615-.255-2.652.936-2.652.936 3.273.562 5.807 3.072 5.807 3.072l.476-.604s-1.675-3.097-3.63-3.404M87.047 27.527c-.391 2.8-3.868 4.28-3.868 4.28L83 32.89c.816.655 5.484.544 6.283-1.839.927-2.723-2.236-3.523-2.236-3.523M79.75 26.89c2.508 1.38 1.369 4.102 1.369 4.102l.952.545c1.156-.383 3.282-2.187 1.887-4.144-1.232-1.72-4.208-.502-4.208-.502"/><path fill="#A4A3CD" d="m83.054 32.992-1.25.723c1.905 1.693 6.309 4.459 8.826 2.46 2.67-2.128 1.224-3.89 1.224-3.89-5.203 1.787-8.8.707-8.8.707"/><path fill="#8E8DBD" d="M91.761 32.311c.085.553-.17 1.166-.62 1.694-1.089 1.285-3.529 1.54-5.05 1.344-.85-.102-1.616-.485-2.373-.765-.663-.247-1.318-.52-1.896-.894l-.025.017c1.904 1.693 6.308 4.46 8.825 2.46 2.67-2.128 1.224-3.89 1.224-3.89a.3.3 0 0 1-.085.034"/><path fill="#A4A3CD" d="M80.89 33.767c.553 2.434 2.347 6.731 5.493 5.982 3.341-.8 4.09-2.867 4.09-2.867-5.06-1.15-8.171-3.226-8.171-3.226z"/><path fill="#8E8DBD" d="M89.597 37.801c-4.396 2.306-7.363-2.63-7.83-4.102l-.876.068c.552 2.434 2.346 6.732 5.492 5.983 3.341-.8 4.09-2.868 4.09-2.868h-.018c-.195.34-.459.715-.858.919"/><path fill="#A4A3CD" d="m81.393 33.946-1.233-.442c-1.743.962-2.117 7.233.459 7.259 2.567.025 4.047-2.332 4.047-2.332-3.665-3.08-3.273-4.485-3.273-4.485"/><path fill="#8E8DBD" d="m80.177 33.512-.017-.008c-1.743.962-2.117 7.233.459 7.259a4 4 0 0 0 1.505-.273c-3.427.247-3.316-5.718-1.947-6.978"/><path fill="#A4A3CD" d="M74.418 38.043c2.015 1.004 3.656-.017 3.656-.017.391-3.08 2.27-4.442 2.27-4.442l-1.182-.502c-3.145 1.174-6.759 3.957-4.744 4.961"/></g><path fill="#F2B024" d="M83.43 33.161c-1.225.605-3.104.494-4.124-.204-.476-.323-.68-.723-.638-1.098l-.153.588c-.05.4.162.834.655 1.19 1.054.775 3.001.928 4.268.299.646-.324.969-.775.952-1.243l-.034-.697c.008.425-.298.859-.927 1.165"/><path fill="#EEDE6D" d="M83.487 30.89c-1.088-.596-2.814-.614-3.91-.077-1.097.536-1.242 1.48-.281 2.144 1.028.706 2.899.817 4.123.204 1.233-.604 1.233-1.642.068-2.272"/><path fill="#54608A" d="M82.938 31.196c-.79-.426-2.032-.443-2.814-.051-.791.391-.893 1.072-.204 1.548.74.503 2.091.588 2.975.145s.884-1.191.043-1.642"/><path fill="#676F93" d="M82.939 31.196c-.79-.426-2.032-.443-2.814-.051-.544.272-.765.68-.62 1.063.076-.204.271-.4.569-.553.73-.357 1.879-.349 2.61.051.45.247.646.588.56.91.52-.442.4-1.037-.305-1.42"/><path fill="#5AD5E4" d="M53.568 32.602H41.691v8.935c0 1.361 1.182 3.574 3.478 4.85 4.676 2.613 12.157 2.681 16.8 0 2.32-1.344 3.476-3.097 3.476-4.85v-8.935z"/><path fill="#fff" d="M59.988 26.428c-1.88-.706-4.056-1.08-6.309-1.08-3.766 0-7.226 1.012-9.488 2.774-1.853 1.447-2.729 3.25-2.448 5.089.331 2.22 2.312 4.161 5.424 5.335 1.904.715 4.098 1.098 6.334 1.098 4.174 0 8.093-1.327 10.236-3.463 1.386-1.387 1.964-3.047 1.615-4.672-.459-2.11-2.414-3.966-5.364-5.08"/><path fill="#13121A" d="M59.75 27.073c-4.863-1.838-11.554-1.191-15.133 1.592-3.81 2.961-2.661 7.182 2.788 9.241 5.45 2.06 12.634.987 15.839-2.204 3.01-3.004 1.369-6.79-3.494-8.629"/><path fill="#312F3A" d="M59.749 27.07c-4.863-1.839-11.554-1.192-15.133 1.59-2.984 2.324-2.925 5.413-.136 7.634-.604-1.6-.043-3.327 1.777-4.748 3.23-2.51 9.267-3.09 13.653-1.439 2.5.945 4.047 2.451 4.43 4.077 1.292-2.664-.519-5.574-4.591-7.115"/><mask id="d" width="23" height="13" x="42" y="26" maskUnits="userSpaceOnUse" style="mask-type:luminance"><path fill="#fff" d="M63.244 35.695c-3.205 3.19-10.38 4.263-15.839 2.203-5.45-2.059-6.597-6.28-2.788-9.241 3.579-2.783 10.261-3.43 15.133-1.591 4.863 1.838 6.504 5.625 3.494 8.628"/></mask><g mask="url(#d)"><path fill="#A4A3CD" d="M63.29 33.076c-1.888-1.609-6.913-.707-6.913-.707l-.416.69s4.863.017 7.473 2.876c0 0 1.496-1.455-.145-2.86"/><path fill="#A4A3CD" d="M61.972 29.118c-1.76-.392-6.59 2.553-6.59 2.553l.264.885s3.954-2.017 8.383-1.243c0 0 .11-1.719-2.057-2.195M58.38 27.227c-1.955.307-3.63 3.404-3.63 3.404l.476.604s2.534-2.51 5.815-3.072c-.008 0-1.045-1.191-2.66-.936M47.943 27.527s-3.154.8-2.236 3.515c.807 2.383 5.475 2.493 6.282 1.838l-.17-1.08c0 .008-3.477-1.464-3.876-4.273M51.044 27.409c-1.394 1.957.731 3.761 1.888 4.144l.952-.544s-1.14-2.732 1.377-4.102c-.009-.017-2.984-1.234-4.217.502"/><path fill="#A4A3CD" d="M43.148 32.285s-1.445 1.753 1.225 3.89c2.516 1.999 6.92-.767 8.825-2.46l-1.25-.724s-3.596 1.081-8.8-.706"/><path fill="#8E8DBD" d="M51.273 34.591c-.765.281-1.522.664-2.372.766-1.522.187-3.962-.06-5.05-1.344-.45-.536-.706-1.15-.62-1.694a.4.4 0 0 1-.094-.034s-1.446 1.753 1.224 3.89c2.517 1.999 6.92-.767 8.825-2.46l-.026-.017c-.57.366-1.224.646-1.887.893"/><path fill="#A4A3CD" d="M44.527 36.882s.749 2.067 4.09 2.867c3.137.75 4.94-3.54 5.492-5.982l-1.403-.11c-.008 0-3.12 2.076-8.179 3.225"/><path fill="#8E8DBD" d="M45.406 37.802c-.4-.213-.663-.579-.85-.928h-.017s.748 2.068 4.09 2.868c3.137.749 4.939-3.54 5.492-5.982l-.876-.069c-.476 1.49-3.443 6.417-7.839 4.11"/><path fill="#A4A3CD" d="m54.842 33.5-1.233.443s.383 1.395-3.273 4.493c0 0 1.48 2.357 4.047 2.331 2.576-.025 2.202-6.297.459-7.267"/><path fill="#8E8DBD" d="m54.846 33.5-.017.008c1.369 1.26 1.47 7.225-1.938 6.987.45.17.952.272 1.505.272 2.567-.025 2.193-6.297.45-7.267"/><path fill="#A4A3CD" d="m55.846 33.074-1.182.502s1.879 1.362 2.27 4.442c0 0 1.64 1.022 3.656.017 2.006-.995-1.607-3.778-4.744-4.96"/></g><path fill="#F2B024" d="M55.701 32.958c-1.029.706-2.899.817-4.123.204-.63-.315-.935-.74-.918-1.174l-.034.697c-.017.46.306.92.952 1.243 1.267.63 3.213.477 4.268-.298.493-.357.697-.783.654-1.191l-.153-.587c.034.382-.17.774-.646 1.106"/><path fill="#EEDE6D" d="M55.422 30.812c-1.097-.545-2.814-.519-3.911.077-1.165.63-1.165 1.668.06 2.28 1.224.605 3.102.494 4.123-.204.969-.672.824-1.617-.272-2.153"/><path fill="#54608A" d="M54.89 31.133c-.79-.392-2.032-.374-2.814.051-.833.46-.842 1.208.042 1.642.885.434 2.236.358 2.976-.144.689-.477.587-1.158-.204-1.55"/><path fill="#676F93" d="M54.882 31.133c-.791-.392-2.032-.374-2.814.051-.706.383-.816.979-.306 1.413-.086-.324.102-.664.56-.91.732-.4 1.88-.41 2.61-.052.307.145.494.349.57.553.145-.374-.076-.783-.62-1.055"/></svg>