<svg xmlns="http://www.w3.org/2000/svg" width="113" height="180" fill="none"><path fill="#5B5C71" d="m0 141.091 20.01 11.467V34.6L0 23.133z"/><path fill="#313247" d="m20.012 152.554 41.496-23.131V11.465L20.012 34.596z"/><path fill="#13121A" d="m20.012 152.558 1.487-.856V33.744l-1.487.856z"/><path fill="#EEDE6D" d="m20.012 115.793 1.487-.855v-11.151l-1.487.856z"/><path fill="#13121A" d="m22.504 151.152 1.496-.856V32.338l-1.496.856z"/><path fill="#EEDE6D" d="M22.504 75.88 24 75.023V63.873l-1.496.856z"/><path fill="#13121A" d="m24.992 149.747 1.496-.855V30.934l-1.496.855z"/><path fill="#EEDE6D" d="m24.992 140.645 1.496-.856v-11.15l-1.496.855z"/><path fill="#13121A" d="m27.5 148.349 1.496-.856V29.535l-1.496.856z"/><path fill="#EEDE6D" d="m27.5 93.364 1.496-.856v-11.15l-1.496.855zM27.5 67.954l1.496-.848V55.947l-1.496.856z"/><path fill="#13121A" d="m29.996 146.949 1.496-.856V28.135l-1.496.847z"/><path fill="#EEDE6D" d="m29.996 42.94 1.496-.856v-11.15l-1.496.855z"/><path fill="#13121A" d="m32.496 145.546 1.496-.856V26.732l-1.496.856z"/><path fill="#EEDE6D" d="m32.496 119.79 1.496-.848v-11.159l-1.496.856z"/><path fill="#13121A" d="m34.992 144.146 1.496-.856V25.332l-1.496.856z"/><path fill="#EEDE6D" d="m34.992 56.368 1.496-.856v-11.15l-1.496.855z"/><path fill="#13121A" d="m37.496 142.74 1.496-.856V23.926l-1.496.856z"/><path fill="#EEDE6D" d="m37.496 142.586 1.496-.855V130.58l-1.496.847z"/><path fill="#13121A" d="m39.992 141.337 1.496-.856V22.523l-1.496.856z"/><path fill="#EEDE6D" d="m39.992 81.886 1.496-.856V69.871l-1.496.856zM39.992 99.739l1.496-.856v-11.15l-1.496.855z"/><path fill="#13121A" d="m42.488 139.945 1.496-.856V21.131l-1.496.847z"/><path fill="#EEDE6D" d="m42.488 134.532 1.496-.856v-11.151l-1.496.856z"/><path fill="#13121A" d="m44.988 138.538 1.496-.855V19.725l-1.496.855z"/><path fill="#EEDE6D" d="m44.988 111.336 1.496-.855v-11.15l-1.496.855z"/><path fill="#13121A" d="m47.484 137.136 1.496-.856V18.322l-1.496.856z"/><path fill="#EEDE6D" d="m47.484 63.124 1.496-.856v-11.15l-1.496.855z"/><path fill="#13121A" d="m49.984 135.732 1.496-.856V16.918l-1.496.856z"/><path fill="#EEDE6D" d="m49.984 72.946 1.496-.856V60.94l-1.496.855z"/><path fill="#13121A" d="m52.484 134.326 1.496-.856V15.512l-1.496.855z"/><path fill="#EEDE6D" d="m52.484 32.733 1.496-.856v-11.15l-1.496.855z"/><path fill="#13121A" d="m54.98 132.923 1.496-.856V14.109l-1.495.856z"/><path fill="#EEDE6D" d="m54.98 119.096 1.496-.856v-11.15l-1.495.856zM54.98 131.874l1.496-.856v-11.151l-1.495.856zM54.98 85.918l1.496-.855v-11.15l-1.495.855z"/><path fill="#13121A" d="m57.48 131.531 1.496-.856V12.717l-1.495.856z"/><path fill="#EEDE6D" d="m57.48 54.913 1.496-.855v-11.16l-1.495.856z"/><path fill="#13121A" d="m59.988 130.124 1.496-.855V11.311l-1.496.855z"/><path fill="#EEDE6D" d="m59.988 93.364 1.496-.856v-11.15l-1.496.855z"/><path fill="#A4A3CD" d="m0 23.131 20.01 11.467 41.495-23.13L41.506 0zM25.602 155.155l8.816 4.724V67.988l-8.816-4.724z"/><path fill="#312F3A" d="m34.418 159.876 41.496-23.131V44.853L34.418 67.986z"/><path fill="#DCDCE6" d="m25.602 63.262 8.816 4.724 41.497-23.131-8.817-4.724z"/><path fill="#A4A3CD" d="m37.313 161.386 8.816 4.724V74.218l-8.816-4.724z"/><path fill="#312F3A" d="m46.129 166.107 41.496-23.131V51.084L46.13 74.215z"/><path fill="#DCDCE6" d="m37.313 69.493 8.816 4.723 41.497-23.13-8.817-4.725z"/><path fill="#5B5C71" d="m50.629 168.534 20 11.467V62.043l-20-11.467z"/><path fill="#313247" d="m70.629 179.997 41.505-23.131V38.908L70.629 62.04z"/><path fill="#13121A" d="m70.629 180.001 1.496-.855V61.188l-1.496.855z"/><path fill="#EEDE6D" d="m70.629 143.237 1.496-.847v-11.16l-1.496.856z"/><path fill="#13121A" d="m73.129 178.595 1.496-.856V59.781l-1.496.856z"/><path fill="#EEDE6D" d="m73.129 103.323 1.496-.856v-11.15l-1.496.855z"/><path fill="#13121A" d="m75.625 177.191 1.496-.847V58.377l-1.496.856z"/><path fill="#EEDE6D" d="m75.625 168.088 1.496-.847v-11.159l-1.496.856z"/><path fill="#13121A" d="m78.129 175.79 1.496-.848V56.984l-1.496.848z"/><path fill="#EEDE6D" d="m78.129 120.816 1.496-.856v-11.159l-1.496.856zM78.129 95.406l1.496-.856V83.39l-1.496.856z"/><path fill="#13121A" d="m80.625 174.392 1.496-.856V55.578l-1.496.856z"/><path fill="#EEDE6D" d="m80.625 70.392 1.496-.856V58.377l-1.496.856z"/><path fill="#13121A" d="m83.125 172.99 1.496-.856V54.176l-1.496.855z"/><path fill="#EEDE6D" d="m83.125 147.243 1.496-.856v-11.151l-1.496.848z"/><path fill="#13121A" d="m85.621 171.589 1.496-.856V52.775l-1.496.856z"/><path fill="#EEDE6D" d="m85.621 83.82 1.496-.856v-11.16l-1.496.856z"/><path fill="#13121A" d="m88.125 170.183 1.496-.856V51.369l-1.496.856z"/><path fill="#EEDE6D" d="m88.125 170.03 1.496-.856v-11.151l-1.496.856z"/><path fill="#13121A" d="m90.621 168.788 1.496-.855V49.975l-1.496.847z"/><path fill="#EEDE6D" d="m90.621 109.332 1.496-.855v-11.15l-1.496.855zM90.621 127.182l1.496-.856v-11.15l-1.496.856z"/><path fill="#13121A" d="m93.117 167.388 1.496-.856V48.574l-1.496.856z"/><path fill="#EEDE6D" d="m93.117 161.975 1.496-.856v-11.15l-1.496.856z"/><path fill="#13121A" d="m95.617 165.982 1.496-.856V47.168l-1.496.856z"/><path fill="#EEDE6D" d="m95.617 138.78 1.496-.847v-11.16l-1.496.856z"/><path fill="#13121A" d="m98.113 164.579 1.496-.855V45.766l-1.496.855z"/><path fill="#EEDE6D" d="m98.113 90.567 1.496-.847V78.56l-1.496.856z"/><path fill="#13121A" d="m100.613 163.175 1.496-.856V44.361l-1.496.856z"/><path fill="#EEDE6D" d="m100.613 100.389 1.496-.856v-11.15l-1.496.856z"/><path fill="#13121A" d="m103.113 161.772 1.496-.847V42.967l-1.496.847z"/><path fill="#EEDE6D" d="m103.113 60.176 1.496-.847v-11.16l-1.496.857z"/><path fill="#13121A" d="m105.609 160.376 1.496-.855V41.563l-1.496.855z"/><path fill="#EEDE6D" d="m105.609 146.54 1.496-.856v-11.151l-1.496.856zM105.609 159.317l1.496-.856v-11.15l-1.496.855zM105.609 113.362l1.496-.856v-11.151l-1.496.856z"/><path fill="#13121A" d="m108.109 158.974 1.496-.856V40.16l-1.496.856z"/><path fill="#EEDE6D" d="m108.109 82.358 1.496-.856v-11.15l-1.496.855z"/><path fill="#13121A" d="m110.617 157.568 1.496-.856V38.754l-1.496.856z"/><path fill="#EEDE6D" d="m110.617 120.816 1.496-.856v-11.159l-1.496.856z"/><path fill="#A4A3CD" d="m50.629 50.575 20 11.467 41.505-23.132-20.009-11.467z"/></svg>