<svg xmlns="http://www.w3.org/2000/svg" width="113" height="150" fill="none"><path fill="#A4A3CD" d="m0 98.58 56.518 32.826 56.204-31.87-56.93-33.067z"/><path fill="#5B5C71" d="m0 117.098 56.518 32.827v-18.516L0 98.582z"/><path fill="#13121A" d="m56.516 149.997 56.482-32.096V99.293l-56.482 32.11z"/><path fill="#313247" d="m59.879 144.236 29.554-16.793v-10.892l-29.554 16.8z"/><path fill="#5B5C71" d="m88.408 126.422-28.53 16.211v1.603l29.555-16.793v-10.892l-1.025.581z"/><path fill="#5AD5E4" d="m61.75 135.543 1.615-.915v-1.624l-1.615.922z"/><path fill="#EEDE6D" d="m61.75 137.906 1.615-.915v-1.624l-1.615.922z"/><path fill="#5AD5E4" d="m61.75 140.265 1.615-.914v-1.624l-1.615.914zM64.047 134.261l1.608-.914v-1.624l-1.608.914zM64.047 136.621l1.608-.915v-1.624l-1.608.915z"/><path fill="#F2B024" d="m64.047 138.98 1.608-.915v-1.624l-1.608.915zM66.336 132.972l1.608-.914v-1.624l-1.608.914z"/><path fill="#5AD5E4" d="m66.336 135.336 1.608-.915v-1.624l-1.608.915zM66.336 137.699l1.608-.915v-1.624l-1.608.915z"/><path fill="#EEDE6D" d="m68.633 131.691 1.615-.915v-1.624l-1.615.915z"/><path fill="#5AD5E4" d="m68.633 134.05 1.615-.914v-1.624l-1.615.915z"/><path fill="#F2B024" d="m68.633 136.414 1.615-.915v-1.624l-1.615.915z"/><path fill="#5AD5E4" d="m70.875 130.422 1.608-.915v-1.624l-1.608.915zM70.875 135.148l1.608-.915v-1.624l-1.608.915zM73.164 131.504l1.615-.915v-1.624l-1.615.915z"/><path fill="#F2B024" d="m73.164 133.867 1.615-.915v-1.624l-1.615.915zM75.46 127.855l1.61-.915v-1.624l-1.61.915z"/><path fill="#5AD5E4" d="m75.46 132.582 1.61-.922v-1.617l-1.61.915zM77.758 128.93l1.608-.915v-1.617l-1.608.915z"/><path fill="#13121A" d="m3.34 114.882 21.57 12.261v-10.886L3.34 103.996z"/><path fill="#313247" d="m5.707 116.236 1.637.929v-10.892l-1.637-.929z"/><path fill="#F2B024" d="m5.707 116.236 1.637.929v-3.091l-1.637-.929z"/><path fill="#EEDE6D" d="m5.707 109.946 1.637.929v-4.602l-1.637-.929z"/><path fill="#313247" d="m8.41 117.764 1.637.929V107.8l-1.637-.929z"/><path fill="#F2B024" d="m8.41 109.963 1.637.929V107.8l-1.637-.929z"/><path fill="#EEDE6D" d="m8.41 117.766 1.637.929v-4.602l-1.637-.929z"/><path fill="#313247" d="m11.082 119.264 1.637.929v-10.885l-1.637-.929z"/><path fill="#F2B024" d="m11.082 119.264 1.637.929v-3.084l-1.637-.929z"/><path fill="#EEDE6D" d="m11.082 112.981 1.637.929v-4.602l-1.637-.929z"/><path fill="#313247" d="m13.77 120.791 1.636.929v-10.893l-1.636-.929z"/><path fill="#F2B024" d="m13.77 112.99 1.636.929v-3.092l-1.636-.929z"/><path fill="#EEDE6D" d="m13.77 120.794 1.636.929v-4.603l-1.636-.929z"/><path fill="#313247" d="m16.45 122.295 1.636.929v-10.893l-1.637-.929z"/><path fill="#F2B024" d="m16.45 122.295 1.636.929v-3.092l-1.637-.929z"/><path fill="#EEDE6D" d="m16.45 116.005 1.636.929v-4.603l-1.637-.929z"/><path fill="#313247" d="m19.145 123.823 1.636.929v-10.885l-1.636-.929z"/><path fill="#F2B024" d="m19.145 116.022 1.636.929v-3.084l-1.636-.929z"/><path fill="#EEDE6D" d="m19.145 123.821 1.636.929v-4.602l-1.636-.929z"/><path fill="#313247" d="m21.816 125.33 1.637.929v-10.893l-1.637-.928z"/><path fill="#F2B024" d="m21.816 125.33 1.637.929v-3.092l-1.637-.929z"/><path fill="#EEDE6D" d="m21.816 119.04 1.637.929v-4.603l-1.637-.928z"/><path fill="#313247" d="m4.365 104.578-1.025-.582v10.886l21.57 12.261v-1.603L4.364 113.86z"/><path fill="#A4A3CD" d="m0 76.416 56.518 32.826 56.204-31.862-56.93-33.067z"/><path fill="#5B5C71" d="m0 94.937 56.518 32.827v-18.523L0 76.414z"/><path fill="#13121A" d="m56.516 127.841 56.482-32.096V77.137L56.516 109.24z"/><path fill="#313247" d="m59.879 122.08 29.554-16.8V94.394l-29.554 16.8z"/><path fill="#5B5C71" d="m88.408 104.259-28.53 16.218v1.603l29.555-16.8V94.394l-1.025.582z"/><path fill="#5AD5E4" d="m61.75 113.207 1.615-.915v-1.624l-1.615.915z"/><path fill="#EEDE6D" d="m61.75 115.57 1.615-.915v-1.624l-1.615.915z"/><path fill="#5AD5E4" d="m61.75 117.929 1.615-.914v-1.624l-1.615.914zM64.047 111.922l1.608-.915v-1.624l-1.608.915zM64.047 114.285l1.608-.915v-1.624l-1.608.915z"/><path fill="#F2B024" d="m64.047 116.644 1.608-.915v-1.624l-1.608.915zM66.336 110.636l1.608-.921v-1.617l-1.608.914z"/><path fill="#5AD5E4" d="m66.336 113 1.608-.915v-1.624l-1.608.915zM66.336 115.359l1.608-.915v-1.624l-1.608.915z"/><path fill="#EEDE6D" d="m68.633 109.355 1.615-.922v-1.617l-1.615.915z"/><path fill="#5AD5E4" d="m68.633 111.707 1.615-.914v-1.617l-1.615.915z"/><path fill="#F2B024" d="m68.633 114.07 1.615-.915v-1.624l-1.615.922z"/><path fill="#5AD5E4" d="m70.875 108.082 1.608-.914v-1.617l-1.608.915zM70.875 112.8l1.608-.914v-1.624l-1.608.922zM73.164 109.156l1.615-.915v-1.624l-1.615.915z"/><path fill="#F2B024" d="m73.164 111.519 1.615-.915v-1.624l-1.615.915zM75.46 105.515l1.61-.914v-1.624l-1.61.914z"/><path fill="#5AD5E4" d="m75.46 110.234 1.61-.915v-1.624l-1.61.915zM77.758 106.59l1.608-.915v-1.624l-1.608.915z"/><path fill="#13121A" d="m3.34 93.706 21.57 12.261V95.082L3.34 82.82z"/><path fill="#313247" d="m5.707 95.05 1.637.928V85.093l-1.637-.929z"/><path fill="#F2B024" d="m5.707 95.05 1.637.929v-3.085l-1.637-.93z"/><path fill="#EEDE6D" d="m5.707 88.767 1.637.928v-4.602l-1.637-.929z"/><path fill="#313247" d="m8.41 96.588 1.637.929V86.624l-1.637-.929z"/><path fill="#F2B024" d="m8.41 88.787 1.637.93v-3.093l-1.637-.929z"/><path fill="#EEDE6D" d="m8.41 96.59 1.637.93v-4.603l-1.637-.929z"/><path fill="#313247" d="m11.082 98.089 1.637.929V88.132l-1.637-.929z"/><path fill="#F2B024" d="m11.082 98.089 1.637.929v-3.085l-1.637-.93z"/><path fill="#EEDE6D" d="m11.082 91.806 1.637.928v-4.602l-1.637-.929z"/><path fill="#313247" d="m13.77 99.612 1.636.929V89.656l-1.636-.93z"/><path fill="#F2B024" d="m13.77 91.811 1.636.93v-3.085l-1.636-.93z"/><path fill="#EEDE6D" d="m13.77 99.61 1.636.929v-4.602l-1.636-.93z"/><path fill="#313247" d="m16.45 101.123 1.636.929V91.159l-1.637-.928z"/><path fill="#F2B024" d="m16.45 101.123 1.636.929V98.96l-1.637-.929z"/><path fill="#EEDE6D" d="m16.45 94.833 1.636.929v-4.603l-1.637-.928z"/><path fill="#313247" d="m19.145 102.647 1.636.929V92.691l-1.636-.93z"/><path fill="#F2B024" d="m19.145 94.847 1.636.928v-3.084l-1.636-.93z"/><path fill="#EEDE6D" d="m19.145 102.645 1.636.929v-4.602l-1.636-.929z"/><path fill="#313247" d="m21.816 104.155 1.637.929V94.198l-1.637-.928z"/><path fill="#F2B024" d="m21.816 104.155 1.637.929v-3.085l-1.637-.929z"/><path fill="#EEDE6D" d="m21.816 97.872 1.637.929v-4.603l-1.637-.928z"/><path fill="#313247" d="M4.365 83.402 3.34 82.82v10.886l21.57 12.261v-1.603L4.364 92.684z"/><path fill="#A4A3CD" d="m0 54.263 56.518 32.826 56.204-31.869-56.93-33.068z"/><path fill="#5B5C71" d="m0 72.789 56.518 32.826V87.092L0 54.266z"/><path fill="#13121A" d="m56.516 105.693 56.482-32.104v-18.6L56.516 87.091z"/><path fill="#313247" d="m59.879 99.92 29.554-16.793V72.234l-29.554 16.8z"/><path fill="#5B5C71" d="m88.408 82.106-28.53 16.211v1.603l29.555-16.793V72.234l-1.025.589z"/><path fill="#5AD5E4" d="m61.75 91.054 1.615-.922v-1.616l-1.615.914z"/><path fill="#EEDE6D" d="m61.75 93.418 1.615-.922v-1.617l-1.615.915z"/><path fill="#5AD5E4" d="m61.75 95.776 1.615-.922v-1.623l-1.615.921zM64.047 89.762l1.608-.915v-1.616l-1.608.914zM64.047 92.125l1.608-.914v-1.617l-1.608.915z"/><path fill="#F2B024" d="m64.047 94.484 1.608-.915v-1.624l-1.608.922zM66.336 88.476l1.608-.915v-1.624l-1.608.915z"/><path fill="#5AD5E4" d="m66.336 90.84 1.608-.915V88.3l-1.608.915zM66.336 93.203l1.608-.915v-1.624l-1.608.915z"/><path fill="#EEDE6D" d="m68.633 87.195 1.615-.915v-1.624l-1.615.915z"/><path fill="#5AD5E4" d="m68.633 89.554 1.615-.914v-1.624l-1.615.914z"/><path fill="#F2B024" d="m68.633 91.918 1.615-.915v-1.624l-1.615.915z"/><path fill="#5AD5E4" d="m70.875 85.93 1.608-.915V83.39l-1.608.914zM70.875 90.648l1.608-.915V88.11l-1.608.915zM73.164 87.008l1.615-.915v-1.624l-1.615.915z"/><path fill="#F2B024" d="m73.164 89.367 1.615-.915v-1.624l-1.615.915zM75.46 83.36l1.61-.916V80.82l-1.61.915z"/><path fill="#5AD5E4" d="m75.46 88.082 1.61-.915v-1.624l-1.61.915zM77.758 84.437l1.608-.915v-1.624l-1.608.915z"/><path fill="#13121A" d="m3.34 71.33 21.57 12.262V72.707L3.34 60.445z"/><path fill="#313247" d="m5.707 72.686 1.637.928V62.723l-1.637-.929z"/><path fill="#F2B024" d="m5.707 72.686 1.637.929v-3.092l-1.637-.93z"/><path fill="#EEDE6D" d="m5.707 66.395 1.637.93v-4.603l-1.637-.929z"/><path fill="#313247" d="m8.41 74.21 1.637.929V64.253l-1.637-.929z"/><path fill="#F2B024" d="m8.41 66.409 1.637.929v-3.085l-1.637-.929z"/><path fill="#EEDE6D" d="m8.41 74.208 1.637.929v-4.603l-1.637-.928z"/><path fill="#313247" d="m11.082 75.71 1.637.929V65.753l-1.637-.929z"/><path fill="#F2B024" d="m11.082 75.71 1.637.929v-3.085l-1.637-.929z"/><path fill="#EEDE6D" d="m11.082 69.427 1.637.929v-4.603l-1.637-.929z"/><path fill="#313247" d="m13.77 77.24 1.636.93V67.276l-1.636-.93z"/><path fill="#F2B024" d="m13.77 69.44 1.636.928v-3.091l-1.636-.93z"/><path fill="#EEDE6D" d="m13.77 77.243 1.636.929V73.57l-1.636-.93z"/><path fill="#313247" d="m16.45 78.749 1.636.929V68.792l-1.637-.929z"/><path fill="#F2B024" d="m16.45 78.749 1.636.929v-3.085l-1.637-.929z"/><path fill="#EEDE6D" d="m16.45 72.466 1.636.929v-4.603l-1.637-.929z"/><path fill="#313247" d="m19.145 80.272 1.636.93V70.315l-1.636-.93z"/><path fill="#F2B024" d="m19.145 72.472 1.636.928v-3.084l-1.636-.93z"/><path fill="#EEDE6D" d="m19.145 80.27 1.636.93v-4.603l-1.636-.929z"/><path fill="#313247" d="m21.816 81.783 1.637.93V71.82l-1.637-.93z"/><path fill="#F2B024" d="m21.816 81.783 1.637.93V79.62l-1.637-.929z"/><path fill="#EEDE6D" d="m21.816 75.493 1.637.929V71.82l-1.637-.93z"/><path fill="#313247" d="m4.365 61.027-1.025-.582v10.886l21.57 12.261v-1.603L4.364 70.31z"/><path fill="#A4A3CD" d="m0 32.11 56.518 32.827 56.204-31.87L55.792 0z"/><path fill="#5B5C71" d="m0 50.63 56.518 32.826V64.94L0 32.113z"/><path fill="#13121A" d="m56.516 83.529 56.482-32.097V32.824l-56.482 32.11z"/><path fill="#313247" d="m59.879 77.767 29.554-16.792V50.082l-29.554 16.8z"/><path fill="#5B5C71" d="m88.408 59.953-28.53 16.212v1.602l29.555-16.792V50.082l-1.025.581z"/><path fill="#13121A" d="m3.34 49.276 21.57 12.261V50.652L3.34 38.39z"/><path fill="#313247" d="m5.707 50.62 1.637.929V40.663l-1.637-.929z"/><path fill="#F2B024" d="m5.707 50.62 1.637.929v-3.085l-1.637-.929z"/><path fill="#EEDE6D" d="m5.707 44.337 1.637.929v-4.603l-1.637-.929z"/><path fill="#313247" d="m8.41 52.158 1.637.93V42.194l-1.637-.93z"/><path fill="#F2B024" d="m8.41 44.358 1.637.928v-3.091l-1.637-.93z"/><path fill="#EEDE6D" d="m8.41 52.161 1.637.929v-4.602l-1.637-.93z"/><path fill="#313247" d="m11.082 53.658 1.637.93V43.701l-1.637-.936z"/><path fill="#F2B024" d="m11.082 53.658 1.637.93v-3.086l-1.637-.936z"/><path fill="#EEDE6D" d="m11.082 47.368 1.637.936v-4.602l-1.637-.936z"/><path fill="#313247" d="m13.77 55.186 1.636.93V45.23l-1.636-.93z"/><path fill="#F2B024" d="m13.77 47.386 1.636.929V45.23l-1.636-.93z"/><path fill="#EEDE6D" d="m13.77 55.184 1.636.93V51.51l-1.636-.929z"/><path fill="#313247" d="m16.45 56.697 1.636.93V46.733l-1.637-.93z"/><path fill="#F2B024" d="m16.45 56.697 1.636.93v-3.093l-1.637-.928z"/><path fill="#EEDE6D" d="m16.45 50.407 1.636.93v-4.603l-1.637-.93z"/><path fill="#313247" d="m19.145 58.22 1.636.93V48.264l-1.636-.936z"/><path fill="#F2B024" d="m19.145 50.42 1.636.929v-3.085l-1.636-.936z"/><path fill="#EEDE6D" d="m19.145 58.224 1.636.929V54.55l-1.636-.929z"/><path fill="#313247" d="m21.816 59.725 1.637.93V49.768l-1.637-.93z"/><path fill="#F2B024" d="m21.816 59.725 1.637.93V57.57l-1.637-.93z"/><path fill="#EEDE6D" d="m21.816 53.442 1.637.93v-4.603l-1.637-.93z"/><path fill="#313247" d="m4.365 38.972-1.025-.581v10.885l21.57 12.261v-1.602L4.364 48.255z"/><path fill="#5AD5E4" d="m61.75 68.894 1.615-.915v-1.623l-1.615.914z"/><path fill="#EEDE6D" d="m61.75 71.258 1.615-.915v-1.624l-1.615.915z"/><path fill="#5AD5E4" d="m61.75 73.617 1.615-.915v-1.624l-1.615.915zM64.047 67.613l1.608-.915v-1.624l-1.608.915zM64.047 69.972l1.608-.914v-1.624l-1.608.914z"/><path fill="#F2B024" d="m64.047 72.332 1.608-.915v-1.624l-1.608.915zM66.336 66.324l1.608-.915v-1.624l-1.608.915z"/><path fill="#5AD5E4" d="m66.336 68.687 1.608-.915v-1.624l-1.608.915zM66.336 71.05l1.608-.914v-1.624l-1.608.915z"/><path fill="#EEDE6D" d="m68.633 65.043 1.615-.915v-1.624l-1.615.915z"/><path fill="#5AD5E4" d="m68.633 67.402 1.615-.915v-1.624l-1.615.915z"/><path fill="#F2B024" d="m68.633 69.765 1.615-.915v-1.623l-1.615.914z"/><path fill="#5AD5E4" d="m70.875 63.777 1.608-.915v-1.624l-1.608.915zM70.875 68.496l1.608-.915v-1.624l-1.608.915zM73.164 64.851l1.615-.922v-1.617l-1.615.915z"/><path fill="#F2B024" d="m73.164 67.215 1.615-.922v-1.617l-1.615.915zM75.46 61.203l1.61-.915v-1.624l-1.61.922z"/><path fill="#5AD5E4" d="m75.46 65.93 1.61-.923v-1.616l-1.61.914zM77.758 62.277l1.608-.915v-1.624l-1.608.922z"/><path fill="#5B5C71" d="M13.242 28.032 56.51 53.165 99.542 28.77 55.962 3.453z"/><path fill="#312F3A" d="M13.242 31.875 56.51 57.007v-3.843L13.242 28.03z"/><path fill="#13121A" d="m56.512 57.065 43.245-24.572v-3.907l-43.245 24.58z"/><path fill="#5AD5E4" d="M68.16 13.848H58.22v7.446c0 1.134.989 2.978 2.91 4.042 3.914 2.177 10.177 2.234 14.062 0 1.943-1.12 2.91-2.581 2.91-4.042v-7.446zq.009 0 0 0"/><path fill="#fff" d="M73.541 8.705c-1.572-.588-3.394-.9-5.28-.9-3.153 0-6.049.844-7.942 2.312-1.551 1.205-2.284 2.708-2.05 4.24.278 1.851 1.936 3.468 4.54 4.447 1.595.595 3.424.914 5.302.914 3.495 0 6.775-1.106 8.569-2.886 1.167-1.156 1.643-2.539 1.352-3.893-.392-1.766-2.021-3.312-4.49-4.234"/><path fill="#13121A" d="M73.334 9.236c-4.07-1.532-9.671-.993-12.667 1.326-3.189 2.468-2.228 5.986 2.334 7.702 4.568 1.716 10.575.822 13.258-1.837 2.519-2.503 1.152-5.659-2.925-7.19"/><path fill="#312F3A" d="M73.333 9.236c-4.07-1.532-9.671-.993-12.667 1.326-2.498 1.936-2.448 4.51-.114 6.361-.505-1.333-.036-2.772 1.494-3.957 2.705-2.092 7.757-2.574 11.43-1.198 2.091.787 3.387 2.042 3.707 3.397 1.081-2.22-.434-4.645-3.85-5.929"/><mask id="a" width="20" height="12" x="58" y="8" maskUnits="userSpaceOnUse" style="mask-type:luminance"><path fill="#fff" d="M76.266 16.43c-2.683 2.66-8.689 3.554-13.257 1.838-4.562-1.716-5.523-5.234-2.335-7.702 2.996-2.319 8.59-2.858 12.667-1.326 4.071 1.532 5.437 4.688 2.925 7.19"/></mask><g mask="url(#a)"><path fill="#A4A3CD" d="M76.29 14.244c-1.58-1.34-5.785-.589-5.785-.589l-.349.575s4.07.014 6.255 2.397c0 .007 1.26-1.213-.12-2.383"/><path fill="#A4A3CD" d="M75.195 10.948c-1.473-.326-5.515 2.127-5.515 2.127l.22.738s3.31-1.68 7.017-1.036c0 .008.085-1.432-1.722-1.83M72.187 9.374c-1.644.255-3.039 2.836-3.039 2.836l.399.504s2.12-2.092 4.86-2.56c-.007 0-.875-.993-2.22-.78M63.45 9.621s-2.64.66-1.872 2.929c.676 1.986 4.576 2.078 5.259 1.532l-.15-.901c0 .007-2.91-1.22-3.238-3.56M66.04 9.521c-1.167 1.631.612 3.134 1.58 3.454l.797-.454s-.954-2.277 1.152-3.418c-.007-.008-2.497-1.029-3.53.418"/><path fill="#A4A3CD" d="M59.435 13.586s-1.217 1.46 1.025 3.24c2.1 1.667 5.793-.637 7.387-2.049l-1.046-.595c0-.008-3.004.893-7.366-.596"/><path fill="#8E8DBD" d="M66.234 15.505c-.64.234-1.281.553-1.986.645-1.273.156-3.316-.05-4.227-1.12-.377-.447-.59-.958-.52-1.412a.4.4 0 0 1-.078-.028s-1.216 1.46 1.025 3.24c2.1 1.667 5.793-.638 7.387-2.049l-.021-.014c-.47.305-1.025.532-1.58.738"/><path fill="#A4A3CD" d="M60.594 17.415s.626 1.723 3.423 2.39c2.626.624 4.134-2.95 4.597-4.978l-1.174-.093c-.007-.007-2.612 1.724-6.846 2.681"/><path fill="#8E8DBD" d="M61.32 18.188c-.335-.178-.555-.483-.712-.773h-.014s.626 1.723 3.423 2.39c2.626.624 4.134-2.95 4.597-4.979l-.733-.056c-.399 1.226-2.875 5.34-6.561 3.418"/><path fill="#A4A3CD" d="m69.233 14.606-1.032.368s.32 1.163-2.74 3.744c0 0 1.238 1.965 3.387 1.944 2.15-.029 1.836-5.255.385-6.056"/><path fill="#8E8DBD" d="m69.23 14.606-.014.007c1.146 1.05 1.231 6.02-1.622 5.822.377.142.797.227 1.26.227 2.141-.029 1.828-5.255.377-6.056"/><path fill="#A4A3CD" d="m70.063 14.242-.989.426s1.573 1.134 1.9 3.701c0 0 1.374.851 3.06.015 1.68-.837-1.338-3.156-3.97-4.142"/></g><path fill="#F2B024" d="M69.952 14.14c-.861.59-2.427.681-3.451.17-.527-.254-.783-.616-.769-.978l-.028.582c-.015.383.256.766.797 1.035 1.06.525 2.69.397 3.572-.248.413-.298.584-.652.548-.993l-.128-.49c.028.32-.142.653-.54.923"/><path fill="#EEDE6D" d="M69.717 12.354c-.918-.447-2.355-.433-3.273.064-.975.531-.975 1.39.05 1.9 1.024.504 2.597.411 3.451-.17.818-.553.69-1.34-.228-1.794"/><path fill="#54608A" d="M69.27 12.629c-.662-.326-1.7-.312-2.355.043-.705.383-.705 1.006.035 1.368s1.872.298 2.49-.12c.585-.405.492-.972-.17-1.291"/><path fill="#676F93" d="M69.267 12.633c-.662-.326-1.7-.312-2.355.042-.591.32-.684.816-.257 1.185-.07-.27.086-.553.47-.76.612-.332 1.573-.34 2.185-.042.249.128.412.284.477.461.12-.326-.057-.666-.52-.886"/><path fill="#5AD5E4" d="M44.84 13.844h-9.942v7.446c0 1.46.968 2.929 2.911 4.042 3.886 2.234 10.14 2.177 14.062 0 1.921-1.064 2.91-2.908 2.91-4.042v-7.446z"/><path fill="#fff" d="M52.687 10.109c-1.893-1.468-4.79-2.312-7.942-2.312-1.886 0-3.715.312-5.28.9-2.47.93-4.106 2.475-4.484 4.241-.291 1.355.192 2.737 1.352 3.893 1.794 1.78 5.082 2.887 8.569 2.887 1.871 0 3.707-.32 5.301-.915 2.605-.979 4.256-2.603 4.54-4.446.228-1.532-.498-3.043-2.056-4.248"/><path fill="#13121A" d="M52.335 10.562c-2.996-2.319-8.59-2.858-12.667-1.326-4.07 1.532-5.444 4.688-2.925 7.184 2.683 2.66 8.69 3.553 13.258 1.837 4.561-1.71 5.522-5.22 2.334-7.695"/><path fill="#312F3A" d="M52.33 10.562c-2.996-2.319-8.59-2.858-12.667-1.326-3.416 1.284-4.931 3.71-3.85 5.929.32-1.355 1.616-2.617 3.708-3.397 3.672-1.383 8.724-.894 11.429 1.198 1.522 1.185 2 2.631 1.487 3.957 2.341-1.85 2.391-4.425-.107-6.36"/><mask id="b" width="20" height="12" x="35" y="8" maskUnits="userSpaceOnUse" style="mask-type:luminance"><path fill="#fff" d="M36.735 16.427c2.683 2.66 8.69 3.553 13.258 1.837 4.562-1.716 5.522-5.234 2.334-7.702-2.996-2.319-8.59-2.858-12.667-1.326-4.07 1.532-5.444 4.688-2.925 7.191"/></mask><g mask="url(#b)"><path fill="#A4A3CD" d="M36.71 14.236c-1.382 1.17-.122 2.383-.122 2.383 2.185-2.383 6.255-2.397 6.255-2.397l-.348-.574c-.008 0-4.206-.752-5.786.588"/><path fill="#A4A3CD" d="M37.809 10.94c-1.808.397-1.722 1.83-1.722 1.83 3.707-.646 7.016 1.035 7.016 1.035l.22-.737s-4.041-2.454-5.514-2.128M40.806 9.366c-1.352-.213-2.22.78-2.22.78 2.74.468 4.868 2.56 4.868 2.56l.398-.504s-1.402-2.58-3.046-2.836M49.544 9.613c-.328 2.333-3.238 3.567-3.238 3.567l-.15.9c.683.547 4.59.455 5.26-1.53.775-2.27-1.872-2.937-1.872-2.937M43.422 9.09c2.106 1.148 1.153 3.418 1.153 3.418l.797.454c.968-.32 2.747-1.823 1.58-3.454-1.032-1.44-3.53-.418-3.53-.418"/><path fill="#A4A3CD" d="m46.202 14.166-1.046.596c1.594 1.41 5.28 3.716 7.387 2.05 2.235-1.774 1.025-3.242 1.025-3.242-4.363 1.497-7.366.596-7.366.596"/><path fill="#8E8DBD" d="M53.489 13.606c.07.46-.143.971-.52 1.411-.91 1.07-2.953 1.284-4.227 1.12-.711-.085-1.352-.41-1.985-.645-.555-.206-1.103-.433-1.587-.745l-.022.015c1.594 1.41 5.28 3.716 7.387 2.05 2.235-1.774 1.025-3.242 1.025-3.242-.021.014-.043.022-.071.036"/><path fill="#A4A3CD" d="M44.39 14.818c.463 2.028 1.965 5.61 4.598 4.978 2.797-.666 3.423-2.39 3.423-2.39-4.235-.957-6.839-2.687-6.839-2.687z"/><path fill="#8E8DBD" d="M51.678 18.184c-3.68 1.921-6.163-2.192-6.554-3.418l-.733.056c.462 2.029 1.964 5.61 4.597 4.979 2.797-.667 3.423-2.39 3.423-2.39h-.014c-.164.283-.385.595-.72.773"/><path fill="#A4A3CD" d="m44.805 14.959-1.032-.37c-1.459.802-1.772 6.029.384 6.05 2.15.021 3.388-1.943 3.388-1.943-3.06-2.567-2.74-3.737-2.74-3.737"/><path fill="#8E8DBD" d="m43.787 14.597-.014-.007c-1.459.801-1.772 6.028.384 6.049.463.007.883-.085 1.26-.227-2.86.206-2.768-4.765-1.63-5.815"/><path fill="#A4A3CD" d="M38.968 18.376c1.686.837 3.06-.014 3.06-.014.327-2.567 1.9-3.702 1.9-3.702l-.99-.426c-2.632.986-5.657 3.305-3.97 4.142"/></g><path fill="#F2B024" d="M46.51 14.308c-1.025.503-2.597.411-3.451-.17-.399-.27-.57-.603-.534-.915l-.128.489c-.043.333.135.695.548.993.882.645 2.512.773 3.572.248.541-.27.811-.645.797-1.035l-.028-.582c.007.355-.25.716-.776.972"/><path fill="#EEDE6D" d="M46.56 12.414c-.912-.497-2.356-.511-3.274-.064-.918.454-1.04 1.24-.235 1.787.861.588 2.427.68 3.451.17 1.032-.504 1.032-1.369.057-1.893"/><path fill="#54608A" d="M46.094 12.668c-.655-.355-1.701-.37-2.356-.043-.661.326-.747.894-.17 1.29.619.42 1.75.49 2.49.121.74-.368.733-.992.036-1.368"/><path fill="#676F93" d="M46.099 12.672c-.655-.355-1.701-.37-2.356-.043-.455.227-.64.567-.52.886.065-.177.228-.333.477-.46.612-.298 1.573-.291 2.185.042.377.206.541.49.47.759.427-.369.334-.865-.256-1.184"/><path fill="#5AD5E4" d="M68.16 27.168H58.22v7.446c0 1.46.968 2.929 2.91 4.042 3.886 2.234 10.141 2.177 14.062 0 1.922-1.063 2.91-2.907 2.91-4.042v-7.446zq.009 0 0 0"/><path fill="#fff" d="M76.015 23.437c-1.9-1.468-4.79-2.312-7.942-2.312-1.886 0-3.707.312-5.28.9-2.47.93-4.106 2.476-4.483 4.241-.292 1.355.192 2.738 1.352 3.894 1.793 1.78 5.074 2.886 8.568 2.886 1.871 0 3.707-.32 5.301-.915 2.605-.979 4.256-2.603 4.54-4.446.221-1.54-.505-3.043-2.056-4.248"/><path fill="#13121A" d="M75.655 23.89c-2.996-2.318-8.59-2.857-12.667-1.326-4.07 1.532-5.444 4.688-2.925 7.184 2.683 2.66 8.69 3.553 13.258 1.837 4.562-1.71 5.522-5.227 2.334-7.695"/><path fill="#312F3A" d="M75.658 23.887c-2.996-2.32-8.59-2.858-12.667-1.327-3.416 1.284-4.931 3.71-3.85 5.929.32-1.355 1.616-2.617 3.708-3.397 3.679-1.383 8.724-.893 11.429 1.199 1.523 1.184 2 2.63 1.494 3.957 2.334-1.851 2.384-4.425-.114-6.361"/><mask id="c" width="20" height="12" x="58" y="21" maskUnits="userSpaceOnUse" style="mask-type:luminance"><path fill="#fff" d="M60.064 29.747c2.682 2.66 8.688 3.553 13.257 1.837 4.562-1.716 5.522-5.233 2.334-7.701-2.996-2.32-8.59-2.858-12.667-1.326-4.07 1.531-5.444 4.687-2.925 7.19"/></mask><g mask="url(#c)"><path fill="#A4A3CD" d="M60.03 27.568c-1.381 1.17-.122 2.383-.122 2.383 2.185-2.383 6.256-2.397 6.256-2.397l-.349-.574s-4.206-.752-5.786.588"/><path fill="#A4A3CD" d="M61.137 24.272c-1.808.397-1.722 1.837-1.722 1.837 3.707-.646 7.016 1.035 7.016 1.035l.221-.737c0-.008-4.042-2.461-5.515-2.135M64.134 22.69c-1.352-.213-2.22.78-2.22.78 2.74.468 4.86 2.56 4.86 2.56l.399-.503s-1.402-2.582-3.039-2.837M72.864 22.941c-.327 2.334-3.238 3.567-3.238 3.567l-.15.901c.684.546 4.59.454 5.26-1.532.775-2.269-1.872-2.936-1.872-2.936M66.758 22.41c2.1 1.15 1.145 3.419 1.145 3.419l.798.454c.967-.32 2.746-1.823 1.58-3.454-1.032-1.432-3.523-.418-3.523-.418"/><path fill="#A4A3CD" d="m69.523 27.495-1.046.603c1.594 1.41 5.28 3.716 7.386 2.05 2.235-1.774 1.025-3.242 1.025-3.242-4.355 1.49-7.365.589-7.365.589"/><path fill="#8E8DBD" d="M76.809 26.927c.071.46-.142.971-.52 1.411-.91 1.07-2.953 1.284-4.227 1.12-.711-.085-1.352-.404-1.985-.638-.555-.205-1.103-.432-1.587-.744l-.021.014c1.594 1.411 5.28 3.716 7.387 2.05 2.234-1.774 1.024-3.242 1.024-3.242a.2.2 0 0 1-.071.029"/><path fill="#A4A3CD" d="M67.71 28.14c.464 2.027 1.965 5.608 4.598 4.984 2.797-.666 3.423-2.39 3.423-2.39-4.234-.957-6.839-2.687-6.839-2.687z"/><path fill="#8E8DBD" d="M74.998 31.504c-3.68 1.922-6.163-2.191-6.554-3.418l-.733.057c.463 2.028 1.964 5.61 4.597 4.985 2.797-.667 3.423-2.39 3.423-2.39h-.014c-.164.284-.385.596-.719.766"/><path fill="#A4A3CD" d="m68.13 28.29-1.033-.368c-1.459.801-1.772 6.028.385 6.049 2.149.021 3.387-1.943 3.387-1.943-3.067-2.567-2.74-3.737-2.74-3.737"/><path fill="#8E8DBD" d="m67.112 27.929-.015-.007c-1.459.801-1.772 6.028.385 6.049.462.007.882-.085 1.26-.227-2.869.206-2.776-4.765-1.63-5.815"/><path fill="#A4A3CD" d="M62.292 31.705c1.687.837 3.06-.014 3.06-.014.328-2.568 1.9-3.702 1.9-3.702l-.989-.419c-2.633.979-5.657 3.298-3.97 4.135"/></g><path fill="#F2B024" d="M69.838 27.636c-1.025.503-2.597.411-3.451-.17-.399-.27-.57-.603-.534-.915l-.128.49c-.043.332.135.694.548.992.882.645 2.512.773 3.572.248.541-.27.811-.645.797-1.035l-.028-.582c.007.355-.25.716-.776.972"/><path fill="#EEDE6D" d="M69.887 25.742c-.91-.497-2.355-.51-3.273-.064-.918.447-1.04 1.234-.235 1.787.861.588 2.427.68 3.451.17 1.032-.503 1.032-1.369.057-1.893"/><path fill="#54608A" d="M69.426 25.996c-.662-.355-1.701-.369-2.356-.043-.661.326-.747.894-.17 1.29.619.42 1.75.49 2.49.121.74-.368.74-.992.036-1.368"/><path fill="#676F93" d="M69.427 25.996c-.662-.355-1.701-.369-2.356-.043-.455.227-.64.567-.52.887.065-.17.228-.334.478-.461.612-.298 1.572-.291 2.184.042.377.206.541.49.47.759.434-.369.334-.865-.256-1.184"/><path fill="#5AD5E4" d="M44.84 27.168h-9.942v7.446c0 1.135.99 2.979 2.911 4.042 3.914 2.177 10.176 2.234 14.062 0 1.943-1.12 2.91-2.581 2.91-4.042v-7.446z"/><path fill="#fff" d="M50.213 22.026c-1.573-.589-3.394-.901-5.28-.901-3.153 0-6.05.844-7.942 2.312-1.551 1.205-2.284 2.709-2.05 4.24.278 1.851 1.936 3.468 4.54 4.447 1.595.596 3.43.915 5.302.915 3.494 0 6.775-1.107 8.568-2.887 1.16-1.155 1.644-2.538 1.352-3.893-.384-1.758-2.02-3.304-4.49-4.233"/><path fill="#13121A" d="M50.013 22.564c-4.07-1.531-9.67-.992-12.667 1.326-3.188 2.468-2.227 5.986 2.334 7.702 4.562 1.716 10.575.822 13.258-1.837 2.52-2.503 1.146-5.659-2.925-7.19"/><path fill="#312F3A" d="M50.013 22.56c-4.07-1.531-9.671-.992-12.667 1.327-2.498 1.936-2.448 4.51-.114 6.36-.506-1.333-.036-2.772 1.487-3.956 2.704-2.092 7.757-2.575 11.429-1.199 2.092.787 3.387 2.043 3.707 3.397 1.082-2.22-.434-4.645-3.842-5.929"/><mask id="d" width="20" height="12" x="35" y="21" maskUnits="userSpaceOnUse" style="mask-type:luminance"><path fill="#fff" d="M52.938 29.747c-2.683 2.66-8.689 3.553-13.258 1.837-4.561-1.716-5.522-5.233-2.334-7.701 2.996-2.32 8.59-2.858 12.667-1.326 4.07 1.531 5.444 4.687 2.925 7.19"/></mask><g mask="url(#d)"><path fill="#A4A3CD" d="M52.978 27.564c-1.58-1.34-5.786-.588-5.786-.588l-.348.574s4.07.014 6.255 2.397c0 0 1.253-1.213-.121-2.383"/><path fill="#A4A3CD" d="M51.875 24.268c-1.474-.326-5.516 2.128-5.516 2.128l.221.737s3.31-1.68 7.017-1.035c0 0 .092-1.433-1.723-1.83M48.867 22.694c-1.637.255-3.039 2.837-3.039 2.837l.399.503s2.12-2.092 4.867-2.56c-.007 0-.875-.993-2.227-.78M40.13 22.941s-2.641.667-1.873 2.93c.677 1.985 4.583 2.077 5.26 1.531l-.143-.9c0 .006-2.91-1.22-3.245-3.56M42.727 22.843c-1.167 1.631.612 3.135 1.58 3.454l.797-.454s-.953-2.276 1.153-3.418c-.007-.014-2.498-1.028-3.53.418"/><path fill="#A4A3CD" d="M36.12 26.906s-1.21 1.461 1.025 3.241c2.106 1.667 5.792-.638 7.386-2.05l-1.046-.602s-3.01.9-7.365-.589"/><path fill="#8E8DBD" d="M42.919 28.828c-.64.234-1.274.553-1.986.638-1.274.156-3.316-.05-4.227-1.12-.377-.447-.59-.957-.52-1.411a.4.4 0 0 1-.078-.029s-1.21 1.461 1.025 3.241c2.106 1.667 5.793-.638 7.387-2.05l-.022-.014c-.476.305-1.024.54-1.58.745"/><path fill="#A4A3CD" d="M37.273 30.739s.627 1.723 3.423 2.39c2.626.623 4.135-2.95 4.598-4.986l-1.175-.092c-.007 0-2.611 1.73-6.846 2.688"/><path fill="#8E8DBD" d="M38.007 31.503c-.334-.177-.555-.482-.712-.773h-.014s.627 1.724 3.423 2.39c2.626.624 4.135-2.95 4.597-4.985l-.733-.057c-.398 1.241-2.882 5.347-6.56 3.425"/><path fill="#A4A3CD" d="m45.905 27.918-1.032.369s.32 1.163-2.74 3.744c0 0 1.238 1.964 3.387 1.943 2.156-.021 1.843-5.248.384-6.056"/><path fill="#8E8DBD" d="m45.91 27.918-.014.007c1.146 1.05 1.231 6.02-1.623 5.822.378.142.797.227 1.26.227 2.15-.021 1.836-5.248.377-6.056"/><path fill="#A4A3CD" d="m46.747 27.563-.99.418s1.574 1.134 1.9 3.702c0 0 1.374.85 3.06.014 1.68-.83-1.344-3.149-3.97-4.134"/></g><path fill="#F2B024" d="M46.624 27.465c-.861.588-2.427.68-3.451.17-.527-.262-.783-.617-.769-.979l-.029.582c-.014.383.257.766.798 1.035 1.06.525 2.69.397 3.572-.248.413-.298.584-.652.548-.993l-.128-.489c.028.32-.142.645-.541.922"/><path fill="#EEDE6D" d="M46.39 25.677c-.919-.454-2.356-.433-3.274.064-.975.524-.975 1.39.05 1.9 1.024.504 2.597.411 3.45-.17.812-.56.691-1.348-.227-1.794"/><path fill="#54608A" d="M45.943 25.945c-.662-.326-1.7-.312-2.355.043-.698.383-.705 1.007.035 1.369.74.361 1.872.297 2.491-.12.577-.398.491-.965-.17-1.292"/><path fill="#676F93" d="M45.939 25.945c-.662-.326-1.7-.312-2.356.043-.59.32-.683.816-.256 1.177-.071-.27.086-.553.47-.759.612-.333 1.573-.34 2.185-.042.256.12.412.29.476.46.121-.311-.064-.652-.52-.879"/></svg>