<svg xmlns="http://www.w3.org/2000/svg" width="287" height="209" fill="none"><path fill="#313247" d="m282.982 118.447-137.79-80.709a6.85 6.85 0 0 0-6.922-.013L3.453 115.958c-4.593 2.664-4.606 9.31-.027 11.987l136.785 80.117a6.91 6.91 0 0 0 6.883.04l135.808-77.641c4.646-2.65 4.672-9.323.08-12.014"/><path fill="#313247" d="m.008 122.899 286.398 1.937v-6.713L.008 116.172z"/><path fill="#5B5C71" d="m282.982 112.228-137.79-80.709a6.85 6.85 0 0 0-6.922-.013L3.453 109.726c-4.593 2.663-4.606 9.31-.027 11.987l136.785 80.117a6.91 6.91 0 0 0 6.883.04l135.808-77.641c4.646-2.637 4.672-9.324.08-12.001"/><path fill="#313247" d="m78.875 148.047.388.7 19.883-11.194 15.519 8.974.401-.7-15.92-9.202zM66.852 113.993l.388.7 54.334-30.378-.389-.713z"/><path fill="#fff" d="M67.868 127.957c-2.865 0-4.86 1.547-4.86 2.933s1.995 2.946 4.86 2.946 4.86-1.547 4.86-2.946c0-1.386-1.994-2.933-4.86-2.933m0 5.61c-2.704 0-4.592-1.412-4.592-2.677s1.887-2.677 4.592-2.677 4.593 1.412 4.593 2.677c0 1.278-1.888 2.677-4.593 2.677M97.325 80.09l-12.158-7.103a1.1 1.1 0 0 0-1.11 0L60.142 86.925a1.1 1.1 0 0 0-.55.969c0 .404.215.767.563.955l12.318 6.996c.174.094.362.148.55.148.187 0 .388-.054.548-.148l23.74-13.844c.348-.202.549-.565.549-.955.013-.39-.201-.753-.536-.955m-.147 1.696L73.438 95.63a.83.83 0 0 1-.83 0L60.29 88.62a.82.82 0 0 1-.428-.726c0-.31.147-.579.415-.727L84.19 73.23a.8.8 0 0 1 .415-.12c.134 0 .295.04.415.12l12.158 7.104a.83.83 0 0 1 .415.727c.013.296-.148.564-.415.726M153.878 170.393l-17.005-9.929a1.1 1.1 0 0 0-1.111 0l-16.322 9.485a1.08 1.08 0 0 0-.549.968c0 .404.214.767.563.969l17.232 9.794c.174.094.361.148.549.148.187 0 .388-.054.562-.148l16.094-9.35c.348-.202.549-.565.549-.969 0-.403-.214-.767-.562-.968m-.134 1.695-16.094 9.35a.86.86 0 0 1-.844 0l-17.232-9.794a.83.83 0 0 1-.428-.727.87.87 0 0 1 .415-.74l16.321-9.484a.86.86 0 0 1 .844 0l17.004 9.928a.84.84 0 0 1 .415.74.81.81 0 0 1-.401.727"/><path fill="#313247" d="m65.234 103.716.402.7 90.231-51.945-.389-.713z"/><path fill="#13121A" d="m82.922 118.256 61.015 35.733 59.141-33.809-61.444-35.989z"/><path fill="#DCDCE6" d="m82.922 115.889 61.015 35.733 59.141-33.809-61.444-35.989z"/><path fill="#5AD5E4" d="m130.609 115.985 13.47 7.897 11.046-6.323-13.55-7.938z"/><path fill="#13121A" d="m179.906 117.414 3.508 2.059 2.879-1.655-3.535-2.072zM138.914 93.045l3.521 2.059 2.879-1.641-3.535-2.072zM141.094 139.702l3.508 2.058 2.892-1.641-3.548-2.072zM100.094 115.352l3.521 2.058 2.879-1.655-3.535-2.071z"/><path fill="#F2B024" d="m87.344 115.907 56.61 33.15 54.695-31.266-57.012-33.393zm56.623 28.495-48.63-28.482 46.287-26.853 48.965 28.683z"/><path fill="#807EB0" d="m117.742 116.333 25.694 15.041 24.784-14.167-25.868-15.148zm25.694 13.884-23.699-13.871 22.601-13.117 23.86 13.978z"/><path fill="#313247" d="m280.361 116.767-137.79-80.71a1.69 1.69 0 0 0-1.674 0L6.08 114.292c-.535.31-.83.821-.83 1.453 0 .619.295 1.144.83 1.453l136.799 80.117c.254.148.549.229.843.229.282 0 .576-.081.831-.216l135.808-77.641c.535-.309.843-.821.843-1.453-.013-.632-.308-1.157-.843-1.466m-.415 2.206-135.808 77.641a.91.91 0 0 1-.871 0L6.468 116.497a.81.81 0 0 1-.428-.753c0-.336.147-.578.428-.753l134.818-78.233a.83.83 0 0 1 .428-.122c.147 0 .308.04.442.121l137.79 80.709a.81.81 0 0 1 .428.754.81.81 0 0 1-.428.753"/><path fill="#fff" d="m273.421 118.085-32.175-18.849a.41.41 0 0 0-.428 0l-31.479 18.27a.43.43 0 0 0-.214.377c0 .162.08.296.214.377l31.934 18.7a.4.4 0 0 0 .214.068c.08 0 .147-.014.214-.054l31.706-18.122a.43.43 0 0 0 .214-.377.4.4 0 0 0-.2-.39m-.134.511-31.706 18.122a.17.17 0 0 1-.161 0l-31.933-18.7c-.054-.027-.081-.081-.081-.148 0-.068.027-.108.081-.135l31.478-18.27c.027-.013.053-.027.08-.027s.054.014.08.027l32.175 18.849c.04.013.08.053.08.134-.013.094-.067.135-.093.148"/><path fill="#313247" d="m215.594 109.5 12.291 6.982 22.896-13.4-12.131-7.09z"/><path fill="#fff" d="m238.653 97.844-19.655 11.516-.201.121 9.011 5.126.067.04 19.535-11.435.201-.121-8.891-5.193zm-10.778 16.481-8.543-4.857 19.321-11.315 8.422 4.924z"/><path fill="#13121A" d="m227.883 124.056 22.896-13.413v-7.561l-22.896 13.4z"/><path fill="#13121A" d="m215.594 117.117 12.291 6.969v-7.601l-12.291-6.969z"/><path fill="#313247" d="m60.89 80.172 12.305 6.996 22.896-13.414-12.13-7.09z"/><path fill="#fff" d="M83.958 68.52 64.302 80.036l-.2.121 9.01 5.126.068.04 19.535-11.435.2-.122-8.89-5.193zM73.18 85l-8.543-4.856 19.32-11.315 8.423 4.924z"/><path fill="#13121A" d="m73.203 94.728 22.896-13.4v-7.574L73.203 87.167zM60.89 87.8l12.305 6.97v-7.602L60.891 80.2z"/><path fill="#fff" d="m129.137 61.513-12.157-7.104a1.1 1.1 0 0 0-1.111 0L91.955 68.347a1.1 1.1 0 0 0-.549.969c0 .403.215.753.563.955l12.318 7.01c.174.094.361.147.549.147.187 0 .388-.053.549-.148l23.739-13.843c.348-.202.549-.566.549-.956a1.06 1.06 0 0 0-.536-.968m-.134 1.695-23.739 13.844a.83.83 0 0 1-.83 0l-12.318-7.01a.82.82 0 0 1-.429-.726c0-.31.161-.579.416-.727l23.913-13.938a.77.77 0 0 1 .415-.107.9.9 0 0 1 .415.107l12.157 7.104a.83.83 0 0 1 .416.726.85.85 0 0 1-.416.727"/><path fill="#313247" d="m92.719 61.59 12.305 6.995 22.882-13.413-12.131-7.09z"/><path fill="#fff" d="M115.778 49.934 96.123 61.45l-.201.121 9.011 5.126.067.04 19.535-11.435.201-.121-8.891-5.194zM105 66.428l-8.543-4.857 19.321-11.314 8.422 4.924z"/><path fill="#13121A" d="m105.031 76.146 22.883-13.4v-7.574l-22.883 13.413zM92.719 69.219l12.305 6.969v-7.602l-12.305-6.969z"/><path fill="#313247" d="m230.859 118.968 12.305 6.983 22.896-13.4-12.131-7.09z"/><path fill="#fff" d="m253.927 107.32-19.656 11.517-.201.121 9.011 5.126.067.04 19.535-11.436.201-.121-8.89-5.193zm-10.779 16.481-8.542-4.857 19.321-11.314 8.422 4.924z"/><path fill="#13121A" d="m243.172 133.525 22.896-13.413v-7.561l-22.896 13.4zM230.859 126.584l12.305 6.969v-7.601l-12.305-6.956z"/><path fill="#fff" d="m132.729 158.578-17.004-9.942a1.1 1.1 0 0 0-1.112 0l-16.321 9.485a1.07 1.07 0 0 0-.55.968c0 .404.215.767.563.969l17.246 9.794c.174.094.361.148.549.148.187 0 .388-.054.562-.148l16.094-9.35c.348-.202.549-.565.549-.969a1.18 1.18 0 0 0-.576-.955m-.134 1.695-16.094 9.351a.83.83 0 0 1-.83 0l-17.245-9.795a.83.83 0 0 1-.429-.726c0-.31.16-.579.415-.74l16.322-9.485a.8.8 0 0 1 .428-.108c.148 0 .295.041.429.108l17.004 9.942a.82.82 0 0 1 .415.727.82.82 0 0 1-.415.726"/><path fill="#fff" d="m99.71 148.889 16.376 9.297 15.224-8.853-16.148-9.431z"/><path fill="#5B5C71" d="m115.108 141.34-12.72 7.372-.2.122 13.911 7.91.067.041 12.532-7.265.201-.121-13.71-8.019zm1.045 15.122-13.43-7.628 12.385-7.185 13.242 7.736z"/><path fill="#C4CAE0" d="m116.086 168.265 15.224-8.852v-10.077l-15.224 8.852z"/><path fill="#A4A3CD" d="m99.71 159.033 16.376 9.27v-10.117l-16.375-9.256z"/><path fill="#5B5C71" d="m115.212 141.501-.267.019 1.045 15.125.267-.018z"/><path fill="#5B5C71" d="m102.625 148.851 25.989.673.013-.269-25.989-.673z"/><path fill="#fff" d="m120.867 160.702 16.362 9.31 15.237-8.866-16.148-9.431z"/><path fill="#5B5C71" d="m136.264 153.148-12.719 7.373-.201.121 13.911 7.897.067.041 12.533-7.265.2-.121-13.71-8.019zm1.045 15.122-13.43-7.628 12.385-7.184 13.242 7.736z"/><path fill="#C4CAE0" d="m137.227 180.078 15.237-8.853v-10.077l-15.237 8.866z"/><path fill="#A4A3CD" d="m120.867 170.846 16.362 9.27v-10.104l-16.362-9.27z"/><path fill="#5B5C71" d="m136.369 153.313-.267.019 1.044 15.126.267-.019z"/><path fill="#5B5C71" d="m123.781 160.664 25.989.672v-.269l-25.989-.672z"/><path fill="#fff" d="m20.54 112.045 2.275 1.399 23.726-13.683-2.169-1.452z"/><path fill="#C4CAE0" d="m22.82 117.992 23.726-13.683v-4.547L22.82 113.444z"/><path fill="#A4A3CD" d="m20.54 116.633 2.275 1.372v-4.561l-2.276-1.385z"/><path fill="#fff" d="m24.273 114.33 2.277 1.386 23.726-13.669-2.17-1.453z"/><path fill="#C4CAE0" d="m26.555 120.277 23.726-13.683v-4.547l-23.726 13.669z"/><path fill="#A4A3CD" d="m24.273 118.918 2.277 1.372v-4.574l-2.277-1.372z"/><path fill="#fff" d="m28.008 116.615 2.276 1.386 23.726-13.669-2.17-1.453z"/><path fill="#C4CAE0" d="m30.29 122.548 23.725-13.669v-4.547l-23.726 13.669z"/><path fill="#A4A3CD" d="m28.008 121.203 2.276 1.372v-4.574l-2.276-1.372z"/><path fill="#fff" d="m31.734 118.904 2.277 1.386 23.725-13.669-2.169-1.453z"/><path fill="#C4CAE0" d="m34.016 124.837 23.726-13.669v-4.547L34.016 120.29z"/><path fill="#A4A3CD" d="m31.734 123.492 2.277 1.372v-4.574l-2.277-1.372z"/><path fill="#fff" d="m35.469 121.174 2.276 1.399 23.726-13.682-2.17-1.453z"/><path fill="#C4CAE0" d="m37.75 127.12 23.726-13.669v-4.56L37.75 122.573z"/><path fill="#A4A3CD" d="m35.469 125.764 2.276 1.386v-4.575l-2.276-1.372z"/><path fill="#EEDE6D" d="m87.32 94.295 11.863 6.848 1.138-.7-11.916-6.861z"/><path fill="#F80" d="m87.32 96.584 11.863 6.835v-2.274L87.32 94.297z"/><path fill="#F2B024" d="m99.188 103.426 1.138-.686v-2.287l-1.138.686z"/><path fill="#EEDE6D" d="m85.453 95.441 11.876 6.848 1.139-.699-11.93-6.875z"/><path fill="#F80" d="m85.453 97.729 11.876 6.834v-2.274l-11.876-6.848z"/><path fill="#F2B024" d="m97.328 104.575 1.138-.686v-2.287l-1.138.686z"/><path fill="#EEDE6D" d="m83.57 96.603 11.877 6.835 1.138-.7-11.93-6.875z"/><path fill="#F80" d="m83.57 98.88 11.877 6.834v-2.274L83.57 96.606z"/><path fill="#F2B024" d="m95.453 105.723 1.138-.686v-2.287l-1.138.686z"/><path fill="#EEDE6D" d="m81.71 97.723 11.877 6.848 1.138-.7-11.93-6.875z"/><path fill="#F80" d="m81.71 100.01 11.877 6.834v-2.273l-11.876-6.848z"/><path fill="#F2B024" d="m93.594 106.856 1.138-.686v-2.287l-1.138.686z"/><path fill="#EEDE6D" d="m79.836 98.867 11.876 6.848 1.138-.7-11.93-6.874z"/><path fill="#F80" d="m79.836 101.154 11.876 6.835v-2.274l-11.876-6.848z"/><path fill="#F2B024" d="m91.719 108.001 1.138-.687v-2.287l-1.138.686z"/><path fill="#fff" d="m107.547 81.664 11.876 6.848 1.125-.7-11.917-6.874z"/><path fill="#C4CAE0" d="m107.547 83.951 11.876 6.835v-2.274l-11.876-6.848z"/><path fill="#A4A3CD" d="m119.422 90.798 1.125-.687v-2.287l-1.125.686z"/><path fill="#fff" d="m105.672 82.822 11.876 6.834 1.138-.7-11.93-6.874z"/><path fill="#C4CAE0" d="m105.672 85.098 11.876 6.834V89.66l-11.876-6.835z"/><path fill="#A4A3CD" d="m117.547 91.942 1.138-.686v-2.287l-1.138.686z"/><path fill="#fff" d="m103.797 83.953 11.876 6.848 1.138-.7-11.916-6.874z"/><path fill="#C4CAE0" d="m103.797 86.24 11.876 6.835V90.8l-11.876-6.848z"/><path fill="#A4A3CD" d="m115.672 93.087 1.138-.687v-2.287l-1.138.686z"/><path fill="#fff" d="m101.938 85.098 11.876 6.847 1.138-.7-11.93-6.874z"/><path fill="#C4CAE0" d="m101.938 87.385 11.876 6.834v-2.273l-11.876-6.848z"/><path fill="#A4A3CD" d="m113.812 94.231 1.139-.686v-2.287l-1.139.686z"/><path fill="#fff" d="m100.062 86.234 11.877 6.848 1.138-.7-11.93-6.874z"/><path fill="#C4CAE0" d="m100.062 88.522 11.877 6.834v-2.274l-11.877-6.848z"/><path fill="#A4A3CD" d="m111.938 95.368 1.138-.686v-2.288l-1.138.687z"/><path fill="#313247" d="m209.261 133.055-38.923 21.606-.214.108v13.763l-31.345 16.077h-16.107v.807h16.295l31.746-16.279.214-.107v-13.777l38.334-21.27 23.726 13.09.388-.699-23.927-13.212zM46.703 129.395l20.82-11.759v-12.714L44.949 91.953l-.402.7 22.173 12.74v11.772l-21.65 12.23 45.938 25.898 5.556 14.786.75-.283-5.65-15.068zM220.91 99.794l-25.56-15.23v-17.1h-.803v17.571l26.149 15.58.201.121 15.907-9.028-.402-.7z"/><path fill="#EEDE6D" d="m193.234 71.131 2.009 1.157 1.981-1.17-1.981-1.184z"/><path fill="#F2B024" d="m195.242 90.823 1.982-1.17v-18.54l-1.982 1.17z"/><path fill="#F80" d="m193.234 89.682 2.009 1.157V72.286l-2.009-1.157z"/><path fill="#EEDE6D" d="m189.648 73.045 2.022 1.17 1.968-1.17-1.968-1.197z"/><path fill="#F2B024" d="m191.672 92.753 1.968-1.17v-18.54l-1.968 1.17z"/><path fill="#F80" d="m189.648 91.596 2.022 1.157v-18.54l-2.022-1.17z"/><path fill="#EEDE6D" d="m186.078 74.954 2.009 1.17 1.981-1.17-1.981-1.184z"/><path fill="#F2B024" d="m188.086 94.659 1.982-1.17v-18.54l-1.982 1.17z"/><path fill="#F80" d="m186.078 93.504 2.009 1.157v-18.54l-2.009-1.156z"/><path fill="#EEDE6D" d="m182.5 76.873 2.008 1.157 1.969-1.17-1.969-1.184z"/><path fill="#F2B024" d="m184.508 96.565 1.968-1.17v-18.54l-1.968 1.17z"/><path fill="#F80" d="m182.5 95.424 2.008 1.157V78.028l-2.008-1.157z"/><path fill="#EEDE6D" d="m178.906 78.791 2.022 1.157 1.968-1.157-1.968-1.197z"/><path fill="#F2B024" d="m180.93 98.485 1.968-1.157V78.79l-1.968 1.157z"/><path fill="#F80" d="m178.906 97.342 2.022 1.157V79.946l-2.022-1.157z"/><path fill="#EEDE6D" d="m196.219 72.916 2.008 1.17 1.982-1.17-1.982-1.197z"/><path fill="#F2B024" d="m198.227 92.624 1.981-1.17v-18.54l-1.981 1.17z"/><path fill="#F80" d="m196.219 91.465 2.008 1.157v-18.54l-2.008-1.156z"/><path fill="#EEDE6D" d="m192.633 74.832 2.022 1.17 1.968-1.17-1.968-1.184z"/><path fill="#F2B024" d="m194.656 94.538 1.968-1.17v-18.54l-1.968 1.17z"/><path fill="#F80" d="m192.633 93.383 2.022 1.17V76.001l-2.022-1.157z"/><path fill="#EEDE6D" d="m189.055 76.752 2.008 1.157 1.982-1.17-1.982-1.184z"/><path fill="#F2B024" d="m191.062 96.444 1.982-1.17v-18.54l-1.982 1.17z"/><path fill="#F80" d="m189.055 95.303 2.008 1.157V77.907l-2.008-1.157z"/><path fill="#EEDE6D" d="m185.484 78.666 2.009 1.17 1.968-1.17-1.968-1.197z"/><path fill="#F2B024" d="m187.492 98.374 1.968-1.17v-18.54l-1.968 1.17z"/><path fill="#F80" d="m185.484 97.217 2.009 1.157v-18.54l-2.009-1.17z"/><path fill="#EEDE6D" d="m181.891 80.579 2.021 1.17 1.969-1.17-1.969-1.184z"/><path fill="#F2B024" d="m183.914 100.284 1.968-1.17v-18.54l-1.968 1.17z"/><path fill="#F80" d="m181.891 99.129 2.021 1.157v-18.54l-2.021-1.156z"/><path fill="#EEDE6D" d="m199.203 74.729 2.009 1.157 1.968-1.17-1.968-1.185z"/><path fill="#F2B024" d="m201.211 94.42 1.968-1.17V74.71l-1.968 1.171z"/><path fill="#F80" d="m199.203 93.283 2.009 1.157V75.888l-2.009-1.157z"/><path fill="#EEDE6D" d="m195.625 76.635 2.022 1.157 1.968-1.157-1.968-1.198z"/><path fill="#F2B024" d="m197.648 96.329 1.969-1.157v-18.54l-1.969 1.158z"/><path fill="#F80" d="m195.625 95.186 2.022 1.156V77.79l-2.022-1.157z"/><path fill="#EEDE6D" d="m192.039 78.545 2.008 1.17 1.982-1.17-1.982-1.197z"/><path fill="#F2B024" d="m194.047 98.253 1.981-1.17v-18.54l-1.981 1.17z"/><path fill="#F80" d="m192.039 97.094 2.008 1.157V79.71l-2.008-1.156z"/><path fill="#EEDE6D" d="m188.453 80.461 2.022 1.17 1.968-1.17-1.968-1.184z"/><path fill="#F2B024" d="m190.477 100.167 1.968-1.17v-18.54l-1.968 1.17z"/><path fill="#F80" d="m188.453 99.012 2.022 1.17V81.63l-2.022-1.157z"/><path fill="#EEDE6D" d="m184.875 82.385 2.008 1.157 1.982-1.17-1.982-1.184z"/><path fill="#F2B024" d="m186.883 102.077 1.981-1.171V82.367l-1.981 1.17z"/><path fill="#F80" d="m184.875 100.935 2.008 1.157V83.54l-2.008-1.157z"/><path fill="#EEDE6D" d="m202.18 76.514 2.021 1.17 1.969-1.17-1.969-1.198z"/><path fill="#F2B024" d="m204.203 96.221 1.968-1.17V76.51l-1.968 1.171z"/><path fill="#F80" d="m202.18 95.064 2.021 1.157V77.682l-2.021-1.17z"/><path fill="#EEDE6D" d="m198.609 78.422 2.022 1.17 1.968-1.17-1.968-1.184z"/><path fill="#F2B024" d="m200.633 98.128 1.968-1.17v-18.54l-1.968 1.17z"/><path fill="#F80" d="m198.609 96.973 2.022 1.157V79.59l-2.022-1.156z"/><path fill="#EEDE6D" d="m195.031 80.35 2.009 1.157 1.981-1.17-1.981-1.185z"/><path fill="#F2B024" d="m197.039 100.042 1.982-1.17v-18.54l-1.982 1.17z"/><path fill="#F80" d="m195.031 98.9 2.009 1.157V81.505l-2.009-1.157z"/><path fill="#EEDE6D" d="m191.438 82.256 2.021 1.157 1.969-1.157-1.969-1.197z"/><path fill="#F2B024" d="m193.461 101.95 1.968-1.157v-18.54l-1.968 1.158z"/><path fill="#F80" d="m191.438 100.807 2.021 1.157V83.411l-2.021-1.157z"/><path fill="#EEDE6D" d="m187.867 84.17 2.009 1.17 1.981-1.17-1.981-1.197z"/><path fill="#F2B024" d="m189.875 103.878 1.982-1.171V84.168l-1.982 1.17z"/><path fill="#F80" d="m187.867 102.719 2.009 1.157v-18.54l-2.009-1.156z"/><path fill="#EEDE6D" d="m205.164 78.305 2.022 1.17 1.968-1.17-1.968-1.184z"/><path fill="#F2B024" d="m207.188 98.01 1.968-1.17V78.3l-1.968 1.171z"/><path fill="#F80" d="m205.164 96.856 2.022 1.17V79.473l-2.022-1.157z"/><path fill="#EEDE6D" d="m201.594 80.225 2.008 1.157 1.982-1.17-1.982-1.185z"/><path fill="#F2B024" d="m203.602 99.917 1.981-1.17v-18.54l-1.981 1.17z"/><path fill="#F80" d="m201.594 98.775 2.008 1.157V81.38l-2.008-1.157z"/><path fill="#EEDE6D" d="m198.016 82.135 2.008 1.17 1.982-1.17-1.982-1.198z"/><path fill="#F2B024" d="m200.023 101.842 1.982-1.17v-18.54l-1.982 1.171z"/><path fill="#F80" d="m198.016 100.685 2.008 1.157V83.303l-2.008-1.17z"/><path fill="#EEDE6D" d="m194.422 84.051 2.022 1.17 1.968-1.17-1.968-1.184z"/><path fill="#F2B024" d="m196.445 103.757 1.969-1.171v-18.54l-1.969 1.171z"/><path fill="#F80" d="m194.422 102.602 2.022 1.157v-18.54l-2.022-1.156z"/><path fill="#EEDE6D" d="m190.852 85.957 2.008 1.17 1.982-1.17-1.982-1.184z"/><path fill="#F2B024" d="m192.859 105.663 1.982-1.171V85.953l-1.982 1.17z"/><path fill="#F80" d="m190.852 104.521 2.008 1.157V87.126l-2.008-1.157z"/><path fill="#EEDE6D" d="m208.148 80.108 2.022 1.157 1.968-1.157-1.968-1.198z"/><path fill="#F2B024" d="m210.172 99.802 1.968-1.157v-18.54l-1.968 1.157z"/><path fill="#F80" d="m208.148 98.658 2.022 1.157V81.263l-2.022-1.157z"/><path fill="#EEDE6D" d="m204.578 82.018 2.009 1.17 1.981-1.17-1.981-1.198z"/><path fill="#F2B024" d="m206.586 101.725 1.982-1.17v-18.54l-1.982 1.171z"/><path fill="#F80" d="m204.578 100.567 2.009 1.157v-18.54l-2.009-1.157z"/><path fill="#EEDE6D" d="m201 83.926 2.008 1.17 1.969-1.17-1.969-1.184z"/><path fill="#F2B024" d="m203.008 103.631 1.968-1.17v-18.54l-1.968 1.171z"/><path fill="#F80" d="m201 102.477 2.008 1.17V85.094L201 83.938z"/><path fill="#EEDE6D" d="m197.406 85.85 2.022 1.157 1.968-1.17-1.968-1.185z"/><path fill="#F2B024" d="m199.43 105.542 1.968-1.171V85.832l-1.968 1.17z"/><path fill="#F80" d="m197.406 104.4 2.022 1.157V87.005l-2.022-1.157z"/><path fill="#EEDE6D" d="m193.836 87.76 2.008 1.17 1.982-1.17-1.982-1.198z"/><path fill="#F2B024" d="m195.844 107.467 1.981-1.17v-18.54l-1.981 1.171z"/><path fill="#F80" d="m193.836 106.31 2.008 1.157V88.928l-2.008-1.17z"/><path fill="#5AD5E4" d="m204.711 136.005 2.905 1.682 2.839-1.682-2.839-1.708z"/><path fill="#29C1CF" d="m207.617 148.085 2.839-1.681v-10.4l-2.839 1.682z"/><path fill="#1FABB8" d="m204.711 146.433 2.905 1.668v-10.413l-2.905-1.668z"/><path fill="#5AD5E4" d="m199.562 138.761 2.893 1.682 2.838-1.682-2.838-1.722z"/><path fill="#29C1CF" d="m202.453 147.345 2.839-1.682v-6.901l-2.839 1.681z"/><path fill="#1FABB8" d="m199.562 145.689 2.893 1.668v-6.915l-2.893-1.669z"/><path fill="#5AD5E4" d="m194.414 141.519 2.892 1.668 2.839-1.681-2.839-1.709z"/><path fill="#29C1CF" d="m197.305 150.101 2.838-1.682v-6.915l-2.838 1.682z"/><path fill="#1FABB8" d="m194.414 148.448 2.892 1.668v-6.928l-2.892-1.668z"/><path fill="#5AD5E4" d="m209.734 139.042 2.906 1.669 2.838-1.682-2.838-1.709z"/><path fill="#29C1CF" d="m212.641 147.624 2.838-1.681v-6.916l-2.838 1.682z"/><path fill="#1FABB8" d="m209.734 145.972 2.906 1.668v-6.929l-2.906-1.668z"/><path fill="#5AD5E4" d="m204.578 141.787 2.906 1.681 2.838-1.681-2.838-1.709z"/><path fill="#29C1CF" d="m207.484 150.382 2.839-1.682v-6.915l-2.839 1.682z"/><path fill="#1FABB8" d="m204.578 148.729 2.906 1.669v-6.929l-2.906-1.668z"/><path fill="#5AD5E4" d="m199.438 144.548 2.892 1.682 2.838-1.682-2.838-1.708z"/><path fill="#29C1CF" d="m202.328 153.144 2.839-1.682v-6.915l-2.839 1.682z"/><path fill="#1FABB8" d="m199.438 151.478 2.892 1.668v-6.915l-2.892-1.669z"/><path fill="#5AD5E4" d="m214.906 142.097 2.906 1.682 2.838-1.682-2.838-1.722z"/><path fill="#29C1CF" d="m217.812 150.681 2.839-1.682v-6.901l-2.839 1.681z"/><path fill="#1FABB8" d="m214.906 149.025 2.906 1.668v-6.915l-2.906-1.669z"/><path fill="#5AD5E4" d="m209.758 144.859 2.905 1.668 2.839-1.682-2.839-1.708z"/><path fill="#29C1CF" d="m212.664 153.441 2.839-1.682v-6.915l-2.839 1.681z"/><path fill="#1FABB8" d="m209.758 151.788 2.905 1.668v-6.928l-2.905-1.669z"/><path fill="#5AD5E4" d="m204.594 147.613 2.905 1.668 2.839-1.682-2.839-1.708z"/><path fill="#29C1CF" d="m207.5 156.194 2.839-1.681v-6.915l-2.839 1.681z"/><path fill="#1FABB8" d="m204.594 154.542 2.905 1.668v-6.928l-2.905-1.669z"/><path fill="#fff" d="m185.422 147.377 2.905 1.681 2.839-1.681-2.839-1.709z"/><path fill="#C4CAE0" d="m188.328 159.456 2.839-1.681v-10.4l-2.839 1.682z"/><path fill="#A4A3CD" d="m185.422 157.804 2.905 1.668v-10.413l-2.905-1.668z"/><path fill="#fff" d="m180.266 150.134 2.905 1.682 2.839-1.682-2.839-1.708z"/><path fill="#C4CAE0" d="m183.172 158.716 2.838-1.681v-6.902l-2.838 1.682z"/><path fill="#A4A3CD" d="m180.266 157.064 2.905 1.668v-6.915l-2.905-1.669z"/><path fill="#fff" d="m175.125 152.89 2.892 1.682 2.839-1.682-2.839-1.722z"/><path fill="#C4CAE0" d="m178.016 161.474 2.838-1.682v-6.901l-2.838 1.681z"/><path fill="#A4A3CD" d="m175.125 159.819 2.892 1.668v-6.915l-2.892-1.681z"/><path fill="#fff" d="m190.438 150.413 2.892 1.682 2.851-1.695-2.851-1.709z"/><path fill="#C4CAE0" d="m193.328 158.995 2.852-1.681v-6.916l-2.852 1.696z"/><path fill="#A4A3CD" d="m190.438 157.343 2.892 1.668v-6.915l-2.892-1.682z"/><path fill="#fff" d="m185.289 153.175 2.906 1.668 2.838-1.681-2.838-1.709z"/><path fill="#C4CAE0" d="m188.195 161.757 2.839-1.682v-6.915l-2.839 1.682z"/><path fill="#A4A3CD" d="m185.289 160.104 2.906 1.669v-6.929l-2.906-1.668z"/><path fill="#fff" d="m180.133 155.92 2.905 1.681 2.839-1.681-2.839-1.709z"/><path fill="#C4CAE0" d="m183.039 164.515 2.839-1.682v-6.915l-2.839 1.682z"/><path fill="#A4A3CD" d="m180.133 162.862 2.905 1.669v-6.929l-2.905-1.668z"/><path fill="#fff" d="m195.625 153.468 2.892 1.682 2.852-1.682-2.852-1.722z"/><path fill="#C4CAE0" d="m198.516 162.052 2.852-1.682v-6.901l-2.852 1.681z"/><path fill="#A4A3CD" d="m195.625 160.396 2.892 1.668v-6.915l-2.892-1.669z"/><path fill="#fff" d="m190.469 156.23 2.905 1.668 2.839-1.682-2.839-1.708z"/><path fill="#C4CAE0" d="m193.375 164.812 2.839-1.682v-6.915l-2.839 1.682z"/><path fill="#A4A3CD" d="m190.469 163.159 2.905 1.668v-6.928l-2.905-1.669z"/><path fill="#fff" d="m185.312 158.984 2.906 1.668 2.839-1.682-2.839-1.708z"/><path fill="#C4CAE0" d="m188.219 167.566 2.838-1.682v-6.915l-2.838 1.681z"/><path fill="#A4A3CD" d="m185.312 165.913 2.906 1.668v-6.928l-2.906-1.669z"/><path fill="#313247" d="m65.258 96.283-.399.701 6.628 3.803.398-.701z"/><path fill="#A4A3CD" d="m103.156 54.624 40.075 23.463 39.846-22.777-40.355-23.638z"/><path fill="#807EB0" d="m103.156 67.86 40.075 23.463V78.084l-40.075-23.463z"/><path fill="#13121A" d="m143.234 91.394 40.035-22.952V55.137l-40.035 22.952z"/><path fill="#313247" d="m145.609 87.263 20.955-12v-7.79l-20.955 12.014z"/><path fill="#5B5C71" d="M165.827 74.522 145.609 86.12v1.144l20.955-12v-7.79l-.737.417z"/><path fill="#5AD5E4" d="m146.938 80.926 1.151-.66V79.11l-1.151.66z"/><path fill="#EEDE6D" d="m146.938 82.605 1.151-.645v-1.17l-1.151.658z"/><path fill="#5AD5E4" d="m146.938 84.305 1.151-.66v-1.157l-1.151.66zM148.57 80.012l1.138-.66v-1.157l-1.138.646zM148.57 81.691l1.138-.659v-1.157l-1.138.66z"/><path fill="#F2B024" d="m148.57 83.373 1.138-.646V81.57l-1.138.646zM150.188 79.082l1.151-.646v-1.17l-1.151.659z"/><path fill="#5AD5E4" d="m150.188 80.777 1.151-.66v-1.156l-1.151.66zM150.188 82.46l1.151-.645v-1.17l-1.151.659z"/><path fill="#EEDE6D" d="m151.828 78.168 1.138-.66v-1.156l-1.138.659z"/><path fill="#5AD5E4" d="m151.828 79.863 1.138-.66v-1.156l-1.138.646z"/><path fill="#F2B024" d="m151.828 81.547 1.138-.66v-1.156l-1.138.659z"/><path fill="#5AD5E4" d="m153.406 77.266 1.138-.66V75.45l-1.138.646zM153.406 80.644l1.138-.659v-1.157l-1.138.646zM155.023 78.035l1.152-.66V76.22l-1.152.659z"/><path fill="#F2B024" d="m155.023 79.715 1.152-.646v-1.17l-1.152.659zM156.656 75.426l1.138-.66V73.61l-1.138.66z"/><path fill="#5AD5E4" d="m156.656 78.797 1.138-.66v-1.156l-1.138.659zM158.281 76.187l1.152-.645v-1.17l-1.152.658z"/><path fill="#13121A" d="m105.531 66.989 15.291 8.758v-7.776l-15.291-8.772z"/><path fill="#313247" d="m107.219 67.94 1.151.673v-7.79l-1.151-.659z"/><path fill="#F2B024" d="m107.219 67.94 1.151.674v-2.207l-1.151-.673z"/><path fill="#EEDE6D" d="m107.219 63.447 1.151.672v-3.296l-1.151-.659z"/><path fill="#313247" d="m109.125 69.048 1.165.659v-7.79l-1.165-.66z"/><path fill="#F2B024" d="m109.125 63.464 1.165.66v-2.207l-1.165-.66z"/><path fill="#EEDE6D" d="m109.125 69.05 1.165.66v-3.297l-1.165-.66z"/><path fill="#313247" d="m111.023 70.122 1.152.659v-7.79l-1.152-.659z"/><path fill="#F2B024" d="m111.023 70.122 1.152.66v-2.207l-1.152-.673z"/><path fill="#EEDE6D" d="m111.023 65.628 1.152.66V62.99l-1.152-.659z"/><path fill="#313247" d="m112.938 71.216 1.151.659v-7.776l-1.151-.673z"/><path fill="#F2B024" d="m112.938 65.632 1.151.673v-2.207l-1.151-.672z"/><path fill="#EEDE6D" d="m112.938 71.218 1.151.66V68.58l-1.151-.66z"/><path fill="#313247" d="m114.828 72.29 1.165.659v-7.79l-1.165-.659z"/><path fill="#F2B024" d="m114.828 72.288 1.165.66V70.74l-1.165-.659z"/><path fill="#EEDE6D" d="m114.828 67.796 1.165.66v-3.297l-1.165-.659z"/><path fill="#313247" d="m116.742 73.38 1.152.659v-7.776l-1.152-.673z"/><path fill="#F2B024" d="m116.742 67.796 1.152.673v-2.206l-1.152-.673z"/><path fill="#EEDE6D" d="m116.742 73.382 1.152.66v-3.283l-1.152-.673z"/><path fill="#313247" d="m118.625 74.458 1.165.659V67.34l-1.165-.673z"/><path fill="#F2B024" d="m118.625 74.456 1.165.66v-2.207l-1.165-.659z"/><path fill="#EEDE6D" d="m118.625 69.964 1.165.66V67.34l-1.165-.673z"/><path fill="#313247" d="m106.254 59.616-.723-.417v7.79l15.291 8.758v-1.143l-14.568-8.355z"/><path fill="#A4A3CD" d="m103.156 38.788 40.075 23.463 39.846-22.777-40.355-23.638z"/><path fill="#807EB0" d="m103.156 52.024 40.075 23.463V62.248l-40.075-23.463z"/><path fill="#13121A" d="m143.234 75.545 40.035-22.939V39.302l-40.035 22.952z"/><path fill="#313247" d="m145.609 71.427 20.955-12.014v-7.776l-20.955 12z"/><path fill="#5B5C71" d="m165.827 58.686-20.218 11.598v1.143l20.955-12.014v-7.776l-.737.417z"/><path fill="#5AD5E4" d="m146.938 65.09 1.151-.66v-1.157l-1.151.646z"/><path fill="#EEDE6D" d="m146.938 66.77 1.151-.66v-1.157l-1.151.66z"/><path fill="#5AD5E4" d="m146.938 68.469 1.151-.66v-1.157l-1.151.646zM148.57 64.16l1.138-.646v-1.17l-1.138.659zM148.57 65.855l1.138-.659V64.04l-1.138.66z"/><path fill="#F2B024" d="m148.57 67.539 1.138-.646v-1.17l-1.138.659zM150.188 63.246l1.151-.66V61.43l-1.151.659z"/><path fill="#5AD5E4" d="m150.188 64.928 1.151-.646v-1.157l-1.151.646zM150.188 66.625l1.151-.66V64.81l-1.151.659z"/><path fill="#EEDE6D" d="m151.828 62.332 1.138-.66v-1.156l-1.138.659z"/><path fill="#5AD5E4" d="m151.828 64.012 1.138-.646v-1.17l-1.138.659z"/><path fill="#F2B024" d="m151.828 65.71 1.138-.658v-1.158l-1.138.646z"/><path fill="#5AD5E4" d="m153.406 61.422 1.138-.646v-1.17l-1.138.659zM153.406 64.793l1.138-.646v-1.17l-1.138.659zM155.023 62.186l1.152-.646v-1.157l-1.152.646z"/><path fill="#F2B024" d="m155.023 63.879 1.152-.66v-1.157l-1.152.66zM156.656 59.59l1.138-.66v-1.157l-1.138.66z"/><path fill="#5AD5E4" d="m156.656 62.96 1.138-.658v-1.157l-1.138.659zM158.281 60.351l1.152-.659v-1.157l-1.152.66z"/><path fill="#13121A" d="m105.531 50.989 15.291 8.758v-7.776L105.531 43.2z"/><path fill="#313247" d="m107.219 51.958 1.151.659v-7.79l-1.151-.659z"/><path fill="#F2B024" d="m107.219 51.956 1.151.66v-2.207l-1.151-.659z"/><path fill="#EEDE6D" d="m107.219 47.464 1.151.66v-3.297l-1.151-.659z"/><path fill="#313247" d="m109.125 53.051 1.165.66v-7.777l-1.165-.672z"/><path fill="#F2B024" d="m109.125 47.468 1.165.673v-2.207l-1.165-.672z"/><path fill="#EEDE6D" d="m109.125 53.054 1.165.66V50.43l-1.165-.673z"/><path fill="#313247" d="m111.023 54.122 1.152.659v-7.776l-1.152-.673z"/><path fill="#F2B024" d="m111.023 54.12 1.152.66v-2.207l-1.152-.659z"/><path fill="#EEDE6D" d="m111.023 49.628 1.152.66v-3.283l-1.152-.673z"/><path fill="#313247" d="m112.938 55.212 1.151.659v-7.776l-1.151-.673z"/><path fill="#F2B024" d="m112.938 49.628 1.151.673v-2.206l-1.151-.673z"/><path fill="#EEDE6D" d="m112.938 55.214 1.151.66V52.59l-1.151-.673z"/><path fill="#313247" d="m114.828 56.294 1.165.659v-7.776l-1.165-.673z"/><path fill="#F2B024" d="m114.828 56.292 1.165.66v-2.207l-1.165-.66z"/><path fill="#EEDE6D" d="m114.828 51.8 1.165.66v-3.283l-1.165-.673z"/><path fill="#313247" d="m116.742 57.382 1.152.659v-7.776l-1.152-.66z"/><path fill="#F2B024" d="m116.742 51.812 1.152.66v-2.207l-1.152-.66z"/><path fill="#EEDE6D" d="m116.742 57.384 1.152.66V54.76l-1.152-.66z"/><path fill="#313247" d="m118.625 58.456 1.165.673v-7.79l-1.165-.66z"/><path fill="#F2B024" d="m118.625 58.456 1.165.673v-2.22l-1.165-.659z"/><path fill="#EEDE6D" d="m118.625 53.962 1.165.66v-3.283l-1.165-.66z"/><path fill="#313247" d="m106.254 43.616-.723-.417v7.79l15.291 8.758v-1.143l-14.568-8.342z"/><path fill="#A4A3CD" d="m103.156 22.952 40.075 23.463 39.846-22.777L142.722 0z"/><path fill="#807EB0" d="m103.156 36.188 40.075 23.463V46.412L103.156 22.95z"/><path fill="#13121A" d="m143.234 59.71 40.035-22.953V23.465l-40.035 22.952z"/><path fill="#313247" d="m145.609 55.591 20.955-12.014v-7.776l-20.955 12z"/><path fill="#5B5C71" d="m165.827 42.85-20.218 11.584v1.157l20.955-12.014v-7.776l-.737.403z"/><path fill="#13121A" d="m105.531 35.22 15.291 8.758v-7.776l-15.291-8.772z"/><path fill="#313247" d="m107.219 36.184 1.151.66v-7.79l-1.151-.66z"/><path fill="#F2B024" d="m107.219 36.183 1.151.66v-2.207l-1.151-.66z"/><path fill="#EEDE6D" d="m107.219 31.69 1.151.66v-3.296l-1.151-.66z"/><path fill="#313247" d="m109.125 37.282 1.165.66v-7.777l-1.165-.673z"/><path fill="#F2B024" d="m109.125 31.699 1.165.672v-2.206l-1.165-.673z"/><path fill="#EEDE6D" d="m109.125 37.285 1.165.659V34.66l-1.165-.673z"/><path fill="#313247" d="m111.023 38.352 1.152.66v-7.777l-1.152-.672z"/><path fill="#F2B024" d="m111.023 38.35 1.152.66v-2.206l-1.152-.66z"/><path fill="#EEDE6D" d="m111.023 33.859 1.152.659v-3.283l-1.152-.672z"/><path fill="#313247" d="m112.938 39.442 1.151.66v-7.777l-1.151-.673z"/><path fill="#F2B024" d="m112.938 33.859 1.151.672v-2.206l-1.151-.673z"/><path fill="#EEDE6D" d="m112.938 39.445 1.151.659V36.82l-1.151-.673z"/><path fill="#313247" d="m114.828 40.524 1.165.66v-7.777l-1.165-.673z"/><path fill="#F2B024" d="m114.828 40.523 1.165.659v-2.206l-1.165-.66z"/><path fill="#EEDE6D" d="m114.828 36.03 1.165.66v-3.283l-1.165-.673z"/><path fill="#313247" d="m116.742 41.614 1.152.673v-7.79l-1.152-.673z"/><path fill="#F2B024" d="m116.742 36.044 1.152.66v-2.207l-1.152-.673z"/><path fill="#EEDE6D" d="m116.742 41.617 1.152.672v-3.296l-1.152-.673z"/><path fill="#313247" d="m118.625 42.683 1.165.659v-7.776l-1.165-.66z"/><path fill="#F2B024" d="m118.625 42.683 1.165.66v-2.207l-1.165-.66z"/><path fill="#EEDE6D" d="m118.625 38.189 1.165.673v-3.297l-1.165-.659z"/><path fill="#313247" d="m106.254 27.847-.723-.417v7.79l15.291 8.758v-1.144l-14.568-8.341z"/><path fill="#5AD5E4" d="m146.938 49.234 1.151-.646v-1.17l-1.151.66z"/><path fill="#EEDE6D" d="m146.938 50.93 1.151-.66v-1.157l-1.151.66z"/><path fill="#5AD5E4" d="m146.938 52.613 1.151-.646v-1.17l-1.151.66zM148.57 48.32l1.138-.66v-1.156l-1.138.66zM148.57 50.016l1.138-.66V48.2l-1.138.646z"/><path fill="#F2B024" d="m148.57 51.7 1.138-.66v-1.157l-1.138.66zM150.188 47.406l1.151-.66V45.59l-1.151.66z"/><path fill="#5AD5E4" d="m150.188 49.086 1.151-.646v-1.17l-1.151.659zM150.188 50.785l1.151-.66V48.97l-1.151.659z"/><path fill="#EEDE6D" d="m151.828 46.492 1.138-.66v-1.156l-1.138.646z"/><path fill="#5AD5E4" d="m151.828 48.172 1.138-.66v-1.157l-1.138.66z"/><path fill="#F2B024" d="m151.828 49.858 1.138-.646v-1.157l-1.138.645z"/><path fill="#5AD5E4" d="m153.406 45.586 1.138-.66V43.77l-1.138.66zM153.406 48.957l1.138-.66v-1.156l-1.138.659zM155.023 46.351l1.152-.645v-1.17l-1.152.658z"/><path fill="#F2B024" d="m155.023 48.043 1.152-.66v-1.156l-1.152.659zM156.656 43.754l1.138-.66v-1.157l-1.138.646z"/><path fill="#5AD5E4" d="m156.656 47.111 1.138-.645v-1.157l-1.138.645zM158.281 44.516l1.152-.66V42.7l-1.152.646z"/><path fill="#5B5C71" d="m112.547 20.028 30.675 17.96 30.501-17.436L142.82 2.457z"/><path fill="#312F3A" d="m112.547 22.772 30.675 17.974v-2.758l-30.675-17.96z"/><path fill="#13121A" d="m143.219 40.787 30.648-17.57v-2.799l-30.648 17.57z"/><mask id="a" width="62" height="36" x="112" y="2" maskUnits="userSpaceOnUse" style="mask-type:luminance"><path fill="#fff" d="m143.222 37.984-30.675-17.96 30.273-17.57 30.903 18.094z"/></mask><g fill="#DCDCE6" mask="url(#a)"><path d="M114.838-4.601c.134-.175-.054-.471-.496-.727-.495-.282-1.111-.39-1.379-.242s-.08.498.402.78c.428.256.964.364 1.259.296l3.159 1.83 1.246 2.395-13.001 7.251L96.374 1.4 95.155-.928l9.386-5.234-23.27-13.454-.697-1.345-.308.08.67 1.292 23.07 13.333L94.74-1.09l1.139 2.193-4.058-2.34-1.352-2.288 7.043-3.928-1.018-2.597-17.366-10.036-.227-.431-.308.08.2.378 17.34 10.022.95 2.422-1.191.66-.469-.902c.04-.054-.027-.148-.16-.229-.161-.094-.362-.12-.442-.08-.08.053-.027.161.134.255.04.027.08.04.12.054l.55 1.05-2.063 1.156-.428-.82h.026c.08-.054.027-.162-.133-.256-.161-.094-.362-.134-.442-.08-.094.053-.027.16.134.255.013 0 .026.013.026.013l.536 1.036-2.049 1.144-.415-.794s.014 0 .014-.013c.093-.054.026-.162-.134-.256s-.362-.134-.456-.08c-.08.053-.026.16.134.255.014 0 .027.013.027.013l.536 1.023-.924.511 1.272 2.14-3.575-2.06-1.205-2.3 6.253-3.484-.75-1.44-13.202-7.628c.147-.175-.053-.47-.482-.726-.495-.283-1.111-.39-1.38-.243-.267.148-.08.498.416.78.428.243.95.364 1.259.297l9.493 5.489-2.812-.956-3.227-1.87c.134-.174-.053-.47-.482-.726-.495-.283-1.111-.39-1.38-.242-.267.148-.08.498.416.78.428.242.95.363 1.259.283l3.32 1.91 3.736 1.265 2.129 1.224-6.548-2.099-2.584-1.493q-.02-.081-.16-.162c-.161-.094-.362-.134-.442-.08-.08.053-.027.161.134.255.093.054.2.081.28.095l2.679 1.547 7.297 2.34.642 1.225-6.252 3.484 1.138 2.18-2.357-1.359L83.48-7.6l4.808-2.678-3.589-2.072c.134-.174-.053-.47-.482-.713-.495-.282-1.111-.39-1.379-.242-.267.148-.08.498.415.78.429.243.964.364 1.259.297l3.227 1.87-4.7 2.623 1.326 2.18-9.092-5.26 1.647.295.482.283c-.147.175.054.47.496.726.495.283 1.11.39 1.365.242.268-.148.08-.497-.415-.78-.428-.256-.95-.363-1.258-.296l-.63-.363-2.196-.39-3.842-2.22 1.888.43.361.202c-.134.175.054.471.482.727.496.282 1.111.39 1.38.242.267-.148.08-.498-.416-.78-.428-.243-.964-.364-1.258-.296l-.482-.283-2.518-.579-1.151-.672-1.312-2.516-1.018-.592-.268.067.938.538 1.312 2.516 37.369 21.593 13.269-7.4-1.339-2.582zm-.656-.377q-.02-.081-.161-.161c-.161-.095-.362-.135-.442-.081-.094.054-.027.161.134.256.094.053.201.08.281.094l.281.161c-.187.014-.468-.054-.696-.188-.294-.175-.402-.377-.241-.471s.536-.027.83.148c.228.134.348.296.308.403zM77.963-18.97l-.187.108.496.282c-.188.014-.456-.053-.683-.188-.295-.175-.402-.377-.255-.47.16-.095.522-.028.83.147.241.135.349.296.308.404zm3.468 2.893q-.02-.081-.16-.162c-.161-.094-.362-.134-.442-.08-.094.053-.027.161.134.255.094.054.2.08.28.094l.282.162c-.187.013-.469-.054-.696-.188-.295-.175-.402-.377-.241-.471.16-.095.535-.027.83.148.228.134.348.296.308.39zm2.598 3.363q-.02-.08-.16-.161c-.161-.094-.362-.135-.443-.081-.08.054-.026.162.134.256.094.053.188.08.281.094l.282.161c-.188.014-.469-.054-.697-.188-.294-.175-.401-.377-.24-.471.16-.094.522-.027.83.148.227.135.348.296.307.39zm-5.985 2.839q.02.081.16.161c.161.095.362.135.442.081s.027-.161-.133-.256a.8.8 0 0 0-.282-.094l-.28-.161c.187-.014.468.054.695.188.295.175.402.377.241.471-.16.094-.535.027-.83-.148-.227-.134-.348-.296-.308-.404zm-4.245-2.449q.02.081.161.162c.16.094.362.134.442.08.08-.053.027-.16-.134-.255a.8.8 0 0 0-.281-.094l-.281-.162c.187-.013.468.054.696.189.294.175.402.376.241.47-.16.095-.522.027-.83-.148-.228-.134-.348-.295-.308-.403zM164.031-2.49l-16.87-9.753q-.02-.081-.161-.162c-.161-.094-.361-.121-.442-.08-.08.053-.027.16.134.255a.9.9 0 0 0 .281.094l16.951 9.794 3.629 1.225 2.637 1.52-16.08 8.974-2.196-.39-16.295 9.094.656 1.251-7.645 4.265-6.708-1.197 4.566 8.758h-.027c-.094.054-.027.162.134.256.16.094.361.12.442.08.093-.053.026-.161-.134-.255-.014 0-.027-.014-.04-.014l-4.459-8.543 6.494 1.157 7.806-4.345-.656-1.251 16.147-9.001 2.196.39L170.753.511l-3.08-1.776zM137.643 27.057l3.963-2.206c.455.215.951.283 1.178.148.268-.148.081-.498-.415-.78-.495-.283-1.111-.39-1.379-.242-.228.134-.12.417.241.672l-4.043 2.26 3.976 7.629 14.287 8.328.2-.108-14.139-8.247zm3.722-2.879c.161-.094.536-.027.83.148.295.175.402.377.241.471-.12.067-.375.04-.629-.054l.147-.08c.094.027.188.027.228 0 .053-.027.04-.081.013-.135l.04-.013-.361-.202-.04.013c-.094-.027-.188-.027-.228 0-.054.027-.04.081-.013.135l-.148.08c-.16-.147-.201-.295-.08-.363"/><path d="m185.567.257.08-3.215 2.625-1.467-.201-.296-2.839 1.588-.04 1.628-2.115-.417-3.16 1.762.535 2.946-6.949 3.875.536 2.946-2.946 1.642c-.094-.027-.187-.027-.228 0 0 0 0 .013-.013.013l-3.695-.66 2.878-1.614-.535-2.946 7.016-3.915.709-.39-.535-2.946 9.988-5.57-.201-.296-10.216 5.69.536 2.947-.643.363-1.071-.619.777-.43-21.664-12.512q-.02-.081-.161-.162c-.161-.094-.361-.134-.442-.08-.094.054-.027.161.134.255.094.054.201.081.281.095L175.311.782l-.576.323-23.217-13.414c.134-.175-.054-.47-.496-.726-.495-.283-1.111-.39-1.379-.242-.267.148-.08.497.415.78.429.256.964.363 1.259.296l23.217 13.413-16.897 9.418-.442 1.022-1.071-.188-.509.282c-.054-.161-.228-.336-.509-.497-.495-.283-1.111-.39-1.379-.242s-.08.497.415.78a2.5 2.5 0 0 0 .857.296l-.535.296c-.054-.148-.228-.336-.509-.484-.496-.283-1.112-.39-1.379-.243-.268.148-.081.498.415.78.268.162.589.256.857.297l-.536.296c-.054-.148-.228-.337-.509-.485-.495-.282-1.111-.39-1.379-.242s-.08.498.415.78c.281.162.589.256.857.296l-.535.31c-.054-.162-.228-.336-.509-.498-.496-.283-1.112-.39-1.379-.242-.268.148-.081.498.415.78.268.162.589.256.857.296l-.536.296c-.053-.148-.228-.336-.509-.484-.495-.283-1.111-.39-1.379-.242s-.08.497.415.78c.281.161.589.256.857.296l-.535.31c-.054-.149-.228-.337-.509-.498-.496-.283-1.111-.39-1.379-.243s-.081.498.415.78c.281.162.589.256.857.297l-5.182 2.892c-.054-.148-.228-.336-.509-.484-.495-.283-1.111-.39-1.365-.242-.268.148-.081.497.415.78.267.162.589.256.857.296l-.536.296c-.054-.148-.228-.336-.509-.484-.495-.283-1.111-.39-1.379-.242s-.08.497.415.78a2.5 2.5 0 0 0 .857.296l-.536.296c-.053-.148-.227-.336-.508-.484-.496-.283-1.112-.39-1.379-.243-.268.148-.081.498.415.78.281.162.589.256.857.297l-1.192.672-.08.04-7.726 4.306.616 1.197-6.601-1.184 4.258 8.167-2.009-.364.121.23 2.008.362.268.512.388.067-.268-.511 5.222.941 17.058 9.862.188-.108-17.206-9.942-5.382-.969-4.137-7.937 6.212 1.116 3.897 7.467 17.205 9.942.187-.107-17.058-9.862-3.883-7.44 1.272-.713 2.411 4.615h-.027c-.094.054-.027.161.134.256.16.094.361.12.441.08.094-.053.027-.161-.133-.255-.014 0-.027-.014-.041-.014l-2.517-4.843 5.503-3.067c.455.215.951.282 1.192.147.268-.148.08-.497-.415-.78l-.322-.161-.401-.767 2.089.377 14.714-8.207.442-1.036 1.071.188 3.013-1.681c.094.026.187.026.228 0 .053-.027.053-.081.013-.135l2.075-1.157c.094.027.188.027.228 0 .054-.027.04-.08.013-.135l4.968-2.771.468 2.57-11.541 6.43-2.973.04-8.555 4.777 1.312 2.516-9.266 5.166 3.321 6.363 2.972 1.723 3.629 1.224 8.475 4.95.201-.107-8.515-4.978-.041-.027-3.628-1.224-2.745-1.587-3.227-6.19 9.266-5.165-1.313-2.516 8.436-4.709 2.972-.04 2.303-1.278 3.374.605c.094.108.228.229.415.323.496.282 1.112.39 1.379.242.268-.148.081-.498-.415-.78-.495-.283-1.111-.39-1.379-.242-.107.053-.134.134-.12.228l-2.986-.538 2.812-1.574 3.374.606c.094.107.227.228.415.336.495.282 1.111.39 1.366.242.267-.148.08-.498-.415-.78-.496-.283-1.112-.39-1.38-.242-.093.053-.134.134-.12.228l-2.973-.538 2.812-1.574 4.084.726c.013 0 .013.014.027.014.16.094.361.134.442.08.053-.026.053-.08.013-.134l1.326-.74 1.807 1.05c-.134.175.054.47.482.726.496.283 1.111.39 1.379.242s.081-.498-.415-.78c-.428-.256-.95-.363-1.258-.283l-1.808-1.049 1.486-.82-.535-2.947.709-.39 3.361.605c.094.108.228.229.415.337.495.282 1.111.39 1.379.242s.08-.498-.415-.78-1.111-.39-1.379-.243c-.094.054-.134.135-.121.229l-2.985-.538 2.811-1.574 3.361.605c.094.108.228.229.415.336.496.283 1.112.39 1.379.243.268-.148.081-.498-.415-.78-.495-.283-1.111-.39-1.379-.243-.094.054-.134.135-.12.229l-2.986-.538 2.892-1.615-.536-2.946 3.013-1.682 1.834.363-.04 1.548 10.055 5.812-.227-.35zm-34.665-12.97q-.02-.08-.161-.16c-.16-.095-.361-.135-.455-.082-.08.054-.027.162.134.256.094.054.201.08.281.094l.281.162c-.187.013-.468-.054-.696-.189-.295-.175-.402-.376-.241-.47.161-.095.536-.027.817.148.227.134.348.296.308.403zm-10.966 34.846-5.597 3.121-1.272.713-.495-.942 7.458-4.157.294.565c-.254-.054-.495-.04-.629.027-.241.121-.12.417.241.673m.937 0c.054-.027.041-.081.014-.135l.04-.013.04-.027-.08-.148c.281.161.388.377.241.47-.121.068-.389.041-.63-.053l.148-.08c.093.013.187.013.227-.014m-.428-.485.08.162c-.093-.027-.174-.027-.227 0s-.054.08-.014.134l-.147.081c-.161-.134-.214-.282-.08-.35.08-.067.227-.067.388-.027m13.952-9.969c-.295-.175-.402-.377-.241-.47.16-.095.535-.028.83.147s.401.377.241.471c-.174.08-.549.014-.83-.148m-1.165.646c-.295-.175-.402-.377-.241-.47.16-.095.522-.028.83.147.294.175.402.377.241.471-.161.08-.536.027-.83-.148m-1.165.646c-.295-.175-.402-.377-.241-.471s.535-.027.83.148.402.377.241.47c-.161.082-.536.028-.83-.147m-1.152.646c-.294-.175-.415-.377-.241-.471.161-.095.523-.027.83.148.295.175.402.376.241.47-.16.081-.535.027-.83-.147m-1.165.645c-.294-.175-.401-.376-.241-.47.161-.095.536-.027.831.147.294.175.401.377.241.471-.161.095-.536.027-.831-.148m-1.151.646c-.295-.175-.402-.39-.241-.47.161-.095.522-.028.83.147.295.175.402.377.241.471s-.535.027-.83-.148m-5.798 3.229c-.294-.175-.401-.377-.241-.47.161-.095.536-.028.817.147.295.175.402.377.241.471-.147.094-.522.027-.817-.148m-1.164.646c-.295-.175-.402-.377-.241-.471.16-.094.535-.027.83.148s.401.377.241.47c-.161.095-.522.028-.83-.147m-1.152.645c-.294-.174-.402-.376-.241-.47.161-.095.536-.027.83.148.295.174.402.376.241.47-.16.095-.535.027-.83-.148m16.281-6.686-14.621 8.153-1.647-.296 15.947-8.893.71.121zm1.607-.888-.709-.121.388-.901 1.486-.834 1.647.296zm3.173-1.776c-.093-.027-.174-.027-.227 0 0 0 0 .014-.014.014l-1.486-.27 2.049-1.143 1.647.296zm7.579-4.224-5.262 2.933c-.094-.027-.188-.027-.228 0 0 0 0 .013-.013.013l-1.486-.269 12.8-7.144 1.071.619zm-4.66 8.677c.161-.094.536-.027.831.148s.401.377.241.471-.536.027-.817-.148c-.308-.161-.429-.376-.255-.47m3.08-1.722c.161-.094.535-.027.83.148s.402.377.241.471-.536.027-.83-.148c-.08-.054-.147-.094-.201-.148l.308.054c.013 0 .013.014.027.014.16.094.361.134.442.08.08-.054.026-.161-.134-.255-.161-.095-.362-.135-.442-.081 0 0 0 .013-.013.013l-.308-.054a.25.25 0 0 1 .08-.094m7.712-.7q.02.082.161.162c.161.094.361.121.442.08.08-.053.026-.16-.134-.255a.9.9 0 0 0-.281-.094l-.282-.161c.188-.027.469.054.697.175.294.175.401.376.241.47-.161.095-.522.027-.817-.148-.228-.134-.348-.295-.308-.403zm3.106-5.327c.161-.094.536-.027.831.148s.401.377.241.47c-.161.095-.536.028-.83-.147-.295-.175-.402-.377-.242-.47m3.093-1.722c.161-.094.536-.027.831.148s.401.377.241.47c-.161.095-.523.028-.817-.147-.308-.175-.415-.377-.255-.471"/><path d="M168.74-.214c-.495-.282-1.111-.39-1.379-.242-.147.08-.147.242-.027.404l-2.196.027-11.568 6.444-1.888-.336c-.013 0-.013-.014-.027-.014-.16-.094-.361-.12-.442-.08-.053.026-.04.08-.013.134l-1.714.955c-.455-.215-.951-.282-1.192-.148-.267.148-.08.498.416.78.187.108.374.189.575.243l.348.672-4.365 2.436-.455-.875c.148 0 .281-.013.375-.067.268-.148.081-.498-.415-.78-.495-.283-1.111-.39-1.366-.243-.267.148-.08.498.415.78.188.108.416.203.616.256l.563 1.077-2.049 1.143-.455-.874a.67.67 0 0 0 .388-.068c.268-.148.081-.497-.415-.78-.495-.282-1.111-.39-1.379-.242s-.08.498.415.78c.188.108.402.189.589.242l.576 1.09-.696.39-1.928-.35-.964-1.843c.147 0 .281-.013.361-.067.268-.148.08-.498-.415-.78s-1.111-.39-1.379-.242-.08.497.415.78c.201.107.415.202.629.255l.951 1.83-2.089-.377-7.029 3.916.629 1.197-3.267-.592a1.7 1.7 0 0 0-.402-.323c-.495-.282-1.111-.39-1.379-.242-.267.148-.08.498.415.78.496.283 1.112.39 1.38.242.107-.053.133-.148.12-.242l3.267.592.576 1.103-3.776 2.113-6.601-1.184-1.486.834-5.704-3.296-.777.43-1.071-.619 2.317-1.291-1.781-1.036-3.093 1.722-1.071-.619 2.316-1.291-1.781-1.036-1.539.86-1.072-.618.777-.43-10.243-5.92-4.392-.794-5.462-3.148.977-.552c.455.215.95.283 1.178.148.268-.148.08-.498-.401-.78-.496-.283-1.112-.39-1.38-.242-.227.134-.12.417.242.672l-.978.538-2.504-1.44.201-.107c.455.215.95.283 1.192.148.268-.148.08-.498-.415-.78-.496-.283-1.112-.39-1.38-.242-.227.134-.12.417.242.672l-.201.108-2.517-1.453L79.7-3.913 74.747-6.78c.147-.175-.04-.47-.482-.726-.496-.283-1.111-.39-1.38-.243-.267.148-.08.498.416.78.428.243.937.364 1.245.297l4.807 2.785 1.82 3.498-.99-.579-1.339-2.53-9.948-5.744-.375-.713a.75.75 0 0 0 .415-.067c.268-.148.08-.498-.415-.78-.496-.283-1.112-.39-1.38-.243s-.08.498.416.78c.187.108.388.189.576.243l.267.497-2.343-1.345-1.432-2.583-4.044-2.341-.268.067 2.37 1.373-1.74-.31-1.46-.848-.268.068 1.674.968 2.29.404 1.097.632.603 1.077-1.955-.323-3.91-2.26q-.02-.081-.16-.162c-.16-.094-.362-.134-.442-.08-.08.053-.027.16.134.255.093.054.187.08.281.094l4.07 2.355 2.116.363.71 1.278 12.786 7.386 1.165 2.206-11.193-6.47-1.406.78-.429-.821h.027c.08-.054.027-.162-.134-.256-.16-.094-.361-.134-.442-.08-.093.053-.026.161.134.255.014 0 .027.014.04.014l.55 1.049-1.273.713-1.097-2.112h.026c.08-.054.027-.162-.134-.256-.16-.094-.361-.12-.442-.08-.093.053-.026.16.134.255.014 0 .027.014.04.014l1.219 2.327-1.272.713-1.111-2.112h.026c.094-.054.027-.162-.133-.256-.161-.094-.362-.12-.442-.08-.094.053-.027.16.134.255.013 0 .026.014.026.014l1.232 2.34-.348.189.362.202 4.927-2.745L92.863 6.567l4.405.794 9.747 5.624-.776.43 1.78 1.036 1.54-.861 1.071.619-2.316 1.291 1.781 1.036 3.093-1.722 1.071.619-2.317 1.292 1.781 1.035.777-.43 5.356 3.094-1.487.835 2.009 3.713-4.205-.754-4.137-2.395-1.004-1.923a.77.77 0 0 0 .415-.068c.268-.148.08-.497-.415-.78-.495-.282-1.111-.39-1.366-.242-.268.148-.08.498.415.78.174.108.375.189.576.242l.884 1.695-3.776-2.179-.348-.673c.174.014.308 0 .415-.067.268-.148.08-.498-.402-.78-.495-.283-1.111-.39-1.379-.242s-.08.497.415.78c.188.108.375.188.576.242l.228.444-8.06-4.655-1.313-2.516-12.05-6.969c.134-.175-.054-.47-.482-.726-.496-.283-1.112-.39-1.38-.242s-.08.497.416.78c.428.256.964.363 1.258.282l11.903 6.875 1.313 2.516 17.272 9.983 4.378.78 2.383 4.413.389.067-4.472-8.247 3.012-1.682 6.601 1.184 3.937-2.193-1.313-2.516 6.869-3.834 4.405.794 7.806-4.36-.388-.752c.174.013.321 0 .415-.068.228-.134.121-.417-.241-.672l1.727-.956c.094.027.188.027.228 0 .013 0 .013-.013.013-.013l2.035.363L165.54.217l2.115-.027c.067.054.134.094.215.135.495.282 1.111.39 1.365.242.174-.148-.013-.498-.495-.78M143.997 9.77c-.295-.175-.402-.377-.241-.47.16-.095.535-.028.83.147s.401.377.241.471-.536.027-.83-.148m-2.303 1.292c-.295-.175-.402-.377-.241-.471.16-.094.535-.027.83.148s.401.376.241.47c-.174.095-.536.027-.83-.147m-2.839-.78c.067-.055.013-.149-.147-.243-.161-.094-.362-.134-.442-.08-.094.053-.027.16.134.255.027.014.067.027.093.04l.081.162c-.107-.027-.214-.08-.322-.135-.294-.175-.401-.39-.241-.47.161-.095.536-.027.831.147.294.175.401.377.241.471-.041.014-.081.027-.134.04zm-11.314 6.605c-.161.094-.536.027-.83-.148-.295-.175-.402-.377-.241-.47.161-.095.522-.028.83.147.08.04.134.094.187.135l-.535-.095.12.23.536.093c0 .04-.027.081-.067.108M88.11 1.993c.16-.094.522-.027.816.148.295.175.402.376.241.47-.12.068-.375.041-.63-.053l.148-.08c.094.026.174.026.228 0 .08-.055.027-.162-.134-.256-.16-.095-.362-.135-.455-.081-.054.027-.04.08 0 .134l-.148.081c-.147-.148-.187-.296-.067-.363M74.077-7.142c-.013-.054-.067-.121-.16-.175-.16-.094-.362-.135-.442-.08-.08.053-.027.16.134.255a.64.64 0 0 0 .268.094l.28.161c-.187.014-.454-.053-.682-.188-.295-.175-.402-.377-.241-.47.16-.095.535-.028.83.147.241.135.348.296.308.404zm-5.784-3.23h.027c.08-.053.027-.16-.134-.255-.16-.094-.361-.134-.442-.08-.094.053-.026.161.134.255.014 0 .027.014.027.014l.094.175a1 1 0 0 1-.255-.122c-.294-.175-.401-.39-.24-.47.16-.095.535-.027.83.148.294.174.401.376.24.47a.33.33 0 0 1-.174.04zM84.481.769c.16-.094.535-.026.817.149.294.174.401.376.254.47-.12.068-.388.04-.63-.053l.148-.081c.094.027.188.027.228 0 .08-.054.026-.162-.134-.256s-.362-.134-.442-.08c-.054.026-.054.08-.013.134l-.148.08c-.16-.147-.2-.295-.08-.362m26.27 18.715h.027c.08-.054.026-.162-.134-.256-.161-.094-.362-.135-.442-.08-.094.053-.027.16.134.255.013 0 .027.013.04.013l.094.175a.9.9 0 0 1-.255-.12c-.294-.176-.415-.377-.254-.472s.535-.027.83.148.402.377.241.471a.33.33 0 0 1-.174.04zm-25.64-14.96c-.014-.055-.081-.109-.161-.162-.161-.095-.362-.121-.442-.081-.08.054-.027.161.134.256.093.053.2.08.28.094l.282.161c-.187.014-.469-.054-.696-.188-.295-.175-.402-.377-.241-.471.16-.094.535-.027.83.148.228.134.348.296.308.404zm22.011 13.735h.027c.08-.053.027-.161-.134-.255-.16-.095-.361-.135-.442-.081-.093.054-.026.161.134.256.014 0 .027.013.04.013l.094.175a.9.9 0 0 1-.254-.121c-.295-.175-.402-.377-.241-.471.16-.094.522-.027.83.148.294.175.402.39.241.47a.33.33 0 0 1-.174.041zM149.125 7.28c-.094-.027-.188-.027-.228 0-.094.054-.027.162.134.256.013 0 .027.013.04.013l.094.175a1 1 0 0 1-.255-.121c-.294-.175-.401-.377-.241-.47.121-.068.375-.041.63.053zm.589.484a.33.33 0 0 1-.174.04l-.094-.174h.027c.053-.027.04-.08.013-.135l.147-.08c.161.134.201.282.081.35m19.066-7.4c-.161.082-.535.028-.83-.147s-.402-.377-.254-.47c.16-.095.535-.028.83.147.308.175.415.39.254.47M148.9 35.25l-5.718-3.297-1.914-3.672 10.818-6.028-1.312-2.515 4.124-2.301c.455.215.951.282 1.178.148.268-.148.081-.498-.415-.78-.495-.283-1.111-.39-1.379-.242-.227.134-.12.417.241.672l-4.204 2.341 1.312 2.516-10.819 6.027 2.009 3.861 5.704 3.296.656 1.252 8.636 4.991.187-.108-8.488-4.91zm5.757-18.486c.161-.094.522-.027.83.148.295.175.402.377.241.471-.134.067-.388.04-.629-.054l.147-.08c.094.027.188.027.228 0 .08-.054.027-.162-.134-.256s-.362-.135-.442-.08c-.053.026-.053.08-.013.134l-.148.08c-.16-.147-.2-.296-.08-.363"/><path d="m154.586 23.695-1.674.942 2.852 1.655-.576.323-1.433-.82-.964.537 2.852 1.655-.575.323-4.285-2.476-.964.539 2.852 1.654-.576.323-1.433-.82-1.74.968 4.579 2.637 2.972-.04 1.246.713 1.004 1.924a.77.77 0 0 0-.415.067c-.268.148-.081.498.415.78.495.283 1.111.39 1.379.242s.08-.497-.415-.78a2.6 2.6 0 0 0-.576-.242l-.884-1.695 3.629 2.099q.02.08.161.161c.16.094.361.121.441.08.094-.053.027-.16-.133-.255a.9.9 0 0 0-.282-.094l-5.596-3.229-2.973.04-3.99-2.3 1.353-.754 1.432.821.964-.538-2.852-1.655.576-.323 4.285 2.476.964-.538-2.852-1.655.575-.323 1.433.82.964-.538-2.852-1.654 1.406-.78 4.245.766 14.206 8.207.187-.108-14.353-8.3zm4.338 10.427h-.027c-.08.054-.027.161.134.255.16.095.361.122.442.081.093-.054.026-.161-.134-.255-.014 0-.027-.014-.027-.014l-.094-.175a.9.9 0 0 1 .255.121c.294.175.401.377.241.471s-.536.027-.83-.148c-.295-.175-.402-.376-.241-.47a.33.33 0 0 1 .174-.041zM163.69 23.629l-7.096-4.09-.188.094 7.177 4.157 3.628 1.225 9.949 5.744.187-.107-10.028-5.799z"/><path d="m156.409 27.544 1.433.82-4.178 2.328 3.575-.04 6.802 3.928q.02.081.16.162c.161.094.362.134.442.08.081-.053.027-.16-.134-.255a.9.9 0 0 0-.281-.094l-3.628-2.099.776.134c.094.108.228.23.415.323.496.283 1.112.39 1.379.243.268-.148.081-.498-.415-.78-.495-.283-1.111-.39-1.379-.243-.107.054-.134.135-.12.229l-1.165-.215-2.892-1.669-2.37.027 3.548-1.977-1.433-.821 2.893-1.615 12.666 7.32.201-.108-13.028-7.535zm5.329 4.722c.16-.094.535-.027.83.148s.402.377.241.471-.536.027-.83-.148c-.081-.054-.147-.094-.201-.148l.308.054.027.027c.16.094.361.134.442.08.093-.053.026-.16-.134-.255-.161-.094-.362-.121-.442-.08-.014 0-.014.013-.014.013l-.308-.054c.027-.054.041-.08.081-.108M166.491-.915l-.027.027-2.771.04-3.843 2.14-4.244-.767-4.392-2.53-7.779 4.333-2.035-.364-5.704-3.296-4.566-.82-19.388 10.816 1.353 2.597 12.706 7.346q.02.08.161.161c.16.094.361.121.442.08.093-.053.026-.16-.134-.255a.9.9 0 0 0-.282-.094l-2.557-1.48-.348-.672a.75.75 0 0 0 .415-.068c.268-.148.08-.498-.415-.78s-1.111-.39-1.379-.242-.08.498.402.78c.187.108.388.188.575.242l.228.444-3.776-2.18-.348-.659a.8.8 0 0 0 .415-.067c.268-.148.08-.498-.415-.78s-1.111-.39-1.366-.242c-.268.148-.08.498.402.78.187.108.375.188.576.242l.227.444-2.356-1.359-1.259-2.421 3.013-1.682 6.601 1.184 10.818-6.027 2.036.363 6.908 3.996c-.134.175.054.47.482.726.496.283 1.112.39 1.379.242.268-.148.081-.498-.401-.78-.429-.256-.964-.363-1.259-.296L137.53 4.13l-2.356-.417-10.819 6.028-6.601-1.184-3.173 1.762 1.191 2.287-2.343-1.358-1.258-2.422 19.227-10.723 4.244.754 5.717 3.296 2.357.417 7.672-4.278 4.177 2.421 4.566.821 3.883-2.166 2.638-.027c.16.08.348.121.428.067.094-.054.027-.161-.134-.255-.16-.081-.361-.108-.455-.068m-43.689 16.737-.389-.067.161.309a.9.9 0 0 1-.254-.121c-.295-.175-.402-.377-.241-.471.16-.094.535-.027.83.148s.415.377.241.47a.33.33 0 0 1-.174.041zm-4.285-2.476-.388-.067.161.31c-.094-.027-.174-.068-.255-.108-.294-.175-.402-.377-.241-.471s.536-.027.83.148c.295.175.402.377.241.47a.33.33 0 0 1-.174.041zm26.324-4.897c.16-.094.522-.027.83.148.294.175.401.39.241.471-.161.094-.536.027-.83-.148-.295-.161-.402-.377-.241-.47M177.124 24.383l-12.747-7.36.629-.35 5.57.997c.094.107.228.228.415.322.496.283 1.112.39 1.379.243.268-.148.081-.498-.415-.78-.495-.283-1.111-.39-1.379-.243-.107.054-.134.135-.12.229l-5.731-1.023-.91.512 6.882 3.982-2.973-.538a1.3 1.3 0 0 0-.415-.323c-.495-.283-1.111-.39-1.379-.242s-.08.497.402.78c.495.283 1.111.39 1.379.242.094-.054.134-.134.12-.229l3.375.606 3.775 2.18-2.972-.539a1.6 1.6 0 0 0-.415-.336c-.496-.283-1.111-.39-1.379-.242s-.081.497.415.78c.495.283 1.111.39 1.379.242.094-.054.134-.134.12-.229l3.375.606 1.285.74 1.258 2.421-2.945 1.642-8.208-4.75.549-.309c.094.027.188.027.241 0 .08-.054.027-.161-.134-.255-.16-.095-.361-.135-.455-.081-.054.027-.04.08 0 .134l-.562.31-2.491-1.44.549-.31c.094.028.188.028.228 0 .08-.053.027-.16-.134-.255-.161-.094-.362-.134-.455-.08-.054.026-.04.08 0 .134l-.563.31-2.49-1.44.549-.31c.094.027.187.027.228 0 .08-.053.026-.16-.134-.255-.161-.094-.362-.135-.456-.08-.053.026-.04.08-.013.134l-.562.31-1.808-1.037c.121-.148-.013-.39-.321-.619l4.9-2.73 4.071.726c.013 0 .013.013.026.013.161.094.362.135.456.08.08-.053.026-.16-.134-.255-.161-.094-.362-.134-.456-.08-.013 0-.013.013-.013.013l-4.231-.753-4.981 2.771c-.455-.215-.95-.282-1.191-.148-.268.148-.081.498.415.78.428.243.95.364 1.258.283l19.107 11.045.201-.107-2.678-1.547 3.039-1.695zm-6.173-6.97c.161-.093.536-.026.83.149.295.175.402.377.241.47-.16.095-.522.028-.816-.147-.308-.175-.416-.39-.255-.471m-3.561 3.203c-.161.094-.536.027-.831-.148s-.401-.377-.241-.471.536-.027.831.148c.08.054.147.094.2.148l-.308-.054-.026-.027c-.161-.094-.362-.12-.442-.08-.094.053-.027.161.134.255.16.094.361.135.442.08 0 0 0-.013.013-.013l.308.054c-.027.04-.04.08-.08.108m4.271 2.475c-.161.095-.536.027-.83-.148-.295-.175-.402-.376-.241-.47.16-.095.522-.027.83.148.294.16.401.376.241.47m-13.898-4.197c-.295-.175-.402-.39-.241-.471.12-.067.375-.04.629.054l-.147.08c-.094-.026-.188-.026-.228 0-.094.054-.027.162.134.256a.9.9 0 0 0 .281.094l.281.162c-.201.027-.482-.054-.709-.175m.602-.094c0-.014-.013-.027-.013-.04l.147-.082c.121.108.174.202.147.283z"/><path d="M155.558 2.275c-.495-.282-1.111-.39-1.379-.242-.241.135-.121.417.241.673l-7.619 4.251-2.825.04-5.168-2.986 4.017.726 3.856-2.152 4.405.794 1.5-.834c.455.215.95.282 1.191.148.268-.148.081-.498-.415-.78-.495-.283-1.111-.39-1.379-.243-.241.135-.12.417.241.673l-1.419.794-4.405-.78-3.87 2.152-4.244-.767-2.357-1.359.777.148c.094.108.227.229.415.323.495.283 1.111.39 1.379.242s.08-.498-.415-.78-1.111-.39-1.379-.242c-.094.053-.134.134-.121.228l-1.165-.215-1.419-.82-2.37-.431-3.173 1.762.656 1.252-6.869 3.834-4.391-.78-4.713 2.623.602 1.157h-.027c-.093.054-.026.162.134.256.161.094.362.12.442.08.094-.053.027-.161-.134-.255-.013-.014-.027-.014-.04-.014l-.562-1.076 4.552-2.543 4.405.794 7.03-3.928-.657-1.252 3.013-1.681 2.035.363 10.029 5.798 3.12-.04 7.658-4.265c.456.216.951.283 1.179.148.321-.161.133-.511-.362-.794m-3.213-.443c.16-.095.535-.027.83.147.294.175.401.377.241.471-.161.095-.522.027-.83-.148-.295-.161-.402-.376-.241-.47m-15.251.403c.161-.094.522-.027.817.148s.402.377.241.471-.536.027-.83-.148a.8.8 0 0 1-.201-.148l.308.054c.013 0 .013.013.027.013.16.094.361.121.441.081.081-.054.027-.161-.133-.256-.161-.094-.362-.134-.442-.08-.014 0-.014.013-.014.013L137 2.33a.3.3 0 0 1 .094-.094m18.518.619c-.161.094-.536.027-.817-.148-.295-.175-.402-.377-.255-.47.161-.095.536-.028.831.147.294.162.401.377.241.471M194.635 12.703l-.12 1.682-13.149 7.332 1.313 2.516-3.589 2.005-1.191-2.287-1.433-.821-.562-1.076h.026c.094-.054.027-.162-.134-.256-.16-.094-.361-.134-.441-.08-.094.053-.027.16.134.255.013 0 .026.013.04.013l.442.848-3.776-2.18-.563-1.076h.027c.081-.054.027-.161-.134-.255-.16-.095-.361-.135-.442-.081-.093.054-.026.161.134.255.014 0 .027.014.027.014l.442.848-4.847-2.799 1.486.27.014.013c.16.094.361.134.441.08.094-.053.027-.161-.133-.255-.161-.094-.362-.121-.442-.081-.014 0-.014.014-.014.014l-2.41-.431 11.769 6.808 1.915 3.672-2.37 1.319 1.607.928.201-.107-1.245-.727 2.262-1.265-.656-1.25 3.856-2.153-1.312-2.516 13.108-7.319.121-1.682 3.441-1.91-.201-.296z"/><path d="M136.849 4.601c-.496-.282-1.112-.39-1.379-.242-.228.135-.121.417.241.673l-6.186 3.458 4.392 2.542.602 1.17-4.9 2.732c-.456-.215-.951-.283-1.192-.148-.268.148-.08.498.415.78s1.111.39 1.366.242c.227-.134.12-.417-.241-.672l4.967-2.772-.71-1.345-4.177-2.408 5.998-3.35c.456.215.951.282 1.192.148.281-.175.094-.525-.388-.808m-6.989 10.992c-.161.094-.536.027-.831-.148s-.401-.377-.241-.47c.121-.068.375-.041.63.053l-.148.08c-.093-.026-.187-.026-.227 0-.094.055-.027.162.134.256.16.095.361.135.442.081.053-.027.04-.08.013-.134l.147-.081c.161.148.214.296.081.363m7.042-10.413c-.16.094-.535.027-.83-.148s-.402-.377-.241-.47c.161-.095.522-.028.83.147.281.175.402.39.241.471M144.349 16.958c-.08.054-.026.161.134.255.161.095.362.135.442.081s.027-.161-.134-.256c-.147-.094-.348-.134-.442-.08M145.121 16.524c-.094.054-.027.162.134.256s.361.12.442.08c.093-.053.026-.161-.134-.255-.161-.094-.348-.135-.442-.08M145.896 16.094c-.08.054-.026.162.134.256.161.094.362.135.455.08.081-.053.027-.16-.133-.255-.175-.094-.375-.134-.456-.08M146.668 15.66c-.094.055-.027.162.134.256.16.095.361.122.442.081.093-.054.026-.161-.134-.255-.161-.095-.362-.135-.442-.081M147.41 15.25c-.094.055-.027.162.134.256.161.095.361.121.442.081.08-.054.027-.161-.134-.256-.161-.094-.362-.134-.442-.08M163.241 25.56c-.429-.255-.964-.362-1.259-.295l-1.808-1.036.978-.538c.455.215.951.282 1.192.148.267-.148.08-.498-.416-.78-.495-.283-1.111-.39-1.379-.243-.241.135-.12.417.241.673l-.977.538-2.504-1.44.201-.107c.455.215.951.282 1.192.148.267-.148.08-.498-.415-.78-.496-.283-1.112-.39-1.38-.243-.227.135-.12.418.242.673l-.201.108-1.433-.821-10.953 6.108 1.353 2.61 5.717 3.296 1.312 2.516 7.284 4.13.187-.107-4.137-2.355 2.839-1.587c.093.027.187.027.227 0 .081-.054.027-.162-.134-.256-.16-.094-.361-.134-.441-.08-.054.026-.041.08-.014.134l-2.852 1.588-2.624-1.494-1.312-2.516-1.326-.767.978-.538c.455.215.95.283 1.191.148.268-.148.081-.498-.415-.78-.495-.283-1.111-.39-1.379-.242-.227.134-.12.417.241.672l-.977.539-4.03-2.328-1.259-2.422 10.671-5.96 6.092 3.525c-.133.175.054.471.482.727.496.282 1.112.39 1.38.242.294-.175.107-.525-.375-.807m-2.33-2.555c.161-.095.535-.027.83.148s.402.376.241.47c-.12.068-.375.04-.629-.053l.147-.081c.094.027.174.027.228 0 .093-.054.026-.162-.134-.256-.161-.094-.362-.134-.456-.08-.053.027-.04.08-.013.134l-.147.08c-.147-.147-.201-.295-.067-.362m-9.507 8.543c.161-.095.536-.027.831.148s.401.376.241.47c-.121.068-.389.04-.63-.053l.268-.148-.361-.202-.268.148c-.161-.148-.214-.296-.081-.363m5.878-9.768c.161-.094.536-.027.83.148.295.175.402.377.242.471-.121.067-.389.04-.63-.054l.268-.148-.348-.201-.268.148c-.174-.148-.228-.296-.094-.364m6.012 4.36c-.16.093-.535.026-.83-.149-.228-.134-.348-.296-.308-.403l.281.161q.02.081.161.162c.161.094.361.134.442.08.08-.053.027-.161-.134-.255a.9.9 0 0 0-.281-.095l-.281-.16c.187-.014.468.053.696.174.294.175.401.39.254.484M138.102 31.778h.026c.081-.053.027-.161-.134-.255-.16-.094-.361-.135-.441-.08-.081.053-.027.16.133.255.014.013.027.013.041.013l1.258 2.422 15.786 9.121.188-.107-15.626-9.028zM144.122 39.501l-5.529-3.202q-.02-.08-.161-.161c-.161-.094-.362-.121-.442-.08-.08.053-.027.16.134.255.094.054.201.08.281.094l5.45 3.148 2.088 2.086 5.758 3.323.201-.108-5.664-3.283z"/><path d="M157.972-5.557c-.495-.283-1.111-.39-1.379-.243-.093.054-.134.135-.12.23l-1.326-.243-13.081 7.292-5.61-3.242-1.366-.243-.897-1.722 9.292-5.18c.094.028.187.028.228 0 .093-.053.026-.16-.134-.255-.161-.094-.362-.134-.442-.08-.054.026-.054.08-.013.134l-9.373 5.22.951 1.816-1.433-.255-.897-1.723 12.198-6.807c.093.027.187.027.227 0 .081-.054.027-.162-.134-.256-.16-.094-.361-.134-.442-.08-.053.027-.053.08-.013.134L131.93-4.212l.951 1.816-3.187-.565-4.659 2.597-3.723.47-14.808 8.248 9.988 5.771-.576.323L83.434-4.32l.776-.43-13.094-7.574-4.405-.794-5.115-2.96-.268.067 5.33 3.081 4.39.794 12.6 7.278-.776.43 33.192 19.186.964-.538-10.002-5.772L121.593.322l3.723-.457 4.632-2.57 6.441 1.157 5.811 3.363 13.188-7.359 1.165.215c.094.108.228.23.415.323.496.283 1.111.39 1.379.242.295-.161.107-.51-.375-.793m.054.578c-.161.08-.536.027-.83-.148-.081-.054-.148-.094-.201-.148l.308.054c.013 0 .013.013.027.013.16.095.361.135.441.081.094-.054.027-.161-.133-.255-.161-.095-.362-.135-.456-.081 0 0 0 .013-.013.013l-.308-.054c0-.04.027-.08.067-.094.161-.094.536-.027.83.148.308.175.429.377.268.471"/></g><path fill="#313247" d="m196.962 110.283-24.516-13.655V83.013l13.028-8.153.187-.121V61.527h-.803v12.768l-13.014 8.153-.188.12v14.53l25.119 14.006.187.108 21.61-12.082-.388-.7z"/><path fill="#29C1CF" d="M64.055 130.531c.013 1.063 1.58 2.247 3.816 2.247s3.789-1.184 3.816-2.247v-20.019h-7.632z"/><path fill="#5AD5E4" d="M67.87 108.156c-2.249 0-3.815 1.198-3.815 2.26 0 1.063 1.566 2.261 3.816 2.261s3.816-1.198 3.816-2.261c0-1.062-1.58-2.26-3.816-2.26"/><path fill="#fff" d="M77.75 134.164c-2.864 0-4.86 1.547-4.86 2.933s1.996 2.946 4.86 2.946c2.866 0 4.861-1.547 4.861-2.946.014-1.386-1.995-2.933-4.86-2.933m0 5.61c-2.704 0-4.592-1.412-4.592-2.677s1.888-2.677 4.593-2.677 4.593 1.412 4.593 2.677-1.875 2.677-4.593 2.677"/><path fill="#29C1CF" d="M73.953 136.733c.013 1.062 1.58 2.246 3.816 2.246s3.79-1.184 3.816-2.246v-15.768h-7.632z"/><path fill="#5AD5E4" d="M77.753 118.594c-2.249 0-3.815 1.197-3.815 2.26 0 1.076 1.566 2.26 3.815 2.26 2.25 0 3.816-1.197 3.816-2.26s-1.566-2.26-3.816-2.26"/><path fill="#fff" d="M197.798 128.773c-2.865 0-4.86 1.548-4.86 2.933 0 1.386 1.995 2.947 4.86 2.947s4.86-1.547 4.86-2.947c0-1.372-1.995-2.933-4.86-2.933m0 5.611c-2.705 0-4.593-1.413-4.593-2.678s1.888-2.677 4.593-2.677 4.592 1.413 4.592 2.677c0 1.278-1.888 2.678-4.592 2.678"/><path fill="#29C1CF" d="M193.984 131.365c.014 1.063 1.58 2.247 3.816 2.247s3.79-1.184 3.816-2.247v-15.767h-7.632z"/><path fill="#5AD5E4" d="M197.8 113.227c-2.249 0-3.816 1.197-3.816 2.26s1.567 2.26 3.816 2.26c2.25 0 3.816-1.197 3.816-2.26s-1.566-2.26-3.816-2.26"/><path fill="#fff" d="M179.438 137.977c-2.865 0-4.86 1.547-4.86 2.932s1.995 2.947 4.86 2.947 4.861-1.547 4.861-2.947c0-1.385-1.995-2.932-4.861-2.932m0 5.61c-2.704 0-4.592-1.413-4.592-2.678s1.888-2.677 4.592-2.677c2.705 0 4.593 1.413 4.593 2.677s-1.888 2.678-4.593 2.678"/><path fill="#29C1CF" d="M175.625 140.553c.013 1.063 1.58 2.247 3.816 2.247s3.789-1.184 3.816-2.247v-15.768h-7.632z"/><path fill="#5AD5E4" d="M179.441 122.414c-2.249 0-3.816 1.197-3.816 2.26 0 1.077 1.567 2.26 3.816 2.26s3.816-1.197 3.816-2.26c0-1.076-1.567-2.26-3.816-2.26"/><path fill="#fff" d="M161.087 147.172c-2.865 0-4.86 1.547-4.86 2.933s1.995 2.933 4.86 2.933 4.86-1.548 4.86-2.933c0-1.386-1.981-2.933-4.86-2.933m0 5.61c-2.705 0-4.593-1.413-4.593-2.677s1.888-2.678 4.593-2.678 4.592 1.413 4.592 2.678c.014 1.264-1.874 2.677-4.592 2.677"/><path fill="#29C1CF" d="M157.281 149.74c.014 1.063 1.58 2.247 3.816 2.247s3.789-1.184 3.816-2.247v-15.767h-7.632z"/><path fill="#5AD5E4" d="M161.082 131.602c-2.25 0-3.816 1.197-3.816 2.26 0 1.076 1.566 2.26 3.816 2.26s3.816-1.197 3.816-2.26-1.567-2.26-3.816-2.26"/></svg>