<svg xmlns="http://www.w3.org/2000/svg" width="148" height="150" fill="none"><path fill="#13121A" d="m24.056 80.43-1.029.322 7.46 4.13a6.52 6.52 0 0 0 6.5.013l16.984-9.566a2.55 2.55 0 0 0 1.288-2.218v-.322l-30.734 7.6z"/><path fill="#312F3A" d="M54.6 71.664 36.965 72.98l-12.91 7.452 6.906 3.765a5.54 5.54 0 0 0 5.55 0L54.6 73.945c.874-.51.874-1.777 0-2.28"/><path fill="#13121A" d="m30.18 75.627.112 9.175 1.021-.322 22.211-22.05-22.722 12.792z"/><path fill="#312F3A" d="m31.324 84.483 22.827-12.988v-9.468L31.324 75.33z"/><path fill="#13121A" d="m31.31 84.491-1.029.322 5.507 3.072a6.52 6.52 0 0 0 6.501.014l16.984-9.566a2.55 2.55 0 0 0 1.287-2.218v-.322l-28.781 8.65z"/><path fill="#5B5C71" d="m59.913 74.666-5.76-3.17L31.32 84.491l4.955 2.708a5.54 5.54 0 0 0 5.549 0l18.089-10.252c.875-.51.875-1.777 0-2.28"/><path fill="#312F3A" d="M61.598.36s-2.065-.428-2.8-.35c-.384.041-.93.125-1.777.615L3.594 32.2C1.15 33.606-.563 37.209.172 41.597l5.8 45.912c.267 4.192 1.981 4.843 1.981 4.843l53.77-30.847c2.443-1.406 4.171-5.612 3.87-9.397z"/><path fill="#5B5C71" d="M60.743.292c-.434.035-.889.182-1.35.448L5.25 32.194c-2.435 1.407-4.674 4.696-3.87 9.398L7.94 92.348l62.958-36.213-6.543-51.098c-.238-3.065-1.75-4.912-3.61-4.744"/><path fill="#13121A" d="M62.608 2.966a1.91 1.91 0 0 0-2.316-.315L5.437 34.52c-3.002 1.742-2.981 3.73-2.526 7.368l5.752 42.589 60.44-35.101L63.14 4.093a1.9 1.9 0 0 0-.532-1.127"/><path fill="#313247" d="M10.339 40.36 6.3 42.83l.105.986 4.038-2.47zM8.527 45.969 6.742 47.06l.098.987 1.785-1.092zM13.797 40.488 6.52 44.946l.105.986 7.277-4.457zM17.644 36.932l-.105-.987-6.508 3.982.105.987zM22.471 33.975l-.098-.987-4.143 2.534.105.986zM14.492 40.064l.098.986 6.508-3.981-.105-.987zM8.246 55.54l.098.986 6.844-4.192-.098-.986zM21.688 35.654l.105.986 1.616-.993-.098-.987zM16.422 41.134l.098.986 2.89-1.77-.098-.987zM9.219 45.54l.098.994 6.508-3.989-.098-.986zM18.559 57.954l.105.994 2.89-1.77-.098-.994zM16.633 56.88l.105.987 6.508-3.982-.105-.987zM11.352 62.368l.104.986 6.508-3.988-.105-.987zM20.375 52.342l.105.986 4.136-2.533-.105-.986zM13.172 56.751l.105.987 6.5-3.982-.097-.986zM23.836 52.474l.105.987 1.616-.987-.098-.993zM8.445 59.642l.105.994 4.038-2.477-.105-.987zM10.383 72.36l.105.986 6.843-4.191-.104-.987zM18.067 68.805l4.863-2.974v-1.05l-4.961 3.037zM10.618 75.04l4.646-2.842v-1.05l-4.744 2.904zM18.199 70.504l3.47-2.127V67.32l-3.575 2.19zM8.887 63.877l.098.994 1.784-1.1-.105-.986zM8.664 61.766l.105.987 7.278-4.458-.105-.986zM29.776 28.918l-4.038 2.477.105.987 4.038-2.477zM33.235 29.047l-7.278 4.457.105.987 7.278-4.457zM41.909 22.534l-.105-.987-4.136 2.533.105.987zM27.957 34.527l-1.777 1.099.098.987 1.784-1.092zM37.075 25.49l-.098-.986-6.508 3.982.105.993zM28.656 34.106l.098.987 6.508-3.982-.105-.994zM41.125 24.21l.105.986 1.617-.987-.099-.986zM27.68 44.098l.105.987 6.844-4.192-.105-.987zM33.93 28.622l.105.994 6.508-3.989-.105-.986zM35.852 29.7l.105.987 2.89-1.77-.099-.987zM37.996 46.517l.105.986 2.89-1.77-.105-.987zM36.074 45.446l.105.986 6.501-3.988-.098-.987zM30.793 50.923l.105.987 6.508-3.982-.105-.987zM39.809 40.897l.098.993 4.142-2.54-.105-.987zM32.613 45.313l.105.987 6.501-3.99-.098-.986zM43.273 41.03l.098.993 1.624-.993-.105-.987zM27.883 48.208l.098.986 4.037-2.477-.098-.986zM29.828 60.914l.105.994 6.844-4.192-.105-.993zM37.504 57.37l4.864-2.98v-1.05l-4.962 3.044zM30.054 63.605l4.647-2.848v-1.05l-4.752 2.911zM37.636 59.064l3.471-2.128v-1.05l-3.576 2.191zM28.316 52.44l.105.986 1.785-1.092-.105-.986zM28.102 50.32l.104.987 7.271-4.45-.098-.994zM52.664 17.606l-7.277 4.45.105.994 7.277-4.458zM49.21 17.469l-4.038 2.477.098.987 4.037-2.47zM61.342 11.091l-.105-.993-4.135 2.54.098.986zM60.555 12.767l.105.987 1.616-.994-.105-.987zM56.512 14.041l-.098-.986-6.508 3.988.105.987zM47.39 23.086l-1.785 1.092.106.986 1.784-1.091zM53.36 17.18l.104.987 6.501-3.982-.098-.994zM55.281 18.25l.105.988 2.89-1.77-.105-.988zM47.11 32.657l.104.986 6.844-4.192-.105-.986zM48.082 22.661l.105.987 6.508-3.982-.105-.986zM57.434 35.063l.098.987 2.897-1.77-.105-.987zM55.508 33.993l.098.987 6.508-3.982-.098-.986zM50.23 39.474l.106.994 6.5-3.99-.098-.986zM59.242 29.455l.105.987 4.136-2.533-.098-.987zM52.05 33.86l.099.987 6.508-3.981-.105-.987zM62.71 29.587l.099.987 1.623-.994-.105-.986zM47.313 36.76l.104.986 4.038-2.47-.105-.987zM49.258 49.477l.105.987 6.837-4.192-.098-.987zM56.945 45.917l4.863-2.974v-1.056L56.84 44.93zM49.488 52.153l4.646-2.842v-1.05l-4.751 2.905zM57.07 47.615l3.478-2.12v-1.057l-3.575 2.19zM47.758 40.994l.105.987 1.777-1.092-.098-.987zM47.54 38.883l.097.987 7.278-4.457-.098-.987z"/><path fill="#13121A" d="m123.168 82.068-30.727-7.6v.323c0 .916.49 1.763 1.288 2.218l16.983 9.559a6.52 6.52 0 0 0 6.501-.014l7.46-4.129-1.029-.322z"/><path fill="#312F3A" d="M93.101 73.344a1.313 1.313 0 0 0 0 2.274L111.19 85.87a5.54 5.54 0 0 0 5.55 0l6.906-3.765-12.91-7.453z"/><path fill="#13121A" d="m94.172 64.11 22.211 22.05 1.028.321.112-9.174-.623-.406z"/><path fill="#312F3A" d="m93.547 73.175 22.826 12.988v-9.16L93.547 63.707z"/><path fill="#13121A" d="m115.914 86.126-28.781-8.65v.323c0 .916.49 1.763 1.288 2.218l16.983 9.566a6.53 6.53 0 0 0 6.501-.014l5.507-3.072-1.029-.322z"/><path fill="#5B5C71" d="M87.793 76.345a1.314 1.314 0 0 0 0 2.274l18.089 10.252a5.54 5.54 0 0 0 5.549 0l4.954-2.708-22.833-12.995z"/><path fill="#312F3A" d="M144.101 33.875 90.673 2.3c-.84-.483-1.392-.574-1.777-.616-.735-.077-2.8.35-2.8.35l-3.988 51.748c-.3 3.78 1.428 7.985 3.87 9.398l53.77 30.846s1.715-.65 1.981-4.842l5.801-45.912c.728-4.388-.987-7.992-3.429-9.398"/><path fill="#5B5C71" d="M142.439 33.882 88.304 2.427a3.3 3.3 0 0 0-1.35-.448c-1.862-.168-3.38 1.68-3.618 4.738l-6.543 51.097 62.958 36.214 6.557-50.755c.805-4.696-1.427-7.991-3.869-9.391"/><path fill="#13121A" d="M142.259 36.206 87.404 4.34a1.91 1.91 0 0 0-2.316.314 1.9 1.9 0 0 0-.532 1.134L78.594 51.07l60.432 35.1 5.752-42.588c.455-3.646.476-5.633-2.519-7.376"/><path fill="#312F3A" d="M104.776 41.86c2.442 1.44 2.939-2.898 4.926-1.722 1.988 1.175.154 10.776 3.226 12.589 3.072 1.82 4.262-8.691 6.704-7.25s1.4 7.943 3.751 9.328c2.351 1.393 3.625-5.934 7.326-3.737l-33.26-19.677c4.612 2.736 4.892 9.02 7.327 10.468"/><path fill="#EEDE6D" d="M127.57 40.67c-2.442-1.441-4.311 4.437-6.298 3.261-1.987-1.175 1.301-15.493-1.777-17.312-3.072-1.82-5.361 11.182-7.796 9.74-2.442-1.44-.259-15.016-2.61-16.41-2.351-1.392-5.122 15.291-8.831 13.1l33.26 19.671c-4.612-2.715-3.506-10.601-5.948-12.05"/><path fill="#A4A3CD" d="M125.665 40.6c-2.351-1.393-3.065 3.05-5.5 1.61-2.443-1.442-.658-10.274-3.422-13.198-2.519-2.667-3.954 5.514-5.941 4.331-1.988-1.176-1.211-4.793-3.653-6.235s-5.08 7.019-9.692 4.29l33.26 19.677c-3.709-2.197-2.701-9.083-5.052-10.475"/><path fill="#DCDCE6" d="M124.971 44.813c-2.351-1.392-2.778-.37-5.22-1.812s-1.505-3.135-4.276-6.06c-2.519-2.666-4.471.133-6.459-1.043s-2.232-3.093-4.891-3.394c-2.659-.3-2.064 1.624-6.676-1.106l33.26 19.678c-3.701-2.197-3.394-4.877-5.738-6.263"/><path fill="#5B5C71" d="M100.263 37.31c2.352 1.392 2.806-1.435 5.242.006 2.442 1.442.539 10.224 3.611 12.043 3.072 1.82 4.163-6.808 6.151-5.633 1.987 1.176 1.231 4.66 3.673 6.102s4.451-3.086 9.062-.357l-33.26-19.67c3.709 2.183 3.17 6.116 5.521 7.508"/><path fill="#F2B024" d="M100.941 34.947c1.827 1.785 2.68.266 6.592 2.946 2.323 1.596.798 4.85 3.016 5.326 2.219.475 3.59-1.204 5.577-.028s1.435 2.442 3.87 3.883c2.442 1.442 3.394-.336 7.999 2.394l-33.26-19.671c3.715 2.19 4.289 3.282 6.206 5.15"/><path fill="#fff" d="m91.973 28.23 41.496 24.542.021-.126-41.496-24.548z"/><path fill="#313247" d="m123.316 69.873 2.89 1.77.098-.986-2.89-1.77zM121.625 66.591l6.508 3.982.098-.987-6.501-3.988zM126.902 72.073l6.508 3.981.098-.986L127 71.086zM120.25 63.502l4.136 2.533.105-.987-4.143-2.54zM125.078 66.462l6.508 3.982.105-.987-6.508-3.988zM119.316 65.17l1.617.994.105-.987-1.624-.993zM132.281 70.865l4.038 2.47.105-.987-4.038-2.477zM108.07 55.194l6.844 4.191.105-.986-6.844-4.192zM134.102 76.479l1.777 1.091.105-.986-1.784-1.092zM128.824 71.002l7.278 4.458.098-.994-7.271-4.45zM101.699 60.03l2.89 1.77.105-.987-2.89-1.77zM100.012 56.737l6.501 3.988.105-.993-6.508-3.982zM105.285 62.228l6.508 3.982.105-.987-6.508-3.989zM98.637 53.647l4.142 2.533.098-.987-4.135-2.533zM103.473 56.608l6.5 3.989.105-.994-6.507-3.982zM97.7 55.327l1.616.986.105-.986-1.617-.987zM110.672 61.014l4.038 2.477.098-.986-4.038-2.478zM88.91 48.323l6.837 4.191.105-.986-6.844-4.192zM83.305 44.991l4.863 2.981.105-.987-4.968-3.044zM90.973 51.37l4.646 2.84.105-.986-4.751-2.911zM84.563 47.538l3.477 2.127.098-.986-3.576-2.19zM112.484 66.635l1.785 1.092.105-.987-1.785-1.092zM107.211 61.147l7.278 4.457.104-.986-7.277-4.458z"/><path fill="#312F3A" d="M61.145 146.552a3.45 3.45 0 0 0 3.45 3.45h18.494a3.45 3.45 0 0 0 3.45-3.45v-10.286H61.145z"/><path fill="#5B5C71" d="M61.145 145.478a3.453 3.453 0 0 0 3.45 3.45h18.494a3.453 3.453 0 0 0 3.45-3.45v-10.287H61.145z"/><path fill="#312F3A" d="M86.54 128.859H61.143v13.737H86.54z"/><path fill="#A4A3CD" d="m109.954 84.823-73.42-.35a3.24 3.24 0 0 0-1.434.322c-1.918.882-3.198 3.54-3.016 6.669l.496 46.654 83.056.042-.427-46.325c.147-5.046-2.582-7.005-5.255-7.012"/><path fill="#5B5C71" d="m108.822 86.496-71.125-.336a3.3 3.3 0 0 0-1.392.308c-1.862.854-3.1 3.43-2.925 6.46l.475 45.191 80.453.042-.413-44.877c.161-4.884-2.484-6.788-5.073-6.788"/></svg>