<svg xmlns="http://www.w3.org/2000/svg" width="178" height="180" fill="none"><path fill="#13121A" d="m28.867 96.514-1.234.386 8.951 4.954a7.82 7.82 0 0 0 7.801.017l20.38-11.479a3.06 3.06 0 0 0 1.546-2.662v-.386l-36.881 9.12z"/><path fill="#312F3A" d="m65.521 85.992-21.16 1.579-15.494 8.943 8.288 4.518a6.65 6.65 0 0 0 6.66 0L65.52 88.73c1.05-.613 1.05-2.133 0-2.738"/><path fill="#13121A" d="m36.215 90.753.134 11.009 1.226-.386 26.653-26.46-27.266 15.35z"/><path fill="#312F3A" d="m37.59 101.377 27.392-15.586V74.43L37.59 90.393z"/><path fill="#13121A" d="m37.574 101.385-1.234.386 6.608 3.687a7.82 7.82 0 0 0 7.802.017l20.38-11.48a3.06 3.06 0 0 0 1.545-2.662v-.386l-34.538 10.379z"/><path fill="#5B5C71" d="m71.897 89.597-6.91-3.804-27.401 15.594 5.945 3.25a6.65 6.65 0 0 0 6.66 0l21.706-12.302c1.05-.613 1.05-2.133 0-2.738"/><path fill="#312F3A" d="M73.917.431s-2.477-.512-3.359-.42c-.462.05-1.117.151-2.133.74L4.312 38.638C1.382 40.327-.676 44.65.206 49.916l6.961 55.095c.32 5.03 2.377 5.811 2.377 5.811l64.524-37.015c2.931-1.688 5.005-6.735 4.644-11.278z"/><path fill="#5B5C71" d="M72.891.347c-.52.042-1.066.218-1.62.537L6.3 38.63C3.379 40.318.69 44.265 1.657 49.908l7.869 60.905 75.55-43.456L77.224 6.04C76.94 2.362 75.125.145 72.891.347"/><path fill="#13121A" d="M75.132 3.563a2.294 2.294 0 0 0-2.78-.378L6.526 41.426c-3.603 2.091-3.577 4.476-3.032 8.843l6.903 51.106 72.527-42.121-7.154-54.34c-.06-.537-.294-.999-.638-1.351"/><path fill="#313247" d="M12.404 48.436 7.559 51.4l.126 1.184 4.845-2.964zM10.231 55.17 8.09 56.48l.117 1.184 2.142-1.31zM16.554 48.592 7.82 53.94l.126 1.184 8.734-5.35zM21.17 44.329l-.126-1.184-7.81 4.778.126 1.184zM26.964 40.776l-.118-1.184-4.971 3.04.126 1.184zM17.39 48.083l.118 1.184 7.81-4.778-.126-1.184zM9.895 66.655l.117 1.184 8.213-5.03-.118-1.184zM26.023 42.79l.126 1.184 1.94-1.192-.117-1.184zM19.703 49.367l.118 1.184 3.468-2.125-.118-1.184zM11.063 54.655l.117 1.192 7.81-4.786-.118-1.184zM22.27 69.546l.125 1.193 3.469-2.125-.118-1.192zM19.96 68.26l.127 1.185 7.81-4.779-.127-1.184zM13.621 74.847l.126 1.184 7.81-4.786-.127-1.184zM24.45 62.813l.125 1.184 4.963-3.04-.126-1.184zM15.809 68.104l.126 1.184 7.8-4.778-.117-1.184zM28.602 62.974l.125 1.184 1.94-1.184-.117-1.193zM10.133 71.578l.126 1.192 4.845-2.973-.126-1.184zM12.46 86.837l.127 1.184 8.212-5.03-.126-1.184zM21.68 82.57l5.836-3.568v-1.26l-5.953 3.645zM12.739 90.054l5.575-3.41v-1.26l-5.693 3.486zM21.84 84.61l4.166-2.553V80.79l-4.291 2.628zM10.664 76.658l.118 1.192 2.14-1.318-.125-1.184zM10.398 74.125l.126 1.183 8.734-5.349-.126-1.184zM35.732 34.703l-4.845 2.973.126 1.184 4.845-2.973zM39.882 34.86l-8.734 5.349.126 1.183 8.734-5.349zM50.292 27.043l-.126-1.184-4.963 3.04.126 1.184zM33.55 41.438l-2.132 1.318.117 1.184 2.142-1.31zM44.49 30.596l-.118-1.184-7.81 4.778.127 1.193zM34.39 40.931l.118 1.184 7.81-4.778-.126-1.193zM49.352 29.057l.126 1.184 1.94-1.184-.118-1.184zM33.215 52.923l.126 1.184 8.212-5.03-.126-1.184zM40.715 34.35l.126 1.193 7.81-4.787-.127-1.184zM43.023 35.642l.126 1.184 3.468-2.124-.117-1.184zM45.598 55.82l.126 1.184 3.468-2.125-.126-1.184zM43.29 54.535l.125 1.184 7.801-4.787-.117-1.184zM36.953 61.11l.126 1.184 7.81-4.778-.126-1.184zM47.773 49.079l.118 1.192 4.971-3.048-.126-1.184zM39.137 54.378l.126 1.184 7.8-4.786-.117-1.184zM51.93 49.237l.117 1.192 1.948-1.192-.126-1.184zM33.46 57.852l.118 1.184 4.846-2.973-.118-1.184zM35.793 73.102l.126 1.193 8.213-5.03-.127-1.193zM45.004 68.845l5.836-3.578v-1.26l-5.953 3.654zM36.067 76.328l5.576-3.418v-1.26l-5.702 3.494zM45.165 70.877l4.165-2.553v-1.26l-4.29 2.629zM33.98 62.933l.126 1.184 2.142-1.31-.126-1.184zM33.723 60.388l.126 1.184 8.724-5.34-.117-1.193zM63.198 21.13l-8.733 5.342.126 1.192 8.733-5.35zM59.052 20.963l-4.845 2.973.118 1.184 4.845-2.965zM73.612 13.312l-.126-1.193-4.963 3.048.118 1.184zM72.668 15.325l.126 1.184 1.94-1.192-.126-1.184zM67.814 16.856l-.118-1.184-7.81 4.786.127 1.184zM56.868 27.703l-2.141 1.31.126 1.184 2.14-1.31zM64.031 20.619l.126 1.183 7.801-4.777-.117-1.193zM66.34 21.902l.126 1.184 3.468-2.125-.126-1.184zM56.531 39.192l.126 1.184 8.213-5.03-.126-1.184zM57.7 27.194l.125 1.184 7.81-4.778-.126-1.184zM68.922 42.08l.117 1.184 3.477-2.125-.126-1.184zM66.61 40.798l.117 1.184 7.81-4.778-.118-1.184zM60.277 47.372l.126 1.192 7.801-4.786-.117-1.184zM71.094 35.345l.126 1.184 4.963-3.04-.118-1.184zM62.46 40.636l.118 1.183 7.81-4.778-.126-1.184zM75.254 35.507l.117 1.184 1.949-1.193-.126-1.183zM56.777 44.115l.126 1.184 4.846-2.965-.126-1.184zM59.11 59.372l.125 1.184 8.204-5.03-.117-1.184zM68.333 55.106l5.836-3.568V50.27l-5.962 3.652zM59.388 62.587l5.575-3.41v-1.259l-5.701 3.485zM68.485 57.137l4.173-2.545v-1.268l-4.29 2.629zM57.309 49.193l.126 1.184 2.133-1.31-.118-1.184zM57.047 46.66l.117 1.184 8.734-5.35-.118-1.184z"/><path fill="#13121A" d="m147.798 98.479-36.872-9.12v.387c0 1.1.588 2.116 1.545 2.662l20.38 11.47a7.82 7.82 0 0 0 7.801-.016l8.952-4.955-1.235-.386z"/><path fill="#312F3A" d="M111.717 88.008c-1.05.604-1.05 2.124 0 2.729l21.707 12.302a6.65 6.65 0 0 0 6.659 0l8.288-4.518-15.493-8.943z"/><path fill="#13121A" d="m113.004 76.932 26.653 26.46 1.234.386.135-11.009-.748-.487z"/><path fill="#312F3A" d="m112.254 87.807 27.392 15.585V92.4l-27.392-15.955z"/><path fill="#13121A" d="m139.093 103.35-34.538-10.38v.387c0 1.1.588 2.116 1.545 2.662l20.38 11.479a7.84 7.84 0 0 0 7.801-.017l6.609-3.686-1.235-.386z"/><path fill="#5B5C71" d="M105.346 91.611c-1.05.605-1.05 2.125 0 2.73l21.707 12.301a6.64 6.64 0 0 0 6.659 0l5.945-3.249-27.4-15.594z"/><path fill="#312F3A" d="m172.92 40.647-64.113-37.89c-1.007-.578-1.671-.688-2.133-.738-.881-.092-3.358.42-3.358.42l-4.787 62.098c-.361 4.534 1.713 9.581 4.644 11.277l64.524 37.016s2.058-.781 2.377-5.811l6.961-55.095c.873-5.265-1.184-9.59-4.115-11.277"/><path fill="#5B5C71" d="M170.923 40.655 105.962 2.91c-.554-.319-1.108-.495-1.621-.537-2.233-.201-4.056 2.015-4.341 5.685l-7.852 61.317L167.7 112.83l7.868-60.905c.966-5.635-1.713-9.59-4.644-11.27"/><path fill="#13121A" d="M170.707 43.444 104.881 5.202a2.29 2.29 0 0 0-2.78.378 2.3 2.3 0 0 0-.638 1.36l-7.154 54.34 72.518 42.121 6.903-51.106c.546-4.376.571-6.76-3.023-8.851"/><path fill="#312F3A" d="M125.726 50.225c2.93 1.73 3.526-3.477 5.911-2.066 2.385 1.41.185 12.932 3.871 15.107 3.687 2.183 5.114-10.43 8.045-8.7s1.679 9.53 4.501 11.194c2.821 1.67 4.35-7.121 8.792-4.485l-39.912-23.613c5.533 3.284 5.869 10.824 8.792 12.563"/><path fill="#EEDE6D" d="M153.075 48.798c-2.93-1.73-5.172 5.324-7.557 3.913-2.385-1.41 1.562-18.592-2.133-20.775-3.687-2.183-6.432 13.419-9.355 11.689-2.93-1.73-.31-18.02-3.132-19.692-2.821-1.67-6.147 18.348-10.597 15.72l39.912 23.605c-5.534-3.258-4.207-12.722-7.138-14.46"/><path fill="#A4A3CD" d="M150.791 48.712c-2.822-1.67-3.678 3.661-6.6 1.932-2.931-1.73-.79-12.328-4.107-15.838-3.023-3.2-4.744 6.617-7.129 5.198-2.385-1.41-1.453-5.752-4.383-7.482-2.931-1.73-6.097 8.423-11.631 5.148l39.913 23.613c-4.451-2.637-3.242-10.9-6.063-12.57"/><path fill="#DCDCE6" d="M149.96 53.768c-2.821-1.672-3.334-.446-6.264-2.175-2.931-1.73-1.806-3.762-5.131-7.272-3.023-3.2-5.366.16-7.751-1.252-2.385-1.41-2.678-3.711-5.869-4.072s-2.478 1.948-8.011-1.327l39.912 23.613c-4.442-2.637-4.073-5.853-6.886-7.515"/><path fill="#5B5C71" d="M120.313 44.768c2.821 1.671 3.367-1.721 6.29.008 2.93 1.73.646 12.269 4.333 14.452 3.686 2.184 4.996-8.17 7.381-6.76s1.478 5.593 4.408 7.323 5.341-3.703 10.875-.428l-39.912-23.605c4.45 2.62 3.803 7.34 6.625 9.01"/><path fill="#F2B024" d="M121.124 41.927c2.192 2.14 3.216.319 7.91 3.535 2.788 1.914.958 5.82 3.62 6.39 2.662.571 4.307-1.444 6.692-.033 2.385 1.41 1.722 2.93 4.644 4.66 2.931 1.73 4.073-.403 9.598 2.872l-39.912-23.605c4.459 2.628 5.147 3.938 7.448 6.18"/><path fill="#fff" d="m110.359 33.867 49.796 29.449.025-.151-49.795-29.458z"/><path fill="#313247" d="m147.977 83.84 3.468 2.125.117-1.184-3.468-2.125zM145.945 79.901l7.81 4.779.117-1.185-7.801-4.786zM152.277 86.477l7.81 4.778.117-1.184-7.809-4.778zM144.297 76.192l4.963 3.04.126-1.184L144.414 75zM150.09 79.745l7.809 4.778.126-1.184-7.809-4.786zM143.176 78.198l1.94 1.192.126-1.184-1.949-1.192zM158.734 85.032l4.846 2.965.126-1.184-4.846-2.973zM129.68 66.225l8.212 5.03.126-1.184-8.212-5.03zM160.918 91.768l2.133 1.31.126-1.184-2.141-1.31zM154.586 85.196l8.733 5.349.118-1.193-8.725-5.34zM122.035 72.024l3.468 2.124.126-1.184-3.468-2.124zM120.012 68.079l7.801 4.786.126-1.192-7.81-4.779zM126.336 74.663l7.809 4.778.126-1.184-7.809-4.786zM118.359 64.37l4.971 3.04.118-1.185-4.963-3.04zM124.164 67.922l7.801 4.787.126-1.193-7.809-4.778zM117.234 66.383l1.94 1.184.126-1.184-1.94-1.184zM132.801 73.21l4.845 2.972.118-1.184-4.846-2.973zM106.688 57.979l8.204 5.03.126-1.184-8.213-5.03zM99.96 53.98l5.837 3.578.126-1.184-5.962-3.653zM109.164 61.631l5.576 3.41.126-1.184-5.702-3.494zM101.473 57.037l4.173 2.553.118-1.184-4.291-2.629zM134.977 79.952l2.141 1.31.126-1.184-2.141-1.31zM128.648 73.37l8.734 5.349.125-1.184-8.733-5.35z"/><path fill="#312F3A" d="M73.375 175.86a4.143 4.143 0 0 0 4.14 4.14h22.194a4.143 4.143 0 0 0 4.14-4.14v-12.344H73.375z"/><path fill="#5B5C71" d="M73.375 174.573a4.14 4.14 0 0 0 4.14 4.139h22.194a4.14 4.14 0 0 0 4.14-4.139v-12.344H73.375z"/><path fill="#312F3A" d="M103.849 154.629H73.375v16.484h30.474z"/><path fill="#A4A3CD" d="m131.946 101.785-88.104-.419a3.9 3.9 0 0 0-1.722.386c-2.3 1.058-3.837 4.249-3.619 8.003l.596 55.984 99.667.051-.512-55.59c.177-6.055-3.098-8.406-6.306-8.415"/><path fill="#5B5C71" d="m130.586 103.792-85.35-.403a3.9 3.9 0 0 0-1.671.37c-2.234 1.024-3.72 4.114-3.51 7.75l.57 54.23 96.544.05-.495-53.852c.193-5.861-2.981-8.145-6.088-8.145"/></svg>