<svg xmlns="http://www.w3.org/2000/svg" width="467" height="466" fill="none"><path fill="#5B5C71" d="m399.968 403.692-130.371-74.274a9.12 9.12 0 0 0-8.868-.066l-36.107 19.9a7.15 7.15 0 0 1-6.932-.044l-72.59-41.487c-2.244-1.271-3.564-3.594-3.542-6.158.022-2.587 1.408-4.866 3.674-6.093l39.145-21.325-.946-1.731-39.167 21.303c-2.904 1.578-4.664 4.492-4.708 7.802s1.672 6.246 4.532 7.89l72.59 41.487a9.12 9.12 0 0 0 8.868.066l36.108-19.9c2.134-1.184 4.796-1.162 6.931.044l130.371 74.274a6.96 6.96 0 0 1 3.565 6.158c-.022 2.586-1.386 4.866-3.653 6.093l-30.189 16.503.946 1.731 30.189-16.503c2.905-1.6 4.665-4.514 4.687-7.802.044-3.287-1.65-6.224-4.533-7.868"/><path fill="url(#a)" d="m88.016 239.025 120.668 69.847 258.322-149.885-123.374-69.409z"/><path fill="#5B5C71" d="m97.18 239.014 111.184 64.566v-175.9L97.18 63.137z"/><path fill="#13121A" d="m208.367 303.734 111.14-63.118V64.563l-111.14 63.118z"/><path fill="#313247" d="m214.992 283.639 97.344-55.317V206.91l-97.344 55.317z"/><path fill="#5B5C71" d="m310.312 226.328-95.32 54.177v3.134l97.344-55.317V206.91l-2.024 1.14z"/><path fill="#5AD5E4" d="m218.656 266.563 3.17-1.797v-3.2l-3.17 1.798z"/><path fill="#EEDE6D" d="m218.656 271.216 3.17-1.797v-3.2l-3.17 1.797z"/><path fill="#5AD5E4" d="m218.656 275.864 3.17-1.797v-3.2l-3.17 1.797zM223.164 264.056l3.169-1.798v-3.199l-3.169 1.797zM223.164 268.696l3.169-1.797v-3.2l-3.169 1.797z"/><path fill="#F2B024" d="m223.164 273.337 3.169-1.819v-3.178l-3.169 1.797zM227.688 261.498l3.169-1.797v-3.178l-3.169 1.798z"/><path fill="#5AD5E4" d="m227.688 266.151 3.169-1.797v-3.178l-3.169 1.797zM227.688 270.802l3.169-1.797v-3.2l-3.169 1.819z"/><path fill="#EEDE6D" d="m232.18 258.987 3.169-1.797v-3.178l-3.169 1.797z"/><path fill="#5AD5E4" d="m232.18 263.626 3.169-1.797v-3.2l-3.169 1.797z"/><path fill="#F2B024" d="m232.18 268.274 3.169-1.797v-3.2l-3.169 1.797z"/><path fill="#5AD5E4" d="m236.586 256.487 3.169-1.797v-3.178l-3.169 1.797zM236.586 265.77l3.169-1.797v-3.2l-3.169 1.798zM241.125 258.606l3.169-1.797v-3.2l-3.169 1.798z"/><path fill="#F2B024" d="m241.125 263.263 3.169-1.798v-3.199l-3.169 1.797zM245.648 251.438l3.17-1.797v-3.2l-3.17 1.798z"/><path fill="#5AD5E4" d="m245.648 260.739 3.17-1.819v-3.178l-3.17 1.797zM250.156 253.553l3.17-1.797v-3.178l-3.17 1.797z"/><path fill="#13121A" d="m103.719 230.118 42.445 24.107v-21.412l-42.445-24.129z"/><path fill="#313247" d="m108.375 232.771 3.213 1.82v-21.413l-3.213-1.819z"/><path fill="#F2B024" d="m108.375 232.77 3.213 1.819v-6.071l-3.213-1.819z"/><path fill="#EEDE6D" d="m108.375 220.411 3.213 1.819v-9.052l-3.213-1.819z"/><path fill="#313247" d="m113.68 235.771 3.213 1.82v-21.413l-3.213-1.819z"/><path fill="#F2B024" d="m113.68 220.43 3.213 1.819v-6.071l-3.213-1.819z"/><path fill="#EEDE6D" d="m113.68 235.766 3.213 1.819v-9.051l-3.213-1.819z"/><path fill="#313247" d="m118.945 238.736 3.214 1.819v-21.412l-3.214-1.819z"/><path fill="#F2B024" d="m118.945 238.735 3.214 1.819v-6.071l-3.214-1.819z"/><path fill="#EEDE6D" d="m118.945 226.376 3.214 1.819v-9.052l-3.214-1.819z"/><path fill="#313247" d="m124.242 241.732 3.214 1.82v-21.413l-3.214-1.819z"/><path fill="#F2B024" d="m124.242 226.391 3.214 1.819v-6.071l-3.214-1.819z"/><path fill="#EEDE6D" d="m124.242 241.727 3.214 1.819v-9.051l-3.214-1.819z"/><path fill="#313247" d="m129.5 244.697 3.213 1.819v-21.412l-3.213-1.819z"/><path fill="#F2B024" d="m129.5 244.696 3.213 1.819v-6.071l-3.213-1.819z"/><path fill="#EEDE6D" d="m129.5 232.337 3.213 1.819v-9.052l-3.213-1.819z"/><path fill="#313247" d="m134.797 247.697 3.213 1.819v-21.412l-3.213-1.819z"/><path fill="#F2B024" d="m134.797 232.356 3.213 1.819v-6.071l-3.213-1.819z"/><path fill="#EEDE6D" d="m134.797 247.692 3.213 1.819v-9.051l-3.213-1.819z"/><path fill="#313247" d="m140.055 250.639 3.213 1.819v-21.412l-3.213-1.819z"/><path fill="#F2B024" d="m140.055 250.637 3.213 1.819v-6.071l-3.213-1.819z"/><path fill="#EEDE6D" d="m140.055 238.278 3.213 1.819v-9.051l-3.213-1.819z"/><path fill="#313247" d="m105.721 209.845-2.002-1.161v21.434l42.445 24.107v-3.155l-40.443-22.969zM214.992 240.072l97.344-55.316v-21.412l-97.344 55.316z"/><path fill="#5B5C71" d="m310.312 182.74-95.32 54.176v3.156l97.344-55.316v-21.412l-2.024 1.139z"/><path fill="#5AD5E4" d="m218.656 222.635 3.17-1.797v-3.178l-3.17 1.797z"/><path fill="#EEDE6D" d="m218.656 227.282 3.17-1.797v-3.2l-3.17 1.819z"/><path fill="#5AD5E4" d="m218.656 231.93 3.17-1.797v-3.199l-3.17 1.797zM223.164 220.122l3.169-1.797v-3.2l-3.169 1.797zM223.164 224.763l3.169-1.798v-3.199l-3.169 1.797z"/><path fill="#F2B024" d="m223.164 229.403 3.169-1.797v-3.2l-3.169 1.797zM227.688 217.587l3.169-1.797v-3.2l-3.169 1.797z"/><path fill="#5AD5E4" d="m227.688 222.239 3.169-1.819v-3.178l-3.169 1.797zM227.688 226.899l3.169-1.819v-3.178l-3.169 1.797z"/><path fill="#EEDE6D" d="m232.18 215.053 3.169-1.797v-3.178l-3.169 1.797z"/><path fill="#5AD5E4" d="m232.18 219.698 3.169-1.797v-3.178l-3.169 1.797z"/><path fill="#F2B024" d="m232.18 224.341 3.169-1.797v-3.2l-3.169 1.819z"/><path fill="#5AD5E4" d="m236.586 212.567 3.169-1.819v-3.178l-3.169 1.797zM236.586 221.827l3.169-1.798v-3.177l-3.169 1.797zM241.125 214.673l3.169-1.797v-3.2l-3.169 1.797z"/><path fill="#F2B024" d="m241.125 219.321 3.169-1.797v-3.2l-3.169 1.797zM245.648 207.501l3.17-1.797v-3.2l-3.17 1.797z"/><path fill="#5AD5E4" d="m245.648 216.798 3.17-1.797v-3.2l-3.17 1.797zM250.156 209.634l3.17-1.819v-3.178l-3.17 1.797z"/><path fill="#13121A" d="m103.719 188.455 42.445 24.108v-21.39l-42.445-24.13z"/><path fill="#313247" d="m108.375 191.108 3.213 1.84v-21.412l-3.213-1.841z"/><path fill="#F2B024" d="m108.375 191.106 3.213 1.841v-6.071l-3.213-1.841z"/><path fill="#EEDE6D" d="m108.375 178.747 3.213 1.841v-9.052l-3.213-1.841z"/><path fill="#313247" d="m113.68 194.104 3.213 1.841v-21.413l-3.213-1.841z"/><path fill="#F2B024" d="m113.68 178.762 3.213 1.841v-6.071l-3.213-1.841z"/><path fill="#EEDE6D" d="m113.68 194.098 3.213 1.841v-9.051l-3.213-1.841z"/><path fill="#313247" d="m118.945 197.082 3.214 1.82v-21.413l-3.214-1.841z"/><path fill="#F2B024" d="m118.945 197.081 3.214 1.819v-6.071l-3.214-1.841z"/><path fill="#EEDE6D" d="m118.945 184.7 3.214 1.841v-9.052l-3.214-1.841z"/><path fill="#313247" d="m124.242 200.092 3.214 1.819v-21.412l-3.214-1.819z"/><path fill="#F2B024" d="m124.242 184.75 3.214 1.82v-6.071l-3.214-1.819z"/><path fill="#EEDE6D" d="m124.242 200.086 3.214 1.82v-9.052l-3.214-1.819z"/><path fill="#313247" d="m129.5 203.057 3.213 1.819v-21.412l-3.213-1.819z"/><path fill="#F2B024" d="m129.5 203.055 3.213 1.819v-6.071l-3.213-1.819z"/><path fill="#EEDE6D" d="m129.5 190.696 3.213 1.819v-9.051l-3.213-1.819z"/><path fill="#313247" d="m134.797 206.049 3.213 1.819v-21.412l-3.213-1.819z"/><path fill="#F2B024" d="m134.797 190.707 3.213 1.82v-6.071l-3.213-1.819z"/><path fill="#EEDE6D" d="m134.797 206.044 3.213 1.819v-9.052l-3.213-1.819z"/><path fill="#313247" d="m140.055 209.006 3.213 1.819v-21.412l-3.213-1.819z"/><path fill="#F2B024" d="m140.055 209.004 3.213 1.819v-6.07l-3.213-1.819z"/><path fill="#EEDE6D" d="m140.055 196.645 3.213 1.819v-9.051l-3.213-1.819z"/><path fill="#313247" d="m105.721 168.183-2.002-1.14v21.412l42.445 24.108v-3.134l-40.443-22.968zM214.992 196.506l97.344-55.316v-21.413l-97.344 55.317z"/><path fill="#5B5C71" d="m310.312 139.173-95.32 54.177v3.156l97.344-55.316v-21.413l-2.024 1.14z"/><path fill="#5AD5E4" d="m218.656 179.052 3.17-1.798v-3.199l-3.17 1.797z"/><path fill="#EEDE6D" d="m218.656 183.704 3.17-1.797v-3.2l-3.17 1.797z"/><path fill="#5AD5E4" d="m218.656 188.352 3.17-1.797v-3.2l-3.17 1.798zM223.164 176.544l3.169-1.797v-3.2l-3.169 1.797zM223.164 181.184l3.169-1.797v-3.199l-3.169 1.797z"/><path fill="#F2B024" d="m223.164 185.825 3.169-1.819v-3.178l-3.169 1.797zM227.688 174.009l3.169-1.819v-3.178l-3.169 1.797z"/><path fill="#5AD5E4" d="m227.688 178.639 3.169-1.797v-3.178l-3.169 1.797zM227.688 183.299l3.169-1.797v-3.178l-3.169 1.797z"/><path fill="#EEDE6D" d="m232.18 171.475 3.169-1.797V166.5l-3.169 1.797z"/><path fill="#5AD5E4" d="m232.18 176.114 3.169-1.797v-3.2l-3.169 1.819z"/><path fill="#F2B024" d="m232.18 180.763 3.169-1.798v-3.199l-3.169 1.797z"/><path fill="#5AD5E4" d="m236.586 168.971 3.169-1.797v-3.178l-3.169 1.797zM236.586 178.263l3.169-1.798v-3.199l-3.169 1.797zM241.125 171.102l3.169-1.797v-3.2l-3.169 1.798z"/><path fill="#F2B024" d="m241.125 175.747 3.169-1.797v-3.2l-3.169 1.797zM245.648 163.93l3.17-1.797v-3.199l-3.17 1.797z"/><path fill="#5AD5E4" d="m245.648 173.235 3.17-1.819v-3.178l-3.17 1.797zM250.156 166.038l3.17-1.798v-3.178l-3.17 1.798z"/><path fill="#13121A" d="m103.719 144.479 42.445 24.107v-21.412l-42.445-24.108z"/><path fill="#313247" d="m108.375 147.135 3.213 1.819v-21.412l-3.213-1.819z"/><path fill="#F2B024" d="m108.375 147.133 3.213 1.819v-6.07l-3.213-1.82z"/><path fill="#EEDE6D" d="m108.375 134.774 3.213 1.819v-9.051l-3.213-1.819z"/><path fill="#313247" d="m113.68 150.135 3.213 1.819v-21.412l-3.213-1.819z"/><path fill="#F2B024" d="m113.68 134.793 3.213 1.819v-6.07l-3.213-1.819z"/><path fill="#EEDE6D" d="m113.68 150.13 3.213 1.819v-9.052l-3.213-1.819z"/><path fill="#313247" d="m118.945 153.088 3.214 1.841v-21.434l-3.214-1.819z"/><path fill="#F2B024" d="m118.945 153.086 3.214 1.841v-6.092l-3.214-1.819z"/><path fill="#EEDE6D" d="m118.945 140.727 3.214 1.819v-9.051l-3.214-1.819z"/><path fill="#313247" d="m124.242 156.1 3.214 1.841v-21.434l-3.214-1.819z"/><path fill="#F2B024" d="m124.242 140.758 3.214 1.841v-6.092l-3.214-1.819z"/><path fill="#EEDE6D" d="m124.242 156.094 3.214 1.841v-9.073l-3.214-1.819z"/><path fill="#313247" d="m129.5 159.053 3.213 1.841v-21.412l-3.213-1.841z"/><path fill="#F2B024" d="m129.5 159.051 3.213 1.841v-6.071l-3.213-1.841z"/><path fill="#EEDE6D" d="m129.5 146.692 3.213 1.841v-9.051l-3.213-1.841z"/><path fill="#313247" d="m134.797 162.053 3.213 1.841v-21.412l-3.213-1.841z"/><path fill="#F2B024" d="m134.797 146.711 3.213 1.841v-6.07l-3.213-1.841z"/><path fill="#EEDE6D" d="m134.797 162.048 3.213 1.84v-9.051l-3.213-1.841z"/><path fill="#313247" d="m140.055 165.025 3.213 1.841v-21.412l-3.213-1.841z"/><path fill="#F2B024" d="m140.055 165.024 3.213 1.841v-6.071l-3.213-1.841z"/><path fill="#EEDE6D" d="m140.055 152.665 3.213 1.841v-9.052l-3.213-1.841z"/><path fill="#313247" d="m105.721 124.206-2.002-1.14v21.413l42.445 24.107v-3.156l-40.443-22.968z"/><path fill="#A4A3CD" d="m97.18 63.14 111.184 64.544 110.59-62.658L206.956 0z"/><path fill="#313247" d="m214.992 152.936 97.344-55.317V76.207l-97.344 55.317z"/><path fill="#5B5C71" d="m310.312 95.603-95.32 54.177v3.156l97.344-55.317V76.207l-2.024 1.14z"/><path fill="#13121A" d="m103.719 101.102 42.445 24.108v-21.412l-42.445-24.13z"/><path fill="#313247" d="m108.375 103.752 3.213 1.819V84.159l-3.213-1.82z"/><path fill="#F2B024" d="m108.375 103.75 3.213 1.82v-6.071l-3.213-1.82z"/><path fill="#EEDE6D" d="m108.375 91.391 3.213 1.82v-9.052l-3.213-1.82z"/><path fill="#313247" d="m113.68 106.76 3.213 1.819V87.167l-3.213-1.82z"/><path fill="#F2B024" d="m113.68 91.418 3.213 1.82v-6.071l-3.213-1.82z"/><path fill="#EEDE6D" d="m113.68 106.755 3.213 1.819v-9.052l-3.213-1.819z"/><path fill="#313247" d="m118.945 109.721 3.214 1.819V90.128l-3.214-1.82z"/><path fill="#F2B024" d="m118.945 109.719 3.214 1.819v-6.071l-3.214-1.819z"/><path fill="#EEDE6D" d="m118.945 97.36 3.214 1.819v-9.051l-3.214-1.82z"/><path fill="#313247" d="m124.242 112.717 3.214 1.819V93.124l-3.214-1.82z"/><path fill="#F2B024" d="m124.242 97.376 3.214 1.819v-6.071l-3.214-1.82z"/><path fill="#EEDE6D" d="m124.242 112.712 3.214 1.819v-9.052l-3.214-1.819z"/><path fill="#313247" d="m129.5 115.678 3.213 1.819V96.085l-3.213-1.82z"/><path fill="#F2B024" d="m129.5 115.676 3.213 1.819v-6.071l-3.213-1.819z"/><path fill="#EEDE6D" d="m129.5 103.317 3.213 1.819v-9.051l-3.213-1.82z"/><path fill="#313247" d="m134.797 118.674 3.213 1.819V99.081l-3.213-1.82z"/><path fill="#F2B024" d="m134.797 103.332 3.213 1.82v-6.071l-3.213-1.82z"/><path fill="#EEDE6D" d="m134.797 118.669 3.213 1.819v-9.052l-3.213-1.819z"/><path fill="#313247" d="m140.055 121.646 3.213 1.82v-21.413l-3.213-1.819z"/><path fill="#F2B024" d="m140.055 121.645 3.213 1.819v-6.071l-3.213-1.819z"/><path fill="#EEDE6D" d="m140.055 109.286 3.213 1.819v-9.052l-3.213-1.819z"/><path fill="#313247" d="m105.721 80.83-2.002-1.162v21.434l42.445 24.108v-3.156l-40.443-22.968z"/><path fill="#13121A" d="m152.766 255.678 42.445 24.108v-21.413l-42.445-24.107z"/><path fill="#313247" d="m157.445 258.326 3.214 1.841v-21.434l-3.214-1.819z"/><path fill="#F2B024" d="m157.445 258.325 3.214 1.841v-6.093l-3.214-1.819z"/><path fill="#EEDE6D" d="m157.445 245.965 3.214 1.82v-9.052l-3.214-1.819z"/><path fill="#313247" d="m162.742 261.322 3.214 1.819v-21.412l-3.214-1.819z"/><path fill="#F2B024" d="m162.742 245.981 3.214 1.841v-6.093l-3.214-1.819z"/><path fill="#EEDE6D" d="m162.742 261.317 3.214 1.819v-9.029l-3.214-1.841z"/><path fill="#313247" d="m168.008 264.279 3.213 1.841v-21.434l-3.213-1.819z"/><path fill="#F2B024" d="m168.008 264.278 3.213 1.841v-6.093l-3.213-1.819z"/><path fill="#EEDE6D" d="m168.008 251.919 3.213 1.841v-9.074l-3.213-1.819z"/><path fill="#313247" d="m173.328 267.291 3.213 1.841V247.72l-3.213-1.841z"/><path fill="#F2B024" d="m173.328 251.95 3.213 1.841v-6.071l-3.213-1.841z"/><path fill="#EEDE6D" d="m173.328 267.286 3.213 1.841v-9.052l-3.213-1.841z"/><path fill="#313247" d="m178.594 270.244 3.213 1.841v-21.412l-3.213-1.841z"/><path fill="#F2B024" d="m178.594 270.243 3.213 1.841v-6.071l-3.213-1.841z"/><path fill="#EEDE6D" d="m178.594 257.883 3.213 1.841v-9.051l-3.213-1.841z"/><path fill="#313247" d="m183.891 273.256 3.213 1.841v-21.412l-3.213-1.841z"/><path fill="#F2B024" d="m183.891 257.915 3.213 1.84v-6.07l-3.213-1.841z"/><path fill="#EEDE6D" d="m183.891 273.251 3.213 1.841v-9.052l-3.213-1.841z"/><path fill="#313247" d="m189.125 276.231 3.213 1.819v-21.412l-3.213-1.841z"/><path fill="#F2B024" d="m189.125 276.229 3.213 1.82v-6.071l-3.213-1.841z"/><path fill="#EEDE6D" d="m189.125 263.848 3.213 1.841v-9.051l-3.213-1.841z"/><path fill="#313247" d="m154.79 235.405-2.024-1.139v21.412l42.445 24.108v-3.156l-40.421-22.968z"/><path fill="#13121A" d="m152.766 214.033 42.445 24.108v-21.412l-42.445-24.108z"/><path fill="#313247" d="m157.445 216.686 3.214 1.819v-21.413l-3.214-1.819z"/><path fill="#F2B024" d="m157.445 216.684 3.214 1.819v-6.071l-3.214-1.819z"/><path fill="#EEDE6D" d="m157.445 204.325 3.214 1.819v-9.052l-3.214-1.819z"/><path fill="#313247" d="m162.742 219.678 3.214 1.819v-21.412l-3.214-1.819z"/><path fill="#F2B024" d="m162.742 204.336 3.214 1.819v-6.07l-3.214-1.819z"/><path fill="#EEDE6D" d="m162.742 219.673 3.214 1.819v-9.052l-3.214-1.819z"/><path fill="#313247" d="m168.008 222.643 3.213 1.819v-21.413l-3.213-1.819z"/><path fill="#F2B024" d="m168.008 222.641 3.213 1.819v-6.071l-3.213-1.819z"/><path fill="#EEDE6D" d="m168.008 210.282 3.213 1.819v-9.052l-3.213-1.819z"/><path fill="#313247" d="m173.328 225.658 3.213 1.819v-21.412l-3.213-1.819z"/><path fill="#F2B024" d="m173.328 210.317 3.213 1.819v-6.071l-3.213-1.819z"/><path fill="#EEDE6D" d="m173.328 225.653 3.213 1.819v-9.051l-3.213-1.819z"/><path fill="#313247" d="m178.594 228.611 3.213 1.841v-21.434l-3.213-1.819z"/><path fill="#F2B024" d="m178.594 228.61 3.213 1.841v-6.093l-3.213-1.819z"/><path fill="#EEDE6D" d="m178.594 216.251 3.213 1.819v-9.052l-3.213-1.819z"/><path fill="#313247" d="m183.891 231.607 3.213 1.841v-21.434l-3.213-1.819z"/><path fill="#F2B024" d="m183.891 216.266 3.213 1.841v-6.093l-3.213-1.819z"/><path fill="#EEDE6D" d="m183.891 231.602 3.213 1.841v-9.051l-3.213-1.841z"/><path fill="#313247" d="m189.125 234.576 3.213 1.841v-21.412l-3.213-1.841z"/><path fill="#F2B024" d="m189.125 234.575 3.213 1.841v-6.071l-3.213-1.841z"/><path fill="#EEDE6D" d="m189.125 222.215 3.213 1.841v-9.051l-3.213-1.841z"/><path fill="#313247" d="m154.79 193.761-2.024-1.14v21.412l42.445 24.108v-3.156l-40.421-22.968z"/><path fill="#13121A" d="m152.766 170.025 42.445 24.108v-21.39l-42.445-24.13z"/><path fill="#313247" d="m157.445 172.682 3.214 1.841V153.11l-3.214-1.84z"/><path fill="#F2B024" d="m157.445 172.68 3.214 1.841v-6.071l-3.214-1.841z"/><path fill="#EEDE6D" d="m157.445 160.321 3.214 1.841v-9.052l-3.214-1.84z"/><path fill="#313247" d="m162.742 175.67 3.214 1.841v-21.412l-3.214-1.841z"/><path fill="#F2B024" d="m162.742 160.329 3.214 1.841v-6.071l-3.214-1.841z"/><path fill="#EEDE6D" d="m162.742 175.665 3.214 1.841v-9.052l-3.214-1.841z"/><path fill="#313247" d="m168.008 178.665 3.213 1.819v-21.413l-3.213-1.841z"/><path fill="#F2B024" d="m168.008 178.663 3.213 1.819v-6.071l-3.213-1.841z"/><path fill="#EEDE6D" d="m168.008 166.282 3.213 1.841v-9.052l-3.213-1.841z"/><path fill="#313247" d="m173.328 181.653 3.213 1.819V162.06l-3.213-1.841z"/><path fill="#F2B024" d="m173.328 166.311 3.213 1.82v-6.071l-3.213-1.841z"/><path fill="#EEDE6D" d="m173.328 181.653 3.213 1.819v-9.051l-3.213-1.819z"/><path fill="#313247" d="m178.594 184.615 3.213 1.819v-21.412l-3.213-1.819z"/><path fill="#F2B024" d="m178.594 184.614 3.213 1.819v-6.071l-3.213-1.819z"/><path fill="#EEDE6D" d="m178.594 172.255 3.213 1.819v-9.052l-3.213-1.819z"/><path fill="#313247" d="m183.891 187.631 3.213 1.819v-21.412l-3.213-1.819z"/><path fill="#F2B024" d="m183.891 172.29 3.213 1.819v-6.071l-3.213-1.819z"/><path fill="#EEDE6D" d="m183.891 187.626 3.213 1.819v-9.052l-3.213-1.819z"/><path fill="#313247" d="m189.125 190.568 3.213 1.819v-21.412l-3.213-1.819z"/><path fill="#F2B024" d="m189.125 190.567 3.213 1.819v-6.071l-3.213-1.819z"/><path fill="#EEDE6D" d="m189.125 178.208 3.213 1.819v-9.052l-3.213-1.819z"/><path fill="#313247" d="m154.79 149.753-2.024-1.14v21.412l42.445 24.108v-3.134l-40.421-22.968z"/><path fill="#13121A" d="m152.766 126.643 42.445 24.107v-21.412l-42.445-24.108z"/><path fill="#313247" d="m157.445 129.295 3.214 1.841v-21.434l-3.214-1.819z"/><path fill="#F2B024" d="m157.445 129.293 3.214 1.841v-6.092l-3.214-1.819z"/><path fill="#EEDE6D" d="m157.445 116.934 3.214 1.819v-9.051l-3.214-1.819z"/><path fill="#313247" d="m162.742 132.287 3.214 1.841v-21.434l-3.214-1.819z"/><path fill="#F2B024" d="m162.742 116.946 3.214 1.841v-6.093l-3.214-1.819z"/><path fill="#EEDE6D" d="m162.742 132.282 3.214 1.841v-9.073l-3.214-1.82z"/><path fill="#313247" d="m168.008 135.256 3.213 1.841v-21.412l-3.213-1.841z"/><path fill="#F2B024" d="m168.008 135.254 3.213 1.841v-6.07l-3.213-1.841z"/><path fill="#EEDE6D" d="m168.008 122.895 3.213 1.841v-9.051l-3.213-1.841z"/><path fill="#313247" d="m173.328 138.256 3.213 1.841v-21.412l-3.213-1.841z"/><path fill="#F2B024" d="m173.328 122.915 3.213 1.84v-6.07l-3.213-1.841z"/><path fill="#EEDE6D" d="m173.328 138.251 3.213 1.841v-9.052l-3.213-1.841z"/><path fill="#313247" d="m178.594 141.201 3.213 1.841V121.63l-3.213-1.841z"/><path fill="#F2B024" d="m178.594 141.2 3.213 1.841v-6.071l-3.213-1.841z"/><path fill="#EEDE6D" d="m178.594 128.84 3.213 1.841v-9.051l-3.213-1.841z"/><path fill="#313247" d="m183.891 144.217 3.213 1.841v-21.412l-3.213-1.841z"/><path fill="#F2B024" d="m183.891 128.897 3.213 1.819v-6.07l-3.213-1.841z"/><path fill="#EEDE6D" d="m183.891 144.212 3.213 1.841v-9.052l-3.213-1.841z"/><path fill="#313247" d="m189.125 147.204 3.213 1.819v-21.412l-3.213-1.841z"/><path fill="#F2B024" d="m189.125 147.202 3.213 1.819v-6.071l-3.213-1.841z"/><path fill="#EEDE6D" d="m189.125 134.821 3.213 1.841v-9.051l-3.213-1.841z"/><path fill="#313247" d="m154.79 106.37-2.024-1.14v21.413l42.445 24.107v-3.155l-40.421-22.969z"/><path fill="#5AD5E4" d="m218.656 135.485 3.17-1.797v-3.2l-3.17 1.797z"/><path fill="#EEDE6D" d="m218.656 140.13 3.17-1.797v-3.2l-3.17 1.797z"/><path fill="#5AD5E4" d="m218.656 144.778 3.17-1.797v-3.2l-3.17 1.797zM223.164 132.966l3.169-1.797v-3.2l-3.169 1.797zM223.164 137.614l3.169-1.819v-3.178l-3.169 1.797z"/><path fill="#F2B024" d="m223.164 142.237 3.169-1.797v-3.178l-3.169 1.797zM227.688 130.428l3.169-1.797v-3.178l-3.169 1.797z"/><path fill="#5AD5E4" d="m227.688 135.069 3.169-1.797v-3.178l-3.169 1.797zM227.688 139.727l3.169-1.797v-3.2l-3.169 1.819z"/><path fill="#EEDE6D" d="m232.18 127.903 3.169-1.797v-3.2l-3.169 1.819z"/><path fill="#5AD5E4" d="m232.18 132.548 3.169-1.797v-3.2l-3.169 1.797z"/><path fill="#F2B024" d="m232.18 137.184 3.169-1.797v-3.199l-3.169 1.797z"/><path fill="#5AD5E4" d="m236.586 125.415 3.169-1.797v-3.2l-3.169 1.819zM236.586 134.696l3.169-1.797v-3.2l-3.169 1.797zM241.125 127.532l3.169-1.797v-3.2l-3.169 1.797z"/><path fill="#F2B024" d="m241.125 132.18 3.169-1.797v-3.199l-3.169 1.797zM245.648 120.364l3.17-1.819v-3.178l-3.17 1.797z"/><path fill="#5AD5E4" d="m245.648 129.643 3.17-1.797v-3.178l-3.17 1.797zM271.836 235.989l3.169-1.797v-3.2l-3.169 1.797z"/><path fill="#EEDE6D" d="m271.836 240.634 3.169-1.797v-3.2l-3.169 1.797z"/><path fill="#5AD5E4" d="m271.836 245.282 3.169-1.797v-3.2l-3.169 1.797zM276.344 233.47l3.191-1.798v-3.199l-3.191 1.797zM276.344 238.118l3.191-1.819v-3.178l-3.191 1.797z"/><path fill="#F2B024" d="m276.344 242.741 3.191-1.797v-3.178l-3.191 1.797zM280.875 230.932l3.169-1.797v-3.178l-3.169 1.797z"/><path fill="#5AD5E4" d="m280.875 235.573 3.169-1.797v-3.178l-3.169 1.797zM280.875 240.231l3.169-1.797v-3.2l-3.169 1.819z"/><path fill="#EEDE6D" d="m285.383 228.407 3.169-1.797v-3.2l-3.169 1.819z"/><path fill="#5AD5E4" d="m285.383 233.052 3.169-1.798v-3.199l-3.169 1.797z"/><path fill="#F2B024" d="m285.383 237.688 3.169-1.797v-3.2l-3.169 1.798z"/><path fill="#5AD5E4" d="m289.781 225.919 3.17-1.797v-3.2l-3.17 1.819zM289.781 235.208l3.17-1.797v-3.2l-3.17 1.797zM294.297 228.04l3.191-1.797v-3.2l-3.191 1.797z"/><path fill="#F2B024" d="m294.297 232.684 3.191-1.797v-3.199l-3.191 1.797zM298.82 220.876l3.17-1.797v-3.2l-3.17 1.797z"/><path fill="#5AD5E4" d="m298.82 230.139 3.17-1.797v-3.178l-3.17 1.797zM303.328 222.971l3.169-1.797v-3.178l-3.169 1.797zM271.836 192.044l3.169-1.797v-3.2l-3.169 1.819z"/><path fill="#EEDE6D" d="m271.836 196.696 3.169-1.797v-3.2l-3.169 1.797z"/><path fill="#5AD5E4" d="m271.836 201.345 3.169-1.798v-3.199l-3.169 1.797zM276.344 189.536l3.191-1.797v-3.2l-3.191 1.797zM276.344 194.177l3.191-1.798v-3.199l-3.191 1.797z"/><path fill="#F2B024" d="m276.344 198.817 3.191-1.797v-3.2l-3.191 1.797zM280.875 187.001l3.169-1.819v-3.178l-3.169 1.797z"/><path fill="#5AD5E4" d="m280.875 191.653 3.169-1.819v-3.178l-3.169 1.797zM280.875 196.291l3.169-1.797v-3.178l-3.169 1.797z"/><path fill="#EEDE6D" d="m285.383 184.467 3.169-1.797v-3.178l-3.169 1.797z"/><path fill="#5AD5E4" d="m285.383 189.112 3.169-1.797v-3.178l-3.169 1.797z"/><path fill="#F2B024" d="m285.383 193.755 3.169-1.797v-3.2l-3.169 1.819z"/><path fill="#5AD5E4" d="m289.781 181.975 3.17-1.797V177l-3.17 1.797zM289.781 191.255l3.17-1.797v-3.2l-3.17 1.819zM294.297 184.083l3.191-1.797v-3.2l-3.191 1.797z"/><path fill="#F2B024" d="m294.297 188.743 3.191-1.797v-3.2l-3.191 1.797zM298.82 176.93l3.17-1.797v-3.199l-3.17 1.797z"/><path fill="#5AD5E4" d="m298.82 186.22 3.17-1.798v-3.199l-3.17 1.797zM303.328 179.067l3.169-1.819v-3.178l-3.169 1.797zM271.836 148.493l3.169-1.797v-3.2l-3.169 1.797z"/><path fill="#EEDE6D" d="m271.836 153.138 3.169-1.798v-3.199l-3.169 1.797z"/><path fill="#5AD5E4" d="m271.836 157.786 3.169-1.797v-3.2l-3.169 1.797zM276.344 145.973l3.191-1.797v-3.199l-3.191 1.797zM276.344 150.622l3.191-1.797v-3.2l-3.191 1.797z"/><path fill="#F2B024" d="m276.344 155.244 3.191-1.797v-3.177l-3.191 1.797zM280.875 143.458l3.169-1.819v-3.178l-3.169 1.797z"/><path fill="#5AD5E4" d="m280.875 148.077 3.169-1.798v-3.177l-3.169 1.797zM280.875 152.721l3.169-1.797v-3.178l-3.169 1.797z"/><path fill="#EEDE6D" d="m285.383 140.911 3.169-1.797v-3.2l-3.169 1.819z"/><path fill="#5AD5E4" d="m285.383 145.555 3.169-1.797v-3.199l-3.169 1.797z"/><path fill="#F2B024" d="m285.383 150.192 3.169-1.797v-3.2l-3.169 1.797z"/><path fill="#5AD5E4" d="m289.781 138.403 3.17-1.797v-3.2l-3.17 1.819zM289.781 147.684l3.17-1.797v-3.199l-3.17 1.797zM294.297 140.524l3.191-1.797v-3.2l-3.191 1.797z"/><path fill="#F2B024" d="m294.297 145.18 3.191-1.797v-3.199l-3.191 1.797zM298.82 133.364l3.17-1.797v-3.2l-3.17 1.797z"/><path fill="#5AD5E4" d="m298.82 142.653 3.17-1.819v-3.178l-3.17 1.797zM303.328 135.467l3.169-1.797v-3.178l-3.169 1.797zM271.836 104.919l3.169-1.797v-3.2l-3.169 1.797z"/><path fill="#EEDE6D" d="m271.836 109.563 3.169-1.797v-3.2l-3.169 1.798z"/><path fill="#5AD5E4" d="m271.836 114.212 3.169-1.819v-3.178l-3.169 1.797zM276.344 102.399l3.191-1.819v-3.178l-3.191 1.797zM276.344 107.026l3.191-1.797v-3.178l-3.191 1.797z"/><path fill="#F2B024" d="m276.344 111.67 3.191-1.797v-3.178l-3.191 1.797zM280.875 99.862l3.169-1.797v-3.178l-3.169 1.797z"/><path fill="#5AD5E4" d="m280.875 104.501 3.169-1.797v-3.2l-3.169 1.819zM280.875 109.161l3.169-1.797v-3.2l-3.169 1.797z"/><path fill="#EEDE6D" d="m285.383 97.337 3.169-1.797v-3.2l-3.169 1.797z"/><path fill="#5AD5E4" d="m285.383 101.981 3.169-1.797v-3.2l-3.169 1.797z"/><path fill="#F2B024" d="m285.383 106.618 3.169-1.797v-3.2l-3.169 1.797z"/><path fill="#5AD5E4" d="m289.781 104.126 3.17-1.797v-3.2l-3.17 1.797z"/><path fill="#F2B024" d="m294.297 101.598 3.191-1.819v-3.177l-3.191 1.797zM298.82 89.794l3.17-1.82v-3.177l-3.17 1.797z"/><path fill="#5AD5E4" d="m298.82 99.057 3.17-1.797v-3.178l-3.17 1.797zM250.156 122.459l3.17-1.797v-3.178l-3.17 1.798z"/><path fill="#5B5C71" d="M252.237 44.142c-10.606-8.22-26.8-12.931-44.425-12.931-10.54 0-20.75 1.731-29.529 5.04-13.796 5.173-22.95 13.83-25.084 23.714-1.629 7.561 1.056 15.298 7.569 21.74 10.034 9.95 28.385 16.131 47.924 16.131 10.474 0 20.727-1.775 29.639-5.128 14.566-5.48 23.808-14.552 25.37-24.875 1.298-8.526-2.773-16.963-11.464-23.691"/><path fill="#13121A" d="M250.233 46.697c-16.745-12.952-48.056-15.955-70.83-7.408s-30.453 26.19-16.371 40.173c14.985 14.859 48.606 19.878 74.131 10.278s30.893-29.236 13.07-43.043"/><path fill="#312F3A" d="M250.228 46.693c-16.745-12.952-48.056-15.955-70.83-7.408-19.077 7.167-27.571 20.711-21.52 33.138 1.783-7.561 9.044-14.618 20.728-19.002 20.551-7.714 48.804-5.018 63.92 6.685 8.538 6.597 11.178 14.684 8.34 22.135 13.048-10.344 13.334-24.743-.638-35.548"/><mask id="b" width="106" height="61" x="155" y="34" maskUnits="userSpaceOnUse" style="mask-type:luminance"><path fill="#fff" d="M163.048 79.467c14.984 14.86 48.606 19.878 74.13 10.279s30.893-29.236 13.07-43.022c-16.744-12.952-48.056-15.955-70.829-7.407-22.774 8.525-30.453 26.168-16.371 40.15"/></mask><g mask="url(#b)"><path fill="#A4A3CD" d="M162.875 67.276c-7.702 6.53-.682 13.325-.682 13.325 12.212-13.326 34.963-13.413 34.963-13.413l-1.936-3.222s-23.5-4.186-32.345 3.31"/><path fill="#A4A3CD" d="M169.024 48.822c-10.122 2.236-9.637 10.257-9.637 10.257 20.749-3.616 39.232 5.764 39.232 5.764l1.232-4.12s-22.598-13.72-30.827-11.9M185.832 40.017c-7.547-1.183-12.41 4.361-12.41 4.361 15.336 2.63 27.196 14.334 27.196 14.334l2.223-2.827c0-.022-7.834-14.443-17.009-15.868M234.703 41.441c-1.848 13.063-18.131 19.922-18.131 19.922l-.814 5.04c3.806 3.07 25.656 2.543 29.419-8.568 4.29-12.69-10.474-16.394-10.474-16.394M200.469 38.461c11.75 6.4 6.425 19.133 6.425 19.133l4.467 2.542c5.412-1.775 15.358-10.19 8.823-19.286-5.787-8.087-19.715-2.389-19.715-2.389"/><path fill="#A4A3CD" d="m215.97 66.858-5.853 3.353c8.912 7.868 29.551 20.777 41.301 11.462 12.52-9.928 5.721-18.103 5.721-18.103-24.358 8.328-41.169 3.288-41.169 3.288"/><path fill="#8E8DBD" d="M256.727 63.702c.396 2.564-.77 5.413-2.882 7.912-5.083 5.983-16.503 7.166-23.632 6.268-3.961-.483-7.547-2.28-11.112-3.573-3.102-1.14-6.183-2.432-8.867-4.164l-.132.066c8.911 7.868 29.55 20.777 41.3 11.462 12.52-9.928 5.721-18.103 5.721-18.103q-.165.066-.396.132"/><path fill="#A4A3CD" d="M205.852 70.507c2.574 11.352 11.001 31.34 25.7 27.855 15.622-3.726 19.143-13.369 19.143-13.369-23.676-5.37-38.242-15.012-38.242-15.012z"/><path fill="#8E8DBD" d="M246.602 89.287c-20.595 10.739-34.479-12.23-36.658-19.111l-4.092.329c2.574 11.352 11.001 31.34 25.7 27.855 15.622-3.726 19.143-13.369 19.143-13.369-.022 0-.066-.022-.088-.022-.902 1.6-2.134 3.332-4.005 4.318"/><path fill="#A4A3CD" d="m208.148 71.322-5.765-2.06c-8.142 4.492-9.902 33.707 2.134 33.816s18.945-10.848 18.945-10.848c-17.119-14.377-15.314-20.908-15.314-20.908"/><path fill="#8E8DBD" d="m202.44 69.295-.089-.022c-8.141 4.493-9.901 33.708 2.135 33.817 2.596.022 4.951-.46 7.041-1.249-15.975 1.096-15.468-26.694-9.087-32.546"/><path fill="#A4A3CD" d="M175.521 90.41c9.417 4.667 17.096-.088 17.096-.088 1.827-14.334 10.606-20.69 10.606-20.69l-5.545-2.366c-14.698 5.5-31.597 18.475-22.157 23.143"/></g><path fill="#F2B024" d="M217.648 67.636c-5.743 2.827-14.522 2.3-19.319-.965-2.245-1.512-3.191-3.375-2.971-5.128l-.726 2.74c-.22 1.884.748 3.857 3.059 5.544 4.95 3.595 14.038 4.318 19.979 1.381 3.036-1.49 4.533-3.616 4.467-5.786l-.154-3.243c.044 1.994-1.387 4.01-4.335 5.457"/><path fill="#EEDE6D" d="M217.922 57.027c-5.105-2.783-13.18-2.871-18.285-.35-5.127 2.52-5.809 6.925-1.298 9.993 4.797 3.266 13.576 3.792 19.319.964 5.721-2.827 5.699-7.67.264-10.607"/><path fill="#54608A" d="M215.32 58.455c-3.674-1.994-9.505-2.06-13.18-.24-3.697 1.818-4.203 4.996-.946 7.21 3.455 2.367 9.791 2.74 13.928.7 4.137-2.06 4.115-5.544.198-7.67"/><path fill="#676F93" d="M215.325 58.444c-3.674-1.995-9.505-2.06-13.18-.242-2.552 1.25-3.586 3.178-2.882 4.954.374-.965 1.276-1.885 2.684-2.587 3.411-1.687 8.801-1.621 12.234.22 2.134 1.161 3.015 2.74 2.618 4.23 2.355-2.017 1.827-4.778-1.474-6.576"/><path fill="#5B5C71" d="m241.75 322.624 111.206 64.565V211.311L241.75 146.746z"/><path fill="#13121A" d="m352.938 387.344 111.14-63.119V148.172l-111.14 63.141z"/><path fill="#313247" d="m359.562 367.248 97.345-55.316V290.52l-97.345 55.338z"/><path fill="#5B5C71" d="m454.904 309.937-95.342 54.177v3.134l97.345-55.316V290.52l-2.003 1.139z"/><path fill="#5AD5E4" d="m363.258 350.165 3.169-1.797v-3.2l-3.169 1.819z"/><path fill="#EEDE6D" d="m363.258 354.817 3.169-1.797v-3.2l-3.169 1.797z"/><path fill="#5AD5E4" d="m363.258 359.466 3.169-1.798v-3.199l-3.169 1.797zM367.766 347.657l3.169-1.797v-3.2l-3.169 1.797zM367.766 352.298l3.169-1.797v-3.2l-3.169 1.797z"/><path fill="#F2B024" d="m367.766 356.938 3.169-1.797v-3.2l-3.169 1.798zM372.289 345.122l3.169-1.819v-3.178l-3.169 1.797z"/><path fill="#5AD5E4" d="m372.289 349.774 3.169-1.819v-3.178l-3.169 1.797zM372.289 354.413l3.169-1.798v-3.177l-3.169 1.797z"/><path fill="#EEDE6D" d="m376.781 342.588 3.17-1.797v-3.178l-3.17 1.797z"/><path fill="#5AD5E4" d="m376.781 347.227 3.17-1.797v-3.2l-3.17 1.82z"/><path fill="#F2B024" d="m376.781 351.876 3.17-1.797v-3.2l-3.17 1.819z"/><path fill="#5AD5E4" d="m381.203 340.096 3.169-1.797v-3.178l-3.169 1.797zM381.203 349.38l3.169-1.797v-3.2l-3.169 1.819zM385.711 342.216l3.169-1.798v-3.199l-3.169 1.797z"/><path fill="#F2B024" d="m385.711 346.872 3.169-1.797v-3.2l-3.169 1.797zM390.234 335.048l3.17-1.797v-3.2l-3.17 1.797z"/><path fill="#5AD5E4" d="m390.234 344.349 3.17-1.798v-3.199l-3.17 1.797zM394.742 337.184l3.17-1.819v-3.177l-3.17 1.797z"/><path fill="#13121A" d="m248.336 313.732 42.445 24.108v-21.412l-42.445-24.108z"/><path fill="#313247" d="m253 316.389 3.213 1.819v-21.412L253 294.977z"/><path fill="#F2B024" d="m253 316.387 3.213 1.819v-6.071L253 310.316z"/><path fill="#EEDE6D" d="m253 304.028 3.213 1.819v-9.051L253 294.977z"/><path fill="#313247" d="m258.305 319.381 3.213 1.819v-21.412l-3.213-1.819z"/><path fill="#F2B024" d="m258.305 304.04 3.213 1.819v-6.071l-3.213-1.819z"/><path fill="#EEDE6D" d="m258.305 319.376 3.213 1.819v-9.052l-3.213-1.819z"/><path fill="#313247" d="m263.562 322.35 3.214 1.819v-21.413l-3.214-1.818z"/><path fill="#F2B024" d="m263.562 322.348 3.214 1.819v-6.071l-3.214-1.819z"/><path fill="#EEDE6D" d="m263.562 309.989 3.214 1.819v-9.052l-3.214-1.818z"/><path fill="#313247" d="m268.859 325.346 3.214 1.819v-21.412l-3.214-1.819z"/><path fill="#F2B024" d="m268.859 310.004 3.214 1.819v-6.07l-3.214-1.819z"/><path fill="#EEDE6D" d="m268.859 325.34 3.214 1.82v-9.052l-3.214-1.819z"/><path fill="#313247" d="m274.117 328.311 3.213 1.819v-21.412l-3.213-1.82z"/><path fill="#F2B024" d="m274.117 328.309 3.213 1.819v-6.071l-3.213-1.819z"/><path fill="#EEDE6D" d="m274.117 315.95 3.213 1.819v-9.051l-3.213-1.82z"/><path fill="#313247" d="m279.438 331.303 3.213 1.819V311.71l-3.213-1.819z"/><path fill="#F2B024" d="m279.438 315.961 3.213 1.819v-6.07l-3.213-1.819z"/><path fill="#EEDE6D" d="m279.438 331.298 3.213 1.818v-9.051l-3.213-1.819z"/><path fill="#313247" d="m284.695 334.275 3.214 1.841v-21.434l-3.214-1.819z"/><path fill="#F2B024" d="m284.695 334.274 3.214 1.841v-6.093l-3.214-1.819z"/><path fill="#EEDE6D" d="m284.695 321.915 3.214 1.841v-9.074l-3.214-1.819z"/><path fill="#313247" d="m250.338 293.46-2.002-1.14v21.412l42.445 24.108v-3.156l-40.443-22.968zM359.562 323.682l97.345-55.317v-21.412l-97.345 55.317z"/><path fill="#5B5C71" d="m454.904 266.371-95.342 54.155v3.156l97.345-55.317v-21.412l-2.003 1.14z"/><path fill="#5AD5E4" d="m363.258 306.233 3.169-1.797v-3.178l-3.169 1.797z"/><path fill="#EEDE6D" d="m363.258 310.88 3.169-1.797v-3.2l-3.169 1.819z"/><path fill="#5AD5E4" d="m363.258 315.528 3.169-1.797v-3.2l-3.169 1.797zM367.766 303.719l3.169-1.797v-3.199l-3.169 1.797zM367.766 308.36l3.169-1.797v-3.2l-3.169 1.797z"/><path fill="#F2B024" d="m367.766 313.001 3.169-1.797v-3.2l-3.169 1.797zM372.289 301.184l3.169-1.797v-3.199l-3.169 1.797z"/><path fill="#5AD5E4" d="m372.289 305.837 3.169-1.797v-3.2l-3.169 1.797zM372.289 310.497l3.169-1.819V305.5l-3.169 1.797z"/><path fill="#EEDE6D" d="m376.781 298.673 3.17-1.819v-3.178l-3.17 1.797z"/><path fill="#5AD5E4" d="m376.781 303.317 3.17-1.819v-3.178l-3.17 1.797z"/><path fill="#F2B024" d="m376.781 307.932 3.17-1.797v-3.178l-3.17 1.797z"/><path fill="#5AD5E4" d="m381.203 296.177 3.169-1.798v-3.199l-3.169 1.797zM381.203 305.436l3.169-1.797v-3.178l-3.169 1.797zM385.711 298.282l3.169-1.797v-3.2l-3.169 1.819z"/><path fill="#F2B024" d="m385.711 302.931 3.169-1.798v-3.199l-3.169 1.819zM390.234 291.11l3.17-1.797v-3.2l-3.17 1.819z"/><path fill="#5AD5E4" d="m390.234 300.407 3.17-1.797v-3.2l-3.17 1.797zM394.742 293.243l3.17-1.797v-3.2l-3.17 1.797z"/><path fill="#13121A" d="m248.336 272.06 42.445 24.13v-21.412l-42.445-24.13z"/><path fill="#313247" d="m253 274.735 3.213 1.819v-21.412L253 253.301z"/><path fill="#F2B024" d="m253 274.733 3.213 1.819v-6.07L253 268.641z"/><path fill="#EEDE6D" d="m253 262.352 3.213 1.841v-9.051L253 253.301z"/><path fill="#313247" d="m258.305 277.731 3.213 1.819v-21.412l-3.213-1.841z"/><path fill="#F2B024" d="m258.305 262.39 3.213 1.819v-6.071l-3.213-1.841z"/><path fill="#EEDE6D" d="m258.305 277.731 3.213 1.819v-9.051l-3.213-1.819z"/><path fill="#313247" d="m263.562 280.713 3.214 1.819V261.12l-3.214-1.819z"/><path fill="#F2B024" d="m263.562 280.711 3.214 1.819v-6.07l-3.214-1.819z"/><path fill="#EEDE6D" d="m263.562 268.352 3.214 1.819v-9.051l-3.214-1.819z"/><path fill="#313247" d="m268.859 283.693 3.214 1.819V264.1l-3.214-1.819z"/><path fill="#F2B024" d="m268.859 268.352 3.214 1.819V264.1l-3.214-1.819z"/><path fill="#EEDE6D" d="m268.859 283.688 3.214 1.819v-9.051l-3.214-1.819z"/><path fill="#313247" d="m274.117 286.654 3.213 1.819v-21.412l-3.213-1.819z"/><path fill="#F2B024" d="m274.117 286.653 3.213 1.819v-6.071l-3.213-1.819z"/><path fill="#EEDE6D" d="m274.117 274.294 3.213 1.819v-9.052l-3.213-1.819z"/><path fill="#313247" d="m279.438 289.662 3.213 1.819v-21.412l-3.213-1.819z"/><path fill="#F2B024" d="m279.438 274.321 3.213 1.819v-6.071l-3.213-1.819z"/><path fill="#EEDE6D" d="m279.438 289.657 3.213 1.819v-9.051l-3.213-1.82z"/><path fill="#313247" d="m284.695 292.608 3.214 1.819v-21.413l-3.214-1.819z"/><path fill="#F2B024" d="m284.695 292.606 3.214 1.819v-6.071l-3.214-1.819z"/><path fill="#EEDE6D" d="m284.695 280.247 3.214 1.819v-9.052l-3.214-1.819z"/><path fill="#313247" d="m250.338 251.81-2.002-1.162v21.412l42.445 24.13v-3.156l-40.443-22.968zM359.562 280.115l97.345-55.316v-21.412l-97.345 55.316z"/><path fill="#5B5C71" d="m454.904 222.783-95.342 54.177v3.155l97.345-55.316v-21.412l-2.003 1.139z"/><path fill="#5AD5E4" d="m363.258 262.657 3.169-1.797v-3.2l-3.169 1.819z"/><path fill="#EEDE6D" d="m363.258 267.309 3.169-1.797v-3.2l-3.169 1.82z"/><path fill="#5AD5E4" d="m363.258 271.958 3.169-1.797v-3.2l-3.169 1.797zM367.766 260.149l3.169-1.797v-3.2l-3.169 1.797zM367.766 264.79l3.169-1.797v-3.2l-3.169 1.797z"/><path fill="#F2B024" d="m367.766 269.43 3.169-1.797v-3.199l-3.169 1.797zM372.289 257.614l3.169-1.797v-3.2l-3.169 1.797z"/><path fill="#5AD5E4" d="m372.289 262.266 3.169-1.819v-3.177l-3.169 1.797zM372.289 266.905l3.169-1.797v-3.178l-3.169 1.797z"/><path fill="#EEDE6D" d="m376.781 255.08 3.17-1.797v-3.178l-3.17 1.797z"/><path fill="#5AD5E4" d="m376.781 259.725 3.17-1.797v-3.178l-3.17 1.797z"/><path fill="#F2B024" d="m376.781 264.368 3.17-1.797v-3.2l-3.17 1.819z"/><path fill="#5AD5E4" d="m381.203 252.58 3.169-1.797v-3.178l-3.169 1.798zM381.203 261.872l3.169-1.797v-3.2l-3.169 1.819zM385.711 254.712l3.169-1.797v-3.2l-3.169 1.797z"/><path fill="#F2B024" d="m385.711 259.356 3.169-1.797v-3.2l-3.169 1.797zM390.234 247.54l3.17-1.797v-3.2l-3.17 1.797z"/><path fill="#5AD5E4" d="m390.234 256.844 3.17-1.797v-3.199l-3.17 1.797zM394.742 249.669l3.17-1.819v-3.178l-3.17 1.797z"/><path fill="#13121A" d="m248.336 228.084 42.445 24.108V230.78l-42.445-24.108z"/><path fill="#313247" d="m253 230.748 3.213 1.819v-21.412L253 209.336z"/><path fill="#F2B024" d="m253 230.747 3.213 1.819v-6.071L253 224.676z"/><path fill="#EEDE6D" d="m253 218.387 3.213 1.819v-9.051L253 209.336z"/><path fill="#313247" d="m258.305 233.736 3.213 1.841v-21.434l-3.213-1.819z"/><path fill="#F2B024" d="m258.305 218.395 3.213 1.841v-6.093l-3.213-1.819z"/><path fill="#EEDE6D" d="m258.305 233.731 3.213 1.841v-9.073l-3.213-1.819z"/><path fill="#313247" d="m263.562 236.689 3.214 1.841v-21.412l-3.214-1.841z"/><path fill="#F2B024" d="m263.562 236.688 3.214 1.841v-6.071l-3.214-1.841z"/><path fill="#EEDE6D" d="m263.562 224.329 3.214 1.841v-9.052l-3.214-1.841z"/><path fill="#313247" d="m268.859 239.697 3.214 1.841v-21.412l-3.214-1.841z"/><path fill="#F2B024" d="m268.859 224.356 3.214 1.841v-6.071l-3.214-1.841z"/><path fill="#EEDE6D" d="m268.859 239.692 3.214 1.841v-9.051l-3.214-1.841z"/><path fill="#313247" d="m274.117 242.662 3.213 1.841v-21.412l-3.213-1.841z"/><path fill="#F2B024" d="m274.117 242.661 3.213 1.841v-6.071l-3.213-1.841z"/><path fill="#EEDE6D" d="m274.117 230.301 3.213 1.841v-9.051l-3.213-1.841z"/><path fill="#313247" d="m279.438 245.654 3.213 1.841v-21.412l-3.213-1.841z"/><path fill="#F2B024" d="m279.438 230.313 3.213 1.841v-6.071l-3.213-1.841z"/><path fill="#EEDE6D" d="m279.438 245.649 3.213 1.841v-9.051l-3.213-1.841z"/><path fill="#313247" d="m284.695 248.623 3.214 1.841v-21.412l-3.214-1.841z"/><path fill="#F2B024" d="m284.695 248.621 3.214 1.842v-6.071l-3.214-1.841z"/><path fill="#EEDE6D" d="m284.695 236.262 3.214 1.841v-9.051l-3.214-1.841z"/><path fill="#313247" d="m250.338 207.812-2.002-1.14v21.412l42.445 24.108v-3.156l-40.443-22.968z"/><path fill="#A4A3CD" d="m241.75 146.75 111.206 64.565 110.59-62.68-112.02-65.026z"/><path fill="#313247" d="m359.562 236.545 97.345-55.316v-21.413l-97.345 55.317z"/><path fill="#5B5C71" d="m454.904 179.212-95.342 54.177v3.156l97.345-55.316v-21.413l-2.003 1.14z"/><path fill="#13121A" d="m248.336 184.705 42.445 24.108v-21.412l-42.445-24.108z"/><path fill="#313247" d="m253 187.354 3.213 1.819V167.76L253 165.941z"/><path fill="#F2B024" d="m253 187.352 3.213 1.819V183.1L253 181.281z"/><path fill="#EEDE6D" d="m253 174.993 3.213 1.819v-9.052L253 165.941z"/><path fill="#313247" d="m258.305 190.357 3.213 1.82v-21.413l-3.213-1.819z"/><path fill="#F2B024" d="m258.305 175.016 3.213 1.819v-6.071l-3.213-1.819z"/><path fill="#EEDE6D" d="m258.305 190.352 3.213 1.819v-9.051l-3.213-1.819z"/><path fill="#313247" d="m263.562 193.322 3.214 1.819v-21.412l-3.214-1.819z"/><path fill="#F2B024" d="m263.562 193.321 3.214 1.819v-6.071l-3.214-1.819z"/><path fill="#EEDE6D" d="m263.562 180.962 3.214 1.819v-9.052l-3.214-1.819z"/><path fill="#313247" d="m268.859 196.314 3.214 1.82v-21.413l-3.214-1.819z"/><path fill="#F2B024" d="m268.859 180.973 3.214 1.819v-6.071l-3.214-1.819z"/><path fill="#EEDE6D" d="m268.859 196.309 3.214 1.819v-9.051l-3.214-1.819z"/><path fill="#313247" d="m274.117 199.279 3.213 1.819v-21.412l-3.213-1.819z"/><path fill="#F2B024" d="m274.117 199.278 3.213 1.819v-6.071l-3.213-1.819z"/><path fill="#EEDE6D" d="m274.117 186.919 3.213 1.819v-9.052l-3.213-1.819z"/><path fill="#313247" d="m279.438 202.279 3.213 1.841v-21.434l-3.213-1.819z"/><path fill="#F2B024" d="m279.438 186.938 3.213 1.841v-6.093l-3.213-1.819z"/><path fill="#EEDE6D" d="m279.438 202.274 3.213 1.841v-9.073l-3.213-1.819z"/><path fill="#313247" d="m284.695 205.236 3.214 1.841v-21.412l-3.214-1.841z"/><path fill="#F2B024" d="m284.695 205.235 3.214 1.841v-6.093l-3.214-1.819z"/><path fill="#EEDE6D" d="m284.695 192.876 3.214 1.841v-9.052l-3.214-1.841z"/><path fill="#313247" d="m250.338 164.433-2.002-1.14v21.412l42.445 24.108v-3.156l-40.443-22.968z"/><path fill="#13121A" d="m297.352 339.279 42.444 24.108v-21.412l-42.444-24.108z"/><path fill="#313247" d="m302.016 341.932 3.213 1.841v-21.434l-3.213-1.819z"/><path fill="#F2B024" d="m302.016 341.93 3.213 1.841v-6.093l-3.213-1.819z"/><path fill="#EEDE6D" d="m302.016 329.571 3.213 1.841v-9.073l-3.213-1.819z"/><path fill="#313247" d="m307.359 344.932 3.214 1.841V325.36l-3.214-1.84z"/><path fill="#F2B024" d="m307.359 329.59 3.214 1.841v-6.071l-3.214-1.84z"/><path fill="#EEDE6D" d="m307.359 344.926 3.214 1.841v-9.051l-3.214-1.841z"/><path fill="#313247" d="m312.586 347.897 3.213 1.84v-21.412l-3.213-1.841z"/><path fill="#F2B024" d="m312.586 347.895 3.213 1.841v-6.071l-3.213-1.841z"/><path fill="#EEDE6D" d="m312.586 335.536 3.213 1.841v-9.052l-3.213-1.841z"/><path fill="#313247" d="m317.867 350.904 3.236 1.841v-21.412l-3.236-1.841z"/><path fill="#F2B024" d="m317.867 335.563 3.236 1.841v-6.071l-3.236-1.841z"/><path fill="#EEDE6D" d="m317.867 350.899 3.236 1.841v-9.051l-3.236-1.841z"/><path fill="#313247" d="m323.148 353.868 3.214 1.819v-21.412l-3.214-1.841z"/><path fill="#F2B024" d="m323.148 353.866 3.214 1.819v-6.071l-3.214-1.841z"/><path fill="#EEDE6D" d="m323.148 341.485 3.214 1.841v-9.051l-3.214-1.841z"/><path fill="#313247" d="m328.461 356.883 3.235 1.819V337.29l-3.235-1.841z"/><path fill="#F2B024" d="m328.461 341.542 3.235 1.819v-6.071l-3.235-1.841z"/><path fill="#EEDE6D" d="m328.461 356.883 3.235 1.82v-9.052l-3.235-1.819z"/><path fill="#313247" d="m333.719 359.842 3.235 1.819v-21.412l-3.235-1.819z"/><path fill="#F2B024" d="m333.719 359.84 3.235 1.819v-6.071l-3.235-1.818z"/><path fill="#EEDE6D" d="m333.719 347.481 3.235 1.819v-9.051l-3.235-1.819z"/><path fill="#313247" d="m299.376 319.007-2.024-1.14v21.412l42.444 24.108v-3.156l-40.42-22.946z"/><path fill="#13121A" d="m297.352 297.643 42.444 24.107v-21.412l-42.444-24.108z"/><path fill="#313247" d="m302.016 300.291 3.213 1.819v-21.412l-3.213-1.819z"/><path fill="#F2B024" d="m302.016 300.29 3.213 1.819v-6.071l-3.213-1.819z"/><path fill="#EEDE6D" d="m302.016 287.93 3.213 1.819v-9.051l-3.213-1.819z"/><path fill="#313247" d="m307.359 303.299 3.214 1.819v-21.412l-3.214-1.819z"/><path fill="#F2B024" d="m307.359 287.957 3.214 1.82v-6.071l-3.214-1.819z"/><path fill="#EEDE6D" d="m307.359 303.294 3.214 1.819v-9.052l-3.214-1.819z"/><path fill="#313247" d="m312.586 306.26 3.213 1.819v-21.412l-3.213-1.819z"/><path fill="#F2B024" d="m312.586 306.258 3.213 1.819v-6.07l-3.213-1.819z"/><path fill="#EEDE6D" d="m312.586 293.899 3.213 1.819v-9.051l-3.213-1.819z"/><path fill="#313247" d="m317.867 309.256 3.236 1.841v-21.434l-3.236-1.819z"/><path fill="#F2B024" d="m317.867 293.915 3.236 1.84v-6.092l-3.236-1.819z"/><path fill="#EEDE6D" d="m317.867 309.251 3.236 1.841v-9.052l-3.236-1.841z"/><path fill="#313247" d="m323.148 312.217 3.214 1.841v-21.412l-3.214-1.841z"/><path fill="#F2B024" d="m323.148 312.215 3.214 1.841v-6.07l-3.214-1.841z"/><path fill="#EEDE6D" d="m323.148 299.856 3.214 1.841v-9.051l-3.214-1.841z"/><path fill="#313247" d="m328.461 315.221 3.235 1.841v-21.413l-3.235-1.84z"/><path fill="#F2B024" d="m328.461 299.879 3.235 1.841v-6.071l-3.235-1.84z"/><path fill="#EEDE6D" d="m328.461 315.215 3.235 1.841v-9.051l-3.235-1.841z"/><path fill="#313247" d="m333.719 318.182 3.235 1.841V298.61l-3.235-1.84z"/><path fill="#F2B024" d="m333.719 318.18 3.235 1.841v-6.071l-3.235-1.841z"/><path fill="#EEDE6D" d="m333.719 305.821 3.235 1.841v-9.052l-3.235-1.84z"/><path fill="#313247" d="m299.376 277.37-2.024-1.14v21.413l42.444 24.107v-3.155l-40.42-22.969z"/><path fill="#13121A" d="m297.352 253.635 42.444 24.13v-21.413l-42.444-24.129z"/><path fill="#313247" d="m302.016 256.313 3.213 1.819V236.72l-3.213-1.841z"/><path fill="#F2B024" d="m302.016 256.311 3.213 1.819v-6.07l-3.213-1.841z"/><path fill="#EEDE6D" d="m302.016 243.93 3.213 1.841v-9.051l-3.213-1.841z"/><path fill="#313247" d="m307.359 259.297 3.214 1.819v-21.412l-3.214-1.841z"/><path fill="#F2B024" d="m307.359 243.956 3.214 1.819v-6.071l-3.214-1.841z"/><path fill="#EEDE6D" d="m307.359 259.298 3.214 1.819v-9.052l-3.214-1.819z"/><path fill="#313247" d="m312.586 262.275 3.213 1.819v-21.412l-3.213-1.819z"/><path fill="#F2B024" d="m312.586 262.274 3.213 1.819v-6.071l-3.213-1.819z"/><path fill="#EEDE6D" d="m312.586 249.915 3.213 1.819v-9.052l-3.213-1.819z"/><path fill="#313247" d="m317.867 265.272 3.236 1.819v-21.413l-3.236-1.819z"/><path fill="#F2B024" d="m317.867 249.93 3.236 1.819v-6.071l-3.236-1.819z"/><path fill="#EEDE6D" d="m317.867 265.266 3.236 1.819v-9.051l-3.236-1.819z"/><path fill="#313247" d="m323.148 268.225 3.214 1.819v-21.413l-3.214-1.819z"/><path fill="#F2B024" d="m323.148 268.223 3.214 1.819v-6.071l-3.214-1.819z"/><path fill="#EEDE6D" d="m323.148 255.864 3.214 1.819v-9.052l-3.214-1.819z"/><path fill="#313247" d="m328.461 271.232 3.235 1.819v-21.412l-3.235-1.819z"/><path fill="#F2B024" d="m328.461 255.891 3.235 1.819v-6.071l-3.235-1.819z"/><path fill="#EEDE6D" d="m328.461 271.227 3.235 1.819v-9.051l-3.235-1.819z"/><path fill="#313247" d="m333.719 274.186 3.235 1.819v-21.412l-3.235-1.82z"/><path fill="#F2B024" d="m333.719 274.184 3.235 1.819v-6.071l-3.235-1.819z"/><path fill="#EEDE6D" d="m333.719 261.825 3.235 1.819v-9.051l-3.235-1.82z"/><path fill="#313247" d="m299.376 233.384-2.024-1.161v21.412l42.444 24.13v-3.156l-40.42-22.969z"/><path fill="#13121A" d="m297.352 210.264 42.444 24.108v-21.413l-42.444-24.107z"/><path fill="#313247" d="m302.016 212.916 3.213 1.841v-21.412l-3.213-1.841z"/><path fill="#F2B024" d="m302.016 212.915 3.213 1.84v-6.07l-3.213-1.841z"/><path fill="#EEDE6D" d="m302.016 200.555 3.213 1.841v-9.051l-3.213-1.841z"/><path fill="#313247" d="m307.359 215.912 3.214 1.841v-21.412l-3.214-1.841z"/><path fill="#F2B024" d="m307.359 200.571 3.214 1.841v-6.071l-3.214-1.841z"/><path fill="#EEDE6D" d="m307.359 215.907 3.214 1.841v-9.052l-3.214-1.841z"/><path fill="#313247" d="m312.586 218.889 3.213 1.841v-21.412l-3.213-1.841z"/><path fill="#F2B024" d="m312.586 218.887 3.213 1.841v-6.071l-3.213-1.841z"/><path fill="#EEDE6D" d="m312.586 206.528 3.213 1.841v-9.051l-3.213-1.841z"/><path fill="#313247" d="m317.867 221.877 3.236 1.841v-21.412l-3.236-1.841z"/><path fill="#F2B024" d="m317.867 206.536 3.236 1.841v-6.071l-3.236-1.841z"/><path fill="#EEDE6D" d="m317.867 221.872 3.236 1.841v-9.052l-3.236-1.841z"/><path fill="#313247" d="m323.148 224.852 3.214 1.819v-21.412l-3.214-1.841z"/><path fill="#F2B024" d="m323.148 224.851 3.214 1.819v-6.071l-3.214-1.841z"/><path fill="#EEDE6D" d="m323.148 212.469 3.214 1.841v-9.051l-3.214-1.841z"/><path fill="#313247" d="m328.461 227.864 3.235 1.819v-21.412l-3.235-1.841z"/><path fill="#F2B024" d="m328.461 212.522 3.235 1.819v-6.07l-3.235-1.841z"/><path fill="#EEDE6D" d="m328.461 227.864 3.235 1.819v-9.051l-3.235-1.82z"/><path fill="#313247" d="m333.719 230.822 3.235 1.819v-21.412l-3.235-1.819z"/><path fill="#F2B024" d="m333.719 230.821 3.235 1.819v-6.071l-3.235-1.819z"/><path fill="#EEDE6D" d="m333.719 218.462 3.235 1.819v-9.052l-3.235-1.819z"/><path fill="#313247" d="m299.376 189.991-2.024-1.139v21.412l42.444 24.108v-3.156l-40.42-22.947z"/><path fill="#5AD5E4" d="m363.258 219.091 3.169-1.798v-3.199l-3.169 1.797z"/><path fill="#EEDE6D" d="m363.258 223.743 3.169-1.797v-3.2l-3.169 1.797z"/><path fill="#5AD5E4" d="m363.258 228.391 3.169-1.797v-3.199l-3.169 1.797zM367.766 216.583l3.169-1.797v-3.2l-3.169 1.797zM367.766 221.223l3.169-1.797v-3.199l-3.169 1.797z"/><path fill="#F2B024" d="m367.766 225.864 3.169-1.819v-3.178l-3.169 1.797zM372.289 214.048l3.169-1.819v-3.178l-3.169 1.797z"/><path fill="#5AD5E4" d="m372.289 218.678 3.169-1.797v-3.178l-3.169 1.797zM372.289 223.338l3.169-1.797v-3.178l-3.169 1.797z"/><path fill="#EEDE6D" d="m376.781 211.514 3.17-1.797v-3.178l-3.17 1.797z"/><path fill="#5AD5E4" d="m376.781 216.153 3.17-1.797v-3.2l-3.17 1.819z"/><path fill="#F2B024" d="m376.781 220.802 3.17-1.798v-3.199l-3.17 1.797z"/><path fill="#5AD5E4" d="m381.203 209.014 3.169-1.797v-3.178l-3.169 1.797zM381.203 218.305l3.169-1.797v-3.199l-3.169 1.797zM385.711 211.141l3.169-1.797v-3.199l-3.169 1.797z"/><path fill="#F2B024" d="m385.711 215.79 3.169-1.797v-3.2l-3.169 1.797zM390.234 203.973l3.17-1.797v-3.199l-3.17 1.797z"/><path fill="#5AD5E4" d="m390.234 213.274 3.17-1.819v-3.178l-3.17 1.797zM416.43 319.587l3.169-1.797v-3.2l-3.169 1.797z"/><path fill="#EEDE6D" d="m416.43 324.239 3.169-1.797v-3.2l-3.169 1.797z"/><path fill="#5AD5E4" d="m416.43 328.887 3.169-1.797v-3.199l-3.169 1.797zM420.938 317.079l3.191-1.797v-3.2l-3.191 1.797zM420.938 321.72l3.191-1.798v-3.199l-3.191 1.797z"/><path fill="#F2B024" d="m420.938 326.36 3.191-1.819v-3.178l-3.191 1.797zM425.469 314.544l3.169-1.819v-3.178l-3.169 1.797z"/><path fill="#5AD5E4" d="m425.469 319.174 3.169-1.797v-3.178l-3.169 1.797zM425.469 323.834l3.169-1.797v-3.178l-3.169 1.798z"/><path fill="#EEDE6D" d="m429.977 312.01 3.169-1.797v-3.178l-3.169 1.797z"/><path fill="#5AD5E4" d="m429.977 316.649 3.169-1.797v-3.2l-3.169 1.819z"/><path fill="#F2B024" d="m429.977 321.298 3.169-1.797v-3.2l-3.169 1.797z"/><path fill="#5AD5E4" d="m434.367 309.522 3.17-1.797v-3.178l-3.17 1.797zM434.367 318.817l3.17-1.797v-3.2l-3.17 1.797zM438.898 311.649l3.17-1.797v-3.2l-3.17 1.797z"/><path fill="#F2B024" d="m438.898 316.294 3.17-1.797v-3.2l-3.17 1.797zM443.398 304.485l3.17-1.797v-3.2l-3.17 1.797z"/><path fill="#5AD5E4" d="m443.398 313.77 3.17-1.819v-3.178l-3.17 1.798zM447.898 306.58l3.192-1.797v-3.178l-3.192 1.797zM416.43 275.649l3.169-1.797v-3.2l-3.169 1.819z"/><path fill="#EEDE6D" d="m416.43 280.302 3.169-1.798v-3.199l-3.169 1.819z"/><path fill="#5AD5E4" d="m416.43 284.95 3.169-1.797v-3.2l-3.169 1.797zM420.938 273.141l3.191-1.797v-3.199l-3.191 1.797zM420.938 277.782l3.191-1.797v-3.2l-3.191 1.797z"/><path fill="#F2B024" d="m420.938 282.423 3.191-1.797v-3.2l-3.191 1.797zM425.469 270.606l3.169-1.797v-3.2l-3.169 1.798z"/><path fill="#5AD5E4" d="m425.469 275.259 3.169-1.819v-3.178l-3.169 1.797zM425.469 279.919l3.169-1.819v-3.178l-3.169 1.797z"/><path fill="#EEDE6D" d="m429.977 268.073 3.169-1.798v-3.177l-3.169 1.797z"/><path fill="#5AD5E4" d="m429.977 272.717 3.169-1.797v-3.178l-3.169 1.797z"/><path fill="#F2B024" d="m429.977 277.36 3.169-1.797v-3.2l-3.169 1.819z"/><path fill="#5AD5E4" d="m434.367 265.602 3.17-1.819v-3.178l-3.17 1.798zM434.367 274.87l3.17-1.798v-3.177l-3.17 1.797zM438.898 267.692l3.17-1.797v-3.2l-3.17 1.819z"/><path fill="#F2B024" d="m438.898 272.352 3.17-1.797v-3.2l-3.17 1.798zM443.398 260.54l3.17-1.797v-3.2l-3.17 1.797z"/><path fill="#5AD5E4" d="m443.398 269.829 3.17-1.797v-3.2l-3.17 1.797zM447.898 262.677l3.192-1.797v-3.2l-3.192 1.797zM416.43 232.087l3.169-1.797v-3.2l-3.169 1.819z"/><path fill="#EEDE6D" d="m416.43 236.739 3.169-1.797v-3.2l-3.169 1.797z"/><path fill="#5AD5E4" d="m416.43 241.388 3.169-1.798v-3.199l-3.169 1.797zM420.938 229.579l3.191-1.797v-3.2l-3.191 1.797zM420.938 234.22l3.191-1.798v-3.199l-3.191 1.797z"/><path fill="#F2B024" d="m420.938 238.86 3.191-1.819v-3.178l-3.191 1.797zM425.469 227.044l3.169-1.819v-3.178l-3.169 1.797z"/><path fill="#5AD5E4" d="m425.469 231.696 3.169-1.819v-3.178l-3.169 1.797zM425.469 236.334l3.169-1.797v-3.178l-3.169 1.798z"/><path fill="#EEDE6D" d="m429.977 224.51 3.169-1.797v-3.178l-3.169 1.797z"/><path fill="#5AD5E4" d="m429.977 229.149 3.169-1.797v-3.2l-3.169 1.819z"/><path fill="#F2B024" d="m429.977 233.798 3.169-1.797v-3.2l-3.169 1.797z"/><path fill="#5AD5E4" d="m434.367 222.002 3.17-1.797v-3.178l-3.17 1.797zM434.367 231.294l3.17-1.797v-3.2l-3.17 1.797zM438.898 224.134l3.17-1.797v-3.2l-3.17 1.797z"/><path fill="#F2B024" d="m438.898 228.79 3.17-1.797v-3.2l-3.17 1.797zM443.398 216.973l3.17-1.797v-3.199l-3.17 1.797z"/><path fill="#5AD5E4" d="m443.398 226.263 3.17-1.819v-3.178l-3.17 1.797zM447.898 219.077l3.192-1.798v-3.177l-3.192 1.797zM416.43 188.516l3.169-1.797v-3.199l-3.169 1.797z"/><path fill="#EEDE6D" d="m416.43 193.161 3.169-1.797v-3.2l-3.169 1.797z"/><path fill="#5AD5E4" d="m416.43 197.809 3.169-1.797v-3.2l-3.169 1.798zM420.938 185.997l3.191-1.797V181l-3.191 1.797zM420.938 190.645l3.191-1.819v-3.178l-3.191 1.798z"/><path fill="#F2B024" d="m420.938 195.268 3.191-1.797v-3.178l-3.191 1.797zM425.469 183.459l3.169-1.797v-3.178l-3.169 1.798z"/><path fill="#5AD5E4" d="m425.469 188.1 3.169-1.797v-3.178l-3.169 1.797zM425.469 192.759l3.169-1.798v-3.199l-3.169 1.819z"/><path fill="#EEDE6D" d="m429.977 180.934 3.169-1.797v-3.199l-3.169 1.819z"/><path fill="#5AD5E4" d="m429.977 185.579 3.169-1.797v-3.2l-3.169 1.797z"/><path fill="#F2B024" d="m429.977 190.216 3.169-1.797v-3.2l-3.169 1.797z"/><path fill="#5AD5E4" d="m434.367 187.735 3.17-1.797v-3.2l-3.17 1.797z"/><path fill="#F2B024" d="m438.898 185.208 3.17-1.797v-3.2l-3.17 1.797zM443.398 173.403l3.17-1.797v-3.2l-3.17 1.797z"/><path fill="#5AD5E4" d="m443.398 182.666 3.17-1.797v-3.178l-3.17 1.798zM394.742 206.069l3.17-1.797v-3.178l-3.17 1.797z"/><path fill="#5B5C71" d="M382.967 119.927c-8.779-3.287-18.989-5.04-29.528-5.04-17.625 0-33.82 4.712-44.426 12.93-8.691 6.729-12.762 15.144-11.464 23.714 1.563 10.322 10.804 19.396 25.371 24.875 8.911 3.353 19.165 5.128 29.638 5.128 19.518 0 37.891-6.18 47.924-16.13 6.513-6.444 9.198-14.18 7.57-21.741-2.135-9.906-11.266-18.563-25.085-23.736"/><path fill="#13121A" d="M381.836 122.93c-22.774-8.547-54.085-5.545-70.829 7.408-17.823 13.785-12.455 33.444 13.07 43.021 25.524 9.599 59.145 4.581 74.13-10.279 14.082-13.96 6.403-31.603-16.371-40.15"/><path fill="#312F3A" d="M381.829 122.918c-22.774-8.547-54.085-5.545-70.83 7.408-13.972 10.805-13.686 25.204-.638 35.548-2.839-7.43-.198-15.517 8.339-22.113 15.117-11.704 43.369-14.399 63.921-6.685 11.684 4.383 18.967 11.418 20.727 19.001 6.029-12.448-2.442-25.992-21.519-33.159"/><mask id="c" width="106" height="61" x="300" y="118" maskUnits="userSpaceOnUse" style="mask-type:luminance"><path fill="#fff" d="M398.215 163.092c-14.985 14.859-48.606 19.878-74.131 10.279s-30.893-29.236-13.07-43.022c16.745-12.952 48.056-15.955 70.83-7.407 22.774 8.525 30.453 26.168 16.371 40.15"/></mask><g mask="url(#c)"><path fill="#A4A3CD" d="M398.391 150.9c-8.845-7.495-32.345-3.309-32.345-3.309l-1.937 3.222s22.774.087 34.964 13.412c0 0 7.019-6.794-.682-13.325"/><path fill="#A4A3CD" d="M392.263 132.443c-8.251-1.819-30.849 11.901-30.849 11.901l1.232 4.12s18.483-9.38 39.233-5.764c0 0 .506-8.021-9.616-10.257M375.438 123.638c-9.175 1.425-17.008 15.846-17.008 15.846l2.222 2.827s11.882-11.703 27.197-14.333c0 .022-4.863-5.523-12.411-4.34M326.567 125.062s-14.787 3.704-10.474 16.394c3.763 11.111 25.612 11.637 29.419 8.569l-.814-5.041s-16.283-6.881-18.131-19.922M341.056 124.471c-6.535 9.095 3.41 17.533 8.823 19.287l4.467-2.543s-5.325-12.711 6.425-19.133c0 0-13.928-5.698-19.715 2.389"/><path fill="#A4A3CD" d="M304.123 147.191s-6.777 8.175 5.721 18.103c11.75 9.315 32.39-3.572 41.301-11.462l-5.853-3.353s-16.811 5.041-41.169-3.288"/><path fill="#8E8DBD" d="M342.168 157.94c-3.565 1.315-7.151 3.09-11.112 3.594-7.129.877-18.549-.285-23.632-6.268-2.112-2.477-3.301-5.326-2.882-7.912-.132-.044-.287-.088-.419-.131 0 0-6.777 8.174 5.721 18.102 11.75 9.315 32.39-3.572 41.301-11.462l-.132-.065c-2.662 1.709-5.743 3.002-8.845 4.142"/><path fill="#A4A3CD" d="M310.609 168.614s3.499 9.643 19.144 13.369c14.698 3.507 23.103-16.503 25.7-27.855l-6.579-.526c-.022-.022-14.589 9.643-38.265 15.012"/><path fill="#8E8DBD" d="M314.694 172.902c-1.892-.986-3.102-2.695-4.004-4.317-.022 0-.066.022-.088.022 0 0 3.498 9.643 19.143 13.347 14.698 3.506 23.104-16.503 25.7-27.856l-4.093-.328c-2.178 6.903-16.062 29.871-36.658 19.132"/><path fill="#A4A3CD" d="m358.892 152.898-5.765 2.061s1.804 6.509-15.315 20.908c0 0 6.91 10.958 18.946 10.848s10.275-29.324 2.134-33.817"/><path fill="#8E8DBD" d="m358.894 152.898-.088.022c6.381 5.852 6.909 33.642-9.087 32.546a19.4 19.4 0 0 0 7.041 1.249c12.036-.109 10.276-29.324 2.134-33.817"/><path fill="#A4A3CD" d="m363.568 150.887-5.545 2.367s8.802 6.355 10.606 20.689c0 0 7.68 4.755 17.097.087 9.44-4.668-7.459-17.642-22.158-23.143"/></g><path fill="#F2B024" d="M362.913 150.294c-4.797 3.266-13.576 3.792-19.319.964-2.949-1.446-4.379-3.441-4.313-5.457l-.154 3.244c-.066 2.169 1.408 4.273 4.467 5.786 5.941 2.936 15.028 2.213 19.979-1.381 2.31-1.666 3.279-3.66 3.059-5.545l-.727-2.717c.199 1.731-.77 3.594-2.992 5.106"/><path fill="#EEDE6D" d="M361.584 140.305c-5.127-2.52-13.18-2.432-18.285.351-5.435 2.959-5.457 7.78.286 10.607 5.743 2.828 14.523 2.302 19.319-.964 4.511-3.068 3.807-7.473-1.32-9.994"/><path fill="#54608A" d="M359.078 141.835c-3.697-1.819-9.505-1.753-13.18.241-3.917 2.126-3.939 5.611.198 7.649s10.474 1.666 13.928-.701c3.257-2.192 2.751-5.37-.946-7.189"/><path fill="#676F93" d="M359.088 141.831c-3.697-1.819-9.506-1.753-13.181.241-3.3 1.798-3.828 4.559-1.43 6.597-.396-1.49.484-3.068 2.619-4.23 3.41-1.863 8.801-1.906 12.234-.219 1.408.702 2.31 1.6 2.684 2.564.66-1.797-.374-3.703-2.926-4.953"/><path fill="#A09FCB" d="M279.161 415.065 79.368 300.136a5.33 5.33 0 0 0-5.302 0L2.664 341.207c-3.52 2.039-3.52 7.101 0 9.14l199.793 114.95a5.32 5.32 0 0 0 5.303 0l71.423-41.071c3.499-2.06 3.499-7.123-.022-9.161"/><path fill="#A09FCB" d="M8.581 340.988H0v4.844h8.581zM281.816 414.773h-8.582v4.844h8.582z"/><path fill="#DCDCE6" d="M279.161 410.724 79.368 295.773a5.33 5.33 0 0 0-5.302 0L2.664 336.844c-3.52 2.038-3.52 7.101 0 9.139l199.793 114.929a5.33 5.33 0 0 0 5.303 0l71.423-41.071c3.499-2.016 3.499-7.101-.022-9.117"/><path fill="#13121A" d="M260.242 406.679a3.39 3.39 0 0 0-3.41 0l-1.826 1.074a1.356 1.356 0 0 0 0 2.367l6.381 3.66a3.39 3.39 0 0 0 3.41 0l1.826-1.074a1.356 1.356 0 0 0 0-2.367zM238.328 394.077a3.39 3.39 0 0 0-3.41 0l-1.826 1.074a1.356 1.356 0 0 0 0 2.367l6.381 3.66a3.39 3.39 0 0 0 3.41 0l1.827-1.074a1.356 1.356 0 0 0 0-2.366zM227.352 387.792a3.39 3.39 0 0 0-3.411 0l-1.826 1.074a1.357 1.357 0 0 0 0 2.367l6.381 3.66a3.39 3.39 0 0 0 3.411 0l1.826-1.074a1.357 1.357 0 0 0 0-2.367zM216.399 381.488a3.39 3.39 0 0 0-3.411 0l-1.826 1.074a1.356 1.356 0 0 0 0 2.366l6.381 3.661a3.39 3.39 0 0 0 3.41 0l1.827-1.074a1.357 1.357 0 0 0 0-2.367zM194.485 368.874a3.39 3.39 0 0 0-3.411 0l-1.826 1.074a1.357 1.357 0 0 0 0 2.367l6.381 3.66a3.39 3.39 0 0 0 3.41 0l1.827-1.074a1.357 1.357 0 0 0 0-2.367zM183.532 362.585a3.39 3.39 0 0 0-3.411 0l-1.826 1.074a1.357 1.357 0 0 0 0 2.367l6.381 3.66a3.39 3.39 0 0 0 3.41 0l1.827-1.074a1.357 1.357 0 0 0 0-2.367zM172.602 356.277a3.39 3.39 0 0 0-3.411 0l-1.826 1.074a1.357 1.357 0 0 0 0 2.367l6.381 3.66a3.39 3.39 0 0 0 3.411 0l1.826-1.074a1.357 1.357 0 0 0 0-2.367zM150.688 343.683a3.39 3.39 0 0 0-3.411 0l-1.826 1.074a1.357 1.357 0 0 0 0 2.367l6.381 3.66a3.39 3.39 0 0 0 3.41 0l1.827-1.074a1.357 1.357 0 0 0 0-2.367zM139.711 337.386a3.39 3.39 0 0 0-3.41 0l-1.827 1.074a1.357 1.357 0 0 0 0 2.367l6.381 3.66a3.39 3.39 0 0 0 3.411 0l1.826-1.074a1.357 1.357 0 0 0 0-2.367zM128.774 331.07a3.39 3.39 0 0 0-3.411 0l-1.826 1.074a1.356 1.356 0 0 0 0 2.366l6.381 3.661a3.39 3.39 0 0 0 3.41 0l1.827-1.074a1.357 1.357 0 0 0 0-2.367zM117.789 324.792a3.39 3.39 0 0 0-3.41 0l-1.827 1.074a1.357 1.357 0 0 0 0 2.367l6.382 3.66a3.39 3.39 0 0 0 3.41 0l1.826-1.074a1.356 1.356 0 0 0 0-2.367zM251.227 411.882a3.39 3.39 0 0 0-3.411 0l-6.381 3.66a1.357 1.357 0 0 0 0 2.367l6.381 3.66a3.39 3.39 0 0 0 3.411 0l6.381-3.66a1.357 1.357 0 0 0 0-2.367zM240.274 405.585a3.39 3.39 0 0 0-3.411 0l-6.381 3.66a1.357 1.357 0 0 0 0 2.367l6.381 3.66a3.39 3.39 0 0 0 3.411 0l6.381-3.66a1.357 1.357 0 0 0 0-2.367zM229.297 399.261a3.39 3.39 0 0 0-3.41 0l-6.381 3.66a1.356 1.356 0 0 0 0 2.367l6.381 3.66a3.39 3.39 0 0 0 3.41 0l6.381-3.66a1.357 1.357 0 0 0 0-2.367zM218.352 392.984a3.39 3.39 0 0 0-3.411 0l-6.381 3.66a1.357 1.357 0 0 0 0 2.367l6.381 3.66a3.39 3.39 0 0 0 3.411 0l6.381-3.66a1.357 1.357 0 0 0 0-2.367zM207.399 386.675a3.39 3.39 0 0 0-3.411 0l-6.381 3.66a1.357 1.357 0 0 0 0 2.367l6.381 3.66a3.39 3.39 0 0 0 3.411 0l6.381-3.66a1.357 1.357 0 0 0 0-2.367zM196.446 380.386a3.39 3.39 0 0 0-3.411 0l-6.381 3.66a1.357 1.357 0 0 0 0 2.367l6.381 3.66a3.39 3.39 0 0 0 3.411 0l6.381-3.66a1.357 1.357 0 0 0 0-2.367zM185.492 374.066a3.39 3.39 0 0 0-3.41 0l-6.381 3.66a1.357 1.357 0 0 0 0 2.367l6.381 3.66a3.39 3.39 0 0 0 3.41 0l6.382-3.66a1.357 1.357 0 0 0 0-2.367zM174.539 367.792a3.39 3.39 0 0 0-3.41 0l-6.381 3.66a1.357 1.357 0 0 0 0 2.367l6.381 3.66a3.39 3.39 0 0 0 3.41 0l6.382-3.66a1.357 1.357 0 0 0 0-2.367zM163.571 361.468a3.39 3.39 0 0 0-3.411 0l-6.381 3.66a1.357 1.357 0 0 0 0 2.367l6.381 3.66a3.39 3.39 0 0 0 3.411 0l6.381-3.66a1.357 1.357 0 0 0 0-2.367zM152.617 355.175a3.39 3.39 0 0 0-3.41 0l-6.381 3.66a1.357 1.357 0 0 0 0 2.367l6.381 3.66a3.39 3.39 0 0 0 3.41 0l6.382-3.66a1.357 1.357 0 0 0 0-2.367zM141.657 348.863a3.39 3.39 0 0 0-3.411 0l-6.381 3.66a1.357 1.357 0 0 0 0 2.367l6.381 3.66a3.39 3.39 0 0 0 3.411 0l6.381-3.66a1.357 1.357 0 0 0 0-2.367zM130.719 342.574a3.39 3.39 0 0 0-3.41 0l-6.382 3.66a1.356 1.356 0 0 0 0 2.366l6.382 3.661a3.39 3.39 0 0 0 3.41 0l6.381-3.661a1.356 1.356 0 0 0 0-2.366zM108.805 329.976a3.39 3.39 0 0 0-3.411 0l-6.38 3.66a1.357 1.357 0 0 0 0 2.367l10.957 6.29 6.381 3.66a3.39 3.39 0 0 0 3.411 0l6.381-3.66a1.34 1.34 0 0 0 .682-1.184c0-.46-.22-.92-.682-1.183zM105.032 317.546a3.39 3.39 0 0 0-3.411 0l-1.826 1.074a1.357 1.357 0 0 0 0 2.367l6.381 3.66a3.39 3.39 0 0 0 3.41 0l1.827-1.074a1.357 1.357 0 0 0 0-2.367zM94.094 311.257a3.39 3.39 0 0 0-3.41 0l-1.827 1.074a1.357 1.357 0 0 0 0 2.367l6.381 3.66a3.39 3.39 0 0 0 3.41 0l1.827-1.074a1.357 1.357 0 0 0 0-2.367zM83.133 304.945a3.39 3.39 0 0 0-3.41 0l-1.827 1.073a1.357 1.357 0 0 0 0 2.367l6.381 3.66a3.39 3.39 0 0 0 3.41 0l1.827-1.073a1.357 1.357 0 0 0 0-2.367zM96.04 322.749a3.39 3.39 0 0 0-3.411 0l-6.381 3.66a1.357 1.357 0 0 0 0 2.367l6.38 3.66a3.39 3.39 0 0 0 3.411 0l6.381-3.66a1.356 1.356 0 0 0 0-2.367zM85.07 316.452a3.39 3.39 0 0 0-3.41 0l-6.38 3.66a1.357 1.357 0 0 0 0 2.367l6.38 3.66a3.39 3.39 0 0 0 3.41 0l6.382-3.66a1.357 1.357 0 0 0 0-2.367zM74.11 310.14a3.39 3.39 0 0 0-3.41 0l-6.382 3.66a1.357 1.357 0 0 0 0 2.367l6.381 3.66a3.39 3.39 0 0 0 3.41 0l6.382-3.66a1.357 1.357 0 0 0 0-2.367zM84.72 329.245a3.39 3.39 0 0 0-3.411 0l-6.382 3.66a1.357 1.357 0 0 0 0 2.367l6.382 3.66a3.39 3.39 0 0 0 3.41 0l6.381-3.66a1.357 1.357 0 0 0 0-2.367zM73.766 322.956a3.39 3.39 0 0 0-3.41 0l-6.382 3.66a1.357 1.357 0 0 0 0 2.367l6.381 3.66a3.39 3.39 0 0 0 3.41 0l6.382-3.66a1.357 1.357 0 0 0 0-2.367zM62.813 316.652a3.39 3.39 0 0 0-3.41 0l-6.382 3.66a1.357 1.357 0 0 0 0 2.367l6.381 3.66a3.39 3.39 0 0 0 3.41 0l6.382-3.66a1.357 1.357 0 0 0 0-2.367zM235.37 415.752q-.033 0 0 0l-6.381-3.682a3.39 3.39 0 0 0-3.41 0l-6.381 3.66a1.34 1.34 0 0 0-.682 1.183c0 .46.22.921.682 1.184l17.339 9.949a3.39 3.39 0 0 0 3.41 0l6.381-3.659a1.357 1.357 0 0 0 0-2.367zM218.024 405.781a3.39 3.39 0 0 0-3.411 0l-6.381 3.66a1.357 1.357 0 0 0 0 2.367l6.381 3.659a3.39 3.39 0 0 0 3.411 0l6.381-3.659a1.357 1.357 0 0 0 0-2.367zM207.047 399.472a3.39 3.39 0 0 0-3.41 0l-6.381 3.66a1.356 1.356 0 0 0 0 2.367l6.381 3.66a3.39 3.39 0 0 0 3.41 0l6.381-3.66a1.357 1.357 0 0 0 0-2.367zM196.102 393.183a3.39 3.39 0 0 0-3.411 0l-6.381 3.66a1.357 1.357 0 0 0 0 2.367l6.381 3.66a3.39 3.39 0 0 0 3.411 0l6.381-3.66a1.357 1.357 0 0 0 0-2.367zM185.157 386.87a3.39 3.39 0 0 0-3.411 0l-6.381 3.66a1.357 1.357 0 0 0 0 2.367l6.381 3.66a3.39 3.39 0 0 0 3.411 0l6.381-3.66a1.357 1.357 0 0 0 0-2.367zM174.203 380.577a3.39 3.39 0 0 0-3.41 0l-6.381 3.66a1.357 1.357 0 0 0 0 2.367l6.381 3.66a3.39 3.39 0 0 0 3.41 0l6.381-3.66a1.356 1.356 0 0 0 0-2.367zM163.235 374.265a3.39 3.39 0 0 0-3.411 0l-6.381 3.66a1.357 1.357 0 0 0 0 2.367l6.381 3.66a3.39 3.39 0 0 0 3.411 0l6.381-3.66a1.357 1.357 0 0 0 0-2.367zM152.289 367.976a3.39 3.39 0 0 0-3.41 0l-6.381 3.66a1.357 1.357 0 0 0 0 2.367l6.381 3.66a3.39 3.39 0 0 0 3.41 0l6.381-3.66a1.356 1.356 0 0 0 0-2.367zM141.329 361.663a3.39 3.39 0 0 0-3.411 0l-6.381 3.66a1.357 1.357 0 0 0 0 2.367l6.381 3.66a3.39 3.39 0 0 0 3.411 0l6.381-3.66a1.357 1.357 0 0 0 0-2.367zM130.36 355.382a3.39 3.39 0 0 0-3.411 0l-6.381 3.66a1.357 1.357 0 0 0 0 2.367l6.381 3.66a3.39 3.39 0 0 0 3.411 0l6.381-3.66a1.357 1.357 0 0 0 0-2.367zM119.399 349.07a3.39 3.39 0 0 0-3.411 0l-6.381 3.66a1.357 1.357 0 0 0 0 2.367l6.381 3.66a3.39 3.39 0 0 0 3.411 0l6.381-3.66a1.357 1.357 0 0 0 0-2.367zM108.43 342.777a3.39 3.39 0 0 0-3.41 0l-6.382 3.66a1.357 1.357 0 0 0 0 2.367l6.382 3.66a3.39 3.39 0 0 0 3.41 0l6.381-3.66a1.357 1.357 0 0 0 0-2.367zM224.058 422.24l-6.381-3.682a3.39 3.39 0 0 0-3.411 0l-6.381 3.66a1.34 1.34 0 0 0-.682 1.183c0 .461.22.921.682 1.184l17.339 9.972a3.39 3.39 0 0 0 3.411 0l6.381-3.66a1.357 1.357 0 0 0 0-2.367zM206.719 412.265a3.39 3.39 0 0 0-3.41 0l-6.382 3.66a1.357 1.357 0 0 0 0 2.367l6.382 3.66a3.39 3.39 0 0 0 3.41 0l6.381-3.66a1.357 1.357 0 0 0 0-2.367zM195.743 405.988a3.39 3.39 0 0 0-3.411 0l-6.381 3.66a1.357 1.357 0 0 0 0 2.367l6.381 3.66a3.39 3.39 0 0 0 3.411 0l6.381-3.66a1.357 1.357 0 0 0 0-2.367zM184.805 399.667a3.39 3.39 0 0 0-3.41 0l-6.382 3.66a1.357 1.357 0 0 0 0 2.367l6.382 3.66a3.39 3.39 0 0 0 3.41 0l6.381-3.66a1.357 1.357 0 0 0 0-2.367zM173.852 393.382a3.39 3.39 0 0 0-3.411 0l-6.381 3.66a1.357 1.357 0 0 0 0 2.367l6.381 3.66a3.39 3.39 0 0 0 3.411 0l6.381-3.66a1.357 1.357 0 0 0 0-2.367zM162.875 387.062a3.39 3.39 0 0 0-3.41 0l-6.381 3.66a1.357 1.357 0 0 0 0 2.367l6.381 3.66a3.39 3.39 0 0 0 3.41 0l6.381-3.66a1.357 1.357 0 0 0 0-2.367zM151.938 380.777a3.39 3.39 0 0 0-3.411 0l-6.381 3.66a1.357 1.357 0 0 0 0 2.367l6.381 3.66a3.39 3.39 0 0 0 3.411 0l6.381-3.66a1.357 1.357 0 0 0 0-2.367zM140.969 374.46a3.39 3.39 0 0 0-3.41 0l-6.382 3.66a1.357 1.357 0 0 0 0 2.367l6.382 3.66a3.39 3.39 0 0 0 3.41 0l6.381-3.66a1.357 1.357 0 0 0 0-2.367zM130.016 368.179a3.39 3.39 0 0 0-3.411 0l-6.381 3.66a1.357 1.357 0 0 0 0 2.367l6.381 3.66a3.39 3.39 0 0 0 3.411 0l6.381-3.66a1.357 1.357 0 0 0 0-2.367zM119.063 361.851a3.39 3.39 0 0 0-3.411 0l-6.381 3.66a1.357 1.357 0 0 0 0 2.367l6.381 3.66a3.39 3.39 0 0 0 3.411 0l6.381-3.66a1.357 1.357 0 0 0 0-2.367zM108.094 355.57a3.39 3.39 0 0 0-3.41 0l-6.382 3.66a1.357 1.357 0 0 0 0 2.367l6.382 3.66a3.39 3.39 0 0 0 3.41 0l6.381-3.66a1.357 1.357 0 0 0 0-2.367z"/><path fill="#13121A" d="m103.893 340.136-6.382-3.66a3.39 3.39 0 0 0-3.41 0l-11.288 6.487-6.38 3.66a1.34 1.34 0 0 0-.683 1.184c0 .46.22.92.682 1.183l17.339 9.972a3.39 3.39 0 0 0 3.41 0l6.382-3.66a1.357 1.357 0 0 0 0-2.367l-8.89-5.107 9.242-5.303c.88-.548.88-1.863-.022-2.389M212.741 428.752l-10.958-6.311-6.381-3.66a3.42 3.42 0 0 0-3.433 0l-6.381 3.66a1.5 1.5 0 0 0-.418.416c-.022.044-.066.066-.088.088-.066.109-.066.219-.088.328s-.088.22-.088.329c0 .46.22.921.682 1.184l28.297 16.261a3.39 3.39 0 0 0 3.411 0l6.381-3.66a1.357 1.357 0 0 0 0-2.367zM184.453 412.46a3.39 3.39 0 0 0-3.41 0l-6.381 3.66a1.357 1.357 0 0 0 0 2.367l6.381 3.66a3.39 3.39 0 0 0 3.41 0l6.381-3.66a1.356 1.356 0 0 0 0-2.367zM173.493 406.183a3.39 3.39 0 0 0-3.411 0l-6.381 3.66a1.357 1.357 0 0 0 0 2.367l6.381 3.66a3.39 3.39 0 0 0 3.411 0l6.381-3.66a1.357 1.357 0 0 0 0-2.367zM162.555 399.863a3.39 3.39 0 0 0-3.41 0l-6.382 3.66a1.357 1.357 0 0 0 0 2.367l6.382 3.66a3.39 3.39 0 0 0 3.41 0l6.381-3.66a1.357 1.357 0 0 0 0-2.367zM151.571 393.585a3.39 3.39 0 0 0-3.411 0l-6.381 3.66a1.357 1.357 0 0 0 0 2.367l6.381 3.66a3.39 3.39 0 0 0 3.411 0l6.381-3.66a1.357 1.357 0 0 0 0-2.367zM140.625 387.261a3.39 3.39 0 0 0-3.41 0l-6.381 3.66a1.357 1.357 0 0 0 0 2.367l6.381 3.66a3.39 3.39 0 0 0 3.41 0l6.381-3.66a1.356 1.356 0 0 0 0-2.367zM129.696 380.976a3.39 3.39 0 0 0-3.411 0l-6.381 3.66a1.357 1.357 0 0 0 0 2.367l6.381 3.66a3.39 3.39 0 0 0 3.411 0l6.381-3.66a1.357 1.357 0 0 0 0-2.367zM118.711 374.656a3.39 3.39 0 0 0-3.41 0l-6.381 3.66a1.357 1.357 0 0 0 0 2.367l6.381 3.659a3.39 3.39 0 0 0 3.41 0l6.381-3.659a1.356 1.356 0 0 0 0-2.367zM107.766 368.37a3.39 3.39 0 0 0-3.411 0l-6.38 3.66a1.357 1.357 0 0 0 0 2.367l6.38 3.66a3.39 3.39 0 0 0 3.411 0l6.381-3.66a1.357 1.357 0 0 0 0-2.367zM195.052 431.534a3.39 3.39 0 0 0-3.411 0l-6.381 3.66a1.38 1.38 0 0 0-.682 1.206c0 .46.22.942.682 1.205l6.381 3.66c.044.022.088.022.132.066l10.826 6.246a3.39 3.39 0 0 0 3.411 0l6.381-3.66a1.357 1.357 0 0 0 0-2.367zM184.11 425.253a3.39 3.39 0 0 0-3.411 0l-6.381 3.66a1.357 1.357 0 0 0 0 2.367l6.381 3.66a3.39 3.39 0 0 0 3.411 0l6.381-3.66a1.357 1.357 0 0 0 0-2.367zM173.164 418.984a3.39 3.39 0 0 0-3.41 0l-6.381 3.66a1.357 1.357 0 0 0 0 2.367l6.381 3.66a3.39 3.39 0 0 0 3.41 0l6.382-3.66a1.357 1.357 0 0 0 0-2.367zM107.407 381.171a3.39 3.39 0 0 0-3.411 0l-6.381 3.66a1.357 1.357 0 0 0 0 2.367l6.381 3.66a3.39 3.39 0 0 0 3.411 0l6.381-3.66a1.357 1.357 0 0 0 0-2.367zM96.461 374.859a3.39 3.39 0 0 0-3.41 0l-6.381 3.66a1.357 1.357 0 0 0 0 2.367l6.38 3.66a3.39 3.39 0 0 0 3.411 0l6.381-3.66a1.356 1.356 0 0 0 0-2.367zM85.477 368.562a3.39 3.39 0 0 0-3.41 0l-6.382 3.66a1.357 1.357 0 0 0 0 2.367l6.381 3.66a3.39 3.39 0 0 0 3.41 0l6.382-3.66a1.357 1.357 0 0 0 0-2.367zM63.57 355.968a3.39 3.39 0 0 0-3.41 0l-6.38 3.66a1.357 1.357 0 0 0 0 2.367l17.338 9.972a3.39 3.39 0 0 0 3.41 0l6.381-3.66a1.357 1.357 0 0 0 0-2.367zM51.368 335.909a3.39 3.39 0 0 0-3.411 0l-6.381 3.66a1.357 1.357 0 0 0 0 2.367l6.381 3.66a3.39 3.39 0 0 0 3.41 0l6.382-3.66a1.357 1.357 0 0 0 0-2.367zM51.024 348.71a3.39 3.39 0 0 0-3.41 0l-6.382 3.66a1.357 1.357 0 0 0 0 2.367l6.381 3.66a3.39 3.39 0 0 0 3.41 0l6.382-3.66a1.357 1.357 0 0 0 0-2.367zM40.063 342.402a3.39 3.39 0 0 0-3.41 0l-6.382 3.66a1.357 1.357 0 0 0 0 2.367l6.381 3.66a3.39 3.39 0 0 0 3.41 0l6.382-3.66a1.357 1.357 0 0 0 0-2.367zM29.125 336.105a3.39 3.39 0 0 0-3.41 0l-6.381 3.66a1.357 1.357 0 0 0 0 2.367l6.38 3.66a3.39 3.39 0 0 0 3.411 0l6.381-3.66a1.357 1.357 0 0 0 0-2.367zM118.383 387.456a3.39 3.39 0 0 0-3.41 0l-6.381 3.66a1.356 1.356 0 0 0 0 2.367l6.381 3.66 43.831 25.204a3.39 3.39 0 0 0 3.41 0l6.381-3.66a1.356 1.356 0 0 0 0-2.367zM74.899 349.452a3.39 3.39 0 0 0-3.41 0l-6.382 3.66a1.357 1.357 0 0 0 0 2.367l28.297 16.262a3.39 3.39 0 0 0 3.41 0l6.381-3.66a1.356 1.356 0 0 0 0-2.367z"/><path fill="#5B5C71" d="M96.04 321.023a3.39 3.39 0 0 0-3.411 0l-6.381 3.66a1.357 1.357 0 0 0 0 2.367l6.38 3.66a3.39 3.39 0 0 0 3.411 0l6.381-3.66a1.356 1.356 0 0 0 0-2.367zM185.492 372.339a3.39 3.39 0 0 0-3.41 0l-6.381 3.66a1.357 1.357 0 0 0 0 2.367l6.381 3.66a3.39 3.39 0 0 0 3.41 0l6.382-3.66a1.357 1.357 0 0 0 0-2.367zM174.539 366.031a3.39 3.39 0 0 0-3.41 0l-6.381 3.66a1.357 1.357 0 0 0 0 2.367l6.381 3.659a3.39 3.39 0 0 0 3.41 0l6.382-3.659a1.357 1.357 0 0 0 0-2.367zM207.047 397.745a3.39 3.39 0 0 0-3.41 0l-6.381 3.66a1.356 1.356 0 0 0 0 2.367l6.381 3.66a3.39 3.39 0 0 0 3.41 0l6.381-3.66a1.357 1.357 0 0 0 0-2.367zM196.102 391.433a3.39 3.39 0 0 0-3.411 0l-6.381 3.66a1.357 1.357 0 0 0 0 2.367l6.381 3.66a3.39 3.39 0 0 0 3.411 0l6.381-3.66a1.357 1.357 0 0 0 0-2.367zM108.805 328.23a3.39 3.39 0 0 0-3.411 0l-6.38 3.66a1.357 1.357 0 0 0 0 2.367l10.957 6.29 6.381 3.66a3.39 3.39 0 0 0 3.411 0l6.381-3.66a1.34 1.34 0 0 0 .682-1.184c0-.46-.22-.92-.682-1.183zM141.657 347.136a3.39 3.39 0 0 0-3.411 0l-6.381 3.66a1.357 1.357 0 0 0 0 2.367l6.381 3.66a3.39 3.39 0 0 0 3.411 0l6.381-3.66a1.357 1.357 0 0 0 0-2.367zM163.235 372.538a3.39 3.39 0 0 0-3.411 0l-6.381 3.66a1.357 1.357 0 0 0 0 2.367l6.381 3.66a3.39 3.39 0 0 0 3.411 0l6.381-3.66a1.357 1.357 0 0 0 0-2.367zM218.352 391.234a3.39 3.39 0 0 0-3.411 0l-6.381 3.66a1.357 1.357 0 0 0 0 2.367l6.381 3.66a3.39 3.39 0 0 0 3.411 0l6.381-3.66a1.357 1.357 0 0 0 0-2.367zM130.719 340.827a3.39 3.39 0 0 0-3.41 0l-6.382 3.66a1.357 1.357 0 0 0 0 2.367l6.382 3.66a3.39 3.39 0 0 0 3.41 0l6.381-3.66a1.357 1.357 0 0 0 0-2.367zM152.289 366.226a3.39 3.39 0 0 0-3.41 0l-6.381 3.66a1.357 1.357 0 0 0 0 2.367l6.381 3.66a3.39 3.39 0 0 0 3.41 0l6.381-3.66a1.356 1.356 0 0 0 0-2.367zM141.329 359.937a3.39 3.39 0 0 0-3.411 0l-6.381 3.66a1.357 1.357 0 0 0 0 2.367l6.381 3.66a3.39 3.39 0 0 0 3.411 0l6.381-3.66a1.357 1.357 0 0 0 0-2.367zM185.157 385.144a3.39 3.39 0 0 0-3.411 0l-6.381 3.66a1.357 1.357 0 0 0 0 2.367l6.381 3.66a3.39 3.39 0 0 0 3.411 0l6.381-3.66a1.357 1.357 0 0 0 0-2.367zM140.625 385.534a3.39 3.39 0 0 0-3.41 0l-6.381 3.66a1.357 1.357 0 0 0 0 2.367l6.381 3.66a3.39 3.39 0 0 0 3.41 0l6.381-3.66a1.356 1.356 0 0 0 0-2.367zM151.571 391.831a3.39 3.39 0 0 0-3.411 0l-6.381 3.66a1.357 1.357 0 0 0 0 2.367l6.381 3.66a3.39 3.39 0 0 0 3.411 0l6.381-3.66a1.357 1.357 0 0 0 0-2.367zM162.555 398.113a3.39 3.39 0 0 0-3.41 0l-6.382 3.66a1.357 1.357 0 0 0 0 2.367l6.382 3.66a3.39 3.39 0 0 0 3.41 0l6.381-3.66a1.357 1.357 0 0 0 0-2.367zM118.711 372.929a3.39 3.39 0 0 0-3.41 0l-6.381 3.66a1.357 1.357 0 0 0 0 2.367l6.381 3.66a3.39 3.39 0 0 0 3.41 0l6.381-3.66a1.356 1.356 0 0 0 0-2.367zM129.696 379.226a3.39 3.39 0 0 0-3.411 0l-6.381 3.66a1.357 1.357 0 0 0 0 2.367l6.381 3.66a3.39 3.39 0 0 0 3.411 0l6.381-3.66a1.357 1.357 0 0 0 0-2.367zM218.024 404.031a3.39 3.39 0 0 0-3.411 0l-6.381 3.66a1.357 1.357 0 0 0 0 2.367l6.381 3.659a3.39 3.39 0 0 0 3.411 0l6.381-3.659a1.357 1.357 0 0 0 0-2.367zM206.719 410.519a3.39 3.39 0 0 0-3.41 0l-6.382 3.66a1.357 1.357 0 0 0 0 2.367l6.382 3.66a3.39 3.39 0 0 0 3.41 0l6.381-3.66a1.357 1.357 0 0 0 0-2.367zM229.297 397.534a3.39 3.39 0 0 0-3.41 0l-6.381 3.66a1.356 1.356 0 0 0 0 2.367l6.381 3.66a3.39 3.39 0 0 0 3.41 0l6.381-3.66a1.357 1.357 0 0 0 0-2.367zM184.453 410.714a3.39 3.39 0 0 0-3.41 0l-6.381 3.66a1.357 1.357 0 0 0 0 2.367l6.381 3.66a3.39 3.39 0 0 0 3.41 0l6.381-3.66a1.356 1.356 0 0 0 0-2.367zM195.743 404.238a3.39 3.39 0 0 0-3.411 0l-6.381 3.66a1.357 1.357 0 0 0 0 2.367l6.381 3.66a3.39 3.39 0 0 0 3.411 0l6.381-3.66a1.357 1.357 0 0 0 0-2.367zM173.493 404.425a3.39 3.39 0 0 0-3.411 0l-6.381 3.66a1.357 1.357 0 0 0 0 2.367l6.381 3.66a3.39 3.39 0 0 0 3.411 0l6.381-3.66a1.357 1.357 0 0 0 0-2.367zM173.852 391.624a3.39 3.39 0 0 0-3.411 0l-6.381 3.66a1.357 1.357 0 0 0 0 2.367l6.381 3.66a3.39 3.39 0 0 0 3.411 0l6.381-3.66a1.357 1.357 0 0 0 0-2.367zM107.766 366.628a3.39 3.39 0 0 0-3.411 0l-6.38 3.66a1.357 1.357 0 0 0 0 2.367l6.38 3.66a3.39 3.39 0 0 0 3.411 0l6.381-3.66a1.357 1.357 0 0 0 0-2.367zM74.11 308.413a3.39 3.39 0 0 0-3.41 0l-6.382 3.66a1.357 1.357 0 0 0 0 2.367l6.381 3.66a3.39 3.39 0 0 0 3.41 0l6.382-3.66a1.357 1.357 0 0 0 0-2.367zM85.07 314.702a3.39 3.39 0 0 0-3.41 0l-6.38 3.66a1.357 1.357 0 0 0 0 2.367l6.38 3.66a3.39 3.39 0 0 0 3.41 0l6.382-3.66a1.357 1.357 0 0 0 0-2.367zM130.36 353.624a3.39 3.39 0 0 0-3.411 0l-6.381 3.66a1.357 1.357 0 0 0 0 2.367l6.381 3.66a3.39 3.39 0 0 0 3.411 0l6.381-3.66a1.357 1.357 0 0 0 0-2.367zM84.72 327.519a3.39 3.39 0 0 0-3.411 0l-6.382 3.66a1.357 1.357 0 0 0 0 2.367l6.382 3.66a3.39 3.39 0 0 0 3.41 0l6.381-3.66a1.357 1.357 0 0 0 0-2.367zM119.063 360.124a3.39 3.39 0 0 0-3.411 0l-6.381 3.66a1.357 1.357 0 0 0 0 2.367l6.381 3.66a3.39 3.39 0 0 0 3.411 0l6.381-3.66a1.357 1.357 0 0 0 0-2.367zM108.43 341.023a3.39 3.39 0 0 0-3.41 0l-6.382 3.66a1.357 1.357 0 0 0 0 2.367l6.382 3.66a3.39 3.39 0 0 0 3.41 0l6.381-3.66a1.357 1.357 0 0 0 0-2.367zM108.094 353.824a3.39 3.39 0 0 0-3.41 0l-6.382 3.66a1.356 1.356 0 0 0 0 2.366l6.382 3.661a3.39 3.39 0 0 0 3.41 0l6.381-3.661a1.356 1.356 0 0 0 0-2.366zM119.399 347.343a3.39 3.39 0 0 0-3.411 0l-6.381 3.66a1.357 1.357 0 0 0 0 2.367l6.381 3.66a3.39 3.39 0 0 0 3.411 0l6.381-3.66a1.357 1.357 0 0 0 0-2.367z"/><path fill="#5B5C71" d="m103.893 338.394-6.382-3.66a3.39 3.39 0 0 0-3.41 0l-11.288 6.487-6.38 3.66a1.34 1.34 0 0 0-.683 1.183c0 .461.22.921.682 1.184l17.339 9.95a3.39 3.39 0 0 0 3.41 0l6.382-3.66a1.357 1.357 0 0 0 0-2.367l-8.89-5.107 9.242-5.325c.88-.504.88-1.819-.022-2.345M174.203 378.824a3.39 3.39 0 0 0-3.41 0l-6.381 3.659a1.357 1.357 0 0 0 0 2.367l6.381 3.66a3.39 3.39 0 0 0 3.41 0l6.381-3.66a1.356 1.356 0 0 0 0-2.367zM184.805 397.925a3.39 3.39 0 0 0-3.41 0l-6.382 3.66a1.357 1.357 0 0 0 0 2.367l6.382 3.66a3.39 3.39 0 0 0 3.41 0l6.381-3.66a1.357 1.357 0 0 0 0-2.367zM130.016 366.429a3.39 3.39 0 0 0-3.411 0l-6.381 3.66a1.357 1.357 0 0 0 0 2.367l6.381 3.66a3.39 3.39 0 0 0 3.411 0l6.381-3.66a1.357 1.357 0 0 0 0-2.367zM162.875 385.316a3.39 3.39 0 0 0-3.41 0l-6.381 3.66a1.357 1.357 0 0 0 0 2.367l6.381 3.66a3.39 3.39 0 0 0 3.41 0l6.381-3.66a1.357 1.357 0 0 0 0-2.367zM140.969 372.734a3.39 3.39 0 0 0-3.41 0l-6.382 3.66a1.357 1.357 0 0 0 0 2.367l6.382 3.66a3.39 3.39 0 0 0 3.41 0l6.381-3.66a1.357 1.357 0 0 0 0-2.367zM151.938 379.031a3.39 3.39 0 0 0-3.411 0l-6.381 3.66a1.357 1.357 0 0 0 0 2.367l6.381 3.66a3.39 3.39 0 0 0 3.411 0l6.381-3.66a1.357 1.357 0 0 0 0-2.367zM224.058 420.513l-6.381-3.682a3.39 3.39 0 0 0-3.411 0l-6.381 3.66a1.34 1.34 0 0 0-.682 1.184c0 .46.22.92.682 1.183l17.339 9.95a3.39 3.39 0 0 0 3.411 0l6.381-3.66a1.357 1.357 0 0 0 0-2.367zM212.741 427.006l-10.958-6.312-6.381-3.659a3.42 3.42 0 0 0-3.433 0l-6.381 3.659c-.176.11-.308.263-.418.417-.022.044-.066.066-.088.088-.066.109-.066.219-.088.328s-.088.22-.088.329c0 .46.22.921.682 1.184l28.297 16.261a3.39 3.39 0 0 0 3.411 0l6.381-3.66a1.357 1.357 0 0 0 0-2.367zM74.897 347.734a3.43 3.43 0 0 0-3.256-.066c-.066.022-.132.066-.198.087l-6.36 3.66a1.357 1.357 0 0 0 0 2.367l28.297 16.262a3.39 3.39 0 0 0 3.411 0l6.381-3.66a1.357 1.357 0 0 0 0-2.367zM184.11 423.515a3.39 3.39 0 0 0-3.411 0l-6.381 3.66a1.357 1.357 0 0 0 0 2.367l6.381 3.66a3.39 3.39 0 0 0 3.411 0l6.381-3.66a1.357 1.357 0 0 0 0-2.367zM251.227 410.156a3.39 3.39 0 0 0-3.411 0l-6.381 3.66a1.357 1.357 0 0 0 0 2.367l6.381 3.659a3.39 3.39 0 0 0 3.411 0l6.381-3.659a1.357 1.357 0 0 0 0-2.367zM195.052 429.784a3.39 3.39 0 0 0-3.411 0l-6.381 3.66a1.38 1.38 0 0 0-.682 1.206c0 .46.22.942.682 1.205l6.381 3.66c.044.022.088.022.132.066l10.826 6.246a3.39 3.39 0 0 0 3.411 0l6.381-3.66a1.357 1.357 0 0 0 0-2.367zM216.399 379.761a3.39 3.39 0 0 0-3.411 0l-1.826 1.074a1.357 1.357 0 0 0 0 2.367l6.381 3.66a3.39 3.39 0 0 0 3.41 0l1.827-1.074a1.357 1.357 0 0 0 0-2.367zM173.164 417.222a3.39 3.39 0 0 0-3.41 0l-6.381 3.66a1.357 1.357 0 0 0 0 2.367l6.381 3.66a3.39 3.39 0 0 0 3.41 0l6.382-3.66a1.357 1.357 0 0 0 0-2.367zM227.352 386.038a3.39 3.39 0 0 0-3.411 0l-1.826 1.074a1.357 1.357 0 0 0 0 2.367l6.381 3.66a3.39 3.39 0 0 0 3.411 0l1.826-1.074a1.357 1.357 0 0 0 0-2.367zM240.274 403.831a3.39 3.39 0 0 0-3.411 0l-6.381 3.66a1.357 1.357 0 0 0 0 2.367l6.381 3.66a3.39 3.39 0 0 0 3.411 0l6.381-3.66a1.357 1.357 0 0 0 0-2.367zM260.242 404.952a3.39 3.39 0 0 0-3.41 0l-1.826 1.074a1.356 1.356 0 0 0 0 2.367l6.381 3.66a3.39 3.39 0 0 0 3.41 0l1.826-1.074a1.356 1.356 0 0 0 0-2.367zM238.328 392.351a3.39 3.39 0 0 0-3.41 0l-1.826 1.074a1.356 1.356 0 0 0 0 2.367l6.381 3.66a3.39 3.39 0 0 0 3.41 0l1.827-1.074a1.357 1.357 0 0 0 0-2.367zM29.125 334.363a3.39 3.39 0 0 0-3.41 0l-6.381 3.66a1.357 1.357 0 0 0 0 2.367l6.38 3.66a3.39 3.39 0 0 0 3.411 0l6.381-3.66a1.357 1.357 0 0 0 0-2.367zM207.399 384.949a3.39 3.39 0 0 0-3.411 0l-6.381 3.659a1.357 1.357 0 0 0 0 2.367l6.381 3.66a3.39 3.39 0 0 0 3.411 0l6.381-3.66a1.357 1.357 0 0 0 0-2.367zM40.063 340.644a3.39 3.39 0 0 0-3.41 0l-6.382 3.66a1.357 1.357 0 0 0 0 2.367l6.381 3.66a3.39 3.39 0 0 0 3.41 0l6.382-3.66a1.357 1.357 0 0 0 0-2.367zM107.407 379.425a3.39 3.39 0 0 0-3.411 0l-6.381 3.66a1.357 1.357 0 0 0 0 2.367l6.381 3.66a3.39 3.39 0 0 0 3.411 0l6.381-3.66a1.357 1.357 0 0 0 0-2.367zM118.383 385.71a3.39 3.39 0 0 0-3.41 0l-6.381 3.66a1.356 1.356 0 0 0 0 2.367l50.19 28.864a3.39 3.39 0 0 0 3.41 0l6.381-3.66a1.356 1.356 0 0 0 0-2.367zM96.461 373.132a3.39 3.39 0 0 0-3.41 0l-6.381 3.66a1.357 1.357 0 0 0 0 2.367l6.38 3.66a3.39 3.39 0 0 0 3.411 0l6.381-3.66a1.356 1.356 0 0 0 0-2.367zM51.024 346.964a3.39 3.39 0 0 0-3.41 0l-6.382 3.66a1.357 1.357 0 0 0 0 2.367l6.381 3.66a3.39 3.39 0 0 0 3.41 0l6.382-3.66a1.357 1.357 0 0 0 0-2.367zM63.57 354.21a3.39 3.39 0 0 0-3.41 0l-6.38 3.66a1.357 1.357 0 0 0 0 2.367l17.338 9.972a3.39 3.39 0 0 0 3.41 0l6.381-3.66a1.357 1.357 0 0 0 0-2.367zM85.477 366.808a3.39 3.39 0 0 0-3.41 0l-6.382 3.66a1.357 1.357 0 0 0 0 2.367l6.381 3.66a3.39 3.39 0 0 0 3.41 0l6.382-3.66a1.357 1.357 0 0 0 0-2.367zM235.355 414.005l-6.381-3.681a3.39 3.39 0 0 0-3.411 0l-6.381 3.659a1.34 1.34 0 0 0-.682 1.184c0 .46.22.92.682 1.183l17.339 9.95a3.39 3.39 0 0 0 3.411 0l6.381-3.66a1.357 1.357 0 0 0 0-2.367zM62.813 314.925a3.39 3.39 0 0 0-3.41 0l-6.382 3.66a1.357 1.357 0 0 0 0 2.367l6.381 3.66a3.39 3.39 0 0 0 3.41 0l6.382-3.66a1.357 1.357 0 0 0 0-2.367zM73.766 321.21a3.39 3.39 0 0 0-3.41 0l-6.382 3.66a1.357 1.357 0 0 0 0 2.367l6.381 3.66a3.39 3.39 0 0 0 3.41 0l6.382-3.66a1.357 1.357 0 0 0 0-2.367zM196.446 378.632a3.39 3.39 0 0 0-3.411 0l-6.381 3.66a1.357 1.357 0 0 0 0 2.367l6.381 3.66a3.39 3.39 0 0 0 3.411 0l6.381-3.66a1.357 1.357 0 0 0 0-2.367zM51.368 334.167a3.39 3.39 0 0 0-3.411 0l-6.381 3.66a1.357 1.357 0 0 0 0 2.367l6.381 3.66a3.39 3.39 0 0 0 3.41 0l6.382-3.66a1.357 1.357 0 0 0 0-2.367zM83.133 303.218a3.39 3.39 0 0 0-3.41 0l-1.827 1.074a1.357 1.357 0 0 0 0 2.367l6.381 3.66a3.39 3.39 0 0 0 3.41 0l1.827-1.074a1.357 1.357 0 0 0 0-2.367zM152.617 353.425a3.39 3.39 0 0 0-3.41 0l-6.381 3.66a1.357 1.357 0 0 0 0 2.367l6.381 3.66a3.39 3.39 0 0 0 3.41 0l6.382-3.66a1.357 1.357 0 0 0 0-2.367zM172.602 354.55a3.39 3.39 0 0 0-3.411 0l-1.826 1.074a1.357 1.357 0 0 0 0 2.367l6.381 3.66a3.39 3.39 0 0 0 3.411 0l1.826-1.074a1.357 1.357 0 0 0 0-2.367zM163.571 359.741a3.39 3.39 0 0 0-3.411 0l-6.381 3.66a1.357 1.357 0 0 0 0 2.367l6.381 3.66a3.39 3.39 0 0 0 3.411 0l6.381-3.66a1.357 1.357 0 0 0 0-2.367zM183.532 360.831a3.39 3.39 0 0 0-3.411 0l-1.826 1.074a1.357 1.357 0 0 0 0 2.367l6.381 3.66a3.39 3.39 0 0 0 3.41 0l1.827-1.074a1.357 1.357 0 0 0 0-2.367zM194.485 367.148a3.39 3.39 0 0 0-3.411 0l-1.826 1.074a1.357 1.357 0 0 0 0 2.367l6.381 3.66a3.39 3.39 0 0 0 3.41 0l1.827-1.074a1.357 1.357 0 0 0 0-2.367zM139.711 335.636a3.39 3.39 0 0 0-3.41 0l-1.827 1.074a1.357 1.357 0 0 0 0 2.367l6.381 3.66a3.39 3.39 0 0 0 3.411 0l1.826-1.074a1.357 1.357 0 0 0 0-2.367zM117.789 323.031a3.39 3.39 0 0 0-3.41 0l-1.827 1.073a1.357 1.357 0 0 0 0 2.367l6.382 3.66a3.39 3.39 0 0 0 3.41 0l1.826-1.073a1.356 1.356 0 0 0 0-2.367zM105.032 315.82a3.39 3.39 0 0 0-3.411 0l-1.826 1.073a1.357 1.357 0 0 0 0 2.367l6.381 3.66a3.39 3.39 0 0 0 3.41 0l1.827-1.073a1.357 1.357 0 0 0 0-2.367zM128.774 329.343a3.39 3.39 0 0 0-3.411 0l-1.826 1.074a1.357 1.357 0 0 0 0 2.367l6.381 3.66a3.39 3.39 0 0 0 3.41 0l1.827-1.074a1.357 1.357 0 0 0 0-2.367zM94.094 309.519a3.39 3.39 0 0 0-3.41 0l-1.827 1.074a1.357 1.357 0 0 0 0 2.367l6.381 3.66a3.39 3.39 0 0 0 3.41 0l1.827-1.074a1.357 1.357 0 0 0 0-2.367zM150.688 341.956a3.39 3.39 0 0 0-3.411 0l-1.826 1.074a1.357 1.357 0 0 0 0 2.367l6.381 3.66a3.39 3.39 0 0 0 3.41 0l1.827-1.074a1.357 1.357 0 0 0 0-2.367z"/><path fill="#fff" d="M388.872 420.768c-25.591-22.333-78.729 33.005-23.896 32.019 8.097-.153 13.576-8.635 18.571-10.607 6.073-2.696 16.283-5.457 15.997-11.397-1.013-6.794-10.386-9.774-10.672-10.015"/><path fill="#A09FCB" d="M364.824 447.245c-11.992 5.523-34.986-2.367-15.864-20.776-26.383 23.494 14.17 36.359 29.836 19.659 5.677-5.589 19.584-7.364 20.706-15.079.066-1.665-.396-2.082-.616-2.849-19.804-.088-25.238 14.487-34.062 19.045"/><path fill="#313247" d="m376.154 420.178-.396.789 2.002 1.249a5.3 5.3 0 0 0 1.166-.46c1.717-1.205 6.381-1.928 9.44-2.345-.484-3.682-8.582-6.619-12.212.767"/><path fill="#13121A" d="M384.477 417.083c-4.401-.307-6.711 5.15-6.711 5.15s4.95-1.819 11.397-1.227c0-.022-.286-3.616-4.686-3.923"/><defs><linearGradient id="a" x1="217.018" x2="335.057" y1="299.429" y2="101.911" gradientUnits="userSpaceOnUse"><stop offset=".127" stop-color="#A1A1BD"/><stop offset=".888" stop-color="#fff"/></linearGradient></defs></svg>