<svg xmlns="http://www.w3.org/2000/svg" width="36" height="36" fill="none"><g fill="#fff" clip-path="url(#a)"><path d="m26.07 19.41-4.13 4.128-1.701-1.702a1.025 1.025 0 0 0-1.45 1.45l2.427 2.427a1.023 1.023 0 0 0 1.45 0l4.854-4.854a1.025 1.025 0 1 0-1.45-1.45Z"/><path d="M30.706 13.055H24.18V4.958C24.18 2.5 22.18.5 19.722.5H4.62C2.163.5.163 2.5.163 4.958v10.097a4.464 4.464 0 0 0 3.432 4.337v2.528a1.026 1.026 0 0 0 1.75.725l3.133-3.132h2.668v8.097c0 2.458 2 4.458 4.458 4.458h11.245L29.98 35.2a1.025 1.025 0 0 0 1.751-.725v-2.526a4.465 4.465 0 0 0 3.432-4.339V17.512c0-2.458-2-4.457-4.457-4.457ZM8.053 17.462c-.272 0-.533.108-.725.3l-1.682 1.682v-.956c0-.567-.46-1.026-1.026-1.026a2.41 2.41 0 0 1-2.406-2.407V4.958A2.41 2.41 0 0 1 4.62 2.55h15.102a2.41 2.41 0 0 1 2.407 2.407v8.097h-6.525a4.462 4.462 0 0 0-4.456 4.407H8.053Zm25.06 10.148a2.41 2.41 0 0 1-2.407 2.407c-.567 0-1.026.46-1.026 1.025V32l-1.682-1.682a1.026 1.026 0 0 0-.725-.3h-11.67a2.41 2.41 0 0 1-2.406-2.407V17.512a2.41 2.41 0 0 1 2.407-2.406h15.102a2.41 2.41 0 0 1 2.406 2.406V27.61Z"/></g><defs><clipPath id="a"><path fill="#fff" d="M.163.5h35v35h-35z"/></clipPath></defs></svg>