<svg width="60" height="60" viewBox="0 0 60 60" fill="none" xmlns="http://www.w3.org/2000/svg">
<g id="Product-1c 1" clip-path="url(#clip0_887_35340)">
<g id="Group">
<g id="Group_2">
<g id="Group_3">
<g id="Group_4">
<path id="Vector" d="M46.875 0H13.125C5.87626 0 0 5.87626 0 13.125V46.875C0 54.1237 5.87626 60 13.125 60H46.875C54.1237 60 60 54.1237 60 46.875V13.125C60 5.87626 54.1237 0 46.875 0Z" fill="#FFEC00"/>
<path id="Vector_2" fill-rule="evenodd" clip-rule="evenodd" d="M16.3912 18.75H9.4725V21.7416H13.5122L13.5394 41.25H16.3912V18.75ZM44.7759 21.5494V21.6469L44.7853 21.7434L44.7975 21.8409L44.8125 21.9347L44.8341 22.0284L44.8594 22.1194L44.8894 22.2094L44.9222 22.2975L44.9625 22.3819L45.0028 22.4663L45.0478 22.5478L45.0966 22.6266L45.1528 22.7016L45.2072 22.7728L45.2653 22.845L45.3309 22.9106L45.3947 22.9772L45.465 23.0372L45.5353 23.0934L45.6094 23.1497L45.6853 23.1994L45.7641 23.2462L45.8475 23.2875L45.93 23.3278L46.0163 23.3625L46.1053 23.3934L46.1934 23.4187L46.2853 23.4412L46.3772 23.4563L46.4719 23.4684L46.5666 23.4778H46.7634L46.8572 23.4684L46.9556 23.4563L47.0494 23.4412L47.1413 23.4187L47.2303 23.3934L47.3194 23.3625L47.4056 23.3278L47.4919 23.2875L47.5716 23.2472L47.6512 23.2003L47.7262 23.1497L47.8013 23.0934L47.8706 23.0372L47.9409 22.9772L48.0066 22.9116L48.0675 22.8459L48.1256 22.7728L48.18 22.7016L48.2325 22.6266L48.2812 22.5478L48.3281 22.4663L48.3666 22.3819L48.4069 22.2975L48.4378 22.2094L48.4678 22.1194L48.4922 22.0284L48.5138 21.9347L48.5288 21.8409L48.5409 21.7434L48.5466 21.6469L48.5503 21.5494L48.5466 21.4491L48.5409 21.3525L48.5288 21.255L48.5138 21.1613L48.4922 21.0712L48.4678 20.9803L48.4378 20.8894L48.4069 20.805L48.3666 20.7206L48.3281 20.6391L48.2812 20.5575L48.2325 20.4797L48.18 20.4075L48.1256 20.3353L48.0675 20.2669L48.0056 20.2013L47.9409 20.1384L47.8706 20.0784L47.8013 20.0222L47.7262 19.9697L47.6512 19.9191L47.5716 19.8722L47.4919 19.8309L47.4056 19.7934L47.3194 19.7588L47.2303 19.7306L47.1413 19.7063L47.0494 19.6838L46.9556 19.6687L46.8572 19.6556L46.7634 19.6462H46.5666L46.4728 19.6556L46.3772 19.6687L46.2853 19.6838L46.1934 19.7063L46.1053 19.7316L46.0163 19.7597L45.93 19.7934L45.8475 19.8309L45.7641 19.8722L45.6853 19.9191L45.6094 19.9697L45.5353 20.0222L45.465 20.0784L45.3947 20.1384L45.33 20.2003L45.2653 20.2669L45.2072 20.3353L45.1519 20.4075L45.0966 20.4797L45.0478 20.5575L45.0028 20.6391L44.9625 20.7206L44.9222 20.805L44.8903 20.8884L44.8603 20.9794L44.8359 21.0703L44.8144 21.1613L44.7984 21.255L44.7863 21.3516L44.7769 21.4481L44.7759 21.5494ZM45.1697 21.5766L45.1725 21.4922L45.1791 21.4106L45.1875 21.3291L45.1997 21.2475L45.2156 21.1697L45.2372 21.0947L45.2616 21.0197L45.2859 20.9475L45.3169 20.8762L45.3506 20.8069L45.3881 20.7384L45.4275 20.6756L45.4669 20.6138L45.5138 20.5509L45.5606 20.4947L45.6113 20.4384L45.6637 20.3859L45.7153 20.3353L45.7734 20.2884L45.8325 20.2444L45.8981 20.2041L45.9591 20.1628L46.0256 20.1291L46.0941 20.0972L46.1616 20.0691L46.2309 20.0447L46.305 20.0222L46.3791 20.0034L46.455 19.9912L46.5319 19.9819L46.6087 19.9753L46.6884 19.9725L46.7681 19.9753L46.8478 19.9819L46.9247 19.9912L47.0016 20.0034L47.0756 20.0222L47.1488 20.0447L47.2191 20.0691L47.2903 20.0972L47.3606 20.1291L47.4253 20.1628L47.4909 20.2041L47.5547 20.2444L47.6166 20.2884L47.6747 20.3353L47.73 20.3859L47.7816 20.4384L47.8341 20.4947L47.8828 20.5509L47.9297 20.6138L47.9728 20.6756L48.0131 20.7384L48.0497 20.8069L48.0834 20.8762L48.1144 20.9475L48.1425 21.0197L48.1669 21.0947L48.1884 21.1697L48.2072 21.2475L48.2194 21.3291L48.2288 21.4106L48.2344 21.4922L48.2362 21.5766L48.2334 21.6609L48.2269 21.7453L48.2175 21.8297L48.2053 21.9103L48.1866 21.9919L48.165 22.0697L48.1406 22.1484L48.1125 22.2234L48.0825 22.2984L48.0478 22.3697L48.0113 22.4391L47.9719 22.5047L47.9278 22.5703L47.8809 22.6331L47.8322 22.6931L47.7797 22.7494L47.7291 22.8056L47.6728 22.8553L47.6147 22.905L47.5537 22.9519L47.4881 22.9959L47.4244 23.0334L47.3587 23.0709L47.2884 23.1028L47.2181 23.1338L47.1478 23.1591L47.0738 23.1806L47.0006 23.1994L46.9237 23.2144L46.8469 23.2237L46.7672 23.2303L46.6875 23.2341L46.6078 23.2303L46.5309 23.2247L46.4541 23.2153L46.3772 23.1994L46.3041 23.1806L46.23 23.1591L46.1597 23.1338L46.0922 23.1028L46.0247 23.0719L45.9572 23.0344L45.8963 22.9969L45.8306 22.9519L45.7725 22.905L45.7144 22.8553L45.6619 22.8056L45.6094 22.7494L45.5588 22.6931L45.5119 22.6331L45.4659 22.5713L45.4256 22.5056L45.3862 22.4391L45.3488 22.3697L45.3169 22.2984L45.2859 22.2234L45.2616 22.1484L45.2372 22.0706L45.2156 21.9919L45.1997 21.9112L45.1875 21.8297L45.1781 21.7453L45.1716 21.6609L45.1697 21.5766ZM46.0341 22.5H46.3866V21.69H46.6584L46.7306 21.6928L46.7925 21.6994L46.8488 21.7088L46.8994 21.7219L46.9406 21.7406L46.9744 21.7603L47.0062 21.7828L47.0278 21.8091L47.0466 21.8344L47.0625 21.8625L47.0747 21.8925L47.0841 21.9244L47.0869 21.9563L47.0906 21.9881L47.0934 22.0209V22.2553L47.0972 22.3266L47.1028 22.3809L47.1084 22.4034L47.1122 22.4222L47.1187 22.4391L47.1281 22.4513L47.1375 22.4644L47.1469 22.4775L47.1591 22.4869L47.1741 22.5H47.5284L47.5125 22.4841L47.5031 22.4681L47.4938 22.4513L47.4844 22.4353L47.4722 22.4034L47.4656 22.3584L47.4591 22.2394L47.4469 22.0528L47.4441 21.9684L47.4375 21.8925L47.4309 21.8531L47.4253 21.8184L47.4159 21.7828L47.4037 21.7472L47.3878 21.7153L47.3691 21.6862L47.3466 21.6581L47.3222 21.6319L47.2903 21.6084L47.2566 21.5859L47.2191 21.5672L47.175 21.5484L47.2284 21.5288L47.2753 21.5025L47.3156 21.4772L47.3531 21.4509L47.3813 21.4256L47.4094 21.3975L47.4319 21.3637L47.4506 21.3356L47.4666 21.3066L47.4759 21.2737L47.4853 21.2456L47.4919 21.2166L47.5013 21.1547V21.0553L47.4975 21.0131L47.4919 20.9719L47.4825 20.9334L47.4731 20.8978L47.46 20.8622L47.4441 20.8341L47.4319 20.8012L47.4131 20.7759L47.3944 20.7497L47.3756 20.7272L47.3541 20.7047L47.3325 20.6859L47.31 20.6663L47.2856 20.6494L47.2603 20.6344L47.2106 20.6081L47.1572 20.5856L47.1075 20.5725L47.0541 20.5594L47.0044 20.55L46.9575 20.5472L46.9172 20.5434H46.0359V22.5H46.0341ZM46.3491 20.8688H46.7175L46.7588 20.8725L46.7962 20.8781L46.8319 20.8847L46.8675 20.8941L46.8984 20.9053L46.9247 20.9175L46.9509 20.9353L46.9772 20.9531L46.9978 20.9737L47.0156 20.9953L47.0306 21.0225L47.0419 21.0516L47.0503 21.0816L47.0569 21.1172V21.18L47.0531 21.2044L47.0503 21.2278L47.0438 21.255L47.0353 21.2784L47.0259 21.3028L47.0119 21.3234L46.9978 21.3441L46.9772 21.3656L46.9538 21.3834L46.9275 21.4012L46.8956 21.4134L46.8609 21.4247L46.8234 21.4341L46.7766 21.4369L46.7269 21.4406H46.3491V20.8688ZM55.3116 36.1866H29.8941L29.5763 36.1763L29.2669 36.1509L28.9584 36.1125L28.6575 36.0562L28.3622 35.9859L28.0725 35.9006L27.7866 35.7994L27.5091 35.6897L27.2372 35.5603L26.9737 35.4197L26.7178 35.2687L26.4703 35.1038L26.2303 34.9266L26.0016 34.7391L25.7794 34.5403L25.5666 34.3284L25.365 34.1091L25.1737 33.8784L24.9937 33.6366L24.8231 33.3909L24.6647 33.1322L24.5147 32.8659L24.3816 32.5922L24.2597 32.3109L24.15 32.0203L24.0562 31.7269L23.9747 31.425L23.9072 31.1184L23.8519 30.8053L23.8125 30.4847L23.7909 30.1622L23.7816 29.8331L23.7872 29.5069L23.8088 29.1844L23.8425 28.8675L23.8941 28.5544L23.9587 28.2478L24.0375 27.9441L24.1313 27.6459L24.2391 27.3553L24.3581 27.0694L24.4894 26.7947L24.6319 26.5256L24.7903 26.2631L24.9581 26.01L25.1334 25.7662L25.3247 25.5319L25.5225 25.3069L25.7334 25.0912L25.9547 24.8897L26.1844 24.6956L26.4225 24.5156L26.6691 24.3441L26.9241 24.1884L27.1894 24.0431L27.4613 23.9119L27.7406 23.7956L28.0238 23.6906L28.3162 23.6063L28.6153 23.5331L28.9191 23.4731L29.2303 23.4319L29.5472 23.4066L29.8659 23.3972L30.1772 23.4066L30.4847 23.4319L30.7894 23.4759L31.0875 23.5341L31.3828 23.6091L31.6753 23.7009L31.9584 23.8059L32.2397 23.9259L32.5125 24.0619L32.7769 24.2119L33.0366 24.3722L33.2897 24.5503L33.5334 24.7378L33.7678 24.9403L33.9928 25.1522L34.2122 25.3772L34.4194 25.6116L34.6144 25.8581L34.8 26.115L34.9772 26.3803L35.1413 26.6588L35.2913 26.9437L35.4319 27.2381L35.5594 27.5419L35.6719 27.8522L35.7731 28.1719L35.8594 28.4953L35.9297 28.8272L35.9841 29.1694L36.0272 29.5134L36.0516 29.8622L36.0572 30.2184H33.1978L33.195 30.0197L33.1856 29.8266L33.1669 29.6334L33.1397 29.4469L33.1097 29.2603L33.0703 29.0794L33.0234 28.9012L32.9728 28.7269L32.9138 28.5562L32.8481 28.3913L32.7769 28.2337L32.6981 28.0772L32.6128 27.9253L32.5209 27.7837L32.4234 27.6441L32.3231 27.51L32.2134 27.3834L32.0972 27.2634L31.9753 27.1509L31.8516 27.0441L31.7203 26.9456L31.5797 26.8537L31.4372 26.7694L31.2919 26.6962L31.1363 26.6259L30.9787 26.5659L30.8137 26.5153L30.6459 26.4741L30.4697 26.4394L30.2934 26.4141L30.1078 26.4019L29.9184 26.3953L29.7291 26.4019L29.5472 26.4141L29.3672 26.4394L29.1937 26.4741L29.0231 26.5153L28.8591 26.5659L28.7006 26.6259L28.5487 26.6962L28.3988 26.7712L28.2553 26.8584L28.1184 26.9503L27.9844 27.0487L27.8597 27.1556L27.7378 27.2681L27.6253 27.3881L27.5156 27.5147L27.4125 27.6488L27.3141 27.7875L27.2231 27.93L27.1416 28.0819L27.0619 28.2375L26.9888 28.3959L26.9241 28.5609L26.8641 28.7316L26.8116 28.9059L26.7666 29.0841L26.7272 29.265L26.6962 29.4525L26.6719 29.6381L26.6531 29.8312L26.6419 30.0244L26.6381 30.2231L26.6447 30.3825L26.6569 30.5381L26.6812 30.6928L26.7122 30.8428L26.7544 30.9909L26.8003 31.1325L26.8584 31.2759L26.9222 31.4128L26.9925 31.5459L27.0684 31.6762L27.1547 31.8019L27.2456 31.9219L27.3441 32.04L27.4434 32.1516L27.5541 32.2612L27.6666 32.3616L27.7819 32.4619L27.9037 32.5528L28.0312 32.6419L28.1625 32.7244L28.2966 32.7994L28.4334 32.8688L28.5741 32.9362L28.7166 32.9925L28.86 33.0469L29.01 33.0919L29.16 33.1341L29.31 33.1659L29.4628 33.1912L29.6147 33.21L29.7703 33.2194L29.9231 33.225H55.3125V36.1959L55.3116 36.1866ZM55.3116 40.8422H29.9297L29.3906 40.83L28.8581 40.7887L28.3284 40.7259L27.8109 40.6341L27.2991 40.5216L26.8003 40.3819L26.3072 40.2178L25.8263 40.0322L25.3575 39.8259L24.8981 39.5953L24.4538 39.3469L24.0206 39.075L23.6034 38.7844L23.2022 38.4731L22.8159 38.1431L22.4438 37.7963L22.0903 37.4325L21.7528 37.05L21.4359 36.6497L21.1378 36.2372L20.8575 35.8031L20.5988 35.3587L20.3625 34.8984L20.1469 34.4241L19.9547 33.9394L19.7878 33.4397L19.6406 32.9269L19.5187 32.4056L19.425 31.8684L19.3575 31.3266L19.3144 30.7725L19.2994 30.21L19.3144 29.6419L19.3519 29.0813L19.4175 28.5262L19.5066 27.9769L19.6191 27.4341L19.7559 26.9006L19.9172 26.3775L20.1 25.8591L20.3044 25.3575L20.5294 24.8653L20.7797 24.3862L21.0469 23.9194L21.3366 23.4675L21.6441 23.0325L21.9694 22.6106L22.3163 22.2056L22.6781 21.8212L23.0588 21.4519L23.4572 21.105L23.8716 20.7769L24.3009 20.4703L24.7453 20.1862L25.2075 19.9247L25.68 19.6884L26.1703 19.4766L26.6719 19.2872L27.1875 19.1269L27.7134 18.9928L28.2497 18.8897L28.8009 18.81L29.3606 18.7659L29.9297 18.75L30.5016 18.7622L31.0622 18.8072L31.6097 18.8794L32.1488 18.9806L32.6747 19.1062L33.1931 19.2609L33.6956 19.4409L34.1822 19.6472L34.6603 19.8731L35.1197 20.1263L35.5669 20.4L35.9963 20.6972L36.4125 21.0159L36.8109 21.3563L37.1916 21.7125L37.5572 22.0903L37.9041 22.4878L38.2322 22.9041L38.5397 23.3353L38.8322 23.7844L39.1003 24.2484L39.3497 24.7303L39.5784 25.2234L39.7819 25.7316L39.9684 26.2519L40.1259 26.7853L40.2666 27.3309L40.3791 27.8859L40.4672 28.4513L40.5337 29.0288L40.5713 29.6128L40.5853 30.2053H37.7297L37.7147 29.7956L37.6875 29.3916L37.6416 28.9875L37.5788 28.5872L37.5019 28.1934L37.4081 27.8016L37.3003 27.4172L37.1756 27.0384L37.035 26.6691L36.8803 26.3034L36.7125 25.95L36.5278 25.6031L36.3263 25.2694L36.1134 24.9441L35.8856 24.6281L35.6447 24.3263L35.3869 24.0384L35.115 23.7647L34.8328 23.5031L34.5337 23.2594L34.2206 23.0278L33.8944 22.8131L33.5569 22.6181L33.2044 22.4362L32.8387 22.275L32.46 22.1372L32.0719 22.0144L31.6669 21.9169L31.2506 21.8372L30.8241 21.7809L30.3825 21.7491L29.9287 21.7397L29.4759 21.7491L29.0306 21.7866L28.6022 21.8475L28.185 21.9291L27.78 22.0322L27.3872 22.1587L27.0066 22.3041L26.6419 22.4681L26.2894 22.6519L25.9481 22.8534L25.6219 23.0709L25.3088 23.3044L25.0106 23.5538L24.7275 23.8191L24.4566 24.1003L24.1978 24.3909L23.9569 24.6928L23.7291 25.0088L23.5163 25.3369L23.3212 25.6744L23.1356 26.0184L22.9678 26.3719L22.8159 26.7347L22.6791 27.1041L22.5572 27.4791L22.4541 27.8578L22.3631 28.2422L22.2891 28.6303L22.2319 29.0222L22.1887 29.4159L22.1644 29.8116L22.155 30.2091L22.1681 30.5662L22.1944 30.9225L22.2431 31.2778L22.3078 31.6284L22.3903 31.9809L22.4906 32.3288L22.6087 32.6738L22.7428 33.0113L22.8928 33.3422L23.0616 33.6694L23.2434 33.9881L23.4384 34.3013L23.6513 34.6031L23.8763 34.9003L24.1172 35.1844L24.3694 35.4581L24.6319 35.7244L24.9113 35.9766L25.2038 36.2137L25.5037 36.4416L25.8178 36.6534L26.1431 36.8484L26.4806 37.0312L26.8275 37.1962L27.1838 37.3472L27.5494 37.4766L27.9263 37.5891L28.3097 37.6847L28.7025 37.7569L29.1038 37.8103L29.5116 37.8459L29.9259 37.8553H55.3125L55.3116 40.8422ZM12.2737 23.3972H6.5625V26.3859H9.44625V41.25H12.3028L12.2747 23.3972H12.2737Z" fill="#DA251D"/>
</g>
</g>
</g>
</g>
</g>
<defs>
<clipPath id="clip0_887_35340">
<rect width="60" height="60" fill="white"/>
</clipPath>
</defs>
</svg>
