<svg width="100" height="31" viewBox="0 0 100 31" fill="none" xmlns="http://www.w3.org/2000/svg">
<g clip-path="url(#clip0_887_35462)">
<path d="M0.761719 14.228H10.577C13.7117 14.228 15.6114 13.9186 17.0046 13.2449C18.461 12.5712 19.1576 11.5151 19.1576 10.2225C19.1576 9.36678 18.746 8.63851 18.1761 8.16518C17.6061 7.72817 17.0046 7.41864 16.308 7.12737C16.6562 6.79957 17.1311 6.36268 17.5745 5.92568C18.2395 5.23384 18.6511 4.63304 18.6511 3.77731C18.6511 2.66663 17.7962 1.7017 16.3714 1.13724C15.1049 0.645739 13.5218 0.5 11.0837 0.5H0.761719V14.228ZM4.59279 12.1525V8.29254H10.8621C12.3185 8.29254 13.2051 8.36541 13.9333 8.62035C14.8832 9.00264 15.2632 9.51241 15.2632 10.2225C15.2632 10.8597 14.9781 11.3331 14.2815 11.6609C13.5849 12.0067 12.5719 12.1525 10.6404 12.1525H4.59279ZM4.59279 6.21704V2.5756H10.7353C12.1285 2.5756 13.11 2.61204 13.7433 2.83054C14.4716 3.06721 14.7565 3.4495 14.7565 3.99581C14.7565 4.52374 14.4399 4.92431 13.9967 5.37947C13.7117 5.65258 13.395 5.96211 13.11 6.21704H4.59279Z" fill="#6F6F6F"/>
<path d="M25.6468 14.228V3.79547L31.251 11.497H34.7655L40.3697 3.79547V14.228H44.1376V0.5H39.0717L33.0558 8.78414L27.0082 0.5H21.8789V14.228H25.6468Z" fill="#6F6F6F"/>
<path d="M55.631 14.228L59.5888 5.65258L63.5466 14.228H68.581L73.2671 0.5H69.4043L65.7314 11.3695L61.6469 2.5756H57.5625L53.478 11.3695L49.8051 0.5H45.8789L50.5651 14.228H55.631Z" fill="#6F6F6F"/>
<path d="M17.7628 30.0449V22.835H13.9632V28.2424C13.1083 28.2971 11.462 28.4063 9.91044 28.4063C7.21914 28.4063 5.66762 28.024 4.8127 27.0408C4.1161 26.2396 3.8946 25.0562 3.8946 23.454C3.8946 21.8517 4.14786 20.6137 4.84447 19.7944C5.73098 18.7202 7.09242 18.3014 9.84707 18.3014C10.702 18.3014 11.6519 18.3743 12.6333 18.4835C14.1215 18.6474 15.673 18.8476 16.9711 19.0297V16.8813C15.9896 16.7357 14.6282 16.5536 13.1716 16.3897C12.0001 16.2623 10.702 16.1531 9.46709 16.1531C5.06596 16.1531 3.03969 17.0998 1.70983 18.3925C0.443346 19.6123 0 21.2509 0 23.4904C0 25.6388 0.474933 27.2047 1.55152 28.2788C2.8496 29.5715 4.74934 30.5 9.34055 30.5C12.0952 30.5 15.4831 30.2634 17.7628 30.0449Z" fill="#6F6F6F"/>
<path d="M24.3975 30.1905V25.1837H30.0017L35.1312 30.1905H39.5955L34.118 24.856C34.7195 24.4919 35.7011 23.8546 36.4609 23.3266C37.6958 22.4527 38.4558 21.597 38.4558 20.3589C38.4558 19.1572 37.6958 18.0465 36.3344 17.3911C34.8146 16.6447 33.0414 16.4626 30.1284 16.4626H20.5664V30.1905H24.3975ZM24.3975 23.0716V18.5746H29.7169C31.7433 18.5746 32.7564 18.6656 33.453 18.9387C34.2763 19.2664 34.5612 19.7398 34.5612 20.3771C34.5612 21.1054 34.0229 21.6334 33.3264 22.1432C32.9147 22.4344 32.3766 22.7986 31.9332 23.0716H24.3975Z" fill="#6F6F6F"/>
<path d="M49.9816 16.1528C45.2954 16.1528 43.1107 17.0267 41.6227 18.4833C40.3878 19.685 40.0078 21.5238 40.0078 23.3627C40.0078 25.4929 40.5777 27.2772 41.8126 28.4243C43.269 29.7715 45.3272 30.4998 49.9816 30.4998C54.0343 30.4998 56.1873 29.8625 57.8656 28.4606C59.2904 27.2954 59.9236 25.4383 59.9236 23.3627C59.9236 21.3963 59.4169 19.4482 57.8656 18.1737C56.2191 16.8082 54.0659 16.1528 49.9816 16.1528ZM49.9816 18.2648C52.1346 18.2648 53.8127 18.5743 54.8259 19.5939C55.7442 20.486 56.029 21.8879 56.029 23.3627C56.029 24.8921 55.7442 26.4397 54.5093 27.35C53.4011 28.1693 51.8813 28.3878 49.9816 28.3878C47.8284 28.3878 46.0236 28.1875 44.9788 27.1497C44.1557 26.294 43.9022 24.8193 43.9022 23.3627C43.9022 21.8879 44.1239 20.4497 44.9472 19.5939C45.992 18.5015 47.8284 18.2648 49.9816 18.2648Z" fill="#6F6F6F"/>
<path d="M62.3711 16.4626V24.9106C62.3711 26.8587 62.7511 28.2607 64.3658 29.2439C65.9489 30.2452 68.0387 30.5001 71.2683 30.5001C74.3078 30.5001 76.4292 30.2088 78.0441 29.2802C79.7537 28.2971 80.1337 26.9679 80.1337 24.9106V16.4626H76.3027V24.9652C76.3027 26.4036 76.1444 27.2593 75.0994 27.8237C74.2129 28.2788 72.8514 28.3881 71.2683 28.3881C69.6534 28.3881 68.2604 28.2788 67.4055 27.8055C66.3607 27.2229 66.2023 26.3671 66.2023 24.9652V16.4626H62.3711Z" fill="#6F6F6F"/>
<path d="M86.7529 30.1905V25.2747C89.2543 25.2747 91.3757 25.2747 92.7056 25.2201C94.922 25.1473 96.7267 24.8742 98.0566 24.0913C99.4496 23.2537 99.9879 22.0703 99.9879 20.7594C99.9879 19.5032 99.3863 18.3379 98.1198 17.5732C96.7899 16.7903 95.0803 16.4626 92.4522 16.4626H82.9219V30.1905H86.7529ZM86.7529 23.1627V18.5746H92.0406C93.5605 18.5746 94.4786 18.6656 95.1436 19.048C95.8085 19.4303 96.0935 20.013 96.0935 20.7594C96.0935 21.4876 95.9352 22.0703 95.3019 22.4709C94.6687 22.9079 93.7504 23.0535 92.3256 23.1081C90.869 23.1627 88.8744 23.1627 86.7529 23.1627Z" fill="#6F6F6F"/>
</g>
<defs>
<clipPath id="clip0_887_35462">
<rect width="100" height="30" fill="white" transform="translate(0 0.5)"/>
</clipPath>
</defs>
</svg>
