<svg width="60" height="60" viewBox="0 0 60 60" fill="none" xmlns="http://www.w3.org/2000/svg">
<g clip-path="url(#clip0_887_35348)">
<g clip-path="url(#clip1_887_35348)">
<rect width="60" height="60" rx="15" fill="#00CCAE"/>
</g>
<path d="M19.1591 13.6629C19.7507 11.6752 21.578 10.3125 23.6519 10.3125H42.1875C44.7763 10.3125 46.875 12.4112 46.875 15V45C46.875 47.5888 44.7763 49.6875 42.1875 49.6875H14.7233C11.5876 49.6875 9.33607 46.6683 10.2305 43.6629L19.1591 13.6629Z" fill="white"/>
<path d="M27.6562 19.2188H36.5625C37.0803 19.2188 37.5 19.6385 37.5 20.1563V37.9688" stroke="#222222" stroke-width="2.0625" stroke-linecap="round" stroke-linejoin="round"/>
<path d="M21.1577 42.6562L19.8785 38.5778C19.7838 38.2758 20.0093 37.9688 20.3258 37.9688H40.6117C40.9282 37.9688 41.1537 38.2758 41.059 38.5778L39.7798 42.6562" stroke="#222222" stroke-width="2.0625" stroke-linecap="round" stroke-linejoin="round"/>
<path d="M22.9688 31.4062H31.875" stroke="#222222" stroke-width="2.0625" stroke-linecap="round" stroke-linejoin="round"/>
<path d="M24.375 25.7812H31.875" stroke="#222222" stroke-width="2.0625" stroke-linecap="round" stroke-linejoin="round"/>
</g>
<defs>
<clipPath id="clip0_887_35348">
<rect width="60" height="60" fill="white"/>
</clipPath>
<clipPath id="clip1_887_35348">
<rect width="60" height="60" fill="white"/>
</clipPath>
</defs>
</svg>
