<svg width="100" height="31" viewBox="0 0 100 31" fill="none" xmlns="http://www.w3.org/2000/svg">
<path d="M6.94871 0.5V6.92064C6.92208 8.34745 7.85923 11.2011 11.8208 11.2011H19.1688V6.92064H12.5396C12.275 6.92064 12.0604 6.729 12.0604 6.4926V0.5H6.94871Z" fill="#F15A22"/>
<path d="M21.4851 6.92064V11.2011H28.1942C28.4588 11.2011 28.6734 11.3927 28.6734 11.6291V17.7644H33.5455V11.2011C33.5721 9.77426 32.635 6.92064 28.6734 6.92064H21.4851Z" fill="#65737F"/>
<path d="M28.6734 0.5V5.99321C30.6435 6.08833 34.5838 7.26307 34.5838 11.2011H40.7338V6.92064H34.0247C33.76 6.92064 33.5455 6.729 33.5455 6.4926V0.5H28.6734Z" fill="#F15A22"/>
<path d="M0 6.92064V11.2011H6.46949C6.73415 11.2011 6.94871 11.3927 6.94871 11.6291V26.7533C6.86884 27.9898 7.73143 30.463 11.8208 30.463H19.1688V26.1826H11.8208V12.1998C10.037 12.1285 6.38962 10.9728 6.07013 6.92064H0Z" fill="#65737F"/>
<path d="M72.7339 23.4022C72.2729 23.4022 71.8563 23.4745 71.4843 23.619C71.1122 23.7562 70.7968 23.9621 70.538 24.2366C70.2792 24.5039 70.081 24.8326 69.9435 25.2227C69.806 25.6056 69.7373 26.0391 69.7373 26.5231C69.7373 27.1588 69.8465 27.7115 70.0648 28.181C70.2913 28.6506 70.6229 29.0118 71.0597 29.2647C71.5045 29.5175 72.0585 29.6439 72.7217 29.6439C73.1019 29.6439 73.4618 29.615 73.8015 29.5572C74.1412 29.4995 74.4728 29.4272 74.7963 29.3405V30.1857C74.4728 30.2941 74.1371 30.3736 73.7893 30.4241C73.4497 30.4747 73.0412 30.5 72.564 30.5C71.6824 30.5 70.9464 30.3375 70.356 30.0124C69.7656 29.6873 69.3208 29.2249 69.0215 28.6253C68.7303 28.0257 68.5847 27.3214 68.5847 26.5122C68.5847 25.9271 68.6737 25.3925 68.8517 24.9085C69.0377 24.4245 69.3046 24.0054 69.6524 23.6515C70.0082 23.2975 70.445 23.0266 70.9626 22.8387C71.4802 22.6437 72.0747 22.5462 72.746 22.5462C73.1908 22.5462 73.6195 22.5859 74.032 22.6654C74.4445 22.7448 74.8125 22.8568 75.136 23.0013L74.6992 23.8248C74.4323 23.7165 74.1331 23.619 73.8015 23.5323C73.478 23.4456 73.1221 23.4022 72.7339 23.4022Z" fill="#2A2A2A"/>
<path d="M76.6869 30.3916V22.6545H81.8308V23.5106H77.7788V25.9271H79.0647C79.9302 25.9271 80.6015 26.0246 81.0786 26.2197C81.5558 26.4075 81.8874 26.6676 82.0735 26.9999C82.2595 27.325 82.3525 27.7006 82.3525 28.1269C82.3525 28.5964 82.2473 29.001 82.0371 29.3405C81.8349 29.6801 81.5033 29.9401 81.0422 30.1207C80.5812 30.3013 79.9746 30.3916 79.2225 30.3916H76.6869ZM79.1133 29.5572C79.8897 29.5572 80.4357 29.4417 80.7511 29.2105C81.0665 28.9721 81.2242 28.6109 81.2242 28.1269C81.2242 27.7945 81.1474 27.5309 80.9937 27.3358C80.8481 27.1335 80.6055 26.989 80.2658 26.9023C79.9342 26.8157 79.4894 26.7723 78.9313 26.7723H77.7788V29.5572H79.1133Z" fill="#2A2A2A"/>
<path d="M84.1509 30.3916V22.6545H85.2427V25.9271H86.5773C87.386 25.9271 88.0209 26.0246 88.482 26.2197C88.9511 26.4147 89.2827 26.6784 89.4768 27.0107C89.679 27.343 89.7801 27.7151 89.7801 28.1269C89.7801 28.582 89.6709 28.9793 89.4525 29.3188C89.2422 29.6584 88.9106 29.9221 88.4577 30.1099C88.0048 30.2977 87.4224 30.3916 86.7107 30.3916H84.1509ZM86.6136 29.5681C87.3092 29.5681 87.8228 29.4489 88.1544 29.2105C88.486 28.9721 88.6518 28.6109 88.6518 28.1269C88.6518 27.7945 88.5709 27.5309 88.4092 27.3358C88.2555 27.1407 88.0169 26.9999 87.6934 26.9132C87.3699 26.8265 86.9574 26.7832 86.4559 26.7832H85.2427V29.5681H86.6136ZM91.1146 30.3916V22.6545H92.2065V30.3916H91.1146Z" fill="#2A2A2A"/>
<path d="M97.3067 30.3916H96.2148V23.5106H93.5094V22.6545H100V23.5106H97.3067V30.3916Z" fill="#2A2A2A"/>
<path d="M24.2997 23.4022C23.8953 23.4022 23.5273 23.4456 23.1957 23.5323C22.8641 23.6117 22.5648 23.7056 22.2979 23.814L21.849 23.0013C22.1806 22.8568 22.5608 22.7448 22.9894 22.6654C23.4181 22.5859 23.8589 22.5462 24.3118 22.5462C25.0074 22.5462 25.6099 22.6437 26.1195 22.8387C26.6371 23.0266 27.0658 23.2939 27.4055 23.6406C27.7452 23.9874 27.9959 24.3956 28.1576 24.8651C28.3275 25.3275 28.4124 25.8368 28.4124 26.393C28.4124 27.2383 28.2587 27.9679 27.9514 28.582C27.6441 29.196 27.179 29.6692 26.5562 30.0015C25.9415 30.3338 25.1651 30.5 24.2269 30.5C23.7254 30.5 23.3008 30.4747 22.953 30.4241C22.6053 30.3736 22.2615 30.2941 21.9218 30.1857V29.3405C22.2615 29.42 22.6053 29.4922 22.953 29.5572C23.3008 29.615 23.6688 29.6439 24.0571 29.6439C24.5828 29.6439 25.0397 29.5825 25.428 29.4597C25.8243 29.3297 26.1559 29.1455 26.4228 28.9071C26.6897 28.6614 26.8919 28.3616 27.0294 28.0077C27.1669 27.6464 27.2437 27.2347 27.2599 26.7723H23.0501V25.9162H27.2478C27.2073 25.5189 27.1103 25.1649 26.9566 24.8543C26.8029 24.5437 26.5967 24.28 26.3379 24.0632C26.0871 23.8465 25.7879 23.684 25.4401 23.5756C25.1004 23.46 24.7203 23.4022 24.2997 23.4022Z" fill="#F15A22"/>
<path d="M36.9632 30.3916H35.8713V26.7832H31.431V30.3916H30.3391V22.6545H31.431V25.9271H35.8713V22.6545H36.9632V30.3916Z" fill="#F15A22"/>
<path d="M44.1721 30.3916H39.3314V22.6545H44.1721V23.5106H40.4233V25.9271H43.9537V26.7723H40.4233V29.5356H44.1721V30.3916Z" fill="#F15A22"/>
<path fill-rule="evenodd" clip-rule="evenodd" d="M48.3656 22.6545C49.498 22.6545 50.3229 22.8532 50.8406 23.2505C51.3582 23.6478 51.617 24.2077 51.617 24.9301C51.617 25.248 51.5563 25.555 51.435 25.8512C51.3218 26.1402 51.1317 26.4003 50.8648 26.6314C50.5979 26.8626 50.2421 27.0468 49.7972 27.1841C49.3524 27.3141 48.8064 27.3791 48.1594 27.3791H47.1646V30.3916H46.0727V22.6545H48.3656ZM47.1646 23.4889H48.2686C49.037 23.4889 49.5991 23.6117 49.9549 23.8574C50.3108 24.103 50.4887 24.475 50.4887 24.9735C50.4887 25.3491 50.3998 25.6526 50.2218 25.8837C50.0439 26.1149 49.773 26.2847 49.409 26.393C49.045 26.4942 48.5881 26.5448 48.0381 26.5448H47.1646V23.4889Z" fill="#F15A22"/>
<path d="M58.3074 22.6545V23.5214H54.5101V30.3916H53.4182V22.6545H58.3074Z" fill="#F15A22"/>
<path fill-rule="evenodd" clip-rule="evenodd" d="M67.1016 26.5122C67.1016 27.1119 67.0167 27.6573 66.8468 28.1485C66.677 28.6325 66.4222 29.0515 66.0825 29.4055C65.7509 29.7595 65.3344 30.0304 64.8329 30.2183C64.3396 30.4061 63.7653 30.5 63.1102 30.5C62.4308 30.5 61.8404 30.4061 61.3389 30.2183C60.8375 30.0232 60.421 29.7523 60.0894 29.4055C59.7578 29.0515 59.5111 28.6289 59.3493 28.1377C59.1876 27.6464 59.1067 27.101 59.1067 26.5014C59.1067 25.7067 59.2523 25.0132 59.5434 24.4208C59.8346 23.8285 60.2754 23.3661 60.8658 23.0338C61.4643 22.7015 62.2165 22.5353 63.1223 22.5353C63.9878 22.5353 64.7157 22.7015 65.3061 23.0338C65.8965 23.3589 66.3414 23.8212 66.6406 24.4208C66.9479 25.0132 67.1016 25.7104 67.1016 26.5122ZM60.5625 28.1919C60.3603 27.7223 60.2592 27.1624 60.2592 26.5122C60.2592 25.8621 60.3603 25.3058 60.5625 24.8435C60.7647 24.3739 61.0761 24.0163 61.4967 23.7707C61.9253 23.5178 62.4672 23.3914 63.1223 23.3914C64.101 23.3914 64.8168 23.6695 65.2697 24.2258C65.7226 24.7748 65.9491 25.537 65.9491 26.5122C65.9491 27.1624 65.848 27.7223 65.6458 28.1919C65.4436 28.6614 65.1322 29.0227 64.7116 29.2755C64.2991 29.5283 63.7653 29.6548 63.1102 29.6548C62.4632 29.6548 61.9253 29.5283 61.4967 29.2755C61.0761 29.0227 60.7647 28.6614 60.5625 28.1919Z" fill="#F15A22"/>
</svg>
