<svg width="100" height="31" viewBox="0 0 100 31" fill="none" xmlns="http://www.w3.org/2000/svg">
<g clip-path="url(#clip0_887_35452)">
<path d="M42.5556 15.8847C42.5556 20.0488 38.8828 23.1173 34.3755 23.1173C29.8681 23.1173 26.1953 20.0488 26.1953 15.8847C26.1953 11.6912 29.8681 8.6521 34.3755 8.6521C38.8828 8.6521 42.5556 11.6912 42.5556 15.8847ZM38.9747 15.8847C38.9747 13.2825 36.846 11.5021 34.3755 11.5021C31.9049 11.5021 29.7762 13.2825 29.7762 15.8847C29.7762 18.4608 31.9049 20.2673 34.3755 20.2673C36.846 20.2673 38.9747 18.4575 38.9747 15.8847Z" fill="#EA4335"/>
<path d="M60.204 15.8847C60.204 20.0488 56.5312 23.1173 52.0239 23.1173C47.5165 23.1173 43.8438 20.0488 43.8438 15.8847C43.8438 11.6945 47.5165 8.6521 52.0239 8.6521C56.5312 8.6521 60.204 11.6912 60.204 15.8847ZM56.6232 15.8847C56.6232 13.2825 54.4945 11.5021 52.0239 11.5021C49.5533 11.5021 47.4246 13.2825 47.4246 15.8847C47.4246 18.4608 49.5533 20.2673 52.0239 20.2673C54.4945 20.2673 56.6232 18.4575 56.6232 15.8847Z" fill="#FBBC05"/>
<path d="M77.1128 9.08906V22.0738C77.1128 27.4151 73.5613 29.5967 69.3628 29.5967C65.4106 29.5967 63.0319 27.2521 62.1349 25.3347L65.2525 24.1836C65.8077 25.3608 67.168 26.7499 69.3591 26.7499C72.0466 26.7499 73.7121 25.2793 73.7121 22.5108V21.4706H73.5871C72.7856 22.3478 71.2415 23.1141 69.293 23.1141C65.2158 23.1141 61.4805 19.9641 61.4805 15.9108C61.4805 11.8282 65.2158 8.6521 69.293 8.6521C71.2378 8.6521 72.7819 9.4184 73.5871 10.2695H73.7121V9.09232H77.1128V9.08906ZM73.9658 15.9108C73.9658 13.3641 72.0503 11.5021 69.6128 11.5021C67.1422 11.5021 65.0724 13.3641 65.0724 15.9108C65.0724 18.4314 67.1422 20.2673 69.6128 20.2673C72.0503 20.2673 73.9658 18.4314 73.9658 15.9108Z" fill="#4285F4"/>
<path d="M82.7192 1.47827V22.6739H79.2266V1.47827H82.7192Z" fill="#34A853"/>
<path d="M96.3332 18.2652L99.1126 19.9087C98.2155 21.0859 96.0538 23.1141 92.3185 23.1141C87.6861 23.1141 84.2266 19.9381 84.2266 15.8815C84.2266 11.5804 87.7155 8.64893 91.9177 8.64893C96.1494 8.64893 98.2192 11.6359 98.8957 13.25L99.267 14.0718L88.3663 18.0761C89.2008 19.5272 90.4986 20.2674 92.3185 20.2674C94.142 20.2674 95.4067 19.4718 96.3332 18.2652ZM87.778 15.6631L95.0648 12.9794C94.6641 12.0761 93.4582 11.4468 92.0391 11.4468C90.2192 11.4468 87.6861 12.8718 87.778 15.6631Z" fill="#EA4335"/>
<path d="M12.9747 14.0033V10.9348H24.6328C24.7468 11.4696 24.8056 12.1022 24.8056 12.787C24.8056 15.0892 24.096 17.9359 21.8093 19.9642C19.585 22.0185 16.7431 23.1142 12.9784 23.1142C6.00046 23.1142 0.132812 18.0729 0.132812 11.8838C0.132812 5.69462 6.00046 0.65332 12.9784 0.65332C16.8387 0.65332 19.5887 1.9968 21.6549 3.74789L19.2137 5.9131C17.7321 4.68049 15.7247 3.7218 12.9747 3.7218C7.87914 3.7218 3.89384 7.36419 3.89384 11.8838C3.89384 16.4033 7.87914 20.0457 12.9747 20.0457C16.2799 20.0457 18.1622 18.8685 19.3681 17.799C20.346 16.9316 20.9894 15.6925 21.2431 14.0001L12.9747 14.0033Z" fill="#4285F4"/>
</g>
<defs>
<clipPath id="clip0_887_35452">
<rect width="100" height="30" fill="white" transform="translate(0 0.5)"/>
</clipPath>
</defs>
</svg>
