<svg width="121" height="60" viewBox="0 0 121 60" fill="none" xmlns="http://www.w3.org/2000/svg">
<g clip-path="url(#clip0_887_35360)">
<path d="M121 0H0V60H61.1648" fill="url(#paint0_linear_887_35360)"/>
<path d="M57.2202 15.6503V38.6294L48.633 15.6503H40.0459L32.7798 34.7273C31.8991 29.958 26.8349 28.2238 22.8716 26.9231C20.2294 26.0559 17.367 24.972 17.367 23.4545C17.367 22.3706 18.9083 21.2867 21.7706 21.5035C23.7523 21.7203 25.5138 21.7203 29.0367 23.4545L32.5596 17.6014C29.2569 15.8671 24.8532 15 21.3303 15C17.1468 15 13.6239 16.3007 11.422 18.4685C9.88073 19.986 9.22018 21.9371 9 24.1049C9 27.1399 10.1009 29.3077 12.5229 31.042C14.5046 32.3427 16.9266 33.2098 19.1284 33.8601C21.9908 34.7273 24.1927 35.5944 24.1927 37.1119C23.9725 39.0629 21.7706 39.4965 20.2294 39.4965C17.5872 39.7133 15.3853 39.2797 12.0826 37.3287L9 43.1818C12.3028 45.1329 15.8257 46 20.0092 46C22.8716 46 27.2752 45.1329 29.6972 42.965L29.2569 44.9161H37.6239L39.1651 41.2308C42.4679 42.0979 46.211 42.3147 49.5138 41.2308L50.6147 44.9161H65.5872V36.2448H68.6697C76.3762 36.2448 81 32.5594 81 26.0559C81 18.6853 76.5963 15.6503 67.1284 15.6503H57.2202ZM41.1468 34.7273L44.2294 24.972H44.4495L47.5321 34.7273C45.3303 35.3776 43.1284 35.3776 41.1468 34.7273ZM65.5872 29.7413V21.9371H67.789C70.6514 21.9371 72.8532 22.8042 72.8532 25.6224C72.8532 28.6573 70.6514 29.7413 67.789 29.7413H65.5872Z" fill="white"/>
</g>
<defs>
<linearGradient id="paint0_linear_887_35360" x1="0" y1="0" x2="0" y2="60" gradientUnits="userSpaceOnUse">
<stop stop-color="#00AAEE"/>
<stop offset="1" stop-color="#0055AA"/>
</linearGradient>
<clipPath id="clip0_887_35360">
<rect width="121" height="60" fill="white"/>
</clipPath>
</defs>
</svg>
