<svg width="100" height="31" viewBox="0 0 100 31" fill="none" xmlns="http://www.w3.org/2000/svg">
<g clip-path="url(#clip0_887_35432)">
<path d="M41.0767 6.10394C42.1352 6.10394 42.9932 5.20032 42.9932 4.08566C42.9932 2.971 42.1352 2.06738 41.0767 2.06738C40.0182 2.06738 39.1602 2.971 39.1602 4.08566C39.1602 5.20032 40.0182 6.10394 41.0767 6.10394Z" fill="#7A166E"/>
<path d="M35.6031 22.5298C38.3589 22.5298 40.5929 20.1609 40.5929 17.2388C40.5929 14.3166 38.3589 11.9478 35.6031 11.9478C32.8473 11.9478 30.6133 14.3166 30.6133 17.2388C30.6133 20.1609 32.8473 22.5298 35.6031 22.5298Z" fill="#E20F82"/>
<path d="M96.0413 8.5654C98.1439 8.5654 99.8483 6.7581 99.8483 4.52867C99.8483 2.29925 98.1439 0.491943 96.0413 0.491943C93.9388 0.491943 92.2344 2.29925 92.2344 4.52867C92.2344 6.7581 93.9388 8.5654 96.0413 8.5654Z" fill="#E20F82"/>
<path d="M7.45333 21.5408C11.5632 21.5408 14.8949 18.0643 14.8949 13.7759C14.8949 9.48745 11.5632 6.01099 7.45333 6.01099C3.34344 6.01099 0.0117188 9.48745 0.0117188 13.7759C0.0117188 18.0643 3.34344 21.5408 7.45333 21.5408Z" fill="#7A166E"/>
<path d="M8.54524 25.9638C10.6478 25.9638 12.3522 24.1565 12.3522 21.9271C12.3522 19.6977 10.6478 17.8904 8.54524 17.8904C6.44271 17.8904 4.73828 19.6977 4.73828 21.9271C4.73828 24.1565 6.44271 25.9638 8.54524 25.9638Z" fill="#8E1A7F"/>
<path d="M28.881 23.5471C32.9661 23.5471 36.2776 20.0748 36.2776 15.7916C36.2776 11.5084 32.9661 8.03613 28.881 8.03613C24.796 8.03613 21.4844 11.5084 21.4844 15.7916C21.4844 20.0748 24.796 23.5471 28.881 23.5471Z" fill="#B2348B"/>
<path d="M39.0021 23.5471C43.0871 23.5471 46.3987 20.0748 46.3987 15.7916C46.3987 11.5084 43.0871 8.03613 39.0021 8.03613C34.9171 8.03613 31.6055 11.5084 31.6055 15.7916C31.6055 20.0748 34.9171 23.5471 39.0021 23.5471Z" fill="#7A166E"/>
<path d="M35.6037 27.4587C39.6887 27.4587 43.0003 23.9865 43.0003 19.7032C43.0003 15.42 39.6887 11.9478 35.6037 11.9478C31.5186 11.9478 28.207 15.42 28.207 19.7032C28.207 23.9865 31.5186 27.4587 35.6037 27.4587Z" fill="#7A166E"/>
<path d="M29.0882 28.9214C31.1907 28.9214 32.8952 27.1141 32.8952 24.8846C32.8952 22.6552 31.1907 20.8479 29.0882 20.8479C26.9857 20.8479 25.2812 22.6552 25.2812 24.8846C25.2812 27.1141 26.9857 28.9214 29.0882 28.9214Z" fill="#8E1A7F"/>
<path d="M36.2741 21.527C39.0876 21.527 41.3685 19.17 41.3685 16.2625C41.3685 13.355 39.0876 10.998 36.2741 10.998C33.4605 10.998 31.1797 13.355 31.1797 16.2625C31.1797 19.17 33.4605 21.527 36.2741 21.527Z" fill="#E20F82"/>
<path d="M32.9673 29.9555C34.0258 29.9555 34.8838 29.0519 34.8838 27.9372C34.8838 26.8226 34.0258 25.9189 32.9673 25.9189C31.9088 25.9189 31.0508 26.8226 31.0508 27.9372C31.0508 29.0519 31.9088 29.9555 32.9673 29.9555Z" fill="#E20F82"/>
<path d="M75.2287 27.4306C79.3137 27.4306 82.6253 23.9584 82.6253 19.6751C82.6253 15.3919 79.3137 11.9197 75.2287 11.9197C71.1436 11.9197 67.832 15.3919 67.832 19.6751C67.832 23.9584 71.1436 27.4306 75.2287 27.4306Z" fill="#B2348B"/>
<path d="M67.0646 23.5471C71.1497 23.5471 74.4612 20.0748 74.4612 15.7916C74.4612 11.5084 71.1497 8.03613 67.0646 8.03613C62.9796 8.03613 59.668 11.5084 59.668 15.7916C59.668 20.0748 62.9796 23.5471 67.0646 23.5471Z" fill="#B2348B"/>
<path d="M55.936 29.5084C62.2605 29.5084 67.3876 24.1366 67.3876 17.5103C67.3876 10.8839 62.2605 5.51221 55.936 5.51221C49.6114 5.51221 44.4844 10.8839 44.4844 17.5103C44.4844 24.1366 49.6114 29.5084 55.936 29.5084Z" fill="#B2348B"/>
<path d="M45.8617 13.5854C47.9642 13.5854 49.6686 11.7781 49.6686 9.54869C49.6686 7.31927 47.9642 5.51196 45.8617 5.51196C43.7591 5.51196 42.0547 7.31927 42.0547 9.54869C42.0547 11.7781 43.7591 13.5854 45.8617 13.5854Z" fill="#E20F82"/>
<path d="M61.3458 22.5532C65.4309 22.5532 68.7425 19.0809 68.7425 14.7977C68.7425 10.5145 65.4309 7.04224 61.3458 7.04224C57.2608 7.04224 53.9492 10.5145 53.9492 14.7977C53.9492 19.0809 57.2608 22.5532 61.3458 22.5532Z" fill="#7A166E"/>
<path d="M72.8654 18.5654C76.9504 18.5654 80.262 15.0931 80.262 10.8099C80.262 6.52669 76.9504 3.05444 72.8654 3.05444C68.7803 3.05444 65.4688 6.52669 65.4688 10.8099C65.4688 15.0931 68.7803 18.5654 72.8654 18.5654Z" fill="#E20F82"/>
<path d="M70.8734 23.2678C72.9759 23.2678 74.6803 21.4605 74.6803 19.2311C74.6803 17.0016 72.9759 15.1943 70.8734 15.1943C68.7708 15.1943 67.0664 17.0016 67.0664 19.2311C67.0664 21.4605 68.7708 23.2678 70.8734 23.2678Z" fill="#E20F82"/>
<path d="M68.846 30.4973C70.9486 30.4973 72.653 28.69 72.653 26.4606C72.653 24.2311 70.9486 22.4238 68.846 22.4238C66.7435 22.4238 65.0391 24.2311 65.0391 26.4606C65.0391 28.69 66.7435 30.4973 68.846 30.4973Z" fill="#8E1A7F"/>
<path d="M65.4712 25.9186C66.5297 25.9186 67.3877 25.015 67.3877 23.9004C67.3877 22.7857 66.5297 21.8821 65.4712 21.8821C64.4127 21.8821 63.5547 22.7857 63.5547 23.9004C63.5547 25.015 64.4127 25.9186 65.4712 25.9186Z" fill="#E20F82"/>
<path d="M44.1466 26.9865C48.2317 26.9865 51.5433 23.5143 51.5433 19.2311C51.5433 14.9478 48.2317 11.4756 44.1466 11.4756C40.0616 11.4756 36.75 14.9478 36.75 19.2311C36.75 23.5143 40.0616 26.9865 44.1466 26.9865Z" fill="#E20F82"/>
<path d="M84.3341 26.0004C88.4192 26.0004 91.7308 22.5282 91.7308 18.245C91.7308 13.9617 88.4192 10.4895 84.3341 10.4895C80.2491 10.4895 76.9375 13.9617 76.9375 18.245C76.9375 22.5282 80.2491 26.0004 84.3341 26.0004Z" fill="#7A166E"/>
<path d="M92.6037 25.0598C96.6887 25.0598 100 21.5875 100 17.3043C100 13.0211 96.6887 9.54883 92.6037 9.54883C88.5186 9.54883 85.207 13.0211 85.207 17.3043C85.207 21.5875 88.5186 25.0598 92.6037 25.0598Z" fill="#E20F82"/>
<path d="M84.3341 18.5654C88.4192 18.5654 91.7308 15.0931 91.7308 10.8099C91.7308 6.52669 88.4192 3.05444 84.3341 3.05444C80.2491 3.05444 76.9375 6.52669 76.9375 10.8099C76.9375 15.0931 80.2491 18.5654 84.3341 18.5654Z" fill="#B2348B"/>
<path d="M80.3306 27.9372C81.3891 27.9372 82.2471 27.0336 82.2471 25.9189C82.2471 24.8042 81.3891 23.9006 80.3306 23.9006C79.2721 23.9006 78.4141 24.8042 78.4141 25.9189C78.4141 27.0336 79.2721 27.9372 80.3306 27.9372Z" fill="#8E1A7F"/>
<path d="M81.7368 6.10394C82.7953 6.10394 83.6534 5.20032 83.6534 4.08566C83.6534 2.971 82.7953 2.06738 81.7368 2.06738C80.6784 2.06738 79.8203 2.971 79.8203 4.08566C79.8203 5.20032 80.6784 6.10394 81.7368 6.10394Z" fill="#E20F82"/>
<path d="M15.9435 29.9885C20.0286 29.9885 23.3401 26.5162 23.3401 22.233C23.3401 17.9498 20.0286 14.4775 15.9435 14.4775C11.8585 14.4775 8.54688 17.9498 8.54688 22.233C8.54688 26.5162 11.8585 29.9885 15.9435 29.9885Z" fill="#8E1A7F"/>
<path d="M20.1935 18.5178C24.2786 18.5178 27.5901 15.0455 27.5901 10.7623C27.5901 6.47908 24.2786 3.00684 20.1935 3.00684C16.1085 3.00684 12.7969 6.47908 12.7969 10.7623C12.7969 15.0455 16.1085 18.5178 20.1935 18.5178Z" fill="#E20F82"/>
<path d="M24.2796 25.5776C26.3821 25.5776 28.0866 23.7703 28.0866 21.5409C28.0866 19.3115 26.3821 17.5042 24.2796 17.5042C22.1771 17.5042 20.4727 19.3115 20.4727 21.5409C20.4727 23.7703 22.1771 25.5776 24.2796 25.5776Z" fill="#E20F82"/>
<path d="M8.55696 8.5654C10.6595 8.5654 12.3639 6.7581 12.3639 4.52867C12.3639 2.29925 10.6595 0.491943 8.55696 0.491943C6.45443 0.491943 4.75 2.29925 4.75 4.52867C4.75 6.7581 6.45443 8.5654 8.55696 8.5654Z" fill="#E20F82"/>
<path d="M7.4091 22.4527L4.60547 11.9318H6.44463L8.59881 20.0124L10.9077 11.9309L12.6223 11.9318L14.9392 20.0554L17.103 11.9337L18.9421 11.9309L16.1372 22.4508L14.0054 22.4487L11.7657 14.5918L9.52385 22.4506L7.4091 22.4527Z" fill="white"/>
<path d="M21.9618 11.9373H20.2109V22.446H21.9618V11.9373Z" fill="white"/>
<path d="M25.7029 20.7977H29.965V22.446H23.9883V11.9373H25.7029V20.7977Z" fill="white"/>
<path d="M35.3517 11.9493C36.7885 11.9493 37.984 12.4583 38.9258 13.4645C39.8798 14.4705 40.3626 15.719 40.3626 17.1977C40.3626 18.6644 39.8798 19.9128 38.9258 20.931C37.984 21.937 36.7885 22.4462 35.3517 22.4462H31.2344V11.9373H35.3517V11.9493ZM35.3517 20.8098C36.3417 20.8098 37.1509 20.4705 37.7546 19.7916C38.3824 19.1128 38.6965 18.2401 38.6965 17.2098C38.6965 16.1552 38.3824 15.3068 37.7546 14.628C37.1389 13.9492 36.3297 13.6098 35.3517 13.6098H32.9612V20.8096H35.3517V20.8098Z" fill="white"/>
<path d="M49.5997 19.4441C49.5997 20.305 49.2978 21.0204 48.6821 21.5906C48.0663 22.1606 47.3419 22.4516 46.4483 22.4516H41.9688V11.9375H46.1222C46.9795 11.9375 47.7041 12.2284 48.2956 12.7741C48.8993 13.3322 49.1892 14.0234 49.1892 14.8477C49.1892 15.7696 48.8272 16.4729 48.1266 16.9944C49.0443 17.4795 49.5997 18.3526 49.5997 19.4441ZM43.6954 13.5624V16.3273H46.1344C46.8953 16.3273 47.4748 15.721 47.4748 14.945C47.4748 14.1688 46.8953 13.5624 46.1344 13.5624H43.6954ZM46.4603 20.8266C47.2571 20.8266 47.8851 20.1838 47.8851 19.3593C47.8851 18.5345 47.2571 17.8919 46.4603 17.8919H43.6952V20.8388H46.4603V20.8266Z" fill="white"/>
<path d="M52.9453 20.8023H57.5818V22.4514H51.2305V11.9373H57.5092V13.5866H52.9453V16.3152H57.135V17.9523H52.9453V20.8023Z" fill="white"/>
<path d="M65.0898 22.4514L62.8681 18.6193H60.8396V22.4514H59.125V11.9373H63.3147C64.2566 11.9373 65.0536 12.2647 65.6934 12.9317C66.3454 13.5745 66.6836 14.3748 66.6836 15.3209C66.6836 16.6548 65.8505 17.8796 64.6068 18.3647L66.9855 22.4516H65.0898V22.4514ZM60.8396 13.5623V17.079H63.3027C64.2203 17.079 64.9447 16.303 64.9447 15.3207C64.9447 14.3505 64.2083 13.5623 63.3027 13.5623H60.8396Z" fill="white"/>
<path d="M74.2573 22.4515L72.0478 18.6172H70.0193V22.4515H68.3047V11.9316H72.4944C73.4363 11.9316 74.2331 12.2594 74.8731 12.9266C75.5251 13.5698 75.8633 14.3704 75.8633 15.3169C75.8633 16.6515 75.0302 17.8772 73.7865 18.3624L76.1649 22.4515H74.2573ZM70.0195 13.5577V17.0763H72.4826C73.4002 17.0763 74.1248 16.2998 74.1248 15.317C74.1248 14.3463 73.3883 13.5577 72.4826 13.5577H70.0195Z" fill="white"/>
<path d="M79.1326 11.9331H77.418V22.4516H79.1326V11.9331Z" fill="white"/>
<path d="M82.8787 20.8023H87.5154V22.4514H81.1641V11.9373H87.4426V13.5866H82.8787V16.3152H87.0686V17.9523H82.8787V20.8023Z" fill="white"/>
<path d="M88.707 20.0583L90.1919 19.1855C90.6147 20.3733 91.4718 20.9552 92.7881 20.9552C94.0922 20.9552 94.732 20.3976 94.732 19.5732C94.732 19.1368 94.5508 18.8216 94.2129 18.6035C93.8747 18.3734 93.2469 18.1188 92.3535 17.8521C91.3511 17.5492 90.8562 17.3553 90.1559 16.8947C89.4796 16.4098 89.1416 15.719 89.1416 14.7734C89.1416 13.8402 89.4677 13.1129 90.1318 12.5674C90.7837 12.0098 91.5806 11.7432 92.5105 11.7432C94.1888 11.7432 95.4807 12.6157 96.157 14.0581L94.708 14.8946C94.2734 13.9249 93.5368 13.4279 92.5105 13.4279C91.5083 13.4279 90.8684 13.9369 90.8684 14.7369C90.8684 15.5125 91.3756 15.8763 92.9813 16.3731C93.3798 16.5065 93.6696 16.6034 93.8507 16.6762C94.0439 16.7368 94.2975 16.846 94.6236 16.9792C94.9615 17.1124 95.2271 17.2701 95.3841 17.4034C95.9395 17.8399 96.5312 18.5548 96.4587 19.561C96.4587 20.5064 96.1205 21.27 95.4324 21.8276C94.7563 22.3851 93.8629 22.6518 92.7518 22.6518C90.7233 22.6401 89.2502 21.6704 88.707 20.0583Z" fill="white"/>
</g>
<defs>
<clipPath id="clip0_887_35432">
<rect width="100" height="30" fill="white" transform="translate(0 0.5)"/>
</clipPath>
</defs>
</svg>
