<svg xmlns="http://www.w3.org/2000/svg" xml:space="preserve" width="512" height="512" style="enable-background:new 0 0 512 512" viewBox="0 0 418.44 418.44"><g xmlns="http://www.w3.org/2000/svg" fill="#1DBBBA"><path d="m392.668 234.275-.005-.005L211.646 53.254c-15.621-15.621-40.947-15.621-56.568 0l-11.312 11.352L81.542 2.342a8 8 0 0 0-11.312 0L2.342 70.206a8 8 0 0 0 0 11.312l62.224 62.288-11.312 11.312c-15.621 15.621-15.621 40.947 0 56.568L234.27 392.662c34.365 34.368 90.083 34.37 124.451.005l.005-.005 33.936-33.936c34.368-34.364 34.37-90.083.006-124.451zM19.31 75.878 75.886 19.31l56.568 56.568-56.568 56.576L19.31 75.878zm362.049 271.528-.009.009-33.936 33.936c-28.115 28.12-73.703 28.124-101.823.009l-.009-.009L64.566 200.334c-9.373-9.372-9.375-24.568-.003-33.941l.003-.003L166.39 64.606c9.372-9.373 24.568-9.375 33.941-.003l.003.003L381.35 245.582c28.12 28.116 28.124 73.704.009 101.824z" data-original="#000000"/><path d="M336.378 279.25c-.093.091-.185.183-.276.276l-56.568 56.568c-9.297 9.447-9.175 24.643.272 33.94 9.339 9.19 24.323 9.192 33.664.004l56.568-56.568c9.45-9.295 9.575-24.49.28-33.94-9.295-9.449-24.49-9.575-33.94-.28zm22.348 22.908-56.568 56.568a8.001 8.001 0 0 1-11.316-.004 8.001 8.001 0 0 1 .004-11.316l56.568-56.568a8.001 8.001 0 0 1 11.316.004 8.001 8.001 0 0 1-.004 11.316z" data-original="#000000"/><path d="M45.232 67.883h16v16h-16z" data-original="#000000" transform="rotate(-134.999 53.233 75.883)"/><path d="M67.878 45.258h16v16h-16z" data-original="#000000" transform="rotate(-45.017 75.885 53.26)"/></g></svg>