<svg xmlns="http://www.w3.org/2000/svg" width="348" height="347" fill="none"><g clip-path="url(#a)"><path fill="#FFA400" fill-rule="evenodd" d="M280.689 10c0-5.523-4.477-10-10-10h-37.344c-5.523 0-10 4.477-10 10v94.174c0 10.249-13.584 13.864-18.678 4.969l-48.658-84.96c-2.758-4.817-8.911-6.466-13.708-3.674l-32.778 19.079c-4.75 2.764-6.379 8.843-3.647 13.612l48.597 84.857c5.085 8.878-4.865 18.759-13.708 13.612l-83.874-48.818c-4.797-2.792-10.95-1.143-13.708 3.673l-18.965 33.115c-2.732 4.769-1.103 10.848 3.647 13.612l84.222 49.02c8.826 5.137 5.182 18.643-5.031 18.643H10c-5.523 0-10 4.477-10 10v38.278c0 5.523 4.477 10 10 10h97.096c10.212 0 13.856 13.506 5.03 18.643l-84.202 49.008c-4.75 2.764-6.378 8.844-3.647 13.612l18.965 33.115c2.758 4.817 8.911 6.465 13.708 3.673l83.878-48.82c8.842-5.146 18.793 4.735 13.708 13.613l-48.578 84.823a9.998 9.998 0 0 0 3.647 13.612l32.778 19.078c4.797 2.792 10.95 1.144 13.708-3.673l48.576-84.817c5.094-8.895 18.678-5.28 18.678 4.969V490c0 5.523 4.477 10 10 10h37.344c5.523 0 10-4.477 10-10v-93.975c0-10.25 13.584-13.864 18.677-4.97l46.57 81.315c2.758 4.816 8.911 6.465 13.708 3.673l32.778-19.078c4.75-2.765 6.379-8.844 3.648-13.613l-46.563-81.303c-5.085-8.878 4.865-18.759 13.708-13.613l80.377 46.783c4.797 2.792 10.95 1.143 13.708-3.673l18.965-33.115c2.731-4.769 1.102-10.848-3.647-13.612l-80.723-46.984c-8.827-5.137-5.183-18.643 5.03-18.643H490c5.523 0 10-4.477 10-10v-38.278c0-5.523-4.477-10-10-10h-93.036c-10.213 0-13.857-13.506-5.03-18.643l80.743-46.995c4.75-2.765 6.378-8.844 3.647-13.613l-18.965-33.115c-2.758-4.816-8.911-6.464-13.708-3.672l-80.373 46.78c-8.843 5.146-18.793-4.734-13.708-13.613l46.582-81.337c2.731-4.769 1.102-10.848-3.648-13.612l-32.778-19.079c-4.797-2.791-10.95-1.143-13.708 3.674l-46.652 81.458c-5.093 8.894-18.677 5.28-18.677-4.97V10Z" clip-rule="evenodd" opacity=".5"/></g><defs><clipPath id="a"><path fill="#fff" d="M0 0h348v347H0z"/></clipPath></defs></svg>