<svg xmlns="http://www.w3.org/2000/svg" width="526" height="478" fill="none"><path fill="#00344A" d="M428.193 32.668c6.708 2.027 15.945 3.492 22.673 5.455-6.787-1.737-15.808-4.166-22.673-5.455m-33.982-9.896c8.771 2.041 20.354 5.405 28.866 8.44-8.533-3.004-20.08-6.45-28.866-8.44M291.358 20.818c.23-.034.546-.09.776-.124l-.397.065-.429.067c.009-.004.031-.001.05-.008m-42.731 10.367.136-.03c12.652-3.521 29.63-7.81 42.495-10.32-12.873 2.669-29.984 6.664-42.631 10.35m-11.626 4.114 11.598-4.103-.136.03-11.58 4.096a.4.4 0 0 0 .118-.023m82.711-13.696c18.67-4.592 18.67-4.592 30.084-4.652-19.238 1.288-19.609 1.31-30.084 4.652"/><path fill="#00344A" d="M428.347 33.185c5.143 1.568 12.322 2.304 17.454 3.933 9.569 3.046 22.167 7.71 31.47 11.604l-.277-.128c-7.764-3.167-18.147-7.348-26.077-9.987-6.775-1.74-15.803-4.164-22.665-5.453a.4.4 0 0 1 .095.03m6.367 5.788.133.05c17.401 1.237 23.916 1.704 47.038 11.847l-.2-.09c-18.215-7.637-25.752-10.792-46.971-11.807m-14.5.59c.879-1.461 1.877-3.554 2.994-4.815l-.01.004c-.924 1.421-2.287 3.252-2.984 4.81m-.152-.043c.879-1.46 1.886-3.557 2.99-4.824-.92 1.432-2.283 3.262-2.99 4.824m1.862.623c3.84.546 8.987-1.088 12.851-1.115l-.133-.05c-3.85.315-9.021.47-12.839 1.122.044.005.086.034.121.043m-1.898-.146.123-.285c-.035.081-.091.193-.123.285m-.143-.046q-.014.006 0 0m1.096.36c.184.074.458-.079.649-.108-.026-.013-.061-.022-.086-.034-.013-.006-.029-.023-.048-.015-.193.02-.445.084-.636.114a.4.4 0 0 0 .121.043M423.077 33.906l.142.046 1.937-1.658c-.07-.017-.092-.02-.143-.045-.583.51-1.359 1.162-1.936 1.657m-.024.021c-.92 1.428-2.285 3.245-2.987 4.813l.022.002a.5.5 0 0 1 .108.037c.877-1.457 1.887-3.539 3.002-4.796zm-3.051 4.961-.124.285.022.002c.048.016.082.025.13.04l.123-.285a1 1 0 0 0-.151-.042m-4.383-.206 1.422.365c-.003-.01.003-.024-.001-.034-.429-.113-.993-.252-1.422-.365.007.02-.003.024.001.034m-9.557-2.308.035.042 8.796 2.089zm-35.406-6.187c8.336 1.46 19.683-1.307 28.123-1.194-8.433.153-19.713.364-28.123 1.195m3.103.742-.15.025c9.71 1.529 22.691 3.406 32.322 5.438l-.036-.043c-9.621-1.731-22.372-5.442-32.136-5.42m-2.336-.232 1.975.227.15-.025-2.117-.239c-.003.023.001.033-.008.037"/><path fill="#00344A" d="m371.644 19.44-.163-.015c.056.011.11.013.163.015m-.163-.015-.214-.006c.063-.003.148-.002.214.006m22.759 2.95c8.763 2.039 20.334 5.398 28.842 8.438l.012.006c-8.468-2.988-19.95-6.426-28.684-8.41zm15.825 7.277.151.042 12.37 1.64c-3.199-1.292-7.911-1.1-11.299-1.564zm-.119-.01-4.297-.376.034.009c.218.05.218.05 4.414.41zm-6.762-.548-2.077-.12.346.055 1.701.1c.015-.018.024-.021.03-.035m-4.327-.219.045.039 2.303.1-.346-.056zm-28.336-9.265c-.771 1.157-1.458 2.958-1.718 4.343.33-1.368.825-3.295 1.718-4.343m.182.007c-.375.564-1.071 1.208-1.264 1.869-.382 1.31-.547 3.153-.591 4.521.142-1.238.127-2.932.477-4.116.216-.783.732-1.852 1.378-2.274m-.035 10.473c8.373 1.122 19.656-1.305 28.093-1.188l-.045-.039c-8.451.148-19.739.36-28.143 1.197.026.012.064.031.095.03"/><path fill="#00344A" d="m371.542 18.77-.213-.006.022.002c.119.01.238.02.345.023zm-18.62-1.19-3.121-.07.191.003 3.121.07zm18.313 1.187-.62.186.182.008.564-.165a.2.2 0 0 0-.126-.03m-51.603 3.413.101.017c18.707-4.621 18.707-4.621 30.143-4.683l-.191-.004-7.989.285c-6.664 1.012-15.546 2.555-22.064 4.385m-.743.257.064.032.696-.24-.1-.016zm49.983.856-.114 2.075.159.005-.004-.043c.142-1.234.127-2.922.477-4.103.228-.773.731-1.845 1.385-2.269l-.182-.007c-.77 1.153-1.553 2.94-1.721 4.342m-.126 2.102-.006.137.163-.018-.001-.124zm-56.875-.168 6.967-2.725-.064-.03-7.028 2.759c.049-.009.084 0 .125-.004m2.236.651 11.137-.046-11.146.05zm54.638-.303.092 3.465.022.003c.044.005.097.006.141.012-.024-1.045-.065-2.443-.093-3.498zM313.722 25.81l.406-.013-.366-.025a.08.08 0 0 1-.04.038m.856-.02 10.811-.036-.054-.034-11.124.045zm15.741.077 4.436.17-9.238-.31.054.035zm9.721.458 14.16 1.22.118-.024-12.739-1.126-1.584-.109zm14.332 1.23L366.6 29.15l.009-.004-12.106-1.608zm12.624 2.1-4.426.463.062-.002c.553-.014.553-.014 4.453-.417-.02-.026-.045-.039-.089-.044m-6.447.703.082.024.009-.004.224-.053a4 4 0 0 1-.315.033m-51.583-3.643-3.972 3.171.009-.003zm-4.03 3.216-1.963 1.806.01-.003zm40.018 3.022.185.017 15.387-2.558-.117-.033zm-4.498.983.098.04 4.439-.971-.194-.014zm-51.61 16.69c3.853-5.943 9.412-13.582 14.064-18.83l-.01.003c-4.59 5.303-10.265 12.853-14.054 18.828m.147 0c3.117-4.819 7.318-11.245 10.955-15.628-3.454 4.547-8.004 10.695-10.955 15.627m4.24.549c6.692-.207 14.428-6.357 20.616-9.084 7.664-3.382 18.504-6.1 26.587-8.091l-.098-.04c-25.379 7.328-29.282 8.449-47.191 17.18.026.013.06.022.086.035"/><path fill="#00344A" d="M238.594 35.084c30.968-7.354 30.968-7.354 47.423-8.816l.012-.027-22.259 2.958c-7.546 1.728-17.68 3.739-25.139 5.87.006-.013-.028.011-.037.015m47.576-8.831 20.759-.957.01-.004-20.757.934zm22.87-.155-3.977 3.184.177-.035 3.943-3.16c-.04.005-.087-.01-.143.011m-4.023 3.236-1.965 1.813.196-.043 1.95-1.796zm-68.976 6.928c13.977.27 14.253.275 24.745 3.84l.009-.004c-14.988-4.198-15.568-4.353-24.754-3.836m52.99 13.843c3.134-4.83 7.341-11.281 10.991-15.685l3.153-3.254-.196.043c-4.606 5.327-10.279 12.902-14.083 18.904.041-.005.091-.013.135-.008m-20.298-6.668c4.28 2.323 10.058 5.295 14.21 7.86-4.241-2.395-9.833-5.743-14.21-7.86m-.139.055c4.279 2.323 10.058 5.295 14.209 7.859-4.24-2.395-9.832-5.743-14.209-7.86"/><path fill="#00344A" d="M236.084 36.045c13.968.27 14.234.278 24.715 3.828l.152-.048c-14.974-4.182-15.557-4.347-24.728-3.834l-.121.047zm24.785 3.845 4.416 1.75.018-.007.121-.047c-1.319-.527-3.088-1.227-4.407-1.753zm-29.277-2.314c-6.778 3.355-14.837 11.403-23.976 23.908l.163-.075c11.591-14.943 12.284-15.83 23.931-23.856-.028.01-.094.003-.118.023m-27.545 29.63.143-.044 3.538-5.688-.163.075zm64.707-23.996c4.277 2.32 10.051 5.287 14.2 7.847l.019-.007.074-.03c-4.229-2.394-9.793-5.757-14.154-7.864zm-64.755 24.07-5.768 11.11.018-.007c.121-.047.121-.047 5.893-11.147zm.769 10.989c30.465-11.995 37.711-14.848 73.684-23.031-37.92 8.764-38.644 8.924-73.71 22.985.007.02.013.04.026.046M303.682 18.978l1.595-.13.162-.02-1.595.131zm1.636-.135.281-.01.018-.007c.009-.003.031 0 .041-.004.009-.004.031-.001.04-.005.009-.003.031 0 .04-.004l.019-.008c-.084 0-.187.006-.272.006zm-71.315 16.564.18-.059-.01.004zm-.255.144 1.414-.473.009-.004.083-.032c-.423.143-.99.33-1.413.473zm83.6-14.403.285.035c-3.501-.971-8.246-2.161-11.854-2.375-.031.001-.081.01-.112.01 3.536.432 8.191 1.545 11.681 2.33m-68.743 9.962c11.209-2.247 26.26-4.763 37.616-5.95l.012-.027c-11.3 1.322-26.32 3.557-37.464 5.936l-.137.03-12.545 3.674 12.384-3.622zm37.769-5.965c6.522-.084 15.212-.5 21.732-.258l.018-.008c.032 0 .078-.019.109-.02-6.557.076-15.309-.144-21.847.26zm38.949-.009 1.412.858.022.003c.041-.005.081-.01.125-.004-.413-.253-.964-.597-1.368-.853l-.067-.04-6.464-3.36-.063-.03-1.132-.476-.285-.034 1.315.549.063.031 6.398 3.318zm-11.258.043 11.336 1a.4.4 0 0 1 .118-.024c-3.301-.3-7.707-.694-11.014-.98l-.376-.022-.009.004-.388-.028zM234.083 34.856c.119-.046.277-.095.405-.145l-.296.103-.176.057a.2.2 0 0 0 .067-.015"/><path fill="#00344A" d="m285.399 33.339-.005.046 19.562-3.899.009-.004.177-.035 19.702-2.588-19.644 2.543-.177.036-.009.003zm-.023 2.827-.002.056 17.554-4.873.009-.004.195-.042 21.928-4.306-21.864 4.248-.195.042-.01.004zm-14.872 5.189 14.71-5.081.001-.056-14.771 5.116c.018-.008.043.005.06.02m-35.035 8.144c7.603-2.793 17.636-6.837 25.33-9.31l.151-.047.009-.004 24.281-6.715-.005-.043-24.336 6.737-.009.004-.151.047-25.299 9.309q.021.008.029.022m-5.692 10.94.195-.042c9.96-5.07 23.243-11.84 33.47-16.26-10.189 4.682-23.782 10.95-33.665 16.302m-26.458 16.805c9.046-2.086 18.344-12.072 26.469-16.742l-.195.042c-7.933 4.95-18.645 11.356-26.349 16.696.019-.007.053.001.075.004M182.45 74.871l.303-.128c7.497-4.01 17.361-9.674 25.005-13.384l.163-.074 19.469-8.689-19.421 8.615-.163.074c-7.611 4.076-17.903 9.205-25.356 13.586m-9.638 5.923a.14.14 0 0 0-.049.041c2.894-1.772 6.764-4.124 9.667-5.9l-.302.129-8.992 5.482a6 6 0 0 1-.324.248m42.36-17.025.154-.038 1.489-1.281 12.05-9.57c-.747.057-1.446 1.01-2.057 1.459zm-56.475 26.428 9.931-6.716c-.4.21-.4.21-9.954 6.68.007.02.01.03.023.036m-.44.94 9.533-3.017.013-.084-9.465 3.003c-.03.034-.057.078-.081.098m42.772-13.898L215.21 63.82l-.154.038-14.154 13.408a.7.7 0 0 0 .127-.027m-33.103 10.85c7.192-1.65 16.759-4.024 24.023-5.256l.006-.013c-7.216 1.492-16.894 3.273-24.016 5.186zM224.456 38.56l1.673-.662c-.581.204-1.148.447-1.728.684l.028-.01zm1.841-.66c.356-.127.821-.331 1.17-.478-.121.047-.121.047-1.271.517zm-96.37 60.188c6.588-3.97 13.839-11.666 19.764-16.672 4.609-3.89 29.859-24.226 73.806-42.47-31.172 14.141-55.801 25.301-93.617 59.16zm95.596-59.876c-30.367 12.948-46.035 28.705-59.868 42.6l.039-.038c.089-.079.217-.162.302-.251 8.683-8.444 20.585-19.456 30.373-26.411 8.204-5.826 20.247-11.707 29.275-15.947-.034.025-.084.033-.121.047m-67.801 51.722 5.455-6.328c.029-.068.068-.138.1-.196-1.703 1.968-3.964 4.6-5.657 6.563zm-29.716 11.222c7.882-3.425 18.712-7.195 26.97-9.384l.015-.017c-8.234 2.168-19.035 5.87-26.885 9.295.037-.015-.066.081-.1.106M368.28 30.5c-1.063-.179-1.981-.517-1.681-.837.663-.586 4.915-.058 4.841.613-.037.352-1.417.476-2.936.261a4 4 0 0 0-.224-.036M232.883 36.825c-1.065.346-2.906.903-3.16.747.288-.588 8.3-3.402 8.924-3.145-.008.037-.029.067-.05.097l-.033.024c-.172.11-.63.421-2.682 1.216a62 62 0 0 1-2.801.995c-.05.008-.133.04-.198.066M424.289 32.396c-.937-.298-2.553-.849-2.798-1.193a.1.1 0 0 0 .005-.046c.756-.41 8.101 1.718 8.107 2.348-.45.255-3.326-.49-5.029-1.018-.073-.027-.19-.06-.285-.09M419.031 40.52c-1.384-.461-2.209-1.017-1.877-1.249.771-.55 5.543.884 5.316 1.604-.112.349-1.606.213-3.201-.279a2 2 0 0 1-.238-.076"/><path fill="#00344A" d="M418.629 40.741c-2.147-.715-3.379-1.529-2.853-1.904.033-.025.818-.536 4.268.402.572.159 1.086.33 1.625.547 2.155.859 2.546 1.472 1.982 1.705-.685.28-2.934-.057-5.022-.75m-.213.118c.134.049.311.103.45.14 3.355 1.03 6.172 1.144 5.685.252-.325-.606-1.824-1.338-4.452-2.158-3.614-.986-5.588-.798-5.097-.02.318.495 1.66 1.199 3.414 1.786M309.292 26.377c-1.907.084-3.118-.16-2.826-.565.691-.954 7.337-1.454 7.323-.553-.009.463-2.128.999-4.466 1.117 0 0-.018.007-.031 0M265.758 44.173c-2.083.276-3.311-.14-2.79-.949.412-.631 1.75-1.175 2.195-1.35 2.841-1.064 6.079-1.04 5.689.052-.179.485-.961 1.025-2.212 1.513-.365.132-1.23.458-2.434.66-.137.03-.308.053-.448.074M326.339 27.515c-1.105-.028-1.771-.25-1.548-.516.489-.595 4.388-.65 4.34-.06-.019.221-.869.565-2.627.568a1 1 0 0 1-.165.008M156.136 92.794c-1.129.632-1.844.665-1.655.086.384-1.204 3.996-3.545 4.346-2.808.193.407-.798 1.59-2.521 2.633-.056.022-.123.07-.17.089M228.137 37.13c-4.101 1.494-4.342 1.554-4.425 1.586.08-.042.089-.046.431-.177l11.827-4.341c.441-.148.497-.17.638-.214-.159.084-.215.105-1.437.566-1.744.65-4.782 1.766-7.034 2.58m-.326.148c.373-.133.875-.316 1.254-.462 5.161-1.88 7.878-2.895 8.555-3.178-.3.072-.3.072-14.589 5.319l-.028.01c-.231.09-.231.09-.32.134.099-.016.368-.087 5.128-1.823"/><path fill="#00344A" d="M228.709 36.876c-2.687.98-3.035 1.093-3.159 1.13.098-.05.099-.05.625-.252l7.767-2.852c.672-.237.786-.27.86-.299-.212.115-3.305 1.252-5.853 2.18zM230.372 52.58c-2.2.602-3.577.39-3.146-.46.895-1.758 7.728-4.042 8.302-2.78.267.59-1.326 2.06-4.895 3.173-.078.019-.174.045-.261.068M123.222 105.646c-2.059 1.657-4.096 3.014-4.001 2.315.251-1.712 10.392-10.566 11.429-9.973.131.835-3.474 4.386-7.025 7.332a7 7 0 0 1-.403.326"/><path fill="#00344A" d="m291.031 20.836.09-.013.109-.02c-.059.012-.14.021-.199.033m18.421-2.365c-.05.008-.112.01-.162.018.081-.009.184-.016.265-.025 2.216-.25 3.981-.434 4.953-.512-.04.005-.093.003-.134.008l-.04.005c-1.349.112-3.394.34-4.882.506m-12.157 1.477c.18-.026.423-.054.603-.08-3.783.492-5.732.783-6.699.936 1.775-.278 4.298-.614 6.096-.856" opacity=".502"/><path fill="#00344A" d="M291.188 20.68c.031 0 .08-.008.107-.018l-.178.024c.022.002.049-.008.071-.005"/><path fill="#00344A" d="M305.648 18.908h.031l.121-.015c1.273-.15 2.313-.275 3.48-.395l-.274.028c-1.146.123-2.144.244-3.358.382m-6.684.83c.162-.02.383-.05.545-.068 2.044-.26 3.898-.492 6.021-.738-.009.003-.022-.003-.031 0-4.777.567-7.54.94-7.561.937.139-.02.896-.114 1.026-.132" opacity=".502"/><path fill="#00344A" d="M305.5 18.953c.058-.011.12-.012.182-.014a.7.7 0 0 1-.151.014z"/><path fill="#00344A" d="M451.957 60.223c10.16 3.988 23.74 9.284 33.676 13.881-10.036-4.365-23.43-10.199-33.693-13.93zm36.794 16.407c-1.344 3.971-2.826 9.39-3.697 13.503l.013.006c.029.023.077.038.106.06.906-4.104 2.317-9.54 3.712-13.486a.6.6 0 0 0-.105-.06c.003.01-.017-.016-.029-.023M399.406 27.238l.291.078-.114-.057-.114-.023c-.022-.002-.041.005-.063.002m.522.134 10.041 2.759.12.01-10.285-2.822zm10.193 2.8 12.925 4.135.015-.018-12.82-4.107zm13.071 4.19 11.459 4.235.063-.002-11.507-4.25zm11.602 4.28 15.693 6.674.009-.003-15.63-6.676zm-17.279 10.212c4.218.525 9.758-1.739 13.943-2.477 5.936-1.052 14.062-.445 20.063-.055-18.446-.557-20.378-.612-34.13 2.479.047.015.089.044.124.053m-9.999-10.206c2.319 2.862 5.468 6.63 7.719 9.542-2.309-2.866-5.327-6.742-7.719-9.542" opacity=".302"/><path fill="#00344A" d="m423.177 34.396.025-.021-.01.003zm11.463 4.244.133.05.063-.002-.133-.05zM423.035 34.258l.139.044.015-.017-.139-.044zM409.961 29.88l.118.01.15.04-.118-.008z"/><path fill="#00344A" d="M481.937 90.98c-7.673-1.207-17.893-3.002-25.635-3.639 7.711.978 18.015 2.094 25.635 3.64m-50.591-3.463c26.881-.41 29.69-.446 50.676 3.555-26.486-4.167-29.255-4.6-50.676-3.555m55.031 6.28c13.777 26.419 20.067 38.475 31.133 57.863l.013.006c-13.913-25.029-13.913-25.029-31.012-57.82.023.036-.099-.04-.134-.05m-9.718 27.507c11.946 8.862 27.746 20.871 39.5 30.035-11.75-9.154-27.554-21.173-39.5-30.035m-46.144-30.966c25.982 16.768 46.507 30.019 85.54 61.008-24.951-19.44-48.521-37.8-85.54-61.008" opacity=".302"/><path fill="#00344A" d="m476.191 83.075 6.199 5.81.013.006c-6.925-6.384-16.181-14.868-23.301-21.017l-8.811-7.225c7.871 6.611 18.321 15.463 25.9 22.426m-48.684 1.718c6.487-12.322 9.752-18.513 18.692-25.407-8.011 7.444-12.425 11.557-18.692 25.407q-.006-.015 0 0m3.644 2.263c26.801-.395 29.599-.432 50.489 3.546-7.672-1.225-17.882-3.069-25.605-3.709-7.481-.058-17.474-.383-24.943.085z" opacity=".302"/><path fill="#00344A" d="m418.989 50.083 23.827 6.52-23.835-6.574a.1.1 0 0 0 .008.054m8.535 34.44 1.426-2.995c8.081-14.068 8.243-14.335 17.331-22.466a1 1 0 0 0-.124-.053c-8.038 7.458-12.459 11.572-18.763 25.475.044.005.095.03.13.04m-11.131-34.192c2.952 12.56 3.956 16.516 8.901 33.595-4.387-15.214-5.561-19.296-8.901-33.595M396.006 26.243l2.434 2.11.154.018-2.435-2.11c-.053 0-.109-.012-.153-.018m-4.428-.96c-6.401-.884-15.072.038-21.507.58l.32.01c6.391-.211 14.911-.75 21.295-.553a1 1 0 0 0-.108-.037m-22.648.69.005.042 1.231-.122-.319-.01zM354.3 28.08l.176.02 14.297-2.066-.005-.043zm-3.503.707.126.03 3.422-.699-.176-.02z" opacity=".302"/><path fill="#00344A" d="m368.747 25.795.004.043.162-.019-.004-.043zM354.172 27.826l.117-.023.173.02-.12.014z"/><path fill="#00344A" d="m398.469 28.7.277.252.138.003-.252-.24zm.309.285.561.526.138.002-.561-.526z" opacity=".302"/><path fill="#00344A" d="m398.742 28.951.136.004zM398.742 28.951l.135.002.035.041-.138-.011zM344.82 33.232l.195.024-.009.003z"/><path fill="#00344A" d="M399.555 29.375c1.942 2.02 4.601 4.65 6.464 6.747l.171.035c-1.95-2.04-4.461-4.852-6.501-6.79zm-60.999 2.773 12.316-3.17-.126-.03-12.285 3.17c.025.012.06.02.095.03m69.136 5.887c2.315 2.855 5.459 6.612 7.706 9.516l.022.003c.022.002.057.011.079.014-2.749-3.44-6.388-8.05-9.274-11.369l-.17-.034zm-43.568-1.906c14.944 2.918 34.747 7.559 49.462 11.614-14.712-4.045-34.512-8.71-49.462-11.614" opacity=".302"/><path fill="#00344A" d="m405.914 36.47.167.034.039.052-.162-.047z"/><path fill="#00344A" d="m338.227 33.36 2.13.813.128-.028-2.131-.813c-.05.008-.087.023-.127.027m2.228.853 1.982.781.128-.027-1.995-.788z" opacity=".302"/><path fill="#00344A" d="m340.352 34.174.126-.027.097.04-.126.026z"/><path fill="#00344A" d="m339.706 32.79 5.114.436.146-.034-5.224-.45a.06.06 0 0 1-.036.047m5.312.46 4.433.445.159-.028-4.446-.452z" opacity=".302"/><path fill="#00344A" d="m344.82 33.232.157-.028.182.017-.144.034z"/><path fill="#00344A" d="m349.687 34.393 14.377 1.896.005-.047-14.213-1.881zm14.532 1.915c14.999 2.931 34.873 7.594 49.641 11.668l.01-.003c-14.763-4.088-34.638-8.785-49.646-11.712zm-21.688-.556c6.24 2.803 14.608 6.435 20.728 9.534v-.09c-6.154-2.894-14.319-6.888-20.6-9.472zm74.112 13.94c2.953 12.558 3.956 16.51 8.893 33.565l.022.002c-5.711-20.496-6.175-22.487-8.753-33.53.008.054-.114-.023-.162-.038m-53.231-4.33c21.639 12.085 31.524 17.6 59.008 38.008l.009-.003c-22.78-16.595-34.217-24.92-59.017-38.096zM430.654 90.297c25.943 16.746 46.426 29.973 85.424 60.924l.009-.003c-11.695-9.157-27.444-21.162-39.357-29.995-25.954-18.191-28.665-20.094-45.961-30.96.02.027-.084.033-.115.034m.862 45.214c-1.038-7.191-2.395-16.781-3.22-23.998.897 7.212 2.113 16.823 3.22 23.998m4.249 2.646c31.318 2.035 45.61 2.96 79.801 13.945-28.902-8.486-42.091-12.358-79.801-13.945M279.96 66.039c36.383-1.122 74-2.277 141.266 18.224l-.004-.01c-43.452-12.63-79.022-21.33-141.308-18.286.031-.001.039.052.046.072m-1.323 2.43c4.817 4.94 11.234 11.525 15.974 16.55-4.77-4.991-11.112-11.662-15.974-16.55m-.119.08c14.62 15.012 16.153 16.582 34.459 36.742-17.311-19.02-22.146-24.166-34.459-36.742m39.166 37.306c27.653-9.613 42.88-14.912 71.28-18.272-27.511 4.53-42.67 7.036-71.28 18.272" opacity=".302"/><path fill="#00344A" d="M436.265 138.298c31.149 2.032 45.369 2.966 79.314 13.839-28.583-8.461-41.629-12.332-79.354-13.924.01.03.03.056.04.085m-32.887 22.349c29.665-8.499 63.287-18.129 112.447-8.101-26.916-4.494-57.42-9.592-112.528 8.02a.5.5 0 0 1 .081.081m-1.827.624s.003.01.013.006c.368-.121.848-.286 1.217-.408a.6.6 0 0 0-.088-.1c-.368.121-.848.286-1.217.408a.5.5 0 0 1 .075.094M402.055 158.686c8.141-6.3 19.21-14.409 27.825-19.95l-14.235 9.134-13.708 10.75c.038.018.079.047.118.066m-44.269-18.65c11.17 5.608 26.031 13.144 37.121 18.919l.006-.014c-11.075-5.791-25.867-13.433-37.045-19.004.041.028-.048.075-.082.099m42.989 19.735.013.007c.25-.222.592-.513.845-.725a.5.5 0 0 0-.13-.072c-.25.221-.592.512-.846.724a1 1 0 0 1 .118.066m-5.248-.486 1.237.651.006-.013c.024-.021.045-.052.069-.072-.371-.192-.864-.46-1.227-.655-.03.034-.051.065-.085.089M427.745 102.7c2.039 20.199 2.039 20.199 3.91 31.789l.022.002c-.967-7.138-2.251-16.661-3.06-23.828-.496-6.355-1.158-14.84-1.407-21.212zm-70.976 34.63c19.459-19.696 34.829-35.259 67.314-49.085-21.296 10.006-38.106 17.918-67.314 49.085m1.194 1.198c36.241-3.1 37.657-3.215 70.198-1.759-35.689-1.472-36.373-1.497-70.219 1.666.01.029.02.059.021.093" opacity=".302"/><path fill="#00344A" d="M318.108 106.61c31.79-11.013 56.903-19.718 104.192-19.922-9.923.29-23.181.65-33.066 1.631-27.477 4.516-42.618 7.013-71.194 18.217a.3.3 0 0 1 .068.074m38.664 30.205c19.032-19.192 27.719-27.959 51.683-41.632l15.535-7.26c-21.163 9.774-37.885 17.499-67.329 48.846a.2.2 0 0 1 .111.046m-2.951.054c-23.321-17.9-25.227-19.364-36.512-27.547 23.021 17.064 23.021 17.064 36.512 27.547M317.51 108.858c22.955 17.022 22.955 17.022 36.512 27.546l.019-.007c-24.024-18.623-24.024-18.623-36.408-27.61.029.022-.086.056-.123.071m10.047 30.725.069.108 25.688-1.866zm-42.073 6.307-.126.15c12.605-2.123 29.432-4.798 42.106-6.331l-.069-.108c-12.598 1.661-30.727-.101-41.911 6.289m-33.834 7.079c10.493-8.688 24.659-20.034 35.596-28.077-10.859 8.147-25.177 19.295-35.596 28.077m.535.968c9.867-2.432 23.006-5.784 32.946-7.853l.126-.15c-9.949 2.285-23.228 5.232-33.088 7.897.01.03.015.073.016.106M274.76 68.993c-10.133 22.474-10.321 22.91-15.534 40.21 8.371-25.376 8.697-26.363 15.534-40.21m4.196-1.262c14.666 15.085 16.204 16.662 34.567 36.918l.019-.007c-5.5-6.137-12.847-14.318-18.438-20.351-4.786-5.016-11.138-11.722-16.024-16.631.029.022-.09.046-.124.07m22.996 46.51.179.031 10.449-6.224a.2.2 0 0 0-.045-.039c-3.183 1.871-7.41 4.365-10.583 6.232m-5.387 3.424.223.002 5.195-3.303-.18-.031zm-.172.112-8.237 5.526.365-.109 8.091-5.424zm-45.171 34.763c10.541-8.746 24.779-20.174 35.763-28.281l1.252-.875-.364.109c-11.236 8.386-25.989 19.914-36.747 28.983.038.019.07.051.096.064" opacity=".302"/><path fill="#00344A" d="M213.029 105.167c30.395-22.027 32.218-23.35 58.821-37.47-31.621 17.314-32.854 17.99-58.892 37.418.02.027.046.039.071.052m-8.959 7.092.166-.008 3.854-3.144c-.035-.009-.064-.031-.093-.053a1115 1115 0 0 1-3.927 3.205m-19.589 17.229-.036.172 19.629-17.267-.166.009zm-.168.156-1.778 1.666.394-.233 1.354-1.275zm-2.875 2.828c.354-.319.814-.758 1.156-1.084l-.395.234-.85.806c.034.009.063.032.089.044m78.059-23.673.151.009c8.363-25.3 8.688-26.283 15.516-40.1a1 1 0 0 1-.157.005c-10.117 22.416-10.308 22.84-15.51 40.086m-78.289 27.379 1.787.257.028-.135-1.722-.249c-.03.035-.066.083-.093.127m76.317-19.825 2.089-7.431-.151-.008-.265.915-1.798 6.528c.04-.004.084.001.125-.004m-74.388 20.094 19.22 3.564.072-.13-19.274-3.565zm19.343 3.583 6.295 1.454.04-.129-6.273-1.45zm53.41-17.775-2.846 12.514.167-.065 2.832-12.464c-.032.001-.081.009-.113.01-.006.014-.031.001-.04.005m-46.986 19.268 17.408 4.668.192-.086-17.559-4.71zm41.102 10.095 3.175-16.789-.168.065-3.151 16.735c.05-.008.103-.006.144-.011m-23.53-5.378 21.088 6.74.006-.013.063-.093-20.968-6.731zM368.912 25.772c9.676.75 22.597 1.624 32.22 2.922l-2.538-.365-.154-.019c-8.417-.794-19.627-2.112-28.065-2.482l-.32-.01zm-28.764.496c8.297 2.367 20.022-.737 28.61-.515-8.59.105-20.041-.02-28.61.515" opacity=".302"/><path fill="#00344A" d="m401.133 29.086.351.05zM368.734 25.69l.161.014z"/><path fill="#00344A" d="M400.873 28.66c-8.692-.89-20.278-2.319-28.998-2.77 7.986.705 18.648 1.35 26.591 2.42l.154.018zm-62.311-2.752c6.856-.492 15.383-4.928 22.158-6.174-6.757 1.33-15.681 3.73-22.158 6.174" opacity=".302"/><path fill="#00344A" d="m400.875 29.07.351.05-.009.004z"/><path fill="#00344A" d="M378.156 20.148c5.405 1.335 12.614 3.18 17.867 5.083l.022.003a.4.4 0 0 0 .1.016c-5.306-1.722-12.405-3.984-17.851-5.1l-.088-.01c.016.016-.037.015-.05.008m21.549 6.63 4.832 2.248.013.006c.035.009.066.008.101.017-1.422-.662-3.312-1.546-4.725-2.21l-.114-.057-.226-.104c-.019.008-.041.005-.05.008a.2.2 0 0 1 .054.036zM399.357 29.37c-7.747.237-18.096.493-25.799 1.34l.219.027c7.678-.557 17.93-1.369 25.625-1.328l.137.002 4.49.173-4.525-.215zm-31.187 2.19 5.455-.809-.22-.026-5.343.798c.035.01.073.028.108.037" opacity=".302"/><path fill="#00344A" d="m373.557 30.552.204.019-.138.02-.217-.025z"/><path fill="#00344A" d="m401.484 28.734-.256-.011 2.102.322c-.166-.114-1.833-.304-1.846-.31m-32.572-2.964.001.033.908.037.32.01 1.732.075c8.704.771 20.34 1.553 28.997 2.769l.257.012c-9.653-1.018-22.52-2.496-32.215-2.936m-28.722.524c8.273 2.389 19.991-.735 28.56-.506l-.001-.033c-8.581.1-20.041-.02-28.601.51.013.007.029.023.042.03" opacity=".302"/><path fill="#00344A" d="m401.129 29.081-.254-.01zM401.129 29.083l.351.05-.254-.01-.351-.05zM368.736 25.694l.161.014-.003.023-.157-.004z"/><path fill="#00344A" d="m349.633 33.84 11.214-1.624-11.055 1.596zm13.672 10.8-.064 9.028.022.003c.031-.001.066.008.097.007.027-2.688.069-6.277.097-8.964v-.09l.803-8.87.005-.046.454-2.641c-.031 0-.066-.008-.097-.007-.158.79-.365 1.834-.514 2.62l.002.066-.802 8.813zm-67.975 9.353c34.661-1.833 37.491-1.986 66.065.362-34.47-2.296-37.291-2.482-66.055-.422a.2.2 0 0 0-.01.06" opacity=".302"/><path fill="#00344A" d="m350.868 28.395 9.574 2.093.14-.02-9.596-2.097-.126-.03-10.767-1.896-.128-.006 10.781 1.936zm-57.424 22.87c6.875-.022 14.984-6.088 21.403-8.697 8.023-3.256 19.3-5.794 27.7-7.658l.127-.027 6.975-1.31.009-.003.159-.028 10.931-1.567-16.335 2.499-1.827.365-.127.028c-28.608 7.464-30.324 7.91-49.094 16.35.007.02.045.039.079.048" opacity=".302"/><path fill="#00344A" d="m339.859 26.39.128.008zM339.859 26.547l.129.006-.101-.017zm20.569 4.081.126.03.009-.004c.028-.011.056-.022.087-.023a.3.3 0 0 1-.082-.024z"/><path fill="#00344A" d="M290.672 21.225c8.024-.354 18.768-.367 26.787.27-8.027-.51-18.761-.77-26.787-.27m28.968.574c4.84 1.016 11.342 2.112 16.118 3.4-4.834-1.03-11.23-2.673-16.118-3.4" opacity=".302"/><path fill="#00344A" d="m319.516 21.852.009-.004.102.019-.009.003zM317.442 21.534l-.012-.007.286.043.009-.003z"/><path fill="#00344A" d="M290.797 21.2c7.943-.345 18.574-.382 26.511.232-7.942-.477-18.57-.734-26.511-.233m28.924.568c4.85 1.013 11.364 2.115 16.153 3.41-4.834-1.03-11.252-2.676-16.153-3.41" opacity=".302"/><path fill="#00344A" d="m319.602 21.818.101.019zM317.292 21.475l-.003-.01.286.043z"/><path fill="#00344A" d="m370.723 19.1-.019.007 3.156.132c-.304-.027-3.137-.14-3.137-.14m-32.025 6.54c3.641-.468 8.094-2.925 11.556-4.183 5.787-2.095 14.152-2.15 20.263-2.344l.018-.007-9.862.404c-6.739 1.318-15.642 3.7-22.103 6.125a.6.6 0 0 1 .128.006" opacity=".302"/><path fill="#00344A" d="m370.535 19.208.171.01-.019.008-.179-.007z"/><path fill="#00344A" d="m305.343 18.899.04-.005 3.626-.397c.1-.016.193-.02.293-.036-1.196.131-2.777.3-3.959.438m-7.162.903c2.112-.276 4.925-.624 7.037-.9l-.041.005-7.288.93a3 3 0 0 0 .292-.035m-6.078.905 5.839-.868c-.311.043-.311.043-5.848.872z" opacity=".302"/><path fill="#00344A" d="m305.18 18.965.16-.017h.031l-.151.013z"/><path fill="#00344A" d="m349.9 17.384-.106-.004 21.339 1.247.009-.004zm-40.595 1.58c12.082-.74 28.203-1.614 40.301-1.578l.106.004c-12.057.204-28.139.581-40.161 1.557a1 1 0 0 0-.246.018" opacity=".302"/><path fill="#00344A" d="m371.168 18.881-.009.004.022.002zm-21.46-1.25-.106-.004.191.004.106.003z"/><path fill="#00344A" d="m309.018 18.523-.018.007c.081-.01.193-.02.274-.029.09-.013.183-.016.283-.032-.081.01-.184.016-.265.025-.09.013-.184.016-.274.029m-11.096 1.353c.09-.013.211-.026.302-.04-.193.02-.392.053-.591.086.096-.026.186-.04.289-.046" opacity=".651"/><path fill="#00344A" d="m286.198 25.43.156-.005c.674-1.253 1.531-3.072 2.637-3.899-.05.009-.113-.023-.159.029-.631.674-1.488 1.55-2.029 2.3-.283.404-.422 1.099-.605 1.575m-.312 1.111.162-.018.291-1.08-.157.004zm.001.034c-.264 2.104-.711 4.898-.794 7.01l.156-.038c.214-2.096.35-4.937.791-6.987zm-.798 7.057-.024 2.83.161-.051.031-2.811zm-.029 2.877c.232 4.271.59 9.976 1.037 14.23l.018-.007c.019-.007.05-.008.078-.02-.347-4.27-.834-9.98-.975-14.264zm6.064 14.016c5.254-1.36 10.503-7.461 14.999-10.649 4.891-3.477 12.169-6.787 17.606-9.173l12.263-4.531c-21.759 8.349-24.04 9.22-44.978 24.34z" opacity=".302"/><path fill="#00344A" d="m285.875 26.223.163-.007zM285.877 26.256l-.001-.033.163-.008-.011.026zM286.163 25.129l.011-.027.154-.005-.011.027zM285.17 33.345l.004.044.157-.04.005-.046zm-.02 2.906-.001.058.163-.053.001-.057z"/><path fill="#00344A" d="M290.68 21.225c8.024-.354 18.759-.364 26.774.264l-.136-.06c-7.946-.486-18.569-.733-26.511-.232a.6.6 0 0 0-.127.028m27.054.311 1.804.25.083-.033-2.027-.285zm1.914.263c4.831 1.02 11.342 2.112 16.118 3.4l.019-.007a.3.3 0 0 1 .081-.009c-4.835-1.03-11.246-2.69-16.125-3.42z" opacity=".302"/><path fill="#00344A" d="m319.531 21.848.073-.029.099.018-.073.029zM317.42 21.527l-.131-.049.283.034.134.057z"/><path fill="#00344A" d="m182.245 134.758 1.383-.44.022-.12-1.374.436c-.018.04-.023.087-.031.124m1.535-.488c7.863-2.139 18.298-5.237 26.23-7.056l.08-.132c-7.886 2.103-18.48 4.648-26.288 7.068zm26.388-7.085 3.94-.865.043-.118-3.908.865zm4.091-.913c11.481-2.052 26.802-4.708 38.362-6.164l.006-.014c-11.522 1.598-26.887 3.824-38.324 6.06zm87.737-11.995 6.422 1.108.006-.014-6.28-1.185-.179-.03c-12.673-1.756-29.621-3.857-42.359-4.983l-.151-.008c-7.254-.235-16.918-.804-24.172-.792 7.246.271 16.904.428 24.138.906l.15.008c12.692 1.234 29.609 3.123 42.241 4.973zm-5.33 3.378 10.99.085-.004-.01-10.815-.187-.222-.003c-10.833.368-25.281.837-36.091 1.665 10.771-.578 25.134-1.383 35.92-1.553zm21.513-.419 2.828.575.006-.014a1 1 0 0 0 .054-.088c-.862-.178-2.002-.405-2.864-.583zm-.336.825 3.026.139.005-.013c.003-.024.015-.051.014-.084-.898-.041-2.087-.103-2.988-.154-.015.05-.036.081-.057.112M168.264 116.29l.168-.032-2.258-5.101c-.043.028-.095.059-.135.097.67 1.512 1.555 3.524 2.225 5.036m-.748-6.433c6.637-.822 15.467-2.155 22.132-2.684l.034-.115c-6.625.795-15.489 1.635-22.079 2.686-.021.031-.048.075-.072.096 0 0-.006.013-.015.017m22.266-2.692 18.02-.593.006-.013c.021-.031.042-.061.053-.089-5.417.177-12.637.408-18.054.584zm23.128-.536 14.69.687.006-.013a.4.4 0 0 0 .048-.075c-4.405-.219-10.268-.509-14.67-.718a.3.3 0 0 0-.048.075c.022.003-.011.027-.026.044m9.092 5.033 5.189-2.299-.024-.07c-1.526.676-3.574 1.578-5.1 2.253a1 1 0 0 1-.065.116m-53.691 4.733c2.321 5.099 5.361 11.915 7.823 16.936l.016-.017c.024-.02.058-.045.082-.066-2.338-5.058-5.504-11.78-7.753-16.885zm15.703 14.955-.031.124c8.715-4.745 20.258-11.248 29.14-15.632l4.295-2.05c-10.074 5.142-23.563 11.923-33.404 17.558m-1.938 1.252.004.009c.526-.306 1.224-.725 1.75-1.032l.027-.134-1.811 1.067zM167.887 88.409l.143-.044 1.045-4.706c-.052.032-.099.05-.151.081zm-.013.083-1.423 8.85.151-.08 1.418-8.804zm26.691 2.563-.037.104c27.939-14.717 46.395-24.433 84.215-35.14-68.405 21.163-84.072 34.917-84.178 35.037m-28.13 6.361-1.047 10.932.018-.007a.6.6 0 0 0 .114-.066c.318-3.287.743-7.662 1.065-10.94zm1.165 10.74c8.008-5.107 18.566-12.153 26.771-16.903l.038-.103c-8.072 5.043-18.981 11.534-26.835 16.961.004.009.014.039.026.045" opacity=".302"/><path fill="#00344A" d="m167.899 88.084.013-.083.131-.04-.013.082z"/><path fill="#00344A" d="m175.979 77.917 6.15-2.61.331-.196-6.427 2.718c-.021.03-.042.061-.054.088m6.442-2.735 21.766-7.863.048-.074-21.479 7.751zm21.917-7.911 10.713-3.137.103-.096-10.768 3.159zm10.864-3.185 14.491-3.536.184-.105-14.571 3.546zm14.69-3.569c14.586-2.506 34.158-5.08 48.885-6.396l.006-.013c-14.672 1.294-34.177 3.787-48.711 6.294z" opacity=".302"/><path fill="#00344A" d="m204.142 67.049.047-.074.142-.044-.038.07zM229.65 60.415l.195-.043.184-.104-.195.042zM182.118 74.984l.301-.127.322-.19-.302.127zm32.879-11.108.155-.038.103-.095-.154.037z"/><path fill="#00344A" d="M249.861 156.146c-1.881.332-2.971-1.113-1.971-2.622 1.096-1.659 4.135-2.005 4.482-.11.149.798-.47 2.158-2.283 2.688-.069.016-.159.028-.228.044M355.659 140.137c-1.93-.112-3.024-1.692-1.917-2.769.144-.135.279-.233.402-.304 1.99-1.063 4.432.259 4.048 1.719-.054.213-.427 1.273-2.311 1.357a2 2 0 0 1-.222-.003M275.02 68.678c-3.1.392-4.892-.918-3.564-2.596 1.965-2.489 8.146-3.087 8.587-.832.049.262.095 1.188-1.537 2.231-1.114.65-2.01.956-3.415 1.19-.012-.005-.044-.004-.071.007M484.195 92.993c-1.09-.614-2.029-1.309-2.632-1.955-1.396-1.591-.151-1.695.265-1.688 2.676.025 8.241 3.85 7.098 4.865-.423.37-1.968.218-4.354-1.02a4 4 0 0 0-.377-.202M425.917 89.24c-1.267-.394-2.165-.912-2.177-.918-2.79-1.56-3.365-3.503-1.268-4.258.941-.335 2.905-.405 5.351.499 4.011 1.577 5.085 3.923 3.299 4.816-1.045.523-2.92.513-4.885-.038zM432.012 140.106c-.611-.145-1.514-.434-2.363-1.027-2.065-1.45-2.02-3.342.093-3.9.427-.111 1.143-.211 2.149-.052 1.889.298 3.626 1.379 4.233 2.62l.011.03c.738 2.049-1.401 2.775-3.779 2.409-.104-.027-.24-.053-.344-.08M399.278 163.333c-2.217-.237-3.484-2.134-2.196-3.272 1.603-1.419 5.149-.179 4.988 1.747-.052.585-.632 1.569-2.541 1.55a2 2 0 0 0-.251-.025" opacity=".302"/><path fill="#00344A" d="M399.251 164.348c-3.404-.37-5.335-3.272-3.327-5.019 1.742-1.508 5.391-1.042 6.976.889 1.806 2.386-.598 4.458-3.649 4.13m0 .52c.141.012.336.026.487.034 3.727.142 5.766-2.589 3.703-4.953-2.78-3.19-9.051-2.525-9.062.968-.004 1.888 2.173 3.665 4.872 3.951M415.854 49.548c-.894-.293-1.399-.715-1.11-.919.043-.028.447-.265 1.76.111 1.124.35 1.526.778 1.252.965-.264.182-1.101.116-1.902-.157m-.284.28c.095.031.216.074.307.094 1.854.537 3.357.422 3.024-.237-.586-1.147-5.047-2.196-5.361-1.272-.127.4.731.988 2.03 1.416" opacity=".302"/><path fill="#00344A" d="M415.853 49.549c-.894-.293-1.398-.716-1.11-.92.591-.4 3.164.385 3.096.953-.022.212-.626.358-1.844.012a.5.5 0 0 1-.142-.045M314.734 109.273c-2.587 0-3.947-1.801-2.514-3.309 1.849-1.953 6.242-1.365 6.254.84.003.867-.907 2.238-3.436 2.463-.085-.001-.21.003-.304.006M446.744 58.744c-1.311-.582-2.062-1.26-1.636-1.494.062-.036.657-.303 2.592.463 1.65.709 2.238 1.37 1.836 1.585-.38.217-1.609-.036-2.792-.555m-.21.647c.146.056.343.137.489.192.603.216 1.717.626 2.982.83l.088.01.013.007c1.501.213 2.188-.124 1.706-.85-1.351-2.046-8.879-4.528-9.152-3.02-.118.668 1.505 1.85 3.874 2.831" opacity=".302"/><path fill="#00344A" d="M446.747 58.744c-1.311-.581-2.062-1.258-1.636-1.493.825-.46 4.665 1.141 4.555 1.896-.044.3-.911.392-2.709-.316a2 2 0 0 1-.21-.087M393.578 26.02c-.776-.17-3.309-.754-3.393-1.182.251-.403 3.375-.062 6.023.489 1.312.285 3.524.826 3.662 1.256-.251.403-3.238.064-5.986-.503-.088-.01-.215-.04-.306-.06M452.262 47.102c-1.234-.544-2.28-1.184-1.876-1.332.761-.276 5.435 1.687 5.157 2.17-.108.177-1.157.046-3.17-.791a.3.3 0 0 1-.111-.047M335.009 33.186c-1.565-.107-2.476-.548-2.082-.994.218-.254 1.231-.707 3.423-.643 2 .116 2.697.607 2.343 1.015-.394.446-2.085.737-3.684.622m-.285.302c.225.013.535.026.758.03 3.213 0 4.923-.815 4.184-1.492-1.357-1.244-8.068-.876-7.889.436.064.491 1.285.913 2.947 1.026M488.189 76.601c-1.979-1.193-3.095-2.34-2.556-2.62 1.159-.602 7.206 2.9 7.027 4.069-.085.554-1.985-.013-4.142-1.261-.102-.05-.224-.128-.329-.188M256.492 122.453c-3.051.609-4.933-1.357-3.411-3.554 1.957-2.829 7.106-3.078 7.449-.373.135 1.097-.821 3.128-3.97 3.911-.019.007-.05.008-.068.016" opacity=".302"/><path fill="#00344A" d="M335.009 33.186c-1.565-.106-2.476-.547-2.082-.994.858-.964 5.73-.86 5.862.133.059.415-1.136.95-3.51.88-.075-.005-.182-.008-.27-.019M517.801 154.91c-1.806-.967-2.864-2.408-2.063-2.79.046-.018.155-.072.438-.081 2.052.055 4.943 2.509 4.322 3.319-.082.1-.569.563-2.464-.324-.067-.041-.166-.082-.233-.124M174.578 135.628l-.076.176c2.019-1.241 4.713-2.882 6.732-4.124-1.995-.614-5.478 1.46-6.656 3.948m3.324 2.661c.242-.094.551-.238.786-.352 3.69-2.054 4.74-5.461 2.672-6.227-2.072 1.273-4.842 2.966-6.913 4.24-.846 2.471 1.144 3.223 3.455 2.339M209.93 108.671c-1.945.536-3.1-.395-2.297-1.857 1.235-2.228 5.29-3.31 5.65-1.504.185.963-.936 2.481-3.077 3.275-.087.023-.189.063-.276.086M322.902 120.599c-1.663-.014-2.586-1.219-1.715-2.215 1.159-1.323 4.112-.845 4.062.663-.023.697-.835 1.467-2.147 1.552-.053-.001-.134.008-.2 0M165.233 111.255c-1.365.624-2.187.26-1.745-.778.732-1.726 3.97-3.398 4.382-2.266.263.729-.919 2.158-2.44 2.944a2 2 0 0 0-.197.1M362.909 55.629c-1.139-.184-1.783-.766-1.316-1.185.821-.739 3.679-.225 3.541.628-.069.444-.992.704-2.071.575zM283.111 51.656l2.909 1.861.139-.054a5.8 5.8 0 0 1 1.44-.283c.433-.82 1.018-1.903 1.451-2.724a20.1 20.1 0 0 0-5.939 1.2m5.671 1.623c1.478.376 3.214-1.583 4.583-2.287-1.192-.399-2.47-.561-4.152-.521-.433.82-1.018 1.903-1.451 2.724.197-.01.613-.026 1.02.084m-10.336 2.561 6.185-1.128c.039-.588.907-.973 1.234-1.123-.867-.56-2.031-1.306-2.908-1.861-4.853 1.932-4.523 4.016-4.511 4.112m6.768 2.451c.247-.018.584-.048.827-.076 6.606-.765 11.318-4.384 8.56-6.573-.189-.15-.54-.373-1.116-.607-1.35.696-3.141 1.61-4.492 2.307 1.147.484.352 1.323-.656 1.728-1.07.441-3.352.728-3.698-.305-1.852.343-4.33.795-6.185 1.128.326 1.95 3.628 2.602 6.76 2.398" opacity=".302"/><path fill="#00344A" d="m288.94 53.34 4.468-2.308c-.035-.008-.06-.02-.098-.04-1.341.693-3.124 1.626-4.465 2.319.038.018.07.017.095.03M287.713 53.145c.009-.004.009-.004.022.002.436-.811 1.018-1.904 1.451-2.725-.053-.002-.103.006-.147 0-.433.822-1.018 1.905-1.451 2.727.044.005.085 0 .125-.005M282.961 51.645l2.908 1.86.019-.007.12-.048a504 504 0 0 0-2.907-1.86zm-4.507 4.176 6.183-1.127c.002-.024-.005-.043-.002-.067-1.852.343-4.329.795-6.183 1.128a.2.2 0 0 0 .002.066"/><path fill="#00344A" d="M286.56 55.47c-1.559.093-2.381-.518-1.693-1.27.282-.313.767-.525.996-.626 1.79-.734 4.015-.392 3.662.567-.188.523-1.274 1.16-2.75 1.311-.062.002-.144.012-.215.017"/><path fill="#00344A" d="M230.758 110.877c-.666.149-2.921.492-3.639-1.13-.882-2.525 4.277-5.851 7.179-4.624 2.176.926 1.112 3.74-1.959 5.202a7.5 7.5 0 0 1-1.215.454c-.115.033-.257.078-.366.098M334.686 26.042l5.257.278.084-.032c.519-.237.297-.42.021-.548-1.2-.518-5.274-.418-5.362.302q-.006-.015 0 0m2.112.566c.054.001.138.002.195.013 1.108.038 2.178-.066 2.848-.26-1.544-.081-3.597-.2-5.145-.29.191.34 1.212.458 1.221.455.135.025.433.066.881.082" opacity=".302"/><path fill="#00344A" d="m334.69 26.075-.01-.03c1.576.08 3.678.189 5.258.278l-.084.033z"/><path fill="#00344A" d="M163.416 83.45c-.015.018-.027.045-.039.072l2.371-2.605c-1.134.98-1.921 1.836-2.332 2.534m4.273.37c1.741-.837 3.843-2.396 5.478-3.449 3.982-3.268 3.497-4.366 2.578-4.5-.333-.048-2.261-.147-6.987 2.83-2.127 1.333-2.127 1.333-5.491 5.02-.718 1.602 1.116 1.4 2.91.745.411-.15 1.035-.415 1.512-.646m5.105-3.158-4.147 2.672.028-.011a31 31 0 0 0 4.119-2.66" opacity=".302"/><path fill="#00344A" d="M168.576 83.412c-.107.053-.212.116-.319.169 1.476-.954 3.446-2.211 4.923-3.165-.339.266-.339.266-4.505 2.946-.019.007-.037.015-.043.028zM163.292 83.661c.071-.162.071-.162 2.464-2.785.113-.1.229-.19.342-.291-.849.928-1.971 2.165-2.821 3.093.013.007.019-.007.015-.017"/><path fill="#00344A" d="M360.922 30.786c-.009.003-.028.01-.041.005.515-.067 1.196-.142 1.71-.209-.246.018-.985.048-1.669.204m2.421 2.247c.157.028.377.054.531.073 3.438.43 6.329-.083 5.726-1.005-.357-.546-1.926-1.09-3.913-1.348-1.889-.25-1.889-.25-5.15.139-1.42.5-.551 1.093-.112 1.326.305.15 1.181.55 2.918.815" opacity=".302"/><path fill="#00344A" d="M360.531 30.838c.244-.084.245-.084 2.043-.294.197-.01.312-.01.531-.017a291 291 0 0 1-2.574.31"/><path fill="#00344A" d="M371.15 19.109c.026.013.063-.002.094-.003-.088-.01-.097-.007-.094.003m3.453.413c.066.008.145.023.207.02 1.25.14 5.393.599 6.164.634-.354-.109-3.278-.425-7.325-.853l-.142-.012c-1.965-.198-1.997-.197-2.234-.183.198.024.742.104 3.33.395" opacity=".302"/><path fill="#00344A" d="m371.164 19.035.093-.003zm.103.026.185-.006a.5.5 0 0 0-.185.006q-.006-.015 0 0"/><path fill="#00344A" d="M371.254 19.055c-.034-.009-.065-.008-.09-.02l.093-.003c.065.008.139.012.201.01-.053-.002-.133.007-.185.006z"/><path fill="#00344A" d="M403.235 29.25c-.009.004-.018.008-.024.021.735.05 1.73.122 2.465.172-1.485-.297-2.24-.283-2.441-.192m1.88.92c.069.018.164.049.243.063 1.882.468 3.528.59 3.327.251-.148-.246-1.39-.695-2.756-.982-.807-.168-1.913-.13-2.736-.19-.116.215.889.587 1.922.859" opacity=".302"/><path fill="#00344A" d="m403.211 29.25 2.471.168zM403.183 29.283q.01-.017.025-.02c.743.046 1.727.121 2.47.167q.118.019.24.053a167 167 0 0 0-2.735-.2"/><path fill="#00344A" d="M288.035 21.323c-.637.103-1.734.273-1.933.273.345-.157 5.52-.989 5.988-1.004-.212.116-3.645.672-3.794.696-.081.01-.189.03-.261.035" opacity=".302"/><path fill="#00344A" d="M264.862 293.074c5.775 9.211 13.456 21.498 19.317 30.654-5.809-9.188-13.576-21.418-19.317-30.654q.013-.006 0 0m23.477 30.195c16.587-32.452 17.942-35.103 29.422-54.641-18.096 31.477-18.096 31.477-29.55 54.579zM265.234 292.668c5.778 9.216 13.47 21.505 19.334 30.666l.015-.018-5.678-9.142-13.532-21.595c.023.037-.096.06-.139.089m-31.181 57.893c14.619-6.815 34.193-15.707 48.943-22.201-14.778 6.414-34.375 15.237-48.987 22.072zM317.94 209.872l-.004.295.167-.19.003-.113a.7.7 0 0 1-.166.008m-68.89 49.585c27.84-24.057 30.117-26.02 51.958-42.048-29.137 22.008-30.278 22.861-51.958 42.048m.484 2.074c9.878.399 23.045.883 32.915 1.442-9.87-.469-23.031-1.147-32.915-1.442m69.011 1.401c-.846-33.882-.869-35.202-.457-52.723l-.167.189c-.26 32.851-.267 33.473.483 52.555.041-.004.1-.016.141-.021"/><path fill="#00344A" d="M282.647 263.076c9.981.711 23.297 1.622 33.266 2.45l.003-.023-4.694-.534c-32.005-2.337-37.775-2.753-61.413-3.501 9.855.469 22.99.979 32.838 1.608m-15.775 23.289c14.669-6.121 34.353-13.98 49.19-19.616-14.873 5.561-34.572 13.346-49.234 19.487zM174.754 318.394c26.487 16.321 26.487 16.321 52.126 31.347-23.809-13.89-23.809-13.89-52.126-31.347m-28.266 117.985c5.366-34.718 10.443-67.515 22.569-115.456-8.265 34.534-14.798 61.82-22.569 115.456m1.212 1.277c23.917-26.996 46.415-51.819 79.49-82.351-22.856 21.267-40.909 38.06-79.553 82.229.023.036.05.082.063.122M174.18 318.698c26.431 16.254 26.431 16.254 51.972 31.214l.006-.014c-24.257-14.325-24.257-14.325-51.879-31.34.038.019-.072.096-.099.14m57.907 29.035c16.656-33.537 18.01-36.273 28.318-54.898-7.454 13.725-17.185 32.157-24.215 46.133l-4.227 8.712a1 1 0 0 1 .124.053M244.884 262.617c-7.307 4.666-17.116 10.768-24.341 15.581 7.294-4.672 16.955-11.052 24.341-15.581m3.65.724 11.492 20.434.019-.007a.5.5 0 0 1 .104-.064c-3.439-6.135-8.025-14.308-11.474-20.44a.5.5 0 0 1-.104.063s-.031.001-.037.014m-73.263 50.04c27.369-9.207 45.448-15.28 82.291-24.323l-.007-.02c-32.206 8.062-36.341 9.094-65.563 18.42l-16.744 5.764c.049-.008.019.116.023.159M241.969 185.866l16.455 3.485.046-.143-16.433-3.482c-.027.045-.05.099-.068.14m16.603 3.517c7.744 1.887 18.077 4.294 25.789 6.306l-.219-.208c-7.655-1.876-17.841-4.499-25.533-6.237zm26.103 6.386c8.577 2.374 20.022 5.463 28.565 7.951l.006-.014c-8.63-2.465-20.112-5.845-28.791-8.144zm19.475 18.497.11.103 9.589-6.585a.7.7 0 0 1-.091-.111zm-3.463 2.465.178.054 3.259-2.317-.109-.104zm-54.73 41.606c-4.342-32.79-4.895-37-6.833-60.919l-.013-.006c2.831 31.045 3.193 35.037 6.846 60.925m.156-.038c-4.331-32.761-4.894-36.967-6.832-60.795 2.89 31.677 3.188 34.993 6.832 60.795m2.546.729c27.97-24.152 30.257-26.133 52.061-42.141l-.177-.054c-9.675 7.318-22.545 17.111-31.983 24.777l-19.989 17.317a.4.4 0 0 0 .088.101"/><path fill="#00344A" d="m232.862 193.511.137.059 3.835-5.741a1 1 0 0 1-.137-.059 1735 1735 0 0 1-3.835 5.741m6.917 3.104.153.076-.6-8.791c-.028.011-.078.019-.106.03.158 2.604.382 6.075.553 8.685m6.986 61.063c-4.24-32.193-4.891-37.145-6.815-60.814l-.153-.075c2.828 31.041 3.186 35.023 6.843 60.927.032-.001.087-.023.125-.038m-75.188 51.444c15.279-35.218 27.35-63.032 61.341-115.419l-.137-.059c-31.707 49.966-43.634 73.69-61.318 115.455.035.009.079.014.114.023m2.525 2.048c27.871-21.326 27.871-21.326 46.071-33.481 7.334-4.73 17.033-11.155 24.453-15.727-22.205 13.998-43.183 27.232-70.584 49.096.014.04.04.086.06.112M113.377 353.927c6.55-4.824 15.242-11.338 21.888-16.007-6.586 4.782-16.972 9.333-21.888 16.007m-8.719 6.865 8.553-6.731-.003-.01zm-.934.763.83-.666-.003-.01zm40.726 74.909c-16.422-26.36-19.837-31.839-36.51-60.467 13.625 23.322 18.208 31.175 36.51 60.467m2.254-.318c5.416-34.917 10.528-67.891 22.625-115.681-9.272 37.97-12.742 52.188-21.762 108.931l-.975 6.703a1 1 0 0 1 .112.047M159.946 189.067l.14.036.256-11.175c-.034.024-.074.063-.108.087-.098 3.318-.209 7.741-.288 11.052m-34.615 26.817c7.118-8.771 16.565-20.521 23.984-29.002-7.282 8.632-17.018 20.097-23.984 29.002m.029.113c7.139-8.802 16.619-20.576 24.06-29.088-7.298 8.649-17.064 20.149-24.06 29.088m-17.79 24.451c6.296-6.349 12.175-17.233 17.643-24.415-5.306 7.311-12.528 16.951-17.643 24.415m.075.062c5.27-7.321 12.154-17.203 17.609-24.358-5.303 7.289-12.509 16.911-17.609 24.358m53.131-13.405c-.326-11.355-.694-26.495-.689-37.844l-.14-.036c.091 11.379.292 26.562.711 37.937.028-.011.071-.039.118-.057m.244 7.268 1.693 23.754.139-.089-1.688-23.71-.103.04c-.006.014-.028.011-.041.005m1.703 23.909c1.533 15.284 3.817 35.641 5.749 50.882l.018-.007c-1.835-15.268-4.106-35.652-5.618-50.968zM68.535 355.674l.623.665.006-.013.053-.124-.623-.665a.5.5 0 0 1-.06.137m.933 1.01.882.95.072-.131-.885-.96a.6.6 0 0 1-.069.141m.96 1.021 7.618 8.221.055-.147-7.6-8.204zm36.041 14.473-.003-.101-3.311-5.829c-.03.035-.057.08-.097.118 1 1.756 2.33 4.099 3.33 5.855.025-.021.053-.032.081-.043m-28.355-6.177c5.098 5.515 11.887 12.878 16.994 18.389l.105-.097c-5.114-5.531-11.93-12.907-17.043-18.438zm59.964 59.262 6.881 10.93.015-.017c-17.237-27.919-22.274-36.219-36.586-60.75 14.44 25.026 17.448 30.223 29.69 49.837m-42.891-40.767c19.259 20.729 31.045 33.374 49.333 52.244l.006-.014c-28.123-29.597-33.633-35.473-49.231-52.318zM69.618 341.223l.075.062c2.345-10.474 5.438-24.457 8.006-34.871-2.489 10.428-5.837 24.318-8.081 34.809m9.289-35.567c-.12 7.455 5.927 16.221 8.57 23.138-2.577-6.943-6.068-16.165-8.57-23.138m-.089.115c2.559 6.95 5.944 16.236 8.587 23.154-2.59-6.95-6.085-16.181-8.587-23.154q-.005-.015 0 0m-10.726 43.367 1.57-7.694-.074-.061-1.572 7.751a.4.4 0 0 0 .076.004m-.418 2.118c.089-.421.205-.978.284-1.395a.3.3 0 0 1-.088-.011c-.08.418-.193.985-.272 1.402.022.003.054.002.076.004m.93 3.033.8.164.007-.014c.008-.037.022-.088.03-.126a25 25 0 0 0-.8-.163c-.009.037-.023.088-.038.139m1.205.255 1.597.34.078-.144-1.645-.355c-.002.057-.016.108-.03.159m1.702.367 9.782 2.348.065-.15-9.766-2.332zm11.578 2.803 7.431 2.042-.276-.244-8.794-2.383-.065.151zm16.569 1.813c-2.733-6.746-6.43-15.704-9.098-22.476 2.723 6.75 6.303 15.766 9.098 22.476m-8.81.317 7.464 2.199.003-.024a.6.6 0 0 1 .034-.115c-2.334-.688-5.443-1.617-7.767-2.308z"/><path fill="#00344A" d="M79.326 304.763c5.924.024 13.822-.015 19.737.26-5.93-.134-13.822-.413-19.737-.26m-.882 1.7c2.54 6.902 5.89 16.127 8.514 22.997l.084-.124c-2.567-6.891-6.032-16.049-8.507-22.977a1 1 0 0 1-.081.1zm8.567 23.122 3.038 7.825.073-.153-3.026-7.795zm3.091 7.95c2.703 6.703 6.266 15.653 9.03 22.321l.006-.014-3.69-9.26-5.284-13.206zm22.822 15.694-.082.224c25.65-18.916 26.651-19.658 53.099-36.292-9.433 5.911-21.977 13.854-31.205 20.113-6.555 4.759-17.01 9.209-21.812 15.955m-8.681 6.835.02.15 8.432-6.636.082-.223zm-.897.859.006.02c.239-.195.561-.457.803-.642l-.02-.15-.827.663zM132.621 276.541l.155-.072c-5.788-5.893-13.499-13.744-19.313-19.592l-6.256-6.24 9.649 9.883c4.735 4.802 11.046 11.202 15.765 16.021m-53.637 27.896c5.924.028 13.843-.016 19.768.26l-.014-.164c-5.914-.122-13.805-.395-19.715-.258a.24.24 0 0 0-.019.097c.013.007-.014.051-.02.065m19.878.274 4.432.273.115-.158-4.552-.283zm33.859-28.063 6.78 6.929.07-.164-6.695-6.837zm-27.998 28.431 1.021.075.083-.157-2.289-.165-.115.158zm1.131.088c7.04.72 16.43 1.627 23.451 2.535l.061-.159c-7.027-.805-16.389-1.937-23.429-2.533zm33.731-21.499c8.084 8.259 18.86 19.261 26.956 27.493l.016-.018c-8.058-8.303-18.81-19.36-26.898-27.629zm-10.161 24.044c10.854 1.655 25.32 3.996 36.137 5.914l.003-.024c-10.8-1.959-25.229-4.438-36.078-6.05zM66.216 237.972l-.552-5.731a1 1 0 0 0-.089.114c.17 1.693.393 3.943.56 5.626.022.003.05-.008.081-.009m.618 6.226.123.111-.28-2.319c-.029.068-.084.124-.079.201.04.609-.032 1.477.236 2.007m-.387-13.228c5.056 1.569 11.79 3.752 16.731 5.695-4.97-1.841-11.629-4.269-16.731-5.695m.414 13.49c.841 6.015 1.89 14.047 2.842 20.041l.087-.182c-.852-5.919-2.074-13.804-2.806-19.748zm32.717-.073c-4.877-2.344-11.351-5.559-16.313-7.687 4.903 2.265 11.474 5.238 16.313 7.687m-16.391-7.543c4.913 2.261 11.484 5.234 16.314 7.687-4.881-2.354-11.361-5.555-16.314-7.687m9.03 32.867.065.065 7.61-15.729a.12.12 0 0 1-.063-.032c-2.273 4.716-5.326 10.987-7.612 15.696m-16.04 29.023.116-.034c-2.048-10.251-4.699-23.943-6.48-34.253l-.087.181c1.828 10.258 4.37 23.913 6.451 34.106m3.713-1.002.106-.031c3.646-8.341 8.396-19.521 12.215-27.761l-.065-.065-5.105 11.195zm-3.677 1.135.708 3.286.015-.017a.5.5 0 0 1 .09-.08c-.206-.964-.49-2.249-.698-3.223zm2.145 2.802 1.577-3.807-.107.03-1.543 3.749c.025.013.051.026.073.028"/><path fill="#00344A" d="M66.571 229.657c20.303-17.129 21.093-17.798 35.219-26.777l.009-.004c-22.658 15.525-23.54 16.14-35.228 26.781m82.483-43.082.113.023 6.574-7.182c-.034-.009-.078-.014-.113-.023-1.973 2.152-4.604 5.021-6.574 7.182m-73.579 47.511 7.15 2.77.068-.139c-4.936-1.818-11.537-4.219-16.586-5.633-.018.041-.05.098-.068.139 2.834.855 6.64 1.903 9.436 2.863m49.681-18.697.037.109c7.08-8.705 16.483-20.349 23.862-28.766l-.113-.023c-7.217 8.522-16.881 19.864-23.786 28.68m-42.458 21.495c4.87 2.236 11.384 5.176 16.172 7.602l.006-.014c.015-.017.027-.044.038-.071-4.823-2.345-11.225-5.541-16.148-7.656zm24.9 2.842c5.228-7.239 12.067-17.006 17.474-24.091l-.037-.109c-5.262 7.231-12.428 16.754-17.498 24.145.016.017.045.039.061.055"/><path fill="#00344A" d="m89.456 174.159.066.008 10.761-19.474c-6.059 2.091-7.594 13.619-10.827 19.466m15.236-23.342c4.086 1.021 9.554 2.289 13.564 3.61l.03-.158c-4.029-1.133-9.39-2.792-13.491-3.583-.021.031-.051.065-.073.096.013.006-.021.031-.03.035m-23.71 40.581.083-.033 8.383-17.046-.066-.007zm37.382-36.934c5.66 2.251 13.188 5.3 18.729 7.878l.15-.115c-5.614-2.482-13.105-5.793-18.84-7.925zm-52.753 73.787c4.47-11.091 10.496-25.863 15.382-36.757l-.083.033c-4.75 10.953-11.033 25.59-15.358 36.736.022.003.04-.005.06-.012m.567.971c20.329-17.178 21.12-17.848 35.264-26.854l.117-.181C95 206.68 86.193 212.572 79.868 217.435l-13.683 11.683c.03-.034-.008.07-.007.104m35.421-26.949 9.582-5.723.027-.134-9.492 5.676zm9.696-5.79 6.636-3.657-.025-.103-6.574 3.622zm25.887-34.097c5.731 2.977 13.376 6.915 19.021 10.071l.015-.017a1 1 0 0 0 .065-.059c-5.663-3.082-13.199-7.254-18.964-10.116zm-19.118 30.366 18.081-8.872-.201-.033-17.909 8.792zm18.338-8.983 17.493-7.246.006-.013a.5.5 0 0 1 .012-.118c-5.313 2.205-12.387 5.145-17.703 7.339zM265.36 175.387c20.674-1.126 46.398-2.518 78.876-.705-21.5-.749-48.252-1.694-78.876.705m28.168-1.346c34.95-.172 34.95-.172 53.165.907-34.769-1.354-35.432-1.376-53.165-.907m28.864 30.322c7.708-7.983 18.014-18.596 26.07-26.185-7.956 7.662-18.53 17.93-26.103 26.029a1 1 0 0 0 .033.156m-11.55 13.221 6.417-7.443.167-.189.318-.362c-.212.027-.212.027-.312.134l-.167.189-6.532 7.601c.029.022.067.041.109.07M304.041 214.517l3.362 3.201.015-.017-3.241-3.283-.11-.104c-5.861-5.562-13.668-12.989-19.528-18.551l-.22-.208-11.814-11.179-8.015-7.538c5.852 5.6 13.641 13.067 19.515 18.636l.22.208c5.912 5.621 13.794 13.11 19.706 18.731zm-3.413 2.427 6.043 1.786.005-.013-5.903-1.875-.178-.055c-12.566-3.521-29.359-8.113-41.998-11.355 12.574 3.359 29.318 7.902 41.844 11.461zM182.166 174.153l1.329.426.015-.018c.027-.044.058-.078.085-.123-.402-.124-.928-.301-1.33-.426-.036.048-.063.093-.099.141m2.098.665 1.345.442.065-.149-1.32-.429a.5.5 0 0 1-.09.136m1.466.485 13.51 4.737.03-.158-13.476-4.728zm15.632-3.647c32.444.166 33.705.179 58.743 2.528-31.598-2.516-35.659-2.841-58.743-2.528m54.031 27.36 3.042-10.458.046-.142 1.621-5.337 1.949-6.13c-.031.001-.066-.008-.097-.007-1.085 3.435-2.537 8.007-3.622 11.441l-.046.142-3.031 10.489a.6.6 0 0 1 .138.002m-16.228-2.364 10.844 5.027.015-.017-10.868-5.187-.152-.075-.013-.006-6.758-3.033-.136-.059c-9.762-4.121-22.807-9.559-32.681-13.365l-.03.159c9.83 3.891 22.907 9.147 32.621 13.343l.136.059 6.869 3.079.013.006z"/><path fill="#00344A" d="M263.794 173.111c22.547-28.678 23.427-29.802 44.749-50.914-7.026 7.099-16.415 16.536-23.111 23.98l-.127.151c-6.531 7.955-15.29 18.543-21.511 26.783m63.978-33.202c6.333 9.478 14.809 22.108 21.209 31.537l.019-.008a21087 21087 0 0 1-21.065-31.547l-.069-.109c-3.691-5.616-8.625-13.092-12.306-18.711 3.64 5.624 8.444 13.151 12.134 18.733zm-34.532 33.773c34.968-.172 34.968-.172 53.188.897l.006-.013-2.451-.246c-21.515-.76-48.28-1.705-78.916.706 8.446-.412 19.71-1.196 28.173-1.344"/><path fill="#00344A" d="m204.776 157.828-.037.137 22.169-11.083.191-.086c7.88-3.364 18.3-8.076 26.272-11.174l.166-.065c10.405-3.633 24.262-8.534 34.799-11.693l.363-.108 19.423-5.015-19.151 4.83-.362.108c-10.553 3.389-24.634 7.886-35.041 11.755l-.167.065c-7.942 3.365-18.616 7.618-26.453 11.255l-.191.086zm-14.919 8.333-.079.166 14.788-8.283.037-.138zm-4.252 2.632 3.977-2.334.088-.169-4.092 2.424zm-2.618 1.58.003.009c.494-.304 1.166-.7 1.66-1.005l-.034-.098c-.494.304-1.166.701-1.66 1.005zm-.149 2.304 1.612-.114.006-.013c.017-.041.026-.077.043-.118-.483.032-1.128.083-1.611.114-.018.041-.032.091-.05.131m2.544-.187 1.406-.101.058-.134-1.418.095c-.014.05-.029.1-.046.14m1.543-.098 14.076-.627.037-.137-14.054.629zm77.091-.06 6.691-8.736 14.839-17.883.127-.151c7.177-7.606 16.761-17.738 24.303-24.928l-1.513 1.216c-23.635 23.763-24.558 24.681-44.567 50.44.034.008.085.033.12.042m-52.039-.7c14.319.442 33.401 1.485 47.685 2.644l.006-.013c-32.968-2.783-34.937-2.943-58.484-2.636l-.036.137zM144.527 111.102c6.677-4.08 15.451-9.788 22.274-13.597l.152-.082c7.466-3.79 17.299-9.132 24.906-12.604-7.47 3.746-17.577 8.448-24.889 12.529l-.152.082c-6.686 4.084-15.741 9.257-22.28 13.612-.006.013-.008.037-.011.06m3.08 10.285.162-.052-4.822-8.118c-.025.021-.065.06-.099.084 1.431 2.428 3.328 5.658 4.759 8.086m40.64-8.416.141-.022 1.634-5.985.034-.116 5.071-15.713.038-.106 1.985-5.183c-.038.014-.075.029-.116.034-.611 1.576-1.424 3.673-2.039 5.239l-.038.105-5.049 15.626-.034.115zm-3.731 16.218-.11.541.157-.095.121-.603.036-.172 3.637-15.785-.141.021-3.67 15.934zm-36.86-7.719a7549 7549 0 0 0 13.628 22.904l.136-.098a7438 7438 0 0 1-13.611-22.855zm31.375 44.328c1.222-8.995 2.805-20.996 4.343-29.933l.027-.136.42-2.225.021-.122.363-1.897.031-.125.318-1.597-.157.095-.318 1.597-.028.136-.358 1.85-.021.122-.403 2.151-.028.135c-1.382 8.989-3.262 20.96-4.331 29.996a.3.3 0 0 1 .121-.047m-17.697-21.342c4.213 6.998 9.857 16.3 14.156 23.241l.016-.018c.034-.024.077-.052.101-.073-4.262-6.956-9.934-16.247-14.134-23.238zm17.436 23.72.019-.007c.047-.449.114-1.053.157-1.511-.046.018-.106.03-.153.048-.046.449-.113 1.053-.157 1.511a.6.6 0 0 1 .134-.041m-2.9.13.654 1.068.016-.017c.043-.028.083-.066.117-.091-.195-.32-.46-.748-.655-1.068-.04.038-.089.08-.132.108M64.14 230.917c-.006.014-.012.027-.008.037.688-.824 1.602-1.916 2.284-2.727-.709-.094-1.803 1.363-2.276 2.69m1.09 1.323c.04-.038.092-.103.14-.145.736-.842 1.306-2.071 1.402-2.99.035-.511-.04-.73-.286-.86-.725.872-1.693 2.02-2.418 2.892-.446 1.497.012 1.905.654 1.529.163-.109.329-.242.509-.426M76.342 304.983l3.077-1.513.023-.303c-.03-1.901-1.202-1.86-2.016-.997a4.3 4.3 0 0 0-1.084 2.813m1.744 1.069c.044-.028.099-.084.142-.112.578-.533 1.018-1.407 1.17-2.315-.914.449-2.135 1.053-3.049 1.502.186 1.522 1.147 1.394 1.737.925M157.569 179.088c-.87.386-1.675.499-2.392.351l-.022-.003c-2.92-.997-1.116-5.471 2.213-7.329 2.842-1.588 5.063-.259 4.248 2.519-.377 1.264-1.573 3.154-3.713 4.297-.089.046-.225.111-.334.165M231.063 357.168c-3.857 1.118-6.701-2.99-4.691-6.763a.4.4 0 0 0 .056-.113c2.099-3.763 7.208-3.337 8.171.684.341 1.449.128 4.574-3.141 6.049-.121.047-.279.11-.395.143M170.814 317.449c-1.989.735-3.471-1.352-2.51-3.537a3.43 3.43 0 0 1 1.574-1.692c2.309-.974 3.677 1.304 2.725 3.453-.359.831-1.031 1.49-1.789 1.776m.444 2.822c.233-.091.521-.238.747-.349a7.19 7.19 0 0 0 3.511-6.907c-.677-4.788-5.991-5.473-8.89-1.147-2.794 4.171-.42 9.492 3.844 8.633.237-.048.555-.138.788-.23"/><path fill="#00344A" d="M170.823 317.45c-1.989.735-3.471-1.352-2.51-3.538.992-2.277 3.649-2.641 4.431-.619.408 1.061.153 3.083-1.707 4.073-.068.015-.149.058-.214.084M101.715 367.088c-2.38 1.239-4.358-1.765-3.3-5.022 1.186-3.658 4.223-4.035 5.319-1.532.6 1.372.577 3.701-.877 5.596-.368.439-.645.65-.876.808-.093.037-.186.107-.266.15M67.706 356.173c-1.155.861-2.144-.348-1.858-2.283.326-2.223 2.033-3.538 2.84-2.213.615 1.016.353 3.236-.844 4.374-.04.038-.098.084-.138.122"/><path fill="#00344A" d="M67.852 357.427c-1.765 1.304-3.267-.564-2.813-3.517.496-3.263 2.898-5.27 4.208-3.531.874 1.152.824 3.527-.11 5.4-.148.307-.568 1.117-1.285 1.648m.081.636c.083-.067.2-.158.28-.234 2.706-2.477 2.788-8.568.113-8.798-2.795-.24-5.021 6.149-3.063 8.755.662.906 1.69 1.001 2.67.277M247.211 262.572c-1.337.321-2.261-.978-1.566-2.211a1.93 1.93 0 0 1 1.086-.9c1.551-.439 2.396.969 1.703 2.179a1.93 1.93 0 0 1-1.223.932m.121 1.116c.097-.026.23-.068.327-.094.186-.073.391-.154.693-.351l.019-.008c1.283-.91 1.408-2.078 1.414-2.091.093-.5.13-1.464-.666-2.27-1.068-.982-2.334-.576-2.384-.567-1.147.292-1.86 1.17-2.07 1.603-.136.279-.377.746-.392 1.317-.021.766.215 1.204.31 1.359.677 1.135 1.87 1.312 2.749 1.102"/><path fill="#00344A" d="M247.207 262.573c-1.338.322-2.262-.977-1.566-2.21.761-1.35 2.627-1.336 2.981.028.149.585-.055 1.682-1.272 2.137-.037.015-.097.027-.143.045M101.646 254.341c.069-.016.166-.043.244-.062.083-.677.204-1.583.288-2.26-3.229.724-3.621-3.449-1.545-6.965.455-.766 1.428-2.176 2.917-3.009.097-.67.225-1.557.331-2.231-2.589 1.355-4.06 3.864-4.605 4.801-3.013 5.521-1.746 10.697 2.37 9.726m2.138-1.008c.188-.131.43-.316.615-.456 4.743-4.031 6.001-10.716 3.517-12.951l-.016-.016c-1.342-1.101-2.876-.612-3.902-.153-.096.67-.224 1.557-.333 2.221 3.171-1.504 4.464 1.571 3.159 5.054-.696 1.844-2.299 4.247-4.54 4.957-.084.677-.199 1.569-.292 2.25.33-.118.955-.329 1.792-.906"/><path fill="#00344A" d="M102.018 252.046a.7.7 0 0 0 .146-.035c.415-2.999.964-6.988 1.372-9.973-3.837 2.149-5.714 8.727-2.831 9.913.394.162.838.191 1.313.095m1.593-.715c.187-.13.417-.322.592-.459 3.782-3.506 4.016-9.022 1.191-9.303-.743-.07-1.415.25-1.734.398-.415 2.999-.966 7.011-1.381 10.01.231-.067.71-.21 1.332-.646M262.768 290.872c-2.18.517-3.636-1.772-2.358-3.709.499-.76 1.183-1.017 1.481-1.134 2.333-.656 3.704 1.541 2.725 3.395-.384.727-1.074 1.269-1.848 1.448m.341 2.432c.188-.04.433-.125.614-.184 4.32-1.672 5.045-7.483 1.166-9.285-.942-.432-2.87-.931-5.156.69-3.887 3.141-2.321 8.358 1.592 8.88a4.8 4.8 0 0 0 1.784-.101"/><path fill="#00344A" d="M262.772 290.872c-2.181.517-3.636-1.772-2.358-3.709 1.284-1.95 4.093-1.594 4.477.561.135.761-.087 2.385-1.898 3.084-.069.016-.153.049-.221.064M318.286 209.807c-4.158.693-7.089-3.024-4.907-6.229 2.586-3.782 8.543-2.538 9.178 1.019.352 1.973-.815 4.442-4.212 5.198-.018.007-.04.005-.059.012M319.061 268.848c-1.909.319-3.495-1.183-3.149-2.969.548-2.644 3.99-3.056 5.235-1.194.827 1.234.517 3.401-1.849 4.115-.059.012-.156.038-.237.048M238.259 187.024c-2.279.499-3.709-1.378-2.545-3.335.714-1.206 1.861-1.588 2.23-1.71 2.641-.675 3.928 1.371 2.807 3.267a3.92 3.92 0 0 1-2.492 1.778m.35.833.417-.14c3.659-1.582 4.124-5.41 1.572-6.53-3.134-1.367-7.413 2.308-6.106 5.238.604 1.354 2.297 1.943 4.117 1.432M287.456 331.215c-3.429.825-5.97-2.801-4.187-5.977 1.881-3.349 6.706-2.823 7.463.814.263 1.254-.004 3.914-2.921 5.058-.106.03-.24.071-.355.105M158.824 234.599l3.369-7.702c-3.662-.077-6.205 4.839-4.444 7.005.283.33.638.563 1.075.697m2.39-.305c.126-.061.293-.161.417-.232 3.433-2.272 3.598-6.481 1.028-7.1-.139-.035-.258-.045-.325-.053-1.008 2.316-2.362 5.41-3.37 7.725.328.063 1.107.209 2.25-.34"/><path fill="#00344A" d="M238.26 187.02c-2.279.499-3.708-1.378-2.545-3.336 1.402-2.366 5-2.502 5.413-.204.165.94-.395 2.717-2.616 3.475-.068.016-.174.046-.252.065M147.133 442.09c-2.094.686-3.863-2.232-2.738-4.53.193-.393.406-.635.571-.802 1.755-1.639 3.991.178 3.95 2.515-.011.582-.187 2.009-1.569 2.733-.065.026-.146.068-.214.084M102.036 151.349c-1.062.867-1.76.893-1.621.072.122-.746.998-2.182 2.26-3.296 1.296-1.105 1.861-.965 1.831-.379-.031.857-1.213 2.57-2.47 3.603m-.285 1.835c.181-.15.407-.351.584-.51 3.332-3.153 4.798-6.701 3.428-6.942-2.158-.382-7.963 6.612-6.973 8.41.34.621 1.498.246 2.961-.958M142.027 113.337c-1.068.631-1.789.588-1.637-.101.309-1.424 3.6-3.825 4.143-3.015.347.516-.847 2.062-2.325 3-.058.045-.129.084-.181.116M178.57 177.686c-4.512 1.645-7.277-1.229-5.276-5.498 2.544-5.418 10.175-7.721 11.485-3.465.451 1.458-.012 3.331-1.279 5.136-1.379 1.849-3.038 3.131-4.93 3.827m-.056.879c.254-.088.576-.226.811-.34 6.248-2.946 8.918-10.387 4.389-12.253-5.393-2.227-14.032 5.907-11.7 11.014.94 2.022 3.546 2.658 6.5 1.579"/><path fill="#00344A" d="M178.636 176.171c-3.242 1.192-5.289-.915-3.835-3.955 1.868-3.889 7.36-5.568 8.292-2.529.639 2.095-1.266 5.052-4.07 6.321-.117.057-.275.119-.387.163M102.024 151.349c-1.062.867-1.76.892-1.621.072.284-1.744 3.454-4.879 4.035-3.991.331.501-.658 2.375-2.234 3.769a7 7 0 0 0-.18.15M262.687 177.298c-.396.077-.694.07-.836.057-1.578-.103-2.468-1.368-1.935-2.762.837-1.829 2.953-2.433 4.326-1.82 2.157 1.106.699 3.404.103 3.728-.44.376-.948.62-1.521.766-.059.012-.106.03-.137.031M197.303 85.576c-4.175 1.6-6.872.836-5.778-1.634 1.955-4.4 12.472-8.825 13.567-5.72.672 1.914-3.058 5.471-7.677 7.31zM254.449 208.538c-3.779.748-6.749-2.502-4.309-6.304 2.239-3.498 8.373-3.758 9.01.508.362 2.398-1.514 4.895-4.271 5.695-.128.027-.299.083-.43.101M351.432 179.55c-3.973 0-6.369-3.453-4.188-6.047 2.595-3.106 8.755-1.853 9.159 1.861.228 2.101-1.73 3.931-4.46 4.166-.157.005-.36.028-.511.02M309.561 222.465c-2.431.31-3.945-1.999-2.534-3.852 1.594-2.093 5.089-1.397 5.202 1.044.054 1.108-.765 2.412-2.418 2.767a2 2 0 0 0-.25.041M312.525 121.37c-4.326.072-6.134-3.211-4.05-5.404 3.297-3.48 9.809-1.929 9.781 1.42-.017 1.969-2.331 3.71-5.261 3.969-.148.001-.332.017-.47.015"/><path fill="#00344A" d="M55.41 189.044c17.9-25.666 19.767-28.356 36.568-46.634-20.65 23.444-22.808 25.9-36.553 46.583-.006.014-.009.037-.014.051m22.264-19.383c5.67-7.253 10.26-19.137 15.08-27.049-4.625 8.049-10.856 18.753-15.08 27.049m.082-.066c6-7.067 10.368-19.315 15.246-27.305-4.683 8.128-10.973 18.933-15.245 27.305" opacity=".302"/><path fill="#00344A" d="M77.561 169.714c6.048-7.001 10.363-19.26 15.235-27.226l-.242.308c-4.62 8.024-10.838 18.705-15.06 26.967a.2.2 0 0 1 .067-.049m18.643-30.894c7.153-3.134 17.034-6.481 24.571-8.351l.016-.018.078-.109c-7.531 1.89-17.422 5.208-24.568 8.362a.3.3 0 0 0-.097.116m-17.442 31.322c9.539-9.701 22.671-22.199 32.861-31.111-10.155 8.954-23.361 21.358-32.86 31.111M28.963 246.919l.098-.208c12.924-31.433 13.7-33.32 24.183-52.828-15.608 30.793-16.22 31.993-24.281 53.036m-.116.339c.074-.063.085-.214.114-.315l-.098.207-.044.119c.013.006.019-.007.028-.011m5.465-8.921 8.61-13.261-.01.004zm8.84-13.577c5.75-7.113 13.64-16.42 19.985-22.942-6.229 6.645-14.358 15.719-19.986 22.942M55.054 190.458c5.295-5.204 12.895-11.538 18.943-15.694l.006-.013c.021-.031.045-.085.066-.116-6.041 4.175-13.674 10.477-18.953 15.697a1 1 0 0 0-.057.112c.01-.004-.005.014-.005.014m-.632 1.139c4.186 2.456 4.186 2.456 9.23 8.29l.015-.017c.021-.031.048-.076.07-.106-5.76-6.434-6.363-7.112-9.22-8.317a1 1 0 0 0-.06.102c-.002.024-.03.035-.035.048M137.044 162.503c7.394-5.503 17.154-13.015 24.738-18.213-7.446 5.413-17.494 12.489-24.738 18.213" opacity=".302"/><path fill="#00344A" d="m136.916 162.595.137-.11z"/><path fill="#00344A" d="m181.354 131.717 1.132-.674.009-.004z" opacity=".302"/><path fill="#00344A" d="m182.447 131.04.388-.227-.01.004-.388.227zM174.448 135.907l6.876-4.189z" opacity=".514"/><path fill="#00344A" d="M184.475 129.819c9.568-5.142 22.285-12.094 32.063-16.785-9.674 4.928-22.605 11.419-32.063 16.785M115.024 177.288c.875-6.895 1.903-16.121 3.026-22.977-.942 6.887-2.309 16.053-3.026 22.977" opacity=".302"/><path fill="#00344A" d="m117.935 154.297.03-.156z"/><path fill="#00344A" d="m188.144 113.28 15.755-1.382.156-.128-15.881 1.386zm15.921-1.39 12.924-.445.015-.017c.015-.017.036-.048.051-.065-3.853.116-8.982.283-12.835.399z" opacity=".302"/><path fill="#00344A" d="m203.903 111.908.154-.126.163-.009-.154.126z" opacity=".514"/><path fill="#00344A" d="M147.94 121.136c6.13-1.526 14.253-3.815 20.438-5.061l-.044-.095c-6.133 1.516-14.378 3.273-20.443 5.075zm20.605-5.093 19.463-3.09.034-.114-19.531 3.106z" opacity=".302"/><path fill="#00344A" d="m168.366 116.058-.046-.103.165-.032.046.104z" opacity=".514"/><path fill="#00344A" d="M126.028 128.791c.006-.013 10.959-4.614 21.701-7.897l.052.09c-6.542 2.281-15.347 5.137-21.753 7.807" opacity=".302"/><path fill="#00344A" d="m147.779 121.179.161-.052-.053-.09-.16.051zm40.229-8.234.14-.021.034-.114-.14.021z"/><path fill="#00344A" d="m118.032 154.1.108.037c1.303-6.423 2.917-15.016 4.512-21.361-4.312 2.949-2.808 12.414-3.979 17.743zm-2.926 23.014c.87-6.852 1.898-16.009 3.004-22.818l-.108-.037c-.938 6.868-2.3 16.008-3.013 22.912a.5.5 0 0 0 .117-.057" opacity=".302"/><path fill="#00344A" d="m117.934 154.297.03-.156.106.036-.03.156z"/><path fill="#00344A" d="M77.564 173.45c3.548.026 8.297-.069 11.835.355-3.553-.193-8.292-.618-11.835-.355" opacity=".302"/><path fill="#00344A" d="m89.457 173.877-.066-.01z"/><path fill="#00344A" d="M111.631 139.063c-10.161 8.951-23.35 21.351-32.85 31.086l9.998-10.547c9.052-8.349 21.324-19.235 30.88-26.919l-.013.084zM81.135 191.337c8.728-3.186 20.595-6.757 29.601-8.934-8.999 2.197-20.88 5.728-29.6 8.934" opacity=".302"/><path fill="#00344A" d="m81.13 191.278-.08.043z"/><path fill="#00344A" d="M77.472 173.765c3.564.023 8.326-.063 11.867.352l.078-.143c-3.557-.184-8.305-.61-11.859-.355l-.069.106c.022.002-.011.027-.017.04m25.901 3.585 8.438 2.923.015-.017c.021-.031.043-.061.058-.079-6.36-2.127-14.934-4.648-21.457-6.058l-.944-.137-.078.143c4.205.899 9.864 1.915 13.968 3.225m-15.986 11.234c6.961-2.154 16.289-4.942 23.393-6.498-7.061 1.742-16.481 4.138-23.393 6.498" opacity=".302"/><path fill="#00344A" d="m89.323 174.005.066-.136.065.007-.076.14z"/><path fill="#00344A" d="M65.158 198.128c-.015.018-.043.029-.068.05 2.72-6.169 6.339-14.397 9.046-20.572.015-.017.043-.028.068-.049l-9.04 20.558c.003.01.003.01-.006.013M28.883 248.869l4.006-7.568.029-.101-4.001 7.554a.3.3 0 0 1-.026.078s-.012.027-.008.037m4.057-7.667 1.465-2.566-.005-.043-1.441 2.511zm1.54-2.686 8.62-13.282-.185.198-8.434 13.027zm8.85-13.598c5.758-7.124 13.668-16.45 20.013-22.979l.006-.013-11.23 11.76-8.984 11.433zm-15.977 28.296c-.28 2.35.695 5.486 1.115 7.81l.047-.233c-.341-2.31-.875-5.393-1.097-7.727-.024.055-.06.103-.065.15m1.131 7.917c.564 2.619 1.258 6.136 1.882 8.743l.064-.15c-.574-2.649-1.403-6.158-1.896-8.816zm1.895 8.783 1.68 6.559.005-.014c.047-.109.047-.109-1.63-6.692zM66.457 228.341c21.353-23.322 22.63-24.722 44.349-42.923C85.81 206.77 84.832 207.602 66.4 228.329a.14.14 0 0 1 .057.012m-4.116 4.874.018.083 1.7-2.072.054-.178c-.526.644-1.24 1.509-1.772 2.167m-28.653 41.017 3.2-9.295-.006-.11-3.235 9.41c.019-.007.028-.011.04-.005m19.29-28.869.101-.04 9.19-11.922-.019-.083zM37.09 269.615v.09c4.67-7.329 10.833-17.144 15.859-24.208l-.102.04c-4.813 7.161-13.588 15.58-15.757 24.078m-2.988 5.332 2.922-5.126v-.09l-2.918 5.136c-.008.037-.001.057-.004.08" opacity=".302"/><path fill="#00344A" d="M64.067 231.091c.043-.152.043-.152 2.331-2.871a.12.12 0 0 1 .07.017c-.724.869-1.69 2.012-2.413 2.881.01-.004.006-.014.012-.027"/><path fill="#00344A" d="m74.688 194.812 6.69-3.249.068-.139c-4.7 2.481-11.061 5.613-15.552 8.485-.012.027-.03.067-.038.104 2.648-1.554 6.131-3.739 8.832-5.201m6.773-3.282c8.77-3.243 20.693-6.877 29.743-9.093l.006-.014c-7.045 1.702-16.44 4.019-23.316 6.363l-6.374 2.609zm-44.588 73.019.007.11 5.084-13.699-.07.039-3.634 9.69z" opacity=".302"/><path fill="#00344A" d="m81.053 191.318.067-.137.079-.042-.067.137z"/><path fill="#00344A" d="m58.387 212.968.015.073 4.989-10.021c-.01.004-.032.001-.04.005-1.488 2.992-4.465 6.603-4.964 9.943m-16.388 37.79.062-.035 1.83-4.665c4.24-9.896 9.857-23.127 14.44-32.853l-.015-.074C53.258 224.333 46.598 239.33 42 250.758M186.905 171.697l2.752-5.885-2.743 5.882zM189.375 165.645c3.96-7.764 9.075-18.218 13.262-25.845-4.002 7.736-9.487 17.973-13.262 25.845" opacity=".302"/><path fill="#00344A" d="m202.632 139.786.072-.129zM210.007 126.735l.081-.132z" opacity=".514"/><path fill="#00344A" d="m136.359 184.293 12.366 2.237zM136.155 184.035c-5.517-.651-12.851-1.681-18.382-2.068 5.518.594 12.897 1.236 18.382 2.068" opacity=".302"/><path fill="#00344A" d="m136.348 184.205-.2-.033.01-.004.199.033z"/><path fill="#00344A" d="M135.902 184.224c-5.461-.64-12.73-1.663-18.214-2.035 5.471.58 12.823 3.122 18.214 2.035" opacity=".302"/><path fill="#00344A" d="m135.898 184.287.01-.003.195.023z"/><path fill="#00344A" d="m136.951 162.46.089.044c7.394-5.504 17.154-13.016 24.735-18.224l-.049-.081c-7.459 5.439-17.516 12.519-24.775 18.261m-18.442 15.768 18.378-15.619-.089-.044-18.31 15.571a.13.13 0 0 1 .021.092" opacity=".302"/><path fill="#00344A" d="m136.829 162.549.14-.11.088.043-.14.11z"/><path fill="#00344A" d="m183.199 130.508-.316.302 1.538-.9.021-.119zm-1.862 1.204.013.006c.34-.199.8-.478 1.141-.678l.315-.301-1.576.937c.034.009.072.027.107.036m-19.69 12.387.05.081 12.772-8.28c.017-.04.037-.103.064-.147-3.868 2.508-9.023 5.851-12.886 8.346" opacity=".302"/><path fill="#00344A" d="m182.761 130.74.394-.231-.317.301-.393.231zM174.454 135.886c.047-.107.047-.107 6.755-4.209.025.012.069.018.094.03l-6.855 4.193z" opacity=".514"/><path fill="#00344A" d="M184.499 129.702c9.563-5.13 22.271-12.079 32.036-16.777-9.657 4.978-22.589 11.526-32.057 16.896z" opacity=".302"/><path fill="#00344A" d="m184.438 129.784-.031.123.157-.094.03-.123zm-22.935 14.419.049.081.135-.097-.05-.081z"/><path fill="#00344A" d="M50.356 320.878c7.633-5.038 18.05-11.368 26.05-15.716-7.983 4.397-18.45 10.613-26.05 15.716" opacity=".302"/><path fill="#00344A" d="m76.372 305.111 3.025-1.468z"/><path fill="#00344A" d="M103.758 239.805c2.2-12.942 5.338-30.157 8.044-42.991-2.63 12.838-5.914 30.031-8.044 42.991" opacity=".302"/><path fill="#00344A" d="m111.311 196.794.038-.138zM102.166 252.04l1.377-10.033z"/><path fill="#00344A" d="M104.153 239.505c6.602-11.032 5.317-30.034 8.008-42.81-2.622 12.794-5.889 29.909-8.008 42.81m-56.207 79.993 4.212-11.891-.09.046-4.193 11.884c.028-.011.052-.032.07-.039" opacity=".302"/><path fill="#00344A" d="m111.42 196.726.038-.138-.028.134zM102.282 252.009l1.38-10.056z"/><path fill="#00344A" d="m70.168 264.142.023.127 3.908-8.469a.3.3 0 0 1-.074-.028c-1.155 2.513-3.48 5.597-3.857 8.37M52.502 307.47l.09-.046c5.049-12.99 11.995-30.209 17.513-42.975l-.023-.126c-5.471 12.838-12.568 30.082-17.58 43.147" opacity=".302"/><path fill="#00344A" d="m69.877 264.313.076-.176.022.126-.085.179z"/><path fill="#00344A" d="m101.964 202.376.157-.095 9.92-15.577c-.022-.003-.053-.002-.079-.014-2.994 4.708-7.004 10.978-9.998 15.686m-19.266 34.226.073.028c5.658-10.315 13.214-24.073 19.233-34.168l-.148.092c-5.86 10.157-13.665 23.685-19.158 34.048m-5.823 11.735 5.822-11.554-.073-.028-5.81 11.56c.013.007.035.009.06.022" opacity=".302"/><path fill="#00344A" d="m101.88 202.553.148-.092.009-.004zm-19.23 34.181.072.028.068-.14-.073-.028zM101.66 202.538l.115-.177.146-.09-.106.174z"/><path fill="#00344A" d="m199.609 179.512.134.05 1.92-8.197-.148.002zm-10.052 57.204c5.401-34.876 5.721-36.965 10.156-56.995l-.134-.049c-6.774 33.326-7.039 34.621-10.154 57.061.041-.004.091-.013.132-.017m-.293 2.168.019-.007c.063-.433.137-1.018.191-1.448l-.151.025a85 85 0 0 0-.191 1.448z" opacity=".302"/><path fill="#00344A" d="m199.217 179.668.134.049.03-.159-.134-.049z"/><path fill="#00344A" d="m201.06 171.231 3.541-13.758.18-.093-3.576 13.839z" opacity=".302"/><path fill="#00344A" d="m201.141 171.234.009-.003.141-.01.003.01z"/><path fill="#00344A" d="m214.265 125.762.156-.038 4.435-11.571c-.031.001-.081.009-.113.01-1.342 3.483-3.136 8.117-4.478 11.599m-5.24 15.478.139.035 5.217-15.422-.157.039zm-.037.139-4.694 15.954.171-.09 4.653-15.825z" opacity=".302"/><path fill="#00344A" d="m209.06 141.367.037-.136.136.035-.049.129zM214.101 125.869l.043-.117.154-.038-.044.117z" opacity=".514"/><path fill="#00344A" d="m204.651 157.331-.037.139.171-.089.037-.14zm-3.625 14.039.148-.001.037-.139-.148.001z"/><path fill="#00344A" d="m185.99 174.541.118.033 1.257-2.756-.136.008zm-6.803 15.858 6.856-15.674-.122-.044-6.855 15.709c.044.005.089.01.121.009m8.504 46.946c-2.971-11.841-6.838-27.666-9.547-39.587 2.756 11.903 6.535 27.751 9.547 39.587" opacity=".302"/><path fill="#00344A" d="m185.606 174.671.12.043.065-.15-.117-.033z"/><path fill="#00344A" d="m186.915 171.691 2.743-5.88.185-.107-2.793 5.98z" opacity=".302"/><path fill="#00344A" d="m186.945 171.695.009-.003.132-.006z"/><path fill="#00344A" d="m210.254 126.615.156-.039 7.829-12.421a.5.5 0 0 0-.12-.01c-2.363 3.751-5.507 8.733-7.865 12.47m-7.546 13.055.114.023 2.837-5.042 4.661-7.938-.156.039zm-.072.13c-4.001 7.735-9.486 17.972-13.261 25.844l.185-.106c3.933-7.72 9.024-18.119 13.194-25.705z" opacity=".302"/><path fill="#00344A" d="m202.632 139.783.07-.127.116.032-.065.114zM210.007 126.734l.08-.131.157-.028-.08.131z" opacity=".514"/><path fill="#00344A" d="m189.75 165.643-.08.167.185-.106.08-.167zm-2.9 6.191.134-.008.059-.136-.135.008z"/><path fill="#00344A" d="m188.352 237.986.331 1.257.018-.007c.037-.014.08-.042.117-.057l-.33-1.257a.7.7 0 0 0-.136.064m-2.803 5.935.007.02a65 65 0 0 0 1.323-.796l-.045-.128c-.402.235-.924.551-1.323.796zm-22.81 14.343.011.153c6.636-4.222 15.388-10.051 22.137-14.07l-.045-.128c-6.631 4.208-15.577 9.655-22.103 14.045m-15.774 11.152 15.647-10.912-.011-.152-15.674 10.956c.01.029.037.075.038.108" opacity=".302"/><path fill="#00344A" d="m162.64 258.366.136-.086.007.141-.132.096z"/><path fill="#00344A" d="M162.353 226.907c4.087-8.65 9.389-20.255 13.713-28.772-4.142 8.615-9.805 20.033-13.713 28.772m-16.746 41.467c3.953-10.148 9.154-23.704 13.361-33.725-4.054 10.097-9.554 23.521-13.361 33.725" opacity=".302"/><path fill="#00344A" d="m158.959 234.64 3.363-7.744z"/><path fill="#00344A" d="M145.594 268.35c3.953-10.149 9.152-23.718 13.363-33.732-4.067 10.093-9.556 23.527-13.363 33.732" opacity=".302"/><path fill="#00344A" d="m158.835 234.608 3.369-7.724z"/><path fill="#00344A" d="M178.309 197.63c1.793 7.485 4.137 17.482 5.988 24.945l3.781 14.688-.139.065c-3.007-11.874-6.909-27.747-9.63-39.698M162.343 226.912c4.087-8.65 9.411-20.252 13.722-28.776a.4.4 0 0 0-.11-.013c-2.296 4.668-5.371 10.885-7.667 15.552l-6.056 13.224a.4.4 0 0 1 .111.013m-16.736 41.463c3.956-10.138 9.166-23.697 13.373-33.718-4.111 10.085-9.672 23.488-13.474 33.701a.4.4 0 0 1 .101.017" opacity=".302"/><path fill="#00344A" d="M158.938 234.634c-.035-.009-.057-.011-.092-.02 1.001-2.316 2.346-5.411 3.347-7.727a.5.5 0 0 0 .129.006c-1.01 2.319-2.365 5.419-3.375 7.738z"/><path fill="#00344A" d="M125.077 215.797c8.092 23.684 9.783 28.616 19.236 53.088l-.01.004c-10.217-26.816-11.788-30.938-19.226-53.092" opacity=".302"/><path fill="#00344A" d="m125.074 215.787.006-.013z"/><path fill="#00344A" d="M118.034 193.116c2.07 6.77 4.795 15.822 6.969 22.551-2.107-6.755-4.975-15.751-6.969-22.551" opacity=".302"/><path fill="#00344A" d="m125.031 215.67.01-.004-.006.013z"/><path fill="#00344A" d="m117.971 193.013-2.335-8.318z" opacity=".302"/><path fill="#00344A" d="m118.011 193.115-.024-.103.034.099z"/><path fill="#00344A" d="m148.719 186.986 10.454 2.304-.002-.157-8.725-1.945-1.602-.33zm10.593 2.34 14.925 3.82.015-.017a.3.3 0 0 0 .038-.071l-14.98-3.889z" opacity=".302"/><path fill="#00344A" d="m159.171 189.172.139.036-.002-.157-.138-.036z"/><path fill="#00344A" d="m144.644 185.891-8.536-1.475.254-.121 12.364 2.237-.121.137z" opacity=".302"/><path fill="#00344A" d="m148.605 186.762.119-.136.004.01z"/><path fill="#00344A" d="M135.911 184.154c-5.46-.64-12.728-1.662-18.211-2.034.012-.027.033-.058.054-.089 5.524.581 12.92 1.182 18.413 2.011z" opacity=".302"/><path fill="#00344A" d="m148.609 186.671.114.023.121-.137-.113-.024zM136.108 184.31l-.195-.023.24-.116.199.033zM132.499 276.778l.149-.081.003.01z"/><path fill="#00344A" d="M125.08 215.786c8.096 23.694 9.774 28.62 19.227 53.093l.016-.018-4.685-12.503c-10.235-27.86-10.235-27.86-14.446-40.717z" opacity=".302"/><path fill="#00344A" d="m125.077 215.776.098-.139.004.01z"/><path fill="#00344A" d="m118.049 193.116.136-.075c2.061 6.749 4.774 15.77 6.941 22.479l-.112.146c-2.116-6.751-4.973-15.75-6.965-22.55" opacity=".302"/><path fill="#00344A" d="m125.038 215.662.107-.142.004.01z"/><path fill="#00344A" d="m117.963 193.012-2.334-8.317a.6.6 0 0 0 .088-.091c.707 2.499 1.661 5.827 2.372 8.336z" opacity=".302"/><path fill="#00344A" d="m125.014 215.666.039.111.111-.146-.038-.111zM118.025 193.113l-.034-.097.13-.074.034.098z"/><path fill="#00344A" d="m111.835 196.666.115-.068 2.548-10.547c-.028.011-.062.036-.091.047-.775 3.176-1.803 7.405-2.572 10.568m-7.978 43.089c2.209-12.945 5.354-30.174 8.059-43.008l-.115.068c-2.625 12.848-5.91 30.041-8.043 42.991a.4.4 0 0 1 .099-.051m-4.688 38.053.098.098.775-7.797 1.826-15.814a.3.3 0 0 1-.097.026c-.779 7.049-1.823 16.438-2.602 23.487m-.97 12.346 1.046-12.035-.098-.098-1.051 12.174z" opacity=".302"/><path fill="#00344A" d="m111.312 196.792.111-.067zM111.309 196.792l.037-.135.112-.066-.036.135zM103.661 241.958l.018-.007c.097-.674.226-1.565.327-2.228-.038.014-.072.039-.109.054-.097.673-.235 1.568-.332 2.242a.3.3 0 0 1 .096-.061m-1.682 12.321.009-.004c.084-.68.2-1.577.294-2.261-.038.015-.069.016-.107.03-.084.681-.206 1.591-.29 2.272z"/><path fill="#00344A" d="M102.263 252.014c-.028.012-.059.013-.078.02.407-3.01.96-7.019 1.367-10.029.028-.011.062-.035.081-.043-.408 3.01-.947 7.025-1.351 10.045z"/><path fill="#00344A" d="M129.836 307.977c-5.212 13.583-12.007 31.761-16.849 45.493l.16-.119c4.885-13.67 11.558-31.834 16.803-45.351zm-22.875 64.151 6.105-18.553-.161.12-6.033 18.389z" opacity=".302"/><path fill="#00344A" d="m113.161 353.463.163-.13-.006.013z"/><path fill="#00344A" d="m113.155 353.465.158-.117-.081.22-.155.127z"/><path fill="#00344A" d="m139.476 283.678.094.087 4.773-10.56c-.026-.012-.061-.021-.086-.034-1.438 3.166-3.349 7.355-4.781 10.507m-10.209 24.14.123.02 10.103-23.895-.084-.092z" opacity=".302"/><path fill="#00344A" d="m139.475 283.839.084.091.071-.164-.094-.087zm-10.201 24.139.123.02.061-.16-.123-.019z"/><path fill="#00344A" d="M104.597 360.117c-1.386-12.946-3.157-30.218-4.268-43.203 1.171 12.973 2.822 30.269 4.268 43.203" opacity=".302"/><path fill="#00344A" d="m104.728 360.112.003.009-.009.004zM104.743 360.276l-.019-.149.01-.003z"/><path fill="#00344A" d="M101.616 332.617c.872 8.272 1.955 19.321 2.941 27.583-.885-8.279-2.171-19.294-2.941-27.583" opacity=".302"/><path fill="#00344A" d="M106.226 372.133c-.01-.029-.011-.062-.012-.095zM104.645 360.356l-.022-.158z"/><path fill="#00344A" d="m119.288 283.514 13.234-6.727-.1-.105c-6.851 3.565-16.049 8.195-22.787 11.994l.096.096zm13.384-6.807 10.456-4.907-.006-.02c.002-.023-.008-.052-.006-.075-.212.082-.508.197-.724.269l-9.823 4.617z" opacity=".302"/><path fill="#00344A" d="m132.501 276.775-.099-.105.153-.071.095.095z"/><path fill="#00344A" d="M102.327 293.163c-.001-.033-.006-.076-.007-.109 2.169-1.289 5.07-3.007 7.244-4.309l.097.096zM99.878 310.837l.443 6.057.092-.195-.438-6.014z" opacity=".302"/><path fill="#00344A" d="m90.922 360.049.01-.004.002.01zM90.912 360.043l-.271-.24.012.006.269.23z"/><path fill="#00344A" d="M101.54 332.623c.881 8.267 1.955 19.319 2.94 27.579l.1-.084c-1.387-12.945-3.157-30.217-4.268-43.202l-.093.196zm4.541 39.473-1.478-11.816-.099.084 1.464 11.685.05.083a.2.2 0 0 1 .063-.036" opacity=".302"/><path fill="#00344A" d="m104.676 360.202.103-.074-.004-.01zM106.255 372.122l-.029.011c-.001-.033-.011-.062-.012-.096z"/><path fill="#00344A" d="m104.631 360.196.1-.072.02.147-.097.082z"/><path fill="#00344A" d="M49.984 324.848c5.979 4.77 13.88 11.236 19.747 16.175-5.872-4.925-13.753-11.423-19.747-16.175" opacity=".302"/><path fill="#00344A" d="m69.734 341.125.074.061z"/><path fill="#00344A" d="m99.022 304.55.111.013.382 5.77.008.179-.1.142zM98.962 304.396l-.231-3.79c.034-.025.072-.04.106-.065.068 1.157.164 2.701.233 3.858z" opacity=".302"/><path fill="#00344A" d="m98.993 304.549-.01-.151.105.003.014.161z"/><path fill="#00344A" d="M50.368 321.161c7.66-5.1 18.11-11.516 26.138-15.917l-.007-.02c-8.027 4.401-18.546 10.653-26.163 15.814.04-.004.03.089.032.123m29.178-17.399 15.272-6.707.002-.024c.003-.023-.002-.066 0-.09-4.58 1.995-10.677 4.662-15.257 6.657l-.01.094c.022.003-.005.047-.007.07m-29.703 21.279c4.217 3.362 9.85 7.832 14.005 11.286-4.185-3.42-9.755-7.982-14.005-11.286" opacity=".302"/><path fill="#00344A" d="M76.366 305.109c-.004-.042 0-.088-.004-.131.917-.443 2.138-1.038 3.054-1.482-.005.046-.016.106-.02.152z"/><path fill="#00344A" d="m76.608 347.234 4.944 4.336.006-.014c.021-.031.03-.068.05-.099-1.477-1.309-3.45-3.045-4.925-4.343zm18.667 36.618.084.091 9.901-8.476-.044-.129a9887 9887 0 0 1-9.941 8.514m-39.396 30.982c-.983-8.038-2.359-18.75-3.23-26.799l-.065.117c.954 8.016 2.17 18.722 3.234 26.718.009-.004.037-.015.061-.036m4.896 2.907c16.453-17.276 17.794-18.696 34.48-33.701l-.084-.091c-19.993 18.304-20.773 19.017-34.433 33.683z" opacity=".302"/><path fill="#00344A" d="m95.103 384.242.11-.099.083.089-.11.099z"/><path fill="#00344A" d="m90.328 359.78.319.091-5.413-4.814-.059.137c1.55 1.379 3.366 3.596 5.153 4.586m.276.244c4.373 3.928 10.214 9.153 14.578 13.084l.006-.014c.012-.027.033-.058.045-.085-4.299-3.866-10.022-9.024-14.32-12.89z" opacity=".302"/><path fill="#00344A" d="m90.602 359.957.312.088zM90.6 359.951l-.272-.24.314.089.272.239z"/><path fill="#00344A" d="m64.272 336.383 5.646 4.797.03-.159c-5.87-4.925-13.75-11.421-19.742-16.173-.009.037-.036.082-.044.119 4.253 3.403 9.935 7.903 14.11 11.416m5.72 4.858 6.391 5.538.076-.121-6.436-5.576zM47.989 327.93c1.394 27.567 1.643 32.541 4.354 59.83l.066-.117c-2.624-27.868-3.169-33.667-4.336-59.746-.003.024-.066.026-.084.033" opacity=".302"/><path fill="#00344A" d="m69.7 341.281.03-.156.073.061-.03.155z"/><path fill="#00344A" d="M43.044 225.209c4.421-3.915 10.417-9.056 15.262-12.357l.092-.161c-4.677 3.45-10.877 8.152-15.125 12.202l-.01.003-.185.198-8.013 9.806 7.783-9.491zM58.43 212.69l.007.02.038-.071-.043.028zm-24.067 25.908c.555 4.244 1.383 9.893 2.168 14.103-.755-4.368-1.708-10.195-2.204-14.608l.038.448zm4.622 11.288c3.561-7.146 8.12-16.794 11.9-23.823-3.583 7.143-8.54 16.553-11.9 23.823" opacity=".302"/><path fill="#00344A" d="m62.364 233.116 1.488 6.187.015-.017-1.406-6.287-.018-.084c-1.258-5.949-2.917-13.889-3.96-19.89l-.015-.073-.042-.244-.006-.019-.004-.01v-.034l-.028.045-.093.16-7.425 13.223c-3.576 7.145-8.542 16.577-11.907 23.843 5.614-11.235 13.254-26.135 19.377-37.06l.039.267.015.073c1.108 5.975 2.641 13.919 3.946 19.85zm-9.348 12.156 9.305-3.017c-5.935 2.023-13.749 5.1-19.343 8.018l9.936-4.96zM14.9 288.305c3.27-10.486 7.81-24.415 11.744-34.63l.002-.024c.018-.041.032-.092.05-.132-3.793 10.318-8.673 24.153-11.785 34.725.002-.023-.005.047-.011.061m14.636-41.357 3.998-8.588-.004-.01a.1.1 0 0 0 .005-.047 3870 3870 0 0 1-3.925 8.4l-.097.209-.177.409c.036-.049.066-.117.099-.175zm4.68-9.218-3.528 14.403 2.65-11.115.029-.102zm-5.343 23.119c-1.022 6.22-2.504 14.488-3.359 20.733 3.982-24.951 4.306-26.991 8.646-43.739l-.844 3.172-.029.102c-1.332 5.844-3.23 13.608-4.376 19.502zm-14.738 30.767c1.368-2.359 3.767-5.202 5.943-6.724 1.159-.817 3.2-.735 4.58-.665-2.525.357-5.874 1.58-8.007 3.074-1.187.828-1.966 2.9-2.516 4.315" opacity=".302"/><path fill="#00344A" d="M34.7 237.954c.554 4.411 1.414 10.291 2.22 14.661l.006-.014c1.248-2.509-1.062-6.527-1.547-9.32-.251-1.468-.398-3.464-.567-4.94l-.005-.044-.124-1.653c-.096.185-.105.189.016 1.31m-9.352 44.478c2.117-6.118 2.25-15.031 3.444-21.422l.047-.234 1.77-8.602 3.538-14.435c-5.876 24.406-5.992 24.871-8.735 43.953l-.114.839a.3.3 0 0 1 .05-.099M76.668 254.082c4.668 4.763 10.888 11.122 15.513 15.947l.074-.154c-4.627-4.801-10.798-11.203-15.483-15.924-.012.027-.043.062-.054.089 0 0-.034.025-.05.042m32.979 34.561 2.171 2.343.016-.017a.6.6 0 0 1 .095-.095l-2.148-2.306-.098-.098-9.93-10.633-.099-.098-7.349-7.781-.074.154 7.401 7.84.098.098 9.813 10.509zm-7.399 4.876 8.818-1.227a.4.4 0 0 1 .044-.119l-8.86 1.198c.001.034.005.077-.003.115.009-.004-.003.023.001.033" opacity=".302"/><path fill="#00344A" d="m92.235 269.835-.065.147zM92.17 269.986l.064-.147.067.074-.064.147z"/><path fill="#00344A" d="M52.867 307.673c7.054-2.905 16.567-6.518 23.83-8.795l-.026-.134c-7.197 2.374-16.761 5.752-23.734 8.769l-.089.046-7.254 3.834 7.193-3.678zm23.931-8.834 3.457-.916.07-.16-3.55.952zm3.571-.95 14.596-3.176.002-.023c.012-.027.024-.053.026-.077-4.372.939-10.19 2.182-14.566 3.11z" opacity=".302"/><path fill="#00344A" d="m76.67 298.862.114-.034-.026-.134-.114.033zm3.574-.954.105-.03.07-.161-.105.03z"/><path fill="#00344A" d="m65.894 243.358.938.87-.032-.249-.828-.765c-.024.054-.051.099-.078.144m1.065.991 6.875 6.582.016-.017c.02-.031.039-.072.056-.113-2.086-2.01-4.884-4.695-6.97-6.705z" opacity=".302"/><path fill="#00344A" d="m66.84 244.19-.026-.259.113.113.035.256z"/><path fill="#00344A" d="M43.4 250.527c5.658-2.798 13.408-6.111 19.379-8.034l.005-.014-9.207 2.865-.102.04c-3.288 1.653-7.802 3.594-10.935 5.571l-.062.035-3.434 2.367c-.017.041-.028.102-.046.143l3.425-2.363.061-.036zm.093 55.295c9.463-31.51 10.676-35.553 19.827-59.668-12.383 33.708-12.619 34.344-19.89 59.67.022.002.044.005.063-.002M26.191 282.01l4.696-12.07.065-.151 2.175-5.239 2.388-5.516-4.58 10.705-.066.151-4.698 12.093s.017.016.02.027m-.629 3.269c1.95 3.488 4.553 8.129 6.503 11.617-1.95-3.488-4.547-8.143-6.503-11.617m12.103-15.482c1.241 21.646 1.317 22.946 3.144 38.235l.006-.014-1.704-16.724c-.45-6.485-1.101-15.13-1.37-21.617v-.091l-.135-4.926-.006-.112-.054-7.469-.016 7.667.006.112.133 4.858zM22.206 284.665l3.027-.202.006-.014a.2.2 0 0 1 .02-.064c-1.35.178-3.37-.208-4.506.589-4.643 3.238-4.643 3.238-6.008 6.755-.005.047-.028.102-.033.149.747-1.279 1.432-3.26 2.474-4.269 1.276-1.249 3.33-2.645 5.02-2.944m-16.183 67.07c.805-5.756 1.248-13.513 1.775-19.308 1.017-10.986 3.819-25.438 5.842-36.275-5.169 28.076-5.169 28.076-7.634 55.658.003-.024.014-.051.017-.075M24.8 286.651c-9.24 24.051-14.337 37.294-18.565 64.684 4.745-24.691 7.364-38.289 18.565-64.684" opacity=".302"/><path fill="#00344A" d="M6.219 351.389c4.743-24.655 7.359-38.239 18.553-64.587-9.22 23.898-14.3 37.067-18.548 64.54-.006.013 0 .033-.005.047m26.33-54.628a3592 3592 0 0 0 7.475 13.293l.005-.013c-6.03-10.95-6.03-10.95-13.893-24.997-.018.041-.038.106-.055.147 1.948 3.47 4.532 8.106 6.467 11.57M6.156 352.625c4.429-13.706 9.448-29.23 32.388-37.948l.006-.014c-11.719 5.527-26.318 12.41-32.385 37.834.009-.038-.013.084-.009.128M81.875 357.173l.092.02.136-.313c-.03-.023-.055-.035-.084-.058a2 2 0 0 1-.144.351m-3.514 8.204.068.075 3.474-8.109-.092-.02zm-18.986 49.916c9.84-27.301 10.866-30.16 18.999-49.695l-.069-.075c-12.047 29.865-12.282 30.444-18.982 49.711.016.016.035.042.052.059" opacity=".302"/><path fill="#00344A" d="m78.03 365.523.063-.147.07.084-.058.133zM81.443 357.32l.064-.147.093.03-.064.146z"/><path fill="#00344A" d="m87.635 328.995.041.119 12.397-18.258.099-.14 4.159-5.806-.129-.006-4.044 5.647-.099.141zM71.726 354.84l.101.017 4.54-7.675.076-.12 11.156-17.804-.042-.12-11.18 17.859-.074.12zm-1.325 2.296.068.075 1.277-2.22-.1-.017zm-5.87 10.663 5.866-10.458-.068-.075-5.845 10.461c.007.02.03.056.046.072m-7.26 46.604c1.267-11.029 2.992-25.733 4.471-36.731-1.409 11.016-3.27 25.694-4.472 36.731" opacity=".302"/><path fill="#00344A" d="m70.343 357.117.08-.131.066.074-.07.127zM71.48 354.827l.101.017.078-.143-.101-.017zM87.191 329.033l.04.118.085-.122-.04-.118z"/><path fill="#00344A" d="m103.562 304.747 7.683-10.333c.019.026.046.072.065.098l-7.619 10.241z" opacity=".302"/><path fill="#00344A" d="m103.507 304.888.107-.141.137.002-.114.155z"/><path fill="#00344A" d="m90.297 336.947.053.126 9.766-19.961.092-.194 6.147-11.805-.111-.013-6.042 11.617-.092.194zm-5.803 12.834 5.773-12.551-.054-.126-5.793 12.615c.029.023.054.036.074.062" opacity=".302"/><path fill="#00344A" d="m90.35 337.093.074-.152.053.124-.074.153z"/><path fill="#00344A" d="m105.974 304.945 5.546-10.217c.029.022.058.045.084.057-1.657 3.044-3.867 7.119-5.523 10.163z" opacity=".302"/><path fill="#00344A" d="m105.951 305.1.083-.155.118.009-.092.158z"/><path fill="#00344A" d="M35.127 422.529c10.12-21.159 10.514-21.98 17.796-34.585l.066-.116 8.46-13.915-8.477 13.774-.065.117c-12.24 22.284-12.473 22.715-17.814 34.659.016.016.027.046.034.066m22.805-8.303c1.373-11.824 3.261-27.582 4.867-39.373l-.462 2.647c-1.413 11.003-3.27 25.685-4.47 36.718zm-22.582 9.719c5.248-.554 12.269-1.149 17.544-1.286l.003-.023c-.002-.034-.006-.077-.003-.101-5.267.223-12.31.601-17.547 1.276l.002.101c.01-.004-.002.023.002.033M17.626 414.652c4.102-25.62 7.974-49.811 22.294-93.259-8.877 28.218-16.554 52.585-22.32 93.246a.02.02 0 0 1 .026.013m16.68 7.155c.88-33.945 1.86-59.283 7.212-100.587-3.622 29.937-6.476 53.569-7.26 100.605zM29.727 422.2l4.468 1.446.006-.014c.003-.023.002-.057.014-.084l-8.136-2.446-6.719-.983c-.002.024-.001.057-.004.081 3.13.485 7.321 1.098 10.37 2m-12.375 54.738.016.141c1.892-14.001 3.52-26.085 16.99-51.761-7.918 16.07-15.4 31.254-16.988 51.488-1.15-23.436-1.175-23.88.027-51.176-1.07 24.046-1.39 31.306-.045 51.308M106.284 372.135l1.863 3.254.044-.119c.702-2.11-.585-3.755-1.907-3.135m.699 4.639a1 1 0 0 0 .161-.086c.55-.34.817-.886.926-1.122a467 467 0 0 1-1.919-3.356c-1.701.996-1.773 4.228-.093 4.678.301.074.627.037.925-.114" opacity=".302"/><path fill="#00344A" d="m106.266 372.131 1.889 3.286zM106.136 372.203a.5.5 0 0 1 .11-.054c.576.983 1.33 2.295 1.903 3.268l-.072.165z"/><path fill="#00344A" d="M145.317 273.11c-1.166.514-2.18-.127-2.265-1.416-.031-1.717 1.159-2.681 1.402-2.867.95-.678 1.632-.448 1.645-.442 1.895.556 1.278 3.522-.518 4.599-.019.008-.044.029-.062.036-.065.026-.136.065-.202.09M48.653 327.013c-1.313 1.478-2.502.857-2.553-1.319-.076-3.447 2.44-7.4 3.845-6.027.252.241.425.649.52 1.2.297 2.522-.858 4.979-1.7 6.012-.03.034-.076.086-.112.134M122.509 132.598c-2.164 1.579-3.346 1.333-3.093.109.57-2.777 6.262-7.515 7.077-5.888.509 1.016-1.483 3.922-3.95 5.754-.006.014-.024.021-.034.025M114.231 183.72c-1.28.818-2.142.31-1.812-1.06.202-.824.897-2.021 1.99-2.833 1.519-1.047 2.255-.444 2.072.71-.181 1.098-1.169 2.489-2.25 3.183m.151 1.937c.025-.02.068-.049.102-.073 3.737-2.729 5.663-8.165 3.116-8.813-3.103-.791-8.691 6.306-7.206 9.142.781 1.498 3.025.381 3.311.168a4.4 4.4 0 0 0 .677-.424" opacity=".302"/><path fill="#00344A" d="M114.23 183.721c-1.281.818-2.143.31-1.813-1.06.527-2.146 3.307-4.251 3.974-2.99.462.879-.524 2.856-1.955 3.913a3 3 0 0 0-.206.137M177.568 197.852c-2.931 1.115-4.895-.901-3.671-3.784 1.546-3.664 6.61-5.12 7.512-2.168.566 1.855-.914 4.454-3.246 5.685-.142.078-.161.085-.282.133-.099.05-.216.107-.313.134M189.453 244.257c-2.055.693-3.491-1.082-2.551-3.167.575-1.276 1.661-1.804 1.67-1.807 2.058-1.113 3.915.316 3.26 2.493-.25.81-.935 1.858-2.137 2.386a1 1 0 0 1-.242.095" opacity=".302"/><path fill="#00344A" d="M189.555 245.64c-3.211 1.079-5.404-1.754-3.828-4.97a5.93 5.93 0 0 1 2.512-2.646c.028-.011.071-.039.109-.054l.037-.014a4.8 4.8 0 0 1 1.536-.479c3.607-.33 4.426 3.606 2.221 6.346-.413.49-1.278 1.382-2.587 1.817m.052.702c.134-.041.32-.114.447-.175 4.244-1.823 5.498-7.657 1.969-9.187-.5-.222-1.874-.62-3.783.31l-.028.011c-4.158 2.105-5.049 7.887-1.407 9.101.482.172 1.484.378 2.802-.06M64.175 201.519c-.44.5-.76.614-.777.259-.024-.499.522-1.548 1.022-2.185.663-.802.863-.621.88-.39.03.485-.527 1.629-1.125 2.316m-.135.741c.051-.065.127-.151.178-.217 1.333-1.651 2.226-4.056 1.519-4.084-.15-.009-.267.116-.4.157-.505.345-1.074 1.053-1.685 2.072-1.133 2.014-1.065 2.947-.579 2.824.315-.067.7-.455.967-.752" opacity=".302"/><path fill="#00344A" d="M64.174 201.518c-.44.5-.76.615-.777.26-.05-.85 1.493-3.115 1.85-2.724.233.247-.295 1.504-.986 2.351a1 1 0 0 1-.087.113M99.167 300.245c-2.848 2.022-5.277-.327-4.49-4.335.42-2.132 1.883-4.822 4.098-5.702 3.141-1.142 4.729 2.85 2.786 7.005-.586 1.248-1.395 2.278-2.339 2.976-.012.028-.04.039-.055.056M75.55 175.045c-.702.749-1.191.952-1.186.476 0-.609.829-2.095 1.775-3.177 1.07-1.186 1.355-.971 1.358-.656-.006.656-.956 2.28-1.946 3.357m-.243 1.313c.07-.072.152-.172.212-.241.993-1.133 3.005-3.84 3.51-5.988.002-.024.01-.061.013-.085.086-1.342-.92-.676-1.775.121-2.586 2.39-5.296 7.388-4.2 7.748.11.047.709.128 2.24-1.555" opacity=".302"/><path fill="#00344A" d="M75.544 175.047c-.702.749-1.192.952-1.187.476.01-1.165 2.555-4.531 3.07-4.046.33.311-.578 2.088-1.722 3.394a4 4 0 0 0-.16.176M27.013 254.401c-.434.985-.996 2.179-1.228 2.213-.45-.536 2.821-9.234 3.546-9.405.306.333-1.058 4.241-2.141 6.783-.053.122-.115.282-.177.409M53.755 192.682c-.277.425-.761 1.134-.932 1.19-.013-.006-.016-.016-.03-.023-.08-.543 2.634-5.142 2.96-5.021.076.218-.595 1.52-1.252 2.647-.12.205-.293.499-.575.937-.049.075-.127.185-.172.27M32.922 279.896c-.517.837-.944 1.072-1.08.583-.202-.736.352-2.787 1.14-4.217.931-1.6 1.171-.935 1.21-.792.225.806-.424 3.041-1.27 4.426m-.021.677c.054-.09.12-.206.174-.295 1.43-2.577 2.13-6.202 1.162-6.06l-.01.004c-1.67.622-3.452 6.913-2.609 7.454.273.176.755-.24 1.283-1.103M93.724 141.362c-1.236 1.215-2.086 1.717-2.078 1.219.018-1.29 5.132-6.973 5.587-6.206.26.45-1.422 2.875-3.335 4.817-.058.046-.12.115-.174.17M75.412 255.229c-1.5 1.232-2.645.551-2.456-1.479.304-3.227 3.51-6.723 4.693-5.13.913 1.235-.111 4.554-1.965 6.355-.076.086-.19.187-.272.254M83.591 356.893c-2.053 1.202-3.633-1.382-2.722-4.457.91-3.074 3.5-4.135 4.536-1.836.844 1.865.106 4.826-1.52 6.099-.09.046-.198.134-.294.194" opacity=".302"/><path fill="#00344A" d="M32.918 279.894c-.517.837-.944 1.072-1.081.583-.364-1.363 1.48-5.721 2.218-5.24.49.317-.07 2.778-1.018 4.452-.032.058-.087.147-.12.205M217.106 113.964c.051.025.115.056.162.071l4.785-2.212c.771-1.675-.861-2.432-2.688-1.795-2.617.913-3.642 3.228-2.259 3.936m2.091.036c.028-.011.077-.019.105-.03.544-.168 1.897-.709 2.679-2.017-1.372.638-3.202 1.479-4.574 2.118.069.018.186.051.372.068.434.067.912.015 1.418-.139" opacity=".302"/><path fill="#00344A" d="M217.405 114.072c-.034-.009-.069-.018-.094-.03a921 921 0 0 0 4.736-2.184c-.068.136-.068.136-4.629 2.22-.003-.01-.013-.006-.013-.006" opacity=".514"/><path fill="#00344A" d="M57.709 425.112c-1.118.79-2.183-.946-1.774-2.898.193-.948.618-1.376.783-1.542 1.188-.954 2.189.717 1.936 2.539-.129.855-.476 1.57-.946 1.901m.991 4.077c.14-.088.31-.212.432-.317 4.11-3.494 3.384-13.875-1-14.434l-.065-.008-.01.003c-4.9-.185-6.534 10.181-3.296 14.035 1.103 1.324 2.576 1.596 3.94.721M112.77 294.747c-1.15.655-2.219-.328-1.695-2.185.47-1.643 2.318-2.696 2.969-1.3.362.773.162 2.435-1.151 3.414-.037.014-.08.043-.123.071M35.077 425.725c-.583.649-1.214-.102-1.23-1.446.003-.081.003-.296.03-.556.176-1.431.916-2.209 1.435-1.505.44.599.573 2.339-.177 3.428a.2.2 0 0 1-.058.079M66.199 237.682l.44 4.009.018-.04c.887-2.337.69-4.046-.458-3.969m-1.72 7.525c.109-.111.252-.28.358-.401 1.213-1.482 1.718-2.9 1.727-2.904.215-1.248-.324-2.936-.465-4.203-2.369.523-5.341 7.148-3.745 8.341.482.354 1.273.043 2.124-.833" opacity=".302"/><path fill="#00344A" d="M66.056 237.693c.032-.001.07-.016.102-.017.13 1.213.314 2.827.445 4.04-.03.068-.06.137-.08.202z"/><path fill="#00344A" d="M42.303 319.782c-2.124 2.691-3.985 2.209-4.242-1.087-.245-3.108 1.134-7.896 3.064-10.657 2.044-2.953 4.075-2.901 4.547.129.345 2.198-.225 7.03-3.16 11.33a5 5 0 0 1-.21.285M63.526 374.41c-1.664 1.321-3.19-.459-2.852-3.355.371-3.227 2.7-5.262 4.027-3.506.956 1.267.95 4.724-1.018 6.731-.05.042-.117.092-.157.13M57.713 425.111c-1.117.79-2.182-.946-1.773-2.897.364-1.776 1.65-2.416 2.369-1.19.537.911.614 2.921-.497 4.003-.03.035-.074.063-.099.084M25.29 286.079c-.41.84-.75 1.177-.866.872-.34-.897 1.22-5.315 1.82-5.142.365.106-.005 2.199-.88 4.116a2 2 0 0 1-.074.154M18.23 424.348c-.61 1.408-1.308 1.512-1.771.262-1.168-3.199.05-10.763 1.633-10.123.94.382 1.22 3.474 1.048 5.472-.158 2.288-.633 3.621-.811 4.123a4 4 0 0 1-.1.266M37.146 257.186l-.006.014c-1.16 1.948-1.694 2.056-1.94 1.802-.907-1.341 2.624-9.583 3.937-9.182.86.251-.255 4.388-1.99 7.366M13.742 294.652c-.63 2.514-.717 2.753-.755 2.858-.018-.514 1.976-8.826 2.324-9.666.03.147-.116.772-.823 3.77-.315 1.303-.583 2.372-.692 2.824-.02.064-.043.153-.054.214M34.068 237.312c-.43.87-.734 1.34-.88 1.375-.191-.185.534-2.042.81-2.682.727-1.699 1.318-2.689 1.476-2.66.227.046-.477 2.087-1.367 3.895a.4.4 0 0 0-.039.072M6.297 355.271c-.16 1.107-.238 1.251-.262 1.306-.009.004-.022-.002-.031.001-.136-.548.393-5.118.628-5.425.036.042.036.042.047.197.014.505-.094 1.888-.352 3.761-.008.037-.015.108-.03.16" opacity=".302"/></svg>