<svg xmlns="http://www.w3.org/2000/svg" width="250" height="215" fill="none"><path fill="#DBE6FA" d="m206.366 145.158-82.89-40.381c-1.264-.62-2.056-1.92-2.056-3.78l-.209-74.696 82.89 40.38.238 74.697c-.006 1.86.787 3.165 2.027 3.78"/><path fill="#BBCFEF" d="m128.712 98.687-.149-56.947c-.006-2.12 2.73-3.445 4.912-2.38l61.387 29.9c1.211.59 1.956 1.676 1.962 2.846l.161 56.631c.006 2.12-2.731 3.445-4.912 2.38l-61.74-30.065c-1.002-.49-1.621-1.39-1.621-2.366"/><path fill="#EBF2FF" d="M247.742 40.77c-1.293-.62-3.058-.53-5.007.42l-31.63 15.31c-3.875 1.88-7.004 6.43-7.004 10.186l-82.89-40.376c-.024-3.755 3.106-8.305 7.004-10.185L159.821.815c1.95-.95 3.738-1.04 5.008-.42z"/><path fill="#CBDBF4" d="M242.73 41.184c3.869-1.875 7.04-.375 7.052 3.37l.22 74.702c.012 3.745-3.141 8.305-7.004 10.18l-31.624 15.316c-3.886 1.88-7.04.375-7.052-3.371l-.22-74.701c-.012-3.745 3.123-8.3 7.004-10.18z"/><path fill="#3D4449" d="M232.179 147.637c-.667 0-1.204-.455-1.204-1.01l.03-8.001c.006-1.12-1.014-2.595-2.176-3.155l-4.501-2.18c-.572-.28-.769-.895-.435-1.375.334-.485 1.073-.645 1.645-.37l4.501 2.18c1.896.92 3.38 3.075 3.374 4.91l-.03 8.001c-.006.55-.542 1-1.204 1M240.481 143.617c-.667 0-1.204-.455-1.204-1.01l.024-8c.006-1.12-1.013-2.595-2.176-3.155l-4.501-2.18c-.578-.28-.769-.895-.441-1.375.334-.485 1.079-.645 1.64-.37l4.5 2.18c1.902.92 3.38 3.075 3.374 4.91l-.024 8c.006.55-.53 1-1.192 1"/><path fill="#fff" d="M229.494 36.07c1.967.955 1.979 2.51.006 3.47l-25.752 12.52c-1.973.96-5.162.955-7.13 0L135.994 22.7c-1.968-.955-1.997-2.5-.024-3.465l25.752-12.516c1.973-.96 5.174-.96 7.147-.01z"/><path fill="#4F91FF" d="m245.038 65.006.042 13.845-36.077 17.47-.042-13.845zM245.151 99.992l.03 10.725c.006 1.72-1.437 3.82-3.225 4.686l-29.603 14.335c-1.771.855-3.243.17-3.249-1.55l-.03-10.725zM245.09 82.496l.042 13.865-36.077 17.471-.035-13.865zM241.742 49.066c1.788-.865 3.243-.155 3.249 1.585l.03 10.695-36.077 17.47-.03-10.695c-.006-1.74 1.455-3.86 3.225-4.72z"/><path fill="#71D8F8" d="M233.084 93.7c.9-.434 1.663-.094 1.663.776.006.89-.751 1.965-1.657 2.405l-17.997 8.715c-.924.445-1.663.095-1.663-.795 0-.87.733-1.94 1.657-2.385z"/><path fill="#fff" d="M238.938 90.746c.984-.475 1.789-.095 1.789.835.006.95-.793 2.105-1.777 2.58s-1.764.085-1.77-.865c0-.93.775-2.075 1.758-2.55"/><path fill="#71D8F8" d="M233.021 76.195c.9-.435 1.663-.095 1.663.775.006.89-.751 1.965-1.657 2.405L215.03 88.09c-.924.445-1.663.095-1.663-.795 0-.87.733-1.94 1.657-2.385z"/><path fill="#fff" d="M238.876 73.24c.983-.475 1.788-.095 1.788.835.006.95-.793 2.105-1.776 2.58-.984.475-1.765.085-1.771-.865 0-.925.775-2.07 1.759-2.55"/><path fill="#E22525" d="m242.465 44.796-.501-.245c-.226-.11-.536-.095-.882.075l.501.245c.346-.17.661-.185.882-.075"/><path fill="#F04343" d="m240.209 47.06.501.245c-.221-.105-.358-.335-.358-.655 0-.66.549-1.45 1.228-1.78l-.5-.245c-.68.33-1.228 1.12-1.228 1.78.006.325.143.55.357.655"/><path fill="#FF6161" d="M241.58 44.87c-.68.33-1.228 1.12-1.228 1.78 0 .65.554.916 1.234.586s1.233-1.13 1.233-1.78c0-.66-.56-.916-1.239-.586"/><path fill="#E22525" d="m238.377 46.77-.501-.244c-.226-.11-.536-.095-.876.07l.501.245c.34-.165.65-.18.876-.07"/><path fill="#F04343" d="m236.131 49.035.501.245c-.221-.105-.358-.335-.358-.655 0-.66.549-1.45 1.228-1.78l-.501-.245c-.679.33-1.228 1.12-1.228 1.78 0 .32.138.545.358.655"/><path fill="#FF6161" d="M237.505 46.84c-.679.33-1.228 1.12-1.228 1.78 0 .65.555.915 1.234.585.674-.325 1.228-1.125 1.228-1.775 0-.66-.56-.915-1.234-.59"/><path fill="#E22525" d="m234.311 48.745-.501-.245c-.227-.11-.537-.09-.876.075l.5.245c.34-.17.65-.185.877-.075"/><path fill="#F04343" d="m232.065 51.011.5.245c-.22-.105-.357-.335-.357-.655 0-.66.548-1.45 1.228-1.78l-.501-.245c-.68.33-1.228 1.12-1.228 1.78 0 .32.137.55.358.655"/><path fill="#FF6161" d="M233.431 48.817c-.679.33-1.228 1.12-1.228 1.78 0 .65.555.915 1.234.585.68-.33 1.228-1.125 1.228-1.775-.006-.66-.554-.92-1.234-.59"/><path fill="#EBF2FF" d="M216.025 69.666c.328-.16.596-.03.596.285l.006 2.38c0 .32-.262.705-.596.865l-2.468 1.195c-.328.16-.596.03-.596-.29l-.006-2.38c0-.315.262-.7.59-.86z"/><path fill="#BBCFEF" d="M220.886 62.557c.328-.16.596-.03.596.285l.006 2.38c0 .315-.262.705-.59.86l-2.468 1.195c-.328.16-.596.03-.596-.285l-.006-2.38c0-.315.262-.705.596-.86z"/><path fill="#EBF2FF" d="M225.775 64.946c.328-.16.596-.03.596.285l.006 2.38c0 .32-.262.705-.596.865l-2.468 1.195c-.328.16-.596.03-.596-.285l-.006-2.38c0-.315.268-.7.596-.86zM225.748 60.196c.328-.16.596-.03.596.285l.006 2.38c0 .315-.263.705-.596.86l-2.468 1.195c-.328.16-.596.03-.596-.285l-.006-2.38c0-.315.268-.705.596-.865z"/><path fill="#BBCFEF" d="M230.642 62.586c.328-.16.596-.03.596.285l.006 2.38c0 .32-.268.705-.596.865l-2.468 1.195c-.328.16-.596.03-.596-.285l-.006-2.38c0-.315.262-.7.596-.86z"/><path fill="#EBF2FF" d="M230.634 57.836c.328-.16.596-.03.596.285l.006 2.38c0 .315-.268.705-.596.86l-2.468 1.195c-.327.16-.596.03-.596-.285l-.006-2.38c0-.315.263-.705.596-.865zM240.369 53.116c.328-.16.596-.03.596.285l.006 2.38c0 .315-.262.705-.596.86l-2.468 1.195c-.328.16-.596.03-.596-.285l-.006-2.38c0-.316.262-.706.596-.86z"/><path fill="#BBCFEF" d="M235.502 55.475c.327-.16.596-.03.596.285l.006 2.38c0 .315-.263.705-.597.865L233.04 60.2c-.328.16-.597.03-.597-.285l-.005-2.38c0-.315.268-.705.596-.865z"/><path fill="#EBF2FF" d="M216.181 120.967c.328-.16.596-.03.596.285l.006 2.38c0 .32-.262.705-.596.865l-2.468 1.195c-.328.16-.596.03-.596-.29l-.006-2.38c0-.315.262-.7.59-.86zM216.162 116.213c.328-.16.596-.03.596.285l.006 2.38c0 .315-.263.705-.596.865l-2.468 1.195c-.328.16-.596.03-.596-.285l-.006-2.38c0-.315.262-.705.59-.86zM221.05 118.604c.328-.16.596-.03.596.285l.006 2.38c0 .32-.262.705-.59.865l-2.468 1.195c-.328.16-.596.03-.596-.285l-.006-2.38c0-.315.262-.7.596-.86zM225.923 116.248c.328-.16.597-.03.597.285l.005 2.38c0 .32-.262.705-.596.865l-2.468 1.195c-.327.16-.596.03-.596-.285l-.006-2.38c0-.315.269-.7.596-.86zM225.908 111.492c.328-.16.596-.03.596.285l.006 2.38c0 .315-.262.705-.596.86l-2.468 1.196c-.328.16-.596.03-.596-.285l-.006-2.381c0-.315.268-.705.596-.865zM230.783 109.131c.328-.16.596-.03.596.285l.006 2.38c0 .315-.268.705-.596.86l-2.468 1.195c-.328.16-.596.03-.596-.285l-.006-2.38c0-.315.262-.705.596-.865zM235.673 111.526c.328-.16.597-.03.597.285l.005 2.38c0 .32-.262.705-.596.865l-2.468 1.195c-.327.16-.596.03-.596-.285l-.006-2.38c0-.315.269-.705.596-.86zM240.525 104.412c.328-.16.596-.03.596.285l.006 2.38c0 .315-.262.705-.596.86l-2.468 1.195c-.328.16-.596.03-.596-.285l-.006-2.38c0-.315.262-.705.596-.86z"/><path fill="#BBCFEF" d="M235.658 106.772c.328-.16.596-.03.596.285l.006 2.38c0 .315-.262.705-.596.865l-2.468 1.195c-.328.16-.596.03-.596-.285l-.006-2.38c0-.315.268-.705.596-.865z"/><path fill="#DBE6FA" d="m145.753 174.51-82.89-40.381c-1.264-.62-2.057-1.92-2.057-3.78l-.208-74.697 82.889 40.381.239 74.697c-.006 1.855.787 3.16 2.027 3.78"/><path fill="#BBCFEF" d="m68.102 128.038-.149-56.946c-.006-2.12 2.73-3.445 4.912-2.38l61.388 29.9c1.21.59 1.955 1.676 1.961 2.846l.161 56.631c.006 2.12-2.73 3.445-4.912 2.38L69.73 130.398c-1.008-.49-1.628-1.39-1.628-2.36"/><path fill="#EBF2FF" d="M187.129 70.123c-1.293-.62-3.058-.53-5.007.42l-31.63 15.31c-3.875 1.88-7.004 6.43-7.004 10.185l-82.89-40.38c-.024-3.755 3.106-8.306 7.004-10.186l31.606-15.31c1.949-.95 3.738-1.04 5.008-.42z"/><path fill="#CBDBF4" d="M182.12 70.538c3.869-1.875 7.041-.375 7.053 3.37l.22 74.701c.012 3.746-3.141 8.306-7.004 10.181l-31.624 15.315c-3.887 1.88-7.04.375-7.052-3.37l-.221-74.702c-.012-3.745 3.124-8.3 7.005-10.18z"/><path fill="#3D4449" d="M171.567 176.985c-.667 0-1.204-.455-1.204-1.01l.024-8c.006-1.12-1.014-2.595-2.176-3.155l-4.501-2.18c-.578-.28-.769-.895-.441-1.375.334-.48 1.079-.645 1.64-.37l4.5 2.18c1.902.92 3.38 3.075 3.374 4.91l-.024 8c.012.55-.524 1-1.192 1M179.871 172.965c-.668 0-1.205-.455-1.205-1.01l.03-8.001c.006-1.12-1.013-2.59-2.176-3.155l-4.5-2.18c-.573-.28-.769-.895-.435-1.375.333-.485 1.073-.645 1.645-.37l4.501 2.18c1.895.92 3.38 3.075 3.374 4.91l-.03 8.001c-.006.55-.543 1-1.204 1"/><path fill="#fff" d="M168.887 65.423c1.967.955 1.979 2.51.006 3.47l-25.758 12.52c-1.973.96-5.163.955-7.13 0L75.38 52.053c-1.967-.956-1.997-2.5-.024-3.466l25.759-12.52c1.973-.96 5.174-.96 7.147-.01z"/><path fill="#4F91FF" d="m184.438 94.352.042 13.845-36.077 17.47-.036-13.845zM184.546 129.338l.029 10.725c.006 1.72-1.436 3.82-3.225 4.685l-29.603 14.336c-1.77.855-3.242.17-3.248-1.551l-.03-10.725zM184.485 111.848l.042 13.86-36.077 17.47-.036-13.86zM181.148 78.411c1.789-.865 3.243-.155 3.249 1.585l.03 10.696-36.077 17.47-.03-10.695c-.006-1.74 1.455-3.86 3.225-4.72z"/><path fill="#71D8F8" d="M172.482 123.046c.9-.435 1.663-.095 1.663.775.006.89-.751 1.965-1.657 2.405l-17.997 8.716c-.924.445-1.663.095-1.663-.795 0-.87.733-1.94 1.657-2.385z"/><path fill="#fff" d="M178.337 120.092c.983-.475 1.788-.095 1.788.835.006.95-.793 2.105-1.776 2.58-.984.475-1.765.085-1.771-.865-.006-.925.769-2.075 1.759-2.55"/><path fill="#71D8F8" d="M172.423 105.546c.901-.435 1.664-.095 1.664.775.006.89-.751 1.965-1.658 2.405l-17.996 8.716c-.924.445-1.663.095-1.663-.795 0-.87.733-1.94 1.657-2.385z"/><path fill="#fff" d="M178.282 102.592c.984-.475 1.788-.095 1.788.835.006.95-.793 2.105-1.776 2.58-.984.475-1.765.085-1.771-.865 0-.93.775-2.075 1.759-2.55"/><path fill="#E22525" d="m181.867 74.141-.5-.245c-.227-.11-.537-.095-.883.075l.501.245c.34-.165.656-.185.882-.075"/><path fill="#F04343" d="m179.615 76.412.501.245c-.22-.105-.357-.335-.357-.655 0-.66.548-1.45 1.228-1.78l-.501-.245c-.68.33-1.228 1.12-1.228 1.78 0 .32.137.545.357.655"/><path fill="#FF6161" d="M180.978 74.216c-.68.33-1.228 1.12-1.228 1.78 0 .65.554.915 1.234.585s1.234-1.13 1.234-1.78c0-.66-.56-.915-1.24-.585"/><path fill="#E22525" d="m177.787 76.116-.501-.245c-.226-.11-.536-.095-.876.07l.501.245c.34-.165.65-.18.876-.07"/><path fill="#F04343" d="m175.537 78.382.501.245c-.22-.105-.358-.335-.358-.655 0-.66.549-1.45 1.228-1.78l-.5-.245c-.68.33-1.228 1.12-1.228 1.78.006.32.137.55.357.655"/><path fill="#FF6161" d="M176.908 76.188c-.68.33-1.228 1.12-1.228 1.78 0 .65.554.915 1.234.585.673-.325 1.228-1.125 1.228-1.775 0-.66-.561-.915-1.234-.59"/><path fill="#E22525" d="m173.705 78.091-.501-.245c-.226-.11-.536-.09-.876.075l.501.245c.34-.17.65-.185.876-.075"/><path fill="#F04343" d="m171.459 80.355.501.245c-.221-.105-.358-.335-.358-.655 0-.66.549-1.45 1.228-1.78l-.5-.245c-.68.33-1.228 1.12-1.228 1.78 0 .32.137.55.357.655"/><path fill="#FF6161" d="M172.83 78.165c-.68.33-1.228 1.12-1.228 1.78 0 .65.554.915 1.234.585s1.228-1.125 1.228-1.775c-.006-.665-.555-.92-1.234-.59"/><path fill="#EBF2FF" d="M155.431 99.018c.328-.16.596-.03.596.285l.006 2.38c0 .32-.262.705-.596.865l-2.468 1.195c-.328.16-.596.03-.596-.29l-.006-2.38c0-.315.262-.7.59-.86z"/><path fill="#BBCFEF" d="M160.285 91.903c.327-.16.596-.03.596.285l.006 2.38c0 .315-.263.705-.59.86l-2.468 1.195c-.328.16-.596.03-.596-.285l-.006-2.38c0-.315.262-.705.596-.86z"/><path fill="#EBF2FF" d="M165.181 94.295c.328-.16.596-.03.596.285l.006 2.38c0 .32-.262.705-.596.865l-2.468 1.195c-.328.16-.596.03-.596-.285l-.006-2.38c0-.315.268-.7.596-.86zM165.162 89.541c.328-.16.596-.03.596.285l.006 2.38c0 .315-.263.705-.596.86l-2.468 1.195c-.328.16-.596.03-.596-.285l-.006-2.38c0-.315.268-.705.596-.865z"/><path fill="#BBCFEF" d="M170.041 91.936c.327-.16.596-.03.596.285l.006 2.38c0 .32-.269.705-.596.865l-2.468 1.195c-.328.16-.596.03-.596-.285l-.006-2.38c0-.315.262-.7.596-.86z"/><path fill="#EBF2FF" d="M170.029 87.182c.328-.16.596-.03.596.285l.006 2.38c0 .315-.268.705-.596.86l-2.468 1.195c-.328.16-.596.03-.596-.285l-.006-2.38c0-.315.262-.705.596-.865zM179.775 82.461c.328-.16.596-.03.596.285l.006 2.38c0 .315-.262.705-.596.86l-2.468 1.195c-.328.16-.596.03-.596-.285l-.006-2.38c0-.315.262-.705.596-.86z"/><path fill="#BBCFEF" d="M174.904 84.823c.328-.16.596-.03.596.285l.006 2.38c0 .315-.262.705-.596.865l-2.468 1.195c-.328.16-.596.03-.596-.285l-.006-2.38c0-.316.268-.706.596-.865z"/><path fill="#EBF2FF" d="M155.584 150.311c.327-.16.596-.03.596.285l.006 2.38c0 .32-.263.705-.596.865l-2.468 1.195c-.328.16-.597.03-.597-.29l-.005-2.38c0-.315.262-.7.59-.86zM155.568 145.557c.328-.16.596-.03.596.285l.006 2.38c0 .315-.262.705-.596.865l-2.468 1.195c-.328.16-.596.03-.596-.285l-.006-2.38c0-.315.262-.705.59-.86zM160.453 147.951c.327-.16.596-.03.596.285l.006 2.38c0 .32-.263.705-.59.865l-2.468 1.196c-.328.16-.597.03-.597-.285l-.005-2.381c0-.315.262-.7.596-.86zM165.326 145.592c.328-.16.596-.03.596.285l.006 2.38c0 .32-.262.705-.596.865l-2.468 1.195c-.328.16-.596.03-.596-.285l-.006-2.38c0-.315.268-.7.596-.86zM165.31 140.838c.328-.16.596-.03.596.285l.006 2.38c0 .315-.262.705-.596.86l-2.468 1.195c-.328.16-.596.03-.596-.285l-.006-2.38c0-.315.268-.705.596-.865zM170.181 138.477c.328-.16.596-.03.596.285l.006 2.38c0 .315-.268.705-.596.86l-2.468 1.195c-.328.16-.596.03-.596-.285l-.006-2.38c0-.315.262-.705.596-.865zM175.072 140.871c.328-.16.596-.03.596.285l.006 2.38c0 .32-.262.705-.596.865l-2.468 1.195c-.328.16-.596.03-.596-.285l-.006-2.38c0-.315.268-.705.596-.86zM179.935 133.762c.328-.16.596-.03.596.285l.006 2.38c0 .315-.262.705-.596.86l-2.468 1.195c-.328.16-.596.03-.596-.285l-.006-2.38c0-.315.262-.705.596-.86z"/><path fill="#BBCFEF" d="M175.056 136.121c.328-.16.596-.03.596.285l.006 2.38c0 .315-.262.705-.596.865l-2.468 1.195c-.328.16-.596.03-.596-.285l-.006-2.38c0-.315.268-.705.596-.865z"/><path fill="#DBE6FA" d="m25.501 183.274-9.996-5.24-5.938 2.085c-.47.165-1.02-.02-1.222-.42-.196-.4.024-.86.501-1.025l6.384-2.24c.275-.095.596-.075.853.06l9.985 5.235 11.028-4.07c.477-.175 1.02.005 1.228.4.209.395-.006.86-.477 1.035l-11.481 4.235c-.274.1-.596.085-.865-.055M14.739 198.361c-.239-.385-.06-.855.399-1.055l14.95-6.486q.25-.111.537-.08l10.307.99 10.771-6.055c.43-.24 1.008-.145 1.3.215.286.36.173.845-.256 1.085l-11.058 6.216a1.13 1.13 0 0 1-.626.129l-10.367-1.005-14.7 6.381c-.47.2-1.031.04-1.258-.335M45.14 213.885c-.257-.375-.102-.855.345-1.07l12.596-6.025-8.876-4.35c-.602-.3-.614-1.03-.024-1.34l19.165-10.086c.435-.225 1.013-.12 1.288.245.274.365.143.851-.298 1.081l-17.854 9.4 8.942 4.38c.614.305.62 1.06-.006 1.36l-14.003 6.7c-.441.21-1.02.085-1.276-.295"/><path fill="#FF6161" d="M8.96 180.695c-.918.44-2.402.44-3.326 0-.918-.44-.918-1.18 0-1.625.942-.44 2.42-.44 3.344 0 .9.44.9 1.185-.018 1.625"/><path fill="#4F575F" d="M47.444 214.645c-.984.475-2.576.475-3.565 0-.978-.475-.966-1.25.018-1.73.983-.475 2.575-.475 3.553 0 .983.48.983 1.255-.006 1.73"/><path fill="#4F91FF" d="M16.61 199.585c-1.122.54-2.928.54-4.048 0-1.11-.54-1.103-1.425.017-1.965 1.121-.54 2.927-.54 4.042 0 1.109.54 1.109 1.425-.012 1.965"/><path fill="#DBE6FA" d="m85.155 203.854-82.89-40.38c-1.264-.62-2.056-1.92-2.056-3.78L0 85.002l82.89 40.381.238 74.696c0 1.855.787 3.155 2.027 3.775"/><path fill="#BBCFEF" d="m7.508 157.384-.149-56.946c-.006-2.12 2.73-3.445 4.912-2.38l61.388 29.9c1.21.59 1.956 1.675 1.962 2.845l.16 56.631c.006 2.12-2.73 3.446-4.912 2.38l-61.733-30.07c-1.008-.485-1.628-1.385-1.628-2.36"/><path fill="#EBF2FF" d="M126.532 99.467c-1.294-.62-3.059-.53-5.008.42l-31.63 15.31c-3.875 1.88-7.004 6.43-7.004 10.185L0 85.002c-.024-3.756 3.106-8.306 7.004-10.186l31.607-15.31c1.949-.95 3.737-1.04 5.007-.42z"/><path fill="#CBDBF4" d="M121.521 99.882c3.869-1.876 7.04-.375 7.052 3.37l.22 74.701c.012 3.745-3.141 8.305-7.004 10.18l-31.618 15.311c-3.887 1.88-7.04.375-7.052-3.37l-.22-74.702c-.013-3.745 3.123-8.3 7.004-10.18z"/><path fill="#3D4449" d="M110.966 206.334c-.668 0-1.205-.455-1.205-1.01l.024-8c.006-1.12-1.013-2.595-2.176-3.155l-4.5-2.18c-.578-.28-.769-.895-.441-1.375.333-.48 1.079-.64 1.639-.37l4.501 2.18c1.901.92 3.38 3.075 3.374 4.91l-.024 8c.012.55-.531 1-1.192 1M119.278 202.309c-.668 0-1.204-.455-1.204-1.01l.024-8c.006-1.12-1.014-2.595-2.176-3.155l-4.501-2.18c-.578-.28-.769-.895-.441-1.375.334-.48 1.079-.645 1.639-.37l4.501 2.18c1.902.92 3.38 3.075 3.374 4.91l-.024 8c.006.555-.53 1-1.192 1"/><path fill="#fff" d="M108.293 94.766c1.967.955 1.979 2.51.006 3.47l-25.758 12.521c-1.973.96-5.162.955-7.13 0l-60.624-29.36c-1.968-.956-1.998-2.501-.024-3.466l25.758-12.52c1.973-.96 5.174-.96 7.147-.01z"/><path fill="#4F91FF" d="m123.837 123.697.041 13.846-36.077 17.47-.035-13.845zM123.952 158.689l.03 10.726c.006 1.72-1.437 3.82-3.225 4.685l-29.603 14.335c-1.77.855-3.243.17-3.25-1.55l-.029-10.725zM123.897 141.193l.036 13.861-36.077 17.47-.036-13.86zM120.547 107.757c1.788-.865 3.243-.155 3.249 1.585l.029 10.695-36.076 17.471-.03-10.695c-.006-1.74 1.454-3.861 3.225-4.721z"/><path fill="#71D8F8" d="M111.88 152.392c.901-.435 1.664-.095 1.664.775.006.89-.751 1.965-1.658 2.405l-17.996 8.715c-.924.445-1.663.095-1.663-.795 0-.87.733-1.94 1.657-2.385z"/><path fill="#fff" d="M117.739 149.437c.984-.475 1.788-.095 1.788.835.006.95-.792 2.105-1.776 2.58s-1.765.085-1.77-.865c-.006-.925.774-2.07 1.758-2.55"/><path fill="#71D8F8" d="M111.826 134.892c.9-.435 1.663-.095 1.663.775.006.89-.751 1.965-1.657 2.405l-17.997 8.715c-.924.445-1.663.095-1.663-.795 0-.87.733-1.94 1.657-2.385z"/><path fill="#fff" d="M117.68 131.937c.984-.475 1.789-.095 1.789.835.006.95-.793 2.105-1.777 2.58s-1.764.085-1.77-.865c0-.925.775-2.075 1.758-2.55"/><path fill="#E22525" d="m121.266 103.485-.501-.245c-.226-.11-.536-.095-.882.075l.501.245c.339-.165.655-.185.882-.075"/><path fill="#F04343" d="m119.013 105.756.501.245c-.811-.395-.161-1.94.87-2.44l-.501-.245c-1.049.51-1.663 2.055-.87 2.44"/><path fill="#FF6161" d="M120.38 103.56c-.679.33-1.228 1.12-1.228 1.78 0 .65.555.915 1.234.585.68-.33 1.234-1.13 1.234-1.78 0-.66-.56-.915-1.24-.585"/><path fill="#E22525" d="m117.186 105.46-.501-.245c-.227-.11-.537-.095-.876.07l.5.245c.34-.16.65-.18.877-.07"/><path fill="#F04343" d="m114.94 107.724.5.245c-.22-.105-.357-.335-.357-.655 0-.66.548-1.45 1.228-1.78l-.501-.245c-.68.33-1.228 1.12-1.228 1.78.006.325.137.55.358.655"/><path fill="#FF6161" d="M116.306 105.534c-.679.33-1.228 1.12-1.228 1.78 0 .65.555.916 1.234.585.674-.325 1.228-1.125 1.228-1.775 0-.665-.56-.92-1.234-.59"/><path fill="#E22525" d="m113.104 107.437-.501-.245c-.227-.11-.537-.09-.876.075l.5.245c.34-.165.65-.185.877-.075"/><path fill="#F04343" d="m110.858 109.707.5.245c-.22-.105-.357-.335-.357-.655 0-.66.548-1.45 1.228-1.781l-.501-.245c-.68.33-1.228 1.121-1.228 1.781 0 .32.137.545.358.655"/><path fill="#FF6161" d="M112.232 107.512c-.68.33-1.228 1.12-1.228 1.78 0 .65.554.915 1.234.585s1.228-1.125 1.228-1.775c-.006-.66-.555-.92-1.234-.59"/><path fill="#304CCF" d="M24.759 153.058v-39.106c.024-.46.167-.855.37-1.185-.782-.24-1.485-.24-2.01.04-.661.315-1.228 1.03-1.275 2.02v39.106c0 4.025 5.824 7.81 7.302 4.795-2.426-.81-4.387-3.515-4.387-5.67M40.634 160.798v-39.106c.024-.46.167-.855.37-1.185-.782-.24-1.485-.24-2.01.04-.661.315-1.228 1.03-1.275 2.02v39.106c0 4.025 5.824 7.81 7.302 4.795-.203-.065-.4-.14-.608-.24-2.08-.995-3.78-3.41-3.78-5.43M56.499 168.533v-39.106c.024-.46.167-.855.37-1.185-.781-.24-1.485-.24-2.004.04-.661.315-1.227 1.03-1.275 2.02v39.106c0 4.02 5.818 7.82 7.302 4.795-2.438-.81-4.393-3.52-4.393-5.67"/><path fill="#4F91FF" d="M29.545 118.472c0-1.98-1.652-4.44-3.78-5.47a5 5 0 0 0-.638-.24 2.5 2.5 0 0 0-.37 1.185v39.106c0 2.15 1.956 4.86 4.394 5.67.483-.98.15.64.394-40.251M45.42 126.213c0-1.98-1.652-4.44-3.78-5.47-.22-.1-.429-.175-.638-.235a2.5 2.5 0 0 0-.37 1.185v39.106c0 2.155 1.962 4.86 4.394 5.67.161-.32.256-.7.256-1.15zM61.287 133.947c0-1.98-1.651-4.44-3.78-5.47-.22-.1-.429-.175-.637-.235-.203.33-.346.72-.37 1.185v39.106c0 2.15 1.95 4.86 4.393 5.67.155-.32.257-.7.257-1.15z"/><path fill="#EBF2FF" d="M94.826 128.364c.328-.16.596-.03.596.285l.006 2.38c0 .32-.263.705-.596.865l-2.468 1.195c-.328.16-.596.03-.596-.29l-.006-2.38c0-.315.262-.7.59-.86z"/><path fill="#BBCFEF" d="M99.683 121.248c.328-.16.596-.03.596.285l.006 2.38c0 .315-.262.705-.59.86l-2.468 1.195c-.328.16-.596.03-.596-.285l-.006-2.38c0-.315.262-.705.596-.86z"/><path fill="#EBF2FF" d="M104.572 123.643c.328-.16.596-.03.596.285l.006 2.38c0 .32-.262.705-.596.865l-2.468 1.195c-.328.16-.596.03-.596-.285l-.006-2.38c0-.315.268-.7.596-.86zM104.556 118.893c.328-.16.596-.03.596.285l.006 2.38c0 .315-.262.705-.596.86l-2.468 1.195c-.328.16-.596.03-.596-.285l-.006-2.38c0-.315.268-.705.596-.865z"/><path fill="#BBCFEF" d="M109.439 121.283c.328-.16.596-.03.596.285l.006 2.38c0 .32-.268.706-.596.866l-2.468 1.195c-.328.16-.596.03-.596-.285l-.006-2.381c0-.315.262-.7.596-.86z"/><path fill="#EBF2FF" d="M109.431 116.533c.328-.16.596-.03.596.285l.006 2.38c0 .315-.268.706-.596.861l-2.468 1.195c-.328.16-.596.03-.596-.285l-.006-2.381c0-.315.262-.705.596-.865zM119.173 111.813c.328-.16.597-.03.597.285l.005 2.38c0 .315-.262.705-.596.86l-2.468 1.195c-.327.16-.596.03-.596-.285l-.006-2.38c0-.315.263-.705.596-.86z"/><path fill="#BBCFEF" d="M114.298 114.172c.328-.16.597-.03.597.285l.005 2.38c0 .315-.262.705-.596.865l-2.468 1.195c-.327.16-.596.03-.596-.285l-.006-2.38c0-.315.269-.705.596-.865z"/><path fill="#EBF2FF" d="M94.978 179.658c.328-.16.596-.03.596.285l.006 2.38c0 .32-.262.706-.596.866l-2.468 1.195c-.328.16-.596.03-.596-.29l-.006-2.381c0-.315.262-.7.59-.86zM94.963 174.906c.327-.16.596-.03.596.285l.005 2.381c0 .315-.262.705-.596.865l-2.468 1.195c-.327.16-.596.03-.596-.285l-.006-2.38c0-.315.263-.705.59-.86zM99.855 177.297c.328-.16.596-.03.596.285l.006 2.38c0 .32-.262.705-.59.865l-2.468 1.195c-.328.16-.596.03-.596-.285l-.006-2.38c0-.315.262-.7.596-.86zM104.724 174.938c.328-.16.596-.03.596.285l.006 2.38c0 .32-.262.705-.596.865l-2.468 1.195c-.328.16-.596.03-.596-.285l-.006-2.38c0-.315.268-.7.596-.86zM104.705 170.188c.328-.16.596-.03.596.285l.006 2.38c0 .315-.263.705-.596.86l-2.468 1.195c-.328.16-.596.03-.596-.285l-.006-2.38c0-.315.268-.705.596-.865zM109.587 167.826c.328-.16.597-.03.597.285l.006 2.38c0 .315-.269.705-.597.86l-2.467 1.196c-.328.16-.597.03-.597-.285l-.006-2.381c0-.315.263-.705.597-.865zM114.47 170.217c.328-.16.596-.03.596.285l.006 2.38c0 .32-.262.705-.596.865l-2.468 1.195c-.328.16-.596.03-.596-.285l-.006-2.38c0-.315.269-.705.596-.86zM119.33 163.108c.328-.16.596-.03.596.285l.006 2.38c0 .315-.263.705-.596.86l-2.468 1.195c-.328.16-.596.03-.596-.285l-.006-2.38c0-.315.262-.705.596-.86z"/><path fill="#BBCFEF" d="M114.455 165.467c.328-.16.596-.03.596.285l.006 2.38c0 .315-.263.705-.596.865l-2.468 1.195c-.328.16-.596.03-.596-.285l-.006-2.38c0-.315.268-.705.596-.865z"/><path fill="#4F575F" d="M63.903 77.576 41.93 88.286l-1.86-.9 21.973-10.71zM51.711 71.676 29.74 82.386l-1.848-.894 21.972-10.71zM57.805 74.627l-21.973 10.71-1.848-.894 21.973-10.71zM45.618 68.721l-21.973 10.71-1.848-.89L43.77 67.826zM125.149 47.77l-21.973 10.71-1.86-.9 21.973-10.71zM112.957 41.865 90.985 52.58l-1.848-.895 21.973-10.71zM119.059 44.819l-21.973 10.71-1.848-.895 21.973-10.71zM106.868 38.915l-21.973 10.71-1.848-.895 21.973-10.71zM185.036 18.478l-21.973 10.71-1.86-.9 21.973-10.71zM172.844 12.576 150.871 23.29l-1.848-.895 21.973-10.71zM178.938 15.53l-21.973 10.71-1.848-.895 21.973-10.71zM166.743 9.624l-21.973 10.71-1.848-.895 21.973-10.71z"/></svg>