<svg xmlns="http://www.w3.org/2000/svg" width="250" height="215" fill="none"><path fill="url(#a)" d="m99.183 149.882 47.165-27.344c.81-.405 2.024-.405 2.834 0l59.715 33.623c.809.405.809 1.215 0 1.62l-47.165 27.343c-.81.405-2.024.405-2.834 0l-59.715-33.622c-.81-.405-.81-1.013 0-1.62"/><path fill="url(#b)" d="m98.576 151.299.405.405 59.715 33.622c.202.203.405.203.607.203h1.417c.202 0 .405-.203.607-.203l47.57-27.343c.405-.203.607-.608.607-.81v2.633c0 .405-.202.608-.607.81l-47.165 27.344s-.202 0-.202.202h-2.025c-.202 0-.404-.202-.404-.202l-59.715-33.623-.203-.202-.202-.203v-3.241c-.405.203-.405.405-.405.608"/><path fill="url(#c)" d="m114.769 148.667.203.202 8.097 4.659c.202 0 .202.203.405.203h.809c.203 0 .203 0 .405-.203l27.935-16.204c.202-.202.404-.405.404-.607v1.62c0 .203-.202.405-.404.608l-27.935 16.203h-1.619s-.203 0-.203-.202l-8.097-4.659s-.202 0-.202-.202v-1.621c.202 0 .202.203.202.203" opacity=".2"/><path fill="url(#d)" d="m114.971 146.439 27.935-16.203c.405-.203 1.214-.203 1.619 0l8.097 4.658c.405.203.405.811 0 1.013l-27.934 16.204c-.405.202-1.215.202-1.62 0l-8.097-4.659c-.404-.202-.404-.81 0-1.013"/><path fill="url(#e)" d="m114.769 147.251.203.202 8.097 4.659c.202 0 .202.202.405.202h.809c.203 0 .203 0 .405-.202l27.935-16.204c.202-.202.404-.405.404-.607v1.62c0 .203-.202.405-.404.608l-27.935 16.203h-1.619s-.203 0-.203-.202l-8.097-4.659s-.202 0-.202-.202v-1.621c.202 0 .202 0 .202.203"/><path fill="url(#f)" d="m118.82 146.642.202.202 3.644 2.025c.202 0 .202.203.405.203h.809c.203 0 .203 0 .405-.203l23.279-13.57c.202-.202.405-.405.405-.608v1.418c0 .203-.203.405-.405.608l-23.279 13.57h-1.619s-.203 0-.203-.202l-3.643-2.026s-.203 0-.203-.202v-1.418c.203 0 .203 0 .203.203" opacity=".2"/><path fill="url(#g)" d="m143.312 130.641 2.227 1.215v3.241l-2.227-1.418-21.861 12.76v-3.241z"/><path fill="url(#h)" d="m119.022 142.793 23.279-13.571c.404-.202 1.214-.202 1.619 0l3.644 2.026c.404.202.404.81 0 1.012l-23.279 13.571c-.405.202-1.215.202-1.62 0l-3.643-2.026c-.405-.405-.405-.81 0-1.012m4.656 1.62 21.861-12.558-2.226-1.215-21.862 12.558z"/><path fill="url(#i)" d="m118.82 143.399.202.203 3.644 2.025c.202 0 .202.203.405.203h.809c.203 0 .203 0 .405-.203l23.279-13.57c.202-.203.405-.405.405-.608v3.241c0 .202-.203.405-.405.608l-23.279 13.57h-1.619s-.203 0-.203-.203l-3.643-2.025s-.203 0-.203-.203v-3.24z"/><path fill="url(#j)" d="M123.679 142.388c.404-.202 1.214-.202 1.619 0 .405.203.405.608 0 1.013-.405.203-1.215.203-1.619 0-.405-.405-.405-.81 0-1.013"/><path fill="url(#k)" d="M128.132 139.755c.405-.202 1.214-.202 1.619 0 .405.203.405.608 0 1.013-.405.203-1.214.203-1.619 0-.405-.405-.405-.81 0-1.013"/><path fill="url(#l)" d="M132.585 137.123c.405-.203 1.214-.203 1.619 0 .405.202.405.607 0 1.012-.405.203-1.214.203-1.619 0-.405-.202-.405-.81 0-1.012"/><path fill="url(#m)" d="M137.038 134.49c.405-.203 1.214-.203 1.619 0 .405.202.405.607 0 1.013-.405.202-1.214.202-1.619 0-.405-.203-.405-.608 0-1.013"/><path fill="url(#n)" d="M141.491 132.058c.405-.202 1.215-.202 1.619 0 .405.203.405.608 0 1.013-.404.202-1.214.202-1.619 0-.405-.405-.405-.81 0-1.013"/><path fill="url(#o)" d="M152.219 51.243v-3.038c0-4.659-1.62-7.9-4.251-9.52L117.2 20.861c2.631 1.62 4.25 4.861 4.25 9.52v2.228c0 .405 0 .608-.202 1.013 0 .405-.202.81-.202 1.215 0 .202 0 .607-.203.81 0 .203-.202.405-.202.81s-.203.608-.203 1.013c0 .203-.202.405-.202.608-.203.405-.203.81-.405 1.215 0 .202-.202.405-.202.405-.203.608-.405 1.013-.608 1.62v.203c-.202.405-.405 1.013-.607 1.418 0 .202-.202.202-.202.405-.203.405-.405.81-.81 1.417 0 0 0 .203-.202.203-.203.608-.608 1.013-1.013 1.418 0 .202-.202.202-.202.405-.202.405-.405.608-.81 1.013-.202.202-.202.405-.405.607-.202.203-.404.608-.607.81l-.607.608-.607.608-1.013 1.013-.607.607-.405.405c-.202.203-.607.405-.809.81-.203.203-.405.203-.405.405-.203.203-.607.406-1.012.608l-.405.405c-.405.405-1.012.608-1.417.81l-71.05 41.117q-.608.303-1.215.608c-.203 0-.203.202-.405.202-.405.203-.607.405-1.012.405-.203 0-.203.203-.405.203-.202.202-.607.202-.81.405h-.202c-.405.202-.81.202-1.012.405h-.203c-.607.202-1.214.202-1.62.405-.404 0-1.011.203-1.416.203h-1.619c-.405 0-.608 0-1.012-.203h-.203c-.405 0-.607-.203-1.012-.203s-.607-.202-1.012-.405c0 0-.203 0-.203-.202-.202-.203-.607-.203-.81-.405 0 0-.202 0-.202-.203l30.769 17.824h.405c.202.203.404.203.81.405h.404c.405.203.607.203 1.012.405.405 0 .607.203 1.012.203h.405c.405 0 .607 0 1.012.202h1.822c.405 0 .81 0 1.417-.202.607 0 1.215-.203 1.62-.405.404 0 .81-.203 1.012-.405h.202c.202-.203.607-.203.81-.406h.202s.203 0 .203-.202c.404-.203.607-.203 1.012-.405.202 0 .202-.203.404-.203l1.215-.607 70.646-40.307c.405-.202 1.012-.607 1.417-.81l.404-.405c.405-.203.608-.405 1.013-.608.202-.202.404-.202.404-.405.203-.202.608-.405.81-.81.203-.202.405-.202.405-.405l.202-.202.405-.406 1.012-1.012c0-.203.203-.203.405-.405 0 0 .203-.203.203-.405l.607-.608.405-.405c0-.203.202-.203.202-.405.203-.203.203-.405.405-.608 0-.202.202-.202.202-.405.203-.203.203-.405.405-.608 0-.202.203-.202.203-.405 0 0 0-.202.202-.202.203-.405.607-.81.81-1.216 0 0 0-.202.202-.202.203-.203.405-.608.405-.81s.203-.203.203-.405c0-.203.202-.203.202-.405 0-.203.202-.203.202-.405.203-.406.405-.608.405-1.013v-.203c.203-.405.405-.81.608-1.417v-.203c0-.203.202-.405.202-.405 0-.203.202-.405.202-.608s0-.405.203-.405c0-.202.202-.405.202-.608s0-.202.203-.405c0-.202.202-.405.202-.607 0-.203.202-.405.202-.81v-.811c0-.405.203-.81.203-1.215.405-.607.405-.81.405-.81"/><path fill="url(#p)" d="M144.729 35.242h2.429c.203 0 .405 0 .608.203h.404c.203 0 .405.203.608.203s.202 0 .405.202c.202 0 .404.203.607.203 0 0 .202 0 .202.202l-30.768-17.824s-.203 0-.203-.202c-.202 0-.404-.203-.607-.203h-.202c-.203 0-.405-.202-.608-.202h-.404c-.203 0-.405 0-.608-.203h-2.429c-.405 0-.809 0-1.214.203-.203 0-.405 0-.81.202l30.768 17.824c.203 0 .608-.203.81-.203.405-.405.607-.405 1.012-.405"/><path fill="url(#q)" d="M141.488 32.408V30.18c0-3.848-1.417-6.481-3.643-7.9L107.076 4.458c2.227 1.215 3.644 4.05 3.644 7.9v2.43c0 .607-.202 1.012-.202 1.62-.203.405-.203 1.013-.405 1.418l-.81 3.038 30.566 17.824.81-3.038c.202-.405.202-1.013.404-1.418.203-.608.203-1.013.405-1.823q-.303.305 0 0"/><path fill="url(#r)" d="M130.963 19.848c.405-.202.81-.405 1.215-.405.404-.202.607-.202 1.012-.202.202 0 .405 0 .607-.203.202 0 .607 0 .81-.202h1.619c.405 0 .81 0 1.012.202h.203c.202 0 .607.203.809.203h.203c.405.202.607.202 1.012.405L108.697 1.822c-.203-.203-.405-.203-.81-.405h-.405c-.202 0-.202 0-.405-.203h-.81c-.202 0-.607 0-.809-.202h-2.227c-.202 0-.405 0-.607.202h-.405c-.202 0-.405.203-.81.203-.202 0-.607.202-.809.405-.203 0-.203.202-.405.202-.203 0-.203.203-.405.203-.405.203-.81.405-1.417.608a19.8 19.8 0 0 0-4.251 3.24L124.89 23.9c1.417-1.215 2.834-2.228 4.251-3.24.405-.203.81-.406 1.417-.608.203-.203.203-.203.405-.203"/><path fill="url(#s)" d="M123.273 26.33c-1.214-1.418-2.429-2.43-4.048-3.24L88.456 5.265c1.417.81 2.834 2.025 4.049 3.24l1.012 1.013 30.768 17.824z"/><path fill="url(#t)" d="M101.412 20.457c.202 0 .405-.203.607-.203.607-.202 1.012-.405 1.619-.607 0 0 .203 0 .203-.203l1.822-.607c.405 0 .607-.203 1.012-.203.202 0 .405 0 .607-.203.405 0 1.012-.202 1.417-.202h.202c.405 0 1.013-.203 1.417-.203h3.644c.607 0 1.012 0 1.417.203h.405c.607.203 1.214.203 1.619.405.608.203 1.012.405 1.62.608.202 0 .202.202.404.202l1.215.608c.202 0 .202.202.405.202L90.278 2.431s-.202 0-.202-.203c0 0-.202 0-.202-.203l-1.215-.607s-.202 0-.202-.203h-.203c-.404-.202-1.012-.405-1.62-.607-.606-.203-1.011-.203-1.618-.405h-.405C84.206.203 83.599 0 83.194 0H79.55c-.405 0-1.012 0-1.417.203h-.202c-.405 0-1.012.202-1.417.202-.203 0-.405 0-.608.203-.202 0-.607.202-.81.202h-.202l-1.821.608s-.203 0-.203.202c-.607.203-1.012.405-1.62.608h-.202c-.202 0-.202.203-.404.203-.608.202-1.013.405-1.62.81-.202 0-.405.202-.607.202-.81.405-1.417.81-2.227 1.216s-1.62 1.012-2.429 1.62l-.202.202c-.81.608-1.62 1.013-2.227 1.62-.202 0-.202.203-.405.203-.81.608-1.417 1.216-2.227 1.823l-.404.405c-.81.608-1.417 1.216-2.227 2.026l-.405.405c-.202.202-.405.405-.81.607-.404.406-.607.608-1.012 1.013l-.607.608c-.607.81-1.417 1.418-2.024 2.228l-2.43 3.038-.202.203c-.202.405-.404.607-.607 1.012-.405.608-.81 1.215-1.215 1.62 0 .203-.202.203-.202.406-.202.405-.405.81-.81 1.012-.404.406-.607 1.013-1.012 1.418 0 .203-.202.203-.202.405-.203.405-.405.81-.81 1.215-.202.406-.607.81-.81 1.216 0 .202-.202.202-.202.405-.202.405-.607 1.013-.81 1.418l-.607 1.215s0 .203-.202.203c-.405.607-.608 1.417-1.012 2.025-.203.203-.203.608-.405.81-.405 1.013-.81 2.026-1.417 2.836-.203.202-.203.607-.405.81-.203.81-.607 1.418-.81 2.228v.203c-.202.405-.405 1.012-.607 1.417-.203.608-.405 1.013-.607 1.62v.203c-.203.608-.405 1.418-.608 2.026-.202.405-.202.81-.404 1.215v.202l30.768 17.824c.202-.405.202-1.012.405-1.417.202-.608.405-1.418.607-2.026l.607-1.823c.203-.405.405-1.013.608-1.418.202-.81.607-1.417 1.012-2.228.202-.202.202-.607.404-.81.405-1.013.81-2.025 1.418-3.038.202-.203.202-.608.404-.81.405-.81.81-1.418 1.215-2.228l.607-1.215c.405-.608.607-1.216 1.012-1.823.203-.405.608-.81.81-1.216.405-.607.607-1.012 1.012-1.62.405-.405.607-1.013 1.012-1.418s.608-1.012 1.012-1.417c.405-.608.81-1.216 1.215-1.62.202-.406.607-.811.81-1.216l2.429-3.038c.607-.81 1.417-1.62 2.024-2.228l.607-.608 1.822-1.823.405-.405c.607-.608 1.417-1.215 2.226-2.025l.405-.405c.81-.608 1.417-1.216 2.227-1.823.202 0 .202-.203.405-.203.81-.607 1.62-1.215 2.226-1.62l.203-.203c.81-.607 1.62-1.012 2.429-1.62.81-.405 1.417-.81 2.227-1.215.202-.203.404-.203.607-.203s.81-.202 1.417-.405"/><path fill="url(#u)" d="M43.92 104.31v-3.241c0-.607.203-1.215.203-1.823v-.405c.203-.81.203-1.62.405-2.228 0-.405.202-.81.202-1.215.203-.608.203-1.013.405-1.62 0-.405.203-.608.203-1.013l.607-1.823c0-.202.202-.607.202-.81.203-.608.608-1.418.81-2.026 0-.202.202-.405.202-.405.405-.81.81-1.62 1.013-2.43 0-.203.202-.405.404-.608.405-.607.608-1.215 1.013-1.823.202-.202.202-.405.404-.607.405-.81.81-1.418 1.215-2.228 0 0 0-.203.202-.203.405-.81 1.012-1.418 1.417-2.228.203-.202.405-.607.608-.81.404-.405.607-1.013 1.012-1.418.202-.405.607-.81.81-1.013.404-.405.809-.81 1.011-1.215l.405-.405 1.822-1.823.405-.405c.405-.405 1.012-.81 1.417-1.418l.607-.607c.405-.405 1.012-.81 1.417-1.216.203-.202.405-.405.607-.405.608-.405 1.417-1.012 2.025-1.418L34.204 47.598c-.607.405-1.417.81-2.024 1.418-.202.202-.405.405-.607.405-.405.405-1.012.81-1.417 1.215l-.607.607c-.405.405-1.012.81-1.417 1.418l-.405.405-.203.203-1.619 1.62-.405.405c-.202.203-.405.405-.405.608-.202.203-.405.608-.607.81-.202.405-.607.81-.81 1.013 0 .202-.202.202-.405.405-.202.405-.607.608-.81 1.013-.202.202-.404.607-.607.81l-.202.202c-.405.608-.81 1.216-1.417 2.026 0 0 0 .202-.202.202-.405.608-.81 1.216-1.012 1.62 0 .203-.203.203-.203.406-.202.202-.202.405-.405.607-.202.203-.404.608-.404.81-.203.406-.405.608-.608 1.013-.202.203-.202.405-.405.608l-.202.203c-.405.607-.607 1.215-.81 2.025v.203c0 .202-.202.405-.202.405-.203.405-.405 1.012-.607 1.417 0 .203-.203.406-.203.608-.202.203-.202.608-.202.81s-.203.405-.203.81c-.202.406-.202.608-.202 1.013s-.203.608-.203 1.013c0 .202 0 .202-.202.405-.202.405-.202.81-.202 1.215s-.203.81-.203 1.216v.202c-.202.608-.202 1.418-.405 2.025v.406c0 .202 0 .405-.202.81 0 .405 0 .81-.203 1.215v3.24c0 7.09 2.632 12.153 6.68 14.584l30.769 17.824c-3.644-2.633-6.275-7.697-6.275-14.786"/><path fill="url(#v)" d="M154.648 47.193c0 10.734-7.489 23.697-16.801 29.166-7.287 4.253-65.99 38.078-71.05 41.116-12.55 7.292-22.672 1.418-22.672-12.962 0-14.178 9.717-31.192 21.862-38.686 4.656-17.42 17.004-34.838 31.376-43.142 11.74-6.684 22.064-5.874 28.136 1.215 1.417-1.215 2.834-2.228 4.251-3.24 7.895-4.66 14.372-.81 14.575 8.304 0 2.025-.405 4.253-1.012 6.481 6.275-1.418 11.335 3.038 11.335 11.748m-2.226 1.215c0-7.292-4.251-11.545-10.324-10.127l-2.226.405.809-3.038c.607-2.026.81-3.849.81-5.47 0-7.696-5.466-10.937-12.348-7.088-1.214.607-2.429 1.62-3.644 2.633l-1.619 1.418-1.012-1.013c-5.87-6.887-15.587-7.292-26.315-1.215-12.955 7.494-24.696 23.697-29.149 40.306l-.607 1.823-1.417.81c-11.133 6.887-19.635 22.28-19.635 34.838 0 12.962 9.311 18.229 20.647 11.747l71.455-40.711c8.097-4.659 14.575-16.001 14.575-25.318"/><mask id="w" width="107" height="97" x="46" y="21" maskUnits="userSpaceOnUse" style="mask-type:luminance"><path fill="#fff" d="m137.845 73.727-71.05 41.117c-11.336 6.481-20.445 1.215-20.648-11.748 0-12.76 8.502-28.153 19.635-34.837l1.417-.81.607-1.823C72.26 49.017 84 32.813 96.956 25.319c10.525-6.076 20.444-5.67 26.314 1.216l1.013 1.012 1.619-1.418c1.214-1.012 2.429-2.025 3.644-2.633 6.68-3.848 12.145-.81 12.347 7.09 0 1.62-.202 3.645-.809 5.468l-.81 3.038 2.227-.405c6.072-1.215 10.323 2.836 10.323 10.127-.405 8.912-6.882 20.255-14.979 24.913"/></mask><g mask="url(#w)"><path fill="url(#x)" d="M118.011 76.765 93.518 90.943c-1.62 1.013-4.25 1.013-5.668 0L75.098 83.65l-11.74-6.886c-1.62-1.013-1.62-2.43 0-3.241L76.11 66.03l11.538-6.684c1.62-.81 4.25-.81 5.668 0l24.695 14.178c1.417.81 1.417 2.228 0 3.24"/><path fill="url(#y)" d="M119.02 75.549c0 .203-.202.203-.202.405 0 .203-.203.203-.405.405l-.202.203-.203.202-24.493 14.178c-.203.203-.607.203-.81.406h-2.834c-.202 0-.405 0-.607-.203h-.202c-.203 0-.405-.203-.608-.203s-.404-.202-.607-.202L63.151 76.562c-.81-.405-1.214-1.013-1.214-1.62v7.494c0 .607.405 1.215 1.214 1.62l24.696 14.178c.203.203.405.203.607.203.203 0 .203 0 .405.202h4.251c.203 0 .607-.203.81-.405l24.493-14.178s.202 0 .202-.203l.203-.202.202-.203v-.202s0-.203.203-.203v-7.899c-.203 0-.203.203-.203.405"/><path fill="url(#z)" d="M119.023 81.424v.405s0 .203-.202.203v.202l-.202.203-.203.202-.202.203L93.721 97.02c-.203.202-.608.202-.81.405h-.203c-.202 0-.202 0-.404.203H88.66c-.203 0-.203 0-.405-.203-.202 0-.405-.203-.607-.203L62.952 83.044c-.81-.405-1.214-1.012-1.214-1.62v1.215c0 .608.404 1.216 1.214 1.62l24.696 14.179c.202.202.405.202.607.202.203 0 .203 0 .405.203h4.251c.202 0 .607-.203.81-.405l24.493-14.178s.202 0 .202-.203l.203-.203.202-.202v-.203s0-.202.202-.202v-7.899z" opacity=".3"/><path fill="url(#A)" d="M118.011 67.446 93.518 81.624c-1.62 1.013-4.25 1.013-5.668 0l-12.752-7.291-11.74-6.887c-1.62-1.012-1.62-2.43 0-3.24L76.11 56.71l11.538-6.683c1.62-.81 4.25-.81 5.668 0l24.695 14.178c1.417.81 1.417 2.43 0 3.24"/><path fill="url(#B)" d="M119.02 66.231c0 .203-.202.203-.202.405 0 .203-.203.203-.405.405l-.202.203-.203.203-24.493 14.178c-.203.202-.607.202-.81.405H92.3c-.202 0-.202 0-.404.202H89.87c-.202 0-.405 0-.607-.202h-.202c-.203 0-.405-.203-.608-.203s-.404-.202-.607-.202L63.151 67.447c-.81-.406-1.214-1.013-1.214-1.62v7.493c0 .608.405 1.216 1.214 1.62L87.847 89.12c.203.202.405.202.607.202.203 0 .203 0 .405.203h4.251c.203 0 .607-.203.81-.405l24.493-14.178s.202 0 .202-.203l.203-.202.202-.203v-.203s0-.202.203-.202v-7.899c-.203 0-.203 0-.203.202"/><path fill="url(#C)" d="M95.54 83.447c-.203.203-.405.608-.405.81 0 .405.202.405.405.203.202-.203.404-.608.404-.81.203-.203 0-.203-.404-.203m2.631-.81c0 .405-.202.607-.405.81-.202.203-.405 0-.405-.203 0-.405.203-.607.405-.81.203-.202.405-.202.405.203m2.024-1.216c0 .406-.202.608-.404.81-.203.203-.405 0-.405-.202 0-.405.202-.608.404-.81.203-.203.405-.203.405.203"/><path fill="url(#D)" d="M119.023 72.106v.405s0 .202-.202.202v.203l-.202.202-.203.203-.202.202-24.493 14.179c-.203.202-.608.202-.81.405h-.203c-.202 0-.202 0-.404.202H88.66c-.203 0-.203 0-.405-.202-.202 0-.405-.203-.607-.203L62.952 73.726c-.81-.405-1.214-1.013-1.214-1.62v1.215c0 .608.404 1.215 1.214 1.62L87.648 89.12c.202.203.405.203.607.203.203 0 .203 0 .405.202h4.251c.202 0 .607-.202.81-.405l24.493-14.178s.202 0 .202-.202l.203-.203.202-.202v-.203s0-.203.202-.203V66.03z" opacity=".3"/><path fill="url(#E)" d="M118.011 58.13 93.518 72.308c-1.62 1.013-4.25 1.013-5.668 0l-12.752-7.292-11.74-6.886c-1.62-1.013-1.62-2.43 0-3.24l12.752-7.495 11.538-6.684c1.62-.81 4.25-.81 5.668 0L118.01 54.89c1.417.81 1.417 2.43 0 3.24"/><path fill="url(#F)" d="M119.02 56.914c0 .203-.202.203-.202.405 0 .203-.203.203-.405.405l-.202.203-.203.203-24.493 14.178c-.203.202-.607.202-.81.405h-2.834c-.202 0-.405 0-.607-.203h-.202c-.203 0-.405-.202-.608-.202s-.404-.203-.607-.203L63.151 57.927c-.81-.405-1.214-1.013-1.214-1.62V63.8c0 .607.405 1.215 1.214 1.62L87.847 79.6c.203.203.405.203.607.203.203 0 .203 0 .405.202h3.644c.202 0 .202 0 .405-.202h.202c.203 0 .607-.203.81-.405l24.493-14.178s.202 0 .202-.203l.203-.203.202-.202v-.203s0-.202.203-.202v-7.899c-.203.405-.203.607-.203.607"/><path fill="url(#G)" d="M95.54 74.335c-.203.202-.405.607-.405.81 0 .405.202.405.405.203.202-.203.404-.608.404-.81.203-.406 0-.406-.404-.203m2.631-1.013c0 .405-.202.608-.405.81-.202.203-.405 0-.405-.202 0-.405.203-.608.405-.81.203-.203.405-.203.405.202m2.024-1.215c0 .405-.202.607-.404.81-.203.203-.405 0-.405-.203 0-.405.202-.607.404-.81.203-.202.405 0 .405.203"/><path fill="url(#H)" d="M119.023 62.789v.405s0 .202-.202.202v.203l-.202.202-.203.203-.202.202-24.493 14.179c-.203.202-.608.202-.81.405h-.203c-.202 0-.202 0-.404.202H88.66c-.203 0-.203 0-.405-.202-.202 0-.405-.203-.607-.203L62.952 64.41c-.81-.405-1.214-1.013-1.214-1.62v1.215c0 .608.404 1.215 1.214 1.62l24.696 14.178c.202.203.405.203.607.203.203 0 .203 0 .405.202h3.644c.202 0 .202 0 .404-.202h.203c.202 0 .607-.203.81-.405l24.493-14.178s.202 0 .202-.203l.203-.202.202-.203v-.202s0-.203.202-.203V56.51z" opacity=".3"/><path fill="url(#I)" d="M118.011 49.017 93.518 63.195c-1.62 1.012-4.25 1.012-5.668 0l-12.752-7.292-11.74-6.886c-1.62-1.013-1.62-2.43 0-3.241l12.752-7.494 11.538-6.684c1.62-.81 4.25-.81 5.668 0l24.695 14.178c1.417.81 1.417 2.228 0 3.24"/><path fill="url(#J)" d="M119.02 47.6q0 .303 0 0c0 .202-.202.202-.202.405s-.203.203-.405.405l-.202.203-.203.202-24.493 14.178c-.203.203-.607.203-.81.405h-2.834c-.202 0-.405 0-.607-.202h-.202c-.203 0-.405-.203-.608-.203s-.404-.202-.607-.202L63.151 48.613c-.81-.405-1.214-1.013-1.214-1.62v7.493c0 .608.405 1.216 1.214 1.62l24.696 14.179c.203.202.405.202.607.202.203 0 .203 0 .405.203h4.251c.203 0 .607-.203.81-.405l24.493-14.178s.202 0 .202-.203l.203-.202.202-.203v-.203s0-.202.203-.202v-7.899c-.203.202-.203.405-.203.405"/><path fill="url(#K)" d="M95.54 65.018c-.203.203-.405.608-.405.81 0 .406.202.406.405.203.202-.203.404-.608.404-.81.203-.203 0-.405-.404-.203m2.631-1.012c0 .405-.202.607-.405.81-.202.202-.405 0-.405-.203 0-.405.203-.607.405-.81.203-.203.405 0 .405.203m2.024-1.216c0 .405-.202.608-.404.81-.203.203-.405 0-.405-.202 0-.405.202-.608.404-.81.203-.203.405 0 .405.202"/><path fill="url(#L)" d="M119.023 53.473v.405s0 .202-.202.202v.203l-.202.203-.203.202-.202.203-24.493 14.178c-.203.202-.608.202-.81.405h-.203c-.202 0-.202 0-.404.202H88.66c-.203 0-.203 0-.405-.202-.202 0-.405-.203-.607-.203L62.952 55.093c-.81-.405-1.214-1.013-1.214-1.62v1.215c0 .608.404 1.215 1.214 1.62l24.696 14.179c.202.202.405.202.607.202.203 0 .203 0 .405.203h4.251c.202 0 .607-.203.81-.405l24.493-14.179s.202 0 .202-.202l.203-.203.202-.202v-.203s0-.202.202-.202v-7.899z" opacity=".3"/><path fill="url(#M)" d="M118.011 39.698 93.518 53.876c-1.62 1.013-4.25 1.013-5.668 0l-12.752-7.291-11.74-6.887c-1.62-1.012-1.62-2.43 0-3.24l12.752-7.494 11.538-6.684c1.62-.81 4.25-.81 5.668 0l24.695 14.178c1.417.81 1.417 2.228 0 3.24"/><path fill="url(#N)" d="M119.02 38.483c0 .202-.202.202-.202.405 0 .202-.203.202-.405.405l-.202.202-.203.203-24.493 14.178c-.203.203-.607.203-.81.405h-2.834c-.202 0-.405 0-.607-.203h-.202c-.203 0-.405-.202-.608-.202s-.404-.203-.607-.203L63.151 39.495c-.81-.405-1.214-1.012-1.214-1.62v7.494c0 .608.405 1.215 1.214 1.62l24.696 14.179c.203.202.405.202.607.202.203 0 .203 0 .405.203h4.251c.203 0 .607-.203.81-.405l24.493-14.178s.202 0 .202-.203l.203-.203.202-.202v-.203s0-.202.203-.202v-7.9c-.203 0-.203.203-.203.406"/><path fill="url(#O)" d="M95.54 55.699c-.203.202-.405.607-.405.81 0 .405.202.405.405.203.202-.203.404-.608.404-.81.203-.203 0-.406-.404-.203m2.631-1.013c0 .405-.202.608-.405.81-.202.203-.405 0-.405-.202 0-.405.203-.608.405-.81.203-.203.405 0 .405.202m2.024-1.013c0 .405-.202.608-.404.81-.203.203-.405 0-.405-.202 0-.405.202-.608.404-.81.203-.405.405-.203.405.202"/><path fill="url(#P)" d="M119.023 44.358v.405s0 .202-.202.202v.203l-.202.202-.203.203-.202.202-24.493 14.179c-.203.202-.608.202-.81.405h-.203c-.202 0-.202 0-.404.202H88.66c-.203 0-.203 0-.405-.202-.202 0-.405-.203-.607-.203L62.952 45.978c-.81-.405-1.214-1.013-1.214-1.62v1.215c0 .608.404 1.215 1.214 1.62l24.696 14.178c.202.203.405.203.607.203.203 0 .203 0 .405.202h4.251c.202 0 .607-.202.81-.405l24.493-14.178s.202 0 .202-.202l.203-.203.202-.202v-.203s0-.203.202-.203v-7.899z" opacity=".3"/><path fill="url(#Q)" d="M118.011 30.382 93.518 44.56c-1.62 1.013-4.25 1.013-5.668 0l-12.752-7.292-11.74-6.886c-1.62-1.013-1.62-2.43 0-3.24l12.752-7.495 11.538-6.684c1.62-.81 4.25-.81 5.668 0l24.695 14.178c1.417.81 1.417 2.43 0 3.24"/><path fill="url(#R)" d="M119.02 29.167c0 .202-.202.202-.202.405 0 .202-.203.202-.405.405l-.202.203-.203.202L93.515 44.56c-.203.203-.607.203-.81.405H92.3c-.202 0-.202 0-.404.203H89.87c-.202 0-.405 0-.607-.203h-.202c-.203 0-.405-.202-.608-.202s-.404-.203-.607-.203L63.151 30.382c-.81-.405-1.214-1.013-1.214-1.62v7.494c0 .608.405 1.215 1.214 1.62l24.696 14.178c.203.203.405.203.607.203.203 0 .203 0 .405.202h4.251c.203 0 .607-.202.81-.405l24.493-14.178s.202 0 .202-.202l.203-.203.202-.202v-.203s0-.203.203-.203v-7.899c-.203 0-.203 0-.203.203"/><path fill="url(#S)" d="M95.54 46.383c-.203.202-.405.607-.405.81 0 .405.202.405.405.202.202-.202.404-.607.404-.81.203-.203 0-.203-.404-.203m2.631-.81c0 .404-.202.607-.405.81-.202.202-.405 0-.405-.203 0-.405.203-.608.405-.81.203-.203.405-.203.405.202m2.024-1.216c0 .405-.202.608-.404.81-.203.203-.405 0-.405-.202 0-.405.202-.608.404-.81.203-.203.405-.203.405.202"/><path fill="url(#T)" d="M119.023 35.041v.405s0 .203-.202.203v.202l-.202.203-.203.202-.202.203-24.493 14.178c-.203.203-.608.203-.81.405h-.203c-.202 0-.202 0-.404.203H88.66c-.203 0-.203 0-.405-.203-.202 0-.405-.202-.607-.202L62.952 36.66c-.81-.405-1.214-1.012-1.214-1.62v1.215c0 .608.404 1.216 1.214 1.62l24.696 14.179c.202.202.405.202.607.202.203 0 .203 0 .405.203h4.251c.202 0 .607-.203.81-.405l24.493-14.178s.202 0 .202-.203l.203-.202.202-.203v-.202s0-.203.202-.203v-7.899z" opacity=".3"/><path fill="url(#U)" d="M90.48 37.268H74.895l-11.74-6.887c-1.62-1.012-1.62-2.43 0-3.24l12.752-7.494h14.575z"/><path fill="url(#V)" d="m90.882 33.218 14.372-7.697v3.039c0 .405-.202.607-.607.81l-12.55 7.291c-.81.405-2.227.405-3.037 0L76.51 29.37c-.405-.203-.608-.608-.608-.81v-3.038z"/><path fill="#fff" d="m104.647 26.534-12.55 7.292c-.81.405-2.227.405-3.037 0l-12.55-7.292c-.81-.405-.81-1.215 0-1.62l12.55-7.292c.81-.405 2.227-.405 3.036 0l12.551 7.292c.809.405.809 1.012 0 1.62m-2.834-1.62L91.489 19.04c-.607-.405-1.822-.405-2.429 0l-10.121 5.874c-.607.405-.607 1.012 0 1.418l10.324 5.873c.607.405 1.821.405 2.428 0l10.122-5.873c.809-.405.809-1.013 0-1.418"/><path fill="url(#W)" d="m91.69 21.874 9.109 5.267 1.214-.608c.608-.405.608-1.013 0-1.418L91.69 19.241c-.608-.405-1.822-.405-2.43 0l-10.12 5.874c-.608.405-.608 1.013 0 1.418l1.214.607 8.907-5.266c.607-.405 1.821-.405 2.429 0"/><path fill="url(#X)" d="m91.687 32.205 8.907-5.266-9.11-5.266c-.607-.405-1.821-.405-2.428 0l-8.907 5.266 9.109 5.266c.81.405 1.822.405 2.43 0"/><path fill="url(#Y)" d="M89.262 22.483c.607-.405 1.822-.405 2.429 0l8.3 4.861.607-.405-9.11-5.266c-.607-.405-1.821-.405-2.428 0l-8.907 5.266.607.405z" opacity=".3"/></g><path fill="url(#Z)" d="M106.269 86.285c-.607.202-1.012 1.012-1.012 1.62s.405.81 1.012.608 1.012-1.013 1.012-1.62c0-.811-.405-1.014-1.012-.608"/><path fill="url(#aa)" d="M101.816 88.715c-.607.202-1.012 1.012-1.012 1.62s.405.81 1.012.608 1.012-1.013 1.012-1.62-.405-.81-1.012-.608"/><path fill="url(#ab)" d="M97.363 91.347c-.607.203-1.012 1.013-1.012 1.62s.405.811 1.012.608c.607-.202 1.012-1.012 1.012-1.62s-.405-.81-1.012-.608"/><path fill="url(#ac)" d="M111.738 84.26c0 .607-.405 1.215-1.012 1.62-.607.203-1.012 0-1.012-.608 0-.607.405-1.215 1.012-1.62.607-.202 1.012 0 1.012.608"/><path fill="url(#ad)" d="M116.188 81.625c0 .608-.405 1.215-1.013 1.62-.607.203-1.012 0-1.012-.607 0-.608.405-1.216 1.012-1.62.608-.203 1.013 0 1.013.607"/><path fill="#FAFAFB" d="M133.392 137.932a.436.436 0 0 0 .405-.405v-13.165c0-2.431-1.215-4.456-3.239-5.671l-8.502-4.862c-1.821-1.012-2.834-2.835-2.834-4.861V98.031c0-2.43-1.214-4.456-3.238-5.671l-9.109-5.266c-.203-.203-.608 0-.608.202-.202.203 0 .608.203.608l9.109 5.266c1.822 1.013 2.834 2.836 2.834 4.861v10.937c0 2.431 1.214 4.659 3.441 5.874l8.502 4.861c1.619 1.013 2.834 2.836 2.834 4.861v13.166c-.405 0-.203.202.202.202"/><path fill="#FAFAFB" d="M128.939 140.364a.436.436 0 0 0 .405-.405v-13.166c0-2.43-1.215-4.456-3.239-5.671l-8.502-4.861c-1.822-1.013-2.834-2.835-2.834-4.861v-10.937c0-2.43-1.214-4.456-3.239-5.671l-9.109-5.267c-.202-.202-.607 0-.607.203-.202.202 0 .608.203.608l9.109 5.266c1.821 1.012 2.834 2.835 2.834 4.861V111.4c0 2.431 1.214 4.659 3.441 5.874l8.502 4.861c1.619 1.013 2.833 2.836 2.833 4.861v13.165c-.404 0-.202.203.203.203"/><path fill="#FAFAFB" d="M124.49 142.997a.436.436 0 0 0 .405-.405v-13.166c0-2.43-1.215-4.456-3.239-5.671l-8.502-4.861c-1.822-1.013-2.834-2.836-2.834-4.861v-10.937c0-2.431-1.214-4.457-3.239-5.672l-9.109-5.266c-.202-.202-.607 0-.607.203-.203.202 0 .607.202.607l9.109 5.266c1.822 1.013 2.834 2.836 2.834 4.862v10.937c0 2.43 1.215 4.658 3.442 5.874l8.501 4.861c1.62 1.012 2.834 2.835 2.834 4.861v13.165c-.405 0-.202.203.203.203M137.849 135.301a.436.436 0 0 0 .405-.405v-13.368c0-2.431-1.215-4.456-3.239-5.671l-8.502-4.861c-1.821-1.013-2.834-2.836-2.834-4.862V95.197c0-2.43-1.214-4.456-3.238-5.671l-9.109-5.266c-.203-.203-.608 0-.608.202-.202.203 0 .608.203.608l9.109 5.266c1.822 1.013 2.834 2.836 2.834 4.861v10.937c0 2.431 1.214 4.659 3.441 5.874l8.502 4.861c1.619 1.013 2.834 2.836 2.834 4.861v13.166c-.405.202-.203.405.202.405"/><path fill="#FAFAFB" d="M142.298 132.667a.436.436 0 0 0 .405-.405v-13.166c0-2.43-1.214-4.456-3.239-5.671l-8.501-4.861c-1.822-1.013-2.834-2.836-2.834-4.861V92.765c0-2.43-1.215-4.456-3.239-5.67l-9.109-5.267c-.203-.203-.607 0-.607.203-.203.202 0 .607.202.607l9.109 5.266c1.822 1.013 2.834 2.836 2.834 4.861v10.938c0 2.43 1.215 4.658 3.441 5.874l8.502 4.861c1.619 1.012 2.834 2.835 2.834 4.861v13.165c-.405 0-.203.203.202.203"/><path fill="url(#ae)" d="M118.817 146.034q0 .303 0 0v.202l.202.203 3.644 2.025s.202 0 .202.203h1.619l23.279-13.571.405-.405v.405c0 .203-.202.406-.405.608l-23.279 13.571h-1.619s-.202 0-.202-.203l-3.644-2.025s-.202 0-.202-.203v-3.241z" opacity=".3"/><path fill="url(#af)" d="M114.77 148.262v.203l.202.202 8.097 4.659s.203 0 .203.203h1.619l27.935-16.204.404-.405v.202c0 .203-.202.406-.404.608l-27.935 16.204h-1.619s-.203 0-.203-.203l-8.097-4.658s-.202 0-.202-.203v-1.62z" opacity=".3"/><path fill="url(#ag)" d="m157.281 118.894 12.348-7.089-12.348-7.089c-6.882 3.848-6.882 10.33 0 14.178m17.004-7.089-12.348-7.089c6.882-4.051 17.813-4.051 24.696 0 6.882 4.051 6.68 10.33 0 14.381-6.883 4.05-17.814 4.05-24.696 0z" opacity=".5"/><path fill="url(#ah)" d="M174.285 102.487v7.495l-12.348-7.089v-7.495z"/><path fill="url(#ai)" d="M152.221 102.896v1.62s0 .202.202.202c0 0 0 .203.203.203 0 0 0 .203.202.203 0 0 0 .202.203.202 0 .203.202.203.202.405 0 .203.203.203.203.405 0 .203.202.203.202.405l.405.405.202.203.203.202.202.203.203.203.202.202.202.203.203.202c.202 0 .202.203.405.203.202 0 .202.202.405.202v7.494s-.203 0-.203-.202c0 0-.202 0-.202-.203-.203 0-.203-.202-.405-.202l-.203-.203-.202-.202-.202-.203-.203-.202-.202-.203-.203-.202h-.202l-.203-.203-.404-.405c0-.203-.203-.203-.203-.405 0-.203-.202-.203-.202-.405 0-.203-.203-.203-.203-.405v-.405s0-.203-.202-.203c0 0 0-.203-.203-.203 0 0 0-.202-.202-.202v-9.722z"/><path fill="url(#aj)" d="m157.281 95.4 12.348 7.089-12.348 7.089c-6.882-3.848-6.882-10.33 0-14.178"/><path fill="url(#ak)" d="M169.629 102.488v7.494l-12.348 7.089v-7.291z"/><path fill="url(#al)" d="m174.289 102.489-12.348-7.09c6.882-4.05 17.813-4.05 24.695 0 6.883 4.051 6.68 10.33 0 14.381-6.882 4.051-17.813 4.051-24.695 0z"/><path fill="url(#am)" d="M164.569 118.488c-.202-.202-.607-.202-.809-.405h-.203c-.202 0-.404-.203-.607-.405 0 0-.202 0-.202-.203-.203-.202-.608-.202-.81-.405v-7.494c.202.203.607.203.81.405 0 0 .202 0 .202.203.203.202.405.202.607.405h.203c.202.202.607.202.809.405h.203c.202 0 .405.203.81.203.202 0 .202 0 .404.202.203 0 .203 0 .405.203.203 0 .203 0 .405.202.203 0 .203 0 .405.203h.405c.202 0 .202 0 .405.202h1.214c.405 0 .607.203 1.012.203h.203c.202 0 .607 0 .809.202h7.085c.203 0 .608 0 .81-.202h.202c.203 0 .405 0 .81-.203h.203c.202 0 .404 0 .607-.202h.202c.203 0 .405 0 .607-.203h.405c.203 0 .405 0 .608-.202h.202c.202 0 .607-.203.81-.203h.202c.405-.202.607-.202 1.012-.405.203 0 .203 0 .405-.203 0 0 .203 0 .203-.202.202 0 .202-.203.404-.203 0 0 .203 0 .203-.202.202 0 .202-.203.405-.203 0 0 .202 0 .202-.202.202-.203.405-.203.607-.405 3.442-2.026 5.061-4.659 5.061-7.292v7.494c0 2.633-1.619 5.266-5.061 7.292-.202.202-.405.202-.607.405 0 0-.202 0-.202.202-.203 0-.203.203-.405.203 0 0-.203 0-.203.202-.202 0-.202.203-.404.203 0 0-.203 0-.203.203 0 0-.202 0-.202.202-.203.203-.608.203-1.012.405h-.203c-.202 0-.607.203-.81.203h-.404c-.203 0-.405 0-.608.202h-.405c-.202 0-.404 0-.607.203h-.202c-.203 0-.405 0-.607.202h-.203c-.202 0-.405 0-.81.203h-.202c-.202 0-.607 0-.81.202h-6.477c-.203 0-.608 0-.81-.202h-.202c-.405 0-.608 0-1.012-.203h-1.013c-.202 0-.202 0-.404-.202h-.405c-.203 0-.203 0-.405-.203-.203 0-.203 0-.405-.202-.202 0-.202 0-.405-.203h-.405c-1.012-.202-1.417-.405-1.822-.405q.304 0 0 0"/><path fill="url(#an)" d="m157.277 109.374 12.146-7.089.202.203-12.348 7.089c-3.441-2.026-5.06-4.659-5.06-7.292 0 2.633 1.619 5.266 5.06 7.089"/><path fill="url(#ao)" d="m161.933 95.398 12.348 6.887h-.202z"/><path fill="url(#ap)" d="M161.934 109.577c6.883 3.849 17.814 3.849 24.494 0 3.441-2.025 5.06-4.456 5.06-7.089 0 2.633-1.619 5.266-5.06 7.292-6.68 3.848-17.814 3.848-24.494-.203"/><path fill="url(#aq)" d="M8.906 161.833 0 166.897l8.906 5.064 8.907-5.064zm20.243-1.417-8.907 5.063-8.907-5.063 8.907-5.064zm11.335-6.684-8.906 5.063-8.907-5.063 8.907-5.064z" opacity=".5"/><path fill="url(#ar)" d="m31.78 122.135-8.906 5.063 8.906 5.064 8.704-5.064z"/><path fill="url(#as)" d="M40.484 127.199v24.306l-8.704 5.063v-24.305z"/><path fill="url(#at)" d="M31.777 132.263v24.305l-8.906-5.063v-24.306z"/><path fill="url(#au)" d="m20.242 135.299-8.704 5.063 8.704 5.064 8.906-5.064z"/><path fill="url(#av)" d="M29.148 140.363v17.824l-8.906 5.064v-17.824z"/><path fill="url(#aw)" d="M20.242 145.427v17.824l-8.704-5.064v-17.824z"/><path fill="url(#ax)" d="m8.902 121.932-8.704 5.063 8.704 5.064 8.907-5.064z"/><path fill="url(#ay)" d="M17.809 126.996v37.673l-8.907 5.064V132.06z"/><path fill="url(#az)" d="M8.902 132.06v37.673l-8.704-5.064v-37.673z"/><path fill="url(#aA)" d="M144.729 151.099c-8.502 4.861-8.704 12.963 0 18.026 8.502 4.861 22.267 4.861 30.971 0 8.502-4.861 8.704-12.962 0-17.824-8.704-5.266-22.469-5.266-30.971-.202m22.064 12.76c-3.643 2.228-9.716 2.228-13.36 0-3.643-2.228-3.643-5.671 0-7.696 3.644-2.228 9.717-2.228 13.36 0 3.644 2.025 3.644 5.468 0 7.696" opacity=".5"/><path fill="#D4CEDD" d="M150.596 154.946c0-1.417 1.012-2.835 2.834-3.848.405-.202.809-.405 1.417-.608h.202c.203 0 .607-.202.81-.202.202 0 .405 0 .405-.203h.405c.404 0 .607-.202 1.012-.202h4.25c.203 0 .608 0 .81.202h.405c.405 0 .607.203 1.012.203.203 0 .405 0 .405.202h.202c.608.203 1.215.406 1.822.811h.203c.202.202.405.202.405.405.202.202.404.405.607.405l.607.607.202.203s0 .203.203.203l.202.202c0 .203.203.405.203.608v3.038c0-.405 0-.608-.203-1.013v-.202c-.202-.203-.202-.608-.405-.811 0 0 0-.202-.202-.202-.202-.203-.405-.608-.81-.81-.202-.203-.404-.405-.607-.405-.202-.203-.405-.203-.607-.405-.607-.406-1.215-.608-1.822-.811-.202 0-.405-.202-.81-.202s-.607-.203-1.012-.203-.809-.202-1.214-.202h-3.846c-.608 0-1.012.202-1.417.202h-.203c-.405.203-.809.203-1.214.405h-.203a10 10 0 0 0-1.417.608c-1.417.81-2.226 1.823-2.631 2.836-.203.405-.203.607-.203 1.012z"/><path fill="#D4CEDD" d="M138.25 155.151v1.215c0 .202 0 .405.202.607 0 .203.203.406.203.608 0 .203.202.405.202.608s.203.405.405.607c0 .203.202.405.202.405.203.203.405.608.608.811l.405.405c.202.405.607.607 1.012 1.012l.405.406.607.607c.202.203.405.405.607.405.203.203.607.405.81.608.202.202.607.405.809.608.608.405 1.417.81 2.025 1.012.202 0 .405.203.607.203.607.202 1.215.405 1.619.607.203 0 .405.203.608.203.405.203.809.203 1.214.405.203 0 .607.203.81.203.405 0 .81.202 1.214.202.203 0 .608.203.81.203.81.202 1.619.202 2.429.405h7.49c.405 0 .81 0 1.012-.203.405 0 .607 0 1.012-.202.405 0 .81-.203 1.215-.203.404 0 .607-.202.809-.202.405 0 .81-.203 1.417-.405.203 0 .405-.203.81-.203.81-.203 1.619-.405 2.429-.81.202 0 .202 0 .405-.203 1.012-.405 2.024-.81 3.036-1.418 3.239-1.822 5.263-4.253 6.073-6.684.202-.81.405-1.62.405-2.43v1.62c0 3.241-2.227 6.482-6.478 9.115-1.012.607-2.024 1.013-3.036 1.418h-.405c-.81.202-1.619.607-2.429.81h-.202c-.203 0-.405 0-.608.202-.405.203-.809.203-1.417.405h-1.012c-.405 0-.809.203-1.214.203h-1.012c-.405 0-.81 0-1.013.203h-7.489c-.81 0-1.62-.203-2.429-.406h-.203c-.202 0-.405-.202-.607-.202-.405 0-.81-.203-1.215-.203-.202 0-.607-.202-.809-.202-.405-.203-.81-.203-1.215-.405h-.202c-.203 0-.203 0-.405-.203l-1.822-.607c-.202 0-.405-.203-.607-.203-.81-.405-1.417-.608-2.024-1.013l-.203-.202c-.202-.203-.405-.203-.607-.405-.202-.203-.607-.405-.81-.608-.202-.203-.405-.405-.607-.405l-.607-.608-.203-.202-.202-.203-1.012-1.013-.203-.202s0-.203-.202-.203c-.203-.202-.405-.607-.607-.81 0-.202-.203-.202-.203-.405v-.202c-.202-.203-.202-.406-.405-.608 0-.203-.202-.203-.202-.405v-.203c0-.202-.202-.405-.202-.607 0-.203 0-.203-.203-.405v-1.418z"/><path fill="#fff" d="M144.729 146.238c-8.502 4.861-8.704 12.962 0 18.026 8.502 4.861 22.267 4.861 30.971 0 8.502-4.861 8.704-12.963 0-17.824-8.704-5.266-22.469-5.266-30.971-.202m22.064 12.76c-3.643 2.228-9.716 2.228-13.36 0-3.643-2.228-3.643-5.671 0-7.697 3.644-2.228 9.717-2.228 13.36 0 3.644 2.228 3.644 5.671 0 7.697"/><path fill="#4FA416" d="M153.836 145.428v3.038l-5.465-3.24v-3.038z"/><path fill="#A1E100" d="m148.371 142.187 5.668 3.241c3.846-1.418 8.502-1.418 12.348 0l5.668-3.241c-7.085-3.038-16.801-3.038-23.684 0"/><path fill="#78B500" d="M163.35 147.858c-.203 0-.405 0-.81-.202h-4.251c-.405 0-1.012 0-1.417.202h-.405c-.405 0-.607.203-1.012.203-.202 0-.405 0-.607.203-.405.202-.81.202-1.215.405v-3.039c.203 0 .608-.202.81-.202h.405c.202 0 .405 0 .607-.203h.405c.202 0 .405 0 .607-.202h.608c.404 0 .809 0 1.214-.203h5.668c.607.203 1.012.203 1.619.405h.203c.202 0 .202 0 .405.203v3.038c-.203 0-.405-.202-.608-.202-.607-.203-1.012-.203-1.619-.406z"/><path fill="#4FA416" d="M171.852 142.188v3.038l-5.668 3.24v-3.038z"/><path fill="#FF9804" d="M149.789 147.656v3.038c-1.214 1.013-1.822 2.431-1.822 3.646v-3.038q.304-1.822 1.822-3.646M140.274 151.705v1.2160000000000002c0 .202.202.405.202.607 0 .203 0 .203.202.405.203.405.203.608.405 1.013.203.405.405.608.608 1.013l.202.202c.405.405.607.81 1.012 1.216l.81.81v3.038c-.405-.203-.607-.405-.81-.81-.405-.405-.81-.81-1.012-1.216l-.202-.202v-.203c-.203-.405-.405-.607-.608-1.012s-.405-.608-.405-1.013v-.405c0-.203-.202-.405-.202-.608v-4.6579999999999995c-.202.405-.202.607-.202.607"/><path fill="#FFD814" d="M144.32 144.414c-5.263 4.051-5.263 9.722 0 13.773l5.668-3.241c-2.226-2.228-2.226-4.861 0-7.089z"/><path fill="#FFBB14" d="M144.121 158.188v3.038l5.668-3.241v-3.038z"/><path fill="#C83000" d="M171.649 152.718s0-.202-.203-.202c0-.203-.202-.405-.405-.608 0 0 0-.202-.202-.202-.203-.203-.405-.608-.608-.81v-3.039l.608.608.202.203c0 .202.203.202.203.405v.202s0 .203.202.203c0 0 0 .202.203.202 0 .203 0 .203.203.405v4.051-1.012s-.203-.203-.203-.406M175.901 158.187c2.631-2.025 4.048-4.456 4.048-6.886v3.038c0 1.418-.607 3.038-1.619 4.456q-.91 1.215-2.429 2.43z"/><path fill="#FE6B00" d="M170.233 147.656c2.226 2.228 2.226 4.861 0 7.089l5.667 3.241c5.263-4.051 5.263-9.722 0-13.773z"/><path fill="#EE4E00" d="M170.231 154.947v3.038l5.667 3.241v-3.038z"/><path fill="#02DBFF" d="M148.168 160.416c6.882 3.039 16.599 3.039 23.684 0l-5.668-3.24c-3.846 1.418-8.502 1.418-12.348 0z"/><path fill="#0293FF" d="M150.8 161.429c.202 0 .404 0 .404.202l2.429.608h.405c1.012.202 1.822.405 2.834.405h.405c.81 0 1.619 0 2.429.203h.607c.81 0 1.822 0 2.632-.203h.405c.809 0 1.619-.203 2.429-.405h.607c.81-.203 1.822-.405 2.632-.608.202 0 .607-.202.809-.202.81-.203 1.417-.405 2.025-.81v3.038c-.203 0-.405.202-.608.202-.405.203-1.012.405-1.417.405-.202 0-.607.203-.809.203h-.203c-.607.202-1.417.405-2.024.608h-1.012c-.405 0-.81.202-1.012.202-.405 0-.81.203-1.417.203h-.607c-.608 0-1.215 0-2.025.202h-2.024c-.607 0-1.012 0-1.619-.202h-.608c-.809 0-1.619-.203-2.429-.405h-.607l-2.429-.608c-.202 0-.405 0-.405-.203h-.405c-.809-.202-1.619-.607-2.226-.81v-3.038c1.012.405 1.821.81 2.834 1.013"/><path fill="url(#aB)" d="m52.221 176.012 18.016-10.532c2.227-1.215 5.668-1.215 7.894 0l18.219 10.532c2.226 1.215 2.226 3.241 0 4.659l-18.016 10.532c-2.227 1.215-5.668 1.215-7.895 0l-18.218-10.532c-2.226-1.216-2.226-3.444 0-4.659"/><path fill="url(#aC)" d="M44.933 171.557c.405-.405.81-.608 1.215-1.013l3.238-1.823 7.085-4.051 4.454-2.633.405-.202 4.453-2.633 3.441-2.026c2.834-1.62 7.287-1.62 10.121 0l23.076 13.368c2.834 1.62 2.834 4.254 0 5.874l-23.076 13.368c-2.834 1.62-7.287 1.62-10.121 0l-23.076-13.368c-2.227-1.215-2.632-3.241-1.215-4.861m2.632 4.861 22.064 12.558c2.631 1.62 7.085 1.62 9.716 0l22.064-12.558c2.632-1.62 2.632-4.051 0-5.469l-22.064-12.558c-2.631-1.62-7.085-1.62-9.716 0l-3.239 1.823-4.25 2.431-.406.202-4.25 2.431-6.68 3.848-3.037 1.823c-.405.203-.81.608-1.214 1.013-1.62 1.215-1.215 3.241 1.012 4.456"/><path fill="url(#aD)" d="m96.553 170.746-18.218-10.532c-2.227-1.215-5.87-1.215-7.895 0l-18.016 10.532c-2.226 1.216-2.226 3.241 0 4.659l18.219 10.532c2.226 1.216 5.87 1.216 7.894 0l18.016-10.532c2.226-1.215 2.226-3.443 0-4.659" opacity=".3"/><path fill="url(#aE)" d="m96.553 168.924-18.218-10.532c-2.227-1.215-5.87-1.215-7.895 0l-18.016 10.532c-2.226 1.215-2.226 3.241 0 4.659l18.219 10.532c2.226 1.215 5.87 1.215 7.894 0l18.016-10.532c2.226-1.216 2.226-3.241 0-4.659"/><path fill="url(#aF)" d="M98.173 171.355q0 .303 0 0v.405s0 .202-.202.202l-.203.203h-.404l-18.016 10.532c-.203 0-.203.203-.405.203h-.202c-.203 0-.203.202-.405.202-.203 0-.203 0-.405.203h-4.453c-.203 0-.203 0-.405-.203h-.203c-.202 0-.202 0-.404-.202-.203 0-.203 0-.203-.203h-.202c-.203 0-.203-.202-.405-.202l-18.218-10.533c-1.012-.607-1.62-1.417-1.62-2.228v1.823c0 .81.608 1.621 1.62 2.228l18.218 10.533c.202 0 .202.202.405.202h.202s.203 0 .203.203c.202 0 .202 0 .404.202h5.668c.203 0 .203 0 .405-.202.203 0 .203 0 .405-.203h.202c.203 0 .203-.202.405-.202l18.016-10.533h.202l.203-.202s0-.203.202-.203v-.202z"/><path fill="url(#aG)" d="M55.26 162.847c.202-.203.404-.405.81-.608l2.023-1.215 4.656-2.633 2.834-1.621.203-.202 2.834-1.621 2.226-1.215c1.822-1.013 4.858-1.013 6.68 0l15.182 8.71c1.822 1.012 1.822 2.835 0 3.848l-14.98 8.709c-1.821 1.013-4.858 1.013-6.68 0l-15.181-8.709c-1.417-1.013-1.62-2.431-.607-3.443"/><path fill="url(#aH)" d="M94.125 164.264q0 .305 0 0v.203l-.202.202-.203.203h-.202l-14.98 8.709c-.202 0-.202.203-.404.203 0 0-.203 0-.203.202-.202 0-.202 0-.405.203h-4.048s-.203 0-.203-.203h-.202c-.202 0-.202-.202-.405-.202l-15.182-8.71c-1.012-.607-1.417-1.215-1.417-2.025v6.684c0 .607.405 1.418 1.417 2.025l15.182 8.71c.203 0 .203.202.405.202h5.061c.202 0 .202 0 .202-.202.202 0 .202-.203.405-.203l14.98-8.709.202-.203.202-.202z"/><path fill="url(#aI)" d="m53.833 175.406.405.203-.202.202-.608-.202z"/><path fill="url(#aJ)" d="M57.277 172.57v.608l-3.238 1.823v.81l.202-.203v.406l-.607.607v-1.823z"/><path fill="url(#aK)" d="M53.633 174.798v1.823l-.608-.405v-1.62z"/><path fill="url(#aL)" d="m56.873 172.367.404.203-3.643 2.228-.608-.203z"/><path fill="url(#aM)" d="m56.267 176.824.405.203-.405.202-.405-.202z"/><path fill="url(#aN)" d="M59.71 173.988v.405l-3.44 2.026v.81l.405-.203v.406l-.81.607v-1.823z"/><path fill="url(#aO)" d="M55.863 176.216v1.823l-.405-.406v-1.822z"/><path fill="url(#aP)" d="m59.306 173.785.405.203-3.846 2.228-.405-.405z"/><path fill="url(#aQ)" d="m58.7 178.039.405.405-.405.203-.405-.405z"/><path fill="url(#aR)" d="M62.14 175.406v.405l-3.44 2.026v.81l.404-.203v.406l-.81.405v-1.621z"/><path fill="url(#aS)" d="M58.293 177.634v1.62l-.405-.203v-1.822z"/><path fill="url(#aT)" d="m61.736 175 .405.405-3.846 2.228-.405-.405z"/><path fill="url(#aU)" d="m60.924 179.457.607.203-.405.405-.405-.405z"/><path fill="url(#aV)" d="M64.57 176.824v.405l-3.44 2.026v.81l.404-.405v.607l-.81.406v-1.823z"/><path fill="url(#aW)" d="M60.723 178.849v1.823l-.608-.203v-1.823z"/><path fill="url(#aX)" d="m63.963 176.418.607.405-3.846 2.026-.607-.203z"/><path fill="url(#aY)" d="m63.353 180.875.405.203-.203.202-.607-.202z"/><path fill="url(#aZ)" d="M66.797 178.039v.608l-3.239 1.823v.81l.203-.203v.608l-.81.405v-1.823z"/><path fill="url(#ba)" d="M62.95 180.267v1.823l-.406-.203v-1.823z"/><path fill="url(#bb)" d="m66.392 177.836.405.202-3.846 2.228-.405-.202z"/><path fill="url(#bc)" d="m65.782 182.293.406.203-.406.202-.405-.202z"/><path fill="url(#bd)" d="M69.227 179.457v.608l-3.442 1.823v.81l.405-.203v.608l-.81.405v-1.823z"/><path fill="url(#be)" d="M65.379 181.685v1.823l-.405-.203v-1.823z"/><path fill="url(#bf)" d="m68.822 179.254.405.202-3.847 2.228-.404-.202z"/><path fill="url(#bg)" d="m94.93 175.406-.607.203.405.202.405-.202z"/><path fill="url(#bh)" d="M91.287 172.57v.608l3.441 1.823v.81l-.405-.203v.406l.81.607v-1.823z"/><path fill="url(#bi)" d="M95.134 174.798v1.823l.405-.405v-1.62z"/><path fill="url(#bj)" d="m91.895 172.367-.607.203 3.846 2.228.405-.203z"/><path fill="url(#bk)" d="m92.505 176.824-.405.203.203.202.607-.202z"/><path fill="url(#bl)" d="M89.06 173.988v.405l3.238 2.026v.81l-.202-.203v.406l.607.607v-1.823z"/><path fill="url(#bm)" d="M92.705 176.216v1.823l.608-.406v-1.822z"/><path fill="url(#bn)" d="m89.467 173.785-.405.203 3.643 2.228.608-.405z"/><path fill="url(#bo)" d="m90.075 178.039-.405.405.405.203.406-.405z"/><path fill="url(#bp)" d="M86.634 175.406v.405l3.442 2.026v.81l-.405-.203v.406l.81.405v-1.621z"/><path fill="url(#bq)" d="M90.478 177.634v1.62l.405-.203v-1.822z"/><path fill="url(#br)" d="m87.037 175-.405.405 3.846 2.228.405-.405z"/><path fill="url(#bs)" d="m87.65 179.457-.406.203.406.405.405-.405z"/><path fill="url(#bt)" d="M84.209 176.824v.405l3.44 2.026v.81l-.404-.405v.607l.81.406v-1.823z"/><path fill="url(#bu)" d="M88.052 178.849v1.823l.405-.203v-1.823z"/><path fill="url(#bv)" d="m84.611 176.418-.405.405 3.846 2.026.405-.203z"/><path fill="url(#bw)" d="m85.423 180.875-.608.203.405.202.405-.202z"/><path fill="url(#bx)" d="M81.779 178.039v.608l3.441 1.823v.81l-.405-.203v.608l.81.405v-1.823z"/><path fill="url(#by)" d="M85.622 180.267v1.823l.405-.203v-1.823z"/><path fill="url(#bz)" d="m82.384 177.836-.608.202 3.847 2.228.404-.202z"/><path fill="url(#bA)" d="m82.99 182.293-.406.203.203.202.607-.202z"/><path fill="url(#bB)" d="M79.544 179.457v.608l3.239 1.823v.81l-.203-.203v.608l.608.405v-1.823z"/><path fill="url(#bC)" d="M83.19 181.685v1.823l.607-.203v-1.823z"/><path fill="url(#bD)" d="m79.95 179.254-.404.202 3.644 2.228.607-.202z"/><g opacity=".2"><path fill="url(#bE)" d="m82.587 183.101-.81-1.013-2.632-1.418.203-.608.607.203h-.202l2.834 1.418.202.607-.202.203z" opacity=".8"/><path fill="url(#bF)" d="m84.818 181.683-.608-.81-2.631-1.621.203-.607.404.202 2.632 1.62.405.406-.405.202z" opacity=".8"/><path fill="url(#bG)" d="m87.244 180.265-.608-.81-2.631-1.621.202-.607.405.202 2.632 1.62.404.406-.404.202z" opacity=".8"/><path fill="url(#bH)" d="m89.673 178.847-.607-.81-2.632-1.418.203-.81.405.202v.203l2.631 1.417.405.406v.202l-.405.203z" opacity=".8"/><path fill="url(#bI)" d="m92.102 177.429-.81-.81-2.63-1.418.404-.81.405.405h-.203l2.834 1.418.203.405v.202l-.203.203z" opacity=".8"/><path fill="url(#bJ)" d="m94.33 176.011-.608-.81-2.631-1.418.202-.607.405.202 2.632 1.418.404.608-.404.202z" opacity=".8"/></g><path fill="url(#bK)" d="m64.57 163.454.404-.405 1.012-.608 2.43-1.417 1.416-.811h.203l1.417-.81 1.214-.607c1.012-.608 2.43-.608 3.441 0l7.692 4.456c1.013.607 1.013 1.417 0 2.025l-7.692 4.456c-1.012.608-2.429.608-3.44 0l-7.693-4.456a1.12 1.12 0 0 1-.607-1.013c0-.405 0-.607.202-.81"/><path fill="url(#bL)" d="m84.207 164.872-.405-.405-7.692-4.456c-1.012-.608-2.43-.608-3.441 0l-1.215.607-1.417.811h-.202l-1.417.81-2.43 1.418-1.011.607a.436.436 0 0 0-.405.405c-.203-.202-.203-.405-.203-.607 0-.203 0-.405.203-.608l.404-.405 1.013-.608 2.429-1.417 1.417-.811h.202l1.417-.81 1.215-.607c1.012-.608 2.429-.608 3.44 0l7.693 4.456c.81.405.81 1.012.405 1.62" opacity=".5"/><path fill="url(#bM)" d="M240.081 104.309 250 109.98l-9.919 5.874-9.918-5.874z" opacity=".5"/><path fill="url(#bN)" d="M250 94.586v11.342l-9.919 5.672v-11.343z"/><path fill="url(#bO)" d="M240.082 100.257v11.342l-9.919-5.874V94.383z"/><path fill="url(#bP)" d="M240.081 88.713 250 94.587l-9.919 5.671-9.918-5.874z"/><path fill="url(#bQ)" d="m240.081 100.056 9.717-5.671.202.202-9.919 5.672-9.918-5.874h.202z"/><path fill="url(#bR)" d="m94.323 202.341 27.327-15.799c.607-.405 1.822-.405 2.429 0l19.028 10.937c.607.406.607 1.013 0 1.418l-27.327 15.799c-.607.405-1.822.405-2.429 0l-19.028-10.938c-.607-.405-.607-1.012 0-1.417" opacity=".5"/><path fill="url(#bS)" d="m94.323 199.505 27.327-15.799c.607-.405 1.822-.405 2.429 0l19.028 10.938c.607.405.607 1.012 0 1.417L115.78 211.86c-.607.405-1.822.405-2.429 0l-19.028-10.938c-.607-.405-.607-1.012 0-1.417"/><path fill="url(#bT)" d="M93.92 200.112c0 .202.202.607.607.81l19.027 10.937c.203 0 .405.203.608.203h1.214c.203 0 .405-.203.608-.203l27.327-15.798h.405l.202-.203v-.405.405l-.202.203h-.203l-27.327 15.798c-.202 0-.202.203-.405.203h-1.417s-.202 0-.202-.203l-19.028-10.937c-.405-.203-.607-.405-.607-.81z"/><path fill="url(#bU)" d="m119.226 199.908-9.716-5.873c-.202-.203-.607-.203-1.012 0q-.303.304 0 .607l9.716 5.874c.203.203.608.203 1.012 0q.305-.303 0-.608m-2.024 1.823c-.202.203-.607.203-1.012 0l-6.477-4.05q-.305-.305 0-.608c.202-.203.607-.203 1.012 0l6.477 4.051q.305.303 0 .607m2.024 0c.81-.405 2.025-.405 2.834 0l1.012.608c.81.405.81 1.215 0 1.62-.809.405-2.024.405-2.833 0l-1.013-.607c-.809-.203-.809-1.013 0-1.621"/><path fill="#fff" d="M120.843 202.137c.405 0 .405 0 .405.202v1.216h.405c.202 0 .202 0 .202.202v.203h-1.215v-.203z"/><path fill="url(#bV)" d="m125.906 196.061-9.716-5.874c-.203-.202-.608-.202-1.012 0q-.305.304 0 .608l9.716 5.873c.202.203.607.203 1.012 0q.303-.304 0-.607m-2.024 1.62c-.203.203-.607.203-1.012 0l-6.478-4.051q-.303-.304 0-.607c.203-.203.607-.203 1.012 0l6.478 4.051c.202.202.202.607 0 .607m2.024.203c.81-.405 2.024-.405 2.834 0l1.012.607c.81.405.81 1.216 0 1.621s-2.024.405-2.834 0l-1.012-.608c-.81-.405-.81-1.013 0-1.62"/><path fill="#fff" d="M127.522 198.289c.406 0 .406 0 .406.203v1.215h.405c.202 0 .202 0 .202.202v.203h-1.215v-.203z"/><path fill="url(#bW)" d="m132.383 192.213-9.717-5.874c-.202-.202-.607-.202-1.012 0q-.303.305 0 .608l9.717 5.874c.202.202.607.202 1.012 0q.606-.304 0-.608m-1.822 1.621c-.203.202-.607.202-1.012 0l-6.478-4.051q-.303-.304 0-.608c.203-.203.607-.203 1.012 0l6.478 4.051c.202.202.202.608 0 .608m1.822.202c.809-.405 2.024-.405 2.834 0l1.012.608c.809.405.809 1.215 0 1.62-.81.405-2.025.405-2.834 0l-1.012-.608c-.81-.405-.81-1.012 0-1.62"/><path fill="#fff" d="M134.202 194.441c.405 0 .405 0 .405.203v1.215h.405c.203 0 .203 0 .203.203v.202H134v-.202zq-.303 0 0 0"/><path fill="url(#bX)" d="M99.79 198.898c.81-.406 2.024-.406 2.834 0l5.87 3.443c.81.405.81 1.215 0 1.62-.809.405-2.024.405-2.834 0l-5.87-3.443c-.81-.405-.81-1.013 0-1.62" opacity=".2"/><path fill="url(#bY)" d="M98.575 198.896c.608.406 1.013.608 1.62 1.013h.202c.203 0 .608 0 .608.203l.404.405s0 .202.203.202c0 .203.202.203.405.405h.202c0-.202-.202-.405-.202-.405v-.405h.202c.202 0 .202 0 .405.203.202.202.202.405.202.405 0 .202 0 .202-.202.202 0 0 0 .203-.203.203 0 .203.203.405.405.405l.203.203c.202 0 .202 0 .405-.203 0 0 .202 0 .202-.202a1.55 1.55 0 0 1-.405-1.013v-.203h.203c.202 0 .202 0 .202.203.405.405.202.81-.202 1.215.202.405.607.81.809.81h.203l.202.203h.203c0-.203-.203-.203-.203-.405v-.203h.405l.202.203v.607c.203.203.203.405.405.608l.203.203c-.203-.203-.405-.811 0-1.013h.202s.203 0 .203.202q.303.304 0 .608c0 .203 0 .203-.203.203 0 0 0 .202-.202.202l.405.405c.202.203.404.203.607.203h.202v-.203c-.202-.405-.202-.81-.202-1.215v-1.215h.405c.202 0 .202.202.202.202.607.608.607 1.418.202 2.026-.202.202-.202.405-.404.405.202.405.404.607.607 1.012h-.203c-.202-.202-.404-.607-.607-1.012h-.202c-.405 0-.607-.203-.81-.405l-.405-.405c-.202 0-.405-.203-.405-.203-.202-.203-.404-.405-.404-.608h-.405s-.203 0-.203-.202h-.202c-.405 0-.607-.608-.81-.81-.202 0-.405.202-.607.202h-.203s-.202 0-.202-.202c-.202-.203-.202-.405-.405-.405h-.202c-.203 0-.203 0-.405-.203l-.405-.405s0-.203-.202-.203c-.203-.202-.203-.405-.405-.405-.203 0-.203-.202-.405-.202h-.607c.404-.405-.203-.81-.608-1.216m9.514 5.064c.203 0 .203-.202.405-.202.405-.608.203-1.418-.202-1.823l-.203-.203h-.202v1.013c-.203.405 0 .81.202 1.215m-1.417-.608.203-.202v-.608c-.607.203-.405.608-.203.81m-2.631-1.822c.202-.406.405-.811 0-1.013v.202c-.405.405-.203.608 0 .811m-1.62-.406c.203-.202.203-.202.203-.405v-.405h-.203v.81"/><defs><linearGradient id="a" x1="164.031" x2="140.764" y1="178.632" y2="121.432" gradientUnits="userSpaceOnUse"><stop stop-color="#E6E6EF"/><stop offset=".435" stop-color="#E3E3ED"/><stop offset=".717" stop-color="#DBDBE7"/><stop offset=".954" stop-color="#CCCCDC"/><stop offset="1" stop-color="#C8C8D9"/></linearGradient><linearGradient id="b" x1="123.745" x2="110.795" y1="169.544" y2="169.544" gradientUnits="userSpaceOnUse"><stop stop-color="#D4D4DC"/><stop offset=".359" stop-color="#C3C2CD"/><stop offset="1" stop-color="#9B9AAC"/></linearGradient><linearGradient id="c" x1="123.4" x2="118.927" y1="146.053" y2="146.053" gradientUnits="userSpaceOnUse"><stop stop-color="#D4D4DC"/><stop offset=".359" stop-color="#C3C2CD"/><stop offset="1" stop-color="#9B9AAC"/></linearGradient><linearGradient id="d" x1="135.945" x2="131.082" y1="146.341" y2="134.386" gradientUnits="userSpaceOnUse"><stop stop-color="#E6E6EF"/><stop offset=".435" stop-color="#E3E3ED"/><stop offset=".717" stop-color="#DBDBE7"/><stop offset=".954" stop-color="#CCCCDC"/><stop offset="1" stop-color="#C8C8D9"/></linearGradient><linearGradient id="e" x1="123.4" x2="118.927" y1="144.62" y2="144.62" gradientUnits="userSpaceOnUse"><stop stop-color="#D4D4DC"/><stop offset=".359" stop-color="#C3C2CD"/><stop offset="1" stop-color="#9B9AAC"/></linearGradient><linearGradient id="f" x1="125.423" x2="121.995" y1="142.798" y2="142.798" gradientUnits="userSpaceOnUse"><stop stop-color="#D4D4DC"/><stop offset=".359" stop-color="#C3C2CD"/><stop offset="1" stop-color="#9B9AAC"/></linearGradient><linearGradient id="g" x1="137.709" x2="132.541" y1="145.413" y2="137.843" gradientUnits="userSpaceOnUse"><stop stop-color="#D4D4DC"/><stop offset=".628" stop-color="#ADACBB"/><stop offset="1" stop-color="#9B9AAC"/></linearGradient><linearGradient id="h" x1="134.778" x2="131.645" y1="140.883" y2="133.18" gradientUnits="userSpaceOnUse"><stop stop-color="#E6E6EF"/><stop offset=".435" stop-color="#E3E3ED"/><stop offset=".717" stop-color="#DBDBE7"/><stop offset=".954" stop-color="#CCCCDC"/><stop offset="1" stop-color="#C8C8D9"/></linearGradient><linearGradient id="i" x1="125.423" x2="121.995" y1="140.543" y2="140.543" gradientUnits="userSpaceOnUse"><stop stop-color="#D4D4DC"/><stop offset=".359" stop-color="#C3C2CD"/><stop offset="1" stop-color="#9B9AAC"/></linearGradient><linearGradient id="j" x1="122.485" x2="127.404" y1="141.464" y2="144.821" gradientUnits="userSpaceOnUse"><stop stop-color="#D4D4DC"/><stop offset=".628" stop-color="#ADACBB"/><stop offset="1" stop-color="#9B9AAC"/></linearGradient><linearGradient id="k" x1="126.938" x2="131.856" y1="138.876" y2="142.234" gradientUnits="userSpaceOnUse"><stop stop-color="#D4D4DC"/><stop offset=".628" stop-color="#ADACBB"/><stop offset="1" stop-color="#9B9AAC"/></linearGradient><linearGradient id="l" x1="131.39" x2="136.309" y1="136.289" y2="139.646" gradientUnits="userSpaceOnUse"><stop stop-color="#D4D4DC"/><stop offset=".628" stop-color="#ADACBB"/><stop offset="1" stop-color="#9B9AAC"/></linearGradient><linearGradient id="m" x1="135.842" x2="140.761" y1="133.701" y2="137.058" gradientUnits="userSpaceOnUse"><stop stop-color="#D4D4DC"/><stop offset=".628" stop-color="#ADACBB"/><stop offset="1" stop-color="#9B9AAC"/></linearGradient><linearGradient id="n" x1="140.294" x2="145.213" y1="131.112" y2="134.469" gradientUnits="userSpaceOnUse"><stop stop-color="#D4D4DC"/><stop offset=".628" stop-color="#ADACBB"/><stop offset="1" stop-color="#9B9AAC"/></linearGradient><linearGradient id="o" x1="53.919" x2="126.936" y1="117.099" y2="31.726" gradientUnits="userSpaceOnUse"><stop stop-color="#E6E6EF"/><stop offset=".435" stop-color="#E3E3ED"/><stop offset=".717" stop-color="#DBDBE7"/><stop offset=".954" stop-color="#CCCCDC"/><stop offset="1" stop-color="#C8C8D9"/></linearGradient><linearGradient id="p" x1="131.335" x2="130.25" y1="26.065" y2="28.03" gradientUnits="userSpaceOnUse"><stop stop-color="#fff"/><stop offset="1" stop-color="#EFEEF3"/></linearGradient><linearGradient id="q" x1="120.944" x2="128.065" y1="28.588" y2="9.474" gradientUnits="userSpaceOnUse"><stop stop-color="#E6E6EF"/><stop offset=".435" stop-color="#E3E3ED"/><stop offset=".717" stop-color="#DBDBE7"/><stop offset=".954" stop-color="#CCCCDC"/><stop offset="1" stop-color="#C8C8D9"/></linearGradient><linearGradient id="r" x1="127.069" x2="114.529" y1="-2.141" y2="16.277" gradientUnits="userSpaceOnUse"><stop stop-color="#fff"/><stop offset="1" stop-color="#EFEEF3"/></linearGradient><linearGradient id="s" x1="102.139" x2="104.166" y1="24.027" y2="20.229" gradientUnits="userSpaceOnUse"><stop stop-color="#E6E6EF"/><stop offset=".435" stop-color="#E3E3ED"/><stop offset=".717" stop-color="#DBDBE7"/><stop offset=".954" stop-color="#CCCCDC"/><stop offset="1" stop-color="#C8C8D9"/></linearGradient><linearGradient id="t" x1="95.395" x2="56.612" y1="6.049" y2="58.362" gradientUnits="userSpaceOnUse"><stop stop-color="#fff"/><stop offset=".022" stop-color="#FEFEFE"/><stop offset=".515" stop-color="#F3F2F6"/><stop offset="1" stop-color="#EFEEF3"/></linearGradient><linearGradient id="u" x1="52.062" x2="29.547" y1="58.438" y2="102.356" gradientUnits="userSpaceOnUse"><stop stop-color="#fff"/><stop offset="1" stop-color="#EFEEF3"/></linearGradient><linearGradient id="v" x1="132.799" x2="31.103" y1="29.967" y2="150.033" gradientUnits="userSpaceOnUse"><stop stop-color="#FF87A2"/><stop offset=".584" stop-color="#FF668D"/><stop offset="1" stop-color="#FF5481"/></linearGradient><linearGradient id="x" x1="92.134" x2="89.512" y1="89.186" y2="66.399" gradientUnits="userSpaceOnUse"><stop stop-color="#fff"/><stop offset="1" stop-color="#EFEEF3"/></linearGradient><linearGradient id="y" x1="98.678" x2="79.727" y1="87.148" y2="87.148" gradientUnits="userSpaceOnUse"><stop stop-color="#D4D4DC"/><stop offset=".628" stop-color="#ADACBB"/><stop offset="1" stop-color="#9B9AAC"/></linearGradient><linearGradient id="z" x1="98.682" x2="79.73" y1="87.161" y2="87.161" gradientUnits="userSpaceOnUse"><stop stop-color="#D4D4DC"/><stop offset=".628" stop-color="#ADACBB"/><stop offset="1" stop-color="#9B9AAC"/></linearGradient><linearGradient id="A" x1="92.134" x2="89.512" y1="79.917" y2="57.13" gradientUnits="userSpaceOnUse"><stop stop-color="#fff"/><stop offset="1" stop-color="#EFEEF3"/></linearGradient><linearGradient id="B" x1="98.678" x2="79.727" y1="77.88" y2="77.88" gradientUnits="userSpaceOnUse"><stop stop-color="#D4D4DC"/><stop offset=".628" stop-color="#ADACBB"/><stop offset="1" stop-color="#9B9AAC"/></linearGradient><linearGradient id="C" x1="103.292" x2="91.371" y1="80.219" y2="85.834" gradientUnits="userSpaceOnUse"><stop stop-color="#3478FB"/><stop offset=".396" stop-color="#2C69ED"/><stop offset="1" stop-color="#2357DB"/></linearGradient><linearGradient id="D" x1="98.682" x2="79.73" y1="77.892" y2="77.892" gradientUnits="userSpaceOnUse"><stop stop-color="#D4D4DC"/><stop offset=".628" stop-color="#ADACBB"/><stop offset="1" stop-color="#9B9AAC"/></linearGradient><linearGradient id="E" x1="92.134" x2="89.512" y1="70.65" y2="47.864" gradientUnits="userSpaceOnUse"><stop stop-color="#fff"/><stop offset="1" stop-color="#EFEEF3"/></linearGradient><linearGradient id="F" x1="98.678" x2="79.727" y1="68.612" y2="68.612" gradientUnits="userSpaceOnUse"><stop stop-color="#D4D4DC"/><stop offset=".628" stop-color="#ADACBB"/><stop offset="1" stop-color="#9B9AAC"/></linearGradient><linearGradient id="G" x1="103.292" x2="91.371" y1="70.954" y2="76.569" gradientUnits="userSpaceOnUse"><stop stop-color="#3478FB"/><stop offset=".396" stop-color="#2C69ED"/><stop offset="1" stop-color="#2357DB"/></linearGradient><linearGradient id="H" x1="98.682" x2="79.73" y1="68.624" y2="68.624" gradientUnits="userSpaceOnUse"><stop stop-color="#D4D4DC"/><stop offset=".628" stop-color="#ADACBB"/><stop offset="1" stop-color="#9B9AAC"/></linearGradient><linearGradient id="I" x1="92.134" x2="89.512" y1="61.384" y2="38.597" gradientUnits="userSpaceOnUse"><stop stop-color="#fff"/><stop offset="1" stop-color="#EFEEF3"/></linearGradient><linearGradient id="J" x1="98.678" x2="79.727" y1="59.348" y2="59.348" gradientUnits="userSpaceOnUse"><stop stop-color="#D4D4DC"/><stop offset=".628" stop-color="#ADACBB"/><stop offset="1" stop-color="#9B9AAC"/></linearGradient><linearGradient id="K" x1="103.292" x2="91.371" y1="61.687" y2="67.302" gradientUnits="userSpaceOnUse"><stop stop-color="#3478FB"/><stop offset=".396" stop-color="#2C69ED"/><stop offset="1" stop-color="#2357DB"/></linearGradient><linearGradient id="L" x1="98.682" x2="79.73" y1="59.358" y2="59.358" gradientUnits="userSpaceOnUse"><stop stop-color="#D4D4DC"/><stop offset=".628" stop-color="#ADACBB"/><stop offset="1" stop-color="#9B9AAC"/></linearGradient><linearGradient id="M" x1="92.134" x2="89.512" y1="52.115" y2="29.329" gradientUnits="userSpaceOnUse"><stop stop-color="#fff"/><stop offset="1" stop-color="#EFEEF3"/></linearGradient><linearGradient id="N" x1="98.678" x2="79.727" y1="50.078" y2="50.078" gradientUnits="userSpaceOnUse"><stop stop-color="#D4D4DC"/><stop offset=".628" stop-color="#ADACBB"/><stop offset="1" stop-color="#9B9AAC"/></linearGradient><linearGradient id="O" x1="103.292" x2="91.371" y1="52.417" y2="58.032" gradientUnits="userSpaceOnUse"><stop stop-color="#3478FB"/><stop offset=".396" stop-color="#2C69ED"/><stop offset="1" stop-color="#2357DB"/></linearGradient><linearGradient id="P" x1="98.682" x2="79.73" y1="50.09" y2="50.09" gradientUnits="userSpaceOnUse"><stop stop-color="#D4D4DC"/><stop offset=".628" stop-color="#ADACBB"/><stop offset="1" stop-color="#9B9AAC"/></linearGradient><linearGradient id="Q" x1="92.134" x2="89.512" y1="42.849" y2="20.062" gradientUnits="userSpaceOnUse"><stop stop-color="#fff"/><stop offset="1" stop-color="#EFEEF3"/></linearGradient><linearGradient id="R" x1="98.678" x2="79.727" y1="40.811" y2="40.811" gradientUnits="userSpaceOnUse"><stop stop-color="#D4D4DC"/><stop offset=".628" stop-color="#ADACBB"/><stop offset="1" stop-color="#9B9AAC"/></linearGradient><linearGradient id="S" x1="103.292" x2="91.371" y1="43.15" y2="48.765" gradientUnits="userSpaceOnUse"><stop stop-color="#3478FB"/><stop offset=".396" stop-color="#2C69ED"/><stop offset="1" stop-color="#2357DB"/></linearGradient><linearGradient id="T" x1="98.682" x2="79.73" y1="40.823" y2="40.823" gradientUnits="userSpaceOnUse"><stop stop-color="#D4D4DC"/><stop offset=".628" stop-color="#ADACBB"/><stop offset="1" stop-color="#9B9AAC"/></linearGradient><linearGradient id="U" x1="59.163" x2="78.532" y1="28.416" y2="28.416" gradientUnits="userSpaceOnUse"><stop stop-color="#fff"/><stop offset="1" stop-color="#EFEEF3"/></linearGradient><linearGradient id="V" x1="95.104" x2="85.913" y1="31.428" y2="31.428" gradientUnits="userSpaceOnUse"><stop stop-color="#D4D4DC"/><stop offset=".628" stop-color="#ADACBB"/><stop offset="1" stop-color="#9B9AAC"/></linearGradient><linearGradient id="W" x1="86.865" x2="93.166" y1="22.874" y2="22.874" gradientUnits="userSpaceOnUse"><stop stop-color="#D4D4DC"/><stop offset=".628" stop-color="#ADACBB"/><stop offset="1" stop-color="#9B9AAC"/></linearGradient><linearGradient id="X" x1="83.751" x2="100.831" y1="27.013" y2="27.013" gradientUnits="userSpaceOnUse"><stop stop-color="#3478FB"/><stop offset=".396" stop-color="#2C69ED"/><stop offset="1" stop-color="#2357DB"/></linearGradient><linearGradient id="Y" x1="83.755" x2="100.835" y1="24.456" y2="24.456" gradientUnits="userSpaceOnUse"><stop stop-color="#3478FB"/><stop offset=".396" stop-color="#2C69ED"/><stop offset="1" stop-color="#2357DB"/></linearGradient><linearGradient id="Z" x1="104.405" x2="104.66" y1="82.87" y2="83.441" gradientUnits="userSpaceOnUse"><stop stop-color="#D4D4DC"/><stop offset=".628" stop-color="#ADACBB"/><stop offset="1" stop-color="#9B9AAC"/></linearGradient><linearGradient id="aa" x1="99.953" x2="100.207" y1="85.449" y2="86.021" gradientUnits="userSpaceOnUse"><stop stop-color="#D4D4DC"/><stop offset=".628" stop-color="#ADACBB"/><stop offset="1" stop-color="#9B9AAC"/></linearGradient><linearGradient id="ab" x1="95.501" x2="95.755" y1="88.029" y2="88.601" gradientUnits="userSpaceOnUse"><stop stop-color="#D4D4DC"/><stop offset=".628" stop-color="#ADACBB"/><stop offset="1" stop-color="#9B9AAC"/></linearGradient><linearGradient id="ac" x1="108.853" x2="109.107" y1="80.294" y2="80.866" gradientUnits="userSpaceOnUse"><stop stop-color="#D4D4DC"/><stop offset=".628" stop-color="#ADACBB"/><stop offset="1" stop-color="#9B9AAC"/></linearGradient><linearGradient id="ad" x1="113.292" x2="113.547" y1="77.715" y2="78.286" gradientUnits="userSpaceOnUse"><stop stop-color="#D4D4DC"/><stop offset=".628" stop-color="#ADACBB"/><stop offset="1" stop-color="#9B9AAC"/></linearGradient><linearGradient id="ae" x1="125.42" x2="121.992" y1="141.97" y2="141.97" gradientUnits="userSpaceOnUse"><stop stop-color="#D4D4DC"/><stop offset=".628" stop-color="#ADACBB"/><stop offset="1" stop-color="#9B9AAC"/></linearGradient><linearGradient id="af" x1="123.401" x2="118.927" y1="145.261" y2="145.261" gradientUnits="userSpaceOnUse"><stop stop-color="#D4D4DC"/><stop offset=".628" stop-color="#ADACBB"/><stop offset="1" stop-color="#9B9AAC"/></linearGradient><linearGradient id="ag" x1="172.743" x2="171.472" y1="132.739" y2="100.984" gradientUnits="userSpaceOnUse"><stop stop-color="#E6E6EF"/><stop offset=".435" stop-color="#E3E3ED"/><stop offset=".717" stop-color="#DBDBE7"/><stop offset=".954" stop-color="#CCCCDC"/><stop offset="1" stop-color="#C8C8D9"/></linearGradient><linearGradient id="ah" x1="157.119" x2="170.175" y1="102.673" y2="102.673" gradientUnits="userSpaceOnUse"><stop stop-color="#E6E6EF"/><stop offset=".435" stop-color="#E3E3ED"/><stop offset=".717" stop-color="#DBDBE7"/><stop offset=".954" stop-color="#CCCCDC"/><stop offset="1" stop-color="#C8C8D9"/></linearGradient><linearGradient id="ai" x1="152.156" x2="158.219" y1="109.853" y2="109.853" gradientUnits="userSpaceOnUse"><stop stop-color="#2C8AFB"/><stop offset=".584" stop-color="#2669E7"/><stop offset="1" stop-color="#2357DB"/></linearGradient><linearGradient id="aj" x1="157.398" x2="166.639" y1="107.827" y2="91.55" gradientUnits="userSpaceOnUse"><stop stop-color="#78C0FF"/><stop offset="1" stop-color="#458BFE"/></linearGradient><linearGradient id="ak" x1="157.175" x2="177.948" y1="109.826" y2="109.826" gradientUnits="userSpaceOnUse"><stop stop-color="#2C8AFB"/><stop offset=".584" stop-color="#2669E7"/><stop offset="1" stop-color="#2357DB"/></linearGradient><linearGradient id="al" x1="167.623" x2="181.943" y1="110.364" y2="94.514" gradientUnits="userSpaceOnUse"><stop stop-color="#fff"/><stop offset=".022" stop-color="#FEFEFE"/><stop offset=".515" stop-color="#F3F2F6"/><stop offset="1" stop-color="#EFEEF3"/></linearGradient><linearGradient id="am" x1="164.736" x2="187.83" y1="111.281" y2="111.281" gradientUnits="userSpaceOnUse"><stop stop-color="#E6E6EF"/><stop offset=".435" stop-color="#E3E3ED"/><stop offset=".717" stop-color="#DBDBE7"/><stop offset=".954" stop-color="#CCCCDC"/><stop offset="1" stop-color="#C8C8D9"/></linearGradient><linearGradient id="an" x1="160.853" x2="160.853" y1="109.511" y2="92.408" gradientUnits="userSpaceOnUse"><stop stop-color="#78C0FF"/><stop offset="1"/></linearGradient><linearGradient id="ao" x1="168.078" x2="168.078" y1="112.128" y2="92.382" gradientUnits="userSpaceOnUse"><stop stop-color="#fff"/><stop offset=".022" stop-color="#FEFEFE"/><stop offset=".515" stop-color="#F3F2F6"/><stop offset="1" stop-color="#EFEEF3"/></linearGradient><linearGradient id="ap" x1="176.763" x2="176.763" y1="112.129" y2="92.383" gradientUnits="userSpaceOnUse"><stop stop-color="#fff"/><stop offset=".022" stop-color="#FEFEFE"/><stop offset=".515" stop-color="#F3F2F6"/><stop offset="1" stop-color="#EFEEF3"/></linearGradient><linearGradient id="aq" x1="-7.24" x2="23.804" y1="134.15" y2="163.568" gradientUnits="userSpaceOnUse"><stop stop-color="#E6E6EF"/><stop offset=".435" stop-color="#E3E3ED"/><stop offset=".717" stop-color="#DBDBE7"/><stop offset=".954" stop-color="#CCCCDC"/><stop offset="1" stop-color="#C8C8D9"/></linearGradient><linearGradient id="ar" x1="31.701" x2="31.701" y1="136.6" y2="123.363" gradientUnits="userSpaceOnUse"><stop stop-color="#fff"/><stop offset=".022" stop-color="#FEFEFE"/><stop offset=".515" stop-color="#F3F2F6"/><stop offset="1" stop-color="#EFEEF3"/></linearGradient><linearGradient id="as" x1="31.753" x2="44.12" y1="141.914" y2="141.914" gradientUnits="userSpaceOnUse"><stop stop-color="#78C0FF"/><stop offset="1" stop-color="#458BFE"/></linearGradient><linearGradient id="at" x1="22.974" x2="31.136" y1="141.914" y2="141.914" gradientUnits="userSpaceOnUse"><stop stop-color="#78C0FF"/><stop offset="1" stop-color="#458BFE"/></linearGradient><linearGradient id="au" x1="20.338" x2="20.338" y1="147.352" y2="135.97" gradientUnits="userSpaceOnUse"><stop stop-color="#fff"/><stop offset=".022" stop-color="#FEFEFE"/><stop offset=".515" stop-color="#F3F2F6"/><stop offset="1" stop-color="#EFEEF3"/></linearGradient><linearGradient id="av" x1="20.505" x2="28.555" y1="151.794" y2="151.794" gradientUnits="userSpaceOnUse"><stop stop-color="#FF87A2"/><stop offset=".584" stop-color="#FF668D"/><stop offset="1" stop-color="#FF5481"/></linearGradient><linearGradient id="aw" x1="11.234" x2="20.134" y1="151.794" y2="151.794" gradientUnits="userSpaceOnUse"><stop stop-color="#FF87A2"/><stop offset=".584" stop-color="#FF668D"/><stop offset="1" stop-color="#FF5481"/></linearGradient><linearGradient id="ax" x1="8.969" x2="8.969" y1="134.875" y2="123.196" gradientUnits="userSpaceOnUse"><stop stop-color="#fff"/><stop offset=".022" stop-color="#FEFEFE"/><stop offset=".515" stop-color="#F3F2F6"/><stop offset="1" stop-color="#EFEEF3"/></linearGradient><linearGradient id="ay" x1="9.128" x2="19.571" y1="148.408" y2="148.408" gradientUnits="userSpaceOnUse"><stop stop-color="#78C0FF"/><stop offset="1" stop-color="#458BFE"/></linearGradient><linearGradient id="az" x1=".105" x2="12.098" y1="148.408" y2="148.408" gradientUnits="userSpaceOnUse"><stop stop-color="#78C0FF"/><stop offset="1" stop-color="#458BFE"/></linearGradient><linearGradient id="aA" x1="181.92" x2="138.186" y1="159.988" y2="159.988" gradientUnits="userSpaceOnUse"><stop stop-color="#E6E6EF"/><stop offset=".435" stop-color="#E3E3ED"/><stop offset=".717" stop-color="#DBDBE7"/><stop offset=".954" stop-color="#CCCCDC"/><stop offset="1" stop-color="#C8C8D9"/></linearGradient><linearGradient id="aB" x1="74.391" x2="74.391" y1="150.492" y2="163.238" gradientUnits="userSpaceOnUse"><stop stop-color="#fff"/><stop offset=".037" stop-color="#FBFAFF"/><stop offset=".493" stop-color="#C7BAFE"/><stop offset=".827" stop-color="#A693FD"/><stop offset="1" stop-color="#9A84FD"/></linearGradient><linearGradient id="aC" x1="74.389" x2="74.389" y1="161.782" y2="225.062" gradientUnits="userSpaceOnUse"><stop stop-color="#21D4FD"/><stop offset="1" stop-color="#B721FF"/></linearGradient><linearGradient id="aD" x1="65.311" x2="118.718" y1="173.089" y2="173.089" gradientUnits="userSpaceOnUse"><stop stop-color="#397FE5"/><stop offset=".408" stop-color="#6253C9"/><stop offset="1" stop-color="#9B16A2"/></linearGradient><linearGradient id="aE" x1="65.311" x2="118.718" y1="171.302" y2="171.302" gradientUnits="userSpaceOnUse"><stop stop-color="#FBFCFC"/><stop offset="1" stop-color="#fff"/></linearGradient><linearGradient id="aF" x1="77.806" x2="71.491" y1="179.073" y2="179.073" gradientUnits="userSpaceOnUse"><stop stop-color="#FBFCFC"/><stop offset="1" stop-color="#D8E0E7"/></linearGradient><linearGradient id="aG" x1="74.392" x2="74.392" y1="151.141" y2="178.338" gradientUnits="userSpaceOnUse"><stop stop-color="#21D4FD"/><stop offset="1" stop-color="#B721FF"/></linearGradient><linearGradient id="aH" x1="77.348" x2="70.922" y1="173.211" y2="173.211" gradientUnits="userSpaceOnUse"><stop stop-color="#FBFCFC"/><stop offset="1" stop-color="#D8E0E7"/></linearGradient><linearGradient id="aI" x1="54.733" x2="53.858" y1="174.257" y2="175.678" gradientUnits="userSpaceOnUse"><stop stop-color="#21D4FD"/><stop offset="1" stop-color="#B721FF"/></linearGradient><linearGradient id="aJ" x1="62.73" x2="49.585" y1="167.84" y2="179.199" gradientUnits="userSpaceOnUse"><stop stop-color="#21D4FD"/><stop offset="1" stop-color="#B721FF"/></linearGradient><linearGradient id="aK" x1="53.874" x2="51.664" y1="174.655" y2="178.1" gradientUnits="userSpaceOnUse"><stop stop-color="#21D4FD"/><stop offset="1" stop-color="#B721FF"/></linearGradient><linearGradient id="aL" x1="59.492" x2="48.616" y1="170.805" y2="177.803" gradientUnits="userSpaceOnUse"><stop stop-color="#21D4FD"/><stop offset="1" stop-color="#B721FF"/></linearGradient><linearGradient id="aM" x1="57.078" x2="56.202" y1="175.7" y2="177.12" gradientUnits="userSpaceOnUse"><stop stop-color="#21D4FD"/><stop offset="1" stop-color="#B721FF"/></linearGradient><linearGradient id="aN" x1="64.434" x2="51.289" y1="169.808" y2="181.166" gradientUnits="userSpaceOnUse"><stop stop-color="#21D4FD"/><stop offset="1" stop-color="#B721FF"/></linearGradient><linearGradient id="aO" x1="56.189" x2="53.979" y1="176.139" y2="179.583" gradientUnits="userSpaceOnUse"><stop stop-color="#21D4FD"/><stop offset="1" stop-color="#B721FF"/></linearGradient><linearGradient id="aP" x1="60.821" x2="49.946" y1="172.865" y2="179.862" gradientUnits="userSpaceOnUse"><stop stop-color="#21D4FD"/><stop offset="1" stop-color="#B721FF"/></linearGradient><linearGradient id="aQ" x1="59.422" x2="58.547" y1="177.141" y2="178.563" gradientUnits="userSpaceOnUse"><stop stop-color="#21D4FD"/><stop offset="1" stop-color="#B721FF"/></linearGradient><linearGradient id="aR" x1="66.135" x2="52.99" y1="171.775" y2="183.134" gradientUnits="userSpaceOnUse"><stop stop-color="#21D4FD"/><stop offset="1" stop-color="#B721FF"/></linearGradient><linearGradient id="aS" x1="58.502" x2="56.291" y1="177.623" y2="181.068" gradientUnits="userSpaceOnUse"><stop stop-color="#21D4FD"/><stop offset="1" stop-color="#B721FF"/></linearGradient><linearGradient id="aT" x1="62.147" x2="51.271" y1="174.923" y2="181.921" gradientUnits="userSpaceOnUse"><stop stop-color="#21D4FD"/><stop offset="1" stop-color="#B721FF"/></linearGradient><linearGradient id="aU" x1="61.758" x2="60.883" y1="178.585" y2="180.005" gradientUnits="userSpaceOnUse"><stop stop-color="#21D4FD"/><stop offset="1" stop-color="#B721FF"/></linearGradient><linearGradient id="aV" x1="67.835" x2="54.69" y1="173.743" y2="185.101" gradientUnits="userSpaceOnUse"><stop stop-color="#21D4FD"/><stop offset="1" stop-color="#B721FF"/></linearGradient><linearGradient id="aW" x1="60.814" x2="58.604" y1="179.108" y2="182.552" gradientUnits="userSpaceOnUse"><stop stop-color="#21D4FD"/><stop offset="1" stop-color="#B721FF"/></linearGradient><linearGradient id="aX" x1="63.472" x2="52.596" y1="176.983" y2="183.98" gradientUnits="userSpaceOnUse"><stop stop-color="#21D4FD"/><stop offset="1" stop-color="#B721FF"/></linearGradient><linearGradient id="aY" x1="64.099" x2="63.223" y1="180.027" y2="181.448" gradientUnits="userSpaceOnUse"><stop stop-color="#21D4FD"/><stop offset="1" stop-color="#B721FF"/></linearGradient><linearGradient id="aZ" x1="69.535" x2="56.39" y1="175.709" y2="187.068" gradientUnits="userSpaceOnUse"><stop stop-color="#21D4FD"/><stop offset="1" stop-color="#B721FF"/></linearGradient><linearGradient id="ba" x1="63.125" x2="60.916" y1="180.592" y2="184.037" gradientUnits="userSpaceOnUse"><stop stop-color="#21D4FD"/><stop offset="1" stop-color="#B721FF"/></linearGradient><linearGradient id="bb" x1="64.797" x2="53.921" y1="179.042" y2="186.04" gradientUnits="userSpaceOnUse"><stop stop-color="#21D4FD"/><stop offset="1" stop-color="#B721FF"/></linearGradient><linearGradient id="bc" x1="66.439" x2="65.564" y1="181.47" y2="182.891" gradientUnits="userSpaceOnUse"><stop stop-color="#21D4FD"/><stop offset="1" stop-color="#B721FF"/></linearGradient><linearGradient id="bd" x1="71.236" x2="58.09" y1="177.677" y2="189.036" gradientUnits="userSpaceOnUse"><stop stop-color="#21D4FD"/><stop offset="1" stop-color="#B721FF"/></linearGradient><linearGradient id="be" x1="65.438" x2="63.227" y1="182.077" y2="185.521" gradientUnits="userSpaceOnUse"><stop stop-color="#21D4FD"/><stop offset="1" stop-color="#B721FF"/></linearGradient><linearGradient id="bf" x1="66.122" x2="55.246" y1="181.101" y2="188.099" gradientUnits="userSpaceOnUse"><stop stop-color="#21D4FD"/><stop offset="1" stop-color="#B721FF"/></linearGradient><linearGradient id="bg" x1="92.694" x2="94.998" y1="172.378" y2="175.909" gradientUnits="userSpaceOnUse"><stop stop-color="#21D4FD"/><stop offset="1" stop-color="#B721FF"/></linearGradient><linearGradient id="bh" x1="89.51" x2="98.41" y1="168.305" y2="181.676" gradientUnits="userSpaceOnUse"><stop stop-color="#21D4FD"/><stop offset="1" stop-color="#B721FF"/></linearGradient><linearGradient id="bi" x1="95.187" x2="97.167" y1="175.108" y2="179.127" gradientUnits="userSpaceOnUse"><stop stop-color="#21D4FD"/><stop offset="1" stop-color="#B721FF"/></linearGradient><linearGradient id="bj" x1="92.143" x2="99.148" y1="171.594" y2="181.809" gradientUnits="userSpaceOnUse"><stop stop-color="#21D4FD"/><stop offset="1" stop-color="#B721FF"/></linearGradient><linearGradient id="bk" x1="90.399" x2="92.703" y1="173.879" y2="177.411" gradientUnits="userSpaceOnUse"><stop stop-color="#21D4FD"/><stop offset="1" stop-color="#B721FF"/></linearGradient><linearGradient id="bl" x1="87.224" x2="96.124" y1="169.826" y2="183.197" gradientUnits="userSpaceOnUse"><stop stop-color="#21D4FD"/><stop offset="1" stop-color="#B721FF"/></linearGradient><linearGradient id="bm" x1="92.727" x2="94.707" y1="176.321" y2="180.34" gradientUnits="userSpaceOnUse"><stop stop-color="#21D4FD"/><stop offset="1" stop-color="#B721FF"/></linearGradient><linearGradient id="bn" x1="89.881" x2="96.886" y1="173.146" y2="183.36" gradientUnits="userSpaceOnUse"><stop stop-color="#21D4FD"/><stop offset="1" stop-color="#B721FF"/></linearGradient><linearGradient id="bo" x1="88.099" x2="90.403" y1="175.38" y2="178.911" gradientUnits="userSpaceOnUse"><stop stop-color="#21D4FD"/><stop offset="1" stop-color="#B721FF"/></linearGradient><linearGradient id="bp" x1="84.943" x2="93.843" y1="171.347" y2="184.718" gradientUnits="userSpaceOnUse"><stop stop-color="#21D4FD"/><stop offset="1" stop-color="#B721FF"/></linearGradient><linearGradient id="bq" x1="90.265" x2="92.246" y1="177.535" y2="181.553" gradientUnits="userSpaceOnUse"><stop stop-color="#21D4FD"/><stop offset="1" stop-color="#B721FF"/></linearGradient><linearGradient id="br" x1="87.619" x2="94.624" y1="174.696" y2="184.91" gradientUnits="userSpaceOnUse"><stop stop-color="#21D4FD"/><stop offset="1" stop-color="#B721FF"/></linearGradient><linearGradient id="bs" x1="85.803" x2="88.106" y1="176.882" y2="180.413" gradientUnits="userSpaceOnUse"><stop stop-color="#21D4FD"/><stop offset="1" stop-color="#B721FF"/></linearGradient><linearGradient id="bt" x1="82.662" x2="91.562" y1="172.869" y2="186.239" gradientUnits="userSpaceOnUse"><stop stop-color="#21D4FD"/><stop offset="1" stop-color="#B721FF"/></linearGradient><linearGradient id="bu" x1="87.808" x2="89.788" y1="178.748" y2="182.767" gradientUnits="userSpaceOnUse"><stop stop-color="#21D4FD"/><stop offset="1" stop-color="#B721FF"/></linearGradient><linearGradient id="bv" x1="85.361" x2="92.366" y1="176.247" y2="186.462" gradientUnits="userSpaceOnUse"><stop stop-color="#21D4FD"/><stop offset="1" stop-color="#B721FF"/></linearGradient><linearGradient id="bw" x1="83.503" x2="85.806" y1="178.383" y2="181.914" gradientUnits="userSpaceOnUse"><stop stop-color="#21D4FD"/><stop offset="1" stop-color="#B721FF"/></linearGradient><linearGradient id="bx" x1="85.729" x2="73.069" y1="179.777" y2="181.855" gradientUnits="userSpaceOnUse"><stop stop-color="#00D6FF"/><stop offset=".135" stop-color="#23B8F2"/><stop offset=".738" stop-color="#BC35B9"/><stop offset="1" stop-color="#F900A2"/></linearGradient><linearGradient id="by" x1="85.347" x2="87.328" y1="179.962" y2="183.98" gradientUnits="userSpaceOnUse"><stop stop-color="#21D4FD"/><stop offset="1" stop-color="#B721FF"/></linearGradient><linearGradient id="bz" x1="80.709" x2="89.609" y1="174.165" y2="187.536" gradientUnits="userSpaceOnUse"><stop stop-color="#21D4FD"/><stop offset="1" stop-color="#B721FF"/></linearGradient><linearGradient id="bA" x1="81.2" x2="83.503" y1="179.885" y2="183.415" gradientUnits="userSpaceOnUse"><stop stop-color="#21D4FD"/><stop offset="1" stop-color="#B721FF"/></linearGradient><linearGradient id="bB" x1="78.083" x2="86.983" y1="175.91" y2="189.281" gradientUnits="userSpaceOnUse"><stop stop-color="#21D4FD"/><stop offset="1" stop-color="#B721FF"/></linearGradient><linearGradient id="bC" x1="82.883" x2="84.863" y1="181.175" y2="185.194" gradientUnits="userSpaceOnUse"><stop stop-color="#21D4FD"/><stop offset="1" stop-color="#B721FF"/></linearGradient><linearGradient id="bD" x1="80.834" x2="87.839" y1="179.349" y2="189.564" gradientUnits="userSpaceOnUse"><stop stop-color="#21D4FD"/><stop offset="1" stop-color="#B721FF"/></linearGradient><linearGradient id="bE" x1="80.897" x2="82.488" y1="181.609" y2="178.876" gradientUnits="userSpaceOnUse"><stop stop-color="#9881DC"/><stop offset=".562" stop-color="#9A90BE"/><stop offset="1" stop-color="#9B9AAC"/></linearGradient><linearGradient id="bF" x1="83.281" x2="84.871" y1="180.231" y2="177.497" gradientUnits="userSpaceOnUse"><stop stop-color="#9881DC"/><stop offset=".562" stop-color="#9A90BE"/><stop offset="1" stop-color="#9B9AAC"/></linearGradient><linearGradient id="bG" x1="85.656" x2="87.246" y1="178.852" y2="176.118" gradientUnits="userSpaceOnUse"><stop stop-color="#9881DC"/><stop offset=".562" stop-color="#9A90BE"/><stop offset="1" stop-color="#9B9AAC"/></linearGradient><linearGradient id="bH" x1="88.035" x2="89.626" y1="177.473" y2="174.74" gradientUnits="userSpaceOnUse"><stop stop-color="#9881DC"/><stop offset=".562" stop-color="#9A90BE"/><stop offset="1" stop-color="#9B9AAC"/></linearGradient><linearGradient id="bI" x1="90.414" x2="92.004" y1="176.095" y2="173.361" gradientUnits="userSpaceOnUse"><stop stop-color="#9881DC"/><stop offset=".562" stop-color="#9A90BE"/><stop offset="1" stop-color="#9B9AAC"/></linearGradient><linearGradient id="bJ" x1="92.793" x2="94.384" y1="174.717" y2="171.983" gradientUnits="userSpaceOnUse"><stop stop-color="#9881DC"/><stop offset=".562" stop-color="#9A90BE"/><stop offset="1" stop-color="#9B9AAC"/></linearGradient><linearGradient id="bK" x1="60.03" x2="78.543" y1="150.576" y2="168.045" gradientUnits="userSpaceOnUse"><stop stop-color="#21D4FD"/><stop offset="1" stop-color="#B721FF"/></linearGradient><linearGradient id="bL" x1="74.392" x2="74.392" y1="174.864" y2="158.069" gradientUnits="userSpaceOnUse"><stop stop-color="#21D4FD"/><stop offset="1" stop-color="#004AA2"/></linearGradient><linearGradient id="bM" x1="240.113" x2="240.113" y1="104.931" y2="121.75" gradientUnits="userSpaceOnUse"><stop stop-color="#B17AF0"/><stop offset="1" stop-color="#4A32F0"/></linearGradient><linearGradient id="bN" x1="246.529" x2="242.594" y1="98.034" y2="111.838" gradientUnits="userSpaceOnUse"><stop stop-color="#E6E6EF"/><stop offset=".435" stop-color="#E3E3ED"/><stop offset=".717" stop-color="#DBDBE7"/><stop offset=".954" stop-color="#CCCCDC"/><stop offset="1" stop-color="#C8C8D9"/></linearGradient><linearGradient id="bO" x1="239.163" x2="230.526" y1="99.647" y2="106.815" gradientUnits="userSpaceOnUse"><stop stop-color="#E6E6EF"/><stop offset=".435" stop-color="#E3E3ED"/><stop offset=".717" stop-color="#DBDBE7"/><stop offset=".954" stop-color="#CCCCDC"/><stop offset="1" stop-color="#C8C8D9"/></linearGradient><linearGradient id="bP" x1="240.113" x2="240.113" y1="89.384" y2="106.202" gradientUnits="userSpaceOnUse"><stop stop-color="#fff"/><stop offset=".022" stop-color="#FEFEFE"/><stop offset=".515" stop-color="#F3F2F6"/><stop offset="1" stop-color="#EFEEF3"/></linearGradient><linearGradient id="bQ" x1="240.113" x2="240.113" y1="94.643" y2="103.29" gradientUnits="userSpaceOnUse"><stop stop-color="#F1DDFC"/><stop offset="1" stop-color="#C6B2F0"/></linearGradient><linearGradient id="bR" x1="141.696" x2="78.593" y1="200.624" y2="200.624" gradientUnits="userSpaceOnUse"><stop stop-color="#E6E6EF"/><stop offset=".435" stop-color="#E3E3ED"/><stop offset=".717" stop-color="#DBDBE7"/><stop offset=".954" stop-color="#CCCCDC"/><stop offset="1" stop-color="#C8C8D9"/></linearGradient><linearGradient id="bS" x1="141.696" x2="78.593" y1="197.785" y2="197.785" gradientUnits="userSpaceOnUse"><stop stop-color="#fff"/><stop offset=".381" stop-color="#F4F2F7"/><stop offset="1" stop-color="#E5E2EC"/></linearGradient><linearGradient id="bT" x1="122.533" x2="106.804" y1="204.04" y2="204.04" gradientUnits="userSpaceOnUse"><stop stop-color="#D4D4DC"/><stop offset=".359" stop-color="#C3C2CD"/><stop offset="1" stop-color="#9B9AAC"/></linearGradient><linearGradient id="bU" x1="109.3" x2="125.671" y1="193.447" y2="208.543" gradientUnits="userSpaceOnUse"><stop stop-color="#D4D4DC"/><stop offset=".359" stop-color="#C3C2CD"/><stop offset="1" stop-color="#9B9AAC"/></linearGradient><linearGradient id="bV" x1="115.944" x2="132.314" y1="189.581" y2="204.676" gradientUnits="userSpaceOnUse"><stop stop-color="#D4D4DC"/><stop offset=".359" stop-color="#C3C2CD"/><stop offset="1" stop-color="#9B9AAC"/></linearGradient><linearGradient id="bW" x1="122.587" x2="138.958" y1="185.715" y2="200.811" gradientUnits="userSpaceOnUse"><stop stop-color="#D4D4DC"/><stop offset=".359" stop-color="#C3C2CD"/><stop offset="1" stop-color="#9B9AAC"/></linearGradient><linearGradient id="bX" x1="102.453" x2="108.245" y1="196.576" y2="213.805" gradientUnits="userSpaceOnUse"><stop stop-color="#D4D4DC"/><stop offset=".359" stop-color="#C3C2CD"/><stop offset="1" stop-color="#9B9AAC"/></linearGradient><linearGradient id="bY" x1="99.407" x2="113.969" y1="198.588" y2="206.436" gradientUnits="userSpaceOnUse"><stop stop-color="#D4D4DC"/><stop offset=".359" stop-color="#C3C2CD"/><stop offset="1" stop-color="#9B9AAC"/></linearGradient></defs></svg>