<svg width="1170" height="250" viewBox="0 0 1170 250" fill="none" xmlns="http://www.w3.org/2000/svg">
<path d="M2.7234 96.4669L64.211 34.7921L63.996 33.716L1.81495 95.5611L1.64844 97.3995L2.7234 96.4669Z" fill="#D9D9D9"/>
<path d="M3.73238 97.5672L1.64844 97.3995L46.2568 145.38L47.1638 144.927L3.73238 97.5672Z" fill="#D9D9D9"/>
<path fill-rule="evenodd" clip-rule="evenodd" d="M1058.33 140.533L965.027 60.1153L964.74 59.9001L913.429 94.4774L739.213 2.22339L738.425 1.79297L749.461 114.564L579.403 34.5769L577.969 32.7117L578.543 34.8638L578.471 35.079L509.889 56.6002L478.213 15.0643L477.783 14.4904L380.392 97.2034L64.4976 33.716L64.211 34.7921L149.563 108.394L2.7234 96.4669L3.73238 97.5672L150.781 109.399L244.087 189.816L244.374 190.031L295.685 155.454L469.9 247.708L470.689 248.138L459.652 135.368L629.711 215.355L631.144 217.291L630.571 215.139L630.643 214.924L699.225 193.403L730.901 234.939L731.33 235.513L828.722 152.8L1144.69 216.215L1144.9 216.431L1145.19 216.215L1144.9 215.139L1059.55 141.537L1058.33 140.533L1058.05 141.465L1143.25 214.924L831.947 152.441L996.416 139.313H996.559L1058.05 141.465L1058.33 140.533ZM964.525 61.1914L914.432 94.9796L995.412 137.878L964.525 61.1914ZM830.298 151.652L994.695 138.524L913.572 95.5535L830.298 151.652ZM996.702 138.452L1056.9 140.533L965.958 62.1239L996.702 138.452ZM828.65 151.58L912.569 95.0513L740.217 3.80161L828.65 151.58ZM756.341 174.464L826.715 152.369L825.21 152.082L826.787 151.939L750.608 116.142L756.341 174.464ZM755.41 174.68L749.605 115.64L580.621 36.1551L699.512 192.255L755.41 174.68ZM731.402 234.078L826.5 153.374L700.157 193.116L731.402 234.078ZM739.715 4.66246L750.536 115.066L827.432 151.222L739.715 4.66246ZM580.191 37.1594L630.284 214.063L698.58 192.542L580.191 37.1594ZM578.901 35.8681L510.534 57.3176L628.923 212.7L578.901 35.8681ZM458.578 134.865L381.754 98.7099L469.399 245.269L458.578 134.865ZM452.773 75.4671L382.399 97.5621L383.904 97.8491L382.327 97.9925L458.506 133.789L452.773 75.4671ZM628.421 213.705L509.531 57.6045L453.704 75.2518L459.509 134.292L628.421 213.705ZM477.712 15.7817L382.614 96.5578L508.957 56.8154L477.712 15.7817ZM468.825 246.13L380.392 98.3512L296.545 154.88L468.825 246.13ZM244.589 188.74L294.682 154.952L213.63 112.053L244.589 188.74ZM378.816 98.2795L214.419 111.407L295.542 154.378L378.816 98.2795ZM212.699 110.618L377.167 97.4904L65.9309 35.0073L151.068 108.466L212.555 110.618H212.699ZM212.412 111.479L152.214 109.399L243.156 187.807L212.412 111.479Z" fill="#D9D9D9"/>
<path d="M470.118 250.004C470.047 250.004 469.903 250.004 469.832 250.004C469.115 249.932 468.47 249.573 468.04 249C467.61 248.426 467.395 247.78 467.467 247.063C467.538 246.202 468.04 245.484 468.757 245.054C469.187 244.839 469.617 244.695 470.118 244.695C470.19 244.695 470.333 244.695 470.405 244.695C471.122 244.767 471.767 245.126 472.197 245.7C472.626 246.274 472.841 246.919 472.77 247.637C472.698 248.497 472.197 249.215 471.48 249.645C471.05 249.86 470.548 250.004 470.118 250.004Z" fill="#666666"/>
<path d="M630 217.507C629.928 217.507 629.856 217.507 629.713 217.507C629.068 217.436 628.423 217.149 627.993 216.575C627.563 216.073 627.348 215.427 627.42 214.71C627.491 213.921 627.921 213.203 628.638 212.773C628.996 212.558 629.426 212.414 629.928 212.414C630 212.414 630.071 212.414 630.143 212.414C630.788 212.486 631.433 212.844 631.791 213.347C632.221 213.849 632.436 214.494 632.365 215.212C632.293 216.001 631.863 216.718 631.146 217.149C630.931 217.364 630.501 217.507 630 217.507Z" fill="#666666"/>
<path d="M509.754 60.3313C509.682 60.3313 509.539 60.3313 509.395 60.3313C508.536 60.2596 507.747 59.8292 507.246 59.1835C506.672 58.5379 506.457 57.6771 506.529 56.8162C506.601 55.7402 507.246 54.8793 508.106 54.3054C508.607 54.0185 509.18 53.875 509.754 53.875C509.825 53.875 509.969 53.875 510.04 53.875C510.9 53.9467 511.689 54.3772 512.19 55.0228C512.764 55.7402 512.979 56.5293 512.907 57.3901C512.764 58.3944 512.19 59.327 511.33 59.8292C510.9 60.1879 510.399 60.3313 509.754 60.3313Z" fill="#666666"/>
<path d="M458.933 137.519C458.79 137.519 458.718 137.519 458.575 137.519C457.715 137.447 456.927 137.017 456.425 136.371C455.852 135.725 455.637 134.865 455.709 134.004C455.78 132.928 456.425 132.067 457.285 131.493C457.787 131.206 458.36 131.062 458.933 131.062C459.077 131.062 459.148 131.062 459.292 131.062C460.152 131.134 460.94 131.565 461.442 132.21C462.015 132.928 462.23 133.717 462.158 134.578C462.015 135.654 461.513 136.515 460.582 137.088C460.08 137.375 459.578 137.519 458.933 137.519Z" fill="#666666"/>
<path d="M295.473 158.252C295.329 158.252 295.258 158.252 295.114 158.252C294.254 158.18 293.466 157.75 292.964 157.104C292.391 156.458 292.176 155.598 292.248 154.737C292.391 153.661 292.893 152.8 293.824 152.298C294.326 152.011 294.899 151.867 295.473 151.867C295.616 151.867 295.688 151.867 295.831 151.867C296.691 151.939 297.479 152.369 297.981 153.015C298.482 153.661 298.769 154.521 298.697 155.382C298.626 156.387 297.981 157.319 297.121 157.821C296.619 158.108 296.046 158.252 295.473 158.252Z" fill="#666666"/>
<path d="M150.707 112.199C150.564 112.199 150.492 112.199 150.349 112.199C149.489 112.127 148.7 111.696 148.199 111.051C147.625 110.405 147.41 109.544 147.482 108.683C147.554 107.679 148.199 106.746 149.059 106.173C149.56 105.886 150.134 105.742 150.707 105.742C150.779 105.742 150.922 105.742 150.994 105.742C151.854 105.814 152.642 106.244 153.144 106.89C153.717 107.536 153.932 108.396 153.86 109.257C153.788 110.262 153.143 111.194 152.284 111.696C151.854 112.055 151.352 112.199 150.707 112.199Z" fill="#666666"/>
<path d="M221.723 69.011C221.651 69.011 221.508 69.011 221.364 69.011C220.504 68.9393 219.716 68.5089 219.214 67.8632C218.641 67.2176 218.426 66.3568 218.498 65.4959C218.569 64.4199 219.143 63.559 220.074 62.9851C220.576 62.6982 221.149 62.5547 221.723 62.5547C221.866 62.5547 221.938 62.5547 222.081 62.5547C222.941 62.6264 223.729 63.0569 224.302 63.7025C224.876 64.3481 225.091 65.209 225.019 66.0698C224.876 67.1459 224.374 68.0067 223.443 68.5089C222.869 68.8676 222.296 69.011 221.723 69.011Z" fill="#666666"/>
<path d="M453.277 78.0501C453.134 78.0501 453.062 78.0501 452.919 78.0501C452.059 77.9784 451.271 77.5479 450.769 76.9023C450.196 76.2567 449.981 75.3958 450.052 74.535C450.124 73.4589 450.769 72.5981 451.629 72.0242C452.131 71.7372 452.704 71.5938 453.277 71.5938C453.421 71.5938 453.492 71.5938 453.636 71.5938C454.496 71.6655 455.284 72.0959 455.785 72.7415C456.359 73.4589 456.574 74.248 456.502 75.1089C456.359 76.1132 455.785 77.0458 454.926 77.5479C454.424 77.9066 453.851 78.0501 453.277 78.0501Z" fill="#666666"/>
<path d="M212.765 113.632C212.694 113.632 212.622 113.632 212.479 113.632C211.762 113.561 211.189 113.274 210.759 112.7C210.329 112.198 210.114 111.48 210.185 110.835C210.257 110.046 210.759 109.328 211.475 108.898C211.834 108.683 212.335 108.539 212.765 108.539C212.837 108.539 212.909 108.539 213.052 108.539C213.697 108.611 214.342 108.969 214.772 109.472C215.202 109.974 215.417 110.691 215.345 111.337C215.274 112.198 214.844 112.843 214.055 113.274C213.625 113.489 213.195 113.632 212.765 113.632Z" fill="#666666"/>
<path d="M158.734 55.8824C158.662 55.8824 158.591 55.8824 158.447 55.8824C157.731 55.8107 157.158 55.5237 156.728 54.9498C156.298 54.4476 156.083 53.7303 156.154 53.0846C156.226 52.2955 156.728 51.5782 157.444 51.1477C157.802 50.9325 158.304 50.7891 158.734 50.7891C158.806 50.7891 158.877 50.7891 159.021 50.7891C159.666 50.8608 160.311 51.2195 160.741 51.7216C161.171 52.2238 161.386 52.9412 161.314 53.5868C161.242 54.4477 160.812 55.0933 160.024 55.5237C159.666 55.7389 159.236 55.8824 158.734 55.8824Z" fill="#666666"/>
<path d="M2.59348 98.3902C2.52182 98.3902 2.45016 98.3902 2.30683 98.3902C1.59019 98.3185 1.01688 98.0315 0.586891 97.4576C0.156908 96.9555 -0.0580836 96.2381 0.0135804 95.5925C0.0852443 94.8034 0.586892 94.086 1.30353 93.6556C1.66185 93.4403 2.1635 93.2969 2.59348 93.2969C2.66515 93.2969 2.73681 93.2969 2.88014 93.2969C3.52511 93.3686 4.17009 93.7273 4.60007 94.2295C5.03006 94.7316 5.24505 95.449 5.17338 96.0946C5.10172 96.9555 4.67174 97.6011 3.88344 98.0315C3.45345 98.2467 3.02347 98.3902 2.59348 98.3902Z" fill="#666666"/>
<path d="M338.828 128.339C338.756 128.339 338.685 128.339 338.541 128.339C337.825 128.268 337.251 127.981 336.821 127.407C336.391 126.905 336.176 126.187 336.248 125.542C336.32 124.753 336.75 124.035 337.538 123.605C337.896 123.39 338.398 123.246 338.828 123.246C338.9 123.246 338.971 123.246 339.115 123.246C339.759 123.318 340.404 123.677 340.834 124.179C341.264 124.681 341.479 125.398 341.408 126.044C341.336 126.905 340.906 127.55 340.118 127.981C339.688 128.268 339.258 128.339 338.828 128.339Z" fill="#666666"/>
<path d="M286.875 107.82C286.803 107.82 286.731 107.82 286.588 107.82C285.871 107.748 285.298 107.461 284.868 106.887C284.438 106.385 284.223 105.668 284.295 105.022C284.366 104.233 284.796 103.516 285.585 103.085C285.943 102.87 286.445 102.727 286.875 102.727C286.946 102.727 287.018 102.727 287.161 102.727C287.806 102.798 288.451 103.157 288.881 103.659C289.311 104.161 289.526 104.879 289.455 105.524C289.383 106.385 288.953 107.031 288.165 107.461C287.735 107.748 287.305 107.82 286.875 107.82Z" fill="#666666"/>
<path d="M64.2798 37.0895C64.2081 37.0895 64.0648 37.0895 63.9931 37.0895C63.2048 37.0178 62.4882 36.6591 61.9865 36.0134C61.4849 35.4395 61.2699 34.6504 61.3416 33.8613C61.4132 32.9287 61.9865 32.0679 62.7748 31.6375C63.2048 31.3505 63.7065 31.207 64.2081 31.207C64.2798 31.207 64.4231 31.207 64.4948 31.207C65.2831 31.2788 65.9997 31.6375 66.5014 32.2831C67.003 32.9287 67.218 33.6461 67.1463 34.4352C67.0747 35.3678 66.5014 36.1569 65.7131 36.6591C65.2831 36.946 64.7814 37.0895 64.2798 37.0895Z" fill="#666666"/>
<path d="M244.375 191.968C244.303 191.968 244.231 191.968 244.088 191.968C243.443 191.897 242.798 191.61 242.368 191.036C241.938 190.534 241.723 189.888 241.795 189.171C241.866 188.381 242.296 187.664 243.013 187.234C243.371 187.018 243.801 186.875 244.303 186.875C244.375 186.875 244.446 186.875 244.59 186.875C245.235 186.947 245.88 187.234 246.31 187.808C246.74 188.31 246.955 188.955 246.883 189.673C246.811 190.462 246.381 191.179 245.665 191.61C245.235 191.897 244.805 191.968 244.375 191.968Z" fill="#666666"/>
<path d="M369.931 196.418C369.86 196.418 369.788 196.418 369.716 196.418C369.143 196.346 368.641 196.059 368.283 195.628C367.925 195.198 367.781 194.624 367.781 194.05C367.853 193.333 368.211 192.759 368.856 192.4C369.215 192.185 369.573 192.113 369.931 192.113C370.003 192.113 370.074 192.113 370.146 192.113C370.719 192.185 371.221 192.472 371.579 192.902C371.938 193.333 372.153 193.907 372.081 194.481C372.009 195.198 371.651 195.772 371.006 196.131C370.719 196.346 370.361 196.418 369.931 196.418Z" fill="#666666"/>
<path d="M380.541 100.001C380.47 100.001 380.398 100.001 380.326 100.001C379.681 99.9296 379.18 99.6427 378.75 99.1405C378.391 98.6383 378.176 98.0644 378.248 97.4188C378.32 96.7014 378.75 96.0558 379.395 95.6971C379.753 95.4819 380.111 95.4102 380.541 95.4102C380.613 95.4102 380.685 95.4102 380.756 95.4102C381.401 95.4819 381.903 95.7689 382.333 96.271C382.691 96.7732 382.906 97.3471 382.835 97.9927C382.763 98.7101 382.333 99.3557 381.688 99.7144C381.401 99.8579 380.971 100.001 380.541 100.001Z" fill="#666666"/>
<path d="M542.776 102.798C542.704 102.798 542.632 102.798 542.561 102.798C541.916 102.726 541.414 102.44 540.984 101.937C540.626 101.435 540.411 100.861 540.482 100.216C540.554 99.4983 540.984 98.8527 541.629 98.494C541.987 98.2788 542.346 98.207 542.776 98.207C542.847 98.207 542.919 98.207 542.991 98.207C543.636 98.2788 544.137 98.5657 544.567 99.0679C544.926 99.57 545.141 100.144 545.069 100.79C544.997 101.507 544.567 102.153 543.922 102.511C543.564 102.655 543.134 102.798 542.776 102.798Z" fill="#666666"/>
<path d="M425.541 175.254C425.47 175.254 425.398 175.254 425.326 175.254C424.681 175.182 424.18 174.895 423.75 174.393C423.391 173.891 423.176 173.317 423.248 172.743C423.32 172.026 423.75 171.38 424.395 171.021C424.753 170.806 425.111 170.734 425.541 170.734C425.613 170.734 425.685 170.734 425.756 170.734C426.401 170.806 426.903 171.093 427.333 171.595C427.691 172.097 427.906 172.671 427.835 173.317C427.763 174.034 427.333 174.68 426.688 175.039C426.33 175.11 425.9 175.254 425.541 175.254Z" fill="#666666"/>
<path d="M662.034 145.984C661.962 145.984 661.89 145.984 661.819 145.984C661.174 145.913 660.672 145.626 660.242 145.123C659.884 144.621 659.669 144.047 659.74 143.473C659.812 142.756 660.242 142.11 660.887 141.752C661.245 141.537 661.604 141.465 662.034 141.465C662.105 141.465 662.177 141.465 662.249 141.465C662.894 141.537 663.395 141.824 663.825 142.326C664.183 142.828 664.398 143.402 664.327 144.047C664.255 144.765 663.825 145.41 663.18 145.769C662.822 145.913 662.464 145.984 662.034 145.984Z" fill="#666666"/>
<path d="M789.526 89.3138C789.454 89.3138 789.382 89.3138 789.311 89.3138C788.666 89.2421 788.164 88.9552 787.734 88.453C787.376 87.9508 787.161 87.3769 787.232 86.7313C787.304 86.0139 787.734 85.3683 788.379 85.0096C788.737 84.7944 789.096 84.7227 789.526 84.7227C789.597 84.7227 789.669 84.7227 789.741 84.7227C790.386 84.7944 790.887 85.0814 791.317 85.5835C791.676 86.0857 791.891 86.6596 791.819 87.3052C791.747 88.0226 791.317 88.6682 790.672 89.0269C790.314 89.2421 789.884 89.3138 789.526 89.3138Z" fill="#666666"/>
<path d="M579.045 38.6666C578.974 38.6666 578.83 38.6666 578.759 38.6666C577.97 38.5948 577.254 38.1644 576.752 37.5905C576.251 36.9449 576.036 36.1558 576.107 35.3667C576.179 34.3623 576.752 33.5732 577.612 33.0711C578.042 32.7841 578.615 32.6406 579.117 32.6406C579.189 32.6406 579.332 32.6406 579.475 32.6406C580.264 32.7124 580.98 33.1428 581.482 33.7167C581.984 34.3623 582.199 35.1514 582.127 35.9405C582.055 36.8731 581.482 37.734 580.622 38.2361C580.12 38.5231 579.547 38.6666 579.045 38.6666Z" fill="#666666"/>
<path d="M739.001 5.30855C738.929 5.30855 738.786 5.30855 738.714 5.30855C737.998 5.23681 737.353 4.87813 736.923 4.30423C736.493 3.73033 736.278 3.0847 736.35 2.36733C736.421 1.50648 736.923 0.789109 737.639 0.358686C738.069 0.143474 738.499 0 739.001 0C739.073 0 739.144 0 739.288 0C740.004 0.0717372 740.649 0.430419 741.079 1.00432C741.509 1.57821 741.724 2.22385 741.653 2.94122C741.581 3.80206 741.079 4.51944 740.363 4.94986C739.933 5.16507 739.503 5.30855 739.001 5.30855Z" fill="#666666"/>
<path d="M699.292 196.056C699.22 196.056 699.077 196.056 699.005 196.056C698.145 195.985 697.357 195.554 696.855 194.909C696.282 194.191 696.067 193.402 696.138 192.541C696.282 191.537 696.855 190.604 697.715 190.102C698.217 189.815 698.79 189.672 699.363 189.672C699.507 189.672 699.578 189.672 699.721 189.672C700.581 189.744 701.37 190.174 701.871 190.82C702.445 191.465 702.66 192.326 702.588 193.187C702.516 194.263 701.943 195.124 701.011 195.698C700.438 195.913 699.865 196.056 699.292 196.056Z" fill="#666666"/>
<path d="M750.176 118.87C750.032 118.87 749.961 118.87 749.817 118.87C748.957 118.799 748.169 118.368 747.667 117.723C747.094 117.005 746.879 116.216 746.951 115.355C747.094 114.279 747.596 113.418 748.527 112.844C749.029 112.558 749.602 112.414 750.176 112.414C750.319 112.414 750.391 112.414 750.534 112.414C751.394 112.486 752.182 112.916 752.684 113.562C753.257 114.207 753.472 115.068 753.401 115.929C753.329 117.005 752.684 117.866 751.824 118.44C751.251 118.727 750.749 118.87 750.176 118.87Z" fill="#666666"/>
<path d="M913.642 98.1346C913.499 98.1346 913.427 98.1346 913.284 98.1346C912.424 98.0629 911.635 97.6324 911.134 96.9868C910.632 96.3412 910.345 95.4803 910.417 94.6195C910.489 93.6152 911.134 92.6826 911.994 92.1804C912.495 91.8935 913.069 91.75 913.642 91.75C913.785 91.75 913.857 91.75 914 91.75C914.86 91.8217 915.649 92.2521 916.15 92.8978C916.724 93.5434 916.939 94.4043 916.867 95.2651C916.724 96.3412 916.222 97.202 915.29 97.7042C914.789 97.9911 914.215 98.1346 913.642 98.1346Z" fill="#666666"/>
<path d="M1058.33 144.193C1058.26 144.193 1058.12 144.193 1058.04 144.193C1057.18 144.121 1056.4 143.691 1055.89 143.045C1055.32 142.4 1055.11 141.539 1055.18 140.678C1055.25 139.674 1055.89 138.741 1056.75 138.239C1057.26 137.952 1057.83 137.809 1058.4 137.809C1058.55 137.809 1058.62 137.809 1058.76 137.809C1059.62 137.88 1060.41 138.311 1060.91 138.956C1061.48 139.602 1061.7 140.463 1061.63 141.324C1061.56 142.328 1060.91 143.261 1060.05 143.835C1059.48 144.05 1058.98 144.193 1058.33 144.193Z" fill="#666666"/>
<path d="M987.39 186.733C987.319 186.733 987.247 186.733 987.104 186.733C986.387 186.661 985.814 186.302 985.384 185.8C984.954 185.226 984.739 184.581 984.81 183.863C984.882 183.003 985.384 182.285 986.1 181.855C986.53 181.64 986.96 181.496 987.462 181.496C987.534 181.496 987.605 181.496 987.749 181.496C988.394 181.568 989.039 181.927 989.469 182.429C989.899 182.931 990.114 183.648 990.042 184.366C989.97 185.226 989.54 185.944 988.752 186.374C988.322 186.589 987.892 186.733 987.39 186.733Z" fill="#666666"/>
<path d="M755.832 178.338C755.689 178.338 755.617 178.338 755.474 178.338C754.614 178.266 753.825 177.836 753.324 177.19C752.75 176.473 752.535 175.683 752.607 174.823C752.75 173.818 753.324 172.886 754.184 172.384C754.685 172.097 755.259 171.953 755.832 171.953C755.975 171.953 756.047 171.953 756.19 171.953C757.05 172.025 757.839 172.455 758.34 173.101C758.913 173.747 759.128 174.607 759.057 175.468C758.985 176.544 758.34 177.405 757.48 177.979C756.979 178.194 756.405 178.338 755.832 178.338Z" fill="#666666"/>
<path d="M684.894 87.6619C684.751 87.6619 684.679 87.6619 684.536 87.6619C683.676 87.5902 682.888 87.1598 682.386 86.5141C681.813 85.7968 681.598 85.0077 681.67 84.1468C681.813 83.1425 682.386 82.2099 683.246 81.7078C683.748 81.4208 684.321 81.2773 684.894 81.2773C685.038 81.2773 685.109 81.2773 685.253 81.2773C686.113 81.3491 686.901 81.7795 687.403 82.4251C687.976 83.0708 688.191 83.9316 688.119 84.7925C688.048 85.8685 687.403 86.7294 686.543 87.3033C686.041 87.5185 685.468 87.6619 684.894 87.6619Z" fill="#666666"/>
<path d="M996.35 141.393C996.278 141.393 996.207 141.393 996.063 141.393C994.702 141.249 993.698 140.03 993.842 138.667C993.913 137.878 994.343 137.16 995.06 136.73C995.418 136.515 995.848 136.371 996.278 136.371C996.35 136.371 996.422 136.371 996.565 136.371C997.282 136.443 997.855 136.73 998.285 137.304C998.715 137.806 998.93 138.451 998.858 139.169C998.787 139.958 998.357 140.675 997.64 141.034C997.282 141.249 996.852 141.393 996.35 141.393Z" fill="#666666"/>
<path d="M866.92 128.768C866.849 128.768 866.777 128.768 866.634 128.768C865.272 128.624 864.269 127.405 864.412 126.042C864.484 125.253 864.914 124.535 865.63 124.105C865.989 123.89 866.419 123.746 866.849 123.746C866.92 123.746 866.992 123.746 867.135 123.746C867.852 123.818 868.425 124.105 868.855 124.679C869.285 125.181 869.5 125.826 869.429 126.544C869.357 127.333 868.927 128.05 868.21 128.481C867.78 128.624 867.35 128.768 866.92 128.768Z" fill="#666666"/>
<path d="M922.6 147.49C922.528 147.49 922.457 147.49 922.313 147.49C920.952 147.347 919.948 146.127 920.092 144.764C920.163 143.975 920.593 143.258 921.31 142.827C921.668 142.612 922.098 142.469 922.528 142.469C922.6 142.469 922.672 142.469 922.815 142.469C923.532 142.54 924.105 142.827 924.535 143.401C924.965 143.904 925.18 144.549 925.108 145.266C925.037 146.056 924.607 146.773 923.89 147.203C923.46 147.347 923.03 147.49 922.6 147.49Z" fill="#666666"/>
<path d="M1040.77 197.35C1040.7 197.35 1040.63 197.35 1040.49 197.35C1039.12 197.206 1038.12 195.987 1038.26 194.624C1038.34 193.835 1038.77 193.117 1039.48 192.687C1039.84 192.472 1040.27 192.328 1040.7 192.328C1040.77 192.328 1040.84 192.328 1040.99 192.328C1041.7 192.4 1042.28 192.687 1042.71 193.261C1043.14 193.763 1043.35 194.408 1043.28 195.126C1043.21 195.915 1042.78 196.632 1042.06 196.991C1041.7 197.278 1041.27 197.35 1040.77 197.35Z" fill="#666666"/>
<path d="M1144.91 218.296C1144.83 218.296 1144.76 218.296 1144.62 218.296C1143.97 218.225 1143.33 217.938 1142.9 217.364C1142.47 216.862 1142.25 216.216 1142.33 215.499C1142.4 214.71 1142.83 213.992 1143.54 213.562C1143.9 213.347 1144.33 213.203 1144.83 213.203C1144.91 213.203 1144.98 213.203 1145.12 213.203C1145.77 213.275 1146.41 213.562 1146.84 214.136C1147.27 214.638 1147.49 215.284 1147.41 216.001C1147.34 216.79 1146.91 217.507 1146.2 217.938C1145.77 218.153 1145.34 218.296 1144.91 218.296Z" fill="#666666"/>
<path d="M964.741 62.984C964.669 62.984 964.597 62.984 964.454 62.984C963.809 62.9122 963.164 62.6253 962.806 62.0514C962.376 61.5492 962.161 60.9036 962.232 60.1862C962.304 59.3971 962.734 58.6797 963.451 58.2493C963.809 58.0341 964.239 57.8906 964.741 57.8906C964.812 57.8906 964.884 57.8906 965.027 57.8906C965.672 57.9624 966.246 58.2493 966.676 58.8232C967.106 59.3254 967.32 59.971 967.249 60.6884C967.177 61.4775 966.747 62.1949 966.031 62.6253C965.601 62.8405 965.242 62.984 964.741 62.984Z" fill="#666666"/>
<path d="M847.575 62.9865C847.432 62.9865 847.36 62.9865 847.217 62.9865C846.357 62.9148 845.569 62.4844 844.996 61.767C844.422 61.0496 844.207 60.2605 844.279 59.3279C844.351 58.2519 844.996 57.391 845.855 56.8171C846.357 56.5302 846.93 56.3867 847.504 56.3867C847.647 56.3867 847.719 56.3867 847.862 56.3867C848.722 56.4585 849.51 56.8889 850.084 57.6063C850.657 58.3236 850.872 59.1845 850.8 60.0453C850.729 61.1214 850.084 62.054 849.224 62.5561C848.722 62.8431 848.149 62.9865 847.575 62.9865Z" fill="#666666"/>
<path d="M828.579 154.45C828.507 154.45 828.436 154.45 828.364 154.45C827.791 154.378 827.217 154.092 826.859 153.661C826.501 153.231 826.286 152.657 826.357 152.011C826.429 151.294 826.787 150.72 827.432 150.361C827.791 150.146 828.149 150.074 828.507 150.074C828.579 150.074 828.651 150.074 828.722 150.074C829.296 150.146 829.869 150.433 830.227 150.863C830.586 151.294 830.801 151.939 830.729 152.513C830.657 153.231 830.227 153.805 829.654 154.163C829.367 154.378 828.937 154.45 828.579 154.45Z" fill="#666666"/>
<path d="M607.029 117.514L626.076 50.4847C625.861 50.413 625.646 50.3413 625.359 50.2695L606.312 117.299C606.599 117.37 606.814 117.442 607.029 117.514Z" fill="#BDBDBD"/>
<path d="M634.429 49.363L688.901 64.3452L586.359 198.82C586.574 198.963 586.718 199.106 586.933 199.25L689.618 64.6322L739.783 80.3426L734.551 133.285L690.836 153.802C690.979 154.017 691.051 154.232 691.123 154.447L734.408 134.074L725.126 226.446C725.341 226.446 725.628 226.518 725.843 226.518L735.196 133.787L790.664 107.674C790.592 107.459 790.449 107.244 790.377 107.029L735.268 132.926L740.427 80.4861L789.661 95.9813C789.732 95.7661 789.804 95.5509 789.876 95.3357L690.048 63.9866L709.254 31.7C709.039 31.5565 708.895 31.413 708.68 31.2695L689.331 63.7714L634.644 48.7173C634.572 48.9326 634.501 49.1478 634.429 49.363Z" fill="#BDBDBD"/>
<path d="M619.923 49.3633L553.32 78.8365C553.392 79.0517 553.535 79.2669 553.607 79.4821L620.21 50.0089C620.066 49.7937 619.995 49.5785 619.923 49.3633Z" fill="#BDBDBD"/>
<path d="M661.672 167.578L588.797 205.876C588.869 206.091 589.012 206.307 589.084 206.522L661.959 168.224C661.815 168.009 661.744 167.793 661.672 167.578Z" fill="#BDBDBD"/>
<path d="M812.848 187.238L744.266 223.537C744.409 223.752 744.481 223.968 744.624 224.183L813.135 187.884C813.063 187.669 812.991 187.453 812.848 187.238Z" fill="#BDBDBD"/>
<path d="M727.418 227.972C727.561 228.043 727.705 228.187 727.848 228.259L800.406 106.429C800.334 106.429 800.262 106.357 800.191 106.357C800.047 106.286 799.904 106.214 799.761 106.07L727.203 227.9C727.275 227.9 727.346 227.972 727.418 227.972Z" fill="#BDBDBD"/>
<path d="M793.098 89.8141L724.649 29.7695C724.577 29.913 724.505 29.9847 724.434 30.1282C724.362 30.2 724.29 30.2717 724.219 30.3434L792.668 90.388C792.739 90.1728 792.883 90.0293 793.098 89.8141Z" fill="#BDBDBD"/>
<path d="M577.295 200.633L602.952 130.649C602.737 130.577 602.522 130.505 602.236 130.434L576.578 200.418C576.865 200.489 577.08 200.561 577.295 200.633Z" fill="#BDBDBD"/>
<path fill-rule="evenodd" clip-rule="evenodd" d="M1080.16 51.6864L1079.95 51.543L1079.8 51.6864L811.596 103.447C811.667 103.662 811.667 103.878 811.739 104.165L1078.73 52.619L1002.26 118.545L947.227 120.482H947.083L810.45 106.617C810.45 106.833 810.45 107.12 810.379 107.335L945.793 121.128L872.911 159.723L806.274 106.761C806.13 106.976 805.987 107.191 805.844 107.335L872.123 160.081L827.691 183.611C827.834 183.826 827.906 184.042 828.049 184.257L872.768 160.583L918.561 191.502L918.704 191.574L1002.55 119.263L1154.38 113.985L1155.27 113.954L1155.48 113.237L1082.1 53.1929L1080.16 51.6864L1080.02 52.4038L1154.41 113.237L1003.41 118.474L1080.02 52.4038L1080.16 51.6864ZM873.556 160.153L918.561 190.498L946.367 121.63L873.556 160.153ZM947.298 121.128L919.636 189.781L1001.4 119.263L947.298 121.128Z" fill="#BDBDBD"/>
<path d="M1155.27 113.954L1154.38 113.985L1160.47 161.23L1144.6 216.03H1145.51L1161.38 161.23L1155.27 113.954Z" fill="#BDBDBD"/>
<path fill-rule="evenodd" clip-rule="evenodd" d="M394.535 152.885L122.041 205.668L198.507 139.742L253.545 137.805H253.688L396.803 147.643C396.803 147.428 396.803 147.141 396.874 146.925L254.978 137.159L327.86 98.5647L399.07 144.473C399.214 144.257 399.357 144.042 399.5 143.899L328.648 98.2061L371.861 75.632C371.718 75.4168 371.646 75.2016 371.574 74.9864L327.932 97.7039L282.138 66.8569L281.995 66.7852L198.22 138.953L45.504 144.333L45.2891 145.05L118.673 205.023L120.465 206.529L120.751 205.812L46.364 144.979L197.36 139.742L120.751 205.812L120.465 206.529L120.68 206.673L120.823 206.529L394.535 153.531C394.607 153.387 394.535 153.1 394.535 152.885ZM327.215 98.0626L282.21 67.7178L254.404 136.585L327.215 98.0626ZM253.473 137.088L281.135 68.4351L199.367 138.953L253.473 137.088Z" fill="#D9D9D9"/>
<path d="M574.338 207.161L520.283 185.511L621.405 50.7004C621.19 50.5569 621.047 50.4135 620.832 50.27L519.495 185.295L469.33 169.585L474.562 116.643L524.368 93.2566C524.297 93.0414 524.153 92.8261 524.082 92.6109L474.633 115.854L479.344 17.2084C479.129 17.2084 478.842 17.1367 478.627 17.1367L473.845 116.141L411.031 144.28C411.103 144.495 411.246 144.711 411.318 144.926L473.845 116.93L468.685 169.37L413.801 151.527C413.729 151.742 413.657 151.957 413.586 152.172L519.065 185.941L494.34 223.46C494.555 223.603 494.698 223.747 494.913 223.89L519.782 186.156L574.123 207.879C574.195 207.663 574.266 207.448 574.338 207.161Z" fill="#BDBDBD"/>
<path d="M477.309 18.0409C477.166 17.9691 477.023 17.8256 476.879 17.7539L409.047 141.754C409.119 141.754 409.19 141.826 409.262 141.826C409.405 141.897 409.548 141.969 409.692 142.113L477.524 18.1126C477.453 18.1126 477.381 18.0409 477.309 18.0409Z" fill="#BDBDBD"/>
<path d="M425.539 174.104L487.887 227.046C487.958 226.974 488.03 226.831 488.102 226.759C488.173 226.687 488.245 226.615 488.317 226.544L425.969 173.602C425.897 173.745 425.754 173.889 425.539 174.104Z" fill="#BDBDBD"/>
<path d="M381.288 68.5786L470.266 17.6613C470.123 17.4461 470.051 17.2308 469.908 17.0156L380.93 67.933C381.001 68.1482 381.145 68.3634 381.288 68.5786Z" fill="#BDBDBD"/>
<path d="M520.999 183.577C520.569 183.29 519.996 183.219 519.494 183.219C518.849 183.29 518.204 183.577 517.774 184.151C517.344 184.653 517.129 185.299 517.201 186.016C517.273 186.806 517.703 187.523 518.419 187.953C518.849 188.24 519.423 188.312 519.924 188.312C520.569 188.24 521.214 187.953 521.644 187.379C522.074 186.877 522.289 186.232 522.218 185.514C522.146 184.653 521.644 183.936 520.999 183.577Z" fill="#666666"/>
<path d="M559.843 132.64C559.413 132.353 558.84 132.281 558.338 132.281C557.693 132.353 557.048 132.64 556.618 133.214C556.188 133.716 555.973 134.362 556.045 135.079C556.116 135.868 556.546 136.585 557.263 137.016C557.693 137.303 558.266 137.375 558.768 137.375C559.413 137.303 560.058 137.016 560.488 136.442C560.918 135.94 561.133 135.294 561.061 134.577C560.99 133.716 560.56 132.999 559.843 132.64Z" fill="#666666"/>
<path d="M475.484 114.421C475.054 114.134 474.48 114.062 473.979 114.062C473.334 114.134 472.689 114.421 472.259 114.995C471.829 115.497 471.614 116.143 471.685 116.86C471.757 117.649 472.187 118.367 472.904 118.797C473.334 119.084 473.907 119.156 474.409 119.156C475.054 119.084 475.699 118.797 476.129 118.223C476.559 117.721 476.774 117.075 476.702 116.358C476.63 115.569 476.129 114.852 475.484 114.421Z" fill="#666666"/>
<path d="M329.077 95.9134C328.647 95.6264 328.074 95.5547 327.572 95.5547C326.927 95.6264 326.283 95.9134 325.853 96.4873C325.423 96.9894 325.208 97.6351 325.279 98.3524C325.351 99.1415 325.781 99.8589 326.498 100.289C326.927 100.576 327.501 100.648 328.002 100.648C328.647 100.576 329.292 100.289 329.722 99.7154C330.152 99.2133 330.367 98.5677 330.296 97.8503C330.224 96.9894 329.722 96.3438 329.077 95.9134Z" fill="#666666"/>
<path d="M283.218 64.9954C282.788 64.7085 282.215 64.6367 281.713 64.6367C281.068 64.7085 280.423 64.9954 279.993 65.5693C279.563 66.0715 279.348 66.7171 279.42 67.4345C279.491 68.2236 279.921 68.941 280.638 69.3714C281.068 69.6583 281.641 69.7301 282.143 69.7301C282.788 69.6583 283.433 69.3714 283.863 68.7975C284.293 68.2953 284.508 67.6497 284.436 66.9323C284.365 66.0715 283.863 65.3541 283.218 64.9954Z" fill="#666666"/>
<path d="M199.437 137.163C199.007 136.876 198.433 136.805 197.932 136.805C197.287 136.876 196.642 137.163 196.212 137.737C195.782 138.239 195.567 138.885 195.639 139.602C195.71 140.392 196.14 141.109 196.857 141.539C197.287 141.826 197.86 141.898 198.362 141.898C199.007 141.826 199.652 141.539 200.082 140.965C200.512 140.463 200.727 139.818 200.655 139.1C200.583 138.239 200.153 137.522 199.437 137.163Z" fill="#666666"/>
<path d="M255.343 135.226C254.913 134.939 254.34 134.867 253.838 134.867C253.193 134.939 252.548 135.226 252.118 135.8C251.688 136.302 251.473 136.948 251.545 137.665C251.616 138.454 252.046 139.171 252.763 139.602C253.193 139.889 253.766 139.961 254.268 139.961C254.913 139.889 255.558 139.602 255.988 139.028C256.418 138.526 256.633 137.88 256.561 137.163C256.49 136.302 256.06 135.656 255.343 135.226Z" fill="#666666"/>
<path d="M121.968 204.308C121.538 204.021 120.965 203.949 120.463 203.949C119.818 204.021 119.173 204.308 118.743 204.882C118.313 205.384 118.098 206.03 118.17 206.747C118.241 207.536 118.671 208.253 119.388 208.684C119.818 208.971 120.391 209.043 120.893 209.043C121.538 208.971 122.183 208.684 122.613 208.11C123.043 207.608 123.258 206.962 123.186 206.245C123.115 205.456 122.685 204.738 121.968 204.308Z" fill="#666666"/>
<path d="M116.671 140.101C116.241 139.814 115.668 139.742 115.166 139.742C114.521 139.814 113.876 140.101 113.446 140.675C113.016 141.177 112.801 141.823 112.873 142.54C112.945 143.329 113.375 144.046 114.091 144.477C114.521 144.764 115.095 144.836 115.596 144.836C116.241 144.764 116.886 144.477 117.316 143.903C117.746 143.401 117.961 142.755 117.889 142.038C117.818 141.249 117.316 140.531 116.671 140.101Z" fill="#666666"/>
<path d="M263.007 175.757C262.577 175.47 262.004 175.398 261.502 175.398C260.857 175.47 260.212 175.757 259.782 176.331C259.352 176.833 259.137 177.479 259.209 178.196C259.281 178.985 259.711 179.703 260.427 180.133C260.857 180.42 261.43 180.492 261.932 180.492C262.577 180.42 263.222 180.133 263.652 179.559C264.082 179.057 264.297 178.411 264.225 177.694C264.154 176.905 263.724 176.188 263.007 175.757Z" fill="#666666"/>
<path d="M216.859 185.226C216.429 184.939 215.855 184.867 215.354 184.867C214.709 184.939 214.064 185.226 213.634 185.8C213.204 186.302 212.989 186.948 213.06 187.665C213.132 188.454 213.562 189.171 214.279 189.602C214.709 189.889 215.282 189.961 215.784 189.961C216.429 189.889 217.074 189.602 217.504 189.028C217.934 188.526 218.149 187.88 218.077 187.163C218.005 186.302 217.504 185.656 216.859 185.226Z" fill="#666666"/>
<path d="M325.21 140.89C324.78 140.603 324.207 140.531 323.705 140.531C323.06 140.603 322.415 140.89 321.985 141.464C321.555 141.966 321.34 142.612 321.412 143.329C321.484 144.118 321.914 144.835 322.63 145.266C323.06 145.553 323.634 145.625 324.135 145.625C324.78 145.553 325.425 145.266 325.855 144.692C326.285 144.19 326.5 143.544 326.428 142.827C326.357 141.966 325.927 141.32 325.21 140.89Z" fill="#666666"/>
<path d="M46.718 142.398C46.288 142.111 45.7147 142.039 45.2131 142.039C44.5681 142.111 43.9231 142.398 43.4931 142.972C43.0632 143.474 42.8482 144.119 42.9198 144.837C42.9915 145.626 43.4215 146.343 44.1381 146.774C44.5681 147.061 45.1414 147.132 45.6431 147.132C46.288 147.061 46.933 146.774 47.363 146.2C47.793 145.698 48.008 145.052 47.9363 144.335C47.8646 143.474 47.4347 142.756 46.718 142.398Z" fill="#666666"/>
<path d="M470.327 167.652C469.897 167.365 469.324 167.293 468.822 167.293C468.177 167.365 467.532 167.652 467.103 168.226C466.673 168.728 466.458 169.373 466.529 170.091C466.601 170.88 467.031 171.597 467.747 172.028C468.177 172.315 468.751 172.386 469.252 172.386C469.897 172.315 470.542 172.028 470.972 171.454C471.402 170.952 471.617 170.306 471.546 169.589C471.474 168.799 471.044 168.082 470.327 167.652Z" fill="#666666"/>
<path d="M688.122 66.3557C688.552 66.6427 689.126 66.7144 689.627 66.7144C690.272 66.6427 690.917 66.3557 691.347 65.7818C691.777 65.2797 691.992 64.634 691.921 63.9167C691.849 63.1276 691.419 62.4102 690.702 61.9798C690.272 61.6928 689.699 61.6211 689.197 61.6211C688.552 61.6928 687.907 61.9798 687.478 62.5537C687.048 63.0558 686.833 63.7015 686.904 64.4188C686.976 65.2797 687.477 65.997 688.122 66.3557Z" fill="#666666"/>
<path d="M655.872 108.754C656.302 109.041 656.876 109.113 657.377 109.113C658.022 109.041 658.667 108.754 659.097 108.18C659.527 107.678 659.742 107.033 659.671 106.315C659.599 105.526 659.169 104.809 658.452 104.378C658.022 104.091 657.449 104.02 656.947 104.02C656.302 104.091 655.657 104.378 655.228 104.952C654.798 105.454 654.583 106.1 654.654 106.817C654.726 107.678 655.227 108.324 655.872 108.754Z" fill="#666666"/>
<path d="M733.622 135.512C734.052 135.799 734.626 135.871 735.127 135.871C735.772 135.799 736.417 135.512 736.847 134.938C737.277 134.436 737.492 133.79 737.421 133.073C737.349 132.284 736.919 131.566 736.202 131.136C735.772 130.849 735.199 130.777 734.697 130.777C734.052 130.849 733.407 131.136 732.978 131.71C732.548 132.212 732.333 132.858 732.404 133.575C732.476 134.364 732.977 135.082 733.622 135.512Z" fill="#666666"/>
<path d="M772.162 153.285C772.592 153.572 773.165 153.644 773.667 153.644C774.312 153.572 774.956 153.285 775.386 152.712C775.816 152.209 776.031 151.564 775.96 150.846C775.888 150.057 775.458 149.34 774.741 148.909C774.312 148.623 773.738 148.551 773.237 148.551C772.592 148.623 771.947 148.909 771.517 149.483C771.087 149.986 770.872 150.631 770.943 151.349C771.015 152.209 771.445 152.855 772.162 153.285Z" fill="#666666"/>
<path d="M771.607 211.266C772.037 211.553 772.61 211.625 773.112 211.625C773.757 211.553 774.402 211.266 774.832 210.692C775.262 210.19 775.477 209.544 775.405 208.827C775.333 208.038 774.903 207.32 774.187 206.89C773.757 206.603 773.183 206.531 772.682 206.531C772.037 206.603 771.392 206.89 770.962 207.464C770.532 207.966 770.317 208.612 770.389 209.329C770.46 210.19 770.89 210.907 771.607 211.266Z" fill="#666666"/>
<path d="M423.888 46.4026C424.318 46.6896 424.891 46.7613 425.393 46.7613C426.038 46.6896 426.683 46.4026 427.113 45.8287C427.543 45.3266 427.758 44.6809 427.686 43.9635C427.615 43.1744 427.185 42.4571 426.468 42.0267C426.038 41.7397 425.465 41.668 424.963 41.668C424.318 41.7397 423.673 42.0266 423.243 42.6005C422.813 43.1027 422.598 43.7483 422.67 44.4657C422.741 45.3266 423.171 45.9722 423.888 46.4026Z" fill="#666666"/>
<path d="M434.763 94.4104C435.193 94.6974 435.766 94.7691 436.268 94.7691C436.913 94.6974 437.558 94.4104 437.988 93.8365C438.418 93.3344 438.633 92.6887 438.561 91.9714C438.49 91.1822 438.06 90.4649 437.343 90.0345C436.913 89.7475 436.34 89.6758 435.838 89.6758C435.193 89.7475 434.548 90.0345 434.118 90.6084C433.688 91.1105 433.473 91.7562 433.545 92.4735C433.616 93.3344 434.046 94.0517 434.763 94.4104Z" fill="#666666"/>
<path d="M873.74 150.567C874.17 150.854 874.743 150.925 875.245 150.925C875.89 150.854 876.535 150.567 876.965 149.993C877.395 149.491 877.61 148.845 877.538 148.128C877.466 147.339 877.036 146.621 876.32 146.191C875.89 145.904 875.316 145.832 874.815 145.832C874.17 145.904 873.525 146.191 873.095 146.765C872.665 147.267 872.45 147.912 872.521 148.63C872.593 149.491 873.095 150.136 873.74 150.567Z" fill="#666666"/>
<path d="M1009.67 112.77C1010.1 113.057 1010.67 113.129 1011.17 113.129C1011.82 113.057 1012.46 112.77 1012.89 112.196C1013.32 111.694 1013.54 111.048 1013.47 110.331C1013.4 109.542 1012.97 108.824 1012.25 108.394C1011.82 108.107 1011.25 108.035 1010.74 108.035C1010.1 108.107 1009.45 108.394 1009.02 108.968C1008.59 109.47 1008.38 110.116 1008.45 110.833C1008.52 111.694 1008.95 112.411 1009.67 112.77Z" fill="#666666"/>
<path d="M1078.72 54.555C1079.15 54.8419 1079.73 54.9137 1080.23 54.9137C1080.87 54.8419 1081.52 54.555 1081.95 53.9811C1082.38 53.4789 1082.59 52.8333 1082.52 52.1159C1082.45 51.3268 1082.02 50.6094 1081.3 50.179C1080.87 49.892 1080.3 49.8203 1079.8 49.8203C1079.15 49.892 1078.51 50.179 1078.08 50.7529C1077.65 51.255 1077.43 51.9007 1077.51 52.6181C1077.58 53.4789 1078.01 54.1245 1078.72 54.555Z" fill="#666666"/>
<path d="M1090.51 117.055C1090.94 117.342 1091.52 117.414 1092.02 117.414C1092.66 117.342 1093.31 117.055 1093.74 116.481C1094.17 115.979 1094.38 115.333 1094.31 114.616C1094.24 113.827 1093.81 113.109 1093.09 112.679C1092.66 112.392 1092.09 112.32 1091.59 112.32C1090.94 112.392 1090.3 112.679 1089.87 113.253C1089.44 113.755 1089.22 114.401 1089.29 115.118C1089.37 115.907 1089.8 116.625 1090.51 117.055Z" fill="#666666"/>
<path d="M946.107 74.1761C946.537 74.463 947.11 74.5348 947.612 74.5348C948.257 74.463 948.902 74.1761 949.332 73.6022C949.762 73.1 949.977 72.4544 949.905 71.737C949.833 70.9479 949.403 70.2305 948.687 69.8001C948.257 69.5131 947.683 69.4414 947.182 69.4414C946.537 69.5131 945.892 69.8001 945.462 70.374C945.032 70.8761 944.817 71.5218 944.889 72.2392C944.96 73.0283 945.39 73.7456 946.107 74.1761Z" fill="#666666"/>
<path d="M1023.4 64.5159C1023.83 64.8029 1024.4 64.8746 1024.9 64.8746C1025.55 64.8029 1026.19 64.5159 1026.62 63.942C1027.05 63.4399 1027.27 62.7942 1027.19 62.0768C1027.12 61.2877 1026.69 60.5704 1025.98 60.1399C1025.55 59.853 1024.97 59.7812 1024.47 59.7812C1023.83 59.853 1023.18 60.1399 1022.75 60.7138C1022.32 61.216 1022.11 61.8616 1022.18 62.579C1022.25 63.3681 1022.68 64.0855 1023.4 64.5159Z" fill="#666666"/>
<path d="M862.857 95.3128C863.287 95.5997 863.86 95.6715 864.362 95.6715C865.007 95.5997 865.652 95.3128 866.082 94.7389C866.512 94.2367 866.727 93.5911 866.655 92.8737C866.583 92.0846 866.153 91.3672 865.437 90.9368C865.007 90.6499 864.433 90.5781 863.932 90.5781C863.287 90.6499 862.642 90.9368 862.212 91.5107C861.782 92.0129 861.567 92.6585 861.639 93.3759C861.71 94.2367 862.14 94.9541 862.857 95.3128Z" fill="#666666"/>
<path d="M953.779 115.137C954.209 115.424 954.782 115.496 955.284 115.496C955.929 115.424 956.574 115.137 957.004 114.563C957.434 114.061 957.649 113.415 957.577 112.698C957.505 111.909 957.075 111.191 956.359 110.761C955.929 110.474 955.355 110.402 954.854 110.402C954.209 110.474 953.564 110.761 953.134 111.335C952.704 111.837 952.489 112.483 952.56 113.2C952.632 113.989 953.062 114.707 953.779 115.137Z" fill="#666666"/>
<path d="M925.966 185.012C926.396 185.299 926.969 185.371 927.471 185.371C928.116 185.299 928.761 185.012 929.191 184.438C929.621 183.936 929.836 183.29 929.764 182.573C929.693 181.784 929.263 181.066 928.546 180.636C928.116 180.349 927.543 180.277 927.041 180.277C926.396 180.349 925.751 180.636 925.321 181.21C924.891 181.712 924.676 182.358 924.748 183.075C924.82 183.936 925.25 184.582 925.966 185.012Z" fill="#666666"/>
<path d="M1152.19 115.242C1152.62 115.529 1153.19 115.601 1153.69 115.601C1154.33 115.529 1154.98 115.242 1155.41 114.669C1155.84 114.166 1156.05 113.521 1155.98 112.803C1155.91 112.014 1155.48 111.297 1154.76 110.866C1154.33 110.58 1153.76 110.508 1153.26 110.508C1152.62 110.58 1151.97 110.866 1151.54 111.44C1151.11 111.943 1150.9 112.588 1150.97 113.306C1151.04 114.166 1151.47 114.884 1152.19 115.242Z" fill="#666666"/>
<path d="M738.787 82.2815C739.217 82.5685 739.79 82.6402 740.292 82.6402C740.937 82.5685 741.581 82.2815 742.011 81.7076C742.441 81.2055 742.656 80.5598 742.585 79.8425C742.513 79.0534 742.083 78.336 741.366 77.9056C740.937 77.6186 740.363 77.5469 739.862 77.5469C739.217 77.6186 738.572 77.9056 738.142 78.4795C737.712 78.9816 737.497 79.6272 737.568 80.3446C737.64 81.1337 738.07 81.8511 738.787 82.2815Z" fill="#666666"/>
<path d="M620.535 46.4855L624.834 45.0508C625.551 45.5529 626.411 45.9116 627.414 45.9116C628.346 45.9116 629.278 45.5529 629.994 45.0508L634.294 46.4855C635.727 46.4855 636.802 47.6333 636.802 48.9963C636.802 50.4311 635.656 51.5071 634.294 51.5071H620.606C619.173 51.5071 618.098 50.3593 618.098 48.9963C617.955 47.6333 619.101 46.4855 620.535 46.4855Z" fill="#00344A"/>
<path d="M623.047 40.3164C623.047 42.6837 624.982 44.6206 627.347 44.6206C629.712 44.6206 631.647 42.6837 631.647 40.3164V38.523C631.647 36.1557 629.712 34.2188 627.347 34.2188C624.982 34.2188 623.047 36.1557 623.047 38.523V40.3164Z" fill="#00344A"/>
<path d="M720.757 231.47L725.057 230.035C725.773 230.537 726.633 230.896 727.637 230.896C728.568 230.896 729.5 230.537 730.217 230.035L734.516 231.47C735.95 231.47 737.025 232.618 737.025 233.981C737.025 235.344 735.878 236.492 734.516 236.492H720.829C719.395 236.492 718.32 235.344 718.32 233.981C718.32 232.618 719.324 231.47 720.757 231.47Z" fill="#00344A"/>
<path d="M723.266 225.301C723.266 227.668 725.201 229.605 727.565 229.605C729.93 229.605 731.865 227.668 731.865 225.301V223.507C731.865 221.14 729.93 219.203 727.565 219.203C725.201 219.203 723.266 221.14 723.266 223.507V225.301Z" fill="#00344A"/>
<path d="M597.746 127.118L602.045 125.684C602.762 126.186 603.622 126.544 604.625 126.544C605.557 126.544 606.489 126.186 607.205 125.684L611.505 127.118C612.938 127.118 614.013 128.266 614.013 129.629C614.013 131.064 612.867 132.14 611.505 132.14H597.817C596.384 132.14 595.309 130.992 595.309 129.629C595.166 128.194 596.312 127.118 597.746 127.118Z" fill="#00344A"/>
<path d="M600.258 120.949C600.258 123.317 602.193 125.253 604.558 125.253C606.923 125.253 608.857 123.317 608.857 120.949V119.156C608.857 116.788 606.923 114.852 604.558 114.852C602.193 114.852 600.258 116.788 600.258 119.156V120.949Z" fill="#00344A"/>
<path d="M798.26 102.657L802.56 101.223C803.277 101.725 804.137 102.084 805.14 102.084C806.071 102.084 807.003 101.725 807.72 101.223L812.02 102.657C813.453 102.657 814.528 103.805 814.528 105.168C814.528 106.603 813.381 107.679 812.02 107.679H798.332C796.898 107.679 795.824 106.531 795.824 105.168C795.752 103.805 796.898 102.657 798.26 102.657Z" fill="#00344A"/>
<path d="M800.844 96.4883C800.844 98.8556 802.779 100.793 805.144 100.793C807.508 100.793 809.443 98.8556 809.443 96.4883V94.6949C809.443 92.3275 807.508 90.3906 805.144 90.3906C802.779 90.3906 800.844 92.3275 800.844 94.6949V96.4883Z" fill="#00344A"/>
<path d="M484.3 225.04L488.6 223.605C489.317 224.108 490.177 224.466 491.18 224.466C492.112 224.466 493.043 224.108 493.76 223.605L498.06 225.04C499.493 225.04 500.568 226.188 500.568 227.551C500.568 228.986 499.421 230.062 498.06 230.062H484.372C482.939 230.062 481.864 228.914 481.864 227.551C481.72 226.188 482.867 225.04 484.3 225.04Z" fill="#00344A"/>
<path d="M486.875 218.941C486.875 221.309 488.81 223.246 491.175 223.246C493.54 223.246 495.475 221.309 495.475 218.941V217.148C495.475 214.781 493.54 212.844 491.175 212.844C488.81 212.844 486.875 214.781 486.875 217.148V218.941Z" fill="#00344A"/>
<path d="M372.143 73.6027L376.443 72.168C377.159 72.6701 378.019 73.0288 379.023 73.0288C379.954 73.0288 380.886 72.6701 381.603 72.168L385.902 73.6027C387.336 73.6027 388.411 74.7505 388.411 76.1135C388.411 77.5483 387.264 78.6243 385.902 78.6243H372.215C370.781 78.6243 369.706 77.4765 369.706 76.1135C369.635 74.7505 370.781 73.6027 372.143 73.6027Z" fill="#00344A"/>
<path d="M374.719 67.5039C374.719 69.8712 376.654 71.8081 379.019 71.8081C381.383 71.8081 383.318 69.8712 383.318 67.5039V65.7105C383.318 63.3432 381.383 61.4062 379.019 61.4062C376.654 61.4062 374.719 63.3432 374.719 65.7105V67.5039Z" fill="#00344A"/>
<path d="M470.44 14.0793L474.74 12.6445C475.456 13.1467 476.316 13.5054 477.32 13.5054C478.251 13.5054 479.183 13.1467 479.899 12.6445L484.199 14.0793C485.633 14.0793 486.707 15.2271 486.707 16.5901C486.707 18.0248 485.561 19.1009 484.199 19.1009H470.511C469.078 19.1009 468.003 17.9531 468.003 16.5901C467.932 15.1553 469.078 14.0793 470.44 14.0793Z" fill="#00344A"/>
<path d="M473.016 7.91016C473.016 10.2775 474.951 12.2144 477.315 12.2144C479.68 12.2144 481.615 10.2775 481.615 7.91016V6.11673C481.615 3.7494 479.68 1.8125 477.315 1.8125C474.951 1.8125 473.016 3.7494 473.016 6.11673V7.91016Z" fill="#00344A"/>
<path d="M540.344 81.8539C540.344 83.6474 541.777 85.0104 543.497 85.0104C545.217 85.0104 546.65 83.5756 546.65 81.8539V80.5627C546.65 78.841 545.217 77.4062 543.497 77.4062C541.777 77.4062 540.344 78.841 540.344 80.5627V81.8539Z" fill="#00344A"/>
<path d="M541.921 89.528C541.921 88.4519 541.061 87.6628 540.058 87.6628L537.406 86.8019C537.693 86.5867 538.123 86.4432 538.481 86.4432L541.706 85.3672C542.208 85.7259 542.853 86.0128 543.569 86.0128C544.286 86.0128 544.931 85.7976 545.433 85.3672L548.657 86.4432C549.732 86.4432 550.521 87.3041 550.521 88.3084C550.521 89.3845 549.661 90.1736 548.657 90.1736H541.849C541.849 89.9584 541.921 89.7432 541.921 89.528Z" fill="#00344A"/>
<path d="M531.094 83.7915C531.094 85.5132 532.527 86.9479 534.247 86.9479C535.967 86.9479 537.4 85.5132 537.4 83.7915V82.5002C537.4 80.7068 535.967 79.3438 534.247 79.3438C532.527 79.3438 531.094 80.7785 531.094 82.5002V83.7915Z" fill="#00344A"/>
<path d="M529.163 88.3104L532.316 87.2344C532.818 87.6648 533.534 87.88 534.179 87.88C534.896 87.88 535.541 87.6648 536.043 87.2344L539.196 88.3104C540.271 88.3104 541.059 89.1713 541.059 90.1756C541.059 91.1799 540.199 92.0408 539.196 92.0408H529.019C528.016 92.0408 527.156 91.1799 527.156 90.1756C527.3 89.1713 528.16 88.3104 529.163 88.3104Z" fill="#00344A"/>
<path d="M719.422 22.6704C719.422 24.4638 720.855 25.8268 722.575 25.8268C724.295 25.8268 725.728 24.3921 725.728 22.6704V21.3791C725.728 19.6574 724.295 18.2227 722.575 18.2227C720.855 18.2227 719.422 19.6574 719.422 21.3791V22.6704Z" fill="#00344A"/>
<path d="M720.999 30.3444C720.999 29.2683 720.139 28.4792 719.136 28.4792L716.484 27.6183C716.771 27.4031 717.201 27.2597 717.559 27.2597L720.784 26.1836C721.286 26.5423 721.931 26.8292 722.647 26.8292C723.364 26.8292 724.009 26.614 724.511 26.1836L727.736 27.2597C728.811 27.2597 729.599 28.1205 729.599 29.1248C729.599 30.2009 728.739 30.99 727.736 30.99H720.928C720.928 30.8465 720.999 30.5596 720.999 30.3444Z" fill="#00344A"/>
<path d="M710.172 24.6079C710.172 26.3296 711.605 27.7643 713.325 27.7643C715.045 27.7643 716.478 26.3296 716.478 24.6079V23.3166C716.478 21.5232 715.045 20.1602 713.325 20.1602C711.605 20.1602 710.172 21.5949 710.172 23.3166V24.6079Z" fill="#00344A"/>
<path d="M708.241 29.1972L711.394 28.1211C711.896 28.5515 712.612 28.7667 713.257 28.7667C713.974 28.7667 714.619 28.5515 715.121 28.1211L718.274 29.1972C719.349 29.1972 720.137 30.058 720.137 31.0623C720.137 32.0666 719.277 32.9275 718.274 32.9275H708.098C707.094 32.9275 706.234 32.0666 706.234 31.0623C706.378 29.9863 707.238 29.1972 708.241 29.1972Z" fill="#00344A"/>
<path d="M583.195 200.651C583.195 202.444 584.629 203.807 586.348 203.807C588.068 203.807 589.502 202.373 589.502 200.651V199.36C589.502 197.638 588.068 196.203 586.348 196.203C584.629 196.203 583.195 197.638 583.195 199.36V200.651Z" fill="#00344A"/>
<path d="M584.702 208.325C584.702 207.249 583.842 206.46 582.839 206.46L580.188 205.599C580.474 205.384 580.904 205.24 581.262 205.24L584.487 204.164C584.989 204.594 585.634 204.81 586.351 204.81C587.067 204.81 587.712 204.594 588.214 204.164L591.439 205.24C592.514 205.24 593.302 206.101 593.302 207.105C593.302 208.181 592.442 208.97 591.439 208.97H584.631C584.702 208.755 584.702 208.54 584.702 208.325Z" fill="#00344A"/>
<path d="M573.883 202.588C573.883 204.31 575.316 205.745 577.036 205.745C578.756 205.745 580.189 204.31 580.189 202.588V201.297C580.189 199.504 578.756 198.141 577.036 198.141C575.316 198.141 573.883 199.575 573.883 201.297V202.588Z" fill="#00344A"/>
<path d="M572.022 207.107L575.175 206.031C575.677 206.462 576.394 206.677 577.039 206.677C577.755 206.677 578.4 206.462 578.902 206.031L582.055 207.107C583.13 207.107 583.918 207.968 583.918 208.972C583.918 209.977 583.058 210.838 582.055 210.838H571.879C570.876 210.838 570.016 209.977 570.016 208.972C570.087 207.968 570.947 207.107 572.022 207.107Z" fill="#00344A"/>
<path d="M677.938 156.963C677.938 158.757 679.371 160.12 681.091 160.12C682.811 160.12 684.244 158.685 684.244 156.963V155.672C684.244 153.95 682.811 152.516 681.091 152.516C679.371 152.516 677.938 153.95 677.938 155.672V156.963Z" fill="#00344A"/>
<path d="M679.515 164.637C679.515 163.561 678.655 162.772 677.652 162.772L675 161.911C675.287 161.696 675.717 161.553 676.075 161.553L679.3 160.477C679.801 160.907 680.446 161.122 681.163 161.122C681.88 161.122 682.525 160.907 683.026 160.477L686.251 161.553C687.326 161.553 688.114 162.413 688.114 163.418C688.114 164.494 687.255 165.283 686.251 165.283H679.443C679.443 165.068 679.515 164.853 679.515 164.637Z" fill="#00344A"/>
<path d="M668.688 158.901C668.688 160.623 670.121 162.057 671.841 162.057C673.561 162.057 674.994 160.623 674.994 158.901V157.61C674.994 155.816 673.561 154.453 671.841 154.453C670.121 154.453 668.688 155.888 668.688 157.61V158.901Z" fill="#00344A"/>
<path d="M666.757 163.42L669.91 162.344C670.411 162.774 671.128 162.989 671.773 162.989C672.49 162.989 673.135 162.774 673.636 162.344L676.79 163.42C677.864 163.42 678.653 164.281 678.653 165.285C678.653 166.289 677.793 167.15 676.79 167.15H666.613C665.61 167.15 664.75 166.289 664.75 165.285C664.893 164.281 665.753 163.42 666.757 163.42Z" fill="#00344A"/>
<path d="M823.625 179.057C823.625 180.85 825.058 182.213 826.778 182.213C828.498 182.213 829.931 180.779 829.931 179.057V177.766C829.931 176.044 828.498 174.609 826.778 174.609C825.058 174.609 823.625 176.044 823.625 177.766V179.057Z" fill="#00344A"/>
<path d="M825.202 186.731C825.202 185.655 824.342 184.866 823.339 184.866L820.688 184.005C820.974 183.79 821.404 183.646 821.762 183.646L824.987 182.57C825.489 183.001 826.134 183.216 826.851 183.216C827.567 183.216 828.212 183.001 828.714 182.57L831.939 183.646C833.014 183.646 833.802 184.507 833.802 185.512C833.802 186.588 832.942 187.377 831.939 187.377H825.131C825.131 187.233 825.202 186.946 825.202 186.731Z" fill="#00344A"/>
<path d="M814.305 180.995C814.305 182.716 815.738 184.151 817.458 184.151C819.178 184.151 820.611 182.716 820.611 180.995V179.703C820.611 177.91 819.178 176.547 817.458 176.547C815.738 176.547 814.305 177.982 814.305 179.703V180.995Z" fill="#00344A"/>
<path d="M812.444 185.584L815.597 184.508C816.099 184.938 816.816 185.153 817.461 185.153C818.177 185.153 818.822 184.938 819.324 184.508L822.477 185.584C823.552 185.584 824.34 186.445 824.34 187.449C824.34 188.453 823.48 189.314 822.477 189.314H812.301C811.297 189.314 810.438 188.453 810.438 187.449C810.509 186.373 811.369 185.584 812.444 185.584Z" fill="#00344A"/>
<path d="M405.461 145.123C405.461 146.917 406.894 148.28 408.614 148.28C410.334 148.28 411.767 146.845 411.767 145.123V143.832C411.767 142.111 410.334 140.676 408.614 140.676C406.894 140.676 405.461 142.111 405.461 143.832V145.123Z" fill="#00344A"/>
<path d="M406.968 152.797C406.968 151.721 406.108 150.932 405.105 150.932L402.453 150.071C402.74 149.856 403.17 149.713 403.528 149.713L406.753 148.637C407.255 149.067 407.9 149.282 408.616 149.282C409.333 149.282 409.978 149.067 410.479 148.637L413.704 149.713C414.779 149.713 415.568 150.574 415.568 151.578C415.568 152.654 414.708 153.443 413.704 153.443H406.896C406.968 153.228 406.968 153.013 406.968 152.797Z" fill="#00344A"/>
<path d="M396.156 146.987C396.156 148.708 397.59 150.143 399.309 150.143C401.029 150.143 402.463 148.708 402.463 146.987V145.695C402.463 143.902 401.029 142.539 399.309 142.539C397.59 142.539 396.156 143.974 396.156 145.695V146.987Z" fill="#00344A"/>
<path d="M394.218 151.576L397.371 150.5C397.872 150.93 398.589 151.146 399.234 151.146C399.951 151.146 400.596 150.93 401.097 150.5L404.25 151.576C405.325 151.576 406.114 152.437 406.114 153.441C406.114 154.446 405.254 155.306 404.25 155.306H394.074C393.071 155.306 392.211 154.446 392.211 153.441C392.354 152.437 393.214 151.576 394.218 151.576Z" fill="#00344A"/>
<path d="M1160.73 163.609C1160.66 163.609 1160.59 163.609 1160.45 163.609C1159.8 163.537 1159.16 163.25 1158.8 162.676C1158.37 162.174 1158.15 161.529 1158.22 160.811C1158.3 160.022 1158.73 159.305 1159.44 158.874C1159.8 158.659 1160.23 158.516 1160.66 158.516C1160.73 158.516 1160.8 158.516 1160.95 158.516C1161.66 158.587 1162.24 158.874 1162.67 159.448C1163.1 159.95 1163.31 160.596 1163.24 161.313C1163.17 162.102 1162.74 162.82 1162.02 163.179C1161.59 163.465 1161.16 163.609 1160.73 163.609Z" fill="#666666"/>
<path d="M745.692 225.705C745.621 225.705 745.478 225.705 745.406 225.705C744.618 225.633 743.973 225.274 743.471 224.701C742.969 224.127 742.754 223.338 742.826 222.62C742.898 221.688 743.399 220.898 744.259 220.468C744.689 220.181 745.191 220.109 745.692 220.109C745.764 220.109 745.908 220.109 745.979 220.109C746.767 220.181 747.412 220.54 747.914 221.114C748.416 221.688 748.631 222.477 748.559 223.194C748.487 224.127 747.986 224.916 747.126 225.346C746.696 225.561 746.194 225.705 745.692 225.705Z" fill="#666666"/>
<path d="M531.238 171.525C531.095 171.525 531.023 171.525 530.88 171.525C530.02 171.453 529.232 171.023 528.73 170.377C528.157 169.66 527.942 168.871 528.013 168.01C528.085 167.006 528.73 166.073 529.59 165.571C530.092 165.284 530.665 165.141 531.238 165.141C531.382 165.141 531.453 165.141 531.596 165.141C532.456 165.212 533.245 165.643 533.746 166.288C534.32 166.934 534.535 167.795 534.463 168.656C534.391 169.732 533.818 170.593 532.886 171.167C532.385 171.382 531.811 171.525 531.238 171.525Z" fill="#666666"/>
</svg>
