<svg width="340" height="130" viewBox="0 0 340 130" fill="none" xmlns="http://www.w3.org/2000/svg">
<g clip-path="url(#clip0_224_11015)">
<path d="M-98.7382 50.164L-70.3594 18.0931L-70.4586 17.5336L-99.1575 49.693L-99.2344 50.649L-98.7382 50.164Z" fill="#D9D9D9"/>
<path d="M-98.2726 50.7362L-99.2344 50.649L-78.6459 75.5988L-78.2273 75.3633L-98.2726 50.7362Z" fill="#D9D9D9"/>
<path fill-rule="evenodd" clip-rule="evenodd" d="M388.466 73.0782L345.402 31.2612L345.269 31.1493L321.587 49.1295L241.18 1.15741L240.816 0.933594L245.91 59.5744L167.422 17.9812L166.76 17.0113L167.025 18.1304L166.992 18.2423L135.338 29.4333L120.719 7.83471L120.52 7.53628L75.5705 50.547L-70.2271 17.5336L-70.3594 18.0931L-30.9662 56.3663L-98.7382 50.164L-98.2726 50.7362L-30.4039 56.8886L12.6606 98.7056L12.7929 98.8176L36.4751 80.8373L116.882 128.809L117.246 129.033L112.152 70.3924L190.641 111.986L191.302 112.993L191.038 111.874L191.071 111.762L222.724 100.571L237.344 122.169L237.542 122.468L282.492 79.4571L428.322 112.433L428.422 112.545L428.554 112.433L428.422 111.874L389.029 73.6005L388.466 73.0782L388.334 73.5632L427.661 111.762L283.98 79.2706L359.889 72.4441H359.955L388.334 73.5632L388.466 73.0782ZM345.17 31.8208L322.05 49.3906L359.426 71.698L345.17 31.8208ZM283.219 78.8603L359.095 72.0337L321.653 49.689L283.219 78.8603ZM360.021 71.9964L387.805 73.0782L345.832 32.3057L360.021 71.9964ZM282.459 78.823L321.19 49.4279L241.643 1.97809L282.459 78.823ZM249.085 90.7227L281.566 79.2333L280.871 79.0841L281.599 79.0095L246.439 60.3951L249.085 90.7227ZM248.655 90.8346L245.976 60.134L167.984 18.8019L222.856 99.9739L248.655 90.8346ZM237.575 121.722L281.466 79.7555L223.154 100.422L237.575 121.722ZM241.412 2.42573L246.406 59.8356L281.896 78.6364L241.412 2.42573ZM167.785 19.3241L190.905 111.314L222.426 100.123L167.785 19.3241ZM167.19 18.6527L135.636 29.8064L190.277 110.605L167.19 18.6527ZM111.656 70.1313L76.199 51.3304L116.65 127.541L111.656 70.1313ZM108.977 39.2441L76.4966 50.7335L77.1912 50.8828L76.4635 50.9574L111.623 69.5717L108.977 39.2441ZM190.045 111.128L135.173 29.9556L109.407 39.1322L112.086 69.8329L190.045 111.128ZM120.487 8.20774L76.5959 50.2113L134.908 29.5452L120.487 8.20774ZM116.386 127.989L75.5705 51.1439L36.872 80.5389L116.386 127.989ZM12.8921 98.1461L36.012 80.5762L-1.39659 58.2688L12.8921 98.1461ZM74.8428 51.1066L-1.03274 57.9331L36.4089 80.2778L74.8428 51.1066ZM-1.82656 57.5228L74.0821 50.6962L-69.5655 18.205L-30.2716 56.4037L-1.89274 57.5228H-1.82656ZM-1.95888 57.9704L-29.7424 56.8886L12.2306 97.6611L-1.95888 57.9704Z" fill="#D9D9D9"/>
<path d="M116.98 130.003C116.947 130.003 116.881 130.003 116.848 130.003C116.517 129.965 116.219 129.779 116.021 129.48C115.822 129.182 115.723 128.846 115.756 128.473C115.789 128.026 116.021 127.653 116.352 127.429C116.55 127.317 116.749 127.242 116.98 127.242C117.013 127.242 117.079 127.242 117.112 127.242C117.443 127.279 117.741 127.466 117.939 127.764C118.138 128.063 118.237 128.399 118.204 128.772C118.171 129.219 117.939 129.592 117.608 129.816C117.41 129.928 117.179 130.003 116.98 130.003Z" fill="#666666"/>
<path d="M190.767 113.102C190.734 113.102 190.701 113.102 190.635 113.102C190.337 113.064 190.04 112.915 189.841 112.617C189.643 112.356 189.544 112.02 189.577 111.647C189.61 111.236 189.808 110.863 190.139 110.64C190.304 110.528 190.503 110.453 190.734 110.453C190.767 110.453 190.8 110.453 190.833 110.453C191.131 110.49 191.429 110.677 191.594 110.938C191.793 111.199 191.892 111.535 191.859 111.908C191.826 112.318 191.627 112.691 191.296 112.915C191.197 113.027 190.999 113.102 190.767 113.102Z" fill="#666666"/>
<path d="M135.276 31.369C135.243 31.369 135.177 31.369 135.11 31.369C134.714 31.3317 134.35 31.1079 134.118 30.7722C133.854 30.4364 133.754 29.9888 133.787 29.5412C133.82 28.9816 134.118 28.534 134.515 28.2355C134.747 28.0863 135.011 28.0117 135.276 28.0117C135.309 28.0117 135.375 28.0117 135.408 28.0117C135.805 28.049 136.169 28.2728 136.4 28.6086C136.665 28.9816 136.764 29.3919 136.731 29.8396C136.665 30.3618 136.4 30.8468 136.003 31.1079C135.805 31.2944 135.573 31.369 135.276 31.369Z" fill="#666666"/>
<path d="M111.807 71.5096C111.741 71.5096 111.708 71.5096 111.642 71.5096C111.245 71.4723 110.881 71.2485 110.649 70.9128C110.385 70.5771 110.286 70.1294 110.319 69.6818C110.352 69.1222 110.649 68.6746 111.046 68.3762C111.278 68.227 111.542 68.1523 111.807 68.1523C111.873 68.1523 111.906 68.1523 111.972 68.1523C112.369 68.1896 112.733 68.4135 112.965 68.7492C113.229 69.1222 113.329 69.5326 113.295 69.9802C113.229 70.5398 112.998 70.9874 112.568 71.2858C112.336 71.435 112.105 71.5096 111.807 71.5096Z" fill="#666666"/>
<path d="M36.3695 82.2887C36.3034 82.2887 36.2703 82.2887 36.2042 82.2887C35.8073 82.2514 35.4434 82.0276 35.2119 81.6919C34.9473 81.3562 34.8481 80.9085 34.8811 80.4609C34.9473 79.9013 35.1788 79.4537 35.6088 79.1926C35.8403 79.0434 36.1049 78.9688 36.3695 78.9688C36.4357 78.9688 36.4688 78.9688 36.5349 78.9688C36.9318 79.0061 37.2957 79.2299 37.5272 79.5656C37.7587 79.9013 37.891 80.349 37.8579 80.7966C37.8249 81.3189 37.5272 81.8038 37.1303 82.0649C36.8988 82.2141 36.6341 82.2887 36.3695 82.2887Z" fill="#666666"/>
<path d="M2.33048 35.8807C2.29741 35.8807 2.23125 35.8807 2.1651 35.8807C1.76819 35.8434 1.40436 35.6196 1.17283 35.2839C0.908227 34.9482 0.809 34.5005 0.842076 34.0529C0.875152 33.4933 1.13976 33.0457 1.56974 32.7473C1.80127 32.598 2.06588 32.5234 2.33048 32.5234C2.39663 32.5234 2.42971 32.5234 2.49586 32.5234C2.89277 32.5607 3.2566 32.7846 3.52121 33.1203C3.78581 33.456 3.88504 33.9037 3.85196 34.3513C3.78581 34.9108 3.55429 35.3585 3.12431 35.6196C2.8597 35.8061 2.59509 35.8807 2.33048 35.8807Z" fill="#666666"/>
<path d="M109.205 40.5839C109.139 40.5839 109.106 40.5839 109.04 40.5839C108.643 40.5466 108.279 40.3227 108.048 39.987C107.783 39.6513 107.684 39.2036 107.717 38.756C107.75 38.1965 108.048 37.7488 108.445 37.4504C108.676 37.3012 108.941 37.2266 109.205 37.2266C109.272 37.2266 109.305 37.2266 109.371 37.2266C109.768 37.2639 110.132 37.4877 110.363 37.8234C110.628 38.1965 110.727 38.6068 110.694 39.0544C110.628 39.5767 110.363 40.0616 109.966 40.3227C109.735 40.5093 109.47 40.5839 109.205 40.5839Z" fill="#666666"/>
<path d="M56.3845 66.7384C56.3514 66.7384 56.3183 66.7384 56.2522 66.7384C55.9214 66.7011 55.6568 66.5519 55.4584 66.2534C55.2599 65.9923 55.1607 65.6193 55.1938 65.2835C55.2268 64.8732 55.4253 64.5002 55.7891 64.2764C55.9545 64.1645 56.186 64.0898 56.3845 64.0898C56.4176 64.0898 56.4506 64.0898 56.5168 64.0898C56.8145 64.1271 57.1122 64.3137 57.3106 64.5748C57.5091 64.8359 57.6083 65.2089 57.5752 65.5447C57.5421 65.9923 57.3437 66.328 56.9799 66.5519C56.7814 66.7011 56.5829 66.7384 56.3845 66.7384Z" fill="#666666"/>
<path d="M32.4001 56.0626C32.367 56.0626 32.334 56.0626 32.2678 56.0626C31.9371 56.0253 31.6724 55.8761 31.474 55.5777C31.2755 55.3165 31.1763 54.9435 31.2094 54.6078C31.2425 54.1974 31.4409 53.8244 31.8048 53.6006C31.9701 53.4887 32.2017 53.4141 32.4001 53.4141C32.4332 53.4141 32.4663 53.4141 32.5324 53.4141C32.8301 53.4514 33.1278 53.6379 33.3262 53.899C33.5247 54.1601 33.6239 54.5332 33.5908 54.8689C33.5578 55.3165 33.3593 55.6523 32.9955 55.8761C32.797 56.0253 32.5986 56.0626 32.4001 56.0626Z" fill="#666666"/>
<path d="M12.7907 99.8243C12.7577 99.8243 12.7246 99.8243 12.6584 99.8243C12.3608 99.787 12.0631 99.6378 11.8646 99.3394C11.6662 99.0783 11.5669 98.7425 11.6 98.3695C11.6331 97.9592 11.8316 97.5861 12.1623 97.3623C12.3277 97.2504 12.5261 97.1758 12.7577 97.1758C12.7907 97.1758 12.8238 97.1758 12.89 97.1758C13.1877 97.2131 13.4853 97.3623 13.6838 97.6607C13.8822 97.9219 13.9815 98.2576 13.9484 98.6306C13.9153 99.041 13.7169 99.414 13.3861 99.6378C13.1877 99.787 12.9892 99.8243 12.7907 99.8243Z" fill="#666666"/>
<path d="M70.7423 102.137C70.7092 102.137 70.6761 102.137 70.643 102.137C70.3784 102.099 70.1469 101.95 69.9815 101.726C69.8161 101.502 69.75 101.204 69.75 100.906C69.7831 100.533 69.9485 100.234 70.2461 100.048C70.4115 99.9357 70.5769 99.8984 70.7423 99.8984C70.7753 99.8984 70.8084 99.8984 70.8415 99.8984C71.1061 99.9357 71.3376 100.085 71.503 100.309C71.6684 100.533 71.7676 100.831 71.7345 101.129C71.7015 101.502 71.5361 101.801 71.2384 101.987C71.1061 102.099 70.9407 102.137 70.7423 102.137Z" fill="#666666"/>
<path d="M75.6429 52.0007C75.6098 52.0007 75.5767 52.0007 75.5437 52.0007C75.246 51.9634 75.0144 51.8142 74.816 51.5531C74.6506 51.2919 74.5514 50.9935 74.5845 50.6578C74.6175 50.2847 74.816 49.949 75.1137 49.7625C75.279 49.6506 75.4444 49.6133 75.6429 49.6133C75.676 49.6133 75.709 49.6133 75.7421 49.6133C76.0398 49.6506 76.2713 49.7998 76.4698 50.0609C76.6351 50.322 76.7344 50.6205 76.7013 50.9562C76.6682 51.3292 76.4698 51.665 76.1721 51.8515C76.0398 51.9261 75.8413 52.0007 75.6429 52.0007Z" fill="#666666"/>
<path d="M150.518 53.4538C150.485 53.4538 150.452 53.4538 150.419 53.4538C150.121 53.4165 149.889 53.2673 149.691 53.0062C149.526 52.745 149.426 52.4466 149.459 52.1109C149.493 51.7379 149.691 51.4021 149.989 51.2156C150.154 51.1037 150.319 51.0664 150.518 51.0664C150.551 51.0664 150.584 51.0664 150.617 51.0664C150.915 51.1037 151.146 51.2529 151.345 51.514C151.51 51.7752 151.609 52.0736 151.576 52.4093C151.543 52.7824 151.345 53.1181 151.047 53.3046C150.882 53.3792 150.683 53.4538 150.518 53.4538Z" fill="#666666"/>
<path d="M96.4085 91.1314C96.3754 91.1314 96.3424 91.1314 96.3093 91.1314C96.0116 91.0941 95.7801 90.9448 95.5816 90.6837C95.4162 90.4226 95.317 90.1242 95.3501 89.8258C95.3832 89.4527 95.5816 89.117 95.8793 88.9305C96.0447 88.8186 96.2101 88.7812 96.4085 88.7812C96.4416 88.7812 96.4747 88.7812 96.5077 88.7812C96.8054 88.8186 97.037 88.9678 97.2354 89.2289C97.4008 89.49 97.5 89.7884 97.4669 90.1242C97.4339 90.4972 97.2354 90.8329 96.9377 91.0195C96.7723 91.0568 96.5739 91.1314 96.4085 91.1314Z" fill="#666666"/>
<path d="M205.549 75.9126C205.516 75.9126 205.483 75.9126 205.45 75.9126C205.152 75.8753 204.921 75.7261 204.722 75.465C204.557 75.2038 204.458 74.9054 204.491 74.607C204.524 74.234 204.722 73.8982 205.02 73.7117C205.185 73.5998 205.351 73.5625 205.549 73.5625C205.582 73.5625 205.615 73.5625 205.648 73.5625C205.946 73.5998 206.178 73.749 206.376 74.0101C206.541 74.2713 206.641 74.5697 206.608 74.9054C206.574 75.2785 206.376 75.6142 206.078 75.8007C205.913 75.8753 205.748 75.9126 205.549 75.9126Z" fill="#666666"/>
<path d="M264.401 46.4421C264.368 46.4421 264.335 46.4421 264.301 46.4421C264.004 46.4048 263.772 46.2556 263.574 45.9945C263.408 45.7333 263.309 45.4349 263.342 45.0992C263.375 44.7262 263.574 44.3904 263.871 44.2039C264.037 44.092 264.202 44.0547 264.401 44.0547C264.434 44.0547 264.467 44.0547 264.5 44.0547C264.798 44.092 265.029 44.2412 265.228 44.5023C265.393 44.7635 265.492 45.0619 265.459 45.3976C265.426 45.7706 265.228 46.1064 264.93 46.2929C264.765 46.4048 264.566 46.4421 264.401 46.4421Z" fill="#666666"/>
<path d="M167.253 20.1022C167.22 20.1022 167.154 20.1022 167.121 20.1022C166.757 20.0649 166.426 19.8411 166.195 19.5427C165.963 19.207 165.864 18.7966 165.897 18.3863C165.93 17.864 166.195 17.4537 166.591 17.1926C166.79 17.0434 167.054 16.9688 167.286 16.9688C167.319 16.9688 167.385 16.9688 167.451 16.9688C167.815 17.0061 168.146 17.2299 168.378 17.5283C168.609 17.864 168.708 18.2744 168.675 18.6847C168.642 19.1696 168.377 19.6173 167.981 19.8784C167.749 20.0276 167.484 20.1022 167.253 20.1022Z" fill="#666666"/>
<path d="M241.066 2.76044C241.033 2.76044 240.967 2.76044 240.934 2.76044C240.603 2.72314 240.305 2.53663 240.107 2.2382C239.908 1.93977 239.809 1.60404 239.842 1.23101C239.875 0.783371 240.107 0.410337 240.438 0.186517C240.636 0.0746067 240.834 0 241.066 0C241.099 0 241.132 0 241.198 0C241.529 0.0373033 241.827 0.223818 242.025 0.522244C242.224 0.820671 242.323 1.1564 242.29 1.52943C242.257 1.97707 242.025 2.35011 241.694 2.57393C241.496 2.68584 241.298 2.76044 241.066 2.76044Z" fill="#666666"/>
<path d="M222.758 101.945C222.725 101.945 222.659 101.945 222.626 101.945C222.229 101.908 221.865 101.684 221.634 101.348C221.369 100.975 221.27 100.565 221.303 100.117C221.369 99.5949 221.634 99.1099 222.031 98.8488C222.262 98.6996 222.527 98.625 222.791 98.625C222.858 98.625 222.891 98.625 222.957 98.625C223.354 98.6623 223.718 98.8861 223.949 99.2218C224.214 99.5576 224.313 100.005 224.28 100.453C224.247 101.012 223.982 101.46 223.552 101.758C223.288 101.87 223.023 101.945 222.758 101.945Z" fill="#666666"/>
<path d="M246.229 61.8143C246.163 61.8143 246.13 61.8143 246.064 61.8143C245.667 61.777 245.303 61.5532 245.071 61.2175C244.807 60.8444 244.707 60.4341 244.741 59.9865C244.807 59.4269 245.038 58.9793 245.468 58.6809C245.7 58.5316 245.964 58.457 246.229 58.457C246.295 58.457 246.328 58.457 246.394 58.457C246.791 58.4943 247.155 58.7182 247.387 59.0539C247.651 59.3896 247.75 59.8373 247.717 60.2849C247.684 60.8444 247.387 61.2921 246.99 61.5905C246.725 61.7397 246.494 61.8143 246.229 61.8143Z" fill="#666666"/>
<path d="M321.673 51.0309C321.607 51.0309 321.574 51.0309 321.508 51.0309C321.111 50.9936 320.747 50.7698 320.515 50.4341C320.284 50.0983 320.152 49.6507 320.185 49.2031C320.218 48.6808 320.515 48.1959 320.912 47.9347C321.144 47.7855 321.409 47.7109 321.673 47.7109C321.739 47.7109 321.772 47.7109 321.839 47.7109C322.235 47.7482 322.599 47.9721 322.831 48.3078C323.095 48.6435 323.195 49.0912 323.162 49.5388C323.095 50.0983 322.864 50.546 322.434 50.8071C322.202 50.9563 321.938 51.0309 321.673 51.0309Z" fill="#666666"/>
<path d="M248.854 92.738C248.788 92.738 248.755 92.738 248.689 92.738C248.292 92.7007 247.928 92.4768 247.696 92.1411C247.432 91.7681 247.332 91.3577 247.366 90.9101C247.432 90.3879 247.696 89.9029 248.093 89.6418C248.325 89.4926 248.589 89.418 248.854 89.418C248.92 89.418 248.953 89.418 249.019 89.418C249.416 89.4553 249.78 89.6791 250.012 90.0148C250.276 90.3506 250.375 90.7982 250.342 91.2458C250.309 91.8054 250.012 92.253 249.615 92.5514C249.383 92.6634 249.119 92.738 248.854 92.738Z" fill="#666666"/>
<path d="M216.104 45.5817C216.038 45.5817 216.005 45.5817 215.939 45.5817C215.542 45.5444 215.178 45.3206 214.946 44.9849C214.682 44.6118 214.582 44.2015 214.616 43.7539C214.682 43.2316 214.946 42.7467 215.343 42.4855C215.575 42.3363 215.839 42.2617 216.104 42.2617C216.17 42.2617 216.203 42.2617 216.269 42.2617C216.666 42.299 217.03 42.5228 217.262 42.8586C217.526 43.1943 217.625 43.6419 217.592 44.0896C217.559 44.6491 217.262 45.0968 216.865 45.3952C216.633 45.5071 216.369 45.5817 216.104 45.5817Z" fill="#666666"/>
<path d="M300.109 66.9589C300.076 66.9589 300.043 66.9589 299.977 66.9589C299.349 66.8843 298.885 66.2501 298.952 65.5414C298.985 65.131 299.183 64.758 299.514 64.5342C299.679 64.4223 299.878 64.3477 300.076 64.3477C300.109 64.3477 300.142 64.3477 300.208 64.3477C300.539 64.385 300.804 64.5342 301.002 64.8326C301.201 65.0937 301.3 65.4295 301.267 65.8025C301.234 66.2128 301.035 66.5859 300.705 66.8097C300.506 66.8843 300.308 66.9589 300.109 66.9589Z" fill="#666666"/>
<path d="M325.812 76.6933C325.779 76.6933 325.746 76.6933 325.68 76.6933C325.052 76.6187 324.589 75.9845 324.655 75.2757C324.688 74.8654 324.886 74.4924 325.217 74.2685C325.382 74.1566 325.581 74.082 325.779 74.082C325.812 74.082 325.845 74.082 325.912 74.082C326.242 74.1193 326.507 74.2686 326.705 74.567C326.904 74.8281 327.003 75.1638 326.97 75.5369C326.937 75.9472 326.738 76.3202 326.408 76.5441C326.209 76.6187 326.011 76.6933 325.812 76.6933Z" fill="#666666"/>
<path d="M291.192 32.7522C291.126 32.7522 291.092 32.7522 291.026 32.7522C290.629 32.7149 290.266 32.4911 290.001 32.1181C289.736 31.745 289.637 31.3347 289.67 30.8498C289.703 30.2902 290.001 29.8426 290.398 29.5441C290.629 29.3949 290.894 29.3203 291.159 29.3203C291.225 29.3203 291.258 29.3203 291.324 29.3203C291.721 29.3576 292.085 29.5814 292.349 29.9545C292.614 30.3275 292.713 30.7751 292.68 31.2228C292.647 31.7823 292.349 32.2673 291.952 32.5284C291.721 32.6776 291.456 32.7522 291.192 32.7522Z" fill="#666666"/>
<path d="M282.422 80.3146C282.389 80.3146 282.356 80.3146 282.323 80.3146C282.058 80.2773 281.794 80.128 281.628 79.9042C281.463 79.6804 281.364 79.382 281.397 79.0463C281.43 78.6732 281.595 78.3748 281.893 78.1883C282.058 78.0764 282.224 78.0391 282.389 78.0391C282.422 78.0391 282.455 78.0391 282.488 78.0391C282.753 78.0764 283.018 78.2256 283.183 78.4494C283.348 78.6732 283.448 79.0089 283.415 79.3074C283.381 79.6804 283.183 79.9788 282.918 80.1654C282.786 80.2773 282.588 80.3146 282.422 80.3146Z" fill="#666666"/>
<path d="M180.175 61.1076L188.965 26.2525C188.866 26.2152 188.767 26.1779 188.634 26.1406L179.844 60.9957C179.976 61.033 180.075 61.0703 180.175 61.1076Z" fill="#BDBDBD"/>
<path d="M192.819 25.6664L217.96 33.4572L170.633 103.384C170.732 103.458 170.798 103.533 170.897 103.608L218.291 33.6064L241.443 41.7758L239.029 69.3057L218.853 79.9744C218.919 80.0864 218.952 80.1983 218.985 80.3102L238.963 69.716L234.679 117.75C234.778 117.75 234.91 117.787 235.01 117.787L239.327 69.5668L264.927 55.9884C264.894 55.8765 264.828 55.7646 264.795 55.6527L239.36 69.1192L241.741 41.8504L264.464 49.9079C264.497 49.796 264.53 49.6841 264.563 49.5722L218.489 33.2707L227.353 16.4816C227.254 16.407 227.188 16.3324 227.089 16.2578L218.158 33.1588L192.918 25.3307C192.885 25.4426 192.852 25.5545 192.819 25.6664Z" fill="#BDBDBD"/>
<path d="M186.122 25.668L155.383 40.994C155.416 41.1059 155.482 41.2178 155.515 41.3297L186.255 26.0037C186.189 25.8918 186.156 25.7799 186.122 25.668Z" fill="#BDBDBD"/>
<path d="M205.4 87.1445L171.766 107.06C171.799 107.171 171.865 107.283 171.898 107.395L205.533 87.4803C205.467 87.3683 205.433 87.2564 205.4 87.1445Z" fill="#BDBDBD"/>
<path d="M275.169 97.3594L243.516 116.235C243.582 116.347 243.615 116.459 243.681 116.571L275.301 97.6951C275.268 97.5832 275.235 97.4713 275.169 97.3594Z" fill="#BDBDBD"/>
<path d="M235.74 118.541C235.806 118.578 235.872 118.653 235.938 118.69L269.426 55.3389C269.393 55.3389 269.36 55.3016 269.327 55.3016C269.261 55.2643 269.195 55.227 269.129 55.1523L235.641 118.504C235.674 118.504 235.707 118.541 235.74 118.541Z" fill="#BDBDBD"/>
<path d="M266.048 46.6998L234.456 15.4766C234.423 15.5512 234.39 15.5885 234.357 15.6631C234.324 15.7004 234.291 15.7377 234.258 15.775L265.85 46.9982C265.883 46.8863 265.949 46.8117 266.048 46.6998Z" fill="#BDBDBD"/>
<path d="M166.456 104.328L178.298 67.9361C178.198 67.8988 178.099 67.8615 177.967 67.8242L166.125 104.216C166.257 104.253 166.357 104.291 166.456 104.328Z" fill="#BDBDBD"/>
<path fill-rule="evenodd" clip-rule="evenodd" d="M398.539 26.8754L398.439 26.8008L398.373 26.8754L274.584 53.7909C274.618 53.9029 274.618 54.0148 274.651 54.164L397.877 27.3603L362.585 61.6421L337.183 62.6493H337.117L274.056 55.4395C274.056 55.5514 274.056 55.7006 274.023 55.8125L336.522 62.985L302.884 83.0542L272.128 55.5141C272.062 55.626 271.996 55.7379 271.93 55.8125L302.52 83.2407L282.013 95.4762C282.079 95.5881 282.112 95.7 282.178 95.812L302.818 83.5018L323.953 99.5796L324.019 99.6169L362.718 62.0151L432.791 59.2708L433.202 59.2547L433.301 58.8816L399.432 27.6588L398.539 26.8754L398.472 27.2484L432.805 58.8816L363.115 61.6048L398.472 27.2484L398.539 26.8754ZM303.181 83.278L323.953 99.0573L336.786 63.2461L303.181 83.278ZM337.216 62.985L324.449 98.6843L362.189 62.0151L337.216 62.985Z" fill="#BDBDBD"/>
<path d="M433.202 59.2547L432.791 59.2708L435.604 83.8379L428.279 112.334H428.697L436.023 83.8379L433.202 59.2547Z" fill="#BDBDBD"/>
<path fill-rule="evenodd" clip-rule="evenodd" d="M82.0968 79.4984L-43.6697 106.946L-8.37796 72.664L17.0241 71.6569H17.0903L83.1433 76.7726C83.1433 76.6606 83.1434 76.5114 83.1764 76.3995L17.6857 71.3211L51.3236 51.2519L84.1899 75.124C84.256 75.0121 84.3221 74.9002 84.3883 74.8256L51.6875 51.0654L71.6317 39.3269C71.5656 39.215 71.5325 39.1031 71.4994 38.9912L51.3567 50.8043L30.2213 34.7639L30.1552 34.7266L-8.51027 72.2537L-78.9945 75.0515L-79.0938 75.4245L-45.2243 106.61L-44.3974 107.393L-44.2651 107.02L-78.5976 75.3872L-8.90719 72.664L-44.2651 107.02L-44.3974 107.393L-44.2981 107.468L-44.232 107.393L82.0968 79.8342C82.1299 79.7595 82.0968 79.6103 82.0968 79.4984ZM51.0259 50.9908L30.2544 35.2115L17.4211 71.0227L51.0259 50.9908ZM16.9911 71.2838L29.7583 35.5845L-7.98106 72.2537L16.9911 71.2838Z" fill="#D9D9D9"/>
<path d="M165.083 107.723L140.135 96.4646L186.807 26.3633C186.708 26.2887 186.641 26.2141 186.542 26.1395L139.771 96.3527L116.618 88.1832L119.033 60.6534L142.02 48.4925C141.987 48.3806 141.921 48.2687 141.888 48.1567L119.066 60.243L121.24 8.94745C121.141 8.94745 121.008 8.91016 120.909 8.91016L118.702 60.3922L89.7109 75.0247C89.744 75.1367 89.8102 75.2486 89.8432 75.3605L118.702 60.8026L116.32 88.0713L90.9891 78.7929C90.956 78.9048 90.923 79.0167 90.8899 79.1286L139.573 96.6884L128.161 116.198C128.26 116.273 128.326 116.347 128.426 116.422L139.903 96.8003L164.984 108.096C165.017 107.984 165.05 107.872 165.083 107.723Z" fill="#BDBDBD"/>
<path d="M120.303 9.37969C120.237 9.34239 120.17 9.26777 120.104 9.23047L88.7969 73.7105C88.83 73.7105 88.863 73.7478 88.8961 73.7478C88.9622 73.7851 89.0284 73.8224 89.0945 73.897L120.402 9.41699C120.369 9.41699 120.336 9.37969 120.303 9.37969Z" fill="#BDBDBD"/>
<path d="M96.3984 90.5307L125.174 118.061C125.207 118.023 125.24 117.949 125.273 117.911C125.307 117.874 125.34 117.837 125.373 117.799L96.5969 90.2695C96.5638 90.3441 96.4977 90.4187 96.3984 90.5307Z" fill="#BDBDBD"/>
<path d="M75.9779 35.6604L117.045 9.1834C116.979 9.07149 116.946 8.95957 116.879 8.84766L75.8125 35.3247C75.8456 35.4366 75.9117 35.5485 75.9779 35.6604Z" fill="#BDBDBD"/>
<path d="M140.462 95.46C140.264 95.3107 139.999 95.2734 139.768 95.2734C139.47 95.3107 139.172 95.4599 138.974 95.7584C138.776 96.0195 138.676 96.3552 138.709 96.7283C138.742 97.1386 138.941 97.5116 139.272 97.7354C139.47 97.8847 139.735 97.922 139.966 97.922C140.264 97.8847 140.562 97.7355 140.76 97.437C140.959 97.1759 141.058 96.8402 141.025 96.4671C140.992 96.0195 140.76 95.6465 140.462 95.46Z" fill="#666666"/>
<path d="M158.384 68.9756C158.186 68.8264 157.921 68.7891 157.69 68.7891C157.392 68.8264 157.094 68.9756 156.896 69.274C156.697 69.5351 156.598 69.8709 156.631 70.2439C156.664 70.6542 156.863 71.0273 157.194 71.2511C157.392 71.4003 157.657 71.4376 157.888 71.4376C158.186 71.4003 158.484 71.2511 158.682 70.9527C158.88 70.6915 158.98 70.3558 158.947 69.9828C158.913 69.5351 158.715 69.1621 158.384 68.9756Z" fill="#666666"/>
<path d="M119.455 59.499C119.256 59.3498 118.992 59.3125 118.76 59.3125C118.462 59.3498 118.165 59.499 117.966 59.7975C117.768 60.0586 117.669 60.3943 117.702 60.7673C117.735 61.1777 117.933 61.5507 118.264 61.7745C118.462 61.9237 118.727 61.961 118.958 61.961C119.256 61.9237 119.554 61.7745 119.752 61.4761C119.951 61.215 120.05 60.8792 120.017 60.5062C119.984 60.0959 119.752 59.7228 119.455 59.499Z" fill="#666666"/>
<path d="M51.8765 49.874C51.678 49.7248 51.4134 49.6875 51.1819 49.6875C50.8842 49.7248 50.5865 49.874 50.3881 50.1724C50.1896 50.4336 50.0904 50.7693 50.1235 51.1423C50.1565 51.5527 50.355 51.9257 50.6857 52.1495C50.8842 52.2987 51.1488 52.336 51.3803 52.336C51.678 52.2987 51.9757 52.1495 52.1742 51.8511C52.3726 51.59 52.4718 51.2542 52.4388 50.8812C52.4057 50.4336 52.1742 50.0978 51.8765 49.874Z" fill="#666666"/>
<path d="M30.7124 33.7959C30.514 33.6467 30.2493 33.6094 30.0178 33.6094C29.7201 33.6467 29.4225 33.7959 29.224 34.0943C29.0255 34.3554 28.9263 34.6912 28.9594 35.0642C28.9925 35.4745 29.1909 35.8476 29.5217 36.0714C29.7201 36.2206 29.9847 36.2579 30.2163 36.2579C30.514 36.2206 30.8116 36.0714 31.0101 35.773C31.2085 35.5119 31.3078 35.1761 31.2747 34.8031C31.2416 34.3554 31.0101 33.9824 30.7124 33.7959Z" fill="#666666"/>
<path d="M17.8374 70.3154C17.639 70.1662 17.3743 70.1289 17.1428 70.1289C16.8451 70.1662 16.5475 70.3154 16.349 70.6139C16.1505 70.875 16.0513 71.2107 16.0844 71.5837C16.1175 71.9941 16.3159 72.3671 16.6467 72.5909C16.8451 72.7401 17.1097 72.7774 17.3413 72.7774C17.639 72.7401 17.9366 72.5909 18.1351 72.2925C18.3335 72.0314 18.4328 71.6957 18.3997 71.3226C18.3666 70.875 18.1682 70.5392 17.8374 70.3154Z" fill="#666666"/>
<path d="M21.3921 91.3935C21.1936 91.2443 20.929 91.207 20.6975 91.207C20.3998 91.2443 20.1021 91.3936 19.9037 91.692C19.7052 91.9531 19.606 92.2888 19.6391 92.6619C19.6722 93.0722 19.8706 93.4452 20.2014 93.6691C20.3998 93.8183 20.6644 93.8556 20.896 93.8556C21.1936 93.8183 21.4913 93.6691 21.6898 93.3706C21.8882 93.1095 21.9875 92.7738 21.9544 92.4007C21.9213 91.9904 21.7228 91.6174 21.3921 91.3935Z" fill="#666666"/>
<path d="M0.0874045 96.3193C-0.11105 96.1701 -0.375657 96.1328 -0.607187 96.1328C-0.904868 96.1701 -1.20255 96.3193 -1.401 96.6178C-1.59945 96.8789 -1.69868 97.2146 -1.66561 97.5876C-1.63253 97.998 -1.43408 98.371 -1.10332 98.5948C-0.904868 98.744 -0.64026 98.7814 -0.408731 98.7814C-0.11105 98.744 0.186629 98.5948 0.385083 98.2964C0.583538 98.0353 0.682771 97.6996 0.649695 97.3265C0.616619 96.8789 0.385086 96.5431 0.0874045 96.3193Z" fill="#666666"/>
<path d="M50.103 73.2607C49.9046 73.1115 49.64 73.0742 49.4084 73.0742C49.1108 73.1115 48.8131 73.2607 48.6146 73.5592C48.4162 73.8203 48.3169 74.156 48.35 74.529C48.3831 74.9394 48.5816 75.3124 48.9123 75.5362C49.1108 75.6854 49.3754 75.7227 49.6069 75.7227C49.9046 75.6854 50.2023 75.5362 50.4007 75.2378C50.5992 74.9767 50.6984 74.641 50.6653 74.2679C50.6322 73.8203 50.4338 73.4846 50.103 73.2607Z" fill="#666666"/>
<path d="M117.072 87.1787C116.873 87.0295 116.609 86.9922 116.377 86.9922C116.079 87.0295 115.782 87.1787 115.583 87.4771C115.385 87.7382 115.286 88.074 115.319 88.447C115.352 88.8574 115.55 89.2304 115.881 89.4542C116.079 89.6034 116.344 89.6407 116.576 89.6407C116.873 89.6034 117.171 89.4542 117.369 89.1558C117.568 88.8947 117.667 88.5589 117.634 88.1859C117.601 87.7756 117.403 87.4025 117.072 87.1787Z" fill="#666666"/>
<path d="M217.6 34.505C217.798 34.6542 218.063 34.6915 218.294 34.6915C218.592 34.6542 218.89 34.505 219.088 34.2066C219.287 33.9454 219.386 33.6097 219.353 33.2367C219.32 32.8263 219.121 32.4533 218.791 32.2295C218.592 32.0803 218.327 32.043 218.096 32.043C217.798 32.0803 217.501 32.2295 217.302 32.5279C217.104 32.789 217.004 33.1248 217.038 33.4978C217.071 33.9454 217.302 34.3185 217.6 34.505Z" fill="#666666"/>
<path d="M202.709 56.5519C202.908 56.7011 203.172 56.7384 203.404 56.7384C203.701 56.7011 203.999 56.5519 204.198 56.2534C204.396 55.9923 204.495 55.6566 204.462 55.2836C204.429 54.8732 204.231 54.5002 203.9 54.2764C203.701 54.1271 203.437 54.0898 203.205 54.0898C202.908 54.1271 202.61 54.2764 202.411 54.5748C202.213 54.8359 202.114 55.1716 202.147 55.5447C202.18 55.9923 202.411 56.328 202.709 56.5519Z" fill="#666666"/>
<path d="M238.6 70.4659C238.798 70.6151 239.063 70.6524 239.294 70.6524C239.592 70.6151 239.89 70.4659 240.088 70.1675C240.287 69.9064 240.386 69.5706 240.353 69.1976C240.32 68.7873 240.121 68.4142 239.791 68.1904C239.592 68.0412 239.327 68.0039 239.096 68.0039C238.798 68.0412 238.501 68.1904 238.302 68.4888C238.104 68.75 238.004 69.0857 238.038 69.4587C238.071 69.8691 238.302 70.2421 238.6 70.4659Z" fill="#666666"/>
<path d="M256.381 79.7081C256.58 79.8573 256.844 79.8946 257.076 79.8946C257.373 79.8573 257.671 79.7081 257.869 79.4097C258.068 79.1486 258.167 78.8128 258.134 78.4398C258.101 78.0295 257.903 77.6564 257.572 77.4326C257.373 77.2834 257.109 77.2461 256.877 77.2461C256.58 77.2834 256.282 77.4326 256.083 77.731C255.885 77.9922 255.786 78.3279 255.819 78.7009C255.852 79.1486 256.05 79.4843 256.381 79.7081Z" fill="#666666"/>
<path d="M256.131 109.86C256.329 110.01 256.594 110.047 256.826 110.047C257.123 110.01 257.421 109.86 257.619 109.562C257.818 109.301 257.917 108.965 257.884 108.592C257.851 108.182 257.653 107.809 257.322 107.585C257.123 107.436 256.859 107.398 256.627 107.398C256.329 107.436 256.032 107.585 255.833 107.883C255.635 108.144 255.536 108.48 255.569 108.853C255.602 109.301 255.8 109.674 256.131 109.86Z" fill="#666666"/>
<path d="M95.6467 24.13C95.8451 24.2792 96.1098 24.3165 96.3413 24.3165C96.639 24.2792 96.9366 24.13 97.1351 23.8316C97.3335 23.5704 97.4328 23.2347 97.3997 22.8617C97.3666 22.4513 97.1682 22.0783 96.8374 21.8545C96.639 21.7053 96.3743 21.668 96.1428 21.668C95.8451 21.7053 95.5475 21.8545 95.349 22.1529C95.1506 22.414 95.0513 22.7498 95.0844 23.1228C95.1175 23.5704 95.3159 23.9062 95.6467 24.13Z" fill="#666666"/>
<path d="M100.662 49.0909C100.861 49.2401 101.125 49.2774 101.357 49.2774C101.655 49.2401 101.952 49.0909 102.151 48.7925C102.349 48.5314 102.448 48.1956 102.415 47.8226C102.382 47.4123 102.184 47.0392 101.853 46.8154C101.655 46.6662 101.39 46.6289 101.158 46.6289C100.861 46.6662 100.563 46.8154 100.365 47.1138C100.166 47.375 100.067 47.7107 100.1 48.0837C100.133 48.5314 100.332 48.9044 100.662 49.0909Z" fill="#666666"/>
<path d="M303.272 78.2941C303.47 78.4433 303.735 78.4806 303.966 78.4806C304.264 78.4433 304.562 78.2941 304.76 77.9956C304.959 77.7345 305.058 77.3988 305.025 77.0257C304.992 76.6154 304.793 76.2424 304.462 76.0185C304.264 75.8693 303.999 75.832 303.768 75.832C303.47 75.8693 303.172 76.0186 302.974 76.317C302.776 76.5781 302.676 76.9138 302.709 77.2869C302.742 77.7345 302.974 78.0702 303.272 78.2941Z" fill="#666666"/>
<path d="M336.67 38.5753C336.869 38.7245 337.133 38.7618 337.365 38.7618C337.662 38.7245 337.96 38.5753 338.159 38.2769C338.357 38.0157 338.456 37.68 338.423 37.307C338.39 36.8966 338.192 36.5236 337.861 36.2998C337.662 36.1506 337.398 36.1133 337.166 36.1133C336.869 36.1506 336.571 36.2998 336.372 36.5982C336.174 36.8593 336.075 37.1951 336.108 37.5681C336.141 37.9784 336.339 38.3515 336.67 38.5753Z" fill="#666666"/>
<path d="M298.24 49.5636C298.439 49.7128 298.703 49.7501 298.935 49.7501C299.233 49.7128 299.53 49.5636 299.729 49.2652C299.927 49.004 300.027 48.6683 299.993 48.2953C299.96 47.8849 299.762 47.5119 299.431 47.2881C299.233 47.1389 298.968 47.1016 298.737 47.1016C298.439 47.1389 298.141 47.2881 297.943 47.5865C297.744 47.8476 297.645 48.1834 297.678 48.5564C297.711 49.004 297.91 49.3771 298.24 49.5636Z" fill="#666666"/>
<path d="M340.209 59.8683C340.408 60.0175 340.672 60.0548 340.904 60.0548C341.201 60.0175 341.499 59.8683 341.698 59.5698C341.896 59.3087 341.995 58.973 341.962 58.5999C341.929 58.1896 341.731 57.8166 341.4 57.5928C341.201 57.4436 340.937 57.4062 340.705 57.4062C340.408 57.4436 340.11 57.5928 339.912 57.8912C339.713 58.1523 339.614 58.488 339.647 58.8611C339.68 59.2714 339.878 59.6444 340.209 59.8683Z" fill="#666666"/>
<path d="M327.365 96.2081C327.564 96.3573 327.828 96.3946 328.06 96.3946C328.358 96.3573 328.655 96.2081 328.854 95.9097C329.052 95.6486 329.152 95.3128 329.118 94.9398C329.085 94.5295 328.887 94.1564 328.556 93.9326C328.358 93.7834 328.093 93.7461 327.862 93.7461C327.564 93.7834 327.266 93.9326 327.068 94.231C326.869 94.4922 326.77 94.8279 326.803 95.2009C326.836 95.6486 327.035 95.9843 327.365 96.2081Z" fill="#666666"/>
<path d="M240.975 42.7901C241.173 42.9394 241.438 42.9767 241.669 42.9767C241.967 42.9394 242.265 42.7902 242.463 42.4917C242.662 42.2306 242.761 41.8949 242.728 41.5218C242.695 41.1115 242.496 40.7385 242.166 40.5146C241.967 40.3654 241.702 40.3281 241.471 40.3281C241.173 40.3654 240.876 40.5146 240.677 40.8131C240.479 41.0742 240.379 41.4099 240.413 41.783C240.446 42.1933 240.644 42.5663 240.975 42.7901Z" fill="#666666"/>
<path d="M186.411 24.1679L188.396 23.4219C188.727 23.683 189.124 23.8695 189.587 23.8695C190.017 23.8695 190.447 23.683 190.777 23.4219L192.762 24.1679C193.423 24.1679 193.92 24.7648 193.92 25.4736C193.92 26.2196 193.39 26.7792 192.762 26.7792H186.444C185.783 26.7792 185.287 26.1823 185.287 25.4736C185.221 24.7648 185.75 24.1679 186.411 24.1679Z" fill="#00344A"/>
<path d="M187.562 20.9559C187.562 22.187 188.456 23.1941 189.547 23.1941C190.639 23.1941 191.532 22.187 191.532 20.9559V20.0234C191.532 18.7923 190.639 17.7852 189.547 17.7852C188.456 17.7852 187.562 18.7923 187.562 20.0234V20.9559Z" fill="#00344A"/>
<path d="M232.656 120.363L234.64 119.617C234.971 119.878 235.368 120.065 235.831 120.065C236.261 120.065 236.691 119.878 237.022 119.617L239.006 120.363C239.668 120.363 240.164 120.96 240.164 121.669C240.164 122.378 239.635 122.974 239.006 122.974H232.689C232.027 122.974 231.531 122.378 231.531 121.669C231.531 120.96 231.994 120.363 232.656 120.363Z" fill="#00344A"/>
<path d="M233.805 117.151C233.805 118.382 234.698 119.389 235.789 119.389C236.881 119.389 237.774 118.382 237.774 117.151V116.219C237.774 114.988 236.881 113.98 235.789 113.98C234.698 113.98 233.805 114.988 233.805 116.219V117.151Z" fill="#00344A"/>
<path d="M175.88 66.1015L177.865 65.3555C178.195 65.6166 178.592 65.8031 179.055 65.8031C179.485 65.8031 179.915 65.6166 180.246 65.3555L182.231 66.1015C182.892 66.1015 183.388 66.6984 183.388 67.4072C183.388 68.1532 182.859 68.7128 182.231 68.7128H175.913C175.252 68.7128 174.756 68.1159 174.756 67.4072C174.689 66.6611 175.219 66.1015 175.88 66.1015Z" fill="#00344A"/>
<path d="M177.031 62.8895C177.031 64.1205 177.924 65.1277 179.016 65.1277C180.107 65.1277 181 64.1205 181 62.8895V61.957C181 60.7259 180.107 59.7188 179.016 59.7188C177.924 59.7188 177.031 60.7259 177.031 61.957V62.8895Z" fill="#00344A"/>
<path d="M268.423 53.3828L270.407 52.6367C270.738 52.8978 271.135 53.0844 271.598 53.0844C272.028 53.0844 272.458 52.8978 272.789 52.6367L274.773 53.3828C275.435 53.3828 275.931 53.9796 275.931 54.6884C275.931 55.4345 275.402 55.994 274.773 55.994H268.456C267.794 55.994 267.298 55.3972 267.298 54.6884C267.265 53.9796 267.794 53.3828 268.423 53.3828Z" fill="#00344A"/>
<path d="M269.609 50.1708C269.609 51.4018 270.502 52.409 271.594 52.409C272.685 52.409 273.578 51.4018 273.578 50.1708V49.2382C273.578 48.0072 272.685 47 271.594 47C270.502 47 269.609 48.0072 269.609 49.2382V50.1708Z" fill="#00344A"/>
<path d="M123.521 117.016L125.505 116.27C125.836 116.531 126.233 116.717 126.696 116.717C127.126 116.717 127.556 116.531 127.887 116.27L129.871 117.016C130.533 117.016 131.029 117.612 131.029 118.321C131.029 119.067 130.5 119.627 129.871 119.627H123.554C122.892 119.627 122.396 119.03 122.396 118.321C122.33 117.612 122.859 117.016 123.521 117.016Z" fill="#00344A"/>
<path d="M124.703 113.843C124.703 115.074 125.596 116.081 126.688 116.081C127.779 116.081 128.672 115.074 128.672 113.843V112.91C128.672 111.679 127.779 110.672 126.688 110.672C125.596 110.672 124.703 111.679 124.703 112.91V113.843Z" fill="#00344A"/>
<path d="M71.7511 38.2695L73.7356 37.5234C74.0663 37.7846 74.4632 37.9711 74.9263 37.9711C75.3563 37.9711 75.7863 37.7846 76.117 37.5234L78.1016 38.2695C78.7631 38.2695 79.2592 38.8664 79.2592 39.5751C79.2592 40.3212 78.73 40.8807 78.1016 40.8807H71.7841C71.1226 40.8807 70.6265 40.2839 70.6265 39.5751C70.5934 38.8664 71.1226 38.2695 71.7511 38.2695Z" fill="#00344A"/>
<path d="M72.9375 35.0966C72.9375 36.3276 73.8305 37.3348 74.922 37.3348C76.0135 37.3348 76.9066 36.3276 76.9066 35.0966V34.164C76.9066 32.933 76.0135 31.9258 74.922 31.9258C73.8305 31.9258 72.9375 32.933 72.9375 34.164V35.0966Z" fill="#00344A"/>
<path d="M117.126 7.32029L119.111 6.57422C119.441 6.83534 119.838 7.02186 120.301 7.02186C120.731 7.02186 121.161 6.83534 121.492 6.57422L123.477 7.32029C124.138 7.32029 124.634 7.91714 124.634 8.6259C124.634 9.37197 124.105 9.93151 123.477 9.93151H117.159C116.498 9.93151 116.001 9.33467 116.001 8.6259C115.968 7.87984 116.498 7.32029 117.126 7.32029Z" fill="#00344A"/>
<path d="M118.312 4.10828C118.312 5.33929 119.206 6.34648 120.297 6.34648C121.389 6.34648 122.282 5.33929 122.282 4.10828V3.1757C122.282 1.94469 121.389 0.9375 120.297 0.9375C119.206 0.9375 118.312 1.94469 118.312 3.1757V4.10828Z" fill="#00344A"/>
<path d="M149.391 42.5589C149.391 43.4915 150.052 44.2002 150.846 44.2002C151.64 44.2002 152.301 43.4542 152.301 42.5589V41.8874C152.301 40.9922 151.64 40.2461 150.846 40.2461C150.052 40.2461 149.391 40.9922 149.391 41.8874V42.5589Z" fill="#00344A"/>
<path d="M150.115 46.5464C150.115 45.9869 149.718 45.5765 149.255 45.5765L148.031 45.1289C148.164 45.017 148.362 44.9424 148.527 44.9424L150.016 44.3828C150.247 44.5693 150.545 44.7186 150.876 44.7186C151.207 44.7186 151.504 44.6066 151.736 44.3828L153.224 44.9424C153.72 44.9424 154.084 45.39 154.084 45.9123C154.084 46.4718 153.687 46.8821 153.224 46.8821H150.082C150.082 46.7702 150.115 46.6583 150.115 46.5464Z" fill="#00344A"/>
<path d="M145.125 43.5667C145.125 44.462 145.787 45.2081 146.58 45.2081C147.374 45.2081 148.036 44.462 148.036 43.5667V42.8953C148.036 41.9627 147.374 41.2539 146.58 41.2539C145.787 41.2539 145.125 42 145.125 42.8953V43.5667Z" fill="#00344A"/>
<path d="M144.231 45.915L145.686 45.3555C145.918 45.5793 146.248 45.6912 146.546 45.6912C146.877 45.6912 147.175 45.5793 147.406 45.3555L148.861 45.915C149.358 45.915 149.721 46.3627 149.721 46.8849C149.721 47.4072 149.324 47.8548 148.861 47.8548H144.165C143.702 47.8548 143.305 47.4072 143.305 46.8849C143.371 46.3627 143.768 45.915 144.231 45.915Z" fill="#00344A"/>
<path d="M232.039 11.7855C232.039 12.718 232.701 13.4268 233.494 13.4268C234.288 13.4268 234.95 12.6807 234.95 11.7855V11.114C234.95 10.2187 234.288 9.47266 233.494 9.47266C232.701 9.47266 232.039 10.2187 232.039 11.114V11.7855Z" fill="#00344A"/>
<path d="M232.763 15.773C232.763 15.2134 232.367 14.8031 231.903 14.8031L230.68 14.3554C230.812 14.2435 231.01 14.1689 231.176 14.1689L232.664 13.6094C232.896 13.7959 233.193 13.9451 233.524 13.9451C233.855 13.9451 234.153 13.8332 234.384 13.6094L235.873 14.1689C236.369 14.1689 236.733 14.6166 236.733 15.1388C236.733 15.6984 236.336 16.1087 235.873 16.1087H232.73C232.73 16.0341 232.763 15.8849 232.763 15.773Z" fill="#00344A"/>
<path d="M227.781 12.7933C227.781 13.6886 228.443 14.4346 229.237 14.4346C230.03 14.4346 230.692 13.6886 230.692 12.7933V12.1218C230.692 11.1892 230.03 10.4805 229.237 10.4805C228.443 10.4805 227.781 11.2265 227.781 12.1218V12.7933Z" fill="#00344A"/>
<path d="M226.887 15.1767L228.342 14.6172C228.574 14.841 228.905 14.9529 229.202 14.9529C229.533 14.9529 229.831 14.841 230.062 14.6172L231.518 15.1767C232.014 15.1767 232.378 15.6244 232.378 16.1466C232.378 16.6689 231.981 17.1165 231.518 17.1165H226.821C226.358 17.1165 225.961 16.6689 225.961 16.1466C226.027 15.5871 226.424 15.1767 226.887 15.1767Z" fill="#00344A"/>
<path d="M169.156 104.332C169.156 105.265 169.818 105.974 170.612 105.974C171.405 105.974 172.067 105.228 172.067 104.332V103.661C172.067 102.766 171.405 102.02 170.612 102.02C169.818 102.02 169.156 102.766 169.156 103.661V104.332Z" fill="#00344A"/>
<path d="M169.849 108.32C169.849 107.76 169.452 107.35 168.989 107.35L167.766 106.902C167.898 106.79 168.096 106.716 168.262 106.716L169.75 106.156C169.982 106.38 170.279 106.492 170.61 106.492C170.941 106.492 171.239 106.38 171.47 106.156L172.959 106.716C173.455 106.716 173.818 107.163 173.818 107.686C173.818 108.245 173.422 108.656 172.959 108.656H169.816C169.849 108.544 169.849 108.432 169.849 108.32Z" fill="#00344A"/>
<path d="M164.875 105.336C164.875 106.232 165.537 106.978 166.33 106.978C167.124 106.978 167.786 106.232 167.786 105.336V104.665C167.786 103.732 167.124 103.023 166.33 103.023C165.537 103.023 164.875 103.77 164.875 104.665V105.336Z" fill="#00344A"/>
<path d="M164.004 107.685L165.46 107.125C165.691 107.349 166.022 107.461 166.32 107.461C166.65 107.461 166.948 107.349 167.18 107.125L168.635 107.685C169.131 107.685 169.495 108.132 169.495 108.654C169.495 109.177 169.098 109.624 168.635 109.624H163.938C163.475 109.624 163.078 109.177 163.078 108.654C163.111 108.132 163.508 107.685 164.004 107.685Z" fill="#00344A"/>
<path d="M212.906 81.6214C212.906 82.554 213.568 83.2627 214.362 83.2627C215.155 83.2627 215.817 82.5167 215.817 81.6214V80.9499C215.817 80.0547 215.155 79.3086 214.362 79.3086C213.568 79.3086 212.906 80.0547 212.906 80.9499V81.6214Z" fill="#00344A"/>
<path d="M213.631 85.6089C213.631 85.0494 213.234 84.639 212.771 84.639L211.547 84.1914C211.679 84.0795 211.878 84.0049 212.043 84.0049L213.531 83.4453C213.763 83.6691 214.061 83.781 214.391 83.781C214.722 83.781 215.02 83.6691 215.251 83.4453L216.74 84.0049C217.236 84.0049 217.6 84.4525 217.6 84.9748C217.6 85.5343 217.203 85.9446 216.74 85.9446H213.598C213.598 85.8327 213.631 85.7208 213.631 85.6089Z" fill="#00344A"/>
<path d="M208.617 82.6253C208.617 83.5206 209.279 84.2667 210.073 84.2667C210.866 84.2667 211.528 83.5206 211.528 82.6253V81.9538C211.528 81.0213 210.866 80.3125 210.073 80.3125C209.279 80.3125 208.617 81.0586 208.617 81.9538V82.6253Z" fill="#00344A"/>
<path d="M207.723 84.9736L209.178 84.4141C209.41 84.6379 209.741 84.7498 210.038 84.7498C210.369 84.7498 210.667 84.6379 210.898 84.4141L212.354 84.9736C212.85 84.9736 213.214 85.4213 213.214 85.9435C213.214 86.4657 212.817 86.9134 212.354 86.9134H207.657C207.194 86.9134 206.797 86.4657 206.797 85.9435C206.863 85.4213 207.26 84.9736 207.723 84.9736Z" fill="#00344A"/>
<path d="M280.148 93.1097C280.148 94.0423 280.81 94.751 281.604 94.751C282.398 94.751 283.059 94.005 283.059 93.1097V92.4382C283.059 91.5429 282.398 90.7969 281.604 90.7969C280.81 90.7969 280.148 91.5429 280.148 92.4382V93.1097Z" fill="#00344A"/>
<path d="M280.873 97.0972C280.873 96.5376 280.476 96.1273 280.013 96.1273L278.789 95.6797C278.921 95.5678 279.12 95.4931 279.285 95.4931L280.774 94.9336C281.005 95.1574 281.303 95.2693 281.634 95.2693C281.964 95.2693 282.262 95.1574 282.494 94.9336L283.982 95.4931C284.478 95.4931 284.842 95.9408 284.842 96.463C284.842 97.0226 284.445 97.4329 283.982 97.4329H280.84C280.84 97.3583 280.873 97.2091 280.873 97.0972Z" fill="#00344A"/>
<path d="M275.859 94.1136C275.859 95.0089 276.521 95.7549 277.315 95.7549C278.109 95.7549 278.77 95.0089 278.77 94.1136V93.4421C278.77 92.5095 278.109 91.8008 277.315 91.8008C276.521 91.8008 275.859 92.5468 275.859 93.4421V94.1136Z" fill="#00344A"/>
<path d="M274.989 96.4971L276.444 95.9375C276.675 96.1613 277.006 96.2732 277.304 96.2732C277.635 96.2732 277.932 96.1613 278.164 95.9375L279.619 96.4971C280.115 96.4971 280.479 96.9447 280.479 97.4669C280.479 97.9892 280.082 98.4368 279.619 98.4368H274.922C274.459 98.4368 274.062 97.9892 274.062 97.4669C274.096 96.9074 274.492 96.4971 274.989 96.4971Z" fill="#00344A"/>
<path d="M87.1406 75.4652C87.1406 76.3977 87.8021 77.1065 88.5959 77.1065C89.3898 77.1065 90.0513 76.3604 90.0513 75.4652V74.7937C90.0513 73.8984 89.3898 73.1523 88.5959 73.1523C87.8021 73.1523 87.1406 73.8984 87.1406 74.7937V75.4652Z" fill="#00344A"/>
<path d="M87.8338 79.4527C87.8338 78.8931 87.4369 78.4828 86.9738 78.4828L85.75 78.0351C85.8823 77.9232 86.0808 77.8486 86.2461 77.8486L87.7345 77.2891C87.9661 77.5129 88.2637 77.6248 88.5945 77.6248C88.9253 77.6248 89.2229 77.5129 89.4545 77.2891L90.9429 77.8486C91.439 77.8486 91.8028 78.2963 91.8028 78.8185C91.8028 79.3781 91.4059 79.7884 90.9429 79.7884H87.8007C87.8338 79.6765 87.8338 79.5646 87.8338 79.4527Z" fill="#00344A"/>
<path d="M82.8516 76.4339C82.8516 77.3292 83.5131 78.0752 84.3069 78.0752C85.1007 78.0752 85.7622 77.3292 85.7622 76.4339V75.7624C85.7622 74.8299 85.1007 74.1211 84.3069 74.1211C83.5131 74.1211 82.8516 74.8672 82.8516 75.7624V76.4339Z" fill="#00344A"/>
<path d="M81.9496 78.8174L83.4049 78.2578C83.6364 78.4816 83.9672 78.5935 84.2648 78.5935C84.5956 78.5935 84.8933 78.4816 85.1248 78.2578L86.5801 78.8174C87.0763 78.8174 87.4401 79.265 87.4401 79.7873C87.4401 80.3095 87.0432 80.7571 86.5801 80.7571H81.8834C81.4203 80.7571 81.0234 80.3095 81.0234 79.7873C81.0896 79.265 81.4865 78.8174 81.9496 78.8174Z" fill="#00344A"/>
<path d="M244.165 117.363C244.132 117.363 244.066 117.363 244.033 117.363C243.669 117.325 243.371 117.139 243.14 116.841C242.908 116.542 242.809 116.132 242.842 115.759C242.875 115.274 243.107 114.863 243.504 114.64C243.702 114.49 243.934 114.453 244.165 114.453C244.198 114.453 244.264 114.453 244.297 114.453C244.661 114.49 244.959 114.677 245.191 114.975C245.422 115.274 245.521 115.684 245.488 116.057C245.455 116.542 245.224 116.952 244.827 117.176C244.628 117.288 244.397 117.363 244.165 117.363Z" fill="#666666"/>
<path d="M145.182 89.1911C145.116 89.1911 145.083 89.1911 145.017 89.1911C144.62 89.1538 144.256 88.93 144.024 88.5942C143.76 88.2212 143.661 87.8109 143.694 87.3632C143.727 86.841 144.024 86.356 144.421 86.0949C144.653 85.9457 144.917 85.8711 145.182 85.8711C145.248 85.8711 145.281 85.8711 145.347 85.8711C145.744 85.9084 146.108 86.1322 146.34 86.4679C146.604 86.8037 146.704 87.2513 146.67 87.699C146.637 88.2585 146.373 88.7061 145.943 89.0046C145.711 89.1165 145.447 89.1911 145.182 89.1911Z" fill="#666666"/>
</g>
<defs>
<clipPath id="clip0_224_11015">
<rect width="340" height="130" fill="white"/>
</clipPath>
</defs>
</svg>
