<svg width="341" height="40" viewBox="0 0 341 40" fill="none" xmlns="http://www.w3.org/2000/svg">
<path d="M6.97256 10.1562V17.4967H7.80091L17.8004 10.1562H26.1964L13.7119 19.3463V20.315L26.4094 30.4737H17.7352L7.96067 22.6489H6.97847V30.4737H0.546875V10.1562H6.97256Z" fill="#00174D"/>
<path d="M35.4865 10.1562V23.1974H36.4096L48.616 10.1562H56.1482V30.4737H49.6928V17.4325H48.7698L36.5634 30.4737H29.0312V10.1562H35.4865Z" fill="#00174D"/>
<path d="M83.3015 10.1562V15.3085H66.758V17.6133H76.2901C82.6862 17.6133 85.0233 19.7665 85.0233 23.8276V24.4403C85.0233 28.5365 82.5915 30.4737 76.2901 30.4737H60.2969V10.1562H83.3015ZM66.758 25.6831H76.2901C77.6451 25.6831 78.3787 25.2572 78.3787 24.1952V23.8918C78.3787 22.9232 77.6687 22.4039 76.2901 22.4039H66.758V25.6831Z" fill="#00174D"/>
<path d="M111.65 10.1562V15.1276H94.7695V17.7942H109.869V22.433H94.7695V25.4672H111.804V30.4737H88.3438V10.1562H111.65Z" fill="#00174D"/>
<path d="M132.366 10.1562C138.395 10.1562 140.667 12.9162 140.667 16.7673V17.6192C140.667 21.5928 138.389 24.2886 132.366 24.2886H121.94V30.4737H115.484V10.1562H132.366ZM121.94 19.1304H131.567C133.135 19.1304 134.057 18.6753 134.057 17.4325V16.9482C134.057 15.7637 133.135 15.3085 131.567 15.3085H121.94V19.1304Z" fill="#00174D"/>
<path d="M168.927 10.1562V30.4737H162.472V15.3085H150.112V30.4737H143.656V10.1562H168.927Z" fill="#00174D"/>
<path d="M189.943 10.1562C195.972 10.1562 198.244 12.9162 198.244 16.7673V17.6192C198.244 21.5928 195.966 24.2886 189.943 24.2886H179.518V30.4737H173.062V10.1562H189.943ZM179.523 19.1304H189.149C190.718 19.1304 191.641 18.6753 191.641 17.4325V16.9482C191.641 15.7637 190.718 15.3085 189.149 15.3085H179.523V19.1304Z" fill="#00174D"/>
<path d="M215.626 9.85156C223.099 9.85156 229.093 13.4284 229.093 19.8586V20.7688C229.093 27.199 223.099 30.7758 215.626 30.7758H214.088C206.431 30.7758 200.312 27.199 200.312 20.7688V19.8586C200.312 13.4284 206.431 9.85156 214.088 9.85156H215.626ZM206.922 19.8586V20.7688C206.922 23.7096 209.626 25.3201 214.088 25.3201H215.318C219.779 25.3201 222.483 23.7155 222.483 20.7688V19.8586C222.483 16.8886 219.779 15.3073 215.318 15.3073H214.088C209.632 15.3073 206.922 16.8886 206.922 19.8586Z" fill="#00174D"/>
<path d="M256.677 10.1562V15.3085H246.683V30.4737H240.228V15.3085H230.234V10.1562H256.677Z" fill="#00174D"/>
<path d="M282.446 10.1562V15.1276H265.566V17.7942H280.666V22.433H265.566V25.4672H282.601V30.4737H259.141V10.1562H282.446Z" fill="#00174D"/>
<path d="M292.704 10.1562V17.4967H293.532L303.526 10.1562H311.923L299.438 19.3463V20.315L312.135 30.4737H303.462L293.681 22.6489H292.699V30.4737H286.273V10.1562H292.704Z" fill="#00174D"/>
<path d="M340.458 10.1562V15.3085H330.464V30.4737H324.009V15.3085H314.016V10.1562H340.458Z" fill="#00174D"/>
</svg>
