<svg xmlns="http://www.w3.org/2000/svg" width="469" height="206" fill="none"><path fill="#00344A" d="M493.801 20.335c12.236 9.476 12.426 9.665 19.445 19.615l.19.095c-10.624-13.456-11.098-13.93-19.54-19.615zm19.54 19.71 2.846 4.359h.095c-.854-1.327-1.992-3.033-2.846-4.36zM488.868 18.63c-8.063-1.706-20.299-.38-36.14 3.98h.19c19.635-4.738 20.773-5.023 36.14-3.98-.095.095-.095 0-.19 0m-42.875 6.348.19.095 6.64-2.369h-.19zm72.281 23.026c2.371 4.738 5.596 11.087 7.683 15.92h.095c-2.277-4.833-5.027-11.277-7.589-15.92zm-72.376-23.026-12.046 5.402c.094 0 .094 0 12.141-5.307zm-6.165 9.666c34.433 10.233 42.685 12.697 79.679 29.753-39.176-17.909-39.84-18.193-79.679-29.753"/><path fill="#00344A" d="m539.526 50.658 19.825 9.76.189.095 19.161 10.897-19.066-10.897-.189-.095zm-1.803 2.274 18.687 7.676.19.094 22.196 10.992-22.101-10.992-.19-.094zm-52.74-21.983c8.537 2.748 20.015 5.97 28.362 9.002l.19.094 25.801 10.518-25.896-10.518-.189-.094zm-11.952 5.4.19.096c12.047 2.369 28.078 5.496 40.03 8.623-12.047-2.843-28.078-6.633-40.22-8.718m0 .096-.189-.095c-10.15-1.137-23.714-2.843-33.959-3.506 0 0 .095 0 .095.095M421.71 17.114l.38.095c9.201 1.61 21.532 3.411 30.638 5.401h.19l22.766 5.686-22.671-5.686h-.19c-9.39-1.706-21.817-4.264-31.113-5.496m-12.331-1.516c3.605.474 8.537 1.042 12.237 1.516l-.38-.095-11.383-1.42zm48.282 13.93.19.094 2.087-.095h16.694c-.664-.473-1.897-.094-2.751-.19zm-66.684-15.446 12.995.948c-.474 0-.474 0-12.995-.948m-1.043.569 10.339 3.79.095-.095-10.245-3.79c-.095 0-.095 0-.189.095m46.764 16.772 21.058-1.8-.19-.096-20.963 1.8c0 .095 0 .095.095.095M400.463 18.44c7.398 3.411 17.358 7.77 24.662 11.56-7.304-3.506-17.074-8.433-24.662-11.56M481.66 14.935l1.897.569a48 48 0 0 1-1.897-.569q-.143 0 0 0m1.992.758c.38.095.949.284 1.328.38-.095 0-.095 0-1.423-.38 0-.095.095-.095.095 0M388.416 1.101c6.545-.19 41.737-.38 92.201 13.55-36.52-8.907-65.356-15.92-120.183-12.792h.095m122.269 13.55c-35.096-9.381-58.905-6.633-79.869-4.264h.475c12.995-1.327 30.449-2.559 43.539-1.895 10.908.568 25.326 3.695 35.95 6.159zm-92.674-1.895 8.821-1.611c.095 0 .19-.095.19-.095-2.751.474-6.355 1.232-9.106 1.706zM356.734 3.09c9.107 2.37 21.153 6.444 29.785 10.045-8.632-3.696-20.584-7.77-29.69-10.14.095.095 0 .095-.095.095"/><path fill="#00344A" d="M386.897 14.555c-1.423-.19-2.087-.663-1.518-1.042 1.138-.758 5.786-.285 5.597.568-.095.474-1.708.758-3.89.474-.094.095-.189 0-.189 0M349.43 3.564c-2.845 0-5.501-.19-5.027-.758 1.328-1.232 15.841-1.895 16.315-.663-.379.758-5.786 1.326-10.813 1.421z"/><path fill="#00344A" d="M520.933 132.624c9.675 29.374 9.675 29.374 15.082 47.094-9.675-31.365-9.675-31.365-14.987-47.094zm-10.339 32.122v.095l23.904 15.54zm-41.168-22.647h-.19c12.521 6.633 29.026 15.54 41.263 22.647v-.095m-75.506-39.134c14.703-.284 34.338-.284 49.041.284-14.703-.379-34.338-.663-49.041-.284m-.095 1.137c10.245 4.548 23.999 10.423 34.054 15.35h.19c-10.245-4.737-23.809-11.086-34.244-15.445z" opacity=".302"/><path fill="#00344A" d="M507.558 72.264c-22.86 11.844-23.334 12.034-38.606 22.836 23.145-15.35 23.998-16.014 38.606-22.836m4.459 1.705c3.604 22.079 3.984 24.448 7.588 53.254-1.043-8.718-2.466-20.278-3.604-28.996-1.139-7.296-2.562-17.056-3.795-24.258 0 .095-.095 0-.189 0m-8.537 53.538.094.095 13.091 1.8v-.095c-3.984-.568-9.201-1.326-13.185-1.8m-6.83-.758.19.189 6.64.758-.095-.094zm-.285 0-10.718-.853.379.19 10.529.852zm-61.372-1.232c14.703-.284 34.338-.284 49.041.379l1.613.095-.38-.19c-15.082-.474-35.286-.758-50.369-.379.095 0 .095.095.095.095" opacity=".302"/><path fill="#00344A" d="M430.155 61.365c40.598 1.895 42.97 1.99 75.316 7.96-38.797-6.633-40.219-6.917-75.316-7.96q0-.142 0 0m-12.332-.095.19.095 5.407-.095s0-.094-.095-.094c-1.707 0-3.889.094-5.502.094m-27.982 1.232-.095.095 28.077-1.232-.189-.095zm-.285 0-2.656.19.475.095 1.992-.19zm-4.268.474c.474 0 1.233-.095 1.707-.095l-.474-.094zM468.951 95.1l.095.094c23.145-15.35 23.998-16.013 38.606-22.836l-.094-.095c-22.861 11.845-23.24 12.034-38.607 22.837m-86.224-29.185 1.422 1.421.095-.095-1.328-1.326c-.095-.095-.095-.095-.189 0m79.774 34.112 6.45-4.738-.095-.094-.854.568-5.691 4.17c.095 0 .19.094.19.094m-78.257-32.691 14.798 15.635.095-.095-14.798-15.73zm14.893 15.824 4.648 5.401.095-.094-4.648-5.307zm58.241 20.657-10.339 8.434.19.094 10.244-8.433zm-53.498-15.16 12.426 15.35.189.095-12.615-15.54zm30.069 35.533 13.28-11.75-.19-.095-13.185 11.75s0 .095.095.095m-17.454-19.994 14.419 19.52h.094c-4.268-5.875-10.054-13.645-14.323-19.425z" opacity=".302"/><path fill="#00344A" d="m384.43 65.157 1.517.569.095-.095-1.517-.569zm1.707.569c8.347 3.411 19.541 7.77 27.698 11.56l.19-.095c-8.348-3.506-19.351-8.338-27.888-11.465M413.93 77.38l4.079 1.895.095-.095-3.984-1.895zm4.174 1.895c11.477 5.875 26.749 13.835 37.847 20.373-11.193-6.349-26.275-14.688-37.752-20.373zm85.37 48.326 5.028 5.212-4.838-5.117-.095-.095c-10.149-9.855-23.809-22.836-34.433-32.312l-.094-.095c-6.261-5.022-14.514-11.94-20.964-16.677 6.261 5.022 14.703 11.56 20.869 16.772l.095.095c10.529 9.475 24.283 22.268 34.338 32.217zm-6.924-.758 9.675 7.391-9.485-7.296-.19-.19c-9.865-6.917-22.955-16.108-33.01-22.552 9.865 6.633 23.145 15.54 32.82 22.552zm19.351 13.929 2.181 2.369h.095c-.664-.758-1.518-1.706-2.276-2.369q.141 0 0 0m-.759.474 2.561 2.085.095-.095a50 50 0 0 0-2.561-2.085zM383.292 41.277l.19.095 1.138-5.685h-.19a97 97 0 0 1-1.138 5.59m3.32-5.78c6.355 3.696 14.987 8.434 21.248 12.413l.095-.094c-6.356-3.696-14.703-8.908-21.248-12.414 0 .095 0 .095-.095.095m21.438 12.508 16.315 11.466h.095c-4.933-3.412-11.478-8.055-16.316-11.466zm20.773 14.877 12.616 10.328h.095c-3.794-3.127-8.727-7.201-12.521-10.328zm4.933 10.234 6.07 1.516v-.095c-1.802-.474-4.173-1.042-5.881-1.516-.095.095-.189.095-.189.095m-50.464-31.65c-1.138 5.781-2.656 13.456-3.604 19.236h.094c1.044-5.78 2.467-13.455 3.7-19.14zm4.553 22.742-.095.095c10.719 1.8 24.948 4.075 35.571 6.349l5.123 1.137c-12.237-2.369-28.362-5.685-40.599-7.58m-2.561-.19c.664.096 1.518.19 2.182.285l.095-.095zc.095-.094 0-.094 0 0M400.367 18.346l.19.095 3.889-3.222h-.19c-1.138.853-2.751 2.18-3.889 3.127m0 .095-6.83 6.443h.19l6.83-6.443zm22.006 19.898-.094.095c34.053 6.254 56.534 10.423 96.848 26.627-73.988-27.859-96.564-26.816-96.754-26.722m-28.931-13.455-7.778 8.433h.095c2.371-2.558 5.502-5.875 7.778-8.433zm-5.691 9.76c10.339 1.042 24.093 2.18 34.433 3.695l.095-.094c-10.435-1.137-24.189-2.938-34.528-3.601" opacity=".302"/><path fill="#00344A" d="M400.367 18.443v-.095l.19.095h-.19"/><path fill="#00344A" d="m414.121 15.125 7.114 1.895.38.095zq.143 0 0 0m7.494 1.99 24.283 7.865h.095l-23.999-7.77zm24.378 7.96 11.477 4.453h.19zm11.667 4.548 15.082 6.633h.19l-15.177-6.728zm15.367 6.822c14.513 7.58 33.484 18.478 47.428 27.196-13.849-8.718-32.725-19.52-47.238-27.101z" opacity=".302"/><path fill="#00344A" d="M445.898 24.98h.095l.095.096h-.095zM457.564 29.527l.19.095h.19l-.19-.095z"/><path fill="#00344A" d="M431.005 127.223c-1.897-.948-1.897-2.843-.095-3.506 1.992-.664 4.933 1.042 3.984 2.842-.379.758-1.707 1.516-3.699.664zM458.043 104.196c-3.036-1.516-3.51-4.359-.759-5.211 3.509-1.043 8.157 2.179 6.829 4.643-.664.947-2.75 1.99-6.07.568M376.652 61.368c-.095 0-.095.094-.19.094 2.561.284 5.976.758 8.537 1.043-1.423-1.896-5.786-2.464-8.347-1.138m1.233 4.358c.284.095.664.19.948.19 4.553.758 7.589-1.421 6.261-3.411-2.656-.285-6.166-.759-8.727-1.043-2.371 1.516-1.043 3.506 1.518 4.264M425.032 62.598c-2.087-.853-2.466-2.369-.854-3.032 2.467-1.043 6.735.758 5.882 2.463-.475.948-2.372 1.422-4.743.664-.095 0-.19-.095-.285-.095M383.485 35.498c-1.613-.379-2.087-1.232-1.044-1.8 1.708-.948 5.597-.19 5.312 1.042-.19.758-2.182 1.137-3.984.853-.095-.095-.189-.095-.284-.095M442.294 77.947c-.664-.284-2.846-1.516-2.562-3.316.759-2.653 7.399-1.99 9.202.947 1.328 2.18-1.328 3.79-4.933 3.032-.664-.189-1.138-.379-1.328-.473-.19 0-.285-.095-.379-.19M399.228 11.713c1.044-.19 2.562-.379 3.605-.568-1.518.094-2.751.284-3.605.568m3.605 3.127c2.087.474 4.933.569 7.019.758 5.597-.095 5.787-1.327 5.123-1.99-.285-.284-1.897-1.61-7.968-2.274-2.751-.284-2.751-.284-7.968.569-1.613.852.095 1.895 2.087 2.558a25 25 0 0 0 1.707.379m6.45.758-5.312-.568c1.803.379 3.51.568 5.312.568" opacity=".302"/><path fill="#00344A" d="M403.879 15.126c-.094 0-.284-.095-.379-.095 1.897.19 4.458.474 6.355.664-.474 0-.474 0-5.881-.569zM399.044 11.808c.19-.095.19-.095 3.889-.663h.474c-1.328.189-3.13.473-4.363.663q-.143 0 0 0M359.769 210.038c-9.39-.947-21.911-2.368-31.302-3.221 9.391 1.042 21.912 2.084 31.302 3.221m2.751 3.033-2.561 24.636h.095c.759-7.391 1.802-17.245 2.656-24.636zm-96.184-7.012c29.975 10.518 49.8 17.435 88.121 34.396-33.579-14.687-37.847-16.582-69.624-28.237l-18.402-6.349c0 .095-.095.19-.095.19M405.589 145.509l12.331 13.74.095-.095-12.331-13.74c0 .095 0 .095-.095.095m12.521 13.929c5.691 6.633 13.28 15.445 18.876 22.268l-.094-.284c-5.597-6.633-12.901-15.54-18.687-21.984zm19.066 22.457c6.071 7.581 14.229 17.72 20.299 25.395-6.07-7.77-14.133-18.098-20.299-25.774zm5.691 28.143v.19l12.522.947v-.189c-3.795-.285-8.822-.664-12.522-.948m-4.647-.284.094.189 4.269.285v-.19zm-74.083-1.895c16.505-29.849 18.686-33.734 31.777-54.675-16.79 27.48-18.877 30.986-31.777 54.675m.189.095c16.505-29.849 18.592-33.734 31.682-54.58-17.074 27.953-18.876 30.89-31.682 54.58m1.803 2.274c39.65-1.422 42.875-1.516 72.091-.285l-.095-.189c-13.091-.379-30.544-.758-43.539-.758l-28.362 1.042c-.095.095-.095.19-.095.19"/><path fill="#00344A" d="m391.831 145.888.095.095 6.925-2.179-.095-.095c-1.992.663-4.838 1.516-6.925 2.179m4.174 7.107.095.19 4.932-7.676s-.094 0-.094-.094a526 526 0 0 1-4.933 7.58m-31.682 54.959c16.22-29.375 18.687-33.828 31.682-54.58l-.095-.189c-16.789 27.479-18.876 30.985-31.777 54.674.095.095.095.095.19.095m-98.271-7.296c35.286-18.952 63.174-33.828 125.685-54.58l-.095-.095c-59.001 20.183-84.233 31.838-125.685 54.58.095 0 .095.095.095.095m1.043 3.316c37.848.853 37.848.853 61.372 2.843 9.391.948 21.912 2.085 31.303 3.222-28.267-3.127-55.017-6.065-92.675-6.159zM185.707 198.005c8.727.379 20.394.758 29.121 1.232zm-23.809 88.313c1.898-32.501 2.277-39.229 5.312-73.721-2.371 28.143-3.225 37.619-5.312 73.721m2.182 1.232c26.37-25.11 51.317-48.8 91.442-80.164-31.682 25.11-43.539 34.491-86.509 75.142l-5.028 4.833c.095.094.095.189.095.189M329.416 94.72l.095.095 7.115-9.002h-.19c-2.087 2.653-4.933 6.254-7.02 8.907m-46.953-.758c11.667-2.558 27.223-5.97 38.986-8.054-11.763 2.274-27.414 5.306-38.986 8.054m-.095.095c11.667-2.559 27.318-5.97 39.081-8.055-11.763 2.275-27.414 5.307-39.081 8.055m-30.734 8.338c10.245-2.179 21.343-6.159 30.544-8.433-9.106 2.464-21.437 5.685-30.544 8.433m.095.095c9.106-2.558 21.248-6.159 30.544-8.433-9.201 2.558-21.533 5.685-30.544 8.433m54.922 23.974c6.735-9.571 15.746-22.173 22.765-31.46l-.094-.094c-6.925 9.381-16.126 21.983-22.766 31.554-.095-.095 0 0 .095 0m-4.363 6.064-13.185 20.562h.189l13.185-20.562c0 .095-.095.095-.189 0 .094.095.094 0 0 0m-13.185 20.752c-8.063 13.55-18.687 31.743-26.371 45.483 7.779-13.74 18.403-31.933 26.56-45.483z"/><path fill="#00344A" d="m144.543 170.243.095.948s.095 0 .095-.095c0-.284-.095-.663-.095-.948 0 .095-.095.095-.095.095m.19 1.422.189 1.326.19-.095-.19-1.326c-.094.095-.189.095-.189.095m.189 1.516 1.613 11.75.19-.095-1.613-11.75zm22.671 35.439.759-7.012h-.19c-.19 2.084-.474 4.927-.569 7.012q-.143 0 0 0m-21.058-23.595c1.043 7.865 2.466 18.383 3.51 26.248h.189c-1.043-7.865-2.466-18.383-3.509-26.248zm15.936 87.84-.759 13.455c2.087-34.207 2.846-44.251 5.407-73.72-2.656 29.943-3.225 36.197-4.648 60.265m-12.332-61.497c4.079 29.659 6.64 47.662 11.004 75.142-6.356-42.736-7.589-51.169-10.814-75.142zM154.406 159.629v.095c8.537-7.012 19.825-16.487 28.552-23.31-8.632 6.917-20.205 16.109-28.552 23.215m23.24 1.611c1.992-7.391 4.648-17.245 6.734-24.542zm6.64-24.636c-2.087 7.391-4.838 17.245-6.735 24.636 1.992-7.391 4.648-17.245 6.735-24.636m-36.141 28.521 6.166-5.306v-.095zm-1.707 1.516c.379-.284.759-.663 1.138-.947l-.095-.095c-.284.284-.758.663-1.043 1.042q0-.141 0 0m-1.043 3.033.569.663.095-.095c-.19-.189-.38-.474-.57-.663 0 .095 0 .095-.094.095m.948 1.042 1.233 1.327.19-.095-1.233-1.327c-.095 0-.19 0-.19.095m1.233 1.421 7.114 8.339.19-.095-7.114-8.338zm8.442 9.855 5.218 6.538-.095-.379-6.261-7.77-.19.095zm13.375 12.413c1.802-7.296 4.079-17.056 5.881-24.352-1.802 7.201-4.173 16.961-5.881 24.352m-7.968-5.59 5.217 6.727.095-.094c-1.612-2.085-3.794-4.928-5.407-7.012z"/><path fill="#00344A" d="M186.089 135.844c5.217 3.98 12.237 9.096 17.264 13.266-5.122-4.075-11.952-9.476-17.264-13.266m-1.802.758c-2.087 7.391-4.838 17.246-6.735 24.637l.19-.095c1.992-7.391 4.648-17.246 6.735-24.542zm-6.83 24.731-2.181 8.434.189-.095 2.182-8.433zm-2.181 8.623c-1.803 7.296-4.174 17.056-5.881 24.353l2.466-10.045 3.509-14.403zm10.434 28.048-.19.095c34.433 1.327 35.761 1.421 69.435 5.212-11.952-1.327-27.983-3.127-40.029-4.075m-41.168-1.327-.095.095 11.573.095.189-.095zm-1.328.095h1.138l.095-.095h-1.138z"/><path fill="#00344A" d="M250.687 148.259h.19c-1.423-8.623-3.415-20.183-4.838-28.901l-1.613-9.286 2.372 14.498c1.138 7.201 2.751 16.582 3.889 23.689m-64.597-12.413c5.217 3.979 12.236 9.096 17.264 13.266l.095-.095c-5.123-3.98-11.952-9.476-17.264-13.266zm17.359 13.36 3.699 3.127.19-.094-3.795-3.222zm47.238-.758 1.707 10.139.19-.095-1.612-10.044zm-42.306 4.928.854.758.19-.095-1.898-1.611-.189.095zm.949.758c5.786 5.211 13.469 12.223 19.066 17.53l.189-.095c-5.691-5.306-13.279-12.413-19.066-17.53zm43.064 4.643c1.992 12.129 4.648 28.332 6.735 40.461-1.992-12.129-4.553-28.332-6.545-40.556zm-23.903 13.076c8.537 8.528 19.825 19.994 28.172 28.711-8.347-8.717-19.446-20.277-28.078-28.806zM215.876 73.4l3.036-5.023h-.19c-.854 1.422-2.087 3.411-2.846 5.022-.095 0-.095-.094 0 0m-3.32 5.495v.19L213.789 77c-.094 0-.189 0-.189.095-.38.474-.949 1.137-1.044 1.8m7.779-11.086c3.509 4.643 8.062 10.802 11.193 15.635-3.225-4.738-7.589-11.182-11.193-15.635m-7.968 11.276c-2.941 5.496-7.02 12.792-9.865 18.288l.189-.095c2.941-5.401 6.735-12.697 9.771-18.004zm28.741 21.509c-2.846-5.116-6.545-12.034-9.58-17.056 2.94 5.117 6.924 11.845 9.58 17.056m-9.675-16.961c2.94 5.117 6.829 11.845 9.58 17.056-2.845-5.211-6.545-12.034-9.58-17.056m-12.426 32.881v.094l16.41-7.864v-.095c-4.933 2.369-11.478 5.496-16.41 7.865M187.04 129.78l.095.094c4.553-9.76 10.624-22.741 15.461-32.312l-.189.095c-4.648 9.476-10.909 22.363-15.367 32.123m3.889 1.61h.095c8.347-4.453 19.446-10.518 27.888-14.782v-.094l-11.383 5.875zm-3.889-1.516-1.423 3.127h.095c.379-.947.949-2.179 1.328-3.127m.095 3.696 3.699-2.085h-.095z"/><path fill="#00344A" d="M221.657 66.861c28.647-.758 29.785-.758 47.903 1.137-29.785-2.084-30.923-2.179-47.903-1.137m99.884 19.046 10.339-1.516-.095-.094c-3.035.473-7.114 1.137-10.244 1.61m-94.762-9.38 4.648 7.012.19-.095c-3.225-4.738-7.588-11.181-11.193-15.635 0 0-.095.095-.19.095 1.898 2.558 4.648 5.97 6.545 8.623m55.681 17.435v.095c11.667-2.559 27.319-5.97 39.081-8.055l-.095-.094c-11.762 2.274-27.413 5.306-38.986 8.054m-51.033-10.329c2.941 5.117 6.83 11.845 9.581 17.057h.095c-2.846-5.117-6.45-12.035-9.486-17.057zm20.3 18.857c9.106-2.558 21.342-6.064 30.543-8.433v-.095c-9.201 2.463-21.532 5.685-30.543 8.528-.095 0-.095-.095 0 0"/><path fill="#00344A" d="m276.487 36.822 21.722-8.907zm28.078-9.286c2.94 3.506 7.019 8.244 9.77 11.94l.095-.095c-2.846-3.601-6.545-8.528-9.676-11.94-.095.095-.095.095-.189.095m-46.29 17.91h.095l18.022-8.529-.095-.095zm56.06-5.781c3.604 5.59 8.347 13.171 11.667 18.951h.19c-3.415-5.78-7.968-13.455-11.762-19.046zm-92.58 26.058c10.814-6.254 25.422-14.403 36.52-20.183h-.095c-11.003 5.875-25.706 13.834-36.425 20.183m-.095 1.137c28.647-.758 29.785-.758 47.903 1.137l.189-.094c-8.632-.664-20.014-1.611-28.646-1.8zm48.092 1.232 12.047 1.61.095-.094-11.952-1.61zm12.142 1.61 8.158 1.328v-.095l-8.063-1.327zm44.108-11.086c3.225 6.254 7.494 14.593 10.529 20.942h.095c-3.13-6.349-7.114-14.782-10.434-20.942zm-35.761 12.508 21.533 4.643-.19-.19-21.343-4.547zm21.817 4.738 20.015 5.59.095-.094c-6.071-1.706-14.134-3.98-20.205-5.685zM433.282 152.332c18.971 12.792 42.496 28.617 70.099 51.642-18.497-14.876-41.547-33.354-70.099-51.642m25.706 17.53c30.923 23.026 30.923 23.026 46.385 35.913-29.88-24.163-30.449-24.637-46.385-35.913m6.64 44.062c11.762-1.516 27.509-3.411 39.271-4.359-11.762 1.042-27.509 2.559-39.271 4.169zm-18.402 3.316 10.339-1.895h.285l.474-.094c-.19-.095-.189-.095-.379-.095h-.285l-10.529 1.99s.095 0 .095.094M442.674 210.229l.948 4.833-.853-4.833v-.189c-1.708-8.433-3.984-19.709-5.692-28.143l-.094-.284-3.51-16.962-2.372-11.465c1.708 8.433 3.89 19.709 5.597 28.143l.095.284c1.707 8.528 3.984 19.899 5.786 28.427zm-4.458-.284 4.173 5.496-4.078-5.401-.095-.19c-8.917-11.181-20.774-26.058-29.88-37.049 9.011 11.086 20.868 25.868 29.69 36.955zM359.672 97.09l.948 1.232h.19c-.284-.38-.664-.853-.948-1.232-.095-.095-.095-.095-.19 0m1.423 1.895.948 1.232.19-.095-.854-1.231c-.189.094-.189.094-.284.094m1.043 1.422 9.011 12.886.095-.094-9.011-12.792zm16.031 7.296c28.552 21.604 29.69 22.457 50.274 40.935-26.276-22.931-29.69-25.964-50.274-40.935m30.733 58.37 9.201-6.633.095-.095 4.743-3.316 5.502-3.79s-.095 0-.095-.095c-3.13 2.084-7.209 4.927-10.339 7.012l-.095.095-9.201 6.633zm-12.9-12.697 6.45 11.37-6.355-11.465-.095-.19-4.079-7.012-.095-.094c-6.071-9.855-14.228-23.026-20.584-32.692l-.095.095c6.261 9.76 14.513 22.742 20.489 32.597l.095.094 4.174 7.107z"/><path fill="#00344A" d="M433.38 149.87c37.753-8.717 39.176-9.096 71.142-12.413-10.624 1.232-24.757 2.748-35.286 4.454h-.19c-10.814 2.369-25.042 5.306-35.666 7.959m77.023 14.972c-.284 12.034-.664 28.048-.853 40.082.284-11.939.664-27.953 1.043-39.987v-.095c.19-7.107.474-16.488.759-23.595-.285 7.012-.759 16.393-.949 23.5zm-51.412 5.022c30.923 23.026 30.923 23.026 46.385 35.913l-1.992-1.801c-18.497-14.876-41.547-33.354-70.099-51.642 7.684 5.211 18.118 12.034 25.706 17.53"/><path fill="#00344A" d="m390.031 98.606-.095.095 26.559 5.495.19.095c9.106 2.464 21.248 5.401 30.259 8.149l.19.095c11.478 3.885 26.844 9.002 38.132 13.361l.38.189 20.394 8.718-20.015-8.718-.379-.189c-11.478-4.17-26.75-9.76-38.417-13.456l-.19-.094c-9.106-2.464-21.248-5.97-30.544-8.244l-.189-.095zm-18.497-3.032-.19.094 18.307 2.938.095-.095zm-5.407-.569 5.027.663.19-.094-5.122-.664c-.095 0-.095 0-.095.095m-3.32-.474c.664.095 1.423.19 2.087.284v-.094a14 14 0 0 0-2.087-.19m-1.518 1.895 1.518.948s.095 0 .095-.095c-.475-.284-1.044-.663-1.518-.947 0 0-.095 0-.095.094m2.371 1.516 1.328.853.095-.094-1.328-.853s-.095 0-.095.094m1.423.948 12.901 8.812.095-.094-12.806-8.813zm68.297 51.074 11.383-2.843 24.378-5.022h.189c11.099-1.516 25.991-3.601 37.184-4.643h-2.087c-35.855 4.075-37.278 4.264-71.142 12.413zm-45.626-35.06c12.426 9.855 28.647 23.405 40.599 33.828-27.509-24.163-29.121-25.679-50.179-41.03l-.095.095zM365.46 21.379c8.442 1.042 19.635 2.18 27.983 3.506h.189c8.917 1.8 20.869 3.885 29.691 6.064-8.917-1.8-20.679-4.643-29.691-6.159h-.189c-8.348-.947-19.541-2.653-27.983-3.411m-3.699 10.518.189.095.759-9.855h-.095c-.284 2.937-.569 6.822-.853 9.76m40.978 19.899.095.095 5.122-3.885.095-.095 14.228-9.57.095-.095 4.932-2.938h-.094c-1.518.853-3.51 2.085-5.028 2.938l-.095.094-14.133 9.476-.095.095zm-13.28 10.897-.474.379h.189l.475-.38.094-.094 12.996-10.613-.095-.094-13.09 10.707zm-27.698-30.701c-.664 8.338-1.518 19.425-2.182 27.858h.19c.664-8.338 1.517-19.425 2.181-27.764zm.189 57.138c6.64-6.633 15.462-15.445 22.387-21.7l.094-.094 1.708-1.516.095-.095 1.517-1.326.095-.095 1.233-1.137h-.189l-1.233 1.137-.095.094-1.423 1.327-.095.095-1.707 1.516-.095.095c-6.735 6.443-15.841 15.066-22.386 21.794 0-.095 0-.095.094-.095m-2.371-29.185a1427 1427 0 0 0-1.897 28.427h.095c.569-8.528 1.328-19.899 1.992-28.427zm.664 30.985 1.138-1.137c-.095 0-.095 0-.189-.094-.285.379-.759.758-1.044 1.137 0 0 0 .094.095.094m-2.656-1.8-.095 1.327h.19c0-.38.095-.948.095-1.327zM218.339 66.577q-.141 0 0 0c1.044-.19 2.562-.474 3.7-.758-.664-.474-2.466 0-3.7.758m.095 1.8h.19c1.138-.19 2.466-.853 3.13-1.516.38-.38.38-.663.285-.853-1.138.19-2.751.569-3.889.758-1.328.948-1.139 1.611-.38 1.706.19-.095.38-.095.664-.095M182.866 134.612l3.605.758.189-.19c1.139-1.61.095-2.274-1.138-2.179-.19.095-1.612.379-2.656 1.611m.949 2.085h.189c.854-.095 1.803-.474 2.467-1.138-1.044-.189-2.561-.568-3.605-.758-.854 1.327.095 1.896.949 1.896M334.251 85.529c-1.043-.284-1.802-.663-2.371-1.327-1.992-2.748 2.371-5.211 6.545-4.548 3.51.569 4.648 3.127 2.182 4.928-1.139.758-3.32 1.61-5.976 1.137-.095-.095-.285-.095-.38-.19M259.506 206.438c-2.182-.758-2.182-3.411 0-4.548 1.138-.569 2.087-.379 2.466-.379 2.656.758 2.466 3.506.285 4.643-.854.474-1.897.568-2.751.284m-1.328 2.653c.285.095.569.19.854.19 3.699.474 6.26-1.516 7.398-3.412 2.372-4.358-1.897-8.433-7.114-6.822-5.027 1.611-6.26 7.581-1.992 9.665.19.19.569.284.854.379"/><path fill="#00344A" d="M259.507 206.438c-2.181-.758-2.181-3.411 0-4.548 2.277-1.232 4.838.189 4.269 2.369-.285 1.137-1.802 2.653-3.984 2.179q-.142.142-.285 0M166.736 201.607c-2.845-.569-2.75-4.359.19-6.349 3.32-2.18 6.261-.569 5.597 2.274-.285 1.516-1.803 3.411-4.269 3.98-.569.095-.948.095-1.233.095q-.143.141-.285 0M143.12 170.527c-1.517-.095-1.707-1.706-.189-3.127 1.707-1.611 3.984-1.611 3.889.094-.095 1.232-1.708 2.938-3.415 3.033z"/><path fill="#00344A" d="M142.453 171.665c-2.372-.095-2.561-2.654-.285-4.738 2.467-2.369 5.787-2.464 5.881-.095.095 1.516-1.422 3.411-3.414 4.359-.285.189-1.139.568-2.182.474m-.285.568h.38c3.889-.284 7.778-5.211 5.501-7.107-2.276-2.084-8.252 1.706-8.157 5.212.095 1.137.948 1.895 2.276 1.895M237.214 110.166c.095 0 .19.095.285.095.474-.474 1.138-1.138 1.612-1.706-3.32-1.516-1.043-5.212 2.941-6.728.853-.379 2.656-.853 4.458-.568.474-.474 1.138-1.137 1.707-1.611-3.13-.569-5.976.474-7.019.947-6.166 2.559-8.253 7.676-3.984 9.571m2.466.568h.854c6.64-.189 11.952-4.832 11.098-8.338-.474-1.801-2.181-2.369-3.32-2.748-.474.474-1.138 1.137-1.707 1.611 3.699.852 2.94 4.264-.38 6.254-1.707 1.042-4.648 1.989-7.114 1.042-.474.474-1.138 1.137-1.612 1.706.474.189 1.138.379 2.181.473"/><path fill="#00344A" d="M238.924 108.555s.095.095.19.095c2.181-2.18 5.217-5.117 7.398-7.296-4.742-.758-10.434 3.411-8.631 6.254.189.379.569.663 1.043.947m1.897.379h.854c5.501-.379 9.106-4.738 6.829-6.917-.569-.569-1.422-.758-1.802-.853-2.181 2.179-5.217 5.117-7.399 7.296.19.285.664.474 1.518.474M458.611 215.442c-4.079-2.18-4.364-7.202-.474-8.339 4.647-1.421 9.106 3.601 7.493 6.917-.948 1.801-3.51 3.032-7.019 1.422M401.316 144.658c-2.277-1.137-2.371-3.601-.19-4.454 1.423-.474 2.656-.095 3.036.095 2.75 1.232 2.656 3.695.474 4.548-.949.379-2.277.284-3.32-.189m-.19.947.475.19c4.173 1.137 7.019-1.706 5.406-4.359-1.897-3.222-7.968-3.032-8.632.284-.284 1.516.854 3.127 2.751 3.885M300.675 131.393l7.778-4.169c-3.225-2.464-8.442-.095-8.253 2.842 0 .569.095.948.475 1.327m2.276 1.326c.19 0 .38.095.474.095 4.459.379 7.21-2.937 5.312-5.211l-.284-.285c-2.372 1.232-5.407 2.938-7.778 4.17.284.284.948.947 2.276 1.231"/><path fill="#00344A" d="M401.315 144.658c-2.276-1.137-2.371-3.601-.189-4.454 2.75-1.042 5.976 1.232 4.932 3.411-.474.853-1.992 1.99-4.458 1.138-.095 0-.19-.095-.285-.095M301.91 26.78c-1.518 0-2.087-.379-1.518-1.042.569-.569 2.277-1.137 4.079-1.232s2.276.474 1.897.948c-.569.663-2.751 1.326-4.458 1.326m-1.423 1.327h.854c4.932-.38 8.442-2.37 7.303-3.506-1.707-1.706-11.193.19-11.382 2.369 0 .663 1.233 1.137 3.225 1.137M361.385 22.04c-1.328-.189-1.992-.663-1.423-1.136 1.139-.948 5.597-.758 5.502.284 0 .663-1.992 1.137-3.889.948 0-.095-.095-.095-.19-.095M353.892 98.132c-5.027-1.61-5.691-5.875-1.233-8.054 5.597-2.748 13.754.38 12.332 4.738-.475 1.516-2.087 2.748-4.364 3.411-2.371.663-4.648.663-6.735-.095m-.664.758c.285.095.664.19.949.285 7.304 1.705 14.323-2.653 11.477-7.202-3.414-5.4-16.03-4.453-17.169 1.327-.379 2.274 1.518 4.453 4.743 5.59"/><path fill="#00344A" d="M354.84 96.996c-3.604-1.137-4.078-4.264-.948-5.78 4.079-1.99 9.96.284 8.916 3.411-.758 2.18-4.268 3.317-7.493 2.559-.19-.095-.285-.19-.475-.19M301.906 26.78c-1.518 0-2.087-.378-1.518-1.042 1.328-1.232 6.071-1.705 6.071-.663 0 .663-2.087 1.516-4.363 1.61 0 .096-.095.096-.19.096M429.302 152.713c-.38-.189-.664-.379-.759-.474-1.328-1.137-1.328-2.748 0-3.601 1.897-.947 4.079-.094 4.932 1.327 1.234 2.369-1.517 3.317-2.181 3.127-.664 0-1.233-.095-1.803-.379-.189.095-.189 0-.189 0M428.165 35.592c-4.743-1.422-6.64-3.885-4.079-5.212 4.459-2.369 16.6.948 15.557 4.264-.569 2.085-6.166 2.464-11.383.948 0 .095 0 .095-.095 0M402.358 172.706c-3.794-1.895-4.363-6.539.095-8.055 4.174-1.421 9.676 2.464 7.589 6.349-1.139 2.179-4.364 3.032-7.304 1.895-.095 0-.285-.095-.38-.189"/><path fill="#00344A" d="M236.93 27.066c31.777-9.38 35.097-10.328 61.372-14.308-32.915 5.685-36.33 6.349-61.372 14.308m61.941-13.645c-9.106 3.6-21.248 8.339-30.164 12.413zm.379-.095c-9.201 3.601-21.437 8.434-30.449 12.508zM304.564 12.566c8.253 2.18 19.161 5.97 26.94 9.381h.095c-7.874-3.41-18.687-7.201-26.94-9.38zM269.562 26.97c14.514-1.705 33.959-3.41 48.472-3.98-14.608.664-33.958 2.18-48.472 3.98M177.172 56.817l.189-.094c30.924-17.34 32.726-18.383 54.069-27.575-32.821 15.067-34.149 15.635-54.258 27.67m-.38.19c.095 0 .19-.095.285-.19zm26.655-9.097c9.486-2.084 22.196-4.548 31.872-5.685-9.676 1.421-22.481 3.506-31.872 5.685M235.604 27.726c7.873-.758 18.497-.947 26.465-.379 0 0 .095 0 .095-.095-7.968-.568-18.592-.379-26.465.38 0 .094-.095.094-.095.094m-1.233.569c2.182 4.832 2.182 4.832 3.036 12.981h.094c-1.043-9.096-1.233-10.044-2.94-12.981-.095-.095-.19 0-.19 0M326.287 58.62c9.96.283 23.335.568 33.294 1.231-9.959-.379-23.334-1.137-33.294-1.232" opacity=".302"/><path fill="#00344A" d="m386.521 62.785.474.095-.569-.095zM376.277 61.46l8.727 1.138z" opacity=".514"/><path fill="#00344A" d="M389.082 63.168c11.762 2.085 27.413 4.643 39.081 7.202-11.668-2.275-27.319-5.402-39.081-7.202M297.449 56.344c5.028-5.117 11.573-11.94 16.79-16.867-5.028 5.117-11.952 11.75-16.79 16.867" opacity=".302"/><path fill="#00344A" d="m314.234 39.573.19-.19z"/><path fill="#00344A" d="m402.738 51.985 14.798 9.287h.19l-14.988-9.381zm14.988 9.381 11.762 8.244h.095c-3.51-2.463-8.158-5.685-11.668-8.149z" opacity=".302"/><path fill="#00344A" d="M417.633 61.272h.19l.189.095h-.284z" opacity=".514"/><path fill="#00344A" d="M361.953 32.087c6.355 2.843 15.082 6.254 21.343 9.38v-.094c-6.356-2.843-14.798-6.822-21.343-9.38zm21.438 9.38 19.255 10.33.095-.095-19.255-10.424z" opacity=".302"/><path fill="#00344A" d="M383.293 41.468v-.19l.19.094-.095.096z" opacity=".514"/><path fill="#00344A" d="M337.48 24.125s12.711 3.411 24.284 7.77v.095c-7.304-2.464-16.885-5.875-24.284-7.865" opacity=".302"/><path fill="#00344A" d="m361.762 31.991.189.095v-.095l-.189-.095zm40.883 19.9.095.094.095-.095-.095-.095z"/><path fill="#00344A" d="m317.179 36.917-2.75 2.558zm-2.75 2.464.094.094c5.123-4.453 11.857-10.423 17.169-14.592m-34.148 31.554c5.027-5.022 11.573-11.94 16.79-16.772l-.095-.095c-5.028 5.022-11.952 11.655-16.79 16.867z" opacity=".302"/><path fill="#00344A" d="m314.234 39.573.19-.19v.19l-.095.095z"/><path fill="#00344A" d="M266.242 28.676c3.13 2.369 7.399 5.496 10.245 8.149-2.941-2.559-6.925-6.065-10.245-8.15M318.034 22.988c-14.608.664-34.053 2.18-48.472 3.98l15.462-2.085c13.185-.947 30.923-1.8 44.203-1.895l-.095.095zM258.274 45.543c9.77 3.127 22.576 8.054 31.966 12.223-9.39-4.17-22.196-9.191-31.966-12.223" opacity=".302"/><path fill="#00344A" d="m258.275 45.542-.095-.095z"/><path fill="#00344A" d="M266.142 28.675c3.131 2.369 7.399 5.496 10.245 8.149l.189-.095c-3.035-2.463-6.924-5.97-10.244-8.149-.095.095-.19.095-.19.095m20.584 20.088 5.597 7.96h.094c-4.268-5.97-10.339-13.74-15.177-19.236l-.758-.758-.19.095c3.32 3.6 7.683 8.149 10.434 11.94m-21.058-1.232c7.494 2.843 17.454 6.728 24.663 10.14-7.304-3.317-17.075-7.581-24.663-10.14" opacity=".302"/><path fill="#00344A" d="M276.395 36.824h.189l-.189.095z"/><path fill="#00344A" d="M239.773 40.71c6.166-3.316 14.419-7.675 20.584-10.991h.095c-6.166 3.316-14.418 7.77-20.679 10.992M175.843 58.146l8.252-3.601.095-.095zc.095-.095 0-.095 0 0m11.383-4.833 15.841-5.212h-.285zm16.22-5.401c9.486-2.085 22.196-4.548 31.872-5.685L218.149 44.5l-14.988 3.506zm-31.682 12.792c-1.707 1.706-2.751 4.928-3.889 7.202l.19-.19c1.138-2.084 2.561-5.022 3.794-7.107zm-3.889 7.202c-1.138 2.558-2.656 5.875-3.794 8.433l.189-.095c1.139-2.558 2.561-5.97 3.795-8.528zm-3.794 8.528-2.561 6.538c.094-.095.094-.095 2.75-6.538zM222.036 65.913c33.389-5.117 35.381-5.496 65.925-6.16-35.381 1.138-36.804 1.138-65.925 6.16m-6.735 1.327 2.751-.474c.095 0 .095-.095.19-.095-.854.095-1.992.38-2.941.569M164.458 82.21l8.632-5.59.095-.095zM199.46 71.03h.095l15.556-3.79v-.095zm-29.121 9.57c8.632-2.937 20.205-6.917 29.026-9.475h-.095m-34.907 11.94 5.787-2.275.094-.095z" opacity=".302"/><path fill="#00344A" d="M218.148 66.673c.095-.095.095-.095 3.89-.853l.094.095a95 95 0 0 1-3.984.758"/><path fill="#00344A" d="m250.21 43.743 7.968 1.705.189-.094c-5.691-1.043-13.279-2.654-19.066-3.317 0 0-.095 0-.095.095 3.226.568 7.684 1.042 11.004 1.61m8.063 1.8c9.77 3.127 22.575 8.054 31.966 12.224-7.304-3.222-17.074-7.58-24.568-10.14l-7.304-2.084zm-84.992 30.89 12.996-7.864h-.095l-9.296 5.59z" opacity=".302"/><path fill="#00344A" d="M258.18 45.447h.189l-.094.095z"/><path fill="#00344A" d="m224.219 48.196 10.529-4.833c-3.13 1.327-8.063 2.37-10.529 4.833m-37.848 20.278 4.553-2.653c9.865-5.307 23.05-12.508 33.105-17.53v-.095c-11.383 5.97-26.56 13.834-37.658 20.278M365.082 98.7l6.071-3.032zM371.34 95.574c8.347-3.79 19.351-9.002 27.698-12.508-8.347 3.695-19.541 8.528-27.698 12.508" opacity=".302"/><path fill="#00344A" d="m399.043 83.068.19-.095zM413.836 77.287l.095-.096z" opacity=".514"/><path fill="#00344A" d="m312.059 75.865 9.485 10.045zM311.87 75.675c-4.458-4.169-10.339-9.95-14.987-13.929 4.553 4.17 10.624 9.57 14.987 13.93" opacity=".302"/><path fill="#00344A" d="m312.057 75.866-.19-.19z"/><path fill="#00344A" d="M311.587 75.58c-4.459-4.17-10.245-9.855-14.798-13.74z" opacity=".302"/><path fill="#00344A" d="m311.582 75.578.19.19z"/><path fill="#00344A" d="M326.192 58.523c10.055.38 23.43.664 33.389 1.327v-.095c-10.054-.379-23.334-1.137-33.389-1.232m-26.18.948 26.085-.758-.095-.095zq0-.143 0 0" opacity=".302"/><path fill="#00344A" d="M326 58.523h.19l.095.095H326z"/><path fill="#00344A" d="M387.468 62.789h-.475l1.897.284.095-.095zm-2.467-.19c.475.095 1.044.19 1.423.19h.474l-1.992-.284c.095 0 .095 0 .095.094m-25.231-2.747v.094l16.505 1.611s.094-.095.189-.095c-5.027-.473-11.667-1.137-16.694-1.61" opacity=".302"/><path fill="#00344A" d="m386.899 62.691.569.095-.474.096-.474-.096zM376.277 61.46c.095-.094.095-.094 8.632.948 0 0 0 .095.095.095-2.561-.284-6.071-.663-8.727-1.042" opacity=".514"/><path fill="#00344A" d="M389.174 63.072c11.762 2.085 27.414 4.643 38.986 7.202-11.762-2.274-27.319-5.401-39.176-7.107z" opacity=".302"/><path fill="#00344A" d="m388.987 62.979-.094.094h.189l.095-.095zm-29.405-3.127v.094h.19v-.094z"/><path fill="#00344A" d="M149.758 130.633c9.96.853 23.24 2.463 33.01 4.169-9.77-1.611-23.05-3.411-33.01-4.169" opacity=".302"/><path fill="#00344A" d="m182.766 134.801 3.699.758z"/><path fill="#00344A" d="M248.218 99.648c9.96-9.192 23.335-21.226 33.58-29.944-10.245 8.813-23.715 20.752-33.58 29.944" opacity=".302"/><path fill="#00344A" d="m281.801 69.704.095-.095zM239.113 108.554l7.399-7.296z"/><path fill="#00344A" d="M281.895 69.704c-10.245 8.813-23.714 20.752-33.58 29.944zm-132.704 58.75 11.098-7.012h-.095z" opacity=".302"/><path fill="#00344A" d="m281.891 69.704.094-.095zM239.207 108.649l7.399-7.391z"/><path fill="#00344A" d="m202.69 97.374-.095.095 8.727-4.359v-.094c-2.656 1.326-6.545 2.274-8.632 4.358m-42.401 23.974h.095c12.521-7.391 29.311-16.962 42.021-23.784l.095-.095c-12.805 6.917-29.69 16.393-42.211 23.879" opacity=".302"/><path fill="#00344A" d="m202.501 97.47.19-.095-.095.095-.19.095z"/><path fill="#00344A" d="M269.751 68h.19l18.497-6.255-.095-.095c-5.597 1.895-12.996 4.454-18.592 6.35m-38.227 15.445c11.477-4.738 26.654-11.087 38.227-15.351h-.19c-11.477 4.453-26.749 10.423-38.037 15.35m-12.426 5.874 12.331-5.685v-.095zq0-.141 0 0" opacity=".302"/><path fill="#00344A" d="M231.336 83.54h.19v-.096zM269.562 68.093l.19-.095h.19l-.19.095z"/><path fill="#00344A" d="m371.251 113.105.095.095 6.734-5.496-.094-.095zm-44.203 40.272c26.275-25.016 27.887-26.532 44.108-40.082l-.095-.095c-26.56 22.836-27.603 23.784-44.203 40.177zm-1.613 1.611c.38-.284.759-.758 1.044-1.043-.095 0-.095-.094-.19-.094l-1.044 1.042c.095.095.19.095.19.095" opacity=".302"/><path fill="#00344A" d="m371.059 113.199.094.095.095-.095-.095-.095z"/><path fill="#00344A" d="m378.074 107.607 11.573-9.001.189.094-11.667 9.002z" opacity=".302"/><path fill="#00344A" d="m378.074 107.609.095.095z"/><path fill="#00344A" d="m418.108 79.179.19.095 11.098-6.539s-.095 0-.095-.094c-3.415 1.895-7.873 4.548-11.193 6.538m-14.228 9.286.095.095 14.133-9.286-.19-.095zm-.095.095-14.039 10.044h.19l13.849-9.95z" opacity=".302"/><path fill="#00344A" d="m403.785 88.562.095-.095.095.095-.095.095zM418.012 79.277l.095-.095.189.095h-.28400000000000003" opacity=".514"/><path fill="#00344A" d="m389.839 98.512-.095.094h.189l.095-.094zm-11.952 9.191.095.095.094-.095-.094-.095z"/><path fill="#00344A" d="m362.145 100.216.094.095 2.751-1.421-.095-.095zm-15.652 8.528 15.652-8.338-.095-.095-15.652 8.339zm-21.532 43.968c4.743-11.656 11.098-27.101 16.031-38.661-4.933 11.56-11.383 27.005-16.031 38.661" opacity=".302"/><path fill="#00344A" d="m362.047 100.216.095.095.189-.095-.094-.094z"/><path fill="#00344A" d="m365.082 98.7 6.071-3.032h.19l-6.166 3.127z" opacity=".302"/><path fill="#00344A" d="m365.082 98.7.095.094z"/><path fill="#00344A" d="m413.93 77.19.19.095 14.608-5.022-.095-.095c-4.458 1.516-10.244 3.506-14.703 5.022m-14.702 5.78.094.095 5.597-2.274 9.011-3.506-.189-.095zm-.19.095c-8.347 3.695-19.541 8.528-27.698 12.508h.19c8.252-3.79 19.161-9.002 27.603-12.508z" opacity=".302"/><path fill="#00344A" d="m399.043 83.068.19-.095.095.095-.19.095zM413.836 77.287l.095-.096.189.096-.189.094z" opacity=".514"/><path fill="#00344A" d="m371.337 95.574-.19.095h.19l.19-.095zm-6.45 3.222.095.095.094-.095-.094-.095z"/><path fill="#00344A" d="m324.772 153.281-.475 1.232h.19c.19-.379.379-.853.474-1.232zm-6.261 3.127c.474.094 1.138.189 1.707.284v-.095a9.4 9.4 0 0 0-1.707-.189c.095-.095 0-.095 0 0m-29.216-3.222-.095.095c8.537.853 19.92 1.8 28.457 3.032v-.095c-8.442-.947-19.825-2.369-28.362-3.032m-20.963-1.232 20.679 1.327.095-.095-20.774-1.327c.095.095 0 .095 0 .095" opacity=".302"/><path fill="#00344A" d="M289.102 153.186h.189v.095h-.189z"/><path fill="#00344A" d="M308.547 127.413c8.916-4.454 20.868-10.423 29.879-14.593-9.011 4.264-21.058 9.95-29.879 14.593m-40.504 23.026c9.77-5.78 22.765-13.456 32.631-18.952-9.771 5.686-22.956 13.077-32.631 18.952" opacity=".302"/><path fill="#00344A" d="m300.77 131.485 7.683-4.075z"/><path fill="#00344A" d="M267.949 150.342c9.77-5.781 22.766-13.456 32.631-18.952-9.77 5.686-22.955 13.077-32.631 18.952" opacity=".302"/><path fill="#00344A" d="m300.68 131.391 7.683-4.075z"/><path fill="#00344A" d="M340.993 114.051c-3.036 7.296-7.114 16.961-10.15 24.258l-5.786 14.403h-.19c4.838-11.656 11.193-27.196 16.126-38.661M308.452 127.412c8.916-4.454 20.868-10.423 29.88-14.593l-.095-.094c-4.933 2.369-11.478 5.401-16.41 7.77zq0-.142 0 0m-40.409 23.026c9.77-5.78 22.765-13.456 32.631-18.952-9.771 5.591-23.051 12.982-32.631 18.952" opacity=".302"/><path fill="#00344A" d="M300.68 131.487c2.276-1.327 5.312-2.938 7.683-4.264l.095.094c-2.277 1.327-5.407 2.938-7.778 4.17q.142 0 0 0"/><path fill="#00344A" d="M282.179 94.057c-7.588 24.542-9.106 29.659-16.031 55.622 7.684-28.332 8.822-32.786 16.031-55.622M290.053 71.125c-2.372 6.823-5.597 16.014-7.873 22.931 2.371-6.917 5.407-16.108 7.873-22.931M290.145 70.935l3.035-8.244z" opacity=".302"/><path fill="#00344A" d="m290.051 71.033.095-.096-.095.19z"/><path fill="#00344A" d="m321.449 86.004 7.778 8.812.095-.094-6.45-7.391-1.233-1.327zm7.968 8.907 10.814 13.076h.095c-3.225-3.979-7.589-9.19-10.814-13.17z" opacity=".302"/><path fill="#00344A" d="m329.227 94.816.095.095.095-.095-.095-.094z"/><path fill="#00344A" d="m318.319 82.592-6.546-6.823.285.095 9.486 10.045h-.19zM311.587 75.58c-4.459-4.17-10.245-9.855-14.798-13.74h.095c4.553 4.17 10.719 9.57 14.987 13.834z" opacity=".302"/><path fill="#00344A" d="m321.354 85.909.284.094-.094-.094zM311.772 75.768l-.19-.19.285.095.189.19z"/><path fill="#00344A" d="M282.179 94.057c-7.588 24.542-9.106 29.659-16.031 55.622l3.605-13.171c8.252-29.28 8.252-29.28 12.521-42.451zM290.052 71.125h.189c-2.371 6.823-5.596 15.92-7.778 22.836h-.19c2.277-6.917 5.312-16.013 7.779-22.836M290.145 70.935l3.13-8.244h.095a294 294 0 0 0-3.036 8.339z" opacity=".302"/><path fill="#00344A" d="M282.273 93.961v.095h.19v-.095zM290.051 71.128l.095-.19.094.095v.095z"/><path fill="#00344A" d="M281.891 69.61h.095l8.727-7.012h-.095c-2.561 2.084-6.071 4.927-8.727 7.012m-33.579 30.038c9.96-9.192 23.335-21.226 33.579-29.944h-.095c-10.244 8.813-23.714 20.752-33.579 29.944zm-27.603 28.142v.19l5.502-5.875 11.382-11.75h-.095c-5.027 5.212-11.762 12.224-16.789 17.435m-8.442 9.476 8.347-9.191v-.19l-8.442 9.286c0 .095 0 .095.095.095" opacity=".302"/><path fill="#00344A" d="m281.801 69.704.095-.095h.095l-.095.095zM246.606 101.259c.474-.473 1.138-1.137 1.707-1.61h-.094c-.475.473-1.139 1.137-1.708 1.61zm-9.011 9.002c.474-.474 1.138-1.137 1.707-1.611 0 0-.095 0-.095-.094-.474.473-1.138 1.137-1.612 1.705q-.143 0 0 0"/><path fill="#00344A" d="M239.206 108.649c2.087-2.274 5.122-5.117 7.304-7.391h.095a273 273 0 0 1-7.399 7.391"/><path fill="#00344A" d="M228.393 171.758c-12.995 7.77-30.259 18.193-42.97 26.247h.19c12.711-8.054 29.88-18.572 42.875-26.152zm-59.759 37.618 16.884-11.181h-.19zc-.095 0-.095-.095 0 0" opacity=".302"/><path fill="#00344A" d="M185.428 198.006h.285l-.285.19h-.19z"/><path fill="#00344A" d="M252.486 158.492v.095l10.719-5.496s0-.095-.095-.095c-3.036 1.706-7.399 3.885-10.624 5.496m-23.904 13.171.095.095 23.714-12.982v-.095z" opacity=".302"/><path fill="#00344A" d="M252.393 158.587v.095l.19-.095v-.095zm-23.998 13.171.094.095.19-.095-.095-.095z"/><path fill="#00344A" d="M173.758 197.913c6.735-11.466 15.841-26.722 22.861-38.093-6.925 11.371-16.126 26.532-22.861 38.093" opacity=".302"/><path fill="#00344A" d="m173.66 198.1.095-.19z"/><path fill="#00344A" d="M187.984 173.465c-4.363 7.296-10.15 17.056-14.418 24.447 4.363-7.296 10.055-17.151 14.418-24.447M234.653 145.226l16.031 3.127v-.189c-8.348-1.611-19.446-3.791-27.793-5.117v.189zm16.22 3.222 12.426 2.843v-.095l-.853-.284-11.668-2.654z" opacity=".302"/><path fill="#00344A" d="M250.688 148.448v-.19l.189.095v.095z"/><path fill="#00344A" d="M213.5 142.003s0-.095.095-.095c2.751.379 6.355.853 9.106 1.232v.19zM199.844 154.512l-3.32 5.306.19-.095 3.32-5.211z" opacity=".302"/><path fill="#00344A" d="m161.427 188.815-.095-.379z"/><path fill="#00344A" d="M187.984 173.465c-4.363 7.297-10.15 17.057-14.418 24.448h.19c6.734-11.466 15.841-26.722 22.86-38.093l-.19.095zm-20.299 35.25 5.976-10.613h-.19l-5.881 10.518z" opacity=".302"/><path fill="#00344A" d="M173.566 197.91h.19l-.095.19h-.095z"/><path fill="#00344A" d="M147.004 133.383c2.276 7.865 5.217 18.383 7.304 26.247-2.087-7.864-4.933-18.382-7.304-26.247" opacity=".302"/><path fill="#00344A" d="M154.309 159.629h.094v.095z"/><path fill="#00344A" d="m203.352 149.111.095.095-3.225 4.927-.095.19h-.189zM203.449 148.921l2.182-3.222h.095c-.664 1.043-1.518 2.369-2.277 3.222" opacity=".302"/><path fill="#00344A" d="m203.352 149.112.094-.19.095.095-.095.19z"/><path fill="#00344A" d="M149.76 130.634c9.96.853 23.24 2.463 33.01 4.169-9.865-1.706-23.05-3.506-33.01-4.264.095 0 0 .095 0 .095m36.709 4.927 17.643 4.548s0-.094.095-.094a1203 1203 0 0 0-17.643-4.549s-.095 0-.095.095m-39.555-2.084c1.613 5.59 3.794 12.981 5.312 18.667-1.518-5.591-3.605-13.077-5.312-18.667" opacity=".302"/><path fill="#00344A" d="m182.766 134.802.094-.095c1.139.19 2.562.569 3.605.758l-.095.095z"/><path fill="#00344A" d="m156.495 168.726 1.708 6.822s.094 0 .094-.095c-.474-2.084-1.138-4.737-1.612-6.822zm-6.26 42.451v.094l13.944-.473v-.095a691 691 0 0 1-13.944.474m-53.879-.474c4.079-7.296 9.581-16.962 13.754-24.163l-.094.095c-4.174 7.106-9.771 16.772-13.66 24.068q-.142 0 0 0m2.467 5.591c25.231-3.317 27.223-3.601 51.222-4.928v-.095c-28.931 1.896-30.069 1.896-51.222 5.023M161.141 188.151l.19.284-1.803-7.486s-.094 0-.094.095c.569 2.179.758 5.117 1.707 7.107m.095.379c1.423 6.064 3.32 14.213 4.743 20.278h.095c-1.423-5.97-3.226-14.024-4.554-19.994z" opacity=".302"/><path fill="#00344A" d="m161.234 188.531.19.285zM161.235 188.531l-.094-.379.189.285.095.379z"/><path fill="#00344A" d="m152.227 152.144 1.992 7.675.095-.095c-2.087-7.865-5.028-18.383-7.304-26.247l-.095.094c1.612 5.496 3.794 12.887 5.312 18.573m1.992 7.77 2.181 8.717.095-.094-2.181-8.813zm-11.099-25.49c-15.841 23.5-18.686 27.764-33.104 51.927l.094-.095c14.988-24.447 18.023-29.564 33.01-51.832q.142.143 0 0" opacity=".302"/><path fill="#00344A" d="m154.219 159.724.095-.095.094.095-.189.19z"/><path fill="#00344A" d="M202.976 48.1c6.356-.285 14.798-.569 21.153-.095l.19-.095c-6.26-.284-14.703-.474-20.868.095h-.285l-13.185 2.748 12.711-2.653zm-15.935 5.211c-2.182 3.885-4.933 9.097-6.83 13.077 1.992-4.075 4.838-9.57 7.114-13.456zM184.1 65.724c7.589-3.506 17.548-8.433 25.232-11.75-7.494 3.507-17.738 7.96-25.232 11.75" opacity=".302"/><path fill="#00344A" d="m215.118 67.334-2.561 6.065 2.656-6.065v-.094c2.561-5.686 6.071-13.361 8.821-18.952v-.095l.095-.19h-.095l-.189.096-14.703 5.97c-7.589 3.505-17.833 7.959-25.232 11.75 11.952-5.497 27.888-12.793 40.03-17.72l-.095.284v.095c-2.561 5.496-6.166 12.981-8.727 18.856m-15.746 3.79 10.055 3.696c-6.451-2.274-15.272-4.832-22.007-6.16l11.857 2.465zM138.661 81.17c9.391-6.444 22.007-14.877 31.777-20.752l.095-.095c-9.676 6.064-22.576 14.213-31.872 20.846m38.512-24.353 8.821-4.454c-2.561 1.327-6.071 3.032-8.632 4.36zl-.38.19c.095 0 .095-.095.19-.095zm9.77-4.454-12.047 9.476 9.201-7.391.095-.095zM167.972 67.81c-4.743 4.453-11.193 10.233-15.747 14.782 18.972-17.91 20.489-19.33 34.718-30.228l-2.751 2.085-.095.095c-4.743 3.885-11.288 9.096-15.936 13.17zM135.91 83.444c2.656-1.043 6.545-1.8 9.391-1.611 1.518.094 3.225 1.516 4.458 2.463-2.466-1.421-6.165-2.558-8.916-2.748-1.613-.094-3.51 1.043-4.933 1.895" opacity=".302"/><path fill="#00344A" d="M187.323 52.933c-2.276 3.98-5.122 9.38-7.114 13.455zm-2.656 4.833c.664-1.327 1.803-3.127 2.561-4.454l.949-1.421c-.19.094-.19.094-.759 1.137m-19.54 14.877.19-.19 6.829-5.875 12.047-9.476c-20.204 16.204-20.584 16.488-34.812 30.323l-.57.568h.095M215.116 93.394c1.138 7.012 2.656 16.298 3.699 23.215l.19-.095c-1.138-7.012-2.561-16.298-3.699-23.215 0 0-.095 0-.19.095.095 0 .095-.095 0 0m7.588 49.936.475 3.317h.189a46 46 0 0 0-.474-3.317v-.189l-2.182-15.256v-.189l-1.612-11.182-.19.095 1.613 11.276v.19l2.087 15.066zm-9.485-.852 8.442 4.737.095-.094c-2.561-1.422-5.976-3.412-8.537-4.833.095.095 0 .095 0 .19q0-.143 0 0" opacity=".302"/><path fill="#00344A" d="m219.005 116.516-.095.095zM218.91 116.611l.095-.095.095.095-.19.095z"/><path fill="#00344A" d="M160.29 121.444c8.063 2.274 18.877 5.496 26.75 8.433l.095-.094c-7.873-2.843-18.497-6.349-26.655-8.434h-.095l-8.916-1.611 8.727 1.706zm26.845 8.528 3.699 1.516.19-.095-3.794-1.61zm3.794 1.516 14.987 7.012s.095 0 .095-.095a1059 1059 0 0 1-14.892-7.106z" opacity=".302"/><path fill="#00344A" d="m187.035 129.876.095.095.095-.095-.095-.095zm3.7 1.611h.094l.19-.095h-.095z"/><path fill="#00344A" d="m212.078 77.76.285 1.326.095-.19-.285-1.136zm.38 1.516 1.992 9.95s.094 0 .094-.095c-.569-3.033-1.422-7.012-1.992-10.045z" opacity=".302"/><path fill="#00344A" d="m212.363 79.084.19-.19v.19l-.095.19z"/><path fill="#00344A" d="M187.419 68.663c6.735 1.422 15.557 3.79 22.007 6.16l-9.865-3.696h-.095c-3.889-.853-9.106-2.18-13.09-2.653h-.095l-4.458-.285-.095.095c1.328.095 3.13.19 4.458.284h.095zm-34.148 45.484c27.793-19.615 31.397-22.174 54.352-36.008-31.682 19.615-32.346 19.994-54.352 36.008M164.178 76.433l.189-.095 5.122-2.843 5.502-2.937-10.624 5.78zm-14.134 9.096a760 760 0 0 0-1.423 13.74c.38-4.17.949-9.665 1.423-13.74m20.109-4.738c-12.236 18.573-12.995 19.615-20.868 33.355l8.822-14.782c3.604-5.59 8.347-13.077 12.141-18.573l.095-.094 2.941-4.17.095-.094 4.553-6.16-4.743 6.254-.095.095zM146.821 82.496l2.751 1.8h.095c-1.328-.758-2.846-2.368-4.363-2.463-6.071-.38-6.071-.38-9.486 1.61l-.095.096c1.423-.57 3.225-1.706 4.838-1.896 1.992-.19 4.648 0 6.26.853m-55.68 44.441c4.268-4.169 9.485-10.234 13.469-14.687 7.684-8.339 19.066-18.383 27.603-25.964-21.911 19.71-21.911 19.71-41.072 40.651m56.819-41.03c-22.956 13.645-35.666 21.226-56.345 40.841 19.445-17.151 30.164-26.532 56.345-40.84" opacity=".302"/><path fill="#00344A" d="M91.517 126.843c19.445-17.151 30.164-26.532 56.344-40.84-22.86 13.55-35.571 20.941-56.344 40.84q.142-.141 0 0m57.008-27.574c-.474 4.738-1.138 11.087-1.612 15.824 1.423-12.981 1.423-12.981 3.225-29.753l-.095.095c-.474 4.169-1.043 9.665-1.518 13.834m-57.767 28.522c12.331-8.339 26.37-17.814 51.981-9.855-13.754-3.222-30.828-7.201-51.886 9.76 0 0-.095 0-.095.095M154.882 180.381l.38-.095v-.095c-.19.095-.285.095-.38.19m-8.252 4.453v.095l8.062-4.359-.094-.094zm-47.618 28.522c25.516-15.919 28.267-17.624 47.523-28.332v-.095c-29.121 16.583-29.69 16.867-47.523 28.427q0-.141 0 0" opacity=".302"/><path fill="#00344A" d="M146.531 184.836h.095l.095.095-.19.095zM154.691 180.474l.19-.095v.095l-.095.095z"/><path fill="#00344A" d="M177.644 161.239v.095l22.197-6.823.189-.094 7.304-1.99-.095-.095-7.019 1.99-.19.095zm-29.974 10.708 8.821-3.222.095-.095 20.868-7.296v-.095l-20.868 7.296-.095.095zm-2.656 1.042v.095l2.466-.948-.095-.095zm-11.763 4.927 11.668-4.737v-.095l-11.668 4.738zM97.965 211.46c7.968-8.244 18.592-19.235 26.654-27.29-7.967 8.149-18.686 18.952-26.654 27.29" opacity=".302"/><path fill="#00344A" d="m144.918 173.085.095-.095.095.095-.19.095zM147.48 172.043h.19l-.095-.095zM177.551 161.24v.095l.189-.095v-.095z"/><path fill="#00344A" d="m207.43 152.239 13.185-3.411v.095c-3.889 1.042-9.201 2.369-13.09 3.411z" opacity=".302"/><path fill="#00344A" d="m207.242 152.333.19-.095.095.095-.19.095z"/><path fill="#00344A" d="M175.465 169.769v.094l20.963-9.949.19-.095 12.711-5.685-.095-.095-12.521 5.591-.19.094zm-13.09 6.727 12.9-6.538v-.095z" opacity=".302"/><path fill="#00344A" d="m175.273 169.863.19-.095v.095l-.19.095z"/><path fill="#00344A" d="m209.422 154.039 11.193-4.738v.095c-3.32 1.421-7.778 3.316-11.193 4.737z" opacity=".302"/><path fill="#00344A" d="M209.234 154.039h.19l.095.095h-.19z"/><path fill="#00344A" d="M72.828 203.217c22.007-10.707 22.86-11.181 37.089-16.677l.095-.095 16.03-5.875-16.03 5.78-.095.095c-24.473 10.234-24.947 10.423-37.089 16.772m25.232 8.244c8.537-8.812 20.015-20.562 28.646-29.185l-2.086 1.895c-7.968 8.149-18.687 18.951-26.56 27.29m-25.896-6.917c4.933 3.032 11.478 7.201 16.22 10.518 0 0 0-.095.095-.095-4.742-3.316-11.193-7.675-16.22-10.518zM62.302 185.591c19.446-18.288 37.753-35.629 77.213-61.876-25.232 17.34-47.048 32.312-77.213 61.876m10.245 16.867c21.722-27.29 38.227-47.379 68.486-77.796-21.722 22.174-38.796 39.704-68.486 77.796M67.612 199.141l3.035 4.17.095-.095c-1.707-2.179-3.984-5.117-5.596-7.391l-5.312-5.212-.095.095c2.466 2.369 5.786 5.685 7.873 8.433m-44.677 36.766-.095.095c10.34-10.234 19.256-19.046 46.859-31.27-16.885 7.96-32.82 15.54-46.764 31.08 13.47-19.993 13.754-20.372 31.682-41.977-15.746 19.046-20.49 24.732-31.682 42.072M264.436 153.848c-1.328-.379-1.802-1.516-1.138-2.653 1.043-1.422 2.656-1.422 3.035-1.422 1.234.095 1.708.758 1.708.758 1.328 1.706-1.044 3.791-3.32 3.412h-.095c0-.095-.095-.095-.19-.095M144.352 134.519c-2.087.379-2.751-.948-1.423-2.748 2.087-2.843 6.735-4.454 7.114-2.464.095.379 0 .853-.284 1.327-1.328 2.274-3.795 3.506-5.218 3.79-.094 0-.094.095-.189.095M331.979 24.978c-2.846-.095-3.795-1.137-2.846-1.99 2.277-1.895 10.245-2.084 9.96-.19-.19 1.233-3.794 2.275-7.114 2.18M292.612 60.989c-1.612-.19-2.087-1.137-.948-2.085.664-.568 2.086-1.042 3.509-1.042 1.992.19 2.277 1.137 1.423 1.99s-2.656 1.327-3.984 1.137m-1.138 1.706h.095c5.027.19 10.055-3.033 8.252-5.212-2.276-2.748-11.572-.569-12.046 2.748-.285 1.8 2.466 2.274 2.845 2.369.19.095.475.095.854.095" opacity=".302"/><path fill="#00344A" d="M292.609 60.987c-1.613-.19-2.087-1.138-.949-2.085 1.803-1.421 5.597-1.327 5.407.19-.095 1.042-2.276 1.99-4.173 1.895zM340.324 113.86c-3.32-1.042-3.794-3.98-.853-5.591 3.604-1.99 9.011.19 7.968 3.222-.664 1.895-3.605 3.032-6.356 2.558-.19 0-.19 0-.379-.094-.095 0-.285-.095-.38-.095M321.922 159.251c-2.276-.759-2.371-3.222-.284-4.265 1.328-.663 2.561-.379 2.561-.379 2.466.474 3.225 2.843 1.328 4.17-.759.474-1.992.947-3.32.568-.095 0-.19-.094-.285-.094" opacity=".302"/><path fill="#00344A" d="M321.165 160.482c-3.51-1.232-3.7-5.022-.285-6.633 1.708-.853 3.225-.569 3.889-.569h.095c.569.095 1.138.285 1.613.664 3.414 2.084 1.707 5.874-1.992 6.727-.569.095-1.897.285-3.32-.189m-.38.568c.19.095.38.095.475.19 4.837 1.326 9.58-2.653 7.398-6.254-.284-.474-1.233-1.706-3.509-2.274-4.933-1.043-9.391 3.127-6.925 6.538a5.33 5.33 0 0 0 2.561 1.8M236.744 42.794c-.664.094-1.043 0-.853-.285.284-.473 1.422-.947 2.276-1.137 1.044-.19 1.138.095 1.044.285-.38.379-1.518.947-2.467 1.137m-.664.473c.095 0 .19 0 .285-.094 2.182-.474 4.458-1.895 3.889-2.37-.095-.094-.285-.094-.474-.094-.664 0-1.613.19-2.751.569-2.277.947-2.751 1.705-2.277 1.99.38.189.949.094 1.328 0" opacity=".302"/><path fill="#00344A" d="M236.742 42.793c-.664.095-1.043 0-.853-.284.474-.758 3.225-1.611 3.32-1.043.095.38-1.233 1.043-2.372 1.327 0-.095-.095 0-.095 0M206.289 145.793c-3.794-.189-4.458-3.79-1.233-6.538 1.707-1.516 4.648-2.748 7.114-1.99 3.51 1.137 2.371 5.496-1.897 7.581a8.8 8.8 0 0 1-3.984.947M263.394 28.673c-1.044.19-1.613 0-1.328-.38.379-.473 1.992-1.136 3.509-1.42 1.708-.285 1.803.094 1.613.378-.38.474-2.182 1.232-3.794 1.422m-1.044.947c.095 0 .285 0 .38-.094 1.612-.285 5.027-1.137 6.829-2.654l.095-.094c.949-1.043-.379-1.137-1.612-1.043-3.795.285-9.296 2.559-8.538 3.601 0 .19.475.663 2.846.284" opacity=".302"/><path fill="#00344A" d="M263.397 28.676c-1.043.19-1.612 0-1.328-.38.759-.947 5.027-2.084 5.217-1.326.095.474-1.802 1.327-3.604 1.706zM170.44 61.461c-.949.569-2.182 1.137-2.467 1.043-.094-.758 8.158-5.78 8.917-5.402.095.474-3.51 2.748-6.071 4.17-.095 0-.284.095-.379.19M232.947 28.77c-.474.189-1.422.473-1.517.378.284-.473 5.501-2.463 5.691-2.179-.095.19-1.518.853-2.751 1.327-.189.094-.569.19-1.043.379-.19 0-.285.094-.38.094M159.717 86.003c-.948.379-1.517.284-1.328-.284.285-.758 2.087-2.085 3.605-2.748 1.802-.664 1.613 0 1.518.19-.19.852-2.182 2.178-3.795 2.842m-.379.474c.095 0 .19-.095.285-.095 2.845-1.137 5.691-3.696 4.742-4.264-1.897-.569-7.304 3.411-6.924 4.453.19.285.854.285 1.897-.094M300.767 13.23c-1.802.19-2.941 0-2.561-.379.853-1.042 8.916-2.369 8.821-1.42 0 .568-3.035 1.42-5.976 1.8zM213.124 93.678c-2.087 0-2.656-1.327-1.233-2.843 2.276-2.463 7.304-3.221 7.304-1.137 0 1.611-2.941 3.696-5.692 3.98zM156.874 181.518c-2.561-.379-2.371-3.506.38-5.496 2.751-1.895 5.596-1.042 5.122 1.516-.379 2.085-2.94 4.075-5.122 3.98z" opacity=".302"/><path fill="#00344A" d="M159.72 86.003c-.949.38-1.518.284-1.328-.284.474-1.327 4.837-3.696 5.217-2.843.19.569-1.802 2.274-3.699 3.032 0 0-.095 0-.19.095M428.159 71.6c0 .095.095.095.095.19 1.707.379 3.889.947 5.596 1.326 1.708-.853.759-2.558-1.233-3.221-2.94-1.043-5.217.19-4.458 1.705m1.802 1.327h.095c.569.19 2.087.663 3.605.095-1.613-.38-3.795-.853-5.407-1.232.095.094.095.19.284.284.475.379.854.663 1.423.853" opacity=".302"/><path fill="#00344A" d="M428.351 71.79c1.612.283 3.889.852 5.501 1.23-.094.096-.094.096-5.501-1.23" opacity=".514"/><path fill="#00344A" d="M221.85 150.153c-1.423-.19-1.707-1.706-.095-2.938 1.423-1.042 3.7-.663 3.415.853-.189.853-1.328 2.085-3.13 2.085zM70.459 205.679c-.95.189-1.044-.853-.19-1.99.095-.095.19-.284.38-.474 1.043-1.042 2.18-1.232 2.18-.284 0 .758-.948 2.274-2.276 2.748zM215.872 73.4l-2.087 3.601c2.277-1.421 3.13-2.937 2.087-3.6m-6.166 5.023c.19 0 .38-.095.569-.095 1.992-.38 3.32-1.232 3.32-1.232.949-.853 1.518-2.653 2.182-3.79-2.371-1.137-9.106 2.369-8.442 4.359.095.663 1.043.947 2.371.758" opacity=".302"/><path fill="#00344A" d="M215.779 73.305s.095 0 .095.094c-.664 1.043-1.423 2.559-2.087 3.601-.095 0-.094.095-.189.095z"/><path fill="#00344A" d="M143.217 124.476c-3.51.853-4.838-.853-3.036-3.695 1.708-2.748 5.882-5.781 9.296-6.728 3.605-1.042 5.407.284 3.889 3.127-1.043 1.99-4.553 5.59-9.77 7.201-.095.095-.284.095-.379.095M128.038 182.654c-2.276 0-2.561-2.464-.474-4.643 2.276-2.369 5.596-2.558 5.691-.19.095 1.706-2.087 4.549-5.027 4.833zM149.092 86.004c-.853.379-1.423.474-1.328.19.285-.948 4.364-3.602 4.743-3.033.285.38-1.328 1.8-3.32 2.843 0-.095-.095 0-.095 0M56.328 193.645c-1.422.758-2.087.379-1.707-.947.948-3.412 6.64-8.813 7.683-7.202.57.948-1.043 3.696-2.466 5.212-1.518 1.8-2.75 2.558-3.225 2.842-.095-.094-.19 0-.285.095M177.74 70.273c-2.276.852-2.751.568-2.845.19 0-1.707 8.252-6.16 9.201-4.928.569.758-2.941 3.506-6.356 4.738M133.349 85.434c-2.087 1.611-2.371 1.8-2.466 1.8.284-.473 7.209-5.97 8.063-6.443-.095.095-.57.569-3.036 2.558-1.043.853-1.992 1.517-2.371 1.896 0 .094-.095.094-.19.19M187.417 52.174c-.949.474-1.518.663-1.613.569-.094-.285 1.708-1.327 2.372-1.706 1.707-.948 2.845-1.327 2.94-1.232.19.19-1.707 1.422-3.699 2.37M88.86 129.78c-.854.758-.949.853-1.044.853.19-.568 3.51-3.885 3.89-4.074 0 .094 0 .094-.095.189-.285.379-1.234 1.516-2.656 2.843 0 .095-.095.095-.095.189" opacity=".302"/><path fill="#00344A" d="M209.137 262.061c33.105 14.118 33.105 14.118 60.329 26.437-29.311-13.172-29.311-13.171-60.329-26.437m78.541-97.884c-39.081 40.082-57.198 62.729-80.248 91.345 31.492-40.366 55.206-65.192 80.248-91.345m1.897.189h-.189c-10.814 61.403-12.711 87.65-15.177 120.91 3.32-47.947 8.916-83.102 15.366-120.91"/><path fill="#00344A" d="M199.364 214.777c-.569-8.718-.948-20.373-1.233-29.091zm87.078-52.875c-36.14 1.99-45.626 2.843-73.798 5.307 34.528-3.033 41.263-3.412 73.798-5.307m1.233 2.18s-.094 0-.094-.095l-4.838 5.022c-40.693 43.02-50.084 54.864-75.221 86.418 31.302-40.082 55.017-65.003 80.153-91.345"/><path fill="#00344A" d="M170.247 144.562c0 .095 0 .095-.095.19.285 0 .664.095.949.095 0 0 0-.095.095-.095zm1.423.19c0 .095 0 .095-.095.19l1.328.189.095-.189zm1.518.19-.095.189 11.762 1.611.095-.19zm35.476 22.646q0-.141 0 0c-2.087.095-4.933.379-7.019.569v.189zm-23.619-21.036-.095.19c7.873 1.042 18.402 2.464 26.275 3.506v-.19c-7.873-1.042-18.307-2.463-26.18-3.506m87.932 15.92c-24.094 1.326-30.354 1.989-60.329 4.737 29.5-2.558 39.65-3.316 73.798-5.401zm-61.562-12.414v.19c24.093 3.222 32.536 4.453 75.221 10.802-27.508-4.359-45.626-6.822-75.221-10.992M159.623 154.321c-7.115 8.434-16.316 19.899-23.24 28.522 6.829-8.623 16.315-19.994 23.334-28.522zm-23.05 30.038c7.398-2.085 17.263-4.738 24.567-6.728zm.094-.095c7.399-2.084 17.264-4.737 24.663-6.727-7.494 1.895-17.359 4.643-24.663 6.727m28.457-36.102-5.407 6.064h.095zm1.518-1.706q-.143 0 0 0a5.5 5.5 0 0 0-1.043 1.043s0 .094.094.094c.285-.379.664-.758.949-1.137m3.035-1.042-.094.095c.189.189.474.379.664.568l.094-.094zm1.044.948-.095.094 1.328 1.232.095-.189zm1.423 1.231-.095.19 8.347 7.107.095-.19zm9.865 8.434-1.518-1.232-.095.189 7.778 6.254.38.095zm12.426 13.361c-7.304 1.705-17.074 4.074-24.378 5.874 7.209-1.895 16.979-4.169 24.378-5.874m-5.597-7.96-.379-.095c2.087 1.611 4.932 3.79 7.019 5.401l.095-.094z"/><path fill="#00344A" d="M135.812 186.067c3.795 5.306 9.296 12.129 13.28 17.246-4.173-5.023-9.39-12.035-13.28-17.246m.759-1.801v.19c7.399-2.085 17.264-4.738 24.568-6.728l.095-.189c-7.399 1.895-17.264 4.643-24.663 6.727m24.853-6.822-.095.189 8.442-2.179.095-.189zm8.537-2.179-.095.189 14.418-3.506 10.055-2.464c-7.304 1.611-16.979 3.98-24.378 5.781m29.405 39.513c.949 12.034 2.656 28.048 4.079 39.988-3.794-33.639-3.794-34.966-5.217-69.362l-.095.189m-.19-11.845.095 11.656.095-.19-.095-11.56zm.095-1.326h-.095v1.137l.095-.095a1.94 1.94 0 0 0 0-1.042"/><path fill="#00344A" d="M148.24 250.596c-7.114-1.137-16.505-2.748-23.619-3.98l-14.513-2.369 9.295 1.611c8.632 1.516 20.205 3.411 28.932 4.833zm-12.426-64.53-.095.095c3.794 5.307 9.201 12.034 13.28 17.246l.095-.095c-4.174-5.022-9.391-12.034-13.28-17.246m13.374 17.341-.094.095 3.225 3.79.094-.19zm-.758 47.189v.189l10.054 1.611.095-.189zm4.932-42.262-.949-1.137-.094.19 1.612 1.895.095-.19zm.759.948-.095.189c5.122 5.875 12.237 13.361 17.548 19.046l.095-.189c-5.312-5.591-12.236-13.266-17.548-19.046m4.648 43.019-.095.19c12.142 1.99 28.362 4.643 40.599 6.538-12.237-2.084-28.363-4.738-40.504-6.728m13.09-23.878-.095.189c8.537 8.528 20.11 19.71 28.836 28.048-8.726-8.338-20.204-19.709-28.741-28.237M73.304 215.725c-1.518.853-3.51 1.99-5.028 2.938v.189zm5.501-3.221c-.569.094-1.233.663-1.802 1.042-.095 0-.095.095-.095.19l2.087-1.232zm-11.098 7.77c4.553 3.6 10.909 7.959 15.651 11.181-4.837-3.127-11.003-7.675-15.651-11.181m11.288-7.96h.19c5.312-3.032 12.615-6.822 18.022-9.76l.095-.189c-5.502 2.937-12.805 7.012-18.307 9.949m21.532 28.711c-5.217-2.747-11.952-6.632-17.074-9.57 5.028 3.032 11.952 6.728 17.074 9.57m-16.979-9.665c5.027 3.033 11.952 6.728 17.074 9.571-5.217-2.748-12.047-6.728-17.074-9.571m32.915-12.413c-2.371 4.928-5.501 11.466-7.873 16.393h.095l7.873-16.393zm13.28-31.933c-9.77 4.454-22.671 10.613-32.251 15.351l-.095.189c9.675-4.832 22.671-10.897 32.346-15.445zm1.613 3.885-9.012 16.583-5.881 11.37h.095c4.269-8.433 10.339-19.52 14.798-27.858zm-1.518-3.885.095.095c.948-.379 2.181-.948 3.13-1.327v-.094zm3.699.095-2.181 3.601v.094z"/><path fill="#00344A" d="M134.583 182.845c-1.328.948-1.518 2.464-1.613 2.653-.19 1.232.569 2.275 2.182 1.137l.189-.189zm2.086.853c0-.853-.569-1.706-1.897-.948.19 1.043.569 2.559.759 3.601.664-.663 1.043-1.611 1.138-2.463zM201.642 166.736c-.57-2.842-4.364-2.748-6.356.19-2.181 3.316-.569 6.254 2.277 5.59 1.518-.284 3.415-1.8 3.984-4.264.095-.568.095-.947.095-1.231q.141-.143 0-.285M170.531 143.141c-.095-1.517-1.707-1.706-3.13-.19-1.613 1.706-1.613 3.98.095 3.885 1.233-.095 2.94-1.706 3.035-3.411z"/><path fill="#00344A" d="M171.67 142.477c0 .947-.379 1.8-.474 2.179-.948 1.99-2.846 3.506-4.363 3.411-2.277-.095-2.277-3.411.095-5.875 2.181-2.179 4.742-1.99 4.742.285m.664-.285c-.094-1.326-.853-2.179-1.992-2.179-3.414-.095-7.209 5.78-5.217 8.149 1.992 2.179 6.925-1.611 7.115-5.496.094-.189.094-.379.094-.474M292.326 160.389c-.853-2.275-4.363-1.99-5.501.379-.19.379-.285.758-.285 1.042-.19 2.558 2.751 3.411 4.648 1.895.474-.379 1.518-1.421 1.233-3.032-.095-.095-.095-.19-.095-.284"/><path fill="#00344A" d="M56.706 177.159c-12.047 20.088-12.616 21.415-27.698 54.201 9.2-21.321 10.15-23.216 27.603-54.012zm.19-.379-.19.284c.095 0 .19-.19.19-.284m-9.107 26.626c-2.276 9.476-4.363 22.173-5.691 31.839 1.233-9.666 3.7-22.363 5.691-31.839" opacity=".302"/><path fill="#00344A" d="M58.03 175.832c-.094 0-.094.094 0 0l-3.604 8.244.095-.095zm-4.837 11.276-5.217 15.54v.284zm-5.407 16.203v-.284l-3.51 14.972L42 235.149c1.328-9.57 3.794-22.362 5.786-31.838m12.806-31.554s-.095.095-.095.19c2.087-1.232 4.933-2.654 7.114-3.791l.19-.189c-2.277 1.042-5.502 2.085-7.21 3.79m7.209-3.885-.19.19c2.561-1.232 5.976-2.654 8.537-3.791l.095-.189c-2.561 1.137-5.881 2.653-8.442 3.79m8.537-3.79-.095.189c6.545-2.558 6.545-2.558 6.545-2.748zM65.81 221.979c-5.027 29.091-5.027 30.512-6.166 65.856.665-30.511 1.044-32.501 6.166-65.856m1.328-6.727c-.19.852-.474 2.084-.664 2.937 0-.095.095-.095.095-.189zm14.987-50.79-5.69 8.718.094-.095zm-11.193 34.965-3.794 15.73h.095l3.794-15.54zm.095-.189v.094c2.561-8.812 6.545-20.372 9.58-29.09l-.094.095m2.466-5.97-2.371 5.78.095-.094zM43.613 250.121c-.57-3.316-1.044-7.77-1.518-11.086 0 0 0 .094-.095.094.57 5.781 2.182 13.361 3.32 19.047l.095-.19zm1.802 8.055-.095.189 2.087 7.202c2.656 7.58 6.924 17.245 10.15 24.542-4.174-9.381-9.012-22.174-12.142-31.933m30.923-84.903-2.277 3.601-5.596 9.286v.095zM48.073 224.16c-2.466 2.463-3.415 7.391-4.932 10.518zm20.3-37.808c-6.356 11.086-14.324 26.247-20.205 37.618h.095c5.027-10.044 12.142-23.215 17.548-33.07zM130.598 149.773c.759 9.95 2.561 23.121 4.173 32.976-1.707-9.76-3.32-23.026-4.173-32.976" opacity=".302"/><path fill="#00344A" d="m134.773 182.75.759 3.696z"/><path fill="#00344A" d="M99.581 248.227c-9.201 9.854-21.153 23.31-29.975 33.544zm28.836-99.021q0-.143 0 0l-7.019 10.992v.094zM97.305 202.649c-1.992 2.085-3.036 5.97-4.364 8.528h.095l4.364-8.717zm23.998-42.356c-7.493 12.508-16.979 29.375-23.903 42.167l.094-.095c6.83-12.792 16.411-29.564 23.809-41.977z" opacity=".302"/><path fill="#00344A" d="m97.4 202.458-.095.191.094-.096.095-.19z"/><path fill="#00344A" d="m171.766 228.326.094.095c7.684-12.981 18.213-30.038 26.181-42.83v-.189c-8.063 12.792-18.592 29.943-26.275 42.924m37.658-59.696c-.095-.095 0-.095 0 0l-11.193 16.582v.19z" opacity=".302"/><path fill="#00344A" d="M198.043 185.402v.285l.19-.285v-.189z"/><path fill="#00344A" d="M197.945 173.748c-11.573 6.728-26.75 15.919-38.133 22.836 11.383-7.012 26.655-16.108 38.133-22.836" opacity=".302"/><path fill="#00344A" d="m198.131 173.652-.19.095z"/><path fill="#00344A" d="M173.477 187.963c7.303-4.454 17.169-10.045 24.472-14.403-7.398 4.264-17.169 10.139-24.472 14.403M154.497 199.805l-.095.189 5.217-3.316.095-.19z" opacity=".302"/><path fill="#00344A" d="m188.836 161.429-.379-.095z"/><path fill="#00344A" d="m173.472 187.963-13.565 8.338-.095.19c11.383-7.012 26.655-16.109 38.133-22.837v-.189c-7.399 4.359-17.169 10.234-24.473 14.498m35.286-20.278-.094-.095-10.53 5.875v.189z" opacity=".302"/><path fill="#00344A" d="M197.941 173.559v.19l.19-.095v-.095z"/><path fill="#00344A" d="M133.348 147.027c7.873 2.369 18.402 5.212 26.275 7.297-7.873-2.085-18.402-5.022-26.275-7.297" opacity=".302"/><path fill="#00344A" d="m159.625 154.322.095.095z"/><path fill="#00344A" d="m149.094 203.312.095.094 4.932-3.221.19-.095v-.19zM148.905 203.406l-3.225 2.18v.094c1.043-.663 2.371-1.516 3.225-2.274" opacity=".302"/><path fill="#00344A" d="m149.096 203.312-.19.096.095.095.19-.095z"/><path fill="#00344A" d="m130.595 149.774-.095.095c.759 9.95 2.561 23.121 4.269 32.975-1.708-9.854-3.32-23.12-4.174-33.07m4.932 36.671-.094.095a1210 1210 0 0 1 4.553 17.625s.094 0 .094-.095zm-2.086-39.513c5.596 1.705 13.09 3.79 18.686 5.306-5.596-1.516-13.09-3.695-18.686-5.306" opacity=".302"/><path fill="#00344A" d="m134.775 182.75-.095.095c.189 1.137.569 2.558.759 3.601l.094-.095z"/><path fill="#00344A" d="m168.728 156.502-.095.095c2.087.474 4.743 1.137 6.829 1.611 0 0 0-.095.095-.095zm42.495-6.254c-.095 4.17-.284 9.855-.474 14.024h.095l.474-13.929zm-.474-53.821q0-.142 0 0c-7.304 3.979-16.884 9.475-24.188 13.645l-.095.094c7.304-4.264 16.979-9.665 24.283-13.74m5.597 2.463h-.095c-3.036 21.131-3.131 22.268-5.028 51.169h.095c1.423-23.974 1.708-25.963 5.028-51.169" opacity=".302"/><path fill="#00344A" d="M211.227 150.059v.19h.189v-.19z"/><path fill="#00344A" d="M188.174 161.143c-1.992-.947-5.027-1.137-7.114-1.705 0 0 0 .094-.095.094l7.494 1.801zm.379.095.285.189c5.976 1.422 14.039 3.222 20.015 4.549v-.095c-6.071-1.327-14.134-3.222-20.3-4.643" opacity=".302"/><path fill="#00344A" d="m188.555 161.24.284.19zM188.555 161.24l-.379-.095.284.19.38.095z"/><path fill="#00344A" d="M152.129 152.237c-5.596-1.516-13.09-3.695-18.686-5.306l-.095.094c7.873 2.369 18.402 5.212 26.275 7.297l.095-.095zm7.778 1.99-.094.095 8.821 2.179.095-.095zm-25.421-11.087q0 .142 0 0c22.196-14.971 27.319-18.098 51.981-32.975l.095-.095c-24.283 14.498-28.552 17.341-52.076 33.07" opacity=".302"/><path fill="#00344A" d="m159.815 154.227-.19.095.095.095.19-.19z"/><path fill="#00344A" d="M47.974 202.933v-.284l2.656-12.698-2.75 13.172v.284c-.57 6.254-.285 14.592-.096 20.846l.095-.189c-.569-6.349-.284-14.782.095-21.131m5.217-15.919-.474.284c3.984-2.274 9.39-5.117 13.47-7.107-3.89 1.896-9.107 4.644-12.996 6.823m12.426-2.938c-3.794 7.486-8.252 17.625-11.762 25.206 3.225-7.581 8.158-17.625 11.762-25.206" opacity=".302"/><path fill="#00344A" d="M67.236 215.061c-5.787 2.558-13.375 6.159-19.066 8.812h-.095l-.285.095c4.933-12.129 12.142-28.143 17.738-39.988-3.794 7.486-8.252 17.625-11.762 25.206l-5.976 14.687-.095.19v.094l.19-.094h.095c5.596-2.748 13.28-6.254 18.971-8.813h.095l6.07-2.653zm3.794-15.73v-.095l-2.466-11.844c1.328 6.727 3.889 15.54 6.165 21.983zM81.084 138.689c-6.735 9.287-14.893 22.173-20.869 31.933l.095-.094c5.881-9.855 14.323-22.458 20.774-31.839m-24.379 38.472.095-.19c0-.095.095-.095.095-.189zl-.094.189c-1.328 2.559-3.036 6.065-4.364 8.623zm-4.458 9.76 2.087-2.748.095-.095 7.399-9.192zm15.462-18.952-.19.19c-4.079 4.643-9.201 11.086-13.185 15.919l-.095.095-2.087 2.748c10.909-14.214 12.427-15.73 30.26-34.681-4.364 4.548-10.245 10.991-14.703 15.729m15.651-32.028c-.759 1.327-1.992 3.317-1.897 4.928.19 2.842 1.328 6.538 2.75 8.907-.948-1.137-2.37-2.938-2.465-4.454-.19-2.842.569-6.727 1.612-9.381" opacity=".302"/><path fill="#00344A" d="M66.284 180.191c-4.08 1.99-9.486 4.832-13.47 7.107zm-13.47 7.107c-.949.568-.949.568-1.138.758l1.423-.948c1.328-.758 3.035-1.895 4.458-2.558m25.611-32.881v-.095l-.57.569c-13.848 14.213-14.133 14.592-30.353 34.776l9.486-12.035 5.88-6.822.19-.19M121.395 160.293v-.095l-1.707-8.718 1.612 8.908v.094c2.087 8.149 5.597 18.762 8.442 26.627l.095-.095c-2.94-7.959-6.166-18.667-8.442-26.721m8.537 26.816-.095.095 1.613 3.79.095-.189zm1.518 3.696-.095.189a1058 1058 0 0 0 7.114 14.877s0-.095.095-.095z" opacity=".302"/><path fill="#00344A" d="m129.837 187.014-.095.094.095.095.095-.095zm1.613 3.695-.095.19v.094l.095-.189z"/><path fill="#00344A" d="m68.56 187.393-.095-1.137v-.095c-.094-1.326-.19-3.127-.284-4.453l-.095.094.285 4.454v.095c.474 3.979 1.802 9.096 2.656 13.076v.095l3.699 9.855c-2.371-6.444-4.743-15.256-6.166-21.984m45.531-34.112c-16.03 21.983-16.41 22.552-36.045 54.295 13.849-22.931 16.41-26.437 36.045-54.295M76.341 164.177l-.094.189-5.787 10.613 2.94-5.496 2.847-5.117zm9.107-14.119a752 752 0 0 1 13.754-1.421c-4.174.379-9.675.947-13.754 1.421m-4.743 20.089-4.174 2.937-.095.095-6.26 4.738 6.165-4.549.095-.094 4.174-2.938.095-.095c5.502-3.79 12.995-8.528 18.592-12.129l14.797-8.812c-13.754 7.865-14.892 8.623-33.39 20.847M82.408 146.837c-.853-1.706-1.043-4.359-.948-6.254.095-1.516 1.328-3.411 1.897-4.832l-.095.094c-1.992 3.412-1.992 3.412-1.613 9.476.095 1.516 1.708 3.032 2.467 4.359v-.095zm44.488-55.622c-20.963 19.141-20.963 19.141-40.693 41.03 7.588-8.434 17.643-19.899 25.99-27.575 4.458-3.979 10.529-9.191 14.703-13.455m-41.073 56.664c14.323-26.152 23.809-36.86 40.883-56.285-19.73 20.657-27.224 33.354-40.883 56.285" opacity=".302"/><path fill="#00344A" d="M126.804 91.594q-.142.143 0 0c-19.825 20.752-27.319 33.354-40.883 56.286 14.228-26.153 23.714-36.861 40.883-56.286m-27.603 56.949c-4.174.474-9.676 1.042-13.755 1.516l-.094.095c16.789-1.801 16.789-1.801 29.784-3.222-4.837.474-11.193 1.137-15.935 1.611m28.551-57.707-.095.095c-16.884 21.036-12.995 38.092-9.77 51.832-7.968-25.585 1.518-39.609 9.865-51.927M180.397 154.89c-.095.095-.095.284-.19.379h.095zm4.458-8.244-4.363 8.054.094.095 4.364-8.054zm28.552-47.568q-.143 0 0 0c-11.573 17.814-11.857 18.383-28.457 47.379h.095c10.718-19.141 12.331-21.795 28.362-47.379" opacity=".302"/><path fill="#00344A" d="m184.95 146.553-.095.095.095.095.095-.19zM180.489 154.701l-.094.19h.094l.095-.095z"/><path fill="#00344A" d="m161.237 177.633-6.83 22.268-.095.189-1.992 7.012.095.095 1.992-7.296.095-.19 6.83-22.173zm10.719-29.943-3.32 8.812-.095.095-7.304 20.846h.095l7.304-20.846.094-.095zm1.043-2.654-.949 2.464.095.095.949-2.464zm4.933-11.749h-.095l-4.743 11.655h.095zm33.579-35.25c-8.253 7.865-19.161 18.572-27.319 26.627 8.063-8.055 19.066-18.667 27.319-26.627" opacity=".302"/><path fill="#00344A" d="m173.091 144.941-.095.095.095.096.095-.191zM172.048 147.5l-.095.19.095.094zM161.235 177.539l-.094.19h.094l.095-.19z"/><path fill="#00344A" d="m169.773 175.455-10.054 21.036-.095.19-5.597 12.508.095.095 5.692-12.698.094-.189 9.96-20.942zm6.735-13.076-6.64 12.887h.095z" opacity=".302"/><path fill="#00344A" d="m169.868 175.264-.095.19h.095l.095-.19z"/><path fill="#00344A" d="M203.258 72.927c-6.356 12.129-6.545 12.603-16.885 37.145l-.095.094-5.786 16.014 5.881-16.014.095-.094c5.692-14.309 6.071-15.162 16.79-37.145m8.252 25.205c-8.347 7.865-19.256 18.573-27.318 26.627l-1.898 2.085c8.632-8.718 20.395-20.184 29.216-28.712m-6.924-25.868c-.095 0-.095.094-.095.094 2.94 5.022 7.209 11.466 10.529 16.204 0 0 .095 0 .095-.095-3.32-4.738-7.494-11.276-10.529-16.203M185.613 62.409c-29.595 30.133-44.582 51.927-61.941 77.132 26.275-39.324 43.634-57.707 61.941-77.132m16.884 10.234c-38.132 29.659-55.68 46.715-77.877 68.414 30.449-30.227 50.559-46.715 77.877-68.414M199.182 67.714c-2.751-2.085-6.071-5.402-8.443-7.865l-.094.094 5.217 5.307c2.181 1.705 5.122 3.98 7.398 5.59l.095-.094zm36.804-44.631c-17.359 11.181-23.05 15.92-42.116 31.649 21.627-17.91 22.006-18.193 42.021-31.649-15.556 13.93-23.145 29.848-31.113 46.715 12.237-27.669 21.058-36.576 31.303-46.81zM208.664 167.589c.379 1.516 2.561 1.705 3.889-.284l.095-.095zm4.363-2.274a1.8 1.8 0 0 0-.474-.853c-1.518-1.232-4.079.853-3.794 2.937 1.233-.094 2.846-.284 4.079-.379.095-.284.379-.853.284-1.516-.095 0-.095-.095-.095-.189" opacity=".302"/><path fill="#00344A" d="m208.664 167.59 3.984-.379zM208.664 167.493v.095c1.138-.095 2.751-.284 3.889-.379 0-.095.095-.095.095-.189z"/><path fill="#00344A" d="M134.488 144.373c.379-2.085-.949-2.748-2.751-1.421-2.846 2.084-4.458 6.727-2.466 7.106.379.095.853 0 1.328-.284 2.276-1.326 3.509-3.79 3.794-5.211 0-.095.095-.095.095-.19M145.775 206.155c-.189-3.791-3.794-4.454-6.545-1.232-1.518 1.705-2.751 4.643-1.992 7.106 1.138 3.506 5.502 2.369 7.589-1.895.664-1.232.948-2.558.948-3.979q0 .141 0 0M61.353 170.431c.569-.947 1.138-2.179 1.043-2.463-.759-.095-5.786 8.149-5.407 8.907.474.094 2.751-3.506 4.174-6.065 0-.094.095-.284.19-.379M85.921 159.724c-.57 1.611-1.992 3.506-2.846 3.885-.19.095-.853.284-.19-1.516.665-1.611 1.993-3.317 2.751-3.601.475-.19.57.284.285 1.232m.474-.379c.38-1.043.38-1.706.095-1.801-1.043-.379-5.027 5.022-4.458 6.918.569.947 3.035-1.896 4.268-4.738 0-.19.095-.284.095-.379M181.538 156.88c-.379-2.558-3.509-2.369-5.501.379-1.897 2.748-1.044 5.591 1.517 5.117 2.087-.379 4.079-2.937 3.984-5.117.095-.094 0-.189 0-.379" opacity=".302"/><path fill="#00344A" d="M85.92 159.724c.38-.947.285-1.516-.284-1.326-1.328.473-3.7 4.832-2.846 5.211.57.19 2.277-1.8 3.036-3.695 0 0 0-.095.095-.19M220.045 91.215c0 .664-.285 1.327-.949 1.99-1.328 1.327-3.32 1.516-3.32-.094 0-.285.095-.853.759-1.611 1.328-1.611 3.415-1.8 3.51-.285m3.984-1.705c-.19-1.706-1.328-2.843-3.225-3.032-5.312-.474-12.711 7.39-9.391 11.56l.095.095c3.32 3.506 12.331-2.275 12.521-8.055zM205.725 70.56c.19-.948-.853-1.043-1.992-.19-.094.094-.284.19-.474.379-1.043 1.042-1.233 2.18-.284 2.18.758 0 2.276-.948 2.75-2.275zM124.429 143.236c.854-3.506-.854-4.832-3.7-3.032-2.75 1.706-5.786 5.875-6.734 9.286-1.044 3.601.284 5.401 3.13 3.885 1.992-1.042 5.596-4.548 7.209-9.76.095-.095.095-.284.095-.379M182.673 128.075c0-2.274-2.467-2.558-4.648-.474-2.372 2.275-2.561 5.591-.19 5.686 1.707.095 4.553-2.085 4.838-5.022z" opacity=".302"/><path fill="#00344A" d="M220.045 91.216c-.094-1.421-2.181-1.326-3.509.19-1.233 1.421-.854 2.937.569 2.843 1.138-.095 2.846-1.232 2.94-2.938zM85.92 149.11c.38-.852.475-1.421.19-1.326-.948.284-3.604 4.359-3.035 4.738.38.284 1.802-1.327 2.846-3.317-.095 0 0-.095 0-.095M193.677 56.44c.759-1.422.38-2.085-.948-1.706-3.415.948-8.822 6.633-7.209 7.675.948.569 3.699-1.042 5.217-2.463 1.802-1.516 2.561-2.748 2.846-3.222-.095-.095 0-.19.094-.284M70.174 177.729c.854-2.274.57-2.748.19-2.842-1.708 0-6.166 8.244-4.933 9.191.76.569 3.51-3.032 4.743-6.349M85.351 133.382c1.613-2.085 1.802-2.369 1.802-2.464-.474.284-5.976 7.201-6.45 8.054.095-.094.57-.568 2.561-3.032.854-1.042 1.518-1.99 1.897-2.369.095 0 .095-.095.19-.189M52.057 187.392c.475-.948.664-1.516.57-1.611-.285-.095-1.328 1.706-1.708 2.369-.948 1.705-1.328 2.843-1.233 2.937.19.19 1.423-1.705 2.371-3.695M129.745 88.94c.758-.852.853-.947.853-1.042-.569.19-3.889 3.506-4.078 3.886.094 0 .094 0 .189-.095.38-.285 1.518-1.232 2.846-2.653.095 0 .095-.095.19-.095" opacity=".302"/></svg>