<svg xmlns="http://www.w3.org/2000/svg" width="340" height="227" fill="none"><path fill="#00344A" d="m312.891 29.113.508.255-.254-.128zq-.096-.094 0 0m-29.797-13.28.063.064c9.022 3.685 20.903 8.832 29.607 13.153-8.704-4.257-20.585-9.659-29.67-13.217m-8.641-2.86 8.641 2.86-.064-.063-8.577-2.86zM329.41 42.14c13.024 5.72 13.024 5.72 19.822 10.803-12.008-7.816-12.198-8.007-19.822-10.803"/><path fill="#00344A" d="m361.563 63.3-.128-.128.191.19zm-10.547-8.96-1.843-1.398.128.063 1.842 1.398zm10.356 8.832-.445-.19.127.063zM329.351 42.14c13.088 5.782 13.088 5.782 19.886 10.865l-.127-.063-4.829-3.368c-4.383-2.478-10.292-5.592-14.93-7.434m-.572-.255.572.255-.063-.064zm29.289 22.749-.953 1.08.064.063c.572-.635 1.27-1.588 1.969-2.097.445-.317 1.207-.699 1.779-.635l-.127-.064c-.826.318-2.033.953-2.732 1.652m-.953 1.08-.063.063.127.064.063-.064zM323.442 40.36l5.274 1.589v-.064l-5.337-1.588c.063 0 .063.063.063.063m33.61 25.48-1.398 1.97.063.064a37 37 0 0 0 1.398-1.97zM324.707 41.888l6.416 4.765v-.063l-6.607-4.956zm9.339 7.053 2.541 2.097-5.336-4.257v.063zm5.591 4.575 7.878 6.99.064.063-7.116-6.29zm7.942 7.053 6.607 6.354-6.544-6.29zm6.671 6.8-2.796-1.716h.064c.317.254.317.254 2.795 1.779-.063 0-.063 0-.063-.064m-4.13-2.479c.127.064.127.064.191.127-.064 0-.128-.063-.191-.127m-10.356-5.465.127.064 10.229 5.401-.064-.064zm-3.113-1.461.063.063 3.05 1.462-.127-.064zm-37.612-13.662c4.765-1.588 11.309-3.367 16.265-4.257-4.956.89-11.5 2.605-16.265 4.257m.064.064c3.875-1.27 9.085-2.987 13.087-3.813-4.002.954-9.275 2.351-13.087 3.813m18.361 6.29c5.972 1.526 13.532 4.83 19.187 7.308l-.064-.064c-18.107-7.18-20.902-8.324-35.197-11.437 0 0 0 .063.063.063"/><path fill="#00344A" d="M275.466 13.548c21.41 9.659 21.41 9.659 31.766 16.204l-14.422-8.26c-5.146-2.416-12.008-5.783-17.344-7.944q.094 0 0 0m45.553 26.37h-3.685l.127.064h3.685c-.063-.064-.127-.064-.127-.064m-3.748 0-1.906.127.127.064 1.906-.127zm-43.775-26.814c8.196 6.354 8.323 6.48 13.088 13.153-7.179-9.023-7.433-9.341-13.088-13.154M299.1 44.366c3.876-1.27 9.085-2.986 13.088-3.812l3.24-.382-.127-.063c-4.955.89-11.499 2.605-16.264 4.257 0-.063.063-.063.063 0m-9.212-12.772c1.588 3.177 3.748 7.435 5.146 10.675-1.525-3.177-3.431-7.498-5.146-10.675m-.127 0c1.588 3.177 3.748 7.435 5.146 10.675-1.525-3.177-3.431-7.561-5.146-10.675"/><path fill="#00344A" d="M273.376 13.038c8.196 6.355 8.323 6.482 13.024 13.154l.127.063c-7.115-9.023-7.433-9.34-13.088-13.153zm13.088 13.217 1.906 2.923h.063c-.572-.89-1.334-2.033-1.906-2.923zm-16.392-14.36c-5.4-1.144-13.596-.255-24.206 2.668h.127c13.151-3.177 13.914-3.367 24.206-2.668-.063.063-.063 0-.127 0m-28.717 4.257.127.063 4.447-1.588h-.127zm48.412 15.44c1.589 3.178 3.749 7.435 5.147 10.676h.063c-1.525-3.24-3.367-7.562-5.082-10.675zm-48.476-15.44-8.068 3.622c.063 0 .063 0 8.132-3.559zm-4.129 6.481c23.062 6.863 28.59 8.515 53.368 19.952-26.239-12.009-26.684-12.2-53.368-19.952M320.898 33.627l1.016.636.128.063-1.017-.635zm1.016.636.191.127c-.063-.064-.127-.064-.191-.127m-49.492-22.558 1.016.381h.064c-.318-.127-.699-.254-1.017-.38zm55.655 29.23.127.127c-1.652-2.097-4.002-4.893-6.035-6.609 0 0-.064 0-.064-.063 1.97 1.842 4.257 4.511 5.972 6.544m-44.982-25.1c7.625 3.75 17.599 9.023 24.842 13.408-7.243-4.321-17.154-9.722-24.714-13.344zl-8.958-3.558 8.895 3.495zm24.906 13.535c3.875 2.86 9.276 6.481 13.024 9.531 0 0 .064 0 .064.064-3.876-2.923-8.959-6.927-13.088-9.595m23.126 17.283.445 1.08.063.064c-.127-.318-.318-.763-.445-1.08v-.064l-2.414-4.765v-.064l-.445-.762-.127-.128.572.89v.064zm-6.671-4.956 6.29 5.592s.063 0 .063.063c-1.842-1.652-4.32-3.812-6.099-5.464z"/><path fill="#00344A" d="M272.676 11.768c.063 0 .19.063.317.127l-.254-.064zM303.997 33.371l13.279 6.545.127.064 12.834 7.307-12.771-7.307-.127-.064zm-1.207 1.525 12.516 5.147.127.064 14.867 7.37-14.803-7.37-.127-.064zm-35.324-14.742c5.718 1.843 13.405 4.004 18.996 6.037l.127.064 17.281 7.053-17.344-7.053-.127-.064zm-8.006 3.622.127.064c8.069 1.588 18.806 3.685 26.812 5.782-8.069-1.906-18.806-4.448-26.939-5.846m0 .064-.127-.064c-6.798-.762-15.883-1.906-22.745-2.35 0 0 .064 0 .064.063M225.088 10.877l.255.064c6.162 1.08 14.422 2.287 20.521 3.621h.127l15.248 3.813-15.185-3.812h-.127c-6.289-1.144-14.612-2.86-20.839-3.686m-8.259-1.017c2.414.318 5.718.7 8.196 1.017l-.254-.063-7.624-.954zm32.339 9.341.127.064 1.397-.064h11.182c-.444-.318-1.27-.063-1.842-.127zM204.504 8.844l8.704.635c-.318 0-.318 0-8.704-.635m-.699.381 6.925 2.542.063-.064-6.861-2.542c-.064 0-.064 0-.127.064m31.322 11.247 14.104-1.207-.127-.064-14.041 1.207c0 .064 0 .064.064.064m-24.27-8.705c4.956 2.287 11.627 5.21 16.519 7.752-4.892-2.351-11.436-5.655-16.519-7.752M265.244 9.416l1.271.381c-.445-.127-.89-.254-1.271-.381q-.096 0 0 0m1.334.508c.254.064.635.19.89.255-.064 0-.064 0-.953-.255 0-.063.063-.063.063 0M202.79.14c4.384-.127 27.955-.254 61.755 9.086C240.085 3.252 220.77-1.45 184.048.647h.064m81.894 9.087c-23.507-6.291-39.454-4.448-53.495-2.86h.318c8.704-.89 20.394-1.715 29.162-1.27 7.306.38 16.963 2.478 24.079 4.13zm-62.072-1.271 5.909-1.08c.063 0 .127-.064.127-.064-1.843.318-4.257.826-6.099 1.144zm-22.364-6.99c6.1 1.589 14.168 4.321 19.95 6.736-5.782-2.478-13.787-5.21-19.886-6.8.063.064 0 .064-.064.064M271.153 12.338c-.762-.254-2.096-.762-2.223-1.016.444-.191 6.353 1.779 6.671 2.224h-.064c-.127 0-.572-.064-2.096-.509-.318-.127-1.081-.318-2.097-.699zM321.277 40.11c-1.143-.827-1.779-1.462-1.461-1.59.826-.254 4.956 2.479 4.574 2.923-.19.255-1.651-.38-3.113-1.334"/><path fill="#00344A" d="M287.729 30.702c-1.334-.763-1.906-1.525-1.27-1.78.508-.19 1.525.128 1.842.255 2.16.699 4.066 2.097 3.368 2.542-.318.19-1.017.127-1.97-.128-.254-.063-.889-.317-1.715-.699-.064-.063-.127-.127-.255-.19M330.998 48.179c-.636-.509-.953-.954-.699-.954.571-.127 2.859 1.589 2.605 1.907-.128.127-.763-.064-1.779-.826-.064-.127-.127-.127-.127-.127M201.77 9.16c-.953-.126-1.398-.444-1.017-.698.763-.509 3.876-.19 3.749.381-.064.318-1.144.508-2.605.318-.064.063-.127 0-.127 0M268.164 10.369c-3.05-1.017-3.24-1.08-3.304-1.08.064 0 .064 0 .318.063l8.894 2.796c.318.127.382.127.445.19-.127 0-.19-.063-1.08-.317a206 206 0 0 1-5.273-1.652m-.254 0c.254.064.635.19.953.318 3.875 1.27 5.908 1.906 6.417 2.033-.191-.063-.191-.063-10.928-3.495-.191-.063-.191-.063-.254-.063.063-.064.254.063 3.812 1.207"/><path fill="#00344A" d="M268.612 10.497c-2.033-.636-2.287-.763-2.35-.763.063 0 .063 0 .508.127l5.845 1.843c.508.19.572.19.635.19-.19 0-2.477-.762-4.447-1.397-.063.063-.127 0-.191 0M263.021 19.775c-1.525-.636-2.287-1.398-1.652-1.652 1.271-.572 6.29 1.207 6.099 2.16-.063.445-1.651.572-4.256-.381-.064-.064-.127-.064-.191-.127M176.678 1.792c-1.906 0-3.685-.127-3.368-.509.89-.826 10.611-1.27 10.928-.444-.254.508-3.875.89-7.243.953z"/><path fill="#00344A" d="m312.703 28.988.127.064c-.063 0-.063-.064-.127-.064m11.944 6.863s-.063-.064-.127-.064c.064.064.127.127.127.064 1.462.89 2.605 1.588 3.241 1.97l-.064-.064c-.953-.508-2.224-1.334-3.177-1.906m-7.878-4.575c.127.063.254.127.381.254-2.477-1.398-3.748-2.097-4.383-2.478 1.207.635 2.859 1.588 4.002 2.224" opacity=".502"/><path fill="#00344A" d="M312.829 29.05s.065 0 .065.065zq-.096 0 0 0"/><path fill="#00344A" d="m322.17 34.454.064.064c.826.508 1.461.89 2.224 1.334-.064-.063-.127-.063-.191-.127a20 20 0 0 0-2.097-1.27m-4.32-2.541.381.19c1.335.763 2.542 1.462 3.876 2.288-3.05-1.78-4.892-2.86-4.892-2.86.063.064.572.318.635.382" opacity=".502"/><path fill="#00344A" d="m339.641 59.361.128.065z"/><path fill="#00344A" d="M373.888 81.283c.318 1.97.762 4.639 1.016 6.609l.064.063c-.318-1.97-.635-4.638-1.017-6.672zm-37.294-25.607 8.64 3.685-.063-.063zm38.438 33.995c.19 2.605.444 6.1.571 8.705l.064.063c-.191-3.113-.445-7.307-.763-10.42l-.063-.064zM335.641 56.5l.953 1.398.063.063-.953-1.398s0-.063-.063-.063m1.016 1.462.826 1.334.064.063-.826-1.334z" opacity=".302"/><path fill="#00344A" d="m336.594 57.898.064.065.064.064-.064-.064z"/><path fill="#00344A" d="m336.781 56.818 2.859 2.542.127.064zq.096 0 0 0m2.986 2.606 2.415 2.224.127.063-2.415-2.224z" opacity=".302"/><path fill="#00344A" d="m339.641 59.361.128.065.064.064-.064-.064z"/><path fill="#00344A" d="m342.308 61.776 7.688 7.434-7.625-7.307zm7.751 7.498c7.624 8.26 17.408 19.634 24.46 28.403-7.052-8.832-16.772-20.206-24.46-28.403m-12.516-9.913c2.541 4.321 5.972 10.04 8.259 14.424l.064-.063c-2.414-4.321-5.591-10.103-8.196-14.36zm37.866 40.477c-3.494 8.26-4.511 10.865-8.704 22.43 5.146-13.852 5.654-15.123 8.767-22.367 0 .064 0-.063-.063-.063m-29.543-25.926c7.751 16.267 11.309 23.638 19.06 47.085-6.608-19.253-9.911-28.912-19.06-47.085M287.476 48.241c22.046 15.568 44.791 31.644 76.05 72.883-20.394-26.307-37.866-46.958-76.05-72.883m-1.779.763c.763 4.892 1.843 11.374 2.542 16.266a720 720 0 0 0-2.542-16.266m-.127 0c2.415 14.805 2.669 16.393 5.083 35.71-2.287-18.236-2.986-23.256-5.083-35.71m7.688 38.125c20.394 6.926 31.64 10.802 49.874 21.541-18.234-9.722-28.273-15.06-49.874-21.541M350.508 156.2c17.598 14.996 25.667 21.858 41.233 43.018-13.406-17.411-19.505-25.417-41.233-43.082zm-28.845-2.16c21.157 8.451 45.109 18.046 70.078 45.496-14.105-14.488-30.052-30.882-70.078-45.623zm-1.397-.445c.254.127.635.254.889.318v-.064a5 5 0 0 1-.889-.318zM321.343 152.895c7.433.127 17.408.509 24.841 1.271l-12.262-1.271-12.579-.127zm-18.425-30.055c4.257 8.07 9.911 18.872 14.104 27.005a2161 2161 0 0 0-13.977-27.005zm17.218 30.055q0 .096 0 0h.825c0-.063 0-.063-.063-.127h-.826zm-2.923-2.541.445.889h.063l-.444-.889c0-.064 0-.064-.064 0M359.973 133.449c-7.242 12.137-7.242 12.137-10.927 19.38 2.414-4.384 5.591-10.23 8.132-14.551 2.351-3.749 5.527-8.769 8.005-12.39zm-56.481-12.327c19.759-2.288 35.325-4.067 60.357 2.669-16.836-3.94-30.051-6.99-60.357-2.669m.191 1.207c22.745 14.361 23.634 14.933 42.313 30.183-20.521-16.648-20.902-16.966-42.25-30.246-.063 0-.063 0-.063.063" opacity=".302"/><path fill="#00344A" d="M293.26 87.193c23.444 8.006 41.996 14.36 70.141 35.265-6.035-4.257-14.041-9.976-20.267-13.788-18.171-9.722-28.209-15.06-49.874-21.541zm10.293 33.994c19.314-2.224 28.145-3.24 48.095-.19l12.261 2.859c-16.645-4.003-29.797-7.117-60.356-2.796-.064.064-.064.127 0 .127m-1.779-1.27c-6.354-20.334-6.862-21.986-10.102-31.58 6.48 19.761 6.48 19.761 10.102 31.58" opacity=".302"/><path fill="#00344A" d="M291.547 88.336c6.48 19.698 6.48 19.698 10.102 31.581-6.481-21.033-6.481-21.033-10.039-31.58zm-6.925 21.541v.063l16.01 10.421zM257.048 94.69h-.127c8.386 4.448 19.441 10.421 27.637 15.187v-.064M233.985 83.57c9.848-.19 23-.19 32.847.191-9.847-.254-22.999-.445-32.847-.19m-.063.763c6.861 3.05 16.074 6.99 22.808 10.294h.127c-6.861-3.177-15.946-7.435-22.935-10.358z" opacity=".302"/><path fill="#00344A" d="M282.589 47.86c-15.312 7.942-15.63 8.07-25.859 15.313 15.503-10.294 16.074-10.739 25.859-15.314m2.986 1.143c2.414 14.805 2.668 16.394 5.082 35.71a2047 2047 0 0 0-2.414-19.443c-.762-4.893-1.715-11.438-2.541-16.267 0 .064-.064 0-.127 0m-5.718 35.901.063.064 8.768 1.207v-.063c-2.669-.382-6.163-.89-8.831-1.208m-4.575-.508.127.127 4.448.508-.064-.063zm-.19 0-7.18-.572.254.127 7.053.572zm-41.107-.826c9.848-.19 23-.19 32.847.254l1.08.064-.254-.127c-10.102-.318-23.634-.509-33.736-.255.063 0 .063.064.063.064" opacity=".302"/><path fill="#00344A" d="M230.743 40.553c27.193 1.27 28.781 1.334 50.446 5.337-25.985-4.447-26.938-4.638-50.446-5.337q0-.096 0 0m-8.259-.064.127.064 3.621-.064s0-.063-.063-.063c-1.144 0-2.605.063-3.685.063m-18.742.826-.064.064 18.806-.826-.127-.064zm-.191 0-1.779.128.318.063 1.334-.127zm-2.859.318c.318 0 .826-.064 1.144-.064l-.318-.063zm56.036 21.54.064.064c15.502-10.293 16.074-10.738 25.858-15.313l-.063-.064c-15.312 7.943-15.566 8.07-25.859 15.314m-57.751-19.57.953.953.063-.063-.889-.89c-.064-.064-.064-.064-.127 0m53.431 22.875 4.32-3.177-.063-.064-.572.382-3.812 2.796c.064 0 .127.063.127.063m-52.415-21.922 9.911 10.484.064-.063-9.911-10.548zm9.975 10.612 3.113 3.621.064-.063-3.114-3.559zm39.009 13.852-6.925 5.655.127.063 6.862-5.655zm-35.832-10.167 8.322 10.294.127.063-8.449-10.42zm20.14 23.828 8.894-7.879-.127-.064-8.831 7.88s0 .063.064.063m-11.691-13.407 9.658 13.09h.063c-2.859-3.94-6.734-9.15-9.593-13.027zM357.238 65.78c5.4 4.702 12.707 10.929 17.853 15.948l-1.334-1.334-.064-.063c-4.638-4.194-10.737-9.913-15.565-13.853l-.191-.127zm-.127-.064c-5.146-3.749-11.881-8.896-17.154-12.454z" opacity=".302"/><path fill="#00344A" d="M374.969 81.6c-4.765-4.384-11.055-10.293-16.011-14.424 4.448 3.94 10.483 9.023 14.74 13.154l.063.063zM354.892 58.79c-4.574-2.288-10.864-4.893-15.693-6.418z" opacity=".302"/><path fill="#00344A" d="m375.282 81.92-.127-.128 1.08 1.08zm-18.044-16.14.508.444.191.127 1.017.826c4.828 4.321 11.436 9.913 16.01 14.424l.127.127c-5.273-4.829-12.325-11.373-17.853-15.948m-.127-.064c-5.146-3.749-11.881-8.96-17.154-12.454v.063M342.181 61.648l7.306 4.067-7.242-4.004zm3.621 12.136-3.812 5.02.064.064c1.143-1.462 2.668-3.495 3.812-4.956l.063-.064 4.194-4.575 1.397-1.27-.063-.064c-.445.38-.953.89-1.398 1.207zM301.52 48.75c21.347 14.424 23.062 15.568 39.073 29.61-19.505-16.647-21.093-17.982-39.073-29.61M345.235 59.425l4.829 5.465.064.064-4.829-5.465zl-5.59-5.91-.064-.063 5.591 5.91zm-27.382-8.133c6.162 1.78 13.913 5.337 19.695 8.07l.063.063 4.702 2.351.127.064 7.179 4.003-10.737-5.846-1.271-.635-.063-.064c-20.14-8.578-21.347-9.086-36.087-12.708 0 0 0 .063.063.063" opacity=".302"/><path fill="#00344A" d="m339.574 53.453.064.064z"/><path fill="#00344A" d="M312.387 28.924c4.892 3.368 11.245 8.133 15.756 12.073-4.511-3.876-10.801-8.769-15.756-12.073M329.35 42.14c2.414 2.732 5.845 6.227 8.132 9.086-2.477-2.732-5.591-6.481-8.132-9.086" opacity=".302"/><path fill="#00344A" d="m329.289 42.076.064.064zM328.141 40.996l.192.129z"/><path fill="#00344A" d="M312.516 28.988c4.828 3.368 11.182 8.07 15.629 11.946-4.575-3.812-10.737-8.705-15.629-11.946m16.9 13.154c2.477 2.732 5.845 6.227 8.132 9.086-2.414-2.732-5.528-6.481-8.132-9.086" opacity=".302"/><path fill="#00344A" d="m328.078 40.934.193.128z"/><path fill="#00344A" d="m360.991 63.045 1.779 1.462c-.127-.127-1.715-1.462-1.779-1.462m-21.728-10.611c2.351 1.334 6.035 1.97 8.64 2.796 4.321 1.398 9.34 5.083 13.025 7.688l-6.036-4.194c-4.574-2.287-10.864-4.892-15.693-6.417 0 .127 0 .127.064.127M321.979 34.326l2.351 1.398c.064.064.127.064.191.127-.763-.508-1.779-1.08-2.542-1.525m-4.638-2.732c1.398.762 3.177 1.843 4.575 2.605l-4.702-2.732c0 .064.064.127.127.127m-3.939-2.16 3.812 2.096c-.19-.127-.19-.127-3.812-2.096" opacity=".302"/><path fill="#00344A" d="m321.914 34.262.064.064h.064z"/><path fill="#00344A" d="M324.52 35.852c7.496 4.956 17.408 11.628 24.587 17.029l.064.063c-7.243-5.274-16.964-12.2-24.461-17.029-.063 0-.127-.063-.19-.063" opacity=".302"/><path fill="#00344A" d="M324.516 35.85c.064.063.128.063.191.126-.063 0-.127-.063-.191-.127m-7.306-4.322c.064.064.127.064.191.128l-.381-.191c.063 0 .127 0 .19.063" opacity=".651"/><path fill="#00344A" d="m307.938 29.243.127.064c.89-.381 2.16-1.017 3.177-1.017-.064 0-.064-.063-.127-.063-.635.063-1.525.19-2.16.38-.318.128-.699.446-1.017.636m-.635.509.127.063.635-.445-.127-.063zm0 0c-1.017 1.016-2.478 2.414-3.431 3.558l.127.063c1.017-1.08 2.287-2.605 3.367-3.558zm-3.431 3.558-1.207 1.588.127.064 1.207-1.525zm-1.207 1.588c-1.652 2.479-3.812 5.783-5.337 8.388h.064c1.588-2.542 3.685-5.91 5.4-8.324zm11.055 11.247c4.32.255 10.038 1.652 14.231 2.733L337.1 51.8c-16.392-5.02-18.107-5.592-36.786-6.482l.064.064" opacity=".302"/><path fill="#00344A" d="m307.305 29.75.128.064zM307.305 29.75l.128.064h-.064zM307.938 29.307v-.065l.128.064-.064.065z"/><path fill="#00344A" d="M312.387 28.924c4.892 3.368 11.245 8.133 15.756 12.073l-.064-.064c-4.51-3.812-10.673-8.641-15.629-11.946zm15.947 12.2.953.953h.063l-1.08-1.08zm1.016 1.017c2.414 2.732 5.845 6.227 8.132 9.086h.064c-2.478-2.732-5.591-6.481-8.196-9.086" opacity=".302"/><path fill="#00344A" d="m329.289 42.076.064.065h.064-.064zM328.142 40.997l-.064-.063.191.127.063.064z"/><path fill="#00344A" d="m200.117 43.095 1.017.381.063-.063-1.016-.382zm1.144.381c5.591 2.288 13.088 5.21 18.552 7.752l.127-.063c-5.591-2.351-12.961-5.592-18.679-7.689m18.615 7.816 2.732 1.27.064-.063-2.669-1.27zm2.796 1.27c7.687 3.94 17.916 9.278 25.349 13.662-7.497-4.257-17.598-9.849-25.286-13.662zm57.18 32.407 3.367 3.495-3.24-3.431-.064-.064c-6.798-6.608-15.947-15.314-23.062-21.668l-.064-.063c-4.193-3.368-9.721-8.007-14.041-11.184 4.193 3.368 9.848 7.752 13.978 11.247l.063.064c7.052 6.354 16.265 14.932 22.999 21.604zm-4.638-.508 6.48 4.956-6.353-4.893-.127-.127c-6.608-4.639-15.375-10.802-22.11-15.123 6.608 4.448 15.502 10.421 21.983 15.123zm12.961 9.34 1.461 1.589h.063c-.444-.508-1.016-1.144-1.524-1.589q.094 0 0 0m-.509.318 1.716 1.398.063-.064a33 33 0 0 0-1.715-1.398zM199.356 27.08l.127.064.762-3.813h-.127a66 66 0 0 1-.762 3.75m2.223-3.876c4.257 2.478 10.039 5.655 14.232 8.324l.063-.063c-4.256-2.479-9.847-5.973-14.231-8.324 0 .063 0 .063-.064.063m14.359 8.388 10.928 7.688h.063c-3.304-2.287-7.687-5.4-10.928-7.688zm13.914 9.976 8.45 6.926h.063c-2.541-2.097-5.845-4.83-8.386-6.926zm3.303 6.862 4.067 1.017v-.064c-1.208-.317-2.796-.699-3.939-1.016-.064.063-.128.063-.128.063m-33.799-21.223c-.763 3.876-1.779 9.023-2.415 12.9h.064c.699-3.877 1.652-9.024 2.478-12.836zm3.049 15.25-.063.064c7.179 1.207 16.709 2.732 23.825 4.257l3.431.763c-8.196-1.589-18.997-3.813-27.193-5.084m-1.715-.127c.445.064 1.016.127 1.461.19l.064-.063zc.063-.063 0-.063 0 0M210.793 11.704l.127.064 2.605-2.16h-.127c-.763.571-1.843 1.46-2.605 2.096m0 .064-4.574 4.32h.127l4.574-4.32zm14.74 13.344-.064.063c22.809 4.194 37.866 6.99 64.868 17.856-49.556-18.682-64.677-17.983-64.804-17.92m-19.378-9.023-5.21 5.655h.064c1.588-1.716 3.685-3.94 5.21-5.655zm-3.812 6.545c6.925.698 16.138 1.461 23.063 2.478l.063-.064c-6.988-.762-16.201-1.97-23.126-2.414" opacity=".302"/><path fill="#00344A" d="M210.793 11.77v-.065l.128.064h-.128"/><path fill="#00344A" d="m220.008 9.543 4.765 1.27.254.064zq.094 0 0 0m5.019 1.334 16.265 5.274h.063l-16.074-5.21zm16.328 5.338 7.688 2.986h.127zm7.815 3.05 10.101 4.448h.128L249.233 19.2zm10.292 4.575c9.721 5.083 22.427 12.39 31.767 18.237-9.276-5.846-21.919-13.09-31.64-18.174z" opacity=".302"/><path fill="#00344A" d="M241.289 16.152h.064l.064.065h-.064zM259.267 23.778l.127.064h.127l-.127-.064zM249.103 19.202l.127.063h.127l-.127-.063z"/><path fill="#00344A" d="M231.313 84.715c-1.271-.636-1.271-1.907-.064-2.351 1.334-.445 3.304.699 2.669 1.906-.255.508-1.144 1.017-2.478.445zM301.396 122.268c-1.08-.889-1.08-2.287 0-2.414h.381c1.589.317 2.542 2.096 1.652 2.732-.127.063-.762.508-1.906-.254-.063 0-.127 0-.127-.064M283.034 48.115c-1.97-1.144-2.542-2.669-1.017-3.05 2.224-.508 6.099 1.907 5.464 3.368-.063.19-.445.699-1.842.572-.953-.127-1.652-.382-2.605-.89M317.784 153.975c-1.207-1.144-1.143-2.732.064-2.796 1.525-.063 3.113 2.16 2.224 3.177-.255.318-1.017.572-2.161-.254-.063 0-.127-.064-.127-.127" opacity=".302"/><path fill="#00344A" d="M317.339 154.547c-1.842-1.716-1.779-4.194.127-4.258 1.652-.063 3.622 1.843 3.749 3.559.063 2.16-2.224 2.224-3.876.699m-.254.317.254.254c2.16 1.716 4.511 1.144 4.257-1.08-.318-2.986-4.32-5.401-5.782-3.495-.762 1.017-.19 2.923 1.271 4.321M289.829 87.575c-1.525-1.144-1.588-2.732-.127-2.923 1.906-.254 4.257 2.034 3.367 3.241-.381.508-1.461.826-3.049-.19-.064 0-.191-.064-.191-.128M333.796 55.039c-.889-.763-1.271-1.398-.826-1.462.254-.063 1.017.127 2.287 1.144 1.144.953 1.335 1.525.953 1.588-.381.128-1.524-.508-2.414-1.27m-.254.063c.127.127.318.254.445.381 1.906 1.462 3.24 1.716 3.113 1.017-.254-1.27-4.447-4.067-4.829-3.24-.254.254.318 1.016 1.271 1.842M249.423 69.274c-2.033-1.016-2.351-2.922-.508-3.494 2.351-.7 5.464 1.461 4.574 3.113-.444.636-1.842 1.335-4.066.381" opacity=".302"/><path fill="#00344A" d="M333.794 55.04c-.89-.762-1.271-1.397-.826-1.46.889-.128 3.748 2.096 3.43 2.668-.127.254-1.08 0-2.477-1.08zM194.91 40.553c-.063 0-.063.064-.127.064 1.716.19 4.003.508 5.718.699-.953-1.271-3.875-1.652-5.591-.763m.826 2.923c.191.064.445.127.636.127 3.049.508 5.082-.953 4.193-2.287-1.779-.19-4.13-.509-5.845-.7-1.588 1.017-.699 2.352 1.016 2.86M227.315 41.377c-1.398-.572-1.652-1.589-.572-2.034 1.652-.699 4.511.509 3.939 1.652-.317.636-1.588.953-3.176.445-.064 0-.127-.063-.191-.063M289.958 97.295c-.953-.763-1.016-1.843-.063-1.97 1.207-.19 2.795 1.334 2.096 2.16-.317.382-1.08.445-1.906-.127-.063 0-.127 0-.127-.063M199.488 23.204c-1.08-.254-1.397-.826-.699-1.207 1.144-.636 3.749-.127 3.558.699-.127.508-1.461.762-2.668.572-.064-.064-.127-.064-.191-.064M295.044 42.332l.953 2.35.127.064c.19.064.508.19.953.509.571-.255 1.397-.636 1.969-.89-1.27-.953-2.605-1.589-4.002-2.033m2.668 3.367c.699.89 2.541.572 3.685.763-.508-.763-1.207-1.398-2.224-2.16-.572.254-1.397.635-1.969.89.063.126.317.317.508.507m-7.179-3.113 4.129 2.097c.255-.318.953-.127 1.208-.064a37 37 0 0 0-.953-2.35c-3.685-1.081-4.384.253-4.384.317m2.986 4.32c.127.128.381.255.508.319 4.257 2.478 8.514 2.605 7.815.127-.064-.191-.191-.445-.382-.826-1.08-.191-2.541-.509-3.621-.7.445.763-.318.89-1.144.7-.825-.255-2.287-1.08-2.033-1.843-1.27-.636-2.922-1.462-4.129-2.097-.636 1.207 1.016 3.05 2.986 4.32" opacity=".302"/><path fill="#00344A" d="m297.77 45.826 3.622.699s0-.064-.064-.064c-1.08-.19-2.478-.445-3.558-.635M297.138 45.19a28 28 0 0 0 2.033-.89l-.064-.063c-.572.255-1.397.636-1.969.89-.064.063-.064.063 0 .063M294.912 42.268l.953 2.35h.064a37 37 0 0 0-.953-2.35c0 .063-.064 0-.064 0m-4.447.317 4.13 2.097v-.063c-1.208-.572-2.859-1.398-4.13-2.034"/><path fill="#00344A" d="M295.486 45.953c-.953-.635-1.207-1.334-.445-1.461.318-.064.699.064.826.127 1.398.381 2.541 1.589 1.906 1.97-.318.19-1.207.063-2.16-.508-.064-.064-.127-.064-.127-.128"/><path fill="#00344A" d="M238.877 51.671c-.445-.19-1.906-1.017-1.715-2.224.508-1.779 4.955-1.334 6.162.636.89 1.461-.889 2.541-3.303 2.033a6 6 0 0 1-.89-.318c-.127 0-.19-.063-.254-.127M336.595 50.972l2.986 2.478h.063c.382.128.382-.127.255-.317-.445-.763-2.923-2.478-3.304-2.16m1.016 1.271c.064 0 .064.064.127.064.636.508 1.335.953 1.779 1.143-.889-.762-2.033-1.715-2.922-2.478-.064.255.508.763.508.826.127.064.254.255.508.445" opacity=".302"/><path fill="#00344A" d="M336.594 51.036q0-.096 0 0c.889.699 2.096 1.716 2.986 2.478h-.064z"/><path fill="#00344A" d="M210.033 7.256c.698-.127 1.715-.254 2.414-.381-1.017.064-1.843.19-2.414.381m2.414 2.097c1.398.318 3.304.381 4.701.508 3.749-.063 3.876-.89 3.431-1.334-.191-.19-1.271-1.08-5.337-1.525-1.842-.19-1.842-.19-5.337.381-1.08.572.064 1.271 1.398 1.716.254.064.763.19 1.144.254m4.32.508-3.558-.38c1.207.253 2.351.38 3.558.38" opacity=".302"/><path fill="#00344A" d="M213.145 9.544c-.064 0-.191-.064-.254-.064 1.27.128 2.986.318 4.256.445-.317 0-.317 0-3.939-.381zM209.907 7.32c.127-.064.127-.064 2.605-.445h.318c-.89.127-2.097.318-2.923.445q-.096 0 0 0"/><path fill="#00344A" d="M310.669 28.035a47 47 0 0 0-1.271-.7c.255.064 3.685 1.907 4.003 2.098-.191 0-2.478-1.271-2.541-1.271-.064-.064-.127-.127-.191-.127" opacity=".302"/><path fill="#00344A" d="M183.158 165.477c-.444 7.688-1.016 17.855-1.334 25.543.381-7.625.89-17.855 1.334-25.543m1.335 27.132c23.316-10.612 25.222-11.501 40.153-17.22-23.825 9.404-23.825 9.404-40.217 17.093 0 .063.064.127.064.127"/><path fill="#00344A" d="M183.16 165.477c-.444 7.688-1.016 17.855-1.334 25.543l.445-7.561 1.016-17.982c0 .063-.063 0-.127 0m-42.504 18.236c11.5 2.732 26.748 6.481 38.184 9.404-11.436-2.986-26.684-6.799-38.184-9.531zM249.298 143.555l-.127.127h.19l.064-.064c-.064-.063-.127-.063-.127-.063m-61.437-3.177c26.493-.954 28.653-1.017 48.285-.255-26.43-.699-27.446-.699-48.285.255m-.572 1.397c5.655 4.575 13.279 10.739 18.87 15.441-5.655-4.638-13.152-10.866-18.87-15.441m40.217 31.39c13.596-19.126 14.168-19.888 21.728-29.42h-.19c-13.851 18.11-14.105 18.427-21.602 29.357 0 .063.064.063.064.063"/><path fill="#00344A" d="M206.158 157.215c5.591 4.829 13.151 11.247 18.679 16.14l-2.542-2.415c-17.98-15.504-21.22-18.3-34.943-29.229 5.654 4.639 13.215 10.739 18.806 15.504m-19.06 5.91c11.245 3.113 26.176 7.498 37.357 10.992-11.118-3.494-26.048-7.942-37.294-11.056-.063 0-.063 0-.063.064M118.229 139.612c8.831 20.715 8.831 20.715 17.726 40.413-8.26-18.236-8.26-18.236-17.726-40.413m-65.63 52.613c17.599-16.775 34.18-32.66 61.246-53.756-19.25 15.44-34.435 27.577-61.246 53.756m.19 1.271c25.35-4.321 48.921-8.07 81.133-10.23-22.301 1.588-39.963 2.923-81.07 10.167-.063 0-.063 0-.063.063"/><path fill="#00344A" d="M118.227 139.614c8.894 20.779 8.894 20.779 17.725 40.413-8.386-18.745-8.386-18.745-17.662-40.413zm22.173 41.811c23.825-11.183 25.794-12.136 39.645-17.855-10.166 4.321-23.571 10.23-33.546 14.805l-6.163 2.987c.064 0 .064.063.064.063M183.6 140.249c-6.29-.635-14.676-1.589-20.966-2.16 6.29.699 14.676 1.397 20.966 2.16m1.842 2.033-1.715 16.521h.064c.508-4.956 1.207-11.564 1.779-16.521zm-64.422-4.702c20.076 7.053 33.355 11.692 59.022 23.066-22.491-9.849-25.35-11.12-46.633-18.936l-12.326-4.257c0 .064-.063.127-.063.127M214.291 96.978l8.26 9.213.063-.063-8.259-9.214c0 .064 0 .064-.064.064m8.387 9.34c3.812 4.448 8.895 10.358 12.643 14.933l-.063-.191c-3.749-4.448-8.641-10.421-12.517-14.742zm12.77 15.06c4.066 5.083 9.53 11.882 13.596 17.029-4.066-5.21-9.466-12.137-13.596-17.283zm3.812 18.872v.127l8.387.635v-.127c-2.542-.191-5.909-.445-8.387-.635m-3.113-.191.064.127 2.859.191v-.127zm-49.62-1.271c11.055-20.015 12.516-22.621 21.284-36.663-11.245 18.427-12.643 20.778-21.284 36.663m.127.064c11.055-20.016 12.453-22.621 21.221-36.6-11.436 18.744-12.644 20.714-21.221 36.6m1.208 1.525c26.557-.953 28.717-1.017 48.285-.191l-.064-.127c-8.767-.254-20.457-.508-29.161-.508l-18.997.699c-.063.063-.063.127-.063.127"/><path fill="#00344A" d="m205.078 97.231.064.064 4.638-1.462-.064-.064c-1.334.445-3.24 1.017-4.638 1.462m2.796 4.766.063.127 3.304-5.147s-.063 0-.063-.064a363 363 0 0 1-3.304 5.084m-21.22 36.854c10.864-19.698 12.516-22.684 21.22-36.6l-.064-.127c-11.245 18.427-12.643 20.778-21.283 36.663.063.064.063.064.127.064m-65.821-4.893c23.635-12.708 42.313-22.684 84.182-36.6l-.064-.064c-39.517 13.535-56.417 21.351-84.181 36.601.063 0 .063.063.063.063m.699 2.224c25.35.572 25.35.572 41.106 1.906 6.29.636 14.676 1.398 20.966 2.161-18.933-2.097-36.849-4.067-62.072-4.13zM67.017 132.181c5.845.254 13.66.508 19.505.826zM51.07 191.402c1.271-21.795 1.525-26.307 3.558-49.436-1.588 18.872-2.16 25.226-3.558 49.436m1.462.826c17.662-16.839 34.371-32.724 61.246-53.757-21.22 16.839-29.162 23.13-57.943 50.389l-3.367 3.241c.064.063.064.127.064.127M163.273 62.92l.063.063 4.765-6.037h-.127c-1.397 1.78-3.303 4.194-4.701 5.973m-31.449-.509c7.814-1.716 18.234-4.003 26.112-5.401-7.878 1.525-18.361 3.558-26.112 5.401m-.064.063c7.815-1.715 18.298-4.003 26.176-5.4-7.878 1.525-18.361 3.558-26.176 5.4m-20.585 5.592c6.862-1.461 14.295-4.13 20.458-5.655-6.099 1.652-14.358 3.813-20.458 5.655m.064.064c6.099-1.716 14.231-4.13 20.458-5.655-6.163 1.715-14.422 3.812-20.458 5.655m36.786 16.076c4.511-6.418 10.546-14.869 15.248-21.096l-.064-.064c-4.638 6.291-10.8 14.742-15.248 21.16-.063-.064 0 0 .064 0m-2.923 4.066-8.831 13.789h.127l8.831-13.789c0 .064-.063.064-.127 0 .064.064.064 0 0 0m-8.831 13.916c-5.4 9.087-12.516 21.287-17.662 30.5a1469 1469 0 0 1 17.789-30.5z"/><path fill="#00344A" d="m39.445 113.564.064.635s.063 0 .063-.064c0-.19-.063-.444-.063-.635 0 .064-.064.064-.064.064m.127.953.127.889.128-.063-.128-.89c-.063.064-.127.064-.127.064m.127 1.016 1.08 7.88.128-.064-1.08-7.879zm15.185 23.765.508-4.702h-.127c-.127 1.398-.318 3.304-.381 4.702q-.096 0 0 0m-14.105-15.822c.7 5.274 1.652 12.327 2.351 17.601h.127c-.698-5.274-1.651-12.327-2.35-17.601zm10.674 58.903-.508 9.023c1.398-22.938 1.906-29.674 3.621-49.435-1.779 20.079-2.16 24.273-3.113 40.412m-8.26-41.238c2.733 19.888 4.448 31.961 7.37 50.389-4.256-28.658-5.082-34.313-7.242-50.389zM46.051 106.447v.063c5.718-4.702 13.279-11.056 19.124-15.631-5.782 4.638-13.533 10.802-19.124 15.568m15.566 1.08c1.334-4.956 3.113-11.565 4.51-16.457zm4.447-16.521c-1.397 4.956-3.24 11.565-4.51 16.521 1.334-4.956 3.113-11.565 4.51-16.521m-24.206 19.126 4.13-3.558v-.064zm-1.143 1.017c.254-.191.508-.445.762-.636l-.064-.063c-.19.19-.508.445-.698.699q0-.096 0 0m-.7 2.033.382.445.063-.064c-.127-.127-.254-.317-.38-.444 0 .063 0 .063-.064.063m.636.699.826.89.127-.064-.826-.889c-.063 0-.127 0-.127.063m.826.953 4.765 5.592.127-.064-4.765-5.591zm5.654 6.609 3.495 4.384-.064-.254-4.193-5.211-.127.064zm8.959 8.324c1.207-4.893 2.731-11.438 3.939-16.331a1024 1024 0 0 0-3.94 16.331m-5.337-3.749 3.494 4.511.064-.063c-1.08-1.398-2.542-3.305-3.622-4.703z"/><path fill="#00344A" d="M67.272 90.496c3.494 2.669 8.195 6.1 11.563 8.896-3.431-2.732-8.005-6.354-11.563-8.896m-1.207.508c-1.398 4.957-3.24 11.565-4.511 16.521l.127-.063c1.334-4.956 3.113-11.565 4.51-16.458zM61.49 107.59l-1.461 5.655.127-.063 1.461-5.656zm-1.461 5.782a1530 1530 0 0 0-3.94 16.33l1.653-6.735 2.35-9.658zm6.989 18.809-.127.063c23.062.89 23.952.953 46.506 3.495-8.005-.89-18.742-2.097-26.811-2.732m-27.574-.89-.063.064 7.75.063.128-.063zm-.89.064h.763l.064-.064h-.762z"/><path fill="#00344A" d="M110.54 98.82h.127c-.953-5.782-2.287-13.534-3.24-19.38l-1.08-6.227 1.588 9.722c.762 4.829 1.842 11.12 2.605 15.885m-43.267-8.324c3.495 2.67 8.196 6.1 11.564 8.896l.063-.063c-3.43-2.67-8.005-6.354-11.563-8.896zm11.627 8.96 2.478 2.097.127-.064-2.541-2.16zm31.64-.509 1.143 6.799.127-.063-1.08-6.736zm-28.336 3.305.572.508.127-.064-1.271-1.08-.127.064zm.635.508c3.876 3.495 9.022 8.197 12.77 11.755l.127-.063c-3.812-3.559-8.894-8.324-12.77-11.756zm28.844 3.113c1.335 8.134 3.113 19 4.511 27.133-1.334-8.133-3.049-18.999-4.384-27.196zm-16.01 8.769c5.718 5.719 13.278 13.408 18.869 19.253-5.591-5.845-13.024-13.598-18.806-19.316zM87.224 48.622l2.033-3.368h-.127c-.572.953-1.397 2.288-1.906 3.368-.063 0-.063-.063 0 0M85 52.307v.127l.826-1.397c-.063 0-.127 0-.127.063-.254.318-.635.763-.698 1.207m5.21-7.434c2.351 3.114 5.4 7.244 7.497 10.485-2.16-3.178-5.082-7.498-7.497-10.485m-5.336 7.562c-1.97 3.685-4.702 8.578-6.608 12.263l.127-.063c1.97-3.622 4.51-8.515 6.544-12.073zm19.25 14.424c-1.906-3.432-4.384-8.07-6.417-11.438 1.97 3.431 4.638 7.943 6.417 11.438m-6.48-11.374c1.97 3.43 4.574 7.942 6.417 11.437-1.906-3.495-4.384-8.07-6.417-11.437M89.32 77.534v.063l10.991-5.274v-.063c-3.304 1.588-7.687 3.685-10.991 5.274M67.91 86.429l.064.064c3.05-6.545 7.115-15.25 10.355-21.668l-.127.064c-3.113 6.354-7.306 14.996-10.292 21.54m2.605 1.08h.063c5.591-2.986 13.025-7.052 18.68-9.912v-.063l-7.625 3.94zm-2.605-1.016-.953 2.097h.064c.254-.636.635-1.462.889-2.097m.064 2.478 2.477-1.398h-.063z"/><path fill="#00344A" d="M91.098 44.237c19.187-.508 19.949-.508 32.084.762-19.95-1.398-20.712-1.461-32.085-.762m66.9 12.772 6.925-1.017-.063-.063c-2.033.317-4.765.762-6.862 1.08m-63.47-6.29 3.113 4.701.127-.063c-2.16-3.177-5.082-7.498-7.496-10.485 0 0-.064.064-.128.064 1.271 1.715 3.114 4.003 4.384 5.782m37.295 11.69v.065c7.814-1.716 18.297-4.004 26.175-5.402l-.063-.063c-7.878 1.525-18.361 3.558-26.112 5.4m-34.182-6.925c1.97 3.431 4.575 7.943 6.417 11.437h.064c-1.906-3.43-4.32-8.07-6.353-11.437zm13.597 12.645c6.099-1.716 14.295-4.067 20.457-5.656v-.063c-6.162 1.652-14.422 3.813-20.457 5.719-.064 0-.064-.064 0 0"/><path fill="#00344A" d="m127.82 24.095 14.549-5.973zm18.806-6.227c1.969 2.351 4.701 5.528 6.544 8.007l.063-.064c-1.906-2.415-4.383-5.719-6.48-8.006-.064.063-.064.063-.127.063m-31.004 12.01h.063l12.071-5.72-.063-.063zm37.548-3.876c2.414 3.749 5.591 8.832 7.815 12.708h.127c-2.288-3.876-5.337-9.023-7.879-12.772zM91.161 43.476c7.243-4.194 17.027-9.659 24.461-13.535h-.064c-7.37 3.94-17.217 9.277-24.397 13.535m-.063.762c19.187-.508 19.949-.508 32.084.763l.127-.064c-5.781-.445-13.405-1.08-19.187-1.207zm32.211.826 8.069 1.08.063-.063-8.005-1.08zm8.132 1.08 5.464.89v-.064l-5.4-.89zm29.544-7.434c2.16 4.194 5.019 9.785 7.052 14.043h.063c-2.096-4.257-4.765-9.913-6.988-14.043zm-23.953 8.387 14.422 3.114-.127-.127-14.295-3.05zm14.613 3.178 13.406 3.749.063-.064c-4.066-1.144-9.466-2.669-13.532-3.812zM232.839 101.553c12.707 8.578 28.463 19.189 46.951 34.63-12.389-9.976-27.827-22.367-46.951-34.63m17.218 11.755c20.712 15.441 20.712 15.441 31.068 24.082-20.013-16.203-20.395-16.521-31.068-24.082m4.447 29.547c7.878-1.017 18.425-2.288 26.303-2.923-7.878.699-18.425 1.716-26.303 2.796zm-12.325 2.224 6.925-1.271h.19l.318-.063c-.127-.064-.127-.064-.254-.064h-.191l-7.052 1.334s.064 0 .064.064M239.132 140.376l.635 3.241-.572-3.241v-.127c-1.143-5.655-2.668-13.217-3.812-18.872l-.063-.191-2.351-11.374-1.588-7.688c1.143 5.655 2.605 13.216 3.748 18.872l.064.19c1.143 5.719 2.668 13.344 3.875 19.063zm-2.986-.191 2.795 3.686-2.732-3.622-.063-.127c-5.972-7.498-13.914-17.474-20.013-24.845a3424 3424 0 0 1 19.886 24.781zM183.535 64.508l.635.826h.128c-.191-.254-.445-.572-.636-.826-.063-.063-.063-.063-.127 0m.953 1.271.635.826.128-.063-.572-.826c-.127.063-.127.063-.191.063m.699.953 6.036 8.642.063-.063-6.035-8.579zm10.737 4.893c19.124 14.488 19.886 15.06 33.673 27.45-17.599-15.377-19.886-17.41-33.673-27.45m20.585 39.142 6.163-4.448.063-.064 3.177-2.224 3.685-2.541s-.064 0-.064-.064c-2.096 1.398-4.828 3.304-6.925 4.702l-.063.064-6.163 4.448zm-8.641-8.515 4.321 7.625-4.257-7.688-.064-.127-2.731-4.703-.064-.063c-4.066-6.608-9.53-15.44-13.787-21.922l-.063.064c4.193 6.544 9.72 15.25 13.723 21.858l.063.063 2.796 4.766z"/><path fill="#00344A" d="M232.903 99.902c25.287-5.846 26.24-6.1 47.65-8.324-7.115.826-16.582 1.843-23.634 2.987h-.127c-7.243 1.588-16.773 3.558-23.889 5.337m51.59 10.04c-.191 8.07-.445 18.808-.572 26.878.19-8.006.444-18.745.699-26.815v-.063c.127-4.766.317-11.056.508-15.822-.191 4.702-.508 10.993-.635 15.758zm-34.436 3.367c20.712 15.441 20.712 15.441 31.068 24.083l-1.334-1.207c-12.389-9.976-27.828-22.367-46.951-34.631 5.146 3.495 12.135 8.07 17.217 11.755"/><path fill="#00344A" d="m203.868 65.525-.064.064 17.79 3.685.127.064c6.099 1.652 14.231 3.622 20.267 5.464l.127.064c7.688 2.605 17.98 6.036 25.54 8.96l.255.126 13.659 5.846-13.405-5.846-.254-.127c-7.688-2.796-17.917-6.544-25.731-9.023l-.128-.063c-6.099-1.652-14.231-4.003-20.457-5.528l-.127-.064zm-12.389-2.033-.127.064 12.262 1.97.063-.064zm-3.622-.381 3.368.445.127-.064-3.431-.445c-.064 0-.064 0-.064.064m-2.223-.318c.444.063.953.127 1.397.19v-.063a9.5 9.5 0 0 0-1.397-.127m-1.017 1.27 1.017.636s.063 0 .063-.063c-.317-.19-.699-.445-1.016-.636 0 0-.064 0-.064.064m1.589 1.017.889.572.064-.063-.89-.572s-.063 0-.063.064m.953.636 8.64 5.91.064-.064-8.577-5.91zm45.744 34.249 7.624-1.906 16.328-3.368h.127c7.433-1.017 17.408-2.415 24.905-3.114h-1.398c-24.015 2.733-24.968 2.86-47.65 8.325zm-30.56-23.51c8.323 6.608 19.187 15.694 27.192 22.684-18.424-16.203-19.504-17.22-33.609-27.514l-.063.064zM187.415 13.738c5.654.7 13.151 1.462 18.742 2.351h.127c5.973 1.208 13.978 2.606 19.886 4.067-5.972-1.207-13.85-3.113-19.886-4.13h-.127c-5.591-.636-13.088-1.78-18.742-2.288m-2.478 7.053.127.064.508-6.608h-.063c-.191 1.97-.381 4.575-.572 6.544m27.447 13.344.063.064 3.431-2.605.063-.064 9.531-6.418.063-.063 3.304-1.97h-.064c-1.016.572-2.35 1.398-3.367 1.97l-.064.063-9.466 6.355-.064.063zm-8.895 7.308-.318.254h.127l.318-.254.064-.064 8.704-7.117-.064-.063-8.768 7.18zm-18.552-20.588c-.445 5.592-1.016 13.026-1.461 18.681h.127c.445-5.591 1.016-13.026 1.461-18.617zm.127 38.316c4.448-4.448 10.356-10.358 14.994-14.551l.064-.064 1.143-1.017.064-.063 1.016-.89.064-.063.826-.763h-.127l-.826.763-.064.063-.953.89-.063.063-1.144 1.017-.063.064c-4.511 4.32-10.611 10.103-14.994 14.614 0-.063 0-.063.063-.063M183.476 39.6a960 960 0 0 0-1.271 19.063h.064c.381-5.72.889-13.344 1.334-19.063zm.445 20.778.762-.762c-.064 0-.064 0-.127-.064-.191.254-.508.508-.699.763 0 0 0 .063.064.063m-1.779-1.207-.064.89h.127c0-.255.064-.636.064-.89zM88.873 44.048q-.094 0 0 0c.699-.127 1.715-.318 2.478-.509-.445-.317-1.652 0-2.478.509m.064 1.207h.127c.762-.127 1.652-.572 2.096-1.017.255-.254.255-.444.19-.572-.761.128-1.841.382-2.604.509-.89.635-.762 1.08-.254 1.144.127-.064.254-.064.445-.064M65.115 89.67l2.414.508.127-.127c.763-1.08.064-1.525-.762-1.461-.127.063-1.08.254-1.78 1.08m.635 1.398h.127c.572-.064 1.208-.318 1.652-.763-.699-.127-1.715-.38-2.414-.508-.572.89.064 1.271.635 1.271M166.511 56.755c-.699-.19-1.207-.445-1.588-.89-1.334-1.842 1.588-3.494 4.384-3.05 2.35.382 3.113 2.097 1.461 3.305-.763.508-2.224 1.08-4.003.762-.063-.063-.19-.063-.254-.127M135.889 185.874c-2.732-1.08-2.732-4.638.063-5.782 0 0 .064 0 .064-.064 2.795-1.143 5.654 1.335 4.511 4.004-.382.953-1.843 2.605-4.384 1.969a.5.5 0 0 0-.254-.127M116.445 137.834c-1.462-.508-1.462-2.287 0-3.05.762-.381 1.397-.254 1.652-.254 1.778.508 1.651 2.351.19 3.113-.572.318-1.271.382-1.842.191m-.89 1.779c.191.064.381.127.572.127 2.478.318 4.193-1.016 4.956-2.287 1.588-2.923-1.271-5.655-4.765-4.575-3.368 1.08-4.194 5.083-1.335 6.481.127.127.382.191.572.254"/><path fill="#00344A" d="M116.448 137.836c-1.462-.508-1.462-2.287 0-3.05 1.524-.826 3.24.127 2.859 1.589-.191.762-1.208 1.779-2.669 1.461q-.095.096-.19 0M54.313 134.594c-1.907-.381-1.843-2.923.127-4.257 2.223-1.462 4.193-.382 3.748 1.525-.19 1.016-1.207 2.287-2.859 2.668-.381.064-.635.064-.826.064q-.095.096-.19 0M38.493 113.753c-1.017-.064-1.144-1.144-.127-2.097 1.144-1.08 2.668-1.08 2.605.063-.064.826-1.144 1.97-2.287 2.034z"/><path fill="#00344A" d="M38.044 114.516c-1.588-.064-1.715-1.779-.19-3.177 1.652-1.589 3.875-1.652 3.939-.064.063 1.017-.953 2.288-2.288 2.923-.19.127-.762.381-1.46.318m-.19.381h.254c2.605-.19 5.21-3.495 3.685-4.765-1.525-1.398-5.528 1.143-5.464 3.494.063.763.635 1.271 1.525 1.271M185.19 141.457c-.953-.444-.953-1.525 0-1.906.445-.19.826-.063 1.017 0 1.08.445 1.016 1.589.127 1.97-.381.063-.826.063-1.144-.064m-.444.636c.063 0 .19.063.254.063.127.064.317.064.572.127 1.143.064 1.715-.508 1.715-.508.254-.254.699-.762.572-1.525-.254-1.017-1.144-1.334-1.207-1.398a2.46 2.46 0 0 0-1.906-.063c-.191.063-.509.254-.763.572-.317.381-.381.762-.381.889-.063.953.572 1.589 1.144 1.843"/><path fill="#00344A" d="M185.187 141.459c-.953-.445-.953-1.525 0-1.907 1.017-.381 2.097.445 1.779 1.335-.127.381-.762.889-1.652.635-.063-.063-.127-.063-.127-.063M101.516 73.277c.063 0 .127.064.19.064.318-.318.763-.763 1.08-1.144-2.223-1.017-.699-3.495 1.97-4.511.572-.255 1.779-.572 2.986-.382.318-.317.762-.762 1.143-1.08-2.096-.381-4.002.318-4.701.636-4.13 1.715-5.527 5.147-2.668 6.417m1.651.382h.572c4.448-.128 8.005-3.241 7.434-5.592-.318-1.207-1.462-1.589-2.224-1.843-.318.318-.762.763-1.144 1.08 2.478.572 1.97 2.86-.254 4.194-1.143.7-3.113 1.334-4.765.7-.317.317-.762.762-1.08 1.143.318.127.763.254 1.461.318"/><path fill="#00344A" d="M102.662 72.195s.064.063.127.063c1.461-1.461 3.494-3.431 4.956-4.893-3.177-.508-6.989 2.288-5.782 4.194.127.254.381.445.699.636m1.271.254h.571c3.685-.254 6.1-3.177 4.575-4.639-.381-.381-.953-.508-1.207-.572-1.462 1.462-3.495 3.432-4.956 4.893.127.19.445.318 1.017.318M182.648 163.634c-1.525-.699-1.398-2.605.127-3.114a2.25 2.25 0 0 1 1.334 0c1.652.699 1.525 2.478.191 3.114a1.89 1.89 0 0 1-1.652 0m-.826 1.525c.127.063.318.127.445.191 3.24 1.016 6.099-1.907 4.574-4.639-.381-.635-1.334-1.779-3.303-1.906-3.622 0-4.829 3.558-2.732 5.591.254.318.571.572 1.016.763"/><path fill="#00344A" d="M182.645 163.633c-1.525-.699-1.398-2.605.127-3.114 1.588-.508 3.049.954 2.414 2.288-.254.508-1.017 1.271-2.414.89-.064 0-.127 0-.127-.064M249.805 143.871c-2.732-1.462-2.922-4.829-.317-5.592 3.113-.953 6.099 2.415 5.019 4.639-.636 1.207-2.351 2.033-4.702.953M225.533 176.279c-1.27-.699-1.588-2.224-.635-3.05 1.398-1.208 3.621.063 3.558 1.652 0 1.017-1.08 2.097-2.796 1.461 0 0-.063 0-.127-.063M211.428 96.407c-1.525-.763-1.588-2.415-.127-2.987.953-.317 1.779-.063 2.033.064 1.843.826 1.779 2.478.318 3.05-.635.254-1.525.19-2.224-.127m-.127.635.318.127c2.795.763 4.701-1.144 3.621-2.923-1.27-2.16-5.337-2.033-5.781.19-.191 1.018.572 2.098 1.842 2.606M180.49 196.421c-2.351-1.08-2.351-4.194 0-5.147 2.477-1.017 5.146 1.398 4.066 3.749-.381.826-1.652 2.16-3.812 1.525-.064-.064-.127-.127-.254-.127M144.02 87.509l5.21-2.796c-2.16-1.652-5.654-.064-5.527 1.906 0 .381.063.636.317.89m1.525.89c.127 0 .254.063.318.063 2.986.254 4.828-1.97 3.558-3.495l-.191-.19c-1.588.826-3.621 1.97-5.21 2.795.191.19.636.636 1.525.826"/><path fill="#00344A" d="M211.431 96.408c-1.525-.763-1.589-2.415-.128-2.987 1.843-.699 4.003.826 3.304 2.287-.317.572-1.334 1.335-2.986.763-.063 0-.127-.064-.19-.064M50.058 195.276c-1.525-.571-1.334-2.922.254-3.685.254-.127.508-.191.699-.191 1.715-.127 2.287 1.843 1.27 3.114-.253.318-.952 1.017-2.032.826-.064 0-.127 0-.191-.064M144.851 17.36c-1.016 0-1.397-.253-1.016-.698.381-.382 1.525-.763 2.732-.826 1.207-.064 1.525.317 1.271.635-.382.445-1.843.89-2.987.89m-.953.89h.572c3.304-.254 5.655-1.588 4.892-2.35-1.143-1.145-7.497.126-7.624 1.588 0 .445.826.762 2.16.762M184.684 14.182c-.89-.127-1.334-.444-.953-.762.762-.636 3.748-.508 3.685.19 0 .445-1.334.763-2.605.636 0-.064-.064-.064-.127-.064M179.665 65.206c-3.367-1.08-3.812-3.94-.826-5.401 3.749-1.843 9.213.254 8.26 3.177-.318 1.017-1.398 1.843-2.923 2.287-1.588.445-3.113.445-4.511-.063m-.444.508c.19.064.444.127.635.19 4.892 1.145 9.593-1.778 7.687-4.828-2.287-3.622-10.737-2.987-11.499.89-.254 1.524 1.016 2.986 3.177 3.748"/><path fill="#00344A" d="M180.302 64.444c-2.415-.763-2.732-2.86-.636-3.876 2.732-1.335 6.671.19 5.972 2.287-.508 1.462-2.859 2.224-5.019 1.716-.127-.064-.19-.127-.317-.127M144.845 17.36c-1.016 0-1.398-.254-1.016-.699.889-.826 4.066-1.144 4.066-.445 0 .445-1.398 1.017-2.923 1.08 0 .064-.063.064-.127.064M230.175 101.807a2.4 2.4 0 0 1-.508-.317c-.889-.763-.889-1.843 0-2.415 1.271-.635 2.732-.064 3.304.89.826 1.588-1.017 2.224-1.461 2.096-.445 0-.826-.063-1.208-.254-.127.064-.127 0-.127 0M229.413 23.269c-3.177-.953-4.447-2.605-2.732-3.495 2.986-1.588 11.118.636 10.419 2.86-.381 1.397-4.129 1.652-7.624.635 0 .064 0 .064-.063 0M212.129 115.213c-2.542-1.27-2.923-4.384.063-5.401 2.796-.953 6.481 1.652 5.083 4.258-.763 1.461-2.923 2.033-4.892 1.27a.47.47 0 0 1-.254-.127M282.333 141.903c-2.35-1.78-2.35-4.702.064-5.211 2.795-.572 5.972 2.86 4.638 5.084-.763 1.27-2.669 1.398-4.384.317-.127-.063-.254-.127-.318-.19M239.324 146.922c-1.588-.89-1.524-2.86.128-3.241 1.842-.445 3.557 1.461 2.604 2.859-.444.636-1.461 1.017-2.604.445-.064 0-.128-.063-.128-.063M283.41 93.228c-2.605-1.906-2.287-4.512-.127-4.766 3.367-.445 6.607 3.304 5.209 5.147-.826 1.08-2.922 1.017-4.765-.127-.127-.127-.254-.19-.317-.254"/><path fill="#00344A" d="M101.324 17.552c21.284-6.29 23.508-6.926 41.106-9.595-22.046 3.813-24.333 4.257-41.106 9.595m41.488-9.15c-6.1 2.414-14.232 5.592-20.204 8.324zm.254-.064c-6.163 2.415-14.359 5.656-20.395 8.388zM146.627 7.828c5.528 1.462 12.834 4.003 18.044 6.29h.063c-5.273-2.287-12.516-4.828-18.043-6.29zm-23.443 9.659c9.72-1.144 22.745-2.288 32.465-2.67-9.784.445-22.745 1.462-32.465 2.67M61.3 37.502l.127-.064C82.139 25.81 83.346 25.111 97.64 18.948 75.658 29.05 74.769 29.431 61.3 37.501m-.255.127c.064 0 .128-.064.191-.127zm17.853-6.1c6.354-1.398 14.867-3.05 21.348-3.813-6.48.953-15.058 2.351-21.348 3.813M100.435 17.995c5.274-.509 12.389-.636 17.726-.255 0 0 .064 0 .064-.063-5.337-.381-12.453-.254-17.726.254 0 .063-.064.063-.064.063m-.826.38c1.462 3.241 1.462 3.241 2.033 8.706h.064c-.699-6.1-.826-6.735-1.97-8.705-.063-.064-.127 0-.127 0M161.177 38.71c6.671.192 15.629.382 22.3.827-6.671-.254-15.629-.762-22.3-.826" opacity=".302"/><path fill="#00344A" d="m201.521 41.504.317.064-.381-.064zM194.66 40.617l5.845.763z" opacity=".514"/><path fill="#00344A" d="M203.234 41.758c7.879 1.398 18.362 3.113 26.176 4.829-7.814-1.525-18.297-3.622-26.176-4.83M141.863 37.185c3.368-3.43 7.751-8.006 11.246-11.31-3.368 3.431-8.006 7.88-11.246 11.31" opacity=".302"/><path fill="#00344A" d="m153.105 25.941.129-.128z"/><path fill="#00344A" d="m212.383 34.26 9.911 6.228h.127l-10.038-6.29zm10.038 6.291 7.878 5.529h.064c-2.351-1.652-5.464-3.813-7.815-5.465z" opacity=".302"/><path fill="#00344A" d="M222.355 40.488h.128l.127.064h-.191z" opacity=".514"/><path fill="#00344A" d="M185.066 20.919c4.257 1.906 10.102 4.194 14.295 6.29v-.063c-4.256-1.906-9.911-4.575-14.295-6.29zm14.359 6.29 12.897 6.927.064-.064-12.897-6.99z" opacity=".302"/><path fill="#00344A" d="M199.359 27.21v-.128l.129.064-.064.065z" opacity=".514"/><path fill="#00344A" d="M168.672 15.58s8.513 2.288 16.264 5.21v.064c-4.892-1.652-11.309-3.94-16.264-5.274" opacity=".302"/><path fill="#00344A" d="m184.938 20.855.127.063v-.063l-.127-.064zm27.382 13.343.064.064.064-.064-.064-.063z"/><path fill="#00344A" d="m155.078 24.158-1.843 1.715zm-1.843 1.652.064.063c3.431-2.986 7.942-6.99 11.499-9.785m-22.872 21.16c3.368-3.368 7.751-8.007 11.246-11.248l-.064-.063c-3.367 3.368-8.005 7.816-11.245 11.31z" opacity=".302"/><path fill="#00344A" d="m153.105 25.941.129-.128v.128l-.064.065z"/><path fill="#00344A" d="M120.961 18.629c2.097 1.588 4.956 3.685 6.862 5.464-1.97-1.715-4.638-4.066-6.862-5.464M155.649 14.818c-9.784.445-22.808 1.462-32.465 2.67l10.356-1.399c8.831-.635 20.711-1.207 29.606-1.27l-.063.063zM115.619 29.942c6.544 2.097 15.121 5.4 21.411 8.197-6.29-2.796-14.867-6.164-21.411-8.197" opacity=".302"/><path fill="#00344A" d="m115.619 29.941-.064-.064z"/><path fill="#00344A" d="M120.892 18.63c2.096 1.588 4.955 3.685 6.861 5.465l.128-.064c-2.034-1.652-4.638-4.003-6.862-5.465-.064.064-.127.064-.127.064m13.787 13.47 3.748 5.338h.064c-2.859-4.003-6.925-9.213-10.166-12.899l-.508-.508-.127.064c2.224 2.414 5.146 5.464 6.989 8.006m-14.105-.825c5.019 1.906 11.69 4.511 16.519 6.799-4.892-2.224-11.436-5.084-16.519-6.8" opacity=".302"/><path fill="#00344A" d="M127.758 24.096h.128l-.128.064z"/><path fill="#00344A" d="M103.234 26.701c4.13-2.224 9.657-5.147 13.787-7.37h.064c-4.13 2.223-9.657 5.21-13.851 7.37M60.414 38.392l5.527-2.415.064-.063zc.063-.064 0-.064 0 0m7.624-3.24 10.61-3.496h-.19zm10.864-3.623c6.353-1.398 14.867-3.05 21.347-3.812l-11.5 1.525-10.037 2.35zm-21.22 8.579c-1.144 1.143-1.843 3.304-2.605 4.829l.127-.127c.763-1.398 1.715-3.368 2.541-4.766zm-2.605 4.829c-.762 1.715-1.779 3.94-2.541 5.655l.127-.064c.762-1.715 1.715-4.003 2.541-5.718zm-2.541 5.719L50.82 55.04c.064-.064.064-.064 1.843-4.384zM91.351 43.603c22.364-3.431 23.698-3.686 44.156-4.13-23.698.762-24.651.762-44.156 4.13m-4.51.89 1.842-.318c.063 0 .063-.064.127-.064-.572.064-1.335.254-1.97.382m-34.055 10.04 5.782-3.75.063-.063zm23.444-7.499h.064l10.42-2.541v-.064zm-19.505 6.418c5.782-1.97 13.533-4.639 19.441-6.354h-.063m-23.38 8.006 3.875-1.525.064-.064z" opacity=".302"/><path fill="#00344A" d="M88.746 44.11c.064-.063.064-.063 2.605-.57l.064.063c-.89.19-1.907.38-2.669.508"/><path fill="#00344A" d="m110.221 28.734 5.337 1.143.127-.063c-3.812-.7-8.895-1.78-12.77-2.224 0 0-.064 0-.064.063 2.16.382 5.146.7 7.37 1.08m5.4 1.207c6.544 2.097 15.121 5.401 21.411 8.197-4.892-2.16-11.436-5.084-16.455-6.8l-4.892-1.397zM58.695 50.656l8.704-5.274h-.063L61.11 49.13z" opacity=".302"/><path fill="#00344A" d="M115.555 29.877h.128l-.064.064z"/><path fill="#00344A" d="m92.815 31.721 7.052-3.24c-2.097.89-5.4 1.588-7.052 3.24M67.465 45.32l3.05-1.78c6.607-3.557 15.438-8.387 22.173-11.754v-.064c-7.624 4.003-17.79 9.277-25.223 13.598M187.16 65.588l4.066-2.033zM191.352 63.49c5.591-2.54 12.96-6.036 18.551-8.387-5.591 2.478-13.088 5.72-18.551 8.388" opacity=".302"/><path fill="#00344A" d="m209.906 55.103.129-.064zM219.816 51.228l.064-.064z" opacity=".514"/><path fill="#00344A" d="m151.648 50.275 6.354 6.736zM151.519 50.147c-2.986-2.795-6.925-6.672-10.039-9.34 3.05 2.795 7.116 6.417 10.039 9.34" opacity=".302"/><path fill="#00344A" d="m151.644 50.277-.128-.129z"/><path fill="#00344A" d="M151.325 50.085c-2.986-2.796-6.861-6.609-9.911-9.214z" opacity=".302"/><path fill="#00344A" d="m151.328 50.082.128.129z"/><path fill="#00344A" d="M161.113 38.645c6.735.254 15.693.444 22.364.89v-.064c-6.734-.255-15.629-.763-22.364-.826m-17.535.635 17.472-.508-.064-.064zq0-.096 0 0" opacity=".302"/><path fill="#00344A" d="M160.984 38.645h.129l.064.064h-.193z"/><path fill="#00344A" d="M202.153 41.505h-.317l1.27.19.064-.063zm-1.652-.127c.318.063.699.127.953.127h.318l-1.334-.19c.063 0 .063 0 .063.063m-16.899-1.843v.064l11.054 1.08s.064-.064.127-.064c-3.367-.317-7.814-.762-11.181-1.08" opacity=".302"/><path fill="#00344A" d="m201.774 41.441.381.064-.318.064-.317-.064zM194.66 40.616c.064-.064.064-.064 5.782.635 0 0 0 .064.063.064-1.715-.19-4.066-.445-5.845-.7" opacity=".514"/><path fill="#00344A" d="M203.299 41.697c7.878 1.398 18.361 3.114 26.112 4.83-7.878-1.526-18.297-3.622-26.239-4.766z" opacity=".302"/><path fill="#00344A" d="m203.168 41.632-.063.064h.127l.063-.064zm-19.695-2.097v.064h.127v-.064z"/><path fill="#00344A" d="M42.941 87.002c6.671.572 15.566 1.652 22.11 2.796-6.544-1.08-15.439-2.288-22.11-2.796" opacity=".302"/><path fill="#00344A" d="m65.047 89.797 2.478.508z"/><path fill="#00344A" d="M108.886 66.224c6.671-6.164 15.629-14.234 22.491-20.08-6.862 5.91-15.884 13.916-22.491 20.08" opacity=".302"/><path fill="#00344A" d="m131.379 46.144.064-.064zM102.789 72.196l4.956-4.893z"/><path fill="#00344A" d="M131.439 46.145c-6.862 5.909-15.883 13.915-22.491 20.079zM42.556 85.54l7.433-4.703h-.063z" opacity=".302"/><path fill="#00344A" d="m131.438 46.144.063-.064zM102.852 72.259l4.955-4.956z"/><path fill="#00344A" d="m78.396 64.7-.064.064 5.845-2.923v-.064c-1.779.89-4.384 1.525-5.781 2.923m-28.4 16.076h.064c8.386-4.956 19.632-11.374 28.145-15.949l.064-.063c-8.577 4.638-19.887 10.993-28.273 16.012" opacity=".302"/><path fill="#00344A" d="m78.263 64.764.129-.065-.064.065-.129.064z"/><path fill="#00344A" d="M123.31 45h.127l12.389-4.194-.064-.064c-3.748 1.271-8.704 2.987-12.452 4.258M97.706 55.357c7.687-3.177 17.853-7.435 25.604-10.294h-.127c-7.688 2.986-17.917 6.99-25.477 10.294m-8.323 3.94 8.26-3.813v-.064zq0-.095 0 0" opacity=".302"/><path fill="#00344A" d="M97.578 55.422h.127v-.064zM123.184 45.064l.127-.064h.127l-.127.064z"/><path fill="#00344A" d="m191.297 75.248.063.063 4.511-3.685-.063-.064zm-29.607 27.005c17.599-16.775 18.679-17.791 29.543-26.878l-.063-.064c-17.79 15.314-18.489 15.95-29.607 26.942zm-1.08 1.08c.254-.19.508-.508.699-.698-.064 0-.064-.064-.127-.064l-.699.699a.2.2 0 0 0 .127.063" opacity=".302"/><path fill="#00344A" d="m191.164 75.31.064.064.063-.064-.063-.063z"/><path fill="#00344A" d="m195.863 71.56 7.751-6.037.127.064-7.814 6.037z" opacity=".302"/><path fill="#00344A" d="m195.863 71.563.064.064z"/><path fill="#00344A" d="m222.676 52.498.127.063 7.434-4.384s-.064 0-.064-.064c-2.287 1.271-5.273 3.05-7.497 4.385m-9.53 6.227.064.063 9.466-6.227-.127-.063zm-.063.063-9.403 6.736h.127l9.276-6.672z" opacity=".302"/><path fill="#00344A" d="m213.082 58.789.064-.064.064.064-.064.064zM222.613 52.564l.064-.064.129.064h-.193" opacity=".514"/><path fill="#00344A" d="m203.744 65.46-.064.065h.127l.064-.064zm-8.006 6.165.064.063.063-.064-.063-.063z"/><path fill="#00344A" d="m185.194 66.606.064.063 1.842-.953-.063-.064zm-10.483 5.718 10.483-5.591-.063-.064-10.483 5.592zm-14.422 29.484c3.177-7.816 7.433-18.173 10.737-25.925-3.304 7.752-7.624 18.11-10.737 25.925" opacity=".302"/><path fill="#00344A" d="m185.125 66.604.064.063.127-.064-.064-.063z"/><path fill="#00344A" d="m187.16 65.588 4.066-2.033h.127l-4.129 2.097z" opacity=".302"/><path fill="#00344A" d="m187.16 65.588.064.064z"/><path fill="#00344A" d="m219.878 51.165.127.063 9.784-3.368-.063-.063c-2.986 1.017-6.862 2.35-9.848 3.368m-9.848 3.876.064.063 3.748-1.525 6.036-2.35-.127-.064zm-.127.063c-5.591 2.478-13.088 5.719-18.551 8.388h.127c5.527-2.542 12.833-6.037 18.488-8.388z" opacity=".302"/><path fill="#00344A" d="m209.906 55.103.129-.064.064.064-.129.065zM219.816 51.228l.065-.064.128.064-.128.065z" opacity=".514"/><path fill="#00344A" d="m191.348 63.492-.127.064h.127l.127-.064zm-4.321 2.16.064.064.063-.063-.063-.064z"/><path fill="#00344A" d="m160.162 102.188-.318.826h.127c.127-.255.254-.572.318-.826zm-4.193 2.096c.317.064.762.127 1.143.191v-.064a6.3 6.3 0 0 0-1.143-.127c.063-.063 0-.063 0 0m-19.569-2.16-.063.064c5.718.571 13.342 1.207 19.06 2.033v-.064c-5.655-.635-13.279-1.588-18.997-2.033m-14.041-.826 13.851.89.063-.064-13.914-.89c.064.064 0 .064 0 .064" opacity=".302"/><path fill="#00344A" d="M136.273 102.125h.129v.064h-.129z"/><path fill="#00344A" d="M149.293 84.842c5.972-2.986 13.977-6.99 20.013-9.785-6.036 2.859-14.105 6.672-20.013 9.785m-27.129 15.441c6.544-3.876 15.248-9.023 21.856-12.709-6.544 3.813-15.376 8.77-21.856 12.709" opacity=".302"/><path fill="#00344A" d="m144.082 87.572 5.146-2.732z"/><path fill="#00344A" d="M122.102 100.218c6.544-3.876 15.248-9.023 21.855-12.708-6.544 3.812-15.375 8.768-21.855 12.708" opacity=".302"/><path fill="#00344A" d="m144.023 87.51 5.147-2.733z"/><path fill="#00344A" d="M171.023 75.883c-2.033 4.892-4.765 11.374-6.798 16.267l-3.875 9.658h-.127c3.24-7.816 7.497-18.237 10.8-25.925M149.229 84.841c5.972-2.986 13.978-6.99 20.013-9.785l-.063-.064c-3.304 1.589-7.688 3.622-10.991 5.21zq0-.096 0 0m-27.065 15.441c6.544-3.876 15.248-9.023 21.856-12.708-6.544 3.749-15.439 8.705-21.856 12.708" opacity=".302"/><path fill="#00344A" d="M144.023 87.574c1.525-.89 3.558-1.97 5.147-2.86l.063.064c-1.525.89-3.621 1.97-5.21 2.796q.096 0 0 0"/><path fill="#00344A" d="M131.636 62.473c-5.083 16.457-6.1 19.888-10.738 37.299 5.147-19 5.909-21.986 10.738-37.3M136.906 47.098c-1.588 4.575-3.748 10.738-5.273 15.377 1.588-4.639 3.621-10.802 5.273-15.377M136.969 46.97l2.033-5.529z" opacity=".302"/><path fill="#00344A" d="m136.906 47.035.064-.064-.064.128z"/><path fill="#00344A" d="m157.934 57.074 5.209 5.91.064-.064-4.32-4.956-.826-.89zm5.336 5.973 7.243 8.769h.064c-2.16-2.669-5.083-6.164-7.243-8.832z" opacity=".302"/><path fill="#00344A" d="m163.143 62.984.064.063.063-.063-.063-.064z"/><path fill="#00344A" d="m155.841 54.786-4.384-4.575.191.064 6.353 6.735h-.127zM151.325 50.085c-2.986-2.796-6.861-6.609-9.911-9.214h.064c3.049 2.796 7.179 6.418 10.038 9.277z" opacity=".302"/><path fill="#00344A" d="m157.874 57.01.191.064-.064-.064zM151.455 50.21l-.127-.128.191.064.127.127z"/><path fill="#00344A" d="M131.636 62.473c-5.083 16.457-6.1 19.888-10.738 37.299l2.415-8.833c5.527-19.634 5.527-19.634 8.386-28.466zM136.909 47.098h.127c-1.588 4.575-3.748 10.675-5.21 15.313h-.127c1.525-4.638 3.558-10.738 5.21-15.313M136.969 46.97l2.096-5.529h.064a199 199 0 0 0-2.033 5.592z" opacity=".302"/><path fill="#00344A" d="M131.699 62.411v.064h.127v-.064zM136.906 47.1l.064-.13.065.065v.064z"/><path fill="#00344A" d="M131.443 46.081h.064l5.845-4.702h-.064a468 468 0 0 1-5.845 4.702m-22.491 20.143c6.671-6.164 15.63-14.234 22.491-20.08h-.063c-6.862 5.91-15.884 13.916-22.491 20.08zM90.464 85.096v.127l3.685-3.94 7.624-7.879h-.063c-3.368 3.495-7.879 8.197-11.246 11.692M84.81 91.45l5.59-6.164v-.127l-5.654 6.227c0 .064 0 .064.064.064" opacity=".302"/><path fill="#00344A" d="m131.379 46.144.064-.064h.064l-.064.064zM107.806 67.305c.318-.318.762-.763 1.144-1.08h-.064c-.318.317-.762.762-1.144 1.08zm-6.036 6.036c.318-.317.763-.762 1.144-1.08 0 0-.064 0-.064-.063-.317.317-.762.762-1.08 1.143q-.094 0 0 0"/><path fill="#00344A" d="M102.849 72.259c1.397-1.525 3.43-3.431 4.892-4.956h.063a183 183 0 0 1-4.955 4.956"/><path fill="#00344A" d="M95.609 114.578c-8.704 5.211-20.267 12.2-28.78 17.601h.126c8.514-5.401 20.013-12.454 28.717-17.537zm-40.026 25.226 11.309-7.498h-.127zc-.064 0-.064-.063 0 0" opacity=".302"/><path fill="#00344A" d="M66.83 132.18h.19l-.19.127h-.127z"/><path fill="#00344A" d="M111.745 105.682v.063l7.179-3.685s0-.064-.063-.064c-2.034 1.144-4.956 2.605-7.116 3.686m-16.01 8.832.063.063 15.883-8.705v-.063z" opacity=".302"/><path fill="#00344A" d="M111.683 105.747v.064l.127-.064v-.063zm-16.074 8.832.064.064.127-.064-.064-.063z"/><path fill="#00344A" d="M59.012 132.116c4.51-7.688 10.61-17.919 15.311-25.544-4.638 7.625-10.8 17.792-15.311 25.544" opacity=".302"/><path fill="#00344A" d="m58.945 132.246.065-.129z"/><path fill="#00344A" d="M68.543 115.723c-2.923 4.892-6.799 11.437-9.658 16.393 2.923-4.892 6.735-11.501 9.658-16.393M99.8 96.786l10.737 2.097v-.127c-5.591-1.08-13.024-2.542-18.615-3.432v.127zm10.864 2.16 8.323 1.906v-.063l-.572-.191-7.814-1.779z" opacity=".302"/><path fill="#00344A" d="M110.539 98.949v-.129l.128.065v.064z"/><path fill="#00344A" d="M85.633 94.626s0-.064.063-.064c1.843.255 4.257.572 6.1.826v.128zM76.487 103.016l-2.224 3.558.127-.064 2.224-3.494z" opacity=".302"/><path fill="#00344A" d="m50.755 126.016-.064-.254z"/><path fill="#00344A" d="M68.543 115.722c-2.923 4.893-6.799 11.438-9.658 16.394h.128c4.51-7.688 10.61-17.919 15.311-25.544l-.127.064zM54.946 139.36l4.003-7.117h-.127l-3.94 7.053z" opacity=".302"/><path fill="#00344A" d="M58.887 132.117h.128l-.064.129h-.064z"/><path fill="#00344A" d="M41.098 88.844a908 908 0 0 1 4.892 17.601c-1.398-5.274-3.304-12.327-4.892-17.601" opacity=".302"/><path fill="#00344A" d="M45.988 106.445h.064v.064z"/><path fill="#00344A" d="m78.838 99.393.064.063-2.16 3.304-.064.127h-.127zM78.902 99.266l1.462-2.16h.063c-.445.698-1.016 1.588-1.525 2.16" opacity=".302"/><path fill="#00344A" d="m78.836 99.394.064-.128.064.064-.064.129z"/><path fill="#00344A" d="M42.941 87.001c6.671.572 15.566 1.652 22.11 2.796-6.608-1.144-15.439-2.351-22.11-2.86.064 0 0 .064 0 .064m24.588 3.304 11.817 3.05s0-.063.063-.063c-3.558-.953-8.259-2.16-11.817-3.05 0 0-.063 0-.063.063m-26.494-1.398c1.08 3.75 2.542 8.706 3.558 12.518-1.017-3.749-2.414-8.769-3.558-12.518" opacity=".302"/><path fill="#00344A" d="m65.047 89.798.063-.064c.763.128 1.716.382 2.415.509l-.064.063z"/><path fill="#00344A" d="m47.453 112.544 1.143 4.575s.064 0 .064-.064c-.318-1.397-.762-3.177-1.08-4.575zm-4.193 28.467v.063l9.34-.317v-.064a462 462 0 0 1-9.34.318m-36.087-.318a1333 1333 0 0 1 9.212-16.203l-.064.063c-2.795 4.766-6.543 11.247-9.148 16.14q-.096 0 0 0m1.652 3.749c16.9-2.224 18.234-2.415 34.308-3.304v-.064c-19.378 1.271-20.14 1.271-34.308 3.368" opacity=".302"/><path fill="#00344A" d="M43.125 141.012h.128v.128h-.064z"/><path fill="#00344A" d="m50.562 125.571.127.191-1.208-5.02s-.063 0-.063.064c.381 1.461.508 3.431 1.144 4.765m.063.255c.953 4.066 2.224 9.531 3.177 13.598h.063c-.953-4.004-2.16-9.405-3.05-13.408z" opacity=".302"/><path fill="#00344A" d="m50.621 125.826.128.193zM50.63 125.826l-.064-.254.127.191.064.254z"/><path fill="#00344A" d="m44.593 101.426 1.334 5.147.063-.064a909 909 0 0 0-4.892-17.6l-.063.063c1.08 3.685 2.541 8.642 3.558 12.454m1.334 5.21 1.461 5.846.064-.063-1.462-5.91zm-7.434-17.092c-10.61 15.758-12.516 18.617-22.173 34.821l.064-.064c10.038-16.394 12.071-19.825 22.11-34.757q.095.094 0 0" opacity=".302"/><path fill="#00344A" d="m45.926 106.51.064-.065.064.065-.128.128z"/><path fill="#00344A" d="M78.584 31.658c4.257-.19 9.911-.381 14.168-.064l.127-.063c-4.193-.19-9.848-.318-13.977.064h-.19l-8.832 1.842 8.513-1.779zM67.91 35.153c-1.46 2.605-3.303 6.1-4.574 8.769 1.334-2.733 3.24-6.418 4.765-9.023zm-1.97 8.324c5.084-2.351 11.755-5.655 16.9-7.88-5.018 2.352-11.88 5.338-16.9 7.88" opacity=".302"/><path fill="#00344A" d="m86.719 44.556-1.715 4.067 1.778-4.067v-.063c1.716-3.813 4.067-8.96 5.91-12.709v-.063l.063-.127h-.064l-.127.063-9.848 4.003c-5.082 2.352-11.944 5.338-16.9 7.88 8.006-3.686 18.68-8.578 26.811-11.883l-.063.19v.064c-1.715 3.686-4.13 8.706-5.845 12.645m-10.547 2.542 6.735 2.478c-4.32-1.525-10.229-3.24-14.74-4.13l7.942 1.652zM35.507 53.832c6.29-4.32 14.74-9.976 21.283-13.915l.064-.064c-6.48 4.067-15.121 9.531-21.347 13.98M61.3 37.502l5.909-2.986c-1.716.89-4.066 2.033-5.782 2.922zl-.254.127c.064 0 .064-.063.127-.063zm6.544-2.986-8.069 6.354 6.163-4.956.064-.064zM55.138 44.873c-3.176 2.986-7.497 6.863-10.546 9.913 12.706-12.01 13.723-12.963 23.253-20.27l-1.842 1.398-.064.063c-3.177 2.605-7.56 6.1-10.674 8.832zM33.664 55.357c1.779-.699 4.384-1.207 6.29-1.08 1.016.064 2.16 1.017 2.986 1.652-1.652-.953-4.13-1.715-5.972-1.843-1.08-.063-2.35.7-3.304 1.271" opacity=".302"/><path fill="#00344A" d="M68.097 34.896a175 175 0 0 0-4.765 9.023zm-1.78 3.24c.446-.889 1.208-2.096 1.716-2.986l.635-.953c-.127.064-.127.064-.508.763m-13.088 9.976.127-.127 4.575-3.94 8.069-6.354C54.31 45.381 54.056 45.571 44.526 54.848l-.382.382h.064M86.716 62.028c.762 4.703 1.779 10.93 2.478 15.568l.127-.063c-.763-4.703-1.716-10.93-2.478-15.568 0 0-.064 0-.127.063.064 0 .064-.063 0 0m5.083 33.487.317 2.224h.127a31 31 0 0 0-.317-2.224v-.127l-1.462-10.23v-.127l-1.08-7.498-.127.063 1.08 7.562v.127l1.398 10.103zm-6.354-.572L91.1 98.12l.063-.063c-1.715-.953-4.002-2.288-5.718-3.241.064.064 0 .064 0 .127q0-.094 0 0" opacity=".302"/><path fill="#00344A" d="m89.318 77.535-.064.064zM89.254 77.6l.064-.065.064.065-.128.064z"/><path fill="#00344A" d="M49.995 80.84c5.4 1.524 12.643 3.685 17.916 5.654l.064-.063c-5.274-1.906-12.39-4.258-17.853-5.656h-.064l-5.972-1.08 5.845 1.144zm17.98 5.718 2.477 1.016.127-.063-2.54-1.08zm2.54 1.016 10.04 4.703s.063 0 .063-.064a710 710 0 0 1-9.975-4.766z" opacity=".302"/><path fill="#00344A" d="m67.906 86.493.064.064.063-.064-.063-.063zm2.478 1.08h.064l.127-.063h-.064z"/><path fill="#00344A" d="m84.68 51.547.19.89.064-.128-.19-.762zm.254 1.017 1.334 6.672s.064 0 .064-.064c-.382-2.033-.953-4.702-1.335-6.735z" opacity=".302"/><path fill="#00344A" d="m84.871 52.434.127-.127v.127l-.063.127z"/><path fill="#00344A" d="M68.163 45.447c4.511.953 10.42 2.541 14.74 4.13l-6.607-2.478h-.064c-2.605-.572-6.1-1.462-8.767-1.78H67.4l-2.986-.19-.064.063c.89.064 2.097.127 2.987.191h.063zm-22.872 30.5c18.616-13.153 21.03-14.87 36.405-24.146-21.22 13.153-21.665 13.407-36.405 24.146M52.595 50.656l.127-.064 3.431-1.906 3.685-1.97-7.116 3.876zm-9.466 6.1a504 504 0 0 0-.953 9.213c.254-2.796.635-6.481.953-9.213m13.469-3.177c-8.196 12.454-8.704 13.153-13.977 22.366l5.908-9.912c2.414-3.75 5.591-8.769 8.132-12.454l.064-.064 1.97-2.796.063-.063 3.05-4.13-3.177 4.193-.064.064zM40.97 54.722l1.842 1.208h.064c-.89-.509-1.906-1.589-2.923-1.652-4.066-.255-4.066-.255-6.353 1.08l-.064.063c.953-.38 2.16-1.143 3.24-1.27 1.335-.128 3.114 0 4.194.571M3.676 84.524c2.859-2.796 6.353-6.863 9.022-9.85 5.146-5.591 12.77-12.327 18.488-17.41C16.51 70.481 16.51 70.481 3.676 84.524M41.732 57.01C26.357 66.16 17.844 71.243 3.993 84.397c13.025-11.502 20.204-17.792 37.74-27.387" opacity=".302"/><path fill="#00344A" d="M3.93 84.46C16.955 72.96 24.134 66.67 41.67 57.074 26.358 66.16 17.844 71.117 3.93 84.46q.096-.094 0 0m38.184-18.49c-.318 3.177-.763 7.434-1.08 10.611.953-8.705.953-8.705 2.16-19.952l-.064.064c-.317 2.795-.699 6.48-1.016 9.277M3.422 85.096c8.26-5.592 17.662-11.946 34.816-6.609-9.212-2.16-20.648-4.829-34.753 6.545 0 0-.063 0-.063.064M46.37 120.361l.255-.063v-.064c-.127.064-.191.064-.255.127m-5.527 2.987v.063l5.4-2.922-.063-.064zM8.949 142.474c17.09-10.675 18.933-11.819 31.83-18.999v-.064c-19.504 11.12-19.886 11.311-31.83 19.063q0-.094 0 0" opacity=".302"/><path fill="#00344A" d="M40.777 123.348h.065l.064.064-.129.064zM46.246 120.424l.128-.065v.065l-.064.064z"/><path fill="#00344A" d="M61.614 107.526v.063l14.867-4.575.127-.063 4.892-1.335-.063-.063-4.702 1.334-.127.064zm-20.076 7.18 5.908-2.161.064-.063 13.977-4.893v-.063l-13.977 4.892-.064.064zm-1.78.699v.063l1.653-.635-.064-.064zm-7.878 3.304 7.815-3.177v-.064l-7.814 3.178zM8.247 141.203c5.337-5.528 12.453-12.899 17.853-18.3-5.337 5.464-12.516 12.708-17.853 18.3" opacity=".302"/><path fill="#00344A" d="m39.695 115.471.065-.065.064.065-.129.064zM41.414 114.771h.127l-.063-.063zM61.555 107.525v.065l.128-.065v-.064z"/><path fill="#00344A" d="m81.566 101.491 8.832-2.288v.064c-2.605.699-6.163 1.588-8.768 2.287z" opacity=".302"/><path fill="#00344A" d="m81.445 101.553.129-.065.064.065-.129.064z"/><path fill="#00344A" d="M60.158 113.245v.064l14.041-6.672.127-.064 8.514-3.812-.064-.064-8.386 3.749-.127.064zm-8.767 4.512 8.64-4.385v-.063z" opacity=".302"/><path fill="#00344A" d="m60.031 113.309.129-.065v.065l-.129.064z"/><path fill="#00344A" d="m82.902 102.697 7.497-3.178v.064c-2.223.953-5.21 2.224-7.497 3.177z" opacity=".302"/><path fill="#00344A" d="M82.777 102.697h.129l.064.065h-.129z"/><path fill="#00344A" d="M-8.587 135.675c14.74-7.18 15.312-7.498 24.842-11.184l.064-.063 10.737-3.94-10.737 3.876-.064.064c-16.392 6.862-16.71 6.989-24.842 11.247m16.9 5.528c5.718-5.909 13.406-13.789 19.188-19.571l-1.398 1.271c-5.337 5.464-12.516 12.708-17.79 18.3m-17.344-4.639c3.303 2.034 7.687 4.83 10.864 7.054 0 0 0-.064.064-.064-3.177-2.224-7.497-5.147-10.865-7.053zM-15.637 123.856c13.024-12.263 25.286-23.892 51.716-41.493-16.9 11.629-31.513 21.668-51.716 41.493m6.861 11.311c14.55-18.3 25.604-31.771 45.872-52.168-14.55 14.869-25.986 26.624-45.872 52.168M54.885 139.296l-.254 2.605.064-.063c1.334-.826 1.27-2.288.19-2.542m-1.46 2.923h.126c.445.063.826-.127 1.017-.191.063-.826.19-1.906.254-2.732-1.398-.191-2.796 1.525-1.97 2.542q.19.285.572.381" opacity=".302"/><path fill="#00344A" d="m54.883 139.297-.254 2.669zM54.822 139.297h.063c-.063.762-.19 1.843-.254 2.605-.064 0-.064.064-.127.064z"/><path fill="#00344A" d="M119.747 102.568c-.889-.254-1.207-1.016-.762-1.779.699-.953 1.779-.953 2.033-.953.826.064 1.143.508 1.143.508.89 1.144-.698 2.542-2.223 2.288h-.064c0-.064-.063-.064-.127-.064M39.315 89.607c-1.397.254-1.842-.636-.953-1.843 1.398-1.906 4.511-2.987 4.765-1.652.064.254 0 .572-.19.89-.89 1.524-2.542 2.35-3.495 2.541-.063 0-.063.064-.127.064M164.988 16.152c-1.906-.063-2.541-.762-1.906-1.334 1.525-1.271 6.862-1.398 6.671-.127-.127.826-2.541 1.525-4.765 1.461M138.621 40.298c-1.08-.127-1.398-.763-.635-1.398.445-.381 1.398-.7 2.351-.7 1.334.128 1.524.763.953 1.335s-1.779.89-2.669.763m-.762 1.143h.063c3.368.128 6.735-2.033 5.528-3.494-1.525-1.843-7.751-.382-8.069 1.842-.191 1.208 1.652 1.525 1.906 1.589.127.063.318.063.572.063" opacity=".302"/><path fill="#00344A" d="M138.621 40.297c-1.081-.127-1.398-.762-.636-1.397 1.207-.954 3.749-.89 3.622.127-.064.699-1.525 1.334-2.796 1.27zM170.579 75.754c-2.224-.699-2.541-2.668-.572-3.749 2.415-1.334 6.036.127 5.337 2.16-.445 1.272-2.414 2.034-4.257 1.716-.127 0-.127 0-.254-.063-.063 0-.19-.064-.254-.064M158.252 106.193c-1.525-.508-1.588-2.16-.191-2.859.89-.445 1.716-.254 1.716-.254 1.652.317 2.16 1.906.889 2.796-.508.317-1.334.635-2.223.381-.064 0-.128-.064-.191-.064" opacity=".302"/><path fill="#00344A" d="M157.744 107.017c-2.351-.826-2.478-3.368-.191-4.448 1.144-.572 2.16-.381 2.605-.381h.063c.382.063.763.19 1.08.445 2.288 1.397 1.144 3.939-1.334 4.511-.381.064-1.27.191-2.223-.127m-.255.381c.127.064.255.064.318.127 3.24.89 6.417-1.779 4.956-4.193-.191-.318-.826-1.144-2.351-1.525-3.304-.699-6.29 2.096-4.638 4.384.254.318.762.889 1.715 1.207M101.2 28.097c-.445.064-.699 0-.572-.19.19-.318.953-.636 1.525-.763.698-.127.762.064.698.19-.254.255-1.016.636-1.651.763m-.445.318c.063 0 .127 0 .19-.064 1.462-.317 2.986-1.27 2.605-1.588-.063-.064-.19-.064-.317-.064-.445 0-1.08.127-1.843.381-1.525.636-1.842 1.144-1.525 1.335.254.127.636.063.89 0" opacity=".302"/><path fill="#00344A" d="M101.202 28.098c-.445.063-.699 0-.572-.19.318-.51 2.161-1.081 2.224-.7.064.254-.826.7-1.588.89 0-.064-.064 0-.064 0M80.802 97.168c-2.542-.127-2.986-2.542-.826-4.384 1.144-1.017 3.113-1.843 4.765-1.335 2.35.763 1.588 3.686-1.27 5.084a5.9 5.9 0 0 1-2.67.635M119.051 18.63c-.699.127-1.08 0-.89-.255.254-.317 1.335-.762 2.351-.953 1.144-.19 1.207.064 1.08.254-.254.318-1.461.826-2.541.953m-.699.635c.063 0 .191 0 .254-.064 1.08-.19 3.367-.762 4.574-1.779l.064-.063c.635-.7-.254-.763-1.08-.7-2.541.191-6.226 1.716-5.718 2.415 0 .127.318.445 1.906.19" opacity=".302"/><path fill="#00344A" d="M119.052 18.63c-.699.127-1.08 0-.89-.254.508-.635 3.367-1.398 3.495-.89.063.318-1.208.89-2.415 1.144zM56.793 40.616c-.635.382-1.461.763-1.652.7-.063-.51 5.464-3.877 5.972-3.623.064.318-2.35 1.843-4.066 2.796a.5.5 0 0 0-.254.127M98.661 18.695c-.318.127-.953.317-1.017.254.191-.318 3.685-1.652 3.813-1.462-.064.127-1.017.572-1.843.89-.127.063-.381.127-.699.254-.127 0-.19.064-.254.064M49.608 57.072c-.636.254-1.017.19-.89-.19.191-.509 1.398-1.399 2.415-1.843 1.207-.445 1.08 0 1.016.127-.127.572-1.461 1.461-2.541 1.906m-.254.318c.063 0 .127-.064.19-.064 1.906-.762 3.812-2.478 3.177-2.86-1.27-.38-4.892 2.288-4.638 2.987.127.19.572.19 1.27-.063M144.085 8.273c-1.208.127-1.97 0-1.716-.255.572-.698 5.972-1.588 5.909-.953 0 .382-2.033.953-4.003 1.208zM85.383 62.222c-1.397 0-1.779-.89-.826-1.906 1.525-1.652 4.892-2.16 4.892-.763 0 1.08-1.97 2.479-3.812 2.67zM47.707 121.125c-1.715-.255-1.588-2.351.254-3.686 1.843-1.271 3.749-.699 3.431 1.017-.254 1.398-1.97 2.732-3.43 2.669z" opacity=".302"/><path fill="#00344A" d="M49.61 57.074c-.636.254-1.017.19-.89-.191.317-.89 3.24-2.478 3.494-1.906.127.38-1.207 1.525-2.478 2.033 0 0-.063 0-.127.064M229.411 47.415c0 .063.064.063.064.127 1.143.254 2.605.635 3.748.89 1.144-.572.508-1.716-.826-2.16-1.969-.7-3.494.126-2.986 1.143m1.207.89h.064c.381.127 1.398.444 2.414.063-1.08-.254-2.541-.572-3.621-.826.063.063.063.127.19.19.318.255.572.445.953.572" opacity=".302"/><path fill="#00344A" d="M229.536 47.543c1.08.19 2.605.572 3.685.826-.064.063-.064.064-3.685-.826" opacity=".514"/><path fill="#00344A" d="M3.679 146.921c-.953-.063-.89-1.461.127-2.351.508-.444.953-.508 1.08-.508 1.08 0 1.016 1.334.063 2.224-.38.445-.89.635-1.27.635m-1.144 2.669h.381c3.876-.127 7.751-6.163 5.4-8.387l-.063-.064c-2.795-2.287-8.069 2.732-7.751 6.291.127 1.271.89 2.033 2.033 2.16M91.227 100.091c-.953-.127-1.144-1.144-.064-1.97.953-.699 2.478-.445 2.288.572-.128.572-.89 1.398-2.097 1.398zM87.221 48.622l-1.397 2.415c1.524-.953 2.096-1.97 1.397-2.415m-4.13 3.368c.128 0 .255-.063.382-.063 1.334-.255 2.224-.826 2.224-.826.635-.572 1.016-1.78 1.46-2.542-1.587-.763-6.098 1.589-5.654 2.923.064.445.7.635 1.589.508" opacity=".302"/><path fill="#00344A" d="M87.157 48.559s.063 0 .063.063c-.445.7-.953 1.716-1.398 2.415-.063 0-.063.063-.127.063z"/><path fill="#00344A" d="M38.559 82.871c-2.35.572-3.24-.572-2.033-2.478 1.143-1.843 3.939-3.876 6.226-4.511 2.414-.7 3.621.19 2.605 2.097-.699 1.334-3.05 3.749-6.544 4.829-.064.063-.19.063-.254.063M28.388 121.886c-1.525 0-1.715-1.652-.318-3.114 1.525-1.588 3.749-1.715 3.812-.127.064 1.144-1.397 3.05-3.367 3.241zM3.677 146.923c-.953-.064-.89-1.462.127-2.351.953-.826 1.97-.572 1.906.381-.064.763-.826 1.906-1.97 1.97zM42.494 57.073c-.572.254-.953.317-.89.127.191-.636 2.923-2.415 3.177-2.034.19.254-.89 1.208-2.223 1.907 0-.064-.064 0-.064 0M61.68 46.527c-1.525.572-1.843.38-1.907.127 0-1.144 5.528-4.13 6.163-3.305.381.509-1.97 2.352-4.257 3.178M31.949 56.692c-1.398 1.08-1.589 1.207-1.652 1.207.19-.318 4.828-4.003 5.4-4.32-.063.063-.381.38-2.033 1.715-.699.572-1.334 1.016-1.588 1.27 0 .064-.064.064-.127.128M68.165 34.389c-.636.318-1.017.445-1.08.381-.064-.19 1.143-.89 1.588-1.144 1.143-.635 1.906-.89 1.97-.825.126.127-1.144.953-2.478 1.588M2.152 86.43c-.572.508-.635.572-.699.572.127-.381 2.35-2.605 2.605-2.733 0 .064 0 .064-.064.128-.19.254-.825 1.016-1.778 1.906 0 .063-.064.063-.064.127" opacity=".302"/><path fill="#00344A" d="M108.57 240.074c0 .064.064.127 0 .127l17.98-1.016 7.561-.445c-7.624.381-17.853.953-25.541 1.334m18.234-42.509h-.127c2.732 11.501 6.481 26.751 9.53 38.188-2.922-11.437-6.734-26.687-9.403-38.188M82.71 175.132c22.173 9.468 22.173 9.468 40.407 17.728-19.632-8.832-19.632-8.832-40.407-17.728m52.606-65.639c-26.176 26.878-38.311 42.065-53.75 61.255 21.094-27.069 36.977-43.717 53.75-61.255m1.27.127h-.127c-7.242 41.175-8.513 58.777-10.165 81.08 2.224-32.152 5.972-55.726 10.292-81.08M82.71 175.135c0 .063 0 .127-.064.127 21.729 9.277 21.729 9.277 40.408 17.665-19.569-8.896-19.569-8.896-40.344-17.792m41.805 22.176-.064-.064-2.986 6.164c-4.638 9.976-10.546 23.447-14.803 33.55 5.782-13.852 6.671-15.758 17.853-39.65M83.345 240.519c-.762-6.291-1.525-14.679-2.16-20.969.572 6.29 1.525 14.678 2.16 20.969m2.033 1.842v.127c4.956-.508 11.563-1.207 16.519-1.779v-.063zm-4.701-64.431-.064.063 4.257 12.327c7.815 21.223 9.085 24.146 18.933 46.64-11.436-25.671-16.074-38.951-23.126-59.03"/><path fill="#00344A" d="M40.336 261.996c-.444 1.398-1.016 3.241-1.461 4.639l.063.063 1.462-4.638zm4.765 2.796a136 136 0 0 0-5.019 3.304s0 .064.064.064l5.146-3.305zm36.85-21.223s0-.064-.064-.064c-15.947 8.578-18.297 10.04-36.659 21.287l.127.063c13.914-8.768 16.964-10.421 36.596-21.286m-4.892-65.83-.064-.063c-15.248 27.831-23.063 44.733-36.595 84.193l.063.063c13.914-41.81 23.889-60.492 36.596-84.193m2.223.636h-.063c.063 25.289 2.033 43.145 4.13 62.08-.763-6.29-1.525-14.678-2.16-20.969-1.335-15.758-1.335-15.758-1.907-41.111M76.164 143.427c-.381-5.846-.635-13.661-.826-19.507zm58.324-35.456c-24.207 1.334-30.56 1.906-49.43 3.558 23.127-2.033 27.638-2.287 49.43-3.558m.826 1.461s-.064 0-.064-.063l-3.24 3.367c-27.256 28.848-33.546 36.791-50.382 57.951 20.966-26.879 36.849-43.59 53.686-61.255M6.028 220.121c-1.78 1.398-4.193 3.304-5.972 4.766v.127l6.035-4.766zm-.509-31.389c-1.842 7.752-3.812 18.236-5.4 26.115 1.398-7.942 3.685-18.3 5.4-26.115m.064-.064c-1.842 7.816-3.876 18.3-5.4 26.179 1.397-7.879 3.685-18.363 5.4-26.179m5.591-20.588c-1.843 6.1-3.94 14.361-5.655 20.461 1.525-6.164 4.194-13.598 5.655-20.461m.064.064c-1.843 6.1-3.94 14.297-5.655 20.46 1.525-6.227 3.94-14.36 5.655-20.46m16.074 36.727v-.127c-6.417 4.448-14.867 10.612-21.157 15.25l.063.064c6.227-4.639 14.677-10.675 21.094-15.187m4.066-2.859c0 .063.063.063 0 0 0 .063 0 .063.063.127l13.787-8.832v-.128zm13.913-8.833v.128c9.086-5.465 21.284-12.518 30.496-17.792-9.212 5.147-21.41 12.2-30.496 17.664"/><path fill="#00344A" d="M56.661 96.344c0 .063 0 .063-.063.127.19 0 .444.063.635.063 0 0 0-.063.064-.063zm.953.127c0 .063 0 .063-.063.127l.89.127.063-.127zm1.017.127-.064.127 7.878 1.08.064-.127zm23.761 15.186q0-.094 0 0c-1.397.064-3.303.255-4.701.382v.127zm-15.82-14.106-.063.127c5.273.7 12.325 1.652 17.599 2.351v-.127c-5.274-.699-12.262-1.652-17.536-2.35m58.896 10.675c-16.138.89-20.331 1.335-40.407 3.177 19.759-1.715 26.557-2.224 49.429-3.622zm-41.233-8.324v.127c16.137 2.161 21.792 2.987 50.382 7.244-18.425-2.923-30.56-4.575-50.382-7.371M49.546 102.887c-4.765 5.655-10.928 13.344-15.565 19.126 4.574-5.782 10.927-13.407 15.629-19.126zM34.108 123.03c4.955-1.398 11.563-3.177 16.455-4.512zm.063-.064c4.956-1.398 11.563-3.177 16.519-4.511-5.02 1.271-11.627 3.113-16.519 4.511m19.06-24.21-3.621 4.067h.063zm1.017-1.143q-.096 0 0 0c-.255.19-.509.445-.7.699 0 0 0 .064.064.064.19-.255.445-.509.636-.763m2.033-.699-.064.064c.127.127.318.254.445.38l.063-.063zm.699.635-.064.064.89.826.063-.127zm.953.826-.064.128 5.591 4.765.063-.127zm6.607 5.656-1.017-.826-.063.127 5.21 4.194.254.063zm8.323 8.959a1511 1511 0 0 0-16.328 3.94c4.828-1.271 11.372-2.796 16.328-3.94m-3.748-5.337-.255-.064c1.398 1.08 3.304 2.542 4.702 3.622l.063-.064z"/><path fill="#00344A" d="M33.598 124.175c2.541 3.558 6.226 8.133 8.894 11.564-2.795-3.368-6.29-8.07-8.894-11.564m.508-1.208v.127c4.956-1.398 11.563-3.177 16.455-4.511l.064-.127c-4.956 1.271-11.563 3.113-16.52 4.511m16.646-4.575-.064.127 5.655-1.461.063-.127zm5.718-1.461-.064.127 9.657-2.351 6.735-1.652c-4.892 1.08-11.373 2.668-16.328 3.876m19.695 26.497c.635 8.07 1.779 18.808 2.732 26.814-2.541-22.557-2.541-23.447-3.494-46.512l-.064.127m-.127-7.943.064 7.816.063-.127-.063-7.752zm.064-.89h-.064v.763l.064-.064c.063-.19.063-.508 0-.699"/><path fill="#00344A" d="M41.924 167.448c-4.765-.763-11.055-1.843-15.82-2.669l-9.72-1.588 6.226 1.08c5.782 1.016 13.533 2.287 19.378 3.24zm-8.323-43.272-.063.063c2.541 3.559 6.163 8.07 8.895 11.565l.063-.064c-2.796-3.367-6.29-8.069-8.895-11.564m8.959 11.628-.064.064 2.16 2.541.064-.127zm-.509 31.644v.127l6.735 1.08.063-.127zm3.304-28.34-.635-.762-.064.127 1.08 1.271.064-.128zm.508.636-.063.127c3.43 3.939 8.196 8.959 11.753 12.772l.064-.128c-3.558-3.748-8.196-8.895-11.754-12.771m3.113 28.848-.063.127c8.132 1.334 18.996 3.113 27.192 4.384-8.196-1.398-18.996-3.177-27.129-4.511m8.768-16.013-.063.127c5.718 5.719 13.469 13.217 19.314 18.809-5.845-5.592-13.533-13.217-19.251-18.936M-8.267 144.061c-1.017.572-2.35 1.334-3.367 1.97v.127zm3.685-2.161c-.381.064-.826.445-1.207.699-.064 0-.064.064-.064.127l1.398-.826zm-7.434 5.211c3.05 2.414 7.307 5.337 10.483 7.498-3.24-2.097-7.37-5.147-10.483-7.498m7.56-5.338h.128c3.558-2.033 8.45-4.575 12.071-6.545l.064-.127c-3.685 1.97-8.577 4.702-12.262 6.672m14.423 19.253c-3.494-1.842-8.005-4.447-11.436-6.417 3.367 2.033 8.005 4.511 11.436 6.417m-11.373-6.481c3.368 2.034 8.006 4.512 11.437 6.418-3.495-1.843-8.07-4.512-11.437-6.418m22.047-8.324c-1.589 3.304-3.685 7.689-5.274 10.993h.064l5.273-10.993zm8.894-21.413c-6.544 2.986-15.184 7.116-21.601 10.293l-.064.127c6.48-3.24 15.185-7.307 21.665-10.357zm1.08 2.605-6.035 11.12-3.94 7.625h.064c2.86-5.656 6.925-13.09 9.911-18.682zm-1.016-2.605.063.063c.636-.254 1.462-.635 2.097-.889v-.064zm2.478.063-1.462 2.415v.063z"/><path fill="#00344A" d="M-12.592 148.002c-.7 11.374-.7 12.136.762 32.089-1.334-12.137-1.27-12.899-.762-32.089m12.706 66.91c-.317 2.097-.762 4.829-1.08 6.926l.064.063zm-6.29-63.479c-1.778-1.271-4.065-3.05-5.78-4.384 0 0-.064.063-.064.127 3.05 2.414 7.306 5.337 10.483 7.498l.063-.127zm11.69 37.299c-1.842 7.752-3.811 18.237-5.4 26.116l.064.064c1.398-7.88 3.685-18.364 5.4-26.18zm-6.924-34.185-.064.127c3.367 2.033 8.005 4.511 11.436 6.354v-.063c-3.43-1.843-8.005-4.512-11.372-6.418m12.643 13.534c-1.906 6.1-4.003 14.297-5.718 20.461h.063c1.525-6.164 3.94-14.297 5.655-20.461M32.775 122.014c-.89.636-1.017 1.652-1.08 1.779-.127.826.381 1.525 1.461.763l.127-.127zm1.398.572c0-.572-.382-1.144-1.271-.635.127.699.381 1.715.508 2.414.445-.445.7-1.08.763-1.652z"/><path fill="#00344A" d="M-.136 223.363c-.19-.699-.445-1.207-.89-1.589-1.842-1.334-3.494 1.589-3.05 4.385.382 2.351 2.097 3.113 3.305 1.461.508-.762 1.08-2.224.762-4.003-.064-.063-.064-.127-.127-.254M128.963 192.799c-1.08-2.732-4.638-2.732-5.781.064 0 0 0 .063-.064.063-1.143 2.796 1.334 5.655 4.003 4.512.953-.382 2.605-1.843 1.969-4.385a.5.5 0 0 1-.127-.254M80.931 173.355c.19.572.127 1.207-.19 1.779-.763 1.462-2.606 1.589-3.114-.19-.063-.255-.19-.89.254-1.653.763-1.397 2.605-1.397 3.05.064m1.779-.89c-.064-.19-.127-.381-.254-.571-1.398-2.86-5.4-2.097-6.48 1.334-1.08 3.495 1.651 6.354 4.574 4.766 1.27-.699 2.605-2.415 2.287-4.957 0-.19-.064-.445-.127-.572"/><path fill="#00344A" d="M80.934 173.354c-.509-1.462-2.288-1.462-3.05 0-.826 1.525.127 3.241 1.588 2.859.763-.19 1.78-1.207 1.462-2.668q.094-.096 0-.191M77.689 111.211c-.381-1.906-2.922-1.843-4.257.127-1.461 2.224-.38 4.194 1.525 3.749 1.017-.19 2.287-1.207 2.669-2.859.063-.381.063-.636.063-.826q.096-.095 0-.191M56.852 95.388c-.063-1.017-1.144-1.144-2.097-.128-1.08 1.144-1.08 2.67.064 2.606.826-.064 1.97-1.144 2.033-2.288z"/><path fill="#00344A" d="M57.612 94.944c0 .635-.254 1.207-.317 1.461-.636 1.335-1.906 2.351-2.923 2.288-1.525-.064-1.525-2.288.064-3.94 1.46-1.461 3.176-1.334 3.176.19m.445-.19c-.064-.89-.572-1.462-1.334-1.462-2.287-.064-4.829 3.876-3.495 5.464 1.335 1.462 4.638-1.08 4.765-3.685a.7.7 0 0 0 .064-.318M16.384 158.423c-1.271-2.859-4.702-1.398-6.417 2.605-.254.699-1.017 2.605-.636 4.702.318-.317.763-.762 1.08-1.144-.19-1.207.128-2.414.382-2.986 1.016-2.669 3.494-4.194 4.51-1.97.318-.317.763-.762 1.144-1.08 0 0-.063-.064-.063-.127m.38 1.652c-.063-.762-.19-1.207-.317-1.461-.317.317-.762.762-1.143 1.08.571 1.588 0 3.558-.7 4.765-1.334 2.224-3.62 2.733-4.193.255-.317.317-.762.762-1.08 1.143.191.826.636 1.907 1.843 2.224 2.35.509 5.464-2.986 5.59-7.434z"/><path fill="#00344A" d="M15.305 159.565c-.19-.317-.381-.571-.635-.762-1.906-1.207-4.765 2.605-4.193 5.782 1.46-1.461 3.43-3.495 4.892-4.956-.064 0-.064 0-.064-.064m.318 1.271c-.064-.572-.19-.889-.254-1.08-1.462 1.462-3.431 3.495-4.892 4.956.063.255.19.763.571 1.208 1.398 1.525 4.32-.89 4.638-4.575-.063-.127-.063-.382-.063-.509M30.61 200.932a1.52 1.52 0 0 0-.89-.317c-1.97-.127-3.557 3.431-1.906 5.528zm.89 1.525c-.191-.889-.636-1.27-.827-1.461-.825 1.588-1.97 3.622-2.795 5.21l.19.191c1.462 1.271 3.749-.572 3.495-3.558 0-.191 0-.318-.064-.382M138.428 106.955c-.572-1.525-2.922-1.335-3.685.254-.127.254-.19.508-.19.699-.127 1.715 1.842 2.287 3.113 1.271.318-.255 1.016-.954.826-2.034-.064-.063-.064-.127-.064-.19"/><path fill="#00344A" d="m-6.613 208.557 6.734 6.354zM30.106 99.836c.508 6.672 1.715 15.504 2.795 22.113-1.144-6.545-2.224-15.441-2.796-22.113" opacity=".302"/><path fill="#00344A" d="m32.902 121.949.509 2.478z"/><path fill="#00344A" d="M9.334 165.792C3.17 172.4-4.834 181.423-10.743 188.285c5.845-6.926 13.914-15.885 20.077-22.493" opacity=".302"/><path fill="#00344A" d="m15.302 159.693-4.892 4.957z"/><path fill="#00344A" d="M9.334 165.857c-6.163 6.609-14.168 15.632-20.077 22.494zm19.314-66.401q0-.096 0 0l-4.701 7.371v.063z" opacity=".302"/><path fill="#00344A" d="m15.366 159.758-4.956 4.956z"/><path fill="#00344A" d="M7.81 135.294c-1.335 1.398-2.034 4.003-2.923 5.719h.063l2.923-5.846zm16.073-28.403c-5.019 8.387-11.372 19.698-16.01 28.276l.063-.064c4.575-8.578 10.992-19.825 15.947-28.149z" opacity=".302"/><path fill="#00344A" d="m7.869 135.166-.064.129.064-.065.064-.128z"/><path fill="#00344A" d="M-11.888 180.217c-1.27 3.749-2.986 8.705-4.257 12.454l.064.063 4.193-12.327zm10.356-25.608c-3.304 7.562-7.306 17.792-10.356 25.48v.128c2.986-7.753 7.243-17.919 10.356-25.608m3.94-8.324q-.096 0 0 0l-3.876 8.197h.063zM18.356 248.208l-3.622 4.512.064.063 3.685-4.511zm27.002-29.61-.064-.064c-10.991 11.12-11.563 11.819-26.938 29.611l.063.063c9.15-10.929 10.166-12.009 26.939-29.61m1.08-1.081-.064-.063-.699.699c0 .063.064.063.064.127.254-.254.508-.508.699-.763M9.71 242.108l-.952 1.842.063.064.953-1.843zm5.719-10.485-.064-.063-5.59 10.484.063.064zm29.48-14.424c-7.815 3.114-18.171 7.435-25.922 10.739 7.687-3.304 18.107-7.562 25.921-10.739M45.293 217.073v.127a4.5 4.5 0 0 1 .826-.318v-.127zm2.096-4.194h-.063c.063.318.127.763.127 1.144h.063a7 7 0 0 0-.127-1.144m-2.16-19.571c.445 5.719 1.398 13.344 1.97 18.999h.063c-.762-5.718-1.397-13.343-2.033-19.062zm-.826-14.042h-.063l.89 13.915.063-.063z" opacity=".302"/><path fill="#00344A" d="M45.23 193.18v.128l.065-.064v-.064z"/><path fill="#00344A" d="M27.944 206.143c-3.113 5.91-6.861 14.043-9.784 20.016 2.732-6.037 6.798-13.979 9.784-20.016m15.439-27.069c-3.94 6.481-8.895 15.314-12.707 21.859 3.685-6.609 8.895-15.314 12.707-21.859" opacity=".302"/><path fill="#00344A" d="m30.74 200.996-2.795 5.147z"/><path fill="#00344A" d="M43.319 179.012c-3.94 6.481-8.958 15.313-12.707 21.858 3.685-6.608 8.895-15.313 12.707-21.858" opacity=".302"/><path fill="#00344A" d="m30.615 200.932-2.732 5.147z"/><path fill="#00344A" d="M18.988 227.939c4.892-2.033 11.373-4.766 16.265-6.799l9.657-3.876v-.127c-7.815 3.24-18.234 7.498-25.922 10.802M27.943 206.143q-.096 0 0 0l-4.702 9.023c-1.588 3.304-3.621 7.689-5.21 10.993l.064.063c2.795-6.1 6.861-14.042 9.848-20.079m15.438-27.069c-4.002 6.418-8.958 15.25-12.707 21.859 3.685-6.609 8.895-15.314 12.707-21.859" opacity=".302"/><path fill="#00344A" d="M30.68 200.932c-.89 1.525-1.97 3.558-2.86 5.147l.064.063c.89-1.525 1.97-3.622 2.795-5.21"/><path fill="#00344A" d="M5.582 188.539c16.455-5.083 19.886-6.1 37.294-10.738-18.996 5.147-21.982 5.909-37.294 10.738M-9.793 193.815c4.574-1.589 10.737-3.749 15.375-5.274-4.638 1.589-10.8 3.622-15.375 5.274M.18 214.848v.127l.89.826 4.955 4.321.063-.064zm5.972 5.274-.064.063c2.669 2.161 6.163 5.084 8.831 7.244v-.064z" opacity=".302"/><path fill="#00344A" d="m6.088 220.058-.063.064.063.063.064-.063z"/><path fill="#00344A" d="m-2.105 212.752-4.575-4.385.064.191 6.734 6.354v-.127z" opacity=".302"/><path fill="#00344A" d="M.118 214.785v.127l.064.064z"/><path fill="#00344A" d="M5.582 188.542v.127c8.831-2.859 8.831-2.859 28.463-8.387l8.831-2.415c-17.408 4.575-20.839 5.592-37.294 10.675M-9.793 193.816v.127c4.574-1.589 10.674-3.749 15.312-5.21v-.128c-4.575 1.525-10.738 3.559-15.312 5.211" opacity=".302"/><path fill="#00344A" d="M5.519 188.605v.128h.063v-.128z"/><path fill="#00344A" d="M-10.806 188.349c-1.398 1.779-3.24 4.13-4.702 5.909v.064l4.702-5.846zm20.14-22.494v-.063C3.17 172.4-4.834 181.423-10.743 188.285v.064c5.845-6.863 13.978-15.886 20.077-22.494m18.87-18.491a2046 2046 0 0 0-11.754 11.247v.064l7.878-7.625 3.939-3.686zm6.353-5.718v-.064l-6.227 5.655h.127z" opacity=".302"/><path fill="#00344A" d="M10.412 164.713v-.063c-.318.317-.762.762-1.08 1.144v.063c.381-.318.762-.762 1.08-1.144m6.036-6.036v-.064c-.318.318-.763.763-1.144 1.081 0 0 0 .063.064.063z"/><path fill="#00344A" d="M15.366 159.757c-1.525 1.398-3.431 3.431-4.956 4.892v.064a182 182 0 0 0 4.956-4.956"/><path fill="#00344A" d="m57.68 152.513.063.063c5.146-8.705 12.199-20.143 17.535-28.721v-.127c-5.4 8.578-12.452 20.079-17.598 28.785m25.223-40.032c-.064-.063 0-.063 0 0l-7.498 11.12v.127z" opacity=".302"/><path fill="#00344A" d="M75.281 123.729v.19l.127-.19v-.127z"/><path fill="#00344A" d="M48.787 168.653a381 381 0 0 1-3.685 7.18s.063 0 .063.064l3.685-7.18zm8.83-16.012L48.85 168.59h.064l8.704-15.886z" opacity=".302"/><path fill="#00344A" d="m48.845 168.59-.064.127h.064l.063-.127zm8.83-16.076-.063.127.064.063.063-.127z"/><path fill="#00344A" d="M75.216 115.914c-7.75 4.512-17.916 10.675-25.54 15.314 7.624-4.702 17.853-10.802 25.54-15.314" opacity=".302"/><path fill="#00344A" d="m75.34 115.848-.13.064z"/><path fill="#00344A" d="M58.828 125.445c4.892-2.987 11.5-6.736 16.392-9.659-4.956 2.86-11.5 6.799-16.392 9.659M39.894 156.708l-1.27-7.942h-.128c.89 5.591 2.35 13.026 3.43 18.617h.128zm2.16 10.866h-.127l1.779 7.816.19.572h.064z" opacity=".302"/><path fill="#00344A" d="M42.05 167.445h-.128l.064.129h.064z"/><path fill="#00344A" d="M37.728 142.537s-.064 0-.064.064c.254 1.842.572 4.257.826 6.1h.127zM46.114 133.385l-.063.127 3.494-2.224.064-.127z" opacity=".302"/><path fill="#00344A" d="m69.114 107.654-.255-.064z"/><path fill="#00344A" d="m58.825 125.445-9.086 5.591-.063.128c7.624-4.703 17.853-10.803 25.54-15.314v-.127c-4.955 2.923-11.5 6.862-16.391 9.722m23.634-13.598-.064-.064-7.052 3.94v.127z" opacity=".302"/><path fill="#00344A" d="M75.21 115.785v.129l.13-.064v-.065z"/><path fill="#00344A" d="M31.95 97.994c5.272 1.589 12.325 3.495 17.598 4.893a909 909 0 0 1-17.599-4.893" opacity=".302"/><path fill="#00344A" d="m49.55 102.887.065.064z"/><path fill="#00344A" d="m42.496 135.737.064.063 3.303-2.16.127-.064v-.127zM42.371 135.801l-2.16 1.461v.064c.699-.445 1.588-1.017 2.16-1.525" opacity=".302"/><path fill="#00344A" d="m42.5 135.738-.129.065.064.064.129-.064z"/><path fill="#00344A" d="m30.103 99.836-.064.064c.508 6.671 1.715 15.504 2.86 22.112-1.145-6.608-2.225-15.504-2.796-22.176m3.303 24.591-.063.063c.953 3.559 2.16 8.261 3.05 11.819 0 0 .063 0 .063-.063zM32.01 97.93c3.748 1.143 8.767 2.541 12.516 3.558-3.749-1.017-8.768-2.478-12.516-3.558" opacity=".302"/><path fill="#00344A" d="m32.903 121.949-.063.064c.127.762.381 1.715.508 2.414l.064-.063z"/><path fill="#00344A" d="m55.646 104.349-.064.063c1.398.318 3.177.763 4.574 1.081 0 0 0-.064.064-.064zm28.463-4.194c-.064 2.796-.191 6.608-.318 9.404h.063l.318-9.34zm-.318-36.092q0-.094 0 0c-4.892 2.669-11.31 6.355-16.201 9.15l-.064.064c4.892-2.86 11.373-6.481 16.265-9.214m3.748 1.652h-.063c-2.033 14.17-2.097 14.933-3.367 34.313h.063c.953-16.076 1.144-17.41 3.367-34.313" opacity=".302"/><path fill="#00344A" d="M84.11 100.027v.129h.128v-.129z"/><path fill="#00344A" d="M68.668 107.46c-1.334-.635-3.367-.762-4.765-1.144 0 0 0 .064-.063.064l5.019 1.207zm.254.064.191.127c4.003.953 9.403 2.16 13.406 3.05v-.064c-4.066-.889-9.467-2.16-13.597-3.113" opacity=".302"/><path fill="#00344A" d="m68.926 107.527.192.129zM68.926 107.525l-.254-.064.19.127.255.064z"/><path fill="#00344A" d="M44.529 101.489c-3.749-1.017-8.768-2.478-12.516-3.558l-.064.063c5.273 1.589 12.326 3.495 17.599 4.893l.063-.064zm5.21 1.334-.064.064 5.909 1.461.063-.063zm-17.027-7.434q0 .096 0 0c14.866-10.04 18.297-12.136 34.816-22.113l.063-.063c-16.264 9.722-19.123 11.628-34.88 22.176" opacity=".302"/><path fill="#00344A" d="m49.68 102.824-.13.065.065.064.128-.129z"/><path fill="#00344A" d="M5.134 143.618c0 .064 0 .064-.064.128 4.638.826 10.865 1.779 15.566 2.478l.064-.127c-4.702-.636-10.928-1.716-15.566-2.479m33.482 5.084h-.127l-10.102-1.398h-.127l-7.56-1.08-.064.127 7.497 1.08h.127l10.229 1.461h.127c.635.064 1.525.191 2.224.318v-.127zm-.572-6.354c-.063 0-.063.063-.063.063.953 1.716 2.287 4.003 3.24 5.719l.063-.064z" opacity=".302"/><path fill="#00344A" d="m20.637 146.224.064-.064zM20.7 146.16l-.063.065.064.064.064-.129z"/><path fill="#00344A" d="M23.94 106.89v-.064l-1.143-5.846 1.08 5.973v.064c1.398 5.465 3.748 12.581 5.654 17.855l.064-.063c-1.97-5.338-4.13-12.518-5.654-17.919m5.718 17.982-.063.064 1.08 2.541.064-.127zm1.017 2.478-.064.127a710 710 0 0 0 4.765 9.977s0-.064.064-.064z" opacity=".302"/><path fill="#00344A" d="m29.595 124.809-.064.063.064.064.063-.064zm1.08 2.478-.064.127v.063l.064-.127z"/><path fill="#00344A" d="M-5.347 141.582c0 .064 0 .064-.063.127l.762.191.127-.064zm1.017.254-.127.064c2.033.381 4.701.953 6.734 1.334 0 0 0-.063.064-.063zM-11.444 125.063l-.064-.762v-.064c-.063-.889-.127-2.097-.19-2.986l-.064.063.19 2.987v.063c.319 2.669 1.208 6.1 1.78 8.769v.064l2.478 6.608c-1.589-4.321-3.177-10.23-4.13-14.742m30.496-22.875C8.315 116.93 8.061 117.311-5.091 138.598c9.276-15.377 10.992-17.728 24.143-36.41M-6.234 109.495l-.063.127-3.876 7.117 1.97-3.686 1.906-3.431zm6.1-9.468c2.795-.317 6.48-.699 9.212-.953-2.795.254-6.48.636-9.212.953m-3.177 13.471-2.796 1.97-.063.064-4.193 3.177 4.13-3.05.063-.064 2.795-1.97.064-.063c3.685-2.542 8.704-5.719 12.453-8.134l9.91-5.909c-9.212 5.274-9.974 5.782-22.363 13.979M-2.17 97.868c-.572-1.144-.699-2.923-.635-4.194.063-1.017.889-2.288 1.27-3.24l-.063.063c-1.335 2.287-1.335 2.287-1.08 6.354.063 1.017 1.143 2.033 1.652 2.923v-.064zm29.797-37.3C13.587 73.404 13.587 73.404.371 88.082c5.083-5.655 11.817-13.344 17.408-18.49 2.986-2.67 7.053-6.164 9.848-9.024M.117 98.567C9.711 81.029 16.064 73.849 27.5 60.823 14.285 74.675 9.266 83.189.117 98.566" opacity=".302"/><path fill="#00344A" d="M27.565 60.823q-.096.094 0 0C14.286 74.739 9.267 83.19.182 98.567c9.53-17.538 15.883-24.718 27.383-37.744M9.077 99.012c-2.796.317-6.48.698-9.213 1.016l-.063.064c11.245-1.208 11.245-1.208 19.95-2.16-3.24.317-7.498.762-10.674 1.08M28.2 60.314l-.063.063c-11.31 14.106-8.704 25.544-6.544 34.757-5.337-17.156 1.016-26.56 6.607-34.82M63.463 103.268c-.063.064-.063.191-.127.254h.064zm2.986-5.528-2.922 5.401.063.063 2.923-5.4zm19.124-31.898q-.096 0 0 0c-7.751 11.946-7.942 12.327-19.06 31.77h.063c7.18-12.835 8.26-14.614 18.997-31.77" opacity=".302"/><path fill="#00344A" d="m66.51 97.676-.065.064.065.065.064-.13zM63.525 103.141l-.064.128h.064l.064-.064z"/><path fill="#00344A" d="m50.628 118.518-4.574 14.932-.064.127-1.334 4.702.064.064 1.334-4.893.063-.127 4.575-14.869zm7.18-20.08-2.224 5.91-.064.064-4.892 13.979h.064l4.892-13.979.063-.064zm.699-1.779-.636 1.652.064.064.635-1.652zm3.303-7.879h-.063l-3.177 7.816h.064zm22.491-23.637c-5.527 5.274-12.834 12.454-18.297 17.855 5.4-5.401 12.77-12.518 18.297-17.855" opacity=".302"/><path fill="#00344A" d="m58.568 96.596-.064.064.064.064.064-.128zM57.864 98.313l-.064.127.064.063zM50.63 118.453l-.064.129h.065l.064-.129z"/><path fill="#00344A" d="m44.592 138.469-2.287 8.832h.063c.7-2.605 1.589-6.164 2.287-8.769z" opacity=".302"/><path fill="#00344A" d="m44.654 138.344-.064.128.064.065.064-.129z"/><path fill="#00344A" d="m56.347 117.058-6.734 14.106-.064.127-3.748 8.388.063.063 3.812-8.514.064-.127 6.67-14.043zm4.511-8.769-4.447 8.642h.063z" opacity=".302"/><path fill="#00344A" d="m56.408 116.93-.064.128h.064l.064-.128z"/><path fill="#00344A" d="m45.798 139.805-3.177 7.498h.064a899 899 0 0 0 3.176-7.498z" opacity=".302"/><path fill="#00344A" d="M45.8 139.678v.128l.065.065v-.129z"/><path fill="#00344A" d="M78.775 48.304c-4.256 8.133-4.383 8.451-11.309 24.909l-.063.063-3.876 10.739 3.94-10.739.063-.063c3.812-9.595 4.066-10.167 11.245-24.909m5.528 16.902c-5.591 5.274-12.897 12.455-18.298 17.856l-1.27 1.398c5.781-5.846 13.66-13.535 19.568-19.254M79.665 47.86c-.064 0-.064.064-.064.064 1.97 3.368 4.829 7.688 7.052 10.866 0 0 .064 0 .064-.064-2.224-3.177-5.02-7.561-7.052-10.866M66.956 41.252c-19.822 20.206-29.86 34.82-41.487 51.723 17.599-26.37 29.225-38.697 41.487-51.723m11.31 6.862C52.724 68.003 40.97 79.44 26.103 93.992c20.394-20.27 33.863-31.327 52.161-45.878M76.042 44.81c-1.842-1.398-4.066-3.622-5.654-5.274l-.064.064 3.495 3.558c1.46 1.144 3.43 2.669 4.955 3.75l.064-.065zm24.651-29.928C89.067 22.38 85.255 25.557 72.484 36.105c14.486-12.01 14.74-12.2 28.146-21.223-10.42 9.34-15.502 20.016-20.84 31.326 8.197-18.554 14.105-24.527 20.967-31.39zM82.395 111.783c.254 1.017 1.715 1.144 2.604-.19l.064-.064zm2.922-1.525a1.23 1.23 0 0 0-.318-.572c-1.016-.826-2.731.572-2.54 1.97.825-.063 1.905-.191 2.731-.254.064-.191.254-.572.19-1.017-.063 0-.063-.063-.063-.127" opacity=".302"/><path fill="#00344A" d="m82.395 111.783 2.668-.254zM82.395 111.72v.064c.762-.064 1.842-.191 2.604-.255 0-.063.064-.063.064-.127z"/><path fill="#00344A" d="M45.673 176.659c-.254-.889-1.016-1.207-1.779-.762-.953.699-.953 1.779-.953 2.033.064.826.509 1.144.509 1.144 1.143.89 2.541-.699 2.287-2.224v-.064c-.064 0-.064-.063-.064-.127M32.715 96.214c.254-1.398-.635-1.843-1.842-.953-1.906 1.398-2.986 4.511-1.652 4.765.254.064.572 0 .89-.19 1.524-.89 2.35-2.542 2.54-3.495 0-.063.064-.063.064-.127M18.863 227.493c-.699-2.224-2.668-2.541-3.748-.571-1.335 2.414.127 6.036 2.16 5.337 1.27-.445 2.033-2.415 1.715-4.257 0-.127 0-.127-.063-.254 0-.064-.064-.191-.064-.255M49.294 215.166c-.508-1.525-2.16-1.588-2.859-.19-.444.889-.254 1.715-.254 1.715.318 1.652 1.906 2.161 2.796.89.317-.509.635-1.335.38-2.224 0-.064-.063-.127-.063-.191" opacity=".302"/><path fill="#00344A" d="M50.12 214.656c.317.953.254 1.843.127 2.288-.508 2.414-3.05 3.621-4.511 1.334-.19-.318-.318-.699-.445-1.08v-.064a4.3 4.3 0 0 1 .381-2.605c1.08-2.351 3.622-2.224 4.448.127m.381-.254a3.58 3.58 0 0 0-1.207-1.716c-2.287-1.652-5.083 1.271-4.384 4.639.318 1.525 1.144 2.16 1.525 2.351 2.414 1.461 5.082-1.716 4.193-4.956-.063-.064-.063-.255-.127-.318M40.27 137.646c-.126-2.542-2.54-2.987-4.383-.826-1.017 1.144-1.843 3.113-1.334 4.765.762 2.352 3.685 1.589 5.082-1.27.445-.826.636-1.716.636-2.669q0 .095 0 0M.181 106.509c-.381 1.081-1.334 2.351-1.906 2.606-.127.063-.572.19-.127-1.017.445-1.08 1.334-2.224 1.842-2.415.318-.127.382.191.191.826m.318-.254c.254-.699.254-1.144.063-1.207-.699-.254-3.367 3.368-2.986 4.638.381.636 2.033-1.27 2.86-3.177 0-.127.063-.19.063-.254M5.327 142.284c0-1.398-.89-1.779-1.906-.826-1.652 1.525-2.16 4.892-.762 4.892 1.08 0 2.478-1.969 2.668-3.812zM64.226 104.602c-.255-1.716-2.351-1.589-3.685.254-1.271 1.843-.7 3.749 1.016 3.431 1.398-.254 2.732-1.97 2.669-3.431.063-.064 0-.127 0-.254" opacity=".302"/><path fill="#00344A" d="M.183 106.508c.254-.636.19-1.017-.19-.89-.89.318-2.479 3.241-1.907 3.495.381.127 1.525-1.207 2.033-2.478 0 0 0-.064.064-.127M90.019 60.568c0 .445-.19.89-.635 1.334-.89.89-2.224 1.017-2.224-.063 0-.191.064-.572.508-1.08.89-1.08 2.287-1.208 2.351-.191m2.668-1.144c-.127-1.144-.889-1.906-2.16-2.033-3.558-.318-8.513 4.956-6.29 7.752l.064.063c2.224 2.351 8.26-1.525 8.386-5.4zM43.192 148.129c-.127-.953-1.144-1.143-1.97-.063-.698.953-.444 2.478.572 2.287.572-.127 1.398-.889 1.398-2.097zM80.426 46.716c.127-.635-.571-.699-1.334-.127-.063.064-.19.127-.317.254-.7.7-.826 1.462-.191 1.462.508 0 1.525-.636 1.842-1.525zM25.976 95.452c.572-2.351-.572-3.24-2.478-2.034-1.843 1.144-3.876 3.94-4.51 6.228-.7 2.414.19 3.621 2.096 2.605 1.334-.699 3.748-3.05 4.828-6.545.064-.064.064-.19.064-.254M64.983 85.287c0-1.525-1.652-1.716-3.113-.318-1.588 1.525-1.715 3.749-.127 3.813 1.143.063 3.05-1.398 3.24-3.368z" opacity=".302"/><path fill="#00344A" d="M90.016 60.57c-.063-.954-1.461-.89-2.35.127-.826.953-.572 1.97.38 1.906.763-.064 1.907-.826 1.97-1.97zM.182 99.393c.254-.572.317-.954.127-.89-.636.19-2.415 2.923-2.033 3.177.254.191 1.207-.889 1.906-2.224-.064 0 0-.063 0-.063M72.356 37.25c.508-.954.254-1.398-.636-1.144-2.287.635-5.908 4.448-4.828 5.147.635.38 2.478-.7 3.494-1.653 1.207-1.016 1.716-1.842 1.906-2.16-.063-.063 0-.127.064-.19M-.2 88.846c1.08-1.398 1.208-1.59 1.208-1.653-.318.191-4.003 4.83-4.32 5.401.063-.063.38-.38 1.715-2.033.572-.699 1.016-1.334 1.27-1.589.064 0 .064-.063.128-.126M29.535 59.043c.508-.572.572-.636.572-.7-.381.128-2.605 2.352-2.732 2.606.064 0 .064 0 .127-.064.254-.19 1.017-.826 1.906-1.779.064 0 .064-.063.127-.063" opacity=".302"/></svg>