<svg xmlns="http://www.w3.org/2000/svg" width="509" height="315" fill="none"><path fill="#00344A" d="M535.966 21.172c13.305 10.318 13.512 10.524 21.144 21.358l.206.103c-11.551-14.651-12.067-15.167-21.247-21.358zm21.247 21.461 3.094 4.747h.104c-.929-1.445-2.166-3.302-3.095-4.747zm-26.61-23.318c-8.767-1.858-22.072-.413-39.297 4.333h.207c21.35-5.159 22.587-5.468 39.296-4.333-.103.103-.103 0-.206 0m-46.62 6.913.207.103 7.219-2.58h-.206zM562.576 51.3c2.579 5.159 6.086 12.072 8.355 17.334h.103c-2.475-5.262-5.466-12.279-8.251-17.334zM483.88 26.228l-13.099 5.881c.103 0 .103 0 13.202-5.778zm-6.704 10.524c37.44 11.144 46.413 13.826 86.638 32.399-42.597-19.501-43.319-19.81-86.638-32.399"/><path fill="#00344A" d="m585.683 54.188 21.556 10.628.206.103 20.835 11.866-20.731-11.866-.207-.103zm-1.96 2.476 20.319 8.358.206.103 24.135 11.97-24.032-11.97-.206-.103zm-57.346-23.937c9.282 2.992 21.762 6.5 30.839 9.802l.206.103 28.054 11.453-28.157-11.453-.206-.103zm-12.996 5.881.206.103c13.099 2.58 30.53 5.985 43.526 9.39-13.099-3.096-30.53-7.223-43.732-9.493m0 .103-.206-.103c-11.036-1.238-25.785-3.095-36.925-3.818 0 0 .104 0 .104.104M457.579 17.663l.413.103c10.005 1.754 23.413 3.715 33.315 5.882h.206l24.754 6.19-24.651-6.19h-.206c-10.211-1.858-23.723-4.644-33.831-5.985m-13.408-1.65c3.92.515 9.283 1.134 13.305 1.65l-.412-.103-12.377-1.548zM496.67 31.18l.206.103 2.269-.103h18.153c-.722-.516-2.063-.104-2.991-.207zM424.162 14.36l14.13 1.032c-.516 0-.516 0-14.13-1.032m-1.135.62 11.243 4.127.103-.104-11.139-4.127c-.104 0-.104 0-.207.103m50.849 18.262 22.897-1.96-.206-.103-22.794 1.96c0 .103 0 .103.103.103m-39.4-14.135c8.045 3.714 18.875 8.46 26.817 12.588-7.942-3.818-18.566-9.183-26.817-12.588M522.766 15.29l2.063.619a52 52 0 0 1-2.063-.62q-.154 0 0 0m2.166.825c.413.104 1.031.31 1.444.413-.103 0-.103 0-1.547-.413 0-.103.103-.103.103 0M421.379.225c7.116-.206 45.382-.412 100.252 14.755-39.709-9.699-71.063-17.334-130.679-13.929h.103m132.949 14.755c-38.162-10.215-64.051-7.223-86.845-4.643h.516c14.13-1.445 33.108-2.786 47.341-2.064 11.862.62 27.539 4.024 39.091 6.707zm-100.769-2.064 9.592-1.754c.103 0 .207-.103.207-.103-2.991.516-6.911 1.341-9.902 1.857zM386.93 2.392c9.901 2.58 23 7.017 32.386 10.937-9.386-4.024-22.382-8.46-32.283-11.04.103.103 0 .103-.103.103"/><path fill="#00344A" d="M419.723 14.877c-1.547-.207-2.269-.723-1.65-1.135 1.237-.826 6.291-.31 6.085.619-.103.516-1.857.825-4.229.516-.103.103-.206 0-.206 0M378.987 2.907c-3.094 0-5.982-.207-5.466-.826 1.444-1.34 17.225-2.063 17.74-.722-.412.826-6.291 1.445-11.758 1.548z"/><path fill="#00344A" d="M565.467 143.44c10.52 31.986 10.52 31.986 16.399 51.28-10.52-34.152-10.52-34.152-16.296-51.28zm-11.243 34.978v.103l25.992 16.922zm-44.763-24.66h-.206c13.614 7.222 31.561 16.921 44.866 24.66v-.103m-82.1-42.614c15.987-.309 37.337-.309 53.324.31-15.987-.413-37.337-.722-53.324-.31m-.103 1.239c11.139 4.952 26.095 11.349 37.027 16.715h.207c-11.139-5.159-25.889-12.072-37.234-16.819z" opacity=".302"/><path fill="#00344A" d="M550.924 77.715c-24.857 12.897-25.373 13.104-41.979 24.866 25.167-16.715 26.095-17.437 41.979-24.866m4.847 1.857c3.92 24.041 4.332 26.621 8.252 57.987-1.135-9.492-2.682-22.08-3.92-31.573-1.237-7.945-2.785-18.572-4.125-26.414 0 .103-.103 0-.207 0m-9.282 58.297.103.103 14.233 1.96v-.103c-4.332-.619-10.004-1.444-14.336-1.96m-7.426-.826.206.207 7.22.825-.103-.103zm-.31 0-11.655-.928.413.206 11.448.929zm-66.732-1.341c15.987-.31 37.337-.31 53.324.413l1.753.103-.412-.206c-16.4-.516-38.369-.826-54.768-.413.103 0 .103.103.103.103" opacity=".302"/><path fill="#00344A" d="M466.762 65.849c44.144 2.064 46.723 2.167 81.894 8.667-42.185-7.223-43.732-7.532-81.894-8.667q0-.154 0 0m-13.409-.103.207.103 5.879-.103s0-.103-.103-.103c-1.857 0-4.229.103-5.983.103m-30.426 1.341-.103.103 30.529-1.341-.206-.103zm-.309 0-2.888.206.515.104 2.166-.207zm-4.642.516c.516 0 1.341-.103 1.857-.103l-.516-.103zm90.97 34.978.103.103c25.167-16.715 26.095-17.437 41.979-24.866l-.103-.103c-24.857 12.897-25.27 13.103-41.979 24.866m-93.755-31.78 1.548 1.548.103-.103-1.444-1.444c-.103-.104-.103-.104-.207 0m86.742 37.145 7.013-5.159-.103-.103-.928.619-6.189 4.54c.104 0 .207.103.207.103m-85.091-35.597 16.09 17.025.103-.103-16.09-17.128zm16.193 17.231 5.054 5.882.103-.104-5.054-5.778zm63.328 22.494-11.242 9.183.206.103 11.139-9.183zm-58.171-16.51 13.511 16.716.207.103-13.718-16.921zm32.695 38.693 14.44-12.794-.206-.103-14.337 12.794s0 .103.103.103m-18.977-21.771 15.677 21.255h.103c-4.641-6.397-10.933-14.858-15.574-21.151z" opacity=".302"/><path fill="#00344A" d="m417.043 69.974 1.65.62.103-.104-1.65-.619zm1.856.62c9.077 3.714 21.247 8.46 30.118 12.587l.206-.103c-9.077-3.818-21.041-9.08-30.324-12.485m30.221 12.69 4.435 2.064.103-.103-4.332-2.064zm4.538 2.064c12.48 6.397 29.086 15.064 41.153 22.184-12.171-6.913-28.57-15.993-41.05-22.184zm92.827 52.622 5.466 5.675-5.26-5.572-.103-.103c-11.036-10.731-25.889-24.866-37.44-35.184l-.103-.104c-6.808-5.468-15.781-13-22.795-18.16 6.808 5.47 15.987 12.589 22.691 18.264l.104.103c11.448 10.318 26.403 24.247 37.336 35.081zm-7.53-.826 10.521 8.049-10.314-7.945-.207-.207c-10.726-7.532-24.96-17.54-35.893-24.557 10.727 7.223 25.167 16.922 35.687 24.557zm21.041 15.168 2.372 2.579h.103c-.722-.825-1.65-1.857-2.475-2.579q.154 0 0 0m-.825.516 2.785 2.27.103-.103a53 53 0 0 0-2.785-2.27zM415.806 43.973l.206.104 1.238-6.191h-.206a106 106 0 0 1-1.238 6.087m3.61-6.294c6.91 4.024 16.296 9.183 23.103 13.517l.104-.103c-6.911-4.024-15.987-9.7-23.104-13.517 0 .103 0 .103-.103.103m23.31 13.62 17.74 12.485h.103c-5.363-3.715-12.48-8.77-17.74-12.485zm22.588 16.2 13.717 11.246h.103c-4.125-3.405-9.488-7.842-13.614-11.247zm5.363 11.143 6.601 1.65v-.103c-1.96-.515-4.538-1.134-6.395-1.65-.103.103-.206.103-.206.103M415.806 44.18c-1.238 6.294-2.888 14.651-3.919 20.945h.103c1.134-6.294 2.682-14.651 4.022-20.842zm4.951 24.763-.103.103c11.655 1.96 27.126 4.437 38.677 6.913l5.57 1.238c-13.305-2.58-30.839-6.19-44.144-8.254m-2.785-.206c.722.103 1.65.206 2.372.31l.103-.104zc.103-.104 0-.104 0 0M434.37 19.005l.206.103 4.229-3.508h-.207c-1.237.928-2.991 2.373-4.228 3.405m0 .103-7.427 7.016h.207l7.426-7.016zm23.928 21.668-.103.103c37.028 6.81 61.472 11.35 105.307 28.993-80.45-30.335-104.997-29.2-105.204-29.096M426.84 26.124l-8.457 9.183h.103c2.578-2.786 5.982-6.397 8.457-9.183zm-6.188 10.628c11.242 1.134 26.198 2.373 37.44 4.023l.103-.103c-11.345-1.238-26.301-3.198-37.543-3.92" opacity=".302"/><path fill="#00344A" d="M434.371 19.11v-.104l.206.103h-.206"/><path fill="#00344A" d="m449.328 15.496 7.736 2.064.412.103zq.154 0 0 0m8.148 2.167 26.404 8.564h.103l-26.094-8.46zm26.507 8.667 12.48 4.85h.207zm12.687 4.953 16.399 7.222h.206l-16.502-7.326zm16.708 7.429c15.781 8.254 36.409 20.12 51.571 29.612-15.059-9.492-35.584-21.255-51.364-29.51z" opacity=".302"/><path fill="#00344A" d="M483.879 26.227h.103l.103.103h-.103zM496.565 31.178l.207.104h.206l-.206-.104z"/><path fill="#00344A" d="M467.685 137.559c-2.063-1.032-2.063-3.095-.103-3.818 2.166-.722 5.363 1.135 4.332 3.096-.413.825-1.857 1.651-4.022.722zM497.084 112.486c-3.301-1.651-3.816-4.746-.825-5.675 3.816-1.135 8.87 2.373 7.426 5.056-.722 1.032-2.991 2.167-6.601.619M408.585 65.85c-.103 0-.103.103-.206.103 2.785.31 6.498.825 9.283 1.135-1.547-2.064-6.292-2.683-9.077-1.238m1.341 4.746c.31.103.722.206 1.032.206 4.95.826 8.251-1.547 6.807-3.714-2.888-.31-6.704-.825-9.489-1.135-2.579 1.65-1.135 3.818 1.65 4.643M461.19 67.188c-2.269-.929-2.682-2.58-.928-3.302 2.681-1.135 7.323.825 6.395 2.683-.516 1.032-2.579 1.547-5.158.722-.103 0-.206-.103-.309-.103M416.015 37.68c-1.754-.412-2.269-1.34-1.135-1.96 1.857-1.032 6.086-.206 5.776 1.135-.206.825-2.372 1.238-4.332.929-.103-.104-.206-.104-.309-.104M479.961 83.904c-.722-.31-3.094-1.651-2.785-3.612.825-2.889 8.045-2.166 10.005 1.032 1.444 2.373-1.444 4.127-5.364 3.302-.722-.206-1.237-.413-1.444-.516-.206 0-.309-.103-.412-.206M433.133 11.781c1.135-.206 2.785-.413 3.919-.619-1.65.103-2.991.31-3.919.62m3.919 3.405c2.269.516 5.364.62 7.633.826 6.085-.104 6.291-1.445 5.569-2.167-.309-.31-2.062-1.754-8.663-2.477-2.992-.31-2.992-.31-8.664.62-1.754.928.103 2.063 2.269 2.785.412.104 1.238.31 1.856.413m7.014.826-5.776-.62c1.96.413 3.816.62 5.776.62" opacity=".302"/><path fill="#00344A" d="M438.19 15.498c-.103 0-.31-.103-.413-.103 2.063.206 4.848.515 6.911.722-.516 0-.516 0-6.395-.62zM432.933 11.884c.206-.103.206-.103 4.229-.722h.515c-1.444.206-3.403.516-4.744.722q-.154 0 0 0M389.506 268.699c-.722 12.485-1.65 28.994-2.166 41.479.619-12.382 1.444-28.994 2.166-41.479m2.166 44.058c37.852-17.231 40.947-18.676 65.185-27.962-38.678 15.271-38.678 15.271-65.288 27.756 0 .103.103.206.103.206"/><path fill="#00344A" d="M389.511 268.699c-.722 12.485-1.65 28.994-2.166 41.479l.722-12.279 1.651-29.2c0 .103-.104 0-.207 0m-69.001 29.613c18.669 4.437 43.422 10.524 61.988 15.271-18.566-4.85-43.319-11.041-61.988-15.477zM496.876 233.103l-.206.206h.309l.104-.103c-.104-.103-.207-.103-.207-.103m-99.737-5.159c43.01-1.548 46.517-1.651 78.387-.413-42.906-1.135-44.557-1.135-78.387.413m-.928 2.27c9.179 7.429 21.556 17.437 30.633 25.072-9.18-7.532-21.35-17.643-30.633-25.072m65.288 50.971c22.072-31.058 23-32.296 35.274-47.773h-.309c-22.485 29.406-22.898 29.922-35.068 47.669 0 .104.103.104.103.104"/><path fill="#00344A" d="M426.846 255.287c9.077 7.842 21.35 18.263 30.324 26.208l-4.126-3.921c-29.189-25.176-34.449-29.716-56.727-47.463 9.179 7.532 21.453 17.438 30.529 25.176m-30.942 9.596c18.256 5.056 42.494 12.175 60.647 17.85-18.05-5.675-42.288-12.897-60.544-17.953-.103 0-.103 0-.103.103M284.101 226.705c14.336 33.637 14.336 33.637 28.776 65.622-13.408-29.612-13.408-29.612-28.776-65.622m-106.545 85.433c28.57-27.24 55.49-53.035 99.428-87.29-31.252 25.072-55.902 44.78-99.428 87.29m.31 2.064c41.153-7.017 79.418-13.104 131.71-16.612-36.202 2.579-64.875 4.746-131.607 16.508-.103 0-.103 0-.103.104"/><path fill="#00344A" d="M284.098 226.706c14.439 33.74 14.439 33.74 28.776 65.622-13.615-30.438-13.615-30.438-28.673-65.622zm35.996 67.892c38.678-18.16 41.875-19.707 64.36-28.993-16.503 7.016-38.266 16.612-54.459 24.041l-10.004 4.849c.103 0 .103.103.103.103M390.23 227.735c-10.211-1.032-23.825-2.579-34.036-3.508 10.211 1.135 23.825 2.27 34.036 3.508m2.991 3.302-2.784 26.827h.103c.825-8.048 1.959-18.779 2.888-26.827zm-104.584-7.635c32.592 11.453 54.149 18.985 95.817 37.454-36.511-15.993-41.153-18.056-75.705-30.748l-20.009-6.913c0 .103-.103.207-.103.207M440.053 157.47l13.408 14.961.103-.103-13.408-14.961c0 .103 0 .103-.103.103m13.615 15.168c6.188 7.222 14.439 16.818 20.525 24.247l-.104-.309c-6.085-7.223-14.027-16.922-20.318-23.938zm20.731 24.453c6.601 8.255 15.471 19.295 22.072 27.653-6.601-8.461-15.368-19.708-22.072-28.065zm6.188 30.645v.206l13.615 1.032v-.206c-4.126-.31-9.592-.722-13.615-1.032m-5.054-.31.104.207 4.641.309v-.206zm-80.553-2.063c17.947-32.502 20.319-36.732 34.553-59.535-18.256 29.922-20.525 33.74-34.553 59.535m.207.103c17.946-32.502 20.215-36.732 34.449-59.432-18.566 30.438-20.525 33.637-34.449 59.432m1.959 2.476c43.113-1.547 46.62-1.651 78.387-.309l-.103-.207c-14.233-.412-33.211-.825-47.341-.825l-30.839 1.135c-.104.103-.104.206-.104.206"/><path fill="#00344A" d="m425.09 157.885.104.103 7.529-2.373-.103-.103c-2.166.722-5.261 1.651-7.53 2.373m4.539 7.738.103.207 5.363-8.358s-.103 0-.103-.103a576 576 0 0 1-5.363 8.254m-34.449 59.845c17.637-31.986 20.318-36.835 34.449-59.432l-.104-.206c-18.255 29.922-20.525 33.74-34.552 59.535.103.103.103.103.207.103m-106.854-7.945c38.368-20.636 68.692-36.835 136.661-59.432l-.103-.103c-64.153 21.977-91.589 34.669-136.661 59.432.103 0 .103.103.103.103m1.134 3.611c41.154.929 41.154.929 66.732 3.096 10.211 1.031 23.826 2.27 34.037 3.508-30.736-3.405-59.822-6.604-100.769-6.707zM200.966 214.634c9.489.413 22.176.826 31.665 1.342zm-25.888 96.164c2.063-35.391 2.475-42.716 5.776-80.274-2.579 30.645-3.507 40.963-5.776 80.274m2.372 1.342c28.673-27.343 55.799-53.138 99.428-87.291-34.449 27.343-47.342 37.558-94.064 81.822l-5.467 5.262c.103.103.103.207.103.207M357.224 102.166l.103.103 7.735-9.802h-.206c-2.269 2.89-5.363 6.81-7.632 9.699m-51.055-.825c12.686-2.786 29.601-6.5 42.391-8.77-12.79 2.476-29.808 5.778-42.391 8.77m-.103.103c12.686-2.786 29.704-6.5 42.494-8.77-12.79 2.476-29.808 5.778-42.494 8.77m-33.418 9.08c11.139-2.373 23.207-6.707 33.211-9.183-9.901 2.682-23.309 6.191-33.211 9.183m.103.103c9.902-2.786 23.104-6.707 33.212-9.183-10.005 2.786-23.413 6.191-33.212 9.183m59.719 26.105c7.323-10.422 17.121-24.145 24.754-34.256l-.104-.103c-7.529 10.214-17.534 23.937-24.753 34.359-.104-.104 0 0 .103 0m-4.745 6.603-14.336 22.39h.206l14.337-22.39c0 .103-.104.103-.207 0 .103.103.103 0 0 0m-14.336 22.596c-8.767 14.755-20.319 34.566-28.673 49.527 8.457-14.961 20.009-34.772 28.879-49.527z"/><path fill="#00344A" d="m156.207 184.402.103 1.032s.103 0 .103-.103c0-.31-.103-.723-.103-1.032 0 .103-.103.103-.103.103m.206 1.548.207 1.444.206-.103-.206-1.444c-.104.103-.207.103-.207.103m.207 1.651 1.753 12.794.206-.103-1.753-12.795zm24.65 38.589.825-7.635h-.206c-.206 2.27-.516 5.365-.619 7.635q-.155 0 0 0m-22.897-25.692c1.135 8.564 2.682 20.017 3.816 28.581h.206c-1.134-8.564-2.681-20.017-3.816-28.581zm17.328 95.648-.826 14.652c2.27-37.248 3.095-48.185 5.88-80.274-2.888 32.604-3.507 39.414-5.054 65.622m-13.409-66.964c4.435 32.296 7.22 51.9 11.965 81.822-6.911-46.534-8.252-55.717-11.758-81.822zM166.931 172.846v.103c9.283-7.636 21.557-17.954 31.046-25.383-9.386 7.533-21.969 17.541-31.046 25.28m25.27 1.754c2.166-8.048 5.054-18.779 7.323-26.724zm7.22-26.827c-2.27 8.048-5.261 18.779-7.323 26.827 2.165-8.048 5.053-18.779 7.323-26.827m-39.297 31.057 6.704-5.778v-.103zm-1.857 1.651c.413-.31.825-.722 1.238-1.032l-.103-.103c-.31.309-.825.722-1.135 1.135q0-.154 0 0m-1.134 3.302.619.722.103-.103c-.206-.207-.413-.516-.619-.723 0 .104 0 .104-.103.104m1.031 1.135 1.341 1.444.206-.103-1.341-1.445c-.103 0-.206 0-.206.104m1.341 1.547 7.736 9.08.206-.103-7.736-9.08zm9.18 10.731 5.672 7.119-.103-.412-6.807-8.461-.206.103zm14.542 13.517c1.96-7.945 4.435-18.573 6.395-26.518-1.96 7.842-4.538 18.47-6.395 26.518m-8.663-6.088 5.672 7.326.103-.103c-1.753-2.27-4.125-5.366-5.879-7.636z"/><path fill="#00344A" d="M201.379 146.947c5.673 4.334 13.305 9.906 18.772 14.445-5.57-4.436-12.996-10.318-18.772-14.445m-1.959.826c-2.269 8.048-5.261 18.778-7.323 26.827l.206-.104c2.166-8.048 5.054-18.778 7.323-26.723zm-7.426 26.93-2.373 9.183.207-.103 2.372-9.183zm-2.373 9.389c-1.959 7.945-4.538 18.572-6.394 26.517l2.681-10.937 3.816-15.683zm11.346 30.541-.207.104c37.441 1.444 38.885 1.547 75.5 5.674-12.996-1.444-30.427-3.404-43.526-4.436m-44.763-1.445-.103.103 12.583.104.206-.104zm-1.444.103h1.238l.103-.103h-1.238z"/><path fill="#00344A" d="M271.618 160.465h.206c-1.547-9.389-3.713-21.977-5.26-31.47l-1.754-10.111 2.579 15.786c1.238 7.842 2.991 18.057 4.229 25.795m-70.239-13.516c5.673 4.333 13.305 9.905 18.772 14.445l.103-.103c-5.57-4.334-12.996-10.318-18.772-14.446zm18.875 14.548 4.022 3.405.206-.103-4.125-3.508zm51.364-.825 1.856 11.04.207-.103-1.754-10.937zm-46.001 5.365.928.825.207-.103-2.063-1.754-.207.103zm1.031.825c6.292 5.675 14.646 13.311 20.732 19.089l.206-.104c-6.188-5.778-14.44-13.516-20.731-19.088zm46.826 5.056c2.166 13.207 5.054 30.851 7.323 44.058-2.166-13.207-4.95-30.851-7.116-44.161zm-25.991 14.239c9.282 9.286 21.556 21.771 30.633 31.264-9.077-9.493-21.144-22.081-30.53-31.367zM233.769 78.95l3.301-5.468h-.207c-.928 1.548-2.269 3.715-3.094 5.469-.103 0-.103-.103 0 0m-3.61 5.985v.207l1.341-2.27c-.103 0-.206 0-.206.103-.413.516-1.032 1.238-1.135 1.96m8.458-12.072c3.816 5.056 8.767 11.763 12.17 17.025-3.506-5.159-8.251-12.175-12.17-17.025m-8.664 12.279c-3.198 5.984-7.633 13.929-10.727 19.913l.207-.103c3.197-5.881 7.322-13.826 10.623-19.604zm31.252 23.422c-3.095-5.572-7.117-13.104-10.418-18.573 3.198 5.572 7.53 12.898 10.418 18.573m-10.521-18.47c3.198 5.572 7.426 12.898 10.417 18.573-3.094-5.675-7.116-13.104-10.417-18.573m-13.511 35.804v.103l17.843-8.564v-.103c-5.363 2.579-12.48 5.984-17.843 8.564m-34.759 14.445.103.103c4.951-10.627 11.552-24.763 16.812-35.184l-.206.103c-5.054 10.318-11.861 24.351-16.709 34.978m4.229 1.754h.103c9.077-4.849 21.144-11.453 30.324-16.096v-.103l-12.377 6.397zm-4.229-1.651-1.547 3.405h.103c.413-1.032 1.032-2.373 1.444-3.405m.103 4.024 4.023-2.27h-.103z"/><path fill="#00344A" d="M240.055 71.833c31.148-.825 32.386-.825 52.086 1.238-32.386-2.27-33.624-2.373-52.086-1.238m108.607 20.74 11.242-1.651-.103-.104c-3.3.516-7.735 1.239-11.139 1.754M245.625 82.357l5.053 7.635.207-.103c-3.507-5.16-8.252-12.175-12.171-17.025 0 0-.103.103-.206.103 2.063 2.786 5.054 6.5 7.117 9.39m60.543 18.985v.103c12.686-2.786 29.705-6.5 42.494-8.77l-.103-.104c-12.789 2.477-29.808 5.778-42.391 8.771m-55.49-11.247c3.198 5.572 7.427 12.898 10.418 18.573h.103c-3.094-5.572-7.014-13.104-10.314-18.573zm22.073 20.533c9.901-2.786 23.206-6.604 33.211-9.183v-.103c-10.005 2.682-23.413 6.191-33.211 9.286-.104 0-.104-.103 0 0"/><path fill="#00344A" d="m299.674 39.125 23.619-9.699zm30.53-10.112c3.197 3.818 7.632 8.977 10.623 13.001l.103-.103c-3.094-3.921-7.116-9.286-10.52-13-.103.102-.103.102-.206.102m-50.333 19.501h.103l19.597-9.286-.103-.103zm60.956-6.294c3.919 6.088 9.076 14.342 12.686 20.636h.207c-3.713-6.294-8.664-14.651-12.79-20.739zM240.162 70.595c11.758-6.81 27.641-15.684 39.709-21.977h-.103c-11.965 6.397-27.951 15.064-39.606 21.977m-.103 1.238c31.148-.825 32.386-.825 52.086 1.238l.206-.103c-9.386-.722-21.763-1.754-31.149-1.96zm52.292 1.341 13.099 1.754.103-.103-12.996-1.754zm13.202 1.754 8.87 1.445v-.103l-8.767-1.445zm47.96-12.072c3.507 6.81 8.149 15.89 11.449 22.803h.103c-3.404-6.913-7.735-16.096-11.345-22.803zm-38.884 13.62 23.413 5.056-.206-.206-23.207-4.953zm23.723 5.16 21.762 6.087.104-.103c-6.601-1.858-15.368-4.334-21.969-6.191zM470.164 164.9c20.628 13.93 46.207 31.161 76.221 56.234-20.113-16.2-45.176-36.32-76.221-56.234m27.951 19.089c33.624 25.072 33.624 25.072 50.436 39.105-32.49-26.311-33.109-26.827-50.436-39.105m7.22 47.978c12.789-1.65 29.91-3.714 42.7-4.746-12.79 1.135-29.911 2.786-42.7 4.54zm-20.01 3.612 11.243-2.064h.309l.516-.103c-.207-.103-.206-.103-.413-.103h-.309l-11.449 2.167s.103 0 .103.103M480.372 227.943l1.031 5.262-.928-5.262v-.206c-1.856-9.183-4.332-21.462-6.188-30.645l-.103-.309-3.817-18.47-2.578-12.484c1.856 9.183 4.229 21.461 6.085 30.644l.103.31c1.857 9.286 4.332 21.668 6.292 30.954zm-4.847-.309 4.538 5.984-4.435-5.881-.103-.207c-9.696-12.175-22.588-28.374-32.49-40.343 9.799 12.072 22.691 28.168 32.283 40.24zM390.121 104.747l1.032 1.342h.206c-.31-.413-.722-.929-1.032-1.342-.103-.103-.103-.103-.206 0m1.547 2.064 1.032 1.341.206-.103-.928-1.341c-.207.103-.207.103-.31.103m1.135 1.548 9.798 14.032.103-.103-9.798-13.929zm17.431 7.944c31.045 23.526 32.283 24.454 54.664 44.574-28.57-24.969-32.283-28.271-54.664-44.574m33.417 63.559 10.005-7.222.103-.103 5.157-3.612 5.982-4.127s-.103 0-.103-.103c-3.404 2.27-7.839 5.365-11.242 7.635l-.104.103-10.004 7.223zm-14.027-13.826 7.014 12.382-6.911-12.485-.103-.206-4.435-7.636-.103-.103c-6.601-10.731-15.471-25.073-22.382-35.597l-.103.103c6.807 10.628 15.781 24.763 22.279 35.494l.103.103 4.538 7.739z"/><path fill="#00344A" d="M470.267 162.22c41.05-9.493 42.597-9.906 77.356-13.517-11.552 1.341-26.92 2.992-38.369 4.85h-.206c-11.758 2.579-27.229 5.778-38.781 8.667m83.75 16.302c-.309 13.104-.722 30.541-.928 43.645.31-13 .722-30.438 1.135-43.542v-.103c.206-7.738.515-17.953.825-25.692-.31 7.636-.825 17.85-1.032 25.589zm-55.902 5.469c33.624 25.072 33.624 25.072 50.436 39.105l-2.166-1.96c-20.112-16.2-45.176-36.32-76.221-56.234 8.354 5.675 19.7 13.104 27.951 19.089"/><path fill="#00344A" d="m423.131 106.398-.104.103 28.88 5.984.206.103c9.902 2.683 23.104 5.882 32.902 8.874l.206.103c12.48 4.231 29.189 9.802 41.463 14.549l.412.206 22.176 9.492-21.763-9.492-.413-.206c-12.48-4.54-29.085-10.628-41.772-14.652l-.206-.103c-9.901-2.683-23.103-6.501-33.211-8.977l-.206-.103zm-20.113-3.302-.206.103 19.906 3.199.103-.104zm-5.879-.619 5.467.722.206-.103-5.57-.722c-.103 0-.103 0-.103.103m-3.61-.516c.722.103 1.547.206 2.269.309v-.103c-.619-.103-1.547-.206-2.269-.206m-1.65 2.064 1.65 1.031s.103 0 .103-.103c-.515-.309-1.134-.722-1.65-1.032 0 0-.103 0-.103.104m2.578 1.65 1.444.929.104-.103-1.444-.929s-.104 0-.104.103m1.548 1.032 14.027 9.596.103-.103-13.924-9.596zm74.261 55.614 12.377-3.095 26.507-5.469h.206c12.068-1.651 28.261-3.921 40.431-5.056h-2.269c-38.987 4.437-40.534 4.644-77.355 13.517zm-49.611-38.176c13.512 10.73 31.149 25.485 44.144 36.835-29.91-26.311-31.664-27.962-54.561-44.677l-.103.103zM396.418 22.305c9.179 1.135 21.35 2.373 30.426 3.817h.207c9.695 1.96 22.691 4.23 32.283 6.604-9.696-1.96-22.485-5.056-32.283-6.707h-.207c-9.076-1.032-21.247-2.889-30.426-3.714m-4.023 11.453.207.103.825-10.73h-.103c-.31 3.198-.619 7.428-.929 10.627m44.557 21.667.103.104 5.57-4.23.103-.104 15.471-10.421.103-.103 5.364-3.199h-.104c-1.65.929-3.816 2.27-5.466 3.199l-.103.103-15.368 10.318-.103.103zm-14.44 11.866-.515.413h.206l.516-.413.103-.103 14.13-11.556-.103-.103-14.234 11.659zm-30.117-33.43c-.722 9.08-1.65 21.152-2.372 30.335h.206c.722-9.08 1.651-21.152 2.373-30.232zm.207 62.217c7.219-7.222 16.811-16.818 24.341-23.628l.103-.103 1.856-1.65.104-.104 1.65-1.445.103-.103 1.341-1.238h-.207l-1.34 1.238-.103.103-1.548 1.445-.103.103-1.856 1.651-.103.103c-7.323 7.016-17.225 16.406-24.342 23.732 0-.104 0-.104.104-.104M390.023 64.3a1561 1561 0 0 0-2.063 30.954h.103c.619-9.286 1.444-21.668 2.166-30.954zm.722 33.74 1.238-1.238c-.103 0-.103 0-.207-.103-.309.412-.825.825-1.134 1.238 0 0 0 .103.103.103m-2.888-1.96-.103 1.444h.206c0-.413.103-1.032.103-1.445zM236.445 71.524q-.155 0 0 0c1.134-.206 2.785-.516 4.022-.825-.722-.516-2.681 0-4.022.825m.103 1.96h.206c1.238-.206 2.682-.928 3.404-1.65.413-.413.413-.722.309-.929-1.237.207-2.991.62-4.228.826-1.444 1.031-1.238 1.754-.413 1.857.206-.103.413-.103.722-.103M197.876 145.605l3.919.826.206-.206c1.238-1.754.104-2.477-1.237-2.374-.206.104-1.754.413-2.888 1.754m1.031 2.27h.207c.928-.103 1.959-.515 2.681-1.238-1.134-.206-2.785-.619-3.919-.825-.928 1.444.103 2.063 1.031 2.063M362.482 92.159c-1.134-.31-1.959-.723-2.578-1.445-2.166-2.992 2.578-5.675 7.117-4.953 3.816.62 5.053 3.405 2.372 5.366-1.238.825-3.61 1.754-6.498 1.238-.103-.103-.31-.103-.413-.206M312.771 301.821c-4.436-1.755-4.436-7.533.103-9.39 0 0 .103 0 .103-.103 4.538-1.857 9.179 2.167 7.323 6.5-.619 1.548-2.991 4.231-7.117 3.199-.103-.103-.309-.206-.412-.206M281.208 223.816c-2.372-.825-2.372-3.714 0-4.952 1.238-.619 2.269-.413 2.682-.413 2.888.825 2.681 3.818.309 5.056-.928.516-2.063.619-2.991.309m-1.444 2.889c.31.104.619.207.928.207 4.023.516 6.808-1.651 8.045-3.715 2.579-4.746-2.062-9.183-7.735-7.429-5.467 1.754-6.807 8.255-2.166 10.525.206.206.619.309.928.412"/><path fill="#00344A" d="M281.209 223.817c-2.372-.826-2.372-3.715 0-4.953 2.475-1.341 5.26.206 4.641 2.579-.309 1.239-1.959 2.89-4.332 2.374q-.155.154-.309 0M180.336 218.554c-3.094-.619-2.991-4.746.206-6.913 3.61-2.373 6.807-.619 6.085 2.476-.309 1.651-1.959 3.715-4.641 4.334-.619.103-1.031.103-1.341.103q-.155.155-.309 0M154.658 184.712c-1.65-.103-1.856-1.857-.206-3.405 1.856-1.754 4.332-1.754 4.229.103-.104 1.341-1.857 3.199-3.713 3.302z"/><path fill="#00344A" d="M153.931 185.951c-2.579-.103-2.785-2.889-.31-5.159 2.682-2.579 6.292-2.683 6.395-.103.103 1.651-1.547 3.714-3.713 4.746-.31.207-1.238.619-2.372.516m-.31.619h.413c4.228-.309 8.457-5.675 5.982-7.738-2.476-2.27-8.973 1.857-8.87 5.675.103 1.238 1.031 2.063 2.475 2.063M392.808 229.698c-1.547-.723-1.547-2.477 0-3.096.722-.309 1.341-.103 1.651 0 1.753.723 1.65 2.58.206 3.199-.619.103-1.341.103-1.857-.103m-.722 1.031c.103 0 .31.104.413.104.206.103.516.103.928.206 1.857.103 2.785-.825 2.785-.825.413-.413 1.135-1.239.928-2.477-.412-1.651-1.856-2.167-1.959-2.27a4 4 0 0 0-3.095-.103c-.309.103-.825.413-1.237.929-.516.619-.619 1.238-.619 1.444-.103 1.548.928 2.58 1.856 2.992"/><path fill="#00344A" d="M392.805 229.7c-1.547-.723-1.547-2.477 0-3.096 1.65-.619 3.403.722 2.888 2.167-.206.619-1.238 1.444-2.682 1.032-.103-.103-.206-.103-.206-.103M256.969 118.985c.103 0 .206.103.309.103.516-.516 1.238-1.238 1.754-1.857-3.61-1.651-1.135-5.675 3.197-7.326.928-.413 2.888-.929 4.847-.619.516-.516 1.238-1.239 1.857-1.754-3.404-.619-6.498.515-7.632 1.031-6.705 2.786-8.974 8.358-4.332 10.422m2.681.619h.929c7.219-.207 12.995-5.263 12.067-9.08-.516-1.961-2.372-2.58-3.61-2.992-.516.515-1.238 1.238-1.856 1.754 4.022.928 3.197 4.643-.413 6.81-1.856 1.135-5.054 2.166-7.735 1.135-.516.515-1.238 1.238-1.754 1.857.516.206 1.238.412 2.372.516"/><path fill="#00344A" d="M258.83 117.232s.103.103.206.103c2.373-2.373 5.673-5.572 8.045-7.945-5.157-.825-11.345 3.714-9.385 6.81.206.413.618.722 1.134 1.032m2.063.412h.928c5.982-.412 9.902-5.159 7.426-7.532-.619-.619-1.547-.825-1.959-.928-2.373 2.373-5.673 5.571-8.045 7.944.206.31.722.516 1.65.516M388.68 265.709c-2.475-1.135-2.269-4.231.206-5.056 1.032-.31 1.857-.103 2.166 0 2.682 1.135 2.476 4.024.31 5.056a3.06 3.06 0 0 1-2.682 0m-1.341 2.476c.206.103.516.207.722.31 5.26 1.651 9.902-3.096 7.426-7.532-.619-1.032-2.166-2.889-5.363-3.096-5.879 0-7.839 5.778-4.435 9.08.412.516.928.929 1.65 1.238"/><path fill="#00344A" d="M388.678 265.708c-2.475-1.135-2.269-4.23.207-5.056 2.578-.825 4.951 1.548 3.919 3.715-.412.825-1.65 2.063-3.919 1.444-.103 0-.207 0-.207-.103M497.706 233.619c-4.435-2.373-4.745-7.842-.516-9.08 5.054-1.548 9.901 3.921 8.148 7.532-1.031 1.961-3.816 3.302-7.632 1.548M458.302 286.242c-2.063-1.135-2.578-3.612-1.031-4.953 2.269-1.96 5.879.103 5.776 2.683 0 1.651-1.754 3.405-4.539 2.373 0 0-.103 0-.206-.103M435.405 156.544c-2.476-1.238-2.579-3.921-.207-4.849 1.548-.516 2.888-.103 3.301.103 2.991 1.341 2.888 4.024.516 4.953-1.032.412-2.476.309-3.61-.207m-.207 1.032.516.206c4.538 1.239 7.633-1.857 5.879-4.746-2.063-3.508-8.664-3.302-9.386.31-.309 1.651.929 3.405 2.991 4.23M385.175 318.949c-3.817-1.755-3.817-6.81 0-8.358 4.022-1.651 8.354 2.27 6.601 6.088-.619 1.341-2.682 3.508-6.189 2.476-.103-.103-.206-.206-.412-.206M325.97 142.099l8.458-4.54c-3.507-2.683-9.18-.103-8.973 3.095 0 .62.103 1.032.515 1.445m2.476 1.444c.206 0 .412.104.515.104 4.848.412 7.839-3.199 5.776-5.675l-.309-.31c-2.579 1.342-5.879 3.199-8.458 4.54.31.31 1.032 1.032 2.476 1.341"/><path fill="#00344A" d="M435.403 156.544c-2.475-1.239-2.578-3.921-.206-4.85 2.991-1.135 6.498 1.342 5.363 3.715-.515.928-2.166 2.166-4.847 1.238-.103 0-.207-.103-.31-.103M173.433 317.093c-2.475-.929-2.166-4.747.413-5.985.412-.206.825-.309 1.134-.309 2.785-.207 3.713 2.992 2.063 5.055-.413.516-1.547 1.651-3.301 1.342-.103 0-.206 0-.309-.103M327.316 28.189c-1.651 0-2.269-.413-1.651-1.135.619-.62 2.476-1.238 4.435-1.342 1.96-.103 2.476.516 2.063 1.032-.619.723-2.991 1.445-4.847 1.445m-1.547 1.444h.928c5.363-.412 9.179-2.58 7.942-3.817-1.857-1.858-12.171.206-12.377 2.58 0 .721 1.341 1.237 3.507 1.237M391.984 23.029c-1.444-.207-2.165-.723-1.547-1.239 1.238-1.031 6.086-.825 5.983.31 0 .722-2.166 1.238-4.229 1.032 0-.104-.103-.104-.207-.104M383.837 105.882c-5.466-1.754-6.188-6.397-1.34-8.77 6.085-2.992 14.955.413 13.408 5.159-.516 1.651-2.269 2.992-4.745 3.715-2.578.722-5.053.722-7.323-.104m-.722.826c.31.103.722.206 1.032.309 7.942 1.858 15.574-2.889 12.48-7.841-3.713-5.882-17.431-4.85-18.669 1.444-.412 2.476 1.651 4.85 5.157 6.088"/><path fill="#00344A" d="M384.867 104.645c-3.92-1.238-4.435-4.643-1.032-6.294 4.435-2.167 10.83.31 9.695 3.714-.825 2.373-4.641 3.612-8.148 2.786-.206-.103-.309-.206-.515-.206M327.311 28.188c-1.65 0-2.269-.412-1.65-1.135 1.444-1.341 6.601-1.857 6.601-.722 0 .722-2.269 1.65-4.744 1.754 0 .103-.103.103-.207.103M465.834 165.314c-.413-.206-.722-.413-.825-.516-1.444-1.238-1.444-2.992 0-3.921 2.063-1.032 4.435-.103 5.363 1.445 1.341 2.579-1.65 3.611-2.372 3.405-.722 0-1.341-.104-1.96-.413-.206.103-.206 0-.206 0M464.598 37.783c-5.157-1.548-7.22-4.23-4.435-5.675 4.848-2.58 18.05 1.031 16.915 4.643-.619 2.27-6.704 2.682-12.377 1.032 0 .103 0 .103-.103 0M436.539 187.085c-4.126-2.064-4.745-7.119.103-8.77 4.538-1.548 10.52 2.682 8.251 6.913-1.237 2.373-4.744 3.302-7.942 2.063-.103 0-.309-.103-.412-.206M480.684 238.572c-2.579-1.444-2.476-4.643.206-5.262 2.991-.722 5.776 2.373 4.229 4.643-.722 1.032-2.373 1.651-4.229.722-.103 0-.206-.103-.206-.103"/><path fill="#00344A" d="M256.66 28.498c34.552-10.215 38.162-11.247 66.732-15.58-35.79 6.19-39.503 6.913-66.732 15.58m67.351-14.858c-9.901 3.921-23.103 9.08-32.799 13.517zm.413-.103c-10.005 3.92-23.31 9.183-33.109 13.62zM330.203 12.709c8.974 2.373 20.835 6.5 29.292 10.215h.104c-8.561-3.715-20.319-7.842-29.292-10.215zm-38.058 15.683c15.78-1.857 36.924-3.714 52.704-4.333-15.883.722-36.924 2.373-52.704 4.333M191.682 60.894l.207-.103c33.623-18.882 35.583-20.017 58.79-30.025-35.687 16.405-37.131 17.024-58.997 30.128m-.412.207c.103 0 .206-.104.309-.207zm28.982-9.906c10.314-2.27 24.135-4.952 34.656-6.19-10.521 1.547-24.445 3.817-34.656 6.19M255.22 29.22c8.56-.826 20.112-1.032 28.776-.413 0 0 .103 0 .103-.103-8.664-.62-20.215-.413-28.776.412 0 .104-.103.104-.103.104m-1.341.619c2.372 5.262 2.372 5.262 3.3 14.135h.104c-1.135-9.905-1.341-10.937-3.198-14.135-.103-.104-.206 0-.206 0M353.82 62.857c10.83.31 25.373.62 36.202 1.342-10.829-.413-25.372-1.238-36.202-1.342" opacity=".302"/><path fill="#00344A" d="m419.318 67.395.516.103-.619-.104zM408.18 65.953l9.489 1.238z" opacity=".514"/><path fill="#00344A" d="M422.102 67.809c12.789 2.27 29.807 5.055 42.494 7.841-12.687-2.476-29.705-5.881-42.494-7.841M322.465 60.38c5.466-5.572 12.583-13 18.256-18.366-5.467 5.572-12.996 12.794-18.256 18.366" opacity=".302"/><path fill="#00344A" d="m340.719 42.117.206-.207z"/><path fill="#00344A" d="m436.949 55.633 16.09 10.111h.206L436.949 55.53zm16.296 10.214 12.79 8.977h.103c-3.816-2.683-8.87-6.19-12.686-8.873z" opacity=".302"/><path fill="#00344A" d="M453.145 65.746h.206l.206.104h-.309z" opacity=".514"/><path fill="#00344A" d="M392.605 33.967c6.911 3.095 16.4 6.81 23.207 10.214v-.103c-6.91-3.095-16.09-7.429-23.207-10.215zm23.31 10.214 20.938 11.247.103-.103-20.938-11.35z" opacity=".302"/><path fill="#00344A" d="M415.809 44.182v-.207l.206.103-.103.104z" opacity=".514"/><path fill="#00344A" d="M365.992 25.297s13.821 3.714 26.404 8.46v.104c-7.942-2.683-18.359-6.397-26.404-8.564" opacity=".302"/><path fill="#00344A" d="m392.395 33.861.206.103v-.103l-.206-.103zm44.453 21.668.103.103.103-.103-.103-.103z"/><path fill="#00344A" d="m343.921 39.227-2.991 2.786zm-2.991 2.683.103.103c5.569-4.85 12.892-11.35 18.668-15.89m-37.13 34.359c5.466-5.468 12.583-13 18.255-18.263l-.103-.103c-5.466 5.468-12.995 12.691-18.256 18.366z" opacity=".302"/><path fill="#00344A" d="m340.719 42.117.206-.207v.207l-.103.104z"/><path fill="#00344A" d="M288.535 30.25c3.404 2.58 8.045 5.984 11.139 8.874-3.197-2.786-7.529-6.604-11.139-8.874M344.849 24.06c-15.883.723-37.027 2.374-52.704 4.334l16.811-2.27c14.337-1.032 33.624-1.96 48.064-2.063l-.103.103zM279.869 48.617c10.623 3.405 24.547 8.77 34.758 13.31-10.211-4.54-24.135-10.009-34.758-13.31" opacity=".302"/><path fill="#00344A" d="m279.869 48.62-.103-.104z"/><path fill="#00344A" d="M288.426 30.252c3.404 2.58 8.045 5.984 11.139 8.873l.206-.103c-3.3-2.683-7.529-6.5-11.139-8.874-.103.104-.206.104-.206.104m22.381 21.874 6.086 8.667h.103c-4.641-6.5-11.242-14.961-16.503-20.946l-.825-.825-.206.103c3.61 3.92 8.354 8.874 11.345 13m-22.897-1.341c8.148 3.095 18.978 7.325 26.817 11.04-7.942-3.612-18.566-8.255-26.817-11.04" opacity=".302"/><path fill="#00344A" d="M299.57 39.125h.207l-.207.103z"/><path fill="#00344A" d="M259.754 43.356c6.704-3.612 15.677-8.358 22.381-11.97h.104c-6.705 3.612-15.678 8.461-22.485 11.97M190.238 62.34l8.974-3.92.103-.104zc.103-.103 0-.103 0 0m12.377-5.262 17.225-5.675h-.31zm17.637-5.881c10.314-2.27 24.135-4.953 34.656-6.191l-18.669 2.476-16.296 3.818zm-34.449 13.929c-1.856 1.857-2.991 5.365-4.229 7.842l.207-.207c1.237-2.27 2.785-5.468 4.125-7.738zm-4.229 7.842c-1.237 2.785-2.887 6.397-4.125 9.183l.206-.103c1.238-2.786 2.785-6.5 4.126-9.287zm-4.125 9.286-2.785 7.12c.103-.104.103-.104 2.991-7.12zM240.467 70.8c36.306-5.571 38.472-5.984 71.683-6.706-38.471 1.238-40.018 1.238-71.683 6.707m-7.323 1.445 2.991-.516c.104 0 .104-.103.207-.103-.929.103-2.166.413-3.198.619m-55.283 16.302 9.386-6.087.103-.103zm38.059-12.175h.103l16.915-4.127v-.103zm-31.664 10.421c9.385-3.198 21.969-7.532 31.561-10.318h-.103m-37.956 13.001L184.049 87l.104-.103z" opacity=".302"/><path fill="#00344A" d="M236.238 71.626c.103-.103.103-.103 4.229-.929l.103.103c-1.444.31-3.094.62-4.332.826"/><path fill="#00344A" d="m271.1 46.658 8.664 1.857.206-.103c-6.188-1.135-14.439-2.889-20.731-3.611 0 0-.103 0-.103.103 3.507.619 8.354 1.135 11.964 1.754m8.767 1.96c10.624 3.405 24.548 8.77 34.759 13.31-7.942-3.507-18.566-8.254-26.714-11.04l-7.942-2.27zm-92.414 33.637 14.13-8.564h-.103l-10.108 6.088z" opacity=".302"/><path fill="#00344A" d="M279.766 48.516h.206l-.103.103z"/><path fill="#00344A" d="m242.841 51.506 11.448-5.262c-3.403 1.445-8.767 2.58-11.448 5.262m-41.153 22.08 4.95-2.888c10.727-5.778 25.063-13.62 35.996-19.088v-.104c-12.377 6.5-28.879 15.065-40.946 22.08M396.004 106.501l6.601-3.302zM402.809 103.096c9.076-4.127 21.04-9.802 30.117-13.62-9.077 4.025-21.247 9.287-30.117 13.62" opacity=".302"/><path fill="#00344A" d="m432.934 89.479.206-.104zM449.02 83.182l.103-.104z" opacity=".514"/><path fill="#00344A" d="m338.352 81.637 10.314 10.937zM338.144 81.43c-4.848-4.54-11.242-10.835-16.296-15.168 4.95 4.54 11.551 10.42 16.296 15.167" opacity=".302"/><path fill="#00344A" d="m338.347 81.637-.206-.207z"/><path fill="#00344A" d="M337.836 81.326c-4.848-4.54-11.139-10.73-16.09-14.96z" opacity=".302"/><path fill="#00344A" d="m337.832 81.324.206.207z"/><path fill="#00344A" d="M353.717 62.752c10.933.413 25.476.722 36.305 1.444v-.103c-10.933-.412-25.372-1.238-36.305-1.341m-28.467 1.032 28.364-.826-.103-.103zq0-.155 0 0" opacity=".302"/><path fill="#00344A" d="M353.512 62.752h.206l.103.103h-.309z"/><path fill="#00344A" d="M420.348 67.396h-.516l2.063.31.103-.104zm-2.682-.207c.516.104 1.134.207 1.547.207h.516l-2.166-.31c.103 0 .103 0 .103.103m-27.436-2.992v.103l17.947 1.755s.103-.104.206-.104c-5.466-.516-12.686-1.238-18.153-1.754" opacity=".302"/><path fill="#00344A" d="m419.729 67.293.619.103-.516.104-.516-.103zM408.18 65.952c.103-.103.103-.103 9.386 1.032 0 0-.001.103.103.103-2.785-.31-6.601-.722-9.489-1.135" opacity=".514"/><path fill="#00344A" d="M422.202 67.707c12.79 2.27 29.808 5.056 42.391 7.842-12.789-2.477-29.704-5.882-42.597-7.739z" opacity=".302"/><path fill="#00344A" d="m421.997 67.602-.103.103h.206l.103-.103zm-31.974-3.405v.103h.207v-.103z"/><path fill="#00344A" d="M161.875 141.273c10.83.929 25.269 2.683 35.893 4.54-10.624-1.754-25.063-3.714-35.893-4.54" opacity=".302"/><path fill="#00344A" d="m197.766 145.812 4.022.826z"/><path fill="#00344A" d="M268.937 107.535c10.83-10.009 25.373-23.112 36.512-32.605-11.139 9.596-25.785 22.596-36.512 32.605" opacity=".302"/><path fill="#00344A" d="m305.449 74.928.103-.104zM259.035 117.23l8.045-7.945z"/><path fill="#00344A" d="M305.551 74.93c-11.14 9.596-25.786 22.596-36.512 32.605zm-144.294 63.972 12.067-7.636h-.103z" opacity=".302"/><path fill="#00344A" d="m305.547 74.928.103-.104zM259.137 117.333l8.045-8.048z"/><path fill="#00344A" d="m219.432 105.057-.103.103 9.489-4.746v-.103c-2.888 1.444-7.117 2.476-9.386 4.746m-46.104 26.104h.103c13.615-8.048 31.871-18.469 45.692-25.898l.103-.103c-13.924 7.532-32.283 17.85-45.898 26.001" opacity=".302"/><path fill="#00344A" d="m219.224 105.16.207-.103-.104.103-.206.104z"/><path fill="#00344A" d="M292.351 73.07h.206l20.112-6.81-.103-.104c-6.085 2.064-14.13 4.85-20.215 6.913m-41.566 16.818c12.48-5.16 28.982-12.072 41.566-16.716h-.207c-12.48 4.85-29.085 11.35-41.359 16.716m-13.512 6.397 13.409-6.191v-.103zq0-.154 0 0" opacity=".302"/><path fill="#00344A" d="M250.578 89.992h.206v-.103zM292.145 73.174l.206-.104h.206l-.206.104z"/><path fill="#00344A" d="m402.715 122.186.103.103 7.323-5.985-.103-.103zm-48.064 43.851c28.57-27.239 30.324-28.89 47.961-43.645l-.103-.103c-28.88 24.866-30.014 25.898-48.064 43.748zm-1.753 1.754c.412-.309.825-.825 1.134-1.135-.103 0-.103-.103-.206-.103l-1.134 1.135c.103.103.206.103.206.103" opacity=".302"/><path fill="#00344A" d="m402.504 122.289.103.103.103-.103-.103-.103z"/><path fill="#00344A" d="m410.133 116.201 12.583-9.803.206.104-12.686 9.802z" opacity=".302"/><path fill="#00344A" d="m410.133 116.201.103.104z"/><path fill="#00344A" d="m453.663 85.244.207.104 12.067-7.12s-.103 0-.103-.103c-3.713 2.064-8.561 4.953-12.171 7.12m-15.471 10.112.103.103 15.368-10.111-.206-.104zm-.103.103-15.265 10.937h.207l15.058-10.834z" opacity=".302"/><path fill="#00344A" d="m438.09 95.461.103-.104.103.104-.103.103zM453.559 85.352l.103-.104.206.104h-.309" opacity=".514"/><path fill="#00344A" d="m422.925 106.295-.103.103h.207l.103-.103zm-12.995 10.008.103.104.103-.104-.103-.103z"/><path fill="#00344A" d="m392.81 108.153.103.103 2.991-1.547-.103-.104zm-17.018 9.286 17.018-9.079-.103-.104-17.018 9.08zm-23.413 47.876c5.157-12.691 12.067-29.51 17.431-42.098-5.364 12.588-12.377 29.407-17.431 42.098" opacity=".302"/><path fill="#00344A" d="m392.703 108.153.103.103.207-.103-.104-.103z"/><path fill="#00344A" d="m396.004 106.501 6.601-3.302h.206l-6.704 3.405z" opacity=".302"/><path fill="#00344A" d="m396.004 106.5.103.104z"/><path fill="#00344A" d="m449.119 83.078.206.103 15.884-5.468-.103-.104c-4.848 1.651-11.14 3.818-15.987 5.469m-15.987 6.294.103.103L439.32 87l9.799-3.818-.206-.103zm-.206.103c-9.077 4.024-21.247 9.286-30.117 13.62h.206c8.973-4.127 20.834-9.802 30.014-13.62z" opacity=".302"/><path fill="#00344A" d="m432.934 89.479.206-.104.103.103-.206.104zM449.02 83.182l.103-.104.206.104-.206.103z" opacity=".514"/><path fill="#00344A" d="m402.807 103.096-.207.103h.207l.206-.103zm-7.014 3.508.103.103.103-.103-.103-.103z"/><path fill="#00344A" d="m352.173 165.934-.515 1.342h.206c.206-.413.413-.929.516-1.342zm-6.807 3.405c.516.104 1.238.207 1.857.31v-.103c-.516-.103-1.238-.207-1.857-.207.103-.103 0-.103 0 0m-31.767-3.508-.103.103c9.282.929 21.659 1.961 30.942 3.302v-.103c-9.18-1.032-21.557-2.58-30.839-3.302m-22.794-1.341 22.484 1.444.104-.103-22.588-1.444c.103.103 0 .103 0 .103" opacity=".302"/><path fill="#00344A" d="M313.391 165.83h.206v.104h-.206z"/><path fill="#00344A" d="M334.533 137.767c9.696-4.85 22.691-11.35 32.49-15.89-9.799 4.643-22.898 10.834-32.49 15.89m-44.041 25.072c10.624-6.294 24.754-14.651 35.481-20.636-10.624 6.191-24.96 14.239-35.481 20.636" opacity=".302"/><path fill="#00344A" d="m326.074 142.2 8.355-4.436z"/><path fill="#00344A" d="M290.387 162.734c10.623-6.294 24.753-14.652 35.48-20.636-10.623 6.191-24.96 14.239-35.48 20.636" opacity=".302"/><path fill="#00344A" d="m325.98 142.099 8.355-4.437z"/><path fill="#00344A" d="M369.811 123.219c-3.3 7.945-7.735 18.469-11.036 26.414l-6.291 15.683h-.207c5.261-12.691 12.171-29.612 17.534-42.097M334.43 137.764c9.695-4.849 22.691-11.349 32.489-15.889l-.103-.104c-5.363 2.58-12.48 5.882-17.843 8.461zq0-.155 0 0m-43.938 25.073c10.624-6.294 24.754-14.651 35.481-20.636-10.624 6.088-25.064 14.136-35.481 20.636" opacity=".302"/><path fill="#00344A" d="M325.98 142.202c2.476-1.445 5.776-3.199 8.355-4.643l.103.103c-2.475 1.444-5.879 3.198-8.458 4.54q.156 0 0 0"/><path fill="#00344A" d="M305.86 101.445c-8.251 26.724-9.901 32.296-17.43 60.567 8.354-30.851 9.592-35.7 17.43-60.567M314.424 76.475c-2.579 7.429-6.085 17.437-8.561 24.969 2.579-7.532 5.879-17.54 8.561-24.97M314.523 76.27l3.301-8.977z" opacity=".302"/><path fill="#00344A" d="m314.422 76.373.103-.104-.103.208z"/><path fill="#00344A" d="m348.562 92.676 8.458 9.596.103-.104-7.013-8.048-1.341-1.444zm8.664 9.699 11.758 14.239h.104c-3.507-4.334-8.252-10.009-11.759-14.342z" opacity=".302"/><path fill="#00344A" d="m357.02 102.272.103.103.103-.103-.103-.104z"/><path fill="#00344A" d="m345.16 88.96-7.117-7.429.309.103 10.314 10.938h-.206zM337.836 81.326c-4.848-4.54-11.139-10.73-16.09-14.96h.103c4.951 4.54 11.655 10.42 16.296 15.064z" opacity=".302"/><path fill="#00344A" d="m348.46 92.572.31.103-.104-.103zM338.038 81.531l-.206-.207.309.104.207.207z"/><path fill="#00344A" d="M305.86 101.445c-8.251 26.724-9.901 32.296-17.43 60.567l3.919-14.342c8.973-31.883 8.973-31.883 13.615-46.225zM314.422 76.475h.207c-2.579 7.429-6.086 17.334-8.458 24.866h-.206c2.475-7.532 5.776-17.437 8.457-24.866M314.523 76.27l3.404-8.977h.103a321 321 0 0 0-3.3 9.08z" opacity=".302"/><path fill="#00344A" d="M305.965 101.341v.103h.206v-.103zM314.422 76.477l.103-.208.103.104v.104z"/><path fill="#00344A" d="M305.551 74.827h.103l9.489-7.636h-.103c-2.785 2.27-6.601 5.366-9.489 7.636m-36.512 32.708c10.83-10.009 25.372-23.112 36.512-32.605h-.104c-11.139 9.596-25.785 22.596-36.511 32.605zm-30.014 30.644v.207l5.982-6.398 12.377-12.794h-.103c-5.467 5.675-12.79 13.31-18.256 18.985m-9.18 10.318 9.077-10.008v-.207l-9.18 10.112c0 .103 0 .103.103.103" opacity=".302"/><path fill="#00344A" d="m305.449 74.928.103-.104h.104l-.104.104zM267.18 109.289c.516-.516 1.238-1.238 1.857-1.754h-.103c-.516.516-1.238 1.238-1.857 1.754zm-9.798 9.802c.516-.516 1.238-1.238 1.857-1.754 0 0-.104 0-.104-.103-.515.516-1.237 1.238-1.753 1.857q-.155 0 0 0"/><path fill="#00344A" d="M259.136 117.333c2.269-2.476 5.569-5.572 7.942-8.048h.103a298 298 0 0 1-8.045 8.048"/><path fill="#00344A" d="M247.38 186.055c-14.13 8.46-32.902 19.81-46.723 28.581h.207c13.821-8.771 32.489-20.224 46.619-28.478zm-64.978 40.962 18.359-12.175h-.207zc-.104 0-.104-.103 0 0" opacity=".302"/><path fill="#00344A" d="M200.659 214.635h.31l-.31.207h-.206z"/><path fill="#00344A" d="M273.577 171.606v.103l11.655-5.985s0-.103-.103-.103c-3.3 1.857-8.045 4.23-11.552 5.985m-25.991 14.342.103.103 25.785-14.136v-.103z" opacity=".302"/><path fill="#00344A" d="M273.473 171.711v.103l.207-.103v-.104zm-26.094 14.342.103.103.206-.103-.103-.104z"/><path fill="#00344A" d="M187.972 214.531c7.323-12.485 17.225-29.097 24.857-41.478-7.529 12.381-17.534 28.89-24.857 41.478" opacity=".302"/><path fill="#00344A" d="m187.863 214.738.103-.207z"/><path fill="#00344A" d="M203.441 187.91c-4.745 7.945-11.036 18.573-15.678 26.621 4.745-7.945 10.933-18.676 15.678-26.621M254.184 157.162l17.431 3.405v-.206c-9.077-1.754-21.144-4.127-30.22-5.572v.206zm17.637 3.508 13.511 3.096v-.103l-.928-.31-12.686-2.889z" opacity=".302"/><path fill="#00344A" d="M271.617 160.672v-.207l.206.103v.104z"/><path fill="#00344A" d="M231.184 153.654s0-.103.103-.103c2.991.413 6.91.928 9.901 1.341v.206zM216.337 167.275l-3.61 5.778.206-.103 3.61-5.675z" opacity=".302"/><path fill="#00344A" d="m174.564 204.626-.103-.413z"/><path fill="#00344A" d="M203.441 187.911c-4.745 7.945-11.036 18.572-15.678 26.62h.207c7.323-12.485 17.224-29.097 24.857-41.478l-.207.103zm-22.072 38.383 6.498-11.557h-.207l-6.394 11.453z" opacity=".302"/><path fill="#00344A" d="M187.762 214.531h.206l-.103.207h-.103z"/><path fill="#00344A" d="M158.883 144.266c2.475 8.564 5.673 20.017 7.942 28.58-2.269-8.563-5.364-20.016-7.942-28.58" opacity=".302"/><path fill="#00344A" d="M166.824 172.846h.103v.103z"/><path fill="#00344A" d="m220.151 161.395.103.103-3.507 5.365-.103.206h-.206zM220.258 161.186l2.372-3.508h.103c-.722 1.135-1.65 2.579-2.475 3.508" opacity=".302"/><path fill="#00344A" d="m220.148 161.395.104-.207.103.103-.103.207z"/><path fill="#00344A" d="M161.879 141.271c10.83.929 25.27 2.683 35.893 4.54-10.726-1.857-25.063-3.818-35.893-4.643.104 0 0 .103 0 .103m39.916 5.365 19.184 4.953s0-.103.103-.103a1312 1312 0 0 0-19.184-4.953s-.103 0-.103.103m-43.01-2.269c1.754 6.087 4.126 14.135 5.776 20.326-1.65-6.088-3.919-14.239-5.776-20.326" opacity=".302"/><path fill="#00344A" d="m197.766 145.814.103-.103c1.237.206 2.785.619 3.919.825l-.103.104z"/><path fill="#00344A" d="m169.199 182.752 1.857 7.429s.103 0 .103-.104c-.516-2.27-1.238-5.159-1.754-7.429zm-6.807 46.224v.103l15.161-.515v-.104c-4.538.207-10.623.413-15.161.516m-58.584-.516a2182 2182 0 0 1 14.955-26.311l-.103.104c-4.538 7.738-10.623 18.263-14.852 26.207q-.154 0 0 0m2.681 6.088c27.436-3.611 29.602-3.921 55.696-5.365v-.104c-31.457 2.064-32.695 2.064-55.696 5.469" opacity=".302"/><path fill="#00344A" d="M162.18 228.977h.206v.207h-.103z"/><path fill="#00344A" d="m174.251 203.904.206.31-1.959-8.152s-.103.001-.103.104c.618 2.373.825 5.571 1.856 7.738m.103.413c1.547 6.603 3.61 15.477 5.157 22.08h.103c-1.547-6.5-3.506-15.27-4.95-21.771z" opacity=".302"/><path fill="#00344A" d="m174.352 204.316.206.311zM174.357 204.317l-.103-.413.206.31.103.413z"/><path fill="#00344A" d="m164.562 164.694 2.166 8.357.103-.103c-2.269-8.564-5.467-20.017-7.942-28.581l-.103.103c1.753 5.985 4.125 14.033 5.776 20.224m2.166 8.46 2.372 9.493.103-.103-2.372-9.596zm-12.068-27.755c-17.224 25.589-20.319 30.232-35.996 56.543l.103-.104c16.296-26.62 19.597-32.192 35.893-56.439q.155.155 0 0" opacity=".302"/><path fill="#00344A" d="m166.727 172.949.103-.103.103.103-.206.207z"/><path fill="#00344A" d="M219.742 51.403c6.91-.31 16.09-.62 23-.104l.207-.103c-6.808-.31-15.987-.516-22.691.103h-.31l-14.336 2.992 13.821-2.888zm-17.328 5.674c-2.372 4.23-5.363 9.906-7.426 14.24 2.166-4.437 5.26-10.422 7.736-14.652zm-3.197 13.517c8.251-3.818 19.081-9.183 27.436-12.794-8.149 3.817-19.288 8.667-27.436 12.794" opacity=".302"/><path fill="#00344A" d="m232.945 72.35-2.785 6.603 2.888-6.603v-.104c2.785-6.19 6.601-14.548 9.592-20.636v-.103l.103-.206h-.103l-.206.103-15.987 6.5c-8.251 3.818-19.39 8.667-27.435 12.795 12.995-5.985 30.323-13.93 43.525-19.295l-.103.31v.103c-2.785 5.984-6.704 14.135-9.489 20.533m-17.121 4.127 10.933 4.024c-7.014-2.477-16.606-5.262-23.929-6.707l12.893 2.683zM149.807 87.412c10.211-7.017 23.929-16.2 34.553-22.597l.103-.103c-10.521 6.604-24.548 15.477-34.656 22.7m41.876-26.518 9.592-4.85c-2.785 1.445-6.601 3.303-9.386 4.747zl-.413.207c.103 0 .103-.103.206-.103zm10.623-4.85-13.099 10.319 10.005-8.048.103-.103zm-20.628 16.82c-5.157 4.849-12.171 11.143-17.121 16.095 20.628-19.5 22.278-21.048 37.749-32.914l-2.991 2.27-.103.103c-5.157 4.23-12.274 9.905-17.328 14.342zm-34.862 17.024c2.888-1.135 7.117-1.96 10.211-1.754 1.651.103 3.507 1.65 4.848 2.683-2.682-1.548-6.704-2.786-9.695-2.993-1.754-.103-3.816 1.135-5.364 2.064" opacity=".302"/><path fill="#00344A" d="M202.72 56.664c-2.475 4.334-5.57 10.215-7.736 14.652zm-2.888 5.262c.722-1.444 1.96-3.404 2.785-4.849l1.031-1.548c-.206.103-.206.103-.825 1.238m-21.247 16.2.206-.207 7.427-6.397 13.098-10.318C180.338 73.69 179.926 74 164.455 89.063l-.619.619h.103M232.942 100.724c1.237 7.636 2.888 17.747 4.022 25.279l.206-.103c-1.237-7.635-2.784-17.747-4.022-25.279 0 0-.103 0-.206.103.103 0 .103-.103 0 0m8.251 54.376.516 3.611h.206a50 50 0 0 0-.516-3.611v-.206l-2.372-16.612v-.207l-1.753-12.175-.207.103 1.754 12.279v.206l2.269 16.406zm-10.314-.928 9.179 5.159.104-.104c-2.785-1.547-6.498-3.714-9.283-5.262.103.103 0 .103 0 .207q0-.156 0 0" opacity=".302"/><path fill="#00344A" d="m237.17 125.898-.104.104zM237.066 126.002l.104-.104.103.104-.207.103z"/><path fill="#00344A" d="M173.326 131.265c8.767 2.477 20.525 5.985 29.086 9.183l.103-.103c-8.56-3.095-20.112-6.913-28.982-9.183h-.103l-9.696-1.754 9.489 1.857zm29.189 9.287 4.023 1.651.206-.104-4.126-1.754zm4.126 1.651 16.296 7.635s.103 0 .103-.103a1161 1161 0 0 1-16.193-7.739z" opacity=".302"/><path fill="#00344A" d="m202.406 140.447.103.103.104-.103-.104-.103zm4.023 1.754h.103l.206-.103h-.103z"/><path fill="#00344A" d="m229.641 83.7.309 1.444.103-.207-.309-1.238zm.412 1.65 2.166 10.834s.103 0 .103-.103c-.619-3.302-1.547-7.636-2.166-10.937z" opacity=".302"/><path fill="#00344A" d="m229.949 85.142.207-.206v.206l-.104.206z"/><path fill="#00344A" d="M202.827 73.793c7.323 1.548 16.915 4.127 23.928 6.707l-10.726-4.024h-.104c-4.228-.929-9.901-2.373-14.233-2.89h-.103l-4.848-.309-.103.103c1.444.104 3.404.207 4.848.31h.103zm-37.131 49.527c30.22-21.359 34.14-24.144 59.1-39.209-34.449 21.359-35.171 21.771-59.1 39.209M177.556 82.254l.206-.104 5.57-3.095 5.982-3.199-11.552 6.294zm-15.368 9.905a812 812 0 0 0-1.547 14.961 661 661 0 0 1 1.547-14.961m21.866-5.16c-13.306 20.224-14.131 21.359-22.691 36.32l9.592-16.096c3.919-6.087 9.076-14.239 13.202-20.223l.103-.103 3.197-4.54.103-.103 4.951-6.707-5.157 6.81-.103.103zM158.68 88.857l2.991 1.96h.104c-1.444-.825-3.095-2.579-4.745-2.682-6.601-.413-6.601-.413-10.314 1.754l-.103.103c1.547-.619 3.507-1.857 5.26-2.063 2.166-.207 5.054 0 6.807.928M98.137 137.25c4.641-4.54 10.314-11.144 14.646-15.993 8.354-9.08 20.731-20.017 30.014-28.272-23.826 21.462-23.826 21.462-44.66 44.265m61.781-44.677c-24.96 14.858-38.781 23.112-61.266 44.47 21.144-18.675 32.799-28.89 61.266-44.47" opacity=".302"/><path fill="#00344A" d="M98.548 137.146c21.144-18.676 32.799-28.89 61.265-44.47-24.857 14.754-38.677 22.802-61.265 44.47q.154-.155 0 0m61.987-30.025c-.515 5.159-1.237 12.072-1.753 17.231 1.547-14.136 1.547-14.136 3.507-32.399l-.103.103c-.516 4.54-1.135 10.525-1.651 15.065m-62.812 31.057c13.408-9.08 28.673-19.398 56.521-10.731-14.956-3.508-33.521-7.842-56.418 10.628 0 0-.103 0-.103.103M167.445 195.443l.413-.103v-.104c-.207.104-.31.104-.413.207m-8.973 4.849v.103l8.767-4.746-.103-.103zm-51.777 31.057c27.745-17.334 30.736-19.191 51.674-30.85v-.104c-31.664 18.057-32.283 18.366-51.674 30.954q0-.155 0 0" opacity=".302"/><path fill="#00344A" d="M158.367 200.293h.103l.103.103-.206.104zM167.242 195.545l.206-.104v.104l-.103.103z"/><path fill="#00344A" d="M192.197 174.599v.103l24.135-7.428.206-.104 7.942-2.166-.103-.104-7.633 2.167-.206.103zm-32.593 11.66 9.592-3.508.104-.104 22.691-7.945v-.103l-22.691 7.945-.104.103zm-2.888 1.135v.103l2.682-1.032-.103-.103zm-12.789 5.365 12.686-5.159v-.103l-12.686 5.159zm-38.368 36.526c8.663-8.977 20.215-20.946 28.982-29.716-8.664 8.873-20.319 20.636-28.982 29.716" opacity=".302"/><path fill="#00344A" d="m156.613 187.498.103-.103.104.103-.207.104zM159.398 186.364h.207l-.103-.103zM192.098 174.6v.103l.206-.103v-.104z"/><path fill="#00344A" d="m224.582 164.798 14.337-3.714v.103c-4.229 1.135-10.005 2.58-14.234 3.715z" opacity=".302"/><path fill="#00344A" d="m224.383 164.9.206-.103.103.103-.206.104z"/><path fill="#00344A" d="M189.827 183.886v.103l22.794-10.834.207-.103 13.82-6.191-.103-.103-13.614 6.087-.207.104zm-14.233 7.325 14.027-7.119v-.103z" opacity=".302"/><path fill="#00344A" d="m189.621 183.99.206-.103v.103l-.206.104z"/><path fill="#00344A" d="m226.75 166.759 12.171-5.159v.103c-3.61 1.547-8.458 3.611-12.171 5.159z" opacity=".302"/><path fill="#00344A" d="M226.547 166.758h.206l.103.103h-.206z"/><path fill="#00344A" d="M78.226 220.308c23.929-11.659 24.857-12.175 40.328-18.159l.103-.103 17.431-6.398-17.431 6.294-.103.104c-26.61 11.143-27.126 11.349-40.328 18.262m27.435 8.977c9.283-9.596 21.763-22.39 31.149-31.779l-2.269 2.063c-8.664 8.874-20.319 20.636-28.88 29.716m-28.157-7.532c5.363 3.302 12.48 7.842 17.637 11.453 0 0 0-.103.103-.103-5.157-3.611-12.17-8.358-17.637-11.453zM66.783 201.117c21.144-19.914 41.05-38.796 83.957-67.377-27.436 18.882-51.158 35.185-83.957 67.377m11.14 18.366c23.619-29.716 41.565-51.59 74.467-84.711-23.619 24.144-42.185 43.232-74.468 84.711M72.557 215.872l3.3 4.54.104-.103c-1.856-2.373-4.332-5.572-6.085-8.048l-5.776-5.675-.103.103c2.681 2.58 6.291 6.191 8.56 9.183m-48.579 40.034-.103.103c11.242-11.143 20.938-20.739 50.951-34.049-18.358 8.667-35.686 16.921-50.848 33.843 14.646-21.771 14.956-22.184 34.45-45.709-17.122 20.739-22.28 26.93-34.45 45.812M181.268 226.19l-.413 4.23.103-.103c2.166-1.341 2.063-3.714.31-4.127m-2.373 4.746h.207c.722.103 1.34-.206 1.65-.309.103-1.342.309-3.096.412-4.437-2.269-.31-4.538 2.476-3.197 4.127q.31.465.928.619" opacity=".302"/><path fill="#00344A" d="m181.264 226.189-.412 4.334zM181.164 226.189h.103c-.103 1.239-.309 2.993-.412 4.231-.103 0-.103.103-.207.103z"/><path fill="#00344A" d="M286.57 166.552c-1.444-.413-1.96-1.651-1.238-2.889 1.134-1.548 2.888-1.548 3.3-1.548 1.341.103 1.857.826 1.857.826 1.444 1.857-1.135 4.127-3.61 3.714h-.103c0-.103-.103-.103-.206-.103M155.997 145.504c-2.269.412-2.991-1.032-1.547-2.993 2.269-3.095 7.323-4.849 7.735-2.682.104.413 0 .928-.309 1.444-1.444 2.477-4.126 3.818-5.673 4.128-.103 0-.103.103-.206.103M360.008 26.228c-3.094-.103-4.125-1.238-3.094-2.167 2.475-2.064 11.139-2.27 10.83-.206-.206 1.341-4.126 2.476-7.736 2.373M317.204 65.435c-1.753-.206-2.269-1.238-1.031-2.27.722-.619 2.269-1.135 3.816-1.135 2.166.206 2.476 1.238 1.547 2.167-.928.928-2.888 1.444-4.332 1.238m-1.237 1.857h.103c5.466.207 10.933-3.301 8.973-5.675-2.475-2.992-12.583-.619-13.099 2.993-.309 1.96 2.682 2.476 3.094 2.58.207.102.516.102.929.102" opacity=".302"/><path fill="#00344A" d="M317.203 65.436c-1.753-.207-2.269-1.239-1.031-2.27 1.96-1.548 6.085-1.445 5.879.206-.103 1.135-2.475 2.167-4.538 2.064zM369.085 123.007c-3.61-1.135-4.126-4.334-.929-6.088 3.92-2.166 9.799.207 8.664 3.508-.722 2.064-3.919 3.302-6.91 2.786-.207 0-.207 0-.413-.103-.103 0-.309-.103-.412-.103M349.074 172.434c-2.475-.825-2.579-3.508-.309-4.643 1.444-.722 2.784-.413 2.784-.413 2.682.516 3.507 3.096 1.444 4.54-.825.516-2.166 1.032-3.61.619-.103 0-.206-.103-.309-.103" opacity=".302"/><path fill="#00344A" d="M348.252 173.775c-3.816-1.341-4.022-5.469-.309-7.223 1.856-.928 3.507-.619 4.229-.619h.103c.619.103 1.237.31 1.753.722 3.713 2.27 1.857 6.398-2.166 7.326-.619.103-2.063.31-3.61-.206m-.412.619c.206.103.412.103.515.206 5.261 1.445 10.418-2.889 8.045-6.81-.309-.515-1.34-1.857-3.816-2.476-5.363-1.135-10.211 3.405-7.529 7.12a5.8 5.8 0 0 0 2.785 1.96M256.456 45.625c-.722.104-1.134 0-.928-.31.309-.515 1.547-1.03 2.475-1.237 1.135-.207 1.238.103 1.135.31-.413.412-1.65 1.031-2.682 1.237m-.722.516c.103 0 .207 0 .31-.103 2.372-.516 4.847-2.063 4.228-2.58-.103-.102-.309-.102-.515-.102-.722 0-1.754.206-2.991.618-2.476 1.032-2.991 1.858-2.476 2.167.413.207 1.032.104 1.444 0" opacity=".302"/><path fill="#00344A" d="M256.458 45.625c-.722.103-1.135 0-.928-.31.515-.825 3.506-1.754 3.61-1.135.103.413-1.341 1.135-2.579 1.445 0-.103-.103 0-.103 0M223.342 157.783c-4.125-.206-4.847-4.127-1.34-7.12 1.856-1.65 5.053-2.992 7.735-2.166 3.816 1.238 2.579 5.984-2.063 8.254a9.54 9.54 0 0 1-4.332 1.032M285.439 30.249c-1.135.206-1.754 0-1.444-.413.412-.516 2.166-1.238 3.816-1.547 1.856-.31 1.96.103 1.753.412-.412.516-2.372 1.342-4.125 1.548m-1.135 1.032c.103 0 .31 0 .413-.103 1.753-.31 5.466-1.239 7.426-2.89l.103-.103c1.031-1.135-.413-1.238-1.753-1.135-4.126.31-10.108 2.786-9.283 3.921 0 .207.516.723 3.094.31" opacity=".302"/><path fill="#00344A" d="M285.437 30.252c-1.134.206-1.753 0-1.444-.413.826-1.032 5.467-2.27 5.673-1.444.103.516-1.96 1.444-3.919 1.857zM184.362 65.95c-1.031.62-2.372 1.238-2.681 1.135-.104-.825 8.87-6.294 9.695-5.881.103.516-3.816 2.992-6.601 4.54-.103 0-.31.103-.413.206M252.33 30.354c-.516.206-1.547.516-1.65.413.309-.516 5.982-2.683 6.188-2.374-.103.207-1.65.929-2.991 1.445-.206.103-.619.206-1.134.413-.207 0-.31.103-.413.103M172.703 92.675c-1.031.413-1.65.31-1.444-.31.31-.825 2.269-2.27 3.919-2.991 1.96-.723 1.754 0 1.651.206-.207.929-2.373 2.373-4.126 3.095m-.412.516c.103 0 .206-.103.309-.103 3.094-1.238 6.188-4.024 5.157-4.643-2.063-.62-7.942 3.714-7.529 4.85.206.309.928.309 2.063-.104M326.075 13.435c-1.96.206-3.197 0-2.785-.413.928-1.135 9.695-2.58 9.592-1.547 0 .619-3.3 1.547-6.498 1.96zM230.777 101.034c-2.269 0-2.888-1.445-1.341-3.096 2.475-2.682 7.942-3.508 7.942-1.238 0 1.754-3.198 4.024-6.189 4.334zM169.614 196.682c-2.784-.413-2.578-3.818.413-5.985 2.991-2.063 6.085-1.135 5.569 1.651-.412 2.27-3.197 4.437-5.569 4.334z" opacity=".302"/><path fill="#00344A" d="M172.706 92.676c-1.031.413-1.65.31-1.444-.31.516-1.444 5.26-4.024 5.673-3.095.206.62-1.96 2.476-4.023 3.302 0 0-.103 0-.206.103M464.594 76.991c0 .103.103.103.103.207 1.856.412 4.229 1.032 6.085 1.444 1.857-.928.825-2.786-1.341-3.508-3.197-1.135-5.672.206-4.847 1.857m1.959 1.445h.104c.618.206 2.269.722 3.919.103-1.753-.413-4.126-.929-5.879-1.341.103.103.103.206.309.31.516.412.929.722 1.547.928" opacity=".302"/><path fill="#00344A" d="M464.8 77.2c1.753.309 4.229.928 5.982 1.34-.103.104-.103.104-5.982-1.34" opacity=".514"/><path fill="#00344A" d="M98.136 238.572c-1.547-.103-1.444-2.373.207-3.818.825-.722 1.547-.825 1.753-.825 1.753 0 1.65 2.166.103 3.611-.619.722-1.444 1.032-2.063 1.032m-1.856 4.333h.619c6.291-.206 12.583-10.008 8.767-13.619l-.104-.104c-4.538-3.714-13.098 4.437-12.583 10.215.207 2.064 1.444 3.302 3.3 3.508M240.267 162.526c-1.547-.206-1.857-1.857-.103-3.198 1.547-1.135 4.022-.722 3.713.929-.207.928-1.444 2.269-3.404 2.269zM75.651 222.99c-1.031.206-1.134-.929-.206-2.167.103-.103.206-.31.413-.516 1.134-1.135 2.372-1.341 2.372-.31 0 .826-1.032 2.477-2.476 2.993zM233.762 78.952l-2.269 3.921c2.475-1.548 3.404-3.199 2.269-3.92m-6.704 5.469c.206 0 .413-.104.619-.104 2.166-.412 3.61-1.34 3.61-1.34 1.031-.93 1.65-2.89 2.372-4.128-2.578-1.238-9.901 2.58-9.179 4.746.103.722 1.134 1.032 2.578.826" opacity=".302"/><path fill="#00344A" d="M233.661 78.848s.103 0 .103.103c-.722 1.135-1.547 2.786-2.269 3.92-.103 0-.103.104-.206.104z"/><path fill="#00344A" d="M154.763 134.567c-3.816.929-5.26-.929-3.301-4.024 1.857-2.992 6.395-6.294 10.108-7.326 3.92-1.135 5.879.31 4.229 3.405-1.135 2.167-4.951 6.088-10.623 7.842-.104.103-.31.103-.413.103M138.257 197.917c-2.475 0-2.784-2.683-.515-5.056 2.475-2.579 6.085-2.786 6.188-.206.103 1.857-2.269 4.952-5.466 5.262zM98.134 238.571c-1.547-.103-1.444-2.373.206-3.818 1.547-1.341 3.197-.928 3.094.619-.103 1.239-1.34 3.096-3.197 3.199zM161.15 92.674c-.928.412-1.547.515-1.443.206.309-1.032 4.744-3.92 5.157-3.302.309.413-1.444 1.96-3.61 3.096 0-.104-.104 0-.104 0M60.287 209.888c-1.547.825-2.269.413-1.856-1.032 1.031-3.714 7.22-9.596 8.354-7.842.62 1.032-1.134 4.024-2.681 5.675-1.65 1.961-2.992 2.786-3.507 3.096-.103-.104-.206 0-.31.103M192.301 75.547c-2.475.928-2.991.619-3.094.206 0-1.857 8.973-6.707 10.005-5.365.619.825-3.198 3.817-6.911 5.159M144.033 92.056c-2.269 1.754-2.578 1.96-2.681 1.96.309-.516 7.838-6.5 8.767-7.016-.104.103-.619.62-3.301 2.786-1.135.928-2.166 1.65-2.578 2.064 0 .103-.104.103-.207.206M202.824 55.839c-1.032.516-1.651.722-1.754.62-.103-.31 1.857-1.445 2.579-1.858 1.856-1.032 3.094-1.445 3.197-1.341.206.206-1.856 1.547-4.022 2.579M95.658 140.344c-.928.826-1.031.929-1.135.929.207-.619 3.817-4.231 4.23-4.437 0 .103 0 .103-.104.206-.31.413-1.34 1.651-2.888 3.096 0 .103-.103.103-.103.206" opacity=".302"/><path fill="#00344A" d="M226.439 284.383c35.996 15.374 35.996 15.374 65.597 28.788-31.87-14.342-31.87-14.342-65.597-28.788m85.4-106.585c-42.494 43.646-62.194 68.306-87.257 99.466 34.243-43.955 60.028-70.988 87.257-99.466m2.063.207h-.206c-11.758 66.861-13.821 95.441-16.503 131.658 3.61-52.21 9.695-90.489 16.709-131.658"/><path fill="#00344A" d="M226.443 284.383c0 .103 0 .206-.103.206 35.274 15.064 35.274 15.064 65.597 28.684-31.767-14.445-31.767-14.445-65.494-28.89m67.866 36.01-.103-.104-4.847 10.009c-7.53 16.199-17.122 38.073-24.032 54.479 9.386-22.493 10.83-25.589 28.982-64.384M227.474 390.556c-1.238-10.215-2.475-23.834-3.507-34.049.929 10.215 2.476 23.834 3.507 34.049m3.301 2.992v.207c8.045-.826 18.771-1.961 26.816-2.889v-.103zm-7.633-104.624-.103.103 6.91 20.017c12.687 34.462 14.75 39.208 30.736 75.734-18.565-41.685-26.094-63.249-37.543-95.854"/><path fill="#00344A" d="M157.65 425.432c-.722 2.27-1.651 5.262-2.373 7.532l.103.103 2.373-7.532zm7.735 4.54a221 221 0 0 0-8.148 5.365s0 .103.103.103l8.355-5.365zm59.822-34.463s0-.103-.103-.103c-25.889 13.93-29.705 16.303-59.513 34.566l.207.103c22.588-14.239 27.538-16.922 59.409-34.566m-7.942-106.894-.103-.103c-24.754 45.193-37.44 72.638-59.409 136.713l.103.103c22.588-67.892 38.781-98.227 59.409-136.713m3.61 1.032h-.103c.103 41.065 3.3 70.059 6.704 100.807-1.238-10.215-2.476-23.835-3.507-34.05-2.166-25.588-2.166-25.588-3.094-66.757M215.813 232.897c-.619-9.493-1.032-22.184-1.341-31.677zm94.683-57.575c-39.297 2.167-49.611 3.096-80.244 5.778 37.544-3.301 44.867-3.714 80.244-5.778m1.341 2.373s-.103 0-.103-.103l-5.261 5.469c-44.247 46.844-54.458 59.741-81.79 94.1 34.036-43.645 59.821-70.782 87.154-99.466M101.951 357.435c-2.888 2.27-6.807 5.365-9.695 7.739v.206l9.798-7.739zm-.825-50.971c-2.991 12.588-6.189 29.613-8.767 42.407 2.269-12.897 5.982-29.716 8.767-42.407m.103-.103c-2.991 12.691-6.292 29.716-8.767 42.51 2.27-12.794 5.982-29.819 8.767-42.51m9.076-33.43c-2.991 9.905-6.394 23.318-9.179 33.224 2.475-10.009 6.807-22.081 9.179-33.224m.103.103c-2.991 9.905-6.394 23.215-9.179 33.224 2.475-10.112 6.395-23.319 9.179-33.224m26.095 59.638v-.207c-10.417 7.223-24.135 17.231-34.346 24.764l.103.103c10.108-7.532 23.826-17.334 34.243-24.66m6.601-4.643c0 .103.103.103 0 0 0 .103 0 .103.103.206l22.382-14.342v-.206zm22.588-14.342v.206c14.749-8.873 34.552-20.326 49.507-28.89-14.955 8.357-34.758 19.81-49.507 28.684"/><path fill="#00344A" d="M184.154 156.441c0 .104 0 .104-.103.207.309 0 .722.103 1.031.103 0 0 0-.103.103-.103zm1.547.207c0 .103 0 .103-.103.206l1.444.206.103-.206zm1.65.206-.103.206 12.79 1.755.103-.207zm38.575 24.66q0-.155 0 0c-2.269.103-5.363.413-7.633.619v.207zm-25.682-22.906-.103.207c8.56 1.135 20.009 2.682 28.57 3.817v-.206c-8.561-1.135-19.906-2.683-28.467-3.818m95.611 17.334c-26.197 1.445-33.005 2.167-65.597 5.159 32.077-2.785 43.113-3.611 80.243-5.881zm-66.938-13.516v.206c26.198 3.508 35.377 4.85 81.791 11.763-29.911-4.747-49.611-7.429-81.791-11.969M172.602 167.066c-7.736 9.183-17.741 21.668-25.27 31.057 7.426-9.389 17.74-21.771 25.373-31.057zm-25.064 32.708c8.045-2.27 18.772-5.159 26.714-7.326zm.103-.103c8.045-2.27 18.772-5.159 26.817-7.326-8.148 2.064-18.875 5.056-26.817 7.326m30.943-39.312-5.879 6.604h.103zm1.65-1.857q-.155 0 0 0c-.413.31-.825.722-1.135 1.135 0 0 0 .103.104.103.309-.412.722-.825 1.031-1.238m3.3-1.135-.103.103c.207.207.516.413.722.619l.103-.103zm1.135 1.032-.103.103 1.444 1.342.103-.207zm1.547 1.341-.103.207 9.076 7.738.103-.206zm10.727 9.183-1.651-1.341-.103.206 8.458 6.81.412.103zm13.511 14.549c-7.942 1.857-18.565 4.436-26.507 6.397 7.839-2.064 18.462-4.54 26.507-6.397m-6.085-8.667-.413-.104c2.269 1.755 5.364 4.128 7.633 5.882l.103-.103z"/><path fill="#00344A" d="M146.711 201.633c4.126 5.778 10.108 13.207 14.44 18.778-4.539-5.468-10.211-13.103-14.44-18.778m.825-1.961v.207c8.045-2.27 18.772-5.159 26.714-7.326l.103-.207c-8.045 2.064-18.772 5.056-26.817 7.326m27.023-7.429-.103.207 9.179-2.373.103-.207zm9.283-2.373-.104.207 15.678-3.818 10.933-2.683c-7.942 1.754-18.462 4.334-26.507 6.294m31.973 43.026c1.032 13.104 2.888 30.542 4.435 43.542-4.125-36.629-4.125-38.073-5.672-75.528l-.104.207m-.206-12.898.103 12.691.103-.206-.103-12.588zm.103-1.444h-.103v1.238l.103-.103c.103-.31.103-.826 0-1.135"/><path fill="#00344A" d="M160.226 271.9c-7.735-1.238-17.946-2.992-25.682-4.333l-15.78-2.58 10.107 1.754c9.386 1.651 21.969 3.715 31.458 5.263zm-13.511-70.265-.103.103c4.125 5.778 10.004 13.104 14.439 18.779l.103-.103c-4.538-5.469-10.211-13.104-14.439-18.779m14.543 18.882-.104.103 3.507 4.127.103-.206zm-.826 51.383v.207l10.933 1.754.103-.207zm5.364-46.018-1.032-1.238-.103.206 1.754 2.064.103-.206zm.825 1.032-.103.206c5.569 6.397 13.305 14.549 19.081 20.739l.103-.206c-5.776-6.088-13.305-14.445-19.081-20.739m5.054 46.844-.103.206c13.202 2.167 30.839 5.056 44.144 7.119-13.305-2.27-30.839-5.159-44.041-7.325m14.233-26.002-.103.207c9.283 9.286 21.866 21.461 31.355 30.541-9.489-9.08-21.969-21.462-31.252-30.748M78.746 233.927c-1.65.928-3.817 2.167-5.467 3.198v.207zm5.982-3.508c-.62.103-1.341.722-1.96 1.135-.103 0-.103.103-.103.206l2.269-1.341zm-12.068 8.46c4.95 3.921 11.861 8.668 17.018 12.176-5.26-3.405-11.964-8.358-17.018-12.176m12.274-8.667h.206c5.776-3.301 13.718-7.429 19.597-10.627l.103-.207c-5.982 3.199-13.924 7.636-19.906 10.834m23.413 31.264c-5.673-2.992-12.996-7.223-18.565-10.421 5.466 3.301 12.995 7.326 18.565 10.421m-18.462-10.524c5.466 3.301 12.995 7.325 18.565 10.421-5.673-2.992-13.099-7.326-18.565-10.421m35.789-13.517c-2.578 5.365-5.982 12.485-8.56 17.85h.103l8.561-17.85zm14.44-34.772c-10.623 4.85-24.65 11.556-35.068 16.715l-.103.207c10.521-5.262 24.651-11.866 35.171-16.819zm1.754 4.231-9.799 18.056-6.395 12.382h.104c4.641-9.183 11.242-21.255 16.09-30.335zm-1.651-4.231.103.103c1.032-.412 2.373-1.031 3.404-1.444v-.103zm4.023.103-2.372 3.921v.103z"/><path fill="#00344A" d="M71.73 240.325c-1.134 18.469-1.134 19.707 1.238 52.106-2.166-19.707-2.063-20.946-1.238-52.106m20.628 108.649c-.515 3.405-1.237 7.841-1.753 11.246l.103.103zm-10.21-103.077c-2.888-2.064-6.602-4.953-9.386-7.12 0 0-.103.104-.103.207 4.95 3.921 11.86 8.667 17.018 12.175l.103-.206zm18.977 60.566c-2.99 12.588-6.188 29.613-8.767 42.407l.103.104c2.27-12.795 5.983-29.819 8.767-42.511zm-11.242-55.51-.103.206c5.466 3.302 12.996 7.326 18.565 10.318v-.103c-5.569-2.992-12.995-7.326-18.462-10.421m20.525 21.977c-3.094 9.905-6.498 23.215-9.283 33.224h.103c2.476-10.009 6.395-23.216 9.18-33.224"/><path fill="#00344A" d="m29.134 323.591 9.798-23.526-.103-.103m-10.005 30.542v.206c3.713 3.405 9.077 7.429 12.996 10.524l.103-.103c-4.126-2.992-9.18-7.429-13.099-10.627m19.494-50.352-9.283 19.707.103.103 9.283-19.604zm-6.292 60.979-.103.103c6.085 4.024 14.44 9.08 20.731 12.795v-.207c-6.394-3.611-14.543-8.77-20.628-12.691M70.39 240.427c-6.91 11.66-15.574 27.549-22.072 39.622v.103c6.395-12.072 15.265-27.859 22.072-39.725m1.238-.103-.722 21.152c.206 9.39 1.237 21.874 1.96 31.16l.103-.206c-2.166-19.707-2.063-20.945-1.341-52.106m1.34 52.312-.103.207 1.754 13.001.103-.104zm1.754 13.208-.103.103 1.444 8.77h.103zm-12.068 47.978v.207c6.705 3.611 15.884 8.048 22.794 11.349v-.103c-6.91-3.198-15.986-7.945-22.794-11.453m13.615-38.899h-.103l4.95 23.216.207.206zm5.157 23.732-.206-.207c1.856 6.604 4.332 15.374 6.188 21.978l.103-.103z"/><path fill="#00344A" d="M71.317 236.611c-.825 1.342-1.341 3.405-.825 4.025a56 56 0 0 0 .825-4.025m1.96.207v-.722c-.104-.929-.826-1.032-1.857.412-.206 1.238-.619 2.993-.825 4.231.31.103.516.103.928-.31.722-.722 1.444-2.063 1.65-3.405.103 0 .103-.103.103-.206M145.374 198.126c-1.444 1.032-1.65 2.683-1.753 2.889-.206 1.341.619 2.476 2.372 1.238l.206-.206zm2.269.928c0-.928-.618-1.857-2.062-1.031.206 1.135.618 2.786.825 3.92.722-.722 1.134-1.754 1.237-2.682zM301.528 313.069c-1.754-4.437-7.53-4.437-9.386.103 0 0 0 .103-.103.103-1.857 4.54 2.166 9.183 6.498 7.326 1.547-.619 4.228-2.992 3.197-7.12-.103-.103-.206-.309-.206-.412M223.553 281.495c.31.929.207 1.961-.309 2.889-1.238 2.374-4.229 2.58-5.054-.309-.103-.413-.309-1.445.413-2.683 1.237-2.27 4.228-2.27 4.95.103m2.888-1.444c-.103-.31-.206-.619-.412-.929-2.269-4.643-8.767-3.405-10.521 2.167-1.753 5.675 2.682 10.318 7.427 7.739 2.062-1.135 4.228-3.921 3.713-8.049 0-.309-.103-.722-.207-.928"/><path fill="#00344A" d="M223.557 281.495c-.825-2.373-3.713-2.373-4.951 0-1.341 2.476.206 5.262 2.578 4.643 1.238-.31 2.888-1.961 2.373-4.334q.155-.154 0-.309M218.293 180.585c-.619-3.096-4.745-2.993-6.91.206-2.373 3.611-.619 6.81 2.475 6.088 1.65-.31 3.713-1.961 4.332-4.643.103-.62.103-1.032.103-1.342q.155-.154 0-.309M184.464 154.893c-.103-1.651-1.857-1.857-3.404-.206-1.753 1.857-1.753 4.333.103 4.23 1.341-.103 3.198-1.857 3.301-3.714z"/><path fill="#00344A" d="M185.7 154.17c0 1.032-.412 1.961-.515 2.373-1.032 2.167-3.095 3.818-4.745 3.715-2.475-.103-2.475-3.715.103-6.397 2.373-2.373 5.157-2.167 5.157.309m.722-.309c-.103-1.445-.928-2.373-2.166-2.373-3.713-.104-7.838 6.294-5.672 8.873 2.166 2.373 7.529-1.754 7.735-5.984.103-.207.103-.413.103-.516M118.763 257.246c-2.063-4.643-7.632-2.27-10.417 4.23-.412 1.135-1.65 4.231-1.031 7.635.515-.515 1.237-1.238 1.753-1.857-.309-1.96.206-3.921.619-4.849 1.65-4.334 5.673-6.81 7.323-3.199.516-.516 1.238-1.238 1.856-1.754 0 0-.103-.103-.103-.206m.619 2.682c-.103-1.238-.309-1.96-.516-2.373-.515.516-1.237 1.238-1.856 1.754.928 2.58 0 5.778-1.135 7.739-2.166 3.611-5.879 4.437-6.807.413-.516.516-1.238 1.238-1.753 1.857.309 1.341 1.031 3.095 2.991 3.611 3.816.826 8.87-4.849 9.076-12.072z"/><path fill="#00344A" d="M117.01 259.106c-.309-.516-.619-.929-1.031-1.238-3.095-1.961-7.736 4.23-6.808 9.389 2.373-2.373 5.57-5.675 7.942-8.048-.103 0-.103 0-.103-.103m.516 2.063c-.103-.928-.31-1.444-.413-1.754-2.372 2.373-5.569 5.675-7.942 8.048.103.413.31 1.238.929 1.961 2.269 2.476 7.013-1.445 7.529-7.429-.103-.207-.103-.619-.103-.826M316.895 173.672c-.928-2.476-4.745-2.167-5.982.413-.207.412-.31.825-.31 1.135-.206 2.785 2.991 3.714 5.054 2.063.516-.413 1.65-1.548 1.341-3.302-.103-.103-.103-.206-.103-.309"/><path fill="#00344A" d="M28.313 256.938c-8.767 27.239-9.386 30.954-15.575 66.757 4.332-28.581 5.364-32.192 15.575-66.757M26.972 291.4c-4.435 9.699-9.592 22.906-13.512 32.811zm0 .206c-4.435 9.802-9.696 23.112-13.615 33.121zM12.527 330.507v.206c2.27 8.977 6.498 20.843 10.211 29.304v-.104c-3.816-8.667-7.838-20.429-10.21-29.406m15.678-38.073c-1.96 15.786-3.61 36.938-4.332 52.725.619-15.89 2.475-36.939 4.332-52.725M60.7 191.935c-13.1 21.874-13.719 23.318-30.118 59.019 10.005-23.216 11.036-25.279 30.014-58.813zm.205-.413-.206.31c.103 0 .206-.207.206-.31m-9.901 28.994c-2.475 10.318-4.745 24.144-6.188 34.668 1.34-10.524 4.022-24.35 6.188-34.668M29.03 255.494c0 .103 0 .103-.102.103-.929 8.564-1.032 20.12-.413 28.787 0 0 0-.103.103-.103-.619-8.667-.412-20.223.413-28.787m.62-1.342c0 .104-.103.104-.103.207 3.094 1.96 4.125 2.063 14.13 3.198v-.103c-8.767-1.032-8.767-1.032-14.027-3.302M30.063 288.82c2.372 3.612 6.085 7.842 8.87 11.144-2.992-3.096-6.292-7.739-8.87-11.144" opacity=".302"/><path fill="#00344A" d="M23.875 345.159c.722-15.89 2.372-37.042 4.332-52.725l-2.27 16.818c-1.03 14.342-2.062 33.533-2.062 47.979l.103-.104zM48.42 280.153c3.404 10.628 8.768 24.557 13.306 34.772-4.642-10.215-9.902-24.144-13.305-34.772" opacity=".302"/><path fill="#00344A" d="M30.068 288.715c0 .103 0 .103-.103.206 2.372 3.612 6.085 7.842 8.87 11.144l.103-.206c-2.888-3.096-6.291-7.739-8.87-11.144m21.969 22.39c-4.126-3.095-9.18-7.842-12.996-11.246l-.103.206.825.825c5.982 5.366 14.44 11.866 20.938 16.509v-.103zm-1.444-22.906c2.888 8.255 7.53 18.882 11.036 26.827-3.713-7.842-7.942-18.676-11.036-26.827" opacity=".302"/><path fill="#00344A" d="M38.93 299.861v.207l.103-.207z"/><path fill="#00344A" d="M43.16 260.033c-3.61 6.707-8.355 15.684-11.965 22.39v.103c3.61-6.706 8.458-15.683 11.965-22.493M62.138 190.49c-.103 0-.103.104 0 0l-3.92 8.977.104-.103zm-5.26 12.279-5.673 16.921v.31zm-5.88 17.644v-.31l-3.816 16.302-2.475 18.676c1.444-10.421 4.126-24.35 6.292-34.668m13.925-34.359s-.103.103-.103.206c2.269-1.341 5.363-2.889 7.735-4.127l.206-.207c-2.475 1.135-5.982 2.27-7.838 4.128m7.838-4.231-.206.207c2.785-1.342 6.498-2.889 9.283-4.128l.103-.206c-2.785 1.238-6.395 2.889-9.18 4.127m9.283-4.127-.103.206c7.117-2.785 7.117-2.785 7.117-2.992zM70.599 240.739c-5.467 31.677-5.467 33.224-6.705 71.71.723-33.223 1.135-35.39 6.705-71.71m1.444-7.325c-.207.928-.516 2.27-.722 3.198 0-.103.103-.103.103-.206zm16.296-55.305-6.189 9.493.104-.104zm-12.17 38.073-4.126 17.128h.103l4.125-16.921zm.102-.206v.103c2.785-9.595 7.117-22.183 10.418-31.676l-.103.103m2.681-6.5L86.69 184.3l.103-.103z" opacity=".302"/><path fill="#00344A" d="M71.417 236.507c-.104.103-.104.103-.929 4.23l.103.103c.31-1.444.62-3.095.826-4.333"/><path fill="#00344A" d="M46.46 271.382c-.618-3.611-1.134-8.461-1.65-12.072 0 0 0 .103-.103.103.619 6.294 2.372 14.549 3.61 20.739l.103-.206zm1.96 8.77-.103.207 2.27 7.842c2.887 8.254 7.528 18.778 11.035 26.723-4.538-10.215-9.798-24.144-13.202-34.772m33.624-92.449-2.475 3.921-6.086 10.112v.103z" opacity=".302"/><path fill="#00344A" d="m48.42 280.051-.104.103v.104l.104-.104z"/><path fill="#00344A" d="M51.313 243.112c-2.682 2.683-3.714 8.048-5.364 11.453zm22.072-41.169c-6.91 12.072-15.575 28.581-21.97 40.963h.104c5.466-10.937 13.202-25.279 19.08-36.01zM141.043 162.115c.825 10.834 2.785 25.176 4.538 35.907-1.856-10.628-3.61-25.073-4.538-35.907" opacity=".302"/><path fill="#00344A" d="m145.582 198.023.825 4.024z"/><path fill="#00344A" d="M107.316 269.216c-10.004 10.731-23 25.382-32.592 36.526 9.489-11.247 22.588-25.795 32.592-36.526" opacity=".302"/><path fill="#00344A" d="m74.72 305.742-.103.104zM117.008 259.311l-7.942 8.048z"/><path fill="#00344A" d="M107.316 269.318c-10.004 10.731-23 25.383-32.592 36.526zm31.355-107.823q0-.155 0 0l-7.632 11.969v.103z" opacity=".302"/><path fill="#00344A" d="m74.72 305.846-.103.103zM117.111 259.414l-8.045 8.048z"/><path fill="#00344A" d="M104.842 219.688c-2.166 2.27-3.3 6.5-4.744 9.286h.103l4.744-9.492zm26.095-46.122c-8.148 13.62-18.462 31.986-25.992 45.916l.103-.104c7.427-13.929 17.844-32.192 25.889-45.708z" opacity=".302"/><path fill="#00344A" d="m104.943 219.482-.103.207.103-.103.103-.207z"/><path fill="#00344A" d="M72.868 292.637c-2.063 6.088-4.848 14.136-6.911 20.223l.103.104 6.808-20.017zm16.811-41.581c-5.363 12.278-11.86 28.89-16.811 41.375v.206c4.847-12.588 11.758-29.097 16.811-41.581m6.395-13.517q-.154 0 0 0l-6.291 13.31h.103z" opacity=".302"/><path fill="#00344A" d="m89.78 250.852-.103.206h.104zM72.97 292.434l-.103.206v.206l.103-.206z"/><path fill="#00344A" d="M165.696 352.482v.206a7.2 7.2 0 0 1 1.34-.516v-.206zm3.403-6.81h-.103c.103.516.206 1.238.206 1.857h.103c0-.516-.103-1.341-.206-1.857m-3.507-31.779c.722 9.286 2.27 21.667 3.198 30.85h.103c-1.238-9.286-2.269-21.667-3.301-30.954zm-1.34-22.803h-.104l1.444 22.596.104-.103z" opacity=".302"/><path fill="#00344A" d="M165.594 313.686v.207l.103-.104v-.103z"/><path fill="#00344A" d="M137.536 334.734c-5.054 9.596-11.139 22.803-15.884 32.502 4.435-9.802 11.036-22.7 15.884-32.502m25.063-43.955c-6.395 10.525-14.439 24.867-20.628 35.494 5.982-10.73 14.44-24.866 20.628-35.494M162.491 290.68c-6.395 10.524-14.543 24.866-20.628 35.494 5.982-10.731 14.439-24.867 20.628-35.494" opacity=".302"/><path fill="#00344A" d="M137.531 334.736q-.155 0 0 0l-7.632 14.652c-2.579 5.365-5.879 12.484-8.458 17.85l.104.103c4.538-9.905 11.139-22.803 15.986-32.605m25.064-43.955c-6.498 10.421-14.543 24.763-20.629 35.494 5.983-10.731 14.44-24.866 20.629-35.494M101.227 306.154c26.713-8.254 32.283-9.905 60.543-17.437-30.839 8.357-35.687 9.596-60.543 17.437M76.27 314.718c7.426-2.579 17.43-6.087 24.96-8.564-7.53 2.58-17.534 5.882-24.96 8.564M76.063 314.824l-8.973 3.302z" opacity=".302"/><path fill="#00344A" d="m76.273 314.719-.207.103z"/><path fill="#00344A" d="M101.227 306.155v.206c14.336-4.643 14.336-4.643 46.207-13.62l14.336-3.921c-28.26 7.429-33.83 9.08-60.543 17.335M76.27 314.719v.206c7.426-2.58 17.327-6.088 24.856-8.461v-.206c-7.426 2.476-17.43 5.778-24.857 8.461M76.063 314.824l-8.973 3.405v.103a321 321 0 0 1 9.076-3.301z" opacity=".302"/><path fill="#00344A" d="M101.126 306.258v.206h.104v-.206zM76.273 314.719l-.207.103.103.104h.104z"/><path fill="#00344A" d="M74.62 305.845c-2.268 2.889-5.26 6.707-7.632 9.596v.103l7.633-9.493zm32.696-36.526v-.103c-10.004 10.731-23 25.382-32.592 36.526v.103c9.489-11.144 22.69-25.795 32.592-36.526m30.633-30.025c-5.776 5.468-13.408 12.794-19.081 18.263v.103l12.79-12.382 6.394-5.984zm10.314-9.287v-.103l-10.108 9.183h.207z" opacity=".302"/><path fill="#00344A" d="m74.72 305.742-.103.104v.103l.103-.103zM109.066 267.464v-.103c-.516.516-1.238 1.238-1.754 1.857v.103c.619-.516 1.238-1.238 1.754-1.857m9.798-9.802v-.103c-.515.515-1.237 1.238-1.856 1.754 0 0 0 .103.103.103z"/><path fill="#00344A" d="M117.111 259.413c-2.475 2.27-5.569 5.572-8.045 7.945v.103a295 295 0 0 0 8.045-8.048"/><path fill="#00344A" d="m185.805 247.651.103.103c8.354-14.135 19.803-32.708 28.467-46.637v-.206c-8.767 13.929-20.216 32.604-28.57 46.74m40.947-65.003c-.104-.103 0-.103 0 0l-12.171 18.056v.207z" opacity=".302"/><path fill="#00344A" d="M214.379 200.909v.31l.206-.31v-.206z"/><path fill="#00344A" d="M171.369 273.861a631 631 0 0 1-5.982 11.659s.103 0 .103.103l5.982-11.659zm14.336-26.002-14.233 25.899h.103l14.13-25.795z" opacity=".302"/><path fill="#00344A" d="m171.466 273.757-.103.206h.103l.104-.206zm14.337-26.105-.103.207.103.103.103-.206z"/><path fill="#00344A" d="M214.271 188.221c-12.583 7.326-29.086 17.334-41.462 24.866 12.376-7.635 28.982-17.54 41.462-24.866" opacity=".302"/><path fill="#00344A" d="m214.472 188.117-.206.104z"/><path fill="#00344A" d="M187.668 203.697c7.942-4.849 18.668-10.937 26.61-15.683-8.045 4.643-18.668 11.04-26.61 15.683M156.929 254.462l-2.063-12.898h-.206c1.444 9.08 3.816 21.152 5.57 30.232h.206zm3.507 17.644h-.206l2.888 12.691.309.929h.103z" opacity=".302"/><path fill="#00344A" d="M160.429 271.898h-.206l.103.207h.103z"/><path fill="#00344A" d="M153.416 231.451s-.104 0-.104.103c.413 2.993.929 6.913 1.341 9.906h.207zM167.029 216.593l-.103.206 5.673-3.611.103-.206z" opacity=".302"/><path fill="#00344A" d="m204.37 174.807-.413-.104z"/><path fill="#00344A" d="m187.661 203.697-14.749 9.08-.103.207c12.376-7.636 28.982-17.541 41.462-24.867v-.206c-8.045 4.746-18.668 11.143-26.61 15.786m38.368-22.08-.103-.103-11.449 6.397v.206z" opacity=".302"/><path fill="#00344A" d="M214.266 188.014v.207l.206-.104v-.103z"/><path fill="#00344A" d="M144.035 159.125c8.561 2.58 20.009 5.675 28.57 7.945-8.561-2.27-20.009-5.469-28.57-7.945" opacity=".302"/><path fill="#00344A" d="m172.605 167.068.104.104z"/><path fill="#00344A" d="m161.152 220.412.103.103 5.364-3.508.206-.103v-.207zM160.948 220.516l-3.507 2.373v.103c1.135-.722 2.579-1.651 3.507-2.476" opacity=".302"/><path fill="#00344A" d="m161.156 220.412-.207.104.103.103.207-.103z"/><path fill="#00344A" d="m141.037 162.115-.103.103c.825 10.834 2.784 25.176 4.641 35.907-1.857-10.731-3.61-25.176-4.538-36.01m5.363 39.931-.103.103a1313 1313 0 0 1 4.951 19.191s.103 0 .103-.103zm-2.269-43.026c6.085 1.857 14.233 4.127 20.319 5.778-6.086-1.651-14.234-4.024-20.319-5.778" opacity=".302"/><path fill="#00344A" d="m145.584 198.023-.104.104c.207 1.238.619 2.785.826 3.92l.103-.103z"/><path fill="#00344A" d="m182.502 169.443-.104.103c2.27.516 5.157 1.238 7.427 1.754 0 0 0-.103.103-.103zm46.207-6.81c-.104 4.54-.31 10.731-.516 15.271h.103l.516-15.168zm-.516-58.606q0-.156 0 0c-7.942 4.333-18.359 10.318-26.301 14.858l-.103.103c7.942-4.643 18.462-10.525 26.404-14.961m6.085 2.682h-.103c-3.3 23.009-3.404 24.248-5.466 55.718h.103c1.547-26.105 1.856-28.272 5.466-55.718" opacity=".302"/><path fill="#00344A" d="M228.715 162.426v.207h.206v-.207z"/><path fill="#00344A" d="M203.647 174.496c-2.166-1.032-5.466-1.238-7.735-1.857 0 0 0 .103-.103.103l8.148 1.96zm.413.103.309.206c6.498 1.548 15.265 3.509 21.763 4.953v-.103c-6.601-1.445-15.368-3.508-22.072-5.056" opacity=".302"/><path fill="#00344A" d="m204.062 174.602.31.207zM204.061 174.6l-.413-.104.31.207.412.104z"/><path fill="#00344A" d="M164.457 164.798c-6.085-1.651-14.233-4.024-20.319-5.778l-.103.103c8.561 2.58 20.009 5.675 28.57 7.945l.103-.103zm8.458 2.167-.104.103 9.593 2.373.103-.103zm-27.642-12.072q0 .155 0 0c24.135-16.303 29.704-19.708 56.521-35.907l.103-.103c-26.404 15.786-31.045 18.882-56.624 36.01" opacity=".302"/><path fill="#00344A" d="m172.812 166.965-.207.103.104.104.206-.207z"/><path fill="#00344A" d="M51.203 220v-.31l2.888-13.826-2.991 14.342v.309c-.619 6.81-.31 15.89-.103 22.7l.103-.206c-.619-6.913-.31-16.096.103-23.009m5.673-17.335-.516.31c4.332-2.476 10.211-5.572 14.646-7.739-4.229 2.064-9.901 5.056-14.13 7.429m13.511-3.198c-4.125 8.151-8.973 19.191-12.79 27.446 3.508-8.255 8.87-19.192 12.79-27.446" opacity=".302"/><path fill="#00344A" d="M72.145 233.204c-6.291 2.786-14.542 6.707-20.73 9.596h-.104l-.31.103c5.364-13.207 13.203-30.644 19.288-43.542-4.126 8.152-8.973 19.192-12.79 27.446L51.002 242.8l-.104.206v.104l.207-.104h.103c6.085-2.992 14.44-6.809 20.628-9.595h.103l6.601-2.889zm4.126-17.127v-.104l-2.682-12.897c1.444 7.326 4.23 16.921 6.704 23.938zM87.204 150.045c-7.323 10.112-16.193 24.144-22.691 34.772l.103-.104c6.395-10.73 15.574-24.453 22.588-34.668m-26.507 41.891.103-.206c0-.103.103-.103.103-.207zl-.103.206c-1.444 2.786-3.3 6.604-4.745 9.39zm-4.848 10.628 2.27-2.993.102-.103 8.045-10.008zm16.812-20.636-.206.206c-4.435 5.056-10.005 12.072-14.337 17.334l-.103.103-2.269 2.993c11.861-15.477 13.511-17.128 32.902-37.764-4.745 4.952-11.14 11.969-15.987 17.128m17.018-34.875c-.825 1.444-2.166 3.611-2.062 5.365.206 3.095 1.444 7.12 2.99 9.699-1.03-1.238-2.578-3.199-2.681-4.849-.206-3.096.619-7.326 1.753-10.215" opacity=".302"/><path fill="#00344A" d="M71.11 195.237c-4.435 2.166-10.314 5.262-14.646 7.738zm-14.646 7.738c-1.031.619-1.031.619-1.237.825l1.547-1.031c1.444-.826 3.3-2.064 4.847-2.786m27.848-35.804v-.103l-.619.619c-15.058 15.477-15.367 15.89-33.005 37.867l10.314-13.104 6.395-7.428.206-.207M100.505 233.206c0 .103 0 .103-.103.207 7.53 1.341 17.637 2.889 25.27 4.024l.103-.207c-7.632-1.032-17.74-2.786-25.27-4.024m54.356 8.255h-.207l-16.399-2.27h-.206l-12.274-1.754-.103.206 12.17 1.754h.207l16.605 2.373h.207c1.031.103 2.475.31 3.61.516v-.206zm-.929-10.318c-.103 0-.103.103-.103.103 1.547 2.786 3.713 6.5 5.26 9.286l.104-.103z" opacity=".302"/><path fill="#00344A" d="m125.672 237.438.103-.104zM125.775 237.334l-.103.104.103.103.103-.207z"/><path fill="#00344A" d="M131.036 173.568v-.103l-1.856-9.492 1.753 9.699v.103c2.269 8.873 6.085 20.429 9.18 28.993l.103-.103c-3.198-8.667-6.704-20.326-9.18-29.097m9.283 29.2-.103.104 1.753 4.127.103-.207zm1.65 4.024-.103.207c2.269 4.849 5.363 11.35 7.736 16.199 0 0 0-.103.103-.103z" opacity=".302"/><path fill="#00344A" d="m140.216 202.664-.103.103.103.103.104-.103zm1.754 4.024-.103.206v.104l.103-.207z"/><path fill="#00344A" d="M83.49 229.902c0 .104 0 .104-.103.207l1.237.309.207-.103zm1.65.413-.206.103c3.3.619 7.632 1.548 10.933 2.167 0 0 0-.103.103-.103z" opacity=".302"/><path fill="#00344A" d="m84.933 230.215-.206.207h.206l.206-.104z"/><path fill="#00344A" d="m73.586 203.077-.103-1.238v-.104c-.103-1.444-.206-3.405-.31-4.849l-.103.103.31 4.85v.103c.515 4.333 1.96 9.905 2.888 14.239v.103l4.022 10.73c-2.578-7.016-5.157-16.611-6.704-23.937m49.508-37.145c-17.431 23.938-17.844 24.557-39.194 59.122 15.059-24.97 17.843-28.787 39.194-59.122M82.048 177.797l-.103.206-6.292 11.556 3.197-5.984 3.095-5.572zm9.901-15.374a821 821 0 0 1 14.956-1.548 667 667 0 0 0-14.956 1.548m-5.157 21.874-4.538 3.198-.103.104-6.807 5.159 6.704-4.953.103-.103 4.538-3.199.103-.103c5.983-4.127 14.131-9.286 20.216-13.207l16.09-9.596c-14.955 8.564-16.193 9.39-36.306 22.7M88.645 158.916c-.928-1.857-1.134-4.746-1.031-6.81.103-1.65 1.444-3.714 2.063-5.262l-.103.103c-2.166 3.715-2.166 3.715-1.754 10.318.103 1.651 1.857 3.302 2.682 4.747v-.103zm48.373-60.566c-22.794 20.842-22.794 20.842-44.247 44.677 8.251-9.183 19.184-21.668 28.261-30.026 4.847-4.333 11.448-10.008 15.986-14.651m-44.66 61.701c15.575-28.477 25.889-40.137 44.454-61.289-21.453 22.494-29.601 36.32-44.454 61.289" opacity=".302"/><path fill="#00344A" d="M136.916 98.763q-.155.154 0 0c-21.556 22.596-29.704 36.319-44.453 61.289 15.471-28.478 25.785-40.137 44.453-61.29m-30.014 62.011c-4.538.516-10.52 1.135-14.955 1.651l-.103.103c18.256-1.96 18.256-1.96 32.386-3.508-5.26.516-12.171 1.238-17.328 1.754m31.046-62.836-.103.103c-18.36 22.906-14.131 41.478-10.624 56.439-8.664-27.858 1.65-43.129 10.727-56.542M195.191 167.687c-.103.103-.103.31-.207.413h.104zm4.847-8.977-4.744 8.771.103.103 4.744-8.77zm31.046-51.796q-.156 0 0 0c-12.584 19.398-12.893 20.017-30.943 51.59h.104c11.654-20.842 13.408-23.731 30.839-51.59" opacity=".302"/><path fill="#00344A" d="m200.142 158.607-.103.104.103.103.103-.207zM195.291 167.48l-.103.207h.103l.103-.103z"/><path fill="#00344A" d="m174.355 192.449-7.426 24.247-.103.206-2.166 7.636.103.103 2.166-7.945.103-.206 7.427-24.145zm11.655-32.605-3.61 9.595-.103.104-7.942 22.699h.104l7.941-22.699.104-.104zm1.135-2.889-1.032 2.682.104.104 1.031-2.683zm5.363-12.795h-.103l-5.157 12.691h.103zm36.512-38.383c-8.973 8.564-20.834 20.224-29.705 28.994 8.767-8.77 20.732-20.327 29.705-28.994" opacity=".302"/><path fill="#00344A" d="m187.248 156.852-.103.103.103.104.103-.207zM186.11 159.639l-.104.206.104.103zM174.357 192.348l-.103.207h.103l.103-.207z"/><path fill="#00344A" d="m164.561 224.848-3.713 14.342h.103c1.134-4.231 2.578-10.009 3.713-14.239z" opacity=".302"/><path fill="#00344A" d="m164.662 224.643-.103.207.103.103.103-.207z"/><path fill="#00344A" d="m183.641 190.079-10.933 22.906-.103.206-6.085 13.62.103.103 6.188-13.826.103-.207 10.83-22.802zm7.323-14.239-7.22 14.032h.103z" opacity=".302"/><path fill="#00344A" d="m183.74 189.871-.103.207h.103l.103-.207z"/><path fill="#00344A" d="m166.516 227.016-5.157 12.175h.104c1.547-3.611 3.609-8.461 5.157-12.175z" opacity=".302"/><path fill="#00344A" d="M166.52 226.809v.207l.103.103v-.207z"/><path fill="#00344A" d="M220.051 78.437c-6.911 13.207-7.117 13.723-18.359 40.447l-.104.103-6.291 17.437 6.395-17.437.103-.103c6.188-15.581 6.601-16.509 18.256-40.447m8.973 27.446c-9.076 8.564-20.938 20.223-29.705 28.994l-2.062 2.27c9.385-9.493 22.175-21.978 31.767-31.264m-7.529-28.168c-.104 0-.104.103-.104.103 3.198 5.469 7.839 12.485 11.449 17.644 0 0 .103 0 .103-.103-3.61-5.16-8.148-12.279-11.448-17.644M200.863 66.984c-32.18 32.81-48.477 56.542-67.351 83.988 28.57-42.82 47.444-62.837 67.351-83.988m18.359 11.143c-41.463 32.295-60.544 50.868-84.679 74.496 33.108-32.915 54.974-50.868 84.679-74.496M215.615 72.762c-2.991-2.27-6.601-5.882-9.18-8.564l-.103.103 5.673 5.778c2.372 1.857 5.569 4.333 8.045 6.088l.103-.104zm40.018-48.598c-18.874 12.175-25.063 17.334-45.794 34.462 23.516-19.501 23.928-19.81 45.691-34.462-16.915 15.167-25.166 32.501-33.83 50.867 13.305-30.128 22.897-39.827 34.036-50.97zM225.926 181.513c.412 1.651 2.785 1.857 4.229-.31l.103-.103zm4.744-2.477a2 2 0 0 0-.515-.928c-1.651-1.342-4.435.928-4.126 3.198 1.341-.103 3.094-.309 4.435-.412.103-.31.413-.929.309-1.651-.103 0-.103-.103-.103-.207" opacity=".302"/><path fill="#00344A" d="m225.926 181.514 4.332-.412zM225.926 181.41v.104c1.237-.104 2.991-.31 4.229-.413 0-.103.103-.103.103-.206z"/><path fill="#00344A" d="M166.31 286.859c-.413-1.444-1.65-1.96-2.888-1.238-1.547 1.135-1.547 2.889-1.547 3.302.103 1.341.825 1.857.825 1.857 1.857 1.445 4.126-1.135 3.713-3.611v-.103c-.103 0-.103-.104-.103-.207M145.275 156.234c.412-2.27-1.032-2.992-2.991-1.548-3.095 2.27-4.848 7.326-2.682 7.739.412.103.928 0 1.444-.31 2.475-1.444 3.816-4.127 4.126-5.674 0-.104.103-.104.103-.207M65.23 317.503c.206 1.548-.413 3.405-1.238 4.334-.928.928-1.96.619-2.166-1.548-.103-1.548.516-3.095 1.135-3.818 1.031-1.238 2.063-.825 2.269 1.032m1.856-1.238c0-.413-.103-.722-.103-.929 0-.412-.618-3.301-2.578-3.095-3.61.516-5.982 10.628-2.991 13.104 2.372 1.96 5.879-3.508 5.672-8.977zM45.432 256.627c-.207 1.032-.826 2.374-1.238 2.683-.206.103-.516.103-.31-1.135.207-.929.722-2.167 1.238-2.476.31-.207.413.206.31.928m.515-.619c.103-.412.103-1.135 0-1.444-.206-.516-1.134 0-2.166 2.476-.515 1.238-.722 2.27-.618 2.992.103.207 0 .31.103.516.515.619 2.063-1.857 2.578-4.23.103-.103.103-.207.103-.31" opacity=".302"/><path fill="#00344A" d="M45.43 256.628c.104-.722 0-1.135-.309-.928-.825.516-1.753 3.508-1.134 3.611.412 0 1.134-1.341 1.444-2.58-.103.104 0 0 0-.103M157.545 223.508c-.206-4.127-4.126-4.85-7.117-1.342-1.65 1.858-2.991 5.056-2.166 7.739 1.238 3.818 5.982 2.579 8.251-2.064.722-1.341 1.032-2.785 1.032-4.333q0 .155 0 0M30.063 285.723c-.207 1.651-1.032 3.715-1.65 4.127-.31.207-.723.104-.413-1.754.31-1.651 1.031-3.405 1.547-3.817.516-.31.722.309.516 1.444m1.031-1.135c.412-2.579-.103-3.095-.206-3.198-1.135-.826-3.61 5.159-3.92 9.286-.103 1.341 0 2.786 1.135 1.754l.103-.103c1.547-1.961 2.579-5.675 2.888-7.429z" opacity=".302"/><path fill="#00344A" d="M30.064 285.725c.206-1.135 0-1.754-.413-1.444-1.031.825-2.269 5.468-1.444 5.674.516.104 1.444-1.96 1.857-3.92zM65.747 184.609c.619-1.031 1.238-2.373 1.135-2.682-.825-.104-6.292 8.873-5.88 9.699.516.103 2.992-3.818 4.539-6.604 0-.103.103-.309.206-.413M30.162 252.604c.206-.516.515-1.548.412-1.651-.516.31-2.681 5.985-2.372 6.191.206-.103.928-1.651 1.444-2.992.103-.207.206-.619.412-1.135 0-.207.104-.31.104-.413M92.465 172.948c-.62 1.755-2.166 3.818-3.094 4.231-.207.103-.929.309-.207-1.651.722-1.754 2.166-3.611 2.991-3.921.516-.206.62.31.31 1.341m.515-.412c.413-1.135.413-1.857.104-1.961-1.135-.412-5.467 5.469-4.848 7.532.619 1.032 3.3-2.063 4.641-5.159 0-.206.103-.309.103-.412M100.813 231.039c0-2.27-1.444-2.889-3.094-1.341-2.682 2.476-3.507 7.945-1.238 7.945 1.753 0 4.022-3.199 4.332-6.191zM196.433 169.853c-.413-2.786-3.816-2.579-5.982.413-2.063 2.992-1.135 6.088 1.65 5.572 2.269-.413 4.435-3.199 4.332-5.572.103-.103 0-.206 0-.413" opacity=".302"/><path fill="#00344A" d="M92.464 172.949c.412-1.032.31-1.651-.31-1.445-1.444.516-4.022 5.263-3.094 5.675.619.207 2.475-1.96 3.3-4.024 0 0 0-.103.104-.206M238.301 98.35c0 .722-.31 1.444-1.032 2.166-1.444 1.445-3.61 1.651-3.61-.103 0-.31.103-.929.825-1.754 1.444-1.754 3.713-1.96 3.817-.31m4.332-1.858c-.207-1.857-1.444-3.095-3.507-3.302-5.776-.516-13.821 8.048-10.211 12.588l.103.103c3.61 3.818 13.408-2.476 13.615-8.77zM162.287 240.533c-.207-1.548-1.857-1.857-3.198-.103-1.134 1.547-.722 4.024.929 3.714.928-.206 2.269-1.444 2.269-3.405zM222.73 75.859c.207-1.032-.928-1.135-2.166-.207-.103.103-.309.207-.515.413-1.135 1.135-1.341 2.373-.31 2.373.825 0 2.476-1.032 2.991-2.476zM78.744 234.033c.722 1.135 2.475.206 3.92-2.27zm5.466-6.81c.207-1.444-.103-2.373-.825-2.579-2.269-.723-5.982 6.603-4.744 9.183 1.238-.723 3.094-1.342 4.125-2.374 0 0 .929-1.444 1.341-3.611.103-.103.103-.413.103-.619" opacity=".302"/><path fill="#00344A" d="M78.645 233.928s0 .103.103.103c1.134-.722 2.784-1.548 3.919-2.27 0-.103.103-.103.103-.206z"/><path fill="#00344A" d="M134.336 154.995c.928-3.818-.928-5.262-4.023-3.302-2.991 1.857-6.291 6.397-7.323 10.112-1.134 3.921.31 5.881 3.404 4.23 2.166-1.135 6.085-4.952 7.839-10.627.103-.103.103-.31.103-.413M197.664 138.487c0-2.477-2.681-2.786-5.054-.516-2.578 2.476-2.784 6.088-.206 6.191 1.857.103 4.951-2.27 5.26-5.469zM238.304 98.351c-.104-1.548-2.373-1.445-3.817.206-1.34 1.548-.928 3.199.619 3.096 1.238-.103 3.094-1.342 3.198-3.199zM92.462 161.393c.412-.928.515-1.547.206-1.444-1.032.309-3.92 4.746-3.3 5.159.412.309 1.959-1.445 3.094-3.612-.104 0 0-.103 0-.103M209.63 60.483c.826-1.547.413-2.27-1.031-1.857-3.713 1.032-9.592 7.223-7.839 8.358 1.032.619 4.023-1.135 5.673-2.683 1.96-1.65 2.785-2.992 3.094-3.508-.103-.103 0-.206.103-.31M75.341 192.554c.929-2.476.62-2.992.207-3.095-1.857 0-6.704 8.977-5.364 10.008.826.62 3.817-3.301 5.157-6.913M91.843 144.265c1.753-2.27 1.96-2.58 1.96-2.683-.516.31-6.498 7.842-7.014 8.77.103-.103.619-.619 2.785-3.301.928-1.135 1.65-2.167 2.063-2.58.103 0 .103-.103.206-.206M55.64 203.078c.517-1.031.723-1.651.62-1.754-.31-.103-1.444 1.857-1.857 2.58-1.031 1.857-1.444 3.095-1.34 3.198.206.207 1.546-1.857 2.578-4.024M140.116 95.873c.825-.928.928-1.032.928-1.135-.618.207-4.228 3.818-4.435 4.23.104 0 .104 0 .207-.103.412-.31 1.65-1.34 3.094-2.889.103 0 .103-.103.206-.103" opacity=".302"/></svg>