<svg xmlns="http://www.w3.org/2000/svg" width="539" height="360" fill="none"><g clip-path="url(#a)"><path fill="#D7E4F9" d="M262.84 359.76C117.68 359.76 0 354.61 0 348.25c0-6.36 117.68-11.51 262.84-11.51 145.16 0 262.84 5.15 262.84 11.51 0 6.36-117.68 11.51-262.84 11.51Z"/><path fill="#003889" d="M377.5 155.29 390.1 185l45.41 107.16 2.82 6.63c1.37 3.22 1 6.36-.69 8.45a6.74 6.74 0 0 1-3.98 2.38l-194.72 40.6c-4.71.97-8.9.9-11.05-4.12l-72.45-169.74c-1.34-3.13-.04-6.16 2.9-6.77l64.53-13.18c1.98-.4 4.3.4 6.03 2.08l14.6 14.28 121.58-24.82c4.72-.97 10.27 2.32 12.41 7.33Z" opacity=".2"/><path fill="#34C6CD" d="m417.44 134.01 6.56 33.7 23.6 121.5 1.47 7.51c.71 3.65-.29 7.17-2.4 9.48a8.18 8.18 0 0 1-4.47 2.58l-202.96 40.88c-4.91.97-9.1.8-10.22-4.9l-37.9-192.46c-.7-3.56 1.22-6.93 4.29-7.54l67.19-13.23c2.07-.4 4.23.55 5.6 2.48l11.71 16.4 126.6-24.94c4.93-.96 9.81 2.87 10.93 8.54Z"/><g filter="url(#b)"><path fill="#fff" d="M191.7 72.9c33.34 71.54 39.06 151.98 10.45 226.08-1.3 3.24-.15 5.57 2.64 5.24l148.69-17.4c2.8-.32 6.31-2.69 7.8-5.3a263.8 263.8 0 0 0 8.06-15.87C392.87 215.11 399.1 159 382.76 104.7c-.82-2.58-4.28-5.13-7.67-5.72L290.2 84.3l-95.4-16.5c-3.38-.57-4.73 1.7-3.1 5.1Z"/></g><path fill="#ECF3FE" d="M262.79 123.94c.59-4.01 2.03-7.33 4.38-9.95 2.35-2.6 5.58-4.37 9.69-5.35 4.8-1.14 9.8-.82 14.53-.29 2.9.33 5.84.91 8.73 1.7A73.89 73.89 0 0 1 311 114a67.79 67.79 0 0 1 16.5 10.38l.2.19a51.74 51.74 0 0 1 11.25 13.62c1.52 2.71 2.72 5.5 3.6 8.36a40 40 0 0 1 1.57 7.8c.21 2.15.24 4.22.09 6.22-.23 3.04-.89 5.9-1.92 8.56a28.27 28.27 0 0 1-8.13 11.4l-.38.31c-3.57 3.05-8.71 5.61-13.17 6.91a55.14 55.14 0 0 1-17.93 2.25 54.1 54.1 0 0 1-12.2-1.6 39.71 39.71 0 0 1-10.18-4.15 35.63 35.63 0 0 1-10.72-9.66 41.26 41.26 0 0 1-3.6-5.76l8.74.45 1.05 1.28a30.3 30.3 0 0 0 8.33 6.85 37.25 37.25 0 0 0 12.87 4.15c5.21.63 10.61.98 15.88.1.36-.06.73-.1 1.08-.18.67-.13 1.33-.27 1.97-.44a32.67 32.67 0 0 0 9.05-3.6 25.17 25.17 0 0 0 4.9-3.79 22.3 22.3 0 0 0 6.51-13.7c.2-1.8.2-3.69-.01-5.66a37.07 37.07 0 0 0-2.66-10.34 39.7 39.7 0 0 0-3.35-6.43l-.02-.04a43.38 43.38 0 0 0-11.28-11.84 52.03 52.03 0 0 0-11.63-6.22c-1.31-.52-2.66-.97-4.03-1.39l-.71-.2a57.44 57.44 0 0 0-8.75-1.79c-1.8-.23-3.52-.35-5.13-.36-2.51-.03-4.78.19-6.8.67-3.29.8-5.86 2.18-7.71 4.15a14.14 14.14 0 0 0-3.57 7.4c-.13.73-.22 1.5-.27 2.27a27.7 27.7 0 0 0 .6 7.49 36 36 0 0 0 4.8 11.97c2.33 3.72 4.75 6.69 7.37 8.9 2.6 2.23 4.64 3.38 6.12 3.47.43.02.8-.15 1.07-.5.28-.36.38-.87.31-1.54a25.4 25.4 0 0 0-1.04-3.96 346.39 346.39 0 0 0-12.26-31.47l-.12-.24.38.04 10.97 1.22c.9 1.94 1.34 2.9 2.2 4.85 1.52-3.59 4.87-4.99 9.98-4.47 1.46.15 3.02.51 4.58 1.03a31.16 31.16 0 0 1 8.45 4.34 42.27 42.27 0 0 1 10.1 11.05c2.18 3.6 4.13 8.63 4.55 12.91.14 1.45.17 2.82.06 4.09-.2 2.35-.83 4.42-1.89 6.19a12.91 12.91 0 0 1-6.72 5.68 14.39 14.39 0 0 1-7.29.74 15.2 15.2 0 0 1-1.65-.32 18.21 18.21 0 0 1-8.51-5.07c-.28 1.7-1.03 2.9-2.2 3.62-1.18.73-2.88 1.03-5.1.92a24.68 24.68 0 0 1-10.9-3.16 35.62 35.62 0 0 1-9.38-7.67 48.86 48.86 0 0 1-7.15-10.7 50.16 50.16 0 0 1-4.5-13.47c-.83-4.5-1.02-8.57-.48-12.17Zm32.8 18.66a42.57 42.57 0 0 0 3.03 9.6 28.56 28.56 0 0 0 5.46 8.43c2.18 2.26 4.55 3.46 7.13 3.62a6.83 6.83 0 0 0 2.39-.27 5.46 5.46 0 0 0 2.8-2.08c.48-.65.83-1.42 1.07-2.31.39-1.44.47-3.18.23-5.24a28.96 28.96 0 0 0-2.88-9.56 25.34 25.34 0 0 0-7.01-8.76 12.36 12.36 0 0 0-6.22-2.64 6.57 6.57 0 0 0-3.2.35c-.88.37-1.58.97-2.1 1.8-.5.84-.8 1.85-.93 3.03-.12 1.16-.04 2.51.23 4.03ZM280.67 212.52l46.9.03a4.46 4.46 0 0 0 4.25-3.83 3.33 3.33 0 0 0-3.28-3.9l-47.22-.56c-2.06-.02-3.85 1.82-4.02 4.11-.18 2.3 1.31 4.15 3.37 4.15ZM242.69 230.32l117.86-2.7a5.07 5.07 0 0 0 4.56-3.69c.47-2-.83-3.6-2.87-3.57l-118.55 1.36c-2.04.02-3.88 1.98-4.15 4.37-.27 2.38 1.12 4.27 3.15 4.23ZM239.74 247.93l116.57-5.37c2-.1 4.15-1.77 4.76-3.75.6-1.98-.56-3.53-2.58-3.46l-117.17 4.08c-2.02.07-3.97 2.05-4.4 4.4-.43 2.37.81 4.2 2.82 4.1ZM235.6 265.28l115.44-7.97a6.32 6.32 0 0 0 4.97-3.78c.74-1.95-.3-3.45-2.3-3.34l-115.96 6.73c-2 .12-4.06 2.1-4.65 4.41-.59 2.33.51 4.09 2.5 3.95ZM230.27 282.3l114.5-10.46a7.1 7.1 0 0 0 5.19-3.8c.88-1.92-.05-3.36-2.02-3.2L233 274.11c-1.98.16-4.16 2.14-4.9 4.42-.75 2.27.2 3.95 2.17 3.77Z"/><path fill="#003889" d="M290.18 84.3a343.87 343.87 0 0 1 17.64 51.72 323.6 323.6 0 0 1 9.88 76.52 339.24 339.24 0 0 1-.3 16.07 291.65 291.65 0 0 1-1.1 15.79 323.31 323.31 0 0 1-3.1 23.24 283.27 283.27 0 0 1-1.9 10.1c-.71 3.26.75 5.3 3.35 4.5l54.7-16.59C392.88 215.1 399.1 159 382.77 104.7c-.82-2.59-4.29-5.13-7.67-5.72L290.18 84.3Z" opacity=".2"/><path fill="#4CD8BD" d="m464.55 341.67-29.68-46.69s44.4 39.26 44.4 38.53c0-.74 33.8-75.57 33.8-75.57s-17.11 70.17-16.62 80.47c0 0 17.14-15.6 25.25-16.87 8.12-1.28-11.14 14.65-11.12 23.99h-44.25l-1.78-3.86Z"/><g filter="url(#c)"><path fill="#fff" d="M300.7 53.34c26.26 72.55 28.33 150.71 1.83 223.51-1.17 3.13-.02 5.35 2.66 4.96 55.48-8.3 110.95-16.6 166.43-24.88 2.68-.4 6.02-2.8 7.38-5.34 33.18-63.84 42.11-136.87 18.7-205.51-.88-2.47-4.3-4.85-7.58-5.34L324.62 16c-2.52 3.77-5 7.56-7.46 11.37a2645.99 2645.99 0 0 0-16.47 25.97Z"/></g><path fill="#ECF3FE" d="M397.2 73.11a314.04 314.04 0 0 1 10.13 70.45c.06 3.08 2.42 5.62 5.33 5.63l77.17.24c2.88 0 5.42-2.24 5.58-4.98 1-21.03-.28-41.65-4-62.37-.51-2.69-3.52-5.08-6.63-5.4l-83.43-8.46c-3.15-.31-4.98 1.85-4.16 4.9Z"/><path fill="#FFD24D" d="M405.72 118.23c.83 8.44 1.36 16.85 1.61 25.33.06 3.09 2.42 5.62 5.33 5.63l77.17.24c2.88 0 5.42-2.23 5.58-4.98.4-7.17.57-14.36.37-21.55a1322.68 1322.68 0 0 0-25.26-22.6c-2.34-2.04-5.75-2.06-7.22.01a6078.8 6078.8 0 0 1-15.47 21.74c-1.24 1.73-3.8 1.9-5.6.36-4.79-4.15-9.62-8.25-14.45-12.34-1.68-1.42-3.92-1.79-5.56-.9-5.53 2.97-11.03 6-16.5 9.06Z"/><path fill="#ECF3FE" d="m350.51 79.47 38.7 3.21c1.93.16 3.11-1.27 2.63-3.19a5.36 5.36 0 0 0-4.4-3.78l-38.98-3.55c-1.94-.18-3.01 1.32-2.44 3.35.58 2.03 2.58 3.8 4.5 3.96Z"/><path fill="#FFD24D" d="m428.84 60.3 55.62 6.38c1.98.22 3.24-.92 2.8-2.55-.45-1.63-2.45-3.15-4.44-3.4l-56.06-6.84c-2-.24-3.12 1-2.54 2.78a5.93 5.93 0 0 0 4.62 3.63Z"/><path fill="#ECF3FE" d="m444.56 167.78 45.35-.97a3.86 3.86 0 0 0 3.66-3.2c.23-1.72-1.05-3.1-2.84-3.09l-45.59.58a3.7 3.7 0 0 0-3.5 3.39c-.15 1.85 1.14 3.32 2.92 3.29ZM337.63 187.23l131.31-5.44a4.17 4.17 0 0 0 3.76-3.33c.3-1.77-.91-3.16-2.68-3.1l-131.95 4.3c-1.77.06-3.28 1.81-3.4 3.91-.11 2.1 1.2 3.74 2.96 3.66ZM335.94 204.3l148.35-9.12a4.62 4.62 0 0 0 3.93-3.3c.42-1.71-.67-3.03-2.42-2.94l-149 7.85c-1.75.09-3.34 1.85-3.57 3.94-.24 2.08.96 3.68 2.7 3.57ZM333.3 221.21l147-11.95a5.06 5.06 0 0 0 4.08-3.34c.52-1.7-.49-2.98-2.22-2.86l-147.58 10.72c-1.73.12-3.4 1.9-3.74 3.96-.35 2.06.74 3.61 2.46 3.47ZM329.73 237.92l145.8-14.7a5.56 5.56 0 0 0 4.23-3.38c.61-1.68-.3-2.93-2.02-2.77l-146.32 13.5c-1.72.16-3.46 1.95-3.93 3.98-.47 2.04.52 3.55 2.24 3.37ZM325.2 254.4l144.76-17.38a6.13 6.13 0 0 0 4.39-3.38c.7-1.67-.13-2.88-1.84-2.69l-145.2 16.21c-1.7.19-3.54 1.98-4.12 3.98-.58 2 .3 3.46 2 3.26ZM330.15 93.31l62.22 4.1c1.9.12 3.14-1.35 2.76-3.28a4.9 4.9 0 0 0-4.16-3.75l-62.66-4.64c-1.9-.14-3.01 1.44-2.5 3.54.52 2.1 2.45 3.91 4.34 4.03ZM333.41 109.28l61.35 2.94c1.87.1 3.17-1.4 2.89-3.36a4.47 4.47 0 0 0-3.93-3.7l-61.76-3.5c-1.88-.1-3.04 1.52-2.64 3.63.4 2.11 2.23 3.9 4.1 3.99ZM335.86 125.3l60.53 1.81c1.84.06 3.2-1.48 3.02-3.43a4.08 4.08 0 0 0-3.7-3.66l-60.92-2.36c-1.86-.07-3.09 1.58-2.79 3.7.3 2.11 2.02 3.88 3.86 3.93ZM337.48 141.33l59.78.7c1.81.03 3.24-1.54 3.16-3.5-.09-1.95-1.65-3.56-3.48-3.6l-60.13-1.24c-1.83-.03-3.13 1.65-2.94 3.77.2 2.11 1.8 3.85 3.61 3.87Z"/><path fill="#34C6CD" d="m236.43 350.21 203.54-40.09c4.91-.97 9.66-6.03 10.62-11.33l2.7-14.98 4.32-24.02 3.15-17.46 6.42-35.46 10.86-60.24c.96-5.3-2.25-8.8-7.17-7.82L267.34 178.9c-4.92.96-9.68 6.04-10.64 11.33L229.25 342.4c-.96 5.3 2.25 8.8 7.18 7.82Z"/><path fill="#003889" d="m17.65 264.08 29.01-34.38 2.29-2.71c-6.64-6.52-6.35-18.35-7.68-25.43-1.32-7.03 7.38-14.13 10.75-16.59-.84-.6-1.36-1-1.36-1l2.6-2.96 3.2 2.59.97-5.31.22-1.18c-.37-.59-.7-1.2-1-1.86-5.03 2.7-6.73-2.78-6.63-8.04.05-3 .7-5.94 1.62-7.24 2.57-3.62 6.32-1.82 7.53-2.01 1.2-.2 1.86-3.24 7.91-4.8 6.05-1.54 11.05 5.88 8.66 10.83-1.06 2.2-2.4 3.18-4.2 3.51a17.12 17.12 0 0 1 .56 3.28c.32 4.37-1.09 8.04-3.46 9.9l.55 3.52.02.06 2.22-3.02 2.63 1.74-1.23 1.55c1.69.75 5.16 2.38 8.29 4.33l12.55-14.87.67-.8 1.64-1.94c-11.66-14.4-19.82-31.61-22.7-50.1-7.9-50.66 26.76-91.72 77.41-91.72 50.66 0 98.12 41.06 106.02 91.72 7.9 50.64-26.76 91.71-77.42 91.71-18 0-35.58-5.18-51.14-14.14l-4.8 5.7c1.96.9 1.62 2.45.12 5.34-1.73 3.36-4.92 3.09-4.92 3.09s-.96.07-2.22-.13l-17.65 20.9c1.7 3.21-1.85 9.12-7.04 9.42-.33.02-.63.03-.92.02l-1.2 1.42 21.31 31.45 5.72 56.55h-1.02l.32 2.46c.13-.07.24-.15.33-.23.33-.28.86-.26 1.24.07 1.94 1.62 6.4 5.34 7.09 5.54.88.25 6.16.22 6.76 1.56.6 1.34 1.12 3.08-2.67 3.52-3.79.45-18.45 0-18.67 0-.23 0-2.25-1.14-2.32-2.12-.07-.98-.66-8.36 1.3-7.46l.17.06-.76-3.4h-1.8L95.5 279.4l-14.33-16.05 1.45 7.77 2.82 15.02-10.26 45.43h-1.43l-.6 3.11.4-.1c.41-.16.93.02 1.21.44 1.41 2.06 4.7 6.8 5.32 7.2.8.5 6.08 2.11 6.25 3.5.18 1.4.15 3.13-3.78 2.36-3.93-.78-18.43-5.74-18.66-5.8-.22-.08-1.88-1.74-1.64-2.64.25-.91 2-7.75 3.68-6.34l.15.12.19-1.85h-1.75l3.92-45.61-1.2-2.12-4.4-7.75-13.2 15.66c-3.23 3.82-7.94 5.73-12.95 5.73a22.72 22.72 0 0 1-14.74-5.74c-8.82-7.63-10.75-20.02-4.3-27.66ZM234.2 121.15c-5.95-38.22-41.76-69.2-79.98-69.2-38.22 0-64.37 30.98-58.4 69.2 5.95 38.21 41.76 69.2 79.97 69.2 38.22 0 64.37-30.98 58.41-69.2Z" opacity=".14"/><path fill="#15315E" d="M74.93 333.24c.49-.17 1.02.03 1.26.48 1.2 2.27 3.98 7.47 4.6 7.9.78.55 6.3 2.32 6.25 3.85-.05 1.53-.38 3.42-4.55 2.57-4.18-.85-19.23-6.28-19.47-6.36-.23-.08-1.76-1.9-1.34-2.89.42-1 3.52-8.5 5.1-6.94 1.34 1.3 6.26 2.05 8.15 1.39Z"/><path fill="#fff" d="M110.23 338.96a.2.2 0 0 0 .14-.06l1.76-1.64a.2.2 0 0 0 0-.29.2.2 0 0 0-.27-.01l-1.77 1.65a.2.2 0 0 0 0 .28c.03.05.08.07.14.07ZM111.2 340.1c.03 0 .06 0 .1-.02l2.03-1.23a.2.2 0 0 0 .07-.27.2.2 0 0 0-.28-.07l-2.03 1.23a.2.2 0 0 0-.07.27c.04.06.1.1.17.1ZM112.11 341.43l2.42-.09c.11 0 .2-.1.2-.2 0-.12-.1-.21-.21-.2l-2.42.08a.2.2 0 0 0-.19.21c0 .11.1.2.2.2Z"/><path fill="#15315E" d="m76.76 285.96-11.02 45.6H76.4l17.34-45.42-.47-15.03c-.3-9.63-.64-20.47-.64-21.27l-26.9 9.3 10.16 24.7.87 2.12Z"/><path fill="#072542" d="m65.73 259.14 10.16 24.7 12-15.51 5.38 2.78c-.3-9.63-.63-20.47-.63-21.27l-26.9 9.3Z"/><path fill="#FDC8AA" d="M79.71 186.63v8.8H93.4v-16.24l-10.06-3.22-.79 2.32-2.83 8.34Z"/><path fill="#34C6CD" d="m77.52 184.07 10.2 7.44 8.27-7.44s12.05 5.38 13.69 10.03c1.64 4.65 0 31.38 0 31.38H68.45v-30.2l9.07-11.21Z"/><path fill="#15315E" d="M116.95 334.04a1 1 0 0 1 1.32.07c1.81 1.75 6 5.76 6.7 5.97.91.27 6.6.24 7.03 1.69.42 1.44.7 3.31-3.47 3.8-4.15.48-19.89 0-20.13 0-.24 0-2.23-1.24-2.14-2.3.1-1.05.7-9 2.66-8.04 1.64.8 6.46 0 8.03-1.2Z"/><path fill="#fff" d="m96.09 181.24-7.2 8.07-.56 4.3 10.12-10.64-2.36-1.73Z"/><path fill="#EFA37D" d="M82.55 178.29c1.36 2.33 5.62 8.58 10.84 5.91v-5l-10.05-3.23-.8 2.32Z"/><path fill="#1F3A6F" d="m103.58 243.07 17.14 32.86-3.1 56.55H107.6l-2.74-53.09-26.77-36.32h25.5Z"/><path fill="#11989E" d="M77.29 202.72s-2.46 19.15 4.3 17.24v3.35H70.28v-20.59h7Z"/><path fill="#3B82F4" d="m157.29 191.5-12.9 12.91-4.99 4.99-25.62 25.62-9.66 9.66-47.07 47.06a19.5 19.5 0 0 1-13.84 5.74 19.57 19.57 0 0 1-13.84-33.4l42.76-42.76 47.32-47.33.8-.8 9.37-9.36 27.67 27.68Z"/><path fill="#1F3A6F" d="m82.49 175.12-.92-6.68-4.71-1.23c-.93 5.34-.06 10.92 5.63 7.91Z"/><path fill="#FDC8AA" d="M81.64 169.4c-.54 6.54 2.78 12.15 7.4 12.53 4.62.39 8.8-4.6 9.35-11.15.05-.54.06-1.07.06-1.6-.08-5.83-3.21-10.58-7.45-10.93-3.28-.27-6.34 2.16-8.04 5.94a16 16 0 0 0-1.32 5.21Z"/><path fill="#EFA37D" d="m82.96 164.19.92 5.83s.68-2.77 8.08-1.12c3.08.68 5.13.6 6.49.28-.08-5.83-3.21-10.58-7.45-10.93-3.29-.27-6.35 2.17-8.04 5.94Z"/><path fill="#1F3A6F" d="M96.12 153.17c-6.3 1.55-7.43 4.6-8.67 4.79-1.23.2-4.7-1.6-7.84 2.01-1.13 1.3-2.22 4.23-2.75 7.24l4.72 1.24-.12-.9s1.08 4.43 2.27 4.33c1.2-.1-1.5-6.13 5.52-5.13 7.03 1 10.67 2.2 13.84-2.75 3.16-4.96-.68-12.38-6.97-10.83Z"/><path fill="#FDC8AA" d="M83.18 169.5c-.2-.81-.72-1.53-1.47-1.88-.62-.28-1.47-.35-2.35.51-1.77 1.74.8 5.83 2.98 5.01l.9-1.18a6.45 6.45 0 0 0-.06-2.47Z"/><path fill="#246FDD" d="m65.64 231.68-1.22 1.36 9.68 3.25.37-1.33c6.37 2.11 16.97 5.55 20.78 6.24 5 .9 4.98 3.4 8.87 3.48l9.66-9.66c-.1-.31-.24-.6-.44-.86-2.21-2.89-13.41 1.02-13.41 1.02l-22.89-9.43.3-1.06-2.2-3.54-1.36 1.5c-.59-.41-1.18-.87-1.65-1.34l-8.38 8.38c.54.74 1.17 1.4 1.89 2Z"/><path fill="#FDC8AA" d="m77.48 221.88 23.94 11.45s11.4-3.29 13.46-.28c2.05 3.01-2.65 9.67-8.21 10-5.57.31-4.71-2.65-10.24-3.98-5.54-1.32-25.33-9.34-25.33-9.34l6.38-7.85Z"/><path fill="#34C6CD" d="M77.52 184.07s-15.05 8.8-14.77 17.49c.27 8.69-3.01 24.56 8.9 28.94l7.12-9.23s-4.8-2.81-5.21-4.8c-.41-1.98 3.9-14.22 3.9-14.22l.06-18.18Z"/><path fill="#fff" d="M79.45 221.6 75.57 233l-9.48-3.78 11.35-11.26 2 3.65Z"/><path fill="#246FDD" d="m157.29 191.5-12.9 12.91-4.99 4.99a126.49 126.49 0 0 1-19.94-35.41l.8-.8 9.36-9.36 27.67 27.68Z"/><path fill="#3B82F4" d="M290.74 121.15a91.72 91.72 0 1 1-183.44 0 91.72 91.72 0 0 1 183.44 0Zm-22.52 0a69.2 69.2 0 1 0-138.4 0 69.2 69.2 0 0 0 138.4 0Z"/><path fill="#FDC8AA" d="M143.34 204.03s-11.42-4.25-12.1 2.6c-.7 6.84 7.04 6.22 7.04 6.22s3.15.28 5.4-3.08c2.26-3.35 2.7-4.9-.34-5.74Z"/><path fill="#fff" d="m77.93 181.01-3.05 2.97s11.9 9.8 11.9 9.62v-4.42L77.93 181Z"/><path fill="#003889" d="M316.02 298.7c25.65 8.01 47.2 25.02 59.28 49.2.52 1.07 1.37 1.32 1.93.54l29.71-41.4c.56-.78.77-2.2.46-3.18a88.56 88.56 0 0 0-2.15-5.66c-7.32-17.52-20-31.95-37.41-40.29-.84-.39-2.28-.1-3.2.62l-23.17 18-26.02 20.22c-.92.71-.66 1.57.57 1.94Z" opacity=".2"/><path fill="#fff" d="M331.72 284.18c23.04 13.82 40 35.42 46.05 61.77.26 1.16 1.02 1.6 1.75.98l38.62-33.26a4 4 0 0 0 1.19-2.98 89.68 89.68 0 0 0-.76-6.01c-3-18.74-11.94-35.75-26.9-47.96-.72-.57-2.18-.63-3.25-.15l-26.74 12.05-30.05 13.54c-1.07.48-1.02 1.37.1 2.02Z"/><path fill="#003889" d="M311.42 297.89c-12.3 13.27-28.89 21.45-47.1 21.79-.8 0-1.2.44-.88 1.01L280 350.76a2.7 2.7 0 0 0 1.8 1.2c1.36.15 2.72.27 4.07.33 12.78.62 25.23-2.9 35.35-11.08.47-.4.71-1.35.55-2.12a121545.85 121545.85 0 0 0-8.99-40.98c-.18-.78-.77-.87-1.36-.22Z" opacity=".2"/><path fill="#fff" d="M319.6 302.98c-14.02 11.44-31.58 17.24-49.66 15.05-.8-.1-1.25.28-1.02.88l12.24 32.07c.23.6.95 1.26 1.62 1.44 1.32.34 2.65.64 3.98.9 12.56 2.38 25.38.61 36.53-6.07.53-.33.9-1.25.84-2.03l-1.52-19.7-1.7-22.14c-.05-.78-.63-.95-1.3-.4Z"/></g><defs><filter id="b" width="292.94" height="328.58" x="144.98" y="29.37" color-interpolation-filters="sRGB" filterUnits="userSpaceOnUse"><feFlood flood-opacity="0" result="BackgroundImageFix"/><feColorMatrix in="SourceAlpha" result="hardAlpha" values="0 0 0 0 0 0 0 0 0 0 0 0 0 0 0 0 0 0 127 0"/><feOffset dy="7.67"/><feGaussianBlur stdDeviation="23.01"/><feColorMatrix values="0 0 0 0 0 0 0 0 0 0 0 0 0 0 0 0 0 0 0.1 0"/><feBlend in2="BackgroundImageFix" result="effect1_dropShadow_1349_14558"/><feBlend in="SourceGraphic" in2="effect1_dropShadow_1349_14558" result="shape"/></filter><filter id="c" width="295.35" height="351.07" x="258.08" y="-19.51" color-interpolation-filters="sRGB" filterUnits="userSpaceOnUse"><feFlood flood-opacity="0" result="BackgroundImageFix"/><feColorMatrix in="SourceAlpha" result="hardAlpha" values="0 0 0 0 0 0 0 0 0 0 0 0 0 0 0 0 0 0 127 0"/><feOffset dy="7.1"/><feGaussianBlur stdDeviation="21.3"/><feColorMatrix values="0 0 0 0 0 0 0 0 0 0 0 0 0 0 0 0 0 0 0.1 0"/><feBlend in2="BackgroundImageFix" result="effect1_dropShadow_1349_14558"/><feBlend in="SourceGraphic" in2="effect1_dropShadow_1349_14558" result="shape"/></filter><clipPath id="a"><path fill="#fff" d="M0 0h539v360H0z"/></clipPath></defs></svg>