<svg xmlns="http://www.w3.org/2000/svg" width="46" height="46" fill="none"><path fill="#1DBBBA" d="M32.202 40.633V5.367c0-1.304-.997-2.3-2.3-2.3h-23c-1.304 0-2.3.996-2.3 2.3v35.266c0 1.304.996 2.3 2.3 2.3h23c1.303 0 2.3-.996 2.3-2.3Zm-1.534-5.366H6.135v-27.6h24.533v27.6ZM6.902 4.6h23c.46 0 .766.307.766.767v.766H6.135v-.766c0-.46.306-.767.767-.767Zm-.767 36.033V36.8h24.533v3.833c0 .46-.306.767-.766.767h-23c-.46 0-.767-.307-.767-.767Z"/><path fill="#1DBBBA" d="M16.867 38.333h3.067v1.534h-3.067v-1.534ZM38.334 12.267c0-1.304-.996-2.3-2.3-2.3-1.303 0-2.3.996-2.3 2.3V37.03l2.3 3.45 2.3-3.45V12.267Zm-2.3-.767c.46 0 .767.307.767.767V13.8h-1.533v-1.533c0-.46.306-.767.766-.767Zm0 26.22-.766-1.15V15.334H36.8V36.57l-.767 1.15ZM15.332 20.7h13.8v1.533h-13.8V20.7ZM15.332 23.767h8.433V25.3h-8.433v-1.533ZM15.332 28.367h13.8V29.9h-13.8v-1.533ZM15.332 31.433h8.433v1.534h-8.433v-1.534ZM26.068 16.867c0-4.217-3.45-7.667-7.667-7.667s-7.667 3.45-7.667 7.667V18.4h15.334v-1.533Zm-13.8 0c0-3.374 2.76-6.134 6.133-6.134s6.133 2.76 6.133 6.134H12.268Z"/><path fill="#1DBBBA" d="M39.102 0H9.97v1.533h29.133c.46 0 .767.307.767.767v41.4c0 .46-.307.767-.767.767H9.97V46h29.133c1.304 0 2.3-.996 2.3-2.3V2.3c0-1.303-.996-2.3-2.3-2.3Z"/><path fill="#1DBBBA" d="m11.102 21.028-.31.431c-.379.524-.769 1.061-1.096 1.627a.29.29 0 0 1-.016-.017l-.2-.223c-.381-.418-1.115-.28-1.353.224a.776.776 0 0 0 .133.866l.213.238c.274.306.56.624.882.91a.87.87 0 0 0 .572.216c.36 0 .68-.226.798-.562.278-.799.851-1.578 1.404-2.333.128-.175.256-.348.378-.518.17-.24.19-.53.055-.776-.27-.494-1.114-.569-1.46-.083ZM12.321 29.092a.472.472 0 0 0-.67 0l-.933.942a.5.5 0 0 1-.71 0l-.938-.947a.511.511 0 0 0-.057-.049.486.486 0 0 1-.056-.047.337.337 0 0 0-.479 0l-.097.098a.473.473 0 0 0 0 .666l.958.966a.5.5 0 0 1 0 .704l-.952.96a.4.4 0 0 0 0 .564l.045.046.002.002.098.099a.336.336 0 0 0 .477 0l.988-.996a.5.5 0 0 1 .71 0l.903.911a.473.473 0 0 0 .672 0l.12-.12a.302.302 0 0 0 0-.426.435.435 0 0 1-.043-.053.538.538 0 0 0-.05-.059l-.933-.94a.5.5 0 0 1 0-.704l.946-.953a.472.472 0 0 0 0-.664Z"/></svg>