<svg xmlns="http://www.w3.org/2000/svg" width="46" height="46" fill="none"><path fill="#1DBBBA" d="M12.219 15.813v-1.438a2.156 2.156 0 0 0 0-4.313H10.78a.719.719 0 0 1 0-1.437h1.438a.719.719 0 0 1 .719.719h1.437a2.156 2.156 0 0 0-2.156-2.156V5.75H10.78v1.438a2.156 2.156 0 0 0 0 4.312h1.438a.719.719 0 1 1 0 1.438H10.78a.719.719 0 0 1-.719-.72H8.626a2.156 2.156 0 0 0 2.156 2.157v1.438h1.438ZM15.813 11.5h6.468v1.438h-6.468V11.5ZM15.813 8.625h1.437v1.438h-1.438V8.624ZM18.688 8.625h3.593v1.438h-3.593V8.624Z"/><path fill="#1DBBBA" d="M42.406 13.656H32.344v-3.594h3.593a.719.719 0 0 0 .72-.718V4.313a2.875 2.875 0 0 0-2.876-2.875H7.188a2.875 2.875 0 0 0-2.875 2.875v20.125H2.155a.719.719 0 0 0-.719.718v2.875a.719.719 0 0 0 .72.719v1.438a.719.719 0 0 0-.72.718v2.875a.719.719 0 0 0 .72.719h2.155v4.313H2.156a.719.719 0 0 0-.719.718v2.157a2.875 2.875 0 0 0 2.875 2.874H29.47a2.875 2.875 0 0 0 2.875-2.874v-.72h10.062a2.156 2.156 0 0 0 2.157-2.156v-23a2.156 2.156 0 0 0-2.157-2.156ZM35.22 4.312v4.313h-2.875V4.312a1.437 1.437 0 1 1 2.875 0ZM2.875 25.875h5.75v1.438h-5.75v-1.438Zm.719 2.875h5.75v1.438h-5.75V28.75Zm-.719 2.875h5.75v1.438h-5.75v-1.438ZM5.75 34.5h3.594a.719.719 0 0 0 .719-.719v-2.156a.719.719 0 0 0 .718-.719v-2.875a.719.719 0 0 0-.719-.718v-2.157a.719.719 0 0 0-.718-.718H5.75V4.313a1.438 1.438 0 0 1 1.438-1.438h24.118a2.846 2.846 0 0 0-.4 1.438v9.343h-5.75A2.156 2.156 0 0 0 23 15.812v23H5.75V34.5Zm-2.875 7.188V40.25h23.719v1.438c.003.506.14 1.002.4 1.437H4.312a1.437 1.437 0 0 1-1.438-1.438Zm28.031 0a1.438 1.438 0 1 1-2.875 0v-.72h2.875v.72Zm12.219-2.876a.719.719 0 0 1-.719.72H28.031a.719.719 0 0 0-.718-.72h-2.875v-23a.719.719 0 0 1 .718-.718h17.25a.719.719 0 0 1 .719.719v23Z"/><path fill="#1DBBBA" d="M40.969 16.531H26.594a.719.719 0 0 0-.719.719v4.313a.719.719 0 0 0 .719.718h14.375a.719.719 0 0 0 .718-.718V17.25a.719.719 0 0 0-.718-.719Zm-.719 4.313H27.312v-2.875H40.25v2.875ZM40.969 23.719H26.594a.719.719 0 0 0-.719.718v12.938a.719.719 0 0 0 .719.719h14.375a.719.719 0 0 0 .718-.719V24.437a.719.719 0 0 0-.718-.718Zm-.719 5.75H34.5v-4.313h5.75v4.313Zm-7.188-4.313v4.313h-5.75v-4.313h5.75Zm-5.75 5.75h5.75v5.75h-5.75v-5.75Zm7.188 5.75v-5.75h5.75v5.75H34.5Z"/><path fill="#1DBBBA" d="M29.469 28.75h1.437v-.719h.719v-1.437h-.719v-.719H29.47v.719h-.719v1.437h.719v.719ZM32.133 32.852l-1.016-1.016-.93.929-.928-.93-1.017 1.017.93.93-.93.929 1.017 1.016.929-.93.93.93 1.015-1.016-.929-.93.93-.929ZM35.938 26.594h2.874v1.437h-2.874v-1.437ZM35.938 31.625h2.874v1.438h-2.874v-1.438ZM35.938 34.5h2.874v1.438h-2.874V34.5ZM20.125 21.563h-7.188a.719.719 0 0 0-.718.718v2.157a.719.719 0 0 0-.719.718v2.875a.719.719 0 0 0 .719.719v1.438a.719.719 0 0 0-.719.718v2.875a.719.719 0 0 0 .719.719h7.187a.719.719 0 0 0 .719-.719v-2.156a.719.719 0 0 0 .719-.719v-2.875a.719.719 0 0 0-.719-.718v-1.438a.719.719 0 0 0 .719-.719v-2.875a.719.719 0 0 0-.719-.718ZM13.656 23h5.75v1.438h-5.75V23Zm0 5.75h5.75v1.438h-5.75V28.75Zm5.031 4.313h-5.75v-1.438h5.75v1.438Zm0-5.75h-5.75v-1.438h5.75v1.438Z"/></svg>