<svg xmlns="http://www.w3.org/2000/svg" width="46" height="46" fill="none"><g fill="#1DBBBA" clip-path="url(#a)"><path d="M39.26 6.74c-8.986-8.986-23.532-8.987-32.52 0-8.986 8.987-8.987 23.532 0 32.52 8.986 8.986 23.532 8.988 32.52 0 8.986-8.986 8.987-23.532 0-32.52ZM23 44.558c-11.887 0-21.558-9.67-21.558-21.558C1.442 11.113 11.113 1.443 23 1.443S44.558 11.113 44.558 23c0 11.887-9.671 21.558-21.558 21.558Z"/><path d="M25.477 24.46a2.865 2.865 0 0 0-.32-3.358v-8.88a2.158 2.158 0 0 0-2.155-2.156 2.158 2.158 0 0 0-2.156 2.155v8.623h-5.749A2.158 2.158 0 0 0 12.941 23c0 1.189.967 2.156 2.156 2.156h6.007c.94.829 2.294.948 3.357.32l6.656 6.656c.14.14.324.21.508.21.634 0 .962-.772.508-1.227l-6.656-6.656Zm-2.475-12.957a.72.72 0 0 1 .718.718v7.996a2.885 2.885 0 0 0-1.437 0V12.22a.72.72 0 0 1 .719-.718ZM14.379 23a.72.72 0 0 1 .718-.718h5.121c-.121.47-.121.967 0 1.437h-5.12a.72.72 0 0 1-.72-.719Zm7.185 0c0-.792.645-1.437 1.438-1.437.792 0 1.437.645 1.437 1.437 0 .793-.645 1.437-1.437 1.437A1.439 1.439 0 0 1 21.564 23Z"/><path d="M23 4.317C12.698 4.317 4.316 12.698 4.316 23S12.698 41.683 23 41.683c10.302 0 18.683-8.381 18.683-18.683S33.302 4.317 23 4.317Zm15.09 19.401h2.14a17.18 17.18 0 0 1-4.544 10.952l-1.508-1.508a.719.719 0 1 0-1.016 1.017l1.508 1.507a17.18 17.18 0 0 1-10.952 4.544v-2.14a.719.719 0 0 0-1.437 0v2.14a17.18 17.18 0 0 1-10.951-4.544l1.508-1.508a.718.718 0 1 0-1.017-1.016l-1.507 1.508A17.18 17.18 0 0 1 5.77 23.718h2.14a.719.719 0 1 0 0-1.437H5.77a17.18 17.18 0 0 1 4.544-10.95l1.507 1.507a.716.716 0 0 0 1.017 0 .718.718 0 0 0 0-1.017l-1.508-1.507A17.18 17.18 0 0 1 22.281 5.77v2.14a.719.719 0 0 0 1.438 0V5.77a17.18 17.18 0 0 1 10.95 4.544l-1.507 1.507a.719.719 0 0 0 1.016 1.017l1.508-1.508a17.18 17.18 0 0 1 4.544 10.951h-2.14a.719.719 0 1 0 0 1.438Z"/></g><defs><clipPath id="a"><path fill="#fff" d="M0 0h46v46H0z"/></clipPath></defs></svg>