<svg xmlns="http://www.w3.org/2000/svg" width="46" height="46" fill="none"><g fill="#1DBBBA" clip-path="url(#a)"><path d="M45.253 46H.786a.767.767 0 0 1-.766-.767V16.1c0-.423.343-.767.766-.767h44.467c.423 0 .767.344.767.767v29.133a.766.766 0 0 1-.767.767Zm-43.7-1.533h42.933v-27.6H1.553v27.6Z"/><path d="M39.89 16.867H6.158a.767.767 0 0 1-.766-.767v-3.067c0-.423.343-.766.766-.766h33.734c.423 0 .766.343.766.767V16.1a.766.766 0 0 1-.766.767ZM6.925 15.333h32.2V13.8h-32.2v1.534Z"/><path d="M36.824 13.8h-27.6a.767.767 0 0 1-.767-.767V9.968c0-.423.343-.767.767-.767h27.6c.423 0 .766.344.766.767v3.066a.766.766 0 0 1-.766.767ZM9.99 12.267h26.067v-1.534H9.99v1.534Z"/><path d="M35.292 10.733H10.76a.767.767 0 0 1-.767-.766V6.9c0-.423.344-.767.767-.767h24.533c.423 0 .767.344.767.767v3.067a.766.766 0 0 1-.767.766ZM11.525 9.2h23V7.667h-23V9.2ZM28.39 27.6H17.657a3.07 3.07 0 0 1-3.067-3.067 3.07 3.07 0 0 1 3.067-3.066H28.39a3.07 3.07 0 0 1 3.066 3.066A3.07 3.07 0 0 1 28.39 27.6ZM17.657 23c-.846 0-1.534.688-1.534 1.533 0 .846.688 1.534 1.534 1.534H28.39a1.535 1.535 0 0 0 0-3.067H17.657Z"/><path d="M45.257 16.867H.79a.768.768 0 0 1-.712-1.052L6.211.482a.767.767 0 0 1 .713-.481h32.2c.313 0 .594.19.711.481l6.133 15.334a.765.765 0 0 1-.711 1.05ZM1.923 15.333h42.202l-5.52-13.8H7.443l-5.52 13.8Z"/></g><defs><clipPath id="a"><path fill="#fff" d="M0 0h46v46H0z"/></clipPath></defs></svg>