<svg width="40" height="40" viewBox="0 0 40 40" fill="none" xmlns="http://www.w3.org/2000/svg">
<g clip-path="url(#clip0_1139_13397)">
<mask id="mask0_1139_13397" style="mask-type:luminance" maskUnits="userSpaceOnUse" x="0" y="0" width="40" height="40">
<path d="M0 0H40V40H0V0Z" fill="white"/>
</mask>
<g mask="url(#mask0_1139_13397)">
<path d="M37.154 14.8255C37.083 14.7545 37.01 14.6855 36.937 14.6155V12.3645C36.9357 11.2882 36.5075 10.2562 35.7464 9.49513C34.9853 8.73402 33.9534 8.30585 32.877 8.30452H25.754V6.26252C25.7529 5.21515 25.3365 4.21096 24.596 3.47027C23.8555 2.72957 22.8514 2.31285 21.804 2.31152H15.134C14.0868 2.31285 13.0829 2.72943 12.3424 3.46991C11.6019 4.2104 11.1853 5.21432 11.184 6.26152V8.30252H4.06C2.98345 8.30385 1.95139 8.73216 1.19026 9.49349C0.429115 10.2548 0.00105852 11.287 0 12.3635L0 30.4395C0.00132314 31.5159 0.429497 32.5478 1.19061 33.3089C1.95172 34.07 2.98363 34.4982 4.06 34.4995H12.538C12.6169 34.5028 12.6957 34.4901 12.7696 34.4621C12.8435 34.4342 12.9109 34.3915 12.9679 34.3369C13.0249 34.2822 13.0703 34.2165 13.1013 34.1439C13.1322 34.0712 13.1482 33.993 13.1482 33.914C13.1482 33.835 13.1322 33.7569 13.1013 33.6842C13.0703 33.6115 13.0249 33.5459 12.9679 33.4912C12.9109 33.4365 12.8435 33.3939 12.7696 33.3659C12.6957 33.338 12.6169 33.3253 12.538 33.3285H4.061C3.29486 33.328 2.56024 33.0235 2.0184 32.4818C1.47656 31.9402 1.17179 31.2057 1.171 30.4395V18.6195C1.75217 19.4841 2.52192 20.2055 3.4223 20.7295C4.32267 21.2535 5.3302 21.5663 6.369 21.6445V23.7785C6.369 24.9965 7.359 25.9885 8.579 25.9885C9.797 25.9885 10.788 24.9965 10.788 23.7785V21.6645H20.579V21.6925C20.5739 23.6589 21.1702 25.5798 22.288 27.1975L21.044 28.4415C20.8236 28.3787 20.5904 28.3759 20.3685 28.4334C20.1467 28.4909 19.9442 28.6066 19.782 28.7685L15.004 33.5465C14.5498 34.0017 14.2947 34.6185 14.2947 35.2615C14.2947 35.9046 14.5498 36.5213 15.004 36.9765C15.2291 37.2019 15.4965 37.3807 15.7907 37.5027C16.085 37.6247 16.4004 37.6875 16.719 37.6875C17.0376 37.6875 17.353 37.6247 17.6473 37.5027C17.9415 37.3807 18.2089 37.2019 18.434 36.9765L23.212 32.1985C23.554 31.8575 23.662 31.3705 23.539 30.9365L24.784 29.6915C26.4 30.7996 28.3128 31.3941 30.2722 31.3973C32.2316 31.4006 34.1464 30.8123 35.766 29.7095V30.4395C35.7652 31.2057 35.4604 31.9402 34.9186 32.4818C34.3768 33.0235 33.6421 33.328 32.876 33.3285H23.622C23.545 33.3285 23.4688 33.3437 23.3977 33.3731C23.3267 33.4026 23.2621 33.4457 23.2076 33.5002C23.1532 33.5546 23.1101 33.6192 23.0806 33.6903C23.0512 33.7614 23.036 33.8376 23.036 33.9145C23.036 33.9915 23.0512 34.0677 23.0806 34.1388C23.1101 34.2099 23.1532 34.2745 23.2076 34.3289C23.2621 34.3833 23.3267 34.4265 23.3977 34.4559C23.4688 34.4854 23.545 34.5005 23.622 34.5005H32.877C33.9534 34.4992 34.9853 34.071 35.7464 33.3099C36.5075 32.5488 36.9357 31.5169 36.937 30.4405V28.7675C37.01 28.6985 37.083 28.6295 37.154 28.5575C38.0562 27.6563 38.772 26.5861 39.2603 25.408C39.7486 24.23 40 22.9673 40 21.692C40 20.4168 39.7486 19.1541 39.2603 17.976C38.772 16.798 38.0562 15.7268 37.154 14.8255ZM12.355 6.26352C12.3555 5.52638 12.6486 4.81959 13.1698 4.29835C13.6911 3.77712 14.3979 3.48405 15.135 3.48352H21.803C22.5401 3.48405 23.2469 3.77712 23.7682 4.29835C24.2894 4.81959 24.5825 5.52638 24.583 6.26352V8.30352H23.333V6.26352C23.333 5.85774 23.1718 5.46858 22.8849 5.18165C22.5979 4.89472 22.2088 4.73352 21.803 4.73352H15.134C14.7282 4.73352 14.3391 4.89472 14.0521 5.18165C13.7652 5.46858 13.604 5.85774 13.604 6.26352V8.30352H12.355V6.26352ZM14.777 8.30352V6.26352C14.777 6.06652 14.937 5.90552 15.134 5.90552H21.804C22 5.90552 22.161 6.06552 22.161 6.26352V8.30352H14.777ZM9.617 21.9765H7.54V20.0035C7.55174 19.7361 7.66623 19.4835 7.85961 19.2985C8.05299 19.1134 8.31033 19.0101 8.578 19.0101C8.84567 19.0101 9.10301 19.1134 9.29639 19.2985C9.48977 19.4835 9.60426 19.7361 9.616 20.0035L9.617 21.9765ZM8.578 24.8155C8.30279 24.8153 8.03892 24.7058 7.84432 24.5112C7.64971 24.3166 7.54026 24.0527 7.54 23.7775V23.1475H9.616V23.7775C9.616 24.3495 9.151 24.8155 8.578 24.8155ZM10.788 20.4915V20.0035C10.788 18.7855 9.797 17.7935 8.578 17.7935C7.36 17.7935 6.368 18.7855 6.368 20.0035V20.4675C4.94895 20.3377 3.62955 19.6825 2.66838 18.6305C1.7072 17.5785 1.17355 16.2055 1.172 14.7805V12.3645C1.17279 11.5987 1.47729 10.8645 2.01869 10.3229C2.5601 9.78133 3.29421 9.47658 4.06 9.47552H32.876C33.642 9.47632 34.3763 9.78095 34.918 10.3226C35.4596 10.8642 35.7642 11.5986 35.765 12.3645V13.6715C32.059 11.1295 26.84 11.4065 23.422 14.8255C21.8889 16.3499 20.9129 18.3455 20.651 20.4915H10.787H10.788ZM17.606 36.1475C17.4895 36.264 17.3512 36.3564 17.199 36.4194C17.0468 36.4825 16.8837 36.5149 16.719 36.5149C16.5543 36.5149 16.3912 36.4825 16.239 36.4194C16.0868 36.3564 15.9485 36.264 15.832 36.1475C15.7155 36.031 15.6231 35.8928 15.5601 35.7406C15.497 35.5884 15.4646 35.4253 15.4646 35.2605C15.4646 35.0958 15.497 34.9327 15.5601 34.7805C15.6231 34.6283 15.7155 34.49 15.832 34.3735L19.142 31.0635L20.916 32.8375L17.606 36.1475ZM22.384 31.3695L21.744 32.0085L19.971 30.2355L20.611 29.5955C20.6325 29.5742 20.6617 29.5622 20.692 29.5622C20.7223 29.5622 20.7515 29.5742 20.773 29.5955L22.383 31.2055C22.4047 31.2273 22.417 31.2568 22.417 31.2875C22.417 31.3183 22.4047 31.3478 22.383 31.3695H22.384ZM22.826 29.9915L21.988 29.1535L23.017 28.1245C23.2792 28.4205 23.559 28.7003 23.855 28.9625L22.826 29.9915ZM24.251 27.7285C23.4558 26.9375 22.8255 25.9967 22.3963 24.9604C21.9672 23.9242 21.7479 22.8131 21.751 21.6915C21.751 19.4115 22.639 17.2665 24.251 15.6545C25.0435 14.8612 25.9846 14.2318 27.0204 13.8024C28.0563 13.373 29.1667 13.152 30.288 13.152C31.4093 13.152 32.5197 13.373 33.5556 13.8024C34.5914 14.2318 35.5325 14.8612 36.325 15.6545C37.1183 16.447 37.7477 17.3881 38.1771 18.424C38.6065 19.4598 38.8275 20.5702 38.8275 21.6915C38.8275 22.8129 38.6065 23.9232 38.1771 24.9591C37.7477 25.995 37.1183 26.936 36.325 27.7285C35.5325 28.5219 34.5914 29.1512 33.5556 29.5806C32.5197 30.01 31.4093 30.231 30.288 30.231C29.1667 30.231 28.0563 30.01 27.0204 29.5806C25.9846 29.1512 25.0435 28.5219 24.251 27.7285Z" fill="#1DBBBA"/>
<path d="M36.717 22.4952C36.5652 22.4622 36.4064 22.4909 36.2757 22.5749C36.145 22.6589 36.053 22.7914 36.02 22.9432C35.7811 24.0403 35.2312 25.0454 34.436 25.8382C33.8916 26.3833 33.245 26.8157 32.5334 27.1107C31.8217 27.4057 31.0589 27.5576 30.2885 27.5576C29.5181 27.5576 28.7553 27.4057 28.0436 27.1107C27.332 26.8157 26.6854 26.3833 26.141 25.8382C25.0426 24.7373 24.4258 23.2458 24.4258 21.6907C24.4258 20.1356 25.0426 18.644 26.141 17.5432C26.6854 16.9981 27.332 16.5657 28.0436 16.2707C28.7553 15.9757 29.5181 15.8238 30.2885 15.8238C31.0589 15.8238 31.8217 15.9757 32.5334 16.2707C33.245 16.5657 33.8916 16.9981 34.436 17.5432C35.2302 18.3353 35.7798 19.3393 36.019 20.4352C36.035 20.5108 36.0658 20.5825 36.1096 20.6461C36.1534 20.7098 36.2094 20.7642 36.2743 20.8061C36.3392 20.8481 36.4117 20.8767 36.4878 20.8905C36.5638 20.9043 36.6418 20.9029 36.7173 20.8864C36.7928 20.87 36.8643 20.8387 36.9277 20.7945C36.9911 20.7503 37.0451 20.6939 37.0866 20.6288C37.1281 20.5636 37.1563 20.4908 37.1696 20.4147C37.1829 20.3386 37.181 20.2606 37.164 20.1852C36.877 18.8703 36.2178 17.6657 35.265 16.7152C34.6118 16.0612 33.8361 15.5424 32.9823 15.1885C32.1285 14.8345 31.2133 14.6523 30.289 14.6523C29.3647 14.6523 28.4495 14.8345 27.5957 15.1885C26.7419 15.5424 25.9662 16.0612 25.313 16.7152C23.9952 18.0359 23.2551 19.8255 23.2551 21.6912C23.2551 23.5569 23.9952 25.3464 25.313 26.6672C26.6337 27.985 28.4233 28.7251 30.289 28.7251C32.1547 28.7251 33.9443 27.985 35.265 26.6672C36.219 25.7155 36.8787 24.509 37.165 23.1922C37.198 23.0403 37.1693 22.8816 37.0853 22.7509C37.0013 22.6202 36.8688 22.5282 36.717 22.4952Z" fill="#1DBBBA"/>
</g>
</g>
<defs>
<clipPath id="clip0_1139_13397">
<rect width="40" height="40" fill="white"/>
</clipPath>
</defs>
</svg>
