<svg width="40" height="40" viewBox="0 0 40 40" fill="none" xmlns="http://www.w3.org/2000/svg">
<g clip-path="url(#clip0_1139_13369)">
<path d="M36.235 32C37.2331 31.9987 38.19 31.6016 38.8958 30.8958C39.6016 30.19 39.9987 29.2331 40 28.235V3.765C39.9987 2.76687 39.6016 1.80999 38.8958 1.1042C38.19 0.398416 37.2331 0.00132291 36.235 0L3.765 0C2.76687 0.00132291 1.80999 0.398416 1.1042 1.1042C0.398416 1.80999 0.00132291 2.76687 0 3.765L0 28.232C0.000528912 29.2307 0.397272 30.1883 1.10315 30.8947C1.80902 31.6012 2.76635 31.9987 3.765 32H4V33.333H2.375C2.0708 33.3328 1.77056 33.402 1.49714 33.5354C1.22371 33.6687 0.984311 33.8627 0.797148 34.1025C0.609984 34.3423 0.479992 34.6216 0.417063 34.9193C0.354133 35.2169 0.359926 35.525 0.434 35.82L1.101 38.486C1.2093 38.9183 1.45891 39.3021 1.81019 39.5764C2.16148 39.8507 2.59431 39.9998 3.04 40H36.96C37.406 39.9999 37.8392 39.8508 38.1907 39.5763C38.5422 39.3018 38.7918 38.9177 38.9 38.485L39.567 35.819C39.6409 35.5241 39.6465 35.2162 39.5836 34.9188C39.5206 34.6214 39.3907 34.3422 39.2037 34.1026C39.0166 33.8629 38.7774 33.669 38.5042 33.5357C38.231 33.4023 37.931 33.333 37.627 33.333H36V32H36.235ZM1.333 28.235V3.765C1.33379 3.12024 1.59028 2.50211 2.04619 2.04619C2.50211 1.59028 3.12024 1.33379 3.765 1.333H36.232C36.8773 1.333 37.4962 1.58913 37.9527 2.04513C38.4093 2.50114 38.6662 3.11972 38.667 3.765V28.232C38.667 28.8773 38.4109 29.4962 37.9549 29.9527C37.4989 30.4093 36.8803 30.6662 36.235 30.667H3.765C3.12024 30.6662 2.50211 30.4097 2.04619 29.9538C1.59028 29.4979 1.33379 28.8798 1.333 28.235ZM38.151 34.923C38.2132 35.003 38.2565 35.0959 38.2776 35.195C38.2987 35.2941 38.2972 35.3966 38.273 35.495L37.606 38.161C37.5701 38.3054 37.4869 38.4337 37.3696 38.5254C37.2524 38.6171 37.1078 38.6669 36.959 38.667H3.04C2.89116 38.6669 2.74662 38.6171 2.62937 38.5254C2.51213 38.4337 2.42893 38.3054 2.393 38.161L1.726 35.495C1.70174 35.3967 1.70016 35.2941 1.72138 35.195C1.74261 35.096 1.78607 35.0031 1.8485 34.9233C1.91093 34.8435 1.99068 34.779 2.08172 34.7346C2.17276 34.6902 2.27271 34.6671 2.374 34.667H14V36.667C14 37.035 14.299 37.333 14.667 37.333H25.333C25.5097 37.333 25.6792 37.2629 25.8043 37.138C25.9293 37.0131 25.9997 36.8437 26 36.667V34.667H37.625C37.831 34.666 38.025 34.761 38.151 34.923ZM15.333 34.667H24.667V36H15.333V34.667ZM34.667 33.333H5.333V32H34.667V33.333Z" fill="#1DBBBA"/>
<path d="M38 28.276V3.724C37.9995 3.26693 37.8177 2.82873 37.4945 2.50553C37.1713 2.18233 36.7331 2.00053 36.276 2H3.724C3.26693 2.00053 2.82873 2.18233 2.50553 2.50553C2.18233 2.82873 2.00053 3.26693 2 3.724V28.276C2.00053 28.7331 2.18233 29.1713 2.50553 29.4945C2.82873 29.8177 3.26693 29.9995 3.724 30H36.276C36.7331 29.9995 37.1713 29.8177 37.4945 29.4945C37.8177 29.1713 37.9995 28.7331 38 28.276ZM3.724 3.333H36.276C36.3273 3.333 36.3781 3.34312 36.4255 3.36278C36.4729 3.38244 36.5159 3.41126 36.5521 3.44758C36.5884 3.4839 36.6171 3.52701 36.6366 3.57445C36.6561 3.62188 36.6661 3.6727 36.666 3.724V6H3.334V3.724C3.334 3.6727 3.34412 3.6219 3.36378 3.57452C3.38344 3.52714 3.41226 3.4841 3.44858 3.44787C3.4849 3.41165 3.52801 3.38294 3.57545 3.3634C3.62288 3.34386 3.6737 3.33387 3.725 3.334L3.724 3.333ZM3.334 28.276V7.333H36.667V28.276C36.667 28.3273 36.6569 28.3781 36.6372 28.4255C36.6176 28.4729 36.5887 28.5159 36.5524 28.5521C36.5161 28.5884 36.473 28.6171 36.4256 28.6366C36.3781 28.6561 36.3273 28.6661 36.276 28.666H3.724C3.62065 28.6657 3.5216 28.6246 3.44852 28.5515C3.37544 28.4784 3.33426 28.3794 3.334 28.276Z" fill="#1DBBBA"/>
<path d="M4.66699 4H5.99999V5.333H4.66699V4ZM6.66699 4H7.99999V5.333H6.66699V4ZM8.66699 4H9.99999V5.333H8.66699V4ZM34 4H35.333V5.333H34V4ZM14.343 10.343C13.2242 11.4618 12.4623 12.8873 12.1537 14.4391C11.845 15.991 12.0035 17.5995 12.609 19.0613C13.2145 20.5231 14.2399 21.7725 15.5555 22.6515C16.8711 23.5305 18.4178 23.9997 20 23.9997C21.5822 23.9997 23.1289 23.5305 24.4445 22.6515C25.7601 21.7725 26.7855 20.5231 27.391 19.0613C27.9965 17.5995 28.155 15.991 27.8463 14.4391C27.5377 12.8873 26.7758 11.4618 25.657 10.343C24.1555 8.84482 22.1211 8.00343 20 8.00343C17.8789 8.00343 15.8445 8.84482 14.343 10.343ZM24.713 20.713C23.7807 21.6456 22.5927 22.2808 21.2994 22.5382C20.0061 22.7957 18.6655 22.6638 17.4471 22.1592C16.2287 21.6547 15.1874 20.8001 14.4547 19.7037C13.722 18.6073 13.3309 17.3182 13.3309 15.9995C13.3309 14.6808 13.722 13.3917 14.4547 12.2953C15.1874 11.1989 16.2287 10.3443 17.4471 9.83978C18.6655 9.33524 20.0061 9.20334 21.2994 9.46077C22.5927 9.71819 23.7807 10.3534 24.713 11.286C25.9614 12.5372 26.6625 14.2325 26.6625 16C26.6625 17.7675 25.9614 19.4628 24.713 20.714V20.713Z" fill="#1DBBBA"/>
<path d="M20.393 20.922L22.75 18.576L21.964 17.795L20.555 19.196V11H19.445V19.197L18.035 17.795L17.25 18.576L19.607 20.922C19.7115 21.0257 19.8528 21.0839 20 21.0839C20.1472 21.0839 20.2885 21.0257 20.393 20.922ZM20.667 24.667H26V26H20.667V24.667ZM14 24.667H19.333V26H14V24.667ZM14 26.667H26V28H14V26.667Z" fill="#1DBBBA"/>
</g>
<defs>
<clipPath id="clip0_1139_13369">
<rect width="40" height="40" fill="white"/>
</clipPath>
</defs>
</svg>
