<svg width="40" height="40" viewBox="0 0 40 40" fill="none" xmlns="http://www.w3.org/2000/svg">
<g clip-path="url(#clip0_1139_13393)">
<path d="M39.333 25.3333H28V0.66725C28 0.543381 27.9656 0.421945 27.9005 0.31655C27.8354 0.211156 27.7423 0.125967 27.6315 0.0705292C27.5207 0.0150914 27.3967 -0.00840492 27.2733 0.00267305C27.15 0.013751 27.0321 0.0589656 26.933 0.13325L22.063 3.78725L18.473 0.19525C18.348 0.0705548 18.1786 0.000529987 18.002 0.000529987C17.8254 0.000529987 17.656 0.0705548 17.531 0.19525L14 3.72425L10.471 0.19525C10.346 0.0705548 10.1766 0.000529987 10 0.000529987C9.82341 0.000529987 9.65403 0.0705548 9.529 0.19525L5.937 3.78725L1.067 0.13325C0.967876 0.0589656 0.850025 0.013751 0.726651 0.00267305C0.603278 -0.00840492 0.479257 0.0150914 0.368485 0.0705292C0.257713 0.125967 0.164567 0.211156 0.0994845 0.31655C0.0344017 0.421945 -4.63985e-05 0.543381 4.69036e-08 0.66725V35.3333C4.69036e-08 35.5102 0.0702731 35.6798 0.19536 35.8049C0.320447 35.93 0.490101 36.0003 0.667 36.0003H12V39.3333C11.9999 39.4209 12.017 39.5077 12.0505 39.5887C12.084 39.6696 12.1331 39.7432 12.1951 39.8052C12.257 39.8672 12.3306 39.9163 12.4116 39.9497C12.4926 39.9832 12.5794 40.0004 12.667 40.0003H39.333C39.4206 40.0004 39.5074 39.9832 39.5884 39.9497C39.6694 39.9163 39.743 39.8672 39.8049 39.8052C39.8669 39.7432 39.916 39.6696 39.9495 39.5887C39.983 39.5077 40.0001 39.4209 40 39.3333V26.0002C40.0001 25.9126 39.983 25.8258 39.9495 25.7448C39.916 25.6639 39.8669 25.5903 39.8049 25.5283C39.743 25.4664 39.6694 25.4172 39.5884 25.3838C39.5074 25.3503 39.4206 25.3331 39.333 25.3333ZM12 26.0002V34.6673H1.333V2.00025L5.6 5.20025C5.72838 5.29635 5.88709 5.34298 6.04706 5.33159C6.20702 5.3202 6.35752 5.25157 6.471 5.13825L10 1.60925L13.529 5.13825C13.654 5.26295 13.8234 5.33297 14 5.33297C14.1766 5.33297 14.346 5.26295 14.471 5.13825L18 1.60925L21.527 5.13825C21.6405 5.25228 21.7914 5.32138 21.9519 5.33278C22.1124 5.34418 22.2715 5.2971 22.4 5.20025L26.667 2.00025V25.3333H12.667C12.4901 25.3333 12.3204 25.4035 12.1954 25.5286C12.0703 25.6537 12 25.8234 12 26.0002ZM38.667 38.6673H13.333V26.6672H38.667V38.6673Z" fill="#1DBBBA"/>
<path d="M16 29.333H16.667V28H15.334C15.2464 27.9999 15.1596 28.017 15.0786 28.0505C14.9976 28.084 14.924 28.1331 14.8621 28.1951C14.8001 28.257 14.751 28.3306 14.7175 28.4116C14.684 28.4926 14.6669 28.5794 14.667 28.667V30H16V29.333ZM15.334 37.333H16.667V36H16V35.333H14.667V36.667C14.667 36.7545 14.6843 36.8412 14.7178 36.9221C14.7513 37.003 14.8005 37.0764 14.8624 37.1383C14.9244 37.2001 14.9979 37.2492 15.0788 37.2826C15.1597 37.316 15.2465 37.3331 15.334 37.333ZM36 30H37.333V28.667C37.3331 28.5794 37.316 28.4926 37.2825 28.4116C37.249 28.3306 37.1999 28.257 37.1379 28.1951C37.076 28.1331 37.0024 28.084 36.9214 28.0505C36.8404 28.017 36.7536 27.9999 36.666 28H35.333V29.333H36V30ZM37.333 36.667V35.333H36V36H35.333V37.333H36.666C36.8427 37.333 37.0122 37.2629 37.1373 37.138C37.2623 37.0131 37.3327 36.8437 37.333 36.667ZM26 37.333C26.6186 37.3421 27.2328 37.228 27.8069 36.9976C28.381 36.7671 28.9035 36.4249 29.3441 35.9906C29.7848 35.5564 30.1347 35.0389 30.3735 34.4683C30.6123 33.8976 30.7353 33.2851 30.7353 32.6665C30.7353 32.0479 30.6123 31.4354 30.3735 30.8647C30.1347 30.2941 29.7848 29.7766 29.3441 29.3424C28.9035 28.9081 28.381 28.5659 27.8069 28.3354C27.2328 28.105 26.6186 27.9909 26 28C24.7622 28 23.5752 28.4917 22.6999 29.3669C21.8247 30.2422 21.333 31.4292 21.333 32.667C21.333 33.9048 21.8247 35.0918 22.6999 35.9671C23.5752 36.8423 24.7622 37.333 26 37.333ZM26 29.333C26.8841 29.333 27.732 29.6842 28.3571 30.3094C28.9823 30.9345 29.3335 31.7824 29.3335 32.6665C29.3335 33.5506 28.9823 34.3985 28.3571 35.0236C27.732 35.6488 26.8841 36 26 36C25.1159 36 24.268 35.6488 23.6429 35.0236C23.0177 34.3985 22.6665 33.5506 22.6665 32.6665C22.6665 31.7824 23.0177 30.9345 23.6429 30.3094C24.268 29.6842 25.1159 29.333 26 29.333ZM23.333 8H4.667C4.4901 8 4.32045 8.07027 4.19536 8.19536C4.07027 8.32045 4 8.4901 4 8.667V11.333C4 11.5099 4.07027 11.6796 4.19536 11.8046C4.32045 11.9297 4.4901 12 4.667 12H23.333C23.4206 12.0001 23.5074 11.983 23.5884 11.9495C23.6694 11.916 23.743 11.8669 23.8049 11.8049C23.8669 11.743 23.916 11.6694 23.9495 11.5884C23.983 11.5074 24.0001 11.4206 24 11.333V8.667C24.0001 8.57937 23.983 8.49258 23.9495 8.4116C23.916 8.33061 23.8669 8.25703 23.8049 8.19507C23.743 8.1331 23.6694 8.08398 23.5884 8.0505C23.5074 8.01703 23.4206 7.99987 23.333 8ZM22.667 10.667H5.333V9.333H22.667V10.667ZM4 14.667H24V16H4V14.667ZM4 18.667H24V20H4V18.667ZM4 22.667H24V24H4V22.667ZM4 26.667H10.667V28H4V26.667ZM4 30.667H10.667V32H4V30.667Z" fill="#1DBBBA"/>
</g>
<defs>
<clipPath id="clip0_1139_13393">
<rect width="40" height="40" fill="white"/>
</clipPath>
</defs>
</svg>
