<svg width="40" height="40" viewBox="0 0 40 40" fill="none" xmlns="http://www.w3.org/2000/svg">
<g clip-path="url(#clip0_1139_13376)">
<path d="M39.333 0H0.667C0.490101 0 0.320447 0.070273 0.19536 0.19536C0.070273 0.320447 0 0.490101 0 0.667L0 39.333C0 39.702 0.299 40 0.667 40H39.333C39.5099 40 39.6796 39.9297 39.8046 39.8046C39.9297 39.6796 40 39.5099 40 39.333V0.667C40 0.490101 39.9297 0.320447 39.8046 0.19536C39.6796 0.070273 39.5099 0 39.333 0ZM38.667 1.333V8H1.333V1.333H38.667ZM1.333 38.667V9.333H38.667V38.667H1.333Z" fill="#1DBBBA"/>
<path d="M4.66699 4H5.99999V5.333H4.66699V4ZM7.33299 4H8.66599V5.333H7.33299V4ZM9.99999 4H11.333V5.333H9.99999V4ZM34.667 4H36V5.333H34.667V4Z" fill="#1DBBBA"/>
<path d="M2.667 7.333H37.333C37.5097 7.333 37.6792 7.26286 37.8043 7.13799C37.9293 7.01312 37.9997 6.84373 38 6.667V2.667C38 2.4901 37.9297 2.32045 37.8046 2.19536C37.6796 2.07027 37.5099 2 37.333 2H2.667C2.4901 2 2.32045 2.07027 2.19536 2.19536C2.07027 2.32045 2 2.4901 2 2.667V6.667C2 7.035 2.299 7.333 2.667 7.333ZM36.667 6H14V3.333H36.667V6ZM3.333 3.333H12.667V6H3.333V3.333Z" fill="#1DBBBA"/>
<path d="M35.333 11.083H4.667C4.298 11.083 4 11.259 4 11.476V16.19C4 16.407 4.298 16.583 4.667 16.583H35.333C35.702 16.583 36 16.407 36 16.191V11.476C36 11.259 35.702 11.083 35.333 11.083ZM34.667 15.798H5.333V11.869H34.667V15.798Z" fill="#1DBBBA"/>
<path d="M6.66699 13.167H7.99999V14.5H6.66699V13.167ZM9.33299 13.167H10.666V14.5H9.33299V13.167ZM12 13.167H13.333V14.5H12V13.167ZM4.66699 31.583H35.334V36.583H4.66699V31.583Z" fill="#1DBBBA"/>
<path d="M35.333 31.333H4.667C4.298 31.333 4 31.509 4 31.726V36.441C4 36.657 4.298 36.833 4.667 36.833H35.333C35.702 36.833 36 36.657 36 36.441V31.726C36 31.509 35.702 31.333 35.333 31.333ZM34.667 36.048H5.333V32.119H34.667V36.048Z" fill="#1DBBBA"/>
<path d="M35.333 17.5H4.667C4.298 17.5 4 17.676 4 17.893V22.607C4 22.824 4.298 23 4.667 23H35.333C35.702 23 36 22.824 36 22.607V17.893C36 17.676 35.702 17.5 35.333 17.5ZM34.667 22.214H5.333V18.286H34.667V22.214Z" fill="#1DBBBA"/>
<path d="M6.66699 19.583H7.99999V20.917H6.66699V19.583ZM9.33299 19.583H10.666V20.917H9.33299V19.583ZM12 19.583H13.333V20.917H12V19.583Z" fill="#1DBBBA"/>
<path d="M35.333 23.917H4.667C4.298 23.917 4 24.093 4 24.309V29.024C4 29.241 4.298 29.417 4.667 29.417H35.333C35.702 29.417 36 29.241 36 29.024V24.309C36 24.093 35.702 23.917 35.333 23.917ZM34.667 28.631H5.333V24.702H34.667V28.631Z" fill="#1DBBBA"/>
<path d="M6.66699 26H7.99999V27.333H6.66699V26ZM9.33299 26H10.666V27.333H9.33299V26Z" fill="#1DBBBA"/>
<path d="M12 26H13.333V27.333H12V26Z" fill="#1DBBBA"/>
</g>
<defs>
<clipPath id="clip0_1139_13376">
<rect width="40" height="40" fill="white"/>
</clipPath>
</defs>
</svg>
