<svg xmlns="http://www.w3.org/2000/svg" width="423" height="205" fill="none"><path stroke="#fff" stroke-width="4.865" d="M2.932 3.385H418.22L300.112 201.616H2.932V3.386Z"/><path fill="#fff" d="M21.042 155.547v-27.363c4.96 4.161 10.347 7.297 16.161 9.406 5.815 2.052 11.687 3.078 17.615 3.078 3.478 0 6.5-.313 9.064-.94 2.623-.627 4.789-1.483 6.5-2.566 1.766-1.14 3.078-2.451 3.933-3.933a10.05 10.05 0 0 0 1.282-4.96c0-2.394-.684-4.532-2.052-6.413-1.368-1.881-3.25-3.62-5.644-5.216-2.337-1.596-5.13-3.135-8.38-4.617a289.715 289.715 0 0 0-10.517-4.533c-9.577-3.99-16.732-8.864-21.463-14.622-4.675-5.757-7.012-12.712-7.012-20.864 0-6.385 1.283-11.857 3.848-16.418 2.565-4.617 6.043-8.408 10.432-11.373 4.447-2.964 9.577-5.13 15.392-6.498 5.815-1.426 11.971-2.138 18.47-2.138 6.385 0 12.028.399 16.93 1.197 4.96.741 9.521 1.91 13.683 3.506v25.567c-2.053-1.425-4.305-2.679-6.756-3.762a48.07 48.07 0 0 0-7.44-2.651 52.894 52.894 0 0 0-7.695-1.625 53.23 53.23 0 0 0-7.183-.513c-3.135 0-5.985.314-8.55.94-2.566.571-4.732 1.398-6.5 2.48-1.767 1.084-3.135 2.395-4.104 3.934-.97 1.482-1.454 3.164-1.454 5.045 0 2.052.542 3.905 1.625 5.558 1.083 1.597 2.622 3.136 4.617 4.618 1.996 1.425 4.419 2.85 7.269 4.275 2.85 1.368 6.071 2.794 9.662 4.276 4.903 2.052 9.292 4.247 13.169 6.584 3.933 2.28 7.297 4.874 10.09 7.781a30.377 30.377 0 0 1 6.413 10.005c1.482 3.706 2.224 8.038 2.224 12.998 0 6.84-1.312 12.598-3.934 17.273-2.565 4.617-6.071 8.379-10.518 11.287-4.446 2.85-9.634 4.902-15.562 6.157-5.872 1.254-12.086 1.881-18.641 1.881-6.727 0-13.14-.57-19.24-1.71-6.043-1.141-11.287-2.851-15.734-5.131Zm211.637 4.703h-30.1l-8.722-27.278h-43.61l-8.636 27.278h-29.929l44.636-122.621h32.751l43.61 122.621Zm-45.149-48.484L174.361 70.55c-.969-3.078-1.653-6.755-2.052-11.03h-.684a46.778 46.778 0 0 1-2.138 10.688l-13.34 41.558h31.383Zm88.075 6.242v42.242h-27.62V37.629h43.268c30.897 0 46.346 13.026 46.346 39.078 0 12.313-4.446 22.29-13.339 29.928-8.836 7.582-20.665 11.373-35.487 11.373h-13.168Zm0-59.172v38.222h10.859c14.708 0 22.062-6.441 22.062-19.325 0-12.598-7.354-18.898-22.062-18.898h-10.859Z"/></svg>