<svg xmlns="http://www.w3.org/2000/svg" width="407" height="321" fill="none"><g clip-path="url(#a)"><path fill="#fff" d="M377.849 319.436c-.234 0-.47-.012-.707-.038l-157.649-16.666a6.7 6.7 0 0 1-5.952-7.359l21.96-207.722a6.649 6.649 0 0 1 2.452-4.494 6.642 6.642 0 0 1 4.908-1.458L400.51 98.365a6.7 6.7 0 0 1 5.952 7.359l-21.96 207.722c-.364 3.433-3.275 5.99-6.653 5.99ZM242.152 83.25a5.067 5.067 0 0 0-3.202 1.142 5.07 5.07 0 0 0-1.871 3.427l-21.961 207.722a5.07 5.07 0 0 0 1.113 3.743 5.072 5.072 0 0 0 3.427 1.872l157.649 16.666a5.114 5.114 0 0 0 5.614-4.54l21.961-207.722a5.113 5.113 0 0 0-4.541-5.614L242.692 83.279c-.18-.02-.36-.029-.54-.029Z"/><path fill="#fff" d="M242.152 83.25a5.067 5.067 0 0 0-3.202 1.142 5.07 5.07 0 0 0-1.871 3.427l-21.961 207.722a5.07 5.07 0 0 0 1.113 3.743 5.072 5.072 0 0 0 3.427 1.872l157.649 16.666a5.114 5.114 0 0 0 5.614-4.54l21.961-207.722a5.113 5.113 0 0 0-4.541-5.614L242.692 83.279c-.18-.02-.36-.029-.54-.029Z"/><path fill="#D2D2D2" d="m388.131 153.142-122.149-13.31a3.82 3.82 0 0 1-3.374-4.2 3.82 3.82 0 0 1 4.2-3.374l122.149 13.309a3.82 3.82 0 0 1 3.374 4.2 3.823 3.823 0 0 1-4.2 3.375ZM385.149 180.507 263 167.198a3.821 3.821 0 0 1-3.375-4.2 3.82 3.82 0 0 1 4.2-3.375l122.149 13.31a3.82 3.82 0 0 1 3.375 4.2 3.82 3.82 0 0 1-4.2 3.374ZM382.167 207.874l-122.15-13.309a3.82 3.82 0 0 1-3.374-4.2 3.82 3.82 0 0 1 4.2-3.375l122.149 13.31a3.82 3.82 0 0 1 3.374 4.2 3.82 3.82 0 0 1-4.199 3.374ZM379.186 235.24l-122.149-13.31a3.82 3.82 0 0 1-3.375-4.2 3.82 3.82 0 0 1 4.2-3.374l122.149 13.309a3.82 3.82 0 0 1 3.375 4.2 3.82 3.82 0 0 1-4.2 3.375ZM376.204 262.607l-122.15-13.309a3.821 3.821 0 0 1-3.374-4.2 3.82 3.82 0 0 1 4.2-3.375l122.149 13.31a3.82 3.82 0 0 1 3.374 4.2 3.82 3.82 0 0 1-4.199 3.374ZM373.222 289.973l-122.149-13.31a3.82 3.82 0 0 1-3.374-4.2 3.82 3.82 0 0 1 4.199-3.374l122.15 13.309a3.821 3.821 0 0 1 3.374 4.2 3.821 3.821 0 0 1-4.2 3.375Z"/><path fill="#52D1BD" d="m391.112 125.776-122.149-13.31a3.82 3.82 0 0 1-3.375-4.2 3.82 3.82 0 0 1 4.2-3.374l122.149 13.309a3.821 3.821 0 0 1 3.375 4.2 3.822 3.822 0 0 1-4.2 3.375Z"/><path fill="#002E27" d="M383.078 84.282 224.806 75.27c-3.238-.184-6.039 2.314-6.225 5.554l-11.877 208.541c-.184 3.239 2.315 6.04 5.555 6.226l158.271 9.013c3.24.184 6.04-2.314 6.226-5.554l11.876-208.541c.185-3.24-2.314-6.041-5.554-6.226Z" opacity=".2"/><path fill="#00C5A8" d="m366.555 301.21-158.272-9.014c-3.238-.184-5.738-2.986-5.554-6.226l11.876-208.54c.185-3.239 2.986-5.74 6.226-5.555l158.271 9.014c3.239.184 5.739 2.986 5.555 6.225L372.78 295.655c-.185 3.239-2.987 5.739-6.225 5.555Z"/><path fill="#fff" d="m357.942 138.872-122.673-6.986a3.819 3.819 0 0 1-3.586-4.02 3.82 3.82 0 0 1 4.021-3.587l122.673 6.986a3.819 3.819 0 0 1 3.586 4.021 3.821 3.821 0 0 1-4.021 3.586ZM356.377 166.356l-122.672-6.986a3.819 3.819 0 0 1-3.587-4.02 3.82 3.82 0 0 1 4.021-3.587l122.673 6.986a3.82 3.82 0 0 1 3.586 4.021 3.822 3.822 0 0 1-4.021 3.586ZM354.812 193.839l-122.673-6.986a3.819 3.819 0 0 1-3.586-4.02 3.819 3.819 0 0 1 4.02-3.587l122.673 6.986a3.82 3.82 0 0 1 3.587 4.021 3.82 3.82 0 0 1-4.021 3.586ZM353.247 221.323l-122.673-6.986a3.819 3.819 0 0 1-3.587-4.02 3.82 3.82 0 0 1 4.021-3.587l122.673 6.986a3.819 3.819 0 0 1 3.586 4.021 3.822 3.822 0 0 1-4.02 3.586ZM351.683 248.807l-122.673-6.986a3.82 3.82 0 0 1-3.587-4.02 3.821 3.821 0 0 1 4.021-3.587l122.673 6.986a3.82 3.82 0 0 1 3.586 4.021 3.822 3.822 0 0 1-4.02 3.586ZM350.116 276.29l-122.673-6.986a3.819 3.819 0 0 1-3.586-4.02 3.82 3.82 0 0 1 4.021-3.587l122.672 6.986a3.82 3.82 0 0 1 3.587 4.021 3.82 3.82 0 0 1-4.021 3.586ZM359.507 111.388l-122.673-6.986a3.819 3.819 0 0 1-3.586-4.021 3.82 3.82 0 0 1 4.021-3.586l122.673 6.986a3.819 3.819 0 0 1 3.586 4.02 3.82 3.82 0 0 1-4.021 3.587Z"/><path fill="#7A2226" d="M255.194 211.138 146.15 253.349c-8.112 3.14-12.143 12.261-9.002 20.372 3.14 8.112 12.261 12.143 20.372 9.002l102.76-39.777a6.74 6.74 0 0 0 3.852-8.72l-8.938-23.088Z"/><path fill="#3A7EC1" d="M320.183 55.563 162.209 68.796c-3.233.27-5.657 3.138-5.387 6.37l17.437 208.151c.271 3.233 3.138 5.657 6.37 5.386l157.975-13.233c3.233-.271 5.657-3.138 5.387-6.37L326.554 60.95c-.271-3.235-3.138-5.66-6.371-5.387Z" opacity=".2"/><path fill="#fff" d="m334.014 270.953-157.975 13.234c-3.233.27-6.1-2.152-6.37-5.387L152.232 70.65c-.27-3.233 2.152-6.1 5.386-6.37l157.975-13.234c3.233-.27 6.1 2.153 6.37 5.387l17.437 208.15c.271 3.233-2.152 6.099-5.386 6.37Z"/><path fill="#D2D2D2" d="m302.761 111.42-122.444 10.257a3.82 3.82 0 0 1-4.114-3.479 3.82 3.82 0 0 1 3.478-4.114l122.443-10.256a3.82 3.82 0 0 1 4.115 3.478 3.822 3.822 0 0 1-3.478 4.114ZM305.058 138.852l-122.443 10.256a3.82 3.82 0 0 1-4.115-3.478 3.82 3.82 0 0 1 3.479-4.114l122.443-10.257a3.82 3.82 0 0 1 4.114 3.478 3.82 3.82 0 0 1-3.478 4.115ZM307.355 166.285l-122.443 10.256a3.819 3.819 0 0 1-4.114-3.478 3.819 3.819 0 0 1 3.478-4.114l122.443-10.257a3.821 3.821 0 0 1 4.115 3.478 3.823 3.823 0 0 1-3.479 4.115ZM309.653 193.716 187.21 203.973a3.821 3.821 0 0 1-4.115-3.479 3.821 3.821 0 0 1 3.479-4.114l122.443-10.256a3.819 3.819 0 0 1 4.114 3.478 3.819 3.819 0 0 1-3.478 4.114ZM311.952 221.149l-122.443 10.257a3.82 3.82 0 0 1-4.114-3.479 3.82 3.82 0 0 1 3.478-4.114l122.443-10.256a3.82 3.82 0 0 1 4.115 3.478 3.822 3.822 0 0 1-3.479 4.114ZM314.25 248.581l-122.444 10.256a3.82 3.82 0 0 1-4.114-3.478 3.82 3.82 0 0 1 3.478-4.114l122.444-10.257a3.82 3.82 0 0 1 4.114 3.479 3.82 3.82 0 0 1-3.478 4.114Z"/><path fill="#52D1BD" d="M300.461 83.989 178.018 94.245a3.82 3.82 0 0 1-4.114-3.478 3.82 3.82 0 0 1 3.478-4.114l122.443-10.257a3.82 3.82 0 0 1 4.114 3.478 3.82 3.82 0 0 1-3.478 4.115Z"/><path fill="#3A7EC1" d="m245.022 14.396 25.636 66.231c1.832 4.733-.521 10.055-5.252 11.885l-14.569 5.64 39.831 102.902c1.696 4.382-.484 9.309-4.866 11.005L167.9 257.698l-1.069-12.356L74.89 87.29a15.704 15.704 0 0 1 .28-12.052 15.7 15.7 0 0 1 8.722-8.322l149.243-57.77a9.189 9.189 0 0 1 11.887 5.25Z" opacity=".2"/><path fill="#E72E35" d="M277.755 193.283 237.92 90.385l14.569-5.644c4.732-1.827 7.086-7.15 5.254-11.883l-25.64-66.231c-1.828-4.733-7.151-7.082-11.884-5.25L70.973 59.147a15.692 15.692 0 0 0-8.719 8.319 15.708 15.708 0 0 0-.28 12.053l14.638 37.824 18.734 48.386 36.117 93.304h-.001l5.686 14.688a15.694 15.694 0 0 1 .281-12.05 15.712 15.712 0 0 1 8.649-8.293l126.81-49.088c4.38-1.699 6.561-6.623 4.867-11.007Z"/><path fill="#fff" d="M71.601 288.88c-5.268-1.654-8.21-7.284-6.557-12.552L78.262 234.2c2.409-7.676 10.612-11.962 18.288-9.554 7.676 2.408 11.961 10.612 9.553 18.288l-3.541 11.284a.864.864 0 0 1-1.648-.516l3.542-11.284c2.123-6.766-1.655-14.001-8.423-16.124-6.767-2.123-14.001 1.655-16.124 8.423L66.69 276.846c-1.368 4.36 1.066 9.021 5.426 10.388 4.36 1.368 9.02-1.066 10.388-5.426l13.58-43.282a3.718 3.718 0 0 0-2.43-4.654 3.718 3.718 0 0 0-4.654 2.43l-11.295 35.997a.865.865 0 0 1-1.647-.517l11.294-35.996a5.447 5.447 0 0 1 6.818-3.562 5.446 5.446 0 0 1 3.561 6.818l-13.58 43.282c-1.65 5.268-7.282 8.21-12.55 6.556Z"/><path fill="#7A2226" d="M154.584 142.332a29.407 29.407 0 0 1-9.671 5.955L95.431 166.89l-21.203-53.192 49.488-18.607a30.077 30.077 0 0 1 22.467.51 29.265 29.265 0 0 1 7.588 4.726 28.305 28.305 0 0 1 7.927 11.065c4.42 11.085 1.221 23.215-7.114 30.94Z"/><path fill="#00C5A8" d="M163.734 102.36c4.264 10.975 1.177 22.982-6.866 30.627a28.275 28.275 0 0 1-9.329 5.891l-55.317 21.334c-3.944 1.521-5.902 5.942-4.376 9.872l-2.766-7.118-43.31 16.704-12.762-32.845a28.233 28.233 0 0 1 10.098-6.649l32.284-12.451-4-10.295c-1.527-3.93.43-8.351 4.376-9.872l55.316-21.334a28.343 28.343 0 0 1 21.681.506 28.277 28.277 0 0 1 7.324 4.674 28.091 28.091 0 0 1 7.647 10.956Z"/><path fill="#00907B" d="m71.693 127.568 17.745 46.09c1.53 3.979-.434 8.452-4.392 9.993l-25.215 9.814a28.171 28.171 0 0 1-11.995 1.879 28.432 28.432 0 0 1-24.768-18.211 28.629 28.629 0 0 1 .509-21.864 28.649 28.649 0 0 1 5.609-8.369 28.298 28.298 0 0 1 10.127-6.73l32.38-12.602Z"/><path fill="#7A2226" d="m188.902 184.058 19.564 10.99 11.342-20.185-19.566-10.992 4.071-7.246-37.605 1.684 18.124 32.993 4.07-7.244Z"/><path fill="#fff" d="m188.902 171.569 19.564 10.991 11.342-20.186-19.566-10.992 4.071-7.245-37.605 1.683 18.124 32.993 4.07-7.244ZM304.729 19.885a8.973 8.973 0 1 0-12.69-12.69 8.973 8.973 0 0 0 12.69 12.69Z"/><path fill="#7A2226" d="M217.127 45.348a8.973 8.973 0 1 0-12.69-12.69 8.973 8.973 0 0 0 12.69 12.69Z"/><path fill="#fff" d="M219.093 40.432a8.973 8.973 0 1 0-12.69-12.689 8.973 8.973 0 0 0 12.69 12.69ZM16.585 61.886a8.973 8.973 0 1 0-12.69-12.69 8.973 8.973 0 0 0 12.69 12.69ZM147.986 319.698a5.624 5.624 0 1 0 .001-11.249 5.624 5.624 0 0 0-.001 11.249ZM103.978 136.282l-.624-1.568c-.44-1.108-.687-2.125-.74-3.051a7.902 7.902 0 0 1 .366-2.813c.305-.953.96-2.281 1.966-3.986.711-1.229 1.163-2.088 1.359-2.576.201-.501.316-.952.346-1.353a2.533 2.533 0 0 0-.175-1.193c-.517-1.3-1.556-1.639-3.119-1.017-1.59.632-2.864 1.807-3.823 3.524l-1.891-4.756c.864-.975 1.721-1.758 2.57-2.348a13.878 13.878 0 0 1 2.773-1.481c2.126-.845 3.973-.991 5.541-.435 1.567.555 2.716 1.75 3.446 3.585.56 1.409.73 2.724.512 3.948-.219 1.223-.944 2.695-2.174 4.415-.938 1.32-1.54 2.254-1.806 2.802-.261.535-.344.936-.248 1.203l7.632-3.035 1.853 4.661-13.764 5.474Zm27.736-18.684c.531 1.336.69 2.661.476 3.977-.208 1.304-.789 2.487-1.745 3.551-.955 1.064-2.241 1.917-3.859 2.56-.899.358-1.87.655-2.913.89-1.033.233-1.911.355-2.631.368l-1.8-4.525a9.744 9.744 0 0 0 4.754-.627c1-.397 1.681-.879 2.046-1.445.373-.569.428-1.185.164-1.849-.571-1.435-2.046-1.68-4.427-.733a16.374 16.374 0 0 0-3.176 1.657l-3.93-12.026 11.039-4.39 1.799 4.525-6.541 2.601.898 2.815c.505-.264.99-.488 1.453-.672 1.908-.759 3.609-.835 5.102-.23 1.489.597 2.586 1.781 3.291 3.553ZM114.133 142.364l-4.903 6.956-1.047-2.634-1.131.45c-.393.156-.697.277-1.249.471a7.89 7.89 0 0 1-5.347-.169 7.762 7.762 0 0 1-3.974-3.539c-.42-.842-.59-1.373-.848-1.993l-3.367-8.468 3.394-1.35 3.367 8.468c.236.593.515 1.296.677 1.628a4.152 4.152 0 0 0 1.375 1.495 4.196 4.196 0 0 0 1.924.669 4.228 4.228 0 0 0 1.664-.191c.218-.065.661-.263 1.022-.407l1.145-.455-1.043-2.621 8.341 1.69ZM117.305 98.858l4.903-6.956 1.047 2.633 1.131-.45c.393-.156.697-.276 1.249-.47a7.884 7.884 0 0 1 5.347.169 7.763 7.763 0 0 1 3.974 3.538c.42.843.59 1.373.848 1.994l3.367 8.468-3.394 1.349-3.367-8.468c-.236-.592-.515-1.296-.677-1.628a4.15 4.15 0 0 0-1.375-1.494 4.196 4.196 0 0 0-1.924-.67 4.226 4.226 0 0 0-1.664.192c-.218.065-.661.263-1.022.407l-1.145.454 1.043 2.621-8.341-1.69Z"/></g><defs><clipPath id="a"><path fill="#fff" d="M.5.754h406v319.492H.5z"/></clipPath></defs></svg>