<svg xmlns="http://www.w3.org/2000/svg" width="70" height="70" fill="none"><path fill="#1DBBBA" d="M54.447 4.59H49.53c.056.317.087.642.087.975v4.288c0 3.06-2.49 5.549-5.549 5.549H25.93a5.555 5.555 0 0 1-5.548-5.549V5.565c0-.333.03-.658.087-.975h-4.916a6.158 6.158 0 0 0-6.15 6.151V63.85A6.158 6.158 0 0 0 15.552 70h38.894a6.158 6.158 0 0 0 6.15-6.151V10.741a6.158 6.158 0 0 0-6.15-6.15ZM19.492 24.338a2.05 2.05 0 0 1 2.806.733l.966 1.65 4.583-6.628a2.05 2.05 0 1 1 3.372 2.333L24.808 31.7a2.05 2.05 0 0 1-3.456-.13l-2.592-4.427a2.05 2.05 0 0 1 .733-2.805Zm11.728 13.236-6.413 9.275a2.05 2.05 0 0 1-3.456-.13L18.76 42.29a2.05 2.05 0 1 1 3.539-2.071l.966 1.65 4.583-6.628a2.05 2.05 0 1 1 3.373 2.332Zm18.383 8.3H35.716a2.05 2.05 0 0 1 0-4.101h13.888a2.05 2.05 0 0 1 0 4.1Zm0-7.667H35.716a2.05 2.05 0 0 1 0-4.1h13.888a2.05 2.05 0 1 1 0 4.1Zm0-7.482H35.716a2.05 2.05 0 0 1 0-4.1h13.888a2.05 2.05 0 1 1 0 4.1Z"/><path fill="#1DBBBA" d="M44.07 0H25.93a1.45 1.45 0 0 0-1.447 1.448v8.405c0 .799.649 1.448 1.447 1.448h18.14a1.45 1.45 0 0 0 1.447-1.448V1.448A1.45 1.45 0 0 0 44.07 0Z"/></svg>