<svg xmlns="http://www.w3.org/2000/svg" width="70" height="70" fill="none"><g clip-path="url(#a)"><path fill="#1DBBBA" d="M41.563 0H8.02A8.016 8.016 0 0 0 0 8.02v45.21a8.016 8.016 0 0 0 8.02 8.02h21.526l.642-3.587a8.122 8.122 0 0 1 2.216-4.288l17.18-17.15V8.021A8.016 8.016 0 0 0 41.561 0ZM11.666 11.667h11.666a2.925 2.925 0 0 1 2.917 2.916 2.925 2.925 0 0 1-2.917 2.917H11.667a2.925 2.925 0 0 1-2.917-2.917 2.925 2.925 0 0 1 2.917-2.916ZM26.25 40.833H11.667a2.925 2.925 0 0 1-2.917-2.916A2.925 2.925 0 0 1 11.667 35H26.25a2.925 2.925 0 0 1 2.917 2.917 2.925 2.925 0 0 1-2.917 2.916Zm11.667-11.666h-26.25A2.925 2.925 0 0 1 8.75 26.25a2.925 2.925 0 0 1 2.917-2.917h26.25a2.925 2.925 0 0 1 2.916 2.917 2.925 2.925 0 0 1-2.916 2.917ZM36.54 70a2.182 2.182 0 0 1-2.152-2.57l1.545-8.764c.079-.442.29-.849.607-1.167l21.656-21.653c2.66-2.666 5.274-1.946 6.703-.516l3.608 3.608a5.106 5.106 0 0 1 0 7.218L46.85 67.813c-.316.318-.724.53-1.166.606l-8.765 1.546a2.088 2.088 0 0 1-.379.035Zm8.765-3.733h.029-.03Z"/></g><defs><clipPath id="a"><path fill="#fff" d="M0 0h70v70H0z"/></clipPath></defs></svg>