<svg xmlns="http://www.w3.org/2000/svg" width="70" height="70" fill="none"><path fill="#1DBBBA" d="M10.39 36.914c.526 0 1.05-.2 1.45-.6l14.957-14.957 6.753 6.753a2.05 2.05 0 0 0 2.9 0L57.559 7.002v3.252a2.05 2.05 0 1 0 4.101 0V2.05c0-.067-.003-.135-.01-.202-.003-.034-.01-.066-.014-.099-.005-.033-.009-.066-.016-.099-.007-.04-.018-.078-.028-.117-.006-.025-.012-.05-.02-.076-.012-.041-.027-.08-.042-.12-.008-.023-.015-.046-.024-.068-.017-.041-.037-.081-.056-.12-.01-.021-.019-.041-.03-.061a2.16 2.16 0 0 0-.074-.127c-.01-.015-.017-.03-.027-.044a2.127 2.127 0 0 0-.118-.16V.756a2.104 2.104 0 0 0-.297-.296l-.002-.001a2.155 2.155 0 0 0-.16-.118c-.014-.01-.029-.017-.044-.026a2.156 2.156 0 0 0-.127-.076l-.06-.028c-.04-.02-.08-.04-.12-.057L60.322.13c-.04-.015-.08-.03-.12-.042-.026-.008-.052-.013-.077-.02-.039-.01-.077-.021-.117-.028-.033-.007-.066-.01-.099-.016L59.811.01A2.12 2.12 0 0 0 59.61 0h-8.203a2.05 2.05 0 1 0 0 4.102h3.253L35 23.76l-6.753-6.753a2.05 2.05 0 0 0-2.9 0L8.941 33.413a2.05 2.05 0 0 0 1.45 3.501ZM0 67.95A2.05 2.05 0 0 0 2.05 70h16.407a2.05 2.05 0 0 0 2.05-2.05v-2.872H0v2.871Zm18.457-11.894H2.051A2.05 2.05 0 0 0 0 58.105v2.872h20.508v-2.871a2.05 2.05 0 0 0-2.051-2.051Zm6.29 11.894A2.05 2.05 0 0 0 26.796 70h16.406a2.05 2.05 0 0 0 2.05-2.05v-2.872H24.747v2.871Zm24.745-11.894H70v4.922H49.492v-4.922Zm18.457-27.07H51.543a2.05 2.05 0 0 0-2.05 2.05v2.871H70v-2.87a2.05 2.05 0 0 0-2.05-2.052Zm-18.457 9.023H70v4.922H49.492v-4.922Zm0 9.023H70v4.922H49.492v-4.922Zm0 20.918A2.05 2.05 0 0 0 51.543 70h16.406A2.05 2.05 0 0 0 70 67.95v-2.872H49.492v2.871ZM24.746 56.055h20.508v4.922H24.746v-4.922Zm18.457-9.024H26.797a2.05 2.05 0 0 0-2.05 2.051v2.871h20.507v-2.871a2.05 2.05 0 0 0-2.05-2.05Z"/></svg>