<svg xmlns="http://www.w3.org/2000/svg" width="70" height="70" fill="none"><g clip-path="url(#a)"><path fill="#1DBBBA" d="M56.146 0H13.854a8.027 8.027 0 0 0-8.02 8.02v53.96a8.026 8.026 0 0 0 8.02 8.02h42.292a8.026 8.026 0 0 0 8.02-8.02V8.02A8.027 8.027 0 0 0 56.147 0ZM31.354 37.917V23.555c7 1.065 12.396 7.07 12.396 14.362 0 8.04-6.542 14.583-14.583 14.583a14.438 14.438 0 0 1-8.613-2.879l10.159-10.159a2.177 2.177 0 0 0 .641-1.545ZM26.98 23.555v13.458l-9.517 9.517a14.438 14.438 0 0 1-2.879-8.613c0-7.292 5.396-13.297 12.396-14.362Zm26.25 38.424H16.771a2.188 2.188 0 0 1 0-4.375h36.458a2.187 2.187 0 1 1 0 4.375Zm0-9.479h-4.375a2.188 2.188 0 0 1 0-4.375h4.375a2.188 2.188 0 0 1 0 4.375Zm0-8.02h-4.375a2.188 2.188 0 0 1 0-4.376h4.375a2.187 2.187 0 1 1 0 4.375Zm0-8.75h-4.375a2.188 2.188 0 0 1 0-4.376h4.375a2.187 2.187 0 1 1 0 4.375Zm0-8.022h-4.375a2.187 2.187 0 1 1 0-4.375h4.375a2.188 2.188 0 0 1 0 4.375Z"/></g><defs><clipPath id="a"><path fill="#fff" d="M0 0h70v70H0z"/></clipPath></defs></svg>