<svg xmlns="http://www.w3.org/2000/svg" width="70" height="63" fill="none"><g clip-path="url(#a)"><path fill="#1DBBBA" d="M24.989 63c13.8 0 24.988-11.112 24.988-24.82 0-13.706-11.187-24.818-24.988-24.818S0 24.474 0 38.18C0 51.888 11.188 63 24.989 63Z"/><path fill="#fff" d="M17.269 31.469c.1 0 .189.037.264.112a.336.336 0 0 1 .132.262.883.883 0 0 1-.075.319l-3.791 8.598c-.44.999-.849 1.76-1.226 2.285-.365.524-.805.911-1.32 1.161-.516.25-1.188.375-2.018.375h-.887a.438.438 0 0 1-.32-.131.432.432 0 0 1-.132-.319v-1.386c0-.137.044-.25.132-.337a.438.438 0 0 1 .32-.131h.698c.428 0 .792-.113 1.094-.337.302-.225.591-.6.868-1.124l-4.772-8.748a.44.44 0 0 1-.056-.187.38.38 0 0 1 .113-.281.417.417 0 0 1 .302-.131h1.848c.213 0 .377.118.49.356l3.338 6.181 2.735-6.181a.5.5 0 0 1 .51-.356h1.753Zm6.667 13.3c-1.735 0-3.08-.444-4.036-1.33-.943-.887-1.446-2.136-1.509-3.747a49.93 49.93 0 0 1-.019-1.648c0-.775.006-1.337.019-1.686.063-1.599.572-2.841 1.528-3.728.968-.899 2.307-1.349 4.017-1.349 1.119 0 2.093.194 2.923.581.83.375 1.47.893 1.923 1.555.453.65.692 1.386.717 2.21v.038c0 .1-.044.187-.132.262a.402.402 0 0 1-.264.093h-1.792c-.15 0-.264-.03-.339-.093-.075-.063-.138-.181-.189-.356-.2-.787-.534-1.336-1-1.648-.464-.325-1.087-.487-1.866-.487-1.81 0-2.754 1.005-2.83 3.015-.012.337-.018.856-.018 1.555 0 .7.006 1.23.019 1.592.075 2.01 1.018 3.016 2.829 3.016.78 0 1.402-.162 1.867-.487.478-.325.81-.874 1-1.648.037-.175.094-.294.17-.356a.609.609 0 0 1 .357-.094h1.792c.113 0 .208.037.283.112a.305.305 0 0 1 .113.281 4.087 4.087 0 0 1-.716 2.23c-.453.649-1.094 1.167-1.924 1.554-.83.375-1.804.562-2.923.562Zm8.252-.188a.438.438 0 0 1-.32-.131.432.432 0 0 1-.132-.319V31.937c0-.137.037-.25.113-.337a.461.461 0 0 1 .34-.131h1.716a.4.4 0 0 1 .32.13c.088.088.132.2.132.338v4.833h5.564v-4.833c0-.137.038-.25.113-.337a.461.461 0 0 1 .34-.131h1.697c.138 0 .251.043.34.13.087.088.131.2.131.338v12.194c0 .138-.044.25-.132.337a.506.506 0 0 1-.34.113h-1.697a.438.438 0 0 1-.32-.131.432.432 0 0 1-.132-.319v-5.02h-5.564v5.02a.432.432 0 0 1-.132.319.4.4 0 0 1-.32.13h-1.717Z"/><path fill="#94EADD" d="M52.932 33.31C62.358 33.31 70 25.855 70 16.656 70 7.457 62.358 0 52.932 0c-9.426 0-17.068 7.457-17.068 16.655 0 9.199 7.642 16.656 17.068 16.656Z"/><path fill="#fff" d="M40.667 20.917a.292.292 0 0 1-.214-.088.288.288 0 0 1-.088-.212v-8.13c0-.091.026-.166.076-.224a.308.308 0 0 1 .226-.088h1.144c.093 0 .164.03.214.088a.303.303 0 0 1 .088.225v3.221h3.71v-3.221c0-.092.024-.167.075-.225a.308.308 0 0 1 .226-.088h1.131c.093 0 .168.03.227.088a.303.303 0 0 1 .088.225v8.129c0 .092-.03.166-.088.225a.337.337 0 0 1-.227.075h-1.131a.292.292 0 0 1-.214-.088.288.288 0 0 1-.088-.212V17.27h-3.709v3.347c0 .083-.03.154-.088.212a.267.267 0 0 1-.214.088h-1.144Zm8.506 1.735a.307.307 0 0 1-.226-.087c-.05-.05-.076-.12-.076-.212v-2.698c0-.091.03-.162.088-.212a.291.291 0 0 1 .214-.087h.252c.394 0 .683-.358.867-1.074.184-.724.277-1.79.277-3.197v-2.61c0-.091.029-.162.088-.212a.291.291 0 0 1 .214-.088h5.393c.092 0 .168.03.227.088a.304.304 0 0 1 .088.225v6.868h.603c.092 0 .168.029.226.087a.29.29 0 0 1 .088.212v2.698a.29.29 0 0 1-.088.212.308.308 0 0 1-.226.087h-1.131a.291.291 0 0 1-.214-.087.263.263 0 0 1-.088-.212v-1.436h-5.13v1.436c0 .091-.03.162-.088.212a.308.308 0 0 1-.226.087h-1.132Zm5.658-3.296v-5.62h-2.578v1.574c0 1.024-.058 1.865-.175 2.522-.11.658-.282 1.166-.516 1.524h3.269Zm7.457 1.686c-1.157 0-2.053-.296-2.69-.887-.63-.591-.964-1.424-1.006-2.498a33.869 33.869 0 0 1-.013-1.098c0-.517.004-.891.013-1.124.042-1.066.381-1.894 1.018-2.485.646-.6 1.538-.9 2.678-.9.746 0 1.396.13 1.949.388.553.25.98.595 1.282 1.036.302.433.461.924.478 1.474v.025c0 .066-.03.124-.088.175a.267.267 0 0 1-.176.062h-1.194c-.101 0-.176-.02-.227-.063-.05-.041-.092-.12-.126-.237-.133-.524-.356-.89-.666-1.099-.31-.216-.725-.324-1.245-.324-1.207 0-1.835.67-1.886 2.01-.008.225-.012.57-.012 1.037 0 .466.004.82.012 1.061.05 1.34.68 2.01 1.886 2.01.52 0 .935-.108 1.245-.324.319-.217.54-.583.666-1.099.026-.117.063-.196.114-.237a.406.406 0 0 1 .239-.063h1.194c.075 0 .138.025.189.075.058.05.084.113.075.188a2.724 2.724 0 0 1-.478 1.486c-.302.432-.729.778-1.282 1.036-.553.25-1.203.375-1.949.375Z"/></g><defs><clipPath id="a"><path fill="#fff" d="M0 0h70v63H0z"/></clipPath></defs></svg>