<svg xmlns="http://www.w3.org/2000/svg" width="70" height="70" fill="none"><g clip-path="url(#a)"><path fill="#1DBBBA" d="M55.78 21.875c4.223 0 7.657-3.434 7.657-7.656 0-4.222-3.434-7.656-7.656-7.656h-7.656c-1.208 0-2.188.979-2.188 2.187v21.875a2.187 2.187 0 1 0 4.375 0v-2.188h4.375a2.187 2.187 0 1 0 0-4.375h-4.375v-2.187h5.469Zm-5.468-10.937h5.469a3.285 3.285 0 0 1 3.281 3.28 3.285 3.285 0 0 1-3.281 3.282h-5.469v-6.562ZM25.156 50.312h-1.035c-.968 0-1.856-.606-2.145-1.53a2.186 2.186 0 0 1 1.302-2.698l16.408-6.311a2.189 2.189 0 0 0 1.23-2.89c-6.472-15.512-8.092-34.647-8.11-34.872-.167-2.058-2.85-2.762-4-1.037l-3.163 4.742-4.741-3.16a2.188 2.188 0 0 0-3.336 1.289L16.13 9.583 12.152 6.93a2.188 2.188 0 0 0-3.336 1.29L7.38 13.958l-3.978-2.653c-1.516-1.01-3.538.173-3.395 1.99.044.567 1.125 14.062 5.228 27.8 2.445 8.182 5.466 14.734 8.98 19.475 2.465 3.324 6.244 5.054 10.062 5.054h.763c4.202 0 7.708-3.336 7.772-7.537.065-4.276-3.395-7.775-7.656-7.775Zm-14.062-23.25a2.188 2.188 0 0 1 1.219-2.844l10.937-4.375a2.188 2.188 0 0 1 1.625 4.064c-11.845 4.738-11.146 4.53-11.75 4.53a2.19 2.19 0 0 1-2.031-1.375Zm5.03 9.97a2.188 2.188 0 0 1-1.624-4.063l10.938-4.376a2.188 2.188 0 0 1 1.624 4.064l-10.937 4.375Zm42.938.155c-.571 0-25.836 9.758-25.819 9.75a1.094 1.094 0 0 0-.309 1.86c6.656 5.652 5.274 16.26-2.6 20.03-.588.282-.391 1.171.26 1.172 1.817.004 3.56-.44 5.084-1.235 0 0 30.867-12.638 31.301-13.092 6.609-6.929 1.658-18.485-7.917-18.485Z"/></g><defs><clipPath id="a"><path fill="#fff" d="M0 0h70v70H0z"/></clipPath></defs></svg>