<svg xmlns="http://www.w3.org/2000/svg" width="70" height="70" fill="none"><g clip-path="url(#a)"><path fill="#1DBBBA" d="M64.382 18.018c-.083-1.842-.083-3.6-.083-5.357 0-1.423-1.088-2.511-2.511-2.511-10.464 0-18.416-3.014-25.029-9.46a2.582 2.582 0 0 0-3.516 0c-6.612 6.446-14.565 9.46-25.028 9.46-1.423 0-2.511 1.088-2.511 2.51 0 1.758 0 3.516-.084 5.358-.335 17.578-.837 41.686 28.544 51.815l.837.167.837-.167c29.298-10.129 28.88-34.153 28.544-51.815zm-31.39 24.359c-.502.418-1.088.67-1.757.67h-.084c-.67 0-1.34-.335-1.758-.838l-7.785-8.622 3.767-3.348 6.11 6.78 13.561-12.89 3.432 3.683-15.486 14.565z"/></g><defs><clipPath id="a"><path fill="#fff" d="M0 0h70v70H0z"/></clipPath></defs></svg>