<svg xmlns="http://www.w3.org/2000/svg" width="70" height="70" fill="none"><g fill="#1DBBBA" clip-path="url(#a)"><path d="M28.611 70a10.188 10.188 0 0 1-.347-.282l-2.748-2.334 17.728-17.728c-.422-1.455-.61-3.33-.578-4.812h-1.063l-.05 1.446a8.748 8.748 0 0 1-17.481 0l-.05-1.258-15.04 2.735A10.932 10.932 0 0 0 0 58.527V70h8.75v-8.75a1.094 1.094 0 1 1 2.188 0V70H28.61zm28.781-9.71c-.956 0-1.91-.092-2.85-.277l-2.534 2.534-4.49.642-1.423 4.273-5.462 1.82-.718.718h25.71V58.528c0-.239-.01-.475-.025-.71a14.956 14.956 0 0 1-8.207 2.473z"/><path d="M66.099 36.426a12.579 12.579 0 0 0-20.343 13.811L28.742 67.253l.939.798a8.248 8.248 0 0 0 7.1 1.75l.309-.069 2.362-2.362 4.914-1.638 1.506-4.518 5.106-.73 2.887-2.886a12.65 12.65 0 0 0 12.452-3.171 12.577 12.577 0 0 0-.218-18.001zm-2.529 8.058a3.281 3.281 0 1 1-4.64-4.64 3.281 3.281 0 0 1 4.64 4.64zM22.18 11.738c1.662 0 3.294.446 4.726 1.29l1.665.982.05.034a7.556 7.556 0 0 0 8.383 0l.05-.034 1.665-.982a9.311 9.311 0 0 1 4.726-1.29 9.035 9.035 0 0 1 6.274 2.484 17.157 17.157 0 0 0-29.573-8.636 17.222 17.222 0 0 0-4.24 8.636 9.035 9.035 0 0 1 6.274-2.484z"/><path d="M32.813 42.656a15.065 15.065 0 0 1-14.153-9.908 5.008 5.008 0 0 1-4.058-3.734l-.601-2.406a3.84 3.84 0 0 1 .689-3.335 3.72 3.72 0 0 1 1.646-1.179l-.451-3.273a2.198 2.198 0 0 1 .249-1.354 6.75 6.75 0 0 1 .577-.883c2.139-2.78 6.062-3.455 9.084-1.672l1.613.951a9.746 9.746 0 0 0 10.81 0l1.613-.951c3.021-1.783 6.944-1.109 9.083 1.672.216.279.409.575.578.884.226.413.313.887.25 1.353l-.452 3.274a3.744 3.744 0 0 1 2.357 4.425l-.624 2.494a5.007 5.007 0 0 1-4.057 3.734 15.065 15.065 0 0 1-14.154 9.908z"/></g><defs><clipPath id="a"><path fill="#fff" d="M0 0h70v70H0z"/></clipPath></defs></svg>