<svg width="70" height="70" fill="none" xmlns="http://www.w3.org/2000/svg"><path d="M62.78 28.192C62.78 12.646 50.133 0 34.587 0 19.042 0 6.395 12.646 6.395 28.192c0 15.545 12.647 28.191 28.192 28.191 15.546 0 28.193-12.646 28.193-28.191zM29.562 40.218l-9.626-9.626 2.918-2.917 6.708 6.708L46.32 17.624l2.918 2.918-19.677 19.676zM8.534 47.288L0 59.735l12.618-2.353L14.97 70l7.991-11.656A32.48 32.48 0 018.534 47.288zM60.64 47.288a32.48 32.48 0 01-14.428 11.056L54.204 70l2.353-12.618 12.618 2.353-8.534-12.447z" fill="#1DBBBA"/></svg>