<svg xmlns="http://www.w3.org/2000/svg" width="512" height="512"><g xmlns="http://www.w3.org/2000/svg" fill="#1DBBBA"><path d="M331 376h60v60h-60zm-210 0h120v60H121z" data-original="#000000"/><path d="M0 466c0 24.814 20.186 46 45 46h422c24.814 0 45-21.186 45-46V150H0zm421-15c0 8.291-6.709 15-15 15h-90c-8.291 0-15-6.709-15-15v-90c0-8.291 6.709-15 15-15h90c8.291 0 15 6.709 15 15zM91 211c0-8.291 6.709-15 15-15h300c8.291 0 15 6.709 15 15v90c0 8.291-6.709 15-15 15H106c-8.291 0-15-6.709-15-15zm0 150c0-8.291 6.709-15 15-15h150c8.291 0 15 6.709 15 15v90c0 8.291-6.709 15-15 15H106c-8.291 0-15-6.709-15-15z" data-original="#000000"/><path d="M121 226h270v60H121zM467 0H45C20.186 0 0 20.186 0 45v75h512V45c0-24.814-20.186-45-45-45zM106 75c-8.284 0-15-6.716-15-15 0-8.286 6.716-15 15-15s15 6.714 15 15c0 8.284-6.716 15-15 15zm60 0c-8.284 0-15-6.716-15-15 0-8.286 6.716-15 15-15s15 6.714 15 15c0 8.284-6.716 15-15 15zm60 0c-8.284 0-15-6.716-15-15 0-8.286 6.716-15 15-15s15 6.714 15 15c0 8.284-6.716 15-15 15z" data-original="#000000"/></g></svg>