<svg xmlns="http://www.w3.org/2000/svg" width="512" height="512"><g xmlns="http://www.w3.org/2000/svg" fill="#1DBBBA"><path d="M478.354 0H170.646a7.5 7.5 0 00-7.5 7.5V30h-129.5a7.5 7.5 0 00-7.5 7.5v89.083a7.5 7.5 0 007.5 7.5h320.018l-47.258 71.174a37.42 37.42 0 000 41.486l53.74 80.936V497h-144.5c-20.678 0-37.5-16.822-37.5-37.5v-92a7.5 7.5 0 00-7.5-7.5h-92c-20.678 0-37.5-16.822-37.5-37.5V156.583a7.5 7.5 0 00-15 0V322.5c0 14.474 5.888 27.599 15.394 37.106-.017.017 136.983 137.017 136.983 137.017 9.524 9.489 22.649 15.377 37.123 15.377h152a7.5 7.5 0 007.5-7.5V452h103.207a7.5 7.5 0 007.5-7.5V7.5a7.499 7.499 0 00-7.499-7.5zM78.099 374.986c.183.002.364.014.547.014h84.5v84.5c0 .183.012.364.014.547zM41.146 45h319v74.083h-319zm326.5-15h-189.5V15h255.987a52.689 52.689 0 00-7.017 8.46l-51.97 78.27V37.5a7.5 7.5 0 00-7.5-7.5zm7.5 407v-86.729l51.97 78.271a52.675 52.675 0 007.016 8.459h-58.986zm95.708 0a37.419 37.419 0 01-31.241-16.756l-120.71-181.797a22.454 22.454 0 010-24.892l120.71-181.797A37.415 37.415 0 01470.854 15z" data-original="#000000"/><path d="M93.646 194.083h107a7.5 7.5 0 000-15h-107a7.5 7.5 0 000 15zM93.646 224.083h107a7.5 7.5 0 000-15h-107a7.5 7.5 0 000 15zM93.646 315h214a7.5 7.5 0 000-15h-214a7.5 7.5 0 000 15zM93.646 285h107a7.5 7.5 0 000-15h-107a7.5 7.5 0 000 15zM307.646 437h-107a7.5 7.5 0 000 15h107a7.5 7.5 0 000-15zM93.646 345h214a7.5 7.5 0 000-15h-214a7.5 7.5 0 000 15z" data-original="#000000"/></g></svg>