<svg xmlns="http://www.w3.org/2000/svg" width="512" height="512" viewBox="0 0 300 300"><g xmlns="http://www.w3.org/2000/svg"><path d="M75.489 102.871c.781.781 1.805 1.172 2.828 1.172s2.047-.391 2.828-1.172l3.172-3.172 3.172 3.172c.781.781 1.805 1.172 2.828 1.172s2.047-.391 2.828-1.172a4 4 0 000-5.656l-3.172-3.172 3.172-3.172a4 4 0 10-5.656-5.656l-3.172 3.172-3.172-3.172a4 4 0 10-5.656 5.656l3.172 3.172-3.172 3.172a4 4 0 000 5.656z" fill="#1DBBBA" data-original="#000000"/><circle cx="90.317" cy="60.043" r="4" fill="#1DBBBA" data-original="#000000"/><path d="M140.317 76.043c7.719 0 14-6.281 14-14s-6.281-14-14-14-14 6.281-14 14 6.282 14 14 14zm0-20c3.309 0 6 2.691 6 6s-2.691 6-6 6-6-2.691-6-6 2.692-6 6-6zM171.634 180.992c-2.553-3.672-5.414-7.811-10.346-7.297-5.246.576-7.428 5.85-9.18 10.086-.219.529-.482 1.166-.75 1.771-1.848-3.643-4.027-11.189-5.195-15.229-2.865-9.918-4.025-14.031-8.508-13.432-4.395.584-4.025 5.184-3.729 8.879.363 4.514.971 12.068-2.248 16.15-5.092 6.459-16.143 4.533-27.234 1.453a3326.74 3326.74 0 00-1.514-9.893c-1.268-8.236-2.789-18.125-4.508-30.012-.316-2.188-2.344-3.676-4.531-3.387a4 4 0 00-3.387 4.531c1.723 11.916 3.248 21.828 4.52 30.084.336 2.184.652 4.246.949 6.191-12.275-3.66-23.678-6.701-28.941.869-4.922 7.08-.711 17.404 4.871 24.705 5.799 7.584 14.611 14.168 22.906 14.168 1.646 0 3.273-.26 4.85-.822 7.838-2.791 8.73-8.02 6.029-27.836 12.211 3.064 24.9 4.248 32.271-5.1 1.428-1.809 2.4-3.844 3.053-5.963 2.943 8.986 5.77 14.215 10.553 14.213.057 0 .113 0 .17-.002 4.385-.111 6.182-4.453 7.766-8.283.631-1.523 1.758-4.248 2.6-5.064.764.617 2.068 2.494 2.965 3.783 1.887 2.715 4.234 6.094 7.67 8.736 8.861 6.82 22.188 7.018 40.736.611a4 4 0 002.477-5.086 4.008 4.008 0 00-5.086-2.477c-15.59 5.383-26.775 5.592-33.248.611-2.454-1.882-4.327-4.579-5.981-6.958zm-74.658 31.283c-4.734 1.686-12.779-2.902-18.717-10.67-4.637-6.064-6.596-12.49-4.656-15.279.637-.918 2.016-1.287 3.867-1.287 4.459 0 11.65 2.15 17.783 3.986l2.023.604c2.401 16.625 2.487 21.654-.3 22.646z" fill="#1DBBBA" data-original="#000000"/><path d="M268.103 50.451l-12.742-9.678a3.967 3.967 0 00-2.961-.777 4.001 4.001 0 00-2.645 1.543l-59.62 78.504H43.429c-7.23 0-13.111 5.881-13.111 13.111v113.777c0 7.23 5.881 13.111 13.111 13.111h209.777c7.23 0 13.111-5.881 13.111-13.111V133.154c0-7.23-5.881-13.111-13.111-13.111h-32.932l48.594-63.986a4.003 4.003 0 00-.765-5.606zm-88.305 109.66l-5.605.766-.766-5.605 71.574-94.245 6.371 4.839zM38.317 246.932V133.154c0-2.79 2.252-5.049 5.031-5.095a13.047 13.047 0 00-1.031 5.095v113.777c0 1.806.367 3.528 1.031 5.095-2.779-.045-5.031-2.304-5.031-5.094zm220-113.778v113.777c0 2.79-2.252 5.049-5.031 5.095a13.047 13.047 0 001.031-5.095V133.154c0-1.806-.367-3.528-1.031-5.095 2.78.047 5.031 2.306 5.031 5.095zm-17.111-5.111a5.117 5.117 0 015.111 5.111v113.777a5.117 5.117 0 01-5.111 5.111H55.429a5.117 5.117 0 01-5.111-5.111V133.154a5.117 5.117 0 015.111-5.111H184.06l-18.006 23.709a3.998 3.998 0 00-.777 2.961l1.531 11.209a3.998 3.998 0 004.504 3.422l11.211-1.531a4.006 4.006 0 002.645-1.543l29.031-38.227zm15.005-68.549l-6.371-4.839 3.866-5.091 6.371 4.838z" fill="#1DBBBA" data-original="#000000"/><path d="M66.317 228.043h-8a4 4 0 000 8h8a4 4 0 000-8zM155.771 228.043h-14.908a4 4 0 000 8h14.908a4 4 0 000-8zM96.134 228.043H81.226a4 4 0 000 8h14.908a4 4 0 000-8zM185.589 228.043h-14.908a4 4 0 000 8h14.908a4 4 0 000-8zM200.499 228.043a4 4 0 000 8h14.908a4 4 0 000-8zM125.952 228.043h-14.908a4 4 0 000 8h14.908a4 4 0 000-8zM230.317 236.043h8a4 4 0 000-8h-8a4 4 0 000 8z" fill="#1DBBBA" data-original="#000000"/></g></svg>