<svg width="835" height="146" fill="none" xmlns="http://www.w3.org/2000/svg"><path fill="#fff" stroke="#1DBBBA" stroke-width="2" d="M1 25h90v56H1z"/><path fill="#79E6D6" d="M0 16h92v8H0zM74.5 12H92v4H71l3.5-4z"/><path d="M11.938 63.998L9.76 68.847c-.404.882-.795 1.482-1.172 1.801-.374.316-.785.474-1.23.474-.355 0-.652-.05-.89-.151v-1.109c.284.17.556.254.816.254a.92.92 0 00.635-.263c.195-.176.405-.485.63-.928L6.21 63.998h1.323l1.446 3.32c.029.069.086.238.17.508h.01c.01-.032.072-.202.186-.508l1.362-3.32h1.23zM16.956 71h-1.133v-1.885c-.57.31-1.094.464-1.572.464-1.126 0-1.69-.612-1.69-1.836V66h1.109v1.587c0 .706.277 1.06.83 1.06.41 0 .851-.123 1.323-.367V66h1.133v5zm5.713-2.192h-3.408c.013.462.154.818.424 1.069.274.25.648.376 1.124.376.533 0 1.023-.16 1.47-.479v.913c-.456.287-1.059.43-1.807.43-.736 0-1.314-.226-1.734-.678-.416-.456-.625-1.096-.625-1.92 0-.778.23-1.41.689-1.899a2.264 2.264 0 011.718-.737c.684 0 1.213.22 1.587.659.375.44.562 1.05.562 1.831v.435zm-1.094-.801c-.003-.407-.1-.723-.288-.947-.189-.228-.45-.342-.781-.342-.326 0-.602.119-.83.356-.225.238-.363.549-.415.933h2.314zm5.581-1.104h-1.426V71h-1.137v-4.097h-1.436V66h4v.903zM32.51 71H31.37v-2.188h-2.178V71h-1.137v-5h1.137v1.963h2.178V66h1.138v5zm5.312 0h-1.098v-.781h-.02c-.345.599-.851.898-1.518.898-.492 0-.878-.133-1.158-.4-.276-.267-.415-.62-.415-1.06 0-.944.544-1.494 1.631-1.65l1.484-.21c0-.713-.338-1.07-1.015-1.07-.596 0-1.133.206-1.611.616v-.991c.527-.313 1.136-.47 1.826-.47 1.263 0 1.894.623 1.894 1.866V71zm-1.093-2.456l-1.05.146c-.326.043-.572.123-.738.24-.162.114-.244.315-.244.605 0 .212.075.386.225.523.153.133.356.2.61.2.345 0 .63-.12.855-.361.228-.245.341-.55.341-.919v-.434zM43.06 71h-1.127v-1.978h-.581c-.28 0-.534.251-.762.752L39.994 71H38.71l.791-1.484c.225-.385.495-.638.81-.762-.397-.052-.701-.194-.913-.425-.208-.234-.312-.527-.312-.879 0-.446.177-.799.532-1.06.358-.26.838-.39 1.44-.39h2.002v5zm-1.127-2.759v-1.42h-.782c-.612 0-.918.232-.918.698 0 .481.302.722.904.722h.796zm8.93 2.53c-.4.23-.874.346-1.42.346-.743 0-1.342-.23-1.797-.693-.456-.466-.684-1.068-.684-1.807 0-.823.244-1.484.732-1.982.492-.502 1.148-.752 1.968-.752.456 0 .858.08 1.206.24v1.054c-.348-.26-.72-.39-1.113-.39-.479 0-.87.162-1.177.487-.306.323-.459.746-.459 1.27 0 .517.143.926.43 1.225.29.3.677.45 1.162.45.407 0 .791-.145 1.152-.435v.986zm5.67.229h-1.026v-3.667c-.065.13-.165.31-.298.542L53.104 71h-1.113v-5h1.04v3.594c.036-.085.113-.231.23-.44L55.394 66h1.138v5zm5.063-.23c-.4.232-.874.347-1.421.347-.742 0-1.341-.23-1.797-.693-.456-.466-.684-1.068-.684-1.807 0-.823.244-1.484.733-1.982.491-.502 1.147-.752 1.968-.752.455 0 .857.08 1.206.24v1.054c-.349-.26-.72-.39-1.114-.39-.478 0-.87.162-1.177.487-.305.323-.458.746-.458 1.27 0 .517.143.926.43 1.225.289.3.676.45 1.161.45.407 0 .791-.145 1.153-.435v.986zm4.536-3.867h-1.426V71h-1.138v-4.097h-1.435V66h3.999v.903zm4.966 1.905h-3.409c.014.462.155.818.425 1.069.274.25.648.376 1.123.376a2.47 2.47 0 001.47-.479v.913c-.456.287-1.058.43-1.807.43-.735 0-1.313-.226-1.733-.678-.417-.456-.625-1.096-.625-1.92 0-.778.23-1.41.689-1.899a2.264 2.264 0 011.718-.737c.684 0 1.213.22 1.587.659.374.44.562 1.05.562 1.831v.435zm-1.094-.801c-.003-.407-.1-.723-.288-.947-.189-.228-.45-.342-.781-.342-.326 0-.603.119-.83.356-.225.238-.364.549-.416.933h2.315zM78.06 71h-1.083v-4.004c-.066.202-.165.5-.298.894L75.55 71h-1.006l-1.148-3.12c-.061-.17-.16-.467-.297-.894V71h-.923v-5h1.474l1.148 3.086c.081.225.185.535.312.933l.313-.913L76.547 66h1.514v5zm5.318 0h-1.099v-.781h-.02c-.344.599-.85.898-1.518.898-.491 0-.877-.133-1.157-.4-.277-.267-.415-.62-.415-1.06 0-.944.544-1.494 1.63-1.65l1.485-.21c0-.713-.338-1.07-1.015-1.07-.596 0-1.133.206-1.612.616v-.991c.528-.313 1.136-.47 1.826-.47 1.263 0 1.895.623 1.895 1.866V71zm-1.094-2.456l-1.05.146c-.325.043-.57.123-.737.24-.163.114-.244.315-.244.605 0 .212.075.386.225.523.153.133.356.2.61.2.345 0 .63-.12.854-.361.228-.245.342-.55.342-.919v-.434zM29 33h23v2H29z" fill="#1DBBBA"/><path fill="#C4C4C4" d="M29 40h34v2H29zM29 54h34v2H29zM29 47h34v2H29z"/><path d="M210.061 50.06a1.502 1.502 0 000-2.12l-9.546-9.547a1.5 1.5 0 00-2.122 2.122L206.879 49l-8.486 8.485a1.501 1.501 0 002.122 2.122l9.546-9.546zM128 50.5h81v-3h-81v3zM447.061 50.06a1.502 1.502 0 000-2.12l-9.546-9.547a1.5 1.5 0 00-2.122 2.122L443.879 49l-8.486 8.485a1.501 1.501 0 002.122 2.122l9.546-9.546zM365 50.5h81v-3h-81v3zM673.061 50.06a1.502 1.502 0 000-2.12l-9.546-9.547a1.5 1.5 0 00-2.122 2.122L669.879 49l-8.486 8.485a1.501 1.501 0 002.122 2.122l9.546-9.546zM591 50.5h81v-3h-81v3z" fill="#1DBBBA"/><path fill="#fff" stroke="#1DBBBA" stroke-width="2" d="M475 1h88v88h-88z"/><path d="M515.989 26.998c0-.551.447-.998.998-.998h5.986c1.102 0 1.996.893 1.996 1.995h-7.982a.998.998 0 01-.998-.997z" fill="#1DBBBA"/><rect x="512.33" y="31.321" width="7.982" height="1.995" rx=".998" fill="#1DBBBA"/><path fill="#1DBBBA" d="M522.973 40.966v-12.97h1.995v12.97zM511.333 42.961c0-1.102.893-1.995 1.995-1.995h12.306c1.102 0 1.995.893 1.995 1.995h-16.296z"/><rect x="512.33" y="35.645" width="7.982" height="1.995" rx=".998" fill="#1DBBBA"/><rect x="512.255" y="46.166" width="4.849" height="1.995" rx=".998" transform="rotate(-105 512.255 46.166)" fill="#1DBBBA"/><rect width="4.849" height="1.995" rx=".998" transform="scale(1 -1) rotate(75 293.364 320.032)" fill="#1DBBBA"/><path d="M500.162 61h-1.514l-2.436-3.203a1.73 1.73 0 01-.166-.244h-.02V61h-1.162v-7.002h1.162v3.291h.02c.039-.072.094-.151.166-.24l2.349-3.051h1.391l-2.749 3.36L500.162 61zm2.788.117c-.771 0-1.388-.233-1.85-.698-.459-.469-.689-1.089-.689-1.86 0-.84.239-1.496.718-1.968.482-.472 1.129-.708 1.943-.708.782 0 1.39.23 1.826.688.437.46.655 1.096.655 1.91 0 .797-.236 1.437-.708 1.918-.469.479-1.101.718-1.895.718zm.054-4.33c-.443 0-.793.154-1.05.463-.257.31-.386.736-.386 1.28 0 .523.131.937.391 1.24.26.299.609.449 1.045.449.446 0 .788-.148 1.025-.445.241-.296.362-.717.362-1.264 0-.55-.121-.975-.362-1.275-.237-.3-.579-.449-1.025-.449zM511.163 61h-1.138v-2.188h-2.177V61h-1.138v-5h1.138v1.963h2.177V56h1.138v5zm5.928 0h-1.138v-2.188h-2.178V61h-1.137v-5h1.137v1.963h2.178V56h1.138v5zm5.708-2.192h-3.408c.013.462.154.818.424 1.069.274.25.648.376 1.123.376.534 0 1.024-.16 1.47-.479v.913c-.456.287-1.058.43-1.806.43-.736 0-1.314-.226-1.734-.678-.417-.456-.625-1.096-.625-1.92 0-.777.23-1.41.689-1.899a2.263 2.263 0 011.718-.737c.684 0 1.213.22 1.587.659.375.44.562 1.05.562 1.831v.435zm-1.094-.801c-.003-.407-.099-.723-.288-.947-.189-.228-.449-.342-.781-.342-.326 0-.602.119-.83.356-.225.238-.363.549-.415.933h2.314zM528.419 61h-1.44l-1.944-2.437h-.019V61h-1.138v-5h1.138v2.3h.019l1.836-2.3h1.387l-2.08 2.383L528.419 61zm4.121-4.097h-1.426V61h-1.137v-4.097h-1.436V56h3.999v.903zm2.949 4.214c-.771 0-1.388-.233-1.85-.698-.459-.469-.689-1.089-.689-1.86 0-.84.239-1.496.718-1.968.482-.472 1.13-.708 1.943-.708.782 0 1.39.23 1.827.688.436.46.654 1.096.654 1.91 0 .797-.236 1.437-.708 1.918-.469.479-1.1.718-1.895.718zm.054-4.33c-.443 0-.793.154-1.05.463-.257.31-.386.736-.386 1.28 0 .523.131.937.391 1.24.26.299.609.449 1.045.449.446 0 .788-.148 1.025-.445.241-.296.362-.717.362-1.264 0-.55-.121-.975-.362-1.275-.237-.3-.579-.449-1.025-.449zm4.858 3.476h-.019V63.3h-1.133V56h1.133v.879h.019c.388-.664.954-.996 1.7-.996.634 0 1.129.223 1.484.669.355.446.532 1.045.532 1.797 0 .833-.2 1.5-.6 2.002-.401.5-.948.752-1.641.752-.638 0-1.13-.28-1.475-.84zm-.029-1.973v.62c0 .365.116.674.347.928.234.254.53.38.888.38.42 0 .749-.162.987-.488.241-.328.361-.786.361-1.372 0-.491-.112-.875-.337-1.152-.221-.28-.522-.42-.903-.42-.404 0-.729.143-.977.43-.244.286-.366.644-.366 1.074z" fill="#1DBBBA"/><path fill="#79E5D6" d="M246 11h92v67h-92z"/><path fill="#fff" stroke="#1DBBBA" stroke-width="2" d="M247 16h90v65h-90zM247 8h27.511l5.444 7H247V8z"/><path d="M248 12h28.338l7.08 9H248v-9z" fill="#fff"/><path fill="#1DBBBA" d="M289 38h6v6h-6zM275 54h6v6h-6zM303 54h6v6h-6zM289 54h6v6h-6z"/><path stroke="#1DBBBA" stroke-width="2" d="M279 47h26M278 46v6M292 46v6M306 46v6"/><path d="M1.469 121v-11.203h3.187c.969 0 1.737.237 2.305.711.568.474.851 1.091.851 1.851 0 .636-.171 1.188-.515 1.657-.344.468-.818.802-1.422 1v.031c.755.088 1.36.375 1.813.859.453.479.68 1.104.68 1.875 0 .959-.345 1.735-1.032 2.328-.688.594-1.555.891-2.602.891H1.47zm1.312-10.016v3.618h1.344c.719 0 1.284-.172 1.695-.516.412-.349.617-.839.617-1.469 0-1.088-.716-1.633-2.148-1.633H2.781zm0 4.797v4.031h1.781c.771 0 1.368-.182 1.79-.546.427-.365.64-.865.64-1.5 0-1.323-.9-1.985-2.703-1.985H2.781zM19.22 121h-1.266v-8h1.266v8zm-8.75 0v-8h1.281v3.07h2.156c.818 0 1.466.214 1.946.641.484.427.726 1.023.726 1.789 0 .771-.242 1.38-.726 1.828-.485.448-1.097.672-1.836.672h-3.547zm1.281-3.828v2.734h1.922c1.062 0 1.594-.468 1.594-1.406 0-.885-.537-1.328-1.61-1.328H11.75zM26.219 121v-8h3.484c.787 0 1.406.174 1.86.523.458.349.687.826.687 1.43 0 1.037-.51 1.667-1.531 1.891 1.224.156 1.836.773 1.836 1.851 0 .651-.253 1.198-.758 1.641-.5.443-1.123.664-1.867.664h-3.711zm1.281-6.906v2.25h1.922c1.031 0 1.547-.401 1.547-1.203 0-.698-.464-1.047-1.39-1.047H27.5zm0 3.344v2.468h2.219c1.036 0 1.554-.419 1.554-1.258 0-.807-.58-1.21-1.742-1.21H27.5zM43.453 121h-1.266v-8h1.266v8zm-8.75 0v-8h1.281v3.07h2.157c.817 0 1.466.214 1.945.641.484.427.727 1.023.727 1.789 0 .771-.243 1.38-.727 1.828-.484.448-1.096.672-1.836.672h-3.547zm1.281-3.828v2.734h1.922c1.063 0 1.594-.468 1.594-1.406 0-.885-.536-1.328-1.61-1.328h-1.906zm14.524-3.078h-3.164V121h-1.282v-8h4.446v1.094zm2.992 5.75h-.031v4.836h-1.282V113h1.282v1.406h.031c.63-1.062 1.552-1.594 2.766-1.594 1.03 0 1.836.36 2.414 1.079.578.713.867 1.671.867 2.875 0 1.338-.326 2.411-.977 3.218-.65.802-1.541 1.204-2.672 1.204-1.036 0-1.836-.448-2.398-1.344zm-.031-3.227v1.117c0 .662.213 1.224.64 1.688.433.458.98.687 1.641.687.776 0 1.383-.297 1.82-.89.443-.594.664-1.42.664-2.477 0-.89-.205-1.588-.617-2.094-.411-.505-.969-.757-1.672-.757-.745 0-1.343.26-1.797.781-.453.516-.68 1.164-.68 1.945zM67.96 113l-3.68 9.281c-.656 1.657-1.578 2.485-2.765 2.485a2.92 2.92 0 01-.836-.102v-1.148c.276.093.528.14.758.14.645 0 1.13-.385 1.453-1.156l.64-1.516L60.406 113h1.422l2.164 6.156c.026.078.08.282.164.61h.047c.026-.125.078-.323.156-.594L66.633 113h1.328zm12.008 8h-1.735l-3.578-3.953h-.031V121h-1.219v-3.953h-.031L69.789 121h-1.71l3.968-4.125L68.32 113h1.633l3.422 3.742h.031V113h1.219v3.742h.031L78.078 113h1.649l-3.743 3.875L79.97 121zm7.039 0h-1.281v-1.25h-.032c-.557.958-1.377 1.438-2.46 1.438-.797 0-1.422-.211-1.876-.633-.447-.422-.671-.982-.671-1.68 0-1.495.88-2.365 2.64-2.609l2.399-.336c0-1.36-.55-2.039-1.649-2.039-.963 0-1.833.328-2.61.984v-1.313c.787-.5 1.694-.75 2.72-.75 1.88 0 2.82.995 2.82 2.985V121zm-1.281-4.047l-1.93.266c-.594.083-1.042.232-1.344.445-.302.208-.453.581-.453 1.117 0 .391.138.711.414.961.281.245.654.367 1.117.367.636 0 1.16-.221 1.57-.664.417-.448.626-1.013.626-1.695v-.797zm10.125.367h-5.649c.021.891.26 1.578.719 2.063.458.484 1.088.726 1.89.726.901 0 1.73-.297 2.485-.89v1.203c-.703.51-1.633.766-2.79.766-1.13 0-2.017-.362-2.663-1.086-.646-.73-.969-1.753-.969-3.071 0-1.245.352-2.258 1.055-3.039.708-.786 1.586-1.18 2.632-1.18 1.047 0 1.857.339 2.43 1.016.573.677.86 1.617.86 2.82v.672zm-1.313-1.086c-.005-.739-.185-1.315-.539-1.726-.349-.412-.836-.617-1.46-.617a2.07 2.07 0 00-1.54.648c-.422.432-.682.997-.781 1.695h4.32zm8.281-2.14h-2.398V121h-1.281v-6.906h-2.407V113h6.086v1.094zm7.969 3.226h-5.648c.02.891.26 1.578.718 2.063.459.484 1.089.726 1.891.726.901 0 1.729-.297 2.484-.89v1.203c-.703.51-1.632.766-2.789.766-1.13 0-2.018-.362-2.664-1.086-.646-.73-.969-1.753-.969-3.071 0-1.245.352-2.258 1.055-3.039.709-.786 1.586-1.18 2.633-1.18s1.857.339 2.43 1.016c.573.677.859 1.617.859 2.82v.672zm-1.312-1.086c-.006-.739-.185-1.315-.539-1.726-.349-.412-.836-.617-1.461-.617-.605 0-1.118.216-1.539.648-.422.432-.683.997-.782 1.695h4.321zm14.625 7.68h-1.086V121h-5.954v2.914h-1.093v-4h.711c1.364-1.969 2.057-4.273 2.078-6.914h4.156v6.914h1.188v4zm-2.469-4v-5.828h-1.774c-.14 2.156-.747 4.099-1.82 5.828h3.594zm7.586 1.274c-1.183 0-2.128-.373-2.836-1.118-.703-.75-1.055-1.742-1.055-2.976 0-1.344.367-2.393 1.102-3.149.734-.755 1.726-1.133 2.976-1.133 1.193 0 2.123.368 2.789 1.102.672.734 1.008 1.753 1.008 3.055 0 1.276-.362 2.299-1.086 3.07-.719.766-1.685 1.149-2.898 1.149zm.093-7.297c-.822 0-1.473.281-1.953.843-.479.558-.718 1.328-.718 2.313 0 .948.242 1.695.726 2.242.485.547 1.133.82 1.945.82.829 0 1.464-.268 1.907-.804.448-.537.672-1.3.672-2.289 0-1-.224-1.771-.672-2.313-.443-.542-1.078-.812-1.907-.812zM141.891 121h-1.797l-3.532-3.844h-.031V121h-1.281v-8h1.281v3.664h.031l3.36-3.664h1.68l-3.711 3.859 4 4.141zm7.679-8l-3.679 9.281c-.657 1.657-1.579 2.485-2.766 2.485-.333 0-.612-.034-.836-.102v-1.148c.276.093.529.14.758.14.646 0 1.13-.385 1.453-1.156l.641-1.516-3.125-7.984h1.422l2.164 6.156c.026.078.08.282.164.61h.046c.027-.125.079-.323.157-.594l2.273-6.172h1.328zm10.024 8h-1.266v-6.594c-.114.334-.292.823-.531 1.469l-2 5.125h-1.149l-2.062-5.125a42.639 42.639 0 01-.531-1.469V121h-1.102v-8h1.633l2.109 5.219c.151.38.344.906.578 1.578l.571-1.547 2.047-5.25h1.703v8zm9.023-3.68h-5.648c.021.891.26 1.578.719 2.063.458.484 1.088.726 1.89.726.901 0 1.729-.297 2.484-.89v1.203c-.703.51-1.632.766-2.789.766-1.13 0-2.018-.362-2.664-1.086-.645-.73-.968-1.753-.968-3.071 0-1.245.351-2.258 1.054-3.039.709-.786 1.586-1.18 2.633-1.18s1.857.339 2.43 1.016c.573.677.859 1.617.859 2.82v.672zm-1.312-1.086c-.006-.739-.185-1.315-.539-1.726-.349-.412-.836-.617-1.461-.617a2.07 2.07 0 00-1.539.648c-.422.432-.683.997-.782 1.695h4.321zm9.898 4.766h-1.281v-3.633h-4.078V121h-1.282v-8h1.282v3.281h4.078V113h1.281v8zm7.617-6.906h-2.398V121h-1.281v-6.906h-2.407V113h6.086v1.094zM195.109 121h-1.265v-8h1.265v8zm-8.75 0v-8h1.282v3.07h2.156c.818 0 1.466.214 1.945.641.485.427.727 1.023.727 1.789 0 .771-.242 1.38-.727 1.828-.484.448-1.096.672-1.836.672h-3.547zm1.282-3.828v2.734h1.921c1.063 0 1.594-.468 1.594-1.406 0-.885-.536-1.328-1.609-1.328h-1.906zM208.812 121h-1.156v-6.383c-.114.224-.289.539-.523.945L203.438 121h-1.329v-8h1.172v6.305c.063-.151.198-.409.407-.774l3.796-5.531h1.328v8zm1.922-.227v-1.257c.698.39 1.513.586 2.446.586 1.411 0 2.117-.448 2.117-1.344 0-.886-.774-1.328-2.32-1.328h-.789v-1.086h.75c1.359 0 2.039-.422 2.039-1.266 0-.359-.157-.646-.469-.859-.313-.214-.74-.321-1.281-.321-.776 0-1.555.196-2.336.586v-1.195c.885-.323 1.698-.484 2.437-.484 1.948 0 2.922.716 2.922 2.148 0 .464-.146.865-.438 1.203-.286.334-.69.555-1.21.664v.039c.593.047 1.07.248 1.429.602.36.354.539.802.539 1.344 0 .729-.294 1.31-.882 1.742-.589.432-1.399.648-2.43.648-1.099 0-1.94-.14-2.524-.422zM229.305 113l-3.68 9.281c-.656 1.657-1.578 2.485-2.766 2.485-.333 0-.612-.034-.836-.102v-1.148c.276.093.529.14.758.14.646 0 1.13-.385 1.453-1.156l.641-1.516L221.75 113h1.422l2.164 6.156c.026.078.081.282.164.61h.047c.026-.125.078-.323.156-.594l2.274-6.172h1.328zm7.828 8h-1.274v-3.219c-.937.511-1.802.766-2.593.766-1.792 0-2.688-.948-2.688-2.844V113h1.281v2.641c0 1.171.506 1.757 1.516 1.757.771 0 1.599-.224 2.484-.671V113h1.274v8zm9.031-3.68h-5.648c.02.891.26 1.578.718 2.063.459.484 1.089.726 1.891.726.901 0 1.729-.297 2.484-.89v1.203c-.703.51-1.632.766-2.789.766-1.13 0-2.018-.362-2.664-1.086-.646-.73-.968-1.753-.968-3.071 0-1.245.351-2.258 1.054-3.039.709-.786 1.586-1.18 2.633-1.18s1.857.339 2.43 1.016c.573.677.859 1.617.859 2.82v.672zm-1.312-1.086c-.006-.739-.185-1.315-.54-1.726-.348-.412-.835-.617-1.46-.617-.605 0-1.118.216-1.54.648-.421.432-.682.997-.781 1.695h4.321zm8.281-2.14h-2.399V121h-1.281v-6.906h-2.406V113h6.086v1.094zm8.179 6.906h-1.281v-3.633h-4.078V121h-1.281v-8h1.281v3.281h4.078V113h1.281v8zm5.938.188c-1.182 0-2.128-.373-2.836-1.118-.703-.75-1.055-1.742-1.055-2.976 0-1.344.368-2.393 1.102-3.149.734-.755 1.727-1.133 2.977-1.133 1.192 0 2.122.368 2.789 1.102.671.734 1.007 1.753 1.007 3.055 0 1.276-.362 2.299-1.086 3.07-.718.766-1.684 1.149-2.898 1.149zm.094-7.297c-.823 0-1.474.281-1.953.843-.48.558-.719 1.328-.719 2.313 0 .948.242 1.695.726 2.242.485.547 1.133.82 1.946.82.828 0 1.463-.268 1.906-.804.448-.537.672-1.3.672-2.289 0-1-.224-1.771-.672-2.313-.443-.542-1.078-.812-1.906-.812zm12.64 7.109h-1.156v-6.383c-.114.224-.289.539-.523.945L274.609 121h-1.328v-8h1.172v6.305a8.36 8.36 0 01.406-.774l3.797-5.531h1.328v8zm-.468-11.891c-.078.735-.375 1.315-.891 1.743-.51.421-1.151.632-1.922.632-.792 0-1.437-.211-1.937-.632-.495-.428-.766-1.008-.813-1.743h1.266c.073.98.573 1.469 1.5 1.469.416 0 .76-.127 1.031-.383.271-.26.438-.622.5-1.086h1.266zm12.906 11.524c-.615.37-1.344.555-2.188.555-1.14 0-2.062-.37-2.765-1.11-.698-.745-1.047-1.708-1.047-2.89 0-1.318.377-2.376 1.133-3.172.755-.802 1.763-1.204 3.023-1.204.703 0 1.323.131 1.86.391v1.313c-.594-.417-1.23-.625-1.907-.625-.817 0-1.489.294-2.015.882-.521.584-.782 1.352-.782 2.305 0 .938.245 1.677.735 2.219.495.542 1.156.812 1.984.812.698 0 1.354-.231 1.969-.695v1.219zm8.64.367h-1.156v-6.383c-.114.224-.289.539-.523.945L295.688 121h-1.329v-8h1.172v6.305c.063-.151.198-.409.407-.774l3.796-5.531h1.328v8zm8.047-.367c-.614.37-1.343.555-2.187.555-1.141 0-2.063-.37-2.766-1.11-.698-.745-1.047-1.708-1.047-2.89 0-1.318.378-2.376 1.133-3.172.755-.802 1.763-1.204 3.024-1.204.703 0 1.323.131 1.859.391v1.313c-.594-.417-1.229-.625-1.906-.625-.818 0-1.49.294-2.016.882-.521.584-.781 1.352-.781 2.305 0 .938.245 1.677.734 2.219.495.542 1.156.812 1.985.812.698 0 1.354-.231 1.968-.695v1.219zm6.961-6.539h-2.398V121h-1.281v-6.906h-2.407V113h6.086v1.094zm7.969 3.226h-5.648c.02.891.26 1.578.718 2.063.459.484 1.089.726 1.891.726.901 0 1.729-.297 2.484-.89v1.203c-.703.51-1.632.766-2.789.766-1.13 0-2.018-.362-2.664-1.086-.646-.73-.969-1.753-.969-3.071 0-1.245.352-2.258 1.055-3.039.709-.786 1.586-1.18 2.633-1.18s1.857.339 2.43 1.016c.573.677.859 1.617.859 2.82v.672zm-1.312-1.086c-.006-.739-.185-1.315-.539-1.726-.349-.412-.836-.617-1.461-.617-.605 0-1.118.216-1.539.648-.422.432-.683.997-.782 1.695h4.321zM334.625 121h-1.266v-6.594c-.114.334-.291.823-.531 1.469l-2 5.125h-1.148l-2.063-5.125a44.959 44.959 0 01-.531-1.469V121h-1.102v-8h1.633l2.11 5.219c.151.38.343.906.578 1.578l.57-1.547 2.047-5.25h1.703v8zm11.344 0h-1.266v-8h1.266v8zm-8.75 0v-8h1.281v3.07h2.156c.818 0 1.466.214 1.946.641.484.427.726 1.023.726 1.789 0 .771-.242 1.38-.726 1.828-.485.448-1.097.672-1.836.672h-3.547zm1.281-3.828v2.734h1.922c1.062 0 1.594-.468 1.594-1.406 0-.885-.537-1.328-1.61-1.328H338.5zM1.297 142v-8H4.78c.787 0 1.407.174 1.86.523.458.349.687.826.687 1.43 0 1.037-.51 1.667-1.531 1.891 1.224.156 1.836.773 1.836 1.851 0 .651-.253 1.198-.758 1.641-.5.443-1.122.664-1.867.664H1.297zm1.281-6.906v2.25H4.5c1.031 0 1.547-.401 1.547-1.203 0-.698-.464-1.047-1.39-1.047H2.577zm0 3.344v2.468h2.219c1.036 0 1.555-.419 1.555-1.258 0-.807-.581-1.21-1.743-1.21H2.58zm10.922 3.335v-1.257c.698.39 1.513.586 2.445.586 1.412 0 2.117-.448 2.117-1.344 0-.886-.773-1.328-2.32-1.328h-.789v-1.086h.75c1.36 0 2.04-.422 2.04-1.266 0-.359-.157-.646-.47-.859-.312-.214-.74-.321-1.28-.321-.777 0-1.556.196-2.337.586v-1.195c.886-.323 1.698-.484 2.438-.484 1.948 0 2.922.716 2.922 2.148 0 .464-.146.865-.438 1.203-.286.334-.69.555-1.21.664v.039c.593.047 1.07.248 1.429.602.36.354.539.802.539 1.344 0 .729-.294 1.31-.883 1.742-.588.432-1.398.648-2.43.648-1.098 0-1.94-.14-2.523-.422zm13.54.227h-1.282v-1.25h-.031c-.558.958-1.378 1.438-2.461 1.438-.797 0-1.422-.211-1.875-.633-.448-.422-.672-.982-.672-1.68 0-1.495.88-2.365 2.64-2.609l2.399-.336c0-1.36-.55-2.039-1.649-2.039-.963 0-1.833.328-2.609.984v-1.313c.787-.5 1.693-.75 2.719-.75 1.88 0 2.82.995 2.82 2.985V142zm-1.282-4.047l-1.93.266c-.594.083-1.041.232-1.344.445-.302.208-.453.581-.453 1.117 0 .391.138.711.414.961.282.245.654.367 1.117.367.636 0 1.16-.221 1.57-.664.417-.448.626-1.013.626-1.695v-.797zm10.672 6.961h-1.086V142H29.39v2.914h-1.094v-4h.71c1.365-1.969 2.058-4.273 2.079-6.914h4.156v6.914h1.188v4zm-2.47-4v-5.828h-1.773c-.14 2.156-.747 4.099-1.82 5.828h3.594zM43.93 142h-1.282v-1.25h-.03c-.558.958-1.378 1.438-2.462 1.438-.797 0-1.422-.211-1.875-.633-.448-.422-.672-.982-.672-1.68 0-1.495.88-2.365 2.641-2.609l2.398-.336c0-1.36-.549-2.039-1.648-2.039-.964 0-1.833.328-2.61.984v-1.313c.787-.5 1.693-.75 2.72-.75 1.88 0 2.82.995 2.82 2.985V142zm-1.282-4.047l-1.93.266c-.593.083-1.04.232-1.343.445-.302.208-.453.581-.453 1.117 0 .391.138.711.414.961.281.245.654.367 1.117.367.636 0 1.159-.221 1.57-.664.417-.448.625-1.013.625-1.695v-.797zM52.984 142h-1.28v-3.633h-4.079V142h-1.281v-8h1.281v3.281h4.078V134h1.281v8zm9.235 0h-1.282v-3.633H56.86V142h-1.28v-8h1.28v3.281h4.078V134h1.282v8zm8.96-8l-3.679 9.281c-.656 1.657-1.578 2.485-2.766 2.485a2.92 2.92 0 01-.836-.102v-1.148c.276.093.53.14.758.14.646 0 1.13-.385 1.453-1.156l.641-1.516L63.625 134h1.422l2.164 6.156c.026.078.08.282.164.61h.047a9.15 9.15 0 01.156-.594L69.852 134h1.328zm4.93 4.367h-2.265V142h-1.281v-8h1.28v3.281h2.282c.135-1.093.537-1.945 1.203-2.554.672-.61 1.531-.915 2.578-.915 1.14 0 2.024.36 2.649 1.079.63.718.945 1.744.945 3.078 0 1.297-.336 2.325-1.008 3.086-.672.755-1.596 1.133-2.773 1.133-1.11 0-1.977-.334-2.602-1-.62-.672-.956-1.612-1.008-2.821zm3.688-3.476c-1.594 0-2.39 1.041-2.39 3.125 0 2.062.806 3.093 2.421 3.093 1.578 0 2.367-1.031 2.367-3.093 0-2.084-.8-3.125-2.398-3.125zM96.609 142h-1.28v-6.906H91.25V142h-1.281v-8h6.64v8zm8.321 0h-1.282v-1.25h-.031c-.557.958-1.377 1.438-2.461 1.438-.797 0-1.422-.211-1.875-.633-.448-.422-.672-.982-.672-1.68 0-1.495.88-2.365 2.641-2.609l2.398-.336c0-1.36-.549-2.039-1.648-2.039-.964 0-1.833.328-2.61.984v-1.313c.787-.5 1.693-.75 2.719-.75 1.881 0 2.821.995 2.821 2.985V142zm-1.282-4.047l-1.929.266c-.594.083-1.042.232-1.344.445-.302.208-.453.581-.453 1.117 0 .391.138.711.414.961.281.245.654.367 1.117.367.636 0 1.159-.221 1.57-.664.417-.448.625-1.013.625-1.695v-.797zM113.984 142h-1.281v-6.906h-4.078V142h-1.281v-8h6.64v8zm9.235 0h-1.797l-3.531-3.844h-.032V142h-1.281v-8h1.281v3.664h.032L121.25 134h1.68l-3.711 3.859 4 4.141zm7.679-8l-3.679 9.281c-.657 1.657-1.578 2.485-2.766 2.485-.333 0-.612-.034-.836-.102v-1.148c.276.093.529.14.758.14.646 0 1.13-.385 1.453-1.156l.641-1.516-3.125-7.984h1.422l2.164 6.156c.026.078.08.282.164.61h.047c.026-.125.078-.323.156-.594L129.57 134h1.328zM483.266 121h-1.828l-4.329-5.125a3.232 3.232 0 01-.297-.391h-.031V121h-1.312v-11.203h1.312v5.265h.031c.073-.114.172-.242.297-.382l4.188-4.883h1.633l-4.805 5.375 5.141 5.828zm4.656.188c-1.182 0-2.128-.373-2.836-1.118-.703-.75-1.055-1.742-1.055-2.976 0-1.344.367-2.393 1.102-3.149.734-.755 1.726-1.133 2.976-1.133 1.193 0 2.123.368 2.789 1.102.672.734 1.008 1.753 1.008 3.055 0 1.276-.362 2.299-1.086 3.07-.718.766-1.685 1.149-2.898 1.149zm.094-7.297c-.823 0-1.474.281-1.954.843-.479.558-.718 1.328-.718 2.313 0 .948.242 1.695.726 2.242.485.547 1.133.82 1.946.82.828 0 1.463-.268 1.906-.804.448-.537.672-1.3.672-2.289 0-1-.224-1.771-.672-2.313-.443-.542-1.078-.812-1.906-.812zM500.594 121h-1.282v-3.633h-4.078V121h-1.281v-8h1.281v3.281h4.078V113h1.282v8zm9.234 0h-1.281v-3.633h-4.078V121h-1.281v-8h1.281v3.281h4.078V113h1.281v8zm9.024-3.68h-5.649c.021.891.261 1.578.719 2.063.458.484 1.088.726 1.89.726.902 0 1.73-.297 2.485-.89v1.203c-.703.51-1.633.766-2.789.766-1.13 0-2.018-.362-2.664-1.086-.646-.73-.969-1.753-.969-3.071 0-1.245.352-2.258 1.055-3.039.708-.786 1.586-1.18 2.632-1.18 1.047 0 1.857.339 2.43 1.016.573.677.86 1.617.86 2.82v.672zm-1.313-1.086c-.005-.739-.185-1.315-.539-1.726-.349-.412-.836-.617-1.461-.617a2.07 2.07 0 00-1.539.648c-.422.432-.682.997-.781 1.695h4.32zm9.899 4.766h-1.797l-3.532-3.844h-.031V121h-1.281v-8h1.281v3.664h.031l3.36-3.664h1.679l-3.71 3.859 4 4.141zm6.335-6.906h-2.398V121h-1.281v-6.906h-2.406V113h6.085v1.094zm4.883 7.094c-1.182 0-2.127-.373-2.836-1.118-.703-.75-1.054-1.742-1.054-2.976 0-1.344.367-2.393 1.101-3.149.735-.755 1.727-1.133 2.977-1.133 1.192 0 2.122.368 2.789 1.102.672.734 1.008 1.753 1.008 3.055 0 1.276-.362 2.299-1.086 3.07-.719.766-1.685 1.149-2.899 1.149zm.094-7.297c-.823 0-1.474.281-1.953.843-.479.558-.719 1.328-.719 2.313 0 .948.242 1.695.727 2.242.484.547 1.133.82 1.945.82.828 0 1.464-.268 1.906-.804.448-.537.672-1.3.672-2.289 0-1-.224-1.771-.672-2.313-.442-.542-1.078-.812-1.906-.812zm7.25 5.953h-.031v4.836h-1.281V113h1.281v1.406H546c.63-1.062 1.552-1.594 2.766-1.594 1.031 0 1.836.36 2.414 1.079.578.713.867 1.671.867 2.875 0 1.338-.326 2.411-.977 3.218-.651.802-1.541 1.204-2.672 1.204-1.036 0-1.836-.448-2.398-1.344zm-.031-3.227v1.117c0 .662.213 1.224.64 1.688.433.458.98.687 1.641.687.776 0 1.383-.297 1.82-.89.443-.594.664-1.42.664-2.477 0-.89-.205-1.588-.617-2.094-.411-.505-.969-.757-1.672-.757-.744 0-1.343.26-1.797.781-.453.516-.679 1.164-.679 1.945zM565.125 121h-1.281v-6.906h-4.078V121h-1.282v-8h6.641v8zm5.937.188c-1.182 0-2.127-.373-2.835-1.118-.704-.75-1.055-1.742-1.055-2.976 0-1.344.367-2.393 1.101-3.149.735-.755 1.727-1.133 2.977-1.133 1.193 0 2.122.368 2.789 1.102.672.734 1.008 1.753 1.008 3.055 0 1.276-.362 2.299-1.086 3.07-.719.766-1.685 1.149-2.899 1.149zm.094-7.297c-.823 0-1.474.281-1.953.843-.479.558-.719 1.328-.719 2.313 0 .948.243 1.695.727 2.242.484.547 1.133.82 1.945.82.828 0 1.464-.268 1.906-.804.448-.537.672-1.3.672-2.289 0-1-.224-1.771-.672-2.313-.442-.542-1.078-.812-1.906-.812zm12.914 10.023h-1.086V121h-5.953v2.914h-1.093v-4h.71c1.365-1.969 2.058-4.273 2.079-6.914h4.156v6.914h1.187v4zm-2.468-4v-5.828h-1.774c-.14 2.156-.747 4.099-1.82 5.828h3.594zM592.484 121h-1.281v-6.906h-4.078V121h-1.281v-8h6.64v8zm9.297 0h-1.156v-6.383c-.115.224-.289.539-.523.945L596.406 121h-1.328v-8h1.172v6.305c.062-.151.198-.409.406-.774l3.797-5.531h1.328v8zm8.047-.367c-.614.37-1.344.555-2.187.555-1.141 0-2.063-.37-2.766-1.11-.698-.745-1.047-1.708-1.047-2.89 0-1.318.378-2.376 1.133-3.172.755-.802 1.763-1.204 3.023-1.204.704 0 1.323.131 1.86.391v1.313c-.594-.417-1.229-.625-1.906-.625-.818 0-1.49.294-2.016.882-.521.584-.781 1.352-.781 2.305 0 .938.244 1.677.734 2.219.495.542 1.156.812 1.984.812.698 0 1.355-.231 1.969-.695v1.219zm10.688.367h-1.266v-8h1.266v8zm-8.75 0v-8h1.281v3.07h2.156c.818 0 1.466.214 1.945.641.485.427.727 1.023.727 1.789 0 .771-.242 1.38-.727 1.828-.484.448-1.096.672-1.836.672h-3.546zm1.281-3.828v2.734h1.922c1.062 0 1.593-.468 1.593-1.406 0-.885-.536-1.328-1.609-1.328h-1.906zM623.125 121v-8h3.484c.787 0 1.407.174 1.86.523.458.349.687.826.687 1.43 0 1.037-.51 1.667-1.531 1.891 1.224.156 1.836.773 1.836 1.851 0 .651-.253 1.198-.758 1.641-.5.443-1.122.664-1.867.664h-3.711zm1.281-6.906v2.25h1.922c1.031 0 1.547-.401 1.547-1.203 0-.698-.464-1.047-1.391-1.047h-2.078zm0 3.344v2.468h2.219c1.036 0 1.555-.419 1.555-1.258 0-.807-.581-1.21-1.742-1.21h-2.032zm12.93 3.562h-1.281v-1.25h-.032c-.557.958-1.377 1.438-2.461 1.438-.796 0-1.421-.211-1.874-.633-.448-.422-.672-.982-.672-1.68 0-1.495.88-2.365 2.64-2.609l2.399-.336c0-1.36-.55-2.039-1.649-2.039-.963 0-1.833.328-2.609.984v-1.313c.786-.5 1.693-.75 2.719-.75 1.88 0 2.82.995 2.82 2.985V121zm-1.281-4.047l-1.93.266c-.594.083-1.042.232-1.344.445-.302.208-.453.581-.453 1.117 0 .391.138.711.414.961.281.245.654.367 1.117.367.636 0 1.159-.221 1.571-.664.416-.448.625-1.013.625-1.695v-.797zm10.125.367h-5.649c.021.891.261 1.578.719 2.063.458.484 1.089.726 1.891.726.901 0 1.729-.297 2.484-.89v1.203c-.703.51-1.633.766-2.789.766-1.13 0-2.018-.362-2.664-1.086-.646-.73-.969-1.753-.969-3.071 0-1.245.352-2.258 1.055-3.039.708-.786 1.586-1.18 2.633-1.18s1.856.339 2.429 1.016c.573.677.86 1.617.86 2.82v.672zm-1.313-1.086c-.005-.739-.185-1.315-.539-1.726-.349-.412-.836-.617-1.461-.617a2.07 2.07 0 00-1.539.648c-.422.432-.682.997-.781 1.695h4.32zm8.281-2.14h-2.398V121h-1.281v-6.906h-2.407V113h6.086v1.094zM665.781 121h-1.156v-6.383c-.115.224-.289.539-.523.945L660.406 121h-1.328v-8h1.172v6.305c.062-.151.198-.409.406-.774l3.797-5.531h1.328v8zm8.438-8l-2.688 4.047 2.641 3.953h-1.492l-1.571-2.594a15.171 15.171 0 01-.351-.609h-.031c-.026.047-.149.25-.368.609L668.758 121h-1.477l2.727-3.922-2.61-4.078h1.493l1.547 2.734c.114.204.226.412.335.625h.032l2-3.359h1.414zm11.617 8h-1.281v-1.25h-.032c-.557.958-1.377 1.438-2.461 1.438-.796 0-1.421-.211-1.874-.633-.448-.422-.672-.982-.672-1.68 0-1.495.88-2.365 2.64-2.609l2.399-.336c0-1.36-.55-2.039-1.649-2.039-.963 0-1.833.328-2.609.984v-1.313c.786-.5 1.693-.75 2.719-.75 1.88 0 2.82.995 2.82 2.985V121zm-1.281-4.047l-1.93.266c-.594.083-1.042.232-1.344.445-.302.208-.453.581-.453 1.117 0 .391.138.711.414.961.281.245.654.367 1.117.367.636 0 1.159-.221 1.571-.664.416-.448.625-1.013.625-1.695v-.797zM688.25 121v-8h3.484c.787 0 1.407.174 1.86.523.458.349.687.826.687 1.43 0 1.037-.51 1.667-1.531 1.891 1.224.156 1.836.773 1.836 1.851 0 .651-.253 1.198-.758 1.641-.5.443-1.122.664-1.867.664h-3.711zm1.281-6.906v2.25h1.922c1.031 0 1.547-.401 1.547-1.203 0-.698-.464-1.047-1.391-1.047h-2.078zm0 3.344v2.468h2.219c1.036 0 1.555-.419 1.555-1.258 0-.807-.581-1.21-1.743-1.21h-2.031zm12.227-3.344h-2.399V121h-1.281v-6.906h-2.406V113h6.086v1.094zm4.883 7.094c-1.183 0-2.128-.373-2.836-1.118-.703-.75-1.055-1.742-1.055-2.976 0-1.344.367-2.393 1.102-3.149.734-.755 1.726-1.133 2.976-1.133 1.193 0 2.123.368 2.789 1.102.672.734 1.008 1.753 1.008 3.055 0 1.276-.362 2.299-1.086 3.07-.719.766-1.685 1.149-2.898 1.149zm.093-7.297c-.823 0-1.474.281-1.953.843-.479.558-.719 1.328-.719 2.313 0 .948.243 1.695.727 2.242.484.547 1.133.82 1.945.82.828 0 1.464-.268 1.907-.804.448-.537.671-1.3.671-2.289 0-1-.223-1.771-.671-2.313-.443-.542-1.079-.812-1.907-.812zM721.312 121h-1.265v-6.594a75.07 75.07 0 01-.531 1.469l-2 5.125h-1.149l-2.062-5.125c-.11-.276-.287-.766-.532-1.469V121h-1.101v-8h1.633l2.109 5.219c.151.38.344.906.578 1.578l.57-1.547 2.047-5.25h1.703v8zm8.321 0h-1.281v-1.25h-.032c-.557.958-1.377 1.438-2.461 1.438-.797 0-1.421-.211-1.875-.633-.448-.422-.672-.982-.672-1.68 0-1.495.881-2.365 2.641-2.609l2.399-.336c0-1.36-.55-2.039-1.649-2.039-.963 0-1.833.328-2.609.984v-1.313c.786-.5 1.692-.75 2.718-.75 1.881 0 2.821.995 2.821 2.985V121zm-1.281-4.047l-1.93.266c-.594.083-1.042.232-1.344.445-.302.208-.453.581-.453 1.117 0 .391.138.711.414.961.281.245.654.367 1.117.367.636 0 1.159-.221 1.571-.664.416-.448.625-1.013.625-1.695v-.797zm8.718-2.859h-2.398V121h-1.281v-6.906h-2.407V113h6.086v1.094zm8.242 6.906h-1.156v-6.383c-.114.224-.289.539-.523.945L739.938 121h-1.329v-8h1.172v6.305c.063-.151.198-.409.407-.774l3.796-5.531h1.328v8zm9.04 0h-1.274v-3.219c-.937.511-1.802.766-2.594.766-1.791 0-2.687-.948-2.687-2.844V113h1.281v2.641c0 1.171.505 1.757 1.516 1.757.771 0 1.599-.224 2.484-.671V113h1.274v8zm9.031-3.68h-5.649c.021.891.261 1.578.719 2.063.458.484 1.089.726 1.891.726.901 0 1.729-.297 2.484-.89v1.203c-.703.51-1.633.766-2.789.766-1.13 0-2.018-.362-2.664-1.086-.646-.73-.969-1.753-.969-3.071 0-1.245.352-2.258 1.055-3.039.708-.786 1.586-1.18 2.633-1.18s1.857.339 2.429 1.016c.573.677.86 1.617.86 2.82v.672zm-1.313-1.086c-.005-.739-.185-1.315-.539-1.726-.349-.412-.836-.617-1.461-.617a2.07 2.07 0 00-1.539.648c-.422.432-.682.997-.781 1.695h4.32zm8.711 4.399c-.614.37-1.343.555-2.187.555-1.141 0-2.063-.37-2.766-1.11-.698-.745-1.047-1.708-1.047-2.89 0-1.318.378-2.376 1.133-3.172.755-.802 1.763-1.204 3.024-1.204.703 0 1.322.131 1.859.391v1.313c-.594-.417-1.229-.625-1.906-.625-.818 0-1.49.294-2.016.882-.521.584-.781 1.352-.781 2.305 0 .938.245 1.677.734 2.219.495.542 1.156.812 1.984.812.698 0 1.355-.231 1.969-.695v1.219zm8.578.367h-1.797l-3.531-3.844H774V121h-1.281v-8H774v3.664h.031l3.36-3.664h1.679l-3.711 3.859 4 4.141zm8.016 0h-1.156v-6.383c-.115.224-.289.539-.524.945L782 121h-1.328v-8h1.172v6.305c.062-.151.198-.409.406-.774l3.797-5.531h1.328v8zM482 142h-1.156v-6.383c-.115.224-.289.539-.524.945L476.625 142h-1.328v-8h1.172v6.305c.062-.151.198-.409.406-.774l3.797-5.531H482v8zm10.328.188c-1.182 0-2.127-.373-2.836-1.118-.703-.75-1.054-1.742-1.054-2.976 0-1.344.367-2.393 1.101-3.149.734-.755 1.727-1.133 2.977-1.133 1.192 0 2.122.368 2.789 1.102.672.734 1.007 1.753 1.007 3.055 0 1.276-.361 2.299-1.085 3.07-.719.766-1.685 1.149-2.899 1.149zm.094-7.297c-.823 0-1.474.281-1.953.843-.479.558-.719 1.328-.719 2.313 0 .948.242 1.695.727 2.242.484.547 1.132.82 1.945.82.828 0 1.463-.268 1.906-.804.448-.537.672-1.3.672-2.289 0-1-.224-1.771-.672-2.313-.443-.542-1.078-.812-1.906-.812zm10.961.203h-2.399V142h-1.281v-6.906h-2.406V134h6.086v1.094zm8.179 6.906h-1.281v-6.906h-4.078V142h-1.281v-8h6.64v8zm3.907-1.156h-.031v4.836h-1.282V134h1.282v1.406h.031c.63-1.062 1.552-1.594 2.765-1.594 1.032 0 1.836.36 2.414 1.079.579.713.868 1.671.868 2.875 0 1.338-.326 2.411-.977 3.218-.651.802-1.542 1.204-2.672 1.204-1.036 0-1.836-.448-2.398-1.344zm-.031-3.227v1.117c0 .662.213 1.224.64 1.688.432.458.979.687 1.641.687.776 0 1.383-.297 1.82-.89.443-.594.664-1.42.664-2.477 0-.89-.206-1.588-.617-2.094-.412-.505-.969-.757-1.672-.757-.745 0-1.344.26-1.797.781-.453.516-.679 1.164-.679 1.945zM529.289 142h-1.281v-1.25h-.031c-.558.958-1.378 1.438-2.461 1.438-.797 0-1.422-.211-1.875-.633-.448-.422-.672-.982-.672-1.68 0-1.495.88-2.365 2.64-2.609l2.399-.336c0-1.36-.55-2.039-1.649-2.039-.963 0-1.833.328-2.609.984v-1.313c.786-.5 1.693-.75 2.719-.75 1.88 0 2.82.995 2.82 2.985V142zm-1.281-4.047l-1.93.266c-.594.083-1.042.232-1.344.445-.302.208-.453.581-.453 1.117 0 .391.138.711.414.961.282.245.654.367 1.117.367.636 0 1.159-.221 1.571-.664.416-.448.625-1.013.625-1.695v-.797zm3.695 4.047v-8h3.485c.786 0 1.406.174 1.859.523.458.349.687.826.687 1.43 0 1.037-.51 1.667-1.531 1.891 1.224.156 1.836.773 1.836 1.851 0 .651-.253 1.198-.758 1.641-.5.443-1.122.664-1.867.664h-3.711zm1.281-6.906v2.25h1.922c1.032 0 1.547-.401 1.547-1.203 0-.698-.463-1.047-1.391-1.047h-2.078zm0 3.344v2.468h2.219c1.037 0 1.555-.419 1.555-1.258 0-.807-.581-1.21-1.742-1.21h-2.032zM546.023 142h-1.273v-6.914h-1.859c-.214 2.588-.581 4.406-1.102 5.453-.516 1.047-1.211 1.57-2.086 1.57-.265 0-.495-.036-.687-.109v-1.102c.182.094.38.141.593.141 1.146 0 1.883-2.346 2.211-7.039h4.203v8zm8.071 0h-1.282v-3.312h-1.07c-.515 0-.984.416-1.406 1.25L549.297 142h-1.485l1.344-2.469c.313-.573.69-.95 1.133-1.133-.625-.083-1.101-.312-1.43-.687-.328-.375-.492-.844-.492-1.406 0-.709.255-1.269.766-1.68.515-.417 1.237-.625 2.164-.625h2.797v8zm-1.282-4.383v-2.523h-1.515c-1.078 0-1.617.409-1.617 1.226 0 .865.523 1.297 1.57 1.297h1.562zm10.29.703h-5.649c.021.891.261 1.578.719 2.063.458.484 1.088.726 1.89.726.902 0 1.73-.297 2.485-.89v1.203c-.703.51-1.633.766-2.789.766-1.13 0-2.018-.362-2.664-1.086-.646-.73-.969-1.753-.969-3.071 0-1.245.352-2.258 1.055-3.039.708-.786 1.586-1.18 2.632-1.18 1.047 0 1.857.339 2.43 1.016.573.677.86 1.617.86 2.82v.672zm-1.313-1.086c-.005-.739-.185-1.315-.539-1.726-.349-.412-.836-.617-1.461-.617a2.07 2.07 0 00-1.539.648c-.422.432-.682.997-.781 1.695h4.32zm8.281-2.14h-2.398V142h-1.281v-6.906h-2.407V134h6.086v1.094zM582.641 142h-1.797l-3.532-3.844h-.031V142H576v-8h1.281v3.664h.031l3.36-3.664h1.68l-3.711 3.859 4 4.141zm4.656.188c-1.182 0-2.128-.373-2.836-1.118-.703-.75-1.055-1.742-1.055-2.976 0-1.344.367-2.393 1.102-3.149.734-.755 1.726-1.133 2.976-1.133 1.193 0 2.123.368 2.789 1.102.672.734 1.008 1.753 1.008 3.055 0 1.276-.362 2.299-1.086 3.07-.718.766-1.685 1.149-2.898 1.149zm.094-7.297c-.823 0-1.474.281-1.953.843-.48.558-.719 1.328-.719 2.313 0 .948.242 1.695.726 2.242.485.547 1.133.82 1.946.82.828 0 1.463-.268 1.906-.804.448-.537.672-1.3.672-2.289 0-1-.224-1.771-.672-2.313-.443-.542-1.078-.812-1.906-.812zM599.969 142h-1.281v-3.633h-4.079V142h-1.281v-8h1.281v3.281h4.079V134h1.281v8zm7.617-6.906h-2.398V142h-1.282v-6.906H601.5V134h6.086v1.094zm2.852 5.75h-.032v4.836h-1.281V134h1.281v1.406h.032c.63-1.062 1.552-1.594 2.765-1.594 1.031 0 1.836.36 2.414 1.079.578.713.867 1.671.867 2.875 0 1.338-.325 2.411-.976 3.218-.651.802-1.542 1.204-2.672 1.204-1.037 0-1.836-.448-2.398-1.344zm-.032-3.227v1.117c0 .662.214 1.224.641 1.688.432.458.979.687 1.641.687.776 0 1.382-.297 1.82-.89.443-.594.664-1.42.664-2.477 0-.89-.206-1.588-.617-2.094-.412-.505-.969-.757-1.672-.757-.745 0-1.344.26-1.797.781-.453.516-.68 1.164-.68 1.945zM624.258 142h-1.281v-1.25h-.032c-.557.958-1.377 1.438-2.461 1.438-.796 0-1.422-.211-1.875-.633-.448-.422-.671-.982-.671-1.68 0-1.495.88-2.365 2.64-2.609l2.399-.336c0-1.36-.55-2.039-1.649-2.039-.963 0-1.833.328-2.609.984v-1.313c.786-.5 1.692-.75 2.719-.75 1.88 0 2.82.995 2.82 2.985V142zm-1.281-4.047l-1.93.266c-.594.083-1.042.232-1.344.445-.302.208-.453.581-.453 1.117 0 .391.138.711.414.961.281.245.654.367 1.117.367.636 0 1.159-.221 1.571-.664.416-.448.625-1.013.625-1.695v-.797zm8.14-2.859h-3.164V142h-1.281v-8h4.445v1.094zm8.11 3.226h-5.649c.021.891.261 1.578.719 2.063.458.484 1.088.726 1.891.726.901 0 1.729-.297 2.484-.89v1.203c-.703.51-1.633.766-2.789.766-1.13 0-2.018-.362-2.664-1.086-.646-.73-.969-1.753-.969-3.071 0-1.245.352-2.258 1.055-3.039.708-.786 1.586-1.18 2.633-1.18 1.046 0 1.856.339 2.429 1.016.573.677.86 1.617.86 2.82v.672zm-1.313-1.086c-.005-.739-.185-1.315-.539-1.726-.349-.412-.836-.617-1.461-.617a2.07 2.07 0 00-1.539.648c-.422.432-.682.997-.781 1.695h4.32zm9.898 4.766h-1.281v-3.633h-4.078V142h-1.281v-8h1.281v3.281h4.078V134h1.281v8zm7.618-6.906h-2.399V142h-1.281v-6.906h-2.406V134h6.086v1.094zm7.265 6.906h-1.281v-1.25h-.031c-.557.958-1.378 1.438-2.461 1.438-.797 0-1.422-.211-1.875-.633-.448-.422-.672-.982-.672-1.68 0-1.495.88-2.365 2.641-2.609l2.398-.336c0-1.36-.549-2.039-1.648-2.039-.964 0-1.834.328-2.61.984v-1.313c.787-.5 1.693-.75 2.719-.75 1.88 0 2.82.995 2.82 2.985V142zm-1.281-4.047l-1.93.266c-.593.083-1.041.232-1.343.445-.302.208-.453.581-.453 1.117 0 .391.138.711.414.961.281.245.653.367 1.117.367.635 0 1.159-.221 1.57-.664.417-.448.625-1.013.625-1.695v-.797zM673.75 142h-1.266v-6.594c-.114.334-.291.823-.531 1.469l-2 5.125h-1.148l-2.063-5.125a44.959 44.959 0 01-.531-1.469V142h-1.102v-8h1.633l2.11 5.219c.151.38.343.906.578 1.578l.57-1.547 2.047-5.25h1.703v8z" fill="#2A2A2A"/><path d="M712 15a5 5 0 015-5h100a5 5 0 015 5v64H712V15z" fill="#79E5D6"/><path d="M719 15h96v59h-96V15z" fill="#fff" stroke="#1DBBBA" stroke-width="2"/><path d="M700 80h134v2a4 4 0 01-4 4H704a4 4 0 01-4-4v-2z" stroke="#02A88F" stroke-width="2"/><path d="M747.162 57h-1.514l-2.436-3.203a1.73 1.73 0 01-.166-.244h-.02V57h-1.162v-7.002h1.162v3.291h.02c.039-.072.094-.151.166-.24l2.349-3.051h1.391l-2.749 3.36L747.162 57zm2.788.117c-.771 0-1.388-.233-1.85-.698-.459-.469-.689-1.089-.689-1.86 0-.84.239-1.496.718-1.968.482-.472 1.129-.708 1.943-.708.782 0 1.39.23 1.826.688.437.46.655 1.096.655 1.91 0 .797-.236 1.437-.708 1.918-.469.479-1.101.718-1.895.718zm.054-4.33c-.443 0-.793.154-1.05.463-.257.31-.386.736-.386 1.28 0 .523.131.937.391 1.24.26.299.609.449 1.045.449.446 0 .788-.148 1.025-.445.241-.296.362-.717.362-1.264 0-.55-.121-.975-.362-1.275-.237-.3-.579-.449-1.025-.449zM758.163 57h-1.138v-2.188h-2.177V57h-1.138v-5h1.138v1.963h2.177V52h1.138v5zm4.883-4.097h-1.426V57h-1.138v-4.097h-1.435V52h3.999v.903zm2.051 3.36h-.02V59.3h-1.133V52h1.133v.879h.02c.387-.664.953-.996 1.699-.996.635 0 1.129.223 1.484.669.355.446.532 1.045.532 1.797 0 .833-.2 1.5-.6 2.002-.4.5-.947.752-1.641.752-.638 0-1.129-.28-1.474-.84zm-.03-1.973v.62c0 .365.116.674.347.928.234.254.531.38.889.38.42 0 .748-.162.986-.488.241-.328.361-.786.361-1.372 0-.491-.112-.875-.337-1.152-.221-.28-.522-.42-.903-.42-.403 0-.729.143-.976.43-.245.286-.367.644-.367 1.074zM773.69 57h-1.098v-.781h-.02c-.345.599-.851.898-1.518.898-.492 0-.878-.133-1.158-.4-.276-.267-.415-.62-.415-1.06 0-.944.544-1.494 1.631-1.65l1.485-.21c0-.713-.339-1.07-1.016-1.07-.596 0-1.133.206-1.611.616v-.991c.527-.313 1.136-.47 1.826-.47 1.263 0 1.894.623 1.894 1.866V57zm-1.093-2.456l-1.05.146c-.326.043-.571.123-.737.24-.163.114-.245.315-.245.605 0 .212.075.386.225.523.153.133.356.2.61.2.345 0 .63-.12.855-.361.228-.245.342-.55.342-.919v-.434zm5.478-1.64h-1.86V57h-1.138v-5h2.998v.903zm5.025 1.904h-3.409c.013.462.155.818.425 1.069.274.25.648.376 1.123.376.534 0 1.024-.16 1.47-.479v.913c-.456.287-1.058.43-1.807.43-.735 0-1.313-.226-1.733-.678-.417-.456-.625-1.096-.625-1.92 0-.777.229-1.41.688-1.899a2.267 2.267 0 011.719-.737c.684 0 1.213.22 1.587.659.374.44.562 1.05.562 1.831v.435zm-1.094-.801c-.003-.407-.099-.723-.288-.947-.189-.228-.449-.342-.781-.342-.326 0-.603.119-.831.356-.224.238-.363.549-.415.933h2.315zM788.632 57h-1.138v-2.188h-2.178V57h-1.137v-5h1.137v1.963h2.178V52h1.138v5zm4.883-4.097h-1.426V57h-1.138v-4.097h-1.435V52h3.999v.903z" fill="#1DBBBA"/><circle cx="768" cy="34" r="3" fill="#1DBBBA"/><path d="M764 41a3 3 0 013-3h2a3 3 0 013 3v5h-8v-5z" fill="#1DBBBA"/></svg>