<svg width="167" height="167" fill="none" xmlns="http://www.w3.org/2000/svg"><path d="M19.456 139.748L0 159.204v7.726h7.726l19.456-19.455a68.114 68.114 0 01-7.726-7.727zM157.604 44.095l-33.996 33.996 7.727 7.727 33.996-33.997a5.464 5.464 0 00-7.727-7.726zM122.837 1.6a5.465 5.465 0 00-7.727 0L81.114 35.596l7.727 7.726 33.996-33.996a5.464 5.464 0 000-7.726zM44.026 21.69l6.181 6.182-23.179 23.179c-24.536 24.536-24.536 64.317 0 88.854 24.536 24.536 64.318 24.536 88.854 0l23.179-23.179 6.181 6.181 7.727-7.726L51.753 13.965c-2.577 2.575-5.152 5.15-7.727 7.726z" fill="#fff"/></svg>