<svg xmlns="http://www.w3.org/2000/svg" width="512" height="512"><path xmlns="http://www.w3.org/2000/svg" d="M39.195 209.95l69.465 69.468a13.367 13.367 0 013.942 9.516v68.582c0 4.14 3.359 7.5 7.5 7.5 4.14 0 7.5-3.36 7.5-7.5v-68.582c0-7.602-2.961-14.747-8.336-20.122l-74.77-74.769a7.497 7.497 0 00-10.605 0l-15.137 15.133c-1.379 1.379-3.754.375-3.754-1.555v-75.629a4.891 4.891 0 014.887-4.887h75.629c1.96 0 2.933 2.375 1.554 3.754l-15.132 15.137c-2.895 2.895-2.895 7.715 0 10.606l90.859 90.859c5 5 7.754 11.648 7.754 18.719V496.03H127.6V387.516c0-4.141-3.359-7.5-7.5-7.5-4.14 0-7.5 3.359-7.5 7.5v116.011a7.5 7.5 0 007.5 7.5h67.95a7.5 7.5 0 007.5-7.5V266.18c0-11.078-4.317-21.493-12.149-29.328l-85.554-85.555s9.816-9.82 9.832-9.832c10.625-10.63 2.812-29.363-12.164-29.363h-75.63C8.923 112.102 0 121.023 0 131.992v75.63c0 14.855 18.688 22.835 29.363 12.16zm0 0M495.633 306.703c-.77.317-1.711.223-2.39-.457l-15.134-15.137c-3.02-3.02-8.105-2.859-10.93.344l-21.69 24.598a7.499 7.499 0 1011.245 9.922l16.414-18.61 9.489 9.489C493.266 327.48 512 319.668 512 304.692v-75.63c0-10.964-8.922-19.886-19.887-19.886h-75.629c-15 0-22.77 18.754-12.164 29.36l9.832 9.831-85.554 85.555c-7.836 7.836-12.149 18.25-12.149 29.328v140.277a7.5 7.5 0 007.5 7.5h67.95a7.5 7.5 0 007.5-7.5V396.004c0-3.598 1.398-6.977 3.94-9.516.11-.11.22-.226.321-.343l33.371-37.833a7.503 7.503 0 00-.664-10.585 7.503 7.503 0 00-10.586.664l-33.226 37.671c-5.262 5.352-8.157 12.422-8.157 19.942v100.023H331.45V363.25c0-7.07 2.754-13.719 7.754-18.723 0 0 90.781-90.78 90.86-90.855 2.894-2.895 2.89-7.715 0-10.606l-15.137-15.136c-1.301-1.301-.485-3.754 1.554-3.754h75.63a4.891 4.891 0 014.886 4.886v75.625c.004.97-.594 1.696-1.363 2.016zm0 0M222.023 511.027h67.95c4.144 0 7.5-3.355 7.5-7.5V88.586h13.906c14.992 0 22.77-18.75 12.16-29.36 0 0-53.453-53.453-53.476-53.48-7.668-7.664-20.47-7.656-28.125 0L188.46 59.223c-10.625 10.625-2.813 29.363 12.16 29.363h13.902v414.941a7.5 7.5 0 007.5 7.5zM200.621 73.586c-1.863 0-2.969-2.344-1.555-3.754l53.477-53.477c1.89-1.894 5.02-1.894 6.914 0l53.477 53.477c1.32 1.316.441 3.754-1.555 3.754h-21.406c-4.141 0-7.5 3.36-7.5 7.5v414.941h-52.95V81.086a7.5 7.5 0 00-7.5-7.5h-21.402zm0 0" fill="#1DBBBA" data-original="#000000"/></svg>