<svg xmlns="http://www.w3.org/2000/svg" width="512" height="512"><g xmlns="http://www.w3.org/2000/svg"><path d="M503.467 494.933h-34.133V256c-.015-14.132-11.468-25.585-25.6-25.6v-51.2c-.015-14.132-11.468-25.585-25.6-25.6v-51.2c-.015-14.132-11.468-25.585-25.6-25.6V25.6c-.015-14.132-11.468-25.585-25.6-25.6H145.067c-14.132.015-25.585 11.468-25.6 25.6v51.2c-14.132.015-25.585 11.468-25.6 25.6v51.2c-14.132.015-25.585 11.468-25.6 25.6v51.2c-14.132.015-25.585 11.468-25.6 25.6v238.933H8.533c-4.713 0-8.533 3.82-8.533 8.533S3.82 512 8.533 512h494.933c4.713 0 8.533-3.82 8.533-8.533s-3.819-8.534-8.532-8.534zM136.533 25.6a8.539 8.539 0 018.533-8.533h221.867a8.538 8.538 0 018.533 8.533v51.2H246.604c-4.055-19.865-21.529-34.133-41.804-34.133-20.275 0-37.749 14.268-41.804 34.133h-26.462V25.6zm92.295 51.2h-48.055a25.448 25.448 0 0148.055 0zm-117.895 25.6a8.538 8.538 0 018.533-8.533h273.067a8.538 8.538 0 018.533 8.533v51.2H221.004c-4.055-19.865-21.529-34.133-41.804-34.133s-37.749 14.268-41.804 34.133h-26.462v-51.2zm92.295 51.2h-48.055a25.448 25.448 0 0148.055 0zM85.333 179.2a8.538 8.538 0 018.533-8.533h324.267a8.539 8.539 0 018.533 8.533v51.2H195.404c-4.055-19.865-21.529-34.133-41.804-34.133-20.275 0-37.749 14.268-41.804 34.133H85.333v-51.2zm92.295 51.2h-48.055a25.448 25.448 0 0148.055 0zm274.639 264.533H59.733V256a8.539 8.539 0 018.533-8.533h375.467a8.538 8.538 0 018.533 8.533v238.933z" fill="#1DBBBA" data-original="#000000"/><path d="M145.067 384c28.277 0 51.2-22.923 51.2-51.2 0-28.277-22.923-51.2-51.2-51.2-28.277 0-51.2 22.923-51.2 51.2.031 28.264 22.935 51.169 51.2 51.2zm0-85.333c18.851 0 34.133 15.282 34.133 34.133 0 18.851-15.282 34.133-34.133 34.133s-34.133-15.282-34.133-34.133c.018-18.844 15.289-34.115 34.133-34.133zM409.6 281.6H230.4c-4.713 0-8.533 3.82-8.533 8.533s3.82 8.533 8.533 8.533h179.2c4.713 0 8.533-3.82 8.533-8.533s-3.82-8.533-8.533-8.533zM409.6 324.267H230.4a8.533 8.533 0 000 17.066h179.2a8.533 8.533 0 000-17.066zM409.6 366.933H230.4c-4.713 0-8.533 3.82-8.533 8.533S225.687 384 230.4 384h179.2c4.713 0 8.533-3.82 8.533-8.533s-3.82-8.534-8.533-8.534zM409.6 409.6H102.4c-4.713 0-8.533 3.82-8.533 8.533s3.82 8.533 8.533 8.533h307.2c4.713 0 8.533-3.82 8.533-8.533s-3.82-8.533-8.533-8.533zM409.6 452.267H102.4a8.533 8.533 0 000 17.066h307.2c4.713 0 8.533-3.82 8.533-8.533s-3.82-8.533-8.533-8.533z" fill="#1DBBBA" data-original="#000000"/></g></svg>