<svg xmlns="http://www.w3.org/2000/svg" width="512" height="512" viewBox="0 0 511 511.999"><path xmlns="http://www.w3.org/2000/svg" d="M460.121 147.012V83.016c0-4.2-3.406-7.606-7.605-7.606H411.19V7.605c0-4.199-3.406-7.605-7.605-7.605H99.438a7.604 7.604 0 00-7.602 7.605V75.41H50.508a7.604 7.604 0 00-7.602 7.606v120.039h-6.718C16.508 203.055.5 219.066.5 238.746V476.31C.5 495.989 16.508 512 36.188 512h360.87c.016 0 .028-.004.044-.004h60.148c19.68 0 35.688-16.008 35.688-35.687V182.574c0-18.71-14.477-34.094-32.817-35.562zM107.043 15.207h288.941v131.68H362.25V83.016c0-4.2-3.402-7.606-7.602-7.606H107.043zM15.707 476.313V238.745c0-11.293 9.188-20.48 20.48-20.48h29.77c4.2 0 7.602-3.407 7.602-7.606 0-4.2-3.403-7.605-7.602-7.605h-7.844V90.617h288.93v56.27h-77.102c-19.68 0-35.687 16.008-35.687 35.687 0 11.293-9.188 20.48-20.484 20.48H96.375a7.607 7.607 0 00-7.605 7.606c0 4.2 3.406 7.606 7.605 7.606H213.77c19.68 0 35.69-16.012 35.69-35.692 0-11.293 9.188-20.48 20.481-20.48H397.06c11.296 0 20.484 9.187 20.484 20.48v293.738c0 11.286-9.18 20.47-20.465 20.481H36.187c-11.292 0-20.48-9.188-20.48-20.48zm462.023 0c0 11.289-9.187 20.48-20.48 20.48h-30.988a35.474 35.474 0 006.355-17.52h19.899c4.199 0 7.605-3.406 7.605-7.605V270.066c0-4.199-3.406-7.601-7.605-7.601s-7.606 3.402-7.606 7.601v193.996h-12.16V182.574c0-14.66-8.89-27.281-21.559-32.765V90.617h33.72v149.035c0 4.2 3.405 7.602 7.605 7.602s7.605-3.402 7.605-7.602V162.32c9.934 1.403 17.61 9.938 17.61 20.254zm0 0" fill="#1DBBBA" data-original="#000000"/><path xmlns="http://www.w3.org/2000/svg" d="M98.191 130.16H280.68c4.199 0 7.601-3.406 7.601-7.605 0-4.2-3.402-7.606-7.601-7.606H98.19a7.604 7.604 0 00-7.601 7.606c0 4.199 3.402 7.605 7.601 7.605zm0 0M98.191 168.176h104.391a7.6 7.6 0 007.602-7.602 7.601 7.601 0 00-7.602-7.605H98.192a7.601 7.601 0 00-7.602 7.605 7.6 7.6 0 007.601 7.602zm0 0M388.648 244.21H230.492a7.604 7.604 0 00-7.601 7.606v56.266c0 4.2 3.402 7.606 7.601 7.606h158.156c4.2 0 7.606-3.407 7.606-7.606v-56.266c0-4.199-3.406-7.605-7.606-7.605zm-7.601 56.267h-142.95v-41.059h142.95zm0 0" fill="#1DBBBA" data-original="#000000"/></svg>