<svg width="535" height="535" viewBox="0 0 535 535" fill="none" xmlns="http://www.w3.org/2000/svg">
<g clip-path="url(#clip0_2162_20063)">
<path d="M389.241 325.518C389.156 325.518 389.069 325.482 388.996 325.405C388.82 325.222 388.788 324.882 388.924 324.648L515.414 105.262C515.55 105.026 515.802 104.983 515.978 105.166C516.154 105.348 516.186 105.689 516.05 105.923L389.56 325.308C389.481 325.446 389.362 325.518 389.241 325.518Z" fill="#62818E"/>
<path d="M389.243 325.517C389.206 325.517 389.17 325.511 389.133 325.497L168.508 241.645C168.294 241.563 168.17 241.264 168.23 240.978C168.291 240.691 168.512 240.522 168.727 240.605L389.352 324.458C389.566 324.539 389.69 324.838 389.63 325.125C389.58 325.363 389.417 325.517 389.243 325.517Z" fill="#62818E"/>
<path d="M168.617 241.665C168.442 241.665 168.281 241.512 168.231 241.275C168.168 240.989 168.292 240.688 168.505 240.605L515.62 105.075C515.831 104.99 516.056 105.156 516.117 105.443C516.18 105.729 516.057 106.03 515.843 106.113L168.729 241.643C168.692 241.657 168.655 241.665 168.617 241.665Z" fill="#62818E"/>
<path d="M515.732 106.133C515.725 106.133 515.719 106.133 515.712 106.133L222.064 87.6006C221.841 87.5868 221.67 87.3338 221.68 87.0348C221.69 86.7359 221.898 86.5121 222.101 86.5197L515.75 105.05C515.972 105.064 516.144 105.317 516.132 105.616C516.123 105.907 515.945 106.133 515.732 106.133Z" fill="#62818E"/>
<path d="M168.617 241.665C168.56 241.665 168.503 241.648 168.448 241.614C168.246 241.489 168.159 241.167 168.253 240.897L221.719 86.834C221.812 86.5642 222.051 86.4461 222.253 86.5718C222.455 86.6975 222.542 87.0195 222.448 87.2893L168.982 241.352C168.914 241.548 168.769 241.665 168.617 241.665Z" fill="#62818E"/>
<path d="M165.055 491.712C164.914 491.712 164.776 491.61 164.702 491.433C164.595 491.172 164.666 490.842 164.86 490.698L389.048 324.505C389.242 324.36 389.487 324.456 389.594 324.717C389.702 324.978 389.632 325.307 389.437 325.451L165.249 491.644C165.188 491.69 165.12 491.712 165.055 491.712Z" fill="#62818E"/>
<path d="M165.055 491.711C165.053 491.711 165.05 491.711 165.047 491.711C164.825 491.705 164.649 491.458 164.652 491.161L168.216 241.115C168.22 240.816 168.388 240.572 168.625 240.584C168.848 240.591 169.024 240.837 169.02 241.135L165.457 491.181C165.454 491.476 165.275 491.711 165.055 491.711Z" fill="#62818E"/>
<path d="M4.93785 401.412C4.81341 401.412 4.69011 401.335 4.61248 401.189C4.48119 400.947 4.52115 400.61 4.70153 400.435L168.382 240.687C168.563 240.511 168.815 240.566 168.944 240.807C169.075 241.048 169.035 241.386 168.855 241.561L5.17418 401.309C5.10225 401.378 5.02005 401.412 4.93785 401.412Z" fill="#62818E"/>
<path d="M4.93711 401.411C4.71905 401.411 4.53981 401.176 4.53524 400.882C4.53068 400.583 4.70763 400.336 4.92911 400.33L108.27 397.498C108.273 397.498 108.275 397.498 108.278 397.498C108.496 397.498 108.675 397.733 108.681 398.027C108.685 398.326 108.508 398.573 108.287 398.579L4.94624 401.411C4.94167 401.411 4.93939 401.411 4.93711 401.411Z" fill="#62818E"/>
<path d="M108.277 398.58C108.215 398.58 108.151 398.562 108.093 398.52C107.895 398.384 107.818 398.057 107.92 397.792L168.261 240.876C168.362 240.612 168.605 240.507 168.803 240.645C169 240.781 169.078 241.108 168.975 241.373L108.635 398.289C108.563 398.473 108.423 398.58 108.277 398.58Z" fill="#62818E"/>
<path d="M165.055 491.709C164.938 491.709 164.823 491.641 164.743 491.511L107.966 398.381C107.825 398.149 107.851 397.809 108.022 397.621C108.193 397.432 108.447 397.464 108.588 397.696L165.365 490.825C165.505 491.057 165.48 491.397 165.309 491.586C165.235 491.669 165.145 491.709 165.055 491.709Z" fill="#62818E"/>
<path d="M4.93745 401.41C4.83926 401.41 4.74108 401.362 4.66345 401.266C4.50133 401.062 4.49106 400.72 4.6429 400.502L221.79 86.6918C221.942 86.4741 222.196 86.4603 222.358 86.6642C222.522 86.8666 222.531 87.2085 222.379 87.4277L5.232 401.238C5.15208 401.353 5.04476 401.41 4.93745 401.41Z" fill="#62818E"/>
<path d="M432.161 404.366C432.037 404.366 431.915 404.289 431.836 404.143L388.918 325.294C388.786 325.054 388.825 324.715 389.005 324.539C389.185 324.361 389.437 324.414 389.568 324.657L432.487 403.506C432.618 403.746 432.579 404.085 432.399 404.26C432.327 404.332 432.244 404.366 432.161 404.366Z" fill="#62818E"/>
<path d="M165.054 491.709C164.873 491.709 164.708 491.543 164.664 491.297C164.611 491.007 164.744 490.714 164.96 490.643L432.065 403.301C432.279 403.229 432.499 403.407 432.552 403.698C432.604 403.988 432.472 404.281 432.256 404.351L165.15 491.694C165.118 491.704 165.086 491.709 165.054 491.709Z" fill="#62818E"/>
<path d="M432.159 404.365C431.941 404.365 431.761 404.132 431.756 403.837L429.145 255.079C429.139 254.78 429.316 254.533 429.537 254.525C429.779 254.532 429.944 254.755 429.95 255.053L432.56 403.811C432.566 404.11 432.389 404.357 432.168 404.365C432.165 404.365 432.162 404.365 432.159 404.365Z" fill="#62818E"/>
<path d="M295.809 504.145C295.667 504.145 295.528 504.043 295.455 503.863C295.349 503.601 295.421 503.273 295.616 503.13L431.968 403.352C432.162 403.208 432.408 403.306 432.514 403.568C432.62 403.83 432.548 404.158 432.353 404.301L296.001 504.079C295.94 504.124 295.874 504.145 295.809 504.145Z" fill="#62818E"/>
<path d="M295.808 504.147C295.799 504.147 295.789 504.147 295.78 504.146L165.027 491.709C164.805 491.688 164.637 491.43 164.653 491.133C164.669 490.835 164.86 490.618 165.083 490.631L295.836 503.068C296.057 503.089 296.225 503.347 296.209 503.644C296.194 503.93 296.018 504.147 295.808 504.147Z" fill="#62818E"/>
<path d="M222.082 87.603C221.957 87.603 221.833 87.5248 221.756 87.3792C221.626 87.1369 221.667 86.7996 221.847 86.6249L305.056 6.08649C305.237 5.91171 305.488 5.96691 305.617 6.20914C305.748 6.45137 305.706 6.78865 305.526 6.96342L222.316 87.5003C222.245 87.5693 222.163 87.603 222.082 87.603Z" fill="#62818E"/>
<path d="M331.495 94.5052C331.335 94.5052 331.184 94.3764 331.122 94.1664L304.916 6.7229C304.833 6.4454 304.933 6.13112 305.139 6.0192C305.344 5.90882 305.579 6.0422 305.663 6.31969L331.868 93.7632C331.952 94.0406 331.851 94.3549 331.646 94.4668C331.595 94.4929 331.545 94.5052 331.495 94.5052Z" fill="#62818E"/>
<path d="M381.574 97.6644C381.479 97.6644 381.383 97.6199 381.307 97.5294L305.022 6.92625C304.856 6.72848 304.841 6.38661 304.988 6.16277C305.135 5.93894 305.39 5.91901 305.557 6.11525L381.842 96.7184C382.009 96.9162 382.024 97.2581 381.876 97.4819C381.797 97.603 381.685 97.6644 381.574 97.6644Z" fill="#62818E"/>
<path d="M392.601 326.082C393.062 323.611 391.943 321.105 390.103 320.487C388.262 319.868 386.397 321.37 385.936 323.841C385.475 326.313 386.594 328.818 388.434 329.437C390.275 330.056 392.14 328.554 392.601 326.082Z" fill="#62818E"/>
<path d="M434.838 406.715C436.024 404.727 435.786 401.824 434.305 400.231C432.825 398.637 430.663 398.957 429.477 400.945C428.29 402.933 428.528 405.837 430.009 407.43C431.489 409.023 433.651 408.703 434.838 406.715Z" fill="#62818E"/>
<path d="M165.388 495.537C167.286 495.537 168.824 493.471 168.824 490.924C168.824 488.376 167.286 486.311 165.388 486.311C163.491 486.311 161.953 488.376 161.953 490.924C161.953 493.471 163.491 495.537 165.388 495.537Z" fill="#62818E"/>
<path d="M7.28721 404.239C8.62875 402.437 8.62874 399.516 7.2872 397.715C5.94567 395.913 3.7706 395.913 2.42907 397.715C1.08753 399.516 1.08754 402.437 2.42907 404.238C3.77061 406.04 5.94568 406.04 7.28721 404.239Z" fill="#62818E"/>
<path d="M171.248 244.461C172.59 242.66 172.59 239.739 171.248 237.937C169.907 236.136 167.732 236.136 166.39 237.937C165.048 239.739 165.048 242.66 166.39 244.461C167.732 246.263 169.907 246.263 171.248 244.461Z" fill="#62818E"/>
<path d="M221.963 91.7907C223.86 91.7907 225.398 89.7253 225.398 87.1776C225.398 84.6298 223.86 82.5645 221.963 82.5645C220.065 82.5645 218.527 84.6298 218.527 87.1776C218.527 89.7253 220.065 91.7907 221.963 91.7907Z" fill="#62818E"/>
<path d="M307.717 9.78147C309.058 7.97996 309.058 5.05913 307.717 3.25762C306.375 1.4561 304.2 1.45611 302.859 3.25763C301.517 5.05914 301.517 7.97994 302.859 9.78145C304.2 11.583 306.375 11.583 307.717 9.78147Z" fill="#62818E"/>
<path d="M515.732 110.203C517.629 110.203 519.167 108.137 519.167 105.59C519.167 103.042 517.629 100.977 515.732 100.977C513.835 100.977 512.297 103.042 512.297 105.59C512.297 108.137 513.835 110.203 515.732 110.203Z" fill="#62818E"/>
<path d="M27.2511 394.714C27.1176 394.714 26.9851 394.648 26.8813 394.514C26.6666 394.24 26.6586 393.785 26.863 393.496L161.221 204.137C161.426 203.849 161.766 203.84 161.979 204.112C162.194 204.387 162.202 204.844 161.998 205.132L27.6393 394.49C27.5343 394.639 27.3927 394.714 27.2511 394.714Z" fill="#00344A"/>
<path d="M362.48 312.539C362.414 312.539 362.346 312.523 362.282 312.487L161.409 205.304C161.134 205.156 160.999 204.738 161.108 204.368C161.218 203.999 161.531 203.818 161.805 203.965L362.679 311.149C362.954 311.296 363.088 311.715 362.979 312.084C362.896 312.366 362.693 312.539 362.48 312.539Z" fill="#00344A"/>
<path d="M27.2512 394.713C26.9966 394.713 26.7717 394.469 26.7238 394.121C26.6701 393.73 26.8642 393.354 27.1553 393.282L362.387 311.106C362.68 311.039 362.958 311.295 363.012 311.686C363.066 312.077 362.871 312.453 362.58 312.525L27.3482 394.699C27.3151 394.71 27.2832 394.713 27.2512 394.713Z" fill="#00344A"/>
<path d="M301.291 450.093C301.265 450.093 301.237 450.09 301.211 450.085L27.1719 394.706C26.8785 394.647 26.6765 394.28 26.721 393.886C26.7655 393.492 27.0384 393.225 27.3318 393.281L301.371 448.659C301.664 448.719 301.866 449.086 301.822 449.48C301.781 449.837 301.552 450.093 301.291 450.093Z" fill="#00344A"/>
<path d="M301.291 450.09C301.197 450.09 301.102 450.056 301.015 449.987C300.761 449.783 300.678 449.34 300.831 449L362.023 311.447C362.175 311.105 362.505 310.993 362.759 311.199C363.013 311.403 363.097 311.846 362.944 312.186L301.751 449.739C301.651 449.964 301.474 450.09 301.291 450.09Z" fill="#00344A"/>
<path d="M161.614 205.357C161.406 205.357 161.207 205.193 161.121 204.919C161.005 204.552 161.133 204.129 161.404 203.974L383.562 77.1395C383.834 76.9846 384.15 77.1532 384.265 77.5212C384.382 77.8876 384.254 78.3107 383.982 78.4656L161.824 205.301C161.755 205.337 161.684 205.357 161.614 205.357Z" fill="#00344A"/>
<path d="M362.485 312.539C362.464 312.539 362.442 312.537 362.42 312.534C362.126 312.486 361.917 312.126 361.953 311.732L383.236 77.7119C383.272 77.3164 383.539 77.0358 383.833 77.0834C384.127 77.1309 384.337 77.4912 384.3 77.8852L363.015 311.904C362.983 312.27 362.753 312.539 362.485 312.539Z" fill="#00344A"/>
<path d="M362.486 312.538C362.301 312.538 362.121 312.409 362.022 312.179C361.873 311.836 361.96 311.394 362.217 311.195L527.173 182.574C527.431 182.375 527.759 182.491 527.907 182.836C528.055 183.179 527.969 183.621 527.712 183.82L362.756 312.441C362.67 312.506 362.576 312.538 362.486 312.538Z" fill="#00344A"/>
<path d="M527.441 183.92C527.426 183.92 527.411 183.92 527.396 183.917L430.286 173.199C429.99 173.167 429.771 172.819 429.795 172.422C429.82 172.025 430.072 171.729 430.374 171.762L527.484 182.48C527.78 182.512 527.999 182.861 527.975 183.258C527.952 183.635 527.717 183.92 527.441 183.92Z" fill="#00344A"/>
<path d="M362.486 312.541C362.386 312.541 362.283 312.502 362.193 312.423C361.944 312.205 361.874 311.759 362.038 311.425L429.883 172.086C430.045 171.753 430.378 171.66 430.625 171.877C430.874 172.095 430.943 172.541 430.78 172.875L362.935 312.214C362.832 312.426 362.661 312.541 362.486 312.541Z" fill="#00344A"/>
<path d="M430.327 173.197C430.153 173.197 429.983 173.084 429.88 172.874L383.32 78.1958C383.156 77.8631 383.224 77.4169 383.471 77.1977C383.718 76.9785 384.052 77.0689 384.215 77.4016L430.775 172.081C430.938 172.414 430.871 172.86 430.623 173.079C430.532 173.159 430.429 173.197 430.327 173.197Z" fill="#00344A"/>
<path d="M301.294 450.091C301.145 450.091 300.996 450.008 300.891 449.846C300.695 449.547 300.718 449.091 300.941 448.829L527.09 182.655C527.311 182.393 527.651 182.422 527.847 182.723C528.042 183.022 528.019 183.477 527.796 183.739L301.647 449.912C301.546 450.031 301.419 450.091 301.294 450.091Z" fill="#00344A"/>
<path d="M161.609 205.354C161.424 205.354 161.245 205.226 161.146 204.996L126.558 125.502C126.408 125.159 126.494 124.717 126.75 124.516C127.008 124.316 127.335 124.432 127.484 124.775L162.072 204.27C162.221 204.613 162.135 205.055 161.88 205.256C161.794 205.323 161.7 205.354 161.609 205.354Z" fill="#00344A"/>
<path d="M127.02 125.86C126.757 125.86 126.526 125.597 126.489 125.237C126.449 124.843 126.654 124.48 126.948 124.425L383.694 77.0855C383.988 77.0287 384.258 77.3078 384.298 77.7018C384.338 78.0958 384.133 78.4591 383.839 78.5143L127.093 125.853C127.068 125.858 127.044 125.86 127.02 125.86Z" fill="#00344A"/>
<path d="M118.799 265.695C118.785 265.695 118.77 265.695 118.756 265.694C118.461 265.663 118.24 265.315 118.263 264.918L126.49 125.082C126.514 124.685 126.769 124.391 127.068 124.42C127.363 124.451 127.584 124.799 127.56 125.196L119.333 265.031C119.312 265.408 119.076 265.695 118.799 265.695Z" fill="#00344A"/>
<path d="M127.021 125.86C126.811 125.86 126.613 125.693 126.526 125.417C126.412 125.051 126.541 124.627 126.814 124.474L261.838 48.5519C262.111 48.3986 262.426 48.5719 262.54 48.9383C262.654 49.3047 262.525 49.7278 262.252 49.8811L127.228 125.803C127.161 125.842 127.091 125.86 127.021 125.86Z" fill="#00344A"/>
<path d="M383.77 78.521C383.739 78.521 383.708 78.518 383.677 78.5103L261.956 49.9272C261.664 49.8582 261.469 49.4856 261.52 49.0932C261.571 48.7007 261.85 48.437 262.141 48.5075L383.862 77.0906C384.155 77.1596 384.35 77.5322 384.298 77.9246C384.253 78.2742 384.026 78.521 383.77 78.521Z" fill="#00344A"/>
<path d="M217.482 514.849C217.296 514.849 217.116 514.721 217.017 514.489C216.869 514.144 216.957 513.704 217.214 513.505L301.022 448.748C301.279 448.55 301.607 448.668 301.755 449.013C301.902 449.358 301.815 449.8 301.558 449.998L217.75 514.754C217.665 514.819 217.574 514.849 217.482 514.849Z" fill="#00344A"/>
<path d="M217.484 514.848C217.251 514.848 217.037 514.642 216.968 514.326L198.67 428.934C198.587 428.553 198.752 428.152 199.037 428.042C199.323 427.932 199.619 428.154 199.702 428.536L218 513.928C218.082 514.31 217.918 514.71 217.633 514.82C217.582 514.839 217.532 514.848 217.484 514.848Z" fill="#00344A"/>
<path d="M217.482 514.85C217.337 514.85 217.193 514.771 217.087 514.618L152.052 419.782C151.851 419.489 151.865 419.034 152.083 418.764C152.301 418.496 152.64 418.514 152.841 418.805L217.876 513.641C218.077 513.934 218.063 514.39 217.845 514.659C217.742 514.787 217.612 514.85 217.482 514.85Z" fill="#00344A"/>
<path d="M27.2517 400.981C30.1262 400.981 32.4565 397.851 32.4565 393.991C32.4565 390.131 30.1262 387.002 27.2517 387.002C24.3772 387.002 22.0469 390.131 22.0469 393.991C22.0469 397.851 24.3772 400.981 27.2517 400.981Z" fill="#00344A"/>
<path d="M369.651 319.099C373.706 313.548 373.791 304.829 369.84 299.625C365.89 294.422 359.4 294.704 355.346 300.256C351.291 305.808 351.206 314.527 355.157 319.73C359.107 324.934 365.597 324.651 369.651 319.099Z" fill="#00344A"/>
<path d="M383.77 86.3299C387.278 86.3299 390.122 82.5108 390.122 77.7997C390.122 73.0886 387.278 69.2695 383.77 69.2695C380.262 69.2695 377.418 73.0886 377.418 77.7997C377.418 82.5108 380.262 86.3299 383.77 86.3299Z" fill="#00344A"/>
<path d="M162.932 215.262C167.307 214.286 170.265 208.733 169.538 202.857C168.812 196.982 164.676 193.01 160.301 193.986C155.926 194.961 152.968 200.515 153.694 206.39C154.421 212.266 158.556 216.238 162.932 215.262Z" fill="#00344A"/>
<path d="M531.679 186.944C533.514 184.48 533.514 180.485 531.679 178.02C529.844 175.556 526.869 175.556 525.034 178.02C523.199 180.485 523.199 184.48 525.034 186.944C526.869 189.409 529.844 189.409 531.679 186.944Z" fill="#00344A"/>
<path d="M127.896 132.06C130.743 131.403 132.655 127.771 132.165 123.947C131.676 120.124 128.971 117.557 126.124 118.214C123.277 118.872 121.365 122.504 121.855 126.327C122.344 130.15 125.049 132.717 127.896 132.06Z" fill="#00344A"/>
<path d="M305.883 455.549C308.423 452.138 308.423 446.608 305.883 443.197C303.343 439.786 299.225 439.786 296.685 443.197C294.145 446.608 294.145 452.138 296.685 455.549C299.225 458.96 303.343 458.96 305.883 455.549Z" fill="#00344A"/>
<path d="M217.483 518.524C219.29 518.524 220.755 516.557 220.755 514.13C220.755 511.704 219.29 509.736 217.483 509.736C215.676 509.736 214.211 511.704 214.211 514.13C214.211 516.557 215.676 518.524 217.483 518.524Z" fill="#00344A"/>
<path d="M262.668 52.7857C264.145 52.3174 265.059 50.3299 264.711 48.3464C264.362 46.363 262.882 45.1348 261.405 45.6032C259.928 46.0715 259.013 48.059 259.362 50.0425C259.711 52.0259 261.191 53.2541 262.668 52.7857Z" fill="#00344A"/>
<path d="M432.875 173.882C433.456 171.999 432.79 169.84 431.388 169.06C429.986 168.28 428.379 169.175 427.798 171.057C427.217 172.94 427.883 175.099 429.285 175.879C430.687 176.659 432.295 175.765 432.875 173.882Z" fill="#00344A"/>
</g>
<defs>
<clipPath id="clip0_2162_20063">
<rect width="535" height="535" fill="white"/>
</clipPath>
</defs>
</svg>
