<svg width="497" height="497" viewBox="0 0 497 497" fill="none" xmlns="http://www.w3.org/2000/svg">
<g clip-path="url(#clip0_327_58332)">
<g opacity="0.3">
<path d="M83.8281 258.84L176.111 102.297L176.305 102.683L250.904 259.323H250.518L83.8281 258.84ZM176.015 103.263L84.6978 258.26L250.131 258.84L176.015 103.263Z" fill="#62818E"/>
<path d="M250.522 259.511L250.329 259.124L175.633 102.484H176.019L336.138 120.361L335.945 120.651L250.522 259.511ZM176.406 103.064L250.522 258.545L335.268 120.748L176.406 103.064Z" fill="#62818E"/>
<path d="M336.132 120.85H335.746L175.434 102.973L176.013 102.587L295.547 21.2227L295.643 21.5126L336.132 120.85ZM176.69 102.587L335.359 120.27L295.353 21.8991L176.69 102.587Z" fill="#62818E"/>
<path d="M175.924 103.166L175.827 102.876L141.137 32.5286H141.523L296.327 21.2227L175.924 103.166ZM141.91 33.0117L176.117 102.49L294.588 21.8991L141.91 33.0117Z" fill="#62818E"/>
<path d="M141.522 33.0083L141.426 32.5252L246.658 12.4258L297.196 21.7024L141.522 33.0083ZM246.754 12.9089L145.678 32.2353L293.524 21.5092L246.754 12.9089Z" fill="#62818E"/>
<path d="M414.312 125.87L335.557 120.748L335.46 120.652L294.875 20.7344L414.312 125.87ZM335.847 120.362L412.959 125.386L296.035 22.3771L335.847 120.362Z" fill="#62818E"/>
<path d="M414.116 126.644L294.293 20.832L374.207 50.9811V51.0778L414.116 126.644ZM296.612 22.2815L412.57 124.614L373.821 51.3676L296.612 22.2815Z" fill="#62818E"/>
<path d="M413.537 125.869L373.145 49.8203L439.724 116.206L413.537 125.869ZM374.981 52.526L413.73 125.29L438.757 116.013L374.981 52.526Z" fill="#62818E"/>
<path d="M460.403 150.125L412.957 125.58L439.241 115.82L460.403 150.125ZM414.213 125.677L459.147 148.965L439.144 116.497L414.213 125.677Z" fill="#62818E"/>
<path d="M425.519 261.637H425.036L250.133 259.318L250.326 258.931L335.748 120.168L335.942 120.458L425.519 261.637ZM251.002 258.834L424.65 261.057L335.748 121.038L251.002 258.834Z" fill="#62818E"/>
<path d="M322.8 415.379L322.607 414.993L250.133 258.836L425.519 261.155L425.326 261.542L322.8 415.379ZM250.906 259.319L322.896 414.413L424.553 261.542L250.906 259.319Z" fill="#62818E"/>
<path d="M171.57 393.153L171.376 392.766L83.8281 258.352H84.2147L250.904 259.028L250.711 259.414L171.57 393.153ZM84.6978 258.835L171.57 392.186L250.131 259.511L84.6978 258.835Z" fill="#62818E"/>
<path d="M71.7578 398.462V398.173L84.03 257.863L84.4166 258.443L171.965 392.858H171.578L71.7578 398.462ZM84.4166 259.313L72.241 397.979L171.095 392.471L84.4166 259.313Z" fill="#62818E"/>
<path d="M207.713 480.609L71.2695 398.085H72.0426L171.766 392.48L171.863 392.674L207.713 480.609ZM72.8156 398.375L206.651 479.449L171.38 392.964L72.8156 398.375Z" fill="#62818E"/>
<path d="M209.068 480.801L132.535 456.74L70.3047 396.828L209.068 480.801ZM132.729 456.45L205.299 479.158L73.6868 399.534L132.729 456.45Z" fill="#62818E"/>
<path d="M73.0072 399.821L43.3413 363.198L8.84375 258.642L9.32691 258.449L73.0072 399.821ZM43.8244 363.005L70.9779 396.536L10.7764 262.798L43.8244 363.005Z" fill="#62818E"/>
<path d="M246.749 485.823L205.004 479.929L350.145 468.043L350.241 468.526L246.749 485.823ZM209.352 480.025L246.749 485.243L344.443 468.913L209.352 480.025Z" fill="#62818E"/>
<path d="M207.038 480.317L171.188 392.285L171.574 392.382L323.576 414.8L322.996 415.187L207.038 480.317ZM171.961 392.962L207.328 479.64L322.223 414.994L171.961 392.962Z" fill="#62818E"/>
<path d="M206.07 480.314L207.037 479.734L322.995 414.508L323.091 414.701L350.535 468.428H350.148L206.07 480.314ZM322.801 415.281L208.293 479.734L349.858 468.138L322.801 415.281Z" fill="#62818E"/>
<path d="M350.148 468.719L349.955 468.429L322.512 414.991L322.802 414.895L440.016 382.137L439.339 382.813L350.148 468.719ZM323.285 415.378L350.245 467.946L438.373 383.2L323.285 415.378Z" fill="#62818E"/>
<path d="M72.1404 399.144L8.75 258.352H84.5092V258.641L72.1404 399.144ZM9.52306 258.835L71.8505 397.308L83.9295 258.835H9.52306Z" fill="#62818E"/>
<path d="M50.8828 137.757L51.366 137.177L141.523 32.332L141.717 32.6219L176.311 102.873L50.8828 137.757ZM141.523 33.2017L52.3323 136.888L175.731 102.68L141.523 33.2017Z" fill="#62818E"/>
<path d="M84.5092 258.832H8.75L8.84664 258.542L51.5578 136.496L84.5092 258.832ZM9.42642 258.349H83.8328L51.4612 138.139L9.42642 258.349Z" fill="#62818E"/>
<path d="M9.32691 258.64L8.84375 258.544L33.8713 156.114L52.1347 136.305L9.32691 258.64ZM34.3545 156.307L10.4865 253.809L50.9752 138.334L34.3545 156.307Z" fill="#62818E"/>
<path d="M33.2969 157.562L46.5354 129.732L141.428 32.6172L141.814 32.9071L51.8502 137.463L33.2969 157.562ZM46.9219 130.022L35.1329 154.856L51.4636 137.076L136.403 38.3185L46.9219 130.022Z" fill="#62818E"/>
<path d="M84.1204 259.227L83.9271 258.647L51.2656 137.084L51.4589 136.988L176.5 102.297L176.21 102.78L84.1204 259.227ZM51.8454 137.471L84.3137 257.97L175.534 103.167L51.8454 137.471Z" fill="#62818E"/>
<path d="M323.286 415.18L322.803 415.083L171.188 392.761L171.381 392.472L250.619 258.637L250.812 259.12L323.286 415.18ZM171.961 392.472L322.513 414.6L250.619 259.796L171.961 392.472Z" fill="#62818E"/>
<path d="M322.32 415.28L322.707 414.7L425.233 261.152L425.33 261.829L439.438 382.812L439.245 382.908L322.32 415.28ZM424.943 262.602L323.48 414.507L438.955 382.425L424.943 262.602Z" fill="#62818E"/>
<path d="M439.051 383.588L424.75 261.059L487.754 262.798L487.85 263.088L439.051 383.588ZM425.33 261.542L439.341 381.655L487.271 263.281L425.33 261.542Z" fill="#62818E"/>
<path d="M425.424 262.894L424.941 262.024L335.363 120.266L413.925 125.29V125.484L425.424 262.894ZM336.136 120.845L424.748 260.961L413.442 125.87L336.136 120.845Z" fill="#62818E"/>
<path d="M487.652 263.282L424.842 261.542L413.246 124.422L487.652 263.282ZM425.228 261.059L487.169 262.798L413.923 126.741L425.228 261.059Z" fill="#62818E"/>
<path d="M487.847 263.083H487.363L412.957 124.996L459.92 149.347V149.444L487.847 263.083ZM414.213 126.156L486.88 261.247L459.534 149.734L414.213 126.156Z" fill="#62818E"/>
<path d="M106.44 167.226L105.957 167.033L141.228 33.1016L141.711 33.2948L106.44 167.226Z" fill="#62818E"/>
<path d="M106.341 167.326L106.051 166.939L295.642 21.2188L295.932 21.6053L106.341 167.326Z" fill="#62818E"/>
<path d="M106.266 166.957L105.992 167.355L180.512 218.612L180.785 218.214L106.266 166.957Z" fill="#62818E"/>
<path d="M180.845 218.544L180.555 218.157L277.476 151.191L277.766 151.578L180.845 218.544Z" fill="#62818E"/>
<path d="M277.866 151.384L277.383 151.287L295.55 21.4141L296.033 21.5107L277.866 151.384Z" fill="#62818E"/>
<path d="M141.633 33.0766L141.316 33.4414L277.399 151.592L277.716 151.228L141.633 33.0766Z" fill="#62818E"/>
<path d="M277.836 151.299L277.387 151.477L328.37 280.734L328.819 280.556L277.836 151.299Z" fill="#62818E"/>
<path d="M328.498 280.87L180.555 218.639L180.748 218.156L328.691 280.484L328.498 280.87Z" fill="#62818E"/>
<path d="M180.384 218.287L166.176 318.555L166.654 318.622L180.862 218.355L180.384 218.287Z" fill="#62818E"/>
<path d="M328.498 280.534L166.348 318.312L166.457 318.783L328.608 281.005L328.498 280.534Z" fill="#62818E"/>
<path d="M9.32404 258.834L8.9375 258.448L106.052 166.938L106.342 167.324L9.32404 258.834Z" fill="#62818E"/>
<path d="M106.429 167.013L105.98 167.191L166.232 318.667L166.681 318.489L106.429 167.013Z" fill="#62818E"/>
<path d="M394.209 176.605L277.574 151.577L277.671 151.094L394.305 176.121L394.209 176.605Z" fill="#62818E"/>
<path d="M328.793 280.774L328.406 280.581L394.019 176.219L394.502 176.412L328.793 280.774Z" fill="#62818E"/>
<path d="M296.064 21.3072L295.656 21.5664L394.088 176.443L394.495 176.184L296.064 21.3072Z" fill="#62818E"/>
<path d="M413.594 125.547L394.047 176.316L394.498 176.49L414.045 125.72L413.594 125.547Z" fill="#62818E"/>
<path d="M487.266 263.376L394.113 176.504L394.403 176.117L487.653 263.086L487.266 263.376Z" fill="#62818E"/>
<path d="M328.594 280.869V280.386L487.456 262.992V263.475L328.594 280.869Z" fill="#62818E"/>
<path d="M332.948 361.557L328.406 280.676H328.889L333.431 361.46L332.948 361.557Z" fill="#62818E"/>
<path d="M333.213 361.272L333.121 361.746L439.452 382.414L439.544 381.94L333.213 361.272Z" fill="#62818E"/>
<path d="M333.329 361.743L333.039 361.26L487.36 263.082L487.553 263.469L333.329 361.743Z" fill="#62818E"/>
<path d="M349.956 468.138L332.949 361.554L333.432 361.457L350.44 468.042L349.956 468.138Z" fill="#62818E"/>
<path d="M332.942 361.298L206.93 480.207L207.261 480.558L333.274 361.65L332.942 361.298Z" fill="#62818E"/>
<path d="M166.523 318.376L166.402 318.844L333.176 361.738L333.296 361.27L166.523 318.376Z" fill="#62818E"/>
<path d="M166.177 318.615L145.441 414.574L145.914 414.676L166.649 318.717L166.177 318.615Z" fill="#62818E"/>
<path d="M206.838 480.51L145.477 414.704L145.766 414.414L207.224 480.124L206.838 480.51Z" fill="#62818E"/>
<path d="M145.349 414.504L132.211 456.664L132.672 456.808L145.81 414.648L145.349 414.504Z" fill="#62818E"/>
<path d="M145.573 414.799L72.1328 398.178L72.2294 397.695L145.67 414.316L145.573 414.799Z" fill="#62818E"/>
<path d="M333.097 361.341L145.539 414.355L145.67 414.82L333.229 361.806L333.097 361.341Z" fill="#62818E"/>
<path d="M145.478 414.711L66.4336 322.524L66.8201 322.234L145.768 414.421L145.478 414.711Z" fill="#62818E"/>
<path d="M166.496 318.333L66.6484 322.047L66.6664 322.53L166.514 318.815L166.496 318.333Z" fill="#62818E"/>
<path d="M105.882 167.118L66.4766 322.305L66.9448 322.424L106.35 167.237L105.882 167.118Z" fill="#62818E"/>
<path d="M66.4334 322.52L8.9375 258.84L9.32404 258.453L66.8199 322.23L66.4334 322.52Z" fill="#62818E"/>
<path d="M43.7253 363.303L43.2422 363.11L66.4338 322.234L66.8203 322.428L43.7253 363.303Z" fill="#62818E"/>
<path d="M106.052 167.329L46.5273 129.836L46.8172 129.449L106.342 166.942L106.052 167.329Z" fill="#62818E"/>
<path d="M206.358 90.1177L205.875 89.8278L246.75 12.4258L247.137 12.619L206.358 90.1177Z" fill="#62818E"/>
<path d="M277.769 151.574L277.383 151.187L373.628 50.5938L374.015 50.9803L277.769 151.574Z" fill="#62818E"/>
<path d="M183.359 218.152C183.359 219.602 182.199 220.761 180.75 220.761C179.3 220.761 178.141 219.602 178.141 218.152C178.141 216.703 179.3 215.543 180.75 215.543C182.199 215.64 183.359 216.799 183.359 218.152Z" fill="#62818E"/>
<path d="M108.663 167.226C108.663 168.676 107.504 169.835 106.054 169.835C104.605 169.835 103.445 168.676 103.445 167.226C103.445 165.777 104.605 164.617 106.054 164.617C107.504 164.617 108.663 165.777 108.663 167.226Z" fill="#62818E"/>
<path d="M168.96 318.355C168.96 319.805 167.801 320.964 166.351 320.964C164.902 320.964 163.742 319.805 163.742 318.355C163.742 316.906 164.902 315.746 166.351 315.746C167.801 315.746 168.96 316.906 168.96 318.355Z" fill="#62818E"/>
<path d="M69.0462 322.515C69.0462 323.965 67.8867 325.124 66.4372 325.124C64.9877 325.124 63.8281 323.965 63.8281 322.515C63.8281 321.066 64.9877 319.906 66.4372 319.906C67.8867 319.906 69.0462 321.066 69.0462 322.515Z" fill="#62818E"/>
<path d="M145.675 417.027C147.116 417.027 148.285 415.859 148.285 414.418C148.285 412.977 147.116 411.809 145.675 411.809C144.235 411.809 143.066 412.977 143.066 414.418C143.066 415.859 144.235 417.027 145.675 417.027Z" fill="#62818E"/>
<path d="M335.648 361.265C335.648 362.715 334.488 363.874 333.039 363.874C331.589 363.874 330.43 362.715 330.43 361.265C330.43 359.816 331.589 358.656 333.039 358.656C334.585 358.656 335.648 359.816 335.648 361.265Z" fill="#62818E"/>
<path d="M330.921 280.383C330.921 281.832 329.762 282.992 328.312 282.992C326.863 282.992 325.703 281.832 325.703 280.383C325.703 278.933 326.863 277.773 328.312 277.773C329.762 277.87 330.921 279.03 330.921 280.383Z" fill="#62818E"/>
<path d="M280.378 151.379C280.378 152.828 279.219 153.988 277.769 153.988C276.32 153.988 275.16 152.828 275.16 151.379C275.16 149.929 276.32 148.77 277.769 148.77C279.219 148.77 280.378 150.026 280.378 151.379Z" fill="#62818E"/>
<path d="M396.628 176.41C396.628 177.859 395.469 179.019 394.019 179.019C392.57 179.019 391.41 177.859 391.41 176.41C391.41 174.96 392.57 173.801 394.019 173.801C395.469 173.801 396.628 174.96 396.628 176.41Z" fill="#62818E"/>
<path d="M209.55 90.1169C209.55 91.5664 208.391 92.7259 206.941 92.7259C205.492 92.7259 204.332 91.5664 204.332 90.1169C204.332 88.6674 205.492 87.5078 206.941 87.5078C208.391 87.5078 209.55 88.6674 209.55 90.1169Z" fill="#62818E"/>
<path d="M490.163 263.185C490.163 264.924 488.713 266.374 486.974 266.374C485.235 266.374 483.785 264.924 483.785 263.185C483.785 261.446 485.235 259.996 486.974 259.996C488.713 259.996 490.163 261.349 490.163 263.185Z" fill="#62818E"/>
<path d="M428.703 261.064C428.703 263.19 426.964 264.93 424.838 264.93C422.712 264.93 420.973 263.19 420.973 261.064C420.973 258.939 422.712 257.199 424.838 257.199C426.964 257.199 428.703 258.939 428.703 261.064Z" fill="#62818E"/>
<path d="M326.18 415.381C326.18 417.507 324.44 419.246 322.314 419.246C320.189 419.246 318.449 417.507 318.449 415.381C318.449 413.255 320.189 411.516 322.314 411.516C324.44 411.516 326.18 413.255 326.18 415.381Z" fill="#62818E"/>
<path d="M443.395 381.658C443.395 383.784 441.655 385.524 439.529 385.524C437.403 385.524 435.664 383.784 435.664 381.658C435.664 379.532 437.403 377.793 439.529 377.793C441.655 377.793 443.395 379.436 443.395 381.658Z" fill="#62818E"/>
<path d="M353.046 468.721C353.046 470.267 351.79 471.524 350.244 471.524C348.698 471.524 347.441 470.267 347.441 468.721C347.441 467.175 348.698 465.919 350.244 465.919C351.79 465.822 353.046 467.175 353.046 468.721Z" fill="#62818E"/>
<path d="M246.267 487.951C247.441 487.951 248.392 486.999 248.392 485.825C248.392 484.651 247.441 483.699 246.267 483.699C245.092 483.699 244.141 484.651 244.141 485.825C244.141 486.999 245.092 487.951 246.267 487.951Z" fill="#62818E"/>
<path d="M210.414 480.318C210.414 482.444 208.675 484.184 206.549 484.184C204.423 484.184 202.684 482.444 202.684 480.318C202.684 478.192 204.423 476.453 206.549 476.453C208.675 476.453 210.414 478.192 210.414 480.318Z" fill="#62818E"/>
<path d="M134.173 456.841C134.173 458.193 133.11 459.353 131.661 459.353C130.308 459.353 129.148 458.29 129.148 456.841C129.148 455.488 130.211 454.328 131.661 454.328C133.014 454.425 134.173 455.488 134.173 456.841Z" fill="#62818E"/>
<path d="M175.141 393.158C175.141 395.284 173.401 397.023 171.275 397.023C169.15 397.023 167.41 395.284 167.41 393.158C167.41 391.032 169.15 389.293 171.275 389.293C173.401 389.196 175.141 390.936 175.141 393.158Z" fill="#62818E"/>
<path d="M75.4219 398.471C75.4219 400.597 73.6826 402.336 71.5567 402.336C69.4308 402.336 67.6914 400.597 67.6914 398.471C67.6914 396.345 69.4308 394.605 71.5567 394.605C73.6826 394.605 75.4219 396.345 75.4219 398.471Z" fill="#62818E"/>
<path d="M46.5289 363.876C46.5289 365.229 45.466 366.195 44.2098 366.195C42.9536 366.195 41.8906 365.132 41.8906 363.876C41.8906 362.523 42.9536 361.557 44.2098 361.557C45.466 361.46 46.5289 362.523 46.5289 363.876Z" fill="#62818E"/>
<path d="M254.774 258.842C254.774 260.968 253.034 262.707 250.908 262.707C248.782 262.707 247.043 260.968 247.043 258.842C247.043 256.716 248.782 254.977 250.908 254.977C253.034 254.977 254.774 256.619 254.774 258.842Z" fill="#62818E"/>
<path d="M88.4649 259.322C88.4649 261.448 86.7255 263.187 84.5996 263.187C82.4737 263.187 80.7344 261.448 80.7344 259.322C80.7344 257.196 82.4737 255.457 84.5996 255.457C86.7255 255.36 88.4649 257.1 88.4649 259.322Z" fill="#62818E"/>
<path d="M11.7399 258.452C11.7399 259.708 10.6769 260.771 9.42072 260.771C8.16451 260.771 7.10156 259.708 7.10156 258.452C7.10156 257.196 8.16451 256.133 9.42072 256.133C10.7736 256.133 11.7399 257.196 11.7399 258.452Z" fill="#62818E"/>
<path d="M55.8985 137.76C55.8985 139.886 54.1591 141.625 52.0332 141.625C49.9073 141.625 48.168 139.886 48.168 137.76C48.168 135.634 49.9073 133.894 52.0332 133.894C54.1591 133.798 55.8985 135.537 55.8985 137.76Z" fill="#62818E"/>
<path d="M180.266 103.162C180.266 105.288 178.526 107.027 176.4 107.027C174.275 107.027 172.535 105.288 172.535 103.162C172.535 101.036 174.275 99.2966 176.4 99.2966C178.526 99.2 180.266 101.036 180.266 103.162Z" fill="#62818E"/>
<path d="M145.672 33.2986C145.672 35.4245 143.933 37.1639 141.807 37.1639C139.681 37.1639 137.941 35.4245 137.941 33.2986C137.941 31.1727 139.681 29.4333 141.807 29.4333C143.836 29.3367 145.672 31.1727 145.672 33.2986Z" fill="#62818E"/>
<path d="M250.325 11.9458C250.325 13.4919 249.069 14.8448 247.426 14.8448C245.88 14.8448 244.527 13.5886 244.527 11.9458C244.527 10.3997 245.784 9.04688 247.426 9.04688C249.069 9.14351 250.325 10.3997 250.325 11.9458Z" fill="#62818E"/>
<path d="M299.703 22.3809C299.703 24.5068 297.964 26.2462 295.838 26.2462C293.712 26.2462 291.973 24.5068 291.973 22.3809C291.973 20.255 293.712 18.5156 295.838 18.5156C297.964 18.5156 299.703 20.255 299.703 22.3809Z" fill="#62818E"/>
<path d="M339.414 120.174C339.414 122.3 337.675 124.039 335.549 124.039C333.423 124.039 331.684 122.3 331.684 120.174C331.684 118.048 333.423 116.308 335.549 116.308C337.675 116.212 339.414 118.048 339.414 120.174Z" fill="#62818E"/>
<path d="M376.428 49.9212C376.428 51.7572 374.979 53.3033 373.046 53.3033C371.21 53.3033 369.664 51.8538 369.664 49.9212C369.664 47.9885 371.114 46.5391 373.046 46.5391C374.882 46.5391 376.428 48.0852 376.428 49.9212Z" fill="#62818E"/>
<path d="M417.203 125.873C417.203 127.999 415.464 129.738 413.338 129.738C411.212 129.738 409.473 127.999 409.473 125.873C409.473 123.747 411.212 122.008 413.338 122.008C415.464 122.008 417.203 123.747 417.203 125.873Z" fill="#62818E"/>
<path d="M439.624 118.915C441.118 118.915 442.329 117.704 442.329 116.21C442.329 114.715 441.118 113.504 439.624 113.504C438.129 113.504 436.918 114.715 436.918 116.21C436.918 117.704 438.129 118.915 439.624 118.915Z" fill="#62818E"/>
<path d="M460.404 153.316C462.539 153.316 464.27 151.586 464.27 149.451C464.27 147.316 462.539 145.586 460.404 145.586C458.27 145.586 456.539 147.316 456.539 149.451C456.539 151.586 458.27 153.316 460.404 153.316Z" fill="#62818E"/>
<path d="M49.3332 128.971C49.3332 130.421 48.1737 131.677 46.6276 131.677C45.1781 131.677 43.9219 130.517 43.9219 128.971C43.9219 127.522 45.0814 126.266 46.6276 126.266C48.1737 126.266 49.3332 127.522 49.3332 128.971Z" fill="#62818E"/>
<path d="M35.611 156.704C35.611 158.057 34.548 159.023 33.2918 159.023C31.939 159.023 30.9727 157.96 30.9727 156.704C30.9727 155.351 32.0356 154.385 33.2918 154.385C34.548 154.288 35.611 155.351 35.611 156.704Z" fill="#62818E"/>
</g>
<path d="M78.9642 255.166L177.602 96.4608L177.792 96.8628L250.708 259.687L250.311 259.677L78.9642 255.166ZM177.48 97.4519L79.8722 254.591L249.925 259.171L177.48 97.4519Z" fill="#00344A"/>
<path d="M250.307 259.876L250.117 259.474L177.102 96.6484L177.499 96.6577L341.672 118.892L341.466 119.185L250.307 259.876ZM177.882 97.2631L250.33 258.883L340.768 119.268L177.882 97.2631Z" fill="#00344A"/>
<path d="M341.655 119.389L341.258 119.38L176.887 97.1416L177.492 96.7582L302.333 15.9944L302.425 16.2947L341.655 119.389ZM178.187 96.7745L340.875 118.775L302.118 16.6851L178.187 96.7745Z" fill="#00344A"/>
<path d="M177.386 97.35L177.293 97.0496L143.325 23.896L143.723 23.9053L303.135 16.0111L177.386 97.35ZM144.108 24.4113L177.601 96.6592L301.33 16.6645L144.108 24.4113Z" fill="#00344A"/>
<path d="M143.709 24.4035L143.621 23.9045L252.285 5.7766L304.015 16.5302L143.709 24.4035ZM252.372 6.27562L147.999 23.7089L300.245 16.2431L252.372 6.27562Z" fill="#00344A"/>
<path d="M421.902 126.437L341.065 119.275L340.968 119.174L301.652 15.4805L421.902 126.437ZM341.372 118.885L420.523 125.908L302.805 17.1971L341.372 118.885Z" fill="#00344A"/>
<path d="M421.682 127.224L301.051 15.5625L382.477 48.4807L382.475 48.58L421.682 127.224ZM303.4 17.1084L420.141 125.1L382.071 48.8687L303.4 17.1084Z" fill="#00344A"/>
<path d="M421.11 126.418L381.418 47.2656L448.263 117.114L421.11 126.418ZM383.24 50.0913L421.322 125.826L447.274 116.892L383.24 50.0913Z" fill="#00344A"/>
<path d="M468.707 152.478L420.523 126.103L447.778 116.703L468.707 152.478ZM421.812 126.233L467.443 151.256L447.662 117.396L421.812 126.233Z" fill="#00344A"/>
<path d="M430.157 266.272L429.66 266.261L249.914 259.664L250.122 259.271L341.279 118.679L341.471 118.982L430.157 266.272ZM250.82 259.188L429.277 265.655L341.258 119.573L250.82 259.188Z" fill="#00344A"/>
<path d="M320.854 421.846L320.665 421.444L249.922 259.168L430.165 265.776L429.957 266.169L320.854 421.846ZM250.705 259.683L320.977 420.855L429.162 266.15L250.705 259.683Z" fill="#00344A"/>
<path d="M165.921 395.362L165.732 394.96L78.9688 254.672L79.3661 254.681L250.708 259.391L250.5 259.784L165.921 395.362ZM79.8512 255.19L165.944 394.368L249.902 259.869L79.8512 255.19Z" fill="#00344A"/>
<path d="M63.1802 398.42L63.1872 398.122L79.1824 254.178L79.5657 254.784L166.329 395.072L165.931 395.062L63.1802 398.42ZM79.5448 255.678L63.6885 397.935L165.444 394.653L79.5448 255.678Z" fill="#00344A"/>
<path d="M200.975 486.129L62.697 398.008L63.4918 398.026L166.144 394.666L166.238 394.867L200.975 486.129ZM64.2795 398.343L199.91 484.911L165.735 395.154L64.2795 398.343Z" fill="#00344A"/>
<path d="M202.365 486.362L124.269 459.784L61.7383 396.695L202.365 486.362ZM124.475 459.49L198.531 484.583L65.15 399.558L124.475 459.49Z" fill="#00344A"/>
<path d="M64.4424 399.838L34.8276 361.474L1.88206 253.16L2.38341 252.973L64.4424 399.838ZM35.329 361.287L62.4354 396.412L3.76875 257.478L35.329 361.287Z" fill="#00344A"/>
<path d="M240.978 492.436L198.206 485.371L347.698 476.648L347.786 477.147L240.978 492.436ZM202.674 485.575L240.992 491.84L341.816 477.405L202.674 485.575Z" fill="#00344A"/>
<path d="M200.289 485.814L165.555 394.453L165.95 394.562L321.669 421.269L321.063 421.652L200.289 485.814ZM166.333 395.167L200.603 485.125L320.273 421.435L166.333 395.167Z" fill="#00344A"/>
<path d="M199.29 485.798L200.297 485.225L321.074 420.964L321.169 421.165L348.087 477.058L347.69 477.049L199.29 485.798ZM320.857 421.754L201.589 485.255L347.398 476.744L320.857 421.754Z" fill="#00344A"/>
<path d="M347.685 477.341L347.493 477.038L320.568 421.443L320.868 421.351L442.155 390.498L441.443 391.177L347.685 477.341ZM321.354 421.859L347.803 476.548L440.44 391.551L321.354 421.859Z" fill="#00344A"/>
<path d="M63.564 399.126L1.78906 252.863L79.6701 254.688L79.6632 254.986L63.564 399.126ZM2.57213 253.379L63.3102 397.231L79.0625 255.171L2.57213 253.379Z" fill="#00344A"/>
<path d="M48.0117 129.901L48.5224 129.317L143.73 23.7064L143.922 24.0091L177.793 97.061L48.0117 129.901ZM143.709 24.6005L49.5227 129.042L177.201 96.8484L143.709 24.6005Z" fill="#00344A"/>
<path d="M79.6574 255.176L1.77631 253.352L1.88264 253.056L48.7294 128.621L79.6574 255.176ZM2.48331 252.871L78.9736 254.663L48.5905 130.307L2.48331 252.871Z" fill="#00344A"/>
<path d="M2.38238 253.172L1.88802 253.061L30.0835 148.366L49.3355 128.441L2.38238 253.172ZM30.5755 148.576L3.6908 248.233L48.0946 130.499L30.5755 148.576Z" fill="#00344A"/>
<path d="M29.4479 149.843L43.7274 121.552L143.616 24.0027L144.007 24.31L49.0048 129.627L29.4479 149.843ZM44.1178 121.859L31.4004 147.105L48.6168 129.22L138.313 29.7426L44.1178 121.859Z" fill="#00344A"/>
<path d="M79.2493 255.566L79.0646 254.965L48.4161 129.211L48.6171 129.116L177.996 96.4654L177.686 96.9551L79.2493 255.566ZM49.0028 129.622L79.4783 254.279L176.982 97.3361L49.0028 129.622Z" fill="#00344A"/>
<path d="M321.358 421.661L320.863 421.55L165.539 394.952L165.745 394.658L250.425 258.983L250.613 259.485L321.358 421.661ZM166.341 394.672L320.577 421.047L250.398 260.175L166.341 394.672Z" fill="#00344A"/>
<path d="M320.362 421.737L320.774 421.15L429.869 265.772L429.952 266.469L441.542 391.18L441.341 391.275L320.362 421.737ZM429.536 267.255L321.573 420.97L441.055 390.771L429.536 267.255Z" fill="#00344A"/>
<path d="M441.13 391.961L429.379 265.656L494.105 268.962L494.198 269.262L441.13 391.961ZM429.963 266.167L441.474 389.982L493.597 269.447L429.963 266.167Z" fill="#00344A"/>
<path d="M430.023 267.562L429.547 266.656L340.875 118.77L421.516 125.827L421.511 126.026L430.023 267.562ZM341.656 119.384L429.374 265.559L421.005 126.412L341.656 119.384Z" fill="#00344A"/>
<path d="M493.994 269.463L429.466 266.162L420.848 124.922L493.994 269.463ZM429.875 265.675L493.509 268.954L421.487 127.322L429.875 265.675Z" fill="#00344A"/>
<path d="M494.196 269.266L493.7 269.254L420.535 125.508L468.227 151.672L468.225 151.771L494.196 269.266ZM421.799 126.73L493.247 267.355L467.82 152.06L421.799 126.73Z" fill="#00344A"/>
<path d="M104.403 161.541L103.911 161.331L143.395 24.4979L143.887 24.7082L104.403 161.541Z" fill="#00344A"/>
<path d="M104.307 161.64L104.018 161.235L302.429 15.9997L302.717 16.4041L104.307 161.64Z" fill="#00344A"/>
<path d="M104.236 161.261L103.945 161.664L179.317 216.151L179.609 215.748L104.236 161.261Z" fill="#00344A"/>
<path d="M179.664 216.082L179.375 215.677L280.624 149.17L280.913 149.575L179.664 216.082Z" fill="#00344A"/>
<path d="M281.015 149.383L280.521 149.272L302.324 16.1992L302.818 16.3102L281.015 149.383Z" fill="#00344A"/>
<path d="M143.823 24.4841L143.488 24.8516L280.537 149.589L280.871 149.222L143.823 24.4841Z" fill="#00344A"/>
<path d="M280.986 149.293L280.52 149.465L329.817 283.57L330.284 283.399L280.986 149.293Z" fill="#00344A"/>
<path d="M329.947 283.709L179.359 216.172L179.57 215.68L330.155 283.317L329.947 283.709Z" fill="#00344A"/>
<path d="M179.193 215.809L162.172 318.543L162.662 318.624L179.683 215.891L179.193 215.809Z" fill="#00344A"/>
<path d="M329.954 283.366L162.352 318.297L162.453 318.783L330.055 283.852L329.954 283.366Z" fill="#00344A"/>
<path d="M2.36771 253.37L1.97966 252.964L104.018 161.23L104.307 161.634L2.36771 253.37Z" fill="#00344A"/>
<path d="M104.403 161.323L103.938 161.496L162.228 318.666L162.694 318.493L104.403 161.323Z" fill="#00344A"/>
<path d="M400.013 178.109L280.715 149.571L280.826 149.077L400.124 177.614L400.013 178.109Z" fill="#00344A"/>
<path d="M330.25 283.614L329.858 283.406L399.822 177.701L400.314 177.912L330.25 283.614Z" fill="#00344A"/>
<path d="M302.855 16.1028L302.43 16.3594L399.888 177.945L400.313 177.688L302.855 16.1028Z" fill="#00344A"/>
<path d="M421.165 126.092L399.848 177.812L400.307 178.002L421.624 126.281L421.165 126.092Z" fill="#00344A"/>
<path d="M493.586 269.551L399.916 178.003L400.224 177.612L493.99 269.263L493.586 269.551Z" fill="#00344A"/>
<path d="M330.05 283.713L330.062 283.217L493.792 269.162L493.781 269.659L330.05 283.713Z" fill="#00344A"/>
<path d="M332.576 366.767L329.855 283.512L330.352 283.523L333.075 366.679L332.576 366.767Z" fill="#00344A"/>
<path d="M332.86 366.48L332.754 366.965L441.565 390.773L441.671 390.288L332.86 366.48Z" fill="#00344A"/>
<path d="M332.965 366.97L332.678 366.467L493.686 269.256L493.875 269.658L332.965 366.97Z" fill="#00344A"/>
<path d="M347.492 476.743L332.576 366.763L333.075 366.676L347.991 476.655L347.492 476.743Z" fill="#00344A"/>
<path d="M332.577 366.503L200.172 485.707L200.504 486.076L332.91 366.872L332.577 366.503Z" fill="#00344A"/>
<path d="M162.537 318.366L162.402 318.844L332.814 366.956L332.949 366.478L162.537 318.366Z" fill="#00344A"/>
<path d="M162.17 318.607L138.543 416.754L139.026 416.87L162.653 318.723L162.17 318.607Z" fill="#00344A"/>
<path d="M200.074 486.015L138.579 416.888L138.884 416.597L200.48 485.627L200.074 486.015Z" fill="#00344A"/>
<path d="M138.451 416.679L123.93 459.703L124.4 459.862L138.922 416.837L138.451 416.679Z" fill="#00344A"/>
<path d="M138.675 416.988L63.5782 398.133L63.6892 397.639L138.786 416.494L138.675 416.988Z" fill="#00344A"/>
<path d="M332.736 366.545L138.648 416.527L138.772 417.008L332.86 367.026L332.736 366.545Z" fill="#00344A"/>
<path d="M138.582 416.888L59.5438 320.216L59.9481 319.927L138.887 416.597L138.582 416.888Z" fill="#00344A"/>
<path d="M162.503 318.325L59.7695 319.738L59.7764 320.235L162.51 318.821L162.503 318.325Z" fill="#00344A"/>
<path d="M103.84 161.412L59.5938 319.996L60.0723 320.13L104.319 161.545L103.84 161.412Z" fill="#00344A"/>
<path d="M59.5397 320.215L1.96725 253.366L2.37392 252.978L59.9441 319.926L59.5397 320.215Z" fill="#00344A"/>
<path d="M35.2146 361.59L34.7226 361.379L59.5482 319.918L59.9409 320.126L35.2146 361.59Z" fill="#00344A"/>
<path d="M104.007 161.632L43.7173 121.655L44.0246 121.265L104.314 161.242L104.007 161.632Z" fill="#00344A"/>
<path d="M208.977 84.6724L208.487 84.3628L252.372 5.77741L252.764 5.98539L208.977 84.6724Z" fill="#00344A"/>
<path d="M280.911 149.572L280.523 149.165L381.886 48.0719L382.274 48.4786L280.911 149.572Z" fill="#00344A"/>
<path d="M182.258 215.734C182.224 217.224 181.004 218.388 179.513 218.353C178.023 218.318 176.859 217.098 176.894 215.608C176.929 214.118 178.149 212.954 179.639 212.989C181.127 213.123 182.291 214.343 182.258 215.734Z" fill="#00344A"/>
<path d="M106.692 161.589C106.657 163.079 105.437 164.243 103.947 164.208C102.457 164.173 101.293 162.953 101.328 161.463C101.363 159.973 102.583 158.809 104.073 158.844C105.563 158.879 106.727 160.099 106.692 161.589Z" fill="#00344A"/>
<path d="M165.04 318.398C165.005 319.888 163.785 321.052 162.295 321.017C160.805 320.982 159.641 319.762 159.675 318.272C159.71 316.782 160.93 315.618 162.42 315.653C163.91 315.688 165.075 316.908 165.04 318.398Z" fill="#00344A"/>
<path d="M62.2272 320.265C62.1923 321.755 60.9723 322.919 59.4822 322.884C57.9922 322.849 56.828 321.629 56.8629 320.139C56.8979 318.649 58.1178 317.485 59.6079 317.52C61.098 317.555 62.2621 318.775 62.2272 320.265Z" fill="#00344A"/>
<path d="M138.724 419.267C140.206 419.302 141.435 418.129 141.469 416.648C141.504 415.166 140.331 413.937 138.85 413.903C137.369 413.868 136.14 415.041 136.105 416.522C136.07 418.003 137.243 419.232 138.724 419.267Z" fill="#00344A"/>
<path d="M335.364 366.523C335.329 368.013 334.109 369.177 332.619 369.142C331.129 369.107 329.965 367.887 330 366.397C330.035 364.907 331.255 363.743 332.745 363.778C334.334 363.815 335.399 365.033 335.364 366.523Z" fill="#00344A"/>
<path d="M332.446 283.261C332.411 284.751 331.191 285.915 329.701 285.88C328.211 285.845 327.047 284.625 327.082 283.135C327.117 281.645 328.337 280.481 329.827 280.516C331.314 280.65 332.479 281.87 332.446 283.261Z" fill="#00344A"/>
<path d="M283.594 149.425C283.559 150.915 282.34 152.079 280.849 152.044C279.359 152.009 278.195 150.789 278.23 149.299C278.265 147.809 279.485 146.645 280.975 146.68C282.465 146.715 283.627 148.034 283.594 149.425Z" fill="#00344A"/>
<path d="M402.501 177.956C402.466 179.446 401.246 180.61 399.756 180.576C398.266 180.541 397.101 179.321 397.136 177.831C397.171 176.34 398.391 175.176 399.881 175.211C401.371 175.246 402.536 176.466 402.501 177.956Z" fill="#00344A"/>
<path d="M212.258 84.7414C212.224 86.2315 211.004 87.3956 209.513 87.3607C208.023 87.3258 206.859 86.1058 206.894 84.6157C206.929 83.1257 208.149 81.9615 209.639 81.9964C211.129 82.0313 212.293 83.2513 212.258 84.7414Z" fill="#00344A"/>
<path d="M496.573 269.416C496.531 271.204 495.006 272.659 493.218 272.617C491.43 272.576 489.975 271.051 490.017 269.263C490.059 267.474 491.584 266.019 493.372 266.061C495.16 266.103 496.618 267.529 496.573 269.416Z" fill="#00344A"/>
<path d="M433.448 265.75C433.397 267.935 431.567 269.681 429.381 269.63C427.196 269.579 425.449 267.749 425.501 265.563C425.552 263.378 427.382 261.632 429.567 261.683C431.753 261.734 433.499 263.564 433.448 265.75Z" fill="#00344A"/>
<path d="M324.334 421.921C324.283 424.107 322.453 425.853 320.268 425.802C318.082 425.751 316.336 423.921 316.387 421.735C316.439 419.55 318.269 417.804 320.454 417.855C322.639 417.906 324.386 419.736 324.334 421.921Z" fill="#00344A"/>
<path d="M445.643 390.078C445.592 392.263 443.762 394.009 441.576 393.958C439.391 393.907 437.645 392.077 437.696 389.891C437.747 387.706 439.577 385.96 441.763 386.011C443.948 386.062 445.697 387.793 445.643 390.078Z" fill="#00344A"/>
<path d="M350.667 477.404C350.629 478.993 349.308 480.254 347.718 480.217C346.129 480.18 344.868 478.858 344.905 477.269C344.942 475.679 346.264 474.418 347.853 474.455C349.445 474.393 350.704 475.814 350.667 477.404Z" fill="#00344A"/>
<path d="M240.439 494.598C241.646 494.626 242.647 493.671 242.675 492.464C242.703 491.257 241.748 490.255 240.541 490.227C239.334 490.199 238.333 491.154 238.304 492.361C238.276 493.568 239.232 494.57 240.439 494.598Z" fill="#00344A"/>
<path d="M203.76 485.89C203.709 488.076 201.879 489.822 199.694 489.771C197.508 489.719 195.762 487.889 195.813 485.704C195.864 483.519 197.694 481.772 199.88 481.824C202.065 481.875 203.811 483.705 203.76 485.89Z" fill="#00344A"/>
<path d="M125.953 459.915C125.92 461.305 124.8 462.472 123.309 462.437C121.919 462.404 120.752 461.284 120.787 459.794C120.82 458.403 121.94 457.237 123.43 457.271C124.819 457.403 125.985 458.524 125.953 459.915Z" fill="#00344A"/>
<path d="M169.604 395.441C169.553 397.626 167.723 399.373 165.537 399.321C163.352 399.27 161.606 397.44 161.657 395.255C161.708 393.069 163.538 391.323 165.723 391.374C167.911 391.326 169.657 393.156 169.604 395.441Z" fill="#00344A"/>
<path d="M66.9555 398.5C66.9043 400.685 65.0743 402.431 62.8889 402.38C60.7035 402.329 58.9573 400.499 59.0085 398.313C59.0597 396.128 60.8896 394.382 63.0751 394.433C65.2605 394.484 67.0067 396.314 66.9555 398.5Z" fill="#00344A"/>
<path d="M38.0911 362.24C38.0586 363.631 36.9426 364.599 35.6512 364.569C34.3598 364.538 33.2926 363.42 33.3229 362.129C33.3555 360.738 34.4715 359.77 35.7629 359.8C37.0566 359.731 38.1237 360.85 38.0911 362.24Z" fill="#00344A"/>
<path d="M254.694 259.277C254.643 261.462 252.813 263.209 250.627 263.157C248.442 263.106 246.696 261.276 246.747 259.091C246.798 256.905 248.628 255.159 250.813 255.21C252.999 255.261 254.747 256.992 254.694 259.277Z" fill="#00344A"/>
<path d="M83.7211 255.769C83.6699 257.955 81.8399 259.701 79.6544 259.65C77.469 259.598 75.7228 257.768 75.774 255.583C75.8252 253.398 77.6552 251.651 79.8406 251.703C82.0284 251.654 83.7746 253.484 83.7211 255.769Z" fill="#00344A"/>
<path d="M4.86863 253.023C4.83837 254.315 3.72004 255.382 2.42865 255.351C1.13725 255.321 0.0701406 254.203 0.100395 252.911C0.13065 251.62 1.24896 250.553 2.54036 250.583C3.93109 250.616 4.89888 251.732 4.86863 253.023Z" fill="#00344A"/>
<path d="M53.1703 130.015C53.1191 132.201 51.2891 133.947 49.1037 133.896C46.9182 133.844 45.172 132.014 45.2232 129.829C45.2744 127.644 47.1044 125.897 49.2898 125.949C51.4776 125.9 53.2238 127.73 53.1703 130.015Z" fill="#00344A"/>
<path d="M181.854 97.4447C181.803 99.6301 179.973 101.376 177.787 101.325C175.602 101.274 173.856 99.444 173.907 97.2585C173.958 95.0731 175.788 93.3269 177.973 93.3781C180.161 93.33 181.905 95.2593 181.854 97.4447Z" fill="#00344A"/>
<path d="M147.971 24.7924C147.92 26.9778 146.09 28.724 143.904 28.6728C141.719 28.6216 139.973 26.7916 140.024 24.6062C140.075 22.4207 141.905 20.6745 144.091 20.7257C146.179 20.6753 148.022 22.6069 147.971 24.7924Z" fill="#00344A"/>
<path d="M256.07 5.36197C256.033 6.95138 254.709 8.31186 253.02 8.27229C251.431 8.23506 250.07 6.91108 250.11 5.22233C250.147 3.63292 251.471 2.27244 253.16 2.31201C254.846 2.45091 256.107 3.77256 256.07 5.36197Z" fill="#00344A"/>
<path d="M306.581 17.2808C306.529 19.4662 304.699 21.2124 302.514 21.1612C300.328 21.11 298.582 19.2801 298.633 17.0946C298.685 14.9092 300.515 13.163 302.7 13.2142C304.886 13.2654 306.632 15.0954 306.581 17.2808Z" fill="#00344A"/>
<path d="M345.049 118.765C344.998 120.95 343.168 122.697 340.983 122.645C338.797 122.594 337.051 120.764 337.102 118.579C337.153 116.393 338.983 114.647 341.169 114.698C343.357 114.65 345.1 116.58 345.049 118.765Z" fill="#00344A"/>
<path d="M384.79 47.4366C384.746 49.324 383.219 50.8785 381.232 50.832C379.344 50.7878 377.79 49.2605 377.837 47.2737C377.883 45.2869 379.408 43.8318 381.395 43.8783C383.282 43.9225 384.834 45.5492 384.79 47.4366Z" fill="#00344A"/>
<path d="M424.885 126.496C424.834 128.681 423.004 130.427 420.819 130.376C418.633 130.325 416.887 128.495 416.938 126.309C416.989 124.124 418.819 122.378 421.005 122.429C423.19 122.48 424.936 124.31 424.885 126.496Z" fill="#00344A"/>
<path d="M448.096 119.89C449.633 119.926 450.907 118.71 450.943 117.174C450.979 115.637 449.763 114.363 448.227 114.327C446.691 114.291 445.416 115.507 445.38 117.043C445.344 118.579 446.56 119.854 448.096 119.89Z" fill="#00344A"/>
<path d="M468.627 155.751C470.822 155.802 472.642 154.065 472.694 151.871C472.745 149.676 471.008 147.855 468.813 147.804C466.619 147.753 464.798 149.49 464.747 151.684C464.695 153.879 466.433 155.7 468.627 155.751Z" fill="#00344A"/>
<path d="M46.6306 120.818C46.5957 122.308 45.3733 123.572 43.7839 123.534C42.2939 123.499 41.0304 122.277 41.0676 120.688C41.1026 119.198 42.3249 117.934 43.9143 117.971C45.5037 118.009 46.6655 119.328 46.6306 120.818Z" fill="#00344A"/>
<path d="M31.8568 149.002C31.8242 150.393 30.7082 151.361 29.4168 151.33C28.0261 151.298 27.0583 150.182 27.0885 148.89C27.1211 147.5 28.2371 146.532 29.5285 146.562C30.8222 146.493 31.8893 147.611 31.8568 149.002Z" fill="#00344A"/>
</g>
<defs>
<clipPath id="clip0_327_58332">
<rect width="497" height="497" fill="white"/>
</clipPath>
</defs>
</svg>
