<svg xmlns="http://www.w3.org/2000/svg" width="80" height="90" fill="none"><path fill="#62818E" d="M48.757 43.803c-.02-.02-.511-.546-1.361-.546-.45 0-.911.147-1.372.42a.21.21 0 0 0-.113.231c0 .021.338 2.375.082 3.384-.194.757-.819 1.65-1.955 1.65-.246 0-.491-.042-.757-.115h-.01l.86-.6a.24.24 0 0 0 .102-.199c0-.084-.041-.147-.103-.2l-1.71-1.208c.543-.42.881-.715.922-.757a.22.22 0 0 0 .082-.168.25.25 0 0 0-.072-.179l-.307-.315a.24.24 0 0 0-.164-.074.24.24 0 0 0-.143.053c-.02.01-.47.368-1.157.851l-.686-.483 2.682-1.892.205.547c.03.084.113.147.205.147h.01a.25.25 0 0 0 .205-.126l1.28-2.417a.27.27 0 0 0-.01-.253.23.23 0 0 0-.195-.105h-.031l-2.641.41a.23.23 0 0 0-.195.168c-.02.084 0 .179.072.242l.43.389-3.05 2.154-3.041-2.154.43-.389c.061-.063.092-.158.062-.242a.21.21 0 0 0-.185-.168l-2.641-.41h-.03c-.083 0-.154.032-.195.105a.25.25 0 0 0-.01.253l1.27 2.417c.04.073.122.126.204.126h.01c.092 0 .164-.063.205-.147l.215-.547 2.682 1.892-.686.483a24 24 0 0 1-1.147-.851.24.24 0 0 0-.143-.053.2.2 0 0 0-.164.074l-.307.315a.26.26 0 0 0-.072.179c0 .063.031.126.082.168s.39.336.932.757l-1.71 1.208a.24.24 0 0 0-.102.2c0 .084.041.147.102.2l.86.599h-.01a2.8 2.8 0 0 1-.757.115c-1.137 0-1.772-.893-1.966-1.65-.256-1.009.082-3.363.082-3.384.01-.094-.03-.189-.113-.23-.47-.274-.931-.421-1.372-.421-.86 0-1.35.515-1.371.546a.19.19 0 0 0-.062.137c-.01.147-.276 3.541 1.26 5.265.563.63 1.31.956 2.2.956.154 0 .328 0 .492-.031.87-.105 1.72-.347 2.549-.641l1.423.988-3.143 2.186c-.061.052-.102.115-.102.2 0 .073.03.146.102.199l3.153 2.238-2.692 1.913-.205-.536c-.03-.084-.113-.137-.205-.147h-.01a.24.24 0 0 0-.205.126l-1.27 2.417a.25.25 0 0 0 .011.242.23.23 0 0 0 .195.105h.03l2.642-.4a.22.22 0 0 0 .184-.168.25.25 0 0 0-.062-.252l-.44-.4 3.05-2.164 3.051 2.165-.44.4c-.072.062-.092.157-.072.251.02.084.103.147.195.169l2.641.399h.03a.23.23 0 0 0 .195-.105.23.23 0 0 0 .01-.242l-1.28-2.417a.23.23 0 0 0-.204-.126h-.01a.21.21 0 0 0-.205.147l-.205.536-2.692-1.913 3.153-2.238a.24.24 0 0 0 .103-.2c0-.084-.041-.147-.103-.2l-3.143-2.185 1.423-.988c.82.305 1.669.536 2.54.64q.26.032.49.032c.901 0 1.638-.325 2.201-.956 1.536-1.724 1.27-5.118 1.26-5.265a.25.25 0 0 0-.052-.137m-8.906 2.502.676.473c-.215.136-.44.283-.676.43-.235-.147-.46-.283-.675-.43zm-2.457 1.733.932-.662c.184.116.368.242.573.379q-.553.3-1.105.567zm4.863 4.824-2.406 1.703-2.395-1.703 2.395-1.67zm-2.406-3.11-1.157-.81c.41-.2.789-.4 1.157-.61.369.21.758.41 1.167.61zm2.068-1.43a14 14 0 0 1-1.116-.567c.205-.126.39-.252.574-.379l.941.663zM49.566 45.803c.092-.189.133-.546.133-.546l-.133-.042z"/><path fill="#62818E" d="M79.816 37.38c-.983-.609-2.61-.819-4.269-.661 2.59-.925 4.36-2.9 4.453-4.666-1.351-.4-2.754-.19-3.972.094 1.26-.966 3.327-2.732 3.071-5.328-1.218-.305-3.45.568-4.381.999 2.989-1.724 4.064-5.802 2.477-8.113-.942.567-5.21 5.044-5.907 5.559 2.212-2.596 3.246-4.456 3.84-6.2.706-1.903.757-5.223-1.536-6.337-1.085 2.543-4.873 9.069-6.982 11.78-.235-.21-.42-.494-.716-.546-.502 1.65-1.997 3.846-3.358 4.897-.072-.137-.205-.515-.44-.925-1.443 2.218-5.19 5.255-6.398 7.125-.942 1.388-.942 2.638.369 3.93.532.547 1.535 1.504.665 2.849-1.187 1.776-3.573 1.986-4.863.935 0-.315-.01-.62-.02-.904 1.525-.61 1.884-2.743.757-4.067-.245.484-.655.841-1.146 1.02-.133-.557-.246-.82-.256-.852l-.061-.126h-.133c-.01 0-.512-.031-1.26-.115.85-.284 1.393-1.093 1.27-2.176-1.31 1.156-2.62.053-2.918-.252-.819-.988-1.054-2.102-.727-3.804.277-1.482 1.772-3.836 2.754-4.593.144.137.369.42.85.379.276-.095.737-.337 1.085-.473.993-.305 1.955-.074 2.57.336 1.125.704 1.023 1.482.992 2.05 1.71-.989 1.116-2.639-1.126-3.248 1.536 0 2.795 1.44 3.122 1.619.85.64 2.068.493 2.775.146 1.361-.662 1.638-2.312 1.269-2.648-.133.589-.573 1.114-1.362 1.209-1.166.136-2.293-.378-3.183-.788-.758-.326-1.976-.568-2.805-.515 1.536-.873 3.92-.778 4.77.567.512-.42.83-.799.973-1.67.44-2.355-1.351-3.564-3.266-3.564.051-.567-.338-.85-.85-.662 0-.241-.06-.43-.194-.525.041 0 .103-.021.143-.021 1.925-.137 3.747-.746 4.73-1.807 1.72-1.892-1.024-4.288-.041-6.148.942.42 1.638.966 2.938 1.156.133.283.256.85.297 1.156.42 2.101-1.597 2.448-1.075 4.687.225 1.02.972 1.366 1.218 2.574 0 0 .092.841-.624 1.577 1.658.042 2.528-1.398 2.016-2.733-.225-.546-.798-1.061-.798-1.702.85 1.156 1.607 1.114 2.917.683.594-.19.645.662.277 1.345.9-.546 1.126-1.44 1.126-1.839 0-.946-.717-1.387-1.403-1.198-.389.042-1.167.589-1.218-.19-.164-1.344 1.904-1.292 1.484-3.457-.225-1.082-1.402-1.681-3.234-1.912-.185-.19-.645-.641-.891-1.02-1.003-1.713-2.047-2.164-2.672-1.818-.737.379-1.116.704-1.72 1.04-.48.263-.992.4-1.31.778-.798 1.02-.04 2.596.369 3.563.276.568.941 1.86.645 2.827-.328 1.156-2.18 1.881-3.307 2.123-.072 0-.123.02-.194.02v-.451c.327-.589.604-1.293.829-1.934.757-2.08-.369-2.921-2.037-3.32a.78.78 0 0 0-.717-.095h-.051l-.041.347-.225-.074.051-.42h-.102c.194-.137.276-.379.276-.61 0-.252-.092-.452-.184-.588h.225l-.092-.095c-.041-.095-.133-.19-.277-.336a.36.36 0 0 1-.092-.19c.041.043.092.095.185.137.092.095.225.19.276.284l.133.095V9.647l-.133.116c-.041.042-.184.137-.276.242-.093.094-.134.094-.185.136 0-.042.041-.094.092-.189a.9.9 0 0 0 .277-.305l.092-.147h-1.884l.092.147c.093.063.205.21.297.305.041.095.093.147.133.19-.05-.043-.133-.043-.184-.137-.164-.095-.246-.19-.338-.242l-.071-.116v1.934l.092-.095c.092-.094.184-.189.337-.283.052-.042.134-.095.185-.137-.051.042-.092.137-.133.19-.092.146-.215.23-.297.335l-.092.095h.297c-.164.137-.205.336-.205.589 0 .23.092.473.245.61h-.04l.04.42-.245.073-.051-.347h-.041a.7.7 0 0 0-.686.095c-1.7.4-2.825 1.25-2.068 3.32.236.642.512 1.346.85 1.934v.305c-1.7-.567-4.76-2.48-5.58-3.636a2.4 2.4 0 0 1-.204-.284h-.01l.03-1.25c.594-1.02 1.127-2.27 1.536-3.416 1.075-2.995-.512-4.245-3.03-4.76-.256-.19-.573-.284-.993-.137l-.092.473-.532-.042.04-.61c-.071.021-.163.021-.255.021.358-.189.614-.64.614-1.103 0-.336-.164-.736-.44-.925h.44c-.256-.231-.666-.725-.747-1.061.317.094.798.536 1.023.777V.284c-.225.189-.706.662-1.023.704.081-.273.491-.746.747-.988h-2.385c.184.242.645.715.686.988-.277-.042-.738-.515-.993-.704v2.448c.255-.241.706-.683.993-.777-.041.325-.502.82-.686 1.061h.409c-.276.19-.41.589-.41.925 0 .462.226.925.594 1.103-.092 0-.184 0-.327-.042l.051.61-.532.042-.051-.473c-.41-.137-.727-.042-1.004.137-2.498.525-4.084 1.765-3.01 4.76.37 1.146.902 2.407 1.536 3.416v1.292c-.04.042-.092.137-.184.232-.799 1.156-3.88 3.068-5.58 3.636v-.305c.339-.589.625-1.293.85-1.934.758-2.08-.368-2.921-2.067-3.32a.71.71 0 0 0-.686-.095h-.041l-.051.347-.225-.074.04-.42h-.04a.92.92 0 0 0 .225-.61c0-.252-.041-.452-.184-.588h.276l-.092-.095a2 2 0 0 1-.277-.336c-.04-.042-.112-.137-.163-.19.05.043.163.095.204.137.133.095.226.19.328.284l.092.095V9.647l-.092.116c-.092.042-.184.137-.328.242-.04.094-.153.094-.204.136a.6.6 0 0 0 .163-.189c.093-.094.184-.231.277-.305l.092-.147h-1.884l.093.147c.04.063.163.21.255.305.093.095.133.147.133.19-.03-.053-.081-.053-.163-.148-.113-.094-.256-.189-.297-.242l-.143-.115v1.933l.143-.094c.04-.095.184-.19.297-.284.092-.042.133-.094.174-.136 0 .042-.041.136-.133.189-.093.147-.215.23-.256.336l-.093.095h.246a.92.92 0 0 0-.215.588c0 .231.092.473.307.61h-.092l.052.42-.256.074-.041-.347h-.052a.7.7 0 0 0-.685.094c-1.7.4-2.826 1.25-2.068 3.321.235.641.512 1.345.85 1.934v.452c-.072 0-.134-.021-.185-.021-1.126-.242-3.01-.967-3.327-2.123-.297-.967.369-2.26.645-2.827.44-.967 1.177-2.543.4-3.563-.349-.378-.85-.515-1.342-.777-.593-.326-.962-.662-1.72-1.04-.603-.347-1.627.094-2.671 1.817-.226.379-.707.82-.901 1.02-1.812.231-2.979.82-3.235 1.912-.42 2.165 1.648 2.123 1.515 3.458-.051.778-.85.231-1.218.19-.717-.19-1.423.251-1.423 1.197 0 .4.256 1.293 1.126 1.84-.368-.684-.328-1.535.297-1.346 1.31.43 2.037.473 2.897-.683 0 .63-.553 1.156-.798 1.702-.512 1.346.337 2.775 2.016 2.733-.757-.736-.604-1.577-.604-1.577.236-1.208.973-1.555 1.218-2.574.512-2.239-1.515-2.585-1.074-4.687.04-.305.133-.873.276-1.156 1.31-.19 2.027-.726 2.938-1.156.942 1.86-1.771 4.256-.041 6.147.993 1.062 2.825 1.671 4.73 1.808.04 0 .102.021.153.032-.133.094-.205.273-.205.515-.502-.19-.89.094-.819.662-1.976 0-3.716 1.208-3.286 3.562.133.872.46 1.25.993 1.671.83-1.345 3.214-1.44 4.77-.567-.85-.053-2.067.189-2.815.515-.88.399-1.996.924-3.163.788-.808-.095-1.218-.61-1.382-1.209-.368.337-.092 1.976 1.28 2.648.686.347 1.904.494 2.754-.146.327-.19 1.586-1.619 3.132-1.619-2.232.61-2.856 2.26-1.106 3.247-.071-.567-.153-1.345.962-2.049a3.16 3.16 0 0 1 2.58-.336c.338.136.799.378 1.075.473.481.042.706-.242.85-.379.993.757 2.436 3.111 2.753 4.593.348 1.702.093 2.806-.737 3.804-.276.305-1.607 1.408-2.907.252-.123 1.083.42 1.882 1.27 2.176-.758.084-1.27.115-1.28.115h-.133l-.051.126c-.01.021-.123.295-.266.841a2.15 2.15 0 0 1-1.126-1.02c-1.127 1.325-.778 3.448.737 4.057-.01.294-.021.6-.021.925-1.3 1.03-3.654.81-4.821-.956-.901-1.346.133-2.312.644-2.848 1.31-1.293 1.31-2.543.359-3.93-1.218-1.86-4.955-4.908-6.398-7.126-.236.4-.369.778-.42.925-1.351-1.05-2.866-3.247-3.368-4.897-.276.042-.48.336-.716.546-2.089-2.711-5.897-9.237-6.972-11.78-2.272 1.114-2.231 4.434-1.535 6.337.614 1.744 1.648 3.604 3.828 6.2-.685-.526-4.954-4.992-5.896-5.56-1.576 2.313-.502 6.39 2.477 8.114-.91-.431-3.163-1.304-4.38-.999-.226 2.596 1.811 4.362 3.07 5.328-1.228-.284-2.63-.493-3.982-.094.092 1.765 1.884 3.752 4.402 4.666-1.607-.168-3.235.052-4.228.662.184 1.839 2.211 3.426 4.637 3.804-1.627.19-3.07.925-3.828 1.934.89 1.198 2.2 2.123 4.197 2.08-.46.169-.993.495-1.444.936a.4.4 0 0 0-.225-.094c-.102.042-.133.189-.102.283v.074c-.195.136-.297.304-.318.473-.184.273-.378.588-.48.872.05.02.091.073.132.094a.85.85 0 0 0 .144.505c-.092.095-.133.231-.185.378l-1.166-.483c-.062 1.093.174 1.986.706 2.543.42.494.9.42.757.588l1.27.8c.225.493.686.493 1.003.357v.094c0 .515.348.935.798 1.104-.092.43.093.703.666.903l4.77 11.876c-.184.567 0 1.061.42 1.25a.84.84 0 0 0-.184.568c.184-.137.46-.19.593.21.092.284-.41 1.198.348 1.818a1.23 1.23 0 0 0 .727 1.345c0 .284.256 1.198.297 1.524-.338.494-1.126 1.25-1.024 2.08.092.59.318.778.778.925-.184 1.062.39 1.535 1.26 1.587 0 .778.706 1.051 1.166 1.104.44.336.625.473 1.126.736-.46.556-.133 1.292.707 1.534.092.325.327.61.798.725.277.473.778.473 1.075.336.184-.094.512-.64.225-1.114.184-.23.092-.683-.04-.966.276-.515.04-1.157-.338-1.346.05-.284-.093-.735-.185-1.009.666-.43 1.495-.966 1.792-1.156 1.627-1.198 3.47-2.27 5.558-2.406.533-.053 1.515-.095 2.068-.053.85.095 2.017.358 2.703-.189.214-.137.348-.378.307-.61-.092-.546-.666-1.019-.85-1.502a7 7 0 0 0-.225-.568c.593.105 1.146.021 1.484-.147.369-.136 1.26-.82 1.218-1.839-.716.347-2.436.82-2.62-.967-.185-1.576 1.167-2.921 3.286-2.333 1.443.378 3.552 3.531 1.627 4.908-.942.662-2.385 1.293-2.2 3.016.614-.777 1.443-1.156 2.518-1.061-1.577 1.198-2.795 1.345-4.453 2.26-1.444.871-2.519 2.311-3.655 2.353-.87.042-1.351-1.02-.501-1.839-.85-.19-1.976.494-2.294 1.408-.409 1.25-.091 2.144.666 2.649-1.024.567-1.792 1.67-1.423 3.247.348 1.292 1.607 1.292 1.126 2.942.706-.189 1.167-.683 1.372-1.387.092-.494.184-1.009.42-1.25-.103.987.45 2.448 1.77 3.11.891.452 2.293.63 3.368-.514.44 1.292 1.925 2.406 3.47 2.353.707 0 1.403-.315 1.925-.63.369.956 1.31 1.934 2.242 2.396.962-.462 1.904-1.44 2.293-2.396.512.326 1.218.63 1.904.63 1.484.043 3.05-1.061 3.47-2.353 1.075 1.145 2.477.966 3.368.514 1.31-.662 1.863-2.123 1.771-3.11.246.241.338.756.44 1.25.185.704.635 1.198 1.351 1.388-.48-1.65.81-1.65 1.127-2.943.368-1.577-.39-2.69-1.403-3.247.737-.494 1.085-1.388.645-2.649-.317-.914-1.443-1.597-2.293-1.408.85.82.389 1.881-.502 1.84-1.126-.043-2.2-1.493-3.654-2.355-1.648-.925-2.866-1.061-4.453-2.26 1.075-.094 1.924.285 2.518 1.062.184-1.723-1.259-2.354-2.2-3.016-1.905-1.377.184-4.53 1.658-4.908 2.088-.588 3.47.757 3.255 2.333-.225 1.797-1.904 1.324-2.662.967 0 1.009.89 1.692 1.26 1.84.43.21 1.228.325 1.934.01-.02.178-.051.368-.051.42-.143 1.534-.942 1.671-.665 2.302.389.472 2.958.378 3.654.525 1.218.168 2.252.63 3.42.872 1.31.284 2.702.284 3.879.778.757.336 1.607.967 2.344 1.345 1.126.19.942.662 1.658.662.645 0 .891-.567 1.72-.799.574-.136 1.218.095 1.792-.094.42-.095.604-.536.993-.778.46-.284 1.105-.284 1.535-.694.225-.21.276-.609.236-.893l.01.063c.88-.63 1.546-1.555 1.914-2.616a.51.51 0 0 0 .41-.494v-.095c.225-.189.368-.473.368-.757 0-.357-.133-.64-.369-.872v-.094c0-.19-.092-.326-.184-.452-.368-2.05-1.883-3.7-3.838-4.214v-.095h-.041c0-.095-.041-.147-.113-.147-.276-.284-.604-.725-.645-1.009.317.095.85.61 1.126.82V62.16c-.276.21-.798.725-1.126.82.041-.336.542-.925.798-1.156h-2.681c.245.231.757.82.798 1.156-.317-.095-.85-.61-1.116-.82v2.712c.277-.21.799-.725 1.116-.82-.041.336-.553.925-.799 1.156l.092.042c-1.996.473-3.603 2.175-3.971 4.267a.59.59 0 0 0-.225.452v.094a1.17 1.17 0 0 0-.369.872c0 .274.133.568.369.757v.095c0 .304.184.452.409.494.092.262.205.525.328.756 0-.02 0-.02.03-.052-.164.777-1.085 1.25-1.29 1.25-1.637.242-3.45-.473-5.097-1.103-.727-.284-1.72-.61-2.201-1.345-.297-.536-.43-.873-.277-1.346.185.232.481.494.901.726.041-.232.041-.494.133-.684.42.642 1.085.967 1.884.925-.481-.42-.707-1.534-.481-2.5.665 1.155 3.193 1.386 3.654-.684-.942.452-1.546-.042-1.72-.567-.276-.83.645-2.838-.184-4.383-.665-1.156-1.423-1.86-3.184-2.144.134-.22.185-.41.226-.735-1.628.61-3.03.136-3.696-1.198.328.136.799.189 1.26.189-1.444-1.209-1.352-4.624-.318-6.39.133-.094.184-.189.317-.23.318.661 1.26.661 1.74 1.197.185-.189.277-.241.461-.4 0 0 .041 2.807.225 3.963.185 1.292 1.403 1.156 2.027 1.723.738-.83 2.068-.788 1.863-2.217-.184-1.43-.46-2.733-.501-3.7.41.873 1.218 4.152 1.535 5.087.522 1.387 1.833.967 2.57 1.513.48-.966 1.699-1.25 1.218-2.711-.133-.378-2.13-4.687-2.426-5.517.706 1.061 2.64 4.855 3.235 5.916.665 1.104 1.883.568 2.753.841.164-.799 1.341-1.723.481-3.11-1.074-1.84-3.603-5.045-3.736-5.497.502.494 4.422 5.496 4.73 5.77.91.82 2.241.189 3.03.189 0-.914.706-1.955-.318-3.016-.942-.925-3.102-2.501-3.562-3.037 1.443 1.019 3.142 2.637 4.156 2.9 1.791.473 2.436-.263 3.102-.546-.553-1.671.184-2.449-3.604-4.078 3.276 1.198 4.73.61 5.897-.336-.461-1.198-1.628-2.207-2.58-2.543 2.006.042 3.337-.873 4.207-2.081-.737-1.01-2.2-1.745-3.88-1.934 2.478-.347 4.454-1.923 4.679-3.762M3.829 49.73c-.041 0-.041.041-.093.094-.276-.042-.276-.379-.225-.662a.4.4 0 0 0 .318-.137l.04.053-.133.094c.052.179.052.368.093.557m.9 1.975-.45-.273c.184-.221.358-.221.543-.095 0 .136 0 .273-.093.368m1.352-2.943h-.185c-.01-.01-.02-.031-.03-.042.082-.02.174-.02.245-.042 0 .021-.02.053-.03.084M32.113 83.19c-1.126 0-1.925-.725-1.352-1.745.297.463.891.673 1.403.726-.051.483-.051.62-.051 1.019m17.126-1.745c.573 1.02-.226 1.745-1.352 1.745 0-.4 0-.536-.092-1.02.522-.041 1.136-.241 1.444-.725M32.072 19.064c2.569-.568 5.19-2.05 6.367-3.3.972.063 2.231.073 3.183.01 1.157 1.261 3.737 2.711 6.317 3.279-1.495 0-4.105-.137-4.433-.515.092.967 2.088 2.06 3.398 2.354-1.084.137-2.088 0-2.937-.4.46.684.993 1.199 1.863 1.503-.911 1.156-2.795 1.903-4.658 1.724.46.568 1.31.925 2.047.82-1.678 2.743-2.917 5.559-3.214 8.817h-.01v.01c-.277-3.268-1.515-6.084-3.184-8.827.758.094 1.587-.252 2.017-.82-1.884.19-3.696-.568-4.637-1.724.88-.304 1.402-.82 1.863-1.502-.83.4-1.863.536-2.938.4 1.31-.306 3.327-1.388 3.419-2.355-.358.389-2.969.526-4.463.526M8.517 48.058l-.737.326v-.063c.225-.095.512-.179.737-.263m16.522 12.348c.051.326.092.515.225.736-1.77.284-2.518.988-3.163 2.144-.9 1.555.041 3.562-.215 4.382-.184.515-.768 1.02-1.71.568.461 2.08 2.98 1.839 3.645.683.225.966 0 2.08-.46 2.5.787.043 1.453-.283 1.862-.924.092.19.092.452.133.683.44-.231.717-.494.901-.725.072.231.154.778.051 1.219-.337.231-.716.452-1.31.767-.942.473-2.661 1.156-3.644 1.293-.809.136-2.211-.337-2.57-1.492-.327-1.104-1.218-1.461-1.924-.778-.184-.137-.686-.242-.901.105 0 0-.225-.525-.502-.778.185-.567.041-1.25-.46-1.482-.041-1.113-.707-1.113-.942-1.492-.133-.231-.133-.525.184-.567-.133-.21-.42-.252-.46-.252.092-.473-.052-1.062-.666-1.251L7.667 54.206c.348-.378.164-.925-.225-1.114v-.095c.03-.094.041-.157.051-.23a5 5 0 0 0 .481-.106c1.075-.263 2.754-1.881 4.208-2.9-.512.546-2.62 2.122-3.563 3.037-.88.893-.512 1.786-.368 2.595l.205.452c.798.053 1.996.547 2.886-.21.277-.284 4.208-5.286 4.73-5.77-.205.453-2.682 3.658-3.808 5.497-.83 1.387.389 2.301.532 3.11.89-.283 2.109.263 2.754-.84.624-1.062 2.528-4.855 3.234-5.917-.276.83-2.293 5.14-2.436 5.517-.481 1.461.737 1.745 1.218 2.712.737-.547 2.058-.116 2.57-1.513.317-.936 1.126-4.214 1.545-5.087-.05.967-.327 2.27-.512 3.7-.184 1.44 1.127 1.387 1.813 2.217.665-.568 1.883-.431 2.067-1.724.184-1.156.225-3.962.225-3.962.185.169.277.21.482.4.45-.547 1.402-.547 1.72-1.198.143.042.184.136.327.231 1.034 1.765 1.116 5.18-.328 6.39.42 0 .942-.053 1.26-.19-.635 1.335-2.058 1.808-3.696 1.198m10.175 16.142c-.85 1.198-1.515 2.07-2.067 3.563-.993-.095-.799-1.345-.482-1.976.666-1.25 3.368-2.88 4.73-4.508-.604 1.04-1.444 1.986-2.18 2.921m2.938 2.218c-.553 2.207-.941 5.465-.757 6.925-1.904-1.02-.83-4.95-.093-6.642 1.024-2.354 1.74-5.233 1.976-7.072.594 1.397-.726 5.296-1.126 6.789m4.453 6.925c.184-1.46-.184-4.718-.757-6.925-.4-1.493-1.71-5.392-1.126-6.79.225 1.84.941 4.709 1.975 7.073.737 1.692 1.812 5.623-.092 6.642m4.73-7.566c.327.64.511 1.88-.482 1.975-.552-1.492-1.218-2.354-2.037-3.562-.767-.925-1.607-1.881-2.21-2.922 1.35 1.64 4.063 3.258 4.728 4.509m-.236-16.867c-2.487 4.96-7.043 8.995-7.094 8.943-.051.063-4.607-3.983-7.094-8.943-2.487-4.95-4.084-12.738-4.166-16.458-.093-3.72.624-5.307.624-5.307s3.112-.179 5.6-1.061c2.108-.746 4.401-2.649 5.046-3.206.645.557 2.938 2.45 5.057 3.206 2.477.893 5.59 1.061 5.59 1.061s.706 1.598.614 5.307c-.103 3.72-1.7 11.508-4.177 16.458"/></svg>