<svg xmlns="http://www.w3.org/2000/svg" width="90" height="90" fill="none"><path fill="#62818E" d="M45 5.625A5.625 5.625 0 0 1 50.625 0h33.75A5.625 5.625 0 0 1 90 5.625v78.75A5.625 5.625 0 0 1 84.375 90h-33.75A5.625 5.625 0 0 1 45 84.375zm5.625 75.938a2.813 2.813 0 1 0 5.625 0 2.813 2.813 0 0 0-5.625 0m11.25 0a2.813 2.813 0 1 0 5.625 0 2.813 2.813 0 0 0-5.625 0M53.438 5.624a2.813 2.813 0 0 0 0 5.625h28.124a2.813 2.813 0 0 0 0-5.625zm-2.813 14.063a2.813 2.813 0 0 0 2.813 2.812h28.124a2.813 2.813 0 0 0 0-5.625H53.439a2.813 2.813 0 0 0-2.813 2.813M8.438 11.25A8.44 8.44 0 0 0 0 19.688v39.375A8.44 8.44 0 0 0 8.438 67.5H33.75v11.25h-2.812a2.813 2.813 0 0 0 0 5.625h8.437v-22.5H8.438a2.813 2.813 0 0 1-2.813-2.812V19.688a2.813 2.813 0 0 1 2.813-2.813h30.937V11.25z"/></svg>