<svg xmlns="http://www.w3.org/2000/svg" width="439" height="439" fill="none"><path fill="#DFECF5" d="M32.097 317.346 31.61 121.65 219.306 13.266l187.6 108.384.487 195.696-187.697 108.385z"/><path fill="#B5D5EB" d="M219.693 208.957 43.703 309.731l-.488-181.355L219.303 26.82z"/><path fill="#DFECF5" d="m395.691 310.622-175.99 101.555-175.99-101.555L219.7 208.969z"/><path fill="#97B9CF" d="m395.681 310.609-175.99-101.652-.39-182.137 175.99 101.556z"/><path fill="#FBFFF2" d="M43.71 304.859v5.756l118.238-68.289v-5.658z"/><path fill="#fff" d="M395.681 310.616v-5.658L219.69 203.305l-57.85 33.364v5.658l57.85-33.364z"/><path fill="#97B9CF" d="m31.61 121.648 11.706 6.732.39 182.234 175.99 101.555v13.56L32.097 317.345z"/><path fill="#B5D5EB" d="m407.006 121.648-11.707 6.732.39 182.234-175.99 101.555v13.56l187.697-108.384z"/><path fill="#FCC674" d="m179.708 64.691-127.407 73.46v105.457l127.407-73.166z"/><path fill="#fff" d="m127.524 96.684-32.681 19.218L71.332 231.7l32.876-18.633zM142.347 87.707l-10.731 6.731-23.608 116.482 10.926-6.244z" opacity=".5"/><path fill="#8A6945" d="M49.277 136.488v109.458l2.342 1.365 128.968-77.166 2.341-108.092-2.341-1.365zm125.652 31.218L54.936 236.97v-98.043l119.993-69.264z"/><path fill="#fff" d="M51.621 137.855v109.458l131.31-75.801V62.055zm125.652 31.218L57.279 238.338v-98.141l119.994-69.265z"/><path fill="#8A6945" d="m133.281 93.652 4.097-2.341v98.141l-1.268.683.195 5.658 6.732-4V82.336l-9.951 5.756z"/><path fill="#fff" d="m133.379 96.288 6.341-3.61v98.141l-3.512 2.049.097 5.56 9.073-5.268V83.703l-12.194 7.024z"/><path fill="#8A6945" d="m82.746 122.82 4.097-2.341v98.141l-1.268.78.195 5.561 6.731-3.902V111.504l-9.95 5.756z"/><path fill="#fff" d="m82.851 125.46 6.341-3.61v98.141l-3.511 2.049.097 5.56 9.073-5.268V112.875l-12.195 7.024z"/><path fill="#FCC674" d="M48.691 140.29v105.75l4.878-2.829v-105.75z"/><path fill="#8A6945" d="m54.447 133.457-5.756 3.414v5.659l.098-.098v98.141l-.098.098v5.755l5.756-3.414 2.341-108.189z"/><path fill="#fff" d="M48.691 139.507v5.658l2.44-1.366v98.141l-2.44 1.366v5.658l8.097-4.682V134.824z"/><path fill="#DFECF5" d="m48.688 258.531 142.528-82.239-8.292-4.78-134.236 77.459z"/><path fill="#97B9CF" d="M191.218 176.284V66.73l-8.292-4.683v109.457z"/><path fill="#B5D5EB" d="m48.688 149.068 142.528-82.337-8.292-14.438-134.236 75.606z"/><path fill="#B5D5EB" d="M48.684 128.582v134.236h9.658V120.875z"/><path fill="#333" d="m351.679 287.308 1.463.878c-.293-.195-.683-.098-1.073.097l-1.464-.878c.488-.292.878-.292 1.074-.097"/><path fill="#333" d="m350.986 291.882-1.463-.878c-.293-.195-.488-.488-.488-.975 0-.976.683-2.147 1.561-2.634l1.463.878c-.878.487-1.561 1.658-1.561 2.634.098.487.196.78.488.975"/><path fill="#000" d="M352.065 288.183c.878-.488 1.561-.098 1.561.878 0 .975-.683 2.146-1.561 2.634-.878.487-1.561.097-1.561-.878 0-.878.683-2.147 1.561-2.634"/><path fill="#333" d="m340.647 299.874 1.464.878c-.293-.195-.683-.097-1.073.098l-1.464-.878c.39-.293.781-.293 1.073-.098"/><path fill="#333" d="m339.959 304.37-1.463-.878c-.293-.195-.488-.487-.488-.975 0-.976.683-2.146 1.561-2.634l1.463.878c-.878.488-1.561 1.658-1.561 2.634 0 .488.195.878.488.975"/><path fill="#000" d="M341.034 300.753c.878-.488 1.56-.098 1.56.878s-.682 2.146-1.56 2.634-1.561.098-1.561-.878.683-2.146 1.561-2.634"/><path fill="#333" d="m316.647 297.634 1.464.878c-.293-.195-.683-.098-1.073.097l-1.464-.878c.39-.195.781-.292 1.073-.097M315.955 302.218l-1.463-.878c-.293-.195-.488-.488-.488-.976 0-.975.683-2.146 1.561-2.634l1.463.878c-.878.488-1.561 1.659-1.561 2.634 0 .488.195.781.488.976"/><path fill="#000" d="M317.034 298.612c.878-.487 1.56-.097 1.56.878 0 .976-.682 2.147-1.56 2.634s-1.561.098-1.561-.878c0-.975.683-2.146 1.561-2.634"/><path fill="#333" d="m313.042 284.06 1.463.878c-.292-.195-.683-.097-1.073.098l-1.463-.878c.488-.195.878-.195 1.073-.098M312.35 288.652l-1.464-.878c-.292-.195-.488-.488-.488-.976 0-.975.683-2.146 1.561-2.634l1.464.878c-.878.488-1.561 1.659-1.561 2.634.097.488.195.781.488.976"/><path fill="#000" d="M313.424 285.046c.878-.488 1.561-.098 1.561.878 0 .975-.683 2.146-1.561 2.634s-1.561.097-1.561-.878c0-.976.683-2.146 1.561-2.634"/><path fill="#333" d="m334.8 277.345 1.463.878c-.293-.195-.683-.098-1.073.097l-1.463-.878c.39-.195.78-.292 1.073-.097M334.029 281.933l-1.463-.878c-.293-.195-.488-.488-.488-.976 0-.975.683-2.146 1.561-2.634l1.463.878c-.878.488-1.561 1.659-1.561 2.634.098.488.196.781.488.976"/><path fill="#000" d="M335.096 278.323c.878-.488 1.561-.097 1.561.878 0 .976-.683 2.146-1.561 2.634s-1.561.098-1.561-.878c.098-.975.781-2.146 1.561-2.634"/><path fill="#B3B3B3" d="m311.68 284.658 17.169 5.56.391-4.975-15.219-2.536c-.488-.098-1.073-.098-1.561.292-.488.488-.683.878-.78 1.659"/><path fill="#666" d="m311.68 284.663 17.169 5.561.683-2.927-16.291-3.707c-.976-.195-1.366.293-1.561 1.073"/><path fill="#B3B3B3" d="m330.219 284.172 3.122-7.317c0-.097.195-.195.292-.195l1.366.098c.098 0 .195.097.195.195l.098.683-1.561 7.707z"/><path fill="#666" d="m335.295 277.734-1.561 7.707-.586-.097 1.854-8.292c.098-.196.195-.293.195-.098zM334.703 289.824c.098-1.561.195-3.219 0-3.902h-7.316v3.902c0 .585.39 1.073 1.073 1.463 1.463.781 3.707.781 5.17 0 .781-.292 1.073-.878 1.073-1.463"/><path fill="#B3B3B3" d="M333.623 284.463c1.464.781 1.464 2.146 0 2.927-1.463.78-3.707.78-5.17 0-1.463-.781-1.463-2.146 0-2.927 1.463-.878 3.805-.878 5.17 0"/><path fill="#B3B3B3" d="M334.41 287.49v2.927l17.95-1.951-.292-1.561s-.488-.976-1.561-.976-15.804-.39-15.804-.39c.097.781.097 1.463-.293 1.951M315.387 298.317l1.17.683 13.463-7.122v-2.926c-1.171-.195-1.951-.683-2.439-1.366l-11.121 8.585c-.683.39-1.073 1.17-1.073 2.146"/><path fill="#666" d="M334.41 287.488 350.8 287c.878 0 1.365.488 1.56 1.463l-17.95 1.951z"/><path fill="#B3B3B3" d="M331.094 288.858v3.122l9.072 9.073 1.366-.39c.098-.878-.097-1.659-.585-2.439l-6.829-10.244c-.78.781-1.756.976-3.024.878"/><path fill="#666" d="M331.094 288.855v3.122l9.072 9.073c0-.878-.097-1.659-.682-2.244zM316.559 299.001c0-.975.292-1.756 1.073-2.146l12.389-7.902v2.927z"/><path fill="#E6E6E6" d="m329.441 276.28.293-.293c.78-.488 2.048-.488 2.829 0l.293.293h.292v9.365c0 .293-.195.585-.585.78-.781.488-2.049.488-2.829 0-.39-.195-.586-.487-.586-.78v-9.365z"/><path fill="#4D4D4D" d="M331.2 275.793c1.563 0 2.829-.742 2.829-1.658s-1.266-1.658-2.829-1.658c-1.562 0-2.829.742-2.829 1.658s1.267 1.658 2.829 1.658"/><path fill="#333" d="M327.597 264.769c.39-.39 1.073-.78 1.951-.975 1.073-.293 2.244-.293 3.415 0 .878.195 1.463.585 1.951.975h.488v10.049c0 .878-.781 1.658-2.342 2.146-1.17.39-2.439.39-3.609 0-1.561-.488-2.342-1.268-2.342-2.146v-10.049z"/><path fill="#4D4D4D" d="M329.345 262.625c-3.122.878-3.122 3.414 0 4.292 1.171.39 2.439.39 3.61 0 3.122-.878 3.122-3.414 0-4.292-1.171-.391-2.342-.391-3.61 0"/><path fill="#333" d="m327.389 268.376 7.414-4.292c6.244-3.61 11.122-11.414 11.122-17.658v-10.731h-2.634v10.731c0 5.366-4.39 12.292-9.853 15.414l-7.415 4.293z"/><path fill="#34424B" d="M346.504 265.551v-4.293h-1.951c-.683-.683-1.464-1.268-2.537-1.853-5.951-3.415-15.609-3.415-21.56 0-.975.585-1.853 1.17-2.536 1.853h-1.951v4.293c0 2.243 1.463 4.487 4.487 6.243 5.951 3.415 15.609 3.415 21.56 0 3.024-1.756 4.488-4 4.488-6.243"/><path fill="#34424B" d="M331.289 270.04c8.405 0 15.219-3.93 15.219-8.78s-6.814-8.78-15.219-8.78-15.219 3.931-15.219 8.78c0 4.85 6.814 8.78 15.219 8.78"/><path fill="#B3B3B3" d="M342.016 269.837c-5.951 3.415-15.609 3.415-21.56 0-2.926-1.756-4.487-3.999-4.487-6.243v1.853c0 2.244 1.463 4.488 4.487 6.244 5.951 3.414 15.609 3.414 21.56 0 2.927-1.756 4.488-4 4.488-6.244v-1.853c0 2.341-1.464 4.585-4.488 6.243M338.308 227.311c.683-.391 1.756-.391 2.829.292l9.366 5.463c2.243 1.269 3.999 4.39 3.999 6.927v1.951c0 1.268-.487 2.146-1.17 2.536l-3.122 1.854h-.098c-.683.39-1.658.293-2.731-.293l-9.366-5.365c-2.243-1.269-3.999-4.39-3.999-6.927v-1.951c0-1.268.487-2.146 1.17-2.536l2.049-1.171z"/><path fill="#34424B" d="M337.235 227.902c.683-.39 1.658-.293 2.732.293l9.365 5.463c2.244 1.268 4 4.39 4 6.926v1.951c0 1.269-.488 2.147-1.171 2.537l-2.049 1.171c-.683.39-1.658.292-2.731-.293l-9.366-5.366c-2.243-1.268-3.999-4.39-3.999-6.926v-1.951c0-1.268.487-2.146 1.17-2.537z"/><path fill="#34424B" d="M347.478 234.732c2.244 1.268 4 4.39 4 6.927v1.951c0 2.536-1.853 3.609-4 2.341l-9.365-5.463c-2.244-1.268-4-4.39-4-6.927v-1.951c0-2.536 1.854-3.609 4-2.243z"/><path fill="#34424B" d="M347.478 234.732c2.244 1.268 4 4.39 4 6.927v1.951c0 2.536-1.853 3.609-4 2.341l-9.365-5.463c-2.244-1.268-4-4.39-4-6.927v-1.951c0-2.536 1.854-3.609 4-2.243z"/><path fill="#97B9CF" d="m220.959 210.23-24.975 14.439 53.266 30.827 24.681-14.633z" opacity=".5"/><path fill="#333" d="M252.578 251.102v-3.219q0 .438-.586.878v3.219q.586-.439.586-.878M248.473 247.883v3.219q0 .439.585.878c.78.488 2.146.488 2.927 0v-3.219c-.781.488-2.147.488-2.927 0q-.585-.44-.585-.878"/><path fill="#000" d="M251.985 248.677c.78-.488.78-1.269 0-1.659-.781-.488-2.147-.488-2.927 0s-.78 1.268 0 1.659c.78.487 2.146.487 2.927 0"/><path fill="#333" d="M269.929 241.067v-3.219q0 .438-.585.878v3.219c.39-.195.585-.585.585-.878M265.828 237.848v3.219q0 .439.585.878c.781.488 2.147.488 2.927 0v-3.219c-.78.487-2.146.487-2.927 0-.39-.195-.585-.586-.585-.878"/><path fill="#000" d="M269.34 238.72c.781-.488.781-1.269 0-1.659-.78-.488-2.146-.488-2.927 0-.78.488-.78 1.268 0 1.659.781.487 2.049.487 2.927 0"/><path fill="#B3B3B3" d="m201.645 221.051 18.925-10.926 2.927 1.658-18.926 10.927z"/><path fill="#B3B3B3" d="m201.645 217.739 18.925-11.024v3.414l-18.925 10.927z"/><path fill="#B3B3B3" d="m204.57 219.399 18.926-11.024v3.414l-18.926 10.927z"/><path fill="#F2E8DF" d="m204.668 193.641 18.926-11.024-.098 25.755-18.926 11.024z"/><path fill="#B3B3B3" d="m201.746 191.887 18.926-10.926 2.927 1.658-18.926 11.024zM201.746 188.567l18.926-11.024v3.414l-18.926 10.927z"/><path fill="#B3B3B3" d="m201.746 188.567 18.926-11.024 2.927 1.756-18.926 10.926z"/><path fill="#D4BFA7" d="M248.959 244.956v3.415l2.927 1.658-50.241-28.974v-3.317 3.317l2.926 1.659v-3.317z"/><path fill="#B3B3B3" d="m201.84 162.821 18.926-11.024 2.926 1.658-18.925 11.024z"/><path fill="#F2E8DF" d="m204.766 164.473 18.925-11.024-.097 25.852-18.926 10.927z"/><path fill="#B3B3B3" d="m201.84 159.399 18.926-10.926v3.317l-18.926 11.023z"/><path fill="#B3B3B3" d="m201.84 159.399 18.926-10.926 2.926 1.658-18.925 10.926zM249.055 215.789l18.828-10.926v3.317l-18.926 11.024z"/><path fill="#D4BFA7" d="m249.059 215.792-.097 3.415-44.291-25.56-4.194-4.292 1.268-.781 2.926 1.659z"/><path fill="#F7F4F0" d="m204.668 190.231 18.926-10.926 44.29 25.559-18.828 10.926z"/><path fill="#B3B3B3" d="m201.938 133.641 18.925-11.024 2.829 1.659-18.828 11.023z"/><path fill="#F2E8DF" d="m204.867 135.301 18.828-11.024v25.853l-18.925 10.926z"/><path fill="#B3B3B3" d="m201.938 130.235 18.925-10.926v3.316l-18.925 11.024z"/><path fill="#B3B3B3" d="m201.938 130.235 18.925-10.926 2.927 1.658-18.926 11.024zM249.047 186.719l18.926-11.024v3.415l-18.926 10.926z"/><path fill="#F7F4F0" d="m204.77 161.059 18.925-10.926 44.291 25.559-18.926 11.024z"/><path fill="#D4BFA7" d="M249.057 186.714v3.317l-44.29-25.56-2.927-1.658v-3.415l2.927 1.659z"/><path fill="#B3B3B3" d="m202.035 104.473 18.828-11.024 2.927 1.756-18.828 10.926z"/><path fill="#F2E8DF" d="m204.961 75.797 18.828-10.926v56.095l-18.926 11.023z"/><path fill="#B3B3B3" d="m249.152 157.547 18.926-11.024v3.415l-18.926 10.926z"/><path fill="#D4BFA7" d="M249.154 157.546v3.317l-44.29-25.56-2.926-1.658v-3.415l2.926 1.756z"/><path fill="#F7F4F0" d="m204.863 131.985 18.926-11.024 44.29 25.559-18.926 11.024z"/><path fill="#D4BFA7" d="M249.252 128.378v3.415l-44.29-25.658-2.927-1.658v-3.317z"/><path fill="#D4BFA7" d="M249.154 128.378v3.415l-44.29-25.658-2.926-1.658v-3.317l2.926 1.659z"/><path fill="#F7F4F0" d="m204.863 102.821 18.926-11.024 44.29 25.657-18.926 10.926z"/><path fill="#D4BFA7" d="M252.179 100.966v3.317l-47.217-27.218-2.927-1.756v-3.317z"/><path fill="#F2E8DF" d="m252.179 100.965 18.926-11.024-.39 149.065-18.828 11.024z"/><path fill="#F7F4F0" d="m220.961 60.969 47.217 27.315 2.926 1.659-18.925 11.024-2.927-1.757-47.217-27.217z"/><path fill="#D4BFA7" d="m252.176 100.967-.292 149.065-2.927-1.659v-29.169l.098-3.414v-29.072l.097-25.852v-3.317l.098-25.754V99.211z"/><path fill="#F7F4F0" d="m204.57 219.399.098-25.754 44.29 25.559v25.755z"/><path fill="#D4BFA7" d="m202.035 71.992 2.926 1.659-.097 58.338v3.317l-.098 25.754v3.415l-.097 25.755v3.414l-.098 25.755v3.317l-2.926-1.659v-3.317z"/><mask id="a" width="46" height="52" x="204" y="77" maskUnits="userSpaceOnUse" style="mask-type:luminance"><path fill="#fff" d="m204.961 77.078-.098 25.755 44.388 25.559.195-25.657z"/></mask><g mask="url(#a)"><path fill="#4D4D4D" d="m219.109 87.42 8.292-7.22v-2.34l-12.389 7.12z"/><path fill="#E6E6E6" d="m219.109 88.002 11.999-6.926-4.097-2.44-11.999 7.025z"/><path fill="#4D4D4D" d="m219.012 107.027 12.389-7.22.098-19.608-12.39 7.22z"/><path fill="#1A1A1A" d="M215.012 84.977v19.608l4 2.439.097-19.609z"/><path fill="#fff" d="m215.789 102.345 2.146 1.17V93.077l-2.146-1.17zM215.895 89.468c0 .586.487 1.269 1.073 1.659.585.292 1.073.097 1.073-.39 0-.488-.488-1.269-1.073-1.659-.683-.39-1.073-.195-1.073.39"/></g><mask id="b" width="46" height="52" x="204" y="77" maskUnits="userSpaceOnUse" style="mask-type:luminance"><path fill="#fff" d="m204.961 77.078-.098 25.755 44.388 25.559.195-25.657z"/></mask><g mask="url(#b)"><path fill="#4D4D4D" d="m223.5 89.955 8.292-7.22v-2.34l-12.39 7.121z"/><path fill="#E6E6E6" d="m223.5 90.533 11.999-6.926-4.097-2.439-12 7.024z"/><path fill="#4D4D4D" d="m223.398 109.554 12.39-7.219.098-19.608-12.39 7.219z"/><path fill="#1A1A1A" d="M219.402 87.516v19.608l4 2.439.098-19.609z"/><path fill="#fff" d="m220.184 104.876 2.146 1.171V95.608l-2.146-1.17zM220.289 92c0 .585.488 1.268 1.073 1.658.585.293 1.073.097 1.073-.39 0-.586-.488-1.269-1.073-1.659-.683-.39-1.073-.195-1.073.39"/></g><mask id="c" width="46" height="52" x="204" y="77" maskUnits="userSpaceOnUse" style="mask-type:luminance"><path fill="#fff" d="m204.961 77.078-.098 25.755 44.388 25.559.195-25.657z"/></mask><g mask="url(#c)"><path fill="#4D4D4D" d="m227.883 92.47 8.292-7.219v-2.34l-12.39 7.12z"/><path fill="#E6E6E6" d="m227.883 93.06 11.999-6.926-4.098-2.439-11.999 7.024z"/><path fill="#4D4D4D" d="m227.785 112.089 12.39-7.219.097-19.608-12.389 7.219z"/><path fill="#1A1A1A" d="M223.785 90.04v19.608l4 2.439.098-19.609z"/><path fill="#fff" d="m224.57 107.411 2.147 1.171V98.143l-2.147-1.17zM224.676 94.43c0 .585.488 1.268 1.073 1.658.585.293 1.073.098 1.073-.39 0-.585-.488-1.268-1.073-1.658-.683-.293-1.073-.098-1.073.39"/></g><mask id="d" width="46" height="52" x="204" y="77" maskUnits="userSpaceOnUse" style="mask-type:luminance"><path fill="#fff" d="m204.961 77.078-.098 25.755 44.388 25.559.195-25.657z"/></mask><g mask="url(#d)"><path fill="#4D4D4D" d="m232.269 95.025 8.292-7.219v-2.341l-12.389 7.121z"/><path fill="#E6E6E6" d="m232.269 95.611 12-6.926-4.098-2.439-11.999 7.024z"/><path fill="#4D4D4D" d="m232.176 114.636 12.389-7.219.098-19.608-12.39 7.219z"/><path fill="#6D7983" d="M228.172 92.59v19.609l4 2.438.097-19.608z"/><path fill="#fff" d="m228.949 109.958 2.146 1.171V100.69l-2.146-1.17zM229.055 96.977c0 .585.487 1.268 1.073 1.658.585.293 1.073.098 1.073-.39 0-.585-.488-1.268-1.073-1.658-.683-.293-1.073-.098-1.073.39"/></g><mask id="e" width="46" height="52" x="204" y="77" maskUnits="userSpaceOnUse" style="mask-type:luminance"><path fill="#fff" d="m204.961 77.078-.098 25.755 44.388 25.559.195-25.657z"/></mask><g mask="url(#e)"><path fill="#4D4D4D" d="m241.058 99.99 8.293-7.121v-2.342l-12.39 7.122z"/><path fill="#E6E6E6" d="m241.058 100.682 12-7.024-4.098-2.342-11.999 7.024z"/><path fill="#4D4D4D" d="m240.953 119.601 12.39-7.121.097-19.609-12.389 7.122z"/><path fill="#1A1A1A" d="M236.961 97.66v19.609l4 2.341.097-19.609z"/><path fill="#fff" d="m237.746 115.028 2.146 1.171v-10.438l-2.146-1.171zM237.852 102.047c0 .586.487 1.268 1.073 1.659.585.292 1.073.097 1.073-.391 0-.585-.488-1.268-1.073-1.658-.683-.293-1.073-.098-1.073.39"/></g><mask id="f" width="46" height="52" x="204" y="77" maskUnits="userSpaceOnUse" style="mask-type:luminance"><path fill="#fff" d="m204.961 77.078-.098 25.755 44.388 25.559.195-25.657z"/></mask><g mask="url(#f)"><path fill="#4D4D4D" d="m245.445 102.529 8.292-7.121v-2.342l-12.389 7.122z"/><path fill="#E6E6E6" d="m245.445 103.213 11.999-7.024-4.097-2.341-11.999 7.024z"/><path fill="#4D4D4D" d="m245.344 122.14 12.389-7.121.098-19.609-12.39 7.122z"/><path fill="#1A1A1A" d="M241.348 100.191V119.8l3.999 2.341.098-19.608z"/><path fill="#fff" d="m242.133 117.563 2.146 1.171v-10.438l-2.146-1.171zM242.238 104.582c0 .586.488 1.269 1.073 1.659.586.293 1.074.097 1.074-.39 0-.586-.488-1.269-1.074-1.659-.683-.292-1.073-.097-1.073.39"/></g><mask id="g" width="46" height="52" x="204" y="77" maskUnits="userSpaceOnUse" style="mask-type:luminance"><path fill="#fff" d="m204.961 77.078-.098 25.755 44.388 25.559.195-25.657z"/></mask><g mask="url(#g)"><path fill="#4D4D4D" d="m249.832 105.076 8.292-7.121v-2.342l-12.39 7.122z"/><path fill="#E6E6E6" d="m249.832 105.76 11.999-7.024-4.097-2.342-12 7.025z"/><path fill="#1A1A1A" d="M245.734 102.738v19.609l4 2.341.098-19.608z"/><path fill="#fff" d="m246.52 120.106 2.146 1.171v-10.438l-2.146-1.171zM246.625 107.125c0 .586.488 1.269 1.073 1.659.585.292 1.073.097 1.073-.39 0-.586-.488-1.269-1.073-1.659-.683-.293-1.073-.097-1.073.39"/></g><mask id="h" width="46" height="52" x="204" y="106" maskUnits="userSpaceOnUse" style="mask-type:luminance"><path fill="#fff" d="m204.961 106.137-.098 25.852 44.388 25.559.195-25.657z"/></mask><g mask="url(#h)"><path fill="#4D4D4D" d="m212.574 112.767 8.292-7.219v-2.341l-12.389 7.219z"/><path fill="#E6E6E6" d="m212.574 113.451 11.999-7.024-4.097-2.341-11.999 7.024z"/><path fill="#4D4D4D" d="m212.477 132.371 12.389-7.219.098-19.609-12.39 7.219z"/><path fill="#1A1A1A" d="M208.477 110.426v19.608l3.999 2.342.098-19.609z"/><path fill="#fff" d="m209.258 127.692 2.146 1.269v-10.439l-2.146-1.268zM209.363 114.816c0 .585.488 1.268 1.073 1.658.586.293 1.074.098 1.074-.39 0-.585-.488-1.268-1.074-1.658-.683-.391-1.073-.195-1.073.39"/></g><mask id="i" width="46" height="52" x="204" y="106" maskUnits="userSpaceOnUse" style="mask-type:luminance"><path fill="#fff" d="m204.961 106.137-.098 25.852 44.388 25.559.195-25.657z"/></mask><g mask="url(#i)"><path fill="#4D4D4D" d="m216.961 115.307 8.292-7.22v-2.341l-12.39 7.219z"/><path fill="#E6E6E6" d="m216.961 115.986 11.999-7.024-4.097-2.341-12 7.024z"/><path fill="#4D4D4D" d="m216.859 134.914 12.39-7.219.097-19.609-12.389 7.219z"/><path fill="#1A1A1A" d="M212.863 112.957v19.609l4 2.341.098-19.609z"/><path fill="#fff" d="m213.645 130.228 2.146 1.268v-10.439l-2.146-1.268zM213.75 117.351c0 .585.488 1.268 1.073 1.658.585.293 1.073.098 1.073-.39 0-.585-.488-1.268-1.073-1.658-.683-.39-1.073-.195-1.073.39"/></g><mask id="j" width="46" height="52" x="204" y="106" maskUnits="userSpaceOnUse" style="mask-type:luminance"><path fill="#fff" d="m204.961 106.137-.098 25.852 44.388 25.559.195-25.657z"/></mask><g mask="url(#j)"><path fill="#F15A24" d="m221.343 117.842 8.293-7.219v-2.342l-12.39 7.219z"/><path fill="#E6E6E6" d="m221.343 118.525 12-7.024-4.098-2.341-11.999 7.024z"/><path fill="#F15A24" d="m221.242 137.445 12.39-7.219.097-19.609-12.389 7.219z"/><path fill="#AD3814" d="M217.246 115.488v19.609l4 2.341.097-19.608z"/><path fill="#fff" d="m218.031 132.767 2.146 1.268v-10.439l-2.146-1.268zM218.137 119.89c0 .585.487 1.268 1.073 1.659.585.292 1.073.097 1.073-.391 0-.585-.488-1.268-1.073-1.658-.683-.39-1.073-.195-1.073.39"/></g><mask id="k" width="46" height="52" x="204" y="106" maskUnits="userSpaceOnUse" style="mask-type:luminance"><path fill="#fff" d="m204.961 106.137-.098 25.852 44.388 25.559.195-25.657z"/></mask><g mask="url(#k)"><path fill="#4D4D4D" d="m225.73 120.365 8.292-7.219v-2.341l-12.389 7.219z"/><path fill="#E6E6E6" d="m225.73 121.065 11.999-7.024-4.097-2.342-11.999 7.024z"/><path fill="#4D4D4D" d="m225.637 139.98 12.389-7.219.098-19.609-12.39 7.219z"/><path fill="#1A1A1A" d="M221.633 118.027v19.609l4 2.341.097-19.608z"/><path fill="#fff" d="m222.422 135.298 2.146 1.268v-10.438l-2.146-1.269zM222.527 122.421c0 .586.488 1.269 1.073 1.659.586.292 1.074.097 1.074-.39 0-.586-.488-1.269-1.074-1.659-.682-.39-1.073-.195-1.073.39"/></g><mask id="l" width="46" height="52" x="204" y="106" maskUnits="userSpaceOnUse" style="mask-type:luminance"><path fill="#fff" d="m204.961 106.137-.098 25.852 44.388 25.559.195-25.657z"/></mask><g mask="url(#l)"><path fill="#4D4D4D" d="m230.14 122.916 8.293-7.219v-2.342l-12.39 7.22z"/><path fill="#E6E6E6" d="m230.14 123.596 12-7.024-4.098-2.342-11.999 7.024z"/><path fill="#4D4D4D" d="m230.051 142.523 12.389-7.219.098-19.609-12.39 7.219z"/><path fill="#1A1A1A" d="m226.043 120.574-.098 19.609 4.098 2.341.097-19.608z"/><path fill="#fff" d="m226.82 137.845 2.147 1.268v-10.439l-2.147-1.268zM226.926 124.968c0 .586.488 1.268 1.073 1.659.585.292 1.073.097 1.073-.391 0-.487-.488-1.268-1.073-1.658-.683-.39-1.073-.195-1.073.39"/></g><mask id="m" width="46" height="52" x="204" y="106" maskUnits="userSpaceOnUse" style="mask-type:luminance"><path fill="#fff" d="m204.961 106.137-.098 25.852 44.388 25.559.195-25.657z"/></mask><g mask="url(#m)"><path fill="#4D4D4D" d="m234.527 125.459 8.292-7.219v-2.342l-12.389 7.22z"/><path fill="#E6E6E6" d="m234.527 126.139 11.999-7.024-4.097-2.342-11.999 7.024z"/><path fill="#4D4D4D" d="m234.434 145.07 12.389-7.219.098-19.609-12.39 7.219z"/><path fill="#1A1A1A" d="m230.43 123.109-.098 19.609 4.097 2.341.098-19.608z"/><path fill="#fff" d="m231.211 140.384 2.146 1.268v-10.438l-2.146-1.269zM231.316 127.507c0 .586.488 1.269 1.074 1.659.585.292 1.073.097 1.073-.39 0-.586-.488-1.269-1.073-1.659-.683-.39-1.074-.195-1.074.39"/></g><mask id="n" width="46" height="52" x="204" y="106" maskUnits="userSpaceOnUse" style="mask-type:luminance"><path fill="#fff" d="m204.961 106.137-.098 25.852 44.388 25.559.195-25.657z"/></mask><g mask="url(#n)"><path fill="#4D4D4D" d="m238.914 127.978 8.292-7.219v-2.341l-12.39 7.219z"/><path fill="#E6E6E6" d="m238.914 128.662 11.999-7.024-4.097-2.341-12 7.024z"/><path fill="#4D4D4D" d="m238.816 147.589 12.39-7.219.098-19.608-12.39 7.219z"/><path fill="#1A1A1A" d="m234.808 125.637-.097 19.608 4.097 2.342.098-19.609z"/><path fill="#fff" d="m235.594 142.911 2.146 1.268v-10.438l-2.146-1.268zM235.699 130.035c0 .585.488 1.268 1.073 1.658.586.293 1.073.098 1.073-.39 0-.585-.487-1.268-1.073-1.659-.683-.39-1.073-.195-1.073.391"/></g><mask id="o" width="46" height="52" x="204" y="106" maskUnits="userSpaceOnUse" style="mask-type:luminance"><path fill="#fff" d="m204.961 106.137-.098 25.852 44.388 25.559.195-25.657z"/></mask><g mask="url(#o)"><path fill="#4D4D4D" d="m243.304 130.517 8.293-7.219v-2.341l-12.39 7.219z"/><path fill="#E6E6E6" d="m243.304 131.197 12-7.024-4.098-2.341-11.999 7.024z"/><path fill="#4D4D4D" d="m243.207 150.132 12.39-7.219.097-19.608-12.389 7.219z"/><path fill="#6D7983" d="m239.199 128.18-.097 19.608 4.097 2.342.097-19.609z"/><path fill="#fff" d="m239.988 145.446 2.147 1.268v-10.438l-2.147-1.268zM240.094 132.57c0 .585.488 1.268 1.073 1.658.585.293 1.073.098 1.073-.39 0-.585-.488-1.268-1.073-1.658-.683-.391-1.073-.196-1.073.39"/></g><mask id="p" width="46" height="52" x="204" y="106" maskUnits="userSpaceOnUse" style="mask-type:luminance"><path fill="#fff" d="m204.961 106.137-.098 25.852 44.388 25.559.195-25.657z"/></mask><g mask="url(#p)"><path fill="#4D4D4D" d="m247.683 132.963 8.39-7.219v-2.342l-12.389 7.219z"/><path fill="#E6E6E6" d="m247.683 133.65 12-7.024-4.098-2.341-11.901 6.927z"/><path fill="#4D4D4D" d="m247.684 152.574 12.389-7.219v-19.609l-12.389 7.219z"/><path fill="#1A1A1A" d="m243.68 130.617-.098 19.609 4.097 2.341v-19.608z"/><path fill="#fff" d="m244.461 147.895 2.146 1.269v-10.439l-2.146-1.268zM244.461 135.019c0 .585.488 1.268 1.073 1.658.585.293 1.073.098 1.073-.39s-.488-1.268-1.073-1.658-1.073-.195-1.073.39"/></g><mask id="q" width="46" height="52" x="204" y="106" maskUnits="userSpaceOnUse" style="mask-type:luminance"><path fill="#fff" d="m204.961 106.137-.098 25.852 44.388 25.559.195-25.657z"/></mask><g mask="url(#q)"><path fill="#4D4D4D" d="m252.078 135.514 8.39-7.22v-2.341l-12.39 7.219z"/><path fill="#E6E6E6" d="m252.078 136.193 11.999-7.024-4.097-2.341-11.902 6.927z"/><path fill="#1A1A1A" d="m248.07 133.168-.097 19.609 4.097 2.341v-19.609z"/><path fill="#fff" d="m248.848 150.435 2.146 1.268v-10.439l-2.146-1.268zM248.848 137.558c0 .585.487 1.268 1.073 1.659.585.292 1.073.097 1.073-.391 0-.585-.488-1.268-1.073-1.658-.586-.39-1.073-.195-1.073.39"/></g><mask id="r" width="46" height="52" x="204" y="135" maskUnits="userSpaceOnUse" style="mask-type:luminance"><path fill="#fff" d="m204.871 135.316-.098 25.755 44.388 25.657.195-25.754z"/></mask><g mask="url(#r)"><path fill="#4D4D4D" d="m212.457 141.865 8.292-7.121v-2.439l-12.39 7.219z"/><path fill="#E6E6E6" d="m212.457 142.545 11.999-7.024-4.097-2.341-12 7.024z"/><path fill="#4D4D4D" d="m212.363 161.472 12.39-7.121.097-19.609-12.389 7.122z"/><path fill="#1A1A1A" d="M208.359 139.512v19.608l4 2.342.098-19.609z"/><path fill="#fff" d="m209.145 156.888 2.146 1.17V147.62l-2.146-1.171zM209.25 143.914c0 .585.488 1.268 1.073 1.658.585.293 1.073.098 1.073-.39 0-.586-.488-1.268-1.073-1.659-.585-.39-1.073-.195-1.073.391"/><path fill="#4D4D4D" d="m216.851 144.381 8.292-7.122v-2.439l-12.389 7.219z"/><path fill="#E6E6E6" d="m216.851 145.072 12-7.024-4.098-2.341-11.999 7.024z"/><path fill="#4D4D4D" d="m216.758 163.996 12.389-7.122.098-19.608-12.39 7.121z"/><path fill="#1A1A1A" d="M212.754 142.047v19.609l4 2.341.097-19.609z"/><path fill="#fff" d="m213.535 159.407 2.146 1.171v-10.439l-2.146-1.17zM213.641 146.433c0 .585.487 1.268 1.073 1.659.585.292 1.073.097 1.073-.391 0-.585-.488-1.268-1.073-1.658-.683-.39-1.073-.195-1.073.39"/><path fill="#4D4D4D" d="m221.25 146.932 8.292-7.122v-2.439l-12.39 7.219z"/><path fill="#E6E6E6" d="m221.25 147.611 11.999-7.024-4.097-2.341-12 7.024z"/><path fill="#4D4D4D" d="m221.148 166.539 12.39-7.122.098-19.608-12.39 7.121z"/><path fill="#1A1A1A" d="M217.152 144.59v19.609l4 2.341.098-19.609z"/><path fill="#fff" d="m217.934 161.954 2.146 1.171v-10.439l-2.146-1.17zM218.039 148.98c0 .585.488 1.268 1.073 1.658.586.293 1.073.098 1.073-.39 0-.585-.487-1.268-1.073-1.658-.683-.39-1.073-.195-1.073.39"/><path fill="#4D4D4D" d="m225.648 149.463 8.292-7.122v-2.439l-12.389 7.219z"/><path fill="#E6E6E6" d="m225.648 150.147 11.999-7.024-4.097-2.342-11.999 7.024z"/><path fill="#4D4D4D" d="m225.543 169.074 12.39-7.122.097-19.608-12.389 7.121z"/><path fill="#1A1A1A" d="M221.551 147.113v19.609l4 2.341.097-19.608z"/><path fill="#fff" d="m222.332 164.489 2.146 1.171v-10.439l-2.146-1.17zM222.438 151.515c0 .585.487 1.268 1.073 1.659.585.292 1.073.097 1.073-.391 0-.585-.488-1.268-1.073-1.658-.683-.39-1.073-.195-1.073.39"/><path fill="#F15A24" d="m230.015 152.002 8.293-7.122v-2.439l-12.39 7.22z"/><path fill="#E6E6E6" d="m230.015 152.682 12-7.024-4.098-2.342-11.999 7.024z"/><path fill="#F15A24" d="m229.918 171.617 12.39-7.122.097-19.608-12.389 7.121z"/><path fill="#AD3814" d="M225.918 149.656v19.609l4 2.341.097-19.608z"/><path fill="#fff" d="m226.707 167.032 2.146 1.171v-10.439l-2.146-1.17zM226.812 154.058c0 .585.488 1.268 1.074 1.659.585.292 1.073.097 1.073-.391 0-.487-.488-1.268-1.073-1.658-.683-.39-1.074-.195-1.074.39"/><path fill="#4D4D4D" d="m234.422 154.537 8.292-7.219v-2.341l-12.39 7.219z"/><path fill="#E6E6E6" d="m234.422 155.213 11.999-7.024-4.097-2.341-12 7.024z"/><path fill="#4D4D4D" d="m234.324 174.148 12.39-7.219.097-19.609-12.389 7.219z"/><path fill="#6D7983" d="M230.324 152.199v19.609l4 2.341.098-19.608z"/><path fill="#fff" d="m231.105 169.466 2.147 1.268v-10.438l-2.147-1.171zM231.211 156.589c0 .586.488 1.269 1.073 1.659.585.292 1.073.097 1.073-.39 0-.586-.488-1.269-1.073-1.659-.683-.39-1.073-.195-1.073.39"/><path fill="#4D4D4D" d="m238.804 157.072 8.293-7.219v-2.341l-12.39 7.219z"/><path fill="#E6E6E6" d="m238.804 157.76 12-7.024-4.098-2.341-11.999 7.024z"/><path fill="#4D4D4D" d="m238.711 176.691 12.389-7.219.098-19.609-12.39 7.219z"/><path fill="#1A1A1A" d="M234.707 154.734v19.609l4 2.341.097-19.608z"/><path fill="#fff" d="m235.492 172.009 2.146 1.268v-10.438l-2.146-1.171zM235.598 159.132c0 .586.487 1.269 1.073 1.659.585.292 1.073.097 1.073-.39 0-.586-.488-1.269-1.073-1.659-.683-.39-1.073-.195-1.073.39"/><path fill="#4D4D4D" d="m243.203 159.619 8.292-7.219v-2.341l-12.39 7.219z"/><path fill="#E6E6E6" d="m243.203 160.299 11.999-7.024-4.097-2.341-12 7.024z"/><path fill="#4D4D4D" d="m243.105 179.218 12.39-7.219.098-19.608-12.39 7.219z"/><path fill="#1A1A1A" d="M239.105 157.273v19.609l4 2.341.098-19.608z"/><path fill="#fff" d="m239.887 174.548 2.146 1.268v-10.438l-2.146-1.171zM239.992 161.671c0 .586.488 1.269 1.073 1.659.586.292 1.073.097 1.073-.39 0-.586-.487-1.269-1.073-1.659-.683-.39-1.073-.195-1.073.39"/></g><mask id="s" width="46" height="52" x="204" y="164" maskUnits="userSpaceOnUse" style="mask-type:luminance"><path fill="#fff" d="m204.754 164.48-.098 25.755 44.388 25.56.195-25.657z"/></mask><g mask="url(#s)"><path fill="#4D4D4D" d="m212.273 171.025 8.292-7.121v-2.342l-12.389 7.122z"/><path fill="#E6E6E6" d="m212.273 171.709 11.999-7.024-4.097-2.341-11.999 7.024z"/><path fill="#4D4D4D" d="m212.172 190.629 12.389-7.122.098-19.609-12.39 7.122z"/><path fill="#1A1A1A" d="M208.176 168.68v19.608l4 2.342.097-19.609z"/><path fill="#fff" d="m209.051 186.048 2.048 1.17V176.78l-2.048-1.171zM209.051 173.071c0 .585.488 1.268 1.073 1.659.585.292 1.073.097 1.073-.391 0-.585-.488-1.268-1.073-1.658-.683-.39-1.073-.098-1.073.39"/></g><mask id="t" width="46" height="52" x="204" y="164" maskUnits="userSpaceOnUse" style="mask-type:luminance"><path fill="#fff" d="m204.754 164.48-.098 25.755 44.388 25.56.195-25.657z"/></mask><g mask="url(#t)"><path fill="#F15A24" d="m216.664 173.561 8.292-7.122v-2.341l-12.39 7.121z"/><path fill="#E6E6E6" d="m216.664 174.248 11.999-7.024-4.097-2.341-12 7.024z"/><path fill="#F15A24" d="m216.562 193.16 12.39-7.122.098-19.608-12.39 7.121z"/><path fill="#AD3814" d="M212.566 171.219v19.608l4 2.342.098-19.609z"/><path fill="#fff" d="m213.445 188.575 2.049 1.171v-10.439l-2.049-1.17zM213.445 175.601c0 .585.488 1.268 1.073 1.658.586.293 1.074.098 1.074-.39 0-.585-.488-1.268-1.074-1.658-.682-.39-1.073-.195-1.073.39"/></g><mask id="u" width="46" height="52" x="204" y="164" maskUnits="userSpaceOnUse" style="mask-type:luminance"><path fill="#fff" d="m204.754 164.48-.098 25.755 44.388 25.56.195-25.657z"/></mask><g mask="url(#u)"><path fill="#4D4D4D" d="m227.683 179.896 8.292-7.219v-2.341l-12.389 7.219z"/><path fill="#E6E6E6" d="m227.683 180.479 12-6.927-4.098-2.341-11.999 6.926z"/><path fill="#4D4D4D" d="m227.684 199.507 12.389-7.219V172.68l-12.389 7.219z"/><path fill="#1A1A1A" d="M223.586 177.551v19.608l4.097 2.342v-19.609z"/><path fill="#fff" d="m224.461 194.825 2.049 1.268v-10.438l-2.049-1.268zM224.461 181.949c0 .585.488 1.268 1.073 1.658.585.293 1.073.098 1.073-.39 0-.585-.488-1.268-1.073-1.659-.585-.39-1.073-.195-1.073.391"/></g><mask id="v" width="46" height="52" x="204" y="164" maskUnits="userSpaceOnUse" style="mask-type:luminance"><path fill="#fff" d="m204.754 164.48-.098 25.755 44.388 25.56.195-25.657z"/></mask><g mask="url(#v)"><path fill="#4D4D4D" d="m232.082 182.428 8.292-7.219v-2.342l-12.39 7.219z"/><path fill="#E6E6E6" d="m232.082 183.014 11.999-6.927-4.097-2.341-12 6.927z"/><path fill="#4D4D4D" d="m232.078 202.035 12.39-7.219v-19.609l-12.39 7.219z"/><path fill="#1A1A1A" d="M227.984 180.082v19.609l4.098 2.341v-19.609z"/><path fill="#fff" d="m228.859 197.356 2.049 1.269v-10.439l-2.049-1.268zM228.859 184.48c0 .585.488 1.268 1.073 1.658.586.293 1.074.098 1.074-.39 0-.585-.488-1.268-1.074-1.658-.585-.39-1.073-.195-1.073.39"/></g><mask id="w" width="46" height="52" x="204" y="164" maskUnits="userSpaceOnUse" style="mask-type:luminance"><path fill="#fff" d="m204.754 164.48-.098 25.755 44.388 25.56.195-25.657z"/></mask><g mask="url(#w)"><path fill="#4D4D4D" d="m236.461 184.955 8.292-7.219v-2.341l-12.39 7.219z"/><path fill="#E6E6E6" d="m236.461 185.541 11.999-6.926-4.097-2.342-12 6.927z"/><path fill="#4D4D4D" d="m236.469 204.57 12.389-7.219v-19.609l-12.389 7.219z"/><path fill="#1A1A1A" d="M232.363 182.617v19.609l4.098 2.341v-19.608z"/><path fill="#fff" d="m233.238 199.888 2.049 1.268v-10.439l-2.049-1.268zM233.238 187.011c0 .586.488 1.268 1.073 1.659.586.292 1.074.097 1.074-.391 0-.585-.488-1.268-1.074-1.658-.585-.39-1.073-.195-1.073.39"/></g><mask id="x" width="46" height="52" x="204" y="164" maskUnits="userSpaceOnUse" style="mask-type:luminance"><path fill="#fff" d="m204.754 164.48-.098 25.755 44.388 25.56.195-25.657z"/></mask><g mask="url(#x)"><path fill="#4D4D4D" d="m240.836 187.506 8.292-7.219v-2.342l-12.39 7.219z"/><path fill="#E6E6E6" d="m240.836 188.084 11.999-6.926-4.097-2.342-12 6.927z"/><path fill="#4D4D4D" d="m240.852 207.113 12.389-7.219v-19.609l-12.389 7.219z"/><path fill="#6D7983" d="M236.738 185.16v19.609l4.098 2.341v-19.609z"/><path fill="#fff" d="m237.621 202.435 2.049 1.17v-10.341l-2.049-1.268zM237.621 189.558c0 .585.488 1.268 1.073 1.659.586.292 1.073.097 1.073-.391 0-.487-.487-1.268-1.073-1.658-.585-.39-1.073-.195-1.073.39"/></g><mask id="y" width="46" height="52" x="204" y="164" maskUnits="userSpaceOnUse" style="mask-type:luminance"><path fill="#fff" d="m204.754 164.48-.098 25.755 44.388 25.56.195-25.657z"/></mask><g mask="url(#y)"><path fill="#4D4D4D" d="m245.226 190.033 8.292-7.219v-2.341l-12.389 7.219z"/><path fill="#E6E6E6" d="m245.226 190.623 12-6.926-4.098-2.342-11.999 6.927z"/><path fill="#4D4D4D" d="m245.234 209.64 12.39-7.219v-19.609l-12.39 7.22z"/><path fill="#1A1A1A" d="M241.129 187.695v19.609l4.097 2.341v-19.608z"/><path fill="#fff" d="m242.02 204.966 2.048 1.17v-10.34l-2.048-1.269zM242.02 192.089c0 .586.487 1.269 1.073 1.659.585.292 1.073.097 1.073-.39 0-.586-.488-1.269-1.073-1.659-.586-.39-1.073-.195-1.073.39"/></g><mask id="z" width="46" height="52" x="204" y="164" maskUnits="userSpaceOnUse" style="mask-type:luminance"><path fill="#fff" d="m204.754 164.48-.098 25.755 44.388 25.56.195-25.657z"/></mask><g mask="url(#z)"><path fill="#4D4D4D" d="m249.636 192.58 8.293-7.219v-2.341l-12.39 7.219z"/><path fill="#E6E6E6" d="m249.636 193.162 12-6.926-4.098-2.341-11.999 6.926z"/><path fill="#1A1A1A" d="M245.539 190.242v19.609l4.097 2.341v-19.608z"/><path fill="#fff" d="m246.418 207.509 2.049 1.17v-10.34l-2.049-1.269zM246.418 194.632c0 .586.488 1.269 1.073 1.659.585.292 1.073.097 1.073-.39 0-.586-.488-1.269-1.073-1.659s-1.073-.195-1.073.39"/></g><path fill="#333" d="M205.855 224.083v-3.22q0 .44-.585.878v3.22c.39-.195.585-.586.585-.878"/><path fill="#333" d="M201.758 220.863v3.22q0 .438.585.878c.781.487 2.146.487 2.927 0v-3.22c-.781.488-2.146.488-2.927 0q-.585-.438-.585-.878"/><path fill="#000" d="M205.27 221.743c.78-.488.78-1.268 0-1.658-.781-.488-2.146-.488-2.927 0-.78.487-.78 1.268 0 1.658.781.488 2.146.488 2.927 0"/><path fill="#D4BFA7" d="m252.176 130.041-.292 119.994-1.366.78-1.561-2.439v-29.169l.098-3.414v-29.072l.097-25.852v-3.317l.098-25.755v-3.414z"/><path fill="#F2E8DF" d="m200.375 221.841 23.901 13.756.976.585 25.267 14.633v-32.681l-25.267-14.535-.976-.586-23.803-13.658z"/><path fill="#D4BFA7" d="M224.273 203.012v32.583l.976.586v-32.584z"/><path fill="#333" d="m227.796 208.076-.878.488c.195-.098.39-.098.683.097l.878-.488c-.293-.195-.488-.195-.683-.097M228.191 210.81l.878-.488q.292-.147.292-.585c0-.586-.39-1.269-.878-1.561l-.878.488c.488.292.878.975.878 1.56q0 .44-.292.586"/><path fill="#000" d="M227.605 208.662c-.488-.293-.878-.098-.878.488 0 .585.39 1.268.878 1.56.487.293.878.098.878-.487 0-.586-.391-1.269-.878-1.561"/><path fill="#333" d="m220.378 203.771-.878.488c.195-.098.39-.098.683.097l.878-.487c-.293-.195-.488-.195-.683-.098M220.769 206.505l.878-.488q.293-.146.293-.585c0-.585-.391-1.268-.878-1.561l-.878.488c.487.293.878.975.878 1.561q0 .439-.293.585"/><path fill="#000" d="M220.183 204.365c-.488-.293-.878-.098-.878.488 0 .585.39 1.268.878 1.561.487.292.878.097.878-.488 0-.586-.391-1.268-.878-1.561"/><path fill="#D4BFA7" d="M105.948 233.352c2.83 11.902 2.049 17.657-1.365 24.681l-29.657 17.268c3.414-7.024 4.195-12.78 1.365-24.682-3.219-13.56-2.243-17.755-.78-18.633 1.268-.683 2.83.78 2.634 1.366l25.657-14.926c-.195 2.731.293 7.414 2.146 14.926"/><path fill="#F2E8DF" d="M107.015 233.352c2.829 11.902 2.341 19.316-1.073 26.34l-29.657 17.267c3.414-7.024 3.902-14.438 1.073-26.34-3.22-13.56-2.244-17.755-.78-18.633 1.268-.683 2.829.78 2.633 1.366l25.658-14.926c-.098 2.731.39 7.414 2.146 14.926"/><path fill="#333" d="m120.777 309.629 2.049-1.268-7.902-40.388-2.147 1.17z"/><path fill="#4D4D4D" d="m114.14 269.536 2.049-1.17-.195-1.366-2.049 1.171z"/><path fill="#CCC" d="m113.948 268.162 2.048-1.17-1.365-.39-2.049 1.268z"/><path fill="#333" d="m95.203 295.194 2.049-1.171 13.17-42.046-2.049 1.17z"/><path fill="#A79681" d="m108.381 252.951 2.049-1.171-1.268-1.171-2.049 1.171z"/><path fill="#4D4D4D" d="m108.379 253.143 2.049-1.171v-.195l-2.049 1.171z"/><path fill="gray" d="m102.823 218.316-1.366-.39 6.926 35.022 11.024 56.29 1.366.39-8-40.486 1.366.391-.195-1.366-1.366-.293z"/><path fill="gray" d="m107.115 251.777-13.267 42.242 1.365 1.171 13.17-42.047v-.195z"/><path fill="#4D4D4D" d="m102.827 218.307 2.048-1.268-1.268-.391-2.146 1.269z"/><path fill="#333" d="m102.827 218.307 2.048-1.268-1.268-.391-2.146 1.269z"/><path fill="#4D4D4D" d="m112.576 267.869 2.049-1.268-9.756-49.558-2.049 1.268z"/><path fill="gray" d="M114.821 280.956v-.585c-.195-.098-.293-.293-.488-.39l-12.682-7.317c-.781-.39-1.366-.195-1.366.585 0 .781.585 1.659 1.366 2.146l12.682 7.317c.293.195.585.195.781.195-.098-.683-.293-1.268-.293-1.951"/><path fill="#333" d="m97.851 322.805 2.049-1.171-7.902-40.486-2.049 1.171z"/><path fill="#4D4D4D" d="m91.308 282.706 24.877-14.34-.195-1.366-24.974 14.438z"/><path fill="#CCC" d="m91.014 281.446 24.974-14.439-1.365-.39-24.975 14.438z"/><path fill="#333" d="m72.281 308.459 2.049-1.268 13.267-42.046-2.048 1.17z"/><path fill="#A79681" d="m85.456 266.123 2.146-1.171-1.268-1.171-2.049 1.171z"/><path fill="#4D4D4D" d="m85.555 266.315 2.048-1.171v-.195l-2.146 1.171z"/><path fill="gray" d="m79.987 231.496-1.366-.391 6.829 35.023 11.024 56.289 1.365.391-7.901-40.486 1.365.39-.292-1.268-1.366-.39z"/><path fill="gray" d="m84.283 264.949-13.267 42.242 1.268 1.268 13.267-42.144-.097-.195z"/><path fill="#4D4D4D" d="m79.99 231.491 2.05-1.171-1.366-.39-2.049 1.17z"/><path fill="#333" d="m79.99 231.491 2.05-1.171-1.366-.39-2.049 1.17z"/><path fill="#4D4D4D" d="m89.654 281.057 2.146-1.171-9.755-49.558-2.049 1.171z"/><path fill="#4D4D4D" d="m78.14 233.345 29.657-17.267-.781-.293-29.657 17.267z"/><path fill="#FBFFF2" d="m87.896 282.904 29.657-17.365-9.755-49.461-29.657 17.267z"/><path fill="#FFC366" d="M106.129 252.663c-2.927 1.658-4.683 5.755-3.805 9.17.293 1.073.878 2.048 1.659 2.731l1.756-2.634a3.7 3.7 0 0 1-.878-1.463c-.488-1.854.39-4 2.049-4.975a2.75 2.75 0 0 1 1.463-.391l.488-3.121c-.878-.098-1.854.195-2.732.683"/><path fill="#F15A24" d="m108.871 251.984-.488 3.122c1.073 0 1.951.781 2.341 2.049.488 1.853-.39 4-2.049 4.975-.097.098-.195.098-.292.195l.488 2.927.585-.293c2.927-1.658 4.683-5.755 3.707-9.17-.683-2.341-2.244-3.805-4.292-3.805"/><path fill="#6D7983" d="m105.76 261.824-1.756 2.634c1.268 1.073 3.024 1.366 4.78.586l-.488-2.927c-.878.488-1.853.293-2.536-.293"/><path fill="#3399B0" d="m105.76 261.824-1.756 2.634c1.268 1.073 3.024 1.366 4.78.586l-.488-2.927c-.878.488-1.853.293-2.536-.293"/><path fill="#6D7983" d="m96.393 260.75-.878 3.122a2.4 2.4 0 0 1 1.854 1.951c.487 1.853-.39 4-2.049 4.975-.097.098-.195.098-.293.195l.488 2.927.585-.293c2.927-1.658 4.683-5.755 3.708-9.17-.488-2.049-1.756-3.414-3.415-3.707"/><path fill="#3399B0" d="m96.393 260.75-.878 3.122a2.4 2.4 0 0 1 1.854 1.951c.487 1.853-.39 4-2.049 4.975-.097.098-.195.098-.293.195l.488 2.927.585-.293c2.927-1.658 4.683-5.755 3.708-9.17-.488-2.049-1.756-3.414-3.415-3.707"/><path fill="#FFC366" d="M89.17 266.418a8.35 8.35 0 0 0-.098 4.097c.78 3.122 3.512 4.488 6.341 3.317l-.488-2.926c-1.463.682-3.024-.098-3.414-1.756-.195-.683-.195-1.464 0-2.244z"/><path fill="#F15A24" d="M92.883 261.35c-1.756.975-3.122 2.927-3.707 5.073l2.439.488c.292-1.171 1.073-2.244 2.048-2.732.586-.39 1.269-.488 1.854-.293l.878-3.121q-1.755-.44-3.512.585"/><path fill="#333" d="m78.14 233.351-.78-.292 9.657 49.558.878.292z"/><path fill="gray" d="M91.7 293.543a1.4 1.4 0 0 0-.39-.293l-12.682-7.317c-.195-.097-.39-.195-.488-.195a4.7 4.7 0 0 1-.39 1.073c-.098.196-.098.391-.195.586.195.488.683.975 1.17 1.268l12.683 7.317c.39.195.683.292.975.195-.488-.878-.683-1.659-.683-2.634"/><path fill="#F2E8DF" d="m105.063 214.714-29.56 17.267c1.27-.682 2.83.878 2.733 1.366l25.657-14.926 4.097-2.341c-.098-.585-1.659-2.146-2.927-1.366"/><path fill="#6D7983" d="m88.77 252.168-.293.195-.098-.391.293-.195zM89.257 254.9l-.293.195-.097-.683.293-.195zm-.293-1.366-.292.196-.098-.683.293-.195zM89.449 255.964l-.195.196-.098-.391.195-.195zM93.554 249.433l-.292.098-.098-.39.293-.098zM94.046 252.166l-.292.195-.098-.683.293-.195zm-.195-1.366-.293.195-.097-.683.293-.195zM94.332 253.238l-.293.097-.098-.39.293-.195zM99.304 239.589l-.292.098-.098-.39.293-.098zM100.963 247.98l-.293.196-.195-.878.293-.196zm-.39-1.658-.293.195-.195-.878.293-.195zm-.293-1.756-.293.195-.195-.878.293-.195zm-.293-1.658-.292.195-.195-.878.292-.195zm-.39-1.659-.292.195-.196-.878.293-.195zM101.156 249.249l-.195.098-.098-.39.293-.195zM103.211 230.316l-.293.098v-.391l.195-.097zM106.145 244.951l-.292.195-.196-.781.293-.195zm-.292-1.659-.293.195-.195-.78.292-.195zm-.293-1.561-.293.195-.195-.78.293-.195zm-.39-1.658-.293.195-.195-.78.293-.196zm-.293-1.659-.293.196-.195-.781.293-.195zm-.39-1.56-.293.195-.195-.781.293-.195zm-.293-1.659-.293.195-.195-.78.293-.195zm-.293-1.658-.292.195-.195-.781.292-.195zm-.39-1.561-.292.195-.196-.781.293-.195zM106.429 246.218l-.292.098-.098-.39.293-.098z"/><path fill="#D93035" d="M87.21 256.657h-.487l1.56-4.976 4.878-3.121.683-6.537 5.073-3.024 3.512-8.292.488.098-3.61 8.584-4.975 2.927-.683 6.536-4.975 3.22z"/><path fill="#D93035" d="m103.112 231.586.683-3.512-2.049 3.22z"/><path fill="#6D7983" d="m109.941 244.265-23.316 13.56-3.61-17.755.293-.097 3.512 17.462 23.023-13.463z"/><path fill="#D4BFA7" d="m288.277 178.913 88.873 51.314v-72.678l-88.873-51.315z"/><path fill="#34424B" d="m376.763 230.815-88.775-51.314c-.195-.098-.39-.39-.39-.585v-72.679c0-.293.097-.488.39-.586a.84.84 0 0 1 .683 0l88.775 51.315c.195.097.391.39.391.585v72.679c0 .292-.098.488-.391.585-.097.098-.195.098-.39.098 0 0-.195 0-.293-.098m-87.702-123.31v71.02l87.41 50.437v-71.021z"/><path fill="#fff" d="m347.598 153.066 21.559 12.39v42.729l-21.559-12.487z"/><path fill="#FBB03B" d="M351.129 166.23c0-3.902 3.219-5.268 7.121-3.024s7.122 7.316 7.122 11.316c0 3.902-3.219 5.268-7.122 3.024-3.902-2.341-7.121-7.414-7.121-11.316m4.39 2.536c0 1.464 1.268 3.415 2.731 4.293 1.464.878 2.732.39 2.732-1.171 0-1.463-1.268-3.414-2.732-4.292-1.463-.878-2.731-.39-2.731 1.17"/><path fill="#3399B0" d="M358.243 177.445c3.902 2.244 7.121.878 7.121-3.024 0-2.048-.878-4.487-2.439-6.731l-2.926 1.658c.585.878.878 1.756.878 2.537 0 1.463-1.269 2.048-2.732 1.17s-2.732-2.829-2.732-4.292l-4.39-2.536c.098 3.902 3.317 8.975 7.22 11.218"/><path fill="#F15A24" d="M358.25 177.446c.683.39 1.269.682 1.854.878l-1.171-4.878c-.195-.098-.487-.195-.683-.293-1.463-.878-2.731-2.829-2.731-4.292l-4.39-2.537c0 3.805 3.219 8.878 7.121 11.122"/><path fill="#CCC" d="m351.222 177.541 14.146 8.194c.39.196.682.098.682-.292v-.781c0-.39-.292-.78-.682-.975l-14.146-8.195c-.39-.195-.683-.097-.683.293v.78c0 .293.293.781.683.976"/><path fill="#F15A24" d="m360.394 182.81 4.975 2.829c.39.196.683.098.683-.292v-.781c0-.39-.293-.78-.683-.975l-4.975-2.829c-.39-.195-.683-.098-.683.292v.781c0 .292.293.78.683.975"/><path fill="#CCC" d="m351.222 180.467 14.146 8.194c.39.195.682.098.682-.292v-.781c0-.39-.292-.78-.682-.975l-14.146-8.195c-.39-.195-.683-.098-.683.293v.78c0 .293.293.78.683.976"/><path fill="#3399B0" d="m361.851 186.615 3.512 2.049c.39.195.683.097.683-.293v-.78c0-.391-.293-.781-.683-.976l-3.512-2.049c-.39-.195-.683-.097-.683.293v.78c0 .293.293.781.683.976"/><path fill="#CCC" d="m351.222 183.494 14.146 8.195c.39.195.682.097.682-.293v-.781c0-.39-.292-.78-.682-.975l-14.146-8.195c-.39-.195-.683-.097-.683.293v.78c0 .293.293.781.683.976"/><path fill="#6D7983" d="m359.515 188.271 5.853 3.317c.39.195.683.098.683-.293v-.78c0-.39-.293-.78-.683-.976l-5.853-3.316c-.39-.196-.683-.098-.683.292v.781c.098.292.39.78.683.975"/><path fill="#CCC" d="m351.222 186.517 14.146 8.195c.39.195.682.098.682-.293v-.78c0-.39-.292-.781-.682-.976l-14.146-8.194c-.39-.195-.683-.098-.683.292v.781c0 .292.293.683.683.975"/><path fill="#6D7983" d="m362.73 193.15 2.536 1.463c.39.196.683.098.683-.292v-.781c0-.39-.293-.78-.683-.975l-2.536-1.464c-.39-.195-.683-.097-.683.293v.781c.097.292.39.78.683.975"/><path fill="#fff" d="M353.945 167.795c0 2.439 1.951 5.464 4.39 6.829 2.439 1.366 4.39.586 4.39-1.853s-1.951-5.463-4.39-6.829-4.39-.585-4.39 1.853"/><path fill="#6D7983" d="m364.094 201.639 1.366.78v-5.756l-1.366-.78z"/><path fill="#F15A24" d="m361.949 200.375 1.268.781v-3.512l-1.268-.781z"/><path fill="#3399B0" d="m359.801 199.113 1.268.78v-4.488l-1.268-.78z"/><path fill="#6D7983" d="m357.656 197.94 1.268.683v-5.073l-1.268-.78zM355.41 196.673l1.366.682v-3.121l-1.366-.683z"/><path fill="#3399B0" d="m353.262 195.404 1.268.683v-5.658l-1.268-.781z"/><path fill="#6D7983" d="m351.117 194.144 1.268.78v-4.39l-1.268-.78z"/><path fill="#fff" d="m292.668 122.727 21.56 12.487v42.631l-21.56-12.487z"/><path fill="#F15A24" d="M303.597 133.743c1.366.781 2.731 1.951 3.902 3.415l-1.854 2.829c-.682-.781-1.365-1.366-2.146-1.854-2.439-1.463-4.487-.293-4.487 2.537l-3.805-2.147c.098-5.268 3.805-7.414 8.39-4.78"/><path fill="#6D7983" d="M299.107 140.681c0 1.659.683 3.512 1.853 5.171l-2.243 2.244c-2.147-3.025-3.415-6.634-3.317-9.658z"/><path fill="#3399B0" d="M299.107 140.681c0 1.659.683 3.512 1.853 5.171l-2.243 2.244c-2.147-3.025-3.415-6.634-3.317-9.658z"/><path fill="#FFC366" d="M307.604 137.164c2.634 3.219 4.293 7.317 4.293 10.829 0 5.268-3.708 7.316-8.293 4.682-1.756-.975-3.414-2.634-4.877-4.585l2.243-2.243c.781 1.073 1.659 1.951 2.634 2.536 2.439 1.463 4.488.293 4.488-2.536 0-1.854-.878-4.098-2.341-5.854z"/><path fill="#333" d="m309.844 162.047 1.366.78v8.293l-1.366-.781z"/><path fill="#3399B0" d="m308.484 164.582 1.366.878v4.878l-1.366-.781z"/><path fill="#F15A24" d="m307.016 163.406 1.463.781v5.365l-1.463-.878z"/><path fill="#6D7983" d="m305.648 162.047 1.366.78v5.854l-1.366-.781z"/><path fill="#F15A24" d="m304.281 160.293 1.366.78v6.829l-1.366-.78z"/><path fill="#3399B0" d="m302.922 161.754 1.366.78v4.585l-1.366-.78z"/><path fill="#6D7983" d="m301.551 161.359 1.366.781v4.195l-1.366-.781z"/><path fill="#F15A24" d="m300.086 161.262 1.463.878v3.414l-1.463-.878z"/><path fill="#6D7983" d="m298.723 159.023 1.365.781v4.878l-1.365-.781z"/><path fill="#F15A24" d="m297.348 157.754 1.365.878v5.268l-1.365-.781z"/><path fill="#333" d="m295.996 157.754 1.366.78v4.585l-1.366-.78z"/><path fill="#6D7983" d="m294.629 154.73 1.366.781v6.829l-1.366-.781z"/><path fill="#333" d="m311.224 161.365-2.829-1.658v2.049l2.829 1.658zm-2.732.293v-1.853l2.732 1.56v1.854z"/><path fill="#333" d="M305.652 160.099v-2.048l2.829 1.658v2.049zm.098-1.853v1.853l2.731 1.561v-1.853z"/><path fill="#333" d="M302.832 158.545v-2.049l2.829 1.659v2.048zm.098-1.951v1.853l2.731 1.561v-1.853z"/><path fill="#333" d="M300.102 156.881v-2.049l2.829 1.658v2.049zm.097-1.854v1.854l2.732 1.561v-1.854z"/><path fill="#333" d="M297.363 155.322v-2.049l2.829 1.659v2.049zm0-1.853v1.853l2.732 1.561v-1.854z"/><path fill="#333" d="M294.539 153.76v-2.049l2.829 1.658v2.049zm.098-1.952v1.854l2.731 1.561v-1.854zM311.224 163.323l-2.829-1.659v2.049l2.829 1.658zm-2.732.292v-1.853l2.732 1.561v1.853z"/><path fill="#333" d="M305.652 162.053v-2.049l2.829 1.658v2.049zm.098-1.854v1.854l2.731 1.56v-1.853z"/><path fill="#333" d="M302.832 160.486v-2.048l2.829 1.658v2.049zm.098-1.951v1.854l2.731 1.561v-1.854z"/><path fill="#333" d="M300.102 158.935v-2.048l2.829 1.658v2.049zm.097-1.951v1.854l2.732 1.561v-1.854z"/><path fill="#333" d="M297.363 157.279v-2.049l2.829 1.659v2.049zm0-1.853v1.853l2.732 1.561v-1.854z"/><path fill="#333" d="M294.539 155.709v-2.049l2.829 1.659v2.048zm.098-1.951v1.853l2.731 1.561v-1.853zM311.224 165.268l-2.829-1.659v2.049l2.829 1.658zm-2.732.292v-1.853l2.732 1.561v1.853z"/><path fill="#333" d="M305.652 164.002v-2.049l2.829 1.659v2.048zm.098-1.854v1.854l2.731 1.561v-1.854z"/><path fill="#333" d="M302.832 162.443v-2.048l2.829 1.658v2.049zm.098-1.951v1.854l2.731 1.561v-1.854z"/><path fill="#333" d="M300.102 160.881v-2.049l2.829 1.658v2.049zm.097-1.951v1.853l2.732 1.561v-1.854z"/><path fill="#333" d="M297.363 159.224v-2.048l2.829 1.658v2.049zm0-1.853v1.853l2.732 1.561v-1.853z"/><path fill="#333" d="M294.539 157.662v-2.049l2.829 1.659v2.048zm.098-1.951v1.853l2.731 1.561v-1.853zM311.224 167.225l-2.829-1.659v2.049l2.829 1.659zm-2.732.293v-1.854l2.732 1.561v1.853z"/><path fill="#333" d="M305.652 165.955v-2.049l2.829 1.659v2.048zm.098-1.854v1.854l2.731 1.561v-1.854z"/><path fill="#333" d="M302.832 164.389v-2.049l2.829 1.658v2.049zm.098-1.952v1.854l2.731 1.561v-1.854z"/><path fill="#333" d="M300.102 162.834v-2.049l2.829 1.659v2.048zm.097-1.951v1.853l2.732 1.561v-1.853z"/><path fill="#333" d="M297.363 161.178v-2.049l2.829 1.658v2.049zm0-1.854v1.854l2.732 1.56v-1.853z"/><path fill="#333" d="M294.539 159.615v-2.049l2.829 1.659v2.049zm.098-1.951v1.854l2.731 1.56v-1.853zM311.224 169.166l-2.829-1.658v2.048l2.829 1.659zm-2.732.293v-1.854l2.732 1.561v1.854z"/><path fill="#333" d="M305.652 167.908v-2.049l2.829 1.659v2.048zm.098-1.854v1.854l2.731 1.561v-1.854z"/><path fill="#333" d="M302.832 166.346v-2.049l2.829 1.658v2.049zm.098-1.952v1.854l2.731 1.561v-1.854z"/><path fill="#333" d="M300.102 164.783v-2.049l2.829 1.659v2.048zm.097-1.951v1.853l2.732 1.561v-1.853z"/><path fill="#333" d="M297.363 163.127v-2.049l2.829 1.659v2.048zm0-1.854v1.854l2.732 1.561v-1.854z"/><path fill="#333" d="M294.539 161.568v-2.048l2.829 1.658v2.049zm.098-1.951v1.854l2.731 1.561v-1.854z"/><path fill="#fff" d="m320.383 138.043 21.56 12.39v42.631l-21.56-12.389z"/><path fill="#F15A24" d="m335.207 151.213 4.975 2.829v-1.463l-4.975-2.829zM328.773 147.502l4.878 2.83v-1.464l-4.878-2.829zM322.238 143.698l4.878 2.829v-1.464l-4.878-2.829z"/><path fill="#fff" d="m335.207 153.753 4.975 2.829v-1.366l-4.975-2.829z"/><path fill="#F15A24" d="m328.773 150.038 4.878 2.829v-1.464l-4.878-2.829zM322.238 146.233l4.878 2.829v-1.366l-4.878-2.829z"/><path fill="#6D7983" d="m335.207 156.385 4.975 2.829v-1.463l-4.975-2.829zM328.773 152.581l4.878 2.829v-1.464l-4.878-2.829z"/><path fill="#3399B0" d="m322.238 148.873 4.878 2.83v-1.464l-4.878-2.829z"/><path fill="#F15A24" d="m335.207 158.92 4.975 2.829v-1.463l-4.975-2.829zM328.773 155.116l4.878 2.829v-1.366l-4.878-2.829zM322.238 151.405l4.878 2.829v-1.463l-4.878-2.83z"/><path fill="#3399B0" d="m335.207 161.459 4.975 2.83v-1.366l-4.975-2.927z"/><path fill="#6D7983" d="m328.773 157.745 4.878 2.829v-1.464l-4.878-2.829zM322.238 153.94l4.878 2.829v-1.366l-4.878-2.829z"/><path fill="#3399B0" d="m335.207 163.995 4.975 2.829v-1.366l-4.975-2.829z"/><path fill="#6D7983" d="m328.773 160.288 4.878 2.829v-1.464l-4.878-2.829zM322.238 156.479l4.878 2.927v-1.464l-4.878-2.829z"/><path fill="#F15A24" d="m335.207 166.627 4.975 2.83v-1.464l-4.975-2.829zM328.773 162.819l4.878 2.829v-1.366l-4.878-2.829z"/><path fill="#fff" d="m322.238 159.12 4.878 2.829v-1.464l-4.878-2.829z"/><path fill="#F15A24" d="m335.207 169.163 4.975 2.829v-1.464l-4.975-2.829z"/><path fill="#D4EEFF" d="m328.773 165.456 4.878 2.829v-1.464l-4.878-2.829z"/><path fill="#F15A24" d="m322.238 161.651 4.878 2.829v-1.463l-4.878-2.829z"/><path fill="#6D7983" d="m335.207 171.702 4.975 2.829v-1.366l-4.975-2.829zM328.773 167.995l4.878 2.829v-1.464l-4.878-2.829zM322.238 164.182l4.878 2.829v-1.365l-4.878-2.83z"/><path fill="#F15A24" d="m335.207 174.334 4.975 2.83V175.7l-4.975-2.829zM328.773 170.53l4.878 2.829v-1.366l-4.878-2.927zM322.238 166.819l4.878 2.829v-1.463l-4.878-2.83zM335.207 153.753l4.975 2.829v-1.366l-4.975-2.829zM328.773 160.288l4.878 2.829v-1.464l-4.878-2.829zM322.238 156.479l4.878 2.927v-1.464l-4.878-2.829z"/><path fill="#fff" d="m335.207 166.627 4.975 2.83v-1.464l-4.975-2.829z"/><path fill="#F15A24" d="m328.773 162.819 4.878 2.829v-1.366l-4.878-2.829zM322.238 159.12l4.878 2.829v-1.464l-4.878-2.829z"/><path fill="#6D7983" d="m335.207 169.163 4.975 2.829v-1.464l-4.975-2.829zM328.773 165.456l4.878 2.829v-1.464l-4.878-2.829zM322.238 161.651l4.878 2.829v-1.463l-4.878-2.829z"/><path fill="#F15A24" d="m335.207 171.702 4.975 2.829v-1.366l-4.975-2.829zM328.773 167.995l4.878 2.829v-1.464l-4.878-2.829zM322.238 164.182l4.878 2.829v-1.365l-4.878-2.83z"/><path fill="#6D7983" d="m335.207 174.334 4.975 2.83V175.7l-4.975-2.829zM328.773 170.53l4.878 2.829v-1.366l-4.878-2.927z"/><path fill="#3399B0" d="m322.238 166.819 4.878 2.829v-1.463l-4.878-2.83z"/><path fill="#6D7983" d="m335.207 176.873 4.975 2.83v-1.464l-4.975-2.829zM328.773 173.065l4.878 2.829v-1.366l-4.878-2.829zM322.238 169.362l4.878 2.829v-1.463l-4.878-2.83z"/><path fill="#F15A24" d="m335.207 179.409 4.975 2.829v-1.366l-4.975-2.829zM328.773 175.702l4.878 2.829v-1.464l-4.878-2.829z"/><path fill="#fff" d="m322.238 171.889 4.878 2.829v-1.365l-4.878-2.83z"/><path fill="#F15A24" d="m335.207 181.952 4.975 2.829v-1.366l-4.975-2.829z"/><path fill="#3399B0" d="m328.773 178.233 4.878 2.829v-1.463l-4.878-2.829z"/><path fill="#F15A24" d="m322.238 174.526 4.878 2.829v-1.463l-4.878-2.83z"/><path fill="#3399B0" d="m335.207 184.581 4.975 2.829v-1.464l-4.975-2.829z"/><path fill="#6D7983" d="m328.773 180.776 4.878 2.829v-1.366l-4.878-2.829zM322.238 177.065l4.878 2.829v-1.463l-4.878-2.829z"/><path fill="#F15A24" d="m335.207 187.112 4.975 2.829v-1.463l-4.975-2.83zM328.773 183.409l4.878 2.829v-1.464l-4.878-2.829zM322.238 179.6l4.878 2.829v-1.463l-4.878-2.829z"/><path fill="#fff" d="m196.668 66.338-147.7 85.264v-9.366l147.7-85.263z"/><path fill="#97B9CF" d="M249.54 296.471c-.975.585-.975 1.463 0 2.048l78.337 45.559c1.073.585 2.732.585 3.805 0l51.997-30.047c.976-.586.976-1.464 0-2.049l-20.389-11.999c-.976-.586-2.634-.586-3.609 0l-16.195 9.365c-1.073.585-2.829.585-3.902 0l-54.143-31.413c-.976-.585-2.634-.585-3.61 0z" opacity=".5"/><path fill="gray" d="m283.99 277.744 2.732 1.561c-.488-.292-1.073-.195-1.854.195l-2.731-1.561c.683-.39 1.365-.487 1.853-.195"/><path fill="gray" d="m271.794 287.108-2.829-1.659 13.17-7.511 2.731 1.56z"/><path fill="#333" d="m255.505 300.665-2.732-1.658v-1.171l2.732 1.561z"/><path fill="gray" d="m258.142 295.015-2.83-1.658 11.317-6.439 2.731 1.561z"/><path fill="gray" d="m255.505 299.404-2.732-1.561c0-1.658 1.171-3.61 2.537-4.488l2.731 1.561c-1.365.878-2.536 2.829-2.536 4.488"/><path fill="#666" d="m269.364 288.466-2.731-1.561-.098-23.51 2.732 1.658z"/><path fill="#333" d="m269.267 265.059-2.732-1.658 2.439-1.366 2.732 1.561z"/><path fill="#333" d="m271.698 263.602.098 23.51 13.072-7.609c1.463-.78 2.537-.195 2.537 1.463v1.171l-31.901 18.438v-1.171c0-1.658 1.171-3.609 2.536-4.487l11.219-6.536-.097-23.511z"/><path fill="gray" d="m375.307 305.644 2.731 1.561c-.488-.293-1.073-.195-1.853.195l-2.732-1.561c.683-.39 1.366-.39 1.854-.195M341.642 327.4l-2.732-1.561 34.535-19.999 2.731 1.658z"/><path fill="#333" d="m325.45 340.958-2.829-1.561v-1.268l2.829 1.658z"/><path fill="gray" d="m327.989 335.308-2.731-1.561 11.219-6.536 2.731 1.658z"/><path fill="gray" d="m325.454 339.783-2.731-1.561c0-1.659 1.17-3.61 2.536-4.488l2.732 1.561c-1.464.878-2.634 2.829-2.537 4.488"/><path fill="#666" d="m339.212 328.865-2.732-1.659-.097-23.413 2.731 1.561z"/><path fill="#333" d="m339.114 305.352-2.731-1.561 2.439-1.463 2.731 1.659z"/><path fill="#333" d="m341.546 303.984.097 23.511 34.535-19.999c1.463-.78 2.536-.195 2.536 1.464v1.17l-53.362 30.828v-1.171c0-1.658 1.17-3.609 2.536-4.487l11.219-6.537-.098-23.51z"/><path fill="#666" d="m269.734 278.815 1.561-.877 67.314 38.729-1.561.878z"/><path fill="#333" d="m269.734 280.479 67.314 38.729v-1.658l-67.314-38.73z"/><path fill="gray" d="m331.181 333.454-2.732-1.56 8-4.683 2.731 1.658z"/><path fill="#666" d="m339.181 328.872-2.732-1.658-.097-46.241 2.731 1.561z"/><path fill="#333" d="m339.083 282.54-2.731-1.561 2.438-1.463 2.732 1.658z"/><path fill="#333" d="m341.521 281.168.097 46.241-2.438 1.464-.098-46.339z"/><path fill="#666" d="m358.505 317.761-2.829-1.658v-44.388l2.731 1.658z"/><path fill="#333" d="m358.407 273.38-2.731-1.659 2.439-1.366 2.731 1.561z"/><path fill="#333" d="M360.845 271.906v44.388l-2.341 1.463-.098-44.387z"/><path fill="#D4BFA7" d="M248.851 255.985c-.097-.39.196-.878.683-1.171l32.291-18.535c.976-.585 2.634-.585 3.61 0l54.143 31.413c1.073.585 2.829.585 3.902 0l16.195-9.366c.975-.585 2.634-.585 3.609 0l20.389 12c.488.292.683.683.683 1.073v2.634c0 .39-.293.78-.78 1.073l-51.997 30.047c-1.074.585-2.732.585-3.805 0l-78.24-45.656c-.487-.293-.683-.683-.78-1.073v-2.634c.097.098.097.098.097.195"/><path fill="#F2E8DF" d="M249.536 254.814c-.975.586-.975 1.464 0 2.049l78.337 45.559c1.074.585 2.732.585 3.805 0l51.997-30.048c.976-.585.976-1.463 0-2.048l-20.389-12c-.975-.585-2.634-.585-3.609 0l-16.195 9.366c-1.073.585-2.829.585-3.902 0l-54.143-31.413c-.976-.585-2.634-.585-3.61 0z"/><path fill="#0E0E14" d="M301.348 280.771c0-.098 0-.293.097-.391l4.195-5.56.293-.293a2.2 2.2 0 0 1 1.756-.195l17.17 4.39c.585.195.975.488.975.878v2.049c0 .097 0 .292-.097.39l-4.195 5.561-.293.292a2.2 2.2 0 0 1-1.756.195l-17.17-4.39c-.585-.195-.975-.487-.975-.878z"/><path fill="#748597" d="M306.039 274.53c-.097.098-.293.195-.293.293l-4.194 5.561c-.391.487 0 .975.78 1.268l17.17 4.39c.585.195 1.366.097 1.756-.195.097-.098.292-.195.292-.293l4.195-5.561c.391-.487 0-.975-.78-1.268l-17.17-4.39a3.5 3.5 0 0 0-1.756.195"/><path fill="#333942" d="m290.504 241.648.097 28.877 47.412 12.097-.097-28.877zM337.926 253.737l.097 28.876.976-1.268-.098-28.876z"/><path fill="#748597" d="m291.479 240.371-.975 1.268 47.412 12.097.975-1.268z"/><path fill="#748597" d="m291.479 240.371-.975 1.268 47.412 12.097.975-1.268z"/><path fill="#4D5865" d="M301.344 253.168v16.097l26.34 6.633v-15.999z"/><path fill="#333942" d="M327.684 259.906v15.999l.487-.683v-15.999z"/><path fill="#748597" d="m301.832 252.488-.488.683 26.34 6.732.488-.683z"/><path fill="#748597" d="m301.832 252.488-.488.683 26.34 6.732.488-.683zM310.398 267.801v12.487l6.439 1.561-.097-12.39z"/><path fill="#4D5865" d="M310.398 267.801v12.487l6.439 1.561-.097-12.39z"/><path fill="#0E0E14" d="m316.746 269.46.098 12.389 1.268-1.658-.39-12z"/><path fill="#6F819A" d="m311.276 266.629-.878 1.171 6.342 1.658.975-1.268z"/><path fill="#AD3814" d="m264.463 251.405 1.951-1.951h1.464c2.829-.975 6.341-.975 9.17 0h1.463l1.951 1.951c1.951 2.049 1.464 4.586-1.463 6.342-3.61 2.048-9.365 2.048-12.877 0-3.122-1.756-3.61-4.293-1.659-6.342"/><path fill="#FF7847" d="M272.465 255.406c3.826 0 6.927-1.791 6.927-4s-3.101-4-6.927-4-6.926 1.791-6.926 4 3.101 4 6.926 4"/><path fill="#1A1A1A" d="M267.582 250.534c0 .683 1.463.683 1.561 0v-8.878c0-1.56.488-3.024 1.268-4.292l6.536-9.951-.975-.683-6.536 9.951a8.68 8.68 0 0 0-1.464 4.878z"/><path fill="#4D4D4D" d="m288.372 231.807-7.024-6.439c-.098-.097-.488-.097-.976.195-.097 0-.195.098-.195.098l-2.146-1.951c-.098-.098-.098-.098-.293 0-.39.097-.78.195-1.17.195-.098 0-.195.098-.293.098-.585.292-1.463 1.17-1.854 1.853-.195.293-.292.488-.292.683s0 .39-.098.585c0 .195 0 .391-.097.488v.098c0 .097 0 .195.097.292l2.146 2.049c-.292.585-.292.878-.097 1.073l7.024 6.439c.097.097.488.097.975-.195 1.171-.683 2.83-2.342 3.805-3.805.585-.976.683-1.561.488-1.756"/><path fill="#AD3814" d="M287.886 233.48c-.878 1.463-2.634 3.122-3.804 3.805-.488.292-.781.292-.976.195l-3.805-3.512-1.268-1.171-1.853-1.756c.097.098.487.098.878-.195.195-.098.292-.195.487-.293 1.074-.78 2.439-2.244 3.317-3.512.586-.878.683-1.463.488-1.658l.195.195 1.268 1.171 5.464 5.072c.292.196.195.781-.391 1.659"/><path fill="#F15A24" d="M280.468 225.575c1.171-.683 1.366 0 .391 1.463-.878 1.463-2.634 3.122-3.805 3.805s-1.366 0-.39-1.464c.878-1.463 2.634-3.219 3.804-3.804"/><path fill="#FF7847" d="M276.369 224c.585-.293.683 0 .195.683s-1.268 1.56-1.853 1.853c-.586.293-.683 0-.196-.78.488-.586 1.269-1.464 1.854-1.756"/><path fill="#AD3814" d="m278.027 223.707 2.439 2.244c.195.195 0 .585-.39 1.268-.683 1.073-1.951 2.341-2.829 2.829-.39.195-.586.195-.683.098l-2.439-2.244c.098.097.39.097.683-.098.878-.487 2.146-1.756 2.829-2.829.488-.683.585-1.17.39-1.268"/><path fill="#F15A24" d="M276.661 223.903c.391-.098.781-.195 1.171-.195.488-.098.488.39-.097 1.268-.683 1.073-1.952 2.341-2.83 2.829-.585.293-.78.195-.78-.098v-.097c0-.195 0-.39.098-.488 0-.195 0-.39.097-.585 0 .195.098.292.488.097.585-.292 1.463-1.17 1.853-1.853q.44-1.025 0-.878M278.031 230.339l6.536 6.243c.488-.292.781-.585 1.171-1.073l-6.536-6.146c-.39.391-.781.683-1.171.976"/><path fill="#C7B299" d="m364.667 282.143-15.609-9.17h-.097l15.706 9.072z"/><path fill="#AD3814" d="m364.855 281.651-15.707-9.072 12-6.927 15.706 9.073z"/><path fill="#FF7847" d="m364.753 278.628-15.706-9.17 12.097-6.927 15.706 9.073z"/><path fill="#FF7847" d="m364.66 278.623-15.609-9.17v.098a4.3 4.3 0 0 0-.585 1.561c-.098.78.097 1.463.585 1.853l15.707 9.073c-.391-.39-.683-1.073-.586-1.854 0-.585.195-1.073.488-1.561"/><path fill="#fff" d="M350.809 273.461c-.293-.292-.488-.78-.391-1.463 0-.39.195-.781.293-1.073l-1.561-.976c-.195.293-.293.683-.293 1.073-.097.586.098 1.171.391 1.464z"/><path fill="#AD3814" d="M364.368 280.101c-.097.39 0 .78.098 1.073.097.195.195.39.292.488l12-6.927v.39l-12.097 7.024h-.098c-.195-.195-.39-.39-.488-.683-.097-.292-.195-.78-.097-1.17 0-.098 0-.195.097-.293.098-.488.293-.878.586-1.268v-.098l.488-.292 10.536-6.146 1.073-.586v.39l-1.073.586-10.244 5.951-.683.39c-.097.293-.292.683-.39 1.171"/><path fill="#FBFFF2" d="m375.587 272.676-10.146 5.853v2.146l10.146-5.853z"/><path fill="#F2E8DF" d="M365.444 278.531v2.146l-1.073-.585c.098-.39.195-.78.39-1.171z"/><path fill="#fff" d="m365.637 267.408-7.415 4.195-3.999-2.342 7.316-4.195z"/><path fill="#C7B299" d="m363.96 278.139-15.609-9.17h-.097l15.706 9.072z"/><path fill="#34424B" d="m364.175 277.648-15.706-9.073 11.999-6.927 15.707 9.073z"/><path fill="#333" d="m364.07 274.632-15.707-9.17 12.097-6.927 15.707 9.073zM363.969 274.635l-15.609-9.17v.097a4.3 4.3 0 0 0-.586 1.561c-.097.781.098 1.464.586 1.854l15.706 9.073c-.39-.391-.683-1.074-.585-1.854 0-.488.195-1.073.488-1.561"/><path fill="#F2E8DF" d="M350.117 269.563c-.293-.293-.488-.781-.39-1.464 0-.39.195-.78.293-1.073l-1.561-.975c-.195.292-.293.683-.293 1.073-.098.585.098 1.171.39 1.463zM361.14 275.7a3.5 3.5 0 0 1-.195-1.073c0-.195.097-.39.097-.585l-8.194-4.78c-.098.195-.098.39-.098.585 0 .39 0 .781.195 1.073z"/><path fill="gray" d="M363.681 276.089c-.098.39 0 .78.097 1.073.098.195.195.39.293.488l11.999-6.927v.391l-12.097 7.024h-.097c-.195-.196-.39-.391-.488-.683s-.195-.781-.098-1.171c0-.098 0-.195.098-.293.098-.487.293-.878.585-1.268v-.097l.488-.293 10.536-6.146 1.073-.585v.39l-1.073.585-10.243 5.951-.683.39c-.098.293-.293.683-.39 1.171"/><path fill="#F2E8DF" d="m374.896 268.676-10.146 5.853v2.146l10.146-5.853z"/><path fill="#F2E8DF" d="M364.753 274.531v2.146l-1.073-.585c.097-.39.195-.78.39-1.171z"/><path fill="#97B9CF" d="m281.055 367.1-83.898-48.388c-1.073-.585-2.732-.585-3.805 0L159.5 338.516c-1.073.586-1.073 1.561 0 2.244l24.682 14.243c-6.927-1.171-14.731-.097-20.194 3.024-8 4.683-8 12.195 0 16.78 8 4.683 21.072 4.683 29.071 0 5.464-3.122 7.22-7.609 5.171-11.707l19.121 11.024c1.17.683 1.17 1.756 0 2.439l-23.121 13.463c-1.073.585-1.073 1.56 0 2.243l22.048 12.585c1.073.585 2.731.585 3.804 0l60.875-35.413c1.171-.683 1.171-1.756.098-2.341" opacity=".5"/><path fill="gray" d="m201.33 318.997 2.829 1.658c-.488-.293-1.171-.195-1.951.195l-2.829-1.658c.78-.488 1.463-.488 1.951-.195"/><path fill="gray" d="m188.645 328.771-2.926-1.658 13.658-7.902 2.926 1.658z"/><path fill="#333" d="m169.032 344.368-2.829-1.658-.098-1.269 2.927 1.659z"/><path fill="gray" d="m171.669 338.509-2.829-1.658 14.341-8.292 2.926 1.658z"/><path fill="gray" d="m169.04 343.107-2.829-1.659c0-1.658 1.171-3.804 2.634-4.682l2.829 1.658c-1.463.976-2.634 3.024-2.634 4.683"/><path fill="#666" d="m186.11 330.223-2.926-1.658v-24.487l2.829 1.659z"/><path fill="#333" d="m186.013 305.735-2.829-1.658 2.536-1.464 2.829 1.659z"/><path fill="#333" d="m188.55 304.27.098 24.486 13.658-7.902c1.463-.878 2.731-.195 2.731 1.561v1.268l-35.998 20.682v-1.268c0-1.659 1.171-3.805 2.634-4.683l14.341-8.292-.098-24.487z"/><path fill="#666" d="m186.516 320.175 1.658-.976 70.24 40.388-1.658.976z"/><path fill="#333" d="m186.516 321.842 70.24 40.388v-1.658l-70.24-40.388z"/><path fill="gray" d="m274.33 361.046 2.829 1.659c-.488-.293-1.171-.196-1.951.195l-2.829-1.659c.78-.39 1.463-.39 1.951-.195M261.548 370.803l-2.829-1.659 13.658-7.902 2.926 1.756z"/><path fill="#333" d="m225.165 396.263-2.829-1.757v-1.268l2.829 1.756z"/><path fill="gray" d="m227.899 390.312-2.926-1.659 31.217-18.048 2.83 1.659zM225.165 395.005l-2.829-1.658c0-1.659 1.171-3.805 2.634-4.683l2.829 1.659c-1.463.878-2.634 2.926-2.634 4.682"/><path fill="#666" d="m259.013 372.263-2.83-1.658-.097-38.242 2.927 1.659z"/><path fill="#333" d="m259.013 334.02-2.927-1.658 2.536-1.464 2.927 1.659z"/><path fill="#333" d="m261.545 332.555.097 38.339 13.658-7.902c1.463-.878 2.731-.195 2.731 1.561v1.268l-52.777 30.437v-1.268c0-1.658 1.171-3.804 2.634-4.682l31.218-18.048-.098-38.34z"/><path fill="#666" d="m238.513 384.162-2.927-1.659-.098-38.339 2.927 1.659z"/><path fill="#333" d="m238.415 345.821-2.927-1.658 2.537-1.464 2.926 1.659z"/><path fill="#333" d="m240.954 344.352.098 38.339-2.536 1.463-.098-38.339z"/><path fill="#D4BFA7" d="M281.822 326.122c.098-.488-.195-.976-.78-1.366l-83.898-48.387c-1.073-.586-2.732-.586-3.805 0l-33.852 19.803c-.487.293-.78.683-.78 1.074v2.829c0 .39.293.78.78 1.073l57.558 33.266-22.828 13.268c-.488.292-.78.683-.78 1.073v2.829c0 .39.292.78.78 1.073l22.048 12.585c1.073.585 2.731.585 3.804 0l60.875-35.413c.585-.293.781-.78.781-1.171v-2.829c.097.195.097.293.097.293"/><path fill="#F2E8DF" d="M281.043 324.756c1.17.683 1.17 1.659 0 2.341l-60.875 35.413c-1.073.585-2.732.585-3.805 0l-22.047-12.585c-1.073-.585-1.073-1.56 0-2.243l23.12-13.463c1.171-.683 1.171-1.756 0-2.439l-57.948-33.461c-1.073-.586-1.073-1.561 0-2.244l33.852-19.804c1.073-.585 2.732-.585 3.805 0z"/><path fill="#141C26" d="m185.844 300.181 27.608 15.999 17.462-10.146v-.975l-27.608-15.024-17.462 9.17z"/><path fill="#ADC1D9" d="m185.844 299.2 27.608 16 17.462-10.146-27.608-15.999z"/><path fill="#3B5E7D" d="m226.819 304.178-21.95-12.682-10.049 5.756 21.95 12.78z"/><path fill="#141C26" d="m226.333 304.175-1.659-.976-1.365.683 1.756 1.073zM224.376 303.007l-1.756-.976-1.268.781 1.756.975zM222.434 301.839l-1.756-.976-1.268.781 1.659.975zM220.38 300.761l-1.659-.976-1.268.683 1.659.976zM218.427 299.589l-1.659-.976-1.366.781 1.756.975zM216.481 298.425l-1.756-.976-1.268.781 1.658.975zM214.524 297.347l-1.756-.976-1.268.683 1.658.976zM212.481 296.179l-1.658-.976-1.268.781 1.658.975zM210.528 295.011l-1.658-.976-1.366.781 1.756.975zM208.575 293.936l-1.756-.975-1.268.683 1.658.975zM206.528 292.765l-1.658-.976-1.268.78 1.658.976zM223.993 305.542l-1.658-.976-1.269.683 1.659.976zM222.04 304.37l-1.659-.975-1.365.78 1.756.976zM220.091 303.202l-1.756-.975-1.269.78 1.659.976zM218.044 302.124l-1.659-1.073-1.268.78 1.659.976zM216.091 300.964l-1.659-.976-1.268.683 1.659 1.073zM214.13 299.792l-1.659-.976-1.366.781 1.756.975zM212.188 298.62l-1.756-.975-1.268.78 1.659.976zM210.134 297.55l-1.659-.976-1.268.683 1.658.976zM208.188 296.374l-1.658-.976-1.366.781 1.756.975zM206.239 295.202l-1.658-.975-1.366.78 1.756.976zM204.286 294.132l-1.756-.976-1.268.683 1.658.976zM222.528 306.319l-1.658-.975-1.366.78 1.756.976zM220.579 305.257l-1.756-.976-1.268.683 1.658.976zM218.528 304.085l-1.658-.976-1.268.781 1.658.975zM216.571 302.909l-1.658-.975-1.268.78 1.658.976zM214.622 301.839l-1.659-.976-1.365.683 1.756.976zM212.677 300.671l-1.756-.976-1.269.781 1.659.975zM210.622 299.491l-1.658-.975-1.269.78 1.659.976zM208.673 298.425l-1.659-1.073-1.268.78 1.659.976zM206.723 297.257l-1.658-.976-1.366.683 1.756 1.073zM204.77 296.077l-1.756-.975-1.268.78 1.659.976zM221.063 307.202l-1.756-.975-1.268.78 1.659.976zM219.114 306.132l-1.756-1.073-1.268.78 1.658.976zM217.063 304.96l-1.658-.976-1.268.683 1.658.976zM215.118 303.788l-1.658-.976-1.366.781 1.756.976zM213.157 302.62l-1.756-.975-1.268.78 1.658.976zM211.114 301.55l-1.658-.976-1.268.683 1.658.976zM209.161 300.374l-1.658-.976-1.269.781 1.659.975zM207.212 299.202l-1.659-.975-1.365.78 1.756.976zM205.262 298.128l-1.755-.976-1.269.683 1.659.976z"/><path fill="#141C26" d="m202.722 294.909-1.463.878 1.951 1.171-1.268.78-1.952-1.17-.487-.293-1.171-.683 1.073-.683.195-.097 1.464-.878zM217.064 306.62l.488.293 2.048 1.171-1.365.78-1.952-1.171-.487-.292-1.171-.683 1.268-.78zM215.602 305.839l-1.658-.976-1.366.683 1.756.976zM213.645 304.663l-1.756-.975-1.268.78 1.659.976zM211.7 303.495l-1.756-.975-1.268.78 1.658.976zM209.645 302.425l-1.658-1.073-1.268.78 1.658.976zM207.7 301.245l-1.658-.975-1.366.682 1.756.976zM205.751 300.081l-1.756-.976-1.268.781 1.658.975zM203.7 298.909l-1.658-.975-1.269.78 1.659.976zM200.09 296.862l.293.098 1.366.878-1.268.683-1.366-.781-.293-.195-2.049-1.073 1.366-.781zM218.044 308.956l-1.659-.976-1.268.683 1.659.976zM216.091 307.784l-1.659-.975-1.366.78 1.756.976zM214.13 306.62l-1.756-.975-1.269.78 1.756.976zM203.408 300.476l.878.488.195.195 1.756.976.293.097 1.658.976.293.195 1.658.975 2.049 1.171-1.366.683-1.951-1.073-1.658-.976-.293-.195-1.756-.975-.293-.196-1.658-.975-.293-.098-.78-.488-.878-.487 1.268-.781zM202.239 299.792l-1.658-.976-1.269.781 1.659.975zM200.282 298.718l-1.658-1.073-1.366.78 1.756.976zM198.333 297.55l-1.756-.976-1.268.683 1.658 1.073z"/><path fill="#fff" d="m226.333 303.979-1.659-.975-1.365.78 1.756.976z"/><path fill="#96AAC3" d="m224.376 302.811-1.756-.975-1.268.78 1.756.976zM222.434 301.644l-1.756-.976-1.268.78 1.659.976zM220.38 300.565l-1.659-.975-1.268.683 1.659.975zM218.427 299.394l-1.659-.976-1.366.78 1.756.976zM216.481 298.229l-1.756-.975-1.268.78 1.658.976zM214.524 297.151l-1.756-.975-1.268.683 1.658.975zM212.481 295.983l-1.658-.975-1.268.78 1.658.976zM210.528 294.815l-1.658-.975-1.366.78 1.756.976zM208.575 293.741l-1.756-.975-1.268.682 1.658.976zM206.528 292.569l-1.658-.975-1.268.78 1.658.976zM223.993 305.347l-1.658-.976-1.269.683 1.659.976zM222.04 304.175l-1.659-.976-1.365.781 1.756.975zM220.091 303.007l-1.756-.976-1.269.781 1.659.975zM218.044 301.936l-1.659-.975-1.268.683 1.659.975zM216.091 300.769l-1.659-.976-1.268.683 1.659 1.073zM214.13 299.597l-1.659-.976-1.366.781 1.756.975zM212.188 298.425l-1.756-.976-1.268.781 1.659.975zM210.134 297.354l-1.659-.975-1.268.683 1.658.975zM208.188 296.179l-1.658-.976-1.366.781 1.756.975zM206.239 295.007l-1.658-.976-1.366.781 1.756.975zM204.286 293.936l-1.756-.975-1.268.683 1.658.975zM222.528 306.124l-1.658-.976-1.366.781 1.756.975zM220.579 305.061l-1.756-.975-1.268.683 1.658.975zM218.528 303.89l-1.658-.976-1.268.78 1.658.976zM216.571 302.714l-1.658-.976-1.268.781 1.658.975zM214.622 301.644l-1.659-.976-1.365.683 1.756.975zM212.677 300.476l-1.756-.976-1.269.78 1.659.976zM210.622 299.296l-1.658-.976-1.269.781 1.659.975zM208.673 298.229l-1.659-.975-1.268.683 1.659.975zM206.723 297.061l-1.658-.975-1.366.683 1.756 1.073zM204.77 295.882l-1.756-.976-1.268.781 1.659.975zM221.063 307.007l-1.756-.976-1.268.781 1.659.975zM219.114 305.936l-1.756-1.073-1.268.781 1.658.975zM217.063 304.765l-1.658-.976-1.268.683 1.658 1.073zM215.118 303.593l-1.658-.976-1.366.781 1.756.975zM213.157 302.425l-1.756-.976-1.268.781 1.658.975zM211.114 301.354l-1.658-.975-1.268.683 1.658.975zM209.161 300.179l-1.658-.976-1.269.781 1.659.975zM207.212 299.007l-1.659-.976-1.365.781 1.756.975zM205.262 297.933l-1.755-.976-1.269.683 1.659.975z"/><path fill="#fff" d="m202.722 294.714-1.463.878 1.951 1.171-1.268.78-1.952-1.171-.487-.292-1.171-.683 1.073-.683.195-.098 1.464-.878zM217.064 306.425l.488.293 2.048 1.17-1.365.781-1.952-1.171-.487-.292-1.171-.683 1.268-.781z"/><path fill="#96AAC3" d="m215.602 305.644-1.658-.976-1.366.683 1.756.975zM213.645 304.468l-1.756-.976-1.268.781 1.659.975zM211.7 303.3l-1.756-.976-1.268.781 1.658.975zM209.645 302.229l-1.658-1.073-1.268.781 1.658.975zM207.7 301.05l-1.658-.976-1.366.683 1.756 1.073zM205.751 299.886l-1.756-.976-1.268.781 1.658.975zM203.7 298.714l-1.658-.976-1.269.781 1.659.975z"/><path fill="#fff" d="m200.09 296.667.293.097 1.366.878-1.268.683-1.366-.78-.293-.195-2.049-1.073 1.366-.781zM218.044 308.761l-1.659-.976-1.268.683 1.659.976z"/><path fill="#96AAC3" d="m216.091 307.589-1.659-.976-1.366.781 1.756.975zM214.13 306.425l-1.756-.976-1.269.781 1.756.975z"/><path fill="#fff" d="m203.408 300.281.878.488.195.195 1.756.975.293.098 1.658.975.293.195 1.658.976 2.049 1.171-1.366.683-1.951-1.074-1.658-.975-.293-.195-1.756-.976-.293-.195-1.658-.975-.293-.098-.78-.488-.878-.488 1.268-.78z"/><path fill="#96AAC3" d="m202.239 299.597-1.658-.976-1.269.781 1.659.975zM200.282 298.522l-1.658-.975-1.366.683 1.756.975z"/><path fill="#fff" d="m198.333 297.354-1.756-.975-1.268.683 1.658 1.073z"/><path fill="#141C26" d="m204.082 288.862 26.828 16.195.78-.196 5.366-19.803-27.706-15.999-.78.292z"/><path fill="#96AAC3" d="m203.305 289.062 27.608 15.999 5.365-19.804-27.705-15.902z"/><path fill="#fff" d="m204.277 288.669 26.145 15.121.098-.293 4.78-17.852-25.852-14.926-.39-.098z"/><path fill="#3B5E7D" d="m204.672 288.571 25.852 14.926 4.78-17.852-12.877-7.317-12.975-7.609zM197.449 304.181l6.536 3.805 4.098-2.341-6.536-3.805z"/><path fill="#fff" d="m235.008 285.834-1.561 5.756-2.049-7.902zM227.689 281.546l4.39 15.413-.878 3.025-5.463-19.609zM208.767 273.93l6.146 20.291-5.365-3.024-2.829-9.56zM213.737 273.546l7.024 24.096-1.756-.975-6.927-24.097zM224.669 279.785l6.146 21.95-.488 1.463-5.463-3.219-6.926-23.999z" opacity=".3"/><path fill="#C7B299" d="m253.539 337.244 16.389-9.56-16.389 9.462z"/><path fill="#AD3814" d="m253.347 336.752 16.389-9.56-12.487-7.219-16.39 9.56z"/><path fill="#FF7847" d="m253.542 333.541 16.389-9.463-12.682-7.316-16.39 9.463z"/><path fill="#FF7847" d="m253.531 333.639 16.292-9.561v.098c.293.487.585 1.073.585 1.658.098.781-.097 1.561-.585 1.951l-16.389 9.463c.487-.39.682-1.073.585-1.951.097-.683-.098-1.171-.488-1.658"/><path fill="#fff" d="M267.984 328.262c.293-.293.488-.878.391-1.463 0-.391-.196-.781-.391-1.073l1.659-.976c.195.293.292.683.39 1.073.098.683-.098 1.171-.39 1.463z"/><path fill="#AD3814" d="M253.827 335.096c.097.391 0 .781-.098 1.171-.098.195-.195.39-.293.488l-12.487-7.219v.39l12.682 7.317h.098c.195-.195.39-.391.488-.683.097-.39.195-.781.097-1.171 0-.097 0-.195-.097-.39a3 3 0 0 0-.586-1.268v-.098l-.487-.293-11.024-6.341-1.171-.683v.391l1.171.683 10.731 6.146.683.39c.097.292.293.683.293 1.17"/><path fill="#FBFFF2" d="m242.223 327.383 10.536 6.048v2.244l-10.536-6.048z"/><path fill="#F2E8DF" d="M252.754 333.445v2.244l1.073-.683c-.098-.39-.195-.878-.39-1.17z"/><path fill="#fff" d="m252.562 321.83 7.707 4.39 4.195-2.439-7.609-4.39z"/><path fill="#FBFFF2" d="m242.219 327.003 11.024 6.341 13.95-8.097-11.024-6.341z"/><path fill="#F2E8DF" d="m242.219 326.613 11.024 6.341 13.95-8.097-11.024-6.341z"/><path fill="#FBFFF2" d="m242.219 326.226 11.024 6.341 13.95-8.097-11.024-6.341z"/><path fill="#F2E8DF" d="m242.219 325.835 11.024 6.341 13.95-8.097-11.024-6.341z"/><path fill="#FBFFF2" d="m242.219 325.445 11.024 6.341 13.95-8.097-11.024-6.341z"/><path fill="#F2E8DF" d="m242.219 325.054 11.024 6.341 13.95-8.097-11.024-6.341z"/><path fill="#FBFFF2" d="m242.219 324.66 11.024 6.341 13.95-8.097-11.024-6.342z"/><path fill="#F2E8DF" d="m242.219 324.277 11.024 6.341 13.95-8.097-11.024-6.341z"/><path fill="#FBFFF2" d="m242.219 323.882 11.024 6.341 13.95-7.999-11.024-6.341z"/><path fill="#FBFFF2" d="m271.093 319.974-8.487 6.049-14.926-5.951 8.389-6.049z"/><path fill="#F2E8DF" d="m266.412 323.595-9.951 7.902-15.023-6.048 10.048-7.804z"/><path fill="#F2E8DF" d="M269.724 324.179 258.7 330.52l-13.95-8.097 11.024-6.341z"/><path fill="#FBFFF2" d="m269.724 321.842-9.853 7.999-15.121-5.853 9.853-8z"/><path fill="#F2E8DF" d="m269.724 323.394-11.024 6.341-13.95-8.097 11.024-6.341z"/><path fill="#FBFFF2" d="m269.724 323.007-11.024 6.341-13.95-8.097 11.024-6.341z"/><path fill="#F2E8DF" d="m269.724 322.617-11.024 6.341-13.95-8.097 11.024-6.341z"/><path fill="#FBFFF2" d="m269.724 322.226-11.024 6.341-13.95-8.097 11.024-6.341z"/><path fill="#F2E8DF" d="m269.631 322.616-11.317 5.658-13.462-8.878 11.316-5.755z"/><path fill="#FBFFF2" d="m269.724 321.445-11.024 6.341-13.95-8.097 11.024-6.341z"/><path fill="#F2E8DF" d="m269.724 321.062-11.024 6.341-13.95-8.097 11.024-6.341z"/><path fill="#FBFFF2" d="m269.724 320.667-11.024 6.342-13.95-8.098 11.024-6.341z"/><path fill="#F2E8DF" d="m269.724 320.273-11.024 6.341-13.95-8.097 11.024-6.341z"/><path fill="#FBFFF2" d="m269.724 319.886-11.024 6.341-13.95-8.097 11.024-6.341z"/><path fill="#F2E8DF" d="m269.724 319.496-11.024 6.341-13.95-8.097 11.024-6.342z"/><path fill="#FBFFF2" d="m269.724 317.349-10.048 7.805-14.926-6.049 10.048-7.804z"/><path fill="#F2E8DF" d="m269.724 318.714-11.024 6.341-13.95-8.097 11.024-6.341z"/><path fill="#FBFFF2" d="m269.724 318.324-11.024 6.341-13.95-8.097 11.024-6.341z"/><path fill="#C7B299" d="m256.753 325.928-16.39-9.463v-.098l16.292 9.561z"/><path fill="#34424B" d="m256.85 325.432-16.291-9.463 12.487-7.219 16.389 9.463z"/><path fill="#333" d="m256.753 322.311-16.39-9.561 12.683-7.219 16.291 9.463z"/><path fill="#333" d="m256.753 322.31-16.292-9.56v.098c-.292.487-.585 1.073-.585 1.658-.098.78.098 1.561.585 1.951l16.39 9.463c-.488-.39-.683-1.073-.586-1.951-.097-.585.098-1.171.488-1.659"/><path fill="#F2E8DF" d="M242.222 316.95c-.292-.293-.487-.878-.39-1.464 0-.39.195-.78.39-1.073l-1.658-.975c-.195.292-.293.682-.39 1.073-.098.683.097 1.17.39 1.463zM253.729 323.388c-.195-.293-.195-.683-.195-1.171 0-.195.098-.39.098-.585l-8.585-4.976c-.098.195-.098.39-.098.586 0 .487 0 .878.195 1.17z"/><path fill="gray" d="M256.462 323.878c-.098.39 0 .78.097 1.17.098.195.195.391.293.488l12.487-7.219v.39l-12.682 7.317h-.098c-.195-.195-.39-.39-.487-.683-.098-.39-.196-.78-.098-1.171 0-.097 0-.195.098-.39.097-.488.292-.878.585-1.268v-.098l.488-.292 11.023-6.341 1.171-.683v.39l-1.073.585-10.731 6.146-.683.39c-.195.293-.39.781-.39 1.269"/><path fill="#F2E8DF" d="m268.071 316.164-10.536 6.048v2.244l10.536-6.146zM257.534 322.219v2.244l-1.073-.683c.097-.391.195-.878.39-1.171z"/><path fill="#fff" d="m257.625 310.607-7.61 4.39-4.195-2.439 7.61-4.39zM249.148 346.515l-10.634 2.731-8.78-8.487 10.634-2.732z"/><path fill="#C7B299" d="m229.934 347.978 16.389-9.56-16.292 9.56z"/><path fill="gray" d="m229.831 347.502 16.292-9.463-12.488-7.219-16.389 9.463z"/><path fill="#333" d="m229.932 344.276 16.39-9.463-12.683-7.317-16.291 9.561z"/><path fill="#333" d="m229.926 344.373 16.291-9.561v.098c.293.488.586 1.073.586 1.658.097.781-.098 1.561-.586 1.952l-16.389 9.463c.488-.391.683-1.074.585-1.952.098-.585-.097-1.17-.487-1.658"/><path fill="#fff" d="M244.465 339.004c.293-.292.488-.878.39-1.463 0-.39-.195-.781-.39-1.073l1.658-.976c.195.293.293.683.391 1.073.097.683-.098 1.171-.391 1.464zM232.957 345.446c.195-.292.195-.683.195-1.171 0-.195-.097-.39-.097-.585l8.584-4.975c.098.195.098.39.098.585 0 .488 0 .878-.195 1.171z"/><path fill="#34424B" d="M230.225 345.831c.098.39 0 .78-.098 1.17-.097.196-.195.391-.292.488l-12.487-7.219v.39l12.682 7.317h.097c.196-.195.391-.39.488-.683.098-.39.195-.78.098-1.171 0-.097 0-.195-.098-.39a3 3 0 0 0-.585-1.268v-.098l-.488-.292-11.024-6.341-1.17-.683v.39l1.17.683 10.731 6.146.683.39c.098.293.293.683.293 1.171"/><path fill="#F2E8DF" d="m218.613 338.129 10.536 6.146v2.146l-10.536-6.048z"/><path fill="#F2E8DF" d="M229.148 344.277v2.244l1.074-.683c-.098-.39-.196-.878-.391-1.17z"/><path fill="#fff" d="m229.051 332.572 7.609 4.487 4.195-2.439-7.609-4.487z"/><path fill="#AD3814" d="m218.641 333.813 15.121-8.78c.195-.098.39-.098.585.097l-15.121 8.78c-.195-.097-.39-.195-.585-.097M234.347 328.251c-.293-.195-.488-.488-.488-.78v-1.561c0-.195.098-.293.098-.293l-15.121 8.683c-.098.097-.195.195-.195.292v1.659c0 .292.292.78.585.975l11.219 6.439 15.121-8.78z"/><path fill="#AD3814" d="m230.543 343.479 15.121-8.78v.488l-15.121 8.78z"/><path fill="#AD3814" d="M218.843 335.867v.292c0 .293.195.683.488.781l11.219 6.536v.39l-11.219-6.536c-.488-.293-.878-.976-.878-1.463v-1.561c0-.586.39-.781.878-.488l11.219 6.536v.39l-11.219-6.536c-.293-.195-.488 0-.488.293z"/><path fill="#AD3814" d="m230.543 340.448 15.121-8.878v.488l-15.121 8.78z"/><path fill="#FF7847" d="m219.324 333.909 15.024-8.78 11.316 6.439-15.121 8.877z"/><path fill="#F2E8DF" d="m230.529 340.857-10.049-5.755v1.756l10.049 5.853v-2.244z"/><path fill="#FBFFF2" d="m230.529 340.857-10.049-5.755v1.756l10.049 5.853v-2.244z"/><path fill="#FBFFF2" d="m244.376 334.709-13.853 8v-1.854l13.853-8z"/><path fill="#F2E8DF" d="m221.344 332.078 11.024 6.341 13.95-8.097-10.926-6.342z"/><path fill="#FBFFF2" d="m221.449 329.74 10.926 8.195 13.853-7.902-9.755-6.146z"/><path fill="#F2E8DF" d="m221.344 331.292 11.024 6.342 13.95-8.098-10.926-6.341z"/><path fill="#FBFFF2" d="m221.344 330.906 11.024 6.341 13.95-8.097-10.926-6.341z"/><path fill="#F2E8DF" d="m221.344 330.515 11.024 6.341 13.95-8.097-10.926-6.341z"/><path fill="#FBFFF2" d="m221.344 330.124 11.024 6.342 13.95-8.098-10.926-6.341z"/><path fill="#F2E8DF" d="m221.449 330.417 10.926 5.755 13.853-8.097-11.316-6.536z"/><path fill="#FBFFF2" d="m222.613 331.197 12.097 5.365 11.609-8.975-10.926-6.341z"/><path fill="#F2E8DF" d="m221.344 328.96 11.024 6.342 13.95-8.098-10.926-6.341z"/><path fill="#FBFFF2" d="m221.344 328.566 11.024 6.341 13.95-8.097-10.926-6.341z"/><path fill="#F2E8DF" d="m221.344 328.171 11.024 6.341 13.95-8.097-10.926-6.341z"/><path fill="#FBFFF2" d="m221.344 327.687 11.024 6.439 13.95-8.097-10.926-6.341z"/><path fill="#F2E8DF" d="m221.344 327.394 11.024 6.341 13.95-8.097-10.926-6.341z"/><path fill="#FBFFF2" d="m222.516 326.126 8.877 6.926 14.926-7.707-9.95-6.146z"/><path fill="#F2E8DF" d="m221.344 326.613 11.024 6.341 13.95-8.097-10.926-6.341z"/><path fill="#FBFFF2" d="m221.344 326.125 11.024 6.438 13.95-8.097-10.926-6.341z"/><path fill="#fff" d="m210.617 332.858 7.902 6.244 11.804-4.78-7.902-6.244z"/><path fill="#333" d="m169.155 353.33 1.463.878c-.292-.195-.682-.098-1.073.097l-1.463-.878a1.4 1.4 0 0 1 1.073-.097"/><path fill="#333" d="m168.475 357.913-1.464-.878c-.292-.195-.488-.487-.488-.975 0-.976.683-2.146 1.561-2.634l1.464.878c-.878.488-1.561 1.658-1.561 2.634 0 .488.195.878.488.975"/><path fill="#000" d="M169.545 354.315c.878-.487 1.561-.097 1.561.878 0 .976-.683 2.147-1.561 2.634s-1.561.098-1.561-.878c0-.975.683-2.146 1.561-2.634"/><path fill="#333" d="m197.073 368.564 1.463.878c-.292-.195-.682-.097-1.073.098l-1.463-.878c.39-.195.78-.195 1.073-.098"/><path fill="#333" d="m196.396 373.148-1.463-.878c-.293-.195-.488-.488-.488-.976 0-.975.683-2.146 1.561-2.634l1.464.878c-.878.488-1.561 1.659-1.561 2.634 0 .488.195.878.487.976"/><path fill="#000" d="M197.459 369.55c.878-.488 1.561-.098 1.561.878 0 .975-.683 2.146-1.561 2.634s-1.561.097-1.561-.878c0-.976.683-2.146 1.561-2.634"/><path fill="#333" d="m175.995 374.72 1.463.878c-.292-.195-.683-.098-1.073.097l-1.463-.878c.39-.195.78-.292 1.073-.097"/><path fill="#333" d="m175.314 379.304-1.463-.878c-.293-.195-.488-.488-.488-.976 0-.975.683-2.146 1.561-2.634l1.464.878c-.878.488-1.561 1.659-1.561 2.634 0 .488.195.781.487.976"/><path fill="#000" d="M176.389 375.694c.878-.487 1.561-.097 1.561.878 0 .976-.683 2.147-1.561 2.634s-1.561.098-1.561-.878c0-.975.683-2.146 1.561-2.634"/><path fill="#333" d="m158.511 365.921 1.463.878c-.293-.195-.683-.097-1.073.098l-1.463-.878c.39-.293.78-.293 1.073-.098M157.736 370.511l-1.463-.878c-.293-.195-.488-.488-.488-.976 0-.975.683-2.146 1.561-2.634l1.463.878c-.878.488-1.561 1.659-1.561 2.634.098.391.196.781.488.976"/><path fill="#000" d="M158.811 366.796c.878-.488 1.561-.098 1.561.878 0 .975-.683 2.146-1.561 2.634s-1.561.098-1.561-.878c.098-.976.78-2.146 1.561-2.634"/><path fill="#333" d="m192.581 355.298 1.463.878c-.292-.195-.683-.097-1.073.098l-1.463-.878c.488-.195.878-.195 1.073-.098"/><path fill="#333" d="m191.9 359.878-1.463-.878c-.293-.195-.488-.488-.488-.975 0-.976.683-2.147 1.561-2.634l1.463.878c-.878.487-1.56 1.658-1.56 2.634.097.487.195.78.487.975"/><path fill="#000" d="M192.967 356.28c.878-.487 1.561-.097 1.561.878 0 .976-.683 2.147-1.561 2.634s-1.561.098-1.561-.878c.098-.975.781-2.146 1.561-2.634"/><path fill="#B3B3B3" d="m177.747 359.194-1.951 1.756-1.463 1.366-7.024-8.293c0-.39 0-.683.292-.78.098-.098.195-.098.293-.195l1.073-.39c.195-.098.39 0 .585.097z"/><path fill="#666" d="m176.089 361.149-1.659 1.073-7.024-8.292c0-.39 0-.683.293-.78.097-.098.293 0 .488.097l7.707 7.61z"/><path fill="#B3B3B3" d="m193.548 355.978-12.389 8.292-.391.195-.292-1.561-.293-1.365-.488-2.049 11.609-4.975q.44-.147.878 0l.878.487c.098 0 .098.098.196.098q.292.146.292.878"/><path fill="#666" d="m193.548 355.972-12.389 8.292-.683-1.366-.683-1.17.293-.196 12.389-6.341c.195-.097.488-.097.586-.097.39.097.487.39.487.878"/><path fill="#666" d="M181.946 364.656v-3.902h-7.219v3.902c0 .488.39 1.073 1.073 1.463 1.365.781 3.707.781 5.073 0 .682-.487 1.073-.975 1.073-1.463"/><path fill="#B3B3B3" d="M178.336 362.703c1.994 0 3.61-.917 3.61-2.049s-1.616-2.049-3.61-2.049-3.609.918-3.609 2.049c0 1.132 1.616 2.049 3.609 2.049M176.288 363.289l-1.366 11.024c-.098.78-.098 1.658-.098 2.536l1.561.098 3.219-10.634v-2.829c-1.17.293-2.243.293-3.316-.195"/><path fill="#666" d="M176.379 376.947c0-.975.097-1.853.293-2.536l2.926-10.829v2.829z"/><path fill="#B3B3B3" d="M180.574 363.291v2.927l16.682 4.097.683-.78c.098-.976-.488-1.561-1.366-1.951l-14.731-5.951c.098.683-.39 1.268-1.268 1.658"/><path fill="#666" d="M197.264 370.313c0-.878-.488-1.561-1.366-1.951l-15.414-5.171v2.927z"/><path fill="#B3B3B3" d="m157.457 367.396 17.95-1.561v-2.927c-.683-.488-.78-1.171-.683-1.951l-16.097 3.707c-.878.195-1.463.683-1.463 1.659z"/><path fill="#666" d="m175.411 365.829-17.95 1.561c0-.976.585-1.561 1.561-1.659l16.389-2.829z"/><path fill="#333" d="M167.311 351.094c-.292 0-.682 0-.975-.098l.39-2.439c1.073.195 2.439-.195 3.902-.975l13.756-7.902 1.17 2.146-13.755 7.902c-1.561.878-3.122 1.366-4.488 1.366"/><path fill="#E6E6E6" d="m176.769 351.198.293-.293c.78-.488 2.049-.488 2.829 0l.293.293h.292v9.365c0 .293-.195.585-.585.78-.78.488-2.049.488-2.829 0-.39-.195-.585-.487-.585-.78v-9.365z"/><path fill="#4D4D4D" d="M178.431 350.711c1.562 0 2.829-.742 2.829-1.658s-1.267-1.658-2.829-1.658-2.829.742-2.829 1.658 1.266 1.658 2.829 1.658"/><path fill="#333" d="M174.82 339.785c.39-.39 1.073-.781 1.951-.976 1.073-.292 2.244-.292 3.414 0 .878.195 1.464.586 1.951.976h.488v10.048c0 .878-.78 1.659-2.341 2.146a5.7 5.7 0 0 1-3.61 0c-1.561-.487-2.341-1.268-2.341-2.146v-10.048z"/><path fill="#4D4D4D" d="M176.673 337.54c-3.121.878-3.121 3.414 0 4.292 1.171.39 2.439.39 3.61 0 3.122-.878 3.122-3.414 0-4.292a7.5 7.5 0 0 0-3.61 0"/><path fill="#34424B" d="M193.644 340.656v-4.292h-1.951c-.683-.683-1.463-1.269-2.536-1.854-5.951-3.414-15.609-3.414-21.56 0-.976.585-1.854 1.171-2.537 1.854h-1.951v4.292c0 2.244 1.464 4.488 4.488 6.244 5.951 3.414 15.609 3.414 21.56 0 3.024-1.756 4.487-4 4.487-6.244"/><path fill="#34424B" d="M178.434 345.138c8.405 0 15.218-3.931 15.218-8.78s-6.813-8.78-15.218-8.78-15.219 3.931-15.219 8.78 6.813 8.78 15.219 8.78"/><path fill="#B3B3B3" d="M189.165 344.947c-5.951 3.414-15.609 3.414-21.56 0-2.927-1.756-4.488-4-4.488-6.244v1.854c0 2.243 1.464 4.487 4.488 6.243 5.951 3.415 15.609 3.415 21.56 0 2.926-1.756 4.487-4 4.487-6.243v-1.854c0 2.341-1.463 4.585-4.487 6.244M171.506 327.19l-6.828-5.365-7.415-3.415-1.073.683c-.683.39-1.17 1.268-1.17 2.537v1.951c0 2.536 1.756 5.658 3.999 6.926l9.366 5.463c1.073.683 2.146.683 2.829.293l.878-.488.78-3.024z"/><path fill="#34424B" d="m164.68 321.825 6.829 5.366 1.366 5.365-.781 3.025 2.244-1.269c.683-.39 1.171-1.268 1.171-2.536v-1.951c0-2.537-1.756-5.658-4-6.927l-9.366-5.463c-1.073-.683-2.146-.683-2.829-.292l-1.951 1.17z"/><path fill="#34424B" d="M169.459 324.064c2.244 1.268 4 4.39 4 6.927v1.951c0 2.536-1.854 3.609-4 2.341l-9.365-5.463c-2.244-1.268-4-4.39-4-6.926v-1.952c0-2.536 1.853-3.609 4-2.243z"/><path fill="#B3B3B3" d="M169.459 324.064c2.244 1.268 4 4.39 4 6.927v1.951c0 2.536-1.854 3.609-4 2.341l-9.365-5.463c-2.244-1.268-4-4.39-4-6.926v-1.952c0-2.536 1.853-3.609 4-2.243z"/><path fill="gray" d="M168.385 324.662c2.243 1.268 3.999 4.39 3.999 6.926v1.951c0 2.537-1.853 3.61-3.999 2.342l-9.366-5.463c-2.243-1.269-3.999-4.39-3.999-6.927v-1.951c0-2.536 1.853-3.609 3.999-2.244z"/><path fill="#333" d="M166.332 350.995c-2.537-.39-4.195-2.634-4.195-5.658v-18.828c0-.585.683-.976 1.17-.683l.391.293c.487.292.878.878.878 1.463v17.755c0 1.073.292 2.927 2.146 3.317z"/><path fill="#97B9CF" d="m174.523 266.714-17.56 10.341c-1.268.781-3.317.781-4.585 0l-21.657-12.389c-1.269-.781-1.269-1.951 0-2.634l17.56-10.341c1.268-.781 3.317-.781 4.585 0l21.56 12.487c1.365.683 1.365 1.853.097 2.536M207.207 248.48l-17.56 10.341c-1.268.78-3.317.78-4.585 0l-21.56-12.487c-1.268-.781-1.268-1.951 0-2.634l17.56-10.341c1.268-.781 3.317-.781 4.585 0l21.56 12.487c1.268.78 1.268 1.951 0 2.634" opacity=".5"/><path fill="#B3B3B3" d="M166.039 244.667c3.512-15.706 3.512-15.804 3.512-15.901h-1.659.878l-.878-.098c-.097.488-2.146 9.658-3.512 15.706-.292.683 1.464 1.074 1.659.293M186.818 257.542c.098.683 1.659.683 1.659-.195l-1.854-19.316-1.658.195zM205.158 246.913c.098.878 1.854.781 1.659-.195l-1.854-19.316-1.658.195z"/><path fill="#34424B" d="M163.501 204.278v.098c.098 1.756 1.561 20.877 1.659 22.925.097 2.049 1.561 2.732 1.561 2.732s17.95 10.341 19.12 11.024 1.756.292 1.756.292l18.438-10.438c2.147-1.268 2.049-3.414 2.049-3.414v-1.561c0-3.903-3.512-6.049-3.512-6.049s-11.316-7.316-12.682-8.194c-.39-.293-.683-.586-.976-.878-.487-.586-.585-1.074-.585-1.074-.195-.975-3.219-15.608-3.414-16.584a4 4 0 0 0-.391-1.171l-.097-.195c-1.171-1.073-3.512-.195-3.512-.195s-17.463 10.048-18.536 10.731c-1.17.683-.878 1.951-.878 1.951"/><path fill="#889099" d="m206.331 227.789-18.438 10.634s.487-4-2.83-6.244c-3.316-2.243-10.438-6.829-10.438-6.829l15.511-8.682z"/><path fill="#6D7983" d="m165.354 205.936 3.61 17.463 1.561-.976 4.097 2.927 15.511-8.683-1.073-4.877 1.854-.976c-.488-.585-.586-1.073-.586-1.073-.195-.976-3.219-15.609-3.414-16.585-.098-.585-.78-.975-1.366-.585l-19.316 11.219c-.683.39-.975 1.268-.878 2.146"/><path fill="#B3B3B3" d="M132.769 263.308c3.512-15.707 3.512-15.804 3.512-15.902h-1.658.878l-.878-.097c-.098.487-2.146 9.658-3.512 15.706-.293.683 1.463 1.073 1.658.293M153.549 276.183c.097.683 1.658.683 1.658-.195l-1.853-19.316-1.659.195zM171.889 265.554c.097.878 1.853.781 1.658-.195l-1.853-19.316-1.659.195z"/><path fill="#34424B" d="M130.232 222.919v.097c.097 1.756 1.561 20.877 1.658 22.926.098 2.049 1.561 2.732 1.561 2.732s17.95 10.34 19.121 11.023 1.756.293 1.756.293l18.438-10.438c2.146-1.269 2.049-3.415 2.049-3.415v-1.561c0-3.902-3.512-6.048-3.512-6.048s-11.317-7.317-12.683-8.195c-.39-.293-.682-.585-.975-.878-.488-.585-.585-1.073-.585-1.073-.196-.976-3.22-15.609-3.415-16.584-.097-.586-.293-.976-.39-1.171l-.098-.195c-1.17-1.073-3.512-.195-3.512-.195s-17.462 10.048-18.535 10.731c-1.171.683-.878 1.951-.878 1.951"/><path fill="#889099" d="m173.061 246.43-18.438 10.633s.488-3.999-2.829-6.243-10.439-6.829-10.439-6.829l15.512-8.682z"/><path fill="#6D7983" d="m132.085 224.577 3.61 17.462 1.561-.975 4.097 2.926 15.511-8.682-1.073-4.878 1.854-.975c-.488-.586-.586-1.073-.586-1.073-.195-.976-3.219-15.609-3.414-16.585-.098-.585-.781-.975-1.366-.585l-19.218 11.219c-.683.487-1.073 1.268-.976 2.146"/><path fill="#97B9CF" d="m95.303 290.621-27.9 15.999 32.193 18.633 27.51-16.291z" opacity=".5"/></svg>