<svg xmlns="http://www.w3.org/2000/svg" width="180" height="180" fill="none"><path fill="url(#a)" d="m149.539 127.294-60.408-35.36a1.6 1.6 0 0 0-1.613-.01L.803 141.815c-1.064.615-1.072 2.149-.017 2.772l59.91 35.192a1.6 1.6 0 0 0 1.612.009l87.205-49.721c1.081-.606 1.089-2.149.026-2.772"/><path fill="#313247" d="m50.008 1.98 4.373 97.301 121.077 74.749 4.542-2.873v-96.66L54.381 0z"/><path fill="#5B5C71" d="m50.008 102.142 125.619 71.885V76.482L50.007 1.977z"/><path fill="#13121A" d="M150.418 69.07c-13.947-7.752-28.165.557-32.521 18.128-4.348 17.562 2.423 39.321 15.855 49.122 14.294 10.433 30.554 3.447 35.434-16.239 4.888-19.695-3.917-42.76-18.768-51.01"/><path fill="#312F3A" d="M144.322 128.691c-12.123-8.848-18.236-28.484-14.31-44.335 2.229-9.009 7.345-15.312 13.643-17.798-11.541-2.284-22.111 5.932-25.758 20.646-4.348 17.563 2.423 39.322 15.855 49.122 11.204 8.175 23.597 5.655 30.799-5.283-6.045 3.21-13.382 2.646-20.229-2.352"/><mask id="b" width="55" height="76" x="116" y="66" maskUnits="userSpaceOnUse" style="mask-type:luminance"><path fill="#fff" d="M150.426 69.07c14.842 8.25 23.648 31.316 18.768 51.011-4.88 19.686-21.141 26.672-35.434 16.239-13.433-9.801-20.204-31.56-15.856-49.122 4.357-17.571 18.583-25.88 32.522-18.127"/></mask><g mask="url(#b)"><path fill="#A4A3CD" d="M139.875 70.911c-5.294 7.5 1.452 23.512 1.452 23.512l3.048.86s-2.963-16.189 6.923-27.018c0 .008-6.813-3.885-11.423 2.646"/><path fill="#A4A3CD" d="M132.334 69.762s-6.991.944-7.565 8.494c-.473 6.152 14.386 19.99 14.386 19.99l3.403-1.542c-.009.008-10.579-11.613-10.224-26.942M121.498 82.098s-4.137 4.348-2.111 9.522c2.457 6.287 15.965 9.523 15.965 9.523l2.144-2.03c.009-.01-11.684-6.549-15.998-17.015M146.163 108.621l-4.239 1.391s-3.757 12.683-14.791 16.096c0 0 5.175 9.902 15.56 4.803 9.084-4.466 6.619-20.074 3.47-22.29M119.995 102.289s-3.064 10.821 4.695 13.627c8.738 3.168 14.69-5.25 15.492-9.388l-2.803-2.764s-10.283 5.84-17.384-1.475"/><path fill="#A4A3CD" d="m148.72 103.996-2.111 4.702s6.586 11.133 2.651 29.791c0 0 7.97 3.497 14.868-6.995 6.484-9.86-7.421-22.433-15.408-27.498"/><path fill="#8E8DBD" d="m148.719 103.996-.051.101c1.857 1.627 3.377 3.599 4.779 5.621 1.604 2.318 3.621 4.576 4.575 7.315 1.714 4.913 2.229 13.222-2.271 17.798-1.865 1.896-4.17 3.203-6.441 3.329-.026.11-.043.211-.068.32 0 0 7.97 3.498 14.868-6.994 6.509-9.852-7.396-22.425-15.391-27.49"/><path fill="#A4A3CD" d="m148.387 100.906.422 4.762s10.283 8.789 18.076 24.75c0 0 7.86-4.045 8.991-15.759 1.064-11.005-17.341-13.753-27.489-13.753"/><path fill="#8E8DBD" d="m148.387 100.906.261 2.967c6.231.438 27.937 6.581 21.403 22.955-.6 1.5-1.917 2.646-3.192 3.54a.4.4 0 0 1 .026.059s7.86-4.045 8.991-15.759c1.064-11.014-17.341-13.762-27.489-13.762"/><path fill="#A4A3CD" d="m146.859 98.655 2.55 3.767s5.395-2.334 20.119 7.5c0 0 8.553-6.682 6.847-15.22-1.705-8.536-26.721-2.56-29.516 3.953"/><path fill="#8E8DBD" d="m146.859 98.66.043.058c4.204-5.486 28.139-10.34 29.33 1.197.396-1.618.506-3.37.143-5.208-1.705-8.528-26.721-2.562-29.516 3.952"/><path fill="#A4A3CD" d="m144.512 95.644 2.777 3.557s4.315-7.273 16.455-10.888c0 0 3.09-6.22-2.203-12.16-5.294-5.942-14.243 8.165-17.029 19.491"/></g><path fill="#F2B024" d="M145.009 94.434c-1.934-.944-3.782-.885-5.235-.05l-2.001 1.475c1.36-.784 3.09-.801 4.889.151 3.867 2.048 6.56 7.778 5.766 12.675-.405 2.503-1.638 4.196-3.276 4.887l2.643-1.07c1.756-.733 3.073-2.511 3.487-5.107.819-5.064-2.111-10.93-6.273-12.96"/><path fill="#EEDE6D" d="M142.655 96.013c-3.631-1.921-6.983.144-7.683 4.5-.701 4.366 1.452 9.768 5.006 12.203 3.783 2.596 7.666.86 8.451-4.037.777-4.879-1.908-10.61-5.774-12.666"/><path fill="#54608A" d="M142.384 98.413c-2.617-1.391-5.04.1-5.539 3.244-.506 3.143 1.047 7.045 3.614 8.798 2.727 1.871 5.53.615 6.096-2.907.557-3.531-1.385-7.66-4.171-9.136"/><path fill="#676F93" d="M142.046 108.81c-2.372-1.626-3.816-5.241-3.343-8.157.194-1.205.692-2.14 1.376-2.739-1.621.186-2.887 1.567-3.234 3.75-.506 3.144 1.047 7.045 3.614 8.798 2.296 1.576 4.652.936 5.673-1.424-1.106.809-2.608.784-4.086-.228"/><path fill="#13121A" d="M91.805 34.243c-13.948-7.754-28.165.556-32.522 18.127-4.348 17.562 2.423 39.32 15.856 49.122 14.293 10.433 30.554 3.446 35.434-16.24 4.88-19.694-3.926-42.768-18.768-51.01"/><path fill="#312F3A" d="M85.705 93.848c-12.124-8.849-18.236-28.484-14.31-44.336 2.229-9.009 7.345-15.312 13.643-17.798C73.497 29.43 62.927 37.647 59.28 52.36c-4.348 17.562 2.423 39.32 15.856 49.122 11.203 8.174 23.597 5.654 30.799-5.284-6.045 3.219-13.382 2.646-20.229-2.351"/><mask id="c" width="55" height="76" x="57" y="31" maskUnits="userSpaceOnUse" style="mask-type:luminance"><path fill="#fff" d="M91.793 34.243c14.842 8.25 23.648 31.315 18.768 51.01-4.88 19.685-21.14 26.672-35.434 16.239-13.432-9.801-20.203-31.56-15.855-49.122 4.348-17.571 18.574-25.88 32.52-18.127"/></mask><g mask="url(#c)"><path fill="#A4A3CD" d="M81.254 36.082c-5.294 7.5 1.452 23.512 1.452 23.512l3.048.86s-2.964-16.19 6.923-27.018c0 0-6.813-3.885-11.423 2.646"/><path fill="#A4A3CD" d="M73.716 34.926s-6.99.944-7.564 8.494c-.473 6.152 14.386 19.99 14.386 19.99l3.403-1.542c-.009.008-10.58-11.613-10.225-26.942M62.876 47.262s-4.136 4.348-2.11 9.523c2.457 6.286 15.965 9.522 15.965 9.522l2.144-2.03c.009 0-11.676-6.549-15.999-17.015M87.534 73.785l-4.238 1.39S79.538 87.85 68.504 91.273c0 0 5.175 9.902 15.56 4.803 9.084-4.466 6.627-20.074 3.47-22.29M61.37 67.45s-3.064 10.82 4.694 13.626c8.739 3.169 14.69-5.25 15.493-9.388l-2.803-2.764s-10.275 5.848-17.384-1.475"/><path fill="#A4A3CD" d="m90.099 69.156-2.11 4.703s6.585 11.132 2.65 29.79c0 0 7.97 3.497 14.868-6.995 6.484-9.86-7.413-22.425-15.408-27.498"/><path fill="#8E8DBD" d="m90.105 69.156-.05.101c1.857 1.627 3.377 3.599 4.778 5.621 1.604 2.318 3.622 4.576 4.576 7.315 1.714 4.913 2.229 13.222-2.27 17.798-1.867 1.897-4.172 3.203-6.443 3.329-.025.11-.042.211-.067.32 0 0 7.97 3.498 14.867-6.994 6.501-9.852-7.395-22.417-15.39-27.49"/><path fill="#A4A3CD" d="m89.766 66.066.422 4.762s10.283 8.79 18.076 24.75c0 0 7.86-4.045 8.991-15.758 1.064-10.998-17.333-13.754-27.49-13.754"/><path fill="#8E8DBD" d="m89.766 66.066.261 2.967c6.231.438 27.937 6.581 21.403 22.956-.6 1.5-1.917 2.646-3.192 3.539a.4.4 0 0 1 .026.059s7.86-4.045 8.991-15.759c1.064-11.006-17.333-13.762-27.49-13.762"/><path fill="#A4A3CD" d="m88.246 63.827 2.55 3.767s5.395-2.334 20.119 7.5c0 0 8.552-6.682 6.847-15.219-1.714-8.528-26.73-2.562-29.516 3.952"/><path fill="#8E8DBD" d="m88.246 63.827.042.06c4.205-5.487 28.14-10.34 29.33 1.196.397-1.618.507-3.37.144-5.208-1.714-8.528-26.73-2.562-29.516 3.952"/><path fill="#A4A3CD" d="m85.883 60.812 2.778 3.557s4.314-7.273 16.454-10.888c0 0 3.09-6.22-2.203-12.16-5.294-5.942-14.243 8.165-17.03 19.491"/></g><path fill="#F2B024" d="M86.392 59.602c-1.934-.944-3.783-.885-5.235-.05l-2 1.474c1.359-.783 3.09-.8 4.888.152 3.866 2.048 6.56 7.779 5.766 12.675-.405 2.503-1.638 4.196-3.276 4.887l2.643-1.07c1.756-.733 3.073-2.511 3.487-5.107.819-5.064-2.111-10.93-6.273-12.96"/><path fill="#EEDE6D" d="M84.03 61.181c-3.63-1.921-6.983.144-7.683 4.5-.701 4.366 1.452 9.768 5.006 12.203 3.783 2.596 7.666.86 8.451-4.037.786-4.887-1.908-10.618-5.774-12.666"/><path fill="#54608A" d="M83.767 63.569c-2.617-1.39-5.04.1-5.539 3.244-.506 3.144 1.047 7.045 3.614 8.798 2.727 1.871 5.53.615 6.095-2.907.558-3.523-1.376-7.652-4.17-9.135"/><path fill="#676F93" d="M83.429 73.967c-2.372-1.627-3.816-5.242-3.343-8.158.194-1.205.692-2.14 1.376-2.739-1.621.186-2.888 1.568-3.234 3.75-.506 3.144 1.047 7.046 3.614 8.798 2.296 1.576 4.652.936 5.673-1.424-1.106.81-2.609.784-4.086-.227"/><path fill="#A09FCB" d="M119.673 95.053 63.411 62.322c-1.748-1.029-4.145-.397-4.88 1.76 0 0 2.364-2.131 3.791-1.297l56.254 32.723a3.95 3.95 0 0 1 1.967 3.413l-14.099 50.656c-.372.725-.904 1.053-1.495 1.011 1.073.472 2.162-.143 2.559-1.331l14.099-50.833c0-1.4-.735-2.68-1.934-3.371"/><path fill="#fff" d="M104.943 150.494 45.919 116.17c-.835-.489-2.237-.489-3.123.009L.81 139.53c-.887.489-.92 1.29-.084 1.779l59.023 34.324c.835.488 2.237.488 3.123-.009l41.986-23.352c.887-.497.929-1.297.085-1.778"/><path fill="#A09FCB" d="m51.932 154.059-13.889-8.073c-1.038-.607-2.769-.598-3.858.008l-11.246 6.253c-1.089.607-1.14 1.593-.101 2.192l13.888 8.073c1.039.607 2.77.598 3.859-.009l11.245-6.253c1.09-.606 1.14-1.592.102-2.191"/><path fill="#DCDCE6" d="m51.932 154.692-13.889-8.073c-1.038-.607-2.769-.598-3.858.008L22.94 152.88c-1.089.607-1.14 1.593-.101 2.191l13.888 8.074c1.039.606 2.77.598 3.859-.009l11.245-6.253c1.09-.607 1.14-1.584.102-2.191"/><path fill="#A09FCB" d="m104.862 152.261-41.985 23.352c-.895.488-2.23.522-3.124.008 0 0-59.268-34.492-59.31-34.535-.068-.059-.119-.126-.17-.185-.008-.008-.016-.025-.025-.034-.042-.067-.076-.135-.135-.429v1.373s0 .615.633 1.011c.034.026 58.897 34.265 58.897 34.265.895.523 2.22.489 3.115-.008l41.986-23.352c.447-.244.675-.573.684-.893l.101-1.458c.009.312-.228.64-.667.885"/><path fill="#313247" d="m98.21 151.931-2.127 1.179a.6.6 0 0 1-.186.068h-.009a.8.8 0 0 1-.202.025h-.009a.8.8 0 0 1-.194-.025h-.017a.6.6 0 0 1-.177-.068l-2.634-1.533a.4.4 0 0 1-.102-.093l1.85-1.028c.11-.059.168-.143.177-.219l.025-.725c0 .076-.059.16-.169.219l-2.127 1.18c-.051.025-.118.051-.178.067h-.008a.8.8 0 0 1-.203.026.7.7 0 0 1-.194-.026h-.025a.6.6 0 0 1-.17-.067l-2.633-1.534a.3.3 0 0 1-.102-.093l1.85-1.028c.11-.059.168-.143.168-.219l.026-.733c0 .084-.06.169-.17.228l-2.127 1.179c-.05.026-.118.051-.177.068h-.008a1 1 0 0 1-.212.025h-.008q-.104-.002-.194-.017c-.009-.008-.017-.008-.026-.008-.059-.017-.118-.034-.168-.059l-2.643-1.534c-.042-.025-.067-.059-.101-.093l1.849-1.028c.11-.059.168-.143.177-.227l.025-.733c0 .084-.067.16-.169.219l-2.127 1.18a.6.6 0 0 1-.186.067h-.008a.8.8 0 0 1-.203.025h-.008q-.103-.002-.195-.017-.012-.01-.025-.008c-.059-.017-.118-.034-.169-.059l-2.634-1.534a.4.4 0 0 1-.101-.093l1.849-1.028c.11-.059.169-.143.177-.219l.025-.733a.2.2 0 0 1-.05.126.4.4 0 0 1-.127.102l-2.127 1.179c-.06.026-.119.051-.186.068-.009 0-.009 0-.009.008-.067.017-.126.017-.202.017h-.009c-.067 0-.135 0-.194-.017h-.025c-.06-.017-.118-.033-.17-.067l-2.633-1.534c-.042-.025-.076-.059-.102-.084l1.85-1.028c.11-.059.168-.144.168-.219l.026-.734a.25.25 0 0 1-.043.127.6.6 0 0 1-.126.101l-2.128 1.18c-.059.025-.118.05-.186.067 0 0-.008 0-.008.009-.067.016-.127.016-.203.016h-.008c-.068 0-.127 0-.194-.016h-.026c-.059-.017-.118-.034-.168-.068l-2.635-1.534a.3.3 0 0 1-.11-.092l1.841-1.028c.11-.059.17-.144.17-.228l.024-.733c0 .084-.059.16-.168.219l-2.128 1.18a1 1 0 0 1-.177.067h-.009a.9.9 0 0 1-.21.026h-.01a.8.8 0 0 1-.194-.026h-.016a.6.6 0 0 1-.178-.067l-2.634-1.534a.3.3 0 0 1-.101-.084l1.849-1.028c.11-.059.169-.144.177-.228l.025-.733c0 .084-.059.16-.168.219l-2.128 1.18c-.05.034-.118.05-.186.067h-.008a.8.8 0 0 1-.203.026h-.008a.7.7 0 0 1-.194-.026h-.026c-.059-.017-.118-.033-.169-.067l-2.642-1.534a.4.4 0 0 1-.101-.093l1.849-1.028c.11-.059.16-.143.168-.219l.026-.733c0 .084-.06.169-.17.228l-2.127 1.179a.5.5 0 0 1-.177.068h-.008a.8.8 0 0 1-.203.025h-.008q-.091-.002-.195-.017c-.008 0-.017 0-.025-.008a1 1 0 0 1-.169-.059l-2.634-1.534a.3.3 0 0 1-.101-.093l1.849-1.028c.11-.059.168-.143.177-.227l.025-.733c0 .084-.067.16-.169.219l-2.127 1.18a.7.7 0 0 1-.186.067h-.008a.7.7 0 0 1-.203.025h-.008c-.068 0-.127-.008-.195-.017-.008 0-.017 0-.025-.008q-.09-.023-.169-.059l-2.634-1.534a.3.3 0 0 1-.101-.093l1.84-1.028c.11-.059.17-.143.17-.219l.024-.724c0 .075-.067.16-.168.219l-2.128 1.179a1 1 0 0 1-.186.068l-.008.008c-.068.017-.135.017-.203.017h-.008c-.076 0-.135 0-.194-.017-.009 0-.017-.008-.026-.008a1 1 0 0 1-.169-.068l-2.634-1.533c-.05-.026-.076-.059-.101-.085l1.849-1.028c.11-.059.169-.143.169-.219l.025-.733c0 .084-.059.169-.169.228l-2.127 1.179c-.051.026-.118.051-.178.068l-.008.008c-.06.017-.135.017-.203.017-.067 0-.126-.008-.194-.017h-.025a1 1 0 0 1-.169-.067l-2.634-1.534a.35.35 0 0 1-.118-.101v-.009c-.009-.008-.009-.008-.009-.016l1.832-1.02c.11-.059.17-.143.17-.219l.025-.725c0 .076-.068.16-.17.211l-2.127 1.18a1 1 0 0 1-.186.067l-.008.008c-.068.017-.135.017-.211.017h-.009c-.067 0-.126 0-.194-.017-.008 0-.017 0-.025-.008a1 1 0 0 1-.169-.059l-2.634-1.534c-.05-.025-.076-.059-.102-.092l1.85-1.029c.11-.059.168-.143.177-.219l.025-.733c0 .084-.059.169-.169.228l-2.127 1.179c-.051.026-.119.051-.178.068h-.008a1 1 0 0 1-.211.025h-.009c-.067 0-.126-.008-.194-.017q-.013.002-.025-.008a1 1 0 0 1-.169-.059l-2.634-1.534c-.017-.008-.025-.025-.042-.034l1.866-1.036c.11-.059.168-.143.168-.228l.026-.733c0 .084-.068.169-.17.228l-2.127 1.18c-.05.033-.118.05-.185.067h-.009c-.067.017-.135.017-.203.017h-.008c-.059 0-.127-.009-.194-.017-.008 0-.017-.008-.025-.008-.06-.017-.119-.034-.17-.068l-2.633-1.534a.26.26 0 0 1-.11-.101l-.009-.008a.2.2 0 0 1-.033-.118l-.026.733v.008c0 .009.009.017 0 .026 0 .017 0 .025.009.033 0 .009.008.017.017.034.008.009.008.017.008.017l.009.008c.008 0 .008 0 .008.009.008.017.017.025.034.042a.5.5 0 0 0 .067.051h.009l2.642 1.533a.3.3 0 0 0 .118.051c.017.008.034.008.051.017 0 0 .017.008.026.008.008.009.016.009.025.009.017.008.042.008.067.008h.119c.016 0 .033-.008.05-.008s.042-.009.05-.009c.018 0 .043 0 .06-.008h.025c.017-.009.026-.009.034-.009a1 1 0 0 0 .068-.025.4.4 0 0 0 .084-.042l.135-.076-.017.48s0 .017.009.026v.033c.008.009.008.017.017.026.008 0 .008.016.016.016h.009l.008.009a.07.07 0 0 0 .034.034q.027.024.068.05v.009l2.634 1.533c.033.026.076.034.118.051q.026.002.05.017s.017.008.026.008c.008.009.017 0 .025.009.026 0 .05 0 .068.008.017 0 .042 0 .059.008h.059c.017 0 .042-.008.06-.008h.05c.017-.008.042-.008.05-.008.009-.009.017-.009.017-.009h.017c.009 0 .017-.008.026-.008l.075-.025c.026-.009.051-.026.085-.034l.22-.127-.026.565v.034c0 .008 0 .025.008.033s.009.017.017.026l.009.017.008.008c.009.017.026.025.034.042.025.017.042.034.068.051l.008.008 1.157.674-.05.051-2.129 1.18a.6.6 0 0 1-.185.067H46a.8.8 0 0 1-.202.025h-.009a.8.8 0 0 1-.194-.025s-.017-.008-.025-.008c-.06-.017-.118-.034-.17-.068l-8.89-5.174c-.05-.025-.084-.067-.117-.101v-.009a.2.2 0 0 1-.043-.118l-.025.734v.067c.008.008.008.017.017.025.008.009.008.017.017.017h.008v.009c.009.016.026.025.034.033q.027.025.067.051h.009l2.583 1.508c-.025.026-.042.051-.076.068l-2.127 1.18c-.05.025-.118.05-.177.067h-.009a.7.7 0 0 1-.194.025h-.008c-.068 0-.136-.008-.195-.017-.008-.008-.017-.008-.025-.008q-.091-.023-.169-.059l-2.853-1.652a.3.3 0 0 1-.11-.101l-.009-.008a.2.2 0 0 1-.033-.11l-.026.733v.034c0 .008 0 .017.009.025 0 .009.008.017.008.034l.008.008v.009l.009.008c.017.017.025.034.034.042.017.017.042.043.067.051h.009l1.739 1.003c-.017.025-.042.042-.068.059l-5.36 2.983a1 1 0 0 1-.178.067h-.009c-.067.017-.135.017-.202.017h-.009c-.067 0-.126-.008-.194-.017-.008 0-.017-.008-.017-.008a.6.6 0 0 1-.177-.067l-1.992-1.163a.5.5 0 0 1-.119-.101.2.2 0 0 1-.042-.11l-.025.725v.076q.002.022.017.033s.008.009.008.017l.009.009v.008l.033.034a.2.2 0 0 0 .068.05h.008l1.74 1.012c-.026.016-.043.042-.076.058l-5.387 2.992a1 1 0 0 1-.186.068h-.008a1 1 0 0 1-.203.025h-.008a.8.8 0 0 1-.194-.025s-.017-.009-.026-.009c-.059-.017-.118-.034-.169-.067l-2-1.163c-.051-.026-.093-.059-.11-.101v-.009a.2.2 0 0 1-.034-.109l-.034.733v.034c.009.008.009.016.009.025q.002.01.017.034l.017.016v.017l.033.034c.017.017.043.034.068.051 0 0 .008 0 .008.008l1.993 1.163c.034.017.076.034.118.05.017 0 .034 0 .05.009.009 0 .018 0 .026.008.008 0 .017.009.025.009q.038.01.076.008h.17c.016 0 .041 0 .058-.008.017 0 .034-.009.05-.009.01 0 .018 0 .018-.008.017-.009.025-.009.034-.009.025 0 .05-.016.076-.025.025-.008.05-.025.076-.042l3.402-1.888-.017.481q-.002.012.008.025c0 .008 0 .025.009.034 0 .008 0 .017.017.025 0 .008.008.017.008.017l.009.008.008.009c.009.017.025.025.034.033.025.017.042.034.067.051h.009l3.006 1.753a.3.3 0 0 0 .126.05c.017.009.025.009.05.017.01 0 .018.009.026.009q.01-.002.034.008c.017 0 .042 0 .067.009.026 0 .043.008.06 0h.118c.017 0 .034-.009.05-.009.017-.008.043-.008.051-.008l.017-.009h.008c.017 0 .026 0 .034-.008.025 0 .05-.017.068-.025.033-.009.05-.026.084-.043l.236-.126-.025.581v.034c0 .017.009.025.009.034.008.008.008.017.017.025 0 .009.008.017.008.017v.008c.008 0 .008.009.008.009l.034.034a1 1 0 0 0 .068.05h.008l1.494.86c.034.025.077.042.119.059a.1.1 0 0 0 .05.008c.009.009.017.009.026.009s.017.008.025.008c.025 0 .05.008.067.008a.14.14 0 0 0 .06.009h.059c.017 0 .042 0 .05-.009.017 0 .043 0 .06-.008.016 0 .033 0 .05-.008 0 0 .009 0 .017-.009h.008c.009 0 .026 0 .034-.008.026 0 .043-.017.068-.017.025-.017.05-.025.076-.042l.354-.194-.025.708v.033c0 .017 0 .026.008.034 0 0 0 .017.017.025 0 0 0 .017.009.017l.008.009v.008c.009.017.026.025.034.042a.5.5 0 0 0 .068.051h.008l.464.27c-.017.016-.033.033-.067.05l-2.128 1.18c-.05.025-.118.05-.177.067l-.009.009a1 1 0 0 1-.21.025h-.009a.7.7 0 0 1-.194-.025s-.017-.009-.025-.009c-.06-.017-.119-.033-.17-.067l-2.633-1.534c-.051-.025-.076-.059-.102-.084l1.85-1.028c.109-.059.168-.143.168-.219l.025-.733c0 .084-.067.168-.168.227l-2.128 1.18a1 1 0 0 1-.186.067s-.008 0-.008.009c-.068.017-.135.017-.203.017h-.008c-.06 0-.127 0-.195-.017-.008 0-.016-.009-.025-.009-.059-.017-.118-.033-.169-.067l-2.634-1.534a.26.26 0 0 1-.11-.101h-.008a.2.2 0 0 1-.034-.118l-.034.742c0 .008.009.016 0 .025 0 .017 0 .025.009.034q.002.012.017.025c0 .008.008.017.008.017l.009.008c0 .009 0 .009.008.009a.07.07 0 0 0 .034.033q.028.025.067.051h.009l2.634 1.534a.5.5 0 0 0 .118.059q.026.01.05.008a.03.03 0 0 0 .018.008c.017 0 .025.009.034.009.016.008.042.008.067.008h.168c.018 0 .043-.008.052-.008.016-.009.042-.009.059-.009l.017-.008h.008c.017 0 .025 0 .034-.008.025-.009.05-.017.067-.026a.3.3 0 0 0 .085-.042l.22-.118-.018.565v.034c0 .008 0 .025.009.033s.008.017.017.025q.002.015.017.017h.008v.009l.034.033c.017.017.042.034.067.051 0 0 .009 0 .009.008l2.634 1.534c.042.017.076.034.118.051a.1.1 0 0 0 .05.008c0 .009.018.009.026.009s.017.008.025.008c.026 0 .051.009.068.009h.168c.018 0 .043-.001.051-.009.017 0 .043 0 .06-.008l.016-.009c.009 0 .026 0 .034-.008q.04-.013.068-.025a.4.4 0 0 0 .084-.043l.253-.143-.025.615v.034c.009.008.009.017.009.025s.008.017.016.026c0 .008.009.016.017.016l.009.009.033.034a1 1 0 0 0 .068.05h.008l2.635 1.534c.033.017.076.034.118.05.017.009.034.009.05.009.009.008.017.008.026.008.008.009.017.009.025.009.025 0 .042.008.068.008h.168c.017 0 .034 0 .051-.008.017 0 .042-.009.06-.009l.016-.008h.009c.008 0 .017 0 .025-.009a1 1 0 0 0 .067-.025c.026-.008.06-.025.085-.034l.22-.118-.017.565v.068c.008.008.008.016.016.033l.017.017h.009v.008c.008.017.025.026.034.043.016.016.042.033.067.05l2.643 1.534c.033.017.067.034.11.051q.024.01.05.008c.008 0 .017.008.025.008s.017.009.017.009q.05.01.085.008h.118q.026.002.05-.008h.051c.017 0 .042-.009.06-.009.008 0 .008 0 .016-.008h.009c.017 0 .025 0 .033-.008q.04-.013.068-.026a.4.4 0 0 0 .084-.042l.22-.118-.017.565v.033c.008.009.008.017.008.034.009.009.009.017.017.025.009 0 .009.017.017.017v.009c.009 0 .009 0 .009.008q.01.015.033.042c.017.017.043.034.068.051h.008l17.747 10.323c.042.017.076.034.118.051.017.008.034 0 .05.008 0 0 .018 0 .026.009h.017c.034.008.06.008.084.008h.119c.017 0 .042 0 .05-.008h.06c.016 0 .033-.009.05-.009l.017-.008h.008c.017-.009.026-.009.034-.009l.076-.025c.034-.008.05-.025.085-.034l.22-.118-.026.565v.034c0 .008 0 .017.008.025 0 .008 0 .025.017.034 0 .008 0 .008.009.017 0 0 .008.008.008.016l.034.034a.5.5 0 0 0 .067.051l.009.008 2.634 1.534a1 1 0 0 0 .127.05c.017.009.025.009.05.009.009 0 .017 0 .025.008h.034c.017 0 .042.009.068.009h.177c.017-.009.034-.009.05-.009.018 0 .043-.008.051-.008s.017 0 .017-.009h.009q.012-.01.025-.008c.026-.008.05-.017.068-.017.034-.017.059-.025.084-.034l.22-.126-.026.565v.033c0 .009.009.026.009.034 0 0 0 .017.017.025 0 .009 0 .017.008.017l.008.009h.009c.008.016.025.033.034.042.017.017.042.033.067.05l.009.009 2.634 1.533c.034.026.084.034.127.051.016.008.033.008.05.017h.025c.009.008.017.008.026.008.025.009.05.009.076.009.017 0 .042 0 .059.008h.05c.017-.008.043-.008.06-.008s.033-.009.05-.009.043 0 .06-.008h.016l.009-.009c.008 0 .025-.008.034-.008.025-.008.042-.017.067-.025s.06-.026.084-.034l.22-.126-.025.564v.042c.008.009 0 .017.008.034.008.009.008.017.017.025.008.009.008.017.017.017v.009q.01-.002.008.008a.07.07 0 0 0 .034.034.4.4 0 0 0 .068.05v.009l2.634 1.525c.042.025.076.034.118.051.017.008.034.008.05.017.009 0 .017.008.026.008q.012-.002.025.008a.2.2 0 0 0 .068.009c.025 0 .042.008.059.008h.059c.017 0 .042-.008.06-.008.016 0 .033-.009.05-.009s.042 0 .059-.008h.025c.017-.008.025-.008.042-.008l.068-.026c.034-.008.059-.025.076-.033l.22-.127-.026.573c.008.009 0 .025 0 .034q.01.013.008.025c.009.017.009.025.017.034l.017.017v.008c.009 0 .009.009.009.017.008.008.017.025.034.034.016.017.042.033.067.05l.008.009 2.635 1.533c.033.017.076.043.118.051.017 0 .034.008.05.008.009 0 .017 0 .026.009.008 0 .017.008.017.008.034.009.059.009.084.009a.2.2 0 0 0 .06.008h.109c.017 0 .042 0 .05-.008.018 0 .034-.009.06-.009h.017l.008-.008c.017 0 .025 0 .042-.009.026 0 .042-.008.068-.016.025-.017.05-.026.084-.043l.211-.117-.017.556v.033c.009.009 0 .017.009.026s.008.025.017.033l.017.017v.009q.01.002.008.017c.008.008.017.025.034.033a.2.2 0 0 0 .067.051l.009.008 2.043 1.188c.034.017.076.043.118.051q.026.002.05.017c.01 0 .018.008.018.008.017 0 .025.009.025.009.034 0 .06.008.085.008h.168c.017-.008.043-.008.06-.008.016 0 .033-.009.05-.009h.025c.017 0 .026-.008.034-.008.026-.009.05-.009.076-.017.025-.017.05-.025.076-.034l2.128-1.179c.11-.059.169-.144.169-.228l.025-.691s.025 0 .034-.008c.016 0 .042 0 .059-.009h.017l.008-.008c.017 0 .025-.009.042-.009a.2.2 0 0 0 .068-.017c.025-.008.05-.025.076-.033l2.127-1.18c.11-.059.17-.143.178-.228l.017-.522.827.48c.042.017.076.034.118.051.017.008.034.008.05.017h.026c.009.008.017.008.025.008q.039.01.076.008h.119c.017 0 .033 0 .05-.008h.051c.017-.008.042-.008.06-.008l.007-.009h.017c.009-.008.026-.008.034-.008l.068-.026c.025-.008.05-.025.076-.033l2.127-1.18q.165-.1.178-.228l.016-.488.152.092q.053.025.119.051c.016 0 .033 0 .05.008.009 0 .017 0 .026.009.017 0 .017.008.017.008.033.009.059.009.084.009h.16c.017 0 .042 0 .06-.009.016 0 .042-.008.05-.008s.017-.009.017-.009h.008c.017-.008.026-.008.034-.008l.076-.025c.026-.009.05-.026.076-.043l2.128-1.179c.11-.059.169-.144.169-.228l.016-.489.152.093a.3.3 0 0 0 .119.051c.017 0 .025.008.05.016h.026c.008.009.016.009.025.009.025 0 .05 0 .067.008h.169c.017 0 .043-.008.06-.008.016-.009.033-.009.05-.009l.008-.008h.017c.009 0 .026-.008.034-.008q.04-.013.068-.026c.025-.008.05-.025.076-.042l2.127-1.18c.11-.059.178-.143.178-.227l.025-.733c0 .084-.06.168-.169.227l-2.127 1.18c-.06.025-.119.051-.178.067h-.008a1 1 0 0 1-.211.026c-.068 0-.127-.009-.195-.017-.008 0-.016 0-.025-.009a1 1 0 0 1-.169-.059l-5.766-3.354a.26.26 0 0 1-.11-.101l-.008-.008c0-.009 0-.017-.009-.025l1.816-1.012c.11-.059.168-.143.177-.227l.017-.506 2.11 1.231q.053.024.119.05c.016.009.033.009.05.017.009 0 .017.008.025.008s.017 0 .026.009c.025 0 .05.008.067.008h.16c.018 0 .035-.008.052-.008s.042-.009.059-.009c.008-.008.008-.008.016-.008h.009c.008 0 .017-.008.034-.008q.028-.013.067-.026a.3.3 0 0 0 .076-.042l.22-.126-.026.564v.034c0 .008 0 .017.009.025s.008.026.017.034l.008.008v.009c.009 0 .009.008.009.017.008.008.017.025.033.033.017.017.043.034.068.051l.008.008 2.635 1.534c.033.017.076.034.118.051q.025.002.05.017c.009 0 .017.008.017.008.017 0 .026 0 .034.008.025 0 .05.009.067.009h.169c.017 0 .043-.009.051-.009.017-.008.042-.008.06-.008l.008-.008h.008c.017 0 .025-.009.042-.009a1 1 0 0 1 .068-.025.4.4 0 0 0 .076-.042l.059-.034 2.068-1.154c.11-.059.17-.144.17-.22l.016-.488 1.385.809c.033.017.076.042.118.05a.1.1 0 0 0 .05.009q.013-.002.026.008s.017.008.025.008a.2.2 0 0 0 .076.009h.169a.2.2 0 0 1 .06-.009c.016 0 .033 0 .05-.008h.025c.017-.008.025-.008.034-.008a.2.2 0 0 1 .067-.017c.026-.017.06-.025.085-.034l2.127-1.18c.11-.059.17-.143.17-.227l.025-.717c.228.304.168.388.067.439m-51.281-22.4-2.854 1.584-.025.734.988-.548-.025.615v.034c0 .008.008.017.008.025.008.008.008.017.017.034q-.002.002.008.017l.009.008v.008a.2.2 0 0 1 .034.043 1 1 0 0 0 .067.05h.008l1.14.666-.05.05-2.128 1.18c-.06.026-.118.051-.186.068h-.008a.9.9 0 0 1-.211.025h-.009c-.067 0-.126-.008-.194-.017-.008 0-.017-.008-.017-.008a.6.6 0 0 1-.177-.068l-5.218-3.034c-.05-.025-.084-.067-.118-.101v-.008a.2.2 0 0 1-.034-.11l-.025.734v.042c.008.008.008.016.008.025.009.017.009.025.017.034.009.008.009.016.017.016v.009s.009 0 .009.008c.008.017.025.026.034.034.016.017.042.034.067.051h.008l2.373 1.382a.4.4 0 0 1-.06.05l-2.127 1.18a1 1 0 0 1-.177.067h-.008a.9.9 0 0 1-.212.026h-.008c-.068 0-.127-.009-.194-.017-.009-.009-.017-.009-.026-.009a1 1 0 0 1-.168-.059l-3.479-2.022a.35.35 0 0 1-.118-.101v-.009c-.017-.016-.017-.042-.017-.067l1.773-.986q.167-.1.169-.228l.017-.471.135.084c.034.025.076.033.118.05.017 0 .034.009.05.017h.026c.008 0 .017 0 .025.009q.04.01.068.008h.118c.017 0 .042-.008.05-.008h.06c.017-.009.034-.009.05-.009l.017-.008h.009c.017-.009.025-.009.042-.009.025-.008.042-.017.068-.025.033-.008.05-.025.076-.034l2.127-1.179c.11-.068.17-.144.17-.228l.016-.514.962.565q.053.024.119.05a.1.1 0 0 0 .05.009c.009.008.017.008.026.008s.016.008.016.008c.034 0 .06.009.085.009a.2.2 0 0 0 .059.008h.051c.017 0 .033 0 .05-.008.017 0 .043 0 .051-.009.017 0 .042-.008.06-.008h.024c.009 0 .017 0 .034-.008a.15.15 0 0 1 .068-.017 1 1 0 0 0 .076-.042l2.127-1.18c.11-.068.17-.143.17-.228l.016-.522 2.288 1.331a.6.6 0 0 0 .127.051c.017 0 .025 0 .05.008.009.009.017.009.026.009s.025.008.033.008a.2.2 0 0 0 .068.009.2.2 0 0 0 .059.008h.11q.026-.01.05-.008c.017 0 .043 0 .051-.009h.025c.017-.008.026-.008.034-.008a.2.2 0 0 1 .068-.017c.025-.017.059-.025.084-.034l.245-.135-.017.59v.076c.009.008.009.017.017.034 0 0 0 .017.008.017l.009.008.008.008c.009.017.026.026.034.043q.04.024.068.05h.008l.389.219c.033-.017.016 0-.009.017"/><path fill="#5B5C71" d="M33.134 128.871q-.04-.025-.068-.051c-.017-.008-.025-.025-.034-.033 0 0 0-.009-.008-.009v-.008c0-.009-.008-.009-.008-.017-.009-.008-.009-.017-.017-.034 0-.008-.009-.025-.009-.033v-.043000000000000003l.017-.573-3.183 1.77q.038.052.101.093l2.846 1.66a1 1 0 0 0 .194.076c.059.008.127.017.194.017h.008a.8.8 0 0 0 .203-.026h.009c.067-.017.126-.042.185-.067l2.128-1.18c.017-.008.025-.025.042-.034zM37.202 127.514c-.025-.017-.05-.033-.067-.05l-.034-.034s0-.008-.009-.008c0-.009-.008-.009-.008-.017-.009-.009-.009-.017-.017-.034 0-.008-.008-.017-.008-.034v-.042l.016-.497-.16.084c-.025.017-.05.026-.084.042l-.068.026c-.008 0-.025 0-.034.008h-.008c-.009 0-.009 0-.017.009-.017 0-.034.008-.06.008-.016 0-.033.008-.05.008h-.161c-.025 0-.05-.008-.067-.008-.008 0-.033-.008-.033-.008-.009 0-.017 0-.026-.009-.017 0-.034-.008-.05-.008a2 2 0 0 1-.119-.051l-1.021-.598-.017.505c0 .085-.06.169-.177.228l-1.841 1.028q.039.053.101.093l2.846 1.66a1 1 0 0 0 .194.076c.059.008.126.017.194.017h.008a.8.8 0 0 0 .203-.026h.008a.7.7 0 0 0 .186-.067l2.128-1.18c.033-.017.05-.042.067-.059zM39.207 125.482q0 .126-.178.228l-1.857 1.036c.017.017.034.034.059.051l2.845 1.66a1 1 0 0 0 .194.076.7.7 0 0 0 .194.017.8.8 0 0 0 .203-.026h.009c.067-.016.126-.042.185-.067l2.128-1.18a.2.2 0 0 0 .076-.067l-3.841-2.233zM44.308 135.235v-.033l.016-.565-.22.118c-.024.017-.05.025-.084.042-.025.009-.042.017-.067.025-.009 0-.017 0-.034.009h-.008c-.009 0-.009.008-.017.008-.017 0-.034.009-.06.009-.016 0-.033.008-.05.008h-.178c-.025 0-.05-.008-.067-.008-.008 0-.017-.009-.025-.009s-.017 0-.026-.008c-.016 0-.033-.009-.05-.009a1 1 0 0 1-.118-.05l-2.727-1.584-.017.488q0 .127-.178.228l-1.832 1.02c0 .008 0 .008.009.016.025.034.059.068.118.101l2.634 1.534a1 1 0 0 0 .169.068c.008 0 .017.008.025.008q.092.015.194.017h.009a.8.8 0 0 0 .203-.025h.008a.7.7 0 0 0 .186-.068l2.127-1.18a.5.5 0 0 0 .093-.075q-.01-.013-.008-.026c-.026-.042-.026-.05-.026-.059M46.215 140.139a.5.5 0 0 1-.068-.051l-.034-.033-.008-.009c0-.008-.009-.008-.009-.017-.008-.008-.008-.025-.016-.033 0-.009-.009-.017-.009-.034v-.042l.017-.565-.22.127c-.025.008-.05.025-.084.033-.025.009-.042.017-.068.025-.008 0-.025.009-.033.009h-.026000000000000002c-.016 0-.033.008-.059.008-.017 0-.033.009-.059.009h-.16899999999999998c-.025 0-.05-.009-.067-.009l-.042-.008h-.017a.1.1 0 0 0-.051-.009 1 1 0 0 1-.118-.05l-1.419-.826-.017.531q0 .126-.177.228l-1.849 1.028a.26.26 0 0 0 .102.084l2.634 1.534a1 1 0 0 0 .194.076c.059.016.127.016.194.016h.008a.8.8 0 0 0 .203-.025h.009a.7.7 0 0 0 .185-.067l2.128-1.18c.034-.025.059-.051.084-.076zM49.995 142.326q-.04-.025-.067-.05l-.034-.034s0-.008-.009-.008c0-.009-.008-.009-.008-.017-.009-.009-.009-.026-.017-.034 0-.008-.008-.017-.008-.034v-.033l.017-.565-.22.118a.3.3 0 0 1-.084.034c-.026.008-.043.017-.068.025-.008 0-.025.008-.034.008h-.025c-.017 0-.034.009-.06.009-.016 0-.033.008-.05.008h-.178c-.024 0-.05-.008-.067-.008-.008 0-.017-.009-.042-.009h-.017c-.017-.008-.034-.008-.05-.008a2 2 0 0 1-.119-.051l-1.418-.825-.017.53c0 .085-.059.169-.177.228l-1.84 1.028c.025.034.058.068.1.093l2.635 1.534c.05.025.11.05.169.067.008 0 .017.008.025.008q.092.026.194.026h.009a.8.8 0 0 0 .202-.026h.009a.7.7 0 0 0 .185-.067l2.128-1.18c.042-.025.06-.05.084-.076zM53.76 144.53q-.04-.025-.067-.051l-.034-.033-.009-.009v-.008c0-.009-.008-.008-.008-.017-.009-.008-.009-.017-.017-.034 0-.008-.008-.016-.008-.033v-.034l.017-.565-.22.127a.2.2 0 0 1-.084.033l-.068.026c-.008 0-.025.008-.034.008h-.025c-.017 0-.034.009-.06.009-.016 0-.033 0-.05.008h-.178c-.024 0-.05-.008-.075-.008 0 0-.009 0-.017-.009-.008 0-.017 0-.025-.008-.017 0-.034-.009-.05-.009q-.066-.025-.12-.05l-1.417-.826-.017.531c0 .084-.06.168-.178.227l-1.84 1.028c.025.034.059.059.101.085l2.634 1.533c.05.026.11.051.17.068.008 0 .016 0 .024.008q.092.026.195.026h.008a.8.8 0 0 0 .203-.026h.008a.7.7 0 0 0 .186-.067l2.127-1.18c.034-.025.06-.042.085-.067zq.013 0 0 0M57.52 146.722q-.04-.026-.068-.05c-.017-.009-.025-.026-.033-.034l-.009-.009v-.008c0-.008-.008-.008-.008-.017-.009-.008-.009-.017-.017-.034 0-.008-.009-.016-.009-.033v-.042l.017-.565-.22.126a.2.2 0 0 1-.084.034 1 1 0 0 1-.067.025c-.009 0-.026.009-.034.009h-.025c-.017 0-.034.008-.06.008-.016 0-.033.009-.059.009h-.186c-.025 0-.05-.009-.075-.009 0 0-.009 0-.017-.008-.009 0-.017 0-.026-.009-.016 0-.033-.008-.05-.008a2 2 0 0 1-.118-.051l-1.419-.826-.017.531c0 .085-.059.169-.177.228l-1.849 1.028c.026.034.05.059.102.084l2.634 1.534c.05.025.11.051.169.067.008 0 .016 0 .025.009.059.008.126.017.194.017h.008a.8.8 0 0 0 .203-.026h.009a.7.7 0 0 0 .185-.067l2.128-1.18c.034-.025.059-.05.084-.067zM61.327 148.917a.4.4 0 0 1-.067-.05l-.034-.034c0-.008 0-.008-.008-.008 0-.009-.009-.009-.009-.017-.008-.009-.008-.025-.017-.034 0-.008-.008-.017-.008-.034v-.042l.025-.573-.236.127c-.026.008-.051.025-.085.033l-.067.026c-.009 0-.017.008-.034.008h-.025c-.017.009-.034.008-.06.008-.016 0-.033.009-.05.009h-.17c-.024 0-.05-.009-.067-.009-.008 0-.017-.008-.042-.008q-.002.002-.017-.008c-.017 0-.034-.009-.05-.009-.043-.017-.085-.033-.118-.05l-1.419-.826-.017.531q0 .126-.177.227l-1.84 1.028a.3.3 0 0 0 .11.093l2.633 1.534c.05.025.11.05.17.067.008 0 .024.009.024.009q.091.025.195.025h.008a.8.8 0 0 0 .203-.025h.008a.7.7 0 0 0 .186-.068l2.127-1.18a1 1 0 0 0 .085-.075zM65.1 151.119q-.04-.025-.067-.05l-.034-.034-.008-.008c0-.009-.008-.009-.008-.017-.009-.009-.009-.026-.017-.034 0-.008-.009-.017-.009-.034v-.042l.017-.564-.22.126a.3.3 0 0 1-.084.034c-.025.008-.042.017-.067.025-.009 0-.026.008-.034.008h-.009c-.008 0-.008 0-.017.009-.017.008-.033.008-.059.008-.016 0-.033.009-.059.009h-.16899999999999998c-.025 0-.05-.009-.076-.009 0 0-.008 0-.017-.008-.008 0-.016-.009-.025-.009-.017-.008-.034-.008-.05-.008a2 2 0 0 1-.119-.051l-1.418-.825-.017.53q0 .127-.177.228l-1.85 1.028c.026.034.052.059.102.084l2.634 1.534c.05.025.11.051.17.068.008 0 .016.008.024.008a.7.7 0 0 0 .195.017h.008a1 1 0 0 0 .203-.025h.008a.7.7 0 0 0 .186-.068l2.127-1.18c.034-.017.06-.042.085-.067zM68.866 153.311a.5.5 0 0 1-.068-.051c-.017-.008-.025-.025-.034-.034 0 0 0-.008-.008-.008v-.008c0-.009-.009-.009-.009-.017-.008-.009-.008-.017-.016-.034 0-.008-.009-.017-.009-.034v-.033l.017-.565-.22.126a.3.3 0 0 1-.076.034c-.025.009-.042.017-.067.025-.008 0-.025.009-.034.009h-.008c-.009 0-.009 0-.017.008-.017 0-.034.009-.06.009-.016 0-.033.008-.05.008h-.178c-.025 0-.05-.008-.067-.008-.008 0-.017-.009-.034-.009-.008 0-.016 0-.025-.008-.017-.009-.034-.009-.05-.009a1 1 0 0 1-.119-.05l-1.418-.826-.017.531q0 .126-.177.227l-1.84 1.029c.025.033.058.067.1.092l2.635 1.534c.05.034.11.051.169.067.008 0 .016 0 .025.009.059.008.127.017.194.017h.008a.8.8 0 0 0 .203-.026h.009a.7.7 0 0 0 .185-.067l2.128-1.18c.034-.017.059-.05.084-.076zc.008.008 0 .008 0 0M72.644 155.514a.4.4 0 0 1-.067-.05l-.034-.034-.009-.008v-.009c0-.008-.008-.008-.008-.017-.008-.008-.008-.016-.017-.033 0-.009-.008-.017-.008-.034v-.042l.017-.565-.22.127a.2.2 0 0 1-.084.033l-.068.026c-.008 0-.017.008-.034.008h-.008c-.008 0-.008 0-.017.009-.017 0-.034.008-.06.008-.016 0-.033.008-.05.008H71.8c-.025 0-.05-.008-.084-.008l-.017-.008c-.009 0-.017-.009-.026-.009-.017 0-.033-.008-.05-.008q-.066-.025-.119-.051l-1.418-.826-.017.523c0 .084-.059.168-.177.227l-1.849 1.028c.025.034.05.059.101.085l2.634 1.533q.078.04.17.068c.008 0 .016.008.025.008.059.017.126.017.194.026h.008a.8.8 0 0 0 .203-.026h.008a.7.7 0 0 0 .186-.067l2.128-1.18c.033-.025.059-.042.084-.076zq.014 0 0 0M76.479 157.732a.5.5 0 0 1-.102-.085l-.008-.008c0-.008-.008-.008-.008-.017-.009-.008-.009-.017-.017-.034 0-.008-.009-.016-.009-.033v-.034l.026-.632-.279.152c-.025.017-.05.025-.076.033l-.067.026c-.009 0-.026.008-.034.008h-.026000000000000002c-.017 0-.033.009-.059.009-.017 0-.033.008-.059.008h-.178c-.025 0-.05-.008-.067-.008-.008 0-.025-.009-.025-.009-.008 0-.017 0-.025-.008-.017 0-.034-.009-.051-.009-.042-.017-.084-.033-.118-.05l-1.418-.826-.017.531q0 .126-.178.227l-1.84 1.028c.025.034.05.059.101.093l2.634 1.534c.05.034.11.05.169.067.008 0 .025.009.025.009.06.017.127.017.195.017h.008a.8.8 0 0 0 .203-.026h.008a.7.7 0 0 0 .186-.067l2.127-1.18c.034-.017.06-.051.085-.067zM80.588 149.013a.5.5 0 0 1-.068-.051c-.016-.008-.025-.025-.033-.034 0 0 0-.008-.009-.008 0-.008-.008-.008-.008-.017-.009-.008-.009-.017-.017-.034 0-.008-.009-.016-.009-.033v-.034l.017-.565-.22.118a.2.2 0 0 1-.084.034c-.025.009-.042.017-.067.025-.009 0-.026.009-.034.009h-.025c-.017 0-.034.008-.05.008-.018 0-.035.009-.052.009h-.16899999999999998c-.025 0-.05-.009-.084-.009 0 0-.008 0-.017-.008-.008 0-.017 0-.025-.009-.017 0-.034-.008-.05-.008q-.066-.025-.119-.051l-2.11-1.23-.017.497c0 .084-.06.16-.17.228l-1.84 1.028c.025.034.05.059.101.084l2.635 1.534c.05.025.11.05.168.067.009 0 .017.009.026.009.059.017.126.017.194.017h.008a.8.8 0 0 0 .203-.026h.008a.7.7 0 0 0 .186-.067l2.128-1.18c.025-.017.042-.034.067-.05zq.012 0 0 0M76.812 146.821a.5.5 0 0 1-.101-.085s0-.008-.009-.008c0-.008-.008-.008-.008-.017-.009-.008-.009-.017-.017-.034 0-.008-.009-.025-.009-.033v-.034l.017-.565-.22.127a.2.2 0 0 1-.084.033l-.067.026c-.009 0-.026.008-.034.008h-.025c-.017 0-.034.009-.06.009-.016 0-.033.008-.05.008h-.16899999999999998c-.025 0-.05-.008-.084-.008 0 0-.009-.009-.017-.009s-.017-.008-.026-.008c-.017 0-.033-.009-.042-.009-.042-.017-.084-.033-.118-.05l-2.11-1.231-.018.498q0 .126-.177.227l-1.849 1.028c.026.034.05.059.102.085l2.634 1.533a1 1 0 0 0 .194.076q.09.025.194.025a.8.8 0 0 0 .203-.025h.008c.068-.017.127-.042.186-.067l2.127-1.18c.026-.017.043-.034.068-.051zq.015 0 0 0M73.03 144.623a.5.5 0 0 1-.1-.085s0-.008-.01-.008c-.008-.008-.008-.008-.008-.017-.008-.008-.008-.017-.017-.034-.008-.008-.008-.016-.008-.033v-.042l.017-.565-.22.118a.3.3 0 0 1-.084.034c-.025.008-.042.016-.067.025-.009 0-.026.008-.034.008h-.026000000000000002c-.016 0-.033.009-.059.009q-.026-.002-.05.008h-.16999999999999998c-.025 0-.05-.008-.067-.008-.008 0-.017-.009-.033-.009-.009 0-.017-.008-.026-.008-.017 0-.034-.009-.042-.009a1 1 0 0 1-.118-.05l-2.12-1.23-.016.497c0 .084-.06.168-.178.227l-1.84 1.028a.3.3 0 0 0 .11.093l2.634 1.534c.05.025.11.05.169.067.008 0 .025.009.025.009.06.017.127.017.194.017h.009a.8.8 0 0 0 .202-.026h.009q.099-.027.185-.067l2.128-1.18c.025-.017.042-.034.068-.051zM69.267 142.423a.4.4 0 0 1-.068-.05l-.033-.034-.009-.008c0-.009-.008-.009-.008-.017-.009-.009-.009-.017-.017-.034 0-.008-.009-.017-.009-.034v-.042l.017-.573-.228.127a.2.2 0 0 1-.084.033l-.068.026c-.008 0-.025.008-.034.008h-.025c-.017.009-.034.009-.059.009-.017 0-.034.008-.05.008h-.178c-.025 0-.05-.008-.067-.008l-.034-.009c-.009 0-.017 0-.026-.008-.016 0-.033-.009-.05-.009-.042-.017-.085-.033-.118-.05l-2.111-1.231-.017.498q0 .126-.177.227l-1.85 1.028c.026.034.052.059.102.084l2.634 1.534a1 1 0 0 0 .17.068c.008 0 .016.008.024.008.06.017.127.017.195.017h.008a1 1 0 0 0 .203-.025h.008a.7.7 0 0 0 .186-.068l2.127-1.18a.4.4 0 0 0 .068-.059zM65.496 140.231a.5.5 0 0 1-.068-.051l-.034-.033s0-.009-.008-.009v-.008c0-.009-.009-.009-.009-.017-.008-.009-.008-.025-.017-.034 0-.008-.008-.025-.008-.034v-.033l.017-.565-.22.118c-.025.017-.05.025-.084.042l-.068.026c-.008 0-.025.008-.033.008h-.009c-.008 0-.008 0-.017.008-.017 0-.034.009-.059.009q-.026-.002-.05.008h-.16999999999999998c-.025 0-.05-.008-.067-.008-.008 0-.017-.009-.034-.009-.008 0-.017 0-.025-.008-.017 0-.034-.008-.05-.008a2 2 0 0 1-.119-.051l-2.11-1.23-.017.497q0 .126-.178.227l-1.84 1.028a.3.3 0 0 0 .101.085l2.643 1.533c.05.026.11.051.169.059.008 0 .016 0 .025.009.059.017.127.025.194.025h.008a.8.8 0 0 0 .203-.025h.009a.7.7 0 0 0 .185-.068l2.128-1.179c.025-.017.042-.034.067-.051zq0 .012 0 0M61.703 138.031a.5.5 0 0 1-.067-.051l-.034-.033s0-.009-.009-.009c0-.008-.008-.008-.008-.017-.008-.008-.008-.016-.017-.033 0-.009-.008-.017-.008-.034v-.042l.017-.565-.22.127a.2.2 0 0 1-.084.033l-.068.026c-.008 0-.025.008-.034.008h-.025c-.017.009-.034.009-.05.009-.018 0-.034.008-.06.008h-.16899999999999998c-.025 0-.05-.008-.084-.008 0 0-.009 0-.034-.009h-.017c-.017 0-.034-.008-.042-.008a2 2 0 0 1-.118-.051l-2.11-1.222-.018.497c0 .085-.059.169-.177.228l-1.849 1.028c.025.034.05.059.101.084l2.634 1.534c.051.034.11.051.17.067.008 0 .016.009.025.009a.7.7 0 0 0 .194.017h.008a.8.8 0 0 0 .203-.026h.008a.7.7 0 0 0 .186-.067l2.128-1.18c.025-.017.042-.033.067-.05zM57.928 135.835a1 1 0 0 1-.067-.05c-.017-.009-.025-.026-.034-.034l-.008-.009c-.009-.008-.009-.016-.009-.016-.008-.009-.008-.017-.017-.034 0-.009-.008-.017-.008-.034v-.034l.017-.564-.22.126a.3.3 0 0 1-.084.034c-.026.008-.042.017-.068.025-.008 0-.017.009-.033.009h-.009c-.008 0-.017 0-.017.008-.017 0-.034.008-.059.008-.017 0-.034 0-.05.009H57.1c-.025 0-.05-.009-.068-.009-.008 0-.016-.008-.042-.008h-.017c-.016 0-.033-.008-.05-.008-.042-.017-.085-.034-.118-.051l-2.111-1.23-.017.497q0 .126-.177.227l-1.84 1.029c.024.033.05.059.1.092l2.635 1.534c.05.025.11.051.169.067.008 0 .016 0 .025.009a.7.7 0 0 0 .194.017h.008a.8.8 0 0 0 .203-.026h.009a.7.7 0 0 0 .185-.067l2.128-1.18c.025-.017.042-.034.067-.05zM54.163 133.642q-.04-.025-.068-.051l-.033-.034s0-.008-.009-.008c-.008-.009-.008-.017-.008-.017-.009-.008-.009-.017-.017-.034 0-.008-.009-.017-.009-.033v-.043000000000000003l.017-.564-.22.126a.2.2 0 0 1-.084.034c-.025.008-.042.017-.067.025-.009 0-.026.009-.034.009h-.025c-.017 0-.034.008-.051.008s-.034.009-.05.009h-.16999999999999998c-.025 0-.05-.009-.067-.009-.009 0-.017-.008-.034-.008-.008 0-.017 0-.025-.009-.017 0-.034-.008-.05-.008q-.066-.025-.12-.051l-2.11-1.23-.017.497c0 .084-.059.169-.177.228l-1.84 1.028c.025.033.05.067.1.092l2.635 1.534a1 1 0 0 0 .194.076.7.7 0 0 0 .194.017h.009a1 1 0 0 0 .202-.025h.009c.067-.017.127-.043.186-.068l2.127-1.18c.026-.016.042-.033.068-.05zM50.385 131.44c-.025-.017-.05-.033-.067-.05l-.034-.034-.008-.008c0-.009-.009-.017-.009-.017-.008-.009-.008-.026-.017-.034 0-.008-.008-.017-.008-.034v-.042l.017-.564-.22.118a.3.3 0 0 1-.084.033l-.068.026c-.008 0-.025.008-.034.008h-.025c-.017 0-.034.008-.059.008-.017 0-.034.009-.05.009h-.178c-.025 0-.05-.009-.067-.009-.009 0-.017-.008-.034-.008-.009 0-.017-.008-.026-.008-.017 0-.033-.009-.05-.009l-.118-.05-2.153-1.248-.017.498c0 .084-.06.168-.178.227l-1.832 1.02v.025a.5.5 0 0 0 .119.101l2.634 1.534c.05.025.11.05.169.067l.025.009c.059.017.127.025.194.025h.008a.8.8 0 0 0 .203-.025h.009q.098-.027.185-.068l2.128-1.179c.025-.017.042-.034.067-.051zM48.95 134.327a.5.5 0 0 1-.069-.051c-.016-.008-.025-.025-.033-.033l-.009-.009c0-.008-.008-.008-.008-.017-.009-.008-.009-.025-.017-.033 0-.009-.008-.017-.008-.034v-.042l.016-.565-.22.118a.3.3 0 0 1-.083.034c-.026.008-.043.017-.068.025-.008 0-.025.009-.034.009h-.025c-.017 0-.034.008-.06.008h-.219c-.025 0-.05-.008-.084-.008l-.017-.009c-.008 0-.017 0-.025-.008-.017 0-.034-.009-.051-.009q-.065-.025-.118-.05l-1.385-.809-.017.489q-.002.126-.169.227l-1.849 1.028c.026.034.051.059.102.084l2.634 1.534a1 1 0 0 0 .169.068c.008 0 .017.008.025.008q.092.025.194.025h.009a.8.8 0 0 0 .202-.025h.009a.7.7 0 0 0 .186-.067l2.127-1.18c.025-.017.034-.034.06-.051zM51.864 139.621v-.033l.017-.565-.22.118c-.025.017-.05.025-.084.042-.025.009-.042.017-.067.025-.009 0-.017 0-.034.009h-.009c-.008 0-.017 0-.017.008-.016 0-.042.009-.059.009s-.033 0-.059.008h-.16899999999999998c-.025 0-.05-.008-.067-.008-.009 0-.017-.009-.034-.009 0 0-.008 0-.017-.008-.017 0-.034-.009-.05-.009-.043-.008-.085-.033-.119-.05l-2.634-1.534-.008-.008c-.017-.009-.034-.026-.05-.034l-.018.489c0 .084-.059.168-.177.227l-1.84 1.028c.025.034.059.059.1.093l2.635 1.534a1 1 0 0 0 .194.076.7.7 0 0 0 .194.017h.009a.8.8 0 0 0 .202-.026h.009a.7.7 0 0 0 .186-.067l2.127-1.18c.042-.025.06-.05.093-.076-.009-.008-.009-.017-.017-.033-.008-.026-.017-.034-.017-.043M55.638 141.833v-.034l.017-.564-.22.118a.3.3 0 0 1-.084.033l-.068.026c-.008 0-.025.008-.034.008h-.025c-.017.008-.034.008-.06.008-.016 0-.033.009-.05.009h-.178c-.025 0-.05-.009-.067-.009-.008 0-.025-.008-.025-.008-.008 0-.017-.008-.025-.008-.017 0-.034-.009-.051-.009l-.118-.05-2.643-1.534c-.017-.009-.033-.025-.05-.034l-.017.489c0 .084-.06.168-.17.227l-1.848 1.029a.26.26 0 0 0 .101.084l2.634 1.534c.051.025.11.05.17.067q.012-.002.025.008.09.015.194.017h.008a.8.8 0 0 0 .203-.025h.008a.7.7 0 0 0 .186-.067l2.127-1.18c.043-.025.068-.051.093-.076 0-.008-.008-.017-.008-.025-.025-.017-.025-.026-.025-.034M59.408 144.014v-.042l.017-.565-.22.118a.3.3 0 0 1-.084.034c-.026.008-.043.017-.068.025-.008 0-.025.009-.034.009h-.025c-.017 0-.034.008-.059.008-.017 0-.034 0-.05.008h-.10999999999999999c-.017 0-.043 0-.06-.008-.025 0-.05 0-.067-.008-.009 0-.017-.009-.042-.009 0 0-.009 0-.017-.008-.017 0-.034-.009-.05-.009q-.066-.025-.119-.05l-2.643-1.534h-.008c-.017-.008-.034-.025-.05-.034l-.018.489q0 .126-.177.228l-1.84 1.028c.025.033.059.067.1.092l2.644 1.534c.05.025.11.051.168.068.009 0 .017.008.026.008.059.017.126.017.194.017h.008a1 1 0 0 0 .203-.025h.008a.7.7 0 0 0 .186-.068l2.128-1.18a.4.4 0 0 0 .093-.076c-.009-.008-.009-.016-.017-.033-.017.008-.017-.009-.017-.017M63.21 145.601l-.227.127c-.026.016-.051.025-.085.042-.025.008-.042.017-.068.025-.008 0-.016.008-.033.008h-.026000000000000002c-.017.009-.033.009-.059.009-.017 0-.034.008-.05.008h-.119c-.016 0-.042 0-.059-.008-.025 0-.05-.009-.067-.009-.009 0-.017 0-.026-.008q-.012.002-.025-.008c-.017 0-.034-.009-.05-.009l-.119-.05-2.634-1.534h-.008c-.017-.009-.034-.025-.05-.034l-.018.489c0 .084-.059.168-.177.227l-1.85 1.029c.026.033.052.059.102.084l2.634 1.534c.051.033.11.05.17.067.008 0 .016.008.025.008q.09.015.194.017h.008a.8.8 0 0 0 .203-.025h.008a.6.6 0 0 0 .178-.067l2.127-1.18c.042-.025.068-.051.101-.084 0-.009-.008-.009-.008-.017s-.008-.017-.008-.034v-.034zM66.97 148.412v-.034l.017-.565-.22.118a.2.2 0 0 1-.084.034c-.025.008-.042.017-.067.025-.009 0-.026.009-.034.009h-.025c-.017 0-.034.008-.06.008-.016 0-.033.009-.05.009h-.178c-.025 0-.05-.009-.067-.009-.008 0-.025-.008-.025-.008-.009 0-.017 0-.026-.009-.017 0-.033-.008-.05-.008a2 2 0 0 1-.118-.051l-2.635-1.533h-.008c-.025-.017-.042-.034-.06-.043l-.016.498c0 .084-.06.168-.177.227l-1.84 1.02a.4.4 0 0 0 .109.101l2.634 1.534c.05.033.11.05.169.067.008 0 .025.009.025.009q.092.024.194.025h.009a1 1 0 0 0 .202-.025h.009a.7.7 0 0 0 .186-.068l2.127-1.18a.5.5 0 0 0 .093-.075c-.008-.009-.008-.017-.017-.034-.017-.025-.017-.034-.017-.042M70.74 150.61v-.042l.016-.565-.22.126c-.025.017-.05.026-.084.042l-.067.026c-.009 0-.017 0-.034.008h-.025c-.017 0-.034.009-.06.009-.017 0-.033 0-.059.008h-.16899999999999998c-.025 0-.05-.008-.067-.008-.009 0-.017-.009-.026-.009s-.016 0-.025-.008c-.017 0-.034-.009-.05-.009q-.066-.025-.119-.05l-2.634-1.534h-.008a.2.2 0 0 1-.042-.034l-.017.489c0 .084-.06.169-.178.228l-1.849 1.028c.026.033.051.059.102.084l2.634 1.534c.05.025.11.05.169.067.008 0 .017 0 .025.009.06.016.127.016.194.016h.009a.8.8 0 0 0 .202-.025h.009a.7.7 0 0 0 .185-.067l2.128-1.18c.042-.025.068-.051.093-.076q-.01-.013-.008-.025c0-.009-.026-.034-.026-.042M74.52 152.806v-.043000000000000003l.017-.564-.22.118a.3.3 0 0 1-.084.034.4.4 0 0 0-.067.025c-.009 0-.017.008-.034.008h-.008c-.009 0-.017 0-.017.009-.017 0-.034.008-.06.008-.016 0-.033 0-.058.009h-.16999999999999998c-.025 0-.05-.009-.067-.009-.008 0-.017 0-.025-.008-.009 0-.017 0-.026-.009-.016-.008-.033-.008-.05-.008a2 2 0 0 1-.118-.051l-2.643-1.533c-.017-.009-.034-.026-.05-.034l-.017.497c0 .084-.06.169-.178.228l-1.84 1.028c.025.033.05.059.101.092l2.634 1.534a1 1 0 0 0 .194.076.7.7 0 0 0 .195.017 1 1 0 0 0 .202-.025h.009a.7.7 0 0 0 .185-.068l2.128-1.18a.4.4 0 0 0 .093-.076c-.009-.008-.009-.016-.017-.025 0-.034 0-.042-.009-.05M75.376 149.701q-.04-.025-.068-.05c-.009-.017-.025-.025-.034-.034l-.008-.008v-.009c-.009-.008-.009-.008-.009-.017-.008-.008-.008-.025-.017-.033 0-.009-.008-.026-.008-.034v-.042l.017-.565-.22.127a.3.3 0 0 1-.076.033l-.067.026c-.009 0-.025.008-.034.008h-.025c-.017 0-.034.008-.06.008-.016 0-.033.009-.05.009h-.178c-.025 0-.05-.009-.084-.009 0 0-.008 0-.017-.008-.008 0-.017 0-.025-.008-.017-.009-.034-.009-.05-.009q-.066-.026-.119-.05l-1.385-.809-.016.488q0 .127-.178.228l-1.849 1.028q.039.053.102.093l2.634 1.533a1 1 0 0 0 .169.068c.008 0 .017.008.025.008.06.017.127.017.194.017h.009a.8.8 0 0 0 .202-.025h.009a1 1 0 0 0 .186-.068l2.127-1.179c.025-.017.034-.034.06-.051zM71.598 147.492a.4.4 0 0 1-.068-.05c-.008-.017-.025-.025-.034-.034 0 0 0-.008-.008-.008 0-.009-.009-.009-.009-.017-.008-.009-.008-.017-.017-.034 0-.008-.008-.025-.008-.034v-.033l.017-.565-.22.127a.3.3 0 0 1-.084.033q-.027.013-.068.026c-.008 0-.025.008-.033.008h-.009c-.008 0-.008 0-.017.008-.017 0-.034.009-.059.009-.017 0-.034 0-.059.008h-.16899999999999998c-.025 0-.05-.008-.076-.008 0 0-.008 0-.017-.009-.008 0-.016-.008-.025-.008-.017 0-.034-.008-.05-.008q-.066-.025-.119-.051l-1.384-.809-.017.497c0 .084-.06.16-.17.228l-1.848 1.028c.025.034.05.059.101.084l2.634 1.534q.078.04.17.067c.008 0 .016.009.025.009.059.008.126.017.194.017h.008a.8.8 0 0 0 .203-.026h.008c.068-.017.127-.042.186-.067l2.128-1.18q.036-.025.059-.051zM67.828 145.302q-.04-.025-.068-.05l-.033-.034-.009-.008c0-.009-.008-.009-.008-.017-.009-.009-.009-.026-.017-.034 0-.008-.009-.025-.009-.034v-.042l.026-.573-.237.127a.3.3 0 0 1-.084.033l-.068.026c-.008 0-.025.008-.033.008s-.017 0-.017.008c-.017 0-.034.009-.06.009-.016 0-.033 0-.05.008h-.16899999999999998c-.025 0-.05-.008-.084-.008 0 0-.009 0-.017-.009-.009 0-.017-.008-.026-.008-.016 0-.033-.008-.05-.008a2 2 0 0 1-.118-.051l-1.385-.809-.017.489q-.002.126-.169.227l-1.849 1.028a.3.3 0 0 0 .11.093l2.634 1.534a1 1 0 0 0 .194.076.7.7 0 0 0 .195.017h.008a.8.8 0 0 0 .203-.026h.008a.7.7 0 0 0 .186-.067l2.127-1.18a.4.4 0 0 0 .06-.051zM64.051 143.104a.5.5 0 0 1-.067-.051c-.017-.008-.026-.025-.034-.034 0 0 0-.008-.009-.008 0-.008-.008-.008-.008-.017-.008-.008-.008-.017-.017-.034 0-.008-.008-.016-.008-.033v-.042l.017-.565-.22.118c-.025.017-.05.025-.076.034-.025.008-.042.016-.067.025-.009 0-.026.008-.034.008h-.009c-.008 0-.008 0-.017.009-.016 0-.033.008-.059.008-.017 0-.033 0-.059.009h-.177c-.025 0-.05-.009-.084-.009 0 0-.009 0-.017-.008-.009 0-.017 0-.026-.009a.1.1 0 0 1-.05-.017 1 1 0 0 1-.119-.05l-1.384-.809-.017.497c0 .084-.06.16-.169.219l-1.849 1.028c.026.034.05.059.102.085l2.634 1.533a1 1 0 0 0 .194.076.7.7 0 0 0 .194.017h.008a.8.8 0 0 0 .203-.025h.009c.067-.017.126-.042.185-.068l2.128-1.179a.4.4 0 0 0 .059-.051zM60.259 140.903q-.04-.025-.068-.05l-.033-.034s0-.008-.009-.008v-.009c0-.008-.008-.008-.008-.017-.009-.008-.009-.025-.017-.033 0-.009-.009-.017-.009-.034v-.034l.017-.564-.22.126a.3.3 0 0 1-.084.034c-.025.008-.042.016-.067.025-.009 0-.026.008-.034.008h-.008c-.009 0-.009 0-.017.009-.017 0-.034.008-.06.008-.016 0-.033.009-.05.009h-.186c-.025 0-.05-.009-.084-.009 0 0-.009 0-.017-.008-.008 0-.017 0-.025-.009-.017 0-.034-.008-.051-.008a2 2 0 0 1-.118-.051l-1.385-.809-.017.489q-.002.126-.169.228l-1.849 1.028c.026.033.06.067.102.092l2.634 1.534c.05.025.11.051.169.068.008 0 .017.008.025.008a.7.7 0 0 0 .194.017h.009q.099 0 .21-.025c.068-.017.127-.043.187-.068l2.127-1.18a.3.3 0 0 0 .06-.05zM56.492 138.712c-.025-.017-.05-.034-.067-.051l-.034-.033s0-.009-.009-.009c0-.008-.008-.008-.008-.017-.009-.008-.009-.017-.017-.033 0-.009-.008-.017-.008-.034v-.042l.016-.556-.22.117a.3.3 0 0 1-.075.034c-.025.009-.042.017-.068.025-.008 0-.025.009-.033.009h-.009c-.008 0-.008 0-.017.008-.017 0-.033.009-.059.009-.017 0-.034.008-.05.008h-.178c-.025 0-.05-.008-.067-.008-.009 0-.017-.009-.034-.009-.009 0-.017-.008-.025-.008-.017 0-.034-.009-.051-.009a1 1 0 0 1-.118-.05l-1.385-.809-.017.489q-.002.126-.169.227l-1.849 1.028c.026.034.06.068.102.093l2.634 1.534c.05.025.101.05.169.059.008 0 .017.008.025.008a.7.7 0 0 0 .194.017h.009a.8.8 0 0 0 .202-.025h.009a.7.7 0 0 0 .186-.068l2.127-1.179c.025-.017.034-.034.06-.051zM52.711 136.512c-.025-.017-.05-.034-.067-.051l-.034-.033-.008-.009c0-.008-.009-.008-.009-.017-.008-.008-.008-.025-.017-.033 0-.009-.008-.017-.008-.034v-.034l.017-.564-.22.126c-.025.017-.05.025-.076.034-.025.008-.042.017-.067.025-.009 0-.026.009-.034.009h-.009c-.008 0-.008 0-.016.008-.017 0-.034.008-.06.008-.016 0-.033.009-.059.009h-.126c-.017 0-.042 0-.06-.009-.025 0-.05-.008-.067-.008q-.01.002-.034-.008h-.017c-.016-.009-.033-.009-.05-.009l-.118-.05-1.385-.81-.017.498c0 .084-.059.16-.169.227l-1.849 1.028c.026.034.06.059.102.093l2.634 1.534a1 1 0 0 0 .194.076.7.7 0 0 0 .194.017h.009a.8.8 0 0 0 .202-.026h.009c.067-.017.126-.042.185-.067l2.128-1.18c.025-.017.034-.034.06-.051zM79.157 151.888q-.04-.026-.068-.05c-.017-.009-.025-.026-.034-.034l-.008-.008c0-.009-.008-.009-.008-.017-.009-.009-.009-.026-.017-.034 0-.008-.009-.017-.009-.034v-.042l.017-.565-.22.127c-.025.017-.05.025-.084.042-.025.008-.042.017-.067.025-.009 0-.026.009-.034.009H78.6c-.017 0-.034.008-.06.008-.017 0-.033 0-.05.009h-.178c-.025 0-.05-.009-.084-.009 0 0-.008 0-.017-.008-.008 0-.017 0-.025-.009-.017-.008-.034-.008-.05-.017a1 1 0 0 1-.119-.05l-1.385-.809-.017.489c0 .084-.059.16-.168.227l-1.85 1.028c.026.034.051.059.102.085l2.634 1.533c.05.026.11.051.169.068.008 0 .017.008.025.008.06.017.127.017.195.017h.008a.8.8 0 0 0 .203-.025h.008a.7.7 0 0 0 .186-.068l2.127-1.179c.026-.009.034-.034.06-.051zc.008.009 0 .009 0 0M78.294 154.998v-.042l.017-.565-.22.118a.3.3 0 0 1-.084.034c-.026.008-.042.016-.068.025-.008 0-.025.008-.033.008h-.026000000000000002c-.017 0-.034.009-.059.009-.017 0-.034.008-.059.008h-.16899999999999998c-.025 0-.05-.008-.067-.008-.009 0-.017-.009-.034-.009-.009 0-.017-.008-.026-.008-.016-.009-.033-.009-.05-.009a1 1 0 0 1-.118-.05l-2.635-1.534h-.008a.2.2 0 0 1-.042-.034l-.017.489q0 .126-.177.228l-1.84 1.028c.025.034.05.067.1.093l2.635 1.533a1 1 0 0 0 .194.076q.09.025.194.025h.008a.8.8 0 0 0 .203-.025h.008a.7.7 0 0 0 .186-.067l2.128-1.18c.042-.025.067-.051.093-.076 0-.008-.009-.017-.009-.025-.025-.017-.025-.025-.025-.042M48.075 137.438v-.034l.017-.564-.22.117c-.025.017-.05.026-.084.043-.025.008-.042.016-.067.025-.009 0-.026.008-.034.008h-.026000000000000002c-.017 0-.033.009-.059.009-.017 0-.033.008-.05.008h-.178c-.025 0-.05-.008-.067-.008-.009 0-.017-.009-.034-.009-.008 0-.017 0-.025-.008-.017 0-.034-.009-.05-.009a1 1 0 0 1-.12-.05l-2.633-1.534h-.009a.2.2 0 0 1-.042-.034l-.017.489c0 .085-.059.169-.177.228l-1.84 1.028c.025.034.05.067.1.093l2.635 1.533c.05.026.11.051.169.068.008 0 .017 0 .025.008q.092.015.194.017h.009a.8.8 0 0 0 .202-.025h.009a.7.7 0 0 0 .185-.068l2.128-1.179c.042-.026.068-.051.093-.076-.009-.009-.009-.017-.009-.026-.017-.033-.025-.042-.025-.05M51.082 128.154a.4.4 0 0 1-.068-.05l-.033-.034-.009-.008c0-.009-.008-.009-.008-.017-.009-.009-.009-.025-.017-.034 0-.008-.009-.017-.009-.034v-.042l.026-.606-.254.143a.3.3 0 0 1-.084.034c-.025.008-.042.016-.068.025-.008 0-.025.008-.033.008h-.026000000000000002c-.017 0-.033.009-.059.009-.017 0-.033.008-.059.008h-.16899999999999998c-.025 0-.05-.008-.067-.008-.009 0-.017-.009-.026-.009s-.017-.008-.025-.008c-.017 0-.034-.009-.05-.009a1 1 0 0 1-.119-.05l-1.367-.792-.017.488c0 .085-.06.161-.17.228l-1.84 1.02a.4.4 0 0 0 .118.101l2.635 1.534c.05.025.11.05.168.067.009 0 .017.008.026.008q.09.026.194.026h.008a.8.8 0 0 0 .203-.026h.008a.7.7 0 0 0 .186-.067l2.128-1.18q.035-.026.059-.05zM54.87 130.35a.5.5 0 0 1-.101-.085l-.008-.008c0-.008-.009-.008-.009-.017-.008-.008-.008-.017-.017-.033-.008-.009-.008-.017-.008-.034v-.042l.017-.565-.22.118a.3.3 0 0 1-.084.034c-.026.008-.042.017-.068.025-.008 0-.017.008-.034.008h-.008c-.008 0-.017 0-.017.009-.017 0-.034.008-.059.008-.017 0-.034 0-.05.009h-.11c-.017 0-.043 0-.06-.009-.025 0-.05-.008-.067-.008-.008 0-.017-.009-.025-.009q-.013.002-.026-.008c-.017 0-.033-.008-.05-.008q-.066-.025-.119-.051l-1.384-.809-.017.489c0 .076-.06.16-.169.227l-1.849 1.028c.025.034.05.059.101.085l2.635 1.533c.05.034.11.051.168.068.009 0 .017.008.026.008q.09.015.194.017h.008a.8.8 0 0 0 .203-.025h.009c.067-.017.126-.042.185-.068l2.128-1.179c.025-.017.034-.034.059-.051zM58.644 132.548a.4.4 0 0 1-.067-.05c-.017-.009-.026-.025-.034-.034l-.008-.008c0-.009-.009-.009-.009-.017-.008-.009-.008-.025-.017-.034 0-.008-.008-.017-.008-.034v-.033l.017-.565-.22.118c-.025.017-.05.025-.084.042-.026.009-.042.017-.068.025-.008 0-.025.009-.034.009h-.025c-.017 0-.034.008-.059.008-.017 0-.034.009-.05.009h-.119c-.017 0-.042 0-.059-.009-.025 0-.05-.008-.067-.008-.009 0-.017-.009-.043-.009q-.002.002-.017-.008c-.016 0-.033-.008-.05-.008a2 2 0 0 1-.118-.051l-1.385-.809-.017.489c0 .084-.059.16-.169.227l-1.84 1.028c.025.034.059.059.101.093l2.634 1.534c.05.025.11.05.169.067.009 0 .017.009.025.009a.7.7 0 0 0 .195.017h.008a.8.8 0 0 0 .203-.026h.008a.7.7 0 0 0 .186-.067l2.127-1.18c.026-.017.034-.034.06-.05zM62.414 134.747q-.04-.025-.068-.051c-.016-.008-.025-.025-.033-.033l-.009-.009c0-.008-.008-.008-.008-.017-.009-.008-.009-.025-.017-.033 0-.009-.009-.017-.009-.034v-.042l.017-.565-.22.118c-.025.017-.05.026-.084.042l-.067.026c-.009 0-.017 0-.034.008h-.008q-.015-.002-.017.008c-.017 0-.034.009-.06.009-.016 0-.033 0-.05.008h-.178c-.025 0-.05-.008-.075-.008l-.017-.009q-.013.002-.026-.008c-.016 0-.033-.008-.05-.008-.042-.017-.085-.034-.118-.051l-1.385-.809-.017.489q-.002.126-.169.227l-1.849 1.029a.3.3 0 0 0 .102.084l2.634 1.534c.05.025.11.05.169.067.008 0 .017 0 .025.008.059.017.127.026.194.026h.008a.8.8 0 0 0 .203-.026h.009c.067-.016.126-.042.185-.067l2.128-1.18c.025-.017.042-.034.059-.05zM66.203 136.936a.5.5 0 0 1-.068-.051c-.008-.017-.025-.025-.033-.034l-.009-.008c0-.008-.008-.008-.008-.017-.009-.008-.009-.017-.017-.034-.009-.008-.009-.016-.009-.033v-.042l.017-.565-.22.118a.3.3 0 0 1-.084.034c-.025.008-.042.017-.067.025-.009 0-.025.008-.034.008h-.008c-.009 0-.017 0-.017.009-.017 0-.034.008-.06.008-.016 0-.033.009-.05.009h-.118c-.017 0-.042 0-.06-.009-.025 0-.05-.008-.067-.008-.008 0-.017-.009-.025-.009s-.017 0-.026-.008c-.016 0-.033-.008-.05-.008a2 2 0 0 1-.118-.051l-1.385-.809-.017.489c0 .084-.059.16-.169.227l-1.849 1.028c.026.034.06.068.102.093l2.634 1.534c.05.025.11.05.169.067.008 0 .016 0 .025.009.06.008.127.017.194.017h.009a.8.8 0 0 0 .202-.026h.009a.7.7 0 0 0 .185-.067l2.128-1.18c.025-.017.034-.034.06-.051zM69.969 139.137q-.04-.025-.068-.051l-.034-.033-.008-.009c0-.008-.009-.008-.009-.017-.008-.008-.008-.016-.016-.033 0-.009-.009-.017-.009-.034v-.034l.017-.564-.22.118c-.025.017-.05.025-.084.042-.025.008-.042.017-.067.025-.009 0-.026.009-.034.009h-.009c-.008 0-.008 0-.017.008-.017 0-.033.008-.059.008-.017 0-.034.009-.05.009h-.16999999999999998c-.025 0-.05-.009-.067-.009l-.034-.008c-.008 0-.016-.008-.025-.008-.017-.009-.034-.009-.05-.009q-.066-.026-.119-.05l-1.384-.809-.017.488q0 .127-.178.228l-1.84 1.028c.025.034.06.059.101.084l2.634 1.534c.051.025.11.051.17.067.008 0 .016.009.025.009q.09.025.194.025h.008a.8.8 0 0 0 .203-.025h.008c.068-.017.127-.042.186-.068l2.128-1.179c.025-.017.033-.034.059-.051zM73.75 141.337a.4.4 0 0 1-.068-.05c-.017-.009-.025-.025-.034-.034l-.008-.008c-.008-.009-.008-.009-.008-.017-.009-.009-.009-.025-.017-.034 0-.008-.009-.017-.009-.034v-.042l.017-.573-.228.127c-.025.017-.05.025-.084.042-.026.008-.042.017-.068.025-.008 0-.017.009-.033.009H73.2c-.008 0-.017 0-.017.008-.017 0-.034.008-.059.008-.017 0-.034 0-.059.009h-.169c-.025 0-.05-.009-.076-.009 0 0-.008 0-.017-.008q-.012.002-.025-.008c-.017-.009-.034-.009-.05-.017a2 2 0 0 1-.119-.051l-1.385-.809-.016.489c0 .084-.06.16-.17.227l-1.84 1.029c.026.033.06.067.11.092l2.634 1.534c.05.034.11.051.169.067.008 0 .017.009.025.009.06.017.127.017.195.017h.008a.8.8 0 0 0 .203-.026h.008c.067-.016.127-.042.186-.067l2.127-1.18c.026-.017.042-.034.06-.05zM77.52 143.533q-.04-.025-.067-.051c-.017-.008-.026-.025-.034-.034l-.009-.008c0-.008-.008-.008-.008-.017-.009-.008-.009-.017-.017-.034 0-.008-.009-.016-.009-.033v-.042l.017-.565-.22.118c-.025.017-.05.025-.084.042-.025.009-.042.017-.067.025-.009 0-.025.009-.034.009h-.008c-.009 0-.009 0-.017.008-.017 0-.034.009-.06.009-.016 0-.033.008-.05.008h-.178c-.025 0-.05-.008-.084-.008 0 0-.008 0-.017-.009-.008 0-.016 0-.025-.008-.017-.009-.034-.009-.05-.017a2 2 0 0 1-.119-.051l-1.384-.809-.017.498c0 .075-.06.16-.17.219l-1.848 1.028c.025.034.05.059.101.084l2.634 1.534a1 1 0 0 0 .195.076c.059.017.126.017.194.017h.008a.8.8 0 0 0 .203-.026h.008c.068-.017.127-.042.186-.067l2.128-1.18c.025-.017.033-.034.059-.051zc.008.008.008 0 0 0M81.312 145.724a.5.5 0 0 1-.068-.051c-.008-.017-.025-.025-.034-.034 0 0 0-.008-.008-.008 0-.009-.008-.009-.008-.017-.009-.008-.009-.025-.017-.034 0-.008-.009-.017-.009-.033v-.034l.017-.573-.22.126c-.025.017-.05.025-.084.042l-.067.026c-.009 0-.017.008-.034.008h-.026000000000000002c-.016 0-.033.008-.059.008a.1.1 0 0 0-.05.009h-.178c-.025 0-.05-.009-.076-.009q-.002.002-.016-.008c-.009 0-.017 0-.026-.008-.017 0-.034-.009-.05-.009q-.066-.025-.119-.05l-1.384-.809-.017.488c0 .085-.06.161-.169.228l-1.84 1.028q.038.053.1.093l2.635 1.534a.8.8 0 0 0 .194.075q.092.026.194.026h.009a.8.8 0 0 0 .202-.026h.009c.067-.016.127-.042.186-.067l2.127-1.18c.025-.017.034-.034.06-.05zM85.085 147.923a.5.5 0 0 1-.101-.085s0-.008-.009-.008v-.008c0-.009-.008-.009-.008-.017-.008-.009-.008-.017-.017-.034 0-.008-.008-.025-.008-.034v-.033l.017-.565-.22.118c-.025.017-.05.025-.084.042-.026.009-.043.017-.068.025-.008 0-.025.009-.034.009h-.008c-.009 0-.017 0-.017.008-.017 0-.034.009-.06.009q-.024-.002-.05.008h-.16899999999999998c-.025 0-.05-.008-.067-.008-.009 0-.017 0-.026-.009-.008 0-.016 0-.025-.008-.017 0-.034-.009-.05-.009a1 1 0 0 1-.119-.05l-1.384-.809-.017.489c0 .075-.06.16-.17.227l-1.848 1.028c.025.034.05.059.101.085l2.634 1.533q.078.04.17.068c.008 0 .016.008.025.008a.7.7 0 0 0 .194.017h.008a.8.8 0 0 0 .203-.025h.008c.068-.017.127-.042.186-.068l2.128-1.18c.025-.016.033-.033.059-.05zM92.617 152.321q-.04-.026-.068-.05c-.016-.009-.025-.026-.033-.034l-.009-.009c0-.008-.008-.008-.008-.016-.009-.009-.009-.026-.017-.034 0-.009-.008-.017-.008-.034v-.033l.016-.565-.22.118c-.024.017-.05.025-.084.042-.025.008-.042.017-.067.025-.008 0-.017.009-.034.009h-.008c-.009 0-.017 0-.017.008-.017 0-.034.009-.06.009-.016 0-.033 0-.05.008h-.16899999999999998c-.025 0-.05-.008-.076-.008 0 0-.008 0-.017-.009-.008 0-.017 0-.025-.008-.017 0-.034-.009-.05-.017a2 2 0 0 1-.119-.051l-1.384-.809-.017.489q0 .126-.178.228l-1.849 1.028c.026.033.051.059.102.084l2.634 1.534c.05.033.11.05.169.067.008 0 .017.009.025.009q.092.014.194.016h.009a.8.8 0 0 0 .202-.025h.009a.7.7 0 0 0 .186-.067l2.127-1.18c.025-.017.034-.034.06-.051zq.012 0 0 0M88.855 150.118q-.04-.025-.068-.051l-.034-.033-.008-.009c0-.008-.008-.008-.008-.016-.009-.009-.009-.017-.017-.034 0-.009-.009-.017-.009-.034v-.034l.017-.564-.22.118a.2.2 0 0 1-.084.033l-.068.026c-.008 0-.025.008-.033.008h-.025c-.017 0-.034.009-.06.009q-.024-.002-.05.008h-.16999999999999998c-.025 0-.05-.008-.084-.008 0 0-.008 0-.016-.009-.009 0-.017 0-.026-.008-.017 0-.034-.009-.05-.009-.043-.008-.085-.033-.119-.05l-1.384-.801-.017.489c0 .084-.06.16-.169.227l-1.84 1.029q.038.048.1.084l2.635 1.534c.05.033.11.05.169.067q.012-.002.025.008.092.015.194.017a.8.8 0 0 0 .203-.025h.008c.068-.017.127-.042.186-.067l2.128-1.18c.025-.017.042-.034.059-.051zM84.377 151.213q-.04-.026-.067-.05l-.034-.034-.009-.009v-.008c-.008-.008-.008-.008-.008-.017-.009-.008-.009-.017-.017-.034 0-.008-.008-.016-.008-.033v-.042l.016-.565-.22.126a.2.2 0 0 1-.084.034c-.025.009-.042.017-.067.025-.009 0-.025.009-.034.009h-.025c-.017 0-.034.008-.05.008-.018 0-.035.009-.051.009h-.11c-.017 0-.042 0-.06-.009-.025 0-.05-.008-.084-.008 0 0-.008 0-.017-.009-.008 0-.017 0-.025-.008-.017 0-.034-.008-.042-.008a2 2 0 0 1-.118-.051l-2.111-1.23-.017.497c0 .084-.06.168-.177.227l-1.84 1.028c.025.034.05.059.1.085l2.635 1.533c.05.026.11.051.169.068.008 0 .016 0 .025.008q.09.026.194.026h.008a.8.8 0 0 0 .203-.026h.008a.7.7 0 0 0 .186-.067l2.128-1.18c.025-.017.042-.034.067-.05zM82.98 154.122a.4.4 0 0 1-.067-.05c-.017-.009-.025-.025-.034-.034 0 0 0-.008-.008-.008v-.009c0-.008-.008-.008-.008-.017-.009-.008-.009-.016-.017-.033 0-.009-.009-.017-.009-.034v-.042l.026-.624-.279.152a.3.3 0 0 1-.084.034c-.017.008-.043.016-.068.025-.008 0-.025.008-.034.008h-.025c-.017.009-.034.009-.06.009q-.024-.002-.05.008h-.178c-.024 0-.05-.008-.084-.008 0 0-.008 0-.016-.009-.009 0-.017 0-.026-.008-.017-.009-.034-.009-.05-.017a2 2 0 0 1-.119-.051l-1.384-.809-.017.498c0 .084-.06.16-.169.227l-1.849 1.028c.025.034.06.068.101.093l2.635 1.534a1 1 0 0 0 .194.076c.059.016.126.016.194.016h.008a.8.8 0 0 0 .203-.025h.008c.068-.017.127-.042.186-.067l2.128-1.18c.025-.017.033-.034.059-.051zM84.167 155.305q0 .126-.177.227l-1.85 1.028a.4.4 0 0 0 .102.093l3.276 1.904c.05.026.11.051.169.068.008 0 .017 0 .025.008a.7.7 0 0 0 .194.017h.008a.8.8 0 0 0 .203-.025h.009q.099-.027.185-.068l2.128-1.179c.025-.017.034-.034.059-.051l-4.306-2.503zM82.229 157.37a.5.5 0 0 1-.068-.051c-.017-.008-.025-.025-.034-.033l-.008-.009v-.008c0-.009-.009-.009-.009-.017-.008-.008-.008-.017-.017-.034 0-.008-.008-.017-.008-.033v-.043000000000000003l.017-.564-.22.118c-.025.017-.05.025-.084.042-.025.008-.042.017-.068.025-.008 0-.017.009-.033.009h-.009c-.008 0-.017 0-.017.008-.017 0-.034.008-.059.008-.017 0-.034.009-.05.009h-.119c-.017 0-.042 0-.059-.009-.025 0-.05-.008-.067-.008-.009 0-.026-.008-.026-.008-.008 0-.017 0-.025-.009-.017 0-.034-.008-.05-.008q-.066-.025-.119-.051l-2.634-1.534h-.008c-.017-.008-.034-.025-.051-.033l-.017.497q0 .126-.177.227l-1.815 1.012c.008.008 0 .017.008.033.025.034.06.068.118.102l5.767 3.354a1 1 0 0 0 .194.075.7.7 0 0 0 .194.017h.008a.8.8 0 0 0 .203-.025h.008a.7.7 0 0 0 .186-.067l2.128-1.18c.025-.017.034-.034.059-.042zM77.631 158.948q0 .126-.177.227l-1.84 1.028c.025.034.058.059.1.093l2.635 1.534c.05.033.11.05.169.067.008 0 .016 0 .025.009.059.016.127.025.194.025h.009a1 1 0 0 0 .202-.025h.009a.7.7 0 0 0 .185-.068l2.128-1.18c.034-.025.059-.05.084-.075l-3.698-2.149zM78.741 162.641h-.127c-.025 0-.05-.009-.067-.009-.008 0-.017-.008-.042-.008 0 0-.009 0-.017-.009-.017 0-.034-.008-.05-.008a2 2 0 0 1-.119-.051l-2.642-1.533h-.009c-.025-.017-.042-.026-.06-.043l-.016.515c0 .084-.06.16-.169.227l-1.849 1.028c.026.034.05.059.102.084l2.043 1.189c.05.025.101.05.169.059.008 0 .025.008.025.008a.7.7 0 0 0 .194.017h.008a.8.8 0 0 0 .203-.025h.009a.7.7 0 0 0 .185-.068l2.128-1.18a.28.28 0 0 0 .152-.185c-.017-.008-.034-.008-.05-.008M75.525 160.828v-.042l.017-.564-.22.126a.3.3 0 0 1-.084.034c-.025.008-.042.017-.068.025-.008 0-.025.009-.033.009h-.009c-.008 0-.008 0-.017.008-.017 0-.034.008-.059.008-.017 0-.034 0-.05.009h-.17c-.025 0-.05-.009-.067-.009-.008 0-.017-.008-.042-.008h-.017c-.017 0-.034-.008-.05-.008q-.066-.025-.119-.051l-2.634-1.534h-.008c-.026-.017-.043-.034-.06-.042l-.016.506c0 .084-.06.16-.17.227l-1.848 1.028c.025.034.05.068.101.093l2.634 1.534c.05.025.11.05.17.067.007 0 .016.009.024.009q.091.025.195.025h.008a.8.8 0 0 0 .203-.025h.008a.7.7 0 0 0 .186-.068l2.127-1.18a.5.5 0 0 0 .102-.084c-.009-.008-.009-.017-.017-.034-.017-.033-.017-.042-.017-.059M71.755 158.636v-.043000000000000003l.017-.564-.22.126a.3.3 0 0 1-.075.034c-.026.008-.042.017-.068.025-.008 0-.025.009-.034.009h-.025c-.017 0-.034.008-.059.008-.017 0-.034 0-.05.009h-.119a.2.2 0 0 1-.059-.009c-.025 0-.05-.008-.067-.008-.009 0-.017-.009-.034-.009-.009 0-.017 0-.026-.008-.016-.009-.033-.009-.05-.009a1 1 0 0 1-.118-.05l-2.635-1.534s-.008 0-.008-.008c-.025-.017-.042-.026-.06-.043l-.016.506q-.002.126-.169.228l-1.849 1.028c.026.033.05.059.102.084l2.634 1.534a1 1 0 0 0 .194.076c.059.016.127.025.194.025h.008a1 1 0 0 0 .203-.025h.009a.7.7 0 0 0 .185-.068l2.128-1.18a.3.3 0 0 0 .101-.084c0-.008-.008-.017-.008-.025-.026 0-.026-.017-.026-.025M67.994 156.439v-.042l.017-.565-.22.127c-.025.017-.05.025-.084.042-.026.008-.043.017-.068.025-.008 0-.025.009-.034.009h-.025c-.017 0-.034.008-.06.008-.016 0-.033 0-.05.008h-.16899999999999998c-.025 0-.05-.008-.067-.008-.009 0-.017-.008-.034-.008-.008 0-.017 0-.025-.009q-.026-.01-.05-.008-.066-.025-.12-.051l-2.633-1.534h-.009q-.036-.024-.059-.05l-.017.514q-.002.126-.169.227l-1.848 1.029q.038.048.1.084l2.635 1.534c.05.025.11.05.169.067.008 0 .017 0 .025.008.06.017.127.017.194.017h.009a.8.8 0 0 0 .202-.025h.009c.067-.017.127-.042.186-.067l2.127-1.18a.5.5 0 0 0 .102-.085c-.009-.008-.009-.016-.009-.025-.025-.017-.025-.025-.025-.042M64.205 154.248v-.043000000000000003l.017-.564-.228.126a.2.2 0 0 1-.085.034c-.025.008-.042.017-.067.025-.009 0-.026.009-.034.009h-.026000000000000002c-.016 0-.033.008-.059.008-.017 0-.033 0-.05.009h-.11000000000000001c-.017 0-.042 0-.06-.009-.024 0-.05-.008-.075-.008 0 0-.008 0-.025-.009h-.017c-.017-.008-.034-.008-.051-.008q-.065-.025-.118-.051l-2.643-1.533c-.025-.017-.042-.026-.059-.043l-.017.506q-.002.126-.169.228l-1.849 1.028a.26.26 0 0 0 .102.084l2.634 1.534c.05.025.11.05.169.067.008 0 .017.009.025.009.06.016.127.016.194.025h.009a1 1 0 0 0 .202-.025h.009a.7.7 0 0 0 .186-.068l2.127-1.18a.3.3 0 0 0 .101-.084q-.01-.012-.008-.025c-.017-.026-.017-.034-.025-.042M60.421 152.047v-.034l.017-.564-.22.118a.2.2 0 0 1-.084.033l-.067.026c-.009 0-.026.008-.034.008h-.008c-.009 0-.009 0-.017.009-.017 0-.034.008-.06.008-.016 0-.033 0-.05.008h-.10999999999999999c-.017 0-.042 0-.059-.008-.025 0-.05-.008-.068-.008-.008 0-.016-.009-.025-.009-.008 0-.017-.008-.025-.008-.017 0-.034-.009-.05-.009-.043-.008-.085-.033-.119-.05l-2.643-1.534q-.04-.025-.067-.051l-.034-.033s0-.009-.008-.009c0-.008-.009-.008-.009-.017-.008-.008-.008-.025-.017-.033 0-.009-.008-.017-.008-.034v-.042l.025-.573-.236.126a.2.2 0 0 1-.085.034c-.025.008-.042.017-.067.025-.009 0-.017.009-.034.009h-.025c-.017 0-.034.008-.06.008-.016 0-.033.009-.05.009h-.169c-.025 0-.05-.009-.067-.009-.009 0-.017-.008-.026-.008s-.017-.009-.025-.009c-.017 0-.034-.008-.05-.008q-.066-.025-.119-.051l-2.634-1.534h-.008a.4.4 0 0 1-.068-.05c-.017-.008-.025-.025-.034-.034q.002-.002-.008-.017c0-.008-.009-.008-.009-.016-.008-.009-.008-.017-.017-.034 0-.009-.008-.017-.008-.034v-.034l.017-.564-.22.118a.3.3 0 0 1-.076.033l-.067.026c-.009 0-.026.008-.034.008h-.008c-.009 0-.009 0-.017.009-.017 0-.034.008-.06.008-.016 0-.033.008-.05.008h-.178c-.025 0-.05-.008-.067-.008-.008 0-.017-.008-.034-.008-.008 0-.017 0-.025-.009-.017 0-.034-.008-.05-.008q-.066-.025-.119-.051l-2.642-1.534h-.009a.4.4 0 0 1-.067-.05c-.017-.009-.026-.025-.034-.034 0 0 0-.008-.009-.008 0-.009-.008-.009-.008-.017-.008-.009-.008-.025-.017-.034 0-.008-.008-.017-.008-.034v-.033l.017-.565-.22.127c-.025.016-.05.025-.084.042-.026.008-.043.017-.068.025-.008 0-.025.008-.034.008h-.008c-.009 0-.009 0-.017.009-.017 0-.034.008-.06.008-.016 0-.033 0-.05.009h-.16899999999999998c-.025 0-.05-.009-.067-.009-.009 0-.017-.008-.026-.008s-.016 0-.025-.009c-.017-.008-.034-.008-.05-.016a2 2 0 0 1-.119-.051l-2.634-1.534h-.008q-.04-.026-.068-.05l-.034-.034s0-.009-.008-.009c0-.008-.009-.008-.009-.016-.008-.009-.008-.026-.016-.034 0-.008-.009-.017-.009-.034v-.042l.017-.565-.22.118a.2.2 0 0 1-.084.034c-.025.009-.042.017-.067.025-.009 0-.026.009-.034.009h-.026000000000000002c-.016 0-.033.008-.059.008-.017 0-.033.009-.059.009h-.16899999999999998c-.025 0-.05-.009-.067-.009-.009 0-.034-.008-.034-.008-.008 0-.017-.009-.025-.009-.017 0-.034-.008-.05-.008a2 2 0 0 1-.12-.051l-2.642-1.533c-.025-.017-.042-.034-.059-.042l-.017.505q-.002.126-.169.228l-1.848 1.028c.025.034.059.059.1.093l17.748 10.323a1 1 0 0 0 .194.076.7.7 0 0 0 .194.017h.008a.8.8 0 0 0 .203-.026h.008a.7.7 0 0 0 .186-.067l2.128-1.18a.5.5 0 0 0 .101-.084c-.008-.009-.008-.017-.017-.025-.025-.043-.034-.051-.034-.068M41.542 141.063v-.033l.017-.565-.22.127a.3.3 0 0 1-.084.033l-.068.026c-.008 0-.025.008-.033.008h-.026000000000000002c-.017 0-.034.008-.059.008-.017 0-.034 0-.05.009h-.178c-.025 0-.05-.009-.076-.009-.008 0-.017-.008-.034-.008-.008 0-.017 0-.025-.008-.017-.009-.034-.009-.05-.017q-.066-.025-.119-.051l-2.701-1.567-.017.497c0 .084-.06.16-.17.227l-1.848 1.028c.025.034.05.068.101.093l2.634 1.534c.05.025.11.05.178.067h.016q.092.026.195.026h.008a.8.8 0 0 0 .203-.026h.008a.7.7 0 0 0 .186-.067l2.127-1.18a.3.3 0 0 0 .102-.084c-.009-.009-.009-.017-.009-.025q.002-.027-.008-.043M36.227 138.077q-.04-.026-.067-.05l-.034-.034-.008-.009c0-.008-.009-.008-.009-.016-.008-.009-.008-.017-.017-.034 0-.008-.008-.025-.008-.034v-.033l.025-.624-.279.152a.3.3 0 0 1-.075.033l-.068.026c-.008 0-.025.008-.034.008h-.025c-.017 0-.034.008-.06.008-.016 0-.033 0-.05.009H35.4c-.017 0-.042 0-.06-.009-.025 0-.05-.008-.067-.008-.008 0-.034-.008-.034-.008-.008 0-.016 0-.025-.009-.017 0-.034-.008-.05-.008q-.066-.025-.119-.051l-.996-.581-.017.497q-.002.126-.169.227l-1.832 1.02v.017c.026.034.06.067.118.101l2.635 1.534c.05.034.11.05.168.067.009 0 .017 0 .026.009.059.008.126.017.194.017h.008a.8.8 0 0 0 .203-.026h.008a.7.7 0 0 0 .186-.067l2.128-1.18c.025-.017.042-.034.059-.051z"/><path fill="#5B5C71" d="M42.425 137.946a.4.4 0 0 1-.068-.05l-.033-.034-.009-.008c0-.009-.008-.009-.008-.017-.009-.009-.009-.017-.017-.034 0-.008-.008-.017-.008-.034v-.033l.016-.565-.22.118a.3.3 0 0 1-.084.034c-.025.008-.042.017-.067.025-.009 0-.026.008-.034.008h-.008c-.009 0-.009 0-.017.009-.017 0-.034.008-.06.008-.016 0-.033.009-.05.009h-.11c-.017 0-.042 0-.059-.009-.025 0-.05-.008-.076-.008 0 0-.008 0-.025-.009 0 0-.009 0-.017-.008-.017 0-.034-.008-.05-.008q-.066-.025-.119-.051l-2.634-1.534h-.008q-.04-.025-.068-.05l-.034-.034s0-.008-.008-.008c0-.009-.009-.009-.009-.017-.008-.009-.008-.026-.017-.034 0-.008-.008-.017-.008-.034v-.042l.025-.607-.261.144c-.026.017-.051.025-.076.033l-.068.026c-.008 0-.025.008-.034.008h-.025c-.017 0-.034.009-.06.009-.016 0-.033 0-.05.008h-.16899999999999998c-.025 0-.05-.008-.067-.008-.009 0-.017-.009-.026-.009s-.016 0-.025-.008c-.017 0-.034-.009-.05-.009q-.066-.025-.119-.05l-2.17-1.264-.016.531q0 .126-.178.227l-1.764.986c0 .034.008.067.034.101v.009c.025.033.059.067.118.101l1.562.91c.05.034.11.05.169.067.008 0 .016.009.025.009a.7.7 0 0 0 .194.017h.008a.8.8 0 0 0 .203-.026h.009c.067-.017.126-.042.185-.067l2.128-1.18c.11-.059.169-.143.177-.227l-.025.733q0 .126-.178.227l-1.815 1.011c0 .009 0 .017.009.026.025.033.059.076.11.101l4.322 2.511c.05.034.11.051.17.068a.716.716 0 0 0 .22.033h.007a.8.8 0 0 0 .203-.025h.008a.7.7 0 0 0 .186-.067l2.127-1.18c.043-.025.06-.051.085-.076zM34.021 133.038q-.04-.025-.068-.051c-.016-.008-.025-.025-.033-.033l-.009-.009v-.008c0-.009-.008-.009-.008-.017-.009-.009-.009-.025-.017-.034 0-.008-.009-.017-.009-.034v-.033l.026-.674-.338.185a.3.3 0 0 1-.084.034c-.026.008-.043.017-.068.025-.008 0-.025.008-.034.008h-.025c-.017.009-.034.009-.06.009-.016 0-.033.008-.05.008h-.16899999999999998c-.025 0-.05-.008-.067-.008-.009 0-.017-.009-.034-.009-.008 0-.017 0-.025-.008a.1.1 0 0 0-.05-.009 1 1 0 0 1-.12-.05l-.092-.051-.017.506c0 .084-.059.169-.177.228l-1.84 1.028c.025.033.058.067.11.101l1.494.868a1 1 0 0 0 .194.076c.059.016.126.016.194.016h.008a.8.8 0 0 0 .203-.025h.008a.7.7 0 0 0 .186-.067l2.128-1.18q.048-.038.084-.076zM29.897 130.674a.5.5 0 0 1-.067-.051c-.017-.008-.025-.025-.034-.034l-.008-.008c0-.008-.009-.008-.009-.017-.008-.008-.008-.017-.017-.034 0-.008-.008-.016-.008-.033v-.034l.025-.565-.228.127c-.025.017-.05.025-.084.042-.025.008-.042.017-.068.025-.008 0-.025.009-.034.009h-.008c-.008 0-.008 0-.017.008-.017 0-.034.009-.05.009-.017 0-.034.008-.051.008h-.161c-.025 0-.05-.008-.067-.008-.008 0-.017-.009-.034-.009-.008 0-.017 0-.025-.008-.017 0-.034-.009-.05-.009q-.066-.025-.12-.05l-.168-.101-.017.505c0 .084-.059.169-.177.228l-1.858 1.036c.017.009.026.026.043.034l3.005 1.753a1 1 0 0 0 .195.076c.059.017.126.017.194.025h.008a.8.8 0 0 0 .203-.025q.098-.027.185-.068l2.128-1.18c.034-.016.05-.042.076-.059zq.013 0 0 0M45.405 120.766l-2.634-1.534c-.211-.126-.566-.118-.785 0l-2.128 1.18c-.22.127-.236.32-.025.447l2.634 1.534c.211.126.566.117.785 0l2.128-1.18c.228-.118.236-.321.025-.447M49.1 122.926l-2.635-1.534c-.21-.126-.565-.118-.785 0l-2.127 1.18c-.228.127-.237.329-.026.447l2.634 1.534c.211.126.566.118.785 0l2.128-1.18c.228-.127.236-.329.025-.447M52.878 125.111l-2.635-1.534c-.21-.118-.565-.118-.785 0l-2.127 1.18c-.22.126-.237.328-.026.446l2.635 1.534c.21.126.565.126.793 0l2.128-1.18c.22-.118.228-.32.017-.446M56.686 127.336l-2.634-1.533c-.211-.127-.566-.118-.785 0l-2.128 1.179c-.22.127-.236.321-.025.447l2.634 1.534c.211.126.566.118.785 0l2.128-1.18c.228-.118.236-.32.025-.447M60.468 129.521l-2.635-1.534c-.21-.118-.565-.118-.785 0l-2.127 1.18c-.22.126-.237.328-.026.446l2.634 1.534c.211.127.566.127.794 0l2.128-1.18c.22-.118.228-.32.017-.446M64.237 131.723l-2.634-1.534c-.211-.126-.566-.118-.785 0l-2.128 1.18c-.22.127-.236.32-.025.447l2.634 1.534c.211.126.566.118.785 0l2.128-1.18c.228-.118.236-.321.025-.447M68.028 133.918l-2.634-1.534c-.211-.127-.566-.127-.785 0l-2.128 1.18c-.228.126-.236.328-.017.446l2.634 1.534c.211.118.566.118.785 0l2.128-1.18c.22-.126.228-.328.017-.446M71.788 136.118l-2.634-1.533c-.21-.118-.565-.118-.785 0l-2.127 1.179c-.22.127-.228.329-.026.447l2.634 1.534c.211.126.566.126.794 0l2.127-1.18c.228-.118.237-.32.017-.447M75.57 138.309l-2.635-1.534c-.211-.126-.566-.118-.785 0l-2.128 1.18c-.22.126-.236.32-.025.447l2.634 1.533c.211.127.566.118.785 0l2.128-1.179c.22-.127.236-.329.025-.447M79.353 140.511l-2.634-1.533c-.211-.127-.566-.127-.785 0l-2.128 1.179c-.22.127-.236.329-.017.447l2.634 1.534c.211.118.566.118.786 0l2.127-1.18c.22-.126.228-.329.017-.447M83.135 142.696l-2.635-1.534c-.21-.126-.565-.118-.785 0l-2.127 1.18c-.228.126-.237.32-.026.446l2.635 1.534c.21.127.565.118.785 0l2.127-1.18c.228-.118.237-.32.026-.446M86.897 144.903l-2.634-1.534c-.211-.126-.566-.118-.785 0l-2.128 1.18c-.22.126-.236.32-.025.446l2.634 1.534c.211.127.566.118.785 0l2.128-1.18c.228-.126.245-.32.025-.446M90.675 147.091l-2.635-1.534c-.21-.118-.565-.118-.785 0l-2.127 1.18c-.22.126-.237.329-.026.447l2.634 1.533c.212.127.566.127.794 0l2.128-1.179c.22-.118.228-.321.016-.447M94.459 149.293l-2.634-1.533c-.211-.127-.566-.118-.785 0l-2.128 1.179c-.228.127-.237.321-.025.447l2.634 1.534c.21.126.565.118.785 0l2.127-1.18c.22-.126.237-.32.026-.447M98.232 151.489l-2.634-1.534c-.211-.126-.566-.118-.785 0l-2.128 1.18c-.228.126-.236.328-.025.446l2.634 1.534c.211.118.566.118.785 0l2.128-1.18c.228-.126.236-.328.025-.446M48.407 126.219l-8.89-5.174c-.212-.127-.558-.118-.786 0l-2.127 1.18c-.22.126-.228.32-.017.446l8.89 5.175c.211.126.557.126.785 0l2.128-1.18c.22-.127.236-.32.017-.447M52.21 128.425l-2.635-1.533c-.211-.127-.566-.127-.785 0l-2.128 1.179c-.22.127-.228.329-.017.447l2.634 1.534a.89.89 0 0 0 .786 0l2.127-1.18c.22-.126.228-.32.017-.447M55.97 130.625l-2.635-1.534c-.21-.127-.557-.127-.785 0l-2.127 1.18c-.229.126-.237.32-.017.446l2.634 1.534c.21.127.565.127.785 0l2.127-1.18c.22-.126.228-.328.017-.446M59.752 132.812l-2.634-1.534c-.211-.126-.566-.126-.785 0l-2.128 1.18c-.22.127-.228.32-.017.447l2.634 1.534c.211.126.558.118.786 0l2.127-1.18c.228-.127.237-.32.017-.447M63.517 135.012l-2.634-1.534a.89.89 0 0 0-.785 0l-2.128 1.18c-.228.127-.228.32-.017.447l2.634 1.534c.211.126.566.126.785 0l2.128-1.18c.228-.127.228-.329.017-.447M67.313 137.207l-2.634-1.534c-.211-.126-.557-.126-.785 0l-2.128 1.18c-.228.126-.236.32-.017.446l2.634 1.534c.212.127.558.127.786 0l2.127-1.18c.22-.126.228-.32.017-.446M71.08 139.406l-2.634-1.534c-.211-.126-.566-.126-.785 0l-2.128 1.18c-.22.126-.228.32-.017.447l2.635 1.533c.21.127.557.127.785 0l2.127-1.179c.22-.127.228-.329.017-.447M74.858 141.602l-2.635-1.534c-.21-.118-.565-.126-.785 0l-2.127 1.18c-.22.126-.228.32-.017.447l2.634 1.533c.211.127.566.127.785 0l2.128-1.179c.228-.127.228-.329.017-.447M78.634 143.793 76 142.259c-.21-.127-.557-.127-.785 0l-2.128 1.18c-.22.126-.236.32-.017.446l2.635 1.534c.21.126.557.126.785 0l2.127-1.18c.22-.118.228-.32.017-.446M82.42 145.996l-2.634-1.534c-.211-.126-.566-.126-.785 0l-2.128 1.18c-.22.126-.228.32-.017.446l2.634 1.534c.212.127.558.127.786 0l2.127-1.18c.22-.126.228-.328.017-.446M86.18 148.187l-2.634-1.534c-.21-.126-.557-.126-.785 0l-2.128 1.18c-.227.127-.236.32-.016.447l2.634 1.534c.21.126.565.126.785 0l2.127-1.18c.228-.118.237-.32.017-.447M89.967 150.386l-2.634-1.533c-.211-.127-.557-.127-.785 0l-2.128 1.179c-.22.127-.228.321-.017.447l2.634 1.534c.211.126.557.126.785 0l2.128-1.18c.22-.126.228-.32.017-.447M93.736 152.574l-2.634-1.534c-.21-.126-.565-.126-.785 0l-2.127 1.18c-.22.126-.228.32-.017.447l2.634 1.533c.21.127.566.127.785 0l2.128-1.179c.22-.118.228-.321.016-.447M39.083 124.528l-2.853-1.66c-.211-.126-.557-.126-.785 0l-2.128 1.18c-.228.126-.236.32-.017.447l2.845 1.66c.211.126.566.118.785 0l2.128-1.18c.228-.126.236-.329.025-.447M43.006 126.817l-2.845-1.652c-.211-.126-.566-.126-.785 0l-2.128 1.18c-.22.126-.228.329-.017.447l2.846 1.66c.21.126.565.126.785 0l2.127-1.18c.228-.135.237-.337.017-.455M34.965 125.844l-2-1.155c-.212-.126-.567-.118-.786 0l-5.361 2.984c-.22.126-.237.32-.017.446l1.992 1.163c.212.127.558.127.786 0l5.36-2.983c.22-.126.237-.329.026-.455M38.947 128.178l-2.845-1.661c-.211-.126-.566-.118-.785 0l-2.128 1.18c-.22.127-.236.32-.017.447l2.845 1.66c.211.126.566.126.785 0l2.128-1.18c.22-.118.236-.32.017-.446M50.771 131.301l-2.634-1.534c-.211-.126-.566-.118-.785 0l-2.128 1.18c-.22.127-.236.32-.017.447l2.634 1.534c.211.126.566.126.785 0l2.128-1.18c.22-.118.228-.32.017-.447"/><path fill="#5B5C71" d="m46.963 129.09-2.635-1.534c-.21-.127-.565-.127-.793 0l-3.25 1.812-.777.429-1.351.75c-.228.127-.236.329-.017.447l5.218 3.034c.21.126.565.118.785 0l2.127-1.18c.22-.118.228-.32.017-.447l-2.195-1.281 2.854-1.584c.21-.126.22-.32.017-.446M54.538 133.5l-2.634-1.534c-.211-.127-.566-.127-.794 0l-2.127 1.18c-.22.118-.228.32-.017.446l2.634 1.534c.21.127.566.118.785 0l2.128-1.18c.227-.126.236-.328.025-.446M58.319 135.685l-2.635-1.534c-.21-.118-.565-.118-.785 0l-2.127 1.18c-.22.126-.228.32-.017.446l2.634 1.534c.21.127.566.127.785 0l2.128-1.18c.22-.118.227-.32.017-.446M62.093 137.898l-2.635-1.534c-.21-.126-.565-.126-.793 0l-2.128 1.18c-.22.118-.228.32-.017.447l2.634 1.534c.212.126.566.118.786 0l2.127-1.18c.228-.127.245-.329.026-.447M65.882 140.079l-2.643-1.533c-.211-.118-.566-.118-.785 0l-2.128 1.179c-.22.127-.228.321-.017.447l2.643 1.534c.211.118.566.118.785 0l2.128-1.18c.22-.118.228-.32.017-.447M69.646 142.286l-2.634-1.534c-.211-.127-.566-.118-.785 0l-2.128 1.18c-.22.126-.236.32-.017.446l2.634 1.534c.211.126.566.118.785 0l2.128-1.18c.22-.126.228-.32.017-.446M73.417 144.476l-2.634-1.534c-.211-.126-.566-.126-.794 0l-2.127 1.18c-.22.118-.228.32-.017.447l2.634 1.534c.21.126.565.118.785 0l2.127-1.18c.228-.127.237-.32.026-.447M77.213 146.676l-2.634-1.534c-.211-.126-.566-.118-.785 0l-2.128 1.18c-.22.127-.228.321-.017.447l2.634 1.534c.212.126.566.126.786 0l2.127-1.18c.22-.118.228-.32.017-.447M80.987 148.872l-2.635-1.534c-.21-.127-.565-.118-.785 0l-2.127 1.18c-.22.118-.228.32-.017.446l2.634 1.534c.21.126.566.118.785 0l2.128-1.18c.21-.118.228-.32.017-.446M84.749 151.07l-2.634-1.534c-.211-.126-.566-.126-.794 0l-2.127 1.18c-.22.126-.228.32-.017.447l2.634 1.533c.21.118.565.118.785 0l2.127-1.179c.22-.127.237-.329.026-.447M91.716 155.114l-5.766-3.354c-.211-.127-.566-.118-.785 0l-2.128 1.179c-.22.127-.228.321-.017.447l5.767 3.354c.21.118.565.118.785 0l2.127-1.18c.22-.126.228-.328.017-.446M50.053 134.582l-2.634-1.533c-.21-.127-.565-.118-.785 0l-2.127 1.18c-.22.126-.237.328-.026.446l2.634 1.534c.211.126.566.126.794 0l2.127-1.18c.22-.118.228-.32.017-.447M53.826 136.782l-2.634-1.534c-.211-.126-.566-.118-.785 0l-2.128 1.18c-.228.126-.236.32-.025.446l2.634 1.534c.211.127.566.118.785 0l2.128-1.18c.22-.126.236-.32.025-.446M57.606 138.985l-2.634-1.534c-.211-.126-.566-.118-.785 0l-2.128 1.18c-.228.126-.236.329-.017.447l2.634 1.533c.212.118.566.118.786 0l2.127-1.18c.211-.126.228-.328.017-.446M61.386 141.177l-2.634-1.534c-.211-.118-.566-.118-.785 0l-2.128 1.18c-.22.126-.228.329-.025.447l2.634 1.533c.211.127.566.127.794 0l2.127-1.179c.22-.118.228-.321.017-.447M65.167 143.372l-2.634-1.534c-.212-.127-.566-.118-.786 0l-2.127 1.18c-.22.126-.237.328-.026.446l2.635 1.534c.21.126.565.118.785 0l2.127-1.18c.228-.126.237-.329.026-.446M68.947 145.575l-2.634-1.533c-.211-.118-.566-.118-.785 0l-2.128 1.179c-.22.127-.236.329-.017.447l2.634 1.534c.211.118.566.118.785 0l2.128-1.18c.21-.126.22-.329.017-.447M72.705 147.762l-2.634-1.534c-.211-.126-.566-.118-.785 0l-2.128 1.18c-.228.127-.236.32-.025.447l2.634 1.534c.21.126.566.118.785 0l2.128-1.18c.227-.118.244-.32.025-.447M76.506 149.968l-2.634-1.533c-.211-.127-.566-.127-.785 0l-2.128 1.179c-.22.127-.228.329-.017.447l2.634 1.534c.211.126.566.118.786 0l2.127-1.18c.22-.126.228-.32.017-.447M80.272 152.15l-2.634-1.534c-.211-.118-.566-.118-.785 0l-2.128 1.18c-.22.126-.236.328-.025.446l2.634 1.534c.211.126.566.126.794 0l2.127-1.18c.22-.118.228-.32.017-.446M84.034 154.356l-2.634-1.534c-.211-.126-.566-.118-.785 0l-2.128 1.18c-.22.126-.236.32-.025.447l2.634 1.533c.21.127.566.118.785 0l2.128-1.179c.228-.127.236-.321.025-.447M88.459 156.925l-3.276-1.904c-.211-.127-.566-.127-.785 0L82.27 156.2c-.228.127-.236.329-.017.447l3.276 1.905c.211.126.566.126.785 0l2.128-1.18c.22-.127.228-.329.017-.447M35.705 129.974l-2.853-1.66c-.211-.127-.557-.127-.785 0l-2.128 1.179c-.22.127-.236.321-.017.447l2.845 1.66c.211.127.566.127.785 0l2.128-1.18c.228-.126.236-.328.025-.446M40.445 132.703l-3.479-2.022c-.21-.127-.565-.127-.793 0l-2.128 1.18c-.22.126-.228.32-.017.446l3.479 2.023c.21.118.565.118.785 0l2.127-1.18c.22-.126.237-.329.026-.447M44.256 134.919l-2.634-1.534c-.211-.118-.566-.118-.785 0l-2.128 1.18c-.22.127-.228.32-.017.447l2.634 1.534c.211.126.566.118.785 0l2.128-1.18c.22-.127.228-.329.017-.447M48.038 137.113l-2.634-1.534c-.211-.126-.566-.126-.794 0l-2.127 1.18c-.22.126-.228.32-.017.447l2.634 1.533c.21.118.566.118.785 0l2.128-1.179c.227-.118.236-.321.025-.447M51.819 139.314l-2.635-1.534c-.21-.118-.565-.118-.785 0l-2.127 1.18c-.22.126-.228.32-.017.446l2.634 1.534c.21.127.566.118.785 0l2.128-1.18c.22-.126.236-.328.017-.446M55.589 141.507l-2.634-1.533c-.212-.127-.566-.127-.794 0l-2.128 1.18c-.22.126-.228.32-.017.446l2.635 1.534c.21.126.565.118.785 0l2.127-1.18c.22-.118.237-.32.026-.447M59.354 143.7l-2.642-1.533c-.211-.118-.566-.118-.786 0l-2.127 1.179c-.22.127-.228.321-.017.447l2.643 1.534c.21.126.565.118.785 0l2.127-1.18c.22-.126.228-.329.017-.447M63.146 145.895l-2.634-1.534c-.211-.126-.566-.118-.785 0l-2.128 1.18c-.22.118-.236.32-.017.447l2.634 1.533c.211.127.566.118.785 0l2.128-1.179c.22-.118.228-.321.017-.447M66.92 148.105l-2.633-1.534c-.212-.126-.566-.126-.794 0l-2.128 1.18c-.22.127-.228.32-.017.447l2.635 1.534c.21.126.565.118.785 0l2.127-1.18c.228-.127.245-.329.026-.447M70.686 150.293l-2.635-1.533c-.21-.127-.565-.118-.785 0l-2.127 1.179c-.22.127-.228.329-.017.447l2.634 1.534c.211.126.566.126.785 0l2.128-1.18c.22-.126.228-.32.017-.447M74.475 152.493l-2.634-1.534c-.212-.127-.566-.118-.786 0l-2.127 1.18c-.22.126-.228.32-.017.446l2.634 1.534c.211.126.566.118.785 0l2.128-1.18c.21-.126.228-.328.017-.446M78.249 154.679l-2.634-1.533c-.211-.127-.566-.127-.794 0l-2.127 1.179c-.22.127-.228.321-.017.447l2.634 1.534c.21.118.565.118.785 0l2.127-1.18c.228-.126.237-.32.026-.447M85.22 158.727l-5.767-3.354c-.21-.126-.565-.118-.785 0l-2.128 1.18c-.219.126-.236.32-.016.446l5.766 3.354c.211.118.566.118.785 0l2.128-1.179c.22-.118.228-.321.017-.447M28.467 129.469l-2-1.162c-.212-.127-.566-.118-.786 0l-5.386 2.991c-.228.127-.237.32-.026.447l1.993 1.163c.211.126.566.118.785 0l5.386-2.992c.237-.126.245-.32.034-.447M32.533 131.837l-3.006-1.753c-.21-.127-.565-.118-.785 0l-2.127 1.18c-.22.118-.237.32-.017.446l3.005 1.753c.211.127.566.127.786 0l2.127-1.18c.22-.126.228-.328.017-.446M35.175 133.377l-1.486-.868c-.211-.127-.566-.127-.794 0l-2.127 1.18c-.22.118-.228.32-.017.446l1.494.868c.211.127.566.127.785 0l2.128-1.179c.228-.127.236-.329.017-.447M37.984 135.017l-1.562-.91c-.211-.126-.566-.118-.785 0l-2.128 1.18c-.22.127-.236.32-.017.447l1.562.91c.211.126.566.126.785 0l2.128-1.18c.22-.126.228-.329.017-.447M43.503 138.225l-4.323-2.512c-.21-.117-.565-.117-.785 0l-2.127 1.18c-.22.127-.228.321-.017.447l4.323 2.511c.21.127.565.127.785 0l2.127-1.18c.22-.118.237-.32.017-.446M47.294 140.426l-2.634-1.534c-.21-.126-.565-.118-.785 0l-2.127 1.18c-.22.127-.237.32-.017.447l2.634 1.534c.21.126.565.118.785 0l2.128-1.18c.219-.127.227-.32.016-.447M51.061 142.621l-2.634-1.534c-.21-.126-.566-.126-.793 0l-2.128 1.18c-.22.118-.228.32-.017.446l2.634 1.534c.211.118.566.118.785 0l2.128-1.18c.228-.118.236-.32.025-.446M54.838 144.812l-2.634-1.534c-.211-.126-.566-.126-.785 0l-2.128 1.18c-.22.127-.228.32-.017.447l2.634 1.534c.212.126.566.126.786 0l2.127-1.18c.22-.127.228-.329.017-.447M58.6 147.012l-2.634-1.534c-.212-.126-.566-.118-.786 0l-2.127 1.18c-.22.127-.228.32-.017.447l2.634 1.534c.211.126.566.118.785 0l2.128-1.18c.22-.118.228-.32.017-.447M62.409 149.218l-2.634-1.533c-.211-.127-.566-.127-.794 0l-2.127 1.179c-.22.127-.228.321-.017.447l2.634 1.534c.211.118.566.118.785 0l2.128-1.18c.228-.126.236-.329.025-.447M66.181 151.407l-2.634-1.534c-.211-.126-.566-.118-.785 0l-2.128 1.18c-.22.126-.236.32-.017.446l2.635 1.534c.21.127.565.118.785 0l2.127-1.18c.211-.126.228-.32.017-.446M69.94 153.605l-2.634-1.534c-.211-.126-.566-.126-.793 0l-2.128 1.18c-.22.118-.228.32-.017.447l2.634 1.534c.211.126.566.118.785 0l2.128-1.18c.228-.127.236-.329.025-.447M73.72 155.801l-2.633-1.534c-.211-.126-.566-.118-.785 0l-2.128 1.18c-.22.127-.228.32-.017.447l2.634 1.534c.211.126.566.126.785 0l2.128-1.18c.22-.118.228-.32.017-.447M77.498 157.997l-2.635-1.534c-.21-.127-.565-.118-.785 0l-2.127 1.18c-.22.118-.237.32-.017.446l2.634 1.534c.211.126.566.118.785 0l2.128-1.18c.22-.126.236-.328.017-.446M81.276 160.187l-2.634-1.534c-.211-.126-.566-.126-.794 0l-2.127 1.18c-.22.127-.228.32-.017.447l2.634 1.534c.211.126.566.126.785 0l2.128-1.18c.22-.118.228-.32.025-.447M30.116 134.161l-2.634-1.534c-.211-.127-.566-.118-.785 0l-2.128 1.18c-.22.126-.236.32-.025.446l2.634 1.534c.21.126.566.118.785 0l2.128-1.18c.228-.126.244-.328.025-.446M33.893 136.343l-2.634-1.533c-.212-.127-.566-.127-.786 0l-2.127 1.179c-.22.127-.228.329-.017.447l2.634 1.534c.211.118.566.118.785 0l2.128-1.18c.22-.126.228-.32.017-.447M37.701 138.571l-2.634-1.534c-.211-.126-.566-.118-.785 0l-2.128 1.18c-.228.126-.236.32-.025.446l2.634 1.534c.211.127.566.118.785 0l2.128-1.18c.228-.118.236-.32.025-.446M41.483 140.761l-2.635-1.533c-.21-.127-.565-.127-.785 0l-2.127 1.179c-.22.127-.228.329-.017.447l2.634 1.534c.211.118.566.118.785 0l2.128-1.18c.22-.126.228-.329.017-.447M60.361 151.746l-17.746-10.323c-.212-.126-.566-.126-.786 0l-2.127 1.18c-.22.126-.236.32-.026.446l17.747 10.324c.211.126.566.118.785 0l2.128-1.18c.228-.127.236-.32.025-.447M64.148 153.931l-2.634-1.534c-.211-.118-.566-.118-.786 0l-2.127 1.18c-.22.126-.228.329-.025.447l2.634 1.533c.21.127.565.127.793 0l2.128-1.18c.22-.118.228-.32.017-.446M67.909 156.129l-2.634-1.533c-.211-.127-.566-.118-.785 0l-2.128 1.179c-.22.127-.236.321-.025.447l2.634 1.534c.21.126.566.118.785 0l2.128-1.18c.228-.126.244-.32.025-.447M71.692 158.336l-2.634-1.534c-.211-.127-.566-.127-.785 0l-2.128 1.18c-.228.126-.236.328-.017.446l2.634 1.534c.211.126.566.118.785 0l2.128-1.18c.211-.126.22-.328.017-.446M75.464 160.528l-2.634-1.534c-.211-.126-.566-.118-.785 0l-2.128 1.18c-.22.126-.228.329-.025.446l2.634 1.534c.211.127.566.127.794 0l2.127-1.18c.22-.118.228-.32.017-.446M78.664 162.377l-2.043-1.188c-.21-.127-.565-.127-.785 0l-2.127 1.179c-.22.127-.237.321-.017.447l2.043 1.188c.21.118.565.118.785 0l2.127-1.18c.22-.126.228-.328.017-.446"/><path fill="#DCDCE6" d="m118.583 95.5-56.5-32.866c-1.493-.868-3.283.177-3.663 1.77l-14.1 50.293c0 .388.203.742.54.936l59.961 34.88c.726.421 1.368-.051 1.638-.935l14.099-50.657a4.01 4.01 0 0 0-1.975-3.42"/><path fill="#13121A" d="M60.788 64.412a.35.35 0 0 0-.507.202l-13.905 49.282a.36.36 0 0 0 .16.397l57.529 33.489a.34.34 0 0 0 .506-.202l13.906-49.282a.36.36 0 0 0-.161-.396z"/><path fill="#312F3A" d="M70.04 111.392c3.056 1.736 4.56-3.489 7.058-2.073 2.49 1.416-1.832 12.978 2.018 15.161 3.85 2.191 7.472-10.467 10.537-8.731 3.056 1.736.405 9.565 3.351 11.234 2.947 1.677 6.08-7.147 10.723-4.509L62.02 98.785c5.774 3.295 4.955 10.871 8.02 12.607"/><path fill="#EEDE6D" d="M101.403 109.963c-3.056-1.736-6.729 5.343-9.22 3.927-2.49-1.416 4.712-18.658.862-20.85-3.85-2.19-9.44 13.468-12.495 11.732-3.057-1.736 2.49-18.085-.456-19.762s-9.904 18.413-14.547 15.776l41.707 23.697c-5.792-3.278-2.795-12.784-5.851-14.52"/><path fill="#A4A3CD" d="M98.799 109.882c-2.947-1.677-4.762 3.674-7.827 1.938-3.056-1.736 1.056-12.37-2.178-15.893-2.938-3.211-6.442 6.64-8.94 5.216-2.492-1.416-.744-5.773-3.809-7.509-3.056-1.736-8.273 8.453-14.057 5.166l41.707 23.689c-4.626-2.638-1.95-10.93-4.896-12.607"/><path fill="#DCDCE6" d="M97.05 114.948c-2.946-1.677-3.723-.447-6.788-2.183-3.056-1.736-1.46-3.775-4.685-7.298-2.938-3.21-6.13.16-8.629-1.255-2.49-1.416-2.465-3.725-6.045-4.088-3.58-.362-3.124 1.956-8.907-1.331l41.707 23.689c-4.635-2.629-3.706-5.857-6.653-7.534"/><path fill="#5B5C71" d="M64.727 105.918c2.947 1.677 4.103-1.728 7.16.008 3.056 1.736-1.208 12.313 2.65 14.504 3.85 2.191 6.974-8.2 9.465-6.784s.802 5.612 3.858 7.348 6.67-3.708 12.445-.429L58.598 96.867c4.66 2.638 3.183 7.374 6.13 9.051"/><path fill="#F2B024" d="M66.106 103.074c2.153 2.141 3.613.32 8.451 3.548 2.87 1.913.177 5.84 3.115 6.413s5.134-1.449 7.624-.034 1.495 2.941 4.55 4.677c3.057 1.736 4.695-.404 10.478 2.883L58.617 96.863c4.644 2.646 5.226 3.961 7.489 6.211"/><path fill="#fff" d="m102.863 137.881.093.076 5.015-15.439-.118-.034zM90.71 132.485l.102.059 6.442-19.004-.11-.017z"/><path fill="#fff" d="m55.133 94.972 52.041 29.563.05-.152-52.04-29.563zM97.398 112.945c-.186 0-.414.211-.498.464s0 .463.186.463c.194 0 .413-.21.498-.463.093-.253.008-.464-.186-.464"/><path fill="#fff" d="m81.231 114.276-3.672 10.812.11.059 3.663-10.812 5.581-16.433-.11-.043z"/><path fill="#fff" d="M87.058 97.29c-.194 0-.413.21-.498.463-.084.252 0 .463.186.463s.414-.21.498-.463c.093-.253.008-.464-.186-.464M66.852 119.066l.1.059 7.549-22.248-.11-.025z"/><path fill="#fff" d="M74.648 96.277c-.194 0-.414.211-.498.464s0 .463.186.463c.194 0 .413-.21.498-.463.084-.261 0-.464-.186-.464M56.66 113.195l.11.05 5.023-16.778-.118-.026z"/><path fill="#fff" d="M61.933 95.875c-.194 0-.413.21-.498.463-.084.253 0 .464.186.464.194 0 .414-.21.498-.464.084-.252 0-.463-.186-.463M50.684 109.839l.1.059 5.978-19.56-.118-.033z"/><path fill="#fff" d="M56.902 89.727c-.194 0-.414.21-.498.463s0 .464.186.464c.194 0 .413-.211.498-.464.093-.253.008-.463-.186-.463M108.191 121.648c-.194 0-.414.211-.498.464s0 .463.186.463c.194 0 .413-.21.498-.463.093-.253.008-.464-.186-.464"/><defs><linearGradient id="a" x1="49.903" x2="98.295" y1="177.035" y2="98.028" gradientUnits="userSpaceOnUse"><stop stop-color="#A1A1BD"/><stop offset="1" stop-color="#fff"/></linearGradient></defs></svg>