<svg xmlns="http://www.w3.org/2000/svg" width="150" height="150" fill="none"><path fill="url(#a)" d="m124.616 106.078-50.34-29.467a1.33 1.33 0 0 0-1.344-.007L.669 118.178a1.34 1.34 0 0 0-.014 2.311l49.925 29.326c.415.246.929.246 1.344.007l72.67-41.433a1.331 1.331 0 0 0 .022-2.311"/><path fill="#313247" d="m41.672 1.65 3.644 81.084 100.898 62.291 3.785-2.394v-80.55L45.316 0z"/><path fill="#5B5C71" d="m41.672 85.12 104.683 59.903V63.736L41.672 1.648z"/><path fill="#13121A" d="M125.35 57.558c-11.623-6.46-23.471.464-27.102 15.106-3.623 14.635 2.02 32.768 13.213 40.935 11.912 8.694 25.462 2.872 29.529-13.532 4.073-16.412-3.265-35.634-15.64-42.509"/><path fill="#312F3A" d="M120.27 107.242c-10.103-7.374-15.197-23.737-11.925-36.947 1.857-7.507 6.12-12.76 11.369-14.832-9.618-1.903-18.426 4.944-21.466 17.206-3.623 14.635 2.02 32.768 13.213 40.935 9.337 6.812 19.665 4.712 25.666-4.403-5.037 2.675-11.151 2.205-16.857-1.959"/><mask id="b" width="46" height="63" x="97" y="55" maskUnits="userSpaceOnUse" style="mask-type:luminance"><path fill="#fff" d="M125.357 57.558c12.369 6.875 19.707 26.097 15.641 42.509-4.067 16.404-17.618 22.226-29.529 13.532-11.194-8.167-16.836-26.3-13.213-40.935 3.631-14.642 15.486-21.567 27.101-15.106"/></mask><g mask="url(#b)"><path fill="#A4A3CD" d="M116.565 59.092c-4.412 6.25 1.21 19.593 1.21 19.593l2.539.717s-2.469-13.491 5.77-22.515c0 .007-5.678-3.238-9.519 2.205"/><path fill="#A4A3CD" d="M110.282 58.133s-5.826.786-6.304 7.079c-.394 5.126 11.989 16.658 11.989 16.658l2.835-1.286c-.007.007-8.816-9.677-8.52-22.451M101.252 68.414s-3.448 3.624-1.76 7.936c2.048 5.239 13.305 7.935 13.305 7.935l1.787-1.692c.007-.007-9.737-5.457-13.332-14.179M121.807 90.516l-3.531 1.158s-3.131 10.57-12.327 13.414c0 0 4.313 8.251 12.967 4.003 7.57-3.722 5.516-16.728 2.891-18.575M100.001 85.242s-2.554 9.017 3.912 11.356c7.282 2.64 12.242-4.375 12.91-7.823l-2.335-2.304s-8.57 4.867-14.487-1.229"/><path fill="#A4A3CD" d="m123.939 86.664-1.759 3.919s5.487 9.277 2.209 24.825c0 0 6.641 2.914 12.39-5.829 5.403-8.216-6.185-18.694-12.84-22.915"/><path fill="#8E8DBD" d="m123.937 86.664-.042.084c1.547 1.356 2.814 2.999 3.982 4.685 1.336 1.93 3.018 3.813 3.813 6.095 1.428 4.094 1.857 11.019-1.893 14.832-1.554 1.58-3.475 2.669-5.368 2.774-.021.091-.035.176-.056.267 0 0 6.642 2.914 12.39-5.829 5.424-8.209-6.164-18.687-12.826-22.908"/><path fill="#A4A3CD" d="m123.66 84.086.352 3.968s8.569 7.324 15.063 20.625c0 0 6.55-3.371 7.493-13.132.887-9.172-14.451-11.461-22.908-11.461"/><path fill="#8E8DBD" d="m123.66 84.086.218 2.472c5.193.365 23.281 5.485 17.836 19.13-.5 1.25-1.598 2.205-2.66 2.949a.3.3 0 0 1 .021.049s6.55-3.371 7.493-13.132c.887-9.179-14.451-11.468-22.908-11.468"/><path fill="#A4A3CD" d="m122.387 82.213 2.124 3.14s4.496-1.946 16.766 6.25c0 0 7.127-5.57 5.706-12.683-1.421-7.114-22.267-2.135-24.596 3.293"/><path fill="#8E8DBD" d="m122.387 82.214.035.05c3.504-4.572 23.45-8.617 24.442.997.33-1.349.422-2.81.119-4.34-1.421-7.107-22.267-2.135-24.596 3.293"/><path fill="#A4A3CD" d="m120.43 79.704 2.314 2.964s3.596-6.06 13.713-9.073c0 0 2.575-5.183-1.836-10.134s-11.87 6.805-14.191 16.243"/></g><path fill="#F2B024" d="M120.842 78.694c-1.611-.787-3.152-.737-4.362-.042l-1.668 1.229c1.133-.653 2.576-.667 4.074.126 3.222 1.707 5.467 6.482 4.805 10.562-.337 2.086-1.364 3.498-2.729 4.073l2.202-.891c1.463-.611 2.561-2.093 2.905-4.256.683-4.22-1.758-9.109-5.227-10.801"/><path fill="#EEDE6D" d="M118.879 80.01c-3.025-1.6-5.818.12-6.402 3.75-.584 3.638 1.21 8.14 4.172 10.17 3.152 2.162 6.389.716 7.043-3.364.647-4.067-1.59-8.842-4.813-10.556"/><path fill="#54608A" d="M118.656 82.01c-2.181-1.16-4.2.083-4.616 2.703-.422 2.62.873 5.87 3.012 7.332 2.272 1.559 4.608.512 5.079-2.423.465-2.943-1.153-6.384-3.475-7.613"/><path fill="#676F93" d="M118.374 90.674c-1.977-1.355-3.18-4.368-2.786-6.798.162-1.004.577-1.784 1.147-2.282-1.351.154-2.406 1.306-2.695 3.125-.422 2.62.873 5.87 3.012 7.332 1.913 1.313 3.876.779 4.728-1.187-.922.674-2.174.653-3.406-.19"/><path fill="#13121A" d="M76.506 28.535c-11.623-6.461-23.47.463-27.101 15.106-3.624 14.635 2.019 32.767 13.213 40.935 11.91 8.694 25.461 2.872 29.528-13.533 4.067-16.412-3.272-35.64-15.64-42.508"/><path fill="#312F3A" d="M71.422 78.206C61.32 70.832 56.225 54.47 59.497 41.26c1.857-7.507 6.12-12.76 11.37-14.832-9.618-1.903-18.427 4.944-21.466 17.206-3.624 14.635 2.019 32.768 13.213 40.935 9.336 6.812 19.664 4.712 25.666-4.403-5.038 2.682-11.152 2.205-16.858-1.96"/><mask id="c" width="46" height="63" x="48" y="26" maskUnits="userSpaceOnUse" style="mask-type:luminance"><path fill="#fff" d="M76.494 28.535c12.369 6.875 19.707 26.096 15.64 42.508-4.066 16.405-17.617 22.227-29.528 13.533-11.194-8.168-16.836-26.3-13.213-40.935 3.623-14.643 15.478-21.567 27.101-15.106"/></mask><g mask="url(#c)"><path fill="#A4A3CD" d="M67.713 30.067c-4.411 6.25 1.21 19.593 1.21 19.593l2.54.717s-2.47-13.491 5.77-22.515c0 0-5.679-3.237-9.52 2.205"/><path fill="#A4A3CD" d="M61.43 29.102s-5.825.786-6.304 7.078c-.394 5.127 11.99 16.658 11.99 16.658l2.834-1.285c-.007.007-8.815-9.677-8.52-22.451M52.396 39.383s-3.447 3.624-1.758 7.935c2.047 5.24 13.304 7.936 13.304 7.936l1.787-1.692c.007 0-9.73-5.457-13.333-14.18M72.944 61.484l-3.532 1.16s-3.13 10.561-12.326 13.412c0 0 4.313 8.252 12.967 4.003 7.57-3.722 5.523-16.728 2.891-18.575M51.142 56.207s-2.554 9.017 3.912 11.356c7.282 2.64 12.242-4.375 12.91-7.824l-2.336-2.303s-8.562 4.874-14.486-1.229"/><path fill="#A4A3CD" d="m75.083 57.629-1.759 3.919s5.488 9.276 2.21 24.825c0 0 6.641 2.914 12.39-5.83 5.402-8.216-6.178-18.686-12.84-22.914"/><path fill="#8E8DBD" d="m75.09 57.629-.043.084c1.548 1.356 2.814 2.999 3.982 4.684 1.337 1.932 3.018 3.814 3.813 6.096 1.428 4.094 1.858 11.019-1.892 14.832-1.555 1.58-3.476 2.668-5.368 2.774-.021.091-.036.175-.057.267 0 0 6.642 2.914 12.39-5.83 5.417-8.209-6.163-18.68-12.826-22.907"/><path fill="#A4A3CD" d="m74.805 55.055.351 3.968s8.57 7.324 15.064 20.625c0 0 6.55-3.37 7.493-13.132.886-9.165-14.444-11.461-22.908-11.461"/><path fill="#8E8DBD" d="m74.805 55.055.218 2.472c5.192.365 23.28 5.484 17.835 19.13-.5 1.25-1.597 2.205-2.66 2.949q.012.019.022.05s6.55-3.372 7.493-13.133c.886-9.172-14.444-11.468-22.908-11.468"/><path fill="#A4A3CD" d="m73.54 53.187 2.124 3.139s4.496-1.945 16.766 6.25c0 0 7.127-5.569 5.706-12.683-1.429-7.107-22.275-2.135-24.597 3.294"/><path fill="#8E8DBD" d="m73.54 53.187.034.049c3.504-4.572 23.45-8.617 24.442.997.33-1.348.422-2.809.12-4.34-1.429-7.107-22.275-2.135-24.597 3.294"/><path fill="#A4A3CD" d="m71.57 50.677 2.315 2.964s3.595-6.061 13.712-9.074c0 0 2.575-5.182-1.836-10.133s-11.869 6.805-14.19 16.243"/></g><path fill="#F2B024" d="M71.99 49.667c-1.61-.787-3.151-.738-4.362-.043l-1.667 1.23c1.133-.654 2.575-.668 4.074.126 3.222 1.706 5.466 6.482 4.805 10.562-.338 2.086-1.365 3.497-2.73 4.073l2.202-.892c1.464-.61 2.561-2.093 2.906-4.255.682-4.221-1.759-9.109-5.228-10.801"/><path fill="#EEDE6D" d="M70.024 50.983c-3.025-1.601-5.818.12-6.402 3.75-.584 3.638 1.21 8.14 4.172 10.17 3.152 2.162 6.388.715 7.042-3.365.655-4.073-1.59-8.848-4.812-10.555"/><path fill="#54608A" d="M69.804 52.974c-2.18-1.159-4.2.084-4.615 2.704-.422 2.62.872 5.87 3.011 7.331 2.273 1.56 4.608.513 5.08-2.422.464-2.936-1.147-6.377-3.476-7.613"/><path fill="#676F93" d="M69.523 61.635c-1.977-1.355-3.18-4.368-2.786-6.798.162-1.004.577-1.784 1.147-2.282-1.351.154-2.407 1.306-2.695 3.125-.422 2.62.872 5.87 3.011 7.331 1.914 1.314 3.877.78 4.728-1.186-.922.674-2.174.653-3.405-.19"/><path fill="#A09FCB" d="M99.725 79.209 52.84 51.933c-1.456-.857-3.455-.33-4.067 1.467 0 0 1.97-1.776 3.16-1.081L98.81 79.588a3.29 3.29 0 0 1 1.639 2.844L88.7 124.645c-.31.604-.752.878-1.245.843.894.393 1.801-.119 2.132-1.109l11.749-42.361a3.23 3.23 0 0 0-1.61-2.81"/><path fill="#fff" d="M87.453 125.408 38.267 96.805c-.697-.408-1.865-.408-2.603.007L.676 116.27c-.74.408-.767 1.075-.07 1.482l49.185 28.604c.697.407 1.865.407 2.603-.007l34.988-19.46c.74-.415.774-1.082.07-1.482"/><path fill="#A09FCB" d="m43.274 128.381-11.573-6.728c-.866-.506-2.308-.499-3.215.007l-9.372 5.211c-.907.506-.95 1.327-.084 1.826l11.573 6.728c.866.505 2.308.498 3.216-.007l9.371-5.211c.908-.506.95-1.328.084-1.826"/><path fill="#DCDCE6" d="m43.274 128.908-11.573-6.728c-.866-.505-2.308-.498-3.215.007l-9.372 5.211c-.907.506-.95 1.328-.084 1.826l11.573 6.728c.866.506 2.308.498 3.216-.007l9.371-5.211c.908-.506.95-1.32.084-1.826"/><path fill="#A09FCB" d="m87.385 126.884-34.989 19.46c-.745.407-1.857.435-2.603.007 0 0-49.39-28.744-49.425-28.779-.056-.049-.098-.105-.14-.155-.008-.007-.015-.021-.022-.028-.035-.056-.063-.112-.112-.358v1.145s0 .513.527.843c.029.021 49.08 28.554 49.08 28.554.747.435 1.851.407 2.597-.007l34.988-19.46c.373-.204.563-.478.57-.744l.084-1.215c.007.26-.19.533-.555.737"/><path fill="#313247" d="m81.841 126.606-1.773.983a.5.5 0 0 1-.155.056h-.007a.7.7 0 0 1-.169.021h-.006a.6.6 0 0 1-.162-.021h-.014a.5.5 0 0 1-.148-.056l-2.195-1.278a.3.3 0 0 1-.085-.078l1.541-.856c.091-.05.14-.12.148-.183l.02-.604c0 .063-.048.134-.14.183l-1.773.983a1 1 0 0 1-.148.056h-.007a.7.7 0 0 1-.33 0h-.021a.5.5 0 0 1-.141-.056l-2.195-1.278a.2.2 0 0 1-.085-.078l1.541-.856c.092-.049.14-.12.14-.183l.022-.611c0 .07-.05.141-.14.19l-1.774.983a1 1 0 0 1-.147.056h-.007a.8.8 0 0 1-.176.021h-.007q-.087-.002-.162-.014-.01-.009-.021-.007-.076-.02-.141-.049l-2.202-1.278c-.035-.021-.056-.049-.085-.077l1.541-.857c.092-.049.14-.12.148-.19l.021-.611c0 .07-.056.134-.14.183l-1.774.983c-.042.028-.098.042-.154.056h-.007a.7.7 0 0 1-.17.021h-.006a1 1 0 0 1-.162-.014q-.01-.009-.021-.007a1 1 0 0 1-.14-.049l-2.196-1.278a.3.3 0 0 1-.085-.077l1.541-.857c.092-.049.141-.12.148-.183l.021-.611a.17.17 0 0 1-.042.106.3.3 0 0 1-.106.084l-1.773.983q-.072.033-.154.056-.009-.002-.007.007c-.057.014-.106.014-.17.014h-.006c-.056 0-.113 0-.162-.014h-.021c-.05-.014-.099-.028-.14-.056l-2.196-1.278c-.035-.021-.063-.049-.084-.07l1.54-.857c.092-.049.141-.119.141-.183l.021-.611a.2.2 0 0 1-.035.106.5.5 0 0 1-.105.084l-1.773.983q-.073.033-.155.056s-.007 0-.007.007c-.057.014-.106.014-.17.014h-.006c-.056 0-.106 0-.162-.014h-.021a.5.5 0 0 1-.14-.056l-2.196-1.278a.25.25 0 0 1-.091-.077l1.533-.857c.092-.049.141-.119.141-.189l.021-.611c0 .07-.05.133-.14.182l-1.773.983a.7.7 0 0 1-.148.056h-.007a.7.7 0 0 1-.176.022h-.007a.6.6 0 0 1-.162-.022h-.014a.5.5 0 0 1-.148-.056l-2.195-1.278a.3.3 0 0 1-.084-.07l1.54-.857c.092-.049.141-.119.148-.189l.021-.611q-.002.107-.14.182l-1.773.983c-.043.028-.099.042-.155.057h-.007a.7.7 0 0 1-.17.021h-.006a.6.6 0 0 1-.162-.021h-.021c-.05-.015-.099-.029-.14-.057l-2.203-1.278a.3.3 0 0 1-.084-.077l1.54-.857c.092-.049.134-.119.141-.182l.021-.611c0 .07-.049.14-.14.189l-1.773.983a.4.4 0 0 1-.148.057h-.007a.7.7 0 0 1-.17.021h-.006q-.077-.002-.162-.014-.01.002-.021-.007a1 1 0 0 1-.14-.05l-2.196-1.278a.2.2 0 0 1-.084-.077l1.54-.857c.092-.049.141-.119.148-.189l.021-.611c0 .07-.056.133-.14.182l-1.773.983a.6.6 0 0 1-.155.057h-.007a.6.6 0 0 1-.169.021h-.007c-.056 0-.105-.007-.162-.014q-.01.002-.02-.007a1 1 0 0 1-.142-.049l-2.195-1.279c-.042-.021-.063-.049-.084-.077l1.534-.857c.091-.049.14-.119.14-.182l.021-.604c0 .063-.056.133-.14.182l-1.773.984a1 1 0 0 1-.155.056l-.007.007c-.056.014-.113.014-.169.014h-.007c-.063 0-.113 0-.162-.014-.007 0-.014-.007-.02-.007a1 1 0 0 1-.142-.056l-2.195-1.279c-.042-.021-.063-.049-.084-.07l1.54-.857c.092-.049.141-.119.141-.182l.021-.611c0 .07-.049.14-.14.19l-1.773.983a1 1 0 0 1-.148.056l-.007.007c-.05.014-.113.014-.169.014s-.105-.007-.162-.014h-.02a1 1 0 0 1-.142-.056l-2.195-1.278a.3.3 0 0 1-.098-.085v-.007c-.007-.007-.007-.007-.007-.014l1.527-.849c.091-.05.14-.12.14-.183l.021-.604c0 .063-.056.133-.14.176l-1.773.983a1 1 0 0 1-.155.056l-.007.007c-.056.014-.113.014-.176.014h-.007c-.056 0-.106 0-.162-.014q-.01.002-.021-.007-.077-.02-.14-.049l-2.196-1.278c-.042-.021-.063-.05-.084-.078l1.54-.856c.092-.05.141-.12.148-.183l.021-.611c0 .07-.049.14-.14.19l-1.773.983a1 1 0 0 1-.148.056h-.007a1 1 0 0 1-.176.021h-.007c-.056 0-.105-.007-.162-.014q-.01.002-.02-.007c-.05-.014-.1-.028-.142-.049l-2.195-1.278c-.014-.007-.02-.021-.035-.028l1.555-.864c.091-.049.14-.12.14-.19l.022-.611c0 .07-.056.141-.14.19l-1.774.983c-.042.028-.098.042-.155.056h-.007c-.056.014-.112.014-.169.014h-.007q-.075-.002-.161-.014c-.007 0-.014-.007-.021-.007a.5.5 0 0 1-.141-.056l-2.195-1.278a.2.2 0 0 1-.092-.084l-.007-.007a.17.17 0 0 1-.028-.099l-.021.611v.007c0 .007.007.014 0 .021q-.002.02.007.028.002.008.014.029a.02.02 0 0 1 .007.014l.007.007q.009-.002.007.007a.1.1 0 0 0 .028.035.4.4 0 0 0 .057.042h.007l2.202 1.278a.25.25 0 0 0 .098.042c.014.007.028.007.042.014 0 0 .014.007.022.007q.01.009.02.007.024.009.057.007h.098c.015 0 .029-.007.043-.007s.035-.007.042-.007c.014 0 .035 0 .05-.007h.02q.02-.009.028-.007.034-.01.057-.021a.3.3 0 0 0 .07-.035l.113-.063-.014.4s0 .014.007.021v.028c.007.007.007.014.014.021.007 0 .007.014.014.014h.007l.007.007a.05.05 0 0 0 .028.028.4.4 0 0 0 .056.043v.007l2.195 1.278c.028.021.064.028.099.042q.021.002.042.014s.014.007.021.007c.007.007.014 0 .021.007q.033-.002.056.007a.1.1 0 0 1 .05.007h.049c.014 0 .035-.007.05-.007h.042c.014-.007.035-.007.042-.007q.012-.009.014-.007h.014c.007 0 .014-.007.02-.007l.064-.021c.021-.007.042-.021.07-.028l.183-.106-.02.471v.028c0 .007 0 .021.007.028s.007.014.014.021l.007.014.007.007c.007.014.02.021.028.035.02.014.035.028.056.042l.007.008.964.561-.042.042-1.773.984a.5.5 0 0 1-.155.056h-.007a.7.7 0 0 1-.169.021h-.007a.6.6 0 0 1-.162-.021s-.014-.007-.02-.007c-.05-.014-.1-.028-.142-.056l-7.408-4.312c-.042-.021-.07-.056-.099-.085v-.007a.17.17 0 0 1-.035-.098l-.02.611v.056c.006.007.006.014.013.021s.007.014.014.014h.007v.007c.007.014.021.021.029.028a.3.3 0 0 0 .056.043h.007l2.153 1.257c-.021.021-.035.042-.064.056l-1.773.983a1 1 0 0 1-.147.056h-.007a.6.6 0 0 1-.162.021h-.007c-.056 0-.113-.007-.162-.014q-.01-.009-.021-.007-.077-.02-.14-.049l-2.379-1.376a.3.3 0 0 1-.091-.085l-.007-.007a.15.15 0 0 1-.029-.091l-.02.611v.028q-.002.01.006.021c0 .007.007.014.007.028l.007.007v.007l.008.007c.014.014.02.028.028.035.014.014.035.036.056.043h.007l1.45.835a.2.2 0 0 1-.057.049l-4.468 2.486a1 1 0 0 1-.147.057h-.007a.7.7 0 0 1-.17.014h-.006c-.057 0-.106-.007-.162-.014-.007 0-.014-.007-.014-.007a.5.5 0 0 1-.148-.057l-1.66-.969a.4.4 0 0 1-.099-.084.16.16 0 0 1-.035-.091l-.021.604v.063q.002.02.014.028s.007.007.007.014l.007.007v.007l.028.028a.2.2 0 0 0 .056.042h.007l1.45.843c-.021.014-.035.035-.063.049l-4.49 2.493a1 1 0 0 1-.154.056h-.007a.7.7 0 0 1-.169.021h-.007a.6.6 0 0 1-.162-.021s-.014-.007-.02-.007a.5.5 0 0 1-.142-.056l-1.667-.969c-.042-.021-.077-.049-.091-.084v-.007a.15.15 0 0 1-.029-.092l-.028.611v.029q.009.01.007.021.002.009.014.028l.014.014v.014l.029.028a.4.4 0 0 0 .056.042s.007 0 .007.007l1.66.969c.028.014.064.028.099.042q.021-.002.042.007.01-.002.021.007c.007 0 .014.007.021.007a.2.2 0 0 0 .063.007h.141c.014 0 .035 0 .05-.007.014 0 .028-.007.042-.007q.012.002.014-.007c.014-.007.02-.007.028-.007.021 0 .042-.014.063-.021a.3.3 0 0 0 .064-.035l2.835-1.573-.014.4q-.002.01.007.021c0 .007 0 .021.007.028 0 .007 0 .015.014.022 0 .007.007.014.007.014l.007.007.007.007c.007.014.021.021.028.028.021.014.035.028.056.042h.008l2.504 1.461a.3.3 0 0 0 .106.042c.014.007.02.007.042.014.007 0 .014.007.021.007q.009-.002.028.007.023-.002.056.007c.022 0 .036.007.05 0h.099c.013 0 .027-.007.041-.007.015-.007.036-.007.043-.007l.014-.007h.007c.014 0 .02 0 .028-.007.021 0 .042-.014.056-.021.028-.007.042-.021.07-.035l.198-.106-.021.485v.028c0 .014.006.021.006.028.008.007.008.014.015.021 0 .007.007.014.007.014v.007c.007 0 .007.007.007.007l.028.028a.4.4 0 0 0 .056.042h.007l1.245.717a.4.4 0 0 0 .099.049q.021.009.042.007.01.009.021.007c.007 0 .014.007.021.007.021 0 .043.007.057.007a.1.1 0 0 0 .049.007h.05c.013 0 .034 0 .041-.007.014 0 .035 0 .05-.007q.021.002.042-.007.002.002.014-.007h.007c.007 0 .021 0 .028-.007.021 0 .035-.014.056-.014.021-.014.043-.021.064-.035l.295-.162-.021.59v.028q-.002.02.007.028s0 .014.014.021c0 0 0 .014.007.014l.007.007v.007c.007.014.021.021.028.036a.4.4 0 0 0 .057.042h.007l.387.224a.2.2 0 0 1-.057.043l-1.773.983a1 1 0 0 1-.147.056l-.007.007a.8.8 0 0 1-.176.021h-.007a.6.6 0 0 1-.162-.021s-.014-.007-.021-.007a.5.5 0 0 1-.141-.056l-2.195-1.278c-.042-.022-.063-.05-.085-.071l1.541-.856c.092-.05.141-.12.141-.183l.021-.611c0 .07-.056.14-.14.19l-1.774.983a1 1 0 0 1-.154.056s-.007 0-.007.007c-.057.014-.113.014-.17.014h-.006c-.05 0-.106 0-.162-.014-.007 0-.014-.007-.021-.007-.05-.014-.099-.028-.14-.056l-2.196-1.278a.2.2 0 0 1-.091-.085h-.007a.16.16 0 0 1-.029-.098l-.028.618c0 .007.007.014 0 .021q-.002.02.007.028.002.01.014.021c0 .007.007.014.007.014l.007.007q-.002.009.007.007a.06.06 0 0 0 .029.028.3.3 0 0 0 .056.043h.007l2.195 1.278a.4.4 0 0 0 .099.049q.021.009.042.007.012.009.014.007c.014 0 .02.007.028.007a.14.14 0 0 0 .056.007h.141c.014 0 .035-.007.042-.007.014-.007.035-.007.05-.007l.013-.007h.008c.014 0 .02 0 .028-.007l.056-.021a.2.2 0 0 0 .07-.035l.183-.099-.014.471v.028c0 .007 0 .021.007.028s.007.014.014.021q.002.012.014.014h.007v.007l.029.028a.4.4 0 0 0 .056.042s.007 0 .007.007l2.195 1.279.098.042q.02.009.043.007c0 .007.014.007.02.007.008 0 .015.007.022.007.02 0 .042.007.056.007h.141c.014 0 .035 0 .042-.007.014 0 .035 0 .05-.007l.013-.007c.007 0 .021 0 .028-.007l.057-.021a.3.3 0 0 0 .07-.035l.211-.12-.02.513v.028q.007.01.006.021.002.01.014.021.002.012.014.014l.007.007.029.028a.4.4 0 0 0 .056.042h.007l2.195 1.278q.044.022.098.043a.1.1 0 0 0 .043.007q.01.009.02.007.012.009.022.007c.02 0 .035.007.056.007h.141q.021.002.042-.007c.014 0 .035-.007.05-.007l.013-.007h.007q.01.002.021-.007l.057-.021c.02-.007.049-.022.07-.029l.183-.098-.014.471v.056c.007.007.007.014.014.028l.014.014h.007v.007c.007.014.021.021.028.035a.4.4 0 0 0 .057.042l2.202 1.278q.04.02.091.043.021.009.042.007c.007 0 .015.007.022.007s.014.007.014.007q.04.009.07.007h.098q.022.002.043-.007h.042c.014 0 .035-.007.05-.007.006 0 .006 0 .013-.007h.007q.02.002.028-.007.034-.012.057-.022a.3.3 0 0 0 .07-.035l.183-.098-.014.471v.028q.009.009.007.028c.007.007.007.014.014.021.007 0 .007.014.014.014v.007q.009-.002.007.007.009.012.028.035a.4.4 0 0 0 .056.042h.008l14.788 8.603c.036.014.064.028.099.042.014.007.028 0 .042.007 0 0 .014 0 .021.007h.014q.041.009.07.007h.1c.013 0 .034 0 .041-.007h.05c.014 0 .028-.007.042-.007l.014-.007h.007q.02-.009.028-.007l.063-.021c.029-.007.043-.021.07-.028l.184-.098-.021.47v.028q-.002.01.007.021c0 .007 0 .021.014.028 0 .007 0 .007.007.014 0 0 .007.007.007.014l.028.028a.3.3 0 0 0 .056.043l.007.007 2.195 1.278a1 1 0 0 0 .106.042c.014.007.02.007.042.007q.01-.002.021.007h.028c.014 0 .035.007.057.007h.147q.022-.009.042-.007c.015 0 .036-.007.043-.007q.012.002.014-.007h.007q.01-.009.021-.007.033-.012.056-.014.041-.02.07-.028l.184-.106-.022.471v.028c0 .007.008.021.008.028 0 0 0 .014.014.021q-.002.012.007.014l.007.007h.007a.2.2 0 0 0 .028.035q.023.021.056.042l.007.008 2.195 1.278c.028.021.07.028.106.042.014.007.028.007.042.014h.021q.01.009.021.007.031.009.064.007a.1.1 0 0 1 .049.007h.042c.014-.007.035-.007.05-.007.013 0 .027-.007.041-.007s.036 0 .05-.007h.014l.007-.007c.007 0 .02-.007.028-.007l.056-.021c.021-.007.05-.021.07-.028l.184-.106-.022.471v.035c.007.007 0 .014.007.028.007.007.007.014.015.021.007.007.007.014.014.014v.007q.009-.002.007.007a.06.06 0 0 0 .028.028.4.4 0 0 0 .056.042v.007l2.195 1.272c.035.021.063.028.099.042.014.007.028.007.042.014.007 0 .014.007.02.007q.012-.002.022.007.023.009.056.007c.021 0 .035.007.05.007h.049c.014 0 .035-.007.05-.007.013 0 .027-.007.041-.007s.035 0 .05-.007h.021c.014-.007.02-.007.035-.007l.056-.021c.028-.007.05-.021.063-.028l.183-.106-.02.478c.006.007 0 .021 0 .028q.008.01.006.021c.007.014.007.021.014.028l.014.014v.007c.008 0 .008.007.008.014.007.007.014.021.028.028a.4.4 0 0 0 .056.042l.007.007 2.195 1.278c.028.015.063.036.099.043.014 0 .028.007.042.007q.01-.002.02.007c.008 0 .015.007.015.007q.041.009.07.007c.014.007.035.007.05.007h.091c.014 0 .035 0 .042-.007.014 0 .028-.007.05-.007h.014l.007-.007c.014 0 .02 0 .035-.007.02 0 .035-.007.056-.014.021-.014.042-.021.07-.036l.176-.098-.014.464v.028c.007.007 0 .014.007.021s.007.021.014.028l.014.014v.007q.009.002.007.014c.008.007.014.021.029.028a.2.2 0 0 0 .056.042l.007.007 1.703.99c.028.015.063.036.098.043q.021.002.042.014c.007 0 .014.007.014.007.014 0 .021.007.021.007.029 0 .05.007.07.007h.141c.014-.007.036-.007.05-.007s.028-.007.042-.007h.021c.014 0 .021-.007.028-.007.021-.007.042-.007.064-.014q.03-.02.063-.028l1.773-.984c.091-.049.14-.119.14-.189l.022-.576s.02 0 .028-.007c.014 0 .035 0 .049-.007h.014l.007-.007c.014 0 .021-.007.035-.007a.2.2 0 0 0 .057-.014c.02-.007.042-.021.063-.028l1.773-.984c.091-.049.14-.119.148-.189l.014-.436.69.401.098.042c.014.007.028.007.042.014h.021q.01.009.021.007.032.009.063.007h.099q.021.002.042-.007h.042c.014-.007.035-.007.05-.007l.007-.007h.014c.007-.007.02-.007.028-.007l.056-.021c.021-.007.042-.021.063-.028l1.773-.983q.138-.085.148-.19l.014-.407.127.077q.044.021.098.042a.1.1 0 0 1 .043.007q.01-.002.02.007c.015 0 .015.007.015.007q.04.009.07.007h.134c.014 0 .035 0 .049-.007.014 0 .035-.007.042-.007s.014-.007.014-.007h.007q.02-.009.028-.007l.064-.021a.3.3 0 0 0 .063-.035l1.773-.983c.092-.05.14-.12.14-.19l.015-.407.126.077a.25.25 0 0 0 .099.042c.014 0 .021.007.042.014h.021q.01.009.022.007c.02 0 .042 0 .056.007h.141c.014 0 .035-.007.049-.007q.021-.009.042-.007l.007-.007h.014c.007 0 .021-.007.028-.007l.056-.021q.033-.012.064-.035l1.773-.983c.091-.049.148-.12.148-.19l.02-.611c0 .07-.049.141-.14.19l-1.773.983q-.075.033-.148.056h-.007a.8.8 0 0 1-.176.021c-.056 0-.105-.007-.162-.014q-.01.002-.02-.007c-.05-.014-.1-.028-.141-.049l-4.806-2.795a.2.2 0 0 1-.091-.084l-.007-.007q.002-.01-.007-.021l1.512-.843c.092-.049.141-.12.148-.19l.014-.421 1.76 1.025c.027.014.063.028.098.042.014.007.028.007.042.014.007 0 .014.007.021.007q.01-.002.021.007c.021 0 .042.007.056.007h.134c.014 0 .028-.007.042-.007s.035-.007.05-.007c.007-.007.007-.007.013-.007h.008c.007 0 .014-.007.028-.007q.023-.01.056-.021a.3.3 0 0 0 .063-.035l.183-.105-.02.47v.028q-.001.01.006.022c.007.007.007.021.014.028l.007.007v.007q.009.002.007.014c.007.007.014.021.029.028a.4.4 0 0 0 .056.042l.007.007 2.195 1.278q.044.021.098.042.02.002.043.014c.007 0 .014.007.014.007.014 0 .02 0 .028.007.02 0 .042.007.056.007h.141c.014 0 .035-.007.042-.007.014-.007.035-.007.05-.007l.006-.007h.007c.014 0 .022-.007.035-.007q.024-.01.057-.021a.3.3 0 0 0 .063-.035l.05-.028 1.723-.962c.092-.049.14-.12.14-.183l.015-.407 1.154.674c.028.014.063.035.098.042q.02.009.043.007.01-.002.02.007s.015.007.022.007q.03.009.063.007h.141c.014-.007.035-.007.049-.007q.021.002.042-.007h.021q.02-.009.028-.007a.2.2 0 0 1 .057-.014c.02-.014.049-.021.07-.028l1.773-.983c.091-.049.14-.119.14-.19l.022-.597c.19.253.14.323.056.366m-42.734-18.667-2.378 1.321-.021.611.823-.457-.021.513v.028c0 .007.007.014.007.021.007.007.007.014.014.028q-.002.002.007.014l.007.007v.007c.014.014.021.021.028.035a.4.4 0 0 0 .056.042h.007l.95.555-.042.042-1.773.983a1 1 0 0 1-.155.057h-.007a.7.7 0 0 1-.176.021h-.007c-.056 0-.105-.007-.162-.014-.007 0-.014-.007-.014-.007a.4.4 0 0 1-.147-.057l-4.348-2.528c-.043-.021-.07-.056-.099-.084v-.007a.15.15 0 0 1-.028-.091l-.021.611v.035q.009.01.007.021c.007.014.007.021.014.028s.007.014.014.014v.007s.007 0 .007.007c.007.014.021.021.028.028q.022.021.057.042h.007l1.977 1.152q-.02.021-.05.042l-1.773.983a1 1 0 0 1-.147.056h-.007a.7.7 0 0 1-.176.022h-.007c-.057 0-.106-.007-.162-.015q-.01-.009-.021-.007-.077-.02-.141-.049l-2.899-1.685a.3.3 0 0 1-.098-.084v-.007c-.014-.014-.014-.036-.014-.057l1.477-.821q.14-.085.141-.19l.014-.393.113.07c.028.021.063.028.098.042a.1.1 0 0 1 .042.014h.021q.011-.002.021.007.035.009.057.007h.098c.014 0 .035-.007.043-.007h.049q.021-.009.042-.007l.014-.007h.007c.014-.007.021-.007.035-.007.021-.007.035-.014.057-.021.028-.007.042-.021.063-.028l1.773-.983q.138-.084.14-.19l.015-.428.802.47q.044.02.098.043.021.009.042.007.011.009.022.007c.007 0 .014.007.014.007.028 0 .049.007.07.007.014.007.035.007.05.007h.041q.022.002.043-.007c.014 0 .035 0 .042-.007.014 0 .035-.007.05-.007h.02q.009.002.028-.007a.13.13 0 0 1 .057-.014c.028-.015.042-.022.063-.036l1.773-.983q.138-.084.14-.189l.015-.436 1.906 1.11c.028.014.07.035.106.042.014 0 .021 0 .042.007q.01.009.021.007c.007 0 .021.007.028.007a.2.2 0 0 0 .057.007.1.1 0 0 0 .049.007h.091q.022-.009.043-.007c.014 0 .035 0 .042-.007h.021q.02-.009.028-.007a.2.2 0 0 1 .056-.014c.021-.014.05-.021.07-.028l.205-.113-.014.492v.063c.007.007.007.014.014.028 0 0 0 .014.007.014l.007.007.007.007c.007.015.02.022.028.036q.033.021.056.042h.007l.324.182c.028-.014.014 0-.007.014"/><path fill="#5B5C71" d="M27.61 107.39a.4.4 0 0 1-.057-.042c-.014-.007-.02-.021-.028-.028 0 0 0-.007-.007-.007v-.007c0-.007-.007-.007-.007-.014-.007-.008-.007-.015-.014-.029 0-.007-.007-.021-.007-.028v-.035l.014-.477-2.652 1.474q.03.045.084.078l2.371 1.383a1 1 0 0 0 .162.063q.076.012.162.014h.007a.7.7 0 0 0 .168-.021h.008q.082-.023.154-.056l1.773-.983c.014-.007.021-.021.035-.028zM31 106.257q-.033-.021-.056-.042l-.029-.028s0-.007-.007-.007c0-.007-.007-.007-.007-.014-.007-.007-.007-.014-.014-.028 0-.007-.007-.014-.007-.028v-.035l.014-.415-.133.071c-.021.014-.043.021-.07.035-.022.007-.036.014-.057.021-.007 0-.021 0-.028.007h-.007c-.007 0-.007 0-.014.007-.014 0-.029.007-.05.007-.014 0-.028.007-.042.007h-.134c-.02 0-.042-.007-.056-.007-.007 0-.028-.007-.028-.007q-.01.002-.021-.007c-.014 0-.028-.007-.042-.007q-.054-.021-.099-.042l-.851-.499-.014.421c0 .071-.05.141-.148.19l-1.534.857a.3.3 0 0 0 .085.077l2.37 1.384a1 1 0 0 0 .163.063q.075.012.162.014h.006a.7.7 0 0 0 .17-.021h.006a.6.6 0 0 0 .155-.056l1.773-.984c.028-.014.042-.035.056-.049zM32.672 104.566q0 .105-.148.19l-1.547.863a.3.3 0 0 0 .049.042l2.37 1.384a1 1 0 0 0 .142.056c.007 0 .02.007.02.007.05.014.106.014.162.014a.7.7 0 0 0 .17-.021h.006q.084-.023.155-.056l1.773-.983a.2.2 0 0 0 .063-.056l-3.2-1.861zM36.92 112.695v-.028l.015-.471-.183.099c-.021.014-.042.021-.07.035-.021.007-.035.014-.057.021q-.009-.002-.028.007h-.007c-.007 0-.007.007-.014.007-.014 0-.028.007-.05.007-.013 0-.027.007-.041.007h-.14800000000000002c-.021 0-.042-.007-.056-.007-.007 0-.014-.007-.021-.007q-.011.002-.021-.007c-.015 0-.029-.007-.043-.007a1 1 0 0 1-.098-.042l-2.273-1.321-.014.408q0 .105-.148.189l-1.526.85c0 .007 0 .007.007.014.02.028.049.056.098.084l2.195 1.278a1 1 0 0 0 .141.057c.007 0 .014.007.021.007q.077.012.162.014h.007a.7.7 0 0 0 .169-.021h.007a.6.6 0 0 0 .155-.057l1.773-.983c.035-.021.056-.042.077-.063q-.009-.01-.007-.021c-.021-.035-.021-.042-.021-.049M38.51 116.78a.4.4 0 0 1-.056-.042l-.028-.028-.007-.007c0-.008-.007-.008-.007-.015-.007-.007-.007-.021-.014-.028 0-.007-.007-.014-.007-.028v-.035l.014-.47-.183.105c-.021.007-.043.021-.07.028-.022.007-.036.014-.057.021-.007 0-.021.007-.028.007h-.021c-.014 0-.028.007-.05.007-.014 0-.028.007-.049.007h-.14100000000000001c-.02 0-.042-.007-.056-.007l-.035-.007h-.014q-.021-.009-.042-.007-.054-.021-.099-.042l-1.182-.688-.014.442q0 .105-.147.19l-1.541.857a.2.2 0 0 0 .084.07l2.195 1.278a1 1 0 0 0 .162.063c.05.014.106.014.162.014h.007a.7.7 0 0 0 .169-.021h.007a.6.6 0 0 0 .155-.056l1.773-.983q.04-.031.07-.063zM41.663 118.604a.4.4 0 0 1-.056-.042l-.028-.028s0-.007-.007-.007c0-.007-.007-.007-.007-.014-.007-.007-.007-.021-.014-.028 0-.007-.007-.014-.007-.029v-.028l.014-.47-.183.098a.2.2 0 0 1-.07.028c-.022.007-.036.014-.057.021-.007 0-.02.007-.028.007H41.2c-.014 0-.028.007-.05.007-.013 0-.027.007-.041.007h-.14900000000000002c-.02 0-.042-.007-.056-.007-.007 0-.014-.007-.035-.007h-.014q-.021-.009-.042-.007-.054-.021-.098-.042l-1.182-.688-.015.442c0 .071-.049.141-.147.19l-1.534.857a.3.3 0 0 0 .084.077l2.195 1.278a1 1 0 0 0 .141.056c.007 0 .014.007.021.007q.076.021.162.021h.007a.7.7 0 0 0 .169-.021h.007a.6.6 0 0 0 .155-.056l1.773-.983c.035-.021.049-.042.07-.063zM44.8 120.439a.4.4 0 0 1-.055-.042l-.029-.028-.007-.007v-.007c0-.007-.007-.007-.007-.014-.007-.007-.007-.014-.014-.028 0-.007-.007-.014-.007-.028v-.028l.014-.471-.183.105a.2.2 0 0 1-.07.028l-.056.021c-.007 0-.021.008-.028.008h-.022c-.014 0-.028.007-.049.007q-.021-.002-.042.007h-.14800000000000002c-.02 0-.042-.007-.063-.007q-.002.002-.014-.007-.01.002-.021-.008c-.014 0-.028-.007-.043-.007a1 1 0 0 1-.098-.042l-1.182-.688-.014.443c0 .07-.05.14-.148.189l-1.534.857a.3.3 0 0 0 .085.07l2.195 1.278a1 1 0 0 0 .162.063q.076.022.162.022h.007a.7.7 0 0 0 .169-.022h.007a.6.6 0 0 0 .154-.056l1.773-.983c.028-.021.05-.035.07-.056zq.01 0 0 0M47.931 122.266c-.02-.014-.042-.028-.056-.042-.014-.007-.021-.021-.028-.028l-.007-.007v-.007c0-.007-.007-.007-.007-.014-.007-.007-.007-.014-.014-.028 0-.007-.007-.014-.007-.028v-.035l.014-.471-.183.106a.2.2 0 0 1-.07.028l-.057.021c-.007 0-.02.007-.028.007h-.021c-.014 0-.028.007-.05.007-.013 0-.028.007-.049.007h-.15500000000000003c-.02 0-.042-.007-.063-.007q-.002.002-.014-.007-.01.002-.02-.007c-.015 0-.029-.007-.043-.007q-.054-.021-.099-.042l-1.181-.689-.015.443c0 .07-.049.14-.147.189l-1.541.857a.2.2 0 0 0 .084.07l2.195 1.279a1 1 0 0 0 .162.063q.076.012.162.014h.007a.7.7 0 0 0 .169-.021h.007a.6.6 0 0 0 .155-.056l1.773-.984q.04-.033.07-.056zM51.105 124.095a.3.3 0 0 1-.057-.043l-.028-.028q.002-.009-.007-.007c0-.007-.007-.007-.007-.014-.007-.007-.007-.021-.014-.028 0-.007-.007-.014-.007-.028v-.035l.021-.478-.197.106c-.02.007-.042.021-.07.028l-.056.021c-.008 0-.014.007-.029.007h-.021q-.02.009-.049.007c-.014 0-.028.007-.042.007H50.4c-.021 0-.042-.007-.056-.007-.007 0-.014-.007-.035-.007q-.002.002-.014-.007c-.014 0-.029-.007-.043-.007a1 1 0 0 1-.098-.042l-1.182-.688-.014.442q0 .105-.148.19l-1.534.856c.021.028.05.057.092.078l2.195 1.278a1 1 0 0 0 .14.056.603.603 0 0 0 .183.028h.008a.7.7 0 0 0 .168-.021h.008a.6.6 0 0 0 .154-.056l1.773-.983q.041-.032.07-.064zM54.25 125.928a.4.4 0 0 1-.057-.042l-.028-.028-.007-.007c0-.007-.007-.007-.007-.014-.007-.007-.007-.021-.014-.028 0-.007-.007-.014-.007-.028v-.035l.014-.471-.183.105a.2.2 0 0 1-.07.029c-.022.007-.036.014-.057.021-.007 0-.021.007-.028.007h-.007c-.007 0-.007 0-.014.007q-.019.009-.05.007c-.013 0-.027.007-.049.007h-.14100000000000001c-.02 0-.041-.007-.063-.007q-.002.002-.014-.007c-.007 0-.014-.007-.02-.007q-.022-.009-.043-.007a1 1 0 0 1-.099-.043l-1.181-.688-.015.443q0 .105-.147.189l-1.541.857a.2.2 0 0 0 .084.07l2.195 1.278a1 1 0 0 0 .141.057c.007 0 .014.007.021.007.05.014.106.014.162.014h.007a.7.7 0 0 0 .169-.021h.007a.6.6 0 0 0 .155-.057l1.773-.983a.3.3 0 0 0 .07-.056zM57.387 127.756a.4.4 0 0 1-.057-.042c-.014-.007-.02-.021-.028-.028 0 0 0-.007-.007-.007v-.007c0-.007-.007-.007-.007-.014-.007-.007-.007-.014-.014-.028 0-.007-.007-.014-.007-.028v-.028l.014-.471-.183.106a.3.3 0 0 1-.063.028l-.056.021c-.007 0-.021.007-.029.007h-.007c-.006 0-.006 0-.014.007-.014 0-.028.007-.049.007-.014 0-.028.007-.042.007h-.14800000000000002c-.02 0-.042-.007-.056-.007-.007 0-.014-.007-.028-.007q-.01.002-.021-.007-.022-.009-.043-.007-.054-.021-.098-.042l-1.182-.689-.014.443q0 .105-.148.189l-1.534.857a.3.3 0 0 0 .085.077l2.195 1.279c.042.028.091.042.14.056q.012-.002.022.007.075.012.162.014h.007a.7.7 0 0 0 .169-.021h.007a.6.6 0 0 0 .154-.056l1.773-.984c.028-.014.05-.042.07-.063zc.007.007 0 .007 0 0M60.538 129.591a.4.4 0 0 1-.057-.042l-.028-.028-.007-.007v-.007c0-.007-.007-.007-.007-.014-.007-.007-.007-.014-.014-.028 0-.007-.007-.014-.007-.028v-.035l.014-.471-.183.106a.2.2 0 0 1-.07.028c-.021.007-.035.014-.057.021-.007 0-.014.007-.028.007h-.007c-.007 0-.007 0-.014.007-.014 0-.028.007-.05.007-.013 0-.027.007-.041.007h-.14800000000000002c-.021 0-.042-.007-.07-.007l-.015-.007c-.007 0-.014-.007-.02-.007-.015 0-.029-.007-.043-.007a1 1 0 0 1-.098-.042l-1.182-.689-.014.436c0 .07-.05.14-.148.189l-1.54.857a.2.2 0 0 0 .084.07l2.195 1.279a1 1 0 0 0 .14.056c.007 0 .014.007.022.007.049.014.105.014.161.021h.007a.7.7 0 0 0 .17-.021h.006a.6.6 0 0 0 .155-.056l1.773-.984c.028-.021.05-.035.07-.063zq.012 0 0 0M63.73 131.44q-.033-.021-.056-.042l-.029-.028-.007-.007c0-.007-.007-.007-.007-.014-.007-.007-.007-.014-.014-.029 0-.007-.007-.014-.007-.028v-.028l.021-.526-.232.126q-.032.02-.063.028c-.021.007-.035.014-.057.021-.007 0-.02.007-.028.007h-.021c-.014 0-.028.007-.049.007-.014 0-.028.007-.05.007h-.14700000000000002c-.021 0-.042-.007-.056-.007-.007 0-.021-.007-.021-.007q-.01.002-.021-.007c-.015 0-.029-.007-.043-.007q-.054-.021-.098-.042l-1.182-.688-.014.442q0 .106-.148.19l-1.534.857a.3.3 0 0 0 .085.077l2.195 1.278c.042.028.091.042.14.056a.607.607 0 0 0 .183.021h.007a.7.7 0 0 0 .17-.021h.006a.6.6 0 0 0 .155-.056l1.773-.983c.028-.014.05-.042.07-.056zM67.157 124.175a.4.4 0 0 1-.057-.042c-.014-.008-.02-.022-.028-.029 0 0 0-.007-.007-.007 0-.007-.007-.007-.007-.014-.007-.007-.007-.014-.014-.028 0-.007-.007-.014-.007-.028v-.028l.014-.47-.183.098a.2.2 0 0 1-.07.028l-.056.021c-.008 0-.022.007-.029.007h-.021c-.014 0-.028.007-.042.007s-.028.007-.042.007h-.14100000000000001c-.021 0-.042-.007-.07-.007q-.002.002-.014-.007-.01.002-.021-.007c-.014 0-.028-.007-.043-.007q-.054-.021-.098-.042l-1.759-1.025-.014.414c0 .07-.05.133-.14.19l-1.535.856a.2.2 0 0 0 .085.071l2.195 1.278a1 1 0 0 0 .14.056c.008 0 .015.007.022.007.049.014.105.014.162.014h.007a.7.7 0 0 0 .168-.021h.007a.6.6 0 0 0 .155-.056l1.773-.984c.021-.014.035-.028.057-.042zq.01 0 0 0M64.01 122.347c-.02-.014-.042-.028-.056-.042l-.028-.028s0-.007-.007-.007c0-.007-.007-.007-.007-.014-.007-.007-.007-.014-.014-.028 0-.007-.007-.021-.007-.028v-.028l.014-.471-.183.106a.2.2 0 0 1-.07.028c-.021.007-.035.014-.057.021-.007 0-.02.007-.028.007h-.021c-.014 0-.028.007-.05.007-.013 0-.027.007-.041.007h-.14100000000000001c-.021 0-.042-.007-.07-.007 0 0-.007-.007-.014-.007-.008 0-.014-.007-.021-.007-.015 0-.029-.007-.036-.007q-.054-.021-.098-.042l-1.76-1.026-.013.415q0 .105-.148.189l-1.54.857a.2.2 0 0 0 .084.07l2.195 1.278a1 1 0 0 0 .162.064q.075.021.162.021a.7.7 0 0 0 .168-.021h.007c.057-.015.106-.036.155-.057l1.773-.983c.021-.014.035-.028.056-.042zq.012 0 0 0M60.858 120.518a.3.3 0 0 1-.056-.043l-.028-.028s0-.007-.007-.007c-.007-.007-.007-.007-.007-.014-.007-.007-.007-.014-.014-.028q-.009-.009-.007-.028v-.035l.014-.471-.183.099a.2.2 0 0 1-.07.028c-.022.007-.036.014-.057.021-.007 0-.021.007-.028.007h-.021c-.014 0-.028.007-.05.007q-.021-.002-.042.007h-.14100000000000001c-.02 0-.042-.007-.056-.007-.007 0-.014-.007-.028-.007-.007 0-.014-.007-.02-.007-.015 0-.029-.007-.036-.007a1 1 0 0 1-.099-.042l-1.765-1.025-.015.414c0 .07-.049.14-.147.189l-1.534.857q.03.044.091.077l2.196 1.279a1 1 0 0 0 .161.063c.05.014.106.014.162.014h.007a.7.7 0 0 0 .169-.021h.007q.083-.023.155-.056l1.773-.984c.02-.014.035-.028.056-.042zM57.723 118.682a.4.4 0 0 1-.084-.071l-.007-.007c0-.007-.008-.007-.008-.014-.007-.007-.007-.014-.014-.028 0-.007-.007-.014-.007-.028v-.035l.014-.477-.19.105a.2.2 0 0 1-.07.028l-.056.021c-.007 0-.021.007-.028.007h-.021q-.02.009-.05.007c-.014 0-.028.007-.042.007h-.14800000000000002c-.02 0-.042-.007-.056-.007-.007 0-.028-.007-.028-.007q-.01.002-.021-.007c-.014 0-.028-.007-.042-.007q-.054-.021-.099-.042l-1.759-1.025-.014.414q0 .105-.148.19l-1.54.856a.2.2 0 0 0 .084.071l2.195 1.278a1 1 0 0 0 .14.056c.008 0 .015.007.022.007.05.014.106.014.162.014h.007a.7.7 0 0 0 .169-.021h.007a.6.6 0 0 0 .155-.056l1.773-.984a.4.4 0 0 0 .056-.049zM54.577 116.855q-.033-.021-.056-.042l-.029-.028s0-.007-.006-.007v-.007c0-.007-.008-.007-.008-.014-.007-.007-.007-.021-.014-.028 0-.007-.007-.021-.007-.028v-.028l.014-.471-.182.098c-.022.014-.043.021-.07.035-.022.007-.036.015-.057.022-.007 0-.021.007-.028.007h-.007c-.007 0-.007 0-.014.007-.014 0-.029.007-.05.007q-.021-.002-.042.007h-.14100000000000001c-.02 0-.042-.007-.056-.007-.007 0-.014-.007-.028-.007q-.01.002-.021-.007c-.014 0-.028-.007-.042-.007q-.054-.022-.099-.043l-1.759-1.025-.014.414q0 .106-.148.19l-1.533.857a.3.3 0 0 0 .084.07l2.202 1.278a.5.5 0 0 0 .141.049q.01-.002.021.007.076.021.162.021h.007a.7.7 0 0 0 .169-.021h.007a.6.6 0 0 0 .155-.056l1.773-.983c.02-.014.035-.028.056-.042zq0 .01 0 0M51.42 115.024a.4.4 0 0 1-.056-.042l-.028-.028s0-.007-.008-.007c0-.007-.007-.007-.007-.014-.007-.007-.007-.014-.014-.028 0-.008-.007-.015-.007-.029v-.035l.014-.47-.182.105a.2.2 0 0 1-.07.028c-.022.007-.036.014-.057.021-.007 0-.021.007-.028.007h-.021q-.022.009-.043.007c-.014 0-.028.007-.049.007h-.14100000000000001c-.02 0-.042-.007-.07-.007q.002.002-.028-.007h-.014c-.014 0-.028-.007-.035-.007q-.054-.021-.099-.042l-1.759-1.018-.014.414c0 .07-.05.141-.148.19l-1.54.857a.2.2 0 0 0 .084.07l2.195 1.278a.5.5 0 0 0 .14.056c.008 0 .015.007.022.007.05.014.105.014.162.014h.007a.7.7 0 0 0 .169-.021h.007a.6.6 0 0 0 .154-.056l1.773-.983c.022-.014.036-.028.057-.042zM48.273 113.193a.4.4 0 0 1-.056-.042c-.014-.008-.021-.022-.028-.029l-.007-.007c-.008-.007-.008-.014-.008-.014-.007-.007-.007-.014-.014-.028 0-.007-.007-.014-.007-.028v-.028l.014-.47-.182.105a.2.2 0 0 1-.07.028c-.022.007-.036.014-.057.021-.007 0-.014.007-.028.007h-.007q-.012-.002-.014.007c-.014 0-.028.007-.05.007q-.021-.002-.042.007h-.134c-.02 0-.042-.007-.056-.007-.007 0-.014-.007-.035-.007h-.014c-.014 0-.028-.007-.042-.007a1 1 0 0 1-.099-.042l-1.759-1.025-.014.414q0 .105-.147.19l-1.534.856c.02.028.042.05.084.078l2.195 1.278a1 1 0 0 0 .162.063c.05.014.106.014.162.014h.007a.7.7 0 0 0 .169-.021h.007a.6.6 0 0 0 .155-.056l1.773-.983c.02-.014.035-.029.056-.043zM45.136 111.366a.4.4 0 0 1-.056-.042l-.028-.028s0-.007-.007-.007q-.009-.012-.007-.014c-.007-.007-.007-.014-.014-.028 0-.007-.007-.014-.007-.028v-.036000000000000004l.014-.47-.183.105a.2.2 0 0 1-.07.028c-.022.007-.036.014-.057.021-.007 0-.02.007-.028.007h-.021c-.014 0-.028.007-.042.007s-.028.008-.043.008h-.14c-.021 0-.042-.008-.056-.008-.008 0-.014-.007-.029-.007q-.01.002-.02-.007c-.015 0-.029-.007-.043-.007a1 1 0 0 1-.098-.042l-1.76-1.025-.013.414c0 .071-.05.141-.148.19l-1.534.857c.021.028.042.056.084.077l2.196 1.278a1 1 0 0 0 .161.063c.05.014.106.014.162.014h.007a.7.7 0 0 0 .17-.021h.006c.057-.014.106-.035.155-.056l1.773-.983c.021-.014.035-.028.056-.042zM41.987 109.532q-.033-.021-.056-.042l-.028-.029-.007-.007c0-.007-.007-.014-.007-.014-.007-.007-.007-.021-.015-.028 0-.007-.007-.014-.007-.028v-.035l.015-.47-.183.098a.2.2 0 0 1-.07.028c-.022.007-.036.014-.057.021-.007 0-.021.007-.028.007h-.021c-.014 0-.028.007-.05.007-.014 0-.028.007-.042.007h-.14800000000000002c-.02 0-.042-.007-.056-.007-.007 0-.014-.007-.028-.007-.007 0-.014-.007-.021-.007-.014 0-.028-.007-.042-.007a1 1 0 0 1-.099-.042l-1.794-1.039-.014.414c0 .07-.05.14-.148.189l-1.526.85v.021a.4.4 0 0 0 .098.085l2.195 1.278a1 1 0 0 0 .141.056l.021.007q.077.021.162.021h.007a.7.7 0 0 0 .169-.021h.007c.056-.014.105-.035.155-.056l1.773-.983c.02-.015.035-.029.056-.043zM40.792 111.935a.4.4 0 0 1-.056-.042c-.014-.007-.021-.021-.028-.028l-.007-.007c0-.007-.007-.007-.007-.014-.007-.007-.007-.021-.014-.028 0-.007-.007-.014-.007-.028v-.035l.014-.471-.183.098a.2.2 0 0 1-.07.029c-.022.007-.036.014-.057.021-.007 0-.021.007-.028.007h-.021c-.014 0-.028.007-.05.007h-.183c-.02 0-.041-.007-.07-.007l-.014-.007q-.01.002-.02-.007c-.015 0-.029-.007-.043-.007a1 1 0 0 1-.099-.043l-1.153-.674-.014.408c0 .07-.05.133-.141.189l-1.541.857a.2.2 0 0 0 .084.07l2.195 1.278a1 1 0 0 0 .141.056c.007 0 .014.007.021.007q.076.022.162.022h.007a.7.7 0 0 0 .17-.022h.006a.6.6 0 0 0 .155-.056l1.773-.983c.021-.014.028-.028.05-.042zM43.22 116.348v-.028l.014-.471-.183.099c-.02.014-.042.021-.07.035l-.056.021q-.009-.002-.028.007h-.008q-.012-.002-.014.007c-.014 0-.035.007-.049.007q-.019-.002-.05.007h-.14c-.02 0-.042-.007-.056-.007-.007 0-.014-.007-.028-.007q-.002.002-.014-.007c-.014 0-.028-.007-.042-.007-.036-.007-.07-.028-.099-.042l-2.195-1.278-.007-.007c-.014-.007-.028-.022-.042-.029l-.014.408c0 .07-.05.14-.148.189l-1.534.857c.021.028.05.049.084.077l2.196 1.279a1 1 0 0 0 .161.063c.05.014.106.014.162.014h.007a.7.7 0 0 0 .17-.021h.006a.6.6 0 0 0 .155-.056l1.773-.984c.035-.021.05-.042.077-.063-.007-.007-.007-.014-.014-.028-.007-.021-.014-.028-.014-.035M46.365 118.191v-.028l.014-.471-.183.099a.2.2 0 0 1-.07.028c-.022.007-.036.014-.057.021-.007 0-.02.007-.028.007h-.021c-.014.007-.028.007-.05.007-.013 0-.027.007-.041.007h-.14900000000000002c-.02 0-.041-.007-.056-.007-.007 0-.02-.007-.02-.007-.008 0-.015-.007-.022-.007-.014 0-.028-.007-.042-.007a1 1 0 0 1-.099-.042l-2.202-1.279c-.014-.007-.028-.021-.042-.028l-.014.408c0 .07-.05.14-.14.189l-1.541.857a.2.2 0 0 0 .084.07l2.195 1.278a1 1 0 0 0 .162.064q.076.012.162.014h.007a.7.7 0 0 0 .169-.021h.007a.6.6 0 0 0 .154-.057l1.773-.983c.036-.021.057-.042.078-.063 0-.007-.007-.014-.007-.021-.021-.014-.021-.021-.021-.028M49.505 120.01v-.035l.014-.471-.183.098a.2.2 0 0 1-.07.028c-.022.007-.036.014-.057.021-.007 0-.021.007-.028.007h-.021c-.014 0-.028.008-.05.008q-.021-.002-.042.007h-.09100000000000001c-.014 0-.035 0-.05-.007-.02 0-.042 0-.056-.008-.007 0-.014-.007-.035-.007q-.002.002-.014-.007c-.014 0-.028-.007-.042-.007q-.054-.021-.099-.042l-2.202-1.278h-.007c-.014-.007-.028-.021-.042-.028l-.014.407q0 .106-.148.19l-1.534.857q.032.044.085.077l2.202 1.278a1 1 0 0 0 .14.056c.008 0 .015.007.022.007.049.014.105.014.162.014h.007a.7.7 0 0 0 .169-.021h.007a.6.6 0 0 0 .154-.056l1.773-.983c.035-.021.056-.042.078-.063-.007-.007-.007-.014-.014-.028-.014.007-.014-.007-.014-.014M52.674 121.33l-.19.105c-.021.014-.042.021-.07.035l-.056.021c-.008 0-.015.007-.029.007h-.021q-.02.009-.049.007c-.014 0-.028.007-.042.007h-.099c-.014 0-.035 0-.049-.007-.021 0-.042-.007-.056-.007q-.01.002-.021-.007-.01.002-.021-.007c-.015 0-.029-.007-.043-.007q-.054-.021-.098-.042l-2.195-1.278h-.007c-.014-.007-.029-.021-.043-.028l-.014.407c0 .07-.049.141-.147.19l-1.541.857a.2.2 0 0 0 .084.07l2.195 1.278a.5.5 0 0 0 .141.056c.007 0 .014.007.021.007q.076.012.162.014h.007a.7.7 0 0 0 .169-.021h.007a.5.5 0 0 0 .148-.056l1.773-.983c.035-.021.056-.042.084-.07 0-.007-.007-.007-.007-.014 0-.008-.007-.015-.007-.029v-.028zM55.81 123.674v-.028l.013-.47-.183.098a.2.2 0 0 1-.07.028l-.056.021c-.007 0-.021.007-.028.007h-.022c-.014 0-.028.007-.049.007-.014 0-.028.007-.042.007h-.14800000000000002c-.02 0-.042-.007-.056-.007-.007 0-.021-.007-.021-.007q-.01.002-.021-.007c-.014 0-.028-.007-.043-.007q-.054-.021-.098-.042l-2.195-1.278h-.007c-.021-.014-.035-.028-.05-.035l-.013.414c0 .07-.05.141-.148.19l-1.534.85a.4.4 0 0 0 .091.084l2.196 1.278c.042.028.091.042.14.056a.603.603 0 0 0 .183.028h.007a.7.7 0 0 0 .17-.021h.006a.6.6 0 0 0 .155-.056l1.773-.983a.4.4 0 0 0 .077-.063c-.007-.007-.007-.014-.014-.028-.014-.021-.014-.029-.014-.036M58.95 125.504v-.035l.015-.47-.183.105c-.021.014-.042.021-.07.035-.022.007-.036.014-.057.021q-.009-.002-.028.007h-.021c-.014 0-.028.007-.05.007-.014 0-.027 0-.049.007h-.14100000000000001c-.02 0-.042-.007-.056-.007-.007 0-.014-.007-.02-.007q-.012.002-.022-.007c-.014 0-.028-.007-.042-.007q-.054-.021-.099-.042l-2.195-1.278h-.007c-.014-.007-.028-.021-.035-.028l-.014.407c0 .07-.05.14-.148.19l-1.54.856c.02.028.042.05.084.071l2.195 1.278a1 1 0 0 0 .162.063c.05.014.105.014.162.014h.007a.7.7 0 0 0 .169-.021h.007a.6.6 0 0 0 .154-.056l1.773-.983c.035-.022.057-.043.078-.064q-.009-.01-.007-.021c0-.007-.021-.028-.021-.035M62.099 127.335v-.035l.014-.47-.183.098a.2.2 0 0 1-.07.028l-.056.021c-.008 0-.015.007-.029.007h-.007q-.012-.002-.014.007c-.014 0-.028.007-.049.007-.014 0-.028 0-.05.007h-.14c-.021 0-.042-.007-.056-.007q-.01.002-.021-.007-.01.002-.021-.007-.022-.009-.043-.007-.054-.021-.098-.042l-2.202-1.278c-.014-.007-.028-.021-.042-.028l-.015.414c0 .07-.049.141-.147.19l-1.534.857a.3.3 0 0 0 .084.077l2.195 1.278a1 1 0 0 0 .141.056c.007 0 .021.007.021.007.05.014.106.014.162.014a.7.7 0 0 0 .169-.021h.007a.6.6 0 0 0 .155-.056l1.773-.983c.035-.021.056-.042.077-.063-.007-.007-.007-.014-.014-.021 0-.029 0-.036-.007-.043M62.811 124.748a.4.4 0 0 1-.056-.042c-.007-.014-.021-.021-.029-.028l-.007-.007v-.007c-.007-.007-.007-.007-.007-.014-.007-.007-.007-.021-.014-.028 0-.007-.007-.021-.007-.028v-.035l.014-.471-.182.106a.3.3 0 0 1-.064.028l-.056.021c-.007 0-.021.007-.028.007h-.021c-.014 0-.029.007-.05.007-.014 0-.028.007-.042.007h-.14800000000000002c-.02 0-.042-.007-.07-.007q-.002.002-.014-.007-.01.002-.021-.007-.021-.009-.042-.007-.054-.021-.099-.042l-1.154-.674-.014.407q0 .105-.148.189l-1.54.857a.3.3 0 0 0 .084.077l2.195 1.279a1 1 0 0 0 .141.056c.007 0 .014.007.021.007.05.014.106.014.162.014h.007a.7.7 0 0 0 .169-.021h.007c.056-.014.105-.035.155-.056l1.773-.984c.02-.014.028-.028.049-.042zM59.663 122.907c-.02-.014-.042-.028-.056-.042-.007-.014-.021-.021-.028-.028 0 0 0-.007-.007-.007 0-.007-.007-.007-.007-.014-.007-.007-.007-.014-.014-.028 0-.007-.007-.021-.007-.028v-.028l.014-.471-.183.105a.2.2 0 0 1-.07.028l-.057.022c-.007 0-.02.007-.028.007h-.007c-.007 0-.007 0-.014.007-.014 0-.028.007-.05.007q-.018-.002-.049.007h-.14100000000000001c-.02 0-.042-.007-.063-.007q-.002.002-.014-.007c-.007 0-.014-.007-.02-.007-.015 0-.029-.007-.043-.007q-.054-.022-.099-.043l-1.153-.674-.014.415c0 .07-.05.133-.141.189l-1.54.857a.2.2 0 0 0 .084.07l2.195 1.278a1 1 0 0 0 .14.056c.007 0 .014.007.021.007q.077.013.162.015h.007a.7.7 0 0 0 .17-.022h.006c.057-.014.106-.035.155-.056l1.773-.983c.021-.014.035-.028.05-.042zM56.523 121.081c-.021-.014-.043-.028-.057-.042l-.028-.028-.007-.007c0-.007-.007-.007-.007-.014-.007-.007-.007-.021-.014-.028 0-.007-.007-.021-.007-.028v-.035l.021-.478-.197.106a.2.2 0 0 1-.07.028l-.056.021c-.008 0-.022.007-.029.007q-.012-.002-.014.007c-.014 0-.028.007-.049.007q-.021-.002-.042.007h-.14100000000000001c-.021 0-.042-.007-.07-.007q-.002.002-.014-.007c-.007 0-.014-.007-.021-.007-.014 0-.028-.007-.043-.007q-.054-.021-.098-.042l-1.154-.675-.014.408c0 .07-.05.133-.14.189l-1.541.857q.03.044.09.077l2.196 1.278a1 1 0 0 0 .14.057c.008 0 .022.007.022.007.05.014.105.014.162.014h.007a.7.7 0 0 0 .169-.021h.007a.6.6 0 0 0 .154-.057l1.773-.983c.021-.014.035-.028.05-.042zM53.377 119.248c-.02-.014-.042-.028-.056-.042-.014-.007-.021-.021-.028-.028 0 0 0-.007-.007-.007 0-.007-.007-.007-.007-.014-.007-.007-.007-.014-.014-.028 0-.007-.007-.014-.007-.028v-.035l.014-.471-.183.099a.3.3 0 0 1-.063.028c-.022.007-.036.014-.057.021-.007 0-.02.007-.028.007h-.007c-.007 0-.007 0-.014.007-.014 0-.028.007-.05.007q-.018-.002-.048.007h-.14900000000000002c-.02 0-.041-.007-.07-.007q-.002.002-.014-.007-.01.002-.02-.007-.022-.002-.043-.014-.054-.021-.099-.042l-1.153-.674-.014.414c0 .07-.05.133-.141.182l-1.54.857a.2.2 0 0 0 .084.07l2.195 1.279a1 1 0 0 0 .14.056c.007 0 .022.007.022.007.049.014.105.014.161.014h.007a.7.7 0 0 0 .17-.021h.006q.083-.023.155-.056l1.773-.984c.021-.014.035-.028.05-.042zM50.216 117.418c-.02-.014-.042-.028-.056-.042l-.028-.028s0-.007-.007-.007v-.007c0-.007-.007-.007-.007-.014-.007-.007-.007-.021-.014-.028 0-.007-.007-.014-.007-.028v-.029l.014-.47-.183.105a.2.2 0 0 1-.07.028l-.057.021c-.007 0-.02.007-.028.007h-.007c-.007 0-.007 0-.014.007-.014 0-.028.008-.05.008-.013 0-.027.007-.041.007h-.15600000000000003c-.02 0-.041-.007-.07-.007 0 0-.007 0-.014-.008-.007 0-.014.001-.02-.007-.015 0-.029-.007-.043-.007a1 1 0 0 1-.098-.042l-1.154-.674-.014.407c0 .071-.05.134-.141.19l-1.54.857q.03.044.084.077l2.195 1.278a1 1 0 0 0 .14.056c.007 0 .014.007.022.007.049.014.105.014.161.014h.007a1 1 0 0 0 .176-.021q.083-.023.155-.056l1.773-.983a.3.3 0 0 0 .05-.042zM47.077 115.59c-.02-.014-.042-.028-.056-.042l-.028-.028s0-.007-.007-.007c0-.007-.007-.007-.007-.014-.007-.007-.007-.014-.014-.028 0-.007-.007-.015-.007-.029v-.035l.014-.463-.183.098a.3.3 0 0 1-.063.028l-.057.021c-.007 0-.02.007-.028.007h-.007c-.007 0-.007 0-.014.007-.014 0-.028.007-.05.007-.013 0-.027.007-.041.007h-.14800000000000002c-.021 0-.042-.007-.056-.007-.008 0-.015-.007-.029-.007-.007 0-.014-.007-.02-.007-.015 0-.029-.007-.043-.007a1 1 0 0 1-.098-.042l-1.154-.674-.014.407c0 .071-.05.134-.141.19l-1.54.857q.03.044.084.077l2.195 1.278c.042.021.084.042.14.049.007 0 .014.007.022.007.049.014.105.014.161.014h.007a.7.7 0 0 0 .17-.021h.006a.6.6 0 0 0 .155-.056l1.773-.983c.021-.014.028-.028.05-.042zM43.924 113.759a.4.4 0 0 1-.056-.042l-.028-.029-.007-.007c0-.007-.007-.007-.007-.014-.007-.007-.007-.021-.014-.028 0-.007-.007-.014-.007-.028v-.028l.014-.47-.183.105q-.032.02-.064.028l-.056.021c-.007 0-.02.007-.028.007h-.007c-.007 0-.007 0-.014.007-.014 0-.028.007-.05.007-.013 0-.028.007-.049.007h-.10500000000000001c-.014 0-.035 0-.05-.007-.02 0-.042-.007-.056-.007q-.009.002-.028-.007h-.014q-.021-.009-.042-.007a1 1 0 0 1-.099-.042l-1.153-.674-.014.414c0 .07-.05.134-.141.19l-1.541.856c.021.029.05.05.084.078l2.195 1.278a1 1 0 0 0 .162.063c.05.014.106.014.162.014h.007a.7.7 0 0 0 .17-.021h.006q.083-.023.155-.056l1.773-.983c.021-.014.028-.028.05-.042zM65.963 126.57a.3.3 0 0 1-.056-.043c-.014-.007-.021-.021-.028-.028l-.007-.007c0-.007-.007-.007-.007-.014-.007-.007-.007-.021-.014-.028 0-.007-.007-.014-.007-.028v-.035l.014-.471-.183.106c-.021.014-.042.021-.07.035-.022.007-.036.014-.057.021-.007 0-.02.007-.028.007h-.021c-.014 0-.028.007-.05.007q-.02-.002-.041.007h-.14900000000000002c-.02 0-.041-.007-.07-.007q-.002.002-.014-.007-.01.002-.02-.007c-.015-.007-.029-.007-.043-.014q-.054-.021-.099-.042l-1.153-.674-.014.407c0 .07-.05.133-.141.19l-1.54.856a.2.2 0 0 0 .084.071l2.195 1.278a1 1 0 0 0 .14.056c.007 0 .014.007.021.007.05.014.106.014.162.014h.007a.7.7 0 0 0 .17-.021h.006a.6.6 0 0 0 .155-.056l1.773-.983c.021-.007.028-.029.05-.043zc.007.007 0 .007 0 0M65.244 129.163v-.035l.014-.471-.183.098a.2.2 0 0 1-.07.029c-.022.007-.036.014-.057.021-.007 0-.021.007-.028.007h-.021c-.014 0-.028.007-.05.007-.014 0-.028.007-.049.007h-.14100000000000001c-.02 0-.042-.007-.056-.007-.007 0-.014-.007-.028-.007-.007 0-.014-.007-.02-.007q-.023-.009-.043-.007a1 1 0 0 1-.099-.043l-2.195-1.278h-.007a.2.2 0 0 1-.035-.028l-.014.408q0 .105-.148.189l-1.534.857a.23.23 0 0 0 .085.077l2.195 1.278a1 1 0 0 0 .14.056.566.566 0 0 0 .183.029h.008a.7.7 0 0 0 .169-.022h.007a.6.6 0 0 0 .154-.056l1.773-.983a.4.4 0 0 0 .078-.063c0-.007-.007-.014-.007-.021-.021-.014-.021-.021-.021-.035M40.06 114.528v-.028l.014-.471-.183.098c-.021.014-.042.021-.07.035-.021.007-.035.014-.056.022-.008 0-.022.007-.029.007h-.021c-.014 0-.028.007-.049.007-.014 0-.028.007-.042.007h-.14800000000000002c-.021 0-.042-.007-.056-.007-.007 0-.014-.007-.028-.007q-.011.002-.022-.007c-.014 0-.028-.008-.042-.008a1 1 0 0 1-.098-.042l-2.195-1.278h-.007a.2.2 0 0 1-.035-.028l-.015.407c0 .071-.049.141-.147.19l-1.534.857a.23.23 0 0 0 .084.077l2.195 1.278a1 1 0 0 0 .162.063q.077.012.162.014h.007a.7.7 0 0 0 .169-.021h.007a.6.6 0 0 0 .155-.056l1.773-.983c.035-.021.056-.042.077-.063q-.009-.01-.007-.021c-.014-.028-.021-.035-.021-.042M42.566 106.791a.4.4 0 0 1-.057-.042l-.028-.028-.007-.007c0-.007-.007-.007-.007-.014-.007-.007-.007-.021-.014-.028 0-.007-.007-.014-.007-.028v-.035l.021-.506-.21.12a.2.2 0 0 1-.071.028c-.021.007-.035.014-.057.021-.007 0-.02.007-.028.007h-.021c-.014 0-.028.007-.05.007-.013 0-.027.007-.048.007h-.14100000000000001c-.021 0-.042-.007-.056-.007-.007 0-.014-.007-.021-.007s-.015-.007-.022-.007c-.014 0-.028-.007-.042-.007a1 1 0 0 1-.098-.042l-1.14-.661-.014.408c0 .07-.05.133-.14.189l-1.535.85a.3.3 0 0 0 .099.084l2.195 1.279a1 1 0 0 0 .14.056c.008 0 .015.007.022.007q.076.021.162.021h.007a.7.7 0 0 0 .169-.021h.007a.6.6 0 0 0 .154-.056l1.773-.984c.022-.014.035-.028.05-.042zM45.723 108.623c-.021-.014-.043-.028-.057-.042l-.028-.028-.007-.007c0-.007-.007-.007-.007-.014-.007-.007-.007-.014-.014-.028q-.009-.009-.007-.028v-.035l.014-.471-.183.099a.2.2 0 0 1-.07.028l-.056.021c-.008 0-.014.007-.029.007h-.007q-.012-.002-.014.007c-.014 0-.028.007-.049.007q-.021-.002-.042.007h-.092c-.014 0-.035 0-.049-.007-.021 0-.042-.007-.056-.007-.007 0-.014-.007-.021-.007q-.01.002-.021-.007c-.014 0-.028-.007-.043-.007a1 1 0 0 1-.098-.042l-1.154-.674-.014.407c0 .063-.05.133-.14.189l-1.541.857a.2.2 0 0 0 .084.07l2.195 1.279a.5.5 0 0 0 .14.056c.008 0 .015.007.022.007q.076.012.162.014h.007a.7.7 0 0 0 .169-.021h.007q.082-.023.154-.056l1.773-.984c.021-.014.028-.028.05-.042zM48.87 110.452c-.02-.014-.042-.028-.056-.042-.014-.007-.021-.021-.028-.028l-.007-.007c0-.007-.007-.007-.007-.014-.007-.007-.007-.021-.014-.028 0-.007-.007-.014-.007-.028v-.028l.014-.471-.183.099c-.021.014-.042.021-.07.035-.022.007-.036.014-.057.021-.007 0-.02.007-.028.007h-.021c-.014 0-.028.007-.05.007-.013 0-.027.007-.041.007h-.099c-.014 0-.035 0-.05-.007-.02 0-.041-.007-.055-.007-.008 0-.015-.007-.036-.007q-.002.002-.014-.007c-.014 0-.028-.007-.042-.007a1 1 0 0 1-.099-.042l-1.153-.675-.014.408c0 .07-.05.133-.141.189l-1.534.857c.021.028.05.049.084.077l2.196 1.279a1 1 0 0 0 .14.056c.007 0 .014.007.022.007.049.014.105.014.161.014h.007a.7.7 0 0 0 .17-.021h.006a.6.6 0 0 0 .155-.056l1.773-.984c.021-.014.028-.028.05-.042zM52.01 112.285q-.032-.021-.055-.042c-.014-.007-.021-.021-.029-.028l-.007-.007c0-.007-.007-.007-.007-.014-.007-.007-.007-.021-.014-.028 0-.007-.007-.014-.007-.028v-.035l.014-.471-.183.098c-.02.014-.042.022-.07.036l-.056.021q-.009-.002-.028.007h-.007q-.012-.002-.014.007c-.014 0-.028.007-.05.007q-.021-.002-.042.007h-.14800000000000002c-.02 0-.042-.007-.063-.007l-.014-.007q-.01.002-.021-.007c-.014 0-.028-.007-.042-.007q-.054-.021-.099-.042l-1.154-.675-.014.408q-.002.105-.14.189l-1.541.857a.2.2 0 0 0 .084.07l2.195 1.278a1 1 0 0 0 .162.064q.076.021.162.021h.007a.7.7 0 0 0 .169-.021h.007c.056-.014.105-.036.155-.057l1.773-.983q.029-.021.049-.042zM55.167 114.112a.4.4 0 0 1-.056-.042c-.007-.014-.021-.021-.028-.028l-.007-.007c0-.008-.007-.007-.007-.015-.007-.007-.007-.014-.014-.028q-.009-.009-.007-.028v-.035l.014-.47-.183.098a.2.2 0 0 1-.07.028c-.022.007-.036.014-.057.021-.007 0-.021.007-.028.007h-.007q-.012-.002-.014.007c-.014 0-.028.007-.05.007-.014 0-.027.007-.042.007h-.098c-.014 0-.035 0-.05-.007-.02 0-.042-.007-.056-.007-.007 0-.014-.007-.02-.007q-.012.002-.022-.007c-.014 0-.028-.007-.042-.007a1 1 0 0 1-.099-.042l-1.153-.674-.014.407c0 .07-.05.134-.141.19l-1.541.857q.032.044.084.077l2.195 1.278a1 1 0 0 0 .162.063q.076.012.162.014h.007a.7.7 0 0 0 .17-.021h.006a.6.6 0 0 0 .155-.056l1.773-.983c.021-.014.028-.028.05-.042zM58.308 115.946q-.033-.021-.056-.042l-.029-.028-.007-.007c0-.007-.007-.007-.007-.014-.007-.007-.007-.014-.014-.028 0-.007-.007-.014-.007-.028v-.028l.014-.471-.183.098c-.02.014-.042.021-.07.036l-.056.021c-.007 0-.021.007-.028.007h-.008c-.007 0-.007 0-.014.007-.014 0-.028.007-.049.007-.014 0-.028.007-.042.007h-.14100000000000001c-.02 0-.042-.007-.056-.007l-.028-.007c-.007 0-.014-.007-.021-.007q-.021-.009-.042-.007-.055-.02-.099-.043l-1.154-.674-.014.408q0 .105-.148.189l-1.533.857q.03.04.084.07l2.195 1.278a1 1 0 0 0 .14.057c.008 0 .015.007.022.007q.076.021.162.021h.007a.7.7 0 0 0 .169-.021h.007q.082-.024.154-.057l1.773-.983c.022-.014.029-.028.05-.042zM61.456 117.777c-.02-.014-.042-.028-.056-.042-.014-.008-.021-.022-.028-.029l-.007-.007c-.007-.007-.007-.007-.007-.014-.007-.007-.007-.021-.014-.028 0-.007-.007-.014-.007-.028v-.035l.014-.477-.19.105c-.021.014-.042.021-.07.035-.022.007-.036.014-.057.021-.007 0-.014.007-.028.007h-.007q-.012-.002-.014.007c-.014 0-.028.007-.05.007q-.018-.002-.049.007h-.14100000000000001c-.02 0-.042-.007-.063-.007q-.002.002-.014-.007-.01.002-.02-.007c-.015-.007-.029-.007-.043-.014a1 1 0 0 1-.098-.042l-1.154-.674-.014.407c0 .07-.05.133-.141.19l-1.534.856c.021.028.05.057.091.078l2.196 1.278a.5.5 0 0 0 .14.056c.007 0 .014.007.021.007.05.014.106.014.162.014h.007a.7.7 0 0 0 .17-.021h.006q.083-.023.155-.056l1.773-.983c.021-.014.035-.029.05-.043zM64.6 119.609q-.033-.021-.056-.042c-.014-.007-.021-.022-.028-.029l-.008-.007c0-.007-.007-.007-.007-.014-.007-.007-.007-.014-.014-.028 0-.007-.007-.014-.007-.028v-.035l.014-.47-.183.098c-.02.014-.042.021-.07.035l-.056.021c-.007 0-.021.007-.028.007h-.007c-.007 0-.007 0-.014.007-.014 0-.028.007-.05.007-.014 0-.028.007-.042.007h-.14800000000000002c-.02 0-.042-.007-.07-.007q-.002.002-.014-.007-.01.002-.021-.007c-.014-.007-.028-.007-.042-.014q-.054-.021-.099-.042l-1.154-.674-.014.414c0 .063-.049.133-.14.183l-1.541.856c.02.029.042.05.084.071l2.195 1.278a1 1 0 0 0 .162.063c.05.014.106.014.162.014h.007a.7.7 0 0 0 .169-.021h.007c.056-.014.105-.035.155-.056l1.773-.983c.02-.014.028-.028.049-.043zc.007.007.007 0 0 0M67.758 121.434q-.033-.021-.056-.042c-.007-.014-.022-.022-.029-.029 0 0 0-.007-.007-.007 0-.007-.007-.007-.007-.014-.007-.007-.007-.021-.014-.028 0-.007-.007-.014-.007-.028v-.028l.014-.477-.183.105c-.02.014-.042.021-.07.035l-.056.021c-.007 0-.014.007-.028.007h-.022c-.014 0-.028.007-.049.007q-.021-.002-.042.007h-.14800000000000002c-.02 0-.042-.007-.063-.007q-.002.002-.014-.007-.01.002-.021-.007c-.014 0-.028-.007-.043-.007q-.054-.021-.098-.042l-1.154-.674-.014.407c0 .07-.05.134-.14.19l-1.534.856q.03.045.084.078l2.195 1.278a.7.7 0 0 0 .162.063q.076.021.162.021h.007a.7.7 0 0 0 .169-.021h.007q.082-.023.154-.056l1.773-.983c.022-.014.029-.028.05-.042zM70.902 123.266c-.02-.014-.042-.028-.056-.042l-.028-.029s0-.007-.007-.007v-.007c0-.007-.007-.007-.007-.014-.007-.007-.007-.014-.014-.028 0-.007-.007-.021-.007-.028v-.028l.014-.47-.183.098c-.021.014-.042.021-.07.035-.022.007-.036.014-.057.021-.007 0-.02.007-.028.007h-.007q-.012-.002-.014.007c-.014 0-.028.007-.05.007q-.02-.002-.041.007h-.14200000000000002c-.02 0-.041-.007-.055-.007q-.012.002-.022-.007-.01.002-.02-.007c-.015 0-.029-.007-.043-.007q-.054-.021-.098-.042l-1.154-.674-.014.407c0 .063-.05.134-.141.19l-1.54.856c.02.029.041.05.084.071l2.195 1.278a1 1 0 0 0 .14.056c.007 0 .014.007.021.007.05.014.106.014.162.014h.007a.7.7 0 0 0 .17-.021h.006c.057-.014.106-.035.155-.056l1.773-.983c.021-.014.028-.028.05-.042zM77.179 126.93q-.033-.021-.056-.042c-.014-.007-.022-.021-.029-.028l-.006-.007c0-.008-.008-.008-.008-.015-.007-.007-.007-.021-.014-.028 0-.007-.007-.014-.007-.028v-.028l.014-.47-.182.098c-.022.014-.043.021-.07.035-.022.007-.036.014-.057.021-.007 0-.014.007-.028.007h-.007q-.012-.002-.014.007c-.014 0-.029.007-.05.007q-.021-.002-.042.007h-.14100000000000001c-.02 0-.042-.007-.063-.007q-.002.002-.014-.007-.01.002-.021-.007-.021-.002-.042-.014-.054-.021-.099-.042l-1.154-.674-.014.407q0 .105-.148.19l-1.54.857a.2.2 0 0 0 .084.07l2.195 1.278a.5.5 0 0 0 .141.056c.007 0 .014.007.021.007q.076.012.162.014h.007a.7.7 0 0 0 .169-.021h.007a.6.6 0 0 0 .155-.056l1.773-.983c.02-.014.028-.028.049-.042zq.01 0 0 0M74.043 125.094q-.033-.021-.056-.042l-.028-.028-.008-.007c0-.007-.006-.007-.006-.014-.008-.007-.008-.015-.015-.029 0-.007-.007-.014-.007-.028v-.028l.014-.47-.183.098a.2.2 0 0 1-.07.028l-.056.021c-.007 0-.021.007-.028.007h-.021c-.014 0-.028.007-.05.007q-.021-.002-.042.007h-.14100000000000001c-.02 0-.042-.007-.07-.007q-.002.002-.014-.007-.01.002-.021-.007c-.014 0-.028-.007-.042-.007-.035-.007-.07-.028-.099-.042l-1.154-.667-.014.407q-.002.105-.14.19l-1.534.857q.031.04.084.07l2.195 1.278a.5.5 0 0 0 .141.056q.01-.002.021.007.076.012.162.014a.7.7 0 0 0 .169-.021h.007c.056-.014.105-.035.155-.056l1.773-.983q.029-.021.049-.042zM70.313 126.009a.4.4 0 0 1-.056-.042l-.029-.028-.007-.007v-.007c-.007-.007-.007-.007-.007-.014-.007-.007-.007-.014-.014-.028 0-.007-.007-.014-.007-.028v-.036000000000000004l.014-.47-.183.105a.2.2 0 0 1-.07.028l-.056.021c-.007 0-.021.007-.028.007h-.021c-.014 0-.029.007-.043.007s-.028.007-.042.007h-.091c-.014 0-.035 0-.05-.007-.02 0-.042-.007-.07-.007q-.002.002-.014-.007-.01.002-.021-.007c-.014 0-.028-.007-.035-.007q-.054-.021-.099-.042l-1.759-1.025-.014.414c0 .07-.05.141-.148.19l-1.533.857a.2.2 0 0 0 .084.07l2.195 1.278a1 1 0 0 0 .162.063q.076.021.162.021h.007a.7.7 0 0 0 .169-.021h.007a.6.6 0 0 0 .155-.056l1.773-.983c.02-.014.035-.028.056-.042zM69.15 128.432a.4.4 0 0 1-.056-.042c-.014-.007-.021-.021-.028-.028 0 0 0-.007-.007-.007v-.007c0-.007-.007-.007-.007-.014-.008-.007-.008-.014-.015-.028 0-.007-.007-.014-.007-.028v-.036000000000000004l.022-.519-.233.126a.2.2 0 0 1-.07.028l-.056.021c-.007 0-.021.007-.028.007h-.020999999999999998q-.02.009-.05.007-.021-.002-.042.007h-.14800000000000002c-.02 0-.042-.007-.07-.007q-.002.002-.014-.007-.01.002-.021-.007c-.014-.007-.028-.007-.043-.014a1 1 0 0 1-.098-.042l-1.154-.674-.014.414c0 .071-.05.134-.14.19l-1.541.857a.3.3 0 0 0 .084.077l2.195 1.278a1 1 0 0 0 .14.056c.008 0 .022.007.022.007.05.014.106.014.162.014h.007a.7.7 0 0 0 .169-.021h.007q.082-.023.154-.056l1.773-.983c.022-.014.029-.028.05-.042zM70.138 129.416q0 .105-.148.19l-1.54.856a.3.3 0 0 0 .084.078l2.73 1.587a1 1 0 0 0 .161.063c.05.014.106.014.162.014h.007a.7.7 0 0 0 .169-.021h.007q.083-.023.155-.056l1.773-.983c.02-.015.028-.029.049-.043l-3.588-2.085zM68.522 131.138q-.033-.021-.056-.042c-.015-.007-.022-.021-.029-.028l-.007-.007v-.007c0-.007-.007-.007-.007-.014-.007-.007-.007-.014-.014-.028 0-.007-.007-.014-.007-.028v-.035l.014-.471-.183.099c-.02.014-.042.021-.07.035l-.056.021c-.007 0-.014.007-.028.007h-.007q-.013-.002-.015.007c-.014 0-.028.007-.049.007-.014 0-.028.007-.042.007h-.098c-.015 0-.036 0-.05-.007-.02 0-.042-.007-.056-.007-.007 0-.021-.007-.021-.007q-.01.002-.021-.007c-.014 0-.028-.007-.043-.007q-.054-.021-.098-.042l-2.195-1.279h-.007c-.014-.007-.028-.021-.042-.028l-.014.415q0 .105-.148.189l-1.513.843c.007.007 0 .014.007.028.021.028.05.056.099.084l4.805 2.795a1 1 0 0 0 .14.057.607.607 0 0 0 .183.021h.008a.7.7 0 0 0 .168-.021h.008a.6.6 0 0 0 .154-.057l1.773-.983c.021-.014.029-.028.05-.035zM64.693 132.452q0 .105-.147.189l-1.534.857c.02.028.049.049.084.077l2.195 1.279a.5.5 0 0 0 .141.056q.01-.002.021.007.076.021.162.021h.007a.7.7 0 0 0 .169-.021h.007a.6.6 0 0 0 .155-.056l1.773-.984a1 1 0 0 0 .07-.063l-3.082-1.791zM65.618 135.532h-.10600000000000001c-.02 0-.041-.007-.055-.007-.008 0-.015-.007-.036-.007q-.002.002-.014-.007c-.014 0-.028-.007-.042-.007a1 1 0 0 1-.099-.042l-2.202-1.278h-.007c-.02-.015-.035-.022-.049-.036l-.014.429c0 .07-.05.133-.14.189l-1.541.857a.2.2 0 0 0 .084.07l1.703.991c.042.021.084.042.14.049a.606.606 0 0 0 .183.021h.007a.7.7 0 0 0 .17-.021h.006a.6.6 0 0 0 .155-.056l1.773-.984a.24.24 0 0 0 .126-.154q-.021-.009-.042-.007M62.938 134.02v-.035l.014-.471-.183.106a.2.2 0 0 1-.07.028l-.056.021c-.007 0-.022.007-.029.007h-.007c-.007 0-.007 0-.014.007-.014 0-.028.007-.049.007q-.021-.002-.042.007h-.14100000000000001c-.02 0-.042-.007-.056-.007-.007 0-.014-.007-.035-.007h-.014c-.014 0-.029-.007-.043-.007q-.054-.021-.098-.042l-2.195-1.279h-.007c-.021-.014-.035-.028-.05-.035l-.014.422q-.002.105-.14.189l-1.541.857c.021.028.042.056.084.077l2.195 1.278a1 1 0 0 0 .141.057c.007 0 .014.007.021.007q.076.021.162.021h.007a.7.7 0 0 0 .169-.021h.007a.6.6 0 0 0 .155-.057l1.773-.983c.035-.021.056-.042.084-.07-.007-.007-.007-.014-.014-.028-.014-.028-.014-.035-.014-.049M59.794 132.192v-.035l.014-.47-.183.105q-.031.02-.064.028l-.056.021c-.007 0-.021.007-.028.007h-.021c-.014 0-.028.007-.05.007q-.02-.002-.042.007h-.09800000000000002c-.014 0-.035 0-.05-.007-.02 0-.042-.007-.056-.007-.007 0-.014-.007-.028-.007q-.01.002-.02-.007-.022-.009-.043-.007a1 1 0 0 1-.099-.042l-2.195-1.278s-.007 0-.007-.007c-.02-.014-.035-.021-.049-.035l-.014.421c0 .07-.05.134-.14.19l-1.542.857a.2.2 0 0 0 .085.07l2.195 1.278a1 1 0 0 0 .162.063q.075.021.162.021h.007a.7.7 0 0 0 .169-.021h.007a.6.6 0 0 0 .154-.056l1.773-.983a.3.3 0 0 0 .085-.07c0-.007-.007-.014-.007-.022-.021 0-.021-.014-.021-.021M56.66 130.362v-.035l.015-.471-.183.106c-.021.014-.042.021-.07.035-.022.007-.036.014-.057.021-.007 0-.02.007-.028.007h-.021c-.014 0-.028.007-.05.007q-.02-.002-.041.007h-.14200000000000002c-.02 0-.041-.007-.055-.007-.008 0-.014-.007-.029-.007q-.01.002-.02-.007-.022-.009-.043-.007a1 1 0 0 1-.098-.042l-2.196-1.278h-.007q-.029-.022-.049-.043l-.014.429c0 .07-.05.133-.14.189l-1.541.857q.03.04.084.07l2.195 1.279a1 1 0 0 0 .162.063c.05.014.105.014.162.014h.007a.7.7 0 0 0 .169-.021h.007q.082-.023.154-.056l1.773-.984a.4.4 0 0 0 .085-.07q-.009-.01-.007-.021c-.021-.014-.021-.021-.021-.035M53.505 128.538v-.035l.014-.471-.19.105a.2.2 0 0 1-.07.029c-.022.007-.036.014-.057.021-.007 0-.021.007-.028.007h-.021c-.014 0-.028.007-.05.007q-.021-.002-.042.007h-.091c-.014 0-.035 0-.05-.007-.02 0-.042-.007-.063-.007q0 .002-.02-.007h-.015q-.021-.009-.042-.007-.054-.02-.099-.043l-2.202-1.278c-.02-.014-.035-.021-.049-.035l-.014.422c0 .07-.05.133-.14.189l-1.542.857a.2.2 0 0 0 .085.07l2.195 1.278a1 1 0 0 0 .14.056c.008 0 .015.007.022.007.049.015.105.015.161.022h.008a.7.7 0 0 0 .168-.022h.008a.6.6 0 0 0 .154-.056l1.773-.983a.3.3 0 0 0 .085-.07q-.009-.01-.007-.021c-.015-.021-.015-.028-.022-.035M50.35 126.705v-.028l.014-.471-.183.098a.2.2 0 0 1-.07.028l-.057.021c-.007 0-.02.008-.028.008h-.007c-.007 0-.007-.001-.014.007-.014 0-.028.007-.05.007q-.02-.002-.041.007h-.09100000000000001c-.015 0-.036 0-.05-.007-.021 0-.042-.007-.056-.007-.007 0-.014-.007-.021-.007s-.015-.008-.022-.008c-.014 0-.028-.007-.042-.007-.035-.007-.07-.028-.098-.042l-2.203-1.278c-.02-.014-.042-.028-.056-.042l-.028-.028s0-.007-.007-.007c0-.007-.007-.007-.007-.014-.007-.007-.007-.021-.014-.028 0-.007-.007-.014-.007-.028v-.035l.021-.478-.197.105a.2.2 0 0 1-.07.029c-.021.007-.035.014-.057.021-.007 0-.014.007-.028.007h-.021c-.014 0-.028.007-.05.007-.013 0-.027.007-.041.007h-.14100000000000001c-.021 0-.042-.007-.056-.007-.007 0-.014-.007-.021-.007s-.015-.007-.022-.007c-.014 0-.028-.007-.042-.007q-.054-.022-.098-.043l-2.195-1.278h-.007c-.021-.014-.043-.028-.057-.042-.014-.007-.02-.021-.028-.028q.002-.002-.007-.014c0-.007-.007-.007-.007-.014-.007-.007-.007-.014-.014-.028 0-.007-.007-.014-.007-.028v-.028l.014-.471-.183.098q-.032.02-.063.029l-.056.021c-.008 0-.022.007-.029.007h-.007c-.007 0-.007 0-.014.007-.014 0-.028.007-.049.007-.014 0-.028.007-.042.007h-.14800000000000002c-.021 0-.042-.007-.056-.007-.007 0-.014-.007-.028-.007q-.01.002-.021-.007c-.014 0-.029-.007-.043-.007q-.054-.021-.098-.042l-2.202-1.279h-.007q-.033-.021-.057-.042c-.014-.007-.02-.021-.028-.028 0 0 0-.007-.007-.007 0-.007-.007-.007-.007-.014-.007-.007-.007-.021-.014-.028 0-.007-.007-.014-.007-.028v-.028l.014-.471-.183.106c-.02.014-.042.021-.07.035l-.056.021c-.008 0-.021.007-.029.007h-.007c-.007 0-.007 0-.014.007-.014 0-.028.007-.049.007q-.021-.002-.042.007h-.14100000000000001c-.021 0-.042-.007-.056-.007-.007 0-.014-.007-.021-.007q-.01.002-.021-.007c-.014-.007-.029-.007-.043-.014q-.054-.021-.098-.042l-2.195-1.278h-.007q-.033-.022-.056-.043l-.029-.028s0-.007-.007-.007c0-.007-.007-.007-.007-.014-.007-.007-.007-.021-.014-.028 0-.007-.007-.014-.007-.028v-.035l.014-.471-.183.099a.2.2 0 0 1-.07.028l-.056.021c-.007 0-.021.007-.029.007h-.021c-.014 0-.028.007-.049.007-.014 0-.028.007-.05.007h-.14c-.02 0-.042-.007-.056-.007l-.028-.007c-.007 0-.014-.007-.021-.007-.014 0-.029-.007-.043-.007q-.054-.021-.098-.042l-2.202-1.278c-.021-.014-.035-.028-.05-.035l-.014.421q-.002.105-.14.189l-1.541.857c.021.028.05.049.084.077l14.79 8.603a1 1 0 0 0 .161.063c.05.015.106.015.162.015h.007a.7.7 0 0 0 .169-.022h.007a.6.6 0 0 0 .155-.056l1.773-.983a.4.4 0 0 0 .084-.07c-.007-.007-.007-.014-.014-.021-.021-.035-.028-.042-.028-.056M34.616 117.55v-.028l.014-.47-.183.105a.2.2 0 0 1-.07.028l-.056.021c-.007 0-.021.007-.028.007h-.021c-.015 0-.029.007-.05.007q-.021-.002-.042.007h-.14800000000000002c-.02 0-.042-.007-.063-.007-.007 0-.014-.007-.028-.007q-.01.002-.021-.007c-.014-.007-.028-.007-.043-.014q-.054-.021-.098-.042l-2.251-1.306-.014.414c0 .07-.05.134-.141.19l-1.541.856a.2.2 0 0 0 .084.078l2.196 1.278a.7.7 0 0 0 .147.056h.014q.077.021.162.021h.007a.7.7 0 0 0 .17-.021h.006a.6.6 0 0 0 .155-.056l1.773-.983a.3.3 0 0 0 .084-.071q-.009-.01-.007-.021.002-.023-.007-.035M30.188 115.06a.4.4 0 0 1-.056-.042l-.028-.028-.007-.007c0-.007-.007-.007-.007-.014-.007-.007-.007-.014-.014-.028 0-.007-.008-.021-.008-.028v-.028l.022-.52-.233.127a.3.3 0 0 1-.063.028l-.056.021c-.007 0-.021.007-.028.007h-.021c-.015 0-.029.007-.05.007a.1.1 0 0 0-.042.007H29.5c-.014 0-.036 0-.05-.007-.02 0-.042-.007-.056-.007-.007 0-.028-.007-.028-.007q-.01.002-.021-.007c-.014 0-.028-.007-.042-.007a1 1 0 0 1-.099-.042l-.83-.485-.014.414c0 .071-.05.134-.14.19l-1.528.85v.014c.021.028.05.056.099.084l2.195 1.278c.042.028.091.042.14.056q.012-.002.022.007.076.012.162.014h.007a.7.7 0 0 0 .169-.021h.007a.6.6 0 0 0 .154-.056l1.773-.983c.021-.014.035-.028.05-.042z"/><path fill="#5B5C71" d="M35.355 114.952a.4.4 0 0 1-.056-.042l-.028-.028-.007-.007c0-.007-.007-.007-.007-.014-.007-.007-.007-.014-.014-.028 0-.007-.007-.014-.007-.028v-.029l.014-.47-.183.098a.2.2 0 0 1-.07.028c-.022.007-.035.014-.057.021-.007 0-.02.007-.028.007h-.007c-.007 0-.007 0-.014.007-.014 0-.028.008-.05.008-.013 0-.027.007-.041.007h-.092c-.014 0-.035 0-.05-.007-.02 0-.041-.008-.062-.008q0 .002-.021-.007s-.008 0-.015-.007c-.014 0-.028-.007-.042-.007a1 1 0 0 1-.098-.042l-2.195-1.278h-.007q-.034-.021-.057-.042l-.028-.028s0-.007-.007-.007c0-.007-.007-.007-.007-.014-.007-.007-.007-.021-.014-.028 0-.007-.007-.014-.007-.028v-.035l.021-.506-.218.119a.3.3 0 0 1-.063.028l-.057.021c-.007 0-.02.007-.028.007h-.021c-.014 0-.028.008-.05.008q-.02-.002-.041.007h-.14200000000000002c-.02 0-.041-.007-.055-.007-.007 0-.014-.008-.021-.008q-.01.002-.022-.007c-.014 0-.028-.007-.042-.007a1 1 0 0 1-.098-.042l-1.808-1.053-.014.442q0 .106-.148.19l-1.47.822c0 .028.006.056.027.084v.007c.022.028.05.056.099.084l1.302.759a.5.5 0 0 0 .14.056c.007 0 .014.007.021.007.05.014.106.014.162.014h.007a.7.7 0 0 0 .17-.021h.006q.083-.023.155-.056l1.773-.984c.091-.049.14-.119.148-.189l-.021.611q0 .105-.148.189l-1.513.843q-.002.01.007.021c.021.028.05.063.092.084l3.602 2.093c.042.028.091.042.14.056a.603.603 0 0 0 .183.029h.008a.7.7 0 0 0 .168-.022h.007a.6.6 0 0 0 .155-.056l1.773-.983c.035-.021.05-.042.07-.063zM28.35 110.862c-.02-.014-.042-.028-.056-.043-.014-.007-.021-.021-.028-.028l-.007-.007v-.007c0-.007-.007-.007-.007-.014-.007-.007-.007-.021-.014-.028 0-.007-.007-.014-.007-.028v-.028l.02-.562-.28.155a.2.2 0 0 1-.071.028l-.056.021c-.007 0-.021.007-.029.007h-.021q-.02.009-.049.007c-.014 0-.028.007-.042.007h-.14100000000000001c-.02 0-.042-.007-.056-.007-.007 0-.014-.007-.028-.007q-.01.002-.021-.007-.021-.009-.043-.007-.054-.021-.098-.042l-.077-.042-.015.421c0 .07-.049.14-.147.19l-1.534.856a.4.4 0 0 0 .091.085l1.246.723a1 1 0 0 0 .162.063c.049.014.105.014.161.014h.007a.7.7 0 0 0 .17-.021h.006a.6.6 0 0 0 .155-.056l1.773-.983q.041-.031.07-.063zM24.912 108.892a.4.4 0 0 1-.056-.042c-.015-.007-.022-.021-.029-.028l-.007-.007c0-.007-.007-.007-.007-.014-.007-.007-.007-.014-.014-.028 0-.007-.007-.014-.007-.028v-.028l.021-.471-.19.105c-.02.014-.042.022-.07.036l-.056.021c-.007 0-.021.007-.028.007h-.007c-.007 0-.007 0-.014.007-.015 0-.029.007-.043.007s-.028.007-.042.007h-.134c-.02 0-.042-.007-.056-.007-.007 0-.014-.007-.028-.007q-.01.002-.021-.007c-.014 0-.028-.007-.042-.007a1 1 0 0 1-.099-.043l-.14-.084-.015.422c0 .07-.049.14-.147.189l-1.548.864c.014.007.02.021.035.028l2.505 1.461a1 1 0 0 0 .162.063c.049.014.105.014.161.021h.007a.7.7 0 0 0 .17-.021q.082-.023.154-.056l1.773-.983c.028-.014.042-.035.063-.05zq.01 0 0 0M37.838 100.636l-2.195-1.278c-.176-.106-.471-.099-.654 0l-1.773.983c-.183.105-.197.267-.021.372l2.195 1.278c.176.105.471.098.654 0l1.773-.983c.19-.098.197-.267.021-.372M40.915 102.437l-2.195-1.279c-.176-.105-.472-.098-.654 0l-1.774.984c-.19.105-.197.273-.02.372l2.195 1.278c.175.105.47.098.654 0l1.773-.983c.19-.106.197-.274.02-.372M44.065 104.254l-2.195-1.278a.77.77 0 0 0-.655 0l-1.773.983c-.183.106-.197.274-.02.372l2.194 1.279c.176.105.472.105.662 0l1.773-.984c.183-.098.19-.266.014-.372M47.237 106.112l-2.196-1.278c-.175-.105-.47-.098-.654 0l-1.773.983c-.183.106-.197.267-.02.373l2.194 1.278c.176.105.472.098.655 0l1.773-.983c.19-.099.197-.267.02-.373M50.389 107.93l-2.195-1.278a.77.77 0 0 0-.655 0l-1.773.983c-.182.105-.197.274-.02.372l2.194 1.278c.176.106.472.106.662 0l1.773-.983c.183-.098.19-.267.014-.372M53.53 109.765l-2.196-1.278c-.176-.106-.47-.099-.654 0l-1.773.983c-.183.105-.197.267-.021.372l2.195 1.278c.176.105.471.098.654 0l1.773-.983c.19-.098.197-.267.021-.372M56.691 111.595l-2.195-1.278a.72.72 0 0 0-.654 0l-1.773.983c-.19.106-.197.274-.014.373l2.195 1.278a.77.77 0 0 0 .654 0l1.773-.983c.183-.106.19-.274.014-.373M59.824 113.43l-2.195-1.278a.77.77 0 0 0-.655 0l-1.773.983c-.183.105-.19.274-.02.372l2.194 1.278c.176.106.472.106.662 0l1.773-.983c.19-.098.197-.267.014-.372M62.975 115.253l-2.195-1.278c-.176-.106-.472-.098-.655 0l-1.773.983c-.182.105-.196.267-.02.372l2.194 1.278c.176.106.472.099.655 0l1.773-.983c.183-.105.197-.274.02-.372M66.126 117.092l-2.195-1.279a.72.72 0 0 0-.654 0l-1.773.984c-.183.105-.197.273-.014.372l2.195 1.278a.77.77 0 0 0 .654 0l1.773-.983c.183-.106.19-.274.014-.372M69.278 118.909l-2.195-1.278c-.176-.105-.471-.098-.654 0l-1.773.983c-.19.106-.197.267-.021.372l2.195 1.279c.176.105.471.098.654 0l1.773-.984c.19-.098.197-.266.021-.372M72.412 120.749l-2.195-1.278c-.176-.105-.471-.098-.654 0l-1.773.983c-.183.105-.197.267-.021.372l2.195 1.278c.176.106.471.099.654 0l1.773-.983c.19-.105.204-.267.021-.372M75.56 122.575l-2.194-1.279a.77.77 0 0 0-.655 0l-1.773.984c-.183.105-.197.273-.02.372l2.194 1.278c.176.105.472.105.662 0l1.773-.983c.183-.099.19-.267.014-.372M78.716 124.409l-2.195-1.278c-.176-.105-.472-.098-.655 0l-1.773.983c-.19.106-.197.267-.02.372l2.194 1.279c.176.105.472.098.655 0l1.773-.984c.183-.105.197-.266.02-.372M81.86 126.237l-2.195-1.278c-.176-.105-.471-.098-.654 0l-1.773.983c-.19.106-.197.274-.021.373l2.195 1.278a.77.77 0 0 0 .654 0l1.773-.983c.19-.106.197-.274.021-.373M40.337 105.181l-7.409-4.312c-.175-.105-.464-.098-.654 0l-1.773.984c-.183.105-.19.266-.014.372l7.409 4.312a.72.72 0 0 0 .654 0l1.773-.984c.183-.105.197-.266.014-.372M43.506 107.017l-2.195-1.278a.72.72 0 0 0-.654 0l-1.773.983c-.183.106-.19.274-.014.373l2.195 1.278a.74.74 0 0 0 .654 0l1.773-.984c.183-.105.19-.266.014-.372M46.64 108.849l-2.195-1.278a.72.72 0 0 0-.654 0l-1.773.983c-.19.106-.197.267-.014.373l2.195 1.278a.72.72 0 0 0 .654 0l1.773-.983c.183-.106.19-.274.015-.373M49.791 110.674l-2.195-1.279a.72.72 0 0 0-.654 0l-1.773.984c-.183.105-.19.266-.014.372l2.195 1.278c.176.105.464.098.654 0l1.773-.983c.19-.106.197-.267.014-.372M52.93 112.507l-2.194-1.278a.73.73 0 0 0-.655 0l-1.773.983c-.19.105-.19.267-.014.372l2.195 1.278a.71.71 0 0 0 .655 0l1.773-.983c.19-.105.19-.274.014-.372M56.094 114.338l-2.196-1.279a.72.72 0 0 0-.654 0l-1.773.984c-.19.105-.197.267-.014.372l2.195 1.278a.72.72 0 0 0 .654 0l1.774-.983c.182-.106.19-.267.014-.372M59.233 116.17l-2.195-1.278a.71.71 0 0 0-.655 0l-1.773.983c-.182.105-.19.267-.014.372l2.196 1.278a.72.72 0 0 0 .654 0l1.773-.983c.183-.106.19-.274.014-.372M62.381 117.999l-2.195-1.278a.74.74 0 0 0-.654 0l-1.773.983c-.183.105-.19.267-.014.372l2.195 1.278a.71.71 0 0 0 .654 0l1.773-.983c.19-.105.19-.274.014-.372M65.529 119.826l-2.196-1.278a.71.71 0 0 0-.654 0l-1.773.983c-.183.105-.197.267-.014.372l2.195 1.278a.71.71 0 0 0 .654 0l1.773-.983c.183-.098.19-.267.015-.372M68.682 121.662l-2.195-1.278a.71.71 0 0 0-.654 0l-1.773.983c-.183.105-.19.267-.014.372l2.195 1.278a.71.71 0 0 0 .654 0l1.773-.983c.183-.105.19-.274.014-.372M71.816 123.486l-2.195-1.278a.72.72 0 0 0-.654 0l-1.773.983c-.19.105-.197.267-.014.372l2.195 1.278a.71.71 0 0 0 .654 0l1.773-.983c.19-.098.197-.267.014-.372M74.971 125.318l-2.195-1.278a.72.72 0 0 0-.654 0l-1.773.983c-.183.105-.19.267-.014.372l2.195 1.278a.71.71 0 0 0 .654 0l1.773-.983c.183-.105.19-.267.014-.372M78.112 127.142l-2.195-1.278a.72.72 0 0 0-.655 0l-1.773.983c-.183.106-.19.267-.014.373l2.195 1.278a.72.72 0 0 0 .655 0l1.773-.984c.183-.098.19-.266.014-.372M32.57 103.771l-2.378-1.383a.71.71 0 0 0-.655 0l-1.773.983c-.19.105-.197.267-.014.372l2.371 1.383c.176.106.472.099.654 0l1.773-.983c.19-.105.197-.274.021-.372M35.838 105.678l-2.37-1.376a.71.71 0 0 0-.655 0l-1.773.983c-.183.105-.19.274-.014.372l2.371 1.384a.72.72 0 0 0 .654 0l1.773-.984c.19-.112.197-.281.014-.379M29.137 104.867l-1.668-.962c-.175-.106-.47-.099-.654 0l-4.467 2.486c-.183.105-.197.266-.014.372l1.66.969a.72.72 0 0 0 .654 0l4.468-2.486c.183-.105.197-.274.02-.379M32.454 106.811l-2.37-1.383c-.177-.105-.472-.098-.655 0l-1.773.983c-.183.105-.197.267-.014.372l2.371 1.384a.72.72 0 0 0 .654 0l1.773-.983c.183-.099.197-.267.014-.373M42.31 109.413l-2.195-1.278c-.176-.105-.472-.098-.655 0l-1.773.983c-.182.105-.197.267-.014.372l2.195 1.278a.71.71 0 0 0 .655 0l1.773-.983c.183-.098.19-.267.014-.372"/><path fill="#5B5C71" d="m39.134 107.572-2.196-1.278c-.175-.105-.47-.105-.66 0l-2.71 1.51-.647.358-1.126.625c-.19.105-.197.274-.014.372l4.348 2.528c.176.106.472.099.655 0l1.773-.983c.183-.098.19-.267.014-.372l-1.83-1.068 2.379-1.32c.175-.105.182-.267.014-.372M45.447 111.248l-2.195-1.278c-.176-.106-.472-.106-.662 0l-1.773.983c-.182.098-.19.267-.014.372L43 112.603c.175.105.47.098.654 0l1.773-.983c.19-.105.197-.274.02-.372M48.6 113.067l-2.195-1.278a.76.76 0 0 0-.654 0l-1.773.983c-.183.105-.19.267-.014.372l2.195 1.278a.72.72 0 0 0 .654 0l1.773-.983c.183-.098.19-.267.014-.372M51.744 114.912l-2.195-1.278c-.176-.106-.472-.106-.662 0l-1.773.983c-.183.098-.19.267-.014.372l2.195 1.278c.176.106.472.099.655 0l1.773-.983c.19-.105.204-.274.02-.372M54.9 116.731l-2.202-1.278a.76.76 0 0 0-.654 0l-1.773.983c-.183.105-.19.267-.014.372l2.202 1.278a.77.77 0 0 0 .654 0l1.773-.983c.183-.098.19-.267.014-.372M58.036 118.569l-2.195-1.278c-.176-.105-.471-.098-.654 0l-1.773.983c-.183.106-.197.267-.014.373l2.195 1.278c.176.105.471.098.654 0l1.773-.983c.183-.106.19-.267.014-.373M61.181 120.392l-2.195-1.278c-.176-.105-.471-.105-.661 0l-1.773.983c-.183.099-.19.267-.014.373l2.195 1.278c.176.105.471.098.654 0l1.773-.984c.19-.105.197-.266.021-.372M64.342 122.226l-2.195-1.279c-.176-.105-.471-.098-.654 0l-1.773.984c-.183.105-.19.267-.014.372l2.195 1.278a.72.72 0 0 0 .654 0l1.773-.983c.183-.098.19-.267.014-.372M67.487 124.058l-2.195-1.278c-.176-.106-.472-.099-.655 0l-1.773.983c-.183.098-.19.267-.014.372l2.195 1.278c.176.105.472.098.655 0l1.773-.983c.176-.098.19-.267.014-.372M70.623 125.888l-2.195-1.278c-.176-.105-.472-.105-.662 0l-1.773.983c-.183.106-.19.267-.014.373l2.195 1.278a.77.77 0 0 0 .655 0l1.773-.983c.182-.106.197-.274.02-.373M76.429 129.258l-4.805-2.795c-.176-.105-.472-.098-.655 0l-1.773.983c-.183.106-.19.267-.014.372l4.806 2.796a.77.77 0 0 0 .654 0l1.773-.984c.183-.105.19-.274.014-.372M41.71 112.147l-2.196-1.278c-.176-.105-.471-.098-.654 0l-1.773.984c-.183.105-.197.273-.021.372l2.195 1.278c.176.105.471.105.661 0l1.773-.983c.183-.099.19-.267.014-.373M44.856 113.983l-2.195-1.278c-.176-.105-.471-.098-.654 0l-1.773.983c-.19.106-.197.267-.021.373l2.195 1.278c.176.105.471.098.654 0l1.773-.983c.183-.106.197-.267.021-.373M48.004 115.819l-2.195-1.278c-.176-.105-.472-.098-.655 0l-1.773.983c-.19.106-.197.274-.014.373l2.195 1.278a.77.77 0 0 0 .655 0l1.773-.983c.176-.106.19-.274.014-.373M51.156 117.645l-2.195-1.278a.76.76 0 0 0-.655 0l-1.773.983c-.183.105-.19.274-.02.372L48.706 119c.176.106.472.106.662 0l1.773-.983c.183-.098.19-.267.014-.372M54.307 119.472l-2.195-1.278c-.176-.106-.472-.099-.654 0l-1.773.983c-.183.105-.198.274-.022.372l2.196 1.278c.175.105.47.098.654 0l1.773-.983c.19-.105.197-.274.02-.372M57.454 121.309l-2.195-1.278a.76.76 0 0 0-.654 0l-1.773.983c-.183.105-.197.274-.014.372l2.195 1.278a.76.76 0 0 0 .654 0l1.773-.983c.176-.105.183-.274.014-.372M60.587 123.132l-2.195-1.278c-.176-.106-.472-.099-.655 0l-1.773.983c-.19.105-.197.267-.02.372l2.194 1.278c.176.106.472.099.655 0l1.773-.983c.19-.098.204-.267.02-.372M63.756 124.97l-2.195-1.278a.72.72 0 0 0-.654 0l-1.773.983c-.183.106-.19.274-.014.373l2.195 1.278c.176.105.471.098.654 0l1.773-.983c.183-.106.19-.267.014-.373M66.893 126.789l-2.195-1.278a.77.77 0 0 0-.655 0l-1.773.983c-.183.106-.197.274-.02.373l2.194 1.278c.176.105.472.105.662 0l1.773-.983c.183-.099.19-.267.014-.373M70.026 128.628l-2.195-1.278c-.176-.106-.472-.098-.655 0l-1.773.983c-.183.105-.197.267-.02.372l2.194 1.278c.176.106.472.099.655 0l1.772-.983c.19-.105.197-.267.022-.372M73.714 130.768l-2.73-1.587a.71.71 0 0 0-.654 0l-1.773.983c-.19.105-.197.274-.014.372l2.73 1.587a.72.72 0 0 0 .654 0l1.773-.983c.183-.105.19-.274.014-.372M29.754 108.31l-2.378-1.383a.71.71 0 0 0-.654 0l-1.773.983c-.183.105-.197.267-.014.372l2.371 1.384a.72.72 0 0 0 .654 0l1.773-.984c.19-.105.197-.274.021-.372M33.701 110.585l-2.898-1.686c-.176-.105-.472-.105-.662 0l-1.773.983c-.183.106-.19.267-.014.373l2.899 1.685a.77.77 0 0 0 .654 0l1.773-.983c.183-.105.197-.274.021-.372M36.881 112.43l-2.195-1.278a.77.77 0 0 0-.654 0l-1.773.983c-.183.105-.19.267-.014.372l2.195 1.278c.176.106.471.099.654 0l1.773-.983c.183-.105.19-.274.014-.372M40.029 114.259l-2.195-1.278c-.176-.105-.472-.105-.662 0l-1.772.984c-.183.105-.19.266-.015.372l2.196 1.278a.77.77 0 0 0 .654 0l1.773-.983c.19-.099.197-.267.021-.373M43.182 116.09l-2.195-1.278a.77.77 0 0 0-.654 0l-1.773.983c-.183.106-.19.267-.014.372l2.195 1.279c.176.105.471.098.654 0l1.773-.984c.183-.105.197-.274.014-.372M46.322 117.92l-2.195-1.278c-.176-.106-.472-.106-.662 0l-1.773.983c-.182.105-.19.267-.014.372l2.196 1.278c.175.105.47.098.654 0l1.773-.983c.183-.099.197-.267.02-.372M49.463 119.746l-2.203-1.278a.77.77 0 0 0-.654 0l-1.773.983c-.183.106-.19.267-.014.373l2.202 1.278c.176.105.472.098.654 0l1.774-.983c.182-.106.19-.274.014-.373M52.622 121.577l-2.195-1.278c-.176-.105-.471-.098-.654 0l-1.773.983c-.183.099-.197.267-.014.372l2.195 1.279c.176.105.471.098.654 0l1.773-.984c.183-.098.19-.266.014-.372M55.767 123.42l-2.195-1.278c-.176-.106-.471-.106-.661 0l-1.773.983c-.183.105-.19.267-.014.372l2.195 1.278c.176.105.471.098.654 0l1.773-.983c.19-.106.204-.274.021-.372M58.905 125.241l-2.195-1.278c-.176-.105-.472-.098-.655 0l-1.773.983c-.183.106-.19.274-.014.372l2.195 1.279a.72.72 0 0 0 .655 0l1.773-.984c.183-.105.19-.266.014-.372M62.061 127.073l-2.195-1.278c-.176-.105-.471-.098-.654 0l-1.773.983c-.183.106-.19.267-.014.373l2.195 1.278c.175.105.471.098.654 0l1.773-.984c.176-.105.19-.273.014-.372M65.209 128.896l-2.196-1.278c-.175-.105-.47-.105-.66 0l-1.774.983c-.183.106-.19.267-.014.372l2.195 1.279a.77.77 0 0 0 .655 0l1.773-.984c.19-.105.197-.266.02-.372M71.018 132.27l-4.806-2.795c-.175-.106-.471-.098-.654 0l-1.773.983c-.183.105-.197.267-.014.372l4.805 2.795a.76.76 0 0 0 .655 0l1.773-.983c.182-.098.19-.267.014-.372M23.724 107.889l-1.667-.969c-.176-.105-.472-.098-.655 0l-4.488 2.493c-.19.106-.197.267-.022.372l1.66.97c.177.105.472.098.655 0l4.489-2.494c.197-.105.204-.266.028-.372M27.112 109.861l-2.505-1.46c-.176-.106-.471-.099-.654 0l-1.773.983c-.183.098-.197.267-.014.372l2.504 1.461a.72.72 0 0 0 .654 0l1.773-.983c.183-.106.19-.274.014-.373M29.31 111.146l-1.238-.723c-.176-.106-.471-.106-.661 0l-1.773.983c-.183.098-.19.267-.014.372l1.245.723a.71.71 0 0 0 .654 0l1.773-.983c.19-.105.197-.274.014-.372M31.655 112.511l-1.302-.759c-.176-.105-.471-.098-.654 0l-1.773.983c-.183.106-.197.267-.014.373l1.301.758a.72.72 0 0 0 .654 0l1.773-.983c.183-.106.19-.274.015-.372M36.253 115.186l-3.602-2.093a.77.77 0 0 0-.654 0l-1.773.983c-.183.106-.19.267-.014.373l3.602 2.092a.71.71 0 0 0 .654 0l1.773-.983c.183-.098.197-.267.014-.372M39.411 117.019l-2.195-1.279c-.176-.105-.471-.098-.654 0l-1.773.984c-.183.105-.197.266-.014.372l2.195 1.278c.176.105.471.098.654 0l1.773-.983c.183-.106.19-.267.014-.372M42.552 118.849l-2.195-1.278c-.176-.105-.471-.105-.661 0l-1.773.983c-.183.099-.19.267-.014.373l2.195 1.278a.77.77 0 0 0 .654 0l1.773-.983c.19-.099.197-.267.021-.373M45.698 120.674l-2.195-1.279a.72.72 0 0 0-.655 0l-1.773.984c-.183.105-.19.266-.014.372l2.195 1.278a.72.72 0 0 0 .655 0l1.773-.983c.183-.106.19-.274.014-.372M48.834 122.507l-2.195-1.278c-.176-.106-.471-.099-.654 0l-1.773.983c-.183.105-.19.267-.014.372l2.195 1.278c.176.106.471.099.654 0l1.773-.983c.183-.098.19-.267.014-.372M52.006 124.345l-2.196-1.278c-.175-.105-.471-.105-.66 0l-1.774.983c-.183.106-.19.267-.014.373l2.195 1.278a.77.77 0 0 0 .654 0l1.773-.983c.19-.106.197-.274.021-.373M55.15 126.171l-2.195-1.278c-.176-.106-.472-.099-.655 0l-1.773.983c-.183.105-.197.267-.014.372l2.195 1.278c.176.106.472.099.655 0l1.773-.983c.175-.105.19-.267.014-.372M58.283 128.002l-2.195-1.278c-.176-.106-.472-.106-.662 0l-1.773.983c-.182.098-.19.267-.014.372l2.195 1.278c.176.105.472.098.655 0l1.773-.983c.19-.105.197-.274.02-.372M61.432 129.831l-2.195-1.278c-.176-.105-.471-.098-.654 0l-1.773.983c-.183.105-.19.267-.014.372l2.195 1.278a.71.71 0 0 0 .654 0l1.773-.983c.183-.098.19-.267.014-.372M64.58 131.659l-2.196-1.278c-.176-.105-.471-.098-.654 0l-1.773.983c-.183.099-.197.267-.014.372l2.195 1.279c.176.105.471.098.654 0l1.773-.984c.183-.105.197-.273.014-.372M67.728 133.486l-2.195-1.278c-.176-.105-.471-.105-.661 0l-1.773.983c-.183.105-.19.267-.014.372l2.195 1.278a.71.71 0 0 0 .654 0l1.773-.983c.183-.098.19-.267.021-.372M25.096 111.796l-2.195-1.278c-.176-.106-.471-.099-.654 0l-1.773.983c-.183.105-.197.267-.021.372l2.195 1.278c.175.106.47.099.654 0l1.773-.983c.19-.105.204-.274.021-.372M28.245 113.615l-2.196-1.278a.71.71 0 0 0-.654 0l-1.773.983c-.183.105-.19.274-.014.372l2.195 1.278a.76.76 0 0 0 .654 0l1.773-.983c.183-.105.19-.267.015-.372M31.419 115.472l-2.195-1.278c-.176-.106-.472-.099-.655 0l-1.773.983c-.19.105-.197.267-.02.372l2.194 1.278c.176.105.472.098.655 0l1.773-.983c.19-.098.197-.267.02-.372M34.569 117.299l-2.195-1.279a.72.72 0 0 0-.655 0l-1.773.984c-.183.105-.19.273-.014.372l2.195 1.278a.77.77 0 0 0 .655 0l1.773-.983c.183-.106.19-.274.014-.372M50.3 126.451l-14.79-8.602a.71.71 0 0 0-.654 0l-1.773.983c-.183.105-.197.267-.021.372l14.789 8.603c.176.105.471.098.654 0l1.773-.983c.19-.106.197-.267.021-.373M53.457 128.274l-2.196-1.278a.76.76 0 0 0-.654 0l-1.773.983c-.183.105-.19.274-.021.372l2.195 1.278c.176.105.471.105.661 0l1.773-.983c.183-.098.19-.267.014-.372M56.588 130.105l-2.195-1.279c-.176-.105-.471-.098-.654 0l-1.773.984c-.183.105-.197.266-.021.372l2.195 1.278c.176.105.471.098.654 0l1.773-.983c.19-.106.204-.267.021-.372M59.742 131.943l-2.195-1.278a.72.72 0 0 0-.654 0l-1.773.983c-.19.105-.197.274-.014.372l2.195 1.278c.176.106.471.099.654 0l1.773-.983c.176-.105.183-.274.014-.372M62.886 133.769l-2.195-1.279c-.176-.105-.471-.098-.654 0l-1.773.984c-.183.105-.19.274-.021.372l2.195 1.278c.176.105.471.105.661 0l1.773-.983c.183-.099.19-.267.014-.372M65.552 135.311l-1.703-.99a.72.72 0 0 0-.654 0l-1.773.983c-.183.106-.197.267-.014.373l1.702.99a.77.77 0 0 0 .655 0l1.773-.983c.183-.106.19-.274.014-.373"/><path fill="#DCDCE6" d="M98.819 79.58 51.737 52.19c-1.246-.723-2.737.148-3.054 1.475l-11.75 41.911c0 .323.17.618.45.78l49.968 29.067c.605.351 1.14-.043 1.365-.78l11.749-42.213a3.34 3.34 0 0 0-1.646-2.852"/><path fill="#13121A" d="M50.657 53.674a.292.292 0 0 0-.422.169L38.647 94.91a.3.3 0 0 0 .134.33l47.94 27.908a.284.284 0 0 0 .423-.168L98.73 81.912a.3.3 0 0 0-.133-.33z"/><path fill="#312F3A" d="M58.364 92.826c2.546 1.447 3.799-2.907 5.881-1.727 2.076 1.18-1.526 10.815 1.682 12.633 3.208 1.826 6.226-8.722 8.78-7.275 2.547 1.447.338 7.971 2.793 9.361 2.456 1.398 5.066-5.955 8.936-3.757L51.68 82.321c4.812 2.745 4.13 9.059 6.684 10.505"/><path fill="#EEDE6D" d="M84.501 91.635c-2.547-1.447-5.607 4.452-7.683 3.272s3.926-15.548.718-17.374-7.866 11.223-10.413 9.776 2.076-15.07-.38-16.468-8.252 15.344-12.122 13.146l34.756 19.748c-4.826-2.732-2.329-10.653-4.876-12.1"/><path fill="#A4A3CD" d="M82.328 91.566c-2.456-1.397-3.969 3.062-6.522 1.616-2.547-1.447.879-10.31-1.816-13.245-2.448-2.676-5.368 5.534-7.45 4.347-2.076-1.18-.62-4.81-3.173-6.257-2.547-1.447-6.895 7.043-11.715 4.305l34.756 19.74c-3.855-2.198-1.625-9.108-4.08-10.506"/><path fill="#DCDCE6" d="M80.872 95.787c-2.455-1.398-3.103-.373-5.657-1.82-2.547-1.446-1.217-3.145-3.904-6.08-2.449-2.677-5.108.133-7.19-1.047-2.076-1.18-2.055-3.104-5.038-3.406s-2.603 1.63-7.423-1.11l34.756 19.741c-3.862-2.191-3.089-4.88-5.544-6.278"/><path fill="#5B5C71" d="M53.936 88.261c2.455 1.398 3.42-1.44 5.966.007s-1.006 10.26 2.21 12.086c3.208 1.826 5.81-6.833 7.886-5.653s.669 4.677 3.215 6.124c2.547 1.446 5.559-3.09 10.371-.358L48.828 80.719c3.884 2.198 2.653 6.145 5.108 7.542"/><path fill="#F2B024" d="M55.084 85.895c1.794 1.783 3.012.266 7.043 2.956 2.392 1.594.148 4.867 2.596 5.344s4.278-1.208 6.353-.028 1.246 2.451 3.793 3.898c2.546 1.446 3.911-.337 8.73 2.402L48.845 80.719c3.87 2.205 4.355 3.3 6.24 5.176"/><path fill="#fff" d="m85.719 114.901.077.063 4.18-12.866-.1-.028zM75.59 110.403l.084.049 5.368-15.836-.091-.014z"/><path fill="#fff" d="m45.941 79.142 43.368 24.636.042-.127-43.367-24.635zM81.161 94.121c-.155 0-.345.176-.415.386s0 .387.155.387c.162 0 .345-.176.415-.387.077-.21.007-.386-.155-.386"/><path fill="#fff" d="m67.69 95.231-3.061 9.01.091.049 3.054-9.01 4.65-13.694-.091-.035z"/><path fill="#fff" d="M72.548 81.074c-.162 0-.345.176-.415.386s0 .387.155.387c.154 0 .344-.176.415-.386.077-.211.007-.387-.155-.387M55.707 99.223l.084.049 6.29-18.54-.091-.021z"/><path fill="#fff" d="M62.204 80.23c-.162 0-.345.176-.415.387-.07.21 0 .386.155.386.162 0 .345-.176.415-.386.07-.218 0-.386-.155-.386M47.215 94.328l.091.042 4.187-13.982-.099-.02z"/><path fill="#fff" d="M51.61 79.895c-.161 0-.344.175-.415.386-.07.21 0 .386.155.386.162 0 .345-.175.415-.386.07-.21 0-.387-.155-.387M42.234 91.533l.085.049 4.981-16.3-.098-.028z"/><path fill="#fff" d="M47.415 74.773c-.162 0-.345.176-.415.387-.07.21 0 .386.155.386.162 0 .344-.176.415-.386.077-.211.007-.387-.155-.387M90.157 101.375c-.161 0-.344.176-.415.386-.07.211 0 .386.155.386.162 0 .345-.175.415-.386.078-.21.007-.386-.155-.386"/><defs><linearGradient id="a" x1="41.586" x2="81.913" y1="147.529" y2="81.69" gradientUnits="userSpaceOnUse"><stop stop-color="#A1A1BD"/><stop offset="1" stop-color="#fff"/></linearGradient></defs></svg>