<svg xmlns="http://www.w3.org/2000/svg" width="131" height="209" fill="none"><path fill="#5B5C71" d="m0 163.821 23.233 13.315V40.174L0 26.859z"/><path fill="#313247" d="m23.234 177.132 48.182-26.858V13.313L23.234 40.17z"/><path fill="#13121A" d="m23.234 177.135 1.727-.993V39.18l-1.727.993z"/><path fill="#EEDE6D" d="m23.234 134.448 1.727-.993v-12.947l-1.727.993z"/><path fill="#13121A" d="m26.129 175.502 1.737-.993V37.547l-1.737.994z"/><path fill="#EEDE6D" d="m26.129 88.105 1.737-.994V74.164l-1.737.994z"/><path fill="#13121A" d="m29.02 173.873 1.736-.993V35.918l-1.736.994z"/><path fill="#EEDE6D" d="m29.02 163.304 1.736-.994v-12.947l-1.736.994z"/><path fill="#13121A" d="m31.93 172.248 1.736-.993V34.293l-1.736.994z"/><path fill="#EEDE6D" d="m31.93 108.405 1.736-.993V94.465l-1.736.993zM31.93 78.902l1.736-.984V64.96l-1.736.994z"/><path fill="#13121A" d="m34.828 170.623 1.737-.993V32.668l-1.737.984z"/><path fill="#EEDE6D" d="m34.828 49.859 1.737-.994V35.918l-1.737.994z"/><path fill="#13121A" d="m37.73 168.995 1.737-.994V31.039l-1.736.994z"/><path fill="#EEDE6D" d="m37.73 139.089 1.737-.984v-12.957l-1.736.994z"/><path fill="#13121A" d="m40.629 167.37 1.737-.994V29.414l-1.737.994z"/><path fill="#EEDE6D" d="m40.629 65.448 1.737-.993V51.508l-1.737.993z"/><path fill="#13121A" d="m43.535 165.737 1.737-.994V27.781l-1.737.994z"/><path fill="#EEDE6D" d="m43.535 165.558 1.737-.994v-12.947l-1.737.984z"/><path fill="#13121A" d="m46.434 164.108 1.736-.994V26.152l-1.736.994z"/><path fill="#EEDE6D" d="m46.434 95.08 1.736-.994V81.129l-1.736.993zM46.434 115.808l1.736-.994v-12.947l-1.736.994z"/><path fill="#13121A" d="m49.336 162.491 1.737-.994V24.535l-1.737.984z"/><path fill="#EEDE6D" d="m49.336 156.206 1.737-.993v-12.947l-1.737.993z"/><path fill="#13121A" d="m52.234 160.858 1.737-.994V22.902l-1.737.994z"/><path fill="#EEDE6D" d="m52.234 129.273 1.737-.994v-12.947l-1.737.994z"/><path fill="#13121A" d="m55.137 159.229 1.737-.994V21.273l-1.737.994z"/><path fill="#EEDE6D" d="m55.137 73.292 1.737-.993V59.352l-1.737.993z"/><path fill="#13121A" d="m58.04 157.6 1.736-.994V19.645l-1.737.993z"/><path fill="#EEDE6D" d="m58.04 84.698 1.736-.993V70.758l-1.737.993z"/><path fill="#13121A" d="m60.941 155.967 1.737-.993V18.012l-1.737.993z"/><path fill="#EEDE6D" d="m60.941 38.007 1.737-.994V24.066l-1.737.994z"/><path fill="#13121A" d="m63.84 154.338 1.737-.993V16.383l-1.737.993z"/><path fill="#EEDE6D" d="m63.84 138.284 1.737-.993v-12.947l-1.737.993zM63.84 153.12l1.737-.993V139.18l-1.737.993zM63.84 99.76l1.737-.993V85.82l-1.737.994z"/><path fill="#13121A" d="m66.742 152.721 1.737-.994V14.766l-1.737.993z"/><path fill="#EEDE6D" d="m66.742 63.76 1.737-.994V49.809l-1.737.993z"/><path fill="#13121A" d="m69.652 151.088 1.737-.993V13.133l-1.737.993z"/><path fill="#EEDE6D" d="m69.652 108.405 1.737-.993V94.465l-1.737.993z"/><path fill="#A4A3CD" d="m0 26.858 23.233 13.314 48.182-26.857L48.192 0zM29.727 180.153l10.237 5.485V78.942l-10.237-5.485z"/><path fill="#312F3A" d="m39.965 185.636 48.182-26.858V52.082L39.965 78.94z"/><path fill="#DCDCE6" d="m29.727 73.456 10.237 5.484 48.182-26.857-10.237-5.485z"/><path fill="#A4A3CD" d="m43.324 187.387 10.237 5.485V86.176l-10.237-5.485z"/><path fill="#312F3A" d="m53.563 192.87 48.182-26.858V59.316L53.562 86.174z"/><path fill="#DCDCE6" d="m43.324 80.69 10.237 5.485 48.182-26.858-10.237-5.485z"/><path fill="#5B5C71" d="m58.79 195.685 23.222 13.314V72.037L58.789 58.723z"/><path fill="#313247" d="m82.012 208.995 48.192-26.857V45.176L82.012 72.034z"/><path fill="#13121A" d="m82.012 208.998 1.737-.993V71.043l-1.737.994z"/><path fill="#EEDE6D" d="m82.012 166.312 1.737-.984v-12.957l-1.737.994z"/><path fill="#13121A" d="m84.914 207.366 1.737-.994V69.41l-1.737.994z"/><path fill="#EEDE6D" d="m84.914 119.968 1.737-.994v-12.947l-1.737.994z"/><path fill="#13121A" d="m87.813 205.737 1.736-.984V67.781l-1.737.994z"/><path fill="#EEDE6D" d="m87.813 195.167 1.736-.984v-12.956l-1.737.993z"/><path fill="#13121A" d="m90.719 204.11 1.737-.984V66.164l-1.737.984z"/><path fill="#EEDE6D" d="m90.719 140.279 1.737-.994v-12.957l-1.737.994zM90.719 110.775l1.737-.994V96.824l-1.737.994z"/><path fill="#13121A" d="m93.617 202.487 1.737-.994V64.531l-1.737.994z"/><path fill="#EEDE6D" d="m93.617 81.732 1.737-.994V67.781l-1.737.994z"/><path fill="#13121A" d="m96.52 200.858 1.736-.994V62.902l-1.737.994z"/><path fill="#EEDE6D" d="m96.52 170.964 1.736-.994v-12.947l-1.737.984z"/><path fill="#13121A" d="m99.418 199.233 1.737-.994V61.277l-1.737.994z"/><path fill="#EEDE6D" d="m99.418 97.322 1.737-.994V83.371l-1.737.994z"/><path fill="#13121A" d="m102.324 197.6 1.737-.994V59.645l-1.737.993z"/><path fill="#EEDE6D" d="m102.324 197.421 1.737-.994V183.48l-1.737.994z"/><path fill="#13121A" d="m105.223 195.979 1.737-.994V58.023l-1.737.984z"/><path fill="#EEDE6D" d="m105.223 126.945 1.737-.994v-12.947l-1.737.994zM105.223 147.671l1.737-.994V133.73l-1.737.994z"/><path fill="#13121A" d="m108.125 194.354 1.737-.994V56.398l-1.737.994z"/><path fill="#EEDE6D" d="m108.125 188.07 1.737-.994v-12.947l-1.737.994z"/><path fill="#13121A" d="m111.023 192.721 1.737-.993V54.766l-1.737.993z"/><path fill="#EEDE6D" d="m111.023 161.136 1.737-.984v-12.957l-1.737.994z"/><path fill="#13121A" d="m113.926 191.092 1.737-.993V53.137l-1.737.993z"/><path fill="#EEDE6D" d="m113.926 105.155 1.737-.983V91.215l-1.737.993z"/><path fill="#13121A" d="m116.828 189.463 1.737-.993V51.508l-1.737.993z"/><path fill="#EEDE6D" d="m116.828 116.562 1.737-.994v-12.947l-1.737.994z"/><path fill="#13121A" d="m119.73 187.832 1.737-.983V49.887l-1.737.983z"/><path fill="#EEDE6D" d="m119.73 69.87 1.737-.983V55.93l-1.737.993z"/><path fill="#13121A" d="m122.629 186.213 1.737-.993V48.258l-1.737.993z"/><path fill="#EEDE6D" d="m122.629 170.148 1.737-.994v-12.947l-1.737.994zM122.629 184.984l1.737-.994v-12.947l-1.737.994zM122.629 131.624l1.737-.993v-12.947l-1.737.993z"/><path fill="#13121A" d="m125.531 184.584 1.737-.993V46.629l-1.737.994z"/><path fill="#EEDE6D" d="m125.531 95.624 1.737-.993V81.684l-1.737.993z"/><path fill="#13121A" d="m128.441 182.952 1.737-.994V44.996l-1.737.994z"/><path fill="#EEDE6D" d="m128.441 140.279 1.737-.994v-12.957l-1.737.994z"/><path fill="#A4A3CD" d="m58.79 58.721 23.222 13.315 48.192-26.858-23.233-13.315z"/></svg>