<svg xmlns="http://www.w3.org/2000/svg" width="206" height="209" fill="none"><path fill="#13121A" d="m33.515 112.061-1.433.449 10.394 5.753a9.08 9.08 0 0 0 9.058.019l23.664-13.329a3.55 3.55 0 0 0 1.794-3.09v-.449l-42.823 10.589z"/><path fill="#312F3A" d="m76.076 99.846-24.571 1.833-17.99 10.384 9.624 5.245a7.71 7.71 0 0 0 7.732 0l25.205-14.284c1.218-.711 1.218-2.476 0-3.178"/><path fill="#13121A" d="m42.047 105.373.156 12.783 1.423-.449 30.948-30.723-31.66 17.824z"/><path fill="#312F3A" d="M43.645 117.708 75.45 99.612V86.42l-31.806 18.535z"/><path fill="#13121A" d="m43.625 117.719-1.434.449 7.674 4.28a9.08 9.08 0 0 0 9.058.02l23.664-13.329a3.56 3.56 0 0 0 1.794-3.091v-.448l-40.103 12.051z"/><path fill="#5B5C71" d="m83.476 104.03-8.024-4.417-31.815 18.107 6.903 3.773a7.72 7.72 0 0 0 7.732 0l25.204-14.284c1.219-.712 1.219-2.477 0-3.179"/><path fill="#312F3A" d="M85.827.5s-2.876-.594-3.9-.487C81.39.07 80.63.188 79.45.87L5.007 44.864C1.604 46.824-.785 51.845.239 57.96l8.083 63.971c.37 5.841 2.76 6.747 2.76 6.747l74.92-42.979c3.403-1.96 5.812-7.82 5.392-13.094z"/><path fill="#5B5C71" d="M84.635.403c-.604.05-1.238.254-1.882.624L7.317 44.855c-3.393 1.96-6.513 6.542-5.392 13.094l9.136 70.719L98.783 78.21 89.666 7.014c-.331-4.27-2.437-6.845-5.03-6.61"/><path fill="#13121A" d="M87.237 4.136c-.8-.81-2.116-1.082-3.228-.439L7.577 48.1c-4.183 2.428-4.154 5.197-3.52 10.267l8.015 59.34L96.285 68.8 87.978 5.706a2.64 2.64 0 0 0-.741-1.57"/><path fill="#313247" d="M14.4 56.238 8.772 59.68l.147 1.375 5.626-3.442zM11.877 64.059l-2.486 1.52.136 1.375 2.487-1.52zM19.218 56.422l-10.14 6.21.146 1.376 10.14-6.211zM24.577 51.47l-.146-1.374-9.068 5.548.147 1.374zM31.303 47.346l-.136-1.375-5.773 3.53.147 1.374zM20.191 55.83l.137 1.374 9.068-5.548-.147-1.375zM11.484 77.393l.137 1.375 9.536-5.84-.137-1.375zM30.215 49.685l.146 1.375 2.253-1.384-.137-1.375zM22.875 57.32l.137 1.375 4.026-2.467-.136-1.375zM12.84 63.462l.136 1.385 9.068-5.558-.136-1.375zM25.856 80.752l.146 1.385 4.027-2.467-.137-1.385zM23.176 79.259l.146 1.375 9.068-5.548-.146-1.375zM15.816 86.905l.147 1.375 9.067-5.558-.146-1.374zM28.387 72.934l.146 1.375 5.762-3.53-.146-1.375zM18.356 79.077l.146 1.375 9.058-5.548-.137-1.375zM33.207 73.119l.146 1.375 2.253-1.375-.137-1.385zM11.766 83.11l.146 1.384 5.626-3.451-.146-1.375zM14.469 100.827l.146 1.375 9.536-5.84-.147-1.376zM25.172 95.874l6.776-4.144v-1.462l-6.913 4.231zM14.789 104.564l6.474-3.959v-1.462l-6.61 4.046zM25.357 98.243l4.836-2.964v-1.472l-4.982 3.052zM12.383 89.007l.136 1.385 2.487-1.53-.147-1.376zM12.07 86.066l.147 1.375 10.14-6.21-.146-1.375zM41.49 40.293l-5.627 3.452.147 1.374 5.626-3.451zM46.308 40.477l-10.14 6.21.146 1.375 10.14-6.21zM58.393 31.4l-.146-1.375-5.763 3.53.147 1.375zM38.957 48.113l-2.477 1.531.137 1.375 2.486-1.521zM51.657 35.525l-.136-1.375-9.068 5.548.146 1.385zM39.93 47.526l.136 1.375 9.068-5.548-.146-1.384zM57.305 33.738l.146 1.375 2.252-1.375-.136-1.375zM38.566 61.448l.147 1.375 9.535-5.84-.146-1.376zM47.273 39.884l.147 1.384 9.067-5.557-.146-1.375zM49.957 41.385l.146 1.375 4.027-2.467-.137-1.375zM52.945 64.813l.147 1.374 4.026-2.466-.146-1.375zM50.266 63.321l.146 1.375 9.058-5.558-.137-1.374zM42.906 70.956l.147 1.375 9.067-5.548-.146-1.375zM55.473 56.985l.136 1.384 5.772-3.54-.146-1.374zM45.441 63.138l.147 1.375 9.058-5.558-.137-1.375zM60.297 57.17l.136 1.384 2.262-1.384-.146-1.375zM38.852 67.172l.136 1.375 5.626-3.451-.137-1.375zM41.559 84.88l.146 1.384 9.536-5.84-.147-1.385zM52.258 79.937l6.776-4.154V74.32l-6.913 4.242zM41.88 88.624l6.475-3.968v-1.463l-6.62 4.057zM52.443 82.296l4.836-2.964v-1.463l-4.982 3.052zM39.457 73.072l.146 1.375 2.487-1.521-.147-1.375zM39.156 70.117l.147 1.375 10.13-6.201-.136-1.385zM73.379 24.533l-10.14 6.201.146 1.385 10.14-6.211zM68.563 24.338l-5.626 3.451.137 1.375 5.626-3.442zM85.471 15.455l-.146-1.385-5.763 3.54.137 1.375zM84.375 17.793l.146 1.375 2.252-1.385-.146-1.375zM78.735 19.57l-.136-1.375-9.068 5.558.146 1.375zM66.03 32.166l-2.487 1.521.146 1.375 2.486-1.521zM74.344 23.939l.146 1.374 9.058-5.548-.136-1.384zM77.027 25.43l.147 1.375 4.026-2.467-.146-1.375zM65.637 45.505l.146 1.374 9.536-5.84-.147-1.375zM66.992 31.573l.146 1.375 9.068-5.548-.146-1.375zM80.023 48.86l.137 1.374 4.037-2.467-.147-1.374zM77.34 47.37l.136 1.375 9.068-5.548-.136-1.375zM69.988 55.003l.147 1.385 9.058-5.558-.137-1.375zM82.547 41.04l.146 1.374 5.763-3.53-.137-1.374zM72.523 47.183l.137 1.374 9.068-5.547-.146-1.375zM87.375 41.226l.136 1.375 2.263-1.384-.147-1.375zM65.922 51.221l.146 1.375 5.626-3.442-.146-1.375zM68.633 68.938l.146 1.375 9.526-5.84-.136-1.375zM79.342 63.983l6.776-4.143v-1.473l-6.923 4.242zM68.955 72.67l6.474-3.96v-1.462l-6.62 4.046zM79.515 66.343l4.846-2.955v-1.472l-4.982 3.052zM66.54 57.119l.145 1.374 2.477-1.52-.137-1.375zM66.234 54.176l.137 1.374 10.14-6.21-.136-1.375z"/><path fill="#13121A" d="m171.61 114.345-42.813-10.589v.448c0 1.278.682 2.457 1.794 3.091l23.664 13.319a9.08 9.08 0 0 0 9.058-.019l10.394-5.753-1.434-.449z"/><path fill="#312F3A" d="M129.715 102.188c-1.219.702-1.219 2.466 0 3.168l25.204 14.284a7.71 7.71 0 0 0 7.732 0l9.624-5.245-17.99-10.384z"/><path fill="#13121A" d="m131.207 89.326 30.947 30.723 1.434.449.156-12.783-.868-.565z"/><path fill="#312F3A" d="m130.34 101.954 31.805 18.096v-12.763L130.34 88.762z"/><path fill="#13121A" d="m161.501 120.001-40.103-12.052v.449c0 1.277.683 2.457 1.795 3.091l23.663 13.328a9.1 9.1 0 0 0 9.058-.019l7.674-4.281-1.433-.448z"/><path fill="#5B5C71" d="M122.316 106.37c-1.218.702-1.218 2.467 0 3.169l25.205 14.284a7.72 7.72 0 0 0 7.732 0l6.903-3.773-31.815-18.107z"/><path fill="#312F3A" d="M200.784 47.194 126.341 3.201c-1.17-.673-1.94-.8-2.477-.858-1.023-.107-3.9.488-3.9.488l-5.557 72.103c-.419 5.265 1.989 11.125 5.392 13.094l74.921 42.979s2.388-.906 2.759-6.747l8.083-63.971c1.014-6.114-1.375-11.135-4.778-13.095"/><path fill="#5B5C71" d="M198.463 47.204 123.035 3.377c-.643-.37-1.287-.575-1.882-.624-2.593-.234-4.709 2.34-5.04 6.6l-9.117 71.197 87.723 50.458 9.136-70.719c1.122-6.542-1.989-11.135-5.392-13.085"/><path fill="#13121A" d="M198.212 50.442 121.779 6.039a2.66 2.66 0 0 0-3.227.439c-.4.41-.673.955-.741 1.58l-8.307 63.093 84.203 48.908 8.015-59.34c.634-5.08.663-7.85-3.51-10.277"/><path fill="#312F3A" d="M145.986 58.317c3.403 2.008 4.095-4.037 6.864-2.399s.215 15.016 4.495 17.541c4.28 2.535 5.938-12.11 9.341-10.101s1.95 11.066 5.226 12.997c3.276 1.94 5.05-8.268 10.208-5.207l-46.343-27.417c6.426 3.812 6.816 12.568 10.209 14.586"/><path fill="#EEDE6D" d="M177.743 56.66c-3.403-2.009-6.006 6.181-8.775 4.543s1.813-21.587-2.477-24.122c-4.28-2.535-7.469 15.581-10.862 13.572-3.403-2.008-.361-20.924-3.637-22.864s-7.137 21.304-12.304 18.253l46.343 27.408c-6.426-3.784-4.885-14.772-8.288-16.79"/><path fill="#A4A3CD" d="M175.092 56.56c-3.276-1.94-4.27 4.251-7.663 2.243-3.403-2.009-.917-14.314-4.768-18.39-3.51-3.714-5.509 7.684-8.278 6.036-2.769-1.638-1.687-6.679-5.09-8.687-3.403-2.009-7.079 9.779-13.504 5.976l46.343 27.418c-5.168-3.061-3.764-12.656-7.04-14.596"/><path fill="#DCDCE6" d="M174.125 62.43c-3.276-1.94-3.871-.517-7.274-2.526s-2.096-4.368-5.957-8.443c-3.51-3.715-6.23.185-8.999-1.453s-3.111-4.31-6.816-4.73c-3.705-.418-2.876 2.263-9.302-1.54l46.343 27.418c-5.158-3.062-4.728-6.796-7.995-8.727"/><path fill="#5B5C71" d="M139.701 51.98c3.276 1.94 3.91-2 7.303.01 3.403 2.008.751 14.244 5.031 16.78 4.28 2.535 5.801-9.487 8.57-7.85 2.769 1.639 1.716 6.494 5.119 8.503 3.403 2.008 6.201-4.3 12.627-.497l-46.343-27.408c5.167 3.042 4.417 8.521 7.693 10.462"/><path fill="#F2B024" d="M140.645 48.682c2.544 2.486 3.734.37 9.184 4.105 3.237 2.223 1.112 6.757 4.203 7.42s5.002-1.677 7.771-.04c2.769 1.639 1.999 3.404 5.392 5.412 3.402 2.009 4.728-.468 11.144 3.335l-46.343-27.408c5.177 3.052 5.977 4.573 8.649 7.176"/><path fill="#fff" d="m128.145 39.324 57.819 34.194.029-.175-57.819-34.204z"/><path fill="#313247" d="m171.816 97.347 4.027 2.467.137-1.374-4.027-2.467zM169.461 92.775l9.068 5.548.136-1.375-9.058-5.557zM176.812 100.41l9.068 5.548.137-1.375-9.068-5.548zM167.547 88.469l5.762 3.53.146-1.376-5.772-3.539zM174.273 92.594l9.068 5.547.147-1.374-9.068-5.558zM166.242 90.797l2.253 1.384.146-1.375-2.262-1.384zM184.309 98.732l5.626 3.442.146-1.375-5.626-3.451zM150.574 76.894l9.536 5.84.146-1.374-9.536-5.84zM186.844 106.553l2.476 1.521.147-1.375-2.487-1.521zM179.492 98.922l10.14 6.211.137-1.385-10.131-6.201zM141.699 83.629l4.027 2.466.146-1.374-4.027-2.467zM139.348 79.047l9.058 5.557.146-1.384-9.068-5.548zM146.691 86.693l9.068 5.548.146-1.375-9.067-5.557zM137.43 74.74l5.772 3.53.136-1.375-5.762-3.53zM144.168 78.865l9.058 5.558.146-1.385-9.068-5.548zM136.121 77.078l2.252 1.375.147-1.375-2.253-1.375zM154.199 85.004l5.626 3.451.137-1.374-5.626-3.452zM123.879 67.32l9.526 5.84.146-1.374-9.536-5.84zM116.066 62.677l6.777 4.154.146-1.375-6.923-4.241zM126.754 71.562l6.474 3.959.146-1.375-6.62-4.056zM117.82 66.226l4.846 2.964.137-1.374-4.983-3.052zM156.723 92.834l2.486 1.52.146-1.374-2.486-1.521zM149.375 85.191l10.14 6.211.146-1.375-10.14-6.21z"/><path fill="#312F3A" d="M85.195 204.194a4.81 4.81 0 0 0 4.807 4.807h25.77a4.81 4.81 0 0 0 4.807-4.807v-14.333H85.195z"/><path fill="#5B5C71" d="M85.195 202.7a4.81 4.81 0 0 0 4.807 4.807h25.77a4.81 4.81 0 0 0 4.807-4.807v-14.333H85.195z"/><path fill="#312F3A" d="M120.579 179.543H85.195v19.14h35.384z"/><path fill="#A4A3CD" d="m153.204 118.185-102.3-.487a4.5 4.5 0 0 0-1.998.448c-2.672 1.229-4.456 4.934-4.202 9.292l.692 65.005 115.726.059-.595-64.547c.205-7.03-3.598-9.76-7.323-9.77"/><path fill="#5B5C71" d="m151.625 120.515-99.102-.468a4.6 4.6 0 0 0-1.94.429c-2.594 1.19-4.32 4.778-4.076 9l.663 62.967 112.099.058-.575-62.528c.224-6.806-3.462-9.458-7.069-9.458"/></svg>