<svg xmlns="http://www.w3.org/2000/svg" width="157" height="209" fill="none"><path fill="#A4A3CD" d="m0 137.354 78.525 45.738 78.089-44.404-79.098-46.075z"/><path fill="#5B5C71" d="m0 163.154 78.525 45.739v-25.799L0 137.355z"/><path fill="#13121A" d="M78.523 209 157 164.279v-25.927l-78.476 44.74z"/><path fill="#313247" d="m83.195 200.969 41.062-23.398v-15.176l-41.062 23.407z"/><path fill="#5B5C71" d="m122.833 176.149-39.638 22.587v2.233l41.062-23.398v-15.176l-1.424.81z"/><path fill="#5AD5E4" d="m85.797 188.858 2.244-1.275v-2.263l-2.244 1.285z"/><path fill="#EEDE6D" d="m85.797 192.155 2.244-1.275v-2.263l-2.244 1.285z"/><path fill="#5AD5E4" d="m85.797 195.44 2.244-1.275v-2.263l-2.244 1.275zM88.992 187.072l2.235-1.274v-2.263l-2.235 1.275zM88.992 190.362l2.235-1.275v-2.263l-2.235 1.275z"/><path fill="#F2B024" d="m88.992 193.651 2.235-1.275v-2.263l-2.235 1.275zM92.172 185.28l2.234-1.275v-2.263l-2.234 1.275z"/><path fill="#5AD5E4" d="m92.172 188.576 2.234-1.274v-2.263l-2.234 1.275zM92.172 191.862l2.234-1.275v-2.263l-2.234 1.275z"/><path fill="#EEDE6D" d="m95.36 183.494 2.244-1.274v-2.263l-2.245 1.275z"/><path fill="#5AD5E4" d="m95.36 186.783 2.244-1.274v-2.263l-2.245 1.275z"/><path fill="#F2B024" d="m95.36 190.076 2.244-1.274v-2.263l-2.245 1.275z"/><path fill="#5AD5E4" d="m98.469 181.725 2.234-1.275v-2.262l-2.234 1.274zM98.469 188.311l2.234-1.275v-2.263l-2.234 1.275zM101.648 183.229l2.245-1.275v-2.263l-2.245 1.275z"/><path fill="#F2B024" d="m101.648 186.522 2.245-1.275v-2.263l-2.245 1.275zM104.844 178.147l2.234-1.275v-2.263l-2.234 1.275z"/><path fill="#5AD5E4" d="m104.844 184.733 2.234-1.285v-2.253l-2.234 1.275zM108.031 179.645l2.235-1.275v-2.253l-2.235 1.275z"/><path fill="#13121A" d="m4.64 160.073 29.969 17.084V161.99L4.64 144.906z"/><path fill="#313247" d="m7.93 161.962 2.274 1.295V148.08l-2.274-1.295z"/><path fill="#F2B024" d="m7.93 161.96 2.274 1.295v-4.308l-2.274-1.295z"/><path fill="#EEDE6D" d="m7.93 153.198 2.274 1.294v-6.412l-2.274-1.295z"/><path fill="#313247" d="m11.688 164.087 2.274 1.295v-15.177l-2.274-1.295z"/><path fill="#F2B024" d="m11.688 153.218 2.274 1.295v-4.308l-2.274-1.295z"/><path fill="#EEDE6D" d="m11.688 164.088 2.274 1.295v-6.413l-2.274-1.294z"/><path fill="#313247" d="m15.398 166.179 2.274 1.294v-15.167l-2.274-1.294z"/><path fill="#F2B024" d="m15.398 166.177 2.274 1.294v-4.298l-2.274-1.294z"/><path fill="#EEDE6D" d="m15.398 157.424 2.274 1.295v-6.413l-2.274-1.294z"/><path fill="#313247" d="m19.133 168.306 2.274 1.294v-15.177l-2.274-1.294z"/><path fill="#F2B024" d="m19.133 157.437 2.274 1.294v-4.308l-2.274-1.294z"/><path fill="#EEDE6D" d="m19.133 168.307 2.274 1.295v-6.413l-2.274-1.294z"/><path fill="#313247" d="m22.852 170.404 2.274 1.294v-15.177l-2.274-1.294z"/><path fill="#F2B024" d="m22.852 170.402 2.274 1.294v-4.308l-2.274-1.294z"/><path fill="#EEDE6D" d="m22.852 161.639 2.274 1.295v-6.413l-2.274-1.294z"/><path fill="#313247" d="m26.602 172.53 2.274 1.295v-15.167l-2.274-1.295z"/><path fill="#F2B024" d="m26.602 161.661 2.274 1.295v-4.298l-2.274-1.295z"/><path fill="#EEDE6D" d="m26.602 172.53 2.274 1.294v-6.412l-2.274-1.295z"/><path fill="#313247" d="m30.313 174.634 2.274 1.294v-15.177l-2.275-1.294z"/><path fill="#F2B024" d="m30.313 174.632 2.274 1.295v-4.308l-2.275-1.295z"/><path fill="#EEDE6D" d="m30.313 165.87 2.274 1.294v-6.413l-2.275-1.294z"/><path fill="#313247" d="m6.064 145.716-1.423-.81v15.167l29.968 17.084v-2.233L6.064 158.651z"/><path fill="#A4A3CD" d="m0 106.473 78.525 45.738 78.089-44.394-79.098-46.075z"/><path fill="#5B5C71" d="m0 132.281 78.525 45.739v-25.809L0 106.473z"/><path fill="#13121A" d="M78.523 178.128 157 133.408V107.48l-78.476 44.731z"/><path fill="#313247" d="m83.195 170.098 41.062-23.407v-15.168l-41.062 23.408z"/><path fill="#5B5C71" d="m122.833 145.268-39.638 22.597v2.233l41.062-23.407v-15.168l-1.424.811z"/><path fill="#5AD5E4" d="m85.797 157.733 2.244-1.275v-2.263l-2.244 1.275z"/><path fill="#EEDE6D" d="m85.797 161.03 2.244-1.275v-2.263l-2.244 1.275z"/><path fill="#5AD5E4" d="m85.797 164.315 2.244-1.275v-2.263l-2.244 1.275zM88.992 155.947l2.235-1.274v-2.263l-2.235 1.275zM88.992 159.237l2.235-1.275v-2.263l-2.235 1.275z"/><path fill="#F2B024" d="m88.992 162.526 2.235-1.275v-2.263l-2.235 1.275zM92.172 154.155l2.234-1.285v-2.253l-2.234 1.275z"/><path fill="#5AD5E4" d="m92.172 157.451 2.234-1.274v-2.263l-2.234 1.275zM92.172 160.737l2.234-1.275v-2.263l-2.234 1.275z"/><path fill="#EEDE6D" d="m95.36 152.369 2.244-1.284v-2.253l-2.245 1.275z"/><path fill="#5AD5E4" d="m95.36 155.649 2.244-1.275v-2.253l-2.245 1.275z"/><path fill="#F2B024" d="m95.36 158.94 2.244-1.275v-2.263l-2.245 1.285z"/><path fill="#5AD5E4" d="m98.469 150.594 2.234-1.275v-2.253l-2.234 1.275zM98.469 157.17l2.234-1.274v-2.263l-2.234 1.284zM101.648 152.092l2.245-1.275v-2.262l-2.245 1.274z"/><path fill="#F2B024" d="m101.648 155.385 2.245-1.275v-2.262l-2.245 1.274zM104.844 147.014l2.234-1.275v-2.262l-2.234 1.274z"/><path fill="#5AD5E4" d="m104.844 153.592 2.234-1.275v-2.262l-2.234 1.274zM108.031 148.518l2.235-1.275v-2.263l-2.235 1.275z"/><path fill="#13121A" d="m4.64 130.562 29.969 17.084v-15.168L4.64 115.395z"/><path fill="#313247" d="m7.93 132.437 2.274 1.294v-15.167L7.93 117.27z"/><path fill="#F2B024" d="m7.93 132.435 2.274 1.294v-4.298l-2.274-1.294z"/><path fill="#EEDE6D" d="m7.93 123.682 2.274 1.295v-6.413L7.93 117.27z"/><path fill="#313247" d="m11.688 134.575 2.274 1.295v-15.177l-2.274-1.295z"/><path fill="#F2B024" d="m11.688 123.706 2.274 1.295v-4.308l-2.274-1.295z"/><path fill="#EEDE6D" d="m11.688 134.577 2.274 1.294v-6.413l-2.274-1.294z"/><path fill="#313247" d="m15.398 136.667 2.274 1.295v-15.168l-2.274-1.294z"/><path fill="#F2B024" d="m15.398 136.665 2.274 1.295v-4.298l-2.274-1.295z"/><path fill="#EEDE6D" d="m15.398 127.913 2.274 1.294v-6.413l-2.274-1.294z"/><path fill="#313247" d="m19.133 138.788 2.274 1.295v-15.168l-2.274-1.294z"/><path fill="#F2B024" d="m19.133 127.919 2.274 1.295v-4.299l-2.274-1.294z"/><path fill="#EEDE6D" d="m19.133 138.788 2.274 1.294v-6.413l-2.274-1.294z"/><path fill="#313247" d="m22.852 140.896 2.274 1.294v-15.177l-2.274-1.294z"/><path fill="#F2B024" d="m22.852 140.894 2.274 1.294v-4.308l-2.274-1.294z"/><path fill="#EEDE6D" d="m22.852 132.131 2.274 1.295v-6.413l-2.274-1.294z"/><path fill="#313247" d="m26.602 143.023 2.274 1.294V129.15l-2.274-1.295z"/><path fill="#F2B024" d="m26.602 132.154 2.274 1.294v-4.298l-2.274-1.295z"/><path fill="#EEDE6D" d="m26.602 143.022 2.274 1.294v-6.412l-2.274-1.295z"/><path fill="#313247" d="m30.313 145.12 2.274 1.295v-15.167l-2.275-1.295z"/><path fill="#F2B024" d="m30.313 145.118 2.274 1.295v-4.298l-2.275-1.295z"/><path fill="#EEDE6D" d="m30.313 136.366 2.274 1.294v-6.412l-2.275-1.295z"/><path fill="#313247" d="m6.064 116.205-1.423-.81v15.167l29.968 17.084v-2.233L6.064 129.139z"/><path fill="#A4A3CD" d="m0 75.604 78.525 45.738 78.089-44.404-79.098-46.075z"/><path fill="#5B5C71" d="m0 101.414 78.525 45.739v-25.809L0 75.606z"/><path fill="#13121A" d="M78.523 147.261 157 102.531V76.613l-78.476 44.731z"/><path fill="#313247" d="m83.195 139.219 41.062-23.397v-15.177l-41.062 23.407z"/><path fill="#5B5C71" d="m122.833 114.399-39.638 22.587v2.233l41.062-23.397v-15.177l-1.424.82z"/><path fill="#5AD5E4" d="m85.797 126.865 2.244-1.284v-2.253l-2.244 1.275z"/><path fill="#EEDE6D" d="m85.797 130.158 2.244-1.284v-2.253l-2.244 1.275z"/><path fill="#5AD5E4" d="m85.797 133.446 2.244-1.285v-2.263l-2.244 1.285zM88.992 125.067l2.235-1.275v-2.253l-2.235 1.275zM88.992 128.359l2.235-1.274v-2.253l-2.235 1.275z"/><path fill="#F2B024" d="m88.992 131.647 2.235-1.275v-2.263l-2.235 1.285zM92.172 123.276l2.234-1.275v-2.263l-2.234 1.275z"/><path fill="#5AD5E4" d="m92.172 126.572 2.234-1.274v-2.263l-2.234 1.275zM92.172 129.858l2.234-1.275v-2.263l-2.234 1.275z"/><path fill="#EEDE6D" d="m95.36 121.49 2.244-1.274v-2.263l-2.245 1.275z"/><path fill="#5AD5E4" d="m95.36 124.78 2.244-1.275v-2.263l-2.245 1.275z"/><path fill="#F2B024" d="m95.36 128.072 2.244-1.274v-2.263l-2.245 1.275z"/><path fill="#5AD5E4" d="m98.469 119.725 2.234-1.275v-2.262l-2.234 1.274zM98.469 126.303l2.234-1.275v-2.262l-2.234 1.274zM101.648 121.225l2.245-1.275v-2.262l-2.245 1.274z"/><path fill="#F2B024" d="m101.648 124.514 2.245-1.275v-2.262l-2.245 1.274zM104.844 116.147l2.234-1.275v-2.263l-2.234 1.275z"/><path fill="#5AD5E4" d="m104.844 122.725 2.234-1.275v-2.262l-2.234 1.274zM108.031 117.647l2.235-1.275v-2.263l-2.235 1.275z"/><path fill="#13121A" d="M4.64 99.386 34.61 116.47v-15.167L4.64 84.219z"/><path fill="#313247" d="m7.93 101.275 2.274 1.294V87.392L7.93 86.098z"/><path fill="#F2B024" d="m7.93 101.273 2.274 1.294v-4.308L7.93 96.965z"/><path fill="#EEDE6D" d="m7.93 92.51 2.274 1.295v-6.413L7.93 86.098z"/><path fill="#313247" d="m11.688 103.398 2.274 1.294V89.525l-2.274-1.294z"/><path fill="#F2B024" d="m11.688 92.529 2.274 1.294v-4.298l-2.274-1.294z"/><path fill="#EEDE6D" d="m11.688 103.397 2.274 1.294v-6.412l-2.274-1.295z"/><path fill="#313247" d="m15.398 105.487 2.274 1.295V91.615l-2.274-1.295z"/><path fill="#F2B024" d="m15.398 105.486 2.274 1.294v-4.298l-2.274-1.294z"/><path fill="#EEDE6D" d="m15.398 96.733 2.274 1.294v-6.412l-2.274-1.295z"/><path fill="#313247" d="m19.133 107.618 2.274 1.295V93.736l-2.274-1.295z"/><path fill="#F2B024" d="m19.133 96.75 2.274 1.294v-4.308l-2.274-1.295z"/><path fill="#EEDE6D" d="m19.133 107.62 2.274 1.294v-6.413l-2.274-1.294z"/><path fill="#313247" d="m22.852 109.722 2.274 1.294V95.849l-2.274-1.294z"/><path fill="#F2B024" d="m22.852 109.72 2.274 1.294v-4.298l-2.274-1.294z"/><path fill="#EEDE6D" d="m22.852 100.967 2.274 1.295v-6.413l-2.274-1.294z"/><path fill="#313247" d="m26.602 111.847 2.274 1.294V97.974l-2.274-1.294z"/><path fill="#F2B024" d="m26.602 100.978 2.274 1.294v-4.298l-2.274-1.294z"/><path fill="#EEDE6D" d="m26.602 111.846 2.274 1.295v-6.413l-2.274-1.294z"/><path fill="#313247" d="m30.313 113.95 2.274 1.295v-15.177l-2.275-1.295z"/><path fill="#F2B024" d="m30.313 113.949 2.274 1.294v-4.308l-2.275-1.294z"/><path fill="#EEDE6D" d="m30.313 105.186 2.274 1.294v-6.412l-2.275-1.295z"/><path fill="#313247" d="m6.064 85.029-1.423-.81v15.167l29.968 17.084v-2.233L6.064 97.963z"/><path fill="#A4A3CD" d="M0 44.74 78.525 90.48l78.089-44.405L77.516 0z"/><path fill="#5B5C71" d="m0 70.541 78.525 45.738V90.481L0 44.742z"/><path fill="#13121A" d="M78.523 116.386 157 71.666V45.738l-78.476 44.74z"/><path fill="#313247" d="m83.195 108.356 41.062-23.398V69.781L83.195 93.19z"/><path fill="#5B5C71" d="m122.833 83.535-39.638 22.588v2.233l41.062-23.398V69.781l-1.424.81z"/><path fill="#13121A" d="M4.64 68.66 34.61 85.742V70.576L4.64 53.492z"/><path fill="#313247" d="m7.93 70.534 2.274 1.295V56.662L7.93 55.367z"/><path fill="#F2B024" d="m7.93 70.533 2.274 1.294v-4.298L7.93 66.234z"/><path fill="#EEDE6D" d="m7.93 61.78 2.274 1.294v-6.412L7.93 55.367z"/><path fill="#313247" d="m11.688 72.673 2.274 1.294V58.792l-2.274-1.295z"/><path fill="#F2B024" d="m11.688 61.804 2.274 1.294v-4.307l-2.274-1.295z"/><path fill="#EEDE6D" d="m11.688 72.674 2.274 1.295v-6.413l-2.274-1.294z"/><path fill="#313247" d="m15.398 74.767 2.274 1.294V60.894l-2.274-1.304z"/><path fill="#F2B024" d="m15.398 74.765 2.274 1.294v-4.298l-2.274-1.304z"/><path fill="#EEDE6D" d="m15.398 66.003 2.274 1.304v-6.413l-2.274-1.304z"/><path fill="#313247" d="m19.133 76.89 2.274 1.294V63.017l-2.274-1.294z"/><path fill="#F2B024" d="m19.133 66.02 2.274 1.295v-4.298l-2.274-1.294z"/><path fill="#EEDE6D" d="m19.133 76.89 2.274 1.294V71.77l-2.274-1.294z"/><path fill="#313247" d="m22.852 78.997 2.274 1.295V65.115l-2.274-1.295z"/><path fill="#F2B024" d="m22.852 78.996 2.274 1.294v-4.308l-2.274-1.294z"/><path fill="#EEDE6D" d="m22.852 70.233 2.274 1.294v-6.412l-2.274-1.295z"/><path fill="#313247" d="m26.602 81.122 2.274 1.295V67.25l-2.274-1.305z"/><path fill="#F2B024" d="m26.602 70.253 2.274 1.295V67.25l-2.274-1.305z"/><path fill="#EEDE6D" d="m26.602 81.124 2.274 1.294v-6.413l-2.274-1.294z"/><path fill="#313247" d="m30.313 83.218 2.274 1.294V69.345l-2.275-1.294z"/><path fill="#F2B024" d="m30.313 83.216 2.274 1.294v-4.298l-2.275-1.294z"/><path fill="#EEDE6D" d="m30.313 74.463 2.274 1.295v-6.413l-2.275-1.294z"/><path fill="#313247" d="m6.064 54.302-1.423-.81V68.66l29.968 17.084V83.51L6.064 67.236z"/><path fill="#5AD5E4" d="m85.797 95.99 2.244-1.274v-2.263l-2.244 1.275z"/><path fill="#EEDE6D" d="m85.797 99.287 2.244-1.274V95.75l-2.244 1.275z"/><path fill="#5AD5E4" d="m85.797 102.572 2.244-1.274v-2.263l-2.244 1.275zM88.992 94.205l2.235-1.274v-2.263l-2.235 1.275zM88.992 97.494l2.235-1.274v-2.263l-2.235 1.275z"/><path fill="#F2B024" d="m88.992 100.783 2.235-1.274v-2.263l-2.235 1.275zM92.172 92.412l2.234-1.274v-2.263l-2.234 1.275z"/><path fill="#5AD5E4" d="m92.172 95.71 2.234-1.275v-2.263l-2.234 1.275zM92.172 98.994l2.234-1.274v-2.263l-2.234 1.275z"/><path fill="#EEDE6D" d="m95.36 90.627 2.244-1.274V87.09l-2.245 1.275z"/><path fill="#5AD5E4" d="m95.36 93.916 2.244-1.274v-2.263l-2.245 1.274z"/><path fill="#F2B024" d="m95.36 97.21 2.244-1.275v-2.263l-2.245 1.275z"/><path fill="#5AD5E4" d="m98.469 88.862 2.234-1.275v-2.263L98.469 86.6zM98.469 95.44l2.234-1.275v-2.263l-2.234 1.275zM101.648 90.362l2.245-1.285v-2.253l-2.245 1.275z"/><path fill="#F2B024" d="m101.648 93.65 2.245-1.284v-2.253l-2.245 1.275zM104.844 85.272l2.234-1.275v-2.263l-2.234 1.285z"/><path fill="#5AD5E4" d="m104.844 91.862 2.234-1.285v-2.253l-2.234 1.275zM108.031 86.776l2.235-1.275v-2.263l-2.235 1.285z"/><path fill="#5B5C71" d="m18.398 39.06 60.115 35.017 59.788-33.99-60.55-35.274z"/><path fill="#312F3A" d="m18.398 44.414 60.115 35.018v-5.356L18.398 39.06z"/><path fill="#13121A" d="M78.516 79.514 138.6 45.275v-5.444L78.516 74.079z"/><path fill="#5AD5E4" d="M94.695 19.293H80.883v10.375c0 1.58 1.374 4.15 4.044 5.632 5.438 3.033 14.138 3.112 19.537 0 2.699-1.561 4.044-3.597 4.044-5.632V19.293zq.015 0 0 0"/><path fill="#fff" d="M102.168 12.13c-2.185-.82-4.716-1.255-7.336-1.255-4.38 0-8.404 1.176-11.034 3.221-2.156 1.68-3.174 3.775-2.848 5.909.386 2.579 2.69 4.832 6.308 6.195 2.215.83 4.756 1.275 7.367 1.275 4.854 0 9.412-1.542 11.904-4.022 1.621-1.61 2.284-3.537 1.878-5.424-.543-2.46-2.808-4.615-6.239-5.9"/><path fill="#13121A" d="M101.885 12.87c-5.656-2.135-13.437-1.384-17.6 1.847-4.43 3.439-3.094 8.34 3.243 10.73 6.348 2.392 14.693 1.147 18.42-2.558 3.5-3.488 1.602-7.885-4.063-10.02"/><path fill="#312F3A" d="M101.884 12.87c-5.656-2.135-13.437-1.384-17.6 1.847-3.47 2.698-3.401 6.284-.158 8.863-.702-1.857-.05-3.863 2.076-5.513 3.758-2.915 10.778-3.587 15.879-1.67 2.907 1.097 4.707 2.846 5.152 4.733 1.502-3.093-.603-6.472-5.349-8.26"/><mask id="a" width="27" height="16" x="81" y="11" maskUnits="userSpaceOnUse" style="mask-type:luminance"><path fill="#fff" d="M105.956 22.893c-3.727 3.705-12.072 4.95-18.42 2.559-6.338-2.392-7.672-7.292-3.243-10.73 4.163-3.232 11.934-3.983 17.599-1.849 5.656 2.135 7.554 6.532 4.064 10.02"/></mask><g mask="url(#a)"><path fill="#A4A3CD" d="M105.992 19.843c-2.195-1.867-8.039-.82-8.039-.82l-.484.8s5.655.02 8.691 3.34c0 .01 1.75-1.69-.168-3.32"/><path fill="#A4A3CD" d="M104.475 15.253c-2.047-.455-7.662 2.964-7.662 2.964l.306 1.027s4.598-2.341 9.749-1.442c0 .01.119-1.996-2.393-2.55M100.292 13.053c-2.284.356-4.222 3.953-4.222 3.953l.554.701s2.946-2.915 6.753-3.567c-.01 0-1.216-1.383-3.085-1.087M88.155 13.402s-3.669.92-2.6 4.081c.939 2.767 6.357 2.895 7.306 2.134l-.208-1.255c0 .01-4.044-1.699-4.498-4.96M91.752 13.263c-1.622 2.273.85 4.368 2.195 4.812l1.107-.632s-1.325-3.172 1.602-4.763c-.01-.01-3.47-1.432-4.904.583"/><path fill="#A4A3CD" d="M82.575 18.926S80.885 20.96 84 23.44c2.917 2.322 8.048-.889 10.263-2.855l-1.453-.83c0-.01-4.173 1.245-10.234-.83"/><path fill="#8E8DBD" d="M92.022 21.601c-.89.326-1.78.771-2.759.9-1.77.217-4.607-.07-5.873-1.562-.524-.622-.82-1.334-.722-1.966a.5.5 0 0 1-.108-.04s-1.691 2.036 1.424 4.516c2.916 2.322 8.048-.89 10.263-2.855l-.03-.02c-.653.425-1.424.74-2.195 1.027"/><path fill="#A4A3CD" d="M84.188 24.258s.87 2.402 4.755 3.33c3.649.87 5.745-4.11 6.388-6.936l-1.632-.129c-.01-.01-3.629 2.401-9.511 3.735"/><path fill="#8E8DBD" d="M85.196 25.337c-.465-.247-.771-.672-.989-1.077h-.02s.87 2.4 4.756 3.33c3.649.87 5.745-4.11 6.388-6.937l-1.019-.079c-.554 1.71-3.994 7.44-9.116 4.763"/><path fill="#A4A3CD" d="m96.186 20.348-1.434.513s.445 1.62-3.807 5.217c0 0 1.72 2.738 4.707 2.708 2.986-.04 2.55-7.322.534-8.438"/><path fill="#8E8DBD" d="m96.188 20.348-.02.01c1.592 1.462 1.71 8.388-2.254 8.112a4.9 4.9 0 0 0 1.75.316c2.976-.04 2.541-7.322.524-8.438"/><path fill="#A4A3CD" d="m97.343 19.844-1.374.593s2.185 1.58 2.64 5.157c0 0 1.908 1.186 4.251.02 2.334-1.166-1.859-4.397-5.517-5.77"/></g><path fill="#F2B024" d="M97.185 19.703c-1.197.82-3.372.948-4.796.237-.731-.356-1.087-.86-1.067-1.364l-.04.81c-.02.534.356 1.067 1.107 1.443 1.474.731 3.738.553 4.964-.346.573-.415.81-.909.761-1.383l-.178-.682c.04.445-.198.909-.751 1.285"/><path fill="#EEDE6D" d="M96.86 17.21c-1.275-.622-3.272-.602-4.548.09-1.354.74-1.354 1.936.07 2.648 1.423.701 3.608.573 4.795-.237 1.137-.771.959-1.868-.317-2.5"/><path fill="#54608A" d="M96.235 17.592c-.92-.454-2.363-.434-3.273.06-.978.533-.978 1.403.05 1.907 1.028.503 2.6.415 3.46-.168.811-.564.683-1.354-.237-1.799"/><path fill="#676F93" d="M96.23 17.6c-.919-.454-2.362-.435-3.272.06-.82.444-.95 1.136-.356 1.65-.099-.376.119-.771.653-1.058.85-.464 2.185-.474 3.035-.059.346.178.574.395.663.642.168-.454-.08-.929-.722-1.235"/><path fill="#5AD5E4" d="M62.297 19.29H48.484v10.374c0 2.035 1.345 4.08 4.044 5.632 5.399 3.112 14.09 3.033 19.538 0 2.67-1.482 4.043-4.051 4.043-5.632V19.289z"/><path fill="#fff" d="M73.2 14.084c-2.63-2.045-6.655-3.22-11.035-3.22-2.62 0-5.161.434-7.336 1.254-3.431 1.294-5.705 3.449-6.23 5.909-.405 1.887.268 3.814 1.88 5.424 2.49 2.48 7.059 4.022 11.904 4.022 2.6 0 5.15-.445 7.366-1.275 3.618-1.363 5.912-3.626 6.308-6.195.316-2.134-.692-4.239-2.858-5.919"/><path fill="#13121A" d="M72.712 14.713c-4.163-3.23-11.934-3.982-17.6-1.847-5.655 2.134-7.563 6.53-4.063 10.009 3.727 3.705 12.072 4.95 18.42 2.559 6.338-2.381 7.672-7.272 3.243-10.72"/><path fill="#312F3A" d="M72.708 14.713c-4.162-3.23-11.934-3.982-17.6-1.847-4.745 1.788-6.851 5.167-5.348 8.26.445-1.887 2.244-3.646 5.151-4.733 5.102-1.927 12.122-1.245 15.879 1.67 2.116 1.65 2.778 3.666 2.066 5.513 3.253-2.579 3.323-6.165-.148-8.863"/><mask id="b" width="27" height="16" x="49" y="11" maskUnits="userSpaceOnUse" style="mask-type:luminance"><path fill="#fff" d="M51.041 22.889c3.728 3.705 12.072 4.95 18.42 2.559 6.338-2.391 7.673-7.292 3.243-10.73-4.162-3.232-11.934-3.983-17.6-1.848-5.655 2.134-7.563 6.53-4.063 10.019"/></mask><g mask="url(#b)"><path fill="#A4A3CD" d="M51 19.84c-1.918 1.63-.168 3.32-.168 3.32 3.035-3.32 8.69-3.34 8.69-3.34l-.484-.8c-.01 0-5.843-1.048-8.038.82"/><path fill="#A4A3CD" d="M52.526 15.245c-2.511.553-2.392 2.549-2.392 2.549 5.151-.9 9.749 1.443 9.749 1.443l.306-1.028s-5.616-3.419-7.663-2.964M56.694 13.05c-1.878-.297-3.085 1.086-3.085 1.086 3.807.653 6.763 3.567 6.763 3.567l.554-.701s-1.948-3.597-4.232-3.952M68.831 13.395c-.455 3.25-4.498 4.97-4.498 4.97l-.208 1.254c.95.761 6.377.633 7.307-2.134 1.077-3.162-2.6-4.09-2.6-4.09M60.328 12.665c2.927 1.601 1.602 4.763 1.602 4.763l1.107.632c1.345-.444 3.817-2.54 2.195-4.812-1.434-2.005-4.904-.583-4.904-.583"/><path fill="#A4A3CD" d="m64.188 19.74-1.454.83c2.215 1.966 7.337 5.178 10.263 2.856 3.105-2.47 1.424-4.516 1.424-4.516-6.06 2.085-10.233.83-10.233.83"/><path fill="#8E8DBD" d="M74.315 18.96c.098.642-.198 1.353-.722 1.966-1.266 1.492-4.104 1.788-5.873 1.561-.99-.119-1.879-.573-2.759-.9-.771-.286-1.532-.602-2.205-1.037l-.03.02c2.215 1.966 7.337 5.178 10.264 2.856 3.104-2.47 1.423-4.516 1.423-4.516-.03.02-.059.03-.099.05"/><path fill="#A4A3CD" d="M61.672 20.646c.643 2.826 2.729 7.816 6.387 6.936 3.886-.928 4.756-3.33 4.756-3.33-5.883-1.333-9.502-3.744-9.502-3.744z"/><path fill="#8E8DBD" d="M71.796 25.333c-5.111 2.678-8.562-3.053-9.106-4.763l-1.018.08c.643 2.825 2.729 7.815 6.387 6.936 3.886-.93 4.756-3.33 4.756-3.33h-.02c-.227.395-.534.83-.999 1.077"/><path fill="#A4A3CD" d="m62.246 20.846-1.434-.514c-2.027 1.117-2.462 8.399.534 8.428 2.986.03 4.706-2.707 4.706-2.707-4.251-3.577-3.806-5.207-3.806-5.207"/><path fill="#8E8DBD" d="m60.832 20.342-.02-.01c-2.027 1.117-2.462 8.399.534 8.428a4.7 4.7 0 0 0 1.75-.316c-3.975.287-3.846-6.64-2.264-8.102"/><path fill="#A4A3CD" d="M54.138 25.606c2.343 1.166 4.252-.02 4.252-.02.454-3.576 2.64-5.157 2.64-5.157l-1.375-.593c-3.658 1.373-7.86 4.604-5.517 5.77"/></g><path fill="#F2B024" d="M64.622 19.934c-1.424.701-3.609.573-4.795-.238-.554-.375-.791-.84-.742-1.274l-.178.682c-.06.464.188.968.761 1.383 1.226.9 3.49 1.077 4.964.346.751-.376 1.127-.9 1.107-1.443l-.04-.81c.01.494-.345.998-1.077 1.354"/><path fill="#EEDE6D" d="M64.688 17.296c-1.265-.692-3.272-.712-4.548-.089-1.275.632-1.443 1.73-.326 2.49 1.196.82 3.372.948 4.795.237 1.434-.701 1.434-1.907.08-2.638"/><path fill="#54608A" d="M64.043 17.652c-.91-.494-2.363-.514-3.272-.06-.92.455-1.038 1.245-.238 1.799.86.583 2.433.681 3.46.168 1.03-.514 1.02-1.384.05-1.907"/><path fill="#676F93" d="M64.052 17.656c-.91-.494-2.363-.514-3.272-.06-.633.316-.89.79-.722 1.235.089-.247.316-.464.663-.642.85-.415 2.185-.405 3.035.06.524.286.751.681.653 1.057.593-.514.464-1.206-.357-1.65"/><path fill="#5AD5E4" d="M94.695 37.856H80.883V48.23c0 2.036 1.344 4.081 4.044 5.632 5.398 3.113 14.089 3.034 19.537 0 2.669-1.482 4.044-4.05 4.044-5.632V37.856zq.015 0 0 0"/><path fill="#fff" d="M105.605 32.655c-2.639-2.046-6.654-3.221-11.034-3.221-2.62 0-5.151.434-7.336 1.254-3.43 1.295-5.705 3.449-6.23 5.91-.404 1.886.268 3.813 1.88 5.424 2.491 2.48 7.05 4.021 11.904 4.021 2.6 0 5.151-.444 7.366-1.274 3.619-1.364 5.912-3.627 6.308-6.196.306-2.144-.702-4.239-2.858-5.918"/><path fill="#13121A" d="M105.11 33.284c-4.162-3.231-11.934-3.982-17.599-1.848-5.656 2.134-7.564 6.531-4.064 10.01 3.728 3.705 12.073 4.95 18.42 2.558 6.338-2.381 7.673-7.282 3.243-10.72"/><path fill="#312F3A" d="M105.114 33.28c-4.162-3.231-11.934-3.982-17.599-1.848-4.746 1.788-6.852 5.168-5.349 8.26.445-1.887 2.244-3.646 5.151-4.733 5.112-1.926 12.122-1.245 15.879 1.67 2.116 1.65 2.779 3.666 2.077 5.514 3.243-2.58 3.312-6.166-.159-8.863"/><mask id="c" width="27" height="16" x="81" y="30" maskUnits="userSpaceOnUse" style="mask-type:luminance"><path fill="#fff" d="M83.447 41.447c3.728 3.706 12.073 4.95 18.42 2.56 6.338-2.392 7.673-7.293 3.243-10.731-4.162-3.231-11.934-3.982-17.599-1.848-5.656 2.134-7.564 6.531-4.064 10.02"/></mask><g mask="url(#c)"><path fill="#A4A3CD" d="M83.398 38.41c-1.918 1.63-.168 3.32-.168 3.32 3.036-3.32 8.691-3.34 8.691-3.34l-.484-.8s-5.844-1.048-8.039.82"/><path fill="#A4A3CD" d="M84.933 33.815c-2.512.553-2.393 2.56-2.393 2.56 5.151-.9 9.749 1.442 9.749 1.442l.306-1.028c0-.01-5.616-3.428-7.662-2.974M89.1 31.616c-1.878-.297-3.084 1.087-3.084 1.087 3.806.652 6.753 3.567 6.753 3.567l.553-.702s-1.948-3.596-4.222-3.952M101.23 31.965c-.455 3.25-4.499 4.97-4.499 4.97l-.208 1.255c.95.76 6.378.632 7.307-2.134 1.078-3.162-2.6-4.091-2.6-4.091M92.742 31.224c2.917 1.6 1.592 4.762 1.592 4.762l1.107.633c1.345-.445 3.817-2.54 2.195-4.812-1.433-1.996-4.894-.583-4.894-.583"/><path fill="#A4A3CD" d="m96.586 38.308-1.453.84c2.215 1.967 7.336 5.178 10.263 2.856 3.104-2.47 1.424-4.516 1.424-4.516-6.051 2.075-10.234.82-10.234.82"/><path fill="#8E8DBD" d="M106.713 37.516c.099.642-.198 1.354-.722 1.966-1.265 1.492-4.103 1.789-5.873 1.562-.989-.119-1.878-.564-2.758-.89-.772-.286-1.533-.603-2.205-1.037l-.03.02c2.215 1.966 7.336 5.177 10.263 2.855 3.105-2.47 1.424-4.515 1.424-4.515-.03.02-.06.03-.099.04"/><path fill="#A4A3CD" d="M94.07 39.207c.643 2.825 2.73 7.815 6.388 6.946 3.885-.929 4.755-3.33 4.755-3.33-5.883-1.334-9.501-3.745-9.501-3.745z"/><path fill="#8E8DBD" d="M104.195 43.892c-5.112 2.677-8.562-3.054-9.106-4.763l-1.019.079c.643 2.826 2.73 7.816 6.388 6.946 3.885-.929 4.755-3.33 4.755-3.33h-.02c-.227.396-.533.83-.998 1.068"/><path fill="#A4A3CD" d="m94.652 39.416-1.434-.514c-2.027 1.117-2.462 8.4.534 8.429 2.986.03 4.707-2.708 4.707-2.708-4.262-3.576-3.807-5.207-3.807-5.207"/><path fill="#8E8DBD" d="m93.238 38.912-.02-.01c-2.027 1.117-2.462 8.4.534 8.429a4.7 4.7 0 0 0 1.75-.317c-3.984.287-3.856-6.64-2.264-8.102"/><path fill="#A4A3CD" d="M86.544 44.175c2.344 1.166 4.252-.02 4.252-.02.455-3.577 2.64-5.158 2.64-5.158l-1.375-.583c-3.658 1.364-7.86 4.595-5.517 5.76"/></g><path fill="#F2B024" d="M97.02 38.504c-1.423.702-3.609.573-4.795-.237-.554-.376-.791-.84-.742-1.275l-.178.682c-.059.464.188.968.762 1.383 1.226.9 3.49 1.077 4.963.346.752-.375 1.127-.899 1.108-1.442l-.04-.81c.01.493-.346.997-1.078 1.353"/><path fill="#EEDE6D" d="M97.087 35.866c-1.266-.691-3.273-.711-4.548-.089-1.276.623-1.444 1.72-.327 2.49 1.197.82 3.372.949 4.796.237 1.433-.701 1.433-1.907.079-2.638"/><path fill="#54608A" d="M96.45 36.222c-.92-.494-2.363-.514-3.273-.06-.92.455-1.038 1.246-.237 1.799.86.583 2.432.682 3.46.168s1.028-1.383.05-1.907"/><path fill="#676F93" d="M96.451 36.222c-.92-.494-2.363-.514-3.273-.06-.632.317-.89.791-.721 1.236.089-.237.316-.465.662-.643.85-.415 2.185-.405 3.035.06.524.286.752.681.653 1.057.603-.514.465-1.206-.356-1.65"/><path fill="#5AD5E4" d="M62.297 37.856H48.484V48.23c0 1.581 1.375 4.15 4.044 5.632 5.438 3.034 14.139 3.113 19.538 0 2.699-1.56 4.043-3.596 4.043-5.632V37.856z"/><path fill="#fff" d="M69.762 30.688c-2.185-.82-4.716-1.254-7.336-1.254-4.38 0-8.404 1.175-11.034 3.22-2.156 1.68-3.174 3.775-2.848 5.91.386 2.578 2.69 4.831 6.308 6.195 2.215.83 4.766 1.274 7.366 1.274 4.855 0 9.413-1.541 11.904-4.021 1.612-1.61 2.284-3.537 1.879-5.425-.534-2.45-2.808-4.604-6.239-5.899"/><path fill="#13121A" d="M69.486 31.436c-5.655-2.134-13.437-1.383-17.6 1.848-4.429 3.438-3.094 8.339 3.244 10.73s14.692 1.146 18.42-2.559c3.5-3.488 1.592-7.885-4.064-10.02"/><path fill="#312F3A" d="M69.485 31.432c-5.655-2.134-13.437-1.383-17.6 1.848-3.47 2.697-3.4 6.284-.157 8.863-.702-1.858-.05-3.864 2.066-5.514 3.757-2.915 10.777-3.587 15.879-1.67 2.907 1.097 4.706 2.846 5.151 4.733 1.503-3.092-.603-6.472-5.339-8.26"/><mask id="d" width="27" height="16" x="49" y="30" maskUnits="userSpaceOnUse" style="mask-type:luminance"><path fill="#fff" d="M73.55 41.447c-3.728 3.706-12.072 4.95-18.42 2.56-6.338-2.392-7.673-7.293-3.243-10.731 4.162-3.231 11.934-3.982 17.6-1.848 5.655 2.134 7.563 6.531 4.063 10.02"/></mask><g mask="url(#d)"><path fill="#A4A3CD" d="M73.6 38.406c-2.194-1.868-8.037-.82-8.037-.82l-.485.8s5.656.02 8.691 3.34c0 0 1.74-1.69-.168-3.32"/><path fill="#A4A3CD" d="M72.069 33.811c-2.047-.454-7.663 2.964-7.663 2.964l.307 1.028s4.597-2.342 9.749-1.443c0 0 .128-1.995-2.393-2.549M67.894 31.616c-2.274.356-4.222 3.952-4.222 3.952l.554.702s2.946-2.915 6.763-3.567c-.01 0-1.217-1.384-3.095-1.087M55.756 31.96s-3.668.93-2.6 4.082c.94 2.766 6.367 2.895 7.307 2.134l-.198-1.255c0 .01-4.044-1.7-4.509-4.96M59.36 31.825c-1.62 2.272.851 4.367 2.196 4.812l1.107-.633s-1.325-3.171 1.602-4.762c-.01-.02-3.47-1.433-4.904.583"/><path fill="#A4A3CD" d="M50.18 37.484S48.5 39.52 51.606 42c2.926 2.322 8.048-.89 10.263-2.856l-1.454-.84s-4.182 1.255-10.233-.82"/><path fill="#8E8DBD" d="M59.627 40.162c-.89.326-1.77.77-2.758.89-1.77.217-4.608-.07-5.873-1.562-.524-.622-.82-1.334-.722-1.966a.5.5 0 0 1-.109-.04S48.485 39.52 51.59 42c2.927 2.322 8.048-.89 10.263-2.856l-.03-.02c-.662.425-1.423.752-2.195 1.038"/><path fill="#A4A3CD" d="M51.781 42.823s.87 2.401 4.756 3.33c3.648.87 5.745-4.11 6.387-6.946l-1.631-.129c-.01 0-3.629 2.411-9.512 3.745"/><path fill="#8E8DBD" d="M52.805 43.89c-.464-.247-.77-.672-.988-1.077h-.02s.87 2.4 4.756 3.33c3.648.869 5.744-4.111 6.387-6.947l-1.019-.079c-.553 1.73-4.004 7.45-9.116 4.773"/><path fill="#A4A3CD" d="m63.78 38.898-1.434.514s.445 1.62-3.807 5.217c0 0 1.72 2.737 4.706 2.708 2.996-.03 2.561-7.312.534-8.439"/><path fill="#8E8DBD" d="m63.782 38.898-.02.01c1.592 1.463 1.71 8.39-2.254 8.112a4.9 4.9 0 0 0 1.75.317c2.986-.03 2.55-7.312.524-8.439"/><path fill="#A4A3CD" d="m64.945 38.402-1.375.583s2.185 1.581 2.64 5.158c0 0 1.908 1.186 4.252.02 2.333-1.156-1.869-4.387-5.517-5.76"/></g><path fill="#F2B024" d="M64.778 38.269c-1.196.82-3.371.948-4.795.237-.731-.366-1.087-.86-1.068-1.364l-.04.81c-.019.534.357 1.068 1.108 1.443 1.473.731 3.738.554 4.964-.346.573-.414.81-.909.76-1.383l-.177-.682c.04.445-.198.9-.752 1.285"/><path fill="#EEDE6D" d="M64.454 35.777c-1.275-.632-3.273-.602-4.548.09-1.355.73-1.355 1.936.07 2.647 1.423.702 3.608.573 4.794-.237 1.127-.78.96-1.877-.316-2.5"/><path fill="#54608A" d="M63.833 36.15c-.92-.454-2.363-.434-3.273.06-.969.534-.979 1.403.05 1.907s2.6.415 3.46-.168c.801-.553.682-1.344-.237-1.798"/><path fill="#676F93" d="M63.825 36.15c-.92-.454-2.364-.434-3.273.06-.82.445-.95 1.136-.356 1.64-.099-.375.119-.77.653-1.057.85-.464 2.185-.474 3.035-.06.356.169.573.406.662.643.168-.435-.089-.909-.722-1.225"/></svg>