<svg xmlns="http://www.w3.org/2000/svg" width="209" height="209" fill="none"><path fill="url(#a)" d="m173.631 147.8-70.14-41.058a1.86 1.86 0 0 0-1.872-.009L.933 164.659c-1.236.715-1.245 2.496-.02 3.22l69.562 40.862a1.86 1.86 0 0 0 1.872.009l101.255-57.731c1.254-.704 1.264-2.495.029-3.219"/><path fill="#313247" d="m58.063 2.3 5.077 112.976 140.584 86.793 5.274-3.337V86.499L63.14 0z"/><path fill="#5B5C71" d="m58.063 118.601 145.858 83.465V88.806L58.063 2.295z"/><path fill="#13121A" d="M174.65 80.2c-16.195-9.002-32.703.645-37.761 21.047-5.049 20.392 2.813 45.657 18.41 57.036 16.596 12.114 35.477 4.003 41.143-18.855 5.676-22.867-4.549-49.649-21.792-59.228"/><path fill="#312F3A" d="M167.572 149.427c-14.077-10.274-21.174-33.073-16.616-51.479 2.588-10.46 8.529-17.779 15.842-20.665-13.401-2.652-25.674 6.888-29.909 23.973-5.049 20.391 2.813 45.656 18.41 57.036 13.008 9.491 27.399 6.566 35.761-6.135-7.019 3.728-15.538 3.072-23.488-2.73"/><mask id="b" width="64" height="88" x="135" y="76" maskUnits="userSpaceOnUse" style="mask-type:luminance"><path fill="#fff" d="M174.658 80.2c17.233 9.58 27.458 36.361 21.792 59.228-5.666 22.858-24.547 30.969-41.143 18.855-15.597-11.379-23.459-36.644-18.41-57.036 5.058-20.401 21.576-30.05 37.761-21.047"/></mask><g mask="url(#b)"><path fill="#A4A3CD" d="M162.409 82.338c-6.147 8.709 1.686 27.3 1.686 27.3l3.539.998s-3.441-18.797 8.038-31.37c0 .01-7.911-4.511-13.263 3.072"/><path fill="#A4A3CD" d="M153.648 81.004s-8.117 1.096-8.784 9.863c-.549 7.143 16.705 23.21 16.705 23.21l3.95-1.791c-.01.01-12.283-13.483-11.871-31.282M141.068 95.328s-4.803 5.049-2.451 11.057c2.853 7.3 18.538 11.057 18.538 11.057l2.49-2.358c.01-.01-13.567-7.603-18.577-19.756M169.705 126.125l-4.921 1.615s-4.362 14.726-17.175 18.689c0 0 6.01 11.497 18.067 5.577 10.548-5.186 7.686-23.308 4.029-25.881M139.326 118.77s-3.559 12.563 5.45 15.822c10.146 3.679 17.057-6.096 17.989-10.901l-3.255-3.209s-11.94 6.781-20.184-1.712"/><path fill="#A4A3CD" d="m172.677 120.754-2.45 5.46s7.646 12.926 3.078 34.59c0 0 9.254 4.06 17.263-8.122 7.528-11.448-8.617-26.047-17.891-31.928"/><path fill="#8E8DBD" d="m172.676 120.754-.059.117c2.157 1.889 3.921 4.178 5.549 6.527 1.862 2.691 4.205 5.313 5.313 8.493 1.99 5.705 2.588 15.353-2.637 20.666-2.167 2.202-4.843 3.718-7.48 3.865-.029.127-.049.245-.078.372 0 0 9.254 4.061 17.263-8.122 7.558-11.438-8.588-26.037-17.871-31.918"/><path fill="#A4A3CD" d="m172.289 117.164.49 5.529s11.94 10.205 20.988 28.738c0 0 9.127-4.697 10.44-18.298 1.236-12.779-20.135-15.969-31.918-15.969"/><path fill="#8E8DBD" d="m172.289 117.164.304 3.444c7.235.509 32.438 7.642 24.85 26.655-.696 1.741-2.225 3.072-3.705 4.109.01.02.02.039.029.069 0 0 9.127-4.697 10.44-18.298 1.236-12.789-20.135-15.979-31.918-15.979"/><path fill="#A4A3CD" d="m170.516 114.552 2.96 4.374s6.264-2.711 23.361 8.708c0 0 9.93-7.759 7.95-17.671-1.98-9.913-31.027-2.975-34.271 4.589"/><path fill="#8E8DBD" d="m170.516 114.555.049.069c4.882-6.37 32.673-12.006 34.055 1.389.461-1.879.588-3.914.167-6.047-1.98-9.902-31.027-2.975-34.271 4.589"/><path fill="#A4A3CD" d="m167.789 111.054 3.225 4.13s5.01-8.445 19.106-12.643c0 0 3.588-7.22-2.558-14.12-6.147-6.898-16.538 9.482-19.773 22.633"/></g><path fill="#F2B024" d="M168.37 109.651c-2.245-1.096-4.392-1.027-6.078-.058l-2.323 1.712c1.578-.91 3.588-.93 5.676.176 4.489 2.378 7.617 9.032 6.695 14.717-.47 2.906-1.902 4.872-3.803 5.675l3.068-1.243c2.039-.851 3.568-2.916 4.048-5.93.951-5.88-2.45-12.691-7.283-15.049"/><path fill="#EEDE6D" d="M165.636 111.485c-4.215-2.231-8.107.166-8.92 5.225-.814 5.069 1.686 11.341 5.813 14.169 4.391 3.013 8.901.998 9.813-4.687.901-5.666-2.216-12.32-6.706-14.707"/><path fill="#54608A" d="M165.323 114.27c-3.039-1.614-5.853.117-6.431 3.767-.588 3.65 1.216 8.18 4.196 10.216 3.166 2.172 6.421.714 7.077-3.376.647-4.1-1.607-8.895-4.842-10.607"/><path fill="#676F93" d="M164.931 126.343c-2.755-1.888-4.431-6.086-3.882-9.471.225-1.4.804-2.486 1.598-3.181-1.883.216-3.353 1.82-3.755 4.355-.588 3.649 1.216 8.18 4.196 10.215 2.666 1.83 5.401 1.086 6.587-1.653-1.284.939-3.029.91-4.744-.265"/><path fill="#13121A" d="M106.595 39.758c-16.194-9.002-32.702.646-37.76 21.048-5.05 20.392 2.813 45.656 18.41 57.036 16.596 12.114 35.476 4.002 41.142-18.855 5.666-22.868-4.558-49.659-21.792-59.229"/><path fill="#312F3A" d="M99.51 108.966C85.433 98.692 78.335 75.893 82.894 57.487c2.588-10.46 8.528-17.779 15.841-20.665-13.4-2.652-25.674 6.888-29.909 23.973-5.048 20.391 2.814 45.656 18.41 57.036 13.009 9.491 27.4 6.566 35.762-6.135-7.019 3.738-15.538 3.072-23.488-2.73"/><mask id="c" width="63" height="88" x="67" y="36" maskUnits="userSpaceOnUse" style="mask-type:luminance"><path fill="#fff" d="M106.58 39.758c17.233 9.58 27.458 36.361 21.792 59.229-5.667 22.857-24.547 30.969-41.143 18.855-15.597-11.38-23.459-36.644-18.41-57.036 5.048-20.402 21.566-30.05 37.761-21.048"/></mask><g mask="url(#c)"><path fill="#A4A3CD" d="M94.346 41.896c-6.146 8.709 1.686 27.3 1.686 27.3l3.54.998s-3.442-18.797 8.038-31.37c0 0-7.911-4.511-13.264 3.072"/><path fill="#A4A3CD" d="M85.593 40.555s-8.117 1.096-8.783 9.863c-.55 7.143 16.704 23.21 16.704 23.21l3.95-1.79c-.01.009-12.283-13.484-11.87-31.283M73.006 54.879s-4.804 5.049-2.451 11.057c2.853 7.3 18.537 11.057 18.537 11.057l2.49-2.358c.01 0-13.557-7.603-18.576-19.756M101.635 85.676l-4.921 1.614s-4.362 14.717-17.175 18.69c0 0 6.01 11.497 18.067 5.577 10.548-5.186 7.695-23.308 4.029-25.881M71.256 78.316s-3.559 12.564 5.45 15.823c10.146 3.679 17.057-6.096 17.989-10.9l-3.255-3.21s-11.93 6.79-20.184-1.713"/><path fill="#A4A3CD" d="m104.615 80.3-2.451 5.46s7.646 12.927 3.078 34.59c0 0 9.254 4.061 17.263-8.121 7.529-11.448-8.607-26.038-17.89-31.928"/><path fill="#8E8DBD" d="m104.621 80.3-.059.118c2.157 1.889 3.922 4.178 5.549 6.527 1.863 2.69 4.205 5.313 5.313 8.493 1.99 5.705 2.588 15.353-2.637 20.666-2.166 2.201-4.842 3.718-7.479 3.865-.03.127-.049.245-.079.372 0 0 9.254 4.06 17.263-8.122 7.548-11.438-8.587-26.028-17.871-31.918"/><path fill="#A4A3CD" d="m104.227 76.71.49 5.53s11.94 10.205 20.988 28.738c0 0 9.126-4.697 10.44-18.298 1.235-12.77-20.125-15.97-31.918-15.97"/><path fill="#8E8DBD" d="m104.227 76.71.303 3.445c7.235.51 32.438 7.642 24.851 26.654-.696 1.742-2.225 3.073-3.706 4.11.01.02.02.039.03.069 0 0 9.126-4.697 10.44-18.298 1.235-12.78-20.125-15.98-31.918-15.98"/><path fill="#A4A3CD" d="m102.461 74.11 2.96 4.374s6.265-2.71 23.361 8.708c0 0 9.93-7.76 7.95-17.671-1.99-9.903-31.036-2.975-34.271 4.589"/><path fill="#8E8DBD" d="m102.461 74.11.049.068c4.882-6.37 32.673-12.006 34.055 1.39.461-1.879.589-3.914.167-6.047-1.99-9.903-31.036-2.975-34.271 4.589"/><path fill="#A4A3CD" d="m99.719 70.613 3.225 4.13s5.009-8.445 19.106-12.643c0 0 3.588-7.221-2.559-14.12-6.146-6.898-16.537 9.482-19.772 22.633"/></g><path fill="#F2B024" d="M100.307 69.206c-2.245-1.096-4.391-1.028-6.078-.059l-2.323 1.713c1.578-.91 3.588-.93 5.676.176 4.49 2.377 7.617 9.031 6.696 14.716-.471 2.906-1.902 4.873-3.804 5.676l3.068-1.243c2.039-.852 3.569-2.916 4.049-5.93.951-5.88-2.451-12.69-7.284-15.05"/><path fill="#EEDE6D" d="M97.566 71.04c-4.215-2.231-8.107.166-8.92 5.225-.814 5.068 1.685 11.34 5.813 14.168 4.391 3.014 8.901.998 9.812-4.687.912-5.675-2.215-12.329-6.705-14.706"/><path fill="#54608A" d="M97.26 73.813c-3.039-1.615-5.852.117-6.43 3.767-.589 3.65 1.215 8.18 4.195 10.216 3.167 2.172 6.421.714 7.078-3.376.647-4.09-1.598-8.885-4.843-10.607"/><path fill="#676F93" d="M96.868 85.886c-2.754-1.888-4.43-6.086-3.882-9.471.226-1.4.804-2.486 1.598-3.18-1.882.215-3.353 1.82-3.754 4.354-.589 3.65 1.215 8.18 4.195 10.215 2.667 1.83 5.402 1.086 6.588-1.654-1.284.94-3.03.91-4.745-.264"/><path fill="#A09FCB" d="M138.954 110.365 73.627 72.36c-2.03-1.194-4.813-.46-5.666 2.045 0 0 2.745-2.476 4.401-1.507l65.317 37.995a4.59 4.59 0 0 1 2.285 3.963l-16.371 58.817c-.432.842-1.049 1.223-1.735 1.174 1.245.548 2.509-.166 2.97-1.546l16.371-59.022a4.5 4.5 0 0 0-2.245-3.914"/><path fill="#fff" d="m121.85 174.739-68.532-39.854c-.97-.567-2.598-.567-3.627.01L.94 162.009c-1.03.568-1.07 1.497-.099 2.065l68.533 39.854c.97.567 2.598.567 3.627-.01l48.75-27.114c1.029-.577 1.078-1.507.098-2.065"/><path fill="#A09FCB" d="m60.298 178.878-16.126-9.374c-1.205-.705-3.215-.695-4.48.01l-13.057 7.26c-1.265.705-1.324 1.85-.118 2.544l16.126 9.374c1.206.705 3.215.695 4.48-.01l13.058-7.26c1.264-.704 1.323-1.849.117-2.544"/><path fill="#DCDCE6" d="m60.298 179.612-16.126-9.374c-1.205-.704-3.215-.694-4.48.01l-13.057 7.261c-1.265.704-1.324 1.849-.118 2.544l16.126 9.374c1.206.704 3.215.694 4.48-.01l13.058-7.261c1.264-.704 1.323-1.839.117-2.544"/><path fill="#A09FCB" d="m121.758 176.791-48.75 27.114c-1.04.567-2.588.606-3.627.01 0 0-68.817-40.05-68.866-40.099-.078-.069-.137-.147-.196-.215-.01-.01-.02-.03-.03-.039-.048-.079-.088-.157-.156-.5v1.595s0 .715.735 1.175c.04.029 68.385 39.785 68.385 39.785 1.04.607 2.579.568 3.618-.01l48.75-27.114c.519-.283.784-.665.794-1.037l.117-1.693c.01.362-.264.744-.774 1.028"/><path fill="#313247" d="m114.035 176.406-2.47 1.37c-.059.039-.137.058-.216.078h-.01a1 1 0 0 1-.235.029h-.01a1 1 0 0 1-.225-.029h-.02a.7.7 0 0 1-.206-.078l-3.058-1.781a.4.4 0 0 1-.118-.108l2.147-1.194c.128-.068.196-.166.206-.254l.029-.842c0 .089-.068.186-.196.255l-2.47 1.37a1.3 1.3 0 0 1-.206.078h-.01a.95.95 0 0 1-.46 0h-.03a.7.7 0 0 1-.196-.078l-3.058-1.781a.3.3 0 0 1-.118-.108l2.147-1.193c.127-.069.196-.167.196-.255l.029-.851c0 .098-.068.196-.196.264l-2.47 1.37a1.3 1.3 0 0 1-.206.078h-.01a1 1 0 0 1-.245.03h-.01c-.078 0-.157-.01-.225-.02-.01-.01-.02-.01-.03-.01a1 1 0 0 1-.196-.068l-3.068-1.781c-.049-.029-.078-.069-.118-.108l2.147-1.194c.128-.068.196-.166.206-.264l.03-.851c0 .098-.079.186-.197.254l-2.47 1.37a.7.7 0 0 1-.215.079h-.01a1 1 0 0 1-.236.029h-.01c-.078 0-.156-.01-.225-.02-.01-.009-.02-.009-.03-.009a1 1 0 0 1-.195-.069l-3.059-1.781a.4.4 0 0 1-.117-.107l2.146-1.194c.128-.069.196-.167.206-.255l.03-.851q0 .074-.06.147a.5.5 0 0 1-.146.117l-2.47 1.37c-.07.03-.138.059-.216.078-.01 0-.01 0-.01.01-.079.02-.147.02-.235.02h-.01c-.079 0-.157 0-.226-.02h-.029a.7.7 0 0 1-.196-.078l-3.059-1.781a.6.6 0 0 1-.117-.098l2.147-1.193c.127-.069.196-.167.196-.255l.03-.851c0 .049-.02.098-.05.147a.6.6 0 0 1-.147.117l-2.47 1.37c-.069.029-.138.059-.216.078 0 0-.01 0-.01.01-.078.02-.147.02-.235.02h-.01c-.078 0-.147 0-.225-.02h-.03c-.068-.02-.137-.039-.196-.078l-3.058-1.781a.4.4 0 0 1-.128-.108l2.137-1.194c.128-.068.196-.166.196-.264l.03-.851c0 .098-.069.186-.196.254l-2.47 1.37a1 1 0 0 1-.206.079h-.01a1 1 0 0 1-.245.029h-.01a1 1 0 0 1-.226-.029h-.02a.7.7 0 0 1-.205-.079l-3.059-1.781a.4.4 0 0 1-.117-.097l2.147-1.194c.127-.069.196-.167.205-.264l.03-.852c0 .098-.069.186-.196.255l-2.47 1.37c-.06.039-.138.058-.216.078h-.01a1 1 0 0 1-.235.029h-.01a.9.9 0 0 1-.226-.029h-.029c-.069-.02-.137-.039-.196-.078l-3.068-1.781a.4.4 0 0 1-.118-.108l2.147-1.194c.127-.068.186-.166.196-.254l.03-.851c0 .097-.07.195-.197.264l-2.47 1.37a.6.6 0 0 1-.206.078h-.01a1 1 0 0 1-.235.029h-.01c-.068 0-.147-.009-.225-.019-.01 0-.02 0-.03-.01-.068-.02-.137-.039-.196-.068l-3.058-1.781c-.06-.03-.089-.069-.118-.108l2.147-1.194c.127-.068.196-.166.206-.264l.03-.851c0 .098-.08.186-.197.254l-2.47 1.37a.8.8 0 0 1-.216.078h-.01a.8.8 0 0 1-.235.03h-.01c-.078 0-.147-.01-.225-.02-.01 0-.02 0-.03-.01a1 1 0 0 1-.196-.068l-3.058-1.781c-.059-.029-.088-.069-.118-.108l2.137-1.193c.128-.069.196-.167.196-.255l.03-.841c0 .088-.079.186-.196.254l-2.47 1.37a1 1 0 0 1-.216.078l-.01.01c-.079.02-.157.02-.235.02h-.01c-.088 0-.157 0-.226-.02-.01 0-.02-.01-.03-.01a1 1 0 0 1-.195-.078l-3.059-1.781c-.058-.029-.088-.068-.117-.098l2.146-1.193c.128-.069.197-.167.197-.255l.029-.851c0 .098-.069.196-.196.264l-2.47 1.37a1.3 1.3 0 0 1-.206.078l-.01.01c-.069.02-.157.02-.235.02-.079 0-.147-.01-.226-.02h-.03a1.2 1.2 0 0 1-.195-.078l-3.059-1.781a.4.4 0 0 1-.137-.118v-.009c-.01-.01-.01-.01-.01-.02l2.127-1.184c.128-.068.196-.166.196-.254l.03-.842c0 .088-.079.186-.196.245l-2.47 1.37a1 1 0 0 1-.216.078l-.01.01c-.078.019-.157.019-.245.019h-.01c-.078 0-.147 0-.225-.019-.01 0-.02 0-.03-.01-.068-.02-.137-.039-.196-.069l-3.058-1.78a.3.3 0 0 1-.118-.108l2.147-1.194c.127-.068.196-.166.206-.254l.03-.851c0 .097-.07.195-.197.264l-2.47 1.37a1.4 1.4 0 0 1-.206.078h-.01a1 1 0 0 1-.245.029h-.01c-.078 0-.147-.01-.225-.019-.01 0-.02 0-.03-.01-.068-.02-.137-.039-.196-.069l-3.058-1.78c-.02-.01-.03-.03-.05-.04l2.167-1.203c.128-.069.196-.166.196-.264l.03-.852c0 .098-.079.196-.196.265l-2.47 1.369c-.06.04-.138.059-.216.079h-.01c-.079.019-.157.019-.235.019h-.01q-.105-.002-.226-.019c-.01 0-.02-.01-.03-.01-.068-.02-.136-.039-.195-.078l-3.059-1.781a.3.3 0 0 1-.127-.118l-.01-.009a.23.23 0 0 1-.04-.137l-.029.851v.01c0 .009.01.019 0 .029 0 .02 0 .029.01.039 0 .01.01.02.02.039.01.01.01.02.01.02l.01.01c.01 0 .01 0 .01.009.009.02.019.03.038.049.02.02.05.04.079.059h.01l3.068 1.781q.062.044.137.059c.02.009.04.009.059.019 0 0 .02.01.03.01.01.01.019.01.029.01.02.01.049.01.078.01h.138c.02 0 .039-.01.058-.01s.05-.01.06-.01c.019 0 .048 0 .068-.01h.03c.019-.01.029-.01.038-.01a1 1 0 0 0 .079-.029.5.5 0 0 0 .098-.049l.157-.088-.02.558s0 .019.01.029v.039c.01.01.01.02.02.03.01 0 .01.019.02.019h.009l.01.01c.01.02.02.029.039.039.02.02.049.039.078.059v.01l3.059 1.781c.04.029.088.039.137.058.02 0 .04.01.059.02 0 0 .02.01.03.01.01.009.019 0 .029.009.03 0 .058 0 .078.01.02 0 .05 0 .069.01h.069c.019 0 .048-.01.068-.01h.059c.02-.01.049-.01.059-.01.01-.009.02-.009.02-.009h.019c.01 0 .02-.01.03-.01l.087-.03c.03-.009.06-.029.098-.039l.255-.146-.029.655v.039c0 .01 0 .03.01.039s.01.02.02.03l.01.019.009.01c.01.02.03.029.04.049.029.02.048.039.078.059l.01.01 1.342.782-.058.059-2.47 1.37a.7.7 0 0 1-.216.078h-.01a1 1 0 0 1-.236.03h-.01a1 1 0 0 1-.225-.03s-.02-.01-.03-.01a.7.7 0 0 1-.195-.078l-10.323-6.008c-.059-.029-.098-.078-.137-.117v-.01a.23.23 0 0 1-.049-.137l-.03.851v.079c.01.009.01.019.02.029s.01.02.02.02h.01v.009c.01.02.03.03.039.039.02.02.049.04.078.059h.01l3 1.752c-.03.029-.05.058-.088.078l-2.47 1.37a1.3 1.3 0 0 1-.207.078h-.01a.8.8 0 0 1-.225.029h-.01c-.078 0-.157-.009-.225-.019-.01-.01-.02-.01-.03-.01a1 1 0 0 1-.196-.068l-3.313-1.918a.4.4 0 0 1-.127-.118l-.01-.009a.22.22 0 0 1-.04-.128l-.029.852v.039c0 .01 0 .019.01.029 0 .01.01.02.01.039l.01.01v.01l.01.01c.019.019.029.039.039.049.02.019.049.048.078.058h.01l2.02 1.165a.3.3 0 0 1-.08.068l-6.224 3.464a1.3 1.3 0 0 1-.206.078h-.01c-.078.02-.157.02-.235.02h-.01c-.078 0-.147-.01-.225-.02-.01 0-.02-.009-.02-.009a.7.7 0 0 1-.206-.079l-2.313-1.35a.6.6 0 0 1-.138-.118.23.23 0 0 1-.049-.127l-.029.842v.088c0 .019.01.029.02.039 0 0 .01.01.01.02l.01.009v.01l.038.039c.02.02.05.049.079.059h.01l2.02 1.174c-.03.02-.05.049-.09.069l-6.253 3.473a1 1 0 0 1-.216.079h-.01a1 1 0 0 1-.235.029h-.01a1 1 0 0 1-.225-.029s-.02-.01-.03-.01c-.069-.02-.137-.039-.196-.078l-2.323-1.351c-.059-.029-.108-.068-.128-.117v-.01a.2.2 0 0 1-.039-.127l-.04.851v.039c.01.01.01.02.01.03s.01.019.02.039l.02.019v.02l.04.039c.019.02.048.039.078.059 0 0 .01 0 .01.01l2.313 1.35q.062.029.137.059c.02 0 .04 0 .059.009.01 0 .02 0 .03.01.01 0 .019.01.029.01.03.01.059.01.088.01h.196c.02 0 .05 0 .069-.01.02 0 .039-.01.058-.01.01 0 .02 0 .02-.01.02-.009.03-.009.04-.009.029 0 .058-.02.088-.03a.4.4 0 0 0 .088-.049l3.95-2.192-.02.558c0 .01 0 .02.01.03 0 .009 0 .029.01.039 0 .009 0 .019.02.029 0 .01.01.02.01.02l.01.009.01.01c.01.02.029.03.039.039.029.02.049.039.078.059h.01l3.49 2.035c.049.03.088.049.147.059.02.01.03.01.059.02.01 0 .02.009.029.009s.02 0 .04.01c.019 0 .048 0 .078.01.029 0 .049.01.068 0h.137c.02 0 .04-.01.06-.01.019-.01.048-.01.058-.01l.02-.009h.01c.02 0 .029 0 .039-.01.03 0 .058-.02.078-.03.04-.009.059-.029.098-.048l.275-.147-.03.675v.039c0 .02.01.029.01.039.01.01.01.02.02.03 0 .009.01.019.01.019v.01c.01 0 .01.01.01.01l.038.039c.02.019.05.039.079.058h.01l1.735.999c.039.029.088.048.137.068.02.01.04.01.059.01.01.01.02.01.03.01s.019.009.029.009c.03 0 .059.01.078.01.02.01.05.01.069.01h.068c.02 0 .05 0 .06-.01.019 0 .048 0 .068-.01.02 0 .039 0 .059-.009 0 0 .01 0 .02-.01h.009c.01 0 .03 0 .04-.01.029 0 .048-.02.078-.02.029-.019.058-.029.088-.048l.412-.225-.03.821v.04c0 .019 0 .029.01.039 0 0 0 .019.02.029 0 0 0 .02.01.02l.01.009v.01c.009.02.029.03.038.049.02.02.05.039.079.059h.01l.539.313a.3.3 0 0 1-.079.059l-2.47 1.37a1.4 1.4 0 0 1-.206.078l-.01.01a1 1 0 0 1-.245.029h-.01a.9.9 0 0 1-.225-.029s-.02-.01-.03-.01c-.068-.02-.137-.039-.195-.078l-3.059-1.781c-.059-.03-.088-.069-.118-.098l2.147-1.194c.128-.068.196-.166.196-.254l.03-.852c0 .098-.079.196-.196.265l-2.47 1.369a1 1 0 0 1-.216.079s-.01 0-.01.01c-.079.019-.157.019-.235.019h-.01c-.069 0-.147 0-.226-.019-.01 0-.02-.01-.03-.01-.068-.02-.136-.039-.195-.079l-3.059-1.78a.3.3 0 0 1-.127-.118h-.01a.22.22 0 0 1-.04-.137l-.038.861c0 .01.01.02 0 .03 0 .019 0 .029.01.039 0 .01.01.019.019.029 0 .01.01.02.01.02l.01.009c0 .01 0 .01.01.01.01.02.019.03.039.039.02.02.049.04.078.059h.01l3.058 1.781a.6.6 0 0 0 .138.068c.02.01.039.01.059.01.01.01.02.01.02.01.019 0 .029.01.038.01.02.01.05.01.079.01h.196c.02 0 .049-.01.059-.01.02-.01.049-.01.068-.01l.02-.01h.01c.02 0 .029 0 .039-.01a1 1 0 0 0 .078-.029.3.3 0 0 0 .098-.049l.255-.137-.02.656v.039c0 .01 0 .029.01.039s.01.02.02.029c0 .01.01.02.02.02h.01v.01l.039.039c.02.02.049.039.078.059 0 0 .01 0 .01.009l3.058 1.781c.05.02.089.039.138.059.02.01.039.01.058.01 0 .01.02.01.03.01s.02.009.03.009c.029 0 .058.01.078.01h.196c.02 0 .049 0 .059-.01.02 0 .049 0 .068-.009l.02-.01c.01 0 .03 0 .039-.01.03-.01.059-.02.078-.029.03-.01.069-.03.098-.049l.294-.167-.029.715v.039c.01.01.01.019.01.029s.01.02.02.03c0 .009.01.019.02.019l.009.01.04.039c.019.02.048.039.078.059h.01l3.058 1.781c.039.019.088.039.137.058.02.01.04.01.059.01.01.01.02.01.03.01.01.01.019.01.029.01.03 0 .049.009.078.009h.197c.019 0 .038 0 .058-.009.02 0 .049-.01.069-.01l.02-.01h.009c.01 0 .02 0 .03-.01a1 1 0 0 0 .078-.029c.03-.01.069-.029.098-.039l.255-.137-.02.655v.079c.01.009.01.019.02.039l.02.019h.01v.01c.009.02.029.03.038.049.02.02.05.039.079.059l3.068 1.781c.04.019.079.039.128.058.02.01.039.01.058.01.01 0 .02.01.03.01s.02.01.02.01c.039.01.068.01.097.01h.138c.02 0 .039 0 .059-.01h.058c.02 0 .05-.01.069-.01.01 0 .01 0 .02-.01h.01c.019 0 .029 0 .039-.01a1 1 0 0 0 .078-.029.5.5 0 0 0 .098-.049l.255-.137-.02.656v.039c.01.01.01.019.01.039.01.01.01.02.02.029.01 0 .01.02.02.02v.01c.01 0 .01 0 .01.009.009.01.019.03.038.049.02.02.05.04.079.059h.01l20.605 11.987c.05.019.089.039.138.058.02.01.039 0 .058.01 0 0 .02 0 .03.01h.02c.039.01.068.01.097.01h.138c.02 0 .049 0 .058-.01h.07c.019 0 .038-.01.058-.01l.02-.01h.01c.019-.009.029-.009.039-.009l.088-.03c.039-.01.059-.029.098-.039l.255-.137-.03.656v.039c0 .01 0 .019.01.029 0 .01 0 .03.02.039 0 .01 0 .01.01.02 0 0 .01.01.01.019l.038.04c.02.019.05.039.079.058l.01.01 3.058 1.781q.06.03.147.059c.02.009.03.009.06.009.009 0 .019 0 .028.01h.04c.02 0 .049.01.078.01h.206c.02-.01.04-.01.059-.01.02 0 .049-.01.059-.01s.02 0 .02-.009h.01c.009-.01.019-.01.028-.01.03-.01.06-.02.079-.02.04-.019.069-.029.098-.039l.255-.147-.03.656v.039c0 .01.01.029.01.039 0 0 0 .02.02.03 0 .009 0 .019.01.019l.01.01h.01c.009.02.029.039.038.049.02.019.05.039.079.059l.01.009 3.058 1.781c.04.03.098.039.147.059.02.01.04.01.059.02h.03c.01.009.019.009.029.009.03.01.059.01.088.01.02 0 .05 0 .069.01h.059c.02-.01.049-.01.068-.01s.04-.01.059-.01c.02 0 .049 0 .069-.009h.02l.009-.01c.01 0 .03-.01.04-.01.029-.01.048-.02.078-.029s.068-.03.098-.04l.255-.146-.03.655v.049c.01.01 0 .02.01.039.01.01.01.02.02.03s.01.019.02.019v.01c.009 0 .009 0 .009.01a.08.08 0 0 0 .04.039c.019.02.048.039.078.059v.009l3.058 1.772c.05.029.088.039.137.058.02.01.04.01.06.02.009 0 .019.01.029.01s.02 0 .029.009c.02.01.049.01.078.01.03 0 .05.01.069.01h.069c.02 0 .049-.01.068-.01s.04-.01.059-.01c.02 0 .05 0 .069-.009h.03c.019-.01.029-.01.048-.01.03-.01.05-.02.079-.03.039-.009.068-.029.088-.039l.255-.146-.03.665c.01.01 0 .029 0 .039.01.01.01.02.01.029.01.02.01.03.02.04l.02.019v.01c.009 0 .009.01.009.019.01.01.02.03.04.04.019.019.048.039.078.058l.01.01 3.058 1.781c.04.02.088.049.137.059.02 0 .04.009.06.009.009 0 .019 0 .029.01.01 0 .02.01.02.01.038.01.068.01.097.01.02.01.05.01.069.01h.127c.02 0 .05 0 .059-.01.02 0 .04-.01.069-.01h.02l.009-.01c.02 0 .03 0 .049-.01.03 0 .049-.009.078-.019.03-.02.06-.029.099-.049l.244-.137-.02.646v.039c.01.01 0 .019.01.029s.01.03.02.039l.02.02v.01c.01 0 .01.01.01.019.01.01.02.03.039.039.02.02.049.049.078.059l.01.01 2.373 1.38c.039.019.088.049.137.058.02 0 .039.01.059.02.01 0 .02.01.02.01.019 0 .029.01.029.01.039 0 .068.009.098.009h.196c.02-.009.049-.009.068-.009s.04-.01.06-.01h.029c.02 0 .029-.01.039-.01.03-.01.059-.01.088-.02.03-.019.059-.029.088-.039l2.47-1.37c.128-.068.197-.166.197-.264l.029-.802s.03 0 .04-.01c.019 0 .048 0 .068-.01h.02l.01-.01c.019 0 .029-.009.048-.009.02 0 .05-.01.079-.02.03-.01.058-.029.088-.039l2.47-1.37c.128-.068.196-.166.206-.264l.02-.607.96.558c.05.019.089.039.138.059.02.009.039.009.058.019h.03c.01.01.02.01.03.01.029.01.058.01.088.01h.137c.02 0 .039 0 .058-.01h.06c.019-.01.048-.01.068-.01l.01-.01h.02c.01-.009.029-.009.039-.009.029-.01.049-.02.078-.03.03-.01.059-.029.088-.039l2.47-1.37q.192-.117.207-.264l.02-.567.175.107c.04.02.089.039.138.059.02 0 .039 0 .059.01.01 0 .02 0 .029.009.02 0 .02.01.02.01.039.01.068.01.098.01h.186c.02 0 .049 0 .069-.01.02 0 .049-.01.058-.01s.02-.009.02-.009h.01c.02-.01.03-.01.039-.01l.088-.029c.03-.01.059-.03.088-.049l2.471-1.37c.127-.069.196-.167.196-.264l.019-.568.177.108a.34.34 0 0 0 .137.058c.02 0 .029.01.059.02h.029c.01.01.02.01.03.01.029 0 .059 0 .078.009h.196c.02 0 .049-.009.069-.009.019-.01.039-.01.059-.01l.009-.01h.02c.01 0 .029-.01.039-.01a.5.5 0 0 0 .167-.078l2.47-1.37c.128-.068.206-.166.206-.264l.03-.851c0 .098-.069.195-.197.264l-2.47 1.37a2 2 0 0 1-.206.078h-.01a1 1 0 0 1-.245.029c-.078 0-.147-.009-.225-.019-.01 0-.02 0-.029-.01-.069-.02-.138-.039-.197-.068l-6.695-3.895a.3.3 0 0 1-.127-.117l-.01-.01c0-.01 0-.02-.01-.029l2.108-1.175c.127-.068.196-.166.206-.264l.02-.587 2.45 1.429c.039.019.088.039.137.058.02.01.039.01.059.02.01 0 .02.01.029.01s.02 0 .03.01c.029 0 .059.009.078.009h.186c.02 0 .04-.009.059-.009.02 0 .049-.01.069-.01.01-.01.01-.01.019-.01h.01c.01 0 .02-.01.039-.01q.032-.014.079-.029c.029-.01.059-.03.088-.049l.255-.147-.029.656v.039c0 .01 0 .019.009.029.01.01.01.03.02.039l.01.01v.01c.01 0 .01.01.01.02.009.009.019.029.039.039a.5.5 0 0 0 .078.058l.01.01 3.059 1.781c.039.02.088.039.137.059.019 0 .039.01.059.019.009 0 .019.01.019.01.02 0 .03 0 .039.01.03 0 .059.01.079.01h.196c.02 0 .049-.01.059-.01.019-.01.049-.01.068-.01l.01-.01h.01c.02 0 .029-.009.049-.009.02-.01.049-.02.078-.03a.4.4 0 0 0 .089-.049l.068-.039 2.402-1.34c.127-.069.196-.167.196-.255l.02-.567 1.607.939c.04.02.089.049.138.059a.13.13 0 0 0 .058.009c.01 0 .02 0 .03.01 0 0 .019.01.029.01.03.01.059.01.088.01h.196c.02-.01.049-.01.069-.01s.039 0 .059-.01h.029c.02-.01.03-.01.04-.01.029-.009.058-.019.078-.019.029-.02.069-.029.098-.039l2.47-1.37c.128-.069.196-.166.196-.264l.03-.832c.264.352.196.45.078.509m-59.543-26.009-3.313 1.84-.03.851 1.147-.636-.03.715v.039c0 .009.01.019.01.029.01.01.01.02.02.039 0 0 0 .01.01.02l.01.01v.009c.02.02.03.03.04.049.019.02.048.039.078.059h.01l1.323.773-.06.059-2.47 1.37c-.068.029-.137.058-.215.078h-.01a1 1 0 0 1-.245.029h-.01c-.078 0-.147-.01-.225-.019-.01 0-.02-.01-.02-.01a.7.7 0 0 1-.206-.078l-6.058-3.523c-.059-.029-.098-.078-.137-.117v-.01a.2.2 0 0 1-.04-.127l-.029.851v.049c.01.01.01.019.01.029.01.02.01.03.02.039s.01.02.02.02v.01s.009 0 .009.009c.01.02.03.03.04.04.019.019.048.039.078.058h.01l2.754 1.605a.4.4 0 0 1-.069.059l-2.47 1.37a1.4 1.4 0 0 1-.206.078h-.01a1 1 0 0 1-.245.029h-.01c-.078 0-.146-.01-.225-.019-.01-.01-.02-.01-.03-.01-.068-.02-.137-.039-.195-.069l-4.04-2.348a.4.4 0 0 1-.136-.117v-.01c-.02-.02-.02-.049-.02-.078l2.059-1.145c.127-.079.196-.167.196-.264l.02-.548.156.097c.04.03.088.04.137.059.02 0 .04.01.06.02h.029c.01 0 .02 0 .029.009.03.01.059.01.078.01h.138c.02 0 .049-.01.059-.01h.068c.02-.009.04-.009.059-.009l.02-.01h.01c.019-.01.029-.01.048-.01l.079-.029c.039-.01.059-.03.088-.039l2.47-1.37q.194-.118.196-.264l.02-.597 1.118.655c.039.02.088.039.137.059.02.01.039.01.059.01.01.01.02.01.029.01s.02.009.02.009c.039 0 .068.01.098.01.02.01.049.01.068.01h.06c.019 0 .038 0 .058-.01.02 0 .049 0 .059-.01.02 0 .049-.009.068-.009h.03c.01 0 .02 0 .039-.01.02-.01.049-.02.078-.02a1 1 0 0 0 .089-.049l2.47-1.37c.127-.078.196-.166.196-.264l.02-.606 2.656 1.546c.04.019.098.048.147.058.02 0 .03 0 .059.01.01.01.02.01.03.01s.029.01.039.01c.03.009.049.009.078.009.02.01.05.01.069.01h.127c.02-.01.04-.01.059-.01.02 0 .049 0 .059-.009h.03c.019-.01.029-.01.038-.01.03-.01.06-.02.079-.02.03-.019.069-.029.098-.039l.284-.156-.02.684v.089c.01.009.01.019.02.039 0 0 0 .019.01.019l.01.01.01.01c.01.019.029.029.039.049.03.019.059.039.078.058h.01l.45.255c.04-.02.02 0-.009.019"/><path fill="#5B5C71" d="M38.476 149.629c-.03-.02-.06-.039-.079-.059-.02-.01-.03-.029-.04-.039 0 0 0-.01-.009-.01v-.01c0-.009-.01-.009-.01-.019-.01-.01-.01-.02-.02-.039 0-.01-.01-.03-.01-.039v-.049l.02-.666-3.695 2.055a.4.4 0 0 0 .117.108l3.304 1.927c.059.03.127.059.196.079.01 0 .02 0 .03.009.068.01.147.02.225.02h.01q.117 0 .235-.029h.01a1.4 1.4 0 0 0 .215-.079l2.47-1.37c.02-.009.03-.029.05-.039zM43.198 148.054c-.03-.02-.059-.04-.078-.059l-.04-.039s0-.01-.01-.01c0-.01-.01-.01-.01-.02-.01-.009-.01-.019-.019-.039 0-.01-.01-.019-.01-.039v-.049l.02-.577-.186.098c-.03.019-.06.029-.098.049-.03.009-.05.019-.079.029-.01 0-.03 0-.04.01h-.009c-.01 0-.01 0-.02.01-.02 0-.039.009-.068.009-.02 0-.04.01-.059.01h-.186c-.03 0-.059-.01-.079-.01-.01 0-.039-.009-.039-.009-.01 0-.02 0-.03-.01-.019 0-.038-.01-.058-.01q-.077-.03-.137-.059l-1.186-.694-.02.587c0 .097-.069.195-.206.264l-2.137 1.194c.03.039.069.078.118.107l3.303 1.928c.06.029.128.059.196.078.01 0 .02 0 .03.01.068.01.147.019.225.019h.01a1 1 0 0 0 .235-.029h.01a.8.8 0 0 0 .216-.078l2.47-1.37c.04-.02.059-.049.079-.069zM45.527 145.696q-.001.147-.206.265l-2.157 1.203c.02.02.04.039.069.059l3.303 1.928a1.2 1.2 0 0 0 .226.088c.068.019.147.019.225.019q.118 0 .235-.029h.01c.079-.02.147-.049.216-.078l2.47-1.37a.23.23 0 0 0 .089-.079l-4.46-2.593zM51.447 157.018v-.039l.02-.655-.255.137c-.03.019-.059.029-.098.049-.03.009-.05.019-.078.029-.01 0-.02 0-.04.01h-.01c-.01 0-.01.009-.02.009-.019 0-.038.01-.068.01-.02 0-.039.01-.059.01h-.20500000000000002c-.03 0-.06-.01-.079-.01-.01 0-.02-.01-.03-.01s-.019 0-.029-.009c-.02 0-.039-.01-.058-.01-.05-.02-.099-.039-.138-.059l-3.166-1.839-.02.567q0 .147-.206.264l-2.127 1.184c0 .01 0 .01.01.02.03.039.069.078.137.117l3.059 1.781c.059.03.127.059.196.078.01 0 .02.01.03.01.068.01.146.02.225.02h.01q.117 0 .235-.03h.01a.8.8 0 0 0 .215-.078l2.47-1.37a.5.5 0 0 0 .108-.088c-.01-.01-.01-.019-.01-.029-.029-.049-.029-.059-.029-.069M53.663 162.712a1 1 0 0 1-.078-.058l-.04-.039-.01-.01c0-.01-.01-.01-.01-.02-.01-.01-.01-.029-.019-.039 0-.01-.01-.02-.01-.039v-.049l.02-.656-.255.147c-.03.01-.059.03-.098.039-.03.01-.049.02-.078.03-.01 0-.03.009-.04.009h-.03c-.019 0-.038.01-.068.01-.02 0-.039.01-.068.01h-.196c-.03 0-.06-.01-.079-.01l-.049-.01h-.02c-.019-.009-.039-.009-.058-.009q-.077-.03-.137-.059L50.693 161l-.02.616q0 .147-.206.265l-2.147 1.193a.3.3 0 0 0 .118.098l3.058 1.781c.06.029.128.059.197.078.01 0 .02 0 .029.01.069.02.147.02.225.02h.01a1 1 0 0 0 .236-.03h.01a.8.8 0 0 0 .215-.078l2.47-1.37a1 1 0 0 0 .098-.088zM58.052 165.255a.5.5 0 0 1-.079-.058l-.04-.04s0-.009-.009-.009c0-.01-.01-.01-.01-.02-.01-.01-.01-.029-.02-.039 0-.01-.01-.02-.01-.039v-.039l.02-.656-.254.137a.3.3 0 0 1-.098.039c-.03.01-.05.02-.079.03-.01 0-.03.009-.039.009h-.03c-.02 0-.039.01-.068.01-.02 0-.04.01-.059.01h-.20600000000000002c-.03 0-.059-.01-.078-.01-.01 0-.02-.01-.05-.01h-.019c-.02-.009-.039-.009-.059-.009-.049-.02-.098-.04-.137-.059l-1.647-.959-.02.616c0 .098-.068.196-.205.265l-2.137 1.193c.03.04.068.079.117.108l3.059 1.781c.059.029.127.059.196.078.01 0 .02.01.03.01a.8.8 0 0 0 .225.029h.01a1 1 0 0 0 .235-.029h.01a.8.8 0 0 0 .215-.078l2.47-1.37c.05-.03.07-.059.099-.088zM62.425 167.812c-.03-.02-.06-.039-.079-.059l-.04-.039-.009-.01v-.009c0-.01-.01-.01-.01-.02-.01-.01-.01-.02-.02-.039 0-.01-.01-.02-.01-.039v-.039l.02-.656-.254.147a.3.3 0 0 1-.098.039l-.079.029c-.01 0-.03.01-.039.01h-.03c-.019 0-.039.01-.068.01-.02 0-.04 0-.059.01h-.20600000000000002c-.03 0-.059-.01-.088-.01 0 0-.01 0-.02-.01-.01 0-.02 0-.029-.01-.02 0-.04-.01-.059-.01a2 2 0 0 1-.137-.058l-1.647-.959-.02.616c0 .098-.068.196-.205.264l-2.137 1.194a.4.4 0 0 0 .117.098l3.059 1.781c.059.029.127.059.196.078.01 0 .02 0 .03.01a.8.8 0 0 0 .225.029h.01a1 1 0 0 0 .235-.029h.01a.8.8 0 0 0 .215-.078l2.47-1.37c.04-.03.07-.049.099-.078zq.015 0 0 0M66.79 170.357c-.03-.02-.059-.039-.079-.059-.02-.01-.029-.029-.039-.039l-.01-.01v-.009c0-.01-.01-.01-.01-.02-.01-.01-.01-.02-.019-.039 0-.01-.01-.02-.01-.039v-.049l.02-.656-.255.147a.3.3 0 0 1-.098.039 1 1 0 0 1-.079.029c-.01 0-.029.01-.039.01h-.03c-.019 0-.038.01-.068.01-.02 0-.039.01-.068.01h-.216c-.03 0-.059-.01-.088-.01 0 0-.01 0-.02-.01-.01 0-.02 0-.03-.01-.019 0-.038-.009-.058-.009q-.077-.03-.137-.059l-1.647-.959-.02.616c0 .098-.068.196-.206.265l-2.147 1.193a.3.3 0 0 0 .118.098l3.059 1.781c.058.029.127.059.196.078.01 0 .02 0 .03.01.068.01.146.02.225.02h.01a1 1 0 0 0 .235-.03h.01a.8.8 0 0 0 .215-.078l2.47-1.37c.04-.029.07-.058.099-.078zM71.208 172.908q-.047-.03-.079-.059l-.039-.039c0-.01 0-.01-.01-.01 0-.01-.01-.01-.01-.019-.01-.01-.01-.03-.019-.04 0-.009-.01-.019-.01-.039v-.049l.03-.665-.275.147c-.03.01-.059.029-.098.039-.03.01-.049.019-.078.029-.01 0-.02.01-.04.01h-.028999999999999998c-.02.01-.04.01-.069.01-.02 0-.039.01-.058.01h-.197c-.029 0-.058-.01-.078-.01-.01 0-.02-.01-.049-.01 0 0-.01 0-.02-.01-.02 0-.039-.01-.058-.01a2 2 0 0 1-.138-.058l-1.647-.959-.02.616q0 .147-.205.264l-2.137 1.194c.03.039.069.078.127.108l3.059 1.781a1.2 1.2 0 0 0 .225.088.9.9 0 0 0 .226.029h.01q.117 0 .235-.029h.01a.8.8 0 0 0 .215-.079l2.47-1.369c.04-.03.07-.059.099-.088zM75.59 175.462a1 1 0 0 1-.078-.058l-.039-.039-.01-.01c0-.01-.01-.01-.01-.02-.01-.01-.01-.029-.02-.039 0-.01-.009-.02-.009-.039v-.049l.02-.656-.255.147a.3.3 0 0 1-.098.039c-.03.01-.05.02-.079.03-.01 0-.03.009-.039.009h-.01c-.01 0-.01 0-.02.01-.019.01-.039.01-.068.01-.02 0-.04.01-.069.01h-.196c-.03 0-.058-.01-.088-.01 0 0-.01 0-.02-.01-.01 0-.02-.01-.029-.01-.02-.009-.04-.009-.059-.009-.049-.02-.098-.039-.137-.059l-1.647-.959-.02.616q0 .147-.205.265l-2.147 1.193a.3.3 0 0 0 .118.098l3.058 1.781c.059.029.127.059.196.078.01 0 .02.01.03.01.068.02.147.02.225.02h.01q.118 0 .235-.03h.01a.8.8 0 0 0 .216-.078l2.47-1.37c.039-.019.068-.049.098-.078zM79.964 178.009a.5.5 0 0 1-.079-.058c-.02-.01-.03-.03-.039-.04 0 0 0-.009-.01-.009v-.01c0-.01-.01-.01-.01-.02-.01-.01-.01-.019-.02-.039 0-.01-.009-.019-.009-.039v-.039l.02-.656-.255.147c-.03.02-.06.029-.088.039-.03.01-.05.02-.079.03-.01 0-.03.009-.04.009h-.009c-.01 0-.01 0-.02.01-.02 0-.039.01-.068.01-.02 0-.04.01-.059.01h-.20600000000000002c-.03 0-.059-.01-.078-.01-.01 0-.02-.01-.04-.01-.01 0-.02 0-.029-.01-.02-.01-.04-.009-.059-.009-.049-.02-.098-.04-.137-.059l-1.647-.959-.02.616q0 .147-.205.265l-2.137 1.193c.029.039.068.079.117.108l3.059 1.781c.059.039.127.058.196.078.01 0 .02 0 .03.01.068.01.146.019.225.019h.01a1 1 0 0 0 .235-.029h.01a.8.8 0 0 0 .215-.078l2.47-1.37c.04-.02.07-.059.099-.088zc.01.01 0 .01 0 0M84.35 180.566c-.029-.02-.058-.039-.078-.059l-.04-.039-.009-.01v-.01c0-.009-.01-.009-.01-.019-.01-.01-.01-.02-.02-.039 0-.01-.01-.02-.01-.039v-.049l.02-.656-.255.147a.3.3 0 0 1-.097.039c-.03.01-.05.02-.079.029-.01 0-.02.01-.04.01h-.009c-.01 0-.01 0-.02.01-.02 0-.039.01-.068.01-.02 0-.04.01-.059.01h-.20600000000000002c-.03 0-.059-.01-.098-.01l-.02-.01c-.01 0-.02-.01-.029-.01-.02 0-.04-.01-.059-.01a2 2 0 0 1-.137-.058l-1.647-.959-.02.606c0 .098-.068.196-.205.265l-2.147 1.193c.03.039.059.069.117.098l3.059 1.781c.059.029.127.059.196.078.01 0 .02.01.03.01.068.02.147.02.225.029h.01a1 1 0 0 0 .235-.029h.01a.8.8 0 0 0 .215-.078l2.47-1.37c.04-.029.07-.049.099-.088zq.015 0 0 0M88.804 183.14a.5.5 0 0 1-.079-.059l-.039-.039-.01-.009c0-.01-.01-.01-.01-.02-.01-.01-.01-.02-.02-.039 0-.01-.009-.02-.009-.039v-.039l.03-.734-.324.176c-.03.019-.059.029-.088.039-.03.01-.05.02-.079.029-.01 0-.03.01-.039.01h-.03c-.019 0-.038.01-.068.01-.02 0-.04.01-.069.01h-.20500000000000002c-.03 0-.06-.01-.079-.01-.01 0-.03-.01-.03-.01-.01 0-.019 0-.029-.01-.02 0-.039-.009-.058-.009a3 3 0 0 1-.138-.059l-1.647-.959-.02.616q0 .147-.205.265l-2.137 1.193c.03.039.059.069.118.108l3.058 1.781a.7.7 0 0 0 .196.078c.01 0 .03.01.03.01a1 1 0 0 0 .225.019h.01a1 1 0 0 0 .235-.029h.01a.8.8 0 0 0 .215-.078l2.47-1.37c.04-.02.07-.059.099-.078zM93.576 173.016c-.03-.02-.059-.039-.078-.059-.02-.009-.03-.029-.04-.039 0 0 0-.01-.01-.01 0-.009-.01-.009-.01-.019-.009-.01-.01-.02-.019-.039 0-.01-.01-.02-.01-.039v-.04l.02-.655-.255.137a.3.3 0 0 1-.098.039c-.03.01-.049.02-.078.029-.01 0-.03.01-.04.01h-.028999999999999998c-.02 0-.04.01-.059.01-.02 0-.039.01-.059.01h-.196c-.03 0-.058-.01-.098-.01 0 0-.01 0-.02-.01-.01 0-.019 0-.029-.01-.02 0-.039-.009-.059-.009a3 3 0 0 1-.137-.059l-2.45-1.429-.02.578c0 .097-.069.185-.196.264l-2.137 1.193a.3.3 0 0 0 .117.098l3.059 1.781c.059.03.127.059.196.078.01 0 .02.01.03.01.068.02.146.02.225.02h.01q.117 0 .235-.03h.01a.8.8 0 0 0 .215-.078l2.47-1.37c.03-.019.05-.039.08-.058zq.015 0 0 0M89.19 170.471a.5.5 0 0 1-.118-.098s0-.01-.01-.01c0-.009-.01-.009-.01-.019-.01-.01-.01-.02-.02-.039 0-.01-.01-.03-.01-.039v-.04l.02-.655-.255.147a.3.3 0 0 1-.098.039l-.078.029c-.01 0-.03.01-.04.01h-.028999999999999998c-.02 0-.039.01-.068.01-.02 0-.04.01-.06.01h-.195c-.03 0-.059-.01-.098-.01 0 0-.01-.01-.02-.01s-.02-.01-.03-.01c-.019 0-.038-.01-.048-.01a2 2 0 0 1-.138-.058l-2.45-1.429-.02.577q0 .147-.206.265l-2.147 1.193c.03.039.06.069.118.098l3.059 1.781a1 1 0 0 0 .225.088.948.948 0 0 0 .46 0h.01c.08-.019.148-.049.216-.078l2.47-1.37c.03-.02.05-.039.08-.059zq.015 0 0 0M84.799 167.92a.5.5 0 0 1-.079-.058l-.039-.039s0-.01-.01-.01c-.01-.01-.01-.01-.01-.02-.01-.01-.01-.019-.02-.039-.009-.01-.009-.02-.009-.039v-.049l.02-.656-.255.137a.3.3 0 0 1-.098.039c-.03.01-.05.02-.079.03-.01 0-.03.01-.039.01h-.03c-.019 0-.038.009-.068.009-.02 0-.04 0-.059.01h-.196c-.03 0-.059-.01-.078-.01-.01 0-.02-.009-.04-.009-.01 0-.019-.01-.029-.01-.02 0-.039-.01-.049-.01-.049-.02-.098-.039-.137-.059l-2.46-1.428-.02.577c0 .098-.069.196-.206.264l-2.137 1.194c.03.039.069.078.127.108l3.059 1.781a1.2 1.2 0 0 0 .225.088 1 1 0 0 0 .226.019h.01q.117 0 .235-.029h.01c.078-.02.147-.049.215-.078l2.47-1.37c.03-.02.05-.04.08-.059zM80.43 165.366c-.03-.02-.06-.039-.079-.059l-.039-.039-.01-.01c0-.01-.01-.01-.01-.02-.01-.009-.01-.019-.02-.039 0-.009-.009-.019-.009-.039v-.049l.02-.665-.265.147a.3.3 0 0 1-.098.039l-.079.029c-.01 0-.029.01-.039.01h-.03c-.019.01-.038.01-.068.01-.02 0-.039.01-.059.01h-.20500000000000002c-.03 0-.06-.01-.079-.01-.01 0-.04-.01-.04-.01-.009 0-.019 0-.028-.01-.02 0-.04-.01-.06-.01a2 2 0 0 1-.136-.058l-2.451-1.429-.02.577q0 .147-.206.265l-2.147 1.193c.03.039.06.069.118.098l3.059 1.781c.058.029.127.059.196.078.01 0 .02.01.03.01.068.02.146.02.224.02h.01q.118 0 .236-.03h.01a.8.8 0 0 0 .215-.078l2.47-1.37c.03-.019.05-.039.079-.068zM76.049 162.819c-.03-.02-.06-.039-.079-.059l-.039-.039s0-.01-.01-.01v-.01c0-.009-.01-.009-.01-.019-.01-.01-.01-.03-.02-.039 0-.01-.009-.03-.009-.04v-.039l.02-.655-.255.137c-.03.019-.059.029-.098.049-.03.009-.05.019-.079.029-.01 0-.03.01-.039.01h-.01c-.01 0-.01 0-.02.01-.019 0-.038.009-.068.009-.02 0-.04 0-.059.01h-.196c-.03 0-.059-.01-.078-.01-.01 0-.02-.009-.04-.009-.01 0-.019 0-.029-.01-.02 0-.039-.01-.059-.01-.049-.02-.098-.039-.137-.059l-2.45-1.428-.02.577q0 .147-.206.264l-2.137 1.194a.4.4 0 0 0 .118.098l3.068 1.781a.7.7 0 0 0 .196.068c.01 0 .02 0 .03.01a.8.8 0 0 0 .225.029h.01a1 1 0 0 0 .235-.029h.01a.8.8 0 0 0 .215-.078l2.47-1.37c.03-.02.05-.039.08-.059zq0 .015 0 0M71.645 160.266c-.03-.02-.06-.039-.079-.059l-.04-.039s0-.01-.009-.01c0-.009-.01-.009-.01-.019-.01-.01-.01-.02-.02-.039 0-.01-.01-.02-.01-.039v-.049l.02-.656-.254.147a.3.3 0 0 1-.099.039l-.078.029c-.01 0-.03.01-.04.01h-.028999999999999998c-.02.01-.039.01-.058.01s-.04.01-.069.01h-.196c-.03 0-.059-.01-.098-.01 0 0-.01 0-.04-.01h-.019c-.02 0-.04-.01-.049-.01a2 2 0 0 1-.137-.058l-2.45-1.419-.02.577c0 .098-.07.196-.206.264l-2.147 1.194c.03.039.059.069.118.098l3.058 1.781c.059.039.127.058.196.078.01 0 .02.01.03.01.068.019.147.019.225.019h.01a1 1 0 0 0 .235-.029h.01a.8.8 0 0 0 .216-.078l2.47-1.37c.03-.02.049-.039.078-.059zM67.266 157.717a.5.5 0 0 1-.079-.059c-.02-.009-.03-.029-.04-.039l-.009-.009c-.01-.01-.01-.02-.01-.02-.01-.01-.01-.02-.02-.039 0-.01-.01-.02-.01-.039v-.039l.02-.656-.254.147a.3.3 0 0 1-.099.039l-.078.029c-.01 0-.02.01-.04.01h-.009c-.01 0-.02 0-.02.01-.02 0-.039.01-.068.01-.02 0-.04 0-.059.009h-.186c-.03 0-.059-.009-.079-.009-.01 0-.02-.01-.049-.01h-.02c-.019 0-.038-.01-.058-.01q-.077-.03-.137-.059l-2.451-1.428-.02.577q0 .147-.206.264l-2.137 1.194c.03.039.06.068.118.108l3.059 1.78c.058.03.127.059.196.079.01 0 .02 0 .03.01.068.019.146.019.224.019h.01q.118 0 .236-.029h.01a.8.8 0 0 0 .215-.079l2.47-1.369c.03-.02.05-.04.079-.059zM62.89 155.168a.5.5 0 0 1-.117-.097s0-.01-.01-.01c-.01-.01-.01-.02-.01-.02-.01-.01-.01-.019-.02-.039 0-.01-.01-.02-.01-.039v-.049l.02-.656-.254.147a.3.3 0 0 1-.098.039c-.03.01-.05.02-.079.03-.01 0-.03.009-.04.009h-.028999999999999998c-.02 0-.039.01-.058.01s-.04.01-.06.01h-.195c-.03 0-.059-.01-.079-.01-.01 0-.02-.01-.039-.01-.01 0-.02 0-.03-.009-.019 0-.038-.01-.058-.01q-.077-.03-.137-.059l-2.451-1.428-.02.577c0 .098-.068.196-.206.264l-2.137 1.194c.03.039.06.078.118.107l3.059 1.781c.058.03.127.059.196.079a.824.824 0 0 0 .255.029h.01q.117 0 .235-.029h.01c.078-.02.146-.049.215-.079l2.47-1.37c.03-.019.05-.039.079-.058zM58.504 152.612c-.03-.02-.059-.039-.078-.059l-.04-.039-.01-.01c0-.01-.01-.019-.01-.019-.01-.01-.01-.03-.019-.04 0-.009-.01-.019-.01-.039v-.049l.02-.655-.255.137a.3.3 0 0 1-.098.039c-.03.01-.049.02-.078.029-.01 0-.03.01-.04.01h-.028999999999999998c-.02 0-.04.01-.069.01-.02 0-.039.01-.058.01h-.20600000000000002c-.03 0-.06-.01-.079-.01-.01 0-.02-.01-.039-.01-.01 0-.02-.01-.03-.01-.019 0-.039-.009-.058-.009q-.077-.03-.137-.059l-2.5-1.448-.02.577c0 .098-.068.196-.206.264l-2.127 1.184v.028999999999999998q.047.06.137.118l3.059 1.781c.059.029.127.058.196.078l.03.01a.9.9 0 0 0 .225.029h.01q.118 0 .235-.029h.01c.078-.02.147-.049.215-.078l2.47-1.37c.03-.02.05-.04.08-.059zM56.839 155.964a.5.5 0 0 1-.079-.058c-.02-.01-.03-.03-.04-.04l-.009-.009c0-.01-.01-.01-.01-.02-.01-.01-.01-.029-.02-.039 0-.01-.01-.02-.01-.039v-.049l.02-.656-.254.137a.3.3 0 0 1-.098.039c-.03.01-.05.02-.079.03-.01 0-.03.01-.04.01h-.028999999999999998c-.02 0-.039.009-.068.009h-.255c-.03 0-.059-.009-.098-.009l-.02-.01c-.01 0-.02 0-.03-.01-.019 0-.038-.01-.058-.01a2 2 0 0 1-.137-.058l-1.608-.94-.02.568c0 .098-.068.186-.195.264l-2.147 1.194c.03.039.059.068.117.098l3.059 1.78c.059.03.127.059.196.079.01 0 .02.009.03.009a.8.8 0 0 0 .225.03h.01a1 1 0 0 0 .235-.03h.01a.8.8 0 0 0 .215-.078l2.47-1.37c.03-.019.04-.039.07-.058zM60.223 162.114v-.039l.02-.656-.256.137c-.03.02-.059.03-.098.049-.03.01-.049.02-.078.03-.01 0-.02 0-.04.009h-.01c-.009 0-.019 0-.019.01-.02 0-.049.01-.068.01s-.04 0-.07.01h-.196c-.029 0-.058-.01-.078-.01-.01 0-.02-.01-.039-.01 0 0-.01 0-.02-.01-.019 0-.039-.009-.058-.009-.05-.01-.098-.04-.137-.059l-3.059-1.781-.01-.01c-.02-.01-.039-.029-.058-.039l-.02.568c0 .097-.069.195-.206.264l-2.137 1.194c.03.039.069.068.118.107l3.058 1.781c.059.029.127.059.196.078.01 0 .02 0 .03.01.068.02.147.02.225.02h.01q.117 0 .235-.03h.01a.8.8 0 0 0 .216-.078l2.47-1.37c.049-.029.068-.059.108-.088-.01-.01-.01-.019-.02-.039-.01-.029-.02-.039-.02-.049M64.605 164.679v-.04l.02-.655-.255.137a.3.3 0 0 1-.098.039c-.03.01-.049.019-.078.029-.01 0-.03.01-.04.01h-.028999999999999998c-.02.01-.04.01-.069.01-.02 0-.039.01-.058.01h-.20600000000000002c-.03 0-.06-.01-.079-.01-.01 0-.03-.01-.03-.01-.009 0-.019-.01-.029-.01-.02 0-.039-.009-.058-.009q-.077-.03-.138-.059l-3.068-1.781c-.02-.01-.04-.029-.059-.039l-.02.567c0 .098-.068.196-.195.265l-2.147 1.193c.03.039.059.069.117.098l3.059 1.781c.059.029.127.059.196.078.01 0 .02 0 .03.01.068.01.146.02.225.02h.01q.117 0 .235-.03h.01a.8.8 0 0 0 .215-.078l2.47-1.37c.05-.029.08-.059.109-.088 0-.01-.01-.02-.01-.029-.03-.02-.03-.03-.03-.039M68.982 167.214v-.049l.02-.656-.255.137a.3.3 0 0 1-.098.039c-.03.01-.049.02-.078.03-.01 0-.03.009-.04.009h-.028999999999999998c-.02 0-.04.01-.069.01-.02 0-.039 0-.058.01h-.128c-.02 0-.049 0-.069-.01-.029 0-.058 0-.078-.01-.01 0-.02-.009-.049-.009 0 0-.01 0-.02-.01-.02 0-.039-.01-.058-.01a2 2 0 0 1-.138-.059l-3.068-1.78h-.01c-.02-.01-.039-.03-.059-.04l-.02.568q0 .147-.205.264l-2.137 1.194a.4.4 0 0 0 .118.108l3.068 1.78c.059.03.127.059.196.079.01 0 .02.009.03.009.068.02.146.02.225.02h.01q.117 0 .235-.029h.01a.8.8 0 0 0 .215-.079l2.47-1.37a.5.5 0 0 0 .109-.088c-.01-.009-.01-.019-.02-.039-.02.01-.02-.009-.02-.019M73.395 169.056l-.265.147c-.03.019-.059.029-.098.049-.03.009-.05.019-.079.029-.01 0-.02.01-.039.01h-.03c-.019.01-.038.01-.068.01-.02 0-.039.009-.059.009h-.137c-.02 0-.049 0-.069-.009-.029 0-.058-.01-.078-.01-.01 0-.02 0-.03-.01-.01 0-.019 0-.029-.01-.02 0-.039-.009-.059-.009-.049-.02-.098-.04-.137-.059l-3.058-1.781h-.01c-.02-.01-.04-.029-.059-.039l-.02.567c0 .098-.068.196-.205.265l-2.147 1.193c.03.039.059.069.117.098l3.059 1.781a.7.7 0 0 0 .196.078c.01 0 .02.01.03.01.068.01.146.02.225.02h.01q.117 0 .235-.03h.01a.6.6 0 0 0 .206-.078l2.47-1.37c.049-.029.078-.059.118-.098 0-.01-.01-.01-.01-.019 0-.01-.01-.02-.01-.039v-.04zM77.764 172.321v-.039l.02-.656-.256.137a.3.3 0 0 1-.098.04c-.03.009-.049.019-.078.029-.01 0-.03.01-.04.01h-.028999999999999998c-.02 0-.039.009-.068.009-.02 0-.04.01-.06.01h-.20600000000000002c-.028 0-.058-.01-.078-.01a.1.1 0 0 1-.029-.009c-.01 0-.02 0-.03-.01-.019 0-.038-.01-.058-.01a2 2 0 0 1-.137-.059l-3.059-1.78h-.01c-.03-.02-.049-.04-.068-.049l-.02.577c0 .098-.069.196-.206.264l-2.137 1.184a.5.5 0 0 0 .128.117l3.058 1.781c.059.04.128.059.196.079a.82.82 0 0 0 .255.039h.01a1 1 0 0 0 .235-.03h.01a.8.8 0 0 0 .216-.078l2.47-1.37a.5.5 0 0 0 .108-.088c-.01-.01-.01-.019-.02-.039-.02-.029-.02-.039-.02-.049M82.137 174.872v-.049l.02-.656-.256.147c-.03.02-.058.029-.098.049-.03.01-.049.02-.078.029-.01 0-.02 0-.04.01h-.028999999999999998c-.02 0-.039.01-.068.01-.02 0-.04 0-.069.01h-.196c-.03 0-.059-.01-.078-.01-.01 0-.02-.01-.03-.01s-.02 0-.03-.01c-.019 0-.038-.009-.058-.009a3 3 0 0 1-.137-.059l-3.059-1.781h-.01a.2.2 0 0 1-.049-.039l-.02.567c0 .098-.068.196-.205.265l-2.147 1.193a.3.3 0 0 0 .118.098l3.058 1.781c.059.029.128.059.196.078.01 0 .02 0 .03.01.068.02.147.02.225.02h.01a1 1 0 0 0 .235-.03h.01a.8.8 0 0 0 .216-.078l2.47-1.37c.049-.029.078-.059.108-.088-.01-.01-.01-.019-.01-.029s-.03-.039-.03-.049M86.527 177.421v-.049l.02-.656-.255.137a.3.3 0 0 1-.098.039 1 1 0 0 0-.079.03c-.01 0-.02.009-.039.009h-.01c-.01 0-.02 0-.02.01-.019 0-.038.01-.068.01-.02 0-.039 0-.068.01h-.196c-.03 0-.06-.01-.079-.01-.01 0-.02 0-.03-.01-.01 0-.019 0-.029-.01-.02-.009-.039-.009-.058-.009-.05-.02-.099-.039-.138-.059l-3.068-1.781c-.02-.01-.04-.029-.059-.039l-.02.577c0 .098-.068.196-.205.264l-2.137 1.194c.029.039.058.069.117.108l3.059 1.781a1.2 1.2 0 0 0 .225.088c.069.019.147.019.226.019a1 1 0 0 0 .235-.029h.01a.8.8 0 0 0 .215-.078l2.47-1.37a.6.6 0 0 0 .109-.088c-.01-.01-.01-.02-.02-.03 0-.039 0-.049-.01-.058M87.52 173.818c-.03-.02-.059-.039-.078-.059-.01-.019-.03-.029-.04-.039l-.01-.01v-.01c-.01-.009-.01-.009-.01-.019-.009-.01-.009-.03-.019-.039 0-.01-.01-.03-.01-.039v-.049l.02-.656-.255.147a.4.4 0 0 1-.088.039c-.03.01-.049.02-.078.029-.01 0-.03.01-.04.01h-.028999999999999998c-.02 0-.04.01-.069.01-.02 0-.039.01-.058.01h-.20600000000000002c-.03 0-.06-.01-.098-.01 0 0-.01 0-.02-.01-.01 0-.02 0-.03-.01-.019-.009-.039-.009-.058-.009a3 3 0 0 1-.137-.059l-1.608-.94-.02.568q0 .147-.206.264l-2.146 1.194a.4.4 0 0 0 .117.108l3.059 1.78c.058.03.127.059.196.079.01 0 .02.01.03.01.068.019.146.019.225.019h.01q.117 0 .235-.029h.01q.115-.032.215-.079l2.47-1.369c.03-.02.04-.04.07-.059zM83.135 171.253a1 1 0 0 1-.078-.058c-.01-.02-.03-.03-.04-.04 0 0 0-.009-.01-.009 0-.01-.009-.01-.009-.02-.01-.01-.01-.019-.02-.039 0-.01-.01-.029-.01-.039v-.039l.02-.656-.255.147a.3.3 0 0 1-.098.039 1 1 0 0 1-.078.029c-.01 0-.03.01-.04.01h-.009c-.01 0-.01 0-.02.01-.02 0-.039.01-.068.01-.02 0-.04 0-.069.01h-.196c-.03 0-.059-.01-.088-.01 0 0-.01 0-.02-.01-.01 0-.02-.01-.03-.01-.019 0-.038-.01-.058-.01a2 2 0 0 1-.137-.058l-1.608-.94-.02.578c0 .097-.068.186-.196.264l-2.146 1.194c.029.039.058.068.117.097l3.059 1.781c.058.03.127.059.196.079.01 0 .02.009.03.009.068.01.146.02.225.02h.01q.117 0 .235-.029h.01a1.4 1.4 0 0 0 .215-.079l2.47-1.37c.03-.019.05-.039.07-.058zM78.76 168.71a1 1 0 0 1-.078-.058l-.04-.039-.01-.01c0-.01-.009-.01-.009-.02-.01-.01-.01-.029-.02-.039 0-.01-.01-.029-.01-.039v-.049l.03-.665-.274.146a.3.3 0 0 1-.098.04c-.03.009-.05.019-.079.029-.01 0-.03.01-.039.01s-.02 0-.02.009c-.02 0-.039.01-.068.01-.02 0-.04 0-.06.01h-.196c-.029 0-.058-.01-.097-.01 0 0-.01 0-.02-.01-.01 0-.02-.009-.03-.009-.019 0-.038-.01-.058-.01-.049-.02-.098-.039-.137-.059l-1.608-.939-.02.567c0 .098-.068.186-.196.265l-2.146 1.193c.029.039.068.079.127.108l3.058 1.781a1.2 1.2 0 0 0 .226.088c.069.019.147.019.225.019h.01a1 1 0 0 0 .236-.029h.01a.8.8 0 0 0 .215-.078l2.47-1.37c.03-.02.05-.039.069-.059zM74.372 166.158c-.03-.02-.06-.039-.079-.059-.02-.01-.03-.029-.039-.039 0 0 0-.01-.01-.01 0-.01-.01-.01-.01-.02-.01-.009-.01-.019-.02-.039 0-.009-.009-.019-.009-.039v-.049l.02-.655-.255.137c-.03.019-.059.029-.088.039l-.079.029c-.01 0-.03.01-.04.01h-.009c-.01 0-.01 0-.02.01-.02 0-.039.01-.068.01-.02 0-.04-.001-.069.009h-.20600000000000002c-.029 0-.058-.009-.098-.009 0 0-.01 0-.02-.01-.009 0-.019 0-.029-.01-.02 0-.039-.01-.058-.02a2 2 0 0 1-.138-.058l-1.607-.94-.02.578c0 .097-.069.186-.196.254l-2.147 1.194c.03.039.059.068.118.098l3.058 1.78a1 1 0 0 0 .226.089c.068.019.147.019.225.019h.01q.118 0 .235-.029h.01a1.4 1.4 0 0 0 .216-.079l2.47-1.369c.03-.02.05-.04.069-.059zM69.968 163.603c-.03-.02-.06-.039-.079-.059l-.04-.039s0-.01-.009-.01v-.009c0-.01-.01-.01-.01-.02-.01-.01-.01-.029-.02-.039 0-.01-.01-.02-.01-.039v-.039l.02-.656-.254.147a.3.3 0 0 1-.099.039l-.078.029c-.01 0-.03.01-.04.01h-.009c-.01 0-.01 0-.02.01-.02 0-.039.01-.068.01-.02 0-.04.009-.059.009h-.216c-.029 0-.059-.009-.098-.009 0 0-.01 0-.02-.01-.01 0-.019 0-.029-.01-.02 0-.039-.01-.058-.01a2 2 0 0 1-.138-.058l-1.607-.94-.02.568c0 .098-.069.186-.196.264l-2.147 1.194c.03.039.069.078.118.107l3.058 1.781c.059.029.128.059.196.078.01 0 .02.01.03.01.068.02.147.02.225.02h.01c.078 0 .157-.01.245-.03.078-.019.147-.049.216-.078l2.47-1.37c.03-.019.05-.039.069-.058zM65.596 161.056c-.03-.02-.059-.039-.078-.059l-.04-.039s0-.01-.01-.01c0-.009-.009-.009-.009-.019-.01-.01-.01-.02-.02-.039 0-.01-.01-.02-.01-.039v-.049l.02-.646-.255.137c-.029.019-.059.029-.088.039-.03.01-.049.02-.078.029-.01 0-.03.01-.04.01h-.01c-.01 0-.01 0-.019.01-.02 0-.04.01-.069.01-.02 0-.039.009-.058.009h-.20600000000000002c-.03 0-.059-.009-.079-.009-.01 0-.02-.01-.039-.01-.01 0-.02-.01-.03-.01-.019 0-.038-.01-.058-.01a2 2 0 0 1-.137-.058l-1.608-.94-.02.568c0 .098-.068.186-.196.264l-2.147 1.194c.03.039.07.078.118.107l3.059 1.781c.059.03.117.059.196.069.01 0 .02.01.03.01.068.019.146.019.225.019h.01q.117 0 .235-.029h.01a.8.8 0 0 0 .215-.079l2.47-1.369c.03-.02.04-.04.07-.059zM61.208 158.503a.5.5 0 0 1-.079-.058l-.039-.04-.01-.009c0-.01-.01-.01-.01-.02-.01-.01-.01-.029-.02-.039 0-.01-.009-.02-.009-.039v-.039l.02-.656-.255.147c-.03.019-.06.029-.088.039-.03.01-.05.02-.079.029-.01 0-.03.01-.04.01h-.009c-.01 0-.01 0-.02.01-.02 0-.039.01-.068.01-.02 0-.04.01-.069.01h-.147c-.02 0-.049 0-.068-.01-.03 0-.06-.01-.079-.01-.01 0-.02 0-.04-.01h-.019c-.02-.01-.039-.01-.058-.01a2 2 0 0 1-.138-.058l-1.607-.94-.02.578c0 .097-.069.186-.196.264l-2.147 1.194c.03.039.069.068.118.107l3.058 1.781c.059.029.128.059.196.078.01 0 .02 0 .03.01.068.02.147.02.225.02h.01q.117 0 .235-.03h.01c.078-.019.147-.049.216-.078l2.47-1.37c.03-.019.04-.039.069-.059zM91.91 176.355c-.029-.02-.058-.039-.078-.059-.02-.01-.03-.029-.039-.039l-.01-.01c0-.009-.01-.01-.01-.019-.01-.01-.01-.03-.02-.039 0-.01-.009-.02-.009-.04v-.049l.02-.655-.255.147c-.03.019-.059.029-.098.049-.03.009-.05.019-.079.029-.01 0-.029.01-.039.01h-.03c-.019 0-.038.01-.068.01-.02 0-.039 0-.059.009h-.20600000000000002c-.029 0-.058-.009-.098-.009 0 0-.01 0-.02-.01-.009 0-.019 0-.029-.01-.02-.01-.039-.01-.058-.02a2 2 0 0 1-.138-.058l-1.607-.94-.02.568c0 .098-.069.186-.196.264l-2.147 1.194c.03.039.059.068.118.098l3.058 1.781c.06.029.128.058.196.078.01 0 .02.01.03.01.068.019.147.019.225.019h.01q.118 0 .235-.029h.01a.8.8 0 0 0 .216-.078l2.47-1.37c.03-.01.04-.04.069-.059zc.01.01 0 .01 0 0M90.91 179.966v-.049l.02-.656-.255.137a.3.3 0 0 1-.098.039c-.03.01-.05.02-.079.03-.01 0-.03.009-.039.009h-.03c-.019 0-.038.01-.068.01-.02 0-.04.01-.069.01h-.196c-.029 0-.058-.01-.078-.01-.01 0-.02-.01-.04-.01-.009 0-.019-.009-.029-.009-.02-.01-.039-.01-.058-.01-.05-.02-.099-.039-.138-.059l-3.058-1.781h-.01a.2.2 0 0 1-.049-.039l-.02.568q0 .147-.206.264l-2.137 1.194c.03.039.06.078.118.107l3.059 1.781a1 1 0 0 0 .225.088.8.8 0 0 0 .225.03h.01q.118 0 .236-.03h.01a.8.8 0 0 0 .215-.078l2.47-1.37c.05-.029.079-.059.108-.088 0-.01-.01-.02-.01-.029-.029-.02-.029-.03-.029-.049M55.824 159.575v-.039l.02-.656-.255.137c-.03.02-.059.03-.098.049-.03.01-.05.02-.079.03-.01 0-.029.009-.039.009h-.03c-.019 0-.039.01-.068.01-.02 0-.04.01-.059.01h-.20600000000000002c-.029 0-.058-.01-.078-.01-.01 0-.02-.01-.04-.01-.009 0-.019 0-.029-.009-.02 0-.039-.01-.058-.01q-.077-.03-.138-.059l-3.058-1.781h-.01a.2.2 0 0 1-.049-.039l-.02.568c0 .097-.068.195-.206.264l-2.136 1.194c.029.039.058.078.117.107l3.059 1.781c.059.029.127.059.196.078.01 0 .02 0 .03.01.068.01.146.02.225.02h.01a1 1 0 0 0 .235-.03h.01a.8.8 0 0 0 .215-.078l2.47-1.37c.05-.029.079-.059.108-.088-.01-.01-.01-.02-.01-.029-.02-.039-.029-.049-.029-.059M59.315 148.798a1 1 0 0 1-.078-.058l-.04-.04-.01-.009c0-.01-.01-.01-.01-.02-.009-.01-.009-.029-.019-.039 0-.01-.01-.02-.01-.039v-.049l.03-.705-.294.167a.3.3 0 0 1-.098.039l-.079.029c-.01 0-.03.01-.039.01h-.03c-.019 0-.039.01-.068.01-.02 0-.04.01-.069.01h-.196c-.03 0-.059-.01-.078-.01-.01 0-.02-.01-.03-.01s-.02-.01-.029-.01c-.02 0-.04-.01-.059-.01a2 2 0 0 1-.137-.058l-1.588-.92-.02.567c0 .098-.068.186-.196.265l-2.137 1.184a.4.4 0 0 0 .138.117L57.227 151c.059.029.127.059.196.078.01 0 .02.01.03.01a.8.8 0 0 0 .225.029h.01a1 1 0 0 0 .235-.029h.01a.8.8 0 0 0 .215-.078l2.47-1.37a.4.4 0 0 0 .07-.059zM63.712 151.349a.5.5 0 0 1-.079-.059l-.04-.039-.009-.01c0-.009-.01-.009-.01-.019-.01-.01-.01-.02-.02-.039-.01-.01-.01-.02-.01-.039v-.049l.02-.656-.254.137a.3.3 0 0 1-.099.039c-.029.01-.048.02-.078.03-.01 0-.02.009-.04.009h-.009c-.01 0-.02 0-.02.01-.02 0-.039.01-.068.01-.02 0-.04 0-.059.01h-.127c-.02 0-.05 0-.069-.01-.03 0-.059-.01-.078-.01-.01 0-.02-.01-.03-.01s-.02 0-.03-.009c-.019 0-.038-.01-.058-.01q-.077-.03-.137-.059l-1.608-.939-.02.567c0 .088-.068.186-.196.264l-2.147 1.194c.03.039.06.069.118.098l3.059 1.781a.7.7 0 0 0 .196.078c.01 0 .02.01.03.01.068.01.146.02.225.02h.01a1 1 0 0 0 .235-.03h.01c.078-.019.147-.049.215-.078l2.47-1.37c.03-.02.04-.039.07-.059zM68.096 153.898c-.03-.02-.059-.039-.078-.059-.02-.01-.03-.029-.04-.039l-.01-.01c0-.01-.009-.01-.009-.019-.01-.01-.01-.03-.02-.039 0-.01-.01-.02-.01-.04v-.039l.02-.655-.255.137c-.029.019-.058.029-.098.049-.03.009-.049.019-.078.029-.01 0-.03.01-.04.01h-.028999999999999998c-.02 0-.039.01-.068.01-.02 0-.04.009-.06.009h-.136c-.02 0-.05 0-.069-.009-.03 0-.059-.01-.078-.01-.01 0-.02-.01-.05-.01 0 0-.01 0-.019-.01-.02 0-.04-.01-.059-.01a2 2 0 0 1-.137-.058l-1.608-.94-.02.568c0 .098-.068.186-.195.264l-2.138 1.194c.03.039.07.068.118.107l3.059 1.781c.058.03.127.059.196.079.01 0 .02.009.03.009.068.02.146.02.225.02h.01q.117 0 .235-.029h.01a.8.8 0 0 0 .215-.079l2.47-1.37c.03-.019.04-.039.07-.058zM72.471 156.455c-.03-.02-.059-.04-.078-.059-.02-.01-.03-.03-.04-.039l-.01-.01c0-.01-.009-.01-.009-.02-.01-.009-.01-.029-.02-.039 0-.01-.01-.019-.01-.039v-.049l.02-.655-.255.137c-.029.019-.058.029-.098.048-.03.01-.049.02-.078.03-.01 0-.02 0-.04.01h-.01c-.009 0-.019 0-.019.009-.02 0-.039.01-.068.01-.02 0-.04 0-.06.01h-.20500000000000002c-.03 0-.059-.01-.088-.01l-.02-.01c-.01 0-.02 0-.03-.009-.019 0-.038-.01-.058-.01q-.077-.03-.137-.059l-1.608-.939-.02.567c0 .098-.068.186-.196.264l-2.147 1.194c.03.039.06.069.118.098l3.059 1.781c.058.029.127.059.196.078.01 0 .02 0 .03.01a.8.8 0 0 0 .225.029h.01a1 1 0 0 0 .235-.029h.01c.078-.02.147-.049.215-.078l2.47-1.37a.4.4 0 0 0 .07-.059zM76.87 158.994c-.03-.02-.06-.04-.079-.059-.01-.02-.03-.029-.039-.039l-.01-.01c0-.01-.01-.01-.01-.02-.01-.009-.01-.019-.02-.039-.009-.01-.009-.019-.009-.039v-.049l.02-.655-.255.137a.3.3 0 0 1-.098.039l-.079.029c-.01 0-.03.01-.039.01h-.01c-.01 0-.02 0-.02.01-.019 0-.038.009-.068.009-.02 0-.04.01-.059.01h-.137c-.02 0-.049 0-.069-.01-.029 0-.058-.009-.078-.009-.01 0-.02-.01-.03-.01s-.019 0-.029-.01c-.02 0-.039-.01-.059-.01a2 2 0 0 1-.137-.058l-1.608-.94-.02.568c0 .098-.068.186-.195.264l-2.147 1.194c.03.039.069.078.118.107l3.058 1.781c.059.03.127.059.196.078.01 0 .02 0 .03.01.068.01.147.02.225.02h.01q.118 0 .235-.03h.01a.8.8 0 0 0 .216-.078l2.47-1.37c.03-.019.04-.039.069-.058zM81.245 161.55a.5.5 0 0 1-.079-.059l-.039-.039-.01-.009c0-.01-.01-.01-.01-.02-.01-.01-.01-.02-.02-.039 0-.01-.009-.02-.009-.039v-.039l.02-.656-.255.137c-.03.02-.059.029-.098.049l-.079.029c-.01 0-.03.01-.039.01h-.01c-.01 0-.01 0-.02.01-.019 0-.038.01-.068.01-.02 0-.04.009-.059.009h-.196c-.03 0-.059-.009-.078-.009-.01 0-.04-.01-.04-.01-.01 0-.019-.01-.029-.01-.02-.01-.039-.01-.059-.01a2 2 0 0 1-.137-.058l-1.608-.94-.02.568q0 .147-.205.264l-2.137 1.194c.03.039.069.068.118.098l3.058 1.78c.059.03.127.059.196.079.01 0 .02.009.03.009a.8.8 0 0 0 .225.03h.01q.118 0 .235-.03h.01c.078-.019.147-.048.216-.078l2.47-1.37c.03-.019.04-.039.069-.058zM85.635 164.105c-.029-.02-.059-.039-.078-.059-.02-.01-.03-.029-.04-.039l-.01-.01c-.009-.009-.009-.009-.009-.019-.01-.01-.01-.03-.02-.039 0-.01-.01-.02-.01-.04v-.048l.02-.666-.264.147c-.03.019-.06.029-.098.049l-.079.029c-.01 0-.02.01-.039.01h-.01c-.01 0-.02 0-.02.01-.02 0-.039.01-.068.01-.02 0-.04 0-.069.009h-.196c-.03 0-.059-.009-.088-.009 0 0-.01 0-.02-.01-.01 0-.02 0-.029-.01-.02-.01-.04-.01-.059-.02a2 2 0 0 1-.137-.058l-1.608-.94-.02.568c0 .098-.068.186-.195.264l-2.137 1.194a.35.35 0 0 0 .127.107l3.058 1.781c.06.039.128.059.197.079.01 0 .02.009.029.009.069.02.147.02.225.02h.01q.118 0 .236-.029h.01c.078-.02.146-.049.215-.079l2.47-1.37c.03-.019.05-.039.069-.058zM90.012 166.652q-.047-.03-.078-.059c-.02-.01-.03-.029-.04-.039l-.01-.01c0-.01-.009-.01-.009-.019-.01-.01-.01-.02-.02-.04 0-.009-.01-.019-.01-.039v-.049l.02-.655-.255.137c-.029.019-.058.029-.098.049-.029.009-.049.019-.078.029-.01 0-.03.01-.04.01h-.01c-.009 0-.009 0-.019.01-.02 0-.039.009-.068.009-.02 0-.04.01-.06.01h-.20500000000000002c-.03 0-.059-.01-.098-.01 0 0-.01 0-.02-.009-.01 0-.02 0-.029-.01-.02-.01-.04-.01-.059-.02a2 2 0 0 1-.137-.058l-1.608-.94-.02.578c0 .088-.068.185-.195.254l-2.147 1.194c.03.039.059.068.117.098l3.059 1.78a1 1 0 0 0 .225.088c.069.02.147.02.226.02h.01q.117 0 .235-.029h.01a1.4 1.4 0 0 0 .215-.079l2.47-1.369c.03-.02.04-.04.07-.059zc.01.01.01 0 0 0M94.415 169.197c-.03-.02-.06-.039-.079-.059-.01-.02-.03-.029-.039-.039 0 0 0-.01-.01-.01 0-.01-.01-.01-.01-.019-.01-.01-.01-.03-.02-.04 0-.009-.009-.019-.009-.039v-.039l.02-.665-.255.146c-.03.02-.06.03-.098.049-.03.01-.05.02-.079.03-.01 0-.02.01-.039.01h-.03c-.019 0-.039.009-.068.009-.02 0-.04 0-.059.01h-.20600000000000002c-.03 0-.058-.01-.088-.01 0 0-.01 0-.02-.009-.01 0-.02 0-.029-.01-.02 0-.04-.01-.059-.01-.049-.02-.098-.039-.137-.059l-1.608-.939-.02.567c0 .098-.068.186-.195.265l-2.137 1.193a.4.4 0 0 0 .117.108l3.059 1.781c.059.029.117.059.196.078.01 0 .03.01.03.01.068.02.146.029.225.029h.01a1 1 0 0 0 .235-.029h.01c.078-.02.147-.049.215-.078l2.47-1.37c.03-.02.04-.039.07-.059zM98.797 171.751a.5.5 0 0 1-.117-.097s0-.01-.01-.01v-.01c0-.01-.01-.01-.01-.02-.01-.009-.01-.019-.02-.039 0-.01-.01-.029-.01-.039v-.039l.02-.656-.255.137c-.029.02-.058.03-.097.049-.03.01-.05.02-.079.03-.01 0-.03.009-.04.009h-.009c-.01 0-.02 0-.02.01-.02 0-.039.01-.068.01-.02 0-.04 0-.059.01h-.197c-.028 0-.058-.01-.077-.01-.01 0-.02 0-.03-.01-.01 0-.02 0-.03-.01-.019 0-.038-.009-.058-.009q-.077-.03-.137-.059l-1.608-.939-.02.567c0 .088-.068.186-.196.264l-2.147 1.194c.03.039.06.069.118.098l3.059 1.781c.058.029.127.058.196.078.01 0 .02.01.03.01.068.019.146.019.224.019h.01a1 1 0 0 0 .236-.029h.01c.078-.02.146-.049.215-.078l2.47-1.37c.03-.02.04-.039.069-.059zM107.542 176.857c-.03-.02-.059-.039-.079-.059-.019-.01-.029-.029-.039-.039l-.01-.01c0-.01-.01-.01-.01-.019-.009-.01-.009-.03-.019-.039 0-.01-.01-.02-.01-.04v-.039l.02-.655-.255.137c-.03.019-.059.029-.098.049-.03.009-.049.019-.079.029-.01 0-.019.01-.039.01h-.01c-.01 0-.019 0-.019.009-.02 0-.04.01-.069.01-.02 0-.039 0-.059.01h-.196c-.029 0-.059-.01-.088-.01 0 0-.01 0-.02-.01-.01 0-.019 0-.029-.009-.02 0-.039-.01-.059-.02a2 2 0 0 1-.137-.059l-1.608-.939-.019.568q0 .146-.206.264l-2.147 1.194a.3.3 0 0 0 .117.097l3.059 1.781a.7.7 0 0 0 .196.079c.01 0 .02.009.029.009.069.01.147.02.226.02h.01q.117 0 .235-.029h.01a.8.8 0 0 0 .215-.079l2.471-1.37c.029-.019.039-.039.068-.058zq.014 0 0 0M103.172 174.298a1 1 0 0 1-.078-.058l-.039-.04-.01-.009c0-.01-.01-.01-.01-.02-.01-.01-.01-.02-.019-.039 0-.01-.01-.02-.01-.039v-.039l.019-.656-.254.137a.3.3 0 0 1-.099.039c-.029.01-.049.02-.078.03-.01 0-.029.009-.039.009h-.03c-.019 0-.039.01-.068.01-.02 0-.039 0-.059.01h-.196c-.029 0-.059-.01-.098-.01 0 0-.01 0-.02-.01-.01 0-.019 0-.029-.009-.02 0-.039-.01-.059-.01-.049-.01-.098-.039-.137-.059l-1.608-.93-.019.568c0 .098-.069.186-.197.264l-2.137 1.194c.03.039.07.068.118.098l3.059 1.781c.058.039.127.058.196.078.009 0 .019 0 .029.01.069.009.147.019.226.019q.117 0 .235-.029h.01a1.5 1.5 0 0 0 .215-.078l2.471-1.37a.4.4 0 0 0 .068-.059zM97.974 175.571c-.029-.02-.058-.039-.078-.059l-.04-.039-.009-.01v-.01c-.01-.009-.01-.009-.01-.019-.01-.01-.01-.02-.02-.039 0-.01-.01-.02-.01-.039v-.049l.02-.656-.254.147a.3.3 0 0 1-.098.039l-.079.029c-.01 0-.03.01-.04.01h-.028999999999999998c-.02 0-.039.01-.058.01s-.04.01-.06.01h-.127c-.02 0-.049 0-.068-.01-.03 0-.06-.01-.098-.01 0 0-.01 0-.02-.01-.01 0-.02 0-.03-.01-.019 0-.038-.009-.048-.009q-.076-.03-.138-.059l-2.45-1.429-.02.578c0 .098-.069.195-.206.264l-2.137 1.194c.03.039.059.068.118.097l3.058 1.781c.06.03.128.059.196.079.01 0 .02 0 .03.009a.8.8 0 0 0 .225.03h.01q.118 0 .235-.03h.01a.8.8 0 0 0 .216-.078l2.47-1.37c.03-.019.05-.039.079-.058zM96.352 178.949c-.029-.02-.058-.039-.078-.059-.02-.01-.03-.029-.04-.039 0 0 0-.01-.009-.01v-.01c0-.009-.01-.009-.01-.019-.01-.01-.01-.02-.02-.039 0-.01-.01-.02-.01-.039v-.049l.03-.724-.323.176a.3.3 0 0 1-.098.039c-.02.01-.05.019-.079.029-.01 0-.03.01-.039.01h-.03c-.019.01-.039.01-.068.01-.02 0-.04 0-.059.009h-.20600000000000002c-.03 0-.059-.009-.098-.009 0 0-.01 0-.02-.01-.01 0-.019 0-.029-.01-.02-.01-.039-.01-.059-.019-.049-.02-.098-.04-.137-.059l-1.608-.939-.02.577c0 .098-.068.186-.195.264L91 179.223c.03.039.069.078.118.107l3.058 1.781a1 1 0 0 0 .226.088c.068.02.147.02.225.02h.01q.118 0 .235-.029h.01a1.4 1.4 0 0 0 .216-.079l2.47-1.37c.03-.019.04-.039.069-.058zM97.728 180.323q0 .147-.206.265l-2.147 1.193c.03.039.059.069.118.108l3.803 2.211c.059.03.128.059.196.079.01 0 .02 0 .03.009.068.02.147.02.225.02h.01q.118 0 .235-.029h.01c.078-.02.147-.049.216-.079l2.47-1.37c.029-.019.039-.039.069-.058l-5-2.906zM95.477 182.722c-.03-.02-.059-.039-.078-.059-.02-.01-.03-.029-.04-.039l-.01-.01v-.01c0-.009-.01-.009-.01-.019-.01-.01-.01-.02-.019-.039 0-.01-.01-.02-.01-.039v-.049l.02-.656-.255.137c-.03.02-.059.029-.098.049-.03.01-.049.02-.078.029-.01 0-.02.01-.04.01h-.01c-.01 0-.019 0-.019.01-.02 0-.04.01-.069.01-.02 0-.039.01-.058.01h-.138c-.02 0-.049 0-.068-.01-.03 0-.06-.01-.079-.01-.01 0-.03-.01-.03-.01-.009 0-.019 0-.029-.01-.02 0-.039-.009-.058-.009a3 3 0 0 1-.138-.059l-3.058-1.781h-.01c-.02-.01-.04-.029-.059-.039l-.02.577q0 .147-.205.264l-2.108 1.175c.01.009 0 .019.01.039.03.039.069.078.137.117l6.696 3.895a1.2 1.2 0 0 0 .225.088c.069.019.147.019.225.019h.01q.118 0 .236-.029h.01a.8.8 0 0 0 .215-.078l2.47-1.37c.03-.02.04-.039.069-.049zM90.14 184.554q0 .147-.206.264l-2.137 1.194c.03.039.069.068.118.107l3.058 1.781c.059.039.127.059.196.079.01 0 .02 0 .03.009a.8.8 0 0 0 .225.03h.01q.117 0 .235-.03h.01a.8.8 0 0 0 .215-.078l2.47-1.37a1 1 0 0 0 .099-.088l-4.294-2.495zM91.43 188.842h-.14800000000000002c-.03 0-.059-.01-.078-.01-.01 0-.02-.01-.05-.01 0 0-.01 0-.019-.01-.02 0-.04-.009-.059-.009-.049-.02-.098-.04-.137-.059l-3.068-1.781h-.01c-.03-.02-.05-.029-.069-.049l-.02.597q-.002.147-.196.264l-2.146 1.194c.03.039.058.068.117.098l2.373 1.379c.058.03.117.059.196.069.01 0 .03.01.03.01.068.019.146.019.225.019h.01q.117 0 .235-.029h.01a.8.8 0 0 0 .215-.078l2.47-1.37a.33.33 0 0 0 .177-.216c-.02-.009-.04-.009-.059-.009M87.693 186.735v-.049l.02-.655-.255.146a.3.3 0 0 1-.098.04c-.03.009-.049.019-.079.029-.01 0-.029.01-.039.01h-.01c-.01 0-.01 0-.02.009-.019 0-.038.01-.068.01-.02 0-.039 0-.059.01h-.196c-.029 0-.058-.01-.078-.01-.01 0-.02-.01-.049-.01h-.02c-.02 0-.039-.009-.058-.009-.05-.02-.099-.039-.138-.059l-3.058-1.781h-.01c-.03-.019-.049-.039-.069-.049l-.02.587c0 .098-.068.186-.195.264l-2.147 1.194c.03.039.059.079.118.108l3.058 1.781c.059.029.127.058.196.078.01 0 .02.01.03.01a.9.9 0 0 0 .225.029h.01q.117 0 .235-.029h.01a.8.8 0 0 0 .215-.078l2.47-1.37a.6.6 0 0 0 .118-.098c-.01-.01-.01-.02-.02-.039-.019-.04-.019-.049-.019-.069M83.318 184.188v-.049l.02-.655-.255.147c-.03.019-.059.029-.088.039l-.079.029c-.01 0-.03.01-.039.01h-.03c-.019 0-.038.01-.068.01-.02 0-.04 0-.059.009h-.137c-.02 0-.049 0-.069-.009-.029 0-.058-.01-.078-.01-.01 0-.02-.01-.04-.01-.009 0-.019 0-.029-.01a.14.14 0 0 0-.058-.01 2 2 0 0 1-.138-.058l-3.058-1.781s-.01 0-.01-.01c-.03-.019-.049-.029-.069-.049l-.02.587c0 .098-.068.186-.195.265l-2.147 1.193c.03.039.059.069.118.098l3.058 1.781c.059.029.127.059.196.078.01 0 .02 0 .03.01a.8.8 0 0 0 .225.029h.01a1 1 0 0 0 .235-.029h.01a.8.8 0 0 0 .215-.078l2.47-1.37a.4.4 0 0 0 .118-.098c0-.01-.01-.02-.01-.029-.029 0-.029-.02-.029-.03M78.951 181.641v-.048l.02-.656-.255.147c-.03.019-.059.029-.098.049-.03.009-.05.019-.079.029-.01 0-.029.01-.039.01h-.03c-.019 0-.038.01-.068.01-.02 0-.04 0-.059.009h-.196c-.03 0-.059-.009-.078-.009-.01 0-.02-.01-.04-.01-.01 0-.019 0-.029-.01-.02-.01-.039-.01-.059-.01a2 2 0 0 1-.137-.059l-3.058-1.78h-.01c-.03-.02-.05-.04-.069-.059l-.02.597q-.002.147-.196.264l-2.146 1.194c.03.039.068.068.117.098l3.059 1.78q.09.047.196.079c.01 0 .02 0 .03.01.068.019.146.019.225.019h.01q.117 0 .235-.029h.01a1.4 1.4 0 0 0 .215-.079l2.47-1.369a.6.6 0 0 0 .118-.098c-.01-.01-.01-.02-.01-.03-.029-.019-.029-.029-.029-.049M74.553 179.095v-.049l.02-.656-.265.147a.3.3 0 0 1-.099.039c-.029.01-.049.02-.078.029-.01 0-.03.01-.04.01h-.028999999999999998c-.02 0-.039.01-.068.01-.02 0-.04 0-.059.01h-.127c-.02 0-.05 0-.069-.01-.03 0-.059-.01-.088-.01 0 0-.01 0-.03-.01h-.02c-.019-.009-.038-.009-.058-.009q-.077-.03-.137-.059l-3.069-1.781c-.029-.02-.049-.029-.068-.049l-.02.587c0 .098-.069.186-.196.264l-2.147 1.194c.03.039.06.069.118.098l3.058 1.781c.06.029.128.058.197.078.01 0 .02.01.029.01.068.019.147.019.225.029h.01q.118 0 .235-.029h.01a.8.8 0 0 0 .216-.078l2.47-1.37a.4.4 0 0 0 .118-.098c-.01-.01-.01-.02-.01-.03-.02-.029-.02-.039-.03-.048M70.158 176.54v-.039l.02-.655-.255.137a.3.3 0 0 1-.098.039c-.03.01-.049.019-.078.029-.01 0-.03.01-.04.01h-.01c-.01 0-.01 0-.019.01-.02 0-.04.01-.069.01-.02 0-.039 0-.058.009h-.128c-.02 0-.049 0-.068-.009-.03 0-.06-.01-.079-.01-.01 0-.02-.01-.03-.01s-.019-.01-.029-.01c-.02 0-.039-.01-.058-.01-.05-.009-.099-.039-.138-.058l-3.068-1.781c-.03-.02-.059-.039-.078-.059l-.04-.039s0-.01-.01-.01c0-.01-.01-.01-.01-.019-.01-.01-.01-.03-.019-.04 0-.009-.01-.019-.01-.039v-.049l.03-.665-.275.147a.3.3 0 0 1-.098.039c-.03.01-.049.02-.078.029-.01 0-.02.01-.04.01h-.028999999999999998c-.02 0-.039.01-.068.01-.02 0-.04.01-.06.01h-.195c-.03 0-.06-.01-.079-.01-.01 0-.02-.01-.03-.01s-.019-.01-.029-.01c-.02 0-.039-.009-.058-.009q-.077-.03-.138-.059l-3.058-1.781h-.01c-.03-.02-.059-.039-.078-.059-.02-.01-.03-.029-.04-.039 0 0 0-.01-.01-.019 0-.01-.01-.01-.01-.02-.009-.01-.009-.02-.019-.039 0-.01-.01-.02-.01-.039v-.039l.02-.656-.255.137a.4.4 0 0 1-.088.039c-.03.01-.05.02-.079.029-.01 0-.029.01-.039.01h-.01c-.01 0-.01 0-.02.01-.019 0-.038.01-.068.01-.02 0-.039.01-.059.01h-.20500000000000002c-.03 0-.06-.01-.079-.01-.01 0-.02-.01-.04-.01-.009 0-.019 0-.029-.01-.02 0-.039-.01-.058-.01a2 2 0 0 1-.138-.058l-3.068-1.781h-.01c-.03-.02-.059-.039-.078-.059-.02-.01-.03-.029-.04-.039 0 0 0-.01-.01-.01 0-.01-.009-.01-.009-.019-.01-.01-.01-.03-.02-.039 0-.01-.01-.02-.01-.04v-.039l.02-.655-.255.146c-.029.02-.058.03-.098.049-.029.01-.049.02-.078.03-.01 0-.03.009-.04.009h-.01c-.009 0-.009 0-.019.01-.02 0-.039.01-.068.01-.02 0-.04 0-.06.01h-.196c-.029 0-.058-.01-.078-.01-.01 0-.02-.01-.029-.01s-.02 0-.03-.01c-.019-.009-.039-.009-.058-.019q-.077-.03-.137-.059l-3.059-1.781h-.01a.5.5 0 0 1-.117-.097s0-.01-.01-.01c0-.01-.01-.01-.01-.02-.01-.01-.01-.029-.02-.039 0-.01-.01-.02-.01-.039v-.049l.02-.656-.255.137a.3.3 0 0 1-.098.039c-.03.01-.049.02-.078.03-.01 0-.03.01-.04.01h-.028999999999999998c-.02 0-.039.009-.068.009-.02 0-.04.01-.069.01h-.197c-.029 0-.058-.01-.078-.01-.01 0-.039-.009-.039-.009-.01 0-.02-.01-.03-.01-.019 0-.038-.01-.058-.01-.049-.02-.098-.039-.137-.059l-3.068-1.781c-.03-.019-.05-.039-.07-.048l-.019.587q-.002.147-.196.264l-2.147 1.194c.03.039.069.068.118.107l20.606 11.987c.059.029.127.058.196.078.01 0 .03.01.03.01.068.019.146.019.225.019h.01a1 1 0 0 0 .235-.029h.01a.8.8 0 0 0 .215-.078l2.47-1.37c.05-.029.079-.059.118-.098-.01-.01-.01-.02-.02-.029-.029-.049-.039-.059-.039-.079M48.236 163.788v-.039l.02-.656-.255.147a.3.3 0 0 1-.098.039c-.03.01-.049.02-.078.029-.01 0-.03.01-.04.01h-.028999999999999998c-.02 0-.04.01-.069.01-.02 0-.039 0-.058.01h-.20600000000000002c-.03 0-.06-.01-.089-.01-.01 0-.02-.01-.039-.01-.01 0-.02 0-.03-.01-.019-.009-.038-.009-.058-.019-.049-.02-.098-.039-.137-.059l-3.137-1.82-.02.577q-.002.147-.196.265l-2.147 1.193c.03.04.06.079.118.108l3.058 1.781a1 1 0 0 0 .206.078h.02a.8.8 0 0 0 .225.03h.01a1 1 0 0 0 .236-.03h.01a.8.8 0 0 0 .215-.078l2.47-1.37a.4.4 0 0 0 .118-.098c-.01-.01-.01-.019-.01-.029 0-.02 0-.039-.01-.049M42.067 160.321a.5.5 0 0 1-.117-.098l-.01-.009c0-.01-.01-.01-.01-.02-.01-.01-.01-.02-.02-.039 0-.01-.01-.029-.01-.039v-.039l.03-.724-.323.176c-.03.019-.06.029-.089.039l-.078.029c-.01 0-.03.01-.04.01h-.028999999999999998c-.02 0-.039.01-.068.01-.02 0-.04 0-.06.01h-.137c-.019 0-.048 0-.068-.01-.03 0-.059-.01-.078-.01-.01 0-.04-.01-.04-.01-.01 0-.02 0-.029-.01-.02 0-.04-.009-.059-.009-.049-.02-.098-.04-.137-.059l-1.157-.675-.02.577c0 .098-.068.186-.196.264l-2.127 1.184v.02c.03.039.069.078.138.117l3.058 1.781a.7.7 0 0 0 .196.078c.01 0 .02 0 .03.01.068.01.147.02.225.02h.01q.117 0 .235-.03h.01a.8.8 0 0 0 .215-.078l2.47-1.37c.03-.019.05-.039.07-.059z"/><path fill="#5B5C71" d="M49.265 160.168c-.03-.02-.06-.039-.079-.059l-.039-.039-.01-.01c0-.01-.01-.01-.01-.02-.01-.009-.01-.019-.02-.039 0-.009-.01-.019-.01-.039v-.039l.02-.656-.254.137a.3.3 0 0 1-.098.04c-.03.009-.05.019-.079.029-.01 0-.03.01-.039.01h-.01c-.01 0-.01 0-.02.01-.019 0-.039.009-.068.009-.02 0-.04.01-.059.01h-.127c-.02 0-.05 0-.069-.01-.03 0-.059-.009-.088-.009 0 0-.01 0-.03-.01 0 0-.01 0-.02-.01-.019 0-.038-.01-.058-.01a2 2 0 0 1-.137-.059l-3.059-1.78h-.01c-.029-.02-.058-.04-.078-.059l-.04-.039s0-.01-.009-.01c0-.01-.01-.01-.01-.02-.01-.009-.01-.029-.02-.039 0-.01-.01-.019-.01-.039v-.049l.03-.704-.304.166c-.03.02-.059.029-.088.039-.03.01-.049.02-.078.03-.01 0-.03.009-.04.009h-.028999999999999998c-.02 0-.04.01-.069.01-.02 0-.039 0-.058.01h-.196c-.03 0-.06-.01-.079-.01-.01 0-.02-.01-.03-.01s-.019 0-.029-.009c-.02 0-.039-.01-.059-.01-.048-.02-.097-.039-.137-.059l-2.52-1.468-.019.617q0 .147-.206.264l-2.048 1.145c0 .039.01.078.039.117v.01c.03.039.069.078.137.117l1.814 1.057a.7.7 0 0 0 .196.078c.01 0 .02.01.03.01.068.02.146.02.225.02h.01q.117 0 .235-.03h.01c.078-.019.146-.048.215-.078l2.47-1.37c.128-.068.197-.166.206-.264l-.03.851q0 .147-.205.265l-2.108 1.174c0 .01 0 .019.01.029a.4.4 0 0 0 .128.118l5.019 2.915c.059.04.127.059.196.079.01 0 .03.01.03.01a.9.9 0 0 0 .225.029h.01q.117 0 .235-.029h.01a.8.8 0 0 0 .215-.079l2.47-1.37c.05-.029.07-.058.099-.088zM39.505 154.467c-.03-.02-.059-.039-.078-.059-.02-.01-.03-.029-.04-.039l-.01-.01v-.01c0-.009-.01-.009-.01-.019-.009-.01-.009-.029-.019-.039 0-.01-.01-.02-.01-.039v-.04l.03-.782-.392.215a.3.3 0 0 1-.098.039c-.03.01-.05.02-.079.029-.01 0-.03.01-.039.01h-.03c-.019.01-.038.01-.068.01-.02 0-.04.01-.059.01h-.196c-.03 0-.059-.01-.078-.01-.01 0-.02-.01-.04-.01-.01 0-.019 0-.029-.01-.02-.009-.04-.009-.059-.009-.049-.02-.098-.039-.137-.059l-.108-.059-.02.587c0 .098-.068.196-.205.265l-2.137 1.193c.03.039.068.079.127.118l1.735 1.008c.06.029.128.058.196.078.01 0 .02 0 .03.01.068.019.147.019.225.019h.01q.117 0 .235-.029h.01a.8.8 0 0 0 .216-.078l2.47-1.37a1 1 0 0 0 .098-.088zM34.716 151.724a1 1 0 0 1-.078-.058c-.02-.01-.03-.03-.04-.039l-.01-.01c0-.01-.01-.01-.01-.02-.01-.01-.01-.019-.019-.039 0-.01-.01-.019-.01-.039v-.039l.03-.656-.265.147c-.03.02-.059.029-.098.049-.03.01-.05.019-.078.029-.01 0-.03.01-.04.01h-.01c-.01 0-.01 0-.02.01-.019 0-.038.01-.058.01s-.04.009-.059.009h-.186c-.03 0-.059-.009-.078-.009-.01 0-.02-.01-.04-.01-.01 0-.02 0-.029-.01-.02 0-.04-.01-.059-.01a2 2 0 0 1-.137-.058l-.196-.118-.02.587c0 .098-.068.196-.206.264l-2.156 1.204c.02.01.03.029.049.039l3.49 2.035c.058.03.127.059.196.079.01 0 .02 0 .03.009.068.02.146.02.225.03h.01q.117 0 .235-.03c.078-.019.147-.048.215-.078l2.47-1.37c.04-.019.06-.049.089-.068zq.015 0 0 0M52.721 140.219l-3.058-1.781c-.245-.146-.657-.137-.912 0l-2.47 1.37c-.255.147-.275.372-.03.519l3.059 1.781c.245.147.657.137.911 0l2.47-1.37c.266-.137.275-.372.03-.519M57.014 142.727l-3.059-1.781c-.245-.146-.656-.137-.911 0l-2.47 1.37c-.265.147-.275.382-.03.519l3.058 1.781c.245.146.657.137.912 0l2.47-1.37c.265-.147.275-.382.03-.519M61.401 145.263l-3.059-1.781c-.245-.137-.656-.137-.911 0l-2.47 1.37c-.255.146-.275.381-.03.518l3.059 1.781c.245.147.656.147.921 0l2.47-1.37c.255-.137.265-.372.02-.518M65.823 147.848l-3.059-1.781c-.245-.146-.657-.137-.911 0l-2.47 1.37c-.256.147-.275.372-.03.519l3.058 1.781c.245.147.657.137.912 0l2.47-1.37c.265-.137.275-.372.03-.519M70.214 150.384l-3.059-1.781c-.245-.137-.657-.137-.912 0l-2.47 1.37c-.255.146-.275.381-.03.518l3.06 1.781c.244.147.656.147.92 0l2.47-1.37c.256-.137.266-.372.02-.518M74.589 152.942l-3.059-1.781c-.245-.147-.657-.137-.912 0l-2.47 1.37c-.255.147-.274.372-.03.519l3.06 1.78c.244.147.656.137.91 0l2.471-1.369c.265-.137.275-.372.03-.519M78.99 155.489l-3.06-1.781c-.245-.147-.656-.147-.911 0l-2.47 1.37c-.265.146-.275.381-.02.518l3.059 1.781c.245.137.656.137.911 0l2.47-1.37c.255-.147.265-.381.02-.518M83.358 158.044l-3.058-1.781c-.245-.137-.657-.137-.912 0l-2.47 1.37c-.255.147-.265.381-.03.518l3.059 1.781c.245.147.656.147.921 0l2.47-1.37c.265-.137.275-.371.02-.518M87.745 160.59l-3.059-1.78c-.245-.147-.657-.137-.912 0l-2.47 1.369c-.255.147-.274.372-.03.519l3.06 1.781c.244.147.656.137.911 0l2.47-1.37c.255-.147.275-.382.03-.519M92.142 163.145l-3.059-1.781c-.245-.147-.656-.147-.911 0l-2.47 1.37c-.256.147-.275.382-.02.519l3.058 1.78c.245.137.657.137.912 0l2.47-1.37c.255-.146.265-.381.02-.518M96.53 165.684l-3.059-1.781c-.245-.146-.657-.137-.912 0l-2.47 1.37c-.265.147-.275.372-.03.519l3.06 1.781c.244.146.656.137.91 0l2.471-1.37c.265-.137.275-.372.03-.519M100.901 168.247l-3.058-1.781c-.246-.147-.657-.137-.912 0l-2.47 1.37c-.255.146-.275.372-.03.518l3.059 1.781c.245.147.656.137.911 0l2.471-1.37c.264-.147.284-.372.029-.518M105.284 170.786l-3.059-1.781c-.245-.137-.657-.137-.911 0l-2.47 1.37c-.256.147-.275.382-.03.519l3.058 1.78c.245.147.657.147.922 0l2.47-1.369c.255-.137.265-.372.02-.519M109.678 173.344l-3.059-1.781c-.245-.146-.656-.137-.911 0l-2.471 1.37c-.264.147-.274.372-.029.519l3.058 1.781c.246.147.657.137.912 0l2.471-1.37c.254-.147.274-.372.029-.519M114.061 175.891l-3.059-1.781c-.245-.146-.657-.137-.911 0l-2.471 1.37c-.264.147-.274.382-.029.519l3.058 1.781c.245.137.657.137.912 0l2.47-1.37c.265-.147.275-.382.03-.519M56.207 146.552l-10.323-6.008c-.245-.147-.647-.137-.912 0l-2.47 1.37c-.255.147-.265.372-.02.518l10.323 6.008c.245.147.647.147.912 0l2.47-1.369c.255-.147.275-.372.02-.519M60.622 149.114l-3.058-1.781c-.245-.147-.657-.147-.912 0l-2.47 1.37c-.255.146-.265.381-.02.518l3.059 1.781c.245.137.647.147.911 0l2.47-1.37c.256-.147.265-.372.02-.518M64.99 151.668l-3.06-1.781c-.245-.146-.646-.146-.911 0l-2.47 1.37c-.265.147-.275.372-.02.519l3.058 1.781c.245.147.657.147.912 0l2.47-1.37c.255-.147.265-.382.02-.519M69.38 154.207l-3.058-1.781c-.245-.146-.657-.146-.912 0l-2.47 1.37c-.255.147-.265.372-.02.519l3.058 1.781c.246.147.648.137.912 0l2.47-1.37c.265-.147.275-.372.02-.519M73.75 156.762l-3.058-1.781a1.03 1.03 0 0 0-.911 0l-2.47 1.37c-.265.147-.265.372-.02.519l3.058 1.781c.245.147.657.147.912 0l2.47-1.37c.265-.147.265-.382.02-.519M78.16 159.309l-3.058-1.781c-.245-.147-.647-.147-.911 0l-2.47 1.37c-.265.147-.275.372-.02.519l3.058 1.78c.245.147.647.147.912 0l2.47-1.369c.255-.147.265-.372.02-.519M82.536 161.864l-3.058-1.781c-.245-.147-.657-.147-.912 0l-2.47 1.37c-.255.146-.265.371-.02.518l3.059 1.781c.245.147.647.147.911 0l2.47-1.37c.256-.147.265-.381.02-.518M86.92 164.411l-3.06-1.781c-.244-.137-.656-.147-.911 0l-2.47 1.37c-.255.147-.265.372-.02.518l3.059 1.781c.245.147.656.147.911 0l2.47-1.37c.265-.146.265-.381.02-.518M91.306 166.957l-3.059-1.781c-.245-.146-.647-.146-.911 0l-2.47 1.37c-.256.147-.275.372-.02.519l3.058 1.781c.245.147.647.147.912 0l2.47-1.37c.255-.137.265-.372.02-.519M95.7 169.512l-3.058-1.781c-.245-.147-.657-.147-.912 0l-2.47 1.37c-.255.147-.265.372-.02.519l3.059 1.781c.245.146.647.146.911 0l2.47-1.37c.256-.147.265-.382.02-.519M100.067 172.059l-3.058-1.781c-.245-.147-.647-.147-.912 0l-2.47 1.37c-.265.147-.275.372-.02.519l3.059 1.78c.245.147.656.147.911 0l2.471-1.369c.264-.137.274-.372.019-.519M104.466 174.614l-3.058-1.781c-.245-.147-.647-.147-.912 0l-2.47 1.37c-.255.146-.265.371-.02.518l3.058 1.781c.246.147.647.147.912 0l2.47-1.37c.255-.147.265-.372.02-.518M108.841 177.153l-3.058-1.781c-.245-.147-.657-.147-.912 0l-2.47 1.37c-.255.146-.265.372-.02.518l3.058 1.781c.246.147.657.147.912 0l2.47-1.37c.255-.137.265-.372.02-.518M45.385 144.588l-3.314-1.927c-.245-.147-.647-.147-.911 0l-2.47 1.37c-.265.147-.275.372-.02.518l3.303 1.928c.245.147.657.137.912 0l2.47-1.37c.265-.147.275-.382.03-.519M49.938 147.243l-3.304-1.918c-.245-.147-.657-.147-.912 0l-2.47 1.37c-.255.147-.265.381-.02.518l3.304 1.928c.245.147.657.147.912 0l2.47-1.37c.265-.156.275-.391.02-.528M40.599 146.115l-2.324-1.341c-.245-.146-.657-.137-.911 0l-6.225 3.464c-.255.147-.275.372-.02.519l2.314 1.35c.245.147.647.147.911 0l6.225-3.464c.255-.146.275-.381.03-.528M45.223 148.827l-3.304-1.928c-.245-.146-.657-.137-.911 0l-2.47 1.37c-.256.147-.275.372-.02.519l3.303 1.928c.245.146.657.146.912 0l2.47-1.37c.255-.137.275-.372.02-.519M58.954 152.45l-3.058-1.781c-.245-.147-.657-.137-.912 0l-2.47 1.37c-.255.147-.275.372-.02.518l3.059 1.781c.245.147.657.147.911 0l2.47-1.37c.256-.137.265-.371.02-.518"/><path fill="#5B5C71" d="m54.53 149.883-3.058-1.781c-.245-.147-.657-.147-.921 0l-3.774 2.104-.902.499-1.569.871c-.264.147-.274.382-.02.519l6.059 3.522c.245.147.657.137.912 0l2.47-1.37c.255-.137.265-.372.02-.518l-2.55-1.488 3.314-1.839c.245-.147.255-.372.02-.519M63.328 155.004l-3.059-1.781c-.245-.146-.657-.146-.922 0l-2.47 1.37c-.255.137-.265.372-.02.519l3.059 1.781c.245.146.657.137.912 0l2.47-1.37c.265-.147.274-.382.03-.519M67.716 157.544l-3.058-1.781c-.246-.137-.657-.137-.912 0l-2.47 1.37c-.255.147-.265.372-.02.518l3.058 1.781c.246.147.657.147.912 0l2.47-1.37c.255-.137.265-.371.02-.518M72.1 160.11l-3.058-1.781c-.245-.147-.656-.147-.921 0l-2.47 1.37c-.255.137-.265.372-.02.518l3.058 1.781c.246.147.657.137.912 0l2.47-1.37c.265-.146.285-.381.03-.518M76.5 162.645l-3.069-1.781c-.245-.137-.657-.137-.912 0l-2.47 1.37c-.255.147-.265.372-.02.519l3.069 1.781c.245.137.656.137.911 0l2.47-1.37c.256-.137.265-.372.02-.519M80.868 165.204l-3.058-1.781c-.245-.147-.657-.137-.912 0l-2.47 1.37c-.255.147-.275.372-.02.518l3.059 1.781c.245.147.657.137.911 0l2.47-1.37c.256-.146.265-.372.02-.518M85.25 167.75l-3.06-1.781c-.244-.146-.656-.146-.92 0l-2.471 1.37c-.255.137-.265.372-.02.519l3.059 1.781c.245.147.657.137.912 0l2.47-1.37c.265-.147.274-.372.03-.519M89.654 170.305l-3.059-1.781c-.245-.146-.657-.137-.912 0l-2.47 1.37c-.255.147-.265.372-.02.519l3.059 1.781c.245.147.657.147.912 0l2.47-1.37c.255-.137.265-.372.02-.519M94.036 172.852l-3.058-1.781c-.245-.146-.657-.137-.912 0l-2.47 1.37c-.255.137-.265.372-.02.519l3.059 1.781c.245.146.657.137.911 0l2.47-1.37c.246-.137.265-.372.02-.519M98.406 175.407l-3.059-1.781c-.245-.147-.657-.147-.921 0l-2.47 1.37c-.256.146-.265.371-.02.518l3.058 1.781c.245.137.657.137.912 0l2.47-1.37c.255-.147.275-.381.03-.518M106.494 180.099l-6.696-3.895c-.245-.147-.657-.137-.912 0l-2.47 1.37c-.255.147-.264.372-.02.519l6.696 3.894c.245.137.657.137.912 0l2.47-1.37c.255-.147.265-.381.02-.518M58.12 156.262l-3.059-1.781c-.245-.146-.657-.137-.911 0l-2.47 1.37c-.256.147-.275.382-.03.519l3.058 1.781c.245.147.657.147.922 0l2.47-1.37c.255-.137.265-.372.02-.519M62.498 158.817l-3.058-1.781c-.245-.147-.657-.137-.912 0l-2.47 1.37c-.265.147-.275.372-.03.519l3.059 1.78c.245.147.657.137.911 0l2.47-1.369c.256-.147.275-.372.03-.519M66.888 161.372l-3.059-1.781c-.245-.147-.657-.137-.912 0l-2.47 1.37c-.265.147-.275.381-.02.518l3.059 1.781c.245.137.657.137.912 0l2.47-1.37c.245-.146.265-.381.02-.518M71.28 163.919l-3.059-1.781c-.245-.137-.656-.137-.911 0l-2.47 1.37c-.255.147-.265.381-.03.518l3.058 1.781c.246.147.657.147.922 0l2.47-1.37c.255-.137.265-.371.02-.518M75.667 166.465l-3.059-1.78c-.245-.147-.657-.137-.912 0l-2.47 1.369c-.255.147-.274.382-.03.519l3.06 1.781c.244.147.656.137.91 0l2.471-1.37c.265-.147.275-.382.03-.519M80.056 169.024l-3.059-1.781c-.245-.137-.656-.137-.911 0l-2.47 1.37c-.256.147-.275.382-.02.519l3.058 1.781c.245.137.657.137.912 0l2.47-1.37c.245-.147.255-.382.02-.519M84.42 171.567l-3.058-1.781c-.245-.147-.657-.137-.912 0l-2.47 1.37c-.265.147-.275.372-.03.519l3.059 1.78c.245.147.656.137.911 0l2.47-1.369c.265-.137.285-.372.03-.519M88.833 174.125l-3.058-1.781c-.245-.146-.657-.146-.912 0l-2.47 1.37c-.255.147-.265.382-.02.519l3.059 1.781c.245.147.656.137.911 0l2.47-1.37c.256-.147.265-.372.02-.519M93.206 176.661l-3.059-1.781c-.245-.137-.657-.137-.912 0l-2.47 1.37c-.255.147-.274.382-.03.519l3.06 1.78c.244.147.656.147.92 0l2.471-1.369c.255-.137.265-.372.02-.519M97.573 179.219l-3.059-1.781c-.245-.146-.656-.137-.911 0l-2.47 1.37c-.256.147-.275.372-.03.519l3.058 1.781c.245.147.657.137.912 0l2.47-1.37c.265-.147.275-.372.03-.519M102.711 182.204l-3.804-2.211c-.245-.147-.657-.147-.911 0l-2.47 1.37c-.266.147-.275.381-.02.518l3.803 2.212c.245.147.657.147.912 0l2.47-1.37c.255-.147.265-.382.02-.519M41.46 150.913l-3.314-1.928c-.245-.147-.647-.147-.912 0l-2.47 1.37c-.255.147-.275.372-.02.519l3.304 1.927c.245.147.657.147.911 0l2.47-1.37c.265-.146.275-.381.03-.518M46.964 154.08l-4.039-2.349c-.245-.147-.657-.147-.921 0l-2.47 1.37c-.255.147-.265.372-.02.519l4.039 2.348c.245.137.656.137.911 0l2.47-1.37c.256-.147.275-.381.03-.518M51.388 156.653l-3.058-1.781c-.246-.137-.657-.137-.912 0l-2.47 1.37c-.255.147-.265.372-.02.519l3.058 1.781c.245.146.657.137.912 0l2.47-1.37c.255-.147.265-.382.02-.519M55.78 159.2l-3.058-1.781c-.245-.147-.657-.147-.921 0l-2.47 1.37c-.256.146-.265.371-.02.518l3.058 1.781c.245.137.657.137.912 0l2.47-1.37c.265-.137.275-.372.03-.518M60.17 161.755l-3.06-1.781c-.244-.137-.656-.137-.911 0l-2.47 1.37c-.255.146-.265.372-.02.518l3.059 1.781c.245.147.656.137.911 0l2.47-1.37c.255-.146.275-.381.02-.518M64.546 164.301l-3.058-1.781c-.245-.147-.657-.147-.922 0l-2.47 1.37c-.255.147-.265.372-.02.519l3.059 1.781c.245.146.657.137.912 0l2.47-1.37c.255-.137.274-.372.03-.519M68.921 166.848l-3.068-1.78c-.245-.137-.657-.137-.912 0l-2.47 1.369c-.255.147-.265.372-.02.519l3.069 1.781c.245.147.656.137.911 0l2.47-1.37c.255-.147.265-.382.02-.519M73.322 169.395l-3.06-1.781c-.244-.147-.656-.137-.91 0l-2.471 1.37c-.255.137-.275.372-.02.519l3.059 1.781c.245.146.657.137.912 0l2.47-1.37c.255-.137.264-.372.02-.519M77.703 171.961l-3.059-1.781c-.245-.146-.657-.146-.922 0l-2.47 1.37c-.255.147-.264.372-.02.519l3.06 1.781c.244.147.656.137.91 0l2.471-1.37c.265-.147.284-.382.03-.519M82.076 174.504l-3.059-1.78c-.245-.147-.657-.137-.912 0l-2.47 1.37c-.255.146-.265.381-.02.518l3.059 1.781c.245.147.657.147.911 0l2.47-1.37c.256-.147.266-.372.02-.519M86.474 177.059l-3.059-1.781c-.245-.146-.656-.137-.911 0l-2.47 1.37c-.256.147-.265.372-.02.519l3.058 1.781c.245.146.657.137.912 0l2.47-1.37c.245-.147.265-.382.02-.519M90.859 179.598l-3.059-1.781c-.245-.147-.657-.147-.921 0l-2.47 1.37c-.256.147-.265.372-.02.519l3.058 1.78c.245.137.657.137.912 0l2.47-1.369c.265-.147.275-.372.03-.519M98.95 184.298l-6.695-3.895c-.245-.146-.657-.137-.911 0l-2.47 1.37c-.256.147-.275.372-.02.519l6.695 3.894c.245.137.657.137.912 0l2.47-1.37c.255-.137.265-.372.02-.518M33.055 150.324l-2.323-1.35c-.246-.147-.657-.137-.912 0l-6.254 3.473c-.265.147-.275.372-.03.519l2.314 1.35c.245.147.656.137.911 0l6.255-3.473c.274-.147.284-.372.039-.519M37.776 153.075l-3.49-2.035c-.245-.147-.656-.137-.911 0l-2.47 1.37c-.256.137-.275.372-.02.519l3.49 2.035c.245.147.656.147.911 0l2.47-1.37c.255-.147.265-.382.02-.519M40.846 154.864l-1.725-1.008c-.246-.147-.657-.147-.922 0l-2.47 1.37c-.255.137-.265.372-.02.519l1.735 1.008c.245.146.657.146.912 0l2.47-1.37c.265-.147.275-.382.02-.519M44.108 156.769l-1.814-1.057c-.245-.147-.657-.137-.911 0l-2.47 1.37c-.256.147-.275.372-.02.518l1.813 1.057c.245.147.657.147.912 0l2.47-1.37c.255-.146.265-.381.02-.518M50.513 160.491l-5.02-2.916c-.245-.137-.656-.137-.911 0l-2.47 1.37c-.255.147-.265.372-.02.519l5.019 2.916c.245.147.657.147.912 0l2.47-1.37c.255-.137.274-.372.02-.519M54.915 163.047l-3.058-1.78c-.245-.147-.657-.137-.912 0l-2.47 1.369c-.255.147-.275.372-.02.519l3.059 1.781c.245.147.656.137.911 0l2.47-1.37c.255-.147.265-.372.02-.519M59.288 165.594l-3.058-1.781c-.245-.147-.657-.147-.922 0l-2.47 1.37c-.255.137-.265.372-.02.519l3.059 1.781c.245.137.657.137.912 0l2.47-1.37c.265-.137.274-.372.03-.519M63.677 168.141l-3.059-1.781c-.245-.147-.656-.147-.911 0l-2.47 1.37c-.255.147-.265.372-.02.519l3.058 1.78c.245.147.657.147.912 0l2.47-1.369c.255-.147.265-.382.02-.519M68.044 170.696l-3.058-1.781c-.245-.147-.657-.137-.912 0l-2.47 1.37c-.255.147-.265.372-.02.519l3.059 1.78c.245.147.656.137.911 0l2.47-1.37c.255-.137.265-.371.02-.518M72.468 173.254l-3.058-1.781c-.245-.146-.657-.146-.922 0l-2.47 1.37c-.255.147-.265.372-.02.519l3.059 1.781c.245.137.656.137.911 0l2.47-1.37c.265-.147.275-.382.03-.519M76.845 175.797l-3.059-1.78c-.245-.147-.656-.137-.911 0l-2.47 1.369c-.255.147-.275.372-.02.519l3.058 1.781c.245.147.657.137.912 0l2.47-1.37c.245-.147.265-.372.02-.519M81.21 178.348l-3.058-1.781c-.245-.147-.657-.147-.922 0l-2.47 1.37c-.255.137-.265.372-.02.519l3.059 1.78c.245.147.657.137.911 0l2.47-1.369c.266-.147.275-.382.03-.519M85.599 180.899l-3.059-1.781c-.245-.147-.656-.137-.911 0l-2.47 1.37c-.256.147-.265.372-.02.519l3.058 1.781c.245.146.657.146.912 0l2.47-1.37c.255-.137.265-.372.02-.519M89.986 183.45l-3.059-1.781c-.245-.147-.657-.137-.912 0l-2.47 1.37c-.255.137-.275.372-.02.518l3.059 1.781c.245.147.657.137.912 0l2.47-1.37c.255-.146.274-.381.02-.518M94.374 185.993l-3.058-1.781c-.245-.147-.657-.147-.922 0l-2.47 1.37c-.255.146-.265.371-.02.518l3.059 1.781c.245.147.657.147.912 0l2.47-1.37c.255-.137.265-.372.03-.518M34.971 155.77l-3.058-1.781c-.245-.147-.657-.137-.912 0l-2.47 1.37c-.255.147-.275.372-.03.519l3.059 1.781c.245.146.657.137.912 0l2.47-1.37c.265-.147.284-.382.03-.519M39.357 158.305l-3.059-1.781c-.245-.147-.657-.147-.912 0l-2.47 1.37c-.255.147-.264.382-.02.519l3.06 1.78c.244.137.656.137.91 0l2.471-1.369c.255-.147.265-.372.02-.519M43.78 160.891l-3.059-1.781c-.245-.146-.657-.137-.912 0l-2.47 1.37c-.265.147-.274.372-.03.519l3.06 1.781c.244.146.656.137.91 0l2.471-1.37c.265-.137.275-.372.03-.519M48.17 163.438l-3.06-1.781c-.244-.147-.656-.147-.911 0l-2.47 1.37c-.255.147-.265.381-.02.518l3.059 1.781c.245.137.656.137.911 0l2.47-1.37c.255-.146.265-.381.02-.518M70.089 176.19l-20.606-11.986c-.245-.147-.657-.147-.912 0l-2.47 1.37c-.255.146-.274.372-.03.518l20.606 11.987c.245.147.657.137.912 0l2.47-1.37c.265-.147.275-.372.03-.519M74.483 178.727l-3.058-1.781c-.245-.136-.657-.136-.912 0l-2.47 1.37c-.255.147-.265.382-.03.519l3.059 1.781c.245.147.656.147.921 0l2.47-1.37c.255-.137.265-.372.02-.519M78.854 181.282l-3.058-1.781c-.246-.147-.657-.137-.912 0l-2.47 1.37c-.255.147-.275.372-.03.518l3.059 1.781c.245.147.657.137.911 0l2.47-1.37c.265-.146.285-.371.03-.518M83.247 183.84l-3.059-1.781c-.245-.146-.656-.146-.911 0l-2.47 1.37c-.265.147-.275.382-.02.519l3.058 1.781c.245.146.657.137.912 0l2.47-1.37c.245-.147.255-.382.02-.519M87.624 186.387l-3.059-1.781c-.245-.146-.657-.137-.912 0l-2.47 1.37c-.255.147-.265.382-.03.519l3.06 1.781c.244.147.656.147.92 0l2.471-1.37c.255-.137.265-.372.02-.519M91.338 188.533l-2.372-1.38c-.245-.147-.657-.147-.912 0l-2.47 1.37c-.255.147-.274.372-.02.519l2.373 1.379c.245.137.657.137.911 0l2.47-1.37c.256-.146.266-.381.02-.518"/><path fill="#DCDCE6" d="M137.688 110.885 72.086 72.724c-1.735-1.008-3.813.205-4.254 2.054L51.46 133.175c0 .45.235.861.627 1.086l69.621 40.5c.843.489 1.588-.059 1.902-1.086l16.371-58.818a4.66 4.66 0 0 0-2.294-3.972"/><path fill="#13121A" d="M70.584 74.786a.407.407 0 0 0-.588.235L53.85 132.243a.414.414 0 0 0 .187.46l66.797 38.886c.225.137.52.019.588-.235l16.146-57.223a.41.41 0 0 0-.187-.459z"/><path fill="#312F3A" d="M81.328 129.337c3.55 2.016 5.294-4.05 8.196-2.407 2.891 1.644-2.128 15.069 2.343 17.603 4.47 2.545 8.675-12.152 12.234-10.137 3.548 2.016.47 11.106 3.891 13.044 3.422 1.947 7.059-8.298 12.45-5.235l-48.426-27.506c6.705 3.826 5.754 12.623 9.312 14.638"/><path fill="#EEDE6D" d="M117.742 127.679c-3.548-2.016-7.812 6.203-10.704 4.559-2.892-1.643 5.47-21.663 1-24.207-4.471-2.545-10.96 15.636-14.509 13.62s2.892-20.998-.53-22.945c-3.42-1.948-11.498 21.38-16.89 18.317l48.427 27.515c-6.725-3.806-3.245-14.844-6.794-16.859"/><path fill="#A4A3CD" d="M114.717 127.583c-3.421-1.947-5.528 4.266-9.087 2.25-3.549-2.015 1.225-14.364-2.529-18.454-3.412-3.728-7.48 7.71-10.381 6.057-2.892-1.644-.863-6.703-4.421-8.719-3.55-2.015-9.607 9.815-16.322 5.999l48.426 27.505c-5.372-3.063-2.264-12.691-5.686-14.638"/><path fill="#DCDCE6" d="M112.686 133.465c-3.421-1.947-4.323-.519-7.881-2.535-3.549-2.015-1.696-4.383-5.441-8.473-3.411-3.728-7.117.186-10.019-1.458-2.891-1.644-2.862-4.325-7.019-4.746-4.156-.421-3.627 2.27-10.342-1.546l48.427 27.505c-5.382-3.052-4.304-6.8-7.725-8.747"/><path fill="#5B5C71" d="M75.156 122.982c3.421 1.947 4.764-2.006 8.313.009 3.549 2.016-1.402 14.296 3.078 16.84 4.47 2.544 8.097-9.52 10.99-7.877 2.891 1.644.93 6.517 4.479 8.533s7.744-4.305 14.45-.499l-48.427-27.515c5.411 3.062 3.696 8.561 7.117 10.509"/><path fill="#F2B024" d="M76.758 119.676c2.5 2.486 4.195.372 9.813 4.12 3.332 2.221.205 6.781 3.617 7.446 3.411.666 5.96-1.683 8.852-.039s1.735 3.415 5.284 5.431 5.45-.47 12.165 3.346l-48.427-27.515c5.392 3.072 6.069 4.599 8.696 7.211"/><path fill="#fff" d="m119.438 160.096.107.088 5.823-17.926-.137-.039zM105.328 153.829l.118.068 7.479-22.065-.127-.02z"/><path fill="#fff" d="m64.016 110.274 60.425 34.325.059-.176-60.426-34.325zM113.093 131.141c-.216 0-.48.244-.578.538-.098.293 0 .538.215.538.226 0 .481-.245.579-.538.108-.294.009-.538-.216-.538"/><path fill="#fff" d="m94.319 132.686-4.264 12.554.127.069 4.255-12.554 6.479-19.081-.127-.049z"/><path fill="#fff" d="M101.085 112.965c-.225 0-.48.244-.578.538s0 .538.216.538c.215 0 .48-.244.578-.538.108-.294.01-.538-.216-.538M77.625 138.246l.118.069 8.764-25.833-.128-.029z"/><path fill="#fff" d="M86.679 111.789c-.225 0-.48.245-.578.538s0 .538.215.538c.226 0 .48-.244.579-.538.098-.303 0-.538-.216-.538M65.79 131.433l.126.059 5.833-19.482-.137-.03z"/><path fill="#fff" d="M71.913 111.32c-.225 0-.48.245-.578.538s0 .539.216.539c.225 0 .48-.245.578-.539.098-.293 0-.538-.216-.538M58.852 127.533l.117.069 6.94-22.711-.137-.039z"/><path fill="#fff" d="M66.07 104.184c-.226 0-.48.244-.579.538-.098.293 0 .538.216.538.225 0 .48-.245.578-.538.108-.294.01-.538-.215-.538M125.624 141.246c-.225 0-.48.245-.578.538s0 .538.216.538c.225 0 .48-.244.578-.538.108-.293.01-.538-.216-.538"/><defs><linearGradient id="a" x1="57.943" x2="114.132" y1="205.555" y2="113.819" gradientUnits="userSpaceOnUse"><stop stop-color="#A1A1BD"/><stop offset="1" stop-color="#fff"/></linearGradient></defs></svg>