<svg xmlns="http://www.w3.org/2000/svg" width="94" height="150" fill="none"><path fill="#5B5C71" d="m0 117.575 16.674 9.556V28.833L0 19.277z"/><path fill="#313247" d="m16.676 127.129 34.58-19.276V9.555L16.677 28.83z"/><path fill="#13121A" d="m16.676 127.128 1.239-.713V28.117l-1.24.713z"/><path fill="#EEDE6D" d="m16.676 96.494 1.239-.714v-9.292l-1.24.713z"/><path fill="#13121A" d="m18.754 125.956 1.246-.713V26.945l-1.246.713z"/><path fill="#EEDE6D" d="M18.754 63.236 20 62.523V53.23l-1.246.714z"/><path fill="#13121A" d="m20.828 124.788 1.247-.713V25.777l-1.247.713z"/><path fill="#EEDE6D" d="m20.828 117.204 1.247-.713v-9.292l-1.247.713z"/><path fill="#13121A" d="m22.918 123.624 1.247-.713V24.613l-1.247.713z"/><path fill="#EEDE6D" d="m22.918 77.806 1.247-.713V67.8l-1.247.713zM22.918 56.63l1.247-.706v-9.299l-1.247.713z"/><path fill="#13121A" d="m24.996 122.456 1.247-.713V23.445l-1.247.706z"/><path fill="#EEDE6D" d="m24.996 35.783 1.247-.714v-9.292l-1.247.713z"/><path fill="#13121A" d="m27.082 121.285 1.247-.714V22.273l-1.247.714z"/><path fill="#EEDE6D" d="m27.082 99.826 1.247-.706v-9.3l-1.247.713z"/><path fill="#13121A" d="m29.16 120.12 1.247-.713V21.109l-1.247.713z"/><path fill="#EEDE6D" d="m29.16 46.97 1.247-.713v-9.292l-1.247.713z"/><path fill="#13121A" d="m31.246 118.949 1.247-.714V19.938l-1.247.713z"/><path fill="#EEDE6D" d="m31.246 118.822 1.247-.713v-9.293l-1.247.706z"/><path fill="#13121A" d="m33.328 117.781 1.247-.714V18.77l-1.247.713z"/><path fill="#EEDE6D" d="m33.328 68.239 1.247-.713v-9.3l-1.247.714zM33.328 83.119l1.247-.714v-9.292l-1.247.713z"/><path fill="#13121A" d="m35.406 116.617 1.247-.714V17.605l-1.247.706z"/><path fill="#EEDE6D" d="m35.406 112.111 1.247-.713v-9.293l-1.247.714z"/><path fill="#13121A" d="m37.492 115.445 1.247-.713V16.434l-1.247.713z"/><path fill="#EEDE6D" d="m37.492 92.779 1.247-.713v-9.293l-1.247.714z"/><path fill="#13121A" d="m39.57 114.277 1.247-.713V15.266l-1.247.713z"/><path fill="#EEDE6D" d="m39.57 52.603 1.247-.713v-9.292l-1.247.713z"/><path fill="#13121A" d="m41.652 113.109 1.247-.713V14.098l-1.247.713z"/><path fill="#EEDE6D" d="m41.652 60.79 1.247-.713v-9.292l-1.247.713z"/><path fill="#13121A" d="m43.738 111.937 1.247-.713V12.926l-1.247.713z"/><path fill="#EEDE6D" d="m43.738 27.279 1.247-.713v-9.293l-1.247.714z"/><path fill="#13121A" d="m45.816 110.769 1.247-.713V11.758l-1.247.713z"/><path fill="#EEDE6D" d="m45.816 99.247 1.247-.713v-9.292l-1.247.713zM45.816 109.896l1.247-.713v-9.292l-1.247.713zM45.816 71.599l1.247-.713v-9.292l-1.247.713z"/><path fill="#13121A" d="m47.902 109.609 1.247-.713V10.598l-1.247.713z"/><path fill="#EEDE6D" d="m47.902 45.762 1.247-.713V35.75l-1.247.713z"/><path fill="#13121A" d="m49.992 108.437 1.247-.713V9.426l-1.247.713z"/><path fill="#EEDE6D" d="m49.992 77.806 1.247-.713V67.8l-1.247.713z"/><path fill="#A4A3CD" d="m0 19.276 16.674 9.556L51.255 9.556 34.588 0zM21.332 129.291l7.347 3.936V56.651l-7.347-3.936z"/><path fill="#312F3A" d="m28.68 133.223 34.58-19.276V37.371L28.68 56.647z"/><path fill="#DCDCE6" d="m21.332 52.713 7.347 3.937L63.26 37.374l-7.347-3.937z"/><path fill="#A4A3CD" d="m31.094 134.482 7.347 3.937V61.843l-7.347-3.937z"/><path fill="#312F3A" d="m38.441 138.414 34.581-19.275V42.563l-34.58 19.275z"/><path fill="#DCDCE6" d="m31.094 57.905 7.347 3.936 34.58-19.276-7.347-3.936z"/><path fill="#5B5C71" d="m42.191 140.442 16.667 9.556V51.701l-16.667-9.556z"/><path fill="#313247" d="m58.86 149.996 34.587-19.276V32.422L58.86 51.698z"/><path fill="#13121A" d="m58.86 149.995 1.246-.713V50.984l-1.247.713z"/><path fill="#EEDE6D" d="m58.86 119.361 1.246-.706v-9.3l-1.247.714z"/><path fill="#13121A" d="m60.941 148.824 1.247-.714V49.812l-1.247.714z"/><path fill="#EEDE6D" d="m60.941 86.103 1.247-.713v-9.292l-1.247.713z"/><path fill="#13121A" d="m63.023 147.656 1.247-.706V48.645l-1.247.713z"/><path fill="#EEDE6D" d="m63.023 140.072 1.247-.706v-9.3l-1.247.714z"/><path fill="#13121A" d="m65.11 146.488 1.246-.706V47.484l-1.247.706z"/><path fill="#EEDE6D" d="m65.11 100.68 1.246-.713v-9.299l-1.247.713zM65.11 79.505l1.246-.714v-9.299l-1.247.713z"/><path fill="#13121A" d="m67.188 145.324 1.246-.714V46.312l-1.246.714z"/><path fill="#EEDE6D" d="m67.188 58.657 1.246-.713v-9.3l-1.246.714z"/><path fill="#13121A" d="m69.273 144.152 1.247-.713V45.141l-1.247.713z"/><path fill="#EEDE6D" d="m69.273 122.701 1.247-.714v-9.292l-1.247.706z"/><path fill="#13121A" d="m71.352 142.988 1.246-.713V43.977l-1.246.713z"/><path fill="#EEDE6D" d="m71.352 69.844 1.246-.713v-9.299l-1.246.713z"/><path fill="#13121A" d="m73.438 141.816 1.246-.713V42.805l-1.246.713z"/><path fill="#EEDE6D" d="m73.438 141.689 1.246-.713v-9.292l-1.246.713z"/><path fill="#13121A" d="m75.52 140.656 1.246-.713V41.644l-1.247.706z"/><path fill="#EEDE6D" d="m75.52 91.107 1.246-.713v-9.292l-1.247.713zM75.52 105.982l1.246-.713v-9.292l-1.247.713z"/><path fill="#13121A" d="m77.598 139.484 1.246-.713V40.473l-1.246.713z"/><path fill="#EEDE6D" d="m77.598 134.978 1.246-.713v-9.292l-1.246.713z"/><path fill="#13121A" d="m79.684 138.312 1.246-.713V39.301l-1.246.713z"/><path fill="#EEDE6D" d="m79.684 115.646 1.246-.706v-9.299l-1.246.713z"/><path fill="#13121A" d="m81.762 137.144 1.246-.713V38.133l-1.246.713z"/><path fill="#EEDE6D" d="m81.762 75.47 1.246-.706v-9.3l-1.246.714z"/><path fill="#13121A" d="m83.844 135.976 1.246-.713V36.965l-1.246.713z"/><path fill="#EEDE6D" d="m83.844 83.658 1.246-.714v-9.292l-1.246.713z"/><path fill="#13121A" d="m85.93 134.809 1.246-.706V35.805l-1.246.706z"/><path fill="#EEDE6D" d="m85.93 50.146 1.246-.706v-9.3l-1.246.714z"/><path fill="#13121A" d="m88.008 133.644 1.246-.713V34.633l-1.246.713z"/><path fill="#EEDE6D" d="m88.008 122.115 1.246-.714v-9.292l-1.246.714zM88.008 132.763l1.246-.713v-9.292l-1.246.713zM88.008 94.466l1.246-.713v-9.292l-1.246.713z"/><path fill="#13121A" d="m90.094 132.476 1.246-.713V33.465l-1.246.713z"/><path fill="#EEDE6D" d="m90.094 68.626 1.246-.713v-9.292l-1.246.713z"/><path fill="#13121A" d="m92.184 131.304 1.246-.713V32.293l-1.246.713z"/><path fill="#EEDE6D" d="m92.184 100.68 1.246-.713v-9.299l-1.246.713z"/><path fill="#A4A3CD" d="M42.191 42.143 58.858 51.7l34.589-19.276-16.675-9.556z"/></svg>