<svg xmlns="http://www.w3.org/2000/svg" width="206" height="150" fill="none"><path fill="#313247" d="m203.537 85.01-99.106-57.925a4.94 4.94 0 0 0-4.98-.01L2.484 83.223c-3.303 1.912-3.312 6.682-.019 8.603l98.384 57.5a4.98 4.98 0 0 0 4.95.029l97.681-55.723c3.342-1.902 3.361-6.692.058-8.623"/><path fill="#313247" d="m.008 88.203 205.994 1.39v-4.818L.008 83.375z"/><path fill="#5B5C71" d="M203.537 80.545 104.431 22.62a4.94 4.94 0 0 0-4.98-.01L2.484 78.75C-.82 80.66-.829 85.43 2.464 87.352l98.384 57.5a4.98 4.98 0 0 0 4.95.029l97.681-55.724c3.342-1.892 3.361-6.691.058-8.612"/><path fill="#313247" d="m56.73 106.252.28.503 14.3-8.034 11.162 6.44.29-.502-11.451-6.604zM48.082 81.812l.28.502 39.08-21.802-.28-.512z"/><path fill="#fff" d="M48.816 91.836c-2.06 0-3.496 1.11-3.496 2.105s1.435 2.114 3.496 2.114 3.496-1.11 3.496-2.114c0-.995-1.435-2.105-3.496-2.105m0 4.026c-1.945 0-3.303-1.013-3.303-1.921s1.358-1.922 3.303-1.922 3.303 1.014 3.303 1.922c0 .917-1.358 1.921-3.303 1.921M70.002 57.48l-8.745-5.098a.79.79 0 0 0-.799 0l-17.2 10.003a.79.79 0 0 0-.395.696c0 .29.154.55.405.685l8.86 5.021c.125.068.26.106.395.106.134 0 .279-.038.394-.106l17.075-9.936a.79.79 0 0 0 .395-.685.78.78 0 0 0-.385-.686m-.106 1.217L52.82 68.633a.6.6 0 0 1-.597 0l-8.86-5.031a.59.59 0 0 1-.308-.521c0-.222.106-.416.298-.522l17.2-10.003a.6.6 0 0 1 .299-.087c.096 0 .212.029.298.087l8.745 5.098c.183.106.298.3.298.521a.58.58 0 0 1-.298.522M110.676 122.289l-12.23-7.126a.79.79 0 0 0-.8 0l-11.739 6.808a.77.77 0 0 0-.395.695.8.8 0 0 0 .405.695l12.394 7.029c.125.068.26.107.395.107s.279-.039.404-.107l11.576-6.71a.79.79 0 0 0 .395-.696.8.8 0 0 0-.405-.695m-.096 1.217-11.576 6.711a.62.62 0 0 1-.606 0l-12.395-7.03a.6.6 0 0 1-.308-.521c0-.222.116-.415.299-.531l11.74-6.808a.62.62 0 0 1 .606 0l12.23 7.126a.6.6 0 0 1 .299.531.58.58 0 0 1-.289.522"/><path fill="#313247" d="m46.918 74.435.289.502 64.899-37.28-.279-.512z"/><path fill="#13121A" d="m59.64 84.87 43.886 25.646 42.538-24.265-44.194-25.83z"/><path fill="#DCDCE6" d="m59.64 83.171 43.886 25.646 42.538-24.265-44.194-25.83z"/><path fill="#5AD5E4" d="m93.941 83.243 9.689 5.668 7.945-4.538-9.746-5.697z"/><path fill="#13121A" d="m129.398 84.268 2.524 1.477 2.07-1.188-2.542-1.487zM99.914 66.781l2.533 1.478 2.07-1.178-2.542-1.487zM101.48 100.262l2.524 1.477 2.08-1.178-2.552-1.487zM71.992 82.791l2.533 1.477 2.07-1.187-2.542-1.487z"/><path fill="#F2B024" d="m62.824 83.188 40.717 23.792 39.341-22.44-41.007-23.966zm40.727 20.451L68.574 83.198l33.292-19.273 35.218 20.586z"/><path fill="#807EB0" d="m84.688 83.495 18.48 10.795 17.826-10.168-18.606-10.872zm18.48 9.964-17.046-9.955 16.256-9.414 17.162 10.032z"/><path fill="#313247" d="m201.653 83.803-99.106-57.925a1.22 1.22 0 0 0-1.204 0L4.374 82.026a1.16 1.16 0 0 0-.597 1.043c0 .444.212.82.597 1.043l98.394 57.5c.183.106.395.164.607.164.202 0 .414-.058.597-.155l97.681-55.723c.385-.222.607-.589.607-1.043-.01-.454-.222-.83-.607-1.052m-.299 1.583-97.681 55.724a.66.66 0 0 1-.626 0L4.654 83.61a.58.58 0 0 1-.308-.541c0-.241.105-.415.308-.54l96.968-56.149a.6.6 0 0 1 .308-.087.63.63 0 0 1 .318.087l99.106 57.925a.58.58 0 0 1 .308.54.58.58 0 0 1-.308.541"/><path fill="#fff" d="m196.659 84.75-23.142-13.527a.3.3 0 0 0-.308 0l-22.641 13.113a.31.31 0 0 0-.154.27c0 .116.058.212.154.27l22.969 13.422a.3.3 0 0 0 .154.048q.084.002.154-.038L196.65 85.3a.31.31 0 0 0 .154-.27.29.29 0 0 0-.145-.28m-.096.368-22.805 13.006a.12.12 0 0 1-.115 0l-22.969-13.421q-.057-.032-.058-.107c0-.048.02-.077.058-.096l22.641-13.113a.14.14 0 0 1 .058-.02c.019 0 .038.01.058.02l23.142 13.528c.028.01.057.039.057.096-.009.068-.048.097-.067.107"/><path fill="#313247" d="m155.066 78.589 8.841 5.011 16.468-9.617-8.725-5.089z"/><path fill="#fff" d="m171.653 70.223-14.137 8.265-.145.087 6.481 3.679.048.029 14.051-8.208.145-.087-6.395-3.727zM163.9 82.05l-6.144-3.486 13.897-8.12 6.057 3.534z"/><path fill="#13121A" d="m163.906 89.038 16.468-9.627v-5.427l-16.468 9.618z"/><path fill="#13121A" d="m155.066 84.057 8.841 5.002v-5.456l-8.841-5.001z"/><path fill="#313247" d="m43.797 57.538 8.85 5.021 16.468-9.627-8.725-5.088z"/><path fill="#fff" d="M60.387 49.176 46.25 57.44l-.145.087 6.482 3.679.048.029 14.05-8.208.145-.087-6.395-3.727zm-7.752 11.828-6.144-3.486 13.896-8.12 6.058 3.534z"/><path fill="#13121A" d="M52.652 67.987 69.12 58.37v-5.436L52.652 62.56zM43.797 63.014l8.85 5.002V62.56l-8.85-5.001z"/><path fill="#fff" d="m92.88 44.148-8.744-5.098a.79.79 0 0 0-.8 0L66.138 49.053a.79.79 0 0 0-.395.696c0 .29.154.54.405.685l8.86 5.03c.125.068.26.107.394.107.135 0 .28-.039.395-.106l17.075-9.936a.79.79 0 0 0 .395-.686.76.76 0 0 0-.385-.695m-.096 1.217L75.71 55.3a.6.6 0 0 1-.597 0l-8.86-5.031a.59.59 0 0 1-.309-.521c0-.223.116-.416.299-.522l17.2-10.003a.625.625 0 0 1 .597 0l8.744 5.098c.183.106.299.3.299.521a.61.61 0 0 1-.299.522"/><path fill="#313247" d="m66.688 44.202 8.85 5.021 16.458-9.627-8.725-5.088z"/><path fill="#fff" d="M83.274 35.836 69.137 44.1l-.145.087 6.481 3.679.049.029 14.05-8.207.145-.087-6.395-3.727zm-7.752 11.838-6.145-3.486 13.897-8.12 6.058 3.534z"/><path fill="#13121A" d="m75.543 54.647 16.458-9.617v-5.436L75.543 49.22zM66.688 49.678l8.85 5.002v-5.456l-8.85-5.001z"/><path fill="#313247" d="m166.051 85.386 8.85 5.011 16.468-9.617-8.725-5.089z"/><path fill="#fff" d="m182.641 77.027-14.137 8.266-.145.086 6.482 3.68.048.028 14.05-8.207.145-.087-6.395-3.727zm-7.752 11.829-6.144-3.486 13.896-8.12 6.058 3.533z"/><path fill="#13121A" d="m174.906 95.835 16.468-9.627V80.78l-16.468 9.617zM166.051 90.852l8.85 5.002v-5.456l-8.85-4.992z"/><path fill="#fff" d="m95.465 113.815-12.23-7.136a.79.79 0 0 0-.8 0l-11.739 6.807a.77.77 0 0 0-.395.695.8.8 0 0 0 .405.696l12.404 7.029a.8.8 0 0 0 .394.106c.135 0 .28-.038.405-.106l11.576-6.711a.79.79 0 0 0 .394-.695.85.85 0 0 0-.414-.685m-.096 1.216-11.576 6.711a.6.6 0 0 1-.597 0l-12.404-7.029a.6.6 0 0 1-.308-.522c0-.222.116-.415.299-.531l11.74-6.807a.6.6 0 0 1 .307-.077c.106 0 .212.028.308.077l12.231 7.135a.59.59 0 0 1 .299.522.59.59 0 0 1-.299.521"/><path fill="#fff" d="m71.719 106.856 11.778 6.672 10.95-6.353-11.615-6.769z"/><path fill="#5B5C71" d="m82.793 101.438-9.149 5.291-.144.087 10.006 5.677.048.029 9.014-5.214.145-.087-9.862-5.755zm.751 10.853-9.659-5.475 8.908-5.156 9.525 5.552z"/><path fill="#C4CAE0" d="m83.496 120.761 10.95-6.353v-7.232l-10.95 6.353z"/><path fill="#A4A3CD" d="m71.719 114.134 11.778 6.653v-7.261l-11.778-6.643z"/><path fill="#5B5C71" d="m82.868 101.549-.192.013.75 10.856.193-.013z"/><path fill="#5B5C71" d="m73.813 106.83 18.692.483.01-.193-18.693-.483z"/><path fill="#fff" d="m86.938 115.337 11.768 6.681 10.959-6.363-11.614-6.768z"/><path fill="#5B5C71" d="m98.012 109.914-9.149 5.291-.144.087 10.006 5.668.048.029 9.014-5.214.144-.087-9.861-5.755zm.751 10.853-9.659-5.475 8.908-5.156 9.525 5.552z"/><path fill="#C4CAE0" d="m98.703 129.242 10.96-6.354v-7.232l-10.96 6.363z"/><path fill="#A4A3CD" d="m86.938 122.615 11.768 6.653v-7.252l-11.769-6.653z"/><path fill="#5B5C71" d="m98.087 110.03-.193.013.752 10.856.192-.013z"/><path fill="#5B5C71" d="m89.031 115.31 18.693.483v-.193l-18.693-.483z"/><path fill="#fff" d="m14.773 80.413 1.638 1.004 17.065-9.82-1.56-1.042z"/><path fill="#C4CAE0" d="m16.414 84.681 17.065-9.82v-3.263l-17.065 9.82z"/><path fill="#A4A3CD" d="m14.773 83.709 1.638.985V81.42l-1.638-.994z"/><path fill="#fff" d="m17.457 82.054 1.637.994 17.065-9.81-1.56-1.043z"/><path fill="#C4CAE0" d="m19.098 86.322 17.065-9.82v-3.264l-17.065 9.81z"/><path fill="#A4A3CD" d="m17.457 85.35 1.637.984v-3.283l-1.637-.985z"/><path fill="#fff" d="m20.145 83.695 1.637.994 17.065-9.81-1.56-1.043z"/><path fill="#C4CAE0" d="m21.785 87.953 17.065-9.81v-3.264l-17.065 9.81z"/><path fill="#A4A3CD" d="m20.145 86.99 1.637.985v-3.283l-1.637-.985z"/><path fill="#fff" d="m22.828 85.335 1.637.995 17.065-9.81-1.56-1.043z"/><path fill="#C4CAE0" d="m24.469 89.593 17.065-9.81V76.52l-17.065 9.81z"/><path fill="#A4A3CD" d="m22.828 88.63 1.637.986v-3.284l-1.637-.984z"/><path fill="#fff" d="m25.512 86.968 1.637 1.004 17.065-9.82-1.56-1.043z"/><path fill="#C4CAE0" d="m27.152 91.236 17.065-9.81v-3.274l-17.065 9.82z"/><path fill="#A4A3CD" d="m25.512 90.262 1.637.994v-3.283l-1.637-.985z"/><path fill="#EEDE6D" d="m62.805 67.676 8.532 4.915.819-.502-8.571-4.925z"/><path fill="#F80" d="m62.805 69.321 8.532 4.905v-1.632l-8.532-4.914z"/><path fill="#F2B024" d="m71.34 74.228.818-.493v-1.641l-.818.492z"/><path fill="#EEDE6D" d="m61.46 68.498 8.543 4.915.819-.502-8.581-4.934z"/><path fill="#F80" d="m61.46 70.138 8.543 4.905V73.41l-8.542-4.915z"/><path fill="#F2B024" d="m70.004 75.052.819-.493v-1.641l-.82.492z"/><path fill="#EEDE6D" d="m60.106 69.332 8.542 4.905.818-.502-8.58-4.934z"/><path fill="#F80" d="m60.106 70.968 8.542 4.905V74.24l-8.542-4.905z"/><path fill="#F2B024" d="m68.652 75.876.819-.492v-1.642l-.819.493z"/><path fill="#EEDE6D" d="m58.77 70.139 8.542 4.914.818-.502-8.58-4.934z"/><path fill="#F80" d="m58.77 71.778 8.542 4.905v-1.632l-8.542-4.914z"/><path fill="#F2B024" d="m67.316 76.693.819-.493V74.56l-.819.492z"/><path fill="#EEDE6D" d="m57.422 70.959 8.542 4.915.819-.502-8.581-4.934z"/><path fill="#F80" d="m57.422 72.599 8.542 4.905v-1.632l-8.542-4.915z"/><path fill="#F2B024" d="m65.969 77.513.818-.493V75.38l-.818.492z"/><path fill="#fff" d="m77.356 58.611 8.542 4.915.809-.502-8.571-4.934z"/><path fill="#C4CAE0" d="m77.356 60.25 8.542 4.906v-1.632l-8.542-4.915z"/><path fill="#A4A3CD" d="m85.898 65.165.81-.492V63.03l-.81.493z"/><path fill="#fff" d="m76.008 59.441 8.542 4.905.819-.502-8.581-4.934z"/><path fill="#C4CAE0" d="m76.008 61.077 8.542 4.905V64.35l-8.542-4.905z"/><path fill="#A4A3CD" d="m84.55 65.985.82-.492v-1.641l-.82.492z"/><path fill="#fff" d="m74.656 60.256 8.542 4.915.819-.503-8.571-4.934z"/><path fill="#C4CAE0" d="m74.656 61.895 8.542 4.905V65.17l-8.542-4.915z"/><path fill="#A4A3CD" d="m83.2 66.81.818-.493v-1.641l-.819.492z"/><path fill="#fff" d="m73.32 61.076 8.543 4.915.818-.502-8.58-4.934z"/><path fill="#C4CAE0" d="m73.32 62.716 8.543 4.905v-1.632l-8.543-4.915z"/><path fill="#A4A3CD" d="m81.863 67.63.819-.492v-1.642l-.819.493z"/><path fill="#fff" d="m71.973 61.893 8.542 4.914.818-.502-8.58-4.934z"/><path fill="#C4CAE0" d="m71.973 63.532 8.542 4.905v-1.632l-8.542-4.914z"/><path fill="#A4A3CD" d="m80.516 68.446.818-.492v-1.641l-.818.492z"/><path fill="#313247" d="m150.51 95.496-27.995 15.507-.154.077v9.878l-22.545 11.539H88.23v.579h11.72l22.833-11.683.154-.077v-9.888l27.572-15.266 17.065 9.395.279-.502-17.209-9.482zM33.59 92.868l14.975-8.44v-9.124l-16.237-9.308-.289.502 15.948 9.144v8.449l-15.572 8.777 33.042 18.587 3.996 10.612.54-.203-4.065-10.814zM158.892 71.625l-18.384-10.93V48.421h-.578v12.61l18.808 11.182.144.087 11.441-6.48-.289-.502z"/><path fill="#EEDE6D" d="m138.984 51.05 1.445.831 1.425-.84-1.425-.85z"/><path fill="#F2B024" d="m140.426 65.185 1.425-.84V51.039l-1.425.84z"/><path fill="#F80" d="m138.984 64.366 1.445.83V51.882l-1.445-.83z"/><path fill="#EEDE6D" d="m136.406 52.426 1.454.84 1.416-.84-1.416-.86z"/><path fill="#F2B024" d="m137.863 66.572 1.416-.84V52.425l-1.416.84z"/><path fill="#F80" d="m136.406 65.741 1.454.83V53.267l-1.454-.84z"/><path fill="#EEDE6D" d="m133.836 53.795 1.444.84 1.426-.84-1.426-.85z"/><path fill="#F2B024" d="m135.277 67.939 1.426-.84V53.793l-1.426.84z"/><path fill="#F80" d="m133.836 67.11 1.444.83V54.636l-1.444-.83z"/><path fill="#EEDE6D" d="m131.262 55.172 1.444.83 1.416-.84-1.416-.85z"/><path fill="#F2B024" d="m132.703 69.306 1.416-.84V55.16l-1.416.84z"/><path fill="#F80" d="m131.262 68.487 1.444.83V56.003l-1.444-.83z"/><path fill="#EEDE6D" d="m128.68 56.547 1.454.83 1.416-.83-1.416-.86z"/><path fill="#F2B024" d="m130.137 70.683 1.415-.83V56.546l-1.415.83z"/><path fill="#F80" d="m128.68 69.862 1.454.83V57.378l-1.454-.83z"/><path fill="#EEDE6D" d="m141.133 52.332 1.444.84 1.426-.84-1.426-.86z"/><path fill="#F2B024" d="m142.574 66.478 1.425-.84V52.332l-1.425.84z"/><path fill="#F80" d="m141.133 65.645 1.444.83V53.17l-1.444-.83z"/><path fill="#EEDE6D" d="m138.555 53.705 1.454.84 1.416-.84-1.416-.85z"/><path fill="#F2B024" d="m140.012 67.849 1.415-.84V53.703l-1.415.84z"/><path fill="#F80" d="m138.555 67.02 1.454.84V54.546l-1.454-.83z"/><path fill="#EEDE6D" d="m135.98 55.082 1.445.83 1.425-.84-1.425-.85z"/><path fill="#F2B024" d="m137.422 69.216 1.425-.84V55.07l-1.425.84z"/><path fill="#F80" d="m135.98 68.397 1.445.83V55.913l-1.445-.83z"/><path fill="#EEDE6D" d="m133.41 56.457 1.445.84 1.415-.84-1.415-.86z"/><path fill="#F2B024" d="m134.852 70.603 1.415-.84V56.457l-1.415.84z"/><path fill="#F80" d="m133.41 69.772 1.445.83V57.298l-1.445-.84z"/><path fill="#EEDE6D" d="m130.828 57.83 1.454.84 1.416-.84-1.416-.85z"/><path fill="#F2B024" d="m132.285 71.974 1.416-.84V57.828l-1.416.84z"/><path fill="#F80" d="m130.828 71.145 1.454.83V58.67l-1.454-.83z"/><path fill="#EEDE6D" d="m143.277 53.633 1.445.83 1.416-.84-1.416-.85z"/><path fill="#F2B024" d="m144.719 67.767 1.415-.84V53.62l-1.415.84z"/><path fill="#F80" d="m143.277 66.948 1.445.83V54.463l-1.445-.83z"/><path fill="#EEDE6D" d="m140.703 55 1.454.83 1.416-.83-1.416-.86z"/><path fill="#F2B024" d="m142.16 69.136 1.416-.83V55l-1.416.83z"/><path fill="#F80" d="m140.703 68.315 1.454.83V55.83l-1.454-.83z"/><path fill="#EEDE6D" d="m138.125 56.371 1.445.84 1.425-.84-1.425-.86z"/><path fill="#F2B024" d="m139.566 70.517 1.426-.84V56.37l-1.426.84z"/><path fill="#F80" d="m138.125 69.685 1.445.83V57.209l-1.445-.83z"/><path fill="#EEDE6D" d="m135.547 57.748 1.454.84 1.416-.84-1.416-.85z"/><path fill="#F2B024" d="m137.004 71.892 1.416-.84V57.746l-1.416.84z"/><path fill="#F80" d="m135.547 71.063 1.454.84V58.588l-1.454-.83z"/><path fill="#EEDE6D" d="m132.973 59.125 1.444.83 1.425-.84-1.425-.85z"/><path fill="#F2B024" d="m134.414 73.259 1.425-.84V59.113l-1.425.84z"/><path fill="#F80" d="m132.973 72.44 1.444.83V59.956l-1.444-.83z"/><path fill="#EEDE6D" d="m145.418 54.914 1.454.84 1.416-.84-1.416-.86z"/><path fill="#F2B024" d="m146.875 69.06 1.416-.84V54.914l-1.416.84z"/><path fill="#F80" d="m145.418 68.23 1.454.83V55.754l-1.454-.84z"/><path fill="#EEDE6D" d="m142.852 56.283 1.454.84 1.415-.84-1.415-.85z"/><path fill="#F2B024" d="m144.309 70.427 1.415-.84V56.28l-1.415.84z"/><path fill="#F80" d="m142.852 69.599 1.454.83V57.123l-1.454-.83z"/><path fill="#EEDE6D" d="m140.277 57.668 1.445.83 1.425-.84-1.425-.85z"/><path fill="#F2B024" d="m141.719 71.802 1.425-.84V57.656l-1.425.84z"/><path fill="#F80" d="m140.277 70.983 1.445.83V58.499l-1.445-.83z"/><path fill="#EEDE6D" d="m137.695 59.035 1.455.83 1.415-.83-1.415-.86z"/><path fill="#F2B024" d="m139.152 73.171 1.416-.83V59.035l-1.416.83z"/><path fill="#F80" d="m137.695 72.35 1.455.83V59.867l-1.455-.83z"/><path fill="#EEDE6D" d="m135.125 60.41 1.445.84 1.425-.84-1.425-.86z"/><path fill="#F2B024" d="m136.566 74.556 1.426-.84V60.41l-1.426.84z"/><path fill="#F80" d="m135.125 73.724 1.445.83V61.248l-1.445-.83z"/><path fill="#EEDE6D" d="m147.566 56.201 1.455.84 1.415-.84-1.415-.85z"/><path fill="#F2B024" d="m149.023 70.345 1.416-.84V56.199l-1.416.84z"/><path fill="#F80" d="m147.566 69.517 1.455.84V57.04l-1.455-.83z"/><path fill="#EEDE6D" d="m145 57.578 1.445.83 1.425-.84-1.425-.85z"/><path fill="#F2B024" d="m146.441 71.712 1.426-.84V57.566l-1.426.84z"/><path fill="#F80" d="m145 70.893 1.445.83V58.409l-1.445-.83z"/><path fill="#EEDE6D" d="m142.426 58.95 1.444.84 1.426-.84-1.426-.86z"/><path fill="#F2B024" d="m143.867 73.095 1.425-.84V58.949l-1.425.84z"/><path fill="#F80" d="m142.426 72.265 1.444.83V59.789l-1.444-.84z"/><path fill="#EEDE6D" d="m139.836 60.326 1.454.84 1.416-.84-1.416-.85z"/><path fill="#F2B024" d="m141.293 74.47 1.416-.84V60.324l-1.416.84z"/><path fill="#F80" d="m139.836 73.642 1.454.83V61.166l-1.454-.83z"/><path fill="#EEDE6D" d="m137.27 61.694 1.444.84 1.425-.84-1.425-.85z"/><path fill="#F2B024" d="m138.711 75.837 1.425-.84V61.691l-1.425.84z"/><path fill="#F80" d="m137.27 75.018 1.444.83V62.535l-1.444-.83z"/><path fill="#EEDE6D" d="m149.711 57.492 1.454.83 1.416-.83-1.416-.86z"/><path fill="#F2B024" d="m151.168 71.628 1.416-.83V57.492l-1.416.83z"/><path fill="#F80" d="m149.711 70.808 1.454.83V58.323l-1.454-.83z"/><path fill="#EEDE6D" d="m147.145 58.863 1.444.84 1.425-.84-1.425-.86z"/><path fill="#F2B024" d="m148.586 73.009 1.425-.84V58.863l-1.425.84z"/><path fill="#F80" d="m147.145 72.177 1.444.83V59.701l-1.444-.83z"/><path fill="#EEDE6D" d="m144.57 60.233 1.445.84 1.416-.84-1.416-.85z"/><path fill="#F2B024" d="m146.012 74.376 1.415-.84V60.23l-1.415.84z"/><path fill="#F80" d="m144.57 73.548 1.445.84V61.073l-1.445-.83z"/><path fill="#EEDE6D" d="m141.984 61.613 1.455.83 1.415-.84-1.415-.85z"/><path fill="#F2B024" d="m143.441 75.747 1.416-.84V61.602l-1.416.84z"/><path fill="#F80" d="m141.984 74.929 1.455.83V62.444l-1.455-.83z"/><path fill="#EEDE6D" d="m139.418 62.984 1.445.84 1.425-.84-1.425-.859z"/><path fill="#F2B024" d="m140.859 77.13 1.426-.84V62.984l-1.426.84z"/><path fill="#F80" d="m139.418 76.3 1.445.83V63.824l-1.445-.84z"/><path fill="#5AD5E4" d="m147.238 97.61 2.09 1.206 2.042-1.207-2.042-1.226z"/><path fill="#29C1CF" d="m149.328 106.276 2.042-1.207v-7.463l-2.042 1.206z"/><path fill="#1FABB8" d="m147.238 105.095 2.09 1.197v-7.474l-2.09-1.197z"/><path fill="#5AD5E4" d="m143.535 99.588 2.08 1.206 2.042-1.206-2.042-1.236z"/><path fill="#29C1CF" d="m145.613 105.75 2.042-1.207V99.59l-2.042 1.207z"/><path fill="#1FABB8" d="m143.535 104.557 2.08 1.197v-4.963l-2.08-1.197z"/><path fill="#5AD5E4" d="m139.832 101.568 2.08 1.197 2.042-1.207-2.042-1.226z"/><path fill="#29C1CF" d="m141.91 107.725 2.042-1.207v-4.963l-2.042 1.207z"/><path fill="#1FABB8" d="m139.832 106.543 2.08 1.197v-4.972l-2.08-1.198z"/><path fill="#5AD5E4" d="m150.852 99.79 2.089 1.198 2.042-1.207-2.042-1.226z"/><path fill="#29C1CF" d="m152.941 105.947 2.042-1.207v-4.963l-2.042 1.207z"/><path fill="#1FABB8" d="m150.852 104.766 2.089 1.197v-4.973l-2.089-1.197z"/><path fill="#5AD5E4" d="m147.145 101.761 2.089 1.207 2.042-1.207-2.042-1.226z"/><path fill="#29C1CF" d="m149.234 107.928 2.042-1.207v-4.963l-2.042 1.207z"/><path fill="#1FABB8" d="m147.145 106.746 2.089 1.197v-4.972l-2.089-1.198z"/><path fill="#5AD5E4" d="m143.445 103.742 2.08 1.207 2.042-1.207-2.042-1.226z"/><path fill="#29C1CF" d="m145.523 109.908 2.042-1.207v-4.963l-2.042 1.207z"/><path fill="#1FABB8" d="m143.445 108.717 2.08 1.197v-4.963l-2.08-1.197z"/><path fill="#5AD5E4" d="m154.57 101.982 2.09 1.207 2.042-1.207-2.042-1.236z"/><path fill="#29C1CF" d="m156.66 108.145 2.042-1.207v-4.954l-2.042 1.207z"/><path fill="#1FABB8" d="m154.57 106.951 2.09 1.198v-4.963l-2.09-1.198z"/><path fill="#5AD5E4" d="m150.871 103.962 2.09 1.198 2.042-1.207-2.042-1.226z"/><path fill="#29C1CF" d="m152.961 110.119 2.042-1.207v-4.963l-2.042 1.207z"/><path fill="#1FABB8" d="m150.871 108.938 2.09 1.197v-4.973l-2.09-1.197z"/><path fill="#5AD5E4" d="m147.152 105.939 2.09 1.197 2.042-1.207-2.042-1.226z"/><path fill="#29C1CF" d="m149.242 112.096 2.042-1.207v-4.963l-2.042 1.207z"/><path fill="#1FABB8" d="m147.152 110.914 2.09 1.197v-4.972l-2.09-1.198z"/><path fill="#fff" d="m133.367 105.773 2.09 1.207 2.042-1.207-2.042-1.226z"/><path fill="#C4CAE0" d="m135.457 114.44 2.042-1.207v-7.463l-2.042 1.206z"/><path fill="#A4A3CD" d="m133.367 113.259 2.09 1.197v-7.474l-2.09-1.197z"/><path fill="#fff" d="m129.66 107.754 2.09 1.207 2.042-1.207-2.042-1.227z"/><path fill="#C4CAE0" d="m131.75 113.91 2.042-1.207v-4.953l-2.042 1.207z"/><path fill="#A4A3CD" d="m129.66 112.729 2.09 1.197v-4.963l-2.09-1.197z"/><path fill="#fff" d="m125.961 109.732 2.08 1.207 2.042-1.207-2.042-1.236z"/><path fill="#C4CAE0" d="m128.039 115.895 2.042-1.207v-4.954l-2.042 1.207z"/><path fill="#A4A3CD" d="m125.961 114.707 2.08 1.197v-4.963l-2.08-1.207z"/><path fill="#fff" d="m136.977 107.955 2.08 1.207 2.051-1.217-2.051-1.226z"/><path fill="#C4CAE0" d="m139.055 114.111 2.051-1.207v-4.963l-2.051 1.217z"/><path fill="#A4A3CD" d="m136.977 112.93 2.08 1.197v-4.963l-2.08-1.207z"/><path fill="#fff" d="m133.273 109.935 2.09 1.197 2.042-1.207-2.042-1.226z"/><path fill="#C4CAE0" d="m135.363 116.092 2.042-1.207v-4.963l-2.042 1.207z"/><path fill="#A4A3CD" d="m133.273 114.91 2.09 1.198v-4.973l-2.09-1.197z"/><path fill="#fff" d="m129.562 111.906 2.09 1.207 2.042-1.207-2.042-1.226z"/><path fill="#C4CAE0" d="m131.652 118.072 2.042-1.207v-4.963l-2.042 1.207z"/><path fill="#A4A3CD" d="m129.562 116.891 2.09 1.197v-4.973l-2.09-1.197z"/><path fill="#fff" d="m140.707 110.146 2.08 1.207 2.051-1.207-2.051-1.236z"/><path fill="#C4CAE0" d="m142.785 116.309 2.051-1.207v-4.954l-2.051 1.207z"/><path fill="#A4A3CD" d="m140.707 115.115 2.08 1.198v-4.963l-2.08-1.198z"/><path fill="#fff" d="m137 112.127 2.09 1.197 2.041-1.207-2.041-1.226z"/><path fill="#C4CAE0" d="m139.09 118.283 2.041-1.207v-4.963l-2.041 1.207z"/><path fill="#A4A3CD" d="m137 117.102 2.09 1.197v-4.973l-2.09-1.197z"/><path fill="#fff" d="m133.289 114.103 2.09 1.197 2.042-1.207-2.042-1.226z"/><path fill="#C4CAE0" d="m135.379 120.26 2.042-1.207v-4.963l-2.042 1.207z"/><path fill="#A4A3CD" d="m133.289 119.078 2.09 1.197v-4.972l-2.09-1.198z"/><path fill="#313247" d="m46.935 69.102-.287.504 4.767 2.729.287-.503z"/><path fill="#A4A3CD" d="m74.2 39.203 28.823 16.84 28.66-16.347-29.026-16.965z"/><path fill="#807EB0" d="m74.2 48.704 28.823 16.84v-9.501l-28.824-16.84z"/><path fill="#13121A" d="m103.023 65.593 28.795-16.473v-9.55l-28.795 16.473z"/><path fill="#313247" d="m104.734 62.625 15.072-8.612v-5.591l-15.072 8.622z"/><path fill="#5B5C71" d="m119.276 53.482-14.542 8.323v.82l15.072-8.612v-5.591l-.53.3z"/><path fill="#5AD5E4" d="m105.691 58.08.829-.472v-.83l-.829.473z"/><path fill="#EEDE6D" d="m105.691 59.284.829-.463v-.84l-.829.473z"/><path fill="#5AD5E4" d="m105.691 60.507.829-.474v-.83l-.829.473zM106.863 57.425l.819-.473v-.83l-.819.463zM106.863 58.632l.819-.474v-.83l-.819.473z"/><path fill="#F2B024" d="m106.863 59.837.819-.464v-.83l-.819.463zM108.031 56.757l.828-.464v-.84l-.828.473z"/><path fill="#5AD5E4" d="m108.031 57.972.828-.474v-.83l-.828.473zM108.031 59.182l.828-.463v-.84l-.828.473z"/><path fill="#EEDE6D" d="m109.211 56.1.819-.473v-.83l-.819.473z"/><path fill="#5AD5E4" d="m109.211 57.32.819-.474v-.83l-.819.463z"/><path fill="#F2B024" d="m109.211 58.526.819-.473v-.83l-.819.473z"/><path fill="#5AD5E4" d="m110.34 55.452.818-.473v-.83l-.818.463zM110.34 57.878l.818-.473v-.83l-.818.463zM111.504 56.007l.828-.474v-.83l-.828.473z"/><path fill="#F2B024" d="m111.504 57.21.828-.464v-.84l-.828.473zM112.68 54.132l.818-.474v-.83l-.818.473z"/><path fill="#5AD5E4" d="m112.68 56.554.818-.474v-.83l-.818.473zM113.848 54.679l.828-.464v-.84l-.828.473z"/><path fill="#13121A" d="m75.906 48.075 10.998 6.286V48.78l-10.998-6.296z"/><path fill="#313247" d="m77.121 48.757.828.483v-5.591l-.828-.473z"/><path fill="#F2B024" d="m77.121 48.755.828.483v-1.583l-.828-.483z"/><path fill="#EEDE6D" d="m77.121 45.532.828.483v-2.366l-.828-.473z"/><path fill="#313247" d="m78.488 49.552.838.473v-5.59l-.838-.474z"/><path fill="#F2B024" d="m78.488 45.545.838.473v-1.584l-.838-.473z"/><path fill="#EEDE6D" d="m78.488 49.553.838.473v-2.365l-.838-.474z"/><path fill="#313247" d="m79.86 50.325.828.473v-5.59l-.829-.474z"/><path fill="#F2B024" d="m79.86 50.324.828.473v-1.584l-.829-.483z"/><path fill="#EEDE6D" d="m79.86 47.1.828.473v-2.365l-.829-.474z"/><path fill="#313247" d="m81.234 51.11.829.473v-5.58l-.829-.483z"/><path fill="#F2B024" d="m81.234 47.103.829.483v-1.584l-.829-.483z"/><path fill="#EEDE6D" d="m81.234 51.112.829.473v-2.366l-.829-.473z"/><path fill="#313247" d="m82.594 51.88.838.473v-5.59l-.838-.474z"/><path fill="#F2B024" d="m82.594 51.88.838.474V50.77l-.838-.473z"/><path fill="#EEDE6D" d="m82.594 48.655.838.473v-2.366l-.838-.473z"/><path fill="#313247" d="m83.969 52.661.828.473v-5.58l-.828-.484z"/><path fill="#F2B024" d="m83.969 48.654.828.483v-1.584l-.828-.483z"/><path fill="#EEDE6D" d="m83.969 52.663.828.473V50.78l-.828-.483z"/><path fill="#313247" d="m85.324 53.434.838.474v-5.581l-.838-.483z"/><path fill="#F2B024" d="m85.324 53.435.838.473v-1.583l-.838-.473z"/><path fill="#EEDE6D" d="m85.324 50.21.838.472v-2.355l-.838-.483z"/><path fill="#313247" d="m76.426 42.784-.52-.3v5.591l10.998 6.286v-.82l-10.478-5.997z"/><path fill="#A4A3CD" d="m74.2 27.836 28.823 16.84 28.66-16.348-29.026-16.965z"/><path fill="#807EB0" d="m74.2 37.337 28.823 16.84v-9.501l-28.824-16.84z"/><path fill="#13121A" d="m103.023 54.216 28.795-16.463v-9.55l-28.795 16.473z"/><path fill="#313247" d="m104.734 51.258 15.072-8.622v-5.581l-15.072 8.613z"/><path fill="#5B5C71" d="m119.276 42.114-14.542 8.324v.82l15.072-8.622v-5.581l-.53.299z"/><path fill="#5AD5E4" d="m105.691 46.714.829-.474v-.83l-.829.464z"/><path fill="#EEDE6D" d="m105.691 47.917.829-.473v-.83l-.829.472z"/><path fill="#5AD5E4" d="m105.691 49.14.829-.474v-.83l-.829.463zM106.863 46.046l.819-.464v-.84l-.819.473zM106.863 47.26l.819-.473v-.83l-.819.473z"/><path fill="#F2B024" d="m106.863 48.472.819-.464v-.84l-.819.473zM108.031 45.39l.828-.474v-.83l-.828.473z"/><path fill="#5AD5E4" d="m108.031 46.595.828-.464v-.83l-.828.463zM108.031 47.815l.828-.473v-.83l-.828.473z"/><path fill="#EEDE6D" d="m109.211 44.733.819-.473v-.83l-.819.473z"/><path fill="#5AD5E4" d="m109.211 45.936.819-.463v-.84l-.819.473z"/><path fill="#F2B024" d="m109.211 47.159.819-.473v-.83l-.819.463z"/><path fill="#5AD5E4" d="m110.34 44.08.818-.463v-.84l-.818.474zM110.34 46.499l.818-.464v-.84l-.818.473zM111.504 44.63l.828-.464v-.83l-.828.463z"/><path fill="#F2B024" d="m111.504 45.843.828-.474v-.83l-.828.473zM112.68 42.764l.818-.473v-.83l-.818.473z"/><path fill="#5AD5E4" d="m112.68 45.186.818-.473v-.83l-.818.473zM113.848 43.311l.828-.473v-.83l-.828.473z"/><path fill="#13121A" d="m75.906 36.59 10.998 6.287v-5.581L75.906 31z"/><path fill="#313247" d="m77.121 37.286.828.473v-5.59l-.828-.474z"/><path fill="#F2B024" d="m77.121 37.287.828.473v-1.584l-.828-.473z"/><path fill="#EEDE6D" d="m77.121 34.061.828.473V32.17l-.828-.474z"/><path fill="#313247" d="m78.488 38.071.838.473v-5.58l-.838-.483z"/><path fill="#F2B024" d="m78.488 34.064.838.483v-1.584l-.838-.483z"/><path fill="#EEDE6D" d="m78.488 38.073.838.473V36.19l-.838-.483z"/><path fill="#313247" d="m79.86 38.84.828.474v-5.581l-.829-.483z"/><path fill="#F2B024" d="m79.86 38.841.828.474V37.73l-.829-.473z"/><path fill="#EEDE6D" d="m79.86 35.616.828.473v-2.356l-.829-.483z"/><path fill="#313247" d="m81.234 39.622.829.473v-5.581l-.829-.483z"/><path fill="#F2B024" d="m81.234 35.615.829.483v-1.584l-.829-.483z"/><path fill="#EEDE6D" d="m81.234 39.623.829.474V37.74l-.829-.483z"/><path fill="#313247" d="m82.594 40.4.838.472v-5.58l-.838-.483z"/><path fill="#F2B024" d="m82.594 40.4.838.473V39.29l-.838-.474z"/><path fill="#EEDE6D" d="m82.594 37.174.838.473v-2.356l-.838-.482z"/><path fill="#313247" d="m83.969 41.179.828.473V36.07l-.828-.473z"/><path fill="#F2B024" d="m83.969 37.181.828.473v-1.583l-.828-.473z"/><path fill="#EEDE6D" d="m83.969 41.18.828.473v-2.356l-.828-.473z"/><path fill="#313247" d="m85.324 41.948.838.483v-5.59l-.838-.474z"/><path fill="#F2B024" d="m85.324 41.947.838.483v-1.594l-.838-.473z"/><path fill="#EEDE6D" d="m85.324 38.723.838.473V36.84l-.838-.473z"/><path fill="#313247" d="m76.426 31.3-.52-.3v5.59l10.998 6.287v-.821l-10.478-5.987z"/><path fill="#A4A3CD" d="m74.2 16.473 28.823 16.84 28.66-16.348L102.657 0z"/><path fill="#807EB0" d="m74.2 25.974 28.823 16.84v-9.502l-28.824-16.84z"/><path fill="#13121A" d="m103.023 42.852 28.795-16.472v-9.54l-28.795 16.473z"/><path fill="#313247" d="m104.734 39.899 15.072-8.623v-5.58l-15.072 8.612z"/><path fill="#5B5C71" d="m119.276 30.755-14.542 8.314v.83l15.072-8.623v-5.58l-.53.289z"/><path fill="#13121A" d="m75.906 25.278 10.998 6.286v-5.58l-10.998-6.297z"/><path fill="#313247" d="m77.121 25.974.828.473v-5.591l-.828-.473z"/><path fill="#F2B024" d="m77.121 25.974.828.473v-1.583l-.828-.473z"/><path fill="#EEDE6D" d="m77.121 22.749.828.473v-2.366l-.828-.473z"/><path fill="#313247" d="m78.488 26.759.838.473V21.65l-.838-.483z"/><path fill="#F2B024" d="m78.488 22.752.838.482v-1.583l-.838-.483z"/><path fill="#EEDE6D" d="m78.488 26.76.838.473v-2.356l-.838-.482z"/><path fill="#313247" d="m79.86 27.528.828.473v-5.58l-.829-.483z"/><path fill="#F2B024" d="m79.86 27.529.828.473v-1.584l-.829-.473z"/><path fill="#EEDE6D" d="m79.86 24.303.828.473V22.42l-.829-.483z"/><path fill="#313247" d="m81.234 28.31.829.473V23.2l-.829-.482z"/><path fill="#F2B024" d="m81.234 24.302.829.483v-1.584l-.829-.482z"/><path fill="#EEDE6D" d="m81.234 28.311.829.473v-2.356l-.829-.483z"/><path fill="#313247" d="m82.594 29.087.838.473v-5.581l-.838-.483z"/><path fill="#F2B024" d="m82.594 29.088.838.473v-1.584l-.838-.473z"/><path fill="#EEDE6D" d="m82.594 25.862.838.473v-2.356l-.838-.483z"/><path fill="#313247" d="m83.969 29.868.828.483v-5.59l-.828-.484z"/><path fill="#F2B024" d="m83.969 25.87.828.474V24.76l-.828-.483z"/><path fill="#EEDE6D" d="m83.969 29.87.828.482v-2.365l-.828-.483z"/><path fill="#313247" d="m85.324 30.632.838.473v-5.581l-.838-.473z"/><path fill="#F2B024" d="m85.324 30.63.838.474V29.52l-.838-.473z"/><path fill="#EEDE6D" d="m85.324 27.407.838.483v-2.366l-.838-.473z"/><path fill="#313247" d="m76.426 19.987-.52-.3v5.591l10.998 6.286v-.82l-10.478-5.987z"/><path fill="#5AD5E4" d="m105.691 35.335.829-.464v-.84l-.829.473z"/><path fill="#EEDE6D" d="m105.691 36.55.829-.473v-.83l-.829.472z"/><path fill="#5AD5E4" d="m105.691 37.76.829-.463v-.84l-.829.473zM106.863 34.679l.819-.474v-.83l-.819.473zM106.863 35.897l.819-.473v-.83l-.819.463z"/><path fill="#F2B024" d="m106.863 37.104.819-.473v-.83l-.819.473zM108.031 34.022l.828-.473v-.83l-.828.473z"/><path fill="#5AD5E4" d="m108.031 35.23.828-.464v-.84l-.828.473zM108.031 36.448l.828-.473v-.83l-.828.473z"/><path fill="#EEDE6D" d="m109.211 33.366.819-.473v-.83l-.819.463z"/><path fill="#5AD5E4" d="m109.211 34.57.819-.474v-.83l-.819.473z"/><path fill="#F2B024" d="m109.211 35.782.819-.463v-.83l-.819.463z"/><path fill="#5AD5E4" d="m110.34 32.718.818-.474v-.83l-.818.473zM110.34 35.136l.818-.474v-.83l-.818.473zM111.504 33.264l.828-.463v-.84l-.828.473z"/><path fill="#F2B024" d="m111.504 34.48.828-.474v-.83l-.828.473zM112.68 31.401l.818-.473v-.83l-.818.463z"/><path fill="#5AD5E4" d="m112.68 33.813.818-.463v-.83l-.818.463zM113.848 31.948l.828-.473v-.83l-.828.463z"/><path fill="#5B5C71" d="m80.953 14.376 22.063 12.89 21.938-12.513-22.227-12.987z"/><path fill="#312F3A" d="m80.953 16.345 22.063 12.9v-1.98l-22.063-12.89z"/><path fill="#13121A" d="m103.016 29.275 22.044-12.61v-2.009l-22.044 12.61z"/><mask id="a" width="45" height="27" x="80" y="1" maskUnits="userSpaceOnUse" style="mask-type:luminance"><path fill="#fff" d="m103.016 27.263-22.063-12.89 21.774-12.611 22.227 12.987z"/></mask><g fill="#DCDCE6" mask="url(#a)"><path d="M82.599-3.298c.096-.125-.039-.338-.356-.521-.357-.203-.8-.28-.992-.174-.193.106-.058.357.288.56.309.184.694.26.906.213l2.273 1.313.895 1.718-9.351 5.205-6.943-4.007-.877-1.67 6.751-3.757-16.738-9.655-.5-.966-.222.058.482.927 16.593 9.569-6.664 3.707.818 1.574-2.918-1.68-.972-1.641 5.065-2.82-.732-1.863-12.49-7.203-.164-.31-.222.059.145.27L69.145-7.2l.684 1.738-.857.474-.337-.647c.029-.039-.02-.107-.116-.165-.115-.067-.26-.086-.318-.057-.057.038-.019.115.097.183.029.02.058.029.086.039l.395.753-1.483.83-.308-.589h.02c.057-.038.019-.116-.097-.183-.116-.068-.26-.097-.318-.058-.067.038-.02.116.096.183.01 0 .02.01.02.01l.385.743-1.474.821-.298-.57s.01 0 .01-.01c.067-.038.019-.115-.097-.183-.115-.067-.26-.096-.327-.058-.058.039-.02.116.096.184.01 0 .02.01.02.01l.385.733-.665.367.915 1.536-2.571-1.478-.867-1.651 4.497-2.5-.539-1.034-9.496-5.475c.106-.125-.038-.338-.346-.521-.357-.203-.8-.28-.992-.174-.193.106-.058.357.298.56.309.174.684.26.906.213l6.828 3.939-2.023-.686-2.32-1.342c.096-.125-.04-.338-.347-.521-.357-.203-.8-.28-.992-.174-.193.106-.058.357.298.56.308.174.684.26.905.203l2.389 1.371 2.687.908 1.53.878-4.708-1.506-1.86-1.072q-.013-.057-.115-.116c-.115-.067-.26-.096-.317-.057-.058.038-.02.115.096.183a.6.6 0 0 0 .202.067l1.926 1.11 5.249 1.681.462.879-4.497 2.5.818 1.565-1.695-.975-1.02-1.67 3.457-1.922L60.92-8.86c.096-.126-.039-.338-.347-.512-.356-.203-.8-.28-.992-.174s-.058.357.299.56c.308.174.693.26.905.212l2.32 1.343-3.38 1.883.954 1.564-6.539-3.776 1.185.213.346.203c-.106.125.039.338.357.521.356.203.799.28.982.174.192-.106.058-.358-.299-.56-.308-.184-.683-.261-.905-.213l-.453-.26-1.579-.28-2.764-1.594 1.358.31.26.144c-.096.126.039.338.347.522.356.202.8.28.992.173.192-.106.057-.357-.299-.56-.308-.173-.693-.26-.905-.212l-.347-.203-1.81-.415-.828-.483-.944-1.805-.732-.425-.193.048.674.386.944 1.806L76.406 5.228l9.544-5.31-.963-1.854zm-.472-.27q-.014-.058-.116-.116c-.115-.067-.26-.096-.317-.058-.068.039-.02.116.096.184a.6.6 0 0 0 .202.067l.202.116a.96.96 0 0 1-.5-.135c-.212-.126-.29-.27-.174-.338s.385-.02.597.106c.164.097.25.213.222.29zM56.077-13.61l-.135.077.356.203a.93.93 0 0 1-.49-.135c-.213-.126-.29-.27-.184-.338.116-.068.376-.02.597.106.174.097.25.212.222.29zm2.494 2.076q-.014-.058-.116-.116c-.115-.067-.26-.096-.317-.058-.068.039-.02.116.096.184a.6.6 0 0 0 .202.067l.202.116a.96.96 0 0 1-.5-.135c-.212-.126-.29-.27-.174-.338s.386-.02.597.106c.164.097.25.213.222.28zm1.868 2.414q-.015-.058-.115-.116c-.116-.068-.26-.097-.318-.058s-.02.116.096.184a.6.6 0 0 0 .203.067l.202.116a.96.96 0 0 1-.501-.135c-.212-.126-.289-.27-.173-.338s.375-.02.597.106c.163.097.25.213.221.28zm-4.304 2.037q.015.058.115.116c.116.068.26.097.318.058s.02-.116-.096-.183a.6.6 0 0 0-.203-.068l-.202-.116a.96.96 0 0 1 .5.135c.213.126.29.27.174.338s-.385.02-.597-.106c-.164-.096-.25-.212-.221-.29zM53.082-8.84q.015.058.115.116c.116.067.26.096.318.058.058-.039.02-.116-.096-.184a.6.6 0 0 0-.202-.067l-.203-.116a.96.96 0 0 1 .501.135c.212.125.289.27.173.338s-.375.02-.597-.106c-.163-.097-.25-.213-.221-.29zM117.983-1.785l-12.134-7q-.015-.06-.116-.117c-.116-.067-.26-.087-.318-.058-.058.039-.019.116.097.184a.6.6 0 0 0 .202.067l12.192 7.03 2.61.878 1.897 1.092-11.566 6.44-1.58-.28-11.72 6.527.472.898-5.499 3.061-4.825-.86 3.284 6.287h-.019c-.067.038-.02.115.096.183s.26.087.318.058c.068-.039.02-.116-.096-.183-.01 0-.02-.01-.03-.01l-3.206-6.131 4.67.83 5.615-3.119-.472-.898 11.615-6.46 1.579.28L122.817.368l-2.215-1.275zM99.003 19.423l2.851-1.584c.327.155.684.203.847.107.193-.107.058-.358-.298-.56-.357-.203-.8-.28-.992-.174-.164.096-.087.299.173.483l-2.908 1.622 2.86 5.474 10.276 5.977.144-.077-10.17-5.919zm2.677-2.066c.116-.068.386-.02.598.106.211.125.288.27.173.338-.087.048-.27.029-.453-.039l.106-.058c.068.02.135.02.164 0 .038-.02.029-.058.01-.096l.028-.01-.26-.145-.028.01c-.068-.02-.135-.02-.164 0-.039.02-.029.058-.01.096l-.106.058c-.115-.106-.144-.212-.058-.26"/><path d="m133.47.187.058-2.308 1.888-1.052-.145-.213-2.041 1.14-.029 1.168-1.522-.3-2.273 1.266.386 2.114-4.999 2.781.386 2.115-2.119 1.178c-.067-.02-.135-.02-.164 0 0 0 0 .01-.009.01l-2.658-.474 2.07-1.158-.385-2.115 5.046-2.81.511-.28-.386-2.114 7.185-3.998-.145-.212-7.348 4.084.385 2.115-.462.26-.77-.444.558-.309-15.582-8.98q-.014-.057-.115-.115c-.116-.068-.26-.097-.318-.058-.067.038-.019.115.096.183a.6.6 0 0 0 .203.068L126.094.564l-.415.231L108.98-8.83c.097-.126-.038-.338-.356-.522-.356-.203-.799-.28-.992-.174s-.058.358.299.56c.308.184.693.261.905.213L125.535.873l-12.154 6.759-.317.733-.771-.135-.366.203c-.038-.116-.164-.241-.366-.357-.356-.203-.799-.28-.992-.174s-.057.357.299.56c.202.116.424.184.616.212l-.385.213c-.039-.106-.164-.241-.366-.348-.356-.202-.799-.28-.992-.174s-.058.358.299.56c.192.116.423.184.616.213l-.385.212c-.039-.106-.164-.241-.366-.347-.356-.203-.799-.28-.992-.174s-.058.357.298.56c.203.116.424.183.617.212l-.385.223c-.039-.116-.164-.242-.366-.358-.357-.203-.8-.28-.992-.174-.193.107-.058.358.298.56.193.116.424.184.617.213l-.386.212c-.038-.106-.163-.241-.366-.347-.356-.203-.799-.28-.992-.174s-.057.357.299.56c.202.116.424.183.616.212l-.385.222c-.038-.106-.164-.24-.366-.357-.356-.203-.799-.28-.992-.174s-.058.358.299.56c.202.116.424.184.616.213l-3.727 2.076c-.038-.106-.164-.242-.366-.348-.356-.203-.799-.28-.982-.174-.193.107-.058.358.298.56.193.116.424.184.617.213l-.385.212c-.039-.106-.164-.241-.366-.347-.357-.203-.8-.28-.992-.174-.193.106-.058.357.298.56.203.116.424.183.617.212l-.386.213c-.038-.106-.163-.242-.366-.348-.356-.203-.799-.28-.991-.174-.193.107-.058.358.298.56.202.116.424.184.616.213l-.857.483-.057.029-5.557 3.09.443.859-4.748-.85 3.063 5.861-1.445-.26.087.164 1.444.26.193.367.279.048-.193-.367 3.756.676 12.269 7.078.135-.077-12.375-7.136-3.871-.695-2.976-5.697 4.469.802 2.802 5.358 12.375 7.136.135-.077-12.27-7.078-2.792-5.34.915-.511 1.733 3.312h-.02c-.066.038-.018.116.097.183.116.068.26.087.318.058.067-.038.02-.116-.096-.183-.01 0-.02-.01-.03-.01l-1.81-3.476 3.958-2.201c.328.154.684.202.858.106.192-.107.057-.358-.299-.56l-.231-.116-.289-.55 1.502.27 10.584-5.89.318-.744.77.135 2.167-1.207c.068.02.135.02.164 0 .038-.019.038-.057.01-.096l1.492-.83c.068.019.135.019.164 0 .038-.02.029-.058.01-.097l3.572-1.99.337 1.845-8.301 4.616-2.138.028-6.154 3.428.944 1.806-6.664 3.708 2.388 4.567 2.138 1.236 2.61.879 6.096 3.553.144-.077-6.124-3.573-.029-.02-2.61-.878-1.974-1.14-2.321-4.441 6.664-3.708-.944-1.806 6.067-3.379 2.138-.029 1.657-.917 2.427.434a1 1 0 0 0 .298.232c.356.203.799.28.992.174s.058-.357-.299-.56c-.356-.203-.799-.28-.991-.174-.078.039-.097.096-.087.164l-2.148-.386 2.023-1.13 2.426.435c.068.077.164.164.299.241.356.203.799.28.982.174.193-.106.058-.357-.298-.56-.357-.203-.8-.28-.992-.174-.068.039-.096.097-.087.164l-2.138-.386 2.023-1.13 2.937.522c.01 0 .01.01.019.01.116.067.26.096.318.057.038-.02.038-.058.01-.096l.953-.531 1.3.753c-.096.125.039.338.347.521.356.203.799.28.992.174s.058-.357-.299-.56c-.308-.184-.684-.26-.905-.203l-1.3-.753 1.069-.589-.385-2.115.51-.28 2.417.435c.068.077.164.164.299.241.356.203.799.28.992.174s.057-.357-.299-.56-.799-.28-.992-.174c-.067.039-.096.097-.086.164l-2.148-.386 2.022-1.13 2.418.435c.067.077.163.164.298.241.356.203.799.28.992.174s.058-.357-.298-.56c-.357-.203-.8-.28-.992-.174-.068.039-.097.097-.087.164L128 3.267l2.08-1.158-.385-2.115 2.167-1.207 1.319.26-.028 1.111 7.232 4.171-.164-.25zM108.537-9.12q-.014-.058-.115-.116c-.116-.067-.26-.096-.328-.058-.057.039-.019.116.097.184a.6.6 0 0 0 .202.067l.202.116a.96.96 0 0 1-.501-.135c-.212-.126-.289-.27-.173-.338s.385-.02.587.106c.164.097.251.213.222.29zm-7.887 25.008-4.026 2.24-.914.512-.357-.676 5.364-2.983.212.405c-.183-.038-.356-.029-.452.02-.174.086-.087.299.173.482m.674 0c.039-.019.029-.058.01-.096l.029-.01.029-.02-.058-.105c.202.115.279.27.173.337-.087.049-.279.03-.452-.038l.105-.058c.068.01.135.01.164-.01m-.308-.347.058.116q-.104-.03-.164 0c-.038.019-.038.057-.01.096l-.106.058c-.115-.097-.154-.203-.057-.251.058-.048.163-.048.279-.02m10.035-7.155c-.212-.126-.289-.27-.173-.338s.385-.02.597.106.288.27.173.338c-.125.058-.395.01-.597-.106m-.838.463c-.212-.125-.289-.27-.173-.338.115-.067.375-.019.597.107.212.125.289.27.173.337-.115.058-.385.02-.597-.106m-.838.464c-.212-.126-.289-.27-.173-.338s.385-.02.597.106.289.27.173.338c-.115.058-.385.02-.597-.106m-.828.463c-.212-.125-.299-.27-.173-.338.115-.067.375-.019.597.106.212.126.289.27.173.338-.116.058-.385.02-.597-.106m-.838.464c-.212-.126-.289-.27-.173-.338s.385-.02.597.106.289.27.173.338c-.115.067-.385.02-.597-.106m-.828.463c-.212-.125-.289-.28-.173-.338.115-.067.375-.02.597.106.212.126.289.27.173.338s-.385.02-.597-.106m-4.17 2.318c-.212-.126-.289-.27-.173-.338s.385-.02.587.106c.212.125.289.27.173.338-.106.067-.375.02-.587-.106m-.838.463c-.212-.126-.289-.27-.173-.338.115-.067.385-.02.597.106s.289.27.173.338-.375.02-.597-.106m-.828.463c-.212-.125-.289-.27-.173-.337.115-.068.385-.02.597.106.212.125.289.27.173.338-.116.067-.385.019-.597-.107m11.71-4.798-10.516 5.851-1.184-.212 11.469-6.383.511.087zm1.156-.638-.51-.087.279-.647 1.069-.598 1.184.212zm2.282-1.274c-.067-.02-.125-.02-.163 0 0 0 0 .01-.01.01l-1.069-.194 1.474-.82 1.184.212zm5.451-3.032-3.784 2.105c-.068-.02-.135-.02-.164 0 0 0 0 .01-.01.01l-1.069-.194 9.207-5.127.77.444zm-3.351 6.228c.115-.068.385-.02.597.106s.289.27.173.338-.385.02-.587-.106c-.222-.116-.308-.27-.183-.338m2.215-1.236c.115-.068.385-.02.597.106s.289.27.173.338-.385.02-.597-.106c-.058-.039-.106-.068-.144-.106l.221.038c.01 0 .01.01.02.01.115.067.26.096.317.058.058-.039.02-.116-.096-.184s-.26-.096-.318-.058c0 0 0 .01-.009.01l-.222-.039a.2.2 0 0 1 .058-.067m5.547-.502q.015.057.116.116c.115.067.26.087.317.058.058-.039.02-.116-.096-.184a.6.6 0 0 0-.202-.067l-.202-.116c.134-.02.337.038.5.125.212.126.289.27.174.338-.116.068-.376.02-.588-.106-.163-.097-.25-.212-.221-.29zm2.234-3.824c.116-.067.385-.02.597.106s.289.27.174.338c-.116.068-.386.02-.597-.106-.212-.125-.289-.27-.174-.338m2.225-1.236c.115-.067.385-.02.597.106s.289.27.173.338-.375.02-.587-.106c-.222-.125-.299-.27-.183-.338"/><path d="M121.369-.15c-.356-.203-.799-.28-.992-.175-.106.058-.106.174-.019.29l-1.579.02-8.321 4.625-1.358-.242c-.01 0-.01-.01-.019-.01-.116-.067-.26-.086-.318-.057-.039.019-.029.058-.01.096l-1.232.686c-.328-.155-.684-.203-.857-.106-.193.106-.058.357.298.56.135.077.27.135.414.173l.251.483-3.14 1.748-.327-.628c.106 0 .202-.01.269-.048.193-.106.058-.357-.298-.56-.357-.203-.8-.28-.982-.174-.193.106-.058.357.298.56.135.077.299.145.443.184l.405.772-1.474.82-.327-.627c.115.01.211-.01.279-.048.193-.106.058-.357-.299-.56-.356-.203-.799-.28-.992-.174s-.057.357.299.56c.135.077.289.135.424.174l.414.782-.501.28-1.387-.251-.693-1.323c.106 0 .202-.01.26-.048.193-.106.058-.357-.299-.56-.356-.203-.799-.28-.992-.174s-.057.357.299.56c.145.077.299.145.453.183l.683 1.314-1.502-.27-5.056 2.81.453.859-2.35-.425a1.3 1.3 0 0 0-.289-.232c-.356-.203-.8-.28-.992-.174-.193.106-.058.357.299.56.356.203.799.28.992.174.077-.039.096-.106.086-.174l2.35.425.414.792-2.716 1.516-4.747-.85-1.07.599-4.102-2.366-.559.309-.77-.444 1.666-.927-1.28-.744-2.225 1.236-.77-.444 1.665-.927-1.28-.743-1.108.618-.77-.445.558-.308-7.367-4.249-3.159-.57-3.93-2.26.704-.395c.327.154.684.203.847.106.193-.106.058-.357-.288-.56-.357-.203-.8-.28-.992-.174-.164.097-.087.3.173.483l-.703.386-1.801-1.033.144-.077c.328.154.684.203.858.106.192-.106.057-.357-.299-.56s-.8-.28-.992-.174c-.164.097-.087.3.173.483l-.144.077-1.81-1.042-1.426-2.733-3.563-2.057c.106-.125-.029-.338-.347-.521-.356-.203-.8-.28-.992-.174s-.057.357.299.56c.308.174.674.26.895.213l3.458 1.998 1.31 2.51-.713-.414-.963-1.816-7.156-4.123-.27-.511c.126.01.232-.01.3-.049.192-.106.057-.357-.3-.56-.356-.203-.799-.28-.991-.174-.193.107-.058.358.298.56.135.078.28.136.415.174l.192.358-1.685-.966-1.03-1.854-2.909-1.68-.193.048 1.705.985-1.252-.222-1.05-.608-.192.048 1.203.695 1.647.29.79.454.433.772-1.406-.232-2.812-1.622q-.015-.057-.115-.116c-.116-.067-.26-.096-.318-.058-.058.04-.02.116.096.184a.6.6 0 0 0 .202.068l2.928 1.69 1.522.26.51.917 9.197 5.301.838 1.584-8.051-4.645-1.011.56-.309-.589h.02c.058-.038.019-.115-.096-.183-.116-.068-.26-.097-.318-.058-.068.039-.02.116.096.184.01 0 .02.01.029.01l.395.752-.915.512-.79-1.516h.02c.057-.039.019-.116-.097-.183-.115-.068-.26-.087-.318-.058-.067.038-.019.116.097.183.01 0 .019.01.029.01l.876 1.67-.915.512-.8-1.516h.02c.067-.039.02-.116-.096-.183-.116-.068-.26-.087-.318-.058-.068.038-.02.116.096.183.01 0 .02.01.02.01l.885 1.68-.25.135.26.145 3.544-1.97L66.794 4.716l3.168.57 7.011 4.036-.558.309 1.28.743 1.108-.618.77.444-1.666.927 1.281.744 2.225-1.236.77.444-1.666.927 1.281.743.558-.309 3.853 2.221-1.07.599 1.445 2.665-3.024-.54-2.975-1.72-.723-1.38c.125.01.222-.01.299-.049.192-.106.058-.357-.299-.56-.356-.203-.8-.28-.982-.174-.193.107-.058.358.299.56.125.078.27.136.414.174l.635 1.217-2.716-1.564-.25-.483c.125.01.222 0 .299-.048.192-.107.057-.358-.29-.56-.356-.203-.799-.28-.991-.174-.193.106-.058.357.298.56.135.077.27.135.414.174l.164.318-5.797-3.34-.944-1.806-8.668-5.002c.097-.125-.038-.338-.346-.521-.357-.203-.8-.28-.992-.174-.193.106-.058.357.298.56.309.183.694.26.906.203l8.561 4.934.944 1.805L83.54 17.5l3.15.56 1.713 3.167.28.048-3.217-5.919 2.167-1.207 4.748.85 2.831-1.574-.944-1.805 4.94-2.752 3.169.57 5.615-3.129-.28-.54c.125.009.231 0 .299-.049.164-.097.087-.3-.173-.483l1.242-.685c.067.019.135.019.164 0 .009 0 .009-.01.009-.01l1.464.26 8.35-4.644 1.521-.019a1 1 0 0 0 .154.097c.357.202.8.28.983.173.125-.106-.01-.357-.357-.56m-17.797 7.164c-.212-.126-.289-.27-.173-.338s.385-.02.597.106.289.27.173.338-.385.02-.597-.106m-1.656.927c-.212-.126-.289-.27-.174-.338.116-.068.386-.02.598.106s.288.27.173.338c-.125.068-.385.02-.597-.106m-2.042-.56c.048-.039.01-.106-.106-.174s-.26-.097-.318-.058c-.067.039-.019.116.097.184.019.01.048.019.067.028l.058.116a1.2 1.2 0 0 1-.231-.096c-.212-.126-.29-.28-.174-.338.116-.068.386-.02.598.106s.288.27.173.338c-.029.01-.058.02-.096.029zm-8.137 4.74c-.116.068-.386.02-.598-.106-.211-.125-.288-.27-.173-.337.116-.068.376-.02.597.106.058.029.096.067.135.096l-.385-.067.086.164.386.067c0 .03-.02.058-.048.078M63.375 1.434c.116-.068.376-.02.587.106.212.126.29.27.174.338-.087.048-.27.029-.453-.039l.106-.058c.067.02.125.02.164 0 .058-.038.02-.115-.097-.183-.115-.068-.26-.097-.327-.058-.038.02-.029.058 0 .097l-.106.058c-.106-.107-.135-.213-.048-.261M53.282-5.123c-.01-.039-.048-.087-.115-.126-.116-.067-.26-.096-.318-.058-.058.039-.02.116.096.184a.5.5 0 0 0 .193.067l.202.116a.93.93 0 0 1-.491-.135c-.212-.126-.289-.27-.173-.338s.385-.02.597.106c.173.097.25.213.221.29zm-4.16-2.318h.02c.057-.038.019-.116-.097-.183-.116-.068-.26-.097-.318-.058-.067.038-.019.116.097.183.01 0 .019.01.019.01l.067.125a.8.8 0 0 1-.183-.086c-.212-.126-.289-.28-.173-.338.115-.068.385-.02.597.106.212.125.289.27.173.338a.24.24 0 0 1-.125.029zM60.765.554c.116-.067.385-.02.588.106.212.126.289.27.183.338-.087.049-.28.03-.453-.038l.106-.058c.067.02.135.02.164 0 .057-.039.019-.116-.097-.184-.115-.067-.26-.096-.318-.058-.038.02-.038.058-.01.097l-.105.058c-.116-.106-.145-.213-.058-.26M79.66 13.985h.02c.057-.038.018-.116-.097-.183-.116-.068-.26-.097-.318-.058-.067.039-.02.116.097.183.01 0 .019.01.028.01l.068.126a.6.6 0 0 1-.183-.087c-.212-.126-.299-.27-.183-.338s.385-.02.597.106c.212.125.289.27.173.338a.24.24 0 0 1-.125.029zM61.218 3.248c-.01-.038-.058-.077-.116-.116-.115-.067-.26-.087-.318-.058-.057.039-.019.116.097.184a.6.6 0 0 0 .202.067l.202.116a.96.96 0 0 1-.5-.135c-.212-.125-.29-.27-.174-.338.116-.067.385-.02.597.106.164.097.25.213.222.29zm15.832 9.859h.02c.057-.039.019-.116-.097-.184-.115-.067-.26-.096-.318-.058-.067.039-.019.116.097.184.01 0 .019.01.029.01l.067.125a.6.6 0 0 1-.183-.087c-.212-.125-.289-.27-.173-.338s.375-.02.597.106c.212.126.289.28.173.338a.24.24 0 0 1-.125.03zm30.211-7.88c-.068-.019-.135-.019-.164 0-.067.04-.019.116.096.184.01 0 .02.01.029.01l.068.125a.8.8 0 0 1-.183-.087c-.212-.125-.289-.27-.174-.338.087-.048.27-.029.453.039zm.423.348a.24.24 0 0 1-.125.03l-.067-.126h.019c.039-.02.029-.058.01-.097l.106-.058c.115.097.144.203.057.251m13.714-5.31c-.115.057-.385.019-.597-.107-.212-.125-.289-.27-.183-.338.116-.067.385-.019.597.107.222.125.299.28.183.338M107.098 25.3l-4.112-2.366-1.377-2.636 7.781-4.326-.944-1.806 2.966-1.65c.328.154.684.202.848.105.192-.106.058-.357-.299-.56-.356-.203-.799-.28-.992-.174-.163.097-.086.3.174.483l-3.024 1.68.944 1.806-7.782 4.326 1.445 2.77 4.102 2.367.472.898 6.212 3.582.135-.077-6.106-3.525zm4.141-13.268c.116-.067.376-.019.597.107.212.125.289.27.173.338-.096.048-.279.028-.452-.04l.106-.057c.067.02.135.02.164 0 .057-.039.019-.116-.097-.184-.115-.067-.26-.096-.318-.057-.038.019-.038.057-.009.096l-.106.058c-.116-.106-.145-.212-.058-.26"/><path d="m111.191 17.012-1.204.676 2.051 1.187-.414.232-1.03-.589-.694.386 2.052 1.188-.414.232-3.082-1.777-.694.386 2.052 1.188-.414.232-1.031-.59-1.252.696 3.294 1.892 2.138-.029.895.512.723 1.38a.56.56 0 0 0-.299.05c-.193.105-.058.356.299.56.356.202.799.28.992.173.192-.106.057-.357-.299-.56a2 2 0 0 0-.414-.174l-.636-1.216 2.61 1.506q.014.057.116.116c.115.067.26.087.317.058.068-.039.02-.116-.096-.184a.6.6 0 0 0-.202-.067l-4.026-2.318-2.137.03-2.87-1.652.972-.54 1.031.588.693-.386-2.051-1.187.414-.232 3.082 1.776.693-.386-2.051-1.187.414-.232 1.03.589.694-.386-2.051-1.188 1.011-.56 3.053.55 10.217 5.89.135-.077-10.324-5.958zm3.12 7.483h-.019c-.058.038-.019.116.096.183.116.068.26.087.318.058.067-.038.019-.116-.096-.183-.01 0-.02-.01-.02-.01l-.067-.125a.7.7 0 0 1 .183.087c.212.125.289.27.173.338-.115.067-.385.019-.597-.107-.212-.125-.289-.27-.173-.338a.24.24 0 0 1 .125-.029zM117.735 16.959l-5.104-2.936-.135.068 5.162 2.984 2.61.878 7.155 4.123.135-.077-7.213-4.162z"/><path d="m112.502 19.77 1.03.589-3.005 1.67 2.572-.029 4.892 2.82q.015.057.115.116c.116.067.26.096.318.058.058-.039.02-.116-.096-.184a.6.6 0 0 0-.202-.067l-2.61-1.507.558.097a1 1 0 0 0 .299.232c.356.202.799.28.992.173.193-.106.058-.357-.299-.56-.356-.202-.799-.28-.992-.173-.077.038-.096.096-.086.164l-.838-.155-2.08-1.197-1.705.02 2.552-1.42-1.03-.59 2.08-1.158 9.11 5.253.145-.077-9.371-5.407zm3.832 3.39c.116-.069.386-.02.598.105.211.126.288.27.173.338-.116.068-.385.02-.597-.106-.058-.038-.106-.067-.145-.106l.222.039.019.019c.116.067.26.096.318.058.067-.039.019-.116-.096-.184-.116-.067-.26-.087-.318-.058-.01 0-.01.01-.01.01l-.221-.039c.019-.038.029-.058.057-.077M119.75-.655l-.02.02-1.993.029-2.764 1.535-3.053-.55-3.159-1.816-5.595 3.11-1.464-.261L97.6-.954l-3.284-.589L80.37 6.22l.973 1.864 9.139 5.272q.015.057.116.116c.115.067.26.087.317.058.068-.039.02-.116-.096-.184a.6.6 0 0 0-.202-.067l-1.84-1.063-.25-.482a.54.54 0 0 0 .299-.049c.192-.106.057-.357-.299-.56-.356-.202-.8-.28-.992-.173-.192.106-.058.357.289.56a2 2 0 0 0 .414.173l.164.319-2.716-1.564-.25-.473c.115.01.221-.01.298-.049.193-.106.058-.357-.298-.56-.357-.202-.8-.28-.983-.173-.192.106-.057.357.29.56.134.077.269.135.413.173l.164.319-1.695-.975-.905-1.738 2.167-1.207 4.747.85 7.782-4.326 1.464.26 4.969 2.868c-.096.126.038.338.347.522.356.202.799.28.992.173.192-.106.057-.357-.289-.56-.308-.183-.694-.26-.906-.212l-5.075-2.926-1.695-.3-7.781 4.327-4.748-.85-2.282 1.265.857 1.641-1.685-.975-.906-1.738L94.51-1.36l3.052.541 4.113 2.366 1.694.3 5.519-3.071 3.004 1.738 3.284.589 2.793-1.555 1.897-.02c.116.059.251.088.308.05.068-.04.02-.117-.096-.184-.115-.058-.26-.078-.327-.049M88.326 11.357l-.28-.048.116.222a.6.6 0 0 1-.183-.087c-.212-.126-.289-.27-.173-.338s.385-.02.597.106.298.27.173.338a.24.24 0 0 1-.125.03zM85.244 9.58l-.28-.048.116.222c-.067-.02-.125-.048-.183-.077-.212-.126-.288-.27-.173-.338.116-.068.385-.02.597.106s.289.27.174.338a.24.24 0 0 1-.126.03zm18.933-3.514c.116-.068.376-.02.597.106.212.125.289.28.174.338-.116.067-.385.02-.597-.106-.212-.116-.289-.27-.174-.338M127.399 17.5l-9.168-5.281.453-.251 4.006.714a1 1 0 0 0 .299.232c.356.203.799.28.992.174s.057-.357-.299-.56-.799-.28-.992-.174c-.077.039-.096.097-.087.164l-4.121-.734-.655.367 4.95 2.858-2.138-.386a1 1 0 0 0-.299-.232c-.356-.202-.799-.28-.992-.174s-.057.358.289.56c.357.203.8.28.992.174.068-.038.097-.096.087-.164l2.427.435 2.716 1.564-2.138-.386a1.2 1.2 0 0 0-.299-.242c-.356-.202-.799-.28-.992-.174s-.058.358.299.56c.356.203.799.28.992.174.067-.038.096-.096.086-.164l2.427.435.925.53.905 1.739-2.119 1.178-5.903-3.409.395-.222c.067.02.134.02.173 0 .058-.038.019-.116-.096-.183-.116-.068-.26-.097-.328-.058-.038.02-.029.058 0 .096l-.404.223-1.792-1.034.395-.222c.068.02.135.02.164 0 .058-.038.019-.116-.096-.183-.116-.068-.26-.097-.328-.058-.038.02-.029.058 0 .096l-.404.223-1.791-1.034.394-.222c.068.02.135.02.164 0 .058-.038.019-.116-.096-.183-.116-.068-.26-.097-.328-.058-.038.02-.028.058-.009.097l-.405.222-1.3-.744c.087-.106-.009-.28-.231-.444l3.525-1.96 2.927.521c.01 0 .01.01.02.01.115.067.26.096.327.058.058-.039.019-.116-.096-.184-.116-.067-.26-.096-.328-.058-.009 0-.009.01-.009.01l-3.043-.54-3.583 1.988c-.327-.154-.684-.202-.857-.106-.193.106-.058.357.299.56.308.174.683.26.905.203l13.742 7.927.145-.077-1.926-1.11 2.186-1.217zM122.96 12.5c.115-.068.385-.02.597.106s.289.27.173.338-.375.02-.587-.106c-.222-.126-.299-.28-.183-.338m-2.562 2.298c-.115.067-.385.02-.597-.106s-.289-.27-.173-.338.385-.02.597.106c.058.039.106.068.144.106l-.221-.038-.02-.02c-.115-.067-.26-.087-.317-.058-.068.039-.02.116.096.184s.26.096.318.058c0 0 0-.01.009-.01l.222.039c-.019.029-.029.058-.058.077m3.072 1.776c-.115.068-.385.02-.597-.106-.212-.125-.289-.27-.173-.338.115-.067.375-.019.597.107.212.116.289.27.173.337m-9.996-3.012c-.212-.126-.289-.28-.173-.338.086-.048.269-.029.452.039l-.106.058c-.067-.02-.135-.02-.164 0-.067.038-.019.115.097.183a.6.6 0 0 0 .202.068l.202.116c-.144.019-.346-.04-.51-.126m.433-.068c0-.01-.009-.019-.009-.029l.106-.058c.086.078.125.145.105.203z"/><path d="M111.888 1.639c-.356-.203-.799-.28-.992-.174-.173.096-.087.3.173.483l-5.479 3.05-2.032.03-3.718-2.144 2.889.522 2.774-1.545 3.168.57 1.079-.6c.327.155.684.203.857.107.193-.106.058-.357-.298-.56-.357-.203-.8-.28-.992-.174-.174.097-.087.3.173.483l-1.021.57-3.168-.56-2.783 1.544-3.053-.55-1.695-.975.558.106a1 1 0 0 0 .299.232c.356.203.8.28.992.174s.058-.358-.299-.56c-.356-.203-.799-.28-.992-.174-.067.038-.096.096-.086.164l-.838-.155-1.021-.589-1.704-.309-2.283 1.265.472.898-4.94 2.752-3.16-.56-3.39 1.883.434.83h-.019c-.067.04-.02.116.096.184s.26.087.318.058c.068-.039.02-.116-.096-.184-.01-.01-.02-.01-.03-.01l-.404-.772 3.275-1.825 3.168.57 5.056-2.82-.472-.897L94.871.77l1.464.26 7.213 4.162 2.244-.029 5.509-3.06c.327.154.683.202.847.105.231-.116.096-.367-.26-.57m-2.311-.319c.115-.068.385-.02.597.106s.289.27.173.338-.375.02-.597-.106c-.212-.116-.289-.27-.173-.338m-10.97.29c.116-.068.376-.02.588.106.212.125.289.27.174.338-.116.067-.386.02-.598-.106a.6.6 0 0 1-.144-.107l.221.039c.01 0 .01.01.02.01.115.067.26.087.318.058.057-.039.019-.116-.097-.184-.115-.067-.26-.096-.318-.058-.01 0-.01.01-.01.01l-.22-.039a.2.2 0 0 1 .067-.067m13.319.444c-.115.067-.385.02-.587-.106-.212-.126-.289-.27-.183-.338.116-.068.385-.02.597.106.212.116.289.27.173.338M139.996 9.118l-.087 1.207-9.457 5.263.944 1.805-2.581 1.439-.857-1.642-1.031-.589-.404-.772h.019c.067-.039.019-.116-.096-.184-.116-.067-.26-.096-.318-.057-.068.038-.019.115.096.183.01 0 .019.01.029.01l.318.608-2.716-1.564-.404-.773h.019c.058-.038.019-.116-.096-.183-.116-.068-.26-.097-.318-.058-.068.039-.019.116.096.183.01 0 .019.01.019.01l.318.608-3.486-2.008 1.069.193.01.01c.115.067.26.096.317.058.068-.039.02-.116-.096-.184-.115-.067-.26-.087-.318-.058-.009 0-.009.01-.009.01l-1.734-.31 8.465 4.887 1.377 2.636-1.704.946 1.156.666.144-.077-.896-.521 1.628-.908-.472-.898 2.774-1.545-.944-1.806 9.428-5.252.087-1.207 2.475-1.371-.145-.213z"/><path d="M98.43 3.307c-.356-.202-.799-.28-.991-.173-.164.096-.087.299.173.482l-4.45 2.482 3.16 1.825.433.84-3.525 1.96c-.327-.155-.684-.203-.857-.106-.193.106-.058.357.299.56.356.203.799.28.982.174.164-.097.087-.3-.173-.483l3.572-1.99-.51-.965-3.005-1.728 4.315-2.405c.327.155.684.203.857.107.202-.126.067-.377-.28-.58m-5.027 7.89c-.115.067-.385.018-.597-.107-.212-.126-.288-.27-.173-.338.087-.048.27-.029.453.039l-.106.057c-.068-.019-.135-.019-.164 0-.067.04-.02.116.096.184s.26.097.318.058c.039-.02.029-.058.01-.097l.106-.058c.115.107.154.213.057.261m5.066-7.474c-.115.067-.385.019-.597-.107-.212-.125-.289-.27-.173-.338.115-.067.375-.019.597.107.202.125.289.28.173.338M103.827 12.174c-.057.038-.019.115.097.183.115.068.26.097.317.058.058-.039.02-.116-.096-.183-.106-.068-.25-.097-.318-.058M104.382 11.861c-.067.039-.019.116.097.183.115.068.26.087.317.058.068-.038.02-.115-.096-.183-.115-.068-.25-.097-.318-.058M104.941 11.553c-.058.038-.02.115.096.183.115.067.26.096.327.058.058-.039.02-.116-.096-.184-.125-.067-.27-.096-.327-.057M105.496 11.244c-.068.039-.02.116.096.183.116.068.26.087.318.058.067-.038.019-.116-.097-.183-.115-.068-.26-.097-.317-.058M106.027 10.947c-.068.039-.019.116.096.183.116.068.26.087.318.058.058-.038.019-.116-.096-.183-.116-.068-.26-.097-.318-.058M117.415 18.347c-.308-.183-.694-.26-.905-.212l-1.301-.744.704-.386c.327.155.683.203.857.106.192-.106.057-.357-.299-.56-.356-.202-.799-.28-.992-.173-.173.096-.087.299.173.482l-.703.387-1.8-1.034.144-.077c.327.155.684.203.857.106.193-.106.058-.357-.298-.56-.357-.202-.8-.28-.992-.173-.164.096-.087.299.173.482l-.144.078-1.031-.59-7.878 4.384.973 1.874 4.112 2.365.944 1.806 5.239 2.964.135-.077-2.976-1.69 2.042-1.14c.067.02.135.02.163 0 .058-.038.02-.115-.096-.183-.115-.067-.26-.096-.318-.058-.038.02-.029.058-.009.097l-2.052 1.14-1.887-1.072-.944-1.806-.953-.55.703-.387c.327.155.683.203.857.107.192-.107.058-.358-.299-.56-.356-.203-.799-.28-.992-.174-.163.096-.086.299.174.482l-.703.387-2.899-1.67-.905-1.739 7.675-4.277 4.382 2.53c-.096.125.038.337.347.52.356.204.799.28.992.175.211-.126.077-.377-.27-.58m-1.676-1.834c.116-.068.385-.02.597.106.212.125.289.27.174.338-.087.048-.27.029-.453-.039l.106-.058c.067.02.125.02.164 0 .067-.038.019-.116-.097-.183-.115-.068-.26-.097-.327-.058-.039.02-.029.058-.01.096l-.106.058c-.106-.106-.144-.212-.048-.26m-6.837 6.131c.115-.067.385-.02.597.106s.289.27.173.338c-.087.049-.279.03-.453-.038l.193-.107-.26-.144-.193.106c-.115-.106-.154-.213-.057-.26m4.227-7.01c.116-.068.386-.02.597.106.212.126.289.27.174.338-.087.049-.28.03-.453-.038l.193-.107-.251-.144-.192.106c-.125-.106-.164-.213-.068-.26m4.324 3.128c-.115.068-.385.02-.597-.106-.163-.096-.25-.212-.221-.29l.202.117q.015.058.116.115c.115.068.26.097.317.058.058-.038.02-.116-.096-.183a.6.6 0 0 0-.202-.068l-.202-.116c.134-.01.337.039.5.126.212.125.289.28.183.348M99.332 22.81h.019c.058-.04.02-.116-.097-.184-.115-.068-.26-.097-.317-.058-.058.039-.02.116.096.183.01.01.02.01.029.01l.905 1.738 11.354 6.547.135-.077-11.238-6.48zM103.664 28.352l-3.978-2.298q-.015-.058-.115-.116c-.116-.067-.26-.087-.318-.058-.058.039-.02.116.096.184a.6.6 0 0 0 .203.067l3.919 2.26 1.503 1.496 4.141 2.385.144-.077-4.074-2.356z"/><path d="M113.625-3.988c-.356-.203-.799-.28-.992-.174q-.1.06-.086.164l-.954-.174-9.409 5.234-4.035-2.327-.982-.174-.645-1.236 6.683-3.718c.068.02.135.02.164 0 .067-.038.019-.115-.096-.183-.116-.068-.26-.097-.318-.058-.039.02-.039.058-.01.097l-6.741 3.746.684 1.304-1.03-.184-.646-1.236 8.773-4.886c.068.02.135.02.164 0 .058-.038.019-.115-.096-.183-.116-.068-.26-.097-.318-.058-.039.02-.039.058-.01.097l-8.83 4.914.683 1.304-2.292-.406L89.935-.26l-2.678.338-10.65 5.919 7.183 4.142-.414.232L60.013-3.1l.559-.309-9.419-5.436-3.168-.57-3.68-2.124-.192.048 3.833 2.211 3.159.57 9.062 5.224-.558.309 23.873 13.769.694-.386-7.194-4.143L87.46.231l2.677-.328 3.332-1.844 4.632.83 4.18 2.414 9.486-5.282.838.155a1 1 0 0 0 .298.232c.356.202.799.28.992.173.212-.115.077-.366-.27-.57m.039.415c-.116.058-.385.02-.597-.106-.058-.039-.106-.068-.145-.107l.222.04c.01 0 .009.009.019.009.116.067.26.096.318.058.067-.039.019-.116-.096-.184-.116-.067-.26-.096-.328-.058 0 0 0 .01-.009.01l-.222-.039c0-.029.019-.058.048-.067.116-.068.385-.02.597.106.222.125.308.27.193.338"/></g><path fill="#313247" d="m141.666 79.149-17.633-9.8v-9.772l9.37-5.852.135-.087v-9.482h-.578v9.164l-9.36 5.85-.135.088v10.428l18.066 10.052.135.077 15.544-8.671-.28-.502z"/><path fill="#29C1CF" d="M46.074 93.684c.01.763 1.137 1.613 2.745 1.613s2.725-.85 2.744-1.613V79.316h-5.489z"/><path fill="#5AD5E4" d="M48.819 77.625c-1.618 0-2.745.86-2.745 1.622s1.127 1.622 2.745 1.622 2.744-.859 2.744-1.622-1.136-1.622-2.744-1.622"/><path fill="#fff" d="M55.926 96.29c-2.061 0-3.496 1.11-3.496 2.104s1.435 2.115 3.496 2.115 3.495-1.11 3.495-2.115c.01-.995-1.435-2.105-3.495-2.105m0 4.026c-1.946 0-3.304-1.014-3.304-1.922s1.358-1.922 3.303-1.922c1.946 0 3.304 1.014 3.304 1.922s-1.349 1.922-3.303 1.922"/><path fill="#29C1CF" d="M53.191 98.133c.01.763 1.137 1.612 2.745 1.612s2.725-.85 2.745-1.612V86.816h-5.49z"/><path fill="#5AD5E4" d="M55.924 85.113c-1.618 0-2.744.86-2.744 1.623 0 .772 1.126 1.622 2.744 1.622s2.745-.86 2.745-1.623c0-.762-1.127-1.622-2.745-1.622"/><path fill="#fff" d="M142.265 92.422c-2.061 0-3.495 1.11-3.495 2.105s1.434 2.114 3.495 2.114 3.496-1.11 3.496-2.114c0-.985-1.435-2.105-3.496-2.105m0 4.026c-1.945 0-3.303-1.013-3.303-1.921s1.358-1.922 3.303-1.922c1.946 0 3.304 1.014 3.304 1.922 0 .917-1.358 1.921-3.304 1.921"/><path fill="#29C1CF" d="M139.523 94.281c.01.763 1.137 1.613 2.745 1.613s2.726-.85 2.745-1.613V82.965h-5.49z"/><path fill="#5AD5E4" d="M142.268 81.262c-1.618 0-2.745.86-2.745 1.622s1.127 1.622 2.745 1.622 2.745-.86 2.745-1.622-1.127-1.622-2.745-1.622"/><path fill="#fff" d="M129.062 99.027c-2.061 0-3.496 1.111-3.496 2.105 0 .995 1.435 2.115 3.496 2.115s3.496-1.111 3.496-2.115c0-.994-1.435-2.105-3.496-2.105m0 4.027c-1.945 0-3.303-1.014-3.303-1.922s1.358-1.921 3.303-1.921c1.946 0 3.303 1.014 3.303 1.921 0 .908-1.357 1.922-3.303 1.922"/><path fill="#29C1CF" d="M126.32 100.879c.01.763 1.137 1.613 2.745 1.613s2.725-.85 2.745-1.613V89.562h-5.49z"/><path fill="#5AD5E4" d="M129.065 87.86c-1.618 0-2.745.859-2.745 1.621 0 .773 1.127 1.623 2.745 1.623s2.745-.86 2.745-1.623c0-.772-1.127-1.622-2.745-1.622"/><path fill="#fff" d="M115.863 105.625c-2.061 0-3.496 1.11-3.496 2.105s1.435 2.105 3.496 2.105 3.496-1.111 3.496-2.105c0-.995-1.425-2.105-3.496-2.105m0 4.026c-1.945 0-3.303-1.013-3.303-1.921s1.358-1.922 3.303-1.922 3.303 1.014 3.303 1.922c.01.908-1.348 1.921-3.303 1.921"/><path fill="#29C1CF" d="M113.129 107.469c.01.763 1.136 1.612 2.745 1.612 1.608 0 2.725-.849 2.744-1.612V96.152h-5.489z"/><path fill="#5AD5E4" d="M115.862 94.45c-1.618 0-2.745.859-2.745 1.621 0 .773 1.127 1.623 2.745 1.623s2.744-.86 2.744-1.623c0-.762-1.126-1.622-2.744-1.622"/></svg>