<svg xmlns="http://www.w3.org/2000/svg" width="46" height="46" fill="none"><g fill="#1DBBBA" clip-path="url(#a)"><path d="m35.493 21.46 10.732-10.733L35.494 0 24.762 10.727l-1.61-1.61a1.554 1.554 0 0 0-2.146 0L2.226 27.899a6.83 6.83 0 0 0 0 9.659l6.438 6.438a6.83 6.83 0 0 0 9.659 0l18.78-18.78a1.518 1.518 0 0 0 0-2.146l-1.61-1.61Zm-1.073-1.074-.536-.537.536-.536-1.073-1.073-.536.536-3.187-3.187 1.051-1.095 2.136 2.135 3.219-3.22-2.146-2.146 1.073-1.073 2.146 2.146 3.22-3.22-2.146-2.144 1.074-1.074 4.828 4.829-9.659 9.66Zm1.074-18.244 2.683 2.682-2.146 2.148 2.146 2.146-1.074 1.073-2.146-2.147-3.22 3.22 2.147 2.145-1.073 1.074-2.158-2.158-2.102 2.192-1.083-1.085.535-.582-1.116-1.028-.493.536-.56-.559 9.66-9.657ZM17.25 42.922a5.317 5.317 0 0 1-7.513 0L3.3 36.484a5.318 5.318 0 0 1 0-7.513l16.097-16.097 6.44 6.439-6.977 6.976 1.073 1.073 6.976-6.977 6.439 6.44L17.25 42.923Zm17.17-17.17L20.469 11.801l1.61-1.61L36.03 24.14l-1.61 1.611Z"/><path d="M12.421 27.73a6.07 6.07 0 1 0 4.293 1.777 6.032 6.032 0 0 0-4.293-1.777Zm3.219 9.29a4.553 4.553 0 1 1-6.44-6.439 4.553 4.553 0 0 1 6.44 6.44ZM14.57 24.14l4.83-4.829 1.073 1.074-4.83 4.83-1.073-1.075ZM21.008 30.58l4.83-4.828 1.072 1.073-4.829 4.829-1.073-1.073Z"/></g><defs><clipPath id="a"><path fill="#fff" d="M0 0h46v46H0z"/></clipPath></defs></svg>