<svg xmlns="http://www.w3.org/2000/svg" width="46" height="46" fill="none"><g fill="#1DBBBA" clip-path="url(#a)"><path d="M42.31 3.347h-5.879a.674.674 0 1 0 0 1.347h5.88a.674.674 0 1 0 0-1.347ZM33.09 4.694h.717a.674.674 0 1 0 0-1.347h-.717a.674.674 0 1 0 0 1.347ZM33.09 7.86h9.219a.674.674 0 0 0 0-1.347H33.09a.674.674 0 1 0 0 1.347ZM35.528 39.9c0-2.693-.898-5.333-2.535-7.467l.125-2.3a2.74 2.74 0 0 0-2.739-2.891h-7.376c-.339-.24-.545-.63-.545-1.05v-1.881c1.144-.74 1.947-1.583 2.537-2.587h1.303a2.739 2.739 0 0 0 2.736-2.736v-5.032c0-.849-.49-1.6-1.225-1.954V8.47a2.92 2.92 0 0 0-2.916-2.916h-.075a.083.083 0 0 1-.084-.083 2.92 2.92 0 0 0-2.916-2.916h-7.136a6.432 6.432 0 0 0-6.424 6.424v3.023a2.17 2.17 0 0 0-1.225 1.954v2.559c0 1.197.974 2.172 2.171 2.172h.87c.225 1.904 1.119 3.643 2.518 4.852.328.284.668.537 1.017.764v1.889c0 .42-.207.809-.548 1.05H5.688a2.74 2.74 0 0 0-2.738 2.89l.125 2.301A12.307 12.307 0 0 0 .539 39.9v2.538c-.335.376-.539.87-.539 1.412 0 1.17.952 2.122 2.123 2.122h31.821c1.171 0 2.123-.952 2.123-2.122 0-.542-.204-1.036-.539-1.412V39.9Zm-1.348 0v1.84a2.137 2.137 0 0 0-.236-.014h-1.456l.38-7.007a10.95 10.95 0 0 1 1.312 5.18Zm-6.562-26.273a.82.82 0 0 1 .069.329v2.56c0 .454-.37.823-.824.823h-.801V14.8l.415-.145a1.985 1.985 0 0 0 1.14-1.027Zm-4.5 7.807h-1.69a.495.495 0 0 1 0-.989h1.69a.495.495 0 0 1 0 .989Zm3.18-1.058h-.68c.19-.54.32-1.107.39-1.69h.855c.291 0 .57-.057.824-.162v.464a1.39 1.39 0 0 1-1.388 1.388ZM9.607 8.98c0-2.8 2.277-5.076 5.076-5.076h7.136a1.57 1.57 0 0 1 1.569 1.568c0 .789.642 1.43 1.43 1.43h.076a1.57 1.57 0 0 1 1.569 1.57v4.308a.639.639 0 0 1-.428.603l-1.416.493a.087.087 0 0 1-.116-.083l.002-2.678c.008-1.954-1.822-3.658-4.385-2.835-1.29.415-2.885.413-4.17 0-2.538-.815-4.394.86-4.386 2.833l.003 2.68c0 .062-.06.103-.116.083l-1.416-.493a.639.639 0 0 1-.428-.603v-3.8ZM8.38 16.515v-2.56a.82.82 0 0 1 .07-.328c.223.471.627.848 1.14 1.027l.416.145v2.54h-.802a.825.825 0 0 1-.824-.824Zm2.986 1.393c-.022-.885-.009-1.826-.012-2.687a1.435 1.435 0 0 0 1.56-1.431l-.003-2.681c-.005-1.094.976-2.076 2.625-1.547 1.563.503 3.438.5 4.995 0 1.57-.504 2.63.384 2.626 1.549l-.003 2.68a1.435 1.435 0 0 0 1.56 1.43v2.742a6.648 6.648 0 0 1-.278 1.691 1.836 1.836 0 0 0-1.317-.556h-1.691a1.844 1.844 0 0 0-1.842 1.842c0 1.015.826 1.842 1.842 1.842h.856c-1.245.971-2.66 1.478-4.215 1.503-3.402-.027-6.606-2.54-6.703-6.377Zm3.59 8.284v-1.179a8.213 8.213 0 0 0 3.111.62h.015a8.223 8.223 0 0 0 3.029-.614v1.173c0 .368.077.724.218 1.05h-6.592c.142-.326.22-.682.22-1.05ZM3.2 34.72l.106 1.96a.674.674 0 1 0 1.346-.073l-.356-6.546a1.394 1.394 0 0 1 1.393-1.47h24.691c.798 0 1.436.668 1.393 1.47l-.633 11.666H20.572a4.14 4.14 0 0 1 1.01-2.087l.019-.021c2.04-2.282 1.43-5.85-1.207-7.349a1.028 1.028 0 0 0-1.536.892v3.058c0 .14-.114.254-.254.254h-1.14a.254.254 0 0 1-.255-.254V33.16c0-.795-.858-1.277-1.536-.892-2.643 1.503-3.242 5.072-1.205 7.35l.018.02c.533.593.88 1.317 1.009 2.087H4.929l-.109-1.992a.674.674 0 1 0-1.345.073l.104 1.919H2.123c-.08 0-.159.005-.236.013V39.9c0-1.811.459-3.596 1.312-5.18Zm13.657 7.007a5.479 5.479 0 0 0-1.369-2.988l-.016-.019a3.437 3.437 0 0 1 .39-4.95v2.45c0 .883.72 1.601 1.602 1.601h1.141c.883 0 1.602-.718 1.602-1.601v-2.45a3.437 3.437 0 0 1 .389 4.952l-.015.017a5.479 5.479 0 0 0-1.37 2.988h-2.354Zm17.088 2.898H2.123a.776.776 0 0 1 0-1.55h31.821a.776.776 0 0 1 0 1.55Z"/><path d="M45.327 4.64A.674.674 0 0 0 46 3.966V2.662A2.636 2.636 0 0 0 43.367.028H32.034a2.636 2.636 0 0 0-2.633 2.634V8.33a2.636 2.636 0 0 0 2.633 2.633c.26 0 .47.211.47.47v3.506c0 .506.329.937.816 1.072.491.136.993-.068 1.251-.5l2.59-4.32a.473.473 0 0 1 .404-.228h5.802a2.636 2.636 0 0 0 2.634-2.633V7.116a.674.674 0 0 0-1.348 0V8.33c0 .709-.577 1.286-1.286 1.286h-5.802c-.635 0-1.233.338-1.56.883l-2.153 3.59v-2.655a1.82 1.82 0 0 0-1.818-1.818 1.287 1.287 0 0 1-1.286-1.286V2.662c0-.71.577-1.286 1.286-1.286h11.333c.71 0 1.286.577 1.286 1.286v1.304c0 .372.302.674.674.674Z"/></g><defs><clipPath id="a"><path fill="#fff" d="M0 0h46v46H0z"/></clipPath></defs></svg>