<svg xmlns="http://www.w3.org/2000/svg" width="47" height="46" fill="none"><g fill="#1DBBBA" clip-path="url(#a)"><path d="M44.285 36.34h-1.282V22.67a.674.674 0 1 0-1.348 0v13.67H39.41V20.318a8.12 8.12 0 0 0 .835-.36.178.178 0 0 1 .206.035 1.528 1.528 0 0 0 2.16-.007l1.367-1.377a1.53 1.53 0 0 0-.008-2.16.178.178 0 0 1-.035-.205c.16-.326.3-.666.414-1.01a.18.18 0 0 1 .17-.122 1.53 1.53 0 0 0 1.522-1.534l-.006-1.94a1.527 1.527 0 0 0-1.528-1.522h-.007a.18.18 0 0 1-.17-.12 8.123 8.123 0 0 0-.42-1.008.178.178 0 0 1 .034-.205 1.53 1.53 0 0 0-.008-2.16L42.56 5.255a1.53 1.53 0 0 0-2.161.007.178.178 0 0 1-.205.036c-.325-.16-.665-.3-1.01-.414a.18.18 0 0 1-.122-.17 1.527 1.527 0 0 0-1.528-1.523h-.005l-1.94.007a1.527 1.527 0 0 0-1.522 1.534.179.179 0 0 1-.121.17 8.15 8.15 0 0 0-1.007.421.178.178 0 0 1-.205-.034 1.528 1.528 0 0 0-2.161.008l-1.367 1.376c-.595.6-.592 1.566.008 2.16.054.055.069.137.035.205-.16.326-.299.666-.414 1.01a.18.18 0 0 1-.17.122 1.527 1.527 0 0 0-1.522 1.534l.006 1.94a1.527 1.527 0 0 0 1.529 1.522h.006a.18.18 0 0 1 .17.12c.106.313.234.621.378.92H8.647a1.91 1.91 0 0 0-1.908 1.907V36.34H4.492V15.146c0-.654.532-1.186 1.186-1.186h18.958a.674.674 0 1 0 0-1.348H5.678a2.536 2.536 0 0 0-2.533 2.534V36.34H1.863c-.986 0-1.79.803-1.79 1.79 0 2.58 2.1 4.68 4.681 4.68h36.64c2.58 0 4.68-2.1 4.68-4.68 0-.987-.803-1.79-1.79-1.79ZM28.683 13.82h-.006a.18.18 0 0 1-.18-.18l-.008-1.94a.18.18 0 0 1 .18-.18 1.525 1.525 0 0 0 1.444-1.044 6.81 6.81 0 0 1 .345-.843 1.525 1.525 0 0 0-.296-1.755.18.18 0 0 1 0-.255l1.366-1.376a.179.179 0 0 1 .255 0 1.525 1.525 0 0 0 1.757.283c.27-.135.553-.253.84-.351a1.526 1.526 0 0 0 1.033-1.451c0-.1.08-.181.18-.181l1.94-.007a.18.18 0 0 1 .18.18 1.526 1.526 0 0 0 1.044 1.443c.288.096.57.212.843.346.587.288 1.292.169 1.754-.296a.18.18 0 0 1 .255-.001l1.377 1.366a.18.18 0 0 1 0 .255 1.525 1.525 0 0 0-.283 1.757c.135.271.253.554.351.84a1.526 1.526 0 0 0 1.446 1.034h.006c.1 0 .18.08.18.18l.007 1.94c0 .098-.08.18-.18.18a1.526 1.526 0 0 0-1.444 1.044c-.095.287-.211.57-.345.842a1.525 1.525 0 0 0 .296 1.755.18.18 0 0 1 .001.255l-1.367 1.376a.18.18 0 0 1-.255.001 1.525 1.525 0 0 0-1.757-.284c-.767.384-.96.319-1.33.629a1.526 1.526 0 0 0-.544 1.174c.001.1-.08.18-.179.18l-1.94.007a.18.18 0 0 1-.18-.18 1.526 1.526 0 0 0-1.044-1.443 6.826 6.826 0 0 1-.842-.345 1.525 1.525 0 0 0-1.755.296.18.18 0 0 1-.255 0l-1.376-1.366a.18.18 0 0 1-.001-.255c.487-.491.559-1.206.284-1.757a6.801 6.801 0 0 1-.352-.84 1.526 1.526 0 0 0-1.445-1.034ZM8.085 18.113c0-.309.252-.56.56-.56h20.152c-.006.4.143.803.449 1.107l1.376 1.367a1.53 1.53 0 0 0 2.161-.008.178.178 0 0 1 .205-.036c.326.16.666.3 1.01.414a.18.18 0 0 1 .122.17 1.53 1.53 0 0 0 1.528 1.523h.005l1.94-.007c.161 0 .318-.027.468-.075V36.34H26.509v-.273c0-1.64.61-3.222 1.726-4.46l.023-.026a6.939 6.939 0 0 0 1.767-4.63 6.97 6.97 0 0 0-3.522-6.048 1.213 1.213 0 0 0-1.814 1.053v4.67c0 .41-.334.743-.744.743h-1.742a.744.744 0 0 1-.744-.743v-4.67c0-.93-1.004-1.514-1.814-1.053a6.97 6.97 0 0 0-3.522 6.047c0 1.711.627 3.356 1.773 4.637l.023.026a6.652 6.652 0 0 1 1.72 4.454v.273H8.086V18.114Zm14.117 10.603h1.742a2.094 2.094 0 0 0 2.091-2.09v-4.434a5.62 5.62 0 0 1 2.641 4.757c0 1.38-.506 2.705-1.425 3.734l-.025.027a7.998 7.998 0 0 0-2.066 5.356v.273h-4.175v-.273a7.998 7.998 0 0 0-2.066-5.356l-.025-.028a5.593 5.593 0 0 1-1.425-3.733 5.62 5.62 0 0 1 2.641-4.757v4.433c0 1.153.939 2.091 2.092 2.091Zm6.874 8.97a1.889 1.889 0 0 1-1.76 1.214H18.83a1.889 1.889 0 0 1-1.76-1.213h12.006Zm12.316 3.775H4.754a3.337 3.337 0 0 1-3.332-3.333c0-.243.198-.441.441-.441h13.805a3.24 3.24 0 0 0 3.164 2.56h8.484a3.24 3.24 0 0 0 3.164-2.56h13.805c.243 0 .441.198.441.441a3.337 3.337 0 0 1-3.333 3.333Z"/><path d="M39.85 15.877a4.598 4.598 0 0 0-.023-6.495 4.598 4.598 0 0 0-6.495.023 4.598 4.598 0 0 0 .023 6.495 4.598 4.598 0 0 0 6.495-.023Zm-5.561-5.522a3.249 3.249 0 0 1 4.589-.016 3.249 3.249 0 0 1 .016 4.589 3.249 3.249 0 0 1-4.59.016 3.249 3.249 0 0 1-.015-4.59Z"/></g><defs><clipPath id="a"><path fill="#fff" d="M.074 0h46v46h-46z"/></clipPath></defs></svg>