<svg width="497" height="497" viewBox="0 0 497 497" fill="none" xmlns="http://www.w3.org/2000/svg">
<path d="M179.506 166.88L240.425 202.077L257.112 128.162L257.177 128.189L325.849 154.907L372.726 74.9075L372.721 75.1268L371.583 172.616L441.458 107.401L441.478 107.515L448.543 169.239L448.476 169.239L371.548 172.794L321.197 232.313L273.44 292.53L273.416 292.539L247.396 296.035L256.443 328.523L256.425 328.544L206.159 393.177L206.162 393.216L206.111 393.224L122.726 429.474L77.764 473.229L77.736 473.227L68.8488 473.358L67.9144 490.153L67.8025 490.144L68.7416 473.361L48.344 473.643L72.59 403.717L3.26987 397.615L3.27798 397.503L72.5934 403.593L52.642 312.214L52.6884 312.194L146.476 271.657L146.473 271.617L146.49 271.624L179.506 166.88ZM240.389 202.187L179.562 167.047L146.583 271.654L224.527 298.681L242.185 277.792L234.116 248.827L234.111 248.815L240.389 202.187ZM325.775 154.992L257.181 128.296L240.532 202.074L306.923 187.172L325.775 154.992ZM371.462 172.652L372.6 75.3262L325.947 154.948L371.462 172.652ZM146.456 271.774L52.7615 312.273L72.7073 403.573L144.526 377.876L146.456 271.774ZM306.845 187.313L240.506 202.207L234.23 248.807L242.277 277.686L280.129 232.908L306.845 187.313ZM371.312 172.714L325.874 155.033L307.06 187.143L371.312 172.714ZM224.453 298.765L146.575 271.766L144.644 377.964L144.609 377.978L73.0847 403.567L206.035 393.106L194.611 334.075L194.63 334.054L224.453 298.765ZM371.355 172.819L306.989 187.267L280.209 232.97L242.318 277.819L247.36 295.914L273.38 292.418L321.112 232.239L371.355 172.819ZM448.411 169.117L441.362 107.631L371.663 172.678L448.411 169.117ZM247.241 295.922L242.221 277.913L224.643 298.7L225.153 298.884L247.241 295.922ZM247.273 296.031L225.15 299.008L224.568 298.813L194.733 334.106L206.137 393.023L256.317 328.48L247.273 296.031ZM205.766 393.244L72.7204 403.704L68.8637 473.229L77.7161 473.113L122.672 429.374L122.683 429.37L205.766 393.244ZM68.7402 473.226L72.5773 404.048L48.5057 473.509L68.7402 473.226Z" fill="#E8E8E8"/>
<path d="M257.093 128.199L257.14 128.18L372.672 75.0548L372.688 75.0617L412.131 91.6277L412.099 91.6817L371.582 172.728L386.721 208.18L386.658 208.193L281.33 234.916L277.931 235.623L277.924 235.572L257.093 128.199ZM372.664 75.1668L257.213 128.258L278.009 235.483L281.294 234.795L386.552 208.1L371.447 172.729L371.465 172.708L411.968 91.6946L372.664 75.1668Z" fill="#E8E8E8"/>
<path d="M146.482 271.642L146.505 271.632L234.159 248.77L234.185 248.867L146.548 271.737L72.7421 403.628L122.82 429.409L48.4525 473.613L48.3862 473.518L122.578 429.414L72.5866 403.678L72.6186 403.624L146.482 271.642Z" fill="#E8E8E8"/>
<path d="M277.91 235.552L278.022 235.56L273.472 292.439L327.443 318.776L327.402 318.874L273.349 292.503L273.351 292.475L277.91 235.552Z" fill="#E8E8E8"/>
<path d="M52.1271 312.504L52.1666 312.501L194.794 334.051L194.704 334.129L144.629 377.953L106.693 467.106L106.59 467.053L144.532 377.884L144.544 377.879L194.541 334.128L52.1913 312.627L3.31975 397.565L3.21666 397.512L52.1271 312.504Z" fill="#E8E8E8"/>
<path d="M448.477 169.109L448.498 169.127L487.737 199.091L487.668 199.187L448.467 169.249L386.666 208.193L386.6 208.098L448.477 169.109Z" fill="#E8E8E8"/>
<path d="M416.412 46.8582L411.996 91.668L412.109 91.6792L416.524 46.8694L416.412 46.8582Z" fill="#E8E8E8"/>
<path d="M388.355 208.976C388.825 208.033 388.443 206.886 387.501 206.414C386.559 205.942 385.413 206.323 384.943 207.266C384.472 208.209 384.854 209.355 385.796 209.828C386.738 210.3 387.884 209.918 388.355 208.976Z" fill="#E8E8E8"/>
<path d="M489.456 199.892C489.885 198.93 489.454 197.801 488.492 197.37C487.531 196.939 486.403 197.37 485.973 198.332C485.544 199.294 485.975 200.423 486.937 200.854C487.898 201.285 489.026 200.854 489.456 199.892Z" fill="#E8E8E8"/>
<path d="M275.174 292.84C275.433 291.818 274.816 290.779 273.795 290.519C272.775 290.258 271.737 290.875 271.477 291.897C271.218 292.918 271.835 293.957 272.856 294.218C273.877 294.478 274.915 293.861 275.174 292.84Z" fill="#E8E8E8"/>
<path d="M68.532 491.931C69.4024 491.339 69.6274 490.151 69.0344 489.28C68.4415 488.408 67.2552 488.182 66.3847 488.774C65.5143 489.367 65.2893 490.554 65.8823 491.426C66.4752 492.298 67.6615 492.524 68.532 491.931Z" fill="#E8E8E8"/>
<path d="M50.3506 473.57C50.3512 472.515 49.4979 471.659 48.4447 471.658C47.3914 471.656 46.537 472.51 46.5364 473.564C46.5357 474.618 47.3891 475.474 48.4423 475.476C49.4956 475.477 50.3499 474.624 50.3506 473.57Z" fill="#E8E8E8"/>
<path d="M67.0915 474.52C66.5551 473.613 66.8477 472.447 67.7529 471.911C68.6581 471.375 69.8239 471.669 70.3603 472.575C70.8966 473.482 70.604 474.648 69.6988 475.184C68.8052 475.716 67.6278 475.426 67.0915 474.52Z" fill="#E8E8E8"/>
<path d="M108.446 467.419C109.19 466.673 109.188 465.464 108.442 464.719C107.697 463.974 106.489 463.974 105.745 464.72C105.002 465.466 105.003 466.674 105.749 467.42C106.494 468.165 107.702 468.164 108.446 467.419Z" fill="#E8E8E8"/>
<path d="M227.069 299.619C227.499 298.657 227.067 297.527 226.106 297.097C225.144 296.666 224.016 297.096 223.586 298.059C223.157 299.021 223.588 300.15 224.55 300.581C225.512 301.012 226.639 300.581 227.069 299.619Z" fill="#E8E8E8"/>
<path d="M137.39 398.342C137.013 397.357 135.91 396.864 134.927 397.241C133.943 397.617 133.452 398.721 133.829 399.705C134.206 400.69 135.309 401.183 136.292 400.806C137.276 400.43 137.767 399.326 137.39 398.342Z" fill="#E8E8E8"/>
<path d="M235.718 248.385C235.799 247.334 235.013 246.415 233.963 246.334C232.913 246.252 231.996 247.038 231.915 248.089C231.835 249.14 232.621 250.058 233.671 250.14C234.721 250.221 235.638 249.436 235.718 248.385Z" fill="#E8E8E8"/>
<path d="M243.955 278.594C244.215 277.572 243.597 276.533 242.577 276.273C241.556 276.012 240.518 276.629 240.259 277.65C239.999 278.672 240.617 279.711 241.637 279.972C242.658 280.232 243.696 279.615 243.955 278.594Z" fill="#E8E8E8"/>
<path d="M54.5452 312.711C54.8046 311.69 54.1873 310.65 53.1665 310.39C52.1457 310.129 51.108 310.746 50.8486 311.768C50.5893 312.789 51.2065 313.828 52.2273 314.089C53.2481 314.349 54.2859 313.732 54.5452 312.711Z" fill="#E8E8E8"/>
<path d="M79.4484 473.413C79.7133 472.393 79.1016 471.35 78.0822 471.084C77.0628 470.818 76.0217 471.43 75.7569 472.45C75.492 473.47 76.1037 474.512 77.1231 474.778C78.1425 475.044 79.1836 474.433 79.4484 473.413Z" fill="#E8E8E8"/>
<path d="M4.69366 399.256C5.47729 398.553 5.54212 397.346 4.83846 396.561C4.13481 395.776 2.92914 395.71 2.14551 396.414C1.36188 397.117 1.29704 398.324 2.0007 399.109C2.70435 399.894 3.91004 399.96 4.69366 399.256Z" fill="#E8E8E8"/>
<path d="M443.214 108.484C443.685 107.541 443.303 106.394 442.361 105.922C441.419 105.45 440.273 105.831 439.802 106.774C439.331 107.716 439.713 108.863 440.655 109.335C441.598 109.808 442.743 109.426 443.214 108.484Z" fill="#E8E8E8"/>
<path d="M374.38 74.7074C374.126 73.684 373.092 73.0594 372.069 73.3124C371.047 73.5653 370.424 74.6 370.677 75.6235C370.931 76.6469 371.965 77.2715 372.988 77.0185C374.01 76.7656 374.633 75.7308 374.38 74.7074Z" fill="#E8E8E8"/>
<path d="M414.806 47.8286C414.27 46.9221 414.563 45.7555 415.468 45.2194C416.373 44.6834 417.539 44.9773 418.075 45.8838C418.611 46.7903 418.319 47.9568 417.414 48.4929C416.525 49.0358 415.354 48.7303 414.806 47.8286Z" fill="#E8E8E8"/>
<path d="M279.799 236.035C280.058 235.014 279.441 233.975 278.42 233.714C277.4 233.454 276.362 234.07 276.103 235.092C275.843 236.113 276.46 237.153 277.481 237.413C278.502 237.674 279.54 237.057 279.799 236.035Z" fill="#E8E8E8"/>
<path d="M272.108 196.391C272.367 195.369 271.75 194.33 270.729 194.07C269.708 193.809 268.67 194.426 268.411 195.447C268.152 196.469 268.769 197.508 269.79 197.769C270.811 198.029 271.848 197.412 272.108 196.391Z" fill="#E8E8E8"/>
<path d="M308.151 189.11C308.933 188.405 308.995 187.198 308.289 186.415C307.584 185.631 306.378 185.568 305.596 186.273C304.814 186.979 304.752 188.186 305.457 188.969C306.163 189.753 307.369 189.816 308.151 189.11Z" fill="#E8E8E8"/>
<path d="M255.123 129.43C254.586 128.524 254.879 127.357 255.784 126.821C256.689 126.285 257.855 126.579 258.391 127.485C258.928 128.392 258.635 129.558 257.73 130.094C256.836 130.626 255.671 130.332 255.123 129.43Z" fill="#E8E8E8"/>
<path d="M145.248 272.446C144.711 271.539 145.004 270.373 145.909 269.837C146.814 269.301 147.98 269.594 148.517 270.501C149.053 271.407 148.76 272.574 147.855 273.11C146.95 273.646 145.784 273.352 145.248 272.446Z" fill="#E8E8E8"/>
<path d="M328.163 155.935C328.592 154.973 328.161 153.844 327.199 153.413C326.238 152.982 325.11 153.413 324.68 154.375C324.251 155.337 324.682 156.466 325.644 156.897C326.605 157.328 327.733 156.897 328.163 155.935Z" fill="#E8E8E8"/>
<path d="M375.773 173.954C376.379 171.568 374.937 169.141 372.553 168.533C370.169 167.924 367.745 169.365 367.14 171.751C366.534 174.136 367.976 176.564 370.36 177.172C372.744 177.78 375.167 176.34 375.773 173.954Z" fill="#E8E8E8"/>
<path d="M198.853 332.69C198.125 330.337 195.631 329.019 193.281 329.745C190.931 330.471 189.616 332.966 190.343 335.319C191.071 337.671 193.565 338.99 195.915 338.264C198.265 337.538 199.58 335.042 198.853 332.69Z" fill="#E8E8E8"/>
<path d="M75.4105 407.88C77.5489 406.665 78.2971 403.944 77.0816 401.803C75.8661 399.661 73.1472 398.91 71.0087 400.125C68.8703 401.34 68.1221 404.06 69.3376 406.202C70.5531 408.343 73.272 409.094 75.4105 407.88Z" fill="#E8E8E8"/>
<path d="M126.711 430.696C127.316 428.31 125.875 425.883 123.491 425.275C121.107 424.666 118.683 426.107 118.077 428.493C117.472 430.879 118.913 433.306 121.297 433.914C123.681 434.522 126.105 433.082 126.711 430.696Z" fill="#E8E8E8"/>
<path d="M122.489 321.314C122.025 318.895 119.691 317.31 117.275 317.772C114.859 318.235 113.277 320.57 113.741 322.989C114.206 325.407 116.54 326.992 118.956 326.53C121.372 326.067 122.954 323.732 122.489 321.314Z" fill="#E8E8E8"/>
<path d="M183.9 166.114C183.435 163.696 181.101 162.111 178.685 162.573C176.269 163.036 174.687 165.371 175.152 167.789C175.616 170.208 177.95 171.793 180.366 171.33C182.782 170.868 184.364 168.533 183.9 166.114Z" fill="#E8E8E8"/>
<path d="M450.25 172.013C451.63 170.74 451.718 168.587 450.445 167.204C449.172 165.821 447.021 165.732 445.641 167.004C444.26 168.277 444.172 170.43 445.445 171.813C446.718 173.196 448.869 173.285 450.25 172.013Z" fill="#E8E8E8"/>
<path d="M243 204.688C244.38 203.416 244.468 201.263 243.195 199.88C241.922 198.497 239.771 198.407 238.391 199.68C237.01 200.953 236.922 203.106 238.195 204.489C239.468 205.872 241.619 205.961 243 204.688Z" fill="#E8E8E8"/>
<path d="M332.623 222.63C333.086 220.809 331.985 218.956 330.165 218.492C328.345 218.028 326.495 219.127 326.033 220.949C325.57 222.77 326.671 224.623 328.491 225.087C330.311 225.551 332.161 224.452 332.623 222.63Z" fill="#E8E8E8"/>
<path d="M208.537 395.016C209.666 393.515 209.363 391.381 207.862 390.25C206.361 389.12 204.23 389.421 203.101 390.922C201.973 392.423 202.275 394.557 203.777 395.688C205.278 396.818 207.409 396.518 208.537 395.016Z" fill="#E8E8E8"/>
<path d="M148.795 325.791C148.126 324.034 146.161 323.151 144.407 323.82C142.652 324.488 141.772 326.453 142.441 328.21C143.11 329.967 145.075 330.849 146.829 330.181C148.584 329.513 149.464 327.547 148.795 325.791Z" fill="#E8E8E8"/>
<path d="M249.768 296.666C250.23 294.844 249.13 292.992 247.31 292.527C245.49 292.063 243.639 293.163 243.177 294.984C242.715 296.805 243.815 298.658 245.635 299.122C247.455 299.587 249.305 298.487 249.768 296.666Z" fill="#E8E8E8"/>
<path d="M147.307 378.4C147.769 376.579 146.669 374.726 144.849 374.262C143.029 373.797 141.179 374.897 140.716 376.718C140.254 378.539 141.354 380.392 143.174 380.857C144.994 381.321 146.844 380.221 147.307 378.4Z" fill="#E8E8E8"/>
<path d="M258.923 331.845C260.379 330.66 260.598 328.517 259.412 327.058C258.226 325.6 256.084 325.379 254.628 326.564C253.172 327.75 252.953 329.893 254.139 331.351C255.325 332.81 257.467 333.031 258.923 331.845Z" fill="#E8E8E8"/>
<path d="M71.9484 462.224C72.3207 460.382 71.1305 458.585 69.29 458.211C67.4496 457.837 65.6558 459.027 65.2835 460.868C64.9112 462.71 66.1014 464.507 67.9419 464.881C69.7823 465.255 71.5761 464.065 71.9484 462.224Z" fill="#E8E8E8"/>
<path d="M330.701 319.662C331.164 317.841 330.063 315.988 328.243 315.523C326.423 315.059 324.573 316.159 324.111 317.98C323.648 319.801 324.749 321.654 326.569 322.118C328.389 322.583 330.239 321.483 330.701 319.662Z" fill="#E8E8E8"/>
<path d="M415.318 92.4977C415.781 90.6765 414.68 88.8237 412.86 88.3592C411.04 87.8948 409.19 88.9947 408.728 90.8158C408.265 92.637 409.366 94.4898 411.186 94.9542C413.006 95.4186 414.856 94.3188 415.318 92.4977Z" fill="#E8E8E8"/>
<path d="M319.84 348.579L256.456 315.036L242.268 390.965L242.202 390.938L171.244 366.343L126.544 449.616L126.537 449.402L123.995 350.06L55.2967 419.151L55.2768 419.037L45.7322 356.433L45.7949 356.421L124.021 349.859L173.032 287.319L219.387 224.162L219.41 224.153L245.782 219.602L235.326 186.852L235.344 186.831L284.075 119.068L284.061 119.033L284.112 119.026L367.662 78.9305L411.801 32.6488L411.828 32.6508L420.875 32.1831L421.193 15.0443L421.305 15.0525L420.999 32.1865L441.768 31.1264L419.724 103.27L490.566 106.842L490.558 106.954L419.716 103.382L443.515 195.702L443.468 195.722L349.485 240.591L349.488 240.631L349.472 240.624L319.84 348.579ZM256.475 314.919L319.768 348.404L349.39 240.59L268.966 216.039L251.783 237.981L261.101 267.179L261.106 267.19L256.475 314.919ZM171.302 366.252L242.182 390.824L256.337 315.044L189.287 332.758L171.302 366.252ZM124.106 350.001L126.649 449.179L171.134 366.307L124.106 350.001ZM349.5 240.463L443.395 195.643L419.614 103.397L347.438 132.311L349.5 240.463ZM189.36 332.606L256.363 314.911L260.987 267.198L251.695 238.099L214.832 285.145L189.36 332.606ZM124.24 349.932L171.187 366.204L189.122 332.785L124.24 349.932ZM269.035 215.942L349.386 240.483L347.326 132.235L347.36 132.221L419.234 103.431L284.216 119.146L298.095 178.836L298.077 178.857L269.035 215.942ZM124.197 349.827L189.205 332.656L214.741 285.088L251.643 237.971L245.823 219.734L219.451 224.285L173.121 287.405L124.197 349.827ZM45.8708 356.539L55.3873 418.91L123.903 350.003L45.8708 356.539ZM245.933 219.703L251.73 237.854L268.845 216.007L268.316 215.845L245.933 219.703ZM245.901 219.594L268.32 215.721L268.913 215.911L297.967 178.821L284.107 119.245L235.452 186.895L245.901 219.594ZM284.48 118.996L419.601 103.266L420.883 32.3019L411.876 32.767L367.757 79.0275L367.745 79.0323L284.48 118.996ZM420.995 32.3101L419.716 102.92L441.606 31.2609L420.995 32.3101Z" fill="#00344A"/>
<path d="M242.295 390.917L242.248 390.936L126.591 449.451L126.574 449.444L85.7745 434.062L85.8065 434.009L123.995 349.914L107.236 314.382L107.299 314.37L213.566 283.144L217.003 282.298L217.015 282.361L242.295 390.917ZM126.594 449.328L242.159 390.85L216.893 282.425L213.57 283.251L107.377 314.46L124.107 349.922L124.089 349.944L85.9185 434.017L126.594 449.328Z" fill="#00344A"/>
<path d="M349.494 240.604L349.47 240.613L261.049 267.243L261.018 267.133L349.411 240.502L419.57 103.349L367.599 78.9994L441.652 31.1352L441.719 31.2301L367.836 78.983L419.726 103.298L419.705 103.347L349.494 240.604Z" fill="#00344A"/>
<path d="M216.997 282.37L216.873 282.367L219.358 224.261L163.372 199.488L163.425 199.385L219.476 224.185L219.479 224.225L216.997 282.37Z" fill="#00344A"/>
<path d="M444.024 195.378L443.984 195.38L297.898 178.87L297.983 178.78L347.316 132.233L382.567 39.989L382.677 40.0252L347.413 132.302L347.401 132.306L298.158 178.776L443.96 195.255L490.504 106.875L490.607 106.928L444.024 195.378Z" fill="#00344A"/>
<path d="M45.7995 356.548L45.7735 356.518L4.6723 327.499L4.74116 327.403L45.8096 356.408L107.272 314.371L107.339 314.466L45.7995 356.548Z" fill="#00344A"/>
<path d="M85.7976 434.015L82.9999 479.824L83.1126 479.831L85.9103 434.022L85.7976 434.015Z" fill="#00344A"/>
<path d="M108.932 313.358C109.52 314.257 109.258 315.465 108.355 316.041C107.458 316.628 106.25 316.365 105.674 315.461C105.087 314.562 105.349 313.354 106.251 312.778C107.153 312.203 108.345 312.459 108.932 313.358Z" fill="#00344A"/>
<path d="M6.6554 327.335C6.58669 326.263 5.66212 325.448 4.59031 325.516C3.51851 325.583 2.70533 326.508 2.77404 327.581C2.84274 328.654 3.76731 329.468 4.83912 329.401C5.91092 329.333 6.7241 328.408 6.6554 327.335Z" fill="#00344A"/>
<path d="M221.121 223.256C221.708 224.155 221.447 225.363 220.544 225.939C219.646 226.526 218.439 226.263 217.863 225.359C217.276 224.46 217.537 223.252 218.44 222.676C219.326 222.094 220.533 222.357 221.121 223.256Z" fill="#00344A"/>
<path d="M422.955 16.2067C423.758 15.4934 423.831 14.2632 423.117 13.4589C422.404 12.6547 421.175 12.581 420.372 13.2943C419.569 14.0077 419.496 15.2379 420.21 16.0421C420.923 16.8464 422.152 16.9201 422.955 16.2067Z" fill="#00344A"/>
<path d="M442.897 32.702C443.731 32.0262 443.86 30.8006 443.184 29.9647C442.508 29.1287 441.283 28.9989 440.449 29.6748C439.614 30.3506 439.485 31.5761 440.161 32.4121C440.837 33.248 442.062 33.3778 442.897 32.702Z" fill="#00344A"/>
<path d="M422.265 33.442C423.071 32.732 423.148 31.5021 422.438 30.695C421.728 29.8879 420.499 29.8091 419.693 30.5191C418.888 31.2291 418.81 32.459 419.52 33.2661C420.23 34.0732 421.459 34.152 422.265 33.442Z" fill="#00344A"/>
<path d="M383.84 40.0017C384.427 40.9007 384.165 42.109 383.263 42.6847C382.365 43.2719 381.158 43.0087 380.582 42.105C379.994 41.206 380.256 39.9977 381.159 39.4221C382.056 38.8348 383.264 39.098 383.84 40.0017Z" fill="#00344A"/>
<path d="M269.793 214.818C270.38 215.717 270.118 216.925 269.216 217.501C268.318 218.088 267.111 217.825 266.535 216.921C265.947 216.022 266.209 214.814 267.112 214.239C268.009 213.651 269.217 213.914 269.793 214.818Z" fill="#00344A"/>
<path d="M357.648 110.84C357.874 109.789 357.205 108.754 356.155 108.527C355.105 108.3 354.071 108.968 353.846 110.019C353.62 111.07 354.289 112.106 355.339 112.332C356.389 112.559 357.423 111.891 357.648 110.84Z" fill="#00344A"/>
<path d="M263.047 266.724C263.634 267.623 263.372 268.832 262.47 269.407C261.572 269.995 260.365 269.731 259.789 268.828C259.201 267.929 259.463 266.72 260.366 266.145C261.263 265.557 262.471 265.821 263.047 266.724Z" fill="#00344A"/>
<path d="M253.472 236.588C254.06 237.487 253.798 238.695 252.896 239.271C251.998 239.858 250.791 239.595 250.215 238.691C249.627 237.792 249.889 236.584 250.791 236.008C251.678 235.426 252.885 235.689 253.472 236.588Z" fill="#00344A"/>
<path d="M444.764 197.082C445.567 196.368 445.639 195.138 444.926 194.334C444.212 193.53 442.983 193.456 442.18 194.169C441.377 194.883 441.305 196.113 442.018 196.917C442.732 197.721 443.961 197.795 444.764 197.082Z" fill="#00344A"/>
<path d="M413.621 31.869C414.208 32.7679 413.947 33.9762 413.044 34.5518C412.142 35.1275 410.939 34.8759 410.363 33.9722C409.776 33.0732 410.037 31.865 410.94 31.2893C411.826 30.7068 413.033 30.97 413.621 31.869Z" fill="#00344A"/>
<path d="M492.023 105.564C492.611 106.463 492.349 107.671 491.446 108.247C490.549 108.834 489.341 108.571 488.765 107.667C488.178 106.769 488.44 105.56 489.342 104.985C490.228 104.402 491.436 104.665 492.023 105.564Z" fill="#00344A"/>
<path d="M56.8834 419.92C57.4608 419.014 57.1948 417.811 56.2891 417.232C55.3835 416.653 54.1813 416.919 53.6039 417.825C53.0264 418.73 53.2925 419.934 54.1981 420.513C55.1037 421.091 56.306 420.826 56.8834 419.92Z" fill="#00344A"/>
<path d="M128.348 448.261C128.936 449.16 128.674 450.368 127.771 450.944C126.874 451.531 125.666 451.268 125.09 450.364C124.515 449.46 124.765 448.257 125.667 447.681C126.565 447.094 127.772 447.357 128.348 448.261Z" fill="#00344A"/>
<path d="M84.6833 478.799C85.2709 479.698 85.009 480.906 84.1066 481.482C83.2089 482.069 82.0015 481.806 81.4256 480.902C80.838 480.003 81.0999 478.795 82.0023 478.219C82.9 477.632 84.0958 477.9 84.6833 478.799Z" fill="#00344A"/>
<path d="M218.206 283.825C219.012 283.115 219.09 281.885 218.379 281.078C217.669 280.271 216.441 280.192 215.635 280.902C214.829 281.612 214.751 282.842 215.461 283.649C216.172 284.456 217.4 284.535 218.206 283.825Z" fill="#00344A"/>
<path d="M227.919 321.39C228.506 322.289 228.244 323.497 227.342 324.073C226.444 324.66 225.237 324.397 224.661 323.493C224.085 322.589 224.335 321.386 225.238 320.81C226.135 320.223 227.343 320.486 227.919 321.39Z" fill="#00344A"/>
<path d="M190.72 333.534C191.461 332.756 191.431 331.524 190.653 330.782C189.876 330.04 188.645 330.068 187.904 330.846C187.163 331.624 187.193 332.856 187.97 333.598C188.748 334.34 189.979 334.311 190.72 333.534Z" fill="#00344A"/>
<path d="M244.484 390.18C244.219 389.138 243.161 388.507 242.12 388.772C241.079 389.036 240.45 390.095 240.715 391.137C240.98 392.179 242.039 392.809 243.08 392.545C244.121 392.28 244.749 391.222 244.484 390.18Z" fill="#00344A"/>
<path d="M350.713 239.717C351.301 240.616 351.039 241.825 350.136 242.4C349.239 242.988 348.031 242.724 347.455 241.821C346.868 240.922 347.13 239.713 348.032 239.138C348.935 238.562 350.126 238.818 350.713 239.717Z" fill="#00344A"/>
<path d="M172.265 365.025C172.853 365.924 172.591 367.132 171.689 367.708C170.791 368.295 169.584 368.032 169.008 367.128C168.42 366.229 168.682 365.021 169.584 364.446C170.482 363.858 171.689 364.121 172.265 365.025Z" fill="#00344A"/>
<path d="M128.522 350.762C129.049 348.308 127.487 345.89 125.035 345.36C122.583 344.831 120.168 346.391 119.641 348.845C119.114 351.3 120.675 353.718 123.128 354.247C125.58 354.777 127.995 353.216 128.522 350.762Z" fill="#00344A"/>
<path d="M302.561 179.899C303.088 177.445 301.527 175.026 299.074 174.497C296.622 173.968 294.207 175.528 293.68 177.982C293.154 180.436 294.715 182.855 297.167 183.384C299.62 183.913 302.035 182.353 302.561 179.899Z" fill="#00344A"/>
<path d="M423.537 103.942C424.064 101.488 422.503 99.0693 420.051 98.54C417.598 98.0107 415.183 99.571 414.656 102.025C414.13 104.479 415.691 106.898 418.143 107.427C420.596 107.956 423.011 106.396 423.537 103.942Z" fill="#00344A"/>
<path d="M370.167 82.8121C372.375 81.6212 373.198 78.8641 372.006 76.654C370.814 74.4439 368.059 73.6177 365.852 74.8085C363.645 75.9994 362.821 78.7565 364.013 80.9666C365.205 83.1767 367.96 84.003 370.167 82.8121Z" fill="#00344A"/>
<path d="M380.909 189.032C381.436 186.578 379.874 184.159 377.422 183.63C374.97 183.1 372.555 184.661 372.028 187.115C371.501 189.569 373.062 191.988 375.515 192.517C377.967 193.046 380.382 191.486 380.909 189.032Z" fill="#00344A"/>
<path d="M324.241 349.465C324.767 347.011 323.206 344.593 320.754 344.063C318.301 343.534 315.886 345.094 315.36 347.549C314.833 350.003 316.394 352.421 318.847 352.951C321.299 353.48 323.714 351.92 324.241 349.465Z" fill="#00344A"/>
<path d="M49.7273 356.839C50.12 354.966 48.921 353.127 47.0493 352.733C45.1775 352.338 43.3419 353.536 42.9492 355.409C42.5565 357.282 43.7555 359.121 45.6273 359.515C47.499 359.91 49.3346 358.712 49.7273 356.839Z" fill="#00344A"/>
<path d="M257.727 318.036C259.433 317.172 260.115 315.088 259.251 313.379C258.386 311.671 256.303 310.986 254.597 311.85C252.891 312.714 252.209 314.799 253.073 316.507C253.938 318.215 256.021 318.9 257.727 318.036Z" fill="#00344A"/>
<path d="M168.533 299.093C168.935 297.222 167.745 295.378 165.875 294.974C164.005 294.571 162.164 295.761 161.762 297.632C161.361 299.503 162.551 301.347 164.421 301.75C166.29 302.154 168.132 300.964 168.533 299.093Z" fill="#00344A"/>
<path d="M287.841 118.783C287.58 116.886 285.833 115.559 283.938 115.819C282.044 116.078 280.72 117.826 280.981 119.722C281.242 121.619 282.989 122.946 284.884 122.686C286.778 122.427 288.102 120.679 287.841 118.783Z" fill="#00344A"/>
<path d="M351.647 183.539C351.295 181.657 349.486 180.415 347.607 180.766C345.727 181.116 344.488 182.926 344.84 184.807C345.191 186.689 347 187.931 348.88 187.58C350.76 187.23 351.999 185.42 351.647 183.539Z" fill="#00344A"/>
<path d="M250.161 219.412C249.974 217.507 248.28 216.112 246.377 216.297C244.473 216.482 243.081 218.176 243.268 220.081C243.454 221.987 245.148 223.381 247.052 223.196C248.955 223.012 250.347 221.317 250.161 219.412Z" fill="#00344A"/>
<path d="M349.346 135.79C351.1 135.029 351.904 132.988 351.142 131.232C350.38 129.475 348.34 128.669 346.586 129.43C344.832 130.191 344.028 132.232 344.79 133.988C345.553 135.745 347.592 136.551 349.346 135.79Z" fill="#00344A"/>
<path d="M238.338 186.917C238.739 185.046 237.549 183.202 235.679 182.799C233.809 182.395 231.968 183.585 231.567 185.456C231.165 187.327 232.355 189.171 234.225 189.574C236.095 189.978 237.936 188.788 238.338 186.917Z" fill="#00344A"/>
<path d="M425.007 44.6694C425.27 42.7736 423.947 41.0224 422.052 40.758C420.158 40.4935 418.41 41.816 418.147 43.7119C417.885 45.6077 419.207 47.3589 421.102 47.6233C422.996 47.8878 424.745 46.5653 425.007 44.6694Z" fill="#00344A"/>
<path d="M166.659 200.623C167.323 198.828 166.408 196.833 164.615 196.166C162.821 195.5 160.829 196.414 160.164 198.208C159.5 200.002 160.415 201.998 162.208 202.664C164.001 203.331 165.994 202.417 166.659 200.623Z" fill="#00344A"/>
<path d="M89.1488 435.074C89.7162 433.246 88.6957 431.303 86.8694 430.734C85.0431 430.164 83.1026 431.184 82.5352 433.011C81.9678 434.839 82.9883 436.782 84.8146 437.352C86.6409 437.921 88.5814 436.901 89.1488 435.074Z" fill="#00344A"/>
</svg>
