<svg xmlns="http://www.w3.org/2000/svg" width="19" height="19" fill="none"><g clip-path="url(#a)"><path fill="#1DBBBA" d="m18.33 16.166-4.31-4.453c-.309-.32-.695-.447-.862-.284-.168.162-.554.035-.864-.284l-.061-.064a6.47 6.47 0 0 0-9.73-8.486 6.473 6.473 0 0 0 8.617 9.633l.027.029c.308.319.423.71.255.872-.168.162-.054.553.255.872l4.308 4.453a.805.805 0 0 0 1.138.02l1.208-1.17a.806.806 0 0 0 .02-1.138Zm-8.094-5.84a4.467 4.467 0 0 1-6.31.001 4.467 4.467 0 0 1 0-6.31 4.466 4.466 0 0 1 6.31 0 4.466 4.466 0 0 1 0 6.31Z"/></g><defs><clipPath id="a"><path fill="#fff" d="M.581.7h18v18h-18z"/></clipPath></defs></svg>