<svg xmlns="http://www.w3.org/2000/svg" width="19" height="19" fill="none"><g fill="#1DBBBA" clip-path="url(#a)"><path d="M9.622 16.472a2.103 2.103 0 1 0 0-4.205 2.103 2.103 0 0 0 0 4.205ZM14.65 9.303c-.032-.032-.065-.06-.097-.09l-.095-.09c-.015-.016-.032-.028-.052-.044a6.86 6.86 0 0 0-9.476.223l-.304.305-.422.422a1.32 1.32 0 0 0 1.867 1.867l.727-.727a4.238 4.238 0 0 1 5.984 0l.524.507a1.307 1.307 0 0 0 1.848-.004 1.3 1.3 0 0 0 .384-.924c0-.348-.134-.676-.38-.921l-.509-.524Z"/><path d="m18.232 6.704-.437-.437c-.002-.002-.003-.005-.006-.006l-.345-.346a1.243 1.243 0 0 0-.196-.157c-4.432-3.891-11.173-3.772-15.464.356-.02.02-.044.032-.065.053l-.789.79a1.2 1.2 0 0 0 .006 1.698 1.2 1.2 0 0 0 1.698.004l.789-.788.014-.017c3.47-3.352 8.974-3.373 12.472-.069l.62.622c.468.467 1.23.465 1.7-.005.468-.47.47-1.231.003-1.698Z"/></g><defs><clipPath id="a"><path fill="#fff" d="M.581.7h18v18h-18z"/></clipPath></defs></svg>