<svg xmlns="http://www.w3.org/2000/svg" width="19" height="19" fill="none"><g clip-path="url(#a)"><path fill="#1DBBBA" d="M14.644 8.574h-1.125V4.637A3.942 3.942 0 0 0 9.58.699a3.942 3.942 0 0 0-3.937 3.938v3.937H4.519c-.622 0-1.125.504-1.125 1.125v7.875c0 .621.503 1.125 1.125 1.125h10.125c.62 0 1.125-.504 1.125-1.125V9.7c0-.621-.504-1.125-1.125-1.125Zm-4.5 6.085v1.228a.563.563 0 0 1-1.125 0v-1.229a1.683 1.683 0 0 1 .562-3.271 1.683 1.683 0 0 1 .563 3.272Zm-2.25-6.085V4.637c0-.93.756-1.688 1.687-1.688.93 0 1.688.757 1.688 1.688v3.937H7.894Z"/></g><defs><clipPath id="a"><path fill="#fff" d="M.581.7h18v18h-18z"/></clipPath></defs></svg>