<svg xmlns="http://www.w3.org/2000/svg" width="19" height="19" fill="none"><g fill="#1DBBBA" clip-path="url(#a)"><path d="M16.352 13.067c-.648 0-1.174.525-1.174 1.174v1.83H3.983v-1.83a1.174 1.174 0 0 0-2.348 0v3.004c0 .648.526 1.174 1.174 1.174h13.543c.648 0 1.174-.526 1.174-1.174v-3.004c0-.649-.526-1.174-1.174-1.174Z"/><path d="M9.227 14.316a.501.501 0 0 0 .709 0l4.115-4.115a.42.42 0 0 0-.297-.715h-1.932v-7.59a.916.916 0 0 0-.916-.917H8.258a.916.916 0 0 0-.916.916v7.591H5.409a.418.418 0 0 0-.296.715l4.114 4.115Z"/></g><defs><clipPath id="a"><path fill="#fff" d="M.581.7h18v18h-18z"/></clipPath></defs></svg>