<svg width="497" height="497" viewBox="0 0 497 497" fill="none" xmlns="http://www.w3.org/2000/svg">
<path d="M328.146 75.0713L328.221 75.0961L435.498 125.094L435.424 125.219L372.479 228.396L454.956 324.093L392.607 397.252L455.03 402.917L455.005 403.166L392.11 397.45L392.259 397.276L454.633 324.093L372.156 228.421L372.205 228.346L435.125 125.219L328.196 75.3695L255.361 154.517L255.261 154.467L186.725 120.77L122.835 160.779L122.786 160.68L82.2306 84.0173L44.1356 169.253L152.034 238.162L77.1363 292.534L138.59 348.446L138.516 348.546L65.2083 433.359L199.274 431.048L249.62 351.254L249.72 351.304L300.414 377.297L300.438 377.372L307.744 433.359L358.264 437.807L326.705 457.662L326.556 457.438L357.519 437.981L307.521 433.582V433.483L300.19 377.446L249.72 351.577L199.398 431.271H199.324L64.6617 433.632L64.8356 433.408L138.242 348.471L76.7387 292.509L151.587 238.187L43.8125 169.352L82.2057 83.4457L82.33 83.6694L122.935 160.431L186.725 120.497L186.775 120.522L255.286 154.219L328.146 75.0713Z" fill="#DADADA"/>
<path d="M85.1644 9.74121L85.3632 9.91516L141.673 58.7454L141.648 58.82L123.036 160.556L197.263 201.235L255.188 154.319V154.244H255.263L255.287 154.219L255.337 154.244L351.705 159.835L328.023 75.1464L328.123 75.0967L433.015 23.4584L433.114 23.6821L328.322 75.2955L352.053 160.109H351.879L255.784 154.542L372.331 228.322L482.69 209.734L482.64 209.908L454.883 324.218L454.833 324.243L357.645 360.424L357.595 360.375L302.726 305.158L249.721 351.578H249.671L138.12 348.621L138.343 348.422L200.568 293.006L76.8396 292.708L76.8148 292.609L63.7934 237.144L30.1465 219.525L30.1713 219.426L43.8637 169.253H43.9382L72.2424 166.122L82.083 83.7694L85.1644 9.74121ZM141.4 58.82L85.388 10.2631L82.3563 83.7445L72.5157 166.048L122.787 160.506L141.4 58.82ZM372.281 228.545L372.232 228.521L255.437 154.592L255.66 233.267L302.801 304.86L357.694 360.101L454.659 323.994L482.342 209.983L372.281 228.545ZM255.412 233.093L255.188 154.617L197.486 201.335L255.412 233.093ZM151.638 238.038L122.812 160.73L72.4909 166.271L64.0667 236.87L151.638 238.038ZM197.039 201.384L123.11 160.879L151.862 237.964L197.039 201.384ZM63.8182 236.821L72.2424 166.321L44.0873 169.427L30.4695 219.351L63.8182 236.821ZM255.337 233.342L197.288 201.534L151.986 238.187L200.891 292.658L255.337 233.342ZM302.478 304.785L255.536 233.515L201.164 292.733L302.478 304.785ZM151.762 238.287L64.0667 237.119L77.0384 292.385L200.617 292.683L151.762 238.287ZM302.428 305.034L201.189 292.982L249.671 351.23L302.428 305.034ZM249.398 351.28L200.891 293.006L138.741 348.347L249.398 351.28Z" fill="#DADADA"/>
<path d="M141.275 58.6211L141.548 58.6459L217.713 67.0701L217.738 67.1198L255.51 154.492H255.336L122.96 160.73L64.016 237.094L30.6425 292.708L51.2183 380.006L50.9698 380.056L30.3691 292.683L30.394 292.634L63.8172 236.945L122.836 160.481H122.886L255.137 154.244L217.539 67.2937L141.797 58.9441L186.825 120.572L186.626 120.696L141.275 58.6211Z" fill="#DADADA"/>
<path d="M197.379 201.364L197.131 201.374L200.769 292.848L201.017 292.838L197.379 201.364Z" fill="#DADADA"/>
<path d="M351.779 159.935L352.028 160.009L325.339 252.302L372.454 228.198L372.429 228.421L357.793 360.25L364.03 419.816L363.931 419.841L307.67 433.583L245.098 452.021L245.023 451.773L307.596 433.334L363.757 419.617L357.544 360.226V360.201L372.156 228.595L325.314 252.551L350.064 284.955L254.516 232.869L325.04 252.352L351.779 159.935ZM325.065 252.65L256.554 233.714L349.195 284.209L325.065 252.65Z" fill="#DADADA"/>
<path d="M479.233 67.9395L479.432 68.0886L435.423 125.194L420.712 284.557H420.612L349.641 284.706V284.457L420.488 284.308L435.199 125.119L435.224 125.07L479.233 67.9395Z" fill="#DADADA"/>
<path d="M435.373 124.995L482.687 209.858L482.638 209.932L357.766 360.374L300.611 377.421L363.979 419.642L363.83 419.84L300.338 377.546L245.096 452.071L244.997 452.021L199.248 431.247L199.223 431.222L180.66 406.024L64.8345 433.632L64.8097 433.508L50.9434 379.956L51.0428 379.906L138.465 348.322L138.515 348.397L180.76 405.75L300.189 377.272L302.599 304.859L302.674 304.835L349.541 284.507L372.179 228.421L351.753 159.909L351.852 159.86L435.373 124.995ZM482.364 209.833L435.249 125.318L352.051 160.034L372.453 228.421L372.428 228.471L349.74 284.681L349.69 284.706L302.848 305.033L300.437 377.198L357.592 360.126L482.364 209.833ZM180.511 405.8L138.391 348.595L51.2416 380.08L65.0333 433.309L180.511 405.8ZM245.022 451.748L300.015 377.571L180.934 405.949L199.422 431.048L245.022 451.748Z" fill="#DADADA"/>
<path d="M141.473 58.6709L141.572 58.8945L82.2305 83.8688H82.2056L35.6367 76.1653L35.6864 75.9168L82.2056 83.6203L141.473 58.6709Z" fill="#DADADA"/>
<path d="M77.112 292.41L77.0623 292.559L51.1935 380.081L25.7222 422.326L25.5234 422.202L50.9698 379.982L76.7641 292.659L30.4934 292.833V292.584L77.112 292.41Z" fill="#DADADA"/>
<path d="M338.316 206.794L255.518 233.177L255.593 233.414L338.392 207.031L338.316 206.794Z" fill="#DADADA"/>
<path d="M259.154 236.94C261.153 234.941 261.153 231.7 259.154 229.701C257.155 227.701 253.914 227.701 251.915 229.701C249.916 231.7 249.916 234.941 251.915 236.94C253.914 238.939 257.155 238.939 259.154 236.94Z" fill="#DADADA"/>
<path d="M251.41 154.493C251.41 152.331 253.15 150.591 255.312 150.566C257.474 150.566 259.213 152.306 259.238 154.468C259.238 156.63 257.498 158.369 255.336 158.394C253.175 158.394 251.41 156.655 251.41 154.493Z" fill="#DADADA"/>
<path d="M214.604 67.2692C214.604 65.654 215.921 64.3369 217.536 64.3369C219.151 64.3369 220.468 65.654 220.468 67.2692C220.468 68.8845 219.151 70.2015 217.536 70.2015C215.921 70.2015 214.604 68.9093 214.604 67.2692Z" fill="#DADADA"/>
<path d="M332.362 75.8386C332.707 73.7116 331.262 71.7078 329.136 71.3628C327.009 71.0179 325.005 72.4624 324.66 74.5893C324.315 76.7162 325.759 78.7201 327.886 79.0651C330.013 79.41 332.017 77.9655 332.362 75.8386Z" fill="#DADADA"/>
<path d="M126.553 164.235C128.552 162.236 128.552 158.995 126.552 156.996C124.553 154.996 121.312 154.996 119.313 156.996C117.314 158.995 117.314 162.236 119.313 164.235C121.312 166.234 124.553 166.234 126.553 164.235Z" fill="#DADADA"/>
<path d="M47.5877 173.351C49.5868 171.352 49.5868 168.111 47.5877 166.112C45.5885 164.113 42.3473 164.113 40.3482 166.112C38.3491 168.111 38.3491 171.352 40.3482 173.351C42.3473 175.35 45.5885 175.35 47.5877 173.351Z" fill="#DADADA"/>
<path d="M81.8066 88.8642C84.6338 88.8642 86.9257 86.5723 86.9257 83.7451C86.9257 80.9179 84.6338 78.626 81.8066 78.626C78.9794 78.626 76.6875 80.9179 76.6875 83.7451C76.6875 86.5723 78.9794 88.8642 81.8066 88.8642Z" fill="#DADADA"/>
<path d="M375.926 232.271C377.925 230.272 377.925 227.031 375.926 225.032C373.926 223.033 370.685 223.033 368.686 225.032C366.687 227.031 366.687 230.272 368.686 232.271C370.685 234.27 373.926 234.27 375.926 232.271Z" fill="#DADADA"/>
<path d="M486.5 211.346C487.236 209.161 486.061 206.793 483.876 206.057C481.691 205.321 479.323 206.495 478.587 208.68C477.851 210.865 479.025 213.234 481.21 213.97C483.395 214.706 485.764 213.531 486.5 211.346Z" fill="#DADADA"/>
<path d="M350.37 287.813C352.134 287.398 353.227 285.632 352.812 283.869C352.398 282.106 350.632 281.012 348.869 281.427C347.105 281.842 346.012 283.607 346.427 285.371C346.841 287.134 348.607 288.227 350.37 287.813Z" fill="#DADADA"/>
<path d="M305.398 306.428C306.252 304.831 305.649 302.843 304.052 301.989C302.454 301.135 300.467 301.738 299.613 303.336C298.759 304.933 299.362 306.921 300.959 307.775C302.557 308.629 304.544 308.026 305.398 306.428Z" fill="#DADADA"/>
<path d="M302.845 379.77C304.126 378.489 304.126 376.412 302.845 375.131C301.564 373.85 299.487 373.85 298.206 375.131C296.925 376.412 296.925 378.489 298.206 379.77C299.487 381.051 301.564 381.051 302.845 379.77Z" fill="#DADADA"/>
<path d="M202.45 432.813C203.309 431.218 202.713 429.229 201.118 428.37C199.523 427.51 197.534 428.107 196.675 429.702C195.816 431.297 196.412 433.286 198.007 434.145C199.602 435.004 201.591 434.408 202.45 432.813Z" fill="#DADADA"/>
<path d="M68.0961 436.085C69.8041 434.377 69.8041 431.608 68.0961 429.9C66.3881 428.192 63.6189 428.192 61.9109 429.9C60.203 431.608 60.2029 434.377 61.9109 436.085C63.6189 437.793 66.3881 437.793 68.0961 436.085Z" fill="#DADADA"/>
<path d="M224.501 397.366C225.024 395.631 224.042 393.801 222.308 393.278C220.573 392.755 218.743 393.737 218.22 395.472C217.697 397.206 218.679 399.036 220.414 399.559C222.148 400.082 223.978 399.1 224.501 397.366Z" fill="#DADADA"/>
<path d="M248.191 452.912C248.757 451.191 247.82 449.337 246.099 448.771C244.378 448.205 242.524 449.141 241.958 450.862C241.392 452.583 242.329 454.437 244.05 455.003C245.771 455.569 247.625 454.633 248.191 452.912Z" fill="#DADADA"/>
<path d="M310.183 435.849C311.464 434.568 311.464 432.491 310.183 431.21C308.902 429.929 306.825 429.929 305.544 431.21C304.263 432.491 304.263 434.568 305.544 435.849C306.825 437.13 308.902 437.13 310.183 435.849Z" fill="#DADADA"/>
<path d="M327.699 254.955C328.98 253.674 328.98 251.597 327.699 250.316C326.418 249.035 324.341 249.035 323.06 250.316C321.779 251.597 321.779 253.674 323.06 254.955C324.341 256.236 326.418 256.236 327.699 254.955Z" fill="#DADADA"/>
<path d="M423.496 219.301C423.496 217.487 424.962 216.021 426.776 215.996C428.59 215.972 430.056 217.463 430.081 219.277C430.106 221.091 428.615 222.557 426.801 222.582C424.962 222.582 423.496 221.115 423.496 219.301Z" fill="#DADADA"/>
<path d="M482.45 69.0375C483.019 67.3174 482.085 65.462 480.365 64.8933C478.645 64.3247 476.79 65.2581 476.221 66.9782C475.652 68.6983 476.586 70.5538 478.306 71.1224C480.026 71.6911 481.882 70.7576 482.45 69.0375Z" fill="#DADADA"/>
<path d="M434.849 25.9034C436.13 24.6224 436.13 22.5455 434.849 21.2646C433.568 19.9836 431.491 19.9836 430.21 21.2646C428.929 22.5455 428.929 24.6224 430.21 25.9034C431.491 27.1844 433.568 27.1844 434.849 25.9034Z" fill="#DADADA"/>
<path d="M336.271 207.001C336.271 205.709 337.315 204.665 338.583 204.665C339.875 204.665 340.918 205.709 340.918 206.976C340.918 208.268 339.875 209.312 338.607 209.312C337.315 209.337 336.271 208.293 336.271 207.001Z" fill="#DADADA"/>
<path d="M353.845 161.974C354.952 160.868 354.952 159.074 353.845 157.968C352.739 156.861 350.945 156.861 349.839 157.968C348.733 159.074 348.733 160.868 349.839 161.974C350.945 163.08 352.739 163.08 353.845 161.974Z" fill="#DADADA"/>
<path d="M438.955 127.709C440.345 125.535 439.708 122.647 437.534 121.257C435.36 119.868 432.472 120.504 431.082 122.678C429.693 124.852 430.329 127.741 432.503 129.13C434.677 130.519 437.566 129.883 438.955 127.709Z" fill="#DADADA"/>
<path d="M363.904 284.607C363.904 283.315 364.948 282.271 366.215 282.271C367.508 282.271 368.551 283.315 368.551 284.583C368.551 285.85 367.508 286.918 366.24 286.918C364.948 286.918 363.904 285.875 363.904 284.607Z" fill="#DADADA"/>
<path d="M454.862 325.913C456.151 325.871 457.163 324.792 457.121 323.503C457.08 322.214 456.001 321.202 454.712 321.243C453.422 321.285 452.411 322.364 452.452 323.653C452.493 324.943 453.572 325.954 454.862 325.913Z" fill="#DADADA"/>
<path d="M361.127 363.774C363.068 361.833 363.068 358.686 361.127 356.745C359.186 354.805 356.039 354.805 354.098 356.745C352.157 358.686 352.157 361.833 354.098 363.774C356.039 365.715 359.186 365.715 361.127 363.774Z" fill="#DADADA"/>
<path d="M424.703 286.634C425.918 284.173 424.908 281.193 422.447 279.977C419.986 278.762 417.005 279.773 415.79 282.234C414.575 284.695 415.585 287.676 418.046 288.891C420.508 290.106 423.488 289.096 424.703 286.634Z" fill="#DADADA"/>
<path d="M361.371 419.493C361.371 418.201 362.415 417.157 363.682 417.157C364.974 417.157 366.018 418.201 366.018 419.468C366.018 420.76 364.974 421.804 363.707 421.804C362.44 421.804 361.396 420.76 361.371 419.493Z" fill="#DADADA"/>
<path d="M452.693 402.992C452.693 401.7 453.737 400.656 455.004 400.656C456.297 400.656 457.34 401.7 457.34 402.967C457.34 404.259 456.297 405.303 455.029 405.303C453.737 405.303 452.693 404.259 452.693 402.992Z" fill="#DADADA"/>
<path d="M389.996 397.178C389.996 395.886 391.04 394.842 392.307 394.842C393.599 394.842 394.643 395.885 394.643 397.153C394.643 398.445 393.599 399.489 392.332 399.489C391.04 399.514 389.996 398.47 389.996 397.178Z" fill="#DADADA"/>
<path d="M326.985 459.906C328.274 459.864 329.286 458.786 329.245 457.496C329.203 456.207 328.124 455.195 326.835 455.236C325.545 455.278 324.534 456.357 324.575 457.646C324.616 458.936 325.695 459.947 326.985 459.906Z" fill="#DADADA"/>
<path d="M358.464 440.231C359.71 439.897 360.45 438.616 360.116 437.369C359.781 436.123 358.5 435.384 357.254 435.718C356.008 436.052 355.269 437.333 355.603 438.579C355.937 439.826 357.218 440.565 358.464 440.231Z" fill="#DADADA"/>
<path d="M247.359 351.155C247.359 349.863 248.403 348.819 249.67 348.819C250.963 348.819 252.006 349.863 252.006 351.13C252.006 352.423 250.963 353.466 249.695 353.466C248.428 353.466 247.359 352.447 247.359 351.155Z" fill="#DADADA"/>
<path d="M178.525 405.925C178.525 404.633 179.569 403.589 180.836 403.589C182.129 403.589 183.172 404.633 183.172 405.9C183.172 407.192 182.129 408.236 180.861 408.236C179.569 408.236 178.525 407.192 178.525 405.925Z" fill="#DADADA"/>
<path d="M48.7559 380.031C48.7559 378.739 49.7996 377.695 51.0669 377.695C52.3591 377.695 53.4028 378.739 53.4028 380.006C53.4028 381.299 52.3591 382.342 51.0918 382.342C49.7996 382.367 48.7559 381.323 48.7559 380.031Z" fill="#DADADA"/>
<path d="M32.8173 293.029C32.9944 291.751 32.1021 290.572 30.8243 290.394C29.5465 290.217 28.367 291.11 28.1899 292.387C28.0127 293.665 28.905 294.845 30.1829 295.022C31.4607 295.199 32.6402 294.307 32.8173 293.029Z" fill="#DADADA"/>
<path d="M27.9824 219.426C27.9824 218.134 29.0261 217.09 30.2935 217.09C31.5857 217.09 32.6294 218.134 32.6294 219.401C32.6294 220.693 31.5857 221.737 30.3183 221.737C29.0261 221.737 27.9824 220.693 27.9824 219.426Z" fill="#DADADA"/>
<path d="M71.1208 188.19C69.9777 188.761 68.5861 188.289 68.0145 187.146C67.443 186.003 67.9151 184.611 69.0582 184.04C70.2013 183.468 71.5929 183.94 72.1644 185.084C72.736 186.227 72.2639 187.618 71.1208 188.19Z" fill="#DADADA"/>
<path d="M73.4562 168.262C74.5816 167.631 74.9828 166.208 74.3522 165.082C73.7216 163.957 72.2981 163.556 71.1726 164.186C70.0471 164.817 69.646 166.241 70.2766 167.366C70.9071 168.491 72.3307 168.893 73.4562 168.262Z" fill="#DADADA"/>
<path d="M141.998 61.0603C143.26 60.7909 144.064 59.5499 143.795 58.2883C143.525 57.0267 142.284 56.2224 141.023 56.4918C139.761 56.7611 138.957 58.0022 139.226 59.2638C139.495 60.5253 140.736 61.3297 141.998 61.0603Z" fill="#DADADA"/>
<path d="M36.7028 78.1283C35.5597 78.6999 34.1681 78.2277 33.5965 77.0846C33.025 75.9415 33.4971 74.5499 34.6402 73.9784C35.7833 73.4068 37.1749 73.879 37.7465 75.0221C38.318 76.1652 37.8459 77.5568 36.7028 78.1283Z" fill="#DADADA"/>
<path d="M86.2555 12.0775C85.1124 12.6491 83.7208 12.1769 83.1493 11.0338C82.5777 9.89074 83.0499 8.49914 84.193 7.92759C85.3361 7.35604 86.7277 7.82819 87.2992 8.97129C87.8956 10.1144 87.4235 11.506 86.2555 12.0775Z" fill="#DADADA"/>
<path d="M93.4352 202.304C92.2921 202.876 90.9005 202.404 90.329 201.26C89.7574 200.117 90.2296 198.726 91.3727 198.154C92.5158 197.583 93.9074 198.055 94.4789 199.198C95.0505 200.341 94.5783 201.733 93.4352 202.304Z" fill="#DADADA"/>
<path d="M152.916 242.83C155.465 242.219 157.036 239.657 156.424 237.108C155.812 234.559 153.25 232.988 150.701 233.6C148.152 234.211 146.582 236.773 147.193 239.322C147.805 241.871 150.367 243.442 152.916 242.83Z" fill="#DADADA"/>
<path d="M199.313 204.048C200.786 202.925 201.069 200.819 199.946 199.346C198.822 197.873 196.717 197.589 195.244 198.713C193.771 199.836 193.487 201.941 194.61 203.415C195.734 204.888 197.839 205.172 199.313 204.048Z" fill="#DADADA"/>
<path d="M188.289 123.529C186.624 124.349 184.611 123.678 183.791 122.013C182.971 120.348 183.642 118.335 185.307 117.515C186.972 116.695 188.984 117.366 189.804 119.031C190.625 120.696 189.929 122.709 188.289 123.529Z" fill="#DADADA"/>
<path d="M201.988 299.276C205.55 298.691 207.963 295.329 207.378 291.767C206.793 288.205 203.431 285.792 199.869 286.377C196.307 286.962 193.894 290.324 194.479 293.886C195.064 297.448 198.426 299.861 201.988 299.276Z" fill="#DADADA"/>
<path d="M26.2074 424.5C27.4586 424.186 28.2184 422.917 27.9044 421.666C27.5904 420.414 26.3215 419.655 25.0703 419.969C23.819 420.283 23.0592 421.551 23.3732 422.803C23.6872 424.054 24.9561 424.814 26.2074 424.5Z" fill="#DADADA"/>
<path d="M142.547 352.037C144.546 350.038 144.546 346.796 142.547 344.797C140.548 342.798 137.306 342.798 135.307 344.797C133.308 346.796 133.308 350.038 135.307 352.037C137.306 354.036 140.548 354.036 142.547 352.037Z" fill="#DADADA"/>
<path d="M80.0102 295.608C81.7084 293.91 81.7084 291.156 80.0102 289.458C78.3119 287.76 75.5584 287.76 73.8602 289.458C72.1619 291.156 72.1619 293.91 73.8602 295.608C75.5584 297.306 78.3119 297.306 80.0102 295.608Z" fill="#DADADA"/>
<path d="M59.5664 237.094C59.5664 234.684 61.5047 232.746 63.9152 232.721C66.3256 232.721 68.2639 234.659 68.2888 237.069C68.2888 239.48 66.3505 241.418 63.94 241.443C61.5296 241.443 59.5664 239.505 59.5664 237.094Z" fill="#DADADA"/>
<path d="M180.959 392.009L180.885 391.959L73.7565 341.662L73.8311 341.563L137.049 238.535L54.8457 142.614L117.393 69.6544L54.9948 63.8146L55.0197 63.5661L117.89 69.4556L117.741 69.6295L55.1688 142.614L137.373 238.51L137.323 238.61L74.1045 341.563L180.885 391.71L253.969 312.762L254.043 312.812L322.505 346.707L386.494 306.872L386.543 306.972L426.875 383.733L465.219 298.597L357.519 229.415L432.566 175.242L371.261 119.156L371.335 119.056L444.891 34.4419L310.826 36.4051L260.231 116.049L260.132 115.975L209.512 89.8574V89.7829L202.355 33.7958L151.835 29.1986L183.469 9.41797L183.594 9.64162L152.606 28.9998L202.579 33.5473V33.6467L209.736 89.7083L260.156 115.701L310.701 36.1566H310.751L445.438 34.1934L445.264 34.3922L371.609 119.131L432.963 175.267L357.966 229.39L465.542 298.523L426.9 384.305L426.776 384.081L386.394 307.22L322.505 346.98L322.455 346.955L254.018 313.06L180.959 392.009Z" fill="#00344A"/>
<path d="M423.745 458.01L423.546 457.836L367.385 408.857L367.41 408.782L386.321 307.096L312.218 266.218L254.144 312.961V313.035H254.069L254.044 313.06L253.995 313.035L157.651 307.171L181.109 391.909L181.01 391.959L75.9443 443.324L75.8449 443.1L180.786 391.785L157.278 306.897H157.452L253.522 312.737L137.175 238.659L26.791 256.949L26.8407 256.775L54.9212 142.54L54.9709 142.515L152.259 106.606L152.308 106.656L207.028 162.022L260.157 115.751H260.207L371.759 119.031L371.535 119.23L309.137 174.472L432.865 175.118L432.89 175.217L445.737 230.707L479.334 248.425L479.309 248.525L465.468 298.672H465.393L437.089 301.704L427.025 384.032L423.745 458.01ZM367.658 408.782L423.521 457.488L426.777 384.032L436.841 301.753L386.544 307.146L367.658 408.782ZM137.249 238.411L137.299 238.436L253.895 312.687V234.012L206.929 162.27L152.184 106.88L55.12 142.713L27.1141 256.651L137.249 238.411ZM254.119 234.186V312.663L311.97 266.094L254.119 234.186ZM357.917 229.539L386.52 306.922L436.866 301.505L445.489 230.931L357.917 229.539ZM312.417 266.044L386.221 306.773L357.669 229.614L312.417 266.044ZM445.737 231.006L437.114 301.48L465.294 298.448L479.061 248.574L445.737 231.006ZM254.193 233.938L312.168 265.92L357.544 229.39L308.789 174.795L254.193 233.938ZM207.277 162.345L254.019 233.764L308.54 174.695L207.277 162.345ZM357.793 229.266L445.489 230.658L432.666 175.342L309.087 174.695L357.793 229.266ZM207.326 162.121L308.515 174.447L260.182 116.049L207.326 162.121ZM260.48 116L308.839 174.397L371.137 119.23L260.48 116Z" fill="#00344A"/>
<path d="M367.782 408.981L367.509 408.931L291.369 400.309L291.319 400.259L253.82 312.787H253.994L386.37 306.922L445.538 230.732L479.061 175.192L458.733 87.8446L458.982 87.7949L479.334 175.242L479.309 175.267L445.737 230.856L386.494 307.171H386.445L254.193 313.035L291.518 400.085L367.261 408.658L322.406 346.906L322.605 346.757L367.782 408.981Z" fill="#00344A"/>
<path d="M308.93 174.594L308.682 174.604L312.064 266.087L312.312 266.078L308.93 174.594Z" fill="#00344A"/>
<path d="M157.552 307.071L157.304 306.996L184.241 214.778L137.051 238.733L137.076 238.51L152.085 106.73L146.022 47.1399L146.121 47.1151L202.431 33.547L265.053 15.2822L265.128 15.5307L202.506 33.7955L146.32 47.3387L152.334 106.73V106.755L137.374 238.311L184.266 214.505L159.59 182.026L254.989 234.36L184.539 214.703L157.552 307.071ZM184.539 214.43L253.001 233.54L160.509 182.821L184.539 214.43Z" fill="#00344A"/>
<path d="M29.8472 398.718L29.6484 398.544L73.8069 341.563L88.9654 182.25H89.0896L160.036 182.3V182.548L89.189 182.498L74.0554 341.663L74.0305 341.688L29.8472 398.718Z" fill="#00344A"/>
<path d="M73.8804 341.787L26.8145 256.8L26.8642 256.725L152.158 106.631L209.363 89.7333L146.094 47.3392L146.244 47.1404L209.611 89.609L265.051 15.2578L265.151 15.3075L310.85 36.2064L310.875 36.2312L329.363 61.4788L445.264 34.1935L445.288 34.3178L459.006 87.9192L458.906 87.9689L371.385 119.28L371.335 119.205L329.264 61.7522L209.76 89.8824L207.151 162.27L207.076 162.295L160.16 182.498L137.372 238.51L157.625 307.071L157.525 307.121L73.8804 341.787ZM27.1127 256.825L74.0046 341.464L157.302 306.972L137.099 238.535L137.124 238.485L159.986 182.324L160.035 182.299L206.927 162.096L209.512 89.9569L152.307 106.855L27.1127 256.825ZM329.512 61.6776L371.484 118.982L458.707 87.7453L445.065 34.4669L329.512 61.6776ZM265.126 15.556L209.934 89.5842L329.09 61.5285L310.676 36.3803L265.126 15.556Z" fill="#00344A"/>
<path d="M367.557 408.931L367.482 408.708L426.874 383.907H426.924L473.443 391.735L473.418 391.983L426.899 384.156L367.557 408.931Z" fill="#00344A"/>
<path d="M432.59 175.366L432.64 175.217L458.757 87.7701L484.328 45.5996L484.551 45.7239L458.981 87.8695L432.938 175.118L479.208 175.093V175.341L432.59 175.366Z" fill="#00344A"/>
<path d="M253.962 233.855L171.094 260.003L171.169 260.24L254.037 234.092L253.962 233.855Z" fill="#00344A"/>
<path d="M253.992 239.082C256.819 239.082 259.111 236.79 259.111 233.963C259.111 231.136 256.819 228.844 253.992 228.844C251.165 228.844 248.873 231.136 248.873 233.963C248.873 236.79 251.165 239.082 253.992 239.082Z" fill="#00344A"/>
<path d="M257.797 313.734C258.292 311.637 256.994 309.535 254.897 309.04C252.8 308.545 250.698 309.843 250.203 311.94C249.708 314.037 251.007 316.139 253.104 316.634C255.201 317.129 257.302 315.83 257.797 313.734Z" fill="#00344A"/>
<path d="M293.605 402.181C294.75 401.036 294.75 399.179 293.605 398.034C292.46 396.889 290.603 396.889 289.458 398.034C288.313 399.179 288.313 401.036 289.458 402.181C290.603 403.326 292.46 403.326 293.605 402.181Z" fill="#00344A"/>
<path d="M180.587 395.761C182.742 395.761 184.488 394.014 184.488 391.859C184.488 389.705 182.742 387.958 180.587 387.958C178.432 387.958 176.686 389.705 176.686 391.859C176.686 394.014 178.432 395.761 180.587 395.761Z" fill="#00344A"/>
<path d="M391.459 307.857C391.912 305.066 390.017 302.436 387.226 301.983C384.436 301.531 381.806 303.426 381.353 306.216C380.9 309.007 382.796 311.637 385.586 312.09C388.377 312.543 391.006 310.647 391.459 307.857Z" fill="#00344A"/>
<path d="M465.393 303.269C468.22 303.269 470.512 300.978 470.512 298.15C470.512 295.323 468.22 293.031 465.393 293.031C462.565 293.031 460.273 295.323 460.273 298.15C460.273 300.978 462.565 303.269 465.393 303.269Z" fill="#00344A"/>
<path d="M427.322 389.151C430.149 389.151 432.441 386.859 432.441 384.032C432.441 381.205 430.149 378.913 427.322 378.913C424.495 378.913 422.203 381.205 422.203 384.032C422.203 386.859 424.495 389.151 427.322 389.151Z" fill="#00344A"/>
<path d="M139.202 243.042C141.809 241.946 143.033 238.945 141.938 236.339C140.842 233.733 137.841 232.508 135.235 233.603C132.629 234.699 131.404 237.7 132.499 240.306C133.595 242.913 136.596 244.137 139.202 243.042Z" fill="#00344A"/>
<path d="M26.9385 260.801C29.2442 260.801 31.1133 258.932 31.1133 256.626C31.1133 254.32 29.2442 252.451 26.9385 252.451C24.6328 252.451 22.7637 254.32 22.7637 256.626C22.7637 258.932 24.6328 260.801 26.9385 260.801Z" fill="#00344A"/>
<path d="M162.353 184.703C163.634 183.422 163.634 181.345 162.353 180.064C161.072 178.783 158.995 178.783 157.714 180.064C156.433 181.345 156.433 183.422 157.714 184.703C158.995 185.984 161.072 185.984 162.353 184.703Z" fill="#00344A"/>
<path d="M209.515 164.576C210.796 163.295 210.796 161.218 209.515 159.937C208.234 158.656 206.157 158.656 204.876 159.937C203.595 161.218 203.595 163.295 204.876 164.576C206.157 165.857 208.234 165.857 209.515 164.576Z" fill="#00344A"/>
<path d="M212.629 90.3865C213.012 88.6159 211.888 86.8699 210.117 86.4867C208.346 86.1035 206.6 87.2283 206.217 88.999C205.834 90.7697 206.959 92.5157 208.73 92.8988C210.5 93.282 212.246 92.1572 212.629 90.3865Z" fill="#00344A"/>
<path d="M313.742 36.9755C314.158 35.2124 313.066 33.4457 311.303 33.0294C309.54 32.6131 307.774 33.7048 307.357 35.4679C306.941 37.2309 308.033 38.9976 309.796 39.4139C311.559 39.8303 313.326 38.7385 313.742 36.9755Z" fill="#00344A"/>
<path d="M448.17 37.9051C449.878 36.1971 449.878 33.4279 448.17 31.7199C446.462 30.012 443.693 30.012 441.985 31.7199C440.277 33.4279 440.277 36.1971 441.985 37.9051C443.693 39.6131 446.462 39.6131 448.17 37.9051Z" fill="#00344A"/>
<path d="M291.828 71.7674C292.244 70.0044 291.152 68.2377 289.389 67.8214C287.626 67.405 285.86 68.4968 285.443 70.2598C285.027 72.0229 286.119 73.7896 287.882 74.2059C289.645 74.6222 291.412 73.5305 291.828 71.7674Z" fill="#00344A"/>
<path d="M267.419 17.7179C268.7 16.4369 268.7 14.36 267.419 13.079C266.138 11.798 264.061 11.798 262.78 13.079C261.499 14.36 261.499 16.4369 262.78 17.7179C264.061 18.9989 266.138 18.9988 267.419 17.7179Z" fill="#00344A"/>
<path d="M204.544 35.922C205.825 34.641 205.825 32.5641 204.544 31.2831C203.263 30.0021 201.186 30.0021 199.905 31.2831C198.624 32.5641 198.624 34.641 199.905 35.922C201.186 37.203 203.263 37.203 204.544 35.922Z" fill="#00344A"/>
<path d="M187.427 215.061C187.762 213.28 186.59 211.566 184.809 211.231C183.029 210.896 181.314 212.068 180.979 213.848C180.644 215.629 181.816 217.344 183.597 217.678C185.377 218.013 187.092 216.841 187.427 215.061Z" fill="#00344A"/>
<path d="M85.8985 248.281C86.3171 246.518 85.2277 244.75 83.4652 244.331C81.7027 243.913 79.9345 245.002 79.5159 246.765C79.0972 248.527 80.1866 250.295 81.9491 250.714C83.7116 251.133 85.4798 250.043 85.8985 248.281Z" fill="#00344A"/>
<path d="M32.9629 399.389C33.3769 397.626 32.2826 395.86 30.5188 395.446C28.755 395.032 26.9896 396.127 26.5757 397.89C26.1617 399.654 27.256 401.42 29.0198 401.834C30.7835 402.247 32.549 401.153 32.9629 399.389Z" fill="#00344A"/>
<path d="M79.5976 443.918C80.0021 442.152 78.8986 440.393 77.1328 439.988C75.3671 439.584 73.6077 440.687 73.2032 442.453C72.7986 444.219 73.9021 445.978 75.6679 446.383C77.4337 446.787 79.193 445.684 79.5976 443.918Z" fill="#00344A"/>
<path d="M170.869 262.392C172.159 262.392 173.205 261.346 173.205 260.056C173.205 258.766 172.159 257.72 170.869 257.72C169.579 257.72 168.533 258.766 168.533 260.056C168.533 261.346 169.579 262.392 170.869 262.392Z" fill="#00344A"/>
<path d="M158.551 309.678C159.998 309.084 160.689 307.428 160.095 305.981C159.5 304.534 157.845 303.843 156.398 304.437C154.951 305.032 154.259 306.687 154.854 308.134C155.448 309.581 157.104 310.273 158.551 309.678Z" fill="#00344A"/>
<path d="M74.2284 346.285C76.8086 346.285 78.9002 344.193 78.9002 341.613C78.9002 339.033 76.8086 336.941 74.2284 336.941C71.6483 336.941 69.5566 339.033 69.5566 341.613C69.5566 344.193 71.6483 346.285 74.2284 346.285Z" fill="#00344A"/>
<path d="M143.461 184.71C144.751 184.71 145.797 183.664 145.797 182.374C145.797 181.084 144.751 180.038 143.461 180.038C142.171 180.038 141.125 181.084 141.125 182.374C141.125 183.664 142.171 184.71 143.461 184.71Z" fill="#00344A"/>
<path d="M54.9941 145.497C56.2842 145.497 57.33 144.451 57.33 143.161C57.33 141.871 56.2842 140.825 54.9941 140.825C53.704 140.825 52.6582 141.871 52.6582 143.161C52.6582 144.451 53.704 145.497 54.9941 145.497Z" fill="#00344A"/>
<path d="M157.083 107.891C157.719 105.221 156.07 102.541 153.4 101.905C150.729 101.269 148.049 102.918 147.413 105.588C146.777 108.258 148.426 110.938 151.097 111.574C153.767 112.21 156.447 110.561 157.083 107.891Z" fill="#00344A"/>
<path d="M94.2775 183.52C94.9028 180.847 93.2431 178.174 90.5704 177.548C87.8978 176.923 85.2242 178.583 84.599 181.255C83.9737 183.928 85.6334 186.602 88.3061 187.227C90.9788 187.852 93.6523 186.192 94.2775 183.52Z" fill="#00344A"/>
<path d="M148.002 49.1703C148.914 48.258 148.914 46.7791 148.002 45.8668C147.09 44.9546 145.611 44.9546 144.699 45.8668C143.786 46.7791 143.786 48.2581 144.699 49.1703C145.611 50.0825 147.09 50.0825 148.002 49.1703Z" fill="#00344A"/>
<path d="M54.9941 66.0761C56.2842 66.0761 57.33 65.0303 57.33 63.7402C57.33 62.4501 56.2842 61.4043 54.9941 61.4043C53.704 61.4043 52.6582 62.4501 52.6582 63.7402C52.6582 65.0303 53.704 66.0761 54.9941 66.0761Z" fill="#00344A"/>
<path d="M117.689 72.0654C118.979 72.0654 120.025 71.0195 120.025 69.7295C120.025 68.4394 118.979 67.3936 117.689 67.3936C116.399 67.3936 115.354 68.4394 115.354 69.7295C115.354 71.0195 116.399 72.0654 117.689 72.0654Z" fill="#00344A"/>
<path d="M183.268 11.8534C184.558 11.8534 185.603 10.8076 185.603 9.51754C185.603 8.22746 184.558 7.18164 183.268 7.18164C181.977 7.18164 180.932 8.22746 180.932 9.51754C180.932 10.8076 181.977 11.8534 183.268 11.8534Z" fill="#00344A"/>
<path d="M152.258 31.3603C153.548 31.3603 154.594 30.3145 154.594 29.0244C154.594 27.7343 153.548 26.6885 152.258 26.6885C150.968 26.6885 149.922 27.7343 149.922 29.0244C149.922 30.3145 150.968 31.3603 152.258 31.3603Z" fill="#00344A"/>
<path d="M260.203 118.484C261.493 118.484 262.539 117.438 262.539 116.148C262.539 114.858 261.493 113.812 260.203 113.812C258.913 113.812 257.867 114.858 257.867 116.148C257.867 117.438 258.913 118.484 260.203 118.484Z" fill="#00344A"/>
<path d="M331.488 61.9446C331.694 60.6712 330.83 59.4713 329.556 59.2646C328.283 59.058 327.083 59.9228 326.876 61.1962C326.669 62.4697 327.534 63.6695 328.808 63.8762C330.081 64.0828 331.281 63.2181 331.488 61.9446Z" fill="#00344A"/>
<path d="M458.855 90.1562C460.146 90.1562 461.191 89.1104 461.191 87.8203C461.191 86.5302 460.146 85.4844 458.855 85.4844C457.565 85.4844 456.52 86.5302 456.52 87.8203C456.52 89.1104 457.565 90.1562 458.855 90.1562Z" fill="#00344A"/>
<path d="M479.207 177.554C480.497 177.554 481.543 176.508 481.543 175.218C481.543 173.928 480.497 172.882 479.207 172.882C477.917 172.882 476.871 173.928 476.871 175.218C476.871 176.508 477.917 177.554 479.207 177.554Z" fill="#00344A"/>
<path d="M479.207 250.836C480.497 250.836 481.543 249.79 481.543 248.5C481.543 247.21 480.497 246.164 479.207 246.164C477.917 246.164 476.871 247.21 476.871 248.5C476.871 249.79 477.917 250.836 479.207 250.836Z" fill="#00344A"/>
<path d="M440.978 283.359C441.898 282.455 441.911 280.976 441.007 280.056C440.103 279.135 438.624 279.122 437.704 280.026C436.783 280.93 436.77 282.409 437.674 283.33C438.578 284.25 440.057 284.263 440.978 283.359Z" fill="#00344A"/>
<path d="M437.584 303.827C438.833 303.504 439.583 302.23 439.26 300.981C438.937 299.732 437.663 298.981 436.414 299.305C435.165 299.628 434.414 300.902 434.737 302.151C435.061 303.4 436.335 304.15 437.584 303.827Z" fill="#00344A"/>
<path d="M367.531 411.168C368.821 411.168 369.867 410.122 369.867 408.832C369.867 407.542 368.821 406.496 367.531 406.496C366.241 406.496 365.195 407.542 365.195 408.832C365.195 410.122 366.241 411.168 367.531 411.168Z" fill="#00344A"/>
<path d="M472.399 389.772C473.542 389.2 474.934 389.672 475.506 390.84C476.077 391.983 475.605 393.375 474.437 393.947C473.294 394.518 471.902 394.046 471.331 392.878C470.784 391.735 471.256 390.343 472.399 389.772Z" fill="#00344A"/>
<path d="M425.145 459.553C426.143 458.735 426.289 457.263 425.471 456.265C424.653 455.268 423.181 455.122 422.183 455.94C421.186 456.758 421.04 458.23 421.858 459.227C422.676 460.225 424.148 460.371 425.145 459.553Z" fill="#00344A"/>
<path d="M417.033 269.847C418.323 269.847 419.369 268.801 419.369 267.511C419.369 266.221 418.323 265.175 417.033 265.175C415.743 265.175 414.697 266.221 414.697 267.511C414.697 268.801 415.743 269.847 417.033 269.847Z" fill="#00344A"/>
<path d="M362.35 230.528C362.994 227.987 361.456 225.405 358.915 224.761C356.374 224.118 353.792 225.656 353.148 228.197C352.504 230.738 354.042 233.32 356.584 233.964C359.125 234.607 361.707 233.069 362.35 230.528Z" fill="#00344A"/>
<path d="M315.496 266.544C315.755 264.71 314.479 263.012 312.644 262.753C310.81 262.493 309.112 263.77 308.853 265.604C308.593 267.439 309.87 269.136 311.704 269.396C313.539 269.655 315.236 268.379 315.496 266.544Z" fill="#00344A"/>
<path d="M324.058 349.919C325.678 349.02 326.264 346.979 325.366 345.358C324.468 343.737 322.426 343.152 320.805 344.05C319.185 344.948 318.599 346.99 319.497 348.61C320.395 350.231 322.437 350.817 324.058 349.919Z" fill="#00344A"/>
<path d="M308.811 181.132C312.42 181.132 315.346 178.206 315.346 174.596C315.346 170.987 312.42 168.061 308.811 168.061C305.201 168.061 302.275 170.987 302.275 174.596C302.275 178.206 305.201 181.132 308.811 181.132Z" fill="#00344A"/>
<path d="M484.453 48.0097C485.743 48.0097 486.789 46.9639 486.789 45.6738C486.789 44.3837 485.743 43.3379 484.453 43.3379C483.163 43.3379 482.117 44.3837 482.117 45.6738C482.117 46.9639 483.163 48.0097 484.453 48.0097Z" fill="#00344A"/>
<path d="M370.937 124.3C373.765 124.3 376.057 122.008 376.057 119.181C376.057 116.353 373.765 114.062 370.937 114.062C368.11 114.062 365.818 116.353 365.818 119.181C365.818 122.008 368.11 124.3 370.937 124.3Z" fill="#00344A"/>
<path d="M437.063 175.942C437.448 173.572 435.838 171.338 433.467 170.953C431.096 170.568 428.863 172.178 428.478 174.549C428.093 176.92 429.703 179.154 432.074 179.538C434.445 179.923 436.678 178.313 437.063 175.942Z" fill="#00344A"/>
<path d="M445.636 235.081C448.038 235.081 449.985 233.134 449.985 230.733C449.985 228.331 448.038 226.384 445.636 226.384C443.234 226.384 441.287 228.331 441.287 230.733C441.287 233.134 443.234 235.081 445.636 235.081Z" fill="#00344A"/>
</svg>
