<svg width="40" height="40" viewBox="0 0 40 40" fill="none" xmlns="http://www.w3.org/2000/svg">
<g clip-path="url(#clip0_122_51872)">
<path d="M38.534 12.5011H20.0015C15.8596 12.497 12.4985 15.8514 12.4944 19.9933C12.4931 21.2798 12.8228 22.545 13.4518 23.6672L4.18555 7.76794C10.9347 -0.967217 23.4873 -2.57714 32.2224 4.17201C35.0277 6.33949 37.206 9.21412 38.534 12.5011Z" fill="#F44336"/>
<path d="M39.999 20.0006C39.9898 31.042 31.0413 39.9905 19.9999 39.9997C19.1637 40.0029 18.3283 39.9472 17.5 39.8331L26.4996 23.7505C28.5622 20.1597 27.3327 15.577 23.7497 13.5009C22.6153 12.8442 21.3273 12.4991 20.0165 12.501H38.5323C39.5056 14.8813 40.0038 17.429 39.999 20.0006Z" fill="#FFC107"/>
<path d="M26.5004 23.7502L17.5008 39.8329H17.4842C6.53246 38.4492 -1.2239 28.4493 0.159783 17.4976C0.607653 13.9528 1.99751 10.5929 4.18476 7.76758L13.451 23.6669L13.501 23.7502C15.5674 27.3399 20.1525 28.5748 23.7422 26.5085C24.8888 25.8484 25.8404 24.8968 26.5004 23.7502Z" fill="#4CAF50"/>
<path d="M26.5003 23.7506C24.4339 27.3402 19.8488 28.5751 16.2591 26.5088C15.1125 25.8487 14.1609 24.8971 13.5009 23.7506L13.4509 23.6672C11.4259 20.054 12.7135 15.4833 16.3267 13.4584C17.449 12.8294 18.7142 12.4997 20.0006 12.501H20.0172C21.328 12.4991 22.616 12.8442 23.7504 13.5009C27.3335 15.5771 28.563 20.1598 26.5003 23.7506Z" fill="#F44336"/>
<path d="M26.5003 23.7506C24.4339 27.3402 19.8488 28.5751 16.2591 26.5088C15.1125 25.8487 14.1609 24.8971 13.5009 23.7506L13.4509 23.6672C11.4259 20.054 12.7135 15.4833 16.3267 13.4584C17.449 12.8294 18.7142 12.4997 20.0006 12.501H20.0172C21.328 12.4991 22.616 12.8442 23.7504 13.5009C27.3335 15.5771 28.563 20.1598 26.5003 23.7506Z" fill="#2196F3"/>
<path d="M19.9729 28.3339C18.52 28.3337 17.0927 27.9508 15.8348 27.2239C14.5663 26.4903 13.5128 25.4363 12.7799 24.1674C10.4788 20.1818 11.8444 15.0855 15.83 12.7844C17.0981 12.0523 18.5369 11.6672 20.0013 11.668C24.6034 11.6644 28.3372 15.3923 28.3407 19.9945C28.3419 21.4594 27.9567 22.8987 27.2242 24.1674C25.7224 26.7493 22.9598 28.3367 19.9729 28.3339ZM20.0162 13.3345C17.6247 13.3218 15.4106 14.5946 14.2181 16.6677C12.3773 19.8598 13.4726 23.9398 16.6646 25.7807C19.8567 27.6216 23.9367 26.5262 25.7776 23.3342C27.6184 20.1457 26.526 16.0686 23.3375 14.2277C22.3281 13.6449 21.1834 13.337 20.0179 13.3346L20.0162 13.3345Z" fill="#FAFAFA"/>
</g>
<defs>
<clipPath id="clip0_122_51872">
<rect width="40" height="40" fill="white"/>
</clipPath>
</defs>
</svg>
