<svg width="40" height="40" viewBox="0 0 40 40" fill="none" xmlns="http://www.w3.org/2000/svg">
<g clip-path="url(#clip0_122_51847)">
<path d="M35.9658 7.87562C34.4276 5.85367 32.5411 4.18968 30.4224 2.92242C30.3257 2.86437 30.1999 2.88375 30.1128 2.96109C29.9967 3.07718 30.0258 3.26101 30.1515 3.34804C34.0792 5.89242 37.1073 9.99429 37.8135 15.4699C39.2647 26.5953 31.4962 35.8827 20.5643 35.9117C8.54891 35.9504 1.23516 25.328 3.15063 15.7891C3.24735 15.3151 3.19899 14.8507 3.35376 14.396C3.44079 12.7223 4.0793 10.0909 5.45305 7.40148C4.06961 8.11734 2.30891 10.3812 1.43821 12.4708C0.18063 15.4893 -0.254683 19.0978 0.141958 22.5321C0.170942 22.7933 0.200005 23.0448 0.228989 23.306C1.84461 32.7675 10.0871 39.9652 20.0032 39.9458C31.0513 39.9264 40.0483 30.8616 39.9902 19.8039C39.9709 15.3344 38.4715 11.2036 35.9658 7.87562Z" fill="url(#paint0_radial_122_51847)"/>
<path opacity="0.67" d="M35.9658 7.87562C34.4276 5.85367 32.5411 4.18968 30.4224 2.92242C30.3257 2.86437 30.1999 2.88375 30.1128 2.96109C29.9967 3.07718 30.0258 3.26101 30.1515 3.34804C34.0792 5.89242 37.1073 9.99429 37.8135 15.4699C39.2647 26.5953 31.4962 35.8827 20.5643 35.9117C8.54891 35.9504 1.23516 25.328 3.15063 15.7891C3.24735 15.3151 3.19899 14.8507 3.35376 14.396C3.44079 12.7223 4.0793 10.0909 5.45305 7.40148C4.06961 8.11734 2.30891 10.3812 1.43821 12.4708C0.18063 15.4893 -0.254683 19.0978 0.141958 22.5321C0.170942 22.7933 0.200005 23.0448 0.228989 23.306C1.84461 32.7675 10.0871 39.9652 20.0032 39.9458C31.0513 39.9264 40.0483 30.8616 39.9902 19.8039C39.9709 15.3344 38.4715 11.2036 35.9658 7.87562Z" fill="url(#paint1_radial_122_51847)"/>
<path d="M35.9658 7.87562C34.4276 5.85367 32.5411 4.18968 30.4224 2.92242C30.3257 2.86437 30.1999 2.88375 30.1128 2.96109C29.9967 3.07718 30.0258 3.26101 30.1515 3.34804C34.0792 5.89242 37.1073 9.99429 37.8135 15.4699C39.2647 26.5953 31.4962 35.8827 20.5643 35.9117C8.54891 35.9504 1.23516 25.328 3.15063 15.7891C3.24735 15.3151 3.19899 14.8507 3.35376 14.396C3.44079 12.7223 4.0793 10.0909 5.45305 7.40148C4.06961 8.11734 2.30891 10.3812 1.43821 12.4708C0.18063 15.4893 -0.254683 19.0978 0.141958 22.5321C0.170942 22.7933 0.200005 23.0448 0.228989 23.306C1.84461 32.7675 10.0871 39.9652 20.0032 39.9458C31.0513 39.9264 40.0483 30.8616 39.9902 19.8039C39.9709 15.3344 38.4715 11.2036 35.9658 7.87562Z" fill="url(#paint2_radial_122_51847)"/>
<path d="M35.9658 7.87562C34.4276 5.85367 32.5411 4.18968 30.4224 2.92242C30.3257 2.86437 30.1999 2.88375 30.1128 2.96109C29.9967 3.07718 30.0258 3.26101 30.1515 3.34804C34.0792 5.89242 37.1073 9.99429 37.8135 15.4699C39.2647 26.5953 31.4962 35.8827 20.5643 35.9117C8.54891 35.9504 1.23516 25.328 3.15063 15.7891C3.24735 15.3151 3.19899 14.8507 3.35376 14.396C3.44079 12.7223 4.0793 10.0909 5.45305 7.40148C4.06961 8.11734 2.30891 10.3812 1.43821 12.4708C0.18063 15.4893 -0.254683 19.0978 0.141958 22.5321C0.170942 22.7933 0.200005 23.0448 0.228989 23.306C1.84461 32.7675 10.0871 39.9652 20.0032 39.9458C31.0513 39.9264 40.0483 30.8616 39.9902 19.8039C39.9709 15.3344 38.4715 11.2036 35.9658 7.87562Z" fill="url(#paint3_radial_122_51847)"/>
<path d="M35.9658 7.87562C34.4276 5.85367 32.5411 4.18968 30.4224 2.92242C30.3257 2.86437 30.1999 2.88375 30.1128 2.96109C29.9967 3.07718 30.0258 3.26101 30.1515 3.34804C34.0792 5.89242 37.1073 9.99429 37.8135 15.4699C39.2647 26.5953 31.4962 35.8827 20.5643 35.9117C8.54891 35.9504 1.23516 25.328 3.15063 15.7891C3.24735 15.3151 3.19899 14.8507 3.35376 14.396C3.44079 12.7223 4.0793 10.0909 5.45305 7.40148C4.06961 8.11734 2.30891 10.3812 1.43821 12.4708C0.18063 15.4893 -0.254683 19.0978 0.141958 22.5321C0.170942 22.7933 0.200005 23.0448 0.228989 23.306C1.84461 32.7675 10.0871 39.9652 20.0032 39.9458C31.0513 39.9264 40.0483 30.8616 39.9902 19.8039C39.9709 15.3344 38.4715 11.2036 35.9658 7.87562Z" fill="url(#paint4_radial_122_51847)"/>
<path d="M38.307 14.9188C37.6588 9.09488 34.3889 5.11871 30.2097 2.79691C29.5131 2.40996 28.6328 2.57441 28.1297 3.19355L28.12 3.20324C32.8798 6.13457 35.8787 11.3296 36.0336 16.7472C36.2174 23.3354 30.8094 28.5886 24.5792 28.8885C20.0516 29.111 15.7853 26.9246 13.6956 22.5421C13.2312 21.565 12.8927 20.5782 12.7185 19.3786C11.7317 12.7227 16.2109 7.04386 20.3225 5.63144C18.1071 3.6966 12.5444 3.83199 8.41343 6.86972C5.43375 9.05613 3.4989 12.384 2.86039 16.3505C2.37664 19.3786 2.8314 22.5227 4.03101 25.3282C5.24999 28.1918 7.2332 30.7168 9.73882 32.5743C12.4477 34.5962 15.7175 35.7668 19.0842 36.0183C19.5776 36.057 20.0807 36.0764 20.5741 36.0764C33.7987 36.0957 39.5453 26.0732 38.307 14.9188Z" fill="url(#paint5_radial_122_51847)"/>
<path d="M38.307 14.9188C37.6588 9.09488 34.3889 5.11871 30.2097 2.79691C29.5131 2.40996 28.6328 2.57441 28.1297 3.19355L28.12 3.20324C32.8798 6.13457 35.8787 11.3296 36.0336 16.7472C36.2174 23.3354 30.8094 28.5886 24.5792 28.8885C20.0516 29.111 15.7853 26.9246 13.6956 22.5421C13.2312 21.565 12.8927 20.5782 12.7185 19.3786C11.7317 12.7227 16.2109 7.04386 20.3225 5.63144C18.1071 3.6966 12.5444 3.83199 8.41343 6.86972C5.43375 9.05613 3.4989 12.384 2.86039 16.3505C2.37664 19.3786 2.8314 22.5227 4.03101 25.3282C5.24999 28.1918 7.2332 30.7168 9.73882 32.5743C12.4477 34.5962 15.7175 35.7668 19.0842 36.0183C19.5776 36.057 20.0807 36.0764 20.5741 36.0764C33.7987 36.0957 39.5453 26.0732 38.307 14.9188Z" fill="url(#paint6_radial_122_51847)"/>
<path opacity="0.53" d="M38.307 14.9188C37.6588 9.09488 34.3889 5.11871 30.2097 2.79691C29.5131 2.40996 28.6328 2.57441 28.1297 3.19355L28.12 3.20324C32.8798 6.13457 35.8787 11.3296 36.0336 16.7472C36.2174 23.3354 30.8094 28.5886 24.5792 28.8885C20.0516 29.111 15.7853 26.9246 13.6956 22.5421C13.2312 21.565 12.8927 20.5782 12.7185 19.3786C11.7317 12.7227 16.2109 7.04386 20.3225 5.63144C18.1071 3.6966 12.5444 3.83199 8.41343 6.86972C5.43375 9.05613 3.4989 12.384 2.86039 16.3505C2.37664 19.3786 2.8314 22.5227 4.03101 25.3282C5.24999 28.1918 7.2332 30.7168 9.73882 32.5743C12.4477 34.5962 15.7175 35.7668 19.0842 36.0183C19.5776 36.057 20.0807 36.0764 20.5741 36.0764C33.7987 36.0957 39.5453 26.0732 38.307 14.9188Z" fill="url(#paint7_radial_122_51847)"/>
<path opacity="0.53" d="M38.307 14.9188C37.6588 9.09488 34.3889 5.11871 30.2097 2.79691C29.5131 2.40996 28.6328 2.57441 28.1297 3.19355L28.12 3.20324C32.8798 6.13457 35.8787 11.3296 36.0336 16.7472C36.2174 23.3354 30.8094 28.5886 24.5792 28.8885C20.0516 29.111 15.7853 26.9246 13.6956 22.5421C13.2312 21.565 12.8927 20.5782 12.7185 19.3786C11.7317 12.7227 16.2109 7.04386 20.3225 5.63144C18.1071 3.6966 12.5444 3.83199 8.41343 6.86972C5.43375 9.05613 3.4989 12.384 2.86039 16.3505C2.37664 19.3786 2.8314 22.5227 4.03101 25.3282C5.24999 28.1918 7.2332 30.7168 9.73882 32.5743C12.4477 34.5962 15.7175 35.7668 19.0842 36.0183C19.5776 36.057 20.0807 36.0764 20.5741 36.0764C33.7987 36.0957 39.5453 26.0732 38.307 14.9188Z" fill="url(#paint8_radial_122_51847)"/>
<path d="M28.1493 3.1735C28.1396 3.18319 28.1396 3.19288 28.1299 3.20249C27.5592 3.90874 27.6753 4.93421 28.3718 5.51468C31.3709 7.97194 33.3831 11.4644 33.3831 15.4985C33.3831 21.0709 29.0683 25.3179 24.0184 25.018C16.5111 24.5633 14.6246 16.8916 18.5234 13.5733C17.4688 13.3508 15.4953 13.7861 14.1119 15.8467C12.8736 17.6945 12.9413 20.5387 13.7056 22.5607C15.7952 26.9335 20.0616 29.1779 24.5892 28.907C33.1412 28.3846 36.7981 21.3321 37.0303 16.3111C37.2818 10.8644 36.0531 6.03702 30.2292 2.78647C29.5231 2.38991 28.6524 2.55436 28.1493 3.1735Z" fill="url(#paint9_radial_122_51847)"/>
<path d="M35.9659 7.87565C35.4338 7.1694 34.8437 6.51159 34.2245 5.89245C33.7312 5.37002 33.1991 4.88635 32.638 4.43167C32.9572 4.71221 33.2668 5.01213 33.5667 5.32167C34.6502 6.49229 35.5113 7.87565 36.0046 9.38487C37.0495 12.5387 36.9817 16.4955 34.9888 19.5913C32.609 23.2868 28.7392 25.1153 24.5599 25.0282C24.3761 25.0282 24.202 25.0282 24.0181 25.0185C16.5109 24.5639 14.6244 16.8921 18.5231 13.5739C17.4686 13.3514 15.4951 13.7867 14.1116 15.8473C12.8734 17.6951 12.941 20.5393 13.7053 22.5613C13.2409 21.5842 12.9023 20.5974 12.7282 19.3978C11.7414 12.7418 16.2206 7.06307 20.3322 5.65057C18.1168 3.71573 12.5541 3.85112 8.42313 6.88885C6.0143 8.65924 4.29227 11.1746 3.38289 14.1736C3.51836 12.4903 4.1568 9.98463 5.46289 7.41127C4.07946 8.12713 2.31875 10.391 1.44805 12.4806C0.190394 15.499 -0.244918 19.1074 0.151722 22.5418C0.180707 22.803 0.209769 23.0546 0.238754 23.3157C1.84469 32.7579 10.0775 39.9556 19.9743 39.9556C31.032 39.9556 40.0001 30.9875 40.0001 19.9298C39.9904 15.4022 38.4909 11.2326 35.9659 7.87565Z" fill="url(#paint10_linear_122_51847)"/>
<path d="M36.0041 9.38461C35.501 7.87539 34.6497 6.49204 33.5662 5.32141C31.2444 2.82547 27.8293 1.22922 24.5401 0.503598C21.7732 -0.105855 18.8709 -0.0962459 16.2589 0.455238C13.4147 1.05508 10.9187 2.28368 9.3418 3.81219C14.7981 0.619692 22.1505 1.20985 27.1812 4.7893C28.0228 5.38914 28.8065 6.07602 29.5127 6.83055C32.8599 10.4391 34.2241 16.4661 31.4088 20.8002C29.9964 22.9963 26.9587 25.0473 24.1241 25.0279C28.4678 25.2601 32.5213 23.422 34.9786 19.6006C36.9812 16.4952 37.0489 12.5384 36.0041 9.38461Z" fill="url(#paint11_linear_122_51847)"/>
<path d="M36.0041 9.38461C35.501 7.87539 34.6497 6.49204 33.5662 5.32141C31.2444 2.82547 27.8293 1.22922 24.5401 0.503598C21.7732 -0.105855 18.8709 -0.0962459 16.2589 0.455238C13.4147 1.05508 10.9187 2.28368 9.3418 3.81219C14.7981 0.619692 22.1505 1.20985 27.1812 4.7893C28.0228 5.38914 28.8065 6.07602 29.5127 6.83055C32.8599 10.4391 34.2241 16.4661 31.4088 20.8002C29.9964 22.9963 26.9587 25.0473 24.1241 25.0279C28.4678 25.2601 32.5213 23.422 34.9786 19.6006C36.9812 16.4952 37.0489 12.5384 36.0041 9.38461Z" fill="url(#paint12_linear_122_51847)"/>
</g>
<defs>
<radialGradient id="paint0_radial_122_51847" cx="0" cy="0" r="1" gradientUnits="userSpaceOnUse" gradientTransform="translate(35.7586 7.75062) scale(45.187 45.187)">
<stop stop-color="#FFF339"/>
<stop offset="0.2949" stop-color="#FF9800"/>
<stop offset="0.4315" stop-color="#FF5D30"/>
<stop offset="0.5302" stop-color="#FF3450"/>
<stop offset="0.7493" stop-color="#FF0D6F"/>
<stop offset="0.7648" stop-color="#FF0B71"/>
<stop offset="0.8801" stop-color="#FD007D"/>
<stop offset="0.9528" stop-color="#F40082"/>
</radialGradient>
<radialGradient id="paint1_radial_122_51847" cx="0" cy="0" r="1" gradientUnits="userSpaceOnUse" gradientTransform="translate(3.30886 11.6515) scale(26.0983)">
<stop stop-color="#D30082"/>
<stop offset="1" stop-color="#FF0D6F" stop-opacity="0"/>
</radialGradient>
<radialGradient id="paint2_radial_122_51847" cx="0" cy="0" r="1" gradientUnits="userSpaceOnUse" gradientTransform="translate(39.6387 7.50884) scale(49.503 49.503)">
<stop stop-color="#FFDD00" stop-opacity="0.6"/>
<stop offset="0.0837" stop-color="#FFD800" stop-opacity="0.5244"/>
<stop offset="0.1822" stop-color="#FFCA00" stop-opacity="0.4353"/>
<stop offset="0.2884" stop-color="#FFB200" stop-opacity="0.3394"/>
<stop offset="0.3998" stop-color="#FF9100" stop-opacity="0.2388"/>
<stop offset="0.5154" stop-color="#FF6612" stop-opacity="0.1343"/>
<stop offset="0.6329" stop-color="#FF302B" stop-opacity="0.0282"/>
<stop offset="0.664" stop-color="#FF1F30" stop-opacity="0"/>
</radialGradient>
<radialGradient id="paint3_radial_122_51847" cx="0" cy="0" r="1" gradientUnits="userSpaceOnUse" gradientTransform="translate(21.136 23.5075) scale(66.5098 66.5098)">
<stop offset="0.1528" stop-color="#AF0611"/>
<stop offset="0.2061" stop-color="#ED1E32" stop-opacity="0.5541"/>
<stop offset="0.2495" stop-color="#FF2D47" stop-opacity="0.1914"/>
<stop offset="0.2724" stop-color="#FF3450" stop-opacity="0"/>
</radialGradient>
<radialGradient id="paint4_radial_122_51847" cx="0" cy="0" r="1" gradientUnits="userSpaceOnUse" gradientTransform="translate(15.9328 22.7044) scale(66.9728)">
<stop offset="0.1129" stop-color="#AF0611"/>
<stop offset="0.1893" stop-color="#ED1E32" stop-opacity="0.5541"/>
<stop offset="0.2515" stop-color="#FF2D47" stop-opacity="0.1914"/>
<stop offset="0.2843" stop-color="#FF3450" stop-opacity="0"/>
</radialGradient>
<radialGradient id="paint5_radial_122_51847" cx="0" cy="0" r="1" gradientUnits="userSpaceOnUse" gradientTransform="translate(34.803 6.44214) scale(42.0857 42.0857)">
<stop stop-color="#FF9800"/>
<stop offset="0.295" stop-color="#FF7232"/>
<stop offset="0.4846" stop-color="#FF5B50"/>
<stop offset="0.626" stop-color="#FF4E5E"/>
<stop offset="0.7365" stop-color="#FF3E55"/>
<stop offset="0.8428" stop-color="#FF3450"/>
</radialGradient>
<radialGradient id="paint6_radial_122_51847" cx="0" cy="0" r="1" gradientUnits="userSpaceOnUse" gradientTransform="translate(34.803 7.989) scale(39.9242 39.9242)">
<stop offset="0.0841" stop-color="#FFDE00"/>
<stop offset="0.2081" stop-color="#FFD600" stop-opacity="0.832"/>
<stop offset="0.4033" stop-color="#FFBF00" stop-opacity="0.5677"/>
<stop offset="0.6437" stop-color="#FF9B00" stop-opacity="0.242"/>
<stop offset="0.8224" stop-color="#FF7C00" stop-opacity="0"/>
</radialGradient>
<radialGradient id="paint7_radial_122_51847" cx="0" cy="0" r="1" gradientUnits="userSpaceOnUse" gradientTransform="translate(24.9595 20.3957) rotate(75.6841) scale(20.0956 20.9713)">
<stop offset="0.3634" stop-color="#FF3450"/>
<stop offset="0.4111" stop-color="#FF424A" stop-opacity="0.7895"/>
<stop offset="0.5902" stop-color="#FF7232" stop-opacity="0"/>
</radialGradient>
<radialGradient id="paint8_radial_122_51847" cx="0" cy="0" r="1" gradientUnits="userSpaceOnUse" gradientTransform="translate(21.3581 22.0526) rotate(75.6841) scale(20.3252 20.3426)">
<stop offset="0.2159" stop-color="#FF3450" stop-opacity="0.8"/>
<stop offset="0.2702" stop-color="#FF424A" stop-opacity="0.6316"/>
<stop offset="0.4739" stop-color="#FF7232" stop-opacity="0"/>
</radialGradient>
<radialGradient id="paint9_radial_122_51847" cx="0" cy="0" r="1" gradientUnits="userSpaceOnUse" gradientTransform="translate(43.3195 1.5845) scale(71.2021 71.2021)">
<stop offset="0.0536" stop-color="#FFF339"/>
<stop offset="0.4573" stop-color="#FF9800"/>
<stop offset="0.5211" stop-color="#FF840D"/>
<stop offset="0.5871" stop-color="#FF772B"/>
<stop offset="0.6393" stop-color="#FF7232"/>
</radialGradient>
<linearGradient id="paint10_linear_122_51847" x1="29.5136" y1="3.57149" x2="9.10015" y2="38.9286" gradientUnits="userSpaceOnUse">
<stop stop-color="#FFF339" stop-opacity="0.8"/>
<stop offset="0.75" stop-color="#FFF339" stop-opacity="0"/>
</linearGradient>
<linearGradient id="paint11_linear_122_51847" x1="23.0066" y1="25.145" x2="23.0066" y2="0.298535" gradientUnits="userSpaceOnUse">
<stop stop-color="#008EE9"/>
<stop offset="0.1016" stop-color="#1982EE"/>
<stop offset="0.3885" stop-color="#8565FD"/>
<stop offset="0.5309" stop-color="#A059FF"/>
<stop offset="0.6915" stop-color="#B24FFB"/>
<stop offset="0.9888" stop-color="#DD37EB"/>
<stop offset="1" stop-color="#DF36EA"/>
</linearGradient>
<linearGradient id="paint12_linear_122_51847" x1="18.637" y1="-0.606308" x2="32.1923" y2="22.8722" gradientUnits="userSpaceOnUse">
<stop offset="0.8054" stop-color="#A059FF" stop-opacity="0"/>
<stop offset="1" stop-color="#80008E" stop-opacity="0.5"/>
</linearGradient>
<clipPath id="clip0_122_51847">
<rect width="40" height="40" fill="white"/>
</clipPath>
</defs>
</svg>
