<svg width="40" height="40" viewBox="0 0 40 40" fill="none" xmlns="http://www.w3.org/2000/svg">
<path d="M2.76656 0.617773C2.3143 1.09645 2.04688 1.83965 2.04688 2.80262V37.1965C2.04688 38.1603 2.31437 38.9027 2.76656 39.3814L2.88164 39.4935L22.1484 20.2268V19.9996V19.7723L2.88164 0.504883L2.76656 0.617773Z" fill="url(#paint0_linear_122_51763)"/>
<path d="M28.5703 26.6525L22.1484 20.2275V20.0003V19.773L28.5718 13.3496L28.7166 13.4322L36.3256 17.7557C38.4991 18.9905 38.4991 21.0109 36.3256 22.2465L28.7166 26.57L28.5703 26.6525Z" fill="url(#paint1_linear_122_51763)"/>
<path d="M28.7157 26.5688L22.1475 20L2.76562 39.3817C3.48227 40.1402 4.66477 40.2341 5.99742 39.4772L28.7157 26.5688Z" fill="url(#paint2_linear_122_51763)"/>
<path d="M28.7157 13.4311L5.99742 0.522721C4.66477 -0.234154 3.48227 -0.140248 2.76562 0.61819L22.1475 20.0001L28.7157 13.4311Z" fill="url(#paint3_linear_122_51763)"/>
<defs>
<linearGradient id="paint0_linear_122_51763" x1="20.4399" y1="2.43998" x2="-5.65934" y2="28.5391" gradientUnits="userSpaceOnUse">
<stop stop-color="#00A0FF"/>
<stop offset="0.0066" stop-color="#00A2FF"/>
<stop offset="0.2601" stop-color="#00BEFF"/>
<stop offset="0.5122" stop-color="#00D2FF"/>
<stop offset="0.7604" stop-color="#00DFFF"/>
<stop offset="1" stop-color="#00E3FF"/>
</linearGradient>
<linearGradient id="paint1_linear_122_51763" x1="39.1556" y1="20.001" x2="1.5257" y2="20.001" gradientUnits="userSpaceOnUse">
<stop stop-color="#FFE000"/>
<stop offset="0.4087" stop-color="#FFBD00"/>
<stop offset="0.7754" stop-color="#FFA600"/>
<stop offset="1" stop-color="#FF9C00"/>
</linearGradient>
<linearGradient id="paint2_linear_122_51763" x1="25.1467" y1="23.5693" x2="-10.2459" y2="58.9618" gradientUnits="userSpaceOnUse">
<stop stop-color="#FF3743"/>
<stop offset="1" stop-color="#E30864"/>
</linearGradient>
<linearGradient id="paint3_linear_122_51763" x1="-2.11454" y1="-10.8306" x2="13.6897" y2="4.97374" gradientUnits="userSpaceOnUse">
<stop stop-color="#00A06F"/>
<stop offset="0.0685" stop-color="#00A86E"/>
<stop offset="0.4762" stop-color="#00CF6E"/>
<stop offset="0.8009" stop-color="#00E76D"/>
<stop offset="1" stop-color="#00EF6D"/>
</linearGradient>
</defs>
</svg>
