<svg width="40" height="40" viewBox="0 0 40 40" fill="none" xmlns="http://www.w3.org/2000/svg">
<g clip-path="url(#clip0_122_51879)">
<path d="M24.6044 39.4858C29.8094 38.2819 34.2361 35.0459 37.0047 30.6588C37.3425 30.1234 36.7468 29.4832 36.189 29.7825C34.0605 30.9243 31.5344 31.5859 28.8248 31.5859C21.3144 31.5859 15.2114 26.5056 15.0855 20.1985C15.043 18.0673 16.315 16.183 18.1608 15.3954L18.1595 15.3945C17.0683 15.7765 15.8413 15.9344 14.8923 16.5923C11.293 19.0873 9.10811 23.7038 9.45616 27.8541C9.79397 31.8815 12.2567 36.6009 16.5166 38.7093C18.7443 39.8119 21.618 39.6324 24.6044 39.4858Z" fill="url(#paint0_linear_122_51879)"/>
<path d="M24.4225 26.048C25.7718 26.5404 27.2599 26.8133 28.8237 26.8133C34.9515 26.8133 39.919 22.6248 39.9191 17.4582C39.9191 7.21529 30.3656 0.0924765 20.2645 0.000835831C9.25156 -0.0992423 0.180391 8.8006 0.0800781 19.8136C0.0800781 19.8136 2.83539 11.3042 12.6777 11.3042C19.3376 11.3042 23.9939 15.2574 24.7587 18.2458C24.9634 18.7916 25.0759 19.3826 25.0759 19.9999C25.0759 21.2944 24.5836 22.474 23.776 23.3615C22.9759 24.2409 23.3055 25.6404 24.4225 26.048Z" fill="url(#paint1_linear_122_51879)"/>
<path d="M24.7596 18.2461C23.9948 15.2578 21.4478 9.49902 13.1742 9.49902C0.452333 9.49902 0.0809261 19.8139 0.0809261 19.8139C-0.020402 30.9451 8.97233 40.0003 20.0801 40.0003C21.6361 40.0003 23.1505 39.8225 24.6042 39.4863C8.4703 40.2786 6.81327 19.3666 18.1594 15.395L18.1606 15.3959C18.7344 15.1511 19.363 15.011 20.0257 15.0039C22.1914 14.9808 24.0432 16.336 24.7596 18.2461Z" fill="url(#paint2_linear_122_51879)"/>
</g>
<defs>
<linearGradient id="paint0_linear_122_51879" x1="9.42" y1="27.495" x2="37.1032" y2="27.495" gradientUnits="userSpaceOnUse">
<stop stop-color="#00376F"/>
<stop offset="1" stop-color="#004E99"/>
</linearGradient>
<linearGradient id="paint1_linear_122_51879" x1="8.25888" y1="7.05319" x2="31.4191" y2="20.7536" gradientUnits="userSpaceOnUse">
<stop stop-color="#00C2DD"/>
<stop offset="1" stop-color="#00D34F"/>
</linearGradient>
<linearGradient id="paint2_linear_122_51879" x1="10.4288" y1="11.075" x2="16.6674" y2="39.6991" gradientUnits="userSpaceOnUse">
<stop offset="0.0016" stop-color="#006393"/>
<stop offset="0.4" stop-color="#0086DE"/>
<stop offset="1" stop-color="#006393"/>
</linearGradient>
<clipPath id="clip0_122_51879">
<rect width="40" height="40" fill="white"/>
</clipPath>
</defs>
</svg>
