<svg width="40" height="40" viewBox="0 0 40 40" fill="none" xmlns="http://www.w3.org/2000/svg">
<g clip-path="url(#clip0_122_51756)">
<path fill-rule="evenodd" clip-rule="evenodd" d="M19.2 40C10.149 40 5.62356 40 2.81178 37.1882C5.29819e-07 34.3764 4.69882e-07 29.8509 7.08427e-08 20.7999L3.0048e-10 19.1999C-3.98734e-07 10.1489 -5.29819e-07 5.62339 2.81178 2.81162C5.62356 5.29819e-07 10.149 4.61882e-07 19.2 6.96374e-08L20.8 2.92985e-10C29.851 -3.91963e-07 34.3764 -7.94729e-07 37.1882 2.81162C40 5.62339 40 10.1489 40 19.1999V20.7999C40 29.8509 40 34.3764 37.1882 37.1882C34.3764 40 29.851 40 20.8 40H19.2Z" fill="#0077FF"/>
<path d="M23.1302 24.6509C22.0525 24.3816 21.2969 23.4176 21.2969 22.312V9.28564C21.2969 8.02976 22.4835 7.1087 23.7077 7.41449L31.4595 9.35093C32.5372 9.62014 33.2929 10.5842 33.2929 11.6899V24.7162C33.2929 25.9721 32.1061 26.8931 30.8821 26.5873L23.1302 24.6509Z" fill="white"/>
<path d="M8.5404 30.6489C7.46269 30.3796 6.70703 29.4156 6.70703 28.31V15.2836C6.70703 14.0278 7.89374 13.1068 9.11783 13.4125L16.8696 15.349C17.9474 15.6182 18.7031 16.5822 18.7031 17.6879V30.7142C18.7031 31.9701 17.5163 32.8911 16.2922 32.5853L8.5404 30.6489Z" fill="white"/>
<path d="M15.8353 27.6499C14.7576 27.3807 14.002 26.4167 14.002 25.311V12.2847C14.002 11.0288 15.1886 10.1077 16.4127 10.4135L24.1645 12.35C25.2423 12.6191 25.998 13.5832 25.998 14.6889V27.7152C25.998 28.9711 24.8112 29.8921 23.5872 29.5863L15.8353 27.6499Z" fill="white"/>
<path d="M20.9053 28.9213C20.5658 28.8348 20.3242 28.5346 20.3123 28.1845L19.9751 18.2364C19.8775 16.9198 18.9002 15.8726 17.8788 15.5643C17.8215 15.547 17.7603 15.5703 17.7264 15.6196C17.6918 15.6697 17.7052 15.7392 17.7533 15.7764C18.0055 15.9716 18.6996 16.6087 18.6996 17.7077L18.6976 28.3618L20.9053 28.9213Z" fill="#0077FF"/>
<path d="M28.2022 25.9194C27.8631 25.8345 27.6212 25.5352 27.6093 25.1858L27.2719 15.2384C27.1745 13.9217 26.1971 12.8746 25.1757 12.5662C25.1184 12.549 25.0572 12.5723 25.0233 12.6216C24.9887 12.6717 25.0021 12.7411 25.0502 12.7784C25.3024 12.9736 25.9966 13.6107 25.9966 14.7096L25.9945 25.3674L28.2022 25.9194Z" fill="#0077FF"/>
</g>
<defs>
<clipPath id="clip0_122_51756">
<rect width="40" height="40" fill="white"/>
</clipPath>
</defs>
</svg>
