<svg xmlns="http://www.w3.org/2000/svg" width="512" height="512"><g xmlns="http://www.w3.org/2000/svg"><path d="M380.508 32.996h-17.247V17.811C363.261 7.99 355.271 0 345.45 0H25.802C15.981 0 7.991 7.99 7.991 17.811v443.382c0 9.821 7.99 17.811 17.811 17.811h17.247v15.185c0 9.821 7.99 17.811 17.811 17.811h21.647a7.5 7.5 0 000-15H60.86a2.814 2.814 0 01-2.811-2.811V50.807a2.814 2.814 0 012.811-2.811h319.647a2.814 2.814 0 012.811 2.811v443.382a2.814 2.814 0 01-2.811 2.811h-263a7.5 7.5 0 000 15h263c9.821 0 17.811-7.99 17.811-17.811V50.807c.001-9.821-7.989-17.811-17.81-17.811zm-319.648 0c-8.594 0-15.785 6.117-17.449 14.226a17.793 17.793 0 00-.362 3.585v413.197H25.802a2.814 2.814 0 01-2.811-2.811V17.811A2.814 2.814 0 0125.802 15H345.45a2.814 2.814 0 012.811 2.811v15.185H60.86z" fill="#1DBBBA" data-original="#000000"/><path d="M87.669 96.201h65.992a7.5 7.5 0 000-15H87.669a7.5 7.5 0 000 15z" fill="#1DBBBA" data-original="#000000"/><circle cx="110.354" cy="167.581" r="10.311" fill="#1DBBBA" data-original="#000000"/><circle cx="172.221" cy="167.581" r="10.311" fill="#1DBBBA" data-original="#000000"/><circle cx="295.956" cy="167.581" r="10.311" fill="#1DBBBA" data-original="#000000"/><path d="M87.669 135.641h235.096a7.5 7.5 0 000-15H87.669a7.5 7.5 0 000 15zM87.669 230.247h65.992a7.5 7.5 0 000-15H87.669a7.5 7.5 0 000 15z" fill="#1DBBBA" data-original="#000000"/><circle cx="110.354" cy="301.627" r="10.311" fill="#1DBBBA" data-original="#000000"/><circle cx="234.089" cy="301.627" r="10.311" fill="#1DBBBA" data-original="#000000"/><circle cx="295.956" cy="301.627" r="10.311" fill="#1DBBBA" data-original="#000000"/><path d="M87.669 269.687h235.096a7.5 7.5 0 000-15H87.669a7.5 7.5 0 000 15zM87.669 364.292h65.992a7.5 7.5 0 000-15H87.669a7.5 7.5 0 000 15z" fill="#1DBBBA" data-original="#000000"/><circle cx="110.354" cy="435.673" r="10.311" fill="#1DBBBA" data-original="#000000"/><circle cx="234.089" cy="435.673" r="10.311" fill="#1DBBBA" data-original="#000000"/><circle cx="295.956" cy="435.673" r="10.311" fill="#1DBBBA" data-original="#000000"/><path d="M87.669 403.732h235.096a7.5 7.5 0 000-15H87.669a7.5 7.5 0 000 15zM187.048 285.016l-14.305 9.238-1.031-1.289a7.498 7.498 0 00-10.541-1.176 7.5 7.5 0 00-1.176 10.541l5.263 6.584a7.5 7.5 0 009.927 1.618l20-12.916a7.5 7.5 0 002.231-10.369 7.497 7.497 0 00-10.368-2.231zM249.738 149.459l-14.305 9.238-1.03-1.289a7.499 7.499 0 00-10.541-1.176 7.5 7.5 0 00-1.176 10.541l5.263 6.584a7.5 7.5 0 009.927 1.618l19.999-12.916a7.5 7.5 0 00-8.137-12.6zM187.048 419.061l-14.305 9.239-1.031-1.29a7.5 7.5 0 10-11.717 9.365l5.263 6.585a7.5 7.5 0 009.927 1.618l20-12.917a7.5 7.5 0 00-8.137-12.6zM485 135.785h-16.675v-32.478c0-5.983-4.867-10.851-10.85-10.851H436.86c-5.983 0-10.851 4.868-10.851 10.851v32.899c-4.867 1.339-8.458 5.792-8.458 11.078v252.252c0 .6.065 1.185.164 1.758a7.494 7.494 0 00.516 4.654l18.145 39.66c4.23 9.245 17.357 9.234 21.583 0l18.145-39.659a7.494 7.494 0 00.516-4.654c.099-.574.164-1.158.164-1.758v-80.894a7.5 7.5 0 00-15 0v76.687h-29.231V202.103h29.231v81.54a7.5 7.5 0 0015 0V150.785H485a4.013 4.013 0 014.009 4.009v91.126a7.5 7.5 0 0015 0v-91.126c0-10.481-8.528-19.009-19.009-19.009zm-43.992-28.328h12.316v28.328h-12.316zm6.159 325.685L436.73 410.33h20.873zm-14.616-246.039v-36.318H461.783v36.318z" fill="#1DBBBA" data-original="#000000"/></g></svg>