<svg xmlns="http://www.w3.org/2000/svg" width="512" height="512"><g xmlns="http://www.w3.org/2000/svg" fill="#1DBBBA"><path d="M263.501 239.469c0-38.391-31.233-69.624-69.625-69.624s-69.625 31.233-69.625 69.624c0 38.392 31.233 69.625 69.625 69.625 37.124 0 69.625-29.669 69.625-69.625zm-93.187 49.275v-27.017a.512.512 0 01.053-.028l15.971-4.033h15.076l15.971 4.034c.021.009.039.019.054.027v27.017c-15.708 7.133-31.416 7.133-47.125 0zm15.386-54.255v-10.406c0-4.509 3.668-8.177 8.177-8.177s8.177 3.668 8.177 8.177v10.406c0 4.508-3.668 8.176-8.177 8.176s-8.177-3.668-8.177-8.176zm-46.448 4.98c0-30.12 24.504-54.624 54.625-54.624s54.625 24.504 54.625 54.624c0 15.082-6.145 28.756-16.062 38.65V261.49c0-9.765-10.257-15.434-18.146-16.043a23.036 23.036 0 002.76-10.958v-10.406c0-12.779-10.397-23.177-23.177-23.177S170.7 211.304 170.7 224.083v10.406c0 3.961 1.001 7.693 2.76 10.958-7.889.609-18.145 6.279-18.145 16.043v16.629c-9.918-9.894-16.063-23.568-16.063-38.65z" data-original="#000000"/><path d="M504.5 357.22h-23.56V95.16c0-9.649-7.851-17.5-17.5-17.5h-67.41c-4.142 0-7.5 3.357-7.5 7.5s3.358 7.5 7.5 7.5h67.41c1.378 0 2.5 1.121 2.5 2.5v262.06h-16.07v-241a7.5 7.5 0 00-7.5-7.5H69.63a7.5 7.5 0 00-7.5 7.5v107.91c0 4.143 3.358 7.5 7.5 7.5s7.5-3.357 7.5-7.5V123.72h357.74v233.5H77.13V256.81c0-4.143-3.358-7.5-7.5-7.5s-7.5 3.357-7.5 7.5v100.41H46.07V95.16c0-1.379 1.122-2.5 2.5-2.5h314.77c4.142 0 7.5-3.357 7.5-7.5s-3.358-7.5-7.5-7.5H48.57c-9.649 0-17.5 7.851-17.5 17.5v262.06H7.5a7.5 7.5 0 00-7.5 7.5v35.48c0 18.824 15.32 34.14 34.15 34.14h205.51c4.142 0 7.5-3.357 7.5-7.5s-3.358-7.5-7.5-7.5H34.15c-10.559 0-19.15-8.586-19.15-19.14v-27.98h172.115c3.502 17.684 19.127 31.061 37.824 31.061h62.125c18.696 0 34.322-13.376 37.824-31.061H497v27.98c0 10.554-8.591 19.14-19.15 19.14h-205.5c-4.142 0-7.5 3.357-7.5 7.5s3.358 7.5 7.5 7.5h205.5c18.83 0 34.15-15.315 34.15-34.14v-35.48a7.5 7.5 0 00-7.5-7.5zm-217.437 31.06h-62.125c-10.371 0-19.198-6.734-22.338-16.061h106.8c-3.139 9.327-11.966 16.061-22.337 16.061z" data-original="#000000"/><path d="M287.063 215.906h93.187c4.142 0 7.5-3.357 7.5-7.5s-3.358-7.5-7.5-7.5h-93.187c-4.142 0-7.5 3.357-7.5 7.5s3.358 7.5 7.5 7.5zM287.063 247.969h93.187c4.142 0 7.5-3.357 7.5-7.5s-3.358-7.5-7.5-7.5h-93.187c-4.142 0-7.5 3.357-7.5 7.5s3.358 7.5 7.5 7.5zM287.063 278.031h93.187c4.142 0 7.5-3.357 7.5-7.5s-3.358-7.5-7.5-7.5h-93.187c-4.142 0-7.5 3.357-7.5 7.5s3.358 7.5 7.5 7.5z" data-original="#000000"/></g></svg>