<svg xmlns="http://www.w3.org/2000/svg" width="512" height="512"><path xmlns="http://www.w3.org/2000/svg" d="M445 455.046a7.5 7.5 0 007.5-7.5V92.5A7.5 7.5 0 00445 85h-22.5V50a7.5 7.5 0 00-7.5-7.5h-22.502v-35a7.5 7.5 0 00-7.5-7.5H67a7.5 7.5 0 00-7.5 7.5v24.373c0 4.142 3.357 7.5 7.5 7.5s7.5-3.358 7.5-7.5V15h302.998v397H74.5V64.5c0-4.142-3.357-7.5-7.5-7.5s-7.5 3.358-7.5 7.5v355A7.5 7.5 0 0067 427h22.502v35a7.5 7.5 0 007.5 7.5h22.5v35a7.5 7.5 0 007.5 7.5H445a7.5 7.5 0 007.5-7.5v-24.791c0-4.142-3.357-7.5-7.5-7.5s-7.5 3.358-7.5 7.5V497H134.502v-27.5h34.196c4.143 0 7.5-3.358 7.5-7.5s-3.357-7.5-7.5-7.5h-64.196V427h280.496a7.5 7.5 0 007.5-7.5v-362H407.5v397H200.977c-4.143 0-7.5 3.358-7.5 7.5s3.357 7.5 7.5 7.5H415a7.5 7.5 0 007.5-7.5V100h15v347.546a7.5 7.5 0 007.5 7.5z" fill="#1DBBBA" data-original="#000000"/><path xmlns="http://www.w3.org/2000/svg" d="M332.346 124.5v-60a7.5 7.5 0 00-7.5-7.5h-198.03a7.5 7.5 0 00-7.5 7.5v60a7.5 7.5 0 007.5 7.5h198.029a7.5 7.5 0 007.501-7.5zm-15-7.5h-183.03V72h183.029v45zM115.332 315a7.5 7.5 0 007.5 7.5h201.999c4.143 0 7.5-3.358 7.5-7.5s-3.357-7.5-7.5-7.5H122.832a7.5 7.5 0 00-7.5 7.5zM122.832 354.5h201.999c4.143 0 7.5-3.358 7.5-7.5s-3.357-7.5-7.5-7.5H122.832c-4.143 0-7.5 3.358-7.5 7.5s3.357 7.5 7.5 7.5zM167.331 268c0 4.142 3.357 7.5 7.5 7.5s7.5-3.358 7.5-7.5c0-22.883 18.617-41.5 41.5-41.5s41.5 18.617 41.5 41.5c0 4.142 3.357 7.5 7.5 7.5s7.5-3.358 7.5-7.5c0-22.306-12.996-41.63-31.811-50.81 7.844-6.878 12.811-16.962 12.811-28.19 0-20.678-16.822-37.5-37.5-37.5s-37.5 16.822-37.5 37.5c0 11.228 4.967 21.312 12.811 28.19-18.815 9.18-31.811 28.504-31.811 50.81zm34-79c0-12.407 10.094-22.5 22.5-22.5s22.5 10.093 22.5 22.5-10.094 22.5-22.5 22.5-22.5-10.093-22.5-22.5z" fill="#1DBBBA" data-original="#000000"/></svg>