<svg xmlns="http://www.w3.org/2000/svg" width="512" height="512" viewBox="0 0 511 512"><path xmlns="http://www.w3.org/2000/svg" d="M366.988 90.164a1.61 1.61 0 01-.11-.121c-.05-.055-.1-.113-.155-.168l-3.309-3.61-65.535-71.542c-7.29-7.957-16.961-12.961-27.547-14.336-.012 0-.023 0-.035-.004-.14-.016-.281-.035-.426-.051A45.02 45.02 0 00264.43 0H82.94C62.566 0 45.988 16.574 45.988 36.95v17.972H33.36C15.242 54.922.5 69.664.5 87.789v373.98C.5 489.47 23.031 512 50.73 512H280.3c18.118 0 32.86-14.742 32.86-32.86v-15.66h28.528c20.375 0 36.953-16.578 36.953-36.949V120.52a45.238 45.238 0 00-11.653-30.356zm-15.61 12.566h-68.151a7.175 7.175 0 01-7.168-7.168v-72.73a25.36 25.36 0 017.07 5.402l63.496 69.309zm-9.687 340.75H82.941c-9.347 0-16.953-7.605-16.953-16.949V380c0-5.523-4.476-10-10-10-5.52 0-10 4.477-10 10v46.531c0 20.375 16.578 36.95 36.953 36.95h210.22v15.66c0 7.09-5.77 12.859-12.86 12.859H50.73C34.061 492 20.5 478.437 20.5 461.77V87.79c0-7.099 5.77-12.868 12.86-12.868h12.628V300c0 5.523 4.48 10 10 10 5.524 0 10-4.477 10-10V36.95c0-9.345 7.606-16.95 16.953-16.95H256.06v75.563c0 14.98 12.187 27.167 27.168 27.167h75.414v303.801c0 9.344-7.606 16.95-16.95 16.95zm0 0" fill="#1DBBBA" data-original="#000000"/><path xmlns="http://www.w3.org/2000/svg" d="M119.555 142.488h106.914c5.52 0 10-4.476 10-10 0-5.523-4.48-10-10-10H119.555c-5.524 0-10 4.477-10 10 0 5.524 4.476 10 10 10zm0 0M276.332 205.203H119.555c-5.524 0-10 4.477-10 10s4.476 10 10 10h156.777c5.523 0 10-4.476 10-10s-4.477-10-10-10zm0 0M276.332 287.918H119.555c-5.524 0-10 4.477-10 10s4.476 10 10 10h156.777c5.523 0 10-4.477 10-10s-4.477-10-10-10zm0 0M276.332 370.629H119.555c-5.524 0-10 4.476-10 10 0 5.523 4.476 10 10 10h156.777c5.523 0 10-4.477 10-10 0-5.524-4.477-10-10-10zm0 0M55.992 330.012c-5.523 0-10 4.492-10 10.011 0 5.524 4.477 10 10 10 5.52 0 10-4.476 10-10V340c0-5.523-4.48-9.988-10-9.988zm0 0" fill="#1DBBBA" data-original="#000000"/></svg>