<svg xmlns="http://www.w3.org/2000/svg" width="512" height="512"><path d="M504.485 24.047H7.515A7.516 7.516 0 000 31.562v448.877a7.516 7.516 0 007.515 7.515h496.971a7.516 7.516 0 007.515-7.515V31.562a7.517 7.517 0 00-7.516-7.515zm-7.514 64.125H100.028a7.516 7.516 0 000 15.03H496.97v369.722H15.029V103.202h50.265a7.516 7.516 0 000-15.03H15.029V39.076H496.97v49.096z" fill="#1DBBBA" data-original="#000000" xmlns="http://www.w3.org/2000/svg"/><path d="M280.047 376.736h-48.094c-17.403 0-31.562 14.159-31.562 31.562s14.159 31.562 31.562 31.562h48.094c17.403 0 31.562-14.159 31.562-31.562 0-17.404-14.159-31.562-31.562-31.562zm0 48.094h-48.094c-9.116 0-16.532-7.416-16.532-16.532s7.417-16.532 16.532-16.532h48.094c9.116 0 16.532 7.417 16.532 16.532s-7.416 16.532-16.532 16.532zM440.36 56.11h-1.002a7.516 7.516 0 000 15.03h1.002a7.516 7.516 0 000-15.03zM472.423 56.11h-1.002a7.516 7.516 0 000 15.03h1.002a7.516 7.516 0 000-15.03zM407.295 56.11h-1.002a7.516 7.516 0 000 15.03h1.002a7.516 7.516 0 000-15.03z" fill="#1DBBBA" data-original="#000000" xmlns="http://www.w3.org/2000/svg"/><path d="M469.719 396.344l-51.364-51.366 28.694-28.694c4.01-4.01 2.123-11.075-3.336-12.564l-51.948-14.168v-97.678a7.516 7.516 0 00-7.515-7.515h-256.5a7.516 7.516 0 00-7.515 7.515v160.313a7.516 7.516 0 007.515 7.515h204.068l11.981 43.932c1.489 5.46 8.554 7.346 12.564 3.337l28.694-28.694 51.365 51.365c2.895 2.895 7.732 2.895 10.627 0l22.671-22.671a7.515 7.515 0 00-.001-10.627zm-334.455-51.671V199.389h241.472v86.064l-57.718-15.741c-5.506-1.502-10.729 3.721-9.227 9.227l17.927 65.733H135.264zm306.472 69.029l-51.365-51.365c-2.895-2.896-7.732-2.895-10.627 0l-24.852 24.851-27.14-99.514 99.514 27.14-24.851 24.852a7.514 7.514 0 000 10.627l51.365 51.365-12.044 12.044zM288.063 152.297H127.75a7.516 7.516 0 000 15.03h160.313a7.516 7.516 0 000-15.03zM392.266 152.297H312.11a7.516 7.516 0 000 15.03h80.157a7.516 7.516 0 00-.001-15.03z" fill="#1DBBBA" data-original="#000000" xmlns="http://www.w3.org/2000/svg"/></svg>