<svg xmlns="http://www.w3.org/2000/svg" width="512" height="512"><g xmlns="http://www.w3.org/2000/svg"><circle cx="436" cy="376" r="10" fill="#1DBBBA" data-original="#000000"/><circle cx="376" cy="376" r="10" fill="#1DBBBA" data-original="#000000"/><circle cx="316" cy="376" r="10" fill="#1DBBBA" data-original="#000000"/><circle cx="256" cy="376" r="10" fill="#1DBBBA" data-original="#000000"/><path d="M110 106c0-22.056-17.944-40-40-40s-40 17.944-40 40 17.944 40 40 40 40-17.944 40-40zm-40 20c-11.028 0-20-8.972-20-20s8.972-20 20-20 20 8.972 20 20-8.972 20-20 20zM10 236h120c5.523 0 10-4.478 10-10v-10c0-38.625-31.248-70-70-70-38.598 0-70 31.402-70 70v10c0 5.522 4.477 10 10 10zm60-70c27.587 0 50 22.315 50 50H20c0-27.57 22.43-50 50-50zM10 446h120c5.523 0 10-4.478 10-10v-60c0-5.522-4.477-10-10-10h-20v-50c0-22.056-17.944-40-40-40s-40 17.944-40 40v50H10c-5.523 0-10 4.478-10 10v60c0 5.522 4.477 10 10 10zm40-130c0-11.028 8.972-20 20-20s20 8.972 20 20v50H50zm-30 70h100v40H20zM452 166c0-5.522-4.477-10-10-10H250c-5.523 0-10 4.478-10 10s4.477 10 10 10h192c5.523 0 10-4.478 10-10zM442 306H250c-38.598 0-70 31.402-70 70s31.402 70 70 70h51c5.523 0 10-4.478 10-10s-4.477-10-10-10h-51c-27.57 0-50-22.43-50-50s22.43-50 50-50h192c27.57 0 50 22.43 50 50s-22.43 50-50 50h-51c-5.523 0-10 4.478-10 10s4.477 10 10 10h51c38.598 0 70-31.402 70-70s-31.402-70-70-70z" fill="#1DBBBA" data-original="#000000"/><path d="M442 96H250c-38.598 0-70 31.402-70 70s31.402 70 70 70h51c5.523 0 10-4.478 10-10s-4.477-10-10-10h-51c-27.57 0-50-22.43-50-50s22.43-50 50-50h192c27.57 0 50 22.43 50 50s-22.43 50-50 50h-51c-5.523 0-10 4.478-10 10s4.477 10 10 10h51c38.598 0 70-31.402 70-70s-31.402-70-70-70z" fill="#1DBBBA" data-original="#000000"/><circle cx="346" cy="226" r="10" fill="#1DBBBA" data-original="#000000"/><circle cx="346" cy="436" r="10" fill="#1DBBBA" data-original="#000000"/></g></svg>