<svg xmlns="http://www.w3.org/2000/svg" width="512" height="512"><path xmlns="http://www.w3.org/2000/svg" d="M476 43.051h-33.415V30.634a6 6 0 00-6-6H255.453a6 6 0 00-6 6v12.417h-43.415a26.027 26.027 0 00-26 26v43.232a88.807 88.807 0 00-142.955 70.434v26.893a21.454 21.454 0 00-13.778 15.269 26.863 26.863 0 0016.445 31.452v5.738a87.274 87.274 0 0045.194 76.4v26.359l-47.333 20.2c-.111.048-.22.1-.327.152a49.92 49.92 0 00-27.263 40.268 5.917 5.917 0 00-.021.5v55.421a6 6 0 006 6h226.769a6 6 0 006-6v-54.491H476a26.028 26.028 0 0026-26V69.049a26.028 26.028 0 00-26-25.998zm-214.547-6.417h169.132v22.385H261.453zM49.083 182.717a76.856 76.856 0 11153.712 0v27.316c-14.868 1.607-60.255 4.032-96.7-20.134 25.042-3.338 55.568-11.026 78.208-28.389a6 6 0 10-7.3-9.521c-41.187 31.589-114.766 28.257-115.5 28.218a6.008 6.008 0 00-6.3 5.627l-1.8 29.633-3.915-2.01a.762.762 0 01-.4-.519zm2.667 79.352v-10.281a6 6 0 00-4.965-5.911 14.848 14.848 0 01-11.825-18.142 9.348 9.348 0 015.344-6.49 12.668 12.668 0 003.7 2.888l9.8 5.031a7.676 7.676 0 0011.16-6.217c0-.038.006-.075.008-.113l1.857-30.485c4.9.046 12.478-.034 21.69-.676 49.005 41.688 118.357 30.048 121.323 29.527a5.979 5.979 0 001.776-.629 9.506 9.506 0 017.343 7.164 14.844 14.844 0 01-11.824 18.142 6 6 0 00-4.965 5.911v10.281a75.209 75.209 0 01-150.417 0zm128.291 69.14v36.269l-6.216-2.652v-29.242q3.207-2.052 6.216-4.375zM161.825 342v21.542a85.4 85.4 0 01-64.881 0v-19.588A87.19 87.19 0 00161.825 342zm74.944 133.371H22V426.2a37.86 37.86 0 0120.5-30.21l49.964-21.324a97.348 97.348 0 0073.851 0l49.965 21.325a37.856 37.856 0 0120.489 30.209zM490 400.88a14.013 14.013 0 01-14 14H246.652a49.945 49.945 0 00-25.167-29.7c-.107-.055-.216-.1-.327-.152L192.041 372.6v-52.548a86.854 86.854 0 0022.126-57.983v-5.738a26.861 26.861 0 0016.445-31.45 21.5 21.5 0 00-15.817-15.9v-26.264a88.506 88.506 0 00-22.754-59.317V69.049a14.013 14.013 0 0114-14h43.415v9.968a6 6 0 006 6h181.129a6 6 0 006-6v-9.966H476a14.013 14.013 0 0114 14z" fill="#1DBBBA" data-original="#000000"/><path xmlns="http://www.w3.org/2000/svg" d="M446.584 221.686h-43.866a6 6 0 000 12h43.866a6 6 0 000-12zM362.157 233.686h14.715a6 6 0 000-12h-14.715a6 6 0 000 12zM446.584 286.582h-14.895a6 6 0 100 12h14.895a6 6 0 000-12zM410.937 298.582a6 6 0 000-12h-79.459a6 6 0 100 12zM310.437 286.582h-5.361a6 6 0 000 12h5.361a6 6 0 000-12zM245.212 286.582a6 6 0 000 12h34.018a6 6 0 000-12zM446.584 346.563h-34.335a6 6 0 000 12h34.335a6 6 0 000-12zM390.714 346.563H386.4a6 6 0 000 12h4.311a6 6 0 100-12zM369.514 346.563H336.9a6 6 0 000 12h32.615a6 6 0 000-12zM310.437 346.563h-65.225a6 6 0 000 12h65.225a6 6 0 000-12zM446.584 170.6h-3.872a6 6 0 000 12h3.872a6 6 0 000-12zM374.339 182.6h42.528a6 6 0 000-12h-42.528a6 6 0 000 12zM446.584 120.6h-42.867a6 6 0 000 12h42.867a6 6 0 000-12zM374.339 132.6h3.533a6 6 0 000-12h-3.533a6 6 0 000 12zM287.875 237.92a66 66 0 10-66-66 66.075 66.075 0 0066 66zm0-120a54 54 0 11-54 54 54.062 54.062 0 0154-54z" fill="#1DBBBA" data-original="#000000"/><path xmlns="http://www.w3.org/2000/svg" d="M270.268 198.079a6 6 0 008.485 0l43.832-43.832a6 6 0 00-8.485-8.485l-39.589 39.589-12.862-12.861a6 6 0 10-8.485 8.484z" fill="#1DBBBA" data-original="#000000"/></svg>