<svg xmlns="http://www.w3.org/2000/svg" width="512" height="512" fill="none"><path fill="#fff" d="M48.536 508.793a48.5 48.5 0 0 1-34.432-11.639c-18.804-18.915-18.804-49.465 0-68.381l411.739-411.74C445.4-1.267 476.089-.25 494.39 19.307c16.548 17.686 17.513 44.87 2.258 63.682L82.483 497.154a48.493 48.493 0 0 1-33.947 11.639Z"/><path fill="#fff" d="M459.791 508.793a48.504 48.504 0 0 1-33.949-14.063L14.102 82.988C-3.318 62.645-.95 32.029 19.392 14.607c18.158-15.549 44.935-15.549 63.09 0l414.165 411.74c19.553 18.306 20.564 48.996 2.259 68.549a48.59 48.59 0 0 1-2.259 2.258 48.493 48.493 0 0 1-36.856 11.639Z"/></svg>