<svg width="40" height="40" viewBox="0 0 40 40" fill="none" xmlns="http://www.w3.org/2000/svg">
<path d="M2.5 12.3875V27.6062C2.5 29.0875 3.29375 30.45 4.575 31.1875L17.9562 38.8312C19.225 39.5563 20.775 39.5563 22.0438 38.8312L35.425 31.1875C36.7062 30.4563 37.5 29.0875 37.5 27.6062V12.3875C37.5 10.9062 36.7062 9.54375 35.425 8.8125L22.0438 1.16875C20.775 0.44375 19.225 0.44375 17.9562 1.16875L4.575 8.8125C3.29375 9.54375 2.5 10.9125 2.5 12.3875Z" fill="#00A88E"/>
<path d="M28.75 10H11.25V10.625H28.75V10Z" fill="#4D4D4F"/>
<path d="M23.125 23.75C23.125 23.0625 21.75 22.5 20 22.5C18.25 22.5 16.875 23.0625 16.875 23.75C16.875 24.4375 18.25 25 20 25C21.75 25 23.125 24.4375 23.125 23.75Z" fill="#4D4D4F"/>
<path d="M28.75 10.625H11.25V23.75H28.75V10.625Z" fill="#6D6E71"/>
<path d="M27.5 11.875H12.5V22.5H27.5V11.875Z" fill="#44ADE2"/>
<path d="M28.75 29.375H21.25V30H28.75V29.375Z" fill="#6D6E71"/>
<path d="M28.75 26.25H21.25V29.375H28.75V26.25Z" fill="#4D4D4F"/>
<path d="M28.125 26.875H21.875V28.75H28.125V26.875Z" fill="#A5CF4C"/>
<path d="M20 13.4375L17.1875 15V18.125C17.1875 20.0625 20 21 20 21C20 21 22.8125 20.0625 22.8125 18.125V15L20 13.4375ZM22.1875 18.125C22.1875 19.3125 20.5625 20.0625 20 20.3125C19.4375 20.0625 17.8125 19.3125 17.8125 18.125V15.375L20 14.125L22.1875 15.375V18.125Z" fill="white"/>
<path d="M20 19.375H11.25V30H20V19.375Z" fill="#6D6E71"/>
<path d="M20 18.75H11.25V19.375H20V18.75Z" fill="#4D4D4F"/>
<path d="M19.375 20H11.875V28.75H19.375V20Z" fill="#F04E45"/>
<path d="M15.625 21.875L13.75 22.9375V25C13.75 26.3125 15.625 26.9375 15.625 26.9375C15.625 26.9375 17.5 26.3125 17.5 25V22.9375L15.625 21.875ZM16.875 25C16.875 25.5625 16.0625 26.0625 15.625 26.25C15.1875 26.0625 14.375 25.5625 14.375 25V23.3125L15.625 22.625L16.875 23.3125V25Z" fill="white"/>
</svg>
