<svg width="497" height="497" viewBox="0 0 497 497" fill="none" xmlns="http://www.w3.org/2000/svg">
<path d="M110.902 39.9875V39.9898L110.899 39.9921L39.9418 143.863C39.9418 143.865 39.9418 143.865 39.9418 143.865C39.9339 143.882 39.9328 143.897 39.9339 143.917C39.9339 143.917 39.9316 143.919 39.9316 143.92L74.6959 292.529L74.6981 292.537H74.6959L80.715 309.677L55.351 376.907C55.3476 376.918 55.351 376.926 55.351 376.934C55.351 376.942 55.3476 376.95 55.351 376.954V376.962C55.3566 376.973 55.3645 376.978 55.3724 376.989L141.363 451.533C141.371 451.536 141.377 451.541 141.38 451.544L175.246 468.108L199.264 480.276C199.275 480.28 199.285 480.284 199.296 480.284L250.745 479.452L306.365 487.804C306.368 487.804 306.37 487.8 306.37 487.8L306.378 487.804L349.383 486.878C349.41 486.878 349.433 486.858 349.446 486.835L362.997 455.761L393.314 438.593C393.317 438.593 393.317 438.59 393.317 438.585C393.317 438.585 393.325 438.585 393.326 438.585V438.582C393.332 438.578 393.332 438.57 393.335 438.57C393.337 438.567 393.343 438.562 393.343 438.559C393.346 438.555 393.343 438.551 393.343 438.547C393.346 438.539 393.349 438.536 393.349 438.536C393.349 438.532 393.349 438.532 393.351 438.528C393.351 438.528 393.348 438.524 393.348 438.52V438.512C393.344 438.504 393.342 438.504 393.339 438.5C393.339 438.497 393.339 438.492 393.339 438.489L381.141 421.201L419.652 407.799C419.657 407.796 419.66 407.791 419.663 407.788C419.672 407.785 419.68 407.776 419.688 407.768C419.688 407.765 419.691 407.765 419.696 407.76C419.696 407.757 419.694 407.752 419.696 407.749C419.696 407.745 419.699 407.741 419.699 407.733L423.971 305.589L452.893 263.854C452.893 263.852 452.893 263.852 452.893 263.852C452.893 263.852 452.895 263.852 452.895 263.85C452.899 263.846 452.898 263.838 452.899 263.833C452.899 263.83 452.902 263.825 452.902 263.82V263.817C452.902 263.814 452.902 263.814 452.902 263.809C452.902 263.801 452.899 263.793 452.899 263.787C452.896 263.784 452.899 263.779 452.896 263.774V263.771L452.893 263.769V263.766L399.29 190.202L398.508 153.984L424.598 52.3617C424.598 52.3594 424.595 52.3583 424.595 52.356L424.598 52.3548C424.598 52.3445 424.592 52.3387 424.592 52.3307C424.592 52.3226 424.592 52.3145 424.589 52.3076V52.3053C424.585 52.2984 424.575 52.295 424.568 52.2892C424.565 52.2846 424.559 52.2788 424.557 52.2765H424.555C424.551 52.2754 424.551 52.2742 424.551 52.2742L274.09 2.2892C274.068 2.27653 274.044 2.27308 274.018 2.28344C274.018 2.28574 274.018 2.28805 274.015 2.2892L243.456 13.9151L110.943 39.9622C110.934 39.9645 110.934 39.9702 110.931 39.9737C110.924 39.976 110.916 39.9772 110.912 39.9852C110.908 39.9875 110.902 39.9852 110.902 39.9875ZM74.9439 292.818L79.0826 297.346L152.711 377.953L112.869 400.827L86.2426 324.992L84.1288 318.974L74.9439 292.818ZM405.986 83.9616L383.897 121.802L357.288 53.4336L385.047 53.0122L424.4 52.4205L405.986 83.9616ZM111.192 40.0589L243.395 14.0751L237.014 94.7378L220.663 87.6331L111.192 40.0589ZM335.273 339.585L321.825 315.652L322.042 315.361L337.369 294.611L346.652 300.707L388.594 328.257L346.646 359.829L335.273 339.585ZM335.76 164.994L320.603 154.321L383.574 122.204L341.398 168.966L335.76 164.994ZM298.96 163.222L326.191 122.675L320.404 154.267L307.694 162.329L293.522 171.319L298.96 163.222ZM336.995 166.038L341.242 169.029L284.739 184.396L288.449 178.872L293.323 171.613L311.313 160.201L320.461 154.397L336.995 166.038ZM368.292 204.942L388.362 239.284L301.974 228.837L292.807 210.668L290.744 206.576L349.916 205.329L368.292 204.942ZM274.619 205.146L273.337 201.373L275.696 197.86L290.578 206.559L294.671 214.674L301.785 228.776L297.857 227.396L280.047 221.125L274.619 205.146ZM347.145 176.806L368.19 204.8L290.647 206.436L283.682 202.363L275.775 197.742L284.616 184.579L341.384 169.141L347.145 176.806ZM228.531 307.239L253.789 318.073L191.409 387.632L155.205 378.498L152.952 377.93L214.95 301.411L228.531 307.239ZM254.01 317.968L258.579 304.601L260.784 304.686L266.572 304.909L261.542 317.621L254.01 317.968ZM276.463 284.15L276.914 284.015L266.634 304.765L258.626 304.461L264.328 287.784L276.463 284.15ZM272.177 305.846L266.783 304.788L268.095 302.13L277.091 283.979L337.229 294.569L321.712 315.572L272.177 305.846ZM253.888 318.174L259.81 331.205L192.119 387.052L253.888 318.174ZM275.8 403.8L282.95 436.278L191.564 387.698L259.854 331.353L275.8 403.8ZM267.863 277.436L269.829 271.678L288.333 267.931L290.646 267.463L277.014 283.834L265.989 287.132L264.384 287.615L267.863 277.436ZM272.245 264.613L276.367 252.555L301.233 250.425L290.784 267.29L269.882 271.523L272.245 264.613ZM283.559 231.515C283.564 231.499 283.564 231.484 283.559 231.469L280.103 221.3L301.856 228.956L301.298 250.276L284.093 251.75L276.418 252.408L283.559 231.515ZM348.084 90.0796L355.079 79.6707L383.779 121.939L358.645 134.758L320.565 154.183L326.389 122.382L348.084 90.0796ZM357.233 53.6742L383.591 121.407L355.15 79.5233L357.233 53.6742ZM360.369 164.119L398.285 154.093L368.323 204.743L341.536 169.104L360.369 164.119ZM385.903 200.607L388.406 239.078L368.443 204.915L385.903 200.607ZM377.938 265.741L301.44 250.281L301.996 228.985L335.162 232.996L388.443 239.438L397.759 269.749L377.938 265.741ZM397.589 269.858L366.99 280.389L290.947 267.302L301.403 250.423L397.589 269.858ZM366.761 280.497L337.345 294.44L277.187 283.851L278.496 282.276L290.857 267.435L366.761 280.497ZM307.62 312.949L321.674 315.708L323.914 340.227L261.686 317.649L265.712 307.468L266.72 304.92L307.62 312.949ZM261.581 317.765L323.767 340.324L298.313 347.851L286.738 342.818L259.952 331.17L254.015 318.111L261.581 317.765ZM291.591 386.473L283.044 436.049L267.21 364.12L260 331.349L298.231 347.972L291.591 386.473ZM282.89 436.411L257.238 448.567L235.355 433.753L153.203 378.14L191.409 387.779L282.89 436.411ZM113.009 400.917L152.823 378.054L256.771 448.42L113.009 400.917ZM214.916 245.782L214.842 199.373L283.404 231.529L280.374 240.393L276.249 252.464L272.561 263.252L267.447 278.206L264.201 287.702L258.461 304.5L254.878 314.984L253.867 317.948L215.002 301.278L214.916 245.782ZM263.313 221.95L214.854 199.22L237.091 95.1074L255.888 150.441L273.192 201.385L279.925 221.205L283.37 231.355L263.313 221.95ZM307.046 34.9517L255.962 150.225L237.16 94.8668L307.046 34.9517ZM241.167 44.0631L243.537 14.0832L307.093 34.7226L237.16 94.6768L241.167 44.0631ZM284.785 129.892L354.8 79.8296L353.135 82.3083L326.265 122.31L293.216 171.518L284.516 184.474L275.617 197.723L273.28 201.202L267.697 184.769L256.039 150.447L284.785 129.892ZM328.958 54.0968L357.109 53.4359L355.021 79.3886L328.064 54.1186L328.958 54.0968ZM398.233 154.459L385.908 200.456L368.481 204.759L398.233 154.459ZM423.751 305.577L388.749 328.144L367.14 280.607L423.751 305.577ZM388.55 328.054L337.498 294.525L366.967 280.56L388.55 328.054ZM368.033 437.975L283.134 436.341L290.736 392.263L298.355 348.071L393.097 438.455L368.033 437.975ZM283.066 436.484L391.738 438.573L257.614 448.546L283.066 436.484ZM256.806 448.583L156.488 449.991L113.06 401.084L256.806 448.583ZM152.822 377.864L74.936 292.596L214.787 301.392L152.822 377.864ZM114.084 210.475L40.2947 144.072L214.7 199.312L214.86 301.166L114.084 210.475ZM308.815 36.2688L354.965 79.5348L317.767 106.136L256.124 150.209L261.792 137.417L307.261 34.8124L308.815 36.2688ZM383.865 122.093L398.337 153.93L341.624 168.928L383.865 122.093ZM444.197 255.735L452.527 263.618L388.562 239.32L386.05 200.691L444.197 255.735ZM417.458 267.62L397.912 269.764L388.608 239.491L452.531 263.771L417.458 267.62ZM417.789 297.298L423.692 305.39L367.195 280.473L397.833 269.923L417.789 297.298ZM423.827 305.697L419.572 407.39L388.802 328.279L423.827 305.697ZM419.533 407.685L381.059 421.075L346.714 359.954L388.686 328.365L419.533 407.685ZM345.419 370.574L324.064 340.305L322.864 327.172L321.842 315.973L380.284 419.992L345.419 370.574ZM98.6135 394.914L55.5201 376.895L72.2799 348.602L86.157 325.183L112.712 400.804L98.6135 394.914ZM40.1222 144.108L161.604 253.433L214.729 301.239L74.8188 292.443L40.1222 144.108ZM196.449 171.031L111.144 40.1936L182.178 71.0624L236.996 94.8863L214.738 199.079L196.449 171.031ZM243.689 13.9818L274.041 2.43541L281.909 7.26168L356.941 53.2955L327.914 53.9793L313.454 40.4216L307.288 34.6409L307.285 34.6397C307.285 34.6386 307.285 34.6409 307.282 34.6374L307.28 34.6363C307.28 34.634 307.275 34.6351 307.275 34.6328C307.271 34.6305 307.266 34.627 307.259 34.6247L243.689 13.9818ZM424.099 52.28L391.21 52.7785L357.208 53.2897L274.617 2.61962L424.099 52.28ZM398.417 153.768L383.964 121.968L394.308 104.249L424.332 52.8177L398.417 153.768ZM398.375 154.473L399.151 190.194L395.541 192.994L386.088 200.332L396.946 159.8L398.375 154.473ZM399.208 190.329L452.319 263.228L419.966 232.601L386.075 200.521L393.337 194.885L399.208 190.329ZM423.901 305.44L417.771 297.034L397.991 269.896L405.68 269.056L452.686 263.898L423.901 305.44ZM392.798 437.975L298.448 347.96L323.969 340.414L330.209 349.26L380.967 421.205H380.97L392.798 437.975ZM362.908 455.643H362.906L306.381 487.647L282.705 468.815L257.422 448.706L292.167 446.124L392.961 438.623L362.908 455.643ZM349.333 486.734L306.657 487.656L311.426 484.953L362.79 455.875L349.333 486.734ZM306.122 487.621L176.366 468.135L175.308 467.976L156.636 450.135L182.091 449.782L257.209 448.724L299.126 482.059L306.122 487.621ZM175.703 468.182L249.877 479.323L199.31 480.141L175.703 468.182ZM141.448 451.415L55.8008 377.172L109.103 399.455L112.788 400.995L156.409 450.117V450.12L158.619 452.228L174.894 467.777L141.448 451.415ZM84.1401 319.426L86.0961 325.009L55.7681 376.2L80.7883 309.884L84.1401 319.426ZM110.954 40.1614L209.691 191.601L214.603 199.131L207.965 197.028L40.1165 143.865L110.954 40.1614Z" fill="url(#paint0_radial_168_49276)"/>
<path d="M349.658 484.367C348.628 484.751 348.097 485.919 348.476 486.973C348.855 488.023 349.996 488.564 351.026 488.179C352.056 487.789 352.587 486.627 352.209 485.572C351.83 484.522 350.688 483.981 349.658 484.367Z" fill="url(#paint1_radial_168_49276)"/>
<path d="M305.897 485.529C304.865 485.913 304.337 487.077 304.717 488.131C305.094 489.181 306.233 489.722 307.265 489.337C308.295 488.951 308.825 487.785 308.446 486.734C308.069 485.681 306.928 485.139 305.897 485.529Z" fill="url(#paint2_radial_168_49276)"/>
<path d="M423.278 303.415C422.248 303.8 421.718 304.967 422.098 306.022C422.476 307.072 423.615 307.613 424.644 307.227C425.678 306.838 426.206 305.675 425.829 304.62C425.449 303.57 424.308 303.03 423.278 303.415Z" fill="url(#paint3_radial_168_49276)"/>
<path d="M398.79 189.091C397.759 189.476 397.232 190.643 397.607 191.696C397.986 192.747 399.129 193.287 400.157 192.902C401.19 192.517 401.718 191.351 401.34 190.3C400.961 189.246 399.82 188.706 398.79 189.091Z" fill="url(#paint4_radial_168_49276)"/>
<path d="M397.802 267.843C396.774 268.229 396.244 269.396 396.622 270.451C397 271.501 398.142 272.042 399.169 271.653C400.202 271.267 400.731 270.104 400.354 269.051C399.975 267.999 398.832 267.457 397.802 267.843Z" fill="url(#paint5_radial_168_49276)"/>
<path d="M388.699 327.076C387.671 327.465 387.141 328.628 387.522 329.682C387.897 330.732 389.04 331.273 390.069 330.888C391.099 330.503 391.629 329.336 391.249 328.286C390.87 327.231 389.732 326.69 388.699 327.076Z" fill="url(#paint6_radial_168_49276)"/>
<path d="M321.255 314.552C320.224 314.937 319.694 316.104 320.074 317.159C320.451 318.209 321.592 318.75 322.622 318.364C323.65 317.975 324.182 316.812 323.805 315.758C323.426 314.708 322.285 314.166 321.255 314.552Z" fill="url(#paint7_radial_168_49276)"/>
<path d="M259.554 330.327C258.525 330.711 257.996 331.879 258.374 332.933C258.752 333.983 259.892 334.525 260.923 334.139C261.956 333.754 262.479 332.587 262.104 331.537C261.73 330.484 260.586 329.942 259.554 330.327Z" fill="url(#paint8_radial_168_49276)"/>
<path d="M213.104 300.921C212.075 301.307 211.545 302.473 211.922 303.523C212.301 304.577 213.441 305.117 214.472 304.729C215.503 304.345 216.033 303.181 215.653 302.127C215.277 301.076 214.132 300.536 213.104 300.921Z" fill="url(#paint9_radial_168_49276)"/>
<path d="M301.185 247.634C300.152 248.021 299.625 249.186 300.004 250.24C300.381 251.29 301.52 251.831 302.553 251.447C303.583 251.061 304.113 249.895 303.735 248.843C303.356 247.789 302.215 247.249 301.185 247.634Z" fill="url(#paint10_radial_168_49276)"/>
<path d="M382.841 120.066C381.813 120.45 381.283 121.618 381.662 122.67C382.037 123.721 383.179 124.262 384.209 123.875C385.24 123.491 385.765 122.324 385.389 121.274C385.014 120.221 383.873 119.68 382.841 120.066Z" fill="url(#paint11_radial_168_49276)"/>
<path d="M356.568 51.5212C355.537 51.9068 355.007 53.0731 355.386 54.1254C355.764 55.1765 356.902 55.7177 357.935 55.332C358.966 54.9463 359.495 53.78 359.116 52.7289C358.741 51.6743 357.598 51.1355 356.568 51.5212Z" fill="url(#paint12_radial_168_49276)"/>
<path d="M354.2 77.2203C353.169 77.6059 352.64 78.7722 353.019 79.8245C353.395 80.8756 354.537 81.4168 355.566 81.0299C356.6 80.6454 357.127 79.478 356.748 78.4268C356.371 77.3745 355.229 76.8346 354.2 77.2203Z" fill="url(#paint13_radial_168_49276)"/>
<path d="M191.439 385.156C190.41 385.545 189.885 386.708 190.259 387.762C190.638 388.812 191.779 389.353 192.809 388.969C193.84 388.583 194.37 387.417 193.99 386.366C193.612 385.311 192.474 384.77 191.439 385.156Z" fill="url(#paint14_radial_168_49276)"/>
<path d="M152.131 375.632C151.103 376.016 150.573 377.184 150.949 378.234C151.33 379.288 152.469 379.828 153.501 379.444C154.532 379.055 155.059 377.892 154.683 376.837C154.304 375.787 153.164 375.247 152.131 375.632Z" fill="url(#paint15_radial_168_49276)"/>
<path d="M156.71 448.35C155.678 448.74 155.15 449.902 155.529 450.957C155.907 452.007 157.049 452.548 158.078 452.164C159.108 451.778 159.636 450.612 159.259 449.562C158.88 448.506 157.741 447.966 156.71 448.35Z" fill="url(#paint16_radial_168_49276)"/>
<path d="M255.121 147.029C254.093 147.415 253.563 148.58 253.94 149.633C254.318 150.685 255.459 151.226 256.488 150.839C257.52 150.453 258.048 149.287 257.669 148.236C257.295 147.185 256.152 146.642 255.121 147.029Z" fill="url(#paint17_radial_168_49276)"/>
<path d="M273.969 0.124552C272.941 0.510239 272.409 1.67651 272.789 2.72881C273.165 3.7788 274.308 4.31991 275.339 3.93422C276.369 3.54853 276.897 2.38226 276.522 1.33112C276.14 0.278828 275 -0.261135 273.969 0.124552Z" fill="url(#paint18_radial_168_49276)"/>
<path d="M110.798 37.5443C109.768 37.93 109.238 39.0952 109.617 40.1486C109.99 41.1997 111.134 41.7408 112.164 41.3552C113.195 40.9683 113.725 39.8032 113.347 38.7509C112.969 37.6998 111.828 37.1587 110.798 37.5443Z" fill="url(#paint19_radial_168_49276)"/>
<path d="M337.673 292.616C336.643 293.001 336.113 294.168 336.492 295.218C336.869 296.273 338.011 296.813 339.042 296.425C340.069 296.039 340.6 294.873 340.224 293.823C339.844 292.768 338.701 292.227 337.673 292.616Z" fill="url(#paint20_radial_168_49276)"/>
<path d="M323.905 338.843C322.873 339.228 322.345 340.395 322.725 341.445C323.1 342.5 324.239 343.04 325.275 342.652C326.301 342.266 326.831 341.103 326.452 340.049C326.077 338.999 324.933 338.457 323.905 338.843Z" fill="url(#paint21_radial_168_49276)"/>
<path d="M393.435 434.179C391.42 434.933 390.383 437.213 391.125 439.275C391.864 441.332 394.094 442.392 396.111 441.633C398.128 440.879 399.161 438.599 398.421 436.541C397.686 434.482 395.452 433.424 393.435 434.179Z" fill="url(#paint22_radial_168_49276)"/>
<path d="M419.064 403.435C417.049 404.189 416.014 406.473 416.755 408.53C417.492 410.588 419.728 411.646 421.744 410.892C423.758 410.138 424.796 407.853 424.054 405.796C423.315 403.739 421.083 402.681 419.064 403.435Z" fill="url(#paint23_radial_168_49276)"/>
<path d="M282.617 431.697C280.6 432.451 279.566 434.731 280.305 436.789C281.043 438.851 283.276 439.909 285.295 439.154C287.306 438.395 288.344 436.116 287.605 434.058C286.866 432.001 284.633 430.942 282.617 431.697Z" fill="url(#paint24_radial_168_49276)"/>
<path d="M73.2937 289.326C71.2791 290.08 70.243 292.361 70.9792 294.422C71.7222 296.479 73.9544 297.538 75.9713 296.783C77.9859 296.028 79.0209 293.745 78.2813 291.687C77.5429 289.629 75.3106 288.571 73.2937 289.326Z" fill="url(#paint25_radial_168_49276)"/>
<path d="M39.6828 140.365C37.6682 141.119 36.6355 143.4 37.3728 145.46C38.1112 147.517 40.3457 148.575 42.3615 147.82C44.3761 147.065 45.4133 144.784 44.6738 142.725C43.9353 140.666 41.6997 139.61 39.6828 140.365Z" fill="url(#paint26_radial_168_49276)"/>
<path d="M234.807 90.9769C232.792 91.731 231.757 94.0129 232.497 96.0714C233.234 98.1288 235.466 99.1868 237.481 98.4327C239.5 97.6775 240.534 95.3956 239.795 93.337C239.056 91.2785 236.824 90.2205 234.807 90.9769Z" fill="url(#paint27_radial_168_49276)"/>
<path d="M242.565 11.1029C240.548 11.857 239.513 14.1389 240.253 16.1974C240.991 18.2559 243.226 19.314 245.242 18.5576C247.259 17.8023 248.292 15.5216 247.552 13.4631C246.815 11.4045 244.581 10.3488 242.565 11.1029Z" fill="url(#paint28_radial_168_49276)"/>
<path d="M305.868 30.533C303.849 31.2871 302.816 33.569 303.556 35.6276C304.294 37.6861 306.526 38.7441 308.542 37.9889C310.557 37.2336 311.595 34.9529 310.857 32.8932C310.117 30.8347 307.882 29.7778 305.868 30.533Z" fill="url(#paint29_radial_168_49276)"/>
<path d="M385.498 196.942C383.481 197.696 382.447 199.978 383.186 202.036C383.923 204.095 386.159 205.152 388.174 204.398C390.189 203.642 391.224 201.362 390.483 199.302C389.746 197.242 387.514 196.185 385.498 196.942Z" fill="url(#paint30_radial_168_49276)"/>
<path d="M386.13 235.609C384.116 236.365 383.08 238.647 383.823 240.705C384.562 242.762 386.793 243.819 388.811 243.064C390.826 242.31 391.862 240.029 391.121 237.969C390.382 235.912 388.15 234.854 386.13 235.609Z" fill="url(#paint31_radial_168_49276)"/>
<path d="M299.061 346.033C297.046 346.789 296.01 349.068 296.751 351.126C297.486 353.187 299.722 354.241 301.74 353.487C303.753 352.732 304.791 350.453 304.052 348.395C303.313 346.333 301.079 345.278 299.061 346.033Z" fill="url(#paint32_radial_168_49276)"/>
<path d="M173.931 463.984C171.916 464.739 170.881 467.022 171.619 469.08C172.359 471.137 174.592 472.196 176.608 471.438C178.625 470.682 179.658 468.404 178.921 466.345C178.18 464.287 175.946 463.229 173.931 463.984Z" fill="url(#paint33_radial_168_49276)"/>
<path d="M52.9576 370.099C48.7919 371.659 46.6532 376.374 48.1808 380.63C49.7096 384.887 54.3251 387.068 58.4908 385.508C62.6566 383.948 64.7975 379.234 63.2699 374.982C61.7377 370.726 57.1256 368.539 52.9576 370.099Z" fill="url(#paint34_radial_168_49276)"/>
<path d="M213.71 190.357C209.542 191.917 207.403 196.632 208.931 200.887C210.458 205.141 215.077 207.324 219.241 205.764C223.404 204.204 225.545 199.491 224.022 195.237C222.491 190.98 217.874 188.797 213.71 190.357Z" fill="url(#paint35_radial_168_49276)"/>
<path d="M419.727 44.4125C415.561 45.9725 413.423 50.6859 414.95 54.9412C416.478 59.1964 421.095 61.3804 425.26 59.8192C429.424 58.2592 431.567 53.5469 430.039 49.2906C428.51 45.0365 423.894 42.8513 419.727 44.4125Z" fill="url(#paint36_radial_168_49276)"/>
<path d="M449.522 256.556C445.354 258.116 443.218 262.831 444.746 267.087C446.273 271.34 450.886 273.527 455.056 271.967C459.222 270.407 461.362 265.691 459.835 261.437C458.307 257.182 453.689 254.996 449.522 256.556Z" fill="url(#paint37_radial_168_49276)"/>
<path d="M494.717 319.58C494.72 319.572 494.72 319.564 494.72 319.557C494.722 319.549 494.728 319.549 494.728 319.541L473.049 183.525L473.215 150.221C473.215 150.219 473.221 150.218 473.221 150.215C473.221 150.189 473.207 150.167 473.193 150.152L375.437 23.101C375.437 23.101 375.433 23.0999 375.433 23.0987V23.0953C375.43 23.0907 375.424 23.0907 375.416 23.0872C375.408 23.0826 375.403 23.0769 375.396 23.0734L375.394 23.0723V23.0734C375.386 23.0723 375.378 23.0757 375.369 23.0769C375.361 23.0792 375.355 23.0757 375.347 23.0803C375.347 23.0803 375.347 23.0826 375.345 23.0838H375.342L290.897 83.0863L257.326 94.8032L171.24 68.7399H171.234V68.7376H171.232H171.229L171.217 68.7399C171.217 68.7399 171.204 68.7399 171.198 68.7434H171.195C171.195 68.7434 171.195 68.7434 171.191 68.7445C171.184 68.7468 171.182 68.7526 171.178 68.7549C171.175 68.7583 171.169 68.7595 171.164 68.7641V68.7676L171.162 68.7687L142.75 110.866L50.3126 150.129C50.3047 150.131 50.3047 150.136 50.3013 150.139C50.299 150.143 50.2934 150.142 50.2923 150.144C50.2889 150.146 50.2889 150.15 50.2889 150.153C50.281 150.162 50.2776 150.173 50.2776 150.184C50.2754 150.188 50.272 150.192 50.272 150.197L51.2088 191.735L31.1142 185.993L31.1052 185.996C31.0962 185.993 31.0962 185.991 31.0962 185.991L31.0883 185.996C31.0793 185.996 31.077 185.993 31.0747 185.996L31.0714 185.998C31.068 186 31.0623 186.003 31.0578 186.006C31.0556 186.008 31.0522 186.007 31.0499 186.01H31.0477C31.0477 186.01 31.0477 186.01 31.0477 186.011C31.0443 186.014 31.0443 186.019 31.042 186.021C31.0398 186.026 31.0364 186.029 31.0308 186.034C31.0308 186.034 31.0308 186.035 31.0274 186.037C31.0274 186.039 31.0308 186.042 31.0274 186.045C31.0274 186.049 31.0274 186.049 31.0274 186.053L25.6847 221.031L1.77721 244.72C1.75805 244.74 1.75016 244.771 1.7603 244.796L15.7118 286.346C15.7118 286.349 15.7152 286.349 15.7197 286.349C15.7197 286.353 15.7163 286.353 15.7163 286.357L42.5493 336.809L59.4929 386.428C59.4985 386.436 59.5042 386.447 59.5121 386.455L78.9686 405.295L105.857 432.059C105.863 432.063 105.866 432.068 105.872 432.071L204.012 488.856C204.023 488.859 204.031 488.864 204.04 488.864H204.048C204.048 488.864 204.057 488.856 204.065 488.856C204.074 488.852 204.087 488.852 204.092 488.844L257.172 441.38L274.997 441.248H275.005L423.602 423.415V423.412C423.624 423.409 423.635 423.401 423.646 423.384C423.648 423.384 423.649 423.384 423.649 423.384L494.717 319.595V319.592H494.719C494.721 319.587 494.717 319.584 494.717 319.58ZM247.445 441.307L241.188 441.354L162.299 441.933L169.611 395.858L269.065 438.7L274.656 441.109L247.445 441.307ZM375.356 23.291L388.36 61.2265L397.529 87.9851L325.516 86.0141L352.697 51.8054L375.356 23.291ZM413.126 230.755L400.965 217.524L472.922 183.633L494.553 319.331L413.126 230.755ZM119.51 203.679L134.094 152.589L173.858 183.318L182.657 190.117L168.856 211.959L168.662 212.268L142.03 207.616L119.51 203.679ZM296.783 142.997L325.254 86.462L317.406 157.894L302.377 147.036L296.783 142.997ZM311.104 189.709L314.491 173.025L317.525 158.066L344.576 141.638L316.675 181.708L311.104 189.709ZM317.386 158.052L315.199 168.824L310.9 190L305.905 197.174L302.104 202.633L296.777 143.167L300.993 146.211L317.386 158.052ZM260.421 147.349L279.645 204.514L275.173 203.945L255.313 201.411L215.97 122.18L254.451 129.599L260.421 147.349ZM269.952 219.78L258.056 204.861L255.434 201.571L270.85 203.539L279.721 204.67L292.84 215.942L290.421 219.412L286.512 219.483L269.952 219.78ZM296.627 143.073L301.979 202.814L292.92 215.823L285.953 209.833L279.809 204.558L254.614 129.645L287.599 140.185L296.627 143.073ZM218.551 309.831L169.551 395.621L168.252 393.652L147.392 362.088L189.867 278.333L208.521 298.818L218.551 309.831ZM187.61 270.739L197.566 261.54L199.764 267.015L200.602 269.101L189.888 278.084L187.61 270.739ZM214.082 257.801L200.713 269.004L197.675 261.433L213.214 244.432L213.244 244.911L214.082 257.801ZM168.781 212.347L182.748 190.238L213.185 244.251L199.595 259.123L197.604 261.3L194.772 256.494L168.781 212.347ZM147.677 361.208L175.712 277.08L189.738 278.27L147.677 361.208ZM175.562 277.088L147.278 361.963L71.1535 291.068L103.472 286.743L175.562 277.088ZM214.217 257.689L214.103 255.982L213.344 244.277L223.701 225.572L224.068 227.95L226.994 246.977L222.377 250.848L214.217 257.689ZM227.12 246.872L223.814 225.377L235.721 209.554L242.324 234.128L232.658 242.229L227.12 246.872ZM242.442 234.027L240.403 226.441L235.837 209.437L255.246 201.562L269.773 219.781L259.234 219.972C259.217 219.972 259.206 219.978 259.19 219.988L242.442 234.027ZM344.779 141.348L317.551 157.885L322.295 114.685L325.43 86.1718L374.168 99.1401L367.007 109.429L344.779 141.348ZM374.281 99.0192L325.982 86.1695L397.328 88.1221L374.281 99.0192ZM296.612 142.916L254.623 129.497L290.873 83.335L294.707 123.14L296.612 142.916ZM254.421 129.446L216.143 122.065L252.376 111.222L254.421 129.446ZM184.727 123.657L215.794 122.155L240.064 171.02L255.17 201.438L235.779 209.305L195.234 141.284L184.727 123.657ZM235.666 209.39L223.748 225.225L185.533 156.82L184.683 123.86L235.666 209.39ZM223.659 225.355L214.267 242.316L213.27 244.116L182.822 190.084L185.515 157.078L223.659 225.355ZM197.503 261.404L195.508 263.248L187.535 270.615L145.353 218.724L168.663 212.43L176.042 224.958L197.503 261.404ZM189.746 278.127L175.699 276.933L155.768 255.259L147.159 245.896L145.316 218.9L187.462 270.755L189.746 278.127ZM147.074 246.017L175.518 276.949L142.911 281.318L71.3316 290.904L113.966 265.636L147.074 246.017ZM147.255 362.138L169.267 395.45L89.8592 335.833L68.7003 319.95L71.0487 291.171L147.255 362.138ZM69.0013 320.354L169.479 395.788L162.17 441.832L69.0013 320.354ZM218.656 309.738L189.95 278.216L192.326 276.225L200.731 269.18L214.199 257.889L221.81 251.507L233.8 241.458L242.449 234.21L252.126 226.099L259.234 220.141L312.403 274.809L269.712 290.715L218.656 309.738ZM259.402 220.111L269.917 219.925L290.457 219.555L343.251 218.605L400.599 217.576L312.538 274.741L274.957 236.103L259.402 220.111ZM400.797 217.43L343.429 218.459L431.82 129.796L400.797 217.43ZM400.971 217.362L432.014 129.67L472.87 183.502L446.125 196.098L400.971 217.362ZM343.199 218.464L307.631 219.101L290.599 219.407L292.994 215.968L302.111 202.874L311.025 190.07L344.889 141.443L372.413 101.908L374.121 99.4579L352.2 183.824L343.199 218.464ZM406.962 116.243L374.449 99.0987L397.589 88.1578L406.674 115.377L406.962 116.243ZM254.553 129.354L252.509 111.162L290.553 83.5112L254.553 129.354ZM185.284 156.753L134.138 152.403L142.836 111.071L185.284 156.753ZM185.386 156.907L182.691 189.963L134.29 152.562L185.386 156.907ZM31.2236 186.211L146.94 245.93L108.936 268.451L71.025 290.914L40.3002 210.075L31.2236 186.211ZM68.5921 319.587L31.5877 187.555L70.919 291.029L68.5921 319.587ZM161.995 441.84L102.08 417.04L68.8345 320.374L161.995 441.84ZM218.629 309.979L274.859 441.042L169.657 395.722L218.629 309.979ZM218.811 309.835L312.502 274.92L423.335 423.12L336.882 375.236L218.811 309.835ZM431.87 129.54L353.197 208.461L343.386 218.299L362.683 144.025L374.334 99.2011L430 128.555L431.87 129.54ZM296.741 142.768L291.004 83.2314L325.257 86.1442L296.741 142.768ZM252.244 111.111L215.863 121.998L171.505 69.037L181.621 74.3076L252.244 111.111ZM171.358 69.0876L215.692 122.017L184.659 123.518L179.897 104.038L171.358 69.0876ZM184.535 123.646L185.389 156.655L143.028 111.069L152.498 113.938L184.535 123.646ZM133.994 152.395L50.6744 150.131L142.699 111.042L133.994 152.395ZM133.961 152.539L119.366 203.654L51.3509 191.77L50.414 150.27L133.961 152.539ZM52.6136 192.138L168.366 212.363L157.719 215.235L145.23 218.606L110.051 208.552L52.6136 192.138ZM162.374 442.077L241.041 441.501L224.284 462.87L204.045 488.681L172.645 453.565L162.374 442.077ZM275.04 441.101L218.785 309.987L281.03 344.461L423.362 423.299L275.04 441.101ZM312.706 274.804L400.836 217.592L441.611 261.95L494.446 319.427L344.788 282.681L312.706 274.804ZM432.046 129.478C432.043 129.474 432.038 129.47 432.033 129.465L432.029 129.462H432.026C432.024 129.461 432.026 129.46 432.024 129.459V129.457L424.586 125.536L407.141 116.337L397.776 88.2707L465.931 144.362L473.078 150.243L472.91 183.32L432.046 129.478ZM472.709 149.756L397.69 88.0151L386.455 55.2374L375.589 23.5293L472.709 149.756ZM375.01 23.4948L338.067 69.9868L325.339 86.006L291.127 83.0967L375.01 23.4948ZM286.086 86.5817L252.562 110.948L256.054 99.3577L257.385 94.9333L290.492 83.3799L286.086 86.5817ZM255.073 102.122L252.391 111.026L211.231 89.5762L171.932 69.0991L257.241 94.9263L255.073 102.122ZM171.191 68.9817L182.635 115.826L184.507 123.488L152.751 113.865L142.911 110.883L171.191 68.9817ZM51.2596 191.901L134.883 215.798L145.165 218.738L147.01 245.806L31.7692 186.33L51.2596 191.901ZM31.1153 186.396L58.9236 285.618L68.5098 319.825L41.3205 302.505L15.8572 286.287L25.8188 221.075L31.1153 186.396ZM25.6475 221.267L16.5923 280.522L15.7546 286.027L1.90799 244.792L25.6475 221.267ZM23.4908 291.322L68.5707 320.031L93.4623 392.414L101.899 416.95L79.0689 405.186L78.5571 404.224L15.9711 286.529L23.4908 291.322ZM59.6203 386.362L42.9642 337.598L78.7442 404.875L59.6203 386.362ZM79.3936 405.517L99.2898 415.767L101.991 417.156L101.997 417.159L162.175 442.068L164.857 445.072L203.696 488.505L105.948 431.95L79.3936 405.517ZM256.954 441.384L204.598 488.202L241.219 441.497L247.023 441.454L256.954 441.384ZM423.589 423.221L316.92 280.593L312.704 274.951L321.318 277.067L494.539 319.599L423.589 423.221Z" fill="#00344A"/>
<path d="M3.97293 243.669C3.97293 244.789 3.08342 245.7 1.98421 245.7C0.889511 245.7 0 244.789 0 243.669C0 242.549 0.889511 241.641 1.98421 241.641C3.08342 241.641 3.97293 242.548 3.97293 243.669Z" fill="#00344A"/>
<path d="M17.9729 286.025C17.9729 287.145 17.0834 288.051 15.9865 288.051C14.8895 288.051 14 287.145 14 286.025C14 284.901 14.8895 283.994 15.9865 283.994C17.0834 283.994 17.9729 284.901 17.9729 286.025Z" fill="#00344A"/>
<path d="M144.987 110.783C144.987 111.903 144.095 112.811 142.998 112.811C141.899 112.811 141.012 111.903 141.012 110.783C141.012 109.662 141.899 108.754 142.998 108.754C144.095 108.754 144.987 109.662 144.987 110.783Z" fill="#00344A"/>
<path d="M258.524 94.8977C258.524 96.0191 257.632 96.9275 256.535 96.9275C255.438 96.9275 254.549 96.0191 254.549 94.8977C254.549 93.7775 255.438 92.8691 256.535 92.8691C257.632 92.8691 258.524 93.7775 258.524 94.8977Z" fill="#00344A"/>
<path d="M186.46 122.959C186.46 124.08 185.571 124.988 184.471 124.988C183.377 124.988 182.488 124.08 182.488 122.959C182.488 121.839 183.376 120.93 184.471 120.93C185.571 120.93 186.46 121.839 186.46 122.959Z" fill="#00344A"/>
<path d="M135.131 152.075C135.131 153.197 134.244 154.105 133.145 154.105C132.048 154.105 131.158 153.197 131.158 152.075C131.158 150.955 132.048 150.047 133.145 150.047C134.244 150.047 135.131 150.955 135.131 152.075Z" fill="#00344A"/>
<path d="M169.874 212.431C169.874 213.551 168.984 214.46 167.887 214.46C166.79 214.46 165.898 213.551 165.898 212.431C165.898 211.311 166.79 210.402 167.887 210.402C168.984 210.402 169.874 211.311 169.874 212.431Z" fill="#00344A"/>
<path d="M176.61 277.021C176.61 278.141 175.72 279.047 174.623 279.047C173.524 279.047 172.635 278.141 172.635 277.021C172.635 275.901 173.524 274.99 174.623 274.99C175.72 274.99 176.61 275.901 176.61 277.021Z" fill="#00344A"/>
<path d="M219.641 311.435C219.641 312.555 218.752 313.466 217.655 313.466C216.556 313.466 215.666 312.555 215.666 311.435C215.666 310.315 216.556 309.404 217.655 309.404C218.752 309.404 219.641 310.315 219.641 311.435Z" fill="#00344A"/>
<path d="M238.303 208.636C238.303 209.756 237.411 210.667 236.317 210.667C235.22 210.667 234.33 209.756 234.33 208.636C234.33 207.516 235.22 206.607 236.317 206.607C237.411 206.607 238.303 207.515 238.303 208.636Z" fill="#00344A"/>
<path d="M327.475 86.4282C327.475 87.5484 326.583 88.4568 325.486 88.4568C324.39 88.4568 323.5 87.5484 323.5 86.4282C323.5 85.3068 324.39 84.3984 325.486 84.3984C326.583 84.3984 327.475 85.3068 327.475 86.4282Z" fill="#00344A"/>
<path d="M399.536 88.0169C399.536 89.1371 398.643 90.0455 397.547 90.0455C396.45 90.0455 395.561 89.1371 395.561 88.0169C395.561 86.8967 396.45 85.9883 397.547 85.9883C398.643 85.9871 399.536 86.8955 399.536 88.0169Z" fill="#00344A"/>
<path d="M376.725 99.1333C376.725 100.253 375.835 101.162 374.738 101.162C373.641 101.162 372.752 100.253 372.752 99.1333C372.752 98.013 373.641 97.1035 374.738 97.1035C375.835 97.1035 376.725 98.013 376.725 99.1333Z" fill="#00344A"/>
<path d="M149.653 361.203C149.653 362.323 148.766 363.234 147.667 363.234C146.571 363.234 145.676 362.323 145.676 361.203C145.676 360.083 146.571 359.172 147.667 359.172C148.766 359.173 149.653 360.083 149.653 361.203Z" fill="#00344A"/>
<path d="M171.946 395.615C171.946 396.735 171.056 397.646 169.957 397.646C168.861 397.646 167.971 396.735 167.971 395.615C167.971 394.495 168.862 393.584 169.957 393.584C171.055 393.584 171.946 394.495 171.946 395.615Z" fill="#00344A"/>
<path d="M103.514 416.261C103.514 417.382 102.624 418.288 101.527 418.288C100.427 418.288 99.541 417.382 99.541 416.261C99.541 415.141 100.427 414.23 101.527 414.23C102.624 414.232 103.514 415.141 103.514 416.261Z" fill="#00344A"/>
<path d="M346.657 218.166C346.657 219.286 345.767 220.192 344.67 220.192C343.573 220.192 342.684 219.286 342.684 218.166C342.684 217.045 343.573 216.135 344.67 216.135C345.767 216.135 346.657 217.045 346.657 218.166Z" fill="#00344A"/>
<path d="M475.223 149.518C475.223 150.639 474.334 151.547 473.237 151.547C472.138 151.547 471.248 150.639 471.248 149.518C471.248 148.397 472.138 147.49 473.237 147.49C474.334 147.49 475.223 148.397 475.223 149.518Z" fill="#00344A"/>
<path d="M497.001 318.845C497.001 319.965 496.111 320.876 495.012 320.876C493.916 320.876 493.025 319.965 493.025 318.845C493.025 317.724 493.917 316.818 495.012 316.818C496.111 316.818 497.001 317.724 497.001 318.845Z" fill="#00344A"/>
<path d="M184.383 189.137C184.383 190.257 183.494 191.166 182.397 191.166C181.3 191.166 180.41 190.257 180.41 189.137C180.41 188.017 181.3 187.107 182.397 187.107C183.494 187.107 184.383 188.017 184.383 189.137Z" fill="#00344A"/>
<path d="M146.625 218.255C146.625 219.375 145.736 220.284 144.637 220.284C143.542 220.284 142.652 219.375 142.652 218.255C142.652 217.135 143.542 216.227 144.637 216.227C145.736 216.227 146.625 217.135 146.625 218.255Z" fill="#00344A"/>
<path d="M35.0457 184.416C35.0457 186.608 33.3027 188.386 31.1584 188.386C29.0119 188.386 27.2734 186.608 27.2734 184.416C27.2734 182.223 29.0119 180.445 31.1584 180.445C33.3027 180.445 35.0457 182.223 35.0457 184.416Z" fill="#00344A"/>
<path d="M54.4796 149.256C54.4796 151.448 52.7389 153.225 50.5923 153.225C48.4435 153.225 46.7051 151.448 46.7051 149.256C46.7051 147.062 48.4435 145.285 50.5923 145.285C52.7389 145.285 54.4796 147.062 54.4796 149.256Z" fill="#00344A"/>
<path d="M75.4818 289.814C75.4818 292.004 73.7411 293.782 71.5923 293.782C69.4458 293.782 67.7051 292.005 67.7051 289.814C67.7051 287.619 69.4458 285.842 71.5923 285.842C73.7411 285.842 75.4818 287.619 75.4818 289.814Z" fill="#00344A"/>
<path d="M278.433 441.486C278.433 443.675 276.692 445.454 274.546 445.454C272.399 445.454 270.656 443.677 270.656 441.486C270.656 439.291 272.399 437.514 274.546 437.514C276.692 437.514 278.433 439.292 278.433 441.486Z" fill="#00344A"/>
<path d="M426.954 422.429C426.954 424.619 425.215 426.398 423.069 426.398C420.925 426.398 419.182 424.62 419.182 422.429C419.182 420.235 420.925 418.457 423.069 418.457C425.214 418.457 426.954 420.235 426.954 422.429Z" fill="#00344A"/>
<path d="M405.183 218.343C405.183 220.537 403.442 222.315 401.295 222.315C399.149 222.315 397.408 220.537 397.408 218.343C397.408 216.151 399.149 214.373 401.295 214.373C403.442 214.373 405.183 216.151 405.183 218.343Z" fill="#00344A"/>
<path d="M475.942 183.401C475.942 185.593 474.203 187.371 472.056 187.371C469.909 187.371 468.166 185.593 468.166 183.401C468.166 181.208 469.909 179.432 472.056 179.432C474.203 179.432 475.942 181.208 475.942 183.401Z" fill="#00344A"/>
<path d="M436.285 129.403C436.285 131.597 434.544 133.374 432.397 133.374C430.249 133.374 428.508 131.597 428.508 129.403C428.508 127.211 430.249 125.434 432.397 125.434C434.544 125.434 436.285 127.211 436.285 129.403Z" fill="#00344A"/>
<path d="M255.88 110.345C255.88 112.537 254.14 114.314 251.993 114.314C249.846 114.314 248.104 112.537 248.104 110.345C248.104 108.153 249.846 106.375 251.993 106.375C254.14 106.375 255.88 108.153 255.88 110.345Z" fill="#00344A"/>
<path d="M220.117 123.052C220.117 125.245 218.374 127.021 216.225 127.021C214.081 127.021 212.34 125.245 212.34 123.052C212.34 120.86 214.081 119.082 216.225 119.082C218.374 119.082 220.117 120.86 220.117 123.052Z" fill="#00344A"/>
<path d="M144.685 248.518C146.831 248.518 148.571 246.74 148.571 244.548C148.571 242.355 146.831 240.578 144.685 240.578C142.539 240.578 140.799 242.355 140.799 244.548C140.799 246.74 142.539 248.518 144.685 248.518Z" fill="#00344A"/>
<path d="M83.2162 405.134C83.2162 407.324 81.4778 409.103 79.3267 409.103C77.1802 409.103 75.4395 407.325 75.4395 405.134C75.4395 402.94 77.1802 401.162 79.3267 401.162C81.4778 401.163 83.2162 402.941 83.2162 405.134Z" fill="#00344A"/>
<path d="M211.176 488.792C211.176 493.324 207.577 497 203.14 497C198.7 497 195.104 493.324 195.104 488.792C195.104 484.264 198.7 480.588 203.14 480.588C207.577 480.588 211.176 484.264 211.176 488.792Z" fill="#00344A"/>
<path d="M321.077 272.787C321.077 277.319 317.483 280.992 313.044 280.992C308.607 280.992 305.01 277.319 305.01 272.787C305.01 268.256 308.607 264.582 313.044 264.582C317.483 264.582 321.077 268.256 321.077 272.787Z" fill="#00344A"/>
<path d="M384.328 25.0139C384.328 29.5455 380.728 33.2193 376.292 33.2193C371.854 33.2193 368.258 29.5455 368.258 25.0139C368.258 20.4824 371.854 16.8086 376.292 16.8086C380.728 16.8086 384.328 20.4836 384.328 25.0139Z" fill="#00344A"/>
<path d="M179.034 69.4858C179.034 74.0173 175.436 77.6912 170.996 77.6912C166.562 77.6912 162.965 74.0173 162.965 69.4858C162.965 64.9543 166.563 61.2793 170.996 61.2793C175.436 61.2793 179.034 64.9543 179.034 69.4858Z" fill="#00344A"/>
<defs>
<radialGradient id="paint0_radial_168_49276" cx="0" cy="0" r="1" gradientUnits="userSpaceOnUse" gradientTransform="translate(503.226 3.38707) rotate(-109.753) scale(769.717 757.421)">
<stop stop-color="#F9FCF8"/>
<stop offset="0.0376" stop-color="#ECF6F2"/>
<stop offset="0.2312" stop-color="#BEC1C2"/>
<stop offset="1" stop-color="#000610"/>
</radialGradient>
<radialGradient id="paint1_radial_168_49276" cx="0" cy="0" r="1" gradientUnits="userSpaceOnUse" gradientTransform="translate(503.428 3.17487) rotate(-109.753) scale(770.124 757.824)">
<stop stop-color="#F9FCF8"/>
<stop offset="0.0376" stop-color="#ECF6F2"/>
<stop offset="0.2312" stop-color="#BEC1C2"/>
<stop offset="1" stop-color="#000610"/>
</radialGradient>
<radialGradient id="paint2_radial_168_49276" cx="0" cy="0" r="1" gradientUnits="userSpaceOnUse" gradientTransform="translate(503.16 3.62777) rotate(-109.753) scale(769.356 757.062)">
<stop stop-color="#F9FCF8"/>
<stop offset="0.0376" stop-color="#ECF6F2"/>
<stop offset="0.2312" stop-color="#BEC1C2"/>
<stop offset="1" stop-color="#000610"/>
</radialGradient>
<radialGradient id="paint3_radial_168_49276" cx="0" cy="0" r="1" gradientUnits="userSpaceOnUse" gradientTransform="translate(503.275 3.32009) rotate(-109.753) scale(769.913 757.614)">
<stop stop-color="#F9FCF8"/>
<stop offset="0.0376" stop-color="#ECF6F2"/>
<stop offset="0.2312" stop-color="#BEC1C2"/>
<stop offset="1" stop-color="#000610"/>
</radialGradient>
<radialGradient id="paint4_radial_168_49276" cx="0" cy="0" r="1" gradientUnits="userSpaceOnUse" gradientTransform="translate(503.303 3.37081) rotate(-109.753) scale(769.921 757.623)">
<stop stop-color="#F9FCF8"/>
<stop offset="0.0376" stop-color="#ECF6F2"/>
<stop offset="0.2312" stop-color="#BEC1C2"/>
<stop offset="1" stop-color="#000610"/>
</radialGradient>
<radialGradient id="paint5_radial_168_49276" cx="0" cy="0" r="1" gradientUnits="userSpaceOnUse" gradientTransform="translate(503.313 3.42076) rotate(-109.753) scale(769.728 757.432)">
<stop stop-color="#F9FCF8"/>
<stop offset="0.0376" stop-color="#ECF6F2"/>
<stop offset="0.2312" stop-color="#BEC1C2"/>
<stop offset="1" stop-color="#000610"/>
</radialGradient>
<radialGradient id="paint6_radial_168_49276" cx="0" cy="0" r="1" gradientUnits="userSpaceOnUse" gradientTransform="translate(503.001 3.32344) rotate(-109.753) scale(769.673 757.377)">
<stop stop-color="#F9FCF8"/>
<stop offset="0.0376" stop-color="#ECF6F2"/>
<stop offset="0.2312" stop-color="#BEC1C2"/>
<stop offset="1" stop-color="#000610"/>
</radialGradient>
<radialGradient id="paint7_radial_168_49276" cx="0" cy="0" r="1" gradientUnits="userSpaceOnUse" gradientTransform="translate(503.285 3.27814) rotate(-109.753) scale(769.987 757.682)">
<stop stop-color="#F9FCF8"/>
<stop offset="0.0376" stop-color="#ECF6F2"/>
<stop offset="0.2312" stop-color="#BEC1C2"/>
<stop offset="1" stop-color="#000610"/>
</radialGradient>
<radialGradient id="paint8_radial_168_49276" cx="0" cy="0" r="1" gradientUnits="userSpaceOnUse" gradientTransform="translate(503.058 3.32651) rotate(-109.753) scale(769.612 757.317)">
<stop stop-color="#F9FCF8"/>
<stop offset="0.0376" stop-color="#ECF6F2"/>
<stop offset="0.2312" stop-color="#BEC1C2"/>
<stop offset="1" stop-color="#000610"/>
</radialGradient>
<radialGradient id="paint9_radial_168_49276" cx="0" cy="0" r="1" gradientUnits="userSpaceOnUse" gradientTransform="translate(503.263 3.44411) rotate(-109.753) scale(769.691 757.399)">
<stop stop-color="#F9FCF8"/>
<stop offset="0.0376" stop-color="#ECF6F2"/>
<stop offset="0.2312" stop-color="#BEC1C2"/>
<stop offset="1" stop-color="#000610"/>
</radialGradient>
<radialGradient id="paint10_radial_168_49276" cx="0" cy="0" r="1" gradientUnits="userSpaceOnUse" gradientTransform="translate(503.259 3.30828) rotate(-109.753) scale(769.916 757.616)">
<stop stop-color="#F9FCF8"/>
<stop offset="0.0376" stop-color="#ECF6F2"/>
<stop offset="0.2312" stop-color="#BEC1C2"/>
<stop offset="1" stop-color="#000610"/>
</radialGradient>
<radialGradient id="paint11_radial_168_49276" cx="0" cy="0" r="1" gradientUnits="userSpaceOnUse" gradientTransform="translate(503.102 3.43147) rotate(-109.753) scale(769.163 756.874)">
<stop stop-color="#F9FCF8"/>
<stop offset="0.0376" stop-color="#ECF6F2"/>
<stop offset="0.2312" stop-color="#BEC1C2"/>
<stop offset="1" stop-color="#000610"/>
</radialGradient>
<radialGradient id="paint12_radial_168_49276" cx="0" cy="0" r="1" gradientUnits="userSpaceOnUse" gradientTransform="translate(503.165 3.40987) rotate(-109.753) scale(769.41 757.12)">
<stop stop-color="#F9FCF8"/>
<stop offset="0.0376" stop-color="#ECF6F2"/>
<stop offset="0.2312" stop-color="#BEC1C2"/>
<stop offset="1" stop-color="#000610"/>
</radialGradient>
<radialGradient id="paint13_radial_168_49276" cx="0" cy="0" r="1" gradientUnits="userSpaceOnUse" gradientTransform="translate(503.104 3.43803) rotate(-109.753) scale(769.126 756.84)">
<stop stop-color="#F9FCF8"/>
<stop offset="0.0376" stop-color="#ECF6F2"/>
<stop offset="0.2312" stop-color="#BEC1C2"/>
<stop offset="1" stop-color="#000610"/>
</radialGradient>
<radialGradient id="paint14_radial_168_49276" cx="0" cy="0" r="1" gradientUnits="userSpaceOnUse" gradientTransform="translate(503.182 3.20431) rotate(-109.753) scale(769.893 757.593)">
<stop stop-color="#F9FCF8"/>
<stop offset="0.0376" stop-color="#ECF6F2"/>
<stop offset="0.2312" stop-color="#BEC1C2"/>
<stop offset="1" stop-color="#000610"/>
</radialGradient>
<radialGradient id="paint15_radial_168_49276" cx="0" cy="0" r="1" gradientUnits="userSpaceOnUse" gradientTransform="translate(503.407 3.19827) rotate(-109.753) scale(770.114 757.809)">
<stop stop-color="#F9FCF8"/>
<stop offset="0.0376" stop-color="#ECF6F2"/>
<stop offset="0.2312" stop-color="#BEC1C2"/>
<stop offset="1" stop-color="#000610"/>
</radialGradient>
<radialGradient id="paint16_radial_168_49276" cx="0" cy="0" r="1" gradientUnits="userSpaceOnUse" gradientTransform="translate(503.019 3.3382) rotate(-109.753) scale(769.591 757.294)">
<stop stop-color="#F9FCF8"/>
<stop offset="0.0376" stop-color="#ECF6F2"/>
<stop offset="0.2312" stop-color="#BEC1C2"/>
<stop offset="1" stop-color="#000610"/>
</radialGradient>
<radialGradient id="paint17_radial_168_49276" cx="0" cy="0" r="1" gradientUnits="userSpaceOnUse" gradientTransform="translate(503.144 3.423) rotate(-109.753) scale(769.477 757.186)">
<stop stop-color="#F9FCF8"/>
<stop offset="0.0376" stop-color="#ECF6F2"/>
<stop offset="0.2312" stop-color="#BEC1C2"/>
<stop offset="1" stop-color="#000610"/>
</radialGradient>
<radialGradient id="paint18_radial_168_49276" cx="0" cy="0" r="1" gradientUnits="userSpaceOnUse" gradientTransform="translate(503.341 3.35373) rotate(-109.753) scale(770.098 757.793)">
<stop stop-color="#F9FCF8"/>
<stop offset="0.0376" stop-color="#ECF6F2"/>
<stop offset="0.2312" stop-color="#BEC1C2"/>
<stop offset="1" stop-color="#000610"/>
</radialGradient>
<radialGradient id="paint19_radial_168_49276" cx="0" cy="0" r="1" gradientUnits="userSpaceOnUse" gradientTransform="translate(503.278 3.38428) rotate(-109.753) scale(769.819 757.521)">
<stop stop-color="#F9FCF8"/>
<stop offset="0.0376" stop-color="#ECF6F2"/>
<stop offset="0.2312" stop-color="#BEC1C2"/>
<stop offset="1" stop-color="#000610"/>
</radialGradient>
<radialGradient id="paint20_radial_168_49276" cx="0" cy="0" r="1" gradientUnits="userSpaceOnUse" gradientTransform="translate(503.37 3.41844) rotate(-109.753) scale(769.835 757.537)">
<stop stop-color="#F9FCF8"/>
<stop offset="0.0376" stop-color="#ECF6F2"/>
<stop offset="0.2312" stop-color="#BEC1C2"/>
<stop offset="1" stop-color="#000610"/>
</radialGradient>
<radialGradient id="paint21_radial_168_49276" cx="0" cy="0" r="1" gradientUnits="userSpaceOnUse" gradientTransform="translate(503.005 3.49741) rotate(-109.753) scale(769.307 757.016)">
<stop stop-color="#F9FCF8"/>
<stop offset="0.0376" stop-color="#ECF6F2"/>
<stop offset="0.2312" stop-color="#BEC1C2"/>
<stop offset="1" stop-color="#000610"/>
</radialGradient>
<radialGradient id="paint22_radial_168_49276" cx="0" cy="0" r="1" gradientUnits="userSpaceOnUse" gradientTransform="translate(503.165 3.48865) rotate(-109.753) scale(769.523 757.229)">
<stop stop-color="#F9FCF8"/>
<stop offset="0.0376" stop-color="#ECF6F2"/>
<stop offset="0.2312" stop-color="#BEC1C2"/>
<stop offset="1" stop-color="#000610"/>
</radialGradient>
<radialGradient id="paint23_radial_168_49276" cx="0" cy="0" r="1" gradientUnits="userSpaceOnUse" gradientTransform="translate(503.154 3.26199) rotate(-109.753) scale(769.914 757.615)">
<stop stop-color="#F9FCF8"/>
<stop offset="0.0376" stop-color="#ECF6F2"/>
<stop offset="0.2312" stop-color="#BEC1C2"/>
<stop offset="1" stop-color="#000610"/>
</radialGradient>
<radialGradient id="paint24_radial_168_49276" cx="0" cy="0" r="1" gradientUnits="userSpaceOnUse" gradientTransform="translate(503.163 3.28842) rotate(-109.753) scale(769.807 757.509)">
<stop stop-color="#F9FCF8"/>
<stop offset="0.0376" stop-color="#ECF6F2"/>
<stop offset="0.2312" stop-color="#BEC1C2"/>
<stop offset="1" stop-color="#000610"/>
</radialGradient>
<radialGradient id="paint25_radial_168_49276" cx="0" cy="0" r="1" gradientUnits="userSpaceOnUse" gradientTransform="translate(503.369 3.28739) rotate(-109.753) scale(769.982 757.683)">
<stop stop-color="#F9FCF8"/>
<stop offset="0.0376" stop-color="#ECF6F2"/>
<stop offset="0.2312" stop-color="#BEC1C2"/>
<stop offset="1" stop-color="#000610"/>
</radialGradient>
<radialGradient id="paint26_radial_168_49276" cx="0" cy="0" r="1" gradientUnits="userSpaceOnUse" gradientTransform="translate(503.26 3.3746) rotate(-109.753) scale(769.779 757.481)">
<stop stop-color="#F9FCF8"/>
<stop offset="0.0376" stop-color="#ECF6F2"/>
<stop offset="0.2312" stop-color="#BEC1C2"/>
<stop offset="1" stop-color="#000610"/>
</radialGradient>
<radialGradient id="paint27_radial_168_49276" cx="0" cy="0" r="1" gradientUnits="userSpaceOnUse" gradientTransform="translate(503.182 3.40114) rotate(-109.753) scale(769.595 757.3)">
<stop stop-color="#F9FCF8"/>
<stop offset="0.0376" stop-color="#ECF6F2"/>
<stop offset="0.2312" stop-color="#BEC1C2"/>
<stop offset="1" stop-color="#000610"/>
</radialGradient>
<radialGradient id="paint28_radial_168_49276" cx="0" cy="0" r="1" gradientUnits="userSpaceOnUse" gradientTransform="translate(503.232 3.38447) rotate(-109.753) scale(769.748 757.451)">
<stop stop-color="#F9FCF8"/>
<stop offset="0.0376" stop-color="#ECF6F2"/>
<stop offset="0.2312" stop-color="#BEC1C2"/>
<stop offset="1" stop-color="#000610"/>
</radialGradient>
<radialGradient id="paint29_radial_168_49276" cx="0" cy="0" r="1" gradientUnits="userSpaceOnUse" gradientTransform="translate(503.236 3.38084) rotate(-109.753) scale(769.758 757.461)">
<stop stop-color="#F9FCF8"/>
<stop offset="0.0376" stop-color="#ECF6F2"/>
<stop offset="0.2312" stop-color="#BEC1C2"/>
<stop offset="1" stop-color="#000610"/>
</radialGradient>
<radialGradient id="paint30_radial_168_49276" cx="0" cy="0" r="1" gradientUnits="userSpaceOnUse" gradientTransform="translate(503.155 3.40919) rotate(-109.753) scale(769.535 757.241)">
<stop stop-color="#F9FCF8"/>
<stop offset="0.0376" stop-color="#ECF6F2"/>
<stop offset="0.2312" stop-color="#BEC1C2"/>
<stop offset="1" stop-color="#000610"/>
</radialGradient>
<radialGradient id="paint31_radial_168_49276" cx="0" cy="0" r="1" gradientUnits="userSpaceOnUse" gradientTransform="translate(503.188 3.36097) rotate(-109.753) scale(769.731 757.434)">
<stop stop-color="#F9FCF8"/>
<stop offset="0.0376" stop-color="#ECF6F2"/>
<stop offset="0.2312" stop-color="#BEC1C2"/>
<stop offset="1" stop-color="#000610"/>
</radialGradient>
<radialGradient id="paint32_radial_168_49276" cx="0" cy="0" r="1" gradientUnits="userSpaceOnUse" gradientTransform="translate(503.225 3.45548) rotate(-109.753) scale(769.61 757.315)">
<stop stop-color="#F9FCF8"/>
<stop offset="0.0376" stop-color="#ECF6F2"/>
<stop offset="0.2312" stop-color="#BEC1C2"/>
<stop offset="1" stop-color="#000610"/>
</radialGradient>
<radialGradient id="paint33_radial_168_49276" cx="0" cy="0" r="1" gradientUnits="userSpaceOnUse" gradientTransform="translate(503.377 3.36883) rotate(-109.753) scale(769.862 757.565)">
<stop stop-color="#F9FCF8"/>
<stop offset="0.0376" stop-color="#ECF6F2"/>
<stop offset="0.2312" stop-color="#BEC1C2"/>
<stop offset="1" stop-color="#000610"/>
</radialGradient>
<radialGradient id="paint34_radial_168_49276" cx="0" cy="0" r="1" gradientUnits="userSpaceOnUse" gradientTransform="translate(503.226 3.36985) rotate(-109.753) scale(769.735 757.438)">
<stop stop-color="#F9FCF8"/>
<stop offset="0.0376" stop-color="#ECF6F2"/>
<stop offset="0.2312" stop-color="#BEC1C2"/>
<stop offset="1" stop-color="#000610"/>
</radialGradient>
<radialGradient id="paint35_radial_168_49276" cx="0" cy="0" r="1" gradientUnits="userSpaceOnUse" gradientTransform="translate(503.282 3.37482) rotate(-109.753) scale(769.841 757.543)">
<stop stop-color="#F9FCF8"/>
<stop offset="0.0376" stop-color="#ECF6F2"/>
<stop offset="0.2312" stop-color="#BEC1C2"/>
<stop offset="1" stop-color="#000610"/>
</radialGradient>
<radialGradient id="paint36_radial_168_49276" cx="0" cy="0" r="1" gradientUnits="userSpaceOnUse" gradientTransform="translate(503.231 3.38796) rotate(-109.753) scale(769.764 757.466)">
<stop stop-color="#F9FCF8"/>
<stop offset="0.0376" stop-color="#ECF6F2"/>
<stop offset="0.2312" stop-color="#BEC1C2"/>
<stop offset="1" stop-color="#000610"/>
</radialGradient>
<radialGradient id="paint37_radial_168_49276" cx="0" cy="0" r="1" gradientUnits="userSpaceOnUse" gradientTransform="translate(503.224 3.36054) rotate(-109.753) scale(769.792 757.493)">
<stop stop-color="#F9FCF8"/>
<stop offset="0.0376" stop-color="#ECF6F2"/>
<stop offset="0.2312" stop-color="#BEC1C2"/>
<stop offset="1" stop-color="#000610"/>
</radialGradient>
</defs>
</svg>
