<svg xmlns="http://www.w3.org/2000/svg" width="348" height="347" fill="none"><g clip-path="url(#a)"><path fill="#FFA400" fill-rule="evenodd" d="M280.688 10c0-5.523-4.477-10-10-10h-37.344c-5.523 0-10 4.477-10 10v94.173c0 10.249-13.584 13.864-18.678 4.97l-48.657-84.962c-2.759-4.816-8.912-6.464-13.708-3.672l-32.779 19.078c-4.75 2.764-6.378 8.843-3.647 13.612l48.596 84.854c5.085 8.879-4.866 18.759-13.708 13.613l-83.869-48.815c-4.796-2.791-10.95-1.143-13.707 3.673l-18.965 33.115c-2.732 4.769-1.103 10.848 3.647 13.613l84.222 49.02c8.826 5.137 5.182 18.642-5.031 18.642H10c-5.523 0-10 4.477-10 10v38.279c0 5.523 4.477 10 10 10h97.095c10.213 0 13.857 13.505 5.031 18.642l-84.202 49.009c-4.75 2.764-6.378 8.843-3.647 13.612l18.965 33.115c2.758 4.816 8.911 6.465 13.708 3.673l83.877-48.82c8.843-5.146 18.793 4.734 13.708 13.613l-48.577 84.821c-2.732 4.769-1.103 10.848 3.647 13.613l32.778 19.078c4.797 2.792 10.95 1.143 13.708-3.673l48.575-84.817c5.094-8.894 18.678-5.279 18.678 4.97V490c0 5.523 4.477 10 10 10h37.344c5.523 0 10-4.477 10-10v-93.976c0-10.249 13.584-13.864 18.678-4.97l46.569 81.315c2.758 4.817 8.911 6.465 13.708 3.673l32.779-19.078c4.749-2.764 6.378-8.843 3.647-13.612l-46.564-81.306c-5.085-8.878 4.865-18.759 13.708-13.613l80.383 46.786c4.797 2.792 10.95 1.143 13.708-3.673l18.965-33.115c2.731-4.768 1.102-10.848-3.648-13.612l-80.723-46.984c-8.826-5.137-5.182-18.642 5.031-18.642H490c5.523 0 10-4.477 10-10v-38.279c0-5.522-4.477-10-10-10h-93.036c-10.213 0-13.857-13.505-5.03-18.642l80.743-46.996c4.75-2.764 6.378-8.843 3.647-13.612l-18.965-33.115c-2.758-4.816-8.911-6.465-13.708-3.673l-80.374 46.781c-8.843 5.146-18.793-4.734-13.708-13.613l46.583-81.338c2.731-4.77 1.102-10.848-3.648-13.613l-32.778-19.078c-4.797-2.792-10.95-1.143-13.708 3.673l-46.652 81.46c-5.094 8.894-18.678 5.28-18.678-4.97V10Z" clip-rule="evenodd" opacity=".5"/></g><defs><clipPath id="a"><path fill="#fff" d="M0 0h348v347H0z"/></clipPath></defs></svg>