<svg width="224" height="40" viewBox="0 0 224 40" fill="none" xmlns="http://www.w3.org/2000/svg">
<g clip-path="url(#clip0_222_7177)">
<path fill-rule="evenodd" clip-rule="evenodd" d="M44.874 33.5003V34.7219C44.4727 34.2642 44.0151 34.1111 43.5147 34.1111C43.0861 34.1111 42.7367 34.2634 42.4544 34.5685C42.1814 34.721 42.0411 35.179 42.0411 35.6367C42.0411 36.0943 42.186 36.5522 42.4758 36.7048C42.7459 37.0099 43.0861 37.1622 43.4903 37.1622C44.044 37.1622 44.5017 37.009 44.8678 36.5513V37.773C44.4652 38.0781 43.9739 38.2303 43.411 38.2303C42.6437 38.2303 42.0288 37.9253 41.5819 37.4675C41.1258 37.0099 40.8984 36.3994 40.8984 35.6367C40.8984 34.8739 41.1426 34.2634 41.6277 33.8057C42.1158 33.3481 42.7459 33.043 43.5559 33.043C44.0228 33.043 44.4621 33.1952 44.8678 33.5003H44.874Z" fill="#00344A"/>
<path fill-rule="evenodd" clip-rule="evenodd" d="M49.3594 33.1971H50.4775V35.9427L53.7636 32.7383V38.0776H52.6469V35.18L49.3594 38.3831V33.1971Z" fill="#00344A"/>
<path fill-rule="evenodd" clip-rule="evenodd" d="M62.3271 33.5003V34.7219C61.9244 34.2642 61.4697 34.1111 60.9678 34.1111C60.5391 34.1111 60.1882 34.2634 59.9076 34.5685C59.6269 34.721 59.4957 35.179 59.4957 35.6367C59.4957 36.0943 59.6391 36.5522 59.9289 36.7048C60.2005 37.0099 60.5391 37.1622 60.9404 37.1622C61.4957 37.1622 61.9564 37.009 62.3224 36.5513V37.773C61.9182 38.0781 61.427 38.2303 60.864 38.2303C60.0952 38.2303 59.4834 37.9253 59.0365 37.4675C58.5789 37.0099 58.3516 36.3994 58.3516 35.6367C58.3516 34.8739 58.5956 34.2634 59.0807 33.8057C59.5521 33.3481 60.2005 33.043 61.0091 33.043C61.4758 33.043 61.9136 33.1952 62.3224 33.5003H62.3271Z" fill="#00344A"/>
<path fill-rule="evenodd" clip-rule="evenodd" d="M70.2423 34.2621H68.8342V38.0759H67.716V34.2621H66.3125V33.1953H70.2423V34.2621Z" fill="#00344A"/>
<path fill-rule="evenodd" clip-rule="evenodd" d="M77.7139 36.3994L78.649 36.8568C78.4415 37.3144 78.1715 37.6205 77.8405 37.773C77.4697 38.0781 76.9937 38.2303 76.4247 38.2303C75.7566 38.2303 75.2119 37.9247 74.8046 37.6195C74.3363 37.0094 74.0938 36.3994 74.0938 35.6367C74.0938 34.8739 74.3485 34.2634 74.8611 33.8057C75.2959 33.3481 75.8344 33.043 76.4705 33.043C77.1097 33.043 77.6116 33.3487 78.0114 33.6537C78.4613 34.1114 78.6871 34.8733 78.6871 35.7886V35.9421H75.2379C75.27 36.2472 75.4057 36.5517 75.6513 36.8568C75.8557 37.0094 76.1425 37.1622 76.5087 37.1622C76.8046 37.1622 77.0579 37.0094 77.2699 36.8568C77.4499 36.8568 77.5949 36.552 77.7199 36.3994H77.7139ZM75.3157 35.0258H77.543C77.4957 34.7207 77.3797 34.4157 77.2028 34.2631C77.0029 34.1105 76.7527 34.1111 76.4507 34.1111C76.1486 34.1111 75.871 34.1114 75.6682 34.4166C75.5003 34.569 75.3844 34.7207 75.3219 35.0258H75.3157Z" fill="#00344A"/>
<path fill-rule="evenodd" clip-rule="evenodd" d="M82.7188 38.077L83.8825 32.7383L85.8685 36.3998L87.8545 32.7383L89.0199 38.077H87.8805L87.4 35.637L85.8685 38.3824L84.3386 35.637L83.8566 38.077H82.7188Z" fill="#00344A"/>
<path fill-rule="evenodd" clip-rule="evenodd" d="M93.3125 38.0759V33.1953H94.4277V34.8728H95.0669C95.2698 34.8728 95.4391 34.8728 95.5672 34.8728C95.6999 34.8728 95.8525 35.0248 96.034 35.0248C96.2171 35.1774 96.3727 35.1776 96.5146 35.3302C96.7663 35.6353 96.8914 36.0933 96.8914 36.3984C96.8914 36.856 96.7464 37.3134 96.4566 37.6185C96.3269 37.7711 96.1728 37.7713 95.9959 37.9239C95.8189 37.9239 95.6709 37.9233 95.555 38.0759C95.4344 38.0759 95.2698 38.0759 95.0562 38.0759H93.3125ZM94.4277 37.0091H94.9448C95.2133 37.0091 95.407 37.0091 95.526 37.0091C95.6954 36.8566 95.7778 36.7034 95.7778 36.3984C95.7778 36.2458 95.6999 36.0936 95.5382 35.941C95.4192 35.941 95.2239 35.7875 94.9509 35.7875H94.4277V37.0091ZM97.3979 38.0759V33.1953H98.516V38.0759H97.3979Z" fill="#00344A"/>
<path fill-rule="evenodd" clip-rule="evenodd" d="M110.077 34.4166L109.361 33.8057C109.546 33.6531 109.784 33.3483 110.086 33.3483C110.406 33.1958 110.781 33.043 111.215 33.043C111.718 33.043 112.125 33.1958 112.438 33.3483C112.772 33.6535 112.938 33.9589 112.938 34.4166C112.938 34.7216 112.873 34.8733 112.737 35.0258C112.621 35.1784 112.472 35.3312 112.278 35.3312C112.569 35.4838 112.8 35.636 112.972 35.7886C113.176 35.9411 113.279 36.2463 113.279 36.5513C113.279 37.009 113.143 37.3144 112.873 37.6195C112.505 37.9247 111.944 38.2303 111.18 38.2303C110.667 38.2303 110.25 38.0775 109.924 37.9249C109.587 37.6199 109.334 37.4679 109.172 37.0102L110.064 36.5513C110.176 36.8565 110.311 37.0102 110.49 37.0102C110.676 37.1627 110.917 37.3142 111.205 37.3142C111.555 37.3142 111.809 37.1627 111.973 37.0102C112.089 36.8577 112.145 36.7039 112.145 36.5513C112.145 36.3989 112.101 36.2474 112.002 36.2474C111.869 36.0949 111.602 35.9421 111.201 35.9421H110.697V35.0258H111.121C111.367 35.0258 111.552 35.0258 111.671 35.0258C111.808 34.8733 111.874 34.721 111.874 34.5685C111.874 34.4159 111.808 34.2637 111.671 34.1111C111.555 34.1111 111.376 33.9592 111.134 33.9592C110.902 33.9592 110.693 34.1111 110.505 34.1111C110.34 34.2637 110.202 34.264 110.083 34.4166H110.077Z" fill="#00344A"/>
<path fill-rule="evenodd" clip-rule="evenodd" d="M121.393 33.8057V33.1965H122.513V38.0769H121.393V37.4675C121.023 37.9253 120.542 38.2303 119.952 38.2303C119.247 38.2303 118.676 37.9253 118.259 37.4675C117.835 36.8574 117.625 36.2469 117.625 35.6367C117.625 34.8739 117.857 34.2634 118.305 33.8057C118.76 33.3481 119.311 33.043 119.968 33.043C120.568 33.043 121.043 33.3481 121.393 33.8057ZM120.104 34.1111C119.706 34.1111 119.388 34.2634 119.136 34.5685C118.892 34.8736 118.764 35.179 118.764 35.6367C118.764 36.0943 118.892 36.3997 119.136 36.7048C119.383 37.0099 119.706 37.1622 120.104 37.1622C120.5 37.1622 120.803 37.0099 121.064 36.7048C121.332 36.5522 121.464 36.0943 121.464 35.6367C121.464 35.179 121.332 34.7216 121.064 34.4166C120.803 34.264 120.481 34.1111 120.104 34.1111Z" fill="#00344A"/>
<path fill-rule="evenodd" clip-rule="evenodd" d="M127.344 38.0791V33.1992H128.464V37.0126H130.061V33.1992H131.18V37.0126H132.778V33.1992H133.897V37.0126H134.696V39.4525H133.665V38.0791H127.344Z" fill="#00344A"/>
<path fill-rule="evenodd" clip-rule="evenodd" d="M138.922 33.1971H140.038V35.9427L143.328 32.7383V38.0776H142.211V35.18L138.922 38.3831V33.1971Z" fill="#00344A"/>
<path fill-rule="evenodd" clip-rule="evenodd" d="M151.475 34.2621H150.071V38.0759H148.951V34.2621H147.547V33.1953H151.475V34.2621Z" fill="#00344A"/>
<path fill-rule="evenodd" clip-rule="evenodd" d="M155.688 38.0759V33.1953H156.808V34.8728H157.445C157.651 34.8728 157.815 34.8728 157.948 34.8728C158.076 34.8728 158.227 35.0248 158.409 35.0248C158.595 35.1774 158.749 35.1776 158.892 35.3302C159.141 35.6353 159.268 36.0933 159.268 36.3984C159.268 36.856 159.122 37.3134 158.836 37.6185C158.702 37.7711 158.55 37.7713 158.374 37.9239C158.197 37.9239 158.046 37.9233 157.93 38.0759C157.81 38.0759 157.651 38.0759 157.434 38.0759H155.688ZM156.808 37.0091H157.32C157.592 37.0091 157.784 37.0091 157.907 37.0091C158.072 36.8566 158.154 36.7034 158.154 36.3984C158.154 36.2458 158.076 36.0936 157.915 35.941C157.796 35.941 157.602 35.7875 157.331 35.7875H156.808V37.0091ZM159.776 38.0759V33.1953H160.892V38.0759H159.776Z" fill="#00344A"/>
<path fill-rule="evenodd" clip-rule="evenodd" d="M172.233 33.1992H175.837V37.0126H176.569V39.4525H175.541V38.0791H172.186V39.4525H171.156V37.0126C171.541 37.0126 171.836 36.7069 172.036 36.4018C172.164 36.0968 172.227 35.6385 172.227 35.0285V33.1992H172.233ZM174.719 37.0126V34.2657H173.304V35.4872C173.304 36.25 173.116 36.7076 172.745 37.0126H174.719Z" fill="#00344A"/>
<path fill-rule="evenodd" clip-rule="evenodd" d="M184.298 33.8057V33.1965H185.416V38.0769H184.298V37.4675C183.926 37.9253 183.446 38.2303 182.854 38.2303C182.151 38.2303 181.582 37.9253 181.162 37.4675C180.745 36.8574 180.531 36.2469 180.531 35.6367C180.531 34.8739 180.759 34.2634 181.209 33.8057C181.665 33.3481 182.212 33.043 182.871 33.043C183.471 33.043 183.947 33.3481 184.298 33.8057ZM183.008 34.1111C182.609 34.1111 182.292 34.2634 182.04 34.5685C181.793 34.8736 181.668 35.179 181.668 35.6367C181.668 36.0943 181.793 36.3997 182.04 36.7048C182.284 37.0099 182.609 37.1622 183.008 37.1622C183.402 37.1622 183.707 37.0099 183.967 36.7048C184.235 36.5522 184.366 36.0943 184.366 35.6367C184.366 35.179 184.235 34.7216 183.967 34.4166C183.707 34.264 183.383 34.1111 183.008 34.1111Z" fill="#00344A"/>
<path fill-rule="evenodd" clip-rule="evenodd" d="M190.258 38.0759V33.1953H191.376V35.0248H193.362V33.1953H194.478V38.0759H193.362V36.0929H191.376V38.0759H190.258Z" fill="#00344A"/>
<path fill-rule="evenodd" clip-rule="evenodd" d="M199.312 38.0759V33.1953H200.43V35.0248H202.415V33.1953H203.533V38.0759H202.415V36.0929H200.43V38.0759H199.312Z" fill="#00344A"/>
<path fill-rule="evenodd" clip-rule="evenodd" d="M208.375 38.0759V33.1953H209.493V34.8728H210.13C210.335 34.8728 210.5 34.8728 210.634 34.8728C210.764 34.8728 210.913 35.0248 211.096 35.0248C211.281 35.1774 211.438 35.1776 211.578 35.3302C211.829 35.6353 211.956 36.0933 211.956 36.3984C211.956 36.856 211.807 37.3134 211.52 37.6185C211.391 37.7711 211.237 37.7713 211.062 37.9239C210.882 37.9239 210.732 37.9233 210.616 38.0759C210.497 38.0759 210.335 38.0759 210.12 38.0759H208.375ZM209.493 37.0091H210.006C210.277 37.0091 210.471 37.0091 210.59 37.0091C210.757 36.8566 210.841 36.7034 210.841 36.3984C210.841 36.2458 210.764 36.0936 210.599 35.941C210.48 35.941 210.286 35.7875 210.018 35.7875H209.493V37.0091ZM212.462 38.0759V33.1953H213.58V38.0759H212.462Z" fill="#00344A"/>
<path fill-rule="evenodd" clip-rule="evenodd" d="M217.781 38.0759L219.901 35.4837L218.187 33.1953H219.516L220.578 34.5674L221.646 33.1953H223.021L221.249 35.4837L223.304 38.0759H221.955L220.578 36.2464L219.149 38.0759H217.781Z" fill="#00344A"/>
<path fill-rule="evenodd" clip-rule="evenodd" d="M58.0991 17.0333V23.1334C56.4705 23.8959 54.7837 24.3532 53.0406 24.3532C49.2966 24.3532 46.2893 23.1343 44.0215 20.9992C41.6364 18.7117 40.4453 15.8139 40.4453 12.3062C40.4453 8.79865 41.6364 5.90076 44.0215 3.6132C46.2893 1.47815 49.1487 0.257812 52.5954 0.257812C54.2911 0.257812 56.1243 0.715921 58.0991 1.63095V7.73112C56.5589 6.05357 54.7731 5.29016 52.7295 5.29016C50.8491 5.29016 49.2937 5.90047 48.0507 7.1205C46.6034 8.49304 45.8836 10.1712 45.8836 12.3062C45.8836 14.4413 46.5454 16.118 47.8769 17.4905C49.1625 18.7105 50.8125 19.3208 52.8348 19.3208C54.7365 19.3208 56.4933 18.5583 58.0991 17.0333Z" fill="#00344A"/>
<path fill-rule="evenodd" clip-rule="evenodd" d="M68.0496 23.7428V13.0675L59.8281 0.867188H66.0914L70.7047 7.88179L75.3103 0.867188H81.5737L73.3477 13.0675V23.7428H68.0496Z" fill="#00344A"/>
<path fill-rule="evenodd" clip-rule="evenodd" d="M84.0781 0.867188H91.1055C93.7652 0.867188 95.7172 1.47661 96.9556 2.54415C98.0566 3.61167 98.6057 5.13731 98.6057 6.96736C98.6057 8.03489 98.3556 9.10153 97.8492 9.86404C97.3888 10.6266 96.7467 11.2375 95.9217 11.5425C97.2057 11.6949 98.2626 12.305 99.0861 13.0675C100.074 14.1351 100.565 15.5079 100.565 17.1855C100.565 19.0155 99.9706 20.693 98.778 21.7605C97.4207 23.1331 95.4061 23.7428 92.7174 23.7428H84.0781V0.867188ZM89.3135 4.98509V10.1693H90.1767C91.3663 10.1693 92.26 9.86523 92.8578 9.56022C93.4739 9.10272 93.7895 8.3396 93.7895 7.42457C93.7895 6.66205 93.4907 6.05173 92.8929 5.59422C92.3851 5.1367 91.47 4.98509 90.1387 4.98509H89.3135ZM89.3135 14.1354V19.6249H90.5885C92.5361 19.6249 93.846 19.3205 94.5109 18.7105C95.0172 18.253 95.2705 17.6418 95.2705 16.7267C95.2705 15.9642 95.028 15.3554 94.5475 14.8979C93.9314 14.4403 92.6672 14.1354 90.7594 14.1354H89.3135Z" fill="#00344A"/>
<path fill-rule="evenodd" clip-rule="evenodd" d="M117.506 0.867188V5.28892H109.832V9.71213H117.129V14.2873H109.832V19.3196H117.506V23.7428H104.531V0.867188H117.506Z" fill="#00344A"/>
<path fill-rule="evenodd" clip-rule="evenodd" d="M121.812 0.867188H129.866C132.343 0.867188 134.29 1.47691 135.715 2.84945C137.049 4.06948 137.711 5.74673 137.711 7.88179C137.711 9.86434 137.118 11.3903 135.921 12.6103C135 13.5253 133.935 14.1341 132.724 14.4392L139.775 23.7428H133.305L127.109 14.7444V23.7428H121.812V0.867188ZM127.109 4.98509V11.2372H128.314C129.762 11.2372 130.818 10.9328 131.481 10.3228C132.055 9.71273 132.343 8.95021 132.343 8.03518C132.343 6.96765 131.986 6.20513 131.279 5.74762C130.633 5.13761 129.664 4.98509 128.353 4.98509H127.113H127.109Z" fill="#00344A"/>
<path fill-rule="evenodd" clip-rule="evenodd" d="M142.692 0.867188H150.78C153.376 0.867188 155.381 1.47751 156.801 2.69754C158.295 4.07008 159.038 5.89893 159.038 8.339C159.038 10.4741 158.383 12.3041 157.077 13.6767C155.747 15.0492 153.8 15.6604 151.224 15.6604H147.99V23.7428H142.688V0.867188H142.692ZM147.994 5.13701V11.3891H149.886C151.192 11.3891 152.149 11.0847 152.742 10.4747C153.317 10.0171 153.606 9.25463 153.606 8.18709C153.606 7.27207 153.317 6.50896 152.742 6.05144C152.149 5.44143 151.163 5.13701 149.781 5.13701H147.994Z" fill="#00344A"/>
<path fill-rule="evenodd" clip-rule="evenodd" d="M175.36 0.867188V5.28892H167.687V9.71213H174.983V14.2873H167.687V19.3196H175.36V23.7428H162.383V0.867188H175.36Z" fill="#00344A"/>
<path fill-rule="evenodd" clip-rule="evenodd" d="M194.882 23.7428L193.156 19.473H184.482L182.724 23.7428H177.219L186.482 0.867188H191.333L200.388 23.7428H194.882ZM186.038 15.3551H191.716L188.894 7.72988L186.042 15.3551H186.038Z" fill="#00344A"/>
<path fill-rule="evenodd" clip-rule="evenodd" d="M208.265 0.867188V10.4747L216.11 0.867188H222.583L213.289 11.6944L223.305 23.7428H216.486L208.265 13.6767V23.7428H202.961V0.867188H208.265Z" fill="#00344A"/>
<path fill-rule="evenodd" clip-rule="evenodd" d="M0.242188 0.410156V19.4732L6.98745 12.7624L15.8693 3.91745L24.7435 12.7624L28.4952 9.1017L31.4979 11.9999V0.410156H0.242188Z" fill="#E62752"/>
<path fill-rule="evenodd" clip-rule="evenodd" d="M26.6509 14.7443L15.8673 25.4197L6.98549 16.5747L0.796875 22.8269L15.8673 37.9254L31.496 22.2177V15.8122L28.4931 12.9141L26.6509 14.7443Z" fill="#00344A"/>
</g>
<defs>
<clipPath id="clip0_222_7177">
<rect width="224" height="40" fill="white"/>
</clipPath>
</defs>
</svg>
