<svg width="210" height="101" fill="none" xmlns="http://www.w3.org/2000/svg"><path d="M94.273 101H75.922l-9.07-25.664H27.195L18.477 101H.195L37.953.172h18.844L94.273 101zM62.422 61.695L48.43 21.477c-.422-1.313-.867-3.422-1.336-6.329h-.282c-.421 2.672-.89 4.782-1.406 6.329L31.555 61.695h30.867zm62.437 2.742V101h-16.664V.172h30.586c11.578 0 20.555 2.695 26.93 8.086 6.375 5.39 9.562 12.984 9.562 22.781 0 9.797-3.328 17.813-9.984 24.047-6.656 6.234-15.656 9.352-27 9.352h-13.43zm0-50.484v36.844h10.829c7.171 0 12.632-1.664 16.382-4.992 3.75-3.328 5.625-8.016 5.625-14.063 0-11.86-6.89-17.789-20.672-17.789h-12.164zM209.586 101h-17.227V.172h17.227V101z" fill="#fff"/></svg>