<svg width="120" height="120" fill="none" xmlns="http://www.w3.org/2000/svg"><path d="M30.925 7.732H7.73v54.119h23.194V7.732zm-3.866 50.253H11.597V11.598h15.462v46.387zM19.328 104.372c6.396 0 11.597-5.2 11.597-11.597 0-6.395-5.201-11.596-11.597-11.596s-11.597 5.2-11.597 11.596 5.201 11.597 11.597 11.597zm0-19.328c4.264 0 7.731 3.468 7.731 7.731 0 4.264-3.467 7.732-7.731 7.732-4.264 0-7.731-3.468-7.731-7.732 0-4.263 3.467-7.73 7.731-7.73zM23.194 65.716H7.73v3.866h15.463v-3.866zM30.925 65.716h-3.866v3.866h3.866v-3.866zM65.715 7.732H42.522v54.119h23.193V7.732zM61.85 57.985H46.387V11.598H61.85v46.387zM54.118 104.372c6.396 0 11.597-5.2 11.597-11.597 0-6.395-5.2-11.596-11.597-11.596-6.395 0-11.596 5.2-11.596 11.596s5.2 11.597 11.596 11.597zm0-19.328c4.264 0 7.732 3.468 7.732 7.731 0 4.264-3.468 7.732-7.732 7.732-4.263 0-7.73-3.468-7.73-7.732 0-4.263 3.467-7.73 7.73-7.73zM57.984 65.716H42.522v3.866h15.462v-3.866zM65.715 65.716H61.85v3.866h3.865v-3.866z" fill="#1DBBBA"/><path d="M109.565 1.058L73.447 4.276V.001H0v119.834h73.446V31.237l7.912 88.762L120 116.555 109.565 1.058zM34.791 115.97H3.866V3.867H34.79v112.102zm34.79 0H38.656V3.867h30.925v112.102zM75.257 7.995l30.804-2.745 9.741 107.799-30.938 2.756-9.607-107.81z" fill="#1DBBBA"/><path d="M102.552 9.443l-23.104 2.06 4.463 50.054 23.1-2.059-4.459-50.055zm-18.91 5.566l15.402-1.372 3.773 42.353-15.4 1.373-3.775-42.354zM109.758 90.302c-.566-6.371-6.189-11.095-12.582-10.523-6.37.569-11.089 6.212-10.52 12.581a11.52 11.52 0 004.11 7.866 11.515 11.515 0 008.47 2.656c6.37-.568 11.09-6.212 10.522-12.58zm-10.866 8.73a7.664 7.664 0 01-5.646-1.77 7.688 7.688 0 01-2.74-5.244c-.38-4.246 2.767-8.01 7.014-8.387.231-.02.462-.03.692-.03 3.956 0 7.338 3.032 7.694 7.046.381 4.243-2.768 8.006-7.014 8.385zM99.643 64.03l-15.398 1.372.343 3.85 15.398-1.373-.343-3.85zM103.851 67.538l3.85-.344-.343-3.85-3.85.344.343 3.85z" fill="#1DBBBA"/></svg>