<svg width="70" height="70" fill="none" xmlns="http://www.w3.org/2000/svg"><g clip-path="url(#clip0)" fill="#1DBBBA"><path d="M69.424 8.835L61.16.955C60.846.652 60.52.34 59.914.34H26.81c-.967 0-1.753.786-1.753 1.753V7.48l-11.667 2a1.728 1.728 0 00-1.402 1.993l.592 3.452C8.789 16.2 4.895 17.516 1.137 18.866a1.736 1.736 0 00-1.038 2.206l7.477 20.783a1.026 1.026 0 101.93-.694L2.14 20.685c3.54-1.268 7.208-2.509 10.792-3.715l3.523 20.541 4.054 23.657a1.737 1.737 0 001.994 1.406l10.98-1.885 8.58-1.47-12.904 4.638-10.177 3.66-7.903-21.984a1.025 1.025 0 00-1.93.694l8.016 22.295c.256.701.92 1.137 1.622 1.137.194 0 .391-.033.583-.103l10.482-3.769 23.802-8.555 4.547-.78h10.045c.967 0 1.754-.788 1.754-1.757V9.99c0-.614-.333-.927-.576-1.155zm-2.717.243H61.45c-.246.002-.82.006-.967-.139-.033-.033-.073-.145-.073-.353l-.012-5.525 6.31 6.017zm1.242 45.324H27.11V34.417a1.025 1.025 0 00-2.051 0v20.277c0 .969.786 1.757 1.753 1.757h19.252l-12.926 2.216-10.662 1.83-3.999-23.334-4.411-25.72 10.992-1.885v20.1a1.025 1.025 0 002.051 0V2.392h31.237l.013 6.197c0 .752.229 1.36.68 1.806.692.688 1.67.736 2.278.736l.148-.001h6.485V54.4z"/><path d="M32.051 16.263c0 .566.46 1.025 1.025 1.025h29.318a1.025 1.025 0 000-2.05H33.076c-.566 0-1.025.458-1.025 1.025zM62.394 22.522H33.076a1.025 1.025 0 000 2.05h29.318a1.025 1.025 0 000-2.05zM62.394 29.806H33.076a1.025 1.025 0 000 2.051h29.318a1.025 1.025 0 000-2.05zM62.394 37.091H33.076a1.025 1.025 0 000 2.05h29.318a1.025 1.025 0 100-2.05zM62.394 44.376H33.076a1.025 1.025 0 100 2.05h29.318a1.025 1.025 0 000-2.05z"/></g><defs><clipPath id="clip0"><path fill="#fff" d="M0 0h70v70H0z"/></clipPath></defs></svg>