<svg width="70" height="70" fill="none" xmlns="http://www.w3.org/2000/svg"><path d="M65.06 33.985v-15.92a4.52 4.52 0 004.517-4.517 4.52 4.52 0 00-4.516-4.516V0H26.206L15.383 10.823v4.755l-14.175 9.45 1.252 1.88 3.89-2.594v18.59h9.033v22.58h29.469A5.655 5.655 0 0050.383 70h13.548a5.652 5.652 0 005.646-5.645V39.516a5.656 5.656 0 00-4.516-5.53zM36.836 15.108l-3.121-1.56 3.12-1.56v3.12zm2.258-3.818h21.451v4.517H39.093V11.29zm28.226 2.258a2.26 2.26 0 01-2.258 2.258h-2.259V11.29h2.259a2.26 2.26 0 012.258 2.258zM25.544 3.855v6.306h-6.306l6.306-6.306zM8.61 22.809l10.161-6.774 10.162 6.774v17.836h-4.517V35a5.652 5.652 0 00-5.645-5.645A5.652 5.652 0 0013.125 35v5.645H8.609V22.81zm13.548 17.836h-6.774V35a3.392 3.392 0 013.387-3.387A3.392 3.392 0 0122.157 35v5.645zm22.58-1.129v23.71H17.642V42.903H31.19v-18.59l3.889 2.594 1.252-1.879-17.56-11.708-1.13.753V12.42h10.161V2.26h35v6.773H37.697l-9.032 4.516 9.032 4.516h25.105v15.807H50.383a5.652 5.652 0 00-5.645 5.645zM67.32 64.355a3.392 3.392 0 01-3.388 3.387H50.383a3.392 3.392 0 01-3.387-3.387V39.516a3.392 3.392 0 013.387-3.387h13.548a3.392 3.392 0 013.388 3.387v24.839z" fill="#1DBBBA"/><path d="M49.254 47.42h15.807v-9.033H49.254v9.032zm2.258-6.775h11.29v4.516h-11.29v-4.516zM49.254 63.226a2.26 2.26 0 002.258 2.258h11.29a2.26 2.26 0 002.259-2.258V49.677H49.254v13.549zm2.258-2.258h2.258v2.258h-2.258v-2.258zm6.774-4.516v2.258h-2.258v-2.258h2.258zm-2.258-2.258v-2.259h2.258v2.258h-2.258zm4.516 2.258h2.26v2.258h-2.26v-2.258zm-2.258 4.516v2.258h-2.258v-2.258h2.258zM53.77 58.71h-2.258v-2.258h2.258v2.258zm6.774 4.516v-2.258h2.26v2.258h-2.26zm2.258-9.032h-2.258v-2.259h2.258v2.258zm-9.032-2.259v2.258h-2.258v-2.258h2.258zM16.512 27.097h4.516a2.26 2.26 0 002.258-2.258V22.58a2.26 2.26 0 00-2.258-2.258h-4.516a2.26 2.26 0 00-2.258 2.258v2.258a2.26 2.26 0 002.258 2.258zm0-4.516h4.516l.002 2.258h-4.518V22.58zM12.702 13.3l-1.412-1.762-4.94 3.953-4.939-3.953L0 13.3l6.35 5.08 6.352-5.08zM5.222 9.032H7.48v2.258H5.222V9.032zM19.9 45.161h22.58v2.258H19.9v-2.258zM24.415 49.677H42.48v2.258H24.415v-2.258zM19.9 49.677h2.257v2.258H19.9v-2.258zM19.9 54.194h22.58v2.258H19.9v-2.258zM40.222 58.71h2.258v2.258h-2.258V58.71zM19.9 58.71h18.064v2.258H19.899V58.71zM39.093 20.323h21.451v2.258H39.093v-2.258zM39.093 24.839h2.258v2.258h-2.258v-2.258zM43.609 24.839h16.935v2.258H43.61v-2.258zM39.093 29.355h16.935v2.258H39.093v-2.258zM58.286 29.355h2.258v2.258h-2.258v-2.258zM5.222 4.516H7.48v2.258H5.222V4.516zM5.222 0H7.48v2.258H5.222V0zM0 51.054l1.411 1.763 4.94-3.953 4.94 3.953 1.41-1.763-6.35-5.08L0 51.054zM5.222 53.065H7.48v2.258H5.222v-2.258zM5.222 57.58H7.48v2.259H5.222V57.58zM5.222 62.097H7.48v2.258H5.222v-2.258z" fill="#1DBBBA"/></svg>