<svg width="120" height="120" fill="none" xmlns="http://www.w3.org/2000/svg"><path d="M115.706 24.919L95.081 4.294a1.937 1.937 0 00-1.331-.544H46.875a5.642 5.642 0 00-5.625 5.625v11.344a39.324 39.324 0 000 78.562v11.344a5.644 5.644 0 005.625 5.625h63.75a5.641 5.641 0 005.625-5.625V26.25a1.936 1.936 0 00-.544-1.331zM95.625 10.144l14.231 14.231H97.5a1.875 1.875 0 01-1.875-1.875V10.144zM7.5 60a35.668 35.668 0 0133.75-35.569v34.8L16.687 83.794A35.398 35.398 0 017.5 60zM19.33 86.438l24.563-24.563h34.8A35.556 35.556 0 0119.33 86.438zm93.169 24.187c0 .497-.198.974-.549 1.326a1.879 1.879 0 01-1.326.549h-63.75A1.878 1.878 0 0145 110.625V99.281A39.402 39.402 0 0082.5 60a1.875 1.875 0 00-1.875-1.875H45V9.375A1.875 1.875 0 0146.875 7.5h45v15a5.642 5.642 0 005.625 5.625h15v82.5z" fill="#1DBBBA"/><path d="M50.625 13.125A1.875 1.875 0 0048.75 15v37.5a1.875 1.875 0 001.875 1.875h37.5A1.875 1.875 0 0090 52.5a39.418 39.418 0 00-39.375-39.375zm1.875 37.5V16.931a35.657 35.657 0 0133.694 33.694H52.5zM91.875 75a16.875 16.875 0 1016.875 16.875A16.902 16.902 0 0091.875 75zm0 30a13.127 13.127 0 01-9.28-22.406A13.125 13.125 0 01105 91.875 13.137 13.137 0 0191.875 105z" fill="#1DBBBA"/><path d="M88.125 94.849l-4.3-4.3-2.65 2.652 5.624 5.625a1.875 1.875 0 002.652 0l11.25-11.25-2.652-2.652-9.924 9.925zM93.75 35.625h15v3.75h-15v-3.75zM93.75 46.875h15v3.75h-15v-3.75zM93.75 58.125h15v3.75h-15v-3.75z" fill="#1DBBBA"/></svg>