<svg width="120" height="120" fill="none" xmlns="http://www.w3.org/2000/svg"><g clip-path="url(#clip0)"><path d="M118.242 98.883c-.971 0-1.758.787-1.758 1.757v11.746a.296.296 0 01-.296.296h-6.679V87a1.758 1.758 0 00-3.515 0v25.682H93.087l3.493-3.843a2.812 2.812 0 00.672-2.308l-3.927-23.202.723-1.088.188.134a2.749 2.749 0 004.055-1.015l3.996-8.009 9.128 3.535c.36.157 5.068 2.316 5.068 7.933v7.618a1.759 1.759 0 003.516 0V84.82c0-8.112-6.957-11.065-7.253-11.187a.603.603 0 00-.034-.013l-15.543-6.02v-3.202a12.837 12.837 0 004.642-7.972 6.131 6.131 0 003.264-1.437 6.043 6.043 0 002.103-4.587c0-1.409-.489-2.757-1.365-3.828v-4.744c0-9.282-7.552-16.834-16.834-16.834a16.756 16.756 0 00-10.926 4.043 6.043 6.043 0 00-1.36-3.658v-4.743c0-9.283-7.552-16.835-16.835-16.835-9.282 0-16.834 7.553-16.834 16.835v4.867a5.734 5.734 0 00-1.36 3.519 16.76 16.76 0 00-6.63-3.473 1.757 1.757 0 10-.895 3.4 13.322 13.322 0 019.917 12.88v2.628c-.076-.016-.32-.058-.329-.059-.024-.496-.15-.8-.42-1.188-.45-.647-1.258-1.453-3.857-4.246a2.779 2.779 0 00-3.562-.434c-4.452 2.908-9.86 4.39-14.88 4.095-1.635-.095-2.656.623-3.091 1.8a34.41 34.41 0 00-.498.1v-2.697c0-5.829 3.895-11.072 9.471-12.752a1.758 1.758 0 00-1.014-3.366 16.968 16.968 0 00-8.583 5.988 16.682 16.682 0 00-3.39 10.13v4.867a5.729 5.729 0 00-1.364 3.706c0 3.009 2.217 5.633 5.376 6.025.517 3.132 2.216 6.135 4.898 8.177V67.6L7.287 73.62a1.51 1.51 0 00-.033.012C6.958 73.754 0 76.707 0 84.82v27.567a3.816 3.816 0 003.812 3.812h54.134c.756 0 1.46-.225 2.054-.606a3.79 3.79 0 002.054.606h54.134a3.816 3.816 0 003.812-3.812V100.64c0-.97-.787-1.757-1.758-1.757zm-100.5-46.088a2.537 2.537 0 01-1.688-2.394c0-1.034.75-1.884 1.689-2.287v4.68zm81.253 19.281l-3.45 6.916-3.888-2.761 4.315-5.326 3.023 1.171zm-9.879 1.706L84.57 68.17v-1.686c1.478.51 3.07.747 4.568.747h.001c1.55 0 3.118-.294 4.515-.82v1.77l-4.538 5.6zm2.064 6.422l-.647.974H87.7l-.647-.974 2.064-1.465 2.063 1.465zM59.995 52.59l-4.546-5.611V45.29a14.17 14.17 0 004.568.747h.001c1.547 0 3.115-.293 4.515-.82v1.77l-4.538 5.601zm2.064 6.423l-.646.974h-2.834l-.647-.974 2.064-1.465 2.063 1.465zM46.153 35.066c.287.078.582.131.882.168.518 3.132 2.217 6.136 4.898 8.178v2.995l-3.586 1.39a6.023 6.023 0 00-.776-1.225V41.83c0-2.385-.502-4.678-1.418-6.763zm23.183-1.862c0 5.145-4.197 9.318-9.318 9.318-5.777 0-9.638-4.478-9.638-9.318V24.97c5.55.222 11.317-1.423 16.031-4.357 1.585 1.7 2.528 2.687 2.926 3.146v9.445zm3.355 2.03c.298-.038.592-.092.877-.17a16.732 16.732 0 00-1.424 6.765v4.867c-.27.323-.503.667-.695 1.027l-3.4-1.316v-3.202a12.838 12.838 0 004.642-7.972zM53.134 49.714l4.315 5.327-2.943 2.09-.004.004-.934.663-3.45-6.915 3.016-1.169zM64.04 53.18l2.81-3.467 3.023 1.17-3.45 6.916-.937-.665-.002-.002-2.949-2.094 1.505-1.857zm.886 7.869l.188.133a2.748 2.748 0 004.056-1.014l2.966-5.946a6.17 6.17 0 004.012 2.21 12.78 12.78 0 004.905 8.172V67.6L66.11 73.394l-1.906-11.257.723-1.088zm17.328 9.859l4.315 5.326-3.881 2.758-3.451-6.916 3.017-1.168zm16.202-16.511c0 5.02-4.076 9.318-9.318 9.318-5.974 0-9.638-4.68-9.638-9.318v-8.234c5.51.22 11.284-1.403 16.03-4.357 1.586 1.7 2.529 2.687 2.926 3.145v9.446zm5.205-3.996c0 1.069-.66 2.02-1.688 2.394v-4.782a2.533 2.533 0 011.688 2.388zM75.66 41.83c0-7.344 5.975-13.319 13.319-13.319 7.344 0 13.318 5.975 13.318 13.32v2.628c-.08-.017-.3-.055-.329-.059-.024-.497-.15-.8-.42-1.188-.462-.664-1.261-1.456-3.857-4.246a2.78 2.78 0 00-3.562-.434c-4.331 2.83-9.803 4.427-15.01 4.09-1.463-.097-2.523.62-2.961 1.805-.04.007-.474.094-.498.1V41.83zm.325 6.285v4.678a2.532 2.532 0 01-1.69-2.39c0-1.035.75-1.885 1.69-2.288zM74.54 29.209c0 .74-.32 1.44-.879 1.92-.24.207-.513.365-.81.473V26.82a2.534 2.534 0 011.69 2.389zM59.858 7.319c7.343 0 13.318 5.974 13.318 13.318v2.629c-.08-.017-.3-.055-.329-.06-.026-.538-.181-.869-.498-1.297-.47-.637-1.338-1.513-3.78-4.137a2.78 2.78 0 00-3.56-.434c-4.575 2.988-10.124 4.443-15.153 4.082a2.793 2.793 0 00-2.819 1.813l-.498.1v-2.696c0-7.344 5.975-13.319 13.319-13.319zM46.863 26.92v4.681a2.538 2.538 0 01-1.688-2.393c0-1.029.744-1.882 1.688-2.288zm-3.132 21.092a2.51 2.51 0 011.678 2.236 2.527 2.527 0 01-1.678 2.544v-4.78zm-.163 8.418a6.164 6.164 0 004.178-2.425l3.075 6.162a2.749 2.749 0 004.055 1.014l.188-.133.723 1.087-1.905 11.254L38.928 67.6v-3.2a12.848 12.848 0 004.64-7.968zm-12.694 17.35l-4.546-5.61v-1.687a14.17 14.17 0 004.568.747h.001a12.99 12.99 0 004.515-.82v1.77l-4.538 5.6zm2.064 6.423l-.647.974h-2.833l-.647-.974 2.064-1.465 2.063 1.465zm4.791-9.299l3.024 1.171-3.45 6.916-.937-.665-.003-.002-2.948-2.094 4.314-5.326zM21.26 54.397v-8.234c5.58.223 11.35-1.444 16.03-4.357 1.57 1.683 2.528 2.686 2.926 3.145v9.446c0 5.112-4.168 9.318-9.318 9.318-5.733 0-9.638-4.427-9.638-9.318zm2.754 16.51l4.315 5.327-2.943 2.09-.004.004-.934.663-3.45-6.915 3.016-1.168zm-10.006 41.775V87a1.758 1.758 0 10-3.516 0v25.682H3.812a.296.296 0 01-.296-.296V84.819c0-5.646 4.757-7.798 5.065-7.931l9.122-3.537 3.996 8.01a2.749 2.749 0 004.055 1.014l.19-.134.722 1.088-3.927 23.202-.008.052a2.812 2.812 0 00.68 2.256l3.494 3.843H14.007zm12.26-5.929L30 84.693h1.749l3.733 22.06-4.607 5.069-4.608-5.069zm31.975 5.633a.296.296 0 01-.296.296h-6.679V87a1.758 1.758 0 10-3.516 0v25.682H34.844l3.494-3.843a2.812 2.812 0 00.672-2.308l-3.927-23.202.723-1.088.188.134a2.752 2.752 0 004.056-1.014l3.995-8.01 9.128 3.536c2.66 1.157 5.069 4.142 5.069 7.932v27.567zM60 78.431a12.516 12.516 0 00-2.866-3.185L59.12 63.5h1.749l1.988 11.75A12.523 12.523 0 0060 78.432zm12.249 34.251V87a1.758 1.758 0 10-3.516 0v25.682h-6.679a.297.297 0 01-.296-.296V84.819c0-2.09.655-4.015 2.051-5.632.93-1.067 2.165-1.931 3.014-2.3l9.122-3.536 3.997 8.01a2.748 2.748 0 004.055 1.014l.188-.134.723 1.088-3.927 23.202-.008.052a2.813 2.813 0 00.68 2.256l3.494 3.843H72.249zm12.26-5.929l3.734-22.06h1.748l3.733 22.06-4.608 5.069-4.607-5.069z" fill="#1DBBBA"/></g><defs><clipPath id="clip0"><path fill="#fff" d="M0 0h120v120H0z"/></clipPath></defs></svg>