<svg width="120" height="120" fill="none" xmlns="http://www.w3.org/2000/svg"><g clip-path="url(#clip0)" fill="#1DBBBA"><path d="M114.211 63.875c-.972 0-1.761.788-1.761 1.761v47.597a3.247 3.247 0 01-3.244 3.244H67.728a3.248 3.248 0 01-3.244-3.244v-4.681a1.761 1.761 0 10-3.523 0v4.681a6.72 6.72 0 00.83 3.244H8.138a.588.588 0 01-.587-.587V73.399a1.761 1.761 0 00-3.523 0v42.492A4.114 4.114 0 008.137 120h101.068a6.774 6.774 0 006.767-6.767V65.636a1.76 1.76 0 00-1.761-1.761z"/><path d="M109.206 37.824H92.181V23.586c0-.463-.19-.92-.516-1.246L69.84.516A1.773 1.773 0 0068.594 0H8.138a4.114 4.114 0 00-4.11 4.11v62.243a1.761 1.761 0 003.523 0V4.11c0-.324.263-.588.587-.588h58.695V18.89a6.465 6.465 0 006.458 6.458h15.367v12.477H67.73a6.775 6.775 0 00-6.767 6.767v.275H33.053a1.761 1.761 0 100 3.523h27.91v11.963h-27.91a1.761 1.761 0 000 3.523h27.91v11.963h-27.91a1.761 1.761 0 000 3.523h27.91v11.964h-27.91a1.761 1.761 0 100 3.522h27.91v6.66a1.762 1.762 0 103.522 0V44.591a3.248 3.248 0 013.244-3.245h41.478a3.248 3.248 0 013.244 3.245v14a1.762 1.762 0 003.523 0v-14a6.776 6.776 0 00-6.768-6.767zm-38.85-18.935V6.013l15.811 15.812H73.291a2.939 2.939 0 01-2.935-2.936z"/><path d="M107.352 50.054a4.115 4.115 0 00-4.11-4.11H73.999a4.114 4.114 0 00-4.11 4.11v9.944a4.114 4.114 0 004.11 4.11h29.243a4.115 4.115 0 004.11-4.11v-9.944zm-3.523 9.944a.588.588 0 01-.587.587H73.999a.588.588 0 01-.587-.587v-9.944c0-.324.263-.587.587-.587h29.243c.324 0 .587.263.587.587v9.944zM69.89 78.572a3.937 3.937 0 003.931 3.932h3.354a3.937 3.937 0 003.933-3.932v-3.354a3.937 3.937 0 00-3.933-3.932h-3.353a3.937 3.937 0 00-3.933 3.932v3.354zm3.522-3.353a.41.41 0 01.41-.41h3.353a.41.41 0 01.41.41v3.353a.41.41 0 01-.41.41h-3.353a.41.41 0 01-.41-.41V75.22zM94.23 75.219a3.937 3.937 0 00-3.933-3.933h-3.353a3.937 3.937 0 00-3.933 3.933v3.353a3.937 3.937 0 003.933 3.933h3.353a3.937 3.937 0 003.933-3.933V75.22zm-3.523 3.353a.41.41 0 01-.41.41h-3.353a.41.41 0 01-.41-.41v-3.354a.41.41 0 01.41-.41h3.353a.41.41 0 01.41.41v3.354zM107.352 75.219a3.937 3.937 0 00-3.933-3.933h-3.353a3.937 3.937 0 00-3.933 3.933v3.353a3.937 3.937 0 003.933 3.933h3.353a3.937 3.937 0 003.933-3.933V75.22zm-3.523 3.353a.41.41 0 01-.41.41h-3.353a.41.41 0 01-.41-.41v-3.354a.41.41 0 01.41-.41h3.353a.41.41 0 01.41.41v3.354zM69.89 92.933a3.937 3.937 0 003.931 3.932h3.354a3.937 3.937 0 003.933-3.932v-3.354a3.937 3.937 0 00-3.933-3.932h-3.353a3.937 3.937 0 00-3.933 3.932v3.354zm3.522-3.354a.41.41 0 01.41-.41h3.353a.41.41 0 01.41.41v3.354a.41.41 0 01-.41.41h-3.353a.41.41 0 01-.41-.41v-3.354zM94.23 89.579a3.937 3.937 0 00-3.933-3.932h-3.353a3.937 3.937 0 00-3.933 3.932v3.354a3.937 3.937 0 003.933 3.932h3.353a3.937 3.937 0 003.933-3.932v-3.354zm-3.523 3.354a.41.41 0 01-.41.41h-3.353a.41.41 0 01-.41-.41v-3.354a.41.41 0 01.41-.41h3.353a.41.41 0 01.41.41v3.354zM69.89 107.293a3.937 3.937 0 003.931 3.932h3.354a3.937 3.937 0 003.933-3.932v-3.354a3.937 3.937 0 00-3.933-3.932h-3.353a3.936 3.936 0 00-3.933 3.932v3.354zm3.522-3.354a.41.41 0 01.41-.41h3.353a.41.41 0 01.41.41v3.354a.41.41 0 01-.41.41h-3.353a.41.41 0 01-.41-.41v-3.354zM90.297 100.007h-3.353a3.937 3.937 0 00-3.933 3.932v3.354a3.937 3.937 0 003.933 3.932h3.353a3.937 3.937 0 003.933-3.932v-3.354a3.937 3.937 0 00-3.933-3.932zm.41 7.286a.41.41 0 01-.41.41h-3.353a.41.41 0 01-.41-.41v-3.354a.41.41 0 01.41-.41h3.353a.41.41 0 01.41.41v3.354zM103.087 85.647h-2.689a4.27 4.27 0 00-4.265 4.264v17.049a4.27 4.27 0 004.265 4.265h2.689a4.27 4.27 0 004.265-4.265V89.911a4.27 4.27 0 00-4.265-4.264zm.742 21.313c0 .41-.333.743-.742.743h-2.689a.743.743 0 01-.742-.743V89.911c0-.409.333-.742.742-.742h2.689c.409 0 .742.333.742.742v17.049zM18.096 32.903h7.03a1.761 1.761 0 100-3.523h-7.03a1.762 1.762 0 000 3.523zM33.052 32.903H66.95a1.761 1.761 0 100-3.523H33.052a1.762 1.762 0 000 3.523zM18.096 48.389h7.03a1.761 1.761 0 000-3.523h-7.03a1.761 1.761 0 100 3.523zM18.096 63.875h7.03a1.761 1.761 0 000-3.523h-7.03a1.761 1.761 0 000 3.523zM18.096 79.36h7.03a1.761 1.761 0 000-3.522h-7.03a1.762 1.762 0 000 3.523zM18.096 94.847h7.03a1.761 1.761 0 000-3.523h-7.03a1.761 1.761 0 100 3.523z"/></g><defs><clipPath id="clip0"><path fill="#fff" d="M0 0h120v120H0z"/></clipPath></defs></svg>