<svg width="120" height="120" fill="none" xmlns="http://www.w3.org/2000/svg"><path d="M112.602 73.032l-.034-.014-15.934-6.17V63.52a13.097 13.097 0 004.756-8.177c3.198-.386 5.487-3.038 5.487-6.127a6.147 6.147 0 00-1.397-3.905v-4.869c0-3.45-1.026-6.665-2.783-9.36V20.312a4.839 4.839 0 00-4.834-4.834h-16.12v-4.781C81.744 4.798 76.947 0 71.048 0H54.762a1.758 1.758 0 100 3.516h16.285c3.96 0 7.181 3.221 7.181 7.181v4.78h-1.61v-4.78a5.577 5.577 0 00-5.571-5.571H31.649a5.576 5.576 0 00-5.57 5.571v4.78h-1.61v-4.78c0-3.96 3.221-7.181 7.18-7.181h14.91a1.758 1.758 0 100-3.516h-14.91C25.75 0 20.953 4.798 20.953 10.697v4.78H4.833A4.84 4.84 0 000 20.313v31.906a4.836 4.836 0 003.674 4.687v45.546a4.61 4.61 0 004.605 4.606h48.595v5.6a3.864 3.864 0 003.86 3.86h55.405a3.864 3.864 0 003.861-3.86v-10.6a1.757 1.757 0 10-3.516 0v10.6c0 .19-.154.345-.345.345h-6.876V86.915a1.759 1.759 0 00-3.516 0v26.087H92.401L96.04 109a2.836 2.836 0 00.687-2.275l-.008-.053-4.023-23.764.773-1.162c1.88 1.335 3.66.454 4.317-.861l4.107-8.232 9.377 3.632c.368.16 5.214 2.379 5.214 8.158v9.41a1.758 1.758 0 003.516 0v-9.41c0-8.275-7.096-11.288-7.398-11.411zM81.838 78.54l-3.573-7.16 3.157-1.224 4.464 5.509-4.048 2.875zm-3.61-16.674h-6.059a1.32 1.32 0 01-1.317-1.319v-3.495h4.732a13.175 13.175 0 002.643 4.814zm-3.61-21.423c0-7.539 6.133-13.673 13.673-13.673 7.547 0 13.673 6.153 13.673 13.673v2.742a35.19 35.19 0 00-.418-.076c-.03-.75-.345-1.19-.936-1.87-.548-.634-1.417-1.533-3.432-3.7a2.802 2.802 0 00-3.593-.437c-4.581 2.992-10.24 4.565-15.533 4.185a2.811 2.811 0 00-2.852 1.85c-.076.013-.539.108-.582.119v-2.813zm-1.396 8.774c0-.972.674-1.938 1.811-2.402v4.906a2.63 2.63 0 01-1.811-2.504zm19.895 16.326v1.886l-4.684 5.783-4.695-5.794v-1.8c2.84.997 6.278 1.11 9.38-.075zm-4.662-2.66c-5.815 0-9.906-4.47-9.906-9.577v-8.47c5.725.237 11.653-1.473 16.456-4.47 1.637 1.756 2.629 2.793 3.029 3.257 0 10.318-.006 9.927-.006 9.927-.132 5.206-4.413 9.334-9.573 9.334zm13.094-11.159v-5.01a2.64 2.64 0 010 5.01zM29.594 10.697c0-1.133.922-2.055 2.056-2.055h39.398c1.132 0 2.054.922 2.054 2.055v4.78H29.594v-4.78zM3.516 20.312a1.32 1.32 0 011.317-1.319h93.03a1.32 1.32 0 011.318 1.319v6.839a17.229 17.229 0 00-10.888-3.897h-.002c-9.476 0-17.188 7.71-17.188 17.19v4.994a5.847 5.847 0 00-1.397 3.779 6.17 6.17 0 001.77 4.32H4.833a1.32 1.32 0 01-1.318-1.318V20.312zM18.7 57.052h13.144v3.495a1.32 1.32 0 01-1.318 1.319H20.02a1.32 1.32 0 01-1.319-1.319v-3.495zM8.28 103.542c-.59 0-1.09-.499-1.09-1.091V57.052h7.997v3.495a4.84 4.84 0 004.834 4.835h10.507a4.84 4.84 0 004.834-4.835v-3.495h31.974v3.495a4.84 4.84 0 004.834 4.835h8.053v1.465l-15.917 6.17-.033.015c-.302.123-7.399 3.136-7.399 11.41v19.1H8.28zm62.848 9.46V86.915a1.758 1.758 0 00-3.516 0v26.087h-6.878a.345.345 0 01-.344-.345V84.443c0-3.871 2.48-6.977 5.21-8.156l9.373-3.634 4.107 8.231c.67 1.346 2.462 2.179 4.316.862l.773 1.162-4.023 23.764-.008.053a2.836 2.836 0 00.688 2.275l3.637 4.002H71.127zm17.306-.86l-4.761-5.237 3.83-22.632h1.86l3.83 22.632-4.76 5.237zm1.472-31.384H86.96l-.696-1.048 2.168-1.54 2.169 1.54-.696 1.048zm8.695-9.379l-3.574 7.161-4.053-2.879 4.463-5.508 3.163 1.226z" fill="#1DBBBA"/></svg>