<svg width="70" height="70" fill="none" xmlns="http://www.w3.org/2000/svg"><g clip-path="url(#clip0)" fill="#1DBBBA"><path d="M33.197 48.398h-.508c-.77 0-1.396.626-1.396 1.396v3.892c0 .77.626 1.395 1.396 1.395h3.892c.77 0 1.396-.626 1.396-1.395v-3.892c0-.77-.626-1.396-1.396-1.396h-1.27a13.661 13.661 0 00-6.122-8.553h2.748a3.111 3.111 0 002.93 2.073h.004a3.105 3.105 0 003.103-3.11 3.105 3.105 0 00-3.107-3.104h-.004a3.104 3.104 0 00-2.928 2.09h-6.712v-.922c0-.77-.627-1.395-1.396-1.395h-3.892c-.77 0-1.396.626-1.396 1.395v3.893c0 .77.626 1.395 1.396 1.395h3.892c.77 0 1.395-.626 1.395-1.395v-.457a11.611 11.611 0 017.975 8.09zm2.729 4.633h-2.582v-2.582h2.582v2.582zm-1.06-15.276h.001a1.056 1.056 0 11-.001 0zM23.172 40.11H20.59v-2.581h2.582v2.581z"/><path d="M47.064 61.96h-1.23V24.072h14.79c4.05 0 7.345-3.295 7.345-7.345 0-3.855-2.987-7.026-6.768-7.322a9.041 9.041 0 00-4.232-8.013A9.06 9.06 0 0049.53.384a1.026 1.026 0 00.59 1.964 7.009 7.009 0 015.755.78 7 7 0 013.182 7.11c-.05.298.033.603.228.833.43.51 1.007.325 1.338.364a5.3 5.3 0 015.294 5.293 5.3 5.3 0 01-5.294 5.294H45.822a2.422 2.422 0 00-2.408-2.2h-2.608v-2.198a2.423 2.423 0 00-2.421-2.42h-8.268c.661-2.184 2.706-3.77 5.069-3.77h3.384c.318 0 .618-.147.813-.4.42-.547.08-.887.08-1.638a2.946 2.946 0 012.943-2.944c.6 0 1.176.18 1.668.519a1.026 1.026 0 001.537-.47 7.05 7.05 0 011.07-1.838 1.025 1.025 0 10-1.596-1.288 9.067 9.067 0 00-.904 1.352 5 5 0 00-6.769 4.657h-2.227c-3.486 0-6.474 2.49-7.183 5.82H8.074a2.423 2.423 0 00-2.42 2.42v18.833a1.025 1.025 0 102.05 0V17.624a.37.37 0 01.37-.37h30.311a.37.37 0 01.37.37v2.198H21.718a1.04 1.04 0 00-.725.3l-10.01 10.01c-.188.188-.3.449-.3.725v25.926H7.705v-15.54a1.025 1.025 0 10-2.05 0v15.54H4.423a2.395 2.395 0 00-2.393 2.393v8.431A2.395 2.395 0 004.424 70h42.64a2.395 2.395 0 002.393-2.393v-3.255a2.395 2.395 0 00-2.393-2.393zM20.692 23.322v6.112a.397.397 0 01-.397.397h-6.111l6.508-6.509zm-7.959 8.56h7.562a2.45 2.45 0 002.448-2.448v-7.562h20.67a.37.37 0 01.37.37v39.716h-9.027a.341.341 0 01-.23-.088l-4.942-4.47a2.39 2.39 0 00-1.604-.618H12.733v-24.9zm34.673 35.724a.342.342 0 01-.342.342H4.424a.342.342 0 01-.342-.342v-8.43c0-.19.154-.343.342-.343h23.555a.34.34 0 01.23.089l4.942 4.47a2.39 2.39 0 001.605.617H47.064c.189 0 .342.153.342.342v3.255z"/><path d="M67.23 31.465l-7.525-5.196a1.444 1.444 0 00-1.631 0l-7.525 5.196a1.71 1.71 0 00-.738 1.407v3.7c0 .536.294 1.023.768 1.272a1.432 1.432 0 001.483-.09l6.828-4.714.97.67a1.025 1.025 0 101.165-1.688l-1.32-.91a1.443 1.443 0 00-1.631 0L51.862 35.4v-2.35L58.89 28.2l7.028 4.852v2.35l-.95-.656a1.026 1.026 0 00-1.165 1.688l1.915 1.322a1.433 1.433 0 001.482.089c.474-.249.768-.736.768-1.27v-3.702a1.71 1.71 0 00-.737-1.407z"/><path d="M67.23 42.263l-7.525-5.196a1.444 1.444 0 00-1.631 0l-7.525 5.195a1.709 1.709 0 00-.738 1.407v3.701a1.431 1.431 0 001.436 1.437c.286 0 .57-.086.815-.255l6.828-4.714 6.827 4.714a1.43 1.43 0 001.483.09c.474-.25.768-.736.768-1.272v-3.7a1.71 1.71 0 00-.737-1.407zm-1.312 3.935l-6.213-4.29a1.436 1.436 0 00-.815-.252c-.286 0-.572.084-.816.252l-6.212 4.29v-2.35l7.028-4.852 7.028 4.852v2.35z"/><path d="M67.23 53.06l-7.525-5.196a1.444 1.444 0 00-1.631 0l-7.525 5.196a1.71 1.71 0 00-.738 1.406v3.702a1.432 1.432 0 001.436 1.436c.286 0 .57-.086.815-.255l6.828-4.714 6.827 4.714c.44.304 1.009.339 1.483.09.474-.25.768-.736.768-1.271v-3.702a1.71 1.71 0 00-.737-1.406zm-1.312 3.935l-6.213-4.29a1.436 1.436 0 00-.815-.252c-.286 0-.572.084-.816.253l-6.212 4.29v-2.35l7.028-4.853 7.028 4.853v2.349z"/></g><defs><clipPath id="clip0"><path fill="#fff" d="M0 0h70v70H0z"/></clipPath></defs></svg>