<svg width="120" height="120" fill="none" xmlns="http://www.w3.org/2000/svg"><g clip-path="url(#clip0)" fill="#1DBBBA"><path d="M117.172 38.404L61.055.324a1.878 1.878 0 00-2.11 0L2.828 38.404c-.515.35-.824.931-.824 1.554v78.163c0 1.038.841 1.879 1.88 1.879h112.233a1.879 1.879 0 001.879-1.879V39.958a1.88 1.88 0 00-.824-1.554zm-71.076 77.838H25.804V95.95h4.259v10.146c0 1.038.84 1.879 1.879 1.879h8.016a1.879 1.879 0 001.88-1.879V95.95h4.258v20.292zM21.796 48.1v-4.258h76.409V48.1h-76.41zm12.025 56.117V95.95h4.258v8.267h-4.258zm12.275-12.025H25.804V71.9h4.258v10.146c0 1.038.841 1.879 1.88 1.879h8.016a1.88 1.88 0 001.88-1.879V71.9h4.258v20.292zM33.82 80.167V71.9h4.258v8.267h-4.258zm36.325 36.075H49.854V95.95h4.259v10.146c0 1.038.84 1.879 1.879 1.879h8.017a1.879 1.879 0 001.879-1.879V95.95h4.258v20.292zM57.87 104.217V95.95h4.26v8.267h-4.26zm56.368 12.025H97.954V76.033a1.879 1.879 0 10-3.758 0v40.209H73.904v-22.17a1.879 1.879 0 00-1.879-1.88H49.854V70.021a1.88 1.88 0 00-1.88-1.88h-22.17V51.859h68.392v16.159a1.879 1.879 0 103.758 0V51.858h2.13a1.879 1.879 0 001.879-1.879v-8.017a1.879 1.879 0 00-1.879-1.879H19.916a1.88 1.88 0 00-1.878 1.88v8.016c0 1.038.84 1.88 1.878 1.88h2.13v64.383H5.762V40.954L60 4.15l54.238 36.804v75.288z"/><path d="M68.017 16.033H51.984a1.88 1.88 0 000 3.758h16.033a1.879 1.879 0 100-3.758zM68.017 24.05H51.984a1.879 1.879 0 100 3.758h16.033a1.879 1.879 0 100-3.758zM68.017 32.067H51.984a1.879 1.879 0 100 3.758h16.033a1.879 1.879 0 100-3.758zM39.958 86.18h-8.016a1.88 1.88 0 000 3.758h8.016a1.88 1.88 0 000-3.758zM39.958 110.23h-8.016a1.879 1.879 0 100 3.758h8.016a1.88 1.88 0 000-3.758zM64.008 110.23h-8.016a1.879 1.879 0 100 3.758h8.016a1.88 1.88 0 000-3.758z"/></g><defs><clipPath id="clip0"><path fill="#fff" d="M0 0h120v120H0z"/></clipPath></defs></svg>