<svg width="535" height="536" viewBox="0 0 535 536" fill="none" xmlns="http://www.w3.org/2000/svg">
<g opacity="0.06">
<path d="M0 125.162V125.651C0.0736487 125.517 0.147297 125.377 0.227641 125.249L0 125.162Z" fill="#62818E"/>
<path d="M0.796745 133.559L0 134.282V137.424L2.57101 135.086C1.90148 134.671 1.2989 134.155 0.796745 133.559Z" fill="#62818E"/>
<path d="M20.8705 203.652L0.0078125 203.371V205.696L20.8437 205.977C20.7901 205.629 20.7567 205.281 20.7567 204.919C20.75 204.483 20.7968 204.061 20.8705 203.652Z" fill="#62818E"/>
<path d="M0 219.84V222.513L22.5499 209.643C22.0344 209.067 21.6126 208.403 21.3046 207.68L0 219.84Z" fill="#62818E"/>
<path d="M10.1375 134.992C9.48804 135.414 8.75825 135.729 7.98828 135.917L25.4229 198.227C26.1393 197.965 26.9093 197.811 27.7127 197.791L10.1375 134.992Z" fill="#62818E"/>
<path d="M82.2377 109.211L30.8711 198.455C31.5808 198.783 32.2302 199.232 32.7927 199.768L84.3535 110.182C83.5902 109.975 82.8738 109.646 82.2377 109.211Z" fill="#62818E"/>
<path d="M79.6526 106.06C79.358 105.35 79.1772 104.586 79.1237 103.789L12.793 126.12C13.101 126.824 13.3018 127.581 13.3755 128.378L79.6526 106.06Z" fill="#62818E"/>
<path d="M120.535 209.007C120.535 208.237 120.662 207.493 120.89 206.803L34.9353 203.969C34.9754 204.284 35.0089 204.599 35.0089 204.92C35.0089 205.389 34.962 205.845 34.875 206.287L120.549 209.114C120.542 209.074 120.535 209.041 120.535 209.007Z" fill="#62818E"/>
<path d="M141.881 254.969C142.591 254.68 143.354 254.5 144.151 254.453L131.577 214.963C130.934 215.392 130.211 215.707 129.441 215.908L141.881 254.969Z" fill="#62818E"/>
<path d="M221.255 345.908C220.84 346.578 220.324 347.174 219.715 347.677L303.239 442.549C303.822 442.026 304.485 441.591 305.221 441.283L221.255 345.908Z" fill="#62818E"/>
<path d="M150.505 265.547C150.07 266.197 149.521 266.766 148.898 267.235L210.301 336.982C210.87 336.446 211.52 336.004 212.243 335.669L150.505 265.547Z" fill="#62818E"/>
<path d="M314.16 451.42C313.765 452.103 313.256 452.72 312.66 453.236L384.936 535.324H388.03L314.16 451.42Z" fill="#62818E"/>
<path d="M208.078 342.055C208.092 341.231 208.246 340.44 208.513 339.703L19.7852 350.202C20.1668 350.899 20.4279 351.669 20.5551 352.487L208.078 342.055Z" fill="#62818E"/>
<path d="M0 396.117V405.953L11.0808 360.313C10.3108 360.031 9.60111 359.629 8.98514 359.113L0 396.117Z" fill="#62818E"/>
<path d="M156.383 513.461L139.973 535.329H142.878L159.557 513.105C158.82 513.367 158.03 513.514 157.206 513.514C156.925 513.507 156.651 513.487 156.383 513.461Z" fill="#62818E"/>
<path d="M213.855 349.156L162.656 501.796C163.353 502.633 163.861 503.631 164.123 504.724L216.286 349.19C215.931 349.243 215.57 349.284 215.195 349.284C214.739 349.284 214.291 349.237 213.855 349.156Z" fill="#62818E"/>
<path d="M104.594 450.3L152.847 500.731C153.483 500.241 154.2 499.853 154.976 499.598L106.281 448.705C105.812 449.321 105.243 449.864 104.594 450.3Z" fill="#62818E"/>
<path d="M96.5474 438.528L19.3033 357.793C18.848 358.423 18.2923 358.979 17.6562 359.428L94.8937 440.149C95.3556 439.526 95.9114 438.977 96.5474 438.528Z" fill="#62818E"/>
<path d="M59.4814 506.996L0 509.522V511.847L59.4747 509.321C59.4144 508.946 59.3743 508.564 59.3743 508.175C59.381 507.773 59.4211 507.378 59.4814 506.996Z" fill="#62818E"/>
<path d="M73.4023 506.4C73.5496 506.969 73.63 507.559 73.63 508.169C73.63 508.35 73.6166 508.531 73.6032 508.711L150.131 505.462C150.238 504.624 150.486 503.827 150.861 503.104L73.4023 506.4Z" fill="#62818E"/>
<path d="M52.1641 535.323H54.7685L65.0593 515.156C64.2759 514.995 63.5528 514.7 62.8833 514.305L52.1641 535.323Z" fill="#62818E"/>
<path d="M75.7919 535.324H78.2223L71.4266 513.328C70.8441 513.884 70.1612 514.347 69.418 514.682L75.7919 535.324Z" fill="#62818E"/>
<path d="M67.3697 501.1L16.244 360.213C15.5343 360.508 14.7644 360.682 13.9609 360.729L64.9392 501.214C65.4414 501.101 65.9636 501.033 66.506 501.033C66.8005 501.04 67.0884 501.067 67.3697 501.1Z" fill="#62818E"/>
<path d="M104.937 438.703L210.991 347.898C210.361 347.436 209.812 346.873 209.364 346.236L102.707 437.551C103.524 437.805 104.274 438.201 104.937 438.703Z" fill="#62818E"/>
<path d="M250.775 220.082L213.957 335.134C214.365 335.061 214.781 335.021 215.202 335.021C215.611 335.021 216.006 335.061 216.394 335.128L252.884 221.1C252.12 220.879 251.411 220.531 250.775 220.082Z" fill="#62818E"/>
<path d="M256.801 207.399L261.709 115.676C261.575 115.682 261.448 115.696 261.307 115.696C260.644 115.696 260.001 115.595 259.392 115.428L254.484 207.151C254.618 207.144 254.752 207.131 254.886 207.131C255.549 207.131 256.192 207.224 256.801 207.399Z" fill="#62818E"/>
<path d="M383.576 48.2324C383.088 47.6294 382.706 46.946 382.432 46.209L266.957 104.218C267.426 104.827 267.801 105.517 268.055 106.261L383.576 48.2324Z" fill="#62818E"/>
<path d="M455.271 77.1837C455.512 76.4333 455.874 75.7365 456.336 75.1201L395.602 46.6719C395.274 47.3955 394.833 48.0521 394.297 48.6216L455.271 77.1837Z" fill="#62818E"/>
<path d="M451.676 133.002C452.479 133.082 453.236 133.296 453.939 133.618L459.697 86.0883C458.893 85.8069 458.15 85.3915 457.507 84.8555L451.676 133.002Z" fill="#62818E"/>
<path d="M391.02 36.8768L398.284 0H395.921L388.703 36.6289C388.837 36.6222 388.971 36.6088 389.105 36.6088C389.768 36.6088 390.41 36.7026 391.02 36.8768Z" fill="#62818E"/>
<path d="M534.998 31.6513V28.9043L465.172 72.9568C465.928 73.3253 466.611 73.8278 467.194 74.4241L534.998 31.6513Z" fill="#62818E"/>
<path d="M396.211 44.1789L464.918 30.6851C464.878 30.3702 464.845 30.0553 464.845 29.727C464.845 29.2379 464.892 28.7622 464.985 28.3066L395.977 41.8607C396.137 42.4637 396.238 43.0868 396.238 43.7434C396.238 43.8908 396.224 44.0315 396.211 44.1789Z" fill="#62818E"/>
<path d="M534.996 16.9178V14.5527L477.898 25.7685C478.34 26.4251 478.662 27.1621 478.863 27.946L534.996 16.9178Z" fill="#62818E"/>
<path d="M450.577 0H447.598L467.215 24.4215C467.798 23.8989 468.454 23.4701 469.183 23.1619L450.577 0Z" fill="#62818E"/>
<path d="M455.209 77.3848L268.055 106.275C268.296 106.992 268.436 107.763 268.436 108.56C268.436 108.56 268.436 108.56 268.436 108.567L454.948 79.7767C454.942 79.636 454.928 79.502 454.928 79.3613C454.928 78.6779 455.029 78.0146 455.209 77.3848Z" fill="#62818E"/>
<path d="M247.862 215.453C247.795 215.064 247.755 214.669 247.755 214.267C247.755 213.791 247.802 213.336 247.889 212.887L150.371 257.415C150.82 258.045 151.175 258.742 151.402 259.499L247.862 215.453Z" fill="#62818E"/>
<path d="M125.342 202.267C126.072 202.012 126.848 201.872 127.665 201.872C127.672 201.872 127.672 201.872 127.678 201.872L91.296 108.326C90.7336 108.896 90.0708 109.358 89.3477 109.713L125.342 202.267Z" fill="#62818E"/>
<path d="M34.7833 206.654C34.5892 207.425 34.2745 208.142 33.8594 208.785L137.952 258.975C138.24 258.238 138.641 257.561 139.137 256.971L34.7833 206.654Z" fill="#62818E"/>
<path d="M386.362 370.457C386.175 369.813 386.067 369.137 386.067 368.433C386.067 368.306 386.081 368.185 386.088 368.065L222.199 343.529C222.045 344.327 221.75 345.07 221.355 345.754L386.362 370.457Z" fill="#62818E"/>
<path d="M389.333 374.422L311.379 441.576C312.082 441.958 312.705 442.454 313.24 443.037L391.736 375.413C390.866 375.233 390.049 374.891 389.333 374.422Z" fill="#62818E"/>
<path d="M457.921 484.229L315.116 447.842V447.849C315.116 448.653 314.975 449.416 314.734 450.14L457.981 486.642C457.887 486.186 457.841 485.71 457.841 485.228C457.841 484.886 457.874 484.558 457.921 484.229Z" fill="#62818E"/>
<path d="M459.56 489.863L393.832 535.162C393.973 535.209 394.1 535.269 394.234 535.329H397.682L461.415 491.411C460.712 490.996 460.089 490.48 459.56 489.863Z" fill="#62818E"/>
<path d="M526.153 535.323H529.842L471.519 488.041C471.205 488.765 470.776 489.428 470.254 490.004L526.153 535.323Z" fill="#62818E"/>
<path d="M459.935 480.183C460.484 479.633 461.126 479.184 461.829 478.836L396.048 374.973C395.311 375.294 394.508 375.495 393.664 375.549L459.935 480.183Z" fill="#62818E"/>
<path d="M428.422 228.858C428.811 228.175 429.306 227.565 429.882 227.049L268.303 109.92C268.149 110.731 267.855 111.481 267.453 112.171L428.422 228.858Z" fill="#62818E"/>
<path d="M262.061 99.2603L261.512 101.438C262.315 101.458 263.078 101.619 263.795 101.887L264.458 99.2402C263.668 99.3273 262.864 99.334 262.061 99.2603Z" fill="#62818E"/>
<path d="M25.8187 211.746L15.6953 258.177C16.4787 258.385 17.2085 258.713 17.8579 259.149L28.1286 212.034C28.0415 212.034 27.9612 212.048 27.8741 212.048C27.1644 212.048 26.4748 211.94 25.8187 211.746Z" fill="#62818E"/>
<path d="M2.65805 122.865L0 120.191V123.481L0.870394 124.359C1.37924 123.769 1.98182 123.267 2.65805 122.865Z" fill="#62818E"/>
<path d="M427.496 232.362C427.496 231.699 427.596 231.056 427.764 230.439L261.92 213.193C261.974 213.542 262.007 213.89 262.007 214.252C262.007 214.687 261.96 215.11 261.887 215.525L427.509 232.744C427.509 232.623 427.496 232.496 427.496 232.362Z" fill="#62818E"/>
<path d="M220.852 337.815C221.32 338.424 221.695 339.115 221.95 339.865L428.695 236.323C428.266 235.68 427.945 234.963 427.744 234.199L220.852 337.815Z" fill="#62818E"/>
<path d="M475.535 306.485C476.171 306.049 476.887 305.714 477.651 305.506L438.851 238.098C438.229 238.56 437.539 238.922 436.789 239.163L475.535 306.485Z" fill="#62818E"/>
<path d="M478.642 203.499C478.026 203.01 477.49 202.427 477.069 201.764L439.555 227.217C440.117 227.753 440.586 228.383 440.947 229.08L478.642 203.499Z" fill="#62818E"/>
<path d="M254.291 107.354L203.547 108.499C203.614 108.901 203.661 109.31 203.661 109.725C203.661 110.101 203.621 110.462 203.567 110.817L254.277 109.672C254.217 109.31 254.184 108.935 254.184 108.553C254.177 108.151 254.224 107.749 254.291 107.354Z" fill="#62818E"/>
<path d="M237.871 470.856C238.226 471.539 238.467 472.283 238.581 473.067L301.283 450.24C301.022 449.51 300.874 448.733 300.868 447.922L237.871 470.856Z" fill="#62818E"/>
<path d="M281.715 535.323H284.118L306.019 454.702C305.249 454.481 304.533 454.132 303.89 453.684L281.715 535.323Z" fill="#62818E"/>
<path d="M471.25 481.858L534.996 468.907V466.535L469.609 479.815C470.272 480.391 470.835 481.081 471.25 481.858Z" fill="#62818E"/>
<path d="M0 62.5723V65.1049L79.9022 100.032C80.2704 99.3151 80.7592 98.6719 81.3417 98.1292L0 62.5723Z" fill="#62818E"/>
<path d="M6.48109 352.615L0 355.041V357.52L6.54804 355.067C6.45431 354.598 6.40074 354.116 6.40074 353.62C6.40074 353.279 6.43422 352.944 6.48109 352.615Z" fill="#62818E"/>
<path d="M472.013 486.252L534.996 504.134V501.722L471.953 483.826C472.047 484.282 472.094 484.751 472.094 485.233C472.1 485.575 472.067 485.917 472.013 486.252Z" fill="#62818E"/>
<path d="M13.4108 129.002C13.4108 128.787 13.3974 128.58 13.3773 128.379C13.3103 127.581 13.1095 126.824 12.7948 126.121C11.6901 123.622 9.1927 121.873 6.28023 121.873C4.95455 121.873 3.71591 122.242 2.65805 122.871C1.98182 123.273 1.37924 123.776 0.870394 124.365C0.636057 124.64 0.421806 124.942 0.227641 125.25C0.147297 125.384 0.0736487 125.518 0 125.652V132.359C0.227641 132.781 0.48876 133.189 0.796745 133.558C1.2989 134.161 1.89478 134.67 2.57101 135.085C3.65565 135.749 4.92107 136.137 6.28692 136.137C6.87611 136.137 7.44522 136.057 7.99423 135.923C8.77089 135.735 9.49399 135.42 10.1434 134.998C12.1052 133.725 13.4108 131.514 13.4108 129.002Z" fill="#00344A"/>
<path d="M34.8694 206.286C34.9564 205.843 35.0033 205.388 35.0033 204.919C35.0033 204.597 34.9765 204.275 34.9296 203.967C34.7087 202.326 33.932 200.858 32.7938 199.766C32.2314 199.23 31.5819 198.788 30.8722 198.453C29.9617 198.031 28.944 197.783 27.8727 197.783C27.8192 197.783 27.7589 197.79 27.7053 197.79C26.9019 197.81 26.1319 197.964 25.4155 198.225C23.0722 199.09 21.3113 201.133 20.8627 203.646C20.7891 204.054 20.7422 204.476 20.7422 204.912C20.7422 205.274 20.7757 205.622 20.8292 205.971C20.9163 206.567 21.0703 207.143 21.2979 207.679C21.6059 208.403 22.0277 209.059 22.5432 209.642C23.4069 210.62 24.5317 211.357 25.8106 211.746C26.46 211.94 27.1496 212.054 27.866 212.054C27.9531 212.054 28.0334 212.041 28.1205 212.041C30.5241 211.954 32.6197 210.687 33.8517 208.791C34.2735 208.148 34.5815 207.425 34.7756 206.661C34.8158 206.533 34.8426 206.413 34.8694 206.286Z" fill="#00344A"/>
<path d="M82.24 109.211C82.8828 109.646 83.5925 109.968 84.3624 110.182C84.9583 110.343 85.5877 110.437 86.2371 110.437C87.3552 110.437 88.4064 110.176 89.3505 109.713C90.0736 109.358 90.7364 108.889 91.2988 108.327C92.5776 107.04 93.3677 105.265 93.3677 103.302C93.3677 99.3619 90.1807 96.166 86.2371 96.166C84.3423 96.166 82.6216 96.9097 81.3495 98.1157C80.767 98.6651 80.285 99.3083 79.91 100.019C79.4012 100.997 79.1133 102.109 79.1133 103.295C79.1133 103.456 79.1267 103.616 79.1401 103.777C79.1936 104.575 79.3744 105.345 79.669 106.049C80.1979 107.348 81.1018 108.44 82.24 109.211Z" fill="#00344A"/>
<path d="M125.342 202.266C123.24 202.99 121.58 204.672 120.89 206.796C120.662 207.492 120.535 208.229 120.535 209C120.535 209.033 120.542 209.067 120.542 209.107C120.595 213 123.762 216.135 127.666 216.135C128.282 216.135 128.878 216.048 129.447 215.901C130.217 215.7 130.94 215.385 131.582 214.956C133.517 213.683 134.796 211.492 134.796 209C134.796 205.067 131.609 201.871 127.679 201.871C127.672 201.871 127.672 201.871 127.666 201.871C126.849 201.871 126.072 202.019 125.342 202.266Z" fill="#00344A"/>
<path d="M13.8727 257.938C9.93586 257.938 6.74219 261.133 6.74219 265.073C6.74219 269.013 9.93586 272.208 13.8727 272.208C17.8096 272.208 21.0033 269.013 21.0033 265.073C21.0033 262.614 19.7579 260.443 17.8631 259.157C17.2137 258.715 16.4839 258.386 15.7006 258.185C15.1114 258.025 14.5021 257.938 13.8727 257.938Z" fill="#00344A"/>
<path d="M150.505 265.547C151.268 264.408 151.716 263.041 151.716 261.567C151.716 260.844 151.609 260.153 151.408 259.497C151.181 258.74 150.826 258.043 150.377 257.413C149.085 255.611 146.976 254.432 144.593 254.432C144.445 254.432 144.305 254.445 144.157 254.452C143.361 254.499 142.591 254.673 141.888 254.968C140.816 255.41 139.879 256.1 139.143 256.971C138.64 257.567 138.245 258.244 137.958 258.974C137.643 259.778 137.469 260.649 137.469 261.56C137.469 265.5 140.662 268.696 144.599 268.696C146.22 268.696 147.713 268.147 148.911 267.235C149.52 266.76 150.069 266.197 150.505 265.547Z" fill="#00344A"/>
<path d="M247.863 215.452C248.184 217.362 249.255 219.01 250.775 220.082C251.411 220.531 252.121 220.879 252.884 221.107C253.52 221.295 254.19 221.395 254.886 221.395C258.388 221.395 261.294 218.869 261.896 215.533C261.97 215.117 262.017 214.695 262.017 214.26C262.017 213.898 261.983 213.549 261.93 213.201C261.515 210.4 259.479 208.143 256.801 207.399C256.192 207.231 255.556 207.131 254.893 207.131C254.759 207.131 254.625 207.144 254.491 207.151C251.21 207.332 248.519 209.73 247.896 212.886C247.809 213.335 247.762 213.791 247.762 214.266C247.756 214.668 247.803 215.064 247.863 215.452Z" fill="#00344A"/>
<path d="M221.252 345.908C221.286 345.854 221.319 345.801 221.346 345.747C221.741 345.07 222.036 344.32 222.19 343.523C222.277 343.08 222.324 342.618 222.324 342.149C222.324 341.345 222.183 340.581 221.942 339.858C221.688 339.114 221.313 338.424 220.844 337.808C219.773 336.414 218.199 335.429 216.385 335.121C215.996 335.054 215.601 335.014 215.193 335.014C214.765 335.014 214.349 335.061 213.948 335.128C213.345 335.235 212.776 335.416 212.234 335.664C211.517 335.992 210.861 336.434 210.292 336.977C209.502 337.727 208.886 338.658 208.504 339.704C208.237 340.441 208.083 341.225 208.069 342.055C208.069 342.089 208.062 342.122 208.062 342.149C208.062 343.67 208.545 345.077 209.355 346.236C209.803 346.879 210.352 347.435 210.982 347.898C211.819 348.514 212.789 348.95 213.847 349.151C214.282 349.238 214.731 349.285 215.193 349.285C215.561 349.285 215.923 349.244 216.284 349.191C217.57 348.99 218.748 348.461 219.712 347.67C220.322 347.174 220.837 346.578 221.252 345.908Z" fill="#00344A"/>
<path d="M386.36 370.457C386.849 372.112 387.913 373.512 389.333 374.423C390.056 374.892 390.866 375.234 391.736 375.415C392.205 375.515 392.694 375.562 393.196 375.562C393.356 375.562 393.51 375.549 393.664 375.535C394.508 375.482 395.312 375.281 396.048 374.959C398.565 373.86 400.32 371.348 400.32 368.427C400.32 364.487 397.133 361.291 393.189 361.291C389.379 361.291 386.273 364.286 386.079 368.058C386.072 368.179 386.059 368.299 386.059 368.427C386.065 369.137 386.166 369.813 386.36 370.457Z" fill="#00344A"/>
<path d="M231.545 466.996C227.608 466.996 224.414 470.192 224.414 474.132C224.414 478.071 227.608 481.267 231.545 481.267C235.481 481.267 238.675 478.071 238.675 474.132C238.675 473.77 238.642 473.415 238.588 473.066C238.468 472.282 238.227 471.532 237.878 470.855C236.687 468.571 234.296 466.996 231.545 466.996Z" fill="#00344A"/>
<path d="M314.157 451.419C314.392 451.017 314.586 450.588 314.74 450.139C314.988 449.422 315.122 448.652 315.122 447.848V447.841C315.122 445.985 314.405 444.303 313.247 443.037C312.711 442.454 312.089 441.952 311.386 441.576C310.375 441.027 309.223 440.719 307.998 440.719C307.02 440.719 306.083 440.92 305.233 441.275C304.503 441.583 303.833 442.019 303.251 442.541C301.791 443.848 300.867 445.737 300.867 447.854C300.867 447.881 300.867 447.901 300.867 447.921C300.874 448.739 301.021 449.516 301.282 450.239C301.778 451.64 302.702 452.839 303.893 453.677C304.536 454.125 305.253 454.474 306.023 454.695C306.652 454.876 307.308 454.976 307.998 454.976C309.785 454.976 311.412 454.313 312.664 453.228C313.254 452.718 313.756 452.109 314.157 451.419Z" fill="#00344A"/>
<path d="M391.441 534.74C390.451 534.74 389.513 534.955 388.656 535.323H394.233C394.1 535.263 393.966 535.209 393.832 535.156C393.082 534.894 392.278 534.74 391.441 534.74Z" fill="#00344A"/>
<path d="M457.92 484.229C457.873 484.558 457.84 484.886 457.84 485.228C457.84 485.71 457.887 486.186 457.98 486.641C458.228 487.854 458.784 488.959 459.561 489.864C460.083 490.474 460.712 490.996 461.415 491.405C462.46 492.008 463.671 492.363 464.97 492.363C467.066 492.363 468.947 491.452 470.253 490.011C470.775 489.435 471.21 488.772 471.518 488.048C471.759 487.485 471.927 486.882 472.014 486.259C472.061 485.924 472.094 485.583 472.094 485.234C472.094 484.752 472.047 484.283 471.954 483.827C471.813 483.13 471.572 482.474 471.251 481.864C470.835 481.087 470.273 480.397 469.61 479.827C468.365 478.755 466.745 478.105 464.97 478.105C463.839 478.105 462.781 478.373 461.83 478.842C461.127 479.191 460.484 479.64 459.935 480.189C458.864 481.248 458.141 482.661 457.92 484.229Z" fill="#00344A"/>
<path d="M73.4017 506.399C72.6853 503.592 70.3018 501.448 67.3692 501.093C67.088 501.059 66.8001 501.039 66.5055 501.039C65.9699 501.039 65.4477 501.106 64.9388 501.22C62.1335 501.85 59.9575 504.134 59.4821 506.995C59.4152 507.377 59.375 507.773 59.375 508.175C59.375 508.563 59.4152 508.945 59.4754 509.32C59.8169 511.451 61.1024 513.26 62.8834 514.312C63.5462 514.707 64.276 515.002 65.0593 515.163C65.528 515.256 66.0101 515.31 66.5055 515.31C67.5433 515.31 68.5208 515.082 69.4113 514.687C70.1612 514.352 70.8374 513.89 71.4199 513.334C72.6585 512.154 73.4687 510.533 73.6026 508.724C73.616 508.543 73.6294 508.362 73.6294 508.181C73.6361 507.558 73.549 506.969 73.4017 506.399Z" fill="#00344A"/>
<path d="M157.201 499.244C156.424 499.244 155.681 499.371 154.985 499.599C154.208 499.854 153.492 500.242 152.856 500.732C152.032 501.368 151.349 502.179 150.867 503.117C150.492 503.84 150.244 504.631 150.137 505.475C150.097 505.77 150.07 506.071 150.07 506.38C150.07 510.045 152.829 513.053 156.384 513.462C156.652 513.495 156.926 513.508 157.201 513.508C158.024 513.508 158.814 513.361 159.551 513.1C162.329 512.128 164.325 509.488 164.325 506.373C164.325 505.803 164.251 505.254 164.124 504.725C163.863 503.633 163.354 502.628 162.658 501.797C161.352 500.236 159.39 499.244 157.201 499.244Z" fill="#00344A"/>
<path d="M94.8926 440.157C94.0222 441.336 93.5 442.797 93.5 444.378C93.5 448.318 96.6937 451.513 100.631 451.513C102.097 451.513 103.463 451.071 104.601 450.307C105.25 449.872 105.813 449.329 106.288 448.713C107.205 447.514 107.761 446.013 107.761 444.385C107.761 442.066 106.65 440.016 104.942 438.71C104.279 438.207 103.53 437.812 102.713 437.564C102.057 437.363 101.36 437.256 100.637 437.256C99.1174 437.256 97.7114 437.732 96.5598 438.542C95.9103 438.978 95.3546 439.527 94.8926 440.157Z" fill="#00344A"/>
<path d="M17.6505 359.435C18.2866 358.986 18.8423 358.43 19.2976 357.8C20.1479 356.627 20.6567 355.187 20.6567 353.626C20.6567 353.237 20.6165 352.862 20.5563 352.487C20.4291 351.676 20.168 350.906 19.7863 350.202C18.5745 347.991 16.2311 346.49 13.5329 346.49C9.93748 346.49 6.97814 349.15 6.48269 352.614C6.43582 352.942 6.40234 353.277 6.40234 353.626C6.40234 354.122 6.45591 354.604 6.54964 355.073C6.88441 356.688 7.7615 358.108 8.98674 359.12C9.60272 359.636 10.3124 360.038 11.0824 360.319C11.8457 360.6 12.6692 360.761 13.5329 360.761C13.6802 360.761 13.8208 360.748 13.9681 360.741C14.7715 360.694 15.5415 360.52 16.2512 360.225C16.7466 360.011 17.2153 359.743 17.6505 359.435Z" fill="#00344A"/>
<path d="M261.706 115.675C264.157 115.541 266.273 114.167 267.451 112.171C267.853 111.487 268.147 110.73 268.301 109.919C268.388 109.484 268.435 109.028 268.435 108.566C268.435 108.566 268.435 108.566 268.435 108.559C268.435 107.755 268.295 106.992 268.054 106.275V106.268C267.799 105.524 267.424 104.834 266.956 104.224C266.152 103.173 265.061 102.362 263.802 101.886C263.086 101.618 262.322 101.464 261.519 101.437C261.452 101.437 261.378 101.424 261.311 101.424C257.783 101.424 254.864 103.983 254.295 107.353C254.228 107.749 254.188 108.151 254.188 108.559C254.188 108.941 254.228 109.31 254.281 109.678C254.716 112.452 256.745 114.683 259.403 115.427C260.012 115.594 260.655 115.695 261.318 115.695C261.439 115.695 261.572 115.681 261.706 115.675Z" fill="#00344A"/>
<path d="M428.42 228.859C428.139 229.355 427.918 229.884 427.764 230.447C427.596 231.057 427.496 231.7 427.496 232.37C427.496 232.504 427.509 232.631 427.516 232.758C427.543 233.254 427.617 233.737 427.744 234.199C427.945 234.963 428.266 235.68 428.695 236.323C429.973 238.239 432.149 239.505 434.627 239.505C435.383 239.505 436.106 239.385 436.789 239.17C437.539 238.929 438.235 238.567 438.851 238.105C440.606 236.805 441.75 234.728 441.75 232.37C441.75 231.184 441.456 230.072 440.947 229.087C440.585 228.39 440.11 227.767 439.554 227.224C438.276 225.998 436.541 225.234 434.627 225.234C432.805 225.234 431.145 225.924 429.886 227.05C429.304 227.573 428.808 228.176 428.42 228.859Z" fill="#00344A"/>
<path d="M450.963 132.961C447.026 132.961 443.832 136.157 443.832 140.096C443.832 144.036 447.026 147.232 450.963 147.232C454.899 147.232 458.086 144.036 458.086 140.096C458.086 137.222 456.379 134.75 453.929 133.618C453.226 133.296 452.469 133.075 451.666 133.001C451.438 132.974 451.204 132.961 450.963 132.961Z" fill="#00344A"/>
<path d="M455.211 77.3847C455.03 78.0145 454.93 78.6711 454.93 79.3612C454.93 79.5019 454.943 79.6359 454.95 79.7766C455.07 81.8134 456.034 83.6291 457.507 84.8552C458.15 85.3912 458.893 85.8066 459.697 86.088C460.433 86.3493 461.23 86.4967 462.054 86.4967C465.99 86.4967 469.177 83.3008 469.177 79.3612C469.177 77.445 468.421 75.7097 467.189 74.4233C466.613 73.8203 465.93 73.3245 465.167 72.956C464.223 72.4937 463.172 72.2324 462.047 72.2324C459.697 72.2324 457.621 73.3714 456.322 75.1268C455.86 75.7499 455.499 76.44 455.258 77.1904C455.244 77.2507 455.231 77.3177 455.211 77.3847Z" fill="#00344A"/>
<path d="M389.106 50.8726C391.155 50.8726 392.989 50.0016 394.295 48.6214C394.83 48.0519 395.272 47.3953 395.6 46.6717C395.949 45.9012 396.156 45.0637 396.21 44.1793C396.216 44.0319 396.23 43.8845 396.23 43.7371C396.23 43.0872 396.136 42.4574 395.969 41.8544C395.313 39.4424 393.424 37.5396 391.014 36.8696C390.405 36.7021 389.762 36.6016 389.099 36.6016C388.965 36.6016 388.831 36.615 388.698 36.6217C384.948 36.8294 381.969 39.9315 381.969 43.7371C381.969 44.6081 382.136 45.4389 382.417 46.2094C382.692 46.9464 383.073 47.6298 383.562 48.2328C384.881 49.8408 386.876 50.8726 389.106 50.8726Z" fill="#00344A"/>
<path d="M464.917 30.6854C465.386 34.1694 468.366 36.8628 471.974 36.8628C475.911 36.8628 479.098 33.6669 479.098 29.7273C479.098 29.1109 479.011 28.5146 478.864 27.9451C478.663 27.1612 478.335 26.4242 477.9 25.7676C476.621 23.8581 474.445 22.5918 471.974 22.5918C470.983 22.5918 470.039 22.7928 469.182 23.1613C468.459 23.4695 467.796 23.905 467.214 24.4209C466.096 25.4259 465.292 26.7726 464.984 28.3002C464.891 28.7625 464.844 29.2382 464.844 29.7206C464.844 30.0489 464.877 30.3705 464.917 30.6854Z" fill="#00344A"/>
<path d="M478.641 203.5C479.853 204.464 481.386 205.041 483.06 205.041C486.997 205.041 490.184 201.845 490.184 197.905C490.184 193.965 486.997 190.77 483.06 190.77C479.123 190.77 475.93 193.965 475.93 197.905C475.93 199.325 476.352 200.645 477.068 201.758C477.496 202.428 478.025 203.017 478.641 203.5Z" fill="#00344A"/>
<path d="M472.43 312.367C472.43 316.307 475.623 319.503 479.56 319.503C483.497 319.503 486.684 316.307 486.684 312.367C486.684 308.427 483.497 305.238 479.56 305.238C478.897 305.238 478.261 305.339 477.652 305.506C476.889 305.721 476.172 306.049 475.536 306.484C473.662 307.771 472.43 309.922 472.43 312.367Z" fill="#00344A"/>
<path d="M203.546 108.5C202.963 105.15 200.051 102.598 196.529 102.598C192.592 102.598 189.398 105.794 189.398 109.733C189.398 113.673 192.592 116.869 196.529 116.869C200.091 116.869 203.037 114.249 203.566 110.832C203.619 110.477 203.66 110.108 203.66 109.74C203.66 109.311 203.613 108.902 203.546 108.5Z" fill="#00344A"/>
</g>
<mask id="mask0_2130_31028" style="mask-type:luminance" maskUnits="userSpaceOnUse" x="1" y="0" width="534" height="536">
<path d="M534.577 0H1.33984V536H534.577V0Z" fill="white"/>
</mask>
<g mask="url(#mask0_2130_31028)">
<path d="M-6.50781 150.2L76.9027 143.875" stroke="#62818E" stroke-width="1.9955" stroke-miterlimit="10"/>
<path d="M76.9023 143.875L135.942 166.487" stroke="#62818E" stroke-width="1.9955" stroke-miterlimit="10"/>
<path d="M135.942 166.488L89.0742 209.382" stroke="#62818E" stroke-width="1.9955" stroke-miterlimit="10"/>
<path d="M89.0745 209.381L76.9023 143.875" stroke="#62818E" stroke-width="1.9955" stroke-miterlimit="10"/>
<path d="M76.9009 143.875L23.3984 199.07" stroke="#62818E" stroke-width="1.9955" stroke-miterlimit="10"/>
<path d="M23.3984 199.07L89.073 209.382" stroke="#62818E" stroke-width="1.9955" stroke-miterlimit="10"/>
<path d="M-5.25 150.039L23.3994 199.07" stroke="#62818E" stroke-width="1.9955" stroke-miterlimit="10"/>
<path d="M23.3989 199.07L-11.5039 202.286" stroke="#62818E" stroke-width="1.9955" stroke-miterlimit="10"/>
<path d="M89.0742 209.381L148.114 210.171" stroke="#62818E" stroke-width="1.9955" stroke-miterlimit="10"/>
<path d="M148.114 210.172L88.4648 244.369" stroke="#62818E" stroke-width="1.9955" stroke-miterlimit="10"/>
<path d="M88.4648 244.368L89.0741 209.381" stroke="#62818E" stroke-width="1.9955" stroke-miterlimit="10"/>
<path d="M135.941 166.488L148.114 210.172" stroke="#62818E" stroke-width="1.9955" stroke-miterlimit="10"/>
<path d="M148.113 210.171L182.085 150.883" stroke="#62818E" stroke-width="1.9955" stroke-miterlimit="10"/>
<path d="M182.086 150.883L135.941 166.487" stroke="#62818E" stroke-width="1.9955" stroke-miterlimit="10"/>
<path d="M148.113 210.172L205.385 212.068" stroke="#62818E" stroke-width="1.9955" stroke-miterlimit="10"/>
<path d="M205.387 212.068L215.061 242.6" stroke="#62818E" stroke-width="1.9955" stroke-miterlimit="10"/>
<path d="M215.059 242.6L355.708 403.065" stroke="#62818E" stroke-width="1.9955" stroke-miterlimit="10"/>
<path d="M256.98 288.307L138.613 294.92" stroke="#62818E" stroke-width="1.9955" stroke-miterlimit="10"/>
<path d="M138.612 294.92L115.734 389.551" stroke="#62818E" stroke-width="1.9955" stroke-miterlimit="10"/>
<path d="M115.736 389.551L69.793 403.929" stroke="#62818E" stroke-width="1.9955" stroke-miterlimit="10"/>
<path d="M68.5273 406.273L137.904 449.113" stroke="#62818E" stroke-width="1.9955" stroke-miterlimit="10"/>
<path d="M137.903 449.114L115.734 389.551" stroke="#62818E" stroke-width="1.9955" stroke-miterlimit="10"/>
<path d="M69.7902 403.93L45.6602 476.665" stroke="#62818E" stroke-width="1.9955" stroke-miterlimit="10"/>
<path d="M45.661 476.664L6.54688 487.692" stroke="#62818E" stroke-width="1.9955" stroke-miterlimit="10"/>
<path d="M45.6602 476.664L74.1756 535.637" stroke="#62818E" stroke-width="1.9955" stroke-miterlimit="10"/>
<path d="M74.1758 535.637L56.875 580.775" stroke="#62818E" stroke-width="1.9955" stroke-miterlimit="10"/>
<path d="M72.9102 537.982L119.403 518.854" stroke="#62818E" stroke-width="1.9955" stroke-miterlimit="10"/>
<path d="M119.402 518.854L137.902 449.113" stroke="#62818E" stroke-width="1.9955" stroke-miterlimit="10"/>
<path d="M68.5273 406.273L54.8086 366.469" stroke="#62818E" stroke-width="1.9955" stroke-miterlimit="10"/>
<path d="M45.6602 476.664L137.902 449.113" stroke="#62818E" stroke-width="1.9955" stroke-miterlimit="10"/>
<path d="M74.1758 535.637L137.902 449.113" stroke="#62818E" stroke-width="1.9955" stroke-miterlimit="10"/>
<path d="M137.902 449.115L184.917 438.348" stroke="#62818E" stroke-width="1.9955" stroke-miterlimit="10"/>
<path d="M119.402 518.854L136.362 556.38" stroke="#62818E" stroke-width="1.9955" stroke-miterlimit="10"/>
<path d="M184.918 438.347L224.621 385.209" stroke="#62818E" stroke-width="1.9955" stroke-miterlimit="10"/>
<path d="M224.621 385.209L256.98 288.307" stroke="#62818E" stroke-width="1.9955" stroke-miterlimit="10"/>
<path d="M138.613 294.92L224.622 385.209" stroke="#62818E" stroke-width="1.9955" stroke-miterlimit="10"/>
<path d="M117 387.212L221.936 382.736" stroke="#62818E" stroke-width="1.9955" stroke-miterlimit="10"/>
<path d="M137.902 449.114L170.877 384.225" stroke="#62818E" stroke-width="1.9955" stroke-miterlimit="10"/>
<path d="M170.879 384.225L187.671 438.836" stroke="#62818E" stroke-width="1.9955" stroke-miterlimit="10"/>
<path d="M138.613 294.92L170.878 384.224" stroke="#62818E" stroke-width="1.9955" stroke-miterlimit="10"/>
<path d="M189.109 346.67L256.98 288.307" stroke="#62818E" stroke-width="1.9955" stroke-miterlimit="10"/>
<path d="M253.84 289.989L278.526 212.504" stroke="#62818E" stroke-width="1.9955" stroke-miterlimit="10"/>
<path d="M278.523 212.502L281.61 154.574" stroke="#62818E" stroke-width="1.9955" stroke-miterlimit="10"/>
<path d="M281.613 154.576L354.787 117.652" stroke="#62818E" stroke-width="1.9955" stroke-miterlimit="10"/>
<path d="M354.785 117.652L395.674 136.895" stroke="#62818E" stroke-width="1.9955" stroke-miterlimit="10"/>
<path d="M395.673 136.895L391.328 172.92" stroke="#62818E" stroke-width="1.9955" stroke-miterlimit="10"/>
<path d="M354.785 117.65L365.705 61.9668" stroke="#62818E" stroke-width="1.9955" stroke-miterlimit="10"/>
<path d="M365.707 61.9668L458.27 97.2289" stroke="#62818E" stroke-width="1.9955" stroke-miterlimit="10"/>
<path d="M458.267 97.2305L395.672 136.894" stroke="#62818E" stroke-width="1.9955" stroke-miterlimit="10"/>
<path d="M365.707 61.9675L427.746 27.0605" stroke="#62818E" stroke-width="1.9955" stroke-miterlimit="10"/>
<path d="M427.746 27.0607L438.05 -21.8828" stroke="#62818E" stroke-width="1.9955" stroke-miterlimit="10"/>
<path d="M427.746 27.0605L475.531 40.963" stroke="#62818E" stroke-width="1.9955" stroke-miterlimit="10"/>
<path d="M475.53 40.9629L458.27 97.2295" stroke="#62818E" stroke-width="1.9955" stroke-miterlimit="10"/>
<path d="M475.531 40.9629L365.707 61.9674" stroke="#62818E" stroke-width="1.9955" stroke-miterlimit="10"/>
<path d="M354.785 117.652L458.268 97.2305" stroke="#62818E" stroke-width="1.9955" stroke-miterlimit="10"/>
<path d="M365.707 61.9668L402.933 108.512" stroke="#62818E" stroke-width="1.9955" stroke-miterlimit="10"/>
<path d="M281.613 154.576L395.675 136.895" stroke="#62818E" stroke-width="1.9955" stroke-miterlimit="10"/>
<path d="M215.059 242.599L276.482 214.426" stroke="#62818E" stroke-width="1.9955" stroke-miterlimit="10"/>
<path d="M182.086 150.883L206.872 214.901" stroke="#62818E" stroke-width="1.9955" stroke-miterlimit="10"/>
<path d="M148.113 210.172L215.06 242.6" stroke="#62818E" stroke-width="1.9955" stroke-miterlimit="10"/>
<path d="M253.84 289.988L358.903 305.794" stroke="#62818E" stroke-width="1.9955" stroke-miterlimit="10"/>
<path d="M358.902 305.795L308.031 349.821" stroke="#62818E" stroke-width="1.9955" stroke-miterlimit="10"/>
<path d="M308.031 349.82L399.001 373.103" stroke="#62818E" stroke-width="1.9955" stroke-miterlimit="10"/>
<path d="M399.003 373.102L355.711 403.064" stroke="#62818E" stroke-width="1.9955" stroke-miterlimit="10"/>
<path d="M355.711 403.064L356.548 449.998" stroke="#62818E" stroke-width="1.9955" stroke-miterlimit="10"/>
<path d="M356.547 449.998L426.962 485.32" stroke="#62818E" stroke-width="1.9955" stroke-miterlimit="10"/>
<path d="M426.963 485.32L355.711 403.064" stroke="#62818E" stroke-width="1.9955" stroke-miterlimit="10"/>
<path d="M359.598 405.182L438.723 403.828" stroke="#62818E" stroke-width="1.9955" stroke-miterlimit="10"/>
<path d="M438.725 403.828L397.516 370.268" stroke="#62818E" stroke-width="1.9955" stroke-miterlimit="10"/>
<path d="M397.514 370.269L355.789 304.1" stroke="#62818E" stroke-width="1.9955" stroke-miterlimit="10"/>
<path d="M438.658 405.812L426.961 485.321" stroke="#62818E" stroke-width="1.9955" stroke-miterlimit="10"/>
<path d="M426.961 485.32L468.914 508.174" stroke="#62818E" stroke-width="1.9955" stroke-miterlimit="10"/>
<path d="M468.914 508.174L468.633 456.49" stroke="#62818E" stroke-width="1.9955" stroke-miterlimit="10"/>
<path d="M468.633 456.49L426.961 485.32" stroke="#62818E" stroke-width="1.9955" stroke-miterlimit="10"/>
<path d="M438.723 403.828L468.631 456.49" stroke="#62818E" stroke-width="1.9955" stroke-miterlimit="10"/>
<path d="M283.426 154.434L383.227 227.102" stroke="#62818E" stroke-width="1.9955" stroke-miterlimit="10"/>
<path d="M281.613 154.574L292.078 112.793" stroke="#62818E" stroke-width="1.9955" stroke-miterlimit="10"/>
<path d="M477.298 136.332L458.27 97.2305" stroke="#62818E" stroke-width="1.9955" stroke-miterlimit="10"/>
<path d="M474.27 43.3086L559.508 84.6878" stroke="#62818E" stroke-width="1.9955" stroke-miterlimit="10"/>
<path d="M438.723 403.828L529.913 408.029" stroke="#62818E" stroke-width="1.9955" stroke-miterlimit="10"/>
<path d="M529.915 408.029L468.633 456.49" stroke="#62818E" stroke-width="1.9955" stroke-miterlimit="10"/>
<path d="M468.914 508.174L486.911 562.424" stroke="#62818E" stroke-width="1.9955" stroke-miterlimit="10"/>
<path d="M148.112 210.172L140.66 244.509" stroke="#62818E" stroke-width="1.9955" stroke-miterlimit="10"/>
<path d="M135.943 166.488L74.4727 104.393" stroke="#62818E" stroke-width="1.9955" stroke-miterlimit="10"/>
<path d="M475.527 40.9626L543.043 -4.10156" stroke="#62818E" stroke-width="1.9955" stroke-miterlimit="10"/>
<path d="M278.711 215.264L381.116 225.964" stroke="#62818E" stroke-width="1.9955" stroke-miterlimit="10"/>
<path d="M253.84 289.988L381.118 225.963" stroke="#62818E" stroke-width="1.9955" stroke-miterlimit="10"/>
<path d="M381.117 225.963L407.624 272.22" stroke="#62818E" stroke-width="1.9955" stroke-miterlimit="10"/>
<path d="M381.117 225.963L410.309 206.064" stroke="#62818E" stroke-width="1.9955" stroke-miterlimit="10"/>
<path d="M283.425 154.434L246.031 155.278" stroke="#62818E" stroke-width="1.9955" stroke-miterlimit="10"/>
<path d="M308.032 349.82L264.961 365.565" stroke="#62818E" stroke-width="1.9955" stroke-miterlimit="10"/>
<path d="M308.032 349.82L279.102 456.799" stroke="#62818E" stroke-width="1.9955" stroke-miterlimit="10"/>
<path d="M397.516 370.268L486.965 352.018" stroke="#62818E" stroke-width="1.9955" stroke-miterlimit="10"/>
<path d="M182.085 150.883L75.5352 104.104" stroke="#62818E" stroke-width="1.9955" stroke-miterlimit="10"/>
<path d="M74.4727 104.393L100.779 94.9121" stroke="#62818E" stroke-width="1.9955" stroke-miterlimit="10"/>
<path d="M138.613 294.92L97.9922 310.209" stroke="#62818E" stroke-width="1.9955" stroke-miterlimit="10"/>
<path d="M76.9031 143.876L74.4727 104.393" stroke="#62818E" stroke-width="1.9955" stroke-miterlimit="10"/>
<path d="M74.472 104.393L19.3359 83.75" stroke="#62818E" stroke-width="1.9955" stroke-miterlimit="10"/>
<path d="M19.3359 83.75L100.778 94.9122" stroke="#62818E" stroke-width="1.9955" stroke-miterlimit="10"/>
<path d="M100.777 94.9124L69.9922 48.9102" stroke="#62818E" stroke-width="1.9955" stroke-miterlimit="10"/>
<path d="M486.965 352.018L529.915 408.03" stroke="#62818E" stroke-width="1.9955" stroke-miterlimit="10"/>
<path d="M486.965 352.018L561.906 337.01" stroke="#62818E" stroke-width="1.9955" stroke-miterlimit="10"/>
<path d="M467.262 453.59L555.245 532.65" stroke="#62818E" stroke-width="1.9955" stroke-miterlimit="10"/>
<path d="M469.926 504.51L555.244 532.65" stroke="#62818E" stroke-width="1.9955" stroke-miterlimit="10"/>
<path d="M397.516 370.268L529.916 408.029" stroke="#62818E" stroke-width="1.9955" stroke-miterlimit="10"/>
<path d="M74.0166 108.835C71.7536 108.835 69.9258 106.993 69.9258 104.721C69.9258 102.45 71.7603 100.607 74.0166 100.607C76.2797 100.607 78.1075 102.45 78.1075 104.721C78.1075 106.993 76.2797 108.835 74.0166 108.835Z" fill="#00344A"/>
<path d="M100.16 99.0655C97.897 99.0655 96.0625 97.223 96.0625 94.9517C96.0625 92.6804 97.897 90.8379 100.16 90.8379C102.423 90.8379 104.251 92.6804 104.251 94.9517C104.251 97.223 102.416 99.0655 100.16 99.0655Z" fill="#00344A"/>
<path d="M69.9999 53.0225C67.7369 53.0225 65.9023 51.18 65.9023 48.9087C65.9023 46.6374 67.7369 44.7949 69.9999 44.7949C72.2629 44.7949 74.0907 46.6374 74.0907 48.9087C74.0907 51.18 72.2562 53.0225 69.9999 53.0225Z" fill="#00344A"/>
<path d="M19.3827 87.2745C17.1197 87.2745 15.2852 85.432 15.2852 83.1607C15.2852 80.8894 17.1197 79.0469 19.3827 79.0469C21.6457 79.0469 23.4736 80.8894 23.4736 83.1607C23.4736 85.432 21.639 87.2745 19.3827 87.2745Z" fill="#00344A"/>
<path d="M22.7315 203.171C20.4685 203.171 18.6406 201.328 18.6406 199.057C18.6406 196.786 20.4751 194.943 22.7315 194.943C24.9945 194.943 26.8223 196.786 26.8223 199.057C26.829 201.328 24.9945 203.171 22.7315 203.171Z" fill="#00344A"/>
<path d="M77.0272 148.593C74.7642 148.593 72.9297 146.75 72.9297 144.479C72.9297 142.208 74.7642 140.365 77.0272 140.365C79.2903 140.365 81.1181 142.208 81.1181 144.479C81.1248 146.75 79.2903 148.593 77.0272 148.593Z" fill="#00344A"/>
<path d="M88.7666 212.946C86.5036 212.946 84.6758 211.104 84.6758 208.833C84.6758 206.561 86.5103 204.719 88.7666 204.719C91.0297 204.719 92.8575 206.561 92.8575 208.833C92.8575 211.104 91.023 212.946 88.7666 212.946Z" fill="#00344A"/>
<path d="M135.353 170.495C133.09 170.495 131.262 168.653 131.262 166.381C131.262 164.11 133.096 162.268 135.353 162.268C137.616 162.268 139.443 164.11 139.443 166.381C139.45 168.653 137.616 170.495 135.353 170.495Z" fill="#00344A"/>
<path d="M147.759 214.292C145.496 214.292 143.668 212.45 143.668 210.178C143.668 207.907 145.502 206.064 147.759 206.064C150.022 206.064 151.85 207.907 151.85 210.178C151.85 212.45 150.015 214.292 147.759 214.292Z" fill="#00344A"/>
<path d="M181.277 155.667C179.014 155.667 177.18 153.825 177.18 151.553C177.18 149.282 179.014 147.439 181.277 147.439C183.54 147.439 185.368 149.282 185.368 151.553C185.368 153.825 183.534 155.667 181.277 155.667Z" fill="#00344A"/>
<path d="M205.071 216.651C202.808 216.651 200.98 214.809 200.98 212.538C200.98 210.266 202.815 208.424 205.071 208.424C207.334 208.424 209.162 210.266 209.162 212.538C209.162 214.809 207.334 216.651 205.071 216.651Z" fill="#00344A"/>
<path d="M88.0897 248.321C85.8267 248.321 83.9922 246.479 83.9922 244.208C83.9922 241.936 85.8267 240.094 88.0897 240.094C90.3528 240.094 92.1806 241.936 92.1806 244.208C92.1806 246.479 90.3528 248.321 88.0897 248.321Z" fill="#00344A"/>
<path d="M139.711 248.991C137.448 248.991 135.613 247.149 135.613 244.877C135.613 242.606 137.448 240.764 139.711 240.764C141.974 240.764 143.802 242.606 143.802 244.877C143.802 247.149 141.974 248.991 139.711 248.991Z" fill="#00344A"/>
<path d="M264.731 369.612C262.468 369.612 260.641 367.77 260.641 365.499C260.641 363.227 262.475 361.385 264.731 361.385C266.995 361.385 268.822 363.227 268.822 365.499C268.829 367.77 266.995 369.612 264.731 369.612Z" fill="#00344A"/>
<path d="M308.641 354.45C306.377 354.45 304.543 352.608 304.543 350.336C304.543 348.065 306.377 346.223 308.641 346.223C310.904 346.223 312.731 348.065 312.731 350.336C312.738 352.608 310.904 354.45 308.641 354.45Z" fill="#00344A"/>
<path d="M278.476 461.255C276.213 461.255 274.379 459.412 274.379 457.141C274.379 454.87 276.213 453.027 278.476 453.027C280.739 453.027 282.567 454.87 282.567 457.141C282.567 459.412 280.739 461.255 278.476 461.255Z" fill="#00344A"/>
<path d="M356.574 408.692C354.311 408.692 352.477 406.85 352.477 404.579C352.477 402.307 354.311 400.465 356.574 400.465C358.837 400.465 360.665 402.307 360.665 404.579C360.672 406.85 358.837 408.692 356.574 408.692Z" fill="#00344A"/>
<path d="M398.806 376.011C396.543 376.011 394.715 374.168 394.715 371.897C394.715 369.626 396.549 367.783 398.806 367.783C401.069 367.783 402.897 369.626 402.897 371.897C402.903 374.168 401.069 376.011 398.806 376.011Z" fill="#00344A"/>
<path d="M439.031 409.034C436.768 409.034 434.934 407.192 434.934 404.92C434.934 402.649 436.768 400.807 439.031 400.807C441.294 400.807 443.122 402.649 443.122 404.92C443.122 407.192 441.287 409.034 439.031 409.034Z" fill="#00344A"/>
<path d="M487.348 357.202C485.085 357.202 483.25 355.36 483.25 353.088C483.25 350.817 485.085 348.975 487.348 348.975C489.611 348.975 491.438 350.817 491.438 353.088C491.445 355.36 489.611 357.202 487.348 357.202Z" fill="#00344A"/>
<path d="M356.574 455.191C354.311 455.191 352.477 453.348 352.477 451.077C352.477 448.805 354.311 446.963 356.574 446.963C358.837 446.963 360.665 448.805 360.665 451.077C360.672 453.348 358.837 455.191 356.574 455.191Z" fill="#00344A"/>
<path d="M426.293 489.22C424.03 489.22 422.195 487.377 422.195 485.106C422.195 482.835 424.03 480.992 426.293 480.992C428.556 480.992 430.384 482.835 430.384 485.106C430.39 487.377 428.556 489.22 426.293 489.22Z" fill="#00344A"/>
<path d="M468.192 459.907C465.929 459.907 464.102 458.065 464.102 455.793C464.102 453.522 465.936 451.68 468.192 451.68C470.455 451.68 472.283 453.522 472.283 455.793C472.283 458.065 470.455 459.907 468.192 459.907Z" fill="#00344A"/>
<path d="M528.523 411.728C526.26 411.728 524.426 409.885 524.426 407.614C524.426 405.343 526.26 403.5 528.523 403.5C530.786 403.5 532.614 405.343 532.614 407.614C532.621 409.885 530.786 411.728 528.523 411.728Z" fill="#00344A"/>
<path d="M469.531 511.458C467.268 511.458 465.434 509.616 465.434 507.344C465.434 505.073 467.268 503.23 469.531 503.23C471.794 503.23 473.622 505.073 473.622 507.344C473.629 509.616 471.794 511.458 469.531 511.458Z" fill="#00344A"/>
<path d="M138.051 453.067C135.788 453.067 133.953 451.225 133.953 448.954C133.953 446.682 135.788 444.84 138.051 444.84C140.314 444.84 142.142 446.682 142.142 448.954C142.142 451.225 140.314 453.067 138.051 453.067Z" fill="#00344A"/>
<path d="M185.93 442.132C183.667 442.132 181.832 440.289 181.832 438.018C181.832 435.747 183.667 433.904 185.93 433.904C188.193 433.904 190.02 435.747 190.02 438.018C190.027 440.289 188.193 442.132 185.93 442.132Z" fill="#00344A"/>
<path d="M169.945 389.249C167.682 389.249 165.848 387.407 165.848 385.135C165.848 382.864 167.682 381.021 169.945 381.021C172.208 381.021 174.036 382.864 174.036 385.135C174.036 387.407 172.202 389.249 169.945 389.249Z" fill="#00344A"/>
<path d="M222.036 388.218C219.773 388.218 217.945 386.375 217.945 384.104C217.945 381.833 219.78 379.99 222.036 379.99C224.299 379.99 226.127 381.833 226.127 384.104C226.127 386.375 224.292 388.218 222.036 388.218Z" fill="#00344A"/>
<path d="M189.543 352.446C187.28 352.446 185.445 350.604 185.445 348.333C185.445 346.061 187.28 344.219 189.543 344.219C191.806 344.219 193.634 346.061 193.634 348.333C193.634 350.604 191.799 352.446 189.543 352.446Z" fill="#00344A"/>
<path d="M97.7393 314.081C95.4763 314.081 93.6484 312.239 93.6484 309.967C93.6484 307.696 95.483 305.854 97.7393 305.854C100.002 305.854 101.83 307.696 101.83 309.967C101.837 312.239 100.002 314.081 97.7393 314.081Z" fill="#00344A"/>
<path d="M113.728 392.88C111.465 392.88 109.637 391.037 109.637 388.766C109.637 386.495 111.471 384.652 113.728 384.652C115.991 384.652 117.818 386.495 117.818 388.766C117.825 391.037 115.991 392.88 113.728 392.88Z" fill="#00344A"/>
<path d="M55.4491 371.622C53.1861 371.622 51.3516 369.78 51.3516 367.508C51.3516 365.237 53.1861 363.395 55.4491 363.395C57.7121 363.395 59.54 365.237 59.54 367.508C59.54 369.78 57.7121 371.622 55.4491 371.622Z" fill="#00344A"/>
<path d="M68.8593 409.47C66.5962 409.47 64.7617 407.627 64.7617 405.356C64.7617 403.085 66.5962 401.242 68.8593 401.242C71.1223 401.242 72.9501 403.085 72.9501 405.356C72.9501 407.627 71.1156 409.47 68.8593 409.47Z" fill="#00344A"/>
<path d="M44.1026 481.013C41.8395 481.013 40.0117 479.17 40.0117 476.899C40.0117 474.628 41.8462 472.785 44.1026 472.785C46.3656 472.785 48.1934 474.628 48.1934 476.899C48.2001 479.17 46.3656 481.013 44.1026 481.013Z" fill="#00344A"/>
<path d="M75.0468 539.075C72.7837 539.075 70.9492 537.233 70.9492 534.961C70.9492 532.69 72.7837 530.848 75.0468 530.848C77.3098 530.848 79.1376 532.69 79.1376 534.961C79.1376 537.233 77.3098 539.075 75.0468 539.075Z" fill="#00344A"/>
<path d="M5.43739 491.378C3.17437 491.378 1.33984 489.536 1.33984 487.264C1.33984 484.993 3.17437 483.15 5.43739 483.15C7.70042 483.15 9.52824 484.993 9.52824 487.264C9.52824 489.536 7.70042 491.378 5.43739 491.378Z" fill="#00344A"/>
<path d="M118.371 523.524C116.108 523.524 114.273 521.682 114.273 519.411C114.273 517.139 116.108 515.297 118.371 515.297C120.634 515.297 122.462 517.139 122.462 519.411C122.462 521.682 120.627 523.524 118.371 523.524Z" fill="#00344A"/>
<path d="M281.824 158.702C279.561 158.702 277.727 156.86 277.727 154.588C277.727 152.317 279.561 150.475 281.824 150.475C284.087 150.475 285.915 152.317 285.915 154.588C285.922 156.86 284.087 158.702 281.824 158.702Z" fill="#00344A"/>
<path d="M381.379 230.124C379.116 230.124 377.281 228.282 377.281 226.01C377.281 223.739 379.116 221.896 381.379 221.896C383.642 221.896 385.47 223.739 385.47 226.01C385.47 228.282 383.642 230.124 381.379 230.124Z" fill="#00344A"/>
<path d="M390.766 176.894C388.502 176.894 386.668 175.051 386.668 172.78C386.668 170.509 388.502 168.666 390.766 168.666C393.029 168.666 394.856 170.509 394.856 172.78C394.856 175.051 393.022 176.894 390.766 176.894Z" fill="#00344A"/>
<path d="M397.133 141.853C394.87 141.853 393.035 140.01 393.035 137.739C393.035 135.467 394.87 133.625 397.133 133.625C399.396 133.625 401.224 135.467 401.224 137.739C401.224 140.01 399.396 141.853 397.133 141.853Z" fill="#00344A"/>
<path d="M355.234 121.304C352.971 121.304 351.137 119.461 351.137 117.19C351.137 114.919 352.971 113.076 355.234 113.076C357.497 113.076 359.325 114.919 359.325 117.19C359.332 119.461 357.497 121.304 355.234 121.304Z" fill="#00344A"/>
<path d="M457.801 102.771C455.538 102.771 453.703 100.928 453.703 98.6568C453.703 96.3855 455.538 94.543 457.801 94.543C460.064 94.543 461.892 96.3855 461.892 98.6568C461.892 100.928 460.064 102.771 457.801 102.771Z" fill="#00344A"/>
<path d="M477.914 140.171C475.651 140.171 473.816 138.328 473.816 136.057C473.816 133.786 475.651 131.943 477.914 131.943C480.177 131.943 482.005 133.786 482.005 136.057C482.005 138.328 480.177 140.171 477.914 140.171Z" fill="#00344A"/>
<path d="M402.832 113.216C400.569 113.216 398.734 111.373 398.734 109.102C398.734 106.831 400.569 104.988 402.832 104.988C405.095 104.988 406.923 106.831 406.923 109.102C406.923 111.373 405.095 113.216 402.832 113.216Z" fill="#00344A"/>
<path d="M367.969 67.0596C365.706 67.0596 363.871 65.2171 363.871 62.9458C363.871 60.6745 365.706 58.832 367.969 58.832C370.232 58.832 372.059 60.6745 372.059 62.9458C372.066 65.2171 370.232 67.0596 367.969 67.0596Z" fill="#00344A"/>
<path d="M475.562 46.5049C473.299 46.5049 471.465 44.6624 471.465 42.3911C471.465 40.1198 473.299 38.2773 475.562 38.2773C477.825 38.2773 479.653 40.1198 479.653 42.3911C479.66 44.6624 477.825 46.5049 475.562 46.5049Z" fill="#00344A"/>
<path d="M426.961 30.6729C424.698 30.6729 422.863 28.8304 422.863 26.5591C422.863 24.2878 424.698 22.4453 426.961 22.4453C429.224 22.4453 431.052 24.2878 431.052 26.5591C431.052 28.8304 429.224 30.6729 426.961 30.6729Z" fill="#00344A"/>
<path d="M409.199 210.245C406.936 210.245 405.102 208.403 405.102 206.131C405.102 203.86 406.936 202.018 409.199 202.018C411.462 202.018 413.29 203.86 413.29 206.131C413.29 208.403 411.462 210.245 409.199 210.245Z" fill="#00344A"/>
<path d="M407.188 276.288C404.925 276.288 403.098 274.446 403.098 272.174C403.098 269.903 404.932 268.061 407.188 268.061C409.452 268.061 411.279 269.903 411.279 272.174C411.279 274.446 409.445 276.288 407.188 276.288Z" fill="#00344A"/>
<path d="M244.625 159.372C242.362 159.372 240.527 157.53 240.527 155.258C240.527 152.987 242.362 151.145 244.625 151.145C246.888 151.145 248.716 152.987 248.716 155.258C248.716 157.53 246.881 159.372 244.625 159.372Z" fill="#00344A"/>
<path d="M292.552 118.603C290.289 118.603 288.461 116.76 288.461 114.489C288.461 112.217 290.295 110.375 292.552 110.375C294.815 110.375 296.643 112.217 296.643 114.489C296.649 116.76 294.815 118.603 292.552 118.603Z" fill="#00344A"/>
</g>
<mask id="mask1_2130_31028" style="mask-type:luminance" maskUnits="userSpaceOnUse" x="1" y="0" width="534" height="536">
<path d="M534.577 0H1.33984V536H534.577V0Z" fill="white"/>
</mask>
<g mask="url(#mask1_2130_31028)">
<path d="M138.613 294.92L214.793 242.861" stroke="#62818E" stroke-width="1.9955" stroke-miterlimit="10"/>
</g>
<mask id="mask2_2130_31028" style="mask-type:luminance" maskUnits="userSpaceOnUse" x="1" y="0" width="534" height="536">
<path d="M534.577 0H1.33984V536H534.577V0Z" fill="white"/>
</mask>
<g mask="url(#mask2_2130_31028)">
<path d="M214.955 244.055L202.047 291.437" stroke="#62818E" stroke-width="1.9955" stroke-miterlimit="10"/>
</g>
<mask id="mask3_2130_31028" style="mask-type:luminance" maskUnits="userSpaceOnUse" x="1" y="0" width="534" height="536">
<path d="M534.577 0H1.33984V536H534.577V0Z" fill="white"/>
</mask>
<g mask="url(#mask3_2130_31028)">
<path d="M278.145 215.566L301.377 264.363" stroke="#62818E" stroke-width="1.9955" stroke-miterlimit="10"/>
</g>
<mask id="mask4_2130_31028" style="mask-type:luminance" maskUnits="userSpaceOnUse" x="1" y="0" width="534" height="536">
<path d="M534.577 0H1.33984V536H534.577V0Z" fill="white"/>
</mask>
<g mask="url(#mask4_2130_31028)">
<path d="M356.944 302.72L341.23 269.441" stroke="#62818E" stroke-width="1.9955" stroke-miterlimit="10"/>
</g>
<mask id="mask5_2130_31028" style="mask-type:luminance" maskUnits="userSpaceOnUse" x="1" y="0" width="534" height="536">
<path d="M534.577 0H1.33984V536H534.577V0Z" fill="white"/>
</mask>
<g mask="url(#mask5_2130_31028)">
<path d="M214.595 246.306C212.332 246.306 210.504 244.463 210.504 242.192C210.504 239.921 212.338 238.078 214.595 238.078C216.858 238.078 218.686 239.921 218.686 242.192C218.692 244.463 216.858 246.306 214.595 246.306Z" fill="#00344A"/>
</g>
<mask id="mask6_2130_31028" style="mask-type:luminance" maskUnits="userSpaceOnUse" x="1" y="0" width="534" height="536">
<path d="M534.577 0H1.33984V536H534.577V0Z" fill="white"/>
</mask>
<g mask="url(#mask6_2130_31028)">
<path d="M277.945 219.009C275.682 219.009 273.848 217.166 273.848 214.895C273.848 212.624 275.682 210.781 277.945 210.781C280.208 210.781 282.036 212.624 282.036 214.895C282.043 217.166 280.208 219.009 277.945 219.009Z" fill="#00344A"/>
</g>
<mask id="mask7_2130_31028" style="mask-type:luminance" maskUnits="userSpaceOnUse" x="1" y="0" width="534" height="536">
<path d="M534.577 0H1.33984V536H534.577V0Z" fill="white"/>
</mask>
<g mask="url(#mask7_2130_31028)">
<path d="M255.153 292.796C252.89 292.796 251.062 290.953 251.062 288.682C251.062 286.411 252.897 284.568 255.153 284.568C257.416 284.568 259.244 286.411 259.244 288.682C259.244 290.953 257.416 292.796 255.153 292.796Z" fill="#00344A"/>
</g>
<path d="M202.047 295.558C199.784 295.558 197.949 293.715 197.949 291.444C197.949 289.173 199.784 287.33 202.047 287.33C204.31 287.33 206.138 289.173 206.138 291.444C206.144 293.715 204.31 295.558 202.047 295.558Z" fill="#00344A"/>
<path d="M300.801 269.374C298.538 269.374 296.703 267.532 296.703 265.26C296.703 262.989 298.538 261.146 300.801 261.146C303.064 261.146 304.892 262.989 304.892 265.26C304.892 267.532 303.064 269.374 300.801 269.374Z" fill="#00344A"/>
<path d="M340.277 272.858C338.014 272.858 336.18 271.016 336.18 268.745C336.18 266.473 338.014 264.631 340.277 264.631C342.54 264.631 344.368 266.473 344.368 268.745C344.368 271.016 342.54 272.858 340.277 272.858Z" fill="#00344A"/>
<path d="M357.387 307.958C355.124 307.958 353.289 306.116 353.289 303.844C353.289 301.573 355.124 299.73 357.387 299.73C359.65 299.73 361.477 301.573 361.477 303.844C361.477 306.116 359.65 307.958 357.387 307.958Z" fill="#00344A"/>
<path d="M139.316 299.417C137.053 299.417 135.219 297.575 135.219 295.303C135.219 293.032 137.053 291.189 139.316 291.189C141.579 291.189 143.407 293.032 143.407 295.303C143.414 297.575 141.579 299.417 139.316 299.417Z" fill="#00344A"/>
</svg>
