<svg xmlns="http://www.w3.org/2000/svg" width="238" height="190" fill="none"><g clip-path="url(#a)"><path fill="#78C1F4" d="m163.676 44.38 38.493-21.991 35.973 20.323-39.404 21.992z"/><path fill="#1D7ECE" d="M238.143 42.713v28.376L198.738 93.08V64.706zM163.676 44.38l35.062 20.325v28.374l-35.062-20.324zM179.145 44.382l22.501-12.857 21.029 11.188-23.034 12.856z"/><path fill="url(#b)" d="m189.461 18.93 11.839-6.764 11.063 6.764-12.118 6.763z"/><path fill="#FBD008" d="M212.364 18.93v13.104l-12.118 6.764V25.693zM189.461 18.93l10.784 6.763v13.105l-10.784-6.764z"/><path stroke="#ACACAC" stroke-miterlimit="10" stroke-width=".675" d="m47.727 74.97 16.652 9.633c.937.542 2.09.551 3.035.024l17.788-9.908"/><path fill="url(#c)" d="m36.047 131.495 39.688 24.127c.666.38 2.031-.793 2.642-1.07a2.21 2.21 0 0 0 1.313-2.029v-31.819a4.95 4.95 0 0 0-2.498-4.298l-40.6-23.124a1.97 1.97 0 0 0-2.183.146c-.465.352-2.358.99-2.358 1.656l1.579 32.254a4.79 4.79 0 0 0 2.417 4.157"/><path fill="url(#d)" d="M33.982 132.655 74.3 155.617c1.484.845 3.327-.226 3.327-1.934v-31.819a4.95 4.95 0 0 0-2.498-4.298l-40.6-23.124c-1.321-.752-2.962.202-2.962 1.722v32.334c0 1.719.923 3.306 2.416 4.157"/><path fill="url(#e)" d="M76.566 121.855v31.832c0 .417-.209.671-.371.833a1.16 1.16 0 0 1-.81.324c-.186 0-.371-.046-.556-.162l-40.313-22.965a3.68 3.68 0 0 1-1.875-3.218v-32.34c0-.556.463-.903.903-.903.162 0 .3.023.463.116l40.59 23.127c1.204.694 1.969 1.968 1.969 3.356"/><path fill="url(#f)" d="m1.006 156.145 39.229 22.398a4.92 4.92 0 0 0 4.997-.074l28.287-17.289c.6-.366.87-1.008.814-1.623-.048-.526.395-2.656-.128-2.955l-40.949-21.339a3.73 3.73 0 0 0-3.8.057L.316 150.88c-.586.358-.26 2.803-.302 3.404a1.97 1.97 0 0 0 .992 1.861"/><path fill="url(#g)" d="m1.006 156.018 39.229 22.398a4.92 4.92 0 0 0 4.997-.074l28.287-17.289c.6-.366.87-1.007.814-1.622-.048-.527.395-2.657-.128-2.956l-40.949-21.339a3.73 3.73 0 0 0-3.8.057l-29.14 15.56c-.586.358-.26 2.803-.302 3.404a1.97 1.97 0 0 0 .992 1.861"/><path fill="url(#h)" d="m1.005 153.369 39.23 22.399a4.91 4.91 0 0 0 4.996-.075l28.288-17.288a1.715 1.715 0 0 0-.045-2.953l-40.219-22.964a3.73 3.73 0 0 0-3.8.057l-28.5 17.418c-1.284.786-1.257 2.66.05 3.406"/><path fill="#fff" d="m73.515 158.285-28.287 17.288a4.91 4.91 0 0 1-4.997.074l-39.23-22.398a1.95 1.95 0 0 1-.981-1.632c-.013.682.306 1.367.982 1.752l39.23 22.399a4.92 4.92 0 0 0 4.996-.074l28.288-17.289c.575-.352.834-.955.805-1.545a1.69 1.69 0 0 1-.806 1.425"/><path fill="url(#i)" d="m75.128 117.566-40.6-23.124c-.704-.4-1.49-.308-2.079.086.57-.315 1.29-.359 1.936.009l40.6 23.123a4.95 4.95 0 0 1 2.499 4.299v31.819c0 .804-.416 1.458-1.005 1.846a2.2 2.2 0 0 0 1.147-1.941v-31.819a4.95 4.95 0 0 0-2.498-4.298" opacity=".47"/><path fill="#333551" d="m31.451 142.049-1.871 1.087-1.943-1.121 1.871-1.087zM28.805 140.522l-1.87 1.087-3.244-1.872 1.87-1.087zM59.207 153.136l-1.159.672-1.943-1.121 1.158-.673zM56.472 151.556l-1.158.673-1.959-1.13 1.16-.673zM53.722 149.969l-1.158.672-1.943-1.12 1.158-.673zM50.987 148.389l-1.159.673-1.957-1.129 1.158-.673zM48.237 146.803l-1.157.673-1.943-1.121 1.157-.673zM45.9 147.468l-1.856 1.078-1.942-1.122 1.856-1.078zM45.491 145.216l-1.157.673-1.943-1.122 1.157-.673zM43.256 145.939l-1.856 1.079-1.943-1.121 1.856-1.079zM40.611 144.413l-1.856 1.078-1.943-1.122 1.857-1.078zM37.967 142.887l-1.856 1.079-1.943-1.122 1.856-1.078zM42.754 143.635l-1.159.672-1.943-1.12 1.16-.673zM40.008 142.049l-1.159.673-1.943-1.121 1.159-.673zM31.784 137.303l-1.158.673-1.958-1.129 1.159-.673zM30.049 138.314l-1.856 1.079-1.959-1.131 1.857-1.078zM34.524 138.882l-1.16.673-1.942-1.122 1.159-.673zM32.674 139.831l-1.856 1.078-1.943-1.122 1.856-1.078zM37.268 140.47l-1.158.673-1.958-1.13 1.158-.673zM35.327 141.359l-1.856 1.079-1.944-1.121 1.857-1.079zM48.549 148.995l-1.856 1.078-1.943-1.122 1.856-1.078zM56.486 153.576l-1.856 1.078-1.958-1.13 1.856-1.079zM53.842 152.048l-1.856 1.078-1.943-1.122 1.856-1.078zM51.197 150.519l-1.856 1.079-1.943-1.121 1.856-1.079zM59.13 155.102l-1.856 1.079-1.958-1.13 1.856-1.078zM61.78 156.629l-1.857 1.078-1.958-1.131 1.856-1.078zM55.244 155.783l-1.871 1.087-1.943-1.121 1.871-1.087zM53.009 163.037l-.936.544-2.003-1.157.936-.543zM54.642 165.325l-.936.543-2.003-1.156.936-.544zM51.848 163.713l-.935.544-2.003-1.157.935-.543zM57.891 157.309l-1.87 1.087-1.943-1.121 1.87-1.087zM60.537 158.837l-1.871 1.087-1.943-1.122 1.871-1.087zM56.148 159.243l-1.87 1.087-1.973-1.139 1.87-1.087zM52.337 159.984l-1.856 1.078-1.973-1.138 1.856-1.078zM60.644 161.839l-1.87 1.087-3.797-2.19 1.871-1.088zM58.102 163.315l-1.857 1.078-5.065-2.924 1.856-1.078zM63.184 160.365l-1.87 1.087-1.943-1.121 1.87-1.087zM65.705 158.897l-1.857 1.079-3.242-1.872 1.855-1.079zM52.599 154.257l-1.871 1.087-1.943-1.122 1.87-1.087zM45.493 153.093l-1.872 1.087-1.973-1.138 1.872-1.087zM26.834 142.324l-1.871 1.087-3.81-2.199 1.87-1.087zM29.497 143.861l-1.872 1.087-1.957-1.13 1.87-1.088zM19.948 144.214l-1.87 1.087-2.004-1.155 1.872-1.087zM25.493 144.489l-1.857 1.079-5.007-2.89 1.857-1.078zM22.667 145.784l-1.871 1.087-2.003-1.157 1.871-1.087zM28.169 146.034l-1.856 1.078-1.973-1.139 1.856-1.078zM25.39 147.355l-1.872 1.087-2.002-1.157 1.871-1.086zM30.856 147.586 29 148.664l-1.973-1.138 1.856-1.079zM28.8 149.32l-1.871 1.087-2.69-1.552 1.87-1.087zM49.04 162.092l-.936.544-2.002-1.157.935-.543zM47.312 160.01l-1.87 1.087-1.989-1.148 1.871-1.086zM44.549 158.415l-1.87 1.087-2.69-1.554 1.87-1.087zM40.153 150.012l-1.87 1.087-1.959-1.129 1.872-1.087zM36.223 150.685l-1.856 1.079-1.972-1.139 1.855-1.078zM38.918 152.24l-1.856 1.078-1.988-1.148 1.856-1.078zM41.59 153.781l-1.856 1.078-1.972-1.138 1.856-1.078zM44.278 155.336l-1.856 1.079-1.973-1.139 1.856-1.079zM41.202 156.482l-1.87 1.087-11.703-6.755 1.87-1.087zM42.813 151.547l-1.87 1.087-1.959-1.131 1.872-1.087zM44.68 149.685l-1.87 1.087-1.958-1.13 1.871-1.087zM47.329 151.21l-1.872 1.087-1.957-1.13 1.87-1.087zM49.955 152.729l-1.871 1.087-1.943-1.121 1.871-1.088zM42.036 148.156l-1.872 1.087-1.957-1.131 1.87-1.087z"/><path fill="url(#j)" d="m37.12 159.75-.251.151-9.52-5.475-9.066 5.274-.252-.151 9.319-5.424z"/><path fill="url(#k)" d="m36.875 159.899-9.068 5.273-9.518-5.474 9.066-5.274z"/><path fill="#333551" d="m34.095 143.577-1.87 1.087-1.944-1.122 1.87-1.087zM37.493 148.476l-1.87 1.087-1.959-1.13 1.871-1.087zM34.832 146.94l-1.87 1.087-1.974-1.139 1.87-1.087zM36.748 145.102l-1.871 1.087-1.943-1.121 1.871-1.088zM39.391 146.629l-1.87 1.087-1.943-1.121 1.87-1.087zM48.15 154.627l-1.872 1.087-1.958-1.131 1.87-1.087zM50.81 156.164l-1.872 1.086-1.958-1.13 1.87-1.087zM46.973 156.887l-1.856 1.079-1.988-1.147 1.856-1.079zM49.641 158.434l-1.856 1.079-1.972-1.14 1.855-1.078zM53.466 157.7l-1.872 1.087-1.957-1.131 1.87-1.086zM32.157 145.397l-1.871 1.087-1.958-1.129 1.87-1.087zM33.532 149.131l-1.856 1.079-1.973-1.139 1.856-1.079zM61.96 154.723l-1.158.673-1.943-1.122 1.158-.672zM67.445 157.889l-1.158.673-1.943-1.122 1.159-.672zM64.695 156.303l-1.158.672-1.943-1.12 1.158-.673z"/><path stroke="#F1F1F2" stroke-miterlimit="10" stroke-width=".077" d="m52.629 139.412-17.387-9.34v-10.916l17.387 9.341zM35.242 120.271l17.387 9.341M35.242 121.658l17.387 9.341M35.242 123.043l17.387 9.341M35.242 124.432l17.387 9.341M35.242 125.816l17.387 9.342M35.242 127.203l17.387 9.342M35.242 128.59l17.387 9.341M36.363 119.76v10.915M37.527 120.383v10.915M38.684 121.006v10.915M39.844 121.631v10.915M41.008 122.254v10.915M42.172 122.877v10.915M43.332 123.5v10.915M44.488 124.125v10.915M45.652 124.748v10.915M46.813 125.373v10.916M47.977 125.996v10.915M49.133 126.621v10.915M50.293 127.242v10.916M51.457 127.867v10.916"/><path stroke="#F99714" stroke-miterlimit="10" stroke-width=".531" d="m35.242 129.12 1.121-.545 1.161.623 1.162-.145.637.625 2.47-1.004.835.206 3.916-1.966 1.43 1.985.951.11 2.837 3.316.867-.368"/><path stroke="#F1F1F2" stroke-miterlimit="10" stroke-width=".077" d="m52.629 125.358-17.387-9.341v-10.915l17.387 9.34zM35.242 106.217l17.387 9.341M35.242 107.604l17.387 9.341M35.242 108.988l17.387 9.342M35.242 110.377l17.387 9.342M35.242 111.762l17.387 9.341M35.242 113.148l17.387 9.342M35.242 114.535l17.387 9.342M36.363 105.705v10.915M37.527 106.328v10.915M38.684 106.951v10.916M39.844 107.576v10.916M41.008 108.197v10.916M42.172 108.822v10.916M43.332 109.445v10.917M44.488 110.07v10.916M45.652 110.695v10.916M46.813 111.318v10.916M47.977 111.941v10.916M49.133 112.566v10.916M50.293 113.189v10.916M51.457 113.812v10.916"/><path fill="url(#l)" d="m38.408 116.239-1.264-.677v-2.615l1.264.679z"/><path fill="url(#m)" d="m40.31 117.262-1.263-.679v-3.185l1.263.678z"/><path fill="url(#n)" d="m42.208 118.282-1.263-.678v-4.534l1.263.678z"/><path fill="url(#o)" d="m44.11 119.305-1.262-.679v-5.438l1.263.677z"/><path fill="url(#p)" d="m46.01 120.324-1.264-.677v-8.042l1.263.678z"/><path fill="url(#q)" d="m47.908 121.346-1.264-.679v-9.659l1.264.678z"/><path fill="url(#r)" d="m49.806 122.367-1.263-.679v-6.961l1.263.678z"/><path fill="url(#s)" d="m49.81 123.865-12.666-6.804v-.799l12.666 6.803z"/><g fill="#fff" opacity=".68"><g opacity=".68"><path d="M74.589 126.654 58.3 117.38c-.115-.067-.21-.214-.21-.33v-.004c0-.116.094-.156.21-.091l16.289 9.274c.116.067.21.215.21.331v.003c0 .117-.094.158-.21.091M74.59 127.718l-19.063-10.854c-.116-.066-.21-.214-.21-.33v-.004c0-.115.094-.156.21-.09l19.063 10.853c.115.067.21.215.21.33v.004c0 .117-.094.158-.21.091M74.59 128.782l-19.063-10.853c-.116-.067-.21-.214-.21-.33v-.004c0-.116.094-.157.21-.091l19.063 10.854c.115.066.21.214.21.33v.004c0 .116-.094.156-.21.09M74.59 129.845l-19.063-10.854c-.116-.066-.21-.214-.21-.33v-.004c0-.116.094-.156.21-.09L74.59 129.42c.115.067.21.214.21.33v.004c0 .117-.094.158-.21.091M71.81 129.327l-16.283-9.271c-.116-.067-.21-.215-.21-.33v-.004c0-.116.094-.157.21-.091l16.284 9.271c.115.067.21.215.21.33v.004c0 .116-.095.157-.21.091"/></g><g opacity=".68"><path d="M74.589 132.902 58.3 123.628c-.115-.067-.21-.214-.21-.33v-.004c0-.116.094-.156.21-.091l16.289 9.274c.116.067.21.215.21.331v.003c0 .116-.094.157-.21.091M74.59 133.966l-19.063-10.854c-.116-.066-.21-.214-.21-.33v-.004c0-.115.094-.156.21-.09l19.063 10.853c.115.067.21.215.21.33v.004c0 .117-.094.158-.21.091M74.59 135.03l-19.063-10.853c-.116-.067-.21-.214-.21-.33v-.004c0-.116.094-.157.21-.091l19.063 10.854c.115.066.21.214.21.33v.004c0 .117-.094.157-.21.09M74.59 136.093l-19.063-10.854c-.116-.066-.21-.214-.21-.33v-.004c0-.115.094-.156.21-.09l19.063 10.853c.115.067.21.215.21.33v.004c0 .116-.094.157-.21.091M71.81 135.573l-16.283-9.271c-.116-.067-.21-.214-.21-.33v-.004c0-.116.094-.157.21-.091l16.284 9.271c.115.067.21.215.21.33v.004c0 .117-.095.158-.21.091"/></g></g><g fill="#fff" opacity=".68"><g opacity=".68"><path d="M74.589 141.316 58.3 132.042c-.115-.066-.21-.214-.21-.33v-.004c0-.116.094-.156.21-.091l16.289 9.274c.116.067.21.215.21.331v.003c0 .116-.094.157-.21.091M74.59 142.38l-19.063-10.853c-.116-.067-.21-.215-.21-.331v-.004c0-.115.094-.156.21-.09l19.063 10.853c.115.067.21.215.21.33v.004c0 .117-.094.158-.21.091M74.59 143.443l-19.063-10.854c-.116-.067-.21-.214-.21-.33v-.004c0-.116.094-.156.21-.091l19.063 10.854c.115.066.21.214.21.33v.004c0 .117-.094.157-.21.091M74.59 144.505l-19.063-10.853c-.116-.067-.21-.215-.21-.331v-.004c0-.115.094-.156.21-.09L74.59 144.08c.115.067.21.215.21.33v.004c0 .116-.094.157-.21.091M71.81 143.987l-16.283-9.271c-.116-.067-.21-.214-.21-.33v-.004c0-.116.094-.156.21-.091l16.284 9.271c.115.067.21.215.21.331v.003c0 .117-.095.158-.21.091"/></g><g opacity=".68"><path d="M74.589 147.564 58.3 138.29c-.115-.066-.21-.214-.21-.33v-.004c0-.116.094-.156.21-.091l16.289 9.274c.116.067.21.215.21.331v.004c0 .116-.094.157-.21.09M74.59 148.63l-19.063-10.853c-.116-.067-.21-.215-.21-.331v-.004c0-.115.094-.156.21-.09l19.063 10.853c.115.067.21.215.21.33v.004c0 .116-.094.157-.21.091M74.59 149.695l-19.063-10.854c-.116-.067-.21-.214-.21-.33v-.004c0-.116.094-.156.21-.091L74.59 149.27c.115.066.21.214.21.33v.004c0 .117-.094.157-.21.091M74.59 150.755l-19.063-10.853c-.116-.067-.21-.215-.21-.331v-.004c0-.115.094-.156.21-.09L74.59 150.33c.115.067.21.215.21.33v.004c0 .117-.094.158-.21.091M71.81 150.237l-16.283-9.271c-.116-.067-.21-.214-.21-.33v-.004c0-.116.094-.156.21-.091l16.284 9.271c.115.067.21.215.21.331v.003c0 .116-.095.157-.21.091"/></g></g><path fill="#155284" d="M76.569 121.855v1.627L32.645 98.705V96.16c0-.556.463-.903.902-.903.163 0 .302.023.464.116l40.59 23.127c1.203.694 1.968 1.968 1.968 3.356"/><path fill="url(#t)" d="M35.819 98.422c0 .28-.228.378-.51.219-.28-.16-.508-.518-.508-.799 0-.28.228-.378.509-.219.28.16.509.518.509.799"/><path fill="url(#u)" d="M37.303 99.268c0 .28-.228.378-.509.219-.281-.16-.509-.518-.509-.799 0-.28.228-.378.51-.219.28.16.508.518.508.799"/><path fill="#fff" d="M38.791 100.113c0 .281-.228.379-.509.219-.28-.16-.509-.517-.509-.798s.228-.379.51-.22c.28.161.508.518.508.799"/><path fill="#78C1F4" d="m149.305 125.201 33.671-19.236 31.466 17.777-34.468 19.237z"/><path fill="#1D7ECE" d="M214.444 123.742v24.821l-34.467 19.236V142.98zM149.305 125.201l30.669 17.778v24.82l-30.669-17.778zM162.832 125.201l19.683-11.246 18.394 9.786-20.148 11.245z"/><path fill="url(#v)" d="m171.855 102.938 10.356-5.916 9.678 5.916-10.6 5.916z"/><path fill="#FBD008" d="M191.885 102.938V114.4l-10.6 5.917v-11.463z"/><path fill="#FBD008" d="m171.855 102.938 9.434 5.916v11.463l-9.434-5.917z"/><path fill="#212226" d="M146.041 84.343c-6.065-7.459-18.406-12.58-32.682-12.58s-26.616 5.121-32.68 12.58h-4.007v10.409c0 12.697 16.425 22.989 36.687 22.989s36.688-10.292 36.688-22.99V84.344z"/><path fill="#C0C3D8" d="M146.041 84.11c-6.065-7.46-18.406-12.58-32.682-12.58s-26.616 5.12-32.68 12.58h-4.007v10.408c0 12.696 16.425 22.989 36.687 22.989s36.688-10.293 36.688-22.99V84.11z"/><path fill="#C0C3D8" d="M113.359 107.098c20.262 0 36.688-10.293 36.688-22.989s-16.426-22.988-36.688-22.988c-20.261 0-36.687 10.292-36.687 22.988s16.426 22.989 36.687 22.989"/><path fill="#969BBC" d="M113.359 106.905c-20.21 0-36.595-10.24-36.68-22.891 0 .032-.007.063-.007.096 0 12.697 16.425 22.989 36.687 22.989s36.688-10.292 36.688-22.989c0-.033-.008-.064-.008-.096-.085 12.65-16.47 22.891-36.68 22.891"/><path stroke="#ACACAC" stroke-miterlimit="10" stroke-width=".675" d="m55.441 172.102 28.87 16.978a6.63 6.63 0 0 0 6.64.044l42.75-24.378c1.687-.963 1.677-3.398-.018-4.347l-44.065-24.668c-1.326-.742-1.293-2.663.058-3.359l13.23-6.816c.855-.44.866-1.659.018-2.113l-17.976-9.638a1.025 1.025 0 0 1 .07-1.841l2.52-1.113v-10.378l25.82-18.385"/><path stroke="#ACACAC" stroke-miterlimit="10" stroke-width=".675" d="m142.84 108.197 11.49 5.856c1.368.697 1.416 2.634.084 3.398l-33.148 18.998c-1.192.683-1.206 2.396-.025 3.099l35.545 21.159a4.18 4.18 0 0 0 4.025.137l3.824-1.936M149.535 80.287l6.638-3.614a3.43 3.43 0 0 1 3.385.06l15.065 8.915a3.93 3.93 0 0 0 3.921.045l4.846-2.718M61.957 168.247l22.591 13.226a4.74 4.74 0 0 0 4.745.024l29.675-16.962c1.668-.953 1.68-3.353.022-4.322l-19.745-11.547"/><path stroke="#ACACAC" stroke-miterlimit="10" stroke-width=".477" d="M97.588 149.398c1.194 0 2.162-.806 2.162-1.8 0-.993-.968-1.799-2.162-1.799s-2.162.806-2.162 1.799c0 .994.968 1.8 2.162 1.8ZM119.342 132.253c1.194 0 2.162-.805 2.162-1.799s-.968-1.8-2.162-1.8-2.162.806-2.162 1.8.968 1.799 2.162 1.799ZM63.666 108.015c1.194 0 2.162-.806 2.162-1.799 0-.994-.968-1.8-2.162-1.8s-2.162.806-2.162 1.8c0 .993.968 1.799 2.162 1.799ZM70.686 110.654c1.194 0 2.162-.806 2.162-1.8s-.968-1.799-2.162-1.799c-1.195 0-2.163.805-2.163 1.799s.968 1.8 2.163 1.8ZM67.994 82.088c1.194 0 2.162-.806 2.162-1.8s-.968-1.8-2.162-1.8-2.162.806-2.162 1.8.968 1.8 2.162 1.8ZM64.096 72.931c1.194 0 2.162-.805 2.162-1.8 0-.993-.968-1.799-2.162-1.799s-2.162.806-2.162 1.8c0 .993.968 1.8 2.162 1.8ZM109.1 140.166c1.194 0 2.162-.806 2.162-1.8s-.968-1.8-2.162-1.8c-1.195 0-2.162.806-2.162 1.8s.967 1.8 2.162 1.8ZM131.881 140.939c1.194 0 2.162-.806 2.162-1.8 0-.993-.968-1.799-2.162-1.799s-2.162.806-2.162 1.799c0 .994.968 1.8 2.162 1.8ZM161.482 84.017c1.194 0 2.162-.805 2.162-1.8 0-.993-.968-1.799-2.162-1.799s-2.162.806-2.162 1.8c0 .993.968 1.8 2.162 1.8ZM188.748 91.435c1.194 0 2.162-.806 2.162-1.8 0-.993-.968-1.8-2.162-1.8s-2.162.807-2.162 1.8c0 .994.968 1.8 2.162 1.8Z"/><path stroke="#ACACAC" stroke-miterlimit="10" stroke-width=".675" d="m121.158 129.389 19.005-10.324c1.048-.569 1.047-2.075-.001-2.644l-5.708-3.094v-10.391l-6.532-3.087a.825.825 0 0 1-.065-1.458l4.868-2.863a.813.813 0 0 0-.06-1.434l-8.984-4.316a.927.927 0 0 1-.085-1.624l2.296-1.413a.632.632 0 0 0-.107-1.129l-4.648-1.768M133.441 138.382l11.074-6.54a2.49 2.49 0 0 1 2.593.037l2.197 1.383"/><path stroke="#ACACAC" stroke-miterlimit="10" stroke-width=".675" d="m107.486 137.319-7.736-4.385 17.677-9.888-9.632-5.803v-9.572c0-.5.246-.969.658-1.253l14.065-9.686c.912-.629.751-2.022-.281-2.425l-9.335-3.65a.934.934 0 0 1-.191-1.64l7.092-4.906M147.504 102.939l18.071-10.56a1.178 1.178 0 0 0-.026-2.048l-8.774-4.83a.648.648 0 0 1 .006-1.139l2.74-1.387M39.848 79.37 64.094 93.02v11.629M71.083 107.098l-.395-14.623 5.984-3.571v-6.195l7.815-4.368a2.95 2.95 0 0 1 2.995.072l6.454 4.024a2.38 2.38 0 0 0 2.53-.006l6.067-3.826M54.61 71.133l12.793 7.474M88.713 67.08l-6.433-3.675a4.16 4.16 0 0 0-4.064-.036l-12.388 6.79M147.504 110.051l23.036-13.715a2.79 2.79 0 0 1 2.676-.097l1.605.805c.681.341 1.488.313 2.143-.075l10.259-6.078"/><path fill="#B5BAD5" d="M79.91 4.64 87.88.007l28.859 3.434-7.971 4.63z"/><path fill="#B6BAD5" d="m137.539 37.903-.078 27.22a34 34 0 0 1-.139 2.948l-.026.251a28 28 0 0 1-.43 2.859 24 24 0 0 1-.578 2.27c-.042.137-.089.269-.133.403q-.317.959-.708 1.84c-.054.123-.1.252-.156.372-.33.707-.691 1.38-1.09 2.005-.014.022-.031.04-.044.063a15 15 0 0 1-1.186 1.589c-.131.155-.269.3-.406.448q-.502.546-1.05 1.026c-.148.13-.293.263-.444.385-.513.412-1.044.797-1.61 1.126l7.97-4.631c.567-.33 1.097-.714 1.61-1.126.153-.122.297-.255.444-.385q.549-.482 1.051-1.028c.136-.148.274-.293.405-.448.422-.5.823-1.025 1.19-1.594q.02-.029.042-.058l.006-.01q.557-.873 1.022-1.852c.022-.047.04-.098.061-.144.056-.12.102-.25.156-.372.158-.356.318-.709.458-1.083.091-.246.168-.505.251-.758q.069-.198.132-.4c.033-.106.073-.205.104-.313q.198-.677.361-1.39c.042-.186.075-.38.114-.57l.065-.329c.028-.148.063-.292.089-.444q.112-.645.196-1.314c.032-.254.054-.515.08-.774l.026-.246c.008-.095.021-.186.029-.28q.051-.639.08-1.297.027-.64.03-1.296v-.078l.077-27.22z"/><path fill="#969BBC" d="m108.77 8.072 7.97-4.63 28.77 29.83-7.97 4.631z"/><path fill="url(#w)" d="m108.768 8.07 28.77 29.832-.077 27.22c-.032 11.407-5.429 18.815-14.098 19.392l-14.816.96-14.774-18.04c-8.637-10.567-13.974-24.17-13.94-35.576l.076-27.221z"/><path fill="url(#x)" d="M132.7 75.844c-1.998 3.758-5.263 5.97-9.494 6.249l-13.575.88L95.647 65.9c-8.27-10.157-13.403-23.193-13.381-34.037L82.33 7.38l1.654.193-.064 21.862c-.021 10.844 5.112 23.88 13.382 34.016l13.983 17.073 13.575-.88c3.201-.215 5.864-1.546 7.84-3.801"/><path fill="url(#y)" d="m135.165 38.885-.086 26.221c0 4.317-.816 7.925-2.298 10.717-.021 0-.021.02-.021.02-1.976 2.256-4.64 3.587-7.84 3.802l-13.575.88-13.983-17.073a59 59 0 0 1-4.618-6.507c-5.52-8.847-8.786-18.876-8.763-27.51l.064-21.86 23.628 2.812 26.462 27.424z"/><path fill="url(#z)" d="M101.624 56.78a36.6 36.6 0 0 1-8.1-.903c-5.31-8.662-8.338-18.272-8.317-26.437l.06-20.495 21.839 2.601 25.585 26.512c-5.407 11.401-17.507 18.722-31.067 18.722" opacity=".32"/><path stroke="#F1F1F2" stroke-miterlimit="10" stroke-width=".643" d="m109.126 50.55-.719-.412c-2.557-1.46-4.63-4.715-4.63-7.27V38.07l9.979 5.697v4.797c-.001 2.555-2.074 3.444-4.63 1.986Z"/><path stroke="#F1F1F2" stroke-miterlimit="10" stroke-width=".643" d="M108.764 33.652c-2.083-1.19-3.772-.464-3.772 1.618v3.495l7.545 4.307v-3.495c-.001-2.083-1.69-4.735-3.773-5.925Z"/><path stroke="#F1F1F2" stroke-miterlimit="10" stroke-width=".965" d="m106.543 42.256.958 2.862c.163.489.626.889.955.826l3.308-.628"/><path stroke="#F1F1F2" stroke-miterlimit="10" stroke-width=".643" d="M116.685 53.79c3.76-2.524 3.265-9.853-1.107-16.368-4.373-6.514-10.965-9.749-14.726-7.223-3.76 2.525-3.265 9.854 1.107 16.369 4.372 6.514 10.965 9.748 14.726 7.223Z"/><path fill="#fff" d="M108.767 8.072 79.91 4.639v.12l28.714 3.416 28.771 29.832-.078 27.22c-.016 5.74-1.405 10.451-3.875 13.802q-.016.026-.034.051c-.079.105-.163.201-.242.304-.266.356-.535.711-.825 1.035 3.249-3.37 5.101-8.646 5.119-15.293l.078-27.22z"/><path fill="#78C1F4" d="m7.918 42.854 33.67-19.237 31.467 17.777-34.467 19.238z"/><path fill="#1D7ECE" d="M73.054 41.395v24.82L38.585 85.452v-24.82z"/><path fill="#1D7ECE" d="m7.918 42.854 30.67 17.777v24.82L7.918 67.673zM21.445 42.853l19.683-11.246 18.394 9.786L39.374 52.64z"/><path fill="url(#A)" d="m30.473 20.592 10.355-5.916 9.678 5.916-10.6 5.916z"/><path fill="#FBD008" d="M50.502 20.592v11.462l-10.6 5.917V26.508z"/><path fill="#FBD008" d="m30.473 20.592 9.433 5.916v11.463l-9.433-5.916z"/></g><defs><linearGradient id="b" x1="189.461" x2="212.364" y1="18.929" y2="18.929" gradientUnits="userSpaceOnUse"><stop stop-color="#FBD008"/><stop offset="1" stop-color="#FFDF78"/></linearGradient><linearGradient id="c" x1="69.127" x2="44.435" y1="147.823" y2="100.619" gradientUnits="userSpaceOnUse"><stop stop-color="#3B3E5E"/><stop offset="1" stop-color="#626282"/></linearGradient><linearGradient id="d" x1="31.567" x2="77.627" y1="125.045" y2="125.045" gradientUnits="userSpaceOnUse"><stop stop-color="#3B3E5E"/><stop offset="1" stop-color="#626282"/></linearGradient><linearGradient id="e" x1="71.464" x2="44.783" y1="112.78" y2="132.099" gradientUnits="userSpaceOnUse"><stop stop-color="#1D7ECE"/><stop offset="1" stop-color="#185894"/></linearGradient><linearGradient id="f" x1="24.11" x2="69.191" y1="156.999" y2="156.937" gradientUnits="userSpaceOnUse"><stop stop-color="#3B3E5E"/><stop offset="1" stop-color="#626282"/></linearGradient><linearGradient id="g" x1="24.11" x2="69.191" y1="156.872" y2="156.81" gradientUnits="userSpaceOnUse"><stop stop-color="#CBCBD6"/><stop offset="1" stop-color="#F9FAF9"/></linearGradient><linearGradient id="h" x1="41.173" x2="33.453" y1="134.234" y2="172.95" gradientUnits="userSpaceOnUse"><stop stop-color="#CBCBD6"/><stop offset="1" stop-color="#F9FAF9"/></linearGradient><linearGradient id="i" x1="54.392" x2="79.247" y1="106.414" y2="149.663" gradientUnits="userSpaceOnUse"><stop stop-color="#3B3E5E"/><stop offset=".329" stop-color="#fff"/><stop offset="1" stop-color="#626282"/></linearGradient><linearGradient id="j" x1="18.032" x2="37.12" y1="157.013" y2="157.013" gradientUnits="userSpaceOnUse"><stop stop-color="#CBCBD6"/><stop offset="1" stop-color="#F9FAF9"/></linearGradient><linearGradient id="k" x1="32.525" x2="22.438" y1="157.982" y2="161.689" gradientUnits="userSpaceOnUse"><stop stop-color="#CBCBD6"/><stop offset="1" stop-color="#F9FAF9"/></linearGradient><linearGradient id="l" x1="37.776" x2="33.876" y1="107.805" y2="115.064" gradientUnits="userSpaceOnUse"><stop stop-color="#FBD008"/><stop offset="1" stop-color="#F88019"/></linearGradient><linearGradient id="m" x1="39.678" x2="35.778" y1="108.827" y2="116.086" gradientUnits="userSpaceOnUse"><stop stop-color="#FBD008"/><stop offset="1" stop-color="#F88019"/></linearGradient><linearGradient id="n" x1="41.577" x2="37.676" y1="109.847" y2="117.106" gradientUnits="userSpaceOnUse"><stop stop-color="#FBD008"/><stop offset="1" stop-color="#F88019"/></linearGradient><linearGradient id="o" x1="43.479" x2="39.579" y1="110.869" y2="118.128" gradientUnits="userSpaceOnUse"><stop stop-color="#FBD008"/><stop offset="1" stop-color="#F88019"/></linearGradient><linearGradient id="p" x1="45.377" x2="41.477" y1="111.89" y2="119.149" gradientUnits="userSpaceOnUse"><stop stop-color="#FBD008"/><stop offset="1" stop-color="#F88019"/></linearGradient><linearGradient id="q" x1="47.276" x2="43.376" y1="112.911" y2="120.17" gradientUnits="userSpaceOnUse"><stop stop-color="#FBD008"/><stop offset="1" stop-color="#F88019"/></linearGradient><linearGradient id="r" x1="49.174" x2="45.274" y1="113.932" y2="121.191" gradientUnits="userSpaceOnUse"><stop stop-color="#FBD008"/><stop offset="1" stop-color="#F88019"/></linearGradient><linearGradient id="s" x1="43.477" x2="39.574" y1="110.861" y2="118.126" gradientUnits="userSpaceOnUse"><stop stop-color="#FBD008"/><stop offset="1" stop-color="#F88019"/></linearGradient><linearGradient id="t" x1="34.801" x2="35.818" y1="97.843" y2="97.843" gradientUnits="userSpaceOnUse"><stop stop-color="#FBD008"/><stop offset="1" stop-color="#F88019"/></linearGradient><linearGradient id="u" x1="36.286" x2="37.303" y1="98.688" y2="98.688" gradientUnits="userSpaceOnUse"><stop stop-color="#1D7ECE"/><stop offset="1" stop-color="#185894"/></linearGradient><linearGradient id="v" x1="171.855" x2="191.889" y1="102.938" y2="102.938" gradientUnits="userSpaceOnUse"><stop stop-color="#FBD008"/><stop offset="1" stop-color="#FFDF78"/></linearGradient><linearGradient id="w" x1="78.622" x2="115.195" y1="91.448" y2="27.017" gradientUnits="userSpaceOnUse"><stop stop-color="#B5B9D0"/><stop offset="1" stop-color="#E6E7EF"/></linearGradient><linearGradient id="x" x1="134.893" x2="89.11" y1="40.217" y2="46.688" gradientUnits="userSpaceOnUse"><stop stop-color="#1D7ECE"/><stop offset="1" stop-color="#17538C"/></linearGradient><linearGradient id="y" x1="85.26" x2="124.675" y1="73.848" y2="19.095" gradientUnits="userSpaceOnUse"><stop stop-color="#1D7ECE"/><stop offset="1" stop-color="#4CA5ED"/></linearGradient><linearGradient id="z" x1="83.951" x2="115.549" y1="58.687" y2="14.791" gradientUnits="userSpaceOnUse"><stop stop-color="#fff"/><stop offset="1" stop-color="#3693DF"/></linearGradient><linearGradient id="A" x1="30.473" x2="50.506" y1="20.592" y2="20.592" gradientUnits="userSpaceOnUse"><stop stop-color="#FBD008"/><stop offset="1" stop-color="#FFDF78"/></linearGradient><clipPath id="a"><path fill="#fff" d="M0 0h238v190H0z"/></clipPath></defs></svg>