<svg width="535" height="535" viewBox="0 0 535 535" fill="none" xmlns="http://www.w3.org/2000/svg">
<path d="M136.997 62.334L240.172 98.8145L239.859 99.4279L138.208 63.4962L154.942 111.986L154.16 112.18L136.997 62.334Z" fill="#62818E"/>
<path d="M274.966 48.1637L328.255 17.9785L390.418 92.0695L389.753 92.4569L328.059 18.8825L275.435 48.7126L274.966 48.1637Z" fill="#62818E"/>
<path d="M306.255 197.043L305.863 196.484L93.7917 297.864L94.1834 298.422L306.255 197.043Z" fill="#62818E"/>
<path d="M93.9517 303.233C97.3531 303.233 100.09 300.973 100.09 298.164C100.09 295.356 97.314 293.096 93.9517 293.096C90.5503 293.096 87.8136 295.356 87.8136 298.164C87.8136 300.973 90.5503 303.233 93.9517 303.233Z" fill="#62818E"/>
<path d="M257.648 417.776C260.658 417.776 263.082 415.774 263.082 413.288C263.082 410.802 260.658 408.801 257.648 408.801C254.637 408.801 252.213 410.802 252.213 413.288C252.213 415.774 254.676 417.776 257.648 417.776Z" fill="#62818E"/>
<path d="M30.2249 392.337C33.7436 392.337 36.5586 389.98 36.5586 387.107C36.5586 384.201 33.7045 381.877 30.2249 381.877C26.7063 381.877 23.8913 384.234 23.8913 387.107C23.8913 389.98 26.7454 392.337 30.2249 392.337Z" fill="#62818E"/>
<path d="M337.055 467.913C339.479 467.913 341.473 466.299 341.473 464.265C341.473 462.264 339.518 460.617 337.055 460.617C334.631 460.617 332.637 462.231 332.637 464.265C332.637 466.299 334.631 467.913 337.055 467.913Z" fill="#62818E"/>
<path d="M128.395 347.434C130.428 347.434 132.109 346.078 132.109 344.367C132.109 342.688 130.467 341.332 128.395 341.332C126.362 341.332 124.681 342.688 124.681 344.367C124.72 346.078 126.362 347.434 128.395 347.434Z" fill="#62818E"/>
<path d="M454.967 113.024C458.33 113.024 461.066 110.764 461.066 107.987C461.066 105.211 458.33 102.951 454.967 102.951C451.605 102.951 448.868 105.211 448.868 107.987C448.868 110.764 451.605 113.024 454.967 113.024Z" fill="#62818E"/>
<path d="M274.308 52.7065C277.162 52.7065 279.469 50.8018 279.469 48.4451C279.469 46.0884 277.162 44.1836 274.308 44.1836C271.454 44.1836 269.147 46.0884 269.147 48.4451C269.147 50.8018 271.454 52.7065 274.308 52.7065Z" fill="#62818E"/>
<path d="M328.493 21.881C330.721 21.881 332.559 20.396 332.559 18.5235C332.559 16.6834 330.721 15.166 328.493 15.166C326.264 15.166 324.427 16.6511 324.427 18.5235C324.427 20.396 326.225 21.881 328.493 21.881Z" fill="#62818E"/>
<path d="M397.382 196.801C397.382 199.03 399.57 200.837 402.269 200.837C404.968 200.837 407.156 199.03 407.156 196.801C407.156 194.572 404.968 192.766 402.269 192.766C399.57 192.766 397.382 194.572 397.382 196.801Z" fill="#62818E"/>
<path d="M248.343 325.155C251.431 325.155 253.934 323.089 253.934 320.538C253.934 317.988 251.431 315.922 248.343 315.922C245.254 315.922 242.752 317.988 242.752 320.538C242.752 323.089 245.254 325.155 248.343 325.155Z" fill="#62818E"/>
<path d="M225.243 377.101C227.276 377.101 228.918 375.745 228.918 374.066C228.918 372.387 227.276 371.031 225.243 371.031C223.21 371.031 221.568 372.387 221.568 374.066C221.568 375.745 223.21 377.101 225.243 377.101Z" fill="#62818E"/>
<path d="M98.4452 467.076C100.986 467.076 103.059 465.365 103.059 463.267C103.059 461.168 100.986 459.457 98.4452 459.457C95.904 459.457 93.8318 461.168 93.8318 463.267C93.8318 465.365 95.904 467.076 98.4452 467.076Z" fill="#62818E"/>
<path d="M178.789 314.077C181.603 314.077 183.91 312.173 183.91 309.848C183.91 307.524 181.603 305.619 178.789 305.619C175.974 305.619 173.667 307.524 173.667 309.848C173.667 312.173 175.935 314.077 178.789 314.077Z" fill="#62818E"/>
<path d="M375.801 307.175C378.186 307.175 380.141 305.561 380.141 303.591C380.141 301.622 378.186 300.008 375.801 300.008C373.416 300.008 371.461 301.622 371.461 303.591C371.461 305.593 373.416 307.175 375.801 307.175Z" fill="#62818E"/>
<path d="M330.994 273.656C334.669 273.656 337.68 271.203 337.68 268.136C337.68 265.101 334.708 262.615 330.994 262.615C327.319 262.615 324.309 265.069 324.309 268.136C324.309 271.203 327.319 273.656 330.994 273.656Z" fill="#62818E"/>
<path d="M439.805 365.709C442.307 365.709 444.34 364.03 444.34 361.964C444.34 359.898 442.307 358.219 439.805 358.219C437.302 358.219 435.269 359.898 435.269 361.964C435.269 364.03 437.302 365.709 439.805 365.709Z" fill="#62818E"/>
<path d="M293.153 227.889C294.991 227.889 296.477 226.662 296.477 225.145C296.477 223.627 294.991 222.4 293.153 222.4C291.316 222.4 289.83 223.627 289.83 225.145C289.869 226.662 291.355 227.889 293.153 227.889Z" fill="#62818E"/>
<path d="M27.8034 239.959C31.1266 239.959 33.7852 237.731 33.7852 235.019C33.7852 232.308 31.0875 230.08 27.8034 230.08C24.5193 230.08 21.8217 232.308 21.8217 235.019C21.8217 237.731 24.5193 239.959 27.8034 239.959Z" fill="#62818E"/>
<path d="M220.627 243.182C224.029 243.182 226.805 240.89 226.805 238.081C226.805 235.273 224.029 232.98 220.627 232.98C217.226 232.98 214.45 235.273 214.45 238.081C214.45 240.89 217.226 243.182 220.627 243.182Z" fill="#62818E"/>
<path d="M124.249 209.992C127.494 209.992 130.152 207.797 130.152 205.117C130.152 202.438 127.494 200.242 124.249 200.242C121.004 200.242 118.345 202.438 118.345 205.117C118.345 207.829 121.004 209.992 124.249 209.992Z" fill="#62818E"/>
<path d="M104.938 182.982C107.127 182.982 108.926 181.497 108.926 179.689C108.926 177.849 107.127 176.397 104.938 176.397C102.749 176.397 100.95 177.882 100.95 179.689C100.95 181.497 102.709 182.982 104.938 182.982Z" fill="#62818E"/>
<path d="M378.148 384.783C381.08 384.783 383.465 382.814 383.465 380.36C383.465 377.939 381.08 375.938 378.148 375.938C375.216 375.938 372.792 377.907 372.792 380.36C372.831 382.814 375.216 384.783 378.148 384.783Z" fill="#62818E"/>
<path d="M529.136 320.664C532.381 320.664 535 318.501 535 315.821C535 313.142 532.381 310.979 529.136 310.979C525.891 310.979 523.271 313.142 523.271 315.821C523.271 318.501 525.93 320.664 529.136 320.664Z" fill="#62818E"/>
<path d="M392.415 418.164C394.292 418.164 395.855 416.905 395.855 415.323C395.855 413.774 394.331 412.482 392.415 412.482C390.538 412.482 388.975 413.742 388.975 415.323C389.014 416.873 390.538 418.164 392.415 418.164Z" fill="#62818E"/>
<path d="M334.16 363.922C336.74 363.922 338.812 362.211 338.812 360.08C338.812 357.949 336.74 356.238 334.16 356.238C331.58 356.238 329.508 357.949 329.508 360.08C329.508 362.211 331.58 363.922 334.16 363.922Z" fill="#62818E"/>
<path d="M409.542 464.421C412.787 464.421 415.445 462.258 415.445 459.578C415.445 456.898 412.826 454.703 409.542 454.703C406.297 454.703 403.638 456.866 403.638 459.578C403.638 462.225 406.258 464.421 409.542 464.421Z" fill="#62818E"/>
<path d="M307.265 512.233C310.314 512.233 312.777 510.199 312.777 507.681C312.777 505.163 310.314 503.129 307.265 503.129C304.215 503.129 301.752 505.163 301.752 507.681C301.752 510.199 304.215 512.233 307.265 512.233Z" fill="#62818E"/>
<path d="M483.509 196.825C483.509 199.499 486.135 201.668 489.374 201.668C492.613 201.668 495.238 199.499 495.238 196.825C495.238 194.151 492.613 191.982 489.374 191.982C486.135 191.982 483.509 194.151 483.509 196.825Z" fill="#62818E"/>
<path d="M454.779 228.721C454.779 230.415 456.442 231.788 458.493 231.788C460.544 231.788 462.207 230.415 462.207 228.721C462.207 227.027 460.544 225.654 458.493 225.654C456.442 225.654 454.779 227.027 454.779 228.721Z" fill="#62818E"/>
<path d="M273.875 92.1633C276.689 92.1633 278.957 90.2908 278.957 87.9664C278.957 85.642 276.689 83.7696 273.875 83.7696C271.06 83.7696 268.792 85.642 268.792 87.9664C268.792 90.2908 271.099 92.1633 273.875 92.1633Z" fill="#62818E"/>
<path d="M339.833 82.2885C341.553 82.2885 342.961 81.1262 342.961 79.7058C342.961 78.2853 341.553 77.1231 339.833 77.1231C338.113 77.1231 336.706 78.2853 336.706 79.7058C336.706 81.1585 338.113 82.2885 339.833 82.2885Z" fill="#62818E"/>
<path d="M375.724 158.286C377.327 158.286 378.617 157.22 378.617 155.897C378.617 154.573 377.327 153.508 375.724 153.508C374.121 153.508 372.831 154.573 372.831 155.897C372.831 157.22 374.121 158.286 375.724 158.286Z" fill="#62818E"/>
<path d="M154.554 116.314C157.369 116.314 159.676 114.409 159.676 112.085C159.676 109.76 157.369 107.855 154.554 107.855C151.739 107.855 149.433 109.76 149.433 112.085C149.433 114.441 151.739 116.314 154.554 116.314Z" fill="#62818E"/>
<path d="M137.703 66.4049C140.049 66.4049 141.926 64.8553 141.926 62.9183C141.926 60.9813 140.049 59.4317 137.703 59.4317C135.358 59.4317 133.481 60.9813 133.481 62.9183C133.481 64.8553 135.358 66.4049 137.703 66.4049Z" fill="#62818E"/>
<path d="M230.987 159.188C234.31 159.188 237.008 156.96 237.008 154.216C237.008 151.472 234.31 149.244 230.987 149.244C227.664 149.244 224.966 151.472 224.966 154.216C224.966 156.96 227.664 159.188 230.987 159.188Z" fill="#62818E"/>
<path d="M196.778 233.053C198.694 233.053 200.258 231.762 200.258 230.18C200.258 228.598 198.694 227.307 196.778 227.307C194.863 227.307 193.299 228.598 193.299 230.18C193.338 231.762 194.863 233.053 196.778 233.053Z" fill="#62818E"/>
<path d="M306.046 201.127C308.939 201.127 311.285 199.19 311.285 196.801C311.285 194.412 308.939 192.475 306.046 192.475C303.153 192.475 300.807 194.412 300.807 196.801C300.768 199.19 303.153 201.127 306.046 201.127Z" fill="#62818E"/>
<path d="M154.931 112.199L154.176 112.031L93.5807 298.092L94.3358 298.259L154.931 112.199Z" fill="#62818E"/>
<path d="M247.953 321.308L306.09 195.789L409.891 459.45L409.148 459.643L306.012 197.758L248.696 321.534L247.953 321.308Z" fill="#62818E"/>
<path d="M489.375 197.118L489.375 196.473L306.052 196.473L306.052 197.118L489.375 197.118Z" fill="#62818E"/>
<path d="M308.371 197.536L158.254 113.203L157.814 113.737L307.931 198.07L308.371 197.536Z" fill="#62818E"/>
<path d="M248.385 320.618L94.7617 298.27L94.6261 298.905L248.25 321.254L248.385 320.618Z" fill="#62818E"/>
<path d="M489.766 198.901L489.008 198.742L409.143 459.494L409.901 459.652L489.766 198.901Z" fill="#62818E"/>
<path d="M378.384 380.116L248.523 320.313L248.143 320.876L378.003 380.68L378.384 380.116Z" fill="#62818E"/>
<path d="M455.235 108.709L454.781 108.184L307.911 194.731L308.366 195.257L455.235 108.709Z" fill="#62818E"/>
<path d="M489.771 194.93L454.129 108.336L453.389 108.544L489.031 195.138L489.771 194.93Z" fill="#62818E"/>
<path d="M124.372 205.425L124.098 204.82L27.641 234.696L27.9156 235.301L124.372 205.425Z" fill="#62818E"/>
<path d="M94.3121 298.406L28.0469 235.012L27.455 235.434L93.7202 298.828L94.3121 298.406Z" fill="#62818E"/>
<path d="M27.8431 234.788L104.668 179.422L105.176 179.906L28.3514 235.273L27.8431 234.788Z" fill="#62818E"/>
<path d="M105.133 179.005L154.238 112.598L154.902 112.953L105.797 179.328L105.133 179.005Z" fill="#62818E"/>
<path d="M105.132 180.789L105.796 180.434L124.602 204.969L123.937 205.324L105.132 180.789Z" fill="#62818E"/>
<path d="M257.96 413.148L179.148 309.645L178.486 309.988L257.298 413.492L257.96 413.148Z" fill="#62818E"/>
<path d="M378.273 380.699L378.027 380.086L257.542 413.012L257.788 413.625L378.273 380.699Z" fill="#62818E"/>
<path d="M274.204 88.1348L273.516 87.8281L230.209 154.079L230.897 154.386L274.204 88.1348Z" fill="#62818E"/>
<path d="M376.238 155.51L274.035 87.8203L273.546 88.324L375.748 156.014L376.238 155.51Z" fill="#62818E"/>
<path d="M220.778 237.784L125.676 205.164L125.376 205.76L220.478 238.38L220.778 237.784Z" fill="#62818E"/>
<path d="M220.971 238.454L220.266 238.176L179.51 308.751L180.216 309.029L220.971 238.454Z" fill="#62818E"/>
<path d="M124.056 204.869L230.75 153.926L231.18 154.507L124.447 205.418L124.056 204.869Z" fill="#62818E"/>
<path d="M454.972 107.783L273.938 87.4922L273.832 88.132L454.867 108.423L454.972 107.783Z" fill="#62818E"/>
<path d="M93.5664 298.256L94.3483 298.063L107.133 337.449L107.133 337.481L98.8444 462.967L98.0624 462.935L106.312 337.513L93.5664 298.256Z" fill="#62818E"/>
<path d="M257.805 413.615L257.527 413.012L98.3273 462.963L98.605 463.566L257.805 413.615Z" fill="#62818E"/>
<path d="M248.677 320.944L247.941 320.727L224.844 373.937L225.58 374.155L248.677 320.944Z" fill="#62818E"/>
<path d="M458.861 228.849L458.145 228.59L377.79 380.267L378.506 380.526L458.861 228.849Z" fill="#62818E"/>
<path d="M458.582 228.33L306.527 196.559L306.336 197.185L458.39 228.956L458.582 228.33Z" fill="#62818E"/>
<path d="M455.322 108.555L454.621 108.27L401.927 196.593L402.629 196.878L455.322 108.555Z" fill="#62818E"/>
<path d="M458.403 228.98L458.129 228.375L330.617 267.82L330.891 268.425L458.403 228.98Z" fill="#62818E"/>
<path d="M334.514 360.076L331.34 268.137L330.558 268.155L333.733 360.094L334.514 360.076Z" fill="#62818E"/>
<path d="M106.585 337.77L106.858 337.156L225.398 373.766L225.125 374.379L106.585 337.77Z" fill="#62818E"/>
<path d="M405.36 457.565L257.738 413.113L257.47 413.72L405.093 458.172L405.36 457.565Z" fill="#62818E"/>
<path d="M529.484 315.65L458.621 228.555L457.972 228.915L528.835 316.01L529.484 315.65Z" fill="#62818E"/>
<path d="M529.39 316.394L528.875 315.908L391.821 415.071L392.336 415.556L529.39 316.394Z" fill="#62818E"/>
<path d="M292.682 225.113L293.346 224.758L331.113 267.986L330.449 268.341L292.682 225.113Z" fill="#62818E"/>
<path d="M196.505 229.846L230.597 153.883L231.34 154.109L197.248 230.072L196.505 229.846Z" fill="#62818E"/>
<path d="M179.056 309.874L178.555 309.379L128.187 344.14L128.688 344.636L179.056 309.874Z" fill="#62818E"/>
<path d="M257.729 413.167L128.73 343.945L128.304 344.487L257.303 413.709L257.729 413.167Z" fill="#62818E"/>
<path d="M306.432 194.969L300.73 105.766L299.95 105.8L305.651 195.003L306.432 194.969Z" fill="#62818E"/>
<path d="M257.3 413.422L258.043 413.164L307.617 507.594L306.874 507.852L257.3 413.422Z" fill="#62818E"/>
<path d="M409.695 459.813L409.305 459.254L308.228 507.418L308.619 507.977L409.695 459.813Z" fill="#62818E"/>
<path d="M274.695 87.9644L274.695 48.4492L273.913 48.4492L273.913 87.9644L274.695 87.9644Z" fill="#62818E"/>
<path d="M275.012 50.3574L275.403 49.8086L340.029 79.4127L455.09 108.145L454.855 108.759L339.716 80.0261L275.012 50.3574Z" fill="#62818E"/>
<path d="M274.633 48.5297L273.887 48.336L238.348 141.615L239.094 141.809L274.633 48.5297Z" fill="#62818E"/>
<path d="M256.011 96.9746L255.867 96.3399L155.868 111.754L156.011 112.389L256.011 96.9746Z" fill="#62818E"/>
<path d="M339.895 80.0173L339.777 79.3789L273.833 87.6348L273.95 88.2732L339.895 80.0173Z" fill="#62818E"/>
<path d="M306.915 507.749L336.706 464.102L337.41 464.424L307.58 508.072L306.915 507.749Z" fill="#62818E"/>
<path d="M405.187 459.874L405.121 459.23L336.981 463.957L337.046 464.6L405.187 459.874Z" fill="#62818E"/>
<path d="M336.39 463.019L277.891 419.113L277.365 419.591L335.864 463.497L336.39 463.019Z" fill="#62818E"/>
<path d="M529.333 316.065L528.922 315.516L439.274 361.349L439.686 361.898L529.333 316.065Z" fill="#62818E"/>
<path d="M98.407 463.267L98.5243 462.621L295.844 487.318L295.726 487.964L98.407 463.267Z" fill="#62818E"/>
<path d="M45.9543 252.209L45.1758 252.148L29.85 387.047L30.6285 387.107L45.9543 252.209Z" fill="#62818E"/>
<path d="M29.9129 387.298L30.5385 386.91L98.7617 462.744L98.1362 463.132L29.9129 387.298Z" fill="#62818E"/>
<path d="M94.2745 298.294L93.6016 297.965L29.8764 386.899L30.5494 387.228L94.2745 298.294Z" fill="#62818E"/>
<path d="M29.9524 386.881L102.398 326.543L102.945 326.995L30.4997 387.333L29.9524 386.881Z" fill="#62818E"/>
<path d="M330.486 268.394L331.033 267.91L376.189 303.81L378.535 379.902L377.753 379.902L375.407 304.1L330.486 268.394Z" fill="#62818E"/>
<path d="M375.524 303.723L446.406 250.777L446.953 251.262L376.071 304.207L375.524 303.723Z" fill="#62818E"/>
<path d="M437.958 284.835L225.984 183.273L225.592 183.832L437.566 285.393L437.958 284.835Z" fill="#00344A"/>
<path d="M437.803 294.067C431.743 294.067 426.817 290 426.817 284.996C426.817 279.992 431.743 275.924 437.803 275.924C443.863 275.924 448.789 279.992 448.789 284.996C448.789 290 443.863 294.067 437.803 294.067Z" fill="#00344A"/>
<path d="M279.541 403.476C276.023 403.476 273.208 401.119 273.208 398.246C273.208 395.34 276.062 393.016 279.541 393.016C283.021 393.016 285.875 395.372 285.875 398.246C285.875 401.119 283.021 403.476 279.541 403.476Z" fill="#00344A"/>
<path d="M425.058 509.689C422.204 509.689 419.897 507.784 419.897 505.427C419.897 503.071 422.204 501.166 425.058 501.166C427.912 501.166 430.219 503.071 430.219 505.427C430.219 507.784 427.912 509.689 425.058 509.689Z" fill="#00344A"/>
<path d="M488.864 352.531C488.864 355.419 491.7 357.761 495.198 357.761C498.696 357.761 501.531 355.419 501.531 352.531C501.531 349.642 498.696 347.301 495.198 347.301C491.7 347.301 488.864 349.642 488.864 352.531Z" fill="#00344A"/>
<path d="M194.707 454.753C192.283 454.753 190.289 453.139 190.289 451.105C190.289 449.103 192.244 447.457 194.707 447.457C197.131 447.457 199.125 449.071 199.125 451.105C199.125 453.139 197.17 454.753 194.707 454.753Z" fill="#00344A"/>
<path d="M403.36 334.26C401.327 334.26 399.685 332.904 399.685 331.225C399.685 329.546 401.327 328.158 403.36 328.158C405.393 328.158 407.074 329.514 407.074 331.225C407.035 332.904 405.393 334.26 403.36 334.26Z" fill="#00344A"/>
<path d="M111.39 108.088C106.19 108.088 101.929 104.602 101.929 100.276C101.929 95.9495 106.151 92.4629 111.39 92.4629C116.59 92.4629 120.852 95.9495 120.852 100.276C120.852 104.602 116.629 108.088 111.39 108.088Z" fill="#00344A"/>
<path d="M262.109 8.52291C259.255 8.52291 256.948 6.61817 256.948 4.26146C256.948 1.90476 259.255 2.30352e-05 262.109 2.31599e-05C264.963 2.32847e-05 267.27 1.90476 267.27 4.26146C267.27 6.61817 264.963 8.52291 262.109 8.52291Z" fill="#00344A"/>
<path d="M113.026 153.514C113.026 155.938 115.407 157.904 118.343 157.904C121.28 157.904 123.66 155.938 123.66 153.514C123.66 151.089 121.28 149.123 118.343 149.123C115.407 149.123 113.026 151.089 113.026 153.514Z" fill="#00344A"/>
<path d="M283.411 314.243C278.836 314.243 275.083 311.176 275.083 307.367C275.083 303.589 278.797 300.49 283.411 300.49C287.985 300.49 291.738 303.557 291.738 307.367C291.738 311.176 288.024 314.243 283.411 314.243Z" fill="#00344A"/>
<path d="M306.52 363.964C304.487 363.964 302.845 362.608 302.845 360.929C302.845 359.25 304.487 357.895 306.52 357.895C308.553 357.895 310.195 359.25 310.195 360.929C310.195 362.608 308.553 363.964 306.52 363.964Z" fill="#00344A"/>
<path d="M422.403 438.03C417.829 438.03 414.075 434.963 414.075 431.154C414.075 427.377 417.79 424.277 422.403 424.277C426.977 424.277 430.73 427.344 430.73 431.154C430.691 434.931 426.977 438.03 422.403 438.03Z" fill="#00344A"/>
<path d="M336.109 435.476C333.216 435.476 330.87 433.539 330.87 431.15C330.87 428.761 333.216 426.824 336.109 426.824C339.002 426.824 341.348 428.761 341.348 431.15C341.348 433.539 339.002 435.476 336.109 435.476Z" fill="#00344A"/>
<path d="M352.964 301.302C349.836 301.302 347.334 299.235 347.334 296.653C347.334 294.07 349.836 292.004 352.964 292.004C356.092 292.004 358.594 294.07 358.594 296.653C358.594 299.235 356.092 301.302 352.964 301.302Z" fill="#00344A"/>
<path d="M155.961 294.038C153.576 294.038 151.621 292.424 151.621 290.455C151.621 288.485 153.576 286.871 155.961 286.871C158.346 286.871 160.301 288.485 160.301 290.455C160.301 292.424 158.346 294.038 155.961 294.038Z" fill="#00344A"/>
<path d="M200.76 260.496C197.085 260.496 194.074 258.01 194.074 254.976C194.074 251.941 197.046 249.455 200.76 249.455C204.435 249.455 207.445 251.909 207.445 254.976C207.445 258.043 204.435 260.496 200.76 260.496Z" fill="#00344A"/>
<path d="M107.437 369.58C104.426 369.58 102.002 367.579 102.002 365.093C102.002 362.607 104.426 360.605 107.437 360.605C110.447 360.605 112.871 362.639 112.871 365.093C112.871 367.579 110.447 369.58 107.437 369.58Z" fill="#00344A"/>
<path d="M241.423 220.238C239.585 220.238 238.1 219.011 238.1 217.494C238.1 215.977 239.585 214.75 241.423 214.75C243.26 214.75 244.746 215.977 244.746 217.494C244.707 219.011 243.221 220.238 241.423 220.238Z" fill="#00344A"/>
<path d="M509.546 186.758C506.222 186.758 503.564 184.53 503.564 181.818C503.564 179.074 506.222 176.879 509.546 176.879C512.83 176.879 515.527 179.074 515.527 181.818C515.527 184.562 512.869 186.758 509.546 186.758Z" fill="#00344A"/>
<path d="M311.135 230.02C307.734 230.02 304.958 227.728 304.958 224.919C304.958 222.111 307.734 219.818 311.135 219.818C314.537 219.818 317.312 222.111 317.312 224.919C317.312 227.76 314.537 230.02 311.135 230.02Z" fill="#00344A"/>
<path d="M407.507 196.832C404.262 196.832 401.603 194.636 401.603 191.957C401.603 189.277 404.262 187.082 407.507 187.082C410.752 187.082 413.41 189.277 413.41 191.957C413.41 194.636 410.752 196.832 407.507 196.832Z" fill="#00344A"/>
<path d="M433.813 168.295C431.624 168.295 429.825 166.81 429.825 165.002C429.825 163.194 431.624 161.709 433.813 161.709C436.002 161.709 437.801 163.194 437.801 165.002C437.801 166.81 436.002 168.295 433.813 168.295Z" fill="#00344A"/>
<path d="M161.312 373.941C158.38 373.941 155.995 371.972 155.995 369.519C155.995 367.097 158.38 365.096 161.312 365.096C164.244 365.096 166.668 367.065 166.668 369.519C166.629 371.972 164.244 373.941 161.312 373.941Z" fill="#00344A"/>
<path d="M8.05351 360.644C4.80851 360.644 2.18905 358.481 2.18905 355.802C2.18905 353.122 4.80851 350.959 8.05351 350.959C11.2985 350.959 13.918 353.122 13.918 355.802C13.918 358.481 11.2985 360.644 8.05351 360.644Z" fill="#00344A"/>
<path d="M131.872 413.944C129.956 413.944 128.432 412.685 128.432 411.103C128.432 409.553 129.956 408.262 131.872 408.262C133.749 408.262 135.312 409.521 135.312 411.103C135.312 412.685 133.788 413.944 131.872 413.944Z" fill="#00344A"/>
<path d="M216.828 345.148C214.248 345.148 212.176 343.437 212.176 341.307C212.176 339.176 214.248 337.465 216.828 337.465C219.408 337.465 221.48 339.176 221.48 341.307C221.441 343.437 219.369 345.148 216.828 345.148Z" fill="#00344A"/>
<path d="M139.963 440.029C134.021 440.029 129.212 436.059 129.212 431.151C129.212 426.244 134.021 422.273 139.963 422.273C145.906 422.273 150.715 426.244 150.715 431.151C150.715 436.059 145.867 440.029 139.963 440.029Z" fill="#00344A"/>
<path d="M225.704 535C221.208 535 217.572 531.998 217.572 528.285C217.572 524.573 221.208 521.57 225.704 521.57C230.2 521.57 233.836 524.573 233.836 528.285C233.836 531.998 230.2 535 225.704 535Z" fill="#00344A"/>
<path d="M8.05553 164.19C3.59854 164.19 0.00168183 161.219 0.00168199 157.539C0.00168215 153.859 3.59854 150.889 8.05553 150.889C12.5125 150.889 16.1094 153.859 16.1094 157.539C16.1094 161.187 12.5125 164.19 8.05553 164.19Z" fill="#00344A"/>
<path d="M47.5476 244.642C45.5146 244.642 43.8334 243.286 43.8334 241.575C43.8334 239.896 45.4755 238.508 47.5476 238.508C49.5806 238.508 51.2617 239.864 51.2617 241.575C51.2617 243.286 49.5806 244.642 47.5476 244.642Z" fill="#00344A"/>
<path d="M257.886 79.0012C255.071 79.0012 252.804 77.1287 252.804 74.8043C252.804 72.4799 255.071 70.6074 257.886 70.6074C260.701 70.6074 262.969 72.4799 262.969 74.8043C262.969 77.1287 260.701 79.0012 257.886 79.0012Z" fill="#00344A"/>
<path d="M191.923 69.1517C190.203 69.1517 188.795 67.9895 188.795 66.569C188.795 65.1486 190.203 63.9864 191.923 63.9864C193.643 63.9864 195.051 65.1486 195.051 66.569C195.051 67.9895 193.643 69.1517 191.923 69.1517Z" fill="#00344A"/>
<path d="M162.918 142.049C160.768 142.049 159.009 140.596 159.009 138.82C159.009 137.045 160.768 135.592 162.918 135.592C165.069 135.592 166.828 137.045 166.828 138.82C166.828 140.596 165.069 142.049 162.918 142.049Z" fill="#00344A"/>
<path d="M401.602 75.3162C396.871 75.3162 393.001 72.1524 393.001 68.2137C393.001 64.3074 396.832 61.1114 401.602 61.1114C406.333 61.1114 410.203 64.2751 410.203 68.2137C410.203 72.1201 406.333 75.3162 401.602 75.3162Z" fill="#00344A"/>
<path d="M298.077 140.818C294.754 140.818 292.056 138.591 292.056 135.847C292.056 133.103 294.754 130.875 298.077 130.875C301.4 130.875 304.098 133.103 304.098 135.847C304.098 138.623 301.4 140.818 298.077 140.818Z" fill="#00344A"/>
<path d="M334.985 220.434C332.678 220.434 330.84 218.917 330.84 217.012C330.84 215.107 332.678 213.59 334.985 213.59C337.291 213.59 339.129 215.139 339.129 217.012C339.129 218.917 337.252 220.434 334.985 220.434Z" fill="#00344A"/>
<path d="M225.703 194.25C218.588 194.25 212.841 189.473 212.841 183.629C212.841 177.754 218.627 173.008 225.703 173.008C232.819 173.008 238.566 177.786 238.566 183.629C238.605 189.505 232.819 194.25 225.703 194.25Z" fill="#00344A"/>
<path d="M401.214 68.211L401.996 68.211L406.648 190.275L438.199 284.899L437.417 285.092L405.866 190.372L401.214 68.211Z" fill="#00344A"/>
<path d="M139.578 431.049L225.668 182.594L283.805 308.145L283.062 308.371L225.786 184.66L140.321 431.242L139.578 431.049Z" fill="#00344A"/>
<path d="M8.01819 157.196L118.426 153.16L118.465 153.192L225.863 183.313L225.59 183.926L118.309 153.838L8.05727 157.874L8.01819 157.196Z" fill="#00344A"/>
<path d="M398.386 69.8132L397.898 69.3086L223.375 184.358L223.863 184.863L398.386 69.8132Z" fill="#00344A"/>
<path d="M433.385 285.335L433.25 284.699L285.31 306.182L285.445 306.818L433.385 285.335Z" fill="#00344A"/>
<path d="M140.408 431.006L8.32031 159.426L7.59469 159.666L139.683 431.247L140.408 431.006Z" fill="#00344A"/>
<path d="M161.082 369.256L283.062 307.174L296.081 223.527L296.863 223.592L283.805 307.562L283.61 307.659L161.512 369.805L161.082 369.256Z" fill="#00344A"/>
<path d="M223.893 181.566L108.441 100.066L107.933 100.557L223.385 182.056L223.893 181.566Z" fill="#00344A"/>
<path d="M108.417 102.538L107.992 101.996L7.81825 155.47L8.24276 156.013L108.417 102.538Z" fill="#00344A"/>
<path d="M509.59 182.133L509.496 181.492L407.452 191.643L407.545 192.284L509.59 182.133Z" fill="#00344A"/>
<path d="M509.872 182.171L509.195 181.848L439.828 280.923L440.505 281.246L509.872 182.171Z" fill="#00344A"/>
<path d="M509.401 181.488L433.898 164.707L433.695 165.331L509.198 182.112L509.401 181.488Z" fill="#00344A"/>
<path d="M433.688 164.387L401.941 68.8047L401.187 68.9755L432.934 164.558L433.688 164.387Z" fill="#00344A"/>
<path d="M407.188 191.756L432.953 165.703L433.578 166.123L407.814 192.176L407.188 191.756Z" fill="#00344A"/>
<path d="M279.19 398.057L352.613 296.492L353.316 296.847L279.854 398.412L279.19 398.057Z" fill="#00344A"/>
<path d="M279.638 397.971L161.434 369.184L161.212 369.803L279.416 398.59L279.638 397.971Z" fill="#00344A"/>
<path d="M298.407 135.76L258.289 74.6563L257.602 74.964L297.719 136.067L298.407 135.76Z" fill="#00344A"/>
<path d="M162.53 138.561L257.613 74.543L258.121 75.0595L163 139.078L162.53 138.561Z" fill="#00344A"/>
<path d="M406.405 192.608L406.105 192.012L310.993 224.614L311.293 225.211L406.405 192.608Z" fill="#00344A"/>
<path d="M352.254 295.63L311.461 225.063L310.755 225.341L351.548 295.908L352.254 295.63Z" fill="#00344A"/>
<path d="M407.752 191.661L298.266 135.602L297.854 136.15L407.34 192.21L407.752 191.661Z" fill="#00344A"/>
<path d="M257.962 75.1349L257.797 74.5039L115.392 99.9879L115.558 100.619L257.962 75.1349Z" fill="#00344A"/>
<path d="M422.013 430.829L424.633 324.293L424.672 324.229L437.417 290.363L438.199 290.557L425.454 324.39L422.795 430.862L422.013 430.829Z" fill="#00344A"/>
<path d="M422.513 430.797L279.625 397.922L279.415 398.544L422.303 431.419L422.513 430.797Z" fill="#00344A"/>
<path d="M306.868 360.8L285.723 310.34L284.984 310.551L306.129 361.011L306.868 360.8Z" fill="#00344A"/>
<path d="M47.1938 241.77L47.8584 241.383L161.629 369.355L160.964 369.743L47.1938 241.77Z" fill="#00344A"/>
<path d="M47.3928 241.29L220.277 186.602L220.551 187.215L47.6665 241.903L47.3928 241.29Z" fill="#00344A"/>
<path d="M118.731 153.243L114.012 104.066L113.232 104.117L117.952 153.294L118.731 153.243Z" fill="#00344A"/>
<path d="M201.005 254.642L47.7891 241.258L47.7068 241.9L200.923 255.284L201.005 254.642Z" fill="#00344A"/>
<path d="M200.372 255.034L201.154 254.938L217.066 341.296L216.284 341.393L200.372 255.034Z" fill="#00344A"/>
<path d="M196.544 351.928L196.622 351.25L306.483 360.58L424.906 324.035L425.18 324.649L306.561 361.258L306.483 361.258L196.544 351.928Z" fill="#00344A"/>
<path d="M279.665 398.528L279.453 397.906L144.219 429.295L144.431 429.916L279.665 398.528Z" fill="#00344A"/>
<path d="M48.1227 241.698L47.3711 241.52L7.66168 355.714L8.41328 355.892L48.1227 241.698Z" fill="#00344A"/>
<path d="M7.8651 356.405L8.2561 355.824L131.918 410.836L131.566 411.384L7.8651 356.405Z" fill="#00344A"/>
<path d="M200.687 254.778L241.113 217.297L241.699 217.717L201.274 255.198L200.687 254.778Z" fill="#00344A"/>
<path d="M335.216 216.704L298.121 135.652L297.39 135.881L334.484 216.932L335.216 216.704Z" fill="#00344A"/>
<path d="M352.729 296.687L353.238 296.203L403.594 330.973L403.086 331.457L352.729 296.687Z" fill="#00344A"/>
<path d="M403.577 331.45L403.148 330.91L279.328 397.932L279.756 398.472L403.577 331.45Z" fill="#00344A"/>
<path d="M231.761 92.6356L230.98 92.6016L225.279 181.805L226.06 181.839L231.761 92.6356Z" fill="#00344A"/>
<path d="M225.355 528.196L279.152 398.125L279.895 398.351L226.098 528.389L225.355 528.196Z" fill="#00344A"/>
<path d="M139.618 431.337L140.282 430.949L224.848 528.091L224.183 528.478L139.618 431.337Z" fill="#00344A"/>
<path d="M262.496 4.26926L261.715 4.2344L257.096 74.7651L257.876 74.7999L262.496 4.26926Z" fill="#00344A"/>
<path d="M111.233 96.4691L191.693 66.2839L260.894 5.68752L261.441 6.13949L192.163 66.8327L192.084 66.865L111.546 97.0825L111.233 96.4691Z" fill="#00344A"/>
<path d="M261.714 4.32838L262.496 4.19924L290.137 123.197L289.394 123.326L261.714 4.32838Z" fill="#00344A"/>
<path d="M400.29 68.531L400.238 67.8867L278.955 74.5111L279.007 75.1554L400.29 68.531Z" fill="#00344A"/>
<path d="M257.905 74.4924L191.953 66.2696L191.836 66.908L257.788 75.1308L257.905 74.4924Z" fill="#00344A"/>
<path d="M224.622 524.49L195.34 450.914L194.597 451.116L223.879 524.692L224.622 524.49Z" fill="#00344A"/>
<path d="M194.921 450.798L144.492 430.863L144.155 431.446L194.583 451.38L194.921 450.798Z" fill="#00344A"/>
<path d="M259.289 403.191L258.766 402.711L195.382 449.851L195.905 450.331L259.289 403.191Z" fill="#00344A"/>
<path d="M108.133 364.613L8.11328 355.422L8.0268 356.064L108.047 365.254L108.133 364.613Z" fill="#00344A"/>
<path d="M246.504 477.255L335.995 430.831L336.113 430.831L422.398 430.508L422.398 431.186L336.23 431.476L246.934 477.836L246.504 477.255Z" fill="#00344A"/>
<path d="M495.58 352.462L461.555 250.965L460.801 251.137L494.827 352.634L495.58 352.462Z" fill="#00344A"/>
<path d="M422.093 430.636L494.89 352.348L495.516 352.735L422.718 431.055L422.093 430.636Z" fill="#00344A"/>
<path d="M495.49 352.351L438.152 284.805L437.512 285.175L494.85 352.722L495.49 352.351Z" fill="#00344A"/>
<path d="M495.354 352.364L429.344 313.313L428.888 313.837L494.898 352.889L495.354 352.364Z" fill="#00344A"/>
<path d="M155.562 290.682L155.679 290.553L200.718 254.75L201.266 255.234L156.344 290.94L160.684 366.355L159.902 366.387L155.562 290.682Z" fill="#00344A"/>
<path d="M156.096 290.462L61.5859 256.945L61.2774 257.539L155.788 291.055L156.096 290.462Z" fill="#00344A"/>
<path d="M311.193 224.797L241.449 217.281L241.348 217.922L311.092 225.437L311.193 224.797Z" fill="#00344A"/>
<path d="M263.359 469.174L263.555 468.529L424.632 505.009L420.84 431.144L402.973 331.969L403.755 331.84L421.622 431.112L425.492 505.881L424.945 505.752L263.359 469.174Z" fill="#00344A"/>
<path d="M425.375 505.244L351.547 430.898L350.942 431.308L424.77 505.653L425.375 505.244Z" fill="#00344A"/>
<path d="M406.611 192.252L369.5 88.6289L368.75 88.812L405.861 192.435L406.611 192.252Z" fill="#00344A"/>
<path d="M7.74361 157.741L8.36916 157.321L83.7861 229.443L117.995 153.383L118.738 153.609L84.0598 230.702L7.74361 157.741Z" fill="#00344A"/>
</svg>
