<svg width="120" height="30" viewBox="0 0 120 30" fill="none" xmlns="http://www.w3.org/2000/svg">
<path d="M42.2688 6.44546C44.6919 6.44546 46.8275 6.90715 48.6754 7.83054C50.5328 8.74451 51.9706 10.0354 52.9889 11.7031C54.0166 13.3709 54.5304 15.2931 54.5304 17.4696C54.5304 19.6462 54.0166 21.5684 52.9889 23.2361C51.9706 24.9039 50.5328 26.1995 48.6754 27.1228C46.8275 28.0368 44.6919 28.4938 42.2688 28.4938C40.1097 28.4938 38.1722 28.1216 36.4563 27.3773C34.7403 26.6329 33.3449 25.5823 32.2701 24.2255C31.1952 22.8686 30.5117 21.281 30.2194 19.4625H26.8959V26.429C26.8959 27.3352 26.1613 28.0698 25.2551 28.0698H22.1016V11.5618L26.8959 6.92101V15.2224H30.2618C30.5918 13.451 31.2942 11.9057 32.3691 10.5866C33.4533 9.26746 34.8393 8.24984 36.527 7.53374C38.2241 6.80822 40.138 6.44546 42.2688 6.44546ZM42.2688 24.1972C43.7774 24.1972 45.0879 23.924 46.2005 23.3775C47.313 22.831 48.1663 22.0536 48.7603 21.0454C49.3637 20.0278 49.6654 18.8359 49.6654 17.4696C49.6654 16.1034 49.3637 14.9162 48.7603 13.908C48.1663 12.8904 47.313 12.1083 46.2005 11.5618C45.0879 11.0059 43.7774 10.7279 42.2688 10.7279C40.7603 10.7279 39.4498 11.0059 38.3372 11.5618C37.2341 12.1083 36.3808 12.8904 35.7774 13.908C35.1834 14.9162 34.8864 16.1034 34.8864 17.4696C34.8864 18.8359 35.1834 20.0278 35.7774 21.0454C36.3808 22.0536 37.2341 22.831 38.3372 23.3775C39.4498 23.924 40.7603 24.1972 42.2688 24.1972Z" fill="#00344A"/>
<path d="M55.1949 6.86946H75.2205C76.1267 6.86946 76.8613 7.60409 76.8613 8.51029V11.1095H68.4323V23.6601L63.6239 28.0698V11.1095H56.8357C55.9295 11.1095 55.1949 10.3749 55.1949 9.4687V6.86946Z" fill="#00344A"/>
<path d="M101.747 9.25803C103.567 9.25803 105.155 9.57839 106.513 10.2191C107.871 10.8504 108.917 11.7455 109.653 12.9045C110.388 14.0634 110.756 15.4061 110.756 16.9326C110.756 18.459 110.388 19.8017 109.653 20.9606C108.917 22.1196 107.871 23.0194 106.513 23.6601C105.155 24.3008 103.567 24.6212 101.747 24.6212H96.2454V28.6775H93.0919C92.1857 28.6775 91.4511 27.9429 91.4511 27.0367V24.6212H85.9496C84.13 24.6212 82.5413 24.3008 81.1836 23.6601C79.8259 23.0194 78.7794 22.1196 78.044 20.9606C77.3086 19.8017 76.9408 18.459 76.9408 16.9326C76.9408 15.4061 77.3086 14.0634 78.044 12.9045C78.7794 11.7455 79.8259 10.8504 81.1836 10.2191C82.5413 9.57839 84.13 9.25803 85.9496 9.25803H91.4511L93.3501 8.07476L96.2454 6.26172V9.25803H101.747ZM91.4511 20.791V13.0882H86.1759C85.2802 13.0882 84.5024 13.2437 83.8424 13.5546C83.1824 13.8656 82.6733 14.3131 82.315 14.8973C81.9662 15.4721 81.7917 16.1505 81.7917 16.9326C81.7917 17.724 81.9662 18.4119 82.315 18.9961C82.6733 19.5708 83.1824 20.0137 83.8424 20.3246C84.5024 20.6355 85.2802 20.791 86.1759 20.791H91.4511ZM101.492 20.791C102.397 20.791 103.18 20.6355 103.84 20.3246C104.509 20.0137 105.019 19.5708 105.367 18.9961C105.726 18.4119 105.905 17.724 105.905 16.9326C105.905 16.1505 105.726 15.4721 105.367 14.8973C105.019 14.3131 104.509 13.8656 103.84 13.5546C103.18 13.2437 102.397 13.0882 101.492 13.0882H96.2454V20.791H101.492Z" fill="#00344A"/>
<path d="M117.207 23.9603C117.528 24.0205 117.813 24.1559 118.061 24.3666C118.307 24.5747 118.499 24.8406 118.637 25.1641C118.772 25.4851 118.84 25.8362 118.84 26.2174C118.84 26.6663 118.747 27.065 118.562 27.4136C118.376 27.7622 118.117 28.0343 117.786 28.2299C117.452 28.423 117.071 28.5195 116.642 28.5195C116.213 28.5195 115.833 28.423 115.501 28.2299C115.168 28.0343 114.908 27.7622 114.722 27.4136C114.537 27.065 114.444 26.6663 114.444 26.2174C114.444 25.8362 114.513 25.4851 114.651 25.1641C114.786 24.8406 114.978 24.5747 115.227 24.3666C115.473 24.1559 115.756 24.0205 116.077 23.9603L116.077 24.3967C115.826 24.4544 115.607 24.5685 115.419 24.739C115.23 24.907 115.085 25.1189 114.982 25.3747C114.879 25.628 114.828 25.9089 114.828 26.2174C114.828 26.596 114.903 26.9271 115.053 27.2105C115.202 27.4938 115.412 27.7133 115.686 27.8688C115.959 28.0217 116.278 28.0982 116.642 28.0982C117.006 28.0982 117.325 28.0217 117.598 27.8688C117.872 27.7133 118.084 27.4938 118.234 27.2105C118.382 26.9271 118.456 26.596 118.456 26.2174C118.456 25.9064 118.405 25.623 118.302 25.3672C118.199 25.1114 118.053 24.8995 117.865 24.7315C117.677 24.5635 117.458 24.4519 117.207 24.3967L117.207 23.9603Z" fill="#00344A"/>
<path d="M118.84 20.9024C118.84 21.3789 118.749 21.8015 118.565 22.1701C118.38 22.5388 118.12 22.8259 117.786 23.0315C117.452 23.2372 117.071 23.34 116.642 23.34C116.213 23.34 115.831 23.2372 115.498 23.0315C115.164 22.8259 114.905 22.5388 114.722 22.1701C114.537 21.8015 114.444 21.3789 114.444 20.9024C114.444 20.4259 114.537 20.0034 114.722 19.6347C114.905 19.2661 115.164 18.9789 115.498 18.7733C115.831 18.5676 116.213 18.4648 116.642 18.4648C117.071 18.4648 117.452 18.5676 117.786 18.7733C118.12 18.9789 118.38 19.2661 118.565 19.6347C118.749 20.0034 118.84 20.4259 118.84 20.9024ZM118.456 20.9024C118.456 20.4987 118.382 20.1451 118.234 19.8416C118.084 19.5357 117.872 19.2999 117.598 19.1344C117.325 18.9689 117.006 18.8861 116.642 18.8861C116.278 18.8861 115.959 18.9689 115.686 19.1344C115.412 19.2999 115.202 19.5357 115.053 19.8416C114.903 20.1451 114.828 20.4987 114.828 20.9024C114.828 21.3062 114.903 21.661 115.053 21.967C115.202 22.2704 115.412 22.5049 115.686 22.6704C115.959 22.8359 116.278 22.9187 116.642 22.9187C117.006 22.9187 117.325 22.8359 117.598 22.6704C117.872 22.5049 118.084 22.2704 118.234 21.967C118.382 21.661 118.456 21.3062 118.456 20.9024Z" fill="#00344A"/>
<path d="M114.444 11.1044C114.444 10.7032 114.537 10.3458 114.722 10.0323C114.908 9.71636 115.168 9.47059 115.501 9.29504C115.833 9.11699 116.213 9.02796 116.642 9.02796C117.071 9.02796 117.452 9.11699 117.786 9.29504C118.117 9.47059 118.376 9.71636 118.562 10.0323C118.747 10.3458 118.84 10.7032 118.84 11.1044C118.84 11.5558 118.711 11.9621 118.452 12.3232C118.192 12.6844 117.831 12.9778 117.372 13.2035L119.992 13.2035L119.992 13.6097L117.372 13.6097C117.831 13.8354 118.192 14.1289 118.452 14.49C118.711 14.8511 118.84 15.2574 118.84 15.7088C118.84 16.11 118.747 16.4686 118.562 16.7846C118.376 17.0981 118.117 17.3439 117.786 17.5219C117.452 17.6975 117.071 17.7852 116.642 17.7852C116.213 17.7852 115.833 17.6975 115.501 17.5219C115.168 17.3439 114.908 17.0981 114.722 16.7846C114.537 16.4686 114.444 16.11 114.444 15.7088C114.444 15.2574 114.574 14.8511 114.835 14.49C115.094 14.1289 115.452 13.8354 115.912 13.6097L112.953 13.6097L112.953 13.2035L115.912 13.2035C115.452 12.9778 115.094 12.6844 114.835 12.3232C114.574 11.9621 114.444 11.5558 114.444 11.1044ZM118.456 15.7088C118.456 15.2373 118.296 14.8223 117.974 14.4636C117.651 14.1025 117.207 13.8078 116.642 13.5796C116.077 13.8078 115.634 14.1025 115.313 14.4636C114.99 14.8223 114.828 15.2373 114.828 15.7088C114.828 16.0323 114.904 16.3194 115.057 16.5702C115.21 16.821 115.425 17.0166 115.701 17.157C115.974 17.295 116.288 17.3639 116.642 17.3639C116.996 17.3639 117.311 17.295 117.587 17.157C117.86 17.0166 118.074 16.821 118.227 16.5702C118.38 16.3194 118.456 16.0323 118.456 15.7088ZM118.456 11.1044C118.456 10.7809 118.38 10.4938 118.227 10.243C118.074 9.99222 117.86 9.79786 117.587 9.65993C117.311 9.51949 116.996 9.44927 116.642 9.44927C116.288 9.44927 115.974 9.51949 115.701 9.65993C115.425 9.79786 115.21 9.99222 115.057 10.243C114.904 10.4938 114.828 10.7809 114.828 11.1044C114.828 11.5759 114.99 11.9922 115.313 12.3533C115.634 12.7119 116.077 13.0054 116.642 13.2336C117.207 13.0054 117.651 12.7119 117.974 12.3533C118.296 11.9922 118.456 11.5759 118.456 11.1044Z" fill="#00344A"/>
<path d="M114.534 8.82777L114.534 4.61465L114.903 4.61465L114.903 6.51808L118.75 6.51808L118.75 6.92434L114.903 6.92434L114.903 8.82777L114.534 8.82777Z" fill="#00344A"/>
<path d="M0.00114097 21.823V10.9936L5.08772 6.07107V21.823C5.1971 22.9169 6.30193 25.0719 9.84612 24.9406C13.3903 24.8093 14.3857 22.8075 14.4404 21.823L14.1123 8.04007C13.981 2.1331 19.4176 0.218785 22.1523 0H25.1047L28.3863 4.92249C26.5267 4.86779 24.5188 4.92249 22.1523 4.92249C19.6899 4.92249 19.2524 7.11026 19.3618 8.04006V14.9315V21.823C19.4712 24.4484 17.8534 29.7318 9.84612 29.8631C1.83887 29.9944 -0.0535533 24.5578 0.00114097 21.823Z" fill="url(#paint0_linear_339_15099)"/>
<path d="M0.00114084 21.7653V10.8622L5.08713 5.90625V21.7653C5.1965 22.8666 6.30119 25.0362 9.84497 24.904L5.25065 29.1667C1.07309 27.6244 -0.041004 23.8871 0.00114084 21.7653Z" fill="url(#paint1_linear_339_15099)"/>
<path d="M22.1518 4.92249C19.7853 4.92249 19.2506 7.11027 19.36 8.04007V13.2907L14.4399 19.854L14.1117 8.04007C13.9804 2.1331 19.4171 0.218785 22.1518 0H33.8851L28.8768 4.92249H22.1518Z" fill="url(#paint2_linear_339_15099)"/>
<defs>
<linearGradient id="paint0_linear_339_15099" x1="5.97114" y1="20.5507" x2="19.685" y2="1.59962" gradientUnits="userSpaceOnUse">
<stop stop-color="#01BEFF"/>
<stop offset="0.2679" stop-color="#04CDE7"/>
<stop offset="0.831" stop-color="#0BF3AA"/>
<stop offset="1" stop-color="#0DFF96"/>
</linearGradient>
<linearGradient id="paint1_linear_339_15099" x1="15.7501" y1="4.91506" x2="34.8237" y2="41.6502" gradientUnits="userSpaceOnUse">
<stop stop-color="#01BEFF"/>
<stop offset="0.2679" stop-color="#04CDE7"/>
<stop offset="0.831" stop-color="#0BF3AA"/>
<stop offset="1" stop-color="#0DFF96"/>
</linearGradient>
<linearGradient id="paint2_linear_339_15099" x1="18.2692" y1="13.6618" x2="27.2447" y2="0.663915" gradientUnits="userSpaceOnUse">
<stop stop-color="#01BEFF"/>
<stop offset="0.2679" stop-color="#04CDE7"/>
<stop offset="0.831" stop-color="#0BF3AA"/>
<stop offset="1" stop-color="#0DFF96"/>
</linearGradient>
</defs>
</svg>
