<svg width="160" height="41" viewBox="0 0 160 41" fill="none" xmlns="http://www.w3.org/2000/svg">
<path d="M56.3584 8.59654C59.5892 8.59654 62.4366 9.21214 64.9005 10.4433C67.3771 11.662 69.2942 13.3831 70.6518 15.6068C72.0221 17.8305 72.7072 20.3934 72.7072 23.2954C72.7072 26.1975 72.0221 28.7604 70.6518 30.9841C69.2942 33.2078 67.3771 34.9352 64.9005 36.1664C62.4366 37.385 59.5892 37.9943 56.3584 37.9943C53.4797 37.9943 50.8963 37.4981 48.6083 36.5056C46.3204 35.5131 44.4599 34.1123 43.0267 32.3032C41.5936 30.4941 40.6822 28.3772 40.2925 25.9526H35.8612V35.2302C35.8612 36.4446 34.8768 37.429 33.6624 37.429H29.4688V15.4183L35.8612 9.23061V20.2991H40.3491C40.7891 17.9373 41.7256 15.8769 43.1587 14.1181C44.6044 12.3592 46.4524 11.0024 48.7026 10.0476C50.9654 9.08023 53.5174 8.59654 56.3584 8.59654ZM56.3584 32.2655C58.3698 32.2655 60.1172 31.9012 61.6006 31.1725C63.084 30.4439 64.2217 29.4074 65.0137 28.0632C65.8182 26.7063 66.2205 25.1171 66.2205 23.2954C66.2205 21.4738 65.8182 19.8908 65.0137 18.5466C64.2217 17.1897 63.084 16.147 61.6006 15.4183C60.1172 14.6771 58.3698 14.3065 56.3584 14.3065C54.3471 14.3065 52.5997 14.6771 51.1163 15.4183C49.6455 16.147 48.5078 17.1897 47.7032 18.5466C46.9112 19.8908 46.5152 21.4738 46.5152 23.2954C46.5152 25.1171 46.9112 26.7063 47.7032 28.0632C48.5078 29.4074 49.6455 30.4439 51.1163 31.1725C52.5997 31.9012 54.3471 32.2655 56.3584 32.2655Z" fill="#00344A"/>
<path d="M73.5932 9.16189H100.283C101.497 9.16189 102.482 10.1463 102.482 11.3607V14.8153H91.2431V31.5494L84.8318 37.429V14.8153H75.792C74.5776 14.8153 73.5932 13.8309 73.5932 12.6165V9.16189Z" fill="#00344A"/>
<path d="M135.662 12.3466C138.089 12.3466 140.207 12.7738 142.017 13.6281C143.827 14.4698 145.223 15.6633 146.203 17.2086C147.184 18.7539 147.674 20.5441 147.674 22.5793C147.674 24.6146 147.184 26.4048 146.203 27.9501C145.223 29.4954 143.827 30.6951 142.017 31.5494C140.207 32.4037 138.089 32.8309 135.662 32.8309H128.327V38.2393H124.134C122.919 38.2393 121.935 37.2549 121.935 36.0406V32.8309H114.6C112.173 32.8309 110.055 32.4037 108.245 31.5494C106.435 30.6951 105.039 29.4954 104.059 27.9501C103.078 26.4048 102.588 24.6146 102.588 22.5793C102.588 20.5441 103.078 18.7539 104.059 17.2086C105.039 15.6633 106.435 14.4698 108.245 13.6281C110.055 12.7738 112.173 12.3466 114.6 12.3466H121.935L124.467 10.769L128.327 8.35156V12.3466H135.662ZM121.935 27.724V17.4536H114.901C113.707 17.4536 112.67 17.6609 111.79 18.0754C110.91 18.49 110.231 19.0868 109.753 19.8657C109.288 20.6321 109.056 21.5366 109.056 22.5793C109.056 23.6346 109.288 24.5518 109.753 25.3307C110.231 26.097 110.91 26.6875 111.79 27.1021C112.67 27.5167 113.707 27.724 114.901 27.724H121.935ZM135.323 27.724C136.53 27.724 137.573 27.5167 138.453 27.1021C139.346 26.6875 140.025 26.097 140.49 25.3307C140.968 24.5518 141.206 23.6346 141.206 22.5793C141.206 21.5366 140.968 20.6321 140.49 19.8657C140.025 19.0868 139.346 18.49 138.453 18.0754C137.573 17.6609 136.53 17.4536 135.323 17.4536H128.327V27.724H135.323Z" fill="#00344A"/>
<path d="M156.288 31.9484C156.717 32.0287 157.096 32.2092 157.428 32.4901C157.756 32.7676 158.012 33.1221 158.196 33.5534C158.376 33.9814 158.467 34.4495 158.467 34.9578C158.467 35.5563 158.343 36.088 158.095 36.5528C157.848 37.0175 157.503 37.3803 157.061 37.6411C156.616 37.8986 156.108 38.0273 155.536 38.0273C154.963 38.0273 154.457 37.8986 154.015 37.6411C153.57 37.3803 153.224 37.0175 152.976 36.5528C152.728 36.088 152.605 35.5563 152.605 34.9578C152.605 34.4495 152.697 33.9814 152.881 33.5534C153.061 33.1221 153.317 32.7676 153.649 32.4901C153.976 32.2092 154.355 32.0287 154.783 31.9484L154.783 32.5302C154.448 32.6071 154.155 32.7593 153.905 32.9866C153.654 33.2107 153.46 33.4932 153.322 33.8343C153.185 34.172 153.117 34.5465 153.117 34.9578C153.117 35.4627 153.217 35.9041 153.418 36.2819C153.615 36.6598 153.896 36.9523 154.261 37.1596C154.626 37.3636 155.05 37.4656 155.536 37.4656C156.021 37.4656 156.446 37.3636 156.81 37.1596C157.175 36.9523 157.458 36.6598 157.659 36.2819C157.856 35.9041 157.955 35.4627 157.955 34.9578C157.955 34.5432 157.886 34.1653 157.749 33.8243C157.612 33.4832 157.418 33.2006 157.167 32.9766C156.916 32.7526 156.623 32.6038 156.288 32.5302L156.288 31.9484Z" fill="#00344A"/>
<path d="M158.467 27.8712C158.467 28.5065 158.344 29.0699 158.1 29.5614C157.853 30.053 157.506 30.4358 157.061 30.71C156.616 30.9842 156.108 31.1213 155.536 31.1213C154.963 31.1213 154.455 30.9842 154.01 30.71C153.565 30.4358 153.22 30.053 152.976 29.5614C152.728 29.0699 152.605 28.5065 152.605 27.8712C152.605 27.2359 152.728 26.6724 152.976 26.1809C153.22 25.6894 153.565 25.3065 154.01 25.0323C154.455 24.7582 154.963 24.6211 155.536 24.6211C156.108 24.6211 156.616 24.7582 157.061 25.0323C157.506 25.3065 157.853 25.6894 158.1 26.1809C158.344 26.6724 158.467 27.2359 158.467 27.8712ZM157.955 27.8712C157.955 27.3328 157.856 26.8614 157.659 26.4568C157.458 26.0488 157.175 25.7345 156.81 25.5138C156.446 25.2932 156.021 25.1828 155.536 25.1828C155.05 25.1828 154.626 25.2932 154.261 25.5138C153.896 25.7345 153.615 26.0488 153.418 26.4568C153.217 26.8614 153.117 27.3328 153.117 27.8712C153.117 28.4095 153.217 28.8827 153.418 29.2906C153.615 29.6952 153.896 30.0078 154.261 30.2285C154.626 30.4492 155.05 30.5596 155.536 30.5596C156.021 30.5596 156.446 30.4492 156.81 30.2285C157.175 30.0078 157.458 29.6952 157.659 29.2906C157.856 28.8827 157.955 28.4095 157.955 27.8712Z" fill="#00344A"/>
<path d="M152.605 14.8072C152.605 14.2722 152.728 13.7957 152.976 13.3778C153.224 12.9564 153.57 12.6288 154.015 12.3947C154.457 12.1573 154.963 12.0386 155.536 12.0386C156.108 12.0386 156.616 12.1573 157.061 12.3947C157.503 12.6288 157.848 12.9564 158.095 13.3778C158.343 13.7957 158.467 14.2722 158.467 14.8072C158.467 15.4091 158.294 15.9508 157.95 16.4323C157.602 16.9138 157.122 17.305 156.509 17.6059L160.002 17.6059L160.002 18.1476L156.509 18.1476C157.122 18.4486 157.602 18.8398 157.95 19.3213C158.294 19.8028 158.467 20.3445 158.467 20.9463C158.467 21.4813 158.343 21.9595 158.095 22.3808C157.848 22.7988 157.503 23.1265 157.061 23.3639C156.616 23.5979 156.108 23.715 155.536 23.715C154.963 23.715 154.457 23.5979 154.015 23.3639C153.57 23.1265 153.224 22.7988 152.976 22.3808C152.728 21.9595 152.605 21.4813 152.605 20.9463C152.605 20.3445 152.779 19.8028 153.127 19.3213C153.471 18.8398 153.95 18.4486 154.562 18.1476L150.617 18.1476L150.617 17.6059L154.562 17.6059C153.95 17.305 153.471 16.9138 153.127 16.4323C152.779 15.9508 152.605 15.4091 152.605 14.8072ZM157.955 20.9463C157.955 20.3177 157.741 19.7643 157.312 19.2862C156.881 18.8047 156.288 18.4118 155.536 18.1075C154.783 18.4118 154.192 18.8047 153.764 19.2862C153.332 19.7643 153.117 20.3177 153.117 20.9463C153.117 21.3777 153.219 21.7605 153.423 22.0949C153.627 22.4293 153.913 22.6901 154.281 22.8773C154.646 23.0613 155.064 23.1532 155.536 23.1532C156.007 23.1532 156.427 23.0613 156.795 22.8773C157.16 22.6901 157.444 22.4293 157.649 22.0949C157.853 21.7605 157.955 21.3777 157.955 20.9463ZM157.955 14.8072C157.955 14.3759 157.853 13.993 157.649 13.6586C157.444 13.3243 157.16 13.0651 156.795 12.8812C156.427 12.694 156.007 12.6003 155.536 12.6003C155.064 12.6003 154.646 12.694 154.281 12.8812C153.913 13.0651 153.627 13.3243 153.423 13.6586C153.219 13.993 153.117 14.3759 153.117 14.8072C153.117 15.4358 153.332 15.9909 153.764 16.4724C154.192 16.9506 154.783 17.3418 155.536 17.6461C156.288 17.3418 156.881 16.9506 157.312 16.4724C157.741 15.9909 157.955 15.4358 157.955 14.8072Z" fill="#00344A"/>
<path d="M152.725 11.7717L152.725 6.15417L153.217 6.15417L153.217 8.69207L158.346 8.69207L158.346 9.23376L153.217 9.23376L153.217 11.7717L152.725 11.7717Z" fill="#00344A"/>
<path d="M0.00152894 29.2436V14.7317L6.81771 8.13543V29.2436C6.96429 30.7094 8.44479 33.5971 13.1941 33.4212C17.9435 33.2453 19.2774 30.5629 19.3507 29.2436L18.9109 10.774C18.735 2.85842 26.0203 0.293179 29.6849 0H33.6411L38.0386 6.5963C35.5467 6.52301 32.856 6.5963 29.6849 6.5963C26.3852 6.5963 25.7989 9.52798 25.9454 10.774V20.0088V29.2436C26.092 32.7616 23.9241 39.8417 13.1941 40.0176C2.46415 40.1935 -0.0717632 32.9082 0.00152894 29.2436Z" fill="url(#paint0_linear_107_12422)"/>
<path d="M0.00152877 29.1657V14.5552L6.81692 7.91406V29.1657C6.96349 30.6415 8.44381 33.5488 13.1926 33.3717L7.03605 39.0839C1.43797 37.0172 -0.0549467 32.009 0.00152877 29.1657Z" fill="url(#paint1_linear_107_12422)"/>
<path d="M29.6911 6.5963C26.52 6.5963 25.8035 9.528 25.9501 10.774V17.81L19.3569 26.6051L18.9172 10.774C18.7413 2.85842 26.0265 0.293179 29.6911 0H45.4142L38.703 6.5963H29.6911Z" fill="url(#paint2_linear_107_12422)"/>
<defs>
<linearGradient id="paint0_linear_107_12422" x1="8.00153" y1="27.5387" x2="26.3786" y2="2.14354" gradientUnits="userSpaceOnUse">
<stop stop-color="#01BEFF"/>
<stop offset="0.2679" stop-color="#04CDE7"/>
<stop offset="0.831" stop-color="#0BF3AA"/>
<stop offset="1" stop-color="#0DFF96"/>
</linearGradient>
<linearGradient id="paint1_linear_107_12422" x1="21.1057" y1="6.58584" x2="46.6649" y2="55.8122" gradientUnits="userSpaceOnUse">
<stop stop-color="#01BEFF"/>
<stop offset="0.2679" stop-color="#04CDE7"/>
<stop offset="0.831" stop-color="#0BF3AA"/>
<stop offset="1" stop-color="#0DFF96"/>
</linearGradient>
<linearGradient id="paint2_linear_107_12422" x1="24.4884" y1="18.3072" x2="36.5158" y2="0.889668" gradientUnits="userSpaceOnUse">
<stop stop-color="#01BEFF"/>
<stop offset="0.2679" stop-color="#04CDE7"/>
<stop offset="0.831" stop-color="#0BF3AA"/>
<stop offset="1" stop-color="#0DFF96"/>
</linearGradient>
</defs>
</svg>
