<svg width="1172" height="300" viewBox="0 0 1172 300" fill="none" xmlns="http://www.w3.org/2000/svg">
<path opacity="0.3" d="M1171.18 123.503L1170.92 122.8C1170.01 120.744 1168.13 119.162 1165.77 118.744C1165.71 118.741 1165.67 118.744 1165.61 118.741L1164.89 118.661C1163.91 118.625 1162.97 118.784 1162.11 119.116L1161.43 119.415C1160.27 120.023 1159.29 120.944 1158.62 122.089L1140.74 112.794L1139.85 112.331L1069.21 75.5753L1111.7 16.5156C1112.22 16.8487 1112.8 17.0749 1113.43 17.1848C1114.02 17.2787 1114.59 17.2689 1115.14 17.1711L1115.85 16.9988C1115.89 16.9767 1115.9 16.98 1115.93 16.958L1116.59 16.6685C1117.17 16.3474 1117.68 15.9184 1118.09 15.4238L1118.51 14.7999C1118.79 14.3072 1119 13.7542 1119.1 13.1666C1119.35 11.7359 1118.96 10.3588 1118.14 9.30682L1117.65 8.75047C1116.97 8.09589 1116.1 7.63536 1115.1 7.46071C1114.69 7.39574 1114.29 7.38102 1113.89 7.42011L1113.15 7.5205C1111.29 7.95808 1109.78 9.47669 1109.43 11.4828C1109.15 13.1268 1109.72 14.7192 1110.8 15.8161L1062.74 72.2142L999.434 39.2735C999.54 38.9969 999.636 38.7015 999.682 38.3869C1000.08 36.0887 998.536 33.9038 996.262 33.5028C993.965 33.1074 991.788 34.6508 991.395 36.9564C991.002 39.2543 992.541 41.4395 994.831 41.8471C994.937 41.8621 995.042 41.8772 995.147 41.8845L991.683 140.467L933.846 162.677L839.213 126.94C839.262 126.777 839.302 126.591 839.334 126.406C839.793 123.718 838.009 121.163 835.332 120.7C832.666 120.24 830.13 122.033 829.663 124.722C829.579 125.234 829.574 125.763 829.64 126.264L696.721 155.728L662.575 137.602C662.739 137.231 662.854 136.861 662.924 136.474C663.384 133.786 661.591 131.232 658.926 130.768C656.252 130.305 653.712 132.103 653.253 134.791C653.144 135.425 653.161 136.046 653.288 136.635L582.544 157.12L466.813 78.8598C467.089 78.3832 467.287 77.8427 467.385 77.2673C467.845 74.5792 466.056 72.0247 463.387 71.5614C460.721 71.1016 458.181 72.8952 457.722 75.5832C457.574 76.4192 457.646 77.2379 457.9 77.9723L334.179 129.789C333.613 128.582 332.486 127.663 331.093 127.411C329.879 127.206 328.713 127.531 327.816 128.231L327.264 128.741C327.068 128.951 326.908 129.174 326.764 129.418L205.589 68.6407L204.49 68.0814L167.462 49.5013L166.556 49.0435L123.75 27.5725C123.858 27.3152 123.936 27.0291 123.984 26.7493C124.381 24.4511 122.844 22.2501 120.555 21.8581C120.512 21.842 120.469 21.8415 120.427 21.8448L119.688 21.7978C117.879 21.858 116.282 23.0993 115.794 24.8719L115.655 25.6138C115.62 25.916 115.625 26.2305 115.66 26.5233L26.8236 45.2929C26.597 44.568 26.1885 43.8923 25.6118 43.3892L25.0192 42.9302C24.5762 42.6539 24.0765 42.4442 23.5169 42.3598C21.5877 42.0172 19.7399 43.0682 18.9729 44.7888L18.73 45.4922C18.6997 45.5996 18.6729 45.7028 18.6568 45.7935C18.2676 48.0949 19.8042 50.2959 22.0931 50.688C23.61 50.9501 25.0796 50.3565 26.0068 49.2533L102.855 103.934L9.75697 182.906C9.17605 182.349 8.43775 181.956 7.59039 181.801C5.3015 181.409 3.1209 182.952 2.73591 185.257C2.33878 187.555 3.86733 189.753 6.1639 190.145C8.45278 190.537 10.6251 188.986 11.0184 186.688C11.0568 186.487 11.069 186.295 11.0793 186.08L198.797 175.825C199.057 177.916 200.648 179.673 202.82 180.055C204.349 180.324 205.834 179.834 206.915 178.867L304.153 273.342C303.619 273.99 303.236 274.779 303.091 275.65C302.632 278.338 304.424 280.892 307.093 281.355C309.763 281.815 312.299 280.021 312.759 277.333C312.951 276.229 312.75 275.137 312.267 274.207L420.811 205.914C421.436 206.748 422.357 207.341 423.451 207.535C425.426 207.881 427.323 206.761 428.053 204.961L696.225 288.331C696.208 288.407 696.184 288.498 696.171 288.577C695.703 291.262 697.5 293.819 700.173 294.282C702.838 294.742 705.378 292.949 705.838 290.26C706.052 289.034 705.78 287.831 705.177 286.84L804.912 214.335C805.628 215.185 806.635 215.81 807.83 216.007C810.407 216.47 812.855 214.789 813.428 212.259L1036 246.076C1035.88 248.194 1037.35 250.139 1039.49 250.508C1041.78 250.9 1043.95 249.353 1044.34 247.055C1044.47 246.311 1044.39 245.574 1044.16 244.897L1043.84 244.222C1043.23 243.18 1042.19 242.398 1040.91 242.168C1039.79 241.984 1038.71 242.255 1037.85 242.836L993.792 188.03C993.918 187.911 994.028 187.786 994.138 187.66L994.579 187.062C994.913 186.538 995.144 185.929 995.26 185.278C995.375 184.577 995.341 183.891 995.178 183.235L1041.67 167.519L1042.44 167.268L1075.11 156.232L1075.83 155.993L1091.66 150.637L1093.05 150.162L1140.1 134.278L1140.99 133.986L1145.11 132.597L1145.81 132.352L1158.15 128.18C1159.01 130.352 1160.94 132.048 1163.41 132.473C1166.66 133.042 1169.76 131.22 1170.97 128.29L1171.21 127.587C1171.28 127.333 1171.35 127.079 1171.4 126.799C1171.6 125.655 1171.5 124.547 1171.18 123.503ZM993.594 180.669L1005.41 164.254L1032.7 157.688L1033.52 157.487L1070.03 148.717L1070.81 148.535L1075.83 147.329L1077.52 146.916L1137.45 132.518L1138.43 132.293L1144.64 130.795L1145.36 130.622L1156.6 127.92L1145.63 131.624L1144.92 131.866L1140.2 133.457L1139.3 133.761L1091.61 149.875L1090.23 150.337L1075.4 155.346L1074.67 155.597L1041.9 166.664L1041.12 166.931L994.937 182.527C994.641 181.803 994.182 181.178 993.594 180.669ZM1015.9 134.053C1015.92 133.892 1015.94 133.719 1015.94 133.556L1026.98 132.993L1024.86 135.943L1024.38 136.595L1020 142.694L1019.56 143.312L1004.97 163.58L998.635 165.119L1009.54 138.117C1009.76 138.194 1009.99 138.246 1010.21 138.275C1011.63 138.537 1013.02 138.124 1014.07 137.299L1014.62 136.786C1015.14 136.231 1015.54 135.551 1015.75 134.787L1015.9 134.053ZM930.371 182.291L944.809 190.763L816.8 209.584L930.371 182.291ZM814.1 209.473L912.378 171.725L929.447 181.749L814.1 209.473ZM931.422 182.041L962.955 174.455L985.721 183.055C985.668 183.219 985.624 183.401 985.588 183.587C985.519 183.993 985.511 184.386 985.538 184.773L945.986 190.589L931.422 182.041ZM964.231 174.156L990.722 167.782L990.313 179.503C988.441 179.548 986.757 180.676 985.98 182.362L964.231 174.156ZM991.447 167.604L997.414 166.168L991.932 179.737C991.706 179.673 991.489 179.613 991.261 179.564C991.182 179.551 991.105 179.546 991.031 179.536L991.447 167.604ZM998.291 165.959L1004.29 164.532L992.988 180.242C992.862 180.162 992.74 180.086 992.612 180.026L998.291 165.959ZM991.475 166.828L992.381 140.988L1006.61 135.524C1007.07 136.53 1007.86 137.343 1008.86 137.848L997.75 165.317L991.475 166.828ZM1036.77 243.901L947.012 191.189L985.638 185.519C986.063 187.403 987.572 188.949 989.586 189.293C990.911 189.519 992.194 189.205 993.214 188.499L1037.27 243.305C1037.08 243.484 1036.92 243.672 1036.77 243.901ZM813.532 210.82L945.842 191.367L1036.39 244.541C1036.27 244.796 1036.18 245.059 1036.12 245.348L813.545 211.531C813.557 211.289 813.553 211.04 813.532 210.82ZM704.389 285.856L770.528 204.728L803.768 210.668C803.656 211.766 803.922 212.849 804.467 213.74L704.74 286.248C704.629 286.109 704.511 285.982 704.389 285.856ZM613.99 175.916L729.341 176.395C729.481 178.294 730.706 179.971 732.489 180.659L727.895 196.348L613.978 176.014C613.983 175.982 613.992 175.951 613.99 175.916ZM733.204 180.864C733.275 180.874 733.334 180.892 733.397 180.899C735.494 181.271 737.505 180.227 738.502 178.477L776.395 196.355L770.222 203.924L728.621 196.49L733.204 180.864ZM777.089 196.67L804.067 209.404C803.996 209.577 803.944 209.756 803.896 209.939L771.072 204.064L777.089 196.67ZM702.73 284.815L728.418 197.209L769.693 204.576L703.811 285.384C703.483 285.153 703.124 284.959 702.73 284.815ZM612.47 179.099C613.122 178.477 613.613 177.68 613.853 176.743L727.677 197.077L702.022 284.614C701.954 284.588 701.899 284.569 701.828 284.559C700.508 284.332 699.227 284.666 698.203 285.373L612.47 179.099ZM697.592 285.879L579.466 180.354L604.33 176.611C604.755 178.495 606.27 180.029 608.278 180.385C609.599 180.612 610.877 180.294 611.904 179.575L697.632 285.845C697.614 285.854 697.603 285.867 697.592 285.879ZM480.684 195.245L578.508 180.507L697.102 286.431C696.923 286.663 696.771 286.904 696.64 287.156L480.684 195.245ZM469.716 190.572L560.382 164.314L577.788 179.852L479.383 194.682L469.716 190.572ZM477.972 194.882L429.66 202.164L468.581 190.894L477.972 194.882ZM428.302 204.086C428.354 203.759 428.367 203.436 428.35 203.114L479.273 195.449L694.07 286.875L428.264 204.252C428.276 204.205 428.287 204.146 428.302 204.086ZM425.725 199.451L432.912 175.704L467.504 190.423L428.077 201.845C427.661 200.773 426.823 199.894 425.725 199.451ZM421.049 200.529L387.159 174.583L397.831 160.774L432.224 175.408L425.013 199.246C424.969 199.23 424.925 199.214 424.871 199.211C423.404 198.949 421.981 199.492 421.049 200.529ZM311.21 272.843L386.702 175.175L420.603 201.109C420.317 201.567 420.106 202.085 420.011 202.644C419.851 203.575 420.02 204.495 420.413 205.28L311.863 273.585C311.675 273.308 311.459 273.064 311.21 272.843ZM201.571 170.723L192.794 155.111L197.207 154.368L197.936 154.249L243.309 146.626L244.073 146.504L325.962 132.767L250.168 158.816L249.459 159.058L208.156 173.252C207.522 171.773 206.18 170.63 204.487 170.339C203.856 170.229 203.223 170.248 202.627 170.38L201.92 170.591C201.802 170.624 201.687 170.683 201.571 170.723ZM115.29 72.5035L151.101 82.4141L163.344 104.202L116.574 96.6323C116.728 94.5283 115.291 92.6112 113.209 92.1951L115.29 72.5035ZM116.453 97.3612L163.804 105.041L191.624 154.542L178.402 156.765L104.068 103.874L109.434 99.3311C110.021 99.9189 110.787 100.329 111.663 100.494C113.845 100.863 115.919 99.4797 116.453 97.3612ZM152.109 82.6928L178.475 89.9963L179.313 90.23L221.167 101.813L222.123 102.073L323.704 130.191L228.388 114.74L227.488 114.601L184.376 107.615L183.562 107.489L164.28 104.358L152.109 82.6928ZM326.183 131.342C326.162 131.565 326.17 131.767 326.19 131.971L243.736 145.804L242.98 145.929L197.737 153.533L197 153.649L192.408 154.43L164.744 105.197L183.797 108.279L184.607 108.402L227.896 115.42L228.789 115.56L326.183 131.342ZM199.883 172.05L179.263 157.389L192.02 155.246L200.931 171.104C200.537 171.361 200.183 171.68 199.883 172.05ZM13.3783 185.212L170.311 158.881L171.559 158.67L178.217 157.561L199.449 172.675L199.117 173.331C198.984 173.664 198.879 174.003 198.818 174.361C198.78 174.613 198.76 174.852 198.756 175.097L13.3783 185.212ZM103.478 104.387L177.36 156.936L170.428 158.098L169.18 158.309L10.9274 184.875C10.7907 184.361 10.5564 183.886 10.2486 183.459L87.9452 117.555L88.5581 117.032L103.478 104.387ZM28.4865 50.1087L108.536 94.607C108.402 94.9208 108.295 95.2441 108.234 95.6028C108.038 96.7536 108.323 97.8784 108.942 98.7748L103.443 103.437L28.4865 50.1087ZM26.6503 48.2307C26.6833 48.1581 26.7193 48.0736 26.7484 48.0013L114.563 72.3077L112.47 92.0936C111.018 92.0675 109.678 92.7909 108.896 93.9644L26.6503 48.2307ZM114.648 71.5622L26.9476 47.2819C26.9541 47.2658 26.9491 47.2507 26.9555 47.2346C27.0244 46.8287 27.0313 46.4199 26.9849 46.023L115.825 27.257C116.266 28.7 117.458 29.8548 119.026 30.1712L114.648 71.5622ZM121.583 29.8813L150.586 81.5058L115.367 71.7547L119.771 30.2528C120.402 30.2655 121.026 30.1271 121.583 29.8813ZM326.434 130.097C326.425 130.125 326.418 130.141 326.409 130.169L221.675 101.186L220.722 100.911L179.069 89.3858L178.227 89.1486L151.597 81.7842L122.219 29.5163C122.7 29.1792 123.107 28.7468 123.423 28.2321L166.845 50.0241L167.751 50.478L205.04 69.1854L206.139 69.7447L326.434 130.097ZM329.585 135.742L308.27 271.584C307.5 271.532 306.755 271.656 306.081 271.931L305.411 272.267C305.144 272.42 304.896 272.611 304.665 272.824L207.428 178.348C207.961 177.696 208.334 176.924 208.488 176.025C208.611 175.327 208.576 174.622 208.397 173.964L326.549 133.359C327.105 134.544 328.203 135.477 329.585 135.742ZM386.118 174.719L310.625 272.387C310.14 272.067 309.58 271.828 308.978 271.688L330.298 135.81C331.533 135.826 332.679 135.304 333.477 134.433L386.118 174.719ZM333.934 133.841C333.975 133.772 334.019 133.691 334.052 133.622L397.123 160.476L386.574 174.127L333.934 133.841ZM459.267 80.0739L397.594 159.867L334.355 132.937C334.421 132.745 334.477 132.519 334.514 132.302C334.628 131.683 334.581 131.072 334.435 130.493L458.186 78.6654C458.463 79.192 458.829 79.6688 459.267 80.0739ZM460.775 81.0249L432.443 174.694L398.306 160.169L459.851 80.5296C460.134 80.7291 460.444 80.8915 460.775 81.0249ZM559.732 163.715L468.628 190.098L433.123 174.987L461.488 81.2334C461.574 81.2461 461.645 81.2716 461.724 81.2849C463.323 81.56 464.875 81.03 465.964 79.9686L559.732 163.715ZM581.614 157.391L560.572 163.474L466.922 79.8117L581.614 157.391ZM604.84 173.083C604.572 173.563 604.37 174.104 604.276 174.679C604.207 175.081 604.188 175.487 604.218 175.877L578.748 179.714L561.228 164.053L582.425 157.926L604.84 173.083ZM654.055 138.437L612.667 172.147C611.97 171.385 611.027 170.852 609.941 170.657C608.114 170.334 606.332 171.096 605.251 172.456L583.356 157.666L653.498 137.346C653.64 137.727 653.823 138.09 654.055 138.437ZM695.607 155.967L613.798 174.103C613.647 173.602 613.422 173.145 613.141 172.712L654.536 139.006C655.234 139.768 656.169 140.301 657.259 140.492C659.277 140.835 661.219 139.898 662.251 138.257L695.607 155.967ZM729.737 174.082C729.587 174.44 729.469 174.81 729.399 175.197C729.376 175.354 729.353 175.512 729.345 175.656L613.996 175.161C613.984 175.057 613.975 174.937 613.962 174.818L696.626 156.493L729.737 174.082ZM829.967 127.432L738.443 173.504C737.729 172.323 736.534 171.433 735.071 171.175C733.053 170.831 731.109 171.781 730.081 173.429L697.744 156.25L829.815 126.981C829.855 127.145 829.908 127.277 829.967 127.432ZM831.173 129.169L776.887 195.76L738.816 177.799C738.929 177.51 739.01 177.208 739.066 176.881C739.228 175.935 739.109 174.999 738.765 174.167L830.305 128.098C830.541 128.495 830.835 128.849 831.173 129.169ZM832.727 130.155L809.711 206.349C809.633 206.335 809.561 206.31 809.483 206.3C807.385 205.928 805.367 206.969 804.379 208.742L777.581 196.087L831.751 129.637C832.049 129.843 832.384 130.015 832.727 130.155ZM838.538 128.358L911.562 171.229L813.077 209.052C812.564 207.929 811.613 207.028 810.427 206.553L833.44 130.371C833.526 130.388 833.596 130.394 833.668 130.42C835.612 130.757 837.478 129.891 838.538 128.358ZM932.81 163.077L912.446 170.904L838.91 127.718C838.927 127.693 838.94 127.661 838.95 127.633L932.81 163.077ZM933.854 163.469L961.704 173.993L930.49 181.492L913.271 171.379L933.854 163.469ZM991.653 141.266L990.75 167.002L962.995 173.682L934.906 163.072L991.653 141.266ZM992.412 140.184L995.864 41.9488L1009.9 128.633C1008.05 129.08 1006.56 130.586 1006.21 132.592C1006.08 133.369 1006.14 134.13 1006.35 134.833L992.412 140.184ZM1062.24 72.7936L1057.46 78.4028L1056.96 78.9858L1038.5 100.655L1038 101.234L1013.95 129.462C1013.35 129.015 1012.65 128.7 1011.87 128.571C1011.45 128.499 1011.03 128.481 1010.63 128.521L996.581 41.7682C996.933 41.6783 997.27 41.5352 997.582 41.3669L998.191 40.942C998.428 40.76 998.635 40.5416 998.822 40.3092L1001.52 41.1941L1062.24 72.7936ZM1062.92 73.1408L1068.1 75.8376L1063.41 82.369L1062.97 82.971L1044.18 109.075L1043.72 109.733L1027.53 132.219L1015.91 132.804C1015.76 131.711 1015.27 130.708 1014.5 129.943L1038.42 101.885L1038.92 101.306L1057.59 79.3954L1058.07 78.8249L1062.92 73.1408ZM1068.54 75.2196L1063.42 72.5574L1108.68 19.4556L1068.54 75.2196ZM1158.28 122.745C1158.03 123.282 1157.87 123.835 1157.77 124.426C1157.7 124.813 1157.67 125.216 1157.67 125.593L1144.25 126.276L1143.49 126.317L1130.47 126.98L1129.22 127.046L1058.73 130.635L1057.86 130.688L1028.5 132.174L1044.17 110.378L1044.63 109.751L1063.59 83.3928L1064.03 82.7908L1068.77 76.1969L1140.11 113.302L1141 113.769L1158.28 122.745ZM1157.78 126.868L1145.19 129.893L1144.46 130.062L1137.59 131.725L1136.6 131.962L1075.81 146.565L1074.11 146.978L1070.35 147.875L1069.58 148.06L1032.94 156.868L1032.12 157.065L1006.07 163.315L1020.06 143.856L1020.52 143.257L1025.18 136.763L1025.66 136.095L1027.93 132.935L1058.34 131.393L1059.21 131.344L1130.26 127.723L1131.51 127.676L1143.68 127.04L1144.44 126.996L1157.71 126.325C1157.71 126.519 1157.74 126.692 1157.78 126.868Z" fill="#62818E"/>
<path d="M14.2102 110.723C14.2462 110.986 14.2961 111.23 14.3535 111.469L14.5524 112.137C15.586 114.93 18.5405 116.767 21.7626 116.381C24.2114 116.097 26.1905 114.597 27.1528 112.604L39.0499 117.05L39.7274 117.307L43.7061 118.791L44.5658 119.104L89.9373 136.028L91.2798 136.532L106.558 142.239L107.251 142.495L138.763 154.254L139.507 154.525L184.347 171.268C184.154 171.871 184.08 172.512 184.158 173.171C184.237 173.786 184.433 174.365 184.732 174.87L185.133 175.452C185.235 175.573 185.334 175.698 185.451 175.815L139.25 225.077C138.435 224.498 137.387 224.192 136.279 224.316C135.007 224.471 133.951 225.156 133.298 226.105L132.947 226.724C132.679 227.347 132.566 228.032 132.652 228.735C132.917 230.901 134.971 232.443 137.239 232.176C139.354 231.926 140.908 230.175 140.896 228.191L361.362 206.444C361.792 208.837 364.107 210.514 366.666 210.195C367.851 210.065 368.872 209.527 369.621 208.763L463.751 280.923C463.109 281.823 462.778 282.935 462.923 284.091C463.232 286.623 465.63 288.412 468.274 288.101C470.925 287.786 472.822 285.479 472.509 282.947C472.503 282.874 472.485 282.787 472.468 282.718L740.365 216.688C740.986 218.402 742.791 219.531 744.749 219.296C745.836 219.163 746.771 218.646 747.428 217.896L850.439 286.511C849.913 287.361 849.66 288.375 849.791 289.41C850.1 291.943 852.498 293.731 855.142 293.42C857.786 293.106 859.682 290.8 859.377 288.267C859.282 287.447 858.945 286.694 858.455 286.063L959.005 202.088C960.015 203.04 961.448 203.563 962.965 203.381C965.118 203.12 966.775 201.549 967.141 199.607L1151.02 217.496C1151.02 217.696 1151.02 217.877 1151.05 218.063C1151.31 220.23 1153.37 221.772 1155.64 221.505C1157.91 221.238 1159.53 219.253 1159.26 217.09C1159.01 214.923 1156.94 213.382 1154.68 213.648C1153.83 213.755 1153.09 214.094 1152.49 214.585L1065.22 136.674L1143.62 88.9833C1144.47 90.0546 1145.88 90.6752 1147.39 90.498C1149.66 90.2351 1151.28 88.2457 1151.02 86.0788C1151.01 85.9909 1150.99 85.893 1150.97 85.7914L1150.77 85.1235C1150.11 83.4796 1148.35 82.4167 1146.43 82.6519C1145.88 82.7064 1145.38 82.8826 1144.93 83.1211L1144.32 83.5233C1143.73 83.9688 1143.29 84.5796 1143.03 85.2466L1056.75 63.7767C1056.8 63.5032 1056.82 63.2095 1056.8 62.9264L1056.71 62.2283C1056.32 60.5518 1054.82 59.3209 1053.04 59.1833L1052.32 59.1959C1052.28 59.1915 1052.23 59.1912 1052.19 59.2018C1049.92 59.4648 1048.3 61.4542 1048.57 63.6205C1048.6 63.884 1048.66 64.1527 1048.75 64.4003L1005.56 82.57L1004.64 82.9557L967.275 98.677L966.167 99.1518L843.889 150.583C843.759 150.349 843.614 150.131 843.432 149.928L842.917 149.425C842.074 148.73 840.945 148.375 839.741 148.51C838.359 148.685 837.199 149.489 836.582 150.594L717.784 96.6992C718.075 96.0224 718.19 95.2634 718.086 94.4735C717.776 91.9412 715.379 90.1527 712.735 90.4635C710.083 90.7786 708.194 93.0844 708.5 95.617C708.565 96.1587 708.733 96.6702 708.977 97.1313L591.115 165.137L522.701 142.864C522.86 142.32 522.912 141.743 522.834 141.143C522.524 138.611 520.127 136.822 517.475 137.134C514.831 137.448 512.934 139.755 513.24 142.287C513.292 142.653 513.381 143.004 513.525 143.359L479.011 158.782L349.991 125.369C350.086 124.904 350.11 124.411 350.053 123.927C349.735 121.396 347.338 119.607 344.694 119.922C342.043 120.237 340.15 122.543 340.459 125.075C340.48 125.251 340.513 125.425 340.552 125.578L245.681 154.783L190.04 131.472L191.876 39.205C191.981 39.2005 192.085 39.196 192.192 39.1839C194.463 38.9023 196.092 36.931 195.827 34.7647C195.569 32.5977 193.508 31.0563 191.231 31.3235C188.971 31.6005 187.346 33.5715 187.612 35.7378C187.639 36.035 187.718 36.3132 187.808 36.5758L123.866 64.5525L79.6512 9.71365C80.7776 8.73492 81.4219 7.27678 81.2276 5.72555C80.9993 3.83709 79.5919 2.35144 77.7862 1.85761L77.0727 1.73255C76.6818 1.67824 76.283 1.67257 75.8765 1.71554C74.888 1.83371 74.0099 2.22769 73.3087 2.80731L72.7946 3.30576C71.9364 4.25237 71.4785 5.52225 71.6414 6.86905C71.7118 7.42509 71.8881 7.95066 72.1376 8.42247L72.517 9.02446C72.8873 9.50896 73.3687 9.92932 73.9161 10.2558L74.558 10.5528C74.5907 10.5761 74.5943 10.5721 74.6271 10.5954L75.315 10.789C75.8539 10.9056 76.4095 10.9396 76.9964 10.8787C77.6248 10.8036 78.2096 10.6173 78.7324 10.3288L117.336 67.3922L45.9853 98.61L45.0919 99.0052L27.0253 106.899C26.4293 105.8 25.5159 104.896 24.4081 104.278L23.7536 103.967C22.9221 103.618 22.0139 103.427 21.0503 103.418L20.3304 103.46C20.2725 103.46 20.2335 103.456 20.1794 103.457C17.8352 103.744 15.9019 105.137 14.9038 107.018L14.6098 107.662C14.2361 108.622 14.0767 109.654 14.2102 110.723ZM184.62 170.608L140.073 153.993L139.324 153.712L107.717 141.919L107.015 141.652L92.7092 136.316L91.3718 135.826L45.3742 118.66L44.5098 118.336L39.9579 116.643L39.2766 116.386L28.6906 112.439L39.5911 115.46L40.2868 115.653L46.3146 117.33L47.2664 117.584L105.378 133.69L107.023 134.152L111.884 135.5L112.638 135.703L148.043 145.513L148.842 145.735L175.304 153.077L186.04 168.937C185.434 169.388 184.948 169.95 184.62 170.608ZM166.704 125.093C166.873 125.818 167.225 126.474 167.712 127.012L168.227 127.515C169.211 128.336 170.556 128.777 171.965 128.596C172.188 128.579 172.418 128.542 172.637 128.477L181.914 154.187L175.77 152.467L162.512 132.885L162.114 132.288L158.132 126.397L157.696 125.766L155.768 122.914L166.586 123.927C166.579 124.083 166.588 124.245 166.596 124.396L166.704 125.093ZM358.192 203.781L233.429 180.531L248.063 173.254L358.192 203.781ZM249.002 172.788L266.305 164.179L360.854 203.801L249.002 172.788ZM232.283 180.317L193.738 173.133C193.783 172.771 193.797 172.404 193.752 172.023C193.731 171.848 193.694 171.677 193.651 171.521L216.476 164.492L247.052 172.975L232.283 180.317ZM193.429 170.855C192.754 169.246 191.162 168.114 189.323 167.993L189.544 157.021L215.235 164.15L193.429 170.855ZM188.62 167.996C188.543 168.002 188.47 168.004 188.393 168.014C188.168 168.05 187.951 168.097 187.727 168.147L183.062 155.224L188.844 156.829L188.62 167.996ZM187.037 168.375C186.909 168.426 186.787 168.495 186.657 168.56L176.387 153.383L182.208 154.985L187.037 168.375ZM182.774 154.412L173.319 128.254C174.33 127.823 175.147 127.102 175.656 126.179L189.339 131.915L188.857 156.1L182.774 154.412ZM139.796 225.533L185.997 176.271C186.961 176.975 188.206 177.328 189.517 177.173C191.513 176.943 193.077 175.564 193.594 173.824L231.244 180.831L140.259 226.11C140.129 225.891 139.976 225.707 139.796 225.533ZM361.292 205.744L140.826 227.491C140.782 227.218 140.704 226.969 140.597 226.726L232.383 181.049L361.337 205.083C361.307 205.288 361.294 205.518 361.292 205.744ZM464.211 280.377L370.088 208.213C370.671 207.406 370.991 206.405 370.938 205.375L403.908 201.297L464.575 280.03C464.456 280.14 464.329 280.249 464.211 280.377ZM559.242 181.392L446.244 195.349L442.565 180.486C444.354 179.921 445.648 178.412 445.885 176.642L559.238 181.299C559.229 181.333 559.239 181.362 559.242 181.392ZM445.522 195.454L404.256 200.56L398.591 193.216L436.771 178.185C437.66 179.866 439.576 180.932 441.66 180.676C441.721 180.671 441.782 180.655 441.851 180.65L445.522 195.454ZM403.416 200.648L370.853 204.683C370.817 204.513 370.773 204.342 370.713 204.177L397.896 193.474L403.416 200.648ZM465.172 279.61L404.742 201.187L445.683 196.132L466.264 279.126C465.87 279.242 465.509 279.41 465.172 279.61ZM470.682 279.847C469.718 279.143 468.475 278.775 467.165 278.93C467.096 278.935 467.035 278.951 466.971 278.971L446.418 196.041L559.33 182.079C559.519 182.962 559.953 183.73 560.566 184.343L470.682 279.847ZM471.221 280.311L561.093 184.808C562.062 185.526 563.3 185.88 564.61 185.725C566.602 185.48 568.17 184.116 568.688 182.376L592.917 186.971L471.254 280.342C471.246 280.335 471.233 280.325 471.221 280.311ZM472.124 281.581C472.009 281.343 471.875 281.109 471.71 280.882L593.852 187.159L689.177 205.264L472.124 281.581ZM690.486 204.791L594.596 186.58L612.523 172.831L700.205 201.38L690.486 204.791ZM701.295 201.731L738.936 213.985L691.859 205.042L701.295 201.731ZM740.196 215.999L474.661 281.438L690.55 205.514L740.174 214.93C740.139 215.228 740.14 215.531 740.171 215.839C740.18 215.897 740.188 215.956 740.196 215.999ZM740.508 213.754L702.382 201.339L737.15 189.117L742.948 211.623C741.844 211.991 740.973 212.772 740.508 213.754ZM743.8 211.438C743.746 211.439 743.701 211.454 743.659 211.464L737.842 188.87L772.41 176.72L782.161 190.094L747.486 212.838C746.626 211.83 745.255 211.258 743.8 211.438ZM850.87 285.938L747.854 217.309C748.281 216.592 748.497 215.744 748.39 214.865C748.322 214.339 748.148 213.846 747.89 213.405L782.573 190.671L851.549 285.271C851.297 285.468 851.07 285.686 850.87 285.938ZM964.355 194.561L963.672 194.333C963.092 194.183 962.473 194.136 961.845 194.211C960.166 194.409 958.787 195.415 958.084 196.77L918.262 181.68L917.577 181.423L844.494 153.731L924.215 170.192L924.962 170.341L969.134 179.47L969.845 179.614L974.141 180.504L964.691 194.704C964.587 194.661 964.474 194.599 964.355 194.561ZM1055.68 125.234C1053.61 125.532 1052.1 127.258 1052.14 129.232L1005.79 134.238L1018.97 114.425L1054.68 106.751L1055.68 125.234ZM1056.76 133.059C1057.63 132.943 1058.41 132.597 1059.01 132.073L1064.04 136.556L988.194 182.686L975.322 180.023L1005.28 135.002L1052.21 129.921C1052.63 131.923 1054.59 133.31 1056.76 133.059ZM1004.86 134.34L985.749 136.412L984.939 136.494L942.213 141.116L941.319 141.208L846.859 151.425L948.152 129.648L949.107 129.447L990.841 120.477L991.674 120.297L1017.97 114.64L1004.86 134.34ZM940.886 141.955L941.772 141.864L984.675 137.224L985.477 137.143L1004.36 135.107L974.565 179.883L970.095 178.952L969.377 178.812L925.333 169.705L924.595 169.557L844.324 152.983C844.352 152.793 844.372 152.607 844.363 152.397L940.886 141.955ZM965.304 195.088L974.9 180.666L987.32 183.231L966.282 196.017C966.006 195.658 965.68 195.343 965.304 195.088ZM967.23 198.909C967.239 198.679 967.23 198.455 967.207 198.22C967.166 197.883 967.083 197.561 966.969 197.241L966.68 196.613L988.345 183.432L994.829 184.763L996.044 185.019L1148.82 216.568L967.23 198.909ZM1078.58 149.543L1079.16 150.056L1151.99 215.075C1151.66 215.459 1151.41 215.896 1151.24 216.367L997.182 184.538L995.967 184.286L989.219 182.894L1064.6 137.062L1078.58 149.543ZM1064.68 136.173L1059.53 131.575C1060.18 130.762 1060.52 129.727 1060.39 128.644C1060.35 128.307 1060.26 128 1060.14 127.699L1141.15 89.6646L1064.68 136.173ZM1059.82 127.081C1059.11 125.951 1057.84 125.216 1056.41 125.177L1055.41 106.598L1142.97 87.7745C1142.99 87.8431 1143.02 87.9254 1143.05 87.9934L1059.82 127.081ZM1053.26 67.0242C1054.82 66.7984 1056.05 65.7745 1056.56 64.4453L1142.85 85.9146C1142.78 86.2821 1142.76 86.6676 1142.81 87.0479C1142.82 87.0623 1142.81 87.0773 1142.82 87.092L1055.36 105.899L1053.26 67.0242ZM1052.53 67.0708L1054.65 106.044L1019.53 113.594L1050.77 66.6397C1051.3 66.8974 1051.9 67.0569 1052.53 67.0708ZM965.58 100.147L966.688 99.6762L1004.32 83.8493L1005.23 83.4637L1049.05 65.0233C1049.33 65.5185 1049.71 65.9396 1050.16 66.2773L1018.52 113.817L991.969 119.52L991.129 119.705L949.593 128.63L948.643 128.845L844.203 151.29C844.194 151.261 844.193 151.25 844.183 151.221L965.58 100.147ZM843.893 154.255L957.815 197.427C957.607 198.034 957.53 198.691 957.616 199.349C957.721 200.198 958.046 200.937 958.535 201.567L857.985 285.542C857.772 285.334 857.536 285.142 857.281 284.988L856.643 284.643C855.994 284.354 855.271 284.207 854.51 284.219L840.788 156.346C842.159 156.164 843.286 155.341 843.893 154.255ZM837.03 154.959C837.765 155.807 838.867 156.349 840.08 156.386L853.804 284.293C853.202 284.399 852.641 284.595 852.148 284.873L783.172 190.273L837.03 154.959ZM782.76 189.692L773.121 176.468L836.512 154.169C836.541 154.237 836.581 154.315 836.618 154.382L782.76 189.692ZM717.477 97.3255L836.302 151.23C836.127 151.764 836.048 152.332 836.128 152.917C836.152 153.122 836.196 153.336 836.252 153.517L772.693 175.881L716.342 98.593C716.79 98.2365 717.174 97.8073 717.477 97.3255ZM715.739 98.995L771.974 176.133L737.666 188.193L714.805 99.4192C715.137 99.3082 715.451 99.169 715.739 98.995ZM709.764 98.2001C710.777 99.24 712.272 99.8063 713.858 99.6191C713.935 99.6131 714.006 99.589 714.091 99.5824L736.977 188.443L701.296 200.992L613.19 172.302L709.764 98.2001ZM708.833 98.0145L612.38 172.04L592.031 165.423L708.833 98.0145ZM591.201 165.891L611.701 172.555L593.659 186.414L568.836 181.699C568.889 181.337 568.891 180.956 568.845 180.575C568.78 180.034 568.613 179.522 568.376 179.061L591.201 165.891ZM522.473 143.514L590.305 165.607L568.008 178.458C567.019 177.139 565.31 176.345 563.495 176.569C562.414 176.702 561.46 177.157 560.736 177.838L521.867 144.511C522.112 144.192 522.311 143.863 522.473 143.514ZM513.828 143.974C514.755 145.553 516.609 146.516 518.613 146.285C519.694 146.152 520.64 145.697 521.368 145.016L560.245 178.342C559.947 178.732 559.701 179.15 559.524 179.611L480.114 159.043L513.828 143.974ZM479.082 159.497L559.325 180.277C559.303 180.389 559.292 180.497 559.272 180.595L445.92 175.952C445.918 175.816 445.906 175.669 445.891 175.522C445.843 175.157 445.746 174.806 445.619 174.465L479.082 159.497ZM349.798 126.024L477.996 159.216L445.315 173.835C444.395 172.252 442.536 171.278 440.532 171.509C439.076 171.69 437.857 172.466 437.093 173.538L349.625 126.436C349.692 126.298 349.748 126.175 349.798 126.024ZM349.255 127.045L436.738 174.142C436.357 174.903 436.188 175.77 436.297 176.663C436.336 176.97 436.401 177.253 436.496 177.53L398.139 192.627L348.348 128.007C348.697 127.724 349.005 127.408 349.255 127.045ZM347.761 128.419L397.45 192.907L370.448 203.544C369.569 201.843 367.645 200.779 365.561 201.035C365.485 201.041 365.413 201.061 365.336 201.071L346.771 128.858C347.114 128.743 347.45 128.598 347.761 128.419ZM345.832 129.069C345.904 129.048 345.973 129.043 346.061 129.032L364.618 201.234C363.426 201.623 362.445 202.424 361.883 203.451L267.134 163.752L341.156 126.923C342.115 128.407 343.901 129.298 345.832 129.069ZM340.789 126.228C340.799 126.257 340.805 126.286 340.822 126.31L266.283 163.408L246.691 155.195L340.789 126.228ZM265.449 163.817L247.993 172.505L217.726 164.114L245.649 155.513L265.449 163.817ZM244.634 155.094L216.473 163.765L189.561 156.296L190.039 132.211L244.634 155.094ZM175.951 125.55C176.194 124.903 176.294 124.193 176.202 123.461C175.974 121.573 174.579 120.097 172.796 119.598L191.186 39.2222L189.354 131.163L175.951 125.55ZM185.663 38.2663L188.361 37.5596C188.533 37.7825 188.728 38 188.95 38.1784L189.529 38.6022C189.828 38.7745 190.153 38.9227 190.493 39.0216L172.081 119.462C171.69 119.407 171.276 119.407 170.855 119.455C170.088 119.541 169.382 119.806 168.774 120.194L146.644 92.7543L146.182 92.192L129.193 71.1284L128.739 70.5618L124.339 65.1102L185.663 38.2663ZM128.106 70.9218L128.547 71.4746L145.721 92.7713L146.182 93.3336L168.191 120.609C167.402 121.292 166.858 122.206 166.659 123.22L155.269 122.158L140.56 100.432L140.139 99.7964L123.065 74.5757L122.668 73.9936L118.406 67.6814L123.641 65.3903L128.106 70.9218ZM81.544 13.2117L123.188 64.831L118.008 67.0919L81.544 13.2117ZM44.7789 99.9016L45.6797 99.5021L117.734 67.989L122.047 74.36L122.441 74.9424L139.668 100.41L140.087 101.016L154.326 122.074L125.555 119.387L124.709 119.298L55.6429 112.826L54.4235 112.711L41.6661 111.517L40.9219 111.447L27.7708 110.213C27.7898 109.861 27.7834 109.481 27.732 109.119C27.6616 108.563 27.532 108.041 27.3178 107.526L44.7789 99.9016ZM27.6931 110.903L40.6958 112.118L41.4323 112.19L53.3614 113.323L54.5834 113.423L124.191 119.948L125.053 120.032L154.844 122.816L156.904 125.873L157.341 126.518L161.577 132.792L161.985 133.369L174.7 152.175L149.44 145.178L148.642 144.956L113.114 135.104L112.367 134.896L108.727 133.893L107.082 133.43L48.137 117.095L47.1729 116.831L40.5123 114.974L39.8093 114.785L27.5966 111.402C27.6381 111.24 27.6758 111.078 27.6931 110.903Z" fill="#00344A"/>
</svg>
