<svg xmlns="http://www.w3.org/2000/svg" width="36" height="36" fill="none"><g fill="#fff" clip-path="url(#a)"><path d="M33.865 2.206A5.84 5.84 0 0 0 29.742.5H6.4a5.83 5.83 0 0 0-5.83 5.83v23.34a5.83 5.83 0 0 0 5.83 5.83h23.34a5.83 5.83 0 0 0 5.83-5.83V6.33a5.84 5.84 0 0 0-1.706-4.124ZM3.929 3.858A3.49 3.49 0 0 1 6.401 2.83h23.34a3.511 3.511 0 0 1 3.5 3.5v3.5H2.902v-3.5a3.51 3.51 0 0 1 1.028-2.472Zm28.285 28.284a3.511 3.511 0 0 1-2.472 1.028H6.4a3.51 3.51 0 0 1-3.5-3.5v-17.5h30.34v17.5a3.511 3.511 0 0 1-1.027 2.472Z"/><path d="M28.571 7.5a1.17 1.17 0 1 0 0-2.34 1.17 1.17 0 0 0 0 2.34ZM23.901 7.5a1.17 1.17 0 1 0 0-2.34 1.17 1.17 0 0 0 0 2.34ZM7.571 7.5h4.67a1.17 1.17 0 0 0 0-2.33h-4.67a1.17 1.17 0 1 0 0 2.33Zm2.33 7a3.5 3.5 0 1 0 3.5 3.5 3.511 3.511 0 0 0-3.5-3.5Zm0 4.67a1.17 1.17 0 1 1 0-2.34 1.17 1.17 0 0 1 0 2.34Zm18.67-2.34h-11.67a1.17 1.17 0 0 0 0 2.34h11.67a1.17 1.17 0 1 0 0-2.34Zm-18.67 7a3.5 3.5 0 1 0 3.5 3.5 3.511 3.511 0 0 0-3.5-3.5Zm0 4.67a1.17 1.17 0 1 1 0-2.34 1.17 1.17 0 0 1 0 2.34Zm18.67-2.33h-11.67a1.17 1.17 0 0 0 0 2.33h11.67a1.172 1.172 0 0 0 1.284-1.165 1.17 1.17 0 0 0-1.284-1.165Z"/></g><defs><clipPath id="a"><path fill="#fff" d="M.571.5h35v35h-35z"/></clipPath></defs></svg>