<svg width="497" height="497" viewBox="0 0 497 497" fill="none" xmlns="http://www.w3.org/2000/svg">
<path d="M468.823 179.238L468.717 179.398H468.796L468.531 179.663L449.985 273.484L482.666 264.697L482.427 265.068L437.789 335.447L438.374 336.005L437.63 335.713L437.204 336.377L437.364 335.607L380.53 312.165L315.54 409.968L315.726 410.287L315.407 410.18L315.328 410.313L315.221 410.127L264.632 390.774L215.158 446.79L215.212 447.348L214.972 447.003L214.547 447.48L214.786 446.764L179.687 396.428L158.856 415.596L172.567 386.234L150.381 354.509L150.274 354.536V354.376L150.221 354.27L150.274 354.217V343.12L159.707 347.261L206.497 312.802L108.267 317.103L47.767 396.694L61.9288 319.12L1.80078 321.749L2.25247 321.403L70.7501 270.803L70.7767 270.67L70.8829 270.697L119.32 235.122L119.134 234.963H119.559L211.518 184.574L210.429 184.362L211.97 184.336L212.209 184.203V184.336L468.345 179.371L468.823 179.238ZM295.666 201.22L465.103 179.822L213.591 184.681L295.347 201.22L295.373 201.114L295.427 201.167L295.639 200.902L295.666 201.22ZM326.593 230.529L466.857 179.955L295.878 201.565L326.593 230.529ZM374.26 275.475L467.733 180.008L326.885 230.795L374.26 275.475ZM449.639 273.564L468.052 180.406L396.685 287.847L449.639 273.564ZM396.18 287.979L467.229 181.017L374.499 275.714L389.405 289.785L396.18 287.979ZM295.187 201.539L212.209 184.76L209.818 246.378L250.284 258.033L295.187 201.539ZM209.472 246.272L211.864 184.84L120.303 234.989H170.016L169.963 234.883L170.308 234.989H170.627L170.574 235.069L209.472 246.272ZM326.221 230.662L295.639 201.831L294.151 242.237L326.221 230.662ZM280.282 247.228L295.028 202.282L250.842 257.821L280.282 247.228ZM293.806 242.343L295.267 202.654L280.68 247.069L293.806 242.343ZM374.021 275.714L326.514 230.901L294.151 242.582L292.929 275.581L350.799 299.448L374.021 275.714ZM169.936 235.334H120.091L149.902 261.723L169.936 235.334ZM149.69 262.015L119.612 235.388L71.3081 270.856L129.443 288.67L149.69 262.015ZM209.446 246.617L170.627 235.441L206.922 311.899L209.446 246.617ZM206.55 311.926L170.255 235.494L150.141 261.962L206.55 311.926ZM292.584 275.449L293.806 242.715L280.574 247.493L273.931 267.75L292.584 275.449ZM250.045 258.299L209.791 246.724L207.267 312.085L250.045 258.299ZM273.586 267.617L280.149 247.653L250.815 258.219L273.586 267.617ZM273.48 267.936L250.629 258.511L264.499 295.307L273.48 267.936ZM264.313 295.838L250.257 258.564L207.4 312.43H207.586L207.347 312.616L237.424 330.722L254.349 326.156L264.313 295.838ZM206.337 312.218L149.929 262.254L129.789 288.776L206.337 312.218ZM437.948 334.571L481.922 265.254L449.931 273.856L437.948 334.571ZM292.557 275.82L273.799 268.068L264.685 295.811L274.117 320.819L291.069 316.253L292.557 275.82ZM129.204 288.962L71.0689 271.148L62.3805 318.775L108.081 316.784L129.204 288.962ZM62.0085 318.775L70.6704 271.307L2.91672 321.35L62.0085 318.775ZM437.47 335.102L449.559 273.962L396.393 288.271L393.098 293.236L437.47 335.102ZM350.506 299.714L292.902 275.953L291.414 316.173L349.789 300.457L350.506 299.714ZM389.033 289.891L374.26 275.953L351.117 299.581L351.861 299.873L389.033 289.891ZM392.832 292.997L395.888 288.404L389.724 290.05L392.832 292.997ZM206.045 312.483L129.576 289.068L108.533 316.758L206.045 312.483ZM392.646 293.289L389.352 290.183L352.419 300.138L380.451 311.713L392.646 293.289ZM436.779 334.916L392.886 293.528L380.743 311.82L436.779 334.916ZM273.772 320.926L264.526 296.369L254.774 326.049L273.772 320.926ZM351.303 300.032L350.852 299.846L350.453 300.271L351.303 300.032ZM380.212 311.979L351.835 300.271L349.975 300.776L289.794 362.234L290.059 362.394L289.794 362.42L315.354 409.596L380.212 311.979ZM289.714 361.81L349.311 300.935L291.388 316.519L289.714 361.81ZM236.972 330.828L207.241 312.935L208.144 338.607L236.972 330.828ZM192.84 342.722L206.629 313.174L160.052 347.447L165.818 349.996L192.84 342.722ZM207.798 338.686L206.895 313.333L193.238 342.589L207.798 338.686ZM289.395 361.385L291.042 316.625L274.224 321.165L289.395 361.385ZM48.3781 395.313L107.815 317.103L62.3008 319.094L48.3781 395.313ZM289.183 361.836L273.878 321.244L254.615 326.421L250.603 338.633L289.183 361.836ZM250.337 338.447L254.243 326.527L237.849 330.934L250.337 338.447ZM250.231 338.792L237.398 331.067L208.17 338.952L209.233 369.031L241.224 366.27L250.231 338.792ZM288.997 362.128L250.55 338.978L241.622 366.217L288.997 362.128ZM208.861 368.925L207.798 339.031L193.052 342.987L185.719 358.73L208.861 368.925ZM185.426 358.597L192.654 343.12L166.349 350.208L185.426 358.597ZM159.361 347.527L150.593 343.677V353.978L159.361 347.527ZM165.286 350.129L159.733 347.686L151.284 353.925L165.286 350.129ZM185.267 358.916L165.791 350.341L150.699 354.403L172.699 385.862L185.267 358.916ZM208.728 369.243L185.586 359.049L172.939 386.181L179.741 395.897L208.728 369.243ZM264.552 390.269L289.103 362.473L241.463 366.588L237.132 379.783L264.552 390.269ZM289.687 363.137L289.475 362.606L264.898 390.429L314.982 409.596L289.687 362.925V363.137ZM236.813 379.65L241.091 366.615L209.818 369.323L236.813 379.65ZM236.707 379.969L209.233 369.456L215.105 445.755L236.707 379.969ZM214.786 446.02L208.888 369.562L179.926 396.19L214.786 446.02ZM264.313 390.561L237.026 380.128L215.424 445.914L264.313 390.561ZM179.475 396.163L172.753 386.579L159.893 414.163L179.475 396.163Z" fill="#E8E8E8"/>
<path d="M289.051 363.614C290.092 363.614 290.937 362.77 290.937 361.729C290.937 360.688 290.092 359.844 289.051 359.844C288.009 359.844 287.164 360.688 287.164 361.729C287.164 362.77 288.009 363.614 289.051 363.614Z" fill="#62818E"/>
<path d="M208.967 312.994C209.218 311.938 208.564 310.879 207.507 310.629C206.451 310.379 205.391 311.032 205.141 312.088C204.89 313.144 205.544 314.203 206.601 314.453C207.657 314.703 208.717 314.05 208.967 312.994Z" fill="#62818E"/>
<path d="M216.613 448.344C217.63 447.328 217.63 445.68 216.613 444.664C215.597 443.648 213.948 443.648 212.931 444.664C211.914 445.68 211.914 447.328 212.931 448.344C213.948 449.36 215.597 449.36 216.613 448.344Z" fill="#62818E"/>
<path d="M152.089 355.146C152.982 354.254 152.982 352.808 152.089 351.917C151.197 351.025 149.75 351.025 148.858 351.917C147.966 352.808 147.966 354.254 148.858 355.146C149.75 356.037 151.197 356.037 152.089 355.146Z" fill="#62818E"/>
<path d="M72.6642 271.146C72.6642 272.075 71.9203 272.818 70.9903 272.818C70.0604 272.818 69.3164 272.075 69.3164 271.146C69.3164 270.217 70.0604 269.473 70.9903 269.473C71.9203 269.447 72.6642 270.217 72.6642 271.146Z" fill="#62818E"/>
<path d="M5.52358 322.164C6.54044 321.148 6.54045 319.501 5.52359 318.485C4.50673 317.469 2.85806 317.469 1.84119 318.485C0.824331 319.501 0.82434 321.148 1.8412 322.164C2.85807 323.18 4.50671 323.18 5.52358 322.164Z" fill="#62818E"/>
<path d="M48.5918 396.349C49.3695 396.349 50 395.719 50 394.942C50 394.165 49.3695 393.535 48.5918 393.535C47.8141 393.535 47.1836 394.165 47.1836 394.942C47.1836 395.719 47.8141 396.349 48.5918 396.349Z" fill="#62818E"/>
<path d="M209.186 371.177C210.11 371.177 210.86 370.428 210.86 369.505C210.86 368.581 210.11 367.832 209.186 367.832C208.261 367.832 207.512 368.581 207.512 369.505C207.512 370.428 208.261 371.177 209.186 371.177Z" fill="#62818E"/>
<path d="M317.164 410.053C317.164 411.035 316.366 411.805 315.41 411.805C314.453 411.805 313.656 411.009 313.656 410.053C313.656 409.071 314.453 408.301 315.41 408.301C316.366 408.301 317.164 409.071 317.164 410.053Z" fill="#62818E"/>
<path d="M250.79 260.185C251.964 260.185 252.915 259.234 252.915 258.061C252.915 256.888 251.964 255.938 250.79 255.938C249.616 255.938 248.664 256.888 248.664 258.061C248.664 259.234 249.616 260.185 250.79 260.185Z" fill="#62818E"/>
<path d="M296.919 201.464C296.919 202.26 296.281 202.924 295.457 202.924C294.66 202.924 293.996 202.287 293.996 201.464C293.996 200.668 294.634 200.004 295.457 200.004C296.281 200.004 296.919 200.668 296.919 201.464Z" fill="#62818E"/>
<path d="M212.793 187.465C213.835 187.465 214.679 186.621 214.679 185.58C214.679 184.539 213.835 183.695 212.793 183.695C211.751 183.695 210.906 184.539 210.906 185.58C210.906 186.621 211.751 187.465 212.793 187.465Z" fill="#62818E"/>
<path d="M173.37 236.271C173.717 234.922 172.904 233.547 171.554 233.2C170.204 232.853 168.828 233.665 168.48 235.014C168.133 236.363 168.946 237.738 170.296 238.085C171.646 238.432 173.022 237.62 173.37 236.271Z" fill="#62818E"/>
<path d="M119.8 236.847C120.709 236.847 121.447 236.11 121.447 235.201C121.447 234.292 120.709 233.555 119.8 233.555C118.89 233.555 118.152 234.292 118.152 235.201C118.152 236.11 118.89 236.847 119.8 236.847Z" fill="#62818E"/>
<path d="M351.813 301.599C352.987 301.599 353.939 300.648 353.939 299.475C353.939 298.302 352.987 297.352 351.813 297.352C350.639 297.352 349.688 298.302 349.688 299.475C349.688 300.648 350.639 301.599 351.813 301.599Z" fill="#62818E"/>
<path d="M440.076 334.471C440.325 333.416 439.671 332.357 438.614 332.108C437.557 331.859 436.498 332.513 436.249 333.569C435.999 334.624 436.654 335.683 437.71 335.932C438.767 336.181 439.826 335.527 440.076 334.471Z" fill="#62818E"/>
<path d="M484.418 264.536C484.418 265.545 483.595 266.341 482.611 266.341C481.602 266.341 480.805 265.518 480.805 264.536C480.805 263.527 481.628 262.73 482.611 262.73C483.621 262.73 484.418 263.527 484.418 264.536Z" fill="#62818E"/>
<path d="M468.45 182.345C469.771 182.345 470.841 181.275 470.841 179.956C470.841 178.636 469.771 177.566 468.45 177.566C467.129 177.566 466.059 178.636 466.059 179.956C466.059 181.275 467.129 182.345 468.45 182.345Z" fill="#62818E"/>
<path d="M328.884 231.064C329.17 229.851 328.419 228.635 327.205 228.349C325.991 228.063 324.774 228.814 324.488 230.027C324.201 231.239 324.953 232.455 326.167 232.741C327.381 233.028 328.597 232.277 328.884 231.064Z" fill="#62818E"/>
<path d="M239.442 330.698C239.442 331.574 238.725 332.291 237.848 332.291C236.971 332.291 236.254 331.574 236.254 330.698C236.254 329.822 236.971 329.105 237.848 329.105C238.725 329.132 239.442 329.822 239.442 330.698Z" fill="#62818E"/>
<path d="M160.372 416.341C161.839 416.341 163.029 415.152 163.029 413.686C163.029 412.22 161.839 411.031 160.372 411.031C158.904 411.031 157.715 412.22 157.715 413.686C157.715 415.152 158.904 416.341 160.372 416.341Z" fill="#62818E"/>
<path d="M209.818 247.76C210.523 247.76 211.094 247.189 211.094 246.485C211.094 245.781 210.523 245.211 209.818 245.211C209.114 245.211 208.543 245.781 208.543 246.485C208.543 247.189 209.114 247.76 209.818 247.76Z" fill="#62818E"/>
<path d="M266.137 391.936C267.061 391.014 267.061 389.518 266.137 388.595C265.214 387.672 263.717 387.672 262.793 388.595C261.87 389.518 261.87 391.014 262.793 391.936C263.717 392.859 265.214 392.859 266.137 391.936Z" fill="#62818E"/>
<path d="M173.659 388.596C175.156 388.596 176.37 387.383 176.37 385.888C176.37 384.392 175.156 383.18 173.659 383.18C172.163 383.18 170.949 384.392 170.949 385.888C170.949 387.383 172.163 388.596 173.659 388.596Z" fill="#62818E"/>
<path d="M394.991 293.626C395.237 292.584 394.591 291.54 393.549 291.294C392.506 291.048 391.461 291.693 391.215 292.735C390.969 293.777 391.615 294.82 392.657 295.066C393.7 295.312 394.744 294.667 394.991 293.626Z" fill="#62818E"/>
<path d="M375.723 275.718C375.723 276.435 375.139 277.045 374.395 277.045C373.678 277.045 373.066 276.461 373.066 275.718C373.066 274.975 373.651 274.391 374.395 274.391C375.139 274.391 375.723 275.001 375.723 275.718Z" fill="#62818E"/>
<path d="M295.35 277.139C296.284 276.206 296.284 274.693 295.35 273.76C294.416 272.827 292.902 272.827 291.968 273.76C291.034 274.693 291.034 276.206 291.968 277.139C292.902 278.072 294.416 278.072 295.35 277.139Z" fill="#62818E"/>
<path d="M149.961 263.74C150.915 263.74 151.688 262.968 151.688 262.015C151.688 261.062 150.915 260.289 149.961 260.289C149.008 260.289 148.234 261.062 148.234 262.015C148.234 262.968 149.008 263.74 149.961 263.74Z" fill="#62818E"/>
<path d="M64.3527 319.106C64.5494 317.831 63.6743 316.638 62.398 316.441C61.1218 316.245 59.9278 317.119 59.7311 318.394C59.5344 319.669 60.4096 320.862 61.6858 321.059C62.962 321.255 64.156 320.381 64.3527 319.106Z" fill="#62818E"/>
<path d="M108.168 318.59C109.43 318.59 110.453 317.568 110.453 316.307C110.453 315.046 109.43 314.023 108.168 314.023C106.906 314.023 105.883 315.046 105.883 316.307C105.883 317.568 106.906 318.59 108.168 318.59Z" fill="#62818E"/>
<path d="M195.072 344.905C196.099 343.879 196.099 342.215 195.072 341.188C194.045 340.162 192.379 340.162 191.352 341.188C190.325 342.215 190.325 343.879 191.352 344.905C192.379 345.932 194.045 345.932 195.072 344.905Z" fill="#62818E"/>
<path d="M150.919 345.14C152.079 345.14 153.018 344.201 153.018 343.043C153.018 341.884 152.079 340.945 150.919 340.945C149.76 340.945 148.82 341.884 148.82 343.043C148.82 344.201 149.76 345.14 150.919 345.14Z" fill="#62818E"/>
<path d="M273.776 323.579C275.067 323.579 276.114 322.533 276.114 321.242C276.114 319.952 275.067 318.906 273.776 318.906C272.484 318.906 271.438 319.952 271.438 321.242C271.438 322.533 272.484 323.579 273.776 323.579Z" fill="#62818E"/>
<path d="M28.1868 318.935L28.293 318.776H28.2133L28.479 318.51L47.0249 224.689L14.3438 233.477L14.5829 233.105L59.2206 162.726L58.636 162.169L59.38 162.461L59.8051 161.797L59.6457 162.567L116.452 186.062L181.443 88.2586L181.257 87.94L181.576 88.0462L181.655 87.9135L181.762 88.0993L232.351 107.453L281.825 51.4363L281.771 50.8788L282.011 51.224L282.436 50.7461L282.197 51.4629L317.322 101.745L338.153 82.5773L324.443 111.94L346.629 143.665L346.735 143.638V143.797L346.788 143.903L346.735 143.957V155.054L337.303 150.912L290.513 185.372L388.743 181.071L449.243 101.48L435.081 179.053L495.209 176.425L494.757 176.77L426.259 227.371L426.233 227.504L426.127 227.477L377.689 263.051L377.875 263.211H377.45L285.491 313.599L286.581 313.811L285.04 313.838L284.8 313.971V313.838L28.665 318.802L28.1868 318.935ZM201.344 296.953L31.9066 318.351L283.419 313.493L201.663 296.953L201.636 297.06L201.583 297.006L201.37 297.272L201.344 296.953ZM170.416 267.644L30.1529 318.218L201.131 296.608L170.416 267.644ZM122.75 222.698L29.2761 318.165L170.124 267.379L122.75 222.698ZM47.3703 224.61L28.9573 317.767L100.324 210.327L47.3703 224.61ZM100.829 210.194L29.781 317.157L122.51 222.459L107.605 208.389L100.829 210.194ZM201.822 296.635L284.8 313.413L287.192 251.795L246.726 240.14L201.822 296.635ZM287.537 251.901L285.146 313.334L376.68 263.184H326.967L327.02 263.29L326.675 263.184H326.356L326.409 263.105L287.537 251.901ZM170.788 267.512L201.37 296.343L202.858 255.937L170.788 267.512ZM216.728 250.945L201.982 295.891L246.168 240.353L216.728 250.945ZM203.204 255.83L201.742 295.52L216.329 251.105L203.204 255.83ZM122.989 222.459L170.496 267.273L202.858 255.591L204.081 222.592L146.211 198.725L122.989 222.459ZM327.073 262.839H376.945L347.134 236.45L327.073 262.839ZM347.32 236.158L377.397 262.786L425.702 227.318L367.566 209.53L347.32 236.158ZM287.564 251.556L326.383 262.733L290.088 186.274L287.564 251.556ZM290.46 186.248L326.728 262.653L346.842 236.185L290.46 186.248ZM204.426 222.725L203.204 255.459L216.436 250.68L223.078 230.424L204.426 222.725ZM246.965 239.875L287.218 251.45L289.742 186.088L246.965 239.875ZM223.424 230.557L216.861 250.521L246.194 239.955L223.424 230.557ZM223.53 230.238L246.38 239.663L232.511 202.867L223.53 230.238ZM232.697 202.336L246.752 239.609L289.61 185.743H289.424L289.663 185.557L259.585 167.452L242.66 172.018L232.697 202.336ZM290.672 185.956L347.081 235.919L367.221 209.398L290.672 185.956ZM59.0612 163.602L15.0877 232.919L47.0781 224.318L59.0612 163.602ZM204.453 222.353L223.211 230.105L232.325 202.362L222.892 177.354L205.94 181.92L204.453 222.353ZM367.805 209.212L425.941 227.026L434.629 179.398L388.929 181.389L367.805 209.212ZM435.001 179.398L426.339 226.866L494.093 176.823L435.001 179.398ZM59.5394 163.071L47.45 224.212L100.617 209.902L103.911 204.938L59.5394 163.071ZM146.503 198.46L204.107 222.22L205.595 182L147.221 197.716L146.503 198.46ZM107.977 208.283L122.75 222.22L145.892 198.593L145.148 198.301L107.977 208.283ZM104.177 205.177L101.122 209.769L107.286 208.123L104.177 205.177ZM290.965 185.69L367.433 209.106L388.477 181.416L290.965 185.69ZM104.363 204.884L107.658 207.991L144.59 198.035L116.559 186.46L104.363 204.884ZM60.2303 163.257L104.124 204.646L116.267 186.354L60.2303 163.257ZM223.238 177.248L232.484 201.805L242.235 172.124L223.238 177.248ZM145.706 198.141L146.158 198.327L146.556 197.902L145.706 198.141ZM116.798 186.195L145.175 197.902L147.035 197.398L207.216 135.939L206.95 135.78L207.216 135.753L181.655 88.5772L116.798 186.195ZM207.296 136.364L147.699 197.239L205.622 181.655L207.296 136.364ZM260.037 167.345L289.769 185.239L288.866 159.567L260.037 167.345ZM304.17 155.452L290.38 185L336.957 150.726L331.192 148.178L304.17 155.452ZM289.211 159.487L290.114 184.841L303.771 155.585L289.211 159.487ZM207.614 136.789L205.967 181.549L222.786 177.009L207.614 136.789ZM448.631 102.86L389.194 181.071L434.709 179.08L448.631 102.86ZM207.827 136.337L223.131 176.929L242.395 171.752L246.407 159.54L207.827 136.337ZM246.672 159.726L242.767 171.646L259.16 167.239L246.672 159.726ZM246.779 159.381L259.612 167.107L288.839 159.222L287.776 129.143L255.786 131.904L246.779 159.381ZM208.013 136.045L246.46 159.195L255.387 131.957L208.013 136.045ZM288.148 129.249L289.211 159.142L303.957 155.186L311.291 139.443L288.148 129.249ZM311.583 139.576L304.356 155.054L330.66 147.965L311.583 139.576ZM337.648 150.647L346.416 154.496V144.195L337.648 150.647ZM331.723 148.045L337.276 150.487L345.726 144.249L331.723 148.045ZM311.742 139.258L331.218 147.833L346.31 143.771L324.31 112.311L311.742 139.258ZM288.281 128.93L311.424 139.125L324.071 111.993L317.269 102.276L288.281 128.93ZM232.457 107.904L207.907 135.7L255.547 131.585L259.878 118.391L232.457 107.904ZM207.322 135.036L207.535 135.567L232.112 107.745L182.027 88.5772L207.322 135.275V135.036ZM260.197 118.523L255.919 131.559L287.192 128.851L260.197 118.523ZM260.303 118.205L287.776 128.718L281.904 52.4186L260.303 118.205ZM282.223 52.1531L288.122 128.612L317.083 101.984L282.223 52.1531ZM232.697 107.612L259.984 118.046L281.585 52.2593L232.697 107.612ZM317.535 102.011L324.257 111.594L337.117 84.0109L317.535 102.011Z" fill="#B3B4B4"/>
<path d="M207.957 138.336C208.999 138.336 209.843 137.492 209.843 136.451C209.843 135.41 208.999 134.566 207.957 134.566C206.915 134.566 206.07 135.41 206.07 136.451C206.07 137.492 206.915 138.336 207.957 138.336Z" fill="#62818E"/>
<path d="M291.88 186.124C292.13 185.068 291.476 184.01 290.419 183.76C289.362 183.511 288.303 184.165 288.053 185.221C287.804 186.277 288.458 187.335 289.515 187.584C290.572 187.834 291.631 187.18 291.88 186.124Z" fill="#62818E"/>
<path d="M284.063 53.5194C285.08 52.5033 285.08 50.856 284.063 49.84C283.046 48.824 281.397 48.824 280.38 49.84C279.363 50.856 279.363 52.5033 280.38 53.5194C281.397 54.5354 283.046 54.5354 284.063 53.5194Z" fill="#62818E"/>
<path d="M348.144 146.267C349.036 145.375 349.036 143.93 348.144 143.038C347.252 142.146 345.805 142.146 344.913 143.038C344.02 143.93 344.02 145.375 344.913 146.267C345.805 147.158 347.252 147.158 348.144 146.267Z" fill="#62818E"/>
<path d="M427.719 227.032C427.719 227.961 426.975 228.704 426.045 228.704C425.115 228.704 424.371 227.961 424.371 227.032C424.371 226.103 425.115 225.359 426.045 225.359C426.948 225.359 427.719 226.103 427.719 227.032Z" fill="#62818E"/>
<path d="M495.16 179.695C496.177 178.679 496.177 177.032 495.16 176.016C494.143 175 492.495 175 491.478 176.016C490.461 177.032 490.461 178.679 491.478 179.695C492.495 180.711 494.143 180.711 495.16 179.695Z" fill="#62818E"/>
<path d="M448.412 104.646C449.19 104.646 449.82 104.016 449.82 103.239C449.82 102.462 449.19 101.832 448.412 101.832C447.634 101.832 447.004 102.462 447.004 103.239C447.004 104.016 447.634 104.646 448.412 104.646Z" fill="#62818E"/>
<path d="M287.826 130.341C288.751 130.341 289.5 129.592 289.5 128.669C289.5 127.745 288.751 126.996 287.826 126.996C286.902 126.996 286.152 127.745 286.152 128.669C286.152 129.592 286.902 130.341 287.826 130.341Z" fill="#62818E"/>
<path d="M183.382 88.1311C183.382 89.1134 182.585 89.8833 181.629 89.8833C180.672 89.8833 179.875 89.0868 179.875 88.1311C179.875 87.1488 180.672 86.3789 181.629 86.3789C182.585 86.3789 183.382 87.1754 183.382 88.1311Z" fill="#62818E"/>
<path d="M246.215 242.24C247.389 242.24 248.341 241.289 248.341 240.116C248.341 238.943 247.389 237.992 246.215 237.992C245.042 237.992 244.09 238.943 244.09 240.116C244.09 241.289 245.042 242.24 246.215 242.24Z" fill="#62818E"/>
<path d="M202.993 296.714C202.993 297.51 202.355 298.174 201.532 298.174C200.708 298.174 200.07 297.537 200.07 296.714C200.07 295.918 200.708 295.254 201.532 295.254C202.355 295.254 202.993 295.918 202.993 296.714Z" fill="#62818E"/>
<path d="M284.215 314.477C285.256 314.477 286.101 313.633 286.101 312.592C286.101 311.551 285.256 310.707 284.215 310.707C283.173 310.707 282.328 311.551 282.328 312.592C282.328 313.633 283.173 314.477 284.215 314.477Z" fill="#62818E"/>
<path d="M328.556 263.162C328.876 261.806 328.036 260.448 326.679 260.128C325.322 259.808 323.963 260.647 323.643 262.003C323.322 263.358 324.162 264.717 325.519 265.037C326.876 265.357 328.235 264.517 328.556 263.162Z" fill="#62818E"/>
<path d="M377.21 264.624C378.12 264.624 378.857 263.887 378.857 262.978C378.857 262.069 378.12 261.332 377.21 261.332C376.3 261.332 375.562 262.069 375.562 262.978C375.562 263.887 376.3 264.624 377.21 264.624Z" fill="#62818E"/>
<path d="M145.2 200.83C146.374 200.83 147.325 199.879 147.325 198.706C147.325 197.533 146.374 196.582 145.2 196.582C144.026 196.582 143.074 197.533 143.074 198.706C143.074 199.879 144.026 200.83 145.2 200.83Z" fill="#62818E"/>
<path d="M60.7759 164.658C61.0262 163.602 60.3725 162.544 59.3158 162.293C58.2591 162.043 57.1996 162.697 56.9493 163.752C56.699 164.808 57.3527 165.867 58.4094 166.117C59.4661 166.367 60.5256 165.714 60.7759 164.658Z" fill="#62818E"/>
<path d="M16.1995 233.637C16.1995 234.646 15.3758 235.443 14.3927 235.443C13.383 235.443 12.5859 234.62 12.5859 233.637C12.5859 232.628 13.4096 231.832 14.3927 231.832C15.4024 231.832 16.1995 232.655 16.1995 233.637Z" fill="#62818E"/>
<path d="M28.5554 320.615C29.876 320.615 30.9467 319.545 30.9467 318.225C30.9467 316.906 29.876 315.836 28.5554 315.836C27.2347 315.836 26.1641 316.906 26.1641 318.225C26.1641 319.545 27.2347 320.615 28.5554 320.615Z" fill="#62818E"/>
<path d="M172.517 268.193C172.805 266.98 172.054 265.764 170.841 265.477C169.627 265.189 168.41 265.939 168.122 267.152C167.835 268.365 168.585 269.581 169.799 269.868C171.013 270.155 172.23 269.405 172.517 268.193Z" fill="#62818E"/>
<path d="M260.727 167.484C260.727 168.36 260.01 169.076 259.133 169.076C258.256 169.076 257.539 168.36 257.539 167.484C257.539 166.607 258.256 165.891 259.133 165.891C260.01 165.891 260.727 166.607 260.727 167.484Z" fill="#62818E"/>
<path d="M336.634 87.1456C338.101 87.1456 339.291 85.957 339.291 84.4907C339.291 83.0245 338.101 81.8359 336.634 81.8359C335.166 81.8359 333.977 83.0245 333.977 84.4907C333.977 85.957 335.166 87.1456 336.634 87.1456Z" fill="#62818E"/>
<path d="M287.193 252.967C287.898 252.967 288.469 252.396 288.469 251.692C288.469 250.989 287.898 250.418 287.193 250.418C286.489 250.418 285.918 250.989 285.918 251.692C285.918 252.396 286.489 252.967 287.193 252.967Z" fill="#62818E"/>
<path d="M234.212 109.577C235.135 108.654 235.135 107.158 234.212 106.236C233.288 105.313 231.791 105.313 230.867 106.236C229.944 107.158 229.944 108.654 230.867 109.577C231.791 110.5 233.288 110.5 234.212 109.577Z" fill="#62818E"/>
<path d="M323.351 114.994C324.848 114.994 326.061 113.782 326.061 112.286C326.061 110.791 324.848 109.578 323.351 109.578C321.854 109.578 320.641 110.791 320.641 112.286C320.641 113.782 321.854 114.994 323.351 114.994Z" fill="#62818E"/>
<path d="M105.875 205.024C105.875 206.112 104.999 206.962 103.936 206.962C102.846 206.962 101.996 206.086 101.996 205.024C101.996 203.935 102.873 203.086 103.936 203.086C104.999 203.086 105.875 203.962 105.875 205.024Z" fill="#62818E"/>
<path d="M123.919 222.464C123.919 223.181 123.334 223.792 122.59 223.792C121.846 223.792 121.262 223.207 121.262 222.464C121.262 221.747 121.846 221.137 122.59 221.137C123.334 221.137 123.919 221.721 123.919 222.464Z" fill="#62818E"/>
<path d="M205.034 224.424C205.967 223.491 205.967 221.978 205.034 221.045C204.1 220.112 202.586 220.112 201.652 221.045C200.718 221.978 200.718 223.491 201.652 224.424C202.586 225.357 204.1 225.357 205.034 224.424Z" fill="#62818E"/>
<path d="M347.051 237.889C348.005 237.889 348.778 237.116 348.778 236.163C348.778 235.21 348.005 234.438 347.051 234.438C346.097 234.438 345.324 235.21 345.324 236.163C345.324 237.116 346.097 237.889 347.051 237.889Z" fill="#62818E"/>
<path d="M435.852 181.583C437.045 181.089 437.612 179.723 437.118 178.53C436.623 177.338 435.256 176.772 434.063 177.266C432.869 177.76 432.303 179.127 432.797 180.319C433.291 181.511 434.659 182.077 435.852 181.583Z" fill="#62818E"/>
<path d="M388.848 184.152C390.11 184.152 391.133 183.13 391.133 181.869C391.133 180.608 390.11 179.586 388.848 179.586C387.586 179.586 386.562 180.608 386.562 181.869C386.562 183.13 387.586 184.152 388.848 184.152Z" fill="#62818E"/>
<path d="M305.654 156.991C306.681 155.965 306.681 154.301 305.654 153.274C304.627 152.248 302.961 152.248 301.934 153.274C300.907 154.301 300.907 155.965 301.934 156.991C302.961 158.018 304.627 158.018 305.654 156.991Z" fill="#62818E"/>
<path d="M346.095 157.234C347.254 157.234 348.194 156.295 348.194 155.136C348.194 153.978 347.254 153.039 346.095 153.039C344.936 153.039 343.996 153.978 343.996 155.136C343.996 156.295 344.936 157.234 346.095 157.234Z" fill="#62818E"/>
<path d="M223.233 179.27C224.524 179.27 225.571 178.224 225.571 176.934C225.571 175.644 224.524 174.598 223.233 174.598C221.941 174.598 220.895 175.644 220.895 176.934C220.895 178.224 221.941 179.27 223.233 179.27Z" fill="#62818E"/>
</svg>
