<svg xmlns="http://www.w3.org/2000/svg" width="106" height="139" fill="none"><path fill="#1DBBBA" fill-rule="evenodd" d="m97.154 124.26.122 2.988c-2.215.075-4.403.145-6.6.157l-.01-3.009c2.169-.006 4.334-.042 6.489-.136Zm-12.961.028-.1 3.029c-2.217-.105-4.406-.216-6.577-.39l.212-3.049c2.147.208 4.309.324 6.465.41Zm-12.91-1.215-.35 3.074c-2.222-.315-4.538-.673-6.545-1.238l.545-2.93c2.066.404 4.188.798 6.35 1.094Zm-12.609-2.505-.753 2.877a76.216 76.216 0 0 1-5.73-1.839l-.608-.22.962-2.825.552.23c1.818.63 3.686 1.22 5.577 1.777Zm-12.108-4.493-1.175 2.744-.083.015c-1.959-.966-3.96-2.014-5.86-3.14l1.367-2.629a63.098 63.098 0 0 0 5.751 3.01Zm-11.234-6.641-1.589 2.489.02.117a55.545 55.545 0 0 1-5.372-4.343l1.82-2.291a68.117 68.117 0 0 0 5.12 4.028Zm-9.813-8.586-2.054 2.092.019.117a57.022 57.022 0 0 1-4.408-5.423l2.236-1.855a59.947 59.947 0 0 0 4.207 5.069Zm-7.8-10.581-2.433 1.53-.992-1.685a68.727 68.727 0 0 1-2.13-4.606l2.66-1.18a43.107 43.107 0 0 0 2.028 4.324l.866 1.617Zm-4.995-12.27L10 78.799l.005.03A57.654 57.654 0 0 1 8.97 73.93l-.323-1.958 2.772-.508.304 1.84c.13.793.319 1.583.505 2.37.186.778.37 1.553.497 2.324Zm-1.19-19.86a49.343 49.343 0 0 0-.475 6.65l-2.942-.003c0-2.367.164-4.731.49-7.073l2.926.427Zm3.834-12.593a40.198 40.198 0 0 0-2.416 6.132l-2.708-1.008a41.687 41.687 0 0 1 2.585-6.495l2.54 1.371Zm76.13 90.465 1.98 2.136 12.214-12.534-12.764-11.929-1.886 2.242 10.496 9.786-10.04 10.299Z" clip-rule="evenodd"/><path fill="#1DBBBA" d="M15.375 1.433C7.224 1.433.594 8.225.594 16.572c0 10.457 13.255 24.188 13.819 24.765a1.34 1.34 0 0 0 1.924.003c.564-.58 13.82-14.31 13.82-24.768 0-8.347-6.63-15.139-14.782-15.139Z"/><path fill="#fff" d="M22.879 26H19.82l-1.511-4.277h-6.61L10.246 26H7.2l6.293-16.805h3.14L22.88 26Zm-5.309-6.55-2.332-6.704c-.07-.219-.144-.57-.222-1.055h-.047c-.07.446-.149.797-.235 1.055l-2.308 6.703h5.144Z"/></svg>