<svg width="166" height="222" viewBox="0 0 166 222" fill="none" xmlns="http://www.w3.org/2000/svg">
<path d="M11.2996 186.902L10.8391 183.145C13.6185 182.811 16.4724 182.347 19.2804 181.814L19.9958 185.502C17.0858 186.062 14.1809 186.54 11.2996 186.902ZM28.5553 183.592L27.6036 179.939C30.3892 179.221 33.1288 178.432 35.8411 177.542L36.9967 181.139C34.1961 182.108 31.3272 182.822 28.5553 183.592ZM45.2505 178.191L43.8724 174.68C46.525 173.669 49.169 172.524 51.7669 171.309L53.3167 174.746C50.6678 175.975 47.9728 177.134 45.2505 178.191ZM61.1766 170.838L59.4365 167.506C61.9238 166.184 64.4024 164.728 66.886 163.189L68.8351 166.382C66.3142 167.987 63.7523 169.438 61.1766 170.838ZM76.1431 161.638L74.0037 158.55C76.3257 156.917 78.6204 155.182 80.8641 153.461L83.18 156.393C80.9127 158.23 78.5347 159.959 76.1431 161.638ZM89.9223 150.762L87.2868 147.861C89.3925 145.931 91.4846 143.95 93.4609 141.945L96.2085 144.652C94.2271 146.74 92.0977 148.786 89.9223 150.762ZM102.26 138.277L99.4001 135.764C101.233 133.634 103.072 131.42 104.813 129.151L107.803 131.437C106.057 133.79 104.181 136.068 102.26 138.277ZM113.02 124.193L109.918 122.1C111.512 119.788 113.013 117.337 114.482 114.867L117.715 116.733C116.134 119.397 114.563 121.894 113.02 124.193ZM118.465 107.298C119.883 104.841 120.964 102.147 122.073 99.5553L125.529 101.034C124.416 103.709 123.168 106.393 121.842 108.989L118.465 107.298ZM125.209 91.5841C126.138 88.9311 127.038 86.1761 127.837 83.4485L131.518 84.5392C130.714 87.3501 129.776 90.1698 128.81 92.8874L125.209 91.5841ZM129.989 75.1673C130.64 72.3973 131.194 69.5713 131.679 66.7913L135.371 67.4145C134.881 70.2778 134.322 73.1871 133.685 76.0081L129.989 75.1673ZM132.822 58.3157C133.126 55.4747 133.366 52.5964 133.452 49.759L137.22 49.952C137.064 52.8354 136.87 55.7833 136.497 58.6703L132.822 58.3157ZM133.642 41.293C133.594 38.4643 133.449 35.5795 133.267 32.7595L137.014 32.4664C137.223 35.3884 137.382 38.3241 137.387 41.3007L133.642 41.293ZM132.355 24.2607C131.974 21.412 131.362 18.5159 130.938 15.8151L134.645 15.0681C135.193 17.9268 135.639 20.8129 136.098 23.7499L132.355 24.2607Z" fill="#1DBBBA"/>
<path d="M19.5562 199.299L21.6672 196.166L6.27252 185.726L17.8318 171.155L14.8604 168.836L0.81958 186.586L19.5562 199.299Z" fill="#1DBBBA"/>
</svg>
