<svg xmlns="http://www.w3.org/2000/svg" width="295" height="370" fill="none"><path fill="#515151" d="M155.634 369.125c67.33 0 121.913-5.962 121.913-13.317 0-7.354-54.583-13.316-121.913-13.316-67.331 0-121.913 5.962-121.913 13.316 0 7.355 54.582 13.317 121.913 13.317Z" opacity=".12"/><path fill="#DEAE25" d="M116.683 138.378v-14.091a13.74 13.74 0 0 0-1.127-5.45 14.226 14.226 0 0 0-3.216-4.621 14.9 14.9 0 0 0-4.814-3.087 15.367 15.367 0 0 0-5.678-1.082H29.027a15.376 15.376 0 0 0-5.68 1.082 14.894 14.894 0 0 0-4.814 3.087 14.204 14.204 0 0 0-3.218 4.621 13.742 13.742 0 0 0-1.13 5.45v183.268c0 1.871.384 3.724 1.13 5.452a14.23 14.23 0 0 0 3.217 4.622 14.895 14.895 0 0 0 4.815 3.088 15.38 15.38 0 0 0 5.68 1.085h251.132c3.936 0 7.711-1.501 10.494-4.173 2.783-2.672 4.347-6.295 4.347-10.074v-140.69c0-1.871-.384-3.723-1.13-5.451a14.229 14.229 0 0 0-3.217-4.621 14.896 14.896 0 0 0-4.815-3.086 15.377 15.377 0 0 0-5.679-1.083H131.506c-3.933-.004-7.703-1.507-10.482-4.179-2.779-2.671-4.341-6.292-4.341-10.067Z"/><path fill="#F2F2F2" d="M285.459.004 115.881.317c-1.05.002-1.9.82-1.898 1.829l.413 206.653c.002 1.008.855 1.824 1.906 1.822l169.577-.312c1.051-.002 1.901-.821 1.899-1.83l-.414-206.653c-.002-1.008-.855-1.824-1.905-1.822Z"/><path fill="#000" d="m265.176 70.736-113.433.21.007 3.263L265.183 74l-.007-3.264ZM265.213 85.493l-133.281.245.005 2.687 133.281-.246-.005-2.686ZM265.237 101.618l-133.282.245.006 2.687 133.281-.246-.005-2.686ZM265.28 119.243l-133.282.245.006 2.687 133.281-.246-.005-2.686Z" opacity=".23"/><path fill="#E6E6E7" d="m215.954 153.158-83.889.154.005 2.687 83.89-.155-.006-2.686Z"/><path fill="#000" d="m215.916 137.091-83.889.155.005 2.686 83.889-.154-.005-2.687Z" opacity=".23"/><path fill="#E6E6E7" d="m265.37 167.243-133.281.245.005 2.687 133.282-.246-.006-2.686ZM265.399 183.372l-133.282.245.006 2.687 133.281-.246-.005-2.686ZM265.437 200.993l-133.281.245.005 2.687 133.281-.246-.005-2.686Z"/><path fill="#1DBBBA" d="m269.028 16.613-138.036.254.083 41.624 138.036-.254-.083-41.624ZM264.025 124.533l-41.436.076.078 38.811 41.436-.076-.078-38.811Z"/><path fill="#FCD76D" d="M102.504 138.698v-14.09c0-1.871-.384-3.723-1.13-5.451a14.227 14.227 0 0 0-3.217-4.621 14.892 14.892 0 0 0-4.815-3.086 15.357 15.357 0 0 0-5.68-1.083h-72.82a15.357 15.357 0 0 0-5.68 1.083 14.892 14.892 0 0 0-4.815 3.086 14.226 14.226 0 0 0-3.217 4.621A13.745 13.745 0 0 0 0 124.608v183.267c0 3.779 1.564 7.402 4.347 10.074 2.783 2.672 6.558 4.173 10.494 4.173h251.156c3.936-.002 7.709-1.503 10.491-4.175 2.782-2.671 4.345-6.294 4.345-10.072v-140.69c0-1.87-.384-3.722-1.13-5.449a14.208 14.208 0 0 0-3.215-4.62 14.874 14.874 0 0 0-4.813-3.087 15.37 15.37 0 0 0-5.678-1.084H117.345c-3.936 0-7.711-1.501-10.494-4.173-2.783-2.672-4.347-6.295-4.347-10.074Z"/></svg>