<svg xmlns="http://www.w3.org/2000/svg" width="167" height="230" fill="none"><path fill="#1DBBBA" d="m142.995 70.066-2.614-1.509a47.917 47.917 0 0 1-4.06 5.463l2.342 1.98a59.81 59.81 0 0 0 4.332-5.934Zm3.476-6.323a44.642 44.642 0 0 0 2.274-6.111l.205-.718-3.006-.83-.175.666a39.136 39.136 0 0 1-2.156 5.726l2.858 1.267Zm-12.683 17.32-2.191-2.241a63.593 63.593 0 0 1-5.178 4.504l1.898 2.385a69.052 69.052 0 0 0 5.471-4.648Zm16.378-31.325c.185-2.42.154-4.852-.091-7.267l-3.033.305c.226 2.23.259 4.477.097 6.713l3.027.25ZM122.652 89.97l-1.714-2.523a72.753 72.753 0 0 1-5.815 3.614l1.545 2.635a76.884 76.884 0 0 0 5.984-3.726Zm26.082-54.65a45.351 45.351 0 0 0-2.417-6.799l-2.765 1.227a44.876 44.876 0 0 1 2.24 6.382l2.942-.81ZM110.416 97.16l-1.406-2.694a193.032 193.032 0 0 1-6.244 3.088l1.309 2.742a199.082 199.082 0 0 0 6.341-3.136Zm-12.725 6.107-1.253-2.78-6.38 2.904 1.252 2.78 6.38-2.904Zm45.211-81.145a46.421 46.421 0 0 0-4.241-5.934l-2.371 2.117a43.824 43.824 0 0 1 4.066 5.45l2.546-1.633ZM85.008 109.12l-1.31-2.742a245.136 245.136 0 0 0-6.325 3.11l1.391 2.72c2.027-1.096 4.102-2.094 6.243-3.088Zm48.461-97.88a44.923 44.923 0 0 0-5.899-4.208l-1.509 2.614a39.285 39.285 0 0 1 5.47 3.925l1.938-2.331ZM23.747 201.283c-.038-2.287.006-4.597.117-6.903l-3.031-.181c-.126 2.39-.174 4.767-.145 7.131l3.059-.047ZM72.67 115.52l-1.504-2.646a147.417 147.417 0 0 0-6.051 3.721l1.673 2.535a124.217 124.217 0 0 1 5.83-3.64l.052.03Zm-48.15 71.99c.3-2.268.68-4.557 1.166-6.787l-3.097-.672c-.49 2.296-.89 4.68-1.192 7.014l3.124.445Zm36.672-64.362-1.858-2.396a84.031 84.031 0 0 0-5.467 4.581l2.146 2.319c1.546-1.652 3.338-3.126 5.126-4.534l.053.03Zm-33.9 50.87a128.412 128.412 0 0 1 2.1-6.595l-2.885-1.039c-.811 2.251-1.53 4.52-2.18 6.793l2.965.841Zm23.675-41.611-2.25-2.136a99.456 99.456 0 0 0-4.742 5.314l2.357 1.954a83.803 83.803 0 0 1 4.583-5.162l.052.03Zm-19.026 28.61a104.002 104.002 0 0 1 2.996-6.217l-2.613-1.509c-1.192 2.065-2.15 4.266-3.076 6.415l2.693 1.311Zm10.338-17.907-2.463-1.77c-1.37 1.892-2.683 3.923-3.938 5.917l2.613 1.509c.997-1.969 2.29-3.906 3.631-5.746l.157.09ZM120.08 6.785l1.091-2.855a38.751 38.751 0 0 0-6.943-1.917l-.594 3.142a34.98 34.98 0 0 1 6.289 1.54l.157.09Z"/><path fill="#1DBBBA" d="m9.963 199.24 2.233-2.057 10.15 11.089 10.311-10.917 2.24 2.095-12.59 13.296L9.964 199.24Z"/></svg>