<svg xmlns="http://www.w3.org/2000/svg" width="79" height="50" fill="none"><path fill="#1DBBBA" d="M10.547 0h6.592v49.765h-6.592zM0 0h10.547v6.38H0zM64.983 7.288A25.886 25.886 0 0 0 54.267 1.07 26.532 26.532 0 0 0 41.788.478a26.088 26.088 0 0 0-11.294 5.17 24.96 24.96 0 0 0-7.442 9.712 24.159 24.159 0 0 0-1.834 11.961 24.378 24.378 0 0 0 4.21 11.385 25.43 25.43 0 0 0 9.257 8.12 26.391 26.391 0 0 0 12.119 2.939v-6.76c-3.08 0-6.111-.735-8.827-2.14a18.523 18.523 0 0 1-6.742-5.914 17.756 17.756 0 0 1-3.066-8.292 17.595 17.595 0 0 1 1.335-8.712 18.179 18.179 0 0 1 5.42-7.074 19 19 0 0 1 8.227-3.765 19.324 19.324 0 0 1 9.088.432 18.855 18.855 0 0 1 7.805 4.528l4.939-4.78Z"/><path fill="#1DBBBA" d="M46.414 43.008h32.262v6.757H46.414v-6.757Z"/></svg>