<svg xmlns="http://www.w3.org/2000/svg" width="77" height="165" fill="none"><path fill="#1DBBBA" d="m26.82 157.763-1.06-2.595a76.853 76.853 0 0 0 5.805-2.623l1.284 2.512a67.76 67.76 0 0 1-6.029 2.706Zm11.778-5.915-1.48-2.4a83.506 83.506 0 0 0 5.275-3.571l1.675 2.288a81.638 81.638 0 0 1-5.47 3.683Zm10.633-7.813-1.87-2.121c1.59-1.395 3.154-2.79 4.633-4.38l2.01 1.981a90.865 90.865 0 0 1-4.773 4.52Zm9.21-9.403-2.177-1.814c1.367-1.618 2.79-3.32 3.907-5.05l2.289 1.646c-1.284 1.786-2.624 3.544-4.075 5.218h.056Zm7.619-10.771-2.428-1.423a77.339 77.339 0 0 0 3.014-5.58l2.54 1.255c-.95 1.926-2.01 4.018-3.126 5.748Zm5.777-11.831-2.624-1.032a89.401 89.401 0 0 0 2.066-5.999l2.79.781c-.725 2.093-1.423 4.213-2.232 6.25Zm3.712-12.668-2.791-.53c.167-.753.279-1.479.419-2.232.223-1.34.418-2.79.558-4.046l2.79.307c0 1.395-.334 2.79-.586 4.213a21.782 21.782 0 0 1-.39 2.288ZM77 86.248h-2.79v-6.362L77 79.72v6.529Zm-3.628-12.724a95.212 95.212 0 0 0-1.172-6.278l2.79-.614c.503 2.149.894 4.325 1.229 6.474l-2.847.418ZM70.58 61.108c-.614-2.01-1.368-4.018-2.149-5.972l2.596-1.06a77.955 77.955 0 0 1 2.26 6.194l-2.707.837Zm-4.772-11.776a98.252 98.252 0 0 0-3.098-5.58l2.4-1.451c1.144 1.841 2.205 3.795 3.21 5.748l-2.512 1.283ZM59.194 38.45a97.102 97.102 0 0 0-3.963-4.994l2.15-1.842a81.21 81.21 0 0 1 4.074 5.19l-2.26 1.646Zm-8.372-9.626a61.637 61.637 0 0 0-4.745-4.214l1.786-2.204c1.703 1.395 3.35 2.79 4.94 4.409l-1.981 2.009Zm-9.824-8.036a84.732 84.732 0 0 0-5.387-3.432l1.424-2.428a86.227 86.227 0 0 1 5.582 3.544l-1.62 2.316Zm-10.996-6.502c-1.898-.976-3.824-1.87-5.777-2.79l1.144-2.595c1.982.893 3.963 1.842 5.917 2.79l-1.284 2.595ZM18.28 9.068a176.288 176.288 0 0 0-6.028-2.26l.949-2.65c2.065.725 4.102 1.506 6.112 2.288L18.28 9.068ZM6.168 4.743 0 2.79.837 0l6.196 1.953-.865 2.79Z"/><path fill="#1DBBBA" d="m35.623 164.897.95-2.651-13.09-4.66 5.61-12.723-2.596-1.116-6.81 15.486 15.936 5.664Z"/></svg>