<svg xmlns="http://www.w3.org/2000/svg" width="40" height="40" fill="none"><g fill="#1DBBBA" clip-path="url(#a)"><path d="M29.354 0h-18.71a2.26 2.26 0 0 0-2.257 2.258v35.484A2.26 2.26 0 0 0 10.645 40h18.71a2.26 2.26 0 0 0 2.258-2.258V2.258A2.26 2.26 0 0 0 29.354 0Zm-6.31 1.29-.323 1.29h-5.443l-.323-1.29h6.089Zm7.278 36.452a.969.969 0 0 1-.968.968h-18.71a.969.969 0 0 1-.967-.968V2.258c0-.534.434-.967.968-.968h4.98l.523 2.092c.072.287.33.489.626.489h6.451a.645.645 0 0 0 .626-.489l.524-2.092h4.98c.534 0 .967.434.967.968v35.484Z"/><path d="M22.58 36.774h-5.161a.645.645 0 1 0 0 1.29h5.16a.645.645 0 1 0 0-1.29ZM27.742 25.161H12.258a.645.645 0 0 0 0 1.29h15.484a.645.645 0 1 0 0-1.29ZM27.742 27.097H12.258a.645.645 0 1 0 0 1.29h15.484a.645.645 0 1 0 0-1.29ZM27.742 29.032H12.258a.645.645 0 0 0 0 1.29h15.484a.645.645 0 1 0 0-1.29ZM23.868 30.968h-7.742a.645.645 0 1 0 0 1.29h7.742a.645.645 0 1 0 0-1.29Z"/><g clip-path="url(#b)"><path d="M22.7 10.313h-5.4c-1.184 0-2.144.96-2.144 2.143v5.401c0 1.183.96 2.143 2.144 2.143h5.4c1.184 0 2.144-.96 2.144-2.143v-5.401c0-1.184-.96-2.143-2.144-2.143Zm.88 7.543a.88.88 0 0 1-.88.88h-5.4a.88.88 0 0 1-.88-.88v-5.4a.88.88 0 0 1 .88-.88h5.4a.88.88 0 0 1 .88.88v5.4Z"/><path d="M19.774 17.325a.685.685 0 0 1-.968 0l-1.5-1.5a.685.685 0 0 1 .968-.968l.894.894a.173.173 0 0 0 .244 0l2.42-2.42a.684.684 0 1 1 .968.968l-3.026 3.026Z"/></g></g><defs><clipPath id="a"><path fill="#fff" d="M0 0h40v40H0z"/></clipPath><clipPath id="b"><path fill="#fff" d="M15.156 10.313h9.688V20h-9.688z"/></clipPath></defs></svg>