<svg xmlns="http://www.w3.org/2000/svg" width="100" height="100" fill="none"><path fill="#1DBBBA" d="M49.998 0C22.388 0 0 22.387 0 49.998 0 77.608 22.387 100 49.998 100 77.608 100 100 77.609 100 49.998 100 22.388 77.609 0 49.998 0Zm10.408 77.49c-2.573 1.016-4.622 1.786-6.158 2.32-1.533.533-3.315.8-5.342.8-3.115 0-5.54-.762-7.268-2.282-1.727-1.52-2.586-3.446-2.586-5.786 0-.91.063-1.841.19-2.79a34.83 34.83 0 0 1 .623-3.212l3.22-11.378c.284-1.092.53-2.13.724-3.094a13.72 13.72 0 0 0 .288-2.68c0-1.447-.3-2.463-.897-3.035-.605-.571-1.744-.85-3.441-.85-.83 0-1.685.122-2.561.38a36.37 36.37 0 0 0-2.24.746l.852-3.505a80.216 80.216 0 0 1 6.052-2.206c1.926-.617 3.746-.922 5.46-.922 3.095 0 5.482.753 7.163 2.243 1.672 1.494 2.514 3.437 2.514 5.825 0 .495-.06 1.367-.174 2.611a17.478 17.478 0 0 1-.643 3.433l-3.204 11.344c-.263.91-.495 1.951-.707 3.115-.208 1.164-.31 2.053-.31 2.65 0 1.507.335 2.535 1.013 3.081.668.546 1.84.822 3.5.822.783 0 1.66-.14 2.65-.411.982-.27 1.693-.512 2.142-.72l-.86 3.5Zm-.567-46.044c-1.494 1.388-3.293 2.082-5.397 2.082-2.1 0-3.91-.694-5.418-2.082-1.498-1.389-2.256-3.078-2.256-5.05 0-1.969.762-3.662 2.256-5.063 1.507-1.405 3.319-2.103 5.418-2.103 2.104 0 3.907.698 5.397 2.103 1.494 1.401 2.244 3.095 2.244 5.063 0 1.976-.75 3.661-2.244 5.05Z"/></svg>