<svg xmlns="http://www.w3.org/2000/svg" width="40" height="40" fill="none"><path fill="#1DBBBA" d="M28 35.333V4.667c0-1.134-.866-2-2-2H6c-1.133 0-2 .866-2 2v30.666c0 1.134.867 2 2 2h20c1.134 0 2-.866 2-2Zm-1.333-4.666H5.333v-24h21.334v24ZM6 4h20c.4 0 .667.267.667.667v.666H5.333v-.666C5.333 4.267 5.6 4 6 4Zm-.667 31.333V32h21.334v3.333c0 .4-.267.667-.667.667H6c-.4 0-.667-.267-.667-.667Z"/><path fill="#1DBBBA" d="M14.668 33.333h2.667v1.334h-2.667v-1.334ZM33.332 10.667c0-1.134-.867-2-2-2s-2 .866-2 2V32.2l2 3 2-3V10.667Zm-2-.667c.4 0 .667.267.667.667V12h-1.334v-1.333c0-.4.267-.667.667-.667Zm0 22.8-.667-1V13.333H32V31.8l-.667 1ZM13.332 18h12v1.333h-12V18ZM9.335 22.667C10.8 22.667 12 21.467 12 20h-1.333c0 .733-.6 1.333-1.333 1.333C8.6 21.333 8 20.733 8 20s.6-1.333 1.334-1.333v-1.334A2.674 2.674 0 0 0 6.668 20c0 1.467 1.2 2.667 2.667 2.667Z"/><path fill="#1DBBBA" d="m8.871 19.518 1.98-1.98.943.943-1.98 1.98-.943-.942ZM9.335 24a2.674 2.674 0 0 0-2.667 2.667c0 1.466 1.2 2.666 2.667 2.666 1.466 0 2.666-1.2 2.666-2.666 0-1.467-1.2-2.667-2.666-2.667Zm0 4C8.6 28 8 27.4 8 26.667c0-.734.6-1.334 1.334-1.334.733 0 1.333.6 1.333 1.334 0 .733-.6 1.333-1.333 1.333ZM13.332 20.667h7.333V22h-7.333v-1.333ZM13.332 24.667h12V26h-12v-1.333ZM13.332 27.333h7.333v1.334h-7.333v-1.334ZM22.665 14.667C22.665 11 19.665 8 16 8c-3.667 0-6.667 3-6.667 6.667V16h13.333v-1.333Zm-12 0c0-2.934 2.4-5.334 5.334-5.334 2.933 0 5.333 2.4 5.333 5.334H10.665Z"/><path fill="#1DBBBA" d="m15.598 12.8 2.667-2 .8 1.067-2.668 2-.8-1.067Z"/><path fill="#1DBBBA" d="M34.001 0H8.668v1.333h25.333c.4 0 .667.267.667.667v36c0 .4-.267.667-.667.667H8.668V40h25.333c1.134 0 2-.867 2-2V2c0-1.133-.866-2-2-2Z"/></svg>