<svg xmlns="http://www.w3.org/2000/svg" width="324" height="324" fill="none"><path fill="#1DBBBA" d="m16.31 170.459 2.19-2.19a19.144 19.144 0 0 0 5.436 3.771l-1.336 2.827a22.031 22.031 0 0 1-6.29-4.408Zm-4.408-6.378a21.705 21.705 0 0 1-1.69-7.517l3.112-.174a18.98 18.98 0 0 0 1.47 6.465l-2.892 1.226Zm18.018 12.98.503-3.09c2.276.355 4.58.502 6.881.441l.067 3.134c-2.5.065-5-.09-7.473-.463l.022-.022Zm93.608 93.126c-1.71-1.71-3.332-3.552-4.933-5.371l2.344-2.037a181.876 181.876 0 0 0 4.802 5.239l-2.213 2.169Zm5.152 5.151 2.19-2.19c1.688 1.688 3.53 3.179 5.349 4.691l-1.993 2.388a183.334 183.334 0 0 1-5.502-4.933l-.044.044Zm-14.689-16.003a111.874 111.874 0 0 1-4.319-5.852l2.585-1.796c1.36 1.929 2.763 3.858 4.232 5.721l-2.498 1.927Zm25.978 25.409 1.862-2.52a131.75 131.75 0 0 0 5.809 4.1l-1.753 2.629c-2.038-1.513-4.033-2.894-5.962-4.341l.044.132Zm-34.309-37.333a181.837 181.837 0 0 1-3.641-6.312l2.805-1.577a112.821 112.821 0 0 0 3.574 6.159l-2.738 1.73Zm46.431 45.38 1.642-2.739c2.038 1.206 4.121 2.324 6.225 3.421l-1.511 2.87c-2.214-1.337-4.296-2.456-6.4-3.684l.044.132ZM10.998 149.113a27.687 27.687 0 0 1 2.715-7.099l2.805 1.579a25.645 25.645 0 0 0-2.496 6.267l-3.024-.747Zm87.71 85.476a113.972 113.972 0 0 1-2.917-6.685l2.914-1.16a132.83 132.83 0 0 0 2.829 6.509l-2.826 1.336Zm66.336 64.759 1.27-2.849c2.148.966 4.362 1.865 6.553 2.698l-1.094 2.936a171.563 171.563 0 0 1-6.729-2.785ZM44.668 176.913l-.505-3.09c2.322-.41 4.62-.951 6.88-1.619l.812 3.046c-2.41.701-4.82 1.226-7.187 1.663Zm48.49 44.109c-.482-1.359-.899-2.739-1.316-4.12l-.812-2.871 3.002-.81.812 2.783a86.068 86.068 0 0 0 1.273 4.033l-2.958.985Zm85.387 83.546.941-2.958c2.236.703 4.537 1.339 6.86 1.91l-.766 3.045c-2.279-.702-4.558-1.272-6.947-2.084l-.088.087Zm-89.27-97.55c-.55-2.345-1.054-4.734-1.625-7.145l3.09-.634 1.515 6.991-2.98.788Zm-71.072-71.072a24.495 24.495 0 0 1 6.046-4.425l1.645 2.74a21.345 21.345 0 0 0-5.433 3.943l-2.258-2.258Zm40.664 37.203-.987-2.959c2.257-.766 4.47-1.576 6.748-2.364l1.12 2.915c-2.28.832-4.558 1.664-6.88 2.408Zm27.488 19.602-1.493-7.013 3.068-.657 1.602 7.167-3.177.503Zm-54.085-60.92-.659-3.024a32.612 32.612 0 0 1 7.516-.72l-.064 3.133a30.191 30.191 0 0 0-6.771.633l-.022-.022Zm40.16 36.217-1.185-2.893a293.795 293.795 0 0 0 6.552-2.824l-1.623-3.595 2.913-1.467a86.358 86.358 0 0 1 2.918 6.729l-2.914 1.116c-2.257 1.117-4.426 2.059-6.64 2.956l-.021-.022Zm10.764 10.764-.746-2.805-1.185-4.033 3.001-.941 1.185 4.164c.286.943.527 1.885.769 2.871l-3.024.744Zm-37.36-46.691.7-3.067a40.75 40.75 0 0 1 7.102 2.325l-1.248 2.871a33.615 33.615 0 0 0-6.488-2.151l-.065.022Zm27.028 20.412a55.69 55.69 0 0 0-4.056-5.721l2.432-1.949a61.943 61.943 0 0 1 4.253 6.05l-2.629 1.62Zm-14.228-15.104 1.73-2.651a41.737 41.737 0 0 1 4.648 3.508l1.162 1.162-2.191 2.191-1.074-1.074a39.325 39.325 0 0 0-4.34-3.07l.065-.066Zm27.095 24.598-1.36-2.805c2.126-1.073 4.251-2.146 6.354-3.241l1.557 2.827c-2.3 1.117-4.447 2.212-6.617 3.285l.066-.066Zm12.817-6.635-1.6-2.784a282.582 282.582 0 0 0 6.134-3.635l1.688 2.696c-2.125 1.205-4.118 2.365-6.222 3.723Zm12.357-7.577-1.732-2.653a174.653 174.653 0 0 0 5.893-4.008l1.82 2.565c-2.06 1.314-4.053 2.694-6.069 4.008l.088.088Zm11.852-8.345-1.885-2.499a276.603 276.603 0 0 0 5.674-4.359l1.951 2.433c-1.994 1.424-3.812 2.979-5.828 4.337l.088.088Zm11.326-9.002-1.995-2.39a265.028 265.028 0 0 0 5.367-4.709l2.083 2.302a756.517 756.517 0 0 0-5.564 4.731l.109.066Zm10.756-9.704-2.192-2.192 3.505-3.505 1.577-1.577 2.192 2.192-1.577 1.577c-1.205 1.073-2.388 2.256-3.592 3.417l.087.088Zm7.841-12.488c1.686-1.687 3.22-3.527 4.775-5.301l2.345 2.038a182.26 182.26 0 0 1-4.819 5.389l-2.301-2.126Zm9.375-10.778a260.148 260.148 0 0 0 4.424-5.608l2.499 1.885a190.515 190.515 0 0 1-4.49 5.718l-2.433-1.995Zm8.717-11.348c1.358-1.928 2.738-3.878 4.074-5.872l2.608 1.776a181 181 0 0 1-4.139 5.938l-2.543-1.842Zm7.819-11.897a175.289 175.289 0 0 0 3.701-6.112l2.762 1.623a179.797 179.797 0 0 1-3.767 6.178l-2.696-1.688Zm7.227-12.356a291.058 291.058 0 0 0 3.306-6.332l2.872 1.513c-1.095 2.147-2.19 4.294-3.351 6.42l-2.827-1.601Zm6.394-12.752a250.88 250.88 0 0 0 2.912-6.55l2.849 1.227a180.045 180.045 0 0 1-2.912 6.64l-2.849-1.317Z"/><path fill="#1DBBBA" d="m180.987 316.744-1.409-2.689 13.338-6.935-7.877-12.784 2.604-1.622 9.584 15.602-16.24 8.428Z"/></svg>