<svg xmlns="http://www.w3.org/2000/svg" width="166" height="185" fill="none"><path fill="#1DBBBA" d="m109.444 132.725-.41-3.004a83.342 83.342 0 0 1-6.856.683l.156 3.046c2.399-.13 4.806-.37 7.11-.725Zm-14.23.829.087-3.048a89.554 89.554 0 0 1-6.872-.493l-.331 3.049c2.34.251 4.745.431 7.115.492Zm-14.186-1.568.605-2.998c-2.245-.446-4.463-.908-6.709-1.598l-.81 2.943a98.616 98.616 0 0 0 6.914 1.653Zm-13.712-3.827 1.058-2.876c-2.156-.777-4.41-1.601-6.39-2.618l-1.254 2.78c2.168.978 4.374 1.9 6.639 2.683l-.053.031Zm-12.961-5.969 1.505-2.646c-2-1.11-3.968-2.344-5.841-3.597l-1.7 2.55c1.93 1.29 4.055 2.677 6.036 3.693Zm-11.81-7.957 1.9-2.386a97.008 97.008 0 0 1-5.18-4.502l-2.19 2.241c1.81 1.568 3.611 3.177 5.47 4.647Zm-10.327-9.859 2.327-2.006c-.564-.615-1.06-1.234-1.599-1.864a84.166 84.166 0 0 1-2.71-3.488l-2.449 1.797c.755 1.307 1.823 2.432 2.828 3.629.486.661 1.039 1.317 1.603 1.932Zm-8.452-11.499 2.615-1.51-.86-1.489-2.58-4.47-2.706 1.353 2.671 4.626.86 1.49Zm-3.482-13.88a102.912 102.912 0 0 1-2.297-6.515l-2.946.935c.69 2.284 1.502 4.534 2.35 6.727l2.893-1.147Zm-4.1-13.14c-.512-2.214-.893-4.503-1.217-6.755l-3.005.41a84.282 84.282 0 0 0 1.233 7.025l2.988-.68Zm-1.899-13.61a106.236 106.236 0 0 1-.116-6.903l-3.033-.061c-.075 2.344-.013 4.747.103 7.12l3.046-.156ZM125.375 102.433c-8.151 0-14.781 6.791-14.781 15.139 0 10.457 13.255 24.187 13.819 24.765a1.34 1.34 0 0 0 1.924.003c.565-.581 13.819-14.311 13.819-24.768 0-8.348-6.63-15.139-14.781-15.139Z"/><path fill="#fff" d="M120.074 127v-16.805h9.809v2.379h-7.02v4.594h3.211c1.719 0 3.055.406 4.008 1.219.961.812 1.441 1.965 1.441 3.457 0 1.593-.511 2.851-1.535 3.773-1.015.922-2.402 1.383-4.16 1.383h-5.754Zm2.789-7.617v5.39h2.52c1.023 0 1.812-.242 2.367-.726.555-.485.832-1.16.832-2.027 0-1.758-1.051-2.637-3.152-2.637h-2.567Z"/></svg>