<svg xmlns="http://www.w3.org/2000/svg" width="120" height="137" fill="none"><path fill="#1DBBBA" d="m109.444 109.011-.41-3.004a83.342 83.342 0 0 1-6.856.683l.156 3.046a73.307 73.307 0 0 0 7.11-.725Zm-14.23.829.087-3.048a90.062 90.062 0 0 1-6.872-.493l-.331 3.049c2.34.251 4.745.431 7.115.492Zm-14.186-1.568.605-2.998c-2.245-.446-4.463-.908-6.709-1.598l-.81 2.943a98.616 98.616 0 0 0 6.914 1.653Zm-13.712-3.827 1.058-2.877c-2.156-.776-4.41-1.6-6.39-2.617l-1.254 2.779c2.168.979 4.374 1.901 6.639 2.684l-.053.031Zm-12.961-5.969 1.505-2.646c-2-1.11-3.968-2.344-5.841-3.597l-1.7 2.55c1.93 1.29 4.055 2.677 6.036 3.693Zm-11.81-7.957 1.9-2.386a96.702 96.702 0 0 1-5.18-4.502l-2.19 2.24c1.81 1.568 3.611 3.178 5.47 4.648ZM32.219 80.66l2.327-2.006c-.564-.615-1.06-1.234-1.599-1.864a84.166 84.166 0 0 1-2.71-3.488l-2.449 1.797c.755 1.306 1.823 2.432 2.828 3.63.486.66 1.039 1.316 1.603 1.931Zm-8.452-11.499 2.615-1.51-.86-1.489-2.58-4.47-2.706 1.353 2.671 4.626.86 1.49Zm-3.482-13.88a102.915 102.915 0 0 1-2.297-6.515l-2.946.934c.69 2.285 1.502 4.535 2.35 6.728l2.893-1.147Zm-4.1-13.14c-.512-2.214-.893-4.503-1.217-6.755l-3.005.41a84.29 84.29 0 0 0 1.233 7.025l2.988-.68Zm-1.899-13.61a106.236 106.236 0 0 1-.116-6.903l-3.033-.061c-.075 2.344-.013 4.747.103 7.12l3.046-.157Z"/><path fill="#1DBBBA" d="m105.062 120.452-2.322-1.97 9.74-11.443-12.135-8.885 1.827-2.449 14.754 10.823-11.864 13.924Z"/></svg>