<svg xmlns="http://www.w3.org/2000/svg" width="318" height="306" fill="none"><g clip-path="url(#a)"><mask id="b" width="232" height="199" x="0" y="0" maskUnits="userSpaceOnUse" style="mask-type:luminance"><path fill="#fff" d="M231.6 0H0v198.619h231.6V0Z"/></mask><g mask="url(#b)"><path fill="url(#c)" d="m188.739 28.486 34.059 19.794c-4.776-2.783-11.166-2.8-18.262.435l-34.059-19.767c7.141-3.263 13.486-3.245 18.262-.462Z"/><path fill="#FFBFA2" d="M173.577 35.373a6.872 6.872 0 0 0 .081-2.193l2.357-.906c-.034.35-.049.7-.046 1.051 0 .716.789.598 1.333.499.543-.1.906-.2 1.332-.308v2.003h1.704c-.753.906-2.248.806-3.272 1.214-.906.344-1.758 1.16-2.783.906a1.176 1.176 0 0 1-.752-.634 2.767 2.767 0 0 1 .046-1.632Z"/><path fill="#3A2C99" d="M174.231 35.881c1.505.653 4.532-.181 4.332-2.32l.707-.154.354-.054a.905.905 0 0 1 .308 0 1.15 1.15 0 0 1 .734.716c.123.333.123.7 0 1.033v.081a1.82 1.82 0 0 1-.317.435 1.97 1.97 0 0 1-.363.308 3.347 3.347 0 0 1-.906.372c-.661.127-1.315.29-1.958.49-.906.344-1.758 1.16-2.782.906a1.168 1.168 0 0 1-.752-.635 2.76 2.76 0 0 1 .045-1.667c0-.172.063-.345.082-.508.126.453.208.997.516.997Z"/><path fill="url(#d)" d="m163.481 20.293 34.077 19.794c-.76-.44-1.558-.81-2.384-1.106-5.374-1.921-12.135-.78-19.032 3.217a45.434 45.434 0 0 0-5.638 3.852l-34.086-19.82a45.346 45.346 0 0 1 5.628-3.853c6.915-3.997 13.676-5.139 19.033-3.217.832.306 1.636.685 2.402 1.133Z"/><path fill="#1DBBBA" d="M124.772 26.075c23.41-13.513 42.85-4.468 45.705 19.939a45.37 45.37 0 0 1 5.638-3.852c6.906-3.997 13.667-5.139 19.032-3.218 4.269 1.523 7.513 4.922 9.38 9.734 15.136-6.906 27.018 1.015 27.063 18.879.054 19.096-13.422 42.433-30.044 52.031L74.209 193.145c-22.06 12.742-40.078 2.483-40.15-22.876-.073-25.358 17.827-56.354 39.878-69.088a47.491 47.491 0 0 1 5.392-2.719c2.8-27.588 22.087-58.892 45.443-72.387Z"/><path fill="#5FA8F6" d="M222.463 67.62c0 15.897-11.628 36.09-25.476 44.083l-127.346 73.53c-4.813 2.773-9.435 4.25-13.35 4.25a11.267 11.267 0 0 1-6.834-2.075c-5.492-3.997-6.245-12.788-6.254-17.166-.063-22.06 16.115-50.056 35.347-61.149a40.189 40.189 0 0 1 4.377-2.193l4.985-2.103.553-5.392c2.51-24.887 20.482-53.618 40.902-65.409 5.728-3.308 11.265-5.057 15.996-5.057h.625c11.61.39 14.665 11.492 15.408 18.172l1.078 9.19.834 7.132 12.852-10.241a38.804 38.804 0 0 1 4.531-3.09 22.47 22.47 0 0 1 6.743-2.665 11.78 11.78 0 0 1 2.248-.227 7.034 7.034 0 0 1 2.402.372c1.712.607 3.036 2.102 3.942 4.432l1.74 4.486 1.758 4.532 8.819-4.024a19.279 19.279 0 0 1 4.323-1.432 12.043 12.043 0 0 1 2.202-.227c6.571.027 7.577 7.695 7.595 12.272Z"/><path fill="url(#e)" d="M212.658 55.602a19.279 19.279 0 0 0-4.323 1.432l-8.819 4.024-1.758-4.531-1.74-4.486c-.906-2.33-2.229-3.825-3.942-4.432a7.036 7.036 0 0 0-2.402-.372 11.78 11.78 0 0 0-2.248.227 22.473 22.473 0 0 0-6.743 2.664 38.791 38.791 0 0 0-4.531 3.09L163.3 63.46l-.834-7.133-1.078-9.19c-.78-6.68-3.834-17.782-15.408-18.171h-.625c-4.731 0-10.268 1.749-15.996 5.057-20.42 11.782-38.392 40.521-40.902 65.409l-.553 5.392-4.985 2.103a40.37 40.37 0 0 0-4.377 2.193c-19.205 11.094-35.347 39.09-35.347 61.149 0 4.378.762 13.169 6.254 17.166 3.834-.082 8.32-1.541 12.97-4.233l127.364-73.592c13.848-7.994 25.512-28.187 25.467-44.093-.009-2.954-.471-7.286-2.592-9.915Z"/><path fill="url(#f)" d="M123.377 3.109C115.021-1.75 103.438-1.07 90.75 6.28c-23.365 13.486-42.642 44.8-45.434 72.405l34.06 19.794c2.791-27.606 22.078-58.91 45.433-72.405 12.743-7.35 24.308-8.03 32.628-3.172l-34.06-19.794Z"/><path fill="url(#g)" d="m45.75 195.918-34.06-19.794C4.512 171.946.035 163.082-.02 150.475-.091 125.099 17.8 94.121 39.86 81.387a47.534 47.534 0 0 1 5.437-2.719l34.06 19.794a47.48 47.48 0 0 0-5.393 2.719c-22.06 12.734-39.95 43.73-39.878 69.088.01 12.598 4.477 21.471 11.665 25.649Z"/><path fill="#F4F5FA" d="M108.352 107.797v18.888c0 3.208 2.247 4.531 5.03 2.909l19.939-11.519a11.178 11.178 0 0 0 3.554-3.76 11.173 11.173 0 0 0 1.476-4.959V90.468c0-2.12-.997-3.407-2.466-3.561v-4.033c0-7.985-5.628-11.239-12.543-7.251-6.915 3.988-12.543 13.74-12.543 21.751v4.034a10.95 10.95 0 0 0-2.447 6.389Zm23.772-22.748v3.217L114.596 98.39v-3.218c0-5.583 3.924-12.39 8.764-15.18 4.84-2.792 8.764-.517 8.764 5.057Zm-13.069 24.86a9.482 9.482 0 0 1 4.305-7.45c2.375-1.378 4.296-.263 4.296 2.483a9.251 9.251 0 0 1-1.813 5.076v5.736l-4.984 2.919v-5.737c-1.088-.308-1.804-1.36-1.804-3.027Z"/></g><path fill="url(#h)" d="M308.905 105.404c6.118 3.552 6.153 9.261.075 12.791l-161.032 93.582-63.538-36.686 161.028-93.578c6.078-3.552 15.983-3.552 22.083 0l41.384 23.891Z"/><path fill="#7A7A7A" d="M308.982 118.195 147.95 211.777l-.106 38.653 161.027-93.578c3.019-1.753 4.529-4.053 4.538-6.353l.111-38.653c.013 2.3-1.519 4.595-4.538 6.349Z"/><path fill="#666" d="m147.95 211.777-.111 38.657-63.538-36.686.106-38.657 63.543 36.686Z"/><g filter="url(#i)"><path fill="#5FA8F6" d="M308.982 118.195 147.95 211.777l-.106 38.653 161.027-93.578c3.019-1.753 4.529-4.053 4.538-6.353l.111-38.653c.013 2.3-1.519 4.595-4.538 6.349Z"/></g><g filter="url(#j)"><path fill="#1DBBBA" d="m147.95 211.777-.111 38.657-63.538-36.686.106-38.657 63.543 36.686Z"/></g><path fill="#4D4D4D" d="m98.483 238.545-.08 27.429-45.837-26.461.08-27.434 45.837 26.466Z"/><path fill="#333" d="m52.646 212.079 40.3-23.42-.08 27.434-40.3 23.42.08-27.434Z"/><path fill="#4D4D4D" d="m52.566 239.513 40.3-23.42 45.837 26.461-40.3 23.42-45.837-26.461Z"/><path fill="#383839" d="m52.656 212.079 40.3-23.42 45.837 26.466-40.3 23.42-45.837-26.466Z"/><path fill="#3D3D3D" d="m98.486 238.545 40.3-23.42-.08 27.429-40.3 23.42.08-27.429Z"/><path fill="#D4D4D4" d="m96.247 254.892-.022 6.98-41.432-23.922.018-6.98 41.436 23.922Z"/><path fill="#767676" d="m96.249 254.892 42.489-25.751-.036 8.045-42.475 24.685.022-6.979Z"/><path fill="#B3B3B3" d="m54.816 230.97 45.699-26.554 38.227 24.725-42.489 25.751-41.437-23.922Z"/><path fill="#CCC" d="m139.76 214.481-40.304 23.42-47.772-27.58 40.304-23.42 47.772 27.58Z"/><path fill="#4E4F4F" d="m90.262 200.513-15.18 8.822 8.223 4.751 15.18-8.822-8.223-4.751Zm-6.966 12.667-6.167-3.552-.484-.284 13.621-7.912 6.66 3.841-.489.284-13.141 7.623ZM104.906 209.14l-15.18 8.822 8.223 4.75 15.18-8.826-8.223-4.746Zm-6.966 12.667-6.167-3.552-.484-.284 13.622-7.912 6.659 3.836-.492.284-13.138 7.628Z"/><path fill="#4D4D4D" d="m76.94 229.514-8.698 5.057-6.598-3.809 8.703-5.053 6.593 3.805ZM86.988 234.815l-9.057 5.266-6.868-3.965 9.061-5.265 6.864 3.964ZM96.406 239.956l-9.057 5.266-6.868-3.965 9.057-5.265 6.868 3.964ZM105.824 245.102l-9.057 5.261-6.869-3.964 9.058-5.261 6.868 3.964Z"/><path fill="#D4D4D4" d="m51.682 210.317-.084 29.835 47.776 27.58.085-29.831-47.777-27.584Zm46.724 55.657L52.57 239.508l.08-27.429 45.837 26.466-.08 27.429Z"/><path fill="#B3B3B3" d="m99.46 237.901 40.299-23.42-.084 29.831-40.3 23.42.084-29.831Z"/><path fill="#333" d="m90.266 201.424-13.622 7.911.489.284 6.167 3.561 13.137-7.632.484-.284-6.655-3.84ZM104.903 210.05l-13.622 7.912.484.284 6.171 3.561 13.138-7.637.488-.28-6.659-3.84Z"/><path fill="#333" d="m96.913 205.264-.484.284-6.171-3.561-13.133 7.632-.488-.284 13.621-7.912 6.655 3.841ZM111.566 213.89l-.488.28-6.172-3.556-13.137 7.632-.484-.284 13.621-7.912 6.66 3.84Z" opacity=".22" style="mix-blend-mode:multiply"/><path fill="url(#k)" d="M172.989 225.358c0 .071 0 .138.026.209.027.071 0 .133.027.2.027.066.027.138.04.209.013.071.027.128.044.195.018.067.04.138.058.209.018.071.036.128.058.195l.08.204c.021.067.046.132.075.196.027.066.062.137.094.204.031.066.057.129.088.191l.116.204c.035.062.066.124.106.186l.129.205.124.182c.045.066.098.133.151.204.054.071.085.12.134.177.048.058.115.134.173.2l.146.173.196.2c.053.058.102.111.159.164l.213.2.174.16.235.195.186.156.271.2.182.137c.107.076.218.147.329.218l.16.111c.168.106.342.213.524.315l38.75 22.372c5.723 3.308 14.985 3.308 20.672 0l29.32-17.044-59.493-34.342-29.303 17.04c-2.837 1.651-4.249 3.809-4.249 5.967v.213c0 .071 0 .129.005.195Z"/><g filter="url(#l)"><path fill="#1DBBBA" d="m266.024 236.285-.102 36.189-29.334 17.049c-2.814 1.638-6.513 2.464-10.211 2.477-3.778 0-7.548-.812-10.456-2.477l-38.746-22.373c-2.882-1.664-4.324-3.849-4.316-6.029l.103-36.171V225.359c0 .066 0 .137.026.208.027.071 0 .133.027.196.026.062.026.142.04.208.013.067.026.133.044.2l.058.204c0 .067.035.133.058.196l.08.208c.021.065.046.129.075.191.027.071.062.138.093.209.031.071.058.129.089.191l.115.204c.036.062.067.124.107.186l.129.205.124.182c.044.066.098.133.151.2.053.066.084.119.133.182.049.062.116.133.173.199l.147.173.195.2c.054.054.102.111.16.165l.213.199.173.16.236.196.186.15c.085.072.178.138.267.205.088.066.124.089.186.137l.329.218.159.111c.169.106.342.213.524.315l38.751 22.372c2.859 1.652 6.606 2.482 10.349 2.482 3.743 0 7.481-.83 10.323-2.482l29.342-17.044Z"/></g><path fill="#5FA8F6" d="m266.026 236.285-.102 36.189-29.334 17.049c-2.814 1.638-6.513 2.464-10.211 2.477v-36.189c3.743 0 7.481-.83 10.322-2.482l29.325-17.044Z"/></g><defs><linearGradient id="c" x1="222.798" x2="172.738" y1="48.715" y2="22.181" gradientUnits="userSpaceOnUse"><stop offset=".014" stop-color="#1DBBBA"/><stop offset="1" stop-color="#65B3FB"/></linearGradient><linearGradient id="d" x1="197.558" x2="137.426" y1="46.05" y2="16.218" gradientUnits="userSpaceOnUse"><stop offset=".014" stop-color="#1DBBBA"/><stop offset="1" stop-color="#65B3FB"/></linearGradient><linearGradient id="e" x1="215.25" x2="16.316" y1="187.435" y2="138.712" gradientUnits="userSpaceOnUse"><stop offset=".014" stop-color="#1DBBBA"/><stop offset="1" stop-color="#65B3FB"/></linearGradient><linearGradient id="f" x1="157.437" x2="28.527" y1="98.48" y2="65.372" gradientUnits="userSpaceOnUse"><stop offset=".014" stop-color="#1DBBBA"/><stop offset="1" stop-color="#65B3FB"/></linearGradient><linearGradient id="g" x1="79.356" x2="-15.708" y1="195.918" y2="181.401" gradientUnits="userSpaceOnUse"><stop offset=".014" stop-color="#1DBBBA"/><stop offset="1" stop-color="#65B3FB"/></linearGradient><linearGradient id="h" x1="313.516" x2="69.6" y1="211.777" y2="116.942" gradientUnits="userSpaceOnUse"><stop offset=".014" stop-color="#1DBBBA"/><stop offset="1" stop-color="#65B3FB"/></linearGradient><linearGradient id="k" x1="266.029" x2="167.026" y1="255.81" y2="217.233" gradientUnits="userSpaceOnUse"><stop offset=".014" stop-color="#1DBBBA"/><stop offset="1" stop-color="#65B3FB"/></linearGradient><filter id="i" width="173.676" height="152.584" x="143.844" y="111.846" color-interpolation-filters="sRGB" filterUnits="userSpaceOnUse"><feFlood flood-opacity="0" result="BackgroundImageFix"/><feColorMatrix in="SourceAlpha" result="hardAlpha" values="0 0 0 0 0 0 0 0 0 0 0 0 0 0 0 0 0 0 127 0"/><feOffset dy="10"/><feGaussianBlur stdDeviation="2"/><feColorMatrix values="0 0 0 0 0.616667 0 0 0 0 0.616667 0 0 0 0 0.616667 0 0 0 0.25 0"/><feBlend in2="BackgroundImageFix" result="effect1_dropShadow_1136_13388"/><feBlend in="SourceGraphic" in2="effect1_dropShadow_1136_13388" result="shape"/></filter><filter id="j" width="71.649" height="89.343" x="80.301" y="175.091" color-interpolation-filters="sRGB" filterUnits="userSpaceOnUse"><feFlood flood-opacity="0" result="BackgroundImageFix"/><feColorMatrix in="SourceAlpha" result="hardAlpha" values="0 0 0 0 0 0 0 0 0 0 0 0 0 0 0 0 0 0 127 0"/><feOffset dy="10"/><feGaussianBlur stdDeviation="2"/><feColorMatrix values="0 0 0 0 0.616667 0 0 0 0 0.616667 0 0 0 0 0.616667 0 0 0 0.25 0"/><feBlend in2="BackgroundImageFix" result="effect1_dropShadow_1136_13388"/><feBlend in="SourceGraphic" in2="effect1_dropShadow_1136_13388" result="shape"/></filter><filter id="l" width="101.165" height="81.05" x="168.859" y="224.95" color-interpolation-filters="sRGB" filterUnits="userSpaceOnUse"><feFlood flood-opacity="0" result="BackgroundImageFix"/><feColorMatrix in="SourceAlpha" result="hardAlpha" values="0 0 0 0 0 0 0 0 0 0 0 0 0 0 0 0 0 0 127 0"/><feOffset dy="10"/><feGaussianBlur stdDeviation="2"/><feColorMatrix values="0 0 0 0 0.616667 0 0 0 0 0.616667 0 0 0 0 0.616667 0 0 0 0.25 0"/><feBlend in2="BackgroundImageFix" result="effect1_dropShadow_1136_13388"/><feBlend in="SourceGraphic" in2="effect1_dropShadow_1136_13388" result="shape"/></filter><clipPath id="a"><path fill="#fff" d="M0 0h318v306H0z"/></clipPath></defs></svg>