<svg width="470" height="470" viewBox="0 0 470 470" fill="none" xmlns="http://www.w3.org/2000/svg">
<g clip-path="url(#clip0_306_43357)">
<path d="M254.68 356.237L338.2 308.696C341.235 306.962 340.801 303.783 337.333 301.76L289.36 274.017C285.892 271.994 280.545 271.705 277.511 273.583L193.99 321.123C190.956 322.857 191.389 326.036 194.857 328.059L242.831 355.803C246.299 357.682 251.645 357.971 254.68 356.237Z" fill="#173D7A"/>
<path d="M29.2493 293.099C29.2493 294.11 28.5268 295.411 27.6598 295.844C26.7928 296.422 26.0703 295.989 26.0703 294.977C26.0703 293.966 26.7928 292.665 27.6598 292.232C28.5268 291.654 29.2493 292.087 29.2493 293.099Z" fill="#D4ECFF"/>
<path d="M191.818 297.857V116.222L264.068 97.2925L277.362 89.634C280.396 87.9001 285.743 88.0446 289.211 90.0675L301.638 97.2925H340.219L328.803 272.715C328.948 273.871 328.225 275.027 326.78 275.894L254.675 330.225C251.641 331.959 246.294 331.815 242.826 329.792L194.853 302.048C192.685 300.892 191.674 299.302 191.818 297.857Z" fill="#396CAA"/>
<path d="M282.852 88.4766C285.019 88.4766 287.476 89.0546 289.21 90.2105L301.637 97.4355H340.218V279.649C340.362 280.805 339.64 281.961 338.195 282.828L254.674 330.224C253.229 331.091 251.206 331.524 249.183 331.38L248.316 148.155L282.852 88.4766Z" fill="#D4ECFF"/>
<path d="M253.951 330.658C251.35 331.814 247.449 331.67 244.414 330.514V145.988H253.951V330.658Z" fill="#5793CE"/>
<path d="M254.676 148.155L338.196 100.614C341.231 98.8803 340.797 95.7013 337.329 93.6783L289.356 65.9345C285.888 63.9115 280.541 63.6225 277.507 65.501L193.986 113.041C190.952 114.775 191.385 117.954 194.853 119.977L242.827 147.721C246.295 149.744 251.641 149.889 254.676 148.155Z" fill="#D4ECFF"/>
<path d="M194.706 116.511L242.68 144.255C246.148 146.278 251.494 146.567 254.529 144.688L338.049 97.1482C338.772 96.7147 339.205 96.2812 339.639 95.8477C340.65 97.5816 340.217 99.3156 338.049 100.616L254.673 148.156C251.639 149.89 246.292 149.746 242.824 147.723L194.851 119.979C192.105 118.39 191.238 116.222 192.539 114.488C192.828 115.211 193.695 115.933 194.706 116.511Z" fill="#FAFDFF"/>
<path d="M252.354 128.792L307.986 96.5691C309.431 95.7021 309.287 94.2571 307.553 93.3901L285.011 80.3852C283.421 79.3737 280.82 79.3737 279.375 80.0962L223.743 112.32C222.298 113.187 222.443 114.632 224.177 115.499L246.718 128.503C248.308 129.515 250.909 129.659 252.354 128.792Z" fill="#173D7A"/>
<path d="M282.268 98.0176L285.447 96.1392C285.591 95.9947 285.591 95.8502 285.447 95.7057L282.268 93.9717C281.979 93.8272 281.69 93.8272 281.545 93.9717L278.366 95.8501C278.222 95.9946 278.222 96.1391 278.366 96.2836L281.545 98.0176C281.69 98.1621 282.123 98.1621 282.268 98.0176Z" fill="#D4ECFF"/>
<path d="M271.572 104.232L274.751 102.354C274.896 102.209 274.896 102.065 274.751 101.921L271.572 100.186C271.283 100.042 270.994 100.042 270.85 100.186L267.671 102.065C267.526 102.209 267.526 102.354 267.671 102.498L270.85 104.232C270.994 104.377 271.283 104.377 271.572 104.232Z" fill="#D4ECFF"/>
<path d="M260.733 110.447L263.911 108.569C264.056 108.424 264.056 108.28 263.911 108.135L260.733 106.401C260.444 106.257 260.155 106.257 260.01 106.401L256.831 108.28C256.687 108.424 256.687 108.569 256.831 108.713L260.01 110.447C260.299 110.592 260.588 110.592 260.733 110.447Z" fill="#D4ECFF"/>
<path d="M250.041 116.658L253.22 114.78C253.365 114.635 253.365 114.491 253.22 114.346L250.041 112.612C249.752 112.468 249.463 112.468 249.319 112.612L246.14 114.491C245.995 114.635 245.995 114.78 246.14 114.924L249.319 116.658C249.463 116.803 249.897 116.803 250.041 116.658Z" fill="#D4ECFF"/>
<path d="M307.844 96.5734C307.699 96.5734 307.555 96.4289 307.41 96.4289L284.868 83.424C283.279 82.4125 280.678 82.4125 279.233 83.135L223.745 115.358C222.445 114.347 222.3 113.191 223.745 112.324L279.377 80.1005C280.822 79.2335 283.279 79.378 285.013 80.3895L307.555 93.3945C309.144 94.406 309.289 95.8509 307.844 96.5734Z" fill="#5793CE"/>
<path d="M233.438 184.137L201.792 166.075C200.058 165.063 198.613 162.318 198.613 159.861V148.59C198.613 146.278 200.058 145.122 201.792 146.134L233.438 164.196C235.172 165.208 236.617 167.953 236.617 170.41V181.68C236.617 184.137 235.172 185.148 233.438 184.137Z" fill="#173D7A"/>
<path d="M200.203 145.848C199.769 146.281 199.336 147.148 199.336 148.16V159.431C199.336 161.743 200.781 164.488 202.515 165.644L234.16 183.706C234.738 183.995 235.316 184.14 235.75 183.995C235.172 184.573 234.305 184.573 233.293 184.14L201.792 166.078C200.058 165.066 198.613 162.321 198.613 159.864V148.593C198.613 147.004 199.191 145.992 200.203 145.848Z" fill="white"/>
<path d="M223.898 171.855L221.008 170.121C220.574 169.832 220.285 169.254 220.285 168.821V165.786C220.285 165.208 220.574 165.064 221.008 165.208L223.898 166.942C224.331 167.231 224.62 167.809 224.62 168.243V171.277C224.62 171.855 224.331 172.144 223.898 171.855Z" fill="#396CAA"/>
<path d="M214.218 166.223L211.328 164.489C210.894 164.2 210.605 163.622 210.605 163.188V160.154C210.605 159.576 210.894 159.431 211.328 159.576L214.218 161.31C214.651 161.599 214.94 162.177 214.94 162.61V165.645C214.94 166.223 214.507 166.512 214.218 166.223Z" fill="white"/>
<path d="M233.438 265.781L201.792 247.719C200.058 246.708 198.613 243.962 198.613 241.506V230.235C198.613 227.923 200.058 226.767 201.792 227.778L233.438 245.841C235.172 246.852 236.617 249.598 236.617 252.054V263.325C236.617 265.781 235.172 266.793 233.438 265.781Z" fill="#173D7A"/>
<path d="M200.203 227.492C199.769 227.926 199.336 228.793 199.336 229.804V241.075C199.336 243.387 200.781 246.133 202.515 247.289L234.16 265.351C234.738 265.64 235.316 265.784 235.75 265.64C235.172 266.218 234.305 266.218 233.293 265.784L201.648 247.722C199.914 246.711 198.469 243.965 198.469 241.509V230.238C198.613 228.648 199.191 227.637 200.203 227.492Z" fill="white"/>
<path d="M223.894 253.496L221.004 251.762C220.57 251.473 220.281 250.895 220.281 250.461V247.427C220.281 246.849 220.57 246.704 221.004 246.849L223.894 248.583C224.327 248.872 224.616 249.45 224.616 249.883V252.918C224.616 253.496 224.327 253.785 223.894 253.496Z" fill="#396CAA"/>
<path d="M214.214 247.863L211.324 246.129C210.891 245.84 210.602 245.262 210.602 244.829V241.794C210.602 241.216 210.891 241.072 211.324 241.216L214.214 242.95C214.648 243.239 214.937 243.817 214.937 244.251V247.285C214.937 247.863 214.503 248.152 214.214 247.863Z" fill="white"/>
<path d="M233.438 306.676L201.792 288.614C200.058 287.602 198.613 284.857 198.613 282.4V271.129C198.613 268.817 200.058 267.661 201.792 268.673L233.438 286.735C235.172 287.747 236.617 290.492 236.617 292.949V304.22C236.617 306.532 235.172 307.688 233.438 306.676Z" fill="#173D7A"/>
<path d="M200.203 268.234C199.769 268.668 199.336 269.535 199.336 270.546V281.817C199.336 284.129 200.781 286.875 202.515 288.031L234.16 306.093C234.738 306.382 235.316 306.527 235.75 306.382C235.172 306.96 234.305 306.96 233.293 306.527L201.648 288.464C199.914 287.453 198.469 284.707 198.469 282.251V270.98C198.613 269.39 199.191 268.523 200.203 268.234Z" fill="white"/>
<path d="M223.894 294.383L221.004 292.649C220.57 292.36 220.281 291.782 220.281 291.348V288.314C220.281 287.736 220.57 287.591 221.004 287.736L223.894 289.47C224.327 289.759 224.616 290.337 224.616 290.77V293.805C224.616 294.383 224.327 294.527 223.894 294.383Z" fill="#396CAA"/>
<path d="M214.214 288.75L211.324 287.016C210.891 286.727 210.602 286.149 210.602 285.715V282.681C210.602 282.103 210.891 281.958 211.324 282.103L214.214 283.837C214.648 284.126 214.937 284.704 214.937 285.137V288.172C214.937 288.75 214.503 288.894 214.214 288.75Z" fill="white"/>
<path d="M233.438 225.039L201.792 206.977C200.058 205.965 198.613 203.22 198.613 200.763V189.493C198.613 187.181 200.058 186.025 201.792 187.036L233.438 205.098C235.172 206.11 236.617 208.855 236.617 211.312V222.583C236.617 224.895 235.172 226.051 233.438 225.039Z" fill="#173D7A"/>
<path d="M200.203 186.598C199.769 187.031 199.336 187.898 199.336 188.91V200.181C199.336 202.493 200.781 205.238 202.515 206.394L234.16 224.456C234.738 224.745 235.316 224.89 235.75 224.745C235.172 225.323 234.305 225.323 233.293 224.89L201.648 206.828C199.914 205.816 198.469 203.071 198.469 200.614V189.343C198.613 187.754 199.191 186.887 200.203 186.598Z" fill="white"/>
<path d="M223.894 212.75L221.004 211.016C220.57 210.727 220.281 210.149 220.281 209.715V206.536C220.281 205.958 220.57 205.814 221.004 205.958L223.894 207.692C224.327 207.981 224.616 208.559 224.616 208.993V212.027C224.616 212.605 224.327 212.894 223.894 212.75Z" fill="#396CAA"/>
<path d="M214.214 207.113L211.324 205.379C210.891 205.09 210.602 204.512 210.602 204.079V201.044C210.602 200.466 210.891 200.322 211.324 200.466L214.214 202.2C214.648 202.489 214.937 203.067 214.937 203.501V206.535C214.937 207.113 214.503 207.258 214.214 207.113Z" fill="white"/>
<path d="M260.749 172.575L333.577 130.526C335.166 129.514 336.467 127.058 336.467 124.891V111.019C336.467 108.851 335.166 107.84 333.577 108.851L260.749 150.9C259.16 151.912 257.859 154.368 257.859 156.536V170.408C257.859 172.575 259.16 173.442 260.749 172.575Z" fill="#5793CE"/>
<path opacity="0.4" d="M262.917 167.661L331.698 127.923C332.565 127.49 333.143 126.189 333.143 125.033V114.629C333.143 113.473 332.421 113.04 331.698 113.473L262.917 153.211C262.05 153.644 261.472 154.945 261.472 156.101V166.505C261.327 167.661 262.05 168.239 262.917 167.661Z" fill="#D4ECFF"/>
<path d="M317.25 130.96L327.509 125.035C328.376 124.602 328.954 123.301 328.954 122.29C328.954 121.278 328.232 120.7 327.509 121.134L317.25 127.058C316.383 127.492 315.805 128.792 315.805 129.804C315.805 130.96 316.383 131.538 317.25 130.96Z" fill="#D4ECFF"/>
<path d="M308.434 134.135C308.434 135.147 309.156 135.581 310.168 135.147C311.035 134.569 311.902 133.269 311.902 132.257C311.902 131.246 311.179 130.812 310.168 131.246C309.301 131.679 308.434 132.979 308.434 134.135Z" fill="#173D7A"/>
<path d="M302.508 137.46C302.508 138.471 303.23 138.905 304.242 138.471C305.109 137.893 305.976 136.593 305.976 135.581C305.976 134.57 305.253 134.136 304.242 134.57C303.375 135.148 302.508 136.448 302.508 137.46Z" fill="#173D7A"/>
<path d="M296.586 140.928C296.586 141.94 297.308 142.373 298.32 141.94C299.187 141.362 300.054 140.061 300.054 139.05C300.054 138.038 299.331 137.605 298.32 138.038C297.453 138.616 296.586 139.917 296.586 140.928Z" fill="#D4ECFF"/>
<path d="M290.656 144.401C290.656 145.413 291.379 145.846 292.39 145.413C293.257 144.835 294.124 143.534 294.124 142.523C294.124 141.511 293.402 141.078 292.39 141.511C291.523 141.945 290.656 143.245 290.656 144.401Z" fill="#173D7A"/>
<path d="M265.805 161.882L269.273 159.859C269.851 159.57 270.14 158.703 270.14 158.125V154.513C270.14 153.79 269.707 153.501 269.273 153.79L265.805 155.813C265.227 156.102 264.938 156.969 264.938 157.547V161.16C264.794 161.882 265.227 162.171 265.805 161.882Z" fill="#173D7A"/>
<path d="M260.749 197.138L333.577 155.088C335.166 154.077 336.467 151.621 336.467 149.453V135.581C336.467 133.414 335.166 132.402 333.577 133.414L260.749 175.463C259.16 176.474 257.859 178.931 257.859 181.098V194.97C257.859 196.993 259.16 198.005 260.749 197.138Z" fill="#5793CE"/>
<path opacity="0.4" d="M262.917 192.223L331.698 152.486C332.565 152.052 333.143 150.752 333.143 149.596V139.192C333.143 138.036 332.421 137.602 331.698 138.036L262.917 177.773C262.05 178.207 261.472 179.507 261.472 180.663V191.067C261.327 192.223 262.05 192.657 262.917 192.223Z" fill="#D4ECFF"/>
<path d="M317.25 155.522L327.509 149.598C328.376 149.164 328.954 147.864 328.954 146.852C328.954 145.841 328.232 145.263 327.509 145.696L317.25 151.621C316.383 152.054 315.805 153.355 315.805 154.366C315.805 155.522 316.383 155.956 317.25 155.522Z" fill="#D4ECFF"/>
<path d="M308.434 158.557C308.434 159.569 309.156 160.002 310.168 159.569C311.035 158.991 311.902 157.69 311.902 156.679C311.902 155.667 311.179 155.234 310.168 155.667C309.301 156.245 308.434 157.546 308.434 158.557Z" fill="white"/>
<path d="M302.508 162.022C302.508 163.034 303.23 163.467 304.242 163.034C305.109 162.456 305.976 161.155 305.976 160.144C305.976 159.132 305.253 158.699 304.242 159.132C303.375 159.71 302.508 161.011 302.508 162.022Z" fill="#173D7A"/>
<path d="M296.586 165.491C296.586 166.502 297.308 166.936 298.32 166.502C299.331 166.069 300.054 164.624 300.054 163.612C300.054 162.601 299.331 162.167 298.32 162.601C297.453 163.034 296.586 164.335 296.586 165.491Z" fill="#D4ECFF"/>
<path d="M290.656 168.964C290.656 169.975 291.379 170.409 292.39 169.975C293.257 169.397 294.124 168.097 294.124 167.085C294.124 166.074 293.402 165.64 292.39 166.074C291.523 166.507 290.656 167.808 290.656 168.964Z" fill="#173D7A"/>
<path d="M265.805 186.445L269.273 184.422C269.851 184.133 270.14 183.266 270.14 182.688V179.075C270.14 178.353 269.707 178.064 269.273 178.353L265.805 180.376C265.227 180.665 264.938 181.532 264.938 182.11V185.722C264.794 186.3 265.227 186.734 265.805 186.445Z" fill="#173D7A"/>
<path d="M260.749 221.567L333.577 179.518C335.166 178.507 336.467 176.05 336.467 173.883V160.011C336.467 157.843 335.166 156.832 333.577 157.843L260.749 199.893C259.16 200.904 257.859 203.361 257.859 205.528V219.4C257.859 221.567 259.16 222.579 260.749 221.567Z" fill="#5793CE"/>
<path opacity="0.4" d="M262.917 216.653L331.698 176.916C332.565 176.482 333.143 175.182 333.143 174.026V163.622C333.143 162.466 332.421 162.032 331.698 162.466L262.917 202.203C262.05 202.636 261.472 203.937 261.472 205.093V215.497C261.327 216.653 262.05 217.231 262.917 216.653Z" fill="#D4ECFF"/>
<path d="M317.25 180.1L327.509 174.176C328.376 173.743 328.954 172.442 328.954 171.431C328.954 170.419 328.232 169.841 327.509 170.275L317.25 176.199C316.383 176.633 315.805 177.933 315.805 178.944C315.805 179.956 316.383 180.534 317.25 180.1Z" fill="#D4ECFF"/>
<path d="M308.434 183.128C308.434 184.139 309.156 184.573 310.168 184.139C311.035 183.561 311.902 182.261 311.902 181.249C311.902 180.238 311.179 179.804 310.168 180.238C309.301 180.816 308.434 182.116 308.434 183.128Z" fill="white"/>
<path d="M302.508 186.6C302.508 187.612 303.23 188.045 304.242 187.612C305.109 187.034 305.976 185.733 305.976 184.722C305.976 183.71 305.253 183.277 304.242 183.71C303.375 184.144 302.508 185.444 302.508 186.6Z" fill="#173D7A"/>
<path d="M296.586 189.921C296.586 190.932 297.308 191.366 298.32 190.932C299.331 190.499 300.054 189.054 300.054 188.042C300.054 187.031 299.331 186.597 298.32 187.031C297.453 187.609 296.586 188.909 296.586 189.921Z" fill="#D4ECFF"/>
<path d="M290.656 193.393C290.656 194.405 291.379 194.838 292.39 194.405C293.257 193.827 294.124 192.526 294.124 191.515C294.124 190.503 293.402 190.07 292.39 190.503C291.523 191.081 290.656 192.382 290.656 193.393Z" fill="#173D7A"/>
<path d="M265.805 210.875L269.273 208.852C269.851 208.563 270.14 207.696 270.14 207.118V203.505C270.14 202.783 269.707 202.494 269.273 202.783L265.805 204.806C265.227 205.095 264.938 205.962 264.938 206.54V210.152C264.794 210.875 265.227 211.164 265.805 210.875Z" fill="#173D7A"/>
<path d="M260.75 246.134L333.577 204.085C335.167 203.073 336.467 200.617 336.467 198.449V184.577C336.467 182.41 335.167 181.398 333.577 182.41L260.75 224.459C259.16 225.47 257.86 227.927 257.86 230.094V243.966C257.86 245.989 259.16 247.001 260.75 246.134Z" fill="#5793CE"/>
<path opacity="0.4" d="M262.917 241.219L331.698 201.482C332.565 201.049 333.143 199.748 333.143 198.592V188.188C333.143 187.032 332.421 186.599 331.698 187.032L262.917 226.769C262.05 227.203 261.472 228.503 261.472 229.659V240.063C261.327 241.219 262.05 241.653 262.917 241.219Z" fill="#D4ECFF"/>
<path d="M317.25 204.518L327.509 198.594C328.376 198.16 328.954 196.86 328.954 195.848C328.954 194.837 328.232 194.259 327.509 194.692L317.25 200.617C316.383 201.05 315.805 202.351 315.805 203.362C315.805 204.518 316.383 204.952 317.25 204.518Z" fill="#D4ECFF"/>
<path d="M308.434 207.694C308.434 208.706 309.156 209.139 310.168 208.706C311.035 208.128 311.902 206.827 311.902 205.816C311.902 204.804 311.179 204.371 310.168 204.804C309.301 205.238 308.434 206.538 308.434 207.694Z" fill="#173D7A"/>
<path d="M302.508 211.018C302.508 212.03 303.231 212.463 304.242 212.03C305.109 211.452 305.976 210.151 305.976 209.14C305.976 208.128 305.254 207.695 304.242 208.128C303.375 208.706 302.508 210.007 302.508 211.018Z" fill="#173D7A"/>
<path d="M296.586 214.487C296.586 215.499 297.309 215.932 298.32 215.499C299.332 215.065 300.054 213.62 300.054 212.609C300.054 211.597 299.332 211.164 298.32 211.597C297.453 212.175 296.586 213.476 296.586 214.487Z" fill="#D4ECFF"/>
<path d="M290.656 217.96C290.656 218.971 291.379 219.405 292.391 218.971C293.402 218.538 294.124 217.093 294.124 216.081C294.124 215.07 293.402 214.636 292.391 215.07C291.524 215.503 290.656 216.804 290.656 217.96Z" fill="#173D7A"/>
<path d="M265.805 235.441L269.273 233.418C269.851 233.129 270.14 232.262 270.14 231.684V228.072C270.14 227.349 269.707 227.06 269.273 227.349L265.805 229.372C265.227 229.661 264.938 230.528 264.938 231.106V234.718C264.794 235.441 265.227 235.73 265.805 235.441Z" fill="#D4ECFF"/>
<path d="M260.749 270.548L333.577 228.499C335.166 227.487 336.467 225.031 336.467 222.863V208.991C336.467 206.824 335.166 205.812 333.577 206.824L260.749 248.873C259.16 249.885 257.859 252.341 257.859 254.508V268.38C257.859 270.548 259.16 271.559 260.749 270.548Z" fill="#5793CE"/>
<path opacity="0.4" d="M262.917 265.774L331.698 226.037C332.565 225.603 333.143 224.303 333.143 223.147V212.743C333.143 211.587 332.421 211.153 331.698 211.587L262.917 251.324C262.05 251.758 261.472 253.058 261.472 254.214V264.618C261.327 265.774 262.05 266.207 262.917 265.774Z" fill="#D4ECFF"/>
<path d="M317.25 229.081L327.509 223.156C328.376 222.723 328.954 221.422 328.954 220.411C328.954 219.4 328.232 218.821 327.509 219.255L317.25 225.179C316.383 225.613 315.805 226.913 315.805 227.925C315.805 229.081 316.383 229.514 317.25 229.081Z" fill="#D4ECFF"/>
<path d="M308.434 232.108C308.434 233.12 309.156 233.553 310.168 233.12C311.035 232.542 311.902 231.241 311.902 230.23C311.902 229.218 311.179 228.785 310.168 229.218C309.301 229.796 308.434 231.097 308.434 232.108Z" fill="#173D7A"/>
<path d="M302.508 235.581C302.508 236.592 303.23 237.026 304.242 236.592C305.109 236.014 305.976 234.714 305.976 233.702C305.976 232.691 305.253 232.257 304.242 232.691C303.375 233.269 302.508 234.569 302.508 235.581Z" fill="white"/>
<path d="M296.586 239.05C296.586 240.061 297.308 240.495 298.32 240.061C299.331 239.628 300.054 238.183 300.054 237.171C300.054 236.16 299.331 235.726 298.32 236.16C297.308 236.593 296.586 237.894 296.586 239.05Z" fill="#D4ECFF"/>
<path d="M290.656 242.374C290.656 243.385 291.379 243.819 292.39 243.385C293.402 242.952 294.124 241.507 294.124 240.495C294.124 239.484 293.402 239.05 292.39 239.484C291.523 240.062 290.656 241.362 290.656 242.374Z" fill="white"/>
<path d="M265.805 259.855L269.273 257.832C269.851 257.543 270.14 256.676 270.14 256.098V252.486C270.14 251.763 269.707 251.474 269.273 251.763L265.805 253.786C265.227 254.075 264.938 254.942 264.938 255.52V259.133C264.794 259.855 265.227 260.289 265.805 259.855Z" fill="#D4ECFF"/>
<path d="M260.749 295.11L333.577 253.061C335.166 252.05 336.467 249.593 336.467 247.426V233.554C336.467 231.386 335.166 230.375 333.577 231.386L260.749 273.436C259.16 274.447 257.859 276.904 257.859 279.071V292.943C257.859 295.11 259.16 296.122 260.749 295.11Z" fill="#5793CE"/>
<path opacity="0.4" d="M262.917 290.196L331.698 250.459C332.565 250.025 333.143 248.725 333.143 247.569V237.165C333.143 236.009 332.421 235.575 331.698 236.009L262.917 275.746C262.05 276.179 261.472 277.48 261.472 278.636V289.04C261.327 290.196 262.05 290.774 262.917 290.196Z" fill="#D4ECFF"/>
<path d="M317.25 253.495L327.509 247.571C328.376 247.137 328.954 245.837 328.954 244.825C328.954 243.814 328.232 243.236 327.509 243.669L317.25 249.594C316.383 250.027 315.805 251.328 315.805 252.339C315.805 253.495 316.383 254.073 317.25 253.495Z" fill="#D4ECFF"/>
<path d="M308.434 256.671C308.434 257.682 309.156 258.116 310.168 257.682C311.035 257.104 311.902 255.804 311.902 254.792C311.902 253.781 311.179 253.347 310.168 253.781C309.301 254.359 308.434 255.659 308.434 256.671Z" fill="#173D7A"/>
<path d="M302.508 260.143C302.508 261.155 303.23 261.588 304.242 261.155C305.109 260.577 305.976 259.276 305.976 258.265C305.976 257.253 305.253 256.82 304.242 257.253C303.375 257.687 302.508 258.987 302.508 260.143Z" fill="#173D7A"/>
<path d="M296.586 263.464C296.586 264.475 297.308 264.909 298.32 264.475C299.331 264.042 300.054 262.597 300.054 261.585C300.054 260.574 299.331 260.14 298.32 260.574C297.308 261.007 296.586 262.452 296.586 263.464Z" fill="#D4ECFF"/>
<path d="M290.656 266.936C290.656 267.948 291.379 268.381 292.39 267.948C293.402 267.514 294.124 266.069 294.124 265.058C294.124 264.046 293.402 263.613 292.39 264.046C291.523 264.624 290.656 265.925 290.656 266.936Z" fill="#173D7A"/>
<path d="M265.805 284.418L269.273 282.395C269.851 282.106 270.14 281.239 270.14 280.661V277.048C270.14 276.326 269.707 276.037 269.273 276.326L265.805 278.349C265.227 278.638 264.938 279.505 264.938 280.083V283.695C264.794 284.418 265.227 284.707 265.805 284.418Z" fill="#173D7A"/>
<path d="M260.749 319.681L333.577 277.631C335.166 276.62 336.467 274.163 336.467 271.996V258.124C336.467 255.957 335.166 254.945 333.577 255.957L260.749 298.006C259.16 299.017 257.859 301.474 257.859 303.641V317.513C257.859 319.536 259.16 320.548 260.749 319.681Z" fill="#5793CE"/>
<path opacity="0.4" d="M262.917 314.766L331.698 275.029C332.565 274.595 333.143 273.295 333.143 272.139V261.735C333.143 260.579 332.421 260.145 331.698 260.579L262.917 300.316C262.05 300.75 261.472 302.05 261.472 303.206V313.61C261.327 314.766 262.05 315.2 262.917 314.766Z" fill="#D4ECFF"/>
<path d="M317.25 278.065L327.509 272.141C328.376 271.707 328.954 270.407 328.954 269.395C328.954 268.384 328.232 267.806 327.509 268.239L317.25 274.164C316.383 274.597 315.805 275.898 315.805 276.909C315.805 278.065 316.383 278.499 317.25 278.065Z" fill="#D4ECFF"/>
<path d="M306.703 282.544C306.703 284.567 308.148 285.434 309.882 284.422C311.616 283.411 313.061 280.954 313.061 278.931C313.061 276.908 311.616 276.041 309.882 277.053C308.004 278.064 306.703 280.521 306.703 282.544Z" fill="white"/>
<path d="M294.418 289.772C294.418 290.784 295.14 291.217 296.152 290.784C297.019 290.206 297.886 288.905 297.886 287.894C297.886 286.882 297.163 286.449 296.152 286.882C295.14 287.316 294.418 288.616 294.418 289.772Z" fill="#173D7A"/>
<path d="M288.352 293.089C288.352 294.1 289.074 294.534 290.086 294.1C290.953 293.522 291.82 292.222 291.82 291.21C291.82 290.199 291.097 289.765 290.086 290.199C289.219 290.777 288.352 292.077 288.352 293.089Z" fill="#D4ECFF"/>
<path d="M282.422 296.565C282.422 297.577 283.144 298.01 284.156 297.577C285.023 296.999 285.89 295.698 285.89 294.687C285.89 293.675 285.167 293.242 284.156 293.675C283.289 294.109 282.422 295.409 282.422 296.565Z" fill="#173D7A"/>
<path d="M265.805 308.988L269.273 306.965C269.851 306.676 270.14 305.809 270.14 305.231V301.618C270.14 300.896 269.707 300.607 269.273 300.896L265.805 302.919C265.227 303.208 264.938 304.075 264.938 304.653V308.265C264.794 308.988 265.227 309.277 265.805 308.988Z" fill="#D4ECFF"/>
<path d="M57.8612 375.029V193.394L130.111 174.464L143.405 166.806C146.439 165.072 151.786 165.216 155.254 167.239L167.681 174.464H206.262L194.846 349.886C194.991 351.042 194.268 352.198 192.823 353.065L120.718 407.397C117.684 409.131 112.337 408.987 108.869 406.964L60.8957 379.22C58.7282 377.919 57.7167 376.474 57.8612 375.029Z" fill="#396CAA"/>
<path d="M148.895 165.648C151.062 165.648 153.519 166.226 155.253 167.382L167.68 174.607H206.261V356.821C206.405 357.977 205.683 359.133 204.238 360L120.717 407.396C119.272 408.263 117.249 408.696 115.226 408.552L114.359 225.327L148.895 165.648Z" fill="#D4ECFF"/>
<path d="M119.994 407.689C117.393 408.845 113.492 408.701 110.457 407.545V223.02H119.994V407.689Z" fill="#5793CE"/>
<path d="M120.719 225.326L204.239 177.786C207.274 176.052 206.84 172.873 203.372 170.85L155.399 143.106C151.931 141.083 146.584 140.794 143.55 142.673L60.0293 190.213C56.9948 191.947 57.4283 195.126 60.8962 197.149L108.87 224.893C112.338 226.771 117.684 227.06 120.719 225.326Z" fill="#D4ECFF"/>
<path d="M60.749 193.683L108.723 221.427C112.191 223.45 117.537 223.739 120.572 221.86L204.092 174.32C204.815 173.887 205.248 173.453 205.682 173.02C206.693 174.754 206.26 176.488 204.092 177.788L120.716 225.328C117.682 227.062 112.335 226.918 108.867 224.895L60.8935 197.151C58.148 195.561 57.2811 193.394 58.5816 191.66C58.8706 192.238 59.593 193.105 60.749 193.683Z" fill="#FAFDFF"/>
<path d="M118.405 205.957L174.037 173.733C175.482 172.866 175.337 171.421 173.603 170.554L151.061 157.549C149.472 156.538 146.871 156.538 145.426 157.26L89.9383 189.484C88.4934 190.351 88.6379 191.796 90.3718 192.663L112.914 205.668C114.359 206.679 116.96 206.824 118.405 205.957Z" fill="#173D7A"/>
<path d="M148.322 175.182L151.501 173.303C151.646 173.159 151.646 173.014 151.501 172.87L148.322 171.136C148.033 170.991 147.744 170.991 147.6 171.136L144.421 173.014C144.276 173.159 144.276 173.303 144.421 173.448L147.6 175.182C147.744 175.326 148.178 175.326 148.322 175.182Z" fill="#D4ECFF"/>
<path d="M137.627 181.397L140.806 179.518C140.951 179.374 140.951 179.229 140.806 179.085L137.627 177.351C137.338 177.206 137.049 177.206 136.905 177.351L133.726 179.229C133.581 179.374 133.581 179.518 133.726 179.663L136.905 181.397C137.049 181.541 137.338 181.541 137.627 181.397Z" fill="#D4ECFF"/>
<path d="M126.787 187.611L129.966 185.733C130.111 185.588 130.111 185.444 129.966 185.299L126.787 183.565C126.498 183.421 126.209 183.421 126.065 183.565L122.886 185.444C122.741 185.588 122.741 185.733 122.886 185.877L126.065 187.611C126.209 187.756 126.643 187.756 126.787 187.611Z" fill="#D4ECFF"/>
<path d="M116.096 193.822L119.275 191.944C119.419 191.799 119.419 191.655 119.275 191.51L116.096 189.776C115.807 189.632 115.518 189.632 115.373 189.776L112.194 191.655C112.05 191.799 112.05 191.944 112.194 192.088L115.373 193.822C115.518 193.822 115.807 193.822 116.096 193.822Z" fill="#D4ECFF"/>
<path d="M173.894 173.738C173.75 173.738 173.605 173.593 173.461 173.593L150.919 160.588C149.33 159.577 146.729 159.577 145.284 160.299L89.9404 192.522C88.6399 191.511 88.4954 190.355 89.9404 189.488L145.573 157.265C147.018 156.398 149.474 156.542 151.208 157.554L173.75 170.559C175.195 171.57 175.339 172.871 173.894 173.738Z" fill="#5793CE"/>
<path d="M99.4845 261.309L67.8391 243.246C66.1051 242.235 64.6602 239.489 64.6602 237.033V225.762C64.6602 223.45 66.1051 222.294 67.8391 223.306L99.4845 241.368C101.218 242.379 102.663 245.125 102.663 247.581V258.852C102.663 261.164 101.218 262.32 99.4845 261.309Z" fill="#173D7A"/>
<path d="M66.2496 223.02C65.8161 223.453 65.3826 224.32 65.3826 225.332V236.602C65.3826 238.914 66.8276 241.66 68.5616 242.816L100.207 260.878C100.785 261.167 101.363 261.312 101.796 261.167C101.218 261.745 100.351 261.745 99.3399 261.312L67.6946 243.249C65.9606 242.238 64.5156 239.492 64.5156 237.036V225.765C64.6601 224.176 65.2381 223.164 66.2496 223.02Z" fill="white"/>
<path d="M89.9406 249.023L87.0506 247.289C86.6171 247 86.3281 246.422 86.3281 245.989V242.954C86.3281 242.376 86.6171 242.232 87.0506 242.376L89.9406 244.11C90.3741 244.399 90.6631 244.977 90.6631 245.411V248.445C90.6631 249.023 90.2296 249.168 89.9406 249.023Z" fill="#396CAA"/>
<path d="M80.2609 243.39L77.3709 241.657C76.9374 241.368 76.6484 240.789 76.6484 240.356V237.322C76.6484 236.744 76.9374 236.599 77.3709 236.744L80.2609 238.478C80.6944 238.767 80.9834 239.345 80.9834 239.778V242.813C80.9834 243.391 80.5499 243.679 80.2609 243.39Z" fill="white"/>
<path d="M99.4845 342.957L67.8391 324.895C66.1051 323.883 64.6602 321.138 64.6602 318.681V307.41C64.6602 305.098 66.1051 303.943 67.8391 304.954L99.4845 323.016C101.218 324.028 102.663 326.773 102.663 329.23V340.501C102.663 342.813 101.218 343.969 99.4845 342.957Z" fill="#173D7A"/>
<path d="M66.2496 304.668C65.8161 305.101 65.3826 305.968 65.3826 306.98V318.251C65.3826 320.563 66.8276 323.308 68.5616 324.464L100.207 342.527C100.785 342.816 101.363 342.96 101.796 342.816C101.218 343.394 100.351 343.394 99.3399 342.96L67.6946 324.898C65.9606 323.886 64.5156 321.141 64.5156 318.684V307.413C64.6601 305.824 65.2381 304.812 66.2496 304.668Z" fill="white"/>
<path d="M89.9406 330.672L87.0506 328.938C86.6171 328.649 86.3281 328.071 86.3281 327.637V324.603C86.3281 324.025 86.6171 323.88 87.0506 324.025L89.9406 325.759C90.3741 326.048 90.6631 326.626 90.6631 327.059V330.094C90.6631 330.672 90.2296 330.816 89.9406 330.672Z" fill="#396CAA"/>
<path d="M80.2609 325.039L77.3709 323.305C76.9374 323.016 76.6484 322.438 76.6484 322.004V318.97C76.6484 318.392 76.9374 318.247 77.3709 318.392L80.2609 320.126C80.6944 320.415 80.9834 320.993 80.9834 321.426V324.461C80.9834 325.039 80.5499 325.328 80.2609 325.039Z" fill="white"/>
<path d="M99.4845 383.699L67.8391 365.637C66.1051 364.626 64.6602 361.88 64.6602 359.424V348.153C64.6602 345.841 66.1051 344.685 67.8391 345.696L99.4845 363.759C101.218 364.77 102.663 367.516 102.663 369.972V381.243C102.663 383.699 101.218 384.711 99.4845 383.699Z" fill="#173D7A"/>
<path d="M66.2496 345.41C65.8161 345.844 65.3826 346.711 65.3826 347.722V358.993C65.3826 361.305 66.8276 364.051 68.5616 365.207L100.207 383.269C100.785 383.558 101.363 383.702 101.796 383.558C101.218 384.136 100.351 384.136 99.3399 383.702L67.6946 365.64C65.9606 364.629 64.5156 361.883 64.5156 359.427V348.156C64.6601 346.566 65.2381 345.555 66.2496 345.41Z" fill="white"/>
<path d="M89.9406 371.414L87.0506 369.68C86.6171 369.391 86.3281 368.813 86.3281 368.379V365.345C86.3281 364.767 86.6171 364.622 87.0506 364.767L89.9406 366.501C90.3741 366.79 90.6631 367.368 90.6631 367.801V370.836C90.6631 371.414 90.2296 371.703 89.9406 371.414Z" fill="#396CAA"/>
<path d="M80.2609 365.926L77.3709 364.192C76.9374 363.903 76.6484 363.325 76.6484 362.891V359.712C76.6484 359.134 76.9374 358.99 77.3709 359.134L80.2609 360.868C80.6944 361.157 80.9834 361.735 80.9834 362.169V365.203C80.9834 365.926 80.5499 366.07 80.2609 365.926Z" fill="white"/>
<path d="M99.4845 302.063L67.8391 284C66.1051 282.989 64.6602 280.243 64.6602 277.787V266.516C64.6602 264.204 66.1051 263.048 67.8391 264.059L99.4845 282.122C101.218 283.133 102.663 285.879 102.663 288.335V299.606C102.663 302.063 101.218 303.074 99.4845 302.063Z" fill="#173D7A"/>
<path d="M66.2496 263.773C65.8161 264.207 65.3826 265.074 65.3826 266.085V277.356C65.3826 279.668 66.8276 282.414 68.5616 283.57L100.207 301.632C100.785 301.921 101.363 302.066 101.796 301.921C101.218 302.499 100.351 302.499 99.3399 302.066L67.6946 284.003C65.9606 282.992 64.5156 280.246 64.5156 277.79V266.519C64.6601 264.929 65.2381 263.918 66.2496 263.773Z" fill="white"/>
<path d="M89.9406 289.777L87.0506 288.043C86.6171 287.754 86.3281 287.176 86.3281 286.743V283.708C86.3281 283.13 86.6171 282.986 87.0506 283.13L89.9406 284.864C90.3741 285.153 90.6631 285.731 90.6631 286.165V289.199C90.6631 289.777 90.2296 290.066 89.9406 289.777Z" fill="#396CAA"/>
<path d="M80.2609 284.285L77.3709 282.551C76.9374 282.262 76.6484 281.684 76.6484 281.251V278.216C76.6484 277.638 76.9374 277.494 77.3709 277.638L80.2609 279.372C80.6944 279.661 80.9834 280.239 80.9834 280.673V283.707C80.9834 284.141 80.5499 284.43 80.2609 284.285Z" fill="white"/>
<path d="M126.791 249.747L199.618 207.698C201.208 206.686 202.508 204.23 202.508 202.062V188.19C202.508 186.023 201.208 185.011 199.618 186.023L126.791 228.072C125.201 229.084 123.901 231.54 123.901 233.708V247.58C123.756 249.603 125.201 250.614 126.791 249.747Z" fill="#5793CE"/>
<path opacity="0.4" d="M128.812 244.833L197.594 205.095C198.461 204.662 199.039 203.361 199.039 202.205V191.801C199.039 190.645 198.316 190.212 197.594 190.645L128.812 230.383C127.945 230.816 127.367 232.117 127.367 233.273V243.677C127.367 244.833 128.09 245.266 128.812 244.833Z" fill="#D4ECFF"/>
<path d="M183.285 208.132L193.544 202.207C194.411 201.774 194.989 200.473 194.989 199.462C194.989 198.45 194.267 197.872 193.544 198.306L183.285 204.23C182.418 204.664 181.84 205.964 181.84 206.976C181.84 208.132 182.418 208.565 183.285 208.132Z" fill="#D4ECFF"/>
<path d="M174.477 211.307C174.477 212.319 175.199 212.752 176.211 212.319C177.222 211.885 177.945 210.44 177.945 209.429C177.945 208.417 177.222 207.984 176.211 208.417C175.344 208.851 174.477 210.151 174.477 211.307Z" fill="#173D7A"/>
<path d="M168.551 214.632C168.551 215.643 169.273 216.077 170.285 215.643C171.152 215.065 172.019 213.765 172.019 212.753C172.019 211.742 171.296 211.308 170.285 211.742C169.418 212.32 168.551 213.62 168.551 214.632Z" fill="#173D7A"/>
<path d="M162.629 218.1C162.629 219.112 163.351 219.545 164.363 219.112C165.23 218.534 166.097 217.233 166.097 216.222C166.097 215.21 165.374 214.777 164.363 215.21C163.496 215.644 162.629 216.944 162.629 218.1Z" fill="#D4ECFF"/>
<path d="M156.699 221.573C156.699 222.584 157.422 223.018 158.433 222.585C159.3 222.007 160.167 220.706 160.167 219.695C160.167 218.683 159.445 218.25 158.433 218.683C157.422 219.117 156.699 220.417 156.699 221.573Z" fill="#173D7A"/>
<path d="M131.707 239.054L135.175 237.031C135.753 236.742 136.042 235.875 136.042 235.297V231.685C136.042 230.962 135.608 230.673 135.175 230.962L131.707 232.985C131.129 233.274 130.84 234.141 130.84 234.719V238.332C130.84 239.054 131.273 239.343 131.707 239.054Z" fill="#173D7A"/>
<path d="M126.791 274.173L199.618 232.124C201.208 231.112 202.508 228.656 202.508 226.488V212.616C202.508 210.449 201.208 209.437 199.618 210.449L126.791 252.498C125.201 253.51 123.901 255.966 123.901 258.133V272.005C123.756 274.173 125.201 275.184 126.791 274.173Z" fill="#5793CE"/>
<path opacity="0.4" d="M128.812 269.399L197.594 229.662C198.461 229.228 199.039 227.928 199.039 226.772V216.368C199.039 215.212 198.316 214.778 197.594 215.212L128.812 254.949C127.945 255.383 127.367 256.683 127.367 257.839V268.243C127.367 269.254 128.09 269.832 128.812 269.399Z" fill="#D4ECFF"/>
<path d="M183.285 232.706L193.544 226.781C194.411 226.348 194.989 225.047 194.989 224.036C194.989 223.025 194.267 222.446 193.544 222.88L183.285 228.804C182.418 229.238 181.84 230.538 181.84 231.55C181.84 232.561 182.418 233.139 183.285 232.706Z" fill="#D4ECFF"/>
<path d="M174.477 235.733C174.477 236.745 175.199 237.178 176.211 236.745C177.222 236.311 177.945 234.866 177.945 233.855C177.945 232.843 177.222 232.41 176.211 232.843C175.344 233.421 174.477 234.722 174.477 235.733Z" fill="white"/>
<path d="M168.551 239.206C168.551 240.217 169.273 240.651 170.285 240.217C171.152 239.639 172.019 238.339 172.019 237.327C172.019 236.316 171.296 235.882 170.285 236.316C169.418 236.749 168.551 238.05 168.551 239.206Z" fill="#173D7A"/>
<path d="M162.629 242.675C162.629 243.686 163.351 244.12 164.363 243.686C165.23 243.108 166.097 241.808 166.097 240.796C166.097 239.785 165.374 239.351 164.363 239.785C163.496 240.218 162.629 241.519 162.629 242.675Z" fill="#D4ECFF"/>
<path d="M156.699 245.999C156.699 247.01 157.422 247.444 158.433 247.01C159.3 246.432 160.167 245.132 160.167 244.12C160.167 243.109 159.445 242.675 158.433 243.109C157.422 243.687 156.699 244.987 156.699 245.999Z" fill="#173D7A"/>
<path d="M131.707 263.48L135.175 261.457C135.753 261.168 136.042 260.301 136.042 259.723V256.111C136.042 255.388 135.608 255.099 135.175 255.388L131.707 257.411C131.129 257.7 130.84 258.567 130.84 259.145V262.758C130.84 263.48 131.273 263.769 131.707 263.48Z" fill="#173D7A"/>
<path d="M126.791 298.735L199.618 256.686C201.208 255.675 202.508 253.218 202.508 251.051V237.179C202.508 235.011 201.208 234 199.618 235.011L126.791 277.061C125.201 278.072 123.901 280.529 123.901 282.696V296.568C123.756 298.735 125.201 299.602 126.791 298.735Z" fill="#5793CE"/>
<path opacity="0.4" d="M128.812 293.821L197.594 254.084C198.461 253.65 199.039 252.35 199.039 251.194V240.79C199.039 239.634 198.316 239.2 197.594 239.634L128.812 279.371C127.945 279.804 127.367 281.105 127.367 282.261V292.665C127.367 293.821 128.09 294.254 128.812 293.821Z" fill="#D4ECFF"/>
<path d="M183.285 257.12L193.544 251.196C194.411 250.762 194.989 249.462 194.989 248.45C194.989 247.439 194.267 246.861 193.544 247.294L183.285 253.219C182.418 253.652 181.84 254.953 181.84 255.964C181.84 257.12 182.418 257.698 183.285 257.12Z" fill="#D4ECFF"/>
<path d="M174.477 260.296C174.477 261.307 175.199 261.741 176.211 261.307C177.222 260.874 177.945 259.429 177.945 258.417C177.945 257.406 177.222 256.972 176.211 257.406C175.344 257.839 174.477 259.14 174.477 260.296Z" fill="white"/>
<path d="M168.551 263.62C168.551 264.631 169.273 265.065 170.285 264.631C171.152 264.053 172.019 262.753 172.019 261.741C172.019 260.73 171.296 260.296 170.285 260.73C169.418 261.308 168.551 262.608 168.551 263.62Z" fill="#173D7A"/>
<path d="M162.629 267.089C162.629 268.1 163.351 268.534 164.363 268.1C165.23 267.522 166.097 266.222 166.097 265.21C166.097 264.199 165.374 263.765 164.363 264.199C163.496 264.777 162.629 266.077 162.629 267.089Z" fill="#D4ECFF"/>
<path d="M156.699 270.561C156.699 271.573 157.422 272.006 158.433 271.573C159.3 270.995 160.167 269.694 160.167 268.683C160.167 267.671 159.445 267.238 158.433 267.671C157.422 268.105 156.699 269.405 156.699 270.561Z" fill="#173D7A"/>
<path d="M131.707 288.043L135.175 286.02C135.753 285.731 136.042 284.864 136.042 284.286V280.673C136.042 279.951 135.608 279.662 135.175 279.951L131.707 281.974C131.129 282.263 130.84 283.13 130.84 283.708V287.32C130.84 288.043 131.273 288.332 131.707 288.043Z" fill="#173D7A"/>
<path d="M126.791 323.302L199.618 281.253C201.208 280.241 202.508 277.785 202.508 275.617V261.745C202.508 259.578 201.208 258.566 199.618 259.578L126.791 301.627C125.201 302.638 123.901 305.095 123.901 307.262V321.134C123.756 323.157 125.201 324.169 126.791 323.302Z" fill="#5793CE"/>
<path opacity="0.4" d="M128.812 318.387L197.594 278.65C198.461 278.216 199.039 276.916 199.039 275.76V265.356C199.039 264.2 198.316 263.767 197.594 264.2L128.812 303.937C127.945 304.371 127.367 305.671 127.367 306.827V317.231C127.367 318.387 128.09 318.821 128.812 318.387Z" fill="#D4ECFF"/>
<path d="M183.285 281.686L193.544 275.762C194.411 275.328 194.989 274.028 194.989 273.016C194.989 272.005 194.267 271.427 193.544 271.86L183.285 277.785C182.418 278.218 181.84 279.519 181.84 280.53C181.84 281.686 182.418 282.12 183.285 281.686Z" fill="#D4ECFF"/>
<path d="M174.477 284.721C174.477 285.733 175.199 286.166 176.211 285.733C177.078 285.155 177.945 283.854 177.945 282.843C177.945 281.831 177.222 281.398 176.211 281.831C175.344 282.409 174.477 283.71 174.477 284.721Z" fill="#173D7A"/>
<path d="M168.551 288.186C168.551 289.198 169.273 289.631 170.285 289.198C171.152 288.62 172.019 287.319 172.019 286.308C172.019 285.296 171.296 284.863 170.285 285.296C169.418 285.874 168.551 287.175 168.551 288.186Z" fill="#173D7A"/>
<path d="M162.629 291.655C162.629 292.667 163.351 293.1 164.363 292.667C165.23 292.089 166.097 290.788 166.097 289.777C166.097 288.765 165.374 288.332 164.363 288.765C163.496 289.199 162.629 290.499 162.629 291.655Z" fill="#D4ECFF"/>
<path d="M156.699 294.979C156.699 295.991 157.422 296.424 158.433 295.991C159.3 295.413 160.167 294.112 160.167 293.101C160.167 292.089 159.445 291.656 158.433 292.089C157.422 292.667 156.699 293.968 156.699 294.979Z" fill="#173D7A"/>
<path d="M131.707 312.609L135.175 310.586C135.753 310.297 136.042 309.43 136.042 308.852V305.239C136.042 304.517 135.608 304.228 135.175 304.517L131.707 306.54C131.129 306.829 130.84 307.696 130.84 308.274V311.886C130.84 312.464 131.273 312.898 131.707 312.609Z" fill="#D4ECFF"/>
<path d="M126.791 347.72L199.618 305.671C201.208 304.659 202.508 302.203 202.508 300.035V286.163C202.508 283.996 201.208 282.984 199.618 283.996L126.791 326.045C125.201 327.056 123.901 329.513 123.901 331.68V345.552C123.756 347.72 125.201 348.731 126.791 347.72Z" fill="#5793CE"/>
<path opacity="0.4" d="M128.812 342.805L197.594 303.068C198.461 302.634 199.039 301.334 199.039 300.178V289.774C199.039 288.618 198.316 288.185 197.594 288.618L128.812 328.355C127.945 328.789 127.367 330.089 127.367 331.245V341.649C127.367 342.805 128.09 343.383 128.812 342.805Z" fill="#D4ECFF"/>
<path d="M183.285 306.253L193.544 300.328C194.411 299.895 194.989 298.594 194.989 297.583C194.989 296.571 194.267 295.993 193.544 296.427L183.285 302.351C182.418 302.785 181.84 304.085 181.84 305.097C181.84 306.108 182.418 306.686 183.285 306.253Z" fill="#D4ECFF"/>
<path d="M174.477 309.28C174.477 310.292 175.199 310.725 176.211 310.291C177.222 309.858 177.945 308.413 177.945 307.402C177.945 306.39 177.222 305.957 176.211 306.39C175.199 306.824 174.477 308.269 174.477 309.28Z" fill="#173D7A"/>
<path d="M168.551 312.753C168.551 313.764 169.273 314.198 170.285 313.764C171.152 313.186 172.019 311.886 172.019 310.874C172.019 309.863 171.296 309.429 170.285 309.863C169.418 310.296 168.551 311.597 168.551 312.753Z" fill="white"/>
<path d="M162.629 316.073C162.629 317.084 163.351 317.518 164.363 317.085C165.23 316.507 166.097 315.206 166.097 314.195C166.097 313.183 165.374 312.75 164.363 313.183C163.496 313.761 162.629 315.061 162.629 316.073Z" fill="#D4ECFF"/>
<path d="M156.699 319.546C156.699 320.557 157.422 320.991 158.433 320.557C159.3 319.979 160.167 318.679 160.167 317.667C160.167 316.656 159.445 316.222 158.433 316.656C157.422 317.234 156.699 318.534 156.699 319.546Z" fill="white"/>
<path d="M131.707 337.027L135.175 335.004C135.753 334.715 136.042 333.848 136.042 333.27V329.657C136.042 328.935 135.608 328.646 135.175 328.935L131.707 330.958C131.129 331.247 130.84 332.114 130.84 332.692V336.304C130.84 337.027 131.273 337.316 131.707 337.027Z" fill="#D4ECFF"/>
<path d="M126.791 372.286L199.618 330.237C201.208 329.225 202.508 326.769 202.508 324.601V310.585C202.508 308.418 201.208 307.406 199.618 308.418L126.791 350.467C125.201 351.478 123.901 353.935 123.901 356.102V369.974C123.756 372.142 125.201 373.153 126.791 372.286Z" fill="#5793CE"/>
<path opacity="0.4" d="M128.812 367.368L197.594 327.63C198.461 327.197 199.039 325.896 199.039 324.74V314.337C199.039 313.181 198.316 312.747 197.594 313.181L128.812 352.918C127.945 353.351 127.367 354.652 127.367 355.808V366.212C127.367 367.368 128.09 367.801 128.812 367.368Z" fill="#D4ECFF"/>
<path d="M183.285 330.675L193.544 324.75C194.411 324.317 194.989 323.016 194.989 322.005C194.989 320.993 194.267 320.415 193.544 320.849L183.285 326.773C182.418 327.207 181.84 328.507 181.84 329.519C181.84 330.675 182.418 331.108 183.285 330.675Z" fill="#D4ECFF"/>
<path d="M174.477 333.85C174.477 334.862 175.199 335.295 176.211 334.862C177.078 334.284 177.945 332.983 177.945 331.972C177.945 330.96 177.222 330.527 176.211 330.96C175.344 331.394 174.477 332.694 174.477 333.85Z" fill="#173D7A"/>
<path d="M168.551 337.175C168.551 338.186 169.273 338.62 170.285 338.186C171.152 337.608 172.019 336.308 172.019 335.296C172.019 334.285 171.296 333.851 170.285 334.285C169.418 334.863 168.551 336.163 168.551 337.175Z" fill="#173D7A"/>
<path d="M162.629 340.643C162.629 341.655 163.351 342.088 164.363 341.655C165.23 341.077 166.097 339.776 166.097 338.765C166.097 337.753 165.374 337.32 164.363 337.753C163.496 338.331 162.629 339.632 162.629 340.643Z" fill="#D4ECFF"/>
<path d="M156.699 344.108C156.699 345.12 157.422 345.553 158.433 345.12C159.3 344.542 160.167 343.241 160.167 342.23C160.167 341.218 159.445 340.785 158.433 341.218C157.422 341.652 156.699 342.952 156.699 344.108Z" fill="#173D7A"/>
<path d="M131.707 361.589L135.175 359.566C135.753 359.277 136.042 358.41 136.042 357.832V354.22C136.042 353.497 135.608 353.208 135.175 353.497L131.707 355.52C131.129 355.809 130.84 356.676 130.84 357.254V360.867C130.84 361.589 131.273 361.878 131.707 361.589Z" fill="#173D7A"/>
<path d="M126.791 396.704L199.618 354.655C201.208 353.643 202.508 351.187 202.508 349.019V335.148C202.508 332.98 201.208 331.969 199.618 332.98L126.791 375.029C125.201 376.041 123.901 378.497 123.901 380.665V394.537C123.756 396.704 125.201 397.716 126.791 396.704Z" fill="#5793CE"/>
<path opacity="0.4" d="M128.812 391.93L197.594 352.193C198.461 351.759 199.039 350.459 199.039 349.303V338.899C199.039 337.743 198.316 337.31 197.594 337.743L128.812 377.48C127.945 377.914 127.367 379.214 127.367 380.37V390.774C127.367 391.93 128.09 392.364 128.812 391.93Z" fill="#D4ECFF"/>
<path d="M183.285 355.237L193.544 349.313C194.411 348.879 194.989 347.579 194.989 346.567C194.989 345.556 194.267 344.978 193.544 345.411L183.285 351.336C182.418 351.769 181.84 353.07 181.84 354.081C181.84 355.237 182.418 355.671 183.285 355.237Z" fill="#D4ECFF"/>
<path d="M172.602 359.712C172.602 361.735 174.047 362.602 175.781 361.59C177.515 360.579 178.96 358.122 178.96 356.099C178.96 354.076 177.515 353.209 175.781 354.221C174.047 355.088 172.602 357.689 172.602 359.712Z" fill="white"/>
<path d="M160.316 366.796C160.316 367.807 161.039 368.241 162.05 367.807C162.917 367.229 163.784 365.929 163.784 364.917C163.784 363.906 163.062 363.472 162.05 363.906C161.183 364.484 160.316 365.784 160.316 366.796Z" fill="#173D7A"/>
<path d="M154.387 370.264C154.387 371.276 155.109 371.709 156.121 371.276C156.988 370.698 157.855 369.397 157.855 368.386C157.855 367.374 157.132 366.941 156.121 367.374C155.254 367.808 154.387 369.253 154.387 370.264Z" fill="#D4ECFF"/>
<path d="M148.469 373.729C148.469 374.741 149.191 375.174 150.203 374.741C151.07 374.163 151.937 372.862 151.937 371.851C151.937 370.839 151.214 370.406 150.203 370.839C149.336 371.273 148.469 372.573 148.469 373.729Z" fill="#173D7A"/>
<path d="M131.707 386.011L135.175 383.988C135.753 383.699 136.042 382.832 136.042 382.254V378.642C136.042 377.919 135.608 377.63 135.175 377.919L131.707 379.942C131.129 380.231 130.84 381.098 130.84 381.676V385.289C130.84 386.011 131.273 386.445 131.707 386.011Z" fill="#D4ECFF"/>
<path d="M295.584 357.537V175.902L367.833 156.972L381.127 149.314C384.162 147.58 389.508 147.724 392.976 149.747L405.403 156.972H443.985L432.569 332.394C432.714 333.55 431.991 334.706 430.546 335.573L358.441 389.905C355.407 391.639 350.06 391.494 346.592 389.471L298.618 361.728C296.451 360.572 295.439 358.982 295.584 357.537Z" fill="#396CAA"/>
<path d="M386.617 148.156C388.785 148.156 391.241 148.734 392.975 149.89L405.402 157.115H443.984V339.329C444.128 340.485 443.406 341.641 441.961 342.508L358.44 390.048C356.995 390.915 354.972 391.348 352.949 391.204L352.082 207.979L386.617 148.156Z" fill="#D4ECFF"/>
<path d="M357.717 390.338C355.116 391.494 351.214 391.349 348.18 390.193V205.668H357.717V390.338Z" fill="#5793CE"/>
<path d="M358.445 207.834L441.966 160.294C445 158.56 444.567 155.381 441.099 153.358L392.981 125.614C389.513 123.591 384.166 123.302 381.132 125.181L297.611 172.721C294.577 174.455 295.01 177.634 298.478 179.657L346.452 207.401C350.064 209.424 355.411 209.568 358.445 207.834Z" fill="#D4ECFF"/>
<path d="M298.476 176.191L346.449 203.935C349.917 205.958 355.264 206.247 358.298 204.368L441.819 156.828C442.541 156.394 442.975 155.961 443.408 155.527C444.42 157.261 443.986 158.995 441.819 160.296L358.298 207.836C355.264 209.57 349.917 209.426 346.449 207.403L298.476 179.659C295.73 178.069 294.863 175.902 296.164 174.168C296.597 174.89 297.464 175.613 298.476 176.191Z" fill="#FAFDFF"/>
<path d="M356.127 188.472L411.76 156.249C413.204 155.382 413.06 153.937 411.326 153.07L388.784 140.065C387.195 139.053 384.594 139.053 383.149 139.776L327.516 171.999C326.071 172.866 326.216 174.311 327.95 175.178L350.492 188.183C352.081 189.195 354.682 189.339 356.127 188.472Z" fill="#173D7A"/>
<path d="M386.037 157.697L389.216 155.819C389.361 155.674 389.361 155.53 389.216 155.385L386.037 153.651C385.748 153.507 385.459 153.507 385.315 153.651L382.136 155.53C381.991 155.674 381.991 155.819 382.136 155.963L385.315 157.697C385.459 157.842 385.893 157.842 386.037 157.697Z" fill="#D4ECFF"/>
<path d="M375.342 163.912L378.521 162.034C378.665 161.889 378.665 161.745 378.521 161.6L375.342 159.866C375.053 159.722 374.764 159.722 374.619 159.866L371.44 161.745C371.296 161.889 371.296 162.034 371.44 162.178L374.619 163.912C374.764 164.057 375.053 164.057 375.342 163.912Z" fill="#D4ECFF"/>
<path d="M364.502 170.127L367.681 168.249C367.826 168.104 367.826 167.96 367.681 167.815L364.502 166.081C364.213 165.937 363.924 165.937 363.78 166.081L360.601 167.96C360.456 168.104 360.456 168.249 360.601 168.393L363.78 170.127C364.069 170.272 364.358 170.272 364.502 170.127Z" fill="#D4ECFF"/>
<path d="M353.811 176.338L356.99 174.459C357.134 174.315 357.134 174.17 356.99 174.026L353.811 172.292C353.522 172.147 353.233 172.147 353.088 172.292L349.909 174.17C349.765 174.315 349.765 174.459 349.909 174.604L353.088 176.338C353.233 176.482 353.666 176.482 353.811 176.338Z" fill="#D4ECFF"/>
<path d="M411.617 156.253C411.473 156.253 411.328 156.109 411.184 156.109L388.642 143.104C387.052 142.092 384.451 142.092 383.006 142.815L327.519 175.038C326.218 174.027 326.074 172.871 327.519 172.004L383.151 139.78C384.596 138.913 387.052 139.058 388.786 140.069L411.328 153.074C412.918 154.086 413.062 155.531 411.617 156.253Z" fill="#5793CE"/>
<path d="M337.195 243.817L305.55 225.754C303.816 224.743 302.371 221.997 302.371 219.541V208.27C302.371 205.958 303.816 204.802 305.55 205.813L337.195 223.876C338.929 224.887 340.374 227.633 340.374 230.089V241.36C340.374 243.817 338.929 244.828 337.195 243.817Z" fill="#173D7A"/>
<path d="M303.961 205.527C303.527 205.961 303.094 206.828 303.094 207.839V219.11C303.094 221.422 304.539 224.168 306.273 225.324L337.918 243.386C338.496 243.675 339.074 243.82 339.507 243.675C338.929 244.253 338.062 244.253 337.051 243.82L305.406 225.757C303.672 224.746 302.227 222 302.227 219.544V208.273C302.371 206.683 302.949 205.672 303.961 205.527Z" fill="white"/>
<path d="M327.655 231.531L324.765 229.797C324.332 229.508 324.043 228.93 324.043 228.497V225.462C324.043 224.884 324.332 224.74 324.765 224.884L327.655 226.618C328.089 226.907 328.378 227.485 328.378 227.919V230.953C328.378 231.531 328.089 231.82 327.655 231.531Z" fill="#396CAA"/>
<path d="M317.976 225.898L315.086 224.164C314.652 223.875 314.363 223.297 314.363 222.864V219.829C314.363 219.251 314.652 219.107 315.086 219.251L317.976 220.985C318.409 221.274 318.698 221.852 318.698 222.286V225.32C318.698 225.898 318.265 226.187 317.976 225.898Z" fill="white"/>
<path d="M337.195 325.461L305.55 307.399C303.816 306.387 302.371 303.642 302.371 301.185V289.914C302.371 287.602 303.816 286.446 305.55 287.458L337.195 305.52C338.929 306.532 340.374 309.277 340.374 311.734V323.005C340.374 325.461 338.929 326.473 337.195 325.461Z" fill="#173D7A"/>
<path d="M303.961 287.172C303.527 287.605 303.094 288.472 303.094 289.484V300.755C303.094 303.067 304.539 305.812 306.273 306.968L337.918 325.031C338.496 325.32 339.074 325.464 339.507 325.32C338.929 325.898 338.062 325.898 337.051 325.464L305.406 307.402C303.672 306.39 302.227 303.645 302.227 301.188V289.917C302.371 288.328 302.949 287.316 303.961 287.172Z" fill="white"/>
<path d="M327.655 313.176L324.765 311.442C324.332 311.153 324.043 310.575 324.043 310.141V307.107C324.043 306.529 324.332 306.384 324.765 306.529L327.655 308.263C328.089 308.552 328.378 309.13 328.378 309.563V312.598C328.378 313.176 328.089 313.465 327.655 313.176Z" fill="#396CAA"/>
<path d="M317.976 307.543L315.086 305.809C314.652 305.52 314.363 304.942 314.363 304.508V301.474C314.363 300.896 314.652 300.751 315.086 300.896L317.976 302.63C318.409 302.919 318.698 303.497 318.698 303.93V306.965C318.698 307.543 318.265 307.832 317.976 307.543Z" fill="white"/>
<path d="M337.199 366.356L305.554 348.149C303.82 347.137 302.375 344.392 302.375 341.935V330.809C302.375 328.497 303.82 327.341 305.554 328.352L337.199 346.415C338.933 347.426 340.378 350.172 340.378 352.628V363.899C340.378 366.211 338.933 367.367 337.199 366.356Z" fill="#173D7A"/>
<path d="M303.964 327.914C303.531 328.348 303.097 329.215 303.097 330.226V341.497C303.097 343.809 304.543 346.554 306.276 347.71L337.922 365.773C338.5 366.062 339.078 366.206 339.511 366.062C338.933 366.64 338.066 366.64 337.055 366.206L305.554 348.144C303.82 347.132 302.375 344.387 302.375 341.931V330.804C302.375 329.07 302.953 328.203 303.964 327.914Z" fill="white"/>
<path d="M327.663 354.062L324.773 352.328C324.34 352.039 324.051 351.461 324.051 351.028V347.993C324.051 347.415 324.34 347.271 324.773 347.415L327.663 349.149C328.097 349.438 328.386 350.016 328.386 350.45V353.484C328.386 354.062 328.097 354.207 327.663 354.062Z" fill="#396CAA"/>
<path d="M317.984 348.43L315.094 346.696C314.66 346.407 314.371 345.829 314.371 345.395V342.361C314.371 341.783 314.66 341.638 315.094 341.783L317.984 343.517C318.417 343.806 318.706 344.384 318.706 344.817V347.852C318.706 348.43 318.273 348.574 317.984 348.43Z" fill="white"/>
<path d="M337.195 284.719L305.55 266.657C303.816 265.645 302.371 262.9 302.371 260.443V249.172C302.371 246.86 303.816 245.704 305.55 246.716L337.195 264.778C338.929 265.79 340.374 268.535 340.374 270.992V282.262C340.374 284.574 338.929 285.73 337.195 284.719Z" fill="#173D7A"/>
<path d="M303.96 246.277C303.527 246.711 303.093 247.578 303.093 248.589V259.86C303.093 262.172 304.538 264.918 306.272 266.074L337.918 284.136C338.496 284.425 339.074 284.57 339.507 284.425C338.929 285.003 338.062 285.003 337.051 284.57L305.405 266.507C303.671 265.496 302.226 262.75 302.226 260.294V249.023C302.371 247.433 302.949 246.566 303.96 246.277Z" fill="white"/>
<path d="M327.655 272.426L324.765 270.692C324.332 270.403 324.043 269.825 324.043 269.391V266.357C324.043 265.779 324.332 265.634 324.765 265.779L327.655 267.513C328.089 267.802 328.378 268.38 328.378 268.813V271.848C328.378 272.281 328.089 272.57 327.655 272.426Z" fill="#396CAA"/>
<path d="M317.976 266.793L315.086 265.059C314.652 264.77 314.363 264.192 314.363 263.758V260.724C314.363 260.146 314.652 260.001 315.086 260.146L317.976 261.88C318.409 262.169 318.698 262.747 318.698 263.18V266.215C318.698 266.793 318.265 266.937 317.976 266.793Z" fill="white"/>
<path d="M364.503 232.255L437.331 190.206C438.92 189.194 440.221 186.738 440.221 184.57V170.698C440.221 168.531 438.92 167.519 437.331 168.531L364.503 210.436C362.914 211.447 361.613 213.904 361.613 216.071V229.943C361.613 232.255 362.914 233.122 364.503 232.255Z" fill="#5793CE"/>
<path opacity="0.4" d="M366.668 227.336L435.305 187.744C436.172 187.31 436.75 186.01 436.75 184.854V174.45C436.75 173.294 436.027 172.86 435.305 173.294L366.523 213.031C365.656 213.465 365.078 214.765 365.078 215.921V226.325C365.078 227.336 365.801 227.914 366.668 227.336Z" fill="#D4ECFF"/>
<path d="M421.004 190.64L431.263 184.715C432.13 184.282 432.708 182.981 432.708 181.97C432.708 180.958 431.986 180.38 431.263 180.814L421.004 186.738C420.137 187.172 419.559 188.472 419.559 189.484C419.559 190.64 420.137 191.218 421.004 190.64Z" fill="#D4ECFF"/>
<path d="M412.188 193.815C412.188 194.827 412.91 195.26 413.922 194.827C414.789 194.249 415.655 192.948 415.655 191.937C415.655 190.925 414.933 190.492 413.922 190.925C413.055 191.359 412.188 192.659 412.188 193.815Z" fill="#173D7A"/>
<path d="M406.266 197.139C406.266 198.151 406.988 198.584 408 198.151C408.867 197.573 409.734 196.272 409.734 195.261C409.734 194.249 409.011 193.816 408 194.249C407.133 194.827 406.266 196.128 406.266 197.139Z" fill="#173D7A"/>
<path d="M400.34 200.608C400.34 201.62 401.062 202.053 402.074 201.62C403.085 201.186 403.808 199.741 403.808 198.73C403.808 197.718 403.085 197.285 402.074 197.718C401.207 198.296 400.34 199.597 400.34 200.608Z" fill="#D4ECFF"/>
<path d="M394.41 204.081C394.41 205.092 395.133 205.526 396.144 205.092C397.011 204.514 397.878 203.214 397.878 202.202C397.878 201.191 397.156 200.757 396.144 201.191C395.277 201.624 394.41 202.925 394.41 204.081Z" fill="#173D7A"/>
<path d="M369.559 221.562L373.027 219.539C373.605 219.25 373.894 218.383 373.894 217.805V214.193C373.894 213.47 373.461 213.181 373.027 213.47L369.559 215.493C368.981 215.782 368.692 216.649 368.692 217.227V220.84C368.548 221.562 368.981 221.851 369.559 221.562Z" fill="#173D7A"/>
<path d="M364.503 256.817L437.331 214.768C438.92 213.757 440.221 211.3 440.221 209.133V195.261C440.221 193.093 438.92 192.082 437.331 193.093L364.503 234.998C362.914 236.01 361.613 238.466 361.613 240.634V254.505C361.613 256.673 362.914 257.684 364.503 256.817Z" fill="#5793CE"/>
<path opacity="0.4" d="M366.671 251.903L435.452 212.166C436.319 211.732 436.897 210.432 436.897 209.276V198.872C436.897 197.716 436.175 197.282 435.452 197.716L366.671 237.453C365.804 237.886 365.226 239.187 365.226 240.343V250.747C365.081 251.903 365.804 252.336 366.671 251.903Z" fill="#D4ECFF"/>
<path d="M421.004 215.202L431.263 209.278C432.13 208.844 432.708 207.544 432.708 206.532C432.708 205.521 431.986 204.943 431.263 205.376L421.004 211.301C420.137 211.734 419.559 213.035 419.559 214.046C419.559 215.202 420.137 215.636 421.004 215.202Z" fill="#D4ECFF"/>
<path d="M412.188 218.237C412.188 219.249 412.91 219.682 413.922 219.249C414.789 218.671 415.655 217.37 415.655 216.359C415.655 215.347 414.933 214.914 413.922 215.347C413.055 215.925 412.188 217.226 412.188 218.237Z" fill="white"/>
<path d="M406.266 221.702C406.266 222.713 406.988 223.147 408 222.713C408.867 222.135 409.734 220.835 409.734 219.823C409.734 218.812 409.011 218.378 408 218.812C407.133 219.39 406.266 220.69 406.266 221.702Z" fill="#173D7A"/>
<path d="M400.34 225.171C400.34 226.182 401.062 226.616 402.074 226.182C403.085 225.749 403.808 224.304 403.808 223.292C403.808 222.281 403.085 221.847 402.074 222.281C401.207 222.714 400.34 224.015 400.34 225.171Z" fill="#D4ECFF"/>
<path d="M394.41 228.643C394.41 229.655 395.133 230.088 396.144 229.655C397.011 229.077 397.878 227.776 397.878 226.765C397.878 225.753 397.156 225.32 396.144 225.753C395.277 226.187 394.41 227.487 394.41 228.643Z" fill="#173D7A"/>
<path d="M369.559 246.125L373.027 244.102C373.605 243.813 373.894 242.946 373.894 242.368V238.755C373.894 238.033 373.461 237.744 373.027 238.033L369.559 240.056C368.981 240.345 368.692 241.212 368.692 241.79V245.402C368.548 245.98 368.981 246.414 369.559 246.125Z" fill="#173D7A"/>
<path d="M364.503 281.247L437.331 239.198C438.92 238.186 440.221 235.73 440.221 233.562V219.69C440.221 217.523 438.92 216.511 437.331 217.523L364.503 259.428C362.914 260.439 361.613 262.896 361.613 265.063V278.935C361.613 281.247 362.914 282.259 364.503 281.247Z" fill="#5793CE"/>
<path opacity="0.4" d="M366.671 276.333L435.452 236.595C436.319 236.162 436.897 234.861 436.897 233.705V223.301C436.897 222.145 436.175 221.712 435.452 222.145L366.671 261.883C365.804 262.316 365.226 263.617 365.226 264.773V275.177C365.081 276.333 365.804 276.911 366.671 276.333Z" fill="#D4ECFF"/>
<path d="M421.004 239.78L431.263 233.856C432.13 233.422 432.708 232.122 432.708 231.11C432.708 230.099 431.986 229.521 431.263 229.954L421.004 235.879C420.137 236.312 419.559 237.613 419.559 238.624C419.559 239.636 420.137 240.214 421.004 239.78Z" fill="#D4ECFF"/>
<path d="M412.188 242.807C412.188 243.819 412.91 244.252 413.922 243.819C414.789 243.241 415.655 241.94 415.655 240.929C415.655 239.917 414.933 239.484 413.922 239.917C413.055 240.495 412.188 241.796 412.188 242.807Z" fill="white"/>
<path d="M406.266 246.28C406.266 247.292 406.988 247.725 408 247.292C408.867 246.714 409.734 245.413 409.734 244.402C409.734 243.39 409.011 242.957 408 243.39C407.133 243.824 406.266 245.124 406.266 246.28Z" fill="#173D7A"/>
<path d="M400.34 249.6C400.34 250.612 401.062 251.045 402.074 250.612C403.085 250.178 403.808 248.733 403.808 247.722C403.808 246.71 403.085 246.277 402.074 246.71C401.207 247.288 400.34 248.589 400.34 249.6Z" fill="#D4ECFF"/>
<path d="M394.41 253.073C394.41 254.084 395.133 254.518 396.144 254.084C397.011 253.506 397.878 252.206 397.878 251.195C397.878 250.183 397.156 249.75 396.144 250.183C395.277 250.761 394.41 252.062 394.41 253.073Z" fill="#173D7A"/>
<path d="M369.559 270.554L373.027 268.531C373.605 268.242 373.894 267.375 373.894 266.797V263.185C373.894 262.462 373.461 262.173 373.027 262.462L369.559 264.485C368.981 264.774 368.692 265.641 368.692 266.219V269.832C368.548 270.554 368.981 270.843 369.559 270.554Z" fill="#173D7A"/>
<path d="M364.503 305.81L437.331 263.76C438.92 262.749 440.221 260.292 440.221 258.125V244.108C440.221 241.941 438.92 240.929 437.331 241.941L364.503 283.99C362.914 285.002 361.613 287.458 361.613 289.626V303.498C361.613 305.665 362.914 306.677 364.503 305.81Z" fill="#5793CE"/>
<path opacity="0.4" d="M366.671 300.891L435.452 261.154C436.319 260.72 436.897 259.42 436.897 258.264V247.86C436.897 246.704 436.175 246.27 435.452 246.704L366.671 286.441C365.804 286.875 365.226 288.175 365.226 289.331V299.735C365.081 300.891 365.804 301.325 366.671 300.891Z" fill="#D4ECFF"/>
<path d="M421.004 264.198L431.263 258.274C432.13 257.84 432.708 256.54 432.708 255.528C432.708 254.517 431.986 253.939 431.263 254.372L421.004 260.297C420.137 260.73 419.559 262.031 419.559 263.042C419.559 264.198 420.137 264.632 421.004 264.198Z" fill="#D4ECFF"/>
<path d="M412.188 267.374C412.188 268.385 412.91 268.819 413.922 268.385C414.933 267.952 415.655 266.507 415.655 265.495C415.655 264.484 414.933 264.05 413.922 264.484C413.055 264.917 412.188 266.218 412.188 267.374Z" fill="#173D7A"/>
<path d="M406.266 270.698C406.266 271.709 406.988 272.143 408 271.71C408.867 271.132 409.734 269.831 409.734 268.82C409.734 267.808 409.011 267.375 408 267.808C407.133 268.386 406.266 269.686 406.266 270.698Z" fill="#173D7A"/>
<path d="M400.34 274.167C400.34 275.178 401.062 275.612 402.074 275.178C403.085 274.745 403.808 273.3 403.808 272.288C403.808 271.277 403.085 270.843 402.074 271.277C401.207 271.855 400.34 273.155 400.34 274.167Z" fill="#D4ECFF"/>
<path d="M394.41 277.632C394.41 278.643 395.133 279.077 396.144 278.643C397.011 278.065 397.878 276.765 397.878 275.753C397.878 274.742 397.156 274.308 396.144 274.742C395.277 275.175 394.41 276.476 394.41 277.632Z" fill="#173D7A"/>
<path d="M369.559 295.113L373.027 293.09C373.605 292.801 373.894 291.934 373.894 291.356V287.743C373.894 287.021 373.461 286.732 373.027 287.021L369.559 289.044C368.981 289.333 368.692 290.2 368.692 290.778V294.39C368.548 295.113 368.981 295.402 369.559 295.113Z" fill="#D4ECFF"/>
<path d="M364.503 330.228L437.331 288.178C438.92 287.167 440.221 284.71 440.221 282.543V268.671C440.221 266.503 438.92 265.492 437.331 266.503L364.503 308.553C362.914 309.564 361.613 312.021 361.613 314.188V328.06C361.613 330.228 362.914 331.239 364.503 330.228Z" fill="#5793CE"/>
<path opacity="0.4" d="M366.671 325.454L435.452 285.716C436.319 285.283 436.897 283.982 436.897 282.826V272.422C436.897 271.266 436.175 270.833 435.452 271.266L366.671 311.004C365.804 311.437 365.226 312.738 365.226 313.894V324.298C365.081 325.454 365.804 325.887 366.671 325.454Z" fill="#D4ECFF"/>
<path d="M421.004 288.761L431.263 282.836C432.13 282.403 432.708 281.102 432.708 280.091C432.708 279.079 431.986 278.501 431.263 278.935L421.004 284.859C420.137 285.293 419.559 286.593 419.559 287.605C419.559 288.761 420.137 289.194 421.004 288.761Z" fill="#D4ECFF"/>
<path d="M412.188 291.788C412.188 292.799 412.91 293.233 413.922 292.799C414.933 292.366 415.655 290.921 415.655 289.909C415.655 288.898 414.933 288.464 413.922 288.898C413.055 289.476 412.188 290.776 412.188 291.788Z" fill="#173D7A"/>
<path d="M406.266 295.26C406.266 296.272 406.988 296.706 408 296.272C408.867 295.694 409.734 294.394 409.734 293.382C409.734 292.371 409.011 291.937 408 292.371C407.133 292.949 406.266 294.249 406.266 295.26Z" fill="white"/>
<path d="M400.34 298.729C400.34 299.741 401.062 300.174 402.074 299.741C403.085 299.307 403.808 297.862 403.808 296.851C403.808 295.839 403.085 295.406 402.074 295.839C401.062 296.273 400.34 297.573 400.34 298.729Z" fill="#D4ECFF"/>
<path d="M394.41 302.053C394.41 303.065 395.133 303.498 396.144 303.065C397.011 302.487 397.878 301.186 397.878 300.175C397.878 299.163 397.156 298.73 396.144 299.163C395.277 299.741 394.41 301.042 394.41 302.053Z" fill="white"/>
<path d="M369.559 319.535L373.027 317.512C373.605 317.223 373.894 316.356 373.894 315.778V312.165C373.894 311.443 373.461 311.154 373.027 311.443L369.559 313.466C368.981 313.755 368.692 314.622 368.692 315.2V318.812C368.548 319.535 368.981 319.968 369.559 319.535Z" fill="#D4ECFF"/>
<path d="M364.503 354.79L437.331 312.741C438.92 311.729 440.221 309.273 440.221 307.105V293.233C440.221 291.066 438.92 290.054 437.331 291.066L364.503 332.971C362.914 333.982 361.613 336.439 361.613 338.606V352.478C361.613 354.79 362.914 355.802 364.503 354.79Z" fill="#5793CE"/>
<path opacity="0.4" d="M366.671 349.876L435.452 310.138C436.319 309.705 436.897 308.404 436.897 307.248V296.844C436.897 295.688 436.175 295.255 435.452 295.688L366.671 335.426C365.804 335.859 365.226 337.16 365.226 338.316V348.72C365.081 349.876 365.804 350.454 366.671 349.876Z" fill="#D4ECFF"/>
<path d="M421.004 313.175L431.263 307.25C432.13 306.817 432.708 305.516 432.708 304.505C432.708 303.493 431.986 302.915 431.263 303.349L421.004 309.273C420.137 309.707 419.559 311.007 419.559 312.019C419.559 313.175 420.137 313.753 421.004 313.175Z" fill="#D4ECFF"/>
<path d="M412.188 316.35C412.188 317.362 412.91 317.795 413.922 317.362C414.789 316.784 415.655 315.483 415.655 314.472C415.655 313.46 414.933 313.027 413.922 313.46C413.055 314.038 412.188 315.339 412.188 316.35Z" fill="#173D7A"/>
<path d="M406.266 319.823C406.266 320.834 406.988 321.268 408 320.835C408.867 320.257 409.734 318.956 409.734 317.945C409.734 316.933 409.011 316.5 408 316.933C406.988 317.367 406.266 318.667 406.266 319.823Z" fill="#173D7A"/>
<path d="M400.34 323.143C400.34 324.155 401.062 324.588 402.074 324.155C402.941 323.577 403.808 322.276 403.808 321.265C403.808 320.253 403.085 319.82 402.074 320.253C401.207 320.831 400.34 322.132 400.34 323.143Z" fill="#D4ECFF"/>
<path d="M394.41 326.616C394.41 327.627 395.133 328.061 396.144 327.627C397.011 327.049 397.878 325.749 397.878 324.737C397.878 323.726 397.156 323.292 396.144 323.726C395.277 324.304 394.41 325.604 394.41 326.616Z" fill="#173D7A"/>
<path d="M369.559 344.097L373.027 342.074C373.605 341.785 373.894 340.918 373.894 340.34V336.728C373.894 336.005 373.461 335.716 373.027 336.005L369.559 338.028C368.981 338.317 368.692 339.184 368.692 339.762V343.375C368.548 344.097 368.981 344.386 369.559 344.097Z" fill="#173D7A"/>
<path d="M364.503 379.36L437.331 337.311C438.92 336.3 440.221 333.843 440.221 331.676V317.804C440.221 315.636 438.92 314.625 437.331 315.636L364.503 357.541C362.914 358.553 361.613 361.009 361.613 363.176V377.048C361.613 379.216 362.914 380.227 364.503 379.36Z" fill="#5793CE"/>
<path opacity="0.4" d="M366.671 374.446L435.452 334.709C436.319 334.275 436.897 332.975 436.897 331.819V321.415C436.897 320.259 436.175 319.825 435.452 320.259L366.671 359.996C365.804 360.429 365.226 361.73 365.226 362.886V373.29C365.081 374.446 365.804 374.879 366.671 374.446Z" fill="#D4ECFF"/>
<path d="M421.004 337.745L431.263 331.821C432.13 331.387 432.708 330.087 432.708 329.075C432.708 328.064 431.986 327.486 431.263 327.919L421.004 333.844C420.137 334.277 419.559 335.578 419.559 336.589C419.559 337.745 420.137 338.178 421.004 337.745Z" fill="#D4ECFF"/>
<path d="M410.305 342.223C410.305 344.246 411.75 345.113 413.484 344.102C415.218 343.09 416.663 340.634 416.663 338.611C416.663 336.588 415.218 335.721 413.484 336.732C411.75 337.744 410.305 340.2 410.305 342.223Z" fill="white"/>
<path d="M398.172 349.452C398.172 350.463 398.894 350.897 399.906 350.463C400.773 349.885 401.64 348.585 401.64 347.573C401.64 346.562 400.917 346.128 399.906 346.562C398.894 346.995 398.172 348.296 398.172 349.452Z" fill="#173D7A"/>
<path d="M392.105 352.768C392.105 353.78 392.828 354.213 393.839 353.78C394.706 353.202 395.573 351.901 395.573 350.89C395.573 349.878 394.851 349.445 393.839 349.878C392.972 350.456 392.105 351.757 392.105 352.768Z" fill="#D4ECFF"/>
<path d="M386.176 356.245C386.176 357.256 386.898 357.69 387.91 357.256C388.777 356.678 389.644 355.378 389.644 354.366C389.644 353.355 388.921 352.921 387.91 353.355C387.043 353.788 386.176 355.089 386.176 356.245Z" fill="#173D7A"/>
<path d="M369.559 368.668L373.027 366.645C373.605 366.356 373.894 365.489 373.894 364.911V361.154C373.894 360.431 373.461 360.142 373.027 360.431L369.559 362.454C368.981 362.743 368.692 363.61 368.692 364.188V367.801C368.548 368.668 368.981 368.957 369.559 368.668Z" fill="#D4ECFF"/>
<path d="M161.619 434.697V253.062L233.869 234.132L247.163 226.474C250.197 224.74 255.543 224.884 259.011 226.907L271.438 234.132H310.02L298.604 409.554C298.749 410.71 298.026 411.866 296.581 412.733L224.476 467.065C221.442 468.799 216.095 468.655 212.627 466.632L164.654 438.888C162.486 437.587 161.475 436.142 161.619 434.697Z" fill="#396CAA"/>
<path d="M252.652 225.316C254.82 225.316 257.276 225.894 259.01 227.05L271.437 234.275H310.019V416.489C310.163 417.645 309.441 418.801 307.996 419.668L224.475 467.208C223.03 468.075 221.007 468.509 218.984 468.364L218.117 285.139L252.652 225.316Z" fill="#D4ECFF"/>
<path d="M223.752 467.357C221.151 468.513 217.249 468.369 214.215 467.213V282.688H223.752V467.357Z" fill="#5793CE"/>
<path d="M224.481 284.994L308.001 237.454C311.036 235.72 310.602 232.541 307.134 230.518L259.016 202.774C255.548 200.751 250.201 200.462 247.167 202.341L163.646 249.881C160.612 251.615 161.045 254.794 164.513 256.817L212.487 284.561C216.1 286.439 221.446 286.728 224.481 284.994Z" fill="#D4ECFF"/>
<path d="M164.511 253.351L212.484 281.095C215.952 283.118 221.299 283.407 224.333 281.528L307.854 233.988C308.576 233.554 309.01 233.121 309.443 232.688C310.455 234.421 310.021 236.155 307.854 237.456L224.333 284.996C221.299 286.73 215.952 286.586 212.484 284.563L164.511 256.819C161.765 255.229 160.898 253.062 162.199 251.328C162.632 251.906 163.355 252.773 164.511 253.351Z" fill="#FAFDFF"/>
<path d="M222.17 265.628L277.802 233.405C279.247 232.538 279.103 231.093 277.369 230.226L254.827 217.221C253.238 216.21 250.637 216.21 249.192 216.932L193.559 249.155C192.114 250.022 192.259 251.467 193.993 252.334L216.535 265.339C218.124 266.351 220.725 266.495 222.17 265.628Z" fill="#173D7A"/>
<path d="M252.08 234.854L255.259 232.975C255.404 232.831 255.404 232.686 255.259 232.542L252.08 230.808C251.791 230.663 251.502 230.663 251.358 230.808L248.179 232.686C248.034 232.831 248.034 232.975 248.179 233.12L251.358 234.854C251.502 234.998 251.936 234.998 252.08 234.854Z" fill="#D4ECFF"/>
<path d="M241.385 241.068L244.564 239.19C244.708 239.045 244.708 238.901 244.564 238.756L241.385 237.022C241.096 236.878 240.807 236.878 240.662 237.022L237.483 238.901C237.339 239.045 237.339 239.19 237.483 239.334L240.662 241.068C240.807 241.213 241.096 241.213 241.385 241.068Z" fill="#D4ECFF"/>
<path d="M230.545 247.283L233.724 245.405C233.868 245.26 233.868 245.116 233.724 244.971L230.545 243.237C230.256 243.093 229.967 243.093 229.822 243.237L226.644 245.116C226.499 245.26 226.499 245.405 226.644 245.549L229.822 247.283C229.967 247.428 230.4 247.428 230.545 247.283Z" fill="#D4ECFF"/>
<path d="M219.854 253.494L223.033 251.616C223.177 251.471 223.177 251.327 223.033 251.182L219.854 249.448C219.565 249.304 219.276 249.304 219.131 249.448L215.952 251.327C215.808 251.471 215.808 251.616 215.952 251.76L219.131 253.494C219.276 253.494 219.565 253.494 219.854 253.494Z" fill="#D4ECFF"/>
<path d="M277.66 233.409C277.516 233.409 277.371 233.265 277.227 233.265L254.685 220.26C253.095 219.248 250.494 219.248 249.049 219.971L193.562 252.194C192.261 251.183 192.117 250.027 193.562 249.16L249.194 216.936C250.639 216.069 253.095 216.214 254.829 217.225L277.371 230.23C278.961 231.242 279.105 232.542 277.66 233.409Z" fill="#5793CE"/>
<path d="M203.238 320.985L171.593 302.922C169.859 301.911 168.414 299.165 168.414 296.709V285.438C168.414 283.126 169.859 281.97 171.593 282.981L203.238 301.044C204.972 302.055 206.417 304.801 206.417 307.257V318.528C206.417 320.84 204.972 321.996 203.238 320.985Z" fill="#173D7A"/>
<path d="M170.003 282.695C169.57 283.129 169.136 283.996 169.136 285.007V296.278C169.136 298.59 170.582 301.336 172.315 302.492L203.961 320.554C204.539 320.843 205.117 320.988 205.55 320.843C204.972 321.421 204.105 321.421 203.094 320.988L171.448 302.925C169.714 301.914 168.27 299.168 168.27 296.712V285.441C168.414 283.851 168.992 282.84 170.003 282.695Z" fill="white"/>
<path d="M193.695 308.699L190.805 306.965C190.371 306.676 190.082 306.098 190.082 305.665V302.63C190.082 302.052 190.371 301.908 190.805 302.052L193.695 303.786C194.128 304.075 194.417 304.653 194.417 305.087V308.121C194.417 308.699 193.984 308.844 193.695 308.699Z" fill="#396CAA"/>
<path d="M184.015 303.066L181.125 301.332C180.691 301.043 180.402 300.465 180.402 300.032V296.997C180.402 296.419 180.691 296.275 181.125 296.419L184.015 298.153C184.448 298.442 184.737 299.02 184.737 299.454V302.488C184.737 303.066 184.304 303.355 184.015 303.066Z" fill="white"/>
<path d="M203.238 402.625L171.593 384.563C169.859 383.551 168.414 380.806 168.414 378.349V367.078C168.414 364.766 169.859 363.61 171.593 364.622L203.238 382.684C204.972 383.696 206.417 386.441 206.417 388.898V400.169C206.417 402.481 204.972 403.637 203.238 402.625Z" fill="#173D7A"/>
<path d="M170.003 364.336C169.57 364.769 169.136 365.636 169.136 366.648V377.919C169.136 380.231 170.582 382.976 172.315 384.132L203.961 402.195C204.539 402.484 205.117 402.628 205.55 402.484C204.972 403.062 204.105 403.062 203.094 402.628L171.448 384.566C169.714 383.554 168.27 380.809 168.27 378.352V367.081C168.414 365.492 168.992 364.48 170.003 364.336Z" fill="white"/>
<path d="M193.695 390.34L190.805 388.606C190.371 388.317 190.082 387.739 190.082 387.305V384.271C190.082 383.693 190.371 383.548 190.805 383.693L193.695 385.427C194.128 385.716 194.417 386.294 194.417 386.727V389.762C194.417 390.34 193.984 390.484 193.695 390.34Z" fill="#396CAA"/>
<path d="M184.015 384.707L181.125 382.973C180.691 382.684 180.402 382.106 180.402 381.672V378.638C180.402 378.06 180.691 377.915 181.125 378.06L184.015 379.794C184.448 380.083 184.737 380.661 184.737 381.094V384.129C184.737 384.707 184.304 384.996 184.015 384.707Z" fill="white"/>
<path d="M203.238 443.371L171.593 425.309C169.859 424.297 168.414 421.552 168.414 419.095V407.825C168.414 405.513 169.859 404.357 171.593 405.368L203.238 423.43C204.972 424.442 206.417 427.187 206.417 429.644V440.915C206.417 443.371 204.972 444.383 203.238 443.371Z" fill="#173D7A"/>
<path d="M170.003 405.082C169.57 405.516 169.136 406.383 169.136 407.394V418.665C169.136 420.977 170.582 423.722 172.315 424.878L203.961 442.941C204.539 443.23 205.117 443.374 205.55 443.23C204.972 443.808 204.105 443.808 203.094 443.374L171.448 425.312C169.714 424.3 168.27 421.555 168.27 419.098V407.828C168.414 406.238 168.992 405.227 170.003 405.082Z" fill="white"/>
<path d="M193.695 431.086L190.805 429.352C190.371 429.063 190.082 428.485 190.082 428.051V425.017C190.082 424.439 190.371 424.294 190.805 424.439L193.695 426.173C194.128 426.462 194.417 427.04 194.417 427.473V430.508C194.417 431.086 193.984 431.375 193.695 431.086Z" fill="#396CAA"/>
<path d="M184.015 425.594L181.125 423.86C180.691 423.571 180.402 422.993 180.402 422.559V419.525C180.402 418.947 180.691 418.802 181.125 418.947L184.015 420.681C184.448 420.97 184.737 421.548 184.737 421.981V425.016C184.737 425.594 184.304 425.738 184.015 425.594Z" fill="white"/>
<path d="M203.238 361.731L171.593 343.668C169.859 342.657 168.414 339.911 168.414 337.455V326.184C168.414 323.872 169.859 322.716 171.593 323.727L203.238 341.79C204.972 342.801 206.417 345.547 206.417 348.003V359.274C206.417 361.731 204.972 362.742 203.238 361.731Z" fill="#173D7A"/>
<path d="M170.003 323.441C169.57 323.875 169.136 324.742 169.136 325.753V337.024C169.136 339.336 170.582 342.082 172.315 343.238L203.961 361.3C204.539 361.589 205.117 361.734 205.55 361.589C204.972 362.167 204.105 362.167 203.094 361.734L171.448 343.671C169.714 342.66 168.27 339.914 168.27 337.458V326.187C168.414 324.597 168.992 323.586 170.003 323.441Z" fill="white"/>
<path d="M193.695 349.445L190.805 347.711C190.371 347.422 190.082 346.844 190.082 346.411V343.376C190.082 342.798 190.371 342.654 190.805 342.798L193.695 344.532C194.128 344.821 194.417 345.399 194.417 345.833V348.867C194.417 349.445 193.984 349.734 193.695 349.445Z" fill="#396CAA"/>
<path d="M184.015 343.953L181.125 342.219C180.691 341.93 180.402 341.352 180.402 340.919V337.884C180.402 337.306 180.691 337.162 181.125 337.306L184.015 339.04C184.448 339.329 184.737 339.907 184.737 340.341V343.375C184.737 343.809 184.304 344.097 184.015 343.953Z" fill="white"/>
<path d="M230.548 309.419L303.376 267.37C304.966 266.358 306.266 263.902 306.266 261.734V247.862C306.266 245.695 304.966 244.683 303.376 245.695L230.548 287.744C228.959 288.756 227.658 291.212 227.658 293.38V307.252C227.514 309.275 228.959 310.286 230.548 309.419Z" fill="#5793CE"/>
<path opacity="0.4" d="M232.57 304.504L301.352 264.767C302.219 264.334 302.797 263.033 302.797 261.877V251.473C302.797 250.317 302.074 249.884 301.352 250.317L232.57 290.054C231.703 290.488 231.125 291.788 231.125 292.944V303.348C231.125 304.504 231.847 304.938 232.57 304.504Z" fill="#D4ECFF"/>
<path d="M287.043 267.804L297.302 261.879C298.169 261.446 298.747 260.145 298.747 259.134C298.747 258.122 298.025 257.544 297.302 257.978L287.043 263.902C286.176 264.336 285.598 265.636 285.598 266.648C285.598 267.804 286.176 268.237 287.043 267.804Z" fill="#D4ECFF"/>
<path d="M278.234 270.979C278.234 271.991 278.957 272.424 279.968 271.991C280.835 271.413 281.702 270.112 281.702 269.101C281.702 268.089 280.98 267.656 279.968 268.089C279.101 268.523 278.234 269.823 278.234 270.979Z" fill="#173D7A"/>
<path d="M272.309 274.303C272.309 275.315 273.031 275.748 274.043 275.315C274.91 274.737 275.777 273.436 275.777 272.425C275.777 271.413 275.054 270.98 274.043 271.413C273.176 271.991 272.309 273.292 272.309 274.303Z" fill="#173D7A"/>
<path d="M266.387 277.772C266.387 278.784 267.109 279.217 268.121 278.784C269.132 278.35 269.855 276.905 269.855 275.894C269.855 274.882 269.132 274.449 268.121 274.882C267.254 275.316 266.387 276.616 266.387 277.772Z" fill="#D4ECFF"/>
<path d="M260.457 281.245C260.457 282.256 261.18 282.69 262.191 282.256C263.058 281.678 263.925 280.378 263.925 279.366C263.925 278.355 263.203 277.921 262.191 278.355C261.18 278.788 260.457 280.089 260.457 281.245Z" fill="#173D7A"/>
<path d="M235.465 298.726L238.933 296.703C239.511 296.414 239.8 295.547 239.8 294.969V291.357C239.8 290.634 239.366 290.345 238.933 290.634L235.465 292.657C234.887 292.946 234.598 293.813 234.598 294.391V298.004C234.598 298.726 235.031 299.015 235.465 298.726Z" fill="#173D7A"/>
<path d="M230.548 333.841L303.376 291.792C304.966 290.78 306.266 288.324 306.266 286.156V272.284C306.266 270.117 304.966 269.105 303.376 270.117L230.548 312.166C228.959 313.178 227.658 315.634 227.658 317.801V331.673C227.514 333.841 228.959 334.852 230.548 333.841Z" fill="#5793CE"/>
<path opacity="0.4" d="M232.57 329.067L301.352 289.33C302.219 288.896 302.797 287.596 302.797 286.44V276.036C302.797 274.88 302.074 274.446 301.352 274.88L232.57 314.617C231.703 315.05 231.125 316.351 231.125 317.507V327.911C231.125 328.922 231.847 329.5 232.57 329.067Z" fill="#D4ECFF"/>
<path d="M287.043 292.374L297.302 286.449C298.169 286.016 298.747 284.715 298.747 283.704C298.747 282.692 298.025 282.114 297.302 282.548L287.043 288.472C286.176 288.906 285.598 290.206 285.598 291.218C285.598 292.229 286.176 292.807 287.043 292.374Z" fill="#D4ECFF"/>
<path d="M278.234 295.401C278.234 296.413 278.957 296.846 279.968 296.413C280.835 295.835 281.702 294.534 281.702 293.523C281.702 292.511 280.98 292.078 279.968 292.511C279.101 293.089 278.234 294.39 278.234 295.401Z" fill="white"/>
<path d="M272.309 298.874C272.309 299.885 273.031 300.319 274.043 299.885C274.91 299.307 275.777 298.007 275.777 296.995C275.777 295.984 275.054 295.55 274.043 295.984C273.176 296.417 272.309 297.718 272.309 298.874Z" fill="#173D7A"/>
<path d="M266.387 302.343C266.387 303.354 267.109 303.788 268.121 303.354C268.988 302.776 269.855 301.476 269.855 300.464C269.855 299.453 269.132 299.019 268.121 299.453C267.254 299.886 266.387 301.187 266.387 302.343Z" fill="#D4ECFF"/>
<path d="M260.457 305.667C260.457 306.678 261.18 307.112 262.191 306.678C263.203 306.245 263.925 304.8 263.925 303.788C263.925 302.777 263.203 302.343 262.191 302.777C261.18 303.21 260.457 304.655 260.457 305.667Z" fill="#173D7A"/>
<path d="M235.465 323.148L238.933 321.125C239.511 320.836 239.8 319.969 239.8 319.391V315.779C239.8 315.056 239.366 314.767 238.933 315.056L235.465 317.079C234.887 317.368 234.598 318.235 234.598 318.813V322.426C234.598 323.148 235.031 323.437 235.465 323.148Z" fill="#173D7A"/>
<path d="M230.548 358.411L303.376 316.362C304.966 315.35 306.266 312.894 306.266 310.726V296.855C306.266 294.687 304.966 293.676 303.376 294.687L230.548 336.592C228.959 337.603 227.658 340.06 227.658 342.227V356.099C227.514 358.411 228.959 359.278 230.548 358.411Z" fill="#5793CE"/>
<path opacity="0.4" d="M232.57 353.497L301.352 313.759C302.219 313.326 302.797 312.025 302.797 310.869V300.465C302.797 299.309 302.074 298.876 301.352 299.309L232.57 339.047C231.703 339.48 231.125 340.781 231.125 341.937V352.341C231.125 353.497 231.847 353.93 232.57 353.497Z" fill="#D4ECFF"/>
<path d="M287.043 316.796L297.302 310.871C298.169 310.438 298.747 309.137 298.747 308.126C298.747 307.114 298.025 306.536 297.302 306.97L287.043 312.894C286.176 313.328 285.598 314.628 285.598 315.64C285.598 316.796 286.176 317.374 287.043 316.796Z" fill="#D4ECFF"/>
<path d="M278.234 319.971C278.234 320.983 278.957 321.416 279.968 320.983C280.98 320.549 281.702 319.104 281.702 318.093C281.702 317.081 280.98 316.648 279.968 317.081C279.101 317.515 278.234 318.815 278.234 319.971Z" fill="white"/>
<path d="M272.309 323.296C272.309 324.307 273.031 324.741 274.043 324.307C274.91 323.729 275.777 322.429 275.777 321.417C275.777 320.406 275.054 319.972 274.043 320.406C273.176 320.984 272.309 322.284 272.309 323.296Z" fill="#173D7A"/>
<path d="M266.387 326.764C266.387 327.776 267.109 328.209 268.121 327.776C269.132 327.342 269.855 325.897 269.855 324.886C269.855 323.874 269.132 323.441 268.121 323.874C267.109 324.308 266.387 325.753 266.387 326.764Z" fill="#D4ECFF"/>
<path d="M260.457 330.237C260.457 331.249 261.18 331.682 262.191 331.249C263.058 330.671 263.925 329.37 263.925 328.359C263.925 327.347 263.203 326.914 262.191 327.347C261.18 327.781 260.457 329.081 260.457 330.237Z" fill="#173D7A"/>
<path d="M235.465 347.718L238.933 345.695C239.511 345.406 239.8 344.539 239.8 343.961V340.349C239.8 339.626 239.366 339.337 238.933 339.626L235.465 341.649C234.887 341.938 234.598 342.805 234.598 343.383V346.996C234.598 347.718 235.031 348.007 235.465 347.718Z" fill="#173D7A"/>
<path d="M230.548 382.974L303.376 340.924C304.966 339.913 306.266 337.456 306.266 335.289V321.417C306.266 319.25 304.966 318.238 303.376 319.25L230.548 361.154C228.959 362.166 227.658 364.622 227.658 366.79V380.662C227.514 382.829 228.959 383.841 230.548 382.974Z" fill="#5793CE"/>
<path opacity="0.4" d="M232.57 378.059L301.352 338.322C302.219 337.888 302.797 336.588 302.797 335.432V325.028C302.797 323.872 302.074 323.438 301.352 323.872L232.57 363.609C231.703 364.043 231.125 365.343 231.125 366.499V376.903C231.125 378.059 231.847 378.493 232.57 378.059Z" fill="#D4ECFF"/>
<path d="M287.043 341.358L297.302 335.434C298.169 335 298.747 333.7 298.747 332.688C298.747 331.677 298.025 331.099 297.302 331.532L287.043 337.457C286.176 337.89 285.598 339.191 285.598 340.202C285.598 341.358 286.176 341.792 287.043 341.358Z" fill="#D4ECFF"/>
<path d="M278.234 344.393C278.234 345.405 278.957 345.838 279.968 345.405C280.835 344.827 281.702 343.526 281.702 342.515C281.702 341.503 280.98 341.07 279.968 341.503C279.101 342.081 278.234 343.382 278.234 344.393Z" fill="#173D7A"/>
<path d="M272.309 347.858C272.309 348.87 273.031 349.303 274.043 348.87C274.91 348.292 275.777 346.991 275.777 345.98C275.777 344.968 275.054 344.535 274.043 344.968C273.176 345.546 272.309 346.847 272.309 347.858Z" fill="#173D7A"/>
<path d="M266.387 351.327C266.387 352.338 267.109 352.772 268.121 352.338C268.988 351.76 269.855 350.46 269.855 349.448C269.855 348.437 269.132 348.003 268.121 348.437C267.254 348.87 266.387 350.171 266.387 351.327Z" fill="#D4ECFF"/>
<path d="M260.457 354.651C260.457 355.663 261.18 356.096 262.191 355.663C263.058 355.085 263.925 353.784 263.925 352.773C263.925 351.761 263.203 351.328 262.191 351.761C261.18 352.195 260.457 353.64 260.457 354.651Z" fill="#173D7A"/>
<path d="M235.465 372.281L238.933 370.258C239.511 369.969 239.8 369.102 239.8 368.524V364.911C239.8 364.189 239.366 363.9 238.933 364.189L235.465 366.212C234.887 366.501 234.598 367.368 234.598 367.946V371.558C234.598 372.136 235.031 372.57 235.465 372.281Z" fill="#D4ECFF"/>
<path d="M230.548 407.396L303.376 365.346C304.966 364.335 306.266 361.878 306.266 359.711V345.839C306.266 343.671 304.966 342.66 303.376 343.671L230.548 385.721C228.959 386.732 227.658 389.189 227.658 391.356V405.228C227.514 407.396 228.959 408.407 230.548 407.396Z" fill="#5793CE"/>
<path opacity="0.4" d="M232.57 402.477L301.352 362.74C302.219 362.306 302.797 361.006 302.797 359.85V349.59C302.797 348.434 302.074 348.001 301.352 348.434L232.57 388.172C231.703 388.605 231.125 389.906 231.125 391.062V401.466C231.125 402.477 231.847 403.055 232.57 402.477Z" fill="#D4ECFF"/>
<path d="M287.043 365.929L297.302 360.004C298.169 359.571 298.747 358.27 298.747 357.259C298.747 356.247 298.025 355.669 297.302 356.103L287.043 362.027C286.176 362.461 285.598 363.761 285.598 364.773C285.598 365.784 286.176 366.362 287.043 365.929Z" fill="#D4ECFF"/>
<path d="M278.234 368.956C278.234 369.967 278.957 370.401 279.968 369.967C280.98 369.534 281.702 368.089 281.702 367.077C281.702 366.066 280.98 365.632 279.968 366.066C279.101 366.644 278.234 367.944 278.234 368.956Z" fill="#173D7A"/>
<path d="M272.309 372.428C272.309 373.44 273.031 373.873 274.043 373.44C274.91 372.862 275.777 371.561 275.777 370.55C275.777 369.538 275.054 369.105 274.043 369.538C273.176 369.972 272.309 371.272 272.309 372.428Z" fill="white"/>
<path d="M266.387 375.749C266.387 376.76 267.109 377.194 268.121 376.76C269.132 376.327 269.855 374.882 269.855 373.87C269.855 372.859 269.132 372.425 268.121 372.859C267.254 373.437 266.387 374.737 266.387 375.749Z" fill="#D4ECFF"/>
<path d="M260.457 379.221C260.457 380.233 261.18 380.666 262.191 380.233C263.058 379.655 263.925 378.354 263.925 377.343C263.925 376.331 263.203 375.898 262.191 376.331C261.18 376.909 260.457 378.21 260.457 379.221Z" fill="white"/>
<path d="M235.465 396.703L238.933 394.68C239.511 394.391 239.8 393.524 239.8 392.946V389.333C239.8 388.611 239.366 388.322 238.933 388.611L235.465 390.634C234.887 390.923 234.598 391.79 234.598 392.368V395.98C234.598 396.703 235.031 396.992 235.465 396.703Z" fill="#D4ECFF"/>
<path d="M230.548 431.95L303.376 389.901C304.966 388.889 306.266 386.433 306.266 384.266V370.394C306.266 368.226 304.966 367.215 303.376 368.226L230.548 410.275C228.959 411.287 227.658 413.743 227.658 415.911V429.783C227.514 431.806 228.959 432.817 230.548 431.95Z" fill="#5793CE"/>
<path opacity="0.4" d="M232.57 427.036L301.352 387.298C302.219 386.865 302.797 385.564 302.797 384.408V374.004C302.797 372.848 302.074 372.415 301.352 372.848L232.57 412.586C231.703 413.019 231.125 414.32 231.125 415.476V425.88C231.125 427.036 231.847 427.469 232.57 427.036Z" fill="#D4ECFF"/>
<path d="M287.043 390.335L297.302 384.41C298.169 383.977 298.747 382.676 298.747 381.665C298.747 380.653 298.025 380.075 297.302 380.509L287.043 386.433C286.176 386.867 285.598 388.167 285.598 389.179C285.598 390.335 286.176 390.768 287.043 390.335Z" fill="#D4ECFF"/>
<path d="M278.234 393.51C278.234 394.522 278.957 394.956 279.968 394.522C280.835 393.944 281.702 392.644 281.702 391.632C281.702 390.621 280.98 390.187 279.968 390.621C279.101 391.054 278.234 392.354 278.234 393.51Z" fill="#173D7A"/>
<path d="M272.309 396.835C272.309 397.846 273.031 398.28 274.043 397.846C274.91 397.268 275.777 395.968 275.777 394.956C275.777 393.945 275.054 393.511 274.043 393.945C273.176 394.523 272.309 395.823 272.309 396.835Z" fill="#173D7A"/>
<path d="M266.387 400.303C266.387 401.315 267.109 401.748 268.121 401.315C268.988 400.737 269.855 399.436 269.855 398.425C269.855 397.413 269.132 396.98 268.121 397.413C267.254 397.991 266.387 399.292 266.387 400.303Z" fill="#D4ECFF"/>
<path d="M260.457 403.776C260.457 404.788 261.18 405.221 262.191 404.788C263.058 404.21 263.925 402.909 263.925 401.898C263.925 400.886 263.203 400.453 262.191 400.886C261.18 401.32 260.457 402.62 260.457 403.776Z" fill="#173D7A"/>
<path d="M235.465 421.257L238.933 419.234C239.511 418.945 239.8 418.078 239.8 417.5V413.888C239.8 413.165 239.366 412.876 238.933 413.165L235.465 415.188C234.887 415.477 234.598 416.344 234.598 416.922V420.535C234.598 421.257 235.031 421.546 235.465 421.257Z" fill="#173D7A"/>
<path d="M230.548 456.372L303.376 414.323C304.966 413.311 306.266 410.855 306.266 408.687V394.815C306.266 392.648 304.966 391.636 303.376 392.648L230.548 434.697C228.959 435.709 227.658 438.165 227.658 440.333V454.205C227.514 456.372 228.959 457.384 230.548 456.372Z" fill="#5793CE"/>
<path opacity="0.4" d="M232.57 451.598L301.352 411.861C302.219 411.427 302.797 410.127 302.797 408.971V398.567C302.797 397.411 302.074 396.977 301.352 397.411L232.57 437.148C231.703 437.582 231.125 438.882 231.125 440.038V450.442C231.125 451.598 231.847 452.032 232.57 451.598Z" fill="#D4ECFF"/>
<path d="M287.043 414.905L297.302 408.981C298.169 408.547 298.747 407.247 298.747 406.235C298.747 405.224 298.025 404.646 297.302 405.079L287.043 411.004C286.176 411.437 285.598 412.738 285.598 413.749C285.598 414.905 286.176 415.339 287.043 414.905Z" fill="#D4ECFF"/>
<path d="M276.359 419.38C276.359 421.403 277.804 422.27 279.538 421.258C281.272 420.247 282.717 417.79 282.717 415.767C282.717 413.744 281.272 412.877 279.538 413.889C277.804 414.756 276.359 417.357 276.359 419.38Z" fill="white"/>
<path d="M264.074 426.464C264.074 427.475 264.797 427.909 265.808 427.475C266.675 426.897 267.542 425.597 267.542 424.585C267.542 423.574 266.82 423.14 265.808 423.574C264.941 424.152 264.074 425.452 264.074 426.464Z" fill="#173D7A"/>
<path d="M258.145 429.932C258.145 430.944 258.867 431.377 259.879 430.944C260.746 430.366 261.613 429.065 261.613 428.054C261.613 427.042 260.89 426.609 259.879 427.042C259.012 427.476 258.145 428.921 258.145 429.932Z" fill="#D4ECFF"/>
<path d="M252.227 433.397C252.227 434.409 252.949 434.842 253.961 434.409C254.828 433.831 255.695 432.53 255.695 431.519C255.695 430.507 254.972 430.074 253.961 430.507C253.094 430.941 252.227 432.241 252.227 433.397Z" fill="#173D7A"/>
<path d="M235.465 445.679L238.933 443.656C239.511 443.367 239.8 442.5 239.8 441.922V438.31C239.8 437.587 239.366 437.298 238.933 437.587L235.465 439.61C234.887 439.899 234.598 440.766 234.598 441.344V444.957C234.598 445.679 235.031 446.113 235.465 445.679Z" fill="#D4ECFF"/>
<path d="M254.684 144.842L338.204 97.3018C341.239 95.5678 340.805 92.3888 337.337 90.3658L289.364 62.622C285.896 60.599 280.549 60.31 277.515 62.1885L193.85 109.729C190.815 111.463 191.249 114.642 194.717 116.665L242.69 144.409C246.303 146.432 251.649 146.576 254.684 144.842Z" fill="#D4ECFF"/>
<path d="M120.731 221.998L204.251 174.458C207.286 172.724 206.852 169.545 203.384 167.522L155.41 139.778C151.942 137.755 146.596 137.466 143.562 139.345L60.041 186.885C57.0065 188.619 57.44 191.798 60.908 193.821L108.882 221.565C112.35 223.443 117.696 223.732 120.731 221.998Z" fill="#D4ECFF"/>
<path d="M358.434 204.518L441.954 156.978C444.989 155.244 444.555 152.065 441.087 150.042L393.114 122.298C389.646 120.275 384.299 119.986 381.265 121.864L297.744 169.405C294.71 171.139 295.143 174.317 298.611 176.34L346.585 204.084C350.053 206.107 355.399 206.252 358.434 204.518Z" fill="#D4ECFF"/>
<path opacity="0.5" d="M277.371 62.1827L222.605 93.3945L272.747 122.294L332.714 87.7591L289.364 62.7607C285.752 60.5932 280.405 60.4487 277.371 62.1827Z" fill="#173D7A"/>
<path d="M336.042 56.1134L326.794 50.7669L360.895 31.115C362.485 30.248 362.485 28.6585 360.895 27.7915L326.071 7.70614C324.482 6.83915 321.881 6.83915 320.291 7.70614L286.189 27.358L276.941 22.0116L311.043 2.21517C317.69 -1.68631 328.672 -1.68631 335.319 2.21517L370.143 22.3006C376.79 26.202 376.79 32.4155 370.143 36.317L336.042 56.1134Z" fill="#173D7A"/>
<path d="M350.928 58.4266C350.928 53.5136 347.894 47.7336 344.281 45.5661L282.58 10.0193C280.991 9.00785 279.401 9.00785 278.245 9.58585L204.551 52.3576L275.789 106.111L348.472 63.9176C348.761 63.7731 348.905 63.6286 349.05 63.4841C350.206 62.7616 350.928 60.8831 350.928 58.4266Z" fill="#D4ECFF"/>
<path d="M275.791 106.113L348.474 63.9191C348.763 63.7746 348.907 63.6301 349.052 63.4856C350.208 62.6186 351.075 60.7401 351.075 58.2836C351.075 55.9716 350.352 53.3706 349.196 51.2031L266.398 99.0324L275.791 106.113Z" fill="#396CAA"/>
<path d="M271.164 105.964L209.463 70.2724C205.706 68.1049 202.816 62.325 202.816 57.412C202.816 52.499 205.851 50.187 209.463 52.3545L271.164 88.0458C274.921 90.2133 277.811 95.9933 277.811 100.906C277.811 105.819 274.777 108.131 271.164 105.964Z" fill="#5793CE"/>
<path d="M271.888 87.7601L210.187 52.0688C208.453 51.0573 206.863 51.0573 205.707 51.7798C206.719 51.4908 208.019 51.6353 209.464 52.5023L271.165 88.1936C274.922 90.3611 277.812 96.1411 277.812 101.054C277.812 103.655 276.945 105.534 275.5 106.401C277.379 105.823 278.535 103.8 278.535 100.621C278.535 95.5631 275.5 89.9276 271.888 87.7601Z" fill="white"/>
<path d="M261.912 93.9742L254.543 89.6392C253.82 89.2057 253.242 88.0498 253.242 87.0383C253.242 86.0268 253.82 85.5933 254.543 86.0268L261.912 90.3617C262.635 90.7952 263.213 91.9512 263.213 92.9627C263.213 93.9742 262.635 94.4077 261.912 93.9742Z" fill="white"/>
<path d="M270.296 43.2538C272.463 41.9533 272.463 39.7859 270.296 38.4854C267.984 37.1849 264.371 37.1849 262.204 38.6299C260.036 39.9304 260.036 42.0978 262.204 43.3983C264.371 44.5543 267.984 44.5543 270.296 43.2538Z" fill="#5793CE"/>
<path d="M282.725 50.332C284.893 49.0315 284.893 46.864 282.725 45.5635C280.413 44.263 276.801 44.263 274.633 45.708C272.466 47.0085 272.466 49.176 274.633 50.4765C276.801 51.6325 280.413 51.6325 282.725 50.332Z" fill="white"/>
<path d="M295.151 57.2656C297.319 55.9651 297.319 53.7976 295.151 52.4971C292.839 51.1966 289.227 51.1966 287.059 52.6416C284.892 53.9421 284.892 56.1096 287.059 57.4101C289.227 58.5661 292.839 58.566 295.151 57.2656Z" fill="white"/>
<path d="M156.134 168.249C154.978 167.526 152.955 167.526 151.799 168.249L110.906 191.947C109.75 192.669 109.75 193.825 110.906 194.403C112.062 195.126 114.085 195.126 115.241 194.403L156.134 170.705C157.29 170.127 157.29 168.971 156.134 168.249Z" fill="#173D7A"/>
</g>
<defs>
<clipPath id="clip0_306_43357">
<rect width="470" height="470" fill="white"/>
</clipPath>
</defs>
</svg>
