<svg xmlns="http://www.w3.org/2000/svg" width="395" height="387" fill="none"><g clip-path="url(#a)"><path fill="#4C5C75" d="M164.154 230.638c.13 0 .261-.034.378-.102l59.072-34.106a.758.758 0 0 0 .003-1.308l-55.403-32.195a.75.75 0 0 0-.757-.002l-59.074 34.106a.756.756 0 0 0-.001 1.309l55.403 32.196a.75.75 0 0 0 .379.102m57.564-34.863-57.562 33.233-53.896-31.321 57.563-33.233zM248.233 279.179l59.073-34.106a.757.757 0 0 0 .002-1.308l-55.403-32.197a.75.75 0 0 0-.758 0l-59.074 34.106a.756.756 0 0 0-.001 1.308l55.402 32.197a.76.76 0 0 0 .759 0m57.186-34.761-57.563 33.233-53.897-31.321 57.565-33.234zM331.946 328.479l59.073-34.105a.757.757 0 0 0 .002-1.309l-55.402-32.195a.75.75 0 0 0-.758 0l-59.073 34.106a.756.756 0 0 0-.003 1.308l55.403 32.195a.75.75 0 0 0 .758 0m57.187-34.761-57.564 33.233-53.895-31.319 57.563-33.234z"/><path fill="#1D2943" d="m108.763 34.097.342 155.304 55.415 32.198 59.082-34.094-.373-155.335L167.814-.028z"/><path fill="#1D2943" d="m108.752 34.099.359 155.317 55.403 32.197-.359-155.318z"/><path fill="#111D33" d="m164.154 66.293.359 155.318 59.073-34.106-.359-155.317z"/><path fill="#4C5C75" d="m170.048 69.688.342 90.752 47.272-27.319-.311-90.72zM108.755 34.098l55.402 32.197 59.073-34.106L167.828-.008z"/><path fill="#19233A" d="m113.891 33.495 6.026 3.502L151.9 18.53l-6.025-3.502z"/><path fill="#4C5C75" d="M118.016 34.276c1.048.611 2.773.611 3.821 0l11.88-6.857c1.048-.612 1.07-1.616.021-2.227-1.048-.59-2.773-.59-3.821.021l-11.879 6.857c-1.07.612-1.07 1.616-.022 2.206"/><path fill="#F45170" d="M119.452 32.195c-.613.354-.616.918-.007 1.272.596.346 1.569.346 2.182-.008.6-.346.617-.918.021-1.264-.609-.354-1.596-.346-2.196 0"/><path fill="#78E75A" d="M123.009 30.14c-.599.347-.617.918-.007 1.272.596.347 1.582.338 2.182-.008s.616-.917.021-1.263c-.61-.355-1.596-.347-2.196 0"/><path fill="#F45170" d="M126.579 28.08c-.614.354-.617.918-.008 1.272.596.346 1.569.346 2.182-.008.6-.346.603-.91.007-1.256-.609-.354-1.582-.354-2.181-.008"/><path fill="#78E75A" d="M130.134 26.03c-.599.345-.617.917-.007 1.271.596.346 1.582.338 2.182-.008s.616-.918.021-1.264c-.61-.354-1.596-.346-2.196 0"/><path fill="#1D2943" d="M193.662 36.32c4.422 2.57 11.552 2.57 15.974 0 4.45-2.571 4.477-6.716.083-9.259s-11.552-2.57-16.002 0c-4.422 2.57-4.422 6.716-.055 9.258"/><path fill="#111D33" d="M195.155 35.46c3.598 2.091 9.399 2.091 12.997 0 3.621-2.092 3.643-5.465.068-7.534-3.576-2.069-9.4-2.091-13.02 0-3.598 2.092-3.598 5.465-.045 7.534"/><path fill="#4C5C75" d="m211.275 176.57-2.52 1.463.041 12.33 2.499-1.463zM192.903 187.175l-2.519 1.463.02 12.33 2.52-1.464zM179.128 195.143l-2.519 1.442.02 12.33 2.519-1.443zM220.46 171.266l-2.519 1.463.04 12.329 2.499-1.442zM183.724 192.48l-2.52 1.463.021 12.33 2.519-1.463zM206.683 179.232l-2.52 1.443.021 12.33 2.519-1.443zM167.425 201.886l.02 12.33 2.52-1.443-.02-12.33zM202.091 181.873l-2.52 1.463.021 12.33 2.519-1.463zM174.536 197.783l-2.519 1.463.02 12.33 2.52-1.463zM197.495 184.533l-2.519 1.443.02 12.33 2.52-1.443zM188.312 189.838l-2.52 1.443.021 12.329 2.519-1.442zM215.868 173.929l-2.519 1.442.041 12.35 2.499-1.462zM119.311 177.188l2.519 1.462-.041 12.33-2.499-1.463zM137.676 187.795l2.519 1.463-.02 12.33-2.52-1.463zM151.453 195.759l2.52 1.442-.021 12.33-2.519-1.442zM110.123 171.884l2.52 1.463-.041 12.329-2.499-1.442zM146.861 193.098l2.52 1.463-.02 12.329-2.52-1.463zM123.902 179.851l2.52 1.442-.02 12.33-2.52-1.443zM163.156 202.506l-.02 12.33-2.52-1.443.021-12.33zM128.492 182.492l2.52 1.463-.021 12.33-2.519-1.463zM156.047 198.401l2.519 1.463-.02 12.33-2.519-1.463zM133.084 185.152l2.52 1.443-.021 12.33-2.519-1.443zM142.27 190.457l2.519 1.443-.02 12.329-2.52-1.442zM114.719 174.546l2.519 1.443-.04 12.35-2.5-1.463z"/><path fill="#1D2943" d="m170.329 174.924.031 8.609c0 4.321 3.046 6.061 6.806 3.885l7.522-4.351c3.76-2.175 6.775-7.428 6.775-11.748l-.031-8.578c0-4.351-3.046-6.06-6.807-3.916l-7.521 4.351c-3.76 2.176-6.775 7.429-6.775 11.748M198.639 158.577v8.609c.032 4.32 3.108 6.029 6.869 3.885l7.49-4.32c3.73-2.176 6.775-7.428 6.775-11.748l-.03-8.609c-.032-4.32-3.077-6.061-6.838-3.885l-7.49 4.32c-3.761 2.175-6.807 7.428-6.776 11.748"/><path fill="#4C5C75" d="m204.59 169.45 7.482-4.315c3.164-1.845 5.842-6.487 5.842-10.132l-.032-8.602c-.02-2.986-1.635-3.667-4.038-2.278l-7.492 4.321c-3.192 1.847-5.869 6.481-5.843 10.119v8.623c.021 2.94 1.651 3.652 4.081 2.264"/><path fill="#B0B8CF" d="m109.742 54.897 48.452 27.972 1.617-.933.031-12.431-48.453-27.972-1.616.932z"/><path fill="#B0B8CF" d="m158.205 82.871 1.605-.933.036-12.448-1.606.933z"/><path fill="#E3E7F0" d="m158.24 70.424 1.606-.934L111.4 41.52l-1.605.933z"/><path fill="#C9CEE2" d="m109.789 42.455-.035 12.448 48.445 27.97.035-12.448z"/><path fill="#423D9B" d="m124.45 54.58-.014 5.363 4.705 2.719.015-5.363z"/><path fill="#50B069" d="m111.398 52.414 4.706 2.719.015-5.363-4.706-2.72z"/><path fill="#F45170" d="m117.926 50.815-.015 5.364 4.721 2.718.014-5.363z"/><path fill="#423D9B" d="M155.24 71.298c0 .538.404 1.24.867 1.509.493.284.881.044.881-.508 0-.553-.388-1.225-.866-1.494-.478-.284-.882-.06-.882.493"/><path fill="#F45170" d="M155.24 74.879c0 .538.404 1.24.867 1.509.493.284.881.045.881-.508s-.388-1.225-.866-1.494c-.478-.284-.882-.06-.882.493"/><path fill="#423D9B" d="M155.24 78.458c0 .538.404 1.24.867 1.509.493.284.881.045.881-.508s-.388-1.225-.866-1.494c-.478-.284-.882-.06-.882.493"/><path fill="#9EA9C9" d="m131.186 56.056 10.554 6.091v4.25l-10.554-6.104z"/><path fill="#4C5C75" d="m143.317 63.06 10.554 6.09v4.252l-10.554-6.106zM131.186 61.523l10.554 6.095v4.344l-10.554-6.096z"/><path fill="#9EA9C9" d="m143.317 68.523 10.554 6.096v4.343l-10.554-6.096z"/><path fill="#78E75A" d="M131.828 63.401c0 .365.274.842.589 1.025.335.193.599.03.599-.345 0-.376-.264-.832-.589-1.015-.325-.193-.599-.04-.599.335M144.055 64.927c0 .366.274.843.589 1.025.334.193.598.03.598-.345s-.264-.832-.588-1.014c-.325-.193-.599-.041-.599.334"/><path fill="#B0B8CF" d="m109.742 73.843 48.452 27.971 1.617-.932.031-12.432-48.453-27.972-1.616.933z"/><path fill="#B0B8CF" d="m158.205 101.831 1.605-.933.036-12.448-1.606.933z"/><path fill="#E3E7F0" d="m158.24 89.384 1.606-.933L111.4 60.48l-1.605.932z"/><path fill="#C9CEE2" d="m109.789 61.414-.035 12.448 48.445 27.97.035-12.448z"/><path fill="#423D9B" d="m124.45 73.537-.014 5.363 4.705 2.719.015-5.363z"/><path fill="#50B069" d="m111.398 71.372 4.706 2.719.015-5.363-4.706-2.72z"/><path fill="#F45170" d="m117.926 69.773-.015 5.364 4.721 2.718.014-5.363z"/><path fill="#423D9B" d="M155.24 90.253c0 .538.404 1.24.867 1.509.493.284.881.045.881-.508s-.388-1.225-.866-1.494c-.478-.284-.882-.06-.882.493"/><path fill="#F45170" d="M155.24 93.834c0 .538.404 1.24.867 1.509.493.284.881.045.881-.508s-.388-1.225-.866-1.494c-.478-.284-.882-.06-.882.493"/><path fill="#423D9B" d="M155.24 97.41c0 .538.404 1.24.867 1.509.493.284.881.045.881-.508s-.388-1.225-.866-1.494c-.478-.284-.882-.06-.882.493"/><path fill="#9EA9C9" d="m131.186 75.013 10.554 6.091v4.251l-10.554-6.105z"/><path fill="#4C5C75" d="m143.317 82.01 10.554 6.091v4.251l-10.554-6.105z"/><path fill="#1D2943" d="m131.186 80.476 10.554 6.096v4.343l-10.554-6.096z"/><path fill="#9EA9C9" d="m143.317 87.481 10.554 6.097v4.343l-10.554-6.096z"/><path fill="#78E75A" d="M131.828 82.353c0 .365.274.842.589 1.025.335.193.599.03.599-.345 0-.376-.264-.832-.589-1.015-.325-.193-.599-.04-.599.335M144.055 83.881c0 .366.274.843.589 1.025.334.193.598.03.598-.345s-.264-.832-.588-1.014c-.325-.193-.599-.041-.599.334"/><path fill="#B0B8CF" d="m109.742 92.804 48.452 27.971 1.617-.932.031-12.432-48.453-27.972-1.616.933z"/><path fill="#B0B8CF" d="m158.205 120.781 1.605-.933.036-12.448-1.606.933z"/><path fill="#E3E7F0" d="m158.24 108.334 1.606-.933-48.446-27.97-1.605.933z"/><path fill="#C9CEE2" d="m109.789 80.364-.035 12.448 48.445 27.97.035-12.448z"/><path fill="#423D9B" d="m124.45 92.485-.014 5.363 4.705 2.719.015-5.363z"/><path fill="#50B069" d="m111.398 90.32 4.706 2.718.015-5.363-4.706-2.719z"/><path fill="#F45170" d="m117.926 88.72-.015 5.364 4.721 2.719.014-5.363z"/><path fill="#423D9B" d="M155.24 109.2c0 .538.404 1.24.867 1.509.493.284.881.045.881-.508s-.388-1.225-.866-1.494c-.478-.284-.882-.06-.882.493"/><path fill="#F45170" d="M155.24 112.776c0 .538.404 1.24.867 1.509.493.284.881.045.881-.508 0-.552-.388-1.225-.866-1.494-.478-.283-.882-.059-.882.493"/><path fill="#423D9B" d="M155.24 116.36c0 .538.404 1.24.867 1.509.493.284.881.045.881-.508s-.388-1.225-.866-1.494c-.478-.284-.882-.059-.882.493"/><path fill="#9EA9C9" d="m131.186 93.957 10.554 6.091v4.251l-10.554-6.105z"/><path fill="#4C5C75" d="m143.317 100.961 10.554 6.091v4.251l-10.554-6.105zM131.186 99.425l10.554 6.096v4.343l-10.554-6.096z"/><path fill="#9EA9C9" d="m143.317 106.427 10.554 6.096v4.343l-10.554-6.096z"/><path fill="#78E75A" d="M131.828 101.302c0 .366.274.843.589 1.025.335.193.599.031.599-.345 0-.375-.264-.832-.589-1.015-.325-.192-.599-.04-.599.335M144.055 102.832c0 .365.274.842.589 1.025.334.192.598.03.598-.346 0-.375-.264-.832-.588-1.014-.325-.193-.599-.041-.599.335"/><path fill="#B0B8CF" d="m109.742 111.743 48.452 27.972 1.617-.933.031-12.432-48.453-27.971-1.616.932z"/><path fill="#B0B8CF" d="m158.205 139.725 1.605-.933.036-12.448-1.606.933z"/><path fill="#E3E7F0" d="m158.24 127.28 1.606-.933-48.446-27.97-1.605.933z"/><path fill="#C9CEE2" d="m109.789 99.308-.035 12.448 48.445 27.97.035-12.448z"/><path fill="#423D9B" d="m124.45 111.438-.014 5.362 4.705 2.719.015-5.363z"/><path fill="#50B069" d="m111.398 109.272 4.706 2.719.015-5.363-4.706-2.719z"/><path fill="#F45170" d="m117.926 107.674-.015 5.363 4.721 2.719.014-5.363z"/><path fill="#423D9B" d="M155.24 128.147c0 .538.404 1.24.867 1.509.493.284.881.045.881-.508 0-.552-.388-1.225-.866-1.494-.478-.283-.882-.059-.882.493"/><path fill="#F45170" d="M155.24 131.729c0 .537.404 1.239.867 1.508.493.284.881.045.881-.508 0-.552-.388-1.225-.866-1.494-.478-.283-.882-.059-.882.494"/><path fill="#423D9B" d="M155.24 135.308c0 .537.404 1.24.867 1.508.493.284.881.045.881-.508 0-.552-.388-1.224-.866-1.493-.478-.284-.882-.06-.882.493"/><path fill="#9EA9C9" d="m131.186 112.907 10.554 6.092v4.251l-10.554-6.106z"/><path fill="#1D2943" d="m143.317 119.905 10.554 6.092v4.251l-10.554-6.106z"/><path fill="#4C5C75" d="m131.186 118.375 10.554 6.096v4.343l-10.554-6.096z"/><path fill="#9EA9C9" d="m143.317 125.376 10.554 6.096v4.343l-10.554-6.096z"/><path fill="#78E75A" d="M131.828 120.255c0 .366.274.843.589 1.025.335.193.599.031.599-.345 0-.375-.264-.832-.589-1.014-.325-.193-.599-.041-.599.334M144.055 121.779c0 .365.274.842.589 1.025.334.193.598.03.598-.345 0-.376-.264-.832-.588-1.015-.325-.193-.599-.041-.599.335"/><path fill="#B0B8CF" d="m109.742 130.693 48.452 27.972 1.617-.933.031-12.431-48.453-27.972-1.616.932z"/><path fill="#B0B8CF" d="m158.205 158.682 1.605-.933.036-12.448-1.606.933z"/><path fill="#E3E7F0" d="m158.24 146.234 1.606-.933-48.446-27.97-1.605.933z"/><path fill="#C9CEE2" d="m109.789 118.26-.035 12.448 48.445 27.97.035-12.448z"/><path fill="#423D9B" d="m124.45 130.386-.014 5.363 4.705 2.719.015-5.363z"/><path fill="#50B069" d="m111.398 128.22 4.706 2.719.015-5.363-4.706-2.719z"/><path fill="#F45170" d="m117.926 126.622-.015 5.363 4.721 2.719.014-5.363z"/><path fill="#423D9B" d="M155.24 147.096c0 .537.404 1.24.867 1.509.493.283.881.044.881-.508 0-.553-.388-1.225-.866-1.494-.478-.284-.882-.06-.882.493"/><path fill="#F45170" d="M155.24 150.677c0 .538.404 1.24.867 1.509.493.283.881.044.881-.508 0-.553-.388-1.225-.866-1.494-.478-.284-.882-.06-.882.493"/><path fill="#423D9B" d="M155.24 154.256c0 .538.404 1.24.867 1.509.493.284.881.045.881-.508s-.388-1.225-.866-1.494c-.478-.284-.882-.06-.882.493"/><path fill="#9EA9C9" d="m131.186 131.856 10.554 6.092v4.251l-10.554-6.106z"/><path fill="#4C5C75" d="m143.317 138.86 10.554 6.092v4.251l-10.554-6.106zM131.186 137.322l10.554 6.096v4.343l-10.554-6.096z"/><path fill="#9EA9C9" d="m143.317 144.326 10.554 6.096v4.343l-10.554-6.096z"/><path fill="#78E75A" d="M131.828 139.206c0 .365.274.842.589 1.025.335.192.599.03.599-.345 0-.376-.264-.833-.589-1.015-.325-.193-.599-.041-.599.335M144.055 140.725c0 .365.274.842.589 1.025.334.193.598.03.598-.345s-.264-.832-.588-1.015c-.325-.192-.599-.04-.599.335"/><path fill="#B0B8CF" d="m109.742 149.643 48.452 27.972 1.617-.932.031-12.432-48.453-27.972-1.616.933z"/><path fill="#B0B8CF" d="m158.205 177.619 1.605-.933.036-12.448-1.606.933z"/><path fill="#E3E7F0" d="m158.24 165.17 1.606-.933-48.446-27.97-1.605.933z"/><path fill="#C9CEE2" d="m109.789 137.202-.035 12.448 48.445 27.97.035-12.448z"/><path fill="#423D9B" d="m124.45 149.328-.014 5.363 4.705 2.719.015-5.363z"/><path fill="#50B069" d="m111.398 147.163 4.706 2.719.015-5.363-4.706-2.719z"/><path fill="#F45170" d="m117.926 145.564-.015 5.364 4.721 2.718.014-5.363z"/><path fill="#423D9B" d="M155.24 166.044c0 .538.404 1.24.867 1.509.493.284.881.045.881-.508s-.388-1.225-.866-1.494c-.478-.284-.882-.06-.882.493"/><path fill="#F45170" d="M155.24 169.625c0 .538.404 1.24.867 1.509.493.284.881.045.881-.508s-.388-1.225-.866-1.494c-.478-.284-.882-.06-.882.493"/><path fill="#423D9B" d="M155.24 173.204c0 .538.404 1.24.867 1.509.493.284.881.045.881-.508s-.388-1.225-.866-1.494c-.478-.284-.882-.06-.882.493"/><path fill="#9EA9C9" d="m131.186 150.805 10.554 6.091v4.251l-10.554-6.105z"/><path fill="#4C5C75" d="m143.317 157.804 10.554 6.091v4.251l-10.554-6.105zM131.186 156.271l10.554 6.096v4.343l-10.554-6.096z"/><path fill="#9EA9C9" d="m143.317 163.27 10.554 6.096v4.343l-10.554-6.096z"/><path fill="#78E75A" d="M131.828 158.144c0 .365.274.842.589 1.025.335.193.599.03.599-.345s-.264-.832-.589-1.015c-.325-.193-.599-.04-.599.335M144.055 159.673c0 .366.274.843.589 1.025.334.193.598.031.598-.345 0-.375-.264-.832-.588-1.014-.325-.193-.599-.041-.599.334"/><path fill="#B0B8CF" d="m109.742 168.594 48.452 27.971 1.617-.932.031-12.432-48.453-27.972-1.616.933z"/><path fill="#B0B8CF" d="m158.205 196.57 1.605-.933.036-12.449-1.606.933z"/><path fill="#E3E7F0" d="m158.24 184.12 1.606-.933-48.446-27.97-1.605.933z"/><path fill="#C9CEE2" d="m109.789 156.152-.035 12.448 48.445 27.97.035-12.448z"/><path fill="#423D9B" d="m124.45 168.285-.014 5.363 4.705 2.719.015-5.363z"/><path fill="#50B069" d="m111.398 166.12 4.706 2.719.015-5.363-4.706-2.719z"/><path fill="#F45170" d="m117.926 164.521-.015 5.364 4.721 2.718.014-5.363z"/><path fill="#423D9B" d="M155.24 184.998c0 .538.404 1.24.867 1.509.493.284.881.045.881-.508s-.388-1.225-.866-1.494c-.478-.284-.882-.06-.882.493"/><path fill="#F45170" d="M155.24 188.577c0 .538.404 1.24.867 1.509.493.284.881.045.881-.508s-.388-1.225-.866-1.494c-.478-.284-.882-.06-.882.493"/><path fill="#423D9B" d="M155.24 192.153c0 .538.404 1.24.867 1.509.493.284.881.045.881-.508s-.388-1.225-.866-1.494c-.478-.284-.882-.059-.882.493"/><path fill="#9EA9C9" d="m131.186 169.759 10.554 6.091v4.251l-10.554-6.105z"/><path fill="#4C5C75" d="m143.317 176.756 10.554 6.091v4.251l-10.554-6.105zM131.186 175.225l10.554 6.096v4.343l-10.554-6.096z"/><path fill="#9EA9C9" d="m143.317 182.224 10.554 6.096v4.343l-10.554-6.096z"/><path fill="#78E75A" d="M131.828 177.095c0 .366.274.843.589 1.025.335.193.599.031.599-.345 0-.375-.264-.832-.589-1.015-.325-.192-.599-.04-.599.335M144.055 178.623c0 .365.274.842.589 1.025.334.192.598.03.598-.345 0-.376-.264-.833-.588-1.015-.325-.193-.599-.041-.599.335"/><path fill="#B0B8CF" d="m209.336 52.123.004 1.54 6.123-3.535-.004-1.54zM207.884 60.361l.004 1.54 7.594-4.385-.004-1.54zM197.365 59.037l.005 1.54 10.694-6.175-.004-1.54zM201.421 60.395l.004 1.54 14.048-8.11-.005-1.54zM194.894 67.861l.004 1.54 1.377-.795-.004-1.54zM212.806 79.714l.004 1.54 2.733-1.578-.004-1.54zM212.163 102.282l.004 1.54 3.442-1.987-.004-1.54zM193.44 101.995l.004 1.54 22.136-12.78-.004-1.54zM190.903 88.664l.005 1.54 5.418-3.128-.004-1.54z"/><path fill="#BF7D5A" d="m208.049 89.861.004 1.54 7.515-4.339-.004-1.54z"/><path fill="#B0B8CF" d="m201.514 93.639.004 1.54 5.255-3.035-.004-1.54zM201.365 90.023l.004 1.54 14.19-8.192-.005-1.54zM194.978 97.412l.004 1.54 5.418-3.128-.004-1.54zM193.416 94.607l.005 1.54 6.905-3.987-.004-1.54zM193.406 90.918l.004 1.54 18.268-10.547-.005-1.54zM207.83 78.894l.005 1.54 7.704-4.449-.004-1.54zM210.947 73.395l.005 1.54 4.577-2.643-.004-1.54zM206.931 68.306l.005 1.54 8.566-4.946-.004-1.54z"/><path fill="#78E75A" d="m201.467 75.17.005 1.539 14.048-8.11-.005-1.54z"/><path fill="#B0B8CF" d="m197.411 73.808.004 1.54 6.569-3.793-.004-1.54z"/><path fill="#F45170" d="m202.372 68.733.066-.038-.005-1.485 13.055-7.537.004 1.54-13.12 7.575z"/><path fill="#B0B8CF" d="M201.473 67.764v1.542l-8.116 4.686-.005-1.54zM197.383 66.42l.005 1.54 8.54-4.93-.005-1.54zM194.88 64.175l.004 1.54 5.419-3.128-.005-1.54z"/><path fill="#BF7D5A" d="m190.831 62.812.005 1.54 5.418-3.129-.004-1.54z"/><path fill="#B0B8CF" d="m188.025 64.431.004 1.54 1.834-1.059-.004-1.54zM192.078 65.793l.004 1.54 1.834-1.059-.004-1.54zM192.085 69.48l.005 1.54 1.834-1.058-.005-1.54z"/><path fill="#78E75A" d="m197.434 84.89.004 1.54 8.876-5.125-.004-1.54z"/><path fill="#B0B8CF" d="m193.382 83.534.005 1.54 15.992-9.233-.004-1.54zM194.927 78.943l.004 1.54 5.419-3.129-.005-1.54zM190.874 77.58l.005 1.54 5.418-3.128-.005-1.54zM186.819 76.222l.005 1.54 5.418-3.128-.004-1.54zM184.012 77.843l.005 1.54 1.829-1.056-.005-1.54zM188.068 79.197l.004 1.54 1.834-1.06-.004-1.54zM192.122 80.567l.005 1.54 1.834-1.06-.004-1.54zM190.89 84.972l.005 1.54 1.376-.795-.004-1.54zM188.101 90.284l.004 1.54 1.834-1.06-.004-1.54zM190.912 92.358l.004 1.54 1.377-.796-.004-1.54zM192.169 99.03l.005 1.541 1.834-1.06-.005-1.54zM186.88 98.381l.004 1.54 5.419-3.128-.005-1.54z"/><path fill="#678AEE" d="m188.105 93.978.004 1.54 1.834-1.06-.004-1.54z"/><path fill="#B0B8CF" d="m186.903 105.768.005 1.54 5.418-3.128-.004-1.54zM210.67 95.746l.004 1.54 4.914-2.837-.004-1.54zM203.454 107.312l.004 1.54 7.999-4.618-.004-1.54zM206.235 102.003l.005 1.539 9.36-5.403-.005-1.54zM201.534 101.021l.005 1.54 8.188-4.727-.005-1.54z"/><path fill="#FFD06C" d="m193.459 109.38.004 1.54 11.594-6.694-.005-1.539z"/><path fill="#B0B8CF" d="m199.044 102.46.004 1.54 1.372-.792-.004-1.54zM196.235 104.079l.004 1.54 1.829-1.056-.004-1.54zM190.976 114.517l.004 1.54 5.418-3.128-.004-1.54zM190.964 110.822l.005 1.54 1.377-.795-.005-1.54zM188.16 112.44l.004 1.54 1.834-1.059-.004-1.54zM197.507 110.74l.004 1.54 4.757-2.746-.005-1.54zM188.169 116.134l.005 1.54 1.834-1.059-.005-1.54z"/><path fill="#FFD06C" d="m171.879 73.753.004 1.54 3.642-2.103-.004-1.54z"/><path fill="#B0B8CF" d="m171.889 77.443.004 1.54 3.642-2.103-.004-1.54zM171.899 81.136l.004 1.54 3.642-2.103-.004-1.54z"/><path fill="#DBA660" d="m171.916 84.831.004 1.54 3.642-2.103-.004-1.54z"/><path fill="#B0B8CF" d="m171.918 88.522.004 1.54 3.642-2.103-.004-1.54zM171.936 92.216l.004 1.54 3.642-2.103-.004-1.54z"/><path fill="#F45170" d="m171.942 95.912.004 1.54 3.642-2.102-.004-1.54z"/><path fill="#B0B8CF" d="m171.955 99.606.005 1.54 3.642-2.103-.005-1.54z"/><path fill="#DBA660" d="m171.963 103.302.004 1.54 3.642-2.103-.004-1.54z"/><path fill="#B0B8CF" d="m171.975 106.988.004 1.54 3.642-2.102-.004-1.54zM171.984 110.687l.005 1.54 3.642-2.103-.005-1.54zM171.994 114.371l.005 1.54 3.642-2.103-.005-1.539z"/><path fill="#B28AFD" d="m172.004 118.069.004 1.539 3.642-2.102-.004-1.54z"/><path fill="#B0B8CF" d="m172.018 121.756.004 1.54 3.642-2.103-.004-1.54zM172.223 125.34l.005 1.54 3.442-1.988-.004-1.539zM209.68 107.286l.004 1.54 6.123-3.535-.005-1.54z"/><path fill="#B28AFD" d="m208.228 115.522.004 1.54 7.594-4.384-.004-1.54z"/><path fill="#B0B8CF" d="m197.707 114.2.004 1.54 10.695-6.175-.004-1.54zM201.768 115.556l.005 1.54 14.047-8.111-.004-1.54zM195.242 123.023l.004 1.539 1.377-.795-.004-1.539zM197.729 121.584l.004 1.54 8.54-4.931-.004-1.54zM195.228 119.33l.004 1.54 5.418-3.128-.004-1.54zM191.175 117.968l.004 1.54 5.419-3.128-.005-1.54zM188.372 119.594l.005 1.54 1.834-1.059-.004-1.54zM192.423 120.955l.005 1.54 1.834-1.059-.005-1.54zM192.431 124.642l.004 1.54 1.835-1.059-.005-1.54z"/><path fill="#F45170" d="m172.225 128.914.004 1.54 3.642-2.103-.004-1.539z"/><path fill="#B28AFD" d="m172.238 132.606.005 1.54 3.642-2.103-.005-1.54z"/><path fill="#B0B8CF" d="m172.244 136.296.005 1.54 3.642-2.103-.005-1.54z"/><path fill="#1D2943" d="m192.462 82.751.342 155.304 55.415 32.198 59.082-34.094-.373-155.335-55.415-32.198z"/><path fill="#1D2943" d="m192.453 82.746.359 155.318 55.403 32.196-.359-155.317z"/><path fill="#111D33" d="m247.855 114.942.359 155.317 59.073-34.105-.359-155.318z"/><path fill="#4C5C75" d="m253.752 118.336.342 90.752 47.271-27.318-.31-90.721zM192.456 82.748l55.403 32.196 59.073-34.106-55.403-32.196z"/><path fill="#19233A" d="m197.597 82.144 6.025 3.502 31.983-18.466-6.025-3.501z"/><path fill="#4C5C75" d="M201.723 82.926c1.048.612 2.773.612 3.821 0l11.88-6.857c1.048-.611 1.07-1.616.021-2.227-1.048-.59-2.773-.59-3.821.022l-11.879 6.857c-1.07.611-1.07 1.615-.022 2.205"/><path fill="#F45170" d="M203.152 80.843c-.614.354-.617.917-.008 1.272.596.346 1.569.346 2.182-.008.6-.347.617-.918.021-1.264-.609-.355-1.596-.346-2.195 0"/><path fill="#78E75A" d="M206.702 78.788c-.599.346-.616.918-.007 1.272.596.346 1.583.338 2.182-.008.6-.346.617-.918.021-1.264-.609-.354-1.596-.346-2.196 0"/><path fill="#F45170" d="M210.278 76.725c-.614.355-.617.918-.007 1.272.595.346 1.568.346 2.182-.008.599-.346.602-.91.007-1.256-.61-.354-1.583-.354-2.182-.008"/><path fill="#78E75A" d="M213.827 74.676c-.599.346-.616.917-.007 1.272.596.346 1.583.338 2.182-.008.6-.347.617-.918.021-1.264-.609-.355-1.596-.346-2.196 0"/><path fill="#1D2943" d="M277.359 84.966c4.422 2.57 11.552 2.57 15.974 0 4.45-2.57 4.478-6.716.083-9.258-4.394-2.543-11.552-2.57-16.001 0-4.422 2.57-4.422 6.715-.056 9.258"/><path fill="#111D33" d="M278.856 84.105c3.598 2.091 9.4 2.091 12.998 0 3.62-2.091 3.643-5.464.067-7.533s-9.4-2.092-13.02 0c-3.598 2.091-3.598 5.464-.045 7.533"/><path fill="#B0B8CF" d="m193.457 103.544 48.452 27.971 1.617-.932.031-12.432-48.453-27.971-1.616.932z"/><path fill="#B0B8CF" d="m241.908 131.52 1.606-.933.035-12.448-1.606.933z"/><path fill="#E3E7F0" d="m241.943 119.07 1.606-.933-48.446-27.97-1.605.933z"/><path fill="#C9CEE2" d="m193.496 91.103-.035 12.448 48.445 27.97.035-12.448z"/><path fill="#423D9B" d="m195.11 100.933-.006 1.913 1.682.971.005-1.914zM198.198 102.718l-.005 1.913 1.665.962.005-1.914zM201.266 104.488l-.005 1.914 1.665.961.006-1.913z"/><path fill="#1D2943" d="m204.358 106.274-.005 1.914 1.665.961.005-1.913z"/><path fill="#B0B8CF" d="m195.133 93.482-.012 4.236 22.472 12.975.012-4.236z"/><path fill="#9EA9C9" d="m220.71 113.723-.003.817 19.595 11.313.003-.817z"/><path fill="#FFD06C" d="M231.315 115.484c-.469-.271-.874-.058-.876.499-.001.539.402 1.237.871 1.508.485.28.874.039.876-.5.001-.557-.386-1.227-.871-1.507"/><path fill="#9EA9C9" d="m220.696 117.008-.002.817 19.595 11.313.002-.817zM220.704 115.376l-.002.799 19.595 11.313.002-.799z"/><path fill="#78E75A" d="M237.774 119.223c-.453-.261-.858-.049-.86.509-.001.539.401 1.236.854 1.498.485.28.891.049.892-.49.002-.557-.401-1.237-.886-1.517"/><path fill="#E3E7F0" d="M234.539 117.354c-.468-.27-.858-.049-.859.509-.002.539.385 1.227.854 1.498.485.28.89.049.892-.49.001-.557-.402-1.237-.887-1.517"/><path fill="#F45170" d="M228.057 113.614c-.469-.271-.858-.049-.86.509-.001.538.385 1.227.854 1.498.485.28.891.048.892-.49.002-.558-.401-1.237-.886-1.517"/><path fill="#78E75A" d="M224.829 111.749c-.469-.271-.858-.049-.86.508-.001.539.385 1.228.854 1.498.485.28.875.04.876-.499.002-.557-.385-1.227-.87-1.507"/><path fill="#F45170" d="M221.595 109.879c-.469-.271-.875-.058-.876.499-.002.539.401 1.236.87 1.507.485.28.874.04.876-.499.001-.557-.385-1.227-.87-1.507"/><path fill="#1D2943" d="m240.076 119.436-22.473-12.975-.012 4.236 22.473 12.974zm-12.021-3.815c-.469-.27-.856-.959-.854-1.498.001-.557.391-.779.86-.508.485.28.888.959.886 1.516-.002.539-.407.77-.892.49m3.25 1.877c-.469-.271-.872-.969-.871-1.508.002-.557.407-.77.876-.499.485.28.872.95.87 1.507-.001.539-.39.78-.875.5m-9.717-5.61c-.469-.271-.872-.969-.87-1.508.001-.557.407-.77.876-.499.485.28.871.95.87 1.507-.002.539-.391.78-.876.5m12.95 7.476c-.469-.27-.856-.959-.854-1.498.002-.557.391-.779.86-.508.485.28.888.959.886 1.517-.001.538-.407.769-.892.489m3.234 1.867c-.453-.261-.856-.959-.854-1.498.001-.557.407-.77.859-.508.485.28.888.959.887 1.516-.002.539-.407.77-.892.49m-12.951-7.477c-.468-.27-.855-.959-.854-1.498.002-.557.391-.779.86-.508.485.28.872.95.87 1.507-.001.539-.391.78-.876.499"/><path fill="#B0B8CF" d="m193.457 122.452 48.452 27.972 1.617-.933.031-12.432-48.453-27.971-1.616.932z"/><path fill="#B0B8CF" d="m241.908 150.441 1.606-.933.035-12.448-1.606.933z"/><path fill="#E3E7F0" d="m241.943 137.993 1.606-.933-48.446-27.97-1.605.933z"/><path fill="#C9CEE2" d="m193.496 110.022-.035 12.449 48.445 27.97.035-12.449z"/><path fill="#423D9B" d="m195.11 119.85-.006 1.913 1.682.971.005-1.914z"/><path fill="#1D2943" d="m198.2 121.63-.005 1.913 1.665.962.005-1.914z"/><path fill="#423D9B" d="m201.266 123.407-.005 1.914 1.665.961.006-1.913zM204.358 125.188l-.005 1.914 1.665.961.005-1.913z"/><path fill="#B0B8CF" d="m195.133 112.399-.012 4.236 22.472 12.975.012-4.236z"/><path fill="#9EA9C9" d="m220.71 132.637-.003.817 19.595 11.313.003-.817z"/><path fill="#FFD06C" d="M231.315 134.405c-.469-.271-.874-.058-.876.499-.001.539.402 1.237.871 1.507.485.281.874.04.876-.499.001-.557-.386-1.227-.871-1.507"/><path fill="#9EA9C9" d="m220.696 135.928-.002.817 19.595 11.313.002-.817zM220.704 134.29l-.002.799 19.595 11.313.002-.799z"/><path fill="#78E75A" d="M237.776 138.14c-.453-.261-.858-.049-.86.509-.002.539.401 1.236.854 1.498.485.28.891.049.892-.49.002-.557-.401-1.237-.886-1.517"/><path fill="#E3E7F0" d="M234.539 136.269c-.468-.27-.858-.048-.859.509-.002.539.385 1.227.854 1.498.485.28.89.049.892-.49.001-.557-.402-1.237-.887-1.517"/><path fill="#F45170" d="M228.057 132.526c-.469-.27-.858-.049-.86.509-.001.538.385 1.227.854 1.498.485.28.891.049.892-.49.002-.558-.401-1.237-.886-1.517"/><path fill="#78E75A" d="M224.829 130.664c-.469-.271-.858-.049-.86.508-.001.539.385 1.228.854 1.498.485.28.875.04.876-.499.002-.557-.385-1.227-.87-1.507"/><path fill="#F45170" d="M221.595 128.791c-.469-.271-.875-.058-.876.499-.002.539.401 1.237.87 1.507.485.28.874.04.876-.499.001-.557-.385-1.227-.87-1.507"/><path fill="#1D2943" d="m240.078 138.348-22.473-12.975-.012 4.236 22.473 12.974zm-12.021-3.815c-.469-.27-.856-.959-.854-1.498.001-.557.391-.779.86-.508.485.28.887.959.886 1.517-.002.538-.407.769-.892.489m3.25 1.877c-.469-.271-.872-.969-.871-1.508.002-.557.407-.77.876-.499.485.28.872.95.87 1.507-.001.539-.39.78-.875.5m-9.717-5.61c-.469-.271-.872-.969-.87-1.508.001-.557.407-.769.876-.499.485.28.871.95.87 1.507-.002.539-.391.78-.876.5m12.95 7.476c-.469-.27-.856-.959-.854-1.498.002-.557.391-.779.86-.508.485.28.888.959.886 1.517-.001.538-.407.77-.892.489m3.233 1.867c-.452-.261-.855-.959-.854-1.498.002-.557.408-.769.86-.508.485.28.888.959.887 1.516-.002.539-.407.77-.893.49m-12.95-7.476c-.469-.271-.855-.96-.854-1.498.002-.558.391-.78.86-.509.485.28.872.95.87 1.507-.001.539-.391.78-.876.5"/><path fill="#B0B8CF" d="m193.457 141.364 48.452 27.972 1.617-.933.031-12.432L195.104 128l-1.616.932z"/><path fill="#B0B8CF" d="m241.908 169.348 1.606-.933.035-12.448-1.606.933z"/><path fill="#E3E7F0" d="m241.943 156.901 1.606-.933-48.446-27.97-1.605.933z"/><path fill="#C9CEE2" d="m193.496 128.934-.035 12.448 48.445 27.97.035-12.448z"/><path fill="#423D9B" d="m195.11 138.762-.006 1.913 1.682.971.005-1.914zM198.2 140.542l-.005 1.914 1.665.961.005-1.914z"/><path fill="#1D2943" d="m201.266 142.317-.005 1.914 1.665.961.006-1.913z"/><path fill="#423D9B" d="m204.358 144.097-.005 1.913 1.665.962.005-1.914z"/><path fill="#B0B8CF" d="m195.133 131.312-.012 4.235 22.472 12.975.012-4.236z"/><path fill="#9EA9C9" d="m220.71 151.549-.003.817 19.595 11.313.003-.817z"/><path fill="#FFD06C" d="M231.315 153.318c-.469-.271-.874-.058-.876.499-.001.539.402 1.237.871 1.508.485.28.874.039.876-.5.001-.557-.386-1.227-.871-1.507"/><path fill="#9EA9C9" d="m220.696 154.84-.002.817 19.595 11.313.002-.817zM220.704 153.203l-.002.799 19.595 11.313.002-.799z"/><path fill="#78E75A" d="M237.776 157.05c-.453-.261-.858-.048-.86.509-.002.539.401 1.236.854 1.498.485.28.891.049.892-.49.002-.557-.401-1.237-.886-1.517"/><path fill="#E3E7F0" d="M234.539 155.181c-.468-.27-.858-.048-.859.509-.002.539.385 1.227.854 1.498.485.28.89.049.892-.49.001-.557-.402-1.236-.887-1.517"/><path fill="#F45170" d="M228.057 151.438c-.469-.27-.858-.049-.86.509-.001.539.385 1.227.854 1.498.485.28.891.049.892-.49.002-.557-.401-1.237-.886-1.517"/><path fill="#78E75A" d="M224.829 149.572c-.469-.271-.858-.049-.86.509-.001.538.385 1.227.854 1.498.485.28.875.039.876-.5.002-.557-.385-1.227-.87-1.507"/><path fill="#F45170" d="M221.595 147.703c-.469-.271-.875-.058-.876.499-.002.539.401 1.237.87 1.507.485.28.874.04.876-.499.001-.557-.385-1.227-.87-1.507"/><path fill="#1D2943" d="m240.074 157.258-22.473-12.975-.012 4.236 22.473 12.975zm-12.021-3.814c-.469-.271-.856-.96-.854-1.498.001-.558.391-.78.86-.509.485.28.888.959.886 1.517-.002.538-.407.77-.892.49m3.25 1.876c-.469-.271-.872-.969-.871-1.508.002-.557.407-.769.876-.499.485.28.872.95.87 1.508-.001.538-.39.779-.875.499m-9.717-5.61c-.469-.271-.872-.969-.87-1.507.001-.558.407-.77.876-.5.485.28.871.95.87 1.508-.002.538-.391.779-.876.499m12.95 7.477c-.469-.271-.855-.96-.854-1.498.002-.558.391-.779.86-.509.485.28.888.959.886 1.517-.001.539-.407.77-.892.49m3.234 1.867c-.453-.262-.856-.96-.854-1.498.001-.558.407-.77.859-.509.485.28.888.959.887 1.517-.002.538-.407.77-.892.49m-12.951-7.477c-.468-.271-.855-.959-.854-1.498.002-.558.391-.779.86-.509.485.28.872.95.87 1.508-.001.538-.391.779-.876.499"/><path fill="#B0B8CF" d="m193.457 160.283 48.452 27.972 1.617-.933.031-12.432-48.453-27.971-1.616.932z"/><path fill="#B0B8CF" d="m241.908 188.263 1.606-.933.035-12.448-1.606.933z"/><path fill="#E3E7F0" d="m241.943 175.813 1.606-.933-48.446-27.97-1.605.933z"/><path fill="#C9CEE2" d="m193.496 147.846-.035 12.448 48.445 27.97.035-12.448z"/><path fill="#1D2943" d="m195.11 157.674-.006 1.913 1.682.971.005-1.913z"/><path fill="#423D9B" d="m198.2 159.454-.005 1.914 1.665.961.005-1.913zM201.266 161.229l-.005 1.914 1.665.961.006-1.913zM204.358 163.012l-.005 1.913 1.665.962.005-1.914z"/><path fill="#B0B8CF" d="m195.133 150.224-.012 4.235 22.472 12.975.012-4.236z"/><path fill="#9EA9C9" d="m220.71 170.459-.003.817 19.595 11.314.003-.818z"/><path fill="#FFD06C" d="M231.315 172.227c-.469-.27-.874-.058-.876.499-.001.539.402 1.237.871 1.508.485.28.874.039.876-.499.001-.558-.386-1.228-.871-1.508"/><path fill="#9EA9C9" d="m220.696 173.751-.002.817 19.595 11.314.002-.818zM220.704 172.114l-.002.799 19.595 11.313.002-.799z"/><path fill="#78E75A" d="M237.776 175.963c-.453-.262-.858-.049-.86.508-.002.539.401 1.237.854 1.498.485.28.891.049.892-.49.002-.557-.401-1.236-.886-1.516"/><path fill="#E3E7F0" d="M234.539 174.094c-.468-.271-.858-.049-.859.508-.002.539.385 1.227.854 1.498.485.28.89.049.892-.49.001-.557-.402-1.236-.887-1.516"/><path fill="#F45170" d="M228.057 170.35c-.469-.27-.858-.048-.86.509-.001.539.385 1.227.854 1.498.485.28.891.049.892-.49.002-.557-.401-1.237-.886-1.517"/><path fill="#78E75A" d="M224.829 168.484c-.469-.27-.858-.049-.86.509-.001.538.385 1.227.854 1.498.485.28.875.039.876-.5.002-.557-.385-1.227-.87-1.507"/><path fill="#F45170" d="M221.595 166.62c-.469-.271-.875-.058-.876.499-.002.539.401 1.237.87 1.507.485.28.874.04.876-.499.001-.557-.385-1.227-.87-1.507"/><path fill="#1D2943" d="M240.074 176.175 217.601 163.2l-.012 4.236 22.473 12.975zm-12.021-3.814c-.469-.271-.856-.96-.854-1.498.001-.558.391-.78.86-.509.485.28.888.959.886 1.517-.002.539-.407.77-.892.49m3.25 1.876c-.469-.271-.872-.969-.871-1.508.002-.557.407-.769.876-.499.485.28.872.95.87 1.508-.001.538-.39.779-.875.499m-9.717-5.61c-.469-.271-.872-.969-.87-1.507.001-.558.407-.77.876-.5.485.28.871.95.87 1.508-.002.538-.391.779-.876.499m12.95 7.477c-.469-.271-.855-.96-.854-1.498.002-.558.391-.779.86-.509.485.28.888.959.886 1.517-.001.539-.407.77-.892.49m3.234 1.866c-.453-.261-.856-.959-.854-1.497.001-.558.407-.77.859-.509.485.28.888.959.887 1.517-.002.538-.407.77-.892.489m-12.951-7.476c-.468-.271-.855-.96-.854-1.498.002-.558.391-.779.86-.509.485.28.872.95.87 1.508-.001.538-.391.779-.876.499"/><path fill="#B0B8CF" d="m193.457 198.101 48.452 27.972 1.617-.932.031-12.432-48.453-27.972-1.616.933z"/><path fill="#B0B8CF" d="m241.906 226.085 1.606-.933.035-12.448-1.606.933z"/><path fill="#E3E7F0" d="m241.941 213.638 1.606-.933-48.446-27.97-1.605.933z"/><path fill="#C9CEE2" d="m193.498 185.668-.035 12.448 48.445 27.97.035-12.448z"/><path fill="#423D9B" d="m195.11 195.497-.006 1.914 1.682.97.005-1.913zM198.198 197.279l-.005 1.914 1.665.961.005-1.913zM201.266 199.055l-.005 1.913 1.665.962.006-1.914zM204.358 200.839l-.005 1.913 1.665.962.005-1.914z"/><path fill="#B0B8CF" d="m195.133 188.049-.012 4.236 22.472 12.974.012-4.235z"/><path fill="#9EA9C9" d="m220.71 208.289-.003.818 19.595 11.313.003-.818z"/><path fill="#FFD06C" d="M231.315 210.053c-.469-.271-.874-.059-.876.499-.001.538.402 1.236.871 1.507.485.28.874.04.876-.499.001-.558-.386-1.227-.871-1.507"/><path fill="#9EA9C9" d="m220.696 211.574-.002.818 19.595 11.313.002-.818zM220.704 209.94l-.002.799 19.595 11.313.002-.798z"/><path fill="#78E75A" d="M237.774 213.788c-.453-.262-.858-.049-.86.508-.001.539.401 1.237.854 1.498.485.28.891.049.892-.49.002-.557-.401-1.236-.886-1.516"/><path fill="#E3E7F0" d="M234.539 211.919c-.468-.271-.858-.049-.859.508-.002.539.385 1.228.854 1.498.485.28.89.049.892-.49.001-.557-.402-1.236-.887-1.516"/><path fill="#F45170" d="M228.057 208.176c-.469-.271-.858-.049-.86.508-.001.539.385 1.227.854 1.498.485.28.891.049.892-.49.002-.557-.401-1.236-.886-1.516"/><path fill="#78E75A" d="M224.829 206.309c-.469-.27-.858-.048-.86.509-.001.539.385 1.227.854 1.498.485.28.875.039.876-.499.002-.558-.385-1.228-.87-1.508"/><path fill="#F45170" d="M221.595 204.445c-.469-.271-.875-.058-.876.499-.002.539.401 1.237.87 1.508.485.28.874.039.876-.5.001-.557-.385-1.227-.87-1.507"/><path fill="#1D2943" d="m240.076 214-22.473-12.975-.012 4.236 22.473 12.975zm-12.021-3.814c-.469-.271-.856-.959-.854-1.498.001-.558.391-.779.86-.509.485.28.888.96.886 1.517-.002.539-.407.77-.892.49m3.25 1.876c-.469-.271-.872-.969-.871-1.507.002-.558.407-.77.876-.499.485.28.872.949.87 1.507-.001.539-.39.779-.875.499m-9.717-5.61c-.469-.271-.872-.968-.87-1.507.001-.558.407-.77.876-.499.485.28.871.95.87 1.507-.002.539-.391.779-.876.499m12.95 7.477c-.469-.271-.856-.959-.854-1.498.002-.557.391-.779.86-.509.485.28.888.96.886 1.517-.001.539-.407.77-.892.49m3.234 1.867c-.453-.262-.856-.96-.854-1.498.001-.558.407-.77.859-.509.485.28.888.959.887 1.517-.002.539-.407.77-.892.49m-12.951-7.477c-.468-.271-.855-.959-.854-1.498.002-.557.391-.779.86-.509.485.281.872.95.87 1.508-.001.538-.391.779-.876.499"/><path fill="#B0B8CF" d="m193.457 217.015 48.452 27.971 1.617-.932.031-12.432-48.453-27.972-1.616.933z"/><path fill="#B0B8CF" d="m241.908 244.999 1.606-.933.035-12.448-1.606.933z"/><path fill="#E3E7F0" d="m241.943 232.551 1.606-.933-48.446-27.97-1.605.933z"/><path fill="#C9CEE2" d="m193.496 204.579-.035 12.448 48.445 27.97.035-12.448z"/><path fill="#423D9B" d="m195.11 214.408-.006 1.914 1.682.97.005-1.913zM198.2 216.19l-.005 1.914 1.665.961.005-1.913zM201.266 217.97l-.005 1.913 1.665.962.006-1.914zM204.358 219.748l-.005 1.914 1.665.961.005-1.914z"/><path fill="#B0B8CF" d="m195.133 206.96-.012 4.236 22.472 12.974.012-4.235z"/><path fill="#9EA9C9" d="m220.71 227.2-.003.818 19.595 11.313.003-.818z"/><path fill="#FFD06C" d="M231.315 228.968c-.469-.271-.874-.059-.876.499-.001.538.402 1.236.871 1.507.485.28.874.04.876-.499.001-.558-.386-1.227-.871-1.507"/><path fill="#9EA9C9" d="m220.696 230.487-.002.818 19.595 11.313.002-.818zM220.704 228.853l-.002.798 19.595 11.314.002-.799z"/><path fill="#78E75A" d="M237.776 232.699c-.453-.261-.858-.049-.86.508-.002.539.401 1.237.854 1.498.485.28.891.049.892-.49.002-.557-.401-1.236-.886-1.516"/><path fill="#E3E7F0" d="M234.539 230.83c-.468-.271-.858-.049-.859.508-.002.539.385 1.228.854 1.498.485.28.89.049.892-.49.001-.557-.402-1.236-.887-1.516"/><path fill="#F45170" d="M228.057 227.087c-.469-.271-.858-.049-.86.508-.001.539.385 1.227.854 1.498.485.28.891.049.892-.49.002-.557-.401-1.236-.886-1.516"/><path fill="#78E75A" d="M224.829 225.221c-.469-.271-.858-.049-.86.508-.001.539.385 1.227.854 1.498.485.28.875.04.876-.499.002-.558-.385-1.227-.87-1.507"/><path fill="#F45170" d="M221.595 223.356c-.469-.27-.875-.058-.876.499-.002.539.401 1.237.87 1.508.485.28.874.039.876-.5.001-.557-.385-1.227-.87-1.507"/><path fill="#1D2943" d="m240.074 232.911-22.473-12.974-.012 4.235 22.473 12.975zm-12.021-3.814c-.469-.271-.856-.959-.854-1.498.001-.557.391-.779.86-.509.485.281.888.96.886 1.517-.002.539-.407.77-.892.49m3.25 1.876c-.469-.271-.872-.968-.871-1.507.002-.558.407-.77.876-.499.485.28.872.95.87 1.507-.001.539-.39.779-.875.499m-9.717-5.61c-.469-.27-.872-.968-.87-1.507.001-.557.407-.77.876-.499.485.28.871.95.87 1.507-.002.539-.391.779-.876.499m12.95 7.477c-.469-.271-.855-.959-.854-1.498.002-.557.391-.779.86-.508.485.28.888.959.886 1.516-.001.539-.407.77-.892.49m3.234 1.867c-.453-.262-.856-.959-.854-1.498.001-.557.407-.77.859-.509.485.28.888.96.887 1.517-.002.539-.407.77-.892.49m-12.951-7.477c-.468-.271-.855-.959-.854-1.498.002-.557.391-.779.86-.508.485.28.872.95.87 1.507-.001.539-.391.779-.876.499"/><path fill="#C9CEE2" d="m193.858 177.232 48.422 27.971.062-12.432-48.453-27.971z"/><path fill="#111D33" d="m210.475 224.919 31.836-18.501.039-13.658-31.836 18.501z"/><path fill="#4C5C75" d="m210.514 211.262 31.836-18.501-45.476-26.255-31.836 18.501z"/><path fill="#B0B3BA" d="m165.038 185.003-.039 13.658 45.476 26.255.039-13.658z"/><path fill="#B0B8CF" d="m161.705 197.346 48.452 27.971 1.617-.932.031-12.432-48.453-27.972-1.616.933z"/><path fill="#B0B8CF" d="m210.148 225.332 1.606-.933.035-12.448-1.605.933z"/><path fill="#E3E7F0" d="m210.184 212.883 1.605-.933-48.445-27.971-1.606.934z"/><path fill="#C9CEE2" d="m161.74 184.915-.035 12.448 48.445 27.97.036-12.448z"/><path fill="#423D9B" d="m163.348 194.745-.006 1.914 1.682.97.005-1.913zM166.438 196.527l-.005 1.914 1.665.961.006-1.913zM169.507 198.307l-.006 1.913 1.665.962.006-1.914zM172.593 200.085l-.006 1.913 1.665.962.006-1.914z"/><path fill="#B0B8CF" d="m163.367 187.297-.012 4.236 22.473 12.974.012-4.235z"/><path fill="#9EA9C9" d="m188.94 207.534-.002.818 19.595 11.313.002-.818z"/><path fill="#FFD06C" d="M199.552 209.304c-.469-.27-.875-.058-.876.5-.002.538.401 1.236.87 1.507.485.28.874.039.876-.499.001-.558-.385-1.228-.87-1.508"/><path fill="#9EA9C9" d="m188.94 210.824-.002.818 19.595 11.313.002-.818zM188.944 209.189l-.002.799 19.595 11.313.002-.798z"/><path fill="#78E75A" d="M206.016 213.036c-.453-.262-.858-.049-.86.508-.001.539.402 1.237.854 1.498.485.28.891.049.892-.49.002-.557-.401-1.236-.886-1.516"/><path fill="#E3E7F0" d="M202.784 211.167c-.469-.271-.859-.049-.86.508-.002.539.385 1.228.854 1.498.485.28.89.049.892-.49.002-.557-.401-1.236-.886-1.516"/><path fill="#F45170" d="M196.295 207.424c-.469-.271-.858-.049-.859.508-.002.539.385 1.227.854 1.498.485.28.89.049.892-.49.001-.557-.402-1.236-.887-1.516"/><path fill="#78E75A" d="M193.067 205.557c-.469-.27-.858-.048-.859.509-.002.539.385 1.227.854 1.498.485.28.874.039.875-.499.002-.558-.385-1.228-.87-1.508"/><path fill="#F45170" d="M189.831 203.693c-.469-.271-.874-.058-.876.499-.001.539.401 1.237.87 1.508.485.28.875.039.876-.5.002-.557-.385-1.227-.87-1.507"/><path fill="#1D2943" d="m208.316 213.243-22.472-12.974-.012 4.235 22.472 12.975zm-12.021-3.814c-.469-.271-.855-.959-.854-1.498.002-.557.391-.779.86-.508.485.28.888.959.886 1.516-.001.539-.407.77-.892.49m3.25 1.876c-.469-.271-.872-.968-.87-1.507.001-.557.407-.77.875-.499.486.28.872.95.871 1.507-.002.539-.391.779-.876.499m-9.717-5.61c-.469-.27-.872-.968-.87-1.507.001-.557.407-.77.876-.499.485.28.872.95.87 1.507-.002.539-.391.779-.876.499m12.95 7.477c-.469-.271-.855-.959-.854-1.498.002-.557.391-.779.86-.508.485.28.888.959.886 1.516-.001.539-.407.77-.892.49m3.234 1.867c-.453-.261-.856-.959-.854-1.498.001-.557.407-.77.859-.509.486.28.888.96.887 1.517-.002.539-.407.77-.892.49m-12.95-7.477c-.469-.271-.856-.959-.854-1.498.001-.557.39-.779.859-.508.485.28.872.95.871 1.507-.002.539-.391.779-.876.499"/><path fill="#4C5C75" d="m294.968 225.215-2.52 1.463.041 12.329 2.499-1.462zM276.599 235.823l-2.52 1.463.021 12.33 2.519-1.463zM262.823 243.787l-2.519 1.443.02 12.329 2.52-1.442zM304.152 219.912l-2.52 1.463.041 12.33 2.499-1.443zM267.415 241.125l-2.519 1.463.02 12.33 2.52-1.463zM290.376 227.879l-2.519 1.443.02 12.329 2.519-1.442zM251.122 250.531l.021 12.33 2.519-1.442-.02-12.33zM285.784 230.518l-2.519 1.462.02 12.33 2.52-1.463zM258.232 246.43l-2.52 1.463.02 12.329 2.52-1.463zM281.193 233.181l-2.52 1.442.02 12.33 2.52-1.443zM272.007 238.483l-2.52 1.443.021 12.33 2.519-1.443zM299.56 222.572l-2.52 1.443.041 12.35 2.499-1.463zM203.01 225.837l2.519 1.463-.04 12.329-2.5-1.462zM221.379 236.44l2.519 1.463-.02 12.33-2.519-1.463zM235.154 244.408l2.52 1.443-.021 12.33-2.519-1.443zM193.828 220.533l2.52 1.463-.041 12.33-2.499-1.443zM230.563 241.746l2.519 1.463-.02 12.33-2.52-1.463zM207.602 228.499l2.519 1.443-.02 12.329-2.52-1.442zM246.857 251.153l-.02 12.329-2.519-1.442.02-12.33zM212.195 231.139l2.52 1.463-.02 12.329-2.52-1.463zM239.748 247.049l2.52 1.463-.021 12.33-2.519-1.463zM216.785 233.803l2.52 1.442-.021 12.33-2.519-1.443zM225.973 239.104l2.519 1.443-.02 12.33-2.52-1.443zM198.418 223.193l2.52 1.443-.041 12.35-2.499-1.463z"/><path fill="#1D2943" d="m254.026 223.57.031 8.609c0 4.32 3.046 6.061 6.807 3.885l7.521-4.351c3.761-2.176 6.775-7.428 6.775-11.748l-.031-8.578c0-4.351-3.046-6.061-6.806-3.916l-7.522 4.351c-3.76 2.176-6.775 7.428-6.775 11.748M282.341 207.221v8.609c.031 4.32 3.108 6.03 6.868 3.885l7.49-4.32c3.73-2.175 6.776-7.428 6.776-11.748l-.031-8.609c-.031-4.32-3.077-6.06-6.838-3.885l-7.49 4.32c-3.761 2.176-6.806 7.428-6.775 11.748"/><path fill="#4C5C75" d="m259.935 234.452 7.521-4.352c3.167-1.832 5.843-6.471 5.843-10.133l-.031-8.571c0-2.986-1.592-3.686-4.016-2.304l-7.512 4.346c-3.167 1.834-5.844 6.474-5.844 10.135l.031 8.601c0 2.959 1.584 3.679 4.008 2.278M288.287 218.097l7.482-4.314c3.164-1.846 5.842-6.488 5.842-10.133l-.032-8.601c-.02-2.987-1.635-3.668-4.038-2.278l-7.492 4.32c-3.191 1.847-5.868 6.482-5.842 10.119v8.623c.02 2.941 1.65 3.652 4.08 2.264"/><path fill="#B0B8CF" d="m293.043 99.648.004 1.54 6.123-3.535-.004-1.54zM291.587 107.884l.004 1.54 7.595-4.384-.005-1.54zM281.066 106.562l.005 1.54 10.695-6.174-.005-1.54zM285.128 107.92l.004 1.54 14.048-8.111-.005-1.54zM278.597 115.386l.005 1.54 1.377-.795-.005-1.54zM296.513 127.241l.004 1.54 2.733-1.578-.004-1.54zM295.864 149.812l.004 1.54 3.443-1.988-.005-1.54zM277.141 149.518l.004 1.54 22.136-12.78-.004-1.54zM274.609 136.19l.004 1.54 5.418-3.129-.004-1.539z"/><path fill="#BF7D5A" d="m291.75 137.386.004 1.54 7.516-4.339-.005-1.54z"/><path fill="#B0B8CF" d="m285.221 141.162.004 1.54 5.255-3.034-.004-1.54zM285.07 137.547l.004 1.54 14.19-8.193-.005-1.54zM278.683 144.937l.004 1.54 5.418-3.129-.004-1.539zM277.121 142.131l.005 1.54 6.905-3.987-.004-1.539zM277.118 138.442l.005 1.54 18.268-10.547-.005-1.539zM291.526 126.421l.004 1.54 7.704-4.448-.004-1.54zM294.643 120.922l.004 1.54 4.578-2.643-.005-1.54zM290.636 115.832l.005 1.539 8.566-4.945-.004-1.54z"/><path fill="#78E75A" d="m285.163 122.693.004 1.54 14.048-8.11-.005-1.54z"/><path fill="#B0B8CF" d="m281.11 121.335.004 1.54 6.57-3.793-.005-1.54z"/><path fill="#F45170" d="m286.075 116.26.066-.038-.004-1.486 13.054-7.537.004 1.54-13.12 7.575z"/><path fill="#B0B8CF" d="M285.176 115.291v1.542l-8.116 4.686-.005-1.54zM281.088 113.946l.005 1.54 8.54-4.93-.005-1.54zM278.589 111.699l.004 1.54 5.419-3.129-.005-1.54z"/><path fill="#BF7D5A" d="m274.536 110.337.005 1.54 5.418-3.128-.004-1.54z"/><path fill="#B0B8CF" d="m271.73 111.954.004 1.54 1.834-1.059-.004-1.539zM275.783 113.318l.004 1.54 1.834-1.059-.004-1.54zM275.796 117.004l.005 1.54 1.834-1.059-.005-1.54z"/><path fill="#78E75A" d="m281.143 132.413.004 1.54 8.876-5.125-.004-1.54z"/><path fill="#B0B8CF" d="m277.089 131.057.005 1.54 15.992-9.233-.004-1.54zM278.632 126.465l.004 1.54 5.419-3.128-.005-1.54zM274.577 125.104l.005 1.54 5.418-3.129-.004-1.539zM270.528 123.747l.005 1.54 5.418-3.128-.004-1.54zM267.718 125.368l.004 1.54 1.829-1.056-.005-1.54zM271.769 126.722l.004 1.54 1.834-1.059-.004-1.54zM275.824 128.086l.004 1.54 1.834-1.059-.004-1.54zM274.599 132.494l.005 1.54 1.376-.795-.004-1.54zM271.802 137.807l.004 1.54 1.835-1.059-.005-1.54zM274.621 139.884l.004 1.54 1.377-.795-.004-1.54zM275.878 146.554l.005 1.54 1.834-1.059-.005-1.54zM270.585 145.905l.004 1.54 5.419-3.129-.005-1.54z"/><path fill="#678AEE" d="m271.814 141.502.004 1.54 1.834-1.059-.004-1.54z"/><path fill="#B0B8CF" d="m270.605 153.292.004 1.54 5.418-3.128-.004-1.54zM294.373 143.274l.004 1.539 4.914-2.837-.004-1.539zM287.159 154.836l.004 1.54 7.999-4.618-.004-1.54zM289.942 149.529l.005 1.54 9.36-5.404-.005-1.54zM285.241 148.546l.005 1.54 8.188-4.728-.005-1.54z"/><path fill="#FFD06C" d="m277.164 156.903.004 1.54 11.594-6.693-.005-1.54z"/><path fill="#B0B8CF" d="m282.745 149.981.004 1.54 1.372-.792-.004-1.54zM279.94 151.603l.005 1.54 1.828-1.056-.004-1.54zM274.683 162.04l.004 1.54 5.418-3.128-.004-1.54zM274.669 158.345l.005 1.54 1.377-.795-.005-1.54zM271.869 159.963l.004 1.54 1.834-1.059-.004-1.54zM281.216 158.265l.004 1.54 4.757-2.746-.005-1.539zM271.874 163.662l.005 1.539 1.834-1.059-.004-1.539z"/><path fill="#FFD06C" d="m255.58 121.277.005 1.539 3.642-2.102-.005-1.54z"/><path fill="#B0B8CF" d="m255.598 124.97.004 1.54 3.642-2.103-.004-1.54zM255.6 128.658l.004 1.54 3.642-2.102-.004-1.54z"/><path fill="#DBA660" d="m255.613 132.359.005 1.54 3.642-2.103-.005-1.54z"/><path fill="#B0B8CF" d="m255.627 136.045.004 1.54 3.642-2.103-.004-1.54zM255.637 139.742l.004 1.54 3.642-2.102-.004-1.54z"/><path fill="#F45170" d="m255.647 143.436.004 1.54 3.642-2.103-.004-1.54z"/><path fill="#B0B8CF" d="m255.654 147.131.005 1.54 3.642-2.103-.005-1.54z"/><path fill="#DBA660" d="m255.668 150.821.004 1.539 3.642-2.102-.004-1.54z"/><path fill="#B0B8CF" d="m255.682 154.512.004 1.54 3.642-2.103-.004-1.54zM255.69 158.211l.004 1.54 3.642-2.103-.004-1.54zM255.695 161.896l.005 1.54 3.642-2.103-.005-1.54z"/><path fill="#B28AFD" d="m255.709 165.594.004 1.54 3.642-2.103-.004-1.54z"/><path fill="#B0B8CF" d="m255.727 169.279.004 1.54 3.642-2.102-.004-1.54zM255.928 172.866l.005 1.54 3.442-1.987-.004-1.54zM293.387 154.808l.004 1.54 6.123-3.535-.005-1.54z"/><path fill="#B28AFD" d="m291.939 163.045.004 1.54 7.594-4.385-.004-1.54z"/><path fill="#B0B8CF" d="m281.414 161.722.004 1.54 10.695-6.174-.004-1.54zM285.475 163.082l.005 1.54 14.047-8.11-.004-1.54zM278.945 170.548l.004 1.54 1.377-.795-.004-1.54zM281.438 169.106l.004 1.54 8.54-4.93-.004-1.54zM278.941 166.855l.004 1.54 5.418-3.129-.004-1.539zM274.882 165.493l.004 1.539 5.419-3.128-.005-1.54zM272.074 167.113l.004 1.54 1.834-1.059-.004-1.54zM276.128 168.478l.005 1.54 1.834-1.059-.005-1.54zM276.134 172.166l.005 1.54 1.834-1.059-.005-1.54z"/><path fill="#F45170" d="m255.932 176.437.004 1.54 3.642-2.103-.004-1.54z"/><path fill="#B28AFD" d="m255.942 180.13.004 1.54 3.642-2.103-.004-1.54z"/><path fill="#B0B8CF" d="m255.951 183.82.005 1.54 3.642-2.102-.005-1.54z"/><path fill="#1D2943" d="m276.189 132.065.342 155.304 55.414 32.198 59.082-34.094-.373-155.335-55.414-32.199z"/><path fill="#1D2943" d="m276.178 132.05.359 155.317 55.402 32.197-.359-155.318z"/><path fill="#111D33" d="m331.58 164.249.359 155.318 59.073-34.106-.359-155.317z"/><path fill="#4C5C75" d="m337.474 167.642.342 90.752 47.272-27.319-.311-90.721zM276.177 132.051l55.402 32.197 59.073-34.106-55.402-32.197z"/><path fill="#19233A" d="m281.315 131.448 6.026 3.502 31.983-18.466-6.025-3.502z"/><path fill="#4C5C75" d="M285.436 132.23c1.048.611 2.773.611 3.821 0l11.879-6.857c1.049-.611 1.07-1.616.022-2.227-1.048-.59-2.773-.59-3.821.021l-11.88 6.857c-1.07.612-1.07 1.616-.021 2.206"/><path fill="#F45170" d="M286.872 130.146c-.613.355-.616.918-.007 1.272.596.346 1.569.346 2.182-.008.6-.346.617-.917.021-1.264-.609-.354-1.596-.346-2.196 0"/><path fill="#78E75A" d="M290.425 128.095c-.599.346-.617.917-.007 1.271.596.347 1.582.339 2.182-.008.599-.346.616-.917.021-1.263-.61-.355-1.596-.346-2.196 0"/><path fill="#F45170" d="M293.995 126.03c-.614.354-.617.918-.007 1.272.595.346 1.568.346 2.181-.008.6-.346.603-.91.007-1.256-.609-.354-1.582-.354-2.181-.008"/><path fill="#78E75A" d="M297.55 123.978c-.599.347-.617.918-.007 1.272.596.346 1.582.338 2.182-.008s.616-.917.021-1.264c-.61-.354-1.596-.346-2.196 0"/><path fill="#1D2943" d="M361.076 134.281c4.422 2.57 11.552 2.57 15.974 0 4.45-2.57 4.477-6.716.083-9.258-4.394-2.543-11.552-2.57-16.002 0-4.422 2.57-4.422 6.716-.055 9.258"/><path fill="#111D33" d="M362.569 133.416c3.598 2.091 9.399 2.091 12.998 0 3.62-2.092 3.642-5.465.067-7.534-3.576-2.069-9.4-2.091-13.02 0-3.598 2.092-3.598 5.465-.045 7.534"/><path fill="#4C5C75" d="m378.683 274.518-2.52 1.462.041 12.33 2.499-1.463zM360.316 285.125l-2.52 1.463.02 12.33 2.52-1.463zM346.54 293.092l-2.519 1.443.02 12.329 2.52-1.442zM387.868 269.215l-2.519 1.463.04 12.33 2.5-1.443zM351.13 290.428l-2.519 1.463.02 12.329 2.519-1.462zM374.091 277.182l-2.52 1.442.021 12.33 2.519-1.443zM334.835 299.837l.02 12.33 2.52-1.443-.02-12.329zM369.499 279.823l-2.519 1.463.02 12.33 2.52-1.463zM341.945 295.734l-2.52 1.463.02 12.33 2.52-1.463zM364.907 282.483l-2.519 1.443.02 12.33 2.52-1.443zM355.724 287.786l-2.52 1.443.021 12.33 2.519-1.443zM383.277 271.878l-2.52 1.443.041 12.35 2.499-1.463zM286.729 275.139l2.519 1.463-.041 12.329-2.499-1.463zM305.094 285.746l2.519 1.463-.02 12.33-2.52-1.463zM318.871 293.713l2.52 1.443-.021 12.329-2.519-1.442zM277.545 269.836l2.519 1.463-.04 12.33-2.499-1.443zM314.279 291.048l2.52 1.463-.021 12.33-2.519-1.463zM291.318 277.803l2.52 1.442-.02 12.33-2.52-1.443zM330.574 300.458l-.02 12.33-2.52-1.443.021-12.329zM295.912 280.442l2.52 1.463-.021 12.33-2.519-1.463zM323.465 296.355l2.519 1.463-.02 12.33-2.519-1.463zM300.498 283.104l2.52 1.442-.021 12.33-2.519-1.443zM309.688 288.406l2.519 1.443-.02 12.33-2.52-1.443zM282.137 272.496l2.519 1.443-.04 12.35-2.5-1.463z"/><path fill="#1D2943" d="m337.745 272.879.031 8.609c0 4.32 3.046 6.06 6.806 3.884l7.522-4.351c3.76-2.175 6.775-7.428 6.775-11.748l-.031-8.578c0-4.351-3.046-6.06-6.807-3.916l-7.521 4.352c-3.76 2.175-6.775 7.428-6.775 11.748M366.059 256.53v8.609c.031 4.32 3.108 6.029 6.869 3.885l7.49-4.32c3.73-2.176 6.775-7.428 6.775-11.748l-.031-8.609c-.031-4.32-3.077-6.061-6.837-3.885l-7.49 4.32c-3.761 2.175-6.807 7.428-6.776 11.748"/><path fill="#4C5C75" d="m343.652 283.756 7.521-4.353c3.167-1.831 5.843-6.47 5.843-10.132l-.031-8.571c0-2.986-1.592-3.687-4.017-2.304l-7.512 4.346c-3.167 1.833-5.844 6.474-5.844 10.134l.032 8.602c0 2.959 1.584 3.679 4.008 2.278M372.006 267.403l7.482-4.315c3.164-1.845 5.842-6.487 5.842-10.132l-.032-8.602c-.02-2.986-1.635-3.667-4.038-2.278l-7.492 4.321c-3.192 1.847-5.869 6.481-5.843 10.119v8.623c.021 2.94 1.651 3.652 4.081 2.264"/><path fill="#B0B8CF" d="m277.168 152.844 48.452 27.971 1.616-.932.032-12.432-48.453-27.972-1.616.933z"/><path fill="#B0B8CF" d="m325.619 180.832 1.605-.933.036-12.448-1.606.933z"/><path fill="#E3E7F0" d="m325.654 168.384 1.606-.933-48.446-27.97-1.605.933z"/><path fill="#C9CEE2" d="m277.207 140.41-.035 12.448 48.445 27.97.035-12.448z"/><path fill="#423D9B" d="m291.874 152.535-.015 5.363 4.706 2.719.015-5.363z"/><path fill="#50B069" d="m278.82 150.366 4.706 2.719.015-5.363-4.706-2.719z"/><path fill="#F45170" d="m285.348 148.769-.015 5.363 4.72 2.718.015-5.363z"/><path fill="#423D9B" d="M322.651 169.25c0 .538.403 1.24.866 1.509.493.284.881.045.881-.508s-.388-1.225-.866-1.494c-.478-.284-.881-.06-.881.493"/><path fill="#F45170" d="M322.651 172.825c0 .538.403 1.24.866 1.509.493.284.881.045.881-.508s-.388-1.225-.866-1.494c-.478-.284-.881-.06-.881.493"/><path fill="#423D9B" d="M322.651 176.41c0 .538.403 1.24.866 1.509.493.284.881.045.881-.508s-.388-1.225-.866-1.494c-.478-.284-.881-.06-.881.493"/><path fill="#9EA9C9" d="m298.596 154.002 10.554 6.091v4.251l-10.554-6.105z"/><path fill="#4C5C75" d="m310.727 161.006 10.554 6.091v4.251l-10.554-6.105zM298.596 159.473l10.554 6.096v4.343l-10.554-6.096z"/><path fill="#9EA9C9" d="m310.727 166.472 10.554 6.096v4.343l-10.554-6.096z"/><path fill="#78E75A" d="M299.244 161.351c0 .365.274.842.589 1.025.335.193.599.03.599-.345s-.264-.832-.589-1.015c-.325-.193-.599-.04-.599.335M311.469 162.876c0 .365.274.842.589 1.024.334.193.598.031.598-.345 0-.375-.264-.832-.588-1.014-.325-.193-.599-.041-.599.335"/><path fill="#B0B8CF" d="m277.168 171.796 48.452 27.971 1.616-.932.032-12.432-48.453-27.971-1.616.932z"/><path fill="#B0B8CF" d="m325.619 199.774 1.605-.933.036-12.448-1.606.933z"/><path fill="#E3E7F0" d="m325.654 187.326 1.606-.933-48.446-27.97-1.605.933z"/><path fill="#C9CEE2" d="m277.207 159.356-.035 12.449 48.445 27.97.035-12.449z"/><path fill="#423D9B" d="m291.874 171.483-.015 5.363 4.706 2.719.015-5.363z"/><path fill="#50B069" d="m278.82 169.316 4.706 2.719.015-5.363-4.706-2.719z"/><path fill="#F45170" d="m285.35 167.718-.015 5.363 4.72 2.719.015-5.363z"/><path fill="#423D9B" d="M322.651 188.19c0 .538.403 1.24.866 1.509.493.284.881.045.881-.508 0-.552-.388-1.225-.866-1.494-.478-.283-.881-.059-.881.493"/><path fill="#F45170" d="M322.651 191.772c0 .538.403 1.24.866 1.509.493.284.881.045.881-.508 0-.552-.388-1.225-.866-1.494-.478-.283-.881-.059-.881.493"/><path fill="#423D9B" d="M322.651 195.352c0 .537.403 1.24.866 1.508.493.284.881.045.881-.508 0-.552-.388-1.224-.866-1.493-.478-.284-.881-.06-.881.493"/><path fill="#9EA9C9" d="m298.596 172.955 10.554 6.091v4.251l-10.554-6.105z"/><path fill="#4C5C75" d="m310.727 179.957 10.554 6.091v4.251l-10.554-6.105z"/><path fill="#1D2943" d="m298.596 178.421 10.554 6.096v4.343l-10.554-6.096z"/><path fill="#9EA9C9" d="m310.727 185.423 10.554 6.096v4.343l-10.554-6.096z"/><path fill="#78E75A" d="M299.244 180.299c0 .366.274.843.589 1.025.335.193.599.031.599-.345 0-.375-.264-.832-.589-1.014-.325-.193-.599-.041-.599.334M311.469 181.823c0 .365.274.842.589 1.025.334.193.598.03.598-.345 0-.376-.264-.832-.588-1.015-.325-.193-.599-.041-.599.335"/><path fill="#B0B8CF" d="m277.168 190.738 48.452 27.972 1.616-.933.032-12.431-48.453-27.972-1.616.932z"/><path fill="#B0B8CF" d="m325.619 218.716 1.605-.933.036-12.448-1.606.933z"/><path fill="#E3E7F0" d="m325.654 206.268 1.606-.933-48.446-27.97-1.605.933z"/><path fill="#C9CEE2" d="m277.207 178.299-.035 12.448 48.445 27.97.035-12.448z"/><path fill="#423D9B" d="m291.874 190.433-.015 5.363 4.706 2.718.015-5.363z"/><path fill="#50B069" d="m278.82 188.264 4.706 2.719.015-5.363-4.706-2.719z"/><path fill="#F45170" d="m285.35 186.665-.015 5.363 4.72 2.719.015-5.363z"/><path fill="#423D9B" d="M322.651 207.145c0 .537.403 1.239.866 1.508.493.284.881.045.881-.508 0-.552-.388-1.225-.866-1.493-.478-.284-.881-.06-.881.493"/><path fill="#F45170" d="M322.651 210.726c0 .537.403 1.24.866 1.508.493.284.881.045.881-.508 0-.552-.388-1.224-.866-1.493-.478-.284-.881-.06-.881.493"/><path fill="#423D9B" d="M322.651 214.302c0 .538.403 1.24.866 1.509.493.283.881.044.881-.508 0-.553-.388-1.225-.866-1.494-.478-.284-.881-.06-.881.493"/><path fill="#9EA9C9" d="m298.596 191.899 10.554 6.092v4.251l-10.554-6.106z"/><path fill="#4C5C75" d="m310.727 198.903 10.554 6.092v4.251l-10.554-6.106zM298.596 197.365l10.554 6.096v4.343l-10.554-6.096z"/><path fill="#9EA9C9" d="m310.727 204.369 10.554 6.096v4.343l-10.554-6.096z"/><path fill="#78E75A" d="M299.244 199.249c0 .365.274.842.589 1.025.335.192.599.03.599-.346 0-.375-.264-.832-.589-1.014-.325-.193-.599-.041-.599.335M311.469 200.77c0 .365.274.842.589 1.025.334.193.598.03.598-.345s-.264-.832-.588-1.015c-.325-.193-.599-.04-.599.335"/><path fill="#B0B8CF" d="m277.168 209.697 48.452 27.972 1.616-.933.032-12.431-48.453-27.972-1.616.932z"/><path fill="#B0B8CF" d="m325.619 237.671 1.605-.933.036-12.448-1.606.933z"/><path fill="#E3E7F0" d="m325.654 225.223 1.606-.933-48.446-27.97-1.605.933z"/><path fill="#C9CEE2" d="m277.207 197.254-.035 12.448 48.445 27.97.035-12.448z"/><path fill="#423D9B" d="m291.872 209.386-.015 5.363 4.706 2.719.015-5.363z"/><path fill="#50B069" d="m278.818 207.22 4.706 2.718.015-5.363-4.706-2.719z"/><path fill="#F45170" d="m285.348 205.621-.015 5.363 4.72 2.719.015-5.363z"/><path fill="#423D9B" d="M322.649 226.098c0 .537.403 1.24.866 1.508.493.284.881.045.881-.507 0-.553-.388-1.225-.866-1.494-.478-.284-.881-.06-.881.493"/><path fill="#F45170" d="M322.649 229.678c0 .537.403 1.24.866 1.509.493.283.881.044.881-.508 0-.553-.388-1.225-.866-1.494-.478-.284-.881-.06-.881.493"/><path fill="#423D9B" d="M322.649 233.254c0 .538.403 1.24.866 1.509.493.284.881.045.881-.508s-.388-1.225-.866-1.494c-.478-.284-.881-.06-.881.493"/><path fill="#9EA9C9" d="m298.596 210.856 10.554 6.092v4.251l-10.554-6.106z"/><path fill="#1D2943" d="m310.727 217.854 10.554 6.091v4.251l-10.554-6.106z"/><path fill="#4C5C75" d="m298.596 216.319 10.554 6.096v4.344l-10.554-6.097z"/><path fill="#9EA9C9" d="m310.727 223.324 10.554 6.096v4.343l-10.554-6.096z"/><path fill="#78E75A" d="M299.242 218.201c0 .365.274.842.589 1.025.335.192.599.03.599-.345 0-.376-.264-.832-.589-1.015-.325-.193-.599-.041-.599.335M311.469 219.722c0 .366.274.843.589 1.025.334.193.598.031.598-.345 0-.375-.264-.832-.588-1.015-.325-.192-.599-.04-.599.335"/><path fill="#B0B8CF" d="m277.168 228.64 48.452 27.971 1.616-.932.032-12.432-48.453-27.972-1.616.933z"/><path fill="#B0B8CF" d="m325.619 256.617 1.605-.933.036-12.448-1.606.933z"/><path fill="#E3E7F0" d="m325.654 244.166 1.606-.933-48.446-27.97-1.605.933z"/><path fill="#C9CEE2" d="m277.207 216.2-.035 12.448 48.445 27.97.035-12.448z"/><path fill="#423D9B" d="m291.874 228.333-.015 5.363 4.706 2.719.015-5.363z"/><path fill="#50B069" d="m278.82 226.168 4.706 2.719.015-5.363-4.706-2.719z"/><path fill="#F45170" d="m285.348 224.569-.015 5.363 4.72 2.719.015-5.363z"/><path fill="#423D9B" d="M322.651 245.043c0 .538.403 1.24.866 1.509.493.284.881.045.881-.508s-.388-1.225-.866-1.494c-.478-.284-.881-.06-.881.493"/><path fill="#F45170" d="M322.651 248.621c0 .538.403 1.24.866 1.509.493.284.881.045.881-.508s-.388-1.225-.866-1.494c-.478-.284-.881-.06-.881.493"/><path fill="#423D9B" d="M322.651 252.2c0 .538.403 1.24.866 1.509.493.284.881.045.881-.508s-.388-1.225-.866-1.494c-.478-.284-.881-.06-.881.493"/><path fill="#9EA9C9" d="m298.596 229.804 10.554 6.091v4.251l-10.554-6.105z"/><path fill="#4C5C75" d="m310.727 236.803 10.554 6.091v4.251l-10.554-6.105zM298.596 235.267l10.554 6.096v4.343l-10.554-6.096z"/><path fill="#9EA9C9" d="m310.727 242.273 10.554 6.097v4.343l-10.554-6.096z"/><path fill="#78E75A" d="M299.244 237.148c0 .365.274.842.589 1.025.335.193.599.03.599-.345 0-.376-.264-.832-.589-1.015-.325-.193-.599-.04-.599.335M311.469 238.67c0 .366.274.843.589 1.025.334.193.598.031.598-.345 0-.375-.264-.832-.588-1.014-.325-.193-.599-.041-.599.334"/><path fill="#B0B8CF" d="m277.168 247.588 48.452 27.971 1.616-.932.032-12.432-48.453-27.971-1.616.932z"/><path fill="#B0B8CF" d="m325.619 275.571 1.605-.933.036-12.449-1.606.933z"/><path fill="#E3E7F0" d="m325.654 263.121 1.606-.933-48.446-27.97-1.605.933z"/><path fill="#C9CEE2" d="m277.207 235.152-.035 12.448 48.445 27.97.035-12.448z"/><path fill="#423D9B" d="m291.874 247.278-.015 5.363 4.706 2.719.015-5.363z"/><path fill="#50B069" d="m278.82 245.114 4.706 2.719.015-5.363-4.706-2.719z"/><path fill="#F45170" d="m285.348 243.516-.015 5.363 4.72 2.718.015-5.362z"/><path fill="#423D9B" d="M322.651 263.992c0 .538.403 1.24.866 1.509.493.284.881.045.881-.508s-.388-1.225-.866-1.494c-.478-.284-.881-.06-.881.493"/><path fill="#F45170" d="M322.651 267.568c0 .538.403 1.24.866 1.509.493.284.881.045.881-.508 0-.552-.388-1.225-.866-1.494-.478-.284-.881-.059-.881.493"/><path fill="#423D9B" d="M322.651 271.152c0 .538.403 1.24.866 1.509.493.284.881.045.881-.508s-.388-1.225-.866-1.494c-.478-.284-.881-.059-.881.493"/><path fill="#9EA9C9" d="m298.596 248.752 10.554 6.091v4.251l-10.554-6.105z"/><path fill="#4C5C75" d="m310.727 255.756 10.554 6.091v4.251l-10.554-6.105zM298.596 254.22l10.554 6.096v4.343l-10.554-6.096z"/><path fill="#9EA9C9" d="m310.727 261.219 10.554 6.096v4.343l-10.554-6.096z"/><path fill="#78E75A" d="M299.244 256.099c0 .365.274.842.589 1.025.335.193.599.031.599-.345 0-.375-.264-.832-.589-1.015-.325-.192-.599-.04-.599.335M311.469 257.622c0 .365.274.842.589 1.025.334.192.598.03.598-.345 0-.376-.264-.833-.588-1.015-.325-.193-.599-.041-.599.335"/><path fill="#B0B8CF" d="m277.168 266.534 48.452 27.971 1.616-.932.032-12.432-48.453-27.971-1.616.932z"/><path fill="#B0B8CF" d="m325.619 294.518 1.605-.933.036-12.448-1.606.933z"/><path fill="#E3E7F0" d="m325.654 282.071 1.606-.933-48.446-27.97-1.605.933z"/><path fill="#C9CEE2" d="m277.207 254.099-.035 12.448 48.445 27.97.035-12.448z"/><path fill="#423D9B" d="m291.874 266.229-.015 5.362 4.706 2.719.015-5.363z"/><path fill="#50B069" d="m278.82 264.063 4.706 2.719.015-5.363-4.706-2.719z"/><path fill="#F45170" d="m285.348 262.465-.015 5.363 4.72 2.719.015-5.363z"/><path fill="#423D9B" d="M322.651 282.937c0 .538.403 1.24.866 1.509.493.284.881.045.881-.508 0-.552-.388-1.225-.866-1.494-.478-.283-.881-.059-.881.493"/><path fill="#F45170" d="M322.651 286.521c0 .537.403 1.239.866 1.508.493.284.881.045.881-.508 0-.552-.388-1.225-.866-1.494-.478-.283-.881-.059-.881.494"/><path fill="#423D9B" d="M322.651 290.099c0 .537.403 1.24.866 1.508.493.284.881.045.881-.508 0-.552-.388-1.224-.866-1.493-.478-.284-.881-.06-.881.493"/><path fill="#9EA9C9" d="m298.596 267.699 10.554 6.092v4.251l-10.554-6.106z"/><path fill="#4C5C75" d="m310.727 274.701 10.554 6.091v4.251l-10.554-6.105zM298.596 273.165l10.554 6.096v4.343l-10.554-6.096z"/><path fill="#9EA9C9" d="m310.727 280.169 10.554 6.096v4.343l-10.554-6.096z"/><path fill="#78E75A" d="M299.244 275.046c0 .366.274.843.589 1.025.335.193.599.031.599-.345 0-.375-.264-.832-.589-1.014-.325-.193-.599-.041-.599.334M311.469 276.571c0 .365.274.842.589 1.025.334.193.598.03.598-.345 0-.376-.264-.832-.588-1.015-.325-.193-.599-.041-.599.335"/><path fill="#B0B8CF" d="m376.75 149.71.004 1.54 6.123-3.535-.004-1.54zM375.298 157.945l.004 1.54 7.594-4.385-.004-1.539zM364.781 156.622l.005 1.54 10.694-6.175-.004-1.54zM368.837 157.983l.004 1.539 14.048-8.11-.005-1.54zM362.308 165.449l.005 1.54 1.376-.795-.004-1.54zM380.228 177.302l.004 1.54 2.733-1.577-.005-1.54zM379.579 199.865l.004 1.54 3.442-1.987-.004-1.54zM360.852 199.578l.004 1.54 22.136-12.78-.004-1.54zM358.319 186.247l.005 1.54 5.418-3.128-.004-1.54z"/><path fill="#BF7D5A" d="m375.463 187.447.004 1.54 7.515-4.339-.004-1.54z"/><path fill="#B0B8CF" d="m368.932 191.219.004 1.54 5.255-3.035-.004-1.539zM368.779 187.606l.004 1.54 14.19-8.192-.005-1.54zM362.39 194.994l.004 1.539 5.418-3.128-.004-1.54zM360.832 192.195l.005 1.54 6.905-3.987-.004-1.54zM360.818 188.505l.004 1.54 18.268-10.547-.005-1.54zM375.246 176.476l.005 1.54 7.704-4.448-.004-1.54zM378.36 170.982l.004 1.54 4.577-2.643-.004-1.54zM374.355 165.892l.004 1.54 8.567-4.946-.005-1.54z"/><path fill="#78E75A" d="m368.883 172.753.005 1.54 14.048-8.111-.005-1.539z"/><path fill="#B0B8CF" d="m364.819 171.391.004 1.54 6.57-3.792-.005-1.54z"/><path fill="#F45170" d="m369.788 166.315.066-.038-.005-1.485 13.055-7.537.004 1.54-13.12 7.575z"/><path fill="#B0B8CF" d="M368.889 165.347v1.542l-8.116 4.686-.005-1.54zM364.799 164.01l.005 1.54 8.54-4.931-.005-1.54zM362.296 161.758l.004 1.54 5.419-3.128-.005-1.54z"/><path fill="#BF7D5A" d="m358.247 160.395.005 1.54 5.418-3.128-.004-1.54z"/><path fill="#B0B8CF" d="m355.441 162.012.004 1.54 1.834-1.059-.004-1.54zM359.488 163.374l.004 1.54 1.834-1.059-.004-1.54zM359.497 167.068l.005 1.54 1.834-1.059-.004-1.54z"/><path fill="#78E75A" d="m364.85 182.476.004 1.54 8.876-5.125-.004-1.539z"/><path fill="#B0B8CF" d="m360.798 181.119.005 1.54 15.992-9.233-.004-1.54zM362.339 176.529l.004 1.54 5.419-3.129-.005-1.54zM358.286 175.167l.005 1.54 5.418-3.128-.004-1.54zM354.232 173.808l.004 1.54 5.418-3.128-.004-1.54zM351.425 175.43l.004 1.54 1.829-1.056-.005-1.54zM355.484 176.785l.004 1.539 1.834-1.059-.004-1.539zM359.531 178.147l.004 1.54 1.834-1.059-.004-1.54zM358.308 182.558l.005 1.54 1.376-.795-.004-1.54zM355.515 187.864l.004 1.54 1.835-1.059-.005-1.54zM358.328 189.941l.004 1.54 1.377-.795-.004-1.54zM359.585 196.614l.005 1.54 1.834-1.059-.005-1.54zM354.296 195.963l.004 1.54 5.419-3.128-.005-1.54z"/><path fill="#678AEE" d="m355.521 191.564.004 1.54 1.834-1.059-.004-1.54z"/><path fill="#B0B8CF" d="m354.316 203.35.004 1.54 5.418-3.128-.004-1.54zM378.088 193.33l.004 1.54 4.914-2.837-.005-1.54zM370.866 204.894l.004 1.54 7.999-4.618-.004-1.54zM373.647 199.589l.005 1.54 9.36-5.404-.005-1.539zM368.95 198.604l.005 1.54 8.188-4.727-.005-1.54z"/><path fill="#FFD06C" d="m360.869 206.967.004 1.54 11.594-6.694-.005-1.54z"/><path fill="#B0B8CF" d="m366.46 200.044.004 1.54 1.372-.792-.004-1.54zM363.651 201.664l.004 1.54 1.829-1.056-.004-1.54zM358.39 212.099l.004 1.54 5.418-3.128-.004-1.54zM358.377 208.402l.004 1.54 1.377-.795-.005-1.54zM355.576 210.026l.004 1.54 1.834-1.059-.004-1.54zM364.919 208.328l.005 1.54 4.756-2.746-.005-1.54zM355.583 213.718l.005 1.54 1.834-1.059-.004-1.54z"/><path fill="#FFD06C" d="m339.295 171.334.004 1.54 3.642-2.103-.004-1.54z"/><path fill="#B0B8CF" d="m339.305 175.031.004 1.54 3.642-2.102-.004-1.54zM339.315 178.722l.004 1.54 3.642-2.103-.004-1.54z"/><path fill="#DBA660" d="m339.324 182.42.005 1.54 3.642-2.103-.005-1.54z"/><path fill="#B0B8CF" d="m339.334 186.107.004 1.54 3.642-2.103-.004-1.54zM339.352 189.804l.004 1.54 3.642-2.103-.004-1.54z"/><path fill="#F45170" d="m339.356 193.495.004 1.54 3.642-2.103-.004-1.539z"/><path fill="#B0B8CF" d="m339.371 197.188.005 1.54 3.642-2.103-.005-1.54z"/><path fill="#DBA660" d="m339.379 200.884.004 1.54 3.642-2.103-.004-1.54z"/><path fill="#B0B8CF" d="m339.387 204.572.004 1.54 3.642-2.102-.004-1.54zM339.397 208.268l.004 1.54 3.642-2.103-.004-1.54zM339.406 211.959l.005 1.54 3.642-2.103-.005-1.54z"/><path fill="#B28AFD" d="m339.42 215.656.004 1.54 3.642-2.102-.004-1.54z"/><path fill="#B0B8CF" d="m339.434 219.345.004 1.54 3.642-2.103-.004-1.54zM339.639 222.927l.005 1.54 3.442-1.988-.004-1.54zM377.094 204.873l.004 1.54 6.123-3.535-.005-1.54z"/><path fill="#B28AFD" d="m375.642 213.104.004 1.54 7.594-4.384-.004-1.54z"/><path fill="#B0B8CF" d="m365.121 211.784.005 1.54 10.694-6.175-.004-1.54zM369.182 213.145l.005 1.54 14.047-8.111-.004-1.54zM362.652 220.606l.004 1.539 1.377-.795-.004-1.539zM365.141 219.169l.004 1.54 8.541-4.931-.005-1.54zM362.644 216.919l.004 1.54 5.418-3.128-.004-1.54zM358.589 215.556l.004 1.54 5.419-3.128-.005-1.54zM355.788 217.173l.005 1.54 1.834-1.059-.004-1.54zM359.837 218.537l.005 1.54 1.834-1.059-.005-1.539zM359.845 222.226l.004 1.54 1.835-1.059-.005-1.54z"/><path fill="#F45170" d="m339.639 226.497.004 1.54 3.642-2.103-.004-1.539z"/><path fill="#B28AFD" d="m339.649 230.195.004 1.539 3.642-2.102-.004-1.54z"/><path fill="#B0B8CF" d="m339.658 233.881.005 1.54 3.642-2.103-.005-1.54z"/><path fill="#1D2943" d="m85.538 280.069 5.1 104.085a3.003 3.003 0 0 0 3.139 2.861 3.013 3.013 0 0 0 2.863-2.92l2.934-104.164a7.023 7.023 0 1 0-14.036.138M20.559 287.145l-1.545 51.981a3.013 3.013 0 0 1-2.863 2.92 3.003 3.003 0 0 1-3.139-2.861l-2.689-52.04zM172.648 289.524l-1.544 51.982a3.013 3.013 0 0 1-2.863 2.92 3.003 3.003 0 0 1-3.139-2.861l-2.689-52.041z"/><path fill="#8A4852" d="M4.036 273.274v12.791c-.015 1.073.696 2.132 2.102 2.948l82.976 47.959c2.812 1.618 7.333 1.618 10.115 0l74.1-43.06c1.391-.801 2.087-1.86 2.087-2.918v-12.791c.015-1.059-.696-2.132-2.102-2.949l-82.976-47.959c-2.812-1.617-7.332-1.617-10.114 0L6.123 270.356c-1.905 1.103-2.495 2.691-1.784 4.097.136.257.317.514.529.756a3.4 3.4 0 0 1-.53-.756 2.6 2.6 0 0 1-.302-1.179"/><path fill="#8A4852" d="M175.426 278.198 175.417 291c-.003 1.055-.696 2.106-2.079 2.91l-74.101 43.062c-2.781 1.619-7.31 1.619-10.116 0L6.147 289.017c-1.41-.816-2.116-1.883-2.113-2.95l.01-12.798c0 1.07.705 2.134 2.112 2.946l82.978 47.955c2.805 1.619 7.33 1.616 10.115 0l74.098-43.062c1.383-.803 2.076-1.855 2.079-2.91"/><path fill="#DBA660" d="M173.314 275.253c2.805 1.62 2.816 4.242.033 5.859l-74.099 43.062c-2.783 1.617-7.31 1.619-10.116 0L6.155 276.219c-2.801-1.618-2.816-4.242-.033-5.86l74.099-43.061c2.783-1.617 7.314-1.617 10.115 0z"/><path fill="#F45170" d="m190.279 320.059-.192-95.914a6.7 6.7 0 0 1 3.342-5.808l9.249-5.339a.605.605 0 0 0-.605-1.049l-9.249 5.339a7.92 7.92 0 0 0-3.948 6.86l.192 95.914c.011 5.231-7.984 5.293-7.99.012l-.069-49.984c-.013-4.005-4.344-6.501-7.815-4.498l-55.938 32.295c-2.591 1.496-5.822-.365-5.838-3.349l-.034-6.449a.607.607 0 0 0-.605-.603h-.003a.61.61 0 0 0-.603.608l.034 6.45c.022 3.91 4.254 6.351 7.655 4.391l55.937-32.294c2.661-1.537 5.993.374 5.999 3.452l.07 49.984c.01 6.86 10.421 6.81 10.411-.018M99.065 258.373a5.22 5.22 0 0 0 2.603-4.518l-.192-152.548a6.7 6.7 0 0 1 3.342-5.81l9.249-5.34a.605.605 0 1 0-.606-1.046l-9.249 5.34a7.91 7.91 0 0 0-3.946 6.858l.192 152.549a4 4 0 0 1-1.998 3.467.606.606 0 0 0 .605 1.048"/><path fill="#4D5C75" d="m51.238 244.703 69.153 39.906.022.022v-.022l7.683-4.464.156-52.364h-.022c.022-1.355-.933-3.02-2.132-3.686l-64.867-37.464c-.6-.355-1.132-.377-1.532-.155l-7.617 4.441c-.022 0-.044.023-.067.045-.4.2-.644.688-.644 1.377z"/><path fill="#B0B8CF" d="M70.425 275.212v4.997c0 1.732 1.133 3.442 3.398 4.752l6.373 3.709c4.553 2.642 11.97 2.642 16.567 0l6.418-3.709c2.309-1.332 3.464-3.064 3.442-4.819v-4.996c0 1.754-1.155 3.508-3.465 4.841z"/><path fill="#fff" d="M73.884 270.385c-4.59 2.649-4.614 6.946-.054 9.595l6.366 3.7c4.56 2.65 11.976 2.649 16.565 0l6.408-3.7c4.589-2.649 4.614-6.945.054-9.595l-6.366-3.699c-4.56-2.65-11.976-2.65-16.565-.001z"/><path fill="#4D5C75" d="m82.298 257.71.04 19.207c.003.914.603 1.826 1.803 2.523 2.417 1.405 6.347 1.404 8.778 0 1.223-.706 1.834-1.633 1.831-2.558l-.04-19.207c.002.925-.609 1.852-1.832 2.558-2.431 1.404-6.36 1.405-8.778 0-1.2-.697-1.8-1.609-1.802-2.523"/><path fill="#2D2C2B" d="M84.136 254.171c-2.43 1.403-2.446 3.679-.03 5.083s6.346 1.404 8.778 0c2.43-1.403 2.443-3.678.026-5.083-2.415-1.404-6.343-1.404-8.774 0"/><path fill="#E9E7FC" d="m51.242 244.689 69.158 39.928 7.7-4.482v6.773c-.023.688-.245 1.154-.644 1.377l-7.692 4.477c-.389.233-.928.208-1.529-.138l-64.876-37.456c-1.184-.684-2.14-2.34-2.136-3.701z"/><path fill="#E9E7FC" d="m119.752 292.774 7.706-4.486c.399-.222.621-.688.644-1.376v-6.773l-7.706 4.485-.022 6.773c0 .689-.222 1.155-.622 1.377"/><path fill="#F8F9FE" d="m51.249 244.69-.02 6.778c-.003 1.361.953 3.017 2.137 3.701l64.876 37.456c1.184.683 2.143.133 2.147-1.227l.019-6.778z"/><path fill="#1C2841" d="M53.524 191.099c-1.184-.684-2.147-.135-2.15 1.225l-.134 52.364 69.16 39.93.133-52.365c.004-1.36-.949-3.014-2.133-3.698z"/><path fill="#fff" d="m53.07 243.347 65.361 37.74.124-49.081c0-.675-.595-1.707-1.184-2.05l-64.172-37.05z"/><path fill="#C8CDE0" d="M84.173 268.401c0 1.602 1.145 3.536 2.538 4.368 1.415.791 2.538.146 2.558-1.456 0-1.602-1.143-3.557-2.537-4.368-1.414-.811-2.538-.167-2.559 1.456"/><path fill="#F45170" d="m55.358 204.542-.012 4.187 3.662 2.114.011-4.187z"/><path fill="#78E75A" d="m55.376 198.508-.012 4.187 3.661 2.114.012-4.187z"/><path fill="#DEDFFB" d="m61.671 208.975-.007 2.595 15.073 8.702.007-2.595zM61.689 202.939l-.008 2.596 15.073 8.702.008-2.595z"/><path fill="#57B3FE" d="m55.339 210.578-.012 4.188 3.661 2.114.012-4.188z"/><path fill="#DEDFFB" d="m61.652 215.008-.008 2.615 15.073 8.702.008-2.615z"/><path fill="#C9CEE2" d="m110.217 242.805 4.725-3.865a.305.305 0 0 0 .043-.427.31.31 0 0 0-.427-.043l-4.465 3.655-4.462-6.755a.306.306 0 0 0-.409-.092l-6.64 4.029-7.6-9.164a.307.307 0 0 0-.404-.058l-7.707 5.2-6.965-7.195a.3.3 0 0 0-.406-.026l-7.42 5.931-4.501-7.585a.3.3 0 0 0-.186-.139.32.32 0 0 0-.23.034l-6.206 3.731a.307.307 0 0 0-.104.417c.089.14.27.183.417.103l5.944-3.574 4.523 7.621c.083.139.286.21.449.082l7.477-5.977 6.95 7.18a.3.3 0 0 0 .386.041l7.692-5.188 7.592 9.154a.305.305 0 0 0 .39.065l6.614-4.015 4.486 6.792a.303.303 0 0 0 .444.068"/><path fill="#C9CEE2" d="m111.921 238.438 3.04 3.041 1.182-4.222z"/><path fill="#B28AFD" d="M55.884 235.703v5.174l58.868 32.887v-30.378l-4.73 3.864-4.641-7.039-6.862 4.174-7.772-9.371-7.927 5.33-7.128-7.373-7.706 6.151-4.663-7.883z"/></g><defs><clipPath id="a"><path fill="#fff" d="M395 0H0v387h395z"/></clipPath></defs></svg>