<svg width="520" height="457" viewBox="0 0 520 457" fill="none" xmlns="http://www.w3.org/2000/svg">
<g clip-path="url(#clip0_405_14621)">
<path d="M705.163 403.741C612.702 472.941 517.846 520.617 439.259 541.781C399.962 552.364 364.785 556.304 336.033 553.029C307.284 549.753 285.057 539.28 271.471 521.127C257.885 502.975 254.103 478.696 259.066 450.19C264.029 421.681 277.727 389.042 298.96 354.323C341.422 284.891 413.907 207.324 506.368 138.124C598.829 68.9236 693.685 21.248 772.273 0.0835792C811.569 -10.4994 846.746 -14.4394 875.498 -11.1637C904.247 -7.88831 926.474 2.58542 940.06 20.7377C953.646 38.89 957.428 63.1688 952.465 91.675C947.502 120.184 933.804 152.823 912.571 187.542C870.109 256.974 797.624 334.541 705.163 403.741Z" stroke="white" stroke-width="2.03563"/>
<path d="M712.638 375.435C625.18 440.891 536.071 486.806 462.729 508.147C426.054 518.819 393.375 523.33 366.842 521.104C340.308 518.878 320.043 509.929 307.976 493.805C295.909 477.682 293.036 455.716 298.381 429.63C303.726 403.546 317.267 373.465 337.846 341.287C379 276.937 448.175 204.387 535.633 138.931C623.091 73.4755 712.2 27.561 785.542 6.21946C822.217 -4.45241 854.896 -8.96379 881.429 -6.73755C907.963 -4.51119 928.228 4.43784 940.295 20.5613C952.362 36.6849 955.235 58.6507 949.89 84.7362C944.545 110.82 931.004 140.901 910.425 173.08C869.271 237.43 800.096 309.979 712.638 375.435Z" stroke="white" stroke-width="2.03563"/>
<path d="M311.593 277.238L313.68 286.08C313.857 286.831 314.443 287.417 315.194 287.594L324.036 289.681C325.082 289.927 325.082 291.415 324.036 291.662L315.194 293.748C314.443 293.925 313.857 294.512 313.68 295.262L311.593 304.105C311.347 305.15 309.859 305.15 309.612 304.105L307.526 295.262C307.349 294.512 306.762 293.925 306.012 293.748L297.169 291.662C296.124 291.415 296.124 289.927 297.169 289.681L306.012 287.594C306.762 287.417 307.349 286.831 307.526 286.08L309.612 277.238C309.859 276.192 311.347 276.192 311.593 277.238Z" fill="white" stroke="white" stroke-width="1.01782"/>
<circle cx="146.721" cy="383.002" r="13.2316" stroke="white" stroke-width="2.03563"/>
<circle cx="86.6695" cy="406.411" r="29.5167" stroke="white" stroke-width="2.03563"/>
</g>
<defs>
<clipPath id="clip0_405_14621">
<rect width="520" height="457" fill="white"/>
</clipPath>
</defs>
</svg>
