<svg width="893" height="448" viewBox="0 0 893 448" fill="none" xmlns="http://www.w3.org/2000/svg">
<g clip-path="url(#clip0_405_14614)">
<path d="M691.246 395.3C600.606 463.137 507.618 509.874 430.578 530.622C392.055 540.996 357.572 544.859 329.386 541.647C301.203 538.437 279.413 528.169 266.095 510.374C252.777 492.579 249.069 468.779 253.935 440.834C258.8 412.886 272.228 380.89 293.043 346.855C334.669 278.79 405.726 202.751 496.366 134.914C587.006 67.0762 679.994 20.3395 757.034 -0.408101C795.557 -10.7827 830.041 -14.645 858.226 -11.4339C886.409 -8.22299 908.199 2.04447 921.517 19.8393C934.835 37.6341 938.543 61.4347 933.678 89.3796C928.812 117.327 915.384 149.323 894.57 183.358C852.944 251.424 781.886 327.462 691.246 395.3Z" stroke="white" stroke-width="1.99555"/>
<path d="M698.574 367.551C612.838 431.718 525.484 476.729 453.586 497.65C417.633 508.111 385.598 512.534 359.588 510.352C333.577 508.169 313.711 499.396 301.881 483.59C290.052 467.784 287.236 446.251 292.475 420.679C297.714 395.109 310.989 365.621 331.163 334.076C371.506 270.993 439.319 199.872 525.054 135.705C610.79 71.5385 698.144 26.5282 770.042 5.60695C805.995 -4.85476 838.03 -9.27729 864.04 -7.0949C890.052 -4.91238 909.918 3.86042 921.747 19.6664C933.577 35.4724 936.393 57.0056 931.153 82.5774C925.914 108.148 912.639 137.636 892.466 169.181C852.122 232.264 784.31 303.385 698.574 367.551Z" stroke="white" stroke-width="1.99555"/>
<path d="M305.428 271.288L307.473 279.956C307.647 280.692 308.221 281.266 308.957 281.44L317.626 283.485C318.65 283.727 318.65 285.186 317.626 285.428L308.957 287.473C308.221 287.647 307.647 288.221 307.473 288.957L305.428 297.626C305.186 298.65 303.727 298.65 303.485 297.626L301.44 288.957C301.266 288.221 300.692 287.647 299.956 287.473L291.288 285.428C290.263 285.186 290.263 283.727 291.288 283.485L299.956 281.44C300.692 281.266 301.266 280.692 301.44 279.956L303.485 271.288C303.727 270.263 305.186 270.263 305.428 271.288Z" fill="white" stroke="white" stroke-width="0.997773"/>
<circle cx="143.802" cy="374.969" r="12.971" stroke="white" stroke-width="1.99555"/>
<circle cx="84.9332" cy="397.918" r="28.9354" stroke="white" stroke-width="1.99555"/>
</g>
<defs>
<clipPath id="clip0_405_14614">
<rect width="893" height="448" fill="white"/>
</clipPath>
</defs>
</svg>
