<svg width="497" height="497" viewBox="0 0 497 497" fill="none" xmlns="http://www.w3.org/2000/svg">
<path d="M27.0547 333.283C26.8606 333.283 26.6787 333.124 26.6665 332.929C26.6423 332.709 26.8 332.526 27.0183 332.501L366.9 301.495C367.106 301.47 367.3 301.629 367.324 301.849C367.349 302.069 367.191 302.252 366.973 302.276L27.0911 333.271C27.079 333.283 27.0668 333.283 27.0547 333.283Z" fill="#A4A4A4"/>
<path d="M366.915 302.264C366.72 302.264 366.551 302.118 366.526 301.922L328.8 3.40714C328.775 3.18732 328.921 2.99192 329.139 2.9675C329.358 2.94307 329.552 3.08962 329.576 3.30944L367.303 301.824C367.327 302.044 367.181 302.24 366.963 302.264C366.951 302.264 366.939 302.264 366.915 302.264Z" fill="#A4A4A4"/>
<path d="M50.4492 75.349C50.2794 75.349 50.1217 75.2269 50.0732 75.0559C50.0246 74.8483 50.1459 74.6285 50.3522 74.5796L329.094 2.97948C329.301 2.93063 329.519 3.05275 329.567 3.26036C329.616 3.46797 329.495 3.68779 329.288 3.73664L50.5463 75.3368C50.5099 75.349 50.4856 75.349 50.4492 75.349Z" fill="#A4A4A4"/>
<path d="M27.0547 333.28C27.0426 333.28 27.0304 333.28 27.0183 333.28C26.8 333.256 26.6423 333.073 26.6665 332.853L50.0669 74.9191C50.0912 74.6993 50.2731 74.5406 50.4915 74.565C50.7098 74.5894 50.8675 74.7726 50.8433 74.9924L27.4429 332.914C27.4186 333.122 27.2488 333.28 27.0547 333.28Z" fill="#A4A4A4"/>
<path d="M181.826 11.2214C181.62 11.2214 181.45 11.0626 181.438 10.8428C181.426 10.623 181.596 10.4398 181.814 10.4276L329.179 2.95374C329.41 2.94153 329.58 3.1125 329.592 3.33232C329.604 3.55214 329.434 3.73532 329.216 3.74753L181.851 11.2214C181.838 11.2214 181.838 11.2214 181.826 11.2214Z" fill="#A4A4A4"/>
<path d="M50.4546 75.3493C50.309 75.3493 50.1756 75.2638 50.1028 75.1295C50.0058 74.9341 50.0907 74.7021 50.2848 74.6044L181.662 10.4781C181.856 10.3804 182.086 10.4659 182.183 10.6613C182.28 10.8567 182.195 11.0887 182.001 11.1864L50.6245 75.3127C50.5759 75.3371 50.5153 75.3493 50.4546 75.3493Z" fill="#A4A4A4"/>
<path d="M366.918 302.264C366.821 302.264 366.724 302.227 366.651 302.154C366.493 302.007 366.493 301.751 366.639 301.592L480.608 181.742C480.754 181.583 481.008 181.583 481.166 181.73C481.324 181.876 481.324 182.133 481.178 182.291L367.209 302.142C367.124 302.227 367.027 302.264 366.918 302.264Z" fill="#A4A4A4"/>
<path d="M480.9 182.412C480.79 182.412 480.681 182.363 480.608 182.278L328.9 3.61342C328.755 3.44245 328.779 3.1982 328.949 3.06387C329.119 2.92953 329.361 2.94175 329.495 3.11272L481.203 181.777C481.348 181.948 481.324 182.192 481.154 182.327C481.081 182.388 480.984 182.412 480.9 182.412Z" fill="#A4A4A4"/>
<path d="M480.901 182.411C480.768 182.411 480.634 182.338 480.561 182.216L421.387 77.2765C421.278 77.0933 421.351 76.8491 421.533 76.7391C421.715 76.6292 421.957 76.7025 422.067 76.8857L481.241 181.825C481.35 182.008 481.277 182.253 481.095 182.362C481.035 182.399 480.962 182.411 480.901 182.411Z" fill="#A4A4A4"/>
<path d="M421.728 77.4839C421.643 77.4839 421.558 77.4595 421.485 77.3984L328.951 3.67337C328.781 3.53904 328.757 3.29479 328.89 3.12382C329.024 2.95285 329.266 2.92843 329.436 3.06276L421.97 76.7878C422.14 76.9222 422.164 77.1664 422.031 77.3374C421.958 77.4229 421.837 77.4839 421.728 77.4839Z" fill="#A4A4A4"/>
<path d="M366.92 302.264C366.823 302.264 366.726 302.227 366.653 302.154L185.018 124.296C184.861 124.149 184.861 123.893 185.006 123.734C185.164 123.575 185.406 123.575 185.564 123.722L367.199 301.592C367.357 301.739 367.357 301.995 367.211 302.154C367.126 302.227 367.029 302.264 366.92 302.264Z" fill="#A4A4A4"/>
<path d="M27.0483 333.281C26.9634 333.281 26.8785 333.256 26.8178 333.195C26.648 333.061 26.6116 332.817 26.7451 332.646L184.98 123.768C185.113 123.597 185.356 123.56 185.525 123.695C185.695 123.829 185.732 124.073 185.598 124.244L27.3516 333.122C27.2788 333.22 27.1575 333.281 27.0483 333.281Z" fill="#A4A4A4"/>
<path d="M185.284 124.404C185.175 124.404 185.066 124.355 184.981 124.258C184.848 124.087 184.86 123.843 185.03 123.708L328.938 3.06387C329.108 2.92953 329.35 2.94175 329.484 3.11272C329.617 3.28369 329.605 3.52793 329.435 3.66227L185.527 124.307C185.466 124.368 185.382 124.404 185.284 124.404Z" fill="#A4A4A4"/>
<path d="M185.285 124.404C185.236 124.404 185.2 124.392 185.151 124.38L50.317 75.3233C50.1108 75.2501 50.0137 75.018 50.0865 74.8226C50.1593 74.615 50.3898 74.5173 50.5839 74.5906L185.418 123.647C185.624 123.72 185.721 123.952 185.649 124.148C185.6 124.306 185.454 124.404 185.285 124.404Z" fill="#A4A4A4"/>
<path d="M434.729 399.705C434.607 399.705 434.486 399.644 434.413 399.535L366.602 302.093C366.481 301.91 366.517 301.666 366.699 301.544C366.881 301.422 367.124 301.458 367.245 301.642L435.056 399.083C435.178 399.266 435.141 399.51 434.959 399.632C434.886 399.681 434.814 399.705 434.729 399.705Z" fill="#A4A4A4"/>
<path d="M434.73 399.704C434.706 399.704 434.682 399.704 434.645 399.692C434.439 399.643 434.306 399.436 434.342 399.228L480.512 181.936C480.56 181.729 480.754 181.594 480.973 181.631C481.179 181.68 481.312 181.887 481.276 182.095L435.118 399.399C435.07 399.582 434.912 399.704 434.73 399.704Z" fill="#A4A4A4"/>
<path d="M484.798 302.323C484.592 302.323 484.41 302.152 484.41 301.944L480.516 182.033C480.504 181.813 480.674 181.63 480.892 181.63C481.111 181.617 481.293 181.788 481.293 182.008L485.187 301.92C485.199 302.14 485.029 302.323 484.811 302.323C484.798 302.323 484.798 302.323 484.798 302.323Z" fill="#A4A4A4"/>
<path d="M434.738 399.703C434.678 399.703 434.617 399.691 434.556 399.654C434.362 399.557 434.289 399.312 434.387 399.129L484.438 301.749C484.535 301.554 484.778 301.481 484.96 301.578C485.154 301.676 485.227 301.92 485.13 302.103L435.066 399.483C435.017 399.63 434.884 399.703 434.738 399.703Z" fill="#A4A4A4"/>
<path d="M212.725 494.202C212.64 494.202 212.555 494.178 212.482 494.116C212.312 493.982 212.288 493.738 212.422 493.567L366.629 301.628C366.762 301.457 367.005 301.432 367.175 301.567C367.344 301.701 367.369 301.945 367.235 302.116L213.028 494.055C212.943 494.153 212.834 494.202 212.725 494.202Z" fill="#A4A4A4"/>
<path d="M212.726 494.202C212.641 494.202 212.544 494.165 212.472 494.104L26.7971 333.184C26.6394 333.037 26.6152 332.793 26.7607 332.634C26.9063 332.463 27.1489 332.451 27.3066 332.598L212.981 493.518C213.139 493.664 213.163 493.909 213.017 494.067C212.945 494.153 212.835 494.202 212.726 494.202Z" fill="#A4A4A4"/>
<path d="M27.0507 333.282C26.8687 333.282 26.6989 333.147 26.6625 332.964L3.31065 210.72C3.27425 210.512 3.40769 210.305 3.62605 210.256C3.8444 210.219 4.03849 210.354 4.08702 210.574L27.4389 332.818C27.4753 333.025 27.3418 333.233 27.1235 333.282C27.0992 333.27 27.0749 333.282 27.0507 333.282Z" fill="#A4A4A4"/>
<path d="M3.68769 211.037C3.65129 211.037 3.60277 211.024 3.55425 211.012C3.34802 210.939 3.23884 210.719 3.31163 210.511L50.0881 74.8217C50.1609 74.614 50.3792 74.5041 50.5855 74.5774C50.7917 74.6507 50.9009 74.8705 50.8281 75.0781L4.06374 210.768C4.00309 210.939 3.85752 211.037 3.68769 211.037Z" fill="#A4A4A4"/>
<path d="M100.548 447.44C100.415 447.44 100.293 447.379 100.221 447.257L26.7199 333.097C26.5986 332.914 26.6593 332.67 26.8291 332.548C27.011 332.426 27.2537 332.487 27.375 332.67L100.876 446.83C100.997 447.013 100.936 447.257 100.766 447.379C100.694 447.416 100.621 447.44 100.548 447.44Z" fill="#A4A4A4"/>
<path d="M212.728 494.201C212.68 494.201 212.631 494.188 212.583 494.176L100.409 447.416C100.215 447.33 100.118 447.098 100.203 446.903C100.288 446.707 100.518 446.61 100.712 446.695L212.886 493.456C213.08 493.541 213.177 493.773 213.092 493.969C213.019 494.103 212.874 494.201 212.728 494.201Z" fill="#A4A4A4"/>
<path d="M212.723 494.2C212.565 494.2 212.432 494.115 212.359 493.956C212.274 493.761 212.371 493.529 212.565 493.443L434.584 398.945C434.778 398.86 435.008 398.957 435.093 399.153C435.178 399.348 435.081 399.58 434.887 399.666L212.869 494.164C212.82 494.188 212.771 494.2 212.723 494.2Z" fill="#A4A4A4"/>
<path d="M212.722 494.201C212.528 494.201 212.37 494.067 212.334 493.871C212.297 493.652 212.443 493.456 212.661 493.42L344.366 472.83C344.584 472.793 344.778 472.94 344.814 473.16C344.851 473.379 344.705 473.575 344.487 473.611L212.783 494.201C212.758 494.201 212.734 494.201 212.722 494.201Z" fill="#A4A4A4"/>
<path d="M344.42 473.612C344.311 473.612 344.19 473.564 344.117 473.466C343.983 473.295 344.008 473.051 344.178 472.916L434.492 399.008C434.661 398.874 434.904 398.898 435.037 399.069C435.171 399.24 435.147 399.484 434.977 399.619L344.663 473.527C344.602 473.576 344.505 473.612 344.42 473.612Z" fill="#A4A4A4"/>
<path d="M370.258 301.874C370.258 303.73 368.766 305.232 366.922 305.232C365.078 305.232 363.586 303.73 363.586 301.874C363.586 300.018 365.078 298.516 366.922 298.516C368.766 298.516 370.258 300.018 370.258 301.874Z" fill="#A4A4A4"/>
<path d="M437.797 398.936C437.797 400.793 436.305 402.295 434.461 402.295C432.617 402.295 431.125 400.793 431.125 398.936C431.125 397.08 432.617 395.578 434.461 395.578C436.305 395.578 437.797 397.08 437.797 398.936Z" fill="#A4A4A4"/>
<path d="M216.195 493.644C216.195 495.5 214.703 497.002 212.859 497.002C211.016 497.002 209.523 495.5 209.523 493.644C209.523 491.787 211.016 490.285 212.859 490.285C214.691 490.285 216.195 491.787 216.195 493.644Z" fill="#A4A4A4"/>
<path d="M30.3907 332.882C30.3907 334.738 28.8986 336.24 27.0547 336.24C25.2108 336.24 23.7188 334.738 23.7188 332.882C23.7188 331.026 25.2108 329.523 27.0547 329.523C28.8986 329.523 30.3907 331.038 30.3907 332.882Z" fill="#A4A4A4"/>
<path d="M188.625 124.003C188.625 125.859 187.133 127.361 185.289 127.361C183.445 127.361 181.953 125.859 181.953 124.003C181.953 122.147 183.445 120.645 185.289 120.645C187.133 120.645 188.625 122.159 188.625 124.003Z" fill="#A4A4A4"/>
<path d="M50.4532 78.3183C52.2956 78.3183 53.7891 76.8147 53.7891 74.9599C53.7891 73.1051 52.2956 71.6016 50.4532 71.6016C48.6108 71.6016 47.1172 73.1051 47.1172 74.9599C47.1172 76.8147 48.6108 78.3183 50.4532 78.3183Z" fill="#A4A4A4"/>
<path d="M332.531 3.35836C332.531 5.21461 331.039 6.71671 329.195 6.71671C327.351 6.71671 325.859 5.21461 325.859 3.35836C325.859 1.5021 327.351 0 329.195 0C331.039 0 332.531 1.5021 332.531 3.35836Z" fill="#A4A4A4"/>
<path d="M484.234 182.022C484.234 183.879 482.742 185.381 480.898 185.381C479.055 185.381 477.562 183.879 477.562 182.022C477.562 180.166 479.055 178.664 480.898 178.664C482.742 178.664 484.234 180.166 484.234 182.022Z" fill="#A4A4A4"/>
<path d="M281.763 481.662C281.569 481.662 281.375 481.552 281.29 481.356L138.401 169.359C138.28 169.09 138.389 168.785 138.656 168.663C138.922 168.541 139.226 168.651 139.347 168.919L282.236 480.917C282.357 481.185 282.236 481.491 281.981 481.613C281.909 481.637 281.836 481.662 281.763 481.662Z" fill="#00344A"/>
<path d="M138.877 169.664C138.671 169.664 138.476 169.541 138.392 169.346C138.282 169.077 138.404 168.772 138.671 168.662L414.477 52.634C414.744 52.5241 415.047 52.6462 415.156 52.9149C415.266 53.1836 415.144 53.4889 414.877 53.5988L139.071 169.627C139.01 169.651 138.937 169.664 138.877 169.664Z" fill="#00344A"/>
<path d="M492.127 332.54C491.896 332.54 491.69 332.394 491.629 332.162L414.174 53.2471C414.101 52.9662 414.259 52.6731 414.538 52.5998C414.817 52.5266 415.108 52.6853 415.181 52.9662L492.624 331.881C492.697 332.162 492.539 332.455 492.26 332.528C492.212 332.54 492.175 332.54 492.127 332.54Z" fill="#00344A"/>
<path d="M281.764 481.661C281.606 481.661 281.436 481.588 281.339 481.441C281.169 481.209 281.23 480.88 281.461 480.709L491.821 331.598C492.052 331.427 492.379 331.488 492.549 331.72C492.719 331.952 492.658 332.282 492.428 332.453L282.067 481.564C281.97 481.625 281.861 481.661 281.764 481.661Z" fill="#00344A"/>
<path d="M481.782 185.932C481.588 185.932 481.406 185.822 481.321 185.651L414.214 53.3441C414.08 53.0876 414.189 52.7701 414.444 52.6358C414.699 52.5014 415.014 52.6113 415.148 52.8678L482.243 185.163C482.377 185.419 482.267 185.737 482.013 185.871C481.94 185.908 481.855 185.932 481.782 185.932Z" fill="#00344A"/>
<path d="M492.121 332.539C491.854 332.539 491.624 332.331 491.599 332.05L481.252 185.431C481.228 185.138 481.446 184.893 481.737 184.869C482.028 184.845 482.271 185.064 482.295 185.358L492.643 331.977C492.667 332.27 492.449 332.515 492.158 332.539C492.145 332.539 492.133 332.539 492.121 332.539Z" fill="#00344A"/>
<path d="M138.88 169.663C138.831 169.663 138.783 169.651 138.734 169.638C138.455 169.553 138.297 169.26 138.382 168.991L184.686 9.7562C184.771 9.47532 185.062 9.31656 185.329 9.40205C185.608 9.48753 185.765 9.78063 185.68 10.0493L139.377 169.284C139.304 169.516 139.098 169.663 138.88 169.663Z" fill="#00344A"/>
<path d="M414.668 53.6349C414.631 53.6349 414.607 53.6349 414.571 53.6227L185.08 10.4159C184.801 10.3671 184.607 10.0862 184.667 9.80533C184.716 9.52445 184.995 9.32906 185.274 9.39012L414.765 52.5969C415.044 52.6457 415.238 52.9266 415.177 53.2075C415.141 53.4517 414.923 53.6349 414.668 53.6349Z" fill="#00344A"/>
<path d="M185.178 10.4314C184.887 10.4314 184.656 10.1994 184.656 9.90629C184.656 9.6132 184.887 9.38117 185.178 9.38117L305.03 8.64844C305.322 8.64844 305.552 8.88047 305.552 9.17356C305.552 9.46665 305.322 9.69869 305.03 9.69869L185.178 10.4314Z" fill="#00344A"/>
<path d="M414.67 53.6361C414.609 53.6361 414.536 53.6239 414.476 53.5995L304.837 9.65996C304.57 9.55005 304.437 9.24474 304.546 8.97608C304.655 8.70741 304.958 8.57307 305.225 8.68298L414.864 52.6225C415.131 52.7324 415.264 53.0377 415.155 53.3064C415.07 53.514 414.876 53.6361 414.67 53.6361Z" fill="#00344A"/>
<path d="M382.616 239.385C382.567 239.385 382.519 239.372 382.47 239.36L138.725 169.641C138.446 169.568 138.289 169.274 138.361 168.994C138.446 168.713 138.725 168.554 139.004 168.627L382.749 238.347C383.028 238.42 383.186 238.713 383.113 238.994C383.052 239.226 382.834 239.385 382.616 239.385Z" fill="#00344A"/>
<path d="M281.76 481.66C281.687 481.66 281.626 481.648 281.553 481.623C281.287 481.513 281.165 481.208 281.274 480.939L382.13 238.649C382.239 238.381 382.543 238.258 382.809 238.368C383.076 238.478 383.198 238.784 383.088 239.052L282.233 481.33C282.148 481.538 281.954 481.66 281.76 481.66Z" fill="#00344A"/>
<path d="M382.618 239.383C382.594 239.383 382.558 239.383 382.534 239.371C382.255 239.322 382.06 239.054 382.109 238.761L414.171 53.013C414.219 52.7322 414.486 52.5368 414.777 52.5856C415.056 52.6345 415.25 52.9031 415.202 53.1962L383.14 238.944C383.079 239.2 382.861 239.383 382.618 239.383Z" fill="#00344A"/>
<path d="M492.121 332.537C491.999 332.537 491.878 332.501 491.781 332.415L382.276 239.26C382.058 239.077 382.033 238.747 382.215 238.515C382.397 238.296 382.725 238.271 382.955 238.454L492.46 331.621C492.679 331.804 492.703 332.134 492.521 332.354C492.412 332.476 492.266 332.537 492.121 332.537Z" fill="#00344A"/>
<path d="M138.874 169.666C138.862 169.666 138.838 169.666 138.825 169.666L21.1078 159.126C20.8167 159.102 20.6105 158.846 20.6347 158.552C20.659 158.259 20.9016 158.052 21.2049 158.076L138.922 168.615C139.214 168.64 139.42 168.896 139.396 169.189C139.359 169.458 139.141 169.666 138.874 169.666Z" fill="#00344A"/>
<path d="M21.1538 159.124C21.0082 159.124 20.8748 159.063 20.7656 158.953C20.5715 158.733 20.5958 158.404 20.802 158.208L184.823 9.51258C185.041 9.31718 185.369 9.34161 185.563 9.54922C185.757 9.76903 185.733 10.0988 185.527 10.2942L21.5056 158.99C21.3964 159.075 21.2751 159.124 21.1538 159.124Z" fill="#00344A"/>
<path d="M80.0208 66.8609C79.8388 66.8609 79.6569 66.7632 79.5598 66.58C79.4264 66.3236 79.5234 66.0061 79.7782 65.8717L184.94 9.43915C185.195 9.30481 185.51 9.40251 185.644 9.65897C185.777 9.91542 185.68 10.2329 185.426 10.3673L80.2634 66.7999C80.1906 66.8365 80.1057 66.8609 80.0208 66.8609Z" fill="#00344A"/>
<path d="M21.1531 159.125C21.056 159.125 20.959 159.1 20.874 159.039C20.6314 158.88 20.5586 158.563 20.7163 158.319L79.5751 66.0554C79.7328 65.8111 80.0482 65.7378 80.2908 65.8966C80.5335 66.0554 80.6062 66.3729 80.4485 66.6171L21.5898 158.88C21.4927 159.039 21.3229 159.125 21.1531 159.125Z" fill="#00344A"/>
<path d="M50.5872 399.961C50.5265 399.961 50.4659 399.949 50.4052 399.924C50.1383 399.814 50.0049 399.521 50.1019 399.24L138.39 168.943C138.499 168.674 138.79 168.54 139.069 168.637C139.336 168.747 139.47 169.04 139.373 169.321L51.0724 399.631C50.9875 399.839 50.7934 399.961 50.5872 399.961Z" fill="#00344A"/>
<path d="M281.763 481.662C281.702 481.662 281.642 481.649 281.593 481.637L50.4159 399.938C50.149 399.84 50.0034 399.547 50.1005 399.266C50.1975 398.997 50.4887 398.851 50.7677 398.948L281.945 480.648C282.212 480.746 282.357 481.039 282.26 481.32C282.175 481.527 281.969 481.662 281.763 481.662Z" fill="#00344A"/>
<path d="M281.762 481.662C281.543 481.662 281.349 481.528 281.264 481.308C281.167 481.039 281.313 480.734 281.592 480.636L398.472 440.019C398.739 439.921 399.043 440.067 399.14 440.348C399.237 440.617 399.091 440.922 398.812 441.02L281.932 481.638C281.871 481.65 281.81 481.662 281.762 481.662Z" fill="#00344A"/>
<path d="M398.645 441.046C398.523 441.046 398.402 441.009 398.305 440.923C398.087 440.728 398.063 440.398 398.257 440.178L491.737 331.685C491.931 331.465 492.258 331.441 492.477 331.636C492.695 331.832 492.719 332.162 492.525 332.381L399.045 440.875C398.936 440.984 398.79 441.046 398.645 441.046Z" fill="#00344A"/>
<path d="M281.759 481.66C281.747 481.66 281.735 481.66 281.735 481.66L146.779 474.504C146.488 474.492 146.27 474.247 146.282 473.954C146.294 473.661 146.536 473.441 146.828 473.454L281.783 480.61C282.074 480.622 282.293 480.866 282.28 481.159C282.256 481.44 282.026 481.66 281.759 481.66Z" fill="#00344A"/>
<path d="M146.81 474.492C146.701 474.492 146.592 474.455 146.495 474.382L50.2731 399.851C50.0426 399.68 50.0062 399.35 50.1761 399.118C50.3459 398.886 50.6734 398.85 50.9039 399.021L147.126 473.552C147.356 473.723 147.393 474.052 147.223 474.284C147.126 474.431 146.968 474.492 146.81 474.492Z" fill="#00344A"/>
<path d="M50.588 399.962C50.3332 399.962 50.1028 399.766 50.0664 399.498L20.637 158.661C20.6006 158.368 20.8068 158.111 21.0858 158.075C21.3648 158.038 21.6317 158.245 21.6681 158.526L51.0975 399.363C51.1339 399.656 50.9277 399.913 50.6486 399.949C50.6244 399.962 50.6123 399.962 50.588 399.962Z" fill="#00344A"/>
<path d="M50.5831 399.96C50.3769 399.96 50.1828 399.838 50.0979 399.63L2.10835 274.455C1.99917 274.187 2.13261 273.881 2.41162 273.772C2.6785 273.674 2.98177 273.796 3.09095 274.077L51.0805 399.252C51.1897 399.521 51.0562 399.826 50.7772 399.936C50.7044 399.948 50.6438 399.96 50.5831 399.96Z" fill="#00344A"/>
<path d="M2.59632 274.787C2.57206 274.787 2.53567 274.787 2.5114 274.775C2.23239 274.726 2.0383 274.457 2.0747 274.176L20.6349 158.514C20.6834 158.233 20.9503 158.038 21.2293 158.075C21.5083 158.124 21.7024 158.392 21.666 158.673L3.10582 274.335C3.06942 274.604 2.85107 274.787 2.59632 274.787Z" fill="#00344A"/>
<path d="M390.822 247.119C395.356 242.555 395.356 235.156 390.822 230.592C386.288 226.027 378.938 226.027 374.404 230.592C369.871 235.156 369.871 242.555 374.404 247.119C378.938 251.683 386.288 251.683 390.822 247.119Z" fill="#00344A"/>
<path d="M146.771 169.138C146.771 164.741 143.229 161.188 138.874 161.188C134.507 161.188 130.977 164.753 130.977 169.138C130.977 173.522 134.519 177.088 138.874 177.088C143.229 177.088 146.771 173.534 146.771 169.138Z" fill="#00344A"/>
<path d="M282.92 488.2C286.795 487.567 289.427 483.891 288.798 479.99C288.169 476.089 284.517 473.439 280.642 474.072C276.767 474.705 274.135 478.381 274.764 482.283C275.393 486.184 279.044 488.834 282.92 488.2Z" fill="#00344A"/>
<path d="M421.16 53.1077C421.16 49.4929 418.248 46.5742 414.67 46.5742C411.079 46.5742 408.18 49.5051 408.18 53.1077C408.18 56.7226 411.091 59.6413 414.67 59.6413C418.26 59.6413 421.16 56.7103 421.16 53.1077Z" fill="#00344A"/>
<path d="M492.127 336.92C494.82 336.92 497.003 334.722 497.003 332.011C497.003 329.3 494.82 327.102 492.127 327.102C489.433 327.102 487.25 329.3 487.25 332.011C487.25 334.722 489.433 336.92 492.127 336.92Z" fill="#00344A"/>
<path d="M26.2109 158.596C26.2109 155.788 23.9424 153.504 21.1523 153.504C18.3622 153.504 16.0938 155.788 16.0938 158.596C16.0938 161.405 18.3622 163.689 21.1523 163.689C23.9424 163.689 26.2109 161.405 26.2109 158.596Z" fill="#00344A"/>
<path d="M188.927 9.90248C188.927 7.81419 187.252 6.12891 185.178 6.12891C183.104 6.12891 181.43 7.81419 181.43 9.90248C181.43 11.9908 183.104 13.676 185.178 13.676C187.252 13.676 188.927 11.9786 188.927 9.90248Z" fill="#00344A"/>
<path d="M54.1297 399.363C54.1297 397.275 52.4556 395.59 50.3812 395.59C48.3069 395.59 46.6328 397.275 46.6328 399.363C46.6328 401.452 48.3069 403.137 50.3812 403.137C52.4556 403.137 54.1297 401.452 54.1297 399.363Z" fill="#00344A"/>
<path d="M5.19199 274.262C5.19199 272.821 4.02743 271.648 2.596 271.648C1.16456 271.648 0 272.821 0 274.262C0 275.703 1.16456 276.875 2.596 276.875C4.02743 276.875 5.19199 275.703 5.19199 274.262Z" fill="#00344A"/>
<path d="M398.643 443.129C400.077 443.129 401.239 441.959 401.239 440.516C401.239 439.072 400.077 437.902 398.643 437.902C397.209 437.902 396.047 439.072 396.047 440.516C396.047 441.959 397.209 443.129 398.643 443.129Z" fill="#00344A"/>
<path d="M147.267 475.856C148.317 475.606 148.967 474.547 148.719 473.49C148.471 472.434 147.419 471.779 146.369 472.029C145.32 472.278 144.67 473.337 144.918 474.394C145.165 475.451 146.217 476.105 147.267 475.856Z" fill="#00344A"/>
<path d="M81.953 66.3333C81.953 65.2465 81.0796 64.3672 79.9999 64.3672C78.9203 64.3672 78.0469 65.2465 78.0469 66.3333C78.0469 67.4202 78.9203 68.2995 79.9999 68.2995C81.0796 68.2995 81.953 67.4202 81.953 66.3333Z" fill="#00344A"/>
<path d="M306.984 9.16929C306.984 8.0824 306.111 7.20312 305.031 7.20312C303.952 7.20312 303.078 8.0824 303.078 9.16929C303.078 10.2562 303.952 11.1355 305.031 11.1355C306.111 11.1232 306.984 10.244 306.984 9.16929Z" fill="#00344A"/>
<path d="M482.197 187.281C483.247 187.032 483.897 185.973 483.649 184.916C483.401 183.859 482.349 183.205 481.299 183.454C480.249 183.704 479.599 184.763 479.847 185.82C480.095 186.876 481.147 187.531 482.197 187.281Z" fill="#00344A"/>
</svg>
