<svg width="163" height="51" viewBox="0 0 163 51" fill="none" xmlns="http://www.w3.org/2000/svg">
<path d="M152.822 0.246094L149.367 16.6205C148.822 19.1304 148.458 21.5141 147.972 24.9646H147.669C147.184 21.5141 146.82 19.1304 146.274 16.6205L142.819 0.246094H131.969L142.395 35.7549V51H152.58V35.7549L163.005 0.246094H152.822Z" fill="#FF2038"/>
<path d="M117.725 16.6205C117.18 19.1304 116.816 21.5141 116.33 24.9646H116.027C115.542 21.5141 115.179 19.1304 114.633 16.6205L111.179 0.246094H100.328L110.755 35.7549V51H120.939V35.7549L131.365 0.246094H121.18L117.725 16.6205Z" fill="#FF2038"/>
<path d="M23.6419 0.246094H10.0627L0 51H10.3056L12.0319 39.5193H21.2485L22.9749 51H33.7046L23.6419 0.246094ZM13.2771 31.2377L15.5792 15.9301C15.943 13.5464 16.1858 11.2253 16.488 7.96243H16.7913C17.0946 11.2253 17.3363 13.5464 17.7001 15.9301L20.0022 31.2377H13.2771Z" fill="#FF2038"/>
<path d="M59.0383 24.0229V23.9604C62.5548 22.706 65.0394 18.9416 65.0394 13.5464C65.0394 5.38993 60.5537 0.246094 50.9756 0.246094H37.3359V51H51.8239C61.6449 51 66.1306 45.4797 66.1306 36.3202C66.1306 29.293 63.3427 25.5912 59.0383 24.0229ZM47.2778 7.586H50.0668C53.3405 7.586 54.9767 9.53072 54.9767 14.4869C54.9767 19.4431 53.3405 21.3879 50.0668 21.3879H47.2778V7.586ZM50.9152 43.6601H47.2778V28.4776H50.9152C54.2492 28.4776 55.7646 30.6737 55.7646 36.0688C55.7646 41.464 54.2492 43.6601 50.9152 43.6601Z" fill="#FF2038"/>
<path d="M92.8586 24.0229V23.9604C96.3751 22.706 98.8597 18.9416 98.8597 13.5464C98.8597 5.38993 94.374 0.246094 84.7959 0.246094H71.1562V51H85.6443C95.4652 51 99.951 45.4797 99.951 36.3202C99.951 29.293 97.163 25.5912 92.8586 24.0229ZM81.0981 7.586H83.8871C87.1608 7.586 88.797 9.53072 88.797 14.4869C88.797 19.4431 87.1608 21.3879 83.8871 21.3879H81.0981V7.586ZM84.7355 43.6601H81.0981V28.4776H84.7355C88.0696 28.4776 89.585 30.6737 89.585 36.0688C89.585 41.464 88.0696 43.6601 84.7355 43.6601Z" fill="#FF2038"/>
</svg>
