<svg width="97" height="50" viewBox="0 0 97 50" fill="none" xmlns="http://www.w3.org/2000/svg">
<g clip-path="url(#clip0_228_15059)">
<path d="M-0.0078125 49.925H48.9668L96.9922 0H-0.0078125V49.925Z" fill="#014185"/>
<path fill-rule="evenodd" clip-rule="evenodd" d="M57.5004 9.38454L48.0092 9.38257V32.9977L39.6569 9.38257H31.4945L24.2812 29.1322C23.5219 24.1573 18.5865 22.4378 14.6002 21.1506C12.1325 20.286 9.2851 19.0146 9.47493 17.6248C9.47493 16.4718 10.8037 15.4137 13.6511 15.5716C15.5493 15.6723 17.2577 15.8362 20.6745 17.53L24.0914 11.5147C20.8644 9.88796 16.6882 8.85942 13.2714 8.85547C9.09528 8.85547 5.67845 10.2216 3.59039 12.486C2.26162 14.0614 1.3125 16.0612 1.3125 18.2782C1.3125 21.3283 2.45144 23.492 4.53951 25.2155C6.62757 26.6665 8.90546 27.6121 11.1833 28.3051C13.8409 29.1599 15.9289 29.9002 15.9289 31.4874C15.9289 32.0738 15.7391 32.6068 15.3595 33.0352C14.6002 33.7439 13.651 34.0124 12.1325 34.046C9.47492 34.0973 7.57669 33.6571 4.34968 31.6967L1.3125 37.787C4.53951 39.6744 8.33598 40.7838 12.1325 40.7838L12.7019 40.7799C15.9289 40.7167 18.7763 39.7198 20.8644 37.9075C21.0542 37.8009 21.0542 37.7022 21.244 37.6034L20.2949 40.2548H29.0268L30.3556 35.6589C31.8741 36.188 33.5826 36.4959 35.4808 36.4959C37.379 36.4959 38.8976 36.1978 40.4162 35.6964L41.9348 40.2548H55.9818V30.7215H59.2088C66.6119 30.7215 70.9779 26.7711 70.9779 20.1458C70.9779 12.7703 66.8017 9.38454 57.5004 9.38454ZM35.4808 29.6021C34.3419 29.6021 33.3927 29.3968 32.4436 29.0375L35.4808 19.1034L38.518 29.0691C37.5689 29.4086 36.6197 29.6021 35.4808 29.6021ZM58.0698 23.8888H55.9818V15.8796H58.0698C60.9172 15.8796 63.1951 16.8489 63.1951 19.8437C63.1951 22.9235 60.9172 23.8888 58.0698 23.8888Z" fill="white"/>
<path d="M60.9312 46.7316C60.9312 45.2055 62.0701 44.0427 63.3989 44.0427C64.7276 44.0427 65.8666 45.2055 65.8666 46.7316C65.8666 48.3149 64.7276 49.4559 63.3989 49.4559C62.0701 49.4559 60.9312 48.3149 60.9312 46.7316ZM63.3989 49.9969C65.1073 49.9969 66.6259 48.613 66.6259 46.7316C66.6259 44.8778 65.1073 43.5156 63.3989 43.5156C61.6905 43.5156 60.1719 44.8778 60.1719 46.7316C60.1719 48.613 61.6905 49.9969 63.3989 49.9969ZM62.8294 47.002H63.3989L64.348 48.613H64.9175L63.9684 46.9704C64.348 46.9033 64.9175 46.6131 64.9175 45.9498C64.9175 45.2055 64.348 44.8778 63.5887 44.8778H62.2599V48.613H62.8294V47.002ZM62.8294 46.5203V45.3536H63.5887C63.7785 45.3536 64.348 45.4444 64.348 45.9162C64.348 46.4828 63.7785 46.5203 63.3989 46.5203H62.8294Z" fill="#014185"/>
</g>
<defs>
<clipPath id="clip0_228_15059">
<rect width="97" height="50" fill="white"/>
</clipPath>
</defs>
</svg>
