<svg width="259" height="65" viewBox="0 0 259 65" fill="none" xmlns="http://www.w3.org/2000/svg">
<g clip-path="url(#clip0_226_6340)">
<path d="M55.4826 0H18.1719L32.2264 14.094C32.542 14.0751 32.8608 14.0665 33.1814 14.0665C36.3766 14.06 39.5108 14.9495 42.2331 16.6357C44.9555 18.3218 47.1588 20.7381 48.5968 23.6142C48.8713 23.5954 49.1493 23.5868 49.4289 23.5868C51.7344 23.5834 53.9949 24.2281 55.9567 25.4488C57.9185 26.6694 59.5033 28.4173 60.5335 30.4963L64.9483 26.0755V9.96891C64.9052 7.41699 63.9077 4.97559 62.1551 3.13333C60.3963 1.28696 58.0165 0.169473 55.4826 0Z" fill="#00B4FF"/>
<path d="M60.5476 30.4963L42.6016 48.4695L58.4245 64.3114C60.3217 63.5989 61.9614 62.3258 63.1294 60.6588C64.2974 58.9919 64.9392 57.0087 64.971 54.9683V26.0703L60.5476 30.4963Z" fill="#FF6E6E"/>
<path d="M7.2143 42.625C6.73579 41.4508 6.49071 40.1936 6.49298 38.9243C6.49298 33.6511 10.635 29.3766 15.7422 29.3766C15.8616 29.3766 15.9792 29.3766 16.0969 29.3766C16.5483 25.319 18.4181 21.5561 21.3712 18.7614C24.3391 15.9635 28.191 14.3105 32.2489 14.0932L18.1875 0.0078125H9.55219C6.98306 0.16871 4.57025 1.30637 2.80112 3.19098C1.04029 5.06916 0.0602525 7.55591 0.0625039 10.14V49.7904L7.2143 42.625Z" fill="#23D3FF"/>
<path d="M42.5835 48.4688H15.7344C14.3387 48.4705 12.9617 48.1458 11.7117 47.52C9.67095 46.4927 8.0699 44.7531 7.20647 42.625L0.0546875 49.7888V54.8161C0.0586805 56.8277 0.655088 58.7927 1.76831 60.4622C2.88154 62.1317 4.46146 63.4304 6.30782 64.1939C7.53988 64.7059 8.85967 64.9692 10.1924 64.969H54.8236C56.0466 64.9687 57.2597 64.7468 58.4048 64.3141L42.5835 48.4688Z" fill="#00F5D0"/>
<path d="M64.9118 9.96891C64.8676 7.41503 63.8689 4.97205 62.1151 3.12817C60.352 1.28088 57.9669 0.165069 55.4288 0H9.48286C6.91694 0.164703 4.50828 1.30336 2.74204 3.18662C0.983717 5.06252 0.0028417 7.54463 0 10.1253V54.8289C0.00174138 56.162 0.264935 57.4814 0.77444 58.7113C1.28395 59.9414 2.02971 61.0579 2.96883 61.9962C4.87357 63.9008 7.44784 64.9697 10.1308 64.9697H54.7741C55.9971 64.9693 57.21 64.7476 58.3551 64.315H58.3671C60.2643 63.6025 61.9036 62.3292 63.0705 60.6617C64.2374 58.9942 64.8774 57.0103 64.9067 54.9698V9.96891H64.9118Z" fill="url(#paint0_radial_226_6340)"/>
<path d="M60.5909 30.5149C59.5614 28.4356 57.9769 26.6873 56.0155 25.4663C54.054 24.2453 51.7934 23.6002 49.4881 23.6037C49.2084 23.6037 48.9305 23.614 48.6576 23.6311C47.2203 20.7538 45.017 18.3363 42.2943 16.6491C39.5714 14.962 36.4367 14.0718 33.2406 14.0782C32.9149 14.0782 32.6044 14.0782 32.2872 14.1057C28.2271 14.3271 24.3746 15.9864 21.4095 18.7911C18.4567 21.5852 16.587 25.3476 16.1352 29.4045C16.0175 29.4045 15.8999 29.3959 15.7805 29.3959C10.6648 29.3959 6.53128 33.6705 6.53128 38.9437C6.52833 40.2135 6.77343 41.4716 7.25259 42.6459C8.1162 44.7744 9.71713 46.5145 11.7578 47.5427C13.0082 48.1671 14.3851 48.4914 15.7805 48.4898H42.6449L60.5925 30.5165L60.5909 30.5149Z" fill="white"/>
<path fill-rule="evenodd" clip-rule="evenodd" d="M55.0516 29.2748C56.9748 29.2458 58.8781 29.669 60.6108 30.5106L42.6562 48.4838V41.1292H42.6733C42.8186 37.9329 44.1863 34.9175 46.4896 32.7158C48.8015 30.5068 51.8663 29.2763 55.0516 29.2783V29.2748Z" fill="#FFD12F"/>
<path d="M96.252 32.7142L105.822 19.6071H108.768V45.5829H105.523V25.3914V25.1628L105.387 25.3463L96.4889 37.3343H95.743L86.584 25.3456L86.4484 25.168V25.3914V45.5829H83.2031V19.6071H86.2251L96.1307 32.7151L96.192 32.7963L96.252 32.7142ZM152.793 26.3255H155.593V45.5829H152.609V31.1393V30.9271L152.475 31.0916L140.666 45.5829H137.903V26.3255H140.887V40.8064V41.0197L141.022 40.8539L152.793 26.3255ZM203.29 46.0318V53.0478H200.307V46.0318V45.9561H200.231H200.008C196.721 45.9561 194.138 44.8981 192.376 43.1278C190.615 41.3572 189.669 38.8674 189.669 35.9915C189.669 30.7297 193.41 25.9896 199.969 25.9896H200.231H200.307V25.9139V18.4874H203.29V25.9139V25.9896H203.367H203.664C206.82 25.9896 209.394 27.0656 211.179 28.8507C212.964 30.636 213.966 33.1354 213.966 35.9915C213.966 38.8674 213.02 41.3572 211.254 43.1277C209.487 44.8981 206.896 45.9561 203.59 45.9561H203.367H203.29V46.0318ZM200.231 43.1213H200.307V43.0458V28.8999V28.8244H200.231H199.969C197.62 28.8244 195.835 29.5862 194.639 30.8684C193.442 32.1499 192.839 33.9429 192.839 35.9915C192.839 38.133 193.451 39.9174 194.657 41.1668C195.864 42.4165 197.66 43.1213 200.008 43.1213H200.231ZM203.367 28.8244H203.29V28.8999V43.0458V43.1213H203.367H203.59C205.994 43.1213 207.799 42.4263 209 41.1807C210.202 39.9356 210.794 38.151 210.794 35.9915C210.794 33.9982 210.184 32.2055 208.973 30.9106C207.762 29.6146 205.959 28.8244 203.59 28.8244H203.367ZM233.143 26.3255H235.943V45.5829H232.96V31.1393V30.9271L232.825 31.0916L221.016 45.5829H218.253V26.3255H221.238V40.8064V41.0197L221.372 40.8539L233.143 26.3255ZM113.075 35.9168C113.075 32.9866 114.113 30.4777 115.903 28.7016C117.693 26.9254 120.24 25.8776 123.263 25.8776C126.306 25.8776 128.871 26.9256 130.675 28.7018C132.479 30.4781 133.527 32.9867 133.527 35.9168C133.527 38.8282 132.479 41.3276 130.675 43.0991C128.871 44.8709 126.306 45.9188 123.263 45.9188C117.295 45.9188 113.075 41.734 113.075 35.9168ZM116.246 35.9168C116.246 40.0993 119.151 43.1213 123.263 43.1213C125.353 43.1213 127.127 42.3963 128.379 41.1301C129.631 39.8639 130.356 38.0616 130.356 35.9168C130.356 31.5829 127.299 28.675 123.263 28.675C121.248 28.675 119.493 29.391 118.241 30.6569C116.989 31.923 116.246 33.7344 116.246 35.9168ZM150.369 17.9648H153.165C153.109 19.6254 152.432 20.9683 151.359 21.9006C150.27 22.848 148.767 23.3751 147.084 23.3751C145.269 23.3751 143.73 22.8656 142.641 21.9284C141.569 21.0059 140.927 19.6632 140.89 17.9648H143.689C143.722 18.8451 144.026 19.6033 144.587 20.1458C145.164 20.7034 146.005 21.0255 147.084 21.0255C148.126 21.0255 148.949 20.703 149.512 20.1451C150.059 19.6027 150.353 18.8449 150.369 17.9648ZM160.348 32.5949C160.348 25.0595 166.137 19.2712 173.56 19.2712C180.871 19.2712 186.733 24.8365 186.733 32.5949C186.733 40.2419 180.871 45.9188 173.56 45.9188C166.21 45.9188 160.348 40.3534 160.348 32.5949ZM163.742 32.5949C163.742 38.5704 168.217 42.8228 173.56 42.8228C179.09 42.8228 183.34 38.5689 183.34 32.5949C183.34 26.5821 178.828 22.3672 173.56 22.3672C168.18 22.3672 163.742 26.5822 163.742 32.5949ZM250.855 43.1213C253.206 43.1213 255.114 41.9406 256.323 40.1665L258.446 41.6877C256.953 44.4551 253.614 45.9188 250.557 45.9188C247.494 45.9188 244.919 44.9444 243.111 43.2105C241.304 41.4769 240.257 38.9782 240.257 35.9168C240.257 30.2468 244.291 25.8776 250.37 25.8776C253.792 25.8776 256.837 27.4104 258.146 29.7346L255.837 31.2975C255.17 30.4053 254.428 29.7529 253.558 29.3221C252.667 28.8819 251.648 28.675 250.444 28.675C246.408 28.675 243.427 31.6967 243.427 35.9168C243.427 38.0624 244.171 39.8649 245.475 41.1312C246.779 42.3972 248.636 43.1213 250.855 43.1213Z" fill="black" stroke="black" stroke-width="0.151134"/>
</g>
<defs>
<radialGradient id="paint0_radial_226_6340" cx="0" cy="0" r="1" gradientUnits="userSpaceOnUse" gradientTransform="translate(32.431 33.0915) scale(32.4492 32.49)">
<stop stop-color="#261C38" stop-opacity="0.6"/>
<stop offset="0.28" stop-color="#261C38" stop-opacity="0.3"/>
<stop offset="0.86" stop-color="#302640" stop-opacity="0.05"/>
<stop offset="1" stop-color="#302640" stop-opacity="0"/>
</radialGradient>
<clipPath id="clip0_226_6340">
<rect width="258.547" height="65" fill="white"/>
</clipPath>
</defs>
</svg>
