<svg width="193" height="50" viewBox="0 0 193 50" fill="none" xmlns="http://www.w3.org/2000/svg">
<g clip-path="url(#clip0_228_14339)">
<path d="M41.4141 0H13.5625L24.0539 10.8415C24.2895 10.827 24.5275 10.8204 24.7668 10.8204C27.1519 10.8153 29.4915 11.4996 31.5237 12.7967C33.5559 14.0937 35.2006 15.9524 36.274 18.1648C36.4789 18.1503 36.6865 18.1437 36.8952 18.1437C38.6162 18.1411 40.3036 18.637 41.768 19.576C43.2325 20.5149 44.4155 21.8595 45.1846 23.4587L48.4801 20.0581V7.66839C48.4479 5.70538 47.7033 3.82737 46.395 2.41025C45.0821 0.989969 43.3056 0.130364 41.4141 0Z" fill="#00B4FF"/>
<path d="M45.1853 23.4593L31.7891 37.2849L43.6006 49.4709C45.0167 48.9228 46.2408 47.9435 47.1126 46.6612C47.9845 45.379 48.4636 43.8534 48.4874 42.2839V20.0547L45.1853 23.4593Z" fill="#FF6E6E"/>
<path d="M5.38553 32.7902C5.02834 31.887 4.84539 30.92 4.84709 29.9436C4.84709 25.8873 7.93903 22.5992 11.7514 22.5992C11.8405 22.5992 11.9284 22.5992 12.0162 22.5992C12.3532 19.4779 13.7489 16.5834 15.9534 14.4337C18.1688 12.2814 21.0442 11.0099 24.0733 10.8427L13.5768 0.0078125H7.13072C5.21292 0.13158 3.41181 1.0067 2.0912 2.45641C0.776773 3.90115 0.0451973 5.81405 0.0468779 7.8018V38.3021L5.38553 32.7902Z" fill="#23D3FF"/>
<path d="M31.7859 37.2843H11.7436C10.7018 37.2856 9.67387 37.0359 8.74079 36.5544C7.21739 35.7642 6.02224 34.4261 5.37771 32.7891L0.0390625 38.2997V42.1669C0.0420432 43.7142 0.487248 45.2258 1.31825 46.51C2.14925 47.7942 3.32862 48.7933 4.70689 49.3805C5.62659 49.7744 6.61179 49.9769 7.60661 49.9768H40.9229C41.8358 49.9765 42.7413 49.8058 43.5961 49.473L31.7859 37.2843Z" fill="#00F5D0"/>
<path d="M48.4552 7.66839C48.4223 5.70387 47.6767 3.82465 46.3676 2.40628C45.0514 0.985295 43.271 0.126976 41.3764 0H7.07875C5.16335 0.126695 3.36533 1.00258 2.04687 2.45124C0.734323 3.89425 0.00212127 5.80356 0 7.7887V42.1761C0.0012999 43.2015 0.197768 44.2165 0.578103 45.1626C0.958437 46.1088 1.51513 46.9676 2.21617 47.6894C3.63801 49.1545 5.55965 49.9767 7.56246 49.9767H40.8877C41.8006 49.9764 42.706 49.8059 43.5608 49.473H43.5697C44.9859 48.925 46.2097 47.9455 47.0807 46.6628C47.9518 45.3802 48.4296 43.854 48.4514 42.2845V7.66839H48.4552Z" fill="url(#paint0_radial_228_14339)"/>
<path d="M45.2293 23.4718C44.4609 21.8724 43.278 20.5275 41.8139 19.5883C40.3497 18.649 38.6622 18.1528 36.9413 18.1555C36.7326 18.1555 36.5251 18.1634 36.3214 18.1765C35.2485 15.9633 33.6038 14.1036 31.5713 12.8058C29.5387 11.508 27.1987 10.8233 24.8129 10.8282C24.5698 10.8282 24.338 10.8282 24.1012 10.8493C21.0704 11.0196 18.1947 12.296 15.9813 14.4535C13.7771 16.6028 12.3814 19.4969 12.0441 22.6176C11.9563 22.6176 11.8685 22.611 11.7794 22.611C7.96059 22.611 4.87502 25.8992 4.87502 29.9555C4.87282 30.9323 5.05578 31.9 5.41347 32.8034C6.05813 34.4406 7.25319 35.7792 8.77653 36.5701C9.70991 37.0504 10.7377 37.2999 11.7794 37.2986H31.833L45.2305 23.4731L45.2293 23.4718Z" fill="white"/>
<path fill-rule="evenodd" clip-rule="evenodd" d="M41.081 22.5167C42.5166 22.4944 43.9374 22.8199 45.2308 23.4673L31.8281 37.2928V31.6354H31.8409C31.9493 29.1768 32.9703 26.8572 34.6896 25.1636C36.4154 23.4643 38.7032 22.5178 41.081 22.5194V22.5167Z" fill="#FFD12F"/>
<path d="M71.85 25.166L78.9936 15.0836H81.1932V35.065H78.7705V19.533V19.3572L78.6689 19.4984L72.0269 28.7199H71.4701L64.6331 19.4978L64.5319 19.3612V19.533V35.065H62.1094V15.0836H64.3652L71.7595 25.1667L71.8053 25.2291L71.85 25.166ZM114.057 20.2516H116.147V35.065H113.919V23.9545V23.7913L113.819 23.9178L105.004 35.065H102.942V20.2516H105.169V31.3907V31.5548L105.27 31.4273L114.057 20.2516ZM151.752 35.4103V40.8072H149.525V35.4103V35.352H149.468H149.301C146.848 35.352 144.92 34.5382 143.605 33.1765C142.29 31.8144 141.584 29.8992 141.584 27.6869C141.584 23.6394 144.376 19.9932 149.273 19.9932H149.468H149.525V19.935V14.2223H151.752V19.935V19.9932H151.809H152.031C154.387 19.9932 156.308 20.8209 157.641 22.1941C158.973 23.5674 159.721 25.49 159.721 27.6869C159.721 29.8992 159.015 31.8144 157.696 33.1763C156.378 34.5382 154.443 35.352 151.975 35.352H151.809H151.752V35.4103ZM149.468 33.1714H149.525V33.1133V22.2319V22.1738H149.468H149.273C147.519 22.1738 146.187 22.7598 145.294 23.7462C144.4 24.7319 143.95 26.1111 143.95 27.6869C143.95 29.3343 144.407 30.7069 145.307 31.6679C146.208 32.6293 147.549 33.1714 149.301 33.1714H149.468ZM151.809 22.1738H151.752V22.2319V33.1133V33.1714H151.809H151.975C153.77 33.1714 155.117 32.6368 156.014 31.6787C156.912 30.7209 157.353 29.3481 157.353 27.6869C157.353 26.1537 156.898 24.7746 155.994 23.7786C155.09 22.7816 153.744 22.1738 151.975 22.1738H151.809ZM174.036 20.2516H176.126V35.065H173.899V23.9545V23.7913L173.799 23.9178L164.984 35.065H162.921V20.2516H165.149V31.3907V31.5548L165.25 31.4273L174.036 20.2516ZM84.4079 27.6295C84.4079 25.3755 85.183 23.4456 86.5193 22.0794C87.8555 20.7131 89.7562 19.907 92.0135 19.907C94.2849 19.907 96.1996 20.7132 97.5463 22.0795C98.8928 23.4459 99.6749 25.3756 99.6749 27.6295C99.6749 29.8691 98.893 31.7917 97.5463 33.1544C96.1996 34.5172 94.2849 35.3234 92.0135 35.3234C87.5581 35.3234 84.4079 32.1043 84.4079 27.6295ZM86.7749 27.6295C86.7749 30.8468 88.9438 33.1714 92.0135 33.1714C93.5733 33.1714 94.8977 32.6137 95.8323 31.6397C96.767 30.6657 97.3079 29.2794 97.3079 27.6295C97.3079 24.2957 95.0259 22.0589 92.0135 22.0589C90.5092 22.0589 89.1988 22.6097 88.2643 23.5834C87.3298 24.5573 86.7749 25.9508 86.7749 27.6295ZM112.247 13.8203H114.334C114.293 15.0977 113.787 16.1306 112.987 16.8478C112.173 17.5766 111.051 17.982 109.795 17.982C108.44 17.982 107.291 17.5901 106.478 16.8692C105.678 16.1596 105.199 15.1267 105.172 13.8203H107.261C107.286 14.4974 107.512 15.0806 107.931 15.498C108.362 15.9269 108.99 16.1746 109.795 16.1746C110.573 16.1746 111.187 15.9266 111.608 15.4974C112.016 15.0802 112.235 14.4973 112.247 13.8203ZM119.696 25.0742C119.696 19.2777 124.018 14.8252 129.559 14.8252C135.016 14.8252 139.392 19.1062 139.392 25.0742C139.392 30.9565 135.016 35.3234 129.559 35.3234C124.073 35.3234 119.696 31.0422 119.696 25.0742ZM122.23 25.0742C122.23 29.6707 125.57 32.9418 129.559 32.9418C133.687 32.9418 136.859 29.6696 136.859 25.0742C136.859 20.4489 133.491 17.2068 129.559 17.2068C125.542 17.2068 122.23 20.4491 122.23 25.0742ZM187.258 33.1714C189.013 33.1714 190.437 32.2632 191.34 30.8985L192.924 32.0686C191.81 34.1974 189.318 35.3234 187.035 35.3234C184.749 35.3234 182.827 34.5738 181.477 33.24C180.128 31.9065 179.346 29.9844 179.346 27.6295C179.346 23.2679 182.358 19.907 186.896 19.907C189.451 19.907 191.723 21.0861 192.701 22.8739L190.977 24.0762C190.479 23.3899 189.925 22.8881 189.276 22.5566C188.61 22.2181 187.85 22.0589 186.951 22.0589C183.938 22.0589 181.713 24.3833 181.713 27.6295C181.713 29.28 182.269 30.6665 183.242 31.6406C184.215 32.6144 185.601 33.1714 187.258 33.1714Z" fill="black" stroke="black" stroke-width="0.112559"/>
</g>
<defs>
<radialGradient id="paint0_radial_228_14339" cx="0" cy="0" r="1" gradientUnits="userSpaceOnUse" gradientTransform="translate(24.209 25.455) scale(24.2226 24.9923)">
<stop stop-color="#261C38" stop-opacity="0.6"/>
<stop offset="0.28" stop-color="#261C38" stop-opacity="0.3"/>
<stop offset="0.86" stop-color="#302640" stop-opacity="0.05"/>
<stop offset="1" stop-color="#302640" stop-opacity="0"/>
</radialGradient>
<clipPath id="clip0_228_14339">
<rect width="193" height="50" fill="white"/>
</clipPath>
</defs>
</svg>
