<svg width="133" height="65" viewBox="0 0 133 65" fill="none" xmlns="http://www.w3.org/2000/svg">
<g clip-path="url(#clip0_226_6371)">
<path d="M0 64.9025H67.1507L133 0H0V64.9025Z" fill="#014185"/>
<path fill-rule="evenodd" clip-rule="evenodd" d="M78.8614 12.1956L65.8477 12.193V42.8927L54.3956 12.193H43.2039L33.3135 37.8676C32.2724 31.4002 25.5052 29.1649 20.0395 27.4915C16.6559 26.3674 12.7518 24.7147 13.0121 22.9079C13.0121 21.4091 14.834 20.0335 18.7381 20.2388C21.3409 20.3697 23.6833 20.5827 28.3683 22.7847L33.0532 14.9648C28.6285 12.8501 22.9025 11.5129 18.2176 11.5078C12.4915 11.5078 7.80661 13.2838 4.9436 16.2275C3.12168 18.2755 1.82031 20.8753 1.82031 23.7574C1.82031 27.7225 3.38196 30.5353 6.24497 32.7758C9.10798 34.6622 12.2313 35.8915 15.3546 36.7923C18.9984 37.9036 21.8614 38.866 21.8614 40.9294C21.8614 41.6916 21.6011 42.3845 21.0806 42.9415C20.0395 43.8628 18.7381 44.2118 16.6559 44.2555C13.0121 44.3222 10.4094 43.7499 5.98469 41.2014L1.82031 49.1189C6.24497 51.5724 11.4504 53.0147 16.6559 53.0147L17.4367 53.0096C21.8614 52.9274 25.7655 51.6314 28.6285 49.2754C28.8888 49.1368 28.8888 49.0085 29.1491 48.8802L27.8477 52.3269H39.8203L41.6422 46.3522C43.7244 47.0401 46.0669 47.4404 48.6696 47.4404C51.2724 47.4404 53.3545 47.0529 55.4367 46.401L57.5189 52.3269H76.7792V39.9336H81.2039C91.3546 39.9336 97.3409 34.7982 97.3409 26.1852C97.3409 16.597 91.6148 12.1956 78.8614 12.1956ZM48.6696 38.4784C47.108 38.4784 45.8066 38.2115 44.5052 37.7444L48.6696 24.8302L52.834 37.7855C51.5326 38.2269 50.2313 38.4784 48.6696 38.4784ZM79.6422 31.0512H76.7792V20.6392H79.6422C83.5463 20.6392 86.6696 21.8993 86.6696 25.7926C86.6696 29.7962 83.5463 31.0512 79.6422 31.0512Z" fill="white"/>
<path d="M83.5489 60.7549C83.5489 58.7711 85.1106 57.2595 86.9325 57.2595C88.7544 57.2595 90.316 58.7711 90.316 60.7549C90.316 62.8132 88.7544 64.2966 86.9325 64.2966C85.1106 64.2966 83.5489 62.8132 83.5489 60.7549ZM86.9325 64.9998C89.2749 64.9998 91.3571 63.2007 91.3571 60.7549C91.3571 58.3451 89.2749 56.5742 86.9325 56.5742C84.59 56.5742 82.5078 58.3451 82.5078 60.7549C82.5078 63.2007 84.59 64.9998 86.9325 64.9998ZM86.1516 61.1065H86.9325L88.2338 63.2007H89.0147L87.7133 61.0655C88.2338 60.9782 89.0147 60.601 89.0147 59.7386C89.0147 58.7711 88.2338 58.3451 87.1927 58.3451H85.3708V63.2007H86.1516V61.1065ZM86.1516 60.4803V58.9636H87.1927C87.453 58.9636 88.2338 59.0816 88.2338 59.695C88.2338 60.4316 87.453 60.4803 86.9325 60.4803H86.1516Z" fill="#014185"/>
</g>
<defs>
<clipPath id="clip0_226_6371">
<rect width="133" height="65" fill="white"/>
</clipPath>
</defs>
</svg>
