<svg width="91" height="32" viewBox="0 0 91 32" fill="none" xmlns="http://www.w3.org/2000/svg">
<g clip-path="url(#clip0_229_15826)">
<path d="M0.882812 25.3667V6.71192L16.2215 0.613281L24.5576 3.48325V28.5952L16.2215 31.2986L0.882812 25.3667L16.2215 27.3524V5.63588L6.21783 8.14706V22.8557L0.882812 25.3667Z" fill="#EB3C00"/>
<path d="M40.8938 25.4973C38.4793 25.4973 36.5457 24.6414 35.0931 22.9295C33.6404 21.2176 32.9141 18.9905 32.9141 16.2479C32.9141 13.3011 33.6542 10.9505 35.1346 9.19616C36.6149 7.44168 38.6297 6.56445 41.1788 6.56445C43.5299 6.56447 45.4239 7.41614 46.8608 9.11947C48.2975 10.8229 49.016 13.05 49.016 15.8011C49.016 18.7905 48.2797 21.1539 46.8073 22.8914C45.3349 24.6288 43.3637 25.4973 40.8938 25.4973ZM41.0363 8.50593C39.2472 8.50595 37.7946 9.20006 36.6783 10.5883C35.5621 11.9766 35.004 13.7992 35.004 16.0562C35.004 18.3131 35.5482 20.1293 36.6367 21.5048C37.7252 22.8803 39.1442 23.568 40.8938 23.568C42.7621 23.568 44.2345 22.9122 45.3111 21.6006C46.3877 20.289 46.926 18.4537 46.926 16.0945C46.926 13.6757 46.4036 11.8062 45.3586 10.4861C44.3136 9.16605 42.8729 8.506 41.0363 8.50593Z" fill="#EB3C00"/>
<path d="M56.1089 5.54301C55.0085 5.54303 54.0942 5.94626 53.3579 6.74257C52.6217 7.53893 52.2533 8.6225 52.2533 9.99367V12.1125H50.1797V13.9062H52.2533V25.1952H54.1915V13.9062H58.9328V25.1952H60.871V13.9062H63.7157V12.1125H60.871V10.0946C60.871 8.24642 61.5517 7.32552 62.9134 7.32552C63.3962 7.32553 63.8255 7.43189 64.2055 7.66183V5.77843C63.8572 5.62515 63.3924 5.54303 62.7987 5.54301C61.6983 5.54303 60.7736 5.94622 60.0374 6.74253C59.3012 7.53889 58.9328 8.62246 58.9328 9.99363V12.1125H54.1915V10.0945C54.1915 8.24638 54.8723 7.32548 56.2339 7.32548C56.7168 7.32549 57.146 7.43185 57.526 7.66179V5.77839C57.1777 5.62511 56.7027 5.54303 56.1089 5.54301Z" fill="#EB3C00"/>
<path d="M66.5477 8.78559C66.1994 8.78561 65.9026 8.65785 65.6572 8.40233C65.4118 8.14684 65.2891 7.82322 65.2891 7.43141C65.2891 7.03965 65.4118 6.71384 65.6572 6.4541C65.9026 6.19435 66.1994 6.06447 66.5477 6.06445C66.904 6.06447 67.2068 6.19435 67.4561 6.4541C67.7055 6.71388 67.8301 7.03968 67.8302 7.43141C67.8301 7.80616 67.7055 8.12552 67.4561 8.38951C67.2067 8.65355 66.9039 8.78561 66.5477 8.78559ZM67.4977 25.189H65.5503V12.1071H67.4977V25.189Z" fill="#EB3C00"/>
<path d="M78.5651 24.5889C77.6309 25.1936 76.5226 25.4959 75.2402 25.4959C73.5064 25.4959 72.1072 24.889 71.0425 23.6754C69.9777 22.4618 69.4453 20.8882 69.4453 18.9549C69.4453 16.8002 70.0193 15.0691 71.1671 13.7617C72.315 12.4544 73.8468 11.8008 75.7626 11.8008C76.8313 11.8008 77.7734 12.0137 78.5887 12.4395V14.5858C77.6862 13.9044 76.7205 13.5637 75.6914 13.5637C74.4485 13.5637 73.4292 14.0428 72.6336 15.001C71.838 15.9591 71.4402 17.2175 71.4402 18.7761C71.4402 20.3091 71.8143 21.5185 72.5624 22.4043C73.3105 23.2901 74.3139 23.7329 75.5726 23.7329C76.6334 23.7329 77.6309 23.3539 78.565 22.5958L78.5651 24.5889Z" fill="#EB3C00"/>
<path d="M90.4633 19.1721H81.8781C81.9097 20.6285 82.2739 21.7527 82.9705 22.5447C83.6671 23.3367 84.6251 23.7328 85.8442 23.7328C87.2138 23.7328 88.4724 23.2474 89.6203 22.2764V24.2438C88.5516 25.0784 87.1385 25.4958 85.3811 25.4958C83.6633 25.4958 82.3135 24.9017 81.3319 23.7136C80.3502 22.5256 79.8594 20.8541 79.8594 18.6993C79.8594 16.6638 80.3957 15.0052 81.4684 13.7234C82.5411 12.4417 83.873 11.8008 85.4642 11.8008C87.0554 11.8008 88.2864 12.3544 89.1572 13.4616C90.028 14.5688 90.4634 16.1061 90.4634 18.0734L90.4633 19.1721ZM88.4684 17.3963C88.4605 16.187 88.1894 15.2459 87.655 14.573C87.1207 13.9002 86.3785 13.5637 85.4285 13.5637C84.5102 13.5637 83.7305 13.9172 83.0892 14.6241C82.448 15.331 82.0522 16.2551 81.9018 17.3963H88.4684Z" fill="#EB3C00"/>
</g>
<defs>
<clipPath id="clip0_229_15826">
<rect width="90.037" height="31.4815" fill="white" transform="translate(0.632812 0.371094)"/>
</clipPath>
</defs>
</svg>
