<svg width="149" height="50" viewBox="0 0 149 50" fill="none" xmlns="http://www.w3.org/2000/svg">
<g clip-path="url(#clip0_228_13561)">
<path d="M0.390625 39.697V10.0689L25.7743 0.382812L39.5694 4.94099V44.8247L25.7743 49.1183L0.390625 39.697L25.7743 42.8509V8.35988L9.21942 12.3482V35.709L0.390625 39.697Z" fill="#EB3C00"/>
<path d="M66.6039 39.9058C62.6082 39.9058 59.4083 38.5464 57.0044 35.8275C54.6004 33.1086 53.3984 29.5714 53.3984 25.2155C53.3984 20.5353 54.6233 16.802 57.0731 14.0157C59.5229 11.2292 62.8571 9.83594 67.0755 9.83594C70.9664 9.83597 74.1007 11.1886 76.4785 13.8939C78.8562 16.5993 80.0451 20.1365 80.0451 24.5058C80.0451 29.2537 78.8267 33.0074 76.39 35.767C73.9533 38.5264 70.6913 39.9058 66.6039 39.9058ZM66.8397 12.9195C63.879 12.9195 61.4751 14.0219 59.6278 16.2268C57.7806 18.4316 56.857 21.3264 56.857 24.911C56.857 28.4956 57.7577 31.3801 59.559 33.5647C61.3603 35.7494 63.7086 36.8416 66.6039 36.8416C69.6956 36.8416 72.1324 35.8 73.914 33.7169C75.6957 31.6338 76.5865 28.7188 76.5865 24.9719C76.5865 21.1303 75.7219 18.1611 73.9926 16.0645C72.2633 13.9679 69.879 12.9196 66.8397 12.9195Z" fill="#EB3C00"/>
<path d="M91.7809 8.211C89.9599 8.21103 88.4467 8.85146 87.2283 10.1162C86.01 11.381 85.4004 13.102 85.4004 15.2797V18.6449H81.9688V21.4937H85.4004V39.4233H88.6078V21.4937H96.454V39.4233H99.6615V21.4937H104.369V18.6449H99.6615V15.4399C99.6615 12.5046 100.788 11.042 103.041 11.042C103.841 11.0421 104.551 11.211 105.18 11.5762V8.58491C104.603 8.34145 103.834 8.21103 102.852 8.211C101.031 8.21103 99.5003 8.8514 98.282 10.1161C97.0636 11.3809 96.454 13.1019 96.454 15.2796V18.6448H88.6078V15.4399C88.6078 12.5046 89.7344 11.042 91.9877 11.042C92.7868 11.042 93.4972 11.2109 94.126 11.5761V8.58485C93.5496 8.34139 92.7634 8.21103 91.7809 8.211Z" fill="#EB3C00"/>
<path d="M109.06 13.3609C108.483 13.3609 107.992 13.158 107.586 12.7522C107.18 12.3464 106.977 11.8324 106.977 11.2101C106.977 10.5879 107.18 10.0704 107.586 9.65791C107.992 9.24537 108.483 9.03908 109.06 9.03906C109.649 9.03908 110.15 9.24537 110.563 9.65791C110.975 10.0705 111.182 10.5879 111.182 11.2101C111.182 11.8053 110.975 12.3125 110.563 12.7318C110.15 13.1512 109.649 13.3609 109.06 13.3609ZM110.632 39.4133H107.409V18.6362H110.632V39.4133Z" fill="#EB3C00"/>
<path d="M128.944 38.4628C127.398 39.4232 125.564 39.9034 123.441 39.9034C120.572 39.9034 118.257 38.9396 116.495 37.012C114.733 35.0845 113.852 32.5854 113.852 29.5148C113.852 26.0925 114.801 23.3433 116.701 21.2668C118.601 19.1905 121.135 18.1523 124.306 18.1523C126.074 18.1524 127.633 18.4905 128.983 19.1669V22.5755C127.489 21.4935 125.891 20.9523 124.188 20.9523C122.131 20.9523 120.444 21.7132 119.128 23.235C117.811 24.7568 117.153 26.7554 117.153 29.2308C117.153 31.6656 117.772 33.5864 119.01 34.9932C120.248 36.4 121.908 37.1034 123.991 37.1033C125.747 37.1033 127.398 36.5014 128.944 35.2974L128.944 38.4628Z" fill="#EB3C00"/>
<path d="M148.642 29.8597H134.434C134.487 32.1728 135.089 33.9583 136.242 35.2162C137.395 36.4742 138.98 37.1032 140.998 37.1032C143.264 37.1032 145.347 36.3322 147.247 34.7901V37.9147C145.478 39.2403 143.14 39.9032 140.232 39.9032C137.389 39.9032 135.155 38.9597 133.531 37.0728C131.906 35.1858 131.094 32.5312 131.094 29.1089C131.094 25.876 131.981 23.2417 133.756 21.2059C135.532 19.1702 137.736 18.1523 140.369 18.1523C143.002 18.1524 145.039 19.0316 146.481 20.7901C147.922 22.5486 148.642 24.9901 148.642 28.1148L148.642 29.8597ZM145.341 27.0394C145.328 25.1187 144.879 23.624 143.995 22.5553C143.11 21.4867 141.882 20.9523 140.31 20.9523C138.79 20.9523 137.5 21.5137 136.439 22.6364C135.378 23.7592 134.723 25.2268 134.474 27.0394H145.341Z" fill="#EB3C00"/>
</g>
<defs>
<clipPath id="clip0_228_13561">
<rect width="149" height="50" fill="white"/>
</clipPath>
</defs>
</svg>
