<svg width="95" height="50" viewBox="0 0 95 50" fill="none" xmlns="http://www.w3.org/2000/svg">
<g clip-path="url(#clip0_228_15037)">
<path d="M49.2327 43.3443C47.3967 43.2122 45.2796 42.8649 43.6099 42.343C43.2971 42.2452 42.0021 41.7315 41.6726 41.5684C35.8594 38.6625 31.8097 32.3189 31.8097 24.9594C31.8097 14.8651 39.4196 6.64297 48.7794 6.64297C58.056 6.64297 65.6146 14.7249 65.7445 24.705H71.8751C71.7451 11.0786 61.4379 0.0352211 48.7794 0.0352211C36.0453 0.0352211 25.6806 11.2139 25.6806 24.9594C25.6806 34.4356 30.6189 42.6773 37.8496 46.8879C39.1551 47.6332 41.0289 48.4012 41.6651 48.6116C43.7262 49.2737 46.2558 49.714 48.5074 49.8982C49.272 49.9602 51.9421 49.9928 52.7203 49.9961H94.9375V43.4063H52.7913C52.2307 43.4063 49.7812 43.3835 49.2327 43.3443ZM52.7913 32.9973C52.3456 32.9973 50.0139 32.981 49.5833 32.9419C48.8534 32.875 47.7956 32.7576 47.1156 32.5896C46.348 32.3678 45.6272 32.0743 45.3023 31.8819C43.0251 30.5528 41.4732 27.9534 41.4732 24.9594C41.4732 20.6037 44.7417 17.0715 48.7794 17.0715C52.7324 17.0715 55.9465 20.4651 56.075 24.705H61.9652C61.8413 16.959 55.9903 10.7165 48.7794 10.7165C41.4883 10.7165 35.5784 17.0927 35.5784 24.9594C35.5784 30.5072 38.525 35.2983 42.8166 37.6449C43.4769 38.0624 44.719 38.4994 45.0726 38.5989C46.2845 38.943 47.912 39.1778 49.2327 39.2822C49.7208 39.3262 52.1113 39.3458 52.6161 39.349V39.3588H94.936V32.9973H52.7913ZM21.9029 49.9716H15.7315V6.65764H6.71329V-0.00391388H21.9029V49.9716ZM-0.0625 9.98598V16.3915H6.71329V49.9716H12.6429V9.98598H-0.0625Z" fill="#D91920"/>
<path d="M84.0508 0.460824C81.8279 0.460824 79.9844 2.37368 79.9844 4.77412C79.9844 7.17456 81.8279 9.16406 84.0508 9.16406C86.3416 9.16406 88.1141 7.17456 88.1141 4.77412C88.1141 2.37368 86.3416 0.460824 84.0508 0.460824ZM84.0508 8.45632C82.2148 8.45632 80.6326 6.89897 80.6326 4.77412C80.6326 2.7569 82.2148 1.16041 84.0508 1.16041C85.8852 1.16041 87.4598 2.7569 87.4598 4.77412C87.4598 6.89897 85.8852 8.45632 84.0508 8.45632Z" fill="#D91920"/>
<path d="M85.585 5.95614C85.585 5.47181 85.5185 5.02173 85.0047 4.84398C85.6485 4.60263 85.7119 4.14765 85.7119 3.87206C85.7119 2.75826 84.775 2.61639 84.3897 2.61639H82.6172V6.92969H83.3561V5.16034H83.9379C84.775 5.16034 84.8446 5.57618 84.8446 5.95614C84.8446 6.6916 84.8446 6.83021 85.0047 6.92969H85.7452C85.585 6.7552 85.6485 6.61985 85.585 5.95614ZM84.228 4.53087H83.3561V3.17247H84.1026C84.6194 3.17247 84.97 3.34859 84.97 3.87206C84.97 4.14765 84.8446 4.53087 84.228 4.53087Z" fill="#D91920"/>
</g>
<defs>
<clipPath id="clip0_228_15037">
<rect width="95" height="50" fill="white"/>
</clipPath>
</defs>
</svg>
