<svg width="143" height="50" viewBox="0 0 143 50" fill="none" xmlns="http://www.w3.org/2000/svg">
<g clip-path="url(#clip0_228_15048)">
<path d="M0.382812 39.697V10.0689L24.7443 0.382812L37.9839 4.94099V44.8247L24.7443 49.1183L0.382812 39.697L24.7443 42.8509V8.35988L8.85608 12.3482V35.709L0.382812 39.697Z" fill="#EB3C00"/>
<path d="M63.9237 39.9058C60.0889 39.9058 57.0179 38.5464 54.7108 35.8275C52.4036 33.1086 51.25 29.5714 51.25 25.2155C51.25 20.5353 52.4255 16.802 54.7767 14.0157C57.1279 11.2292 60.3277 9.83594 64.3763 9.83594C68.1105 9.83597 71.1186 11.1886 73.4006 13.8939C75.6826 16.5993 76.8237 20.1365 76.8237 24.5058C76.8236 29.2537 75.6543 33.0074 73.3158 35.767C70.9771 38.5264 67.8465 39.9058 63.9237 39.9058ZM64.15 12.9195C61.3085 12.9195 59.0014 14.0219 57.2285 16.2268C55.4557 18.4316 54.5693 21.3264 54.5693 24.911C54.5693 28.4956 55.4337 31.3801 57.1625 33.5647C58.8913 35.7494 61.145 36.8416 63.9237 36.8416C66.8909 36.8416 69.2295 35.8 70.9394 33.7169C72.6494 31.6338 73.5043 28.7188 73.5043 24.9719C73.5043 21.1303 72.6745 18.1611 71.0149 16.0645C69.3552 13.9679 67.067 12.9196 64.15 12.9195Z" fill="#EB3C00"/>
<path d="M88.0967 8.211C86.349 8.21103 84.8968 8.85146 83.7274 10.1162C82.5582 11.381 81.9731 13.102 81.9731 15.2797V18.6449H78.6797V21.4937H81.9731V39.4233H85.0514V21.4937H92.5816V39.4233H95.6599V21.4937H100.178V18.6449H95.6599V15.4399C95.6599 12.5046 96.7412 11.042 98.9037 11.042C99.6707 11.0421 100.352 11.211 100.956 11.5762V8.58491C100.403 8.34145 99.6646 8.21103 98.7217 8.211C96.974 8.21103 95.5053 8.8514 94.336 10.1161C93.1667 11.3809 92.5816 13.1019 92.5816 15.2796V18.6448H85.0514V15.4399C85.0514 12.5046 86.1326 11.042 88.2952 11.042C89.0621 11.042 89.7439 11.2109 90.3474 11.5761V8.58485C89.7942 8.34139 89.0397 8.21103 88.0967 8.211Z" fill="#EB3C00"/>
<path d="M104.671 13.3609C104.118 13.3609 103.646 13.158 103.257 12.7522C102.867 12.3464 102.672 11.8324 102.672 11.2101C102.672 10.5879 102.867 10.0704 103.257 9.65791C103.646 9.24537 104.118 9.03908 104.671 9.03906C105.237 9.03908 105.718 9.24537 106.114 9.65791C106.51 10.0705 106.708 10.5879 106.708 11.2101C106.708 11.8053 106.51 12.3125 106.114 12.7318C105.718 13.1512 105.237 13.3609 104.671 13.3609ZM106.18 39.4133H103.087V18.6362H106.18V39.4133Z" fill="#EB3C00"/>
<path d="M123.758 38.4628C122.274 39.4232 120.514 39.9034 118.477 39.9034C115.723 39.9034 113.501 38.9396 111.81 37.012C110.119 35.0845 109.273 32.5854 109.273 29.5148C109.273 26.0925 110.185 23.3433 112.008 21.2668C113.831 19.1905 116.264 18.1523 119.307 18.1523C121.004 18.1524 122.5 18.4905 123.795 19.1669V22.5755C122.362 21.4935 120.828 20.9523 119.194 20.9523C117.22 20.9523 115.601 21.7132 114.337 23.235C113.074 24.7568 112.442 26.7554 112.442 29.2308C112.442 31.6656 113.036 33.5864 114.224 34.9932C115.412 36.4 117.006 37.1034 119.005 37.1033C120.69 37.1033 122.274 36.5014 123.758 35.2974L123.758 38.4628Z" fill="#EB3C00"/>
<path d="M142.662 29.8597H129.026C129.077 32.1728 129.655 33.9583 130.762 35.2162C131.868 36.4742 133.389 37.1032 135.326 37.1032C137.501 37.1032 139.5 36.3322 141.323 34.7901V37.9147C139.626 39.2403 137.381 39.9032 134.59 39.9032C131.862 39.9032 129.718 38.9597 128.159 37.0728C126.6 35.1858 125.82 32.5312 125.82 29.1089C125.82 25.876 126.672 23.2417 128.376 21.2059C130.079 19.1702 132.195 18.1523 134.722 18.1523C137.249 18.1524 139.204 19.0316 140.588 20.7901C141.971 22.5486 142.662 24.9901 142.662 28.1148L142.662 29.8597ZM139.494 27.0394C139.481 25.1187 139.05 23.624 138.202 22.5553C137.353 21.4867 136.174 20.9523 134.665 20.9523C133.207 20.9523 131.969 21.5137 130.95 22.6364C129.932 23.7592 129.303 25.2268 129.064 27.0394H139.494Z" fill="#EB3C00"/>
</g>
<defs>
<clipPath id="clip0_228_15048">
<rect width="143" height="50" fill="white"/>
</clipPath>
</defs>
</svg>
