<svg width="62" height="32" viewBox="0 0 62 32" fill="none" xmlns="http://www.w3.org/2000/svg">
<g clip-path="url(#clip0_229_15837)">
<path d="M0.328125 31.8034H31.164L61.4022 0.369141H0.328125V31.8034Z" fill="#014185"/>
<path fill-rule="evenodd" clip-rule="evenodd" d="M36.5338 6.27843L30.5579 6.27719V21.146L25.299 6.27719H20.1597L15.618 18.7122C15.1399 15.5798 12.0325 14.4972 9.52256 13.6867C7.96882 13.1423 6.17604 12.3418 6.29555 11.4667C6.29555 10.7408 7.13219 10.0746 8.92497 10.174C10.1202 10.2374 11.1958 10.3406 13.3472 11.4071L15.4985 7.61963C13.4667 6.5954 10.8373 5.9478 8.68593 5.94531C6.05652 5.94531 3.90518 6.80547 2.59047 8.23119C1.75384 9.2231 1.15625 10.4823 1.15625 11.8782C1.15625 13.7986 1.87336 15.1609 3.18807 16.2461C4.50277 17.1597 5.937 17.7551 7.37122 18.1914C9.04449 18.7296 10.3592 19.1957 10.3592 20.1951C10.3592 20.5642 10.2397 20.8999 10.0006 21.1696C9.52256 21.6158 8.92497 21.7849 7.96882 21.806C6.29555 21.8383 5.10037 21.5611 3.06855 20.3268L1.15625 24.1615C3.18807 25.3498 5.57844 26.0484 7.96882 26.0484L8.32737 26.0459C10.3592 26.0061 12.152 25.3784 13.4667 24.2373C13.5862 24.1702 13.5862 24.108 13.7057 24.0459L13.1081 25.7152H18.606L19.4426 22.8215C20.3988 23.1547 21.4744 23.3486 22.6696 23.3486C23.8648 23.3486 24.821 23.1609 25.7771 22.8451L26.7333 25.7152H35.5776V19.7128H37.6095C42.2707 19.7128 45.0196 17.2255 45.0196 13.054C45.0196 8.41018 42.3902 6.27843 36.5338 6.27843ZM22.6696 19.008C21.9525 19.008 21.3549 18.8787 20.7573 18.6525L22.6696 12.3977L24.5819 18.6724C23.9843 18.8862 23.3867 19.008 22.6696 19.008ZM36.8924 15.4108H35.5776V10.3679H36.8924C38.6851 10.3679 40.1194 10.9782 40.1194 12.8639C40.1194 14.8029 38.6851 15.4108 36.8924 15.4108Z" fill="white"/>
<path d="M38.6968 29.7924C38.6968 28.8316 39.4139 28.0995 40.2506 28.0995C41.0872 28.0995 41.8043 28.8316 41.8043 29.7924C41.8043 30.7893 41.0872 31.5078 40.2506 31.5078C39.4139 31.5078 38.6968 30.7893 38.6968 29.7924ZM40.2506 31.8484C41.3262 31.8484 42.2824 30.977 42.2824 29.7924C42.2824 28.6252 41.3262 27.7676 40.2506 27.7676C39.1749 27.7676 38.2188 28.6252 38.2188 29.7924C38.2188 30.977 39.1749 31.8484 40.2506 31.8484ZM39.892 29.9627H40.2506L40.8482 30.977H41.2067L40.6091 29.9428C40.8482 29.9006 41.2067 29.7178 41.2067 29.3002C41.2067 28.8316 40.8482 28.6252 40.3701 28.6252H39.5335V30.977H39.892V29.9627ZM39.892 29.6594V28.9248H40.3701C40.4896 28.9248 40.8482 28.982 40.8482 29.2791C40.8482 29.6358 40.4896 29.6594 40.2506 29.6594H39.892Z" fill="#014185"/>
</g>
<defs>
<clipPath id="clip0_229_15837">
<rect width="61.0741" height="31.4815" fill="white" transform="translate(0.335938 0.371094)"/>
</clipPath>
</defs>
</svg>
