<svg width="118" height="58" viewBox="0 0 118 58" fill="none" xmlns="http://www.w3.org/2000/svg">
<g clip-path="url(#clip0_228_12687)">
<path d="M61.2064 50.2839C58.9259 50.1307 56.2963 49.7278 54.2223 49.1225C53.8337 49.009 52.2252 48.4131 51.816 48.2239C44.5954 44.853 39.5652 37.4945 39.5652 28.9574C39.5652 17.2481 49.0175 7.71038 60.6433 7.71038C72.1659 7.71038 81.5544 17.0854 81.7158 28.6623H89.3306C89.1692 12.8557 76.3665 0.0453949 60.6433 0.0453949C44.8263 0.0453949 31.9523 13.0127 31.9523 28.9574C31.9523 39.9498 38.0861 49.5103 47.0673 54.3945C48.689 55.259 51.0164 56.15 51.8066 56.394C54.3668 57.162 57.5088 57.6727 60.3055 57.8865C61.2552 57.9584 64.5718 57.9962 65.5384 58H117.977V50.3558H65.6266C64.9303 50.3558 61.8877 50.3293 61.2064 50.2839ZM65.6266 38.2814C65.0729 38.2814 62.1768 38.2625 61.6418 38.2171C60.7353 38.1395 59.4214 38.0033 58.5768 37.8085C57.6233 37.5512 56.728 37.2107 56.3244 36.9875C53.4959 35.4458 51.5683 32.4305 51.5683 28.9574C51.5683 23.9048 55.6281 19.8075 60.6433 19.8075C65.5534 19.8075 69.5457 23.744 69.7052 28.6623H77.0216C76.8676 19.677 69.6001 12.4357 60.6433 12.4357C51.587 12.4357 44.2463 19.8321 44.2463 28.9574C44.2463 35.3928 47.9063 40.9505 53.2369 43.6726C54.0571 44.1569 55.5999 44.6638 56.0391 44.7792C57.5445 45.1784 59.5659 45.4508 61.2064 45.5718C61.8126 45.6229 64.782 45.6456 65.4089 45.6494V45.6607H117.975V38.2814H65.6266ZM27.2599 57.9716H19.5944V7.7274H8.3928V-7.62939e-06H27.2599V57.9716ZM-0.0234375 11.5883V19.0187H8.3928V57.9716H15.7579V11.5883H-0.0234375Z" fill="#D91920"/>
<path d="M104.441 0.537056C101.681 0.537056 99.3906 2.75597 99.3906 5.54048C99.3906 8.32499 101.681 10.6328 104.441 10.6328C107.287 10.6328 109.489 8.32499 109.489 5.54048C109.489 2.75597 107.287 0.537056 104.441 0.537056ZM104.441 9.81183C102.161 9.81183 100.196 8.00531 100.196 5.54048C100.196 3.2005 102.161 1.34858 104.441 1.34858C106.72 1.34858 108.676 3.2005 108.676 5.54048C108.676 8.00531 106.72 9.81183 104.441 9.81183Z" fill="#D91920"/>
<path d="M106.358 6.91756C106.358 6.35574 106.276 5.83364 105.637 5.62745C106.437 5.34749 106.516 4.81971 106.516 4.50002C106.516 3.20802 105.352 3.04345 104.874 3.04345H102.672V8.04688H103.59V5.99443H104.312C105.352 5.99443 105.438 6.4768 105.438 6.91756C105.438 7.77069 105.438 7.93148 105.637 8.04688H106.557C106.358 7.84447 106.437 7.68746 106.358 6.91756ZM104.673 5.26425H103.59V3.6885H104.517C105.159 3.6885 105.594 3.8928 105.594 4.50002C105.594 4.81971 105.438 5.26425 104.673 5.26425Z" fill="#D91920"/>
</g>
<defs>
<clipPath id="clip0_228_12687">
<rect width="118" height="58" fill="white"/>
</clipPath>
</defs>
</svg>
