<svg width="99" height="50" viewBox="0 0 99 50" fill="none" xmlns="http://www.w3.org/2000/svg">
<g clip-path="url(#clip0_228_13550)">
<path d="M51.3317 43.3482C49.4184 43.2161 47.2122 42.8688 45.4722 42.347C45.1462 42.2491 43.7966 41.7354 43.4534 41.5724C37.3954 38.6664 33.1751 32.3228 33.1751 24.9633C33.1751 14.869 41.1054 6.64687 50.8593 6.64687C60.5266 6.64687 68.4033 14.7288 68.5388 24.7089H74.9274C74.792 11.0825 64.0508 0.0391273 50.8593 0.0391273C37.5891 0.0391273 26.788 11.2178 26.788 24.9633C26.788 34.4395 31.9342 42.6813 39.4693 46.8918C40.8299 47.6371 42.7825 48.4051 43.4455 48.6155C45.5934 49.2776 48.2295 49.7179 50.5758 49.9022C51.3727 49.9641 54.1552 49.9967 54.9662 50H98.9609V43.4102H55.0402C54.456 43.4102 51.9033 43.3874 51.3317 43.3482ZM55.0402 33.0012C54.5757 33.0012 52.1459 32.9849 51.6971 32.9458C50.9365 32.8789 49.8341 32.7615 49.1255 32.5935C48.3256 32.3717 47.5744 32.0782 47.2359 31.8858C44.8627 30.5567 43.2455 27.9573 43.2455 24.9633C43.2455 20.6076 46.6516 17.0754 50.8593 17.0754C54.9788 17.0754 58.3282 20.469 58.4621 24.7089H64.6004C64.4712 16.9629 58.3739 10.7205 50.8593 10.7205C43.2612 10.7205 37.1025 17.0966 37.1025 24.9633C37.1025 30.5111 40.1732 35.3022 44.6454 37.6488C45.3336 38.0663 46.628 38.5033 46.9965 38.6028C48.2594 38.9469 49.9554 39.1817 51.3317 39.2861C51.8404 39.3301 54.3316 39.3497 54.8575 39.3529V39.3627H98.9594V33.0012H55.0402ZM22.8512 49.9755H16.42V6.66155H7.02202V-7.62939e-06H22.8512V49.9755ZM-0.0390625 9.98988V16.3954H7.02202V49.9755H13.2013V9.98988H-0.0390625Z" fill="#D91920"/>
<path d="M87.6126 0.46473C85.2962 0.46473 83.375 2.37758 83.375 4.77803C83.375 7.17847 85.2962 9.16797 87.6126 9.16797C89.9999 9.16797 91.847 7.17847 91.847 4.77803C91.847 2.37758 89.9999 0.46473 87.6126 0.46473ZM87.6126 8.46023C85.6993 8.46023 84.0506 6.90288 84.0506 4.77803C84.0506 2.76081 85.6993 1.16432 87.6126 1.16432C89.5243 1.16432 91.1652 2.76081 91.1652 4.77803C91.1652 6.90288 89.5243 8.46023 87.6126 8.46023Z" fill="#D91920"/>
<path d="M89.2178 5.96004C89.2178 5.47572 89.1485 5.02563 88.6131 4.84788C89.2839 4.60653 89.35 4.15156 89.35 3.87596C89.35 2.76217 88.3737 2.6203 87.9722 2.6203H86.125V6.93359H86.895V5.16425H87.5013C88.3737 5.16425 88.4461 5.58008 88.4461 5.96004C88.4461 6.69551 88.4461 6.83412 88.6131 6.93359H89.3847C89.2178 6.7591 89.2839 6.62375 89.2178 5.96004ZM87.8037 4.53478H86.895V3.17638H87.673C88.2115 3.17638 88.5769 3.3525 88.5769 3.87596C88.5769 4.15156 88.4461 4.53478 87.8037 4.53478Z" fill="#D91920"/>
</g>
<defs>
<clipPath id="clip0_228_13550">
<rect width="99" height="50" fill="white"/>
</clipPath>
</defs>
</svg>
