<svg xmlns="http://www.w3.org/2000/svg" width="794" height="528" fill="none"><path fill="#00344A" d="M836.046 183.086c20.745 16.027 21.067 16.347 32.967 33.175l.322.161c-18.012-22.758-18.816-23.56-33.128-33.176zm33.128 33.336 4.824 7.372h.161c-1.447-2.244-3.377-5.129-4.824-7.372zm-41.491-36.221c-13.669-2.884-34.414-.641-61.27 6.732h.321c33.289-8.014 35.219-8.495 61.271-6.732-.161.161-.161 0-.322 0m-72.688 10.738.321.161 11.257-4.007h-.321zm122.541 38.945c4.021 8.014 9.489 18.751 13.027 26.925h.16c-3.859-8.174-8.523-19.072-12.865-26.925zm-122.702-38.945-20.424 9.136c.161 0 .161 0 20.585-8.975zm-10.453 16.348c58.376 17.308 72.367 21.475 135.085 50.323-66.417-30.29-67.542-30.771-135.085-50.323"/><path fill="#00344A" d="m913.56 234.371 33.611 16.507.322.16 32.484 18.431-32.324-18.431-.321-.16zm-3.055 3.846 31.681 12.982.321.16 37.631 18.591-37.47-18.591-.322-.16zm-89.414-37.182c14.474 4.648 33.932 10.097 48.084 15.225l.322.161 43.742 17.789-43.903-17.789-.322-.161zm-20.263 9.135.322.161c20.424 4.006 47.601 9.295 67.864 14.584-20.423-4.808-47.601-11.219-68.186-14.745m0 .161-.321-.161c-17.208-1.923-40.204-4.808-57.573-5.93 0 0 .161 0 .161.161M713.827 177.636l.643.161c15.599 2.724 36.505 5.769 51.943 9.135h.322l38.596 9.616-38.435-9.616h-.322c-15.921-2.885-36.988-7.212-52.747-9.296m-20.907-2.564c6.111.801 14.474 1.763 20.746 2.564l-.644-.16-19.298-2.404zm81.856 23.559.321.161 3.538-.161h28.304c-1.126-.801-3.216-.16-4.664-.32zm-113.054-26.123 22.032 1.602c-.804 0-.804 0-22.032-1.602m-1.769.961 17.529 6.411.161-.16-17.368-6.411c-.161 0-.161 0-.322.16m79.282 28.368 35.702-3.045-.322-.161-35.54 3.045c0 .161 0 .161.16.161m-61.431-21.957c12.543 5.77 29.429 13.142 41.812 19.553-12.383-5.93-28.947-14.264-41.812-19.553M815.463 173.95l3.216.961c-1.126-.32-2.251-.641-3.216-.961q-.241 0 0 0m3.377 1.282c.643.16 1.608.481 2.251.641-.16 0-.16 0-2.412-.641 0-.16.161-.16.161 0m-161.459-24.681c11.096-.321 70.759-.641 156.313 22.918-61.914-15.065-110.803-26.925-203.754-21.636h.161m207.292 22.918c-59.502-15.866-99.867-11.219-135.408-7.212h.805c22.031-2.244 51.621-4.327 73.814-3.205 18.494.961 42.938 6.25 60.949 10.417zm-157.118-3.205 14.956-2.725c.161 0 .322-.16.322-.16-4.664.801-10.775 2.083-15.439 2.885zm-56.607-17.63c15.438 4.007 35.862 10.899 50.496 16.989-14.634-6.251-34.897-13.142-50.335-17.149.161.16 0 .16-.161.16"/><path fill="#00344A" d="M654.808 173.308c-2.412-.321-3.538-1.122-2.573-1.763 1.93-1.282 9.81-.481 9.488.961-.16.802-2.894 1.282-6.593.802-.161.16-.322 0-.322 0M591.287 154.717c-4.825 0-9.327-.32-8.523-1.282 2.251-2.083 26.856-3.205 27.66-1.122-.643 1.282-9.81 2.244-18.333 2.404z"/><path fill="#00344A" d="M882.044 373.002c16.403 49.683 16.403 49.683 25.57 79.653-16.404-53.049-16.404-53.049-25.409-79.653zm-17.529 54.33v.161l40.525 26.283zm-69.794-38.303h-.322c21.228 11.218 49.21 26.283 69.955 38.303v-.16m-128.01-66.19c24.927-.481 58.216-.481 83.142.481-24.926-.641-58.215-1.122-83.142-.481m-.16 1.923c17.368 7.693 40.686 17.629 57.733 25.963h.321c-17.368-8.013-40.365-18.751-58.054-26.123z" opacity=".302"/><path fill="#00344A" d="M859.369 270.914c-38.757 20.033-39.561 20.354-65.452 38.624 39.239-25.963 40.686-27.085 65.452-38.624m7.558 2.885c6.111 37.342 6.754 41.349 12.865 90.07-1.769-14.745-4.181-34.297-6.111-49.042-1.929-12.34-4.342-28.848-6.432-41.028 0 .16-.161 0-.322 0m-14.473 90.551.16.16 22.193 3.045v-.16c-6.754-.962-15.599-2.244-22.353-3.045m-11.579-1.282.321.32 11.258 1.282-.161-.16zm-.483 0-18.172-1.443.643.321 17.851 1.442zm-104.048-2.084c24.927-.481 58.216-.481 83.142.641l2.734.16-.643-.32c-25.57-.801-59.824-1.282-85.393-.641.16 0 .16.16.16.16" opacity=".302"/><path fill="#00344A" d="M728.141 252.481c68.829 3.205 72.849 3.365 127.687 13.462-65.773-11.219-68.186-11.699-127.687-13.462q0-.241 0 0m-20.907-.161.322.161 9.167-.161s0-.16-.161-.16c-2.895 0-6.594.16-9.328.16m-47.44 2.084-.161.16 47.601-2.083-.321-.161zm-.483 0-4.503.32.804.161 3.378-.321zm-7.237.801c.805 0 2.091-.16 2.895-.16l-.804-.16zm141.84 54.331.161.16c39.239-25.963 40.686-27.085 65.452-38.624l-.161-.161c-38.756 20.034-39.4 20.354-65.452 38.625m-146.182-49.362 2.413 2.404.16-.161-2.251-2.243c-.161-.161-.161-.161-.322 0m135.247 57.696 10.935-8.014-.161-.16-1.447.962-9.649 7.051c.161 0 .322.161.322.161m-132.674-55.292 25.088 26.444.161-.161-25.088-26.604zm25.249 26.764 7.88 9.135.16-.16-7.88-8.975zm98.741 34.938-17.529 14.264.321.16 17.369-14.263zm-90.701-25.642 21.067 25.963.322.16-21.389-26.284zm50.979 60.1 22.514-19.873-.321-.161-22.354 19.873s0 .161.161.161m-29.59-33.817 24.444 33.015h.161c-7.237-9.936-17.047-23.078-24.283-32.854z" opacity=".302"/><path fill="#00344A" d="m650.625 258.891 2.573.961.161-.16-2.573-.962zm2.895.961c14.151 5.77 33.128 13.142 46.958 19.553l.322-.16c-14.152-5.93-32.807-14.104-47.28-19.393m47.119 19.713 6.915 3.206.161-.161-6.755-3.205zm7.076 3.206c19.458 9.936 45.35 23.398 64.165 34.457-18.976-10.738-44.546-24.841-64.005-34.457zm144.734 81.736 8.523 8.814-8.201-8.654-.161-.16c-17.207-16.668-40.365-38.625-58.376-54.651l-.161-.161c-10.614-8.494-24.605-20.193-35.54-28.207 10.613 8.495 24.926 19.553 35.379 28.368l.161.16c17.851 16.027 41.169 37.663 58.215 54.491zm-11.739-1.282 16.403 12.5-16.082-12.34-.321-.321c-16.725-11.699-38.918-27.245-55.964-38.143 16.724 11.218 39.239 26.284 55.642 38.143zm32.806 23.559 3.699 4.006h.161c-1.126-1.282-2.573-2.884-3.86-4.006q.241 0 0 0m-1.286.801 4.342 3.526.16-.16a83 83 0 0 0-4.342-3.526zM648.695 218.503l.322.16 1.929-9.616h-.321c-.483 2.885-1.287 6.731-1.93 9.456m5.629-9.776c10.774 6.25 25.408 14.263 36.022 20.995l.161-.161c-10.775-6.25-24.926-15.065-36.023-20.995 0 .161 0 .161-.16.161m36.344 21.155 27.66 19.392h.161c-8.362-5.769-19.459-13.622-27.66-19.392zm35.219 25.162 21.388 17.469h.161c-6.433-5.289-14.795-12.18-21.228-17.469zm8.362 17.309 10.292 2.564v-.16c-3.055-.802-7.076-1.763-9.97-2.565-.161.161-.322.161-.322.161m-85.554-53.529c-1.93 9.776-4.503 22.757-6.111 32.534h.161c1.769-9.777 4.181-22.758 6.272-32.374zm7.719 38.464-.161.16c18.173 3.045 42.295 6.891 60.306 10.738l8.684 1.923c-20.745-4.007-48.084-9.616-68.829-12.821m-4.342-.321c1.126.16 2.573.321 3.699.481l.161-.16zc.161-.16 0-.16 0 0M677.643 179.72l.322.161 6.593-5.449h-.321c-1.93 1.442-4.664 3.686-6.594 5.288m0 .161-11.578 10.898h.321l11.579-10.898zm37.31 33.656-.161.16c57.733 10.578 95.846 17.629 164.193 45.035-125.436-47.118-163.711-45.355-164.032-45.195m-49.049-22.758-13.187 14.264h.161c4.02-4.328 9.327-9.937 13.187-14.264zm-9.649 16.507c17.529 1.763 40.847 3.687 58.376 6.251l.161-.16c-17.69-1.924-41.008-4.969-58.537-6.091" opacity=".302"/><path fill="#00344A" d="M677.645 179.882v-.161l.321.161h-.321"/><path fill="#00344A" d="m700.961 174.27 12.061 3.205.644.16zq.241 0 0 0m12.705 3.365 41.169 13.302h.16l-40.686-13.142zm41.329 13.463 19.459 7.532h.322zm19.781 7.692 25.569 11.219h.322l-25.73-11.379zm26.052 11.54c24.605 12.821 56.768 31.252 80.408 45.996-23.479-14.744-55.482-33.015-80.086-45.836z" opacity=".302"/><path fill="#00344A" d="M754.836 190.938h.161l.161.16h-.161zM774.614 198.632l.322.16h.321l-.321-.16z"/><path fill="#00344A" d="M729.587 363.869c-3.216-1.603-3.216-4.808-.161-5.93 3.377-1.122 8.363 1.763 6.755 4.808-.644 1.282-2.895 2.564-6.272 1.122zM775.42 324.921c-5.146-2.564-5.95-7.372-1.286-8.815 5.95-1.763 13.83 3.686 11.578 7.853-1.125 1.603-4.663 3.366-10.292.962M637.439 252.481c-.161 0-.161.16-.322.16 4.342.481 10.132 1.282 14.474 1.763-2.413-3.205-9.81-4.167-14.152-1.923m2.09 7.372c.483.16 1.126.32 1.609.32 7.719 1.283 12.865-2.404 10.613-5.769-4.502-.481-10.453-1.282-14.795-1.763-4.02 2.564-1.769 5.93 2.573 7.212M719.455 254.563c-3.538-1.442-4.181-4.006-1.447-5.128 4.181-1.763 11.418 1.282 9.97 4.167-.804 1.603-4.02 2.404-8.04 1.122-.161 0-.322-.161-.483-.161M649.02 208.729c-2.734-.641-3.538-2.084-1.769-3.045 2.894-1.603 9.488-.321 9.005 1.763-.321 1.282-3.698 1.923-6.754 1.442-.161-.16-.322-.16-.482-.16M748.723 280.528c-1.126-.48-4.824-2.564-4.342-5.609 1.287-4.487 12.544-3.366 15.599 1.603 2.252 3.686-2.251 6.41-8.362 5.128-1.126-.32-1.93-.641-2.252-.801-.321 0-.482-.16-.643-.321M675.716 168.501c1.769-.321 4.342-.641 6.111-.962-2.573.16-4.664.481-6.111.962m6.111 5.288c3.538.802 8.362.962 11.9 1.283 9.488-.161 9.81-2.244 8.684-3.366-.482-.481-3.216-2.725-13.508-3.846-4.664-.481-4.664-.481-13.509.961-2.734 1.443.161 3.206 3.538 4.327.643.161 1.93.481 2.895.641m10.935 1.283-9.005-.962c3.055.641 5.95.962 9.005.962" opacity=".302"/><path fill="#00344A" d="M683.597 174.272c-.161 0-.483-.161-.644-.161 3.217.321 7.559.802 10.775 1.122-.804 0-.804 0-9.971-.961zM675.392 168.661c.322-.16.322-.16 6.594-1.122h.804c-2.252.321-5.307.801-7.398 1.122q-.241 0 0 0M775.097 512.273l-.321.321h.482l.161-.161c-.161-.16-.322-.16-.322-.16m-155.509-8.013c67.06-2.404 72.528-2.564 122.22-.641-66.899-1.763-69.472-1.763-122.22.641m-1.447 3.526c14.312 11.539 33.61 27.085 47.762 38.945-14.313-11.7-33.289-27.406-47.762-38.945m101.796 79.172c34.415-48.241 35.862-50.164 54.999-74.204h-.482c-35.058 45.676-35.701 46.477-54.678 74.043 0 .161.161.161.161.161"/><path fill="#00344A" d="M665.905 546.732c14.152 12.18 33.289 28.367 47.28 40.708l-6.433-6.09c-45.511-39.105-53.712-46.157-88.449-73.723 14.313 11.699 33.45 27.085 47.602 39.105m-48.245 14.905c28.464 7.853 66.256 18.911 94.56 27.726-28.143-8.815-65.935-20.033-94.399-27.886-.161 0-.161 0-.161.16M443.335 502.338c22.353 52.247 22.353 52.247 44.867 101.93-20.906-45.997-20.906-45.997-44.867-101.93M277.212 635.039c44.546-42.311 86.519-82.377 155.026-135.586-48.727 38.945-87.162 69.556-155.026 135.586m.482 3.205c64.166-10.898 123.828-20.354 205.362-25.803-56.446 4.007-101.153 7.373-205.201 25.643-.161 0-.161 0-.161.16"/><path fill="#00344A" d="M443.336 502.338c22.514 52.407 22.514 52.407 44.868 101.929-21.228-47.278-21.228-47.278-44.707-101.929zm56.125 105.455c60.306-28.207 65.291-30.611 100.349-45.035-25.731 10.898-59.663 25.803-84.911 37.342l-15.599 7.533c.161 0 .161.16.161.16M608.812 503.938c-15.921-1.602-37.148-4.006-53.069-5.449 15.921 1.763 37.148 3.526 53.069 5.449m4.664 5.129-4.342 41.669h.16c1.287-12.5 3.056-29.168 4.503-41.669zm-163.068-11.86c50.818 17.79 84.429 29.489 149.398 58.177-56.929-24.841-64.165-28.047-118.039-47.759l-31.198-10.738c0 .16-.161.32-.161.32M686.49 394.797l20.906 23.239.16-.161-20.906-23.238c0 .16 0 .16-.16.16m21.227 23.559c9.649 11.219 22.514 26.124 32.003 37.663l-.161-.481c-9.488-11.219-21.871-26.284-31.681-37.182zm32.324 37.983c10.293 12.822 24.123 29.97 34.415 42.952-10.292-13.142-23.962-30.611-34.415-43.593zm9.649 47.6v.32l21.228 1.603v-.321c-6.433-.48-14.956-1.121-21.228-1.602m-7.88-.481.161.321 7.237.48v-.32zm-125.597-3.205c27.982-50.484 31.681-57.055 53.873-92.474-28.464 46.477-32.002 52.407-53.873 92.474m.322.16c27.982-50.484 31.519-57.055 53.712-92.314-28.947 47.279-32.002 52.247-53.712 92.314m3.055 3.846c67.221-2.404 72.689-2.564 122.22-.48l-.161-.321c-22.192-.641-51.782-1.282-73.814-1.282l-48.084 1.763c-.161.16-.161.32-.161.32"/><path fill="#00344A" d="m663.172 395.44.161.16 11.74-3.686-.161-.16c-3.377 1.122-8.202 2.564-11.74 3.686m7.076 12.02.161.321 8.363-12.982s-.161 0-.161-.16c-2.573 4.006-5.79 8.975-8.363 12.821m-53.712 92.955c27.499-49.683 31.681-57.215 53.712-92.314l-.16-.32c-28.465 46.477-32.003 52.407-53.874 92.474.161.16.161.16.322.16M449.93 488.074c59.824-32.053 107.104-57.215 213.082-92.313l-.161-.161c-100.028 34.137-142.805 53.85-213.081 92.314.16 0 .16.16.16.16m1.769 5.61c64.166 1.442 64.166 1.442 104.048 4.808 15.921 1.602 37.149 3.526 53.07 5.449-47.924-5.289-93.274-10.257-157.118-10.418zM313.716 483.586c14.795.641 34.576 1.282 49.371 2.084zm-40.364 149.369c3.216-54.972 3.859-66.351 9.005-124.688-4.02 47.599-5.467 63.626-9.005 124.688m3.698 2.083c44.707-42.47 87.002-82.537 155.027-135.586-53.713 42.471-73.815 58.338-146.664 127.092l-8.523 8.174c.16.16.16.32.16.32M557.353 308.895l.161.16 12.061-15.225h-.322c-3.538 4.487-8.362 10.578-11.9 15.065m-79.604-1.282c19.78-4.327 46.154-10.097 66.095-13.623-19.941 3.847-46.475 8.975-66.095 13.623m-.161.16c19.781-4.327 46.315-10.097 66.256-13.623-19.941 3.847-46.475 8.975-66.256 13.623m-52.104 14.104c17.368-3.687 36.183-10.418 51.783-14.264-15.439 4.167-36.345 9.616-51.783 14.264m.161.16c15.438-4.327 36.022-10.417 51.782-14.264-15.599 4.327-36.505 9.616-51.782 14.264m93.112 40.547c11.418-16.187 26.696-37.502 38.596-53.208l-.161-.16c-11.739 15.866-27.339 37.181-38.596 53.368-.161-.16 0 0 .161 0m-7.397 10.258-22.354 34.777h.322l22.353-34.777c0 .16-.161.16-.321 0 .16.16.16 0 0 0m-22.354 35.098c-13.669 22.918-31.681 53.689-44.707 76.928 13.187-23.239 31.199-54.01 45.029-76.928z"/><path fill="#00344A" d="m243.926 436.629.161 1.603s.16 0 .16-.161c0-.48-.16-1.121-.16-1.602 0 .16-.161.16-.161.16m.321 2.404.322 2.244.322-.161-.322-2.243c-.161.16-.322.16-.322.16m.322 2.564 2.734 19.873.322-.16-2.734-19.873zm38.435 59.94 1.287-11.86h-.322c-.322 3.526-.804 8.334-.965 11.86q-.242 0 0 0m-35.701-39.906c1.769 13.302 4.181 31.091 5.95 44.394h.322c-1.769-13.303-4.181-31.092-5.95-44.394zm27.017 148.567-1.287 22.758c3.538-57.856 4.825-74.845 9.167-124.688-4.503 50.645-5.468 61.222-7.88 101.93m-20.906-104.013c6.915 50.163 11.257 80.614 18.655 127.092-10.775-72.281-12.866-86.545-18.333-127.092zM260.645 418.679v.161c14.473-11.86 33.61-27.887 48.405-39.426-14.634 11.7-34.253 27.245-48.405 39.265m39.4 2.725c3.377-12.501 7.88-29.169 11.418-41.509zm11.257-41.669c-3.538 12.5-8.202 29.168-11.418 41.669 3.377-12.501 7.88-29.169 11.418-41.669m-61.271 48.24L260.484 419v-.16zm-2.895 2.564c.643-.481 1.287-1.122 1.93-1.602l-.161-.161c-.482.481-1.286 1.122-1.769 1.763q0-.24 0 0m-1.769 5.129.965 1.122.161-.161c-.322-.32-.643-.801-.965-1.122 0 .161 0 .161-.161.161m1.608 1.763 2.091 2.243.322-.16-2.091-2.244c-.161 0-.322 0-.322.161m2.091 2.404 12.061 14.103.322-.16-12.061-14.104zm14.313 16.667 8.844 11.059-.16-.641-10.614-13.142-.322.16zm22.675 20.995c3.055-12.34 6.915-28.848 9.97-41.188-3.055 12.18-7.076 28.688-9.97 41.188m-13.509-9.455 8.845 11.379.161-.161c-2.734-3.525-6.433-8.333-9.167-11.859z"/><path fill="#00344A" d="M314.362 378.451c8.845 6.731 20.745 15.386 29.269 22.438-8.684-6.892-20.263-16.027-29.269-22.438m-3.055 1.282c-3.538 12.501-8.202 29.169-11.418 41.67l.321-.161c3.378-12.5 7.88-29.168 11.418-41.509zm-11.579 41.83-3.699 14.264.322-.161 3.699-14.263zm-3.699 14.584c-3.055 12.341-7.076 28.848-9.97 41.189l4.181-16.988 5.95-24.361zm17.69 47.439-.322.161c58.377 2.243 60.628 2.404 117.718 8.814-20.263-2.243-47.441-5.289-67.865-6.891m-69.794-2.244-.161.16 19.62.161.321-.161zm-2.251.16h1.929l.161-.16h-1.929z"/><path fill="#00344A" d="M423.875 399.447h.322c-2.412-14.585-5.79-34.137-8.202-48.882l-2.734-15.706 4.021 24.521c1.929 12.18 4.663 28.047 6.593 40.067m-109.516-20.995c8.845 6.731 20.746 15.385 29.269 22.437l.161-.16c-8.684-6.731-20.263-16.027-29.269-22.438zm29.43 22.597 6.272 5.289.321-.16-6.432-5.449zm80.086-1.282 2.895 17.149.321-.16-2.733-16.989zm-71.724 8.334 1.447 1.282.322-.16-3.216-2.725-.322.161zm1.608 1.282c9.81 8.815 22.836 20.675 32.324 29.65l.322-.161c-9.649-8.975-22.514-20.995-32.324-29.649zm73.011 7.853c3.377 20.514 7.88 47.92 11.418 68.434-3.377-20.514-7.719-47.92-11.097-68.594zm-40.526 22.117c14.474 14.424 33.611 33.816 47.763 48.561-14.152-14.745-32.968-34.297-47.602-48.721zM364.857 272.835l5.146-8.494h-.322c-1.447 2.404-3.538 5.769-4.824 8.494-.161 0-.161-.161 0 0m-5.629 9.295v.321l2.091-3.526c-.161 0-.322 0-.322.16-.643.801-1.608 1.923-1.769 3.045m13.187-18.751c5.951 7.853 13.67 18.27 18.977 26.444-5.468-8.013-12.866-18.912-18.977-26.444m-13.508 19.072c-4.986 9.295-11.901 21.636-16.725 30.931l.322-.16c4.985-9.135 11.417-21.476 16.564-30.451zm48.727 36.38c-4.824-8.654-11.096-20.354-16.242-28.848 4.985 8.655 11.739 20.034 16.242 28.848m-16.403-28.687c4.985 8.654 11.579 20.033 16.242 28.848-4.824-8.815-11.096-20.354-16.242-28.848m-21.067 55.612v.16l27.821-13.302v-.16c-8.362 4.007-19.459 9.295-27.821 13.302m-54.195 22.438.161.16c7.719-16.508 18.011-38.464 26.213-54.651l-.322.16c-7.88 16.027-18.494 37.823-26.052 54.331m6.593 2.724h.161c14.152-7.532 32.967-17.79 47.28-25.002v-.16l-19.298 9.937zm-6.593-2.564-2.412 5.289h.16c.644-1.603 1.609-3.687 2.252-5.289m.161 6.25 6.272-3.526h-.161z"/><path fill="#00344A" d="M374.666 261.776c48.566-1.282 50.496-1.282 81.212 1.923-50.496-3.526-52.426-3.686-81.212-1.923m169.339 32.214 17.529-2.565-.161-.16c-5.146.801-12.061 1.923-17.368 2.725M383.35 278.123l7.88 11.86.322-.16c-5.468-8.014-12.866-18.912-18.977-26.444 0 0-.161.16-.321.16 3.216 4.327 7.88 10.097 11.096 14.584m94.399 29.489v.161c19.78-4.328 46.315-10.097 66.256-13.623l-.161-.16c-19.941 3.846-46.475 8.974-66.095 13.622m-86.519-17.469c4.985 8.655 11.579 20.034 16.242 28.848h.161c-4.824-8.654-10.935-20.354-16.081-28.848zm34.415 31.893c15.438-4.327 36.183-10.257 51.782-14.263v-.161c-15.599 4.167-36.505 9.616-51.782 14.424-.161 0-.161-.16 0 0"/><path fill="#00344A" d="m467.618 210.972 36.827-15.065zm47.601-15.706c4.986 5.93 11.901 13.943 16.564 20.193l.161-.16c-4.824-6.09-11.096-14.424-16.403-20.194-.161.161-.161.161-.322.161m-78.478 30.29h.161l30.555-14.424-.161-.16zm95.042-9.776c6.111 9.456 14.152 22.277 19.781 32.053h.321c-5.789-9.776-13.508-22.758-19.941-32.213zm-156.956 44.073c18.333-10.577 43.099-24.36 61.914-34.137h-.161c-18.654 9.937-43.581 23.399-61.753 34.137m-.161 1.924c48.566-1.283 50.496-1.283 81.212 1.923l.322-.161c-14.635-1.121-33.932-2.724-48.567-3.045zm81.534 2.083 20.423 2.725.161-.161-20.263-2.724zm20.584 2.725 13.83 2.243v-.16l-13.669-2.244zm74.78-18.752c5.467 10.578 12.704 24.681 17.85 35.419h.161c-5.307-10.738-12.061-25.001-17.69-35.419zm-60.628 21.156 36.505 7.853-.321-.321-36.184-7.693zm36.988 8.013 33.932 9.456.161-.161c-10.292-2.884-23.962-6.731-34.254-9.616zM733.444 406.336c32.163 21.636 72.046 48.401 118.843 87.345-31.359-25.161-70.437-56.414-118.843-87.345m43.581 29.649c52.426 38.945 52.426 38.945 78.639 60.742-50.657-40.869-51.622-41.67-78.639-60.742m11.257 74.524c19.942-2.564 46.637-5.769 66.578-7.372-19.941 1.763-46.636 4.327-66.578 7.052zm-31.198 5.61 17.529-3.206h.483l.804-.16c-.322-.16-.322-.16-.644-.16h-.482l-17.851 3.366s.161 0 .161.16M749.368 504.261l1.608 8.174-1.447-8.174v-.32c-2.895-14.264-6.755-33.336-9.649-47.6l-.161-.48-5.95-28.688-4.021-19.393c2.895 14.264 6.594 33.336 9.488 47.6l.161.481c2.895 14.424 6.754 33.656 9.81 48.08zm-7.559-.481 7.076 9.296-6.915-9.135-.161-.321c-15.116-18.911-35.218-44.073-50.657-62.664 15.278 18.751 35.38 43.753 50.336 62.504zM608.652 312.903l1.609 2.084h.321c-.482-.641-1.126-1.443-1.608-2.084-.161-.16-.161-.16-.322 0m2.413 3.206 1.608 2.083.321-.16-1.447-2.084c-.322.161-.322.161-.482.161m1.769 2.404 15.277 21.796.161-.16-15.278-21.636zm27.177 12.34c48.406 36.541 50.336 37.983 85.233 69.235-44.546-38.784-50.335-43.913-85.233-69.235m52.105 98.725 15.599-11.219.161-.16 8.041-5.61 9.327-6.41s-.161 0-.161-.161c-5.307 3.526-12.222 8.334-17.529 11.86l-.161.16-15.599 11.219zm-21.871-21.476 10.935 19.232-10.774-19.392-.161-.321-6.915-11.86-.161-.16c-10.292-16.668-24.122-38.945-34.897-55.292l-.161.16c10.614 16.508 24.605 38.464 34.736 55.132l.161.16 7.076 12.02z"/><path fill="#00344A" d="M733.606 402.171c64.005-14.745 66.417-15.386 120.612-20.995-18.011 2.083-41.973 4.648-59.823 7.532h-.322c-18.333 4.007-42.456 8.975-60.467 13.463m130.583 25.322c-.483 20.354-1.126 47.439-1.448 67.793.483-20.194 1.126-47.279 1.769-67.633v-.16c.322-12.02.804-27.887 1.287-39.907-.483 11.86-1.287 27.727-1.608 39.747zm-87.163 8.494c52.426 38.945 52.427 38.945 78.64 60.741l-3.378-3.045c-31.359-25.162-70.437-56.414-118.843-87.345 13.026 8.814 30.716 20.354 43.581 29.649"/><path fill="#00344A" d="m660.116 315.466-.161.16 45.029 9.295.321.161c15.439 4.167 36.023 9.135 51.301 13.783l.321.16c19.459 6.571 45.511 15.225 64.648 22.598l.644.32 34.575 14.745-33.932-14.745-.643-.32c-19.459-7.052-45.351-16.508-65.131-22.758l-.322-.161c-15.438-4.167-36.022-10.096-51.782-13.943l-.322-.16zm-31.359-5.129-.322.16 31.038 4.969.16-.161zm-9.167-.961 8.524 1.121.321-.16-8.684-1.122c-.161 0-.161 0-.161.161m-5.628-.802c1.125.16 2.412.321 3.538.481v-.16c-.965-.161-2.413-.321-3.538-.321m-2.573 3.206 2.573 1.602s.161 0 .161-.16c-.805-.481-1.769-1.122-2.574-1.603 0 0-.16 0-.16.161m4.02 2.564 2.252 1.442.16-.16-2.251-1.442s-.161 0-.161.16m2.412 1.602 21.871 14.905.161-.16-21.71-14.905zm115.788 86.384 19.298-4.808 41.33-8.494h.321c18.816-2.564 44.064-6.09 63.04-7.853h-3.538c-60.788 6.892-63.201 7.212-120.612 20.995zm-77.353-59.298c21.067 16.667 48.567 39.586 68.83 57.215-46.637-40.868-49.371-43.432-85.072-69.396l-.161.161zM618.466 184.848c14.312 1.763 33.289 3.686 47.44 5.93h.322c15.117 3.045 35.38 6.57 50.335 10.257-15.116-3.045-35.057-7.853-50.335-10.418h-.322c-14.151-1.602-33.128-4.487-47.44-5.769m-6.272 17.789.321.161 1.287-16.668h-.161c-.482 4.968-.965 11.539-1.447 16.507m69.472 33.656.161.161 8.684-6.571.161-.161 24.122-16.187.161-.16 8.363-4.968h-.161c-2.573 1.442-5.95 3.526-8.523 4.968l-.161.16-23.962 16.027-.161.16zm-22.514 18.431-.804.641h.322l.804-.641.16-.16 22.032-17.95-.16-.16-22.193 18.11zm-46.958-51.926c-1.126 14.103-2.573 32.854-3.699 47.118h.322c1.125-14.103 2.573-32.855 3.698-46.958zm.321 96.641c11.258-11.219 26.213-26.124 37.953-36.702l.161-.16 2.895-2.564.16-.16 2.573-2.244.161-.16 2.091-1.924h-.322l-2.09 1.924-.161.16-2.412 2.244-.161.16-2.895 2.564-.161.16c-11.418 10.899-26.856 25.483-37.952 36.862 0-.16 0-.16.16-.16m-4.02-49.363a2409 2409 0 0 0-3.216 48.08h.161c.964-14.424 2.251-33.656 3.377-48.08zm1.126 52.408 1.93-1.924c-.161 0-.161 0-.322-.16-.483.641-1.287 1.282-1.769 1.923 0 0 0 .161.161.161m-4.503-3.045-.161 2.243h.322c0-.641.161-1.602.161-2.243zM369.037 261.294q-.242 0 0 0c1.769-.32 4.342-.801 6.272-1.282-1.126-.801-4.181 0-6.272 1.282m.161 3.045h.322c1.929-.32 4.181-1.442 5.307-2.564.643-.641.643-1.122.482-1.442-1.93.32-4.664.961-6.593 1.282-2.252 1.603-1.93 2.724-.644 2.885.322-.161.644-.161 1.126-.161M308.894 376.366l6.111 1.283.322-.321c1.93-2.724.161-3.846-1.93-3.686-.322.16-2.734.641-4.503 2.724m1.608 3.526h.322c1.447-.16 3.055-.801 4.181-1.923-1.769-.32-4.342-.961-6.111-1.282-1.447 2.244.161 3.205 1.608 3.205M565.553 293.35c-1.769-.481-3.056-1.122-4.021-2.244-3.377-4.648 4.021-8.815 11.097-7.693 5.95.962 7.88 5.289 3.698 8.334-1.929 1.282-5.628 2.725-10.131 1.923-.161-.16-.483-.16-.643-.32M438.831 497.849c-3.699-1.282-3.699-5.77 0-7.693 1.929-.961 3.538-.641 4.181-.641 4.503 1.282 4.181 5.93.482 7.853-1.447.802-3.216.962-4.663.481m-2.252 4.488c.483.16.965.32 1.447.32 6.272.801 10.614-2.564 12.544-5.77 4.021-7.372-3.216-14.263-12.061-11.539-8.523 2.725-10.614 12.822-3.377 16.347.321.321.965.481 1.447.642"/><path fill="#00344A" d="M438.831 497.851c-3.699-1.282-3.699-5.769 0-7.693 3.859-2.083 8.201.321 7.236 4.007-.482 1.923-3.055 4.488-6.754 3.686q-.241.24-.482 0M281.555 489.676c-4.824-.962-4.663-7.373.322-10.738 5.628-3.686 10.614-.962 9.488 3.846-.482 2.564-3.055 5.77-7.237 6.731-.965.161-1.608.161-2.09.161q-.241.24-.483 0M241.512 437.109c-2.573-.16-2.894-2.884-.321-5.288 2.894-2.725 6.754-2.725 6.593.16-.161 2.083-2.895 4.968-5.789 5.128z"/><path fill="#00344A" d="M240.385 439.034c-4.02-.161-4.342-4.488-.482-8.014 4.181-4.006 9.809-4.167 9.97-.16.161 2.564-2.412 5.77-5.789 7.372-.483.321-1.93.962-3.699.802m-.482.961h.643c6.593-.48 13.187-8.814 9.327-12.02-3.859-3.526-13.991 2.885-13.83 8.815.161 1.923 1.608 3.205 3.86 3.205M612.836 506.985c-2.412-1.122-2.412-3.847 0-4.808 1.126-.481 2.091-.161 2.573 0 2.734 1.122 2.573 4.006.322 4.968-.965.16-2.091.16-2.895-.16m-1.125 1.602c.16 0 .482.161.643.161.321.16.804.16 1.447.32 2.895.161 4.342-1.282 4.342-1.282.643-.641 1.769-1.923 1.447-3.846-.643-2.565-2.894-3.366-3.055-3.526a6.25 6.25 0 0 0-4.824-.16c-.483.16-1.287.641-1.93 1.442-.804.962-.965 1.923-.965 2.244-.161 2.404 1.447 4.006 2.895 4.647"/><path fill="#00344A" d="M612.835 506.986c-2.413-1.122-2.413-3.846 0-4.808 2.573-.961 5.306 1.122 4.502 3.366-.321.961-1.929 2.243-4.181 1.602-.161-.16-.321-.16-.321-.16M401.039 335.019c.161 0 .322.16.482.16.804-.802 1.93-1.923 2.734-2.885-5.628-2.564-1.769-8.815 4.986-11.379 1.447-.641 4.502-1.442 7.558-.962.804-.801 1.93-1.923 2.895-2.724-5.307-.962-10.132.801-11.901 1.603-10.453 4.327-13.991 12.981-6.754 16.187m4.181.961h1.448c11.257-.32 20.262-8.174 18.815-14.103-.804-3.045-3.699-4.007-5.629-4.648-.804.801-1.929 1.923-2.894 2.724 6.272 1.443 4.985 7.212-.643 10.578-2.895 1.763-7.88 3.366-12.062 1.763-.804.801-1.93 1.923-2.734 2.885.804.32 1.93.641 3.699.801"/><path fill="#00344A" d="M403.934 332.294s.161.16.322.16c3.698-3.686 8.844-8.654 12.543-12.341-8.041-1.282-17.69 5.77-14.634 10.578.322.641.965 1.122 1.769 1.603m3.216.641h1.448c9.327-.641 15.438-8.013 11.578-11.7-.965-.961-2.412-1.282-3.055-1.442-3.699 3.686-8.845 8.654-12.544 12.341.322.48 1.126.801 2.573.801M776.382 513.075c-6.916-3.686-7.398-12.181-.805-14.104 7.88-2.404 15.439 6.09 12.705 11.7-1.608 3.045-5.95 5.128-11.9 2.404M679.25 393.357c-3.859-1.923-4.02-6.09-.321-7.532 2.412-.802 4.502-.161 5.146.16 4.663 2.083 4.503 6.25.804 7.693-1.608.641-3.86.48-5.629-.321m-.321 1.603.804.32c7.076 1.924 11.9-2.884 9.166-7.372-3.216-5.449-13.508-5.129-14.634.481-.483 2.564 1.447 5.289 4.664 6.571M508.625 370.92l13.187-7.052c-5.468-4.167-14.313-.16-13.991 4.808 0 .962.161 1.603.804 2.244m3.86 2.243c.321 0 .643.161.804.161 7.558.641 12.222-4.969 9.005-8.815l-.482-.481c-4.02 2.084-9.166 4.969-13.187 7.052.483.481 1.608 1.603 3.86 2.083"/><path fill="#00344A" d="M679.25 393.357c-3.86-1.924-4.02-6.091-.322-7.533 4.664-1.763 10.132 2.083 8.363 5.77-.804 1.442-3.377 3.365-7.559 1.923-.16 0-.321-.16-.482-.16M510.718 193.985c-2.573 0-3.538-.641-2.573-1.763.965-.962 3.859-1.923 6.915-2.083s3.86.801 3.216 1.602c-.965 1.122-4.663 2.244-7.558 2.244m-2.412 2.244h1.447c8.362-.641 14.313-4.007 12.383-5.93-2.895-2.885-18.976.32-19.298 4.006 0 1.122 2.091 1.924 5.468 1.924M611.548 185.971c-2.251-.321-3.377-1.122-2.412-1.924 1.93-1.602 9.488-1.282 9.327.481 0 1.122-3.377 1.923-6.593 1.603 0-.16-.161-.16-.322-.16M598.844 314.665c-8.524-2.724-9.649-9.936-2.091-13.622 9.488-4.648 23.318.641 20.906 8.013-.804 2.564-3.538 4.648-7.397 5.77-4.021 1.122-7.88 1.122-11.418-.161m-1.126 1.283c.482.16 1.126.32 1.608.48 12.383 2.885 24.283-4.487 19.459-12.18-5.79-9.135-27.178-7.533-29.108 2.244-.643 3.846 2.573 7.532 8.041 9.456"/><path fill="#00344A" d="M600.456 312.743c-6.111-1.923-6.915-7.212-1.608-9.776 6.915-3.365 16.885.481 15.116 5.77-1.286 3.686-7.236 5.609-12.704 4.327-.322-.16-.483-.321-.804-.321M510.715 193.983c-2.573 0-3.537-.641-2.573-1.763 2.252-2.083 10.293-2.885 10.293-1.122 0 1.122-3.538 2.564-7.398 2.725 0 .16-.161.16-.322.16M726.694 406.979c-.643-.321-1.126-.642-1.287-.802-2.251-1.923-2.251-4.648 0-6.09 3.217-1.603 6.915-.16 8.363 2.244 2.09 4.006-2.573 5.609-3.699 5.289-1.126 0-2.091-.161-3.056-.641-.321.16-.321 0-.321 0M724.763 208.888c-8.041-2.404-11.258-6.571-6.916-8.815 7.559-4.006 28.143 1.603 26.374 7.212-.965 3.526-10.453 4.167-19.298 1.603 0 .16 0 .16-.16 0M681.02 440.794c-6.432-3.206-7.397-11.059.161-13.623 7.076-2.404 16.403 4.167 12.865 10.738-1.93 3.686-7.397 5.128-12.383 3.205-.16 0-.482-.16-.643-.32M749.849 520.769c-4.02-2.244-3.86-7.212.322-8.173 4.663-1.122 9.005 3.686 6.593 7.212-1.126 1.602-3.699 2.564-6.593 1.121-.161 0-.322-.16-.322-.16"/><path fill="#00344A" d="M400.555 194.466c53.873-15.866 59.502-17.469 104.048-24.2-55.804 9.616-61.593 10.738-104.048 24.2m105.013-23.079c-15.439 6.091-36.023 14.104-51.14 20.995zm.643-.16c-15.599 6.09-36.345 14.264-51.622 21.155zM515.22 169.941c13.991 3.687 32.485 10.097 45.672 15.867h.161c-13.348-5.77-31.681-12.18-45.672-15.867zm-59.341 24.361c24.605-2.885 57.572-5.77 82.177-6.731-24.766 1.122-57.572 3.686-82.177 6.731M299.242 244.788l.321-.16c52.426-29.329 55.482-31.092 91.665-46.638-55.642 25.483-57.893 26.444-91.986 46.798m-.644.321c.161 0 .322-.161.483-.321zm45.19-15.386c16.081-3.526 37.631-7.693 54.034-9.616-16.403 2.404-38.114 5.93-54.034 9.616M398.305 195.587c13.348-1.282 31.36-1.603 44.868-.641 0 0 .161 0 .161-.16-13.509-.962-31.52-.641-44.868.641 0 .16-.161.16-.161.16m-2.09.962c3.699 8.173 3.699 8.173 5.146 21.956h.161c-1.769-15.385-2.091-16.988-4.986-21.956-.16-.161-.321 0-.321 0M552.044 247.834c16.886.481 39.561.962 56.447 2.083-16.886-.641-39.561-1.923-56.447-2.083" opacity=".302"/><path fill="#00344A" d="m654.165 254.883.804.161-.965-.161zM636.795 252.641l14.795 1.923z" opacity=".514"/><path fill="#00344A" d="M658.506 255.525c19.941 3.526 46.476 7.853 66.256 12.181-19.78-3.847-46.315-9.136-66.256-12.181M503.158 243.988c8.523-8.655 19.62-20.194 28.465-28.528-8.524 8.655-20.263 19.873-28.465 28.528" opacity=".302"/><path fill="#00344A" d="m531.621 215.622.322-.321z"/><path fill="#00344A" d="m681.664 236.613 25.087 15.707h.322l-25.409-15.867zm25.409 15.867 19.941 13.943h.161c-5.95-4.167-13.83-9.616-19.78-13.783z" opacity=".302"/><path fill="#00344A" d="M706.91 252.32h.322l.321.161h-.482z" opacity=".514"/><path fill="#00344A" d="M612.514 202.959c10.774 4.808 25.569 10.578 36.183 15.867v-.161c-10.774-4.808-25.087-11.539-36.183-15.866zm36.344 15.867 32.646 17.469.161-.161-32.646-17.629z" opacity=".302"/><path fill="#00344A" d="M648.695 218.827v-.321l.322.161-.161.16z" opacity=".514"/><path fill="#00344A" d="M571.021 189.496s21.55 5.77 41.169 13.142v.16c-12.382-4.167-28.625-9.936-41.169-13.302" opacity=".302"/><path fill="#00344A" d="m612.191 202.797.322.16v-.16l-.322-.16zm69.312 33.656.161.16.161-.16-.161-.16z"/><path fill="#00344A" d="m536.606 211.131-4.663 4.327zm-4.663 4.167.16.16c8.685-7.532 20.102-17.629 29.108-24.681m-57.894 53.369c8.524-8.494 19.62-20.193 28.465-28.367l-.161-.16c-8.523 8.494-20.263 19.713-28.464 28.527z" opacity=".302"/><path fill="#00344A" d="m531.621 215.622.322-.321v.321l-.161.161z"/><path fill="#00344A" d="M450.248 197.188c5.307 4.006 12.543 9.295 17.368 13.782-4.985-4.327-11.74-10.257-17.368-13.782M538.056 187.572c-24.766 1.122-57.733 3.686-82.177 6.731l26.213-3.525c22.353-1.603 52.426-3.045 74.94-3.206l-.161.161zM436.742 225.717c16.564 5.289 38.274 13.623 54.195 20.674-15.921-7.051-37.631-15.546-54.195-20.674" opacity=".302"/><path fill="#00344A" d="m436.738 225.717-.16-.16z"/><path fill="#00344A" d="M450.087 197.19c5.307 4.006 12.544 9.295 17.368 13.783l.322-.161c-5.146-4.167-11.74-10.097-17.368-13.783-.161.161-.322.161-.322.161m34.897 33.976 9.489 13.463h.16c-7.236-10.097-17.529-23.239-25.73-32.535l-1.287-1.282-.321.161c5.628 6.09 13.026 13.782 17.689 20.193m-35.701-2.083c12.705 4.808 29.59 11.379 41.812 17.148-12.382-5.609-28.947-12.821-41.812-17.148" opacity=".302"/><path fill="#00344A" d="M467.459 210.973h.322l-.322.16z"/><path fill="#00344A" d="M405.381 217.542c10.453-5.609 24.444-12.981 34.897-18.591h.161c-10.453 5.61-24.444 13.142-35.058 18.591M296.99 247.034l13.991-6.09.161-.16zc.161-.16 0-.16 0 0m19.298-8.173 26.856-8.815h-.482zm27.5-9.136c16.081-3.525 37.631-7.692 54.034-9.616l-29.108 3.847-25.409 5.93zm-53.713 21.636c-2.895 2.885-4.664 8.334-6.593 12.181l.321-.321c1.93-3.526 4.342-8.494 6.433-12.02zm-6.593 12.181c-1.93 4.327-4.503 9.936-6.433 14.263l.322-.16c1.93-4.327 4.342-10.097 6.432-14.424zm-6.433 14.424-4.342 11.058c.161-.16.161-.16 4.664-11.058zM375.307 260.175c56.608-8.654 59.985-9.295 111.768-10.417-59.985 1.923-62.397 1.923-111.768 10.417m-11.418 2.244 4.664-.801c.161 0 .161-.161.322-.161-1.448.161-3.377.641-4.986.962m-86.197 25.322 14.634-9.456.161-.16zm59.341-18.911h.161l26.374-6.411v-.16zm-49.37 16.187c14.634-4.969 34.254-11.7 49.209-16.027h-.16m-59.181 20.193 9.81-3.846.161-.16z" opacity=".302"/><path fill="#00344A" d="M368.717 261.456c.161-.16.161-.16 6.593-1.442l.161.16c-2.251.481-4.824.962-6.754 1.282"/><path fill="#00344A" d="m423.07 222.672 13.509 2.885.321-.161c-9.649-1.762-22.514-4.487-32.324-5.609 0 0-.16 0-.16.16 5.467.962 13.026 1.763 18.654 2.725m13.67 3.045c16.564 5.289 38.274 13.623 54.195 20.674-12.383-5.449-28.947-12.821-41.652-17.148l-12.383-3.526zm-144.092 52.247 22.032-13.302h-.161l-15.76 9.456z" opacity=".302"/><path fill="#00344A" d="M436.578 225.557h.322l-.161.16z"/><path fill="#00344A" d="m379.007 230.203 17.851-8.174c-5.307 2.244-13.669 4.007-17.851 8.174M314.842 264.5l7.719-4.487c16.725-8.975 39.078-21.156 56.125-29.65v-.16c-19.298 10.097-45.029 23.399-63.844 34.297M617.82 315.627l10.293-5.129zM628.436 310.338c14.151-6.411 32.806-15.225 46.958-21.155-14.152 6.25-33.128 14.424-46.958 21.155" opacity=".302"/><path fill="#00344A" d="m675.391 289.184.321-.161zM700.479 279.406l.16-.16z" opacity=".514"/><path fill="#00344A" d="m527.924 277.004 16.081 16.988zM527.602 276.68c-7.558-7.051-17.529-16.828-25.409-23.559 7.72 7.052 18.012 16.187 25.409 23.559" opacity=".302"/><path fill="#00344A" d="m527.923 277.003-.321-.321z"/><path fill="#00344A" d="M527.122 276.522c-7.558-7.052-17.368-16.668-25.087-23.239z" opacity=".302"/><path fill="#00344A" d="m527.121 276.52.322.321z"/><path fill="#00344A" d="M551.883 247.672c17.047.641 39.722 1.122 56.608 2.244v-.161c-17.047-.641-39.561-1.923-56.608-2.083m-44.385 1.603 44.224-1.283-.16-.16zq0-.242 0 0" opacity=".302"/><path fill="#00344A" d="M551.564 247.672h.322l.161.161h-.483z"/><path fill="#00344A" d="M655.771 254.886h-.804l3.216.481.161-.16zm-4.181-.32c.804.16 1.769.32 2.412.32h.804l-3.377-.481c.161 0 .161 0 .161.161m-42.778-4.648v.16l27.982 2.725s.161-.16.322-.16c-8.523-.802-19.78-1.924-28.304-2.725" opacity=".302"/><path fill="#00344A" d="m654.807 254.725.965.16-.804.161-.804-.161zM636.795 252.64c.161-.16.161-.16 14.634 1.603 0 0 0 .16.161.16-4.342-.481-10.292-1.122-14.795-1.763" opacity=".514"/><path fill="#00344A" d="M658.667 255.367c19.942 3.526 46.476 7.853 66.096 12.18-19.941-3.846-46.315-9.135-66.417-12.02z" opacity=".302"/><path fill="#00344A" d="m658.345 255.207-.161.16h.322l.161-.16zm-49.853-5.289v.16h.322v-.16z"/><path fill="#00344A" d="M252.77 369.637c16.885 1.442 39.399 4.167 55.964 7.051-16.565-2.724-39.079-5.769-55.964-7.051" opacity=".302"/><path fill="#00344A" d="m308.732 376.688 6.272 1.282z"/><path fill="#00344A" d="M419.697 317.231c16.885-15.546 39.56-35.9 56.929-50.645-17.369 14.905-40.204 35.099-56.929 50.645" opacity=".302"/><path fill="#00344A" d="m476.625 266.584.16-.16zM404.256 332.294l12.543-12.341z"/><path fill="#00344A" d="M476.786 266.586c-17.369 14.905-40.204 35.099-56.929 50.645zm-224.982 99.366 18.815-11.86h-.16z" opacity=".302"/><path fill="#00344A" d="m476.785 266.584.16-.16zM404.418 332.454l12.544-12.501z"/><path fill="#00344A" d="m342.502 313.382-.161.16 14.795-7.372v-.16c-4.503 2.244-11.096 3.846-14.634 7.372m-71.885 40.548h.161c21.228-12.501 49.692-28.688 71.242-40.227l.16-.161c-21.71 11.7-50.335 27.726-71.563 40.388" opacity=".302"/><path fill="#00344A" d="m342.182 313.544.322-.161-.161.161-.322.16z"/><path fill="#00344A" d="M456.202 263.701h.322l31.359-10.578-.161-.16c-9.488 3.205-22.032 7.532-31.52 10.738m-64.809 26.123c19.459-8.013 45.189-18.751 64.809-25.963h-.322c-19.458 7.533-45.35 17.629-64.487 25.963m-21.067 9.937 20.906-9.616v-.16zq0-.24 0 0" opacity=".302"/><path fill="#00344A" d="M391.072 289.983h.322v-.16zM455.879 263.86l.322-.161h.321l-.321.161z"/><path fill="#00344A" d="m628.274 339.987.161.16 11.418-9.295-.161-.161zm-74.94 68.113c44.546-42.31 47.28-44.874 74.779-67.793l-.161-.16c-45.028 38.625-46.797 40.227-74.94 67.953zm-2.734 2.725c.643-.481 1.286-1.282 1.769-1.763-.161 0-.161-.16-.322-.16l-1.769 1.763c.161.16.322.16.322.16" opacity=".302"/><path fill="#00344A" d="m627.949 340.147.161.16.161-.16-.161-.16z"/><path fill="#00344A" d="m639.852 330.692 19.619-15.225.322.16-19.781 15.225z" opacity=".302"/><path fill="#00344A" d="m639.852 330.693.16.161z"/><path fill="#00344A" d="m707.719 282.609.321.16 18.816-11.058s-.161 0-.161-.16c-5.789 3.205-13.348 7.693-18.976 11.058m-24.123 15.706.161.161 23.962-15.707-.322-.16zm-.16.161-23.801 16.988h.321l23.48-16.828z" opacity=".302"/><path fill="#00344A" d="m683.432 298.477.16-.161.161.161-.161.161zM707.555 282.774l.161-.161.321.161h-.482" opacity=".514"/><path fill="#00344A" d="m659.794 315.305-.161.16h.322l.161-.16zm-20.263 15.546.161.16.161-.16-.161-.161z"/><path fill="#00344A" d="m612.837 318.189.161.16 4.663-2.404-.161-.16zm-26.535 14.424 26.535-14.103-.161-.161-26.535 14.104zm-36.505 74.364c8.041-19.713 18.815-45.836 27.178-65.389-8.363 19.553-19.298 45.676-27.178 65.389" opacity=".302"/><path fill="#00344A" d="m612.674 318.189.161.16.321-.16-.161-.16z"/><path fill="#00344A" d="m617.82 315.627 10.293-5.129h.321l-10.453 5.289z" opacity=".302"/><path fill="#00344A" d="m617.82 315.625.161.16z"/><path fill="#00344A" d="m700.642 279.244.322.16 24.765-8.494-.161-.16c-7.558 2.564-17.368 5.93-24.926 8.494m-24.927 9.776.161.161 9.488-3.847 15.278-5.93-.322-.16zm-.321.161c-14.152 6.25-33.128 14.424-46.958 21.155h.321c13.991-6.411 32.485-15.225 46.798-21.155z" opacity=".302"/><path fill="#00344A" d="m675.391 289.184.321-.161.161.161-.322.161zM700.479 279.407l.16-.161.322.161-.322.161z" opacity=".514"/><path fill="#00344A" d="m628.432 310.336-.322.16h.322l.321-.16zm-10.936 5.449.161.16.161-.16-.161-.16z"/><path fill="#00344A" d="m549.475 407.939-.804 2.084h.321c.322-.641.643-1.443.804-2.084zm-10.614 5.289c.804.16 1.93.321 2.894.481v-.16c-.804-.161-1.929-.321-2.894-.321.161-.16 0-.16 0 0m-49.532-5.449-.16.16c14.473 1.443 33.771 3.045 48.244 5.129v-.161c-14.312-1.602-33.61-4.006-48.084-5.128m-35.54-2.084 35.058 2.244.161-.16-35.219-2.244c.161.16 0 .16 0 .16" opacity=".302"/><path fill="#00344A" d="M489.004 407.779h.322v.161h-.322z"/><path fill="#00344A" d="M521.975 364.189c15.117-7.533 35.38-17.629 50.657-24.681-15.277 7.212-35.701 16.828-50.657 24.681m-68.668 38.945c16.564-9.776 38.595-22.758 55.32-32.054-16.564 9.616-38.917 22.117-55.32 32.054" opacity=".302"/><path fill="#00344A" d="m508.787 371.079 13.026-6.891z"/><path fill="#00344A" d="M453.145 402.973c16.564-9.777 38.595-22.758 55.32-32.054-16.564 9.616-38.917 22.117-55.32 32.054" opacity=".302"/><path fill="#00344A" d="m508.629 370.919 13.026-6.892z"/><path fill="#00344A" d="M576.973 341.59c-5.146 12.34-12.061 28.688-17.207 41.028l-9.81 24.361h-.321c8.201-19.713 18.976-45.997 27.338-65.389M521.814 364.185c15.117-7.532 35.38-17.629 50.657-24.681l-.16-.16c-8.363 4.006-19.459 9.135-27.822 13.142zq0-.24 0 0m-68.507 38.945c16.564-9.776 38.595-22.758 55.32-32.053-16.564 9.455-39.078 21.956-55.32 32.053" opacity=".302"/><path fill="#00344A" d="M508.629 371.079c3.859-2.244 9.006-4.968 13.026-7.212l.161.16c-3.86 2.244-9.167 4.969-13.187 7.052q.242 0 0 0"/><path fill="#00344A" d="M477.268 307.771c-12.866 41.51-15.439 50.164-27.178 94.077 13.026-47.92 14.956-55.452 27.178-94.077M490.615 268.988c-4.02 11.54-9.488 27.085-13.347 38.785 4.02-11.7 9.166-27.245 13.347-38.785M490.777 268.668l5.146-13.943z" opacity=".302"/><path fill="#00344A" d="m490.613 268.829.161-.161-.161.322z"/><path fill="#00344A" d="m543.848 294.148 13.187 14.905.16-.16-10.935-12.501-2.091-2.244zm13.508 15.066 18.333 22.116h.161c-5.468-6.731-12.865-15.546-18.333-22.277z" opacity=".302"/><path fill="#00344A" d="m557.035 309.053.16.161.161-.161-.161-.16z"/><path fill="#00344A" d="m538.536 288.379-11.097-11.539.483.16 16.081 16.988h-.321zM527.122 276.522c-7.558-7.052-17.368-16.668-25.087-23.239h.161c7.719 7.052 18.172 16.187 25.409 23.399z" opacity=".302"/><path fill="#00344A" d="m543.682 293.988.482.161-.161-.161zM527.443 276.841l-.322-.321.483.16.321.322z"/><path fill="#00344A" d="M477.268 307.771c-12.866 41.51-15.439 50.164-27.178 94.077l6.111-22.277c13.991-49.522 13.991-49.522 21.228-71.8zM490.617 268.988h.321c-4.02 11.54-9.488 26.925-13.187 38.625h-.321c3.859-11.7 9.005-27.085 13.187-38.625M490.777 268.668l5.307-13.943h.161c-1.608 4.167-3.699 9.936-5.146 14.103z" opacity=".302"/><path fill="#00344A" d="M477.43 307.613v.16h.321v-.16zM490.613 268.99l.161-.322.161.161v.161z"/><path fill="#00344A" d="M476.784 266.426h.16l14.795-11.86h-.16c-4.342 3.526-10.293 8.334-14.795 11.86m-56.929 50.805c16.885-15.546 39.56-35.9 56.929-50.645h-.161c-17.368 14.905-40.204 35.099-56.929 50.645zm-46.798 47.599v.321l9.327-9.937 19.298-19.873h-.16c-8.524 8.815-19.942 20.674-28.465 29.489m-14.312 16.027 14.151-15.546v-.321l-14.312 15.707c0 .16 0 .16.161.16" opacity=".302"/><path fill="#00344A" d="m476.625 266.585.161-.161h.161l-.161.161zM416.961 319.955c.804-.801 1.929-1.923 2.894-2.725h-.16c-.805.802-1.93 1.924-2.895 2.725zm-15.278 15.225c.804-.801 1.93-1.923 2.895-2.724 0 0-.161 0-.161-.16-.804.801-1.93 1.923-2.734 2.884q-.241 0 0 0"/><path fill="#00344A" d="M404.415 332.454c3.538-3.846 8.684-8.654 12.383-12.501h.161a459 459 0 0 1-12.544 12.501"/><path fill="#00344A" d="M386.085 439.191c-22.032 13.142-51.3 30.772-72.85 44.394h.322c21.549-13.622 50.657-31.412 72.689-44.233zm-101.314 63.626 28.625-18.911h-.321zc-.161 0-.161-.16 0 0" opacity=".302"/><path fill="#00344A" d="M313.234 483.586h.482l-.482.322h-.322z"/><path fill="#00344A" d="M426.932 416.754v.161l18.172-9.296s0-.16-.161-.16c-5.146 2.885-12.543 6.571-18.011 9.295m-40.526 22.278.161.16 40.204-21.957v-.16z" opacity=".302"/><path fill="#00344A" d="M426.768 416.914v.16l.322-.16v-.16zm-40.686 22.277.161.161.321-.161-.16-.16z"/><path fill="#00344A" d="M293.452 483.425c11.418-19.392 26.857-45.195 38.757-64.427-11.739 19.232-27.339 44.875-38.757 64.427" opacity=".302"/><path fill="#00344A" d="m293.293 483.747.161-.321z"/><path fill="#00344A" d="M317.575 442.078c-7.397 12.341-17.207 28.848-24.444 41.349 7.398-12.341 17.047-29.008 24.444-41.349M396.699 394.317l27.178 5.289v-.321c-14.152-2.724-32.967-6.41-47.119-8.654v.32zm27.5 5.449 21.066 4.808v-.16l-1.447-.481-19.78-4.487z" opacity=".302"/><path fill="#00344A" d="M423.875 399.767v-.322l.322.161v.161z"/><path fill="#00344A" d="M360.834 388.867s0-.16.161-.16c4.663.641 10.774 1.442 15.438 2.083v.321zM337.68 410.023l-5.629 8.975.322-.16 5.628-8.815z" opacity=".302"/><path fill="#00344A" d="m272.549 468.039-.16-.641z"/><path fill="#00344A" d="M317.575 442.076c-7.397 12.341-17.207 28.849-24.444 41.349h.322c11.418-19.392 26.856-45.195 38.757-64.427l-.322.16zm-34.414 59.62 10.131-17.95h-.321L283 501.536z" opacity=".302"/><path fill="#00344A" d="M293.133 483.426h.321l-.16.321h-.161z"/><path fill="#00344A" d="M248.104 374.285c3.859 13.302 8.844 31.092 12.382 44.394-3.538-13.302-8.362-31.092-12.382-44.394" opacity=".302"/><path fill="#00344A" d="M260.488 418.678h.16v.16z"/><path fill="#00344A" d="m343.627 400.889.161.16-5.468 8.334-.161.32h-.321zM343.791 400.566l3.699-5.449h.161c-1.126 1.763-2.573 4.007-3.86 5.449" opacity=".302"/><path fill="#00344A" d="m343.629 400.892.161-.322.161.161-.161.322z"/><path fill="#00344A" d="M252.768 369.637c16.886 1.442 39.4 4.167 55.964 7.052-16.725-2.885-39.078-5.93-55.964-7.212.161 0 0 .16 0 .16m62.236 8.334 29.911 7.693s0-.161.161-.161c-9.005-2.404-20.906-5.449-29.912-7.693 0 0-.16 0-.16.161m-67.061-3.526c2.734 9.456 6.433 21.956 9.006 31.572-2.573-9.455-6.111-22.116-9.006-31.572" opacity=".302"/><path fill="#00344A" d="m308.732 376.688.161-.161c1.93.321 4.342.962 6.111 1.282l-.161.161z"/><path fill="#00344A" d="m264.187 434.065 2.895 11.539s.161 0 .161-.16c-.804-3.526-1.93-8.014-2.734-11.54zm-10.613 71.799v.16l23.639-.801v-.16c-7.075.32-16.564.641-23.639.801m-91.344-.801a3360 3360 0 0 1 23.318-40.868l-.161.16c-7.075 12.02-16.564 28.367-23.157 40.708q-.242 0 0 0m4.181 9.456c42.777-5.61 46.154-6.091 86.841-8.334v-.161c-49.049 3.206-50.979 3.206-86.841 8.495" opacity=".302"/><path fill="#00344A" d="M253.25 505.863h.322v.322h-.161z"/><path fill="#00344A" d="m272.065 466.919.321.48-3.055-12.661s-.161 0-.161.161c.965 3.686 1.286 8.654 2.895 12.02m.16.641c2.413 10.257 5.629 24.04 8.041 34.297h.161c-2.412-10.097-5.468-23.72-7.719-33.817z" opacity=".302"/><path fill="#00344A" d="m272.227 467.559.321.482zM272.229 467.559l-.161-.641.322.481.161.641z"/><path fill="#00344A" d="M256.95 406.018 260.327 419l.161-.161c-3.538-13.302-8.523-31.092-12.383-44.394l-.161.161c2.734 9.295 6.433 21.796 9.006 31.412m3.377 13.142 3.699 14.744.161-.16-3.699-14.905zm-18.815-43.112c-26.857 39.746-31.681 46.958-56.125 87.826l.161-.16c25.408-41.349 30.555-50.003 55.964-87.666q.24.24 0 0" opacity=".302"/><path fill="#00344A" d="m260.324 418.839.161-.161.161.161-.322.321z"/><path fill="#00344A" d="M342.986 230.045c10.775-.481 25.088-.962 35.863-.161l.321-.16c-10.614-.481-24.926-.801-35.379.16h-.483l-22.353 4.648 21.549-4.487zm-27.017 8.814c-3.698 6.571-8.362 15.386-11.578 22.117 3.377-6.891 8.201-16.187 12.061-22.758zm-4.985 20.995c12.865-5.93 29.751-14.263 42.777-19.873-12.704 5.93-30.072 13.463-42.777 19.873" opacity=".302"/><path fill="#00344A" d="m363.569 262.577-4.342 10.257 4.502-10.257v-.16c4.342-9.616 10.293-22.598 14.956-32.053v-.161l.161-.32h-.161l-.321.16-24.927 10.097c-12.865 5.93-30.233 13.462-42.777 19.873 20.263-9.295 47.28-21.636 67.865-29.97l-.161.481v.16c-4.342 9.296-10.453 21.957-14.795 31.893m-26.696 6.411 17.047 6.25c-10.936-3.846-25.892-8.173-37.31-10.417l20.102 4.167zM233.953 285.975c15.921-10.898 37.309-25.162 53.873-35.098l.161-.161c-16.403 10.257-38.274 24.04-54.034 35.259m65.291-41.189 14.956-7.532c-4.342 2.244-10.292 5.128-14.634 7.372zl-.643.321c.161 0 .161-.16.321-.16zm16.564-7.532-20.424 16.027 15.6-12.501.16-.161zm-32.163 26.123c-8.041 7.533-18.976 17.309-26.696 25.002 32.164-30.29 34.737-32.694 58.859-51.125l-4.664 3.526-.16.16c-8.041 6.571-19.137 15.386-27.017 22.277zm-54.356 26.444c4.503-1.762 11.096-3.045 15.921-2.724 2.573.16 5.468 2.564 7.558 4.167-4.181-2.404-10.453-4.327-15.117-4.648-2.733-.16-5.95 1.763-8.362 3.205" opacity=".302"/><path fill="#00344A" d="M316.45 238.216c-3.86 6.731-8.684 15.866-12.061 22.758zm-4.503 8.174c1.126-2.244 3.056-5.289 4.342-7.533l1.608-2.404c-.321.16-.321.16-1.286 1.923m-33.128 25.162.321-.32 11.579-9.937 20.424-16.027c-34.254 27.406-34.897 27.887-59.02 51.286l-.965.961h.161M363.57 306.652c1.93 11.86 4.503 27.566 6.272 39.266l.321-.16c-1.93-11.86-4.342-27.566-6.272-39.266 0 0-.16 0-.321.16.161 0 .161-.16 0 0m12.865 84.461.804 5.61h.322a79 79 0 0 0-.804-5.61v-.32l-3.699-25.803v-.321l-2.734-18.911-.322.16 2.734 19.072v.32l3.538 25.483zm-16.081-1.442 14.312 8.013.161-.16c-4.342-2.404-10.131-5.77-14.473-8.174.16.16 0 .16 0 .321q0-.242 0 0" opacity=".302"/><path fill="#00344A" d="m370.16 345.758-.16.16zM370 345.919l.161-.161.161.161-.322.16z"/><path fill="#00344A" d="M270.618 354.092c13.669 3.846 32.002 9.295 45.35 14.264l.161-.161c-13.348-4.808-31.359-10.738-45.189-14.263h-.161l-15.117-2.725 14.795 2.885zm45.511 14.424 6.272 2.564.321-.16-6.432-2.725zm6.433 2.564 25.409 11.86s.16 0 .16-.16c-7.558-3.526-17.689-8.334-25.248-12.02z" opacity=".302"/><path fill="#00344A" d="m315.965 368.354.161.16.16-.16-.16-.161zm6.272 2.724h.16l.322-.16h-.161z"/><path fill="#00344A" d="m358.426 280.207.482 2.244.161-.321-.482-1.923zm.643 2.564 3.377 16.828s.161 0 .161-.16c-.965-5.128-2.412-11.86-3.377-16.988z" opacity=".302"/><path fill="#00344A" d="m358.906 282.449.322-.32v.32l-.161.321z"/><path fill="#00344A" d="M316.612 264.821c11.418 2.404 26.373 6.411 37.309 10.417l-16.725-6.25h-.161c-6.593-1.443-15.438-3.686-22.192-4.488h-.161l-7.559-.48-.16.16c2.251.16 5.307.32 7.558.481h.161zm-57.894 76.928c47.119-33.175 53.23-37.502 92.147-60.901-53.712 33.175-54.838 33.816-92.147 60.901M277.21 277.964l.321-.16 8.684-4.808 9.328-4.968-18.012 9.776zm-23.962 15.386a1267 1267 0 0 0-2.412 23.239c.643-7.052 1.608-16.348 2.412-23.239m34.093-8.013c-20.745 31.412-22.032 33.175-35.38 56.413l14.956-25.001c6.111-9.456 14.152-22.117 20.585-31.412l.161-.161 4.985-7.051.161-.161 7.719-10.417-8.041 10.578-.161.16zM247.784 288.22l4.663 3.045h.161c-2.251-1.282-4.824-4.007-7.397-4.167-10.292-.641-10.292-.641-16.082 2.725l-.161.16c2.413-.962 5.468-2.885 8.202-3.205 3.377-.321 7.88 0 10.614 1.442m-94.399 75.165c7.236-7.051 16.081-17.309 22.836-24.841 13.026-14.104 32.324-31.092 46.797-43.913-37.148 33.335-37.148 33.335-69.633 68.754m96.329-69.395c-38.918 23.078-60.467 35.899-95.525 69.075 32.967-29.009 51.139-44.875 95.525-69.075" opacity=".302"/><path fill="#00344A" d="M154.027 363.224c32.967-29.008 51.139-44.874 95.525-69.075-38.757 22.918-60.307 35.419-95.525 69.075q.242-.24 0 0m96.65-46.637c-.804 8.013-1.93 18.751-2.734 26.764 2.413-21.956 2.413-21.956 5.468-50.324l-.161.161c-.804 7.051-1.769 16.347-2.573 23.399m-97.937 48.24c20.906-14.104 44.707-30.13 88.127-16.668-23.318-5.449-52.265-12.18-87.966 16.508 0 0-.161 0-.161.16M261.455 453.776l.643-.161v-.16c-.321.16-.482.16-.643.321m-13.991 7.532v.16l13.669-7.372-.16-.16zm-80.73 48.241c43.26-26.925 47.924-29.81 80.569-47.92v-.161c-49.37 28.047-50.335 28.528-80.569 48.081q0-.241 0 0" opacity=".302"/><path fill="#00344A" d="M247.299 461.311h.161l.16.16-.321.161zM261.129 453.938l.322-.161v.161l-.161.161z"/><path fill="#00344A" d="M300.046 421.401v.16l37.631-11.539.322-.16 12.383-3.366-.161-.16-11.9 3.366-.322.16zm-50.817 18.11 14.955-5.449.161-.16 35.38-12.341v-.16l-35.38 12.341-.161.16zm-4.503 1.763v.16l4.181-1.602-.161-.161zm-19.941 8.334 19.78-8.013v-.161l-19.78 8.014zm-59.824 56.735c13.508-13.944 31.52-32.535 45.189-46.157-13.508 13.783-31.681 32.053-45.189 46.157" opacity=".302"/><path fill="#00344A" d="m244.564 441.438.161-.161.161.161-.322.161zM248.908 439.673h.322l-.161-.161zM299.887 421.403v.161l.321-.161v-.161z"/><path fill="#00344A" d="m350.545 406.178 22.353-5.77v.16c-6.593 1.763-15.599 4.007-22.192 5.77z" opacity=".302"/><path fill="#00344A" d="m350.223 406.339.321-.161.161.161-.322.16z"/><path fill="#00344A" d="M296.347 435.827v.16l35.54-16.828.322-.16 21.549-9.616-.161-.16-21.227 9.455-.322.161zm-22.193 11.379 21.871-11.058v-.161z" opacity=".302"/><path fill="#00344A" d="m296.025 435.987.322-.161v.161l-.322.161z"/><path fill="#00344A" d="m353.92 409.222 18.976-8.013v.16a2258 2258 0 0 1-18.976 8.014z" opacity=".302"/><path fill="#00344A" d="M353.6 409.223h.321l.161.16h-.322z"/><path fill="#00344A" d="M122.344 492.401c37.31-18.11 38.757-18.911 62.88-28.206l.16-.161 27.178-9.936-27.178 9.776-.16.16c-41.491 17.309-42.295 17.63-62.88 28.367m42.778 13.944c14.473-14.905 33.932-34.778 48.566-49.363l-3.538 3.206c-13.508 13.783-31.681 32.053-45.028 46.157m-43.903-11.7c8.362 5.129 19.459 12.18 27.499 17.79 0 0 0-.16.161-.16-8.041-5.61-18.976-12.982-27.499-17.79zM104.496 462.592C137.463 431.66 168.5 402.331 235.4 357.938c-42.777 29.328-79.765 54.651-130.904 104.654m17.368 28.527c36.827-46.157 64.809-80.133 116.109-131.579-36.827 37.503-65.774 67.152-116.109 131.579M113.501 485.51l5.146 7.052.161-.161c-2.895-3.686-6.754-8.654-9.488-12.5l-9.006-8.815-.161.16c4.181 4.007 9.81 9.616 13.348 14.264m-75.744 62.184-.161.16c17.529-17.309 32.645-32.214 79.443-52.888-28.625 13.462-55.642 26.284-79.282 52.567 22.835-33.816 23.318-34.457 53.712-70.998-26.695 32.214-34.736 41.83-53.712 71.159M283.003 501.535l-.643 6.571.161-.16c3.377-2.084 3.216-5.77.482-6.411m-3.699 7.372h.322c1.126.161 2.091-.32 2.573-.481.161-2.083.483-4.808.643-6.891-3.538-.481-7.076 3.846-4.985 6.411q.483.72 1.447.961" opacity=".302"/><path fill="#00344A" d="m283.001 501.535-.644 6.731zM282.839 501.535H283c-.161 1.923-.482 4.648-.643 6.571-.161 0-.161.16-.322.16z"/><path fill="#00344A" d="M447.191 408.903c-2.252-.641-3.056-2.564-1.93-4.487 1.769-2.404 4.503-2.404 5.146-2.404 2.091.16 2.895 1.282 2.895 1.282 2.251 2.885-1.769 6.411-5.629 5.769h-.161c0-.16-.16-.16-.321-.16M243.602 376.207c-3.538.641-4.664-1.603-2.412-4.648 3.538-4.808 11.418-7.532 12.061-4.167.161.641 0 1.443-.483 2.244-2.251 3.846-6.432 5.93-8.844 6.411-.161 0-.161.16-.322.16M561.695 190.938c-4.824-.16-6.433-1.923-4.824-3.366 3.859-3.205 17.368-3.526 16.885-.32-.321 2.083-6.432 3.846-12.061 3.686M494.955 251.841c-2.734-.321-3.538-1.924-1.608-3.526 1.126-.962 3.538-1.763 5.95-1.763 3.378.32 3.86 1.923 2.413 3.365s-4.503 2.244-6.755 1.924m-1.929 2.884h.16c8.524.321 17.047-5.128 13.991-8.814-3.859-4.648-19.619-.962-20.423 4.647-.483 3.045 4.181 3.847 4.824 4.007.322.16.804.16 1.448.16" opacity=".302"/><path fill="#00344A" d="M494.955 251.839c-2.734-.321-3.538-1.924-1.608-3.526 3.056-2.404 9.488-2.244 9.167.32-.161 1.763-3.86 3.366-7.076 3.206zM575.85 341.268c-5.628-1.763-6.433-6.731-1.447-9.456 6.111-3.366 15.277.321 13.508 5.449-1.125 3.205-6.111 5.129-10.774 4.327-.322 0-.322 0-.644-.16-.16 0-.482-.16-.643-.16M544.647 418.038c-3.859-1.283-4.02-5.45-.482-7.212 2.251-1.122 4.342-.642 4.342-.642 4.181.802 5.468 4.808 2.252 7.052-1.287.802-3.378 1.603-5.629.962-.161 0-.322-.16-.483-.16" opacity=".302"/><path fill="#00344A" d="M543.365 420.121c-5.951-2.084-6.272-8.495-.483-11.219 2.895-1.443 5.468-.962 6.594-.962h.16c.965.161 1.93.481 2.734 1.122 5.79 3.526 2.895 9.937-3.377 11.379-.965.16-3.216.481-5.628-.32m-.644.961c.322.16.644.16.804.321 8.202 2.243 16.243-4.488 12.544-10.578-.482-.801-2.09-2.885-5.95-3.846-8.362-1.763-15.921 5.288-11.74 11.058.644.801 1.93 2.244 4.342 3.045M400.235 221.069c-1.125.16-1.769 0-1.447-.481.482-.801 2.412-1.603 3.86-1.923 1.769-.321 1.929.16 1.769.481-.644.641-2.573 1.602-4.182 1.923m-1.125.801c.16 0 .321 0 .482-.16 3.699-.801 7.558-3.205 6.594-4.007-.161-.16-.483-.16-.804-.16-1.126 0-2.734.32-4.664.962-3.86 1.602-4.664 2.884-3.86 3.365.643.321 1.608.16 2.252 0" opacity=".302"/><path fill="#00344A" d="M400.237 221.069c-1.126.16-1.769 0-1.447-.481.804-1.282 5.468-2.725 5.628-1.763.161.641-2.09 1.763-4.02 2.244 0-.161-.161 0-.161 0M348.612 395.278c-6.432-.32-7.558-6.411-2.09-11.058 2.895-2.565 7.88-4.648 12.061-3.366 5.95 1.923 4.02 9.296-3.216 12.821-2.252 1.122-4.503 1.603-6.755 1.603M445.425 197.188c-1.769.321-2.734 0-2.252-.641.643-.801 3.377-1.923 5.95-2.404 2.895-.481 3.056.16 2.734.641-.643.801-3.699 2.084-6.432 2.404m-1.769 1.603c.16 0 .482 0 .643-.161 2.734-.48 8.523-1.923 11.579-4.487l.16-.16c1.609-1.763-.643-1.923-2.733-1.763-6.433.481-15.76 4.327-14.474 6.09 0 .32.804 1.122 4.825.481" opacity=".302"/><path fill="#00344A" d="M445.426 197.19c-1.769.321-2.734 0-2.251-.641 1.286-1.602 8.523-3.526 8.844-2.243.161.801-3.055 2.243-6.111 2.884zM287.825 252.641c-1.608.962-3.699 1.923-4.181 1.763-.161-1.282 13.83-9.776 15.117-9.135.16.801-5.951 4.648-10.293 7.052-.16 0-.482.16-.643.32M393.804 197.35c-.805.32-2.413.801-2.574.641.483-.802 9.328-4.167 9.649-3.686-.16.32-2.573 1.442-4.663 2.243-.322.161-.965.321-1.769.641-.322 0-.483.161-.643.161M269.655 294.149c-1.608.641-2.573.481-2.251-.481.482-1.282 3.538-3.526 6.111-4.648 3.056-1.122 2.734 0 2.573.321-.322 1.442-3.699 3.686-6.433 4.808m-.643.801c.161 0 .322-.16.483-.16 4.824-1.923 9.649-6.251 8.04-7.212-3.216-.962-12.382 5.769-11.739 7.532.322.481 1.447.481 3.216-.16M508.786 171.065c-3.056.32-4.985 0-4.342-.641 1.447-1.763 15.117-4.007 14.956-2.404 0 .961-5.146 2.404-10.132 3.045zM360.194 307.133c-3.538 0-4.503-2.244-2.091-4.808 3.86-4.167 12.383-5.449 12.383-1.923 0 2.724-4.986 6.25-9.649 6.731zM264.831 455.7c-4.342-.641-4.021-5.93.643-9.296 4.664-3.205 9.488-1.763 8.684 2.565-.643 3.526-4.985 6.891-8.684 6.731z" opacity=".302"/><path fill="#00344A" d="M269.653 294.149c-1.608.641-2.573.481-2.252-.481.805-2.243 8.202-6.25 8.845-4.808.322.962-3.055 3.847-6.271 5.129 0 0-.161 0-.322.16M724.761 269.789c0 .16.161.16.161.321 2.895.641 6.594 1.602 9.488 2.243 2.895-1.442 1.287-4.327-2.09-5.449-4.985-1.763-8.845.321-7.559 2.885m3.056 2.244h.161c.965.32 3.538 1.122 6.111.16-2.734-.641-6.433-1.442-9.167-2.083.161.16.161.32.483.48.804.641 1.447 1.122 2.412 1.443" opacity=".302"/><path fill="#00344A" d="M725.083 270.109c2.734.481 6.594 1.443 9.328 2.084-.161.16-.161.16-9.328-2.084" opacity=".514"/><path fill="#00344A" d="M153.382 520.767c-2.412-.16-2.251-3.686.322-5.93 1.286-1.122 2.412-1.282 2.734-1.282 2.734 0 2.573 3.366.161 5.609-.965 1.122-2.252 1.603-3.217 1.603m-2.895 6.731h.965c9.81-.32 19.62-15.546 13.67-21.155l-.161-.16c-7.076-5.77-20.424 6.891-19.62 15.866.322 3.206 2.252 5.129 5.146 5.449M374.988 402.651c-2.412-.321-2.894-2.885-.16-4.969 2.412-1.763 6.271-1.122 5.789 1.443-.322 1.442-2.251 3.526-5.307 3.526zM118.325 496.568c-1.608.321-1.768-1.442-.321-3.366.161-.16.321-.48.643-.801 1.769-1.763 3.699-2.083 3.699-.481 0 1.282-1.608 3.847-3.86 4.648zM364.856 272.836l-3.538 6.09c3.859-2.404 5.307-4.968 3.538-6.09m-10.453 8.494c.321 0 .643-.16.965-.16 3.377-.641 5.628-2.083 5.628-2.083 1.608-1.443 2.573-4.488 3.699-6.411-4.02-1.923-15.438 4.007-14.313 7.372.161 1.122 1.769 1.603 4.021 1.282" opacity=".302"/><path fill="#00344A" d="M364.695 272.676s.161 0 .161.16c-1.126 1.763-2.413 4.327-3.538 6.09-.161 0-.161.16-.322.16z"/><path fill="#00344A" d="M241.671 359.22c-5.95 1.442-8.202-1.443-5.146-6.251 2.894-4.647 9.97-9.776 15.76-11.379 6.111-1.763 9.166.481 6.593 5.289-1.769 3.366-7.719 9.456-16.564 12.18-.161.161-.482.161-.643.161M215.939 457.621c-3.859 0-4.342-4.167-.804-7.853 3.86-4.007 9.488-4.327 9.649-.321.161 2.885-3.538 7.693-8.523 8.174zM153.383 520.767c-2.412-.16-2.251-3.686.322-5.93 2.412-2.083 4.985-1.442 4.824.962-.161 1.923-2.091 4.808-4.985 4.968zM251.644 294.149c-1.447.641-2.412.801-2.252.32.483-1.602 7.398-6.09 8.041-5.128.483.641-2.251 3.045-5.628 4.808 0-.161-.161 0-.161 0M94.364 476.214c-2.412 1.282-3.538.641-2.895-1.603 1.609-5.769 11.258-14.904 13.027-12.18.964 1.603-1.769 6.25-4.182 8.815-2.573 3.045-4.663 4.327-5.467 4.808-.161-.161-.322 0-.483.16M300.209 267.546c-3.859 1.443-4.663.962-4.824.321 0-2.885 13.991-10.417 15.599-8.334.965 1.282-4.985 5.93-10.775 8.013M224.949 293.189c-3.538 2.725-4.021 3.045-4.181 3.045.482-.801 12.222-10.097 13.669-10.898-.161.16-.965.962-5.146 4.327-1.769 1.443-3.377 2.564-4.021 3.205 0 .161-.16.161-.321.321M316.611 236.935c-1.608.801-2.573 1.122-2.734.961-.161-.48 2.895-2.243 4.021-2.884 2.894-1.603 4.824-2.244 4.985-2.084.322.321-2.895 2.404-6.272 4.007M149.523 368.195c-1.447 1.282-1.608 1.443-1.769 1.443.322-.962 5.95-6.571 6.593-6.892 0 .16 0 .16-.16.321-.483.641-2.091 2.564-4.503 4.808 0 .16-.161.16-.161.32" opacity=".302"/><path fill="#00344A" d="M353.44 591.927c56.124 23.88 56.124 23.88 102.279 44.714-49.693-22.277-49.693-22.277-102.279-44.714m133.155-165.556c-66.256 67.793-96.972 106.097-136.05 154.498 53.391-68.274 93.595-110.264 136.05-154.498m3.217.321h-.322c-18.333 103.853-21.549 148.247-25.731 204.5 5.629-81.095 15.117-140.554 26.053-204.5"/><path fill="#00344A" d="M336.873 511.954c-.965-14.744-1.608-34.457-2.09-49.202zm147.629-89.429c-61.271 3.366-77.352 4.808-125.115 8.975 58.537-5.128 69.955-5.769 125.115-8.975m2.091 3.687s-.161 0-.161-.161l-8.202 8.494c-68.99 72.762-84.91 92.795-127.527 146.164 53.07-67.793 93.274-109.943 135.89-154.497"/><path fill="#00344A" d="M287.507 393.195c0 .161 0 .161-.161.321.482 0 1.125.16 1.608.16 0 0 0-.16.161-.16zm2.412.321c0 .16 0 .16-.161.32l2.251.321.161-.321zm2.573.32-.161.321 19.941 2.724.161-.32zm60.145 38.304q0-.24 0 0c-3.538.16-8.362.641-11.9.962v.32zm-40.043-35.579-.161.32c13.348 1.763 31.198 4.167 44.546 5.93v-.32c-13.348-1.763-31.037-4.167-44.385-5.93m149.076 26.925c-40.847 2.243-51.461 3.365-102.279 8.013 50.014-4.327 67.221-5.609 125.115-9.135zm-104.369-20.995v.32c40.847 5.449 55.16 7.533 127.527 18.271-46.637-7.373-77.353-11.539-127.527-18.591M269.492 409.702c-12.061 14.264-27.661 33.656-39.4 48.24 11.579-14.584 27.66-33.816 39.561-48.24zm-39.079 50.804c12.544-3.525 29.269-8.013 41.652-11.379zm.161-.16c12.544-3.526 29.269-8.013 41.812-11.379-12.704 3.206-29.429 7.853-41.812 11.379m48.245-61.062-9.166 10.258h.16zm2.573-2.884q-.242 0 0 0a9.2 9.2 0 0 0-1.769 1.763s0 .16.161.16c.482-.641 1.126-1.282 1.608-1.923m5.146-1.763-.161.16c.322.321.804.641 1.126.962l.161-.161zm1.769 1.602-.161.161 2.252 2.083.161-.32zm2.412 2.084-.16.32 14.151 12.02.161-.32zm16.725 14.264-2.573-2.084-.161.321 13.187 10.577.644.161zm21.067 22.597c-12.383 2.885-28.947 6.892-41.329 9.937 12.222-3.206 28.786-7.052 41.329-9.937m-9.488-13.462-.643-.16c3.538 2.724 8.362 6.41 11.9 9.135l.161-.16z"/><path fill="#00344A" d="M229.127 463.392c6.433 8.975 15.76 20.515 22.514 29.169-7.076-8.494-15.921-20.354-22.514-29.169m1.286-3.045v.321c12.544-3.526 29.269-8.013 41.652-11.379l.161-.321c-12.544 3.206-29.269 7.853-41.813 11.379m42.134-11.539-.161.321 14.313-3.686.161-.321zm14.474-3.686-.161.321 24.444-5.93 17.046-4.167c-12.382 2.724-28.786 6.731-41.329 9.776m49.853 66.831c1.608 20.354 4.503 47.439 6.915 67.633-6.433-56.895-6.433-59.139-8.845-117.315l-.161.32m-.322-20.033.161 19.713.161-.321-.161-19.553zm.161-2.244h-.161v1.923l.161-.16c.161-.481.161-1.282 0-1.763"/><path fill="#00344A" d="M250.196 572.536c-12.061-1.923-27.982-4.647-40.043-6.731l-24.605-4.007 15.76 2.725c14.634 2.564 34.253 5.77 49.049 8.174zm-21.067-109.141-.161.16c6.433 8.975 15.599 20.354 22.514 29.168l.161-.16c-7.076-8.494-15.921-20.354-22.514-29.168m22.675 29.328-.161.161 5.468 6.41.161-.32zm-1.287 79.813v.321l17.047 2.724.161-.32zm8.363-71.479-1.608-1.923-.161.321 2.734 3.205.161-.321zm1.286 1.603-.16.32c8.684 9.937 20.745 22.598 29.751 32.214l.16-.32c-9.005-9.456-20.745-22.438-29.751-32.214m7.88 72.761-.16.321c20.584 3.365 48.084 7.853 68.829 11.058-20.745-3.526-48.084-8.013-68.669-11.379m22.193-40.387-.161.32c14.474 14.424 34.093 33.336 48.888 47.439-14.795-14.103-34.254-33.335-48.727-47.759M123.15 513.555c-2.573 1.442-5.95 3.365-8.523 4.968v.32zm9.328-5.449c-.965.16-2.091 1.121-3.056 1.763-.161 0-.161.16-.161.32l3.538-2.083zm-18.816 13.141c7.719 6.091 18.494 13.463 26.535 18.912-8.202-5.289-18.655-12.982-26.535-18.912m19.137-13.462h.322c9.006-5.129 21.388-11.539 30.555-16.507l.161-.321c-9.328 4.968-21.71 11.86-31.038 16.828m36.505 48.561c-8.844-4.648-20.262-11.219-28.946-16.187 8.523 5.129 20.262 11.379 28.946 16.187m-28.786-16.347c8.524 5.128 20.263 11.379 28.947 16.187-8.845-4.648-20.423-11.379-28.947-16.187m55.804-20.995c-4.021 8.334-9.328 19.392-13.348 27.726h.161l13.347-27.726zm22.514-54.01c-16.564 7.532-38.435 17.95-54.678 25.963l-.16.321c16.403-8.174 38.435-18.431 54.838-26.124zm2.734 6.571-15.278 28.046-9.97 19.232h.16c7.237-14.263 17.529-33.015 25.088-47.118zm-2.573-6.571.16.16c1.609-.641 3.699-1.603 5.307-2.244v-.16zm6.271.16-3.698 6.09v.16z"/><path fill="#00344A" d="M112.213 523.494c-1.769 28.688-1.769 30.611 1.93 80.935-3.377-30.611-3.216-32.535-1.93-80.935m32.163 168.761c-.804 5.289-1.929 12.18-2.733 17.469l.16.16zm-15.92-160.107c-4.503-3.205-10.293-7.693-14.635-11.058 0 0-.16.16-.16.32 7.719 6.09 18.493 13.463 26.534 18.912l.161-.321zm29.59 94.077c-4.664 19.553-9.649 45.997-13.67 65.87l.161.16c3.538-19.873 9.328-46.317 13.67-66.03zm-17.529-86.224-.161.321c8.523 5.128 20.263 11.379 28.947 16.027v-.161c-8.684-4.647-20.263-11.379-28.786-16.187m32.002 34.137c-4.824 15.386-10.131 36.06-14.473 51.606h.161c3.859-15.546 9.97-36.06 14.312-51.606"/><path fill="#00344A" d="m45.799 652.828 15.277-36.541-.16-.161m-15.6 47.44v.32c5.79 5.289 14.152 11.539 20.263 16.347l.161-.16c-6.433-4.648-14.313-11.539-20.424-16.507m30.395-78.211-14.474 30.611.161.16 14.473-30.45zm-9.81 94.718-.161.16c9.488 6.251 22.514 14.104 32.324 19.873v-.32c-9.97-5.609-22.675-13.623-32.163-19.713m44.224-156.421c-10.774 18.111-24.283 42.792-34.414 61.543v.16c9.97-18.751 23.8-43.272 34.414-61.703m1.93-.16-1.126 32.855c.322 14.584 1.93 33.976 3.056 48.401l.161-.321c-3.377-30.611-3.217-32.534-2.091-80.935m2.091 81.256-.161.32 2.734 20.194.161-.161zm2.734 20.514-.161.16 2.251 13.623h.161zm-18.816 74.524v.32c10.453 5.61 24.766 12.501 35.54 17.63v-.161c-10.774-4.968-24.926-12.34-35.54-17.789m21.228-60.421h-.161l7.719 36.06.322.321zm8.041 36.862-.322-.321c2.895 10.257 6.754 23.88 9.649 34.137l.161-.16z"/><path fill="#00344A" d="M111.571 517.724c-1.286 2.084-2.09 5.289-1.286 6.251a86 86 0 0 0 1.286-6.251m3.056.321v-1.122c-.161-1.442-1.287-1.603-2.895.641-.321 1.923-.965 4.648-1.286 6.571.482.16.804.16 1.447-.481 1.126-1.122 2.251-3.205 2.573-5.288.161 0 .161-.161.161-.321M227.036 457.946c-2.251 1.602-2.573 4.167-2.734 4.487-.321 2.084.965 3.847 3.699 1.923l.322-.32zm3.538 1.442c0-1.442-.965-2.885-3.216-1.603.321 1.763.965 4.328 1.286 6.091 1.126-1.122 1.769-2.725 1.93-4.167zM340.734 430.699c-.965-4.808-7.398-4.647-10.775.321-3.698 5.609-.965 10.578 3.86 9.456 2.573-.481 5.789-3.045 6.754-7.212.161-.962.161-1.603.161-2.084q.242-.24 0-.481M287.986 390.79c-.161-2.564-2.895-2.885-5.307-.32-2.734 2.884-2.734 6.731.161 6.571 2.091-.161 4.985-2.885 5.146-5.77z"/><path fill="#00344A" d="M289.917 389.669c0 1.603-.643 3.045-.804 3.686-1.608 3.366-4.824 5.93-7.397 5.77-3.86-.161-3.86-5.77.161-9.937 3.698-3.686 8.04-3.366 8.04.481m1.126-.481c-.161-2.244-1.447-3.686-3.377-3.686-5.789-.16-12.222 9.776-8.845 13.783 3.377 3.686 11.74-2.725 12.061-9.296.161-.32.161-.641.161-.801M494.473 419.96c-1.447-3.847-7.398-3.366-9.327.641-.322.641-.483 1.282-.483 1.763-.321 4.327 4.664 5.769 7.88 3.205.804-.641 2.573-2.404 2.091-5.129-.161-.16-.161-.32-.161-.48"/><path fill="#00344A" d="M95.005 448.33c-20.423 33.976-21.388 36.22-46.958 91.672 15.599-36.06 17.207-39.265 46.797-91.352zm.322-.641-.322.48c.161 0 .322-.32.322-.48m-15.439 45.035c-3.86 16.026-7.397 37.502-9.648 53.849 2.09-16.347 6.271-37.823 9.648-53.849" opacity=".302"/><path fill="#00344A" d="M97.256 446.083c-.16 0-.16.16 0 0l-6.111 13.943.16-.16zm-8.202 19.072-8.844 26.284v.481zm-9.166 27.406v-.481l-5.95 25.322-3.86 29.008c2.252-16.187 6.433-37.823 9.81-53.849m21.71-53.369s-.161.16-.161.32c3.538-2.083 8.363-4.487 12.061-6.41l.322-.321c-3.859 1.763-9.327 3.526-12.222 6.411m12.222-6.571-.322.32c4.343-2.083 10.132-4.487 14.474-6.41l.161-.321c-4.342 1.923-9.971 4.488-14.313 6.411m14.474-6.411-.161.321c11.096-4.328 11.096-4.328 11.096-4.648zM110.447 524.134c-8.523 49.202-8.523 51.606-10.453 111.385 1.126-51.606 1.769-54.971 10.453-111.385m2.252-11.379c-.322 1.442-.804 3.526-1.126 4.968 0-.16.161-.16.161-.32zm25.409-85.903-9.649 14.744.16-.16zm-18.977 59.138-6.432 26.605h.16l6.433-26.284zm.161-.32v.16c4.342-14.905 11.096-34.457 16.242-49.202l-.16.16m4.181-10.097-4.021 9.777.161-.161z" opacity=".302"/><path fill="#00344A" d="M111.731 517.563c-.161.161-.161.161-1.448 6.571l.161.161a161 161 0 0 0 1.287-6.732"/><path fill="#00344A" d="M72.812 571.734c-.965-5.609-1.769-13.142-2.573-18.751 0 0 0 .16-.16.16.964 9.777 3.698 22.598 5.628 32.214l.16-.321zm3.056 13.623-.161.321 3.538 12.18c4.502 12.821 11.74 29.168 17.207 41.509-7.076-15.866-15.278-37.502-20.584-54.01m52.426-143.599-3.86 6.09-9.488 15.706v.16zM80.374 527.82c-4.181 4.167-5.79 12.5-8.362 17.789zm34.415-63.947c-10.775 18.751-24.283 44.394-34.254 63.626h.16c8.524-16.988 20.585-39.265 29.752-55.933zM220.281 402.012c1.287 16.828 4.342 39.105 7.076 55.773-2.895-16.508-5.628-38.945-7.076-55.773" opacity=".302"/><path fill="#00344A" d="m227.357 457.783 1.287 6.251z"/><path fill="#00344A" d="M167.697 568.525c-15.599 16.668-35.862 39.426-50.817 56.734zm48.889-167.479q0-.24 0 0l-11.901 18.591v.16zM163.835 491.44c-3.377 3.526-5.146 10.097-7.397 14.424h.16l7.398-14.744zm40.687-71.639c-12.705 21.155-28.787 49.683-40.526 71.319l.161-.161c11.578-21.636 27.821-50.003 40.365-70.998z" opacity=".302"/><path fill="#00344A" d="m163.997 491.12-.161.321.161-.16.161-.322z"/><path fill="#00344A" d="M113.986 604.747c-3.217 9.455-7.559 21.956-10.775 31.412l.161.16 10.614-31.092zm26.213-64.588c-8.363 19.072-18.494 44.875-26.213 64.267v.321c7.558-19.553 18.333-45.196 26.213-64.588m9.97-20.995q-.242 0 0 0l-9.81 20.674h.161zM116.719 625.261c-3.538 4.488-8.202 10.418-11.901 14.905v.16l11.901-14.744zm50.978-56.734v-.161c-15.599 16.668-35.862 39.426-50.817 56.735v.16c14.795-17.309 35.379-40.067 50.817-56.734m47.763-46.638c-9.006 8.494-20.906 19.873-29.751 28.367v.16l19.941-19.232 9.971-9.295zm16.081-14.424v-.16l-15.76 14.263h.322zM290.076 534.872l.161.16c13.026-21.957 30.877-50.805 44.385-72.441v-.32c-13.669 21.636-31.52 50.644-44.546 72.601m63.844-100.969c-.161-.16 0-.16 0 0l-18.976 28.047v.321z" opacity=".302"/><path fill="#00344A" d="M334.623 462.27v.481l.322-.481v-.321z"/><path fill="#00344A" d="M334.463 442.558c-19.62 11.379-45.351 26.925-64.649 38.624 19.298-11.86 45.19-27.245 64.649-38.624" opacity=".302"/><path fill="#00344A" d="m334.783 442.396-.322.161z"/><path fill="#00344A" d="M292.973 466.598c12.382-7.533 29.107-16.988 41.49-24.361-12.543 7.212-29.108 17.149-41.49 24.361M245.052 545.451l-3.217-20.033h-.321c2.251 14.103 5.95 32.855 8.684 46.958h.321zm5.467 27.406h-.321l4.503 19.713.482 1.442h.161zM239.579 509.709s-.161 0-.161.16c.643 4.648 1.447 10.738 2.091 15.386h.321zM260.807 486.631l-.161.32 8.845-5.609.161-.321z" opacity=".302"/><path fill="#00344A" d="m319.022 421.723-.643-.161z"/><path fill="#00344A" d="m292.972 466.598-22.997 14.103-.161.321c19.298-11.86 45.19-27.245 64.649-38.624v-.321c-12.544 7.372-29.108 17.309-41.491 24.521m59.824-34.297-.161-.16-17.851 9.936v.321z" opacity=".302"/><path fill="#00344A" d="M334.461 442.238v.322l.322-.161v-.161z"/><path fill="#00344A" d="M224.945 397.363c13.348 4.007 31.199 8.815 44.546 12.341-13.347-3.526-31.198-8.494-44.546-12.341" opacity=".302"/><path fill="#00344A" d="m269.492 409.703.16.16z"/><path fill="#00344A" d="m251.641 492.563.16.16 8.363-5.449.322-.16v-.321zM251.319 492.723l-5.467 3.686v.16c1.769-1.122 4.02-2.564 5.467-3.846" opacity=".302"/><path fill="#00344A" d="m251.644 492.562-.322.161.161.161.322-.161z"/><path fill="#00344A" d="m220.284 402.011-.161.16c1.287 16.828 4.342 39.106 7.237 55.773-2.895-16.667-5.629-39.105-7.076-55.933m8.362 62.023-.161.161c2.413 8.975 5.468 20.834 7.72 29.809 0 0 .16 0 .16-.16zm-3.538-66.831c9.489 2.885 22.193 6.411 31.681 8.975-9.488-2.564-22.192-6.25-31.681-8.975" opacity=".302"/><path fill="#00344A" d="m227.36 457.783-.161.16c.322 1.924.965 4.328 1.287 6.091l.161-.161z"/><path fill="#00344A" d="m284.93 413.39-.16.16c3.537.801 8.04 1.923 11.578 2.724 0 0 0-.16.161-.16zm72.046-10.578c-.161 7.052-.482 16.668-.804 23.72h.161l.804-23.56zm-.804-91.032q0-.24 0 0c-12.383 6.732-28.625 16.027-41.008 23.079l-.161.16c12.383-7.212 28.786-16.347 41.169-23.239m9.488 4.167h-.161c-5.146 35.74-5.307 37.663-8.523 86.544h.161c2.412-40.547 2.894-43.913 8.523-86.544" opacity=".302"/><path fill="#00344A" d="M356.975 402.492v.322h.321v-.322z"/><path fill="#00344A" d="M317.896 421.24c-3.377-1.602-8.523-1.923-12.061-2.885 0 0 0 .161-.161.161l12.704 3.045zm.643.161.483.32c10.131 2.404 23.8 5.449 33.932 7.693v-.16c-10.292-2.244-23.962-5.449-34.415-7.853" opacity=".302"/><path fill="#00344A" d="m318.541 421.402.482.322zM318.544 421.403l-.644-.161.483.322.643.161z"/><path fill="#00344A" d="M256.787 406.178c-9.488-2.564-22.193-6.25-31.681-8.975l-.161.16c13.348 4.007 31.199 8.815 44.546 12.341l.161-.16zm13.187 3.366-.161.16 14.956 3.686.161-.16zm-43.099-18.751q0 .24 0 0c37.631-25.323 46.315-30.611 88.127-55.773l.161-.161c-41.169 24.521-48.406 29.329-88.288 55.934" opacity=".302"/><path fill="#00344A" d="m269.814 409.543-.322.161.161.161.322-.322z"/><path fill="#00344A" d="M80.211 491.919v-.481l4.503-21.475-4.663 22.277v.48c-.965 10.578-.483 24.682-.161 35.259l.16-.32c-.964-10.738-.482-25.002.161-35.74m8.845-26.925-.804.481c6.754-3.846 15.921-8.654 22.836-12.02-6.593 3.205-15.438 7.853-22.032 11.539m21.067-4.968c-6.433 12.661-13.99 29.81-19.941 42.631 5.468-12.821 13.83-29.81 19.941-42.631" opacity=".302"/><path fill="#00344A" d="M112.857 512.435c-9.81 4.327-22.675 10.417-32.324 14.905h-.161l-.483.16c8.363-20.514 20.585-47.599 30.073-67.633-6.433 12.661-13.991 29.81-19.941 42.631L79.889 527.34l-.16.32v.16l.321-.16h.161c9.488-4.648 22.514-10.577 32.163-14.905h.161l10.292-4.487zm6.432-26.605v-.16l-4.181-20.033c2.251 11.379 6.594 26.284 10.453 37.182zM136.338 383.259c-11.418 15.706-25.248 37.503-35.38 54.01l.161-.16c9.971-16.668 24.283-37.984 35.219-53.85m-41.33 65.068.161-.32c0-.16.16-.16.16-.321zl-.162.321c-2.251 4.327-5.146 10.257-7.397 14.584zm-7.558 16.508 3.538-4.648.16-.16 12.544-15.546zm26.213-32.053-.322.32c-6.915 7.853-15.599 18.751-22.353 26.925l-.161.16-3.538 4.648c18.494-24.04 21.067-26.604 51.3-58.658-7.397 7.693-17.368 18.591-24.926 26.605m26.535-54.171c-1.287 2.244-3.378 5.61-3.217 8.334.322 4.808 2.252 11.059 4.664 15.065-1.608-1.923-4.02-4.968-4.181-7.532-.322-4.808.965-11.379 2.734-15.867" opacity=".302"/><path fill="#00344A" d="M111.25 453.455c-6.915 3.366-16.082 8.174-22.836 12.02zm-22.836 12.02c-1.608.962-1.608.962-1.93 1.282l2.413-1.602c2.251-1.282 5.146-3.206 7.558-4.327m43.42-55.613v-.16l-.965.961c-23.479 24.04-23.961 24.681-51.46 58.818l16.081-20.354 9.97-11.539.322-.32M157.083 512.434c0 .16 0 .16-.161.32 11.739 2.084 27.499 4.488 39.4 6.251l.161-.321c-11.901-1.602-27.661-4.327-39.4-6.25m84.75 12.821h-.322l-25.57-3.526h-.321l-19.137-2.724-.161.32 18.976 2.725h.322l25.891 3.686h.322a79 79 0 0 1 5.628.801v-.32zm-1.448-16.026c-.16 0-.16.16-.16.16 2.412 4.327 5.789 10.097 8.201 14.424l.161-.16z" opacity=".302"/><path fill="#00344A" d="m196.32 519.004.161-.16zM196.481 518.844l-.161.161.161.16.161-.321z"/><path fill="#00344A" d="M204.682 419.799v-.16l-2.895-14.744 2.734 15.065v.16c3.538 13.783 9.488 31.733 14.313 45.035l.16-.16c-4.985-13.463-10.453-31.573-14.312-45.196m14.473 45.356-.161.16 2.734 6.411.161-.321zm2.573 6.25-.161.321c3.538 7.532 8.363 17.629 12.062 25.162 0 0 0-.16.16-.16z" opacity=".302"/><path fill="#00344A" d="m218.995 464.996-.161.16.161.161.161-.161zm2.734 6.25-.161.321v.16l.161-.32z"/><path fill="#00344A" d="M130.546 507.305c0 .16 0 .16-.161.32l1.93.481.321-.16zm2.573.641-.322.16c5.146.962 11.9 2.404 17.047 3.366 0 0 0-.161.16-.161z" opacity=".302"/><path fill="#00344A" d="m132.798 507.787-.321.322h.321l.322-.161z"/><path fill="#00344A" d="m115.107 465.636-.161-1.923v-.16c-.161-2.244-.322-5.289-.482-7.533l-.161.16.482 7.533v.16c.804 6.731 3.056 15.386 4.503 22.117v.16l6.272 16.668c-4.021-10.898-8.041-25.803-10.453-37.182m77.192-57.696c-27.178 37.182-27.822 38.144-61.111 91.833 23.48-38.785 27.822-44.715 61.111-91.833M128.297 426.37l-.161.32-9.81 17.95 4.986-9.295 4.824-8.655zm15.438-23.88c7.076-.801 16.403-1.763 23.318-2.404-7.075.641-16.403 1.603-23.318 2.404m-8.041 33.977-7.076 4.968-.16.16-10.614 8.013 10.453-7.692.161-.161 7.076-4.968.16-.16c9.328-6.411 22.032-14.424 31.52-20.514l25.088-14.905c-23.319 13.302-25.249 14.584-56.608 35.259M138.589 397.042c-1.447-2.885-1.769-7.373-1.608-10.578.161-2.564 2.251-5.77 3.216-8.174l-.161.161c-3.377 5.769-3.377 5.769-2.733 16.026.16 2.565 2.894 5.129 4.181 7.373v-.161zm75.423-94.077c-35.54 32.374-35.54 32.374-68.99 69.395 12.865-14.263 29.912-33.656 44.063-46.637 7.559-6.731 17.851-15.546 24.927-22.758m-69.633 95.839c24.283-44.233 40.364-62.343 69.311-95.198-33.449 34.938-46.154 56.414-69.311 95.198" opacity=".302"/><path fill="#00344A" d="M213.851 303.606q-.242.241 0 0c-33.611 35.099-46.315 56.414-69.312 95.199 24.123-44.234 40.204-62.344 69.312-95.199m-46.798 96.321c-7.076.801-16.403 1.763-23.318 2.564l-.161.16c28.465-3.045 28.465-3.045 50.496-5.449-8.201.802-18.976 1.923-27.017 2.725m48.406-97.603-.161.16c-28.625 35.58-22.032 64.428-16.564 87.667-13.508-43.273 2.573-66.992 16.725-87.827M304.712 410.663c-.161.16-.161.481-.321.641h.16zm7.559-13.943-7.398 13.622.161.161 7.397-13.623zm48.405-80.454q-.241 0 0 0c-19.619 30.13-20.102 31.091-48.245 80.133h.161c18.172-32.374 20.906-36.861 48.084-80.133" opacity=".302"/><path fill="#00344A" d="m312.43 396.562-.16.161.16.161.161-.322zM304.87 410.344l-.161.321h.161l.161-.16z"/><path fill="#00344A" d="m272.226 449.128-11.579 37.663-.161.32-3.377 11.86.161.16 3.377-12.34.161-.321 11.579-37.502zm18.172-50.644-5.629 14.905-.16.16-12.383 35.259h.161l12.382-35.259.161-.16zm1.769-4.488-1.608 4.167.161.161 1.608-4.167zm8.362-19.873h-.16l-8.041 19.713h.161zm56.929-59.619c-13.991 13.302-32.484 31.412-46.315 45.035 13.67-13.623 32.324-31.573 46.315-45.035" opacity=".302"/><path fill="#00344A" d="m292.329 393.836-.161.161.161.161.161-.322zM290.56 398.164l-.161.321.161.16zM272.229 448.969l-.161.321h.161l.161-.321z"/><path fill="#00344A" d="m256.95 499.453-5.79 22.277h.161c1.769-6.571 4.021-15.546 5.79-22.117z" opacity=".302"/><path fill="#00344A" d="m257.112 499.133-.161.321.161.161.161-.321z"/><path fill="#00344A" d="m286.699 445.443-17.046 35.579-.161.321-9.488 21.155.161.16 9.649-21.475.16-.321 16.886-35.419zm11.418-22.117-11.257 21.796h.161z" opacity=".302"/><path fill="#00344A" d="m286.862 445.121-.161.322h.161l.161-.322z"/><path fill="#00344A" d="m260.004 502.818-8.041 18.912h.161a2235 2235 0 0 0 8.04-18.912z" opacity=".302"/><path fill="#00344A" d="M260.004 502.496v.322l.161.16v-.321z"/><path fill="#00344A" d="M343.467 272.036c-10.775 20.514-11.096 21.315-28.625 62.825l-.161.16-9.81 27.085 9.971-27.085.161-.16c9.648-24.201 10.292-25.643 28.464-62.825m13.991 42.631c-14.152 13.302-32.646 31.412-46.315 45.035l-3.216 3.526c14.634-14.745 34.575-34.137 49.531-48.561m-11.74-43.753c-.16 0-.16.16-.16.16 4.985 8.494 12.222 19.393 17.85 27.406 0 0 .161 0 .161-.16-5.629-8.014-12.704-19.072-17.851-27.406M313.558 254.245c-50.175 50.965-75.584 87.826-105.013 130.457 44.546-66.51 73.975-97.602 105.013-130.457m28.625 17.309c-64.648 50.163-94.399 79.012-132.03 115.713 51.622-51.126 85.715-79.012 132.03-115.713M336.554 263.218c-4.664-3.526-10.293-9.135-14.313-13.302l-.161.16 8.845 8.975c3.699 2.885 8.684 6.732 12.544 9.456l.16-.16zm62.396-75.485c-29.429 18.911-39.078 26.924-71.402 53.529 36.666-30.291 37.309-30.772 71.241-53.529-26.373 23.559-39.239 50.484-52.747 79.011 20.745-46.798 35.701-61.863 53.069-79.172zM352.635 432.14c.643 2.564 4.342 2.885 6.593-.481l.161-.16zm7.397-3.847a3.1 3.1 0 0 0-.804-1.442c-2.573-2.083-6.915 1.442-6.432 4.968 2.09-.16 4.824-.48 6.915-.641.16-.481.643-1.442.482-2.564-.161 0-.161-.16-.161-.321" opacity=".302"/><path fill="#00344A" d="m352.635 432.141 6.754-.641zM352.635 431.981v.16c1.93-.16 4.664-.481 6.593-.641 0-.16.161-.16.161-.32z"/><path fill="#00344A" d="M226.875 392.875c.643-3.526-1.608-4.648-4.664-2.404-4.824 3.526-7.558 11.379-4.181 12.02.643.16 1.447 0 2.251-.481 3.86-2.244 5.951-6.411 6.433-8.815 0-.16.161-.16.161-.32M246.012 497.369c-.321-6.411-6.432-7.533-11.096-2.084-2.573 2.885-4.664 7.853-3.377 12.02 1.93 5.93 9.327 4.007 12.865-3.205 1.126-2.083 1.608-4.327 1.608-6.731q0 .24 0 0M102.887 436.95c.965-1.603 1.93-3.687 1.769-4.167-1.286-.161-9.81 13.783-9.166 15.065.804.16 4.663-5.93 7.076-10.257 0-.161.16-.481.321-.641M144.539 418.839c-.965 2.725-3.377 5.93-4.825 6.571-.321.161-1.447.481-.321-2.564 1.125-2.725 3.377-5.609 4.663-6.09.804-.321.965.481.483 2.083m.804-.641c.643-1.763.643-2.885.161-3.045-1.769-.641-8.524 8.494-7.559 11.7.965 1.602 5.147-3.206 7.237-8.014 0-.32.161-.48.161-.641M157.563 509.071c0-3.526-2.251-4.488-4.824-2.084-4.181 3.846-5.468 12.341-1.93 12.341 2.734 0 6.272-4.969 6.754-9.616zM306.644 414.031c-.643-4.327-5.95-4.006-9.327.641-3.217 4.648-1.769 9.456 2.573 8.655 3.538-.641 6.915-4.969 6.754-8.655.161-.16 0-.32 0-.641" opacity=".302"/><path fill="#00344A" d="M144.54 418.838c.643-1.602.482-2.564-.483-2.243-2.251.801-6.272 8.173-4.824 8.814.964.321 3.859-3.045 5.146-6.25 0 0 0-.16.161-.321M371.931 302.966c0 1.122-.483 2.244-1.608 3.366-2.252 2.243-5.629 2.564-5.629-.161 0-.481.161-1.442 1.287-2.724 2.251-2.725 5.789-3.045 5.95-.481m6.754-2.885c-.322-2.885-2.251-4.808-5.468-5.128-9.005-.802-21.549 12.5-15.92 19.552l.16.16c5.629 5.93 20.906-3.846 21.228-13.622zM253.407 523.814c-.321-2.404-2.894-2.885-4.985-.161-1.769 2.404-1.126 6.251 1.447 5.77 1.448-.321 3.538-2.244 3.538-5.289zM347.65 268.028c.322-1.603-1.447-1.763-3.377-.321-.161.161-.482.321-.804.642-1.769 1.762-2.091 3.686-.483 3.686 1.287 0 3.86-1.603 4.664-3.847zM123.15 513.716c1.126 1.763 3.86.321 6.111-3.525zm8.524-10.577c.321-2.244-.161-3.686-1.287-4.007-3.538-1.122-9.327 10.257-7.397 14.264 1.929-1.122 4.824-2.084 6.432-3.686 0 0 1.448-2.244 2.091-5.61.161-.16.161-.641.161-.961" opacity=".302"/><path fill="#00344A" d="M122.988 513.557s0 .16.161.16c1.769-1.121 4.342-2.404 6.111-3.525 0-.161.161-.161.161-.321z"/><path fill="#00344A" d="M209.829 390.951c1.447-5.93-1.447-8.173-6.272-5.128-4.664 2.885-9.81 9.936-11.418 15.706-1.769 6.09.483 9.135 5.307 6.571 3.377-1.763 9.488-7.693 12.222-16.508.161-.16.161-.48.161-.641M308.569 365.307c0-3.846-4.181-4.327-7.88-.801-4.021 3.846-4.342 9.456-.322 9.616 2.895.16 7.719-3.526 8.202-8.494zM371.932 302.965c-.161-2.404-3.699-2.244-5.95.321-2.091 2.404-1.447 4.968.965 4.808 1.93-.161 4.824-2.084 4.985-4.969zM144.537 400.888c.643-1.442.804-2.404.321-2.244-1.608.481-6.111 7.373-5.146 8.014.644.481 3.056-2.244 4.825-5.61-.161 0 0-.16 0-.16M327.228 244.149c1.286-2.404.643-3.526-1.608-2.885-5.79 1.602-14.956 11.218-12.222 12.981 1.608.962 6.271-1.763 8.844-4.167 3.056-2.564 4.343-4.647 4.825-5.449-.161-.16 0-.32.161-.48M117.843 449.288c1.447-3.846.965-4.647.321-4.808-2.894 0-10.453 13.944-8.362 15.546 1.286.962 5.95-5.128 8.041-10.738M143.573 374.284c2.734-3.526 3.056-4.007 3.056-4.167-.804.481-10.132 12.18-10.936 13.623.161-.16.965-.962 4.342-5.129 1.448-1.763 2.573-3.365 3.217-4.006.161 0 .161-.161.321-.321M87.126 465.637c.804-1.603 1.126-2.564.965-2.725-.482-.16-2.251 2.885-2.894 4.007-1.609 2.885-2.252 4.808-2.091 4.968.322.321 2.412-2.884 4.02-6.25M218.835 299.118c1.286-1.442 1.447-1.602 1.447-1.763-.965.321-6.593 5.93-6.915 6.571.161 0 .161 0 .322-.16.643-.481 2.573-2.083 4.824-4.487.161 0 .161-.161.322-.161" opacity=".302"/></svg>