<svg xmlns="http://www.w3.org/2000/svg" width="560" height="269" fill="none"><path fill="#00344A" d="M589.618 26.169c14.615 11.298 14.841 11.524 23.225 23.387l.226.113c-12.688-16.043-13.255-16.608-23.337-23.387zm23.338 23.5 3.398 5.197h.114c-1.02-1.582-2.379-3.616-3.399-5.197zm-29.229-25.534c-9.629-2.033-24.244-.452-43.163 4.745h.227c23.451-5.649 24.81-5.988 43.163-4.745-.113.113-.113 0-.227 0m-51.206 7.57.226.113 7.93-2.825h-.226zm86.326 27.454c2.832 5.649 6.684 13.218 9.176 18.98h.114c-2.719-5.762-6.005-13.444-9.064-18.98zm-86.44-27.454-14.387 6.44c.113 0 .113 0 14.501-6.327zm-7.364 11.524c41.124 12.202 50.981 15.139 95.163 35.475-46.788-21.353-47.581-21.692-95.163-35.475"/><path fill="#00344A" d="m644.227 62.323 23.678 11.637.226.113 22.885 12.992-22.771-12.992-.227-.113zm-2.152 2.711 22.318 9.151.226.114 26.51 13.105L664.733 74.3l-.227-.114zm-62.989-26.211c10.196 3.276 23.904 7.118 33.873 10.733l.227.113 30.815 12.54-30.928-12.54-.227-.113zm-14.274 6.44.226.113c14.388 2.824 33.534 6.553 47.808 10.28-14.387-3.389-33.533-7.908-48.034-10.393m0 .113-.227-.113c-12.122-1.356-28.322-3.39-40.557-4.18 0 0 .113 0 .113.113M503.522 22.33l.453.113c10.989 1.92 25.717 4.067 36.593 6.44h.226l27.19 6.779-27.076-6.779h-.227c-11.216-2.034-26.057-5.084-37.159-6.553m-14.727-1.807c4.305.564 10.196 1.242 14.614 1.807l-.453-.113-13.595-1.694zm57.664 16.607.226.113 2.493-.113h19.939c-.793-.564-2.266-.113-3.286-.226zm-79.643-18.415 15.521 1.13c-.566 0-.566 0-15.521-1.13m-1.246.678 12.349 4.519.113-.113-12.235-4.52c-.113 0-.113 0-.227.114m55.852 19.997 25.15-2.147-.227-.113-25.036 2.147c0 .113 0 .113.113.113m-43.277-15.478c8.837 4.067 20.732 9.264 29.456 13.783-8.724-4.18-20.392-10.055-29.456-13.783M575.12 19.73l2.266.679c-.793-.226-1.587-.452-2.266-.678q-.171 0 0 0m2.379.905c.453.113 1.133.339 1.586.452-.113 0-.113 0-1.699-.452 0-.113.113-.113.113 0m-113.742-17.4c7.816-.225 49.847-.451 110.117 16.157C530.257 8.772 495.817.412 430.336 4.14h.114m146.029 16.156c-41.917-11.185-70.352-7.909-95.389-5.084h.5660000000000001c15.521-1.582 36.366-3.05 52-2.26 13.028.678 30.248 4.406 42.936 7.344zm-110.683-2.26 10.536-1.92c.113 0 .226-.113.226-.113-3.285.564-7.59 1.468-10.876 2.033zM425.918 5.61c10.876 2.824 25.263 7.682 35.573 11.975-10.31-4.406-24.584-9.264-35.46-12.088.114.113 0 .113-.113.113"/><path fill="#00344A" d="M461.942 19.278c-1.699-.226-2.492-.791-1.813-1.243 1.36-.904 6.911-.339 6.685.678-.114.565-2.04.904-4.645.565-.114.113-.227 0-.227 0M417.195 6.172c-3.398 0-6.57-.225-6.004-.903 1.586-1.47 18.919-2.26 19.486-.791-.453.904-6.911 1.582-12.915 1.694z"/><path fill="#00344A" d="M622.023 160.052c11.555 35.023 11.555 35.023 18.013 56.15-11.556-37.396-11.556-37.396-17.9-56.15zm-12.349 38.3v.112l28.549 18.529zm-49.167-27.003h-.227c14.954 7.909 34.667 18.529 49.281 27.003v-.113m-90.178-46.661c17.56-.339 41.01-.339 58.57.339-17.56-.452-41.01-.791-58.57-.339m-.113 1.356c12.235 5.423 28.662 12.428 40.67 18.302h.227c-12.235-5.648-28.436-13.218-40.897-18.415z" opacity=".302"/><path fill="#00344A" d="M606.049 88.084c-27.303 14.122-27.869 14.348-46.109 27.228 27.643-18.303 28.662-19.093 46.109-27.228m5.325 2.034c4.305 26.324 4.758 29.148 9.063 63.494-1.246-10.394-2.946-24.178-4.305-34.572-1.36-8.699-3.059-20.336-4.532-28.922 0 .113-.113 0-.226 0m-10.196 63.833.113.113 15.634 2.146v-.112c-4.758-.678-10.989-1.582-15.747-2.147m-8.157-.904.226.226 7.931.904-.114-.113zm-.34 0-12.802-1.017.453.226 12.575 1.017zm-73.298-1.469c17.56-.339 41.01-.339 58.57.452l1.926.113-.453-.226c-18.013-.565-42.143-.904-60.156-.452.113 0 .113.113.113.113" opacity=".302"/><path fill="#00344A" d="M513.606 75.091c48.487 2.26 51.319 2.373 89.951 9.49-46.335-7.908-48.035-8.247-89.951-9.49q0-.17 0 0m-14.728-.113.226.113 6.458-.113s0-.113-.113-.113c-2.04 0-4.645.113-6.571.113m-33.42 1.469-.114.113 33.534-1.469-.227-.113zm-.34 0-3.172.226.566.113 2.379-.226zm-5.098.565c.566 0 1.473-.113 2.039-.113l-.566-.113zm99.921 38.3.113.113c27.643-18.303 28.662-19.094 46.109-27.228l-.114-.113c-27.302 14.122-27.755 14.348-46.108 27.228m-102.98-34.798 1.699 1.695.114-.113-1.586-1.582c-.114-.113-.114-.113-.227 0m95.276 40.673 7.704-5.649-.114-.113-1.019.678-6.798 4.971c.114 0 .227.113.227.113m-93.463-38.978 17.673 18.641.113-.113-17.673-18.754zm17.786 18.867 5.551 6.44.113-.113-5.551-6.327zm69.559 24.63-12.348 10.055.227.113 12.235-10.055zm-63.895-18.077 14.841 18.303.227.113-15.068-18.529zm35.913 42.367 15.861-14.009-.227-.113-15.747 14.009s0 .113.113.113m-20.845-23.838 17.22 23.274h.113c-5.098-7.005-12.009-16.269-17.107-23.161z" opacity=".302"/><path fill="#00344A" d="m458.996 79.61 1.813.677.113-.113-1.813-.678zm2.039.677c9.97 4.067 23.338 9.264 33.081 13.783l.226-.113c-9.969-4.18-23.111-9.942-33.307-13.67m33.194 13.896 4.871 2.26.114-.113-4.758-2.26zm4.985 2.26c13.708 7.005 31.947 16.495 45.202 24.291-13.368-7.57-31.381-17.512-45.089-24.291zm101.96 57.619 6.004 6.214-5.777-6.101-.114-.113c-12.122-11.749-28.435-27.228-41.124-38.526l-.113-.112c-7.477-5.988-17.333-14.236-25.037-19.885 7.477 5.988 17.56 13.784 24.924 19.997l.113.113c12.575 11.298 29.002 26.551 41.011 38.413zm-8.27-.903 11.555 8.812-11.329-8.699-.226-.226c-11.782-8.248-27.416-19.207-39.425-26.889 11.782 7.908 27.643 18.528 39.198 26.889zm23.111 16.608 2.605 2.824h.114c-.793-.904-1.813-2.034-2.719-2.824q.17 0 0 0m-.907.564 3.059 2.486.114-.113a60 60 0 0 0-3.059-2.486zM457.637 51.138l.227.113 1.359-6.78h-.227c-.339 2.034-.906 4.746-1.359 6.667m3.965-6.892c7.59 4.406 17.9 10.055 25.377 14.8l.113-.113c-7.59-4.406-17.56-10.62-25.377-14.8 0 .113 0 .113-.113.113m25.603 14.913 19.486 13.67h.114c-5.892-4.067-13.708-9.603-19.486-13.67zm24.811 17.738 15.067 12.315h.114c-4.532-3.729-10.423-8.587-14.955-12.315zm5.891 12.202 7.25 1.807v-.113c-2.152-.565-4.984-1.243-7.024-1.807-.113.113-.226.113-.226.113m-60.27-37.735c-1.359 6.891-3.172 16.042-4.305 22.934h.113c1.246-6.892 2.946-16.043 4.419-22.821zm5.438 27.115-.113.112c12.801 2.147 29.795 4.859 42.483 7.57l6.118 1.356c-14.615-2.825-33.874-6.779-48.488-9.038m-3.059-.226c.793.112 1.813.225 2.606.338l.113-.112zc.113-.113 0-.113 0 0M478.029 23.799l.226.113 4.645-3.842h-.227c-1.359 1.017-3.285 2.599-4.644 3.729m0 .113-8.157 7.682h.226l8.157-7.682zm26.283 23.725-.114.113c40.671 7.457 67.521 12.428 115.669 31.747-88.366-33.215-115.329-31.973-115.555-31.86m-34.554-16.043-9.289 10.055h.113c2.832-3.05 6.571-7.004 9.29-10.055zm-6.797 11.637c12.349 1.243 28.776 2.599 41.124 4.406l.113-.113c-12.461-1.355-28.888-3.502-41.237-4.293" opacity=".302"/><path fill="#00344A" d="M478.031 23.912V23.8l.227.113h-.227"/><path fill="#00344A" d="m494.457 19.957 8.497 2.26.453.113zq.17 0 0 0m8.95 2.373 29.002 9.377h.113l-28.662-9.264zm29.115 9.49 13.708 5.31h.227zm13.935 5.423 18.013 7.908h.226L546.57 37.13zm18.353 8.134c17.333 9.039 39.991 22.031 56.644 32.425-16.54-10.394-39.085-23.273-56.418-32.312z" opacity=".302"/><path fill="#00344A" d="M532.406 31.707h.114l.113.113h-.113zM546.343 37.128l.226.113h.227l-.227-.113z"/><path fill="#00344A" d="M514.62 153.612c-2.266-1.129-2.266-3.389-.113-4.18 2.379-.791 5.891 1.243 4.758 3.39-.453.903-2.039 1.807-4.418.79zM546.91 126.157c-3.625-1.808-4.192-5.197-.906-6.214 4.191-1.242 9.742 2.599 8.156 5.536-.793 1.13-3.285 2.373-7.25.678M449.705 75.09c-.113 0-.113.114-.226.114 3.058.338 7.137.903 10.196 1.242-1.7-2.26-6.911-2.937-9.97-1.355m1.473 5.198c.34.113.793.225 1.133.225 5.438.904 9.063-1.694 7.477-4.067-3.172-.339-7.364-.904-10.423-1.242-2.832 1.807-1.246 4.18 1.813 5.084M507.486 76.559c-2.492-1.017-2.946-2.825-1.02-3.616 2.946-1.242 8.044.904 7.024 2.938-.566 1.13-2.832 1.695-5.664.79-.113 0-.227-.112-.34-.112M457.865 44.249c-1.925-.452-2.492-1.47-1.246-2.147 2.04-1.13 6.684-.226 6.344 1.243-.226.904-2.605 1.355-4.758 1.017-.113-.113-.226-.113-.34-.113M528.101 94.862c-.793-.339-3.399-1.807-3.059-3.954.906-3.163 8.837-2.373 10.989 1.13 1.586 2.598-1.586 4.519-5.891 3.615-.793-.226-1.359-.452-1.586-.565-.227 0-.34-.113-.453-.226M476.671 15.889c1.246-.226 3.059-.452 4.305-.678-1.813.113-3.285.339-4.305.678m4.305 3.728c2.492.565 5.891.678 8.383.904 6.684-.113 6.911-1.582 6.118-2.373-.34-.338-2.266-1.92-9.516-2.711-3.286-.339-3.286-.339-9.517.678-1.925 1.017.114 2.26 2.493 3.05.453.113 1.359.34 2.039.452m7.704.904-6.345-.678a30.3 30.3 0 0 0 6.345.678" opacity=".302"/><path fill="#00344A" d="M482.223 19.957c-.114 0-.34-.113-.453-.113 2.265.226 5.324.565 7.59.79-.567 0-.567 0-7.024-.677zM476.448 16.002c.227-.113.227-.113 4.645-.791h.567c-1.586.226-3.739.565-5.212.79q-.17 0 0 0M546.683 258.228l-.226.226h.34l.113-.113c-.113-.113-.227-.113-.227-.113m-109.55-5.649c47.241-1.695 51.093-1.808 86.1-.452-47.129-1.243-48.941-1.243-86.1.452m-1.02 2.485c10.083 8.135 23.678 19.094 33.647 27.454-10.083-8.247-23.451-19.319-33.647-27.454m71.712 55.812c24.244-34.007 25.264-35.362 38.745-52.309h-.34c-24.697 32.199-25.15 32.764-38.518 52.196 0 .113.113.113.113.113"/><path fill="#00344A" d="M469.761 282.52c9.969 8.587 23.45 19.997 33.307 28.697l-4.532-4.293c-32.061-27.567-37.839-32.538-62.309-51.971 10.083 8.248 23.564 19.094 33.534 27.567m-33.987 10.507c20.052 5.536 46.675 13.332 66.614 19.546-19.826-6.214-46.449-14.123-66.501-19.659-.113 0-.113 0-.113.113M312.969 251.225c15.747 36.831 15.747 36.831 31.608 71.855-14.728-32.425-14.728-32.425-31.608-71.855m-117.028 93.547c31.382-29.827 60.95-58.071 109.211-95.581-34.326 27.454-61.403 49.033-109.211 95.581m.34 2.259c45.203-7.682 87.233-14.348 144.671-18.189-39.765 2.824-71.259 5.197-144.557 18.076-.114 0-.114 0-.114.113"/><path fill="#00344A" d="M312.969 251.224c15.86 36.945 15.86 36.945 31.607 71.855-14.954-33.329-14.954-33.329-31.494-71.855zm39.538 74.341c42.483-19.885 45.995-21.579 70.692-31.747-18.126 7.682-42.03 18.189-59.817 26.324l-10.989 5.31c.114 0 .114.113.114.113M429.543 252.354c-11.216-1.13-26.17-2.825-37.386-3.841 11.216 1.242 26.17 2.485 37.386 3.841m3.285 3.615-3.059 29.375h.114c.906-8.813 2.152-20.562 3.172-29.375zm-114.875-8.36c35.799 12.54 59.477 20.788 105.246 41.011-40.105-17.512-45.203-19.771-83.154-33.668l-21.979-7.569c0 .113-.113.226-.113.226M484.265 175.416l14.728 16.382.113-.113-14.728-16.382c0 .113 0 .113-.113.113m14.954 16.608c6.798 7.908 15.861 18.415 22.545 26.55l-.113-.339c-6.684-7.909-15.408-18.529-22.318-26.211zM521.99 218.8c7.251 9.038 16.994 21.127 24.244 30.278-7.25-9.264-16.88-21.579-24.244-30.73zm6.798 33.555v.226l14.954 1.129v-.226c-4.532-.339-10.536-.79-14.954-1.129m-5.551-.339.113.226 5.098.339v-.226zm-88.479-2.26c19.712-35.588 22.318-40.221 37.952-65.189-20.053 32.764-22.545 36.944-37.952 65.189m.226.113c19.713-35.588 22.205-40.221 37.839-65.076-20.392 33.329-22.545 36.831-37.839 65.076m2.153 2.712c47.355-1.695 51.207-1.808 86.1-.339l-.114-.226c-15.634-.452-36.479-.904-51.999-.904l-33.874 1.243c-.113.113-.113.226-.113.226"/><path fill="#00344A" d="m467.835 175.868.113.113 8.27-2.598-.113-.113c-2.379.79-5.778 1.807-8.27 2.598m4.984 8.474.114.225 5.891-9.151s-.114 0-.114-.113a621 621 0 0 1-5.891 9.039m-37.838 65.527c19.372-35.023 22.318-40.333 37.838-65.076l-.113-.226c-20.052 32.764-22.544 36.945-37.952 65.19.114.113.114.112.227.112m-117.368-8.699c42.144-22.596 75.451-40.334 150.108-65.076l-.113-.113c-70.466 24.065-100.601 37.961-150.108 65.076.113 0 .113.113.113.113m1.246 3.954c45.203 1.017 45.203 1.017 73.299 3.39 11.215 1.13 26.169 2.485 37.385 3.841-33.76-3.728-65.708-7.231-110.684-7.344zM221.658 238.007c10.423.452 24.357.904 34.78 1.469zm-28.435 105.297c2.265-38.752 2.719-46.773 6.344-87.898-2.832 33.555-3.852 44.853-6.344 87.898m2.605 1.469c31.495-29.94 61.29-58.184 109.211-95.581-37.839 29.94-52 41.125-103.32 89.593l-6.004 5.762a.35.35 0 0 1 .113.226M393.292 114.859l.114.113 8.496-10.733h-.226c-2.493 3.164-5.891 7.457-8.384 10.62m-56.078-.903c13.935-3.051 32.514-7.118 46.562-9.604-14.048 2.712-32.741 6.327-46.562 9.604m-.113.113c13.934-3.051 32.627-7.118 46.675-9.604-14.048 2.712-32.741 6.327-46.675 9.604m-36.706 9.942c12.235-2.599 25.49-7.344 36.479-10.055-10.875 2.937-25.603 6.778-36.479 10.055m.113.113c10.876-3.051 25.377-7.344 36.48-10.055-10.989 3.05-25.717 6.778-36.48 10.055m65.595 28.583c8.043-11.41 18.806-26.437 27.189-37.509l-.113-.113c-8.27 11.185-19.259 26.212-27.189 37.622-.114-.113 0 0 .113 0m-5.211 7.231-15.748 24.517h.227l15.747-24.517c0 .113-.113.113-.226 0 .113.113.113 0 0 0m-15.748 24.743c-9.629 16.156-22.318 37.848-31.494 54.23 9.29-16.382 21.978-38.074 31.721-54.23z"/><path fill="#00344A" d="m172.492 204.906.113 1.13s.114 0 .114-.113c0-.339-.114-.791-.114-1.13 0 .113-.113.113-.113.113m.227 1.695.226 1.581.227-.113-.227-1.581c-.113.113-.226.113-.226.113m.226 1.807 1.926 14.01.227-.113-1.926-14.01zm27.076 42.255.907-8.361h-.227c-.226 2.486-.566 5.875-.68 8.361q-.17 0 0 0m-25.15-28.132c1.246 9.377 2.946 21.918 4.192 31.295h.227c-1.247-9.377-2.946-21.918-4.192-31.295zm19.033 104.732-.906 16.043c2.492-40.786 3.398-52.762 6.457-87.898-3.172 35.701-3.852 43.158-5.551 71.855m-14.728-73.324c4.872 35.362 7.93 56.829 13.142 89.593-7.591-50.954-9.063-61.009-12.915-89.593zM184.27 192.25v.113c10.196-8.36 23.678-19.658 34.1-27.793-10.309 8.248-24.13 19.207-34.1 27.68m27.756 1.921c2.379-8.813 5.551-20.562 8.044-29.262zm7.93-29.375c-2.492 8.813-5.777 20.562-8.043 29.375 2.379-8.813 5.551-20.562 8.043-29.375m-43.163 34.007 7.364-6.327v-.113zm-2.039 1.808c.453-.339.906-.791 1.359-1.13l-.113-.113c-.34.339-.906.791-1.246 1.243q0-.17 0 0m-1.246 3.615.68.791.113-.113c-.227-.226-.453-.565-.68-.791 0 .113 0 .113-.113.113m1.133 1.243 1.472 1.582.227-.113-1.473-1.582c-.113 0-.226 0-.226.113m1.472 1.694 8.497 9.943.227-.113-8.497-9.942zm10.083 11.75 6.231 7.796-.113-.452-7.477-9.264-.227.113zm15.974 14.801c2.152-8.7 4.871-20.337 7.024-29.036-2.153 8.586-4.985 20.223-7.024 29.036m-9.516-6.666 6.231 8.021.113-.113c-1.926-2.485-4.532-5.875-6.458-8.36z"/><path fill="#00344A" d="M222.111 163.893c6.231 4.745 14.614 10.846 20.618 15.817-6.117-4.858-14.274-11.298-20.618-15.817m-2.153.903c-2.492 8.813-5.777 20.563-8.043 29.375l.226-.113c2.379-8.812 5.551-20.562 8.044-29.262zm-8.157 29.488-2.605 10.055.226-.113 2.606-10.055zm-2.605 10.281c-2.153 8.7-4.985 20.336-7.024 29.036l2.945-11.976 4.192-17.173zm12.462 33.442-.227.113c41.124 1.582 42.71 1.695 82.928 6.214-14.275-1.582-33.421-3.728-47.808-4.858m-49.168-1.582-.113.113 13.821.113.227-.113zm-1.586.113h1.36l.113-.113h-1.36z"/><path fill="#00344A" d="M299.263 178.694h.227c-1.7-10.281-4.079-24.064-5.778-34.459l-1.926-11.072 2.832 17.286c1.36 8.587 3.286 19.772 4.645 28.245m-77.15-14.8c6.231 4.745 14.615 10.846 20.619 15.817l.113-.113c-6.117-4.745-14.274-11.298-20.618-15.817zm20.732 15.93 4.418 3.728.227-.113-4.532-3.841zm56.418-.904 2.039 12.089.227-.113-1.926-11.976zm-50.527 5.875 1.02.904.226-.113-2.265-1.921-.227.113zm1.133.904c6.911 6.214 16.087 14.574 22.771 20.901l.227-.113c-6.798-6.327-15.861-14.8-22.771-20.901zm51.433 5.536c2.379 14.461 5.552 33.781 8.044 48.242-2.379-14.461-5.438-33.781-7.817-48.355zm-28.549 15.591c10.197 10.168 23.678 23.839 33.647 34.233-9.969-10.394-23.224-24.178-33.533-34.346zM257.686 89.44l3.625-5.989h-.226c-1.02 1.695-2.493 4.068-3.399 5.988-.113 0-.113-.113 0 0m-3.965 6.552v.226l1.473-2.486c-.114 0-.227 0-.227.113-.453.565-1.133 1.356-1.246 2.147m9.29-13.219c4.191 5.536 9.629 12.88 13.368 18.642-3.852-5.649-9.063-13.332-13.368-18.642m-9.517 13.445c-3.512 6.553-8.383 15.252-11.782 21.805l.227-.113c3.512-6.44 8.043-15.139 11.669-21.466zm34.327 25.646c-3.399-6.101-7.817-14.348-11.442-20.336 3.512 6.101 8.27 14.122 11.442 20.336m-11.556-20.223c3.512 6.101 8.157 14.122 11.443 20.336-3.399-6.214-7.817-14.348-11.443-20.336m-14.84 39.204v.113l19.599-9.377v-.113c-5.891 2.824-13.708 6.552-19.599 9.377m-38.179 15.817.114.113c5.437-11.637 12.688-27.115 18.466-38.526l-.227.113c-5.551 11.298-13.028 26.663-18.353 38.3m4.645 1.921h.113c9.97-5.31 23.225-12.541 33.307-17.625v-.113l-13.594 7.005zm-4.645-1.808-1.699 3.728h.113c.453-1.13 1.133-2.598 1.586-3.728m.114 4.406 4.418-2.485h-.114z"/><path fill="#00344A" d="M264.594 81.643c34.213-.904 35.573-.904 57.211 1.355-35.573-2.485-36.932-2.598-57.211-1.355m119.293 22.709 12.349-1.808-.113-.113c-3.626.565-8.497 1.356-12.236 1.921M270.711 93.167l5.552 8.36.226-.113c-3.852-5.649-9.063-13.332-13.368-18.642 0 0-.113.113-.226.113 2.265 3.05 5.551 7.118 7.816 10.282m66.501 20.788v.113c13.935-3.051 32.627-7.118 46.675-9.603l-.113-.113c-14.048 2.711-32.741 6.326-46.562 9.603m-60.949-12.315c3.512 6.101 8.156 14.122 11.442 20.336h.113c-3.399-6.101-7.704-14.348-11.329-20.336zm24.244 22.483c10.875-3.051 25.49-7.231 36.479-10.055v-.113c-10.989 2.937-25.717 6.779-36.479 10.168-.114 0-.114-.113 0 0"/><path fill="#00344A" d="m330.075 45.83 25.943-10.62zm33.533-11.072c3.512 4.18 8.384 9.829 11.669 14.235l.113-.113c-3.398-4.293-7.816-10.168-11.555-14.236-.113.114-.113.114-.227.114M308.323 56.11h.114l21.525-10.168-.114-.113zm66.954-6.892c4.305 6.666 9.97 15.704 13.935 22.596h.226c-4.078-6.892-9.516-16.043-14.048-22.71zm-110.57 31.07c12.915-7.457 30.362-17.174 43.616-24.065h-.113c-13.141 7.004-30.701 16.495-43.503 24.064m-.113 1.355c34.213-.904 35.573-.904 57.211 1.356l.226-.113c-10.309-.791-23.904-1.921-34.213-2.147zm57.437 1.469 14.388 1.92.113-.113L322.258 83zm14.501 1.92 9.743 1.582v-.113l-9.629-1.582zm52.68-13.218c3.852 7.456 8.95 17.399 12.575 24.968h.113c-3.738-7.57-8.497-17.625-12.462-24.968zm-42.71 14.913 25.716 5.536-.226-.226-25.49-5.423zm26.056 5.649 23.904 6.666.114-.113c-7.251-2.034-16.881-4.745-24.131-6.779zM517.34 183.551c22.658 15.252 50.754 34.12 83.721 61.573-22.092-17.737-49.621-39.768-83.721-61.573m30.701 20.901c36.933 27.454 36.933 27.454 55.399 42.819-35.686-28.81-36.366-29.375-55.399-42.819m7.931 52.535c14.047-1.807 32.853-4.067 46.901-5.197-14.048 1.243-32.854 3.051-46.901 4.971zm-21.978 3.955 12.348-2.26h.34l.566-.113c-.226-.113-.226-.113-.453-.113h-.34l-12.575 2.373s.114 0 .114.113M528.558 252.581l1.132 5.762-1.019-5.762v-.226c-2.039-10.055-4.758-23.5-6.798-33.555l-.113-.339-4.191-20.223-2.833-13.671c2.039 10.055 4.645 23.5 6.684 33.555l.114.339c2.039 10.168 4.758 23.726 6.91 33.894zm-5.325-.339 4.985 6.553-4.872-6.44-.113-.226c-10.649-13.332-24.81-31.069-35.686-44.175 10.762 13.219 24.923 30.843 35.459 44.062zM429.426 117.685l1.133 1.469h.226c-.34-.452-.793-1.017-1.133-1.469-.113-.113-.113-.113-.226 0m1.699 2.26 1.133 1.468.227-.113-1.02-1.468c-.227.113-.227.113-.34.113m1.246 1.694 10.763 15.366.113-.113-10.762-15.253zm19.146 8.7c34.1 25.759 35.46 26.776 60.043 48.807-31.381-27.341-35.459-30.957-60.043-48.807m36.706 69.595 10.989-7.909.113-.113 5.665-3.954 6.57-4.519s-.113 0-.113-.113c-3.738 2.486-8.61 5.875-12.348 8.361l-.114.112-10.989 7.909zm-15.407-15.139 7.703 13.557-7.59-13.67-.113-.226-4.872-8.361-.113-.113c-7.251-11.749-16.994-27.454-24.584-38.977l-.113.113c7.477 11.636 17.333 27.115 24.47 38.864l.113.113 4.985 8.474z"/><path fill="#00344A" d="M517.457 180.615c45.089-10.394 46.788-10.846 84.967-14.801-12.689 1.469-29.569 3.277-42.144 5.31h-.226c-12.915 2.825-29.909 6.327-42.597 9.491m91.991 17.85c-.34 14.349-.793 33.442-1.02 47.791.34-14.236.793-33.329 1.246-47.678v-.113c.227-8.473.567-19.658.907-28.131-.34 8.36-.907 19.545-1.133 28.019zm-61.403 5.988c36.932 27.454 36.932 27.454 55.398 42.82l-2.379-2.147c-22.091-17.738-49.62-39.769-83.72-61.574 9.176 6.214 21.638 14.349 30.701 20.901"/><path fill="#00344A" d="m465.682 119.491-.113.113 31.721 6.553.226.113c10.876 2.937 25.377 6.439 36.14 9.716l.226.113c13.708 4.632 32.061 10.733 45.542 15.93l.454.226 24.357 10.394-23.904-10.394-.453-.226c-13.708-4.971-31.948-11.637-45.883-16.043l-.226-.113c-10.876-2.938-25.377-7.118-36.479-9.829l-.227-.113zm-22.091-3.615-.227.113 21.865 3.502.113-.113zm-6.458-.678 6.005.791.226-.113-6.117-.791c-.114 0-.114 0-.114.113m-3.965-.565c.793.113 1.699.226 2.492.339v-.113c-.679-.113-1.699-.226-2.492-.226m-1.813 2.259 1.813 1.13s.113 0 .113-.113c-.566-.339-1.246-.791-1.812-1.13 0 0-.114 0-.114.113m2.833 1.808 1.586 1.017.113-.113-1.586-1.017s-.113 0-.113.113m1.699 1.13 15.407 10.507.114-.113-15.294-10.507zm81.568 60.896 13.595-3.39 29.115-5.988h.227c13.255-1.807 31.041-4.293 44.409-5.536h-2.492c-42.824 4.859-44.523 5.084-84.967 14.801zm-54.492-41.803c14.841 11.75 34.213 27.906 48.488 40.334-32.854-28.81-34.78-30.617-59.93-48.92l-.113.113zM436.341 27.414c10.082 1.243 23.45 2.599 33.42 4.18h.226c10.65 2.147 24.924 4.632 35.46 7.231-10.649-2.147-24.697-5.536-35.46-7.344h-.226c-9.97-1.13-23.338-3.163-33.42-4.067m-4.419 12.54.227.114.906-11.75h-.113c-.34 3.502-.68 8.134-1.02 11.637m48.941 23.726.113.113 6.118-4.632.113-.113 16.994-11.41.113-.114 5.891-3.502h-.113c-1.813 1.017-4.192 2.486-6.005 3.502l-.113.113-16.88 11.298-.113.113zm-15.86 12.993-.567.452h.227l.566-.452.114-.113 15.52-12.654-.113-.113-15.634 12.767zm-33.081-36.605c-.793 9.942-1.812 23.16-2.605 33.216h.226c.793-9.943 1.813-23.161 2.606-33.103zm.227 68.126c7.93-7.908 18.466-18.415 26.736-25.872l.113-.113 2.04-1.808.113-.113 1.812-1.581.114-.113 1.473-1.356h-.227l-1.473 1.356-.113.113-1.699 1.581-.114.113-2.039 1.808-.113.113c-8.044 7.683-18.92 17.964-26.736 25.985 0-.113 0-.113.113-.113m-2.832-34.797c-.793 10.168-1.7 23.725-2.266 33.893h.113c.68-10.168 1.586-23.725 2.379-33.893zm.793 36.944 1.359-1.356c-.113 0-.113 0-.226-.113-.34.452-.907.904-1.247 1.356 0 0 0 .113.114.113m-3.172-2.147-.114 1.582h.227c0-.452.113-1.13.113-1.582zM260.628 81.306q-.17 0 0 0c1.246-.226 3.059-.565 4.418-.904-.793-.565-2.945 0-4.418.904m.113 2.146h.227c1.359-.226 2.945-1.016 3.738-1.807.454-.452.454-.791.34-1.017-1.359.226-3.285.678-4.645.904-1.586 1.13-1.359 1.92-.453 2.033.227-.113.453-.113.793-.113M218.263 162.423l4.305.904.227-.226c1.359-1.92.113-2.711-1.36-2.598-.226.113-1.926.452-3.172 1.92m1.133 2.486h.227c1.019-.113 2.152-.565 2.945-1.356-1.246-.226-3.059-.678-4.305-.904-1.019 1.582.114 2.26 1.133 2.26M399.067 103.901c-1.247-.339-2.153-.791-2.833-1.582-2.379-3.277 2.833-6.214 7.817-5.423 4.192.678 5.551 3.728 2.606 5.875-1.36.904-3.965 1.92-7.137 1.355-.114-.112-.34-.112-.453-.225M309.797 248.061c-2.605-.904-2.605-4.067 0-5.423 1.36-.678 2.493-.452 2.946-.452 3.172.904 2.945 4.181.34 5.536-1.02.565-2.266.678-3.286.339m-1.586 3.164c.34.113.68.226 1.02.226 4.418.565 7.477-1.808 8.836-4.068 2.833-5.197-2.265-10.055-8.496-8.134-6.005 1.921-7.477 9.038-2.379 11.524.226.226.679.339 1.019.452"/><path fill="#00344A" d="M309.798 248.063c-2.606-.904-2.606-4.068 0-5.423 2.719-1.469 5.778.226 5.098 2.824-.34 1.356-2.153 3.164-4.758 2.599q-.17.17-.34 0M198.999 242.299c-3.398-.677-3.285-5.197.227-7.569 3.965-2.599 7.477-.678 6.684 2.711-.34 1.808-2.153 4.068-5.098 4.745-.68.113-1.133.113-1.473.113q-.17.17-.34 0M170.794 205.243c-1.812-.113-2.039-2.034-.226-3.728 2.039-1.921 4.758-1.921 4.645.113-.114 1.468-2.039 3.502-4.079 3.615z"/><path fill="#00344A" d="M169.998 206.599c-2.833-.113-3.059-3.164-.34-5.649 2.945-2.825 6.91-2.938 7.024-.113.113 1.808-1.7 4.067-4.079 5.197-.34.226-1.359.678-2.605.565m-.34.678h.453c4.645-.339 9.29-6.214 6.571-8.474-2.719-2.485-9.856 2.034-9.743 6.214.113 1.356 1.133 2.26 2.719 2.26M432.375 254.501c-1.699-.79-1.699-2.711 0-3.389.793-.339 1.473-.113 1.813 0 1.926.791 1.812 2.824.226 3.502-.679.113-1.472.113-2.039-.113m-.793 1.13c.113 0 .34.113.453.113.227.113.567.113 1.02.226 2.039.113 3.059-.904 3.059-.904.453-.452 1.246-1.355 1.019-2.711-.453-1.808-2.039-2.373-2.152-2.486a4.4 4.4 0 0 0-3.399-.113c-.34.113-.906.452-1.359 1.017-.567.678-.68 1.356-.68 1.582-.113 1.694 1.02 2.824 2.039 3.276"/><path fill="#00344A" d="M432.372 254.502c-1.699-.791-1.699-2.711 0-3.389 1.813-.678 3.739.791 3.172 2.373-.226.677-1.359 1.581-2.945 1.129-.114-.113-.227-.113-.227-.113M283.174 133.275c.113 0 .226.113.34.113.566-.565 1.359-1.356 1.926-2.034-3.966-1.807-1.247-6.214 3.512-8.021 1.019-.452 3.172-1.017 5.324-.678.567-.565 1.36-1.356 2.039-1.921-3.738-.678-7.137.565-8.383 1.13-7.364 3.05-9.856 9.151-4.758 11.411m2.945.678h1.02c7.93-.226 14.274-5.762 13.255-9.942-.567-2.147-2.606-2.825-3.965-3.277-.567.565-1.36 1.356-2.04 1.921 4.419 1.017 3.512 5.084-.453 7.457-2.039 1.242-5.551 2.372-8.496 1.242-.567.565-1.36 1.356-1.926 2.034.566.226 1.359.452 2.605.565"/><path fill="#00344A" d="M285.213 131.353s.113.113.226.113c2.606-2.598 6.231-6.101 8.837-8.699-5.665-.904-12.462 4.067-10.31 7.457.227.452.68.79 1.247 1.129m2.265.452h1.02c6.571-.452 10.876-5.649 8.157-8.247-.68-.678-1.7-.904-2.153-1.017-2.605 2.599-6.231 6.101-8.836 8.699.226.339.793.565 1.812.565M547.59 258.794c-4.871-2.599-5.211-8.587-.566-9.942 5.551-1.695 10.876 4.293 8.95 8.247-1.133 2.147-4.192 3.615-8.384 1.695M479.161 174.4c-2.719-1.356-2.832-4.293-.226-5.31 1.699-.565 3.172-.113 3.625.113 3.285 1.468 3.172 4.406.567 5.423-1.133.452-2.719.339-3.966-.226m-.226 1.13.566.226c4.985 1.355 8.384-2.034 6.458-5.198-2.266-3.841-9.517-3.615-10.31.339-.339 1.808 1.02 3.729 3.286 4.633M358.963 158.584l9.29-4.971c-3.852-2.938-10.083-.113-9.856 3.389 0 .678.113 1.13.566 1.582m2.719 1.581c.227 0 .453.113.566.113 5.325.452 8.61-3.502 6.345-6.213l-.34-.339c-2.832 1.468-6.458 3.502-9.29 4.971.34.339 1.133 1.13 2.719 1.468"/><path fill="#00344A" d="M479.163 174.398c-2.719-1.355-2.832-4.293-.227-5.31 3.286-1.242 7.137 1.469 5.891 4.068-.566 1.016-2.379 2.372-5.324 1.355-.114 0-.227-.113-.34-.113M360.438 33.853c-1.813 0-2.492-.452-1.813-1.242.68-.678 2.719-1.356 4.872-1.47 2.152-.112 2.719.566 2.265 1.13-.679.792-3.285 1.582-5.324 1.582m-1.699 1.582h1.019c5.891-.452 10.083-2.824 8.723-4.18-2.039-2.034-13.368.226-13.594 2.824 0 .791 1.473 1.356 3.852 1.356M431.471 28.204c-1.586-.226-2.379-.791-1.699-1.356 1.359-1.13 6.684-.904 6.571.339 0 .79-2.38 1.356-4.645 1.13 0-.113-.114-.113-.227-.113M422.523 118.928c-6.005-1.921-6.798-7.005-1.473-9.603 6.684-3.277 16.427.451 14.727 5.649-.566 1.807-2.492 3.276-5.211 4.067-2.832.791-5.551.791-8.043-.113m-.793.904c.339.113.793.226 1.132.339 8.724 2.033 17.107-3.164 13.708-8.587-4.078-6.44-19.145-5.31-20.505 1.582-.453 2.711 1.813 5.31 5.665 6.666"/><path fill="#00344A" d="M423.655 117.572c-4.305-1.356-4.871-5.084-1.132-6.892 4.871-2.372 11.895.339 10.649 4.067-.907 2.599-5.098 3.955-8.95 3.051-.227-.113-.34-.226-.567-.226M360.434 33.854c-1.812 0-2.492-.452-1.812-1.243 1.586-1.469 7.25-2.034 7.25-.791 0 .79-2.492 1.808-5.211 1.92 0 .114-.113.114-.227.114M512.584 184.003c-.453-.226-.793-.452-.906-.565-1.586-1.355-1.586-3.276 0-4.293 2.266-1.13 4.871-.113 5.891 1.582 1.473 2.824-1.813 3.954-2.606 3.728-.793 0-1.473-.113-2.152-.452-.227.113-.227 0-.227 0M511.227 44.361c-5.664-1.694-7.93-4.632-4.871-6.213 5.324-2.825 19.825 1.13 18.579 5.084-.68 2.485-7.364 2.937-13.594 1.13 0 .112-.001.112-.114 0M480.408 207.84c-4.531-2.26-5.211-7.796.113-9.604 4.985-1.694 11.556 2.938 9.064 7.57-1.36 2.598-5.212 3.615-8.724 2.26-.113 0-.34-.113-.453-.226M528.899 264.219c-2.832-1.582-2.719-5.084.227-5.762 3.285-.791 6.344 2.598 4.644 5.084-.793 1.13-2.605 1.808-4.644.791-.114 0-.227-.113-.227-.113"/><path fill="#00344A" d="M282.832 34.193c37.952-11.185 41.917-12.315 73.298-17.06-39.311 6.779-43.39 7.57-73.298 17.06m73.978-16.27c-10.876 4.294-25.377 9.943-36.026 14.8zm.453-.112c-10.989 4.293-25.603 10.055-36.366 14.913zM363.608 16.906c9.857 2.599 22.885 7.118 32.174 11.185h.114c-9.403-4.067-22.318-8.586-32.174-11.185zM321.805 34.08c17.333-2.034 40.557-4.067 57.89-4.745-17.446.79-40.557 2.599-57.89 4.745M211.461 69.668l.227-.113c36.932-20.676 39.084-21.918 64.574-32.877-39.198 17.963-40.784 18.641-64.801 32.99m-.453.226c.113 0 .226-.113.34-.226zm31.834-10.846c11.329-2.486 26.51-5.423 38.065-6.78-11.555 1.696-26.849 4.181-38.065 6.78M281.25 34.983c9.403-.904 22.091-1.13 31.608-.452 0 0 .113 0 .113-.113-9.516-.678-22.205-.452-31.608.452 0 .113-.113.113-.113.113m-1.473.677c2.606 5.762 2.606 5.762 3.626 15.479h.113c-1.246-10.847-1.473-11.976-3.512-15.479-.113-.113-.227 0-.227 0M389.553 71.816c11.895.34 27.869.678 39.764 1.47-11.895-.453-27.869-1.357-39.764-1.47" opacity=".302"/><path fill="#00344A" d="m461.492 76.785.567.114-.68-.114zM449.258 75.203l10.422 1.356z" opacity=".514"/><path fill="#00344A" d="M464.551 77.238c14.048 2.486 32.74 5.536 46.675 8.587-13.935-2.712-32.627-6.44-46.675-8.587M355.113 69.102c6.005-6.101 13.822-14.236 20.052-20.11-6.004 6.1-14.274 14.009-20.052 20.11" opacity=".302"/><path fill="#00344A" d="m375.16 49.106.227-.227z"/><path fill="#00344A" d="m480.863 63.906 17.673 11.072h.227l-17.9-11.185zm17.9 11.185 14.048 9.83h.113c-4.192-2.938-9.743-6.78-13.934-9.717z" opacity=".302"/><path fill="#00344A" d="M498.648 74.977h.227l.227.113h-.34z" opacity=".514"/><path fill="#00344A" d="M432.152 40.18c7.591 3.389 18.013 7.456 25.49 11.184v-.113c-7.59-3.389-17.673-8.134-25.49-11.185zm25.604 11.184 22.997 12.315.114-.113-22.998-12.428z" opacity=".302"/><path fill="#00344A" d="M457.637 51.367v-.226l.226.113-.113.113z" opacity=".514"/><path fill="#00344A" d="M402.922 30.69s15.181 4.067 29.002 9.264v.113c-8.723-2.938-20.166-7.005-29.002-9.378" opacity=".302"/><path fill="#00344A" d="m431.922 40.066.226.113v-.113l-.226-.113zm48.827 23.726.114.113.113-.113-.113-.113z"/><path fill="#00344A" d="m378.674 45.942-3.285 3.05zm-3.285 2.938.113.113c6.118-5.31 14.161-12.428 20.506-17.4m-40.784 37.623c6.004-5.988 13.821-14.235 20.052-19.997l-.114-.114c-6.004 5.988-14.274 13.897-20.052 20.11z" opacity=".302"/><path fill="#00344A" d="m375.16 49.106.227-.227v.227l-.114.113z"/><path fill="#00344A" d="M317.84 36.113c3.738 2.825 8.836 6.553 12.235 9.717-3.512-3.05-8.27-7.231-12.235-9.717M379.695 29.334c-17.446.79-40.67 2.599-57.89 4.745l18.466-2.485c15.747-1.13 36.932-2.147 52.793-2.26l-.114.113zM308.325 56.223c11.669 3.728 26.963 9.603 38.178 14.574-11.215-4.971-26.509-10.959-38.178-14.574" opacity=".302"/><path fill="#00344A" d="m308.324 56.223-.113-.114z"/><path fill="#00344A" d="M317.723 36.113c3.738 2.825 8.836 6.553 12.235 9.716l.226-.113c-3.625-2.937-8.27-7.117-12.235-9.716-.113.113-.226.113-.226.113m24.583 23.952 6.684 9.49h.114c-5.098-7.118-12.349-16.382-18.126-22.935l-.907-.904-.226.113c3.965 4.293 9.176 9.716 12.461 14.236m-25.15-1.47c8.95 3.39 20.845 8.022 29.455 12.09-8.723-3.955-20.392-9.039-29.455-12.09" opacity=".302"/><path fill="#00344A" d="M329.965 45.828h.226l-.226.113z"/><path fill="#00344A" d="M286.23 50.461c7.364-3.954 17.22-9.151 24.584-13.105h.113c-7.363 3.954-17.219 9.264-24.697 13.105M209.876 71.25l9.856-4.293.114-.113zc.113-.113 0-.113 0 0m13.595-5.762 18.919-6.214h-.34zm19.372-6.44c11.329-2.485 26.51-5.423 38.065-6.779l-20.505 2.712-17.9 4.18zM205.005 74.3c-2.039 2.034-3.286 5.875-4.645 8.587l.226-.226c1.36-2.486 3.059-5.988 4.532-8.474zm-4.645 8.587c-1.36 3.05-3.172 7.005-4.532 10.055l.227-.113c1.359-3.05 3.059-7.118 4.531-10.168zm-4.532 10.168-3.058 7.796c.113-.113.113-.113 3.285-7.796zM265.044 80.514c39.878-6.101 42.257-6.553 78.736-7.344-42.257 1.356-43.956 1.356-78.736 7.344M257 82.095l3.286-.565c.113 0 .113-.113.226-.113-1.019.113-2.379.452-3.512.678m-60.723 17.851 10.31-6.666.113-.113zm41.804-13.331h.113l18.58-4.52v-.113zm-34.78 11.41c10.31-3.502 24.131-8.247 34.667-11.298h-.114m-41.69 14.236 6.911-2.712.113-.113z" opacity=".302"/><path fill="#00344A" d="M260.402 81.417c.114-.113.114-.113 4.645-1.017l.114.113c-1.587.34-3.399.678-4.759.904"/><path fill="#00344A" d="m298.694 54.077 9.516 2.033.227-.113c-6.798-1.242-15.861-3.163-22.771-3.954 0 0-.114 0-.114.113 3.852.678 9.177 1.243 13.142 1.92m9.629 2.146c11.669 3.729 26.963 9.603 38.179 14.575-8.723-3.842-20.392-9.039-29.342-12.09l-8.723-2.485zM206.816 93.055l15.521-9.378h-.113l-11.103 6.666z" opacity=".302"/><path fill="#00344A" d="M308.211 56.11h.226l-.113.113z"/><path fill="#00344A" d="m267.652 59.387 12.575-5.762c-3.739 1.582-9.63 2.825-12.575 5.762m-45.203 24.177 5.438-3.163c11.782-6.327 27.529-14.913 39.538-20.901v-.113c-13.595 7.118-31.721 16.495-44.976 24.177M435.887 119.604l7.25-3.616zM443.363 115.876c9.97-4.519 23.111-10.733 33.081-14.913-9.97 4.406-23.338 10.168-33.081 14.913" opacity=".302"/><path fill="#00344A" d="m476.445 100.965.227-.113zM494.117 94.07l.113-.113z" opacity=".514"/><path fill="#00344A" d="m372.559 92.379 11.329 11.976zM372.333 92.15c-5.324-4.97-12.348-11.862-17.899-16.607 5.437 4.971 12.688 11.41 17.899 16.608" opacity=".302"/><path fill="#00344A" d="m372.559 92.377-.227-.227z"/><path fill="#00344A" d="M371.997 92.038c-5.324-4.97-12.235-11.75-17.673-16.382z" opacity=".302"/><path fill="#00344A" d="m371.992 92.037.227.227z"/><path fill="#00344A" d="M389.44 71.7c12.008.451 27.982.79 39.877 1.58v-.112c-12.008-.452-27.869-1.356-39.877-1.469m-31.268 1.129 31.154-.904-.113-.113zq0-.17 0 0" opacity=".302"/><path fill="#00344A" d="M389.211 71.7h.226l.114.113h-.34z"/><path fill="#00344A" d="M462.623 76.786h-.566l2.266.338.113-.112zm-2.945-.226c.566.113 1.246.226 1.699.226h.567l-2.379-.34c.113 0 .113 0 .113.114m-30.135-3.277v.113l19.712 1.92s.114-.112.227-.112c-6.004-.565-13.935-1.356-19.939-1.92" opacity=".302"/><path fill="#00344A" d="m461.941 76.672.68.113-.566.114-.567-.114zM449.258 75.203c.113-.113.113-.113 10.309 1.13 0 0 0 .112.113.112-3.058-.339-7.25-.79-10.422-1.242" opacity=".514"/><path fill="#00344A" d="M464.66 77.125c14.048 2.486 32.741 5.536 46.562 8.586-14.048-2.711-32.627-6.44-46.788-8.473z" opacity=".302"/><path fill="#00344A" d="m464.436 77.012-.113.112h.226l.114-.112zm-35.12-3.729v.113h.227v-.113z"/><path fill="#00344A" d="M178.723 157.68c11.895 1.017 27.755 2.937 39.424 4.971-11.669-1.921-27.529-4.067-39.424-4.971" opacity=".302"/><path fill="#00344A" d="m218.145 162.648 4.418.904z"/><path fill="#00344A" d="M296.315 120.733c11.896-10.958 27.87-25.307 40.105-35.701-12.235 10.507-28.322 24.743-40.105 35.701" opacity=".302"/><path fill="#00344A" d="m336.422 85.031.113-.113zM285.441 131.354l8.837-8.7z"/><path fill="#00344A" d="M336.534 85.032c-12.235 10.507-28.322 24.743-40.104 35.701zm-158.491 70.047 13.254-8.36h-.113z" opacity=".302"/><path fill="#00344A" d="m336.531 85.031.114-.113zM285.551 131.467l8.836-8.813z"/><path fill="#00344A" d="m241.937 118.021-.113.113 10.422-5.197v-.113c-3.172 1.582-7.817 2.712-10.309 5.197m-50.64 28.584h.113c14.954-8.812 35.006-20.223 50.187-28.358l.114-.113c-15.294 8.248-35.46 19.546-50.414 28.471" opacity=".302"/><path fill="#00344A" d="m241.711 118.137.227-.114-.114.114-.226.113z"/><path fill="#00344A" d="M322.032 83h.226l22.092-7.457-.114-.113c-6.684 2.26-15.52 5.31-22.204 7.57m-45.656 18.415c13.708-5.649 31.834-13.219 45.656-18.303h-.227c-13.708 5.31-31.948 12.428-45.429 18.303m-14.841 7.005 14.728-6.779v-.113zq0-.17 0 0" opacity=".302"/><path fill="#00344A" d="M276.152 101.529h.227v-.113zM321.805 83.111l.226-.113h.227l-.227.113z"/><path fill="#00344A" d="m443.254 136.779.113.113 8.044-6.552-.114-.113zm-52.793 48.017c31.381-29.827 33.307-31.635 52.68-47.791l-.114-.113c-31.721 27.228-32.967 28.358-52.792 47.904zm-1.926 1.92c.453-.339.907-.904 1.246-1.243-.113 0-.113-.113-.226-.113l-1.246 1.243a.35.35 0 0 0 .226.113" opacity=".302"/><path fill="#00344A" d="m443.023 136.889.114.113.113-.113-.113-.113z"/><path fill="#00344A" d="m451.406 130.225 13.822-10.733.226.113-13.934 10.733z" opacity=".302"/><path fill="#00344A" d="m451.406 130.227.114.113z"/><path fill="#00344A" d="m499.217 96.33.227.114 13.255-7.796s-.114 0-.114-.113c-4.078 2.26-9.403 5.423-13.368 7.796m-16.993 11.073.113.113 16.88-11.072-.226-.113zm-.113.113-16.767 11.975h.226l16.541-11.862z" opacity=".302"/><path fill="#00344A" d="m482.109 107.516.114-.114.113.114-.113.113zM499.102 96.445l.113-.113.226.113h-.339" opacity=".514"/><path fill="#00344A" d="m465.454 119.379-.113.113h.226l.114-.113zm-14.274 10.959.113.113.113-.113-.113-.113z"/><path fill="#00344A" d="m432.378 121.411.113.113 3.286-1.694-.114-.113zm-18.693 10.169 18.693-9.943-.113-.113-18.693 9.943zm-25.716 52.422c5.664-13.896 13.255-32.312 19.146-46.096-5.891 13.784-13.595 32.2-19.146 46.096" opacity=".302"/><path fill="#00344A" d="m432.262 121.411.113.113.227-.113-.114-.113z"/><path fill="#00344A" d="m435.887 119.604 7.25-3.616h.227L436 119.717z" opacity=".302"/><path fill="#00344A" d="m435.887 119.605.113.114z"/><path fill="#00344A" d="m494.23 93.957.227.113 17.446-5.988-.113-.113c-5.325 1.807-12.235 4.18-17.56 5.988m-17.56 6.891.114.113 6.684-2.711 10.762-4.18-.226-.113zm-.226.113c-9.97 4.407-23.338 10.168-33.081 14.914h.227c9.856-4.52 22.884-10.733 32.967-14.914z" opacity=".302"/><path fill="#00344A" d="m476.445 100.965.227-.113.113.113-.226.113zM494.117 94.07l.113-.113.227.113-.227.114z" opacity=".514"/><path fill="#00344A" d="m443.36 115.875-.227.113h.227l.226-.113zm-7.704 3.841.114.113.113-.113-.113-.113z"/><path fill="#00344A" d="m387.743 184.681-.566 1.469h.226a8 8 0 0 0 .567-1.469zm-7.477 3.728c.566.113 1.359.226 2.039.339v-.113c-.566-.113-1.359-.226-2.039-.226.113-.113 0-.113 0 0m-34.893-3.841-.113.113c10.196 1.017 23.79 2.147 33.986 3.615v-.113c-10.082-1.129-23.677-2.824-33.873-3.615m-25.037-1.469 24.697 1.582.113-.113-24.81-1.582c.113.113 0 .113 0 .113" opacity=".302"/><path fill="#00344A" d="M345.141 184.566h.226v.114h-.226z"/><path fill="#00344A" d="M368.367 153.838c10.649-5.31 24.923-12.427 35.686-17.399-10.763 5.085-25.15 11.863-35.686 17.399m-48.375 27.454c11.669-6.891 27.19-16.043 38.972-22.596-11.669 6.779-27.416 15.592-38.972 22.596" opacity=".302"/><path fill="#00344A" d="m359.078 158.694 9.177-4.858z"/><path fill="#00344A" d="M319.879 181.178c11.669-6.892 27.189-16.043 38.971-22.596-11.668 6.779-27.416 15.591-38.971 22.596" opacity=".302"/><path fill="#00344A" d="m358.969 158.583 9.176-4.858z"/><path fill="#00344A" d="M407.115 137.908c-3.626 8.7-8.497 20.224-12.122 28.923l-6.911 17.173h-.227c5.778-13.897 13.369-32.425 19.26-46.096M368.253 153.836c10.65-5.31 24.924-12.428 35.686-17.399l-.113-.113c-5.891 2.825-13.708 6.44-19.599 9.265zq0-.17 0 0m-48.261 27.454c11.669-6.892 27.19-16.043 38.972-22.596-11.669 6.666-27.53 15.478-38.972 22.596" opacity=".302"/><path fill="#00344A" d="M358.969 158.695c2.719-1.581 6.344-3.502 9.176-5.084l.113.113c-2.718 1.582-6.457 3.503-9.289 4.971q.17 0 0 0"/><path fill="#00344A" d="M336.872 114.066c-9.063 29.262-10.875 35.363-19.145 66.319 9.176-33.781 10.535-39.091 19.145-66.319M346.278 86.727c-2.832 8.134-6.684 19.093-9.403 27.341 2.832-8.248 6.458-19.207 9.403-27.341M346.387 86.501l3.625-9.83z" opacity=".302"/><path fill="#00344A" d="m346.277 86.615.114-.113-.114.227z"/><path fill="#00344A" d="m383.777 104.465 9.29 10.507.113-.113-7.703-8.812-1.473-1.582zm9.517 10.62 12.915 15.591h.113c-3.852-4.745-9.063-10.959-12.915-15.704z" opacity=".302"/><path fill="#00344A" d="m393.067 114.972.113.113.114-.113-.114-.113z"/><path fill="#00344A" d="m380.036 100.396-7.817-8.134.34.113 11.329 11.975h-.227zM371.997 92.038c-5.324-4.97-12.235-11.75-17.673-16.382h.114c5.437 4.971 12.801 11.411 17.899 16.495z" opacity=".302"/><path fill="#00344A" d="m383.661 104.35.34.113-.113-.113zM372.219 92.264l-.227-.227.34.113.227.227z"/><path fill="#00344A" d="M336.872 114.066c-9.063 29.262-10.875 35.363-19.145 66.319l4.305-15.704c9.856-34.91 9.856-34.91 14.954-50.615zM346.278 86.727h.227c-2.833 8.134-6.684 18.98-9.29 27.228h-.227c2.719-8.248 6.344-19.094 9.29-27.228M346.387 86.501l3.738-9.83h.114a352 352 0 0 0-3.626 9.943z" opacity=".302"/><path fill="#00344A" d="M336.988 113.955v.113h.227v-.113zM346.277 86.729l.114-.227.113.113v.114z"/><path fill="#00344A" d="M336.529 84.92h.114l10.422-8.361h-.113c-3.059 2.485-7.251 5.874-10.423 8.36m-40.104 35.813c11.895-10.958 27.869-25.307 40.104-35.701h-.113c-12.235 10.507-28.322 24.743-40.104 35.701zm-32.967 33.555v.226l6.57-7.004 13.595-14.01h-.113c-6.004 6.214-14.048 14.574-20.052 20.788m-10.083 11.298 9.969-10.959v-.226l-10.082 11.072c0 .113 0 .113.113.113" opacity=".302"/><path fill="#00344A" d="m336.422 85.031.113-.113h.113l-.113.113zM294.386 122.655c.567-.565 1.36-1.356 2.04-1.921h-.114c-.566.565-1.359 1.356-2.039 1.921zm-10.762 10.733c.566-.565 1.36-1.356 2.039-1.921 0 0-.113 0-.113-.113-.566.565-1.36 1.356-1.926 2.034q-.17 0 0 0"/><path fill="#00344A" d="M285.55 131.467c2.493-2.712 6.118-6.101 8.724-8.813h.113a325 325 0 0 1-8.837 8.813"/><path fill="#00344A" d="M272.637 206.711c-15.521 9.264-36.139 21.692-51.32 31.295h.226c15.181-9.603 35.686-22.144 51.207-31.182zm-71.372 44.853 20.165-13.332h-.226zc-.114 0-.114-.113 0 0" opacity=".302"/><path fill="#00344A" d="M221.32 238.008h.34l-.34.227h-.226z"/><path fill="#00344A" d="M301.412 190.893v.113l12.802-6.553s0-.113-.113-.113c-3.626 2.033-8.837 4.632-12.689 6.553m-28.549 15.704.114.113 28.322-15.478v-.113z" opacity=".302"/><path fill="#00344A" d="M301.299 191.008v.112l.226-.112v-.113zm-28.662 15.704.113.113.227-.113-.114-.113z"/><path fill="#00344A" d="M207.383 237.894c8.044-13.67 18.92-31.86 27.303-45.417-8.27 13.557-19.259 31.634-27.303 45.417" opacity=".302"/><path fill="#00344A" d="m207.27 238.121.113-.226z"/><path fill="#00344A" d="M224.377 208.746c-5.212 8.699-12.122 20.336-17.22 29.149 5.211-8.7 12.008-20.45 17.22-29.149M280.114 175.077l19.146 3.728v-.226c-9.969-1.92-23.224-4.519-33.194-6.1v.225zm19.373 3.841 14.841 3.39v-.113l-1.02-.339-13.935-3.164z" opacity=".302"/><path fill="#00344A" d="M299.262 178.918v-.227l.226.114v.113z"/><path fill="#00344A" d="M254.848 171.234s0-.113.113-.113c3.285.452 7.59 1.017 10.876 1.469v.226zM238.539 186.148l-3.965 6.327.226-.113 3.965-6.214z" opacity=".302"/><path fill="#00344A" d="m192.656 227.05-.113-.452z"/><path fill="#00344A" d="M224.377 208.746c-5.212 8.699-12.122 20.336-17.22 29.148h.226c8.044-13.67 18.92-31.86 27.303-45.417l-.227.113zm-24.244 42.028 7.137-12.654h-.227l-7.023 12.541z" opacity=".302"/><path fill="#00344A" d="M207.156 237.895h.227l-.113.226h-.114z"/><path fill="#00344A" d="M175.434 160.955c2.719 9.377 6.231 21.918 8.723 31.295-2.492-9.377-5.891-21.918-8.723-31.295" opacity=".302"/><path fill="#00344A" d="M184.156 192.25h.114v.113z"/><path fill="#00344A" d="m242.731 179.711.113.113-3.852 5.875-.113.226h-.227zM242.844 179.482l2.605-3.841h.114c-.793 1.242-1.813 2.824-2.719 3.841" opacity=".302"/><path fill="#00344A" d="m242.73 179.711.114-.227.113.114-.113.226z"/><path fill="#00344A" d="M178.723 157.679c11.895 1.017 27.756 2.938 39.425 4.971-11.783-2.033-27.53-4.18-39.425-5.084.113 0 0 .113 0 .113m43.843 5.875 21.072 5.423s0-.113.113-.113a1455 1455 0 0 0-21.072-5.423s-.113 0-.113.113m-47.242-2.485c1.926 6.666 4.532 15.478 6.344 22.257-1.812-6.666-4.305-15.591-6.344-22.257" opacity=".302"/><path fill="#00344A" d="m218.145 162.65.113-.113c1.359.226 3.059.678 4.305.904l-.113.113z"/><path fill="#00344A" d="m186.766 203.097 2.039 8.135s.113 0 .113-.113c-.566-2.486-1.359-5.649-1.926-8.135zm-7.477 50.615v.113l16.653-.565v-.113a820 820 0 0 1-16.653.565m-64.349-.565a2400 2400 0 0 1 16.427-28.81l-.113.113c-4.985 8.474-11.669 19.998-16.314 28.697q-.17 0 0 0m2.946 6.666c30.135-3.954 32.514-4.293 61.176-5.875v-.113c-34.553 2.26-35.913 2.26-61.176 5.988" opacity=".302"/><path fill="#00344A" d="M179.059 253.711h.226v.227h-.113z"/><path fill="#00344A" d="m192.317 226.256.226.339-2.152-8.925s-.114 0-.114.113c.68 2.598.907 6.101 2.04 8.473m.113.452c1.699 7.231 3.965 16.947 5.664 24.178h.114c-1.7-7.118-3.852-16.721-5.438-23.839z" opacity=".302"/><path fill="#00344A" d="m192.426 226.709.226.34zM192.43 226.71l-.114-.452.227.339.113.452z"/><path fill="#00344A" d="m181.668 183.325 2.379 9.152.113-.113c-2.492-9.378-6.004-21.918-8.723-31.296l-.114.113c1.926 6.553 4.532 15.366 6.345 22.144m2.379 9.265 2.605 10.394.114-.113-2.606-10.507zm-13.255-30.392c-18.919 28.019-22.318 33.103-39.538 61.913l.113-.113c17.9-29.149 21.525-35.25 39.425-61.8q.17.17 0 0" opacity=".302"/><path fill="#00344A" d="m184.047 192.363.113-.113.113.113-.226.227z"/><path fill="#00344A" d="M242.279 59.275c7.591-.34 17.673-.678 25.264-.113l.226-.113c-7.477-.34-17.56-.565-24.923.113h-.34l-15.747 3.276 15.18-3.163zm-19.032 6.214c-2.606 4.632-5.891 10.846-8.157 15.59 2.379-4.857 5.778-11.41 8.497-16.042zm-3.512 14.8c9.063-4.18 20.958-10.055 30.135-14.01-8.95 4.18-21.185 9.49-30.135 14.01" opacity=".302"/><path fill="#00344A" d="m256.78 82.208-3.059 7.23 3.172-7.23v-.113c3.059-6.779 7.251-15.93 10.536-22.596v-.113l.113-.226h-.113l-.226.113-17.56 7.118c-9.063 4.18-21.299 9.49-30.135 14.01 14.274-6.553 33.307-15.253 47.808-21.128l-.113.34v.112c-3.059 6.553-7.364 15.478-10.423 22.483m-18.806 4.52 12.009 4.405c-7.704-2.711-18.24-5.762-26.283-7.343l14.161 2.937zM165.465 98.701c11.216-7.682 26.283-17.738 37.952-24.742l.113-.113c-11.555 7.23-26.963 16.947-38.065 24.855m45.995-29.035 10.536-5.31c-3.058 1.581-7.25 3.615-10.309 5.197zl-.453.226c.114 0 .114-.113.227-.113zm11.669-5.31-14.387 11.297 10.989-8.812.113-.113zM200.471 82.77c-5.664 5.31-13.368 12.202-18.806 17.625 22.658-21.353 24.471-23.048 41.464-36.04l-3.285 2.485-.113.113c-5.665 4.632-13.482 10.846-19.033 15.704zm-38.291 18.642c3.172-1.243 7.817-2.147 11.215-1.921 1.813.113 3.852 1.808 5.325 2.937-2.946-1.694-7.364-3.05-10.649-3.276-1.926-.113-4.192 1.243-5.891 2.26" opacity=".302"/><path fill="#00344A" d="M223.585 65.034c-2.719 4.745-6.118 11.185-8.497 16.043zm-3.172 5.762c.793-1.582 2.152-3.729 3.059-5.31l1.133-1.695c-.227.113-.227.113-.907 1.356m-23.337 17.737.226-.225 8.157-7.005 14.388-11.298c-24.131 19.32-24.584 19.658-41.577 36.153l-.68.678h.113M256.778 113.277c1.359 8.36 3.172 19.432 4.418 27.68l.226-.113c-1.359-8.36-3.058-19.432-4.418-27.68 0 0-.113 0-.226.113.113 0 .113-.113 0 0m9.063 59.54.566 3.954h.227a56 56 0 0 0-.567-3.954v-.226l-2.605-18.189v-.226l-1.926-13.332-.227.113 1.926 13.445v.225l2.492 17.964zm-11.329-1.017 10.082 5.649.114-.113c-3.059-1.694-7.137-4.067-10.196-5.762.113.113 0 .113 0 .226q0-.17 0 0" opacity=".302"/><path fill="#00344A" d="m261.422 140.844-.113.113zM261.309 140.957l.113-.113.113.113-.226.113z"/><path fill="#00344A" d="M191.298 146.721c9.629 2.712 22.544 6.553 31.947 10.055l.113-.113c-9.403-3.389-22.091-7.569-31.834-10.055h-.113l-10.649-1.92 10.422 2.033zm32.06 10.168 4.419 1.808.226-.113-4.531-1.921zm4.532 1.808 17.9 8.36s.113 0 .113-.113a1263 1263 0 0 1-17.786-8.473z" opacity=".302"/><path fill="#00344A" d="m223.242 156.773.113.113.114-.113-.114-.113zm4.418 1.921h.114l.226-.113h-.113z"/><path fill="#00344A" d="m253.152 94.637.34 1.581.113-.225-.339-1.356zm.453 1.807 2.38 11.863s.113 0 .113-.113c-.68-3.615-1.699-8.36-2.379-11.976z" opacity=".302"/><path fill="#00344A" d="m253.492 96.218.227-.226v.226l-.114.226z"/><path fill="#00344A" d="M223.698 83.792c8.044 1.694 18.58 4.519 26.284 7.343l-11.783-4.406h-.113c-4.645-1.017-10.876-2.599-15.634-3.163h-.113l-5.325-.34-.113.114c1.586.112 3.739.225 5.325.338h.113zm-40.784 54.23c33.194-23.387 37.499-26.438 64.915-42.933-37.839 23.387-38.632 23.839-64.915 42.933M195.943 93.055l.226-.113 6.118-3.39 6.571-3.502-12.689 6.892zm-16.88 10.846a888 888 0 0 0-1.7 16.382 723 723 0 0 1 1.7-16.382m24.017-5.65c-14.614 22.145-15.521 23.387-24.924 39.769l10.536-17.624c4.305-6.666 9.97-15.592 14.501-22.144l.113-.113 3.512-4.971.114-.113 5.438-7.344-5.665 7.457-.113.112zM175.212 100.284l3.285 2.147h.113c-1.586-.904-3.398-2.825-5.211-2.937-7.25-.452-7.25-.452-11.329 1.92l-.113.113c1.699-.678 3.852-2.034 5.778-2.26 2.379-.225 5.551 0 7.477 1.017m-66.501 52.988c5.098-4.971 11.329-12.202 16.087-17.512 9.176-9.942 22.771-21.918 32.967-30.956-26.17 23.499-26.17 23.499-49.054 48.468m67.86-48.92c-27.416 16.269-42.597 25.307-67.294 48.694 23.225-20.45 36.026-31.634 67.294-48.694" opacity=".302"/><path fill="#00344A" d="M109.164 153.161c23.224-20.45 36.026-31.634 67.294-48.694-27.303 16.156-42.484 24.968-67.294 48.694q.17-.17 0 0m68.087-32.877c-.567 5.649-1.36 13.218-1.926 18.867 1.699-15.478 1.699-15.478 3.852-35.475l-.113.113c-.567 4.971-1.247 11.524-1.813 16.495m-68.993 34.007c14.727-9.943 31.494-21.241 62.082-11.75-16.427-3.842-36.819-8.587-61.969 11.637 0 0-.113 0-.113.113M184.841 216.992l.453-.113v-.113c-.227.113-.34.113-.453.226m-9.857 5.31v.113l9.63-5.197-.113-.113zm-56.871 34.006c30.475-18.98 33.76-21.014 56.758-33.78v-.113c-34.78 19.771-35.459 20.11-56.758 33.893q0-.17 0 0" opacity=".302"/><path fill="#00344A" d="M174.867 222.305h.113l.114.113-.227.113zM184.613 217.106l.227-.114v.114l-.113.113z"/><path fill="#00344A" d="M212.026 194.171v.113l26.51-8.135.226-.113 8.724-2.372-.114-.113-8.383 2.372-.227.113zm-35.799 12.766 10.536-3.841.113-.113 24.924-8.699v-.113l-24.924 8.699-.113.113zm-3.172 1.243v.113l2.945-1.13-.113-.113zm-14.048 5.875 13.934-5.649v-.113l-13.934 5.649zm-42.144 39.995c9.517-9.829 22.205-22.935 31.835-32.538-9.517 9.716-22.318 22.596-31.835 32.538" opacity=".302"/><path fill="#00344A" d="m172.941 208.293.114-.113.113.113-.227.113zM176 207.052h.227l-.114-.113zM211.914 194.172v.113l.227-.113v-.113z"/><path fill="#00344A" d="m247.602 183.438 15.747-4.067v.113c-4.645 1.243-10.989 2.825-15.634 4.067z" opacity=".302"/><path fill="#00344A" d="m247.375 183.551.227-.113.113.113-.227.113z"/><path fill="#00344A" d="M209.423 204.341v.112l25.037-11.862.226-.113 15.181-6.779-.113-.113-14.954 6.666-.227.113zm-15.634 8.021 15.407-7.796v-.113z" opacity=".302"/><path fill="#00344A" d="m209.195 204.453.227-.113v.113l-.227.114z"/><path fill="#00344A" d="m249.98 185.585 13.369-5.649v.113c-3.966 1.694-9.29 3.954-13.369 5.648z" opacity=".302"/><path fill="#00344A" d="M249.754 185.586h.226l.114.113h-.227z"/><path fill="#00344A" d="M86.844 244.221c26.283-12.767 27.302-13.332 44.296-19.885l.113-.113 19.146-7.004-19.146 6.891-.113.113c-29.229 12.202-29.795 12.428-44.296 19.998m30.135 9.829c10.196-10.507 23.904-24.516 34.213-34.798l-2.492 2.26c-9.517 9.716-22.318 22.596-31.721 32.538m-30.928-8.247c5.89 3.615 13.708 8.586 19.372 12.54 0 0 0-.113.114-.113-5.665-3.954-13.369-9.151-19.373-12.54zM74.27 223.205c23.224-21.805 45.089-42.48 92.217-73.775-30.135 20.675-56.191 38.526-92.217 73.775m12.235 20.11c25.943-32.538 45.655-56.489 81.795-92.756-25.943 26.438-46.336 47.339-81.795 92.756M80.611 239.363l3.625 4.972.114-.113c-2.04-2.599-4.758-6.101-6.684-8.813l-6.345-6.214-.113.113c2.946 2.825 6.91 6.779 9.403 10.055m-53.359 43.836-.113.113c12.348-12.201 22.997-22.708 55.965-37.283-20.166 9.49-39.198 18.529-55.852 37.057 16.087-23.838 16.427-24.29 37.839-50.049-18.806 22.708-24.47 29.487-37.839 50.162M200.018 250.659l-.453 4.632.114-.113c2.379-1.469 2.265-4.067.339-4.519m-2.605 5.197h.226c.793.113 1.473-.226 1.813-.339.113-1.469.34-3.389.453-4.858-2.492-.339-4.985 2.711-3.512 4.519q.34.508 1.02.678" opacity=".302"/><path fill="#00344A" d="m200.02 250.66-.454 4.745zM199.906 250.66h.114c-.114 1.356-.34 3.277-.454 4.632-.113 0-.113.113-.226.113z"/><path fill="#00344A" d="M315.684 185.358c-1.586-.452-2.152-1.808-1.359-3.163 1.246-1.695 3.172-1.695 3.625-1.695 1.473.113 2.039.904 2.039.904 1.586 2.033-1.246 4.519-3.965 4.067h-.113c0-.113-.114-.113-.227-.113M172.262 162.31c-2.493.452-3.286-1.13-1.7-3.277 2.493-3.389 8.044-5.31 8.497-2.937.113.452 0 1.017-.34 1.582-1.586 2.711-4.531 4.18-6.231 4.519-.113 0-.113.113-.226.113M396.351 31.706c-3.399-.113-4.532-1.356-3.399-2.373 2.719-2.26 12.235-2.485 11.896-.226-.227 1.47-4.532 2.712-8.497 2.599M349.334 74.64c-1.926-.226-2.493-1.356-1.133-2.486.793-.678 2.492-1.243 4.191-1.243 2.38.226 2.719 1.356 1.7 2.373-1.02 1.017-3.172 1.582-4.758 1.356m-1.36 2.033h.113c6.005.226 12.009-3.615 9.857-6.214-2.719-3.276-13.822-.678-14.388 3.277-.34 2.146 2.945 2.711 3.399 2.824.226.113.566.113 1.019.113" opacity=".302"/><path fill="#00344A" d="M349.333 74.638c-1.926-.226-2.493-1.356-1.133-2.485 2.152-1.695 6.684-1.582 6.457.226-.113 1.242-2.719 2.372-4.984 2.26zM406.318 137.68c-3.965-1.243-4.532-4.745-1.02-6.666 4.305-2.372 10.763.226 9.517 3.841-.794 2.26-4.305 3.616-7.591 3.051-.226 0-.226 0-.453-.113-.113 0-.34-.113-.453-.113M384.339 191.8c-2.719-.904-2.832-3.842-.34-5.084 1.586-.791 3.059-.452 3.059-.452 2.945.565 3.852 3.389 1.586 4.971-.907.565-2.379 1.129-3.965.678-.114 0-.227-.113-.34-.113" opacity=".302"/><path fill="#00344A" d="M383.435 193.267c-4.192-1.469-4.419-5.988-.34-7.908 2.039-1.017 3.852-.678 4.645-.678h.113c.68.113 1.36.339 1.926.791 4.078 2.485 2.039 7.004-2.379 8.021-.68.113-2.266.339-3.965-.226m-.453.678c.226.113.453.113.566.226 5.778 1.582 11.442-3.163 8.837-7.457-.34-.565-1.473-2.033-4.192-2.711-5.891-1.243-11.216 3.728-8.27 7.795a6.37 6.37 0 0 0 3.059 2.147M282.609 52.947c-.793.112-1.246 0-1.02-.34.34-.564 1.7-1.13 2.719-1.355 1.247-.226 1.36.113 1.247.339-.454.452-1.813 1.13-2.946 1.355m-.793.564c.113 0 .227 0 .34-.113 2.606-.565 5.324-2.26 4.645-2.824-.114-.113-.34-.113-.567-.113-.793 0-1.926.226-3.285.678-2.719 1.13-3.286 2.033-2.719 2.372.453.226 1.133.113 1.586 0" opacity=".302"/><path fill="#00344A" d="M282.609 52.947c-.793.113-1.246 0-1.019-.339.566-.904 3.851-1.92 3.965-1.243.113.452-1.473 1.243-2.833 1.582 0-.113-.113 0-.113 0M246.238 175.755c-4.532-.226-5.325-4.519-1.473-7.796 2.04-1.807 5.551-3.276 8.497-2.372 4.192 1.356 2.832 6.553-2.266 9.038a10.5 10.5 0 0 1-4.758 1.13M314.44 36.11c-1.246.226-1.925 0-1.586-.452.454-.565 2.379-1.355 4.192-1.694 2.039-.34 2.153.113 1.926.452-.453.565-2.606 1.468-4.532 1.694m-1.246 1.13c.114 0 .34 0 .453-.113 1.926-.339 6.005-1.356 8.157-3.163l.114-.113c1.132-1.243-.454-1.356-1.926-1.243-4.532.339-11.103 3.05-10.196 4.293 0 .226.566.791 3.398.34" opacity=".302"/><path fill="#00344A" d="M314.443 36.114c-1.246.226-1.926 0-1.586-.452.906-1.13 6.004-2.485 6.231-1.581.113.564-2.153 1.581-4.305 2.033zM203.419 75.202c-1.133.678-2.606 1.356-2.945 1.243-.114-.904 9.742-6.892 10.649-6.44.113.565-4.192 3.276-7.251 4.97-.113 0-.34.114-.453.227M278.074 36.226c-.566.226-1.699.565-1.812.452.34-.564 6.57-2.937 6.797-2.598-.113.226-1.813 1.017-3.285 1.582-.227.113-.68.226-1.246.452-.227 0-.34.112-.454.112M190.617 104.464c-1.133.452-1.813.339-1.586-.339.339-.904 2.492-2.486 4.305-3.277 2.152-.791 1.925 0 1.812.226-.226 1.017-2.605 2.599-4.531 3.39m-.454.565c.114 0 .227-.113.34-.113 3.399-1.356 6.798-4.407 5.665-5.084-2.266-.678-8.723 4.067-8.27 5.31.226.339 1.019.339 2.265-.113M359.076 17.698c-2.153.226-3.512 0-3.059-.452 1.019-1.243 10.649-2.825 10.536-1.695 0 .678-3.626 1.695-7.138 2.147zM254.399 113.617c-2.492 0-3.172-1.581-1.473-3.389 2.719-2.937 8.724-3.841 8.724-1.356 0 1.921-3.512 4.406-6.798 4.745zM187.218 218.349c-3.059-.452-2.832-4.181.453-6.553 3.285-2.26 6.684-1.243 6.118 1.807-.453 2.486-3.512 4.859-6.118 4.746z" opacity=".302"/><path fill="#00344A" d="M190.618 104.465c-1.133.452-1.813.339-1.586-.339.566-1.581 5.777-4.406 6.231-3.389.226.678-2.153 2.712-4.419 3.615 0 0-.113 0-.226.113M511.223 87.292c0 .113.113.113.113.226 2.039.452 4.645 1.13 6.684 1.581 2.039-1.017.906-3.05-1.473-3.84-3.512-1.244-6.231.225-5.324 2.033m2.152 1.581h.114c.679.226 2.492.791 4.305.113-1.926-.452-4.532-1.016-6.458-1.468.113.113.113.226.34.339.566.451 1.02.79 1.699 1.016" opacity=".302"/><path fill="#00344A" d="M511.453 87.52c1.926.339 4.645 1.016 6.57 1.468-.113.113-.113.113-6.57-1.469" opacity=".514"/><path fill="#00344A" d="M108.708 264.218c-1.699-.113-1.586-2.598.227-4.18.906-.791 1.699-.904 1.926-.904 1.926 0 1.813 2.373.113 3.955-.679.79-1.586 1.129-2.266 1.129m-2.039 4.746h.68c6.911-.226 13.821-10.959 9.63-14.914l-.114-.113c-4.984-4.067-14.387 4.858-13.821 11.185.227 2.26 1.586 3.616 3.625 3.842M264.824 180.952c-1.7-.226-2.039-2.034-.114-3.503 1.7-1.243 4.419-.791 4.079 1.017-.227 1.017-1.586 2.486-3.739 2.486zM84.011 247.158c-1.132.226-1.246-1.017-.226-2.373.113-.113.226-.339.453-.565 1.246-1.243 2.606-1.469 2.606-.339 0 .904-1.133 2.712-2.72 3.277zM257.684 89.44l-2.492 4.293c2.719-1.695 3.739-3.502 2.492-4.293m-7.363 5.988c.226 0 .453-.113.679-.113 2.379-.452 3.965-1.469 3.965-1.469 1.133-1.017 1.813-3.163 2.606-4.519-2.832-1.356-10.876 2.825-10.083 5.197.114.79 1.246 1.13 2.833.904" opacity=".302"/><path fill="#00344A" d="M257.57 89.326s.114 0 .114.113c-.793 1.243-1.7 3.05-2.493 4.293-.113 0-.113.113-.226.113z"/><path fill="#00344A" d="M170.908 150.336c-4.192 1.017-5.778-1.017-3.625-4.406 2.039-3.277 7.024-6.892 11.102-8.022 4.305-1.243 6.457.339 4.645 3.728-1.246 2.373-5.438 6.666-11.669 8.587-.113.113-.34.113-.453.113M152.78 219.704c-2.719 0-3.059-2.937-.567-5.536 2.719-2.824 6.684-3.05 6.797-.226.114 2.034-2.492 5.423-6.004 5.762zM108.707 264.217c-1.7-.113-1.586-2.598.226-4.18 1.7-1.469 3.512-1.017 3.399.678-.113 1.356-1.473 3.389-3.512 3.502zM177.926 104.464c-1.019.452-1.699.565-1.586.226.34-1.13 5.212-4.293 5.665-3.615.34.452-1.586 2.146-3.965 3.389 0-.113-.114 0-.114 0M67.134 232.81c-1.7.904-2.493.452-2.04-1.13 1.133-4.067 7.93-10.507 9.177-8.587.68 1.13-1.246 4.407-2.946 6.214-1.812 2.147-3.285 3.051-3.852 3.39-.113-.113-.226 0-.34.113M212.141 85.71c-2.719 1.018-3.286.679-3.399.227 0-2.034 9.856-7.344 10.989-5.875.68.904-3.512 4.18-7.59 5.649M159.121 103.786c-2.492 1.921-2.832 2.147-2.945 2.147.34-.565 8.61-7.118 9.629-7.683-.113.113-.679.678-3.625 3.05-1.246 1.017-2.379 1.808-2.832 2.26 0 .113-.113.113-.227.226M223.696 64.13c-1.133.565-1.813.791-1.926.678-.113-.339 2.039-1.582 2.832-2.033 2.039-1.13 3.399-1.582 3.512-1.47.227.227-2.039 1.696-4.418 2.825M105.988 156.662c-1.019.903-1.133 1.016-1.246 1.016.227-.677 4.192-4.632 4.645-4.858 0 .113 0 .113-.113.226-.34.452-1.473 1.808-3.172 3.39 0 .113-.114.113-.114.226" opacity=".302"/><path fill="#00344A" d="M249.641 314.379c39.538 16.834 39.538 16.834 72.052 31.521-35.007-15.704-35.007-15.704-72.052-31.521m93.803-116.707c-46.675 47.79-68.313 74.792-95.842 108.912 37.612-48.13 65.934-77.73 95.842-108.912m2.266.226h-.227c-12.915 73.21-15.18 104.505-18.126 144.161 3.965-57.167 10.649-99.083 18.353-144.161"/><path fill="#00344A" d="M237.969 258.003c-.68-10.394-1.133-24.29-1.473-34.684zm103.999-63.042c-43.163 2.373-54.492 3.389-88.139 6.327 41.238-3.616 49.281-4.067 88.139-6.327m1.473 2.598s-.113 0-.113-.113l-5.778 5.988c-48.601 51.293-59.817 65.415-89.838 103.037 37.385-47.79 65.707-77.503 95.729-108.912"/><path fill="#00344A" d="M203.191 174.287c0 .113 0 .113-.113.226.34 0 .793.113 1.133.113 0 0 0-.113.113-.113zm1.7.226c0 .113 0 .113-.114.226l1.587.226.113-.226zm1.812.226-.113.226 14.048 1.921.113-.226zm42.37 27.002q0-.17 0 0c-2.492.113-5.891.452-8.383.678v.226zm-28.208-25.081-.114.226c9.403 1.242 21.978 2.937 31.381 4.18v-.226c-9.403-1.243-21.864-2.938-31.267-4.18m105.019 18.98c-28.776 1.582-36.253 2.373-72.052 5.649 35.233-3.05 47.354-3.954 88.139-6.44zm-73.525-14.8v.226c28.775 3.841 38.858 5.31 89.838 12.879-32.854-5.197-54.492-8.134-89.838-13.105M190.502 185.923c-8.497 10.055-19.486 23.725-27.756 34.007 8.157-10.282 19.486-23.839 27.869-34.007zm-27.529 35.814c8.836-2.485 20.618-5.649 29.342-8.021zm.113-.113c8.837-2.485 20.619-5.649 29.455-8.021-8.95 2.259-20.732 5.536-29.455 8.021m33.987-43.045-6.458 7.231h.114zm1.812-2.034q-.17 0 0 0a6.5 6.5 0 0 0-1.246 1.243s0 .113.113.113c.34-.452.793-.904 1.133-1.356m3.626-1.242-.114.113c.227.226.567.452.793.678l.114-.113zm1.246 1.13-.114.112 1.587 1.469.113-.226zm1.699 1.468-.113.226 9.969 8.474.114-.226zm11.782 10.055-1.812-1.468-.114.226 9.29 7.456.453.113zm14.841 15.93c-8.723 2.034-20.392 4.859-29.115 7.005 8.61-2.259 20.278-4.971 29.115-7.005m-6.684-9.49-.453-.113c2.492 1.921 5.891 4.519 8.383 6.44l.114-.113z"/><path fill="#00344A" d="M162.066 223.771c4.532 6.327 11.103 14.462 15.861 20.563-4.985-5.988-11.216-14.349-15.861-20.563m.907-2.146v.226c8.836-2.486 20.618-5.649 29.342-8.022l.113-.226c-8.837 2.26-20.619 5.536-29.455 8.022m29.681-8.135-.113.226 10.083-2.598.113-.226zm10.196-2.598-.113.226 17.22-4.181L231.966 204c-8.723 1.921-20.279 4.745-29.116 6.892m35.12 47.112c1.133 14.348 3.172 33.442 4.872 47.677-4.532-40.107-4.532-41.689-6.231-82.7l-.114.225m-.226-14.122.113 13.897.113-.226-.113-13.784zm.113-1.582h-.113v1.356l.113-.113c.113-.339.113-.904 0-1.243"/><path fill="#00344A" d="M176.906 300.712c-8.497-1.355-19.713-3.276-28.209-4.745l-17.334-2.824 11.103 1.92c10.309 1.808 24.13 4.068 34.553 5.762zm-14.841-76.939-.114.113c4.532 6.327 10.99 14.349 15.861 20.563l.113-.113c-4.984-5.988-11.215-14.349-15.86-20.563m15.974 20.676-.114.113 3.852 4.519.113-.226zm-.907 56.263v.226l12.009 1.921.113-.226zm5.891-50.388-1.133-1.356-.113.226 1.926 2.259.113-.226zm.907 1.129-.114.226c6.118 7.005 14.615 15.93 20.959 22.709l.113-.226c-6.344-6.666-14.614-15.817-20.958-22.709m5.551 51.293-.114.226c14.501 2.372 33.874 5.536 48.488 7.795-14.614-2.485-33.873-5.648-48.374-8.021m15.634-28.471-.114.226c10.196 10.168 24.018 23.5 34.44 33.442-10.422-9.942-24.13-23.5-34.326-33.668M87.41 259.135c-1.812 1.017-4.191 2.372-6.004 3.502v.226zm6.571-3.842c-.68.113-1.472.791-2.152 1.243-.113 0-.113.113-.113.226l2.492-1.469zm-13.254 9.265c5.437 4.293 13.028 9.49 18.692 13.331-5.778-3.728-13.141-9.151-18.692-13.331m13.481-9.491h.227c6.344-3.615 15.067-8.134 21.524-11.636l.114-.226c-6.571 3.502-15.294 8.36-21.865 11.862m25.717 34.233c-6.231-3.276-14.275-7.908-20.392-11.411 6.004 3.616 14.274 8.022 20.392 11.411m-20.28-11.524c6.005 3.616 14.275 8.022 20.393 11.411-6.231-3.276-14.388-8.021-20.392-11.411m39.312-14.8c-2.832 5.875-6.571 13.671-9.403 19.545h.113l9.403-19.545zm15.861-38.074c-11.669 5.31-27.076 12.654-38.519 18.303l-.113.226c11.556-5.762 27.076-12.993 38.632-18.416zm1.926 4.632-10.763 19.772-7.024 13.557h.113c5.098-10.055 12.349-23.274 17.674-33.216zm-1.813-4.632.113.113c1.133-.452 2.606-1.13 3.739-1.582v-.113zm4.418.113-2.605 4.293v.113z"/><path fill="#00344A" d="M79.705 266.14c-1.246 20.223-1.246 21.579 1.36 57.055-2.38-21.58-2.266-22.935-1.36-57.055m22.658 118.967c-.566 3.728-1.359 8.587-1.926 12.315l.113.113zM91.147 272.241c-3.172-2.26-7.25-5.423-10.309-7.796 0 0-.113.113-.113.226 5.438 4.293 13.028 9.491 18.693 13.332l.113-.226zm20.846 66.319c-3.286 13.783-6.798 32.425-9.63 46.434l.113.113c2.493-14.009 6.571-32.651 9.63-46.547zm-12.349-60.783-.113.226c6.004 3.615 14.274 8.021 20.392 11.298v-.113c-6.118-3.277-14.275-8.022-20.279-11.411m22.545 24.064c-3.399 10.846-7.138 25.421-10.196 36.38h.113c2.719-10.959 7.024-25.421 10.083-36.38"/><path fill="#00344A" d="m32.918 357.313 10.763-25.759-.114-.113m-10.989 33.442v.226c4.078 3.728 9.97 8.134 14.275 11.523l.113-.113c-4.532-3.276-10.083-8.134-14.388-11.636m21.412-55.134-10.196 21.579.113.113 10.196-21.466zm-6.91 66.77-.114.113c6.684 4.407 15.86 9.943 22.77 14.01v-.226c-7.023-3.954-15.973-9.603-22.657-13.897m31.154-110.267c-7.59 12.766-17.107 30.165-24.244 43.384v.113c7.024-13.219 16.767-30.505 24.244-43.497m1.36-.113-.794 23.16c.227 10.282 1.36 23.952 2.153 34.12l.113-.226c-2.38-21.579-2.266-22.935-1.473-57.054m1.472 57.28-.113.226 1.925 14.236.114-.113zm1.926 14.462-.114.112 1.587 9.604h.113zm-13.255 52.535v.226c7.364 3.954 17.447 8.812 25.037 12.428v-.113c-7.59-3.503-17.56-8.7-25.037-12.541m14.954-42.593h-.113l5.438 25.42.226.226zm5.665 25.985-.227-.226c2.04 7.231 4.758 16.834 6.797 24.065l.114-.113z"/><path fill="#00344A" d="M79.25 262.071c-.906 1.469-1.472 3.729-.906 4.407.34-1.356.68-3.051.906-4.407m2.153.226v-.79c-.114-1.017-.907-1.13-2.04.451-.226 1.356-.68 3.277-.906 4.633.34.113.567.113 1.02-.339.793-.791 1.586-2.26 1.813-3.729.113 0 .113-.113.113-.226M160.597 219.932c-1.586 1.129-1.813 2.937-1.926 3.163-.227 1.469.68 2.712 2.605 1.356l.227-.226zm2.492 1.016c0-1.016-.68-2.033-2.266-1.129.227 1.242.68 3.05.907 4.293.793-.791 1.246-1.921 1.359-2.938zM240.687 200.723c-.68-3.389-5.212-3.276-7.591.226-2.605 3.954-.679 7.457 2.719 6.666 1.813-.339 4.079-2.147 4.758-5.084.114-.678.114-1.13.114-1.469q.17-.17 0-.339M203.532 172.591c-.113-1.807-2.039-2.033-3.738-.226-1.926 2.034-1.926 4.745.113 4.632 1.473-.113 3.512-2.033 3.625-4.067z"/><path fill="#00344A" d="M204.889 171.8c0 1.13-.453 2.147-.566 2.599-1.133 2.372-3.399 4.18-5.212 4.067-2.718-.113-2.718-4.067.114-7.005 2.605-2.598 5.664-2.372 5.664.339m.793-.339c-.113-1.582-1.019-2.598-2.379-2.598-4.078-.113-8.61 6.891-6.231 9.716 2.379 2.598 8.27-1.921 8.497-6.553.113-.226.113-.452.113-.565M348.995 193.154c-1.019-2.712-5.211-2.373-6.57.451-.227.452-.34.904-.34 1.243-.227 3.051 3.285 4.068 5.551 2.26.566-.452 1.812-1.695 1.473-3.616-.114-.112-.114-.225-.114-.338"/><path fill="#00344A" d="M67.584 213.152c-14.387 23.952-15.067 25.533-33.08 64.624 10.989-25.42 12.122-27.68 32.967-64.398zm.227-.452-.227.339c.114 0 .227-.226.227-.339m-10.876 31.747c-2.719 11.298-5.211 26.437-6.797 37.961 1.473-11.524 4.418-26.663 6.797-37.961" opacity=".302"/><path fill="#00344A" d="M69.17 211.57c-.114 0-.114.113 0 0l-4.306 9.829.114-.113zm-5.778 13.444-6.231 18.529v.339zm-6.458 19.32v-.339l-4.192 17.85-2.719 20.45c1.586-11.411 4.532-26.663 6.911-37.961m15.294-37.622s-.113.113-.113.225c2.492-1.468 5.89-3.163 8.497-4.519l.226-.226c-2.719 1.243-6.57 2.486-8.61 4.52m8.61-4.633-.226.226c3.058-1.468 7.137-3.163 10.196-4.519l.113-.226c-3.059 1.356-7.024 3.164-10.083 4.519m10.196-4.519-.113.226c7.817-3.05 7.817-3.05 7.817-3.276zM78.461 266.59c-6.004 34.684-6.004 36.379-7.363 78.52.793-36.379 1.246-38.751 7.363-78.52m1.587-8.022c-.227 1.017-.567 2.486-.794 3.503 0-.113.114-.113.114-.226zm17.9-60.557-6.798 10.395.113-.113zm-13.369 41.69-4.531 18.754h.113l4.531-18.528zm.113-.226v.113c3.06-10.507 7.817-24.291 11.443-34.685l-.114.113m2.946-7.118-2.832 6.892.113-.113z" opacity=".302"/><path fill="#00344A" d="M79.363 261.958c-.113.113-.113.113-1.02 4.633l.114.113c.34-1.582.68-3.39.906-4.746"/><path fill="#00344A" d="M51.95 300.146c-.68-3.955-1.247-9.265-1.813-13.219 0 0 0 .113-.114.113.68 6.892 2.606 15.93 3.966 22.709l.113-.226zm2.152 9.603-.113.226 2.492 8.586c3.172 9.039 8.27 20.563 12.122 29.262-4.985-11.185-10.763-26.437-14.501-38.074M91.034 208.52l-2.719 4.293-6.684 11.072v.113zM57.278 269.188c-2.946 2.938-4.079 8.812-5.891 12.541zm24.244-45.079c-7.59 13.219-17.107 31.296-24.131 44.853h.113c6.005-11.976 14.501-27.68 20.959-39.43zM155.836 180.5c.906 11.863 3.059 27.567 4.985 39.317-2.04-11.637-3.965-27.454-4.985-39.317" opacity=".302"/><path fill="#00344A" d="m160.824 219.816.907 4.407z"/><path fill="#00344A" d="M118.792 297.886c-10.989 11.75-25.263 27.793-35.8 39.995zm34.44-118.063q0-.17 0 0l-8.383 13.106v.113zM116.075 243.543c-2.379 2.485-3.626 7.117-5.212 10.168h.114l5.211-10.394zm28.662-50.502c-8.95 14.913-20.279 35.024-28.549 50.276l.113-.113c8.157-15.252 19.599-35.25 28.436-50.05z" opacity=".302"/><path fill="#00344A" d="m116.188 243.316-.114.227.114-.113.113-.227z"/><path fill="#00344A" d="M80.954 323.419c-2.266 6.666-5.325 15.478-7.59 22.144l.113.113 7.477-21.918zm18.466-45.531c-5.891 13.445-13.029 31.634-18.466 45.305v.226c5.324-13.784 12.915-31.86 18.466-45.531m7.024-14.8q-.171 0 0 0l-6.91 14.574h.112zM82.88 337.879c-2.493 3.164-5.778 7.344-8.384 10.507v.113l8.383-10.394zm35.912-39.994v-.113c-10.989 11.75-25.263 27.793-35.8 39.994v.113c10.423-12.201 24.924-28.245 35.8-39.994m33.647-32.877c-6.344 5.988-14.728 14.009-20.958 19.997v.113l14.047-13.558 7.024-6.552zm11.329-10.168v-.113l-11.102 10.055h.226zM205.004 274.16l.113.113c9.177-15.478 21.752-35.814 31.268-51.067v-.225c-9.63 15.252-22.205 35.701-31.381 51.179m44.976-71.177c-.114-.113 0-.113 0 0l-13.368 19.772v.226z" opacity=".302"/><path fill="#00344A" d="M236.387 222.98v.339l.226-.339v-.226z"/><path fill="#00344A" d="M236.273 209.084c-13.822 8.022-31.948 18.981-45.543 27.228 13.595-8.36 31.835-19.206 45.543-27.228" opacity=".302"/><path fill="#00344A" d="m236.496 208.971-.226.113z"/><path fill="#00344A" d="M207.047 226.033c8.723-5.31 20.505-11.976 29.228-17.173-8.836 5.084-20.505 12.089-29.228 17.173M173.285 281.617l-2.265-14.123h-.227c1.586 9.942 4.192 23.161 6.118 33.103h.226zm3.852 19.319h-.226l3.172 13.896.34 1.017h.113zM169.43 256.422s-.114 0-.114.113c.454 3.276 1.02 7.569 1.473 10.846h.227zM184.383 240.151l-.113.226 6.23-3.954.114-.226z" opacity=".302"/><path fill="#00344A" d="m225.395 194.397-.454-.114z"/><path fill="#00344A" d="m207.044 226.033-16.2 9.942-.114.226c13.595-8.361 31.835-19.207 45.543-27.228v-.226c-8.837 5.197-20.506 12.202-29.229 17.286m42.144-24.178-.114-.113-12.575 7.005v.226z" opacity=".302"/><path fill="#00344A" d="M236.27 208.859v.227l.226-.113v-.114z"/><path fill="#00344A" d="M159.121 177.225c9.403 2.824 21.978 6.213 31.381 8.699-9.403-2.486-21.978-5.988-31.381-8.699" opacity=".302"/><path fill="#00344A" d="m190.504 185.922.113.113z"/><path fill="#00344A" d="m177.926 244.333.113.113 5.891-3.841.227-.113v-.226zM177.699 244.445l-3.851 2.599v.113c1.246-.791 2.832-1.808 3.851-2.712" opacity=".302"/><path fill="#00344A" d="m177.93 244.334-.227.113.113.114.227-.114z"/><path fill="#00344A" d="m155.836 180.501-.113.113c.906 11.863 3.058 27.567 5.098 39.316-2.04-11.749-3.965-27.566-4.985-39.429m5.891 43.723-.113.113a1436 1436 0 0 1 5.438 21.014s.113 0 .113-.113zm-2.492-47.113c6.684 2.034 15.634 4.52 22.318 6.327-6.684-1.807-15.634-4.406-22.318-6.327" opacity=".302"/><path fill="#00344A" d="m160.824 219.816-.113.113c.227 1.356.68 3.051.906 4.294l.114-.113z"/><path fill="#00344A" d="m201.375 188.522-.113.113c2.492.565 5.664 1.356 8.157 1.921 0 0 0-.113.113-.113zm50.754-7.456a826 826 0 0 1-.567 16.72h.113l.567-16.607zm-.567-64.173q0-.17 0 0c-8.723 4.745-20.165 11.298-28.889 16.269l-.113.113c8.723-5.084 20.279-11.524 29.002-16.382m6.684 2.938h-.113c-3.625 25.194-3.739 26.55-6.004 61.009h.113c1.699-28.584 2.039-30.957 6.004-61.009" opacity=".302"/><path fill="#00344A" d="M252.133 180.84v.227h.226v-.227z"/><path fill="#00344A" d="M224.602 194.057c-2.379-1.13-6.004-1.356-8.497-2.034 0 0 0 .113-.113.113l8.95 2.147zm.453.113.34.226c7.137 1.695 16.767 3.841 23.904 5.423v-.113c-7.25-1.582-16.88-3.841-24.244-5.536" opacity=".302"/><path fill="#00344A" d="m225.055 194.172.34.227zM225.059 194.172l-.454-.113.34.226.454.114z"/><path fill="#00344A" d="M181.552 183.438c-6.684-1.808-15.634-4.406-22.318-6.327l-.113.113c9.403 2.825 21.978 6.214 31.381 8.699l.113-.113zm9.29 2.372-.113.113 10.536 2.599.113-.113zm-30.361-13.218q0 .17 0 0c26.509-17.851 32.627-21.579 62.082-39.317l.113-.113c-29.002 17.286-34.1 20.675-62.195 39.43" opacity=".302"/><path fill="#00344A" d="m190.73 185.809-.226.113.113.113.227-.226z"/><path fill="#00344A" d="M57.16 243.881v-.339l3.172-15.14-3.286 15.705v.339c-.68 7.456-.34 17.398-.113 24.855l.113-.226c-.68-7.57-.34-17.625.113-25.194m6.23-18.981-.566.339c4.758-2.711 11.216-6.101 16.087-8.473-4.645 2.259-10.876 5.536-15.52 8.134m14.841-3.502c-4.531 8.925-9.856 21.014-14.048 30.052 3.852-9.038 9.743-21.014 14.048-30.052" opacity=".302"/><path fill="#00344A" d="M80.162 258.342c-6.91 3.051-15.974 7.344-22.771 10.507h-.114l-.34.113c5.892-14.461 14.502-33.554 21.186-47.677-4.532 8.926-9.857 21.014-14.048 30.053l-7.138 17.511-.113.226v.113l.227-.113h.113c6.684-3.276 15.86-7.456 22.658-10.507h.113l7.25-3.163zm4.531-18.754v-.113l-2.945-14.123c1.586 8.022 4.645 18.529 7.364 26.212zM96.702 167.282c-8.044 11.072-17.787 26.437-24.924 38.074l.113-.113c7.024-11.75 17.107-26.776 24.81-37.961m-29.116 45.87.114-.226c0-.113.113-.113.113-.226zl-.113.226c-1.586 3.05-3.625 7.23-5.211 10.281zm-5.324 11.637 2.492-3.277.113-.113 8.837-10.959zm18.466-22.596-.227.226c-4.871 5.536-10.989 13.218-15.747 18.98l-.113.113-2.493 3.277c13.029-16.947 14.841-18.755 36.14-41.351-5.212 5.423-12.236 13.106-17.56 18.755m18.693-38.187c-.907 1.582-2.38 3.954-2.266 5.875.226 3.389 1.586 7.795 3.285 10.62-1.133-1.356-2.832-3.503-2.945-5.31-.227-3.39.68-8.022 1.926-11.185" opacity=".302"/><path fill="#00344A" d="M79.025 216.768c-4.872 2.373-11.33 5.762-16.087 8.474zm-16.087 8.474c-1.133.678-1.133.677-1.36.903l1.7-1.129c1.586-.904 3.625-2.26 5.324-3.051m30.588-39.204v-.113l-.68.678c-16.54 16.947-16.88 17.399-36.252 41.464l11.329-14.349 7.024-8.134.226-.226M111.313 258.342c0 .113 0 .113-.114.226 8.27 1.468 19.373 3.163 27.756 4.406l.113-.226c-8.383-1.13-19.485-3.051-27.755-4.406m59.703 9.038h-.227l-18.013-2.486h-.226l-13.482-1.92-.113.226 13.368 1.92h.227l18.239 2.599h.227c1.133.113 2.719.339 3.965.565v-.226zm-1.02-11.298c-.113 0-.113.113-.113.113 1.699 3.05 4.078 7.118 5.778 10.168l.113-.113z" opacity=".302"/><path fill="#00344A" d="m138.953 262.977.113-.114zM139.066 262.863l-.113.114.113.113.114-.227z"/><path fill="#00344A" d="M144.848 193.042v-.113l-2.039-10.394 1.926 10.62v.113c2.492 9.716 6.684 22.37 10.082 31.747l.114-.113c-3.512-9.49-7.364-22.257-10.083-31.86m10.196 31.973-.113.113 1.925 4.52.114-.226zm1.812 4.407-.113.226c2.493 5.31 5.891 12.427 8.497 17.737 0 0 0-.113.113-.113z" opacity=".302"/><path fill="#00344A" d="m154.93 224.902-.114.113.114.113.113-.113zm1.926 4.407-.114.225v.113l.114-.225z"/><path fill="#00344A" d="M92.621 254.727c0 .113 0 .113-.113.226l1.36.338.226-.113zm1.813.451-.227.113c3.625.678 8.384 1.695 12.009 2.373 0 0 0-.113.113-.113z" opacity=".302"/><path fill="#00344A" d="m94.207 255.068-.226.227h.226l.227-.113z"/><path fill="#00344A" d="m81.742 225.352-.113-1.356v-.113c-.113-1.582-.227-3.728-.34-5.31l-.113.113.34 5.31v.113c.566 4.745 2.152 10.846 3.172 15.591v.113l4.418 11.75c-2.832-7.683-5.664-18.19-7.364-26.211m54.379-40.673c-19.146 26.212-19.599 26.889-43.05 64.737 16.54-27.341 19.599-31.521 43.05-64.737M91.036 197.673l-.114.226-6.91 12.654L87.524 204l3.398-6.101zm10.875-16.834a894 894 0 0 1 16.427-1.694 728 728 0 0 0-16.427 1.694m-5.664 23.952-4.985 3.502-.113.113-7.477 5.649 7.364-5.423.113-.113 4.985-3.502.113-.113c6.571-4.519 15.521-10.168 22.205-14.462l17.673-10.507c-16.427 9.378-17.787 10.281-39.878 24.856M98.284 176.999c-1.02-2.034-1.246-5.198-1.133-7.457.114-1.808 1.587-4.067 2.266-5.762l-.113.113c-2.38 4.067-2.38 4.067-1.926 11.298.113 1.808 2.04 3.615 2.946 5.197v-.113zm53.133-66.319c-25.037 22.822-25.037 22.821-48.601 48.92 9.063-10.055 21.072-23.726 31.041-32.877 5.325-4.745 12.575-10.959 17.56-16.043m-49.054 67.561c17.106-31.182 28.435-43.949 48.827-67.109-23.564 24.629-32.514 39.768-48.827 67.109" opacity=".302"/><path fill="#00344A" d="M151.304 111.13q-.17.17 0 0c-23.677 24.743-32.627 39.769-48.827 67.11 16.993-31.182 28.322-43.949 48.827-67.11m-32.967 67.901c-4.985.565-11.555 1.243-16.427 1.808l-.113.113c20.052-2.147 20.052-2.147 35.573-3.842-5.778.565-13.368 1.356-19.033 1.921m34.1-68.804-.113.113c-20.166 25.081-15.521 45.417-11.669 61.799-9.516-30.504 1.813-47.225 11.782-61.912M215.313 186.599c-.114.113-.114.339-.227.452h.113zm5.324-9.829-5.211 9.604.113.113 5.211-9.604zm34.1-56.715q-.17 0 0 0c-13.821 21.24-14.161 21.918-33.987 56.489h.114c12.801-22.821 14.727-25.985 33.873-56.489" opacity=".302"/><path fill="#00344A" d="m220.75 176.66-.113.114.113.113.113-.227zM215.426 186.375l-.114.227h.114l.113-.114z"/><path fill="#00344A" d="m192.43 213.715-8.156 26.55-.114.226-2.379 8.361.114.113 2.379-8.7.113-.226 8.157-26.437zm12.802-35.701-3.965 10.507-.113.113-8.724 24.855h.114l8.723-24.855.113-.113zm1.246-3.164-1.133 2.938.114.113 1.133-2.938zm5.891-14.009h-.113l-5.664 13.896h.113zm40.105-42.029c-9.856 9.378-22.885 22.144-32.628 31.748 9.63-9.604 22.772-22.257 32.628-31.748" opacity=".302"/><path fill="#00344A" d="m206.59 174.738-.113.114.113.113.113-.227zM205.341 177.789l-.114.226.114.113zM192.43 213.604l-.114.226h.114l.113-.226z"/><path fill="#00344A" d="m181.668 249.191-4.078 15.705h.113c1.246-4.633 2.832-10.959 4.079-15.592z" opacity=".302"/><path fill="#00344A" d="m181.781 248.965-.113.227.113.113.114-.227z"/><path fill="#00344A" d="M202.626 211.118 190.618 236.2l-.114.226-6.684 14.913.114.113 6.797-15.139.113-.226 11.896-24.969zm8.044-15.591-7.93 15.365h.113z" opacity=".302"/><path fill="#00344A" d="m202.738 210.891-.113.226h.113l.114-.226z"/><path fill="#00344A" d="m183.821 251.564-5.665 13.332h.114a1569 1569 0 0 0 5.664-13.332z" opacity=".302"/><path fill="#00344A" d="M183.82 251.338v.227l.114.113v-.227z"/><path fill="#00344A" d="M242.615 88.875c-7.59 14.461-7.817 15.026-20.165 44.288l-.114.113-6.91 19.093 7.024-19.093.113-.113c6.797-17.06 7.251-18.077 20.052-44.288m9.856 30.052c-9.969 9.378-22.997 22.144-32.627 31.747l-2.266 2.486c10.31-10.394 24.357-24.065 34.893-34.233m-8.27-30.843c-.113 0-.113.113-.113.113 3.512 5.988 8.61 13.67 12.575 19.319 0 0 .113 0 .113-.113-3.965-5.649-8.95-13.444-12.575-19.319M221.544 76.334c-35.346 35.927-53.246 61.913-73.978 91.965 31.381-46.886 52.113-68.804 73.978-91.965m20.166 12.202c-45.543 35.362-66.501 55.698-93.011 81.571 36.366-36.041 60.383-55.699 93.011-81.571M237.747 82.66c-3.286-2.485-7.251-6.44-10.083-9.377l-.113.113 6.231 6.327c2.605 2.033 6.117 4.745 8.836 6.665l.114-.113zm43.956-53.213c-20.732 13.332-27.529 18.98-50.3 37.735 25.83-21.353 26.283-21.692 50.187-37.735-18.58 16.608-27.643 35.588-37.159 55.699 14.614-32.99 25.15-43.61 37.385-55.812zM249.074 201.741c.453 1.808 3.059 2.034 4.645-.339l.113-.113zm5.212-2.711a2.2 2.2 0 0 0-.567-1.017c-1.813-1.469-4.871 1.017-4.531 3.502 1.472-.113 3.398-.339 4.871-.451.113-.339.453-1.017.34-1.808-.113 0-.113-.113-.113-.226" opacity=".302"/><path fill="#00344A" d="m249.074 201.741 4.758-.452zM249.074 201.627v.113c1.36-.113 3.286-.339 4.645-.452 0-.113.113-.113.113-.226z"/><path fill="#00344A" d="M160.482 174.06c.453-2.486-1.133-3.277-3.285-1.695-3.399 2.485-5.325 8.021-2.946 8.473.453.113 1.02 0 1.586-.339 2.719-1.581 4.192-4.519 4.532-6.214 0-.113.113-.113.113-.225M173.963 247.723c-.226-4.519-4.531-5.31-7.817-1.468-1.812 2.033-3.285 5.536-2.379 8.473 1.36 4.18 6.571 2.825 9.063-2.259.793-1.469 1.133-3.051 1.133-4.746q0 .17 0 0M73.134 205.13c.68-1.13 1.36-2.599 1.246-2.938-.906-.113-6.91 9.717-6.457 10.62.566.113 3.285-4.18 4.984-7.23 0-.113.114-.339.227-.452M102.477 192.363c-.68 1.921-2.379 4.181-3.4 4.632-.226.113-1.019.339-.226-1.807.793-1.921 2.379-3.954 3.286-4.293.566-.226.679.339.34 1.468m.566-.452c.453-1.242.453-2.033.113-2.146-1.246-.452-6.004 5.988-5.324 8.247.68 1.13 3.625-2.259 5.098-5.649 0-.226.113-.339.113-.452M111.654 255.971c0-2.486-1.586-3.164-3.399-1.469-2.945 2.711-3.852 8.699-1.359 8.699 1.926 0 4.418-3.502 4.758-6.779zM216.675 188.974c-.454-3.051-4.192-2.825-6.571.452-2.266 3.276-1.246 6.665 1.812 6.101 2.493-.452 4.872-3.503 4.759-6.101.113-.113 0-.226 0-.452" opacity=".302"/><path fill="#00344A" d="M102.478 192.363c.453-1.13.34-1.807-.34-1.581-1.586.564-4.418 5.762-3.398 6.213.68.226 2.719-2.146 3.625-4.406 0 0 0-.113.113-.226M262.664 110.679c0 .791-.34 1.582-1.133 2.373-1.586 1.582-3.965 1.807-3.965-.113 0-.339.113-1.017.906-1.921 1.587-1.92 4.079-2.146 4.192-.339m4.758-2.033c-.226-2.034-1.586-3.39-3.852-3.616-6.344-.565-15.18 8.813-11.215 13.784l.113.113c3.965 4.18 14.728-2.712 14.954-9.604zM179.172 266.365c-.226-1.695-2.039-2.034-3.512-.113-1.246 1.694-.793 4.406 1.02 4.067 1.019-.226 2.492-1.582 2.492-3.728zM245.563 86.05c.227-1.13-1.019-1.243-2.379-.226-.113.113-.34.226-.566.452-1.247 1.243-1.473 2.598-.34 2.598.906 0 2.719-1.13 3.285-2.711zM87.411 259.248c.793 1.243 2.72.226 4.305-2.486zm6.005-7.457c.226-1.582-.114-2.598-.907-2.824-2.492-.791-6.57 7.23-5.211 10.055 1.36-.791 3.399-1.469 4.531-2.599 0 0 1.02-1.581 1.473-3.954.114-.113.114-.452.114-.678" opacity=".302"/><path fill="#00344A" d="M87.297 259.134s0 .113.113.113c1.246-.791 3.059-1.695 4.305-2.486 0-.113.113-.113.113-.226z"/><path fill="#00344A" d="M148.471 172.704c1.019-4.18-1.02-5.762-4.419-3.615-3.285 2.033-6.91 7.004-8.043 11.072-1.246 4.293.34 6.439 3.738 4.632 2.379-1.243 6.684-5.423 8.61-11.637.114-.113.114-.339.114-.452M218.03 154.629c0-2.712-2.945-3.051-5.551-.565-2.832 2.711-3.059 6.666-.226 6.779 2.039.113 5.437-2.486 5.777-5.988zM262.669 110.68c-.114-1.695-2.606-1.582-4.192.226-1.473 1.695-1.02 3.502.68 3.389 1.359-.113 3.398-1.468 3.512-3.502zM102.478 179.709c.453-1.017.566-1.694.226-1.581-1.133.338-4.305 5.197-3.625 5.648.453.339 2.152-1.581 3.399-3.954-.114 0 0-.113 0-.113M231.175 69.216c.906-1.695.453-2.486-1.133-2.034-4.078 1.13-10.536 7.909-8.61 9.151 1.133.678 4.419-1.242 6.231-2.937 2.153-1.808 3.059-3.276 3.399-3.841-.113-.113 0-.226.113-.34M83.672 213.831c1.02-2.712.68-3.277.227-3.39-2.04 0-7.364 9.83-5.891 10.959.906.678 4.192-3.615 5.664-7.569M101.797 160.955c1.926-2.485 2.153-2.824 2.153-2.937-.567.339-7.138 8.586-7.704 9.603.113-.113.68-.678 3.059-3.616 1.019-1.242 1.813-2.372 2.266-2.824.113 0 .113-.113.226-.226M62.033 225.355c.566-1.13.793-1.808.68-1.921-.34-.113-1.587 2.034-2.04 2.824-1.133 2.034-1.586 3.39-1.473 3.503.227.226 1.7-2.034 2.833-4.406M154.817 107.967c.906-1.016 1.019-1.129 1.019-1.242-.679.226-4.645 4.18-4.871 4.632.113 0 .113 0 .226-.113.454-.339 1.813-1.469 3.399-3.164.113 0 .113-.113.227-.113" opacity=".302"/></svg>