<svg xmlns="http://www.w3.org/2000/svg" width="90" height="89" fill="none"><g fill="#2A2A2A" clip-path="url(#a)"><path d="M36.945 107.472c0 38.863 31.505 70.367 70.367 70.367 38.862 0 70.367-31.504 70.367-70.367 0-38.862-31.505-70.367-70.367-70.367-38.862 0-70.367 31.505-70.367 70.367Zm119.624 0c0 27.204-22.053 49.257-49.257 49.257-27.204 0-49.257-22.053-49.257-49.257 0-27.204 22.053-49.256 49.257-49.256 27.204 0 49.257 22.052 49.257 49.256Z"/><path d="M-1.252 107.472c0 59.589 48.606 107.895 108.565 107.895 59.959 0 108.566-48.306 108.566-107.895 0-59.59-48.607-107.896-108.566-107.896S-1.252 47.883-1.252 107.472Zm195.418 0c0 47.671-38.885 86.316-86.853 86.316-47.967 0-86.852-38.645-86.852-86.316 0-47.672 38.885-86.317 86.852-86.317 47.968 0 86.853 38.645 86.853 86.317Z"/></g><defs><clipPath id="a"><path fill="#fff" d="M90 .773H0v87.453h90z"/></clipPath></defs></svg>