<svg xmlns="http://www.w3.org/2000/svg" width="123" height="91" fill="none"><g fill="#2A2A2A" clip-path="url(#a)"><path d="m-2.624 60.964-32.75-30.316-6.554 26.482L-4.36 95.306l1.737-34.342Z"/><path d="M6.002 38.196-21.754 23.31l17.69 71.925 21.57-10.545L6.002 38.196Z"/><path d="m2.062.777-23.859 22.56L9.838 52.816l37.386 56.08 26.602-11.024-35.709-46.014L2.062.777Z"/><path d="m54.893 25.735-15.818 7.908 5.273 26.842 2.876 48.171 26.602-10.8-8.867-35.694-10.066-36.428Z"/><path d="m60.405 22.858-19.173 9.825 24.685 33.074 21.568 28.997h38.63l-65.71-71.896Z"/></g><defs><clipPath id="a"><path fill="#fff" d="M123 0H0v91h123z"/></clipPath></defs></svg>