<svg width="655" height="261" viewBox="0 0 655 261" fill="none" xmlns="http://www.w3.org/2000/svg">
<path d="M557.626 182.1C480.332 228.217 403.062 257.118 340.63 266.579C309.413 271.31 281.936 271.175 260.033 265.926C238.133 260.677 221.856 250.329 212.929 234.67C204.002 219.011 203.212 199.423 209.53 177.337C215.849 155.25 229.263 130.718 248.659 105.25C287.448 54.3182 350.083 -0.256038 427.376 -46.3733C504.67 -92.4907 581.94 -121.391 644.372 -130.852C675.589 -135.583 703.066 -135.449 724.968 -130.2C746.869 -124.951 763.146 -114.603 772.073 -98.944C781 -83.285 781.79 -63.6966 775.472 -41.6109C769.153 -19.5232 755.739 5.00862 736.343 30.4761C697.554 81.4083 634.919 135.983 557.626 182.1Z" stroke="white" stroke-width="1.1866"/>
<path d="M539.956 177.719C466.844 221.341 394.157 249.381 335.753 259.467C306.549 264.51 280.949 265.059 260.665 260.844C240.381 256.629 225.479 247.669 217.542 233.747C209.606 219.826 209.32 202.145 215.721 182.008C222.123 161.871 235.195 139.346 253.865 115.825C291.202 68.7871 350.848 17.87 423.959 -25.7519C497.07 -69.3737 569.758 -97.4137 628.161 -107.499C657.365 -112.543 682.966 -113.091 703.25 -108.877C723.534 -104.662 738.436 -95.701 746.372 -81.7799C754.309 -67.8588 754.595 -50.1773 748.193 -30.0405C741.792 -9.90385 728.72 12.6215 710.05 36.1423C672.712 83.1805 613.067 134.098 539.956 177.719Z" stroke="white" stroke-width="1.1866"/>
<path d="M21.27 200.359C21.4518 199.589 22.5482 199.589 22.73 200.359L25.2573 211.07C25.4531 211.899 26.1008 212.547 26.9304 212.743L37.6409 215.27C38.4113 215.452 38.4113 216.548 37.6409 216.73L26.9304 219.257C26.1008 219.453 25.4531 220.101 25.2573 220.93L22.73 231.641C22.5482 232.411 21.4518 232.411 21.27 231.641L18.7427 220.93C18.5469 220.101 17.8992 219.453 17.0696 219.257L6.35908 216.73C5.58874 216.548 5.58874 215.452 6.35908 215.27L17.0696 212.743C17.8992 212.547 18.5469 211.899 18.7427 211.07L21.27 200.359Z" stroke="white" stroke-width="1.5"/>
<path d="M117.527 36.3017C117.769 35.2745 119.231 35.2745 119.473 36.3017L121.523 44.9895C121.697 45.7269 122.273 46.3027 123.011 46.4767L131.698 48.5267C132.725 48.7691 132.725 50.2309 131.698 50.4733L123.011 52.5233C122.273 52.6973 121.697 53.2731 121.523 54.0105L119.473 62.6983C119.231 63.7255 117.769 63.7255 117.527 62.6983L115.477 54.0105C115.303 53.2731 114.727 52.6973 113.989 52.5233L105.302 50.4733C104.275 50.2309 104.275 48.7691 105.302 48.5267L113.989 46.4767C114.727 46.3027 115.303 45.7269 115.477 44.9895L117.527 36.3017Z" fill="white" stroke="white"/>
</svg>
