<svg xmlns="http://www.w3.org/2000/svg" width="158" height="172" fill="none"><g clip-path="url(#a)"><path fill="url(#b)" d="M86.769 187.063c31.935-11.173 47.137-44.137 33.953-73.625-13.183-29.49-49.76-44.337-81.695-33.163C7.09 91.45-8.111 124.412 5.073 153.901c13.183 29.489 49.76 44.336 81.696 33.162Z"/><path fill="url(#c)" d="M96.328 67.828c9.727-3.403 14.356-13.443 10.341-22.424-4.015-8.981-15.155-13.503-24.882-10.1-9.726 3.403-14.356 13.443-10.34 22.424 4.014 8.981 15.154 13.503 24.881 10.1Z"/><path fill="url(#d)" d="M181.351 174.926c50.416-17.639 74.414-69.678 53.602-116.231-20.813-46.553-78.555-69.993-128.971-52.353C55.566 23.982 31.567 76.02 52.38 122.573c20.812 46.554 78.555 69.993 128.971 52.353Z"/></g><defs><linearGradient id="b" x1="-18.798" x2="141.161" y1="100.507" y2="174.275" gradientUnits="userSpaceOnUse"><stop stop-color="#DF1285" stop-opacity=".74"/><stop offset="1" stop-color="#DF1285"/></linearGradient><linearGradient id="c" x1="64.903" x2="113.071" y1="43.092" y2="63.697" gradientUnits="userSpaceOnUse"><stop stop-color="#fff"/><stop offset="1" stop-color="#fff" stop-opacity="0"/></linearGradient><linearGradient id="d" x1="126.524" x2="118.643" y1="-40.338" y2="187.764" gradientUnits="userSpaceOnUse"><stop stop-color="#ED138D" stop-opacity=".33"/><stop offset=".507" stop-color="#ED138D" stop-opacity=".953"/><stop offset="1" stop-color="#ED138D"/></linearGradient><clipPath id="a"><path fill="#fff" d="M0 0h158v172H0z"/></clipPath></defs></svg>