<svg xmlns="http://www.w3.org/2000/svg" width="172" height="137" fill="none"><g clip-path="url(#a)"><path fill="url(#b)" fill-opacity=".5" d="M145.138 124.374c2.269-.794 3.35-3.137 2.413-5.232-.937-2.096-3.536-3.151-5.806-2.357-2.269.794-3.35 3.137-2.413 5.232.937 2.096 3.536 3.151 5.806 2.357Z"/><path fill="#EA138C" fill-opacity=".7" d="M160.531 142.003c9.402-3.29 13.878-12.994 9.996-21.676-3.881-8.682-14.65-13.054-24.052-9.764-9.403 3.29-13.878 12.995-9.997 21.677 3.882 8.682 14.65 13.053 24.053 9.763Z"/><path fill="url(#c)" d="M55.836 84.712c4.254 0 7.702-3.108 7.702-6.941 0-3.833-3.448-6.94-7.702-6.94-4.253 0-7.701 3.107-7.701 6.94s3.448 6.94 7.701 6.94Z"/><path fill="#EA138C" fill-opacity=".2" d="M25.993 168.812c51.573 0 93.382-37.678 93.382-84.158 0-46.479-41.809-84.158-93.382-84.158-51.574 0-93.383 37.679-93.383 84.158 0 46.48 41.809 84.158 93.383 84.158Z"/><path fill="#EA138C" fill-opacity=".8" d="M26.349 124.589c24.348 0 44.086-17.789 44.086-39.732 0-21.943-19.738-39.732-44.086-39.732-24.349 0-44.087 17.789-44.087 39.732 0 21.943 19.738 39.732 44.087 39.732Z"/></g><defs><linearGradient id="b" x1="137.636" x2="149.003" y1="118.223" y2="123.465" gradientUnits="userSpaceOnUse"><stop stop-color="#fff"/><stop offset="1" stop-color="#fff" stop-opacity="0"/></linearGradient><linearGradient id="c" x1="63.538" x2="49.731" y1="70.83" y2="86.15" gradientUnits="userSpaceOnUse"><stop stop-color="#fff"/><stop offset="1" stop-color="#fff" stop-opacity="0"/></linearGradient><clipPath id="a"><path fill="#fff" d="M0 0h172v137H0z"/></clipPath></defs></svg>