<svg xmlns="http://www.w3.org/2000/svg" width="36" height="36" fill="none"><g clip-path="url(#a)"><path fill="#fff" fill-rule="evenodd" d="M30.255 5.586A17.231 17.231 0 0 0 17.986.5C8.426.5.646 8.28.643 17.842a17.312 17.312 0 0 0 2.315 8.67L.498 35.5l9.193-2.412A17.325 17.325 0 0 0 17.98 35.2h.007c9.559 0 17.34-7.78 17.344-17.343a17.237 17.237 0 0 0-5.075-12.27ZM17.986 32.27h-.006a14.397 14.397 0 0 1-7.337-2.01l-.526-.312-5.456 1.432 1.456-5.32-.342-.545a14.38 14.38 0 0 1-2.204-7.672C3.574 9.895 10.04 3.43 17.99 3.43c3.851.001 7.47 1.503 10.192 4.228a14.33 14.33 0 0 1 4.218 10.198c-.003 7.948-6.47 14.415-14.415 14.415Zm7.907-10.796c-.433-.217-2.564-1.265-2.961-1.41-.397-.145-.686-.217-.975.217-.289.434-1.12 1.41-1.372 1.699-.253.29-.506.325-.939.108-.433-.216-1.83-.674-3.485-2.15-1.288-1.15-2.158-2.569-2.41-3.002-.253-.434-.003-.646.19-.885.468-.582.938-1.193 1.083-1.482.144-.29.072-.542-.037-.76-.108-.216-.975-2.35-1.335-3.217-.352-.845-.71-.73-.976-.744a17.268 17.268 0 0 0-.83-.015c-.29 0-.759.108-1.156.542-.397.434-1.516 1.482-1.516 3.616 0 2.133 1.552 4.193 1.769 4.482.216.29 3.056 4.667 7.403 6.544 1.034.447 1.84.713 2.47.913 1.039.33 1.983.283 2.73.171.833-.124 2.564-1.048 2.925-2.06.361-1.012.361-1.88.253-2.061-.109-.18-.398-.29-.83-.506Z" clip-rule="evenodd"/></g><defs><clipPath id="a"><path fill="#fff" d="M.429.5h35v35h-35z"/></clipPath></defs></svg>