<svg xmlns="http://www.w3.org/2000/svg" width="123" height="101" fill="none"><g fill="#F91155" clip-path="url(#a)"><ellipse cx="2.926" cy="-3.031" rx="28.879" ry="27.008"/><path d="M80.675-11.342c0 40.159-34.81 72.713-77.75 72.713s-77.75-32.554-77.75-72.713c0-40.159 34.81-72.714 77.75-72.714s77.75 32.555 77.75 72.714Zm-132.175 0c0 28.111 24.367 50.9 54.425 50.9 30.058 0 54.425-22.789 54.425-50.9 0-28.111-24.367-50.9-54.425-50.9-30.058 0-54.425 22.789-54.425 50.9Z"/><path d="M122.882-11.342c0 61.577-53.707 111.494-119.958 111.494-66.25 0-119.957-49.917-119.957-111.494 0-61.576 53.707-111.494 119.957-111.494 66.251 0 119.958 49.918 119.958 111.494Zm-215.924 0c0 49.261 42.966 89.196 95.966 89.196 53.001 0 95.966-39.934 95.966-89.196 0-49.261-42.965-89.195-95.966-89.195-53 0-95.966 39.934-95.966 89.195Z"/></g><defs><clipPath id="a"><path fill="#fff" d="M0 0h123v101H0z"/></clipPath></defs></svg>