<svg width="1309" height="456" viewBox="0 0 1309 456" fill="none" xmlns="http://www.w3.org/2000/svg">
<g clip-path="url(#clip0_669_870)">
<path d="M0 247.065C99.1072 204.918 200.977 173.608 301.736 140.778C325.652 132.985 349.596 125.345 373.636 118.371C383.843 115.41 394.043 111.558 404.451 110.98C412.513 110.532 409.363 127.225 408.395 130.689C401.215 156.381 381.614 195.828 371.746 214.452C346.125 262.807 321.446 301.582 293.354 347.017C282.954 363.838 272.225 380.25 262.047 397.345C255.456 408.416 244.176 417.042 243.065 431.484C242.465 439.285 253.527 439.424 258.924 437.936C309.278 424.058 432.855 350.132 461.149 333.878C555.325 279.778 658.199 217.35 752.285 160.956C781.173 143.641 809.774 125.308 838.976 109.103C851.523 102.14 864.067 93.7878 877.433 91.5056C881.65 90.7855 888.584 94.5963 888.444 100.656C888.078 116.427 880.844 130.33 876.2 144.649C858.541 199.093 834.788 258.824 815.064 310.884C812.588 317.421 771.264 418.237 769.541 446.148C767.841 473.68 808.431 436.215 825.171 422.333C864.32 389.871 999.372 269.654 1026.49 245.775C1120.36 163.123 1214.78 81.8309 1309 0" stroke="#6DDFCD" stroke-opacity="0.5" stroke-width="200" stroke-linecap="round"/>
</g>
<defs>
<clipPath id="clip0_669_870">
<rect width="1309" height="456" fill="white"/>
</clipPath>
</defs>
</svg>
