<svg xmlns="http://www.w3.org/2000/svg" width="136" height="115" fill="none"><g fill="#F91155" clip-path="url(#a)"><path d="M62.623 182.168c29.123 10.401 61.449 5.63 89.218-4.508 26.851-9.803 48.628-26.122 55.563-48.351 7.168-22.974.218-47.868-19.453-67.38-20.179-20.015-50.555-33.024-82.867-34.111-32.694-1.1-63.329 9.61-83.105 28.526-19.724 18.868-26.11 44.067-18.243 68.42 7.89 24.427 28.67 46.612 58.888 57.404ZM39.141 34.111c2.483.724 5.395.15 7.953-.855 2.474-.971 4.56-2.466 5.387-4.38.854-1.98.475-4.046-1.083-5.59-1.599-1.583-4.168-2.52-7.023-2.44-2.888.08-5.706 1.149-7.64 2.852-1.928 1.699-2.734 3.862-2.268 5.877.467 2.022 2.098 3.786 4.674 4.537ZM89.177 22.464c4.09 1.192 8.886.245 13.101-1.41 4.075-1.6 7.511-4.061 8.873-7.215 1.407-3.26.782-6.664-1.785-9.206C106.733 2.024 102.501.48 97.799.612c-4.758.133-9.4 1.892-12.585 4.698-3.176 2.799-4.504 6.361-3.737 9.681.77 3.33 3.456 6.236 7.7 7.473Z"/></g><defs><clipPath id="a"><path fill="#fff" d="M0 0h136v115H0z"/></clipPath></defs></svg>