<svg xmlns="http://www.w3.org/2000/svg" width="153" height="96" fill="none"><g fill="#fff" clip-path="url(#a)"><path d="M-51.769 108.869c7.729 19.997 32.902 34.476 60.669 44.055 26.849 9.263 57.135 12.816 84.103 5.89 27.871-7.158 48.821-22.534 56.3-41.949 7.672-19.916 1.808-41.797-17.398-59.04-19.433-17.446-49.583-28.239-81.253-29.527-31.588-1.285-61.231 7.331-81.055 22.926-19.883 15.641-29.385 36.894-21.366 57.645ZM42.846 18.516c-3.15 2.09-7.92 2.458-12.49 2.05-4.417-.393-8.653-1.714-11.331-4.173-2.768-2.542-3.765-5.723-2.611-8.63 1.183-2.98 4.3-5.42 8.611-6.487C29.387.195 34.39.587 38.557 2.277c4.155 1.686 6.99 4.516 7.82 7.66.833 3.152-.263 6.41-3.531 8.579ZM90.727 15.54c-1.5.996-3.77 1.171-5.946.977-2.103-.187-4.12-.816-5.395-1.987-1.318-1.21-1.793-2.725-1.243-4.109.563-1.419 2.047-2.58 4.1-3.089 2.077-.514 4.459-.328 6.442.477 1.979.803 3.329 2.15 3.724 3.647.396 1.5-.125 3.052-1.682 4.085Z" opacity=".4"/></g><defs><clipPath id="a"><path fill="#fff" d="M0 0h153v96H0z"/></clipPath></defs></svg>