<svg width="857" height="393" viewBox="0 0 857 393" fill="none" xmlns="http://www.w3.org/2000/svg">
<g clip-path="url(#clip0_405_14608)">
<path d="M680.512 346.387C601.202 405.745 519.838 446.64 452.428 464.794C418.721 473.872 388.547 477.251 363.885 474.441C339.225 471.632 320.159 462.648 308.505 447.077C296.852 431.507 293.608 410.681 297.865 386.23C302.122 361.776 313.872 333.779 332.084 303.998C368.507 244.441 430.682 177.907 509.993 118.549C589.303 59.1916 670.667 18.297 738.077 0.142849C771.784 -8.93491 801.958 -12.3145 826.62 -9.50469C851.28 -6.69518 870.346 2.28884 882 17.8593C893.653 33.4298 896.897 54.2553 892.64 78.7071C888.383 103.161 876.633 131.158 858.421 160.939C821.998 220.496 759.822 287.03 680.512 346.387Z" stroke="white" stroke-width="1.7461"/>
<path d="M686.925 322.108C611.906 378.254 535.471 417.638 472.56 435.944C441.102 445.098 413.071 448.968 390.312 447.058C367.552 445.148 350.169 437.472 339.819 423.642C329.468 409.812 327.004 390.97 331.588 368.595C336.173 346.221 347.788 320.418 365.44 292.817C400.74 237.619 460.076 175.388 535.095 119.243C610.114 63.0966 686.549 23.7125 749.46 5.40645C780.918 -3.74754 808.949 -7.61727 831.708 -5.70767C854.468 -3.79797 871.85 3.87823 882.201 17.7085C892.552 31.5387 895.016 50.3803 890.432 72.7556C885.847 95.1296 874.232 120.932 856.58 148.534C821.28 203.731 761.944 265.962 686.925 322.108Z" stroke="white" stroke-width="1.7461"/>
<path d="M168.874 108.502L170.664 116.087C170.816 116.73 171.319 117.233 171.962 117.385L179.547 119.175C180.444 119.386 180.444 120.663 179.547 120.874L171.962 122.664C171.319 122.816 170.816 123.319 170.664 123.962L168.874 131.547C168.663 132.444 167.386 132.444 167.175 131.547L165.385 123.962C165.233 123.319 164.73 122.816 164.087 122.664L156.502 120.874C155.605 120.663 155.605 119.386 156.502 119.175L164.087 117.385C164.73 117.233 165.233 116.73 165.385 116.087L167.175 108.502C167.386 107.605 168.663 107.605 168.874 108.502Z" fill="white" stroke="white" stroke-width="0.873051"/>
<circle cx="77.9698" cy="323.529" r="11.3497" stroke="white" stroke-width="1.7461"/>
<circle cx="26.4598" cy="343.609" r="25.3185" stroke="white" stroke-width="1.7461"/>
</g>
<defs>
<clipPath id="clip0_405_14608">
<rect width="856.463" height="392" fill="white" transform="translate(0.268311 0.5)"/>
</clipPath>
</defs>
</svg>
