<svg xmlns="http://www.w3.org/2000/svg" width="1105" height="514" fill="none"><g stroke="#fff" clip-path="url(#a)"><path stroke-width="2" d="M767.674 418.766c-112.564 54.729-223.277 86.062-311.255 92.506-43.993 3.223-82.248.219-112.191-9.155-29.942-9.374-51.482-25.082-62.242-47.213-10.76-22.131-9.811-48.773 1.309-78.11 11.122-29.34 32.386-61.282 62.09-93.891 59.406-65.214 152.425-132.936 264.989-187.665C722.938 40.51 833.65 9.178 921.629 2.732c43.992-3.222 82.251-.218 112.191 9.156 29.94 9.373 51.48 25.081 62.24 47.212 10.76 22.131 9.81 48.774-1.31 78.111-11.12 29.34-32.38 61.282-62.09 93.891-59.403 65.214-152.423 132.936-264.986 187.664Z"/><path stroke-width="2" d="M781.421 390.173c-106.473 51.767-210.709 82.402-293.141 90.108-41.22 3.854-76.933 1.969-104.73-5.833-27.798-7.803-47.564-21.487-57.124-41.15-9.561-19.664-8.115-43.66 2.917-70.342 11.031-26.681 31.605-55.932 60.094-85.971 56.972-60.072 145.443-123.132 251.916-174.899 106.473-51.767 210.709-82.401 293.141-90.108 41.22-3.854 76.936-1.97 104.726 5.833 27.8 7.803 47.57 21.487 57.13 41.15 9.56 19.664 8.11 43.66-2.92 70.342-11.03 26.681-31.6 55.933-60.09 85.971-56.975 60.072-145.446 123.132-251.919 174.899Z"/><path fill="#fff" d="m15.473 18.302 2.05 8.688a2 2 0 0 0 1.488 1.487l8.687 2.05c1.027.242 1.027 1.704 0 1.946l-8.688 2.05a2 2 0 0 0-1.487 1.487l-2.05 8.688c-.242 1.027-1.704 1.027-1.946 0l-2.05-8.688a2 2 0 0 0-1.488-1.487l-8.687-2.05c-1.027-.242-1.027-1.704 0-1.946l8.687-2.05a2 2 0 0 0 1.488-1.488l2.05-8.687c.242-1.027 1.704-1.027 1.946 0Z"/><path stroke-width="1.5" d="m222.73 371.359 2.527 10.711a2.252 2.252 0 0 0 1.673 1.673l10.711 2.527c.77.182.77 1.278 0 1.46l-10.711 2.527a2.252 2.252 0 0 0-1.673 1.673l-2.527 10.711c-.182.77-1.278.77-1.46 0l-2.527-10.711a2.252 2.252 0 0 0-1.673-1.673l-10.711-2.527c-.77-.182-.77-1.278 0-1.46l10.711-2.527a2.252 2.252 0 0 0 1.673-1.673l2.527-10.711c.182-.77 1.278-.77 1.46 0Z"/></g><defs><clipPath id="a"><path fill="#fff" d="M0 0h1105v514H0z"/></clipPath></defs></svg>