<svg width="70" height="70" viewBox="0 0 70 70" fill="none" xmlns="http://www.w3.org/2000/svg">
<path d="M54.9609 25.4298C55.7156 25.4298 56.3281 24.8173 56.3281 24.0626C56.3281 23.3079 55.7156 22.6954 54.9609 22.6954C54.2062 22.6954 53.5938 23.3079 53.5938 24.0626C53.5938 24.8173 54.2062 25.4298 54.9609 25.4298Z" fill="#1DBBBA"/>
<path d="M65.8984 17.2266H50.884L46.5492 8.55682C45.8496 7.15805 44.4438 6.28906 42.8805 6.28906H27.1195C25.5559 6.28906 24.1501 7.15805 23.4508 8.55695L19.116 17.2266H16.4062V15.8594C16.4062 13.5978 14.5663 11.7578 12.3047 11.7578H9.57031C7.30871 11.7578 5.46875 13.5978 5.46875 15.8594V17.2266H4.10156C1.83996 17.2266 0 19.0665 0 21.3281C0 25.0435 0 58.1641 0 59.6094C0 61.871 1.83996 63.7109 4.10156 63.7109H65.8984C68.16 63.7109 70 61.871 70 59.6094C70 55.894 70 22.7734 70 21.3281C70 19.0665 68.16 17.2266 65.8984 17.2266ZM2.73438 30.8848H20.0226C18.2056 33.7232 17.2266 37.0497 17.2266 40.4687C17.2266 43.8881 18.2057 47.2012 20.0225 50.0391H2.73438V30.8848ZM19.9609 40.4687C19.9609 32.1009 26.7682 25.4297 35 25.4297C43.2213 25.4297 50.0391 32.0905 50.0391 40.4687C50.0391 48.8376 43.2309 55.5078 35 55.5078C26.7617 55.5078 19.9609 48.8302 19.9609 40.4687ZM52.7734 40.4687C52.7734 37.0495 51.7944 33.7369 49.9774 30.8984H67.2656V50.0391H49.9774C51.7944 47.2006 52.7734 43.8879 52.7734 40.4687ZM25.8966 9.77976C26.1298 9.31328 26.5984 9.02344 27.1195 9.02344H42.8805C43.4016 9.02344 43.8703 9.31328 44.1036 9.77976L47.827 17.2266H22.173L25.8966 9.77976ZM8.20312 15.8594C8.20312 15.1055 8.81645 14.4922 9.57031 14.4922H12.3047C13.0586 14.4922 13.6719 15.1055 13.6719 15.8594V17.2266H8.20312V15.8594ZM4.10156 19.9609C5.34311 19.9609 63.9764 19.9609 65.8984 19.9609C66.6523 19.9609 67.2656 20.5743 67.2656 21.3281V28.1641H47.8207C44.4801 24.6816 39.8434 22.6953 35 22.6953C30.1561 22.6953 25.519 24.6821 22.1792 28.1641H2.73438V21.3281C2.73438 20.5743 3.3477 19.9609 4.10156 19.9609ZM65.8984 60.9766H4.10156C3.3477 60.9766 2.73438 60.3632 2.73438 59.6094V52.7734H22.1793C25.5201 56.2559 30.1567 58.2422 35 58.2422C39.8441 58.2422 44.4812 56.2554 47.8208 52.7734H67.2656V59.6094C67.2656 60.3632 66.6523 60.9766 65.8984 60.9766Z" fill="#1DBBBA"/>
<path d="M39.1016 11.7578H30.8984C30.1433 11.7578 29.5312 12.3699 29.5312 13.125C29.5312 13.8801 30.1433 14.4922 30.8984 14.4922H39.1016C39.8565 14.4922 40.4688 13.8801 40.4688 13.125C40.4688 12.3699 39.8565 11.7578 39.1016 11.7578Z" fill="#1DBBBA"/>
<path d="M35 52.7733C41.7848 52.7733 47.3047 47.2534 47.3047 40.4686C47.3047 33.6838 41.7848 28.1639 35 28.1639C28.2152 28.1639 22.6953 33.6838 22.6953 40.4686C22.6953 47.2534 28.2152 52.7733 35 52.7733ZM35 30.8983C40.2771 30.8983 44.5703 35.1916 44.5703 40.4686C44.5703 45.7457 40.2771 50.0389 35 50.0389C29.7229 50.0389 25.4297 45.7457 25.4297 40.4686C25.4297 35.1916 29.7229 30.8983 35 30.8983Z" fill="#1DBBBA"/>
<path d="M29.5312 41.8359C30.2863 41.8359 30.8984 41.2238 30.8984 40.4688C30.8984 38.2071 32.7384 36.3672 35 36.3672C35.755 36.3672 36.3672 35.7551 36.3672 35C36.3672 34.2449 35.755 33.6328 35 33.6328C31.2307 33.6328 28.1641 36.6994 28.1641 40.4688C28.1641 41.2238 28.7762 41.8359 29.5312 41.8359Z" fill="#1DBBBA"/>
<path d="M60.4297 25.4298H63.1641C63.919 25.4298 64.5313 24.8177 64.5313 24.0626C64.5313 23.3075 63.919 22.6954 63.1641 22.6954H60.4297C59.6747 22.6954 59.0625 23.3075 59.0625 24.0626C59.0625 24.8177 59.6747 25.4298 60.4297 25.4298Z" fill="#1DBBBA"/>
</svg>
