<svg width="70" height="70" viewBox="0 0 70 70" fill="none" xmlns="http://www.w3.org/2000/svg">
<g clip-path="url(#clip0_1150_13904)">
<path d="M25.8556 8.49852C26.3886 7.96409 26.3886 7.09866 25.8556 6.56423C25.3211 6.03116 24.4557 6.03116 23.9213 6.56423C23.3882 7.09866 23.3882 7.96409 23.9213 8.49852C24.4557 9.03172 25.321 9.03172 25.8556 8.49852Z" fill="#1DBBBA"/>
<path d="M6.82887 29.8902C10.4324 34.0745 14.6701 37.5819 17.6248 38.8256C18.6672 39.2645 19.8997 39.5743 20.9559 39.1804C21.9282 39.6408 22.8435 40.2848 23.6288 41.0702C24.2409 41.6822 24.759 42.3584 25.1769 43.0859C24.5505 44.5728 25.2343 46.7486 27.2792 49.8306C28.8609 52.2143 31.0146 54.7326 32.346 56.0632C39.2704 62.9889 51.114 70.0001 59.2309 70.0001C62.1494 70.0001 68.1645 68.6191 68.9708 65.6023C68.9711 65.6015 68.9712 65.6007 68.9714 65.5999L69.7652 62.6272C70.3919 60.2784 69.7129 57.7513 67.9934 56.0316C67.9876 56.0259 67.9817 56.0201 67.9758 56.0144L57.2437 45.6625C57.4511 44.448 56.7971 42.963 56.0717 41.3162C55.2248 39.3931 48.7231 23.5117 46.7291 18.6439C46.227 17.4235 44.989 16.7123 43.648 16.8728C41.0502 17.1794 38.5473 16.7924 36.6003 15.7837C36.1938 15.5731 35.7502 15.4649 35.3051 15.4593C34.92 14.4152 34.7844 13.1734 34.6427 11.8758C34.3861 9.52722 34.121 7.09897 32.3281 5.30536L28.2256 1.20189C26.9639 -0.0574254 25.0506 -0.359573 23.465 0.449663C2.66525 11.0858 3.09933 10.9577 3.07704 10.9793C0.913885 12.2263 -0.142402 14.2839 0.0226175 16.9293C0.318476 21.6737 4.41401 27.0861 6.82887 29.8902ZM23.0902 37.2193C24.7822 34.7981 24.9583 31.6905 23.8449 29.269C26.3378 27.0556 31.226 27.1131 35.5548 27.1647C36.1704 27.1721 36.7623 27.1784 37.3399 27.1791C38.8695 31.0083 41.1004 36.5842 44.3236 44.5225C44.4781 44.9048 44.6906 45.2594 44.9493 45.5787C44.5496 46.7893 43.8717 47.8932 42.9607 48.803C42.7418 49.0221 42.5109 49.2277 42.2704 49.4198C37.7847 45.6759 36.5534 44.1398 33.0896 42.7269C31.3015 41.9977 29.0883 41.3136 27.4232 41.5144C26.9082 40.6583 26.2864 39.8611 25.5623 39.137C24.8188 38.3934 23.9824 37.7465 23.0902 37.2193ZM63.8708 66.3863C62.2849 66.9468 60.5703 67.2293 59.5746 67.2606C52.289 67.4896 40.7721 60.6239 34.2792 54.1296C33.1336 52.9847 31.239 50.7844 29.7864 48.6587C27.7804 45.7236 27.6779 44.5276 27.6987 44.2149C28.2614 44.113 29.9403 44.3951 32.057 45.2583C35.169 46.5278 36.126 47.8978 41.2014 52.0854C41.2808 52.1692 41.3689 52.2412 41.4638 52.301C59.5095 67.1245 65.0291 64.4108 66.2968 64.7876C66.3043 64.8043 66.3141 64.829 66.3248 64.8636C66.3318 64.8856 66.3313 64.8899 66.3293 64.8978C66.2758 65.0899 65.7331 65.7282 63.8708 66.3863ZM67.1236 61.9217L67.0572 62.1704C66.2291 61.9399 65.3772 62.0351 64.7052 62.0351C61.5545 62.0351 55.5188 60.0904 44.4211 51.1813C44.5826 51.0377 44.7401 50.8895 44.8931 50.7364C45.9572 49.6735 46.7832 48.4109 47.3305 47.0275C50.1197 47.5828 52.1018 47.8617 53.5402 47.8617C54.277 47.8617 54.8706 47.788 55.3574 47.6415L66.0679 57.9726C67.0942 59.0044 67.4988 60.5165 67.1236 61.9217ZM43.9716 19.5874C44.0614 19.5766 44.1675 19.6023 44.2009 19.6832L45.0908 21.8506L43.1974 22.2293C42.457 22.3774 41.9769 23.0975 42.1249 23.8378C42.2734 24.5803 42.9953 25.0579 43.7334 24.9102L46.1486 24.4272C46.8543 26.1458 47.0164 26.5375 47.4386 27.5675L45.5593 27.9436C44.8191 28.0917 44.3388 28.8119 44.487 29.5522C44.6351 30.2922 45.3548 30.7726 46.0956 30.6245L48.496 30.1444L49.7534 33.2059C49.7589 33.2194 49.7646 33.2328 49.7706 33.2461L49.7865 33.2847L47.9487 33.6524C47.2084 33.8005 46.7282 34.5207 46.8764 35.2611C47.0245 36.001 47.7442 36.4814 48.4851 36.3333L50.8442 35.8614C51.2724 36.9037 51.7511 38.0699 52.1342 39.0021L50.0811 39.4132C49.3408 39.5614 48.8608 40.2816 49.009 41.022C49.158 41.7659 49.8812 42.2418 50.6177 42.094L53.2016 41.5768C53.6857 42.6983 54.4792 44.3902 54.5461 45.0295C54.3515 45.085 53.8987 45.1618 52.9519 45.1084C51.7644 45.0418 50.0969 44.7921 47.8529 44.345C47.437 44.2623 47.0396 43.9477 46.8574 43.497C41.3622 29.9634 38.0798 21.588 36.9425 18.8989C39.0538 19.6356 41.4892 19.8804 43.9716 19.5874ZM24.707 2.8853C25.2354 2.61556 25.8729 2.71673 26.2931 3.13591L30.3952 7.23815C31.5081 8.35158 31.7108 10.2075 31.9253 12.1725C32.1346 14.088 32.3538 16.0409 33.36 17.7127C33.8846 18.5941 34.5418 20.1866 36.244 24.4383C36.0277 24.436 35.809 24.4335 35.5871 24.4308C30.8815 24.3743 25.5851 24.3131 22.288 27.0042C20.3978 24.6482 18.7878 22.6217 17.3491 20.811C13.3644 15.7952 11.1695 13.0323 9.55217 11.5117C9.33355 11.3062 9.11672 11.1148 8.89975 10.9397L24.707 2.8853ZM4.45448 13.341C4.90388 13.0823 5.29202 12.8592 5.61044 12.718C6.18137 12.4637 6.47559 12.3715 7.67967 13.5037C9.15227 14.8885 11.4319 17.758 15.2086 22.5117C16.8282 24.5503 18.6636 26.8607 20.8738 29.6093C22.2941 31.3794 22.2429 34.5849 19.9486 36.6273C17.5153 37.0355 7.34061 28.3244 3.81191 20.5041C1.13769 14.5775 4.32241 13.5508 4.45448 13.341Z" fill="#1DBBBA"/>
<path d="M15.599 13.6618L20.5818 11.1233C21.2545 10.7806 21.522 9.95755 21.1792 9.28475C20.8363 8.6121 20.0134 8.34468 19.3408 8.68729L14.3581 11.2257C13.6854 11.5685 13.4178 12.3915 13.7606 13.0643C14.1009 13.7322 14.9217 14.0069 15.599 13.6618Z" fill="#1DBBBA"/>
</g>
<defs>
<clipPath id="clip0_1150_13904">
<rect width="70" height="70" fill="white"/>
</clipPath>
</defs>
</svg>
