<svg width="70" height="70" viewBox="0 0 70 70" fill="none" xmlns="http://www.w3.org/2000/svg">
<g clip-path="url(#clip0_1150_13889)">
<path d="M64.1667 44.625H62.9968C63.7572 43.6167 64.168 42.3879 64.1667 41.125V29.4583C64.168 28.1954 63.7572 26.9666 62.9968 25.9583H63C64.5466 25.9566 66.0293 25.3414 67.1228 24.2478C68.2164 23.1543 68.8316 21.6716 68.8333 20.125V8.45833C68.8316 6.91178 68.2164 5.42908 67.1228 4.3355C66.0293 3.24192 64.5466 2.62677 63 2.625H26.8333C25.2868 2.62677 23.8041 3.24192 22.7105 4.3355C21.6169 5.42908 21.0018 6.91178 21 8.45833V16.625H23.3333V13.125H66.5V15.4583H28V17.7917H66.5V20.125C66.4989 20.9202 66.2274 21.6915 65.7301 22.312C65.2329 22.9326 64.5394 23.3657 63.7635 23.5401L65.2101 20.6468L63.1232 19.6032L61.1123 23.625H59.0544L60.5435 20.6468L58.4565 19.6032L56.4456 23.625H54.3877L55.8768 20.6468L53.7899 19.6032L51.7789 23.625H49.721L51.2101 20.6468L49.1232 19.6032L47.1123 23.625H44.3333V25.9583H47.1123L49.1232 29.9801L51.2101 28.9365L49.721 25.9583H51.7789L53.7899 29.9801L55.8768 28.9365L54.3877 25.9583H56.4456L58.4565 29.9801L60.5435 28.9365L59.0968 26.0432C59.8727 26.2177 60.5662 26.6507 61.0635 27.2713C61.5607 27.8919 61.8322 28.6631 61.8333 29.4583V31.7917H49V34.125H61.8333V36.4583H51.3333V38.7917H61.8333V41.125C61.8322 41.9202 61.5607 42.6915 61.0634 43.312C60.5662 43.9326 59.8727 44.3657 59.0968 44.5401L60.5435 41.6468L58.4565 40.6032L56.4456 44.625H54.3877L55.8768 41.6468L53.7899 40.6032L51.7789 44.625H51.3333V46.9583H52.9456L54.9565 50.9801L57.0435 49.9365L55.5544 46.9583H57.6123L59.6232 50.9801L61.7101 49.9365L60.221 46.9583H62.2789L64.2899 50.9801L66.3768 49.9365L64.9302 47.0432C65.706 47.2177 66.3995 47.6507 66.8968 48.2713C67.394 48.8919 67.6655 49.6631 67.6667 50.4583V52.7917H49V55.125H67.6667V57.4583H46.6667V59.7917H67.6667V62.125C67.6655 62.9202 67.394 63.6915 66.8968 64.312C66.3995 64.9326 65.706 65.3657 64.9302 65.5401L66.3768 62.6468L64.2899 61.6032L62.2789 65.625H60.221L61.7101 62.6468L59.6232 61.6032L57.6123 65.625H55.5544L57.0435 62.6468L54.9565 61.6032L52.9456 65.625H50.8877L52.3768 62.6468L50.2899 61.6032L48.279 65.625H46.221L47.7101 62.6468L45.6232 61.6032L43.6123 65.625H38.5V67.9583H64.1667C65.7132 67.9566 67.1959 67.3414 68.2895 66.2478C69.3831 65.1543 69.9982 63.6716 70 62.125V50.4583C69.9982 48.9118 69.3831 47.4291 68.2895 46.3355C67.1959 45.2419 65.7132 44.6268 64.1667 44.625ZM23.3333 10.7917V8.45833C23.333 7.55241 23.6851 6.6819 24.3153 6.03108L25.7899 8.98015L27.8768 7.93653L26.4015 4.98593C26.5448 4.96787 26.689 4.95865 26.8333 4.95833H28.4456L30.4565 8.98014L32.5435 7.93652L31.0544 4.95833H33.1123L35.1232 8.98014L37.2101 7.93652L35.721 4.95833H37.779L39.7899 8.98014L41.8768 7.93652L40.3877 4.95833H42.4456L44.4565 8.98014L46.5435 7.93652L45.0544 4.95833H47.1123L49.1232 8.98014L51.2101 7.93652L49.721 4.95833H51.7789L53.7899 8.98014L55.8768 7.93652L54.3877 4.95833H56.4456L58.4565 8.98014L60.5435 7.93652L59.0544 4.95833H61.1123L63.1232 8.98014L65.2101 7.93652L63.7635 5.04321C64.5394 5.21765 65.2329 5.65071 65.7301 6.2713C66.2274 6.89188 66.4989 7.6631 66.5 8.45833V10.7917H23.3333Z" fill="#1DBBBA"/>
<path d="M49 43.4584C49 29.949 38.0094 18.9584 24.5 18.9584C10.9906 18.9584 0 29.949 0 43.4584C0 56.9678 10.9906 67.9584 24.5 67.9584C38.0094 67.9584 49 56.9678 49 43.4584ZM39.3494 56.6577L37.6993 58.3075L39.3197 59.9279C38.4607 60.7016 37.5429 61.4073 36.5745 62.0387L35.4271 60.0512L33.4062 61.2179L34.5562 63.2097C33.526 63.7359 32.4561 64.1802 31.3562 64.5384L30.7602 62.314L28.5063 62.9179L29.1026 65.1432C27.9708 65.3833 26.822 65.5341 25.6667 65.5944V63.2917H23.3333V65.5944C22.178 65.5341 21.0292 65.3833 19.8974 65.1432L20.4937 62.9179L18.2398 62.314L17.6438 64.5384C16.5439 64.1802 15.474 63.7359 14.4438 63.2097L15.5938 61.2179L13.5729 60.0512L12.4255 62.0387C11.4571 61.4074 10.5393 60.7017 9.68033 59.928L11.3007 58.3077L9.65092 56.6577L8.03045 58.2781C7.25679 57.4191 6.55107 56.5013 5.91967 55.5329L7.90718 54.3855L6.74051 52.3646L4.74869 53.5145C4.2225 52.4844 3.77823 51.4145 3.41999 50.3146L5.64434 49.7185L5.0405 47.4647L2.8152 48.061C2.57511 46.9292 2.42425 45.7804 2.36399 44.625H4.66667V42.2917H2.36399C2.42425 41.1364 2.57512 39.9875 2.8152 38.8558L5.04051 39.4521L5.64435 37.1982L3.42 36.6021C3.77823 35.5023 4.2225 34.4323 4.7487 33.4022L6.74052 34.5521L7.90719 32.5313L5.91967 31.3838C6.55104 30.4155 7.25673 29.4977 8.03037 28.6387L9.65063 30.259L11.3007 28.6093L9.68026 26.9888C10.5393 26.2152 11.4571 25.5094 12.4255 24.878L13.5729 26.8656L15.5938 25.6989L14.4438 23.7071C15.474 23.1809 16.5439 22.7366 17.6438 22.3784L18.2398 24.6027L20.4937 23.9989L19.8974 21.7736C21.0292 21.5335 22.178 21.3826 23.3333 21.3224V23.625H25.6667V21.3224C26.822 21.3826 27.9708 21.5335 29.1026 21.7736L28.5063 23.9989L30.7602 24.6027L31.3562 22.3784C32.4561 22.7366 33.526 23.1809 34.5562 23.7071L33.4062 25.6989L35.4271 26.8656L36.5745 24.8781C37.5429 25.5094 38.4607 26.2151 39.3197 26.9888L37.6993 28.609L39.3491 30.259L40.9696 28.6386C41.7432 29.4976 42.4489 30.4155 43.0803 31.3838L41.0928 32.5313L42.2595 34.5521L44.2513 33.4022C44.7775 34.4323 45.2218 35.5023 45.58 36.6021L43.3557 37.1982L43.9595 39.4521L46.1848 38.8558C46.4249 39.9875 46.5758 41.1364 46.636 42.2917H44.3333V44.625H46.636C46.5757 45.7804 46.4249 46.9292 46.1848 48.061L43.9595 47.4647L43.3557 49.7185L45.58 50.3146C45.2218 51.4145 44.7775 52.4844 44.2513 53.5145L42.2595 52.3646L41.0928 54.3855L43.0803 55.5329C42.449 56.5013 41.7433 57.4191 40.9696 58.2781L39.3494 56.6577Z" fill="#1DBBBA"/>
<path d="M37.3332 43.4583C37.3332 40.9201 36.5805 38.439 35.1704 36.3285C33.7602 34.2181 31.7559 32.5732 29.411 31.6019C27.066 30.6306 24.4856 30.3764 21.9962 30.8716C19.5068 31.3668 17.2201 32.589 15.4253 34.3838C13.6305 36.1786 12.4083 38.4653 11.9131 40.9547C11.4179 43.4441 11.6721 46.0245 12.6434 48.3694C13.6147 50.7144 15.2596 52.7187 17.37 54.1289C19.4805 55.539 21.9617 56.2917 24.4998 56.2917C27.9023 56.2878 31.1643 54.9345 33.5701 52.5286C35.976 50.1227 37.3293 46.8608 37.3332 43.4583ZM30.0546 45.2636C31.5819 44.4529 33.264 43.9759 34.9896 43.8641C34.9173 45.8028 34.306 47.683 33.2244 49.2935C31.8942 48.1899 30.8138 46.8163 30.0546 45.2636V45.2636ZM32.7434 36.9666C31.2838 37.8901 29.6443 38.4921 27.9339 38.7327C27.6353 37.0291 27.7019 35.2815 28.129 33.6054C29.9469 34.2802 31.5436 35.4433 32.7434 36.9666V36.9666ZM25.8633 33.0498C25.2607 35.4266 25.2686 37.9171 25.8864 40.29C25.9514 40.5399 26.0975 40.7611 26.3017 40.919C26.5059 41.077 26.7567 41.1627 27.0149 41.1629C27.0381 41.1629 27.0616 41.1622 27.0851 41.1608C29.5333 41.0166 31.9049 40.2541 33.9784 38.9446C34.3715 39.7681 34.6547 40.6398 34.8206 41.5372C32.3733 41.6987 30.0065 42.4764 27.9405 43.798C27.7126 43.9436 27.5425 44.1638 27.459 44.421C27.3755 44.6781 27.384 44.9563 27.4829 45.2079C28.3775 47.4888 29.8342 49.5064 31.7177 51.0734C31.0562 51.702 30.3161 52.2423 29.5157 52.6806C28.6057 50.4033 27.1351 48.3928 25.2405 46.8357C25.0318 46.6641 24.7699 46.5703 24.4996 46.5704C24.2294 46.5704 23.9676 46.6643 23.7589 46.836C21.863 48.3917 20.3927 50.4029 19.4856 52.6815C18.6853 52.2434 17.9452 51.7034 17.2838 51.075C19.1652 49.5059 20.621 47.488 21.5168 45.2078C21.6157 44.9562 21.6241 44.678 21.5407 44.4209C21.4572 44.1637 21.287 43.9436 21.0592 43.798C18.9938 42.4751 16.6265 41.6977 14.1789 41.5387C14.3446 40.6413 14.6276 39.7697 15.0205 38.9461C17.0959 40.2521 19.467 41.0138 21.9147 41.1608C21.9382 41.1622 21.9616 41.1629 21.9848 41.1629C22.243 41.1628 22.4938 41.077 22.698 40.919C22.9023 40.761 23.0483 40.5398 23.1133 40.2899C23.7326 37.9172 23.7401 35.4263 23.1349 33.05C24.0403 32.9279 24.958 32.9278 25.8633 33.0498L25.8633 33.0498ZM15.7758 49.2941C14.6939 47.6836 14.0825 45.8033 14.0102 43.8645C15.7359 43.9747 17.4182 44.4515 18.9451 45.2633C18.1849 46.8155 17.1048 48.1892 15.7758 49.2941V49.2941ZM20.8702 33.6056C21.2994 35.2812 21.3662 37.0291 21.0662 38.7326C19.3564 38.4892 17.7173 37.8874 16.2562 36.9668C17.4559 35.4435 19.0524 34.2805 20.8702 33.6056V33.6056ZM21.6453 53.5607C22.2829 51.9533 23.256 50.5004 24.4998 49.2991C25.742 50.5018 26.715 51.9543 27.3544 53.5607C25.4883 54.0909 23.5114 54.0909 21.6453 53.5607L21.6453 53.5607Z" fill="#1DBBBA"/>
<path d="M24.5002 44.625C25.1445 44.625 25.6668 44.1026 25.6668 43.4583C25.6668 42.814 25.1445 42.2916 24.5002 42.2916C23.8558 42.2916 23.3335 42.814 23.3335 43.4583C23.3335 44.1026 23.8558 44.625 24.5002 44.625Z" fill="#1DBBBA"/>
<path d="M10.854 50.0826L8.75537 51.1026C10.1899 54.0578 12.4275 56.5495 15.2119 58.2925C17.9964 60.0355 21.2153 60.9594 24.5002 60.9585V58.6251C21.6531 58.626 18.8632 57.8252 16.4498 56.3145C14.0365 54.8037 12.0972 52.6441 10.854 50.0826V50.0826Z" fill="#1DBBBA"/>
<path d="M38.1462 36.8342L40.2449 35.8142C38.8103 32.859 36.5728 30.3674 33.7883 28.6244C31.0039 26.8814 27.785 25.9575 24.5 25.9584V28.2917C27.3472 28.2909 30.1371 29.0917 32.5504 30.6024C34.9638 32.1131 36.903 34.2728 38.1462 36.8342V36.8342Z" fill="#1DBBBA"/>
<path d="M11.7075 35.3073C13.2171 32.9413 15.352 31.0394 17.8758 29.812L16.8559 27.7134C13.9007 29.1479 11.409 31.3855 9.66601 34.1699C7.92302 36.9544 6.99911 40.1733 7 43.4583H9.33333C9.3297 40.5702 10.1536 37.7416 11.7075 35.3073V35.3073Z" fill="#1DBBBA"/>
<path d="M39.6665 43.4584C39.6674 46.3056 38.8666 49.0955 37.3558 51.5088C35.8451 53.9221 33.6854 55.8614 31.124 57.1046L32.144 59.2032C35.0992 57.7687 37.5909 55.5312 39.3339 52.7467C41.0768 49.9623 42.0008 46.7434 41.9999 43.4584H39.6665Z" fill="#1DBBBA"/>
</g>
<defs>
<clipPath id="clip0_1150_13889">
<rect width="70" height="70" fill="white"/>
</clipPath>
</defs>
</svg>
