<svg width="70" height="70" viewBox="0 0 70 70" fill="none" xmlns="http://www.w3.org/2000/svg">
<path d="M63.8104 28.5511L60.9523 26.1015C60.3974 25.6257 60.0105 24.9996 59.8331 24.2905L59.3075 22.1878C60.5028 21.6944 61.3466 20.5167 61.3466 19.1453C61.3466 17.331 59.8705 15.855 58.0562 15.855H52.2867V13.4441C52.2867 12.2756 51.3361 11.325 50.1675 11.325H50.0218V2.11914C50.0218 0.950605 49.0712 0 47.9027 0H41.0302C39.8617 0 38.9111 0.950605 38.9111 2.11914V2.26502H29.7441C24.2655 2.26502 19.0495 4.34068 15.0572 8.10961C14.6454 8.4983 14.6268 9.1473 15.0154 9.5591C15.2172 9.77279 15.4888 9.88066 15.7612 9.88066C15.895 9.88066 16.029 9.85463 16.1549 9.80233C16.2665 9.75593 16.3717 9.68886 16.4649 9.60094C20.075 6.19295 24.7909 4.31594 29.7439 4.31594H34.3809V6.79492H29.7439C20.4361 6.79492 12.8637 14.3674 12.8637 23.675V29.4446H10.3847V23.675C10.3847 19.6697 11.6025 15.8238 13.9066 12.5532C13.954 12.486 13.9921 12.415 14.0213 12.3417C14.1929 11.911 14.0544 11.4032 13.6588 11.1244C13.2031 10.8035 12.5769 10.9057 12.2462 11.3498C12.2407 11.3573 12.2353 11.3648 12.23 11.3721C9.68114 14.9903 8.33405 19.2445 8.33405 23.6749V33.9746H8.18817C7.01964 33.9746 6.06903 34.9252 6.06903 36.0938V39.2879L3.54739 44.3313C2.21124 47.0035 2.41071 50.2076 4.06815 52.6936C5.61909 55.0208 8.21538 56.4102 11.0124 56.4102H12.2361C15.0331 56.4102 17.6293 55.0207 19.1806 52.6935C20.8379 50.2076 21.0374 47.0035 19.7013 44.3312L17.1796 39.2878V36.0938C17.1796 34.9252 16.229 33.9746 15.0605 33.9746H14.9147V23.6752C14.9147 15.4982 21.5672 8.84584 29.7442 8.84584H38.9112V11.325H38.7655C37.5969 11.325 36.6463 12.2756 36.6463 13.4441V15.8549H30.8768C29.0624 15.8549 27.5865 17.3309 27.5865 19.1451C27.5865 20.5166 28.4301 21.6943 29.6255 22.1877L29.0999 24.2905C28.9227 24.9994 28.5356 25.6256 27.9807 26.1014L25.1227 28.5511C22.3948 30.8893 21.1114 34.5356 21.7736 38.067L26.9113 65.4683C27.403 68.0941 29.6994 70 32.371 70H34.9993C35.5657 70 36.0247 69.5409 36.0247 68.9746C36.0247 68.4083 35.5656 67.9492 34.9993 67.9492H32.371C30.6857 67.9492 29.237 66.747 28.9265 65.0904L23.7887 37.689C23.2614 34.8756 24.2837 31.9709 26.4569 30.1081L29.315 27.6582C30.1947 26.9041 30.8082 25.9115 31.0891 24.7877L31.6771 22.4354H41.1761V38.5044H29.0642C28.4201 38.5044 27.8148 38.7886 27.4036 39.2842C26.9922 39.7798 26.8244 40.4271 26.9433 41.0599L31.0168 62.7859C31.3084 64.3411 32.6685 65.4698 34.2507 65.4698H54.6817C56.2641 65.4698 57.6243 64.3411 57.9157 62.7859L61.9895 41.0598C62.108 40.4268 61.9401 39.7796 61.5289 39.2839C61.1175 38.7885 60.5124 38.5042 59.8684 38.5042H47.7565V22.4355H57.2553L57.8433 24.7879C58.1246 25.9119 58.7379 26.9045 59.6175 27.6585L62.4756 30.1082C64.6489 31.971 65.6712 34.8759 65.1438 37.6891L60.0062 65.0904C59.6955 66.7469 58.2469 67.9492 56.5616 67.9492H34.7128C34.1464 67.9492 33.6874 68.4083 33.6874 68.9746C33.6874 69.5409 34.1464 70 34.7128 70H56.5616C59.2331 70 61.5295 68.0943 62.0219 65.4685L67.1596 38.067C67.8218 34.5357 66.5384 30.8894 63.8104 28.5511ZM17.4742 51.556C16.3039 53.3113 14.3458 54.3594 12.2361 54.3594H11.0124C8.90253 54.3594 6.94444 53.3114 5.77413 51.556C4.52411 49.6809 4.37372 47.2639 5.38147 45.2484L7.72798 40.5553H15.5205L17.867 45.2484C18.8747 47.2641 18.7243 49.681 17.4742 51.556ZM15.1287 36.0938V38.5045H8.11954V36.0938C8.11954 36.056 8.1503 36.0254 8.1879 36.0254H15.0603C15.0979 36.0254 15.1287 36.056 15.1287 36.0938ZM10.3847 33.9746V31.4955H12.8638V33.9746H10.3847ZM36.4317 6.79492V4.3158H38.9109V6.79492H36.4317ZM40.9617 2.11914C40.9617 2.08141 40.9925 2.05078 41.0301 2.05078H47.9025C47.9401 2.05078 47.9709 2.08141 47.9709 2.11914V4.5299H46.7314C46.165 4.5299 45.706 4.989 45.706 5.55529C45.706 6.12158 46.165 6.58068 46.7314 6.58068H47.9709V11.3248H40.9617V2.11914ZM38.6968 13.4441C38.6968 13.4064 38.7276 13.3757 38.7652 13.3757H50.1674C50.205 13.3757 50.2358 13.4064 50.2358 13.4441V15.8549H38.6968V13.4441ZM30.8765 17.9056H58.0562C58.7398 17.9056 59.2958 18.4617 59.2958 19.1451C59.2958 19.8287 58.7398 20.3848 58.0562 20.3848H30.8765C30.1931 20.3848 29.637 19.8287 29.637 19.1451C29.6369 18.4617 30.1931 17.9056 30.8765 17.9056ZM59.8686 40.5553C59.881 40.5553 59.9187 40.5553 59.951 40.594C59.9831 40.6328 59.9763 40.6701 59.974 40.6822L55.9002 62.4081C55.7904 62.994 55.2779 63.4193 54.6819 63.4193H34.2507C33.6546 63.4193 33.1424 62.994 33.0323 62.4081L28.9588 40.6822C28.9564 40.67 28.9496 40.6328 28.9817 40.594C29.0137 40.5553 29.0517 40.5553 29.0642 40.5553H41.1761V52.026C41.1761 53.1945 42.1267 54.1451 43.2952 54.1451H45.6376C46.8062 54.1451 47.7568 53.1945 47.7568 52.026V40.5553H59.8686ZM43.2269 40.5553H45.706V52.026C45.706 52.0637 45.6752 52.0944 45.6376 52.0944H43.2952C43.2576 52.0944 43.2269 52.0637 43.2269 52.026V40.5553ZM45.7059 38.5045H43.2267V22.4355H45.7059V38.5045Z" fill="#1DBBBA"/>
<path d="M15.0154 9.5591C14.6268 9.1473 14.6454 8.4983 15.0572 8.10961C14.0511 8.98819 12.7753 10.6206 12.2462 11.3498C12.5769 10.9057 13.2031 10.8035 13.6588 11.1244C14.0544 11.4032 14.1929 11.911 14.0213 12.3417C14.4127 11.6493 15.2152 10.479 16.1549 9.80233C16.029 9.85463 15.895 9.88066 15.7612 9.88066C15.4888 9.88066 15.2172 9.77279 15.0154 9.5591Z" fill="#1DBBBA"/>
</svg>
