<svg width="70" height="70" viewBox="0 0 70 70" fill="none" xmlns="http://www.w3.org/2000/svg">
<g clip-path="url(#clip0_1150_13913)">
<path d="M32.6616 14.8006L34.9998 12.9302L37.3379 14.8009V9.27979H32.6616V14.8006Z" fill="#1DBBBA"/>
<path d="M66.4781 28.9743L63.6132 11.7861C63.1496 9.00484 61.0747 6.79766 58.327 6.16356L47.3618 3.63316L45.2649 0.488086C45.0898 0.225449 44.8102 0.0511328 44.4972 0.00957031C44.4491 0.00314453 44.4011 0.00109375 44.353 0.00123047V0H25.6474V0.000820313C25.5994 0.000820313 25.5513 0.00300781 25.5032 0.00957031C25.1904 0.0511328 24.9105 0.225586 24.7355 0.488086L22.6388 3.6333L11.6732 6.16383C8.92561 6.79793 6.85077 9.00485 6.38702 11.7864L3.52235 28.9743C3.43758 29.4824 3.71813 29.9809 4.19637 30.1722L15.1985 34.573V68.9041C15.1985 69.5095 15.6892 70.0001 16.2946 70.0001H53.7059C54.3112 70.0001 54.802 69.5096 54.802 68.9041V34.573L65.8042 30.1722C66.2821 29.9808 66.5627 29.4823 66.4781 28.9743ZM45.3869 4.62246L40.6125 12.2613C40.6077 12.2691 40.5951 12.2891 40.5629 12.2948C40.5306 12.2999 40.512 12.2855 40.505 12.2798L36.7078 9.24205L44.1344 2.74381L45.3869 4.62246ZM35.0002 7.82332L28.5644 2.19201H41.4358L35.0002 7.82332ZM33.758 11.677L35.0002 10.6832L36.2424 11.6769V22.1398C36.2424 22.18 36.2098 22.2128 36.1694 22.2128H33.8313C33.7909 22.2128 33.7583 22.1799 33.7583 22.1398L33.758 11.677ZM25.8662 2.74367L33.2927 9.24191L29.4956 12.2797C29.4887 12.2853 29.4702 12.2996 29.4378 12.2947C29.4055 12.2891 29.393 12.269 29.3882 12.2613L24.6138 4.62246L25.8662 2.74367ZM8.54922 12.1466C8.86641 10.2437 10.2862 8.73359 12.1661 8.29965L22.7938 5.84705L27.5289 13.4235C27.8711 13.971 28.4326 14.3471 29.0693 14.4557C29.1958 14.4771 29.3225 14.4878 29.4491 14.4878C29.9599 14.4878 30.4606 14.3149 30.8647 13.9915L31.5657 13.431V22.1401C31.5657 23.3892 32.5818 24.4053 33.8308 24.4053H36.169C37.4181 24.4053 38.4342 23.3892 38.4342 22.1401V13.4308L39.1353 13.9915C39.5397 14.3149 40.0402 14.4878 40.5508 14.4878C40.6773 14.4878 40.8042 14.4773 40.9307 14.4557C41.5672 14.3473 42.1287 13.9712 42.4711 13.4233L47.2062 5.84705L57.834 8.29951C59.7139 8.73359 61.1339 10.2435 61.4509 12.1466L63.4399 24.0803L54.8016 27.5356V20.9707C54.8016 20.3654 54.3109 19.8747 53.7055 19.8747C53.1003 19.8747 52.6094 20.3652 52.6094 20.9707V63.1315H17.3906V20.9707C17.3906 20.3654 16.8999 19.8747 16.2945 19.8747C15.6892 19.8747 15.1984 20.3652 15.1984 20.9707V27.5356L6.56051 24.0803L8.54922 12.1466ZM5.82975 28.4644L6.19165 26.2938L15.1985 29.8967V32.2122L5.82975 28.4644ZM17.3906 67.808V65.3237H52.6097V67.808H17.3906ZM54.8019 32.212V29.8966L63.8089 26.2939L64.1708 28.4646L54.8019 32.212Z" fill="#1DBBBA"/>
</g>
<defs>
<clipPath id="clip0_1150_13913">
<rect width="70" height="70" fill="white"/>
</clipPath>
</defs>
</svg>
