<svg width="301" height="242" fill="none" xmlns="http://www.w3.org/2000/svg"><circle cx="148.662" cy="116.842" r="103.844" stroke="#FFBD00" stroke-width=".778" stroke-dasharray="1.94 1.94"/><path d="M4.601 103.653c-2.811-.3-3.699-3.125-3.699-4.5h144.635c0 2.85-3.575 4.188-5.363 4.5-45.93.125-132.761.3-135.573 0Z" fill="#D2E6EF"/><path d="M145.924 99.152H1.094L35.366 72.35a1.943 1.943 0 0 1 1.198-.413h117.025a1.944 1.944 0 0 1 1.814 2.644l-9.478 24.572Z" fill="#fff"/><path d="M35.917 69.991V7.588C35.63 1.559 38.541.198 40.768.006h108.67c5.744 0 7.051 3.5 6.986 5.25V69.99c0 1.074-.87 1.944-1.944 1.944H37.861a1.944 1.944 0 0 1-1.944-1.944Z" fill="#344357"/><path d="M37.84 64.549V7.2c0-2.333 2.264-3.694 3.5-3.694h106.143c4.986 0 6.804 2.308 6.804 3.694v57.349c0 4.057-2.79 3.693-4.277 3.693H41.34c-3.763 0-3.5-2.552-3.5-3.694Z" fill="#455A75"/><path d="M56.906 90.484h44.116l-2.147 6.999H53.588l3.318-6.999ZM40.56 74.268h5.832l-.389 1.944h-5.832l.389-1.944ZM47.948 74.268h5.832l-.388 1.944H47.56l.388-1.944ZM55.336 74.268h5.832l-.389 1.944h-5.832l.39-1.944ZM62.724 74.268h5.832l-.389 1.944h-5.832l.389-1.944ZM70.113 74.268h5.832l-.388 1.944h-5.832l.388-1.944ZM77.498 74.268h5.832l-.389 1.944H77.11l.39-1.944ZM84.884 74.268h5.832l-.389 1.944h-5.832l.389-1.944ZM92.272 74.268h5.832l-.39 1.944h-5.831l.389-1.944ZM99.661 74.268h5.832l-.388 1.944h-5.833l.39-1.944ZM107.047 74.268h5.832l-.389 1.944h-5.832l.389-1.944ZM114.433 74.268h5.832l-.389 1.944h-5.832l.389-1.944ZM121.822 74.268h5.832l-.388 1.944h-5.832l.388-1.944ZM129.207 74.268h5.832l-.389 1.944h-5.832l.389-1.944ZM136.595 74.268h5.832l-.389 1.944h-5.832l.389-1.944ZM143.985 74.268h5.833l-.389 1.944h-5.832l.388-1.944ZM38.226 77.379h5.832l-.389 1.944h-5.832l.389-1.944ZM31.232 77.378h5.832l-.39 1.944h-5.831l.389-1.944ZM45.615 77.379h5.832l-.388 1.944h-5.832l.388-1.944ZM53.001 77.379h5.832l-.389 1.944h-5.832l.39-1.944ZM60.39 77.379h5.833l-.389 1.944h-5.832l.389-1.944ZM67.776 77.379h5.833l-.39 1.944h-5.831l.388-1.944ZM75.164 77.379h5.832l-.389 1.944h-5.832l.39-1.944ZM82.55 77.379h5.832l-.389 1.944h-5.832l.389-1.944ZM89.94 77.379h5.832l-.39 1.944h-5.831l.389-1.944ZM97.324 77.379h5.832l-.388 1.944h-5.832l.388-1.944ZM104.715 77.379h5.832l-.389 1.944h-5.832l.389-1.944ZM112.1 77.379h5.832l-.389 1.944h-5.832l.389-1.944ZM119.487 77.379h5.832l-.388 1.944h-5.832l.388-1.944ZM126.873 77.379h5.832l-.389 1.944h-5.832l.389-1.944ZM134.263 77.379h5.832l-.389 1.944h-5.832l.389-1.944ZM141.649 77.379h5.832l-.389 1.944h-5.832l.389-1.944ZM36.286 80.489h5.832l-.389 1.944h-5.831l.388-1.944ZM29.287 80.49h5.832l-.389 1.943h-5.832l.39-1.944ZM43.671 80.489h5.832l-.389 1.944h-5.832l.389-1.944ZM51.057 80.489h5.832l-.389 1.944h-5.832l.389-1.944ZM58.446 80.489h5.832l-.388 1.944h-5.832l.388-1.944ZM65.832 80.489h5.832l-.389 1.944h-5.832l.39-1.944ZM73.22 80.489h5.832l-.389 1.944h-5.832l.389-1.944ZM80.605 80.489h5.832l-.39 1.944h-5.831l.389-1.944ZM87.995 80.489h5.832l-.388 1.944h-5.833l.39-1.944ZM95.38 80.489h5.832l-.389 1.944h-5.832l.389-1.944ZM102.771 80.489h5.832l-.389 1.944h-5.832l.389-1.944ZM110.158 80.489h5.832l-.388 1.944h-5.832l.388-1.944ZM117.543 80.489h5.832l-.389 1.944h-5.832l.389-1.944ZM124.929 80.489h5.832l-.389 1.944h-5.832l.389-1.944ZM132.318 80.489h5.833l-.389 1.944h-5.832l.388-1.944ZM139.704 80.489h5.832l-.389 1.944h-5.832l.389-1.944ZM34.341 83.6h5.832l-.389 1.945h-5.832l.389-1.944ZM27.341 83.602h5.832l-.389 1.944h-5.832l.389-1.944ZM41.727 83.6h5.832l-.39 1.945h-5.831l.389-1.944ZM49.112 83.6h5.832l-.388 1.945h-5.832l.388-1.944ZM56.5 83.6h5.832l-.389 1.945h-5.832l.39-1.944ZM63.888 83.6h5.832l-.389 1.945H63.5l.389-1.944ZM71.275 83.6h5.833l-.39 1.945h-5.831l.388-1.944ZM78.66 83.6h5.832l-.389 1.945h-5.831l.388-1.944ZM86.05 83.6h5.832l-.389 1.945h-5.832l.389-1.944ZM93.436 83.6h5.832l-.39 1.945h-5.831l.389-1.944ZM100.823 83.6h5.832l-.388 1.945h-5.832l.388-1.944ZM108.213 83.6h5.832l-.389 1.945h-5.832l.389-1.944ZM115.599 83.6h5.832l-.389 1.945h-5.832l.389-1.944ZM122.985 83.6h5.832l-.389 1.945h-5.832l.389-1.944ZM130.374 83.6h5.832l-.389 1.945h-5.832l.389-1.944ZM137.76 83.6h5.832l-.389 1.945h-5.832l.389-1.944ZM32.396 86.71h5.832l-.39 1.944h-5.831l.389-1.944ZM25.398 86.71h5.832l-.39 1.944H25.01l.389-1.944ZM39.783 86.71h5.832l-.388 1.944h-5.832l.388-1.944ZM47.17 86.71H53l-.389 1.944H46.78l.39-1.944ZM54.556 86.71h5.832l-.389 1.944h-5.832l.389-1.944ZM61.941 86.71h5.833l-.39 1.944h-5.831l.389-1.944ZM69.331 86.71h5.832l-.389 1.944h-5.832l.39-1.944ZM76.717 86.71h5.832l-.389 1.944h-5.832l.389-1.944ZM84.107 86.71h5.832l-.39 1.944h-5.831l.389-1.944ZM91.492 86.71h5.832l-.388 1.944h-5.833l.39-1.944ZM98.88 86.71h5.832l-.389 1.944h-5.832l.389-1.944ZM106.27 86.71h5.832l-.389 1.944h-5.832l.389-1.944ZM113.655 86.71h5.832l-.388 1.944h-5.832l.388-1.944ZM121.04 86.71h5.832l-.389 1.944h-5.832l.389-1.944ZM128.431 86.71h5.832l-.389 1.944h-5.832l.389-1.944ZM135.816 86.71h5.832l-.389 1.944h-5.832l.389-1.944Z" fill="#C4C4C4"/><path d="M109.107 14.785H84.494c-1.074 0-1.944.87-1.944 1.944v39.658c0 1.074.87 1.944 1.944 1.944h30.132c1.074 0 1.944-.87 1.944-1.944V22.736c0-.488-.183-.957-.512-1.316l-5.52-6.006a1.943 1.943 0 0 0-1.431-.629Z" fill="#fff"/><g filter="url(#a)"><path d="M111.126 23.53v-1.944h5.443l-5.443 1.944Z" fill="#BCCEDE"/></g><path d="M109.96 21.976v-7.193l6.61 7.193h-6.61Z" fill="#C3E1FC"/><path stroke="#1DBBBA" stroke-width=".778" stroke-linecap="round" d="M90.715 27.613h17.496M90.715 33.444h17.496M90.715 39.277h17.496M90.715 45.108h17.496M90.715 50.941h17.496"/><circle cx="81.58" cy="19.642" r="6.415" fill="#1DBBBA"/><path d="m77.305 19.254 3.11 3.11 5.055-5.054" stroke="#fff" stroke-width=".778" stroke-linecap="round"/><path d="M297.108 241.613c2.811-.3 3.699-3.125 3.699-4.5H156.172c0 2.85 3.575 4.188 5.363 4.5 45.931.125 132.761.3 135.573 0Z" fill="#D2E6EF"/><path d="M156.367 237.11h144.341l-34.27-26.804a1.947 1.947 0 0 0-1.198-.412H148.262a1.944 1.944 0 0 0-1.803 2.671l9.908 24.545Z" fill="#fff"/><path d="M266.012 207.951v-62.403c.287-6.028-2.629-7.389-4.86-7.581H152.286c-5.754 0-7.063 3.499-6.998 5.249v64.735c0 1.074.87 1.944 1.944 1.944h116.836c1.073 0 1.944-.87 1.944-1.944Z" fill="#344357"/><path d="M264.255 202.508v-57.349c0-2.332-2.265-3.693-3.499-3.693H154.612c-4.986 0-6.804 2.307-6.804 3.693v57.349c0 4.057 2.79 3.694 4.277 3.694h108.671c3.762 0 3.499-2.553 3.499-3.694Z" fill="#455A75"/><path d="M242.399 228.359h-44.068l3.044 6.999h45.287l-4.263-6.999ZM261.241 212.227h-5.832l.389 1.944h5.832l-.389-1.944ZM253.856 212.227h-5.832l.389 1.944h5.832l-.389-1.944ZM246.471 212.227h-5.832l.388 1.944h5.832l-.388-1.944ZM239.083 212.227h-5.832l.389 1.944h5.832l-.389-1.944ZM231.693 212.227h-5.832l.389 1.944h5.832l-.389-1.944ZM224.308 212.227h-5.832l.389 1.944h5.832l-.389-1.944ZM216.923 212.227h-5.832l.388 1.944h5.833l-.389-1.944ZM209.533 212.227h-5.832l.389 1.944h5.832l-.389-1.944ZM202.145 212.227h-5.832l.389 1.944h5.832l-.389-1.944ZM194.76 212.227h-5.832l.388 1.944h5.832l-.388-1.944ZM187.37 212.227h-5.832l.389 1.944h5.832l-.389-1.944ZM179.984 212.227h-5.832l.389 1.944h5.832l-.389-1.944ZM172.599 212.227h-5.832l.389 1.944h5.832l-.389-1.944ZM165.209 212.227h-5.832l.389 1.944h5.832l-.389-1.944ZM157.821 212.227h-5.832l.389 1.944h5.832l-.389-1.944ZM263.575 215.336h-5.832l.389 1.944h5.832l-.389-1.944ZM270.574 215.338h-5.832l.389 1.944h5.832l-.389-1.944ZM256.19 215.336h-5.832l.389 1.944h5.832l-.389-1.944ZM248.805 215.336h-5.832l.388 1.944h5.832l-.388-1.944ZM241.415 215.336h-5.832l.389 1.944h5.832l-.389-1.944ZM234.029 215.336h-5.832l.389 1.944h5.832l-.389-1.944ZM226.64 215.336h-5.833l.389 1.944h5.832l-.388-1.944ZM219.252 215.336h-5.832l.389 1.944h5.832l-.389-1.944ZM211.866 215.336h-5.832l.389 1.944h5.832l-.389-1.944ZM204.481 215.336h-5.832l.389 1.944h5.832l-.389-1.944ZM197.091 215.336h-5.832l.388 1.944h5.832l-.388-1.944ZM189.703 215.336h-5.832l.389 1.944h5.832l-.389-1.944ZM182.315 215.336h-5.832l.389 1.944h5.832l-.389-1.944ZM174.931 215.336h-5.833l.389 1.944h5.832l-.388-1.944ZM167.543 215.336h-5.832l.389 1.944h5.832l-.389-1.944ZM160.157 215.336h-5.832l.389 1.944h5.832l-.389-1.944ZM265.518 218.446h-5.832l.389 1.944h5.832l-.389-1.944ZM272.517 218.447h-5.832l.389 1.944h5.832l-.389-1.944ZM258.134 218.446h-5.832l.388 1.944h5.832l-.388-1.944ZM250.748 218.446h-5.832l.389 1.944h5.832l-.389-1.944ZM243.358 218.446h-5.832l.389 1.944h5.832l-.389-1.944ZM235.973 218.446h-5.833l.389 1.944h5.832l-.388-1.944ZM228.583 218.446h-5.832l.389 1.944h5.832l-.389-1.944ZM221.195 218.446h-5.832l.389 1.944h5.832l-.389-1.944ZM213.809 218.446h-5.832l.389 1.944h5.832l-.389-1.944ZM206.425 218.446h-5.832l.388 1.944h5.832l-.388-1.944ZM199.034 218.446h-5.832l.389 1.944h5.832l-.389-1.944ZM191.646 218.446h-5.832l.389 1.944h5.832l-.389-1.944ZM184.26 218.446h-5.832l.388 1.944h5.832l-.388-1.944ZM176.874 218.446h-5.832l.389 1.944h5.832l-.389-1.944ZM169.486 218.446h-5.832l.389 1.944h5.832l-.389-1.944ZM162.1 218.446h-5.832l.389 1.944h5.832l-.389-1.944ZM267.463 221.559h-5.832l.389 1.944h5.832l-.389-1.944ZM274.461 221.559h-5.832l.389 1.944h5.832l-.389-1.944ZM260.077 221.559h-5.832l.389 1.944h5.832l-.389-1.944ZM252.691 221.559h-5.832l.389 1.944h5.832l-.389-1.944ZM245.302 221.559h-5.832l.388 1.944h5.832l-.388-1.944ZM237.916 221.559h-5.832l.389 1.944h5.832l-.389-1.944ZM230.528 221.559h-5.832l.389 1.944h5.832l-.389-1.944ZM223.139 221.559h-5.833l.389 1.944h5.832l-.388-1.944ZM215.754 221.559h-5.832l.389 1.944h5.832l-.389-1.944ZM208.368 221.559h-5.832l.389 1.944h5.832l-.389-1.944ZM200.978 221.559h-5.832l.389 1.944h5.832l-.389-1.944ZM193.591 221.559h-5.832l.388 1.944h5.832l-.388-1.944ZM186.205 221.559h-5.832l.389 1.944h5.832l-.389-1.944ZM178.817 221.559h-5.832l.389 1.944h5.832l-.389-1.944ZM171.43 221.559h-5.832l.388 1.944h5.832l-.388-1.944ZM164.044 221.559h-5.832l.389 1.944h5.832l-.389-1.944ZM269.407 224.669h-5.832l.389 1.944h5.832l-.389-1.944ZM276.405 224.67h-5.832l.389 1.944h5.832l-.389-1.944ZM262.021 224.669h-5.832l.389 1.944h5.832l-.389-1.944ZM254.634 224.669h-5.832l.388 1.944h5.832l-.388-1.944ZM247.246 224.669h-5.832l.389 1.944h5.832l-.389-1.944ZM239.861 224.669h-5.832l.389 1.944h5.832l-.389-1.944ZM232.474 224.669h-5.833l.389 1.944h5.832l-.388-1.944ZM225.083 224.669h-5.832l.389 1.944h5.832l-.389-1.944ZM217.698 224.669h-5.832l.389 1.944h5.832l-.389-1.944ZM210.312 224.669h-5.832l.389 1.944h5.832l-.389-1.944ZM202.923 224.669h-5.832l.388 1.944h5.833l-.389-1.944ZM195.535 224.669h-5.832l.389 1.944h5.832l-.389-1.944ZM188.149 224.669h-5.832l.389 1.944h5.832l-.389-1.944ZM180.76 224.669h-5.832l.388 1.944h5.832l-.388-1.944ZM173.374 224.669h-5.832l.389 1.944h5.832l-.389-1.944ZM165.989 224.669h-5.832l.389 1.944h5.832l-.389-1.944Z" fill="#C4C4C4"/><path d="M218.885 152.741h-24.613a1.944 1.944 0 0 0-1.944 1.944v39.658c0 1.074.87 1.944 1.944 1.944h30.132c1.074 0 1.944-.87 1.944-1.944v-33.651c0-.488-.182-.957-.512-1.316l-5.52-6.006a1.942 1.942 0 0 0-1.431-.629Z" fill="#fff"/><g filter="url(#b)"><path d="M220.907 161.49v-1.944h5.443l-5.443 1.944Z" fill="#BCCEDE"/></g><path d="M219.741 159.934v-7.193l6.61 7.193h-6.61Z" fill="#C3E1FC"/><path stroke="#1DBBBA" stroke-width=".778" stroke-linecap="round" d="M200.493 165.572h17.496M200.493 171.404h17.496M200.493 177.237h17.496M200.493 183.07h17.496M200.493 188.9h17.496"/><circle cx="191.359" cy="157.603" r="6.415" fill="#1DBBBA"/><path d="m187.083 157.214 3.11 3.11 5.055-5.054" stroke="#fff" stroke-width=".778" stroke-linecap="round"/><g clip-path="url(#c)"><path d="m152.733 112.442-5.806-10.411 1.218-.679 5.806 10.411 4.262-2.377.935 13.127-10.677-7.694 4.262-2.377Z" fill="#FFE000"/></g><g clip-path="url(#d)"><path d="m133.101 130.357 5.811 10.408 1.218-.68-5.812-10.408 4.261-2.379-10.681-7.689.942 13.127 4.261-2.379Z" fill="#FFE000"/></g><defs><clipPath id="c"><path fill="#fff" transform="rotate(60.852 -2.704 175.557)" d="M0 0h35.762v16.732H0z"/></clipPath><clipPath id="d"><path fill="#fff" transform="scale(-1 1) rotate(-60.823 45.712 198.321)" d="M0 0h35.762v16.732H0z"/></clipPath><filter id="a" x="110.737" y="21.197" width="6.221" height="2.721" filterUnits="userSpaceOnUse" color-interpolation-filters="sRGB"><feFlood flood-opacity="0" result="BackgroundImageFix"/><feBlend in="SourceGraphic" in2="BackgroundImageFix" result="shape"/><feGaussianBlur stdDeviation=".194" result="effect1_foregroundBlur_520:1299"/></filter><filter id="b" x="220.518" y="159.157" width="6.221" height="2.722" filterUnits="userSpaceOnUse" color-interpolation-filters="sRGB"><feFlood flood-opacity="0" result="BackgroundImageFix"/><feBlend in="SourceGraphic" in2="BackgroundImageFix" result="shape"/><feGaussianBlur stdDeviation=".194" result="effect1_foregroundBlur_520:1299"/></filter></defs></svg>