<svg width="70" height="70" viewBox="0 0 70 70" fill="none" xmlns="http://www.w3.org/2000/svg">
<g clip-path="url(#clip0_1149_13743)">
<path d="M64.1665 70H38.4998C35.2822 70 32.6665 67.382 32.6665 64.1667V12.8333C32.6665 9.618 35.2822 7 38.4998 7H64.1665C67.3842 7 69.9998 9.618 69.9998 12.8333V64.1667C69.9998 67.382 67.3842 70 64.1665 70ZM38.4998 9.33333C36.5702 9.33333 34.9998 10.9037 34.9998 12.8333V64.1667C34.9998 66.0963 36.5702 67.6667 38.4998 67.6667H64.1665C66.0962 67.6667 67.6665 66.0963 67.6665 64.1667V12.8333C67.6665 10.9037 66.0962 9.33333 64.1665 9.33333H38.4998Z" fill="#1DBBBA"/>
<path d="M52.5 65.3333H50.1667C49.5227 65.3333 49 64.8107 49 64.1667C49 63.5227 49.5227 63 50.1667 63H52.5C53.144 63 53.6667 63.5227 53.6667 64.1667C53.6667 64.8107 53.144 65.3333 52.5 65.3333Z" fill="#1DBBBA"/>
<path d="M57.1663 14H45.4997C44.8557 14 44.333 13.4774 44.333 12.8334C44.333 12.1894 44.8557 11.6667 45.4997 11.6667H57.1663C57.8103 11.6667 58.333 12.1894 58.333 12.8334C58.333 13.4774 57.8103 14 57.1663 14Z" fill="#1DBBBA"/>
<path d="M36.1665 0H26.8332C26.1892 0 25.6665 0.522667 25.6665 1.16667V10.5C25.6665 11.144 26.1892 11.6667 26.8332 11.6667H29.1665C29.8105 11.6667 30.3332 11.144 30.3332 10.5C30.3332 9.856 29.8105 9.33333 29.1665 9.33333H27.9998V2.33333H34.9998V3.5C34.9998 4.144 35.5225 4.66667 36.1665 4.66667C36.8105 4.66667 37.3332 4.144 37.3332 3.5V1.16667C37.3332 0.522667 36.8105 0 36.1665 0Z" fill="#1DBBBA"/>
<path d="M10.5 25.6667H1.16667C0.522667 25.6667 0 26.1894 0 26.8334V36.1667C0 36.8107 0.522667 37.3334 1.16667 37.3334H10.5C11.144 37.3334 11.6667 36.8107 11.6667 36.1667V26.8334C11.6667 26.1894 11.144 25.6667 10.5 25.6667ZM9.33333 35H2.33333V28H9.33333V35Z" fill="#1DBBBA"/>
<path d="M1.16667 11.6667H10.5C11.144 11.6667 11.6667 11.144 11.6667 10.5V1.16667C11.6667 0.522667 11.144 0 10.5 0H1.16667C0.522667 0 0 0.522667 0 1.16667V10.5C0 11.144 0.522667 11.6667 1.16667 11.6667ZM2.33333 2.33333H9.33333V9.33333H2.33333V2.33333Z" fill="#1DBBBA"/>
<path d="M5.83317 32.6666C6.4775 32.6666 6.99984 32.1443 6.99984 31.5C6.99984 30.8556 6.4775 30.3333 5.83317 30.3333C5.18884 30.3333 4.6665 30.8556 4.6665 31.5C4.6665 32.1443 5.18884 32.6666 5.83317 32.6666Z" fill="#1DBBBA"/>
<path d="M5.83317 7.00002C6.4775 7.00002 6.99984 6.47769 6.99984 5.83335C6.99984 5.18902 6.4775 4.66669 5.83317 4.66669C5.18884 4.66669 4.6665 5.18902 4.6665 5.83335C4.6665 6.47769 5.18884 7.00002 5.83317 7.00002Z" fill="#1DBBBA"/>
<path d="M31.5002 7.00002C32.1445 7.00002 32.6668 6.47769 32.6668 5.83335C32.6668 5.18902 32.1445 4.66669 31.5002 4.66669C30.8558 4.66669 30.3335 5.18902 30.3335 5.83335C30.3335 6.47769 30.8558 7.00002 31.5002 7.00002Z" fill="#1DBBBA"/>
<path d="M8.16667 16.3333C8.811 16.3333 9.33333 15.811 9.33333 15.1667C9.33333 14.5223 8.811 14 8.16667 14C7.52233 14 7 14.5223 7 15.1667C7 15.811 7.52233 16.3333 8.16667 16.3333Z" fill="#1DBBBA"/>
<path d="M5.83317 18.6666C6.4775 18.6666 6.99984 18.1443 6.99984 17.5C6.99984 16.8556 6.4775 16.3333 5.83317 16.3333C5.18884 16.3333 4.6665 16.8556 4.6665 17.5C4.6665 18.1443 5.18884 18.6666 5.83317 18.6666Z" fill="#1DBBBA"/>
<path d="M29.1667 37.3333C29.811 37.3333 30.3333 36.811 30.3333 36.1667C30.3333 35.5223 29.811 35 29.1667 35C28.5223 35 28 35.5223 28 36.1667C28 36.811 28.5223 37.3333 29.1667 37.3333Z" fill="#1DBBBA"/>
<path d="M15.1667 2.33333C15.811 2.33333 16.3333 1.811 16.3333 1.16667C16.3333 0.522334 15.811 0 15.1667 0C14.5223 0 14 0.522334 14 1.16667C14 1.811 14.5223 2.33333 15.1667 2.33333Z" fill="#1DBBBA"/>
<path d="M22.1667 30.3333C22.811 30.3333 23.3333 29.811 23.3333 29.1667C23.3333 28.5223 22.811 28 22.1667 28C21.5223 28 21 28.5223 21 29.1667C21 29.811 21.5223 30.3333 22.1667 30.3333Z" fill="#1DBBBA"/>
<path d="M19.8332 18.6667C19.1892 18.6667 18.6665 19.1894 18.6665 19.8334V22.162V22.1667C18.6665 22.1667 18.6665 22.169 18.6665 22.1714V24.5C18.6665 25.144 19.1892 25.6667 19.8332 25.6667C20.4772 25.6667 20.9998 25.144 20.9998 24.5V23.3334H22.1665C22.8082 23.3334 23.3332 22.8107 23.3332 22.1667C23.3332 21.5227 22.8082 21 22.1665 21H20.9998V19.8334C20.9998 19.1894 20.4772 18.6667 19.8332 18.6667Z" fill="#1DBBBA"/>
<path d="M29.1668 21C28.5228 21 28.0002 21.5227 28.0002 22.1667V23.3333H24.5002C23.8538 23.3333 23.3335 23.856 23.3335 24.5C23.3335 25.144 23.8538 25.6667 24.5002 25.6667H28.0002V26.8333C28.0002 27.4773 28.5228 28 29.1668 28C29.8108 28 30.3335 27.4773 30.3335 26.8333V22.1667C30.3335 21.5227 29.8108 21 29.1668 21Z" fill="#1DBBBA"/>
<path d="M29.1667 14C28.5227 14 28 14.5227 28 15.1667V16.3333H25.6667V15.1667C25.6667 14.5227 25.144 14 24.5 14C23.856 14 23.3333 14.5227 23.3333 15.1667V16.3333H22.1667C21.5227 16.3333 21 16.856 21 17.5C21 18.144 21.5227 18.6667 22.1667 18.6667H25.6667V19.8333C25.6667 20.4773 26.1893 21 26.8333 21C27.4773 21 28 20.4773 28 19.8333V18.6667H29.1667C29.8107 18.6667 30.3333 18.144 30.3333 17.5V15.1667C30.3333 14.5227 29.8107 14 29.1667 14Z" fill="#1DBBBA"/>
<path d="M18.6667 29.1667V26.8334C18.6667 26.1894 18.144 25.6667 17.5 25.6667C16.856 25.6667 16.3333 26.1894 16.3333 26.8334V28H15.1667C14.5203 28 14 28.5227 14 29.1667C14 29.8107 14.5203 30.3334 15.1667 30.3334H17.5C17.822 30.3334 18.1137 30.2027 18.326 29.9927C18.5337 29.7804 18.6667 29.4887 18.6667 29.1667Z" fill="#1DBBBA"/>
<path d="M24.4998 35H20.9998V31.5C20.9998 30.856 20.4772 30.3333 19.8332 30.3333C19.1892 30.3333 18.6665 30.856 18.6665 31.5V36.1666C18.6665 36.8106 19.1892 37.3333 19.8332 37.3333H24.4998C25.1438 37.3333 25.6665 36.8106 25.6665 36.1666C25.6665 35.5226 25.1438 35 24.4998 35Z" fill="#1DBBBA"/>
<path d="M26.8335 28C26.1895 28 25.6668 28.5227 25.6668 29.1667V30.3333H24.5002C23.8538 30.3333 23.3335 30.856 23.3335 31.5C23.3335 32.144 23.8538 32.6667 24.5002 32.6667H29.1668C29.8085 32.6667 30.3335 32.144 30.3335 31.5C30.3335 30.856 29.8085 30.3333 29.1668 30.3333H28.0002V29.1667C28.0002 28.5227 27.4775 28 26.8335 28Z" fill="#1DBBBA"/>
<path d="M1.16667 23.3334H3.5C4.144 23.3334 4.66667 22.8107 4.66667 22.1667C4.66667 21.5227 4.144 21 3.5 21H2.33333V19.8334C2.33333 19.1894 1.81067 18.6667 1.16667 18.6667C0.522667 18.6667 0 19.1894 0 19.8334V22.1667C0 22.8107 0.522667 23.3334 1.16667 23.3334Z" fill="#1DBBBA"/>
<path d="M15.1667 32.6667C14.5227 32.6667 14 33.1894 14 33.8334V36.1667C14 36.8107 14.5227 37.3334 15.1667 37.3334C15.8107 37.3334 16.3333 36.8107 16.3333 36.1667V33.8334C16.3333 33.1894 15.8107 32.6667 15.1667 32.6667Z" fill="#1DBBBA"/>
<path d="M1.16667 16.3333H3.5C4.144 16.3333 4.66667 15.8107 4.66667 15.1667C4.66667 14.5227 4.144 14 3.5 14H1.16667C0.522667 14 0 14.5227 0 15.1667C0 15.8107 0.522667 16.3333 1.16667 16.3333Z" fill="#1DBBBA"/>
<path d="M15.1667 7.00002H17.5C18.144 7.00002 18.6667 6.47735 18.6667 5.83335C18.6667 5.18935 18.144 4.66669 17.5 4.66669H15.1667C14.5227 4.66669 14 5.18935 14 5.83335C14 6.47735 14.5227 7.00002 15.1667 7.00002Z" fill="#1DBBBA"/>
<path d="M11.6667 16.3333H10.5C9.856 16.3333 9.33333 16.856 9.33333 17.5V21H8.16667C7.52033 21 7 21.5227 7 22.1667C7 22.8107 7.52033 23.3333 8.16667 23.3333H14V24.5C14 25.144 14.5227 25.6667 15.1667 25.6667C15.8107 25.6667 16.3333 25.144 16.3333 24.5V22.1667C16.3333 21.5227 15.8107 21 15.1667 21C15.1643 21 15.162 21 15.162 21H11.6667V18.6667H12.8333C13.4773 18.6667 14 18.144 14 17.5V15.1667C14 14.5227 13.4773 14 12.8333 14C12.1893 14 11.6667 14.5227 11.6667 15.1667V16.3333Z" fill="#1DBBBA"/>
<path d="M15.1667 11.6666H16.3333V17.5C16.3333 18.144 16.856 18.6666 17.5 18.6666C18.144 18.6666 18.6667 18.144 18.6667 17.5V14H22.1667C22.8107 14 23.3333 13.4773 23.3333 12.8333C23.3333 12.1893 22.8107 11.6666 22.1667 11.6666H18.6667V10.5C18.6667 9.85598 18.144 9.33331 17.5 9.33331H15.1667C14.5227 9.33331 14 9.85598 14 10.5C14 11.144 14.5227 11.6666 15.1667 11.6666Z" fill="#1DBBBA"/>
<path d="M19.8332 2.33333H20.9998V8.16667C20.9998 8.81067 21.5225 9.33333 22.1665 9.33333C22.8105 9.33333 23.3332 8.81067 23.3332 8.16667V1.16667C23.3332 0.522667 22.8105 0 22.1665 0H19.8332C19.1892 0 18.6665 0.522667 18.6665 1.16667C18.6665 1.81067 19.1892 2.33333 19.8332 2.33333Z" fill="#1DBBBA"/>
<path d="M61.25 25.375L40.25 46.375" stroke="#1DBBBA" stroke-width="3" stroke-linecap="round"/>
<path d="M40.25 25.375L61.25 46.375" stroke="#1DBBBA" stroke-width="3" stroke-linecap="round"/>
</g>
<defs>
<clipPath id="clip0_1149_13743">
<rect width="70" height="70" fill="white"/>
</clipPath>
</defs>
</svg>
