<svg width="70" height="70" viewBox="0 0 70 70" fill="none" xmlns="http://www.w3.org/2000/svg">
<g clip-path="url(#clip0_1149_13695)">
<path d="M67.2286 15.4453L35.4459 0.101863C35.1641 -0.0340357 34.836 -0.0340357 34.5543 0.101863L2.77145 15.4453C2.41707 15.6163 2.19189 15.9752 2.19189 16.3687V53.6312C2.19189 54.0247 2.41707 54.3836 2.77145 54.5546L34.5542 69.898C34.695 69.966 34.8476 70 35 70C35.1525 70 35.3049 69.966 35.4459 69.898L67.2286 54.5546C67.583 54.3836 67.8081 54.0247 67.8081 53.6312V16.3688C67.8081 15.975 67.5828 15.6164 67.2286 15.4453ZM35 2.16399L64.4242 16.3687L55.8947 20.4864C55.8407 20.4452 55.7837 20.4072 55.7211 20.377L26.4968 6.26897L35 2.16399ZM24.1811 7.42835L53.5625 21.6124L47.5448 24.5175L18.1755 10.3392L24.1811 7.42835ZM54.2499 23.5576V34.2963L48.629 37.0099V26.2712L54.2499 23.5576ZM65.7574 52.9878L36.0254 67.3408V32.3556L48.1417 26.3643C48.6517 26.1181 48.8655 25.5052 48.6193 24.9951C48.373 24.4852 47.7601 24.2711 47.25 24.5175L35 30.5735L32.1568 29.2008C31.6467 28.9543 31.0338 29.1684 30.7876 29.6784C30.5413 30.1883 30.7552 30.8014 31.2651 31.0476L33.9746 32.3556V67.3408L4.24268 52.9875V18.0023L32.6199 31.7016C32.7636 31.7711 32.9155 31.8039 33.0649 31.8039C33.4461 31.8039 33.8122 31.5903 33.989 31.224C34.2352 30.7141 34.0214 30.101 33.5114 29.8548L5.57582 16.3687L15.7621 11.4512L46.564 26.3211C46.5685 26.3274 46.5735 26.333 46.5782 26.3391V38.6437C46.5782 38.9966 46.7596 39.3246 47.0585 39.5123C47.2245 39.6165 47.4138 39.6691 47.6037 39.6691C47.7557 39.6691 47.9082 39.6353 48.0494 39.5671L55.7211 35.8635C56.0755 35.6925 56.3007 35.3337 56.3007 34.9401V22.5678L65.7574 18.0024V52.9878Z" fill="#1DBBBA"/>
<path d="M12.705 49.0108L8.0408 46.7592C7.53057 46.5127 6.9178 46.7268 6.67157 47.2368C6.42534 47.7467 6.63916 48.3598 7.14912 48.606L11.8133 50.8576C11.957 50.9271 12.1089 50.9599 12.2583 50.9599C12.6395 50.9599 13.0056 50.7463 13.1824 50.3801C13.4288 49.87 13.2149 49.2572 12.705 49.0108Z" fill="#1DBBBA"/>
<path d="M16.9974 46.2167L8.04707 41.8958C7.53697 41.6496 6.92406 41.8634 6.67783 42.3735C6.43173 42.8835 6.64556 43.4965 7.15552 43.7427L16.1058 48.0636C16.2495 48.1329 16.4014 48.1659 16.5508 48.1659C16.932 48.1659 17.2981 47.9523 17.4749 47.586C17.7211 47.0758 17.5073 46.4628 16.9974 46.2167Z" fill="#1DBBBA"/>
</g>
<defs>
<clipPath id="clip0_1149_13695">
<rect width="70" height="70" fill="white"/>
</clipPath>
</defs>
</svg>
