<svg width="70" height="70" viewBox="0 0 70 70" fill="none" xmlns="http://www.w3.org/2000/svg">
<g clip-path="url(#clip0_1149_13718)">
<path d="M60.8303 44.0014C59.606 42.7769 57.6135 42.7771 56.3888 44.0015L49.0083 51.3822L46.4284 48.8021C45.2039 47.5778 43.2114 47.5778 41.9868 48.8021C40.7622 50.0267 40.7622 52.0194 41.9868 53.244L46.7875 58.0447C47.3808 58.6377 48.1695 58.9644 49.0084 58.9644C49.8473 58.9644 50.636 58.6377 51.2293 58.0446L60.8306 48.4433C61.4238 47.8502 61.7506 47.0613 61.7506 46.2223C61.7503 45.3836 61.4237 44.5948 60.8303 44.0014ZM59.3735 46.9865L49.772 56.588C49.5679 56.7921 49.2965 56.9045 49.0079 56.9045C48.7192 56.9045 48.4479 56.7921 48.2437 56.588L43.443 51.7873C43.2391 51.5831 43.1268 51.3118 43.1268 51.0231C43.1268 50.7344 43.2391 50.4631 43.4433 50.259C43.6539 50.0483 43.9307 49.9429 44.2074 49.9429C44.4841 49.9429 44.7608 50.0483 44.9715 50.259L48.2797 53.5673C48.4727 53.7604 48.7348 53.8689 49.008 53.8689C49.2812 53.8689 49.5432 53.7604 49.7363 53.5673L57.8451 45.4584C58.2664 45.0369 58.9521 45.0369 59.3733 45.4581C59.5776 45.6624 59.69 45.9338 59.69 46.2224C59.6901 46.5112 59.5776 46.7824 59.3735 46.9865Z" fill="#1DBBBA"/>
<path d="M65.6727 39.3535V25.9675C65.6727 25.3985 65.2116 24.9375 64.6427 24.9375C64.0738 24.9375 63.6126 25.3985 63.6126 25.9675V37.2395C62.24 36.0451 60.7071 35.0652 59.0666 34.3234C59.0052 34.2955 58.9431 34.269 58.8813 34.2418C58.8187 34.2143 58.7564 34.1863 58.6935 34.1595C58.5834 34.1123 58.4727 34.067 58.3615 34.0221C58.3475 34.0163 58.3334 34.0104 58.3192 34.0047C57.4 33.6353 56.4447 33.3376 55.4604 33.1179V27.0657C55.4604 26.4966 54.9992 26.0356 54.4303 26.0356H47.794C47.2251 26.0356 46.764 26.4966 46.764 27.0657V33.254C43.5564 34.0751 40.6175 35.7474 38.2211 38.1586C37.8201 38.5622 37.8221 39.2145 38.2256 39.6154C38.6039 39.991 39.2007 40.0128 39.6044 39.6817C39.6313 39.6597 39.6573 39.636 39.6823 39.6108C42.809 36.4645 46.9734 34.7318 51.4086 34.7318C51.5555 34.7318 51.7022 34.7338 51.8487 34.7376C51.8742 34.7383 51.8997 34.7398 51.9252 34.7405C52.0477 34.7443 52.1702 34.7489 52.2923 34.7554C52.3117 34.7564 52.3307 34.758 52.3502 34.7591C52.4798 34.7665 52.6094 34.775 52.7386 34.7854C52.7479 34.7862 52.7573 34.787 52.7667 34.7878C54.6699 34.9446 56.5171 35.429 58.2318 36.2064C58.2909 36.2333 58.3492 36.2614 58.408 36.2889C58.4683 36.317 58.5288 36.345 58.5888 36.374C58.6942 36.4252 58.7992 36.4773 58.9034 36.5306C58.9136 36.5358 58.924 36.5408 58.9343 36.5462C64.2765 39.289 67.9402 44.8563 67.9402 51.2631C67.9402 60.3784 60.5243 67.7943 51.4089 67.7943C42.8643 67.7943 35.8131 61.2782 34.9635 52.954C34.9631 52.9501 34.9628 52.9461 34.9624 52.9422C34.9493 52.8113 34.9375 52.6798 34.9273 52.5481C34.9251 52.5198 34.9236 52.4913 34.9215 52.463C34.9136 52.3525 34.9062 52.2422 34.9003 52.1311C34.8972 52.0685 34.8951 52.0058 34.8927 51.943C34.8894 51.863 34.8857 51.7833 34.8835 51.7032C34.8798 51.5569 34.8776 51.4102 34.8776 51.2634C34.8776 48.2301 35.706 45.2644 37.2732 42.6872C37.2886 42.6619 37.3027 42.6363 37.3156 42.6104C37.5519 42.1363 37.3892 41.5522 36.9284 41.272C36.4421 40.9764 35.8087 41.1307 35.5132 41.6169C33.7497 44.5169 32.8177 47.8525 32.8177 51.2634C32.8177 51.4161 32.8199 51.5684 32.8234 51.7204C32.8243 51.7553 32.8258 51.79 32.8269 51.8248C32.8304 51.9462 32.8348 52.0676 32.8407 52.1886C32.842 52.2175 32.8438 52.2464 32.8454 52.2754C32.8524 52.4083 32.861 52.5412 32.8707 52.6736C32.8717 52.6862 32.8727 52.6991 32.8736 52.7118C33.0055 54.4403 33.3739 56.1224 33.9764 57.7385H2.05994V34.7175C2.05994 34.1485 1.59879 33.6875 1.0299 33.6875C0.461016 33.6875 0 34.1485 0 34.7175V58.7681C0 59.3372 0.461152 59.7982 1.03004 59.7982H34.896C37.9936 65.7668 44.2325 69.8544 51.4087 69.8544C61.66 69.8544 70 61.5143 70 51.2632C70 46.7357 68.3725 42.5816 65.6727 39.3535ZM53.4004 32.672H48.824V28.0957H53.4004V32.672Z" fill="#1DBBBA"/>
<path d="M38.2256 39.6154C37.8221 39.2145 37.8201 38.5622 38.2211 38.1586C36.8538 39.3776 35.8462 40.9721 35.5132 41.6169C35.8087 41.1307 36.4421 40.9764 36.9284 41.272C37.3892 41.5522 37.5519 42.1363 37.3156 42.6104C37.6634 41.9908 38.5329 40.6682 39.6044 39.6817C39.2007 40.0128 38.6039 39.991 38.2256 39.6154Z" fill="#1DBBBA"/>
<path d="M17.9496 26.0356H11.3132C10.7444 26.0356 10.2832 26.4967 10.2832 27.0657V33.7019C10.2832 34.2709 10.7444 34.7319 11.3132 34.7319H17.9496C18.5185 34.7319 18.9796 34.2709 18.9796 33.7019V27.0657C18.9796 26.4967 18.5185 26.0356 17.9496 26.0356ZM16.9195 32.672H12.3433V28.0957H16.9197V32.672H16.9195Z" fill="#1DBBBA"/>
<path d="M30.1097 26.0356H23.4734C22.9045 26.0356 22.4434 26.4967 22.4434 27.0657V33.7019C22.4434 34.2709 22.9045 34.7319 23.4734 34.7319H30.1097C30.6786 34.7319 31.1398 34.2709 31.1398 33.7019V27.0657C31.1396 26.4967 30.6785 26.0356 30.1097 26.0356ZM29.0797 32.672H24.5033V28.0957H29.0797V32.672V32.672Z" fill="#1DBBBA"/>
<path d="M42.2704 26.0356H35.634C35.0652 26.0356 34.604 26.4967 34.604 27.0657V33.7019C34.604 34.2709 35.0652 34.7319 35.634 34.7319H42.2704C42.8393 34.7319 43.3004 34.2709 43.3004 33.7019V27.0657C43.3004 26.4967 42.8393 26.0356 42.2704 26.0356ZM41.2405 32.672H36.6641V28.0957H41.2405V32.672V32.672Z" fill="#1DBBBA"/>
<path d="M17.9496 40.2827H11.3132C10.7444 40.2827 10.2832 40.7437 10.2832 41.3127V47.949C10.2832 48.518 10.7444 48.9791 11.3132 48.9791H17.9496C18.5185 48.9791 18.9796 48.518 18.9796 47.949V41.3127C18.9796 40.7437 18.5185 40.2827 17.9496 40.2827ZM16.9195 46.919H12.3433V42.3426H16.9197V46.919H16.9195Z" fill="#1DBBBA"/>
<path d="M30.1097 40.2827H23.4734C22.9045 40.2827 22.4434 40.7437 22.4434 41.3127V47.949C22.4434 48.518 22.9045 48.9791 23.4734 48.9791H30.1097C30.6786 48.9791 31.1398 48.518 31.1398 47.949V41.3127C31.1396 40.7437 30.6786 40.2827 30.1097 40.2827ZM29.0797 46.919H24.5033V42.3426H29.0797V46.919V46.919Z" fill="#1DBBBA"/>
<path d="M64.6782 7.95514H64.6428H58.2429V4.23284C58.2429 1.97916 56.4093 0.14563 54.1558 0.14563C51.9021 0.14563 50.0687 1.97916 50.0687 4.23284V7.95514H15.6751V4.23284C15.6751 1.97916 13.8415 0.14563 11.588 0.14563C9.33447 0.14563 7.50094 1.97916 7.50094 4.23284V7.95514H1.06545H1.03004C0.461152 7.95514 0 8.41616 0 8.98504V36.9648C0 37.5337 0.461152 37.9947 1.03004 37.9947C1.59893 37.9947 2.06008 37.5336 2.06008 36.9647V21.1637H63.6129V27.0658C63.6129 27.6348 64.0741 28.0959 64.6429 28.0959C65.2118 28.0959 65.673 27.6348 65.673 27.0658V20.3979C65.6954 20.3134 65.7084 20.2252 65.7084 20.1338V8.98504C65.7083 8.41616 65.2471 7.95514 64.6782 7.95514ZM52.1288 4.23284C52.1288 3.11502 53.0383 2.20571 54.1558 2.20571C55.2736 2.20571 56.1828 3.11516 56.1828 4.23284V12.2868C56.1828 12.4265 56.1686 12.563 56.1416 12.6948C55.9523 13.6176 55.1337 14.3139 54.1558 14.3139C53.038 14.3139 52.1288 13.4045 52.1288 12.2868V4.23284V4.23284ZM9.56101 4.23284C9.56101 3.11502 10.4703 2.20571 11.588 2.20571C12.7057 2.20571 13.615 3.11516 13.615 4.23284V12.2868C13.615 13.4046 12.7055 14.3139 11.588 14.3139C10.4705 14.3139 9.56101 13.4043 9.56101 12.2867V4.23284V4.23284ZM63.6128 19.1036H2.09549V10.0149H7.50094V12.2867C7.50094 14.5403 9.33434 16.3739 11.588 16.3739C13.8417 16.3739 15.6751 14.5403 15.6751 12.2867V10.0149H50.069V12.2867C50.069 14.5403 51.9025 16.3739 54.1561 16.3739C56.4097 16.3739 58.2431 14.5403 58.2431 12.2867V10.0149H63.6132V19.1036H63.6128Z" fill="#1DBBBA"/>
</g>
<defs>
<clipPath id="clip0_1149_13718">
<rect width="70" height="70" fill="white"/>
</clipPath>
</defs>
</svg>
