<svg width="70" height="70" viewBox="0 0 70 70" fill="none" xmlns="http://www.w3.org/2000/svg">
<path d="M66.6011 0.970838C66.5989 0.929549 66.5942 0.888533 66.587 0.847928C66.5855 0.839315 66.5835 0.830838 66.5819 0.822225C66.5746 0.786131 66.5654 0.750448 66.5542 0.715038C66.5523 0.708885 66.5507 0.702733 66.5486 0.696581C66.5351 0.656522 66.519 0.617284 66.5004 0.578866C66.4972 0.57244 66.4937 0.566151 66.4904 0.559725C66.4733 0.526229 66.4543 0.493554 66.4334 0.461698C66.4295 0.455819 66.426 0.449941 66.422 0.444198C66.398 0.409335 66.3717 0.375702 66.3429 0.343437C66.3374 0.337285 66.3314 0.331542 66.3258 0.325527C66.3122 0.311171 66.2993 0.296406 66.2849 0.282597C66.2725 0.270703 66.2591 0.260175 66.2462 0.249101C66.2417 0.245273 66.2381 0.240761 66.2335 0.236933C66.2309 0.234746 66.2279 0.233242 66.2253 0.231054C66.1915 0.203437 66.1565 0.178144 66.1203 0.155449C66.115 0.152168 66.1094 0.149297 66.1039 0.146015C66.0713 0.126465 66.038 0.109101 66.0038 0.0935154C65.9957 0.089824 65.9879 0.0859959 65.9797 0.0824412C65.9412 0.066035 65.902 0.0516796 65.8619 0.0401952C65.8549 0.0381445 65.8479 0.0367773 65.8408 0.0348632C65.8065 0.0258398 65.7719 0.0185937 65.7371 0.013125C65.7268 0.0114844 65.7167 0.00970701 65.7063 0.00833983C65.6662 0.00328124 65.6261 0.000273437 65.5857 0C65.5768 0 65.5679 0.000546874 65.5589 0.000683592C65.5246 0.00136718 65.4903 0.0036914 65.4561 0.00779295C65.446 0.00902342 65.436 0.00984373 65.426 0.0113476C65.385 0.0173632 65.3444 0.0258398 65.3042 0.0370507C65.2971 0.0389648 65.2901 0.0414257 65.283 0.0436132C65.2461 0.0546874 65.2097 0.0679491 65.1739 0.0831248C65.1697 0.0849022 65.1652 0.0859959 65.1609 0.08791L20.887 19.7657C20.3695 19.9958 20.1364 20.6016 20.3664 21.1192C20.5963 21.6365 21.2023 21.8696 21.7197 21.6398L59.9662 4.64146L24.6208 36.0596L6.94798 28.205L22.5525 21.2695C23.07 21.0394 23.3031 20.4336 23.0731 19.9162C22.8431 19.3988 22.2371 19.1657 21.7197 19.3955L4.00689 27.268C3.63666 27.4326 3.39795 27.7998 3.39795 28.205C3.39795 28.6103 3.63666 28.9773 4.00689 29.1421L23.8676 37.969L26.0569 54.388C26.0575 54.3926 26.0592 54.3969 26.0599 54.4016C26.0671 54.4511 26.0774 54.5004 26.0919 54.5486C26.0934 54.5535 26.0953 54.5583 26.0968 54.5631C26.1113 54.6091 26.1292 54.654 26.1504 54.6978C26.1524 54.702 26.1541 54.7065 26.1562 54.7108C26.1778 54.754 26.2033 54.7957 26.2314 54.8363C26.2369 54.8442 26.2425 54.8519 26.2483 54.8595C26.277 54.8985 26.3076 54.9364 26.3425 54.9718C26.3776 55.0074 26.4153 55.0389 26.4542 55.0684C26.4618 55.0743 26.4695 55.0802 26.4774 55.0856C26.5177 55.1145 26.5593 55.1406 26.6024 55.163C26.6059 55.1648 26.6096 55.1663 26.6132 55.1681C26.6568 55.19 26.7016 55.2084 26.7473 55.2237C26.7529 55.2257 26.7582 55.2278 26.764 55.2296C26.8119 55.2448 26.8608 55.2557 26.9101 55.2638C26.9145 55.2645 26.9186 55.2661 26.9231 55.2668C26.9284 55.2676 26.9335 55.2672 26.9388 55.268C26.9835 55.2739 27.0284 55.278 27.0734 55.278L27.0744 55.2779C27.1181 55.2779 27.1615 55.274 27.2047 55.2684C27.2151 55.2671 27.2255 55.2657 27.2358 55.2641C27.3218 55.2503 27.4063 55.2255 27.4872 55.1897C27.4951 55.1861 27.5029 55.1826 27.5109 55.1789C27.549 55.1608 27.5865 55.141 27.6226 55.1181C27.6226 55.1181 27.6254 55.1164 27.6269 55.1155C27.6632 55.0922 27.698 55.0658 27.7317 55.0374C27.7404 55.03 27.7487 55.0222 27.7574 55.0146C27.7691 55.004 27.7813 54.9943 27.7926 54.9833L36.6037 46.3087L51.3362 58.4414C51.5224 58.5948 51.7536 58.6753 51.9882 58.6753C52.0973 58.6753 52.2073 58.6578 52.3138 58.6221C52.649 58.51 52.9028 58.2329 52.9852 57.8892L66.5749 1.26451C66.5756 1.26177 66.5756 1.25904 66.5763 1.25644C66.586 1.21433 66.5931 1.17195 66.5973 1.12929C66.5981 1.12136 66.5984 1.11344 66.5989 1.10551C66.6018 1.069 66.6026 1.03236 66.6017 0.995857C66.6014 0.987518 66.6017 0.979178 66.6011 0.970838ZM27.6175 50.5765L25.8965 37.6692L57.0485 9.97881L31.937 41.1514C31.9322 41.1573 31.9284 41.164 31.9237 41.1702C31.9047 41.1948 31.8868 41.2198 31.8704 41.2456C31.8641 41.2556 31.8584 41.2657 31.8523 41.2759C31.8372 41.3016 31.8232 41.3277 31.8105 41.3543C31.8079 41.3598 31.8045 41.3649 31.802 41.3703L27.6175 50.5765ZM30.2955 49.641L33.1158 43.4363L35.0119 44.9977L30.2955 49.641ZM51.3737 55.8153L34.1704 41.648L63.517 5.218L51.3737 55.8153Z" fill="#1DBBBA"/>
<path d="M34.5931 54.6593C34.1928 54.259 33.5435 54.2588 33.1431 54.6594L24.0835 63.7191C23.6831 64.1196 23.6831 64.7688 24.0835 65.1692C24.2837 65.3694 24.5462 65.4695 24.8086 65.4695C25.0709 65.4695 25.3334 65.3694 25.5336 65.1691L34.5931 56.1094C34.9935 55.7089 34.9935 55.0597 34.5931 54.6593Z" fill="#1DBBBA"/>
<path d="M21.003 43.4051C20.6027 43.0048 19.9534 43.0048 19.553 43.4051L10.564 52.3942C10.1636 52.7948 10.1636 53.4439 10.564 53.8444C10.7642 54.0445 11.0267 54.1446 11.289 54.1446C11.5514 54.1446 11.8139 54.0444 12.014 53.8444L21.003 44.8553C21.4035 44.4547 21.4035 43.8055 21.003 43.4051Z" fill="#1DBBBA"/>
<path d="M21.0027 54.6595C20.6023 54.2592 19.9531 54.2592 19.5526 54.6595L5.96293 68.2496C5.56249 68.6502 5.56249 69.2993 5.96293 69.6998C6.16309 69.8999 6.42559 70 6.68795 70C6.95031 70 7.21281 69.8999 7.41297 69.6996L21.0027 56.1097C21.4031 55.7091 21.4031 55.0599 21.0027 54.6595Z" fill="#1DBBBA"/>
</svg>
