<svg width="70" height="70" viewBox="0 0 70 70" fill="none" xmlns="http://www.w3.org/2000/svg">
<g clip-path="url(#clip0_1149_13858)">
<path d="M66.2129 1.38086H3.78711C1.69887 1.38086 0 3.07959 0 5.16797V49.3637C0 51.4519 1.69887 53.1508 3.78711 53.1508H16.4746C17.041 53.1508 17.5 52.6918 17.5 52.1254C17.5 51.559 17.041 51.1 16.4746 51.1H3.78711C2.82967 51.1 2.05078 50.3211 2.05078 49.3637V5.16797C2.05078 4.21053 2.82967 3.43164 3.78711 3.43164H66.2129C67.1703 3.43164 67.9492 4.21053 67.9492 5.16797V49.3637C67.9492 50.3211 67.1703 51.1 66.2129 51.1H14.6289C14.0625 51.1 13.6035 51.559 13.6035 52.1254C13.6035 52.6918 14.0625 53.1508 14.6289 53.1508H25.6266C25.4313 54.9516 24.6261 58.8528 21.3251 62.1484H17.8746C16.8522 62.1484 16.0206 62.98 16.0206 64.0023V66.7654C16.0206 67.7878 16.8522 68.6194 17.8746 68.6194H50.1621C50.7285 68.6194 51.1875 68.1604 51.1875 67.594C51.1875 67.0276 50.7285 66.5686 50.1621 66.5686H18.0715V64.1993H51.9285V66.5686H48.1647C47.5982 66.5686 47.1393 67.0276 47.1393 67.594C47.1393 68.1604 47.5982 68.6194 48.1647 68.6194H52.1254C53.1478 68.6194 53.9794 67.7878 53.9794 66.7654V64.0023C53.9794 62.98 53.1478 62.1484 52.1254 62.1484H48.675C45.3924 58.869 44.5782 54.9559 44.3771 53.1508H66.2129C68.3011 53.1508 70 51.4519 70 49.3637V5.16797C70 3.07959 68.3011 1.38086 66.2129 1.38086ZM45.9288 62.1482H24.0712C26.8537 58.6473 27.5289 54.9235 27.6898 53.1506H42.3101C42.4711 54.9236 43.1463 58.6473 45.9288 62.1482Z" fill="#1DBBBA"/>
<path d="M57.7348 44.5881H64.5543C65.1207 44.5881 65.5797 44.1292 65.5797 43.5627V6.82642C65.5797 6.25999 65.1207 5.80103 64.5543 5.80103H5.44531C4.87889 5.80103 4.41992 6.25999 4.41992 6.82642V43.5627C4.41992 44.1292 4.87889 44.5881 5.44531 44.5881H60.2245C60.7909 44.5881 61.2498 44.1292 61.2498 43.5627C61.2498 42.9963 60.7909 42.5374 60.2245 42.5374H6.4707V7.85181H63.5289V42.5374H57.7348C57.1683 42.5374 56.7094 42.9963 56.7094 43.5627C56.7094 44.1292 57.1683 44.5881 57.7348 44.5881Z" fill="#1DBBBA"/>
<path d="M17.2427 12.4884C17.2427 11.922 16.7837 11.463 16.2173 11.463H9.86426C9.29783 11.463 8.83887 11.922 8.83887 12.4884V18.0127C8.83887 18.5791 9.29783 19.0381 9.86426 19.0381H16.2173C16.7837 19.0381 17.2427 18.5791 17.2427 18.0127V12.4884ZM15.1919 16.9873H10.8896V13.5138H15.1919V16.9873Z" fill="#1DBBBA"/>
<path d="M21.7417 19.0381H38.8671C39.4335 19.0381 39.8925 18.5791 39.8925 18.0127C39.8925 17.4463 39.4335 16.9873 38.8671 16.9873H21.7417C21.1753 16.9873 20.7163 17.4463 20.7163 18.0127C20.7163 18.5791 21.1754 19.0381 21.7417 19.0381Z" fill="#1DBBBA"/>
<path d="M43.8389 11.463H29.752C29.1855 11.463 28.7266 11.922 28.7266 12.4884C28.7266 13.0548 29.1855 13.5138 29.752 13.5138H43.8389C44.4053 13.5138 44.8643 13.0548 44.8643 12.4884C44.8643 11.922 44.4053 11.463 43.8389 11.463Z" fill="#1DBBBA"/>
<path d="M21.7417 13.5138H24.9181C25.4845 13.5138 25.9435 13.0548 25.9435 12.4884C25.9435 11.922 25.4845 11.463 24.9181 11.463H21.7417C21.1753 11.463 20.7163 11.922 20.7163 12.4884C20.7163 13.0548 21.1754 13.5138 21.7417 13.5138Z" fill="#1DBBBA"/>
<path d="M17.2427 22.4321C17.2427 21.8657 16.7837 21.4067 16.2173 21.4067H9.86426C9.29783 21.4067 8.83887 21.8657 8.83887 22.4321V27.9564C8.83887 28.5228 9.29783 28.9818 9.86426 28.9818H16.2173C16.7837 28.9818 17.2427 28.5228 17.2427 27.9564V22.4321ZM15.1919 26.931H10.8896V23.4575H15.1919V26.931Z" fill="#1DBBBA"/>
<path d="M21.7417 28.9818H38.8671C39.4335 28.9818 39.8925 28.5228 39.8925 27.9564C39.8925 27.39 39.4335 26.931 38.8671 26.931H21.7417C21.1753 26.931 20.7163 27.39 20.7163 27.9564C20.7163 28.5228 21.1754 28.9818 21.7417 28.9818Z" fill="#1DBBBA"/>
<path d="M43.8389 21.4067H29.752C29.1855 21.4067 28.7266 21.8657 28.7266 22.4321C28.7266 22.9986 29.1855 23.4575 29.752 23.4575H43.8389C44.4053 23.4575 44.8643 22.9986 44.8643 22.4321C44.8643 21.8657 44.4053 21.4067 43.8389 21.4067Z" fill="#1DBBBA"/>
<path d="M21.7417 23.4575H24.9181C25.4845 23.4575 25.9435 22.9986 25.9435 22.4321C25.9435 21.8657 25.4845 21.4067 24.9181 21.4067H21.7417C21.1753 21.4067 20.7163 21.8657 20.7163 22.4321C20.7163 22.9986 21.1754 23.4575 21.7417 23.4575Z" fill="#1DBBBA"/>
<path d="M16.2173 31.3506H9.86426C9.29783 31.3506 8.83887 31.8096 8.83887 32.376V37.9004C8.83887 38.4668 9.29783 38.9258 9.86426 38.9258H16.2173C16.7837 38.9258 17.2427 38.4668 17.2427 37.9004V32.376C17.2427 31.8096 16.7837 31.3506 16.2173 31.3506V31.3506ZM15.1919 36.875H10.8896V33.4014H15.1919V36.875Z" fill="#1DBBBA"/>
<path d="M21.7417 38.9258H38.8671C39.4335 38.9258 39.8925 38.4668 39.8925 37.9004C39.8925 37.334 39.4335 36.875 38.8671 36.875H21.7417C21.1753 36.875 20.7163 37.334 20.7163 37.9004C20.7163 38.4668 21.1754 38.9258 21.7417 38.9258Z" fill="#1DBBBA"/>
<path d="M44.8643 32.376C44.8643 31.8096 44.4053 31.3506 43.8389 31.3506H29.752C29.1855 31.3506 28.7266 31.8096 28.7266 32.376C28.7266 32.9424 29.1855 33.4014 29.752 33.4014H43.8389C44.4053 33.4014 44.8643 32.9423 44.8643 32.376Z" fill="#1DBBBA"/>
<path d="M21.7417 33.4014H24.9181C25.4845 33.4014 25.9435 32.9424 25.9435 32.376C25.9435 31.8096 25.4845 31.3506 24.9181 31.3506H21.7417C21.1753 31.3506 20.7163 31.8096 20.7163 32.376C20.7163 32.9424 21.1754 33.4014 21.7417 33.4014Z" fill="#1DBBBA"/>
<path d="M61.16 29.5405C61.1406 29.1049 60.848 28.7292 60.4303 28.6039L48.553 25.0408C48.1914 24.9322 47.8001 25.0312 47.5332 25.2978C47.2666 25.5645 47.1678 25.9562 47.2762 26.3176L50.8393 38.1949C50.9646 38.6126 51.3403 38.9051 51.7759 38.9246C51.7912 38.9254 51.8066 38.9257 51.8218 38.9257C52.2393 38.9257 52.6174 38.6716 52.7736 38.281L54.9858 32.7503L60.5164 30.5381C60.9213 30.3764 61.1794 29.976 61.16 29.5405V29.5405ZM53.8161 31.0095C53.5555 31.1138 53.3491 31.3201 53.2448 31.5808L51.96 34.7932L49.7877 27.5523L57.0286 29.7246L53.8161 31.0095Z" fill="#1DBBBA"/>
</g>
<defs>
<clipPath id="clip0_1149_13858">
<rect width="70" height="70" fill="white"/>
</clipPath>
</defs>
</svg>
