<svg width="70" height="70" viewBox="0 0 70 70" fill="none" xmlns="http://www.w3.org/2000/svg">
<g clip-path="url(#clip0_1149_13876)">
<path d="M16.1021 23.8363C15.5689 23.3031 14.7021 23.3031 14.169 23.8363C13.6344 24.3709 13.6344 25.2363 14.169 25.7695C14.7022 26.3041 15.569 26.3041 16.1021 25.7695C16.6365 25.2363 16.6365 24.3709 16.1021 23.8363Z" fill="#1DBBBA"/>
<path d="M34.6171 61.2115C35.2199 60.395 35.5457 59.4113 35.5457 58.3771C35.5457 55.7387 33.3992 53.592 30.7607 53.592H7.51927C6.24054 53.592 5.03892 54.0897 4.13561 54.9933C3.2319 55.8967 2.73424 57.0983 2.73424 58.3771C2.73424 59.4365 3.08096 60.4162 3.66598 61.2099C1.48901 62.3545 0 64.6377 0 67.2634V68.6306C0 69.3857 0.612228 69.9978 1.36719 69.9978H36.9128C37.6677 69.9978 38.28 69.3857 38.28 68.6306V67.2634C38.28 64.6389 36.7925 62.3567 34.6171 61.2115ZM6.06896 56.9265C6.45601 56.5393 6.97117 56.3261 7.51927 56.3261H30.7607C31.8915 56.3261 32.8113 57.2461 32.8113 58.3768C32.8113 58.925 32.5981 59.4401 32.2109 59.8272C31.8238 60.2144 31.3087 60.4276 30.7605 60.4276H7.51927C6.38847 60.4276 5.46862 59.5076 5.46862 58.3769C5.46862 57.8288 5.68177 57.3137 6.06896 56.9265ZM2.73424 67.2634C2.73424 65.0019 4.57421 63.162 6.83568 63.162H7.51927H30.7607H31.4443C33.7058 63.162 35.5457 65.0019 35.5457 67.2634H2.73424Z" fill="#1DBBBA"/>
<path d="M68.7278 57.4389C68.2635 56.7194 67.7095 56.0831 67.081 55.5477L60.6928 49.976C60.643 49.9011 60.5853 49.83 60.5193 49.7639C60.4083 49.6531 60.2825 49.5665 60.1488 49.5017L56.2855 46.1323L38.404 30.5339C39.136 29.7686 39.5391 28.768 39.5391 27.7039C39.5391 26.6077 39.1124 25.5775 38.3368 24.802C37.9985 24.4642 37.6141 24.1986 37.2032 24.004L38.8575 22.3497C39.3199 22.4726 39.795 22.5355 40.2705 22.5355C41.6707 22.5354 43.0709 22.0025 44.1368 20.9366C45.1701 19.9034 45.7391 18.5301 45.7391 17.0695C45.7391 15.6089 45.1701 14.2356 44.1369 13.2024L32.5366 1.60233C31.5034 0.569147 30.1299 0.00012207 28.6689 0.00012207C27.2086 0.00012207 25.8356 0.569147 24.8025 1.60233C23.3746 3.03023 22.9046 5.05763 23.3894 6.88174L6.884 23.387C6.4279 23.2657 5.95335 23.2018 5.46855 23.2018C4.00729 23.2018 2.6345 23.7704 1.60213 24.8026C-0.530138 26.9349 -0.530138 30.4044 1.60213 32.5368L13.2023 44.1371C14.2686 45.2033 15.669 45.7363 17.0694 45.7363C18.47 45.7363 19.8704 45.2033 20.9367 44.1371C22.3646 42.7091 22.8346 40.6818 22.3498 38.8577L24.0007 37.2067C24.1991 37.621 24.4683 38.0032 24.8027 38.3375C25.5773 39.1122 26.6072 39.5389 27.7032 39.5389C28.7662 39.5389 29.7664 39.1365 30.5327 38.4053L49.5785 60.2877C49.631 60.3698 49.6922 60.4478 49.7639 60.5195C49.7883 60.544 49.8143 60.5662 49.8402 60.5884L55.5155 67.1091C55.6566 67.2756 55.8074 67.4394 55.9639 67.5959C57.5227 69.1541 59.5815 69.9997 61.7431 69.9997C62.1241 69.9997 62.5087 69.9735 62.8938 69.9201C65.4681 69.5639 67.6929 68.0239 68.9975 65.6944C70.4266 63.1415 70.3203 59.9003 68.7278 57.4389ZM26.7361 3.53581C27.2528 3.01915 27.9394 2.7345 28.6691 2.7345C29.3997 2.7345 30.0867 3.01915 30.6032 3.53581L42.2036 15.136C42.7202 15.6527 43.0048 16.3394 43.0048 17.0696C43.0048 17.7998 42.7202 18.4866 42.2034 19.0032C41.1377 20.0692 39.4033 20.0692 38.3376 19.0032L26.7368 7.4025C26.7366 7.40223 26.7364 7.40209 26.7361 7.40182C25.6701 6.33596 25.6701 4.60167 26.7361 3.53581ZM19.0032 42.2036C17.937 43.2698 16.2019 43.2699 15.1358 42.2036L3.53561 30.6034C2.46934 29.5372 2.46934 27.8025 3.53561 26.7361C4.05132 26.2202 4.73792 25.9361 5.46855 25.9361C6.19904 25.9361 6.88523 26.2201 7.4008 26.7355L19.003 38.3378C20.0692 39.4035 20.0692 41.1379 19.0032 42.2036ZM24.7593 32.5814L20.9365 36.4043L9.3351 24.8029L24.8025 9.33516L36.4038 20.9366L32.574 24.7665C32.5616 24.7783 32.5494 24.7897 32.5363 24.8027L24.8065 32.5327C24.7905 32.5484 24.775 32.5648 24.7593 32.5814ZM29.641 35.4335C29.6383 35.4362 29.6357 35.4388 29.6329 35.4415L28.6702 36.4043C28.4119 36.6624 28.0686 36.8046 27.703 36.8046C27.3376 36.8046 26.9941 36.6624 26.736 36.4042C26.4775 36.1458 26.3351 35.8021 26.3351 35.4363C26.3351 35.0784 26.4717 34.7417 26.7196 34.4876L34.4854 26.7219C35.0176 26.2042 35.8781 26.2107 36.4041 26.7361C36.6625 26.9945 36.8048 27.3382 36.8048 27.7039C36.8048 28.0694 36.6629 28.4121 36.404 28.6704L35.4468 29.6275C35.4402 29.634 35.4337 29.6405 35.4272 29.6471L29.641 35.4335ZM32.4722 36.4691L36.4679 32.4734L53.3858 47.2301L47.2124 53.4037L32.4722 36.4691ZM49.0118 55.4711L55.4511 49.0317L57.5165 50.8332L50.8111 57.5387L49.0118 55.4711ZM66.6119 64.3587C65.7295 65.9341 64.2378 66.9739 62.5191 67.2117C60.8043 67.4491 59.1196 66.8843 57.897 65.6623C57.7919 65.5573 57.6912 65.4478 57.5975 65.3368C57.5931 65.3316 57.5887 65.3264 57.5842 65.3213L52.6104 59.6062L59.5818 52.6346L65.2898 57.6135C65.2941 57.6173 65.2984 57.621 65.3029 57.6249C65.7302 57.9881 66.1093 58.4244 66.431 58.9229C67.4649 60.5204 67.5373 62.7052 66.6119 64.3587Z" fill="#1DBBBA"/>
<path d="M25.7694 14.169C25.2353 13.6351 24.3699 13.6351 23.8359 14.169L18.0352 19.9697C17.5013 20.5036 17.5013 21.3693 18.0352 21.903C18.3022 22.17 18.6521 22.3035 19.0019 22.3035C19.3518 22.3035 19.7016 22.1699 19.9687 21.903L25.7694 16.1023C26.3033 15.5686 26.3033 14.703 25.7694 14.169Z" fill="#1DBBBA"/>
</g>
<defs>
<clipPath id="clip0_1149_13876">
<rect width="70" height="70" fill="white"/>
</clipPath>
</defs>
</svg>
