<?xml version="1.0" standalone="no"?>
<!DOCTYPE svg PUBLIC "-//W3C//DTD SVG 20010904//EN"
 "http://www.w3.org/TR/2001/REC-SVG-20010904/DTD/svg10.dtd">
<svg version="1.0" xmlns="http://www.w3.org/2000/svg"
 width="512.000000pt" height="512.000000pt" viewBox="0 0 512.000000 512.000000"
 preserveAspectRatio="xMidYMid meet">
<metadata>
Created by potrace 1.14, written by Peter Selinger 2001-2017
</metadata>
<g transform="translate(0.000000,512.000000) scale(0.100000,-0.100000)"
fill="#000000" stroke="none">
<path d="M2272 4984 l-51 -106 -203 1 c-112 0 -283 4 -380 7 l-178 7 0 -185 0
-185 46 -7 c26 -3 176 -6 333 -6 l287 0 -8 -82 c-10 -116 7 -291 38 -400 5
-17 -8 -18 -165 -18 l-171 0 0 -236 0 -237 92 7 c50 3 144 6 210 6 l118 0 0
122 0 123 44 -77 c74 -131 135 -208 286 -363 80 -82 165 -172 189 -199 l44
-49 411 7 c226 3 450 9 499 13 l87 6 0 -115 0 -115 -277 -7 c-153 -3 -339 -9
-414 -12 l-136 -7 54 -91 c95 -160 189 -377 224 -515 l13 -54 151 7 c82 3 203
9 268 12 l117 7 0 -111 0 -110 -37 -6 c-21 -3 -110 -8 -198 -11 -88 -3 -182
-8 -209 -11 l-49 -6 5 -90 c16 -273 -51 -564 -181 -786 -62 -107 -159 -231
-184 -236 -19 -4 -1637 -127 -1661 -126 -5 0 -6 876 -1 2103 l7 2104 -53 6
c-30 4 -117 7 -195 7 -140 0 -141 0 -181 -29 -80 -58 -73 171 -73 -2458 l0
-2347 21 -43 c30 -63 70 -87 149 -91 36 -2 632 31 1325 72 693 42 1410 85
1594 96 375 23 376 23 421 102 l25 43 0 2200 0 2200 -21 40 c-27 53 -76 85
-128 85 -86 0 -86 0 -86 111 l0 99 -67 0 c-38 0 -412 9 -833 20 -421 11 -788
20 -816 20 l-50 0 -52 -106z m-1086 -2322 l-8 -2159 29 4 c15 1 633 48 1373
103 740 55 1360 103 1378 106 l32 5 0 113 c0 125 0 126 66 126 l34 0 0 1876 0
1875 48 -6 c26 -4 53 -8 60 -10 9 -4 12 -428 12 -2079 0 -1141 -4 -2077 -8
-2080 -14 -8 -3156 -170 -3174 -163 -17 6 -18 121 -18 2211 0 1212 3 2211 6
2220 5 13 23 16 92 16 l85 0 -7 -2158z m2614 1240 l0 -109 -427 -6 c-236 -4
-560 -7 -720 -7 l-293 0 0 115 0 115 720 0 720 0 0 -108z"/>
<path d="M1820 2853 l0 -236 201 6 c111 4 204 9 207 12 3 3 8 107 10 230 l5
225 -212 0 -211 0 0 -237z"/>
<path d="M1924 2163 l-102 -4 -6 -31 c-3 -17 -6 -123 -6 -236 l0 -205 163 7
c89 4 183 10 210 13 l47 6 0 228 0 229 -102 -2 c-57 -1 -149 -4 -204 -5z"/>
</g>
</svg>
