<svg xmlns="http://www.w3.org/2000/svg" width="298" height="210" fill="none"><g clip-path="url(#a)"><path fill="url(#b)" d="M254.027 135.643a4.03 4.03 0 0 1-2.364 3.685l-58.071 26.723a16.5 16.5 0 0 1-5.829 1.492 16.4 16.4 0 0 1-8.023-1.456l-82.068-37.549a4.29 4.29 0 0 1-2.477-3.189c-.292-1.782.518-3.721 2.439-4.626l57.534-27.087a14.07 14.07 0 0 1 11.817-.084l84.649 38.407c1.272.569 2.034 1.632 2.279 2.789.076.288.114.596.114.895"/><path fill="url(#c)" d="M254.027 146.515a4.03 4.03 0 0 1-2.364 3.685l-58.071 26.723a16.5 16.5 0 0 1-5.829 1.492 16.4 16.4 0 0 1-8.023-1.456L97.672 139.41a4.29 4.29 0 0 1-2.477-3.189c-.292-1.782.518-3.721 2.439-4.626l57.534-27.087a14.07 14.07 0 0 1 11.817-.084l84.649 38.407c1.272.569 2.034 1.632 2.279 2.789.076.289.114.597.114.895" opacity=".07"/><path fill="url(#d)" d="M262.578 50.242v74.612c0 2.473-2.586 4.122-4.847 3.077L167.87 86.348a6.47 6.47 0 0 1-3.776-5.875V7.864c0-.884.267-1.68.728-2.341a4.24 4.24 0 0 1 5.308-1.473l89.325 41.334a5.32 5.32 0 0 1 2.989 3.77c.09.352.134.72.134 1.088"/><path fill="url(#e)" d="M259.625 51.391v74.612c0 2.474-2.586 4.123-4.847 3.077l-89.861-41.583a6.47 6.47 0 0 1-3.776-5.875V9.013c0-.883.267-1.679.728-2.34 1.1-1.635 3.3-2.401 5.308-1.473l89.325 41.334a5.32 5.32 0 0 1 2.988 3.769c.091.352.135.72.135 1.088"/><path fill="#00344A" d="M166.442 84.266a2.92 2.92 0 0 1-1.7-2.643V9.014c0-.13.027-.223.091-.314.149-.22.353-.333.549-.333q.13 0 .272.066l89.324 41.333c.506.233.873.694.979 1.23l.039.176a1 1 0 0 1 .026.221v74.328z"/><path fill="url(#f)" d="M254.027 135.105a4.03 4.03 0 0 1-2.364 3.685l-58.071 26.723a16.5 16.5 0 0 1-5.829 1.491 16.37 16.37 0 0 1-8.023-1.455L97.672 128a4.29 4.29 0 0 1-2.477-3.189c-.292-1.782.518-3.721 2.439-4.627l57.534-27.086a14.07 14.07 0 0 1 11.817-.084l84.649 38.407c1.272.569 2.034 1.631 2.279 2.789.076.288.114.596.114.895"/><path fill="url(#g)" d="M254.027 130.898a4.03 4.03 0 0 1-2.364 3.684l-58.071 26.724a16.5 16.5 0 0 1-5.829 1.491 16.37 16.37 0 0 1-8.023-1.455l-82.068-37.549a4.29 4.29 0 0 1-2.477-3.189c-.292-1.782.518-3.721 2.439-4.627l57.534-27.086a14.06 14.06 0 0 1 11.817-.084l84.649 38.407c1.272.569 2.034 1.631 2.279 2.789.076.289.114.597.114.895"/><path fill="url(#h)" d="M167.072 95.691a.16.16 0 0 1-.096.144l-2.352 1.073a.7.7 0 0 1-.56.01l-3.325-1.415a.17.17 0 0 1-.1-.123.17.17 0 0 1 .099-.18l2.33-1.086a.59.59 0 0 1 .478-.01l3.429 1.446a.15.15 0 0 1 .097.141"/><path fill="url(#i)" d="M172.451 98.148a.16.16 0 0 1-.096.145l-2.352 1.072a.7.7 0 0 1-.56.01l-3.325-1.415a.16.16 0 0 1-.1-.123.17.17 0 0 1 .099-.18l2.33-1.086a.59.59 0 0 1 .478-.01l3.429 1.446a.15.15 0 0 1 .092.108.1.1 0 0 1 .005.033"/><path fill="url(#j)" d="M177.834 100.605a.16.16 0 0 1-.096.145l-2.352 1.072a.7.7 0 0 1-.561.009l-3.324-1.414a.164.164 0 0 1-.001-.304l2.33-1.085a.59.59 0 0 1 .478-.01l3.429 1.446a.15.15 0 0 1 .092.108q.004.016.005.033"/><path fill="url(#k)" d="M183.213 103.062a.16.16 0 0 1-.096.145l-2.352 1.072a.7.7 0 0 1-.561.009l-3.324-1.414a.16.16 0 0 1-.1-.123.166.166 0 0 1 .099-.181l2.33-1.084a.58.58 0 0 1 .478-.01l3.429 1.445a.15.15 0 0 1 .092.108.1.1 0 0 1 .005.033"/><path fill="url(#l)" d="M188.591 105.519a.16.16 0 0 1-.095.145l-2.352 1.072a.7.7 0 0 1-.561.009l-3.324-1.414a.164.164 0 0 1-.001-.303l2.33-1.085a.59.59 0 0 1 .478-.01l3.429 1.445a.15.15 0 0 1 .096.141"/><path fill="url(#m)" d="M193.974 107.977a.16.16 0 0 1-.095.145l-2.352 1.072a.7.7 0 0 1-.561.009l-3.325-1.414a.17.17 0 0 1-.1-.123.166.166 0 0 1 .099-.18l2.33-1.085a.59.59 0 0 1 .479-.01l3.429 1.445a.15.15 0 0 1 .096.141"/><path fill="url(#n)" d="M199.349 110.433a.16.16 0 0 1-.095.145l-2.352 1.072a.7.7 0 0 1-.561.009l-3.325-1.414a.17.17 0 0 1-.1-.123.17.17 0 0 1 .099-.18l2.33-1.085a.59.59 0 0 1 .479-.01l3.429 1.445a.15.15 0 0 1 .096.141"/><path fill="url(#o)" d="M204.732 112.891a.16.16 0 0 1-.096.144l-2.351 1.072a.7.7 0 0 1-.561.009l-3.325-1.414a.17.17 0 0 1-.1-.123.166.166 0 0 1 .099-.18l2.33-1.085a.59.59 0 0 1 .478-.01l3.429 1.446a.15.15 0 0 1 .097.141"/><path fill="url(#p)" d="M210.111 115.348a.16.16 0 0 1-.096.144l-2.352 1.072a.7.7 0 0 1-.56.01l-3.325-1.415a.17.17 0 0 1-.1-.123.166.166 0 0 1 .099-.18l2.33-1.085a.59.59 0 0 1 .478-.01l3.429 1.446a.15.15 0 0 1 .097.141"/><path fill="url(#q)" d="M215.494 117.806a.16.16 0 0 1-.096.144l-2.352 1.072a.7.7 0 0 1-.561.01l-3.324-1.415a.16.16 0 0 1-.1-.123.166.166 0 0 1 .099-.18l2.33-1.085a.59.59 0 0 1 .478-.01l3.429 1.446a.15.15 0 0 1 .092.107q.005.016.005.034"/><path fill="url(#r)" d="M220.873 120.262a.16.16 0 0 1-.096.144l-2.352 1.072a.7.7 0 0 1-.561.01l-3.324-1.415a.16.16 0 0 1-.1-.122.166.166 0 0 1 .099-.181l2.33-1.085a.59.59 0 0 1 .478-.01l3.429 1.446a.15.15 0 0 1 .092.107q.005.016.005.034"/><path fill="url(#s)" d="M226.255 122.719a.16.16 0 0 1-.095.144l-2.352 1.072a.7.7 0 0 1-.561.01l-3.324-1.415a.16.16 0 0 1-.1-.122.165.165 0 0 1 .099-.181l2.33-1.085a.59.59 0 0 1 .478-.01l3.429 1.446a.15.15 0 0 1 .096.141"/><path fill="url(#t)" d="M231.63 125.176a.16.16 0 0 1-.095.144l-2.352 1.072a.694.694 0 0 1-.561.01l-3.324-1.415a.16.16 0 0 1-.1-.122.165.165 0 0 1 .099-.181l2.33-1.086a.6.6 0 0 1 .478-.01l3.429 1.446a.15.15 0 0 1 .096.142"/><path fill="url(#u)" d="M237.013 127.633a.16.16 0 0 1-.095.144l-2.352 1.072a.694.694 0 0 1-.561.01l-3.324-1.415a.16.16 0 0 1-.1-.122.166.166 0 0 1 .098-.181l2.331-1.086a.6.6 0 0 1 .478-.01l3.429 1.446a.15.15 0 0 1 .096.142"/><path fill="url(#v)" d="M162.962 97.633a.16.16 0 0 1-.095.144l-2.352 1.072a.7.7 0 0 1-.561.01l-3.324-1.415a.16.16 0 0 1-.1-.122.165.165 0 0 1 .099-.181l2.33-1.085a.59.59 0 0 1 .478-.01l3.429 1.446a.15.15 0 0 1 .096.14"/><path fill="url(#w)" d="M168.341 100.09a.16.16 0 0 1-.095.144l-2.352 1.072a.7.7 0 0 1-.561.01l-3.324-1.415a.16.16 0 0 1-.1-.122.166.166 0 0 1 .099-.181l2.33-1.085a.59.59 0 0 1 .478-.01l3.429 1.446a.15.15 0 0 1 .096.141"/><path fill="url(#x)" d="M173.724 102.547a.16.16 0 0 1-.095.144l-2.352 1.072a.694.694 0 0 1-.561.01l-3.325-1.415a.16.16 0 0 1-.1-.122.17.17 0 0 1 .099-.181l2.33-1.085a.6.6 0 0 1 .479-.01l3.429 1.446a.15.15 0 0 1 .096.141"/><path fill="url(#y)" d="M179.103 105.004a.16.16 0 0 1-.096.144l-2.351 1.072a.694.694 0 0 1-.561.01l-3.325-1.415a.16.16 0 0 1-.1-.122.166.166 0 0 1 .099-.181l2.33-1.085a.6.6 0 0 1 .479-.01l3.428 1.446a.15.15 0 0 1 .097.141"/><path fill="url(#z)" d="M184.482 107.46a.16.16 0 0 1-.096.144l-2.351 1.072a.7.7 0 0 1-.561.01l-3.325-1.415a.16.16 0 0 1-.1-.122.166.166 0 0 1 .099-.181l2.33-1.085a.6.6 0 0 1 .478-.01l3.429 1.446a.15.15 0 0 1 .097.141"/><path fill="url(#A)" d="M189.865 109.917a.16.16 0 0 1-.096.144l-2.352 1.072a.7.7 0 0 1-.56.01l-3.325-1.414a.17.17 0 0 1-.1-.123.166.166 0 0 1 .099-.181l2.33-1.085a.6.6 0 0 1 .478-.01l3.429 1.446a.15.15 0 0 1 .097.141"/><path fill="url(#B)" d="M195.244 112.375a.16.16 0 0 1-.096.144l-2.352 1.072a.7.7 0 0 1-.561.01l-3.324-1.414a.17.17 0 0 1-.1-.123.17.17 0 0 1 .099-.181l2.33-1.085a.6.6 0 0 1 .478-.01l3.429 1.446a.15.15 0 0 1 .092.108.1.1 0 0 1 .005.033"/><path fill="url(#C)" d="M200.623 114.832a.16.16 0 0 1-.096.144l-2.352 1.072a.7.7 0 0 1-.561.01l-3.324-1.414a.17.17 0 0 1-.1-.123.17.17 0 0 1 .099-.181l2.33-1.085a.6.6 0 0 1 .478-.01l3.429 1.446a.15.15 0 0 1 .092.108q.004.016.005.033"/><path fill="url(#D)" d="M206.005 117.288a.16.16 0 0 1-.095.144l-2.352 1.072a.7.7 0 0 1-.561.01l-3.324-1.414a.16.16 0 0 1-.1-.123.166.166 0 0 1 .099-.181l2.33-1.085a.6.6 0 0 1 .478-.01l3.429 1.446a.15.15 0 0 1 .096.141"/><path fill="url(#E)" d="M211.384 119.746a.16.16 0 0 1-.095.144l-2.352 1.072a.7.7 0 0 1-.561.01l-3.324-1.414a.16.16 0 0 1-.1-.123.166.166 0 0 1 .099-.181l2.33-1.085a.6.6 0 0 1 .478-.01l3.429 1.446a.15.15 0 0 1 .096.141"/><path fill="url(#F)" d="M216.763 122.203a.16.16 0 0 1-.095.144l-2.352 1.072a.7.7 0 0 1-.561.01l-3.324-1.414a.16.16 0 0 1-.1-.123.166.166 0 0 1 .098-.181l2.331-1.085a.6.6 0 0 1 .478-.01l3.429 1.446a.15.15 0 0 1 .096.141"/><path fill="url(#G)" d="M222.146 124.659a.16.16 0 0 1-.096.144l-2.351 1.072a.7.7 0 0 1-.561.01l-3.325-1.414a.17.17 0 0 1-.1-.123.17.17 0 0 1 .099-.181l2.33-1.085a.6.6 0 0 1 .479-.01l3.428 1.446a.15.15 0 0 1 .097.141"/><path fill="url(#H)" d="M227.525 127.117a.16.16 0 0 1-.096.144l-2.351 1.072a.7.7 0 0 1-.561.01l-3.325-1.414a.17.17 0 0 1-.1-.123.17.17 0 0 1 .099-.181l2.33-1.085a.59.59 0 0 1 .479-.009l3.429 1.445a.16.16 0 0 1 .093.108z"/><path fill="url(#I)" d="M232.904 129.574a.16.16 0 0 1-.096.144l-2.352 1.072a.7.7 0 0 1-.56.01l-3.325-1.414a.17.17 0 0 1-.1-.123.17.17 0 0 1 .099-.181l2.33-1.085a.59.59 0 0 1 .478-.009l3.429 1.445a.16.16 0 0 1 .097.141"/><path fill="url(#J)" d="M158.861 99.572a.16.16 0 0 1-.096.144l-2.352 1.072a.7.7 0 0 1-.56.01l-3.325-1.414a.17.17 0 0 1-.1-.123.17.17 0 0 1 .099-.18l2.33-1.086a.59.59 0 0 1 .478-.01l3.429 1.446a.15.15 0 0 1 .097.141"/><path fill="url(#K)" d="M164.24 102.03a.16.16 0 0 1-.096.144l-2.352 1.073a.694.694 0 0 1-.56.009l-3.325-1.414a.164.164 0 0 1-.001-.304l2.33-1.086a.59.59 0 0 1 .478-.009l3.429 1.445a.15.15 0 0 1 .092.108.1.1 0 0 1 .005.034"/><path fill="url(#L)" d="M169.623 104.485a.16.16 0 0 1-.096.145l-2.352 1.072a.7.7 0 0 1-.561.009l-3.324-1.414a.164.164 0 0 1-.001-.304l2.33-1.086a.59.59 0 0 1 .478-.009l3.429 1.445a.15.15 0 0 1 .092.108.1.1 0 0 1 .005.034"/><path fill="url(#M)" d="M175.002 106.943a.16.16 0 0 1-.096.144l-2.352 1.073a.694.694 0 0 1-.561.009l-3.324-1.414a.164.164 0 0 1-.001-.304l2.33-1.085a.59.59 0 0 1 .478-.009l3.429 1.445a.15.15 0 0 1 .092.108q.004.015.005.033"/><path fill="url(#N)" d="M180.38 109.4a.16.16 0 0 1-.095.145l-2.352 1.072a.694.694 0 0 1-.561.009l-3.324-1.414a.16.16 0 0 1-.1-.123.166.166 0 0 1 .099-.181l2.33-1.085a.59.59 0 0 1 .478-.009l3.429 1.445a.15.15 0 0 1 .096.141"/><path fill="url(#O)" d="M185.763 111.856a.16.16 0 0 1-.095.145l-2.352 1.072a.7.7 0 0 1-.561.009l-3.324-1.414a.16.16 0 0 1-.1-.123.165.165 0 0 1 .098-.18l2.331-1.087a.59.59 0 0 1 .478-.009l3.429 1.445a.15.15 0 0 1 .096.142"/><path fill="url(#P)" d="M191.142 114.314a.16.16 0 0 1-.095.145l-2.352 1.072a.7.7 0 0 1-.561.009l-3.325-1.414a.17.17 0 0 1-.1-.123.165.165 0 0 1 .099-.18l2.33-1.087a.59.59 0 0 1 .479-.009l3.428 1.445a.15.15 0 0 1 .097.142"/><path fill="url(#Q)" d="M196.521 116.772a.16.16 0 0 1-.096.145l-2.351 1.072a.7.7 0 0 1-.561.009l-3.325-1.414a.17.17 0 0 1-.1-.123.165.165 0 0 1 .099-.18l2.33-1.087a.59.59 0 0 1 .479-.009l3.428 1.445a.16.16 0 0 1 .097.142"/><path fill="url(#R)" d="M201.904 119.228a.16.16 0 0 1-.096.145l-2.352 1.072a.7.7 0 0 1-.56.009l-3.325-1.414a.17.17 0 0 1-.1-.123.165.165 0 0 1 .099-.18l2.33-1.085a.58.58 0 0 1 .478-.01l3.429 1.445a.16.16 0 0 1 .097.141"/><path fill="url(#S)" d="M207.283 121.685a.16.16 0 0 1-.096.144l-2.352 1.072a.7.7 0 0 1-.56.01l-3.325-1.415a.16.16 0 0 1-.1-.123.166.166 0 0 1 .099-.18l2.33-1.086a.59.59 0 0 1 .478-.01l3.429 1.445a.15.15 0 0 1 .092.108.1.1 0 0 1 .005.035"/><path fill="url(#T)" d="M212.662 124.142a.16.16 0 0 1-.096.145l-2.352 1.072a.7.7 0 0 1-.561.009l-3.324-1.414a.16.16 0 0 1-.1-.123.166.166 0 0 1 .099-.18l2.33-1.085a.59.59 0 0 1 .478-.01l3.429 1.445a.15.15 0 0 1 .092.108q.005.016.005.033"/><path fill="url(#U)" d="M218.045 126.599a.16.16 0 0 1-.096.145l-2.352 1.072a.7.7 0 0 1-.561.009l-3.324-1.414a.16.16 0 0 1-.1-.123.165.165 0 0 1 .099-.18l2.33-1.085a.59.59 0 0 1 .478-.01l3.429 1.445a.15.15 0 0 1 .092.108q.004.016.005.033"/><path fill="url(#V)" d="M223.423 129.057a.16.16 0 0 1-.095.144l-2.352 1.072a.7.7 0 0 1-.561.01l-3.324-1.415a.16.16 0 0 1-.1-.123.165.165 0 0 1 .099-.18l2.33-1.085a.59.59 0 0 1 .478-.01l3.429 1.446a.15.15 0 0 1 .096.141"/><path fill="url(#W)" d="M228.802 131.514a.16.16 0 0 1-.095.144l-2.352 1.072a.7.7 0 0 1-.561.01l-3.324-1.415a.16.16 0 0 1-.1-.123.165.165 0 0 1 .098-.18l2.331-1.085a.59.59 0 0 1 .478-.01l3.429 1.446a.15.15 0 0 1 .096.141"/><path fill="url(#X)" d="M154.755 101.512a.16.16 0 0 1-.095.144l-2.352 1.072a.7.7 0 0 1-.561.01l-3.324-1.415a.16.16 0 0 1-.1-.122.165.165 0 0 1 .099-.181l2.33-1.085a.59.59 0 0 1 .478-.01l3.429 1.446a.15.15 0 0 1 .096.141"/><path fill="url(#Y)" d="M160.134 103.969a.16.16 0 0 1-.095.144l-2.352 1.072a.7.7 0 0 1-.561.01l-3.324-1.415a.16.16 0 0 1-.1-.122.165.165 0 0 1 .099-.181l2.33-1.085a.59.59 0 0 1 .478-.01l3.429 1.446a.15.15 0 0 1 .096.141"/><path fill="url(#Z)" d="M165.517 106.426a.16.16 0 0 1-.095.144l-2.352 1.072a.7.7 0 0 1-.561.01l-3.325-1.415a.16.16 0 0 1-.1-.122.166.166 0 0 1 .099-.181l2.33-1.085a.6.6 0 0 1 .479-.01l3.428 1.446a.15.15 0 0 1 .097.141"/><path fill="url(#aa)" d="M170.896 108.883a.16.16 0 0 1-.096.144l-2.351 1.072a.7.7 0 0 1-.561.01l-3.325-1.415a.16.16 0 0 1-.1-.122.166.166 0 0 1 .099-.181l2.33-1.085a.6.6 0 0 1 .479-.01l3.428 1.446a.15.15 0 0 1 .097.141"/><path fill="url(#ab)" d="M176.275 111.34a.16.16 0 0 1-.096.144l-2.351 1.072a.7.7 0 0 1-.561.01l-3.325-1.415a.16.16 0 0 1-.1-.122.166.166 0 0 1 .099-.181l2.33-1.085a.6.6 0 0 1 .478-.01l3.429 1.446a.15.15 0 0 1 .097.141"/><path fill="url(#ac)" d="M181.658 113.798a.16.16 0 0 1-.096.144l-2.352 1.072a.7.7 0 0 1-.56.01l-3.325-1.415a.16.16 0 0 1-.1-.122.166.166 0 0 1 .099-.181l2.33-1.085a.6.6 0 0 1 .478-.01l3.429 1.446a.15.15 0 0 1 .092.107q.005.016.005.034"/><path fill="url(#ad)" d="M187.037 116.254a.16.16 0 0 1-.096.144l-2.352 1.072a.698.698 0 0 1-.561.01l-3.324-1.415a.16.16 0 0 1-.1-.122.166.166 0 0 1 .099-.181l2.33-1.085a.6.6 0 0 1 .478-.01l3.429 1.446a.15.15 0 0 1 .092.107.1.1 0 0 1 .005.034"/><path fill="url(#ae)" d="M192.42 118.711a.16.16 0 0 1-.096.144l-2.352 1.072a.694.694 0 0 1-.561.01l-3.324-1.415a.16.16 0 0 1-.1-.122.165.165 0 0 1 .099-.181l2.33-1.085a.6.6 0 0 1 .478-.01l3.429 1.446a.15.15 0 0 1 .092.107q.005.016.005.034"/><path fill="url(#af)" d="M197.798 121.168a.16.16 0 0 1-.095.144l-2.352 1.072a.7.7 0 0 1-.561.01l-3.324-1.415a.16.16 0 0 1-.1-.122.165.165 0 0 1 .099-.181l2.33-1.085a.6.6 0 0 1 .478-.01l3.429 1.446a.15.15 0 0 1 .096.141"/><path fill="url(#ag)" d="M203.177 123.624a.16.16 0 0 1-.095.144l-2.352 1.072a.7.7 0 0 1-.561.01l-3.324-1.414a.16.16 0 0 1-.1-.123.166.166 0 0 1 .098-.181l2.331-1.086a.6.6 0 0 1 .478-.01l3.429 1.446a.15.15 0 0 1 .096.142"/><path fill="url(#ah)" d="M208.56 126.082a.16.16 0 0 1-.095.144l-2.352 1.072a.7.7 0 0 1-.561.01l-3.325-1.414a.17.17 0 0 1-.1-.123.17.17 0 0 1 .099-.181l2.33-1.086a.6.6 0 0 1 .479-.01l3.428 1.446a.15.15 0 0 1 .097.142"/><path fill="url(#ai)" d="M213.939 128.539a.16.16 0 0 1-.096.144l-2.351 1.072a.7.7 0 0 1-.561.01l-3.325-1.414a.17.17 0 0 1-.1-.123.17.17 0 0 1 .099-.181l2.33-1.085a.6.6 0 0 1 .478-.01l3.429 1.446a.15.15 0 0 1 .097.141"/><path fill="url(#aj)" d="M219.318 130.996a.16.16 0 0 1-.096.144l-2.352 1.072a.7.7 0 0 1-.56.01l-3.325-1.414a.17.17 0 0 1-.1-.123.17.17 0 0 1 .099-.181l2.33-1.085a.6.6 0 0 1 .478-.01l3.429 1.446a.15.15 0 0 1 .097.141"/><path fill="url(#ak)" d="M224.697 133.452a.16.16 0 0 1-.096.144l-2.352 1.072a.7.7 0 0 1-.56.01l-3.325-1.414a.164.164 0 0 1-.001-.304l2.33-1.086a.6.6 0 0 1 .478-.01l3.429 1.446a.15.15 0 0 1 .097.142"/><path fill="url(#al)" d="M150.646 103.452a.16.16 0 0 1-.096.144l-2.351 1.072a.7.7 0 0 1-.561.01l-3.325-1.414a.17.17 0 0 1-.1-.123.17.17 0 0 1 .099-.181l2.33-1.085a.6.6 0 0 1 .479-.01l3.428 1.446a.15.15 0 0 1 .097.141"/><path fill="url(#am)" d="M156.025 105.908a.16.16 0 0 1-.096.144l-2.351 1.072a.7.7 0 0 1-.561.01l-3.325-1.414a.17.17 0 0 1-.1-.123.17.17 0 0 1 .099-.181l2.33-1.085a.59.59 0 0 1 .478-.009l3.429 1.445a.16.16 0 0 1 .097.141"/><path fill="url(#an)" d="M161.408 108.366a.16.16 0 0 1-.096.144l-2.352 1.072a.7.7 0 0 1-.56.01l-3.325-1.414a.164.164 0 0 1-.001-.304l2.33-1.086a.59.59 0 0 1 .478-.009l3.429 1.445a.15.15 0 0 1 .092.108.1.1 0 0 1 .005.034"/><path fill="url(#ao)" d="M166.787 110.823a.16.16 0 0 1-.096.144l-2.352 1.072a.7.7 0 0 1-.561.01l-3.324-1.414a.164.164 0 0 1-.001-.304l2.33-1.085a.59.59 0 0 1 .478-.009l3.429 1.445a.15.15 0 0 1 .092.108.1.1 0 0 1 .005.033"/><path fill="url(#ap)" d="M172.166 113.279a.16.16 0 0 1-.096.144l-2.352 1.072a.7.7 0 0 1-.561.01l-3.324-1.414a.164.164 0 0 1-.001-.304l2.33-1.085a.59.59 0 0 1 .478-.009l3.429 1.445a.15.15 0 0 1 .092.108q.004.015.005.033"/><path fill="url(#aq)" d="M177.548 115.736a.16.16 0 0 1-.095.144l-2.352 1.073a.707.707 0 0 1-.561.009l-3.324-1.414a.16.16 0 0 1-.1-.123.166.166 0 0 1 .099-.181l2.33-1.085a.59.59 0 0 1 .478-.009l3.429 1.445a.15.15 0 0 1 .096.141"/><path fill="url(#ar)" d="M182.927 118.194a.16.16 0 0 1-.095.144l-2.352 1.073a.7.7 0 0 1-.236.061.7.7 0 0 1-.325-.052l-3.324-1.414a.16.16 0 0 1-.1-.123.166.166 0 0 1 .098-.181l2.331-1.085a.59.59 0 0 1 .478-.009l3.429 1.445a.15.15 0 0 1 .096.141"/><path fill="url(#as)" d="M188.31 120.65a.16.16 0 0 1-.095.145l-2.352 1.072a.7.7 0 0 1-.236.061.7.7 0 0 1-.325-.052l-3.325-1.414a.17.17 0 0 1-.1-.123.17.17 0 0 1 .099-.181l2.33-1.085a.59.59 0 0 1 .479-.009l3.428 1.445a.15.15 0 0 1 .097.141"/><path fill="url(#at)" d="M193.689 123.107a.16.16 0 0 1-.096.145l-2.351 1.072a.7.7 0 0 1-.561.009l-3.325-1.414a.17.17 0 0 1-.1-.123.17.17 0 0 1 .099-.181l2.33-1.085a.59.59 0 0 1 .478-.009l3.429 1.445a.16.16 0 0 1 .097.141"/><path fill="url(#au)" d="M199.068 125.564a.16.16 0 0 1-.096.145l-2.351 1.072a.7.7 0 0 1-.561.009l-3.325-1.414a.17.17 0 0 1-.1-.123.17.17 0 0 1 .099-.181l2.33-1.085a.59.59 0 0 1 .478-.009l3.429 1.445a.16.16 0 0 1 .097.141"/><path fill="url(#av)" d="M204.451 128.021a.16.16 0 0 1-.096.145l-2.352 1.072a.7.7 0 0 1-.56.009l-3.325-1.414a.164.164 0 0 1-.001-.304l2.33-1.085a.59.59 0 0 1 .478-.009l3.429 1.445a.15.15 0 0 1 .092.108.1.1 0 0 1 .005.033"/><path fill="url(#aw)" d="M209.83 130.478a.16.16 0 0 1-.096.145l-2.352 1.072a.7.7 0 0 1-.561.009l-3.324-1.414a.16.16 0 0 1-.1-.123.165.165 0 0 1 .099-.18l2.33-1.085a.58.58 0 0 1 .478-.01l3.429 1.445a.15.15 0 0 1 .092.108q.006.016.005.033"/><path fill="url(#ax)" d="M215.209 132.935a.16.16 0 0 1-.096.145l-2.352 1.072a.7.7 0 0 1-.561.009l-3.324-1.414a.164.164 0 0 1-.001-.303l2.33-1.085a.59.59 0 0 1 .478-.01l3.429 1.445a.15.15 0 0 1 .092.108q.004.016.005.033"/><path fill="url(#ay)" d="M220.587 135.393a.16.16 0 0 1-.095.145l-2.352 1.072a.7.7 0 0 1-.561.009l-3.324-1.414a.164.164 0 0 1-.001-.303l2.33-1.085a.59.59 0 0 1 .478-.01l3.429 1.445a.15.15 0 0 1 .096.141"/><path fill="url(#az)" d="M146.541 105.392a.16.16 0 0 1-.096.145l-2.352 1.072a.7.7 0 0 1-.561.009l-3.324-1.414a.16.16 0 0 1-.1-.123.166.166 0 0 1 .099-.18l2.33-1.085a.59.59 0 0 1 .478-.01l3.429 1.445a.15.15 0 0 1 .092.108q.004.016.005.033"/><path fill="url(#aA)" d="M151.92 107.849a.16.16 0 0 1-.096.145l-2.352 1.072a.7.7 0 0 1-.561.009l-3.324-1.414a.16.16 0 0 1-.1-.123.165.165 0 0 1 .099-.18l2.33-1.085a.59.59 0 0 1 .478-.01l3.429 1.446a.15.15 0 0 1 .092.107.1.1 0 0 1 .005.033"/><path fill="url(#aB)" d="M157.302 110.306a.16.16 0 0 1-.095.144l-2.352 1.072a.7.7 0 0 1-.561.01l-3.324-1.415a.16.16 0 0 1-.1-.122.166.166 0 0 1 .098-.181l2.331-1.086a.59.59 0 0 1 .478-.01l3.429 1.446a.15.15 0 0 1 .096.142"/><path fill="url(#aC)" d="M162.681 112.763a.16.16 0 0 1-.095.144l-2.352 1.072a.7.7 0 0 1-.561.01l-3.325-1.415a.16.16 0 0 1-.1-.122.17.17 0 0 1 .099-.181l2.331-1.086a.59.59 0 0 1 .478-.01l3.429 1.446a.15.15 0 0 1 .096.142"/><path fill="url(#aD)" d="M168.06 115.221a.16.16 0 0 1-.095.144l-2.352 1.072a.7.7 0 0 1-.561.01l-3.325-1.415a.16.16 0 0 1-.1-.122.166.166 0 0 1 .099-.181l2.33-1.086a.59.59 0 0 1 .479-.01l3.428 1.446a.15.15 0 0 1 .097.142"/><path fill="url(#aE)" d="M173.443 117.677a.16.16 0 0 1-.096.144l-2.351 1.072a.7.7 0 0 1-.561.01l-3.325-1.415a.16.16 0 0 1-.1-.122.166.166 0 0 1 .099-.181l2.33-1.085a.59.59 0 0 1 .478-.01l3.429 1.446a.15.15 0 0 1 .097.141"/><path fill="url(#aF)" d="M178.822 120.135a.16.16 0 0 1-.096.144l-2.352 1.072a.694.694 0 0 1-.56.01l-3.325-1.415a.16.16 0 0 1-.1-.122.166.166 0 0 1 .099-.181l2.33-1.086a.6.6 0 0 1 .478-.01l3.429 1.446a.15.15 0 0 1 .097.142"/><path fill="url(#aG)" d="M184.201 122.592a.16.16 0 0 1-.096.144l-2.352 1.072a.7.7 0 0 1-.56.01l-3.325-1.415a.16.16 0 0 1-.1-.122.166.166 0 0 1 .099-.181l2.33-1.085a.6.6 0 0 1 .478-.01l3.429 1.446a.15.15 0 0 1 .092.107q.005.016.005.034"/><path fill="url(#aH)" d="M189.584 125.048a.16.16 0 0 1-.096.144l-2.352 1.072a.7.7 0 0 1-.561.01l-3.324-1.415a.16.16 0 0 1-.1-.122.165.165 0 0 1 .099-.181l2.33-1.085a.6.6 0 0 1 .478-.01l3.429 1.446a.15.15 0 0 1 .092.107q.004.017.005.034"/><path fill="url(#aI)" d="M194.963 127.506a.16.16 0 0 1-.096.144l-2.352 1.072a.7.7 0 0 1-.561.01l-3.324-1.415a.16.16 0 0 1-.1-.122.165.165 0 0 1 .099-.181l2.33-1.085a.6.6 0 0 1 .478-.01l3.429 1.446a.15.15 0 0 1 .092.107q.005.016.005.034"/><path fill="url(#aJ)" d="M200.341 129.963a.16.16 0 0 1-.095.144l-2.352 1.072a.694.694 0 0 1-.561.01l-3.324-1.415a.16.16 0 0 1-.1-.122.165.165 0 0 1 .099-.181l2.33-1.085a.6.6 0 0 1 .478-.01l3.429 1.446a.15.15 0 0 1 .096.141"/><path fill="url(#aK)" d="M205.724 132.419a.16.16 0 0 1-.095.144l-2.352 1.072a.694.694 0 0 1-.561.01l-3.325-1.415a.16.16 0 0 1-.1-.122.17.17 0 0 1 .099-.181l2.33-1.085a.6.6 0 0 1 .479-.01l3.429 1.446a.15.15 0 0 1 .096.141"/><path fill="url(#aL)" d="M211.103 134.877a.16.16 0 0 1-.096.144l-2.351 1.072a.7.7 0 0 1-.561.01l-3.325-1.415a.16.16 0 0 1-.1-.122.166.166 0 0 1 .099-.181l2.33-1.085a.6.6 0 0 1 .479-.01l3.428 1.446a.15.15 0 0 1 .097.141"/><path fill="url(#aM)" d="M216.482 137.334a.16.16 0 0 1-.096.144l-2.351 1.072a.7.7 0 0 1-.561.01l-3.325-1.414a.17.17 0 0 1-.1-.123.166.166 0 0 1 .099-.181l2.33-1.085a.6.6 0 0 1 .478-.01l3.429 1.446a.15.15 0 0 1 .097.141"/><path fill="url(#aN)" d="M177.393 133.04c0 .416-.232.833-.693 1.047l-17.038 7.763c-.544.25-1.124.4-1.71.444a4.96 4.96 0 0 1-2.354-.377l-24.08-10.243a1.19 1.19 0 0 1-.727-.888c-.086-.5.152-1.05.715-1.313l16.88-7.863a4.3 4.3 0 0 1 3.468-.072l24.837 10.474c.373.155.597.451.669.776a1 1 0 0 1 .033.252"/><path fill="url(#aO)" d="M233.77 99.046c0 2.401-1.611 4.577-4.35 6.32l-8.275-3.097c1.5-.95 2.37-2.156 2.37-3.494 0-3.446-5.961-6.408-13.291-6.602-4.24-.112-8.034.723-10.46 2.126l-8.256-3.078c4.294-2.545 11.088-4.072 18.714-3.87 13.015.343 23.548 5.571 23.548 11.695" opacity=".5"/><path fill="#fff" d="M210.221 88.14c-12.07-.318-21.862 4.025-21.862 9.71 0 5.683 9.794 10.561 21.862 10.878 12.089.319 21.882-4.025 21.882-9.727-.001-5.683-9.793-10.543-21.882-10.862m0 18.958c-10.181-.268-18.418-4.354-18.418-9.157 0-4.786 8.237-8.455 18.418-8.187 10.182.268 18.438 4.372 18.438 9.158-.001 4.802-8.256 8.454-18.438 8.186" opacity=".5"/><path fill="url(#aP)" d="M210.22 84.04c-16.875-.444-30.568 5.63-30.568 13.576s13.692 14.766 30.568 15.211c16.902.446 30.593-5.628 30.593-13.6 0-7.947-13.691-14.74-30.593-15.187m0 26.506c-14.235-.374-25.752-6.087-25.752-12.803 0-6.691 11.517-11.822 25.752-11.446 14.235.374 25.778 6.112 25.778 12.803 0 6.717-11.543 11.821-25.778 11.446" opacity=".5"/><g opacity=".71"><path fill="url(#aQ)" d="M244.15 102.519c-.517 1.206-1.34 2.349-2.4 3.426l3.533.986c1.222-1.22 2.181-2.515 2.776-3.885z"/><path fill="url(#aR)" d="M238.734 89.953a20 20 0 0 1 2.873 2.466l3.931-.395a21.6 21.6 0 0 0-3.254-2.88z"/><path fill="url(#aS)" d="m246.577 93.308-3.878.39c.812 1.065 1.399 2.173 1.742 3.313l4.047.107c-.354-1.313-1.004-2.585-1.911-3.81"/><path fill="url(#aT)" d="M232.5 86.558a36 36 0 0 1 4.625 2.341l3.558-.81a38.5 38.5 0 0 0-5.249-2.737z"/><path fill="url(#aU)" d="m244.124 108.026-3.538-.987c-1.186.987-2.614 1.893-4.219 2.721l2.967 1.353c1.824-.938 3.447-1.965 4.79-3.087"/><path fill="url(#aV)" d="M234.786 110.537c-6.272 2.806-14.962 4.414-24.571 4.161-19.114-.504-34.577-8.174-34.577-17.19 0-8.984 15.464-15.874 34.577-15.37 7.64.201 14.681 1.567 20.406 3.69l2.97-1.22c-6.492-2.5-14.576-4.11-23.375-4.34-21.301-.562-38.583 7.104-38.583 17.135s17.282 18.638 38.583 19.199c10.79.284 20.533-1.541 27.539-4.712z" opacity=".5"/><path fill="url(#aW)" d="m248.73 98.499-4.003-.105c.038.312.1.62.1.936 0 .634-.095 1.254-.245 1.864l3.909.528c.201-.748.339-1.506.339-2.285 0-.317-.066-.626-.1-.938"/></g><path fill="url(#aX)" d="M221.146 102.27c-2.406 1.569-6.405 2.527-10.921 2.408-7.331-.192-13.274-3.136-13.274-6.601 0-1.449 1.056-2.759 2.814-3.776l-8.256-3.077c-3.017 1.772-4.814 4.053-4.814 6.583 0 6.123 10.534 11.369 23.528 11.712 7.924.209 14.921-1.44 19.198-4.152z" opacity=".5"/><path fill="url(#aY)" d="m209.543 98.417.625 31.727s5.983 2.357 21.385-.958 25.484-11.265 25.484-11.265z" opacity=".5"/><path fill="#fff" d="m209.544 98.416-41.499 12.531s-2.691-4.454-3.421-8.864c-.73-4.408.546-5.786.546-5.786z" opacity=".5"/><path fill="url(#aZ)" d="m192.118 89.322-21.552-8.712s11.718-8.664 36.911-8.255l.58.01-1.768 13.97s-7.892 1.007-14.171 2.987" opacity=".5"/><path fill="url(#ba)" d="M211.148 30.408c-2.942-.869-3.447 3.423-3.362 6.523s1.855 4.079 1.855 4.079l.109 1.184s-4.03-1.143-5.543-1.004-4.455 12.736-4.455 12.736-.415 6.872-1.087 9.042c-.673 2.17.439 4.188 1.195 4.951.757.763.139-1.24.307-2.534.168-1.291 1.092-1.403 1.092-.321 0 1.081.252 1.558.252 1.558s1.177-1.301 1.092-3.402c-.083-2.101.026-6.377.951-9.402.925-3.026 1.685-5.265 1.685-5.265s.21 10.656-.547 14.72c-.756 4.065-1.164 16.649-1.164 16.649s1.009 7.03.84 10.737.084 5.264-1.177 6.295c-1.26 1.032-2.521 1.064-.672 2.254 1.848 1.191 3.613.53 4.706-.625 1.093-1.154 1.093-1.57.841-2.712-.253-1.143.335-5.877.672-9.793.336-3.916-.672-6.238-.672-6.238l3.025-10.266s-.168 9.782.925 11.624 1.849 5.853 1.765 8.913.007 7.327.007 7.327-3.116 3.668-1.268 4.359 2.522 2.682 4.287-.392c1.765-3.075.925-3.026.756-4.648-.168-1.622.695-6.993.347-11.737-.347-4.745-.684-5.74-.684-5.74s-.084-10.676.169-15.61c.252-4.934 1.177-11.54 1.177-11.54s1.512 5.771 2.017 10.554c.504 4.782-.421 6.56-.673 8.414s.168 2.787.168 2.787.549.63.653-1.093.352-2.005.856-.138c.504 1.869-1.349 2.673-.761 3.23s2.89 1.676 3.478-.431c.588-2.108-.445-4.495-.36-7.222.084-2.726-.336-19.642-2.437-21.059-2.099-1.416-6.113-3.256-6.113-3.256s-.218-1.807-.05-2.35c.169-.542 2.438-2.248 1.429-6.568s-5.631-4.59-5.631-4.59" opacity=".5"/><g opacity=".78"><path fill="#fff" d="M239.271 51.604v25.95l-1.759-1.079V50.527z"/><path fill="url(#bb)" d="M239.271 61.082v16.472l-1.759-1.078V59.99z"/><path fill="#fff" d="M243.58 53.514v25.95l-1.76-1.078v-25.95z"/><path fill="url(#bc)" d="M243.58 66.987v12.477l-1.76-1.079V65.898z"/><path fill="#fff" d="M247.888 55.424v25.95l-1.759-1.078v-25.95z"/><path fill="url(#bd)" d="M247.888 73.483v7.892l-1.759-1.079v-7.902z"/></g><path fill="url(#be)" d="m180.746 40.466 1.016.457v-1.495l-1.016-.457z"/><path fill="url(#bf)" d="m183.438 40.378 1.016.458v-1.495l-1.016-.458z"/><path fill="url(#bg)" d="m183.438 42.629 1.016.458v-1.495l-1.016-.458z"/><path fill="url(#bh)" d="m186.137 40.29 1.016.458v-1.496l-1.016-.457z"/><path fill="url(#bi)" d="m186.137 42.541 1.016.457v-1.495l-1.016-.457z"/><path fill="url(#bj)" d="m186.137 44.791 1.016.457v-1.495l-1.016-.457z"/><path fill="url(#bk)" d="m188.828 37.951 1.016.458v-1.495l-1.016-.458z"/><path fill="url(#bl)" d="m188.828 40.202 1.016.458v-1.495l-1.016-.458z"/><path fill="url(#bm)" d="m188.828 42.452 1.016.458v-1.495l-1.016-.458z"/><path fill="url(#bn)" d="m188.828 44.703 1.016.459v-1.495l-1.016-.459z"/><path fill="url(#bo)" d="m188.828 46.954 1.016.459v-1.495l-1.016-.459z"/><path fill="url(#bp)" d="m237.273 87.844 1.017.457v-1.495l-1.017-.457z"/><path fill="url(#bq)" d="m239.965 87.756 1.015.457v-1.495l-1.015-.457z"/><path fill="url(#br)" d="m239.965 90.007 1.015.457V88.97l-1.015-.457z"/><path fill="url(#bs)" d="m242.664 87.668 1.016.457V86.63l-1.016-.457z"/><path fill="url(#bt)" d="m242.664 89.919 1.016.457v-1.495l-1.016-.457z"/><path fill="url(#bu)" d="m242.664 92.17 1.016.457v-1.495l-1.016-.457z"/><path fill="url(#bv)" d="m245.355 85.33 1.017.457V84.29l-1.017-.457z"/><path fill="url(#bw)" d="m245.355 87.58 1.017.457v-1.495l-1.017-.457z"/><path fill="url(#bx)" d="m245.355 89.83 1.017.457v-1.495l-1.017-.457z"/><path fill="url(#by)" d="m245.355 92.081 1.017.457v-1.495l-1.017-.457z"/><path fill="url(#bz)" d="m245.355 94.332 1.017.458v-1.496l-1.017-.457z"/><g opacity=".4"><path fill="url(#bA)" d="m180.746 51.997 1.016.458v-1.496l-1.016-.457z"/><path fill="url(#bB)" d="m183.438 51.91 1.016.457v-1.495l-1.016-.458z"/><path fill="url(#bC)" d="m183.438 54.16 1.016.458v-1.495l-1.016-.458z"/><path fill="url(#bD)" d="m186.137 51.821 1.016.458v-1.495l-1.016-.458z"/><path fill="url(#bE)" d="m186.137 54.072 1.016.458v-1.495l-1.016-.458z"/><path fill="url(#bF)" d="m186.137 56.322 1.016.458v-1.495l-1.016-.458z"/><path fill="url(#bG)" d="m188.828 49.482 1.016.459v-1.495l-1.016-.459z"/><path fill="url(#bH)" d="m188.828 51.733 1.016.459v-1.495l-1.016-.459z"/><path fill="url(#bI)" d="m188.828 53.984 1.016.458v-1.495l-1.016-.458z"/><path fill="url(#bJ)" d="m188.828 56.235 1.016.458v-1.495l-1.016-.458z"/><path fill="url(#bK)" d="m188.828 58.486 1.016.458v-1.495l-1.016-.458z"/></g><path fill="url(#bL)" d="M34.121 90.006h8.902c4.89-1.858 11.411-2.992 18.573-2.992s13.683 1.134 18.574 2.992h8.903v7.711h-.051c.03.22.05.441.05.664 0 6.278-12.302 11.368-27.476 11.368s-27.475-5.089-27.475-11.368c0-.223.02-.443.05-.664h-.05z"/><path fill="url(#bM)" d="M61.596 101.705c15.175 0 27.476-5.09 27.476-11.368S76.77 78.97 61.596 78.97s-27.475 5.09-27.475 11.367 12.301 11.368 27.475 11.368"/><path fill="url(#bN)" d="M61.594 96.963c8.846 0 16.016-2.966 16.016-6.626s-7.17-6.626-16.016-6.626-16.016 2.967-16.016 6.626 7.17 6.626 16.016 6.626"/><path fill="url(#bO)" d="M84.023 49.1s4.93 11.488 6.402 11.56c1.471.073 8.83-14.93 8.83-14.93s1.913 3.488 4.047 3.853c2.135.365 4.342.073 4.342.073S96.312 71.027 90.278 72.403 71.332 60.588 71.332 60.588l4.155-6.705z"/><path fill="url(#bP)" d="M77.327 38.006s4.719.3 7.066 4.799c1.073 2.056 1.639 3.83 1.939 5.151.332 1.465-.21 2.987-1.38 3.945-2.414 1.982-6.784 5.35-9.116 5.794-2.741.523-10.803-14.899-8.261-19.974.549-1.095 8.928.404 9.752.285"/><path fill="url(#bQ)" d="M76.97 42.092s.001 11.414-2.193 24.904c-2.087 12.828-4.524 24.23-12.216 26.86-7.69 2.63-16.615-5.548-19.91-12.892-3.297-7.345-4.722-31.631-2.916-34.95 1.808-3.318 37.235-3.922 37.235-3.922"/><path fill="url(#bR)" d="M53.247 37.767 39.309 45.73s11.908 7.993 15.065 7.773S76.86 43.19 76.972 42.093c.11-1.097-8.304-4.988-8.304-4.988z"/><path fill="url(#bS)" d="M45.438 42.228s11.64 7.241 12.703 6.858c1.064-.383 14.048-6.73 14.213-7.442.166-.712-14.917-6.238-14.917-6.238z"/><path fill="url(#bT)" d="M33.522 62.57s-.227 9.029.492 9.8c.718.77 11.043 10.974 11.043 10.974s1.386-.002 4.799-.773c3.412-.77 5.508-2.964 5.508-2.964s-9.518-9.13-9.878-10.375.325-7.314.325-7.314-5.634 2.53-12.289.652"/><path fill="url(#bU)" d="M41.011 48.007s-4.064-1.387-7.375 2.202c-3.309 3.59-2.758 9.911-2.758 9.911s.35 4.883 6.182 5.29c2.604.182 5.23-.188 7.338-.653 2.68-.59 4.435-3.14 3.98-5.823-.714-4.224-2.568-10.013-7.367-10.927"/><path fill="url(#bV)" d="M59.25 79.326s-.13-2.101.172-3.173c.304-1.072 1.213-1.459 1.213-1.459s1.43 3.988.823 6.348c-.606 2.358-3.075 4.246-6.062 4.03-2.988-.213-4.244 1.93-6.453 1.202-2.208-.729-2.944-5.318-2.077-6.475.866-1.159 2.078-.772 2.858-1.33.78-.557 2.815-2.1 3.507-1.844.692.258 2.339-1.501 3.075-.944.735.557 2.944 3.645 2.944 3.645"/><path fill="url(#bW)" d="M48.43 78.56c-.47-.154-2.518.918-1.829 1.903.69.985 1.359 2.371 1.849 2.367s1.734-.602 1.244-1.443c-.49-.84-1.264-2.827-1.264-2.827"/><path fill="url(#bX)" d="M50.774 76.928c-.439-.2-2.55.91-1.982 1.884.57.974 1.314 2.706 1.766 2.706s2.29-.34 1.931-1.217c-.357-.877-1.47-3.261-1.715-3.373"/><path fill="url(#bY)" d="M53.187 75.75c-.565-.168-2.617.713-1.919 1.777s1.348 2.572 1.743 2.74c.396.168 2.85-.27 2.266-1.576s-2.09-2.94-2.09-2.94"/><path fill="url(#bZ)" d="M33.49 66.445s-1.895 3.332-.655 6.432 4.31 3.877 5.077 2.932.224-3.05 1.736-3.692 6.519-1.897 6.519-1.897l-.782-2.43s-7.178 1.637-8.122 1.404c-.945-.235-2.409-2.984-3.773-2.75"/><path fill="url(#ca)" d="M88.988 59.116s-3.082 5.872-5.192 6.618c-2.108.746-5.196.746-5.949 1.492s1.582 5.22 7.832 6.115 9.922-1.547 9.865-3.281-2.109-2.387-2.787-4.699-.547-6.676-.547-6.676z"/><path fill="url(#cb)" d="M99.545 46.722s-.084 1.894 2.762 3.144c2.846 1.249 4.446.652 4.446.652s3.26-2.428 4.634-3.795c1.373-1.367 2.184-4.468-.034-6.25-1.199-.965-2.524-2.752-2.524-2.752s.687-1.68 2.307-3.185c2.25-2.089 3.527-1.919 3.698-2.542.172-.623-.454-2.167-.454-2.167s-5.491 3.009-6.13 3.519-4.987 5.609-4.987 5.609 1.946-1.81 1.83-3.001c-.114-1.192-1.43-1.928-1.43-1.928s-3.947 4.646-4.119 5.836c-.17 1.186.001 6.86.001 6.86"/><path fill="url(#cc)" d="M108.83 37.72s-4.229 2.192-4.46 2.455c-.232.263-1.923 3.545-1.823 3.906.099.36 2.917 3.38 4.905 3.512 1.989.131 1.657-2.56 2.95-3.446 1.292-.886 2.551-1.017 2.551-1.017s.597-1.74-.165-2.265-1.591-.182-1.591-.182.762-.869.033-1.394c-.73-.525-1.624-.295-1.624-.295s.238-.937-.776-1.273"/><path fill="url(#cd)" d="M48.847 29.012s.542 5.59.272 8.92c-.272 3.333-.814 3.887-.814 3.887s3.364 4.443 8.681 4.443 7.522-3.816 7.522-3.816v-5.051z"/><path fill="url(#ce)" d="M76.954 17.929c0 3.214-3.056 6.377-6.302 5.04s-7.14-6-7.14-9.214 4.32-5.403 7.566-4.066 5.876 5.026 5.876 8.24"/><path fill="url(#cf)" d="M74.721 19.49c0 3.214-2.63 4.736-5.876 3.4-3.245-1.337-5.876-5.027-5.876-8.241s2.63-4.736 5.876-3.4c3.245 1.337 5.876 5.026 5.876 8.241"/><path fill="url(#cg)" d="M71.855 18.31c0 1.648-1.349 2.427-3.011 1.742-1.664-.685-3.012-2.575-3.012-4.223s1.349-2.427 3.012-1.743c1.662.686 3.011 2.577 3.011 4.224"/><path fill="url(#ch)" d="M41.895 11.878s-1.267 1.49-1.03 6.352c.239 4.862 1.03 7.684 1.03 7.684s7.442 5.567 9.342 10.35c1.9 4.784 3.246 9.802 10.371 9.566s11.796-3.998 12.43-7.056 0-26.42 0-26.42-1.41-1.943-5.348-3.513C65.067 7.396 57.096 5.762 52.425 6.39c-4.671.627-10.53 5.488-10.53 5.488"/><path fill="url(#ci)" d="m73.07 11.84-12.898 6.836-6.781-2.666-10.582-4.17c6.235-4.512 9.473-5.387 10.582-5.547.313-.047.457-.04.457-.04C68.08 7.216 73.07 11.84 73.07 11.84"/><path fill="url(#cj)" d="m73.837 17.433-14.88 7.715a1.88 1.88 0 0 0-1.02 1.67v6.545c0 .61 1.694 1.983 2.242 1.702l14.382-8.881c.387-.199.627-.597.62-1.029l1.219-6.578c-.01-.629-2-1.436-2.563-1.144"/><path fill="url(#ck)" d="M75.32 18.324 60.442 26.04a1.88 1.88 0 0 0-1.02 1.67v6.545a.822.822 0 0 0 1.2.724l15.425-7.903c.386-.198.627-.596.62-1.028l-.097-6.989a.853.853 0 0 0-1.248-.734"/><path fill="url(#cl)" d="M63.913 30.537c-.3.129-.546-.01-.546-.307V27.47c0-.297.246-.646.546-.775.3-.13.545.009.545.307v2.76c.001.297-.244.645-.545.773"/><path fill="url(#cm)" d="M72.737 26.188c-.3.129-.546-.009-.546-.307v-2.759c0-.297.246-.645.546-.775.3-.129.546.009.546.307v2.76c0 .296-.245.645-.546.774"/><path stroke="#B3B3B3" stroke-miterlimit="10" stroke-width=".027" d="M64.46 45.534v-6.146a3.37 3.37 0 0 1 1.762-2.953l8.1-4.425"/><path fill="url(#cn)" d="M56.345 29.806c0 3.214-3.056 6.377-6.302 5.04s-7.14-6-7.14-9.214 4.32-5.403 7.566-4.066 5.876 5.026 5.876 8.24"/><path fill="url(#co)" d="M54.112 31.367c0 3.214-2.631 4.736-5.876 3.4-3.245-1.337-5.877-5.027-5.877-8.241s2.631-4.736 5.877-3.4c3.245 1.337 5.876 5.027 5.876 8.241"/><path fill="url(#cp)" d="M51.246 30.188c0 1.648-1.349 2.427-3.012 1.742s-3.011-2.575-3.011-4.223 1.348-2.427 3.011-1.743c1.663.685 3.012 2.576 3.012 4.224"/><path fill="url(#cq)" d="m76.421 49.46-17.448 9.048a2.2 2.2 0 0 0-1.196 1.956v7.676c0 .716.765 1.177 1.407.848l18.086-9.266c.454-.233.736-.7.727-1.206l-.113-8.194c-.012-.738-.803-1.203-1.463-.861"/><path fill="url(#cr)" d="m78.027 50.209-17.449 9.047a2.21 2.21 0 0 0-1.195 1.956v7.676c0 .716.765 1.176 1.406.848l18.087-9.266c.454-.233.735-.7.727-1.206l-.113-8.194c-.013-.737-.805-1.203-1.463-.861"/><path fill="#FDFDFD" d="M61.186 61.313 67 58.233c.106-.056.194-.189.194-.294 0-.106-.088-.145-.194-.09l-5.814 3.08c-.107.057-.194.19-.194.295 0 .107.087.146.194.09M68.053 57.678l5.814-3.08c.107-.057.194-.19.194-.295s-.087-.145-.194-.09l-5.814 3.08c-.107.057-.194.19-.194.295 0 .107.087.147.194.09M62.51 61.833l5.814-3.08c.107-.057.194-.19.194-.295s-.087-.145-.194-.089l-5.814 3.08c-.107.057-.194.189-.194.294 0 .107.087.147.194.09M69.377 58.197l3.453-1.815c.106-.057.193-.19.193-.295s-.087-.145-.193-.089l-3.453 1.815c-.106.057-.193.19-.193.295 0 .106.087.146.193.089M63.83 62.351l5.815-3.08c.106-.056.193-.188.193-.294s-.087-.145-.193-.09l-5.815 3.08c-.106.057-.193.19-.193.295-.001.107.086.146.193.09M70.697 58.716l5.815-3.08c.106-.057.193-.19.193-.295s-.087-.145-.193-.09l-5.815 3.08c-.106.057-.193.19-.193.295-.001.107.087.147.193.09M64.623 63.3l5.814-3.079c.107-.057.194-.19.194-.295s-.087-.145-.194-.09l-5.814 3.08c-.106.057-.193.19-.193.295 0 .107.087.147.193.09M71.49 59.665l5.815-3.08c.106-.057.193-.19.193-.294 0-.106-.087-.146-.193-.09l-5.815 3.08c-.106.057-.193.19-.193.294 0 .107.087.147.193.09M63.15 65.557l5.815-3.08c.106-.057.193-.19.193-.295s-.087-.145-.193-.09l-5.815 3.08c-.106.057-.193.19-.193.295-.001.106.087.145.194.09M70.018 61.92l5.814-3.08c.107-.057.194-.19.194-.295s-.087-.145-.194-.089l-5.814 3.08c-.107.056-.194.189-.194.294 0 .106.087.146.194.09M62.51 67.225l5.814-3.08c.107-.056.194-.188.194-.294s-.087-.145-.194-.09l-5.814 3.08c-.107.057-.194.19-.194.295 0 .106.087.147.194.09M69.377 63.59l3.85-2.046c.106-.057.193-.19.193-.295s-.087-.145-.194-.089l-3.849 2.045c-.106.057-.193.19-.193.295 0 .106.087.147.193.09" opacity=".69"/><g opacity=".79"><path fill="url(#cs)" d="m87.395 35.658 31.445-12.201 7.855 34.811-31.444 12.2z"/><path fill="#E57070" d="M111.597 32.39s-.937-4.621 2.966-4.613c2.855.006 5.517 4.164 3.634 10.353s-3.52 7.135-3.52 7.135-7.401-2.352-9.689-8.142 2.542-9.418 6.609-4.733"/><path stroke="#fff" stroke-miterlimit="10" stroke-width=".109" d="m120.156 35.352-6.323 3.264-2.797-2.768 1.119 7.346-2.389-4.02-4.711 2.216"/><path fill="#fff" d="m119.211 47.322 1.725-.758.431 1.93-1.725.758zM116.414 48.404l1.726-.758.43 1.93-1.724.758zM113.613 49.485l1.725-.757.431 1.93-1.725.757zM110.816 50.566l1.726-.757.431 1.93-1.725.757zM108.016 51.648l1.724-.757.432 1.93-1.726.757zM119.707 50.137l1.726-.758.43 1.93-1.725.757zM116.906 51.218l1.725-.757.431 1.929-1.725.758zM114.109 52.299l1.726-.758.431 1.93-1.725.758zM111.312 53.38l1.725-.757.432 1.93-1.726.758zM108.512 54.463l1.724-.758.432 1.93-1.725.757zM120.211 52.951l1.725-.757.431 1.93-1.726.757zM117.406 54.033l1.726-.758.43 1.93-1.724.758zM114.613 55.114l1.725-.758.431 1.93-1.725.758zM111.812 56.196l1.725-.758.432 1.93-1.725.757zM109.012 57.277l1.726-.757.43 1.93-1.725.757zM120.703 55.766l1.726-.758.43 1.93-1.724.758zM117.906 56.848l1.725-.758.431 1.93-1.725.758zM115.105 57.93l1.725-.758.432 1.93-1.725.757zM112.309 59.01l1.725-.757.431 1.929-1.725.758zM109.508 60.092l1.725-.758.431 1.93-1.726.758zM90 38.601l10.008-3.779.216.99-10.008 3.78zM90.508 41.366l10.007-3.78.215.99-10.007 3.78zM91.016 44.13l10.007-3.778.215.99-10.007 3.779zM95.512 45.337l6.018-2.222.216.99-6.02 2.222zM92.207 51.3l10.007-3.778.215.99-10.007 3.779zM92.71 54.065l10.008-3.779.215.99-10.007 3.78zM93.223 56.83l10.007-3.78.215.991-10.007 3.78zM97.719 58.036l6.018-2.221.216.99-6.02 2.221z" opacity=".5"/></g><g opacity=".79"><path fill="url(#ct)" d="m43.29 77.302 31.444-12.2 7.857 34.81-31.445 12.2z"/><path fill="#fff" d="m50.127 84.743 21.828-8.649c.38-.15.608-.62.504-1.045s-.498-.647-.879-.496l-21.828 8.649c-.38.15-.608.62-.504 1.045s.498.647.879.496M51.135 88.89l21.828-8.65c.38-.15.608-.62.504-1.044s-.499-.647-.879-.496L50.76 87.348c-.38.15-.608.621-.505 1.045s.5.647.88.496M52.146 93.034l21.829-8.649c.38-.15.607-.62.504-1.045s-.499-.647-.88-.496l-21.828 8.649c-.38.15-.607.62-.504 1.045.102.423.498.647.88.496M53.15 97.18l21.829-8.65c.38-.15.607-.62.504-1.044s-.499-.647-.88-.496l-21.828 8.648c-.38.15-.607.621-.504 1.045s.499.647.88.496M54.162 101.325l21.828-8.649c.38-.15.608-.62.505-1.045-.104-.424-.5-.647-.88-.496l-21.828 8.649c-.38.15-.608.621-.504 1.045.102.424.498.647.879.496"/></g><path fill="url(#cu)" d="m97.903 71.172 27.013-10.481c1.358-.527 2.868.269 3.188 1.677l9.225 40.704a2.39 2.39 0 0 1-1.476 2.751l-26.803 10.399c-1.427.553-3.016-.283-3.352-1.763l-9.212-40.648a2.29 2.29 0 0 1 1.417-2.639" opacity=".75"/><path fill="#E2DCDC" d="m103.004 79.344 21.44-8.319.273 1.092-21.44 8.318zM103.664 82.66l21.44-8.32.273 1.092-21.439 8.318zM104.324 85.975l21.441-8.32.272 1.092-21.439 8.319zM104.984 89.29l21.441-8.318.273 1.09-21.44 8.32zM105.641 92.605l21.44-8.318.273 1.091-21.439 8.319zM115.043 92.605l12.699-5.003.273 1.091-12.699 5.003zM126.384 71.9c.432 0 .783-.391.783-.875 0-.483-.351-.875-.783-.875s-.782.392-.782.875c0 .484.35.876.782.876M127.169 75.215c.432 0 .783-.392.783-.875s-.351-.875-.783-.875-.782.392-.782.875.35.875.782.875M127.95 78.53c.433 0 .783-.391.783-.875 0-.483-.35-.875-.783-.875-.432 0-.782.392-.782.875 0 .484.35.876.782.876M128.736 81.847c.432 0 .782-.392.782-.875s-.35-.875-.782-.875-.783.392-.783.875.35.875.783.875M129.517 85.162c.432 0 .782-.392.782-.875s-.35-.875-.782-.875-.783.392-.783.875.351.875.783.875"/><path fill="url(#cv)" d="m84.87 156.588-2.265.316-16.67-7.849a4.44 4.44 0 0 0-3.728-.027l-32.741 15.26-4.044.562v2.276l.02.009c.05.411.284.803.725 1.009l18.318 8.43c.585.271 1.209.43 1.84.471a5.2 5.2 0 0 0 2.53-.459l35.216-16.522c.449-.206.71-.594.781-1.006.013-.077.002-.154.002-.232l.017-.006z"/><path fill="url(#cw)" d="M25.422 164.85c0 .465.25.93.745 1.163l18.318 8.43c.585.27 1.209.429 1.84.47a5.2 5.2 0 0 0 2.53-.458l35.216-16.523a1.354 1.354 0 0 0 .012-2.466l-18.149-8.544a4.44 4.44 0 0 0-3.727-.027l-36.03 16.793a1.23 1.23 0 0 0-.718.879 1 1 0 0 0-.037.283"/><path fill="url(#cx)" d="m83.681 156.307-6.737-3.172a.57.57 0 0 0-.435-.024l-.994.341c-.32.11-.67.088-.974-.06l-5.709-2.663a.197.197 0 0 1 .009-.362l.828-.338a.172.172 0 0 0 .009-.316l-4.145-1.952a3.5 3.5 0 0 0-1.49-.333c-.5 0-.986.105-1.443.312l-36.026 16.791q-.164.074-.194.226l-.01.04a.337.337 0 0 0 .201.371l18.311 8.427a4.25 4.25 0 0 0 1.815.398c.613 0 1.207-.131 1.762-.386l35.214-16.521a.42.42 0 0 0 .252-.32.42.42 0 0 0-.244-.459"/><path fill="url(#cy)" d="m70.235 169.197-.231-1.347c11.592-1.957 16.876-5.711 20.734-8.453l.295-.209.804 1.109-.295.209c-3.968 2.82-9.4 6.681-21.307 8.691"/><path fill="url(#cz)" d="m40.034 155.889-1.276-.519c.145-.352 3.663-8.677 11.99-14.278l.775 1.13c-7.987 5.372-11.456 13.584-11.49 13.667"/><path fill="url(#cA)" d="m79.228 142.506-.654-1.202 7.857-4.193a2.45 2.45 0 0 0 1.325-2.272 2.45 2.45 0 0 0-1.456-2.192l-23.853-11a11.08 11.08 0 0 0-9.19-.042l-31.87 14.346a9.86 9.86 0 0 1-7.627.178l-10.338-4.086c-1.32-.521-2.141-1.719-2.145-3.126-.003-1.407.813-2.608 2.13-3.135l12.517-5.01a2.23 2.23 0 0 0 1.425-2.023c.022-.712-.307-1.64-1.296-2.108l-4.875-2.31.595-1.232 4.875 2.308c1.328.629 2.125 1.925 2.079 3.382s-.922 2.702-2.287 3.248l-12.516 5.009c-.937.375-1.27 1.21-1.269 1.867.002.656.337 1.489 1.276 1.861l10.339 4.086a8.46 8.46 0 0 0 6.546-.152l31.87-14.346a12.47 12.47 0 0 1 10.341.047l23.853 11a3.84 3.84 0 0 1 2.253 3.39 3.84 3.84 0 0 1-2.05 3.515z"/><path fill="url(#cB)" d="M11.718 118.624c4.569 0 8.273-1.742 8.273-3.892s-3.704-3.892-8.273-3.892-8.273 1.742-8.273 3.892 3.704 3.892 8.273 3.892"/><path fill="url(#cC)" d="M39.395 156.79c2.481 0 4.493-.947 4.493-2.114 0-1.168-2.011-2.114-4.493-2.114-2.481 0-4.493.946-4.493 2.114s2.012 2.114 4.493 2.114"/><path fill="url(#cD)" d="M70.676 170.638c2.482 0 4.493-.946 4.493-2.114s-2.011-2.114-4.493-2.114c-2.48 0-4.492.947-4.492 2.114 0 1.168 2.011 2.114 4.492 2.114"/><path fill="url(#cE)" d="M91.437 160.883c-.357 0-.71-.165-.934-.476a1.13 1.13 0 0 1 .265-1.588c1.964-1.394 2.968-3.656 2.685-6.052-.289-2.448-1.83-4.465-4.123-5.396l-20.915-8.496a9.7 9.7 0 0 0-4.724-.662c-4.29.481-8.297 1.957-11.909 4.386a1.155 1.155 0 0 1-1.595-.302 1.13 1.13 0 0 1 .305-1.58c3.922-2.638 8.277-4.242 12.942-4.765a12.04 12.04 0 0 1 5.853.818l20.916 8.496c3.077 1.249 5.146 3.955 5.534 7.237.38 3.231-.976 6.284-3.63 8.167-.204.143-.438.213-.67.213"/><path fill="url(#cF)" d="M11.718 117.608c4.569 0 8.273-1.743 8.273-3.893s-3.704-3.892-8.273-3.892-8.273 1.743-8.273 3.892 3.704 3.893 8.273 3.893"/><path fill="url(#cG)" d="M11.718 115.14c2.332 0 4.223-.89 4.223-1.987s-1.89-1.987-4.223-1.987c-2.332 0-4.222.89-4.222 1.987s1.89 1.987 4.222 1.987"/><path fill="#F79999" d="M58.978 137.292s1.271-10.881-7.137-10.865c-6.151.013-11.139 9.896-7.082 23.229 2.78 9.137 3.507 12.925 4.825 14.432.605.692 2.758.94 2.758.94s15.943-5.066 20.87-17.539c4.93-12.472-5.474-20.287-14.234-10.197"/><path fill="#E57070" d="M56.606 136.397s2.018-9.953-6.39-9.936c-6.152.013-11.886 8.968-7.829 22.301s7.583 15.372 7.583 15.372 15.943-5.065 20.87-17.538c4.93-12.473-5.474-20.289-14.234-10.199"/><path stroke="#fff" stroke-miterlimit="10" stroke-width=".761" d="m38.168 142.778 13.622 7.032 6.023-5.965-2.41 15.826 5.148-8.661 10.148 4.776"/><path fill="#3AA9A6" d="m175.14 61.82-26.175-13.584v28.341l26.175 13.585z" opacity=".5"/><path fill="#fff" d="m153.144 75.521-.964-.512v-8.744l.964.512zM155.229 76.632l-.963-.514V62.32l.963.513zM157.316 77.742l-.964-.513V65.627l.964.513zM159.404 78.852l-.963-.512v-9.785l.963.512zM161.494 79.962l-.963-.512V65.353l.963.512zM163.58 81.073l-.963-.512V64.183l.963.512zM165.666 82.184l-.963-.512v-12.66l.963.512zM167.753 83.293l-.964-.512v-17.27l.964.513zM169.838 84.405l-.963-.513V63.4l.963.513zM171.929 85.515l-.964-.513V62.85l.964.513z"/><path fill="url(#cH)" d="M190.528 32.096 127.613-.046v33.049l62.915 32.141z"/><path fill="#E57070" d="m148.111 23.838-5.218-2.59v-5.167l-6.037-2.993v5.168l-5.219-2.588v5.98l5.219 2.587v5.169l6.037 2.993v-5.169l5.218 2.589z"/><path fill="#fff" d="m184.154 38.23-29.776-14.764c-.47-.233-.855-.804-.855-1.27 0-.464.385-.655.855-.421l29.775 14.764c.469.233.854.804.854 1.27 0 .464-.384.654-.853.421M184.153 43.173l-29.775-14.765c-.47-.233-.855-.804-.855-1.269s.385-.655.855-.422l29.775 14.765c.469.232.854.804.854 1.269-.001.465-.385.654-.854.422M184.153 48.115 154.378 33.35c-.47-.232-.855-.804-.855-1.269s.385-.655.855-.422l29.775 14.765c.469.233.854.804.854 1.27-.001.464-.385.653-.854.421M172.307 47.185l-17.929-8.891c-.47-.233-.855-.804-.855-1.27 0-.464.385-.655.855-.421l17.929 8.89c.469.233.854.805.854 1.27-.001.465-.385.654-.854.422"/><path fill="#00344A" d="m262.831 59.675-34.269-18.888v39.224l34.269 18.887z" opacity=".5"/><path fill="#fff" d="m238.315 76.08-1.17-.647V64.81l1.17.647zM240.85 77.482l-1.17-.647V60.066l1.17.647zM243.389 78.883l-1.17-.647V64.139l1.17.647zM245.92 80.285l-1.17-.647v-11.89l1.17.647zM248.46 81.686l-1.171-.647V63.91l1.171.647zM250.995 83.088l-1.171-.647v-19.9l1.171.647zM253.53 84.49l-1.171-.648V68.46l1.171.646zM256.069 85.89l-1.171-.646V64.26l1.171.647z"/><path fill="#fff" d="M258.517 90.44 234.75 77.556v-28.31h.327v28.117l23.598 12.792z"/><path fill="#fff" d="M232.727 49.68v.372l2.107 1.161.159-.283zM232.727 52.278v.372l2.107 1.162.159-.284zM232.727 54.877v.371l2.107 1.162.159-.284zM232.727 57.475v.371l2.107 1.161.159-.283zM232.727 60.071v.372l2.107 1.162.159-.284zM232.727 62.67v.371l2.107 1.162.159-.285zM232.727 65.267v.371l2.107 1.162.159-.284zM232.727 67.864v.372l2.107 1.162.159-.284zM232.727 70.462v.371l2.107 1.162.159-.285zM232.727 73.06v.37l2.107 1.163.159-.284zM232.727 75.657v.373l2.107 1.161.159-.284z"/><path fill="url(#cI)" d="M226.327 132.956a1.98 1.98 0 0 1-1.081-1.738v-46.19c0-.08.017-.14.059-.196.094-.136.224-.2.349-.194q.082.005.172.05l56.821 29.24c.322.166.556.471.623.816l.025.113a.6.6 0 0 1 .017.141v47.283z" opacity=".72"/><path fill="url(#cJ)" d="m227.559 117.421 52.65 26.48V115.48l-52.65-26.479z"/><path fill="#fff" d="m233.66 125.898 40.45 20.344v-1.917l-40.45-20.344zM233.66 130.234l21.219 10.632v-1.917l-21.219-10.633z" opacity=".4"/><g stroke="#fff" stroke-miterlimit="10" stroke-width=".054" opacity=".4"><path d="M232.387 91.35v28.422M236.609 93.506v28.421M240.832 95.66v28.421M245.055 97.814v28.421M249.281 99.968v28.421M253.5 102.123v28.422M257.723 104.277v28.422M261.949 106.432v28.421M266.172 108.586v28.422M270.395 110.74v28.422M274.617 112.895v28.421M227.559 93.968l52.65 26.479M227.559 99.027l52.65 26.479M227.559 104.088l52.65 26.479M227.559 109.147l52.65 26.48M227.559 114.208l52.65 26.48"/></g><path fill="#E57070" d="m227.559 99.028 12.913 6.495 4.325 12.296 4.482-12.927 2.446 11.351 7.557 3.8 2.678 6.407 4.21-8.003 4.188 7.167 6.373 3.205 3.478-1.932v15.626l-52.65-26.55z"/><path fill="url(#cK)" d="M293.292 89.04c.668-1.18 1.041-2.654 1.041-4.388 0-6.629-5.425-14.503-12.118-17.588s-15.199-.224-15.199 6.404c0 1.734 3.455 3.565 4.122 5.36l.003.009q.347.928.791 1.84l6.27 25.767 4.013-1.859 10.282-14.43q.446-.502.791-1.11z"/><path fill="url(#cL)" d="M289.279 90.9c.667-1.182 1.041-2.655 1.041-4.39 0-6.628-5.425-14.502-12.119-17.587-6.693-3.085-12.119-.212-12.119 6.417 0 1.734.374 3.552 1.042 5.349l.004.008q.345.928.791 1.84l10.282 23.908 10.282-14.43q.447-.501.791-1.11z"/><path fill="#E57070" d="M286.899 84.934c0 4.757-3.894 6.82-8.697 4.606-4.804-2.215-8.698-7.865-8.698-12.623s3.894-6.82 8.698-4.606c4.803 2.214 8.697 7.865 8.697 12.623"/><path fill="url(#cM)" d="M284.454 85.518v-3.421l-4.524-2.087v-4.482l-3.455-1.592v4.482l-4.526-2.086v3.422l4.526 2.086v4.482l3.455 1.592v-4.482z"/><path fill="url(#cN)" d="M160.009 170.971a1.4 1.4 0 0 1-.811 1.048l-26.939 12.327a5.4 5.4 0 0 1-2.064.485v-30.624l6.25-2.66a4.63 4.63 0 0 1 3.878.026l19.466 8.004c.24.084.316 10.812.22 11.394"/><path fill="url(#cO)" d="M130.193 154.205v30.625q-.284.01-.569-.01a5.5 5.5 0 0 1-1.916-.488l-19.061-8.772c-.516-.241-1.156-11.688-.739-11.873z"/><path fill="url(#cP)" d="M107.871 163.981c0 .483.26.967.776 1.208l19.062 8.773a5.4 5.4 0 0 0 1.914.49 5.4 5.4 0 0 0 2.634-.478l26.938-12.326a1.41 1.41 0 0 0 .012-2.566l-18.885-8.892a4.62 4.62 0 0 0-3.88-.028l-27.786 12.607a1.29 1.29 0 0 0-.748.915 1.3 1.3 0 0 0-.037.297"/><path fill="#E57070" d="M141.761 157.284c-3.222-1.829-8.967-1.682-12.831.33s-4.382 5.125-1.159 6.955 8.967 1.683 12.829-.33 4.384-5.125 1.161-6.955m-7.099 4.992-3.331 1.735-2.378-1.35 3.331-1.735-3.101-1.761 2.585-1.347 3.102 1.761 3.331-1.735 2.378 1.35-3.331 1.735 3.101 1.761-2.585 1.346z"/><path fill="url(#cQ)" d="m108.324 170.531 15.575 7.307a.794.794 0 0 0 1.133-.71.78.78 0 0 0-.454-.709l-16.254-7.624z"/><path fill="url(#cR)" d="M79.48 178.854v19.091c0 3.048 6.233 5.519 13.922 5.519 7.688 0 13.922-2.471 13.922-5.519v-19.091z"/><path fill="url(#cS)" d="M93.402 184.373c7.689 0 13.922-2.471 13.922-5.519s-6.233-5.518-13.922-5.518-13.921 2.471-13.921 5.518c0 3.048 6.233 5.519 13.921 5.519"/><path fill="#E57070" d="M84.004 172.196v4.943c0 2.057 4.207 3.725 9.397 3.725s9.398-1.668 9.398-3.725v-4.943z"/><path fill="url(#cT)" d="M93.401 175.921c5.19 0 9.398-1.668 9.398-3.725s-4.207-3.725-9.398-3.725-9.397 1.668-9.397 3.725 4.207 3.725 9.397 3.725"/><path fill="#E57070" d="M93.7 185.786c-3.899-.011-7.06 3.112-7.06 6.974s3.161 7.001 7.06 7.011c3.9.011 7.06-3.111 7.06-6.973s-3.16-7.001-7.06-7.012m1.44 8.288v3.331l-2.877-.008v-3.33l-3.754-.01v-2.585l3.754.009v-3.33l2.876.007v3.331l3.753.009v2.586z"/><path fill="#fff" d="m257.418 145.908.992.446v-1.459l-.992-.447zM260.051 145.822l.992.448v-1.461l-.992-.447zM260.051 148.02l.992.447v-1.46l-.992-.446zM262.68 145.737l.992.447v-1.46l-.992-.447zM262.68 147.934l.992.447v-1.46l-.992-.446zM262.68 150.131l.992.447v-1.459l-.992-.447zM265.312 143.454l.993.447v-1.46l-.993-.448zM265.312 145.651l.993.447v-1.46l-.993-.447zM265.312 147.848l.993.447v-1.46l-.993-.446zM265.312 150.046l.993.446v-1.459l-.993-.447zM265.312 152.244l.993.446v-1.459l-.993-.447z"/><path fill="url(#cU)" d="M238.703 160.641c-9.795-.258-17.742 3.267-17.742 7.88s7.947 8.572 17.742 8.829c9.81.258 17.757-3.267 17.757-7.894 0-4.613-7.947-8.556-17.757-8.815m0 15.385c-8.263-.218-14.947-3.534-14.947-7.431 0-3.884 6.685-6.862 14.947-6.644s14.963 3.548 14.963 7.431c0 3.898-6.7 6.861-14.963 6.644" opacity=".5"/><path fill="url(#cV)" d="M238.697 157.314c-13.695-.36-24.806 4.569-24.806 11.017 0 6.449 11.111 11.983 24.806 12.344 13.716.362 24.828-4.567 24.828-11.037-.001-6.448-11.113-11.962-24.828-12.324m0 21.511c-11.553-.305-20.898-4.94-20.898-10.391 0-5.429 9.346-9.593 20.898-9.289s20.92 4.961 20.92 10.391c0 5.45-9.369 9.593-20.92 9.289" opacity=".5"/><g opacity=".71"><path fill="url(#cW)" d="M266.237 172.311c-.419.979-1.088 1.906-1.948 2.78l2.867.801c.992-.99 1.77-2.04 2.253-3.153z" opacity=".5"/><path fill="url(#cX)" d="M261.84 162.113a16.3 16.3 0 0 1 2.331 2.001l3.19-.321a17.6 17.6 0 0 0-2.641-2.337z" opacity=".5"/><path fill="url(#cY)" d="m268.206 164.835-3.147.316c.658.865 1.135 1.765 1.414 2.69l3.283.086c-.285-1.065-.813-2.099-1.55-3.092" opacity=".5"/><path fill="url(#cZ)" d="M256.781 159.358a29 29 0 0 1 3.754 1.9l2.887-.656a31 31 0 0 0-4.26-2.223z" opacity=".5"/><path fill="url(#da)" d="m266.217 176.779-2.872-.8c-.963.8-2.121 1.537-3.423 2.208l2.408 1.098c1.479-.762 2.798-1.596 3.887-2.506" opacity=".5"/><path fill="url(#db)" d="M258.637 178.817c-5.09 2.276-12.142 3.582-19.94 3.377-15.511-.409-28.061-6.633-28.061-13.951 0-7.291 12.55-12.882 28.061-12.473 6.201.163 11.914 1.271 16.561 2.995l2.411-.991c-5.269-2.028-11.829-3.335-18.971-3.522-17.286-.455-31.311 5.766-31.311 13.907 0 8.139 14.025 15.126 31.311 15.581 8.757.231 16.663-1.25 22.349-3.824z" opacity=".5"/><path fill="url(#dc)" d="m269.956 169.048-3.25-.086c.031.253.082.504.082.76 0 .514-.078 1.017-.198 1.512l3.172.429c.163-.608.275-1.222.275-1.854 0-.257-.054-.508-.081-.761" opacity=".5"/></g><path fill="url(#dd)" d="M247.566 172.108c-1.953 1.272-5.198 2.05-8.863 1.953-5.949-.157-10.771-2.545-10.771-5.357 0-1.175.856-2.239 2.283-3.064l-6.7-2.497c-2.448 1.438-3.906 3.289-3.906 5.343 0 4.969 8.548 9.226 19.094 9.504 6.431.169 12.108-1.169 15.58-3.369z" opacity=".5"/><path fill="url(#de)" d="M257.809 169.491c0 1.949-1.308 3.715-3.531 5.129l-6.715-2.513c1.217-.772 1.923-1.749 1.923-2.835 0-2.798-4.837-5.201-10.786-5.359-3.441-.09-6.52.587-8.488 1.726l-6.7-2.497c3.485-2.066 8.998-3.305 15.188-3.141 10.561.279 19.109 4.521 19.109 9.49" opacity=".5"/><path fill="#fff" d="m238.148 168.981.508 25.748s4.855 1.913 17.355-.778 20.681-9.142 20.681-9.142z" opacity=".5"/><path fill="#fff" d="m238.149 168.982-33.677 10.169s-2.184-3.614-2.777-7.193.442-4.695.442-4.695z" opacity=".5"/><path fill="url(#df)" d="m224.008 161.601-17.488-7.07s9.509-7.031 29.954-6.699l.469.008-1.433 11.338s-6.406.816-11.502 2.423" opacity=".5"/><path fill="#E57070" d="M238.705 172.983c-4.694-.124-8.49-2.007-8.49-4.221 0-2.206 3.797-3.898 8.49-3.774s8.499 2.015 8.499 4.221c.001 2.214-3.805 3.898-8.499 3.774"/><path fill="url(#dg)" d="M231.345 171.716c-4.45-.083-15.184-.007-16.143 0 .259 0 1.164.008 2.145.166h.023c1.453.226 3.074.761 3.028 2.019-.084 2.193-2.069 2.231-2.198 2.231.106.045 1.939.768 1.605 2.893-.343 2.185-2.998 2.283-2.998 2.283s2.998 1.085 1.644 4.106c-1.309 2.901-4.945 2.328-5.242 2.283.335.151 4.283 2.027-.107 4.529-4.587 2.607-7.097 4.038-9.106 3.699-1.94-.324-.593-2.049-.494-2.177-.198.082-7.053 3.021-10.993 2.727a5.3 5.3 0 0 1-.883-.128c-3.735-.927-6.626-20.969-6.626-20.969s10.278-8.8 11.632-9.591c1.362-.799 14.211-4.197 14.211-4.197l.008.007c.137.144 1.947 2.057-.738 3.67-2.488 1.499-6.748 2.712-7.631 2.961.099-.015.266-.053.487-.098 2.062-.399 8.543-1.635 11.237-1.665 3.225-.045 20.966 2.192 20.966 2.192s.03.106.046.279c.076.769-.061 2.848-3.873 2.78"/><path fill="#EFAFAC" d="M231.347 171.717c-4.451-.083-15.185-.008-16.144 0 .259 0 1.164.007 2.146.165l-5.622-.324s1.011-.384 3.24-.587c2.222-.204 8.749-.422 9.282-.513.532-.098.684-2.109.684-2.109s.48 1.725.48 2.155.388.097 4.45.286c3.857.188 5.219-1.665 5.356-1.854.076.769-.061 2.848-3.872 2.781M219.802 179.025c-.343 2.185-2.998 2.283-2.998 2.283s2.998 1.085 1.643 4.106c-1.308 2.901-4.945 2.328-5.241 2.283.334.151 4.283 2.027-.107 4.529-4.587 2.606-7.098 4.038-9.106 3.699-1.94-.324-.593-2.049-.495-2.178-.197.083-7.052 3.022-10.993 2.728l-1.536-1.326s1.848-.648 6.938-1.432c5.013-.761 10.749-2.057 10.924-2.087-.053.045-.547.475-2.244 1.01-1.81.573-2.663 2.637-1.095 2.501 1.574-.135 7.828-3.752 7.965-5.138.129-1.394-3.043-2.713-2.952-2.713s1.544-.233 3.872-.678c2.321-.437 3.926-1.891 3.31-3.549-.533-1.446-3.241-2.072-3.911-2.2.282.038.982.091 2.442-.03 2.016-.173 3.416-1.831 2.792-3.323-.631-1.484-3.849-1.567-3.849-1.567s1.369-.09 2.837-.294 2.397-1.748 2.397-1.748c-.084 2.193-2.069 2.231-2.199 2.231.107.045 1.94.768 1.606 2.893"/><path fill="url(#dh)" d="M185 175.375s5.772 1.971 8.318 9.874c2.547 7.902-1.697 13.366-1.697 13.366l-14.783 7.32-10.729-23.95z"/><path fill="url(#di)" d="M178.673 190.463c3.095 6.48 2.491 13.191-1.35 14.99s-9.464-1.998-12.56-8.478-2.491-13.191 1.349-14.989c3.842-1.799 9.465 1.997 12.561 8.477"/><path fill="url(#dj)" d="M210.112 165.267c-2.488 1.499-6.748 2.712-7.63 2.961-.039.008-.061.015-.084.015q-.023.01-.023.008s1.149-1.289 2.107-1.711c.951-.422.274-2.313.274-2.313l1.157 1.786s.532-.053 3.134-1.424c2.48-1.304 1.864-2.841 1.803-2.991.137.143 1.947 2.057-.738 3.669"/><path fill="#fff" d="m236.931 167.923-1.617.301-.955-.504 5.793-1.013 1.18.621-2.525 2.735-.993-.522.725-.771zm2.024.506.629-.67c.156-.165.358-.336.525-.484l-.016-.008c-.316.069-.681.159-1.019.223l-1.418.254zM244.609 169.056l-4.17 1.869-.923-.488 4.17-1.869z"/></g><defs><linearGradient id="b" x1="212.779" x2="154.878" y1="130.639" y2="129.576" gradientUnits="userSpaceOnUse"><stop stop-color="#38ACA8"/><stop offset="1" stop-color="#5F637A"/></linearGradient><linearGradient id="c" x1="239.564" x2="137.083" y1="175.57" y2="120.121" gradientUnits="userSpaceOnUse"><stop stop-color="#171919"/><stop offset="1" stop-color="#171919"/></linearGradient><linearGradient id="d" x1="232.365" x2="212.055" y1="94.284" y2="62.997" gradientUnits="userSpaceOnUse"><stop stop-color="#5F6271"/><stop offset=".369" stop-color="#8E9099"/><stop offset=".587" stop-color="#fff"/><stop offset="1" stop-color="#E0E0E0"/></linearGradient><linearGradient id="e" x1="208.465" x2="214.295" y1="91.639" y2="16.804" gradientUnits="userSpaceOnUse"><stop stop-color="#5F6271"/><stop offset="1" stop-color="#E0E0E0"/></linearGradient><linearGradient id="f" x1="212.779" x2="154.878" y1="130.101" y2="129.038" gradientUnits="userSpaceOnUse"><stop stop-color="#CFCFCF"/><stop offset="1" stop-color="#F4F4F4"/></linearGradient><linearGradient id="g" x1="95.138" x2="254.027" y1="125.194" y2="125.194" gradientUnits="userSpaceOnUse"><stop stop-color="#CFCFCF"/><stop offset="1" stop-color="#F4F4F4"/></linearGradient><linearGradient id="h" x1="151.454" x2="218.405" y1="84.968" y2="143.076" gradientUnits="userSpaceOnUse"><stop stop-color="#38ACA8"/><stop offset="1" stop-color="#5F637A"/></linearGradient><linearGradient id="i" x1="152.513" x2="219.464" y1="83.746" y2="141.855" gradientUnits="userSpaceOnUse"><stop stop-color="#38ACA8"/><stop offset="1" stop-color="#5F637A"/></linearGradient><linearGradient id="j" x1="153.575" x2="220.526" y1="82.525" y2="140.634" gradientUnits="userSpaceOnUse"><stop stop-color="#38ACA8"/><stop offset="1" stop-color="#5F637A"/></linearGradient><linearGradient id="k" x1="154.634" x2="221.585" y1="81.305" y2="139.413" gradientUnits="userSpaceOnUse"><stop stop-color="#38ACA8"/><stop offset="1" stop-color="#5F637A"/></linearGradient><linearGradient id="l" x1="155.693" x2="222.644" y1="80.083" y2="138.192" gradientUnits="userSpaceOnUse"><stop stop-color="#38ACA8"/><stop offset="1" stop-color="#5F637A"/></linearGradient><linearGradient id="m" x1="156.755" x2="223.706" y1="78.863" y2="136.971" gradientUnits="userSpaceOnUse"><stop stop-color="#38ACA8"/><stop offset="1" stop-color="#5F637A"/></linearGradient><linearGradient id="n" x1="157.81" x2="224.761" y1="77.641" y2="135.75" gradientUnits="userSpaceOnUse"><stop stop-color="#38ACA8"/><stop offset="1" stop-color="#5F637A"/></linearGradient><linearGradient id="o" x1="158.872" x2="225.823" y1="76.42" y2="134.528" gradientUnits="userSpaceOnUse"><stop stop-color="#38ACA8"/><stop offset="1" stop-color="#5F637A"/></linearGradient><linearGradient id="p" x1="159.931" x2="226.882" y1="75.199" y2="133.307" gradientUnits="userSpaceOnUse"><stop stop-color="#38ACA8"/><stop offset="1" stop-color="#5F637A"/></linearGradient><linearGradient id="q" x1="160.993" x2="227.944" y1="73.978" y2="132.087" gradientUnits="userSpaceOnUse"><stop stop-color="#38ACA8"/><stop offset="1" stop-color="#5F637A"/></linearGradient><linearGradient id="r" x1="162.052" x2="229.003" y1="72.757" y2="130.866" gradientUnits="userSpaceOnUse"><stop stop-color="#38ACA8"/><stop offset="1" stop-color="#5F637A"/></linearGradient><linearGradient id="s" x1="163.114" x2="230.065" y1="71.535" y2="129.644" gradientUnits="userSpaceOnUse"><stop stop-color="#38ACA8"/><stop offset="1" stop-color="#5F637A"/></linearGradient><linearGradient id="t" x1="164.169" x2="231.12" y1="70.314" y2="128.423" gradientUnits="userSpaceOnUse"><stop stop-color="#38ACA8"/><stop offset="1" stop-color="#5F637A"/></linearGradient><linearGradient id="u" x1="165.231" x2="232.182" y1="69.094" y2="127.202" gradientUnits="userSpaceOnUse"><stop stop-color="#38ACA8"/><stop offset="1" stop-color="#5F637A"/></linearGradient><linearGradient id="v" x1="148.739" x2="215.69" y1="88.094" y2="146.203" gradientUnits="userSpaceOnUse"><stop stop-color="#38ACA8"/><stop offset="1" stop-color="#5F637A"/></linearGradient><linearGradient id="w" x1="149.797" x2="216.748" y1="86.874" y2="144.983" gradientUnits="userSpaceOnUse"><stop stop-color="#38ACA8"/><stop offset="1" stop-color="#5F637A"/></linearGradient><linearGradient id="x" x1="150.86" x2="217.811" y1="85.653" y2="143.761" gradientUnits="userSpaceOnUse"><stop stop-color="#38ACA8"/><stop offset="1" stop-color="#5F637A"/></linearGradient><linearGradient id="y" x1="151.918" x2="218.869" y1="84.431" y2="142.54" gradientUnits="userSpaceOnUse"><stop stop-color="#38ACA8"/><stop offset="1" stop-color="#5F637A"/></linearGradient><linearGradient id="z" x1="152.977" x2="219.928" y1="83.21" y2="141.319" gradientUnits="userSpaceOnUse"><stop stop-color="#38ACA8"/><stop offset="1" stop-color="#5F637A"/></linearGradient><linearGradient id="A" x1="154.039" x2="220.99" y1="81.989" y2="140.097" gradientUnits="userSpaceOnUse"><stop stop-color="#38ACA8"/><stop offset="1" stop-color="#5F637A"/></linearGradient><linearGradient id="B" x1="155.098" x2="222.049" y1="80.768" y2="138.877" gradientUnits="userSpaceOnUse"><stop stop-color="#38ACA8"/><stop offset="1" stop-color="#5F637A"/></linearGradient><linearGradient id="C" x1="156.156" x2="223.107" y1="79.548" y2="137.656" gradientUnits="userSpaceOnUse"><stop stop-color="#38ACA8"/><stop offset="1" stop-color="#5F637A"/></linearGradient><linearGradient id="D" x1="157.219" x2="224.17" y1="78.325" y2="136.434" gradientUnits="userSpaceOnUse"><stop stop-color="#38ACA8"/><stop offset="1" stop-color="#5F637A"/></linearGradient><linearGradient id="E" x1="158.276" x2="225.228" y1="77.105" y2="135.213" gradientUnits="userSpaceOnUse"><stop stop-color="#38ACA8"/><stop offset="1" stop-color="#5F637A"/></linearGradient><linearGradient id="F" x1="159.336" x2="226.287" y1="75.883" y2="133.992" gradientUnits="userSpaceOnUse"><stop stop-color="#38ACA8"/><stop offset="1" stop-color="#5F637A"/></linearGradient><linearGradient id="G" x1="160.398" x2="227.349" y1="74.662" y2="132.77" gradientUnits="userSpaceOnUse"><stop stop-color="#38ACA8"/><stop offset="1" stop-color="#5F637A"/></linearGradient><linearGradient id="H" x1="161.457" x2="228.408" y1="73.442" y2="131.55" gradientUnits="userSpaceOnUse"><stop stop-color="#38ACA8"/><stop offset="1" stop-color="#5F637A"/></linearGradient><linearGradient id="I" x1="162.515" x2="229.466" y1="72.22" y2="130.329" gradientUnits="userSpaceOnUse"><stop stop-color="#38ACA8"/><stop offset="1" stop-color="#5F637A"/></linearGradient><linearGradient id="J" x1="146.03" x2="212.981" y1="91.22" y2="149.329" gradientUnits="userSpaceOnUse"><stop stop-color="#38ACA8"/><stop offset="1" stop-color="#5F637A"/></linearGradient><linearGradient id="K" x1="147.088" x2="214.039" y1="90" y2="148.108" gradientUnits="userSpaceOnUse"><stop stop-color="#38ACA8"/><stop offset="1" stop-color="#5F637A"/></linearGradient><linearGradient id="L" x1="148.151" x2="215.102" y1="88.778" y2="146.886" gradientUnits="userSpaceOnUse"><stop stop-color="#38ACA8"/><stop offset="1" stop-color="#5F637A"/></linearGradient><linearGradient id="M" x1="149.209" x2="216.16" y1="87.557" y2="145.665" gradientUnits="userSpaceOnUse"><stop stop-color="#38ACA8"/><stop offset="1" stop-color="#5F637A"/></linearGradient><linearGradient id="N" x1="150.268" x2="217.219" y1="86.336" y2="144.444" gradientUnits="userSpaceOnUse"><stop stop-color="#38ACA8"/><stop offset="1" stop-color="#5F637A"/></linearGradient><linearGradient id="O" x1="151.33" x2="218.281" y1="85.114" y2="143.223" gradientUnits="userSpaceOnUse"><stop stop-color="#38ACA8"/><stop offset="1" stop-color="#5F637A"/></linearGradient><linearGradient id="P" x1="152.389" x2="219.34" y1="83.894" y2="142.002" gradientUnits="userSpaceOnUse"><stop stop-color="#38ACA8"/><stop offset="1" stop-color="#5F637A"/></linearGradient><linearGradient id="Q" x1="153.447" x2="220.398" y1="82.674" y2="140.782" gradientUnits="userSpaceOnUse"><stop stop-color="#38ACA8"/><stop offset="1" stop-color="#5F637A"/></linearGradient><linearGradient id="R" x1="154.51" x2="221.461" y1="81.451" y2="139.559" gradientUnits="userSpaceOnUse"><stop stop-color="#38ACA8"/><stop offset="1" stop-color="#5F637A"/></linearGradient><linearGradient id="S" x1="155.568" x2="222.519" y1="80.23" y2="138.338" gradientUnits="userSpaceOnUse"><stop stop-color="#38ACA8"/><stop offset="1" stop-color="#5F637A"/></linearGradient><linearGradient id="T" x1="156.627" x2="223.578" y1="79.009" y2="137.118" gradientUnits="userSpaceOnUse"><stop stop-color="#38ACA8"/><stop offset="1" stop-color="#5F637A"/></linearGradient><linearGradient id="U" x1="157.689" x2="224.64" y1="77.788" y2="135.896" gradientUnits="userSpaceOnUse"><stop stop-color="#38ACA8"/><stop offset="1" stop-color="#5F637A"/></linearGradient><linearGradient id="V" x1="158.748" x2="225.699" y1="76.567" y2="134.676" gradientUnits="userSpaceOnUse"><stop stop-color="#38ACA8"/><stop offset="1" stop-color="#5F637A"/></linearGradient><linearGradient id="W" x1="159.806" x2="226.757" y1="75.346" y2="133.455" gradientUnits="userSpaceOnUse"><stop stop-color="#38ACA8"/><stop offset="1" stop-color="#5F637A"/></linearGradient><linearGradient id="X" x1="143.317" x2="210.268" y1="94.346" y2="152.454" gradientUnits="userSpaceOnUse"><stop stop-color="#38ACA8"/><stop offset="1" stop-color="#5F637A"/></linearGradient><linearGradient id="Y" x1="144.375" x2="211.326" y1="93.125" y2="151.233" gradientUnits="userSpaceOnUse"><stop stop-color="#38ACA8"/><stop offset="1" stop-color="#5F637A"/></linearGradient><linearGradient id="Z" x1="145.438" x2="212.389" y1="91.903" y2="150.012" gradientUnits="userSpaceOnUse"><stop stop-color="#38ACA8"/><stop offset="1" stop-color="#5F637A"/></linearGradient><linearGradient id="aa" x1="146.496" x2="213.447" y1="90.683" y2="148.791" gradientUnits="userSpaceOnUse"><stop stop-color="#38ACA8"/><stop offset="1" stop-color="#5F637A"/></linearGradient><linearGradient id="ab" x1="147.555" x2="214.507" y1="89.461" y2="147.57" gradientUnits="userSpaceOnUse"><stop stop-color="#38ACA8"/><stop offset="1" stop-color="#5F637A"/></linearGradient><linearGradient id="ac" x1="148.618" x2="215.569" y1="88.241" y2="146.349" gradientUnits="userSpaceOnUse"><stop stop-color="#38ACA8"/><stop offset="1" stop-color="#5F637A"/></linearGradient><linearGradient id="ad" x1="149.676" x2="216.627" y1="87.02" y2="145.128" gradientUnits="userSpaceOnUse"><stop stop-color="#38ACA8"/><stop offset="1" stop-color="#5F637A"/></linearGradient><linearGradient id="ae" x1="150.739" x2="217.69" y1="85.798" y2="143.907" gradientUnits="userSpaceOnUse"><stop stop-color="#38ACA8"/><stop offset="1" stop-color="#5F637A"/></linearGradient><linearGradient id="af" x1="151.798" x2="218.749" y1="84.577" y2="142.685" gradientUnits="userSpaceOnUse"><stop stop-color="#38ACA8"/><stop offset="1" stop-color="#5F637A"/></linearGradient><linearGradient id="ag" x1="152.857" x2="219.808" y1="83.356" y2="141.464" gradientUnits="userSpaceOnUse"><stop stop-color="#38ACA8"/><stop offset="1" stop-color="#5F637A"/></linearGradient><linearGradient id="ah" x1="153.918" x2="220.869" y1="82.135" y2="140.243" gradientUnits="userSpaceOnUse"><stop stop-color="#38ACA8"/><stop offset="1" stop-color="#5F637A"/></linearGradient><linearGradient id="ai" x1="154.977" x2="221.929" y1="80.913" y2="139.022" gradientUnits="userSpaceOnUse"><stop stop-color="#38ACA8"/><stop offset="1" stop-color="#5F637A"/></linearGradient><linearGradient id="aj" x1="156.035" x2="222.986" y1="79.692" y2="137.8" gradientUnits="userSpaceOnUse"><stop stop-color="#38ACA8"/><stop offset="1" stop-color="#5F637A"/></linearGradient><linearGradient id="ak" x1="157.094" x2="224.046" y1="78.471" y2="136.579" gradientUnits="userSpaceOnUse"><stop stop-color="#38ACA8"/><stop offset="1" stop-color="#5F637A"/></linearGradient><linearGradient id="al" x1="140.601" x2="207.552" y1="97.472" y2="155.58" gradientUnits="userSpaceOnUse"><stop stop-color="#38ACA8"/><stop offset="1" stop-color="#5F637A"/></linearGradient><linearGradient id="am" x1="141.66" x2="208.611" y1="96.25" y2="154.359" gradientUnits="userSpaceOnUse"><stop stop-color="#38ACA8"/><stop offset="1" stop-color="#5F637A"/></linearGradient><linearGradient id="an" x1="142.722" x2="209.673" y1="95.03" y2="153.138" gradientUnits="userSpaceOnUse"><stop stop-color="#38ACA8"/><stop offset="1" stop-color="#5F637A"/></linearGradient><linearGradient id="ao" x1="143.781" x2="210.732" y1="93.808" y2="151.917" gradientUnits="userSpaceOnUse"><stop stop-color="#38ACA8"/><stop offset="1" stop-color="#5F637A"/></linearGradient><linearGradient id="ap" x1="144.839" x2="211.79" y1="92.587" y2="150.696" gradientUnits="userSpaceOnUse"><stop stop-color="#38ACA8"/><stop offset="1" stop-color="#5F637A"/></linearGradient><linearGradient id="aq" x1="145.902" x2="212.853" y1="91.366" y2="149.474" gradientUnits="userSpaceOnUse"><stop stop-color="#38ACA8"/><stop offset="1" stop-color="#5F637A"/></linearGradient><linearGradient id="ar" x1="146.96" x2="213.911" y1="90.145" y2="148.254" gradientUnits="userSpaceOnUse"><stop stop-color="#38ACA8"/><stop offset="1" stop-color="#5F637A"/></linearGradient><linearGradient id="as" x1="148.023" x2="214.974" y1="88.924" y2="147.032" gradientUnits="userSpaceOnUse"><stop stop-color="#38ACA8"/><stop offset="1" stop-color="#5F637A"/></linearGradient><linearGradient id="at" x1="149.081" x2="216.032" y1="87.702" y2="145.811" gradientUnits="userSpaceOnUse"><stop stop-color="#38ACA8"/><stop offset="1" stop-color="#5F637A"/></linearGradient><linearGradient id="au" x1="150.14" x2="217.091" y1="86.481" y2="144.589" gradientUnits="userSpaceOnUse"><stop stop-color="#38ACA8"/><stop offset="1" stop-color="#5F637A"/></linearGradient><linearGradient id="av" x1="151.202" x2="218.153" y1="85.261" y2="143.369" gradientUnits="userSpaceOnUse"><stop stop-color="#38ACA8"/><stop offset="1" stop-color="#5F637A"/></linearGradient><linearGradient id="aw" x1="152.261" x2="219.212" y1="84.039" y2="142.148" gradientUnits="userSpaceOnUse"><stop stop-color="#38ACA8"/><stop offset="1" stop-color="#5F637A"/></linearGradient><linearGradient id="ax" x1="153.319" x2="220.27" y1="82.818" y2="140.926" gradientUnits="userSpaceOnUse"><stop stop-color="#38ACA8"/><stop offset="1" stop-color="#5F637A"/></linearGradient><linearGradient id="ay" x1="154.378" x2="221.329" y1="81.597" y2="139.706" gradientUnits="userSpaceOnUse"><stop stop-color="#38ACA8"/><stop offset="1" stop-color="#5F637A"/></linearGradient><linearGradient id="az" x1="137.888" x2="204.839" y1="100.598" y2="158.707" gradientUnits="userSpaceOnUse"><stop stop-color="#38ACA8"/><stop offset="1" stop-color="#5F637A"/></linearGradient><linearGradient id="aA" x1="138.947" x2="205.898" y1="99.377" y2="157.485" gradientUnits="userSpaceOnUse"><stop stop-color="#38ACA8"/><stop offset="1" stop-color="#5F637A"/></linearGradient><linearGradient id="aB" x1="140.009" x2="206.96" y1="98.156" y2="156.264" gradientUnits="userSpaceOnUse"><stop stop-color="#38ACA8"/><stop offset="1" stop-color="#5F637A"/></linearGradient><linearGradient id="aC" x1="141.068" x2="208.019" y1="96.934" y2="155.043" gradientUnits="userSpaceOnUse"><stop stop-color="#38ACA8"/><stop offset="1" stop-color="#5F637A"/></linearGradient><linearGradient id="aD" x1="142.126" x2="209.077" y1="95.714" y2="153.822" gradientUnits="userSpaceOnUse"><stop stop-color="#38ACA8"/><stop offset="1" stop-color="#5F637A"/></linearGradient><linearGradient id="aE" x1="143.189" x2="210.14" y1="94.492" y2="152.601" gradientUnits="userSpaceOnUse"><stop stop-color="#38ACA8"/><stop offset="1" stop-color="#5F637A"/></linearGradient><linearGradient id="aF" x1="144.247" x2="211.198" y1="93.272" y2="151.381" gradientUnits="userSpaceOnUse"><stop stop-color="#38ACA8"/><stop offset="1" stop-color="#5F637A"/></linearGradient><linearGradient id="aG" x1="145.306" x2="212.258" y1="92.05" y2="150.159" gradientUnits="userSpaceOnUse"><stop stop-color="#38ACA8"/><stop offset="1" stop-color="#5F637A"/></linearGradient><linearGradient id="aH" x1="146.368" x2="213.319" y1="90.829" y2="148.938" gradientUnits="userSpaceOnUse"><stop stop-color="#38ACA8"/><stop offset="1" stop-color="#5F637A"/></linearGradient><linearGradient id="aI" x1="147.427" x2="214.378" y1="89.609" y2="147.717" gradientUnits="userSpaceOnUse"><stop stop-color="#38ACA8"/><stop offset="1" stop-color="#5F637A"/></linearGradient><linearGradient id="aJ" x1="148.486" x2="215.437" y1="88.387" y2="146.496" gradientUnits="userSpaceOnUse"><stop stop-color="#38ACA8"/><stop offset="1" stop-color="#5F637A"/></linearGradient><linearGradient id="aK" x1="149.548" x2="216.499" y1="87.166" y2="145.274" gradientUnits="userSpaceOnUse"><stop stop-color="#38ACA8"/><stop offset="1" stop-color="#5F637A"/></linearGradient><linearGradient id="aL" x1="150.606" x2="217.557" y1="85.945" y2="144.054" gradientUnits="userSpaceOnUse"><stop stop-color="#38ACA8"/><stop offset="1" stop-color="#5F637A"/></linearGradient><linearGradient id="aM" x1="151.665" x2="218.616" y1="84.724" y2="142.832" gradientUnits="userSpaceOnUse"><stop stop-color="#38ACA8"/><stop offset="1" stop-color="#5F637A"/></linearGradient><linearGradient id="aN" x1="129.184" x2="196.135" y1="110.627" y2="168.736" gradientUnits="userSpaceOnUse"><stop stop-color="#38ACA8"/><stop offset="1" stop-color="#00344A"/></linearGradient><linearGradient id="aO" x1="191.508" x2="233.77" y1="95.613" y2="95.613" gradientUnits="userSpaceOnUse"><stop stop-color="#fff"/><stop offset="1" stop-color="#3AA9A6"/></linearGradient><linearGradient id="aP" x1="179.653" x2="240.813" y1="97.629" y2="97.629" gradientUnits="userSpaceOnUse"><stop stop-color="#fff"/><stop offset="1" stop-color="#3AA9A6"/></linearGradient><linearGradient id="aQ" x1="252.097" x2="222.467" y1="93.447" y2="139.204" gradientUnits="userSpaceOnUse"><stop stop-color="#fff"/><stop offset="1" stop-color="#848EE1"/></linearGradient><linearGradient id="aR" x1="243.952" x2="214.321" y1="88.17" y2="133.926" gradientUnits="userSpaceOnUse"><stop stop-color="#fff"/><stop offset="1" stop-color="#848EE1"/></linearGradient><linearGradient id="aS" x1="248.399" x2="218.768" y1="91.051" y2="136.807" gradientUnits="userSpaceOnUse"><stop stop-color="#fff"/><stop offset="1" stop-color="#848EE1"/></linearGradient><linearGradient id="aT" x1="238.372" x2="208.741" y1="84.558" y2="130.315" gradientUnits="userSpaceOnUse"><stop stop-color="#fff"/><stop offset="1" stop-color="#848EE1"/></linearGradient><linearGradient id="aU" x1="250.754" x2="221.124" y1="92.577" y2="138.334" gradientUnits="userSpaceOnUse"><stop stop-color="#fff"/><stop offset="1" stop-color="#848EE1"/></linearGradient><linearGradient id="aV" x1="223.13" x2="193.5" y1="74.689" y2="120.445" gradientUnits="userSpaceOnUse"><stop stop-color="#fff"/><stop offset="1" stop-color="#3AA9A6"/></linearGradient><linearGradient id="aW" x1="251.228" x2="221.598" y1="92.885" y2="138.641" gradientUnits="userSpaceOnUse"><stop stop-color="#fff"/><stop offset="1" stop-color="#848EE1"/></linearGradient><linearGradient id="aX" x1="186.696" x2="229.421" y1="99.997" y2="99.997" gradientUnits="userSpaceOnUse"><stop stop-color="#fff"/><stop offset="1" stop-color="#848EE1"/></linearGradient><linearGradient id="aY" x1="209.543" x2="257.037" y1="114.687" y2="114.687" gradientUnits="userSpaceOnUse"><stop stop-color="#fff"/><stop offset="1" stop-color="#3AA9A6"/></linearGradient><linearGradient id="aZ" x1="170.566" x2="208.056" y1="80.066" y2="80.066" gradientUnits="userSpaceOnUse"><stop stop-color="#fff"/><stop offset="1" stop-color="#3AA9A6"/></linearGradient><linearGradient id="ba" x1="211.475" x2="211.475" y1="34.828" y2="90.031" gradientUnits="userSpaceOnUse"><stop stop-color="#fff"/><stop offset="1" stop-color="#3AA9A6"/></linearGradient><linearGradient id="bb" x1="237.679" x2="239.547" y1="76.278" y2="63.999" gradientUnits="userSpaceOnUse"><stop stop-color="#FF837D"/><stop offset="1" stop-color="#FF837D"/></linearGradient><linearGradient id="bc" x1="242.153" x2="243.588" y1="78.451" y2="69.01" gradientUnits="userSpaceOnUse"><stop stop-color="#FF837D"/><stop offset="1" stop-color="#FF837D"/></linearGradient><linearGradient id="bd" x1="246.65" x2="247.591" y1="80.665" y2="74.479" gradientUnits="userSpaceOnUse"><stop stop-color="#FF837D"/><stop offset="1" stop-color="#FF837D"/></linearGradient><linearGradient id="be" x1="181.254" x2="184.18" y1="39.559" y2="33.063" gradientUnits="userSpaceOnUse"><stop stop-color="#50E6FF"/><stop offset="1" stop-color="#00FFEC"/></linearGradient><linearGradient id="bf" x1="183.946" x2="186.872" y1="41.723" y2="35.226" gradientUnits="userSpaceOnUse"><stop stop-color="#50E6FF"/><stop offset="1" stop-color="#00FFEC"/></linearGradient><linearGradient id="bg" x1="183.946" x2="186.872" y1="41.723" y2="35.226" gradientUnits="userSpaceOnUse"><stop stop-color="#50E6FF"/><stop offset="1" stop-color="#00FFEC"/></linearGradient><linearGradient id="bh" x1="186.645" x2="189.571" y1="43.885" y2="37.388" gradientUnits="userSpaceOnUse"><stop stop-color="#50E6FF"/><stop offset="1" stop-color="#00FFEC"/></linearGradient><linearGradient id="bi" x1="186.645" x2="189.571" y1="43.885" y2="37.389" gradientUnits="userSpaceOnUse"><stop stop-color="#50E6FF"/><stop offset="1" stop-color="#00FFEC"/></linearGradient><linearGradient id="bj" x1="186.645" x2="189.571" y1="43.885" y2="37.388" gradientUnits="userSpaceOnUse"><stop stop-color="#50E6FF"/><stop offset="1" stop-color="#00FFEC"/></linearGradient><linearGradient id="bk" x1="189.336" x2="192.262" y1="46.048" y2="39.552" gradientUnits="userSpaceOnUse"><stop stop-color="#50E6FF"/><stop offset="1" stop-color="#00FFEC"/></linearGradient><linearGradient id="bl" x1="189.336" x2="192.262" y1="46.048" y2="39.552" gradientUnits="userSpaceOnUse"><stop stop-color="#50E6FF"/><stop offset="1" stop-color="#00FFEC"/></linearGradient><linearGradient id="bm" x1="189.336" x2="192.262" y1="46.048" y2="39.551" gradientUnits="userSpaceOnUse"><stop stop-color="#50E6FF"/><stop offset="1" stop-color="#00FFEC"/></linearGradient><linearGradient id="bn" x1="189.336" x2="192.262" y1="46.048" y2="39.551" gradientUnits="userSpaceOnUse"><stop stop-color="#50E6FF"/><stop offset="1" stop-color="#00FFEC"/></linearGradient><linearGradient id="bo" x1="189.336" x2="192.262" y1="46.048" y2="39.551" gradientUnits="userSpaceOnUse"><stop stop-color="#50E6FF"/><stop offset="1" stop-color="#00FFEC"/></linearGradient><linearGradient id="bp" x1="237.781" x2="240.708" y1="86.937" y2="80.441" gradientUnits="userSpaceOnUse"><stop stop-color="#50E6FF"/><stop offset="1" stop-color="#00FFEC"/></linearGradient><linearGradient id="bq" x1="240.472" x2="243.399" y1="89.1" y2="82.604" gradientUnits="userSpaceOnUse"><stop stop-color="#50E6FF"/><stop offset="1" stop-color="#00FFEC"/></linearGradient><linearGradient id="br" x1="240.472" x2="243.399" y1="89.101" y2="82.604" gradientUnits="userSpaceOnUse"><stop stop-color="#50E6FF"/><stop offset="1" stop-color="#00FFEC"/></linearGradient><linearGradient id="bs" x1="243.172" x2="246.099" y1="91.263" y2="84.766" gradientUnits="userSpaceOnUse"><stop stop-color="#50E6FF"/><stop offset="1" stop-color="#00FFEC"/></linearGradient><linearGradient id="bt" x1="243.172" x2="246.099" y1="91.263" y2="84.766" gradientUnits="userSpaceOnUse"><stop stop-color="#50E6FF"/><stop offset="1" stop-color="#00FFEC"/></linearGradient><linearGradient id="bu" x1="243.172" x2="246.099" y1="91.263" y2="84.767" gradientUnits="userSpaceOnUse"><stop stop-color="#50E6FF"/><stop offset="1" stop-color="#00FFEC"/></linearGradient><linearGradient id="bv" x1="245.863" x2="248.79" y1="93.426" y2="86.929" gradientUnits="userSpaceOnUse"><stop stop-color="#50E6FF"/><stop offset="1" stop-color="#00FFEC"/></linearGradient><linearGradient id="bw" x1="245.863" x2="248.79" y1="93.426" y2="86.93" gradientUnits="userSpaceOnUse"><stop stop-color="#50E6FF"/><stop offset="1" stop-color="#00FFEC"/></linearGradient><linearGradient id="bx" x1="245.863" x2="248.79" y1="93.425" y2="86.929" gradientUnits="userSpaceOnUse"><stop stop-color="#50E6FF"/><stop offset="1" stop-color="#00FFEC"/></linearGradient><linearGradient id="by" x1="245.863" x2="248.79" y1="93.426" y2="86.929" gradientUnits="userSpaceOnUse"><stop stop-color="#50E6FF"/><stop offset="1" stop-color="#00FFEC"/></linearGradient><linearGradient id="bz" x1="245.863" x2="248.79" y1="93.426" y2="86.929" gradientUnits="userSpaceOnUse"><stop stop-color="#50E6FF"/><stop offset="1" stop-color="#00FFEC"/></linearGradient><linearGradient id="bA" x1="181.254" x2="184.18" y1="51.091" y2="44.594" gradientUnits="userSpaceOnUse"><stop stop-color="#50E6FF"/><stop offset="1" stop-color="#00FFEC"/></linearGradient><linearGradient id="bB" x1="183.946" x2="186.872" y1="53.253" y2="46.757" gradientUnits="userSpaceOnUse"><stop stop-color="#50E6FF"/><stop offset="1" stop-color="#00FFEC"/></linearGradient><linearGradient id="bC" x1="183.946" x2="186.872" y1="53.254" y2="46.757" gradientUnits="userSpaceOnUse"><stop stop-color="#50E6FF"/><stop offset="1" stop-color="#00FFEC"/></linearGradient><linearGradient id="bD" x1="186.645" x2="189.571" y1="55.417" y2="48.92" gradientUnits="userSpaceOnUse"><stop stop-color="#50E6FF"/><stop offset="1" stop-color="#00FFEC"/></linearGradient><linearGradient id="bE" x1="186.645" x2="189.571" y1="55.417" y2="48.92" gradientUnits="userSpaceOnUse"><stop stop-color="#50E6FF"/><stop offset="1" stop-color="#00FFEC"/></linearGradient><linearGradient id="bF" x1="186.645" x2="189.571" y1="55.416" y2="48.919" gradientUnits="userSpaceOnUse"><stop stop-color="#50E6FF"/><stop offset="1" stop-color="#00FFEC"/></linearGradient><linearGradient id="bG" x1="189.336" x2="192.262" y1="57.58" y2="51.083" gradientUnits="userSpaceOnUse"><stop stop-color="#50E6FF"/><stop offset="1" stop-color="#00FFEC"/></linearGradient><linearGradient id="bH" x1="189.336" x2="192.262" y1="57.58" y2="51.083" gradientUnits="userSpaceOnUse"><stop stop-color="#50E6FF"/><stop offset="1" stop-color="#00FFEC"/></linearGradient><linearGradient id="bI" x1="189.336" x2="192.262" y1="57.579" y2="51.083" gradientUnits="userSpaceOnUse"><stop stop-color="#50E6FF"/><stop offset="1" stop-color="#00FFEC"/></linearGradient><linearGradient id="bJ" x1="189.336" x2="192.262" y1="57.579" y2="51.083" gradientUnits="userSpaceOnUse"><stop stop-color="#50E6FF"/><stop offset="1" stop-color="#00FFEC"/></linearGradient><linearGradient id="bK" x1="189.336" x2="192.262" y1="57.58" y2="51.083" gradientUnits="userSpaceOnUse"><stop stop-color="#50E6FF"/><stop offset="1" stop-color="#00FFEC"/></linearGradient><linearGradient id="bL" x1="37.32" x2="87.595" y1="98.381" y2="98.381" gradientUnits="userSpaceOnUse"><stop stop-color="#C6C6C6"/><stop offset="1" stop-color="#EEF0EE"/></linearGradient><linearGradient id="bM" x1="37.32" x2="87.594" y1="90.337" y2="90.337" gradientUnits="userSpaceOnUse"><stop stop-color="#F9FBF8"/><stop offset="1" stop-color="#EEF0EE"/></linearGradient><linearGradient id="bN" x1="47.443" x2="76.749" y1="90.337" y2="90.337" gradientUnits="userSpaceOnUse"><stop stop-color="#C6C6C6"/><stop offset="1" stop-color="#EEF0EE"/></linearGradient><linearGradient id="bO" x1="105.53" x2="72.308" y1="59.116" y2="59.116" gradientUnits="userSpaceOnUse"><stop stop-color="#F9FBF8"/><stop offset="1" stop-color="#EEF0EE"/></linearGradient><linearGradient id="bP" x1="85.302" x2="67.607" y1="47.513" y2="47.513" gradientUnits="userSpaceOnUse"><stop stop-color="#38ACA8"/><stop offset="1" stop-color="#00344A"/></linearGradient><linearGradient id="bQ" x1="74.757" x2="39.968" y1="68.226" y2="68.226" gradientUnits="userSpaceOnUse"><stop stop-color="#CDCBC4"/><stop offset=".502" stop-color="#F7F9F5"/><stop offset="1" stop-color="#D1CBBF"/></linearGradient><linearGradient id="bR" x1="39.309" x2="76.973" y1="45.306" y2="45.306" gradientUnits="userSpaceOnUse"><stop stop-color="#F9FBF8"/><stop offset="1" stop-color="#EEF0EE"/></linearGradient><linearGradient id="bS" x1="45.437" x2="72.356" y1="42.254" y2="42.254" gradientUnits="userSpaceOnUse"><stop stop-color="#21798E"/><stop offset="1" stop-color="#5DC9A5"/></linearGradient><linearGradient id="bT" x1="54.09" x2="34.077" y1="72.63" y2="72.63" gradientUnits="userSpaceOnUse"><stop stop-color="#F9FBF8"/><stop offset="1" stop-color="#EEF0EE"/></linearGradient><linearGradient id="bU" x1="47.425" x2="31.318" y1="56.6" y2="56.6" gradientUnits="userSpaceOnUse"><stop stop-color="#38ACA8"/><stop offset="1" stop-color="#00344A"/></linearGradient><linearGradient id="bV" x1="60.729" x2="46.918" y1="80.56" y2="80.56" gradientUnits="userSpaceOnUse"><stop stop-color="#38ACA8"/><stop offset="1" stop-color="#5F637A"/></linearGradient><linearGradient id="bW" x1="46.655" x2="49.716" y1="80.687" y2="80.687" gradientUnits="userSpaceOnUse"><stop stop-color="#50E6FF"/><stop offset="1" stop-color="#6884FC"/></linearGradient><linearGradient id="bX" x1="48.919" x2="52.432" y1="79.211" y2="79.211" gradientUnits="userSpaceOnUse"><stop stop-color="#50E6FF"/><stop offset="1" stop-color="#6884FC"/></linearGradient><linearGradient id="bY" x1="51.372" x2="55.252" y1="78.015" y2="78.015" gradientUnits="userSpaceOnUse"><stop stop-color="#50E6FF"/><stop offset="1" stop-color="#6884FC"/></linearGradient><linearGradient id="bZ" x1="45.366" x2="32.784" y1="71.308" y2="71.308" gradientUnits="userSpaceOnUse"><stop stop-color="#38ACA8"/><stop offset="1" stop-color="#5F637A"/></linearGradient><linearGradient id="ca" x1="94.507" x2="78.191" y1="66.108" y2="66.108" gradientUnits="userSpaceOnUse"><stop stop-color="#38ACA8"/><stop offset="1" stop-color="#5F637A"/></linearGradient><linearGradient id="cb" x1="113.968" x2="99.883" y1="40.242" y2="40.242" gradientUnits="userSpaceOnUse"><stop stop-color="#38ACA8"/><stop offset="1" stop-color="#5F637A"/></linearGradient><linearGradient id="cc" x1="112.556" x2="102.828" y1="42.659" y2="42.659" gradientUnits="userSpaceOnUse"><stop stop-color="#38ACA8"/><stop offset="1" stop-color="#5F637A"/></linearGradient><linearGradient id="cd" x1="48.305" x2="64.508" y1="37.638" y2="37.638" gradientUnits="userSpaceOnUse"><stop stop-color="#38ACA8"/><stop offset="1" stop-color="#5F637A"/></linearGradient><linearGradient id="ce" x1="63.512" x2="76.955" y1="16.287" y2="16.287" gradientUnits="userSpaceOnUse"><stop stop-color="#C6C6C6"/><stop offset="1" stop-color="#EEF0EE"/></linearGradient><linearGradient id="cf" x1="62.968" x2="74.721" y1="14.649" y2="14.649" gradientUnits="userSpaceOnUse"><stop stop-color="#F9FBF8"/><stop offset="1" stop-color="#EEF0EE"/></linearGradient><linearGradient id="cg" x1="65.831" x2="71.855" y1="15.829" y2="15.829" gradientUnits="userSpaceOnUse"><stop stop-color="#C6C6C6"/><stop offset="1" stop-color="#EEF0EE"/></linearGradient><linearGradient id="ch" x1="40.836" x2="74.32" y1="26.046" y2="26.046" gradientUnits="userSpaceOnUse"><stop stop-color="#F9FBF8"/><stop offset="1" stop-color="#EEF0EE"/></linearGradient><linearGradient id="ci" x1="42.808" x2="73.07" y1="12.464" y2="12.464" gradientUnits="userSpaceOnUse"><stop stop-color="#C6C6C6"/><stop offset="1" stop-color="#EEF0EE"/></linearGradient><linearGradient id="cj" x1="75.728" x2="59.598" y1="17.571" y2="32.383" gradientUnits="userSpaceOnUse"><stop stop-color="#21798E"/><stop offset="1" stop-color="#5DC9A5"/></linearGradient><linearGradient id="ck" x1="59.421" x2="76.665" y1="26.648" y2="26.648" gradientUnits="userSpaceOnUse"><stop stop-color="#21798E"/><stop offset="1" stop-color="#00344A"/></linearGradient><linearGradient id="cl" x1="63.677" x2="60.915" y1="26.123" y2="20.796" gradientUnits="userSpaceOnUse"><stop stop-color="#50E6FF"/><stop offset="1" stop-color="#6884FC"/></linearGradient><linearGradient id="cm" x1="72.481" x2="69.719" y1="21.558" y2="16.231" gradientUnits="userSpaceOnUse"><stop stop-color="#50E6FF"/><stop offset="1" stop-color="#6884FC"/></linearGradient><linearGradient id="cn" x1="42.903" x2="56.345" y1="28.164" y2="28.164" gradientUnits="userSpaceOnUse"><stop stop-color="#C6C6C6"/><stop offset="1" stop-color="#EEF0EE"/></linearGradient><linearGradient id="co" x1="42.359" x2="54.112" y1="26.526" y2="26.526" gradientUnits="userSpaceOnUse"><stop stop-color="#F9FBF8"/><stop offset="1" stop-color="#EEF0EE"/></linearGradient><linearGradient id="cp" x1="45.222" x2="51.246" y1="27.706" y2="27.706" gradientUnits="userSpaceOnUse"><stop stop-color="#C6C6C6"/><stop offset="1" stop-color="#EEF0EE"/></linearGradient><linearGradient id="cq" x1="77.487" x2="61.267" y1="49.183" y2="66.658" gradientUnits="userSpaceOnUse"><stop stop-color="#21798E"/><stop offset="1" stop-color="#5DC9A5"/></linearGradient><linearGradient id="cr" x1="59.382" x2="79.603" y1="59.97" y2="59.97" gradientUnits="userSpaceOnUse"><stop stop-color="#21798E"/><stop offset="1" stop-color="#00344A"/></linearGradient><linearGradient id="cs" x1="126.696" x2="87.395" y1="46.963" y2="46.963" gradientUnits="userSpaceOnUse"><stop stop-color="#38ACA8"/><stop offset="1" stop-color="#5F637A"/></linearGradient><linearGradient id="ct" x1="82.591" x2="43.289" y1="88.607" y2="88.607" gradientUnits="userSpaceOnUse"><stop stop-color="#00344A"/><stop offset="1" stop-color="#00344A"/></linearGradient><linearGradient id="cu" x1="125.429" x2="111.856" y1="58.492" y2="107.167" gradientUnits="userSpaceOnUse"><stop stop-color="#F9FBF8"/><stop offset="1" stop-color="#EEF0EE"/></linearGradient><linearGradient id="cv" x1="25.422" x2="84.87" y1="162.845" y2="162.845" gradientUnits="userSpaceOnUse"><stop stop-color="#CFCFCF"/><stop offset="1" stop-color="#F4F4F4"/></linearGradient><linearGradient id="cw" x1="84.871" x2="25.422" y1="160.712" y2="160.712" gradientUnits="userSpaceOnUse"><stop stop-color="#5F6271"/><stop offset="1" stop-color="#2B3149"/></linearGradient><linearGradient id="cx" x1="26.365" x2="83.932" y1="160.711" y2="160.711" gradientUnits="userSpaceOnUse"><stop stop-color="#00344A"/><stop offset="1" stop-color="#5F637A"/></linearGradient><linearGradient id="cy" x1="70.004" x2="91.835" y1="164.193" y2="164.193" gradientUnits="userSpaceOnUse"><stop stop-color="#38ACA8"/><stop offset="1" stop-color="#00344A"/></linearGradient><linearGradient id="cz" x1="38.758" x2="51.523" y1="148.491" y2="148.491" gradientUnits="userSpaceOnUse"><stop stop-color="#38ACA8"/><stop offset="1" stop-color="#5F637A"/></linearGradient><linearGradient id="cA" x1="1.278" x2="89.137" y1="127.803" y2="127.803" gradientUnits="userSpaceOnUse"><stop stop-color="#CFCFCF"/><stop offset="1" stop-color="#F4F4F4"/></linearGradient><linearGradient id="cB" x1="20.836" x2="6.449" y1="114.732" y2="114.732" gradientUnits="userSpaceOnUse"><stop stop-color="#CFCFCF"/><stop offset="1" stop-color="#F4F4F4"/></linearGradient><linearGradient id="cC" x1="34.903" x2="43.888" y1="154.676" y2="154.676" gradientUnits="userSpaceOnUse"><stop stop-color="#38ACA8"/><stop offset="1" stop-color="#5F637A"/></linearGradient><linearGradient id="cD" x1="66.184" x2="75.168" y1="168.524" y2="168.524" gradientUnits="userSpaceOnUse"><stop stop-color="#38ACA8"/><stop offset="1" stop-color="#00344A"/></linearGradient><linearGradient id="cE" x1="49.987" x2="95.798" y1="148.381" y2="148.381" gradientUnits="userSpaceOnUse"><stop stop-color="#CFCFCF"/><stop offset="1" stop-color="#F4F4F4"/></linearGradient><linearGradient id="cF" x1="3.445" x2="19.99" y1="113.716" y2="113.716" gradientUnits="userSpaceOnUse"><stop stop-color="#CFCFCF"/><stop offset="1" stop-color="#F4F4F4"/></linearGradient><linearGradient id="cG" x1="7.495" x2="15.941" y1="113.153" y2="113.153" gradientUnits="userSpaceOnUse"><stop stop-color="#5F6271"/><stop offset="1" stop-color="#2B3149"/></linearGradient><linearGradient id="cH" x1="127.614" x2="190.528" y1="33.721" y2="33.721" gradientUnits="userSpaceOnUse"><stop stop-color="#38ACA8"/><stop offset="1" stop-color="#00344A"/></linearGradient><linearGradient id="cI" x1="225.246" x2="283.313" y1="121.944" y2="121.944" gradientUnits="userSpaceOnUse"><stop stop-color="#21798E"/><stop offset="1" stop-color="#00344A"/></linearGradient><linearGradient id="cJ" x1="244.856" x2="255.115" y1="78.636" y2="134.029" gradientUnits="userSpaceOnUse"><stop stop-color="#5F6271"/><stop offset="1" stop-color="#2B3149"/></linearGradient><linearGradient id="cK" x1="283.444" x2="279.888" y1="105.589" y2="70.481" gradientUnits="userSpaceOnUse"><stop stop-color="#5F6271"/><stop offset="1" stop-color="#E0E0E0"/></linearGradient><linearGradient id="cL" x1="266.082" x2="290.32" y1="82.099" y2="82.099" gradientUnits="userSpaceOnUse"><stop stop-color="#DDD"/><stop offset="1" stop-color="#fff"/></linearGradient><linearGradient id="cM" x1="271.949" x2="284.454" y1="78.044" y2="78.044" gradientUnits="userSpaceOnUse"><stop stop-color="#DDD"/><stop offset="1" stop-color="#fff"/></linearGradient><linearGradient id="cN" x1="117.515" x2="173.463" y1="174.526" y2="152.239" gradientUnits="userSpaceOnUse"><stop stop-color="#CFCFCF"/><stop offset="1" stop-color="#F4F4F4"/></linearGradient><linearGradient id="cO" x1="154.521" x2="97.915" y1="173.647" y2="163.985" gradientUnits="userSpaceOnUse"><stop stop-color="#CFCFCF"/><stop offset="1" stop-color="#F4F4F4"/></linearGradient><linearGradient id="cP" x1="160.027" x2="107.872" y1="162.108" y2="162.108" gradientUnits="userSpaceOnUse"><stop stop-color="#DDD"/><stop offset="1" stop-color="#fff"/></linearGradient><linearGradient id="cQ" x1="108.324" x2="125.031" y1="173.354" y2="173.354" gradientUnits="userSpaceOnUse"><stop stop-color="#38ACA8"/><stop offset="1" stop-color="#5F637A"/></linearGradient><linearGradient id="cR" x1="112.041" x2="74.885" y1="191.159" y2="191.159" gradientUnits="userSpaceOnUse"><stop stop-color="#DDD"/><stop offset="1" stop-color="#fff"/></linearGradient><linearGradient id="cS" x1="96.375" x2="90.664" y1="170.974" y2="186.41" gradientUnits="userSpaceOnUse"><stop stop-color="#DDD"/><stop offset="1" stop-color="#fff"/></linearGradient><linearGradient id="cT" x1="95.409" x2="91.553" y1="166.876" y2="177.296" gradientUnits="userSpaceOnUse"><stop stop-color="#DDD"/><stop offset="1" stop-color="#fff"/></linearGradient><linearGradient id="cU" x1="220.961" x2="256.461" y1="168.528" y2="168.528" gradientUnits="userSpaceOnUse"><stop stop-color="#fff"/><stop offset="1" stop-color="#3AA9A6"/></linearGradient><linearGradient id="cV" x1="213.89" x2="263.524" y1="168.342" y2="168.342" gradientUnits="userSpaceOnUse"><stop stop-color="#fff"/><stop offset="1" stop-color="#3AA9A6"/></linearGradient><linearGradient id="cW" x1="272.687" x2="248.641" y1="164.949" y2="202.082" gradientUnits="userSpaceOnUse"><stop stop-color="#fff"/><stop offset="1" stop-color="#3AA9A6"/></linearGradient><linearGradient id="cX" x1="266.074" x2="242.028" y1="160.666" y2="197.798" gradientUnits="userSpaceOnUse"><stop stop-color="#fff"/><stop offset="1" stop-color="#3AA9A6"/></linearGradient><linearGradient id="cY" x1="269.685" x2="245.639" y1="163.003" y2="200.136" gradientUnits="userSpaceOnUse"><stop stop-color="#fff"/><stop offset="1" stop-color="#3AA9A6"/></linearGradient><linearGradient id="cZ" x1="261.547" x2="237.501" y1="157.735" y2="194.868" gradientUnits="userSpaceOnUse"><stop stop-color="#fff"/><stop offset="1" stop-color="#3AA9A6"/></linearGradient><linearGradient id="da" x1="271.597" x2="247.551" y1="164.242" y2="201.375" gradientUnits="userSpaceOnUse"><stop stop-color="#fff"/><stop offset="1" stop-color="#3AA9A6"/></linearGradient><linearGradient id="db" x1="249.179" x2="225.133" y1="149.725" y2="186.858" gradientUnits="userSpaceOnUse"><stop stop-color="#fff"/><stop offset="1" stop-color="#3AA9A6"/></linearGradient><linearGradient id="dc" x1="271.982" x2="247.936" y1="164.492" y2="201.625" gradientUnits="userSpaceOnUse"><stop stop-color="#fff"/><stop offset="1" stop-color="#3AA9A6"/></linearGradient><linearGradient id="dd" x1="219.609" x2="254.281" y1="170.263" y2="170.263" gradientUnits="userSpaceOnUse"><stop stop-color="#fff"/><stop offset="1" stop-color="#3AA9A6"/></linearGradient><linearGradient id="de" x1="223.512" x2="257.809" y1="166.706" y2="166.706" gradientUnits="userSpaceOnUse"><stop stop-color="#fff"/><stop offset="1" stop-color="#3AA9A6"/></linearGradient><linearGradient id="df" x1="221.121" x2="225.77" y1="149.684" y2="161.339" gradientUnits="userSpaceOnUse"><stop stop-color="#fff"/><stop offset="1" stop-color="#3AA9A6"/></linearGradient><linearGradient id="dg" x1="211.456" x2="206.581" y1="163.591" y2="196.21" gradientUnits="userSpaceOnUse"><stop stop-color="#FFD9D9"/><stop offset="1" stop-color="#EFB4B4"/></linearGradient><linearGradient id="dh" x1="175.854" x2="185.208" y1="174.507" y2="196.73" gradientUnits="userSpaceOnUse"><stop stop-color="#CFCFCF"/><stop offset="1" stop-color="#F4F4F4"/></linearGradient><linearGradient id="di" x1="179.661" x2="169.282" y1="211.361" y2="187.859" gradientUnits="userSpaceOnUse"><stop stop-color="#CFCFCF"/><stop offset="1" stop-color="#F4F4F4"/></linearGradient><linearGradient id="dj" x1="207.628" x2="206.602" y1="161.518" y2="168.38" gradientUnits="userSpaceOnUse"><stop stop-color="#FFD9D9"/><stop offset="1" stop-color="#EFB4B4"/></linearGradient><clipPath id="a"><path fill="#fff" d="M0 0h298v210H0z"/></clipPath></defs></svg>