<svg xmlns="http://www.w3.org/2000/svg" width="275" height="210" fill="none"><g clip-path="url(#a)"><path stroke="#025A58" stroke-miterlimit="10" stroke-width="1.281" d="m145.699 78.345-14.478 9.102a1.806 1.806 0 0 0 .021 3.07l8.939 5.453a1.834 1.834 0 0 1 .017 3.12l-21.724 13.579M110.558 139.943l8.612 5.166c1.324.794 1.332 2.708.015 3.513l-23.23 14.19a3.86 3.86 0 0 1-3.94.05l-8.127-4.687a4.3 4.3 0 0 0-4.352.035l-15.833 9.472M246.147 130.335l26.559-16.592c1.299-.811 1.285-2.704-.024-3.497l-52.586-31.85a4.09 4.09 0 0 0-4.217-.01l-15.797 9.452a3.88 3.88 0 0 1-3.91.041L174.83 75.723"/><path fill="url(#b)" d="m226.693 169.097-28.42-16.175a1.4 1.4 0 0 1-.671-.888c-.038-.16-.268-3.54.14-3.781l37.384-19.558a2.38 2.38 0 0 1 2.386-.019l29.242 14.118c.461.262.226 3.861.144 4.072a1.47 1.47 0 0 1-.629.735l-36.307 21.468a3.25 3.25 0 0 1-3.269.028"/><path fill="url(#c)" d="m226.693 168.991-28.42-16.175a1.39 1.39 0 0 1-.671-.888c-.038-.159-.268-3.54.14-3.78l37.384-19.558a2.38 2.38 0 0 1 2.386-.02l29.242 14.119c.461.262.226 3.861.144 4.071a1.47 1.47 0 0 1-.629.736l-36.307 21.467a3.25 3.25 0 0 1-3.269.028"/><path fill="url(#d)" d="m226.692 165.841-28.419-16.175a1.4 1.4 0 0 1-.02-2.424l36.872-21.802a2.38 2.38 0 0 1 2.387-.019l28.736 16.355a1.486 1.486 0 0 1 .022 2.572l-36.307 21.467a3.26 3.26 0 0 1-3.271.026"/><path fill="#fff" d="m198.272 149.597 28.42 16.175a3.26 3.26 0 0 0 3.27-.027l36.308-21.467c.479-.283.718-.768.725-1.255a1.47 1.47 0 0 1-.725 1.325l-36.308 21.468a3.26 3.26 0 0 1-3.27.027l-28.419-16.175a1.39 1.39 0 0 1-.704-1.244c.014.459.247.913.703 1.173"/><path fill="url(#e)" d="m231.729 152.31.266.158 10.727-6.185 6.833 3.956.265-.147-7.098-4.113z"/><path fill="url(#f)" d="m231.995 152.468 6.832 3.956 10.728-6.185-6.833-3.956z"/><path fill="#00344A" d="m234.749 130.289 1.674-.971 1.831 1.076-1.674.97zM236.103 132.497l2.886-1.673 1.831 1.076-2.886 1.673zM232.331 131.691l1.674-.97 1.831 1.076-1.674.97zM229.913 133.094l1.674-.971 1.831 1.077-1.673.97zM227.491 134.497l1.674-.971 1.831 1.076-1.673.97zM225.073 135.9l1.674-.97 1.831 1.076-1.673.97zM222.652 137.302l1.673-.97 1.831 1.076-1.673.97zM220.234 138.705l1.673-.971 1.831 1.076-1.673.97zM217.816 140.107l1.673-.97 1.831 1.076-1.673.971zM215.394 141.511l1.673-.97 1.831 1.076-1.673.97zM212.976 142.914l1.673-.971 1.831 1.076-1.673.97zM210.558 144.317l1.673-.971 1.831 1.076-1.673.971zM208.136 145.719l1.673-.97 1.832 1.076-1.674.97zM207.391 146.151l1.832 1.076-2.709 1.571-1.831-1.076zM233.859 133.797l1.673-.97 1.831 1.076-1.673.97zM231.441 135.2l1.673-.971 1.831 1.076-1.673.971zM229.023 136.603l1.673-.97 1.831 1.076-1.673.97zM226.601 138.005l1.673-.97 1.831 1.076-1.673.97zM224.183 139.409l1.673-.971 1.832 1.075-1.674.972zM221.761 140.811l1.673-.97 1.832 1.076-1.674.97zM219.343 142.213l1.673-.97 1.832 1.076-1.674.97zM216.925 143.617l1.673-.971 1.832 1.075-1.674.972zM214.503 145.019l1.674-.97 1.831 1.076-1.674.97zM212.085 146.422l1.674-.97 1.831 1.076-1.674.97zM209.667 147.826l1.674-.971 1.831 1.076-1.674.971zM210.75 149.334l-1.673.97-1.832-1.076 1.674-.97zM248.508 136.419l-2.886 1.673-1.831-1.076 2.886-1.673zM245.055 138.422l-1.674.97-1.831-1.076 1.673-.97zM242.633 139.824l-1.674.971-1.831-1.076 1.674-.971zM228.706 145.762l.747-.432 1.673-.97.745-.433 1.674-.971.746-.432 1.674-.97 2.419-1.403 1.831 1.076-2.419 1.403-1.673.97-.747.432-1.673.971-.746.433-1.673.97-.747.432-.836.485-.837.485-1.831-1.076.836-.485zM228.117 148.241l-1.673.97-1.832-1.076 1.674-.97zM225.699 149.643l-1.673.97-1.832-1.075 1.674-.971zM223.281 151.047l-1.673.971-1.831-1.077 1.673-.97zM220.859 152.449l-1.673.97-1.831-1.076 1.673-.97zM218.441 153.851l-1.673.97-1.831-1.075 1.673-.971zM237.838 134.483l3.714-2.153 1.831 1.076-3.714 2.153zM235.597 135.783l1.673-.971 1.832 1.076-1.674.971zM233.175 137.185l1.673-.97 1.832 1.076-1.674.971zM230.757 138.589l1.673-.97 1.832 1.076-1.674.97zM228.335 139.992l1.674-.971 1.831 1.076-1.674.971zM225.917 141.395l1.674-.971 1.831 1.076-1.674.971zM223.499 142.797l1.674-.97 1.831 1.076-1.674.97zM221.081 144.2l1.674-.971 1.831 1.076-1.674.971zM218.659 145.603l1.674-.971 1.831 1.077-1.673.97zM216.241 147.005l1.674-.97 1.831 1.076-1.673.97zM213.819 148.408l1.674-.97 1.831 1.075-1.673.971zM214.906 149.917l-3.266 1.892-1.831-1.075 3.266-1.893zM239.892 136.284l4.222-2.448 1.831 1.076-4.222 2.448zM237.652 137.583l1.673-.97 1.831 1.076-1.673.97zM235.23 138.988l1.673-.97 1.831 1.075-1.673.971zM232.812 140.389l1.673-.97 1.831 1.076-1.673.97zM230.394 141.791l1.673-.97 1.831 1.076-1.673.971zM227.972 143.195l1.673-.97 1.832 1.076-1.674.97zM225.554 144.597l1.673-.97 1.832 1.076-1.674.97zM223.136 146.002l1.673-.972 1.832 1.076-1.674.971zM220.714 147.404l1.673-.97 1.832 1.076-1.674.97zM218.292 148.806l1.674-.97 1.831 1.076-1.674.97zM219.383 150.315l-5.176 3.001-1.832-1.076 5.177-3.001zM232.057 124.56l-34.686 22.936c-.485.287-3.323-1.525-3.444-1.638a1.55 1.55 0 0 1-.494-1.144v-36.983c0-1.388.732-2.673 1.927-3.382l35.651-21.15c.473-.28.999-.302 1.452-.136.128.046 3.06 1.114 3.06 1.726l-1.94 37.093c0 1.099-.58 2.117-1.526 2.678"/><path fill="url(#g)" d="m234.544 125.801-36.247 21.504c-1.049.622-2.377-.133-2.377-1.351v-36.983c0-1.388.733-2.673 1.927-3.382l35.651-21.15c1.135-.673 2.572.144 2.572 1.462v37.223c0 1.098-.58 2.116-1.526 2.677"/><path fill="url(#h)" d="M197.493 144.516a.4.4 0 0 0 .223-.065l36.248-21.503a2 2 0 0 0 .974-1.707V85.903a.577.577 0 0 0-.577-.574.57.57 0 0 0-.288.082l-35.651 21.149a2.82 2.82 0 0 0-1.374 2.413v35.099q.001.19.131.315a.46.46 0 0 0 .314.129"/><path fill="url(#i)" d="m197.849 105.589 35.65-21.15a1.69 1.69 0 0 1 1.743.008 1.67 1.67 0 0 0-1.622.053l-35.651 21.149a3.93 3.93 0 0 0-1.928 3.382v36.983c0 .594.319 1.075.765 1.343a1.55 1.55 0 0 1-.885-1.403v-36.983c0-1.387.732-2.672 1.928-3.382" opacity=".51"/><path fill="#302A2A" d="m202.277 144.931.786.457 2.503-1.443-.786-.457zM230.519 128.212l.787.456 2.503-1.442-.787-.456z"/><path fill="url(#j)" d="m202.277 144.865.786.456 2.503-1.443-.786-.456z"/><path fill="url(#k)" d="m230.519 128.173.787.456 2.503-1.441-.787-.458z"/><path stroke="#F1F1F2" stroke-miterlimit="10" stroke-width=".492" d="M207.978 127.526c-3.829-2.831-2.74-10.781 2.433-17.758s12.471-10.338 16.3-7.507 2.74 10.78-2.433 17.757-12.471 10.338-16.3 7.508Z"/><path stroke="#F1F1F2" stroke-miterlimit="10" stroke-width=".492" d="M226.328 101.901c-1.359 4.06-4.869 8.501-8.984 11.009-4.095 2.497-7.591 2.349-8.964-.02"/><path stroke="#F1F1F2" stroke-miterlimit="10" stroke-width=".492" d="M228.504 104.829c-2.335 5.232-6.459 10.278-11.159 13.143-4.774 2.911-8.957 2.849-11.27.346"/><path stroke="#F1F1F2" stroke-miterlimit="10" stroke-width=".474" d="M228.887 109.709c-2.845 5.409-6.963 10.228-11.543 13.021-4.617 2.814-8.762 2.996-11.61 1.007"/><path stroke="#F1F1F2" stroke-miterlimit="10" stroke-width=".492" d="M213.03 109.818c-.85-1.011.395-3.453 2.781-5.453 2.386-1.999 5.01-2.801 5.86-1.789.851 1.011-.394 3.452-2.781 5.452s-5.01 2.801-5.86 1.79Z"/><path stroke="#F1F1F2" stroke-miterlimit="10" stroke-width=".492" d="M215.146 106.758c-.434-.516.202-1.763 1.42-2.784s2.557-1.43 2.992-.913c.434.516-.202 1.763-1.42 2.784s-2.557 1.429-2.992.913Z"/><path stroke="#F1F1F2" stroke-miterlimit="10" stroke-width=".474" d="M217.344 106.413v20.122M214.98 106.72s-5.632 5.222-6.639 14.549c-1.034 9.574 5.758 6.809 5.758 6.809"/><path stroke="#F1F1F2" stroke-miterlimit="10" stroke-width=".474" d="M216.242 106.879s-2.994 4.03-3.817 12.118 3.518 8.243 3.518 8.243M219.515 103.956s5.633-1.646 6.64 6.453c1.034 8.313-5.759 13.83-5.759 13.83"/><path stroke="#F1F1F2" stroke-miterlimit="10" stroke-width=".474" d="M218.251 105.655s2.994.38 3.817 7.463-3.518 12.534-3.518 12.534"/><path fill="url(#l)" d="M140.582 12.86q0 .045.015.089l.003.01a.3.3 0 0 0 .051.095q.029.04.07.078l.01.009q.044.038.104.073.057.032.121.058l.034.013q.04.013.082.025a1 1 0 0 0 .194.04l.025.003q.073.007.148.008h.023q.072 0 .145-.008l.022-.002a2 2 0 0 0 .165-.03 1.2 1.2 0 0 0 .275-.108c.172-.1.258-.229.257-.36l.393 47.045c.001.189-.125.378-.374.522a1.4 1.4 0 0 1-.183.088l-.01.003-.031.01q-.056.021-.113.039l-.063.015-.036.01-.033.008-.126.021q-.021.004-.044.006-.016 0-.032.003l-.047.005-.125.006h-.131l-.14-.01-.015-.001-.037-.005q-.055-.006-.11-.016l-.046-.011-.126-.031c-.022-.007-.046-.01-.068-.017l-.051-.02-.048-.018a1.3 1.3 0 0 1-.177-.084l-.015-.01a1 1 0 0 1-.135-.098q-.007-.005-.014-.012l-.01-.009a1 1 0 0 1-.079-.084l-.014-.02-.014-.021q-.012-.017-.023-.035a1 1 0 0 1-.034-.071l-.003-.011-.004-.014a.447.447 0 0 1-.022-.12v-.01z"/><path fill="url(#m)" d="M140.839 12.5c-.343.197-.344.518-.004.715s.893.197 1.235 0 .344-.517.004-.715-.892-.197-1.235 0"/><path fill="url(#n)" d="M163.219.543q0 .045.015.09l.003.009a.3.3 0 0 0 .051.095.5.5 0 0 0 .07.079l.009.008a.8.8 0 0 0 .226.132l.034.012q.04.015.082.025a1 1 0 0 0 .194.04q.013.003.025.004.074.007.147.008h.023q.073 0 .146-.008l.021-.002q.072-.01.141-.024l.024-.006q.063-.015.122-.038l.021-.007a1 1 0 0 0 .133-.063c.172-.1.258-.23.257-.36l.392 47.045c.002.188-.124.377-.373.521a2 2 0 0 1-.183.088l-.01.003q-.016.006-.032.01-.055.022-.113.04l-.062.015-.036.01q-.017.003-.033.007l-.126.022-.045.005-.031.003-.048.006-.124.006h-.131a3 3 0 0 1-.192-.017q-.055-.005-.11-.015-.023-.006-.046-.012l-.126-.03q-.034-.008-.068-.017l-.051-.02-.049-.019a1.3 1.3 0 0 1-.192-.093 1 1 0 0 1-.135-.099l-.013-.01-.01-.01a.6.6 0 0 1-.079-.084q-.008-.01-.014-.02l-.014-.022q-.013-.017-.023-.034a1 1 0 0 1-.035-.071l-.003-.012q-.002-.007-.004-.013a.4.4 0 0 1-.022-.12v-.01z"/><path fill="url(#o)" d="M163.476.184c-.343.197-.344.517-.004.715s.892.197 1.235-.001.344-.516.004-.714-.893-.197-1.235 0"/><path fill="#333E51" d="M167.491 78.65v11.147h.115c.114 0 .251-.022.365-.022.114-.023.251-.023.365-.046.137-.023.252-.046.366-.068.046 0 .091-.023.114-.023s.046 0 .069-.023c.068 0 .137-.023.228-.046.137-.045.297-.09.457-.16.182-.068.365-.159.548-.25l25.431-14.68c.754-.434 1.119-.98 1.119-1.55l-.023-11.147c0 .57-.388 1.118-1.119 1.55l-25.455 14.68a4.2 4.2 0 0 1-1.233.455c-.023.023-.023.023-.046.023-.41.092-.867.16-1.301.16"/><path fill="#333E51" d="m138.337 61.783.023 11.147v.046c0 .068.023.136.023.205.023.045.023.091.046.137v.045c.023.023.023.023.023.046.022.068.068.137.091.205.023.046.046.069.068.114l.046.046c.023.022.023.045.046.068.068.091.137.183.228.251.023 0 .023.023.023.023.091.068.183.137.274.182.069.069.114.114.183.16.023 0 .023 0 .046.023l25.295 14.656c.251.16.525.274.822.388l.342.068a.4.4 0 0 0 .183.046c.069.023.137.045.206.045q.239.069.479.069c.137.023.297.023.434.045h.274V78.651h-.137a8.5 8.5 0 0 1-1.302-.16c-.068-.023-.114-.023-.182-.046-.411-.114-.823-.25-1.165-.456l-25.272-14.656c-.092-.069-.16-.114-.252-.183a1 1 0 0 1-.251-.182c-.114-.114-.228-.228-.297-.342l-.045-.046a3 3 0 0 1-.183-.365v-.045a1 1 0 0 1-.069-.387"/><path fill="url(#p)" d="M167.491 78.583V89.73h.115c.114 0 .251-.023.365-.023.114-.023.251-.023.365-.045.137-.023.252-.046.366-.069.046 0 .091-.023.114-.023s.046 0 .069-.022c.068 0 .137-.023.228-.046.137-.046.297-.091.457-.16.182-.068.365-.16.548-.25l25.431-14.68c.754-.433 1.119-.98 1.119-1.55l-.023-11.146c0 .57-.388 1.117-1.119 1.55l-25.455 14.679a4.2 4.2 0 0 1-1.233.456c-.023.023-.023.023-.046.023-.41.09-.867.16-1.301.16"/><path fill="#004766" d="M139.447 60.168c-1.486.857-1.48 2.243-.017 3.092l25.283 14.671c1.477.857 3.874.866 5.361.008l25.45-14.67c1.486-.858 1.48-2.244.003-3.1l-25.284-14.672c-1.462-.849-3.86-.857-5.346 0z"/><path fill="#004766" d="m138.337 61.716.023 11.147v.045c0 .069.023.137.023.206.023.045.023.09.046.136v.046c.023.023.023.023.023.045.022.069.068.137.091.206.023.045.046.068.068.114l.046.045c.023.023.023.046.046.069.068.091.137.182.228.25.023 0 .023.023.023.023.091.069.183.137.274.183.069.068.114.114.183.16.023 0 .023 0 .046.022l25.295 14.657c.251.16.525.273.822.387l.342.069a.4.4 0 0 0 .183.045c.069.023.137.046.206.046q.239.069.479.068c.137.023.297.023.434.046h.274V78.583h-.137a8.5 8.5 0 0 1-1.302-.16c-.068-.022-.114-.022-.182-.045-.411-.114-.823-.25-1.165-.456l-25.272-14.657c-.092-.068-.16-.114-.252-.182a1 1 0 0 1-.251-.182 2 2 0 0 1-.297-.343l-.045-.045a3 3 0 0 1-.183-.365v-.046a1 1 0 0 1-.069-.386"/><path fill="url(#q)" d="m139.427 63.123 25.284 14.671c1.477.858 3.874.866 5.361.009l25.45-14.671c.713-.41 1.072-.945 1.101-1.481.032.583-.328 1.172-1.101 1.617l-25.449 14.67c-1.487.858-3.884.85-5.361-.008l-25.284-14.67c-.761-.442-1.118-1.03-1.085-1.61.027.536.384 1.066 1.084 1.473"/><path fill="#D1D1DB" d="M170.954 52.688 151.19 64.137a2.04 2.04 0 0 1-2.038.002l-8.252-4.757 21.753-12.6 8.3 4.784c.432.25.433.873.001 1.122"/><path fill="#4F576D" d="M142.72 69.414v3.555l18.104 10.509v-.776l-17.511-10.12v-2.826z"/><path fill="#626B7F" d="M143.313 69.756v2.825l17.511 10.121v-2.804z"/><path fill="#333E51" d="m143.312 72.582-.592.387v-3.555l.592.342zM159.853 81.55l.276.157v-1.72l-.276-.158zM159.319 81.244l.275.158V79.68l-.275-.158zM158.784 80.938l.275.158v-1.72l-.275-.158zM158.251 80.633l.276.157v-1.72l-.276-.158zM157.717 80.327l.275.158v-1.721l-.275-.158zM157.182 80.021l.275.158v-1.72l-.275-.158zM156.647 79.716l.275.157v-1.72l-.275-.158zM156.114 79.41l.277.158v-1.721l-.277-.157zM155.576 79.103l.276.158v-1.72l-.276-.158zM155.045 78.798l.275.157v-1.72l-.275-.158zM154.509 78.492l.276.158v-1.721l-.276-.157zM153.974 78.187l.276.157v-1.72l-.276-.158zM153.444 77.88l.275.158v-1.72l-.275-.158zM152.905 77.575l.275.158v-1.721l-.275-.157zM152.372 77.27l.276.157v-1.72l-.276-.158zM151.838 76.964l.275.157v-1.72l-.275-.158zM151.303 76.657l.275.158v-1.72l-.275-.159zM150.771 76.352l.276.157v-1.72l-.276-.158zM150.236 76.046l.276.157v-1.72l-.276-.158zM149.701 75.74l.276.158v-1.72l-.276-.159zM149.166 75.435l.275.157v-1.72l-.275-.158zM148.63 75.129l.276.157v-1.72l-.276-.158zM148.1 74.823l.275.158v-1.72l-.275-.158zM147.565 74.518l.275.157v-1.72l-.275-.158zM147.029 74.21l.276.158v-1.72l-.276-.158zM146.493 73.905l.277.158v-1.72l-.277-.158zM145.959 73.6l.275.157v-1.72l-.275-.158zM145.424 73.294l.275.157v-1.72l-.275-.158zM144.892 72.988l.276.158v-1.72l-.276-.158zM144.358 72.683l.275.157v-1.72l-.275-.158zM143.823 72.377l.275.157v-1.72l-.275-.158z"/><path fill="#626B7F" d="m171.499 72.521.48.274 14.679-8.549 3.515 2.029.479-.274-3.994-2.302z"/><path fill="#7F87A0" d="m171.978 72.794 3.515 2.029 14.679-8.548-3.515-2.029z"/><path fill="#4F576D" d="m186.797 67.442-7.707 4.471-2.031-1.17 7.707-4.471z"/><path fill="#6B758E" d="m190.172 67.64-14.679 8.549v-1.365l14.679-8.549z"/><path fill="#626B7F" d="M190.652 66.002v1.892l-.479-.253v-1.365z"/><path fill="#7F87A0" d="m190.173 67.64-14.679 8.549v.532l15.158-8.827z"/><path fill="#FCE727" d="m184.642 68.044.846-.494-.908-.53-.846.493zM183.298 68.824l.847-.492-.91-.531-.846.492zM181.959 69.604l.846-.492-.909-.53-.846.492zM180.619 70.386l.846-.493-.91-.53-.846.493zM179.275 71.167l.846-.493-.908-.53-.846.492z"/><path fill="url(#r)" d="M191.312 69.816v4.49l-16.481 9.466v-1.39l15.334-8.81v-3.1z"/><path fill="#2C3344" d="M190.164 70.473v3.099l-15.334 8.81v-3.1z"/><path fill="#00ADEE" d="m188.419 73.697.425-.22v-1.483l-.425.252z"/><path fill="#0EABE2" d="m187.771 74.07.424-.22v-1.483l-.424.252z"/><path fill="#1BAAD7" d="m187.122 74.443.425-.22V72.74l-.425.252z"/><path fill="#29A8CB" d="m186.474 74.816.424-.22v-1.483l-.424.252z"/><path fill="#37A7C0" d="m185.822 75.19.424-.22v-1.484l-.424.252z"/><path fill="#44A5B4" d="m185.177 75.563.425-.22V73.86l-.425.252z"/><path fill="#52A4A9" d="m184.525 75.936.424-.22v-1.483l-.424.252z"/><path fill="#60A29D" d="m183.876 76.31.425-.22v-1.484l-.425.252z"/><path fill="#6DA192" d="m183.228 76.682.424-.218V74.98l-.424.25z"/><path fill="#7BA086" d="m182.579 77.056.425-.22v-1.483l-.425.251z"/><path fill="#899E7A" d="m181.931 77.429.423-.22.001-1.482-.424.25z"/><path fill="#969D6F" d="m181.283 77.802.424-.22V76.1l-.424.25z"/><path fill="#A49B63" d="m180.631 78.175.424-.22v-1.482l-.424.25z"/><path fill="#B29A58" d="m179.983 78.549.423-.22v-1.483l-.423.25z"/><path fill="#BF984C" d="m179.333 78.922.425-.22v-1.483l-.425.252z"/><path fill="#CD9741" d="m178.685 79.296.424-.22v-1.483l-.424.252z"/><path fill="#DB9535" d="m178.036 79.669.425-.22v-1.483l-.425.252z"/><path fill="#E8942A" d="m177.388 80.042.424-.22V78.34l-.424.252z"/><path fill="#F6921E" d="m176.739 80.415.425-.22v-1.483l-.425.252z"/><path fill="#1D2330" d="m190.165 73.572 1.147.734v-4.49l-1.147.656z"/><path fill="#004766" d="m95.677 79.82.075 69.053 31.092-18.755-.075-69.04z"/><path fill="url(#s)" d="M100.509 137.637v2.776l21.565-12.982-.084-57.896-2.302 1.374.056 55.121z"/><path fill="url(#t)" d="m100.452 82.516.056 55.121 19.234-11.607-.056-55.122z"/><path fill="#004766" d="M62.049 61.084 95.678 79.82l31.092-18.743-33.642-18.735z"/><path fill="#00344A" d="m62.046 61.084.076 69.053 33.628 18.735-.075-69.052z"/><path fill="url(#u)" d="m76.429 68.92 19.245 10.72 30.94-18.649.156.086-31.092 18.744L76.432 69.1l-14.384-8.015.154-.094z"/><path fill="#1D2330" d="m119.744 126.03 2.33 1.401-.084-57.896-2.302 1.374z"/><path fill="url(#v)" d="M103.825 93.74v1.732l13.456-8.1-.052-9.212-1.436.857.034 7.48z"/><path fill="#8D93A8" d="m103.791 86.26.035 7.48 12.002-7.243-.034-7.48z"/><path fill="#1D2330" d="m115.827 86.497 1.454.875-.052-9.212-1.436.857z"/><path fill="url(#w)" d="m112.278 83.973 1.335-.806v-1.11l-1.335.806z"/><path fill="url(#x)" d="m110.185 85.239 1.335-.807v-1.11l-1.335.806z"/><path fill="url(#y)" d="m108.092 86.503 1.334-.806v-1.11l-1.334.806z"/><path fill="url(#z)" d="m105.998 87.77 1.334-.807v-1.111l-1.334.806z"/><path fill="url(#A)" d="m112.278 85.546 1.335-.806v-1.11l-1.335.806z"/><path fill="url(#B)" d="m110.185 86.812 1.335-.806v-1.112l-1.335.807z"/><path fill="url(#C)" d="m108.092 88.077 1.334-.807v-1.11l-1.334.807z"/><path fill="url(#D)" d="m105.998 89.342 1.334-.806v-1.11l-1.334.806z"/><path fill="url(#E)" d="m112.278 87.12 1.335-.807v-1.11l-1.335.806z"/><path fill="url(#F)" d="m110.185 88.385 1.335-.806v-1.111l-1.335.806z"/><path fill="url(#G)" d="m108.092 89.651 1.334-.806v-1.112l-1.334.807z"/><path fill="url(#H)" d="m105.998 90.916 1.334-.807V89l-1.334.806z"/><path fill="url(#I)" d="M103.825 105.378v1.732l13.456-8.1-.052-9.212-1.436.857.034 7.48z"/><path fill="#8D93A8" d="m103.791 97.898.035 7.48 12.002-7.243-.034-7.48z"/><path fill="#1D2330" d="m115.827 98.135 1.454.874-.052-9.211-1.436.857z"/><path fill="url(#J)" d="m112.278 95.61 1.335-.805v-1.11l-1.335.805z"/><path fill="url(#K)" d="m110.185 96.877 1.335-.807V94.96l-1.335.806z"/><path fill="url(#L)" d="m108.092 98.141 1.334-.806v-1.11l-1.334.806z"/><path fill="url(#M)" d="m105.998 99.407 1.334-.807v-1.11l-1.334.806z"/><path fill="url(#N)" d="m112.278 97.184 1.335-.806v-1.11l-1.335.806z"/><path fill="url(#O)" d="m110.185 98.45 1.335-.807v-1.11l-1.335.806z"/><path fill="url(#P)" d="m108.092 99.714 1.334-.806v-1.11l-1.334.806z"/><path fill="url(#Q)" d="m105.998 100.98 1.334-.806v-1.112l-1.334.807z"/><path fill="url(#R)" d="m112.278 98.758 1.335-.806v-1.11l-1.335.806z"/><path fill="url(#S)" d="m110.185 100.024 1.335-.806v-1.112l-1.335.807z"/><path fill="url(#T)" d="m108.092 101.289 1.334-.806v-1.11l-1.334.805z"/><path fill="url(#U)" d="m105.998 102.554 1.334-.806v-1.11l-1.334.806z"/><path fill="url(#V)" d="M103.825 117.016v1.731l13.456-8.1-.052-9.211-1.436.857.034 7.479z"/><path fill="#8D93A8" d="m103.791 109.535.035 7.481 12.002-7.243-.034-7.48z"/><path fill="#1D2330" d="m115.827 109.772 1.454.875-.052-9.211-1.436.857z"/><path fill="url(#W)" d="m112.278 107.249 1.335-.807v-1.111l-1.335.806z"/><path fill="url(#X)" d="m110.185 108.514 1.335-.806v-1.111l-1.335.806z"/><path fill="url(#Y)" d="m108.092 109.779 1.334-.807v-1.11l-1.334.807z"/><path fill="url(#Z)" d="m105.998 111.045 1.334-.807v-1.111l-1.334.806z"/><path fill="url(#aa)" d="m112.278 108.822 1.335-.807v-1.11l-1.335.807z"/><path fill="url(#ab)" d="m110.185 110.087 1.335-.806v-1.111l-1.335.806z"/><path fill="url(#ac)" d="m108.092 111.352 1.334-.806v-1.11l-1.334.806z"/><path fill="url(#ad)" d="m105.998 112.618 1.334-.807V110.7l-1.334.807z"/><path fill="url(#ae)" d="m112.278 110.396 1.335-.806v-1.111l-1.335.807z"/><path fill="url(#af)" d="m110.185 111.662 1.335-.807v-1.111l-1.335.807z"/><path fill="url(#ag)" d="m108.092 112.926 1.334-.806v-1.11l-1.334.806z"/><path fill="url(#ah)" d="m105.998 114.192 1.334-.806v-1.112l-1.334.807z"/><path fill="url(#ai)" d="M103.825 128.653v1.732l13.456-8.099-.052-9.212-1.436.857.034 7.48z"/><path fill="#8D93A8" d="m103.791 121.174.035 7.479 12.002-7.242-.034-7.479z"/><path fill="#1D2330" d="m115.827 121.411 1.454.875-.052-9.212-1.436.857z"/><path fill="url(#aj)" d="m112.278 118.887 1.335-.806v-1.111l-1.335.806z"/><path fill="url(#ak)" d="m110.185 120.152 1.335-.807v-1.11l-1.335.807z"/><path fill="url(#al)" d="m108.092 121.418 1.334-.807v-1.11l-1.334.805z"/><path fill="url(#am)" d="m105.998 122.683 1.334-.806v-1.111l-1.334.806z"/><path fill="url(#an)" d="m112.278 120.461 1.335-.807v-1.111l-1.335.806z"/><path fill="url(#ao)" d="m110.185 121.726 1.335-.806v-1.111l-1.335.806z"/><path fill="url(#ap)" d="m108.092 122.991 1.334-.807v-1.11l-1.334.807z"/><path fill="url(#aq)" d="m105.998 124.256 1.334-.806v-1.111l-1.334.806z"/><path fill="url(#ar)" d="m112.278 122.035 1.335-.807v-1.11l-1.335.807z"/><path fill="url(#as)" d="m110.185 123.3 1.335-.806v-1.111l-1.335.806z"/><path fill="url(#at)" d="m108.092 124.565 1.334-.806v-1.111l-1.334.807z"/><path fill="url(#au)" d="m105.998 125.831 1.334-.807v-1.111l-1.334.807z"/><path fill="#1D2330" d="m66.233 71.975.055 51.921 25.286 14.088-.057-51.92z"/><g opacity=".43"><path fill="#247489" d="m88.652 91.87.707.396v-.357l-.707-.397zM88.652 93.164l.707.398v-.358l-.707-.397zM88.652 94.46l.707.397V94.5l-.707-.396zM88.652 95.756l.707.397v-.358l-.707-.397zM88.652 97.05l.707.398v-.359l-.707-.397zM88.652 98.346l.707.397v-.358l-.707-.397zM88.652 99.642l.707.397v-.358l-.707-.397zM88.652 100.936l.707.397v-.358l-.707-.397zM88.652 102.232l.707.397v-.358l-.707-.397zM88.652 103.528l.707.397v-.358l-.707-.397zM88.652 104.822l.707.397v-.357l-.707-.397zM88.652 106.117l.707.397v-.357l-.707-.397zM88.652 107.413l.707.397v-.357l-.707-.397zM88.652 108.708l.707.397v-.357l-.707-.397zM88.652 110.004l.707.397v-.358l-.707-.397zM88.652 111.299l.707.397v-.358l-.707-.397zM88.652 112.594l.707.397v-.358l-.707-.397zM88.652 113.89l.707.397v-.358l-.707-.397zM88.652 115.185l.707.397v-.358l-.707-.397zM88.652 116.48l.707.397v-.358l-.707-.397zM88.652 117.776l.707.397v-.358l-.707-.397zM88.652 119.071l.707.397v-.357l-.707-.397zM88.652 120.365l.707.397v-.357l-.707-.397zM88.652 121.661l.707.397v-.357l-.707-.397zM88.652 122.957l.707.397v-.357l-.707-.397zM88.652 124.252l.707.397v-.357l-.707-.397zM88.652 125.547l.707.397v-.358l-.707-.397z"/><path fill="#70767F" d="m86.41 90.61.707.397v-.357l-.707-.397zM86.41 91.906l.707.397v-.357l-.707-.397zM83.024 90.007l2.605 1.462v-.358l-2.605-1.462zM79.778 88.184l2.605 1.462v-.358l-2.605-1.462zM76.528 86.362l2.605 1.461v-.357l-2.605-1.463zM73.278 84.538l2.605 1.463v-.359l-2.605-1.461zM70.032 82.716l2.605 1.462v-.358l-2.605-1.463zM82.476 90.994l3.153 1.77v-.358l-3.153-1.77zM78.546 88.79l3.153 1.769V90.2l-3.153-1.77zM74.616 86.582l3.153 1.77v-.358l-3.153-1.77zM70.683 84.376l3.153 1.77v-.358l-3.153-1.77zM83.024 99.073l2.605 1.463v-.358l-2.605-1.462zM79.778 97.251l2.605 1.462v-.358l-2.605-1.461zM76.528 95.428l2.605 1.463v-.358l-2.605-1.463zM73.278 93.606l2.605 1.461v-.357l-2.605-1.462zM70.032 91.782l2.605 1.463v-.358l-2.605-1.462zM82.476 100.061l3.153 1.769v-.358l-3.153-1.769zM78.546 97.856l3.153 1.769v-.358l-3.153-1.769zM74.616 95.65l3.153 1.769v-.358l-3.153-1.769zM70.683 93.444l3.153 1.769v-.358l-3.153-1.77zM82.707 112.029l2.922 1.639v-.357l-2.922-1.641zM79.062 109.983l2.922 1.639v-.357l-2.922-1.64zM75.421 107.938l2.923 1.639v-.357l-2.923-1.64zM71.776 105.893l2.923 1.641v-.358l-2.923-1.641zM68.131 103.849l2.924 1.64v-.358l-2.924-1.64zM82.092 112.978l3.537 1.985v-.359l-3.537-1.985zM77.682 110.503l3.537 1.985v-.358l-3.537-1.984zM73.272 108.029l3.537 1.985v-.357l-3.537-1.985zM68.862 105.554l3.536 1.985v-.358l-3.536-1.985zM82.707 118.324l2.922 1.641v-.357l-2.922-1.641zM79.062 116.28l2.922 1.64v-.357l-2.922-1.64zM75.421 114.236l2.923 1.639v-.357l-2.923-1.64zM71.776 112.191l2.923 1.639v-.357l-2.923-1.64zM68.131 110.146l2.924 1.641v-.358l-2.924-1.641zM82.092 119.276l3.537 1.985v-.358l-3.537-1.985zM77.682 116.801l3.537 1.985v-.358l-3.537-1.985zM73.272 114.326l3.537 1.985v-.357l-3.537-1.985zM68.862 111.852l3.536 1.985v-.358l-3.536-1.985zM83.024 92.598l2.605 1.461v-.357l-2.605-1.462zM79.778 90.774l2.605 1.462v-.357l-2.605-1.463zM76.528 88.951l2.605 1.462v-.358l-2.605-1.461zM83.024 104.255l2.605 1.462v-.358l-2.605-1.462zM79.778 102.432l2.605 1.462v-.357l-2.605-1.463zM76.528 100.61l2.605 1.461v-.358l-2.605-1.461zM73.278 98.786l2.605 1.463v-.358l-2.605-1.462zM70.032 96.964l2.605 1.462v-.358l-2.605-1.462zM82.476 105.242l3.153 1.77v-.358l-3.153-1.769zM78.546 103.037l3.153 1.77v-.358l-3.153-1.769zM74.616 100.831l3.153 1.77v-.359l-3.153-1.769zM70.683 98.625l3.153 1.77v-.358l-3.153-1.77z"/><path fill="#247489" d="m83.024 106.846 2.605 1.462v-.357l-2.605-1.463zM79.778 105.024l2.605 1.461v-.357l-2.605-1.462zM76.528 103.199l2.605 1.463v-.358l-2.605-1.462z"/><path fill="#70767F" d="m86.41 93.201.707.397v-.357l-.707-.397zM86.41 94.496l.707.397v-.357l-.707-.397zM86.41 95.792l.707.397v-.357l-.707-.397z"/><path fill="#998359" d="m83.198 95.285 3.92 2.2v-.358l-3.92-2.2z"/><path fill="#247489" d="m78.855 92.848 3.918 2.2v-.358l-3.918-2.2zM74.514 90.412l3.92 2.2v-.358l-3.92-2.2z"/><path fill="#998359" d="m83.198 103.057 3.92 2.199v-.357l-3.92-2.201z"/><path fill="#247489" d="m78.855 100.62 3.918 2.2v-.358l-3.918-2.199zM74.514 98.184l3.92 2.199v-.357l-3.92-2.2z"/><path fill="#998359" d="m83.198 116.009 3.92 2.199v-.357l-3.92-2.2z"/><path fill="#247489" d="m78.855 113.573 3.918 2.2v-.358l-3.918-2.199z"/><path fill="#998359" d="m83.198 121.191 3.92 2.199v-.357l-3.92-2.2z"/><path fill="#247489" d="m78.855 118.754 3.918 2.2v-.358l-3.918-2.2zM74.514 111.137l3.92 2.199v-.357l-3.92-2.2z"/><path fill="#70767F" d="m86.41 98.382.707.397v-.358l-.707-.397zM86.41 99.678l.707.397v-.358l-.707-.397zM86.41 100.974l.707.397v-.358l-.707-.398zM86.41 102.268l.707.397v-.358l-.707-.397zM86.41 103.564l.707.397v-.358l-.707-.397zM86.41 106.154l.707.397v-.357l-.707-.397zM86.41 107.449l.707.397v-.357l-.707-.397zM86.41 108.745l.707.397v-.357l-.707-.398zM86.41 110.04l.707.397v-.357l-.707-.397zM86.41 111.336l.707.397v-.357l-.707-.397zM86.41 112.631l.707.397v-.359l-.707-.397zM86.41 113.926l.707.397v-.358l-.707-.397zM86.41 115.222l.707.397v-.358l-.707-.397zM86.41 116.517l.707.397v-.359l-.707-.397zM86.41 119.108l.707.397v-.358l-.707-.397zM86.41 120.404l.707.397v-.359l-.707-.397zM86.41 121.697l.707.397v-.357l-.707-.397zM86.41 124.289l.707.397v-.358l-.707-.397z"/></g><path stroke="#025A58" stroke-miterlimit="10" stroke-width="1.281" d="m155.91 163.447-9.3-5.417a1.887 1.887 0 0 1-.021-3.251l28.67-17.2c1.323-.794 1.332-2.708.014-3.512l-15.255-9.326c-1.537-.94-1.53-3.171.012-4.101l33.254-20.042a1.834 1.834 0 0 0-.015-3.15l-18.553-10.944"/><path stroke="#025A58" stroke-miterlimit="10" stroke-width="1.281" d="m157.716 85.238-9.613 5.833a1.805 1.805 0 0 0-.003 3.087l14.391 8.773a1.834 1.834 0 0 1 .007 3.128l-24.71 15.204c-1.521.936-1.524 3.141-.006 4.083l13.763 8.529c1.301.807 1.296 2.699-.011 3.497l-25.673 15.682a1.888 1.888 0 0 0-.018 3.212l25.226 15.8"/><path fill="#202633" d="m199.351 186.301-16.036 9.13a5.05 5.05 0 0 1-5.04-.028l-37.546-22.04a2.15 2.15 0 0 1-1.073-1.686c-.07-.801-.324-3.072.476-3.527l16.874-7.819a4.74 4.74 0 0 1 4.734.026l38.226 20.588c.74.432.514 2.686.51 3.436a2.2 2.2 0 0 1-1.125 1.92"/><path fill="url(#av)" d="m199.351 186.183-16.036 9.13a5.05 5.05 0 0 1-5.04-.028l-37.546-22.04a2.15 2.15 0 0 1-1.073-1.686c-.07-.801-.324-3.072.476-3.527l16.874-7.819a4.74 4.74 0 0 1 4.734.026l38.226 20.587c.74.433.514 2.687.51 3.437a2.2 2.2 0 0 1-1.125 1.92"/><path fill="url(#aw)" d="m199.352 184.012-16.036 9.13a5.05 5.05 0 0 1-5.04-.028l-37.546-22.04c-1.451-.847-1.44-2.945.021-3.778l16.257-9.255a4.74 4.74 0 0 1 4.734.026l37.632 22.091c1.48.864 1.468 3.005-.022 3.854"/><path fill="url(#ax)" d="m140.727 170.982 37.546 22.039a5.04 5.04 0 0 0 5.04.028l16.036-9.129a2.2 2.2 0 0 0 1.119-1.878 2.2 2.2 0 0 1-1.119 1.969l-16.036 9.13a5.05 5.05 0 0 1-5.04-.028l-37.546-22.04a2.15 2.15 0 0 1-1.075-1.938 2.15 2.15 0 0 0 1.075 1.847"/><path fill="url(#ay)" d="m141.188 168.063 7.182-4.09a1.14 1.14 0 0 1 1.137.006l.896.52c.259.15.577.15.837.001l3.963-2.285a.404.404 0 0 0 .001-.7l-.649-.377a.395.395 0 0 1 .003-.686l2.887-1.643a3.86 3.86 0 0 1 3.85.021l37.632 22.091c.421.245.67.682.667 1.168a1.33 1.33 0 0 1-.679 1.159l-16.036 9.128a4.16 4.16 0 0 1-4.157-.022l-37.546-22.04a1.28 1.28 0 0 1-.644-1.129c.002-.47.248-.89.656-1.122"/><path fill="#454B5B" d="m150.649 163.713 3.001-1.606c.135-.072.144-.217.022-.32a.45.45 0 0 0-.468-.058l-3.002 1.605c-.135.072-.144.217-.021.321.123.103.334.13.468.058"/><path fill="#17538C" d="m158.56 163.665.005.008a.7.7 0 0 0 .217.19l2.991 1.735a1.2 1.2 0 0 0 .357.131q.169.038.347.038h.012q.187-.001.364-.041l.014-.003c.117-.028.228-.07.324-.125l3.017-1.739c.197-.114.297-.263.297-.414l.003 1.133c0 .149-.1.3-.297.414l-3.017 1.739a1.1 1.1 0 0 1-.338.128l-.035.008-.099.018-.098.01q-.048.004-.098.005h-.102q-.056-.002-.111-.007-.064-.007-.127-.018-.027-.006-.054-.013-.024-.006-.048-.012-.044-.009-.087-.021a1.2 1.2 0 0 1-.221-.098l-2.991-1.735-.012-.007a.7.7 0 0 1-.192-.163q-.008-.008-.014-.02l-.005-.008q-.012-.017-.022-.033l-.027-.057a.4.4 0 0 1-.023-.115v-.01l-.003-1.132a.37.37 0 0 0 .073.214"/><path fill="#1D7BC9" d="M158.78 163.04c-.391.226-.393.594.001.823l2.991 1.735c.395.229 1.027.226 1.418 0l3.017-1.739c.391-.226.399-.591.004-.82l-2.991-1.735c-.394-.229-1.031-.229-1.423-.003z"/><path fill="#F98F16" d="m152.497 166.897.006.009q.072.103.217.189l2.99 1.736a1.3 1.3 0 0 0 .358.13q.17.038.346.039h.013q.186-.001.363-.042l.015-.003c.117-.028.228-.069.324-.124l3.016-1.74c.198-.114.297-.263.297-.413l.003 1.133c0 .149-.099.299-.297.413l-3.016 1.74a1.3 1.3 0 0 1-.268.11q-.029.008-.056.014l-.015.003-.034.008a1 1 0 0 1-.197.028q-.049.004-.099.005h-.102q-.055-.002-.111-.007a2 2 0 0 1-.126-.017l-.054-.014-.048-.011q-.044-.01-.087-.022a1.2 1.2 0 0 1-.221-.097l-2.991-1.736-.013-.007a1 1 0 0 1-.129-.095 1 1 0 0 1-.063-.068l-.013-.019-.006-.009q-.011-.016-.021-.033a.3.3 0 0 1-.027-.057.3.3 0 0 1-.017-.057.3.3 0 0 1-.006-.058v-.009l-.003-1.133a.4.4 0 0 0 .072.214"/><path fill="#FBD008" d="M152.718 166.272c-.392.226-.394.594.001.823l2.991 1.735c.394.229 1.026.226 1.418 0l3.017-1.739c.391-.226.398-.591.004-.82l-2.991-1.736c-.395-.229-1.032-.229-1.423-.003z"/><path fill="#1D7BC9" d="m146.435 170.13.005.008a.7.7 0 0 0 .217.19l2.991 1.735c.091.053.198.091.309.119q.023.007.048.012.169.038.347.038h.012a1.8 1.8 0 0 0 .378-.045c.117-.028.228-.069.324-.124l3.017-1.739c.197-.114.297-.264.297-.414l.003 1.133c0 .149-.1.3-.297.414l-3.017 1.739q-.069.04-.145.069a2 2 0 0 1-.179.055l-.014.003-.035.009-.099.017q-.048.007-.098.011-.048.004-.098.005h-.102q-.056-.002-.111-.007l-.127-.018q-.027-.006-.054-.013-.024-.007-.048-.012-.044-.009-.087-.022a1.2 1.2 0 0 1-.221-.097l-2.991-1.735-.012-.007a.8.8 0 0 1-.192-.163q-.008-.01-.014-.02l-.005-.008q-.012-.017-.022-.033l-.027-.057a.4.4 0 0 1-.023-.115v-.01l-.003-1.133a.4.4 0 0 0 .073.215"/><path fill="#88C8F5" d="M146.655 169.505c-.391.226-.393.594.001.823l2.991 1.735c.395.229 1.027.226 1.418 0l3.017-1.739c.391-.226.399-.591.004-.82l-2.991-1.735c-.394-.229-1.031-.229-1.423-.003z"/><path fill="url(#az)" d="m165.118 167.509.006.008q.072.104.217.19l2.991 1.735a1.2 1.2 0 0 0 .357.13q.17.038.346.039h.013q.186-.001.363-.042l.015-.003c.117-.028.228-.069.324-.124l3.016-1.738c.198-.114.297-.264.297-.414l.003 1.133c0 .149-.099.3-.296.414l-3.017 1.739q-.07.04-.146.069-.059.023-.122.042l-.056.013-.015.003q-.016.005-.034.009l-.1.017q-.048.007-.097.011t-.099.005h-.102q-.055-.002-.111-.007l-.126-.018q-.028-.005-.054-.014l-.048-.011q-.044-.009-.087-.022a1.2 1.2 0 0 1-.221-.097l-2.991-1.735-.013-.008a.7.7 0 0 1-.192-.162l-.013-.02-.005-.008q-.013-.017-.022-.033a.4.4 0 0 1-.044-.114.3.3 0 0 1-.006-.059v-.009l-.003-1.133q0 .109.072.214"/><path fill="url(#aA)" d="M165.339 166.883c-.391.226-.394.594.001.823l2.991 1.735c.394.229 1.027.226 1.418 0l3.017-1.739c.391-.226.398-.591.004-.82l-2.991-1.735c-.394-.229-1.032-.229-1.423-.003z"/><path fill="#63646A" d="m159.052 170.74.005.008a.7.7 0 0 0 .217.19l2.991 1.735a1.2 1.2 0 0 0 .357.131q.17.038.347.038h.012q.186-.001.364-.041l.014-.003c.118-.028.229-.07.324-.125l3.017-1.738c.197-.114.297-.263.297-.414l.003 1.133c0 .15-.1.3-.297.414l-3.017 1.739a1.1 1.1 0 0 1-.324.125l-.014.003-.034.008-.1.018q-.048.006-.098.01-.048.004-.098.005h-.102l-.111-.007a1 1 0 0 1-.127-.018q-.026-.006-.054-.013-.023-.005-.047-.012-.046-.009-.088-.021a1 1 0 0 1-.221-.098l-2.991-1.735-.012-.007a.66.66 0 0 1-.192-.163l-.014-.02-.005-.008-.023-.033-.027-.057a.4.4 0 0 1-.022-.115v-.009l-.004-1.133a.4.4 0 0 0 .074.213"/><path fill="#A4A6B0" d="M159.273 170.115c-.392.226-.394.594.001.823l2.99 1.736c.395.229 1.027.226 1.419 0l3.016-1.74c.392-.226.399-.591.004-.82l-2.99-1.735c-.395-.229-1.032-.229-1.424-.003z"/><path fill="#BEC1CC" d="m152.994 173.974.005.008q.072.104.217.19l2.991 1.735a1.2 1.2 0 0 0 .357.13q.17.038.346.039h.013q.186-.002.363-.042l.015-.003c.117-.028.228-.069.324-.124l3.016-1.74c.198-.114.297-.263.297-.413l.003 1.133c0 .149-.099.299-.296.413l-3.017 1.74a1.2 1.2 0 0 1-.339.127l-.034.008a1 1 0 0 1-.1.018q-.048.007-.097.01-.049.005-.099.006h-.102q-.055-.002-.111-.008a2 2 0 0 1-.126-.017q-.028-.006-.054-.014l-.048-.011q-.044-.01-.087-.022a1.2 1.2 0 0 1-.221-.097l-2.991-1.735-.013-.008a.7.7 0 0 1-.192-.162l-.013-.02-.005-.008q-.013-.017-.022-.034a.343.343 0 0 1-.05-.172v-.009l-.003-1.133a.4.4 0 0 0 .073.215"/><path fill="#fff" d="M153.214 173.348c-.391.226-.394.594.001.823l2.991 1.735c.394.229 1.027.226 1.418 0l3.017-1.739c.391-.226.398-.591.004-.82l-2.991-1.735c-.394-.229-1.032-.229-1.423-.003z"/><path fill="#BEC1CC" d="m171.677 171.351.005.008a.7.7 0 0 0 .217.19l2.991 1.735a1.2 1.2 0 0 0 .357.13q.17.038.347.039h.012q.186-.001.364-.042l.014-.003c.118-.028.229-.069.324-.124l3.017-1.74c.197-.114.297-.263.297-.413l.003 1.133c0 .149-.1.299-.297.413l-3.017 1.74a1.363 1.363 0 0 1-.324.124l-.014.003-.034.008a1 1 0 0 1-.198.028q-.048.005-.098.006h-.102q-.056-.002-.111-.008a2 2 0 0 1-.127-.017q-.026-.006-.054-.014l-.047-.011q-.046-.01-.088-.022a1.2 1.2 0 0 1-.221-.097l-2.991-1.736-.012-.007a.8.8 0 0 1-.192-.162l-.014-.02-.005-.008-.022-.034-.027-.057a.3.3 0 0 1-.022-.115v-.009l-.004-1.133q0 .111.073.215"/><path fill="url(#aB)" d="M171.901 170.726c-.391.226-.393.594.001.823l2.991 1.735c.395.229 1.027.226 1.418 0l3.017-1.739c.392-.226.399-.591.004-.82l-2.99-1.735c-.395-.229-1.032-.229-1.424-.004z"/><path fill="#1D7BC9" d="m165.615 174.583.005.008q.073.105.217.19l2.991 1.735c.091.053.198.091.309.119q.023.007.048.012.17.038.346.038h.013q.186-.001.363-.041l.015-.003c.117-.028.228-.07.324-.125l3.016-1.739c.198-.114.297-.263.297-.414l.003 1.133c0 .149-.099.3-.296.414l-3.017 1.739a1.2 1.2 0 0 1-.324.124l-.015.004q-.015.005-.034.008a2 2 0 0 1-.197.028q-.049.004-.099.005h-.102q-.055-.002-.111-.007a2 2 0 0 1-.126-.018q-.028-.006-.054-.013-.024-.006-.048-.012-.044-.009-.087-.021a1.2 1.2 0 0 1-.221-.098l-2.991-1.735-.013-.007a.7.7 0 0 1-.192-.163l-.013-.02-.005-.008q-.013-.016-.022-.033a.4.4 0 0 1-.044-.114.3.3 0 0 1-.006-.058v-.01l-.003-1.133q.001.112.073.215"/><path fill="#88C8F5" d="M165.839 173.957c-.391.226-.394.594.001.823l2.991 1.735c.394.229 1.027.226 1.418 0l3.017-1.739c.391-.226.398-.591.004-.82l-2.991-1.735c-.394-.229-1.032-.229-1.423-.003z"/><path fill="url(#aC)" d="m159.552 177.815.005.009a.7.7 0 0 0 .217.189l2.991 1.736a1.2 1.2 0 0 0 .357.13q.17.038.347.038h.012q.186-.001.364-.041l.014-.003a1.2 1.2 0 0 0 .324-.124l3.017-1.739c.197-.114.297-.263.297-.413l.003 1.133c0 .149-.1.299-.297.413l-3.017 1.739a1 1 0 0 1-.268.111q-.027.008-.056.014l-.014.003-.034.008a1 1 0 0 1-.1.018q-.048.007-.098.01l-.098.005h-.102q-.056-.002-.111-.007a2 2 0 0 1-.127-.017l-.054-.014-.047-.011q-.046-.01-.088-.022a1 1 0 0 1-.221-.098l-2.991-1.735-.012-.007a.66.66 0 0 1-.192-.163l-.014-.019-.005-.009-.022-.033-.027-.057a.3.3 0 0 1-.022-.115v-.009l-.004-1.133a.37.37 0 0 0 .073.213"/><path fill="url(#aD)" d="M159.776 177.191c-.391.226-.393.594.001.823l2.991 1.735c.395.229 1.027.226 1.418 0l3.017-1.74c.392-.226.399-.59.004-.819l-2.99-1.736c-.395-.229-1.032-.229-1.424-.003z"/><path fill="#63646A" d="m178.236 175.194.005.009q.073.104.217.189l2.991 1.735c.091.053.198.092.309.12l.048.011q.169.038.347.038h.012q.187-.001.363-.041l.015-.003c.117-.028.228-.07.324-.125l3.017-1.739c.197-.114.296-.263.296-.413l.004 1.133c0 .149-.1.299-.297.413l-3.017 1.739a1.2 1.2 0 0 1-.268.111l-.056.014-.015.003q-.015.005-.034.008l-.099.018q-.049.006-.098.01l-.099.005h-.101q-.056-.002-.111-.007a1 1 0 0 1-.127-.018q-.027-.006-.054-.013l-.048-.011q-.044-.01-.087-.022a1 1 0 0 1-.221-.098l-2.991-1.735-.012-.007a.7.7 0 0 1-.193-.163l-.013-.019-.005-.009q-.012-.016-.022-.033a.5.5 0 0 1-.044-.114.3.3 0 0 1-.006-.058v-.009l-.003-1.133a.37.37 0 0 0 .073.214"/><path fill="#A4A6B0" d="M178.456 174.569c-.391.225-.393.593.001.823l2.991 1.735c.395.229 1.027.226 1.418 0l3.017-1.74c.391-.226.399-.59.004-.82l-2.991-1.735c-.394-.229-1.032-.229-1.423-.003z"/><path fill="#0F4470" d="m172.173 178.427.005.008a.7.7 0 0 0 .217.19l2.991 1.735a1.2 1.2 0 0 0 .357.13q.17.038.347.039h.013c.123-.001.247-.015.363-.042l.014-.003c.118-.028.229-.069.324-.124l3.017-1.739c.197-.114.297-.264.297-.414l.003 1.133c0 .149-.1.3-.297.414l-3.017 1.739a1.456 1.456 0 0 1-.267.111l-.057.013-.014.003-.034.009-.1.017q-.047.007-.098.011-.048.004-.098.005h-.102q-.056-.002-.111-.007l-.127-.018q-.026-.005-.054-.014l-.047-.011q-.045-.009-.088-.022a1.2 1.2 0 0 1-.221-.097l-2.991-1.735-.012-.008a.8.8 0 0 1-.192-.162l-.014-.02-.005-.008-.022-.033-.027-.057a.4.4 0 0 1-.022-.116v-.009l-.003-1.133a.4.4 0 0 0 .072.215"/><path fill="#1D7BC9" d="M172.398 177.801c-.392.226-.394.594.001.823l2.99 1.735c.395.229 1.027.226 1.419 0l3.016-1.739c.392-.226.399-.591.004-.82l-2.99-1.735c-.395-.229-1.032-.229-1.424-.003z"/><path fill="#F98F16" d="m166.111 181.659.005.008q.073.105.217.19l2.991 1.735c.091.053.198.092.309.12l.048.011q.169.038.347.038h.012q.187-.001.363-.041l.015-.003c.117-.028.228-.07.324-.125l3.017-1.739c.197-.114.296-.263.296-.414l.004 1.133c0 .15-.1.3-.297.414l-3.017 1.739a1.2 1.2 0 0 1-.268.111l-.056.014-.015.003q-.015.005-.034.008l-.099.018q-.049.006-.098.01l-.099.005h-.101q-.056-.002-.111-.007a1 1 0 0 1-.127-.018q-.027-.006-.054-.013-.024-.005-.048-.012-.044-.009-.087-.021a1 1 0 0 1-.221-.098l-2.991-1.735-.012-.007a.7.7 0 0 1-.193-.163l-.013-.02-.005-.008q-.012-.016-.022-.033a.5.5 0 0 1-.044-.114.3.3 0 0 1-.006-.058v-.009l-.003-1.133a.37.37 0 0 0 .073.214"/><path fill="#FBD008" d="M166.331 181.034c-.391.226-.393.594.001.823l2.991 1.735c.395.23 1.027.226 1.418 0l3.017-1.739c.391-.226.399-.591.004-.82l-2.991-1.735c-.394-.229-1.032-.229-1.423-.003z"/><path stroke="#025A58" stroke-miterlimit="10" stroke-width="1.281" d="m155.492 182.743-18.266 10.574a4.16 4.16 0 0 1-4.259-.057l-15.861-9.758a5.11 5.11 0 0 0-5.233-.072l-42.164 24.373a4.16 4.16 0 0 1-4.293-.081L47.74 196.599"/><path fill="url(#aE)" d="m40.931 209.536 28.42-16.175c.362-.206.585-.532.67-.888.039-.16.27-3.54-.139-3.78l-37.384-19.558a2.38 2.38 0 0 0-2.386-.02L.87 183.234c-.461.262-.226 3.861-.144 4.071.114.292.322.555.629.736l36.307 21.467a3.25 3.25 0 0 0 3.27.028"/><path fill="url(#aF)" d="m40.931 209.431 28.42-16.175c.362-.206.585-.533.67-.888.039-.16.27-3.54-.139-3.781l-37.384-19.558a2.38 2.38 0 0 0-2.386-.019L.87 183.128c-.461.262-.226 3.861-.144 4.072.114.292.322.554.629.735l36.307 21.468a3.26 3.26 0 0 0 3.27.028"/><path fill="url(#aG)" d="m40.93 206.281 28.42-16.175a1.4 1.4 0 0 0 .02-2.425l-36.873-21.802a2.38 2.38 0 0 0-2.387-.02L1.374 182.214a1.487 1.487 0 0 0-.022 2.572l36.308 21.468a3.26 3.26 0 0 0 3.27.027"/><path fill="#fff" d="m69.35 190.036-28.42 16.175a3.26 3.26 0 0 1-3.27-.027L1.354 184.716a1.46 1.46 0 0 1-.725-1.254 1.47 1.47 0 0 0 .725 1.325l36.308 21.467a3.26 3.26 0 0 0 3.27.027l28.419-16.175c.48-.274.713-.761.705-1.244a1.39 1.39 0 0 1-.705 1.174"/><path fill="url(#aH)" d="m35.89 192.748-.265.16-10.727-6.185-6.833 3.955-.266-.146 7.099-4.114z"/><path fill="url(#aI)" d="m35.625 192.908-6.832 3.955-10.728-6.185 6.833-3.955z"/><path fill="#00344A" d="m32.875 170.728-1.673-.971-1.832 1.076 1.674.971zM31.523 172.937l-2.886-1.674-1.83 1.076 2.885 1.674zM35.293 172.13l-1.673-.97-1.832 1.076 1.674.97zM37.715 173.533l-1.674-.971-1.83 1.076 1.673.971zM40.133 174.936l-1.674-.971-1.83 1.077 1.673.97zM42.55 176.339l-1.673-.97-1.83 1.076 1.672.97zM44.973 177.741l-1.674-.97-1.831 1.075 1.673.971zM47.39 179.144l-1.673-.97-1.831 1.076 1.673.97zM49.809 180.546l-1.674-.97-1.831 1.076 1.673.97zM52.23 181.95l-1.673-.971-1.831 1.076 1.673.972zM54.648 183.353l-1.673-.97-1.831 1.076 1.673.97zM57.066 184.755l-1.673-.97-1.831 1.076 1.673.97zM59.488 186.159l-1.673-.971-1.831 1.075 1.673.972zM60.233 186.591l-1.831 1.076 2.708 1.57 1.831-1.076zM33.766 174.237l-1.674-.97-1.831 1.076 1.673.97zM36.184 175.639l-1.674-.97-1.831 1.076 1.673.97zM38.602 177.041l-1.674-.97-1.831 1.076 1.673.971zM41.023 178.445l-1.673-.97-1.831 1.076 1.673.97zM43.441 179.847l-1.673-.97-1.831 1.076 1.673.97zM45.863 181.251l-1.673-.972-1.831 1.076 1.673.971zM48.281 182.653l-1.673-.97-1.831 1.076 1.673.97zM50.7 184.056l-1.674-.97-1.832 1.076 1.674.97zM53.117 185.46l-1.673-.972-1.832 1.077 1.674.97zM55.781 186.97l-1.673-.97-1.831 1.076 1.673.97zM57.957 188.264l-1.673-.97-1.832 1.076 1.674.97zM56.874 189.773l1.674.97 1.83-1.076-1.672-.97zM19.119 176.858l2.886 1.673 1.83-1.076-2.885-1.673zM22.57 178.861l1.673.97 1.831-1.076-1.673-.97zM24.988 180.263l1.673.971 1.831-1.076-1.673-.97zM38.92 186.202l-.746-.433-1.674-.971-.745-.432-1.673-.97-.747-.433-1.673-.97-2.42-1.403-1.83 1.076 2.418 1.403 1.674.97.746.433 1.674.97.745.433 1.674.97.746.433.837.485.837.485 1.83-1.076-.836-.485zM39.507 188.679l1.673.971 1.832-1.076-1.674-.97zM41.925 190.083l1.673.97 1.832-1.076-1.674-.97zM44.347 191.486l1.673.97 1.832-1.076-1.674-.97zM46.765 192.888l1.673.972 1.831-1.077-1.673-.971zM49.183 194.291l1.673.97 1.831-1.076-1.673-.97zM29.79 174.923l-3.714-2.153-1.832 1.075 3.714 2.154zM32.031 176.222l-1.673-.97-1.832 1.076 1.674.97zM34.45 177.624l-1.674-.97-1.832 1.076 1.674.97zM36.867 179.028l-1.673-.97-1.832 1.076 1.674.971zM39.29 180.431l-1.674-.97-1.832 1.076 1.674.97zM41.707 181.833l-1.673-.97-1.832 1.076 1.674.97zM44.125 183.237l-1.673-.971-1.832 1.076 1.674.971zM46.547 184.639l-1.674-.97-1.83 1.076 1.673.97zM48.965 186.041l-1.674-.97-1.83 1.076 1.673.97zM51.383 187.446l-1.674-.971-1.83 1.077 1.672.97zM53.805 188.847l-1.674-.97-1.831 1.076 1.673.97zM52.72 190.356l3.265 1.894 1.831-1.076-3.266-1.894zM27.734 176.724l-4.222-2.449-1.831 1.077 4.222 2.448zM29.973 178.023l-1.674-.97-1.831 1.076 1.673.97zM32.395 179.425l-1.674-.97-1.831 1.076 1.673.971zM34.813 180.829l-1.674-.971-1.831 1.076 1.673.97zM37.234 182.232l-1.673-.97-1.831 1.076 1.673.97zM39.652 183.635l-1.673-.971-1.831 1.076 1.673.971zM42.07 185.038l-1.673-.971-1.831 1.076 1.673.97zM44.488 186.44l-1.673-.97-1.831 1.076 1.673.97zM46.91 187.843l-1.673-.971-1.832 1.076 1.674.971zM49.328 189.246l-1.673-.971-1.832 1.076 1.674.97zM48.243 190.754l5.176 3.001 1.831-1.075-5.176-3.002zM35.57 165l34.687 22.936c.484.288 3.323-1.524 3.444-1.637a1.55 1.55 0 0 0 .494-1.145v-36.983a3.93 3.93 0 0 0-1.927-3.382l-35.65-21.149c-.474-.281-1-.303-1.453-.137-.128.047-3.06 1.114-3.06 1.727l1.94 37.093c0 1.099.58 2.115 1.526 2.677"/><path fill="url(#aJ)" d="m33.083 166.242 36.247 21.504c1.048.622 2.377-.132 2.377-1.35v-36.984a3.93 3.93 0 0 0-1.928-3.382l-35.65-21.149c-1.135-.674-2.573.143-2.573 1.461v37.223a3.11 3.11 0 0 0 1.527 2.677"/><path fill="url(#aK)" d="M70.133 184.955a.4.4 0 0 1-.223-.064l-36.248-21.504a1.99 1.99 0 0 1-.974-1.707v-35.338c0-.355.3-.574.577-.574q.148 0 .288.081l35.65 21.15a2.82 2.82 0 0 1 1.375 2.413v35.099a.42.42 0 0 1-.13.315.46.46 0 0 1-.315.129"/><path fill="url(#aL)" d="m69.78 146.03-35.651-21.149a1.69 1.69 0 0 0-1.743.007 1.68 1.68 0 0 1 1.622.053l35.65 21.149a3.94 3.94 0 0 1 1.929 3.383v36.983a1.55 1.55 0 0 1-.764 1.342 1.55 1.55 0 0 0 .884-1.402v-36.984a3.93 3.93 0 0 0-1.928-3.382" opacity=".51"/><path fill="#302A2A" d="m65.348 185.373-.787.456-2.503-1.443.787-.456zM37.106 168.652l-.787.457-2.503-1.443.787-.457z"/><path fill="url(#aM)" d="m65.348 185.305-.787.457-2.503-1.443.787-.457z"/><path fill="url(#aN)" d="m37.106 168.614-.787.456-2.503-1.443.787-.456z"/><path stroke="#F1F1F2" stroke-miterlimit="10" stroke-width=".492" d="M43.353 160.478c-5.174-6.977-6.263-14.927-2.434-17.758 3.83-2.83 11.127.531 16.3 7.508s6.263 14.927 2.434 17.757c-3.83 2.831-11.127-.53-16.3-7.507Z"/><path stroke="#F1F1F2" stroke-miterlimit="10" stroke-width=".492" d="M41.298 142.342c1.359 4.06 4.869 8.5 8.984 11.009 4.095 2.497 7.59 2.348 8.964-.021"/><path stroke="#F1F1F2" stroke-miterlimit="10" stroke-width=".492" d="M39.122 145.271c2.335 5.232 6.46 10.278 11.159 13.143 4.774 2.91 8.957 2.848 11.27.346"/><path stroke="#F1F1F2" stroke-miterlimit="10" stroke-width=".474" d="M38.738 150.15c2.845 5.409 6.963 10.229 11.543 13.021 4.617 2.814 8.762 2.997 11.61 1.008"/><path stroke="#F1F1F2" stroke-miterlimit="10" stroke-width=".492" d="M48.756 148.477c-2.386-2-3.631-4.441-2.78-5.452.85-1.012 3.474-.21 5.86 1.789 2.386 2 3.63 4.442 2.78 5.453s-3.474.21-5.86-1.79Z"/><path stroke="#F1F1F2" stroke-miterlimit="10" stroke-width=".492" d="M49.507 146.293c-1.218-1.021-1.853-2.267-1.42-2.783.435-.517 1.774-.108 2.992.913 1.219 1.021 1.854 2.267 1.42 2.784s-1.774.107-2.992-.914Z"/><path stroke="#F1F1F2" stroke-miterlimit="10" stroke-width=".474" d="M50.281 146.854v20.123M52.648 147.161s5.632 5.222 6.64 14.55c1.033 9.573-5.76 6.809-5.76 6.809"/><path stroke="#F1F1F2" stroke-miterlimit="10" stroke-width=".474" d="M51.388 147.32s2.994 4.03 3.817 12.118-3.518 8.244-3.518 8.244M48.117 144.397s-5.633-1.646-6.64 6.454c-1.034 8.313 5.759 13.829 5.759 13.829"/><path stroke="#F1F1F2" stroke-miterlimit="10" stroke-width=".474" d="M49.379 146.096s-2.994.379-3.817 7.463 3.518 12.533 3.518 12.533"/></g><defs><linearGradient id="b" x1="205.704" x2="253.054" y1="147.546" y2="150.042" gradientUnits="userSpaceOnUse"><stop stop-color="#262C3D"/><stop offset="1" stop-color="#7D859E"/></linearGradient><linearGradient id="c" x1="205.704" x2="253.054" y1="147.441" y2="149.937" gradientUnits="userSpaceOnUse"><stop stop-color="#CBCBD6"/><stop offset="1" stop-color="#F9FAF9"/></linearGradient><linearGradient id="d" x1="267" x2="197.564" y1="145.688" y2="145.688" gradientUnits="userSpaceOnUse"><stop stop-color="#CBCBD6"/><stop offset="1" stop-color="#F9FAF9"/></linearGradient><linearGradient id="e" x1="232.987" x2="245.748" y1="149.105" y2="149.451" gradientUnits="userSpaceOnUse"><stop stop-color="#CBCBD6"/><stop offset="1" stop-color="#878C9F"/></linearGradient><linearGradient id="f" x1="232.065" x2="249.484" y1="150.952" y2="151.757" gradientUnits="userSpaceOnUse"><stop stop-color="#CBCBD6"/><stop offset="1" stop-color="#F9FAF9"/></linearGradient><linearGradient id="g" x1="236.07" x2="195.919" y1="115.864" y2="115.864" gradientUnits="userSpaceOnUse"><stop stop-color="#262C3D"/><stop offset="1" stop-color="#7D859E"/></linearGradient><linearGradient id="h" x1="222.804" x2="210.153" y1="126.179" y2="105.296" gradientUnits="userSpaceOnUse"><stop stop-color="#1D7ECE"/><stop offset="1" stop-color="#4CA5ED"/></linearGradient><linearGradient id="i" x1="224.324" x2="187.174" y1="92.547" y2="139.096" gradientUnits="userSpaceOnUse"><stop stop-color="#262C3D"/><stop offset=".382" stop-color="#fff"/><stop offset="1" stop-color="#7D859E"/></linearGradient><linearGradient id="j" x1="223.73" x2="204.366" y1="96.468" y2="143.442" gradientUnits="userSpaceOnUse"><stop stop-color="#262C3D"/><stop offset="1" stop-color="#7D859E"/></linearGradient><linearGradient id="k" x1="251.972" x2="232.608" y1="79.777" y2="126.751" gradientUnits="userSpaceOnUse"><stop stop-color="#262C3D"/><stop offset="1" stop-color="#7D859E"/></linearGradient><linearGradient id="l" x1="142.721" x2="140.19" y1="36.745" y2="36.745" gradientUnits="userSpaceOnUse"><stop stop-color="#C2C3D0"/><stop offset="1" stop-color="#7D859E"/></linearGradient><linearGradient id="m" x1="142.328" x2="140.581" y1="12.858" y2="12.858" gradientUnits="userSpaceOnUse"><stop stop-color="#CBCBD6"/><stop offset="1" stop-color="#F9FAF9"/></linearGradient><linearGradient id="n" x1="165.358" x2="162.826" y1="24.429" y2="24.429" gradientUnits="userSpaceOnUse"><stop stop-color="#C2C3D0"/><stop offset="1" stop-color="#7D859E"/></linearGradient><linearGradient id="o" x1="164.965" x2="163.218" y1=".541" y2=".541" gradientUnits="userSpaceOnUse"><stop stop-color="#CBCBD6"/><stop offset="1" stop-color="#F9FAF9"/></linearGradient><linearGradient id="p" x1="196.668" x2="167.492" y1="75.723" y2="75.723" gradientUnits="userSpaceOnUse"><stop stop-color="#C2C3D0"/><stop offset="1" stop-color="#7D859E"/></linearGradient><linearGradient id="q" x1="160.812" x2="157.627" y1="90.599" y2="57.479" gradientUnits="userSpaceOnUse"><stop stop-color="#01BEFF"/><stop offset=".065" stop-color="#019BD2"/><stop offset=".136" stop-color="#017CA8"/><stop offset=".209" stop-color="#006186"/><stop offset=".282" stop-color="#004D6C"/><stop offset=".357" stop-color="#003E59"/><stop offset=".434" stop-color="#00364E"/><stop offset=".517" stop-color="#00334A"/><stop offset=".58" stop-color="#00374C"/><stop offset=".648" stop-color="#014450"/><stop offset=".717" stop-color="#025A58"/><stop offset=".788" stop-color="#047864"/><stop offset=".861" stop-color="#079E72"/><stop offset=".933" stop-color="#0ACD83"/><stop offset="1" stop-color="#0DFF96"/></linearGradient><linearGradient id="r" x1="194.453" x2="169.511" y1="75.674" y2="78.137" gradientUnits="userSpaceOnUse"><stop stop-color="#969BBC"/><stop offset=".995" stop-color="#4F566A"/></linearGradient><linearGradient id="s" x1="125.068" x2="95.75" y1="127.692" y2="79.343" gradientUnits="userSpaceOnUse"><stop stop-color="#CBCBD6"/><stop offset="1" stop-color="#F9FAF9"/></linearGradient><linearGradient id="t" x1="122.364" x2="97.885" y1="124.44" y2="84.072" gradientUnits="userSpaceOnUse"><stop stop-color="#262C3D"/><stop offset="1" stop-color="#7D859E"/></linearGradient><linearGradient id="u" x1="87.001" x2="83.453" y1="93.192" y2="56.354" gradientUnits="userSpaceOnUse"><stop stop-color="#01BEFF"/><stop offset=".065" stop-color="#019BD2"/><stop offset=".136" stop-color="#017CA8"/><stop offset=".209" stop-color="#006186"/><stop offset=".282" stop-color="#004D6C"/><stop offset=".357" stop-color="#003E59"/><stop offset=".434" stop-color="#00364E"/><stop offset=".517" stop-color="#00334A"/><stop offset=".58" stop-color="#00374C"/><stop offset=".648" stop-color="#014450"/><stop offset=".717" stop-color="#025A58"/><stop offset=".788" stop-color="#047864"/><stop offset=".861" stop-color="#079E72"/><stop offset=".933" stop-color="#0ACD83"/><stop offset="1" stop-color="#0DFF96"/></linearGradient><linearGradient id="v" x1="112.741" x2="108.059" y1="90.456" y2="82.735" gradientUnits="userSpaceOnUse"><stop stop-color="#CBCBD6"/><stop offset="1" stop-color="#F9FAF9"/></linearGradient><linearGradient id="w" x1="116.166" x2="108.888" y1="84.938" y2="80.577" gradientUnits="userSpaceOnUse"><stop stop-color="#CBCBD6"/><stop offset="1" stop-color="#F9FAF9"/></linearGradient><linearGradient id="x" x1="115.055" x2="107.778" y1="86.791" y2="82.43" gradientUnits="userSpaceOnUse"><stop stop-color="#CBCBD6"/><stop offset="1" stop-color="#F9FAF9"/></linearGradient><linearGradient id="y" x1="113.945" x2="106.668" y1="88.644" y2="84.283" gradientUnits="userSpaceOnUse"><stop stop-color="#CBCBD6"/><stop offset="1" stop-color="#F9FAF9"/></linearGradient><linearGradient id="z" x1="112.835" x2="105.557" y1="90.497" y2="86.135" gradientUnits="userSpaceOnUse"><stop stop-color="#CBCBD6"/><stop offset="1" stop-color="#F9FAF9"/></linearGradient><linearGradient id="A" x1="115.471" x2="108.193" y1="86.097" y2="81.736" gradientUnits="userSpaceOnUse"><stop stop-color="#CBCBD6"/><stop offset="1" stop-color="#F9FAF9"/></linearGradient><linearGradient id="B" x1="114.361" x2="107.083" y1="87.95" y2="83.588" gradientUnits="userSpaceOnUse"><stop stop-color="#CBCBD6"/><stop offset="1" stop-color="#F9FAF9"/></linearGradient><linearGradient id="C" x1="113.251" x2="105.973" y1="89.802" y2="85.441" gradientUnits="userSpaceOnUse"><stop stop-color="#CBCBD6"/><stop offset="1" stop-color="#F9FAF9"/></linearGradient><linearGradient id="D" x1="112.141" x2="104.863" y1="91.655" y2="87.294" gradientUnits="userSpaceOnUse"><stop stop-color="#CBCBD6"/><stop offset="1" stop-color="#F9FAF9"/></linearGradient><linearGradient id="E" x1="114.777" x2="107.499" y1="87.255" y2="82.894" gradientUnits="userSpaceOnUse"><stop stop-color="#CBCBD6"/><stop offset="1" stop-color="#F9FAF9"/></linearGradient><linearGradient id="F" x1="113.667" x2="106.389" y1="89.108" y2="84.747" gradientUnits="userSpaceOnUse"><stop stop-color="#CBCBD6"/><stop offset="1" stop-color="#F9FAF9"/></linearGradient><linearGradient id="G" x1="112.557" x2="105.279" y1="90.961" y2="86.6" gradientUnits="userSpaceOnUse"><stop stop-color="#CBCBD6"/><stop offset="1" stop-color="#F9FAF9"/></linearGradient><linearGradient id="H" x1="111.447" x2="104.169" y1="92.814" y2="88.453" gradientUnits="userSpaceOnUse"><stop stop-color="#CBCBD6"/><stop offset="1" stop-color="#F9FAF9"/></linearGradient><linearGradient id="I" x1="112.741" x2="108.059" y1="102.094" y2="94.373" gradientUnits="userSpaceOnUse"><stop stop-color="#CBCBD6"/><stop offset="1" stop-color="#F9FAF9"/></linearGradient><linearGradient id="J" x1="116.166" x2="108.888" y1="96.576" y2="92.215" gradientUnits="userSpaceOnUse"><stop stop-color="#CBCBD6"/><stop offset="1" stop-color="#F9FAF9"/></linearGradient><linearGradient id="K" x1="115.056" x2="107.778" y1="98.429" y2="94.067" gradientUnits="userSpaceOnUse"><stop stop-color="#CBCBD6"/><stop offset="1" stop-color="#F9FAF9"/></linearGradient><linearGradient id="L" x1="113.945" x2="106.668" y1="100.281" y2="95.92" gradientUnits="userSpaceOnUse"><stop stop-color="#CBCBD6"/><stop offset="1" stop-color="#F9FAF9"/></linearGradient><linearGradient id="M" x1="112.835" x2="105.558" y1="102.134" y2="97.773" gradientUnits="userSpaceOnUse"><stop stop-color="#CBCBD6"/><stop offset="1" stop-color="#F9FAF9"/></linearGradient><linearGradient id="N" x1="115.471" x2="108.193" y1="97.734" y2="93.373" gradientUnits="userSpaceOnUse"><stop stop-color="#CBCBD6"/><stop offset="1" stop-color="#F9FAF9"/></linearGradient><linearGradient id="O" x1="114.361" x2="107.083" y1="99.587" y2="95.226" gradientUnits="userSpaceOnUse"><stop stop-color="#CBCBD6"/><stop offset="1" stop-color="#F9FAF9"/></linearGradient><linearGradient id="P" x1="113.251" x2="105.973" y1="101.44" y2="97.079" gradientUnits="userSpaceOnUse"><stop stop-color="#CBCBD6"/><stop offset="1" stop-color="#F9FAF9"/></linearGradient><linearGradient id="Q" x1="112.141" x2="104.863" y1="103.293" y2="98.932" gradientUnits="userSpaceOnUse"><stop stop-color="#CBCBD6"/><stop offset="1" stop-color="#F9FAF9"/></linearGradient><linearGradient id="R" x1="114.777" x2="107.499" y1="98.894" y2="94.533" gradientUnits="userSpaceOnUse"><stop stop-color="#CBCBD6"/><stop offset="1" stop-color="#F9FAF9"/></linearGradient><linearGradient id="S" x1="113.667" x2="106.389" y1="100.747" y2="96.386" gradientUnits="userSpaceOnUse"><stop stop-color="#CBCBD6"/><stop offset="1" stop-color="#F9FAF9"/></linearGradient><linearGradient id="T" x1="112.557" x2="105.279" y1="102.6" y2="98.238" gradientUnits="userSpaceOnUse"><stop stop-color="#CBCBD6"/><stop offset="1" stop-color="#F9FAF9"/></linearGradient><linearGradient id="U" x1="111.447" x2="104.169" y1="104.452" y2="100.091" gradientUnits="userSpaceOnUse"><stop stop-color="#CBCBD6"/><stop offset="1" stop-color="#F9FAF9"/></linearGradient><linearGradient id="V" x1="112.741" x2="108.059" y1="113.732" y2="106.01" gradientUnits="userSpaceOnUse"><stop stop-color="#CBCBD6"/><stop offset="1" stop-color="#F9FAF9"/></linearGradient><linearGradient id="W" x1="116.166" x2="108.888" y1="108.214" y2="103.852" gradientUnits="userSpaceOnUse"><stop stop-color="#CBCBD6"/><stop offset="1" stop-color="#F9FAF9"/></linearGradient><linearGradient id="X" x1="115.055" x2="107.778" y1="110.066" y2="105.705" gradientUnits="userSpaceOnUse"><stop stop-color="#CBCBD6"/><stop offset="1" stop-color="#F9FAF9"/></linearGradient><linearGradient id="Y" x1="113.945" x2="106.668" y1="111.919" y2="107.558" gradientUnits="userSpaceOnUse"><stop stop-color="#CBCBD6"/><stop offset="1" stop-color="#F9FAF9"/></linearGradient><linearGradient id="Z" x1="112.835" x2="105.558" y1="113.772" y2="109.411" gradientUnits="userSpaceOnUse"><stop stop-color="#CBCBD6"/><stop offset="1" stop-color="#F9FAF9"/></linearGradient><linearGradient id="aa" x1="115.471" x2="108.193" y1="109.372" y2="105.011" gradientUnits="userSpaceOnUse"><stop stop-color="#CBCBD6"/><stop offset="1" stop-color="#F9FAF9"/></linearGradient><linearGradient id="ab" x1="114.361" x2="107.083" y1="111.225" y2="106.864" gradientUnits="userSpaceOnUse"><stop stop-color="#CBCBD6"/><stop offset="1" stop-color="#F9FAF9"/></linearGradient><linearGradient id="ac" x1="113.251" x2="105.973" y1="113.078" y2="108.716" gradientUnits="userSpaceOnUse"><stop stop-color="#CBCBD6"/><stop offset="1" stop-color="#F9FAF9"/></linearGradient><linearGradient id="ad" x1="112.141" x2="104.863" y1="114.93" y2="110.569" gradientUnits="userSpaceOnUse"><stop stop-color="#CBCBD6"/><stop offset="1" stop-color="#F9FAF9"/></linearGradient><linearGradient id="ae" x1="114.777" x2="107.499" y1="110.532" y2="106.17" gradientUnits="userSpaceOnUse"><stop stop-color="#CBCBD6"/><stop offset="1" stop-color="#F9FAF9"/></linearGradient><linearGradient id="af" x1="113.667" x2="106.389" y1="112.384" y2="108.023" gradientUnits="userSpaceOnUse"><stop stop-color="#CBCBD6"/><stop offset="1" stop-color="#F9FAF9"/></linearGradient><linearGradient id="ag" x1="112.557" x2="105.279" y1="114.237" y2="109.876" gradientUnits="userSpaceOnUse"><stop stop-color="#CBCBD6"/><stop offset="1" stop-color="#F9FAF9"/></linearGradient><linearGradient id="ah" x1="111.447" x2="104.169" y1="116.09" y2="111.729" gradientUnits="userSpaceOnUse"><stop stop-color="#CBCBD6"/><stop offset="1" stop-color="#F9FAF9"/></linearGradient><linearGradient id="ai" x1="112.741" x2="108.059" y1="125.37" y2="117.649" gradientUnits="userSpaceOnUse"><stop stop-color="#CBCBD6"/><stop offset="1" stop-color="#F9FAF9"/></linearGradient><linearGradient id="aj" x1="116.166" x2="108.888" y1="119.852" y2="115.491" gradientUnits="userSpaceOnUse"><stop stop-color="#CBCBD6"/><stop offset="1" stop-color="#F9FAF9"/></linearGradient><linearGradient id="ak" x1="115.055" x2="107.778" y1="121.705" y2="117.344" gradientUnits="userSpaceOnUse"><stop stop-color="#CBCBD6"/><stop offset="1" stop-color="#F9FAF9"/></linearGradient><linearGradient id="al" x1="113.945" x2="106.668" y1="123.558" y2="119.196" gradientUnits="userSpaceOnUse"><stop stop-color="#CBCBD6"/><stop offset="1" stop-color="#F9FAF9"/></linearGradient><linearGradient id="am" x1="112.835" x2="105.558" y1="125.41" y2="121.049" gradientUnits="userSpaceOnUse"><stop stop-color="#CBCBD6"/><stop offset="1" stop-color="#F9FAF9"/></linearGradient><linearGradient id="an" x1="115.471" x2="108.193" y1="121.011" y2="116.649" gradientUnits="userSpaceOnUse"><stop stop-color="#CBCBD6"/><stop offset="1" stop-color="#F9FAF9"/></linearGradient><linearGradient id="ao" x1="114.361" x2="107.083" y1="122.863" y2="118.502" gradientUnits="userSpaceOnUse"><stop stop-color="#CBCBD6"/><stop offset="1" stop-color="#F9FAF9"/></linearGradient><linearGradient id="ap" x1="113.251" x2="105.973" y1="124.716" y2="120.355" gradientUnits="userSpaceOnUse"><stop stop-color="#CBCBD6"/><stop offset="1" stop-color="#F9FAF9"/></linearGradient><linearGradient id="aq" x1="112.141" x2="104.863" y1="126.569" y2="122.208" gradientUnits="userSpaceOnUse"><stop stop-color="#CBCBD6"/><stop offset="1" stop-color="#F9FAF9"/></linearGradient><linearGradient id="ar" x1="114.777" x2="107.499" y1="122.17" y2="117.809" gradientUnits="userSpaceOnUse"><stop stop-color="#CBCBD6"/><stop offset="1" stop-color="#F9FAF9"/></linearGradient><linearGradient id="as" x1="113.667" x2="106.389" y1="124.023" y2="119.662" gradientUnits="userSpaceOnUse"><stop stop-color="#CBCBD6"/><stop offset="1" stop-color="#F9FAF9"/></linearGradient><linearGradient id="at" x1="112.557" x2="105.279" y1="125.876" y2="121.514" gradientUnits="userSpaceOnUse"><stop stop-color="#CBCBD6"/><stop offset="1" stop-color="#F9FAF9"/></linearGradient><linearGradient id="au" x1="111.447" x2="104.169" y1="127.728" y2="123.367" gradientUnits="userSpaceOnUse"><stop stop-color="#CBCBD6"/><stop offset="1" stop-color="#F9FAF9"/></linearGradient><linearGradient id="av" x1="154.269" x2="197.429" y1="172.593" y2="186.823" gradientUnits="userSpaceOnUse"><stop stop-color="#262C3D"/><stop offset="1" stop-color="#7D859E"/></linearGradient><linearGradient id="aw" x1="188.286" x2="142.835" y1="185.958" y2="160.098" gradientUnits="userSpaceOnUse"><stop stop-color="#262C3D"/><stop offset="1" stop-color="#7D859E"/></linearGradient><linearGradient id="ax" x1="150.593" x2="200.593" y1="177.501" y2="190.658" gradientUnits="userSpaceOnUse"><stop stop-color="#262C3D"/><stop offset=".425" stop-color="#fff"/><stop offset="1" stop-color="#7D859E"/></linearGradient><linearGradient id="ay" x1="199.593" x2="140.531" y1="175.612" y2="175.612" gradientUnits="userSpaceOnUse"><stop stop-color="#1D7ECE"/><stop offset="1" stop-color="#4CA5ED"/></linearGradient><linearGradient id="az" x1="164.817" x2="173.375" y1="169.017" y2="169.017" gradientUnits="userSpaceOnUse"><stop stop-color="#AA2929"/><stop offset="1" stop-color="#E57070"/></linearGradient><linearGradient id="aA" x1="173.062" x2="165.045" y1="167.294" y2="167.294" gradientUnits="userSpaceOnUse"><stop stop-color="#AA2929"/><stop offset="1" stop-color="#E57070"/></linearGradient><linearGradient id="aB" x1="179.625" x2="171.608" y1="171.136" y2="171.136" gradientUnits="userSpaceOnUse"><stop stop-color="#CBCBD6"/><stop offset="1" stop-color="#F9FAF9"/></linearGradient><linearGradient id="aC" x1="160.695" x2="168.583" y1="179.123" y2="179.457" gradientUnits="userSpaceOnUse"><stop stop-color="#AA2929"/><stop offset="1" stop-color="#E57070"/></linearGradient><linearGradient id="aD" x1="167.499" x2="159.482" y1="177.601" y2="177.601" gradientUnits="userSpaceOnUse"><stop stop-color="#AA2929"/><stop offset="1" stop-color="#E57070"/></linearGradient><linearGradient id="aE" x1="61.92" x2="14.57" y1="187.985" y2="190.481" gradientUnits="userSpaceOnUse"><stop stop-color="#262C3D"/><stop offset="1" stop-color="#7D859E"/></linearGradient><linearGradient id="aF" x1="61.92" x2="14.57" y1="187.88" y2="190.376" gradientUnits="userSpaceOnUse"><stop stop-color="#CBCBD6"/><stop offset="1" stop-color="#F9FAF9"/></linearGradient><linearGradient id="aG" x1=".623" x2="70.058" y1="186.127" y2="186.127" gradientUnits="userSpaceOnUse"><stop stop-color="#CBCBD6"/><stop offset="1" stop-color="#F9FAF9"/></linearGradient><linearGradient id="aH" x1="34.632" x2="21.872" y1="189.544" y2="189.89" gradientUnits="userSpaceOnUse"><stop stop-color="#CBCBD6"/><stop offset="1" stop-color="#878C9F"/></linearGradient><linearGradient id="aI" x1="35.555" x2="18.136" y1="191.392" y2="192.196" gradientUnits="userSpaceOnUse"><stop stop-color="#CBCBD6"/><stop offset="1" stop-color="#F9FAF9"/></linearGradient><linearGradient id="aJ" x1="31.557" x2="71.707" y1="156.305" y2="156.305" gradientUnits="userSpaceOnUse"><stop stop-color="#262C3D"/><stop offset="1" stop-color="#7D859E"/></linearGradient><linearGradient id="aK" x1="44.822" x2="57.473" y1="166.619" y2="145.736" gradientUnits="userSpaceOnUse"><stop stop-color="#1D7ECE"/><stop offset="1" stop-color="#4CA5ED"/></linearGradient><linearGradient id="aL" x1="43.304" x2="80.454" y1="132.988" y2="179.537" gradientUnits="userSpaceOnUse"><stop stop-color="#262C3D"/><stop offset=".382" stop-color="#fff"/><stop offset="1" stop-color="#7D859E"/></linearGradient><linearGradient id="aM" x1="43.895" x2="63.259" y1="136.909" y2="183.883" gradientUnits="userSpaceOnUse"><stop stop-color="#262C3D"/><stop offset="1" stop-color="#7D859E"/></linearGradient><linearGradient id="aN" x1="15.652" x2="35.016" y1="120.217" y2="167.191" gradientUnits="userSpaceOnUse"><stop stop-color="#262C3D"/><stop offset="1" stop-color="#7D859E"/></linearGradient><clipPath id="a"><path fill="#fff" d="M275 0H0v210h275z"/></clipPath></defs></svg>