<svg width="497" height="499" viewBox="0 0 497 499" fill="none" xmlns="http://www.w3.org/2000/svg">
<path d="M253.134 463.249C366.412 463.249 458.242 371.42 458.242 258.142C458.242 144.865 366.412 53.0352 253.134 53.0352C139.857 53.0352 48.0273 144.865 48.0273 258.142C48.0273 371.42 139.857 463.249 253.134 463.249Z" stroke="#62818E" stroke-width="0.919763" stroke-miterlimit="10"/>
<path d="M371.861 376.879C437.436 311.304 437.436 204.985 371.861 139.41C306.285 73.8343 199.967 73.8342 134.391 139.41C68.8157 204.985 68.8156 311.304 134.391 376.879C199.967 442.455 306.285 442.455 371.861 376.879Z" stroke="#62818E" stroke-width="0.919763" stroke-miterlimit="10" stroke-dasharray="4.6 4.6"/>
<path d="M180.811 473.217C167.597 482.261 155.394 485.542 145.093 481.893C103.98 467.423 108.395 348.467 154.965 216.205C201.536 83.9427 272.634 -11.5286 313.747 2.94229C326.961 7.60242 335.453 22.9931 339.378 46.1711" stroke="#62818E" stroke-width="1.33715" stroke-miterlimit="10"/>
<path d="M16.5764 225.583C7.31744 212.522 3.85302 200.381 7.31746 190.018C21.1446 148.69 140.131 151.204 273.129 195.66C406.096 240.115 502.702 309.68 488.875 351.008C484.429 364.283 469.161 373.021 446.075 377.313" stroke="#62818E" stroke-width="1.33715" stroke-miterlimit="10"/>
<path d="M18.4753 284.787C10.2894 273.198 7.19284 262.437 10.2587 253.27C22.4916 216.633 127.958 218.871 245.81 258.267C363.662 297.664 449.262 359.288 436.998 395.925C433.074 407.698 419.523 415.455 399.073 419.256" stroke="#62818E" stroke-width="0.919763" stroke-miterlimit="10"/>
<path d="M307.499 471.16C307.162 471.927 306.825 472.693 306.457 473.429" stroke="#00344A" stroke-width="1.33715" stroke-miterlimit="10"/>
<path d="M304.192 477.906C298.214 488.667 290.702 495.443 281.781 497.405C239.226 506.817 180.208 403.436 149.979 266.514C119.749 129.592 129.744 10.9731 172.329 1.59156C184.991 -1.19838 199.125 5.97576 213.534 21.0905" stroke="#62818E" stroke-width="1.33715" stroke-miterlimit="10" stroke-dasharray="5 5"/>
<path d="M215.191 22.8984C215.743 23.5116 216.295 24.1248 216.878 24.7686" stroke="#00344A" stroke-width="1.33715" stroke-miterlimit="10"/>
<path d="M438.441 108.32C439.269 108.474 440.097 108.596 440.894 108.75" stroke="#00344A" stroke-width="1.33715" stroke-miterlimit="10"/>
<path d="M445.764 109.887C457.659 113.014 466.091 118.594 470.229 126.749C489.912 165.655 404.405 248.464 279.287 311.744C154.168 375.024 36.7759 394.799 17.1236 355.893C11.2678 344.304 14.7323 328.852 25.8001 311.131" stroke="#62818E" stroke-width="1.33715" stroke-miterlimit="10" stroke-dasharray="5 5"/>
<path d="M27.1172 309.077C27.5771 308.372 28.037 307.697 28.4968 306.992" stroke="#00344A" stroke-width="1.33715" stroke-miterlimit="10"/>
<path d="M339.966 51.6993C342.998 51.3854 345.201 48.6732 344.887 45.6416C344.573 42.6099 341.861 40.4067 338.829 40.7206C335.797 41.0346 333.594 43.7467 333.908 46.7784C334.222 49.8101 336.934 52.0132 339.966 51.6993Z" fill="#00344A"/>
<path d="M451.157 379.538C452.398 376.755 451.148 373.492 448.365 372.25C445.581 371.008 442.318 372.258 441.076 375.042C439.835 377.825 441.085 381.089 443.868 382.33C446.652 383.572 449.915 382.322 451.157 379.538Z" fill="#00344A"/>
<path d="M443.513 110.678C444.758 107.896 443.512 104.632 440.73 103.387C437.948 102.142 434.683 103.388 433.438 106.17C432.193 108.952 433.439 112.216 436.221 113.461C439.003 114.706 442.268 113.46 443.513 110.678Z" fill="#00344A"/>
<path d="M385.314 249.01C382.83 247.262 382.217 243.828 383.934 241.345C385.682 238.862 389.115 238.248 391.599 239.965C394.082 241.713 394.695 245.147 392.978 247.63C391.262 250.144 387.828 250.757 385.314 249.01Z" fill="#00344A"/>
<path d="M402.268 422.539C404.103 420.106 403.619 416.645 401.186 414.81C398.753 412.974 395.292 413.458 393.457 415.891C391.621 418.324 392.105 421.785 394.538 423.621C396.971 425.456 400.432 424.972 402.268 422.539Z" fill="#00344A"/>
<path d="M115.173 373.853C112.69 372.106 112.077 368.672 113.793 366.189C115.541 363.705 118.975 363.092 121.458 364.809C123.942 366.557 124.555 369.99 122.838 372.474C121.09 374.957 117.656 375.57 115.173 373.853Z" fill="#00344A"/>
<path d="M176.828 360.979C179.593 359.697 180.796 356.416 179.514 353.651C178.233 350.886 174.952 349.683 172.187 350.965C169.421 352.246 168.219 355.527 169.5 358.292C170.782 361.057 174.063 362.26 176.828 360.979Z" fill="#00344A"/>
<path d="M25.2825 311.275C22.7991 309.528 22.186 306.094 23.9028 303.611C25.6504 301.127 29.0842 300.514 31.5675 302.231C34.0509 303.979 34.6641 307.412 32.9472 309.896C31.1996 312.41 27.7659 313.023 25.2825 311.275Z" fill="#00344A"/>
<path d="M184.132 477.661C185.616 474.999 184.662 471.637 182 470.153C179.338 468.669 175.977 469.624 174.492 472.286C173.008 474.948 173.963 478.309 176.625 479.793C179.287 481.277 182.648 480.323 184.132 477.661Z" fill="#00344A"/>
<path d="M15.7161 231.717C13.2327 229.969 12.6196 226.535 14.3364 224.052C16.084 221.569 19.5178 220.955 22.0011 222.672C24.4845 224.42 25.0977 227.854 23.3808 230.337C21.6332 232.82 18.2301 233.434 15.7161 231.717Z" fill="#00344A"/>
<path d="M170.115 173.588C167.631 171.84 167.018 168.406 168.735 165.923C170.482 163.44 173.916 162.827 176.4 164.543C178.883 166.291 179.496 169.725 177.779 172.208C176.062 174.722 172.629 175.335 170.115 173.588Z" fill="#00344A"/>
<path d="M15.3528 289.291C12.8694 287.543 12.2563 284.11 13.9732 281.626C15.7207 279.143 19.1545 278.53 21.6378 280.247C24.1212 281.994 24.7344 285.428 23.0175 287.911C21.2699 290.425 17.8362 291.038 15.3528 289.291Z" fill="#00344A"/>
<path d="M131.634 167.213C129.151 165.465 128.538 162.031 130.254 159.548C132.002 157.065 135.436 156.452 137.919 158.168C140.402 159.916 141.016 163.35 139.299 165.833C137.551 168.347 134.117 168.96 131.634 167.213Z" fill="#00344A"/>
<path d="M149.192 247.849C151.325 245.672 151.289 242.178 149.112 240.045C146.935 237.912 143.441 237.947 141.308 240.124C139.175 242.302 139.21 245.796 141.387 247.929C143.564 250.062 147.058 250.026 149.192 247.849Z" fill="#00344A"/>
<path d="M214.997 29.1855C212.514 27.4379 211.901 24.0041 213.618 21.5208C215.365 19.0374 218.799 18.4242 221.282 20.1411C223.766 21.8887 224.379 25.3225 222.662 27.8058C220.945 30.3198 217.511 30.933 214.997 29.1855Z" fill="#00344A"/>
<path d="M304.552 475.424C302.069 473.676 301.455 470.242 303.172 467.759C304.92 465.276 308.354 464.663 310.837 466.379C313.32 468.127 313.934 471.561 312.217 474.044C310.469 476.527 307.035 477.141 304.552 475.424Z" fill="#00344A"/>
<path d="M210.711 95.0078C210.711 95.0078 143.721 263.784 365.967 384.886" stroke="#62818E" stroke-width="0.919763" stroke-miterlimit="10" stroke-dasharray="4.6 4.6"/>
<path d="M213.959 100.104C216.366 97.697 216.366 93.7952 213.959 91.3887C211.552 88.9821 207.651 88.9821 205.244 91.3886C202.838 93.7952 202.838 97.697 205.244 100.104C207.651 102.51 211.553 102.51 213.959 100.104Z" fill="#00344A"/>
<path d="M365.659 390.133C369.062 390.133 371.821 387.374 371.821 383.971C371.821 380.568 369.062 377.809 365.659 377.809C362.255 377.809 359.496 380.568 359.496 383.971C359.496 387.374 362.255 390.133 365.659 390.133Z" fill="#00344A"/>
</svg>
