<svg width="1170" height="250" viewBox="0 0 1170 250" fill="none" xmlns="http://www.w3.org/2000/svg">
<g opacity="0.3">
<path d="M1157.06 23.4919L1156.25 24.7454L1045.91 87.1806L1047.58 11.1752L1047.59 10.875L934.689 82.0162L898.547 61.4722L898.441 61.4114L839.649 120.374L725.343 133.072L643.954 76.296L643.853 76.227L496.284 111.144L384.801 75.0059L384.627 74.8842L384.513 75.01L175.329 133.749L105.981 83.4442L105.628 83.1846L86.2243 113.08L38.7631 102.053L38.3412 101.956L13.3387 225.134L13.0588 225.329L13.2251 225.706L12.9492 227.061L13.7565 225.808L124.095 163.373L122.42 239.378L122.412 239.678L235.314 168.533L271.457 189.077L271.562 189.138L330.354 130.179L444.661 117.481L526.049 174.261L526.147 174.33L673.715 139.413L785.198 175.551L785.372 175.677L785.49 175.551L994.674 116.812L1064.02 167.121L1064.38 167.377L1083.78 137.482L1131.24 148.508L1131.67 148.606L1156.67 25.427L1156.94 25.2322L1156.78 24.855L1157.06 23.4919ZM898.66 62.2268L934.129 82.3813L881.763 115.376L898.66 62.2268ZM897.841 62.8556L881.017 115.786L840.594 120.276L897.841 62.8556ZM174.161 134.358L124.696 162.342L125.568 122.82L174.084 134.09L173.171 134.346L174.161 134.358ZM105.782 84.0284L173.913 133.453L86.8329 113.218L105.782 84.0284ZM38.7915 102.666L85.8836 113.607L14.1379 224.124L38.7915 102.666ZM14.4543 224.733L86.4921 113.749L124.992 122.686L124.103 162.679L14.4543 224.733ZM124.687 163.028L174.575 134.796L123.036 237.824L124.687 163.028ZM123.45 238.319L175.394 134.48L234.726 168.2L123.45 238.319ZM176.392 134.366L287.749 134.788L235.294 167.843L176.392 134.366ZM271.339 188.326L235.87 168.168L288.236 135.177L271.339 188.326ZM272.159 187.698L288.986 134.768L329.409 130.277L272.159 187.698ZM330.074 129.615L288.877 134.204L177.382 133.786L383.67 75.8619L330.074 129.615ZM331.007 129.51L384.704 75.655L443.922 116.97L331.007 129.51ZM386.461 76.1621L494.872 111.307L444.811 116.865L386.461 76.1621ZM445.541 117.38L496.089 111.765L525.388 173.077L445.541 117.38ZM496.702 111.672L643.045 76.9451L526.236 173.49L496.702 111.672ZM526.901 173.661L643.763 77.0587L673.297 138.881L526.901 173.661ZM644.615 77.4766L724.463 133.173L673.914 138.788L644.615 77.4766ZM675.127 139.242L725.189 133.684L783.539 174.387L675.127 139.242ZM785.295 174.898L726.077 133.583L838.988 121.043L785.295 174.898ZM786.334 174.691L839.929 120.938L881.139 116.349L992.621 116.767L786.334 174.691ZM882.25 115.761L934.706 82.7059L993.607 116.183L882.25 115.761ZM994.605 116.074L935.273 82.3529L1046.55 12.234L994.605 116.074ZM1046.97 12.7249L1045.31 87.5214L995.425 115.753L1046.97 12.7249ZM995.838 116.191L1045.3 88.207L1044.42 127.729L995.907 116.459L996.824 116.199L995.838 116.191ZM1064.22 166.521L996.082 117.096L1083.17 137.332L1064.22 166.521ZM1083.51 136.8L1045.01 127.863L1045.9 87.8702L1155.54 25.8205L1083.51 136.8ZM1131.21 147.888L1084.12 136.946L1155.86 26.429L1131.21 147.888Z" fill="#62818E"/>
<path d="M12.4177 227.898C12.9126 228.141 13.4562 228.214 13.9958 228.121C14.6733 228.003 15.2615 227.622 15.6551 227.058C16.0486 226.498 16.1946 225.813 16.0729 225.139C15.9309 224.324 15.4157 223.646 14.6692 223.281C14.1783 223.042 13.6307 222.965 13.0911 223.058C12.4136 223.18 11.8254 223.553 11.4319 224.117C11.0383 224.689 10.8882 225.366 11.0099 226.044C11.1641 226.855 11.6712 227.533 12.4177 227.898Z" fill="#00344A"/>
<path d="M85.1944 115.742C85.6853 115.981 86.2329 116.058 86.7766 115.965C87.4541 115.843 88.0423 115.462 88.4358 114.902C88.8293 114.342 88.9754 113.656 88.8537 112.983C88.7117 112.168 88.1965 111.49 87.45 111.125C86.9591 110.886 86.4155 110.808 85.8759 110.902C85.1984 111.023 84.6061 111.401 84.2126 111.965C83.8232 112.533 83.669 113.21 83.7907 113.892C83.9408 114.703 84.4479 115.377 85.1944 115.742Z" fill="#00344A"/>
<path d="M123.296 164.979C123.791 165.218 124.339 165.295 124.879 165.198C125.552 165.08 126.144 164.703 126.538 164.139C126.927 163.579 127.081 162.893 126.956 162.216C126.81 161.4 126.299 160.727 125.556 160.358C125.061 160.118 124.513 160.041 123.974 160.139C123.296 160.26 122.708 160.638 122.315 161.198C121.921 161.765 121.771 162.447 121.893 163.125C122.043 163.936 122.55 164.609 123.296 164.979Z" fill="#00344A"/>
<path d="M234.267 170.53C234.754 170.774 235.302 170.847 235.846 170.749C236.519 170.632 237.111 170.25 237.501 169.686C237.898 169.126 238.04 168.441 237.923 167.763C237.777 166.948 237.266 166.275 236.519 165.905C236.028 165.662 235.485 165.589 234.941 165.686C234.272 165.808 233.679 166.185 233.282 166.745C232.892 167.313 232.746 167.995 232.864 168.672C233.006 169.488 233.517 170.161 234.267 170.53Z" fill="#00344A"/>
<path d="M189.884 198.405C190.371 198.649 190.919 198.722 191.462 198.624C192.136 198.507 192.728 198.129 193.118 197.561C193.515 197.001 193.657 196.316 193.539 195.638C193.393 194.823 192.882 194.149 192.136 193.78C191.645 193.537 191.097 193.464 190.558 193.561C189.888 193.683 189.296 194.06 188.898 194.624C188.513 195.192 188.363 195.87 188.481 196.551C188.623 197.367 189.138 198.036 189.884 198.405Z" fill="#00344A"/>
<path d="M329.207 132.222C329.702 132.462 330.245 132.539 330.789 132.441C331.462 132.324 332.05 131.942 332.444 131.378C332.837 130.823 332.988 130.137 332.866 129.46C332.72 128.644 332.205 127.971 331.462 127.601C330.967 127.362 330.424 127.285 329.884 127.378C329.207 127.5 328.618 127.877 328.225 128.441C327.831 129.009 327.681 129.691 327.803 130.364C327.953 131.18 328.464 131.853 329.207 132.222Z" fill="#00344A"/>
<path d="M388.367 125.795C388.862 126.034 389.405 126.111 389.949 126.014C390.622 125.892 391.215 125.515 391.604 124.951C391.998 124.395 392.148 123.709 392.026 123.032C391.88 122.217 391.365 121.543 390.622 121.174C390.127 120.935 389.584 120.862 389.044 120.951C388.367 121.073 387.779 121.45 387.385 122.014C386.991 122.582 386.841 123.263 386.963 123.937C387.109 124.748 387.62 125.426 388.367 125.795Z" fill="#00344A"/>
<path d="M279.302 106.861C279.793 107.101 280.341 107.178 280.881 107.084C281.558 106.963 282.146 106.581 282.536 106.022C282.933 105.462 283.075 104.776 282.958 104.103C282.812 103.283 282.3 102.61 281.55 102.241C281.059 102.001 280.515 101.924 279.972 102.021C279.298 102.143 278.71 102.52 278.313 103.084C277.923 103.652 277.773 104.334 277.891 105.011C278.049 105.819 278.556 106.496 279.302 106.861Z" fill="#00344A"/>
<path d="M443.556 119.586C444.047 119.825 444.594 119.902 445.134 119.805C445.811 119.687 446.4 119.302 446.793 118.742C447.187 118.178 447.337 117.496 447.211 116.819C447.065 116.003 446.554 115.33 445.807 114.961C445.317 114.721 444.769 114.644 444.229 114.738C443.552 114.863 442.959 115.237 442.57 115.801C442.181 116.369 442.026 117.05 442.144 117.728C442.298 118.539 442.805 119.216 443.556 119.586Z" fill="#00344A"/>
<path d="M124.101 124.766C124.596 125.005 125.14 125.082 125.683 124.985C126.357 124.863 126.949 124.486 127.343 123.922C127.736 123.362 127.886 122.673 127.76 121.999C127.618 121.184 127.107 120.506 126.361 120.141C125.866 119.902 125.322 119.829 124.779 119.922C124.101 120.044 123.513 120.417 123.119 120.985C122.726 121.553 122.576 122.23 122.697 122.912C122.843 123.719 123.355 124.397 124.101 124.766Z" fill="#00344A"/>
<path d="M287.643 136.802C288.134 137.042 288.677 137.119 289.221 137.021C289.895 136.9 290.483 136.526 290.876 135.958C291.27 135.395 291.412 134.713 291.298 134.035C291.148 133.22 290.637 132.547 289.89 132.177C289.4 131.938 288.856 131.857 288.312 131.954C286.917 132.202 285.988 133.545 286.235 134.94C286.381 135.756 286.892 136.433 287.643 136.802Z" fill="#00344A"/>
<path d="M37.5461 104.844C38.0369 105.084 38.5887 105.161 39.1323 105.063C39.8057 104.942 40.394 104.564 40.7875 104.005C41.1769 103.441 41.3311 102.755 41.2054 102.077C41.0634 101.266 40.5481 100.585 39.8057 100.224C39.3149 99.9801 38.7631 99.903 38.2235 100.004C36.828 100.252 35.8949 101.591 36.1464 102.99C36.2925 103.802 36.8036 104.479 37.5461 104.844Z" fill="#00344A"/>
<path d="M104.519 86.2058C105.01 86.4492 105.561 86.5222 106.101 86.4249C106.778 86.3032 107.367 85.9299 107.756 85.366C108.15 84.7981 108.3 84.1165 108.178 83.439C108.036 82.6276 107.521 81.9501 106.778 81.585C106.283 81.3416 105.736 81.2686 105.192 81.3659C103.801 81.6134 102.868 82.9522 103.119 84.3518C103.265 85.1632 103.772 85.8407 104.519 86.2058Z" fill="#00344A"/>
<path d="M495.143 113.76C495.634 114.003 496.181 114.076 496.725 113.979C497.398 113.857 497.991 113.484 498.38 112.916C498.77 112.352 498.924 111.671 498.802 110.993C498.652 110.178 498.145 109.5 497.398 109.135C496.907 108.896 496.36 108.819 495.816 108.916C494.425 109.168 493.492 110.506 493.739 111.902C493.885 112.717 494.396 113.395 495.143 113.76Z" fill="#00344A"/>
<path d="M1157.59 22.6522C1157.09 22.4129 1156.54 22.3358 1156 22.4291C1155.33 22.5468 1154.74 22.9281 1154.34 23.492C1153.95 24.0519 1153.8 24.7375 1153.93 25.4109C1154.07 26.2263 1154.58 26.9038 1155.33 27.269C1155.82 27.5124 1156.36 27.5854 1156.91 27.4921C1157.59 27.3704 1158.17 26.9931 1158.57 26.4332C1158.96 25.8612 1159.11 25.1837 1158.99 24.5062C1158.84 23.6949 1158.33 23.0174 1157.59 22.6522Z" fill="#00344A"/>
<path d="M1084.8 134.801C1084.31 134.561 1083.76 134.484 1083.22 134.578C1082.54 134.699 1081.95 135.077 1081.56 135.64C1081.17 136.2 1081.02 136.886 1081.14 137.559C1081.29 138.375 1081.8 139.052 1082.55 139.417C1083.04 139.657 1083.58 139.734 1084.13 139.641C1084.8 139.519 1085.39 139.142 1085.79 138.578C1086.18 138.01 1086.33 137.332 1086.21 136.651C1086.06 135.839 1085.55 135.166 1084.8 134.801Z" fill="#00344A"/>
<path d="M1046.7 85.5687C1046.21 85.3293 1045.66 85.2523 1045.12 85.3496C1044.44 85.4673 1043.85 85.8486 1043.46 86.4085C1043.07 86.9683 1042.92 87.6539 1043.04 88.3314C1043.19 89.1468 1043.7 89.8243 1044.44 90.1895C1044.94 90.4329 1045.49 90.5059 1046.03 90.4085C1046.7 90.2868 1047.29 89.9095 1047.68 89.3497C1048.08 88.7817 1048.23 88.1002 1048.11 87.4227C1047.96 86.6113 1047.45 85.9379 1046.7 85.5687Z" fill="#00344A"/>
<path d="M988.57 46.8929C988.075 46.6536 987.527 46.5765 986.984 46.6738C986.31 46.7915 985.718 47.1728 985.328 47.7327C984.935 48.2925 984.785 48.9781 984.911 49.6556C985.053 50.4711 985.568 51.1445 986.31 51.5137C986.805 51.7571 987.353 51.8301 987.892 51.7328C988.57 51.611 989.158 51.2338 989.552 50.6739C989.945 50.1059 990.095 49.4244 989.974 48.7469C989.827 47.9355 989.32 47.2621 988.57 46.8929Z" fill="#00344A"/>
<path d="M935.73 80.0147C935.243 79.7713 934.692 79.6983 934.148 79.7956C933.474 79.9133 932.882 80.2906 932.493 80.8585C932.099 81.4184 931.953 82.104 932.071 82.7815C932.217 83.5969 932.728 84.2704 933.474 84.6395C933.965 84.8829 934.513 84.956 935.057 84.8586C935.726 84.7369 936.322 84.3596 936.716 83.7957C937.105 83.2277 937.251 82.5462 937.134 81.8687C936.992 81.0573 936.481 80.3839 935.73 80.0147Z" fill="#00344A"/>
<path d="M840.79 118.327C840.295 118.087 839.752 118.01 839.208 118.107C838.535 118.229 837.942 118.606 837.553 119.174C837.159 119.73 837.009 120.416 837.131 121.093C837.277 121.909 837.792 122.582 838.535 122.951C839.03 123.191 839.573 123.264 840.113 123.174C840.79 123.053 841.379 122.675 841.772 122.112C842.166 121.544 842.316 120.862 842.194 120.185C842.044 119.369 841.533 118.696 840.79 118.327Z" fill="#00344A"/>
<path d="M786.654 124.467C786.159 124.228 785.615 124.151 785.071 124.248C784.398 124.37 783.806 124.747 783.416 125.315C783.023 125.871 782.873 126.556 782.994 127.234C783.14 128.049 783.656 128.723 784.398 129.092C784.893 129.331 785.437 129.404 785.976 129.315C786.654 129.193 787.242 128.816 787.635 128.252C788.029 127.684 788.179 127.003 788.057 126.325C787.911 125.51 787.4 124.832 786.654 124.467Z" fill="#00344A"/>
<path d="M890.699 143.687C890.208 143.448 889.664 143.371 889.121 143.464C888.443 143.586 887.855 143.963 887.465 144.527C887.072 145.087 886.926 145.773 887.043 146.446C887.19 147.266 887.701 147.939 888.451 148.308C888.942 148.548 889.49 148.625 890.025 148.527C890.699 148.406 891.291 148.032 891.684 147.464C892.074 146.9 892.224 146.219 892.106 145.541C891.952 144.726 891.445 144.048 890.699 143.687Z" fill="#00344A"/>
<path d="M726.443 130.96C725.952 130.717 725.405 130.644 724.865 130.741C724.187 130.859 723.599 131.244 723.206 131.804C722.812 132.368 722.666 133.049 722.788 133.727C722.934 134.542 723.445 135.216 724.191 135.585C724.682 135.828 725.226 135.901 725.766 135.808C726.443 135.682 727.031 135.313 727.425 134.745C727.818 134.177 727.968 133.5 727.851 132.818C727.701 132.007 727.19 131.329 726.443 130.96Z" fill="#00344A"/>
<path d="M570.041 91.9491C569.55 91.7098 569.002 91.6327 568.458 91.726C567.785 91.8477 567.193 92.225 566.807 92.7889C566.41 93.3487 566.264 94.0344 566.385 94.7119C566.531 95.5232 567.043 96.2007 567.789 96.5699C568.284 96.8092 568.824 96.8863 569.367 96.789C570.041 96.6673 570.633 96.29 571.026 95.7261C571.416 95.154 571.566 94.4806 571.448 93.7991C571.298 92.9917 570.787 92.3183 570.041 91.9491Z" fill="#00344A"/>
<path d="M609.845 152.268C609.354 152.028 608.802 151.955 608.263 152.045C607.585 152.162 606.997 152.548 606.608 153.107C606.214 153.667 606.064 154.353 606.186 155.03C606.332 155.842 606.843 156.519 607.585 156.888C608.08 157.128 608.624 157.205 609.163 157.108C609.837 156.986 610.429 156.609 610.823 156.045C611.216 155.473 611.362 154.799 611.245 154.122C611.103 153.31 610.591 152.637 609.845 152.268Z" fill="#00344A"/>
<path d="M1045.9 125.784C1045.41 125.544 1044.86 125.467 1044.32 125.564C1043.65 125.686 1043.05 126.063 1042.66 126.627C1042.27 127.187 1042.12 127.873 1042.25 128.55C1042.39 129.366 1042.9 130.039 1043.65 130.408C1044.14 130.648 1044.69 130.725 1045.23 130.627C1045.91 130.506 1046.49 130.132 1046.89 129.565C1047.28 128.997 1047.43 128.319 1047.31 127.638C1047.16 126.826 1046.65 126.153 1045.9 125.784Z" fill="#00344A"/>
<path d="M882.353 113.746C881.863 113.507 881.319 113.426 880.771 113.527C880.098 113.649 879.51 114.022 879.116 114.586C878.723 115.15 878.581 115.831 878.694 116.505C878.844 117.32 879.355 117.998 880.102 118.363C880.593 118.602 881.14 118.683 881.68 118.586C883.076 118.339 884.009 116.996 883.757 115.604C883.615 114.789 883.104 114.111 882.353 113.746Z" fill="#00344A"/>
<path d="M674.998 136.781C674.503 136.538 673.955 136.457 673.416 136.558C672.738 136.68 672.146 137.057 671.753 137.617C671.359 138.181 671.213 138.863 671.335 139.536C671.481 140.36 671.992 141.033 672.734 141.398C673.225 141.638 673.781 141.715 674.321 141.617C674.994 141.5 675.586 141.122 675.972 140.554C676.369 139.994 676.523 139.313 676.398 138.631C676.252 137.82 675.74 137.147 674.998 136.781Z" fill="#00344A"/>
<path d="M1132.45 145.702C1131.96 145.462 1131.41 145.385 1130.87 145.482C1130.19 145.604 1129.6 145.981 1129.21 146.545C1128.82 147.109 1128.67 147.795 1128.79 148.472C1128.93 149.284 1129.45 149.961 1130.19 150.326C1130.68 150.57 1131.24 150.647 1131.77 150.545C1133.17 150.298 1134.1 148.959 1133.85 147.56C1133.71 146.744 1133.19 146.067 1132.45 145.702Z" fill="#00344A"/>
<path d="M1065.48 164.343C1064.99 164.099 1064.43 164.026 1063.9 164.124C1063.22 164.241 1062.63 164.619 1062.24 165.183C1061.85 165.747 1061.7 166.432 1061.82 167.11C1061.96 167.921 1062.48 168.598 1063.22 168.964C1063.71 169.207 1064.26 169.28 1064.8 169.183C1066.2 168.939 1067.13 167.596 1066.88 166.201C1066.73 165.385 1066.22 164.708 1065.48 164.343Z" fill="#00344A"/>
<path d="M121.588 241.437C122.079 241.676 122.63 241.753 123.166 241.66C123.843 241.538 124.432 241.161 124.825 240.601C125.219 240.037 125.365 239.352 125.247 238.674C125.101 237.863 124.59 237.185 123.843 236.82C123.353 236.581 122.805 236.504 122.261 236.597C121.588 236.719 120.995 237.096 120.606 237.66C120.212 238.228 120.066 238.905 120.184 239.583C120.334 240.398 120.845 241.072 121.588 241.437Z" fill="#00344A"/>
<path d="M524.997 176.264C525.492 176.504 526.04 176.585 526.579 176.488C527.257 176.362 527.849 175.989 528.239 175.425C528.632 174.861 528.778 174.179 528.657 173.506C528.51 172.682 527.999 172.009 527.257 171.644C526.766 171.4 526.21 171.327 525.671 171.425C524.997 171.542 524.405 171.919 524.02 172.487C523.622 173.047 523.468 173.729 523.594 174.41C523.744 175.222 524.255 175.899 524.997 176.264Z" fill="#00344A"/>
<path d="M383.538 77.5796C384.033 77.823 384.577 77.8961 385.12 77.7987C385.798 77.677 386.382 77.2997 386.78 76.7358C387.173 76.1719 387.319 75.4903 387.198 74.8128C387.056 73.9974 386.544 73.3199 385.794 72.9507C385.303 72.7073 384.755 72.6343 384.216 72.7357C382.82 72.9832 381.887 74.322 382.139 75.7175C382.285 76.5411 382.796 77.2145 383.538 77.5796Z" fill="#00344A"/>
<path d="M270.38 191.07C270.871 191.313 271.419 191.386 271.963 191.293C272.64 191.171 273.228 190.798 273.618 190.23C274.011 189.666 274.161 188.985 274.04 188.307C273.894 187.492 273.386 186.818 272.64 186.449C272.149 186.21 271.601 186.133 271.058 186.226C270.38 186.348 269.788 186.725 269.403 187.289C269.009 187.853 268.859 188.534 268.985 189.212C269.123 190.027 269.634 190.705 270.38 191.07Z" fill="#00344A"/>
<path d="M174.141 136.383C174.636 136.623 175.184 136.7 175.723 136.602C176.397 136.485 176.989 136.103 177.382 135.544C177.772 134.98 177.926 134.294 177.8 133.617C177.654 132.805 177.143 132.128 176.401 131.763C175.906 131.519 175.358 131.442 174.814 131.544C173.419 131.791 172.486 133.13 172.741 134.529C172.887 135.341 173.399 136.018 174.141 136.383Z" fill="#00344A"/>
<path d="M1048.41 9.11318C1047.92 8.87382 1047.38 8.79675 1046.84 8.89005C1046.16 9.01176 1045.57 9.38905 1045.18 9.95295C1044.78 10.5169 1044.64 11.2025 1044.75 11.88C1044.9 12.6913 1045.41 13.3688 1046.16 13.7339C1046.65 13.9733 1047.2 14.0504 1047.74 13.9571C1048.41 13.8354 1049.01 13.4581 1049.4 12.8901C1049.79 12.3262 1049.94 11.6447 1049.82 10.9672C1049.67 10.1517 1049.16 9.4783 1048.41 9.11318Z" fill="#00344A"/>
<path d="M786.459 172.968C785.964 172.724 785.42 172.651 784.877 172.749C784.199 172.87 783.615 173.248 783.217 173.812C782.824 174.376 782.678 175.061 782.8 175.735C782.942 176.55 783.453 177.228 784.203 177.593C784.694 177.832 785.242 177.909 785.781 177.808C787.177 177.564 788.11 176.221 787.858 174.826C787.712 174.006 787.201 173.333 786.459 172.968Z" fill="#00344A"/>
<path d="M899.618 59.4726C899.128 59.2332 898.58 59.1561 898.036 59.2494C897.359 59.3711 896.771 59.7484 896.381 60.3123C895.988 60.8762 895.837 61.5578 895.959 62.2353C896.105 63.0507 896.612 63.7242 897.359 64.0893C897.85 64.3327 898.397 64.4057 898.941 64.3124C899.618 64.1907 900.207 63.8134 900.596 63.2495C900.99 62.6856 901.14 62.004 901.018 61.3265C900.876 60.5152 900.361 59.8417 899.618 59.4726Z" fill="#00344A"/>
<path d="M995.86 114.162C995.365 113.923 994.818 113.846 994.274 113.943C993.601 114.065 993.008 114.442 992.619 115.002C992.229 115.566 992.075 116.252 992.197 116.929C992.343 117.741 992.854 118.418 993.601 118.783C994.096 119.027 994.639 119.1 995.183 119.002C996.578 118.755 997.511 117.416 997.256 116.016C997.114 115.209 996.603 114.528 995.86 114.162Z" fill="#00344A"/>
<path d="M644.848 74.389C644.358 74.1497 643.81 74.0726 643.27 74.1699C642.593 74.2916 642.005 74.6649 641.611 75.2328C641.222 75.7967 641.067 76.4783 641.189 77.1558C641.339 77.9712 641.846 78.6487 642.593 79.0138C643.084 79.2532 643.631 79.3303 644.175 79.2329C645.567 78.9814 646.5 77.6426 646.252 76.247C646.106 75.4276 645.595 74.7541 644.848 74.389Z" fill="#00344A"/>
</g>
<path d="M139.999 81.4941L139.894 81.7943L140.117 81.9282L166.503 175.074L166.819 174.976L202.629 163.739L219.279 185.565L219.534 185.346L269.864 142.663L433.948 175.573L434.045 175.662L434.171 175.557L517.685 141.3L633.059 159.512L633.132 159.455L692.329 111.101L780.862 114.184L829.455 156.035L829.533 155.982L856.093 138.095L946.954 186.149L946.93 185.918L941.21 127.645L1029.59 169.159L1030.29 170.072L1029.99 169.049L1030.1 168.749L1029.88 168.615L1003.49 75.4696L1003.17 75.567L967.365 86.8045L950.715 64.9745L950.46 65.1936L900.134 107.876L736.05 74.9666L735.953 74.8773L735.827 74.9828L652.312 109.239L536.939 91.0277L536.866 91.0845L477.668 139.442L389.139 136.359L340.538 94.5125L340.461 94.5653L313.901 112.452L223.039 64.3984L223.06 64.6297L228.78 122.902L140.401 81.3886L139.703 80.4717L139.999 81.4941ZM356.498 134.98L314.355 112.695L340.421 95.1454L356.498 134.98ZM388.401 136.343L357.094 135.252L341.086 95.5836L388.401 136.343ZM901.814 108.221L901.096 108.075L937.701 96.5897L940.678 126.89L901.055 108.282L901.814 108.221ZM966.89 86.9506L901.189 107.572L950.634 65.6398L966.89 86.9506ZM1029.19 167.889L967.644 87.194L1003.17 76.0416L1029.19 167.889ZM941.153 127.114L938.139 96.4477L967.186 87.336L1028.98 168.372L941.153 127.114ZM946.358 184.766L900.763 108.643L940.723 127.414L946.358 184.766ZM856.515 137.803L900.118 108.444L946.07 185.167L856.515 137.803ZM856.056 137.564L813.841 115.235L899.339 108.415L856.056 137.564ZM813.492 115.568L855.63 137.848L829.565 155.398L813.492 115.568ZM781.584 114.201L812.891 115.292L828.9 154.96L781.584 114.201ZM736.736 75.5751L898.548 108.03L812.94 114.858L781.033 113.738L736.736 75.5751ZM692.861 110.663L735.933 75.4777L780.315 113.71L692.861 110.663ZM692.171 110.635L653.4 109.288L734.614 75.9727L692.171 110.635ZM633.566 158.506L652.491 109.71L691.64 111.073L633.566 158.506ZM632.937 158.875L537.596 91.5389L652.016 109.673L632.937 158.875ZM517.969 140.87L537.045 91.6687L632.434 159.045L517.969 140.87ZM517.495 140.838L478.346 139.475L536.42 92.0419L517.495 140.838ZM435.376 174.575L477.814 139.909L516.586 141.256L435.376 174.575ZM389.675 136.838L477.125 139.88L434.053 175.066L389.675 136.838ZM271.438 142.513L357.038 135.69L388.953 136.809L433.25 174.968L271.438 142.513ZM270.647 142.124L313.929 112.979L356.145 135.304L270.647 142.124ZM223.92 65.3761L313.471 112.74L269.872 142.1L223.92 65.3761ZM269.223 141.901L229.262 123.13L223.628 65.7818L269.223 141.901ZM268.172 142.323L268.89 142.469L232.285 153.954L229.307 123.653L268.926 142.262L268.172 142.323ZM203.096 163.593L268.797 142.972L219.352 184.904L203.096 163.593ZM141.001 82.1675L228.832 123.43L231.851 154.096L202.804 163.207L141.001 82.1675ZM140.794 82.6543L202.341 163.349L166.811 174.502L140.794 82.6543Z" fill="#62818E"/>
<path d="M1030.73 170.689C1030.36 170.904 1029.95 170.994 1029.53 170.953C1029 170.9 1028.53 170.641 1028.19 170.231C1027.86 169.825 1027.7 169.306 1027.76 168.778C1027.82 168.146 1028.17 167.594 1028.73 167.269C1029.09 167.054 1029.5 166.965 1029.92 167.006C1030.45 167.058 1030.92 167.314 1031.26 167.724C1031.59 168.142 1031.75 168.653 1031.7 169.18C1031.63 169.817 1031.28 170.369 1030.73 170.689Z" fill="#00344A"/>
<path d="M968.296 88.8024C967.935 89.0174 967.517 89.1066 967.096 89.0661C966.568 89.0133 966.093 88.7537 965.761 88.344C965.424 87.9383 965.274 87.419 965.327 86.8957C965.388 86.2628 965.745 85.7111 966.296 85.3865C966.657 85.1715 967.071 85.0822 967.493 85.1228C968.02 85.1755 968.495 85.4311 968.832 85.8449C969.165 86.2587 969.323 86.7699 969.27 87.3014C969.201 87.9302 968.848 88.4819 968.296 88.8024Z" fill="#00344A"/>
<path d="M941.907 128.835C941.542 129.05 941.128 129.14 940.702 129.095C940.179 129.042 939.704 128.787 939.367 128.377C939.035 127.967 938.876 127.452 938.933 126.925C938.998 126.292 939.351 125.74 939.899 125.415C940.264 125.2 940.678 125.111 941.1 125.156C941.627 125.208 942.102 125.464 942.434 125.874C942.767 126.288 942.925 126.799 942.872 127.33C942.808 127.959 942.459 128.507 941.907 128.835Z" fill="#00344A"/>
<path d="M856.998 139.574C856.637 139.789 856.219 139.878 855.797 139.833C855.274 139.78 854.795 139.525 854.463 139.115C854.126 138.709 853.976 138.19 854.025 137.663C854.089 137.026 854.442 136.478 854.994 136.154C855.355 135.939 855.773 135.849 856.195 135.894C856.718 135.951 857.193 136.202 857.53 136.612C857.862 137.026 858.017 137.537 857.964 138.068C857.907 138.701 857.554 139.245 856.998 139.574Z" fill="#00344A"/>
<path d="M892.717 158.385C892.356 158.6 891.938 158.689 891.516 158.644C890.993 158.591 890.514 158.336 890.182 157.926C889.845 157.52 889.695 157.001 889.743 156.474C889.808 155.837 890.161 155.289 890.713 154.965C891.074 154.75 891.492 154.66 891.914 154.701C892.437 154.758 892.912 155.009 893.248 155.419C893.577 155.833 893.735 156.344 893.683 156.875C893.626 157.512 893.269 158.056 892.717 158.385Z" fill="#00344A"/>
<path d="M781.844 115.685C781.479 115.9 781.065 115.989 780.643 115.949C780.12 115.896 779.645 115.641 779.309 115.227C778.976 114.821 778.818 114.306 778.875 113.778C778.94 113.146 779.297 112.594 779.844 112.269C780.209 112.054 780.623 111.965 781.045 112.006C781.572 112.058 782.047 112.314 782.38 112.728C782.712 113.142 782.871 113.653 782.814 114.18C782.749 114.813 782.396 115.361 781.844 115.685Z" fill="#00344A"/>
<path d="M736.043 114.203C735.678 114.418 735.265 114.508 734.843 114.467C734.319 114.414 733.845 114.159 733.508 113.745C733.175 113.339 733.017 112.824 733.074 112.297C733.139 111.66 733.496 111.112 734.043 110.788C734.409 110.572 734.822 110.487 735.244 110.524C735.772 110.577 736.246 110.832 736.579 111.246C736.912 111.66 737.07 112.171 737.017 112.698C736.944 113.331 736.591 113.879 736.043 114.203Z" fill="#00344A"/>
<path d="M818.695 93.2999C818.334 93.5149 817.916 93.6041 817.494 93.5636C816.967 93.5108 816.492 93.2512 816.159 92.8414C815.823 92.4358 815.672 91.9165 815.725 91.3931C815.79 90.7562 816.143 90.2085 816.695 89.8799C817.056 89.669 817.474 89.5757 817.892 89.6203C818.415 89.6771 818.89 89.9286 819.226 90.3384C819.559 90.7522 819.713 91.2633 819.664 91.7907C819.595 92.4276 819.247 92.9753 818.695 93.2999Z" fill="#00344A"/>
<path d="M693.288 112.654C692.927 112.869 692.509 112.958 692.088 112.914C691.56 112.861 691.085 112.601 690.753 112.196C690.42 111.786 690.266 111.271 690.319 110.743C690.384 110.11 690.737 109.563 691.288 109.234C691.649 109.019 692.067 108.93 692.485 108.97C693.012 109.027 693.487 109.279 693.82 109.693C694.152 110.106 694.311 110.618 694.258 111.145C694.193 111.782 693.844 112.33 693.288 112.654Z" fill="#00344A"/>
<path d="M938.942 97.9939C938.577 98.2049 938.163 98.2982 937.741 98.2576C937.218 98.2049 936.743 97.9493 936.406 97.5395C936.074 97.1339 935.915 96.6105 935.972 96.0872C936.033 95.4543 936.386 94.9026 936.938 94.578C937.303 94.363 937.717 94.2778 938.139 94.3184C938.666 94.3711 939.141 94.6227 939.473 95.0365C939.806 95.4503 939.964 95.9614 939.907 96.4888C939.843 97.1176 939.494 97.6653 938.942 97.9939Z" fill="#00344A"/>
<path d="M814.041 116.783C813.68 116.994 813.266 117.087 812.84 117.042C812.317 116.99 811.842 116.738 811.506 116.324C811.173 115.915 811.023 115.399 811.071 114.872C811.14 114.239 811.493 113.687 812.045 113.363C812.406 113.152 812.824 113.059 813.246 113.099C814.333 113.209 815.124 114.186 815.015 115.27C814.946 115.911 814.593 116.458 814.041 116.783Z" fill="#00344A"/>
<path d="M1004.25 77.6517C1003.89 77.8627 1003.47 77.956 1003.05 77.9113C1002.53 77.8586 1002.05 77.603 1001.71 77.1933C1001.38 76.7835 1001.22 76.2643 1001.28 75.7369C1001.34 75.1081 1001.7 74.5523 1002.25 74.2318C1002.61 74.0168 1003.03 73.9275 1003.45 73.9721C1004.53 74.0776 1005.33 75.0553 1005.22 76.1426C1005.16 76.7754 1004.8 77.3272 1004.25 77.6517Z" fill="#00344A"/>
<path d="M951.727 67.2416C951.362 67.4566 950.944 67.5458 950.522 67.5012C949.995 67.4484 949.524 67.1929 949.188 66.7831C948.855 66.3693 948.697 65.8541 948.754 65.3267C948.814 64.6938 949.171 64.1421 949.719 63.8216C950.084 63.6066 950.502 63.5173 950.924 63.562C952.007 63.6675 952.802 64.6452 952.693 65.7324C952.628 66.3693 952.275 66.917 951.727 67.2416Z" fill="#00344A"/>
<path d="M653.333 111.181C652.967 111.396 652.554 111.486 652.132 111.441C651.604 111.388 651.134 111.133 650.797 110.723C650.464 110.313 650.306 109.798 650.363 109.271C650.432 108.638 650.781 108.086 651.333 107.761C651.698 107.546 652.111 107.457 652.533 107.498C653.617 107.611 654.412 108.581 654.302 109.668C654.237 110.309 653.884 110.857 653.333 111.181Z" fill="#00344A"/>
<path d="M139.249 79.8631C139.614 79.648 140.032 79.5588 140.45 79.5994C140.977 79.6521 141.452 79.9117 141.785 80.3215C142.122 80.7272 142.276 81.2465 142.219 81.7698C142.158 82.4027 141.801 82.9544 141.249 83.2789C140.888 83.494 140.47 83.5832 140.053 83.5426C139.525 83.4899 139.05 83.2343 138.718 82.8246C138.381 82.4108 138.227 81.8996 138.28 81.3682C138.345 80.7353 138.698 80.1876 139.249 79.8631Z" fill="#00344A"/>
<path d="M201.683 161.746C202.048 161.531 202.462 161.442 202.884 161.482C203.411 161.539 203.886 161.795 204.218 162.204C204.551 162.61 204.705 163.129 204.652 163.653C204.588 164.285 204.235 164.837 203.683 165.162C203.322 165.377 202.904 165.466 202.486 165.425C201.959 165.373 201.484 165.117 201.147 164.703C200.815 164.29 200.661 163.778 200.713 163.247C200.778 162.618 201.131 162.07 201.683 161.746Z" fill="#00344A"/>
<path d="M228.073 121.712C228.438 121.497 228.856 121.408 229.278 121.453C229.801 121.505 230.276 121.761 230.613 122.171C230.945 122.576 231.104 123.096 231.047 123.623C230.986 124.256 230.629 124.808 230.081 125.132C229.716 125.347 229.298 125.436 228.88 125.392C228.353 125.339 227.878 125.083 227.546 124.674C227.213 124.26 227.055 123.745 227.108 123.217C227.173 122.589 227.521 122.041 228.073 121.712Z" fill="#00344A"/>
<path d="M270.468 88.6146C270.833 88.3996 271.251 88.3103 271.673 88.3549C272.196 88.4077 272.671 88.6633 273.007 89.073C273.34 89.4787 273.498 89.998 273.441 90.5254C273.381 91.1582 273.024 91.71 272.476 92.0345C272.111 92.2495 271.697 92.3388 271.275 92.2942C270.748 92.2414 270.273 91.9858 269.94 91.5761C269.608 91.1623 269.449 90.6471 269.502 90.1197C269.563 89.4868 269.912 88.9432 270.468 88.6146Z" fill="#00344A"/>
<path d="M312.98 110.978C313.341 110.763 313.759 110.674 314.181 110.718C314.704 110.771 315.183 111.027 315.515 111.436C315.852 111.842 316.002 112.361 315.949 112.889C315.884 113.526 315.532 114.073 314.98 114.398C314.615 114.613 314.201 114.702 313.779 114.657C313.256 114.601 312.777 114.349 312.444 113.939C312.112 113.526 311.957 113.01 312.01 112.483C312.071 111.854 312.424 111.306 312.98 110.978Z" fill="#00344A"/>
<path d="M388.133 134.857C388.498 134.642 388.912 134.553 389.334 134.597C389.857 134.65 390.336 134.905 390.669 135.319C391.001 135.725 391.16 136.24 391.103 136.768C391.038 137.4 390.681 137.952 390.133 138.277C389.768 138.492 389.354 138.577 388.932 138.54C388.405 138.488 387.93 138.232 387.598 137.822C387.265 137.409 387.107 136.893 387.164 136.37C387.229 135.729 387.582 135.181 388.133 134.857Z" fill="#00344A"/>
<path d="M430.067 136.418C430.432 136.203 430.846 136.113 431.268 136.154C431.791 136.207 432.266 136.462 432.602 136.876C432.935 137.282 433.093 137.797 433.036 138.324C432.972 138.957 432.615 139.509 432.067 139.834C431.702 140.049 431.288 140.134 430.866 140.097C430.339 140.045 429.864 139.789 429.531 139.375C429.199 138.961 429.04 138.446 429.097 137.923C429.162 137.29 429.515 136.742 430.067 136.418Z" fill="#00344A"/>
<path d="M351.279 157.246C351.64 157.031 352.058 156.942 352.48 156.982C353.007 157.039 353.482 157.291 353.815 157.704C354.151 158.11 354.301 158.629 354.253 159.153C354.188 159.79 353.835 160.337 353.283 160.666C352.922 160.877 352.504 160.97 352.086 160.925C351.563 160.873 351.088 160.617 350.752 160.207C350.419 159.794 350.265 159.282 350.313 158.755C350.378 158.118 350.727 157.57 351.279 157.246Z" fill="#00344A"/>
<path d="M476.694 137.896C477.06 137.681 477.473 137.592 477.895 137.636C478.423 137.689 478.897 137.949 479.23 138.354C479.563 138.764 479.717 139.279 479.664 139.807C479.599 140.439 479.246 140.987 478.694 141.316C478.333 141.531 477.916 141.62 477.498 141.579C476.97 141.523 476.496 141.271 476.163 140.857C475.83 140.444 475.672 139.932 475.725 139.405C475.79 138.772 476.139 138.22 476.694 137.896Z" fill="#00344A"/>
<path d="M583.988 123.566C584.349 123.351 584.771 123.262 585.192 123.302C585.716 123.355 586.19 123.615 586.523 124.025C586.86 124.43 587.014 124.95 586.957 125.477C586.892 126.11 586.539 126.658 585.988 126.986C585.622 127.201 585.209 127.29 584.787 127.246C584.263 127.193 583.785 126.937 583.452 126.528C583.119 126.11 582.965 125.603 583.018 125.071C583.083 124.442 583.44 123.895 583.988 123.566Z" fill="#00344A"/>
<path d="M594.531 98.8084C594.896 98.5934 595.309 98.5041 595.735 98.5447C596.259 98.5974 596.733 98.8571 597.066 99.2668C597.403 99.6725 597.557 100.192 597.5 100.719C597.435 101.352 597.082 101.904 596.531 102.228C596.165 102.443 595.752 102.533 595.33 102.488C594.806 102.435 594.328 102.18 593.995 101.77C593.662 101.356 593.508 100.845 593.561 100.318C593.626 99.6847 593.983 99.137 594.531 98.8084Z" fill="#00344A"/>
<path d="M567.484 147.459C567.849 147.244 568.263 147.159 568.689 147.196C569.216 147.248 569.691 147.508 570.019 147.918C570.356 148.328 570.51 148.843 570.453 149.37C570.388 150.003 570.035 150.555 569.484 150.879C569.119 151.094 568.705 151.184 568.283 151.139C567.76 151.086 567.281 150.831 566.948 150.421C566.615 150.007 566.461 149.496 566.514 148.969C566.579 148.336 566.932 147.788 567.484 147.459Z" fill="#00344A"/>
<path d="M231.042 152.554C231.407 152.343 231.821 152.25 232.243 152.291C232.766 152.343 233.241 152.599 233.578 153.009C233.91 153.414 234.068 153.934 234.012 154.461C233.951 155.094 233.598 155.646 233.046 155.97C232.681 156.185 232.267 156.274 231.845 156.23C231.318 156.177 230.843 155.921 230.511 155.512C230.178 155.098 230.02 154.587 230.072 154.059C230.137 153.426 230.49 152.879 231.042 152.554Z" fill="#00344A"/>
<path d="M355.937 133.767C356.298 133.556 356.712 133.462 357.138 133.507C357.661 133.56 358.136 133.811 358.472 134.225C358.805 134.635 358.955 135.15 358.907 135.677C358.842 136.314 358.485 136.862 357.933 137.187C357.572 137.398 357.154 137.491 356.732 137.45C355.645 137.341 354.854 136.363 354.963 135.28C355.032 134.639 355.385 134.091 355.937 133.767Z" fill="#00344A"/>
<path d="M516.539 139.364C516.904 139.149 517.322 139.056 517.74 139.101C518.268 139.158 518.742 139.409 519.079 139.819C519.412 140.229 519.566 140.744 519.513 141.267C519.448 141.908 519.095 142.456 518.548 142.78C518.182 142.995 517.765 143.085 517.343 143.04C516.819 142.987 516.341 142.732 516.012 142.318C515.675 141.912 515.517 141.397 515.574 140.865C515.639 140.237 515.992 139.689 516.539 139.364Z" fill="#00344A"/>
<path d="M165.726 172.896C166.091 172.681 166.508 172.592 166.93 172.636C167.454 172.689 167.928 172.945 168.265 173.354C168.598 173.764 168.756 174.283 168.699 174.811C168.638 175.439 168.281 175.995 167.734 176.316C167.369 176.531 166.951 176.62 166.533 176.575C165.446 176.47 164.655 175.492 164.764 174.405C164.821 173.772 165.178 173.22 165.726 172.896Z" fill="#00344A"/>
<path d="M218.249 183.31C218.614 183.095 219.032 183.006 219.454 183.05C219.981 183.103 220.452 183.359 220.789 183.768C221.121 184.182 221.28 184.697 221.223 185.225C221.162 185.858 220.805 186.409 220.257 186.73C219.892 186.945 219.474 187.034 219.052 186.989C217.969 186.884 217.174 185.906 217.284 184.819C217.348 184.182 217.701 183.63 218.249 183.31Z" fill="#00344A"/>
<path d="M947.675 187.455C947.31 187.67 946.896 187.759 946.474 187.718C945.947 187.666 945.476 187.41 945.136 187C944.803 186.59 944.649 186.071 944.702 185.548C944.766 184.915 945.119 184.367 945.671 184.043C946.036 183.828 946.45 183.738 946.872 183.779C947.395 183.832 947.87 184.087 948.207 184.501C948.543 184.911 948.693 185.426 948.641 185.954C948.58 186.586 948.227 187.13 947.675 187.455Z" fill="#00344A"/>
<path d="M634.046 160.933C633.681 161.148 633.268 161.241 632.846 161.197C632.318 161.14 631.844 160.888 631.507 160.478C631.17 160.069 631.02 159.553 631.073 159.03C631.138 158.389 631.491 157.841 632.038 157.517C632.399 157.302 632.821 157.213 633.243 157.257C633.767 157.31 634.245 157.566 634.574 157.979C634.911 158.385 635.069 158.9 635.012 159.432C634.951 160.061 634.598 160.612 634.046 160.933Z" fill="#00344A"/>
<path d="M736.929 76.8978C736.564 77.1128 736.15 77.2021 735.728 77.1575C735.201 77.1047 734.73 76.8491 734.394 76.4394C734.057 76.0296 733.907 75.5144 733.96 74.987C734.024 74.3542 734.373 73.8024 734.929 73.4779C735.294 73.2629 735.708 73.1736 736.13 73.2182C737.213 73.3237 738.008 74.3014 737.899 75.3887C737.834 76.0215 737.481 76.5733 736.929 76.8978Z" fill="#00344A"/>
<path d="M830.462 157.455C830.096 157.67 829.683 157.759 829.257 157.718C828.729 157.666 828.259 157.41 827.922 157C827.589 156.59 827.431 156.075 827.488 155.548C827.553 154.915 827.906 154.363 828.453 154.043C828.819 153.828 829.232 153.738 829.658 153.779C830.186 153.836 830.66 154.087 830.993 154.501C831.33 154.911 831.484 155.426 831.427 155.954C831.366 156.582 831.009 157.13 830.462 157.455Z" fill="#00344A"/>
<path d="M901.188 109.839C900.823 110.054 900.405 110.143 899.983 110.099C899.46 110.046 898.981 109.791 898.649 109.381C898.316 108.971 898.158 108.452 898.214 107.924C898.279 107.292 898.632 106.74 899.18 106.419C899.545 106.204 899.963 106.115 900.385 106.16C901.472 106.265 902.263 107.243 902.154 108.33C902.089 108.963 901.736 109.515 901.188 109.839Z" fill="#00344A"/>
<path d="M222.3 63.0935C222.665 62.8785 223.079 62.7893 223.501 62.8298C224.028 62.8866 224.503 63.1382 224.84 63.5479C225.172 63.9576 225.326 64.4769 225.274 65.0003C225.209 65.6331 224.856 66.1808 224.304 66.5054C223.939 66.7204 223.525 66.8096 223.103 66.769C222.58 66.7163 222.101 66.4607 221.769 66.0469C221.432 65.6372 221.282 65.122 221.335 64.5946C221.395 63.9658 221.748 63.4181 222.3 63.0935Z" fill="#00344A"/>
<path d="M433.05 173.648C433.415 173.433 433.829 173.344 434.251 173.385C434.778 173.437 435.249 173.693 435.586 174.103C435.922 174.512 436.072 175.028 436.02 175.555C435.955 176.188 435.606 176.74 435.05 177.064C434.685 177.279 434.271 177.368 433.849 177.324C432.766 177.218 431.967 176.241 432.076 175.153C432.145 174.525 432.498 173.973 433.05 173.648Z" fill="#00344A"/>
<path d="M339.516 93.0935C339.881 92.8785 340.295 92.7893 340.721 92.8298C341.249 92.8826 341.723 93.1382 342.056 93.5479C342.389 93.9576 342.547 94.4729 342.49 95.0003C342.425 95.6331 342.072 96.1849 341.52 96.5054C341.155 96.7204 340.741 96.8096 340.315 96.769C339.788 96.7123 339.313 96.4607 338.981 96.051C338.644 95.6412 338.49 95.126 338.547 94.5986C338.612 93.9658 338.969 93.4181 339.516 93.0935Z" fill="#00344A"/>
<path d="M268.792 140.708C269.157 140.497 269.575 140.404 269.997 140.448C270.52 140.501 270.999 140.757 271.332 141.166C271.664 141.576 271.823 142.095 271.766 142.623C271.701 143.256 271.348 143.808 270.796 144.128C270.431 144.343 270.017 144.432 269.591 144.388C268.504 144.278 267.713 143.304 267.823 142.217C267.892 141.584 268.245 141.033 268.792 140.708Z" fill="#00344A"/>
<path d="M536.058 89.6849C536.423 89.4699 536.837 89.3806 537.259 89.4253C537.786 89.478 538.257 89.7336 538.593 90.1433C538.926 90.5531 539.084 91.0683 539.027 91.5957C538.963 92.2286 538.61 92.7803 538.058 93.1048C537.693 93.3158 537.279 93.4091 536.857 93.3645C535.774 93.2509 534.979 92.2813 535.088 91.19C535.153 90.5571 535.506 90.0094 536.058 89.6849Z" fill="#00344A"/>
</svg>
