<svg xmlns="http://www.w3.org/2000/svg" width="550" height="471" fill="none"><path fill="#7BD6D6" d="M70.38 373.031c-1.249 0-2.497-.278-3.468-.832L9.49 338.804c-.97-.555-1.525-1.386-1.525-2.218 0-.831.555-1.662 1.526-2.217l90.986-52.518c1.942-1.109 5.132-1.109 7.074 0l57.422 33.396c.971.554 1.525 1.385 1.525 2.217 0 .831-.554 1.663-1.525 2.217l-90.987 52.518c-.971.554-2.22.832-3.606.832m33.704-91.319c-1.11 0-2.358.278-3.19.832l-91.126 52.38c-.832.415-1.248 1.108-1.248 1.662q0 1.04 1.248 1.663l57.421 33.396c1.804.97 4.716.97 6.52 0l90.986-52.519c.832-.415 1.249-1.108 1.249-1.662q0-1.04-1.249-1.663l-57.421-33.396c-.833-.415-2.081-.693-3.19-.693"/><path fill="#7BD6D6" d="M68.988 377.888c-1.387 0-2.774-.277-3.883-.97L2.274 340.335c-1.11-.693-1.665-1.524-1.665-2.356 0-.97.555-1.801 1.665-2.355l99.447-57.646c2.081-1.247 5.548-1.247 7.629 0l62.831 36.583c1.109.693 1.664 1.524 1.664 2.356 0 .97-.555 1.801-1.664 2.355l-99.448 57.646c-.97.693-2.358.97-3.745.97M2.69 336.178c-.832.554-1.387 1.247-1.387 1.94s.416 1.386 1.387 1.801l62.83 36.583c1.943 1.109 5.133 1.109 7.074 0l99.448-57.645c.832-.555 1.387-1.247 1.387-1.94s-.416-1.386-1.387-1.802l-62.831-36.582c-1.942-1.109-5.132-1.109-7.074 0zM267.469 328.41q-.209 0 0 0l-166.44-95.891c-.138 0-.138-.138-.138-.277 0-.138 0-.138.138-.277l166.301-95.891h.277l166.301 95.891c.139 0 .139.139.139.277 0 .139 0 .139-.139.277zm-165.746-96.168 165.746 95.614 165.607-95.614-165.746-95.475z"/><path fill="#7BD6D6" d="M267.476 337.555q-.209 0 0 0L85.225 232.519c-.14 0-.14-.139-.14-.277 0-.139 0-.139.14-.278l182.112-104.898h.278l182.112 104.898c.139 0 .139.139.139.278 0 .138 0 .138-.139.277zM85.918 232.242l181.558 104.621 181.419-104.621-181.558-104.621zM424.338 386.063l-78.227-45.036c-.138 0-.138-.138-.138-.277 0-.138 0-.138.138-.277l77.949-45.035h.278l77.949 45.035c.139 0 .139.139.139.277 0 .139 0 .139-.139.277zq.209 0 0 0m-77.395-45.313 77.534 44.62 77.394-44.62-77.394-44.62z"/><path fill="#7BD6D6" d="m424.341 390.352-85.577-49.332c-.139 0-.139-.138-.139-.277 0-.138 0-.138.139-.277l85.439-49.193h.277l85.439 49.193c.139 0 .139.139.139.277 0 .139 0 .139-.139.277zq.209 0 0 0m-84.884-49.609 84.884 48.916 84.884-48.916-84.884-48.915z"/><path fill="#7BD6D6" d="m424.336 396.592-96.396-55.566c-.139 0-.139-.139-.139-.278 0-.138 0-.138.139-.277l96.118-55.428h.278l96.118 55.428c.139 0 .139.139.139.277 0 .139 0 .139-.139.278zq.207 0 0 0m-95.564-55.844 95.702 55.152 95.564-55.152-95.564-55.151zM235.713 460.614l-78.227-45.036c-.138 0-.138-.138-.138-.277s0-.139.138-.277l77.95-45.036h.277l77.949 45.036c.139 0 .139.138.139.277s0 .138-.139.277zq.209 0 0 0m-77.394-45.313 77.533 44.62 77.394-44.62-77.394-44.62z"/><path fill="#7BD6D6" d="m235.712 464.766-85.577-49.332c-.139 0-.139-.138-.139-.277 0-.138 0-.138.139-.277l85.439-49.192h.277l85.439 49.192c.139 0 .139.139.139.277 0 .139 0 .139-.139.277zq.209 0 0 0m-84.884-49.47 84.884 48.915 84.884-48.915-84.884-48.916z"/><path fill="#7BD6D6" d="m235.711 471.003-96.397-55.567c-.138 0-.138-.139-.138-.277 0-.139 0-.139.138-.278l96.119-55.428h.278l96.118 55.428c.139 0 .139.139.139.278 0 .138 0 .138-.139.277zq.207 0 0 0m-95.564-55.706 95.702 55.151 95.564-55.151-95.564-55.151z"/><path fill="#7BD6D6" d="M311.855 460.476h-.138l-28.711-16.767c-.139-.139-.139-.278-.139-.416.139-.139.278-.139.416-.139l28.434 16.767 80.584-46.421-52.844-30.624c-.139 0-.139-.138-.139-.277s0-.139.139-.277l29.959-17.737c.138-.139.277 0 .416.138.138.139 0 .277-.139.416l-29.543 17.46 52.845 30.624c.138 0 .138.139.138.277 0 .139 0 .139-.138.277zM289.663 391.05c-.139 0-.139 0-.277-.138-.139-.139 0-.277.138-.416l62.415-36.028c.139-.139.277 0 .416.138.139.139 0 .277-.138.416zq.209 0 0 0M137.792 295.161c-.139 0-.139 0-.278-.139-.138-.139 0-.277.139-.416l28.017-15.935c.139-.139.278 0 .417.138.138.139 0 .277-.139.416zq.208 0 0 0M203.532 378.983h-.138l-51.458-30.208-16.505 9.423h-.278l-15.534-8.592c-.139-.138-.139-.277-.139-.415.139-.139.278-.139.417-.139l15.395 8.453 16.505-9.423h.278l51.596 30.208c.139.139.139.278.139.416-.139.277-.278.277-.278.277M465.81 309.573c-.139 0-.139 0-.277-.139-.139-.138 0-.277.138-.415l83.498-48.916-159.366-91.041c-.139-.138-.139-.277-.139-.416.139-.138.277-.138.416-.138l159.782 91.179c.139 0 .139.139.139.278 0 .138 0 .138-.139.277l-83.913 49.192c0 .139 0 .139-.139.139"/><path fill="#7BD6D6" d="M360.669 379.536c1.665.97 1.665 2.494 0 3.464-1.664.97-4.299.97-5.964 0-1.664-.97-1.664-2.494 0-3.464 1.665-.97 4.3-.97 5.964 0"/><path fill="#7BD6D6" d="M357.62 381.197c-.139 0-.139 0-.277-.139-.139-.138 0-.277.138-.415l20.112-11.64c.138-.139.277 0 .416.138.139.139 0 .277-.139.416zq.209 0 0 0M162.065 363.052c-1.665.97-1.665 2.494 0 3.464 1.664.97 4.299.97 5.964 0 1.664-.97 1.664-2.494 0-3.464-1.665-.97-4.3-.97-5.964 0"/><path fill="#7BD6D6" d="m164.975 364.718-20.25-11.64c-.139-.139-.139-.277-.139-.416.139-.139.277-.139.416-.139l20.111 11.64c.139.139.139.278.139.416 0 0-.139.139-.277.139M191.322 303.892c1.664.97 1.664 2.494 0 3.464-1.665.97-4.3.97-5.964 0s-1.665-2.494 0-3.464c1.664-.97 4.438-.97 5.964 0"/><path fill="#7BD6D6" d="M191.186 304.719c-.138 0-.138 0-.277-.139-.139-.138 0-.277.139-.415l9.986-5.682c.139-.138.277 0 .416.139.139.138 0 .277-.139.415zq.208 0 0 0M471.224 241.11c1.664.97 1.664 2.495 0 3.465s-4.3.97-5.964 0-1.664-2.495 0-3.465 4.3-.97 5.964 0M490.501 274.782c1.665.97 1.665 2.494 0 3.464-1.664.97-4.299.97-5.964 0-1.664-.97-1.664-2.494 0-3.464 1.665-.97 4.3-.97 5.964 0"/><path fill="#7BD6D6" d="M485.369 297.643q-.209 0 0 0l-17.06-9.7c-.139 0-.139-.138-.139-.277 0-.138 0-.138.139-.277l18.863-10.947-19.002-10.947c-.139 0-.139-.139-.139-.277 0-.139 0-.139.139-.277l19.557-10.947-19.557-10.948c-.139-.138-.139-.277-.139-.415.139-.139.278-.139.416-.139l19.973 11.224c.139 0 .139.139.139.278 0 .138 0 .138-.139.277l-19.557 10.947 19.002 10.947c.139 0 .139.138.139.277s0 .139-.139.277l-18.863 10.947 16.505 9.423c.139.139.139.277.139.416-.139.138-.277.138-.277.138M349.025 394.095c1.664.97 1.664 2.494 0 3.464-1.665.97-4.3.97-5.964 0s-1.665-2.494 0-3.464c1.664-.97 4.299-.97 5.964 0"/><path fill="#7BD6D6" d="m365.527 429.704-19.556-11.225c-.139 0-.139-.138-.139-.277 0-.138 0-.138.139-.277l19.556-10.947-19.556-10.947c-.139-.139-.139-.277-.139-.416.139-.138.277-.138.416-.138l19.973 11.224c.139 0 .139.138.139.277s0 .139-.139.277l-19.557 10.947 19.002 10.947c.139.139.139.277.139.416-.139.139-.139.139-.278.139"/><path fill="#E6E6EF" d="m268.58 369.988-32.872-18.984-65.743 37.968 32.872 18.985zm-32.872-16.49 28.711 16.629-61.721 35.612-28.711-16.628z"/><path fill="url(#a)" d="m264.561 369.99-28.85-16.49-61.582 35.474 28.711 16.629z"/><path fill="#233548" d="m241.258 404.77 21.914-12.61v-3.187l-21.914 12.61z"/><path fill="url(#b)" d="m257.625 388.978 5.548-3.188v-6.235l-5.548 3.187z"/><path fill="#EFC87E" d="M252.216 392.163v-6.374l-5.548 3.187v6.374z"/><path fill="#334F67" d="M202.832 407.957v25.22l65.744-37.969v-25.22zm38.42-15.797 5.409-3.188 5.548-3.187v6.375l-5.548 3.187-5.409 3.187zm-5.548 15.797-27.463 15.797v-12.61l27.463-15.797zm27.462-15.797-21.914 12.61v-3.188l21.914-12.61zm0-6.375-5.548 3.187v-6.374l5.548-3.187z"/><path fill="url(#c)" d="m246.667 388.973-5.409 3.187v6.374l5.409-3.187z"/><path fill="#E48A7D" d="m208.383 423.755 27.462-15.797v-12.61l-27.462 15.797zm.971-12.056 25.382-14.688v10.254l-25.382 14.688z"/><path fill="url(#d)" d="m234.734 397.152-25.382 14.55v10.255l25.382-14.55z"/><path fill="#7BD6D6" d="m197.43 423.747 2.635 1.662v-12.748l-2.635-1.524zM192.43 408.234v12.749l2.774 1.524v-12.61zM187.445 405.465v12.61l2.774 1.663v-12.749zM182.59 402.551v12.748l2.774 1.525v-12.61zM177.594 399.785v12.61l2.774 1.524v-12.61zM172.738 396.875v12.749l2.774 1.524v-12.61z"/><path fill="#CACFEC" d="m202.837 407.957-32.872-18.984v25.22l32.872 18.984v-25.22m-27.324 3.187-2.774-1.524v-12.61l2.774 1.524v12.61m4.854 2.771-2.774-1.524v-12.61l2.774 1.524v12.61m4.993 2.91-2.773-1.524v-12.61l2.773 1.524v12.61m4.855 2.91-2.774-1.524v-12.61l2.774 1.524v12.61m4.993 2.772-2.774-1.525v-12.609l2.774 1.524v12.61m4.855 2.91-2.774-1.525v-12.609l2.774 1.524z"/><path fill="#E6E6EF" d="m301.447 388.972-32.871-18.984-65.744 37.969 32.872 18.984zm-32.871-16.628 28.71 16.628-61.721 35.613-28.711-16.628z"/><path fill="url(#e)" d="m297.428 388.968-28.849-16.628-61.583 35.613 28.711 16.628z"/><path fill="#271644" d="m274.133 423.758 21.914-12.61v-3.187l-21.914 12.61z"/><path fill="#D14D84" d="m290.492 407.962 5.548-3.187v-6.236l-5.548 3.049z"/><path fill="#7BD6D6" d="M285.087 411.144v-6.374l-5.548 3.187v6.374z"/><path fill="#DDDDE9" d="M235.707 426.941v25.22l65.744-37.968v-25.22zm38.42-15.797 5.409-3.187 5.548-3.187v6.374l-5.548 3.187-5.409 3.187zm-5.548 15.797-27.463 15.797v-12.61l27.463-15.797zm27.462-15.797-21.914 12.61v-3.187l21.914-12.61zm0-6.374-5.548 3.187v-6.374l5.548-3.188z"/><path fill="#E7AD47" d="m279.542 407.961-5.409 3.187v6.374l5.409-3.187z"/><path fill="#271644" d="m241.258 442.735 27.462-15.797v-12.61l-27.462 15.797zm.971-12.056 25.382-14.688v10.254l-25.382 14.689z"/><path fill="#D14D84" d="m267.609 415.992-25.382 14.689v10.254l25.382-14.55z"/><path fill="#7BD6D6" d="m230.297 442.739 2.635 1.524v-12.61l-2.635-1.524zM225.301 427.219v12.61l2.774 1.663v-12.61zM220.312 424.445v12.61l2.774 1.525v-12.61zM215.457 421.535v12.61l2.774 1.663v-12.61zM210.469 418.758v12.61l2.774 1.524v-12.61zM205.609 415.855v12.61l2.774 1.663v-12.61z"/><path fill="#CACFEC" d="m235.704 426.945-32.872-18.984v25.22l32.872 18.984v-25.22m-27.324 3.187-2.774-1.524v-12.61l2.774 1.524v12.61m4.854 2.772-2.773-1.525v-12.61l2.773 1.525v12.61m4.994 2.91-2.774-1.525v-12.61l2.774 1.525v12.61m4.854 2.771-2.774-1.524v-12.61l2.774 1.524v12.61m4.993 2.91-2.774-1.524v-12.61l2.774 1.524v12.61m4.855 2.771-2.774-1.524v-12.61l2.774 1.525z"/><path fill="#E6E6EF" d="m457.213 296.543-32.872-18.984-65.743 37.968 32.871 18.984zm-32.872-16.49 28.711 16.628-61.721 35.613-28.711-16.628z"/><path fill="url(#f)" d="m453.194 296.545-28.85-16.49-61.582 35.474 28.711 16.628z"/><path fill="#233548" d="m429.891 331.324 21.914-12.61v-3.187l-21.914 12.61z"/><path fill="url(#g)" d="m446.258 315.532 5.548-3.187v-6.236l-5.548 3.188z"/><path fill="#EFC87E" d="M440.849 318.718v-6.374l-5.548 3.187v6.374z"/><path fill="#334F67" d="M391.465 334.511v25.22l65.743-37.968v-25.22zm38.42-15.797 5.409-3.187 5.548-3.187v6.374l-5.548 3.187-5.409 3.188zm-5.548 15.797-27.463 15.797v-12.609l27.463-15.798zm27.462-15.797-21.914 12.61v-3.187l21.914-12.61zm0-6.374-5.548 3.187v-6.374l5.548-3.187z"/><path fill="url(#h)" d="m435.3 315.527-5.409 3.187v6.375l5.409-3.187z"/><path fill="#E48A7D" d="m397.016 350.309 27.462-15.797v-12.61l-27.462 15.797zm.971-12.055 25.382-14.689v10.254l-25.382 14.689z"/><path fill="url(#i)" d="m423.366 323.707-25.382 14.55v10.254l25.382-14.55z"/><path fill="#7BD6D6" d="m386.062 350.301 2.636 1.663v-12.748l-2.636-1.525zM381.062 334.789v12.749l2.774 1.524v-12.61zM376.078 332.02v12.609l2.774 1.663v-12.748zM371.223 329.105v12.749l2.774 1.524v-12.61zM366.227 326.34v12.61l2.774 1.524v-12.61zM361.371 323.43v12.748l2.774 1.525v-12.61z"/><path fill="#CACFEC" d="m391.469 334.512-32.871-18.985v25.22l32.871 18.984v-25.219m-27.323 3.187-2.774-1.525v-12.61l2.774 1.525v12.61M369 340.47l-2.774-1.524v-12.61L369 327.86v12.61m4.993 2.91-2.774-1.524v-12.61l2.774 1.524v12.61m4.855 2.91-2.774-1.524v-12.61l2.774 1.524v12.61m4.993 2.771-2.774-1.524v-12.61l2.774 1.524v12.61m4.854 2.91-2.774-1.524v-12.61l2.774 1.524z"/><path fill="#E6E6EF" d="m490.08 315.527-32.872-18.984-65.743 37.968 32.872 18.985zm-32.872-16.628 28.711 16.628-61.721 35.613-28.711-16.629z"/><path fill="url(#j)" d="m486.061 315.523-28.85-16.628-61.582 35.612 28.711 16.629z"/><path fill="#271644" d="m462.766 350.313 21.914-12.61v-3.187l-21.914 12.61z"/><path fill="#7BD6D6" d="m479.125 334.517 5.548-3.188v-6.235l-5.548 3.048z"/><path fill="#402877" d="M473.72 337.698v-6.374l-5.548 3.187v6.375z"/><path fill="#DDDDE9" d="M424.34 353.496v25.22l65.743-37.969v-25.22zm38.42-15.797 5.409-3.187 5.548-3.188v6.375l-5.548 3.187-5.409 3.187zm-5.548 15.797-27.463 15.797v-12.61l27.463-15.797zm27.462-15.797-21.914 12.61v-3.188l21.914-12.609zm0-6.375-5.548 3.188v-6.375l5.548-3.187z"/><path fill="#E7AD47" d="m468.175 334.516-5.409 3.187v6.374l5.409-3.187z"/><path fill="#271644" d="m429.891 369.29 27.462-15.797v-12.61l-27.462 15.797zm.97-12.056 25.383-14.688V352.8l-25.383 14.688z"/><path fill="#402877" d="m456.241 342.547-25.382 14.688v10.255l25.382-14.55z"/><path fill="#7BD6D6" d="m418.93 369.294 2.635 1.524v-12.61l-2.635-1.524zM413.938 353.773v12.61l2.773 1.663v-12.61zM408.945 351v12.61l2.774 1.524v-12.61zM404.09 348.09v12.61l2.774 1.663v-12.61zM399.102 345.312v12.61l2.774 1.525v-12.61zM394.242 342.41v12.61l2.774 1.663v-12.61z"/><path fill="#CACFEC" d="m424.337 353.5-32.872-18.984v25.22l32.872 18.984V353.5m-27.324 3.187-2.774-1.524v-12.61l2.774 1.524v12.61m4.854 2.771-2.774-1.524v-12.61l2.774 1.524v12.61m4.993 2.91-2.774-1.524v-12.61l2.774 1.524v12.61m4.855 2.772-2.774-1.525v-12.609l2.774 1.524v12.61m4.993 2.91-2.774-1.525v-12.609l2.774 1.524v12.61m4.855 2.771-2.774-1.524v-12.61l2.774 1.524z"/><path fill="#7BD6D6" d="m8.658 328.413 3.052 1.801c-.555-.277-.971-.97-.971-1.94l-3.052-1.801c0 .97.417 1.662.971 1.94M100.333 212.433l-3.051-1.802c-.555-.277-1.387-.277-2.22.277l3.052 1.802c.832-.554 1.664-.554 2.219-.277"/><path fill="#7BD6D6" d="m10.59 266.751-3.05-1.802.138 61.526 3.051 1.801zM98.113 212.708l-3.051-1.802-84.468 48.639 3.19 1.801z"/><path fill="#7BD6D6" d="m13.78 261.348-3.05-1.801c-1.665.97-3.19 3.464-3.19 5.404l3.05 1.802c0-1.94 1.387-4.435 3.19-5.405"/><path fill="#CACFEC" d="M13.784 261.349c-1.665.97-3.19 3.465-3.19 5.405l.139 61.525c0 1.94 1.386 2.772 3.19 1.802l84.329-48.639c1.803-.97 3.19-3.464 3.19-5.404l-.139-61.525c0-1.94-1.387-2.772-3.19-1.802z"/><path fill="url(#k)" d="m98.107 219.773.138 54.459-84.329 48.638-.139-54.458z"/><path fill="#7BD6D6" d="M12.676 331.867v3.603c0 .693.416 1.247 1.248 1.801v-3.602c-.832-.555-1.248-1.248-1.248-1.802M67.188 364.57v3.603c1.664.97 4.577.97 6.241 0v-3.603c-1.803.97-4.577.97-6.242 0M159.143 317.599v-3.603c0 .693-.416 1.386-1.248 1.801v3.603c.832-.415 1.248-1.108 1.248-1.801"/><path fill="#7BD6D6" d="M13.922 333.668v3.603l53.26 30.901v-3.603zM73.422 364.57v3.603l84.329-48.777v-3.603z"/><path fill="#E6E6EF" d="M13.924 330.067c-1.664.97-1.664 2.633 0 3.603l53.26 30.901c1.665.97 4.578.97 6.242 0l84.329-48.638c1.804-.97 1.665-2.633 0-3.603l-53.121-31.04c-1.665-.97-4.578-.97-6.242 0z"/><path fill="#CACFEC" d="m82.45 339.057 31.068-17.876c.833-.554 2.22-.554 3.19 0l8.877 5.127c.832.555.832 1.248 0 1.802l-31.207 17.876c-.832.554-2.22.554-3.19 0l-8.877-5.128c-.832-.415-.832-1.247.139-1.801"/><path fill="#B1E0DD" d="M97.43 286.836v.97l5.686 3.187v-.831zM103.117 290.164v.831l5.548-3.187v-.831z"/><path fill="url(#l)" d="m97.43 286.836 5.686 3.325 5.548-3.187-5.686-3.326z"/><path fill="#B1E0DD" d="M90.21 290.992v.832l5.688 3.325v-.831zM95.898 294.318v.831l5.687-3.187v-.97z"/><path fill="url(#m)" d="m90.21 290.988 5.688 3.326 5.686-3.326-5.686-3.187z"/><path fill="#B1E0DD" d="M83.133 295.148v.832l5.687 3.326v-.97zM88.824 298.336v.97l5.548-3.188v-.97z"/><path fill="url(#n)" d="m83.133 295.146 5.687 3.187 5.548-3.187-5.687-3.326z"/><path fill="#B1E0DD" d="M75.922 299.16v.97l5.687 3.326v-.97zM81.613 302.488v.97l5.548-3.187v-.97z"/><path fill="url(#o)" d="m75.922 299.16 5.687 3.325 5.547-3.187-5.686-3.325z"/><path fill="#B1E0DD" d="M68.719 303.324v.97l5.686 3.326v-.97zM74.406 306.652v.97l5.687-3.326v-.831z"/><path fill="url(#p)" d="m68.719 303.32 5.686 3.326 5.687-3.187-5.687-3.326z"/><path fill="#B1E0DD" d="M61.633 307.477v.97l5.687 3.187v-.832zM67.324 310.804v.832l5.548-3.187v-.832z"/><path fill="url(#q)" d="m61.633 307.472 5.687 3.326 5.548-3.187-5.687-3.326z"/><path fill="#B1E0DD" d="M54.422 311.641v.831l5.687 3.326v-.832zM60.113 314.966v.832l5.548-3.187v-.97z"/><path fill="url(#r)" d="m54.422 311.64 5.687 3.326 5.547-3.326-5.686-3.187z"/><path fill="#B1E0DD" d="M47.215 315.801v.831l5.686 3.326v-.832zM52.906 319.126v.832l5.687-3.187v-.97z"/><path fill="url(#s)" d="m47.215 315.798 5.686 3.326 5.687-3.326-5.687-3.325z"/><path fill="#B1E0DD" d="M40.145 319.961v.831l5.686 3.326v-.97z"/><path fill="#B1E0DD" d="M45.828 323.148v.97l5.548-3.187v-.97z"/><path fill="url(#t)" d="m40.145 319.959 5.686 3.187 5.548-3.187-5.686-3.326z"/><path fill="#B1E0DD" d="M32.926 323.969v.97l5.686 3.325v-.97zM38.613 327.3v.97l5.548-3.325v-.832z"/><path fill="url(#u)" d="m32.926 323.968 5.686 3.326 5.548-3.187-5.686-3.326z"/><path fill="#B1E0DD" d="M18.645 332.289v.97l5.686 3.187v-.831zM24.332 335.618v.831l12.76-7.344v-.832z"/><path fill="url(#v)" d="m18.645 332.293 5.686 3.326 12.76-7.344-5.686-3.326z"/><path fill="#B1E0DD" d="M97.43 295.145v.97l5.686 3.187v-.832zM103.117 298.477v.831l12.761-7.344v-.831z"/><path fill="url(#w)" d="m97.43 295.145 5.686 3.326 12.761-7.345-5.687-3.325z"/><path fill="#B1E0DD" d="M90.356 299.305v.97l5.686 3.187v-.832zM96.043 302.63v.832l5.548-3.187v-.97z"/><path fill="url(#x)" d="m90.356 299.304 5.686 3.326 5.548-3.326-5.687-3.187z"/><path fill="#B1E0DD" d="M83.133 303.469v.831l5.687 3.326v-.832zM88.824 306.794v.832l5.548-3.187v-.97z"/><path fill="url(#y)" d="m83.133 303.468 5.687 3.326 5.548-3.326-5.687-3.187z"/><path fill="#B1E0DD" d="M76.059 307.617v.832l5.548 3.325v-.97z"/><path fill="#B1E0DD" d="M81.606 310.804v.97l5.686-3.187v-.97z"/><path fill="url(#z)" d="m76.059 307.611 5.548 3.187 5.686-3.187-5.686-3.326z"/><path fill="#B1E0DD" d="M68.848 311.641v.97l5.686 3.325v-.97zM74.54 314.964v.97l5.547-3.325v-.832z"/><path fill="url(#A)" d="m68.848 311.64 5.686 3.326 5.548-3.187-5.686-3.326z"/><path fill="#B1E0DD" d="M61.633 315.789v.97l5.687 3.326v-.97zM67.324 319.121v.97l5.548-3.326v-.831z"/><path fill="url(#B)" d="m61.633 315.789 5.687 3.325 5.548-3.187-5.548-3.325z"/><path fill="#B1E0DD" d="M54.555 319.953v.97l5.548 3.187v-.831zM60.11 323.277v.831l5.686-3.187v-.831z"/><path fill="url(#C)" d="m54.555 319.949 5.548 3.326 5.686-3.188-5.686-3.325z"/><path fill="#B1E0DD" d="M47.344 324.109v.832l5.686 3.325v-.831zM53.04 327.435v.831l5.547-3.187v-.97z"/><path fill="url(#D)" d="m47.344 324.105 5.686 3.326 5.548-3.326-5.686-3.187z"/><path fill="#B1E0DD" d="M40.145 328.273v.832l5.686 3.326v-.97z"/><path fill="#B1E0DD" d="M45.828 331.461v.97l5.548-3.188v-.97z"/><path fill="url(#E)" d="m40.145 328.275 5.686 3.187 5.548-3.187-5.548-3.326z"/><path fill="#B1E0DD" d="M33.059 332.43v.831l5.686 3.326v-.97zM38.75 335.617v.97l5.548-3.326v-.831z"/><path fill="url(#F)" d="m33.059 332.427 5.686 3.187 5.548-3.187-5.686-3.325z"/><path fill="#B1E0DD" d="M25.848 336.449v.97l5.686 3.326v-.97zM31.54 339.777v.97l5.547-3.326v-.831z"/><path fill="url(#G)" d="m25.848 336.449 5.686 3.326 5.548-3.188-5.686-3.325z"/><path fill="#B1E0DD" d="M104.633 299.305v.97l5.687 3.325v-.97zM110.324 302.633v.97l12.761-7.344v-.97z"/><path fill="url(#H)" d="m104.633 299.309 5.687 3.326 12.76-7.344-5.687-3.326z"/><path fill="#B1E0DD" d="M97.559 303.469v.97l5.686 3.325v-.97zM103.246 306.793v.97l5.548-3.326v-.832z"/><path fill="url(#I)" d="m97.559 303.468 5.686 3.326 5.548-3.187-5.686-3.326z"/><path fill="#B1E0DD" d="M90.356 307.629v.97l5.686 3.187v-.831zM96.043 310.953v.831l5.548-3.187v-.831z"/><path fill="url(#J)" d="m90.356 307.629 5.686 3.325 5.548-3.187-5.548-3.326z"/><path fill="#B1E0DD" d="M83.273 311.781v.832l5.687 3.325-.139-.831z"/><path fill="#B1E0DD" d="m88.82 315.107.139.831 5.548-3.187v-.97z"/><path fill="url(#K)" d="m83.273 311.785 5.548 3.325 5.687-3.325-5.687-3.187z"/><path fill="#B1E0DD" d="M76.059 315.934v.831l5.686 3.326v-.97zM81.75 319.121v.97l5.548-3.187v-.97z"/><path fill="url(#L)" d="m76.059 315.927 5.686 3.187 5.548-3.187-5.686-3.325z"/><path fill="#B1E0DD" d="M68.848 320.09v.831l5.686 3.326v-.97zM74.54 323.277v.97l5.547-3.326v-.831z"/><path fill="url(#M)" d="m68.848 320.087 5.686 3.188 5.548-3.188-5.548-3.325z"/><path fill="#B1E0DD" d="M61.777 324.109v.97l5.687 3.326v-.97zM67.469 327.437v.97l5.548-3.326v-.831z"/><path fill="url(#N)" d="m61.777 324.105 5.687 3.326 5.548-3.187-5.687-3.326z"/><path fill="#B1E0DD" d="M54.555 328.27v.97l5.686 3.187v-.832zM60.246 331.593v.832l5.548-3.187v-.832z"/><path fill="url(#O)" d="m54.555 328.269 5.686 3.326 5.548-3.187-5.686-3.326z"/><path fill="#B1E0DD" d="M47.344 332.43v.831l5.686 3.326v-.832zM53.04 335.755v.832l5.686-3.187v-.97z"/><path fill="url(#P)" d="m47.344 332.433 5.686 3.326 5.687-3.326-5.687-3.187z"/><path fill="#B1E0DD" d="M33.059 340.738v.832l5.686 3.325v-.97zM38.75 343.926v.97l12.76-7.344v-.97z"/><path fill="url(#Q)" d="m33.059 340.739 5.686 3.187 12.76-7.344-5.686-3.187z"/><path fill="#B1E0DD" d="M104.77 307.766v.831l5.686 3.326v-.97zM110.461 310.951v.97l19.834-11.502v-.97z"/><path fill="url(#R)" d="m104.77 307.767 5.686 3.187 19.834-11.501-5.548-3.187z"/><path fill="#B1E0DD" d="M97.559 311.781v.97l5.686 3.326v-.97zM103.246 315.105v.97l5.687-3.326-.139-.831z"/><path fill="url(#S)" d="m97.559 311.785 5.686 3.325 5.548-3.187-5.548-3.325z"/><path fill="#B1E0DD" d="M90.488 315.938v.97l5.687 3.187v-.832zM96.176 319.265v.832l5.548-3.187v-.832z"/><path fill="url(#T)" d="m90.488 315.941 5.687 3.326 5.548-3.187-5.687-3.326z"/><path fill="#B1E0DD" d="M83.273 320.09v.831l5.687 3.326v-.831zM88.965 323.416v.831l5.548-3.187v-.97z"/><path fill="url(#U)" d="m83.273 320.089 5.687 3.326 5.548-3.326-5.687-3.187z"/><path fill="#B1E0DD" d="M76.059 324.254v.831l5.686 3.326v-.831zM81.75 327.58v.831l5.687-3.187v-.97z"/><path fill="url(#V)" d="m76.059 324.254 5.686 3.325 5.687-3.325-5.687-3.188z"/><path fill="#B1E0DD" d="M68.988 328.406v.832l5.687 3.325v-.97zM74.68 331.593v.97l5.548-3.187v-.97z"/><path fill="url(#W)" d="m68.988 328.408 5.687 3.187 5.548-3.187-5.687-3.326z"/><path fill="#B1E0DD" d="M61.777 332.43v.97l5.687 3.325v-.97zM67.469 335.757v.97l5.548-3.325v-.832z"/><path fill="url(#X)" d="m61.777 332.433 5.687 3.326 5.548-3.187-5.687-3.326z"/><path fill="#B1E0DD" d="M54.555 336.582v.97l5.686 3.187v-.831zM60.246 339.906v.831l5.687-3.187v-.831z"/><path fill="url(#Y)" d="m54.555 336.582 5.686 3.325 5.687-3.187-5.687-3.325z"/><path fill="#B1E0DD" d="M40.29 344.898v.832l5.686 3.326v-.832z"/><path fill="#B1E0DD" d="M45.973 348.227v.831l12.76-7.344v-.831z"/><path fill="url(#Z)" d="m40.29 344.903 5.686 3.326 12.76-7.345-5.687-3.325z"/><path fill="#B1E0DD" d="M126.266 303.609v.97l5.686 3.187v-.831zM131.961 306.933v.832l5.687-3.188v-.831z"/><path fill="url(#aa)" d="m126.266 303.609 5.686 3.326 5.687-3.187-5.687-3.326z"/><path fill="#B1E0DD" d="M119.199 307.766v.97l5.687 3.187v-.832zM124.887 311.091v.832l5.548-3.187v-.97z"/><path fill="url(#ab)" d="m119.199 307.765 5.687 3.326 5.548-3.326-5.687-3.187z"/><path fill="#B1E0DD" d="M111.984 311.922v.831l5.687 3.326v-.831zM117.676 315.248v.831l5.548-3.187v-.97z"/><path fill="url(#ac)" d="m111.984 311.925 5.687 3.326 5.548-3.326-5.687-3.187z"/><path fill="#B1E0DD" d="M76.2 332.57v.832l5.686 3.325v-.831zM81.887 335.894v.831l34.259-19.677v-.97z"/><path fill="url(#ad)" d="m76.2 332.57 5.686 3.325 34.259-19.815-5.687-3.326z"/><path fill="#B1E0DD" d="M68.988 336.719v.831l5.687 3.326v-.832zM74.68 340.044v.832l5.686-3.187v-.97z"/><path fill="url(#ae)" d="m68.988 336.72 5.687 3.326 5.687-3.326-5.687-3.325z"/><path fill="#B1E0DD" d="M61.922 340.883v.831l5.687 3.326-.14-.97z"/><path fill="#B1E0DD" d="m67.465 344.07.139.97 5.547-3.187v-.97z"/><path fill="url(#af)" d="m61.922 340.884 5.548 3.187 5.686-3.187-5.686-3.325z"/><path fill="#B1E0DD" d="M47.484 349.051v.97l5.687 3.187v-.832zM53.18 352.375v.832l12.76-7.344v-.832z"/><path fill="url(#ag)" d="m47.484 349.051 5.687 3.326 12.76-7.344-5.686-3.326z"/><path fill="#EFC87E" d="m32.223 285.047.138.831 14.425-8.314v-.97zM32.223 282.136v.832l14.563-8.314v-.97zM32.223 279.22v.971l14.563-8.453v-.832zM32.223 276.314v.97l14.563-8.453V268zM32.371 290.72v.971l14.425-8.453v-.832zM32.371 287.81v.97l14.425-8.314v-.97zM35.973 291.55v.831l10.818-6.235v-.97z"/><path fill="url(#ah)" d="M68.572 246.107c-.416.277-.693.693-.693 1.247 0 .416.277.555.693.416.416-.277.694-.693.694-1.247s-.278-.693-.694-.416"/><path fill="#7BD6D6" d="M74.95 241.117c.694-.416 1.388-.139 1.388.693v6.235c0-.831-.555-1.108-1.248-.693L29.04 273.958c-.693.416-1.248 1.386-1.248 2.079v-6.236c0-.831.555-1.801 1.387-2.356zm-3.467 4.988c.416-.277.694-.693.694-1.247 0-.416-.278-.554-.694-.416-.416.278-.693.693-.693 1.248 0 .415.277.554.693.415m-2.912 1.525c.416-.278.693-.693.693-1.248 0-.415-.277-.554-.693-.415-.416.277-.694.693-.694 1.247s.416.693.694.416m5.686-3.188c.416-.277.694-.692.694-1.247 0-.415-.278-.554-.694-.415-.416.277-.693.692-.693 1.247 0 .415.277.693.693.415"/><path fill="#271644" d="M75.09 247.492c.693-.416 1.248-.139 1.248.693l.139 30.069c0 .832-.555 1.663-1.249 2.079L29.18 306.939c-.694.415-1.248.138-1.248-.693l-.139-30.07c0-.832.555-1.663 1.248-2.079z"/><path fill="url(#ai)" d="M74.256 242.779c-.416.277-.694.692-.694 1.247 0 .415.278.554.694.415.416-.277.694-.692.694-1.247 0-.415-.417-.554-.694-.415"/><path fill="url(#aj)" d="M71.338 244.446c-.416.278-.694.693-.694 1.248 0 .415.278.554.694.415.416-.277.694-.692.694-1.247.138-.415-.278-.554-.694-.416"/><path fill="#7BD6D6" d="M57.2 278.533v-.832l4.438-2.494v.831zM57.2 274.787v-.832l4.299-2.494.139.831zM57.2 271.189v-.831l4.299-2.495v.832zM57.2 267.443v-.832l4.299-2.494v.832zM41.945 276.314v-.831l4.3-2.495v.832zM36.398 293.357l.416-.277 4.3-2.494v.831l-4.3 2.495-.416.277zM36.398 289.621l.416-.138 4.3-2.495v.832l-4.3 2.494-.416.139zM36.398 278.67l.416-.277 4.3-2.495v.832l-4.3 2.494-.416.277zM47.078 288.097v-.831l4.3-2.633v.97zM47.078 284.353v-.831l4.3-2.495v.832zM41.945 291.005v-.831l4.3-2.494v.831zM47.08 280.748l-.139-.832 4.439-2.494v.831zM41.945 287.402v-.97l4.3-2.494v.97zM46.941 277.009v-.831l4.439-2.494v.831zM46.941 273.408v-.832l4.439-2.494v.831zM41.945 280.054v-.97l4.3-2.494v.97z"/><path fill="#7BD6D6" d="M46.939 269.25v10.67l.139.831v10.532l-.832.415v-21.894000000000002zM36.402 286.021l.416-.277 4.3-2.494v.831l-4.3 2.495-.416.277zM36.402 282.281l.416-.138 4.3-2.495v.832l-4.3 2.494-.416.277z"/><path fill="#7BD6D6" d="M41.81 272.297v.416l.139 2.771v18.707l-.832.554v-22.031999999999996zM52.074 281.443v-.832l4.439-2.494v.832zM52.074 277.839v-.97l4.439-2.494v.97zM52.074 274.099v-.831l4.439-2.495v.832zM52.074 270.492v-.97l4.439-2.495v.97z"/><path fill="#7BD6D6" d="M52.064 266.336v18.846l.139 2.771v.416l-.832.415v-22.032z"/><path fill="#7BD6D6" d="M52.074 285.179v-.97l4.439-2.494v.831zM57.2 282.13v-.831l4.438-2.494v.831z"/><path fill="#7BD6D6" d="M62.328 260.52v21.894000000000002l-.693.554v-10.67l-.139-.831v-10.532zM57.195 263.426v22.033l-.693.415v-18.845l-.139-2.772v-.416zM66.628 275.898l.416-.277v.832l-.416.277-4.3 2.494v-.831z"/><path fill="#7BD6D6" d="m66.628 272.158.416-.138v.831l-.416.277-4.3 2.494v-.97zM66.628 268.554l.416-.277v.832l-.416.277-4.3 2.494v-.831zM41.945 283.658v-.832l4.3-2.494v.831zM66.628 264.81l.416-.138v.831l-.416.277-4.3 2.495v-.97zM66.628 261.211l.416-.277v.97l-.416.138-4.3 2.494v-.831z"/><path fill="#7BD6D6" d="m35.98 275.207 31.347-18.152v22.864l-31.208 18.153zm31.07-13.302v-.832l-.417.277v-2.771l-4.3 2.494v-.415l-.693.415v.416l-4.3 2.494v-.415l-.693.415v.416l-4.3 2.494v-.416l-.694.416v.416l-4.3 2.494v-.416l-.693.416v.416l-4.3 2.494v-.416l-.693.416v.416l-4.3 2.494v2.772l-.416.277v.831l.416-.277v2.771l-.416.278v.831l.416-.277v2.771l-.416.277v.832l.416-.277v2.771l-.416.277v.832l.416-.277v2.771l-.416.277v.832l.416-.278v2.772l4.3-2.494v.415l.694-.415v-.416l4.3-2.494v.415l.693-.415v-.416l4.3-2.494v.415l.693-.415v-.416l4.3-2.494v.415l.693-.415v-.416l4.3-2.494v.415l.693-.415v-.416l4.3-2.494v-2.772l.416-.277v-.831l-.416.277v-2.772l.416-.277v-.831l-.416.277v-2.772l.416-.277v-.831l-.416.277v-2.771l.416-.277v-.832l-.416.277v-2.771z"/><path fill="#E7AD47" d="m46.793 272.292 2.496 12.472 2.22-9.284 2.635.415 12.344-7.067v.832l-12.483 7.205-2.08-.277-2.774 11.64-2.636-13.164-2.773 7.76-6.52 3.741v-.831l6.103-3.603z"/><path fill="#271644" d="M332.51 165.32v25.497l-9.709 5.543-1.387-2.356 5.548-3.187v-19.122l-1.387-2.356z"/><path fill="#DDDDE9" d="M332.515 38.11v127.207l-6.935 4.019-19.834 11.501-39.391 22.726V76.355zm-5.548 105.036v-19.123l-55.202 31.733v19.123zm0-25.497V98.526l-55.202 31.733v19.123zm0-25.497V73.029l-55.202 31.733v19.123zm0-25.359V47.671l-55.202 31.732v19.123z"/><path fill="#E6E6EF" d="m332.515 38.107-66.16 38.246-66.16-38.107L266.355 0zm-13.593 3.187c2.913-1.663 2.913-4.434 0-6.236l-47.158-27.16c-2.912-1.662-7.767-1.662-10.68 0l-47.157 27.16c-2.913 1.663-2.913 4.435 0 6.236l47.157 27.16c2.913 1.663 7.768 1.663 10.68 0z"/><path fill="#7BD6D6" d="M326.962 171.688v19.122l-5.548 3.187v-19.122z"/><path fill="#E7AD47" d="M324.192 128.727v12.748l-13.731 8.037v-12.748z"/><path fill="#7BD6D6" d="M324.192 103.371v12.749l-13.731 7.898V111.27z"/><path fill="#271644" d="m310.463 124.019 13.731-7.899v-12.748l-13.731 7.898zm16.505-6.375-55.202 31.872v-19.123l55.202-31.733zm-22.053 6.79c1.248-2.217 1.387-5.543 0-6.374s-4.3.97-5.548 3.187-1.387 5.543 0 6.374c1.387.832 4.299-.97 5.548-3.187m-11.096 6.097c1.248-2.217 1.387-5.542 0-6.374s-4.3.97-5.548 3.187-1.387 5.543 0 6.375c1.526.831 4.3-.97 5.548-3.188m-10.957 6.236c1.248-2.217 1.387-5.543 0-6.374-1.387-.832-4.3.97-5.548 3.187s-1.387 5.543 0 6.374c1.525.832 4.299-1.108 5.548-3.187M310.463 149.519l13.731-7.899v-12.748l-13.731 7.898zm16.505-6.375-55.202 31.872v-19.123l55.202-31.733zm-22.053 6.652c1.248-2.217 1.387-5.543 0-6.375s-4.3.97-5.548 3.188-1.387 5.542 0 6.374c1.525.831 4.299-.97 5.548-3.187m-11.096 6.235c1.248-2.217 1.387-5.542 0-6.374s-4.3.97-5.548 3.187-1.387 5.543 0 6.375c1.526.831 4.3-.97 5.548-3.188m-10.957 6.098c1.248-2.218 1.387-5.543 0-6.375s-4.3.97-5.548 3.187c-1.249 2.218-1.387 5.543 0 6.375 1.525.831 4.299-.97 5.548-3.187"/><path fill="#7BD6D6" d="M321.419 60.418v3.187l-2.774 1.524v-3.187zM321.419 54.043v3.187l-2.774 1.524v-3.187z"/><path fill="url(#ak)" d="M318.918 35.063c2.913 1.663 2.913 4.435 0 6.236l-47.157 27.16c-2.913 1.663-7.768 1.663-10.68 0l-47.158-27.16c-2.913-1.663-2.913-4.434 0-6.236l47.158-27.16c2.912-1.662 7.767-1.662 10.68 0z"/><path fill="#7BD6D6" d="M316.98 177.371v19.123l-5.41 3.187v-19.123zM315.87 63.602v3.187l-2.636 1.524v-3.187zM315.87 57.23v3.188l-2.636 1.524v-3.187z"/><path fill="#271644" d="m305.75 180.833 19.834-11.501 1.387 2.356-5.548 3.187v19.123l1.387 2.355-14.286 8.315-1.387-2.356v-19.123zm11.235 15.659v-19.123l-5.548 3.187v19.123z"/><path fill="#7BD6D6" d="M310.466 85.914v12.61l-35.923 20.647v-12.61zM310.465 66.79v3.186l-2.774 1.525v-3.188zM310.465 60.418v3.187l-2.774 1.524v-3.187zM307.134 183.188v18.984l-5.548 3.187v-18.984zM304.915 118.062c1.387.832 1.248 4.157 0 6.374-1.248 2.218-4.022 4.019-5.548 3.188-1.526-.832-1.248-4.158 0-6.375s4.161-4.018 5.548-3.187M304.912 143.558c1.387.832 1.248 4.157 0 6.374-1.248 2.218-4.022 4.019-5.548 3.188-1.387-.832-1.248-4.158 0-6.375s4.161-4.018 5.548-3.187M304.915 69.98v3.188l-2.774 1.524v-3.187z"/><path fill="#D14D84" d="M304.915 63.602v3.187l-2.774 1.524v-3.187z"/><path fill="#7BD6D6" d="M299.364 73.164v3.187l-2.774 1.525v-3.188z"/><path fill="#D14D84" d="M299.364 66.79v3.186l-2.774 1.525v-3.188z"/><path fill="#7BD6D6" d="M297.148 188.875v19.123l-5.41 3.187v-19.123zM293.814 124.158c1.387.831 1.249 4.157 0 6.374-1.248 2.217-4.022 4.019-5.548 3.187-1.387-.831-1.248-4.157 0-6.374 1.387-2.078 4.161-4.018 5.548-3.187M293.814 149.656c1.387.831 1.249 4.157 0 6.374-1.248 2.217-4.022 4.019-5.548 3.187-1.387-.831-1.248-4.157 0-6.374 1.387-2.217 4.161-4.019 5.548-3.187"/><path fill="#402877" d="M293.822 69.98V82.73l-19.279 11.086V81.066z"/><path fill="#7BD6D6" d="M287.298 194.551v19.123l-5.548 3.187v-19.123zM282.861 130.39c1.387.832 1.248 4.157 0 6.374-1.248 2.218-4.022 4.019-5.548 3.188-1.387-.832-1.248-4.158 0-6.375s4.161-4.018 5.548-3.187M282.861 155.752c1.387.831 1.248 4.157 0 6.374s-4.022 4.019-5.548 3.187c-1.387-.831-1.248-4.157 0-6.374 1.248-2.079 4.161-4.019 5.548-3.187M277.314 200.375v18.984l-5.548 3.187v-18.984z"/><path fill="#271644" d="m271.766 104.897 55.202-31.733v19.123l-55.202 31.871zm38.697-18.984-35.785 20.647v12.748l35.785-20.647zM321.42 54.04l-2.774 1.663v3.187l2.774-1.524zm-2.774 7.899v3.187l2.774-1.524v-3.187zm-13.731 1.663-2.774 1.524v3.187l2.774-1.663zm0 6.374-2.774 1.524v3.187l2.774-1.524zm5.548-9.561-2.774 1.524v3.187l2.774-1.524zm0 6.374-2.774 1.663v3.187l2.774-1.524zm5.409-9.562-2.774 1.525v3.187l2.774-1.524zm0 6.375-2.774 1.524v3.187l2.774-1.663zm-16.505 3.187-2.774 1.663v3.187l2.774-1.524zm0 6.374-2.774 1.524v3.188l2.774-1.525zm-27.601 6.374 55.202-31.732v19.122L271.766 98.8zm2.774 14.273 19.279-11.085V69.976L274.54 81.062zM287.299 213.675v-19.123l-5.548 3.188v19.122zm9.848-5.681v-19.123l-5.548 3.187v19.123zm-25.382 14.55 5.548-3.187v-19.123l-5.548 3.187zm36.755-17.876-42.165 24.25v-25.497l39.391-22.726 1.387 2.356-5.548 3.187v19.123l5.548-3.187z"/><path fill="#CACFEC" d="M266.355 76.353v127.208l-19.557-11.224-9.986-5.682-36.617-21.201V38.246zm-5.548 92.427v-38.523c0-3.464-2.358-7.621-5.409-9.284l-44.384-25.636c-2.913-1.663-5.409-.277-5.409 3.049v38.522c0 3.465 2.358 7.622 5.409 9.285l44.384 25.635c3.051 1.663 5.409.277 5.409-3.048"/><path fill="#7BD6D6" d="M260.806 203.562v18.984l-5.548-3.187v-18.984z"/><path fill="#271644" d="M258.725 130.259v38.522c0 .693-.139 1.802-.971 1.802-.416 0-.832-.139-1.387-.416l-44.384-25.636c-2.358-1.385-4.299-4.85-4.299-7.482V98.387c0-.692.138-1.801.97-1.801.417 0 .833.139 1.387.416l44.384 25.635c2.358 1.386 4.3 4.85 4.3 7.622M246.801 192.195l19.557 11.225v25.497l-16.783-9.7 1.387-2.356v-19.123l-5.548-3.187zm8.461 27.16 5.548 3.187V203.42l-5.548-3.188z"/><path fill="#7BD6D6" d="M250.823 197.738v19.123l-5.409-3.187v-19.123z"/><path fill="#271644" d="m245.404 213.679 5.41 3.188-1.387 2.355-9.848-5.681 1.387-2.356v-19.123l-5.548-3.187 1.387-2.355 9.986 5.681-1.387 2.356z"/><path fill="#7BD6D6" d="M240.966 192.062v19.123l-5.548-3.187v-19.123zM230.987 186.375v18.984l-5.409-3.187v-18.984zM221.142 180.558v19.123l-5.548-3.187v-19.123zM211.15 174.875v19.122l-5.548-3.187v-19.122z"/><path fill="url(#al)" d="M255.395 120.973c2.912 1.663 5.409 5.82 5.409 9.284v38.523c0 3.464-2.358 4.85-5.409 3.049l-44.384-25.636c-2.913-1.663-5.409-5.82-5.409-9.284V98.386c0-3.464 2.357-4.85 5.409-3.048zm1.109 49.054c.555.277.971.416 1.387.416.832 0 .971-1.109.971-1.801v-38.385c0-2.632-2.08-6.097-4.3-7.482l-44.383-25.636c-.555-.277-.971-.416-1.387-.416-.833 0-.971 1.109-.971 1.802v38.522c0 2.633 2.08 6.098 4.299 7.483z"/><path fill="#271644" d="M211.153 194.004v-19.122l-5.548-3.187v19.122zm9.986 5.682v-19.123l-5.548-3.187v19.123zm9.848 5.681v-19.123l-5.548-3.187v19.123zm4.438 2.633 5.548 3.187-1.387 2.356-39.391-22.726V165.32l36.617 21.202-1.387 2.355zM276.34 108.503v6.374l1.803-1.108v-6.374zM279.113 106.833v6.375l1.803-.97v-6.375zM281.891 105.316v6.374l1.803-1.109v-6.374zM284.66 103.65v6.374l1.803-.97v-6.374zM287.434 102.124v6.374l1.803-1.108v-6.374zM290.211 100.458v6.375l1.803-.97v-6.375zM292.984 98.94v6.375l1.665-1.109v-6.374zM295.617 97.275v6.374l1.803-.97v-6.374zM298.395 95.751v6.375l1.803-1.109v-6.236zM307.546 90.488v6.374l-5.409 3.188v-6.375z"/><path fill="#7BD6D6" d="M315.868 92.01c-1.387-.831-1.248-4.157 0-6.374s4.022-4.019 5.548-3.187c1.387.831 1.248 4.157 0 6.374s-4.161 4.019-5.548 3.187"/><path fill="#E7AD47" d="M316.98 90.071c-.833-.554-.694-2.494 0-3.741.693-1.247 2.496-2.356 3.328-1.94.833.554.694 2.494 0 3.741-.832 1.386-2.496 2.494-3.328 1.94"/><path fill="#CACFEC" d="M210.184 101.016v38.245l1.803.97v-38.107zM214.207 103.371v38.246l1.803.97V104.48zM218.227 105.73v38.107l1.803 1.109V106.7zM222.246 108.086v38.107l1.803.97v-38.107zM226.266 110.305v38.245l1.803.97v-38.107zM230.293 112.66v38.107l1.803 1.109V113.63zM234.316 115.016v38.107l1.804.97v-38.107zM238.336 117.23v38.246l1.803.97v-38.107zM242.359 119.59v38.107l1.665 1.108V120.56zM246.387 121.945v38.107l1.664.97v-38.107zM250.27 124.16v38.246l1.803.97v-38.107zM254.285 126.516v38.107l1.803 1.108v-38.245z"/><path fill="#271644" d="M254.985 209.91v25.359l-9.571 5.681-1.387-2.494 5.548-3.187v-18.985l-1.387-2.355z"/><path fill="#DDDDE9" d="M254.988 82.7v127.207l-6.935 4.019-19.834 11.501-39.391 22.587V120.806zm-5.409 104.897v-19.122l-55.203 31.732v19.123zm0-25.358v-19.123l-55.203 31.733v19.123zm0-25.497v-19.123l-55.203 31.733v19.123zm0-25.497V92.122l-55.203 31.733v19.123z"/><path fill="#E6E6EF" d="m254.987 82.697-66.159 38.107-66.16-38.107 66.16-38.107zm-13.592 3.048c2.912-1.663 2.912-4.434 0-6.235l-47.158-27.16c-2.913-1.663-7.767-1.663-10.68 0l-47.158 27.16c-2.912 1.662-2.912 4.434 0 6.235l47.158 27.16c2.913 1.663 7.767 1.663 10.68 0z"/><path fill="#7BD6D6" d="M249.575 216.277v18.985l-5.548 3.187v-18.985z"/><path fill="#E7AD47" d="M246.804 173.316v12.749l-13.87 7.898v-12.748z"/><path fill="#7BD6D6" d="M246.804 147.828v12.749l-13.87 8.037v-12.749z"/><path fill="#271644" d="m232.933 168.608 13.732-7.898v-12.749l-13.732 7.899zm16.644-6.374-55.202 31.871v-19.122l55.202-31.733zm-22.053 6.79c1.248-2.217 1.387-5.543 0-6.374-1.387-.832-4.3.97-5.548 3.187s-1.387 5.543 0 6.374c1.387.832 4.3-1.108 5.548-3.187m-11.096 6.097c1.249-2.217 1.387-5.543 0-6.374s-4.299.97-5.548 3.187-1.387 5.543 0 6.374c1.526.832 4.3-.97 5.548-3.187m-10.957 6.097c1.248-2.217 1.387-5.542 0-6.374s-4.3.97-5.548 3.187-1.387 5.543 0 6.375 4.3-.97 5.548-3.188M232.933 193.968l13.732-7.899v-12.748l-13.732 7.898zm16.644-6.374-55.202 31.871v-19.123l55.202-31.733zm-22.053 6.79c1.248-2.218 1.387-5.543 0-6.375s-4.3.97-5.548 3.187c-1.248 2.218-1.387 5.543 0 6.375s4.3-.97 5.548-3.187m-11.096 6.235c1.249-2.217 1.387-5.543 0-6.374s-4.299.97-5.548 3.187-1.387 5.543 0 6.374c1.526.832 4.3-1.108 5.548-3.187m-10.957 6.097c1.248-2.217 1.387-5.542 0-6.374s-4.3.97-5.548 3.187-1.387 5.543 0 6.374c1.387.832 4.3-.97 5.548-3.187"/><path fill="#7BD6D6" d="M244.028 105.008v3.187l-2.774 1.524v-3.187z"/><path fill="#D14D84" d="M244.028 98.633v3.187l-2.774 1.524v-3.187z"/><path fill="url(#am)" d="M241.391 79.653c2.913 1.663 2.913 4.434 0 6.236l-47.158 27.16c-2.913 1.663-7.767 1.663-10.68 0l-47.158-27.16c-2.912-1.663-2.912-4.434 0-6.236l47.158-27.16c2.913-1.663 7.767-1.663 10.68 0z"/><path fill="#7BD6D6" d="M239.591 221.961v19.123l-5.548 3.187v-19.123zM238.481 108.191v3.049l-2.774 1.663v-3.187z"/><path fill="#D14D84" d="M238.481 101.82v3.187l-2.774 1.525v-3.187z"/><path fill="#271644" d="m228.359 225.287 19.834-11.502 1.387 2.356-5.548 3.187v19.123l1.387 2.355-14.286 8.315-1.387-2.356v-19.123zm11.235 15.797v-19.123l-5.548 3.187v19.123z"/><path fill="#7BD6D6" d="M232.933 130.363v12.749l-35.785 20.647V151.01zM232.938 111.242v3.187l-2.774 1.663v-3.187z"/><path fill="#E7AD47" d="M232.938 105.008v3.187l-2.774 1.524v-3.187z"/><path fill="#7BD6D6" d="M229.743 227.648v19.123l-5.548 3.187v-19.122zM227.521 162.652c1.386.831 1.248 4.157 0 6.374-1.249 2.217-4.023 4.019-5.548 3.187-1.526-.831-1.249-4.157 0-6.374 1.248-2.217 4.022-4.018 5.548-3.187M227.521 188.011c1.387.832 1.249 4.157 0 6.375-1.248 2.217-4.022 4.018-5.548 3.187-1.387-.832-1.248-4.157 0-6.375 1.249-2.217 4.023-4.018 5.548-3.187M227.528 114.43v3.187l-2.774 1.663v-3.187z"/><path fill="#E7AD47" d="M227.528 108.191v3.049l-2.774 1.663v-3.187z"/><path fill="#7BD6D6" d="M221.981 117.617v3.187l-2.774 1.663v-3.187zM221.981 111.242v3.187l-2.774 1.663v-3.187zM219.759 233.465v18.984l-5.548 3.187v-18.984zM216.428 168.746c1.387.831 1.248 4.157 0 6.374-1.249 2.217-4.023 4.019-5.548 3.187-1.387-.831-1.249-4.157 0-6.374 1.248-2.217 4.161-4.019 5.548-3.187M216.428 194.246c1.387.831 1.248 4.157 0 6.374-1.249 2.217-4.023 4.019-5.548 3.187-1.387-.831-1.249-4.157 0-6.374 1.248-2.217 4.161-4.019 5.548-3.187M216.428 114.43v12.748l-19.28 11.224v-12.748zM209.769 239.141v19.122l-5.41 3.188v-19.123z"/><path fill="#402877" d="M205.474 174.853c1.387.832 1.249 4.157 0 6.375-1.248 2.217-4.022 4.018-5.548 3.187-1.387-.832-1.248-4.157 0-6.375 1.249-2.078 4.023-4.018 5.548-3.187"/><path fill="#7BD6D6" d="M205.474 200.339c1.387.832 1.249 4.158 0 6.375-1.248 2.217-4.022 4.018-5.548 3.187-1.387-.832-1.248-4.157 0-6.374 1.249-2.218 4.023-4.019 5.548-3.188M199.923 244.828v19.123l-5.548 3.187v-19.123z"/><path fill="#271644" d="m194.375 149.487 55.202-31.733v19.123l-55.202 31.871zm38.558-19.123-35.784 20.647v12.748l35.784-20.647zM244.029 98.628l-2.774 1.663v3.187l2.774-1.524zm-2.774 7.899v3.187l2.774-1.524v-3.188zm-13.731 1.663-2.774 1.524v3.187l2.774-1.663zm0 6.235-2.774 1.524v3.188l2.774-1.525zm5.409-9.423-2.774 1.525v3.187l2.774-1.524zm0 6.236-2.774 1.663v3.187l2.774-1.524zm5.548-9.423-2.774 1.525v3.187l2.774-1.525zm0 6.375-2.774 1.524v3.187l2.774-1.663zm-16.505 3.048-2.774 1.663v3.187l2.774-1.524zm0 6.374-2.774 1.525v3.187l2.774-1.525zm-27.601 6.375 55.202-31.733v19.123l-55.202 31.871zm2.774 14.411 19.279-11.086v-12.748l-19.279 11.085z"/><path fill="#402877" d="M209.772 258.265v-19.123l-5.548 3.187v19.123zm9.986-5.82v-19.123l-5.548 3.187v19.123zm-25.382 14.689 5.548-3.188v-19.122l-5.548 3.187zm36.617-18.015-42.165 24.389v-25.497l39.391-22.726 1.387 2.356-5.548 3.187v19.123l5.548-3.187z"/><path fill="#CACFEC" d="M188.828 120.806v127.208l-19.557-11.224-9.986-5.681-36.617-21.202V82.699zm-5.41 92.427V174.71c0-3.464-2.358-7.621-5.409-9.284l-44.384-25.636c-2.912-1.662-5.409-.277-5.409 3.049V181.5c0 3.464 2.358 7.622 5.409 9.284l44.384 25.636c2.913 1.663 5.409.277 5.409-3.187"/><path fill="#7BD6D6" d="M183.423 248.015v19.123l-5.548-3.187v-19.123z"/><path fill="#CACFEC" d="M181.338 174.71v38.523c0 .692-.138 1.801-.971 1.801-.416 0-.832-.139-1.387-.416l-44.383-25.635c-2.358-1.386-4.3-4.85-4.3-7.483v-38.523c0-.693.139-1.801.971-1.801.416 0 .832.138 1.387.415l44.384 25.636c2.219 1.386 4.299 4.85 4.299 7.483"/><path fill="#271644" d="m169.274 236.785 19.556 11.224v25.497l-16.782-9.7 1.387-2.355v-19.123l-5.548-3.187zm8.599 27.16 5.548 3.187v-19.123l-5.548-3.187z"/><path fill="#7BD6D6" d="M173.435 242.328v19.123l-5.548-3.188v-19.122z"/><path fill="#271644" d="m167.879 258.269 5.548 3.187-1.387 2.356-9.848-5.681 1.387-2.495v-18.984l-5.548-3.187 1.387-2.356 9.848 5.682-1.387 2.356z"/><path fill="#7BD6D6" d="M163.579 236.652v18.984l-5.548-3.187v-18.984zM153.599 230.836v19.122l-5.548-3.187v-19.123zM143.612 225.148v19.123l-5.409-3.187v-19.123zM133.767 219.464v18.985l-5.548-3.187v-18.985z"/><path fill="url(#an)" d="M178.012 165.426c2.913 1.663 5.409 5.82 5.409 9.285v38.522c0 3.465-2.358 4.85-5.409 3.049l-44.384-25.636c-2.913-1.663-5.409-5.82-5.409-9.284v-38.523c0-3.464 2.358-4.85 5.409-3.048zm.971 49.193c.555.277.971.416 1.387.416.832 0 .971-1.109.971-1.802v-38.522c0-2.633-2.081-6.098-4.3-7.483l-44.384-25.636c-.555-.277-.971-.416-1.387-.416-.832 0-.971 1.109-.971 1.802v38.523c0 2.632 2.081 6.097 4.3 7.482z"/><path fill="#271644" d="M133.766 238.45v-19.123l-5.548-3.187v19.123zm9.848 5.82v-19.123l-5.548-3.187v19.123zm9.986 5.681v-19.123l-5.548-3.187v19.123zm4.438 2.494 5.548 3.188-1.387 2.355-39.39-22.725v-25.497l36.616 21.201-1.387 2.356zM198.957 152.958v6.375l1.803-.97v-6.375zM201.73 151.439v6.374l1.804-1.109v-6.235zM204.508 149.771v6.374l1.803-.97v-6.374zM207.277 148.251v6.375l1.803-1.109v-6.236zM210.051 146.726v6.235l1.664-.97v-6.374zM212.688 145.064v6.374l1.803-.97v-6.374zM215.461 143.542v6.236l1.803-.97v-6.374zM218.234 141.876v6.375l1.803-.97v-6.375zM221.012 140.351v6.374l1.803-1.109v-6.374zM230.157 134.949v6.374l-5.548 3.188v-6.375z"/><path fill="#7BD6D6" d="M238.477 136.612c-1.387-.832-1.248-4.157 0-6.374 1.248-2.218 4.022-4.019 5.548-3.188 1.387.832 1.248 4.158 0 6.375-1.387 2.217-4.161 4.018-5.548 3.187"/><path fill="#E7AD47" d="M239.593 134.673c-.832-.555-.694-2.495 0-3.742.693-1.247 2.496-2.355 3.329-1.94.832.555.693 2.495 0 3.742-.833 1.385-2.497 2.494-3.329 1.94"/><path fill="#402877" d="M132.789 145.613v38.246l1.803.97v-38.107zM136.812 147.973v38.107l1.804 1.108v-38.245zM140.836 150.191v38.246l1.803.97V151.3zM144.859 152.543v38.246l1.803.969v-38.106zM148.879 154.906v38.107l1.803 1.109v-38.246zM152.906 157.262v38.107l1.665.97v-38.107zM156.789 159.473v38.245l1.803.97v-38.107zM160.809 161.836v38.107l1.803 1.108v-38.245zM164.828 164.191v38.107l1.803.97v-38.107zM168.855 166.402v38.246l1.804.97v-38.107zM172.879 168.762v38.107l1.803 1.108v-38.245zM176.902 171.117v38.107l1.803 1.109v-38.246z"/><path fill="#DDDDE9" d="M412.007 83.008v127.208l-6.935 4.018-19.834 11.502-39.39 22.725V121.253zm-5.409 104.898v-19.123l-55.202 31.733v19.123zm0-25.359v-19.122l-55.202 31.732v19.123zm0-25.497v-19.122l-55.202 31.732v19.123zm0-25.358V92.569l-55.202 31.733v19.123z"/><path fill="#E6E6EF" d="m412.007 83.005-66.16 38.107-66.159-38.107 66.159-38.107zm-13.593 3.049c2.913-1.663 2.913-4.434 0-6.236l-47.157-27.16c-2.913-1.662-7.768-1.662-10.68 0l-47.158 27.16c-2.913 1.663-2.913 4.435 0 6.236l47.158 27.16c2.912 1.663 7.767 1.663 10.68 0z"/><path fill="#7BD6D6" d="M406.595 216.586v19.123l-5.548 3.187v-19.123z"/><path fill="#E7AD47" d="M403.823 173.625v12.749l-13.87 7.898v-12.748z"/><path fill="#402877" d="M403.823 148.137v12.748l-13.87 8.037v-12.748z"/><path fill="#271644" d="m389.953 168.917 13.731-7.899V148.27l-13.731 7.899zm16.644-6.374-55.202 31.871v-19.123l55.202-31.732zm-22.053 6.79c1.248-2.217 1.387-5.543 0-6.374-1.387-.832-4.3.969-5.548 3.187s-1.387 5.542 0 6.374 4.299-1.109 5.548-3.187m-11.096 6.097c1.248-2.217 1.387-5.543 0-6.374-1.387-.832-4.3.97-5.548 3.187s-1.387 5.543 0 6.374c1.526.831 4.299-.97 5.548-3.187m-10.958 6.097c1.249-2.217 1.387-5.543 0-6.374-1.387-.832-4.299.97-5.547 3.187-1.249 2.217-1.387 5.543 0 6.374 1.387.832 4.299-.97 5.547-3.187M389.953 194.276l13.731-7.898v-12.749l-13.731 7.899zm16.644-6.374-55.202 31.871v-19.122l55.202-31.733zm-22.053 6.79c1.248-2.217 1.387-5.543 0-6.374-1.387-.832-4.3.97-5.548 3.187s-1.387 5.543 0 6.374c1.387.832 4.299-.97 5.548-3.187m-11.096 6.236c1.248-2.217 1.387-5.543 0-6.374-1.387-.832-4.3.97-5.548 3.187s-1.387 5.543 0 6.374c1.526.831 4.299-1.109 5.548-3.187m-10.958 6.097c1.249-2.217 1.387-5.543 0-6.374-1.387-.832-4.299.97-5.547 3.187-1.249 2.217-1.387 5.543 0 6.374 1.387.832 4.299-.97 5.547-3.187"/><path fill="#7BD6D6" d="M401.047 105.316v3.188l-2.774 1.524v-3.187zM401.047 98.941v3.188l-2.774 1.524v-3.187z"/><path fill="url(#ao)" d="M398.411 79.962c2.912 1.662 2.912 4.434 0 6.235l-47.158 27.16c-2.913 1.663-7.767 1.663-10.68 0l-47.158-27.16c-2.913-1.663-2.913-4.434 0-6.235l47.158-27.16c2.913-1.663 7.767-1.663 10.68 0z"/><path fill="#7BD6D6" d="M396.61 222.27v19.122l-5.548 3.187v-19.122zM395.501 108.5v3.187l-2.774 1.524v-3.187zM395.501 102.129v3.187l-2.774 1.524v-3.187zM389.952 130.672v12.748l-35.784 20.647v-12.748z"/><path fill="#402877" d="M389.956 111.688v3.048l-2.636 1.663v-3.187z"/><path fill="#7BD6D6" d="M389.956 105.316v3.188l-2.636 1.524v-3.187zM386.763 227.957v19.123l-5.548 3.187v-19.123z"/><path fill="#E7AD47" d="M384.54 162.961c1.387.831 1.248 4.157 0 6.374s-4.022 4.018-5.548 3.187-1.248-4.157 0-6.374 4.022-4.019 5.548-3.187"/><path fill="#D14D84" d="M384.541 188.318c1.387.832 1.248 4.157 0 6.374-1.248 2.218-4.022 4.019-5.548 3.188-1.387-.832-1.248-4.158 0-6.375 1.248-2.078 4.022-4.018 5.548-3.187"/><path fill="#402877" d="M384.547 114.738v3.187l-2.774 1.663v-3.187z"/><path fill="#7BD6D6" d="M384.547 108.5v3.187l-2.774 1.524v-3.187z"/><path fill="#D14D84" d="M379.001 117.926v3.187l-2.774 1.663v-3.187zM379.001 111.688v3.048l-2.774 1.663v-3.187z"/><path fill="#7BD6D6" d="M376.778 233.773v18.985l-5.548 3.187v-18.984zM373.447 169.054c1.387.832 1.248 4.157 0 6.375s-4.022 4.018-5.548 3.187c-1.387-.832-1.248-4.157 0-6.375 1.387-2.217 4.161-4.018 5.548-3.187"/><path fill="#D14D84" d="M373.447 194.554c1.387.832 1.248 4.157 0 6.375s-4.022 4.018-5.548 3.187c-1.387-.832-1.248-4.157 0-6.375 1.387-2.217 4.161-4.018 5.548-3.187"/><path fill="#E7AD47" d="M373.447 114.738v12.749l-19.279 11.224v-12.748z"/><path fill="#7BD6D6" d="M366.927 239.449v19.123l-5.548 3.187v-19.123zM362.494 175.289c1.387.831 1.248 4.157 0 6.374s-4.022 4.018-5.548 3.187c-1.387-.831-1.248-4.157 0-6.374s4.022-4.019 5.548-3.187M362.494 200.648c1.387.831 1.248 4.157 0 6.374s-4.022 4.019-5.548 3.187c-1.387-.831-1.248-4.157 0-6.374s4.022-4.018 5.548-3.187M356.943 245.137v19.123l-5.548 3.187v-19.123z"/><path fill="#271644" d="m351.395 149.795 55.202-31.733v19.123l-55.202 31.872zm38.558-19.123-35.784 20.647v12.749l35.784-20.647zM401.049 98.937l-2.774 1.663v3.187l2.774-1.525zm-2.774 7.898v3.187l2.774-1.524v-3.187zm-13.731 1.663-2.774 1.524v3.188l2.774-1.663zm0 6.236-2.774 1.524v3.187l2.774-1.524zm5.409-9.423-2.774 1.524v3.187l2.774-1.524zm0 6.374-2.774 1.663v3.187l2.774-1.524zm5.548-9.561-2.774 1.524v3.187l2.774-1.524zm0 6.374-2.774 1.524v3.188l2.774-1.663zm-16.505 3.187-2.774 1.663v3.187l2.774-1.524zm0 6.236-2.774 1.524v3.187l2.774-1.524zm-27.601 6.374 55.202-31.732v19.122l-55.202 31.872zm2.774 14.412 19.279-11.086v-12.749l-19.279 11.086z"/><path fill="#402877" d="m405.213 214.237-19.834 11.502-39.391 22.725v25.497l42.165-24.388 14.286-8.314 9.709-5.543v-25.497zm-48.268 50.024-5.547 3.187v-19.122l5.547-3.187zm9.987-5.681-5.548 3.187v-19.123l5.548-3.187zm9.848-5.82-5.548 3.187v-18.984l5.548-3.187zm4.438-2.494v-19.123l5.548-3.187v19.123zm15.396-8.869-5.548 3.187v-19.122l5.548-3.188zm9.986-5.681-5.548 3.187V219.78l5.548-3.187z"/><path fill="#CACFEC" d="M345.847 121.115v127.208l-19.556-11.224-9.987-5.682-36.616-21.201V83.008zm-5.409 92.427v-38.523c0-3.464-2.358-7.622-5.409-9.284l-44.384-25.636c-2.913-1.663-5.41-.277-5.41 3.049v38.522c0 3.464 2.358 7.622 5.41 9.284l44.384 25.636c2.912 1.801 5.409.416 5.409-3.048"/><path fill="#7BD6D6" d="M340.443 248.324v19.123l-5.548-3.187v-19.123z"/><path fill="#271644" d="M338.358 175.018v38.523c0 .693-.139 1.802-.971 1.802-.416 0-.832-.139-1.387-.416l-44.384-25.636c-2.358-1.385-4.3-4.85-4.3-7.483v-38.522c0-.693.139-1.802.971-1.802.416 0 .833.139 1.387.416l44.384 25.636c2.219 1.385 4.3 4.85 4.3 7.482M326.293 237.094l19.557 11.224v25.497l-16.783-9.7 1.387-2.356v-19.122l-5.548-3.188zm8.6 27.16 5.548 3.187v-19.123l-5.548-3.187z"/><path fill="#7BD6D6" d="M330.454 242.636v19.123l-5.548-3.187v-19.123z"/><path fill="#271644" d="m324.898 258.578 5.548 3.187-1.387 2.356-9.847-5.682 1.387-2.494v-18.984l-5.548-3.187 1.387-2.356 9.847 5.681-1.387 2.356z"/><path fill="#7BD6D6" d="M320.599 236.961v18.984l-5.548-3.187v-18.985zM310.618 231.144v19.123l-5.548-3.187v-19.123zM300.771 225.457v19.122l-5.548-3.187V222.27zM290.786 219.773v19.123l-5.548-3.187v-19.123z"/><path fill="url(#ap)" d="M335.031 165.735c2.913 1.663 5.41 5.82 5.41 9.284v38.523c0 3.464-2.358 4.85-5.41 3.048l-44.383-25.635c-2.913-1.663-5.41-5.82-5.41-9.284v-38.523c0-3.464 2.358-4.85 5.41-3.049zm.971 49.193c.555.277.971.415 1.387.415.833 0 .971-1.108.971-1.801v-38.523c0-2.633-2.08-6.097-4.299-7.483l-44.384-25.635c-.555-.277-.971-.416-1.387-.416-.833 0-.971 1.109-.971 1.801v38.523c0 2.633 2.08 6.097 4.3 7.483z"/><path fill="#271644" d="M290.785 238.897v-19.123l-5.548-3.187v19.123zm9.987 5.681v-19.122l-5.548-3.188v19.123zm9.847 5.682v-19.123l-5.548-3.187v19.123zm4.439 2.494 5.548 3.187-1.387 2.356-39.391-22.726v-25.497l36.617 21.202-1.387 2.355zM355.969 153.398v6.235l1.803-.97v-6.374zM358.742 151.74v6.374l1.803-.97v-6.374zM361.52 150.21v6.236l1.803-.97v-6.374zM364.289 148.552v6.374l1.803-.97v-6.374zM367.062 147.027v6.374l1.665-1.109v-6.374zM369.699 145.365v6.374l1.803-.97v-6.374zM372.473 143.843v6.374l1.803-1.108v-6.375zM375.246 142.177v6.374l1.803-.97v-6.374zM378.023 140.652v6.374l1.804-1.109v-6.374zM387.177 135.383v6.235l-5.548 3.188v-6.236z"/><path fill="#7BD6D6" d="M395.493 136.909c-1.387-.832-1.248-4.157 0-6.375s4.022-4.018 5.548-3.187c1.387.832 1.248 4.157 0 6.375-1.387 2.217-4.161 4.018-5.548 3.187"/><path fill="#E7AD47" d="M396.605 134.97c-.833-.555-.694-2.495 0-3.742.693-1.247 2.496-2.356 3.328-1.94.832.554.694 2.494 0 3.742-.832 1.385-2.496 2.494-3.328 1.94"/><path fill="#CACFEC" d="M289.809 145.914v38.246l1.803.97v-38.107zM293.828 148.27v38.106l1.803 1.109V149.24zM297.855 150.625v38.107l1.804.97v-38.107zM301.875 152.84v38.245l1.803.97v-38.107zM305.891 155.203v38.107l1.803 1.109v-38.246zM309.922 157.559v38.107l1.803.97v-38.107zM313.941 159.773v38.246l1.665.97v-38.107zM317.82 162.129v38.107l1.803 1.108v-38.245zM321.844 164.484v38.107l1.803 1.109v-38.246zM325.871 166.695v38.246l1.803.97v-38.107zM329.887 169.059v38.107l1.803 1.108v-38.107zM333.91 171.414v38.107l1.803 1.109v-38.246z"/><path fill="#DDDDE9" d="M334.601 127.621v127.208l-6.935 4.019-19.834 11.501-39.391 22.726V165.867zm-5.548 104.898v-19.123l-55.064 31.872v19.122zm0-25.497v-19.123l-55.202 31.733v19.123zm0-25.358v-19.123l-55.202 31.733v19.122zm0-25.497v-18.985l-55.202 31.733v19.123z"/><path fill="#E6E6EF" d="m334.601 127.619-66.16 38.107-66.16-38.107 66.16-38.107zm-13.593 3.048c2.913-1.663 2.913-4.434 0-6.235l-47.158-27.16c-2.912-1.663-7.767-1.663-10.68 0l-47.157 27.16c-2.913 1.662-2.913 4.434 0 6.235l47.157 27.16c2.913 1.663 7.768 1.663 10.68 0z"/><path fill="#7BD6D6" d="M329.05 261.199v18.984l-5.409 3.188v-18.985z"/><path fill="#D14D84" d="M326.278 218.238v12.749l-13.731 7.898v-12.748z"/><path fill="#7BD6D6" d="M326.278 192.75v12.748l-13.731 7.899v-12.61z"/><path fill="#271644" d="m312.549 213.398 13.731-7.899V192.75l-13.731 7.899zm16.505-6.375-55.202 31.872v-19.123l55.202-31.733zm-22.053 6.79c1.248-2.217 1.387-5.543 0-6.374s-4.3.97-5.548 3.187-1.387 5.543 0 6.374c1.525.832 4.299-.97 5.548-3.187m-10.958 6.236c1.249-2.217 1.387-5.543 0-6.374-1.387-.832-4.299.97-5.547 3.187-1.249 2.217-1.387 5.543 0 6.374 1.525.831 4.299-1.109 5.547-3.187m-11.095 6.097c1.248-2.217 1.387-5.543 0-6.374-1.387-.832-4.3.97-5.548 3.187s-1.387 5.543 0 6.374c1.387.832 4.299-.97 5.548-3.187M312.549 238.89l13.731-7.899v-12.748l-13.731 7.898zm16.505-6.375-55.202 31.872v-19.123l55.202-31.733zm-22.053 6.79c1.248-2.217 1.387-5.542 0-6.374s-4.3.97-5.548 3.187-1.387 5.543 0 6.375c1.525.831 4.299-.97 5.548-3.188m-10.958 6.098c1.249-2.218 1.387-5.543 0-6.375s-4.299.97-5.547 3.187c-1.249 2.218-1.387 5.543 0 6.375 1.525.831 4.299-.97 5.547-3.187m-11.095 6.235c1.248-2.217 1.387-5.543 0-6.374s-4.3.97-5.548 3.187-1.387 5.543 0 6.374c1.525.832 4.299-1.108 5.548-3.187"/><path fill="#402877" d="M323.641 149.789v3.187l-2.774 1.663v-3.187zM323.641 143.414v3.187l-2.774 1.663v-3.187z"/><path fill="url(#aq)" d="M321.004 124.43c2.913 1.663 2.913 4.435 0 6.236l-47.158 27.16c-2.912 1.663-7.767 1.663-10.679 0l-47.158-27.16c-2.913-1.663-2.913-4.434 0-6.236l47.158-27.16c2.912-1.662 7.767-1.662 10.679 0z"/><path fill="#7BD6D6" d="M319.204 266.883v19.123l-5.548 3.187V270.07z"/><path fill="#D14D84" d="M318.094 152.98v3.188l-2.774 1.662v-3.187z"/><path fill="#402877" d="M318.094 146.602v3.187l-2.774 1.663v-3.188zM312.546 175.285v12.749l-35.784 20.647v-12.749z"/><path fill="#D14D84" d="M312.551 156.164v3.187l-2.774 1.663v-3.187z"/><path fill="#7BD6D6" d="M312.551 149.789v3.187l-2.774 1.663v-3.187zM309.218 272.57v19.123l-5.409 3.187v-19.123zM306.998 207.431c1.387.832 1.248 4.158 0 6.375s-4.022 4.018-5.548 3.187c-1.387-.832-1.248-4.157 0-6.374 1.387-2.079 4.161-4.019 5.548-3.188M306.998 232.933c1.387.832 1.248 4.157 0 6.374-1.248 2.218-4.022 4.019-5.548 3.188-1.387-.832-1.248-4.158 0-6.375 1.387-2.217 4.161-4.018 5.548-3.187M307.001 159.352v3.187l-2.774 1.663v-3.188z"/><path fill="#402877" d="M307.001 152.98v3.188l-2.774 1.662v-3.187zM301.594 162.539v3.187l-2.774 1.663v-3.187z"/><path fill="#7BD6D6" d="M301.594 156.164v3.187l-2.774 1.663v-3.187zM299.372 278.242v19.123l-5.548 3.187v-19.123z"/><path fill="#D14D84" d="M296.041 213.668c1.387.831 1.248 4.157 0 6.374s-4.022 4.018-5.548 3.187c-1.387-.831-1.248-4.157 0-6.374s4.022-4.019 5.548-3.187"/><path fill="#E7AD47" d="M296.041 239.029c1.387.832 1.248 4.157 0 6.374s-4.022 4.019-5.548 3.187c-1.387-.831-1.248-4.157 0-6.374 1.248-2.078 4.022-4.018 5.548-3.187"/><path fill="#7BD6D6" d="M296.041 159.352V172.1l-19.279 11.086v-12.749zM289.384 284.062v18.985l-5.548 3.187V287.25zM284.942 219.765c1.387.832 1.249 4.157 0 6.375-1.248 2.217-4.022 4.018-5.548 3.187-1.525-.832-1.248-4.158 0-6.375 1.387-2.217 4.161-4.018 5.548-3.187"/><path fill="#E7AD47" d="M284.947 245.261c1.387.832 1.248 4.157 0 6.375s-4.022 4.018-5.548 3.187c-1.387-.832-1.248-4.157 0-6.375 1.387-2.217 4.161-4.018 5.548-3.187"/><path fill="#7BD6D6" d="M279.536 289.75v19.123l-5.548 3.187v-19.123z"/><path fill="#271644" d="m273.988 194.408 55.203-31.732v19.123l-55.203 31.871zm38.559-19.122-35.785 20.647v12.748l35.785-20.647zM323.643 143.411l-2.774 1.663v3.187l2.774-1.524zm-2.774 8.038v3.187l2.774-1.525v-3.187zm-13.87 1.524-2.774 1.524v3.187l2.774-1.663zm0 6.374-2.774 1.524v3.188l2.774-1.525zm5.548-9.561-2.774 1.524v3.187l2.774-1.524zm0 6.374-2.774 1.663v3.187l2.774-1.524zm5.548-9.561-2.774 1.524v3.187l2.774-1.524zm0 6.374-2.774 1.524v3.187l2.774-1.663zm-16.505 3.187-2.774 1.663v3.187l2.774-1.524zm0 6.374-2.774 1.525v3.187l2.774-1.525zm-27.602 6.374 55.203-31.732v19.123l-55.203 31.871zm2.774 14.273 19.28-11.085v-12.749l-19.28 11.086z"/><path fill="#402877" d="m327.666 258.706-19.834 11.501-39.391 22.726v25.497l42.165-24.388 14.286-8.315 9.709-5.542v-25.497zm-48.129 50.163-5.548 3.187v-19.123l5.548-3.187zm9.848-5.82-5.548 3.187v-19.123l5.548-3.187zm9.986-5.682-5.548 3.187v-19.122l5.548-3.187zm4.439-2.494V275.75l5.548-3.187v19.123zm15.395-8.868-5.548 3.187v-19.123l5.548-3.187zm9.848-5.82-5.548 3.187v-19.123l5.548-3.187z"/><path fill="#CACFEC" d="M268.441 165.728v127.208l-19.557-11.224-9.986-5.682-36.617-21.201V127.621zm-5.548 92.427v-38.523c0-3.464-2.358-7.621-5.409-9.284L213.1 184.712c-2.913-1.663-5.409-.277-5.409 3.049v38.522c0 3.465 2.357 7.622 5.409 9.285l44.384 25.635c3.051 1.802 5.409.277 5.409-3.048"/><path fill="#7BD6D6" d="M262.898 292.937v19.123l-5.41-3.187V289.75z"/><path fill="#CACFEC" d="M260.952 219.632v38.522c0 .693-.139 1.802-.971 1.802-.416 0-.832-.139-1.387-.416l-44.384-25.635c-2.358-1.386-4.3-4.85-4.3-7.483v-38.523c0-.693.139-1.801.971-1.801.416 0 .832.138 1.387.415l44.384 25.636c2.219 1.247 4.3 4.85 4.3 7.483"/><path fill="#271644" d="m248.887 281.707 19.557 11.224v25.497l-16.783-9.7 1.387-2.355V287.25l-5.548-3.187zm8.599 27.16 5.548 3.187v-19.123l-5.548-3.187z"/><path fill="#7BD6D6" d="M253.048 287.25v18.984l-5.548-3.187v-18.985z"/><path fill="#271644" d="m247.492 303.051 5.548 3.187-1.387 2.494-9.986-5.82 1.387-2.356v-19.123l-5.409-3.187 1.248-2.355 9.986 5.82-1.387 2.355z"/><path fill="#7BD6D6" d="M243.054 281.429v19.123l-5.409-3.187v-19.123zM233.212 275.757v19.123l-5.548-3.187V272.57zM223.228 270.07v19.123l-5.548-3.187v-19.123zM213.38 264.386v18.985l-5.548-3.188v-18.984z"/><path fill="url(#ar)" d="M257.625 210.348c2.913 1.663 5.409 5.82 5.409 9.284v38.523c0 3.464-2.357 4.85-5.409 3.049l-44.384-25.636c-2.912-1.663-5.409-5.82-5.409-9.284v-38.523c0-3.464 2.358-4.85 5.409-3.048zm.971 49.054c.555.277.971.416 1.387.416.832 0 .971-1.109.971-1.801v-38.523c0-2.633-2.081-6.097-4.3-7.483l-44.384-25.636c-.554-.277-.97-.415-1.387-.415-.832 0-.97 1.108-.97 1.801v38.523c0 2.633 2.08 6.097 4.299 7.483z"/><path fill="#271644" d="M213.379 283.372v-19.123l-5.548-3.187v19.123zm9.848 5.82v-19.123l-5.548-3.187v19.123zm9.986 5.681V275.75l-5.548-3.187v19.123zm4.439 2.494 5.548 3.187-1.387 2.356-39.391-22.725v-25.497l36.617 21.201-1.387 2.356zM278.566 197.876v6.374l1.803-.969v-6.375zM281.34 196.351v6.374l1.803-1.109v-6.374zM284.117 194.689v6.374l1.665-.97v-6.374zM286.75 193.167v6.374l1.803-1.108v-6.374zM289.52 191.505v6.374l1.803-.97v-6.374zM292.297 189.976v6.374l1.803-1.109v-6.374zM295.07 188.322v6.374l1.803-.97v-6.374zM297.844 186.792v6.374l1.803-1.108v-6.374zM300.621 185.13v6.374l1.803-.97v-6.374zM309.767 179.863v6.375l-5.548 3.187v-6.375z"/><path fill="#402877" d="M317.954 181.53c-1.387-.832-1.249-4.157 0-6.375 1.248-2.217 4.022-4.018 5.548-3.187 1.387.832 1.248 4.157 0 6.375-1.249 2.078-4.023 4.018-5.548 3.187"/><path fill="#E7AD47" d="M319.066 179.587c-.833-.555-.694-2.495 0-3.742.693-1.247 2.496-2.355 3.328-1.94.833.555.694 2.495 0 3.742-.693 1.247-2.358 2.355-3.328 1.94"/><path fill="#402877" d="M212.406 190.535v38.107l1.803 1.109v-38.246zM216.426 192.891v38.107l1.803.97v-38.107zM220.449 195.105v38.246l1.665.97v-38.107zM224.328 197.457v38.107l1.803 1.109v-38.246zM228.355 199.82v38.107l1.804.97V200.79zM232.375 202.035v38.246l1.803.97v-38.107zM236.402 204.387v38.107l1.803 1.108v-38.245zM240.422 206.746v38.107l1.803 1.109v-38.246zM244.438 208.965v38.245l1.803.97v-38.107zM248.469 211.316v38.107l1.803 1.109v-38.107zM252.488 213.68v38.107l1.803 1.108V214.65zM256.512 215.891v38.245l1.803.97v-38.107z"/><defs><linearGradient id="a" x1="219.283" x2="219.283" y1="353.44" y2="405.606" gradientUnits="userSpaceOnUse"><stop stop-color="#E7E7F0"/><stop offset=".153" stop-color="#F9F9FB"/><stop offset=".266" stop-color="#fff"/><stop offset=".566" stop-color="#F3F3F8"/><stop offset=".996" stop-color="#E7E7F0"/></linearGradient><linearGradient id="b" x1="257.644" x2="263.127" y1="384.272" y2="384.272" gradientUnits="userSpaceOnUse"><stop stop-color="#223345"/><stop offset="1" stop-color="#17222C"/></linearGradient><linearGradient id="c" x1="241.785" x2="246.095" y1="391.592" y2="395.907" gradientUnits="userSpaceOnUse"><stop stop-color="#7194A5"/><stop offset=".211" stop-color="#67889A"/><stop offset=".689" stop-color="#557387"/><stop offset="1" stop-color="#4E6B80"/></linearGradient><linearGradient id="d" x1="209.339" x2="234.693" y1="409.554" y2="409.554" gradientUnits="userSpaceOnUse"><stop stop-color="#223345"/><stop offset="1" stop-color="#17222C"/></linearGradient><linearGradient id="e" x1="252.153" x2="252.153" y1="372.396" y2="424.562" gradientUnits="userSpaceOnUse"><stop stop-color="#E7E7F0"/><stop offset=".153" stop-color="#F9F9FB"/><stop offset=".266" stop-color="#fff"/><stop offset=".566" stop-color="#F3F3F8"/><stop offset=".996" stop-color="#E7E7F0"/></linearGradient><linearGradient id="f" x1="407.915" x2="407.915" y1="279.995" y2="332.161" gradientUnits="userSpaceOnUse"><stop stop-color="#E7E7F0"/><stop offset=".153" stop-color="#F9F9FB"/><stop offset=".266" stop-color="#fff"/><stop offset=".566" stop-color="#F3F3F8"/><stop offset=".996" stop-color="#E7E7F0"/></linearGradient><linearGradient id="g" x1="446.277" x2="451.76" y1="310.826" y2="310.826" gradientUnits="userSpaceOnUse"><stop stop-color="#223345"/><stop offset="1" stop-color="#17222C"/></linearGradient><linearGradient id="h" x1="430.418" x2="434.728" y1="318.147" y2="322.462" gradientUnits="userSpaceOnUse"><stop stop-color="#7194A5"/><stop offset=".211" stop-color="#67889A"/><stop offset=".689" stop-color="#557387"/><stop offset="1" stop-color="#4E6B80"/></linearGradient><linearGradient id="i" x1="397.972" x2="423.326" y1="336.109" y2="336.109" gradientUnits="userSpaceOnUse"><stop stop-color="#223345"/><stop offset="1" stop-color="#17222C"/></linearGradient><linearGradient id="j" x1="440.786" x2="440.786" y1="298.951" y2="351.116" gradientUnits="userSpaceOnUse"><stop stop-color="#E7E7F0"/><stop offset=".153" stop-color="#F9F9FB"/><stop offset=".266" stop-color="#fff"/><stop offset=".566" stop-color="#F3F3F8"/><stop offset=".996" stop-color="#E7E7F0"/></linearGradient><linearGradient id="k" x1="56.035" x2="56.035" y1="219.749" y2="322.92" gradientUnits="userSpaceOnUse"><stop stop-color="#E7E7F0"/><stop offset=".153" stop-color="#F9F9FB"/><stop offset=".266" stop-color="#fff"/><stop offset=".566" stop-color="#F3F3F8"/><stop offset=".996" stop-color="#E7E7F0"/></linearGradient><linearGradient id="l" x1="97.416" x2="108.688" y1="286.877" y2="286.877" gradientUnits="userSpaceOnUse"><stop stop-color="#E7E7F0"/><stop offset=".153" stop-color="#F9F9FB"/><stop offset=".266" stop-color="#fff"/><stop offset=".654" stop-color="#EBECF0"/><stop offset=".996" stop-color="#DFE0E6"/></linearGradient><linearGradient id="m" x1="90.237" x2="101.524" y1="291.005" y2="291.005" gradientUnits="userSpaceOnUse"><stop stop-color="#E7E7F0"/><stop offset=".153" stop-color="#F9F9FB"/><stop offset=".266" stop-color="#fff"/><stop offset=".654" stop-color="#EBECF0"/><stop offset=".996" stop-color="#DFE0E6"/></linearGradient><linearGradient id="n" x1="83.075" x2="94.347" y1="295.139" y2="295.139" gradientUnits="userSpaceOnUse"><stop stop-color="#E7E7F0"/><stop offset=".153" stop-color="#F9F9FB"/><stop offset=".266" stop-color="#fff"/><stop offset=".654" stop-color="#EBECF0"/><stop offset=".996" stop-color="#DFE0E6"/></linearGradient><linearGradient id="o" x1="75.918" x2="87.19" y1="299.263" y2="299.263" gradientUnits="userSpaceOnUse"><stop stop-color="#E7E7F0"/><stop offset=".153" stop-color="#F9F9FB"/><stop offset=".266" stop-color="#fff"/><stop offset=".654" stop-color="#EBECF0"/><stop offset=".996" stop-color="#DFE0E6"/></linearGradient><linearGradient id="p" x1="68.768" x2="80.041" y1="303.396" y2="303.396" gradientUnits="userSpaceOnUse"><stop stop-color="#E7E7F0"/><stop offset=".153" stop-color="#F9F9FB"/><stop offset=".266" stop-color="#fff"/><stop offset=".654" stop-color="#EBECF0"/><stop offset=".996" stop-color="#DFE0E6"/></linearGradient><linearGradient id="q" x1="61.584" x2="72.856" y1="307.528" y2="307.528" gradientUnits="userSpaceOnUse"><stop stop-color="#E7E7F0"/><stop offset=".153" stop-color="#F9F9FB"/><stop offset=".266" stop-color="#fff"/><stop offset=".654" stop-color="#EBECF0"/><stop offset=".996" stop-color="#DFE0E6"/></linearGradient><linearGradient id="r" x1="54.427" x2="65.699" y1="311.668" y2="311.668" gradientUnits="userSpaceOnUse"><stop stop-color="#E7E7F0"/><stop offset=".153" stop-color="#F9F9FB"/><stop offset=".266" stop-color="#fff"/><stop offset=".654" stop-color="#EBECF0"/><stop offset=".996" stop-color="#DFE0E6"/></linearGradient><linearGradient id="s" x1="47.274" x2="58.546" y1="315.798" y2="315.798" gradientUnits="userSpaceOnUse"><stop stop-color="#E7E7F0"/><stop offset=".153" stop-color="#F9F9FB"/><stop offset=".266" stop-color="#fff"/><stop offset=".654" stop-color="#EBECF0"/><stop offset=".996" stop-color="#DFE0E6"/></linearGradient><linearGradient id="t" x1="40.105" x2="51.391" y1="319.934" y2="319.934" gradientUnits="userSpaceOnUse"><stop stop-color="#E7E7F0"/><stop offset=".153" stop-color="#F9F9FB"/><stop offset=".266" stop-color="#fff"/><stop offset=".654" stop-color="#EBECF0"/><stop offset=".996" stop-color="#DFE0E6"/></linearGradient><linearGradient id="u" x1="32.94" x2="44.212" y1="324.059" y2="324.059" gradientUnits="userSpaceOnUse"><stop stop-color="#E7E7F0"/><stop offset=".153" stop-color="#F9F9FB"/><stop offset=".266" stop-color="#fff"/><stop offset=".654" stop-color="#EBECF0"/><stop offset=".996" stop-color="#DFE0E6"/></linearGradient><linearGradient id="v" x1="18.614" x2="37.059" y1="330.267" y2="330.267" gradientUnits="userSpaceOnUse"><stop stop-color="#E7E7F0"/><stop offset=".153" stop-color="#F9F9FB"/><stop offset=".266" stop-color="#fff"/><stop offset=".654" stop-color="#EBECF0"/><stop offset=".996" stop-color="#DFE0E6"/></linearGradient><linearGradient id="w" x1="97.482" x2="115.912" y1="293.139" y2="293.139" gradientUnits="userSpaceOnUse"><stop stop-color="#E7E7F0"/><stop offset=".153" stop-color="#F9F9FB"/><stop offset=".266" stop-color="#fff"/><stop offset=".654" stop-color="#EBECF0"/><stop offset=".996" stop-color="#DFE0E6"/></linearGradient><linearGradient id="x" x1="90.323" x2="101.581" y1="299.339" y2="299.339" gradientUnits="userSpaceOnUse"><stop stop-color="#E7E7F0"/><stop offset=".153" stop-color="#F9F9FB"/><stop offset=".266" stop-color="#fff"/><stop offset=".654" stop-color="#EBECF0"/><stop offset=".996" stop-color="#DFE0E6"/></linearGradient><linearGradient id="y" x1="83.154" x2="94.412" y1="303.475" y2="303.475" gradientUnits="userSpaceOnUse"><stop stop-color="#E7E7F0"/><stop offset=".153" stop-color="#F9F9FB"/><stop offset=".266" stop-color="#fff"/><stop offset=".654" stop-color="#EBECF0"/><stop offset=".996" stop-color="#DFE0E6"/></linearGradient><linearGradient id="z" x1="75.995" x2="87.254" y1="307.589" y2="307.589" gradientUnits="userSpaceOnUse"><stop stop-color="#E7E7F0"/><stop offset=".153" stop-color="#F9F9FB"/><stop offset=".266" stop-color="#fff"/><stop offset=".654" stop-color="#EBECF0"/><stop offset=".996" stop-color="#DFE0E6"/></linearGradient><linearGradient id="A" x1="68.824" x2="80.082" y1="311.737" y2="311.737" gradientUnits="userSpaceOnUse"><stop stop-color="#E7E7F0"/><stop offset=".153" stop-color="#F9F9FB"/><stop offset=".266" stop-color="#fff"/><stop offset=".654" stop-color="#EBECF0"/><stop offset=".996" stop-color="#DFE0E6"/></linearGradient><linearGradient id="B" x1="61.663" x2="72.922" y1="315.858" y2="315.858" gradientUnits="userSpaceOnUse"><stop stop-color="#E7E7F0"/><stop offset=".153" stop-color="#F9F9FB"/><stop offset=".266" stop-color="#fff"/><stop offset=".654" stop-color="#EBECF0"/><stop offset=".996" stop-color="#DFE0E6"/></linearGradient><linearGradient id="C" x1="54.501" x2="65.759" y1="319.99" y2="319.99" gradientUnits="userSpaceOnUse"><stop stop-color="#E7E7F0"/><stop offset=".153" stop-color="#F9F9FB"/><stop offset=".266" stop-color="#fff"/><stop offset=".654" stop-color="#EBECF0"/><stop offset=".996" stop-color="#DFE0E6"/></linearGradient><linearGradient id="D" x1="47.33" x2="58.602" y1="324.122" y2="324.122" gradientUnits="userSpaceOnUse"><stop stop-color="#E7E7F0"/><stop offset=".153" stop-color="#F9F9FB"/><stop offset=".266" stop-color="#fff"/><stop offset=".654" stop-color="#EBECF0"/><stop offset=".996" stop-color="#DFE0E6"/></linearGradient><linearGradient id="E" x1="40.184" x2="51.443" y1="328.268" y2="328.268" gradientUnits="userSpaceOnUse"><stop stop-color="#E7E7F0"/><stop offset=".153" stop-color="#F9F9FB"/><stop offset=".266" stop-color="#fff"/><stop offset=".654" stop-color="#EBECF0"/><stop offset=".996" stop-color="#DFE0E6"/></linearGradient><linearGradient id="F" x1="33.014" x2="44.272" y1="332.392" y2="332.392" gradientUnits="userSpaceOnUse"><stop stop-color="#E7E7F0"/><stop offset=".153" stop-color="#F9F9FB"/><stop offset=".266" stop-color="#fff"/><stop offset=".654" stop-color="#EBECF0"/><stop offset=".996" stop-color="#DFE0E6"/></linearGradient><linearGradient id="G" x1="25.843" x2="37.115" y1="336.528" y2="336.528" gradientUnits="userSpaceOnUse"><stop stop-color="#E7E7F0"/><stop offset=".153" stop-color="#F9F9FB"/><stop offset=".266" stop-color="#fff"/><stop offset=".654" stop-color="#EBECF0"/><stop offset=".996" stop-color="#DFE0E6"/></linearGradient><linearGradient id="H" x1="104.697" x2="123.127" y1="297.34" y2="297.34" gradientUnits="userSpaceOnUse"><stop stop-color="#E7E7F0"/><stop offset=".153" stop-color="#F9F9FB"/><stop offset=".266" stop-color="#fff"/><stop offset=".654" stop-color="#EBECF0"/><stop offset=".996" stop-color="#DFE0E6"/></linearGradient><linearGradient id="I" x1="97.538" x2="108.796" y1="303.54" y2="303.54" gradientUnits="userSpaceOnUse"><stop stop-color="#E7E7F0"/><stop offset=".153" stop-color="#F9F9FB"/><stop offset=".266" stop-color="#fff"/><stop offset=".654" stop-color="#EBECF0"/><stop offset=".996" stop-color="#DFE0E6"/></linearGradient><linearGradient id="J" x1="90.389" x2="101.647" y1="307.672" y2="307.672" gradientUnits="userSpaceOnUse"><stop stop-color="#E7E7F0"/><stop offset=".153" stop-color="#F9F9FB"/><stop offset=".266" stop-color="#fff"/><stop offset=".654" stop-color="#EBECF0"/><stop offset=".996" stop-color="#DFE0E6"/></linearGradient><linearGradient id="K" x1="83.222" x2="94.48" y1="311.8" y2="311.8" gradientUnits="userSpaceOnUse"><stop stop-color="#E7E7F0"/><stop offset=".153" stop-color="#F9F9FB"/><stop offset=".266" stop-color="#fff"/><stop offset=".654" stop-color="#EBECF0"/><stop offset=".996" stop-color="#DFE0E6"/></linearGradient><linearGradient id="L" x1="76.047" x2="87.305" y1="315.923" y2="315.923" gradientUnits="userSpaceOnUse"><stop stop-color="#E7E7F0"/><stop offset=".153" stop-color="#F9F9FB"/><stop offset=".266" stop-color="#fff"/><stop offset=".654" stop-color="#EBECF0"/><stop offset=".996" stop-color="#DFE0E6"/></linearGradient><linearGradient id="M" x1="68.89" x2="80.148" y1="320.055" y2="320.055" gradientUnits="userSpaceOnUse"><stop stop-color="#E7E7F0"/><stop offset=".153" stop-color="#F9F9FB"/><stop offset=".266" stop-color="#fff"/><stop offset=".654" stop-color="#EBECF0"/><stop offset=".996" stop-color="#DFE0E6"/></linearGradient><linearGradient id="N" x1="61.735" x2="72.993" y1="324.183" y2="324.183" gradientUnits="userSpaceOnUse"><stop stop-color="#E7E7F0"/><stop offset=".153" stop-color="#F9F9FB"/><stop offset=".266" stop-color="#fff"/><stop offset=".654" stop-color="#EBECF0"/><stop offset=".996" stop-color="#DFE0E6"/></linearGradient><linearGradient id="O" x1="54.552" x2="65.824" y1="328.323" y2="328.323" gradientUnits="userSpaceOnUse"><stop stop-color="#E7E7F0"/><stop offset=".153" stop-color="#F9F9FB"/><stop offset=".266" stop-color="#fff"/><stop offset=".654" stop-color="#EBECF0"/><stop offset=".996" stop-color="#DFE0E6"/></linearGradient><linearGradient id="P" x1="47.395" x2="58.653" y1="332.463" y2="332.463" gradientUnits="userSpaceOnUse"><stop stop-color="#E7E7F0"/><stop offset=".153" stop-color="#F9F9FB"/><stop offset=".266" stop-color="#fff"/><stop offset=".654" stop-color="#EBECF0"/><stop offset=".996" stop-color="#DFE0E6"/></linearGradient><linearGradient id="Q" x1="33.065" x2="51.496" y1="338.652" y2="338.652" gradientUnits="userSpaceOnUse"><stop stop-color="#E7E7F0"/><stop offset=".153" stop-color="#F9F9FB"/><stop offset=".266" stop-color="#fff"/><stop offset=".654" stop-color="#EBECF0"/><stop offset=".996" stop-color="#DFE0E6"/></linearGradient><linearGradient id="R" x1="104.76" x2="130.349" y1="303.604" y2="303.604" gradientUnits="userSpaceOnUse"><stop stop-color="#E7E7F0"/><stop offset=".153" stop-color="#F9F9FB"/><stop offset=".266" stop-color="#fff"/><stop offset=".654" stop-color="#EBECF0"/><stop offset=".996" stop-color="#DFE0E6"/></linearGradient><linearGradient id="S" x1="97.603" x2="108.862" y1="311.865" y2="311.865" gradientUnits="userSpaceOnUse"><stop stop-color="#E7E7F0"/><stop offset=".153" stop-color="#F9F9FB"/><stop offset=".266" stop-color="#fff"/><stop offset=".654" stop-color="#EBECF0"/><stop offset=".996" stop-color="#DFE0E6"/></linearGradient><linearGradient id="T" x1="90.448" x2="101.707" y1="315.994" y2="315.994" gradientUnits="userSpaceOnUse"><stop stop-color="#E7E7F0"/><stop offset=".153" stop-color="#F9F9FB"/><stop offset=".266" stop-color="#fff"/><stop offset=".654" stop-color="#EBECF0"/><stop offset=".996" stop-color="#DFE0E6"/></linearGradient><linearGradient id="U" x1="83.273" x2="94.532" y1="320.122" y2="320.122" gradientUnits="userSpaceOnUse"><stop stop-color="#E7E7F0"/><stop offset=".153" stop-color="#F9F9FB"/><stop offset=".266" stop-color="#fff"/><stop offset=".654" stop-color="#EBECF0"/><stop offset=".996" stop-color="#DFE0E6"/></linearGradient><linearGradient id="V" x1="76.112" x2="87.371" y1="324.258" y2="324.258" gradientUnits="userSpaceOnUse"><stop stop-color="#E7E7F0"/><stop offset=".153" stop-color="#F9F9FB"/><stop offset=".266" stop-color="#fff"/><stop offset=".654" stop-color="#EBECF0"/><stop offset=".996" stop-color="#DFE0E6"/></linearGradient><linearGradient id="W" x1="68.958" x2="80.216" y1="328.384" y2="328.384" gradientUnits="userSpaceOnUse"><stop stop-color="#E7E7F0"/><stop offset=".153" stop-color="#F9F9FB"/><stop offset=".266" stop-color="#fff"/><stop offset=".654" stop-color="#EBECF0"/><stop offset=".996" stop-color="#DFE0E6"/></linearGradient><linearGradient id="X" x1="61.786" x2="73.059" y1="332.524" y2="332.524" gradientUnits="userSpaceOnUse"><stop stop-color="#E7E7F0"/><stop offset=".153" stop-color="#F9F9FB"/><stop offset=".266" stop-color="#fff"/><stop offset=".654" stop-color="#EBECF0"/><stop offset=".996" stop-color="#DFE0E6"/></linearGradient><linearGradient id="Y" x1="54.618" x2="65.876" y1="336.649" y2="336.649" gradientUnits="userSpaceOnUse"><stop stop-color="#E7E7F0"/><stop offset=".153" stop-color="#F9F9FB"/><stop offset=".266" stop-color="#fff"/><stop offset=".654" stop-color="#EBECF0"/><stop offset=".996" stop-color="#DFE0E6"/></linearGradient><linearGradient id="Z" x1="40.307" x2="58.738" y1="342.853" y2="342.853" gradientUnits="userSpaceOnUse"><stop stop-color="#E7E7F0"/><stop offset=".153" stop-color="#F9F9FB"/><stop offset=".266" stop-color="#fff"/><stop offset=".654" stop-color="#EBECF0"/><stop offset=".996" stop-color="#DFE0E6"/></linearGradient><linearGradient id="aa" x1="126.313" x2="137.585" y1="303.668" y2="303.668" gradientUnits="userSpaceOnUse"><stop stop-color="#E7E7F0"/><stop offset=".153" stop-color="#F9F9FB"/><stop offset=".266" stop-color="#fff"/><stop offset=".654" stop-color="#EBECF0"/><stop offset=".996" stop-color="#DFE0E6"/></linearGradient><linearGradient id="ab" x1="119.148" x2="130.434" y1="307.801" y2="307.801" gradientUnits="userSpaceOnUse"><stop stop-color="#E7E7F0"/><stop offset=".153" stop-color="#F9F9FB"/><stop offset=".266" stop-color="#fff"/><stop offset=".654" stop-color="#EBECF0"/><stop offset=".996" stop-color="#DFE0E6"/></linearGradient><linearGradient id="ac" x1="111.987" x2="123.259" y1="311.937" y2="311.937" gradientUnits="userSpaceOnUse"><stop stop-color="#E7E7F0"/><stop offset=".153" stop-color="#F9F9FB"/><stop offset=".266" stop-color="#fff"/><stop offset=".654" stop-color="#EBECF0"/><stop offset=".996" stop-color="#DFE0E6"/></linearGradient><linearGradient id="ad" x1="76.18" x2="116.1" y1="324.325" y2="324.325" gradientUnits="userSpaceOnUse"><stop stop-color="#E7E7F0"/><stop offset=".153" stop-color="#F9F9FB"/><stop offset=".266" stop-color="#fff"/><stop offset=".654" stop-color="#EBECF0"/><stop offset=".996" stop-color="#DFE0E6"/></linearGradient><linearGradient id="ae" x1="69.009" x2="80.296" y1="336.714" y2="336.714" gradientUnits="userSpaceOnUse"><stop stop-color="#E7E7F0"/><stop offset=".153" stop-color="#F9F9FB"/><stop offset=".266" stop-color="#fff"/><stop offset=".654" stop-color="#EBECF0"/><stop offset=".996" stop-color="#DFE0E6"/></linearGradient><linearGradient id="af" x1="61.858" x2="73.13" y1="340.854" y2="340.854" gradientUnits="userSpaceOnUse"><stop stop-color="#E7E7F0"/><stop offset=".153" stop-color="#F9F9FB"/><stop offset=".266" stop-color="#fff"/><stop offset=".654" stop-color="#EBECF0"/><stop offset=".996" stop-color="#DFE0E6"/></linearGradient><linearGradient id="ag" x1="47.514" x2="65.959" y1="347.043" y2="347.043" gradientUnits="userSpaceOnUse"><stop stop-color="#E7E7F0"/><stop offset=".153" stop-color="#F9F9FB"/><stop offset=".266" stop-color="#fff"/><stop offset=".654" stop-color="#EBECF0"/><stop offset=".996" stop-color="#DFE0E6"/></linearGradient><linearGradient id="ah" x1="68.62" x2="68.62" y1="245.978" y2="247.759" gradientUnits="userSpaceOnUse"><stop stop-color="#E7E7F0"/><stop offset=".153" stop-color="#F9F9FB"/><stop offset=".266" stop-color="#fff"/><stop offset=".566" stop-color="#F3F3F8"/><stop offset=".996" stop-color="#E7E7F0"/></linearGradient><linearGradient id="ai" x1="74.208" x2="74.208" y1="242.749" y2="244.529" gradientUnits="userSpaceOnUse"><stop stop-color="#E7E7F0"/><stop offset=".153" stop-color="#F9F9FB"/><stop offset=".266" stop-color="#fff"/><stop offset=".566" stop-color="#F3F3F8"/><stop offset=".996" stop-color="#E7E7F0"/></linearGradient><linearGradient id="aj" x1="71.408" x2="71.408" y1="244.367" y2="246.147" gradientUnits="userSpaceOnUse"><stop stop-color="#E7E7F0"/><stop offset=".153" stop-color="#F9F9FB"/><stop offset=".266" stop-color="#fff"/><stop offset=".566" stop-color="#F3F3F8"/><stop offset=".996" stop-color="#E7E7F0"/></linearGradient><linearGradient id="ak" x1="266.309" x2="266.309" y1="6.558" y2="69.737" gradientUnits="userSpaceOnUse"><stop stop-color="#E7E7F0"/><stop offset=".153" stop-color="#F9F9FB"/><stop offset=".266" stop-color="#fff"/><stop offset=".566" stop-color="#F3F3F8"/><stop offset=".996" stop-color="#E7E7F0"/></linearGradient><linearGradient id="al" x1="233.229" x2="233.229" y1="94.566" y2="172.53" gradientUnits="userSpaceOnUse"><stop stop-color="#E7E7F0"/><stop offset=".153" stop-color="#F9F9FB"/><stop offset=".266" stop-color="#fff"/><stop offset=".566" stop-color="#F3F3F8"/><stop offset=".996" stop-color="#E7E7F0"/></linearGradient><linearGradient id="am" x1="188.875" x2="188.875" y1="51.102" y2="114.281" gradientUnits="userSpaceOnUse"><stop stop-color="#E7E7F0"/><stop offset=".153" stop-color="#F9F9FB"/><stop offset=".266" stop-color="#fff"/><stop offset=".566" stop-color="#F3F3F8"/><stop offset=".996" stop-color="#E7E7F0"/></linearGradient><linearGradient id="an" x1="155.799" x2="155.799" y1="139.112" y2="217.076" gradientUnits="userSpaceOnUse"><stop stop-color="#A7B0E0"/><stop offset="1" stop-color="#CACFEC"/></linearGradient><linearGradient id="ao" x1="291.136" x2="400.675" y1="83.011" y2="83.011" gradientUnits="userSpaceOnUse"><stop stop-color="#E7E7F0"/><stop offset=".153" stop-color="#F9F9FB"/><stop offset=".266" stop-color="#fff"/><stop offset=".566" stop-color="#F3F3F8"/><stop offset=".996" stop-color="#E7E7F0"/></linearGradient><linearGradient id="ap" x1="312.831" x2="312.831" y1="139.432" y2="217.396" gradientUnits="userSpaceOnUse"><stop stop-color="#A7B0E0"/><stop offset="1" stop-color="#CACFEC"/></linearGradient><linearGradient id="aq" x1="268.453" x2="268.453" y1="95.983" y2="159.162" gradientUnits="userSpaceOnUse"><stop stop-color="#E7E7F0"/><stop offset=".153" stop-color="#F9F9FB"/><stop offset=".266" stop-color="#fff"/><stop offset=".566" stop-color="#F3F3F8"/><stop offset=".996" stop-color="#E7E7F0"/></linearGradient><linearGradient id="ar" x1="235.378" x2="235.378" y1="183.999" y2="261.963" gradientUnits="userSpaceOnUse"><stop stop-color="#A7B0E0"/><stop offset="1" stop-color="#CACFEC"/></linearGradient></defs></svg>