<svg xmlns="http://www.w3.org/2000/svg" width="188" height="150" fill="none"><g clip-path="url(#a)"><path fill="#78C1F4" d="m129.289 35.036 30.407-17.362 28.416 16.044-31.127 17.363z"/><path fill="#1D7ECE" d="M188.11 33.719V56.12l-31.126 17.362V51.08z"/><path fill="#1D7ECE" d="m129.289 35.035 27.696 16.045v22.401l-27.696-16.045zM141.508 35.036l17.774-10.15 16.612 8.833-18.195 10.15z"/><path fill="url(#b)" d="m149.656 14.943 9.352-5.34 8.739 5.34-9.572 5.34z"/><path fill="#FBD008" d="M167.748 14.943V25.29l-9.572 5.34V20.283zM149.656 14.943l8.519 5.34V30.63l-8.519-5.34z"/><path stroke="#ACACAC" stroke-miterlimit="10" stroke-width=".675" d="m37.7 59.187 13.153 7.605c.74.427 1.65.435 2.398.019l14.05-7.823"/><path fill="url(#c)" d="m28.473 103.811 31.35 19.048c.526.299 1.605-.627 2.087-.845a1.74 1.74 0 0 0 1.037-1.602v-25.12a3.9 3.9 0 0 0-1.973-3.394L28.903 73.643a1.56 1.56 0 0 0-1.724.115c-.367.278-1.863.782-1.863 1.307l1.248 25.464c0 1.358.729 2.61 1.909 3.282"/><path fill="url(#d)" d="m26.842 104.726 31.847 18.129c1.172.666 2.628-.179 2.628-1.527v-25.12a3.9 3.9 0 0 0-1.973-3.394L27.273 74.56a1.565 1.565 0 0 0-2.34 1.359v25.527c0 1.357.729 2.61 1.91 3.281"/><path fill="url(#e)" d="M60.478 96.2v25.131c0 .329-.164.529-.293.658a.92.92 0 0 1-.64.256.8.8 0 0 1-.439-.128l-31.843-18.131a2.9 2.9 0 0 1-1.482-2.54V75.914c0-.438.366-.713.713-.713.129 0 .238.019.367.092L58.923 93.55a3.07 3.07 0 0 1 1.555 2.65"/><path fill="url(#f)" d="m.794 123.272 30.988 17.683c1.228.7 2.74.678 3.947-.059l22.345-13.648c.474-.29.687-.796.643-1.282-.038-.415.312-2.097-.102-2.333L26.27 106.786a2.95 2.95 0 0 0-3.001.045L.248 119.116c-.463.282-.205 2.212-.239 2.687a1.55 1.55 0 0 0 .784 1.469"/><path fill="url(#g)" d="m.794 123.172 30.988 17.683a3.88 3.88 0 0 0 3.947-.058l22.345-13.649c.474-.29.687-.796.643-1.281-.038-.416.312-2.098-.102-2.333L26.27 106.687a2.95 2.95 0 0 0-3.001.045L.248 119.016c-.463.283-.205 2.213-.239 2.688a1.55 1.55 0 0 0 .784 1.468"/><path fill="url(#h)" d="m.792 121.081 30.987 17.682a3.88 3.88 0 0 0 3.948-.058l22.344-13.649c.88-.537.86-1.821-.035-2.331l-31.77-18.13a2.95 2.95 0 0 0-3 .045L.751 118.392a1.56 1.56 0 0 0 .04 2.689"/><path fill="#fff" d="M58.07 124.961 35.728 138.61a3.88 3.88 0 0 1-3.948.058L.792 120.985a1.54 1.54 0 0 1-.776-1.288c-.01.538.242 1.08.776 1.384l30.987 17.683c1.228.7 2.741.678 3.948-.059l22.344-13.649c.455-.278.66-.754.637-1.22a1.33 1.33 0 0 1-.637 1.125"/><path fill="url(#i)" d="M59.345 92.815 27.275 74.56a1.54 1.54 0 0 0-1.642.068 1.55 1.55 0 0 1 1.53.006l32.07 18.256a3.9 3.9 0 0 1 1.973 3.393v25.12a1.73 1.73 0 0 1-.794 1.458c.527-.292.907-.845.907-1.532v-25.12a3.9 3.9 0 0 0-1.974-3.394" opacity=".47"/><path fill="#333551" d="m24.841 112.143-1.478.858-1.535-.885 1.478-.858zM22.75 110.937l-1.477.858-2.562-1.479 1.477-.857zM46.766 120.895l-.915.532-1.535-.886.915-.531zM44.606 119.648l-.915.532-1.547-.893.916-.531zM42.434 118.395l-.915.531-1.535-.885.915-.531zM40.274 117.148l-.915.531-1.547-.892.915-.531zM38.102 115.895l-.915.532-1.535-.886.915-.531zM36.255 116.421l-1.466.851-1.535-.885 1.466-.852zM35.934 114.642l-.915.531-1.535-.886.915-.531zM34.165 115.213l-1.466.851-1.535-.885 1.466-.851zM32.079 114.009l-1.466.851-1.535-.886 1.466-.851zM29.989 112.804l-1.466.851-1.535-.886 1.466-.851zM33.77 113.395l-.915.531-1.535-.885.916-.531zM31.602 112.143l-.915.531-1.535-.885.916-.531zM25.106 108.396l-.915.531-1.546-.892.915-.531zM23.736 109.193l-1.466.852-1.547-.893 1.467-.851zM27.27 109.642l-.915.531-1.535-.886.916-.531zM25.81 110.392l-1.467.851-1.534-.886 1.466-.851zM29.437 110.896l-.914.532-1.546-.893.914-.531zM27.904 111.598l-1.466.851-1.536-.885 1.467-.851zM38.348 117.626l-1.466.851-1.534-.885 1.466-.852zM44.618 121.242l-1.466.852-1.547-.893 1.467-.851zM42.528 120.036l-1.466.851-1.535-.885 1.466-.852zM40.438 118.83l-1.466.852-1.535-.885 1.467-.852zM46.704 122.446l-1.467.852-1.546-.892 1.466-.851zM48.798 123.652l-1.466.852-1.547-.893 1.466-.851zM43.638 122.985l-1.478.858-1.535-.885 1.478-.858zM41.872 128.712l-.74.429-1.581-.913.739-.429zM43.161 130.519l-.74.429-1.581-.913.739-.43zM40.953 129.245l-.738.429-1.582-.913.738-.429zM45.727 124.19l-1.477.859-1.535-.886 1.477-.858zM47.818 125.395l-1.479.859-1.534-.886 1.478-.858zM44.352 125.716l-1.477.858-1.559-.899 1.478-.859zM41.34 126.301l-1.465.851-1.559-.898 1.466-.852zM47.903 127.767l-1.478.858-3-1.73 1.479-.858zM45.894 128.932l-1.467.851-4.001-2.309 1.466-.851zM49.907 126.602l-1.478.858-1.535-.885 1.478-.858zM51.9 125.443l-1.468.851-2.56-1.478 1.465-.851zM41.547 121.78l-1.477.858-1.535-.885 1.478-.858zM35.935 120.862l-1.478.858-1.559-.899 1.479-.858zM21.195 112.359l-1.478.859-3.01-1.737 1.477-.858zM23.298 113.572l-1.478.858-1.547-.892 1.478-.858zM15.756 113.852l-1.478.858-1.583-.912 1.479-.859zM20.137 114.068l-1.467.852-3.955-2.282 1.467-.851zM17.904 115.091l-1.478.858-1.582-.913 1.478-.858zM22.247 115.288l-1.466.851-1.558-.899 1.466-.851zM20.052 116.33l-1.478.859-1.582-.914 1.478-.857zM24.372 116.514l-1.466.851-1.558-.898 1.466-.852zM22.748 117.882l-1.478.858-2.125-1.226 1.478-.858zM38.735 127.966l-.739.429-1.582-.913.74-.429zM37.372 126.322l-1.477.858-1.57-.907 1.477-.857zM35.189 125.062l-1.478.859-2.125-1.227 1.477-.858zM31.716 118.429l-1.478.858-1.547-.892 1.479-.858zM28.614 118.959l-1.466.852-1.558-.899 1.466-.851zM30.743 120.188l-1.466.851-1.57-.906 1.466-.852zM32.853 121.404l-1.466.852-1.559-.899 1.466-.851zM34.978 122.632l-1.467.851-1.558-.899 1.466-.852zM32.546 123.536l-1.478.858-9.244-5.333 1.478-.858zM33.817 119.641l-1.477.858-1.547-.893 1.478-.858zM35.29 118.17l-1.477.858-1.547-.892 1.478-.859zM37.384 119.374l-1.478.858-1.547-.891 1.478-.859zM39.458 120.573l-1.478.858-1.535-.885 1.479-.858zM33.204 116.963l-1.478.858-1.546-.892 1.477-.859z"/><path fill="url(#j)" d="m29.32 126.116-.198.12-7.519-4.322-7.162 4.163-.199-.119 7.361-4.282z"/><path fill="url(#k)" d="m29.126 126.235-7.162 4.163-7.519-4.322 7.162-4.164z"/><path fill="#333551" d="m26.93 113.349-1.477.858-1.535-.886 1.477-.858zM29.614 117.217l-1.477.858-1.547-.893 1.478-.858zM27.512 116.003l-1.477.858-1.558-.899 1.477-.858zM29.025 114.554l-1.479.858-1.534-.886 1.478-.858zM31.114 115.758l-1.478.858-1.534-.885 1.477-.858zM38.032 122.072l-1.478.858-1.546-.892 1.477-.858zM40.134 123.285l-1.478.858-1.547-.892 1.478-.858zM37.103 123.857l-1.466.851-1.57-.905 1.465-.852zM39.212 125.077l-1.466.851-1.559-.899 1.467-.851zM42.231 124.497l-1.478.858-1.546-.892 1.477-.858zM25.4 114.786l-1.479.859-1.546-.892 1.477-.858zM26.485 117.733l-1.466.852-1.558-.9 1.466-.851zM48.942 122.147l-.915.532-1.535-.886.915-.531zM53.274 124.647l-.915.532-1.535-.886.916-.531zM51.102 123.395l-.915.531-1.535-.885.916-.531z"/><path stroke="#F1F1F2" stroke-miterlimit="10" stroke-width=".077" d="m41.574 110.062-13.734-7.374V94.07l13.734 7.375zM27.84 94.951l13.734 7.374M27.84 96.045l13.734 7.374M27.84 97.139l13.734 7.374M27.84 98.234l13.734 7.375M27.84 99.328l13.734 7.375M27.84 100.424l13.734 7.375M27.84 101.518l13.734 7.375M28.727 94.547v8.617M29.645 95.04v8.616M30.559 95.531v8.618M31.477 96.023v8.618M32.395 96.516v8.617M33.313 97.008v8.617M34.23 97.5v8.617M35.145 97.992v8.618M36.063 98.484v8.618M36.98 98.979v8.618M37.898 99.47v8.618M38.813 99.963v8.617M39.73 100.453v8.618M40.648 100.947v8.618"/><path stroke="#F99714" stroke-miterlimit="10" stroke-width=".531" d="m27.84 101.937.885-.431.917.493.918-.115.503.493 1.951-.792.66.162 3.093-1.552 1.13 1.567.751.087 2.241 2.618.685-.291"/><path stroke="#F1F1F2" stroke-miterlimit="10" stroke-width=".077" d="M41.574 98.966 27.84 91.592v-8.617l13.734 7.374zM27.84 83.856l13.734 7.375M27.84 84.95l13.734 7.374M27.84 86.043l13.734 7.375M27.84 87.139l13.734 7.375M27.84 88.232l13.734 7.375M27.84 89.328l13.734 7.375M27.84 90.422l13.734 7.375M28.727 83.451v8.618M29.645 83.943v8.618M30.559 84.436v8.617M31.477 84.928v8.617M32.395 85.418v8.617M33.313 85.912v8.617M34.23 86.404v8.618M35.145 86.897v8.617M36.063 87.39v8.618M36.98 87.883V96.5M37.898 88.375v8.617M38.813 88.867v8.618M39.73 89.36v8.617M40.648 89.852v8.617"/><path fill="url(#l)" d="m30.342 91.767-.998-.535v-2.064l.997.536z"/><path fill="url(#m)" d="m31.845 92.574-.997-.536v-2.515l.997.535z"/><path fill="url(#n)" d="m33.345 93.38-.997-.535v-3.58l.997.536z"/><path fill="url(#o)" d="m34.845 94.187-.997-.536v-4.294l.997.535z"/><path fill="url(#p)" d="m36.345 94.993-.997-.535v-6.349l.997.535z"/><path fill="url(#q)" d="m37.845 95.798-.997-.535v-7.626l.997.535z"/><path fill="url(#r)" d="m39.345 96.604-.997-.535v-5.497l.997.536z"/><path fill="url(#s)" d="m39.348 97.787-10.004-5.37v-.632l10.004 5.371z"/><g fill="#fff" opacity=".68"><g opacity=".68"><path d="m58.92 99.989-12.867-7.322c-.091-.053-.166-.17-.166-.26v-.004c0-.091.075-.123.166-.072l12.867 7.322c.091.053.166.17.166.26v.004c0 .092-.075.124-.166.072M58.92 100.829l-15.058-8.568c-.092-.053-.167-.17-.167-.261v-.003c0-.092.075-.124.167-.072l15.057 8.569c.092.052.167.169.167.26v.004c0 .092-.075.124-.166.071M58.92 101.669 43.862 93.1c-.092-.052-.167-.169-.167-.26v-.003c0-.092.075-.124.167-.072l15.057 8.569c.092.052.167.169.167.26v.003c0 .092-.075.124-.166.072M58.92 102.509 43.862 93.94c-.092-.052-.167-.169-.167-.26v-.004c0-.09.075-.123.167-.071l15.057 8.568c.092.053.167.17.167.261v.003c0 .092-.075.124-.166.072M56.724 102.099 43.862 94.78c-.092-.052-.167-.17-.167-.26v-.004c0-.091.075-.123.167-.071l12.862 7.319c.092.053.167.169.167.261v.003c0 .091-.075.123-.167.071"/></g><g opacity=".68"><path d="M58.92 104.922 46.052 97.6c-.091-.052-.166-.169-.166-.26v-.003c0-.092.075-.124.166-.072l12.867 7.322c.091.052.166.169.166.26v.003c0 .092-.075.124-.166.072M58.92 105.763l-15.058-8.569c-.092-.052-.167-.17-.167-.26v-.004c0-.091.075-.123.167-.071l15.057 8.568c.092.053.167.17.167.261v.003c0 .092-.075.124-.166.072M58.92 106.603l-15.058-8.569c-.092-.053-.167-.17-.167-.26v-.004c0-.091.075-.123.167-.071l15.057 8.568c.092.053.167.169.167.261v.003c0 .092-.075.124-.166.072M58.92 107.442l-15.058-8.568c-.092-.053-.167-.17-.167-.26v-.004c0-.091.075-.123.167-.072l15.057 8.569c.092.053.167.169.167.261v.003c0 .091-.075.123-.166.071M56.724 107.031l-12.862-7.32c-.092-.052-.167-.168-.167-.26v-.003c0-.091.075-.123.167-.072l12.862 7.32c.092.052.167.169.167.26v.003c0 .093-.075.125-.167.072"/></g></g><g fill="#fff" opacity=".68"><g opacity=".68"><path d="m58.92 111.565-12.867-7.322c-.091-.053-.166-.169-.166-.261v-.003c0-.091.075-.123.166-.071l12.867 7.321c.091.053.166.169.166.261v.003c0 .091-.075.123-.166.072M58.92 112.405l-15.058-8.568c-.092-.053-.167-.169-.167-.261v-.003c0-.091.075-.123.167-.072l15.057 8.569c.092.053.167.169.167.261v.003c0 .092-.075.124-.166.071M58.92 113.243l-15.058-8.568c-.092-.053-.167-.17-.167-.261v-.003c0-.092.075-.124.167-.072l15.057 8.569c.092.052.167.169.167.261v.003c0 .092-.075.124-.166.071M58.92 114.083l-15.058-8.569c-.092-.052-.167-.169-.167-.26v-.003c0-.092.075-.124.167-.072l15.057 8.569c.092.052.167.169.167.26v.003c0 .092-.075.124-.166.072M56.724 113.674l-12.862-7.32c-.092-.052-.167-.169-.167-.26v-.003c0-.092.075-.124.167-.072l12.862 7.319c.092.053.167.17.167.261v.003c0 .092-.075.124-.167.072"/></g><g opacity=".68"><path d="m58.92 116.498-12.867-7.321c-.091-.053-.166-.17-.166-.261v-.003c0-.092.075-.124.166-.072l12.867 7.322c.091.052.166.169.166.261v.003c0 .092-.075.124-.166.071M58.92 117.339l-15.058-8.569c-.092-.052-.167-.169-.167-.26v-.003c0-.092.075-.124.167-.072l15.057 8.569c.092.052.167.169.167.26v.003c0 .092-.075.124-.166.072M58.92 118.179l-15.058-8.569c-.092-.052-.167-.169-.167-.261v-.003c0-.091.075-.123.167-.071l15.057 8.568c.092.053.167.17.167.261v.003c0 .092-.075.124-.166.072M58.92 119.017l-15.058-8.569c-.092-.053-.167-.169-.167-.261v-.003c0-.091.075-.123.167-.071l15.057 8.568c.092.053.167.169.167.261v.003c0 .092-.075.124-.166.072M56.724 118.607l-12.862-7.319c-.092-.053-.167-.169-.167-.261v-.003c0-.091.075-.123.167-.071l12.862 7.319c.092.052.167.169.167.261v.003c0 .091-.075.123-.167.071"/></g></g><path fill="#155284" d="M60.482 96.2v1.285l-34.697-19.56v-2.011c0-.438.366-.713.713-.713.128 0 .238.019.366.092L58.928 93.55a3.07 3.07 0 0 1 1.554 2.65"/><path fill="url(#t)" d="M28.292 77.7c0 .222-.18.3-.402.174-.222-.127-.402-.41-.402-.63 0-.223.18-.3.402-.174.222.127.402.409.402.63"/><path fill="url(#u)" d="M29.464 78.368c0 .222-.18.3-.402.174-.222-.127-.402-.41-.402-.63 0-.223.18-.3.402-.174.222.127.402.409.402.63"/><path fill="#fff" d="M30.64 79.036c0 .222-.18.3-.402.173-.222-.126-.402-.408-.402-.63s.18-.299.402-.173c.222.127.402.409.402.63"/><path fill="#78C1F4" d="m117.938 98.843 26.597-15.187L169.39 97.69l-27.226 15.188z"/><path fill="#1D7ECE" d="M169.391 97.691v19.596l-27.227 15.186v-19.594zM117.938 98.844l24.226 14.035v19.594l-24.226-14.035zM128.621 98.843l15.548-8.878 14.53 7.725-15.915 8.879z"/><path fill="url(#v)" d="m135.75 81.266 8.18-4.67 7.645 4.67-8.373 4.671z"/><path fill="#FBD008" d="M151.572 81.266v9.05l-8.373 4.67v-9.05z"/><path fill="#FBD008" d="m135.75 81.266 7.452 4.67v9.05l-7.452-4.67z"/><path fill="#212226" d="M115.358 66.588c-4.79-5.89-14.539-9.932-25.815-9.932S68.517 60.7 63.727 66.588h-3.164v8.217c0 10.023 12.974 18.15 28.98 18.15 16.005 0 28.98-8.126 28.98-18.15v-8.217z"/><path fill="#C0C3D8" d="M115.358 66.402c-4.79-5.889-14.539-9.931-25.815-9.931s-21.026 4.042-25.816 9.931h-3.164v8.217c0 10.024 12.974 18.15 28.98 18.15 16.005 0 28.98-8.126 28.98-18.15v-8.217z"/><path fill="#C0C3D8" d="M89.543 84.551c16.005 0 28.98-8.125 28.98-18.148s-12.975-18.15-28.98-18.15-28.98 8.126-28.98 18.15S73.537 84.55 89.543 84.55"/><path fill="#969BBC" d="M89.543 84.399c-15.965 0-28.908-8.085-28.974-18.073 0 .026-.007.05-.007.076 0 10.024 12.975 18.15 28.98 18.15s28.981-8.126 28.981-18.15c0-.026-.006-.05-.006-.076-.068 9.987-13.01 18.073-28.974 18.073"/><path stroke="#ACACAC" stroke-miterlimit="10" stroke-width=".675" d="m43.793 135.871 22.805 13.403a5.24 5.24 0 0 0 5.245.035l33.768-19.246c1.333-.76 1.325-2.682-.013-3.432L70.79 107.156c-1.048-.586-1.022-2.102.046-2.651l10.45-5.381a.942.942 0 0 0 .014-1.669l-14.2-7.609a.809.809 0 0 1 .056-1.453l1.99-.878V79.32l20.396-14.514"/><path stroke="#ACACAC" stroke-miterlimit="10" stroke-width=".675" d="m112.833 85.418 9.076 4.623c1.081.55 1.118 2.08.066 2.683l-26.184 14.998a1.416 1.416 0 0 0-.02 2.447l28.078 16.704a3.3 3.3 0 0 0 3.18.108l3.02-1.528M118.121 63.384l5.243-2.853a2.71 2.71 0 0 1 2.674.048l11.901 7.037a3.1 3.1 0 0 0 3.097.036l3.827-2.147M48.941 132.826l17.846 10.441a3.74 3.74 0 0 0 3.748.019l23.44-13.391c1.318-.752 1.327-2.647.017-3.412l-15.596-9.116"/><path stroke="#ACACAC" stroke-miterlimit="10" stroke-width=".477" d="M77.087 117.945c.943 0 1.708-.636 1.708-1.421 0-.784-.765-1.42-1.708-1.42-.944 0-1.708.636-1.708 1.42 0 .785.764 1.421 1.708 1.421ZM94.27 104.41c.944 0 1.708-.636 1.708-1.421s-.764-1.421-1.708-1.421c-.943 0-1.707.636-1.707 1.421s.764 1.421 1.707 1.421ZM50.29 85.275c.943 0 1.708-.636 1.708-1.42 0-.785-.765-1.421-1.708-1.421s-1.708.636-1.708 1.42c0 .785.765 1.421 1.708 1.421ZM55.837 87.357c.943 0 1.708-.636 1.708-1.42 0-.785-.765-1.421-1.708-1.421-.944 0-1.708.636-1.708 1.42 0 .785.765 1.421 1.708 1.421ZM53.708 64.806c.943 0 1.708-.636 1.708-1.42 0-.785-.765-1.421-1.708-1.421S52 62.6 52 63.385c0 .785.765 1.421 1.708 1.421ZM50.63 57.578c.943 0 1.708-.636 1.708-1.42 0-.786-.765-1.422-1.708-1.422-.944 0-1.708.636-1.708 1.421s.765 1.42 1.708 1.42ZM86.18 110.656c.944 0 1.708-.636 1.708-1.421 0-.784-.764-1.421-1.708-1.421-.943 0-1.707.637-1.707 1.421 0 .785.764 1.421 1.707 1.421ZM104.173 111.267c.943 0 1.708-.636 1.708-1.42 0-.785-.765-1.421-1.708-1.421-.944 0-1.708.636-1.708 1.421 0 .784.764 1.42 1.708 1.42ZM127.556 66.33c.943 0 1.707-.636 1.707-1.421s-.764-1.42-1.707-1.42-1.708.635-1.708 1.42.764 1.42 1.708 1.42ZM149.095 72.185c.943 0 1.707-.636 1.707-1.42 0-.785-.764-1.421-1.707-1.421s-1.708.636-1.708 1.42c0 .785.764 1.421 1.708 1.421Z"/><path stroke="#ACACAC" stroke-miterlimit="10" stroke-width=".675" d="m95.704 102.148 15.012-8.15a1.187 1.187 0 0 0 0-2.088l-4.509-2.443v-8.202l-5.159-2.438a.651.651 0 0 1-.052-1.15l3.846-2.262a.642.642 0 0 0-.048-1.131l-7.097-3.407a.731.731 0 0 1-.067-1.282l1.813-1.116a.499.499 0 0 0-.084-.891l-3.671-1.397M105.406 109.249l8.748-5.164a1.97 1.97 0 0 1 2.048.029l1.735 1.093"/><path stroke="#ACACAC" stroke-miterlimit="10" stroke-width=".675" d="m84.904 108.41-6.111-3.461 13.963-7.807-7.608-4.581v-7.557c0-.395.194-.765.52-.99l11.11-7.646a1.09 1.09 0 0 0-.222-1.915l-7.374-2.882a.737.737 0 0 1-.151-1.293l5.602-3.874M116.516 81.267l14.274-8.337a.93.93 0 0 0-.02-1.616l-6.931-3.813a.512.512 0 0 1 .005-.9l2.164-1.095M31.477 62.66l19.152 10.778v9.181M56.149 84.55l-.313-11.543 4.727-2.82v-4.89l6.173-3.449a2.33 2.33 0 0 1 2.366.057l5.099 3.177a1.88 1.88 0 0 0 1.997-.005l4.794-3.02M43.137 56.156l10.106 5.901M70.077 52.957l-5.082-2.902a3.29 3.29 0 0 0-3.21-.028L52 55.387M116.516 86.882l18.196-10.827a2.2 2.2 0 0 1 2.114-.077l1.268.636a1.77 1.77 0 0 0 1.692-.06l8.104-4.798"/><path fill="#B5BAD5" d="M63.121 3.662 69.417.006l22.796 2.711-6.296 3.655z"/><path fill="#B6BAD5" d="m108.642 29.923-.061 21.49a27 27 0 0 1-.11 2.327l-.02.198a23 23 0 0 1-.288 1.996q-.025.131-.052.261a19 19 0 0 1-.456 1.793q-.052.16-.106.318a16 16 0 0 1-.559 1.452c-.043.097-.079.2-.123.294-.261.558-.546 1.089-.861 1.583q-.017.024-.035.05a12 12 0 0 1-.937 1.254c-.103.123-.212.237-.321.354q-.397.43-.829.81c-.117.102-.231.207-.351.304-.405.325-.824.629-1.271.889l6.296-3.657c.447-.26.866-.563 1.271-.888.121-.097.234-.201.351-.304q.433-.38.83-.812c.108-.117.217-.231.32-.354.334-.394.65-.809.94-1.258q.016-.023.033-.046l.005-.008q.44-.69.807-1.462.025-.057.048-.114c.045-.094.081-.196.124-.293.124-.282.251-.56.361-.855.072-.194.133-.399.199-.599q.053-.157.104-.315c.026-.084.057-.163.082-.247q.157-.535.285-1.098c.034-.147.06-.3.09-.45l.052-.26c.022-.117.05-.23.07-.35q.089-.51.155-1.037c.025-.2.043-.407.063-.612l.02-.194q.012-.11.023-.221.042-.504.063-1.024.022-.505.024-1.023v-.061l.061-21.49z"/><path fill="#969BBC" d="m85.918 6.372 6.296-3.655 22.726 23.55-6.296 3.656z"/><path fill="url(#w)" d="m85.915 6.371 22.726 23.551-.061 21.49c-.025 9.005-4.288 14.853-11.135 15.31l-11.704.758-11.67-14.244c-6.822-8.341-11.038-19.081-11.012-28.086l.06-21.49z"/><path fill="url(#x)" d="M104.819 59.876c-1.578 2.967-4.157 4.713-7.5 4.933l-10.722.695L75.55 52.026c-6.532-8.02-10.587-18.31-10.57-26.872l.05-19.328 1.307.153-.05 17.259c-.018 8.561 4.037 18.853 10.57 26.855l11.045 13.479 10.723-.696c2.529-.169 4.633-1.22 6.193-3"/><path fill="url(#y)" d="M106.768 30.697 106.7 51.4c0 3.407-.645 6.256-1.816 8.46-.016 0-.016.017-.016.017-1.561 1.78-3.666 2.831-6.193 3l-10.724.696-11.045-13.48a47 47 0 0 1-3.648-5.136c-4.36-6.985-6.94-14.903-6.922-21.718l.051-17.26L85.051 8.2l20.903 21.65z"/><path fill="url(#z)" d="M80.273 44.827c-2.166 0-4.317-.24-6.4-.713-4.194-6.839-6.585-14.426-6.568-20.872l.047-16.18 17.251 2.054 20.21 20.93c-4.271 9.001-13.829 14.781-24.54 14.781" opacity=".32"/><path stroke="#F1F1F2" stroke-miterlimit="10" stroke-width=".643" d="m86.198 39.907-.569-.325c-2.02-1.152-3.656-3.722-3.656-5.74v-3.787l7.882 4.497v3.787c0 2.017-1.638 2.72-3.657 1.568Z"/><path stroke="#F1F1F2" stroke-miterlimit="10" stroke-width=".643" d="M85.913 26.567c-1.645-.94-2.98-.367-2.98 1.277v2.76l5.96 3.4v-2.76c0-1.644-1.335-3.738-2.98-4.677Z"/><path stroke="#F1F1F2" stroke-miterlimit="10" stroke-width=".965" d="m84.156 33.36.757 2.26c.129.385.494.7.754.651l2.614-.495"/><path stroke="#F1F1F2" stroke-miterlimit="10" stroke-width=".643" d="M92.17 42.467c2.97-1.994 2.58-7.78-.874-12.923s-8.662-7.696-11.632-5.703c-2.97 1.994-2.58 7.78.874 12.923S89.2 44.46 92.17 42.467Z"/><path fill="#fff" d="M85.916 6.372 63.12 3.662v.095l22.682 2.697 22.726 23.551-.061 21.49c-.013 4.532-1.11 8.25-3.061 10.897l-.027.04c-.062.082-.129.158-.191.24a12 12 0 0 1-.652.817c2.566-2.66 4.029-6.826 4.044-12.074l.061-21.49z"/><path fill="#78C1F4" d="M6.254 33.831 32.85 18.644 57.707 32.68 30.48 47.866z"/><path fill="#1D7ECE" d="M57.707 32.68v19.595L30.48 67.462V47.867zM6.254 33.832 30.48 47.867v19.595L6.254 53.426zM16.938 33.831l15.547-8.878 14.53 7.726L31.1 41.557z"/><path fill="url(#A)" d="m24.07 16.257 8.18-4.671 7.645 4.67-8.373 4.671z"/><path fill="#FBD008" d="M39.893 16.256v9.05l-8.373 4.67v-9.05z"/><path fill="#FBD008" d="m24.07 16.256 7.452 4.67v9.05l-7.452-4.67z"/></g><defs><linearGradient id="b" x1="149.656" x2="167.748" y1="14.943" y2="14.943" gradientUnits="userSpaceOnUse"><stop stop-color="#FBD008"/><stop offset="1" stop-color="#FFDF78"/></linearGradient><linearGradient id="c" x1="54.603" x2="35.116" y1="116.702" y2="79.426" gradientUnits="userSpaceOnUse"><stop stop-color="#3B3E5E"/><stop offset="1" stop-color="#626282"/></linearGradient><linearGradient id="d" x1="24.934" x2="61.317" y1="98.719" y2="98.719" gradientUnits="userSpaceOnUse"><stop stop-color="#3B3E5E"/><stop offset="1" stop-color="#626282"/></linearGradient><linearGradient id="e" x1="56.448" x2="35.381" y1="89.036" y2="104.299" gradientUnits="userSpaceOnUse"><stop stop-color="#1D7ECE"/><stop offset="1" stop-color="#185894"/></linearGradient><linearGradient id="f" x1="19.044" x2="54.655" y1="123.946" y2="123.897" gradientUnits="userSpaceOnUse"><stop stop-color="#3B3E5E"/><stop offset="1" stop-color="#626282"/></linearGradient><linearGradient id="g" x1="19.044" x2="54.655" y1="123.847" y2="123.798" gradientUnits="userSpaceOnUse"><stop stop-color="#CBCBD6"/><stop offset="1" stop-color="#F9FAF9"/></linearGradient><linearGradient id="h" x1="32.521" x2="26.429" y1="105.974" y2="136.541" gradientUnits="userSpaceOnUse"><stop stop-color="#CBCBD6"/><stop offset="1" stop-color="#F9FAF9"/></linearGradient><linearGradient id="i" x1="42.966" x2="62.582" y1="84.011" y2="118.165" gradientUnits="userSpaceOnUse"><stop stop-color="#3B3E5E"/><stop offset=".329" stop-color="#fff"/><stop offset="1" stop-color="#626282"/></linearGradient><linearGradient id="j" x1="14.242" x2="29.321" y1="123.956" y2="123.956" gradientUnits="userSpaceOnUse"><stop stop-color="#CBCBD6"/><stop offset="1" stop-color="#F9FAF9"/></linearGradient><linearGradient id="k" x1="25.69" x2="17.724" y1="124.721" y2="127.651" gradientUnits="userSpaceOnUse"><stop stop-color="#CBCBD6"/><stop offset="1" stop-color="#F9FAF9"/></linearGradient><linearGradient id="l" x1="29.843" x2="26.764" y1="85.108" y2="90.841" gradientUnits="userSpaceOnUse"><stop stop-color="#FBD008"/><stop offset="1" stop-color="#F88019"/></linearGradient><linearGradient id="m" x1="31.347" x2="28.268" y1="85.914" y2="91.647" gradientUnits="userSpaceOnUse"><stop stop-color="#FBD008"/><stop offset="1" stop-color="#F88019"/></linearGradient><linearGradient id="n" x1="32.846" x2="29.768" y1="86.721" y2="92.453" gradientUnits="userSpaceOnUse"><stop stop-color="#FBD008"/><stop offset="1" stop-color="#F88019"/></linearGradient><linearGradient id="o" x1="34.346" x2="31.268" y1="87.527" y2="93.26" gradientUnits="userSpaceOnUse"><stop stop-color="#FBD008"/><stop offset="1" stop-color="#F88019"/></linearGradient><linearGradient id="p" x1="35.846" x2="32.768" y1="88.334" y2="94.066" gradientUnits="userSpaceOnUse"><stop stop-color="#FBD008"/><stop offset="1" stop-color="#F88019"/></linearGradient><linearGradient id="q" x1="37.346" x2="34.268" y1="89.139" y2="94.871" gradientUnits="userSpaceOnUse"><stop stop-color="#FBD008"/><stop offset="1" stop-color="#F88019"/></linearGradient><linearGradient id="r" x1="38.846" x2="35.768" y1="89.945" y2="95.678" gradientUnits="userSpaceOnUse"><stop stop-color="#FBD008"/><stop offset="1" stop-color="#F88019"/></linearGradient><linearGradient id="s" x1="34.346" x2="31.265" y1="87.522" y2="93.259" gradientUnits="userSpaceOnUse"><stop stop-color="#FBD008"/><stop offset="1" stop-color="#F88019"/></linearGradient><linearGradient id="t" x1="27.488" x2="28.292" y1="77.243" y2="77.243" gradientUnits="userSpaceOnUse"><stop stop-color="#FBD008"/><stop offset="1" stop-color="#F88019"/></linearGradient><linearGradient id="u" x1="28.661" x2="29.464" y1="77.911" y2="77.911" gradientUnits="userSpaceOnUse"><stop stop-color="#1D7ECE"/><stop offset="1" stop-color="#185894"/></linearGradient><linearGradient id="v" x1="135.75" x2="151.575" y1="81.266" y2="81.266" gradientUnits="userSpaceOnUse"><stop stop-color="#FBD008"/><stop offset="1" stop-color="#FFDF78"/></linearGradient><linearGradient id="w" x1="62.102" x2="90.968" y1="72.196" y2="21.315" gradientUnits="userSpaceOnUse"><stop stop-color="#B5B9D0"/><stop offset="1" stop-color="#E6E7EF"/></linearGradient><linearGradient id="x" x1="106.552" x2="70.388" y1="31.75" y2="36.864" gradientUnits="userSpaceOnUse"><stop stop-color="#1D7ECE"/><stop offset="1" stop-color="#17538C"/></linearGradient><linearGradient id="y" x1="67.347" x2="98.458" y1="58.3" y2="15.057" gradientUnits="userSpaceOnUse"><stop stop-color="#1D7ECE"/><stop offset="1" stop-color="#4CA5ED"/></linearGradient><linearGradient id="z" x1="66.313" x2="91.254" y1="46.332" y2="11.665" gradientUnits="userSpaceOnUse"><stop stop-color="#fff"/><stop offset="1" stop-color="#3693DF"/></linearGradient><linearGradient id="A" x1="24.07" x2="39.895" y1="16.256" y2="16.256" gradientUnits="userSpaceOnUse"><stop stop-color="#FBD008"/><stop offset="1" stop-color="#FFDF78"/></linearGradient><clipPath id="a"><path fill="#fff" d="M0 0h188v150H0z"/></clipPath></defs></svg>