<svg xmlns="http://www.w3.org/2000/svg" width="263" height="210" fill="none"><g clip-path="url(#a)"><path fill="#78C1F4" d="m180.867 49.05 42.537-24.306 39.752 22.462-43.543 24.308z"/><path fill="#1D7ECE" d="M263.157 47.207V78.57l-43.544 24.306V71.515zM180.867 49.05l38.746 22.464v31.362l-38.746-22.464zM197.961 49.051l24.865-14.21 23.238 12.366-25.453 14.21z"/><path fill="url(#b)" d="m209.359 20.92 13.083-7.475 12.226 7.476-13.391 7.476z"/><path fill="#FBD008" d="M234.668 20.922v14.484l-13.391 7.475V28.398zM209.359 20.92l11.918 7.475V42.88l-11.918-7.476z"/><path stroke="#ACACAC" stroke-miterlimit="10" stroke-width=".675" d="m52.742 82.86 18.402 10.647c1.035.598 2.309.609 3.354.026l19.656-10.951"/><path fill="url(#c)" d="m39.834 145.336 43.857 26.667c.736.419 2.244-.877 2.92-1.182a2.44 2.44 0 0 0 1.45-2.243v-35.169a5.47 5.47 0 0 0-2.76-4.751l-44.866-25.557a2.18 2.18 0 0 0-2.411.161c-.514.39-2.606 1.095-2.606 1.83l1.745 35.65a5.29 5.29 0 0 0 2.67 4.594"/><path fill="url(#d)" d="m37.553 146.619 44.551 25.379c1.64.934 3.677-.25 3.677-2.137v-35.169a5.47 5.47 0 0 0-2.76-4.751l-44.865-25.557c-1.46-.831-3.273.223-3.273 1.902v35.739a5.29 5.29 0 0 0 2.67 4.594"/><path fill="url(#e)" d="M84.61 134.68v35.183c0 .461-.231.741-.41.921-.23.23-.563.358-.896.358-.205 0-.41-.051-.614-.179L38.143 145.58a4.06 4.06 0 0 1-2.073-3.556v-35.745c0-.614.513-.998.998-.998.18 0 .333.026.512.128l44.854 25.562c1.33.767 2.175 2.175 2.175 3.709"/><path fill="url(#f)" d="m1.111 172.582 43.35 24.756a5.43 5.43 0 0 0 5.522-.082l31.26-19.108a1.88 1.88 0 0 0 .899-1.794c-.054-.582.436-2.937-.142-3.266l-45.25-23.586a4.13 4.13 0 0 0-4.2.063L.35 166.763c-.648.396-.288 3.098-.335 3.763a2.17 2.17 0 0 0 1.096 2.056"/><path fill="url(#g)" d="m1.111 172.441 43.35 24.756a5.43 5.43 0 0 0 5.522-.082l31.26-19.108a1.88 1.88 0 0 0 .899-1.794c-.054-.581.436-2.936-.142-3.266l-45.25-23.585a4.12 4.12 0 0 0-4.2.063L.35 166.623c-.648.395-.288 3.097-.335 3.762a2.17 2.17 0 0 0 1.096 2.056"/><path fill="url(#h)" d="m1.11 169.514 43.35 24.756a5.43 5.43 0 0 0 5.522-.083l31.259-19.108c1.23-.752 1.203-2.549-.05-3.264l-44.443-25.381a4.12 4.12 0 0 0-4.199.063L1.054 165.749c-1.419.869-1.389 2.94.056 3.765"/><path fill="#fff" d="M81.239 174.947 49.98 194.055a5.43 5.43 0 0 1-5.522.083l-43.35-24.757c-.701-.4-1.053-1.095-1.085-1.803-.014.753.338 1.511 1.085 1.937l43.35 24.756a5.43 5.43 0 0 0 5.522-.082l31.259-19.108c.636-.39.922-1.056.89-1.709-.014.609-.299 1.214-.891 1.575"/><path fill="url(#i)" d="m83.02 129.941-44.864-25.557c-.777-.443-1.646-.341-2.297.095a2.16 2.16 0 0 1 2.14.009l44.865 25.558a5.47 5.47 0 0 1 2.76 4.75v35.169c0 .889-.46 1.611-1.11 2.04a2.43 2.43 0 0 0 1.267-2.145v-35.168a5.47 5.47 0 0 0-2.76-4.751" opacity=".47"/><path fill="#333551" d="m34.754 157.001-2.068 1.201-2.147-1.239 2.068-1.201zM31.83 155.315l-2.066 1.202-3.584-2.07 2.067-1.201zM65.427 169.256l-1.28.743-2.147-1.24 1.28-.743zM62.404 167.509l-1.279.744-2.164-1.249 1.28-.744zM59.364 165.754l-1.28.744-2.147-1.239 1.28-.743zM56.342 164.01l-1.28.744-2.164-1.249 1.28-.743zM53.301 162.256l-1.279.743-2.147-1.24 1.28-.743zM50.721 162.99l-2.05 1.192-2.148-1.24 2.051-1.192zM50.27 160.502l-1.28.743-2.146-1.24 1.28-.743zM47.8 161.301l-2.051 1.192-2.147-1.239 2.05-1.192zM44.878 159.615l-2.051 1.192-2.147-1.24 2.05-1.192zM41.956 157.927l-2.051 1.192-2.147-1.24 2.05-1.191zM47.244 158.754l-1.28.744-2.148-1.239 1.28-.743zM44.209 157.001l-1.28.743-2.148-1.239 1.28-.743zM35.12 151.756l-1.28.744-2.164-1.248 1.28-.744zM33.203 152.873l-2.05 1.192-2.165-1.25 2.052-1.192zM38.146 153.502l-1.28.743-2.147-1.24 1.28-.743zM36.104 154.55l-2.05 1.192-2.148-1.24 2.051-1.191zM41.18 155.257l-1.279.744-2.163-1.249 1.28-.744zM39.035 156.239l-2.051 1.192-2.148-1.239L36.888 155zM53.647 164.677l-2.05 1.192-2.148-1.24 2.051-1.191zM62.418 169.742l-2.05 1.192-2.165-1.25 2.051-1.192zM59.495 168.052l-2.051 1.192-2.147-1.24 2.05-1.192zM56.573 166.364l-2.051 1.192-2.147-1.239 2.05-1.192zM65.339 171.428l-2.051 1.192-2.163-1.248 2.05-1.192zM68.27 173.117l-2.051 1.192-2.164-1.25 2.05-1.192zM61.047 172.18l-2.068 1.202-2.147-1.239 2.068-1.202zM58.575 180.2l-1.034.601-2.213-1.278 1.034-.601zM60.38 182.728l-1.034.6-2.213-1.278 1.034-.601zM57.293 180.946l-1.033.601-2.213-1.278 1.033-.601zM63.972 173.869l-2.067 1.201-2.147-1.24 2.067-1.201zM66.895 175.556l-2.068 1.202-2.147-1.24 2.068-1.202zM62.044 176.005l-2.067 1.202-2.18-1.259 2.067-1.202zM57.833 176.824l-2.051 1.192-2.18-1.258 2.05-1.192zM67.013 178.874l-2.067 1.202-4.196-2.421 2.068-1.202zM64.204 180.506l-2.051 1.192-5.598-3.233 2.05-1.192zM69.82 177.245l-2.068 1.201-2.146-1.239 2.066-1.201zM72.604 175.624l-2.052 1.192-3.583-2.069 2.05-1.192zM58.124 170.494l-2.067 1.201-2.147-1.24 2.067-1.201zM50.272 169.207l-2.068 1.202-2.18-1.258 2.067-1.202zM29.654 157.306l-2.068 1.201-4.211-2.43 2.067-1.202zM32.594 159.003l-2.068 1.202-2.163-1.25 2.067-1.201zM22.043 159.394l-2.067 1.202-2.214-1.277 2.068-1.202zM28.17 159.698l-2.051 1.192-5.533-3.194 2.052-1.192zM25.047 161.13l-2.068 1.201-2.213-1.278 2.068-1.201zM31.126 161.406l-2.051 1.192-2.18-1.26 2.05-1.192zM28.055 162.865l-2.068 1.202-2.214-1.279 2.068-1.2zM34.098 163.121l-2.05 1.192-2.18-1.258 2.05-1.192zM31.822 165.038l-2.068 1.202-2.973-1.716 2.068-1.202zM54.189 179.153l-1.035.601-2.213-1.278 1.034-.601zM52.28 176.854l-2.067 1.201-2.197-1.269 2.068-1.2zM49.227 175.09l-2.067 1.201-2.972-1.716 2.066-1.202zM44.372 165.803l-2.067 1.202-2.164-1.249 2.068-1.201zM40.028 166.547l-2.051 1.192-2.18-1.258 2.05-1.192zM43.005 168.265l-2.051 1.192-2.196-1.269 2.05-1.192zM45.961 169.969l-2.05 1.192-2.18-1.258 2.05-1.192zM48.93 171.687l-2.05 1.192-2.18-1.259 2.05-1.192zM45.53 172.955l-2.067 1.201-12.932-7.466 2.067-1.202zM47.31 167.5l-2.068 1.201-2.164-1.249 2.068-1.202zM49.372 165.441l-2.067 1.201-2.164-1.249 2.068-1.202zM52.297 167.127l-2.068 1.202-2.163-1.249 2.067-1.201zM55.2 168.806l-2.069 1.202-2.147-1.24 2.068-1.202zM46.45 163.751l-2.068 1.202-2.163-1.25 2.067-1.201z"/><path fill="url(#j)" d="m41.02 176.564-.278.168-10.519-6.051-10.019 5.829-.278-.168 10.297-5.994z"/><path fill="url(#k)" d="m40.749 176.731-10.02 5.828-10.518-6.05 10.019-5.829z"/><path fill="#333551" d="m37.675 158.689-2.067 1.202-2.147-1.24 2.067-1.202zM41.43 164.105l-2.067 1.202-2.164-1.25 2.068-1.202zM38.49 162.408l-2.068 1.201-2.18-1.259 2.067-1.202zM40.606 160.377l-2.068 1.201-2.147-1.24 2.068-1.201zM43.526 162.063l-2.067 1.202-2.147-1.239 2.067-1.202zM53.208 170.904l-2.068 1.201-2.163-1.249 2.067-1.202zM56.145 172.601l-2.068 1.201-2.163-1.249 2.067-1.201zM51.904 173.402l-2.05 1.192-2.198-1.267 2.051-1.192zM54.856 175.111l-2.051 1.192-2.18-1.26 2.05-1.191zM59.083 174.299l-2.068 1.202-2.163-1.25 2.067-1.2zM35.532 160.702l-2.068 1.201-2.163-1.248 2.067-1.202zM37.055 164.829l-2.05 1.192-2.18-1.259 2.05-1.192zM68.465 171.009l-1.279.744-2.147-1.24 1.28-.743zM74.529 174.509l-1.28.744-2.147-1.24 1.28-.743zM71.49 172.754l-1.28.744-2.147-1.239 1.28-.743z"/><path stroke="#F1F1F2" stroke-miterlimit="10" stroke-width=".077" d="m58.158 154.087-19.213-10.323v-12.065l19.213 10.324zM38.945 132.932l19.213 10.324M38.945 134.465l19.213 10.324M38.945 135.996l19.213 10.324M38.945 137.529l19.213 10.325M38.945 139.061l19.213 10.325M38.945 140.594l19.213 10.325M38.945 142.125l19.213 10.325M40.184 132.365v12.065M41.469 133.055v12.064M42.75 133.744v12.064M44.031 134.434v12.064M45.316 135.123v12.064M46.602 135.812v12.065M47.883 136.5v12.064M49.164 137.191v12.065M50.45 137.879v12.064M51.73 138.57v12.066M53.016 139.26v12.064M54.297 139.949v12.065M55.578 140.637v12.064M56.863 141.328v12.064"/><path stroke="#F99714" stroke-miterlimit="10" stroke-width=".531" d="m38.945 142.712 1.24-.603 1.282.689 1.284-.16.704.69 2.73-1.109.922.227 4.327-2.173 1.58 2.194 1.052.122 3.135 3.665.957-.407"/><path stroke="#F1F1F2" stroke-miterlimit="10" stroke-width=".077" d="m58.158 138.552-19.213-10.324v-12.064l19.213 10.324zM38.945 117.396l19.213 10.325M38.945 118.93l19.213 10.325M38.945 120.461l19.213 10.325M38.945 121.994l19.213 10.325M38.945 123.525l19.213 10.325M38.945 125.059l19.213 10.325M38.945 126.59l19.213 10.325M40.184 116.83v12.064M41.469 117.52v12.064M42.75 118.209v12.064M44.031 118.898v12.065M45.316 119.586v12.064M46.602 120.277v12.065M47.883 120.965v12.065M49.164 121.656v12.065M50.45 122.346v12.064M51.73 123.035v12.064M53.016 123.725v12.064M54.297 124.414v12.064M55.578 125.104v12.064M56.863 125.793v12.064"/><path fill="url(#l)" d="m42.443 128.475-1.396-.749v-2.89l1.396.75z"/><path fill="url(#m)" d="m44.544 129.604-1.396-.75v-3.52l1.396.749z"/><path fill="url(#n)" d="m46.642 130.731-1.396-.749v-5.011l1.396.749z"/><path fill="url(#o)" d="m48.743 131.861-1.395-.751v-6.01l1.395.749z"/><path fill="url(#p)" d="m50.841 132.988-1.396-.749v-8.887l1.396.749z"/><path fill="url(#q)" d="m52.943 134.118-1.396-.751v-10.676l1.396.749z"/><path fill="url(#r)" d="m55.04 135.246-1.395-.751v-7.694l1.395.75z"/><path fill="url(#s)" d="m55.043 136.901-13.996-7.519v-.884l13.996 7.52z"/><g fill="#fff" opacity=".68"><g opacity=".68"><path d="m82.423 139.985-17.999-10.25c-.128-.074-.233-.237-.233-.365v-.005c0-.128.105-.172.233-.1l18 10.25c.127.074.232.237.232.365v.005c0 .129-.105.174-.233.1M82.423 141.16l-21.065-11.996c-.128-.073-.233-.236-.233-.365v-.004c0-.128.105-.173.233-.1l21.065 11.996c.128.074.232.237.232.365v.004c0 .129-.104.174-.232.1M82.423 142.336 61.358 130.34c-.128-.073-.233-.237-.233-.365v-.004c0-.128.105-.173.233-.1l21.065 11.996c.128.073.232.237.232.365v.004c0 .128-.104.173-.232.1M82.423 143.512l-21.065-11.996c-.128-.074-.233-.237-.233-.365v-.004c0-.128.105-.173.233-.101l21.065 11.996c.128.074.232.237.232.365v.005c0 .129-.104.174-.232.1M79.352 142.939l-17.994-10.247c-.128-.074-.233-.237-.233-.365v-.004c0-.129.105-.173.233-.101l17.994 10.247c.128.074.232.237.232.365v.005c0 .128-.104.172-.232.1"/></g><g opacity=".68"><path d="m82.423 146.891-17.999-10.25c-.128-.074-.233-.237-.233-.365v-.004c0-.128.105-.173.233-.101l18 10.251c.127.073.232.237.232.365v.004c0 .128-.105.173-.233.1M82.423 148.067l-21.065-11.996c-.128-.074-.233-.237-.233-.365v-.005c0-.128.105-.172.233-.1l21.065 11.996c.128.074.232.237.232.365v.004c0 .129-.104.174-.232.101M82.423 149.242l-21.065-11.996c-.128-.073-.233-.236-.233-.365v-.004c0-.128.105-.173.233-.1l21.065 11.996c.128.074.232.237.232.365v.004c0 .129-.104.174-.232.1M82.423 150.418l-21.065-11.996c-.128-.073-.233-.237-.233-.365v-.004c0-.128.105-.173.233-.1l21.065 11.996c.128.073.232.237.232.365v.004c0 .128-.104.173-.232.1M79.352 149.843l-17.994-10.247c-.128-.074-.233-.237-.233-.365v-.004c0-.128.105-.173.233-.1l17.994 10.247c.128.073.232.237.232.365v.004c0 .129-.104.174-.232.1"/></g></g><g fill="#fff" opacity=".68"><g opacity=".68"><path d="m82.423 156.192-17.999-10.25c-.128-.074-.233-.237-.233-.365v-.004c0-.129.105-.173.233-.101l18 10.251c.127.073.232.236.232.364v.005c0 .128-.105.173-.233.1M82.423 157.367l-21.065-11.996c-.128-.073-.233-.236-.233-.365v-.004c0-.128.105-.173.233-.1l21.065 11.996c.128.074.232.237.232.365v.004c0 .129-.104.174-.232.1M82.423 158.541l-21.065-11.996c-.128-.073-.233-.237-.233-.365v-.004c0-.128.105-.173.233-.1l21.065 11.996c.128.073.232.237.232.365v.004c0 .129-.104.174-.232.1M82.423 159.717l-21.065-11.996c-.128-.074-.233-.237-.233-.365v-.004c0-.128.105-.173.233-.1l21.065 11.996c.128.073.232.236.232.365v.004c0 .128-.104.173-.232.1M79.352 159.144l-17.994-10.247c-.128-.074-.233-.237-.233-.365v-.004c0-.128.105-.173.233-.101l17.994 10.247c.128.074.232.237.232.365v.005c0 .129-.104.174-.232.1"/></g><g opacity=".68"><path d="m82.423 163.098-17.999-10.25c-.128-.074-.233-.237-.233-.365v-.004c0-.128.105-.173.233-.101l18 10.251c.127.073.232.237.232.365v.004c0 .129-.105.174-.233.1M82.423 164.276 61.358 152.28c-.128-.074-.233-.237-.233-.365v-.005c0-.128.105-.172.233-.1l21.065 11.996c.128.074.232.237.232.365v.004c0 .128-.104.173-.232.101M82.423 165.451l-21.065-11.996c-.128-.073-.233-.236-.233-.365v-.004c0-.128.105-.173.233-.1l21.065 11.996c.128.074.232.237.232.365v.004c0 .129-.104.174-.232.1M82.423 166.625l-21.065-11.996c-.128-.073-.233-.237-.233-.365v-.004c0-.128.105-.173.233-.1l21.065 11.996c.128.073.232.237.232.365v.004c0 .129-.104.174-.232.1M79.352 166.052l-17.994-10.247c-.128-.074-.233-.237-.233-.365v-.004c0-.128.105-.173.233-.1l17.994 10.247c.128.073.232.237.232.365v.004c0 .128-.104.173-.232.1"/></g></g><path fill="#155284" d="M84.612 134.68v1.798l-48.538-27.384v-2.815c0-.614.512-.998.998-.998.18 0 .333.026.512.128l44.854 25.562c1.33.767 2.174 2.175 2.174 3.709"/><path fill="url(#t)" d="M39.582 108.781c0 .311-.252.419-.563.243-.31-.177-.562-.572-.562-.883 0-.31.252-.418.562-.242.31.177.563.572.563.882"/><path fill="url(#u)" d="M41.222 109.717c0 .31-.252.418-.562.242-.31-.177-.562-.572-.562-.882s.252-.419.562-.242.562.571.562.882"/><path fill="#fff" d="M42.867 110.651c0 .31-.252.418-.562.242-.311-.177-.563-.572-.563-.883 0-.31.252-.418.563-.242.31.177.562.572.562.883"/><path fill="#78C1F4" d="m164.988 138.379 37.208-21.262 34.772 19.648-38.088 21.263z"/><path fill="#1D7ECE" d="M236.971 136.766v27.433l-38.088 21.261v-27.432zM164.988 138.379l33.892 19.649v27.432l-33.892-19.649zM179.938 138.378l21.75-12.429 20.326 10.816-22.264 12.429z"/><path fill="url(#v)" d="m189.906 113.771 11.444-6.539 10.694 6.539-11.714 6.539z"/><path fill="#FBD008" d="M212.041 113.771v12.67l-11.713 6.539v-12.669z"/><path fill="#FBD008" d="m189.906 113.771 10.424 6.54v12.669l-10.424-6.539z"/><path fill="#212226" d="M161.382 93.222c-6.701-8.244-20.339-13.904-36.114-13.904-15.776 0-29.413 5.66-36.114 13.904h-4.427v11.504c0 14.034 18.15 25.41 40.541 25.41s40.541-11.376 40.541-25.41V93.222z"/><path fill="#C0C3D8" d="M161.382 92.963c-6.701-8.245-20.339-13.904-36.114-13.904-15.776 0-29.413 5.66-36.114 13.904h-4.427v11.504c0 14.033 18.15 25.409 40.541 25.409s40.541-11.376 40.541-25.409V92.963z"/><path fill="#C0C3D8" d="M125.268 118.371c22.39 0 40.541-11.376 40.541-25.408s-18.151-25.408-40.541-25.408S84.727 78.93 84.727 92.963c0 14.032 18.151 25.408 40.541 25.408"/><path fill="#969BBC" d="M125.268 118.159c-22.333 0-40.44-11.319-40.533-25.302 0 .037-.008.07-.008.107 0 14.033 18.15 25.409 40.541 25.409s40.541-11.376 40.541-25.409c0-.036-.008-.07-.008-.107-.094 13.982-18.2 25.302-40.533 25.302"/><path stroke="#ACACAC" stroke-miterlimit="10" stroke-width=".675" d="m61.266 190.218 31.902 18.765a7.32 7.32 0 0 0 7.337.049l47.241-26.945c1.864-1.064 1.853-3.755-.02-4.804l-48.693-27.265c-1.467-.82-1.43-2.943.064-3.712l14.62-7.534c.944-.486.956-1.834.019-2.335l-19.865-10.653c-.832-.446-.785-1.654.078-2.035l2.785-1.229v-11.471l28.531-20.32"/><path stroke="#ACACAC" stroke-miterlimit="10" stroke-width=".675" d="m157.845 119.586 12.698 6.472c1.512.77 1.564 2.912.092 3.756l-36.63 20.998c-1.317.754-1.333 2.648-.028 3.425l39.279 23.386a4.62 4.62 0 0 0 4.449.152l4.225-2.14M165.242 88.737l7.335-3.995a3.79 3.79 0 0 1 3.74.068l16.649 9.852a4.34 4.34 0 0 0 4.332.05l5.355-3.005M68.465 185.957l24.964 14.618a5.24 5.24 0 0 0 5.244.026l32.792-18.747c1.843-1.053 1.855-3.706.023-4.777l-21.818-12.763"/><path stroke="#ACACAC" stroke-miterlimit="10" stroke-width=".477" d="M107.838 165.123c1.32 0 2.39-.891 2.39-1.989s-1.07-1.989-2.39-1.989c-1.319 0-2.389.89-2.389 1.989 0 1.098 1.07 1.989 2.389 1.989ZM131.877 146.173c1.32 0 2.39-.89 2.39-1.989 0-1.098-1.07-1.989-2.39-1.989-1.319 0-2.389.891-2.389 1.989s1.07 1.989 2.389 1.989ZM70.354 119.384c1.32 0 2.39-.89 2.39-1.989 0-1.098-1.07-1.989-2.39-1.989s-2.39.891-2.39 1.989 1.07 1.989 2.39 1.989ZM78.112 122.3c1.32 0 2.389-.89 2.389-1.989 0-1.098-1.07-1.989-2.39-1.989-1.319 0-2.388.891-2.388 1.989s1.07 1.989 2.389 1.989ZM75.135 90.728c1.32 0 2.39-.89 2.39-1.989s-1.07-1.989-2.39-1.989-2.389.89-2.389 1.989 1.07 1.99 2.39 1.99ZM70.827 80.607c1.32 0 2.389-.89 2.389-1.99 0-1.098-1.07-1.988-2.39-1.988-1.319 0-2.388.89-2.388 1.989 0 1.098 1.07 1.989 2.389 1.989ZM120.561 154.919c1.32 0 2.389-.89 2.389-1.989 0-1.098-1.069-1.989-2.389-1.989s-2.389.891-2.389 1.989 1.07 1.989 2.389 1.989ZM145.733 155.773c1.319 0 2.389-.891 2.389-1.989s-1.07-1.989-2.389-1.989c-1.32 0-2.389.89-2.389 1.989 0 1.098 1.069 1.989 2.389 1.989ZM178.444 92.86c1.319 0 2.389-.89 2.389-1.988 0-1.099-1.07-1.99-2.389-1.99-1.32 0-2.389.891-2.389 1.99s1.069 1.989 2.389 1.989ZM208.577 101.058c1.319 0 2.389-.89 2.389-1.989 0-1.098-1.07-1.989-2.389-1.989-1.32 0-2.389.89-2.389 1.99 0 1.098 1.069 1.988 2.389 1.988Z"/><path stroke="#ACACAC" stroke-miterlimit="10" stroke-width=".675" d="m133.887 143.007 21.001-11.41c1.159-.63 1.158-2.293-.001-2.923l-6.308-3.42V113.77l-7.217-3.412a.912.912 0 0 1-.073-1.611l5.38-3.165a.899.899 0 0 0-.066-1.585l-9.928-4.77a1.024 1.024 0 0 1-.094-1.794l2.537-1.563a.699.699 0 0 0-.118-1.247l-5.137-1.955M147.457 152.948l12.237-7.228a2.75 2.75 0 0 1 2.865.041l2.428 1.529"/><path stroke="#ACACAC" stroke-miterlimit="10" stroke-width=".675" d="m118.775 151.773-8.548-4.846 19.533-10.929-10.644-6.414v-10.579c0-.553.272-1.072.728-1.385l15.542-10.706c1.008-.695.83-2.235-.311-2.681l-10.315-4.034a1.033 1.033 0 0 1-.211-1.811l7.837-5.423M163 113.773l19.969-11.672a1.301 1.301 0 0 0-.029-2.263l-9.695-5.338a.717.717 0 0 1 .006-1.26l3.029-1.533M44.035 87.723l26.793 15.089v12.853M78.55 118.371l-.437-16.162 6.613-3.947v-6.847l8.636-4.828a3.26 3.26 0 0 1 3.31.08l7.132 4.448a2.63 2.63 0 0 0 2.795-.007l6.705-4.23M60.344 78.62l14.137 8.26M98.03 74.14l-7.108-4.062a4.6 4.6 0 0 0-4.49-.04l-13.69 7.505M163 121.634l25.456-15.159a3.08 3.08 0 0 1 2.957-.106l1.773.89a2.47 2.47 0 0 0 2.368-.084l11.337-6.718"/><path fill="#B5BAD5" d="m88.305 5.127 8.807-5.12 31.89 3.796-8.808 5.118z"/><path fill="#B6BAD5" d="m151.989 41.893-.086 30.086a37 37 0 0 1-.153 3.258l-.029.277a31 31 0 0 1-.403 2.795q-.035.182-.072.365-.267 1.305-.639 2.51-.072.224-.148.444a22 22 0 0 1-.782 2.034c-.059.136-.111.279-.173.41a19 19 0 0 1-1.203 2.217c-.016.025-.034.045-.049.07a17 17 0 0 1-1.311 1.756c-.145.172-.297.332-.449.495q-.554.603-1.16 1.134c-.163.143-.323.29-.491.426-.566.455-1.153.88-1.779 1.244l8.808-5.118a14.4 14.4 0 0 0 1.779-1.245c.169-.135.328-.281.491-.425q.605-.533 1.161-1.137c.15-.163.303-.323.448-.495.466-.552.909-1.132 1.315-1.762.013-.022.031-.041.045-.064l.008-.01q.615-.966 1.129-2.048c.024-.051.044-.108.067-.16.062-.131.113-.274.173-.41.174-.394.351-.783.506-1.197.1-.271.185-.558.277-.838.049-.147.101-.292.146-.442.037-.117.08-.227.115-.345q.219-.75.399-1.537c.047-.206.083-.42.126-.63l.072-.363c.031-.165.07-.324.098-.491q.123-.713.217-1.453c.035-.28.06-.57.088-.855q.015-.135.028-.272c.01-.105.024-.205.032-.31q.059-.704.089-1.433.03-.706.033-1.433v-.085l.085-30.086z"/><path fill="#969BBC" d="m120.195 8.92 8.808-5.117 31.792 32.971-8.807 5.118z"/><path fill="url(#w)" d="m120.194 8.92 31.792 32.972-.085 30.086c-.035 12.607-5.999 20.794-15.578 21.432l-16.373 1.062-16.326-19.94c-9.544-11.678-15.441-26.714-15.405-39.32l.085-30.087z"/><path fill="url(#x)" d="M146.638 83.826c-2.207 4.154-5.815 6.598-10.491 6.907l-15.001.973-15.452-18.87c-9.139-11.227-14.811-25.634-14.788-37.62l.072-27.06 1.828.214-.072 24.163c-.023 11.986 5.65 26.393 14.788 37.597L122.974 89l15.001-.973c3.537-.237 6.48-1.709 8.663-4.201"/><path fill="url(#y)" d="m149.366 42.977-.095 28.982c0 4.77-.902 8.759-2.54 11.845-.023 0-.023.023-.023.023-2.183 2.493-5.127 3.964-8.664 4.201l-15 .973-15.453-18.87a66 66 0 0 1-5.102-7.192c-6.101-9.779-9.709-20.863-9.684-30.405l.071-24.163 26.109 3.11 29.243 30.31z"/><path fill="url(#z)" d="M112.298 62.757c-3.03 0-6.039-.336-8.952-.999-5.868-9.574-9.213-20.195-9.19-29.22l.066-22.651 24.133 2.874 28.273 29.303c-5.975 12.601-19.345 20.693-34.33 20.693" opacity=".32"/><path stroke="#F1F1F2" stroke-miterlimit="10" stroke-width=".643" d="m120.59 55.87-.795-.455c-2.825-1.614-5.115-5.212-5.115-8.036v-5.303l11.027 6.296v5.302c-.001 2.825-2.292 3.807-5.117 2.195Z"/><path stroke="#F1F1F2" stroke-miterlimit="10" stroke-width=".643" d="M120.191 37.193c-2.301-1.315-4.168-.513-4.168 1.788v3.863l8.337 4.76v-3.862c-.001-2.303-1.867-5.234-4.169-6.55Z"/><path stroke="#F1F1F2" stroke-miterlimit="10" stroke-width=".965" d="m117.734 46.701 1.059 3.164c.18.54.691.982 1.055.912l3.656-.693"/><path stroke="#F1F1F2" stroke-miterlimit="10" stroke-width=".643" d="M128.942 59.453c4.156-2.791 3.608-10.891-1.224-18.092s-12.116-10.775-16.272-7.983c-4.155 2.79-3.608 10.89 1.224 18.091 4.831 7.2 12.116 10.775 16.272 7.984Z"/><path fill="#fff" d="M120.193 8.921 88.305 5.127v.132l31.73 3.777 31.793 32.971-.086 30.086c-.018 6.345-1.552 11.551-4.282 15.255l-.038.057c-.087.115-.18.222-.267.335-.295.394-.591.786-.913 1.145 3.591-3.725 5.638-9.557 5.658-16.904l.085-30.086z"/><path fill="#78C1F4" d="m8.75 47.365 37.208-21.261 34.771 19.648-38.088 21.262z"/><path fill="#1D7ECE" d="M80.729 45.752v27.433L42.64 94.447V67.014z"/><path fill="#1D7ECE" d="m8.75 47.365 33.891 19.65v27.432L8.75 74.797zM23.7 47.365l21.75-12.43 20.326 10.816-22.264 12.43z"/><path fill="url(#A)" d="m33.672 22.76 11.443-6.54 10.694 6.54-11.713 6.539z"/><path fill="#FBD008" d="M55.807 22.76v12.67l-11.713 6.538v-12.67z"/><path fill="#FBD008" d="m33.672 22.76 10.424 6.539v12.67l-10.424-6.54z"/></g><defs><linearGradient id="b" x1="209.359" x2="234.668" y1="20.921" y2="20.921" gradientUnits="userSpaceOnUse"><stop stop-color="#FBD008"/><stop offset="1" stop-color="#FFDF78"/></linearGradient><linearGradient id="c" x1="76.388" x2="49.094" y1="163.383" y2="111.215" gradientUnits="userSpaceOnUse"><stop stop-color="#3B3E5E"/><stop offset="1" stop-color="#626282"/></linearGradient><linearGradient id="d" x1="34.883" x2="85.781" y1="138.209" y2="138.209" gradientUnits="userSpaceOnUse"><stop stop-color="#3B3E5E"/><stop offset="1" stop-color="#626282"/></linearGradient><linearGradient id="e" x1="78.971" x2="49.484" y1="124.65" y2="145.997" gradientUnits="userSpaceOnUse"><stop stop-color="#1D7ECE"/><stop offset="1" stop-color="#185894"/></linearGradient><linearGradient id="f" x1="26.642" x2="76.459" y1="173.526" y2="173.457" gradientUnits="userSpaceOnUse"><stop stop-color="#3B3E5E"/><stop offset="1" stop-color="#626282"/></linearGradient><linearGradient id="g" x1="26.642" x2="76.459" y1="173.385" y2="173.317" gradientUnits="userSpaceOnUse"><stop stop-color="#CBCBD6"/><stop offset="1" stop-color="#F9FAF9"/></linearGradient><linearGradient id="h" x1="45.497" x2="36.963" y1="148.364" y2="191.155" gradientUnits="userSpaceOnUse"><stop stop-color="#CBCBD6"/><stop offset="1" stop-color="#F9FAF9"/></linearGradient><linearGradient id="i" x1="60.108" x2="87.581" y1="117.615" y2="165.413" gradientUnits="userSpaceOnUse"><stop stop-color="#3B3E5E"/><stop offset=".329" stop-color="#fff"/><stop offset="1" stop-color="#626282"/></linearGradient><linearGradient id="j" x1="19.926" x2="41.02" y1="173.54" y2="173.54" gradientUnits="userSpaceOnUse"><stop stop-color="#CBCBD6"/><stop offset="1" stop-color="#F9FAF9"/></linearGradient><linearGradient id="k" x1="35.942" x2="24.796" y1="174.612" y2="178.708" gradientUnits="userSpaceOnUse"><stop stop-color="#CBCBD6"/><stop offset="1" stop-color="#F9FAF9"/></linearGradient><linearGradient id="l" x1="41.745" x2="37.434" y1="119.152" y2="127.175" gradientUnits="userSpaceOnUse"><stop stop-color="#FBD008"/><stop offset="1" stop-color="#F88019"/></linearGradient><linearGradient id="m" x1="43.846" x2="39.535" y1="120.281" y2="128.304" gradientUnits="userSpaceOnUse"><stop stop-color="#FBD008"/><stop offset="1" stop-color="#F88019"/></linearGradient><linearGradient id="n" x1="45.944" x2="41.633" y1="121.408" y2="129.431" gradientUnits="userSpaceOnUse"><stop stop-color="#FBD008"/><stop offset="1" stop-color="#F88019"/></linearGradient><linearGradient id="o" x1="48.045" x2="43.734" y1="122.537" y2="130.56" gradientUnits="userSpaceOnUse"><stop stop-color="#FBD008"/><stop offset="1" stop-color="#F88019"/></linearGradient><linearGradient id="p" x1="50.143" x2="45.832" y1="123.666" y2="131.688" gradientUnits="userSpaceOnUse"><stop stop-color="#FBD008"/><stop offset="1" stop-color="#F88019"/></linearGradient><linearGradient id="q" x1="52.245" x2="47.933" y1="124.794" y2="132.817" gradientUnits="userSpaceOnUse"><stop stop-color="#FBD008"/><stop offset="1" stop-color="#F88019"/></linearGradient><linearGradient id="r" x1="54.342" x2="50.031" y1="125.923" y2="133.945" gradientUnits="userSpaceOnUse"><stop stop-color="#FBD008"/><stop offset="1" stop-color="#F88019"/></linearGradient><linearGradient id="s" x1="48.045" x2="43.73" y1="122.529" y2="130.558" gradientUnits="userSpaceOnUse"><stop stop-color="#FBD008"/><stop offset="1" stop-color="#F88019"/></linearGradient><linearGradient id="t" x1="38.457" x2="39.581" y1="108.142" y2="108.142" gradientUnits="userSpaceOnUse"><stop stop-color="#FBD008"/><stop offset="1" stop-color="#F88019"/></linearGradient><linearGradient id="u" x1="40.099" x2="41.222" y1="109.076" y2="109.076" gradientUnits="userSpaceOnUse"><stop stop-color="#1D7ECE"/><stop offset="1" stop-color="#185894"/></linearGradient><linearGradient id="v" x1="189.906" x2="212.044" y1="113.771" y2="113.771" gradientUnits="userSpaceOnUse"><stop stop-color="#FBD008"/><stop offset="1" stop-color="#FFDF78"/></linearGradient><linearGradient id="w" x1="86.881" x2="127.308" y1="101.075" y2="29.868" gradientUnits="userSpaceOnUse"><stop stop-color="#B5B9D0"/><stop offset="1" stop-color="#E6E7EF"/></linearGradient><linearGradient id="x" x1="149.062" x2="98.469" y1="44.449" y2="51.598" gradientUnits="userSpaceOnUse"><stop stop-color="#1D7ECE"/><stop offset="1" stop-color="#17538C"/></linearGradient><linearGradient id="y" x1="94.219" x2="137.785" y1="81.621" y2="21.113" gradientUnits="userSpaceOnUse"><stop stop-color="#1D7ECE"/><stop offset="1" stop-color="#4CA5ED"/></linearGradient><linearGradient id="z" x1="92.768" x2="127.695" y1="64.864" y2="16.355" gradientUnits="userSpaceOnUse"><stop stop-color="#fff"/><stop offset="1" stop-color="#3693DF"/></linearGradient><linearGradient id="A" x1="33.672" x2="55.81" y1="22.759" y2="22.759" gradientUnits="userSpaceOnUse"><stop stop-color="#FBD008"/><stop offset="1" stop-color="#FFDF78"/></linearGradient><clipPath id="a"><path fill="#fff" d="M0 0h263v210H0z"/></clipPath></defs></svg>