<svg width="40" height="40" viewBox="0 0 40 40" fill="none" xmlns="http://www.w3.org/2000/svg">
<g clip-path="url(#clip0_122_51777)">
<g opacity="0.08">
<path d="M20.0008 39.9996C30.5033 39.9996 39.0172 31.4857 39.0172 20.9832C39.0172 10.4807 30.5033 1.9668 20.0008 1.9668C9.49831 1.9668 0.984375 10.4807 0.984375 20.9832C0.984375 31.4857 9.49831 39.9996 20.0008 39.9996Z" fill="black"/>
</g>
<path d="M20 39.3438C30.8645 39.3438 39.6719 30.5364 39.6719 19.6719C39.6719 8.8074 30.8645 0 20 0C9.13552 0 0.328125 8.8074 0.328125 19.6719C0.328125 30.5364 9.13552 39.3438 20 39.3438Z" fill="url(#paint0_linear_122_51777)"/>
<g opacity="0.08">
<path d="M20.0002 0C9.13531 0 0.328125 8.80719 0.328125 19.6721C0.328125 30.537 9.13531 39.3443 20.0002 39.3443C30.8652 39.3443 39.6723 30.5371 39.6723 19.6722C39.6723 8.80727 30.8652 0 20.0002 0ZM20.0002 38.0328C9.87633 38.0328 1.63961 29.7961 1.63961 19.6722C1.63961 9.54828 9.87633 1.31148 20.0002 1.31148C30.1241 1.31148 38.3609 9.5482 38.3609 19.6721C38.3609 29.796 30.1241 38.0328 20.0002 38.0328Z" fill="url(#paint1_linear_122_51777)"/>
</g>
<g opacity="0.16">
<path d="M20.0002 0C9.13531 0 0.328125 8.80719 0.328125 19.6721C0.328125 30.537 9.13531 39.3443 20.0002 39.3443C30.8652 39.3443 39.6723 30.5371 39.6723 19.6722C39.6723 8.80727 30.8652 0 20.0002 0ZM20.0002 38.6885C9.49797 38.6885 0.983828 30.1745 0.983828 19.6721C0.983828 9.16977 9.49797 0.655703 20.0002 0.655703C30.5025 0.655703 39.0166 9.16977 39.0166 19.6721C39.0166 30.1745 30.5025 38.6885 20.0002 38.6885Z" fill="black"/>
</g>
<path d="M19.9996 37.3762C29.7776 37.3762 37.7043 29.4495 37.7043 19.6715C37.7043 9.89345 29.7776 1.9668 19.9996 1.9668C10.2216 1.9668 2.29492 9.89345 2.29492 19.6715C2.29492 29.4495 10.2216 37.3762 19.9996 37.3762Z" fill="url(#paint2_linear_122_51777)"/>
<g opacity="0.16">
<path d="M19.9998 1.9668C10.2215 1.9668 2.29492 9.89336 2.29492 19.6717C2.29492 29.4501 10.2215 37.3766 19.9998 37.3766C29.7782 37.3766 37.7048 29.4501 37.7048 19.6717C37.7048 9.89336 29.7782 1.9668 19.9998 1.9668ZM19.9998 36.7209C10.5841 36.7209 2.9507 29.0875 2.9507 19.6718C2.9507 10.2561 10.5841 2.62258 19.9998 2.62258C29.4155 2.62258 37.049 10.256 37.049 19.6717C37.049 29.0874 29.4155 36.7209 19.9998 36.7209Z" fill="url(#paint3_linear_122_51777)"/>
</g>
<g opacity="0.36">
<path d="M20 6.50285C19.849 6.50285 19.7266 6.38043 19.7266 6.22941V3.60645C19.7266 3.45543 19.849 3.33301 20 3.33301C20.151 3.33301 20.2734 3.45543 20.2734 3.60645V6.22941C20.2734 6.38043 20.151 6.50285 20 6.50285Z" fill="white"/>
<path d="M18.0732 5.31722C17.9381 5.31722 17.8206 5.21707 17.8024 5.07949L17.6313 3.7798C17.6116 3.63004 17.717 3.49269 17.8667 3.473C18.016 3.45363 18.1538 3.55871 18.1735 3.7084L18.3446 5.00808C18.3643 5.15785 18.2589 5.29519 18.1092 5.31488C18.0972 5.31644 18.0852 5.31722 18.0732 5.31722Z" fill="white"/>
<path d="M14.354 6.3145C14.2467 6.3145 14.145 6.25098 14.1013 6.14567L13.599 4.93387C13.5412 4.79434 13.6074 4.63442 13.7469 4.57653C13.8866 4.5188 14.0465 4.58497 14.1043 4.72442L14.6065 5.93622C14.6643 6.07575 14.5982 6.23567 14.4586 6.29356C14.4243 6.30778 14.3889 6.3145 14.354 6.3145Z" fill="white"/>
<path d="M11.0176 8.24076C10.9355 8.24076 10.8544 8.20397 10.8005 8.13381L10.0019 7.09319C9.9099 6.97342 9.93248 6.80178 10.0523 6.70983C10.1721 6.61795 10.3438 6.64045 10.4357 6.7603L11.2344 7.80092C11.3263 7.92069 11.3037 8.09233 11.1839 8.18428C11.1343 8.22241 11.0757 8.24076 11.0176 8.24076Z" fill="white"/>
<path d="M8.29443 10.9637C8.23631 10.9637 8.17779 10.9453 8.12818 10.9071L7.08748 10.1085C6.96763 10.0165 6.94506 9.84488 7.03701 9.72512C7.12896 9.60535 7.30068 9.58277 7.42037 9.67465L8.46107 10.4733C8.58092 10.5653 8.60349 10.7369 8.51154 10.8567C8.45771 10.9269 8.37654 10.9637 8.29443 10.9637Z" fill="white"/>
<path d="M6.36802 14.2994C6.33318 14.2994 6.29771 14.2927 6.26341 14.2784L5.05161 13.7762C4.91208 13.7184 4.84591 13.5584 4.90372 13.4188C4.96154 13.2794 5.12146 13.213 5.26107 13.2709L6.47286 13.7732C6.61239 13.831 6.67857 13.991 6.62075 14.1305C6.57708 14.2358 6.47529 14.2994 6.36802 14.2994Z" fill="white"/>
<path d="M5.3723 18.0197C5.36043 18.0197 5.3484 18.0189 5.33629 18.0174L4.0366 17.8462C3.88684 17.8265 3.78145 17.6891 3.80121 17.5394C3.8209 17.3897 3.95824 17.2849 4.10801 17.304L5.4077 17.4752C5.55746 17.4949 5.66285 17.6323 5.64309 17.782C5.62496 17.9195 5.50738 18.0197 5.3723 18.0197Z" fill="white"/>
<path d="M16.5203 6.96064C16.3996 6.96064 16.2891 6.8801 16.2564 6.75791L15.5777 4.22416C15.5387 4.0783 15.6252 3.9283 15.7711 3.88924C15.9169 3.85025 16.0669 3.93666 16.106 4.0826L16.7847 6.61635C16.8238 6.76221 16.7372 6.91221 16.5913 6.95127C16.5676 6.9576 16.5438 6.96064 16.5203 6.96064Z" fill="white"/>
<path d="M13.2786 8.30372C13.1841 8.30372 13.0922 8.25473 13.0415 8.167L11.73 5.89551C11.6546 5.76473 11.6993 5.59754 11.8301 5.522C11.9609 5.44661 12.1281 5.49122 12.2036 5.62208L13.5151 7.89356C13.5906 8.02434 13.5458 8.19153 13.415 8.26708C13.372 8.29184 13.3249 8.30372 13.2786 8.30372Z" fill="white"/>
<path d="M10.4931 10.4394C10.4231 10.4394 10.3531 10.4126 10.2998 10.3593L8.44533 8.5049C8.33854 8.39811 8.33854 8.22498 8.44533 8.11818C8.55213 8.01139 8.72525 8.01139 8.83205 8.11818L10.6865 9.97256C10.7933 10.0794 10.7933 10.2525 10.6865 10.3593C10.6331 10.4126 10.5631 10.4394 10.4931 10.4394Z" fill="white"/>
<path d="M8.35724 13.2246C8.31084 13.2246 8.26389 13.2128 8.22076 13.1879L5.94928 11.8764C5.81849 11.8009 5.77365 11.6337 5.8492 11.5029C5.92475 11.3721 6.09201 11.3274 6.22271 11.4028L8.4942 12.7143C8.62498 12.7899 8.66982 12.9571 8.59428 13.0878C8.54373 13.1756 8.45178 13.2246 8.35724 13.2246Z" fill="white"/>
<path d="M7.01445 16.4659C6.99109 16.4659 6.96727 16.4629 6.94352 16.4565L4.40977 15.7779C4.26391 15.7388 4.17734 15.5889 4.21641 15.4429C4.25547 15.2972 4.40516 15.2106 4.55133 15.2496L7.08508 15.9282C7.23094 15.9673 7.3175 16.1172 7.27844 16.2632C7.2457 16.3853 7.13524 16.4659 7.01445 16.4659Z" fill="white"/>
<path d="M6.55656 19.9453H3.93359C3.78258 19.9453 3.66016 19.8229 3.66016 19.6719C3.66016 19.5209 3.78258 19.3984 3.93359 19.3984H6.55656C6.70758 19.3984 6.83 19.5209 6.83 19.6719C6.83 19.8229 6.70758 19.9453 6.55656 19.9453Z" fill="white"/>
<path d="M4.07002 22.0422C3.93487 22.0422 3.81737 21.9421 3.79924 21.8044C3.77955 21.6547 3.88494 21.5173 4.03463 21.4976L5.33432 21.3266C5.4844 21.307 5.62143 21.4122 5.64111 21.5619C5.6608 21.7117 5.55541 21.8491 5.40572 21.8687L4.10604 22.0398C4.09393 22.0414 4.0819 22.0422 4.07002 22.0422Z" fill="white"/>
<path d="M5.15646 26.0932C5.04911 26.0932 4.94739 26.0297 4.90372 25.9244C4.84591 25.785 4.91208 25.625 5.05161 25.5671L6.26341 25.0649C6.4031 25.007 6.56294 25.0733 6.62075 25.2128C6.67857 25.3523 6.61239 25.5123 6.47286 25.5701L5.26107 26.0724C5.22685 26.0865 5.1913 26.0932 5.15646 26.0932Z" fill="white"/>
<path d="M7.25217 29.7255C7.17006 29.7255 7.08888 29.6887 7.03506 29.6185C6.9431 29.4987 6.96568 29.3271 7.08552 29.2352L8.12623 28.4365C8.24607 28.3444 8.41771 28.367 8.50959 28.4869C8.60154 28.6067 8.57896 28.7784 8.45912 28.8703L7.41842 29.669C7.36881 29.7071 7.31029 29.7255 7.25217 29.7255Z" fill="white"/>
<path d="M10.2186 32.691C10.1604 32.691 10.1019 32.6727 10.0523 32.6345C9.93248 32.5425 9.9099 32.3709 10.0019 32.2511L10.8005 31.2105C10.8925 31.0907 11.0642 31.0681 11.1839 31.16C11.3037 31.252 11.3263 31.4236 11.2344 31.5434L10.4357 32.584C10.3818 32.6543 10.3006 32.691 10.2186 32.691Z" fill="white"/>
<path d="M13.8496 34.7883C13.8147 34.7883 13.7793 34.7815 13.745 34.7673C13.6054 34.7095 13.5393 34.5495 13.5971 34.4101L14.0993 33.1982C14.1572 33.0587 14.317 32.9923 14.4567 33.0502C14.5962 33.108 14.6624 33.268 14.6046 33.4075L14.1023 34.6194C14.0586 34.7247 13.9568 34.7883 13.8496 34.7883Z" fill="white"/>
<path d="M17.9007 35.8729C17.8889 35.8729 17.8768 35.8722 17.8647 35.8706C17.715 35.8509 17.6096 35.7135 17.6293 35.5638L17.8005 34.2641C17.8203 34.1143 17.9576 34.0091 18.1073 34.0287C18.2571 34.0484 18.3625 34.1858 18.3427 34.3355L18.1715 35.6352C18.1534 35.7728 18.0359 35.8729 17.9007 35.8729Z" fill="white"/>
<path d="M4.48039 24.1036C4.35961 24.1036 4.24914 24.0231 4.21641 23.9008C4.17734 23.755 4.26391 23.605 4.40977 23.566L6.94352 22.8872C7.08969 22.8484 7.23938 22.9347 7.27844 23.0807C7.3175 23.2265 7.23094 23.3764 7.08508 23.4155L4.55133 24.0943C4.52766 24.1006 4.50383 24.1036 4.48039 24.1036Z" fill="white"/>
<path d="M6.08432 27.9777C5.98979 27.9777 5.89791 27.9286 5.84721 27.8409C5.77174 27.7101 5.81651 27.5429 5.94729 27.4674L8.21877 26.1559C8.34963 26.0802 8.51682 26.1252 8.59229 26.256C8.66776 26.3867 8.62299 26.5539 8.49221 26.6295L6.22073 27.941C6.17768 27.9659 6.13073 27.9777 6.08432 27.9777Z" fill="white"/>
<path d="M11.9647 33.8585C11.9183 33.8585 11.8713 33.8467 11.8282 33.8218C11.6974 33.7463 11.6526 33.5791 11.7281 33.4483L13.0396 31.1768C13.1151 31.0459 13.2824 31.0013 13.4131 31.0767C13.5439 31.1523 13.5887 31.3195 13.5132 31.4502L12.2017 33.7217C12.1511 33.8095 12.0591 33.8585 11.9647 33.8585Z" fill="white"/>
<path d="M15.8401 35.4636C15.8166 35.4636 15.7929 35.4606 15.7691 35.4543C15.6233 35.4152 15.5367 35.2653 15.5758 35.1194L16.2545 32.5856C16.2935 32.4397 16.4432 32.3532 16.5894 32.3922C16.7352 32.4312 16.8218 32.5811 16.7827 32.727L16.1041 35.2608C16.0713 35.383 15.9609 35.4636 15.8401 35.4636Z" fill="white"/>
<path d="M19.998 36.0106C19.847 36.0106 19.7246 35.8882 19.7246 35.7371V33.1143C19.7246 32.9632 19.847 32.8408 19.998 32.8408C20.1491 32.8408 20.2715 32.9632 20.2715 33.1143V35.7371C20.2715 35.8882 20.1491 36.0106 19.998 36.0106Z" fill="white"/>
<path d="M22.0965 35.873C21.9614 35.873 21.8439 35.7729 21.8258 35.6352L21.6547 34.3355C21.635 34.1858 21.7404 34.0484 21.8901 34.0287C22.0402 34.009 22.1772 34.1144 22.1969 34.2641L22.368 35.5638C22.3878 35.7136 22.2823 35.8509 22.1326 35.8706C22.1205 35.8722 22.1084 35.873 22.0965 35.873Z" fill="white"/>
<path d="M26.149 34.7881C26.0417 34.7881 25.9399 34.7246 25.8963 34.6193L25.394 33.4074C25.3361 33.268 25.4023 33.108 25.5419 33.0502C25.681 32.9924 25.8414 33.0585 25.8992 33.1981L26.4015 34.41C26.4593 34.5495 26.3932 34.7095 26.2536 34.7673C26.2194 34.7814 26.184 34.7881 26.149 34.7881Z" fill="white"/>
<path d="M29.7814 32.691C29.6993 32.691 29.6181 32.6542 29.5643 32.5841L28.7655 31.5434C28.6736 31.4237 28.6962 31.252 28.816 31.1601C28.9356 31.0681 29.1073 31.0906 29.1994 31.2105L29.9981 32.2512C30.0901 32.3709 30.0675 32.5426 29.9476 32.6345C29.8981 32.6726 29.8395 32.691 29.7814 32.691Z" fill="white"/>
<path d="M32.7455 29.7256C32.6874 29.7256 32.6289 29.7072 32.5792 29.669L31.5386 28.8703C31.4188 28.7784 31.3962 28.6067 31.4881 28.487C31.5799 28.3671 31.7516 28.3444 31.8715 28.4365L32.9121 29.2352C33.0319 29.3271 33.0545 29.4988 32.9626 29.6185C32.9088 29.6888 32.8275 29.7256 32.7455 29.7256Z" fill="white"/>
<path d="M34.8427 26.0932C34.8078 26.0932 34.7724 26.0865 34.7381 26.0723L33.5263 25.57C33.3868 25.5122 33.3205 25.3522 33.3783 25.2128C33.4361 25.0731 33.5961 25.0071 33.7356 25.0648L34.9474 25.5671C35.0869 25.6249 35.1532 25.7849 35.0954 25.9243C35.0518 26.0297 34.95 26.0932 34.8427 26.0932Z" fill="white"/>
<path d="M35.929 22.0422C35.9171 22.0422 35.905 22.0415 35.8929 22.0399L34.5932 21.8688C34.4436 21.8491 34.3381 21.7118 34.3578 21.562C34.3775 21.4124 34.515 21.3068 34.6646 21.3266L35.9643 21.4977C36.114 21.5174 36.2195 21.6547 36.1997 21.8045C36.1816 21.942 36.0641 22.0422 35.929 22.0422Z" fill="white"/>
<path d="M24.1572 35.4636C24.0364 35.4636 23.9259 35.3831 23.8932 35.2608L23.2145 32.727C23.1754 32.5811 23.262 32.4312 23.4079 32.3922C23.5534 32.3532 23.7037 32.4397 23.7427 32.5856L24.4215 35.1194C24.4605 35.2653 24.374 35.4152 24.228 35.4543C24.2044 35.4605 24.1806 35.4636 24.1572 35.4636Z" fill="white"/>
<path d="M28.0324 33.8585C27.9379 33.8585 27.846 33.8095 27.7954 33.7217L26.484 31.4502C26.4084 31.3195 26.4533 31.1523 26.584 31.0767C26.7147 31.0013 26.882 31.0459 26.9576 31.1768L28.269 33.4483C28.3445 33.5791 28.2997 33.7463 28.1689 33.8218C28.1259 33.8467 28.0788 33.8585 28.0324 33.8585Z" fill="white"/>
<path d="M31.3603 31.3055C31.2903 31.3055 31.2204 31.2788 31.167 31.2254L29.3125 29.371C29.2057 29.2643 29.2057 29.0911 29.3125 28.9844C29.4192 28.8776 29.5924 28.8776 29.6992 28.9844L31.5536 30.8388C31.6604 30.9455 31.6604 31.1187 31.5536 31.2254C31.5003 31.2788 31.4303 31.3055 31.3603 31.3055Z" fill="white"/>
<path d="M33.9138 27.9776C33.8674 27.9776 33.8204 27.9658 33.7773 27.9409L31.5059 26.6294C31.3751 26.5539 31.3303 26.3867 31.4058 26.2559C31.4814 26.125 31.6487 26.0804 31.7794 26.1558L34.0508 27.4673C34.1815 27.5429 34.2264 27.71 34.1508 27.8408C34.1002 27.9286 34.0083 27.9776 33.9138 27.9776Z" fill="white"/>
<path d="M35.5184 24.1037C35.495 24.1037 35.4712 24.1006 35.4476 24.0943L32.9137 23.4156C32.7679 23.3765 32.6812 23.2266 32.7203 23.0807C32.7594 22.9348 32.9096 22.8483 33.0552 22.8873L35.589 23.566C35.7348 23.6051 35.8215 23.755 35.7824 23.9009C35.7497 24.0231 35.6392 24.1037 35.5184 24.1037Z" fill="white"/>
<path d="M36.0644 19.9453H33.4414C33.2904 19.9453 33.168 19.8229 33.168 19.6719C33.168 19.5209 33.2904 19.3984 33.4414 19.3984H36.0644C36.2154 19.3984 36.3378 19.5209 36.3378 19.6719C36.3378 19.8229 36.2153 19.9453 36.0644 19.9453Z" fill="white"/>
<path d="M36.0644 19.9453H33.4414C33.2904 19.9453 33.168 19.8229 33.168 19.6719C33.168 19.5209 33.2904 19.3984 33.4414 19.3984H36.0644C36.2154 19.3984 36.3378 19.5209 36.3378 19.6719C36.3378 19.8229 36.2153 19.9453 36.0644 19.9453Z" fill="white"/>
<path d="M34.6286 18.0197C34.4935 18.0197 34.376 17.9196 34.3578 17.782C34.3381 17.6322 34.4436 17.4949 34.5932 17.4752L35.8929 17.304C36.0426 17.2848 36.18 17.3897 36.1997 17.5394C36.2195 17.6892 36.114 17.8265 35.9643 17.8462L34.6646 18.0174C34.6525 18.0189 34.6405 18.0197 34.6286 18.0197Z" fill="white"/>
<path d="M33.631 14.2993C33.5237 14.2993 33.4219 14.2358 33.3783 14.1305C33.3205 13.9909 33.3867 13.831 33.5263 13.7731L34.7381 13.2708C34.8772 13.2132 35.0375 13.2792 35.0954 13.4187C35.1532 13.5583 35.087 13.7182 34.9474 13.7761L33.7356 14.2783C33.7014 14.2926 33.6659 14.2993 33.631 14.2993Z" fill="white"/>
<path d="M31.7053 10.9637C31.6232 10.9637 31.542 10.9269 31.4882 10.8568C31.3962 10.737 31.4188 10.5654 31.5386 10.4734L32.5793 9.67474C32.6991 9.58271 32.8706 9.60536 32.9626 9.72521C33.0546 9.84497 33.032 10.0166 32.9122 10.1086L31.8715 10.9072C31.8219 10.9454 31.7633 10.9637 31.7053 10.9637Z" fill="white"/>
<path d="M28.9822 8.23993C28.9241 8.23993 28.8656 8.2215 28.8159 8.18337C28.6962 8.09142 28.6736 7.91978 28.7655 7.80001L29.5642 6.75939C29.6562 6.63954 29.8276 6.61689 29.9476 6.70892C30.0673 6.80087 30.0899 6.97251 29.998 7.09228L29.1993 8.1329C29.1455 8.20314 29.0643 8.23993 28.9822 8.23993Z" fill="white"/>
<path d="M25.6465 6.31451C25.6116 6.31451 25.5761 6.30779 25.5419 6.29357C25.4024 6.23576 25.3361 6.07576 25.3939 5.93623L25.8963 4.72443C25.9541 4.5849 26.1145 4.51881 26.2536 4.57654C26.3931 4.63435 26.4593 4.79435 26.4015 4.93389L25.8992 6.14568C25.8555 6.25092 25.7538 6.31451 25.6465 6.31451Z" fill="white"/>
<path d="M21.9262 5.31721C21.9143 5.31721 21.9022 5.31643 21.8901 5.31486C21.7404 5.29518 21.635 5.15776 21.6547 5.00807L21.8258 3.70838C21.8455 3.55862 21.9828 3.45369 22.1326 3.47299C22.2823 3.49268 22.3878 3.6301 22.368 3.77979L22.1969 5.07947C22.1789 5.21705 22.0614 5.31721 21.9262 5.31721Z" fill="white"/>
<path d="M32.9843 16.4659C32.8635 16.4659 32.753 16.3853 32.7203 16.2632C32.6813 16.1173 32.7678 15.9673 32.9138 15.9283L35.4476 15.2496C35.5933 15.2105 35.7433 15.2972 35.7824 15.443C35.8215 15.5888 35.7349 15.7388 35.589 15.7779L33.0552 16.4566C33.0316 16.4628 33.0077 16.4659 32.9843 16.4659Z" fill="white"/>
<path d="M31.6429 13.2236C31.5484 13.2236 31.4565 13.1746 31.4058 13.0869C31.3303 12.9561 31.3751 12.7889 31.5059 12.7134L33.7773 11.4019C33.9079 11.3265 34.0753 11.3711 34.1508 11.502C34.2264 11.6327 34.1815 11.7999 34.0508 11.8755L31.7794 13.187C31.7363 13.2118 31.6892 13.2236 31.6429 13.2236Z" fill="white"/>
<path d="M26.7205 8.3037C26.6741 8.3037 26.6271 8.2919 26.584 8.26706C26.4533 8.19151 26.4084 8.02432 26.484 7.89354L27.7954 5.62206C27.871 5.49128 28.0383 5.44659 28.1689 5.52198C28.2997 5.59753 28.3445 5.76471 28.269 5.8955L26.9576 8.16698C26.9069 8.25464 26.815 8.3037 26.7205 8.3037Z" fill="white"/>
<path d="M23.4787 6.96063C23.4553 6.96063 23.4316 6.95759 23.4079 6.95126C23.262 6.9122 23.1754 6.76227 23.2144 6.61634L23.8932 4.08259C23.9323 3.9368 24.0825 3.85024 24.228 3.88923C24.3739 3.92829 24.4605 4.07821 24.4215 4.22415L23.7427 6.7579C23.71 6.88009 23.5995 6.96063 23.4787 6.96063Z" fill="white"/>
<path d="M20 6.50285C19.849 6.50285 19.7266 6.38043 19.7266 6.22941V3.60645C19.7266 3.45543 19.849 3.33301 20 3.33301C20.151 3.33301 20.2734 3.45543 20.2734 3.60645V6.22941C20.2734 6.38043 20.151 6.50285 20 6.50285Z" fill="white"/>
</g>
<path d="M31.536 8.13672L17.6816 17.3537L20.0003 19.6724L31.536 8.13672Z" fill="#F4413D"/>
<path d="M31.5357 8.13672L20 19.6724L22.3187 21.9911L31.5357 8.13672Z" fill="#CC2B2B"/>
<path d="M17.6819 17.3535L8.46484 31.208L20.0005 19.6722L17.6819 17.3535Z" fill="white"/>
<path d="M8.46484 31.2077L22.3192 21.9905L20.0005 19.6719L8.46484 31.2077Z" fill="#D8D8D8"/>
</g>
<defs>
<linearGradient id="paint0_linear_122_51777" x1="20" y1="39.3438" x2="20" y2="0" gradientUnits="userSpaceOnUse">
<stop stop-color="#F2F2F2"/>
<stop offset="1" stop-color="white"/>
</linearGradient>
<linearGradient id="paint1_linear_122_51777" x1="20.0002" y1="39.3443" x2="20.0002" y2="0" gradientUnits="userSpaceOnUse">
<stop/>
<stop offset="0.36" stop-opacity="0"/>
</linearGradient>
<linearGradient id="paint2_linear_122_51777" x1="19.9996" y1="37.3762" x2="19.9996" y2="1.9668" gradientUnits="userSpaceOnUse">
<stop stop-color="#3871E9"/>
<stop offset="1" stop-color="#61C5F6"/>
</linearGradient>
<linearGradient id="paint3_linear_122_51777" x1="19.9998" y1="37.3766" x2="19.9998" y2="1.9668" gradientUnits="userSpaceOnUse">
<stop/>
<stop offset="0.36" stop-opacity="0"/>
</linearGradient>
<clipPath id="clip0_122_51777">
<rect width="40" height="40" fill="white"/>
</clipPath>
</defs>
</svg>
