<svg width="544" height="471" viewBox="0 0 544 471" fill="none" xmlns="http://www.w3.org/2000/svg">
<g opacity="0.4">
<path d="M496.981 123.404L450.289 96.4027L496.981 69.5508L497.429 69.8491L543.674 96.5518L496.981 123.404ZM453.571 96.4027L496.981 121.464L540.392 96.4027L496.981 71.3409L453.571 96.4027Z" fill="#E8E8E8"/>
<path d="M406.878 123.404L360.186 96.4034L406.878 69.4023L453.57 96.4034L406.878 123.404ZM363.467 96.4034L406.878 121.465L450.289 96.4034L406.878 71.3417L363.467 96.4034Z" fill="#E8E8E8"/>
<path d="M451.929 149.362L451.481 149.063L405.236 122.36L451.929 95.3594L498.621 122.36L451.929 149.362ZM408.518 122.36L451.929 147.422L495.339 122.36L451.929 97.2987L408.518 122.36Z" fill="#E8E8E8"/>
<path d="M496.981 175.319L496.534 175.02L450.289 148.317L496.981 121.316L497.429 121.615L543.674 148.317L496.981 175.319ZM453.571 148.467L496.981 173.528L540.392 148.467L496.981 123.405L453.571 148.467Z" fill="#E8E8E8"/>
<path d="M316.925 123.404L316.477 123.106L270.232 96.4034L316.925 69.4023L317.372 69.7007L363.617 96.4034L316.925 123.404ZM273.514 96.4034L316.925 121.465L360.335 96.4034L316.925 71.3417L273.514 96.4034Z" fill="#E8E8E8"/>
<path d="M361.825 149.362L315.133 122.36L361.825 95.3594L408.518 122.36L361.825 149.362ZM318.564 122.36L361.974 147.422L405.385 122.36L361.974 97.2987L318.564 122.36Z" fill="#E8E8E8"/>
<path d="M406.878 175.319L406.43 175.02L360.186 148.317L406.878 121.316L407.326 121.615L453.57 148.317L406.878 175.319ZM363.467 148.467L406.878 173.528L450.289 148.467L406.878 123.405L363.467 148.467Z" fill="#E8E8E8"/>
<path d="M451.929 201.426L451.481 201.128L405.236 174.425L451.929 147.424L452.376 147.722L498.621 174.425L451.929 201.426ZM408.518 174.425L451.929 199.487L495.339 174.425L451.929 149.363L408.518 174.425Z" fill="#E8E8E8"/>
<path d="M496.981 227.379L496.534 227.081L450.289 200.378L496.981 173.377L543.674 200.378L496.981 227.379ZM453.571 200.378L496.981 225.44L540.392 200.378L496.981 175.316L453.571 200.378Z" fill="#E8E8E8"/>
<path d="M226.819 123.404L226.372 123.106L180.127 96.4034L226.819 69.4023L227.267 69.7007L273.512 96.4034L226.819 123.404ZM183.409 96.4034L226.819 121.465L270.23 96.4034L226.819 71.3417L183.409 96.4034Z" fill="#E8E8E8"/>
<path d="M271.874 149.362L271.427 149.063L225.182 122.36L271.874 95.3594L272.322 95.6577L318.567 122.36L271.874 149.362ZM228.464 122.36L271.874 147.422L315.285 122.36L271.874 97.2987L228.464 122.36Z" fill="#E8E8E8"/>
<path d="M316.925 175.319L316.477 175.02L270.232 148.317L316.925 121.316L363.617 148.317L316.925 175.319ZM273.514 148.467L316.925 173.528L360.335 148.467L316.925 123.405L273.514 148.467Z" fill="#E8E8E8"/>
<path d="M361.825 201.426L315.133 174.425L361.825 147.424L362.273 147.722L408.518 174.425L361.825 201.426ZM318.564 174.425L361.974 199.487L405.385 174.425L361.974 149.363L318.564 174.425Z" fill="#E8E8E8"/>
<path d="M406.878 227.379L406.43 227.081L360.186 200.378L406.878 173.377L407.326 173.675L453.57 200.378L406.878 227.379ZM363.467 200.378L406.878 225.44L450.289 200.378L406.878 175.316L363.467 200.378Z" fill="#E8E8E8"/>
<path d="M451.929 253.338L451.481 253.04L405.236 226.337L451.929 199.336L452.376 199.634L498.621 226.337L451.929 253.338ZM408.518 226.337L451.929 251.399L495.339 226.337L451.929 201.275L408.518 226.337Z" fill="#E8E8E8"/>
<path d="M496.981 279.295L496.534 278.997L450.289 252.294L496.981 225.293L497.429 225.591L543.674 252.294L496.981 279.295ZM453.571 252.443L496.981 277.505L540.392 252.443L496.981 227.381L453.571 252.443Z" fill="#E8E8E8"/>
<path d="M136.72 123.404L136.272 123.106L90.0273 96.4034L136.72 69.4023L137.167 69.7007L183.412 96.4034L136.72 123.404ZM93.4584 96.4034L136.869 121.465L180.28 96.4034L136.72 71.3417L93.4584 96.4034Z" fill="#E8E8E8"/>
<path d="M181.771 149.362L135.078 122.36L181.771 95.3594L182.218 95.6577L228.463 122.36L181.771 149.362ZM138.509 122.36L181.92 147.422L225.33 122.36L181.92 97.2987L138.509 122.36Z" fill="#E8E8E8"/>
<path d="M226.819 175.319L226.372 175.02L180.127 148.317L226.819 121.316L227.267 121.615L273.512 148.317L226.819 175.319ZM183.409 148.467L226.819 173.528L270.23 148.467L226.819 123.405L183.409 148.467Z" fill="#E8E8E8"/>
<path d="M271.874 201.274L271.427 200.975L225.182 174.273L271.874 147.271L272.322 147.57L318.567 174.273L271.874 201.274ZM228.464 174.422L271.874 199.483L315.285 174.422L271.874 149.36L228.464 174.422Z" fill="#E8E8E8"/>
<path d="M316.925 227.379L270.232 200.378L316.925 173.377L363.617 200.378L316.925 227.379ZM273.514 200.378L316.925 225.44L360.335 200.378L316.925 175.316L273.514 200.378Z" fill="#E8E8E8"/>
<path d="M361.825 253.338L361.378 253.04L315.133 226.337L361.825 199.336L362.273 199.634L408.518 226.337L361.825 253.338ZM318.564 226.337L361.974 251.399L405.385 226.337L361.974 201.275L318.564 226.337Z" fill="#E8E8E8"/>
<path d="M406.878 279.295L360.186 252.294L406.878 225.293L407.326 225.591L453.57 252.294L406.878 279.295ZM363.467 252.443L406.878 277.505L450.289 252.443L406.878 227.381L363.467 252.443Z" fill="#E8E8E8"/>
<path d="M451.929 305.252L451.481 304.954L405.236 278.251L451.929 251.25L452.376 251.548L498.621 278.251L451.929 305.252ZM408.518 278.4L451.929 303.462L495.339 278.4L451.929 253.338L408.518 278.4Z" fill="#E8E8E8"/>
<path d="M496.981 331.358L496.534 331.059L450.289 304.357L496.981 277.355L497.429 277.654L543.674 304.357L496.981 331.358ZM453.571 304.357L496.981 329.418L540.392 304.357L496.981 279.295L453.571 304.357Z" fill="#E8E8E8"/>
<path d="M46.7647 123.404L46.3172 123.106L0.0722656 96.4034L46.7647 69.4023L47.2123 69.7007L93.4572 96.4034L46.7647 123.404ZM3.35418 96.4034L46.7647 121.465L90.1753 96.4034L46.7647 71.3417L3.35418 96.4034Z" fill="#E8E8E8"/>
<path d="M91.8155 149.362L91.368 149.063L45.123 122.36L91.8155 95.3594L92.263 95.6577L138.508 122.36L91.8155 149.362ZM48.4049 122.36L91.8155 147.422L135.226 122.36L91.8155 97.2987L48.4049 122.36Z" fill="#E8E8E8"/>
<path d="M136.868 175.319L136.421 175.02L90.1758 148.317L136.868 121.316L183.561 148.317L136.868 175.319ZM93.4577 148.467L136.868 173.528L180.279 148.467L136.868 123.405L93.4577 148.467Z" fill="#E8E8E8"/>
<path d="M181.771 201.274L135.078 174.273L181.771 147.271L182.218 147.57L228.463 174.273L181.771 201.274ZM138.509 174.422L181.92 199.483L225.33 174.422L181.92 149.36L138.509 174.422Z" fill="#E8E8E8"/>
<path d="M226.819 227.379L226.372 227.081L180.127 200.378L226.819 173.377L227.267 173.675L273.512 200.378L226.819 227.379ZM183.409 200.378L226.819 225.44L270.23 200.378L226.819 175.316L183.409 200.378Z" fill="#E8E8E8"/>
<path d="M271.874 253.338L225.182 226.337L271.874 199.336L318.567 226.337L271.874 253.338ZM228.464 226.337L271.874 251.399L315.285 226.337L271.874 201.275L228.464 226.337Z" fill="#E8E8E8"/>
<path d="M316.925 279.295L316.477 278.997L270.232 252.294L316.925 225.293L317.372 225.591L363.617 252.294L316.925 279.295ZM273.514 252.443L316.925 277.505L360.335 252.443L316.925 227.381L273.514 252.443Z" fill="#E8E8E8"/>
<path d="M361.825 305.252L361.378 304.954L315.133 278.251L361.825 251.25L408.518 278.251L361.825 305.252ZM318.564 278.4L361.974 303.462L405.385 278.4L361.825 253.338L318.564 278.4Z" fill="#E8E8E8"/>
<path d="M406.878 331.358L360.186 304.357L406.878 277.355L407.326 277.654L453.57 304.357L406.878 331.358ZM363.467 304.357L406.878 329.418L450.289 304.357L406.878 279.295L363.467 304.357Z" fill="#E8E8E8"/>
<path d="M451.929 357.315L451.481 357.016L405.236 330.314L451.929 303.312L452.376 303.611L498.621 330.314L451.929 357.315ZM408.518 330.314L451.929 355.375L495.339 330.314L451.929 305.252L408.518 330.314Z" fill="#E8E8E8"/>
<path d="M496.981 383.273L496.534 382.975L450.289 356.272L496.981 329.42L497.429 329.718L543.674 356.421L496.981 383.273ZM453.571 356.272L496.981 381.334L540.243 356.272L496.981 331.359L453.571 356.272Z" fill="#E8E8E8"/>
<path d="M46.7647 175.319L46.3172 175.02L0.0722656 148.317L46.7647 121.316L47.2123 121.615L93.4572 148.317L46.7647 175.319ZM3.35418 148.467L46.7647 173.528L90.1753 148.467L46.7647 123.405L3.35418 148.467Z" fill="#E8E8E8"/>
<path d="M91.8155 201.274L91.368 200.975L45.123 174.273L91.8155 147.271L92.263 147.57L138.508 174.273L91.8155 201.274ZM48.4049 174.422L91.8155 199.483L135.226 174.422L91.8155 149.36L48.4049 174.422Z" fill="#E8E8E8"/>
<path d="M136.868 227.379L136.421 227.081L90.1758 200.378L136.868 173.377L183.561 200.378L136.868 227.379ZM93.4577 200.378L136.868 225.44L180.279 200.378L136.868 175.316L93.4577 200.378Z" fill="#E8E8E8"/>
<path d="M181.771 253.338L181.323 253.04L135.078 226.337L181.771 199.336L182.218 199.634L228.463 226.337L181.771 253.338ZM138.509 226.337L181.92 251.399L225.33 226.337L181.92 201.275L138.509 226.337Z" fill="#E8E8E8"/>
<path d="M226.819 279.295L180.127 252.294L226.819 225.293L273.512 252.294L226.819 279.295ZM183.409 252.443L226.819 277.505L270.23 252.443L226.819 227.381L183.409 252.443Z" fill="#E8E8E8"/>
<path d="M271.874 305.252L225.182 278.251L271.874 251.25L272.322 251.548L318.567 278.251L271.874 305.252ZM228.464 278.4L271.874 303.462L315.285 278.4L271.874 253.338L228.464 278.4Z" fill="#E8E8E8"/>
<path d="M316.925 331.358L316.477 331.059L270.232 304.357L316.925 277.355L317.372 277.654L363.617 304.357L316.925 331.358ZM273.514 304.357L316.925 329.418L360.335 304.357L316.925 279.295L273.514 304.357Z" fill="#E8E8E8"/>
<path d="M361.825 357.315L361.378 357.016L315.133 330.314L361.825 303.312L408.518 330.314L361.825 357.315ZM318.564 330.314L361.974 355.375L405.385 330.314L361.974 305.252L318.564 330.314Z" fill="#E8E8E8"/>
<path d="M406.878 383.27L406.43 382.971L360.186 356.269L406.878 329.268L407.326 329.566L453.57 356.269L406.878 383.27ZM363.467 356.269L406.878 381.33L450.289 356.269L406.878 331.207L363.467 356.269Z" fill="#E8E8E8"/>
<path d="M451.929 409.227L405.236 382.226L451.929 355.225L452.376 355.523L498.621 382.226L451.929 409.227ZM408.518 382.375L451.929 407.437L495.339 382.375L451.929 357.313L408.518 382.375Z" fill="#E8E8E8"/>
<path d="M496.981 435.334L496.534 435.036L450.289 408.333L496.981 381.332L497.429 381.63L543.674 408.333L496.981 435.334ZM453.571 408.333L496.981 433.395L540.392 408.333L496.981 383.271L453.571 408.333Z" fill="#E8E8E8"/>
<path d="M46.7647 227.379L0.0722656 200.378L46.7647 173.377L47.2123 173.675L93.4572 200.378L46.7647 227.379ZM3.35418 200.378L46.7647 225.44L90.1753 200.378L46.7647 175.316L3.35418 200.378Z" fill="#E8E8E8"/>
<path d="M91.8155 253.338L91.368 253.04L45.123 226.337L91.8155 199.336L92.263 199.634L138.508 226.337L91.8155 253.338ZM48.4049 226.337L91.8155 251.399L135.226 226.337L91.8155 201.275L48.4049 226.337Z" fill="#E8E8E8"/>
<path d="M136.868 279.295L136.421 278.997L90.1758 252.294L136.868 225.293L137.316 225.591L183.561 252.294L136.868 279.295ZM93.4577 252.443L136.868 277.505L180.279 252.443L136.868 227.381L93.4577 252.443Z" fill="#E8E8E8"/>
<path d="M181.771 305.252L181.323 304.954L135.078 278.251L181.771 251.25L228.463 278.251L181.771 305.252ZM138.509 278.4L181.92 303.462L225.33 278.4L181.771 253.338L138.509 278.4Z" fill="#E8E8E8"/>
<path d="M226.819 331.358L180.127 304.357L226.819 277.355L273.512 304.357L226.819 331.358ZM183.409 304.357L226.819 329.418L270.23 304.357L226.819 279.295L183.409 304.357Z" fill="#E8E8E8"/>
<path d="M271.874 357.315L225.182 330.314L271.874 303.312L272.322 303.611L318.567 330.314L271.874 357.315ZM228.464 330.314L271.874 355.375L315.285 330.314L271.874 305.252L228.464 330.314Z" fill="#E8E8E8"/>
<path d="M316.925 383.27L316.477 382.971L270.232 356.269L316.925 329.268L317.372 329.566L363.617 356.269L316.925 383.27ZM273.514 356.269L316.925 381.33L360.335 356.269L316.925 331.207L273.514 356.269Z" fill="#E8E8E8"/>
<path d="M361.825 409.227L361.378 408.928L315.133 382.226L361.825 355.225L362.273 355.523L408.518 382.226L361.825 409.227ZM318.564 382.375L361.974 407.437L405.385 382.375L361.974 357.313L318.564 382.375Z" fill="#E8E8E8"/>
<path d="M406.878 435.334L406.43 435.036L360.186 408.333L406.878 381.332L453.57 408.333L406.878 435.334ZM363.467 408.333L406.878 433.395L450.289 408.333L406.878 383.271L363.467 408.333Z" fill="#E8E8E8"/>
<path d="M46.7647 279.295L0.0722656 252.294L46.7647 225.293L47.2123 225.591L93.4572 252.294L46.7647 279.295ZM3.35418 252.443L46.7647 277.505L90.1753 252.443L46.7647 227.381L3.35418 252.443Z" fill="#E8E8E8"/>
<path d="M91.8155 305.252L91.368 304.954L45.123 278.251L91.8155 251.25L92.263 251.548L138.508 278.251L91.8155 305.252ZM48.4049 278.4L91.8155 303.462L135.226 278.4L91.8155 253.338L48.4049 278.4Z" fill="#E8E8E8"/>
<path d="M136.868 331.358L136.421 331.059L90.1758 304.357L136.868 277.355L137.316 277.654L183.561 304.357L136.868 331.358ZM93.4577 304.357L136.868 329.418L180.279 304.357L136.868 279.295L93.4577 304.357Z" fill="#E8E8E8"/>
<path d="M181.771 357.315L135.078 330.314L181.771 303.312L228.463 330.314L181.771 357.315ZM138.509 330.314L181.92 355.375L225.33 330.314L181.92 305.252L138.509 330.314Z" fill="#E8E8E8"/>
<path d="M226.819 383.27L226.372 382.971L180.127 356.269L226.819 329.268L273.512 356.269L226.819 383.27ZM183.409 356.269L226.819 381.33L270.23 356.269L226.819 331.207L183.409 356.269Z" fill="#E8E8E8"/>
<path d="M271.874 409.227L225.182 382.226L271.874 355.225L272.322 355.523L318.567 382.226L271.874 409.227ZM228.464 382.375L271.874 407.437L315.285 382.375L271.874 357.313L228.464 382.375Z" fill="#E8E8E8"/>
<path d="M316.925 435.334L316.477 435.036L270.232 408.333L316.925 381.332L317.372 381.63L363.617 408.333L316.925 435.334ZM273.514 408.333L316.925 433.395L360.335 408.333L316.925 383.271L273.514 408.333Z" fill="#E8E8E8"/>
<path d="M46.7647 331.358L46.3172 331.059L0.0722656 304.357L46.7647 277.355L47.2123 277.654L93.4572 304.357L46.7647 331.358ZM3.35418 304.357L46.7647 329.418L90.1753 304.357L46.7647 279.295L3.35418 304.357Z" fill="#E8E8E8"/>
<path d="M91.8155 357.315L45.123 330.314L91.8155 303.312L92.263 303.611L138.508 330.314L91.8155 357.315ZM48.4049 330.314L91.8155 355.375L135.226 330.314L91.8155 305.252L48.4049 330.314Z" fill="#E8E8E8"/>
<path d="M136.868 383.27L136.421 382.971L90.1758 356.269L136.868 329.268L183.561 356.269L136.868 383.27ZM93.4577 356.269L136.868 381.33L180.279 356.269L136.868 331.207L93.4577 356.269Z" fill="#E8E8E8"/>
<path d="M181.771 409.227L135.078 382.226L181.771 355.225L182.218 355.523L228.463 382.226L181.771 409.227ZM138.509 382.375L181.92 407.437L225.33 382.375L181.92 357.313L138.509 382.375Z" fill="#E8E8E8"/>
<path d="M226.819 435.334L226.372 435.036L180.127 408.333L226.819 381.332L273.512 408.333L226.819 435.334ZM183.409 408.333L226.819 433.395L270.23 408.333L226.819 383.271L183.409 408.333Z" fill="#E8E8E8"/>
<path d="M46.7647 383.27L46.3172 382.971L0.0722656 356.269L46.7647 329.268L93.4572 356.269L46.7647 383.27ZM3.35418 356.269L46.7647 381.33L90.1753 356.269L46.7647 331.207L3.35418 356.269Z" fill="#E8E8E8"/>
<path d="M91.8155 409.227L91.368 408.928L45.123 382.226L91.8155 355.225L92.263 355.523L138.508 382.226L91.8155 409.227ZM48.4049 382.375L91.8155 407.437L135.226 382.375L91.8155 357.313L48.4049 382.375Z" fill="#E8E8E8"/>
<path d="M136.868 435.334L90.1758 408.333L136.868 381.332L183.561 408.333L136.868 435.334ZM93.4577 408.333L136.868 433.395L180.279 408.333L136.868 383.271L93.4577 408.333Z" fill="#E8E8E8"/>
<path d="M46.7647 435.334L46.3172 435.036L0.0722656 408.333L46.7647 381.332L47.2123 381.63L93.4572 408.333L46.7647 435.334ZM3.35418 408.333L46.7647 433.395L90.1753 408.333L46.7647 383.271L3.35418 408.333Z" fill="#E8E8E8"/>
</g>
<path d="M358.844 366.118C358.844 368.952 356.904 372.234 354.518 373.726C352.131 375.068 350.191 374.024 350.191 371.19C350.191 368.355 352.131 365.073 354.518 363.582C356.904 362.09 358.844 363.283 358.844 366.118Z" fill="#E8E8E8"/>
<path d="M373.016 357.915C373.016 360.75 371.076 364.032 368.689 365.523C366.303 366.866 364.363 365.822 364.363 362.987C364.363 360.153 366.303 356.871 368.689 355.379C370.927 354.037 373.016 355.081 373.016 357.915Z" fill="#E8E8E8"/>
<path d="M387.039 349.709C387.039 352.544 385.1 355.826 382.713 357.317C380.326 358.66 378.387 357.616 378.387 354.781C378.387 351.947 380.326 348.665 382.713 347.173C385.1 345.831 387.039 347.024 387.039 349.709Z" fill="#E8E8E8"/>
<path d="M401.211 341.654C401.211 344.488 399.272 347.77 396.885 349.262C394.498 350.604 392.559 349.56 392.559 346.726C392.559 343.891 394.498 340.609 396.885 339.118C399.272 337.775 401.211 338.819 401.211 341.654Z" fill="#E8E8E8"/>
<path d="M155.516 443.838C155.516 446.673 153.576 449.955 151.189 451.446C148.803 452.789 146.863 451.745 146.863 448.91C146.863 446.076 148.803 442.794 151.189 441.302C153.576 439.96 155.516 441.153 155.516 443.838Z" fill="#E8E8E8"/>
<path d="M167.598 436.978C167.598 439.812 165.658 443.094 163.271 444.586C160.885 445.928 158.945 444.884 158.945 442.05C158.945 439.215 160.885 435.934 163.271 434.442C165.658 433.099 167.598 434.143 167.598 436.978Z" fill="#E8E8E8"/>
<path d="M155.516 429.965C155.516 432.8 153.576 436.082 151.189 437.573C148.803 438.916 146.863 437.872 146.863 435.037C146.863 432.203 148.803 428.921 151.189 427.429C153.576 426.087 155.516 427.28 155.516 429.965Z" fill="#E8E8E8"/>
<path d="M167.598 423.103C167.598 425.937 165.658 429.219 163.271 430.711C160.885 432.053 158.945 431.009 158.945 428.175C158.945 425.34 160.885 422.059 163.271 420.567C165.658 419.224 167.598 420.268 167.598 423.103Z" fill="#E8E8E8"/>
<path d="M115.237 96.2566L106.436 101.329V91.3337L115.237 86.2617V96.2566Z" fill="#E8E8E8"/>
<path d="M127.319 89.2468L118.518 94.3188V84.1748L127.319 79.252V89.2468Z" fill="#E8E8E8"/>
<path d="M115.236 109.386L106.584 114.309V104.314L115.236 99.2422V109.386Z" fill="#E8E8E8"/>
<path d="M127.319 102.376L118.518 107.448V97.4529L127.319 92.3809V102.376Z" fill="#E8E8E8"/>
<path d="M99.276 318.382C98.9776 318.382 98.5301 318.232 98.2318 318.083C97.635 317.636 97.1875 317.039 97.1875 316.293V289.292C97.1875 288.546 97.635 287.8 98.2318 287.502L121.653 274.076C122.249 273.628 123.144 273.628 123.741 274.076C124.338 274.523 124.785 275.12 124.785 275.866V302.867C124.785 303.613 124.338 304.359 123.741 304.657L100.32 318.083C100.022 318.232 99.5743 318.382 99.276 318.382ZM101.364 290.485V312.564L120.459 301.524V279.446L101.364 290.485Z" fill="#E8E8E8"/>
<path d="M83.1652 449.952L49.4512 430.559L83.1652 411.166L116.879 430.559L83.1652 449.952Z" fill="#7DC3EA"/>
<path d="M83.1649 438.02C82.7173 438.02 82.2698 437.871 81.8223 437.722L48.1082 418.329C47.3623 417.881 46.7656 416.986 46.7656 416.091C46.7656 415.196 47.2132 414.301 48.1082 413.854L81.8223 394.461C82.5682 394.013 83.6124 394.013 84.3583 394.461L118.072 413.854C118.818 414.301 119.415 415.196 119.415 416.091C119.415 416.986 118.967 417.881 118.072 418.329L84.3583 437.722C84.0599 437.871 83.6124 438.02 83.1649 438.02ZM54.672 415.942L83.3141 432.501L111.956 415.942L83.1649 399.533L54.672 415.942Z" fill="#E8E8E8"/>
<path d="M116.88 400.724L83.166 420.266V381.331L116.88 361.789V400.724Z" fill="url(#paint0_radial_122_52893)"/>
<path d="M83.1652 381.332L49.4512 361.79L83.1652 342.396L116.879 361.79L83.1652 381.332Z" fill="url(#paint1_linear_122_52893)"/>
<path d="M83.1652 420.266L49.4512 400.724V361.789L83.1652 381.331V420.266Z" fill="url(#paint2_radial_122_52893)"/>
<path d="M71.0798 399.232L61.6816 393.712V382.822L71.0798 388.342V399.232Z" fill="#E8E8E8"/>
<path d="M460.583 240.507L426.869 220.965L460.583 201.572L494.148 220.965L460.583 240.507Z" fill="#7DC3EA"/>
<path d="M460.583 228.427C460.135 228.427 459.688 228.277 459.24 228.128L425.526 208.735C424.78 208.288 424.184 207.393 424.184 206.498C424.184 205.603 424.631 204.707 425.526 204.26L459.24 184.867C459.986 184.419 461.03 184.419 461.776 184.867L495.49 204.26C496.236 204.707 496.833 205.603 496.833 206.498C496.833 207.393 496.385 208.288 495.49 208.735L461.776 228.128C461.329 228.277 461.03 228.427 460.583 228.427ZM431.941 206.348L460.583 222.907L489.225 206.348L460.583 189.79L431.941 206.348Z" fill="#E8E8E8"/>
<path d="M494.149 191.131L460.584 210.673V171.738L494.149 152.195V191.131Z" fill="url(#paint3_radial_122_52893)"/>
<path d="M460.583 171.738L426.869 152.196L460.583 132.803L494.148 152.196L460.583 171.738Z" fill="url(#paint4_linear_122_52893)"/>
<path d="M460.583 210.673L426.869 191.131V152.195L460.583 171.738V210.673Z" fill="url(#paint5_radial_122_52893)"/>
<path d="M448.349 189.638L438.951 184.118V173.229L448.349 178.748V189.638Z" fill="#E8E8E8"/>
<path d="M451.035 152.346L460.433 146.826L469.981 152.197L460.582 157.716L451.035 152.346Z" fill="#E8E8E8"/>
<path d="M460.583 449.952L426.869 430.559L460.583 411.166L494.148 430.559L460.583 449.952Z" fill="#7DC3EA"/>
<path d="M460.583 438.02C460.135 438.02 459.688 437.871 459.24 437.722L425.526 418.329C424.78 417.881 424.184 416.986 424.184 416.091C424.184 415.196 424.631 414.301 425.526 413.854L459.24 394.461C459.986 394.013 461.03 394.013 461.776 394.461L495.49 413.854C496.236 414.301 496.833 415.196 496.833 416.091C496.833 416.986 496.385 417.881 495.49 418.329L461.776 437.722C461.329 437.871 461.03 438.02 460.583 438.02ZM431.941 415.942L460.583 432.501L489.225 415.942L460.583 399.533L431.941 415.942Z" fill="#E8E8E8"/>
<path d="M494.149 400.724L460.584 420.266V381.331L494.149 361.789V400.724Z" fill="url(#paint6_radial_122_52893)"/>
<path d="M460.583 381.332L426.869 361.79L460.583 342.396L494.148 361.79L460.583 381.332Z" fill="url(#paint7_linear_122_52893)"/>
<path d="M460.583 420.266L426.869 400.724V361.789L460.583 381.331V420.266Z" fill="url(#paint8_radial_122_52893)"/>
<path d="M448.349 399.232L438.951 393.712V382.822L448.349 388.342V399.232Z" fill="#E8E8E8"/>
<path d="M83.1652 240.507L49.4512 220.965L83.1652 201.572L116.879 220.965L83.1652 240.507Z" fill="#7DC3EA"/>
<path d="M83.1649 228.427C82.7173 228.427 82.2698 228.277 81.8223 228.128L48.1082 208.735C47.3623 208.288 46.7656 207.393 46.7656 206.498C46.7656 205.603 47.2132 204.707 48.1082 204.26L81.8223 184.867C82.5682 184.419 83.6124 184.419 84.3583 184.867L118.072 204.26C118.818 204.707 119.415 205.603 119.415 206.498C119.415 207.393 118.967 208.288 118.072 208.735L84.3583 228.128C84.0599 228.277 83.6124 228.427 83.1649 228.427ZM54.672 206.348L83.3141 222.907L111.956 206.348L83.3141 189.79L54.672 206.348Z" fill="#E8E8E8"/>
<path d="M116.88 191.131L83.166 210.673V171.738L116.88 152.195V191.131Z" fill="url(#paint9_radial_122_52893)"/>
<path d="M83.1652 171.738L49.4512 152.196L83.1652 132.803L116.879 152.196L83.1652 171.738Z" fill="url(#paint10_linear_122_52893)"/>
<path d="M83.1652 210.673L49.4512 191.131V152.195L83.1652 171.738V210.673Z" fill="url(#paint11_radial_122_52893)"/>
<path d="M71.0798 189.638L61.6816 184.118V173.229L71.0798 178.748V189.638Z" fill="#E8E8E8"/>
<path d="M442.016 179.67L343.951 236.271L346.487 240.664L444.551 184.063L442.016 179.67Z" fill="#E8E8E8"/>
<path d="M263.965 377.902L177.442 327.928C174.309 326.138 174.608 322.856 178.337 320.768L269.932 267.81C273.661 265.721 279.181 265.423 282.314 267.362L368.687 317.187C371.82 318.977 371.522 322.259 367.792 324.348L276.197 377.306C272.617 379.394 267.098 379.692 263.965 377.902Z" fill="#7DC3EA"/>
<path d="M269.336 361.494C266.8 361.494 264.562 361.046 262.623 360.002L176.249 310.028C174.012 308.834 172.818 306.895 172.818 304.657C172.818 302.27 174.459 300.033 177.144 298.392L268.739 245.434C273.215 242.898 279.778 242.6 283.657 244.986L370.031 294.812C372.268 296.005 373.462 297.944 373.462 300.182C373.462 302.569 371.821 304.806 369.135 306.447L277.541 359.405C275.154 360.748 272.17 361.494 269.336 361.494ZM265.159 355.527C267.546 356.869 272.17 356.72 275.005 355.079L366.599 302.121C367.942 301.375 368.39 300.629 368.39 300.331C368.39 300.182 368.091 299.734 367.495 299.436L281.121 249.611C278.734 248.268 274.11 248.417 271.275 250.058L179.68 303.016C178.338 303.762 177.89 304.508 177.89 304.806C177.89 304.956 178.189 305.403 178.785 305.702L265.159 355.527Z" fill="#E8E8E8"/>
<path d="M270.078 115.202C270.078 115.202 222.64 119.677 193.998 121.915L269.78 337.774L370.027 279.893L370.176 279.744C371.37 278.998 372.265 277.208 372.265 274.821V63.8848C372.265 61.6472 371.668 59.2604 370.475 57.1719L270.078 115.202Z" fill="url(#paint12_radial_122_52893)"/>
<path d="M366.296 51.9508L278.132 1.08141C276.641 0.186349 275.149 0.186348 274.105 0.783056L173.41 58.813L178.184 76.4159L203.395 148.319L208.168 151.004L370.771 57.172C369.578 54.9344 367.937 52.9951 366.296 51.9508Z" fill="url(#paint13_linear_122_52893)"/>
<path d="M265.601 337.625L177.437 286.755C174.006 284.816 171.172 279.446 171.172 274.821V63.8846C171.172 59.2601 174.006 57.1717 177.437 59.2601L265.601 110.13C269.032 112.069 271.866 117.439 271.866 122.064V333C271.866 337.476 269.032 339.564 265.601 337.625Z" fill="#5793CE"/>
<path d="M267.54 108.938L179.376 58.0683C177.437 56.8749 175.647 57.1733 174.453 58.3667C175.348 58.2175 176.392 58.3667 177.437 59.1126L265.6 109.982C269.031 111.921 271.866 117.292 271.866 121.916V332.853C271.866 334.792 271.418 336.284 270.523 337.179C272.463 336.88 273.805 334.941 273.805 331.808V120.872C273.805 116.247 270.971 111.026 267.54 108.938Z" fill="#E8E8E8"/>
<path d="M260.083 324.943L182.958 280.488C179.975 278.698 177.588 274.074 177.588 270.046V74.0271C177.588 69.9994 179.975 68.2092 182.958 69.8502L260.083 114.305C263.066 116.095 265.453 120.72 265.453 124.747V320.766C265.453 324.794 263.066 326.584 260.083 324.943Z" fill="url(#paint14_linear_122_52893)"/>
<path d="M260.083 324.943L182.958 280.488C179.975 278.698 177.588 274.074 177.588 270.046V74.0271C177.588 69.9994 179.975 68.2092 182.958 69.8502L260.083 114.305C263.066 116.095 265.453 120.72 265.453 124.747V320.766C265.453 324.794 263.066 326.584 260.083 324.943Z" fill="url(#paint15_linear_122_52893)"/>
<path d="M260.083 324.943L182.958 280.488C179.975 278.698 177.588 274.074 177.588 270.046V74.0271C177.588 69.9994 179.975 68.2092 182.958 69.8502L260.083 114.305C263.066 116.095 265.453 120.72 265.453 124.747V320.766C265.453 324.794 263.066 326.584 260.083 324.943Z" fill="#173D7A"/>
<path d="M262.619 323.454L185.494 278.999C182.511 277.209 180.124 272.584 180.124 268.557V72.5378C180.124 71.1952 180.422 70.0017 180.87 69.2559C178.931 69.2559 177.588 71.046 177.588 74.0295V270.048C177.588 274.076 179.975 278.701 182.958 280.491L260.083 324.945C262.022 326.139 263.812 325.691 264.707 324.05C264.111 324.05 263.365 323.901 262.619 323.454Z" fill="#396CAA"/>
<path d="M260.085 234.986L231.443 218.428L185.795 244.832L265.605 290.928V245.429C265.456 241.252 263.069 236.627 260.085 234.986Z" fill="#173D7A"/>
<path d="M260.085 194.71L231.443 178.301L185.795 204.705L265.605 250.801V205.302C265.456 201.125 263.069 196.5 260.085 194.71Z" fill="#173D7A"/>
<path d="M260.085 154.582L231.443 138.023L185.795 164.428L265.605 210.524V165.025C265.456 160.997 263.069 156.372 260.085 154.582Z" fill="#173D7A"/>
<path d="M260.085 114.453L231.443 97.8945L185.795 124.299L265.605 170.395V124.896C265.456 120.868 263.069 116.243 260.085 114.453Z" fill="#173D7A"/>
<path d="M260.085 114.453L196.685 77.9043L185.795 84.1697L265.605 130.265V124.895C265.456 120.867 263.069 116.243 260.085 114.453Z" fill="#173D7A"/>
<path d="M265.456 130.266L185.795 84.1699V109.53L265.456 155.626V130.266Z" fill="#5793CE"/>
<path d="M265.456 170.395L185.795 124.299V149.659L265.456 195.755V170.395Z" fill="#5793CE"/>
<path d="M265.456 210.523L185.795 164.428V189.788L265.456 235.884V210.523Z" fill="#5793CE"/>
<path d="M265.456 250.652L185.795 204.557V230.066L265.456 276.012V250.652Z" fill="#5793CE"/>
<path d="M265.456 290.783L185.795 244.836V270.196L265.456 316.143V290.783Z" fill="#5793CE"/>
<path d="M258.443 146.532L198.324 111.773C196.683 110.729 195.191 108.193 195.191 105.955V99.0932C195.191 96.8556 196.534 95.8113 198.324 96.7064L258.443 131.465C260.083 132.509 261.575 135.045 261.575 137.283V144.145C261.575 146.532 260.233 147.576 258.443 146.532Z" fill="#173D7A"/>
<path opacity="0.3" d="M201.457 110.58C199.816 109.535 198.324 106.999 198.324 104.762V97.8995C198.324 97.6012 198.324 97.1536 198.473 96.8553H198.324C196.683 95.811 195.191 96.8553 195.191 99.2421V106.104C195.191 108.342 196.534 111.027 198.324 111.922L258.443 146.68C259.934 147.576 261.128 146.83 261.426 145.338L201.457 110.58Z" fill="#06033E"/>
<path d="M239.647 127.884L203.546 106.999C202.949 106.701 202.502 105.657 202.502 104.911C202.502 104.165 202.949 103.717 203.546 104.165L239.647 125.05C240.244 125.348 240.691 126.392 240.691 127.138C240.691 127.884 240.244 128.332 239.647 127.884Z" fill="#E8E8E8"/>
<path d="M258.443 186.506L198.324 151.748C196.683 150.704 195.191 148.168 195.191 145.93V139.068C195.191 136.83 196.534 135.786 198.324 136.681L258.443 171.439C260.083 172.484 261.575 175.02 261.575 177.257V184.119C261.575 186.357 260.233 187.401 258.443 186.506Z" fill="#173D7A"/>
<path opacity="0.3" d="M201.457 150.406C199.816 149.362 198.324 146.825 198.324 144.588V137.726C198.324 137.427 198.324 136.98 198.473 136.681H198.324C196.683 135.637 195.191 136.681 195.191 139.068V145.93C195.191 148.168 196.534 150.853 198.324 151.748L258.443 186.507C259.934 187.402 261.128 186.656 261.426 185.164L201.457 150.406Z" fill="#06033E"/>
<path d="M239.647 167.859L203.546 146.974C202.949 146.675 202.502 145.631 202.502 144.885C202.502 144.139 202.949 143.692 203.546 144.139L239.647 165.024C240.244 165.323 240.691 166.367 240.691 167.113C240.691 167.859 240.244 168.157 239.647 167.859Z" fill="#E8E8E8"/>
<path d="M258.443 226.785L198.324 192.027C196.683 190.983 195.191 188.447 195.191 186.209V179.347C195.191 177.109 196.534 176.065 198.324 176.96L258.443 211.719C260.083 212.763 261.575 215.299 261.575 217.536V224.399C261.575 226.636 260.233 227.681 258.443 226.785Z" fill="#173D7A"/>
<path opacity="0.3" d="M201.457 190.685C199.816 189.641 198.324 187.105 198.324 184.867V178.005C198.324 177.707 198.324 177.259 198.473 176.961H198.324C196.683 175.917 195.191 176.961 195.191 179.348V186.21C195.191 188.447 196.534 191.133 198.324 192.028L258.443 226.786C259.934 227.681 261.128 226.935 261.426 225.443L201.457 190.685Z" fill="#06033E"/>
<path d="M239.647 208.138L203.546 187.253C202.949 186.955 202.502 185.911 202.502 185.165C202.502 184.419 202.949 183.971 203.546 184.419L239.647 205.304C240.244 205.602 240.691 206.646 240.691 207.392C240.691 208.138 240.244 208.436 239.647 208.138Z" fill="#D4ECFF"/>
<path d="M258.443 267.364L198.324 232.605C196.683 231.561 195.191 229.025 195.191 226.787V219.925C195.191 217.688 196.534 216.643 198.324 217.538L258.443 252.297C260.083 253.341 261.575 255.877 261.575 258.115V264.977C261.575 267.364 260.233 268.408 258.443 267.364Z" fill="#173D7A"/>
<path opacity="0.3" d="M201.457 231.412C199.816 230.367 198.324 227.831 198.324 225.594V218.732C198.324 218.433 198.324 217.986 198.473 217.687H198.324C196.683 216.643 195.191 217.687 195.191 220.074V226.936C195.191 229.174 196.534 231.859 198.324 232.754L258.443 267.512C259.934 268.408 261.128 267.662 261.426 266.17L201.457 231.412Z" fill="#06033E"/>
<path d="M239.647 248.716L203.546 227.831C202.949 227.533 202.502 226.489 202.502 225.743C202.502 224.997 202.949 224.549 203.546 224.997L239.647 245.882C240.244 246.18 240.691 247.224 240.691 247.97C240.691 248.716 240.244 249.164 239.647 248.716Z" fill="#FF2C9C"/>
<path d="M258.443 307.192L198.324 272.433C196.683 271.389 195.191 268.853 195.191 266.616V259.753C195.191 257.516 196.534 256.471 198.324 257.367L258.443 292.125C260.083 293.169 261.575 295.705 261.575 297.943V304.805C261.575 307.192 260.233 308.236 258.443 307.192Z" fill="#173D7A"/>
<path opacity="0.3" d="M201.457 271.24C199.816 270.195 198.324 267.659 198.324 265.422V258.56C198.324 258.261 198.324 257.814 198.473 257.515H198.324C196.683 256.471 195.191 257.515 195.191 259.902V266.764C195.191 269.002 196.534 271.687 198.324 272.582L258.443 307.341C259.934 308.236 261.128 307.49 261.426 305.998L201.457 271.24Z" fill="#06033E"/>
<path d="M239.647 288.544L203.546 267.659C202.949 267.361 202.502 266.317 202.502 265.571C202.502 264.825 202.949 264.378 203.546 264.825L239.647 285.71C240.244 286.008 240.691 287.052 240.691 287.798C240.691 288.544 240.244 288.992 239.647 288.544Z" fill="#D4ECFF"/>
<path opacity="0.5" d="M185.795 84.1738L192.06 87.7541V113.114L185.795 109.534V84.1738Z" fill="#173D7A"/>
<path opacity="0.5" d="M185.795 124.301L192.06 127.881V153.39L185.795 149.661V124.301Z" fill="#173D7A"/>
<path opacity="0.5" d="M185.795 164.43L192.06 168.159V193.519L185.795 189.79V164.43Z" fill="#173D7A"/>
<path opacity="0.5" d="M185.795 204.559L192.06 208.288V233.648L185.795 230.068V204.559Z" fill="#173D7A"/>
<path opacity="0.5" d="M185.795 244.836L192.06 248.416V273.776L185.795 270.196V244.836Z" fill="#173D7A"/>
<path d="M246.367 131.221C246.866 130.932 246.87 130.005 246.376 129.148C245.881 128.292 245.076 127.832 244.576 128.12C244.077 128.409 244.073 129.337 244.567 130.193C245.062 131.049 245.867 131.509 246.367 131.221Z" fill="#D4ECFF"/>
<path d="M252.179 133.551C252.179 134.297 251.583 134.744 250.837 134.297C250.091 133.849 249.494 132.954 249.494 132.059C249.494 131.164 250.091 130.866 250.837 131.313C251.583 131.761 252.179 132.656 252.179 133.551Z" fill="#FF2C9C"/>
<path d="M257.548 136.682C257.548 137.427 256.952 137.875 256.206 137.427C255.46 136.98 254.863 136.085 254.863 135.19C254.863 134.295 255.46 133.996 256.206 134.444C256.952 134.891 257.548 135.786 257.548 136.682Z" fill="#D4ECFF"/>
<path d="M246.808 170.547C246.808 171.293 246.212 171.74 245.466 171.293C244.72 170.845 244.123 169.95 244.123 169.055C244.123 168.16 244.72 167.862 245.466 168.309C246.212 168.757 246.808 169.801 246.808 170.547Z" fill="#FF2C9C"/>
<path d="M252.179 173.68C252.179 174.425 251.583 174.873 250.837 174.425C250.091 173.978 249.494 173.083 249.494 172.188C249.494 171.293 250.091 170.994 250.837 171.442C251.583 171.889 252.179 172.934 252.179 173.68Z" fill="#D4ECFF"/>
<path d="M257.548 176.811C257.548 177.557 256.952 178.004 256.206 177.557C255.46 177.109 254.863 176.214 254.863 175.319C254.863 174.573 255.46 174.126 256.206 174.573C256.952 175.021 257.548 175.916 257.548 176.811Z" fill="#E8E8E8"/>
<path d="M246.808 210.973C246.808 211.719 246.212 212.166 245.466 211.719C244.72 211.271 244.123 210.376 244.123 209.481C244.123 208.735 244.72 208.288 245.466 208.735C246.212 209.183 246.808 210.227 246.808 210.973Z" fill="#E8E8E8"/>
<path d="M252.179 214.105C252.179 214.851 251.583 215.299 250.837 214.851C250.091 214.404 249.494 213.509 249.494 212.614C249.494 211.719 250.091 211.42 250.837 211.868C251.583 212.315 252.179 213.359 252.179 214.105Z" fill="#FF2C9C"/>
<path d="M257.548 217.238C257.548 217.984 256.952 218.432 256.206 217.984C255.46 217.537 254.863 216.641 254.863 215.746C254.863 214.851 255.46 214.553 256.206 215.001C256.952 215.448 257.548 216.343 257.548 217.238Z" fill="#E8E8E8"/>
<path d="M246.808 250.803C246.808 251.549 246.212 251.996 245.466 251.549C244.72 251.101 244.123 250.206 244.123 249.311C244.123 248.416 244.72 248.117 245.466 248.565C246.212 249.013 246.808 250.057 246.808 250.803Z" fill="#E8E8E8"/>
<path d="M252.179 253.937C252.179 254.683 251.583 255.131 250.837 254.683C250.091 254.236 249.494 253.341 249.494 252.446C249.494 251.551 250.091 251.252 250.837 251.7C251.583 252.147 252.179 253.192 252.179 253.937Z" fill="#D4ECFF"/>
<path d="M257.548 257.069C257.548 257.814 256.952 258.262 256.206 257.814C255.46 257.367 254.863 256.472 254.863 255.577C254.863 254.831 255.46 254.383 256.206 254.831C256.952 255.278 257.548 256.323 257.548 257.069Z" fill="#D4ECFF"/>
<path d="M246.808 291.231C246.808 291.977 246.212 292.424 245.466 291.977C244.72 291.529 244.123 290.634 244.123 289.739C244.123 288.993 244.72 288.545 245.466 288.993C246.212 289.441 246.808 290.485 246.808 291.231Z" fill="#E8E8E8"/>
<path d="M252.179 294.363C252.179 295.109 251.583 295.557 250.837 295.109C250.091 294.662 249.494 293.766 249.494 292.871C249.494 291.976 250.091 291.678 250.837 292.126C251.583 292.573 252.179 293.617 252.179 294.363Z" fill="#FF2C9C"/>
<path d="M257.548 297.496C257.548 298.242 256.952 298.689 256.206 298.242C255.46 297.794 254.863 296.899 254.863 296.004C254.863 295.109 255.46 294.811 256.206 295.258C256.952 295.706 257.548 296.601 257.548 297.496Z" fill="#D4ECFF"/>
<path d="M285.148 309.133V129.374L285.447 129.225L360.483 85.8145V265.424L360.185 265.573L285.148 309.133ZM286.64 130.269V306.447L359.14 264.529V88.4996L286.64 130.269Z" fill="#173D7A"/>
<path d="M341.088 166.666L307.373 186.059C305.136 187.402 303.346 185.91 303.346 182.927V164.28C303.346 161.296 305.136 157.716 307.373 156.522L341.088 137.129C343.325 135.787 345.115 137.278 345.115 140.262V158.909C345.115 161.893 343.325 165.324 341.088 166.666Z" fill="#173D7A"/>
<path d="M341.832 136.683C341.981 137.13 342.13 137.876 342.13 138.622V157.269C342.13 160.253 340.34 163.833 338.103 165.026L304.388 184.419C304.09 184.569 303.792 184.718 303.643 184.718C304.239 186.359 305.731 186.955 307.372 185.911L341.086 166.518C343.324 165.176 345.114 161.745 345.114 158.761V140.114C345.114 137.578 343.771 136.235 341.832 136.683Z" fill="#5793CE"/>
<path d="M334.969 155.478C335.565 155.18 336.162 155.478 336.162 156.075V160.401C336.162 161.147 335.715 162.042 334.969 162.341C334.372 162.639 333.775 162.341 333.775 161.744V157.418C333.775 156.672 334.372 155.777 334.969 155.478Z" fill="#E8E8E8"/>
<path d="M330.047 158.76C330.644 158.461 331.24 158.76 331.24 159.356V163.086C331.24 163.832 330.793 164.727 330.047 165.025C329.45 165.323 328.854 165.025 328.854 164.428V160.699C329.003 159.953 329.45 159.058 330.047 158.76Z" fill="#D4ECFF"/>
<path d="M325.272 157.42C325.868 157.121 326.465 157.42 326.465 158.017V165.923C326.465 166.669 326.017 167.564 325.272 167.862C324.675 168.161 324.078 167.862 324.078 167.265V159.359C324.078 158.613 324.675 157.718 325.272 157.42Z" fill="#FF2C9C"/>
<path d="M320.5 155.627C321.097 155.328 321.693 155.627 321.693 156.224V168.605C321.693 169.351 321.246 170.246 320.5 170.545C319.903 170.843 319.307 170.545 319.307 169.948V157.566C319.307 156.82 319.754 156.074 320.5 155.627Z" fill="#D4ECFF"/>
<path d="M315.576 159.805C316.173 159.506 316.77 159.805 316.77 160.401V171.44C316.77 172.186 316.322 173.081 315.576 173.38C314.98 173.678 314.383 173.38 314.383 172.783V161.744C314.532 160.998 314.98 160.103 315.576 159.805Z" fill="#D4ECFF"/>
<path d="M310.803 167.56C311.4 167.262 311.996 167.56 311.996 168.157V174.124C311.996 174.87 311.549 175.765 310.803 176.064C310.206 176.362 309.609 176.064 309.609 175.467V169.5C309.609 168.903 310.206 168.008 310.803 167.56Z" fill="#E8E8E8"/>
<path d="M333.775 153.243C333.775 153.989 334.223 154.288 334.82 153.84C335.416 153.542 335.864 152.647 335.864 151.901C335.864 151.155 335.416 150.856 334.82 151.304C334.372 151.752 333.775 152.647 333.775 153.243Z" fill="#FF2C9C"/>
<path d="M335.66 149.046C336.113 148.261 336.133 147.425 335.705 147.178C335.277 146.93 334.563 147.366 334.11 148.151C333.656 148.936 333.636 149.773 334.064 150.02C334.492 150.267 335.207 149.831 335.66 149.046Z" fill="#E8E8E8"/>
<path d="M266.057 469.046L214.591 439.36C211.458 437.57 211.756 434.288 215.486 432.2L265.162 403.558C268.742 401.469 274.261 401.171 277.543 403.11L329.009 432.796C332.142 434.586 331.844 437.868 328.114 439.957L278.438 468.599C274.858 470.687 269.339 470.837 266.057 469.046Z" fill="#7DC3EA"/>
<path d="M271.576 456.963C269.04 456.963 266.654 456.366 264.714 455.322L213.248 425.636C211.011 424.293 209.668 422.205 209.668 419.967C209.668 417.431 211.309 415.044 214.143 413.403L263.819 384.761C268.444 382.076 275.008 381.927 279.035 384.314L330.501 414C332.739 415.343 334.082 417.431 334.082 419.669C334.082 422.205 332.441 424.592 329.606 426.233L279.93 454.725C277.394 456.217 274.411 456.963 271.576 456.963ZM267.549 450.25C269.786 451.593 274.262 451.294 276.947 449.803L326.623 421.16C327.816 420.415 328.115 419.818 328.115 419.669C328.115 419.669 327.965 419.37 327.518 419.072L276.052 389.386C273.814 388.043 269.339 388.342 266.654 389.833L216.978 418.475C215.784 419.221 215.486 419.818 215.486 419.967C215.486 419.967 215.635 420.265 216.083 420.564L267.549 450.25Z" fill="#E8E8E8"/>
<path d="M331.097 401.32V383.568H291.267L277.542 375.661C274.41 373.871 268.89 374.02 265.161 376.109L252.331 383.568H212.501V401.767C212.352 402.961 213.098 404.154 214.59 405.049L266.056 434.735C269.189 436.525 274.708 436.376 278.437 434.288L328.113 405.646C330.202 404.303 331.246 402.811 331.097 401.32Z" fill="#396CAA"/>
<path d="M271.877 374.32C269.49 374.32 267.103 374.917 265.313 376.11L252.484 383.569H212.654V401.769C212.504 402.962 213.25 404.156 214.742 405.051L266.208 434.737C267.7 435.632 269.788 436.08 271.877 435.93V374.32Z" fill="url(#paint16_radial_122_52893)"/>
<path d="M216.976 383.42H212.501V401.62C212.352 402.813 213.098 404.006 214.59 404.901L216.976 406.244V383.42Z" fill="#D4ECFF"/>
<path d="M266.953 435.182C269.638 436.375 273.666 436.226 276.799 435.032V414.297H266.953V435.182Z" fill="#5793CE"/>
<path d="M266.057 416.537L214.591 386.85C211.458 385.06 211.756 381.778 215.486 379.69L265.162 351.048C268.742 348.959 274.261 348.661 277.543 350.6L329.009 380.287C332.142 382.077 331.844 385.359 328.114 387.447L278.438 416.089C274.858 418.178 269.339 418.327 266.057 416.537Z" fill="url(#paint17_linear_122_52893)"/>
<path d="M328.113 383.868L278.437 412.51C274.857 414.598 269.337 414.897 266.055 412.957L214.589 383.271C213.843 382.824 213.396 382.376 212.948 381.928C211.904 383.719 212.351 385.509 214.589 386.851L266.055 416.538C269.188 418.328 274.707 418.179 278.437 416.09L328.113 387.448C330.947 385.807 331.842 383.569 330.649 381.779C330.201 382.376 329.306 383.122 328.113 383.868Z" fill="#E8E8E8"/>
<path d="M312.302 405.947C312.302 407.289 311.407 408.93 310.213 409.527C309.02 410.124 308.125 409.676 308.125 408.334C308.125 406.991 309.02 405.35 310.213 404.753C311.258 404.157 312.302 404.604 312.302 405.947Z" fill="#D4ECFF"/>
<path d="M318.866 402.07C318.866 403.413 317.971 405.053 316.778 405.65C315.585 406.247 314.689 405.799 314.689 404.457C314.689 403.114 315.585 401.473 316.778 400.877C317.971 400.28 318.866 400.727 318.866 402.07Z" fill="#D4ECFF"/>
<path d="M325.579 398.189C325.579 399.532 324.684 401.173 323.491 401.769C322.297 402.366 321.402 401.919 321.402 400.576C321.402 399.233 322.297 397.593 323.491 396.996C324.684 396.399 325.579 396.996 325.579 398.189Z" fill="#D4ECFF"/>
<path d="M269.189 398.188L245.171 384.314C243.68 383.419 243.829 381.927 245.619 381.032L268.891 367.606C270.532 366.562 273.217 366.562 274.708 367.308L298.726 381.182C300.218 382.077 300.069 383.568 298.278 384.463L275.007 397.889C273.217 398.934 270.681 398.934 269.189 398.188Z" fill="#5793CE"/>
<path d="M271.427 386.554L268.145 384.615C267.996 384.466 267.996 384.317 268.145 384.168L271.427 382.378C271.725 382.228 272.024 382.228 272.173 382.378L275.455 384.317C275.604 384.466 275.604 384.615 275.455 384.764L272.173 386.554C272.024 386.554 271.725 386.554 271.427 386.554Z" fill="#D4ECFF"/>
<path d="M245.022 384.166C245.171 384.166 245.321 384.017 245.47 384.017L268.741 370.591C270.382 369.547 273.068 369.547 274.559 370.293L298.577 384.166C299.919 383.122 300.069 381.929 298.577 381.033L274.559 367.16C273.068 366.265 270.532 366.414 268.741 367.458L245.47 380.884C243.829 381.929 243.53 383.42 245.022 384.166Z" fill="#396CAA"/>
<path d="M454.768 337.923L403.301 308.237C400.169 306.447 400.467 303.165 404.197 301.077L453.872 272.435C457.453 270.346 462.972 270.048 466.254 271.987L517.72 301.673C520.853 303.463 520.555 306.745 516.825 308.834L467.149 337.327C463.42 339.415 457.9 339.714 454.768 337.923Z" fill="#7DC3EA"/>
<path d="M460.137 325.84C457.601 325.84 455.214 325.243 453.275 324.199L401.809 294.513C399.571 293.17 398.229 291.082 398.229 288.844C398.229 286.308 399.869 283.921 402.704 282.28L452.38 253.638C457.004 250.953 463.568 250.804 467.596 253.191L519.062 282.877C521.3 284.22 522.642 286.308 522.642 288.546C522.642 291.082 521.001 293.469 518.167 295.109L468.64 323.602C466.104 325.094 463.121 325.84 460.137 325.84ZM456.258 319.127C458.496 320.47 462.971 320.171 465.657 318.679L515.333 290.037C516.526 289.292 516.824 288.695 516.824 288.546C516.824 288.546 516.675 288.247 516.228 287.949L464.762 258.263C462.524 256.92 458.049 257.218 455.363 258.71L405.687 287.352C404.494 288.098 404.196 288.695 404.196 288.844C404.196 288.844 404.345 289.142 404.792 289.441L456.258 319.127Z" fill="#E8E8E8"/>
<path d="M519.81 270.197V252.445H479.98L466.255 244.538C463.123 242.748 457.603 242.897 453.874 244.986L441.044 252.445H401.214V270.644C401.065 271.838 401.811 273.031 403.303 273.926L454.769 303.612C457.901 305.402 463.421 305.253 467.15 303.165L516.826 274.523C518.915 273.18 519.959 271.688 519.81 270.197Z" fill="#396CAA"/>
<path d="M460.586 243.197C458.199 243.197 455.812 243.794 454.022 244.987L441.193 252.446H401.362V270.646C401.213 271.839 401.959 273.033 403.451 273.928L454.917 303.614C456.409 304.509 458.497 304.957 460.586 304.807V243.197Z" fill="url(#paint18_radial_122_52893)"/>
<path d="M405.689 252.297H401.214V270.496C401.065 271.69 401.811 272.883 403.303 273.778L405.689 275.121V252.297Z" fill="#D4ECFF"/>
<path d="M455.662 304.059C458.347 305.252 462.375 305.103 465.508 303.909V283.174H455.662V304.059Z" fill="#5793CE"/>
<path d="M454.768 285.414L403.301 255.727C400.169 253.937 400.467 250.655 404.197 248.567L453.872 219.925C457.453 217.836 462.972 217.538 466.254 219.477L517.72 249.164C520.853 250.954 520.555 254.236 516.825 256.324L467.149 284.966C463.42 287.055 457.9 287.204 454.768 285.414Z" fill="url(#paint19_linear_122_52893)"/>
<path d="M516.826 252.745L467.15 281.387C463.57 283.475 458.05 283.774 454.768 281.834L403.302 252.148C402.556 251.7 402.109 251.253 401.661 250.805C400.617 252.596 401.064 254.386 403.302 255.728L454.768 285.415C457.901 287.205 463.42 287.055 467.15 284.967L516.826 256.325C519.66 254.684 520.555 252.446 519.362 250.656C518.765 251.253 518.019 251.999 516.826 252.745Z" fill="#E8E8E8"/>
<path d="M500.862 274.82C500.862 276.163 499.967 277.803 498.774 278.4C497.581 278.997 496.686 278.549 496.686 277.207C496.686 275.864 497.581 274.223 498.774 273.627C499.967 273.03 500.862 273.477 500.862 274.82Z" fill="#D4ECFF"/>
<path d="M507.575 270.943C507.575 272.286 506.68 273.927 505.487 274.523C504.294 275.12 503.398 274.672 503.398 273.33C503.398 271.987 504.294 270.346 505.487 269.75C506.68 269.153 507.575 269.6 507.575 270.943Z" fill="#D4ECFF"/>
<path d="M514.288 267.064C514.288 268.407 513.393 270.048 512.2 270.644C511.006 271.241 510.111 270.794 510.111 269.451C510.111 268.108 511.006 266.467 512.2 265.871C513.393 265.274 514.288 265.721 514.288 267.064Z" fill="#D4ECFF"/>
<path d="M457.9 266.916L433.882 253.043C432.391 252.148 432.54 250.656 434.33 249.761L457.601 236.335C459.242 235.291 461.928 235.291 463.419 236.037L487.437 249.91C488.929 250.805 488.78 252.297 486.989 253.192L463.718 266.618C461.928 267.662 459.392 267.811 457.9 266.916Z" fill="#5793CE"/>
<path d="M460.14 255.283L456.858 253.344C456.709 253.195 456.709 253.045 456.858 252.896L460.14 251.106C460.438 250.957 460.737 250.957 460.886 251.106L464.168 253.045C464.317 253.195 464.317 253.344 464.168 253.493L460.886 255.283C460.737 255.432 460.289 255.432 460.14 255.283Z" fill="#D4ECFF"/>
<path d="M433.734 253.043C433.883 253.043 434.032 252.894 434.181 252.894L457.453 239.468C459.094 238.424 461.779 238.424 463.271 239.17L487.289 253.043C488.631 251.999 488.78 250.805 487.289 249.91L463.271 236.037C461.779 235.142 459.243 235.291 457.453 236.335L434.181 249.761C432.391 250.656 432.242 252.148 433.734 253.043Z" fill="#396CAA"/>
<path d="M77.4981 337.923L26.032 308.237C22.8992 306.447 23.1976 303.165 26.927 301.077L76.603 272.435C80.1833 270.346 85.7028 270.048 88.9847 271.987L140.451 301.673C143.584 303.463 143.285 306.745 139.556 308.834L89.7306 337.327C86.1503 339.415 80.6308 339.714 77.4981 337.923Z" fill="#7DC3EA"/>
<path d="M82.8675 325.84C80.3315 325.84 77.9446 325.243 76.0053 324.199L24.5392 294.513C22.3016 293.17 20.959 291.082 20.959 288.844C20.959 286.308 22.5999 283.921 25.4343 282.28L75.1103 253.638C79.7348 250.953 86.2986 250.804 90.3264 253.191L141.792 282.877C144.03 284.22 145.373 286.308 145.373 288.546C145.373 291.082 143.732 293.469 140.897 295.109L91.2214 323.602C88.8346 325.094 85.7019 325.84 82.8675 325.84ZM78.9889 319.127C81.2265 320.47 85.7019 320.171 88.3871 318.679L138.063 290.037C139.256 289.292 139.555 288.695 139.555 288.546C139.555 288.546 139.406 288.247 138.958 287.949L87.492 258.263C85.2543 256.92 80.779 257.218 78.0939 258.71L28.4178 287.352C27.2244 288.098 26.9261 288.695 26.9261 288.844C26.9261 288.844 27.0753 289.142 27.5228 289.441L78.9889 319.127Z" fill="#E8E8E8"/>
<path d="M142.54 270.197V252.445H102.71L88.9858 244.538C85.853 242.748 80.3335 242.897 76.6041 244.986L63.7748 252.445H23.9445V270.644C23.7953 271.838 24.5412 273.031 26.033 273.926L77.4991 303.612C80.6318 305.402 86.1514 305.253 89.8808 303.165L139.557 274.523C141.645 273.18 142.69 271.688 142.54 270.197Z" fill="#396CAA"/>
<path d="M83.1679 243.197C80.781 243.197 78.3942 243.794 76.6041 244.987L63.7748 252.446H23.9445V270.646C23.7953 271.839 24.5412 273.033 26.033 273.928L77.4991 303.614C78.9909 304.509 81.0794 304.957 83.1679 304.807V243.197Z" fill="url(#paint20_radial_122_52893)"/>
<path d="M28.4198 252.297H23.9445V270.496C23.7953 271.69 24.5412 272.883 26.033 273.778L28.4198 275.121V252.297Z" fill="#D4ECFF"/>
<path d="M78.2441 304.059C80.9293 305.252 84.9571 305.103 88.0898 303.909V283.174H78.2441V304.059Z" fill="#5793CE"/>
<path d="M77.4981 285.414L26.032 255.727C22.8992 253.937 23.1976 250.655 26.927 248.567L76.603 219.925C80.1833 217.836 85.7028 217.538 88.9847 219.477L140.451 249.164C143.584 250.954 143.285 254.236 139.556 256.324L89.7306 284.966C86.1503 287.055 80.6308 287.204 77.4981 285.414Z" fill="url(#paint21_linear_122_52893)"/>
<path d="M139.553 252.745L89.728 281.387C86.1477 283.475 80.6282 283.774 77.3463 281.834L25.8801 252.148C25.1342 251.7 24.6867 251.253 24.2392 250.805C23.195 252.596 23.6425 254.386 25.8801 255.728L77.3463 285.415C80.479 287.205 85.9985 287.055 89.728 284.967L139.404 256.325C142.238 254.684 143.133 252.446 141.94 250.656C141.492 251.253 140.597 251.999 139.553 252.745Z" fill="#E8E8E8"/>
<path d="M123.593 274.82C123.593 276.163 122.698 277.803 121.504 278.4C120.311 278.997 119.416 278.549 119.416 277.207C119.416 275.864 120.311 274.223 121.504 273.627C122.698 273.03 123.593 273.477 123.593 274.82Z" fill="#D4ECFF"/>
<path d="M130.306 270.943C130.306 272.286 129.411 273.927 128.217 274.523C127.024 275.12 126.129 274.672 126.129 273.33C126.129 271.987 127.024 270.346 128.217 269.75C129.262 269.153 130.306 269.6 130.306 270.943Z" fill="#D4ECFF"/>
<path d="M137.019 267.064C137.019 268.407 136.124 270.048 134.93 270.644C133.737 271.241 132.842 270.794 132.842 269.451C132.842 268.108 133.737 266.467 134.93 265.871C135.975 265.274 137.019 265.721 137.019 267.064Z" fill="#D4ECFF"/>
<path d="M80.4819 266.916L56.4644 253.043C54.9726 252.148 55.1218 250.656 56.9119 249.761L80.1836 236.335C81.8245 235.291 84.5097 235.291 86.0015 236.037L110.019 249.91C111.511 250.805 111.362 252.297 109.571 253.192L86.2998 266.618C84.5097 267.662 81.9737 267.811 80.4819 266.916Z" fill="#5793CE"/>
<path d="M82.8703 255.283L79.5884 253.344C79.4393 253.195 79.4393 253.045 79.5884 252.896L82.8703 251.106C83.1687 250.957 83.467 250.957 83.6162 251.106L86.8981 253.045C87.0473 253.195 87.0473 253.344 86.8981 253.493L83.6162 255.283C83.3178 255.432 83.0195 255.432 82.8703 255.283Z" fill="#D4ECFF"/>
<path d="M56.4644 253.043C56.6136 253.043 56.7627 252.894 56.9119 252.894L80.1836 239.468C81.8245 238.424 84.5097 238.424 86.0015 239.17L110.019 253.043C111.362 251.999 111.511 250.805 110.019 249.91L86.0015 236.037C84.5097 235.142 81.9737 235.291 80.1836 236.335L56.9119 249.761C55.1218 250.656 54.9726 252.148 56.4644 253.043Z" fill="#396CAA"/>
<defs>
<radialGradient id="paint0_radial_122_52893" cx="0" cy="0" r="1" gradientUnits="userSpaceOnUse" gradientTransform="translate(79.9963 380.069) scale(50.226 50.226)">
<stop stop-color="#274F89"/>
<stop offset="1" stop-color="#173D7A"/>
</radialGradient>
<linearGradient id="paint1_linear_122_52893" x1="49.4852" y1="361.844" x2="138.361" y2="361.844" gradientUnits="userSpaceOnUse">
<stop stop-color="#D4ECFF"/>
<stop offset="0.2385" stop-color="#D0EAFE"/>
<stop offset="0.4599" stop-color="#C5E2F9"/>
<stop offset="0.6745" stop-color="#B2D6F2"/>
<stop offset="0.8837" stop-color="#98C4E7"/>
<stop offset="1" stop-color="#86B8E0"/>
</linearGradient>
<radialGradient id="paint2_radial_122_52893" cx="0" cy="0" r="1" gradientUnits="userSpaceOnUse" gradientTransform="translate(7.78523 328.094) scale(90.7883 90.7883)">
<stop stop-color="#699DD1"/>
<stop offset="0.2662" stop-color="#6396CC"/>
<stop offset="0.6412" stop-color="#5184BD"/>
<stop offset="1" stop-color="#396CAA"/>
</radialGradient>
<radialGradient id="paint3_radial_122_52893" cx="0" cy="0" r="1" gradientUnits="userSpaceOnUse" gradientTransform="translate(457.327 170.481) scale(50.226 50.226)">
<stop stop-color="#274F89"/>
<stop offset="1" stop-color="#173D7A"/>
</radialGradient>
<linearGradient id="paint4_linear_122_52893" x1="426.816" y1="152.256" x2="515.692" y2="152.256" gradientUnits="userSpaceOnUse">
<stop stop-color="#D4ECFF"/>
<stop offset="0.2385" stop-color="#D0EAFE"/>
<stop offset="0.4599" stop-color="#C5E2F9"/>
<stop offset="0.6745" stop-color="#B2D6F2"/>
<stop offset="0.8837" stop-color="#98C4E7"/>
<stop offset="1" stop-color="#86B8E0"/>
</linearGradient>
<radialGradient id="paint5_radial_122_52893" cx="0" cy="0" r="1" gradientUnits="userSpaceOnUse" gradientTransform="translate(385.116 118.506) scale(90.7882 90.7883)">
<stop stop-color="#699DD1"/>
<stop offset="0.2662" stop-color="#6396CC"/>
<stop offset="0.6412" stop-color="#5184BD"/>
<stop offset="1" stop-color="#396CAA"/>
</radialGradient>
<radialGradient id="paint6_radial_122_52893" cx="0" cy="0" r="1" gradientUnits="userSpaceOnUse" gradientTransform="translate(457.327 380.069) scale(50.226 50.226)">
<stop stop-color="#274F89"/>
<stop offset="1" stop-color="#173D7A"/>
</radialGradient>
<linearGradient id="paint7_linear_122_52893" x1="426.816" y1="361.844" x2="515.692" y2="361.844" gradientUnits="userSpaceOnUse">
<stop stop-color="#D4ECFF"/>
<stop offset="0.2385" stop-color="#D0EAFE"/>
<stop offset="0.4599" stop-color="#C5E2F9"/>
<stop offset="0.6745" stop-color="#B2D6F2"/>
<stop offset="0.8837" stop-color="#98C4E7"/>
<stop offset="1" stop-color="#86B8E0"/>
</linearGradient>
<radialGradient id="paint8_radial_122_52893" cx="0" cy="0" r="1" gradientUnits="userSpaceOnUse" gradientTransform="translate(385.116 328.094) scale(90.7882 90.7883)">
<stop stop-color="#699DD1"/>
<stop offset="0.2662" stop-color="#6396CC"/>
<stop offset="0.6412" stop-color="#5184BD"/>
<stop offset="1" stop-color="#396CAA"/>
</radialGradient>
<radialGradient id="paint9_radial_122_52893" cx="0" cy="0" r="1" gradientUnits="userSpaceOnUse" gradientTransform="translate(79.9963 170.481) scale(50.226 50.226)">
<stop stop-color="#274F89"/>
<stop offset="1" stop-color="#173D7A"/>
</radialGradient>
<linearGradient id="paint10_linear_122_52893" x1="49.4852" y1="152.256" x2="138.361" y2="152.256" gradientUnits="userSpaceOnUse">
<stop stop-color="#D4ECFF"/>
<stop offset="0.2385" stop-color="#D0EAFE"/>
<stop offset="0.4599" stop-color="#C5E2F9"/>
<stop offset="0.6745" stop-color="#B2D6F2"/>
<stop offset="0.8837" stop-color="#98C4E7"/>
<stop offset="1" stop-color="#86B8E0"/>
</linearGradient>
<radialGradient id="paint11_radial_122_52893" cx="0" cy="0" r="1" gradientUnits="userSpaceOnUse" gradientTransform="translate(7.78523 118.506) scale(90.7883 90.7883)">
<stop stop-color="#699DD1"/>
<stop offset="0.2662" stop-color="#6396CC"/>
<stop offset="0.6412" stop-color="#5184BD"/>
<stop offset="1" stop-color="#396CAA"/>
</radialGradient>
<radialGradient id="paint12_radial_122_52893" cx="0" cy="0" r="1" gradientUnits="userSpaceOnUse" gradientTransform="translate(235.907 163.94) scale(180.722 180.722)">
<stop stop-color="#396CAA"/>
<stop offset="1" stop-color="#274F89"/>
</radialGradient>
<linearGradient id="paint13_linear_122_52893" x1="179.06" y1="35.733" x2="347.575" y2="138.406" gradientUnits="userSpaceOnUse">
<stop stop-color="#D4ECFF"/>
<stop offset="0.2385" stop-color="#D0EAFE"/>
<stop offset="0.4599" stop-color="#C5E2F9"/>
<stop offset="0.6745" stop-color="#B2D6F2"/>
<stop offset="0.8837" stop-color="#98C4E7"/>
<stop offset="1" stop-color="#86B8E0"/>
</linearGradient>
<linearGradient id="paint14_linear_122_52893" x1="174.18" y1="184.402" x2="254.368" y2="171.992" gradientUnits="userSpaceOnUse">
<stop stop-color="#3919BB"/>
<stop offset="1" stop-color="#6507FA"/>
</linearGradient>
<linearGradient id="paint15_linear_122_52893" x1="174.18" y1="184.402" x2="254.368" y2="171.992" gradientUnits="userSpaceOnUse">
<stop stop-color="#3919BB"/>
<stop offset="1" stop-color="#6507FA"/>
</linearGradient>
<radialGradient id="paint16_radial_122_52893" cx="0" cy="0" r="1" gradientUnits="userSpaceOnUse" gradientTransform="translate(215.788 378.301) scale(65.075 65.0749)">
<stop stop-color="#699DD1"/>
<stop offset="0.2662" stop-color="#6396CC"/>
<stop offset="0.6412" stop-color="#5184BD"/>
<stop offset="1" stop-color="#396CAA"/>
</radialGradient>
<linearGradient id="paint17_linear_122_52893" x1="228.068" y1="357.436" x2="330.002" y2="418.207" gradientUnits="userSpaceOnUse">
<stop stop-color="#D4ECFF"/>
<stop offset="0.2009" stop-color="#D0EAFE"/>
<stop offset="0.3874" stop-color="#C5E2F9"/>
<stop offset="0.5682" stop-color="#B2D6F2"/>
<stop offset="0.7444" stop-color="#98C4E7"/>
<stop offset="0.8423" stop-color="#86B8E0"/>
</linearGradient>
<radialGradient id="paint18_radial_122_52893" cx="0" cy="0" r="1" gradientUnits="userSpaceOnUse" gradientTransform="translate(404.458 247.151) scale(65.0751 65.0751)">
<stop stop-color="#699DD1"/>
<stop offset="0.2662" stop-color="#6396CC"/>
<stop offset="0.6412" stop-color="#5184BD"/>
<stop offset="1" stop-color="#396CAA"/>
</radialGradient>
<linearGradient id="paint19_linear_122_52893" x1="416.74" y1="226.286" x2="518.674" y2="287.058" gradientUnits="userSpaceOnUse">
<stop stop-color="#D4ECFF"/>
<stop offset="0.2009" stop-color="#D0EAFE"/>
<stop offset="0.3874" stop-color="#C5E2F9"/>
<stop offset="0.5682" stop-color="#B2D6F2"/>
<stop offset="0.7444" stop-color="#98C4E7"/>
<stop offset="0.8423" stop-color="#86B8E0"/>
</linearGradient>
<radialGradient id="paint20_radial_122_52893" cx="0" cy="0" r="1" gradientUnits="userSpaceOnUse" gradientTransform="translate(27.1266 247.151) scale(65.0751 65.0751)">
<stop stop-color="#699DD1"/>
<stop offset="0.2662" stop-color="#6396CC"/>
<stop offset="0.6412" stop-color="#5184BD"/>
<stop offset="1" stop-color="#396CAA"/>
</radialGradient>
<linearGradient id="paint21_linear_122_52893" x1="39.4079" y1="226.286" x2="141.342" y2="287.058" gradientUnits="userSpaceOnUse">
<stop stop-color="#D4ECFF"/>
<stop offset="0.2009" stop-color="#D0EAFE"/>
<stop offset="0.3874" stop-color="#C5E2F9"/>
<stop offset="0.5682" stop-color="#B2D6F2"/>
<stop offset="0.7444" stop-color="#98C4E7"/>
<stop offset="0.8423" stop-color="#86B8E0"/>
</linearGradient>
</defs>
</svg>
