<svg width="196" height="167" fill="none" xmlns="http://www.w3.org/2000/svg"><path d="M93.32 112.971a1.584 1.584 0 00-1.766.538l-11.53 15.063a3.612 3.612 0 01-2.852 1.405c-.626 0-1.24-.162-1.78-.473L22.558 99.352a1.585 1.585 0 00-2.369 1.376v23.518c0 .566.302 1.088.79 1.37l71.039 41.1a1.575 1.575 0 001.585.001c.49-.283.791-.806.791-1.371v-50.875c0-.679-.432-1.283-1.075-1.5zM174.992 99.358a1.586 1.586 0 00-1.58-.006l-52.838 30.155a3.572 3.572 0 01-1.774.469 3.609 3.609 0 01-2.851-1.402l-11.532-15.066a1.583 1.583 0 00-2.841.961v50.875a1.584 1.584 0 002.377 1.371l71.038-41.1c.489-.283.79-.805.79-1.371v-23.518c0-.563-.301-1.084-.789-1.368z" fill="#fff"/><path d="M195.951 35.056a1.589 1.589 0 00-.887-1.174L123.553.152a1.583 1.583 0 00-1.725.246l-20.439 18.086-2.662-1.412a1.583 1.583 0 00-1.485 0l-2.662 1.413L74.145.398A1.586 1.586 0 0072.42.15L.908 33.882a1.585 1.585 0 00-.425 2.571l21.34 20.628-3.362 1.785a1.583 1.583 0 00-.635.619L6.236 79.953c-.43.759-.165 1.723.593 2.155l68.199 38.923c.688.393 1.56.217 2.042-.412l14.41-18.821a1.586 1.586 0 00-.492-2.35L23.286 62.15l72.12-38.27.002 47.055-17.705 10.26a1.584 1.584 0 00.03 2.757L97.22 94.688a1.584 1.584 0 001.529 0l19.489-10.736a1.586 1.586 0 00.03-2.758l-17.705-10.259V23.88l72.121 38.269-67.7 37.299a1.586 1.586 0 00-.493 2.35l14.411 18.823a1.587 1.587 0 002.042.411l68.199-38.923a1.584 1.584 0 00.594-2.155l-11.593-20.47a1.584 1.584 0 00-.635-.617l-3.358-1.785 21.338-20.628a1.59 1.59 0 00.462-1.398z" fill="#fff"/></svg>