<svg height="504pt" viewBox="0 -100 504 504" width="504pt" xmlns="http://www.w3.org/2000/svg"><path d="m496 0h-128c-4.398438 0-8 3.59375-8 8v288c0 4.390625 3.601562 8 8 8h128c4.398438 0 8-3.609375 8-8v-288c0-4.40625-3.601562-8-8-8zm-64 136c-8.878906 0-16-7.199219-16-16s7.121094-16 16-16c8.800781 0 16 7.199219 16 16s-7.199219 16-16 16zm0 0" fill="#656d78"/><path d="m205.296875 248.0625h-74.59375l-13.167969 56h100.929688zm0 0" fill="#ccd1d9"/><path d="m336 215.839844v16.160156c0 8.800781-7.199219 16-16 16h-304c-8.800781 0-16-7.199219-16-16v-16.160156zm0 0" fill="#e6e9ed"/><path d="m320 200v-184h-304v184zm16-184v199.839844h-336v-199.839844c0-8.800781 7.199219-16 16-16h304c8.800781 0 16 7.199219 16 16zm0 0" fill="#656d78"/><path d="m16 16h304v184h-304zm0 0" fill="#5d9cec"/><path d="m432.238281 124c-2.207031 0-4.039062-1.792969-4.039062-4s1.753906-4 3.953125-4h.085937c2.203125 0 4 1.792969 4 4s-1.789062 4-4 4zm0 0" fill="#3a3847"/><path d="m400.238281 124c-2.207031 0-4.039062-1.792969-4.039062-4s1.753906-4 3.953125-4h.085937c2.203125 0 4 1.792969 4 4s-1.789062 4-4 4zm0 0" fill="#545c66"/><path d="m488.246094 52c-2.207032 0-4.039063-1.792969-4.039063-4s1.753907-4 3.953125-4h.085938c2.203125 0 4 1.792969 4 4s-1.789063 4-4 4zm0 0" fill="#aab2bd"/><path d="m488.246094 20c-2.207032 0-4.039063-1.792969-4.039063-4s1.753907-4 3.953125-4h.085938c2.203125 0 4 1.792969 4 4s-1.789063 4-4 4zm0 0" fill="#aab2bd"/><path d="m464.238281 124c-2.207031 0-4.039062-1.792969-4.039062-4s1.753906-4 3.953125-4h.085937c2.203125 0 4 1.792969 4 4s-1.789062 4-4 4zm0 0" fill="#545c66"/><path d="m480.238281 124c-2.207031 0-4.039062-1.792969-4.039062-4s1.753906-4 3.953125-4h.085937c2.203125 0 4 1.792969 4 4s-1.789062 4-4 4zm0 0" fill="#545c66"/><path d="m384.238281 124c-2.207031 0-4.039062-1.792969-4.039062-4s1.753906-4 3.953125-4h.085937c2.203125 0 4 1.792969 4 4s-1.789062 4-4 4zm0 0" fill="#545c66"/><path d="m168.238281 236c-2.207031 0-4.039062-1.792969-4.039062-4s1.753906-4 3.953125-4h.085937c2.203125 0 4 1.792969 4 4s-1.789062 4-4 4zm0 0" fill="#ccd1d9"/><path d="m432 104c8.800781 0 16 7.199219 16 16s-7.199219 16-16 16c-8.878906 0-16-7.199219-16-16s7.121094-16 16-16zm0 0" fill="#aab2bd"/><g fill="#545c66"><path d="m480 284h-96c-2.207031 0-4-1.792969-4-4s1.792969-4 4-4h96c2.207031 0 4 1.792969 4 4s-1.792969 4-4 4zm0 0"/><path d="m480 260h-96c-2.207031 0-4-1.792969-4-4s1.792969-4 4-4h96c2.207031 0 4 1.792969 4 4s-1.792969 4-4 4zm0 0"/><path d="m480 236h-96c-2.207031 0-4-1.792969-4-4s1.792969-4 4-4h96c2.207031 0 4 1.792969 4 4s-1.792969 4-4 4zm0 0"/><path d="m480 212h-96c-2.207031 0-4-1.792969-4-4s1.792969-4 4-4h96c2.207031 0 4 1.792969 4 4s-1.792969 4-4 4zm0 0"/><path d="m360 60v8h144v-8zm0 0"/><path d="m360 28v8h144v-8zm0 0"/></g><path d="m424 184c0 2.199219-1.800781 4-4 4h-16c-2.199219 0-4-1.800781-4-4v-4c0-2.199219 1.800781-4 4-4h16c2.199219 0 4 1.800781 4 4zm0 0" fill="#434a54"/><path d="m464 184c0 2.199219-1.800781 4-4 4h-16c-2.199219 0-4-1.800781-4-4v-4c0-2.199219 1.800781-4 4-4h16c2.199219 0 4 1.800781 4 4zm0 0" fill="#434a54"/><path d="m109.160156 200h41.398438l49.296875-184h-41.398438zm0 0" fill="#87bcf4"/><path d="m175.40625 200 49.296875-184h-16.558594l-49.304687 184zm0 0" fill="#87bcf4"/><path d="m231.992188 304h-128.0625c-2.210938 0-4-1.792969-4-4s1.789062-4 4-4h128.0625c2.207031 0 4 1.792969 4 4s-1.792969 4-4 4zm0 0" fill="#e6e9ed"/></svg>