<svg width="45" height="45" fill="none" xmlns="http://www.w3.org/2000/svg"><path d="M42.562 23.247a1.325 1.325 0 010-1.494l1.71-2.526c1.56-2.3.509-5.392-2.155-6.371l-2.93-1.078a1.377 1.377 0 01-.914-1.209l-.162-3.009c-.147-2.74-2.888-4.65-5.642-3.938l-3.03.783a1.462 1.462 0 01-1.48-.462l-1.972-2.344c-1.796-2.134-5.181-2.13-6.974 0L17.04 3.943a1.462 1.462 0 01-1.48.462l-3.029-.782C9.771 2.91 7.035 4.825 6.888 7.56l-.161 3.01a1.377 1.377 0 01-.915 1.208l-2.93 1.078c-2.669.981-3.71 4.075-2.155 6.371l1.711 2.526c.308.454.308 1.04 0 1.494l-1.71 2.526c-1.56 2.3-.509 5.392 2.155 6.371l2.93 1.078c.526.193.885.668.914 1.209l.162 3.009c.147 2.741 2.888 4.65 5.642 3.938l3.03-.783c.544-.14 1.125.04 1.48.462l1.972 2.343c1.796 2.135 5.181 2.131 6.974 0l1.973-2.343a1.464 1.464 0 011.48-.462l3.029.783c2.76.713 5.496-1.202 5.643-3.938l.161-3.01c.03-.54.388-1.015.915-1.208l2.93-1.078c2.668-.981 3.71-4.075 2.155-6.371l-1.711-2.526zm-1.538 6.154l-2.93 1.078c-1.655.608-2.784 2.1-2.875 3.8l-.162 3.01c-.046.871-.918 1.478-1.794 1.252l-3.03-.782c-1.712-.443-3.538.127-4.652 1.451l-1.972 2.344a1.464 1.464 0 01-2.218 0l-1.972-2.344c-.864-1.026-2.155-1.6-3.49-1.6a4.67 4.67 0 00-1.162.148l-3.03.783c-.878.226-1.748-.382-1.795-1.252l-.161-3.01c-.091-1.7-1.22-3.192-2.875-3.8L3.976 29.4c-.849-.312-1.18-1.296-.685-2.026L5 24.849a4.168 4.168 0 000-4.698l-1.71-2.526c-.496-.732-.162-1.714.685-2.026l2.93-1.078c1.655-.608 2.784-2.1 2.875-3.8l.162-3.01c.046-.872.918-1.478 1.794-1.252l3.03.782c1.712.443 3.538-.127 4.652-1.451l1.972-2.344a1.464 1.464 0 012.218 0l1.973 2.344c1.114 1.324 2.94 1.894 4.651 1.451l3.03-.782c.878-.226 1.748.382 1.795 1.252l.161 3.01c.091 1.7 1.22 3.192 2.875 3.8l2.93 1.078c.849.312 1.18 1.296.685 2.026L40 20.151a4.168 4.168 0 000 4.698l1.71 2.526c.496.732.162 1.715-.685 2.026z" fill="#1DBBBA"/><path d="M30.14 15.015a1.574 1.574 0 00-2.163 0L13.705 28.724a1.428 1.428 0 000 2.077c.299.287.69.43 1.081.43.392 0 .783-.143 1.082-.43l14.271-13.707a1.428 1.428 0 000-2.078zm-13.824-.43c-1.687 0-3.059 1.318-3.059 2.938s1.372 2.937 3.059 2.937c1.686 0 3.058-1.318 3.058-2.937 0-1.62-1.372-2.938-3.058-2.938zm11.213 10.771c-1.686 0-3.058 1.317-3.058 2.937 0 1.62 1.372 2.938 3.058 2.938 1.686 0 3.058-1.318 3.058-2.938s-1.372-2.937-3.058-2.937z" fill="#1DBBBA"/></svg>