<svg width="112" height="49" fill="none" xmlns="http://www.w3.org/2000/svg"><path d="M47.758 24.227c0-2.937-.556-5.739-1.527-8.338-.256 8.554-8.95 15.177-14.055 19.56h12.777a23.76 23.76 0 002.805-11.222zM38.522 5.392C34.476 2.242 29.404.35 23.88.35 10.69.349 0 11.04 0 24.227s10.691 23.879 23.88 23.879c6.039 0 11.538-2.26 15.743-5.958H22.335l-.053-5.077c10.417-9.055 16.802-15.18 16.802-21.094 0-2.199-.837-4.973-4.605-4.973-2.984 0-5.863 1.729-5.34 8.951h-6.071c-1.519-8.374 3.035-15.022 11.724-15.022 1.347 0 2.593.16 3.73.46z" fill="#A3C626"/><path d="M69.906 16.853h5.649c.193-4.296-1.255-11.104-10.572-11.104-6.856 0-11.828 4.104-11.828 12.649 0 1.158.048 7.144.048 10.861 0 9.27 6.421 11.297 11.828 11.297 3.235 0 7.917-.724 10.09-3.09V22.695H64.5v5.359h4.731v6.517c-3.573 1.207-10.09 1.69-10.09-6.517v-9.655c0-5.745 2.656-7.724 5.6-7.724 3.042 0 5.165 1.545 5.165 6.179zM111.92 31.19c.241-13.227-14.917-8.834-14.773-16.22.048-2.606 1.738-4.296 4.49-4.296 2.945 0 4.682 1.738 4.634 6.276h5.552c.145-4.104-.821-11.104-9.992-11.104-5.698 0-10.38 2.8-10.477 9.028-.241 12.695 15.014 8.544 14.773 16.22-.097 3.138-2.367 4.538-4.925 4.538-2.992 0-5.406-1.738-4.923-6.952h-5.602c-.627 6.904 2.415 11.828 10.477 11.828 6.807 0 10.669-3.766 10.766-9.318zm-25.504 8.883H80.72V6.28h5.696v33.793zm0 0H80.72V6.28h5.696v33.793z" fill="#434242"/></svg>