<svg width="213" height="38" fill="none" xmlns="http://www.w3.org/2000/svg"><path d="M0 18.325C0 9.851 0 5.614 2.633 2.981 5.265.35 9.503.35 17.977.35h1.563c8.474 0 12.712 0 15.344 2.632 2.633 2.633 2.633 6.87 2.633 15.344v1.564c0 8.474 0 12.711-2.633 15.344-2.633 2.632-6.87 2.632-15.344 2.632h-1.563c-8.475 0-12.712 0-15.344-2.632C0 32.6 0 28.363 0 19.889v-1.564z" fill="#2787F5"/><path fill-rule="evenodd" clip-rule="evenodd" d="M10.162 12.072H7.425c-.782 0-.938.368-.938.774 0 .724.928 4.318 4.32 9.071 2.26 3.246 5.446 5.006 8.345 5.006 1.74 0 1.954-.391 1.954-1.064v-2.454c0-.781.165-.937.716-.937.406 0 1.102.203 2.725 1.768 1.855 1.855 2.161 2.687 3.205 2.687h2.736c.782 0 1.172-.391.947-1.162-.247-.769-1.133-1.884-2.308-3.206-.638-.754-1.594-1.565-1.884-1.971-.406-.522-.29-.753 0-1.217 0 0 3.334-4.695 3.681-6.29.174-.579 0-1.005-.827-1.005H27.36c-.696 0-1.017.368-1.19.774 0 0-1.392 3.39-3.363 5.593-.638.638-.928.84-1.276.84-.174 0-.426-.202-.426-.782v-5.42c0-.695-.202-1.005-.781-1.005h-4.3c-.435 0-.696.323-.696.63 0 .658.985.81 1.087 2.665v4.029c0 .883-.16 1.043-.508 1.043-.927 0-3.184-3.406-4.522-7.303-.262-.758-.525-1.064-1.224-1.064z" fill="#fff"/><path d="M64.007 18.778c1.488-.694 2.447-1.851 2.447-3.637 0-2.71-2.48-4.628-6.05-4.628H52.17v17.192h8.596c3.703 0 6.282-2.017 6.282-4.761 0-2.083-1.355-3.637-3.042-4.166zm-8.034-5.124h4.43c1.323 0 2.249.793 2.249 1.884 0 1.091-.926 1.852-2.248 1.852h-4.43v-3.736zm4.794 10.91h-4.794v-4.199h4.794c1.488 0 2.48.86 2.48 2.116 0 1.256-.992 2.083-2.48 2.083zM81.19 27.705h4.992l-7.902-8.927 7.24-8.265h-4.53l-5.752 6.678h-.926v-6.678H70.51v17.192h3.802V20.86h.926l5.951 6.844zM95.886 28.035c5.389 0 9.191-3.703 9.191-8.927s-3.802-8.926-9.191-8.926c-5.39 0-9.19 3.702-9.19 8.926s3.8 8.927 9.19 8.927zm0-3.471c-3.108 0-5.224-2.216-5.224-5.456s2.116-5.455 5.224-5.455 5.224 2.215 5.224 5.455-2.116 5.456-5.224 5.456zM119.888 10.513v6.777h-7.703v-6.777h-3.802v17.192h3.802v-6.943h7.703v6.943h3.803V10.513h-3.803zM132.279 27.705h3.802v-13.72h5.951v-3.472h-15.704v3.471h5.951v13.72zM151.036 10.182c-3.339 0-6.281 1.719-7.141 4.694l3.505.596c.529-1.058 1.719-2.05 3.438-2.05 2.083 0 3.306 1.487 3.472 3.736h-3.704c-5.058 0-7.571 2.215-7.571 5.389 0 3.207 2.48 5.488 5.985 5.488 2.81 0 4.694-1.62 5.521-3.042l.793 2.711h2.811V18.05c0-4.992-2.711-7.868-7.109-7.868zm-1.124 14.646c-1.851 0-3.042-.959-3.042-2.447 0-1.322.959-2.248 3.869-2.248h3.603c0 2.81-1.785 4.695-4.43 4.695zM172.948 27.705h4.993l-7.902-8.927 7.24-8.265h-4.529l-5.753 6.678h-.926v-6.678h-3.802v17.192h3.802V20.86h.926l5.951 6.844zM184.39 27.705h3.802v-13.72h5.951v-3.472h-15.705v3.471h5.952v13.72zM213 18.91c0-4.96-3.703-8.728-8.927-8.728s-8.926 3.736-8.926 8.926c0 5.191 3.702 8.927 8.926 8.927 3.571 0 6.943-1.686 8.232-4.96l-3.57-.594c-.827 1.223-2.414 2.082-4.43 2.082-2.91 0-4.827-1.785-5.191-4.43h13.82c.032-.363.066-.76.066-1.223zm-8.927-5.422c2.38 0 4.166 1.52 4.794 3.67h-9.522c.628-2.216 2.414-3.67 4.728-3.67z" fill="#000"/></svg>