<svg width="150" height="47" fill="none" xmlns="http://www.w3.org/2000/svg"><path d="M36.8 12.349c-.4.4-.4 1 0 1.3.4.4 1 .4 1.3 0 .4-.4.4-1 0-1.3-.4-.4-1-.4-1.3 0z" fill="#FEFEFE"/><path d="M46 11.749h-4l-1 1.2c-.2.2-.1.3.1.4l1.3.6 3.7-1.7c.3-.1.2-.5-.1-.5zm-14.9 19.6h-4.9c-1.3.8-1.7 1-3.4 1.7-.1 0-.2.2-.1.3l4.4 12.3h2.5l-4-11.3c2.6 0 8.9-.7 12.3-6.2-1.1 1.6-3.6 3.2-6.8 3.2zm7-17.7c-.4.4-1 .4-1.3 0-.4-.4-.4-1 0-1.3.4-.4 1-.4 1.3 0-.8-.8-2.1-.8-2.8 0-.7.8-.8 2 0 2.8.8.8 2.1.8 2.8 0 .7-.8.8-2 0-2.8.3.4.3.9 0 1.3zm-9.7 22.4l3.4 9.6h2.5l-3.6-10.1c-.6.2-1.4.3-2.3.5zm3.4-12c.3-.4.5-.8.8-1.3-.1-.1-.2 0-.3.1-5.1 5.4-10 6.1-13.8 6.1h-5.8c-.2 0-.3-.2-.2-.4 4.5-6.2 9.4-11.1 13.1-14.2l-9.7 8.1c-.8.6-1.7 1-2.9 1H.8c-.3 0-.2.3-.2.5.8 2.6 3.2 5 7.2 5l-2.9 2.9c-.1.1-.1.4.2.4H16c7.8 0 12.7-3.4 15.8-8.2z" fill="#00985F"/><path d="M140.6 45.649h8.9v-27.5h-8.9v10.1h-8.4v-10.1h-8.9v27.5h8.9v-10.4h8.4v10.4zm-105.3-30.5c-.8-.8-.8-2 0-2.8.8-.8 2.1-.8 2.8 0 .7.8.8 2 0 2.8-.8.8-2.1.8-2.8 0zm2.5 13c3.4-5.5 4.6-14.2 4.6-14.2l-1.3-.6c-.2-.1-.2-.2-.1-.4l1-1.2c-.6-1.2-2.8-3.2-6-3.2-1.9 0-3.6.5-5.1 1.5 0 0-2.2 1.5-5.3 4.2-3.7 3.2-8.6 8-13.1 14.2-.1.2 0 .4.2.4h5.8c3.8 0 8.7-.7 13.8-6.1.1-.1.2-.1.3-.1.1.1.1.2.1.3-.8 2-2.8 5.9-6.5 8.3h4.9c3.3 0 5.7-1.5 6.7-3.1zm-5 6.6l3.8 10.8h10.8c-2.2-6.7-4.6-12.9-6.9-18.6-1.8 3.9-3.5 5.8-7.7 7.8zM0 45.649h10.9l3.7-11.5H4c-1.3 3.4-2.6 7.2-4 11.5zm14.7-24.7l5.5-4.5c1.2-3.2 2.4-6.4 3.6-9.1.6 1.4 1.2 2.9 1.8 4.4 3-2.5 4.9-4 7.4-4.7-1.5-3.3-2.6-5.7-3.1-6.7H17.7c-1 2.2-4.9 10.3-9.5 21.2h4.4c.9 0 1.6-.1 2.1-.6zm67.4 21.6l.6 3h7.2v-27.4H81v19.1c-.8.9-2.3 1.9-3.7 1.9-2.5 0-3.8-1.4-3.8-4v-17h-8.9v19.1c-.8.9-2.5 1.9-4 1.9-2.3 0-3.6-1.4-3.6-4v-17h-8.9v18.2c0 6.6 2.9 9.9 8.9 9.9 4.3 0 6.9-1.6 8.9-3.7 1.4 2.5 3.9 3.7 7.6 3.7 4.3-.1 6.7-1.6 8.6-3.7zm28.3-5.4c-.8.9-2.1 1.9-4.3 1.9-2.4 0-3.7-2.2-3.7-6.5 0-5.3 1.4-7.9 4.3-7.9 1.7 0 2.5.1 3.7.4v12.1zm-7.4 9h.3c4 0 6.7-1.4 8.2-3.6l.5 3h7.3v-26.3c-2.9-.9-6.3-1.7-12.5-1.7-8.9 0-13.7 5.4-13.7 15.4 0 9.2 3.4 13.2 9.9 13.2z" fill="#DC000F"/></svg>