<svg width="141" height="69" fill="none" xmlns="http://www.w3.org/2000/svg"><path d="M78.14 30.368l5.58-21.192 5.29 21.192h7.04l7.293-30.02H96.73l-4.53 21.66L87.065.348H80.65l-5.309 21.66L70.924.348h-6.767l6.884 30.02h7.098zM35.552 30.39V9.003l7.117 21.387h5.309l7.078-21.387V30.39h6.146V.372h-8.499l-7.233 22.3L38.138.37h-8.693v30.02h6.107zM7.45 5.466h6.844c1.336 0 2.353.154 3.053.466 1.154.505 1.731 1.464 1.731 2.878 0 1.166-.376 2.021-1.128 2.565-.726.545-1.945.818-3.656.818H7.449V5.466zm0 11.78h6.767c1.788 0 3.124.228 4.005.682 1.153.596 1.73 1.704 1.73 3.324 0 1.349-.363 2.327-1.088 2.937-.882.738-2.431 1.107-4.647 1.107H7.449v-8.05zm6.65 13.145c8.257 0 12.387-3.009 12.387-9.021 0-3.345-1.607-5.659-4.823-6.942 2.58-1.243 3.87-3.39 3.87-6.436 0-2.669-1.056-4.672-3.17-6.006C20.68.909 18.39.37 15.5.37H1.07v30.02H14.1zM88.18 55.605c0 3.785.997 6.758 2.994 8.923 2.151 2.333 5.36 3.5 9.626 3.5 4.147 0 7.286-1.077 9.412-3.228 2.178-2.19 3.266-5.256 3.266-9.195V37.29h-6.495v18.742c0 4.405-2.042 6.609-6.125 6.609-4.122 0-6.185-2.204-6.185-6.61V37.29H88.18v18.315zM76.855 44.794c1.401 1.84 2.1 4.35 2.1 7.526 0 3.471-.842 6.135-2.528 7.99-1.4 1.556-3.235 2.331-5.504 2.331-2.541 0-4.524-.946-5.95-2.836-1.375-1.828-2.063-4.324-2.063-7.485 0-3.176.688-5.685 2.062-7.526 1.44-1.906 3.397-2.858 5.874-2.858 2.552 0 4.556.952 6.009 2.858zm-16.406-4.023c-2.567 2.772-3.851 6.63-3.851 11.566 0 5.393 1.537 9.47 4.61 12.23 2.552 2.308 5.89 3.461 10.014 3.461 4.589 0 8.18-1.401 10.774-4.2 2.58-2.773 3.87-6.602 3.87-11.49 0-4.912-1.29-8.769-3.87-11.567-2.581-2.801-6.132-4.202-10.657-4.202-4.667 0-8.298 1.4-10.89 4.202zM36.91 42.383h6.26c1.725 0 3.007.304 3.85.913.856.623 1.284 1.647 1.284 3.073 0 2.787-1.711 4.18-5.133 4.18H36.91v-8.166zm.149 24.927V55.605h6.456l5.463 11.705h7.273l-6.436-12.775c3.526-1.634 5.289-4.316 5.289-8.05 0-2.618-.674-4.691-2.021-6.22-1.726-1.983-4.422-2.975-8.09-2.975h-14.4v30.02h6.466zM24.561 40.303c-2.151-2.488-5.47-3.734-9.956-3.734-4.59 0-8.18 1.44-10.774 4.318C1.277 43.712 0 47.613 0 52.592c0 5.522 1.537 9.635 4.609 12.345 2.321 2.06 5.323 3.091 9.005 3.091 4.005 0 7.019-1.25 9.041-3.753l.681 3.035h4.142V51.424H16.335v4.706h4.823v1.38c0 1.544-.654 2.8-1.964 3.772-1.244.908-2.826 1.359-4.744 1.359-2.503 0-4.427-.853-5.776-2.566-1.375-1.721-2.061-4.212-2.061-7.465 0-3.344.654-5.942 1.964-7.796 1.36-1.918 3.292-2.878 5.794-2.878 3.488 0 5.802 1.82 6.943 5.465l6.087-1.48c-.648-2.32-1.595-4.193-2.84-5.618zM123.111 42.367h6.298c1.531 0 2.736.384 3.617 1.148.882.763 1.323 1.847 1.323 3.245 0 1.414-.479 2.548-1.439 3.404-.92.802-2.113 1.204-3.578 1.204h-6.221v-9.001zm0 24.927V56.462h6.882c3.281 0 5.912-.848 7.896-2.546 2.075-1.775 3.111-4.153 3.111-7.136 0-2.942-.901-5.268-2.702-6.979-1.803-1.684-4.306-2.527-7.507-2.527h-14.1v30.02h6.42z" fill="#6F6F6F"/></svg>