<svg width="174" height="39" fill="none" xmlns="http://www.w3.org/2000/svg"><path fill-rule="evenodd" clip-rule="evenodd" d="M21.02.453C17.11.042 13.17.85 9.739 2.766a19.01 19.01 0 00-7.878 8.388 18.976 18.976 0 003.69 21.609 19.05 19.05 0 0021.628 3.753 19.016 19.016 0 008.424-7.842 18.978 18.978 0 002.351-11.257A18.965 18.965 0 0032.506 5.93 19.013 19.013 0 0021.02.453zm-.617 28.95a10.16 10.16 0 01-6.113-1.096 10.141 10.141 0 01-4.33-4.447 10.122 10.122 0 011.906-11.656 10.154 10.154 0 0111.666-1.94A10.143 10.143 0 0128 14.574a10.123 10.123 0 01-1.758 11.94 10.15 10.15 0 01-5.839 2.89zM48.131 1.205A4.444 4.444 0 0044.69 2.85a4.43 4.43 0 00-.892 3.704c.417 2.089 2.37 3.516 4.5 3.516h12.35l-19.22 25.402a1.265 1.265 0 001.005 2.03h30.151c2.127 0 4.083-1.427 4.5-3.516a4.426 4.426 0 00-2.425-4.914 4.444 4.444 0 00-1.906-.435h-15.05L76.911 3.254a1.277 1.277 0 00-1.017-2.05H48.131zm120.483.102a4.501 4.501 0 00-3.464 4.449v14.76L141.201 1.484a1.275 1.275 0 00-2.066 1v30.475a4.496 4.496 0 00.948 2.833 4.507 4.507 0 002.515 1.616 4.443 4.443 0 003.734-.875 4.426 4.426 0 001.653-3.456V18.19l23.95 19.032a1.276 1.276 0 001.872-.322c.127-.203.194-.437.193-.677V5.636a4.422 4.422 0 00-1.654-3.454 4.438 4.438 0 00-3.732-.875zm-62.359 7.914c10.13 0 17.699 5.346 17.699 10.128s-7.569 10.128-17.699 10.128c-10.13 0-17.7-5.346-17.7-10.128s7.57-10.128 17.7-10.128zm0-8.864c-14.663 0-26.55 8.503-26.55 18.992 0 10.49 11.887 18.993 26.55 18.993s26.549-8.504 26.549-18.993c0-10.489-11.886-18.992-26.549-18.992z" fill="#005BFF"/></svg>