<svg width="159" height="77" fill="none" xmlns="http://www.w3.org/2000/svg"><path d="M49.11 23.88H59.2v3.293h-4.8v23.14h-5.29V23.88zm16.074 16.51l.906-13.217h.304l.907 13.217h-2.117zm-5.86 9.923h5.18l.49-7.02h2.495l.493 7.02h5.177L70.4 23.88h-8.316l-2.76 26.434zm21.413-9.252v4.984c0 .672.52.866.824.866.499 0 .846-.411.846-.866v-6.153c0-.824-.152-1.734-2.126-1.734h-2.148v-2.903h2.235c1.497 0 2.039-.347 2.039-1.972v-5.244c0-.455-.347-.866-.846-.866-.304 0-.824.173-.824.866v4.312h-5.293v-3.748c0-1.842.216-4.724 3.925-4.724h4.382c3.71 0 3.948 2.882 3.948 4.724v4.225c0 2.881-2.017 3.662-3.6 3.596v.26c3.557-.086 3.6 2.644 3.6 3.576v5.33c0 1.863-.238 4.723-3.948 4.723H79.37c-3.709 0-3.925-2.86-3.925-4.723V41.06h5.293zM91.17 23.88h12.256v26.434h-5.293v-23.14h-1.67v23.14H91.17V23.88zm21.019 14.539V27.173h.695c.564 0 .976.476.976 1.322v8.601c0 .846-.412 1.322-.976 1.322h-.695zm-5.292 11.895h5.292v-8.992h3.037c3.688 0 3.927-2.86 3.927-4.723v-7.995c0-1.842-.239-4.724-3.927-4.724h-8.329v26.434zm22.689-4.268c0 .455-.347.866-.846.866-.304 0-.824-.194-.824-.866V28.039c0-.693.521-.866.824-.866.499 0 .846.411.846.866v18.006zm-6.963-.455c0 1.863.239 4.723 3.926 4.723h4.404c3.687 0 3.926-2.86 3.926-4.723V28.603c0-1.842-.238-4.724-3.926-4.724h-4.404c-3.687 0-3.926 2.882-3.926 4.724V45.59zm29.479-21.71H159v26.433h-5.293V33.738h-.195l-2.733 16.575h-4.23l-2.711-16.575h-.196v16.575h-5.292V23.88h6.876l3.449 18.59 3.427-18.59zM42.251 14.13C40.631 7.043 36.57 1.28 36.011.348c-.886 1.321-4.124 6.413-5.77 12.047-1.799 6.305-2.064 11.895-1.443 17.377.616 5.503 2.943 11.158 2.943 11.158 1.237 2.947 3.09 6.132 4.295 7.692 1.768-2.296 5.831-9.143 7.098-18.07.705-4.984.735-9.339-.883-16.424zm-6.24 32.716c-.797-1.494-2.033-4.333-2.15-8.753-.03-4.247 1.676-7.909 2.175-8.667.445.759 1.916 3.943 2.091 8.299.12 4.246-1.295 7.605-2.117 9.121zm5.77-20.692c-.061 2.709-.385 5.569-.797 7.28.148-2.946-.206-7.085-.883-10.335-.676-3.228-2.592-8.645-4.12-11.137-1.413 2.384-3.153 7.064-4.064 11.116-.915 4.051-.941 8.97-.941 10.443-.243-1.235-.85-5.677-.68-10.118.144-3.662 1.003-7.454 1.474-9.187 1.796-5.785 3.828-9.49 4.21-10.076.382.586 2.941 5.157 4.269 9.946 1.321 4.788 1.588 9.382 1.531 12.068" fill="#0079C2"/><path d="M38.759 50.27h-12.32v8.255c.012 0 .02-.022.031-.022a7.435 7.435 0 0110.514 0c2.903 2.882 2.903 7.584 0 10.487-.013.022-.026.022-.039.043-.015 0-.03.022-.043.044a14.843 14.843 0 01-10.462 4.29c-3.8 0-7.6-1.43-10.499-4.334-5.11-5.092-5.716-13-1.82-18.764a15.015 15.015 0 011.82-2.21c2.898-2.903 6.699-4.333 10.499-4.333V23.88C11.837 23.879 0 35.687 0 50.269c0 14.583 11.837 26.413 26.44 26.413 7.614 0 14.473-3.229 19.297-8.364V50.27h-6.978zM159 58.035H49.11v18.646H159V58.036zm-9.502 13.017h1.394v-2.815h-1.394v2.815zm0-4.926h2.109l1.413.704.348.704.349 1.407v.704c-.037 5.04-3.284 3.195-6.696 3.518v-11.61h2.477v4.573zm-18.326-4.573v2.11h-1.761v9.5h-2.807v-9.5h-1.761v-2.11h6.329zm-25.701 8.443h.349l.697-.352V64.72h-1.046v5.277zm-2.825-5.277h-1.064v4.925l.715.352h.349V64.72zm2.825-3.166v1.055h1.761l1.046.704.715.704.349 1.407v3.87l-.348 1.407-.716.704-1.046.703h-1.761v1.056h-2.825v-1.056h-1.761l-1.064-.703-.697-.704-.348-1.407v-3.87l.348-1.407.697-.704 1.064-.704h1.761v-1.055h2.825zm-22.9 0v2.11h-2.114v2.463h2.113v2.111h-2.113v2.815h2.466v2.11h-5.284v-11.61h4.931zm-25.36 4.573h1.409v-4.573h2.465v11.61H58.62v-4.926h-1.41v4.926h-2.817v-11.61h2.818v4.573z" fill="#0079C2"/></svg>