<svg width="160" height="59" fill="none" xmlns="http://www.w3.org/2000/svg"><path d="M159 1.349H1v56.834h158V1.35z" fill="#014171" stroke="#fff"/><path d="M139.89 36.224c-.035.281-.142 1.02-1.105 1.116h-8.458c-.963-.096-1.139-.835-1.175-1.116V23.167c.036-.282.169-.88 1.133-.977h8.504c.963.096 1.066.695 1.101.977v13.057zm2.929-18.953h-16.595c-2.494.2-4.6 1.466-4.881 4.295V37.73c.281 2.83 2.387 4.328 4.881 4.53h16.595c2.493-.202 4.599-1.7 4.881-4.53V21.566c-.282-2.83-2.388-4.094-4.881-4.295zm-67.161 4.92h-7.42v-4.92h22.648v4.92h-7.419v20.07h-7.81V22.19zm-9.762 0v-4.92H45.591v24.99l20.575-.006.007-4.914H53.42l.002-5.353h12.474v-4.907H53.422v-4.89h12.474zm45.295 3.873c0 .54-.135 1.015-1.105 1.015h-9.048v-4.905h9.059c1.102 0 1.094.721 1.094 1.171v2.719zm2.163 6.482c2.436-.195 4.865-1.854 4.865-4.577V21.8c-.283-2.815-2.395-4.336-4.9-4.536h-20.09V42.26h7.809v-9.714h3.109l5.076 9.714h8.98l-6.044-9.714h1.195zM29.426 42.26l5.232-15.696V42.26h7.81V17.27H31.925L26.85 29.767 21.773 17.27H11.23v24.99h7.81V26.563l5.27 15.696h5.116z" fill="#FBC51D"/></svg>