<svg width="182" height="61" fill="none" xmlns="http://www.w3.org/2000/svg"><path d="M77.756 31.824c0 8.605-6.732 14.946-14.993 14.946-8.262 0-14.994-6.341-14.994-14.946 0-8.666 6.732-14.946 14.994-14.946 8.26 0 14.993 6.28 14.993 14.946zm-6.564 0c0-5.377-3.901-9.057-8.43-9.057-4.528 0-8.43 3.68-8.43 9.057 0 5.323 3.902 9.056 8.43 9.056 4.529 0 8.43-3.74 8.43-9.056z" fill="#EA4335"/><path d="M110.101 31.824c0 8.605-6.732 14.946-14.994 14.946-8.261 0-14.993-6.341-14.993-14.946 0-8.659 6.732-14.946 14.993-14.946 8.262 0 14.994 6.28 14.994 14.946zm-6.564 0c0-5.377-3.901-9.057-8.43-9.057-4.528 0-8.43 3.68-8.43 9.057 0 5.323 3.902 9.056 8.43 9.056 4.529 0 8.43-3.74 8.43-9.056z" fill="#FBBC05"/><path d="M141.098 17.78v26.834c0 11.037-6.51 15.545-14.205 15.545-7.244 0-11.604-4.845-13.248-8.807l5.714-2.379c1.018 2.433 3.511 5.304 7.527 5.304 4.926 0 7.979-3.04 7.979-8.76v-2.15h-.23c-1.469 1.813-4.299 3.396-7.87 3.396-7.473 0-14.32-6.51-14.32-14.885 0-8.437 6.847-15 14.32-15 3.565 0 6.395 1.584 7.87 3.342h.23v-2.432h6.233v-.007zm-5.769 14.098c0-5.263-3.51-9.11-7.978-9.11-4.528 0-8.322 3.847-8.322 9.11 0 5.209 3.794 9.002 8.322 9.002 4.468 0 7.978-3.793 7.978-9.002z" fill="#4285F4"/><path d="M151.374 2.054v43.8h-6.402v-43.8h6.402z" fill="#34A853"/><path d="M176.32 36.743l5.094 3.396c-1.644 2.433-5.606 6.624-12.453 6.624-8.49 0-14.831-6.563-14.831-14.946 0-8.888 6.395-14.946 14.097-14.946 7.756 0 11.55 6.173 12.79 9.508l.68 1.698-19.98 8.275c1.53 2.999 3.909 4.528 7.244 4.528 3.343 0 5.661-1.644 7.359-4.137zm-15.681-5.377l13.356-5.546c-.734-1.867-2.945-3.167-5.546-3.167-3.335 0-7.978 2.945-7.81 8.713z" fill="#EA4335"/><path d="M23.538 27.936v-6.34h21.367c.21 1.104.317 2.412.317 3.827 0 4.757-1.3 10.64-5.492 14.831-4.076 4.245-9.285 6.51-16.186 6.51C10.754 46.764 0 36.346 0 23.556S10.755.35 23.544.35c7.076 0 12.116 2.776 15.903 6.394l-4.474 4.475C32.257 8.67 28.578 6.69 23.538 6.69c-9.34 0-16.645 7.526-16.645 16.866s7.305 16.867 16.645 16.867c6.058 0 9.508-2.433 11.718-4.643 1.792-1.793 2.972-4.353 3.437-7.85l-15.155.006z" fill="#4285F4"/></svg>