<svg width="225" height="42" fill="none" xmlns="http://www.w3.org/2000/svg"><path d="M23.122 1v21.134c0 .966-.7 1.69-1.634 1.69h-2.45c-.116 0-.233.121-.233.242V41.82c.583 0 1.167.12 1.867.12 10.968 0 19.835-9.178 19.835-20.53 0-10.506-7.584-19.201-17.385-20.409zm-.467 31.64c-1.4 0-2.45-1.207-2.45-2.535 0-1.45 1.167-2.537 2.45-2.537 1.4 0 2.45 1.208 2.45 2.537.117 1.328-1.05 2.536-2.45 2.536zm5.834 0c-1.4 0-2.45-1.207-2.45-2.535 0-1.45 1.167-2.537 2.45-2.537 1.4 0 2.45 1.208 2.45 2.537 0 1.328-1.05 2.536-2.45 2.536zm5.834 0c-1.4 0-2.45-1.207-2.45-2.535 0-1.45 1.167-2.537 2.45-2.537 1.4 0 2.45 1.208 2.45 2.537 0 1.328-1.05 2.536-2.45 2.536z" fill="#00985F"/><path d="M20.672.879C9.704.879.836 10.057.836 21.409c0 9.903 6.65 18.115 15.635 20.047V22.98c0-.845.7-1.57 1.517-1.69h2.45c.117 0 .234-.121.234-.242V.879zm-3.85 16.907c-1.401 0-2.451-1.208-2.451-2.536 0-1.45 1.167-2.536 2.45-2.536 1.4 0 2.45 1.208 2.45 2.536s-1.05 2.536-2.45 2.536zM219.264 12.11v7.73h-10.035v-7.73h-5.017v20.53h5.017v-8.332h10.035v8.333h4.9V12.11h-4.9zM136.653 14.405c-.817-1.812-2.45-2.778-4.084-2.778-1.633 0-3.267.966-4.084 2.778l-8.051 18.235h5.251l1.75-4.347h10.268l1.75 4.347h5.251l-8.051-18.235zm-7.584 9.782l3.033-7.488c.117-.241.234-.241.351-.241.116 0 .35 0 .35.241l3.033 7.488h-6.767zM77.612 8.366c-2.333 0-3.85 1.329-4.9 3.865l-6.418 15.458-6.417-15.458c-1.05-2.536-2.567-3.865-4.901-3.865-2.217 0-4.434 1.57-4.434 5.072V32.52h4.9V14.042l6.535 15.338c.817 2.173 2.334 3.502 4.317 3.502 2.1 0 3.5-1.329 4.317-3.502l6.534-15.338V32.64h4.901V13.56c0-3.503-2.217-5.194-4.434-5.194zM90.797 28.293c-.233 0-.466-.242-.466-.483v-3.623h12.368V19.96H90.331v-3.14c0-.242.233-.483.466-.483h12.252v-4.348H88.347c-1.75 0-2.917 1.45-2.917 3.02v14.37c0 1.57 1.283 3.02 2.917 3.02h14.702V28.05H90.797v.242zM111.333 32.64V16.942c0-.241.234-.483.467-.483h12.251V12.11H109.35c-1.751 0-2.917 1.45-2.917 3.02v17.39h4.9v.12zM200.945 22.375c0-7.125-3.034-10.507-10.502-10.507h-1.75c-7.468 0-10.501 3.382-10.501 10.507 0 7.004 3.033 10.506 10.501 10.506h1.634c7.584-.12 10.618-3.502 10.618-10.506zm-10.618 6.159h-1.634c-4.084 0-5.717-1.932-5.717-6.16 0-4.105 1.4-6.158 5.717-6.158h1.634c4.2 0 5.717 2.053 5.717 6.159 0 4.227-1.517 6.159-5.717 6.159zM164.423 8.85h-9.801c-7.351 0-10.268 3.864-10.268 10.506 0 1.087.117 2.053.233 2.899.817 4.71 3.501 7.608 10.385 7.608h2.217v2.657h4.901v-2.657h2.1c6.884 0 9.568-2.898 10.385-7.608.116-.846.233-1.812.233-2.899-.117-6.642-3.15-10.506-10.385-10.506zm-7.467 16.786h-2.217c-3.384 0-4.551-1.328-5.251-3.381-.233-.725-.233-1.812-.233-2.899 0-4.347 1.983-6.159 4.784-6.159h3.033v12.44h-.116zm12.601-3.26c-.7 2.052-1.983 3.38-5.25 3.38h-2.217V13.198h3.033c2.801 0 4.784 1.812 4.784 6.16-.116 1.207-.116 2.173-.35 3.018z" fill="#00985F"/></svg>