<svg xmlns="http://www.w3.org/2000/svg" width="90" height="80" fill="none"><path fill="#4C88E7" d="m32.556 34.01-3.529 3.559-2.812-2.836a1.134 1.134 0 0 0-.19-.152L25.45 34 24 35.46l3.56 3.59-3.438 3.466.707.713.002.002.734.74 3.437-3.466L32.468 44l1.45-1.461-.512-.516a1.105 1.105 0 0 0-.15-.19l-2.785-2.809L34 35.465l-1.444-1.456ZM40.893 29.45H62.65c2.86 0 2.86-4.438 0-4.438H40.893c-2.86 0-2.86 4.439 0 4.439ZM62.649 37.297H40.893c-2.86 0-2.86 4.439 0 4.439H62.65c2.86 0 2.86-4.44 0-4.44ZM62.649 48.805H40.893c-2.86 0-2.86 4.438 0 4.438H62.65c2.86 0 2.86-4.438 0-4.438ZM62.649 61.086H40.893c-2.86 0-2.86 4.439 0 4.439H62.65c2.86 0 2.86-4.44 0-4.44ZM30.607 22.421l-.63.911c-.77 1.108-1.564 2.244-2.23 3.441l-.032-.035-.408-.473c-.775-.884-2.268-.59-2.75.474-.281.618-.178 1.32.27 1.833l.432.502c.558.648 1.139 1.321 1.794 1.925.323.295.738.458 1.164.458.732 0 1.384-.478 1.623-1.188.565-1.69 1.731-3.34 2.857-4.936.26-.37.52-.735.767-1.095.346-.508.389-1.12.114-1.64-.55-1.047-2.268-1.205-2.97-.177ZM30.607 46.892l-.63.912c-.774 1.108-1.564 2.245-2.234 3.441-.01-.01-.017-.023-.028-.035l-.412-.472c-.77-.885-2.264-.59-2.747.474-.28.62-.177 1.319.27 1.832l.433.503c.558.648 1.135 1.32 1.794 1.924.323.295.735.458 1.16.458.736 0 1.387-.479 1.627-1.19.565-1.688 1.728-3.339 2.854-4.933.262-.371.52-.735.767-1.096.346-.506.392-1.12.117-1.64-.55-1.044-2.27-1.204-2.97-.178ZM30.607 59.526l-.63.913c-.774 1.106-1.564 2.244-2.234 3.44-.01-.012-.021-.024-.028-.035l-.412-.476c-.77-.884-2.264-.59-2.747.476a1.695 1.695 0 0 0 .27 1.834l.433.5c.558.65 1.135 1.324 1.794 1.924a1.71 1.71 0 0 0 1.16.462c.736 0 1.387-.482 1.627-1.19.565-1.688 1.728-3.34 2.854-4.934.262-.371.52-.737.767-1.096.346-.51.392-1.122.117-1.64-.55-1.044-2.27-1.208-2.97-.178Z"/><path fill="#4C88E7" d="M64.162 0H14v80h61.61V11.099L64.161 0Zm6.12 74.672H19.328V5.327h42.092v8.451h8.864v60.894Z"/></svg>