<svg xmlns="http://www.w3.org/2000/svg" width="90" height="80" fill="none"><path fill="#4C88E7" d="M24.067 35.082c-2.136 0-2.136 3.319 0 3.319h25.525c2.14 0 2.14-3.319 0-3.319H24.067ZM49.592 42.93H24.067c-2.136 0-2.136 3.315 0 3.315h25.525c2.14 0 2.14-3.315 0-3.315ZM49.592 50.2H24.067c-2.136 0-2.136 3.314 0 3.314h25.525c2.14 0 2.14-3.315 0-3.315ZM49.592 58.043H24.067c-2.136 0-2.136 3.314 0 3.314h25.525c2.14 0 2.14-3.314 0-3.314ZM49.104 65.45h-25.53c-2.135 0-2.135 3.314 0 3.314h25.53c2.134 0 2.134-3.315 0-3.315Z"/><path fill="#4C88E7" d="M13 18.11V80h47.66V26.696l-8.855-8.587H13Zm43.541 57.77H17.122V22.23h32.561v6.538h6.855V75.88h.003Z"/><path fill="#4C88E7" d="M21.057 8.625v7.164h4.122v-3.045h32.562v6.538h6.857v47.113h-1.811v4.12h5.932V17.21l-8.856-8.585H21.057Z"/><path fill="#4C88E7" d="M68.33 0H29.522v7.165h4.121V4.121h32.564v6.537h6.856V57.77h-1.81v4.121h5.932V8.587L68.33 0Z"/></svg>