<svg xmlns="http://www.w3.org/2000/svg" width="90" height="80" fill="none"><path fill="#4C88E7" d="M73.355 20.242c-.184-.008-.355.009-.536.005.21-.93.348-1.873.402-2.821C72.749 8.697 66.536 2.49 57.813 2.02c-5.118-.275-9.383 2.337-12.121 6.159-2.737-3.602-6.99-5.88-12.132-6.159-8.705-.469-14.969 7.39-15.401 15.406-.051 1.03.016 2.02.177 2.979-.545-.078-1.1-.13-1.666-.163C7.26 19.736.49 28.23.022 36.891c-.479 8.853 7.01 15.368 15.113 16.494l10.51.155V22.962h35.811l8.753 8.487v22.093l6.336-.192C84.26 52.04 89.588 44.54 90 36.89c-.501-9.43-7.214-16.142-16.645-16.648Z"/><path fill="#4C88E7" d="M58.064 39.129H38.546c-1.634 0-1.634 2.536 0 2.536h19.518c1.63 0 1.63-2.536 0-2.536ZM58.064 45.129H38.546c-1.634 0-1.634 2.534 0 2.534h19.518c1.63 0 1.63-2.534 0-2.534ZM58.064 50.688H38.546c-1.634 0-1.634 2.531 0 2.531h19.518c1.63.002 1.63-2.532 0-2.532ZM58.064 56.684H38.546c-1.634 0-1.634 2.532 0 2.532h19.518c1.63 0 1.63-2.532 0-2.532ZM57.685 62.344H38.17c-1.634 0-1.634 2.531 0 2.531h19.514c1.635 0 1.635-2.531 0-2.531Z"/><path fill="#4C88E7" d="M28.135 25.07v52.384h40.34V32.337L60.98 25.07H28.135Zm36.852 48.895H31.623V28.558h27.56v5.533h5.804v39.874Z"/></svg>