<svg xmlns="http://www.w3.org/2000/svg" width="90" height="80" fill="none"><path fill="#4C88E7" d="M73.519 42.658c.251-12.004-9.308-21.975-21.309-22.229-12.003-.253-21.976 9.306-22.23 21.308-.003.202.016.389.018.591h-.002c0 .06.008.122.008.187.007.614.033 1.232.094 1.835.028.32.082.637.125.953.05.355.093.706.162 1.05.023.123.032.247.056.367h.032c.255 1.202.589 2.373 1.034 3.495h-.042a21.741 21.741 0 0 0 2.346 4.398h.093a21.864 21.864 0 0 0 8.174 7.055h-.253a21.587 21.587 0 0 0 8.634 2.361c.004-.038 0-.087 0-.127.279.017.55.053.832.06a21.637 21.637 0 0 0 7.458-1.176v.13a21.49 21.49 0 0 0 5.271-2.637v-.137c5.596-3.826 9.342-10.196 9.499-17.484ZM51.4 58.498c-7.677-.16-14.001-5.638-15.572-12.828-.05-.244-.11-.485-.15-.729-.043-.263-.072-.53-.103-.793a16.413 16.413 0 0 1-.116-1.728c-.002-.191-.021-.374-.017-.569.016-.759.101-1.503.219-2.235h.022a16.18 16.18 0 0 1 1.404-4.396h-.066c2.673-5.62 8.452-9.466 15.066-9.326 2.384.051 4.63.626 6.653 1.59v.13a16.403 16.403 0 0 1 5.276 4.013v-.129c2.576 2.955 4.117 6.824 4.03 11.043-.19 8.99-7.658 16.15-16.646 15.958Zm35.86 16.79L82.346 80l-16.37-17.076 4.914-4.712L87.26 75.29Zm-59.338-54.07H16.555c-2.732 0-2.732-4.396 0-4.396h11.368c2.734 0 2.734 4.396 0 4.396Zm-11.368 7.108c-2.732 0-2.732-4.396 0-4.396h11.368c2.733 0 2.733 4.396 0 4.396H16.555Zm47.465 6.59v14.79a14.6 14.6 0 0 1-5.274 5.119v-25.02a14.466 14.466 0 0 1 5.274 5.11Zm-5.274 30.067c1.867-.584 3.63-1.417 5.274-2.422V79.24H3V0h49.682L64.02 10.994V22.05a23.51 23.51 0 0 0-5.274-2.383v-6.018h-8.781V5.275H8.275v68.688h50.471v-8.98Zm-10.313-10.37h-4.072a14.432 14.432 0 0 1-4.592-4.398h8.666c2.73.002 2.73 4.398-.002 4.398ZM15.96 50.217h13.428a23.064 23.064 0 0 0 2.084 4.398H15.96c-2.73-.002-2.73-4.398 0-4.398Zm32.473-3.493H38.097a14.257 14.257 0 0 1-.693-4.398H48.43c2.733 0 2.733 4.398.002 4.398ZM15.96 42.326H28.04c-.002 1.49.127 2.962.396 4.398H15.961c-2.73 0-2.73-4.398 0-4.398Zm32.473-2.706H37.668c.304-1.571.861-3.053 1.637-4.398h9.128c2.731 0 2.731 4.398 0 4.398ZM15.96 35.222h13.175a23.326 23.326 0 0 0-.951 4.398H15.961c-2.73 0-2.73-4.398 0-4.398ZM37.064 66.07c-2.732 0-2.732-4.394 0-4.394h.967a23.441 23.441 0 0 0 11.176 4.23c-.227.092-.48.165-.773.165h-11.37Z"/></svg>