<svg width="160" height="161" fill="none" xmlns="http://www.w3.org/2000/svg"><g filter="url(#filter0_d)"><circle cx="78" cy="78.651" r="70" fill="#FAFAFA"/></g><path d="M55.876 99.043L49 105.92v2.731h2.73l6.877-6.877a24.048 24.048 0 01-2.73-2.73zM104.704 65.236L92.688 77.25l2.73 2.731 12.016-12.015a1.93 1.93 0 10-2.73-2.73zM92.415 50.217a1.931 1.931 0 00-2.73 0L77.668 62.232l2.73 2.731 12.016-12.016a1.93 1.93 0 000-2.73zM64.56 57.317l2.185 2.184-8.192 8.193c-8.672 8.672-8.672 22.732 0 31.405 8.672 8.672 22.732 8.672 31.405 0l8.192-8.193 2.185 2.185 2.73-2.73-35.773-35.775-2.731 2.73z" fill="#4C88E7"/><defs><filter id="filter0_d" x="0" y=".651" width="160" height="160" filterUnits="userSpaceOnUse" color-interpolation-filters="sRGB"><feFlood flood-opacity="0" result="BackgroundImageFix"/><feColorMatrix in="SourceAlpha" values="0 0 0 0 0 0 0 0 0 0 0 0 0 0 0 0 0 0 127 0"/><feOffset dx="2" dy="2"/><feGaussianBlur stdDeviation="5"/><feColorMatrix values="0 0 0 0 0 0 0 0 0 0 0 0 0 0 0 0 0 0 0.2 0"/><feBlend in2="BackgroundImageFix" result="effect1_dropShadow"/><feBlend in="SourceGraphic" in2="effect1_dropShadow" result="shape"/></filter></defs></svg>