<svg width="160" height="160" fill="none" xmlns="http://www.w3.org/2000/svg"><g filter="url(#filter0_d)"><circle cx="78" cy="78" r="70" fill="#FAFAFA"/></g><path d="M71.697 100h-7.646l-3.78-10.693H43.749L40.115 100h-7.617l15.733-42.012h7.851L71.697 100zM58.426 83.623l-5.83-16.758c-.176-.547-.362-1.425-.557-2.636h-.117c-.176 1.113-.371 1.992-.586 2.636l-5.771 16.758h12.86zm26.015 1.143V100h-6.943V57.988h12.744c4.824 0 8.565 1.123 11.221 3.37 2.656 2.245 3.984 5.41 3.984 9.492 0 4.082-1.386 7.422-4.16 10.02-2.773 2.597-6.523 3.896-11.25 3.896h-5.596zm0-21.036v15.352h4.512c2.988 0 5.264-.693 6.826-2.08 1.563-1.387 2.344-3.34 2.344-5.86 0-4.94-2.871-7.411-8.613-7.411H84.44zM119.744 100h-7.178V57.988h7.178V100z" fill="#4C88E7"/><defs><filter id="filter0_d" x="0" y="0" width="160" height="160" filterUnits="userSpaceOnUse" color-interpolation-filters="sRGB"><feFlood flood-opacity="0" result="BackgroundImageFix"/><feColorMatrix in="SourceAlpha" values="0 0 0 0 0 0 0 0 0 0 0 0 0 0 0 0 0 0 127 0"/><feOffset dx="2" dy="2"/><feGaussianBlur stdDeviation="5"/><feColorMatrix values="0 0 0 0 0 0 0 0 0 0 0 0 0 0 0 0 0 0 0.2 0"/><feBlend in2="BackgroundImageFix" result="effect1_dropShadow"/><feBlend in="SourceGraphic" in2="effect1_dropShadow" result="shape"/></filter></defs></svg>