<svg width="160" height="160" fill="none" xmlns="http://www.w3.org/2000/svg"><g filter="url(#filter0_d)"><circle cx="78" cy="78" r="70" fill="#FAFAFA"/></g><path d="M27.252 98.33v-7.178a11.236 11.236 0 002.285 1.582c.899.47 1.846.87 2.842 1.202a23.79 23.79 0 002.988.732c.996.176 1.914.264 2.754.264 2.93 0 5.107-.489 6.533-1.465 1.446-.977 2.168-2.393 2.168-4.248 0-.996-.244-1.856-.732-2.578-.469-.743-1.133-1.416-1.992-2.022-.86-.605-1.875-1.181-3.047-1.728a142.041 142.041 0 00-3.72-1.758 61.545 61.545 0 01-3.985-2.315 17.947 17.947 0 01-3.223-2.578 11.445 11.445 0 01-2.139-3.222c-.507-1.192-.761-2.588-.761-4.19 0-1.972.44-3.681 1.318-5.127a11.263 11.263 0 013.516-3.603c1.465-.957 3.125-1.66 4.98-2.11a23.112 23.112 0 015.684-.703c4.394 0 7.597.498 9.61 1.494v6.885c-2.384-1.719-5.45-2.578-9.2-2.578-1.035 0-2.07.098-3.106.293a9.384 9.384 0 00-2.753.967 6.006 6.006 0 00-1.963 1.728c-.508.703-.762 1.553-.762 2.549 0 .938.195 1.748.586 2.432.39.683.957 1.308 1.699 1.875.762.566 1.68 1.123 2.754 1.67 1.094.527 2.354 1.103 3.78 1.728a48.815 48.815 0 014.13 2.403c1.309.84 2.451 1.767 3.428 2.783a11.76 11.76 0 012.344 3.398c.585 1.23.879 2.637.879 4.219 0 2.129-.43 3.926-1.29 5.39a10.346 10.346 0 01-3.486 3.575c-1.445.918-3.115 1.582-5.01 1.992-1.894.41-3.896.615-6.005.615-.704 0-1.573-.058-2.608-.176a31.285 31.285 0 01-3.135-.468 26.862 26.862 0 01-3.047-.733c-.957-.293-1.728-.625-2.314-.996zm69.14 1.67h-7.646l-3.78-10.693H68.444L64.811 100h-7.618l15.733-42.012h7.851L96.393 100zm-13.27-16.377L77.29 66.865c-.176-.547-.361-1.425-.557-2.636h-.117c-.176 1.113-.37 1.992-.586 2.636L70.26 83.623H83.12zm26.015 1.143V100h-6.944V57.988h12.745c4.824 0 8.564 1.123 11.22 3.37 2.656 2.245 3.985 5.41 3.985 9.492 0 4.082-1.387 7.422-4.161 10.02-2.773 2.597-6.523 3.896-11.25 3.896h-5.595zm0-21.036v15.352h4.511c2.989 0 5.264-.693 6.827-2.08 1.562-1.387 2.343-3.34 2.343-5.86 0-4.94-2.871-7.411-8.613-7.411h-5.068z" fill="#4C88E7"/><defs><filter id="filter0_d" x="0" y="0" width="160" height="160" filterUnits="userSpaceOnUse" color-interpolation-filters="sRGB"><feFlood flood-opacity="0" result="BackgroundImageFix"/><feColorMatrix in="SourceAlpha" values="0 0 0 0 0 0 0 0 0 0 0 0 0 0 0 0 0 0 127 0"/><feOffset dx="2" dy="2"/><feGaussianBlur stdDeviation="5"/><feColorMatrix values="0 0 0 0 0 0 0 0 0 0 0 0 0 0 0 0 0 0 0.2 0"/><feBlend in2="BackgroundImageFix" result="effect1_dropShadow"/><feBlend in="SourceGraphic" in2="effect1_dropShadow" result="shape"/></filter></defs></svg>