<svg width="160" height="160" fill="none" xmlns="http://www.w3.org/2000/svg"><g filter="url(#filter0_d)"><circle cx="78" cy="78" r="70" fill="#FAFAFA"/></g><path fill="#4C88E7" d="M49.547 53h6.592v49.765h-6.592zM39 53h10.547v6.38H39zM103.983 60.288a25.893 25.893 0 00-10.716-6.217 26.532 26.532 0 00-12.479-.593 26.088 26.088 0 00-11.294 5.17 24.96 24.96 0 00-7.442 9.712 24.158 24.158 0 00-1.834 11.961 24.378 24.378 0 004.21 11.385 25.429 25.429 0 009.257 8.12 26.388 26.388 0 0012.119 2.939v-6.76c-3.08 0-6.111-.735-8.827-2.14a18.523 18.523 0 01-6.742-5.914 17.755 17.755 0 01-3.066-8.292 17.595 17.595 0 011.335-8.712 18.179 18.179 0 015.42-7.074 19 19 0 018.227-3.765 19.324 19.324 0 019.088.432 18.855 18.855 0 017.805 4.528l4.939-4.78z"/><path d="M85.414 96.008h32.262v6.757H85.414v-6.757z" fill="#4C88E7"/><defs><filter id="filter0_d" x="0" y="0" width="160" height="160" filterUnits="userSpaceOnUse" color-interpolation-filters="sRGB"><feFlood flood-opacity="0" result="BackgroundImageFix"/><feColorMatrix in="SourceAlpha" values="0 0 0 0 0 0 0 0 0 0 0 0 0 0 0 0 0 0 127 0"/><feOffset dx="2" dy="2"/><feGaussianBlur stdDeviation="5"/><feColorMatrix values="0 0 0 0 0 0 0 0 0 0 0 0 0 0 0 0 0 0 0.2 0"/><feBlend in2="BackgroundImageFix" result="effect1_dropShadow"/><feBlend in="SourceGraphic" in2="effect1_dropShadow" result="shape"/></filter></defs></svg>