<svg width="119" height="123" fill="none" xmlns="http://www.w3.org/2000/svg"><path d="M0 64.9v43.898C0 116.632 7.336 123 16.363 123H119V64.9c0-7.834-7.336-14.202-16.362-14.202H0V64.9zm23.8 32.278h71.4v10.329H23.8v-5.165-5.164zM59.025 41.63c2.107 0 3.816-1.748 3.816-3.902V20.04c3.725-1.546 6.36-5.277 6.36-9.632C69.202 4.668 64.639 0 59.026 0c-5.612 0-10.177 4.668-10.177 10.408 0 4.355 2.636 8.086 6.36 9.632v17.688c0 2.154 1.71 3.903 3.817 3.903zM29.309 10.408C29.309 4.668 24.927 0 19.539 0S9.77 4.668 9.77 10.408c0 4.356 2.531 8.087 6.107 9.633v12.484c0 1.036.386 2.03 1.074 2.758l4.885 5.204c1.431 1.525 3.752 1.525 5.183 0s1.431-3.997 0-5.521l-3.81-4.06V20.042c3.57-1.546 6.101-5.277 6.101-9.633zM91.037 34.967c-1.431 1.524-1.431 3.996 0 5.52 1.431 1.525 3.752 1.525 5.183 0l4.885-5.203a4.04 4.04 0 001.074-2.758V20.038c3.571-1.545 6.102-5.276 6.102-9.631 0-5.74-4.382-10.407-9.77-10.407s-9.77 4.667-9.77 10.407c0 4.355 2.53 8.086 6.106 9.631v10.865l-3.81 4.064z" fill="#4C88E7"/><ellipse cx="19.5" cy="9.5" rx="4.5" ry="5.5" fill="#fff"/><ellipse cx="59.5" cy="9.5" rx="4.5" ry="5.5" fill="#fff"/><ellipse cx="98.5" cy="9.5" rx="4.5" ry="5.5" fill="#fff"/><path d="M55.758 92H49.64l-3.024-8.555H33.398L30.492 92h-6.094l12.586-33.61h6.282L55.758 92zM45.14 78.898l-4.664-13.406c-.141-.437-.29-1.14-.446-2.11h-.093c-.141.891-.297 1.595-.47 2.11l-4.616 13.406H45.14zm20.812.915V92h-5.555V58.39h10.196c3.86 0 6.851.9 8.976 2.696 2.125 1.797 3.188 4.328 3.188 7.594 0 3.265-1.11 5.937-3.328 8.015-2.22 2.078-5.22 3.118-9 3.118h-4.477zm0-16.829v12.282h3.61c2.39 0 4.21-.555 5.46-1.664 1.25-1.11 1.875-2.672 1.875-4.688 0-3.953-2.296-5.93-6.89-5.93h-4.055zM94.195 92h-5.742V58.39h5.742V92z" fill="#fff"/></svg>