<svg width="120" height="114" fill="none" xmlns="http://www.w3.org/2000/svg"><path d="M4.055 100.359c2.704 2.767 5.987 4.151 9.85 4.151 3.861 0 7.144-1.383 9.848-4.151 2.703-2.767 4.054-6.127 4.054-10.081 0-2.57-.625-4.955-1.88-7.154-1.256-2.2-2.944-3.917-5.07-5.152 0-2.57.204-4.832.614-6.783.411-1.952 1.087-3.669 2.027-5.152.944-1.483 1.92-2.743 2.934-3.781 1.015-1.038 2.44-2.014 4.274-2.928a64.956 64.956 0 015.106-2.299c1.568-.616 3.681-1.345 6.336-2.186 4.829-1.532 8.545-2.94 11.153-4.225v36.844c-2.125 1.234-3.814 2.952-5.07 5.151-1.254 2.2-1.882 4.585-1.882 7.154 0 3.954 1.351 7.315 4.055 10.082 2.703 2.767 5.986 4.151 9.849 4.151 3.863 0 7.145-1.383 9.85-4.151 2.702-2.767 4.054-6.128 4.054-10.082 0-2.57-.627-4.954-1.882-7.154-1.255-2.199-2.945-3.916-5.07-5.151v-60.79c2.125-1.233 3.815-2.953 5.07-5.151 1.255-2.2 1.882-4.585 1.882-7.154 0-3.954-1.35-7.314-4.055-10.081-2.704-2.767-5.987-4.152-9.85-4.152-3.861 0-7.145 1.385-9.848 4.152-2.703 2.767-4.055 6.128-4.055 10.08 0 2.57.628 4.954 1.883 7.155 1.255 2.198 2.944 3.918 5.069 5.152V28.6c0 3.41-1.002 5.88-3.005 7.412-2.004 1.533-6.095 3.287-12.276 5.264-6.518 2.125-11.42 4.128-14.702 6.006-10.814 6.275-16.27 16.506-16.366 30.69-2.126 1.235-3.814 2.953-5.07 5.152C.63 85.324 0 87.708 0 90.278c0 3.953 1.351 7.313 4.055 10.081zM55.327 9.324c1.353-1.384 2.994-2.076 4.925-2.076 1.931 0 3.573.692 4.925 2.076 1.351 1.383 2.027 3.064 2.027 5.04 0 1.978-.675 3.657-2.027 5.042-1.352 1.383-2.994 2.075-4.925 2.075-1.93 0-3.573-.693-4.925-2.075-1.352-1.385-2.027-3.064-2.027-5.042 0-1.976.675-3.657 2.027-5.04zm0 85.401c1.353-1.383 2.994-2.075 4.925-2.075 1.931 0 3.573.691 4.925 2.075 1.351 1.384 2.027 3.064 2.027 5.041 0 1.977-.675 3.658-2.027 5.041-1.352 1.383-2.994 2.075-4.925 2.075-1.93 0-3.573-.692-4.925-2.075-1.352-1.383-2.027-3.064-2.027-5.04 0-1.978.675-3.658 2.027-5.042zM8.98 85.235c1.351-1.382 2.992-2.075 4.923-2.075 1.932 0 3.574.693 4.925 2.076s2.027 3.063 2.027 5.04c0 1.978-.676 3.657-2.027 5.042-1.352 1.384-2.992 2.075-4.925 2.075-1.931 0-3.572-.691-4.923-2.075-1.352-1.383-2.028-3.064-2.028-5.041 0-1.977.675-3.658 2.028-5.041z" fill="#4C88E7"/><path d="M115.945 100.359c-2.704 2.767-5.987 4.151-9.85 4.151-3.861 0-7.144-1.383-9.848-4.151-2.703-2.767-4.054-6.127-4.054-10.081 0-2.57.625-4.955 1.88-7.154 1.256-2.2 2.944-3.917 5.07-5.152 0-2.57-.204-4.832-.614-6.783-.411-1.952-1.087-3.669-2.028-5.152-.943-1.483-1.919-2.743-2.933-3.781-1.015-1.038-2.44-2.014-4.274-2.928a64.956 64.956 0 00-5.106-2.299c-1.568-.616-3.681-1.345-6.336-2.186-4.829-1.532-8.546-2.94-11.153-4.225v36.844c2.124 1.234 3.814 2.952 5.07 5.151 1.254 2.2 1.882 4.585 1.882 7.154 0 3.954-1.351 7.315-4.055 10.082-2.703 2.767-5.986 4.151-9.849 4.151-3.863 0-7.145-1.383-9.85-4.151-2.702-2.767-4.054-6.128-4.054-10.082 0-2.57.627-4.954 1.882-7.154 1.255-2.199 2.945-3.916 5.07-5.151v-60.79c-2.125-1.233-3.815-2.953-5.07-5.151-1.255-2.2-1.882-4.585-1.882-7.154 0-3.954 1.35-7.314 4.055-10.081 2.704-2.767 5.987-4.152 9.85-4.152 3.861 0 7.145 1.385 9.848 4.152 2.703 2.767 4.055 6.128 4.055 10.08 0 2.57-.628 4.954-1.883 7.155-1.255 2.198-2.945 3.918-5.069 5.152V28.6c0 3.41 1.002 5.88 3.005 7.412 2.004 1.533 6.095 3.287 12.276 5.264 6.518 2.125 11.42 4.128 14.702 6.006 10.814 6.275 16.27 16.506 16.366 30.69 2.126 1.235 3.814 2.953 5.069 5.152 1.254 2.2 1.883 4.584 1.883 7.154.001 3.953-1.351 7.313-4.055 10.081zM64.673 9.324c-1.353-1.384-2.994-2.076-4.925-2.076-1.931 0-3.573.692-4.925 2.076-1.351 1.383-2.028 3.064-2.028 5.04 0 1.978.676 3.657 2.028 5.042 1.352 1.383 2.994 2.075 4.925 2.075 1.93 0 3.573-.693 4.925-2.075 1.352-1.385 2.027-3.064 2.027-5.042 0-1.976-.675-3.657-2.027-5.04zm0 85.401c-1.353-1.383-2.994-2.075-4.925-2.075-1.931 0-3.573.691-4.925 2.075-1.351 1.384-2.028 3.064-2.028 5.041 0 1.977.676 3.658 2.028 5.041 1.352 1.383 2.994 2.075 4.925 2.075 1.93 0 3.573-.692 4.925-2.075 1.352-1.383 2.027-3.064 2.027-5.04 0-1.978-.675-3.658-2.027-5.042zm46.347-9.49c-1.351-1.382-2.992-2.075-4.923-2.075-1.932 0-3.574.693-4.925 2.076s-2.027 3.063-2.027 5.04c0 1.978.676 3.657 2.027 5.042 1.352 1.384 2.993 2.075 4.925 2.075 1.931 0 3.572-.691 4.923-2.075 1.352-1.383 2.028-3.064 2.028-5.041 0-1.977-.675-3.658-2.028-5.041z" fill="#4C88E7"/></svg>