<svg xmlns="http://www.w3.org/2000/svg" width="1193" height="559" fill="none"><g clip-path="url(#a)"><path fill="#005BFF" d="M0 0h1193v559H0z"/><path fill="#fff" d="M1057.8 81.767c13.79 23.256 41.87 35.305 70.72 40.559 27.89 5.081 57.06 2.142 79.67-13.163 23.37-15.817 37.61-40.275 38.06-66.517.46-26.92-12.24-52.999-35.73-69.983-23.76-17.185-55.21-23.382-84.9-17.257-29.62 6.11-54.14 24.194-67.27 48.651-13.16 24.532-14.87 53.58-.55 77.71ZM999.808 77.922c-3.825 5.87-11.224 8.681-18.748 9.727-7.274 1.01-14.792-.069-20.478-4.277-5.876-4.349-9.295-10.835-9.125-17.632.175-6.973 3.747-13.584 10.011-17.724 6.338-4.189 14.546-5.45 22.165-3.54 7.598 1.905 13.748 6.853 16.877 13.327 3.14 6.493 3.27 14.03-.702 20.12ZM1049.57 97.063c-2.76 4.238-8.11 6.269-13.54 7.023-5.25.73-10.68-.049-14.78-3.088-4.25-3.14-6.72-7.823-6.59-12.731.12-5.035 2.7-9.809 7.23-12.798 4.57-3.025 10.5-3.935 16-2.556 5.49 1.375 9.93 4.948 12.19 9.623 2.27 4.688 2.35 10.13-.51 14.527Z" opacity=".4"/><path fill="#F91155" d="M987.086 757.547c43.504 16.958 94.514 3.482 139.334-20.05 43.34-22.755 79.89-57.774 94.37-102.644 14.97-46.372 8.32-94.786-18.98-130.958-28.01-37.105-73.02-59.071-123.03-57.194-50.6 1.899-99.97 26.92-133.842 66.833-33.784 39.81-47.906 90.49-39.748 137.719 8.182 47.372 36.758 88.697 81.896 106.294ZM1000.09 425.312c3.64 1.419 7.91.291 11.66-1.678 3.63-1.905 6.69-4.836 7.9-8.591 1.25-3.881.69-7.934-1.59-10.961-2.34-3.106-6.11-4.944-10.3-4.787-4.23.159-8.365 2.253-11.2 5.594-2.828 3.332-4.01 7.573-3.327 11.526.685 3.965 3.076 7.424 6.857 8.897ZM1071.16 417.646c6 2.338 13.03.48 19.21-2.765 5.97-3.137 11.01-7.965 13.01-14.151 2.06-6.393 1.15-13.068-2.62-18.055-3.86-5.116-10.06-8.144-16.96-7.885-6.98.261-13.78 3.711-18.45 9.214-4.66 5.488-6.61 12.476-5.48 18.987 1.13 6.531 5.07 12.229 11.29 14.655Z"/><path fill="#fff" d="M-69.523 627.854c12.754 44.914 54.3 77.432 100.127 98.947 44.311 20.804 94.295 28.785 138.804 13.229 45.998-16.077 80.574-50.611 92.917-94.217 12.661-44.729 2.984-93.873-28.713-132.598-32.073-39.185-81.832-63.425-134.1-66.319-52.134-2.885-101.056 16.466-133.773 51.491-32.816 35.13-48.497 82.863-35.262 129.467ZM86.629 424.933c-5.2 4.695-13.072 5.52-20.612 4.605-7.291-.884-14.282-3.851-18.702-9.374-4.568-5.708-6.213-12.852-4.31-19.38 1.953-6.695 7.098-12.173 14.213-14.572 7.199-2.428 15.456-1.546 22.332 2.249 6.859 3.786 11.538 10.143 12.907 17.202 1.375 7.081-.434 14.399-5.828 19.27ZM122.63 437.871c-2.475 2.235-6.224 2.628-9.814 2.193-3.471-.421-6.8-1.834-8.904-4.464-2.175-2.717-2.958-6.119-2.052-9.227.93-3.188 3.379-5.796 6.767-6.938 3.427-1.156 7.359-.736 10.633 1.071 3.265 1.802 5.493 4.829 6.145 8.19.655 3.371-.206 6.856-2.775 9.175Z" opacity=".4"/><circle cx="15" cy="12" r="39" fill="#F91155"/><path fill="#F91155" d="M120 0c0 57.99-47.01 105-105 105S-90 57.99-90 0s47.01-105 105-105S120-57.99 120 0ZM-58.5 0c0 40.593 32.907 73.5 73.5 73.5S88.5 40.593 88.5 0 55.593-73.5 15-73.5-58.5-40.593-58.5 0Z"/><path fill="#F91155" d="M177 0c0 88.918-72.53 161-162 161S-147 88.918-147 0s72.53-161 162-161S177-88.918 177 0Zm-291.6 0c0 71.134 58.024 128.8 129.6 128.8S144.6 71.134 144.6 0c0-71.134-58.024-128.8-129.6-128.8S-114.6-71.134-114.6 0Z"/></g><defs><clipPath id="a"><path fill="#fff" d="M0 0h1193v559H0z"/></clipPath></defs></svg>