<svg xmlns="http://www.w3.org/2000/svg" width="1140" height="640" fill="none"><g clip-path="url(#a)"><path fill="#A33F93" d="M0 0h1140v640H0z"/><g filter="url(#b)"><circle cx="932.5" cy="463.5" r="98.5" fill="url(#c)"/></g><g filter="url(#d)"><circle cx="1023" cy="346" r="30" fill="url(#e)"/></g><circle cx="21" cy="461" r="109" fill="#EA138C" fill-opacity=".2"/><g filter="url(#f)"><circle cx="1077.5" cy="440.5" r="155.5" fill="url(#g)"/></g><g filter="url(#h)"><circle cx="48.5" cy="434.5" r="7.5" fill="url(#i)"/></g><g filter="url(#j)"><circle cx="21.5" cy="461.5" r="51.5" fill="#EA138C" fill-opacity=".8"/></g><g filter="url(#k)"><circle cx="670" cy="385" r="7" fill="url(#l)" fill-opacity=".5"/></g><g filter="url(#m)"><circle cx="681" cy="400" r="29" fill="#EA138C" fill-opacity=".7"/></g><circle cx="286" cy="-4" r="39" fill="#C91B83"/><path fill="#C91B83" d="M391-16c0 57.99-47.01 105-105 105S181 41.99 181-16s47.01-105 105-105S391-73.99 391-16zm-178.5 0c0 40.593 32.907 73.5 73.5 73.5s73.5-32.907 73.5-73.5-32.907-73.5-73.5-73.5-73.5 32.907-73.5 73.5z"/><path fill="#C91B83" d="M448-16c0 88.918-72.53 161-162 161S124 72.918 124-16s72.53-161 162-161 162 72.082 162 161zm-291.6 0c0 71.134 58.024 128.8 129.6 128.8S415.6 55.134 415.6-16c0-71.134-58.024-128.8-129.6-128.8S156.4-87.134 156.4-16z"/><g filter="url(#n)"><circle cx="1090" cy="55" r="12" fill="url(#o)"/></g><g filter="url(#p)"><circle cx="1106.5" cy="35.5" r="53.5" fill="#CD1781" fill-opacity=".8"/></g></g><defs><filter id="b" width="205" height="205" x="830" y="365" color-interpolation-filters="sRGB" filterUnits="userSpaceOnUse"><feFlood flood-opacity="0" result="BackgroundImageFix"/><feColorMatrix in="SourceAlpha" values="0 0 0 0 0 0 0 0 0 0 0 0 0 0 0 0 0 0 127 0"/><feOffset dy="4"/><feGaussianBlur stdDeviation="2"/><feColorMatrix values="0 0 0 0 0 0 0 0 0 0 0 0 0 0 0 0 0 0 0.25 0"/><feBlend in2="BackgroundImageFix" result="effect1_dropShadow"/><feBlend in="SourceGraphic" in2="effect1_dropShadow" result="shape"/></filter><filter id="d" width="68" height="68" x="989" y="316" color-interpolation-filters="sRGB" filterUnits="userSpaceOnUse"><feFlood flood-opacity="0" result="BackgroundImageFix"/><feColorMatrix in="SourceAlpha" values="0 0 0 0 0 0 0 0 0 0 0 0 0 0 0 0 0 0 127 0"/><feOffset dy="4"/><feGaussianBlur stdDeviation="2"/><feColorMatrix values="0 0 0 0 0 0 0 0 0 0 0 0 0 0 0 0 0 0 0.25 0"/><feBlend in2="BackgroundImageFix" result="effect1_dropShadow"/><feBlend in="SourceGraphic" in2="effect1_dropShadow" result="shape"/></filter><filter id="f" width="319" height="319" x="918" y="285" color-interpolation-filters="sRGB" filterUnits="userSpaceOnUse"><feFlood flood-opacity="0" result="BackgroundImageFix"/><feColorMatrix in="SourceAlpha" values="0 0 0 0 0 0 0 0 0 0 0 0 0 0 0 0 0 0 127 0"/><feOffset dy="4"/><feGaussianBlur stdDeviation="2"/><feColorMatrix values="0 0 0 0 0 0 0 0 0 0 0 0 0 0 0 0 0 0 0.25 0"/><feBlend in2="BackgroundImageFix" result="effect1_dropShadow"/><feBlend in="SourceGraphic" in2="effect1_dropShadow" result="shape"/></filter><filter id="h" width="23" height="23" x="37" y="425" color-interpolation-filters="sRGB" filterUnits="userSpaceOnUse"><feFlood flood-opacity="0" result="BackgroundImageFix"/><feColorMatrix in="SourceAlpha" values="0 0 0 0 0 0 0 0 0 0 0 0 0 0 0 0 0 0 127 0"/><feOffset dy="2"/><feGaussianBlur stdDeviation="2"/><feColorMatrix values="0 0 0 0 0 0 0 0 0 0 0 0 0 0 0 0 0 0 0.25 0"/><feBlend in2="BackgroundImageFix" result="effect1_dropShadow"/><feBlend in="SourceGraphic" in2="effect1_dropShadow" result="shape"/></filter><filter id="j" width="111" height="111" x="-34" y="410" color-interpolation-filters="sRGB" filterUnits="userSpaceOnUse"><feFlood flood-opacity="0" result="BackgroundImageFix"/><feColorMatrix in="SourceAlpha" values="0 0 0 0 0 0 0 0 0 0 0 0 0 0 0 0 0 0 127 0"/><feOffset dy="4"/><feGaussianBlur stdDeviation="2"/><feColorMatrix values="0 0 0 0 0 0 0 0 0 0 0 0 0 0 0 0 0 0 0.25 0"/><feBlend in2="BackgroundImageFix" result="effect1_dropShadow"/><feBlend in="SourceGraphic" in2="effect1_dropShadow" result="shape"/></filter><filter id="k" width="22" height="22" x="659" y="376" color-interpolation-filters="sRGB" filterUnits="userSpaceOnUse"><feFlood flood-opacity="0" result="BackgroundImageFix"/><feColorMatrix in="SourceAlpha" values="0 0 0 0 0 0 0 0 0 0 0 0 0 0 0 0 0 0 127 0"/><feOffset dy="2"/><feGaussianBlur stdDeviation="2"/><feColorMatrix values="0 0 0 0 0 0 0 0 0 0 0 0 0 0 0 0 0 0 0.25 0"/><feBlend in2="BackgroundImageFix" result="effect1_dropShadow"/><feBlend in="SourceGraphic" in2="effect1_dropShadow" result="shape"/></filter><filter id="m" width="66" height="66" x="648" y="369" color-interpolation-filters="sRGB" filterUnits="userSpaceOnUse"><feFlood flood-opacity="0" result="BackgroundImageFix"/><feColorMatrix in="SourceAlpha" values="0 0 0 0 0 0 0 0 0 0 0 0 0 0 0 0 0 0 127 0"/><feOffset dy="2"/><feGaussianBlur stdDeviation="2"/><feColorMatrix values="0 0 0 0 0 0 0 0 0 0 0 0 0 0 0 0 0 0 0.25 0"/><feBlend in2="BackgroundImageFix" result="effect1_dropShadow"/><feBlend in="SourceGraphic" in2="effect1_dropShadow" result="shape"/></filter><filter id="n" width="32" height="32" x="1074" y="43" color-interpolation-filters="sRGB" filterUnits="userSpaceOnUse"><feFlood flood-opacity="0" result="BackgroundImageFix"/><feColorMatrix in="SourceAlpha" values="0 0 0 0 0 0 0 0 0 0 0 0 0 0 0 0 0 0 127 0"/><feOffset dy="4"/><feGaussianBlur stdDeviation="2"/><feColorMatrix values="0 0 0 0 0 0 0 0 0 0 0 0 0 0 0 0 0 0 0.25 0"/><feBlend in2="BackgroundImageFix" result="effect1_dropShadow"/><feBlend in="SourceGraphic" in2="effect1_dropShadow" result="shape"/></filter><filter id="p" width="115" height="115" x="1049" y="-20" color-interpolation-filters="sRGB" filterUnits="userSpaceOnUse"><feFlood flood-opacity="0" result="BackgroundImageFix"/><feColorMatrix in="SourceAlpha" values="0 0 0 0 0 0 0 0 0 0 0 0 0 0 0 0 0 0 127 0"/><feOffset dy="2"/><feGaussianBlur stdDeviation="2"/><feColorMatrix values="0 0 0 0 0 0 0 0 0 0 0 0 0 0 0 0 0 0 0.25 0"/><feBlend in2="BackgroundImageFix" result="effect1_dropShadow"/><feBlend in="SourceGraphic" in2="effect1_dropShadow" result="shape"/></filter><linearGradient id="c" x1="834" x2="1031" y1="365" y2="562" gradientUnits="userSpaceOnUse"><stop stop-color="#DF1285" stop-opacity=".74"/><stop offset="1" stop-color="#DF1285"/></linearGradient><linearGradient id="e" x1="993" x2="1053" y1="319" y2="376" gradientUnits="userSpaceOnUse"><stop stop-color="#fff"/><stop offset="1" stop-color="#fff" stop-opacity="0"/></linearGradient><linearGradient id="g" x1="1138.5" x2="985" y1="222" y2="585" gradientUnits="userSpaceOnUse"><stop stop-color="#ED138D" stop-opacity=".33"/><stop offset=".507" stop-color="#ED138D" stop-opacity=".953"/><stop offset="1" stop-color="#ED138D"/></linearGradient><linearGradient id="i" x1="56" x2="41" y1="427" y2="442" gradientUnits="userSpaceOnUse"><stop stop-color="#fff"/><stop offset="1" stop-color="#fff" stop-opacity="0"/></linearGradient><linearGradient id="l" x1="663" x2="677" y1="378" y2="392" gradientUnits="userSpaceOnUse"><stop stop-color="#fff"/><stop offset="1" stop-color="#fff" stop-opacity="0"/></linearGradient><linearGradient id="o" x1="1078" x2="1102" y1="67" y2="43" gradientUnits="userSpaceOnUse"><stop stop-color="#fff"/><stop offset="1" stop-color="#fff" stop-opacity="0"/></linearGradient><clipPath id="a"><path fill="#fff" d="M0 0h1140v640H0z"/></clipPath></defs></svg>