<svg xmlns="http://www.w3.org/2000/svg" width="1140" height="640" fill="none"><g clip-path="url(#a)"><path fill="#FED41E" d="M0 0h1140v640H0z"/><path fill="#2A2A2A" d="m1074.59 417.058 68.33-63.248 13.67 55.248-78.38 79.649-3.62-71.649z"/><path fill="#2A2A2A" d="m1056.59 369.558 57.91-31.058-36.91 150.058-45-22 24-97z"/><path fill="#2A2A2A" d="m1064.81 291.49 49.78 47.068-66 61.5-77.999 117-55.5-23 74.5-96 75.219-106.568z"/><path fill="#2A2A2A" d="m954.591 343.558 33.001 16.499-11.001 56.001-6 100.5-55.499-22.533 18.499-74.467 21-76z"/><path fill="#2A2A2A" d="m943.091 337.558 40.001 20.499-51.501 69.001-44.998 60.499H806l137.091-149.999zM59 523c0 57.99-47.01 105-105 105s-105-47.01-105-105 47.01-105 105-105S59 465.01 59 523zm-178.5 0c0 40.593 32.907 73.5 73.5 73.5s73.5-32.907 73.5-73.5-32.907-73.5-73.5-73.5-73.5 32.907-73.5 73.5z"/><path fill="#2A2A2A" d="M116 523c0 88.918-72.53 161-162 161s-162-72.082-162-161 72.53-161 162-161 162 72.082 162 161zm-291.6 0c0 71.134 58.024 128.8 129.6 128.8S83.6 594.134 83.6 523c0-71.134-58.024-128.8-129.6-128.8S-175.6 451.866-175.6 523zM-7.16 150.968l-65.64-28.12L20.496-94.919l65.638 28.121zM1116.43-4.418 1074-50.538l37.22-9.086 53.44 52.919-48.23 2.287z"/><path fill="#2A2A2A" d="m1084.42 7.596-20.78-39.04 100.92 25.158-14.91 30.24-65.23-16.358z"/><path fill="#2A2A2A" d="m1031.9 1.897 31.78-33.402 41.25 44.55 78.58 52.743-15.6 37.305-64.45-50.344-71.56-50.852z"/><path fill="#2A2A2A" d="m1066.71 76.203 11.17-22.176 37.67 7.522 67.62 4.25-15.28 37.306-50.08-12.608-51.1-14.294z"/><path fill="#2A2A2A" d="m1062.64 83.93 13.88-26.879 46.34 34.808 40.62 30.413-.17 54.242-100.67-92.584z"/></g><defs><clipPath id="a"><path fill="#fff" d="M0 0h1140v640H0z"/></clipPath></defs></svg>