<svg width="643" height="326" fill="none" xmlns="http://www.w3.org/2000/svg"><g style="mix-blend-mode:multiply" opacity=".4"><path d="M588.034 242.501v-3.494h-171.08V125.949a4.669 4.669 0 012.576 1.589 4.67 4.67 0 011.064 2.833v108.636h5.46V130.371a10.029 10.029 0 00-9.1-9.609v-5.861h-28.919v5.861a10.263 10.263 0 00-8.918 7.589V92.206h2.438v-3.33H380.3a4.668 4.668 0 000-.474 7.615 7.615 0 00-.091-.892c0-.31 0-.6-.128-.91-.127-.31-.109-.564-.182-.855a7.5 7.5 0 00-.218-.874c0-.291-.164-.564-.237-.819l-.327-.855c-.091-.273-.201-.528-.31-.783a11.364 11.364 0 00-.4-.819l-.382-.728c-.146-.273-.31-.528-.474-.782l-.436-.674c-.182-.255-.364-.51-.565-.746-.2-.237-.309-.419-.491-.619s-.419-.473-.637-.71l-.528-.564-.728-.655-.546-.473-.819-.619-.582-.4c-.291-.2-.601-.383-.91-.565-.31-.182-.364-.236-.564-.327l-1.038-.51-.528-.236c-.4-.17-.8-.316-1.201-.437l-.455-.164c-.455-.146-.946-.255-1.419-.364h-.292c-.436-.091-.873-.146-1.31-.2a9.756 9.756 0 00-9.682-9.446h-18.71a9.755 9.755 0 00-9.755 9.755v62.572a17.027 17.027 0 00-5.842 12.212 31.529 31.529 0 00-9.483 2.785v-34.107a16.636 16.636 0 00-28.192-11.406 16.64 16.64 0 00-5.059 11.406V239.08h-20.821v3.494h-6.206v3.495h343.489v-3.495l-6.207-.073zM362.1 106.493c.983.002 1.964-.09 2.93-.273a11.16 11.16 0 001.11-.273l.346-.091.892-.31.491-.182.746-.345.583-.273.637-.364.637-.383.509-.382c.219-.164.455-.309.655-.491l.437-.364.655-.601v5.315l-11.011 9.1-11.029-9.1v-5.988a15.222 15.222 0 0011.412 5.005zm-11.321 45.973l11.029-9.1 10.174 8.445v9.937l-10.101 8.445-10.101-8.372c-.291-.492-.6-.983-.928-1.438v-7.881l-.073-.036zm-19.401 54.6a26.937 26.937 0 009.391-4.605v1.82l-9.318 7.772-.073-4.987zm13.177-8.154v2.221l-2.348 1.965v-1.82a26.136 26.136 0 002.421-2.402l-.073.036zm3.585-5.059v4.331l-2.129 1.82v-2.802a26.172 26.172 0 002.129-3.349zm0 5.278v9.864l-2.129 1.82v-9.864l2.129-1.82zm-2.129 12.376v-.128l2.129-1.82v4.059l-2.129-1.82v-.291zm4.841-9.1v-13.25l6.679 5.46v6.607l-6.679 5.46v-4.277zm0-14.032v-2.057c.228-1.159.374-2.333.437-3.513h6.242v11.248l-6.679-5.678zm6.679-11.557h-1.055v-1.584l1.128-.946-.073 2.53zm-15.251 27.227l2.348-1.948v18.692h-2.348v-16.744zm3.731 8.536l2.129 1.82v6.388h-2.129v-8.208zm4.841 4.022l5.041 4.186h-5.041v-4.186zm6.679 4.186h-.891l-5.788-4.805v-8.572l6.679-5.46v18.837zm14.56-47.593h-6.57l-3.221-2.676 9.791-8.153v10.829zm-7.28 0h-5.714l2.857-2.366 2.857 2.366zm-6.479 0h-.728v.637l-1.219 1.001a31.697 31.697 0 00-3.768-11.721l8.955 7.426-3.24 2.657zm-26.881 39.84l9.373-7.79v15.543h-4.204v7.48h-.146l-5.041-4.186.018-11.047zm41.441-61.571h-.509l-10.12-8.408 4.387-3.64h3.64a7.883 7.883 0 012.566.455v11.593h.036zm-11.011-8.718l-4.022-3.33h8.026l-4.004 3.33zm-30.43 82.264l3.913 3.258h-3.913v-3.258zm46.301-79.279v5.733h-3.913v-11.229a8.207 8.207 0 013.913 3.967v1.529zm-4.86-15.033a16.97 16.97 0 00-2.566-.219h-19.474v-4.131l11.029-9.1 11.011 9.1v4.35zm-22.04-22.623l10.647 8.827-10.647 8.809v-17.636zm-.946 22.404h-2.821l-.601-.509 3.422-2.839v3.348zm.946 8.937h6.261l4.386 3.64-10.647 8.808v-12.448zm-.946 17.217v2.475a32.595 32.595 0 00-2.967-3.367l2.967-2.457v3.349zm27.846-26.263v1.82a17.46 17.46 0 00-1.602-.673l1.492-1.238.11.091zm-2.13.965a14.296 14.296 0 00-1.82-.492v-3.64l3.422 2.821-1.602 1.311zm-2.73-5.606l-10.629-8.827 10.629-8.827v17.654zM347.03 92.97a15.03 15.03 0 002.876 7.28v6.425l-3.895-3.222V93.007l1.019-.037zm-1.019 11.048l3.895 3.239v19.256l-3.804 3.148v-25.48l-.091-.163zm0 26.317l.236.2h-.327l.091-.2zm3.895 9.1v13.249l-3.331 2.767-.564-.528v-15.506l3.895.018zm-5.278 6.315v7.972a31.581 31.581 0 00-13.177-6.316v-5.15a8.087 8.087 0 016.133-2.839h7.044v6.333zm43.407-19.783v25.48h-.601v-3.859a17.077 17.077 0 00-3.039-9.737v-7.48a4.675 4.675 0 013.64-4.422v.018zm-10.283 3.64h-.11l-3.803-3.094v-19.238l3.913-3.221v25.553zm0-26.154l-3.913 3.24v-5.66c.109-.109.2-.237.291-.346l.6-.8.237-.365c.182-.291.364-.564.528-.873a3.92 3.92 0 00.2-.383c.164-.29.309-.6.455-.928l.164-.4c.134-.315.249-.637.346-.965.056-.143.105-.288.145-.437.091-.327.182-.655.255-.982l.109-.492c0-.327.091-.637.128-.964v-.146h.418l.037 10.501zm-46.301-31.322a4.662 4.662 0 014.659-4.659h18.71a4.641 4.641 0 014.622 4.332 18.202 18.202 0 00-15.397 17.071h-1.419v3.33h2.038v38.221h-7.043c-2.1-.001-4.181.394-6.134 1.165l-.036-59.46z" fill="#00A757" opacity=".4"/><path d="M443.47 238.898h111.912V138.78h-17.836a371.953 371.953 0 00-86.614 0h-17.854v100.1h10.392v.018zm111.13-95.441a9.32 9.32 0 00-2.275-1.31h2.275v1.31zm0-3.986v1.984h-4.132l-1.474-.437v-1.547h5.606zm-6.389 0v1.329c-1.619-.437-3.512-.837-5.623-1.219v-.11h5.623zm-102.338 0v.11c-2.111.382-3.986.782-5.624 1.219v-1.329h5.624zm-12.012 0h5.624v1.602l-1.475.437h-4.149v-2.039zm2.275 2.676a9.646 9.646 0 00-2.275 1.31v-1.31h2.275z" fill="#00A757" opacity=".4"/><path fill-rule="evenodd" clip-rule="evenodd" d="M0 326h623c11.046 0 20-8.954 20-20v-60H69.5L0 326z" fill="#00A757" opacity=".4"/></g><path d="M416 237.152H114v15h302v-15z" fill="#B51C22"/><path d="M416 240.152H109v8h307v-8z" fill="#E72E35"/><path d="M114.118 237.096H95.063a20.692 20.692 0 00-20.694 20.675v25.953H89.22v-25.953a5.84 5.84 0 015.843-5.842h19.055v-14.833z" fill="#B51C22"/><path d="M114.12 240.391H95.065a17.397 17.397 0 00-17.381 17.381v22.659h8.244v-22.659a9.1 9.1 0 019.1-9.1h19.092v-8.281z" fill="#E72E35"/><path d="M70 283.725v-1.384a1.93 1.93 0 011.947-1.929H91.44a1.935 1.935 0 011.798 1.187c.099.235.149.488.149.742v1.365L70 283.725z" fill="#B51C22"/><path d="M91.422 280.412v-.674h-1.71v.674h1.71zM73.678 280.412v-.674h-1.711v.674h1.71z" fill="#E72E35"/><path d="M415.66 237.096h19.056a20.66 20.66 0 0114.631 6.049 20.664 20.664 0 014.486 6.71 20.655 20.655 0 011.576 7.916v25.953h-14.833v-25.953a5.859 5.859 0 00-5.86-5.842H415.66v-14.833z" fill="#B51C22"/><path d="M415.66 240.391h19.056a17.397 17.397 0 0117.399 17.381v22.659h-8.245v-22.659a9.103 9.103 0 00-9.1-9.1h-19.11v-8.281z" fill="#E72E35"/><path d="M459.779 283.725v-1.384a1.901 1.901 0 00-.56-1.369 1.898 1.898 0 00-1.369-.56h-19.511a1.923 1.923 0 00-1.369.56 1.898 1.898 0 00-.56 1.369v1.365l23.369.019z" fill="#B51C22"/><path d="M440.088 280.412v-.674h-1.711v.674h1.711zM457.832 280.412v-.674h-1.711v.674h1.711zM158.568 234.984v1.93l1.111 1.346v12.522a5.222 5.222 0 005.059 5.205v-21.003h-6.17z" fill="#E72E35"/><path d="M170.892 234.984v1.93l-1.092 1.346v12.522a5.223 5.223 0 01-5.06 5.205v-21.003h6.152z" fill="#B51C22"/><path d="M167.905 233.856h-6.243v.565h6.243v-.565z" fill="#E72E35"/><path d="M167.905 234.42h-6.243v.564h6.243v-.564zM165.068 226.759h-.564v7.098h.564v-7.098zM167.871 233.857h-.582l3.84-7.098h.583l-3.841 7.098zM161.68 233.857h.582l-3.858-7.098h-.564l3.84 7.098z" fill="#B51C22"/><path d="M175.367 225.029a1.718 1.718 0 01-.46 1.281 1.704 1.704 0 01-1.25.539h-17.745a1.695 1.695 0 01-.681-.14 1.69 1.69 0 01-.569-.399 1.694 1.694 0 01-.461-1.281h21.166z" fill="#B51C22"/><path d="M154.201 225.029a1.71 1.71 0 011.711-1.711h17.745a1.715 1.715 0 011.711 1.711h-21.167z" fill="#E72E35"/><path d="M113.705 231.945v24.698a4.57 4.57 0 004.514-4.55v-15.525a4.569 4.569 0 00-4.514-4.623z" fill="#B51C22"/><path d="M109.119 236.532v15.561a4.587 4.587 0 004.587 4.586v-24.734a4.59 4.59 0 00-4.587 4.587z" fill="#E72E35"/><path d="M215.863 231.945v24.698a4.586 4.586 0 004.587-4.587v-15.524a4.586 4.586 0 00-4.587-4.587z" fill="#B51C22"/><path d="M211.295 236.532v15.561a4.585 4.585 0 004.568 4.586v-24.734a4.585 4.585 0 00-4.568 4.587zM109.551 236.532v15.561a4.562 4.562 0 002.816 4.237 4.58 4.58 0 001.752.349v-24.734a4.562 4.562 0 00-3.237 1.345 4.564 4.564 0 00-1.331 3.242z" fill="#E72E35"/><path d="M266.953 231.945v24.698a4.586 4.586 0 004.587-4.587v-15.524a4.586 4.586 0 00-4.587-4.587z" fill="#B51C22"/><path d="M262.385 236.532v15.561a4.562 4.562 0 002.816 4.237 4.58 4.58 0 001.752.349v-24.734a4.562 4.562 0 00-3.237 1.345 4.564 4.564 0 00-1.331 3.242z" fill="#E72E35"/><path d="M318.037 231.945v24.698a4.584 4.584 0 004.586-4.587v-15.524a4.585 4.585 0 00-4.586-4.587z" fill="#B51C22"/><path d="M313.469 236.532v15.561a4.562 4.562 0 002.816 4.237 4.58 4.58 0 001.752.349v-24.734a4.562 4.562 0 00-3.237 1.345 4.564 4.564 0 00-1.331 3.242z" fill="#E72E35"/><path d="M369.123 231.945v24.698a4.584 4.584 0 004.586-4.587v-15.524a4.585 4.585 0 00-4.586-4.587z" fill="#B51C22"/><path d="M364.539 236.532v15.561a4.587 4.587 0 004.586 4.586v-24.734a4.59 4.59 0 00-4.586 4.587z" fill="#E72E35"/><path d="M420.213 231.945v24.698a4.584 4.584 0 004.586-4.587v-15.524a4.585 4.585 0 00-4.586-4.587z" fill="#B51C22"/><path d="M415.627 236.532v15.561a4.587 4.587 0 004.586 4.586v-24.734a4.588 4.588 0 00-4.586 4.587z" fill="#E72E35"/><path d="M308.516 122.235h-3.385v157.794h3.385V122.235z" fill="#222C36"/><path d="M305.117 122.235h-3.422v157.794h3.422V122.235z" fill="#304153"/><path d="M325.533 126.021h-.674v32.924h.674v-32.924z" fill="#333"/><path d="M325.538 130.443h-13.96v.674h13.96v-.674zM325.538 135.303h-13.96v.673h13.96v-.673zM325.538 140.162h-13.96v.674h13.96v-.674zM325.538 145.004h-13.96v.673h13.96v-.673zM325.538 149.863h-13.96v.674h13.96v-.674zM325.538 154.723h-13.96v.673h13.96v-.673z" fill="#333"/><path d="M312.252 126.021h-.674v32.924h.674v-32.924zM298.4 160.073h-.673v34.489h.673v-34.489zM285.097 160.073h-.673v34.489h.673v-34.489z" fill="#333"/><path d="M298.383 164.842h-13.959v.673h13.959v-.673zM298.383 169.701h-13.959v.674h13.959v-.674zM298.383 174.542h-13.959v.673h13.959v-.673zM298.383 179.402h-13.959v.674h13.959v-.674zM298.383 184.262h-13.959v.673h13.959v-.673zM298.383 189.12h-13.959v.674h13.959v-.674zM325.533 195.363h-.674v38.293h.674v-38.293zM312.252 195.363h-.674v38.293h.674v-38.293z" fill="#333"/><path d="M325.538 199.148h-13.96v.674h13.96v-.674zM325.538 204.009h-13.96v.673h13.96v-.673zM325.538 208.85h-13.96v.673h13.96v-.673zM325.538 213.709h-13.96v.673h13.96v-.673zM325.538 218.568h-13.96v.674h13.96v-.674zM325.538 223.428h-13.96v.673h13.96v-.673z" fill="#333"/><path d="M325.538 223.428h-13.96v.673h13.96v-.673zM325.538 228.269h-13.96v.673h13.96v-.673zM325.538 233.129h-13.96v.673h13.96v-.673zM289.008 240.117h-13.959v.674h13.959v-.674zM289.008 244.958h-13.959v.673h13.959v-.673zM289.008 249.817h-13.959v.674h13.959v-.674zM289.008 254.677h-13.959v.673h13.959v-.673zM289.008 259.537h-13.959v.674h13.959v-.674zM289.008 264.377h-13.959v.673h13.959v-.673zM289.008 269.237h-13.959v.674h13.959v-.674z" fill="#333"/><path d="M289.029 234.784h-.674v42.934h.674v-42.934zM275.722 234.784h-.673v42.934h.673v-42.934z" fill="#333"/><path d="M280.201 157.816l.673-6.352.473-4.095 2.057-18.746h-3.731l-2.311 21.057-.364 4.132-.437 4.004-.382 3.64-3.258 29.957-.273 2.876h-.091l-.255 2.256-.182 1.62-3.64 33.179-.2 1.82v.564l-.255 2.257-.127 1.31-4.15 37.583.364.655 1.292 2.203 3.822-2.203 5.861-3.403.673-.382 3.13-1.82 1.183-.674 7.28-4.186 1.092-.637.601-.364 12.74-7.28 2.057-1.183 1.383.801v-5.46l-1.383.801-2.057-1.183-.237-.127-12.412-7.28-.655-.383-3.476-2.002-1.147-.673-7.28-4.186h28.556v-2.257h-31.14l27.7-16.052 2.057-1.165 1.383.783v-5.46l-1.383.8-1.456-.855-.601-.328-.273-.163-25.48-14.706h29.12v-2.22h-28.829l.128-1.092 9.555-5.46.673-.383 4.022-2.347 1.147-.656 7.28-4.186.182-.109.673-.382 1.82-1.074 1.074-.619.965-.546.364.219 1.001.564v-5.46l-1.384.801-.873-.51-.874-.509-.309-.164-1.82-1.056-.674-.382-.982-.582-1.147-.656-7.28-4.204-1.147-.655-2.074-1.201-.674-.382-5.46-3.185h24.716v-2.257h-24.934zm-5.205 81.117l.673.382 1.347.783 1.146.673 7.28 4.168 1.165.674 1.675.964.655.382 11.502 6.625-11.502 6.643-.655.382-6.534 3.768-1.147.655-4.95 2.857-.674.401-7.407 4.259 3.877-35.636 3.549 2.02zm25.48-24.388l-28.247 16.271 3.367-30.649 24.88 14.378zm-14.56-47.502l.673.401 3.913 2.256 1.165.656 7.28 4.186.255.145.673.382.637.364-.637.364-.673.383-5.46 3.203-1.165.673-5.915 3.422-.674.382-9.1 5.26 2.84-25.717 6.188 3.64z" fill="#FFFFF6"/><path d="M305.114 122.235h-35.817v6.407h35.817v-6.407z" fill="#FFFFF6"/><path d="M324.862 223.227v.201h.363l-.363-.201zm20.748 43.062l-.11-1.056-3.094-28.01-.127-1.31-.255-2.257v-.564l-.2-1.82-.146-1.311-.145-1.255-.328-3.076-2.603-23.66-.163-2.002-.2-1.82-.182-1.62-.237-2.148v-.091l-.291-2.875-2.73-23.951-.692-6.079-.364-3.64-.473-3.931-.419-4.095-2.311-21.058h-3.731l2.056 18.746.474 4.095.673 6.352h-24.879v2.257h24.734l-21.349 12.321-2.002 1.165-1.383-.801v5.46l1.383-.782 2.002 1.164 15.616 9.1 9.773 5.661.127 1.092h-28.901v2.256h29.12l-8.736 5.06-.674.382-.163.109-3.295 1.82-1.146.656-7.28 4.167-.765.455-.418.237-.255.146-3.058 1.82-2.002 1.164-1.383-.8v5.46l1.383-.783 2.002 1.165 3.058 1.82.673.382 6.334 3.64 1.147.655 5.132 2.985.673.382 5.042 2.93 2.73 1.566 2.966 1.71h-31.085v2.257h28.665l-.492.291-2.73 1.584-22.058 12.74-2.002 1.165-1.383-.801v5.46l1.383-.801 2.002 1.165 22.058 12.74 2.73 1.583 3.058 1.82.819.473 3.895 2.257 3.822 2.202 1.292-2.202.364-.655-.946-8.863zm-20.621-82.046l-15.234-8.791 20.894-12.03.874 7.899 1.965 17.818-8.499-4.896zm8.317 43.844l-2.73-1.565-5.041-2.912-.31-.182-.363-.201-6.917-3.894-1.164-.674-4.532-2.621-.674-.382-1.82-1.019 1.82-1.019.674-.382 6.243-3.64 1.164-.692 5.206-3.003.673-.382 4.605-2.657.436-.273.783-.437 3.331-1.929.2 1.929 2.075 18.891.491 4.405.127 1.292.455 4.131-4.732-2.784zm6.607 42.934l-.819-.492-5.788-3.33-2.73-1.566-20.821-12.03 20.821-11.994 2.73-1.565 5.46-3.13 3.313 31.104.127 1.055.382 3.476-2.675-1.528zm-15.051-47.794v.201h.363l-.363-.201zM340.967 122.235h-35.836v6.407h35.836v-6.407z" fill="#D8E3DB"/><path d="M626 284.152H58v4h568v-4z" fill="#222C36"/><path d="M601.486 48.926c-.436.4-5.569 8.245-5.569 8.536.055.642.055 1.287 0 1.93l1.82-1.02-3.221 10.12a13.083 13.083 0 01-2.694 4.895v2.894a8.844 8.844 0 01-8.827 8.845h-1.11a8.739 8.739 0 01-7.881 4.987h-3.64a8.753 8.753 0 01-7.862 4.914h-19.62a8.864 8.864 0 01-8.845-8.846v-.618a8.884 8.884 0 017.007-8.663c9.1-7.972 14.56-8.61 16.107-8.61h.528c1.692-4.604 4.295-8.207 8.281-8.207 1.977.019 3.942.307 5.842.855 2.621-3.422 9.482-7.116 9.482-7.116l.783 5.787.455-.71c.673-5.987 8.008-9.572 9.591-10.282l5.66-2.02s4.569-.547 5.734-3.095c1.164-2.547-2.021 5.424-2.021 5.424z" fill="#B51C22"/><path d="M542.879 81.013c9.337-8.59 14.287-8.427 14.287-8.427a9.284 9.284 0 00-1.911 5.46c0 3.185 3.822.965 3.822.965.16-.364.375-.702.637-1.001h-.127s2.184-13.65 6.352-13.65a18.64 18.64 0 017.68 1.82 11.505 11.505 0 017.28-6.68 6.539 6.539 0 00-2.22 5.26c4.404 2.73 8.044-4.714 8.044-4.714-.291-4.258 7.134-7.589 7.134-7.589a7.282 7.282 0 00-2.111 5.005c.455 5.46-6.079 9.719-6.079 9.719 1.82 1.82 4.86 0 4.86 0-1.11 3.421-2.494 4.168-3.513 4.186a4.47 4.47 0 01.619 2.184v2.73a4.643 4.643 0 01-4.659 4.732h-4.295v.273a4.642 4.642 0 01-4.641 4.623h-6.898v.273a4.645 4.645 0 01-1.359 3.281 4.644 4.644 0 01-3.282 1.36h-19.62a4.638 4.638 0 01-4.641-4.641v-.546a4.641 4.641 0 014.641-4.623z" fill="#E72E35"/><path d="M544.738 88.912c-3.64-1.183 5.26-8.518 5.26-8.518s6.588 3.804 10.465.6c3.876-3.203 5.46-11.484 8.608-11.556 3.149-.073 11.466-3.64 12.231-.437.764 3.203 3.785 7.608.837 8.28-2.949.674-5.315.583-6.243 2.603-.928 2.02-4.295 3.04-6.57 3.13a11.173 11.173 0 00-6.588 3.64c-1.274 1.511-14.888 3.277-18 2.258z" fill="#E72E35"/><path d="M554.089 88.784v17.982l-2.02 1.328h-18.145l-2.057-1.365V88.784h22.222z" fill="#222C36"/><path d="M533.507 131.863h-1.237v49.905h1.237v-49.905zM536.417 131.863h-1.237v49.905h1.237v-49.905z" fill="#E72E35"/><path d="M555.441 192.833c-.156.5-.389.973-.692 1.401a10.916 10.916 0 01-6.442 4.168v.765a11.75 11.75 0 007.625-4.933c.281-.43.49-.904.619-1.401h-1.11zM561.101 192.833c-.098.481-.244.95-.437 1.402-1.656 3.894-6.406 7.007-12.357 8.026v.691c6.57-1.073 11.793-4.44 13.449-8.754l.273-.673c.081-.236.136-.48.164-.728l-1.092.036z" fill="#B51C22"/><path d="M542.99 239.734h-5.314v35.836h5.314v-35.836z" fill="#E72E35"/><path d="M542.99 203.899h-5.314v35.836h5.314v-35.836z" fill="#FFFFF6"/><path d="M548.305 168.063h-10.629v35.836h10.629v-35.836z" fill="#E72E35"/><path d="M548.305 132.227h-10.629v35.835h10.629v-35.835z" fill="#FFFFF6"/><path d="M548.305 108.567h-10.629v23.642h10.629v-23.642zM537.657 181.786h-13.286v1.402h13.286v-1.402zM537.657 192.833h-13.286v1.383h13.286v-1.383zM537.657 203.899h-13.286v1.402h13.286v-1.402zM537.657 214.946h-13.286v1.402h13.286v-1.402zM537.657 226.012h-13.286v1.401h13.286v-1.401zM537.657 237.078h-13.286v1.383h13.286v-1.383zM537.657 248.125h-13.286v1.401h13.286v-1.401z" fill="#E72E35"/><path d="M525.518 181.786h-1.147v67.741h1.147v-67.741zM528.668 181.786h-1.147v67.741h1.147v-67.741zM535.801 181.786h-1.147v67.741h1.147v-67.741z" fill="#E72E35"/><path d="M548.377 135.357h7.426v-.782h-7.426v.782zM548.377 141.527h7.426v-.782h-7.426v.782zM548.377 147.697h7.426v-.782h-7.426v.782zM548.377 153.886h7.426v-.783h-7.426v.783zM548.377 160.073h7.426v-.782h-7.426v.782zM548.377 166.225h7.426v-.783h-7.426v.783zM548.377 172.413h7.426v-.783h-7.426v.783z" fill="#B51C22"/><path d="M555.166 172.413h.637v-37.838h-.637v37.838zM553.402 172.413h.637v-37.838h-.637v37.838zM549.414 172.413h.637v-37.838h-.637v37.838zM563.212 192.833h-14.905v1.401h14.905v-1.401zM563.231 181.786h-14.924v.382h14.924v-.382z" fill="#B51C22"/><path d="M548.812 192.852v-10.866h-.509v10.866h.509zM551.689 192.833v-10.865h-.509v10.865h.509zM554.564 192.833v-10.865h-.509v10.865h.509zM557.459 192.833v-10.865h-.51v10.865h.51zM560.334 192.852v-10.866h-.51v10.866h.51zM563.209 192.833v-10.865h-.51v10.865h.51zM555.441 130.936c-.156.5-.389.973-.692 1.401a8.77 8.77 0 01-2.184 2.239c-.407.288-.832.55-1.274.782a9.406 9.406 0 01-1.237.546c-.219.109-.437.164-.655.255-.219.091-.692.218-1.092.346v.764l1.092-.291.655-.218a15.273 15.273 0 002.894-1.402c.157-.093.303-.203.436-.327.217-.137.424-.289.619-.455a8.889 8.889 0 001.929-2.239 4.75 4.75 0 00.619-1.401h-1.11zM561.101 130.936c-.098.48-.244.95-.437 1.401a12.17 12.17 0 01-4.859 5.278l-.655.382c-.35.216-.722.393-1.11.528a3.654 3.654 0 01-.656.328 15.258 15.258 0 01-3.33 1.11 2.938 2.938 0 01-.655.182c-.346 0-.692.164-1.092.218v.71h.091c.34-.028.676-.095 1.001-.2.18-.009.358-.045.527-.109a18.717 18.717 0 003.331-1.038c.23-.053.45-.139.655-.255a6.83 6.83 0 001.11-.509l.656-.382a12.436 12.436 0 005.951-6.188c.216-.443.364-.915.437-1.402l-.965-.054z" fill="#B51C22"/><path d="M563.212 130.936h-14.905v1.401h14.905v-1.401zM563.231 119.889h-14.924v.382h14.924v-.382z" fill="#B51C22"/><path d="M551.689 130.953v-10.865h-.509v10.865h.509zM554.582 130.936V120.07h-.51v10.866h.51zM557.459 130.936V120.07h-.51v10.866h.51zM560.334 130.953v-10.865h-.51v10.865h.51zM563.209 130.953v-10.865h-.51v10.865h.51z" fill="#B51C22"/><path d="M536.417 136.123c-.437-.164-.819-.346-1.219-.51-.6-.273-1.173-.602-1.711-.983a13.123 13.123 0 01-1.219-1.001 8.785 8.785 0 01-1.056-1.292 5.65 5.65 0 01-.71-1.401h-1.092c.122.5.331.974.619 1.401a8.166 8.166 0 002.239 2.475c.387.3.795.574 1.219.819.549.331 1.121.623 1.711.874l1.219.418c.406.137.819.253 1.238.346v-.764c-.437-.128-.837-.237-1.238-.382zM536.419 140.09a6.616 6.616 0 01-1.219-.291 20.91 20.91 0 01-1.711-.546c-.564-.2-.837-.346-1.219-.546a13.197 13.197 0 01-6.971-6.37 6.257 6.257 0 01-.437-1.401h-1.11c.082.484.229.956.437 1.401a13.954 13.954 0 008.081 7.28c.39.192.798.345 1.219.455.564.2 1.147.4 1.711.546.399.121.807.212 1.219.273.406.115.82.2 1.238.255v-.728a8.816 8.816 0 01-1.238-.328z" fill="#E72E35"/><path d="M537.673 130.936h-14.905v1.401h14.905v-1.401zM522.752 120.27h14.924v-.383h-14.924v.383z" fill="#E72E35"/><path d="M534.783 130.953v-10.865h-.509v10.865h.509zM531.906 130.936V120.07h-.509v10.866h.509zM529.031 130.936V120.07h-.509v10.866h.509zM526.156 130.953v-10.865h-.509v10.865h.509zM523.262 130.953v-10.865h-.51v10.865h.51z" fill="#E72E35"/><path d="M548.305 239.734h-5.315v35.836h5.315v-35.836zM548.305 168.063h-5.315v35.836h5.315v-35.836zM548.305 108.567h-5.315v23.642h5.315v-23.642z" fill="#B51C22"/><path d="M548.305 203.899h-5.315v35.836h5.315v-35.836zM548.305 132.227h-5.315v35.835h5.315v-35.835z" fill="#C9C9C9"/><path d="M541.553 87.492v21.094h2.875V87.492h-2.875z" fill="#FFFFF6"/><path d="M547.028 108.567h-2.876l2.876-5.678V87.474h2.876v15.36l-2.876 5.733zM538.95 108.567h2.876l-2.876-5.678V87.474h-2.893v15.36l2.893 5.733z" fill="#FFFFF6"/><path d="M549.85 108.567h-2.875l5.023-5.678V87.474h2.875v15.36l-5.023 5.733zM536.127 108.567h2.875l-5.023-5.678V87.474h-2.875v15.36l5.023 5.733z" fill="#FFFFF6"/><path d="M560.1 87.474v15.36l-6.006 3.932-2.02 1.328-.128.073-.619.4h-2.893l.746-.473 2.548-1.638 2.366-1.547 3.112-2.038V87.474h2.894zM537.53 108.567h-2.857l-.655-.418-.091-.055-2.057-1.365-5.97-3.895v-15.36h2.858v15.397l3.112 2.038 2.366 1.547 2.548 1.638.746.473z" fill="#FFFFF6"/><path d="M551.983 108.094H534.02v.946h17.963v-.946z" fill="#FFFFF6"/><path d="M533.998 109.04l3.731 2.439v-2.439h-3.731z" fill="#E72E35"/><path d="M552.019 109.04l-3.712 2.439v-2.439h3.712zM573.164 275.661l-24.988-35.835.255-.182 24.97 35.835-.237.182z" fill="#B51C22"/><path d="M510.487 275.661l-.237-.182 24.97-35.835.237.182-24.97 35.835z" fill="#E72E35"/><path d="M606.088 275.643l-57.912-107.507.255-.146 57.912 107.508-.255.145z" fill="#B51C22"/><path d="M477.56 275.643l-.273-.145 57.931-107.508.255.146-57.913 107.507z" fill="#E72E35"/><path d="M402.376 185.863l-4.386 13.687h.51l4.623-13.687h-.747zM382.756 264.505h-.309l-8.045-70.398h.328l8.026 70.398zM385.07 264.487h-.328l-7.662-70.38h.328l7.662 70.38z" fill="#FFFFF6"/><path d="M388.017 181.914l-3.749-1.402-3.64.437h-.455.455l3.64-.419 3.749 1.402 1.092.418-1.092-.436zm11.357-29.12l-1.82-1.82a40.52 40.52 0 00-8.773 7.28 85.638 85.638 0 00-2.22 2.493 110.65 110.65 0 00-2.876 3.494l-.91 1.183-.582.765-.947 1.31c-.309.419-.6.837-.891 1.274-.11.128-.182.255-.273.382-.583.874-1.165 1.82-1.82 2.749a47.833 47.833 0 00-1.165 1.929.867.867 0 01-.128.218c-1.674 2.93-3.439 6.352-5.46 10.629-.8 1.82-1.619 3.64-2.511 5.678a46.525 46.525 0 00-1.966 5.824 71.34 71.34 0 00-.564 2.294c-.273 1.201-.491 2.42-.71 3.64-.127.764-.255 1.51-.346 2.293a131.383 131.383 0 00-.637 25.298c.091 1.256.164 2.275.237 3.003.073.728.109 1.001.127 1.146l1.82 1.82 4.951.455-.31-3.64.583-.691 2.912-3.476 2.73-3.24.273-.328 1.929-2.329.309-.346 19.511-23.278-1.165-.327h-.491l-1.329-.401.182-.6 3.64-11.193 1.292.436.655.201 1.438.455.091-.328.419-1.492-5.205-32.76zm-5.005 8.736l1.401.527 1.638.619 1.602 11.139-9.1 4.24h-.328c-.4-.079-.795-.182-1.183-.309a5.657 5.657 0 01-1.82-.91 2.498 2.498 0 01-.309-.455 1.923 1.923 0 01-.219-.364 5.486 5.486 0 01-.637-1.82v-.328-.346l8.955-11.993zm-13.705 19.419l3.64-.419 3.749 1.402 1.092.418-3.84 10.192-1.529-.436-.928-.255-3.458-.947-1.984-2.511 2.894-7.389.364-.055zm-.783 35.781l-.291.364-1.965 2.366-.292.328-2.093 2.548-1.565 1.82-1.347-.273-1.419-.291v-1.202a100.712 100.712 0 011.438-17.144c0-.328.127-.619.2-.928.127-.746.291-1.474.455-2.202a58.23 58.23 0 011.037-3.64c.206-.595.425-1.202.655-1.82.057-.188.13-.371.219-.546.091-.219.164-.419.255-.601a15.473 15.473 0 012.02 0h.327c1.527.048 3.043.28 4.514.692.136.028.269.064.4.109.513.161 1.018.349 1.511.564l.218 1.365.965 6.206.783 5.005-6.025 7.28zM449.076 277.609h-1.838l-5.933-71.38h1.856l5.915 71.38zM409.803 277.609h1.856l17.436-71.38h-1.838l-17.454 71.38z" fill="#D8E3DB"/><path d="M453.537 265.196h-35.781v2.348h35.781v-2.348z" fill="#FFFFF6"/><path d="M451.829 247.651l-33.233 19.893-1.657-1.656 33.234-19.893 1.656 1.656z" fill="#FFFFF6"/><path d="M426.888 247.16h-.564v18.036h.564V247.16zM431.515 247.16h-.564v18.036h.564V247.16zM433.627 227.668h-.565v18.018h.565v-18.018zM438.248 227.668h-.564v18.018h.564v-18.018zM436.39 207.648h-.564v18.018h.564v-18.018zM441.017 207.648h-.564v18.018h.564v-18.018z" fill="#D8E3DB"/><path d="M448.056 227.413l-26.171 19.765-1.656-1.656 26.189-19.765 1.638 1.656zM443.164 207.539l-17.836 19.874-1.656-1.656 17.836-19.874 1.656 1.656z" fill="#FFFFF6"/><path d="M451.824 247.652h-32.506l.419-2.33h31.668l.419 2.33zM448.33 227.759h-25.498l.4-2.329h24.68l.418 2.329z" fill="#FFFFF6"/><path d="M457.743 281.213l-2.621.91-4.222-24.042a.307.307 0 010-.128l-1.82-10.337-.419-2.33-3.076-17.563-.418-2.329-2.985-17.218h-13.068l-3.039 17.254-.419 2.33-3.076 17.563-.418 2.329-6.061 34.489-2.621-.892 5.915-33.597.419-2.329 3.094-17.563.4-2.33 3.094-17.545.346-2.02a2.244 2.244 0 010-.328 1.366 1.366 0 011.22-1.092h15.178a1.404 1.404 0 011.238 1.092c.009.103.009.207 0 .31l.364 2.038 3.076 17.545.418 2.33 3.076 17.563.419 2.329 1.674 9.555a.911.911 0 010 .128l4.332 23.878z" fill="#FFFFF6"/><path d="M399.41 192.542l-1.42 4.768 92.693 27.865 9.682 2.912 1.547.455 1.493-5.115-103.995-30.885z" fill="#D8E3DB"/><path d="M503.405 223.428l1.638-5.605-104.14-30.249-1.493 4.969 103.995 30.885zM495.543 226.649l-4.859-1.474v8.008h4.859v-6.534z" fill="#FFFFF6"/><path d="M495.543 233.183h4.823v-5.096l-4.823-1.438v6.534z" fill="#D8E3DB"/><path d="M496.201 233.183h-1.31v12.576h1.31v-12.576zM492.012 246.414h-1.311v2.93h1.311v-2.93zM500.385 246.414h-1.311v3.021h1.311v-3.021z" fill="#FFFFF6"/><path d="M500.365 245.104h-9.664v1.31h9.664v-1.31z" fill="#FFFFF6"/><path d="M507.788 276.172v-4.678h-26.263v4.678h26.263z" fill="#D8E3DB"/><path d="M507.788 271.493v-5.696h-26.263v5.696h26.263z" fill="#FFFFF6"/><path d="M491.356 249.345h-2.129v16.453h2.129v-16.453z" fill="#FFFFF6"/><path d="M493.487 249.345h-2.13v16.453h2.13v-16.453z" fill="#D8E3DB"/><path d="M499.709 249.345h-2.129v16.453h2.129v-16.453z" fill="#FFFFF6"/><path d="M501.856 249.345h-2.129v16.453h2.129v-16.453z" fill="#D8E3DB"/><path d="M385.561 267.69h-3.604v8.482h3.604v-8.482zM384.087 265.051h-.673v2.639h.673v-2.639zM385.069 264.377h-2.639v.673h2.639v-.673z" fill="#FFFFF6"/><path d="M206.105 276.189v7.535h383.857v-7.535H206.105z" fill="#304153"/><path d="M399.355 152.684l-1.82-1.82a40.782 40.782 0 00-8.754 7.389 66.214 66.214 0 00-2.22 2.494c-.765.91-1.948 2.311-2.876 3.494l-.91 1.183-.582.765-.947 1.31c-.309.419-.6.837-.892 1.274-.109.127-.182.255-.273.382-.582.874-1.164 1.82-1.82 2.748-.4.637-.782 1.256-1.164 1.93l-.11.218c-1.674 2.93-3.439 6.352-5.46 10.629l6.516 1.82 2.093-5.46h.455l3.64-.437 3.749 1.401 1.092.437-2.475 6.643 12.139 3.513 2.039-6.206 1.292.436.655.219 1.438.455.091-.328.4-1.492-5.296-32.997zm-9.518 25.262h-.31c-.4-.079-.795-.183-1.183-.31a5.647 5.647 0 01-1.82-.91 1.81 1.81 0 01-.309-.455 1.284 1.284 0 01-.219-.364 5.478 5.478 0 01-.637-1.82v-.327-.346l9.1-11.921 1.402.528 1.638.619 1.601 11.138-9.263 4.168z" fill="#FFFFF6"/><path d="M372.141 58.15h11.741v3.837h-5.586v26.955h-6.155V58.15zM390.842 77.382l1.055-15.395h.354l1.055 15.395h-2.464zm-6.817 11.56h6.027l.571-8.178h2.902l.573 8.178h6.025l-3.211-30.792h-9.676l-3.211 30.792zM408.938 78.165v5.805c0 .782.605 1.01.959 1.01.58 0 .984-.48.984-1.01v-7.168c0-.96-.177-2.02-2.473-2.02h-2.499v-3.381h2.599c1.742 0 2.373-.404 2.373-2.297v-6.108c0-.53-.404-1.01-.984-1.01-.354 0-.959.203-.959 1.01v5.023h-6.159v-4.367c0-2.145.253-5.502 4.568-5.502h5.099c4.316 0 4.593 3.357 4.593 5.502v4.922c0 3.357-2.347 4.265-4.189 4.19v.303c4.139-.101 4.189 3.079 4.189 4.164v6.209c0 2.17-.277 5.502-4.593 5.502h-5.099c-4.315 0-4.568-3.332-4.568-5.502v-5.275h6.159zM421.078 58.15h14.26v30.792h-6.158V61.987h-1.944v26.955h-6.158V58.15zM445.535 75.086v-13.1h.808c.656 0 1.136.556 1.136 1.54v10.02c0 .984-.48 1.54-1.136 1.54h-.808zm-6.158 13.856h6.158V78.468h3.534c4.29 0 4.568-3.332 4.568-5.502v-9.314c0-2.145-.278-5.502-4.568-5.502h-9.692v30.792zM465.775 83.97c0 .53-.403 1.01-.984 1.01-.353 0-.959-.228-.959-1.01V62.996c0-.807.606-1.01.959-1.01.581 0 .984.48.984 1.01V83.97zm-8.101-.53c0 2.17.277 5.502 4.568 5.502h5.124c4.29 0 4.568-3.332 4.568-5.502V63.652c0-2.145-.278-5.502-4.568-5.502h-5.124c-4.291 0-4.568 3.357-4.568 5.502V83.44zM491.974 58.15H500v30.792h-6.158V69.634h-.227l-3.181 19.308h-4.921l-3.155-19.308h-.227v19.308h-6.158V58.15h8l4.013 21.655 3.988-21.655z" fill="#fff"/><path d="M364.159 16.052c-1.885-8.253-6.61-14.967-7.261-16.052-1.03 1.54-4.798 7.47-6.713 14.033-2.093 7.344-2.401 13.856-1.679 20.241.717 6.41 3.425 12.998 3.425 12.998 1.439 3.433 3.594 7.143 4.997 8.96 2.057-2.675 6.785-10.65 8.259-21.05.82-5.804.855-10.877-1.028-19.13zm-7.261 38.11c-.926-1.741-2.365-5.047-2.501-10.196-.035-4.947 1.951-9.212 2.531-10.096.518.884 2.229 4.594 2.434 9.667.138 4.947-1.507 8.859-2.464 10.625zm6.714-24.103c-.071 3.155-.447 6.487-.927 8.48.172-3.432-.239-8.253-1.027-12.038-.787-3.76-3.016-10.07-4.795-12.973-1.643 2.776-3.667 8.228-4.727 12.947-1.065 4.72-1.096 10.45-1.096 12.166-.282-1.44-.989-6.613-.79-11.787.167-4.265 1.166-8.682 1.714-10.701 2.09-6.739 4.455-11.055 4.899-11.736.444.681 3.422 6.007 4.967 11.584 1.537 5.578 1.847 10.929 1.782 14.058z" fill="#E72E35"/><path d="M360.097 58.15h-14.333v9.616c.012 0 .022-.025.035-.025a8.643 8.643 0 0112.233 0c3.377 3.356 3.377 8.833 0 12.215-.015.025-.03.025-.045.05-.018 0-.036.026-.051.051a17.26 17.26 0 01-12.172 4.998c-4.422 0-8.844-1.666-12.216-5.048-5.946-5.931-6.65-15.144-2.118-21.857a17.476 17.476 0 012.118-2.574c3.372-3.382 7.794-5.048 12.216-5.048V27.409C328.773 27.41 315 41.164 315 58.15c0 16.986 13.773 30.766 30.764 30.766 8.858 0 16.839-3.76 22.452-9.742V58.15h-8.119z" fill="#fff"/></svg>