<svg width="385" height="320" fill="none" xmlns="http://www.w3.org/2000/svg"><path fill-rule="evenodd" clip-rule="evenodd" d="M168.675 162.463l-64.65 62.209 24.792.371-.776 22.739 64.649-62.21 64.649 62.21-.776-22.739 24.792-.371-64.649-62.209.003-.003-24.016-23.109-.003.002-.003-.002-24.015 23.109.003.003z" fill="url(#paint0_linear)"/><g filter="url(#filter0_d)"><path fill-rule="evenodd" clip-rule="evenodd" d="M141.964 115.681l30.373 29.227-30.373 29.227c-16.775 16.142-43.972 16.142-60.747 0-16.774-16.142-16.774-42.313 0-58.454 16.775-16.142 43.972-16.142 60.747 0zm-80.995 77.938c-27.959-26.902-27.959-70.52 0-97.423 27.958-26.903 73.286-26.903 101.243 0l30.375 29.227.109.105 30.068-28.934c27.958-26.902 73.288-26.902 101.245 0 27.958 26.903 27.958 70.521 0 97.425-27.957 26.903-73.287 26.903-101.245 0l-30.372-29.228-.109-.105-30.071 28.933c-27.957 26.904-73.285 26.904-101.243 0zm182.044-77.54l-30.373 29.228 30.373 29.227c16.775 16.141 43.973 16.141 60.747 0 16.774-16.142 16.774-42.313 0-58.455-16.774-16.141-43.972-16.141-60.747 0z" fill="#E72E35"/></g><path d="M212.734 145.107l30.041 28.907-20.439 19.667-30.039-28.906 20.437-19.668z" fill="url(#paint1_linear)"/><path d="M161.829 96.068l30.823 29.328-20.034 19.497-30.823-29.328 20.034-19.497z" fill="url(#paint2_linear)"/><path d="M287.46 253.156c1.12 0 2.13.26 3.03.78.92.5 1.64 1.2 2.16 2.1.52.88.78 1.88.78 3s-.26 2.14-.78 3.06c-.52.9-1.24 1.61-2.16 2.13-.9.5-1.91.75-3.03.75-1.6 0-2.9-.34-3.9-1.02-.98-.7-1.88-1.67-2.7-2.91-.8 1.24-1.7 2.21-2.7 2.91-1 .68-2.3 1.02-3.9 1.02-1.12 0-2.14-.25-3.06-.75a5.666 5.666 0 01-2.16-2.13c-.52-.9-.78-1.91-.78-3.03 0-1.12.26-2.13.78-3.03.52-.9 1.24-1.6 2.16-2.1.92-.52 1.94-.78 3.06-.78 1.6 0 2.9.35 3.9 1.05 1 .68 1.9 1.64 2.7 2.88.82-1.24 1.72-2.2 2.7-2.88 1-.7 2.3-1.05 3.9-1.05zm-13.02 9.57c1.2 0 2.17-.31 2.91-.93.76-.62 1.52-1.53 2.28-2.73-.76-1.2-1.52-2.11-2.28-2.73-.74-.62-1.71-.93-2.91-.93-1.1 0-2.02.35-2.76 1.05-.72.68-1.08 1.55-1.08 2.61 0 1.06.36 1.94 1.08 2.64.74.68 1.66 1.02 2.76 1.02zm12.84 0c1.1 0 2.01-.35 2.73-1.05.72-.7 1.08-1.58 1.08-2.64 0-1.04-.36-1.9-1.08-2.58-.72-.7-1.63-1.05-2.73-1.05-1.2 0-2.18.31-2.94.93-.74.62-1.49 1.53-2.25 2.73.76 1.2 1.51 2.11 2.25 2.73.76.62 1.74.93 2.94.93zM99.368 125.344c.896 0 1.704.208 2.424.624.736.4 1.312.96 1.728 1.68.416.704.624 1.504.624 2.4 0 .896-.208 1.712-.624 2.448a4.533 4.533 0 01-1.728 1.704c-.72.4-1.528.6-2.424.6-1.28 0-2.32-.272-3.12-.816-.784-.56-1.504-1.336-2.16-2.328-.64.992-1.36 1.768-2.16 2.328-.8.544-1.84.816-3.12.816-.896 0-1.712-.2-2.448-.6a4.533 4.533 0 01-1.728-1.704c-.416-.72-.624-1.528-.624-2.424 0-.896.208-1.704.624-2.424.416-.72.992-1.28 1.728-1.68a4.888 4.888 0 012.448-.624c1.28 0 2.32.28 3.12.84.8.544 1.52 1.312 2.16 2.304.656-.992 1.376-1.76 2.16-2.304.8-.56 1.84-.84 3.12-.84zM88.952 133c.96 0 1.736-.248 2.328-.744.608-.496 1.216-1.224 1.824-2.184-.608-.96-1.216-1.688-1.824-2.184-.592-.496-1.368-.744-2.328-.744-.88 0-1.616.28-2.208.84-.576.544-.864 1.24-.864 2.088 0 .848.288 1.552.864 2.112.592.544 1.328.816 2.208.816zm10.272 0c.88 0 1.608-.28 2.184-.84.576-.56.864-1.264.864-2.112 0-.832-.288-1.52-.864-2.064-.576-.56-1.304-.84-2.184-.84-.96 0-1.744.248-2.352.744-.592.496-1.192 1.224-1.8 2.184.608.96 1.208 1.688 1.8 2.184.608.496 1.392.744 2.352.744zM237.64 56.173c.747 0 1.42.174 2.02.52a3.64 3.64 0 011.44 1.4c.347.587.52 1.254.52 2a4.07 4.07 0 01-.52 2.04 3.782 3.782 0 01-1.44 1.42c-.6.334-1.273.5-2.02.5-1.067 0-1.933-.226-2.6-.68-.653-.466-1.253-1.113-1.8-1.94-.533.827-1.133 1.474-1.8 1.94-.667.454-1.533.68-2.6.68a4.2 4.2 0 01-2.04-.5 3.782 3.782 0 01-1.44-1.42c-.347-.6-.52-1.273-.52-2.02 0-.746.173-1.42.52-2.02a3.64 3.64 0 011.44-1.4 4.071 4.071 0 012.04-.52c1.067 0 1.933.234 2.6.7.667.454 1.267 1.094 1.8 1.92.547-.826 1.147-1.466 1.8-1.92.667-.466 1.533-.7 2.6-.7zm-8.68 6.38c.8 0 1.447-.206 1.94-.62.507-.413 1.013-1.02 1.52-1.82-.507-.8-1.013-1.406-1.52-1.82-.493-.413-1.14-.62-1.94-.62-.733 0-1.347.234-1.84.7-.48.454-.72 1.034-.72 1.74 0 .707.24 1.294.72 1.76.493.454 1.107.68 1.84.68zm8.56 0c.733 0 1.34-.233 1.82-.7.48-.466.72-1.053.72-1.76 0-.693-.24-1.266-.72-1.72-.48-.466-1.087-.7-1.82-.7-.8 0-1.453.207-1.96.62-.493.414-.993 1.02-1.5 1.82.507.8 1.007 1.407 1.5 1.82.507.414 1.16.62 1.96.62z" fill="#fff"/><g filter="url(#filter1_d)"><ellipse cx="195" cy="295.415" rx="58" ry="10.585" fill="#616161"/></g><ellipse cx="195" cy="294.934" rx="45" ry="8.179" fill="#FFF6B3"/><path d="M213.5 294.934c0 .022-.012.122-.219.297-.202.171-.531.359-1.002.551-.938.383-2.325.739-4.076 1.041-3.493.603-8.338.979-13.703.979s-10.21-.376-13.703-.979c-1.751-.302-3.138-.658-4.076-1.041-.471-.192-.8-.38-1.002-.551-.207-.175-.219-.275-.219-.297 0-.021.012-.122.219-.296.202-.171.531-.359 1.002-.552.938-.383 2.325-.738 4.076-1.04 3.493-.604 8.338-.98 13.703-.98s10.21.376 13.703.98c1.751.302 3.138.657 4.076 1.04.471.193.8.381 1.002.552.207.174.219.275.219.296z" stroke="#FFF085"/><path d="M234.173 294.714c.061-.624-.791-1.321-2.48-2.03-1.69-.709-4.166-1.409-7.214-2.038-3.048-.629-6.575-1.169-10.275-1.573a132.09 132.09 0 00-10.955-.744l1.267.683c2.943.071 6.109.286 9.225.626 3.116.34 6.086.795 8.653 1.325 2.567.53 4.652 1.119 6.075 1.716s2.139 1.184 2.088 1.709l3.616.326zM154.4 294.434c-.065.623.781 1.326 2.466 2.046 1.684.72 4.155 1.436 7.199 2.085 3.043.649 6.567 1.212 10.264 1.64 3.697.428 7.455.708 10.949.815l-1.262-.69a111.142 111.142 0 01-9.221-.687c-3.113-.36-6.08-.834-8.643-1.381-2.563-.547-4.644-1.15-6.062-1.756-1.419-.606-2.132-1.198-2.077-1.723l-3.613-.349z" fill="#FEE639"/><path d="M194.034 100.091c0 .955-.295 1.888-.846 2.682a4.978 4.978 0 01-2.251 1.778 5.199 5.199 0 01-2.899.275 5.082 5.082 0 01-2.569-1.321 4.783 4.783 0 01-1.373-2.472 4.661 4.661 0 01.286-2.79 4.875 4.875 0 011.848-2.166 5.157 5.157 0 012.787-.813c1.33 0 2.606.508 3.547 1.414a4.737 4.737 0 011.47 3.413v0z" stroke="#FFFAF8" stroke-width="1.5" stroke-linecap="round" stroke-linejoin="round"/><path d="M218 229.5c0 1.428-.44 2.823-1.264 4.01a7.44 7.44 0 01-3.366 2.658 7.77 7.77 0 01-4.333.41 7.586 7.586 0 01-3.84-1.975 7.14 7.14 0 01-2.053-3.695 6.966 6.966 0 01.427-4.17 7.292 7.292 0 012.762-3.239 7.714 7.714 0 014.167-1.216c1.989 0 3.897.761 5.303 2.114A7.079 7.079 0 01218 229.5v0z" stroke="#FFFAF8" stroke-width="2" stroke-linecap="round" stroke-linejoin="round"/><path d="M332.823 58.105c1.278-5.184-2.052-10.383-7.439-11.613-5.387-1.23-10.791 1.974-12.069 7.158-1.279 5.184 2.052 10.383 7.439 11.613 5.387 1.23 10.79-1.974 12.069-7.158zM126.554 159.84c3.067 0 5.554-2.393 5.554-5.344 0-2.952-2.487-5.345-5.554-5.345-3.068 0-5.554 2.393-5.554 5.345 0 2.951 2.486 5.344 5.554 5.344zM40.108 96.76c0 1.056-.326 2.09-.936 2.968a5.518 5.518 0 01-2.493 1.969 5.763 5.763 0 01-3.209.304 5.618 5.618 0 01-2.843-1.463 5.284 5.284 0 01-1.52-2.736 5.157 5.157 0 01.316-3.088 5.393 5.393 0 012.045-2.398 5.71 5.71 0 013.086-.901 5.735 5.735 0 012.127.405 5.564 5.564 0 011.802 1.158 5.327 5.327 0 011.204 1.735 5.16 5.16 0 01.42 2.046v0zM259.922 116.434v15.244M252 124.056h15.843" stroke="#FFFAF8" stroke-width="3" stroke-linecap="round" stroke-linejoin="round"/><path d="M275.961 167.434v7.622M272 171.244h7.921M74.96 226.132v7.622M71 229.942h7.921M148.959 44.264v7.622M145 48.074h7.921" stroke="#FFFAF8" stroke-width="1.5" stroke-linecap="round" stroke-linejoin="round"/><path d="M70.883 29.129v15.245M62.96 36.752h15.844" stroke="#FFFAF8" stroke-width="3" stroke-linecap="round" stroke-linejoin="round"/><path style="mix-blend-mode:overlay" opacity=".38" d="M151 295.415h89L374 0H15l136 295.415z" fill="url(#paint3_linear)"/><path d="M152.528 174.998l9.872 9.499-2.284 2.198-4.048-3.894-4.484 4.316 4.046 3.894-2.284 2.198-9.871-9.499 2.284-2.198 3.892 3.745 4.485-4.315-3.892-3.745 2.284-2.199zm16.915-1.349l-4.584 4.41 1.241 2.878-2.34 2.252-5.472-13.733 2.256-2.171 14.285 5.252-2.397 2.307-2.989-1.195zm-2.455-.977l-5.344-2.13 2.214 5.143 3.13-3.013zm6.403-17.75l9.873 9.499-2.285 2.198-8.038-7.735-1.975 1.9-1.834-1.763 4.259-4.099zm25.241-5.29l-5.923-5.672 1.961 7.477-1.015.977-7.658-1.777 5.796 5.577-2.144 2.063-9.871-9.5 1.889-1.818 9.83 2.348-2.496-9.405 1.889-1.818 9.885 9.485-2.143 2.063zm10.406-13.541l1.834 1.763-7.643 7.356-9.873-9.499 7.46-7.179 1.834 1.764-5.189 4.994 2.143 2.063 4.583-4.411 1.777 1.71-4.583 4.411 2.284 2.198 5.373-5.17zm8.488-4.314c-1.005.968-2.134 1.637-3.384 2.008a7.37 7.37 0 01-3.737.095c-1.241-.308-2.35-.932-3.328-1.873-.977-.941-1.622-2.004-1.932-3.189a6.399 6.399 0 01.099-3.596c.376-1.212 1.071-2.307 2.087-3.284.856-.823 1.777-1.42 2.763-1.791a6.8 6.8 0 013.047-.435l-.113 2.715c-1.438-.1-2.652.325-3.639 1.275-.61.588-1.02 1.244-1.226 1.968a3.732 3.732 0 00-.014 2.158c.216.714.63 1.366 1.24 1.954.612.588 1.289.986 2.032 1.194a4.337 4.337 0 002.256 0c.742-.208 1.419-.606 2.03-1.194.988-.95 1.424-2.122 1.312-3.515l2.821-.109a6.011 6.011 0 01-.438 2.945c-.395.959-1.02 1.85-1.876 2.674zm3.215-22.418l9.872 9.5-2.257 2.171-2.623-2.524-2.087 2.008.875 4.207-2.413 2.321-.916-4.845c-.94.38-1.862.48-2.764.299-.912-.19-1.753-.656-2.524-1.398-.762-.733-1.242-1.529-1.439-2.389-.206-.868-.136-1.75.211-2.646.339-.905.941-1.773 1.806-2.605l4.259-4.099zm-2.341 5.836c-.649.624-.996 1.248-1.044 1.872-.037.616.24 1.208.833 1.778.573.552 1.179.819 1.818.801.64-.018 1.279-.335 1.918-.95l2.003-1.927-3.582-3.447-1.946 1.873zm23.176-10.468l3.949 3.8-2.102 2.022-2.088-2.009-8.249 7.939-9.872-9.499 2.271-2.185 8.009 7.708 4.401-4.234-8.01-7.708 2.27-2.185 8.011 7.708 1.41-1.357z" fill="#fff"/><defs><linearGradient id="paint0_linear" x1="237.02" y1="182.012" x2="213.929" y2="206.009" gradientUnits="userSpaceOnUse"><stop stop-color="#A90006"/><stop offset="1" stop-color="#C92B31"/></linearGradient><linearGradient id="paint1_linear" x1="233.578" y1="183.745" x2="204.54" y2="155.157" gradientUnits="userSpaceOnUse"><stop stop-color="#C22229" stop-opacity="0"/><stop offset="1" stop-color="#C22229"/></linearGradient><linearGradient id="paint2_linear" x1="183.657" y1="135.053" x2="153.832" y2="106.072" gradientUnits="userSpaceOnUse"><stop stop-color="#C22229"/><stop offset="1" stop-color="#C22229" stop-opacity="0"/></linearGradient><linearGradient id="paint3_linear" x1="194.5" y1="250.346" x2="194.298" y2="-39.183" gradientUnits="userSpaceOnUse"><stop offset=".13" stop-color="#FFEBCA"/><stop offset="1" stop-color="#F9B65B" stop-opacity="0"/></linearGradient><filter id="filter0_d" x="0" y="40.019" width="384.978" height="218.178" filterUnits="userSpaceOnUse" color-interpolation-filters="sRGB"><feFlood flood-opacity="0" result="BackgroundImageFix"/><feColorMatrix in="SourceAlpha" values="0 0 0 0 0 0 0 0 0 0 0 0 0 0 0 0 0 0 127 0"/><feOffset dy="4"/><feGaussianBlur stdDeviation="20"/><feColorMatrix values="0 0 0 0 0 0 0 0 0 0 0 0 0 0 0 0 0 0 0.15 0"/><feBlend in2="BackgroundImageFix" result="effect1_dropShadow"/><feBlend in="SourceGraphic" in2="effect1_dropShadow" result="shape"/></filter><filter id="filter1_d" x="127" y="278.83" width="136" height="41.17" filterUnits="userSpaceOnUse" color-interpolation-filters="sRGB"><feFlood flood-opacity="0" result="BackgroundImageFix"/><feColorMatrix in="SourceAlpha" values="0 0 0 0 0 0 0 0 0 0 0 0 0 0 0 0 0 0 127 0"/><feOffset dy="4"/><feGaussianBlur stdDeviation="5"/><feColorMatrix values="0 0 0 0 0 0 0 0 0 0 0 0 0 0 0 0 0 0 0.25 0"/><feBlend in2="BackgroundImageFix" result="effect1_dropShadow"/><feBlend in="SourceGraphic" in2="effect1_dropShadow" result="shape"/></filter></defs></svg>