<svg width="359" height="385" fill="none" xmlns="http://www.w3.org/2000/svg"><path style="mix-blend-mode:overlay" opacity=".38" d="M86.299 249.452l77.788 34.863 105.231-17.013L358.662 0H.141l86.158 249.452z" fill="url(#paint0_linear)"/><path d="M164.773 285.433L86.651 249.4l93.217-15.262 89.45 33.164-104.545 18.131z" fill="url(#paint1_linear)"/><path d="M180.034 234.199l-2.992 49.157 92.275-16.054-89.283-33.103z" fill="url(#paint2_linear)"/><path style="mix-blend-mode:multiply" d="M164.086 286.709l-77.268-35.655.185 11.821 76.309 38.788.774-14.954z" fill="url(#paint3_linear)"/><path d="M139.081 199.733l51.885 57.518-28.869 12.665-23.016-17.594v-52.589z" fill="url(#paint4_linear)"/><path d="M61.302 203.465l194.813 29.96 16.177-55.194-210.99-32.865v58.099z" fill="url(#paint5_linear)"/><path d="M61.302 145.366L296.241 108.1l-19.117 61.197-215.822 34.167v-58.098z" fill="#00A0B1"/><path d="M296.241 108.1L61.302 145.366v58.098L296.241 108.1z" fill="url(#paint6_linear)"/><path d="M139.081 252.322l117.034-18.897 16.177-55.194-133.211 21.502 18.395 23.324-18.395 29.265z" fill="#00A0B1"/><path d="M272.293 178.231l-133.211 21.502-.317 23.324.317 29.265 133.211-74.091z" fill="url(#paint7_linear)"/><path d="M190.967 257.251l-41.315 10.5 28.332 29.071 12.983-39.571z" fill="#00A0B1"/><path d="M170.459 262.461l-20.807 5.29 28.332 29.071-7.525-34.361z" fill="url(#paint8_linear)"/><path style="mix-blend-mode:multiply" d="M190.967 257.251l-41.315 10.5 28.332 29.071 12.983-39.571z" fill="url(#paint9_linear)"/><path d="M61.302 145.366L120 135.834l58.724-9.409 29.362-4.709 29.371-4.612 58.75-9.224.361-.053-.106.344-9.638 30.576-9.699 30.55 9.409-30.647 9.497-30.611.246.29-58.715 9.409-29.362 4.7-29.379 4.603-58.75 9.224-58.768 9.101z" fill="#32E2EA"/><path d="M91.928 163.788l-6.072.972v15.51l-6.873 1.1v-15.51l-6.073.971v-5.49l19.018-3.043v5.49zm19.547 7.043v5.34l-17.241 2.759v-21l16.856-2.697v5.34l-9.983 1.597v2.46l8.768-1.403v5.1l-8.768 1.403v2.76l10.368-1.659zm2.836-16.114l17.981-2.877v5.34l-11.109 1.778v2.43l4.947-.792c2.528-.404 4.464-.164 5.806.721 1.363.862 2.044 2.323 2.044 4.383 0 2.14-.77 3.943-2.31 5.41-1.541 1.466-3.683 2.419-6.428 2.858l-10.931 1.749v-21zm10.457 14.377c.691-.11 1.224-.346 1.599-.706.395-.363.593-.825.593-1.385 0-1.08-.731-1.503-2.192-1.269l-3.585.574v3.36l3.585-.574zm28.907-20.675v21l-6.872 1.1v-4.98l-1.867.298-3.169 5.487-7.317 1.171 4.088-6.654c-1.343-.425-2.38-1.159-3.111-2.202-.711-1.067-1.066-2.4-1.066-4 0-1.66.385-3.161 1.155-4.505.79-1.346 1.906-2.464 3.348-3.355 1.441-.891 3.14-1.493 5.095-1.805l9.716-1.555zm-9.598 6.996c-1.777.284-2.666 1.276-2.666 2.976 0 1.78.889 2.528 2.666 2.244l2.726-.436v-5.22l-2.726.436zm42.453 1.157l-1.807.289v7.59l-6.813 1.091v-7.591l-1.867.299-3.436 8.14-8.028 1.284 5.569-11.931-5.273-9.116 7.288-1.166 3.703 7.238 2.044-.327v-7.831l6.813-1.09v7.83l1.925-.308 3.763-8.432 7.287-1.166-5.243 10.799 5.539 10.154-8.028 1.284-3.436-7.04zm36.722-3.775v9.6l-6.398 1.023v-4.11l-11.79 1.887v4.11l-6.399 1.024v-9.6l.593-.095c1.204-.193 2.053-1.099 2.547-2.718.494-1.619.81-3.939.948-6.961l.237-6.428 17.537-2.806v15.51l2.725-.436zm-14.426-6.212c-.079 2.033-.237 3.778-.474 5.236-.237 1.438-.603 2.616-1.096 3.535l6.398-1.024v-10.02l-4.769.763-.059 1.51zm37.51-12.992l-8.324 17.142c-.987 2.038-2.202 3.662-3.643 4.873-1.422 1.208-2.992 1.949-4.71 2.224a9.954 9.954 0 01-4.029-.196l1.629-5.36c.869.101 1.58.107 2.133.018.513-.082.948-.241 1.303-.478.376-.24.731-.597 1.067-1.071l-7.939-13.55 7.376-1.18 4.118 8.191 4.265-9.532 6.754-1.081zm18.963 2.456l-6.072.972v15.51l-6.873 1.099v-15.51l-6.073.972v-5.49l19.018-3.043v5.49zM161.264 214.213v12.6l-4.123.66v-9.306l-3.786.606v9.306l-4.124.659v-12.6l12.033-1.925zm8.528 11.524c-1.339.214-2.542.124-3.608-.269-1.067-.393-1.902-1.04-2.506-1.939-.605-.911-.907-1.997-.907-3.257s.302-2.436.907-3.529a7.94 7.94 0 012.506-2.759c1.066-.735 2.269-1.209 3.608-1.423 1.339-.214 2.542-.125 3.608.268 1.066.394 1.902 1.046 2.506 1.958.604.899.907 1.978.907 3.238s-.303 2.443-.907 3.548a7.998 7.998 0 01-2.506 2.74 8.684 8.684 0 01-3.608 1.424zm0-3.438a3.078 3.078 0 001.404-.603 3.545 3.545 0 001.013-1.26c.249-.52.373-1.098.373-1.734 0-.636-.124-1.168-.373-1.596-.249-.44-.586-.752-1.013-.936-.415-.198-.883-.255-1.404-.171a3.068 3.068 0 00-1.422.623 3.4 3.4 0 00-.995 1.258c-.249.507-.374 1.079-.374 1.715 0 .636.125 1.174.374 1.615.248.428.58.741.995.938.427.184.9.234 1.422.151zm22.136-3.686v5.76l-3.84.614v-2.466l-7.074 1.132v2.466l-3.839.614v-5.76l.356-.056c.723-.116 1.232-.66 1.528-1.631.297-.971.486-2.364.569-4.177l.142-3.857 10.522-1.683v9.306l1.636-.262zm-8.656-3.727c-.048 1.22-.142 2.267-.285 3.142-.142.862-.361 1.569-.657 2.121l3.839-.615v-6.012l-2.862.458-.035.906zm19.018 3.167l-4.728.757-.835 2.329-4.266.683 5.439-13.471 4.124-.659 5.438 11.729-4.336.694-.836-2.062zm-1.155-2.875l-1.209-2.975-1.208 3.362 2.417-.387zm13.466-9.499c1.149-.184 2.15-.152 3.003.096.854.247 1.511.694 1.973 1.34.462.646.694 1.449.694 2.409 0 .96-.232 1.837-.694 2.631-.462.794-1.119 1.451-1.973 1.972-.853.52-1.854.872-3.003 1.056l-1.796.288v3.096l-4.194.671v-12.6l5.99-.959zm-.267 6.271c.569-.091.995-.285 1.28-.583.284-.309.426-.698.426-1.166 0-.468-.142-.805-.426-1.012-.285-.218-.711-.282-1.28-.191l-1.529.245v2.952l1.529-.245zm15.9-2.652l3.679 5.891-4.728.757-2.382-4.173-1.173.188v4.554l-4.195.671v-12.6l4.195-.671v4.698l1.28-.205 2.648-5.122 4.372-.699-3.696 6.711zm4.552-6.848l4.123-.66v6.552l4.284-7.237 3.946-.632v12.6l-4.124.66v-6.534l-4.266 7.217-3.963.634v-12.6z" fill="#fff"/><path d="M158.876 384.978l5.21-100.663-77.787-34.862 4.084 99.219 68.493 36.306z" fill="url(#paint10_linear)"/><path d="M269.317 267.302l-15.684 99.466-94.757 18.21 5.21-100.663 105.231-17.013z" fill="url(#paint11_linear)"/><path d="M221.182 274.757l-5.167 99.747-17.347 3.591 5.316-100.222 17.198-3.116z" fill="#E3E0D4"/><path style="mix-blend-mode:multiply" d="M268.261 268.886l-2.306 13.634-105.037 65.325 3.169-61.136 104.174-17.823z" fill="url(#paint12_linear)"/><path d="M126.231 367.34l5.132-97.521-17.014-7.736-5.104 96.174 16.986 9.083z" fill="#E3E0D4"/><path opacity=".5" d="M190.966 123.855l-19.169 16.248-76.846-.881 96.015-15.367z" fill="url(#paint13_linear)"/><path d="M155.619 110.89l-93.665 3.979 82.751-61.224L249.25 40.848l-93.631 70.042z" fill="url(#paint14_linear)"/><path d="M249.162 40.645L259.6 63.846l-93.445 70.439-10.984-24.398 93.991-69.242z" fill="url(#paint15_linear)"/><path d="M166.155 134.285l-10.985-24.398-93.216 4.982 10.333 22.954 93.868-3.538z" fill="url(#paint16_linear)"/><path d="M249.259 40.848c-7.711 5.958-15.465 11.864-23.201 17.788L202.769 76.3l-23.368 17.603a5768.052 5768.052 0 01-23.394 17.524l-.159.123h-.194l-23.42.942c-7.807.335-15.614.616-23.421.88l-23.43.819-23.43.704 23.404-1.285 23.412-1.171c7.804-.393 15.608-.763 23.412-1.109l23.421-1.047-.352.123c7.771-5.87 15.596-11.68 23.412-17.497l23.456-17.454 23.526-17.347a6510.658 6510.658 0 0123.615-17.26z" fill="#F95A66"/><path d="M190.007 84.723l-94.176 4.815 16.168-11.962 97.002-7.058-18.994 14.205z" fill="#F3F2F0"/><path d="M190.007 84.723l10.949 24.319 18.73-14.795-10.685-23.73-18.994 14.206z" fill="#F8F8F8"/><path d="M197.577 47.176l-80.57 64.753-21.59 2.253 78.968-64.172 23.192-2.834z" fill="#F3F2F0"/><path d="M117.007 111.929l10.509 23.35-22.021 1.294-10.078-22.391 21.59-2.253z" fill="#D2CFC4"/><path d="M239.234 62.367a5.019 5.019 0 01-3.097 4.635 5.015 5.015 0 01-6.84-3.656 5.019 5.019 0 012.133-5.15 5.016 5.016 0 017.804 4.171v0z" stroke="#FFFAF8" stroke-width="1.5" stroke-linecap="round" stroke-linejoin="round"/><path d="M326.619 136.003c1.278-5.387-2.052-10.79-7.439-12.069-5.387-1.278-10.791 2.052-12.069 7.439-1.278 5.387 2.052 10.791 7.439 12.069 5.387 1.279 10.791-2.052 12.069-7.439zM265.163 250.817a5.554 5.554 0 11-5.554-5.554 5.564 5.564 0 015.554 5.554v0zM93.005 239.753a5.553 5.553 0 10.001-11.107 5.553 5.553 0 00-.001 11.107zM45.213 147.707a5.553 5.553 0 11-5.553-5.554 5.543 5.543 0 015.133 3.427c.279.675.422 1.397.42 2.127v0zM203.165 254.161v15.843M195.244 262.083h15.843M296.707 163.84v15.843M288.786 171.761h15.843" stroke="#FFFAF8" stroke-width="3" stroke-linecap="round" stroke-linejoin="round"/><path d="M269.379 209.458v7.922M265.418 213.419h7.921M249.25 91.43v7.921M245.289 95.39h7.921M77.29 120.556v7.921M73.33 124.517h7.92" stroke="#FFFAF8" stroke-width="1.5" stroke-linecap="round" stroke-linejoin="round"/><path d="M69.988 80.622v15.843M62.066 88.544H77.91M121.945 212.108v15.842M114.023 220.029h15.843" stroke="#FFFAF8" stroke-width="3" stroke-linecap="round" stroke-linejoin="round"/><defs><linearGradient id="paint0_linear" x1="179.401" y1="284.315" x2="179.401" y2="0" gradientUnits="userSpaceOnUse"><stop offset=".02" stop-color="#FFEBCA"/><stop offset="1" stop-color="#F9B65B" stop-opacity="0"/></linearGradient><linearGradient id="paint1_linear" x1="177.984" y1="285.433" x2="177.984" y2="234.138" gradientUnits="userSpaceOnUse"><stop offset=".02" stop-color="#702828"/><stop offset=".43" stop-color="#AA2E2E"/><stop offset="1" stop-color="#F12D35"/></linearGradient><linearGradient id="paint2_linear" x1="223.179" y1="330.867" x2="223.179" y2="234.199" gradientUnits="userSpaceOnUse"><stop offset=".08" stop-color="#832826"/><stop offset="1" stop-color="#F12D35"/></linearGradient><linearGradient id="paint3_linear" x1="123.847" y1="300.804" x2="126.176" y2="254.217" gradientUnits="userSpaceOnUse"><stop stop-color="#9A5F8B" stop-opacity="0"/><stop offset=".13" stop-color="#9A5F8B" stop-opacity=".04"/><stop offset=".3" stop-color="#9A5F8B" stop-opacity=".14"/><stop offset=".49" stop-color="#9A5F8B" stop-opacity=".31"/><stop offset=".7" stop-color="#9A5F8B" stop-opacity=".55"/><stop offset=".91" stop-color="#9A5F8B" stop-opacity=".86"/><stop offset="1" stop-color="#9A5F8B"/></linearGradient><linearGradient id="paint4_linear" x1="139.081" y1="234.824" x2="190.966" y2="234.824" gradientUnits="userSpaceOnUse"><stop stop-color="#043F45"/><stop offset="1" stop-color="#126F79"/></linearGradient><linearGradient id="paint5_linear" x1="25654.6" y1="18413.4" x2="76235.2" y2="18413.4" gradientUnits="userSpaceOnUse"><stop stop-color="#043F45"/><stop offset="1" stop-color="#126F79"/></linearGradient><linearGradient id="paint6_linear" x1="61.302" y1="174.566" x2="296.241" y2="174.566" gradientUnits="userSpaceOnUse"><stop stop-color="#11C5CE"/><stop offset="1" stop-color="#11C5CE" stop-opacity="0"/></linearGradient><linearGradient id="paint7_linear" x1="28067.4" y1="21786.2" x2="48326.3" y2="21786.2" gradientUnits="userSpaceOnUse"><stop stop-color="#11C5CE"/><stop offset="1" stop-color="#11C5CE" stop-opacity="0"/></linearGradient><linearGradient id="paint8_linear" x1="7451.68" y1="13029" x2="8363.69" y2="13029" gradientUnits="userSpaceOnUse"><stop stop-color="#11C5CE"/><stop offset="1" stop-color="#11C5CE" stop-opacity="0"/></linearGradient><linearGradient id="paint9_linear" x1="170.31" y1="296.822" x2="170.31" y2="257.251" gradientUnits="userSpaceOnUse"><stop offset=".35" stop-color="#21878D"/><stop offset=".44" stop-color="#1E9399" stop-opacity=".81"/><stop offset=".62" stop-color="#18A8B0" stop-opacity=".47"/><stop offset=".78" stop-color="#14B8C0" stop-opacity=".21"/><stop offset=".91" stop-color="#12C1CA" stop-opacity=".06"/><stop offset="1" stop-color="#11C5CE" stop-opacity="0"/></linearGradient><linearGradient id="paint10_linear" x1="90.752" y1="349.042" x2="159.791" y2="280.011" gradientUnits="userSpaceOnUse"><stop stop-color="#AA2E2E"/><stop offset="1" stop-color="#F12D35"/></linearGradient><linearGradient id="paint11_linear" x1="29187.3" y1="57440.3" x2="44406.3" y2="43157" gradientUnits="userSpaceOnUse"><stop stop-color="#AA2E2E"/><stop offset="1" stop-color="#F12D35"/></linearGradient><linearGradient id="paint12_linear" x1="212.595" y1="351.6" x2="216.816" y2="267.193" gradientUnits="userSpaceOnUse"><stop stop-color="#9A626D" stop-opacity="0"/><stop offset=".15" stop-color="#9A626D" stop-opacity=".03"/><stop offset=".32" stop-color="#9A626D" stop-opacity=".11"/><stop offset=".48" stop-color="#9A626D" stop-opacity=".25"/><stop offset=".65" stop-color="#9A626D" stop-opacity=".44"/><stop offset=".82" stop-color="#9A626D" stop-opacity=".69"/><stop offset=".99" stop-color="#9A626D" stop-opacity=".99"/><stop offset="1" stop-color="#9A626D"/></linearGradient><linearGradient id="paint13_linear" x1="127.631" y1="158.084" x2="158.286" y2="104.985" gradientUnits="userSpaceOnUse"><stop stop-color="#043F45"/><stop offset=".28" stop-color="#054147" stop-opacity=".95"/><stop offset=".51" stop-color="#07484F" stop-opacity=".81"/><stop offset=".71" stop-color="#0A545B" stop-opacity=".57"/><stop offset=".9" stop-color="#0F646D" stop-opacity=".23"/><stop offset="1" stop-color="#126F79" stop-opacity="0"/></linearGradient><linearGradient id="paint14_linear" x1="29671.6" y1="10572.5" x2="69528.3" y2="10572.5" gradientUnits="userSpaceOnUse"><stop stop-color="#AA2E2E"/><stop offset="1" stop-color="#F12D35"/></linearGradient><linearGradient id="paint15_linear" x1="27724.7" y1="14386.2" x2="40115.3" y2="14386.2" gradientUnits="userSpaceOnUse"><stop stop-color="#AA2E2E"/><stop offset="1" stop-color="#F12D35"/></linearGradient><linearGradient id="paint16_linear" x1="16535.1" y1="5544.56" x2="28871.5" y2="5544.56" gradientUnits="userSpaceOnUse"><stop stop-color="#AA2E2E"/><stop offset="1" stop-color="#F12D35"/></linearGradient></defs></svg>