<svg xmlns="http://www.w3.org/2000/svg" width="168" height="143" fill="none"><path fill="#1DBBBA" d="M79.904 96.731a1.356 1.356 0 0 0-1.511.46l-9.874 12.899a3.097 3.097 0 0 1-2.441 1.202 3.058 3.058 0 0 1-1.524-.405L19.315 85.07a1.357 1.357 0 0 0-2.028 1.178v20.137c0 .484.258.931.677 1.174L78.79 142.75a1.36 1.36 0 0 0 1.356.001c.42-.242.679-.69.679-1.175v-43.56c0-.582-.37-1.099-.92-1.285zm69.933-11.656a1.358 1.358 0 0 0-1.353-.005l-45.242 25.82c-.46.263-.984.402-1.52.402a3.089 3.089 0 0 1-2.44-1.201l-9.875-12.9a1.356 1.356 0 0 0-2.432.823v43.561a1.356 1.356 0 0 0 2.035 1.174l60.826-35.191c.418-.243.676-.69.676-1.174V86.246c0-.481-.257-.928-.675-1.17z"/><path fill="#1DBBBA" d="M167.782 30.017a1.36 1.36 0 0 0-.759-1.005L105.792.129a1.356 1.356 0 0 0-1.477.212L86.814 15.827l-2.28-1.209a1.356 1.356 0 0 0-1.271 0l-2.28 1.21L63.488.34A1.358 1.358 0 0 0 62.01.128L.778 29.012a1.357 1.357 0 0 0-.364 2.201l18.271 17.663-2.878 1.528a1.356 1.356 0 0 0-.544.53L5.339 68.459a1.356 1.356 0 0 0 .508 1.846l58.395 33.327c.59.337 1.336.186 1.749-.352l12.34-16.116a1.356 1.356 0 0 0-.423-2.013l-57.97-31.936 61.754-32.767v40.29l-15.159 8.784a1.356 1.356 0 0 0 .025 2.361l16.687 9.194c.407.224.9.224 1.308 0l16.687-9.194a1.357 1.357 0 0 0 .026-2.36l-15.16-8.785v-40.29l61.754 32.767-57.968 31.937a1.358 1.358 0 0 0-.422 2.013l12.34 16.116a1.358 1.358 0 0 0 1.748.352l58.395-33.327c.649-.37.876-1.196.508-1.846l-9.926-17.527a1.356 1.356 0 0 0-.543-.529l-2.875-1.528 18.27-17.663c.319-.31.467-.757.395-1.196z"/><path fill="#EE3939" d="M128.714 45.449c-.143-1.28-1.635-2.242-2.925-2.242-4.17 0-7.87-2.447-9.422-6.234-1.584-3.878-.562-8.4 2.545-11.25a2.53 2.53 0 0 0 .277-3.432 45.043 45.043 0 0 0-7.208-7.28 2.534 2.534 0 0 0-3.458.28c-2.712 3.003-7.584 4.12-11.349 2.549-3.916-1.648-6.388-5.618-6.145-9.879a2.525 2.525 0 0 0-2.234-2.658 45.408 45.408 0 0 0-10.237-.027 2.533 2.533 0 0 0-2.252 2.604c.148 4.22-2.352 8.12-6.23 9.708-3.72 1.52-8.558.411-11.264-2.566a2.536 2.536 0 0 0-3.434-.287 45.233 45.233 0 0 0-7.36 7.277 2.531 2.531 0 0 0 .27 3.457c3.168 2.868 4.19 7.43 2.545 11.353-1.57 3.74-5.454 6.15-9.9 6.15-1.443-.046-2.47.923-2.629 2.235a45.654 45.654 0 0 0-.02 10.346c.144 1.285 1.68 2.239 2.985 2.239 3.963-.101 7.765 2.35 9.363 6.234 1.589 3.878.566 8.398-2.546 11.252a2.526 2.526 0 0 0-.276 3.427 45.208 45.208 0 0 0 7.197 7.283 2.53 2.53 0 0 0 3.464-.274c2.723-3.011 7.593-4.125 11.343-2.551 3.927 1.643 6.398 5.612 6.157 9.874a2.525 2.525 0 0 0 2.232 2.659 45.206 45.206 0 0 0 10.237.028 2.532 2.532 0 0 0 2.252-2.606c-.153-4.217 2.353-8.117 6.226-9.703 3.744-1.529 8.561-.41 11.269 2.563a2.54 2.54 0 0 0 3.433.287 45.292 45.292 0 0 0 7.361-7.278 2.527 2.527 0 0 0-.271-3.458c-3.167-2.867-4.194-7.43-2.549-11.35 1.546-3.69 5.285-6.167 9.307-6.167l.563.015c1.306.105 2.506-.9 2.663-2.232.402-3.42.407-6.9.02-10.346zM83.5 76.73c-14.488 0-26.232-11.743-26.232-26.23S69.013 24.27 83.5 24.27s26.23 11.744 26.23 26.23c0 4.918-1.355 9.517-3.71 13.45L94.535 52.464a16.04 16.04 0 0 0 1.27-6.28c0-4.295-1.673-8.334-4.71-11.37a15.975 15.975 0 0 0-11.37-4.71c-1.434 0-2.86.19-4.24.566a1.821 1.821 0 0 0-1.26 1.27c-.165.619.02 1.253.505 1.738 0 0 5.67 5.714 7.567 7.61.2.2.199.674.17.845l-.017.124c-.191 2.086-.56 4.59-.864 5.552-.04.04-.08.075-.121.117-.044.043-.084.085-.126.129-.975.313-3.517.686-5.636.875v-.011l-.095.024a1.212 1.212 0 0 1-.962-.366 4756.752 4756.752 0 0 0-7.423-7.384c-.49-.487-.99-.59-1.325-.59-.778 0-1.476.563-1.695 1.37-1.5 5.55.09 11.52 4.15 15.581a15.978 15.978 0 0 0 11.372 4.71c2.194 0 4.32-.439 6.28-1.27l11.61 11.61A26.1 26.1 0 0 1 83.5 76.732z"/><path fill="#1DBBBA" d="m15.712 50.678 4.132 2.81 57.97 31.937a1.354 1.354 0 0 1 .422 2.012l-12.34 16.117a1.356 1.356 0 0 1-1.748.352L5.753 70.579a1.356 1.356 0 0 1-.508-1.846l9.923-17.526c.128-.224.316-.408.544-.53zm74.086 34.747 62.642-34.218 9.927 17.527c.368.65.14 1.475-.508 1.845l-58.396 33.328a1.357 1.357 0 0 1-1.748-.352l-12.34-16.117a1.357 1.357 0 0 1 .423-2.013z"/></svg>