<svg width="417" height="232" fill="none" xmlns="http://www.w3.org/2000/svg"><path d="M56.026 151.789a1.628 1.628 0 00-2.771-1.155 1.628 1.628 0 000 2.294 1.629 1.629 0 002.291 0c.304-.302.476-.711.48-1.139zM52.182 165.339a1.625 1.625 0 10-3.12-.915 1.625 1.625 0 003.12.915zM48.403 178.434a1.626 1.626 0 10-3.036-1.166 1.626 1.626 0 003.036 1.166zM39.732 202.631a1.62 1.62 0 00-1.873 1.147 1.63 1.63 0 00.979 1.968 1.618 1.618 0 001.307-.063 1.621 1.621 0 00.886-1.674 1.625 1.625 0 00-1.3-1.378zM44.624 191.537a1.629 1.629 0 00-1.105-2.009 1.622 1.622 0 00-2.077 1.42 1.627 1.627 0 003.182.589zM35.953 215.725a1.624 1.624 0 00-2.07 1.428 1.627 1.627 0 002.672 1.375 1.622 1.622 0 00.37-2.029 1.627 1.627 0 00-.972-.774zM31.702 228.763a1.626 1.626 0 10.005 3.253 1.626 1.626 0 00-.005-3.253zM68.98 151.789a1.627 1.627 0 00-2.395-1.432 1.626 1.626 0 00-.129 2.789 1.627 1.627 0 002.053-.21c.302-.305.471-.717.471-1.147zM61.357 178.434a1.629 1.629 0 00-1.42-2.078 1.626 1.626 0 101.42 2.078zM57.578 191.537a1.629 1.629 0 00-1.42-2.078 1.625 1.625 0 101.42 2.078zM48.915 215.725a1.62 1.62 0 00-1.301.068 1.623 1.623 0 00-.665 2.294 1.622 1.622 0 001.064.753 1.623 1.623 0 002.135-1.069 1.625 1.625 0 00-1.233-2.046zM65.136 165.339a1.625 1.625 0 10-3.118-.919 1.625 1.625 0 003.118.919zM52.694 202.631a1.626 1.626 0 00-2.007 1.106 1.627 1.627 0 002.365 1.971 1.633 1.633 0 00.747-1.076 1.63 1.63 0 00-1.105-2.001zM44.705 228.763a1.625 1.625 0 00-1.146 2.774 1.627 1.627 0 002.284 0 1.628 1.628 0 00-1.138-2.774zM81.942 151.789a1.627 1.627 0 00-2.771-1.155 1.628 1.628 0 000 2.294 1.629 1.629 0 002.291 0c.304-.302.476-.711.48-1.139zM74.32 178.434a1.624 1.624 0 00-.478-1.833 1.627 1.627 0 00-1.888-.138 1.634 1.634 0 00-.747 1.076 1.629 1.629 0 001.146 1.875 1.623 1.623 0 001.966-.98zM78.098 165.339a1.627 1.627 0 00-2.344-1.882 1.624 1.624 0 00-.83 1.607 1.628 1.628 0 001.167 1.381 1.626 1.626 0 002.007-1.106zM65.648 202.631a1.62 1.62 0 00-1.873 1.147 1.63 1.63 0 00.979 1.968 1.618 1.618 0 001.307-.063 1.62 1.62 0 00.838-1.007 1.624 1.624 0 00-1.251-2.045zM61.87 215.725a1.624 1.624 0 00-2.07 1.428 1.627 1.627 0 002.671 1.375 1.623 1.623 0 00.37-2.029 1.627 1.627 0 00-.972-.774zM70.54 191.537a1.628 1.628 0 00-1.105-2.009 1.622 1.622 0 00-2.077 1.42 1.627 1.627 0 003.182.589zM57.643 228.763a1.626 1.626 0 10.005 3.253 1.626 1.626 0 00-.005-3.253zM94.896 151.789a1.626 1.626 0 10-3.252.002 1.626 1.626 0 003.252-.002zM87.273 178.434a1.63 1.63 0 00-.542-1.726 1.624 1.624 0 00-2.633 1.45 1.63 1.63 0 001.168 1.382 1.627 1.627 0 002.007-1.106zM91.028 165.339a1.625 1.625 0 10-3.118-.919 1.625 1.625 0 003.118.919zM74.831 215.725a1.62 1.62 0 00-1.301.068 1.624 1.624 0 00-.665 2.294 1.62 1.62 0 001.064.753 1.622 1.622 0 002.135-1.069 1.627 1.627 0 00-1.233-2.046zM78.61 202.631a1.626 1.626 0 00-2.007 1.106 1.627 1.627 0 002.366 1.971 1.633 1.633 0 00.746-1.076 1.63 1.63 0 00-1.105-2.001zM83.494 191.537a1.63 1.63 0 00-.542-1.726 1.623 1.623 0 00-2.46.521 1.626 1.626 0 103.002 1.205zM70.605 228.763c-.43 0-.841.169-1.146.472a1.628 1.628 0 000 2.294 1.626 1.626 0 002.284 0 1.63 1.63 0 000-2.294 1.624 1.624 0 00-1.138-.472zM107.858 151.789a1.627 1.627 0 00-2.771-1.155 1.627 1.627 0 000 2.294 1.63 1.63 0 002.292 0 1.63 1.63 0 00.479-1.139zM100.235 178.434a1.635 1.635 0 00-.062-1.309 1.621 1.621 0 00-1.006-.838 1.634 1.634 0 00-1.297.176 1.633 1.633 0 00-.747 1.076 1.628 1.628 0 001.147 1.875 1.623 1.623 0 001.965-.98zM96.457 191.537a1.629 1.629 0 00-1.114-2.009 1.626 1.626 0 00-1.871 2.352 1.628 1.628 0 001.607.827 1.63 1.63 0 001.378-1.17zM104.031 165.339a1.627 1.627 0 00-3.004-1.205 1.626 1.626 0 103.004 1.205zM91.564 202.631a1.62 1.62 0 00-1.873 1.147 1.63 1.63 0 00.98 1.968 1.618 1.618 0 001.307-.063 1.622 1.622 0 00.886-1.674 1.624 1.624 0 00-1.3-1.378zM87.777 215.725a1.624 1.624 0 00-2.07 1.428 1.627 1.627 0 002.672 1.375 1.622 1.622 0 00.37-2.029 1.627 1.627 0 00-.972-.774zM83.56 228.763a1.626 1.626 0 10.005 3.253 1.626 1.626 0 00-.006-3.253zM120.812 151.789a1.625 1.625 0 10-3.179.478 1.627 1.627 0 001.719 1.142 1.625 1.625 0 001.46-1.62zM109.41 191.537a1.622 1.622 0 00-.542-1.726 1.622 1.622 0 00-2.461.521 1.625 1.625 0 00.203 1.798 1.628 1.628 0 002.025.374c.376-.207.655-.555.775-.967zM116.968 165.339a1.63 1.63 0 00-.542-1.728 1.618 1.618 0 00-1.803-.155 1.628 1.628 0 001.573 2.847c.374-.207.651-.553.772-.964zM104.526 202.631a1.628 1.628 0 00-2.007 1.106 1.62 1.62 0 00.062 1.309 1.643 1.643 0 001.007.838 1.615 1.615 0 001.297-.176 1.628 1.628 0 00.747-1.076 1.633 1.633 0 00-.143-1.228 1.622 1.622 0 00-.963-.773zM100.78 215.725a1.625 1.625 0 00-1.89 1.141 1.626 1.626 0 101.89-1.141zM113.189 178.434a1.622 1.622 0 00-2.345-1.883 1.628 1.628 0 00.346 2.989 1.625 1.625 0 001.999-1.106zM96.522 228.763c-.43 0-.842.169-1.146.472a1.627 1.627 0 000 2.294 1.626 1.626 0 002.283 0 1.63 1.63 0 000-2.294 1.624 1.624 0 00-1.138-.472zM133.775 151.789a1.627 1.627 0 00-2.772-1.155 1.63 1.63 0 000 2.294 1.63 1.63 0 002.292 0 1.63 1.63 0 00.48-1.139zM113.702 215.725a1.627 1.627 0 10-.899 3.128 1.627 1.627 0 00.899-3.128zM129.93 165.339a1.622 1.622 0 00-2.343-1.882 1.625 1.625 0 102.343 1.882zM117.481 202.631a1.628 1.628 0 10-.234 3.221 1.622 1.622 0 001.485-1.176 1.633 1.633 0 00-.635-1.785 1.632 1.632 0 00-.616-.26zM122.373 191.537a1.63 1.63 0 00-1.106-2.009 1.62 1.62 0 00-2.076 1.42 1.627 1.627 0 002.669 1.383c.245-.208.424-.485.513-.794zM126.151 178.434a1.635 1.635 0 00-.062-1.309 1.625 1.625 0 10.062 1.309zM109.475 228.763a1.625 1.625 0 10.003 3.252 1.625 1.625 0 00-.003-3.252zM146.729 151.789a1.632 1.632 0 00-1.311-1.595 1.626 1.626 0 101.311 1.595zM126.663 215.725a1.615 1.615 0 00-1.301.068 1.622 1.622 0 00-.884 1.666 1.621 1.621 0 00.673 1.116c.183.13.391.22.61.265a1.626 1.626 0 10.902-3.115zM139.106 178.434a1.63 1.63 0 00-1.42-2.078 1.626 1.626 0 101.42 2.078zM142.885 165.339a1.625 1.625 0 10-2.796.596c.209.245.486.423.796.511a1.63 1.63 0 002-1.107zM130.442 202.631a1.628 1.628 0 00-2.007 1.106 1.62 1.62 0 00.063 1.309 1.626 1.626 0 002.303.662 1.628 1.628 0 00.747-1.076 1.627 1.627 0 00-1.106-2.001zM135.327 191.537a1.628 1.628 0 00-2.344-1.883 1.625 1.625 0 00-.831 1.607 1.628 1.628 0 001.167 1.382 1.628 1.628 0 002.008-1.106zM122.438 228.763a1.628 1.628 0 00-1.626 1.627c.002.431.174.843.48 1.147a1.626 1.626 0 002.283 0 1.627 1.627 0 00-1.137-2.774zM159.691 151.789a1.627 1.627 0 00-2.772-1.155 1.63 1.63 0 000 2.294 1.63 1.63 0 002.292 0 1.63 1.63 0 00.48-1.139zM148.289 191.537a1.63 1.63 0 00-1.105-2.009 1.619 1.619 0 00-1.725.542 1.629 1.629 0 00.52 2.463 1.627 1.627 0 002.31-.996zM143.396 202.631a1.623 1.623 0 00-1.765 2.322 1.624 1.624 0 003.065-.944 1.63 1.63 0 00-.683-1.118 1.63 1.63 0 00-.617-.26zM152.068 178.434a1.617 1.617 0 00-.063-1.309 1.622 1.622 0 00-3.05.414 1.627 1.627 0 003.113.895zM139.618 215.725a1.624 1.624 0 00-1.722.55 1.633 1.633 0 00.529 2.46 1.623 1.623 0 002.306-1.001 1.627 1.627 0 00-1.113-2.009zM155.847 165.339a1.63 1.63 0 00-1.419-2.078 1.62 1.62 0 00-1.584.873 1.627 1.627 0 002.227 2.172c.376-.207.655-.555.776-.967zM135.392 228.763a1.622 1.622 0 00-1.594 1.312 1.627 1.627 0 002.071 1.87 1.624 1.624 0 00.669-2.71 1.625 1.625 0 00-1.146-.472zM172.645 151.789a1.632 1.632 0 00-1.311-1.595 1.626 1.626 0 101.311 1.595zM168.801 165.339a1.625 1.625 0 10-2.796.596c.209.245.486.423.796.511a1.63 1.63 0 002-1.107zM161.243 191.537a1.628 1.628 0 00-2.344-1.883 1.625 1.625 0 00-.831 1.607 1.628 1.628 0 001.167 1.382 1.628 1.628 0 002.008-1.106zM165.022 178.434a1.63 1.63 0 00-.542-1.726 1.625 1.625 0 10.542 1.726zM152.58 215.725a1.625 1.625 0 00-1.782 2.321 1.623 1.623 0 002.181.727c.2-.1.378-.241.522-.413a1.635 1.635 0 00.143-1.882 1.624 1.624 0 00-1.064-.753zM156.359 202.631a1.628 1.628 0 00-2.008 1.106 1.637 1.637 0 00.063 1.309 1.635 1.635 0 001.673.886 1.63 1.63 0 001.117-.684c.128-.185.217-.395.26-.616a1.628 1.628 0 00-1.105-2.001zM148.354 228.763a1.625 1.625 0 00-1.146 2.774 1.628 1.628 0 002.284 0 1.63 1.63 0 000-2.294 1.628 1.628 0 00-1.138-.48zM185.607 151.789a1.627 1.627 0 00-2.771-1.155 1.627 1.627 0 000 2.294 1.628 1.628 0 002.292 0 1.63 1.63 0 00.479-1.139zM177.984 178.434a1.625 1.625 0 10-2.903.266 1.621 1.621 0 002.111.607c.364-.182.646-.493.792-.873zM181.763 165.339a1.63 1.63 0 00-1.419-2.078 1.62 1.62 0 00-1.584.873 1.627 1.627 0 002.227 2.172c.376-.207.655-.555.776-.967zM169.313 202.631a1.622 1.622 0 00-1.873 1.147 1.628 1.628 0 001.639 2.074 1.627 1.627 0 00.234-3.221zM165.534 215.725a1.624 1.624 0 00-1.722.55 1.633 1.633 0 00.529 2.46 1.623 1.623 0 002.306-1.001 1.627 1.627 0 00-1.113-2.009zM174.205 191.537a1.63 1.63 0 00-1.105-2.009 1.619 1.619 0 00-1.725.542 1.629 1.629 0 00.52 2.463 1.627 1.627 0 002.31-.996zM161.308 228.763a1.625 1.625 0 10.003 3.252 1.625 1.625 0 00-.003-3.252zM198.561 151.789a1.625 1.625 0 10-3.179.478 1.627 1.627 0 001.719 1.142 1.63 1.63 0 001.46-1.62zM190.938 178.434a1.626 1.626 0 10-3.12-.916 1.626 1.626 0 003.12.916zM194.717 165.339a1.63 1.63 0 00-.542-1.728 1.618 1.618 0 00-1.803-.155 1.628 1.628 0 00.346 2.99 1.628 1.628 0 001.999-1.107zM182.275 202.631a1.628 1.628 0 00-2.007 1.106 1.62 1.62 0 00.062 1.309c.101.201.242.38.415.525a1.62 1.62 0 001.889.137 1.64 1.64 0 00.746-1.076 1.628 1.628 0 00-1.105-2.001zM187.159 191.537a1.63 1.63 0 00-.542-1.726 1.622 1.622 0 00-2.461.521 1.625 1.625 0 103.003 1.205zM178.496 215.725a1.625 1.625 0 00-1.782 2.321 1.623 1.623 0 002.181.727c.2-.1.378-.241.522-.413a1.635 1.635 0 00.142-1.882 1.632 1.632 0 00-1.063-.753zM174.27 228.763a1.623 1.623 0 00-1.146 2.774 1.626 1.626 0 002.284 0 1.63 1.63 0 000-2.294 1.628 1.628 0 00-1.138-.48zM211.044 150.642a1.63 1.63 0 00-2.292 0 1.627 1.627 0 000 2.294c.305.302.717.472 1.146.471.429.001.841-.169 1.146-.471a1.626 1.626 0 000-2.294zM206.574 163.33a1.625 1.625 0 00-1.782 2.321 1.623 1.623 0 002.181.727c.2-.1.378-.241.522-.413a1.635 1.635 0 00.143-1.882 1.624 1.624 0 00-1.064-.753zM199.016 189.528a1.619 1.619 0 00-1.725.542 1.627 1.627 0 002.317 2.261 1.625 1.625 0 00-.592-2.803zM202.795 176.425a1.627 1.627 0 10-.915 3.123 1.627 1.627 0 00.915-3.123zM195.229 202.631a1.622 1.622 0 00-1.873 1.147 1.628 1.628 0 001.639 2.074 1.627 1.627 0 00.234-3.221zM191.45 215.725a1.624 1.624 0 00-2.069 1.428 1.624 1.624 0 003.183.581 1.627 1.627 0 00-1.114-2.009zM187.224 228.763a1.625 1.625 0 10.003 3.252 1.625 1.625 0 00-.003-3.252z" fill="#fff"/><path d="M417 6.463L94.522 9.423 73.068 109.675l275.992-2.53-6.355 28.508 52.848-28.939 18.716-86.896h-.122L417 6.463z" fill="#000" fill-opacity=".5"/><path d="M45.648 75.49l-21.211 99.39 83.836 45.083 31.109-140.48-93.734-3.993z" fill="#C22229"/><path d="M364.794 14.775l-25.738 115.412 52.849-28.938 18.715-86.897-45.826.423z" fill="#00A0B1"/><g filter="url(#filter0_d)"><path d="M391.486 101.249L69 104.209 90.446 3.958 412.932.998l-21.446 100.251z" fill="#11C5CF"/></g><path d="M324.347 188.706l-233.043-2.009L0 174.684l26.72-97.795 320.821 4.734-23.194 107.083z" fill="#000" fill-opacity=".5"/><path d="M148.031 30.031a37.232 37.232 0 00-2.031-1 16.17 16.17 0 00-2.344-.875c-.854-.27-1.781-.49-2.781-.656a19.226 19.226 0 00-3.219-.25c-2.708 0-5.104.469-7.187 1.406-2.063.917-3.802 2.157-5.219 3.719-1.417 1.563-2.49 3.375-3.219 5.438-.729 2.062-1.093 4.24-1.093 6.53 0 1.897.281 3.574.843 5.032.563 1.458 1.365 2.688 2.407 3.688 1.041.979 2.291 1.729 3.75 2.25 1.458.5 3.093.75 4.906.75 1.146 0 2.218-.073 3.218-.22 1-.166 1.948-.374 2.844-.624.896-.271 1.74-.573 2.532-.907a29.751 29.751 0 002.312-1.062l-2.125 9.531c-1.542.646-3.25 1.136-5.125 1.469-1.854.354-3.948.531-6.281.531-3.125 0-5.927-.458-8.407-1.375-2.479-.937-4.572-2.26-6.281-3.968-1.708-1.709-3.021-3.75-3.937-6.126-.896-2.395-1.344-5.062-1.344-8 0-2.354.25-4.645.75-6.874.5-2.25 1.25-4.365 2.25-6.344a24.99 24.99 0 013.812-5.5c1.542-1.667 3.344-3.104 5.407-4.313 2.083-1.208 4.437-2.146 7.062-2.812 2.646-.688 5.563-1.032 8.75-1.032 1.209 0 2.375.063 3.5.188s2.198.292 3.219.5c1.021.188 1.958.406 2.812.656.876.23 1.646.459 2.313.688l-2.094 9.562zm46.75-10.843c-.5.625-1.281 1.52-2.343 2.687a349.928 349.928 0 01-3.626 3.844 660.164 660.164 0 01-4.25 4.406 738.484 738.484 0 00-4.25 4.406 222.017 222.017 0 00-3.593 3.844c-1.063 1.146-1.844 2.031-2.344 2.656.271.688.719 1.646 1.344 2.875a321.752 321.752 0 002.125 4.032c.812 1.458 1.666 2.99 2.562 4.593a157.906 157.906 0 012.563 4.594 122.371 122.371 0 012.156 4.031c.625 1.209 1.073 2.157 1.344 2.844h-12.281c-.188-.542-.521-1.323-1-2.344-.48-1.02-1.042-2.156-1.688-3.406a242.71 242.71 0 00-2-3.906c-.708-1.375-1.385-2.688-2.031-3.938l-1.688-3.375c-.479-1.02-.812-1.802-1-2.343-.166-.355-.323-.75-.469-1.188a19.07 19.07 0 01-.312-1.063h-.125L159.344 64h-10.188l9.532-44.813h10.187L164.469 40h.125c.229-.313.489-.656.781-1.031.313-.375.563-.688.75-.938.417-.52 1.052-1.27 1.906-2.25a920.41 920.41 0 016.313-7.156 864.334 864.334 0 003.375-3.813 264.24 264.24 0 002.875-3.312c.854-1 1.468-1.77 1.844-2.313h12.343zM230.969 64h-9.438l5.063-24c.25-1.167.5-2.292.75-3.375.271-1.083.531-2.094.781-3.031H228c-.438.541-.99 1.187-1.656 1.937-.646.73-1.302 1.459-1.969 2.188l-1.813 1.937a82.36 82.36 0 00-1.812 1.938A9681.304 9681.304 0 01200.031 64h-9.219l9.469-44.813h9.438a4203.19 4203.19 0 01-2.625 12.47c-.854 4.103-1.719 8.239-2.594 12.405a42.254 42.254 0 01-.5 2.157 27.803 27.803 0 01-.625 2.281h.125c.188-.25.417-.542.688-.875.291-.333.593-.677.906-1.031.312-.354.625-.698.937-1.032.313-.333.584-.624.813-.874l1.781-1.907c.604-.646 1.208-1.281 1.813-1.906l10.031-10.844L230.5 19.188h9.938L230.969 64zm48.25-8.813h6.812l-4.5 21.094h-9.219L274.906 64h-28.218l-2.563 12.281h-9.219l4.5-21.094h3.813a57.517 57.517 0 005.593-7.156 68.828 68.828 0 004.594-8.218c1.396-2.938 2.656-6.105 3.782-9.5 1.145-3.417 2.218-7.125 3.218-11.125h26.438l-7.625 36zM267.031 28a125.5 125.5 0 01-1.969 6.563 76.465 76.465 0 01-2.687 7.093 68.183 68.183 0 01-3.531 7.094 41.427 41.427 0 01-4.5 6.438h14.687L274.812 28h-7.781zm68.875-8.813c-.5.625-1.281 1.521-2.344 2.688a348.308 348.308 0 01-3.624 3.844 686.289 686.289 0 01-4.25 4.406c-1.48 1.52-2.896 2.99-4.25 4.406a218.482 218.482 0 00-3.594 3.844c-1.063 1.146-1.844 2.031-2.344 2.656.271.688.719 1.646 1.344 2.875a321.752 321.752 0 002.125 4.032c.812 1.458 1.666 2.99 2.562 4.593a157.906 157.906 0 012.563 4.594 122.371 122.371 0 012.156 4.031c.625 1.209 1.073 2.157 1.344 2.844h-12.282c-.187-.542-.52-1.323-1-2.344a100.19 100.19 0 00-1.687-3.406 242.71 242.71 0 00-2-3.906c-.708-1.375-1.385-2.688-2.031-3.938l-1.688-3.375c-.479-1.02-.812-1.802-1-2.343-.166-.355-.323-.75-.468-1.188-.146-.458-.25-.813-.313-1.063H305L300.469 64h-10.188l9.531-44.813H310L305.594 40h.125c.229-.313.489-.656.781-1.031.312-.375.562-.688.75-.938.417-.52 1.052-1.27 1.906-2.25a1001.396 1001.396 0 016.313-7.156 864.334 864.334 0 003.375-3.813 264.24 264.24 0 002.875-3.312c.854-1 1.469-1.77 1.843-2.313h12.344zM361.219 64l-1.281-9.969h-16.063L338.625 64H327.25l25.844-44.813h12.031L371.531 64h-10.312zm-3.657-32.844c-.02-.333-.041-.698-.062-1.093v-1.188c.021-.375.042-.708.062-1 .021-.313.042-.542.063-.688h-.187a6.412 6.412 0 01-.219.72c-.104.29-.229.614-.375.968-.125.333-.282.688-.469 1.063-.167.375-.344.74-.531 1.093l-8.188 15.25h11.532l-1.626-15.125z" fill="#fff"/><g filter="url(#filter1_d)"><path d="M322.486 171.724L0 174.685l21.447-100.26 322.485-2.952-21.446 100.251z" fill="#E72E35"/></g><path d="M94.031 144.719h26.391L117.844 157h-42.61l1.032-5.062c1-4.876 3.25-9.407 6.75-13.594 3.5-4.219 9.078-8.656 16.734-13.313 4.188-2.593 7.172-4.687 8.953-6.281 1.813-1.594 3.141-3.219 3.985-4.875.874-1.656 1.312-3.531 1.312-5.625 0-2.406-.844-4.297-2.531-5.672-1.657-1.406-3.985-2.109-6.985-2.109-5.53 0-11.312 1.984-17.343 5.953l2.953-13.547c2.406-1.25 5.265-2.266 8.578-3.047 3.344-.781 6.625-1.172 9.844-1.172 6.406 0 11.375 1.516 14.906 4.547 3.562 3 5.344 7.141 5.344 12.422 0 3.625-.563 6.766-1.688 9.422a23.71 23.71 0 01-4.5 7.031c-1.875 2.031-4.062 3.891-6.562 5.578a194.667 194.667 0 01-7.922 5.063c-4.813 2.937-8.281 5.328-10.406 7.172-2.126 1.812-3.344 3.421-3.657 4.828zm88.922-42.844H158.25l-2.859 13.453a28.533 28.533 0 013.14-.187c6.438 0 11.453 1.656 15.047 4.968 3.625 3.282 5.438 7.829 5.438 13.641 0 4.594-1.282 8.828-3.844 12.703-2.563 3.875-6 6.797-10.313 8.766-4.281 1.969-9.265 2.953-14.953 2.953-3.187 0-6.453-.313-9.797-.938-3.312-.625-5.797-1.437-7.453-2.437l2.578-12c1.625 1.094 3.875 2.047 6.75 2.859 2.907.782 5.485 1.172 7.735 1.172 3.031 0 5.609-.5 7.734-1.5 2.156-1.031 3.813-2.406 4.969-4.125 1.187-1.75 1.781-3.656 1.781-5.719 0-3.156-1-5.437-3-6.843-2-1.438-5.125-2.157-9.375-2.157-4.156 0-8.062.25-11.719.75l8.063-37.453h37.359l-2.578 12.094zm81.703 35.437c0 1.407-.156 2.907-.468 4.5a21.36 21.36 0 01-1.407 4.641c-.625 1.531-1.437 3-2.437 4.406a16.448 16.448 0 01-3.563 3.657c-1.375 1.031-2.969 1.859-4.781 2.484-1.812.625-3.844.938-6.094.938-2.812 0-5.187-.438-7.125-1.313-1.906-.906-3.453-2.047-4.64-3.422a13.291 13.291 0 01-2.579-4.687c-.531-1.719-.796-3.407-.796-5.063 0-1.344.14-2.781.422-4.312a23.23 23.23 0 011.359-4.594 23.89 23.89 0 012.437-4.359c1-1.407 2.204-2.641 3.61-3.704 1.437-1.093 3.078-1.953 4.922-2.578 1.875-.656 3.984-.984 6.328-.984 2.344 0 4.437.344 6.281 1.031 1.844.688 3.391 1.656 4.641 2.906 1.281 1.25 2.25 2.766 2.906 4.547.656 1.75.984 3.719.984 5.906zM205.688 157h-11.532l58.078-67.219h11.532L205.688 157zm21.796-53.859c0 2.156-.343 4.453-1.031 6.89a20.699 20.699 0 01-3.328 6.703c-1.5 2.063-3.437 3.766-5.813 5.11-2.374 1.344-5.25 2.015-8.624 2.015-2.813 0-5.188-.453-7.126-1.359-1.906-.906-3.453-2.062-4.64-3.469a13.273 13.273 0 01-2.578-4.687c-.5-1.719-.75-3.406-.75-5.063 0-1.343.14-2.781.422-4.312a24.556 24.556 0 011.406-4.547 20.674 20.674 0 012.437-4.36c1-1.406 2.203-2.64 3.61-3.703 1.406-1.062 3.047-1.906 4.922-2.53 1.875-.657 3.984-.985 6.328-.985 2.343 0 4.422.344 6.234 1.031 1.844.688 3.391 1.656 4.641 2.906 1.281 1.219 2.25 2.719 2.906 4.5.656 1.75.984 3.703.984 5.86zm27.047 34.359c0-.75-.093-1.5-.281-2.25a5.522 5.522 0 00-.844-2.062 4.173 4.173 0 00-1.547-1.5c-.625-.407-1.421-.61-2.39-.61-1.5 0-2.797.422-3.891 1.266-1.062.812-1.953 1.844-2.672 3.094a15.317 15.317 0 00-1.547 3.984c-.343 1.437-.515 2.781-.515 4.031 0 .875.109 1.703.328 2.485.219.75.547 1.421.984 2.015a4.963 4.963 0 001.641 1.359c.687.313 1.484.469 2.391.469 1.374 0 2.578-.375 3.609-1.125 1.031-.75 1.891-1.718 2.578-2.906.719-1.188 1.25-2.5 1.594-3.938.375-1.468.562-2.906.562-4.312zm-37.125-34.078c0-.781-.094-1.563-.281-2.344-.156-.781-.437-1.469-.844-2.062a4.189 4.189 0 00-1.547-1.5c-.656-.407-1.468-.61-2.437-.61-1.5 0-2.797.422-3.891 1.266-1.062.812-1.953 1.844-2.672 3.094a15.28 15.28 0 00-1.546 3.984c-.344 1.438-.516 2.781-.516 4.031 0 .875.109 1.703.328 2.485.219.781.547 1.468.984 2.062a5.206 5.206 0 001.688 1.406c.687.313 1.484.469 2.39.469 1.376 0 2.579-.375 3.61-1.125 1.031-.781 1.89-1.766 2.578-2.953.719-1.187 1.25-2.5 1.594-3.937.375-1.469.562-2.891.562-4.266z" fill="#fff"/><defs><filter id="filter0_d" x="65" y=".997" width="351.932" height="111.212" filterUnits="userSpaceOnUse" color-interpolation-filters="sRGB"><feFlood flood-opacity="0" result="BackgroundImageFix"/><feColorMatrix in="SourceAlpha" values="0 0 0 0 0 0 0 0 0 0 0 0 0 0 0 0 0 0 127 0"/><feOffset dy="4"/><feGaussianBlur stdDeviation="2"/><feColorMatrix values="0 0 0 0 0 0 0 0 0 0 0 0 0 0 0 0 0 0 0.25 0"/><feBlend in2="BackgroundImageFix" result="effect1_dropShadow"/><feBlend in="SourceGraphic" in2="effect1_dropShadow" result="shape"/></filter><filter id="filter1_d" x="-4" y="71.473" width="351.932" height="111.212" filterUnits="userSpaceOnUse" color-interpolation-filters="sRGB"><feFlood flood-opacity="0" result="BackgroundImageFix"/><feColorMatrix in="SourceAlpha" values="0 0 0 0 0 0 0 0 0 0 0 0 0 0 0 0 0 0 127 0"/><feOffset dy="4"/><feGaussianBlur stdDeviation="2"/><feColorMatrix values="0 0 0 0 0 0 0 0 0 0 0 0 0 0 0 0 0 0 0.25 0"/><feBlend in2="BackgroundImageFix" result="effect1_dropShadow"/><feBlend in="SourceGraphic" in2="effect1_dropShadow" result="shape"/></filter></defs></svg>