<svg xmlns="http://www.w3.org/2000/svg" width="168" height="143" fill="none"><path fill="#1DBBBA" d="M79.904 96.731a1.356 1.356 0 0 0-1.511.46l-9.874 12.899a3.097 3.097 0 0 1-2.441 1.202 3.058 3.058 0 0 1-1.524-.405L19.315 85.07a1.357 1.357 0 0 0-2.028 1.178v20.137c0 .484.258.931.677 1.174L78.79 142.75a1.36 1.36 0 0 0 1.356.001c.42-.242.679-.69.679-1.175v-43.56c0-.582-.37-1.099-.92-1.285zm69.933-11.656a1.358 1.358 0 0 0-1.353-.005l-45.242 25.82c-.46.263-.984.402-1.52.402a3.089 3.089 0 0 1-2.44-1.201l-9.875-12.9a1.356 1.356 0 0 0-2.432.823v43.561a1.356 1.356 0 0 0 2.035 1.174l60.826-35.191c.418-.243.676-.69.676-1.174V86.246c0-.481-.257-.928-.675-1.17z"/><path fill="#1DBBBA" d="M167.782 30.017a1.36 1.36 0 0 0-.759-1.005L105.792.129a1.356 1.356 0 0 0-1.477.212L86.814 15.827l-2.28-1.209a1.356 1.356 0 0 0-1.271 0l-2.28 1.21L63.488.34A1.358 1.358 0 0 0 62.01.128L.778 29.012a1.357 1.357 0 0 0-.364 2.201l18.271 17.663-2.878 1.528a1.356 1.356 0 0 0-.544.53L5.339 68.459a1.356 1.356 0 0 0 .508 1.846l58.395 33.327c.59.337 1.336.186 1.749-.352l12.34-16.116a1.356 1.356 0 0 0-.423-2.013l-57.97-31.936 61.754-32.767v40.29l-15.159 8.784a1.356 1.356 0 0 0 .025 2.361l16.687 9.194c.407.224.9.224 1.308 0l16.687-9.194a1.357 1.357 0 0 0 .026-2.36l-15.16-8.785v-40.29l61.754 32.767-57.968 31.937a1.358 1.358 0 0 0-.422 2.013l12.34 16.116a1.358 1.358 0 0 0 1.748.352l58.395-33.327c.649-.37.876-1.196.508-1.846l-9.926-17.527a1.356 1.356 0 0 0-.543-.529l-2.875-1.528 18.27-17.663c.319-.31.467-.757.395-1.196z"/><path fill="#EE3939" d="M120.869 92.91H46.736V1.125h49.422l24.711 24.71V92.91z"/><path fill="#AC2626" d="M96.158 25.837h24.711L96.159 1.126v24.71z"/><path fill="#1DBBBA" d="m15.712 50.678 4.132 2.81 57.97 31.937a1.354 1.354 0 0 1 .422 2.012l-12.34 16.117a1.356 1.356 0 0 1-1.748.352L5.753 70.579a1.356 1.356 0 0 1-.508-1.846l9.923-17.526c.128-.224.316-.408.544-.53zm74.086 34.747 62.642-34.218 9.927 17.527c.368.65.14 1.475-.508 1.845l-58.396 33.328a1.357 1.357 0 0 1-1.748-.352l-12.34-16.117a1.357 1.357 0 0 1 .423-2.013z"/><path fill="#fff" d="M71.21 62.086H55.388V58.73l6.978-6.768c1.782-1.722 3.053-3.152 3.815-4.289.761-1.148 1.142-2.373 1.142-3.673 0-1.336-.398-2.368-1.195-3.094-.785-.739-1.91-1.108-3.375-1.108-2.145 0-4.195.961-6.152 2.883v-3.92c2.074-1.535 4.482-2.302 7.224-2.302 2.367 0 4.23.597 5.59 1.793 1.36 1.183 2.04 2.9 2.04 5.15 0 1.512-.423 2.994-1.266 4.447-.844 1.442-2.467 3.334-4.87 5.678L60.135 58.5v.088h11.074v3.498zm5.29-.58v-3.92c1.653 1.114 3.328 1.67 5.028 1.67 1.71 0 3.087-.433 4.13-1.3 1.043-.88 1.565-2.045 1.565-3.498 0-1.43-.533-2.543-1.6-3.34-1.055-.797-2.572-1.196-4.553-1.196-.68 0-1.939.07-3.779.211V36.88h12.955v3.48h-9.369v6.311a34.75 34.75 0 0 1 2.127-.07c2.672 0 4.734.686 6.188 2.057 1.464 1.37 2.197 3.246 2.197 5.625 0 2.496-.838 4.5-2.514 6.012-1.664 1.5-3.955 2.25-6.873 2.25-2.46 0-4.295-.346-5.502-1.038zm26.842 1.002c-2.625 0-4.676-1.072-6.152-3.217-1.465-2.144-2.198-5.244-2.198-9.298 0-4.453.768-7.823 2.303-10.108s3.75-3.427 6.645-3.427c5.543 0 8.314 4.306 8.314 12.92 0 4.265-.785 7.523-2.355 9.773-1.559 2.238-3.745 3.357-6.557 3.357zm.404-22.799c-3.058 0-4.588 3.37-4.588 10.108 0 6.305 1.5 9.457 4.5 9.457 2.953 0 4.43-3.205 4.43-9.615 0-6.633-1.447-9.95-4.342-9.95z"/></svg>