<svg xmlns="http://www.w3.org/2000/svg" width="145" height="143" fill="none"><path fill="#1DBBBA" d="M16.666 119.714 0 136.381V143h6.619l16.666-16.667a58.236 58.236 0 0 1-6.619-6.619z"/><path fill="#EE3939" d="m136.013 37.774-29.122 29.123 6.618 6.618 29.123-29.122a4.681 4.681 0 0 0-6.619-6.619zM106.228 1.37a4.68 4.68 0 0 0-6.62 0L70.487 30.494l6.619 6.619L106.229 7.99a4.681 4.681 0 0 0 0-6.618z"/><path fill="#1DBBBA" d="m37.714 18.58 5.295 5.295L23.153 43.73c-21.02 21.018-21.02 55.097 0 76.116 21.019 21.019 55.097 21.019 76.116 0l19.856-19.856 5.296 5.295 6.618-6.619L44.333 11.96l-6.62 6.618z"/></svg>