<svg width="216" height="194" fill="none" xmlns="http://www.w3.org/2000/svg"><path d="M209.154 96.568c2.736 1.588 2.752 4.141.034 5.719l-72.002 41.843-28.409-16.403 72-41.842c2.717-1.588 7.146-1.588 9.874 0l18.503 10.683z" fill="#EE3939"/><path d="M209.188 102.287l-72.002 41.843-.047 17.283 71.999-41.841c1.35-.784 2.025-1.813 2.029-2.841l.05-17.283c.006 1.029-.679 2.055-2.029 2.839z" fill="#7A7A7A"/><path d="M137.186 144.129l-.049 17.285-28.41-16.403.048-17.285 28.411 16.403z" fill="#666"/><g filter="url(#filter0_d)"><path d="M209.188 102.287l-72.002 41.843-.047 17.283 71.999-41.841c1.35-.784 2.025-1.813 2.029-2.841l.05-17.283c.006 1.029-.679 2.055-2.029 2.839z" fill="#C11D1D"/></g><g filter="url(#filter1_d)"><path d="M137.186 144.129l-.049 17.285-28.41-16.403.048-17.285 28.411 16.403z" fill="#B08B1C"/></g><path d="M115.07 156.098l-.036 12.264-20.495-11.831.036-12.266 20.495 11.833z" fill="#4D4D4D"/><path d="M94.575 144.265l18.019-10.472-.036 12.266-18.019 10.472.036-12.266z" fill="#333"/><path d="M94.54 156.531l18.018-10.472 20.495 11.832-18.019 10.471-20.495-11.831z" fill="#4D4D4D"/><path d="M94.575 144.265l18.019-10.472 20.495 11.833-18.019 10.472-20.495-11.833z" fill="#383839"/><path d="M115.069 156.098l18.02-10.472-.036 12.265-18.019 10.471.035-12.264z" fill="#3D3D3D"/><path d="M114.071 163.408l-.01 3.121-18.525-10.696.008-3.121 18.527 10.696z" fill="#D4D4D4"/><path d="M114.071 163.408l18.998-11.514-.016 3.597-18.992 11.038.01-3.121z" fill="#767676"/><path d="M95.545 152.712l20.433-11.874 17.092 11.056-18.998 11.514-18.527-10.696z" fill="#B3B3B3"/><path d="M133.524 145.339l-18.022 10.471-21.36-12.331 18.021-10.472 21.361 12.332z" fill="#CCC"/><path d="M111.393 139.093l-6.787 3.945 3.676 2.124 6.788-3.945-3.677-2.124zm-3.115 5.664l-2.757-1.588-.216-.127 6.09-3.538 2.978 1.717-.218.127-5.877 3.409zM117.94 142.951l-6.787 3.944 3.676 2.124 6.788-3.946-3.677-2.122zm-3.115 5.663l-2.757-1.588-.216-.127 6.09-3.537 2.978 1.715-.221.127-5.874 3.41z" fill="#4E4F4F"/><path d="M105.436 152.06l-3.889 2.261-2.95-1.703 3.891-2.259 2.948 1.701zM109.928 154.431l-4.049 2.354-3.071-1.772 4.051-2.355 3.069 1.773zM114.141 156.73l-4.05 2.354-3.071-1.773 4.05-2.354 3.071 1.773zM118.351 159.03l-4.049 2.352-3.072-1.772 4.05-2.353 3.071 1.773z" fill="#4D4D4D"/><path d="M94.142 143.477l-.037 13.34 21.362 12.332.037-13.338-21.362-12.334zm20.892 24.886l-20.495-11.834.036-12.264 20.495 11.834-.036 12.264z" fill="#D4D4D4"/><path d="M115.505 155.81l18.019-10.472-.038 13.339-18.019 10.471.038-13.338z" fill="#B3B3B3"/><path d="M111.393 139.5l-6.09 3.538.218.127 2.757 1.592 5.875-3.412.216-.127-2.976-1.718z" fill="#333"/><path d="M117.941 143.357l-6.091 3.538.216.127 2.76 1.592 5.874-3.414.218-.125-2.977-1.718z" fill="#B3B3B3"/><g style="mix-blend-mode:multiply"><path d="M114.369 141.218l-.216.127-2.76-1.592-5.872 3.412-.218-.127 6.09-3.538 2.976 1.718z" fill="#333" opacity=".22"/></g><g style="mix-blend-mode:multiply"><path d="M120.918 145.075l-.218.125-2.759-1.59-5.875 3.412-.216-.127 6.091-3.538 2.977 1.718z" fill="#333" opacity=".22"/></g><path d="M148.38 150.202c0 .032 0 .062.012.093.012.032 0 .06.012.09s.012.061.018.093c.006.032.012.058.02.087l.026.094c.008.031.016.057.026.087l.035.091a.94.94 0 00.034.088c.012.03.028.061.042.091l.039.085.052.092c.016.028.03.055.048.083l.057.091.056.082c.02.03.044.059.067.091.024.032.038.054.06.08l.077.089.066.077.087.09c.024.025.046.049.072.073l.095.089.077.072.106.087.083.07.121.089.081.062c.048.033.098.065.147.097l.072.049c.075.048.153.096.234.141l17.326 10.004c2.559 1.479 6.7 1.479 9.243 0l13.11-7.621-26.601-15.356-13.102 7.619c-1.268.739-1.9 1.704-1.9 2.669v.095c0 .032 0 .057.002.087z" fill="#EE3939"/><g filter="url(#filter2_d)"><path d="M189.982 155.088l-.046 16.181-13.116 7.623c-1.258.733-2.912 1.102-4.566 1.108-1.689 0-3.374-.363-4.675-1.108l-17.324-10.003c-1.289-.744-1.934-1.721-1.93-2.696l.046-16.173v.183c0 .029 0 .061.012.093s0 .06.012.087c.012.028.012.064.018.094.006.029.011.059.019.089l.026.091c0 .03.016.06.026.088l.036.093a.628.628 0 00.034.085c.011.032.027.062.041.094l.04.085.052.091c.015.028.029.056.047.084l.058.091.055.081c.02.03.044.06.068.09.024.029.038.053.059.081.022.028.052.06.078.089l.065.078.088.089c.023.024.045.05.071.074l.095.089.078.071.105.088.083.067c.038.032.08.062.12.092.039.029.055.039.083.061l.147.097.071.05c.076.048.153.095.235.141l17.326 10.003c1.278.739 2.954 1.11 4.627 1.11 1.674 0 3.345-.371 4.616-1.11l13.12-7.621z" fill="#711212"/></g><g filter="url(#filter3_d)"><path d="M189.981 155.088l-.045 16.181-13.116 7.623c-1.259.732-2.912 1.102-4.566 1.108v-16.181c1.673 0 3.345-.372 4.615-1.11l13.112-7.621z" fill="#C11D1D"/></g><path d="M115.05 11.873c2.735 1.588 2.751 4.141.034 5.72L43.082 59.436l-28.41-16.404 72-41.84c2.718-1.589 7.147-1.589 9.874 0l18.504 10.681z" fill="#EE3939"/><path d="M115.083 17.593L43.082 59.436l-.048 17.283 72-41.842c1.35-.784 2.025-1.812 2.029-2.84l.049-17.283c.006 1.028-.679 2.054-2.029 2.839z" fill="#7A7A7A"/><path d="M43.082 59.436l-.05 17.284-28.41-16.403.048-17.285 28.412 16.404z" fill="#666"/><g filter="url(#filter4_d)"><path d="M115.083 17.593L43.082 59.436l-.048 17.283 72-41.842c1.35-.784 2.025-1.812 2.029-2.84l.049-17.283c.006 1.028-.679 2.054-2.029 2.839z" fill="#C11D1D"/></g><g filter="url(#filter5_d)"><path d="M43.082 59.436l-.05 17.284-28.41-16.403.048-17.285 28.412 16.404z" fill="#B08B1C"/></g><path d="M20.965 71.404L20.93 83.67.435 71.837.47 59.571l20.495 11.833z" fill="#4D4D4D"/><path d="M.47 59.57L18.49 49.1l-.036 12.265L.434 71.837.47 59.571z" fill="#333"/><path d="M.435 71.837l18.019-10.472 20.495 11.832-18.02 10.471L.435 71.837z" fill="#4D4D4D"/><path d="M.47 59.57L18.49 49.1l20.495 11.833-18.02 10.471L.471 59.571z" fill="#383839"/><path d="M20.965 71.404l18.02-10.472-.036 12.264-18.02 10.472.036-12.264z" fill="#3D3D3D"/><path d="M19.967 78.714l-.01 3.12L1.43 71.138l.008-3.12 18.528 10.696z" fill="#D4D4D4"/><path d="M19.966 78.714L38.965 67.2l-.015 3.597-18.992 11.037.01-3.12z" fill="#767676"/><path d="M1.44 68.018l20.434-11.873L38.966 67.2 19.968 78.714 1.44 68.018z" fill="#B3B3B3"/><path d="M39.42 60.645L21.397 71.116.038 58.785l18.02-10.472L39.42 60.645z" fill="#CCC"/><path d="M17.289 54.399L10.5 58.343l3.677 2.124 6.787-3.944-3.676-2.124zm-3.115 5.664l-2.757-1.589-.217-.127 6.09-3.537 2.978 1.717-.218.127-5.876 3.409zM23.836 58.257L17.048 62.2l3.677 2.125 6.787-3.947-3.676-2.122zM20.72 63.92l-2.758-1.588-.216-.127 6.09-3.537 2.978 1.715-.22.127-5.874 3.41z" fill="#4E4F4F"/><path d="M11.331 67.366l-3.889 2.261-2.95-1.703 3.891-2.259 2.948 1.701zM15.824 69.737l-4.05 2.354-3.07-1.773 4.05-2.354 3.07 1.773zM20.036 72.035l-4.05 2.355-3.07-1.773 4.05-2.354 3.07 1.772zM24.247 74.336l-4.05 2.353-3.071-1.773 4.05-2.352 3.07 1.772z" fill="#4D4D4D"/><path d="M.038 58.783L0 72.123l21.362 12.332.038-13.338L.038 58.782zM20.93 83.669L.434 71.835.47 59.571l20.495 11.833-.035 12.265z" fill="#D4D4D4"/><path d="M21.4 71.116l18.02-10.471-.038 13.338-18.02 10.471.038-13.338z" fill="#B3B3B3"/><path d="M17.289 54.806l-6.09 3.538.218.127 2.757 1.592 5.874-3.413.217-.127-2.976-1.717z" fill="#333"/><path d="M23.836 58.663l-6.09 3.538.216.127 2.76 1.592 5.873-3.415.219-.125-2.978-1.717z" fill="#B3B3B3"/><g style="mix-blend-mode:multiply"><path d="M20.265 56.523l-.217.127-2.76-1.592-5.871 3.413-.219-.127 6.09-3.538 2.977 1.717z" fill="#333" opacity=".22"/></g><g style="mix-blend-mode:multiply"><path d="M26.814 60.38l-.219.125-2.759-1.59-5.874 3.413-.216-.127 6.09-3.538 2.978 1.717z" fill="#333" opacity=".22"/></g><path d="M185.396 55.083l12.835-19.545h-7.838v-3.322c0-1.167 0-2.061-.066-3.652a21.486 21.486 0 00-19.009-19.95c-2.588-.226-4.122-.113-5.976-.14h-25.126v10.03h25.145c1.759 0 3.849 0 4.865.076a11.517 11.517 0 018.874 6.202 11.492 11.492 0 011.205 4.422c.056.622 0 1.948 0 3.012v3.322h-7.792l12.883 19.545zM68.217 150.577L48.72 163.412v-7.82h-3.331c-1.158 0-2.052 0-3.652-.066a21.484 21.484 0 01-19.95-19.009c-.216-2.588-.113-4.121-.141-5.975v-25.145h9.994v25.145c0 1.759 0 3.849.075 4.865a11.515 11.515 0 006.202 8.912 11.492 11.492 0 004.423 1.204c.62.057 1.947 0 3.01 0h3.37v-7.782l19.498 12.836z" fill="#1DBBBA"/><defs><filter id="filter0_d" x="133.139" y="99.448" width="82.078" height="75.965" filterUnits="userSpaceOnUse" color-interpolation-filters="sRGB"><feFlood flood-opacity="0" result="BackgroundImageFix"/><feColorMatrix in="SourceAlpha" values="0 0 0 0 0 0 0 0 0 0 0 0 0 0 0 0 0 0 127 0"/><feOffset dy="10"/><feGaussianBlur stdDeviation="2"/><feColorMatrix values="0 0 0 0 0 0 0 0 0 0 0 0 0 0 0 0 0 0 0.25 0"/><feBlend in2="BackgroundImageFix" result="effect1_dropShadow"/><feBlend in="SourceGraphic" in2="effect1_dropShadow" result="shape"/></filter><filter id="filter1_d" x="104.727" y="127.726" width="36.459" height="47.688" filterUnits="userSpaceOnUse" color-interpolation-filters="sRGB"><feFlood flood-opacity="0" result="BackgroundImageFix"/><feColorMatrix in="SourceAlpha" values="0 0 0 0 0 0 0 0 0 0 0 0 0 0 0 0 0 0 127 0"/><feOffset dy="10"/><feGaussianBlur stdDeviation="2"/><feColorMatrix values="0 0 0 0 0 0 0 0 0 0 0 0 0 0 0 0 0 0 0.25 0"/><feBlend in2="BackgroundImageFix" result="effect1_dropShadow"/><feBlend in="SourceGraphic" in2="effect1_dropShadow" result="shape"/></filter><filter id="filter2_d" x="144.325" y="150.02" width="49.657" height="43.98" filterUnits="userSpaceOnUse" color-interpolation-filters="sRGB"><feFlood flood-opacity="0" result="BackgroundImageFix"/><feColorMatrix in="SourceAlpha" values="0 0 0 0 0 0 0 0 0 0 0 0 0 0 0 0 0 0 127 0"/><feOffset dy="10"/><feGaussianBlur stdDeviation="2"/><feColorMatrix values="0 0 0 0 0 0 0 0 0 0 0 0 0 0 0 0 0 0 0.25 0"/><feBlend in2="BackgroundImageFix" result="effect1_dropShadow"/><feBlend in="SourceGraphic" in2="effect1_dropShadow" result="shape"/></filter><filter id="filter3_d" x="168.254" y="155.088" width="25.727" height="38.912" filterUnits="userSpaceOnUse" color-interpolation-filters="sRGB"><feFlood flood-opacity="0" result="BackgroundImageFix"/><feColorMatrix in="SourceAlpha" values="0 0 0 0 0 0 0 0 0 0 0 0 0 0 0 0 0 0 127 0"/><feOffset dy="10"/><feGaussianBlur stdDeviation="2"/><feColorMatrix values="0 0 0 0 0 0 0 0 0 0 0 0 0 0 0 0 0 0 0.25 0"/><feBlend in2="BackgroundImageFix" result="effect1_dropShadow"/><feBlend in="SourceGraphic" in2="effect1_dropShadow" result="shape"/></filter><filter id="filter4_d" x="39.034" y="14.754" width="82.078" height="75.965" filterUnits="userSpaceOnUse" color-interpolation-filters="sRGB"><feFlood flood-opacity="0" result="BackgroundImageFix"/><feColorMatrix in="SourceAlpha" values="0 0 0 0 0 0 0 0 0 0 0 0 0 0 0 0 0 0 127 0"/><feOffset dy="10"/><feGaussianBlur stdDeviation="2"/><feColorMatrix values="0 0 0 0 0 0 0 0 0 0 0 0 0 0 0 0 0 0 0.25 0"/><feBlend in2="BackgroundImageFix" result="effect1_dropShadow"/><feBlend in="SourceGraphic" in2="effect1_dropShadow" result="shape"/></filter><filter id="filter5_d" x="10.623" y="43.032" width="36.459" height="47.688" filterUnits="userSpaceOnUse" color-interpolation-filters="sRGB"><feFlood flood-opacity="0" result="BackgroundImageFix"/><feColorMatrix in="SourceAlpha" values="0 0 0 0 0 0 0 0 0 0 0 0 0 0 0 0 0 0 127 0"/><feOffset dy="10"/><feGaussianBlur stdDeviation="2"/><feColorMatrix values="0 0 0 0 0 0 0 0 0 0 0 0 0 0 0 0 0 0 0.25 0"/><feBlend in2="BackgroundImageFix" result="effect1_dropShadow"/><feBlend in="SourceGraphic" in2="effect1_dropShadow" result="shape"/></filter></defs></svg>