<svg xmlns="http://www.w3.org/2000/svg" width="216" height="194" fill="none"><g clip-path="url(#a)"><path fill="url(#b)" d="M209.155 96.568c2.735 1.588 2.751 4.141.033 5.719l-72.002 41.843-28.409-16.403 72-41.842c2.717-1.588 7.146-1.588 9.874 0l18.504 10.683Z"/><path fill="#7A7A7A" d="m209.188 102.287-72.002 41.843-.047 17.283 71.999-41.841c1.35-.784 2.025-1.813 2.029-2.841l.05-17.283c.006 1.029-.679 2.055-2.029 2.839Z"/><path fill="#666" d="m137.186 144.13-.049 17.285-28.41-16.404.048-17.284 28.411 16.403Z"/><g filter="url(#c)"><path fill="#5FA8F6" d="m209.188 102.287-72.002 41.843-.047 17.283 71.999-41.841c1.35-.784 2.025-1.813 2.029-2.841l.05-17.283c.006 1.029-.679 2.055-2.029 2.839Z"/></g><g filter="url(#d)"><path fill="#1DBBBA" d="m137.186 144.13-.049 17.285-28.41-16.404.048-17.284 28.411 16.403Z"/></g><path fill="#4D4D4D" d="m115.07 156.099-.036 12.264-20.495-11.832.036-12.266 20.495 11.834Z"/><path fill="#333" d="m94.575 144.265 18.019-10.472-.036 12.266-18.019 10.472.036-12.266Z"/><path fill="#4D4D4D" d="m94.54 156.531 18.018-10.471 20.495 11.831-18.019 10.472-20.494-11.832Z"/><path fill="#383839" d="m94.575 144.265 18.019-10.472 20.495 11.834-18.019 10.471-20.495-11.833Z"/><path fill="#3D3D3D" d="m115.07 156.098 18.019-10.472-.036 12.265-18.019 10.472.036-12.265Z"/><path fill="#D4D4D4" d="m114.072 163.408-.01 3.121-18.526-10.696.008-3.121 18.528 10.696Z"/><path fill="#767676" d="m114.071 163.408 18.998-11.514-.015 3.597-18.992 11.038.009-3.121Z"/><path fill="#B3B3B3" d="m95.545 152.712 20.433-11.874 17.092 11.056-18.998 11.514-18.527-10.696Z"/><path fill="#CCC" d="m133.524 145.339-18.022 10.471-21.36-12.331 18.021-10.472 21.361 12.332Z"/><path fill="#4E4F4F" d="m111.393 139.093-6.787 3.945 3.676 2.124 6.788-3.945-3.677-2.124Zm-3.114 5.664-2.758-1.588-.216-.127 6.09-3.538 2.978 1.717-.218.127-5.876 3.409Zm9.662-1.806-6.788 3.944 3.677 2.124 6.787-3.946-3.676-2.122Zm-3.115 5.663-2.758-1.588-.216-.127 6.091-3.537 2.977 1.715-.22.127-5.874 3.41Z"/><path fill="#4D4D4D" d="m105.436 152.061-3.889 2.261-2.95-1.704 3.891-2.259 2.948 1.702Zm4.492 2.37-4.049 2.354-3.071-1.772 4.051-2.355 3.069 1.773Zm4.213 2.299-4.05 2.354-3.071-1.773 4.05-2.354 3.071 1.773Zm4.21 2.301-4.049 2.352-3.072-1.773 4.05-2.352 3.071 1.773Z"/><path fill="#D4D4D4" d="m94.142 143.477-.037 13.34 21.362 12.332.038-13.338-21.363-12.334Zm20.892 24.886-20.495-11.834.036-12.264 20.495 11.834-.036 12.264Z"/><path fill="#B3B3B3" d="m115.505 155.811 18.019-10.472-.038 13.338-18.019 10.472.038-13.338Z"/><path fill="#333" d="m111.393 139.5-6.09 3.538.218.127 2.757 1.592 5.875-3.412.216-.127-2.976-1.718Z"/><path fill="#B3B3B3" d="m117.94 143.357-6.09 3.538.216.127 2.759 1.592 5.874-3.414.219-.125-2.978-1.718Z"/><path fill="#333" d="m114.369 141.218-.216.127-2.76-1.592-5.872 3.412-.218-.127 6.09-3.538 2.976 1.718ZM120.918 145.075l-.219.125-2.759-1.59-5.874 3.412-.216-.127 6.09-3.538 2.978 1.718Z" opacity=".22" style="mix-blend-mode:multiply"/><path fill="url(#e)" d="M148.381 150.202c0 .032 0 .062.012.093.012.032 0 .06.012.09s.012.061.018.093c.006.032.011.058.019.087l.026.094c.008.032.016.057.026.087l.036.091c.009.03.021.059.034.088.011.03.027.061.041.091.014.03.026.058.04.085l.052.092c.015.028.029.055.047.083l.058.091.055.082c.02.03.044.059.068.091.024.032.038.054.059.08l.078.089.065.077.088.09c.023.025.045.049.071.073l.095.089.078.072.105.087.083.07.122.089.081.062c.048.033.097.065.147.097l.071.05c.076.047.153.095.235.14l17.326 10.004c2.559 1.479 6.7 1.479 9.243 0l13.11-7.621-26.601-15.356-13.102 7.619c-1.269.739-1.9 1.704-1.9 2.669v.095c0 .032 0 .057.002.087Z"/><g filter="url(#f)"><path fill="#1DBBBA" d="m189.982 155.088-.046 16.181-13.116 7.623c-1.258.733-2.912 1.102-4.566 1.108-1.689 0-3.374-.363-4.675-1.108l-17.324-10.003c-1.289-.744-1.934-1.721-1.93-2.696l.046-16.173v.183c0 .029 0 .061.012.093s0 .06.012.087c.012.028.012.064.018.094.006.029.011.059.019.089l.026.091c0 .03.016.06.026.088l.036.093a.685.685 0 0 0 .034.085c.011.032.027.062.041.094l.04.085.052.091c.015.028.029.056.047.084l.058.091.055.081c.02.03.044.06.068.09.024.029.038.053.059.081.022.028.052.06.078.089l.065.078.088.089c.023.024.045.05.071.074l.095.089.078.071.105.088.083.067c.038.032.08.062.12.092.039.029.055.039.083.061l.147.097.071.05c.076.048.153.095.235.141l17.326 10.003c1.278.739 2.954 1.11 4.627 1.11 1.674 0 3.345-.371 4.616-1.11l13.12-7.621Z"/></g><g filter="url(#g)"><path fill="#5FA8F6" d="m189.982 155.088-.046 16.181-13.116 7.623c-1.258.732-2.912 1.102-4.566 1.108v-16.181c1.674 0 3.345-.372 4.616-1.11l13.112-7.621Z"/></g><path fill="url(#h)" d="M115.05 11.873c2.736 1.588 2.751 4.14.034 5.72L43.082 59.436l-28.41-16.404 72-41.84c2.718-1.59 7.147-1.59 9.874 0l18.504 10.68Z"/><path fill="#7A7A7A" d="M115.084 17.593 43.082 59.436l-.048 17.283 72-41.841c1.35-.785 2.025-1.813 2.029-2.841l.049-17.283c.006 1.028-.678 2.054-2.028 2.839Z"/><path fill="#666" d="m43.082 59.436-.05 17.284-28.41-16.403.048-17.285 28.412 16.404Z"/><g filter="url(#i)"><path fill="#5FA8F6" d="M115.084 17.593 43.082 59.436l-.048 17.283 72-41.841c1.35-.785 2.025-1.813 2.029-2.841l.049-17.283c.006 1.028-.678 2.054-2.028 2.839Z"/></g><g filter="url(#j)"><path fill="#1DBBBA" d="m43.082 59.436-.05 17.284-28.41-16.403.048-17.285 28.412 16.404Z"/></g><path fill="#4D4D4D" d="M20.965 71.404 20.93 83.67.435 71.837.47 59.571l20.495 11.833Z"/><path fill="#333" d="M.47 59.57 18.49 49.1l-.036 12.265L.434 71.837.47 59.57Z"/><path fill="#4D4D4D" d="m.435 71.837 18.02-10.472 20.494 11.832-18.02 10.471L.435 71.838Z"/><path fill="#383839" d="M.47 59.57 18.49 49.1l20.495 11.833-18.02 10.47L.471 59.572.47 59.57Z"/><path fill="#3D3D3D" d="m20.965 71.404 18.02-10.472-.036 12.264-18.02 10.472.036-12.264Z"/><path fill="#D4D4D4" d="m19.967 78.714-.01 3.12L1.432 71.138l.008-3.12 18.527 10.696Z"/><path fill="#767676" d="M19.967 78.714 38.965 67.2l-.016 3.597-18.992 11.037.01-3.12Z"/><path fill="#B3B3B3" d="m1.44 68.017 20.434-11.872 17.092 11.054-18.998 11.514L1.44 68.018Z"/><path fill="#CCC" d="M39.42 60.645 21.397 71.117.038 58.787l18.02-10.473L39.42 60.645Z"/><path fill="#4E4F4F" d="M17.289 54.4 10.5 58.343l3.677 2.124 6.787-3.945L17.29 54.4h-.001Zm-3.115 5.663-2.757-1.588-.217-.127 6.09-3.538 2.979 1.718-.219.127-5.876 3.408Zm9.662-1.806L17.05 62.2l3.676 2.125 6.788-3.947-3.677-2.122-.001.001Zm-3.115 5.663-2.757-1.588-.216-.127 6.09-3.537 2.978 1.715-.22.127-5.875 3.41Z"/><path fill="#4D4D4D" d="m11.33 67.366-3.888 2.261-2.95-1.703 3.89-2.259 2.949 1.701Zm4.494 2.371-4.05 2.354-3.07-1.773 4.05-2.354 3.07 1.773Zm4.212 2.298-4.05 2.355-3.07-1.773 4.05-2.354 3.07 1.772Zm4.21 2.301-4.05 2.353-3.07-1.773 4.05-2.352 3.07 1.772Z"/><path fill="#D4D4D4" d="M.038 58.783 0 72.123l21.362 12.332.038-13.338L.038 58.783ZM20.93 83.67.434 71.835.47 59.571l20.495 11.833-.035 12.265Z"/><path fill="#B3B3B3" d="m21.4 71.115 18.02-10.47-.038 13.337-18.02 10.472.038-13.338Z"/><path fill="#333" d="m17.289 54.806-6.09 3.538.218.127 2.757 1.592 5.874-3.413.217-.127-2.976-1.717Z"/><path fill="#B3B3B3" d="m23.836 58.664-6.09 3.537.216.127 2.759 1.592 5.874-3.414.218-.125-2.977-1.717Z"/><path fill="#333" d="m20.265 56.523-.217.127-2.76-1.592-5.871 3.413-.219-.127 6.09-3.538 2.977 1.717ZM26.813 60.38l-.218.126-2.76-1.59-5.873 3.412-.217-.127 6.09-3.537 2.978 1.716Z" opacity=".22" style="mix-blend-mode:multiply"/><path fill="#EE3939" d="m185.396 55.083 12.835-19.545h-7.838v-3.322c0-1.167 0-2.061-.066-3.652a21.487 21.487 0 0 0-19.01-19.95c-2.587-.226-4.121-.113-5.975-.14h-25.126v10.03h25.145c1.759 0 3.849 0 4.865.076a11.52 11.52 0 0 1 8.874 6.202 11.47 11.47 0 0 1 1.204 4.422c.057.622 0 1.948 0 3.012v3.322h-7.791l12.883 19.545ZM68.217 150.577 48.72 163.413v-7.82h-3.33c-1.159 0-2.053 0-3.653-.066a21.49 21.49 0 0 1-19.95-19.009c-.216-2.588-.113-4.122-.14-5.976v-25.145h9.993v25.145c0 1.76 0 3.849.075 4.865a11.517 11.517 0 0 0 6.202 8.912 11.473 11.473 0 0 0 4.423 1.204c.62.057 1.947 0 3.01 0h3.37v-7.782l19.497 12.836Z"/><path fill="#fff" d="m39.538 39.48.178 1.038c-.693.039-1.249.11-1.669.214-.42.096-.803.243-1.15.438-.686.388-.99.826-.91 1.313.08.48.526.932 1.34 1.357a5.948 5.948 0 0 0 2.573.684c.901.024 1.688-.154 2.36-.534.375-.211.64-.439.792-.682.14-.235.245-.572.316-1.012l1.898.044c-.02.505-.16.94-.418 1.305-.251.36-.664.703-1.237 1.027-1.111.643-2.402.962-3.874.955-1.472-.007-2.785-.318-3.939-.935-1.174-.597-1.797-1.287-1.867-2.07-.07-.79.479-1.507 1.647-2.151a6.892 6.892 0 0 1 1.757-.699c.605-.153 1.339-.25 2.203-.292ZM52.194 39.625l-5.688-.475-1.147.647 3.395 1.77-1.486.84-7.676-4.003 1.486-.84 3.005 1.568 1.168-.66-.829-2.796 1.689-.954.967 3.377 6.815.567-1.699.96ZM54.743 38.185l-7.676-4.003 5.373-3.034 1.275.665-3.886 2.195 1.665.868 1.922-1.085a5.412 5.412 0 0 1 2.464-.699c.885-.038 1.692.133 2.42.513s1.075.81 1.04 1.292c-.035.481-.431.936-1.189 1.364l-3.408 1.924Zm.233-1.493 1.677-.947c.404-.228.621-.453.653-.675.032-.23-.132-.438-.492-.626a2.129 2.129 0 0 0-1.162-.236 2.783 2.783 0 0 0-1.226.375l-1.678.947 2.228 1.162ZM68.99 30.139l-5.687-.475-1.147.647 3.395 1.77-1.487.84-7.676-4.003 1.487-.84 3.005 1.568 1.168-.66-.829-2.797 1.688-.953.968 3.377 6.815.567-1.7.959Z"/><path fill="#fff" d="M70.593 23.926c1.071-.018 2.043.2 2.915.655.872.455 1.317.975 1.334 1.56.016.579-.386 1.1-1.207 1.563-.828.468-1.778.71-2.85.728-1.07.01-2.043-.212-2.915-.667-.872-.455-1.316-.97-1.333-1.549-.017-.585.389-1.112 1.217-1.58.82-.463 1.767-.7 2.839-.71Zm-1.321 3.048a3.863 3.863 0 0 0 1.658.45c.579.017 1.084-.096 1.516-.34.425-.24.606-.515.543-.824-.055-.313-.35-.609-.883-.887a3.79 3.79 0 0 0-1.657-.438c-.58-.025-1.081.082-1.506.322-.432.244-.616.524-.554.841.062.31.357.601.883.876ZM82.092 22.74l-1.38.78-2.314-1.207-2.102 1.187 2.313 1.207-1.38.78-5.525-2.882 1.38-.78 2.076 1.083 2.103-1.187-2.076-1.083 1.38-.78 5.525 2.882ZM83.49 17.182l-1.783 1.007 4.39 2.29-1.381.78-4.39-2.29-1.783 1.007-1.136-.592 4.948-2.794 1.135.592ZM86.704 14.134l1.402-.792 4.049 4.384c.35.383.494.716.434 1-.052.28-.326.56-.822.84-.396.224-.79.395-1.18.514l-.816-.679c.263-.101.497-.21.702-.326.425-.24.48-.522.168-.846l-7.855-1.883 1.444-.815 1.927.486c1.571.396 2.658.683 3.261.859a472.29 472.29 0 0 1-1.743-1.728l-.971-1.014ZM94.206 10.602a6.258 6.258 0 0 1 2.788.716c.872.454 1.352.95 1.44 1.489.08.534-.23.998-.931 1.394a4.234 4.234 0 0 1-2.35.54l2.52 1.314-1.38.78-7.471-3.897 1.285-.726.724.378c-.202-.528.08-1.008.844-1.44.7-.395 1.544-.578 2.531-.548Zm2.269 2.36c-.07-.298-.364-.582-.883-.853a3.822 3.822 0 0 0-1.604-.444c-.544-.03-1.017.069-1.42.297-.404.228-.575.496-.512.806.055.305.338.591.85.858.519.27 1.057.417 1.615.439.558.014 1.038-.093 1.441-.321.404-.228.575-.489.513-.783ZM136.556 124.562l.181 1.058c-.705.039-1.272.112-1.699.218a4.363 4.363 0 0 0-1.172.446c-.699.395-1.008.841-.927 1.337.081.489.536.95 1.366 1.382a6.05 6.05 0 0 0 2.62.697c.917.024 1.718-.157 2.403-.544.382-.215.651-.447.807-.695.142-.239.249-.583.322-1.03l1.932.045c-.02.513-.162.956-.425 1.328-.256.368-.676.717-1.26 1.047-1.131.655-2.447.979-3.946.972-1.499-.006-2.836-.324-4.011-.952-1.196-.609-1.83-1.311-1.901-2.108-.072-.805.487-1.535 1.677-2.191a7.015 7.015 0 0 1 1.789-.712c.616-.156 1.364-.256 2.244-.298ZM149.446 124.71l-5.793-.484-1.168.66 3.457 1.803-1.513.855-7.818-4.077 1.513-.855 3.062 1.596 1.189-.672-.844-2.848 1.719-.971.985 3.439 6.941.577-1.73.977ZM152.042 123.244l-7.818-4.077 5.472-3.091 1.299.678-3.957 2.235 1.695.885 1.957-1.106a5.525 5.525 0 0 1 2.51-.711c.902-.039 1.723.135 2.465.522.741.386 1.094.825 1.059 1.315-.036.491-.439.954-1.211 1.39l-3.471 1.96Zm.237-1.521 1.708-.965c.411-.232.633-.461.666-.687.032-.233-.135-.446-.502-.637a2.16 2.16 0 0 0-1.183-.241c-.422.022-.838.15-1.249.382l-1.708.965 2.268 1.183ZM166.553 115.049l-5.793-.484-1.168.659 3.458 1.804-1.514.855-7.818-4.078 1.514-.855 3.061 1.597 1.189-.672-.844-2.849 1.719-.971.985 3.439 6.941.578-1.73.977Z"/><path fill="#fff" d="M168.185 108.721c1.091-.018 2.081.204 2.969.668.888.463 1.341.993 1.358 1.589.017.588-.393 1.119-1.229 1.591-.843.476-1.811.724-2.902.742-1.091.01-2.081-.216-2.969-.68-.888-.463-1.341-.989-1.358-1.577-.017-.596.396-1.133 1.239-1.609.836-.472 1.8-.714 2.892-.724Zm-1.346 3.104a3.925 3.925 0 0 0 1.689.458c.59.018 1.104-.097 1.544-.346.433-.244.617-.524.554-.839-.057-.319-.356-.62-.9-.903a3.85 3.85 0 0 0-1.688-.446c-.59-.026-1.101.083-1.534.328-.439.248-.627.534-.564.856.064.315.363.613.899.892ZM179.896 107.513l-1.406.794-2.356-1.229-2.141 1.21 2.356 1.229-1.406.793-5.626-2.934 1.405-.794 2.115 1.103 2.141-1.21-2.115-1.102 1.406-.794 5.627 2.934ZM181.321 101.853l-1.817 1.025 4.47 2.332-1.405.794-4.471-2.332-1.816 1.026-1.157-.603 5.039-2.845 1.157.603ZM184.594 98.748l1.427-.806 4.124 4.465c.356.389.503.728.443 1.018-.054.285-.333.57-.837.855a6.01 6.01 0 0 1-1.203.524l-.83-.691c.267-.103.505-.214.714-.332.433-.244.49-.532.172-.862l-8.001-1.917 1.471-.831 1.962.495c1.601.404 2.708.695 3.322.875a569.468 569.468 0 0 1-1.776-1.76l-.988-1.033ZM192.234 95.15a6.37 6.37 0 0 1 2.839.73c.889.463 1.377.968 1.467 1.516.081.544-.234 1.017-.948 1.42a4.313 4.313 0 0 1-2.392.55l2.565 1.338-1.406.794-7.608-3.968 1.308-.74.738.386c-.206-.538.081-1.027.86-1.467.713-.403 1.573-.589 2.577-.558Zm2.311 2.404c-.071-.303-.37-.593-.899-.868a3.894 3.894 0 0 0-1.634-.453c-.553-.03-1.036.07-1.447.303-.41.232-.584.505-.521.82.056.312.345.603.866.875a3.847 3.847 0 0 0 1.645.447c.568.014 1.057-.095 1.468-.327.411-.232.585-.498.522-.797Z"/></g><defs><filter id="c" width="82.078" height="75.965" x="133.139" y="99.448" color-interpolation-filters="sRGB" filterUnits="userSpaceOnUse"><feFlood flood-opacity="0" result="BackgroundImageFix"/><feColorMatrix in="SourceAlpha" result="hardAlpha" values="0 0 0 0 0 0 0 0 0 0 0 0 0 0 0 0 0 0 127 0"/><feOffset dy="10"/><feGaussianBlur stdDeviation="2"/><feColorMatrix values="0 0 0 0 0 0 0 0 0 0 0 0 0 0 0 0 0 0 0.25 0"/><feBlend in2="BackgroundImageFix" result="effect1_dropShadow_1140_13386"/><feBlend in="SourceGraphic" in2="effect1_dropShadow_1140_13386" result="shape"/></filter><filter id="d" width="36.459" height="47.688" x="104.727" y="127.727" color-interpolation-filters="sRGB" filterUnits="userSpaceOnUse"><feFlood flood-opacity="0" result="BackgroundImageFix"/><feColorMatrix in="SourceAlpha" result="hardAlpha" values="0 0 0 0 0 0 0 0 0 0 0 0 0 0 0 0 0 0 127 0"/><feOffset dy="10"/><feGaussianBlur stdDeviation="2"/><feColorMatrix values="0 0 0 0 0 0 0 0 0 0 0 0 0 0 0 0 0 0 0.25 0"/><feBlend in2="BackgroundImageFix" result="effect1_dropShadow_1140_13386"/><feBlend in="SourceGraphic" in2="effect1_dropShadow_1140_13386" result="shape"/></filter><filter id="f" width="49.657" height="43.98" x="144.325" y="150.02" color-interpolation-filters="sRGB" filterUnits="userSpaceOnUse"><feFlood flood-opacity="0" result="BackgroundImageFix"/><feColorMatrix in="SourceAlpha" result="hardAlpha" values="0 0 0 0 0 0 0 0 0 0 0 0 0 0 0 0 0 0 127 0"/><feOffset dy="10"/><feGaussianBlur stdDeviation="2"/><feColorMatrix values="0 0 0 0 0 0 0 0 0 0 0 0 0 0 0 0 0 0 0.25 0"/><feBlend in2="BackgroundImageFix" result="effect1_dropShadow_1140_13386"/><feBlend in="SourceGraphic" in2="effect1_dropShadow_1140_13386" result="shape"/></filter><filter id="g" width="25.728" height="38.912" x="168.254" y="155.088" color-interpolation-filters="sRGB" filterUnits="userSpaceOnUse"><feFlood flood-opacity="0" result="BackgroundImageFix"/><feColorMatrix in="SourceAlpha" result="hardAlpha" values="0 0 0 0 0 0 0 0 0 0 0 0 0 0 0 0 0 0 127 0"/><feOffset dy="10"/><feGaussianBlur stdDeviation="2"/><feColorMatrix values="0 0 0 0 0 0 0 0 0 0 0 0 0 0 0 0 0 0 0.25 0"/><feBlend in2="BackgroundImageFix" result="effect1_dropShadow_1140_13386"/><feBlend in="SourceGraphic" in2="effect1_dropShadow_1140_13386" result="shape"/></filter><filter id="i" width="82.078" height="75.965" x="39.034" y="14.754" color-interpolation-filters="sRGB" filterUnits="userSpaceOnUse"><feFlood flood-opacity="0" result="BackgroundImageFix"/><feColorMatrix in="SourceAlpha" result="hardAlpha" values="0 0 0 0 0 0 0 0 0 0 0 0 0 0 0 0 0 0 127 0"/><feOffset dy="10"/><feGaussianBlur stdDeviation="2"/><feColorMatrix values="0 0 0 0 0 0 0 0 0 0 0 0 0 0 0 0 0 0 0.25 0"/><feBlend in2="BackgroundImageFix" result="effect1_dropShadow_1140_13386"/><feBlend in="SourceGraphic" in2="effect1_dropShadow_1140_13386" result="shape"/></filter><filter id="j" width="36.46" height="47.688" x="10.622" y="43.032" color-interpolation-filters="sRGB" filterUnits="userSpaceOnUse"><feFlood flood-opacity="0" result="BackgroundImageFix"/><feColorMatrix in="SourceAlpha" result="hardAlpha" values="0 0 0 0 0 0 0 0 0 0 0 0 0 0 0 0 0 0 127 0"/><feOffset dy="10"/><feGaussianBlur stdDeviation="2"/><feColorMatrix values="0 0 0 0 0 0 0 0 0 0 0 0 0 0 0 0 0 0 0.25 0"/><feBlend in2="BackgroundImageFix" result="effect1_dropShadow_1140_13386"/><feBlend in="SourceGraphic" in2="effect1_dropShadow_1140_13386" result="shape"/></filter><linearGradient id="b" x1="211.216" x2="102.155" y1="144.13" y2="101.728" gradientUnits="userSpaceOnUse"><stop offset=".014" stop-color="#1DBBBA"/><stop offset="1" stop-color="#65B3FB"/></linearGradient><linearGradient id="e" x1="189.982" x2="145.715" y1="163.819" y2="146.57" gradientUnits="userSpaceOnUse"><stop offset=".014" stop-color="#1DBBBA"/><stop offset="1" stop-color="#65B3FB"/></linearGradient><linearGradient id="h" x1="117.112" x2="8.05" y1="59.436" y2="17.032" gradientUnits="userSpaceOnUse"><stop offset=".014" stop-color="#1DBBBA"/><stop offset="1" stop-color="#65B3FB"/></linearGradient><clipPath id="a"><path fill="#fff" d="M0 0h216v194H0z"/></clipPath></defs></svg>