<svg xmlns="http://www.w3.org/2000/svg" width="509" height="173" fill="none"><g clip-path="url(#a)"><path fill="#CDCDCD" d="M498.947 167v-48.658h-23.955V82.449h-23.047v15.983h-19.071V61.606H401.65v33.672l-9.341.215v-33.95H381.41v-14.47h-6.54v-9.716h-25.529v9.716H342.8v14.47h-10.896v18.39l-5.029.218-1.511-54.49h-33.628V54.65l-11.831.215V9.561h-4.048V0h-40.424v9.56h-4.05v61.053h-2.542V51.578h-6.227v-9.31h-9.03V15.097h-13.076V42.27h-9.03v9.309h-6.227v32.207h-4.358l-3.427-.033V46.438l-99.56.61v84.026h-7.783v-11.012H49.494v21.163h-8.093v-7.774h-17.75v15.763H5.903V167h493.043Z"/><path fill="#0A62F5" fill-rule="evenodd" d="M508.001 156.822c-2.07 8.84-10.003 15.424-19.475 15.424H24.936c32.427-28.294 67-40.812 98.205-41.77 38.211-1.173 67.662 8.819 94.859 18.047 33.373 11.323 63.353 21.495 101.96 8.473 36.705-12.38 71.397-40.02 102.729-64.982C455.266 66.059 484.209 43 508.001 43v113.822Z" clip-rule="evenodd"/><path fill="url(#b)" fill-rule="evenodd" d="M508.358 164.112c-.862 4.646-4.936 8.164-9.832 8.164H.897v-1.53c38.821-31.368 89.134-43.795 128.186-42.587 20.261.628 41.593 4.302 63.769 8.121 41.246 7.104 85.408 14.71 131.018 4.147 37.102-8.592 71.238-28.331 101.92-46.074 31.286-18.092 58.981-34.107 82.568-34.107v103.866Z" clip-rule="evenodd"/><path fill="#CDCDCD" d="M218.98 63.864c.274-3.585-2.405-6.714-5.982-6.988-3.578-.274-6.699 2.41-6.973 5.996-.273 3.585 2.405 6.714 5.983 6.988 3.577.274 6.699-2.41 6.972-5.996Z"/><path fill="#EEFBFF" d="M269.079 55.46c-.206 1.62 1.479 2.908 2.978 2.808 1.656-.112 3.061-1.473 3.304-3.105.263-1.766-.796-3.178-2.434-3.307-1.596-.127-2.615 1.295-2.155 2.73.331 1.03 1.261 1.413 1.74 1.124.369-.22.347-.78-.099-.878a.46.46 0 0 0-.458.198c-.39-.156-.761-.868-.509-1.636.321-.983 1.56-1.037 2.329-.58.98.583 1.132 1.838.773 2.838-.377 1.049-1.401 1.876-2.522 1.956a2.353 2.353 0 0 1-2.485-2.151.224.224 0 0 0-.069-.163.23.23 0 0 0-.393.166Z"/><path fill="#FF61A4" d="m297.484 50.034 1.064-2.407-1.375-2.246a.37.37 0 0 1 .001-.383.361.361 0 0 1 .344-.166l2.618.278 1.704-2.002a.36.36 0 0 1 .628.158l.55 2.573 2.428 1.005a.36.36 0 0 1 .043.647l-2.272 1.32-.203 2.624a.36.36 0 0 1-.601.242l-1.961-1.758-2.553.618a.362.362 0 0 1-.415-.503Z"/><path fill="#EE3838" d="m197.865 32.992.797-1.806-1.031-1.684a.269.269 0 0 1 .002-.287.271.271 0 0 1 .257-.125l1.961.202 1.278-1.502a.274.274 0 0 1 .273-.087.268.268 0 0 1 .198.206l.42 1.93 1.821.754a.275.275 0 0 1 .166.233.272.272 0 0 1-.133.253l-1.704.99-.153 1.965a.27.27 0 0 1-.17.23.272.272 0 0 1-.281-.049l-1.465-1.318-1.915.463a.271.271 0 0 1-.321-.368Z"/><path fill="#3190C1" d="m315.07 66.37 1.129-2.056 3.504 1.456 2.023-2.803 2.799.66.334-1.42-3.745-.884-1.917 2.658-3.644-1.516-1.7 3.096 1.217.809Zm-91.626-39.893-1.99-1.242 1.638-3.428-2.686-2.174.807-2.767-1.397-.409-1.08 3.7 2.546 2.06-1.705 3.567 2.994 1.866.873-1.173Z"/><path fill="#FFC359" d="m249.606 40.53 1.472-2.397-1.182-.48a.513.513 0 0 1-.318-.466.481.481 0 0 1 .038-.194.503.503 0 0 1 .658-.28l1.363.56 1.317-2.152-1.261-.514a.513.513 0 0 1-.28-.66.518.518 0 0 1 .272-.277.503.503 0 0 1 .388-.003l1.444.587 1.529-2.465a.502.502 0 0 1 .619-.202l.22.089a.511.511 0 0 1 .314.527.507.507 0 0 1-.072.207l-1.422 2.327 2.093.85 1.53-2.464a.506.506 0 0 1 .619-.202l.241.097a.506.506 0 0 1 .241.734l-1.422 2.327 1.183.48a.503.503 0 0 1 .28.66.502.502 0 0 1-.658.28l-1.364-.56-1.302 2.16 1.26.515c.124.05.224.148.277.272a.513.513 0 0 1-.362.695.507.507 0 0 1-.293-.026l-1.444-.587-1.562 2.543a.507.507 0 0 1-.621.203l-.258-.105a.51.51 0 0 1-.239-.736l1.472-2.396-2.101-.851-1.562 2.543a.509.509 0 0 1-.621.203l-.258-.105a.497.497 0 0 1-.285-.315.497.497 0 0 1 .057-.421Zm5.336-1.92 1.317-2.152-2.101-.852-1.316 2.154 2.1.85Z"/><path fill="#2A2A2A" d="M185.535 15.5h-.018a9.417 9.417 0 0 0-.517-.166l-.179-.052c-.063-.017-.128-.03-.192-.046l-.195-.045a4.229 4.229 0 0 0-.186-.038c-.063-.011-.14-.027-.209-.038l-.179-.028-.229-.03-.168-.018a11.203 11.203 0 0 0-.263-.02l-.14-.01c-.14 0-.272-.009-.408-.009h-62.807c-.147 0-.292 0-.437.011a8.16 8.16 0 0 0-1.274.162 8.487 8.487 0 0 0-4.573 2.637 8.523 8.523 0 0 0-2.181 5.706v129.087a8.53 8.53 0 0 0 1.533 4.889 8.508 8.508 0 0 0 4.054 3.123l.043.014c.163.057.327.109.492.158l.181.051.19.048.195.044.186.038.211.037.178.028c.077.011.152.021.229.029l.167.019c.087.008.175.014.263.021l.141.008c.14 0 .271.01.409.01h62.803a8.471 8.471 0 0 0 5.994-2.501 8.513 8.513 0 0 0 2.475-6.016V23.51a8.535 8.535 0 0 0-1.534-4.888 8.502 8.502 0 0 0-4.055-3.122Z"/><path fill="#DFF0F4" d="M187.263 26.602h-71.782v122.905h71.782V26.602Z"/><path fill="#EEFBFF" d="m187.262 78.374-20.716-1.703-.591-12.17-5.091-.211v-8.293l26.398 11.348v-2.328l-8.756-3.76-1.656-34.655h-2.14l1.613 33.71-15.459-6.637v-.237h-.545l-3.517-1.513-.017-25.318h-2.14l.015 24.4-21.418-9.206V26.6h-4.27v13.36l-13.485-5.8v2.327l13.49 5.8v13.538l-13.49-6.318v2.362l13.49 6.318v7.995l-12.178 15.494-1.312.026v2.14l10.722-.212v14.573l11.197 6.233-11.746 5.175-10.173-7.273v2.628l9.607 6.871.008-.012-2.314 37.683h4.278l1.438-23.415 18.047 6.612-2.063 16.803h2.152l1.972-16.049 17.615 6.459-3.083 9.595h2.242l2.847-8.859 19.036 6.972v-2.277l-18.381-6.74 5.204-16.196-6.661-3.706c2.315-2.809 7.314-8.882 12.3-14.986 3.177-3.888 5.634-6.912 7.538-9.267v-3.407c-2.36 2.948-5.409 6.694-8.686 10.706l-11.163-7.15-.765-15.77 20.613 1.694-.006-2.153Zm-25.383-9.758 1.174 24.2-12.863-11.2v-13.48l11.689.48Zm-28.637-24.49 25.487 10.953v9.126l-25.487-1.06V44.127Zm-13.692 37.49 11.24-14.3 17.262.72v13.018l-28.502.562Zm8.787 15.322V83.583l20.393-.404 12.4 10.795-21.278 9.375-11.515-6.411Zm43.176 26.487-4.642 14.442-38.235-14.003.687-11.193 12.765-5.625 29.425 16.379Zm5.7-20.017a5659.547 5659.547 0 0 1-11.688 14.235l-20.986-11.683 21.716-9.57 10.958 7.018Z"/><path fill="#1DBBBA" d="m167.32 139.946-41.886-15.002.734-13.673 36.74-16.277-14.532-12.484V66.73l-18.032-.542V51.81h1.526v12.895l18.03.543v16.559l15.838 13.605-38.098 16.877-.622 11.599 40.815 14.619-.513 1.439Z"/><path fill="#FE544E" d="m127.161 46.71 3.908 7.775 4.102-7.673c1.215-2.808-.734-6.026-3.792-6.154h-.28c-3.052.047-5.082 3.207-3.938 6.052Zm2-1.613a2.03 2.03 0 0 1 3.673-1.164 2.031 2.031 0 0 1 .217 1.99 2.026 2.026 0 0 1-3.89-.827Z"/><path fill="#013D5D" d="m163.523 132.171 3.909 7.776 4.102-7.673c1.214-2.815-.734-6.028-3.793-6.154h-.28c-3.051.046-5.081 3.207-3.938 6.051Zm2.001-1.613a2.021 2.021 0 0 1 .762-1.557 2.03 2.03 0 0 1 2.494-.029 2.04 2.04 0 0 1 .797 1.54 2.041 2.041 0 0 1-.922 1.774 2.035 2.035 0 0 1-1.905.165 2.018 2.018 0 0 1-.651-.449 2.015 2.015 0 0 1-.575-1.444Z"/><path fill="#fff" d="M136.082 21.2h30.454a.08.08 0 0 1 .056.022.079.079 0 0 1 .023.056v1.384a.078.078 0 0 1-.077.078h-30.456a.078.078 0 0 1-.055-.023.08.08 0 0 1-.022-.055v-1.384c0-.02.008-.04.022-.055a.08.08 0 0 1 .055-.024v.001Z"/><path fill="#3CB4C5" d="M187.02 144.35h-71.539v5.157h71.539v-5.157Zm.243-117.748h-71.782v6.52h71.782v-6.52Z" opacity=".2"/><path fill="#2A2A2A" d="M147.539 143.728s33.904 5.639 34.303 5.393c.399-.246 4.797-19.226 4.797-19.226s-28.031-5.055-28.486-5.055c-.455 0-6.55 4.888-6.631 5.214-.081.325-3.983 13.674-3.983 13.674Zm103.4 4.823c.813.081 41.863-.799 41.863-.799l-3.082-9.466s-5.691-8.624-8.699-8.467c-3.008.158-20.894-2.749-23.982-.603-3.088 2.145-5.85.435-7.314 5.567-1.465 5.132-2.605 5.707-1.465 8.802 1.141 3.094 2.679 4.966 2.679 4.966Z"/><path fill="#3B3B3B" d="M178.632 147.15c.015-7.736-6.229-14.019-13.945-14.034-7.717-.015-13.984 6.244-13.999 13.98-.015 7.736 6.229 14.019 13.945 14.034 7.717.015 13.984-6.244 13.999-13.98Z"/><path fill="#A9A9A9" d="M164.656 156.853c5.369 0 9.721-4.364 9.721-9.746 0-5.382-4.352-9.746-9.721-9.746s-9.721 4.364-9.721 9.746c0 5.382 4.352 9.746 9.721 9.746Z"/><path fill="#FEFEFE" d="M164.655 153.625c3.591 0 6.502-2.918 6.502-6.517 0-3.6-2.911-6.518-6.502-6.518-3.591 0-6.502 2.918-6.502 6.518 0 3.599 2.911 6.517 6.502 6.517Z"/><path fill="#3B3B3B" d="M286.212 147.147c.015-7.735-6.229-14.019-13.945-14.033-7.717-.015-13.984 6.244-13.999 13.98-.015 7.735 6.229 14.019 13.945 14.033 7.717.015 13.984-6.244 13.999-13.98Z"/><path fill="#A9A9A9" d="M272.231 156.853c5.369 0 9.722-4.364 9.722-9.746 0-5.382-4.353-9.746-9.722-9.746s-9.721 4.364-9.721 9.746c0 5.382 4.352 9.746 9.721 9.746Z"/><path fill="#FEFEFE" d="M272.23 153.625c3.591 0 6.502-2.918 6.502-6.517 0-3.6-2.911-6.518-6.502-6.518-3.59 0-6.501 2.918-6.501 6.518 0 3.599 2.911 6.517 6.501 6.517Z"/><path fill="#455A64" d="M304.31 133.776c-1.181-7.807-5-9.445-16.296-11.71-12.469-2.498-28.289-10.646-28.289-10.646s-26.987-13.251-33.598-14.772c-6.611-1.52-22.869-1.087-36.526-.983-13.657.104-21.678 3.923-28.614 9.347-6.936 5.424-18.968 9.559-18.968 9.559l-2.185.392a4.704 4.704 0 0 0-2.785 1.617 4.733 4.733 0 0 0-1.099 3.032v19.376a4.833 4.833 0 0 0 3.591 4.671l7.899 2.091a1.11 1.11 0 0 0 .873-.212 1.126 1.126 0 0 0 .438-.785c.866-7.926 7.705-13.948 15.853-13.938 8.668.009 15.775 7.148 15.77 15.835 0 .969-.088 1.936-.265 2.889a1.57 1.57 0 0 0 .876 1.708c.208.098.435.15.665.151h72.693c.502.001.992-.159 1.396-.458a2.342 2.342 0 0 0 .927-2.188 16.01 16.01 0 0 1-.14-2.064c-.026-8.581 6.898-15.694 15.457-15.866a15.782 15.782 0 0 1 11.382 4.516 15.867 15.867 0 0 1 4.648 13.04 2.71 2.71 0 0 0 1.581 2.784c.348.157.725.239 1.107.24h10.453c.912 0 1.788-.363 2.433-1.01a3.45 3.45 0 0 0 1.008-2.438v-10.147a26.921 26.921 0 0 0-.285-4.031Z"/><path fill="#FC7070" d="M136.411 121.903h8.609a1.027 1.027 0 0 1 .859.462 1.04 1.04 0 0 1 .092.973l-.967 2.312a5.924 5.924 0 0 1-5.463 3.64h-3.13a1.116 1.116 0 0 1-1.111-1.114v-5.16a1.112 1.112 0 0 1 1.111-1.113Z"/><path fill="#F3FCFF" d="M290.609 125.488c4.741.727 10.202 5.227 10.202 5.227 1.304 1.404.227 3.687-1.682 3.566l-9.246-.585a4.57 4.57 0 0 1-4.094-3.29c-.895-3.111-.13-5.685 4.82-4.918Z"/><path fill="#002D42" d="M136 139.703a.838.838 0 0 0-.845.733.836.836 0 0 0 .051.402 5.403 5.403 0 0 0 3.643 3.239l8.85 2.342a1.264 1.264 0 0 0 .981-.24 1.25 1.25 0 0 0 .49-.883c.16-1.472.511-2.917 1.043-4.298a.709.709 0 0 0-.323-.88.699.699 0 0 0-.325-.087L136 139.703Zm152.183 3.651a1.102 1.102 0 0 0-.839.367 1.112 1.112 0 0 0-.23.409 1.106 1.106 0 0 0-.037.468c.18 1.391.194 2.799.041 4.193a3.02 3.02 0 0 0 .742 2.347 3.022 3.022 0 0 0 2.241 1.01h11.598a3.812 3.812 0 0 0 3.531-2.363c.192-.465.29-.962.288-1.465v-3.007a1.57 1.57 0 0 0-1.529-1.571l-15.806-.388Z"/><path fill="#FF61A4" d="M259.746 115.906c-.154-.084-15.52-8.534-25.71-13.264-10.088-4.682-21.35-4.185-21.836-4.161-1.293-.03-28.237-.615-36.521 1.972-8.344 2.606-19.213 14.48-19.671 14.984l-.126.141 2.922 13.744.313-.018c8.499-.482 15.006 1.786 18.813 6.555 2.879 3.606 3.234 7.412 3.238 7.45l.028.327 30.644.791.353.007.378.01 42.698.842v-.368c.214-13.907 4.601-28.429 4.644-28.574l.088-.281-.255-.157Zm-77.894 27.013c-.14-1.031-.795-4.295-3.332-7.488-2.734-3.443-8.266-7.411-19.137-6.88l-2.707-12.757c1.261-1.355 11.539-12.241 19.22-14.642 7.682-2.4 32.651-2.008 35.944-1.945v44.484l-29.988-.772Zm72.692 1.61-41.969-.821V99.2c1.976-.058 12.059-.117 21.155 4.106 9.44 4.382 23.342 11.968 25.405 13.1-.608 2.098-4.323 15.307-4.585 28.123h-.006Zm-119.338-3.691a5.396 5.396 0 0 0 3.643 3.239l8.85 2.342a1.264 1.264 0 0 0 1.319-.63c.084-.152.136-.319.152-.493.063-.575.157-1.146.28-1.71l-14.244-2.748Zm151.996 6.852c-.017.371-.043.738-.084 1.101a3.023 3.023 0 0 0 1.755 3.092c.386.174.804.264 1.228.265h11.598a3.811 3.811 0 0 0 3.819-3.827v-.631h-18.316Z" opacity=".5"/><path fill="#002D42" d="M257.212 147.691c-.001-.783.054-1.564.166-2.338a1.544 1.544 0 0 0-.341-1.217 1.555 1.555 0 0 0-1.135-.557l-75.606-1.849a1.217 1.217 0 0 0-1.195 1.564c.4 1.416.602 2.881.601 4.353 0 .981-.089 1.961-.266 2.926a1.601 1.601 0 0 0 1.567 1.908h73.989c.341-.001.678-.076.989-.218a2.402 2.402 0 0 0 1.37-2.511 16.339 16.339 0 0 1-.139-2.061Z"/><path fill="#FF61A4" d="M257.213 147.69v-.04h-77.511c0 .982-.089 1.961-.266 2.926a1.621 1.621 0 0 0 .336 1.324 1.606 1.606 0 0 0 1.232.585h73.988a2.38 2.38 0 0 0 1.801-.828 2.39 2.39 0 0 0 .559-1.902 16.012 16.012 0 0 1-.139-2.065Z" opacity=".5"/><path fill="#0A62F5" d="M172.984 119.762h-9.433a.404.404 0 0 0-.405.405v.846c0 .224.182.406.405.406h9.433a.412.412 0 0 0 .287-.119.415.415 0 0 0 .118-.287v-.846a.406.406 0 0 0-.405-.405Zm52.006.828h-9.433a.403.403 0 0 0-.405.406v.845c0 .224.182.406.405.406h9.433a.412.412 0 0 0 .287-.119.415.415 0 0 0 .118-.287v-.845a.398.398 0 0 0-.118-.287.402.402 0 0 0-.287-.119Z"/><path fill="#fff" d="m164.95 117.205 41.786.396s2.556-.069 2.905-2.481c.349-2.412.318-12.742.318-12.742s-.302-2.074-2.285-2.106c-1.205-.016-11.3-.74-21.118.459a35.914 35.914 0 0 0-21.037 10.276l-2.959 2.98s-2.008 3.177 2.39 3.218Zm49.66-13.517v10.831a2.581 2.581 0 0 0 2.439 2.619l32.833 1.322a2.198 2.198 0 0 0 1.924-.949c.59-.871.658-2.303-2.284-4.222-5.116-3.339-18.134-10.561-22.949-11.259-3.066-.445-7.075-.639-9.586-.721a2.35 2.35 0 0 0-1.692.685 2.344 2.344 0 0 0-.685 1.694Z"/><path fill="#EE3838" d="m202.207 68.383 9.996 19.886 10.494-19.627c3.107-7.2-1.881-15.413-9.701-15.74-.115 0-.231-.007-.347-.01h-.349c-7.82.13-13.012 8.215-10.093 15.49Zm5.114-4.126a5.19 5.19 0 0 1 3.985-4.988 5.186 5.186 0 0 1 2.273-.03 5.2 5.2 0 0 1 4.021 4.134 5.204 5.204 0 0 1-2.271 5.304 5.172 5.172 0 0 1-6.533-.73 5.203 5.203 0 0 1-1.47-3.69h-.005Z"/><path fill="#fff" d="M328.023 161.012H81.745c-.62 0-1.124.504-1.124 1.126v.281c0 .622.503 1.126 1.124 1.126h246.278c.621 0 1.124-.504 1.124-1.126v-.281c0-.622-.503-1.126-1.124-1.126Z"/></g><defs><linearGradient id="b" x1="508.358" x2="204.1" y1="172.276" y2="-138.619" gradientUnits="userSpaceOnUse"><stop offset=".014" stop-color="#1DBBBA"/><stop offset="1" stop-color="#65B3FB"/></linearGradient><clipPath id="a"><path fill="#fff" d="M0 0h509v173H0z"/></clipPath></defs></svg>