<svg width="319" height="104" fill="none" xmlns="http://www.w3.org/2000/svg"><path d="M0 24.612V78.95l48.764-27.17L0 24.612z" fill="#FF1635"/><path d="M72.902 50.129c.874-.901 1.82-1.885 2.837-2.948l3.664-3.813a425.88 425.88 0 003.699-3.894 265.669 265.669 0 013.36-3.525c.143-.13.249-.294.307-.477.059-.182.068-.376.027-.562-.085-.42-.475-.843-1.138-.843h-2.171c-.208 0-.413.047-.6.137-.185.09-.347.221-.472.383-.97.994-2.01 2.085-3.12 3.268l-6.71 7.123a315.66 315.66 0 01-2.93 3.086c-.16.153-.247.211-.245.215a2.708 2.708 0 01-.487.03h-1.276V35.255c0-.69-.498-1.19-1.184-1.19h-1.834a1.166 1.166 0 00-.847.321 1.109 1.109 0 00-.337.823v30.393c0 .716.519 1.236 1.233 1.236h1.787c.684 0 1.182-.501 1.182-1.19V52.176h1.178c.217 0 .336.017.362.004.04.031.125.098.266.23l13.86 13.834c.244.312.52.495.824.553.143.027.292.041.46.041h2.41a1.1 1.1 0 00.703-.225 1.075 1.075 0 00.368-1.168 1.098 1.098 0 00-.296-.475l-14.88-14.84M108.826 37.002c-1.085-.947-2.446-1.699-4.037-2.233-1.573-.528-3.4-.795-5.423-.795-2.315 0-4.63.046-6.943.138-.69 0-1.185.502-1.185 1.19v30.396c0 .663.496 1.143 1.185 1.143h1.833a1.167 1.167 0 00.846-.321 1.108 1.108 0 00.336-.822V55.456a56.542 56.542 0 003.35.075 18.82 18.82 0 005.034-.663 12.841 12.841 0 004.272-2.04 10.099 10.099 0 002.944-3.48c.723-1.394 1.088-3.034 1.088-4.876 0-1.45-.276-2.827-.821-4.092a9.33 9.33 0 00-2.479-3.376v-.002zm-.9 7.566c0 1.3-.24 2.404-.714 3.278a5.99 5.99 0 01-1.929 2.144c-.83.565-1.797.982-2.88 1.232-1.129.261-2.345.394-3.615.394a117.62 117.62 0 01-3.35-.041V37.888c.313-.017.66-.031 1.047-.045 1.697-.063 4.291-.166 6.333.405 1.031.293 1.942.725 2.699 1.289a6.1 6.1 0 011.761 2.085c.431.831.648 1.823.648 2.946zM140.272 34.067h-1.978c-.514 0-.957.259-1.12.588l-12.737 18.34c-.644.934-1.289 1.875-1.929 2.823-.646.949-1.259 1.858-1.839 2.73l-.787 1.197c.008-.607.015-1.242.015-1.913V35.21a1.097 1.097 0 00-.337-.823 1.153 1.153 0 00-.848-.32h-1.831a1.157 1.157 0 00-.821.334 1.097 1.097 0 00-.319.809v30.438c0 .688.5 1.191 1.185 1.191h2.124c.425 0 .813-.195 1.121-.588l12.547-17.978 3.807-5.63c.281-.412.544-.81.793-1.195a211.128 211.128 0 00-.064 5.514v18.732c0 .662.496 1.143 1.185 1.143h1.831a1.155 1.155 0 00.82-.334 1.08 1.08 0 00.318-.81V35.21c0-.648-.489-1.14-1.138-1.14M170.586 34.067h-22.575a1.165 1.165 0 00-.845.321 1.094 1.094 0 00-.335.822v30.438c0 .688.496 1.191 1.18 1.191h1.836c.687 0 1.186-.501 1.186-1.19V37.976h16.535v27.717c0 .662.496 1.143 1.185 1.143h1.833a1.163 1.163 0 00.846-.322 1.078 1.078 0 00.336-.822V35.257c0-.688-.495-1.19-1.182-1.19zm29.482 3.856l.283-.319a1.112 1.112 0 00.251-.945l-.255-1.631a1.166 1.166 0 00-.423-.7 1.22 1.22 0 00-.79-.261H175.89c-.519 0-.966.313-1.206.934l-.4 1.646a1.107 1.107 0 00.247.957l.44.377h10.393v27.667c0 .688.519 1.191 1.234 1.191h1.735c.715 0 1.233-.501 1.233-1.19V37.98h9.906l.596-.058zm28.297 5.845c-.695-2.03-1.712-3.807-3.026-5.288a14.439 14.439 0 00-4.768-3.531c-3.545-1.65-8.392-1.76-12.243-.13a13.947 13.947 0 00-4.806 3.365c-1.349 1.448-2.416 3.225-3.178 5.284-.757 2.046-1.142 4.37-1.142 6.913 0 2.378.341 4.615 1.011 6.653a15.58 15.58 0 002.994 5.381 14.034 14.034 0 004.834 3.592c1.886.863 4.051 1.296 6.429 1.296 2.077 0 4.057-.373 5.891-1.118a13.175 13.175 0 004.797-3.33c1.334-1.449 2.382-3.253 3.131-5.359.736-2.092 1.112-4.515 1.112-7.208a20.091 20.091 0 00-1.036-6.52zm-3.215 6.566c0 1.988-.247 3.821-.734 5.451-.478 1.603-1.187 2.985-2.103 4.114a9.213 9.213 0 01-3.331 2.578c-1.312.605-2.828.912-4.512.912-1.797 0-3.397-.35-4.745-1.036a10.108 10.108 0 01-3.424-2.79 12.632 12.632 0 01-2.116-4.155 17.443 17.443 0 01-.734-5.072c0-2.148.298-4.047.889-5.652.583-1.587 1.372-2.927 2.346-3.981a9.668 9.668 0 013.384-2.376 10.74 10.74 0 014.162-.81c1.612 0 3.102.321 4.427.953a10.146 10.146 0 013.422 2.645 12.704 12.704 0 012.25 4.066c.542 1.574.819 3.305.819 5.155" fill="#0055A2"/><path d="M257.673 34.067h-22.57a1.163 1.163 0 00-.848.32 1.109 1.109 0 00-.337.823v30.438c0 .688.498 1.191 1.185 1.191h1.833c.687 0 1.184-.5 1.184-1.19V37.976h16.537v27.717c0 .663.498 1.143 1.185 1.143h1.829a1.167 1.167 0 00.849-.32 1.083 1.083 0 00.337-.823V35.256c0-.688-.497-1.19-1.184-1.19zm25.422 2.935c-1.082-.947-2.441-1.699-4.036-2.233-1.574-.528-3.399-.795-5.419-.795a170.653 170.653 0 00-6.946.139c-.689 0-1.187.5-1.187 1.188v30.397c0 .663.498 1.143 1.187 1.143h1.831a1.167 1.167 0 00.847-.32c.111-.108.198-.236.256-.378a1.08 1.08 0 00.08-.445V55.456c.183.006.374.017.574.027.606.033 1.531.048 2.779.048a18.86 18.86 0 005.032-.663 12.87 12.87 0 004.275-2.04 10.083 10.083 0 002.939-3.48c.723-1.394 1.089-3.034 1.089-4.875 0-1.444-.275-2.823-.817-4.095a9.36 9.36 0 00-2.484-3.374v-.002zm-.9 7.566c0 1.299-.238 2.402-.712 3.279a6.038 6.038 0 01-1.927 2.145c-.829.564-1.797.98-2.881 1.23-1.128.261-2.344.394-3.616.394a118.11 118.11 0 01-3.351-.041V37.888c.312-.014.659-.03 1.048-.045 1.695-.062 4.296-.166 6.329.406 1.038.292 1.946.725 2.703 1.292a5.96 5.96 0 011.759 2.082c.429.83.648 1.822.648 2.945zm35.765-.8c-.692-2.025-1.71-3.804-3.022-5.287a14.468 14.468 0 00-4.773-3.532c-1.854-.863-3.97-1.3-6.29-1.3a15.172 15.172 0 00-5.951 1.17 13.954 13.954 0 00-4.806 3.365c-1.35 1.452-2.42 3.232-3.175 5.284-.759 2.042-1.14 4.366-1.14 6.914 0 2.382.338 4.618 1.008 6.654.676 2.061 1.689 3.873 2.996 5.38a14.026 14.026 0 004.828 3.59c1.891.864 4.053 1.297 6.433 1.297 2.076 0 4.056-.373 5.891-1.118a13.22 13.22 0 004.798-3.33c1.331-1.45 2.382-3.252 3.128-5.359.74-2.092 1.112-4.515 1.112-7.208a20.09 20.09 0 00-1.037-6.52zm-3.214 6.566c0 1.984-.247 3.817-.731 5.451-.481 1.606-1.191 2.99-2.106 4.114a9.236 9.236 0 01-3.326 2.578c-1.314.605-2.833.912-4.515.912-1.799 0-3.396-.35-4.742-1.036a10.137 10.137 0 01-3.429-2.79 12.604 12.604 0 01-2.111-4.155 17.322 17.322 0 01-.736-5.074c0-2.15.298-4.051.887-5.652.58-1.583 1.369-2.923 2.345-3.979a9.675 9.675 0 013.386-2.378 10.731 10.731 0 014.158-.81c1.616 0 3.105.322 4.43.953a10.17 10.17 0 013.423 2.643c.955 1.137 1.71 2.506 2.246 4.07.547 1.568.821 3.301.821 5.155" fill="#FF1635"/><path d="M106.759 73.846l-.479 1.028c-8.483 13.818-23.999 22.393-40.566 22.393-18.32 0-35.128-10.437-42.816-26.584l-5.825 2.92c8.8 18.198 27.894 29.956 48.641 29.956 18.334 0 35.118-8.873 45.081-23.777L319 79.778v-5.936l-212.241.004zm-1.595-46.827h7.626c-4.645-8.195-11.464-15.026-19.745-19.778C84.765 2.488 75.325-.013 65.715 0 44.966 0 25.872 11.758 17.076 29.958l5.821 2.92C30.584 16.725 47.391 6.29 65.714 6.29c15.878 0 30.775 7.896 39.454 20.727" fill="#0055A2"/></svg>