<svg width="169" height="149" fill="none" xmlns="http://www.w3.org/2000/svg"><path d="M162.094 17.128c3.854 2.238 3.877 5.834.048 8.058L60.698 84.139l-40.026-23.11 101.44-58.95c3.829-2.238 10.069-2.238 13.912 0l26.07 15.05z" fill="#C8C8C8"/><path d="M162.141 25.186L60.698 84.14l-.067 24.35 101.44-58.95c1.902-1.105 2.853-2.554 2.859-4.003l.07-24.35c.008 1.45-.957 2.895-2.859 4z" fill="#7A7A7A"/><path d="M60.698 84.139l-.07 24.352-40.026-23.11.067-24.353 40.03 23.11z" fill="#666"/><g filter="url(#filter0_d)"><path d="M162.141 25.186L60.698 84.14l-.067 24.35 101.44-58.95c1.902-1.105 2.853-2.554 2.859-4.003l.07-24.35c.008 1.45-.957 2.895-2.859 4z" fill="#B3B3B3"/></g><g filter="url(#filter1_d)"><path d="M60.698 84.139l-.07 24.352-40.026-23.11.067-24.353 40.03 23.11z" fill="#9C9C9C"/></g><path d="M29.538 101.001l-.05 17.28-28.876-16.67.05-17.282 28.876 16.672z" fill="#4D4D4D"/><path d="M.663 84.329L26.05 69.575 26 86.857.612 101.611l.05-17.282z" fill="#333"/><path d="M.612 101.611L26 86.857l28.875 16.67-25.388 14.754-28.875-16.67z" fill="#4D4D4D"/><path d="M.663 84.329L26.05 69.575l28.876 16.673L29.538 101 .663 84.329z" fill="#383839"/><path d="M29.538 101.001l25.387-14.753-.05 17.279-25.387 14.754.05-17.28z" fill="#3D3D3D"/><path d="M28.131 111.3l-.014 4.396-26.1-15.069.01-4.397 26.104 15.07z" fill="#D4D4D4"/><path d="M28.131 111.3l26.766-16.222-.022 5.068-26.758 15.55.014-4.396z" fill="#767676"/><path d="M2.028 96.23l28.789-16.728 24.081 15.576-26.766 16.221-26.104-15.07z" fill="#B3B3B3"/><path d="M55.538 85.842l-25.39 14.754L.053 83.222l25.39-14.754 30.095 17.374z" fill="#CCC"/><path d="M24.358 77.043l-9.563 5.558 5.18 2.992 9.563-5.557-5.18-2.993zm-4.388 7.98l-3.885-2.238-.305-.179 8.58-4.984 4.196 2.42-.308.178-8.278 4.803zM33.583 82.478l-9.563 5.557 5.18 2.993 9.562-5.56-5.18-2.99zm-4.389 7.98L25.31 88.22l-.305-.18 8.581-4.984 4.196 2.417-.31.179-8.277 4.805z" fill="#4E4F4F"/><path d="M15.964 95.313l-5.479 3.185-4.156-2.4 5.482-3.182 4.153 2.397zM22.294 98.652l-5.706 3.317-4.326-2.497 5.708-3.318 4.324 2.498zM28.23 101.891l-5.706 3.317-4.327-2.498 5.705-3.317 4.327 2.498zM34.161 105.133l-5.705 3.314-4.327-2.498 5.706-3.314 4.326 2.498z" fill="#4D4D4D"/><path d="M.053 83.219L0 102.014l30.097 17.374.053-18.792L.053 83.219zm29.435 35.062L.613 101.608l.05-17.279 28.875 16.672-.05 17.28z" fill="#D4D4D4"/><path d="M30.15 100.596l25.388-14.754-.053 18.793-25.387 14.753.053-18.792z" fill="#B3B3B3"/><path d="M24.358 77.617l-8.58 4.984.307.179 3.885 2.243 8.276-4.808.305-.18-4.193-2.418z" fill="#333"/><path d="M33.582 83.05l-8.58 4.985.304.179 3.888 2.243 8.276-4.81.308-.177-4.196-2.42z" fill="#B3B3B3"/><g style="mix-blend-mode:multiply"><path d="M28.55 80.036l-.304.179-3.888-2.243-8.273 4.808-.308-.18 8.581-4.983 4.193 2.419z" fill="#333" opacity=".22"/></g><g style="mix-blend-mode:multiply"><path d="M37.778 85.47l-.308.176-3.888-2.24-8.276 4.808-.305-.179 8.581-4.984 4.196 2.42z" fill="#333" opacity=".22"/></g><path d="M76.47 92.695c0 .044 0 .086.016.131.017.045 0 .084.017.126.017.042.017.087.025.131.009.045.017.081.028.123.011.042.026.087.037.132.01.045.022.08.036.123l.05.129c.014.041.03.083.048.123.017.042.04.086.059.128.02.042.036.081.056.12l.072.13c.023.038.042.078.067.117l.082.128.078.115c.028.042.061.084.095.129.033.044.053.075.084.112.03.036.073.083.109.125l.092.11.123.125c.034.037.065.07.101.104l.134.126.11.1.148.123.117.098.17.126.115.087c.067.047.137.092.207.137l.101.07c.106.067.215.134.33.198l24.411 14.094c3.605 2.084 9.44 2.084 13.023 0l18.47-10.737-37.478-21.634-18.46 10.734c-1.787 1.04-2.676 2.4-2.676 3.76v.133c0 .045 0 .082.003.124z" fill="#C8C8C8"/><g filter="url(#filter2_d)"><path d="M135.082 99.578l-.065 22.797-18.479 10.74c-1.773 1.032-4.103 1.553-6.433 1.561-2.38 0-4.754-.512-6.586-1.561L79.11 119.022c-1.815-1.049-2.724-2.425-2.718-3.798l.064-22.787v.258c0 .042 0 .086.017.131.017.045 0 .084.017.123.016.04.016.09.025.132.008.042.016.084.028.126l.036.128c0 .042.022.084.036.123l.05.132c.014.04.03.08.048.12.017.045.04.087.059.131.02.045.036.082.056.12l.073.13c.022.038.042.078.067.117l.08.129.08.114c.027.042.06.084.094.126.034.042.053.076.084.115.031.039.073.084.11.126l.092.109.123.125c.033.034.064.07.1.104l.135.126.109.1.148.124.117.095c.053.044.112.086.168.128.056.042.079.056.118.087l.207.137.1.07c.107.067.216.134.33.199l24.412 14.093c1.801 1.041 4.161 1.564 6.519 1.564 2.358 0 4.713-.523 6.503-1.564l18.485-10.737z" fill="#9C9C9C"/></g><g filter="url(#filter3_d)"><path d="M135.082 99.578l-.065 22.797-18.479 10.74c-1.773 1.032-4.103 1.553-6.433 1.561v-22.797c2.358 0 4.713-.524 6.503-1.564l18.474-10.737z" fill="#B3B3B3"/></g><defs><filter id="filter0_d" x="56.631" y="21.186" width="112.369" height="101.302" filterUnits="userSpaceOnUse" color-interpolation-filters="sRGB"><feFlood flood-opacity="0" result="BackgroundImageFix"/><feColorMatrix in="SourceAlpha" values="0 0 0 0 0 0 0 0 0 0 0 0 0 0 0 0 0 0 127 0"/><feOffset dy="10"/><feGaussianBlur stdDeviation="2"/><feColorMatrix values="0 0 0 0 0 0 0 0 0 0 0 0 0 0 0 0 0 0 0.25 0"/><feBlend in2="BackgroundImageFix" result="effect1_dropShadow"/><feBlend in="SourceGraphic" in2="effect1_dropShadow" result="shape"/></filter><filter id="filter1_d" x="16.602" y="61.028" width="48.096" height="61.463" filterUnits="userSpaceOnUse" color-interpolation-filters="sRGB"><feFlood flood-opacity="0" result="BackgroundImageFix"/><feColorMatrix in="SourceAlpha" values="0 0 0 0 0 0 0 0 0 0 0 0 0 0 0 0 0 0 127 0"/><feOffset dy="10"/><feGaussianBlur stdDeviation="2"/><feColorMatrix values="0 0 0 0 0 0 0 0 0 0 0 0 0 0 0 0 0 0 0.25 0"/><feBlend in2="BackgroundImageFix" result="effect1_dropShadow"/><feBlend in="SourceGraphic" in2="effect1_dropShadow" result="shape"/></filter><filter id="filter2_d" x="72.392" y="92.437" width="66.69" height="56.239" filterUnits="userSpaceOnUse" color-interpolation-filters="sRGB"><feFlood flood-opacity="0" result="BackgroundImageFix"/><feColorMatrix in="SourceAlpha" values="0 0 0 0 0 0 0 0 0 0 0 0 0 0 0 0 0 0 127 0"/><feOffset dy="10"/><feGaussianBlur stdDeviation="2"/><feColorMatrix values="0 0 0 0 0 0 0 0 0 0 0 0 0 0 0 0 0 0 0.25 0"/><feBlend in2="BackgroundImageFix" result="effect1_dropShadow"/><feBlend in="SourceGraphic" in2="effect1_dropShadow" result="shape"/></filter><filter id="filter3_d" x="106.105" y="99.578" width="32.976" height="49.098" filterUnits="userSpaceOnUse" color-interpolation-filters="sRGB"><feFlood flood-opacity="0" result="BackgroundImageFix"/><feColorMatrix in="SourceAlpha" values="0 0 0 0 0 0 0 0 0 0 0 0 0 0 0 0 0 0 127 0"/><feOffset dy="10"/><feGaussianBlur stdDeviation="2"/><feColorMatrix values="0 0 0 0 0 0 0 0 0 0 0 0 0 0 0 0 0 0 0.25 0"/><feBlend in2="BackgroundImageFix" result="effect1_dropShadow"/><feBlend in="SourceGraphic" in2="effect1_dropShadow" result="shape"/></filter></defs></svg>