<svg xmlns="http://www.w3.org/2000/svg" width="168" height="180" fill="none"><g clip-path="url(#a)"><path fill="#EE3939" d="M165.086 97.442c0 38.201-25.95 70.337-61.183 79.752-1.194.32-2.395.612-3.602.876l-.177.035a82.556 82.556 0 0 1-69.367-16.369A82.539 82.539 0 0 1 0 97.442c0-45.591 36.955-82.55 82.546-82.55 45.591 0 82.54 36.959 82.54 82.55Z"/><path fill="#807066" d="M63.11 25.454c.696 3.125-.755 6.116-3.24 6.663-2.485.547-5.064-1.529-5.762-4.658-.699-3.128.753-6.115 3.241-6.663 2.488-.547 5.062 1.532 5.761 4.658Z"/><path fill="#807066" d="M74.293 38.303c-11.205-1.893-16.79-10.89-17.021-11.266l1.02-.621c.055.087 5.55 8.913 16.2 10.715l-.199 1.172Z"/><path fill="#807066" d="M76.624 38.223a1.8 1.8 0 1 1-3.599 0 1.8 1.8 0 0 1 3.599 0Z"/><path fill="#EEA886" d="M146.098 91.817s1.05-5.447 1.236-6.274c.187-.828 2.06-2.53 4.468-3.815 2.337-1.245 5.417-3.34 5.865-3.197.447.145.907.069 1.638 1.03a4.57 4.57 0 0 1 .811 2.176s1.455.767 1.448 2.255a2.432 2.432 0 0 1 1.05 2.49s1.287.799.965 2.022c0 0-1.718 1.631-2.182 2.42-.463.79-4.274 3.938-8.394 6.392.003.016-4.677 1.02-6.905-5.5Z"/><path fill="#EEA886" d="M153.006 97.332s-5.292 2.334-7.433 1.72c-2.14-.616-1.351-6.79-1.351-6.79l2.977-2.98 5.807 8.05Z"/><path fill="#ECECEC" d="M99.216 100.642c4.378-2.418.1-8.765.077-8.987.152.322 1.246 4.345 2.685 9.302 2.424 8.369 5.819 19.445 7.268 19.976 2.105.776 34.515-18.521 40.138-22.01l-3.46-9.067-30.9 14.507-15.499-40.808c-.354-.284-2.765-2.675-5.794-4.12-3.103-1.478-6.843-3.647-10.229-5.505-1.725-.943-3.36-1.805-4.77-2.452l-.216-.1-3.888-1.777-1.014-.096c-3.258-.322-13.378-1.259-16.77-1.455-.28-.02-.515-.03-.695-.036-.18-.006-.27 0-.342 0-.428.026-2.513.753-5.256 1.796l-.322.12-.39.148-.723.28-1.507.59-.534.211c-5.472 2.176-11.775 4.87-13.268 5.942-.985.708-4.059 6.502-7.625 13.667-4.59 14.704-10.407 37.213-10.59 42.762v.251c0 .644 1.21 3.199 3.138 6.882 2.82-5.64 5.037-10.275 5.762-11.978 2.375-5.613 14.623-18.479 14.623-18.479a.103.103 0 0 0 0 .026v.055l.032.11a.5.5 0 0 1 0 .067v.051c.666 2.485 4.76 18.026 4.912 25.664.164 8.324 2.337 23.729 2.337 23.729l2.575.357 5.655.798.68.097 1.647.228 15.003 2.112 5.324.75.718.103 3.042.425 8.4 1.181 2.141.303h.02l1.609.225 2.218.322c.06-.081 2.156-2.952 1.831-9.335.042.045-6.409-32.22 1.957-36.832Z"/><path fill="#EEA886" d="M67.36 5.426s17.034-5.472 15 16.764c-2.036 22.235-6.066 24.31-16.95 20.713C54.523 39.304 54.224 25.2 53.088 18.385 51.95 11.571 61.836 6.157 67.36 5.426Z"/><path fill="#EEA886" d="M76.301 54.133s-6.972 8.84-19.792 2.498c0 0 1.155-17.922-1.04-26.394-2.195-8.472 17.06 11.942 17.06 11.942-.219.141-.296.965-.229 2.147.08 1.173.244 2.34.493 3.49.595 2.815 1.764 5.761 3.508 6.317Z"/><path fill="#3A3F47" d="M54.929 29.532s-.161-6.93 2.336-7.368c2.498-.438 3.13 2.302 3.13 2.302l2.574.257s-1.336-5.97 1.082-7.249c2.417-1.277 16.58 1.887 18.44-.064 1.86-1.95-.174-14.12-3.972-15.473-3.798-1.352-14.204-4.22-21.144 1.43 0 0-5.813-.149-6.258 4.573-.444 4.722 1.941 18.277 3.812 21.592Z"/><path fill="#A77860" d="M72.787 47.8c-12.892-2.76-14.504-10.234-14.53-10.35 4.76 6.737 14.037 6.86 14.037 6.86.08 1.173.244 2.34.493 3.49Z"/><path fill="#CF8C6C" d="M152.787 87.647s.582 2.727.36 3.573c-.222.847 5.572.644 5.572.644s-2.607-4.838-5.932-4.217Z"/><path fill="#DB9C7C" d="M157.032 78.938s-5.311 4.425-4.706 5.368c.605.944 1.404.924 1.404.924l-1.362 2.813s.151 2.373 2.691 1.513c0 0-.087 2.23 2.253 1.108 0 0 .596 1.5 1.777 1.17 1.181-.327 4.481-3.314 4.481-3.314s.595-1.053-.786-2.128c0 0 .422-1.61-.998-2.468 0 0-.247-1.932-1.792-2.865 0 0-.4-2.105-2.398-2.546.012 0-.342.235-.564.425Z"/><path fill="#EEA886" d="M147.489 85.385s4.628-1.04 7.403-.5c.644.123 1.213.355 1.336.986.122.63-.644 1.609-2.614 2.16-1.97.55-4.291 2.175-4.291 2.175s-2.201-.029-1.834-4.821Z"/><path fill="#2D3133" d="M100.301 178.07a82.798 82.798 0 0 1-58.81-9.013c.691-8.81 1.966-16.76 4.106-22.705 4.97-13.841 51.327 7.548 51.327 7.548s1.59 11.546 3.377 24.17Z"/><path fill="#495055" d="M95.466 146.847s1.13 1.352 1.46 7.082c0 0-46.423-5.414-51.328-7.548 0 0-.194-6.303.846-6.412 1.146-.132 49.022 6.878 49.022 6.878Z"/><path fill="#2D3133" d="M57.053 141.073s-1.014 6.389-1.1 8.047l-2.15-.428s.592-6.759.94-7.892l2.31.273Zm34.541 5.027s.815 5.794.834 8.002l-2.273-.296s-.463-7.252-.724-8.008l2.163.302Z"/><path fill="url(#b)" d="M56.796 57.816a91.246 91.246 0 0 0-6.229-7.957l-.032-.033-.322.123-.386.145-.727.28-1.507.59-.534.211c-5.64 2.211-16.97 6.055-18.463 7.127-.863.617-2.466 8.39-4.693 15.533-4.59 14.704-8.192 34.174-8.324 39.711v.251c0 .644 1.207 3.199 3.135 6.882 2.984 5.69 7.69 14.062 12.338 22.18a170.88 170.88 0 0 0-2.453 4.729 60.834 60.834 0 0 0-2.849 6.515c-1.058 2.967-2.53 10.567.287 11.977l14.848 8.198c1.61-5.427 14.63-33.382 14.63-33.382 4.29-7.832 9.128-14.379 10.67-23.98.148-.927.29-1.851.425-2.765.222-1.523.428-3.029.615-4.506.07-.557.141-1.111.206-1.658.772-6.406 1.236-12.116 1.61-16.094 1.164-12.39-6.422-25.792-12.245-34.078v.001ZM38.9 127.464s-6.038-10.21-6.466-16.117c-.715-9.798 6.68-21.099 6.68-21.099v.055c.011.036.022.072.031.11a.5.5 0 0 1 0 .067.434.434 0 0 1 0 .051c1.48 5.833 2.09 27.36 2.09 27.36.27 5.932-2.335 9.573-2.335 9.573Zm109.706-26.784c-.321 1.742-38.409 22.02-40.756 21.154-.531-.193-1.426-1.802-2.504-4.184s-2.327-5.53-3.567-8.797a496.11 496.11 0 0 1-2.668-7.233.727.727 0 0 0-.05-.138c-5.7 30.108.926 48.955 7.743 70.942.383 1.243-.621 2.662-1.58 3.541l-1.32 1.22a77.73 77.73 0 0 1-3.602.875l-.177.036c-2.083-9.032-9.334-40.21-11.76-61.94-1.653-14.739-5.493-50.602-9.854-64.768l.22.103c4.161 1.931 20.232 9.26 21.59 10.335l15.991 40.779 27.814-13.29c1.654 3.843 4.48 11.365 4.48 11.365Z"/><path fill="#1DBBBA" d="m54.453 67.916 6.862 3.863-2.932 2.99 7.809 42.166c1.59-9.878 2.314-19.261 2.851-25.016 1.797-19.15-17.317-40.75-18.503-42.073-.921.347-1.912.734-2.936 1.136l6.849 16.934ZM76.46 50.458s4.615 9.312 7.602 30.21c1.146 8.048 2.756 21.699 4.3 35.492l1.61-39.476-3.27-3.54 2.897-3.634-6.972-16.223-3.895-1.793-2.272-1.036Z"/><path fill="#fff" d="m50.194 49.91 6.618-3.454s1.57 5.417 13.32 11.266L66.13 68.988 50.194 49.91Zm22.593-2.11s.872 3.594-2.656 9.926l7.81 10.18-1.48-17.448-3.674-2.659Z"/><path fill="#495055" d="M70.112 57.725s-1.513 6.055-.966 7.75c0 0 3.328 1.21 5.72-.301-.003 0-1.696-4.24-4.754-7.45Z"/><path fill="#AD9F99" d="M77.933 145.038c.847-4.274.042-17.059 0-17.616l-.724.048c0 .132.834 13.246 0 17.427l.724.141Z"/><path fill="#EE3838" d="M72.008 143.068s6.83.815 9.09 1.378l-.296 7.654-8.946-.965.152-8.067Z"/><path fill="#495055" d="M73.504 64.626s7.616 19.24 6.374 40.773c-1.288 22.325-3.4 30.421-3.4 30.421l-4.699 5.89-2.07-7.242s6.303-28.464 2.234-56.159c-.737-5.018-1.831-14.53-1.831-14.53l3.392.847Z"/><path fill="#1DBBBA" d="M101.778 108.856a463.067 463.067 0 0 1-2.668-7.233c0-.048-.032-.093-.048-.138 0 0 .038-4.59-.219-9.753-.238-4.896-.74-10.3-1.78-12.834.135.232 4.558 7.82 4.922 22.078a76.73 76.73 0 0 1-.207 7.88Z"/><path fill="#EEA886" d="M51.105 156.481s1.635 3.267 3.27 3.811c1.636.544 4.017 3.219 4.017 3.219l-11.51 6.061s-3.064-5.993-3.2-9.808c-.135-3.814 7.423-3.283 7.423-3.283Z"/><path fill="#DECBC4" d="m51.704 155.789.763 1.532s-7.3 5.321-9.28 5.688l-.676-2.044 9.193-5.176Z"/><path fill="#5FA8F6" d="m38.9 127.464 14.097 27.933-11.182 6.437-10.757-18.991s.898-12.621 7.841-15.379h.001Z"/><path fill="#EEA886" d="M160.007 81.058s-6.319 4.07-6.647 4.758c-.328.688-1.835-1.61-1.516-2.18.318-.57 4.979-4.754 5.53-5.056.55-.303 2.922.57 2.633 2.478Z"/><path fill="#EEA886" d="M156.163 79.182s10.187-4.854 10.731-3.599c.544 1.256-.444 1.732-8.604 6.473-7.934 4.61-2.127-2.874-2.127-2.874Z"/><path fill="#1DBBBA" d="m40.776 160.009-12.17-12.422c.765-1.548 1.609-3.128 2.452-4.728l9.718 17.15Z"/><path fill="#807066" d="M63.11 25.454c.696 3.125-.755 6.116-3.24 6.663-2.485.547-5.064-1.529-5.762-4.658-.699-3.128.753-6.115 3.241-6.663 2.488-.547 5.062 1.532 5.761 4.658Z"/><path fill="#807066" d="M68.86 38C61.054 36.09 57.162 27.007 57 26.627l.711-.627c.038.088 3.867 8.998 11.289 10.817L68.86 38Z"/><path fill="#807066" d="M71.599 37.8a1.799 1.799 0 1 1-3.597.085A1.799 1.799 0 0 1 71.6 37.8Z"/><path stroke="#3A3F47" stroke-linecap="round" stroke-linejoin="round" stroke-width=".36" d="m73.9 26.727 1.19 2.98-2.09.882"/><path fill="#3A3F47" d="M67 25.29c-.002.258.08.51.236.725.156.215.379.383.64.483.26.1.549.127.827.078a1.48 1.48 0 0 0 .734-.354 1.27 1.27 0 0 0 .395-.665 1.19 1.19 0 0 0-.08-.753 1.334 1.334 0 0 0-.527-.584 1.534 1.534 0 0 0-.795-.22c-.378 0-.74.136-1.008.378-.268.241-.42.569-.422.912Zm10-.09c0 .237.077.469.222.666.145.198.351.351.593.442.24.09.506.115.762.068a1.36 1.36 0 0 0 .676-.328 1.17 1.17 0 0 0 .361-.614 1.097 1.097 0 0 0-.075-.693c-.1-.22-.269-.407-.486-.539a1.416 1.416 0 0 0-1.664.152A1.158 1.158 0 0 0 77 25.2Z"/><path fill="#fff" d="M76.89 34.642s-5 .146-7.89-1.554c0 0 2.3 5.026 7.89 1.554Z"/></g><defs><linearGradient id="b" x1="148.605" x2="-5.969" y1="178.096" y2="141.934" gradientUnits="userSpaceOnUse"><stop offset=".014" stop-color="#1DBBBA"/><stop offset="1" stop-color="#65B3FB"/></linearGradient><clipPath id="a"><path fill="#fff" d="M0 0h168v180H0z"/></clipPath></defs></svg>