<svg xmlns="http://www.w3.org/2000/svg" width="169" height="149" fill="none"><g clip-path="url(#a)"><path fill="url(#b)" d="M162.094 17.128c3.854 2.238 3.877 5.834.048 8.058L60.698 84.139l-40.026-23.11 101.44-58.95c3.829-2.238 10.069-2.238 13.912 0l26.07 15.049Z"/><path fill="#7A7A7A" d="M162.141 25.186 60.698 84.139l-.067 24.351 101.44-58.95c1.902-1.105 2.853-2.554 2.859-4.004l.07-24.35c.008 1.45-.957 2.895-2.859 4Z"/><path fill="#666" d="m60.698 84.14-.07 24.351-40.026-23.11.067-24.353 40.03 23.11-.001.001Z"/><g filter="url(#c)"><path fill="#5FA8F6" d="M162.141 25.186 60.698 84.139l-.067 24.351 101.44-58.95c1.902-1.105 2.853-2.554 2.859-4.004l.07-24.35c.008 1.45-.957 2.895-2.859 4Z"/></g><g filter="url(#d)"><path fill="#1DBBBA" d="m60.698 84.14-.07 24.351-40.026-23.11.067-24.353 40.03 23.11-.001.001Z"/></g><path fill="#4D4D4D" d="m29.538 101.001-.05 17.28-28.876-16.67.05-17.282 28.876 16.672Z"/><path fill="#333" d="M.663 84.33 26.05 69.574 26 86.857.612 101.611l.051-17.282Z"/><path fill="#4D4D4D" d="M.612 101.611 26 86.857l28.875 16.67-25.388 14.754-28.875-16.67Z"/><path fill="#383839" d="M.663 84.33 26.05 69.574l28.876 16.673L29.538 101 .663 84.33Z"/><path fill="#3D3D3D" d="m29.538 101.001 25.387-14.753-.05 17.279-25.388 14.754.051-17.28Z"/><path fill="#D4D4D4" d="m28.131 111.3-.014 4.396-26.1-15.069.01-4.396L28.131 111.3Z"/><path fill="#767676" d="m28.131 111.3 26.766-16.222-.022 5.068-26.758 15.55.014-4.396Z"/><path fill="#B3B3B3" d="m2.028 96.23 28.789-16.728 24.081 15.576-26.766 16.221-26.104-15.07v.001Z"/><path fill="#CCC" d="m55.538 85.842-25.39 14.754L.053 83.222l25.39-14.754 30.095 17.374Z"/><path fill="#4E4F4F" d="m24.358 77.043-9.563 5.558 5.18 2.992 9.563-5.557-5.18-2.993Zm-4.388 7.98-3.885-2.238-.305-.179 8.58-4.984 4.196 2.42-.308.178-8.278 4.803Zm13.612-2.545-9.563 5.557 5.18 2.993 9.563-5.56-5.18-2.99Zm-4.388 7.98-3.885-2.238-.305-.18 8.58-4.984 4.196 2.417-.31.179-8.276 4.806Z"/><path fill="#4D4D4D" d="m15.964 95.313-5.479 3.185-4.156-2.4 5.482-3.182 4.153 2.397Zm6.33 3.339-5.706 3.317-4.326-2.497 5.708-3.318 4.324 2.498Zm5.935 3.239-5.706 3.317-4.327-2.498 5.706-3.317 4.327 2.498Zm5.932 3.242-5.705 3.314-4.327-2.498 5.706-3.314 4.326 2.498Z"/><path fill="#D4D4D4" d="M.053 83.219 0 102.014l30.097 17.374.053-18.792L.053 83.219Zm29.435 35.062L.613 101.608l.05-17.28 28.875 16.673-.05 17.28Z"/><path fill="#B3B3B3" d="m30.15 100.596 25.388-14.754-.053 18.793-25.387 14.753.052-18.792Z"/><path fill="#333" d="m24.358 77.617-8.58 4.984.307.18 3.885 2.242 8.276-4.808.305-.18-4.193-2.418Z"/><path fill="#B3B3B3" d="m33.582 83.05-8.58 4.985.304.179 3.888 2.243 8.276-4.81.308-.177-4.196-2.42Z"/><path fill="#333" d="m28.55 80.036-.304.18-3.888-2.244-8.273 4.808-.308-.18 8.581-4.983 4.193 2.42h-.001ZM37.778 85.47l-.308.176-3.888-2.24-8.276 4.808-.305-.18 8.581-4.983 4.196 2.419Z" opacity=".22" style="mix-blend-mode:multiply"/><path fill="url(#e)" d="M76.47 92.695c0 .044 0 .086.016.131.017.045 0 .084.017.126.017.042.017.087.025.131.009.045.017.081.028.123.011.042.026.087.037.132.01.045.022.08.036.123l.05.13c.014.04.03.082.048.122.017.042.04.086.059.128.02.042.036.081.056.12l.072.13c.023.038.042.078.067.117l.082.128.078.115c.028.042.061.084.095.13.033.043.053.074.084.111.03.036.073.083.109.125l.092.11.123.125c.034.037.065.07.101.104l.134.126.11.1.148.123.117.098.17.126.115.087c.067.047.137.092.207.137l.101.07c.106.067.215.134.33.198l24.411 14.094c3.605 2.084 9.44 2.084 13.023 0l18.47-10.737-37.478-21.634-18.46 10.734c-1.787 1.04-2.676 2.4-2.676 3.76v.133c0 .045 0 .082.003.124Z"/><g filter="url(#f)"><path fill="#1DBBBA" d="m135.082 99.578-.065 22.797-18.479 10.74c-1.773 1.032-4.103 1.553-6.433 1.561-2.38 0-4.754-.512-6.586-1.561L79.11 119.022c-1.815-1.049-2.724-2.425-2.718-3.798l.064-22.788v.258c0 .043 0 .087.017.132.017.045 0 .084.017.123.016.04.016.09.025.132.008.041.016.084.028.126l.036.128c0 .041.022.084.036.123l.05.132c.014.04.03.08.048.12.017.044.04.087.059.13.02.045.036.082.056.12l.073.13c.022.038.042.078.067.117l.08.13.08.114c.027.042.06.084.094.126.034.041.053.076.084.115.031.039.073.084.11.126l.092.109.123.124c.033.034.064.07.1.105l.135.125.109.1.148.124.117.096c.053.043.112.085.168.127.056.043.079.056.118.088l.207.136.1.07c.107.067.216.134.33.2l24.412 14.093c1.801 1.041 4.161 1.564 6.519 1.564 2.358 0 4.713-.523 6.503-1.564l18.485-10.737Z"/></g><g filter="url(#g)"><path fill="#5FA8F6" d="m135.082 99.578-.065 22.797-18.479 10.74c-1.773 1.032-4.103 1.553-6.433 1.561v-22.797c2.358 0 4.713-.524 6.503-1.564l18.474-10.737Z"/></g></g><defs><filter id="c" width="112.369" height="101.303" x="56.631" y="21.186" color-interpolation-filters="sRGB" filterUnits="userSpaceOnUse"><feFlood flood-opacity="0" result="BackgroundImageFix"/><feColorMatrix in="SourceAlpha" result="hardAlpha" values="0 0 0 0 0 0 0 0 0 0 0 0 0 0 0 0 0 0 127 0"/><feOffset dy="10"/><feGaussianBlur stdDeviation="2"/><feColorMatrix values="0 0 0 0 0 0 0 0 0 0 0 0 0 0 0 0 0 0 0.25 0"/><feBlend in2="BackgroundImageFix" result="effect1_dropShadow_1140_13354"/><feBlend in="SourceGraphic" in2="effect1_dropShadow_1140_13354" result="shape"/></filter><filter id="d" width="48.097" height="61.463" x="16.602" y="61.028" color-interpolation-filters="sRGB" filterUnits="userSpaceOnUse"><feFlood flood-opacity="0" result="BackgroundImageFix"/><feColorMatrix in="SourceAlpha" result="hardAlpha" values="0 0 0 0 0 0 0 0 0 0 0 0 0 0 0 0 0 0 127 0"/><feOffset dy="10"/><feGaussianBlur stdDeviation="2"/><feColorMatrix values="0 0 0 0 0 0 0 0 0 0 0 0 0 0 0 0 0 0 0.25 0"/><feBlend in2="BackgroundImageFix" result="effect1_dropShadow_1140_13354"/><feBlend in="SourceGraphic" in2="effect1_dropShadow_1140_13354" result="shape"/></filter><filter id="f" width="66.69" height="56.239" x="72.392" y="92.436" color-interpolation-filters="sRGB" filterUnits="userSpaceOnUse"><feFlood flood-opacity="0" result="BackgroundImageFix"/><feColorMatrix in="SourceAlpha" result="hardAlpha" values="0 0 0 0 0 0 0 0 0 0 0 0 0 0 0 0 0 0 127 0"/><feOffset dy="10"/><feGaussianBlur stdDeviation="2"/><feColorMatrix values="0 0 0 0 0 0 0 0 0 0 0 0 0 0 0 0 0 0 0.25 0"/><feBlend in2="BackgroundImageFix" result="effect1_dropShadow_1140_13354"/><feBlend in="SourceGraphic" in2="effect1_dropShadow_1140_13354" result="shape"/></filter><filter id="g" width="32.977" height="49.098" x="106.105" y="99.578" color-interpolation-filters="sRGB" filterUnits="userSpaceOnUse"><feFlood flood-opacity="0" result="BackgroundImageFix"/><feColorMatrix in="SourceAlpha" result="hardAlpha" values="0 0 0 0 0 0 0 0 0 0 0 0 0 0 0 0 0 0 127 0"/><feOffset dy="10"/><feGaussianBlur stdDeviation="2"/><feColorMatrix values="0 0 0 0 0 0 0 0 0 0 0 0 0 0 0 0 0 0 0.25 0"/><feBlend in2="BackgroundImageFix" result="effect1_dropShadow_1140_13354"/><feBlend in="SourceGraphic" in2="effect1_dropShadow_1140_13354" result="shape"/></filter><linearGradient id="b" x1="164.999" x2="11.342" y1="84.139" y2="24.397" gradientUnits="userSpaceOnUse"><stop offset=".014" stop-color="#1DBBBA"/><stop offset="1" stop-color="#65B3FB"/></linearGradient><linearGradient id="e" x1="135.081" x2="72.714" y1="111.878" y2="87.577" gradientUnits="userSpaceOnUse"><stop offset=".014" stop-color="#1DBBBA"/><stop offset="1" stop-color="#65B3FB"/></linearGradient><clipPath id="a"><path fill="#fff" d="M0 0h169v149H0z"/></clipPath></defs></svg>