<svg width="498" height="497" viewBox="0 0 498 497" fill="none" xmlns="http://www.w3.org/2000/svg">
<path d="M99.2845 53.8291L99.3673 53.9947L113.285 97.7993L53.9687 104.424L99.2845 53.8291ZM113.119 97.7165L99.2845 54.1603L54.3829 104.258L113.119 97.7165Z" fill="#00344A"/>
<path d="M159.68 48.9434L159.514 49.109L113.121 97.9648L113.121 97.7992L99.2034 53.9946L99.2862 53.9946L159.68 48.9434ZM113.204 97.6336L159.348 49.109L99.4519 54.0774L113.204 97.6336Z" fill="#00344A"/>
<path d="M122.398 129.184L122.233 129.267L43.365 169.842L43.365 169.676L54.052 104.342L54.1348 104.342L122.398 129.184ZM43.6135 169.511L122.067 129.184L54.3005 104.507L43.6135 169.511Z" fill="#00344A"/>
<path d="M113.286 97.7176L122.398 129.35L122.233 129.267L53.8863 104.342L54.2177 104.342L113.286 97.7176ZM122.067 129.101L113.12 97.8832L54.4662 104.425L122.067 129.101Z" fill="#00344A"/>
<path d="M271.434 2.32399L271.351 2.48962L209.715 106.246L209.632 106.163L159.345 48.944L159.428 48.944L271.434 2.32399ZM209.715 105.998L271.019 2.65521L159.594 49.0268L209.715 105.998Z" fill="#00344A"/>
<path d="M159.513 48.8612L209.965 106.246L209.799 106.246L113.12 97.8826L113.203 97.7998L159.513 48.8612ZM209.551 106.08L159.513 49.1096L113.368 97.717L209.551 106.08Z" fill="#00344A"/>
<path d="M210.211 106.08L209.797 106.163L122.23 129.266L122.23 129.183L113.2 97.6336L113.283 97.6336L210.211 106.08ZM122.23 129.1L209.217 106.163L113.2 97.7992L122.23 129.1Z" fill="#00344A"/>
<path d="M122.313 129.019L122.313 129.184L118.502 212.984L118.419 212.902L43.362 169.677L122.313 129.019ZM118.336 212.736L122.064 129.35L43.6105 169.677L118.336 212.736Z" fill="#00344A"/>
<path d="M209.965 105.998L209.799 106.163L118.339 213.066L118.339 212.818L122.15 129.101L122.233 129.101L209.965 105.998ZM118.505 212.57L209.551 106.246L122.316 129.183L118.505 212.57Z" fill="#00344A"/>
<path d="M271.27 2.32399L271.353 2.48961L301.84 96.6405L301.757 96.6405L209.634 106.246L209.717 106.08L271.27 2.32399ZM301.508 96.4749L271.187 2.73802L209.883 106.08L301.508 96.4749Z" fill="#00344A"/>
<path d="M209.717 105.914L209.882 106.163L272.016 215.384L271.933 215.384L198.036 259.852L198.036 259.686L209.717 105.914ZM271.684 215.219L209.8 106.411L198.201 259.52L271.684 215.219Z" fill="#00344A"/>
<path d="M270.936 1.82787L271.267 2.49033L346.738 132.248L301.588 96.6413L270.936 1.82787ZM346.158 131.586L271.516 3.15278L301.671 96.4757L346.158 131.586Z" fill="#00344A"/>
<path d="M346.574 131.916L317.165 174.893L317.165 174.727L301.59 96.3921L301.756 96.5577L346.574 131.916ZM317.247 174.479L346.326 131.916L301.756 96.8061L317.247 174.479Z" fill="#00344A"/>
<path d="M301.671 96.4756L317.246 174.811L317.08 174.728L209.466 106.081L209.714 106.081L301.671 96.4756ZM317.08 174.479L301.589 96.6412L209.963 106.164L317.08 174.479Z" fill="#00344A"/>
<path d="M317.328 174.644L271.847 215.385L209.548 105.915L209.796 106.08L317.328 174.644ZM271.847 215.136L317.08 174.644L209.962 106.329L271.847 215.136Z" fill="#00344A"/>
<path d="M317.247 174.478L325.117 281.133L271.683 215.219L271.766 215.136L317.247 174.478ZM324.952 280.719L317.164 174.892L271.931 215.302L324.952 280.719Z" fill="#00344A"/>
<path d="M271.848 215.137L325.199 281.051L325.034 281.051L197.868 259.769L198.033 259.687L271.848 215.137ZM324.868 280.802L271.848 215.385L198.365 259.604L324.868 280.802Z" fill="#00344A"/>
<path d="M325.199 280.885L325.116 280.968L270.936 355.162L270.853 355.079L197.951 259.521L198.116 259.521L325.199 280.885ZM270.853 354.914L324.868 280.968L198.199 259.769L270.853 354.914Z" fill="#00344A"/>
<path d="M121.07 142.515L120.987 142.68L105.33 186.236L105.247 186.154L53.8008 155.267L53.9665 155.267L121.07 142.515ZM105.247 185.988L120.822 142.68L54.2979 155.35L105.247 185.988Z" fill="#00344A"/>
<path d="M172.352 175.388L172.186 175.388L105.165 186.07L105.248 185.905L120.905 142.349L120.988 142.431L172.352 175.388ZM105.413 185.987L171.937 175.305L120.988 142.68L105.413 185.987Z" fill="#00344A"/>
<path d="M54.0506 155.185L93.4844 216.793L5.42098 201.06L5.5038 200.977L54.0506 155.185ZM93.153 216.627L54.0506 155.433L5.75237 200.977L93.153 216.627Z" fill="#00344A"/>
<path d="M105.414 186.07L93.3188 216.957L93.236 216.791L53.8021 155.101L105.414 186.07ZM93.3188 216.543L105.248 186.07L54.2992 155.515L93.3188 216.543Z" fill="#00344A"/>
<path d="M290.238 206.442L177.322 251.902L177.322 251.82L172.102 175.306L172.185 175.306L290.238 206.442ZM177.487 251.654L289.741 206.442L172.268 175.472L177.487 251.654Z" fill="#00344A"/>
<path d="M172.269 175.306L172.269 175.388L177.488 251.984L177.323 251.819L105.082 185.988L105.248 185.988L172.269 175.306ZM177.323 251.57L172.103 175.471L105.497 186.153L177.323 251.57Z" fill="#00344A"/>
<path d="M105.246 185.905L177.734 251.984L93.2333 216.792L93.2333 216.709L105.246 185.905ZM176.989 251.488L105.328 186.153L93.399 216.626L176.989 251.488Z" fill="#00344A"/>
<path d="M93.4844 216.626L93.4016 216.709L39.1386 281.381L5.50381 200.81L5.66951 200.81L93.4844 216.626ZM39.1386 281.132L93.153 216.709L5.75238 201.059L39.1386 281.132Z" fill="#00344A"/>
<path d="M177.652 251.818L177.404 251.901L38.8883 281.463L93.2341 216.625L93.3169 216.625L177.652 251.818ZM39.3025 281.132L177.072 251.735L93.2341 216.791L39.3025 281.132Z" fill="#00344A"/>
<path d="M290.156 205.779L290.073 206.525L271.019 356.404L270.936 355.99L256.687 300.344L290.156 205.779ZM270.936 355.493L289.742 207.187L256.77 300.262L270.936 355.493Z" fill="#00344A"/>
<path d="M256.77 300.096L256.852 300.344L271.102 356.073L271.019 356.073L221.229 372.469L256.77 300.096ZM270.853 355.825L256.687 300.51L221.478 372.138L270.853 355.825Z" fill="#00344A"/>
<path d="M177.325 251.404L177.407 251.735L221.48 372.302L160.176 377.021L160.176 376.939L177.325 251.404ZM221.315 372.136L177.49 252.067L160.341 376.856L221.315 372.136Z" fill="#00344A"/>
<path d="M221.563 372.137L221.48 372.303L162.66 462.23L162.66 461.982L160.258 376.857L160.341 376.857L221.563 372.137ZM162.743 461.734L221.231 372.303L160.341 377.023L162.743 461.734Z" fill="#00344A"/>
<path d="M160.34 376.858L162.742 462.148L162.577 461.983L73.9332 367.252L74.1817 367.252L160.34 376.858ZM162.577 461.817L160.174 377.023L74.3474 367.501L162.577 461.817Z" fill="#00344A"/>
<path d="M74.102 367.251L74.2676 367.417L162.828 462.065L162.745 462.065L74.0191 488.314L74.0191 488.232L74.102 367.251ZM162.497 461.982L74.2676 367.583L74.1848 488.066L162.497 461.982Z" fill="#00344A"/>
<path d="M323.212 279.31C324.124 278.316 325.698 278.233 326.692 279.144C327.686 280.055 327.769 281.628 326.857 282.622C325.946 283.616 324.372 283.698 323.378 282.787C322.384 281.877 322.301 280.303 323.212 279.31Z" fill="#00344A"/>
<path d="M315.345 173.069C316.256 172.076 317.83 171.993 318.825 172.904C319.819 173.815 319.902 175.388 318.99 176.382C318.079 177.375 316.505 177.458 315.511 176.547C314.517 175.636 314.434 174.063 315.345 173.069Z" fill="#00344A"/>
<path d="M196.628 257.117C198.285 255.296 201.185 255.13 203.007 256.786C204.83 258.442 204.995 261.34 203.339 263.162C201.682 264.984 198.782 265.15 196.96 263.493C195.137 261.837 194.971 259.022 196.628 257.117Z" fill="#00344A"/>
<path d="M156.117 45.9611C157.773 44.1394 160.673 43.9737 162.496 45.6299C164.318 47.286 164.484 50.1842 162.827 52.006C161.17 53.8277 158.27 53.9933 156.448 52.3372C154.625 50.6811 154.46 47.8657 156.117 45.9611Z" fill="#00344A"/>
<path d="M204.828 102.518C206.899 100.199 210.378 100.033 212.698 102.103C215.017 104.174 215.183 107.652 213.112 109.97C211.041 112.289 207.561 112.454 205.242 110.384C202.922 108.314 202.756 104.836 204.828 102.518Z" fill="#00344A"/>
<path d="M206.98 104.422C207.974 103.345 209.714 103.18 210.791 104.173C211.868 105.167 212.033 106.906 211.039 107.982C210.045 109.059 208.305 109.224 207.228 108.231C206.068 107.237 205.986 105.581 206.98 104.422Z" fill="#00344A"/>
<path d="M298.444 93.7416C300.018 92.0026 302.669 91.837 304.409 93.4104C306.149 94.9837 306.314 97.6335 304.74 99.3724C303.166 101.111 300.515 101.277 298.775 99.7036C297.036 98.2131 296.953 95.4805 298.444 93.7416Z" fill="#00344A"/>
<path d="M344.337 130.009C345.331 128.85 347.153 128.767 348.313 129.761C349.473 130.754 349.556 132.576 348.562 133.736C347.568 134.895 345.745 134.978 344.585 133.984C343.425 132.99 343.343 131.169 344.337 130.009Z" fill="#00344A"/>
<path d="M351.46 131.582C351.543 132.907 351.046 134.232 350.217 135.226C348.395 137.296 345.164 137.462 343.093 135.64C342.098 134.729 341.518 133.487 341.436 132.162C341.353 130.837 341.85 129.512 342.678 128.518C343.59 127.525 344.832 126.945 346.158 126.862C347.483 126.78 348.809 127.276 349.803 128.104C350.797 129.015 351.377 130.257 351.46 131.582ZM342.181 132.162C342.264 133.321 342.761 134.315 343.59 135.143C345.329 136.716 348.063 136.551 349.637 134.812C350.383 133.984 350.797 132.907 350.714 131.748C350.631 130.589 350.134 129.595 349.306 128.767C348.477 128.022 347.4 127.608 346.241 127.69C345.081 127.773 344.087 128.27 343.258 129.098C342.513 129.926 342.098 131.003 342.181 132.162Z" fill="#00344A"/>
<path d="M120.165 127.361C121.159 126.202 122.982 126.119 124.141 127.112C125.301 128.106 125.384 129.928 124.39 131.087C123.396 132.246 121.573 132.329 120.413 131.336C119.171 130.259 119.088 128.437 120.165 127.361Z" fill="#00344A"/>
<path d="M120.994 128.106C121.574 127.444 122.651 127.361 123.314 127.941C123.976 128.52 124.059 129.597 123.479 130.259C122.899 130.922 121.823 131.005 121.16 130.425C120.414 129.845 120.414 128.769 120.994 128.106Z" fill="#00344A"/>
<path d="M265.887 210.002C268.786 206.772 273.84 206.441 277.071 209.422C280.302 212.321 280.633 217.372 277.651 220.601C274.751 223.831 269.78 224.162 266.467 221.181C263.319 218.283 262.987 213.231 265.887 210.002Z" fill="#00344A"/>
<path d="M267.706 211.575C269.694 209.339 273.173 209.174 275.41 211.161C277.647 213.148 277.895 216.626 275.824 218.862C273.836 221.098 270.357 221.346 268.12 219.276C265.883 217.289 265.717 213.894 267.706 211.575Z" fill="#00344A"/>
<path d="M109.475 94.4868C111.298 92.4167 114.446 92.251 116.434 94.0728C118.505 95.8945 118.671 99.0412 116.848 101.029C115.026 103.099 111.878 103.264 109.889 101.443C107.818 99.6208 107.653 96.4742 109.475 94.4868Z" fill="#00344A"/>
<path d="M111.38 96.1435C112.292 95.1499 113.866 95.0671 114.86 95.978C115.854 96.8888 115.937 98.4621 115.025 99.4558C114.114 100.449 112.54 100.532 111.546 99.6214C110.469 98.7106 110.386 97.1372 111.38 96.1435Z" fill="#00344A"/>
<path d="M39.8032 166.362C41.6258 164.292 44.7739 164.126 46.7622 165.948C48.8333 167.77 48.999 170.916 47.1764 172.904C45.3538 174.974 42.2057 175.139 40.2175 173.318C38.1463 171.496 37.9807 168.432 39.8032 166.362Z" fill="#00344A"/>
<path d="M52.0632 102.519C53.1402 101.36 54.8799 101.277 56.0398 102.271C57.1996 103.347 57.2825 105.086 56.2883 106.245C55.2114 107.405 53.4716 107.487 52.3118 106.494C51.152 105.5 51.0691 103.678 52.0632 102.519Z" fill="#00344A"/>
<path d="M116.269 210.83C117.346 209.588 119.251 209.505 120.494 210.581C121.736 211.658 121.819 213.563 120.742 214.805C119.665 216.047 117.76 216.13 116.517 215.053C115.274 213.977 115.109 212.072 116.269 210.83Z" fill="#00344A"/>
<path d="M115.438 210.167C116.929 208.511 119.497 208.345 121.154 209.836C122.811 211.326 122.977 213.893 121.486 215.549C119.994 217.206 117.426 217.371 115.769 215.881C114.113 214.39 113.947 211.823 115.438 210.167Z" fill="#00344A"/>
<path d="M96.3013 51.3447C94.8101 53.0008 94.9758 55.5678 96.6326 57.0584C98.2895 58.5489 100.858 58.3833 102.349 56.7271C103.84 55.071 103.674 52.504 102.018 51.0135C100.278 49.5229 97.7925 49.6886 96.3013 51.3447Z" fill="#00344A"/>
<path d="M200.77 180.688C199.279 182.345 199.445 184.912 201.101 186.402C202.758 187.893 205.326 187.727 206.818 186.071C208.309 184.415 208.143 181.848 206.486 180.357C204.829 178.95 202.261 179.032 200.77 180.688Z" fill="#00344A"/>
<path d="M278.313 271.03C276.822 272.686 276.987 275.253 278.644 276.744C280.301 278.234 282.869 278.069 284.361 276.413C285.852 274.757 285.686 272.19 284.029 270.699C282.372 269.209 279.804 269.374 278.313 271.03Z" fill="#00344A"/>
<path d="M116.269 210.83C117.346 209.588 119.251 209.505 120.494 210.581C121.736 211.658 121.819 213.563 120.742 214.805C119.665 216.047 117.76 216.13 116.517 215.053C115.274 213.977 115.109 212.072 116.269 210.83Z" fill="#00344A"/>
<path d="M269.28 0.99787C270.357 -0.244227 272.263 -0.327023 273.505 0.749461C274.748 1.82594 274.831 3.7305 273.754 4.9726C272.677 6.21469 270.771 6.29749 269.529 5.221C268.286 4.14452 268.203 2.23997 269.28 0.99787Z" fill="#00344A"/>
<path d="M264.393 349.199C267.624 345.638 273.174 345.307 276.736 348.536C280.299 351.766 280.63 357.314 277.399 360.874C274.168 364.435 268.618 364.766 265.055 361.537C261.41 358.307 261.162 352.842 264.393 349.199Z" fill="#00344A"/>
<path d="M289.415 204.867C290.575 204.618 291.735 205.446 291.983 206.606C292.232 207.765 291.403 208.924 290.243 209.173C289.084 209.421 287.924 208.593 287.675 207.434C287.51 206.274 288.255 205.115 289.415 204.867Z" fill="#00344A"/>
<path d="M162.251 459.581C163.576 459.333 164.902 460.244 165.15 461.569C165.399 462.894 164.488 464.219 163.162 464.467C161.837 464.715 160.511 463.804 160.263 462.48C160.014 461.072 160.843 459.83 162.251 459.581Z" fill="#00344A"/>
<path d="M220.903 369.818C222.229 369.569 223.554 370.48 223.803 371.805C224.051 373.13 223.14 374.455 221.815 374.703C220.489 374.952 219.164 374.041 218.915 372.716C218.667 371.391 219.578 370.066 220.903 369.818Z" fill="#00344A"/>
<path d="M74.52 364.518C77.0053 364.021 79.4078 365.677 79.822 368.161C80.319 370.645 78.6622 373.047 76.1769 373.461C73.6915 373.958 71.289 372.301 70.8748 369.817C70.4606 367.333 72.0346 365.014 74.52 364.518Z" fill="#00344A"/>
<path d="M171.364 170.918C173.849 170.421 176.252 172.077 176.666 174.561C177.163 177.046 175.506 179.447 173.021 179.861C170.535 180.358 168.133 178.702 167.719 176.218C167.221 173.733 168.878 171.415 171.364 170.918Z" fill="#00344A"/>
<path d="M182.464 246.105C183.707 247.181 184.535 248.672 184.867 250.328C185.612 254.468 182.961 258.443 178.819 259.188C176.5 259.602 174.097 258.94 172.357 257.366C171.115 256.29 170.286 254.799 169.955 253.143C169.209 249.003 171.86 245.028 176.002 244.283C178.322 243.869 180.642 244.531 182.464 246.105ZM173.02 256.621C174.594 258.029 176.582 258.526 178.571 258.194C182.133 257.532 184.453 254.054 183.79 250.576C183.541 249.168 182.796 247.926 181.719 246.933C180.228 245.525 178.156 245.028 176.168 245.359C172.606 246.022 170.286 249.5 170.949 252.977C171.197 254.385 171.943 255.71 173.02 256.621Z" fill="#00344A"/>
<path d="M176.498 247.099C179.066 246.602 181.552 248.258 182.049 250.825C182.546 253.392 180.889 255.876 178.321 256.373C175.753 256.87 173.267 255.214 172.77 252.647C172.273 250.08 173.93 247.595 176.498 247.099Z" fill="#00344A"/>
<path d="M255.949 296.12C258.268 295.706 260.505 297.197 260.919 299.515C261.334 301.834 259.842 304.07 257.523 304.484C255.203 304.898 252.966 303.407 252.552 301.089C252.138 298.77 253.629 296.534 255.949 296.12Z" fill="#00344A"/>
<path d="M270.446 353.173C271.938 352.842 273.429 353.918 273.76 355.409C274.091 356.899 273.015 358.39 271.523 358.721C270.032 359.052 268.541 357.976 268.21 356.485C267.961 354.912 268.955 353.421 270.446 353.173Z" fill="#00344A"/>
<path d="M92.7432 213.976C94.2344 213.645 95.7256 214.721 96.057 216.212C96.3884 217.702 95.3114 219.193 93.8202 219.524C92.329 219.855 90.8378 218.779 90.5064 217.288C90.2579 215.715 91.252 214.224 92.7432 213.976Z" fill="#00344A"/>
<path d="M158.937 369.901C162.83 369.156 166.641 371.723 167.387 375.614C168.132 379.506 165.564 383.315 161.671 384.061C157.777 384.806 153.966 382.239 153.22 378.347C152.392 374.372 155.043 370.646 158.937 369.901Z" fill="#00344A"/>
<g opacity="0.5">
<path d="M212.041 174.313C214.112 176.135 215.437 178.619 216.017 181.269C217.343 188.059 212.869 194.601 206.076 195.925C202.182 196.671 198.289 195.594 195.389 192.944C193.318 191.123 191.992 188.638 191.413 185.989C190.75 182.676 191.495 179.364 193.401 176.632C195.306 173.899 198.123 171.994 201.437 171.332C205.165 170.587 209.058 171.663 212.041 174.313ZM195.389 192.862C198.289 195.429 202.182 196.505 205.993 195.843C212.704 194.601 217.177 188.059 215.852 181.351C215.355 178.619 213.946 176.217 211.958 174.396C209.058 171.829 205.165 170.752 201.354 171.415C198.123 171.994 195.306 173.899 193.401 176.632C191.495 179.364 190.833 182.676 191.495 185.906C191.992 188.638 193.318 191.04 195.389 192.862Z" fill="#00344A"/>
</g>
<g opacity="0.5">
<path d="M337.797 267.47C340.779 270.203 342.85 273.68 343.596 277.738C345.501 287.675 338.957 297.28 329.015 299.185C323.382 300.261 317.666 298.688 313.358 294.796C310.375 292.063 308.304 288.586 307.559 284.528C306.647 279.725 307.642 274.84 310.375 270.782C313.109 266.725 317.334 263.992 322.139 263.081C327.773 262.005 333.489 263.578 337.797 267.47ZM313.441 294.63C317.666 298.44 323.382 300.013 328.932 298.936C338.791 297.032 345.253 287.509 343.347 277.738C342.602 273.763 340.614 270.285 337.631 267.636C333.406 263.826 327.69 262.253 322.139 263.33C317.334 264.24 313.275 266.973 310.541 270.948C307.807 274.923 306.813 279.808 307.724 284.528C308.47 288.503 310.458 291.981 313.441 294.63Z" fill="#00344A"/>
</g>
<path d="M104.343 181.185C107.077 180.688 109.645 182.427 110.142 185.16C110.639 187.893 108.899 190.46 106.165 190.956C103.432 191.453 100.863 189.714 100.366 186.982C99.8692 184.332 101.692 181.682 104.343 181.185Z" fill="#00344A"/>
<path d="M4.67877 196.09C7.41263 195.593 9.9808 197.332 10.4779 200.064C10.9749 202.797 9.23521 205.364 6.50135 205.861C3.76749 206.358 1.19932 204.619 0.702258 201.886C0.205192 199.236 1.94491 196.586 4.67877 196.09Z" fill="#00344A"/>
<path d="M53.5596 152.534C55.1337 152.203 56.6249 153.28 56.8734 154.77C57.2048 156.343 56.1278 157.834 54.6366 158.082C53.0626 158.414 51.5714 157.337 51.3229 155.847C50.9915 154.273 51.9856 152.783 53.5596 152.534Z" fill="#00344A"/>
<path d="M38.1514 276.082C41.051 275.502 43.7849 277.406 44.3648 280.305C44.9447 283.203 43.0393 285.936 40.1397 286.515C37.2402 287.095 34.5063 285.19 33.9264 282.292C33.3465 279.394 35.2519 276.661 38.1514 276.082Z" fill="#00344A"/>
<path d="M72.3631 479.537C77.1681 478.626 81.7245 481.772 82.6358 486.575C83.5471 491.378 80.399 495.932 75.6769 496.843C70.8719 497.754 66.3155 494.607 65.4042 489.805C64.493 485.002 67.641 480.447 72.3631 479.537Z" fill="#00344A"/>
<path d="M268.289 352.677C269.614 351.269 271.768 351.103 273.177 352.428C274.585 353.67 274.751 355.906 273.425 357.314C272.1 358.722 269.946 358.887 268.537 357.562C267.129 356.32 266.963 354.167 268.289 352.677Z" fill="#00344A"/>
<g opacity="0.3">
<path d="M337.301 481.525L269.369 483.678L269.451 483.595L291.571 443.268L291.654 443.351L337.301 481.525ZM269.617 483.512L336.887 481.359L291.571 443.434L269.617 483.512Z" fill="#808080"/>
<path d="M291.652 443.268L269.45 483.678L269.367 483.595L224.051 443.351L224.3 443.351L291.652 443.268ZM269.45 483.429L291.404 443.351L224.466 443.517L269.45 483.429Z" fill="#808080"/>
<path d="M391.895 444.097L391.729 444.18L337.052 481.525L337.052 481.443L307.973 414.949L308.139 415.032L391.895 444.097ZM337.134 481.36L391.563 444.18L308.222 415.28L337.134 481.36Z" fill="#808080"/>
<path d="M337.301 481.689L337.052 481.441L291.488 443.267L291.488 443.184L308.057 414.865L308.14 415.03L337.301 481.689ZM291.654 443.267L336.887 481.11L308.057 415.196L291.654 443.267Z" fill="#808080"/>
<path d="M231.094 367.582L231.094 367.665L224.383 443.516L113.289 394.66L113.538 394.577L231.094 367.582ZM224.218 443.35L230.928 367.831L113.786 394.743L224.218 443.35Z" fill="#808080"/>
<path d="M291.734 443.434L291.569 443.434L224.216 443.6L224.216 443.517L230.927 367.583L231.01 367.749L291.734 443.434ZM224.382 443.351L291.403 443.268L231.092 367.914L224.382 443.351Z" fill="#808080"/>
<path d="M308.223 415.113L291.571 443.516L291.488 443.433L230.68 367.416L231.095 367.665L308.223 415.113ZM291.571 443.184L307.974 415.113L231.343 367.996L291.571 443.184Z" fill="#808080"/>
<path d="M391.812 444.262L391.647 444.179L307.891 415.114L307.974 415.031L371.267 359.965L371.267 360.13L391.812 444.262ZM308.223 415.114L391.564 444.013L371.184 360.296L308.223 415.114Z" fill="#808080"/>
<path d="M371.516 360.048L371.35 360.214L308.14 415.197L308.057 415.197L230.763 367.584L231.012 367.584L371.516 360.048ZM308.057 415.032L371.019 360.214L231.26 367.749L308.057 415.032Z" fill="#808080"/>
<path d="M231.176 367.748L231.01 367.748L113.371 394.826L113.454 394.661L160.675 307.631L160.758 307.714L231.176 367.748ZM113.703 394.578L230.844 367.666L160.675 307.962L113.703 394.578Z" fill="#808080"/>
<path d="M350.391 270.202L350.308 270.285L230.846 367.914L230.929 367.666L267.132 247.431L267.215 247.431L350.391 270.202ZM231.178 367.417L350.059 270.202L267.298 247.513L231.178 367.417Z" fill="#808080"/>
<path d="M160.758 307.797L113.205 395.406L113.371 394.661L155.29 250.578L160.758 307.797ZM113.785 393.999L160.592 307.714L155.29 251.323L113.785 393.999Z" fill="#808080"/>
<path d="M206.656 242.546L160.595 307.963L160.595 307.714L155.21 250.826L155.293 250.826L206.656 242.546ZM160.761 307.549L206.408 242.794L155.459 251.075L160.761 307.549Z" fill="#808080"/>
<path d="M231.094 367.914L230.928 367.748L160.51 307.797L160.593 307.714L206.572 242.462L206.572 242.628L231.094 367.914ZM160.759 307.797L230.845 367.5L206.489 242.876L160.759 307.797Z" fill="#808080"/>
<path d="M267.297 247.43L267.297 247.513L231.011 367.996L230.928 367.665L206.406 242.544L206.489 242.544L267.297 247.43ZM231.011 367.334L267.131 247.513L206.655 242.71L231.011 367.334Z" fill="#808080"/>
<path d="M278.148 163.464L267.296 247.596L267.213 247.596L206.322 242.793L206.405 242.71L278.148 163.464ZM267.13 247.43L277.9 163.961L206.654 242.627L267.13 247.43Z" fill="#808080"/>
<path d="M350.391 270.369L350.225 270.286L267.132 247.515L267.132 247.432L277.985 163.466L278.068 163.632L350.391 270.369ZM267.298 247.432L350.059 270.038L278.068 163.88L267.298 247.432Z" fill="#808080"/>
<path d="M369.195 151.625L369.195 151.707L350.307 270.369L350.224 270.204L277.984 163.549L369.195 151.625ZM350.224 269.955L368.947 151.79L278.15 163.714L350.224 269.955Z" fill="#808080"/>
<path d="M374.168 446.58L374.002 446.497L318.497 406.833L318.662 406.75L360.996 388.036L360.996 388.119L374.168 446.58ZM318.828 406.833L373.919 446.249L360.913 388.202L318.828 406.833Z" fill="#808080"/>
<path d="M361.074 388.119L360.991 388.202L318.575 406.916L318.575 406.833L306.977 346.964L307.143 347.047L361.074 388.119ZM318.741 406.668L360.826 388.036L307.225 347.213L318.741 406.668Z" fill="#808080"/>
<path d="M440.691 450.059L440.526 450.059L373.919 446.498L373.919 446.415L391.316 375.45L391.399 375.616L440.691 450.059ZM374.085 446.332L440.36 449.893L391.482 375.864L374.085 446.332Z" fill="#808080"/>
<path d="M391.48 375.532L391.48 375.697L374 446.828L373.917 446.497L360.828 388.036L360.911 388.036L391.48 375.532ZM374 446.083L391.315 375.78L361.077 388.118L374 446.083Z" fill="#808080"/>
<path d="M358.922 290.573L307.061 347.213L306.979 347.13L248.159 240.227L358.922 290.573ZM307.061 346.964L358.673 290.656L248.491 240.641L307.061 346.964Z" fill="#808080"/>
<path d="M358.842 290.407L358.842 290.572L360.996 388.201L360.83 388.118L306.982 347.129L307.065 347.046L358.842 290.407ZM360.83 387.953L358.676 290.821L307.147 347.129L360.83 387.953Z" fill="#808080"/>
<path d="M391.48 375.697L360.828 388.201L360.828 388.118L358.674 290.158L391.48 375.697ZM360.994 387.953L391.315 375.532L358.84 290.986L360.994 387.953Z" fill="#808080"/>
<path d="M475.648 370.232L475.566 370.315L440.44 450.141L440.357 450.058L391.147 375.615L391.313 375.615L475.648 370.232ZM440.522 449.809L475.4 370.398L391.479 375.78L440.522 449.809Z" fill="#808080"/>
<path d="M475.816 370.315L391.398 375.697L391.398 375.614L358.675 290.324L358.923 290.489L475.816 370.315ZM391.481 375.532L475.319 370.149L358.923 290.738L391.481 375.532Z" fill="#808080"/>
<path d="M369.941 150.712L369.693 151.043L339.206 199.733L247.663 240.723L248.243 240.309L369.941 150.712ZM339.123 199.651L369.362 151.374L248.989 240.06L339.123 199.651Z" fill="#808080"/>
<path d="M415.836 175.721L415.67 175.804L338.956 199.9L369.609 150.962L369.692 150.962L415.836 175.721ZM339.371 199.569L415.505 175.638L369.692 151.127L339.371 199.569Z" fill="#808080"/>
<path d="M461.402 216.627L358.593 290.904L358.758 290.656L415.672 175.638L415.755 175.721L461.402 216.627ZM359.007 290.407L461.154 216.627L415.755 175.803L359.007 290.407Z" fill="#808080"/>
<path d="M278.148 166.115C276.823 166.197 275.663 165.121 275.58 163.713C275.497 162.388 276.574 161.229 277.983 161.146C279.308 161.063 280.468 162.14 280.551 163.548C280.551 164.955 279.474 166.115 278.148 166.115Z" fill="#808080"/>
<path d="M206.57 245.113C205.245 245.196 204.085 244.119 204.002 242.711C203.919 241.386 204.996 240.227 206.404 240.144C207.73 240.062 208.89 241.138 208.973 242.546C208.973 243.953 207.979 245.113 206.57 245.113Z" fill="#808080"/>
<path d="M349.392 273.019C346.907 273.102 344.835 271.114 344.753 268.63C344.67 266.146 346.658 264.076 349.143 263.993C351.629 263.91 353.7 265.898 353.783 268.382C353.866 270.866 351.877 272.936 349.392 273.019Z" fill="#808080"/>
<path d="M224.38 447.988C221.895 448.071 219.824 446.083 219.741 443.599C219.658 441.115 221.646 439.045 224.132 438.962C226.617 438.879 228.688 440.866 228.771 443.351C228.854 445.835 226.948 447.905 224.38 447.988Z" fill="#808080"/>
<path d="M231.752 373.793C228.687 373.876 226.118 371.474 226.036 368.41C225.953 365.347 228.355 362.78 231.42 362.697C234.486 362.614 237.054 365.015 237.137 368.079C237.302 371.06 234.817 373.627 231.752 373.793Z" fill="#808080"/>
<path d="M231.669 370.895C230.178 370.977 228.935 369.735 228.853 368.245C228.77 366.754 230.012 365.512 231.504 365.429C232.995 365.346 234.237 366.589 234.32 368.079C234.32 369.57 233.161 370.812 231.669 370.895Z" fill="#808080"/>
<path d="M160.757 312.021C158.438 312.104 156.45 310.282 156.367 307.88C156.284 305.562 158.106 303.574 160.509 303.492C162.829 303.409 164.817 305.231 164.9 307.632C164.982 310.033 163.16 311.938 160.757 312.021Z" fill="#808080"/>
<path d="M155.372 253.807C153.798 253.889 152.555 252.647 152.472 251.074C152.389 249.501 153.632 248.259 155.206 248.176C156.78 248.093 158.023 249.335 158.105 250.908C158.188 252.482 156.946 253.724 155.372 253.807Z" fill="#808080"/>
<path d="M151.642 247.513C152.553 246.519 153.796 245.939 155.121 245.939C157.855 245.857 160.175 248.01 160.258 250.825C160.258 252.15 159.844 253.475 158.932 254.386C158.021 255.379 156.778 255.959 155.453 255.959C154.127 255.959 152.802 255.545 151.891 254.634C150.896 253.723 150.317 252.481 150.317 251.156C150.234 249.831 150.731 248.506 151.642 247.513ZM158.435 253.889C159.181 253.061 159.595 251.984 159.595 250.825C159.512 248.506 157.524 246.602 155.204 246.685C154.044 246.685 152.968 247.181 152.222 248.01C151.476 248.838 151.062 249.914 151.062 251.073C151.062 252.233 151.559 253.309 152.388 254.054C153.216 254.8 154.293 255.214 155.453 255.214C156.613 255.214 157.69 254.717 158.435 253.889Z" fill="#808080"/>
<path d="M308.137 417.93C306.563 418.012 305.321 416.77 305.238 415.197C305.155 413.624 306.397 412.382 307.972 412.299C309.546 412.216 310.788 413.458 310.871 415.031C310.954 416.605 309.711 417.847 308.137 417.93Z" fill="#808080"/>
<path d="M308.137 416.77C307.226 416.77 306.48 416.107 306.48 415.196C306.48 414.285 307.143 413.54 308.054 413.54C308.965 413.54 309.711 414.203 309.711 415.113C309.711 415.941 309.048 416.687 308.137 416.77Z" fill="#808080"/>
<path d="M267.462 255.381C263.072 255.547 259.426 252.069 259.344 247.763C259.178 243.374 262.657 239.731 266.965 239.648C271.356 239.482 275.001 242.96 275.084 247.266C275.25 251.572 271.853 255.215 267.462 255.381Z" fill="#808080"/>
<path d="M267.376 252.978C264.393 253.061 261.825 250.66 261.742 247.679C261.659 244.698 264.062 242.131 267.044 242.048C270.027 241.965 272.595 244.367 272.678 247.348C272.76 250.329 270.358 252.896 267.376 252.978Z" fill="#808080"/>
<path d="M291.734 448.236C289 448.319 286.681 446.166 286.598 443.433C286.515 440.701 288.669 438.382 291.403 438.299C294.137 438.216 296.456 440.369 296.539 443.102C296.539 445.917 294.468 448.153 291.734 448.236Z" fill="#808080"/>
<path d="M291.652 445.835C290.244 445.918 289.167 444.842 289.084 443.434C289.001 442.026 290.078 440.95 291.487 440.867C292.895 440.784 293.972 441.943 294.055 443.268C294.055 444.593 292.978 445.753 291.652 445.835Z" fill="#808080"/>
<path d="M391.81 449.064C389.076 449.147 386.756 446.994 386.674 444.261C386.591 441.529 388.745 439.21 391.479 439.127C394.212 439.045 396.532 441.197 396.615 443.93C396.698 446.746 394.544 448.981 391.81 449.064Z" fill="#808080"/>
<path d="M337.133 484.258C335.559 484.341 334.234 483.099 334.234 481.525C334.151 479.952 335.394 478.627 336.968 478.627C338.542 478.544 339.867 479.786 339.867 481.36C339.95 482.933 338.707 484.258 337.133 484.258Z" fill="#808080"/>
<path d="M371.347 363.112C369.69 363.194 368.364 361.869 368.281 360.213C368.198 358.557 369.524 357.232 371.181 357.149C372.838 357.067 374.163 358.392 374.246 360.048C374.246 361.704 373.003 363.029 371.347 363.112Z" fill="#808080"/>
<path d="M371.35 364.189C369.113 364.271 367.29 362.532 367.207 360.297C367.125 358.061 368.864 356.239 371.101 356.156C373.338 356.074 375.16 357.812 375.243 360.048C375.326 362.201 373.586 364.106 371.35 364.189Z" fill="#808080"/>
<path d="M269.611 487.569C271.848 487.487 273.588 485.665 273.505 483.429C273.422 481.193 271.6 479.454 269.363 479.537C267.126 479.62 265.386 481.442 265.469 483.678C265.469 485.913 267.374 487.652 269.611 487.569Z" fill="#808080"/>
<path d="M291.154 322.702C293.391 322.619 295.131 320.798 295.048 318.562C294.965 316.326 293.143 314.587 290.906 314.67C288.669 314.753 286.929 316.575 287.012 318.81C287.095 321.046 288.917 322.785 291.154 322.702Z" fill="#808080"/>
<path d="M303.084 204.288C305.321 204.205 307.06 202.384 306.978 200.148C306.895 197.912 305.072 196.173 302.835 196.256C300.599 196.339 298.859 198.161 298.942 200.396C299.025 202.632 300.847 204.371 303.084 204.288Z" fill="#808080"/>
<path d="M371.347 363.112C369.69 363.194 368.364 361.869 368.281 360.213C368.198 358.557 369.524 357.232 371.181 357.149C372.838 357.067 374.163 358.392 374.246 360.048C374.246 361.704 373.003 363.029 371.347 363.112Z" fill="#808080"/>
<path d="M113.784 397.145C112.127 397.228 110.802 395.903 110.719 394.247C110.636 392.59 111.961 391.265 113.618 391.183C115.275 391.1 116.601 392.425 116.684 394.081C116.684 395.737 115.441 397.062 113.784 397.145Z" fill="#808080"/>
<path d="M369.357 160.483C364.552 160.649 360.493 156.84 360.327 152.037C360.161 147.234 363.972 143.177 368.777 143.011C373.582 142.845 377.642 146.654 377.807 151.457C377.973 156.26 374.162 160.317 369.357 160.483Z" fill="#808080"/>
<path d="M247.497 241.884C246.503 241.221 246.255 239.814 247 238.82C247.663 237.826 249.071 237.578 250.066 238.323C251.06 238.986 251.308 240.393 250.563 241.387C249.817 242.381 248.491 242.546 247.497 241.884Z" fill="#808080"/>
<path d="M414.185 177.708C413.108 176.88 412.776 175.39 413.605 174.23C414.433 173.154 415.924 172.823 417.084 173.651C418.161 174.479 418.493 175.969 417.664 177.129C416.919 178.205 415.345 178.454 414.185 177.708Z" fill="#808080"/>
<path d="M304.412 350.773C302.341 349.283 301.927 346.467 303.335 344.397C304.826 342.327 307.643 341.913 309.714 343.321C311.785 344.811 312.2 347.626 310.791 349.697C309.3 351.767 306.483 352.264 304.412 350.773Z" fill="#808080"/>
<path d="M353.872 297.529C350.061 294.797 349.233 289.497 351.884 285.771C354.618 281.962 359.92 281.134 363.648 283.784C367.459 286.516 368.287 291.733 365.636 295.542C362.902 299.351 357.683 300.179 353.872 297.529Z" fill="#808080"/>
<path d="M336.723 203.212C334.818 201.804 334.321 199.155 335.729 197.25C337.138 195.345 339.789 194.849 341.694 196.256C343.6 197.664 344.097 200.314 342.688 202.218C341.28 204.123 338.629 204.62 336.723 203.212Z" fill="#808080"/>
<path d="M368.037 153.362C366.794 152.451 366.463 150.712 367.374 149.47C368.285 148.228 370.025 147.897 371.268 148.808C372.51 149.719 372.842 151.458 371.93 152.7C371.019 153.942 369.279 154.273 368.037 153.362Z" fill="#808080"/>
<path d="M389.743 377.934C388.5 377.023 388.169 375.284 389.08 373.959C389.991 372.717 391.731 372.386 393.057 373.297C394.299 374.208 394.631 375.947 393.719 377.189C392.808 378.596 391.068 378.845 389.743 377.934Z" fill="#808080"/>
<path d="M457.012 222.506C453.781 220.188 453.035 215.633 455.355 212.404C457.675 209.174 462.231 208.429 465.462 210.748C468.693 213.066 469.439 217.621 467.119 220.85C464.799 224.08 460.326 224.825 457.012 222.506Z" fill="#808080"/>
<path d="M358.012 392.176C355.775 390.603 355.278 387.456 356.852 385.22C358.426 382.984 361.574 382.488 363.811 384.061C366.047 385.634 366.544 388.781 364.97 391.017C363.396 393.252 360.248 393.749 358.012 392.176Z" fill="#808080"/>
<path d="M437.629 454.033C435.392 452.46 434.895 449.313 436.469 447.078C438.043 444.842 441.191 444.345 443.428 445.918C445.665 447.492 446.162 450.638 444.588 452.874C443.014 455.11 439.866 455.607 437.629 454.033Z" fill="#808080"/>
<path d="M372.344 448.733C371.102 447.822 370.77 446.084 371.682 444.759C372.593 443.517 374.333 443.185 375.658 444.096C376.901 445.007 377.232 446.746 376.321 448.071C375.41 449.313 373.67 449.644 372.344 448.733Z" fill="#808080"/>
<path d="M473.831 372.717C472.505 371.723 472.174 369.902 473.168 368.577C474.162 367.252 475.984 366.921 477.31 367.914C478.636 368.908 478.967 370.73 477.973 372.055C477.061 373.38 475.156 373.711 473.831 372.717Z" fill="#808080"/>
</g>
</svg>
